<?xml version="1.0" encoding="UTF-8"?>
<svg width="309px" height="124px" viewBox="0 0 309 124" version="1.1" xmlns="http://www.w3.org/2000/svg" xmlns:xlink="http://www.w3.org/1999/xlink">
    <title>Combined Shape</title>
    <defs>
        <linearGradient x1="100%" y1="0%" x2="23.7884974%" y2="0%" id="linearGradient-1">
            <stop stop-color="#8427E2" offset="0%"></stop>
            <stop stop-color="#7D63EA" offset="39.7097906%"></stop>
            <stop stop-color="#72C9F8" offset="100%"></stop>
        </linearGradient>
    </defs>
    <g id="Pattern-Library" stroke="none" stroke-width="1" fill="none" fill-rule="evenodd">
        <g id="4---Navigation-&amp;-Footer-/-Navigation-bar-/-Desktop-/-Large" transform="translate(-211.000000, 0.000000)" fill="url(#linearGradient-1)">
            <path d="M50.1342913,-169.544831 C54.4062235,-176.263706 62.8988945,-177.752931 69.983377,-173.940484 L69.983377,-173.940484 L450.957017,28.3649748 C475.227194,41.2514233 481.515098,75.6218178 466.508065,99.452108 C451.553669,123.253374 418.594171,132.340172 396.178623,114.999979 L396.178623,114.999979 L54.6084699,-149.431607 C48.2770033,-154.376313 45.8923172,-162.773875 50.1342913,-169.544831 Z M189.910588,-36.665496 C192.250808,-38.8173495 195.680188,-38.5109909 198.020037,-36.3029264 L198.020037,-36.3029264 L324.126729,81.3899738 C332.160599,88.8870773 331.04414,102.816128 322.799669,110.463255 C314.578492,118.104635 300.928479,118.193162 294.068968,109.168227 L294.068968,109.168227 L189.563735,-28.4318683 C187.631031,-30.9991243 187.576556,-34.4904151 189.910588,-36.665496 Z M335.917768,-52.9539279 C337.130276,-55.8942345 340.367686,-57.0674298 343.420492,-56.0561517 L343.420492,-56.0561517 L507.398628,-2.74147391 C517.844855,0.654360907 522.713457,13.7507028 518.469832,24.1693 C514.244893,34.5728333 501.911153,40.4279068 491.884248,35.1505565 L491.884248,35.1505565 L339.079421,-45.3449858 C336.243972,-46.8540506 334.720676,-49.9951885 335.917768,-52.9539279 Z" id="Combined-Shape"></path>
        </g>
    </g>
</svg>