<svg xmlns="http://www.w3.org/2000/svg" viewBox="0 0 1500 1500" width="1500" height="1500"><g transform="translate(13.0 183.0) rotate(0.0 292.5 659.5) scale(0.9925920395815164 0.9931765233852035)"><svg width="589.366" height="1328.062" viewBox="0 0 589.366 1328.062"><linearGradient id="a" gradientUnits="userSpaceOnUse" x1="-189.805" x2="185.071" y1="381.092" y2="569.832"><stop offset="0" stop-color="#fcee21"/><stop offset="1" stop-color="#eb7fdc"/></linearGradient><linearGradient id="b" gradientUnits="userSpaceOnUse" x1="-14.854" x2="282.899" y1="249.38" y2="263.047"><stop offset="0" stop-color="#3cce92"/><stop offset=".146" stop-color="#38c090"/><stop offset=".425" stop-color="#2d9a8b"/><stop offset=".804" stop-color="#1b5d83"/><stop offset="1" stop-color="#113b7f"/></linearGradient><linearGradient xmlns:xlink="http://www.w3.org/1999/xlink" id="c" x1="92.411" x2="405.016" xlink:href="#a" y1="674.053" y2="674.053"/><linearGradient xmlns:xlink="http://www.w3.org/1999/xlink" id="d" x1="131.71" x2="215.666" xlink:href="#b" y1="424.036" y2="646.619"/><linearGradient xmlns:xlink="http://www.w3.org/1999/xlink" id="e" x1="584.683" x2="476.645" xlink:href="#a" y1="1027.442" y2="1204.467"/><path d="M491.2 1328.062c-108.955-322.942-87.35-548.577-40.62-701.178 16.124-52.646 41.1-115.767 54.908-185.53.017-.079.028-.153.045-.232 13.9-70.358 16.408-147.472-13.012-227.408-10.664-28.962-52.821-143.539-169.466-192.7C164.792-45.694 9.567 67.1 0 74.29c68.544-24.473 106.087-14.6 127.522-1.7C159.2 91.655 160.1 119.971 213.1 166.106c15.093 13.137 32.589 28.366 58.944 41.373 54.216 26.757 88.086 15.558 105.128 26.933a21.642 21.642 0 0 1 5.957 5.94c20.721 30.469-44.905 82.186-58.943 155.86-9.845 51.654 3.531 125.328 95.216 227.272a1251.894 1251.894 0 0 0-26.071 220.471c-3.491 120.607 11.375 211.51 24.371 288.482a1870.39 1870.39 0 0 0 43.958 195.625z" fill="url(#a)"/><path d="M330.991 482.926c-9.594-27.187-18.735-66.659-9.635-110.519 14.651-70.61 66.625-104.615 52.143-130.922-11.07-20.108-43.881-4.689-101.451-32.873-25.887-12.673-42.714-27.247-58.943-41.373-53.415-46.495-54.065-74.549-85.582-93.516C106.087 60.822 68.549 50.949 0 75.423c67.568-40.777 115.39-41.315 146.792-34.006 67.171 15.634 72.57 70.277 161.528 111.086 61.008 27.987 119.8 13.1 135.456 49.875 4.941 11.6 3.371 22.161 1.7 33.439-7.81 52.716-53.862 73.135-83.315 113.92-18.294 25.335-35.561 65.979-31.17 133.189z" fill="url(#b)"/><path d="M397.772 921.2q-2.508-12.906-5.113-24.348c-19.6-86.262-43.068-112.395-64.027-115.4-16.612-2.386-32.169 9.681-49.286 0-18.5-10.468-12.638-31.551-27.216-52.227-24.711-35.06-68.686-12.866-108.13-41.925-33.433-24.638-39.418-68.284-47.806-129.46a418.528 418.528 0 0 1 2.851-130.407c.028-.176.062-.346.09-.522 30.985 108.57 81.212 167.513 122.835 201.542 61.6 50.368 112.865 53.128 150.793 108.127 39.954 57.942 35.499 130.946 25.009 184.62z" fill="url(#c)"/><path d="M392.659 896.851c-19.6-86.262-43.068-112.395-64.027-115.4-16.612-2.386-32.169 9.681-49.286 0-18.5-10.468-12.638-31.551-27.216-52.227-24.711-35.059-68.686-12.865-108.13-41.924-77.525-57.134-49.967-259.8-44.952-259.871 3.221-.048-14.512 88.2 39.741 164.407 18.927 26.585 40.463 42.2 81.043 71.979 69.37 50.907 93.106 49.578 122.425 79.913 24.343 25.187 49.933 69.511 50.402 153.123z" fill="url(#d)"/><path d="M486.782 1208.474c-17.536 25.357-22.989 51.944-24.938 69.712-12.544-90.869 13.552-173.3 71.979-210.269 12.471-7.89 30.571-16.339 55.543-19.837-4.847 54.192-23.617 84.454-39.673 102.018-21.582 23.607-42.64 29.065-62.911 58.376z" fill="url(#e)"/></svg></g><g transform="translate(311.0 171.0) rotate(0.0 539.0 665.5) scale(0.9925402954786935 0.9923674935898725)"><svg width="1086.102" height="1341.237" viewBox="0 0 1086.102 1341.237"><linearGradient id="f" gradientUnits="userSpaceOnUse" x1="110.389" x2="278.302" y1="-149.652" y2="360.596"><stop offset="0" stop-color="#3cce92"/><stop offset=".146" stop-color="#38c090"/><stop offset=".425" stop-color="#2d9a8b"/><stop offset=".804" stop-color="#1b5d83"/><stop offset="1" stop-color="#113b7f"/></linearGradient><linearGradient xmlns:xlink="http://www.w3.org/1999/xlink" id="g" x1="301.4" x2="490.139" xlink:href="#f" y1="717.289" y2="781.07"/><linearGradient xmlns:xlink="http://www.w3.org/1999/xlink" id="h" x1="397.278" x2="461.059" xlink:href="#f" y1="275.845" y2="394.296"/><linearGradient id="i" gradientUnits="userSpaceOnUse" x1="488.879" x2="579.17" y1="431.145" y2="431.145"><stop offset="0" stop-color="#fcee21"/><stop offset="1" stop-color="#eb7fdc"/></linearGradient><linearGradient xmlns:xlink="http://www.w3.org/1999/xlink" id="j" x1="418.856" x2="482.637" xlink:href="#f" y1="264.227" y2="382.677"/><linearGradient xmlns:xlink="http://www.w3.org/1999/xlink" id="k" x1="494.888" x2="558.669" xlink:href="#f" y1="223.286" y2="341.737"/><linearGradient xmlns:xlink="http://www.w3.org/1999/xlink" id="l" x1="966.399" x2="1034.085" xlink:href="#f" y1="1271.017" y2="1268.413"/><linearGradient xmlns:xlink="http://www.w3.org/1999/xlink" id="m" x1="965.413" x2="1033.099" xlink:href="#f" y1="1245.373" y2="1242.77"/><linearGradient xmlns:xlink="http://www.w3.org/1999/xlink" id="n" x1="965.097" x2="1032.783" xlink:href="#f" y1="1237.155" y2="1234.552"/><linearGradient xmlns:xlink="http://www.w3.org/1999/xlink" id="o" x1="351.817" x2="540.556" xlink:href="#f" y1="568.096" y2="631.877"/><linearGradient xmlns:xlink="http://www.w3.org/1999/xlink" id="p" x1="273.562" x2="462.302" xlink:href="#f" y1="799.666" y2="863.447"/><linearGradient xmlns:xlink="http://www.w3.org/1999/xlink" id="q" x1="17.879" x2="185.792" xlink:href="#f" y1="-119.208" y2="391.04"/><path d="m58.4 30.909-20.69 3.778a90.151 90.151 0 0 1-17.376 12.579 89.582 89.582 0 0 1-10.23 4.86 37.707 37.707 0 0 0 12 2.512 39.828 39.828 0 0 0 23.546-6.865 68.01 68.01 0 0 0 7.43-.287 69.151 69.151 0 0 0 20.632-5.264z"/><path d="M70.8 43.823 50.112 47.6A90.12 90.12 0 0 1 32.74 60.18a89.653 89.653 0 0 1-10.229 4.86 37.706 37.706 0 0 0 12 2.512 39.825 39.825 0 0 0 23.549-6.865 68.027 68.027 0 0 0 7.431-.287 69.168 69.168 0 0 0 20.632-5.264z"/><path d="m83.151 55.251-20.69 3.778a90.151 90.151 0 0 1-17.372 12.579 89.582 89.582 0 0 1-10.23 4.86 37.707 37.707 0 0 0 12 2.512 39.828 39.828 0 0 0 23.546-6.865 68.019 68.019 0 0 0 7.43-.287 69.151 69.151 0 0 0 20.632-5.264z"/><path d="M441.819 578.038c-21.555-.9-35.689-7.851-43.132-12.408-8.195-5.018-13.871-10.561-22.954-19.43 0 0-12.051-13.619-24.314-27.247-23.385-25.991-52.9-68.987-75.99-142.372a308.147 308.147 0 0 0-.82-21.885c-1.525-20.857-6.212-55.6-33.088-120.534a843.8 843.8 0 0 0-52.85-105.833c-12.807-8.325-27.089-8.2-34.459-1.04-1.442 1.4-4.539 4.934-5.455 11.746q4.306 10.97 8.272 22.453c25.031 72.647 32.627 142.825 31.385 205.407a2191.811 2191.811 0 0 1 19.429 40.978c38.09 82.531 34.092 87.4 75.038 186.709 14.855 36.028 23.986 56.259 24.815 87.445.544 20.446-2.875 30.8 1.773 33.679 8.488 5.256 38.696-17.638 132.35-137.668z" fill="url(#f)"/><path d="M575.8 731.637q-8.961 6.173-18.323 13.058a659.439 659.439 0 0 0-137.552 136.426c-.312.419-.629.839-.935 1.258 0 .006-.006.006-.006.012-.328.43-.646.867-.963 1.3a647.008 647.008 0 0 0-33.133 49.53q-3 4.94-5.827 9.822-9.1 9.267-17.173 18.561a392.388 392.388 0 0 0-47.772 68.205c-56.325 102.131-57.9 214.571-40.4 311.431h-23.639c-41.951-129.018-67.053-288.483-31.013-460.122a813.111 813.111 0 0 1 37.7-126.875c-6.308-10.338-18.59-33.893-16.147-64.266a100.171 100.171 0 0 1 5.809-26.411 299.228 299.228 0 0 0 43.108-3.944c63.6-10.52 91.606-36.534 140.286-52.109 24.824-7.946 61.669-15.3 111.187-10q14.121 54.442 28.248 108.892z"/><path d="M667.425 1341.237H260.63c-14.429-69.5-13.063-163.047 14.691-252.244q3.009-9.666 6.438-19.259a451.634 451.634 0 0 1 20.319-48.072q6.393-12.948 13.687-25.511A374.75 374.75 0 0 1 380 913.937a347.676 347.676 0 0 1 39.7-32.822c-.238.425-.476.845-.708 1.264 0 .006-.006.006-.006.012-14.418 25.844-18.969 46.18-16.079 64.163 3.724 23.2 14.583 42.768 29.376 60.4 4.256 5.073 8.835 9.981 13.67 14.77 6.506 6.455 13.472 12.69 20.7 18.8 14.736 12.469 30.583 24.433 45.959 36.726q6.224 4.974 12.316 10.038 4.105 3.434 8.121 6.925 2.475 2.151 4.971 4.421 7.439 6.743 15.07 14.521a362.635 362.635 0 0 1 35.82 42.915 421.891 421.891 0 0 1 36.3 61.636c16.427 33.959 31.061 74.636 42.215 123.531zM526.258 540.019a226.44 226.44 0 0 1-2.077-38.638 237.557 237.557 0 0 1 20.546-88.56c.169-.359.315-.706.472-1.043-.4.209-.791.429-1.193.638q-51.265 27.31-102.544 54.61a168.747 168.747 0 0 1-.1 51.986c-7.42 46.706-32.558 76.47-38.734 83.481a163.6 163.6 0 0 1-73.59 47.657l225.442-28.116a229.317 229.317 0 0 1-28.222-82.015z"/><path d="M353.441 785.323c19.926 6.712 38.206-1.989 44.722-5.09 36.445-17.347 44.806-59.178 45.907-65.178-4.831 6.365-22.168 27.56-52.709 34.006-6.956 1.468-27.21 5.447-49.735-4.265a79.446 79.446 0 0 1-28.119-20.542c1.682 29.446 17.556 53.531 39.934 61.069z" fill="url(#g)"/><path d="M443.5 498.551a223.711 223.711 0 0 1 80.48 19.27 240.345 240.345 0 0 1 20.743-105 6.514 6.514 0 0 0-.721-.405 173.328 173.328 0 0 1-118.639 35.693 64.176 64.176 0 0 1 18.137 50.442z" fill="url(#h)"/><path d="M651.08 445.481c-20.386 28.713-61 42.819-105.38 28.706-.268-.088-.54-.171-.812-.262a132.759 132.759 0 0 1-13.793-5.37 150.512 150.512 0 0 1-19.806-10.9q-6.657-4.319-13.29-9.576a51.811 51.811 0 0 1-4.667 4.212q-1.092.891-2.364 1.791a46.53 46.53 0 0 1-1.7 1.17s-1.508.992-3.81 2.239a57.252 57.252 0 0 1-6.419 3c-4.63 1.8-17.574 1.99-32.947.326q-2.028-.224-4.108-.485c-30.761-3.9-68.787-14.96-70.18-35.074-.309-4.423 1.008-11.477 10.767-20.774.766-3.818-3.124-11.2-5.287-12.423.881-4.252 7.727-10.88 14.816-8.942-2.911-4.329-1.719-14.054.563-16.794 3.568.844 14.125-2.3 17.423-7.228-1.967-5.377-4.748-13.506-.315-18.862 5.474-6.621 10.427-3.235 25.067-7.415 17.2-3.859 23.4-21.029 33.939-30.894a51.988 51.988 0 0 1 7.994-5.851c8.781-5.3 20.523-9.5 34-11.729a137.2 137.2 0 0 1 119.713 39.359c41.142 46.177 41.825 91.888 20.596 121.776z"/><path d="M565.91 463.105a45.226 45.226 0 0 1-47.1 10.555v-.005a44.633 44.633 0 0 1-9.975-5.039A45.277 45.277 0 0 1 490.8 444.2q-.489-1.611-.849-3.265-.138-.615-.257-1.235c-.077-.378-.14-.759-.2-1.141a30.117 30.117 0 0 1-.236-1.613 44.051 44.051 0 0 1-.318-8.05c.011-.218.022-.444.041-.662.022-.419.061-.838.1-1.257a.045.045 0 0 1 0-.033 44.867 44.867 0 0 1 7.22-20.6l.008-.009a45.331 45.331 0 0 1 22.007-17.514 44.813 44.813 0 0 1 19.909-2.614 44.777 44.777 0 0 1 17.994 5.621A45.248 45.248 0 0 1 574.4 410.94l.008.009a45.088 45.088 0 0 1-8.494 52.156z" fill="url(#i)"/><circle cx="535.703" cy="402.689" r="39.565"/><path d="M458.055 338.137a49.177 49.177 0 0 0-10.445 13.614 50.214 50.214 0 0 0-5.39 26.233 87.624 87.624 0 0 1 74.851-1.723z" fill="url(#j)"/><path d="M469.476 317.552c6.221-3.969 51.608-31.859 106.246-14.227 63.585 20.52 81.561 83.926 82.748 88.41-23.761-45.563-64.991-68.7-97.044-59.978-6.347 1.727-19.769 6.726-32.507 23.636-2.4-25.768-33.486-47.052-59.443-37.841z" fill="url(#k)"/><path d="M471.275 992.2c.164-.017.329-.039.5-.056-.147.022-.3.045-.442.073z"/><path d="M1073.559 1267.044q-19.457 11.71-38.911 23.423l-35.6 8.764a29.145 29.145 0 0 1 4.066-8.455c8.677-12.351 24.4-13.617 27.579-13.809a353.747 353.747 0 0 0 15.48-18.913c10.988-14.4 14.078-20.716 17.821-20.216 2.006.267 6.896 2.841 9.565 29.206z" fill="url(#l)"/><path d="m1053.629 1258.445-27.195 11.633-35.259.113a42.744 42.744 0 0 1 29.785-15.465c14.7-21.757 30.686-42.491 36.757-39.641 2.871 1.347 5.214 8.761-4.088 43.36z" fill="url(#m)"/><path d="M1024.31 1251.82a142.774 142.774 0 0 0-14.938 1.257c-6.783.93-9.655 1.815-10.284.693-1.058-1.887 5.054-7.983 11.361-11.655a39.91 39.91 0 0 1 19.922-5.195l27.346-21.835z" fill="url(#n)"/><path d="M1035.543 1120.105a680.973 680.973 0 0 0 31.194 65.556q6.173 11.367 12.483 22a355.3 355.3 0 0 0 4.021 42.284q1.284 8.235 2.861 15.947l-19.1 59.254a46.388 46.388 0 0 1-8.711-15.329c-7.1-21.281 4.3-40.632 6.565-44.309q-4.889-13.5-9.51-28.009-2.509-7.909-4.766-15.623c-15.794-19.958-20.787-23.225-22.331-22.286-3.076 1.87 5.09 21.9 5.843 23.732 3.469 8.431 5.173 9.873 6.889 14.81 2.27 6.531 3.616 16.46-1.16 30.877-6.139-3.967-14.084-10.488-18.9-20.758-3.367-7.172-1.675-8.641-5.06-19.568-2.5-8.06-4.058-9.328-16.113-33.6-6.645-13.378-7.337-15.341-7.973-17.641-.768-2.778-2.758-10.765-1.431-27.045 1.6-19.571 2.394-29.357 8.455-34.077 8.356-6.505 23.101-4.115 36.744 3.785z"/><path d="M501.755 656.968A72.637 72.637 0 0 1 507 639.6a74.344 74.344 0 0 1 5.51-9.408 19.522 19.522 0 0 1 1.5-9.966c8.081-17.687 45.873-19.389 70.279-13.035 34.852 9.074 55.134 37.892 64.83 51.59 37.485 52.963 82.6 114.281 135.861 187.213a504.6 504.6 0 0 1 67.72 55.018c47.806 46.26 63.223 79.652 118.767 147 14.286 17.32 35.991 42.664 64.477 72.166l-27.369 28.365a730.21 730.21 0 0 0-76.8-73.255c-80.425-66.128-133.48-80.41-173.968-144.929a242.119 242.119 0 0 1-27.514-61.934c-109.835-93.555-160.832-122.5-185.673-127.48a49.81 49.81 0 0 1-20.97-9.068c-26.901-20.405-23.466-65.115-21.895-74.909z"/><path d="m536.453 582.432 9.239 21.874A156.67 156.67 0 0 0 465.3 654.5a118.413 118.413 0 0 1 17.879-32.965c18.472-23.943 41.592-34.661 53.274-39.103z" fill="url(#o)"/><path d="M418.986 882.39c-14.419 25.845-18.97 46.18-16.079 64.164 3.723 23.2 14.582 42.768 29.375 60.4l.119.368c-12.775-13.784-36.4-41.691-47.512-74.1A115.62 115.62 0 0 1 380 913.936a85.351 85.351 0 0 1 1.388-35.269c5.657-21.662 26.82-43.159 69.145-86.148 5.532-5.623 10.248-10.219 19.718-19.117s23.713-22.1 48.294-44.928L557.48 744.7a659.438 659.438 0 0 0-137.554 136.421c-.311.419-.629.839-.935 1.258 0 .006-.005.006-.005.011z" fill="url(#p)"/><path d="M188.935 128.4q-27.942-30.417-59.2-61.559-16.322-16.213-32.472-31.484a486.261 486.261 0 0 1-25.316-13.31q-9.923-5.593-18.907-11.226L11.062 0a38 38 0 0 0 8.3 14.366C30.518 26.385 45.976 26.786 49.307 26.8l27.957 25.38c.461 1.38 8.7 26.944-2.954 36.633-5.652 4.7-14.194 4.176-25.443 3.484-14.025-.863-17.53-4.509-26.922-3.422C12.212 90 4.748 94.812 0 98.654a346.488 346.488 0 0 0 19.549 5.2c8.508 2 13.632 2.86 18.005 3.768 3.756.779 7 1.6 9.942 2.454a216.621 216.621 0 0 1 23.211 8.168c28.16 11.868 60.5 3.7 83.368 25.522a54.7 54.7 0 0 1 7.09 8.272z" fill="url(#q)"/></svg></g><g transform="translate(13.0 183.0) rotate(0.0 292.5 659.5) translate(0.0 118.0) scale(0.9925920395815164 0.9931765233852035)"><svg width="589.366" height="1208.244" viewBox="0 118.811 589.366 1208.244"><linearGradient id="r" gradientUnits="userSpaceOnUse" x1="-189.805" x2="185.071" y1="381.092" y2="569.832"><stop offset="0" stop-color="#fcee21"/><stop offset="1" stop-color="#eb7fdc"/></linearGradient><linearGradient id="s" gradientUnits="userSpaceOnUse" x1="-14.854" x2="282.899" y1="249.38" y2="263.047"><stop offset="0" stop-color="#3cce92"/><stop offset=".146" stop-color="#38c090"/><stop offset=".425" stop-color="#2d9a8b"/><stop offset=".804" stop-color="#1b5d83"/><stop offset="1" stop-color="#113b7f"/></linearGradient><linearGradient xmlns:xlink="http://www.w3.org/1999/xlink" id="t" x1="92.411" x2="405.016" xlink:href="#r" y1="674.053" y2="674.053"/><linearGradient xmlns:xlink="http://www.w3.org/1999/xlink" id="u" x1="131.71" x2="215.666" xlink:href="#s" y1="424.036" y2="646.619"/><linearGradient xmlns:xlink="http://www.w3.org/1999/xlink" id="v" x1="584.683" x2="476.645" xlink:href="#r" y1="1027.442" y2="1204.467"/><path d="M491.2 1328.062c-108.955-322.942-87.35-548.577-40.62-701.178 16.124-52.646 41.1-115.767 54.908-185.53.017-.079.028-.153.045-.232 13.9-70.358 16.408-147.472-13.012-227.408-10.664-28.962-52.821-143.539-169.466-192.7C164.792-45.694 9.567 67.1 0 74.29c68.544-24.473 106.087-14.6 127.522-1.7C159.2 91.655 160.1 119.971 213.1 166.106c15.093 13.137 32.589 28.366 58.944 41.373 54.216 26.757 88.086 15.558 105.128 26.933a21.642 21.642 0 0 1 5.957 5.94c20.721 30.469-44.905 82.186-58.943 155.86-9.845 51.654 3.531 125.328 95.216 227.272a1251.894 1251.894 0 0 0-26.071 220.471c-3.491 120.607 11.375 211.51 24.371 288.482a1870.39 1870.39 0 0 0 43.958 195.625z" fill="url(#r)"/><path d="M330.991 482.926c-9.594-27.187-18.735-66.659-9.635-110.519 14.651-70.61 66.625-104.615 52.143-130.922-11.07-20.108-43.881-4.689-101.451-32.873-25.887-12.673-42.714-27.247-58.943-41.373-53.415-46.495-54.065-74.549-85.582-93.516C106.087 60.822 68.549 50.949 0 75.423c67.568-40.777 115.39-41.315 146.792-34.006 67.171 15.634 72.57 70.277 161.528 111.086 61.008 27.987 119.8 13.1 135.456 49.875 4.941 11.6 3.371 22.161 1.7 33.439-7.81 52.716-53.862 73.135-83.315 113.92-18.294 25.335-35.561 65.979-31.17 133.189z" fill="url(#s)"/><path d="M397.772 921.2q-2.508-12.906-5.113-24.348c-19.6-86.262-43.068-112.395-64.027-115.4-16.612-2.386-32.169 9.681-49.286 0-18.5-10.468-12.638-31.551-27.216-52.227-24.711-35.06-68.686-12.866-108.13-41.925-33.433-24.638-39.418-68.284-47.806-129.46a418.528 418.528 0 0 1 2.851-130.407c.028-.176.062-.346.09-.522 30.985 108.57 81.212 167.513 122.835 201.542 61.6 50.368 112.865 53.128 150.793 108.127 39.954 57.942 35.499 130.946 25.009 184.62z" fill="url(#t)"/><path d="M392.659 896.851c-19.6-86.262-43.068-112.395-64.027-115.4-16.612-2.386-32.169 9.681-49.286 0-18.5-10.468-12.638-31.551-27.216-52.227-24.711-35.059-68.686-12.865-108.13-41.924-77.525-57.134-49.967-259.8-44.952-259.871 3.221-.048-14.512 88.2 39.741 164.407 18.927 26.585 40.463 42.2 81.043 71.979 69.37 50.907 93.106 49.578 122.425 79.913 24.343 25.187 49.933 69.511 50.402 153.123z" fill="url(#u)"/><path d="M486.782 1208.474c-17.536 25.357-22.989 51.944-24.938 69.712-12.544-90.869 13.552-173.3 71.979-210.269 12.471-7.89 30.571-16.339 55.543-19.837-4.847 54.192-23.617 84.454-39.673 102.018-21.582 23.607-42.64 29.065-62.911 58.376z" fill="url(#v)"/></svg></g><g transform="translate(433.0 870.0) rotate(0.0 534.0 316.0) scale(0.9923031467530874 0.9909777124094871)"><svg width="1076.284" height="637.754" viewBox="0 0 1076.284 637.754"><linearGradient id="w" gradientUnits="userSpaceOnUse" x1="1043.71" x2="724.805" y1="148.555" y2="246.179"><stop offset="0" stop-color="#ff8500"/><stop offset=".28" stop-color="#fe7706"/><stop offset=".811" stop-color="#fa5117"/><stop offset="1" stop-color="#f9421e"/></linearGradient><linearGradient xmlns:xlink="http://www.w3.org/1999/xlink" id="x" x1="-27.094" x2="143.423" xlink:href="#w" y1="238.02" y2="326.532"/><linearGradient id="y" gradientUnits="userSpaceOnUse" x1="750.943" x2="508.835" y1="606.418" y2="515.303"><stop offset="0" stop-color="#fcee21"/><stop offset="1" stop-color="#eb7fdc"/></linearGradient><linearGradient id="z" gradientUnits="userSpaceOnUse" x1="760.99" x2="599.91" y1="594.37" y2="449.887"><stop offset="0" stop-color="#3cce92"/><stop offset=".146" stop-color="#38c090"/><stop offset=".425" stop-color="#2d9a8b"/><stop offset=".804" stop-color="#1b5d83"/><stop offset="1" stop-color="#113b7f"/></linearGradient><path d="M1076.284 141.909C971.161 76.981 909.021 79.7 871.116 96c-44.627 19.2-54.313 56.671-102.584 62.911-59.953 7.754-82.062-45.256-130.923-33.439-47.211 11.421-42.757 64.832-103.151 100.884-41.691 24.887-67.751 13.716-97.614 16.924-1.45.153-2.907.345-4.381.578a.41.41 0 0 0-.09.011c-.148.023-.3.045-.442.074a84.407 84.407 0 0 0-24.428 7.917c-29.84 14.81-52.267 45.194-67.467 85.185-26 68.352-30.923 164.781-15.8 259.566a679.503 679.503 0 0 0 7.867 41.142h-19.884a638.606 638.606 0 0 1-12.4-100.81c-1.253-29.427-5.033-119.9 19.519-218.7 22.654-91.209 69.457-189.514 164.679-253.412 160.308-107.573 405.944-80.867 592.267 77.078z" fill="url(#w)"/><path d="M300.951 523.91c2.388-40.578 1.091-126.306-52.709-207.435C239.5 303.284 154.253 174.74 54.409 191.22 30.151 195.224 11.661 206.7 0 215.591c23.045-5.044 50.65-6.446 73.112 7.935 24.032 15.385 23.612 36.949 48.742 55.542 27.734 20.521 55.4 14.349 75.38 18.7 35.153 7.666 76.501 54.462 103.717 226.142z" fill="url(#x)"/><path d="M1076.284 141.912C971.161 76.983 909.021 79.7 871.116 96c-44.627 19.2-54.313 56.671-102.585 62.911-59.952 7.753-82.061-45.257-130.922-33.439-47.209 11.428-42.757 64.836-103.151 100.887-41.691 24.887-67.751 13.716-97.614 16.924 21.872-3.123 52.177-11.211 76.077-34.493 41.606-40.524 23.181-87.492 59.51-112.219 32.759-22.3 60.967 6.886 134.89-5.1 45.5-7.38 67.813-23.787 91.249-32.873 49.138-19.055 131.823-17.032 277.714 83.314z"/><path d="M743.322 580.794c-27.035-46.055-57.8-71.5-83.915-86.471-46.282-26.542-66.385-13.557-104.4-42.281-48.05-36.295-45.8-79.6-81.347-85.19l-.119-.017c-29.444-4.551-55.061 21.554-62.016 28.2l-.119.119c-51.422 49.365-64.656 192.349-66.917 242.6h-24.131c.623-11.868 1.893-25.839 3.876-41.142 8.74-67.365 31.359-160.473 74.076-212.8 13.313-16.312 28.582-28.661 45.993-35.032 71.951-26.326 142.649-.561 168.346 14.231C710.965 419.6 735.824 531.1 741.837 569.844a271.61 271.61 0 0 1 1.485 10.95z" fill="url(#y)"/><path d="M743.322 580.794c-27.035-46.055-57.8-71.5-83.915-86.471-46.282-26.542-66.385-13.557-104.4-42.281-48.05-36.295-45.8-79.6-81.347-85.19l-.119-.017c62.633-6.659 90.143 8.524 103.661 23.81 14.118 15.966 11.482 30.333 30.038 50.442 21.758 23.583 38.472 18 66.878 35.139 35.588 21.475 54.3 57.357 67.723 93.618a277.36 277.36 0 0 1 1.481 10.95z" fill="url(#z)"/></svg></g></svg>