<?xml version="1.0" encoding="UTF-8"?><svg xmlns="http://www.w3.org/2000/svg" width="800" height="600" viewBox="0 0 800 600" x="0px" y="0px" version="1.1" xmlns:xlink="http://www.w3.org/1999/xlink">
  
  <title>city</title>
  <g id="Слой_2" data-name="Слой 2">
    <g id="Слой_1-2" data-name="Слой 1">
      <g>
        <path d="M761.5634,426.36492c-2.3002,5.33893-4.6004,10.23566-6.84,14.627-3.91421,7.65573-8.03039,14.90062-12.2675,21.72452a303.66287,303.66287,0,0,1-18.89595,27.032c-30.5679,39.09981-60.73261,58.26548-60.73261,58.26548-3.14747,2.00083-19.20826,14.12151-41.55439,20.63986-62.17518,18.14411-122.17135-19.04973-269.62474-2.25356-135.15534,15.39566-201.709,59.961-273.1759,11.91C45.44261,556.10136,26.093,518.79157,26.093,518.79157A230.31243,230.31243,0,0,1,6.95516,475.06871,212.6575,212.6575,0,0,1,.105,435.72659c-1.979-29.25717,23.20129-139.28586,144.26527-253.78624C240.08305,91.41677,335.48347,55.07564,385.485,36.61877,438.321,17.11572,498.95725-4.551,579.37544.83592c52.85443,3.5405,95.38738,7.58233,135.83144,36.41466C841.28235,127.12885,799.7585,337.89776,761.5634,426.36492Z" style="
        fill: #ffbd5c;
      "/>
        <path d="M763.5811,420.04659c-2.30021,5.33893-4.60041,10.23566-6.84,14.627-3.91421,7.65573-8.03039,14.90062-12.26751,21.72452a303.65933,303.65933,0,0,1-18.89595,27.032c-18.64349.47382-36.42936-.26326-52.51034-12.6472a107.5847,107.5847,0,0,1-19.78362-20.62944c-6.63805-8.793-12.43893-18.34413-18.08857-27.67431a5.21889,5.21889,0,0,1,.55491-6.65525,4.86078,4.86078,0,0,1,5.89152-2.03246,162.22333,162.22333,0,0,1,28.89354,12.47881c-7.09223-18.98661-15.76842-39.52118-11.97514-58.592a5.47376,5.47376,0,0,1,9.42273-2.49574,473.6974,473.6974,0,0,1,43.40066,49.662,544.40454,544.40454,0,0,1,8.34319-78.27353c.93816-5.14939,8.04049-5.37055,10.3104-1.28469A340.31348,340.31348,0,0,1,763.5811,420.04659Z" style="
        fill: #e5a024;
      "/>
        <path d="M459.7107,425.0306a3.59451,3.59451,0,0,0-4.36248-1.50245,120.184,120.184,0,0,0-21.39615,9.23467c5.25606-14.056,11.67687-29.25988,8.873-43.38877a4.05571,4.05571,0,0,0-6.98287-1.842,351.13211,351.13211,0,0,0-32.14028,36.7697,402.46143,402.46143,0,0,0-6.178-57.95781c-.69309-3.81108-5.95062-3.97524-7.63483-.95638a252.571,252.571,0,0,0-26.19286,68.49877c-5.98264-9.95891-15.81472-19.36621-23.06213-23.15738-2.54724-1.34833-6.61366.32073-6.15013,3.81231,1.73347,16.62707,3.8886,36.68191,14.31328,50.20156,8.33827,10.644,21.687,9.76543,33.70627,10.03641,17.68833.38808,34.62866,2.4564,49.57419-9.05432,11.97637-9.273,20.205-22.82129,28.04725-35.7653A3.86564,3.86564,0,0,0,459.7107,425.0306Z" style="
        fill: #e5a024;
      "/>
        <path d="M165.73609,203.00145h70.25943A16.32153,16.32153,0,0,1,252.31705,219.323V464.15907a0,0,0,0,1,0,0H149.41455a0,0,0,0,1,0,0V219.323A16.32153,16.32153,0,0,1,165.73609,203.00145Z" style="
        fill: #e5a024;
      "/>
        <path d="M292.85912,259.86642h60.15459a20.36511,20.36511,0,0,1,20.36511,20.36511v194.4581a0,0,0,0,1,0,0H272.494a0,0,0,0,1,0,0V280.23152A20.36511,20.36511,0,0,1,292.85912,259.86642Z" style="
        fill: #e5a024;
      "/>
        <path d="M62.97674,326.20888H112.7729a14.447,14.447,0,0,1,14.447,14.447v154.0418a0,0,0,0,1,0,0H48.52975a0,0,0,0,1,0,0V340.65587A14.447,14.447,0,0,1,62.97674,326.20888Z" style="
        fill: #e5a024;
      "/>
        <path d="M742.45588,462.71639a303.66287,303.66287,0,0,1-18.89595,27.032c-30.5679,39.09981-60.73261,58.26548-60.73261,58.26548-3.14747,2.00083-19.20826,14.12151-41.55439,20.63986-62.17518,18.14411-122.17135-19.04973-269.62474-2.25356-135.15534,15.39566-201.709,59.961-273.1759,11.91C45.44261,556.10136,26.093,518.79157,26.093,518.79157A230.31243,230.31243,0,0,1,6.95516,475.06871q20.53484-2.35356,41.57459-4.52806,38.52784-3.98058,78.69015-7.30827,11.03181-.91608,22.19465-1.76919,50.24057-3.83828,102.9025-6.4551,10.04834-.50557,20.177-.93736,49.43848-2.16384,100.88481-3.0643,37.81665-.64769,76.67245-.53707c69.64081.23164,136.7797,2.35883,201.2147,6.00236Q697.79908,459.09389,742.45588,462.71639Z" style="
        fill: #e5a024;
      "/>
        <rect x="164.54727" y="229.32782" width="20.17696" height="36.85692" style="
        fill: #ffbd5c;
      "/>
        <rect x="199.85696" y="230.38088" width="11.09733" height="28.43248" style="
        fill: #ffbd5c;
      "/>
        <rect x="287.62674" y="281.98057" width="12.10618" height="28.43248" style="
        fill: #ffbd5c;
      "/>
        <rect x="317.89218" y="281.98057" width="17.15042" height="28.43248" style="
        fill: #ffbd5c;
      "/>
        <rect x="325.96296" y="331.47415" width="12.10618" height="23.16721" style="
        fill: #ffbd5c;
      "/>
        <rect x="286.61789" y="365.17191" width="12.10618" height="22.11415" style="
        fill: #ffbd5c;
      "/>
        <rect x="206.91889" y="294.61723" width="11.09733" height="27.37943" style="
        fill: #ffbd5c;
      "/>
        <rect x="58.61823" y="342.0047" width="10.08848" height="24.22026" style="
        fill: #ffbd5c;
      "/>
        <rect x="92.91906" y="342.0047" width="15.13272" height="24.22026" style="
        fill: #ffbd5c;
      "/>
        <rect x="84.84828" y="400.97578" width="10.08848" height="17.90193" style="
        fill: #ffbd5c;
      "/>
        <rect x="58.61823" y="386.23301" width="8.07078" height="13.68971" style="
        fill: #ffbd5c;
      "/>
      </g>
    </g>
  </g>
</svg>