<svg enable-background="new 0 0 798.918 525.725" height="525.725" viewBox="0 0 798.918 525.725" width="798.918" xmlns="http://www.w3.org/2000/svg"><path d="m798.902 287.025c0-21.855-2.589-43.168-5.851-64.73-1.306-8.631-2.874-17.171-4.83-25.684-2.509-10.921-4.475-23.225-10.719-32.785-.886-6.789-2.981-13.578-5.904-19.756-2.459-5.197-6.655-9.616-8.896-14.844-3.06-5.245-5.29-10.803-8.906-15.725-4.02-5.472-8.99-10.127-13.994-14.675-7.995-15.99-25.138-30.182-39.144-40.79-9.606-7.275-19.692-14.313-30.256-20.11-15.56-8.537-32.279-14.511-48.799-20.874-8.218-3.165-16.552-5.822-25.062-8.105-10.364-2.781-21.682-6.224-32.539-5.12-12.027-3.943-24.959-4.947-37.4-2.5-12.287-2.048-25.862-.925-37.4 3.9-14.39-.669-31.719 6.314-44.561 12.262-8.258 3.825-15.572 9.07-23.539 13.367-8.579 4.627-16.413 10.468-22.699 17.971-14.497 9.061-25.79 24.384-34.503 38.829-3.033 5.03-4.862 10.193-7.197 15.521-3.332 7.601-7.885 14.277-10.393 22.313-1.152 3.691-1.564 7.543-2.644 11.226-1.127 3.843-3.503 7.409-5.063 11.099-3.464 8.192-4.495 17.21-7.9 25.312-6.056 14.409-14.846 28.814-24.074 41.374-9.365 12.747-21.498 22.721-35.755 29.653-9.709 4.721-23.113 4.717-33.671 4.239-32.51-1.47-63.665-16.547-96.5-12.767-5.858.674-11.388 1.521-17.3 2-5.51.447-10.869 1.519-16.1 3.3-14.503 4.939-29.953 9.224-42.3 18.7-18.318 6.371-35.013 24.773-40.102 43.652-3.121 11.579-7.132 22.869-10.131 34.498-3.544 13.745-9.087 29.756-7.168 44.15-3.686 12.288-3.98 25.226-.5 37.6-.413 13.232 2.989 25.624 9.9 36.9 3.434 18.458 19.784 35.636 36.575 43.175 13.685 6.144 28.334 11.625 43.525 11.625 21.938 7.631 48.29 4.602 70.925 5.251 35.697 1.024 71.475 2.552 107.187 2.759 35.203.204 70.621.635 105.789 2.19 16.54.732 33.309 1.447 49.8.1 8.083-.66 16.242 1.584 24.42 1.544 4.309-.021 8.496-.534 12.78-.844 4.917-.355 9.507.781 14.413 1.188 8.693.721 17.027-.845 25.64-.921 8.11-.072 16.133 1.262 24.298 1.041 10.899-.295 21.716-.681 32.557-1.907 9.519-1.077 19.617-3.3 29.193-3.3 5.324-.76 10.255-2.857 15.5-3.9 6.343-1.262 12.671-1.643 18.966-3.302 9.708-2.558 19.29-5.625 28.587-9.422 18.051-7.371 36.212-16.371 51.955-27.847 30.617-22.319 54.652-51.193 70.501-85.728 13.631-29.703 19.092-65.212 19.092-97.701.297-1.502.197-2.402.197-3.402z" fill="#ea482b"/><path d="m755.002 326.125c-2.552-21.265-5.557-41.688-10.438-62.738-4.185-18.049-12.273-34.781-20.875-51.025-8.912-16.83-22.531-31.624-37.338-43.475-5.926-4.743-12.598-8.355-19.05-12.313-6.754-4.143-16.637-10.61-24.8-9.65-5.876-5.012-11.663-3.725-18.288-6.05-5.396-1.894-9.254-2.587-15.112-1.75-7.359-4.416-19.113-2.566-27.24-1.935-9.848.764-19.642.807-29.479 1.906-10.459 1.168-26.872-.233-35.282 7.53-5.979-.399-11.725 1.425-16 5.7-.7 0-1.5 0-2.2.1-4.509 0-10.632 3.779-13 7.5-4.464.147-8.04 3.04-11.553 5.458-1.423.98-2.855 1.918-4.247 2.942-3.465 2.55-7.146 8.091-10.9 9.7-3.987 2.592-7.127 5.716-9.1 10.1-7.093 4.256-13.401 12.509-17.325 19.762-1.736 3.209-2.66 5.41-4.975 8.33-2.393 3.017-3.865 6.099-4.5 9.907 0 1.1-.5 2.1-1.4 2.7-4.178 4.178-4.063 8.414-5.866 13.439-1.002 2.795-3.185 5.138-4.397 7.894-1.856 4.22-3.356 8.747-4.956 13.067-1.741 4.701-3.821 9.248-5.607 13.922-1.387 3.628-1.032 7.368-1.744 11.134-.921 4.866-1.481 9.429-1.83 14.394-.349 4.97.92 11.915-.7 16.45-1.471 7.355-4.089 22.311 1.9 28.3 1.788 1.341 1.974 4.816 3.229 6.707 1.887 2.844 4.32 4.036 7.284 5.476 5.91 2.872 10.423 6.777 17.587 5.917 5.18 3.061 9.62 2.023 15.2 2.5 1.982.169 3.649 1.03 5.569 1.448 3.144.686 5.87-.011 8.969.214 5.42.394 11.01 2.232 16.513 2.837 4.966.547 11.772 2.294 16.55 0 5.6 2.8 10.6 3.3 16.9 1.6 5.8 2.6 9.9 3 17.1 1.4 5.791 3.747 16.3 3.162 22.976 3.386 7.256.244 15.429 2.32 22.524.314 6.93 3.465 17.448 2.685 25.054 2.687 8.723.003 17.359 1.272 26.089 1.029 17.507-.486 34.866-.445 52.354-1.883 9.701-.798 19.962-2.884 29.529-4.815 4.089-.825 8.363-1.745 12.313-3.094 2.792-.953 4.936-2.701 7.763-3.225 3.797-.704 7.419-.282 10.7-2.9 1.696-1.353 2.896-4.699 4.9-5.3 4.242-1.928 7.297-5.641 9.2-9.8.301-.785.701-1.519 1.2-2.2.3-.3.6-.5.8-.8.646-.752 1.314-1.486 2-2.2 3.937-5.778 4.783-13.8 3.999-20.597z" fill="#f2c617"/><path d="m444.302 232.925c-.388-3.105-3.396-7.531-5.9-9.2-.867-.867-2.7.216-2.7-.9.607-3.035-3.4-1.254-3.4-2.5.314-2.201-1.671-1.256-2.35-1.833-.293-.249-1.767-1.875-2.35-2.167-1-.7-2.1-1.2-3.2-1.6-1.2-.1-2.2-.7-3-1.6h-.1c.189.126-2.654-.802-2.425-.7-1.209-.538-2.387-2.171-3.975-2.7-4.083-.817-7.178-6.082-10.2-8.5-.729-.444-1.262-1.044-1.6-1.8-1.297-2.594-2.303-4.81-3.2-7.5-.188-.77-.388-1.536-.6-2.3 0-.2-.1-.3-.2-.5l-2.7.5 2.8-.5c0-1.202-.085-2.417-.3-3.6-.984-2.461 2.762-6.923-.2-8.7 3.645-.959.817-1.653 1.788-3.388 1.126-2.012 2.872-.894 1.312-4.012l.5-.1c0 .2 0 .2.1 0l.3-.1c-.1.5 0 .4.2-.1l.2-.1c0 .1-.1.3-.1.4.2.1.2.9.7-.3.172-.172-.82 3.461.5-.5-.1.4-.2.9-.1 1.3.771 0 .491-.95.688-.95.022.362.026.725.012 1.087.064-.048.4-1.938.4-1.037v1.1c-.059-.059.4-1.132.4-1.3v1.3c0 .175.412-.75.6 0-.048-.191.2-.744.2-1 .014.369.047.735.1 1.1h.3c-.019-.215.048-.382.2-.5.2.9.4.7.5.1 0-1.827.117.256.325.412.174.131.075-1.391.075-1.012.2 1.4.3 1.3.3-.4 0 .4.1.8.3 1.2 0-.4.1-.7 0-1.1.078.372.178.739.3 1.1-.117-.117.118-.955.1-1 .1.3.2.6.3.9.608 0 .101-1.695.1-1.7.5 2.2.7 2.2.4.1.6 2.1.7 2.1.3-.1.1.5.3.9.5 1.4.2-.1.6.6.4-.6 0-.1 0-.2 0 0 .5 1.1.4.7.1-.8.1.4.3.9.6 1.2.338 0 1.121-.929 1.537-1.013 1.143-.229 1.206-.201.762-1.088.246.279.492.558.738.837-.247-.435-.472-.881-.675-1.337.294.382.607.748.938 1.1-.117 0-.479-1.079-.6-1.2.271.33.571.63.9.9 0-.218.132-.776.5-.5-.237-.311-.437-.645-.6-1 2.152 0 .121.602 1.513-.325.195.107.404.173.625.2-.004-.24-.045-.474-.125-.7.413-.275.56-.203.888-.775l-4.6-3.1c-.691.419-.123.761.8 1.6-.433-.329-.867-.658-1.3-.988.193.3.418.575.675.825-.273-.229-.56-.438-.862-.625.329.363.658.725.987 1.087-.4-.4-.8-.7-1.2-1 0-.246-.278.906-.163.675-.131-.105-.269-.2-.413-.287 0 .583.554 1.071.875 1.512-1.4-1.8-1.4-1.8-.2.1-1.4-1.9-1.3-1.6-.2.2-.169-.253-.663-1.064-1.033-1.311-.348.013-.304.25.133.711.1.1 0 .1-.1 0-.5-.8-.5-.7.2.7-.2-.4-.5-.8-.7-1.1-.1 0-.1.1-.2.1 0 .2.1.5.2.7.353 1.059-.45-1.292-.45-.6 0-.467.922 2.244.35 1.1-.1-.3-.3-.6-.5-.9.235.235.242.983.4 1.3-.2-.4-.4-.8-.6-1.2 0 .356-.59.22-.1 1.2-.1-.3-.3-.7-.5-1-.1 0-.1.1-.2.1.075.162.108.328.1.5-.66-1.486-.3.47-.3.7-.108-.358-.217-.717-.325-1.075.042.292.083.583.125.875 0 .2 0 .4 0 .1-.4-1.4-.4-1.3-.2.4-.1-.4-.2-.8-.3-1.2.051.366.051.733 0 1.1-.139-.355-.239-.722-.3-1.1.1.1-.04.839 0 1-.073-.299-.139-.599-.2-.9-.34.345-.147.995-.1 1.7-.3-2.3-.3-2.3-.3-.1-.2-2.1-.2-2.1-.3 0 0-.5 0-1-.1-1.5-.184 0-.695 1.058-.362-.163-.046.454-.092.908-.138 1.363 0-.4 0-.9 0-1.4-.32 0-.628-.184-.863-.262-.498-.166.093.823-.438-.238 0-.1-.1-.1-.1-.2 0 0 0 0 0-.1s.1 0 .3.1c.838.209-.59-.893-.3-.7v-.1c1.1.7 1.1.6 0-.3 1.4.9 1.3.6 0-.4.3.2.7.4 1.1.6.356-.356.241-.359-.1-.7.9.4.8.3-.5-.6l1.2.6c.1-.1.1-.2.2-.3-.249-.206-.504-.406-.762-.6.345.132.691.261 1.038.387-.363-.326-.75-.618-1.163-.875.448.228.911.424 1.387.587-.271 0-.832-.666-1.1-.8.288.144.928.579 1.313.425.317-.127-1.125-.728.087-.425-.212-.053-.564-.482-.8-.6.31.194.643.294 1 .3 0-.374-.633-.866-.3-.7.9.3.8 0 .4-.4-.43.009-.63-.125-.6-.4.35.121.7.242 1.05.362-1.583.396-.417-1.817.2-.275-.383-.229-.767-.458-1.15-.687.4.2.8.3 1.2.4-.284-.223-.585-.423-.9-.6.372.078.739.178 1.1.3-.212 0-.625-.43-.8-.5 2.288.915-.236-.678-.5-.8 2.2.8 2.2.6.2-.2 2 .7 2.1.6.1-.3.5.2.9.3 1.4.4 0-.1.8-.1-.3-.6-.1 0-.2-.1 0 0 1.2.3.8.1-.6-.5.4.2.9.3 1.3.3 0-.656 1.499-3.1-.2-3.1 1.5.3 1.5.2 0-.3-.5-.1-.4-.1.1 0 .3.1.7.1 1.1.1.033-.033-1.105-.368-1.2-.4.433.033.867.067 1.3.1 0-.318-.544-.6.1-.6l-1.1-.3 1.1.1c.051-.891.5-2.195.5-2.6-1.867-.155-3.734-.33-5.6-.5.023-.023.221.946-.162.563.55.55.221.331 1.662.537-.542-.025-1.083-.05-1.625-.075.342.085.688.152 1.038.2-.358-.054-.712-.046-1.062.025.483.117.967.233 1.45.35-.5-.1-1-.1-1.5-.1 0 1.142-.695 1.251 1.4 1.7-2.2-.4-2.2-.3-.1.3-2.3-.4-2-.2 0 .3-.5-.1-1-.2-1.5-.2-.1.1-.8.1.4.5.144.144-3.271-.947.5.4-.4-.1-.9-.2-1.3-.2 0 .1 0 .2-.1.3 2.35 2.157-1.608-1.083-.237.288-.46-.46 2.205.996 1.038.413-.333-.067-.667-.133-1-.2.342 0 .864.388 1.2.5-.433-.067-.867-.133-1.3-.2 0 .725-.135.432.8.9-.3-.1-.7-.2-1-.2 0 .1 0 .2-.1.2.098.035.938.3.4.3-.187-.042.404.015-.787.413 1.521-.507.585 1.732-.162.238.383.217.767.433 1.15.65-.4-.2-.8-.3-1.2-.4.309.149.609.316.9.5-.372-.078-.739-.178-1.1-.3.212 0 .625.43.8.5-.633-.448-.933-.481-.9-.1-.804-.804-2.213-1.6-3.4-1.6.333-.033.667-.067 1-.1 0-.635-1.547-.49-1.7-.5 2.3 0 2.3-.1.1-.3 2.2 0 2.2-.1 0-.3.5 0 1 0 1.5-.1 0-.246-.995-.853.163-.538-.454-.021-.908-.042-1.363-.062.5 0 .9-.1 1.4-.2 0-.009-.252-2.814.05-2.588-.3-.225-1.625-.18-1.625-.088.486-.171.982-.309 1.488-.413.015.045-2.179.229-1.213-.012.4 0 .7-.2 1-.3-.169.169-1.043.014-1.3.1.4-.133.8-.267 1.2-.4-.149-.149-.633-.287-.1-.5-.363.079-.729.112-1.1.1.356-.162.723-.295 1.1-.4-.453-.748-.525-1.234-.525-1.825 0-.06-.375-.183-.375-.675h-.1l-5.7 1.8c0-.057.573.693-.05.537.647.162.964-.096 1.75-.337-.5.212-1 .425-1.5.637.333-.029.658-.099.975-.212-.342.111-.667.256-.975.438.5-.121 1-.242 1.5-.362-.5.1-1 .3-1.4.6 0 1.164.163 1.151 1.8.8-2.2.6-2.2.6 0 .2-2.3.5-1.9.5.1.2-.7.1-1.5.3-1.5.3-.341.477.711.2.5.2-.9.2-.8.2.7.1-.4.1-.9.1-1.3.3v.2c-.332 0 1.673 0 .8 0-.275.054-.55.108-.825.162.487-.048.974-.069 1.462-.062-.455-.022-.9.045-1.337.2.057-.057 1.14 0 1.3 0-.433.067-.867.133-1.3.2.277.277.108.748 1.1.5-.4 0-.7.1-1.1.1v.2c.359.03.745.055.6.2-1.509.168.258.373.6.4-.383.021-.767.042-1.15.063.392.103.788.149 1.188.137-.65 0-2.464-.128.162.2-.4 0-.8 0-1.3 0 .341.028.674.095 1 .2-.366.051-.733.051-1.1 0 .326 0 .692.2 1 .2-.3-.1-.7-.1-1 0-.03.126.037.193.2.2-1.153.291-2.186.824-3.1 1.6.062.3-1.118-2.539-1.938-.9.433-.264.879-.506 1.337-.725-.477.105-.957.201-1.438.288.181-.181 1.237-.359 1.237-.663-.439.078-.872.178-1.3.3 1.435-.861.509-1.081.8-1.3-.354.147-.721.247-1.1.3.311-.237.645-.437 1-.6-.392-.705-.408-1.908-1.1-2.6h-.2l-4.8 2.9c0-.09.866.575.188.575.723 0 .718-.116 1.712-.575-.454.296-.908.592-1.362.887.368-.069.718-.194 1.05-.375-.328.166-.615.383-.862.65.458-.188.917-.375 1.375-.563-.5.2-.9.5-1.3.8 0 1.217 1.113.904 2.1.6-2 1-2 1 .1.3-2.1.9-1.8.9.1.3-.5.3-.9.6-1.3 1 0 .1-.6.5.6.2.1 0 .1 0 0 .1-.9.4-.7.4.8 0-.4.1-.8.3-1.2.5 0 .1.1.2.1.3.2 0 .5 0 .7-.1 1.077-.269-.915.239-.637.35.098.039 2.035-.599 1.137-.15-.4.1-.7.2-1 .4.176-.176 1.031-.11 1.3-.2-.4.167-.8.333-1.2.5.378.378.214.546 1.2.3-.333.133-.667.267-1 .4 0 .1.1.2.1.2.039-.004 1.055-.127.6.1-1.475.492.268.377.5.3v.1c-1.2.3-1.2.4-.1.2v.1c-.9.2-1 .3-.1.2v.1c-.2 0-.4.1-.5.2h.5v.1c-.2 0-.3.1-.5.1h.5v.1c-.536.179-.586.5.1.5v.1c-.7.1-.7.2 0 .2v.1c-.7.1-.7.2 0 .2v.1c-.2 0-.3 0-.5.1 0 .1-.1.1-.2.2-.8 0-1.6.4-1.9 1.1-.2.1-.6.2-1.1.4.4-.2.8-.4 1.2-.7 0-.669-.949-3.015-2.2-2.3-1.004.401 1.207-.368.913-.663-.482.203-.965.403-1.45.6.411-.272.79-.584 1.137-.938 0 .054-1.084.423-1.2.5.343-.257.975-.589.975-1.075 0-.269-1.085.485-.275-.325-.313.207-.647.373-1 .5 0-.374 1.091-.535.9-1.013-.207-.003-.411.018-.612.063-.17-.681-1.088-1.381-1.088-2.05h-.5l-4.3 3.5c0-.082.79.575.238.575.662 0 1.062-.474 1.662-.875-.412.35-.825.7-1.237 1.05.345-.132.661-.315.95-.55-.282.219-.52.478-.712.775.433-.258.867-.517 1.3-.775-.4.3-.8.6-1.2 1 .217.217.079.543.175.687.213-.056.426-.115.638-.175-.124.148-.232.306-.325.475.703.234.451.09 1.612-.587-1.9 1.3-1.8 1.3.1.3-2 1.3-1.6 1.2.2.2-.4.3-.9.5-1.2.9 0 .1-.5.6.7.1.1-.1.1 0 0 .1-.8.6-.7.5.8-.1-.4.2-.8.5-1.1.8.1.1.1.2.1.2.353-.093.703-.197 1.05-.313-.337.133-.642.325-.912.575.281.056 1.886-.88 1.062-.262-.3.1-.6.3-.9.6 0-.057 1.093-.329 1.2-.4-.163.109-1.04.475-1.112.837.206-.013.276.074.212.262.281-.14.75-.134 1-.3-.3.2-.6.4-.9.6.1.1.1.1.1.2.162-.075.328-.108.5-.1-1.263.789.329.436.6.3.4-.1.4-.1 0 0-1.3.6-1.3.7-.1.3.601-.301-.58.504-.787.462.429-.121.858-.242 1.287-.362-.4.1-.8.3-1.1.6.341-.028.674-.095 1-.2-.333.167-.667.333-1 .5.17-.17.795-.097 1-.2-.881.44-.398.298-.8.7.589.087 1.156-.046 1.7-.4-2.1.8-2.1.9 0 .3-1.9.7-2 .8-.1.3-.4.1-.8.3-1.1.4 0 .1-.6.5.6.2.1 0 .2 0 0 0-.9.3-.8.4 0 .2v.1c-.471.157-.641.33-.2.5l-.1.2c-.2.1-.2.2-.1.2 0 .1-.1.2-.1.4-.1.5-.1 1.1 0 1.6.1.3-.1.4-.3.5-.7.5-1.1.9-1.2 1.4 0 .7.3 1.4.7 1.9-1.581.593-4.145 5.355-2.5 7 .632.843-1.052 1.41-1.2 2.3 0 .811 1.111 1.648 1.013 2.262-.095.593-1.275.877-1.413 1.838 0 .5.3 1.1.7 1.4.4.4.7.7.6.8-.3.4-.6.8-.9 1.2-.2.4-.3.9-.3 1.4.311 2.019.554 4.583 1.5 6.4.087.167 1.767 2.73 1.8 2.5-1.014 2.703 4.491 11.227 6.7 12.7.3.1.6.2.9.1-1.011.202 2.745 3.193 2.7 3.131 1.123 1.56-.101 3.051 3 2.769-.447 1.789 9.816 11.287 11.6 9.9-.134.568-.134 1.134 0 1.7.1.4.3.7.6 1 .6.4 1.5.4 2.7-.2.2 2.6 1.1 3.1 3.6 2 0 2.561 3.865 4.406 6.2 4 .2 0 .4-.1.4.1.8 1.6 2 1.6 3.5.6.929 4.181 11.346 4.069 14.319 3.481 6.575-1.3 5.978-3.971 7.781-9.381.098-.496.198-1.196.198-1.896zm-59.1-67.7-.7.2zm.1.4-.8.3zm18.6-8.5.5.3zm.4.6-.2-.1zm-18.7 8.5c-.2.1-.3.1-.2 0zm19.5-1.7v.1l-.1.1c.1-.1.1-.2.1-.2zm-.5-7.3-1-.4-.1-.2c.2.1.6.3 1.1.6zm-19.6 7 .3-.1v.1h-.3c-.1.1-.2.1 0 0zm.1.6v.1l-.8.3z" fill="#f2c617"/><path d="m649.702 234.925c2.075-.83.083-2.783.4-3.1.3-.4.4-.9.3-1.4-.308-.84-.841-1.173-1.6-1-.5.1-.5 0-.1-.2 1.1-1 .9-1.4-.4-1.2-.677 0 .218-.573.296-1.1-.371-.509-.869-.509-1.496 0 .2-.2.4-.5.5-.8.1-.2.1-.4 0-.5-.44-.063-.873-.029-1.3.1.032-.438.099-.872.2-1.3-.239-.359-.968.561-1.3.2-.603-.656.371-.986-1-1.9-.3-.3-.8-.2-1.7 1 .6-2.2.1-2.5-1.3-.8.4-2.2-.1-2.3-1.4-.5.1-.7.2-1.5 0-1.6-.085-.024-2.922-.522-2.4 0-.2-1.3-.8-.9-1.3.5-.098-.785-.941-2.559-2.1-1.4-.942-.057-1.875.009-2.8.2-.04.054-3.78 1.4-4.1 1.4-2.833-.472-3.153 4.168-3.238 4.225-.531-.206-1.085-.318-1.663-.337.184.529.405 1.042.663 1.538-.316.211-1.114-.491-1.662-.125-.123.082.774 1.4.7 1.4-2.978 0-.828 2.064-2.5 2.9.286.352.619.652 1 .9 0 .508-2.056.487-1.2 2.2-.143-.191.663 4.483.7 4.3-.207.62 1.229 2.786 1.5 3.6.2.2.4.4.7.5.6.1 1 .6 1 1.2.079.472.783.925 1.2 1.1l1.8-2.1-1.9 2v.1c.3.3.6.9 1.2.9 1.79-.358 1.47 3.373 3.7.4-.083.567-.167 1.133-.25 1.7.526.024.959-.172 1.3-.587-.117.52.025.941.425 1.262.375-.392.75-.783 1.125-1.175-.1.9-.1 1.6.2 1.7.5.1 1 .5 1.6.3.4-.2.9-.2 1.3.1.533.4 1.067.4 1.6 0 1.458-1.093 3.777 1.236 3.3-2.1 1.2 2 1.9 1.7 1.4-.5 1.4 2 2.1 1.2 1.3-.7.889.889 3.379 1.228 2.8-.8 0-.2.1-.1.2-.1 1.1.3 1.2 0 .3-1.4 1.584.792 1.3.199 2.5-1-1.643 3.286 1.968-6.037.85-1.287-.273-.473-.607-.894-1-1.263.301-.301 1.218.514 1.55-.15.025-.05-.97-1.2-1-1.2 2.884 0 .574-2.206 1.9-3.2.5-.401-1.2-.701-.8-.901z" fill="#382d15"/><path d="m551.802 234.925c2.075-.83.083-2.783.4-3.1.3-.4.4-.9.3-1.4-.308-.84-.841-1.173-1.6-1-.5.1-.5 0-.1-.2 1.1-1 .9-1.4-.4-1.2-.677 0 .218-.573.296-1.1-.371-.509-.869-.509-1.496 0 .2-.2.4-.5.5-.8.1-.2.1-.4 0-.5-.44-.063-.873-.029-1.3.1.032-.438.099-.872.2-1.3-.239-.359-.968.561-1.3.2-.603-.656.371-.986-1-1.9-.3-.3-.8-.2-1.7 1 .6-2.2.1-2.5-1.3-.8.4-2.2-.1-2.3-1.4-.5.1-.7.2-1.5 0-1.6-.085-.024-2.922-.522-2.4 0-.2-1.3-.8-.9-1.3.5-.098-.785-.941-2.559-2.1-1.4-.942-.057-1.875.009-2.8.2-.04.054-3.78 1.4-4.1 1.4-2.833-.472-3.153 4.168-3.238 4.225-.531-.206-1.085-.318-1.663-.337.184.529.405 1.042.663 1.538-.316.211-1.114-.491-1.662-.125-.123.082.774 1.4.7 1.4-2.978 0-.828 2.064-2.5 2.9.286.352.619.652 1 .9 0 .508-2.056.487-1.2 2.2-.143-.191.663 4.483.7 4.3-.207.62 1.229 2.786 1.5 3.6.2.2.4.4.7.5.6.1 1 .6 1 1.2.079.472.783.925 1.2 1.1l1.8-2.1-1.9 2.1v.1c.3.3.6.9 1.2.9 1.79-.358 1.47 3.373 3.7.4-.083.567-.167 1.133-.25 1.7.526.024.959-.172 1.3-.587-.117.52.025.941.425 1.262.375-.392.75-.783 1.125-1.175-.1.9-.1 1.6.2 1.7.5.1 1 .5 1.6.3.4-.2.9-.2 1.3.1.533.4 1.067.4 1.6 0 1.458-1.093 3.777 1.236 3.3-2.1 1.2 2 1.9 1.7 1.4-.5 1.4 2 2.1 1.2 1.3-.7.889.889 3.379 1.228 2.8-.8 0-.2.1-.1.2-.1 1.1.3 1.2 0 .3-1.4 1.584.792 1.3.199 2.5-1-1.643 3.286 1.968-6.037.85-1.287-.273-.473-.607-.894-1-1.263.301-.301 1.218.514 1.55-.15.025-.05-.97-1.2-1-1.2 2.884 0 .574-2.206 1.9-3.2.5-.501-1.2-.801-.8-1.001z" fill="#382d15"/><path d="m606.302 253.225c.4-.3.4-.9.1-1.3-.4-.395-.407-.783-.2-1.3.3-.4.2-.9-.2-1.2-.54-.324-.448-1.791-.6-2.4 0-.1-.1-.1-.1-.2l-5.1 2.1c-.076 1.607.534 2.7 2.2 2.7-.529.158-1.058.317-1.588.475.222.357.555.549 1 .575-.425.07-.791.249-1.1.538.496.171.992.342 1.487.512-.9 0-1.5 0-1.6.2-.231.245-.264.512-.1.8 1.138 1.707-2.503 1.664-.4 4-.456-.359-.956-.626-1.5-.8.182.541.449 1.041.8 1.5-.374-.487-.841-.82-1.4-1 .094.568.294 1.102.6 1.6-.503-.503-2.21-1.962-1.9-.1 0 .2 0 .1-.1 0-.6-.8-.6-.6-.5.9-.3-.6-.6-1.2-.7-1.2-1.022.511-.418.72-1.063 1.15-.199-.341-.361-.699-.488-1.075-.121.502-.284.99-.487 1.462-.089-.479-.177-.958-.263-1.438.052.052-.7 1.073-.7 1.2 0-1.247-1.297-2.606-2-1.2.224-.337.357-.703.4-1.1-.2-.1-.3-.3-.5-.5 0 .004-.984.284-.7 0 .911-1.215-.565-1-1.1-1 0-.1 0-.1 0-.2.283-.2.567-.4.85-.6-.425.142-.808.108-1.15-.1.8 0 1-.1.9-.4.2-.1.1-.1-.2-.2-.1-.1-.3-.2-.4-.3.632-.108.666-.242.1-.4 1-.2.9-.5-.1-1 .5 0 .7 0 .8-.1l-.6-.1c.267-.133.533-.267.8-.4 0-.781-4.591-1.024-5.343-1.33.614.392-.033-.022.308.659-.434.13-.433.133-.866.27 0 .1 0 .2.2.3v.2c-.1.2.1.3.7.5-.881.294-1.149 1.172-1 2-.1 0-.1 0-.1 0-.033.066-1.029 1.5-.1 1.5-1.2-.4-.9 0 .2 1-1.496-.855-2.854.821-4.5 1.5.228-.094-4.398.826-3.175 1.438-.04-.495-.065-.991-.075-1.487-.33.39-.601.815-.813 1.275.082-.505.136-1.013.163-1.525.031.031-1 .96-1 1 .073-.364.734-1.6-.2-1.6-.436.129-.536-.004-.3-.4-.351.178-.717.311-1.1.4.267-.3.533-.6.8-.9-1.357-1.357-.474-3.964.5-5l-3.9-4.1h-.1c-1.196 1.196-3.912 4.057-1.2 5.1-.575.071-1.15.142-1.725.212.07.528.37.87.9 1.025-.506.126-.843.43-1.013.912.513.183 1.025.367 1.538.55-.9.2-1.5.5-1.5.9.1.5-.1 1.1.4 1.5.4.2.6.7.4 1.1-.27 1.622 2.737 4.309 4.2 2.7-.9 2.1-.2 2.5 1.1.7-.297.629-.297 1.229 0 1.8.581-.235.981-.668 1.2-1.3-.172 1.202 1.19 3.32 2.1 1.5.1-.1.1 0 .2.1.5 1 .8.9 1.1-.7.2.7.4 1.3.7 1.3.5-.1 1-.1 1.5-.3.536 0 .091-1.717.5-.9.287.196.575.392.862.587.066-.046-.179-2.22.238-1.388.333.233.667.467 1 .7.038-.019-.044-1.53 0-1.5.991.826 3.3-.099 3.3-1.3.22-.094.386-.061.5.1-.6 1.1.1 1.2 1.3.3-.391.684-.641 2.847 1 2.3.5-.1 1 .1 1.2.6.3.5.9.6 1.4.4.4-.3 1-.2 1.3.2.4.4 1 .4 1.4 0 .825-.825 6.685-.62 5.2-2.6.362.212.725.425 1.087.637-.042-.539-.133-1.068-.275-1.587.358 0 .902 1.135 1.388.65.057-.057-.39-1.497-.4-1.5 2.663 1.065 1.231-1.562 2.9-1.8-.176-.373-.41-.707-.7-1 .441.066.874.033 1.3-.1.1-.5.6-.8.4-1.4-.551-1.103 1.378-1.402.5-2.5.703-.997.803-1.497 1.203-1.797-.1 0 0 0 0 0z" fill="#ea482b"/><g fill="#f2c617"><path d="m682.702 113.125c.076-.038-.398.983-.513.525.157.629.801.718 1.413 1.075-.504-.188-1.008-.375-1.513-.563.195.295.462.512.8.65-.327-.197-.677-.313-1.05-.35.454.254.908.508 1.362.762-.5-.2-1-.4-1.5-.5 0-.028-.055 1.184.013 1.05-.174-.057-.349-.065-.525-.025.17.679.612.644 1.413 1.075-2.1-.9-2.1-.8-.2.3-2.2-.9-1.9-.6-.1.3-.5-.2-.9-.4-1.4-.6-.1.1-.8-.1.3.6.1.1 0 0-.1 0-.9-.3-.8-.2.5.5-.4-.2-.8-.3-1.2-.4 0 .1-.1.2-.1.3 2.216 2.165-.8-1.213-.2.288.039.097 1.938 1.028.9.612-.333-.1-.667-.2-1-.3.331 0 .783.594 1.1.7-.4-.2-.8-.3-1.3-.4 0 .272.378.645-.2.5.281.07.598.499.9.6-.333-.1-.667-.2-1-.3 0 .1 0 .2-.1.3.275.158.809.4.4.4-1.73-.577.952.963.3.8-.35-.121-.7-.242-1.05-.362 1.335-.334.695 1.704-.162.275.371.229.742.458 1.113.687-.4-.2-.8-.3-1.2-.4.3.2.6.4.9.6-.329-.114-.663-.214-1-.3 0-.008.862.612.8.6-.29-.119-.59-.186-.9-.2 0 .701.362.541 1.4 1.1-2.1-.9-2.2-.8-.2.2-2-.8-2-.8-.1.3-.4-.2-.9-.4-1.4-.5 0 .1-.8 0 .3.6-1.056-.327-.889-.16.5.5-.4-.2-.8-.4-1.3-.5 0 1.271-1.678 1.798-.1 2.7.5.2.4.2 0 .1-.354-.129-.708-.258-1.063-.387-.044.132 2.011 1.047.863.587-.333-.1-.667-.2-1-.3.331 0 .783.594 1.1.7-.4-.2-.8-.3-1.3-.4 0 .295.518.739-.2.5l1 .6-1.1-.4c.009-.025-.14 1.165-.025 1.05-.193-.052-.388-.069-.587-.05.125.196.267.379.425.55-.182.121-.712.486-.712.65l.1.1 5 2.4c.738-.738.118-.948-1-1.6.504.188 1.008.375 1.512.563-.195-.295-.462-.512-.8-.65.327.197.677.313 1.05.35-.454-.254-.908-.508-1.362-.762.5.2 1 .4 1.5.5 0 .028.055-1.184-.013-1.05.174.057.349.065.525.025-.17-.679-.612-.644-1.412-1.075 2.1.9 2.1.8.2-.3 2.2.9 1.9.6.1-.3.5.2.9.4 1.4.6.1-.1.8.1-.3-.6-.1-.1 0 0 .1 0 .9.3.8.2-.5-.5.4.2.8.3 1.2.4 0-.1.1-.2.1-.3-2.216-2.165.8 1.213.2-.287-.039-.097-1.939-1.028-.9-.612.333.1.667.2 1 .3-.331 0-.783-.594-1.1-.7.4.2.8.3 1.3.4 0-.272-.378-.645.2-.5-.281-.07-.598-.499-.9-.6.333.1.667.2 1 .3 0-.1 0-.2.1-.3-.275-.158-.809-.4-.4-.4 1.73.577-.952-.963-.3-.8.35.121.7.242 1.05.363-1.335.334-.695-1.704.162-.275-.371-.229-.742-.458-1.112-.687.4.2.8.3 1.2.4-.3-.2-.6-.4-.9-.6.329.114.662.214 1 .3 0 .008-.862-.612-.8-.6.29.119.59.186.9.2 0-.701-.362-.541-1.4-1.1 2.1.9 2.2.8.2-.2 2 .8 2 .8.1-.3.4.2.9.4 1.4.5 0-.1.8 0-.3-.6 1.056.327.889.16-.5-.5.4.2.8.4 1.3.5 0-1.271 1.678-1.798.1-2.7-.5-.2-.4-.2 0-.1.354.129.708.258 1.063.388.044-.132-2.011-1.047-.863-.588.333.1.667.2 1 .3-.331 0-.783-.594-1.1-.7.4.2.8.3 1.3.4 0-.295-.518-.739.2-.5l-1-.6 1.1.4c-.01.03.142-1.168.025-1.05.193.052.388.069.588.05-.126-.196-.267-.379-.425-.55.137-.092.759-.603.612-.75z"/><path d="m716.602 126.425c-1.112.556-.728.972.3 2-.438-.325-.875-.65-1.313-.975.065.377.248.693.55.95-.226-.301-.514-.506-.862-.612.342.379.683.758 1.025 1.138-1.81-1.552-1.302-.523-1.775.188-.19-.071-.386-.108-.588-.112-.141.562.745 1.207.963 1.425-1.8-1.4-1.8-1.3-.3.3-1.8-1.5-1.7-1.1-.2.3-.4-.3-.8-.6-1.2-.9-.486.243-.462.438-.1.8-.8-.5-.8-.4.3.7-.339-.307-.705-.573-1.1-.8-.72 0 .182 1.175.325 1.175-.296-.246-.621-.451-.975-.612.25.279.5.558.75.837.504.672-.617-.6-1-.6.201 0 .621.88.8 1-1.107-.886-2.255-.341-1 .6-.291-.213-.591-.413-.9-.6-.1.1-.1.2-.2.3.718 1.614.252-.463-.363.275-1.693 2.032 3.297-.247-.25.463.183.361.417.682.7.963-.348-.181-.686-.381-1.013-.6.275.333.55.667.825 1-.3-.3-.7-.5-1-.7.201.295.434.562.7.8-.292-.212-.592-.412-.9-.6.133 0 .511.733.6.8-.267-.167-.533-.333-.8-.5-.424.62.184.85.9 1.5-1.8-1.4-1.9-1.4-.4.2-1.7-1.3-1.8-1.3-.2.3-.4-.3-.8-.6-1.2-.9-.121.121-.886.9 0 .9-1-.7-.7-.3.3.7-.6-.5-1.1-.8-1.1-.8-.617.686-1.691 1.651-1.825 1.988-.176.44.53 1.288.888 1.287-.41-.273-.818-.548-1.225-.825.254.283.508.567.763.85.504.672-.617-.6-1-.6.201 0 .621.88.8 1-.896-.537-1.631-.298-1.5-.2.265.276.498.576.7.9-.439 0-.72-.808-1.213-.513-.014.22.019.432.1.637-.195-.107-.404-.173-.625-.2.004.24.045.474.125.7-.195-.107-.404-.173-.625-.2-.297.238-.331 1.375-.862 1.375l4.1 3.7c.812-.813.885-.715-.4-2 .438.325.875.65 1.313.975-.065-.377-.249-.693-.55-.95.226.301.514.506.862.612-.342-.379-.683-.758-1.025-1.137 1.81 1.552 1.302.523 1.775-.188.19.071.386.108.588.113.14-.562-.745-1.207-.963-1.425 1.8 1.4 1.8 1.3.3-.3 1.8 1.5 1.7 1.1.2-.3.4.3.8.6 1.2.9.486-.243.462-.438.1-.8.8.5.8.4-.3-.7.339.307.705.573 1.1.8.72 0-.182-1.175-.325-1.175.296.246.621.451.975.613-.25-.279-.5-.558-.75-.837-.504-.672.616.6 1 .6-.201 0-.621-.88-.8-1 1.107.886 2.255.341 1-.6.291.213.591.413.9.6.1-.1.1-.2.2-.3-.718-1.614-.253.463.362-.275 1.693-2.032-3.297.247.25-.463-.183-.361-.417-.682-.7-.963.348.181.686.381 1.012.6-.275-.333-.55-.667-.825-1 .3.3.7.5 1 .7-.201-.295-.434-.562-.7-.8.292.212.592.412.9.6-.133 0-.511-.733-.6-.8.267.167.533.333.8.5.424-.62-.185-.85-.9-1.5 1.8 1.4 1.9 1.4.4-.2 1.7 1.3 1.8 1.3.2-.3.4.3.8.6 1.2.9.12-.121.886-.9 0-.9 1 .7.7.3-.3-.7.6.5 1.1.8 1.1.8.617-.686 1.691-1.651 1.825-1.988.176-.44-.53-1.288-.888-1.288.41.273.818.548 1.225.825-.254-.283-.508-.567-.762-.85-.504-.672.616.6 1 .6-.201 0-.621-.88-.8-1 .896.537 1.631.298 1.5.2-.265-.276-.498-.576-.7-.9.439 0 .719.808 1.212.513.014-.22-.019-.432-.1-.637.195.107.404.173.625.2-.003-.24-.045-.474-.125-.7.195.107.404.173.625.2.329-.264.465-.992.963-1.375z"/><path d="m737.302 153.125c-.878.117-.865.589-.1 1.9-.338-.425-.675-.85-1.013-1.275.092.375.238.729.438 1.063-.175-.318-.4-.593-.675-.825.217.446.433.892.65 1.338-.3-.5-.6-.9-1-1.2-.103.103-.827.901-.65.812.273-.136-.673-.335-.55-.212.079.554.312 1.054.7 1.5-1.3-1.9-1.4-1.8-.3.1-1.3-2-1.2-1.6-.3.2-.3-.4-.5-.8-.9-1.2-.2.1-.7-.5-.2.7.1.1 0 .1-.1 0-.6-.8-.6-.6.1.8-.2-.4-.5-.7-.8-1.1-.1.1-.2.1-.3.2.15.35.3.7.45 1.05-.185-.335-.414-.639-.688-.912.174.462.366.916.575 1.362-.316-.397-.628-.797-.938-1.2.269.269.289.883.5 1.2-.253-.377-.519-.744-.8-1.1-.119.536-.912.082-.1 1.3-.239-.358-.514-.986-.9-.6.032 1.332-.639-.836-.4.6.797 1.594-.094-.131-.338-.212.238.279.35.583.338.913-.8-1.2-.8-1.1-.1.4-.2-.4-.4-.7-.7-1 .1.3.2.7.4 1-.194-.33-.428-.63-.7-.9-.046 0 .273.863.3.9-1.375-1.834-.527.192-.2.9-1.2-2-1.2-1.9-.4 0-1.1-1.9-1.2-1.8-.3.2-.2-.4-.5-.9-.8-1.3-.1.1-.6-.5-.2.7-.633-.895-.6-.628.1.8-.2-.4-.4-.8-.7-1.1.248 0-1.095.33-.862.175-.024.213-.049.425-.075.637-.414.138-1.604-.079-1.687.088-.294.587.375 1.005.375 1.538-.188-.463-.434-.897-.737-1.3.191.457.354.924.487 1.4-.245-.426-.511-.839-.8-1.237.105.442.238.876.4 1.3-.196-.327-.41-1.075-.875-1.075-.181 0 .273 1.072-.325.275.147.354.247.721.3 1.1-.499 0-.884-.908-1.862-.712.099-.02-1.039.73-1.237.813l2 5.2c-.256 0 1.109-.613.825-.188.322-.482-.212-1.419-.325-1.712.242.483.483.967.725 1.45-.001-.359-.076-.705-.225-1.037.167.333.392.616.675.85-.158-.488-.317-.975-.475-1.462.2.5.4.9.8 1.4 1.058-1.059 1.871.12.8-2.2 1 2 1.1 2 .3-.1 1 2.1 1.1 1.7.3-.2.2.5.5.9.7 1.3.2 0 .6.6.2-.7 0-.1 0-.1.1 0 .5.8.5.7 0-.8.2.4.4.8.7 1.1.1-.1.2-.1.3-.2-.536-2.836.024 1.054.262-.138.056-.281-.88-1.886-.263-1.062.2.3.4.6.6.9-.105-.442-.238-.876-.4-1.3.254.508.446.98.975 1.113.489.122.174-1.088.025-1.313.2.3.4.6.6.9.1-.1.2-.1.3-.2-.175-.215-.175-.382 0-.5.6.8.6.5.5-.1-.812-1.624.12.168.3.212-.124-.031-.419-1.27-.3-.912.7 1.2.8 1.1.1-.4.2.4.4.7.7 1-.1-.3-.2-.7-.3-1 .194.33.428.63.7.9.046 0-.273-.863-.3-.9.484.645.274.6.8.6-.039-.577-.239-1.111-.6-1.6 1.2 2 1.3 1.9.4-.1 1.1 1.8 1.2 1.8.3-.2.2.4.5.8.8 1.2.1-.1.7.5.2-.7 0-.1-.1-.2 0 0 .7 1 .5.6-.1-.8.2.4.5.8.8 1.1.663-.663 3.237-.561 2.3-2.2-.2-.5-.2-.4 0 0 .233.292.467.583.7.875-.215-.457-.427-.915-.637-1.375.294.382.607.749.938 1.1-.11 0-.392-1.092-.5-1.2 1.086 1.448.921.321 1.3.7-.147-.343-.313-.677-.5-1 .209.319.442.619.7.9.829-.73 1.355-1.025 2.4-1.7z"/></g><path d="m799.102 287.525c0-6.389.077-12.823-.4-19.2-14.833-9.201-32.802-13.82-50.232-13.47-13.827.278-30.73 3.53-40.268 14.47-10.209 4.084-16.732 11.971-23.813 19.938-8.096 9.11-15.804 16.635-21.887 27.462-12.337 9.869-21.083 23.568-33.992 32.784-13.295 9.492-30.383 11.8-45.876 6.659-25.482-8.457-40.713-34.309-66.732-41.743-8.5-7.3-18.9-12-30-13.3-5.987-3.522-12.137-4.825-18.7-6.7-4.486-.627-8.975-1.011-13.5-.6-13.589-4.853-29.566-3.844-43.619-1.796-14.809 2.158-30.81 4.457-44.081 11.696-21.59 4.318-37.279 19.494-54.966 31.218-4.166 2.761-8.528 5.247-12.458 8.352-3.717 2.938-6.761 6.626-10.517 9.503-8.674 6.644-18.005 13.005-26.96 19.327-23.778 11.665-51.392 29.502-79 20.3-7.174-1.305-13.303-6.124-19.43-9.761-6.803-4.039-14.056-7.547-21.372-10.552-15.178-6.233-31.95-10.296-48.376-10.892-8.296-.301-16.489.823-24.672 2.043-7.735 1.153-16.107.653-23.543 3.246-13.228 4.612-27.381 14.079-33.306 27.116-13.148 15.026-14.088 38.572-7.08 56.388 7.467 18.983 22.157 43.208 44.38 46.912 8.26 6.759 20.284 11.3 31 11.3 10.579 4.534 21.353 6.496 32.9 5.7 12.684 5.073 27.091 4.109 40.471 4.043 15.711-.078 32.296 2 47.829-.443 13.224 3.162 27.011 2.455 40.491 2.352 14.396-.11 28.775.548 43.161.97 29.253.858 58.522 1.088 87.784 1.469 56.84.74 113.646 3.516 170.326 2.083 7.317-.185 14.447-2.156 21.764-2.445 7.957-.314 15.812-.385 23.723-1.477 15.933-2.198 31.483-6.432 47.151-9.953.2-.1.5-.2.8-.2 5.945-1.713 11.369-4.871 17.299-6.707 6.508-2.015 12.785-4.139 18.98-7.005 11.516-5.328 22.318-11.842 32.892-18.83 20.077-13.268 37.236-29.647 51.522-49.021 29.752-40.348 42.608-88.697 42.608-138.438-.201-1.098-.301-1.898-.301-2.798z" fill="#382d15"/><path d="m542.402 478.625-1-3.1c-5.217 3.096-10.638 5.861-15.817 9.008-6.304 3.831-15.836 8.897-19.283 15.792-1 .4-2.1.8-3.1 1.3 3.532-6.056 5.929-10.806 6.5-18 6.55-7.278 7.701-20.789 9.051-30.041.935-6.403 1.968-12.781 3.049-19.159-9.422 5.584-17.51 12.017-25.426 19.598-8.082 7.74-21.835 17.832-23.975 29.602-.4.3-.8.7-1.2 1-.1-.8-.2-1.6-.4-2.4 3-5.8 3.5-14.9 1.8-19.7 4.036-7.339 3.165-19.284 3.064-27.457-.103-8.289 1.496-17.964-1.164-25.943 2.768-8.995 1.398-21.494.004-30.696-.982-6.479-1.005-12.429-.904-19.004-3.048 3.11-6.511 6.168-8.869 9.856-1.586 2.48-2.307 4.924-4.331 7.044-2.765 2.896-5.09 5.587-7.5 8.8-1.014 2.027-1.579 4.282-2.8 6.2-6.084 6.591-10.72 14.266-14.525 22.4-3.212 6.866-7.143 14.174-8.975 21.5-.396 5.54-4.789 11.342-6.48 16.617-2.159 6.737-3.23 13.522-4.92 20.283-1.492-3.978-3.021-7.973-4.766-11.85-.992-2.204-4.052-5.453-3.834-7.85-.521-6.897-4.533-11.398-6.5-17.6-1.837-5.793-2.628-10.48-6.2-15.7-.475-7.126-4.591-11.908-6.526-18.39-.844-2.827-.916-5.784-2.059-8.551-1.062-2.571-2.801-4.754-3.796-7.347-4.632-12.07-8.049-23.669-15.519-34.512-1.035 3.174-2.4 6.415-2.4 9.8-4.8 5.4-7 11.1-7 18.6-3.934 6.12-4.976 12.456-4.6 19.6-4.523 6.61-4.521 18.784-4.567 26.575-.051 8.577-1.3 18.697 1.767 26.825-2.065 7.226-.052 16.241 1.228 23.492 1.309 7.416 2.508 15.583 4.572 22.808-9.548-12.276-20.345-23.121-31.459-33.98-8.275-8.086-17.977-14.579-26.741-22.12 0 11.133-.874 24.91 5 34.7 1.858 2.323 1.067 6.797 1.786 9.573.939 3.626 2.924 6.042 4.614 9.227 2.879 5.424 3.301 11.161 7.5 16.2 1 .9 1.9 2 2.6 3.2.904 2.261 1.867 4.495 2.9 6.7 7.333.852 14.825 1.075 22.207.926 7.855-.159 15.688.596 23.465-.223 6.188-.652 12.866 1.017 19.169 1.189 8.731.238 17.464-.228 26.184.321 33.044 2.081 66.476 1.395 99.575 1.487 6.317-7.446 14.71-13.146 20.6-21 4.105-4.106 8.138-8.741 10.1-14.3.768-1.535.932-3.59 1-5.3-.199-2.1-.499-4.1-1.099-6z" fill="#ea482b"/><path d="m753.302 360.225.8-1.2-.4-.1c.809-2.425 1.183-5.002 1.7-7.5-11.164 9.134-17.686 21.605-25.308 33.71-4.495 7.138-7.99 15.074-11.984 22.523-2.857 5.328-7.715 13.506-6.907 19.567-1.487 1.487-4.6 4.846-4.6 7.2-.4-.9-1-1.8-1.6-2.6 2.123-6.015-.99-15.336-2.624-21.229-1.734-6.253-2.135-14.03-5.876-19.471.95-7.286-2.241-20.141-6.2-26.3-1.541-1.761-.813-4.79-1.233-6.919-.522-2.642-1.64-5.134-3.267-7.281-.7-.7-1-1.7-.8-2.6.293-3.228-.664-6.634-1.2-9.8-2.755 4.38-5.825 8.498-6.8 13.7 0 1-.2 2-.6 3-4.395 5.859-5.934 12.236-8.6 18.9-.1.5-.2 1-.4 1.6-.91 4.779-3.4 9.402-4 14.2v2c.557 3.065-1.67 6.12-2.494 8.953-.872 2.999-1.237 6.097-1.684 9.178-.741 5.1-.603 10.235-1.366 15.269-.764 5.04-1.371 10.038-1.356 15.15.009 3.038 2.147 9.955 1.1 12.05-.5 1.7-.8 3.5-.9 5.2-.551-6.333-5.389-10.036-7.325-15.663-1.782-5.178-5.076-9.186-7.15-14.3-2.352-5.797-7.566-17.631-13.225-20.337-.8-5.7-3.2-9.7-8-13.2-.683-3.185-2.016-6.18-3.2-9.2-2.708 5.916-4.865 10.743-3.9 17.5-3.409 4.09-3.717 11.829-4.226 16.985-.38 3.859.168 7.695-.174 11.515-.421 4.69-1.522 8.131.3 12.8-2.698 6.07-1.23 15.848-.361 22.25 1.107 8.158 1.36 16.547 3.361 24.55-11.814-12.601-25.222-23.16-37.8-34.9.121 3.87.097 7.771.508 11.621.404 3.783.962 7.663 2.029 11.323.578 1.981 3.645 6.243 3.262 8.156-.2 4.4 1.4 8.7 4.5 11.9.8.6 1.3 1.6 1.1 2.6 0 6.207 6.121 8.487 7.4 13.6.667 1.6 1.333 3.2 2 4.8 10.678.192 20.663-4.444 31.1-5.9.1 0 .2-.1.4-.1 2.438-.61 4.362-2.304 6.786-2.905 2.89-.717 5.741-.682 8.678-1.582 7.004-2.147 13.533-5.2 20.37-7.763 9.258-3.47 17.465-8.336 26.267-12.75 22.075-11.071 39.863-28.063 57.1-45.3l-2.5-1.3 2.5 1.3c2.515-7.544 3.076-15.598 4.284-23.386 1.206-7.77 5.689-21.279 1.716-28.614 2.914-5.674 1.104-9.621 1.175-15.4.071-5.886 1.848-9.483-.376-15.5z" fill="#4e73b9"/><path d="m544.202 79.225c-1.12-3.92-8.517-8.863-12-4.8-2.177-1.935-3.439-.931-5.7-1.1-2.757-.206-1.737-.179-4.2-1-.963-.642-3.273-.403-4.3-.3-.916-5.951-14.289-12.446-19.444-12.263-4.602.164-17.445 4.163-18.856 8.962-2.1-1.4-4.9-1.1-6.8.6-.41-.894-.976-1.66-1.7-2.3-.48-.48-1.05-.831-1.7-1l-.4-.2c-.3-.1-.6-.2-.9-.2-.3-.1-.6-.1-.9-.1l.1-.7c1.971-3.941-5.623-9.707-4.8-13 0-2.556-1.404-4.501-3.8-5.3 0-4.086-6.866-9.748-10.9-9.3-1.214.405-4.481-2.143-6.255-2.145-3.169-.004-1.445 1.025-4.645-.255-2.769-.396-3.904 2.1-5.9 2.1l-1.2-.3c-5.462 0-9.197 4.019-12.6 7.8-.1-.3-.2-.5-.3-.8-1.2-2.1-2.5-4.2-4-6.1l-.1-.2-1.7-2.1c-5.238 3.348-9.722 8.139-14.3 12.15-1.582 1.386-3.579 2.932-5.419 4.61-2.038 1.86-5.247 3.432-5.781 6.64-3.663.563-3.294 3.328-5.328 5.361-.796.796-2.098.882-2.872 1.739-.819.906-.747 2.2-1.456 3.133-2.332 3.072-10.006 7.374-8.244 12.367-3.261.699-4.696 3.23-4.3 6.4-3 1.1-4.1 2.7-4 5.9h-.3l.1.1v.8c-1.716.245-3.34 2.127-4.6 3.2 2.622.68 4.933 1.292 7.6 1.4 2.923.118 6.161-.841 9-.6 2.656.226 3.874 2.163 6.8.7 1.675 3.35 8.193 5.204 11.2 7.283 5.897 4.079 9.863 6.081 17.4 5.417 5.512-.486 10.948-3.903 15.759-6.5 3.012-1.626 5.541-3.876 8.624-5.385 2.481-1.215 5.255-1.884 7.717-3.115.3-.1.5-.2.7-.4.533-.533 1.067-1.067 1.6-1.6.842.33 1.639.75 2.393 1.259 1.303.416 2.572.33 3.807-.259 1.114.346.786 1.312 1.9 1.762.183.074 3.934 1.739 4.026 1.808 1.448 1.078 2.153 2.974 3.874 3.93.6.267 1.2.533 1.8.8 2.425 1.213 10.997 2.303 13.2.1.7-.2 1.2-.7 1.7-1.2 1.014-1.69 5.387-2.017 7.167-2.963 2.976-1.582 5.454-3.898 8.452-5.437 5.956-3.057 10.195-4.598 16.815-3.656 10.212 1.454 20.713 8.533 31.067 3.356 3.21-1.07 5.781-4.727 6.6-7.8.999-1.899.899-4.599.299-7.299z" fill="#fff"/></svg>