<svg enable-background="new 0 0 787.495 426.342" height="426.342" viewBox="0 0 787.495 426.342" width="787.495" xmlns="http://www.w3.org/2000/svg"><path d="m783.494 248.342c0 22.553-2.381 45.611-10.038 66.947-7.576 21.11-21.723 37.69-37.462 53.253l-.1.3h-.1c-20.516 16.828-44.95 28.248-70.259 35.818-12.393 3.707-25.037 6.532-37.788 8.689-14.321 2.422-28.115 2.935-42.559 3.498-14.512.566-29.069 1.502-43.602 2.171-14.982.689-29.893-.08-44.872.121-7.113.096-14.201 1.089-21.312.794-7.069-.294-13.897-.997-20.98-.43-14.868 1.192-29.527-.394-44.4.343-16.534.819-33.087-.257-49.625-.38-16.647-.124-34.479-2.805-50.802 1.276-16.608 0-33.219 1.018-49.823.237-16.927-.796-33.891-1.874-50.75-3.597-15.733-1.608-31.014-5.362-46.304-9.272-7.349-1.879-14.704-3.795-21.947-6.056-3.578-1.117-6.89-2.751-10.394-4.045-3.541-1.308-7.366-1.596-10.883-2.968-.2-.1-.4-.1-.5-.2-3.963-1.913-7.995-3.679-12-5.5-9.075-3.025-16.948-10.338-25.5-14.6h-.1c-4.96-5.52-10.123-10.699-16.227-14.958-6.445-4.497-12.794-8.962-18.373-14.542-1.701-2.187-3.108-4.514-4.5-6.9-1.784-1.784-3.494-3.639-5.3-5.4-.5-.6-1-1.2-1.5-1.7-1.3-1.56-2.979-3.259-3.9-5.1-.4-.6-.8-1.1-1.1-1.7-3.021-4.633-5.54-9.863-7.1-15.2-2.151-3.107-4.009-6.364-6.1-9.5-2.463-4.926-5.112-10.485-5.9-16-.592-2.072-.815-4.366-1.1-6.5-5.208-8.681-6.709-19.067-8.04-28.928-1.537-11.39-2.239-22.581-1.96-34.072.132-5.455-.556-10.922-.181-16.37.367-5.34 1.745-10.553 2.601-15.823 1.744-10.747 2.746-21.592 7.081-31.707.652-3.781 1.491-7.499 2.5-11.2 5.04-12.6 10.109-26.942 18.461-37.736 7.757-10.024 15.146-20.759 24.51-29.372 10.124-9.311 22.056-16.573 33.436-24.219 11.959-8.035 24.843-14.514 37.792-20.773 28.809-10.803 58.286-22.189 89.248-24.968 7.884-.708 15.748-.337 23.623-1.324 7.547-.946 14.822-.918 22.391-.356 7.559.561 15.167.178 22.71.979 8.35.887 16.53 2.941 24.927 3.469 13.772 2.754 29.415 4.035 42.4 9.6 3.38 1.04 6.645 2.43 9.9 3.8 15.385 2.147 29.928 8.122 44.773 12.425 14.837 4.3 29.947 8.235 43.827 15.175 11.253.938 22.901 4.468 33.2 9 11.352.783 22.545 3.185 33.3 6.9 16.181-.49 32.229 2.355 48.305 3.706 16.447 1.382 32.966 1.79 49.366 3.744 15.565 1.854 30.983 4.841 46.078 9.075 13.656 3.831 27.58 8.472 39.051 17.076 5.888 2.099 11.754 4.595 17.044 7.956 4.825 3.065 8.92 7.123 13.673 10.306 8.85 5.926 19.656 12.988 24.583 22.838 8.644 6.791 13.958 16.723 17.598 26.903 3.498 9.785 6.836 20.905 7.702 31.297 3.314 16.684 3.1 34.27 3.1 51.2.101.6.201 1.5.201 2.5z" fill="#f1c517"/><path d="m186.494 105.942c-.083-.296-.116-.596-.1-.9l-.1-.3c-.146-.749-.479-1.416-1-2-.1-.2-.3-.4-.5-.5l-.5-.4c-.2-.1-.4-.2-.5-.3-.2-.1-.4-.2-.5-.3-3.661-1.22-13.302-1.395-15.1 3.1l-.4-.1c0-.1-.1-.2-.1-.3-.792-1.425-1.593-2.641-1.8-4.3-.672-2.239-3.298-3.05-5.4-2.7-1.57-3.767-6.441-3.171-9.697-2.814-5.291.579-10.886 1.954-16.103.214-.695-.463-1.676-1.445-2.2-2.1-1.603-1.603-1.605-4.303-3.7-5.5 1.456-2.288.922-5.423-1.4-6.9.909-2.122.125-4.617-1.8-5.9-.6-.3-1.2-.5-1.9-.5 0-4.807-8.641-6.328-12.1-5.6-.3.1-.7.1-1-.1-.3-.1-.7-.2-1-.2-1.03-.343-2.672-.021-3.5.6-.5.3-.9.7-1.3 1.1-.5-.2-1.1-.2-1.6-.3-2.882 0-8.859 3.225-9.9 6-.332 1.661-2.713 1.287-3.688 2.263-.751.752-.684 3.338-2.113 3.338 0-.1 0-.2 0-.3.2-.7.4-1.3.6-2 .444-3.549-3.394-13.931-6.9-15.1-1.505-.753-1.173-1.147-2-2.8-.1-.3-.3-.6-.5-.8-.631-.946-1.794-1.853-2.7-2.5l-1.4-1.2c-2.005 1.341-4.649 2.774-6 4.8-.674 1.573-2.733 1.798-4.015 2.608-2.137 1.349-3.946 3.08-5.585 4.992-.2.3-.4.7-.4 1.1-.255 1.53-4.415 1.783-5.2 4.4-1.185 2.37-4.008 1.76-4.9 5.2-4.182.76-6.93 6.297-9.546 9.175-2.613 2.876-8.304 6.628-7.154 11.225-3 .9-4.2 2.7-3.9 5.9-1.2.4-2.2 1.2-2.9 2.3-.1.2-.3.5-.3.8-.1.3-.1.6-.2.9-.1.8-.1 1.5 0 2.3-.9.2-1.7.7-2.2 1.5-1.09 2.18-2.39 4.282-3.6 6.4 3.087.636 6.114 1.419 9.3 1.1 2.272-.757 3.858 2.135 6.6.2.8.9 1.8 1.4 3 1.4 14.75 1.844 29.094-4.24 42.9-8.6 1.882-.376 3.694-.676 5.6-.2 1.9.3 3.9.3 5.9.6 1 .3 2.1.1 3.1-.4 1.301-.868 2.674 1.462 3.812 1.675 1.093.204 3.376-1.528 4.188-.175 1.196 1.367 3.246 1.809 4.9 1.1.7-.2 1.2-.5 1.5-.3.6.3 1.1.6 1.7.9 1.37.457 2.266.313 3.7.6 3.729.076 7.12-1.232 10.8-1.6h.2c5.684-1.312 11.109-4.338 16.819-5.831 6.488-1.697 12.607-.376 18.419 2.717 7.51 3.996 17.461 10.419 22.763-.185l-2.2-1 2.2 1c.739-1.478 1.323-2.865 1.7-4.5 0-.385.128-.707.1-1.1.7-.602.7-.702.8-.902z" fill="#fff"/><path d="m592.094 104.842c-2.93-4.558-5.771-7.485-9.9-10.9-1.31-1.31-3.184-1.892-4.8-2.7l-1 2.1-1.1-3.9.7-2.3c-1.585-.762-3.275-1.196-5-1.5-2.924-.209-5.447-1.803-8.4-2-1.3-.4-2.7 0-3.6 1-.5-.7-1.2-1.2-2.1-1.4-.3-.1-.7-.1-1.1-.1-.3.1-.7.2-.9.4-.7.9-1.9 1-2.8.4-1.2-.6-2.6.2-3.7 2-6.434-4.176-13.066 11.731-14.9 15.4-.429.658-.929 1.258-1.5 1.8-.104.12-.455.5-.6.5-.2.2-.3.4-.5.6-.3.5-.5 1-.6 1.6-1.856-1.114-3.243-1.009-4.6.8-.6-.8-1.5-1.4-2.5-1.5-.9 0-1.8.4-2.4 1.1-.4-.7-.7-1.4-1.4-1.6-1.631-.272-3.181-.951-4.8-1.3h-.5c-.7-.1-1.3 0-2 .1-.2.1-.5 0-.7-.2-1.7-1.1-2.6-1.1-4.3.2-1.771-2.066-5.993-.82-8.1 0-.7.2-1.2.7-1.5 1.3-.465 1.859-5.141.578-3.9 4.3.481 2.887-5.06 7.32-7.1 8-.312.17-5.438 1.655-5.8 1.5-.7-.5-1.6-.9-2.5-1-1.555-.004-3.155-.093-4.7.1-.3 0-.6.1-.8.1-3.723 1.241-7.525.849-10 4.7-.768 1.536-.188 2.131-2 3.4.18 1.755.884 3.69 2.9 4 2.35.588 1.531 4.068 5.2 2.6 1.004 2.259 3.139 1.44 4.9 1 .9.3 1.8.6 2.7.9 1.2 0 1.8-1.4 2.6-1.2 1.95.867 4.265-.113 6.2-.5 1.3 0 2.4-.8 2.9-2 2 1.7 3.1 1.6 4.9-.2 1.7 1.9 2.6 2 4.9.5 1.022 2.384 6.039 3.362 8.3 3 .2 0 .4 0 .6.1 1 1.3 2.9 1.6 4.2.6 1.139 3.038 6.746 2.581 9.3 2.9 4.571 1.524 12.827 2.143 17.4 1 4.162 0 8.512-1.073 12.6-.8.922-.058 7.606-2.096 7.6-2.1 1.2.9 2.9.7 3.9-.5.1-.1.2-.3.3-.4.3-.5.5-.5.9-.2 2.66 1.52 2.806-1.5 4.6-1.5 2.62.524 4.984-.177 7.3-1.5 1.2-.9 2.6-1.5 4-1.8 0 0 .1 0 .1-.1.9-.4 1-1.7 1.5-2 .4-.1.8-.2 1.2-.1 2.189 0 4.297-2.279 5.6-3.8 3.614-5.42 8.905-11.923 4.8-18.9z" fill="#fff"/><path d="m162.694 333.942c-1.203.413-2.303 1.013-3.3 1.8-.5.5-1.2 1-1.9 1.3-4.303.187-8.23 2.415-11.7 4.8 2.773-3.698 5.2-11.045 5.2-15.7-.1-1 .1-2 .6-3 2.364-7.093 2.19-14.157 1.7-21.5-1.514 1.319-3.477 2.554-4.4 4.4-.2.6-.8 1.1-1.5 1.2-3.1.9-5.7 3.1-7 6-.2.6-.7 1.1-1.3 1.4-3.023 1.889-5.208 4.335-6 7.9-1.56.892-2.835 2.343-3.7 3.9-.1.3-.3.5-.4.7-.465-3.717-2.898-6.817-4.207-10.247-1.05-2.751-1.388-6.202-4.093-7.953.851-4.04-.301-8.001-3.1-11 .196-1.96.024-3.929-.6-5.8-.854-1.922-2.114-3.614-3.6-5.1 1.173-5.472-4.557-14.503-7.8-18.7-2.64-2.64-2.157-6.607-5.7-9.1-.612-10.41-15.91-15.032-14.4-25.6l-4.9-1.5c-.4 1.5-.7 3-1 4.3-.1.8-.3 1.7-.4 2.4-4.681 18.724-4.851 39.609-1.5 58.6.1 1.7.7 3.4 1.7 4.8.5.5.7 1.3.4 2-.599 3.192-.003 6.596 2 9.2.5.5.7 1.3.5 2-.522 2.785.302 5.717 1.9 8 .6.6 1 1.4 1.2 2.2.345 3.452 1.088 6.255 2 9.6-.5-.6-1.1-1.2-1.7-1.7-9.296-9.296-17.576-19.551-27.034-28.692-4.753-4.594-9.476-9.361-14.655-13.479-5.245-4.171-11.254-6.95-17.211-9.928l-1.4-.3-.3-.1c-.233 0-.467 0-.7 0-1.085-.217-2.422.111-3.4.6-.1.5-.1 1-.2 1.6-.1 1.4-.1 2.7.1 4.1 0 .481.111.926.1 1.4.749 3.23 1.431 6.383 2.6 9.5 1.633 6.532 3.426 17.917 9.4 21.9-.123 2.975.729 6.136 3 8.2.8.6 1.4 1.4 2 2.2 1.14 2.052 1.066 4.566 2.8 6.3 1.085 1.302 2.429 2.321 3.8 3.3.1.8.3 1.6.5 2.4 1.138 2.846 4.412 7.359 7 9.3 3.443 4.017 7.132 7.866 11.152 11.311 4.249 3.641 9.257 6.213 13.548 9.789 2.6 1.8 5.3 3.3 8.2 4.6 1.931 1.104 3.933 1.639 6.1 2 .6 0 1.1-.1 1.7-.2 2.8 3.1 7.2 4.2 11.2 2.8 3.14 2.093 8.475 2.978 11.6.3 3.557 1.779 8.406.237 11.817-1.226 3.285-1.41 5.965-4.87 9.483-5.574 1.565-.517 3.04-1.55 4.3-2.6 1.095-1.095 2.051-2.337 2.6-3.8 5.278-1.979 8.545-6.932 11.423-11.479 2.665-4.209 6.808-9.004 6.977-14.221-.1-.7.2-1.5.8-1.9 1.301-1.084 1.934-2.701 2.6-4.2v-.1l1.8-4.6z" fill="#eb472c"/><path d="m781.994 235.742c-3.183 3.291-13.4 8.652-13.4 14.1-1.2.2-2.3.7-3.3 1.3-1.602 1.202-1.611 2.974-2.8 4.4-2.437 2.437-4.426 2.656-5.1 6.7-2.345.503-3.17 2.37-4.7 3.9-5.547 6.933-8.623 15.341-13.8 22.4-.1-1.1-.5-2.2-1.3-3.1.8-.8 1.2-1.8 1.3-2.8 0-2.511.269-5.131-.217-7.616-.321-1.639-1.726-3.798-.883-5.484.584-2.338.073-4.607-1.4-6.5 1.684-3.368.259-11.365-1.7-14.5-.4-.4-.6-1.1-.3-1.6.5-1.5.3-3.2-.3-4.7 0-.467 0-.933 0-1.4l-.8.1-3.4.9-.8.1c0 .6.1 1.2.2 1.9-.97 1.455-.548 5.248-1.4 6.1-4.916 4.097-5.508 11.126-9.1 16.1-.802 1.403-.164 2.718-.7 4.2-.9 1.1-1.6 2.4-2.1 3.8-.594 2.277-1.438 4.448-1.772 6.784-.221 1.548.201 3.322-.728 4.716-1.139 2.777-4.186 10.72-2.1 13.5.714 1.191-1.272 3.048-1.5 4.3-.1 1.2 0 2.3.4 3.4.2.4.2.9-.1 1.3-1.242 2.278-1.474 4.765-.2 7.1-1.722 2.367-.726 6.128-.751 8.812-.028 2.961.146 6.087-.122 9.043-.376 4.14-2.665 9.796 1.174 13.044-1.733 2.6-1.494 5.907.5 8.3-1.602 2.746-1.059 5.821.8 8.3-1.827 2.088-.595 6.221-.3 8.8 4.35.658 14.725 1.66 18-2 1.2.5 2.6.6 3.8.1.775-.207 1.542-.44 2.3-.7h.5c9.539-8.145 18.069-17.462 24.996-27.934 3.36-5.081 5.961-10.526 8.823-15.888 1.942-3.639 5.618-8.737 3.882-13.077-.583-2.039 1.954-4.133 2.503-5.95.318-1.051-.019-2.299.297-3.35.349-1.163 1.496-1.875 1.7-3.1.823-3.129 1.027-6.419 1.902-9.64.988-3.636 1.131-7.528 1.498-11.26l-4.8 3.6c-1.883 1.883-4.067 3.527-6.4 4.8-.1 0-.1.1-.2.1-1.2 1-1.3 2.4-2.1 3-.5.3-1 .5-1.5.7 4.811-12.027 7.898-25.629 14.1-37 .9-2.2 1.7-4.5 2.4-6.8.1-.2.1-.4.1-.7l-2.2-.7 2.2.7c1.758-5.274 3.132-10.493 4.4-15.9z" fill="#eb472c"/><path d="m551.094 275.642c0-8.777-3.442-20.323-.3-28.8-1.427-.714-2.846-1.441-4.3-2.1-.1.1-.1.2-.2.3-2.715 4.654-4.484 9.791-7.001 14.549-1.684 3.183-4.844 7.54-3.499 11.351-2.1 1.4-3.6 3.6-3.5 5.6.3 1.5-.3 3.1-1.5 4.1-1.701 1.701-1.533 4.436-1.2 6.6-.4.3-.7.5-1 .9-.162-.901-.328-1.801-.5-2.7-.315-3.469-.456-6.877-1.2-10.3-.3-2.4-1.1-4.4-2.5-5.5 1.179-2.948.483-6.331-2-8.4 1.016-2.709.344-6.878-2.5-8.3 1.882-3.764-2.518-11.807-4.9-14.7-.2-.3-.4-.7-.4-1.1-.2-1.2-.6-2.4-1.1-3.5-.5-.7-1.1-1.3-1.8-1.9 0-.2 0-.5 0-.7l-.7.2c0-2.138-.236-4.269-.4-6.4-2.958 5.629-6.756 13.474-3.9 19.9.936 1.559-.826 3.471-.825 5.05.001 1.408 1.792 3.516.725 4.85-1.426 2.24-.306 4.157-.129 6.481.216 2.837-.838 5.513-1.069 8.32-.222 2.694.202 5.379.261 8.071.027 1.241-.137 2.51-.08 3.741.036.762 1.114 4.064.917 4.787-.1.6-.3 1.1-.4 1.6-.3-.4-.5-.8-.7-1.3-2-3.9-4.6-7.4-7.9-10.4-2.684-2.013-3.498-5.524-6.8-6.9-.5-.1-.9-.5-1-1-.4-1.2-1.1-2.3-2-3.3-1-.8-2.2-1.5-3.5-1.8-1.068-3.47-5.777-5.481-8.4-7.7 0 2.241-.495 4.258-.68 6.455-.151 1.796.914 3.613.68 5.245-.924 3.695-1.254 13.42 2.1 16-1.5 3.2-1.1 5.8 1.3 8.6-1.3 3.4-.9 5.5 1.6 8.6-.6.9-.8 2-.7 3.1.746 3.731 1.902 7.375 2.623 11.109.574 2.971.392 6.339 2.777 8.591-.5 1.2-.6 2.6-.2 3.9 2.134 10.312 6.152 20.6 12.26 29.22 2.955 4.171 6.503 7.87 10.65 10.876 5.055 3.663 10.264 4.397 16.09 6.104 1.816-3.431 3.534-6.858 4.9-10.5.6-1.2.8-2.5.6-3.8-.438-1.532 2.231-3.111 2.764-4.376.539-1.279-.429-4.291 1.036-5.024 2.696-2.157 3.363-7.772 4.73-10.891 2.106-4.807 2.503-10.142 4.67-14.909 0-.1 0-.1.1-.2.956-3.06 1.388-6.251 2.412-9.4 1.355-4.166 1.75-8.723 2.675-12.993 1.69-7.802 3.299-15.78 3.013-23.807-.1-.3-.2-.9-.1-1.5z" fill="#382d16"/><path d="m707.194 180.442c-.525-6.823.295-13.669.096-20.5-.219-7.532-.346-15.084-.636-22.611-.256-6.655-1.078-13.244-1.061-19.913.014-5.658.495-11.909-1.999-17.175-.5-.7-.5-1.7-.2-2.5 1-3.8.7-7.8-.9-11.4-.5-.7-.5-1.7-.2-2.5 1.291-4.907-.968-9.864-1.006-14.781-.043-5.518-.379-10.816-.894-16.319-5.741-.583-11.483-.397-17.2-1.3-9.245 0-18.386-1.363-27.765-1.634-10.753-.31-21.586-.47-32.326-.939-22.067-.962-43.955 1.073-66.009 1.073l.3 4.8c2.131-.032 4.272-.088 6.4-.2-.609 8.322-.435 16.678-1.353 24.98-.656 5.929-2.258 13.197.553 18.82-2.134 4.535-.885 9.162-1.05 13.938-.166 4.791-1.479 9.299-.15 14.062-2.641 5.282-2.011 11.634-2.016 17.34-.006 7.122-.56 14.228-.736 21.346-.171 6.879-.058 13.777-.529 20.645-.357 5.202-1.659 11.673 1.082 16.469-2 4.4-2.2 9.4-.4 13.9-2.1 4.3-2 10.6-.3 14-4.724 8.266 1.283 18.249-1.5 26.6-.9 4.9-.8 6.9.5 11.1-2.308 5.771-1.666 12.554-1.2 18.606.226 2.93.938 5.856.9 8.794-.048 3.733-.792 7.059.6 10.7.4.8.5 1.7.1 2.5-1.366 3.643-.315 8.085 2.4 10.8 5.051 4.209 10.633 6.489 17.056 7.701 6.519 1.23 15.325 3.903 21.844 2.599 4.831 0 9.842 2.096 14.766 2.421 4.283.283 9.209-.796 13.334.58 6.547.949 16.728 2.689 23 0 1.769-1.011 4.09.411 5.878.626 2.493.299 5.15-.177 7.522-.926.7-.3 1.5-.4 2.2-.2 4.294.781 7.898.627 12-1.1 7.114 1.581 20.2-2.237 20.2-11.2-.812-8.931 6.784-20.54 2.3-29.1 2.287-4.365 2.737-9.178 1.3-13.9 2.315-4.42 2.561-9.351 1.1-14.1 3.727-5.797 2.893-18.079 2.3-24.6-.1-.5-.1-1.1.1-1.6 1.113-3.711 1.095-7.832-.2-11.5 2.926-6.177 1.893-13.539 1.674-20.126-.269-8.094.677-16.191.125-24.276z" fill="#eb472c"/><path d="m721.294 244.242c0-7.254.268-14.447-.2-21.7 1.038-15.053.666-30.151.395-45.223-.263-14.669.119-29.3.202-43.966.171-30.298-.197-60.611-.197-90.911-16.827 0-33.656.014-50.482-.029-16.12-.041-32.54-.947-48.618.329-19.001-1.407-38.537-.4-57.6-.4 0 9.498-.258 19.024.5 28.5-.7 7.8-.7 15.7 0 23.5-.6 7.9-.6 15.8 0 23.7-1.227 10.634-.527 21.356-.412 32.027.112 10.356-.396 20.734.412 31.073-1.539 20.778-.575 41.625-.48 62.431.097 21.489.181 42.98.18 64.469 5.934-.005 11.867.221 17.8.2.001-83.101 0-166.2 0-249.3 40.43 0 80.872-.508 121.3-.3 0 13.154.188 26.31.055 39.464-.129 12.764-1.197 25.617.345 38.336-1.045 15.41-1.045 31.688 0 47.1-1.515 21.212-.425 42.488-.477 63.727-.052 21.221-1.053 42.484.577 63.673-.1.8-.1 1.5-.2 2.3v.5c5.866.206 11.637.127 17.5.1-.054-1.502-.185-3-.3-4.5.7-7.8.7-15.7 0-23.5 1.552-13.451.197-28.069-.3-41.6z" fill="#382d16"/><path d="m707.194 133.042c.357-13.566-.287-27.134-.021-40.7.235-11.953 1.974-24.328-.879-36.1.81-5.061 1.083-10.18.9-15.3h-3.8v.5c-1.4.2-2.9.4-4.4.7-7.1-1.5-17.3-1.2-22.5 0-10.017-2.53-20.391-1.042-30.549-.563-10.053.474-20.03-1.133-30.051.363-10.709-1.947-22.158-1.017-32.99-.734-5.189.135-10.222.093-15.406-.108-5.209-.202-10.434 1.417-15.604.843v-1h-3.5c-.272 8.173.693 16.309.332 24.496-.341 7.729-.695 15.4-.57 23.141.262 16.239.342 32.321-.11 48.554-.443 15.893.209 31.829.057 47.731-.072 7.564.182 15.102.38 22.661.21 8.009-.821 15.924.211 23.918v.1c.645 3.868-.413 7.805-.563 11.675-.156 4.028.169 8.141.763 12.125-1.369 9.584-.327 19.475-.575 29.125-.226 8.792-.07 17.771-.025 26.575h20c0-6.341.664-13.242-1-19.4 1.3-7.8 1.4-15.8.1-23.7 1.3-8.5 1.3-14.1 0-23.9 2.309-10.008 1.276-20.446 1.058-30.606-.237-11.023.684-22.132-.858-33.094 1.781-9.798 1.082-19.836.812-29.726-.276-10.126-.077-20.253.017-30.381.195-21.065-.229-42.129-.229-63.194 20.607 0 41.224.009 61.83.222 9.209.095 18.404-.186 27.613-.104 4.731.042 9.42-.772 14.152-.649 5.422.141 10.782 1.144 16.205.331v1.2c-1.852 20.373-.704 41.315-.333 61.744.194 10.713-.636 21.407-.381 32.146.245 10.327.434 20.655.537 30.984.425 42.677-.655 85.347-.523 128.025 6.4.361 12.791.5 19.2.5l.3.4v-.4h.3l-.2-.3c0-13.294-.273-26.591.008-39.884.269-12.742 1.501-25.662-.608-38.316 1.216-7.699.171-15.473.318-23.212.155-8.152.688-16.143-.217-24.288 2.913-16.994.262-35.213.799-52.4z" fill="#4f73b8"/><path d="m679.194 139.242c0-5.336.382-10.578-.3-15.9-.1-.4-.1-.9 0-1.3v-.1c.6-2.9.5-5.9-.4-8.8 1.569-4.706.874-10.206.785-15.081-.085-4.659.907-10.143-.585-14.619-.3-.6-.3-1.2 0-1.8.902-2.705.888-5.749.2-8.5-.2-.5-.2-1-.2-1.6.197-1.207.435-2.406.7-3.6-9.094-2.205-18.782 0-27.9 0-6.511-1.565-13.128.61-19.5-.3h-.4c-3.705-.363-7.56-.603-11.266-.216-1.881.196-5.441 1.492-7.234.416-2.7-.9-5.5-1-8.2-.1h-.1c-1.414.566-3.078-.403-4.481-.513-2.038-.16-3.969.041-5.919.713-2.423-.808-5.211-1.147-7.7-.4-.6.1-1.2.2-1.8.3-3.212 0-5.766-.89-9-.1l.3 1.4c0 6.36-2.597 17.725.8 23.5-1.3 3.5-1.3 7.3-.1 10.8-1.3 3.8-1.3 6.5 0 11-2.44 4.881-1.302 14.005-.6 19.2.1.4.1.8 0 1.1-.7 3-.5 6.1.4 9-2.719 6.798-.612 14.627-.599 21.693.016 8.691-.167 17.401-.245 26.094-.076 8.446.051 16.871.144 25.314.086 7.807-2.029 16.314.5 23.9.3.6.3 1.2 0 1.8-.9 2.9-.9 6.1 0 9 .3.6.3 1.2 0 1.8-1.203 3.609.2 6.519.2 10.1-1.297 6.486-.883 13.221-.5 19.8 2.624-.182 5.291-.291 7.9.1 3.254.122 6.298-.434 9.641-.126 3.684.339 7.419.012 11.11-.074 8.161-.19 16.334.099 24.496.137 16.385.076 32.768-.437 49.153-.437 0-6.287-.273-12.575-.092-18.861.172-5.993.909-12.134-.508-18.039.8-2.5 1-5.1.6-7.7-1.215-4.374.409-9.444-.5-14.1 1.676-4.189.933-9.001.842-13.384-.109-5.247.125-10.498.107-15.745-.018-5.102-.132-10.204-.075-15.306.054-4.807 1.01-10.289-.874-14.865 1.2-3.5 1.2-7.3 0-10.8 1.4-3.1 1.1-8.1 0-10.9v-.1c.8-1.401 1.1-2.601 1.2-3.801z" fill="#4f73b8"/><path d="m687.794 311.142c-.283-.593-.416-1.227-.4-1.9.931-2.793 1.676-9.716-.4-12 1.3-1.9 1.3-4.5 0-6.4 1.2-2.3 1.2-3.9 0-6.5.768-.96.935-2.303 1-3.5l-2-.3c-3.115 0-6.111-.436-9.2.3-1.616.808-3.642-.972-5.7.4-2.915-1.822-8.039-.782-11.295-.779-4.652.004-9.305-.003-13.957-.011-8.949-.016-17.898-.04-26.847-.01-.9-.1-1.8.1-2.6.7-.2.2-.3.2-.8 0-1.978-1.113-3.799.023-5.838.075-1.837.047-3.338-1.087-5.163-.175-.2.2-.5.3-.8.2l-.9-.2c-4.225-1.408-8.867.142-13.2-.4-.966.43-2.672.814-3.7.3-3.656-1.219-7.73-.557-11.492-.407-4.232.168-8.471-.014-12.707.063-9.245.168-18.454.261-27.701.144.014.799.049 1.757-.1 2.5-.275 4.405-.698 9.424-.3 13.8v1.9c-.2 1.6.1 3.2.9 4.6-1.489 2.233-.4 3.637-.4 5.9-7.044.503-14.419-.01-21.5-.1.014.799.049 1.757-.1 2.5-.275 4.405-.698 9.424-.3 13.8v1.9c-.2 1.6.1 3.2.9 4.6-.5.8-.8 1.6-1 2.5-9.201-.969-18.928.111-28.2 0 .014.799.049 1.757-.1 2.5-.275 4.405-.698 9.424-.3 13.8v1.9c-.2 1.6.1 3.2.9 4.6-1 1.5-1.2 3.3-.7 4.9.572 1 .457 2.279 0 3.3 2.614.703 4.418 1.341 7.1 0 .8.6 1.8 1 2.9.9 6.089 0 12.264-.298 18.341-.06 3.344.131 9.229 1.79 11.959-.94 1.8 1.3 4.2 1.3 6 0 1.8 1.3 4.3 1.3 6.1 0 .6.5 1.3.8 2.1.9 3.029 0 5.888.385 8.9-.3.2-.1.4-.1.6 0 1.6.7 3.4.5 4.9-.4 1.954 1.222 4.795.914 6.998.737 1.179-.095 3.788-1.113 4.802-.437 1.6.8 3.4.7 4.9-.2.749-.561 2 .606 2.731.619 1.284.023 2.469-.419 3.669-.819l.4.1c2.405 1.203 5.99.818 8.6.6 2.26-.424 5.569-.7 7.8-.7 2.677 1.155 7.547 1.318 10.3.4.4-.2.8-.2 1.2-.1h.2c3 .5 6.1.5 9.1.1.4-.1.7-.2 1-.5-.253.169 6.617.139 6.5.1 2.7-.6 5.5-.4 8 .6.6 0 1.2-.1 1.8-.4.3-.1.6-.2 1-.3 1.596 0 2.521.92 4.2.5l2-.7-.4-1.2c-.283-.593-.416-1.227-.4-1.9.931-2.793 1.676-9.716-.4-12 1.3-1.9 1.3-4.5 0-6.4.6-.9.9-2 .9-3.1 1.3 0 2.7-.1 4.2-.3.4-.1.7-.2 1-.5-.253.169 6.617.139 6.5.1 2.7-.6 5.5-.4 8 .6.6 0 1.2-.1 1.8-.4.3-.1.6-.2 1-.3 1.596 0 2.521.92 4.2.5l2-.7c-.318-.73-.617-1.688-.6-2.4.931-2.793 1.676-9.716-.4-12 1.3-1.9 1.3-4.5 0-6.4 1.2-2.3 1.2-3.9 0-6.5.1-.1.2-.3.3-.4 1.966.843 3.632-.656 5.3-.1 2.7-.6 5.5-.4 8 .6.6 0 1.2-.1 1.8-.4.3-.1.6-.2 1-.3 1.596 0 2.521.92 4.2.5l2-.7z" fill="#4f73b8"/><path d="m602.294 159.942c.1-.3.1-.7 0-1 0-.407-.002-1.402-.3-1.7-.161-.322-.8-2.057-.8-2.4-.1-.3-.2-.5-.3-.7l-.1-.1c-.22-.66-1.333-2.484-2.3-2 .11-.659-1.26-1.28-1.5-.8 0-.3 0-.5-.2-.6-.504-.117-1.004-.25-1.5-.4-.3-.2-.6-.2-.9-.1-.648.324-1.777-.515-2 .6-.386-.702-.653-.669-.8.1-.4-.7-.8-.4-.8.3-.1-.2-.3-.4-.4-.3-.2.067-.4.133-.6.2-.2.1-.4.3-.5.5 0 .1-.1.1-.1 0-.4-.1-.5 0-.5.6-.2-.1-.4-.2-.6-.1-.2.2-.5.4-.7.7-.1.1-.1.3 0 .4 0 .632-1.008-.113-.4.9.1.1.1.2-.1.1-.2 0-.4 0-.5.2-.1.1 0 .2.1.4.1.1.1.2.1.2-.3.1-.5.1-.6.4-.1.2-.3.5-.2.8.06.296-.007.563-.2.8-.105.209.1 1.676.1 2.1.1.1.1.1 0 .2-.2.4-.2 1 .1 1.4.163.007.23.074.2.2-.4.3-.3.5.1.7.1 0 .1 0 .1.1-.3.4-.2.6.3.7-.339.38-.272.647.2.8.1.1-.2.4-.1.5.1.2.5.1.5.3-.26.52.351 1.687 1 1.2-.033.233-.067.467-.1.7h.7v.7c.233-.033.467-.067.7-.1-.309.619.771 1.365 1.3 1.1h.1c.1.5.5.4.8 0 0 1.186 1.682.182 2.1.6.275.032.541-.001.8-.1.595-.595 2.486.027 3-1 .1-.1.2-.2.3-.3.2-.1.4-.2.6-.2.3-.1.5-.3.7-.5.094-.047.886-1.114.8-1.2.2.1.4.1.5-.1-.625.625 1.255-2.111.6-.8.2-.2.3-.5.4-.7.004-.307.137-.54.4-.7.142-.285.115-.431.3-.8.159-.457.226-.924.2-1.4-.1-.2-.1-.3-0-.4z" fill="#eb472c"/><path d="m594.094 168.342c-.1 0-.3 0-.4-.1-.1 0-.2-.1-.3-.1s-.2 0-.3 0c-.2 0-.4 0-.6 0l-.2-.1-.2-.1c-.2 0-.3-.2-.4-.3-.1.1-.3.1-.4.1-.2 0-.3-.2-.4-.3-.3.1-.5 0-.7-.1-.1-.1-.2-.1-.3-.2s-.1-.1-.2-.2-.2-.2-.2-.4c-.2.1-.4 0-.5-.1s-.2-.3-.2-.5c-.2.1-.4 0-.5-.1-.1-.2-.2-.4-.1-.5-.3 0-.5-.1-.6-.4-.1-.1-.1-.2-.2-.3l-.2-.2c-.1-.2-.1-.4-.1-.6-.2 0-.3-.1-.4-.3 0-.2 0-.3.1-.5-.3 0-.5-.3-.4-.6 0-.1 0-.2.1-.2-.1 0-.3-.2-.3-.3.2-.3.2-.6-.1-.8l-.1-.1c0-.2 0-.3.2-.5-.1 0-.1-.1-.1-.1-.3-.5-.4-1-.1-1.6-.1-.1-.2-.2-.2-.4 0-.3 0-.6 0-.8s.1-.4.3-.5c-.1-.1-.3-.3-.2-.5.1-.1.1-.2.1-.3s0-.2 0-.3c0-.2 0-.5.1-.7 0-.1.1-.1.1-.2.1-.2.3-.4.5-.4-.1-.2-.1-.4-.1-.6.3 0 .6-.3.5-.6 0-.1 0-.1-.1-.2.3 0 .6-.3.6-.6 0 0 0 0 0-.1.2-.3.5-.5.7-.7.1-.1.3-.1.5-.1 0-.1.1-.3.2-.4s.3-.2.5-.1c.1-.2.3-.4.5-.5.1 0 .2-.1.4-.1l.3-.1c.1 0 .3 0 .4.1.1-.2.2-.3.4-.4.2.2.6.2.8 0 .1-.1.1-.1.1-.2.2 0 .4.1.5.2.1-.2.4-.4.6-.3h.2c.2 0 .4 0 .6.1s.4.1.5 0c.4-.1.7-.1 1.1.1.2.1.3.1.5.1.3 0 .5.1.7.2l.2.1c.2.1.3.2.3.4.1-.1.2-.1.3-.1.2 0 .4.1.5.4v.1.1h.1c.1-.1.3-.1.5 0 0 .4.3.7.8.7h.1l.2.1.1.1c.1.1.2.2.3.4 0 .1.1.2.2.3s.2.2.3.2c.2.2.4.4.5.7l.1.2.1.1.1.1c.1.2.2.4.3.7 0 .2.1.5.3.7.2.3.4.6.3 1 0 .2 0 .4.1.6s.2.3.2.5 0 .4 0 .6v.3s0 .2.1.3c.1.4.1.8 0 1.1 0 .1-.1.2-.1.3s0 .2 0 .3c0 .3 0 .5-.1.8 0 .1-.1.2-.1.2-.3.1-.5.3-.4.6 0 .1.1.2.1.2v.1h-.1c-.1.1-.1.1-.2.2 0 .1-.1.2-.1.3 0 .2-.1.4-.3.6l-.1.2c-.1.2-.3.3-.6.3.1.2.1.4-.1.6-.1.1-.3.2-.5.2 0 .2 0 .4-.1.5s-.3.2-.5.1c0 .2-.1.4-.2.5l-.2.1c-.2.2-.4.3-.6.4-.1 0-.2.1-.3.1-.1.1-.2.1-.2.2-.2.3-.5.4-.9.5-.2 0-.4.1-.6.2-.3.2-.6.4-1 .3-.1 0-.2 0-.3 0s-.2.1-.3.1c-.2.1-.3.1-.5.2zm-.7-.6c.2 0 .4 0 .5.1h.3s.2-.1.3-.1c.3-.2.6-.2.9-.2.2 0 .5 0 .6-.2.2-.2.5-.3.8-.3.2 0 .4-.1.6-.3.1-.1.2-.2.4-.3.1-.1.3-.1.4-.2.2-.1.3-.1.4-.3l.2-.2s.1-.1 0-.3c-.1-.1-.1-.3 0-.4s.3-.1.4 0c.2.1.2.1.2 0 0 0 0-.1 0-.3-.1-.1-.1-.3 0-.4s.3-.1.4 0 .2 0 .2 0 0-.1-.1-.2-.1-.3 0-.4l.1-.1h.1.1c.1 0 .2 0 .3-.1 0-.1.1-.1.2-.2s.2-.3.2-.4c0-.2.1-.3.1-.5.1-.1.1-.3.3-.3 0 0 0-.1-.1-.1-.1-.1-.1-.3-.1-.4.1-.1.2-.2.3-.2h.1c0-.1 0-.2.1-.3.1-.2.1-.4.1-.6 0-.1 0-.3 0-.4s.1-.3.1-.4c.1-.2.1-.5 0-.8-.1-.1-.1-.3-.1-.4s0-.3 0-.4 0-.3 0-.4-.1-.2-.1-.4c-.2-.3-.3-.6-.2-.9 0-.2-.1-.5-.2-.7-.2-.3-.4-.6-.4-.9 0-.2-.1-.3-.2-.5l-.1-.2-.2-.2.1-.1c-.1-.2-.2-.4-.4-.5-.1-.1-.2-.2-.3-.3s-.2-.3-.2-.4-.1-.2-.2-.2l-.1-.1-.2-.2c-.1-.1-.2-.2-.5 0l-.5.4.1-.6c0-.2 0-.3 0-.5-.1.1-.3.1-.5.1-.1-.1-.2-.3-.2-.5 0 0 0 0 0-.1-.1.1-.3.2-.4.2l-.4.3v-.5c0-.3 0-.4-.1-.4l-.2-.1c-.2-.1-.3-.1-.5-.1-.3 0-.6 0-.8-.2-.2-.1-.5-.2-.7-.1-.3.1-.6.1-.9-.1-.1 0-.2 0-.3 0s-.2 0-.3 0-.2 0-.3.4l-.1.6-.3-.5c-.2-.3-.3-.3-.3-.3-.1.1-.1.3-.1.4l-.1.6-.3-.5c-.2-.3-.3-.3-.3-.3s-.1.1-.1.4v.6l-.4-.5c-.1-.1-.1-.2-.2-.2l-.3.1-.3.1c-.2.1-.3.2-.3.4s-.2.2-.3.2c-.2 0-.2 0-.2 0v.4.4l-.4-.2c-.3-.1-.3-.1-.3-.1-.2.2-.4.4-.7.7v.2c.1.1.1.2 0 .3s-.2.1-.3.1-.2 0-.2 0 0 .1.1.3c.1.1.1.3 0 .4s-.2.1-.4.1-.2 0-.2.1c0 .1 0 .1.1.2v.1c.1.1.1.2.1.4v.1h-.1c-.2.1-.4.1-.4.2s-.1.2-.1.3c-.1.1-.1.3-.1.4v.5c0 .1-.1.3-.1.4l.1.1c.1.1.2.2.2.3s0 .2-.1.2l-.1.1c-.1.1-.2.2-.2.2v.8.1c.2.1.2.3.2.4v.1c-.2.4-.1.8.1 1.2h.1c.2 0 .3.1.3.2s-.1.2-.2.3c-.2.1-.2.2-.2.2.1.1.1.1.2.1.2 0 .3.2.2.3 0 0 0 .1-.1.1-.1.2-.1.2-.1.3.1.1.2.1.3.1l.4.1-.3.3c-.1.1-.2.2-.2.3h.1c.1 0 .2.1.3.2s0 .3 0 .5v.1h.1c.1 0 .3.1.3.2v.3c-.1.2 0 .3 0 .4l.1.2c.1.1.1.2.2.3s.1.2.5.1l.6-.3-.3.6c-.1.3-.1.5-.1.5.1 0 .3 0 .4-.1l.4-.2-.1.4c-.1.3 0 .4 0 .5.1 0 .3-.1.4-.1l.4-.2-.1.5v.3l.2.2c.1.1.2.1.3.2s.3.1.5.1h.2c.1 0 .1.1.1.2s.1.2.1.2.1 0 .3-.2l.3-.4.1.5c0 .2.1.3.1.3l.3.1h.2.3c.3-.3.5-.3.7-.2z" fill="#eb472c"/><g fill="#382d16"><path d="m721.694 349.742c-.696-11.142 2.131-23.26-.3-34.2-1.189-3.569 0-9.383 0-13.1 1.747-6.988.3-15.172.3-22.3-14.937 0-29.861 0-44.8 0l-.3-.3c.039 6.264-1.63 14.652.2 20.6-.5 1.4-.6 3-.4 4.5.3 1 .3 2 0 3-.2 1.4-.2 2.7.2 4.1-4.179-.836-8.845.073-13.1-.2.035 4.595-.456 9.436 0 14 0 1.917-.205 3.968.5 5.8-.6 1.9-.6 4 0 5.9-.1.4-.2.7-.3 1.1-.9 0-1.8.2-2.6.5-2.584-1.292-7.477-.45-10.1-.2-.2 0-.5 0-.7 0-1.5-.3-3.1-.3-4.5.2-2.733-1.025-7.269-.672-10.1-.2l-1 .3c.97 3.514.4 9.103.4 12.8-1.127 4.593.004 9.531-.5 14.2 2.158.318 4.55.119 6.8.4 2.195 0 5.586-.629 7.7-.1 2.698.198 6.841.786 9.5-.1 2.977-1.488 7.837 1.02 11.1 0 2.237.839 5.567.299 7.938.448 3.094.195 6.167-.048 9.262-.048 3.1-.6 6.2-.8 9.3-.5 1.8.7 3.8.7 5.7 0 .6.3 1.3.5 2 .4 2.676 0 5.332.081 8-.2h.6c1.6.4 3.2.3 4.7-.2 1.255.471 2.675.435 4 .4 0-3.757-.221-7.551 0-11.3.6-1.9.6-3.8.5-5.7z"/><path d="m296.294 329.642c-1.2.5-2.2 1.3-3 2.3-3.584-.827-11.374 3.018-13.3 6.1-.74 1.849-3.673 1.633-5.057 2.722-.579.456-.687 1.461-1.208 1.866-1.194.928-2.532.953-3.735 1.812 0-.3.1-.5.1-.8.691-7.601 5.988-15.987 4.9-23.6-.713-2.496 1.36-5.569 1.891-7.961.764-3.438.74-7.043 1.009-10.539-2.251 2.251-3.931 5.082-6.327 7.183-1.905 1.671-4.942 2.456-5.873 5.017-.1.5-.4.9-.9 1-1.2.4-2.2 1.1-3.1 2-.8 1-1.3 2.1-1.5 3.4-3.088.95-3.432 3.153-4.9 5.6-.4.5-.9.9-1.4 1.1-.7.4-1.2.9-1.7 1.4-.968 1.162-.737 2.696-1.7 3.9-2.75 1.904-4.233 5.121-5.9 7.9-.2-.3-.5-.6-.8-.9.6-1.3.8-2.8.6-4.2-.4-1.5-1.2-2.9-2.3-3.9 2.116-3.174-1.41-11.195-3.4-14-1.986-1.986-.206-5.084-3.4-7 .48-2.879-1.11-5.027-2.1-7.6-1.693-3.386-3.972-6.531-5.9-9.8-3.136 8.232-6.769 16.319-9.192 24.804-2.381 8.338-3.152 17.086-6.008 25.296-.3 1.2-.6 2.4-.7 3.6-.2 1.1-.3 2.1-.4 3.2-.742-.445-.387-2.237-.5-2.8-.487-1.462-1.739-1.982-2.519-3.143-1.134-1.687-1.42-3.344-2.256-5.152-1.681-3.634-4.686-6.107-6.725-9.506-.7-.9-1.3-1.9-1.8-2.9 0-.1-.1-.1-.1-.2-3.961-5.281-8.716-10.392-13.6-14.9-.155 3.791.188 8.274-.9 11.9-.067.333-.133.667-.2 1 0 3.639.371 6.978.7 10.6 2.587 14.228 6.785 26.985 17.3 37.5l1.7-1.6c-1.009 2.168-1.95 4.356-3.2 6.4.2.2.5.3.7.5 5.695 3.466 13.076 6.864 19.5 8.7.5.2 1 .3 1.6.5.5.1 1 .2 1.5.2.9.1 1.8-.2 2.6-.6 2.888 3.227 4.866 1.5 8.3 1.5 2.704.386 3.974 1.363 6.7 0 .3-.2.6-.3.8-.5.3-.2.6-.4.8-.6 1.289.745 2.916.819 4.3.3 11.692-3.031 22.679-12.879 31-21.2.837-1.116 1.7-2.222 1.7-3.7 3.4-.8 5.1-2.8 5.3-6.2 2.944-.736 5.12-3.524 4.9-6.6 5.359-1.072 6.27-9.555 8.7-13.2 2.077-2.077 3.148-5.299 4.4-7.9z"/><path d="m745.094 361.542c-2.921 2.446-5.778 5.102-9.1 7-.5.2-.8.4-1.2.7-.1.1-.2.1-.2.2-.2.1-.3.2-.5.4-3.899 2.924-6.587 6.994-10.751 9.627-4.864 3.076-9.849 5.967-14.706 9.064-9.418 6.005-19.871 11.212-31.043 12.808-8.604 5.449-18.882 7.14-28.545 9.792-10.468 2.872-21.269 6.278-32.255 4.708-5.1 2.5-15.7 3.9-23 2.4-7.488 2.365-15.229 2.497-22.9 1-9.275 3.445-19.368 2.541-29.06 2.453-10.869-.099-21.725.54-32.589.75-10.842.209-21.688-.111-32.527.292-10.369.385-20.948 1.444-31.125-1.195-7.669 1.404-15.39.52-23.117.421-7.67-.099-15.557 1.195-23.083-.821-7.775 2.666-16.338 1.455-24.376 1.251-8.884-.225-17.761-.571-26.649-.572-17.623-.002-35.243-.615-52.866-.567-17.39.047-34.514.444-51.912-.335-17.778-.796-35.402-3.107-53.097-4.877-24.36-4.872-49.443-11.463-72.6-20.5-.2-.1-.4-.1-.5-.2-3.96-1.912-8.069-3.534-12-5.5-9.056-3.019-16.971-10.335-25.5-14.6-.111.015-.211-.018-.3-.1v-.1l.1-.2c0-.446.525-1.575.1-2l-1.6-2 .3-.1c4.714-2.269 9.685-4.281 14.624-6.007 4.846-1.694 9.5-1.686 14.542-2.132 4.982-.44 9.747-2.2 14.763-2.323 4.999-.122 9.905.777 14.921.457 11.147-.71 22.171-.323 33.33-.372 10.815-.048 21.582-1.193 32.387-1.514 23.163-.689 46.349-1.787 69.527-1.669 11.708.06 23.417.484 35.125.309 10.606-.158 21.478-1.347 31.882 1.35 10.277-2.429 20.945-.906 31.377-1.118 10.234-.208 20.765-1.626 30.723 1.518 9.6-1.8 15.1-1.8 23.3.1 8.3-1.8 15.2-1.7 23.1.3 6.668-2.501 14.14-1.599 21.084-1.252 7.378.369 14.732 1.095 22.124 1.119 6.902.022 13.774.002 20.674.213 7.304.223 14.802-1.026 22.018.521 8.732-1.455 17.656-.173 26.448-.515 8.481-.33 16.922.458 25.402.224 17.876-.492 35.755.36 53.632.42 16.623.056 33.309-.066 49.93.249 8.654.164 17.289.605 25.927 1.121 9.191.549 18.393-.742 27.561.001z"/></g></svg>