<svg height="763" viewBox="0 0 1009.258 762.85" width="1010" xmlns="http://www.w3.org/2000/svg"><path d="m1004.2 390.759c-.83-13.86-1.8-25.88-2.5-39.71-.71-12.15-2.43-25.591-3.91-38.4q-.559-4.851-1.18-9.281c-.21-1.49-.42-2.9-.65-4.29s-.47-2.76-.71-4.06a84.8 84.8 0 0 0 -3.41-13.19 138.562 138.562 0 0 0 -1.48-15.75c-.63-3.64-1.35-7.239-2.14-10.63a78.7 78.7 0 0 0 -2.68-9.39 160.732 160.732 0 0 1 -6.83-23.57c-2.11-9.31-6.76-21-14.26-34a82.09 82.09 0 0 0 -3.09-9.13 112.687 112.687 0 0 0 -5.66-12c-3.75-7-7.87-13.91-12.18-20.62l-3.3-5-3.43-4.83c-2.27-3.2-4.65-6.26-7-9.22-2.09-2.58-4.14-5-6.18-7.43s-4.12-4.67-6.14-7l-3-3.5c-1-1.16-2.11-2.28-3.18-3.44-2.15-2.29-4.27-4.71-6.57-7.1a253.3 253.3 0 0 0 -36.53-31.71c-2.68-1.9-5.31-3.66-7.85-5.43-1.28-.87-2.52-1.78-3.79-2.62l-3.82-2.5-3.8-2.519c-1.27-.85-2.53-1.72-3.86-2.52-2.63-1.65-5.3-3.35-8.07-5.14a306.908 306.908 0 0 0 -34.4-17.851c-3.13-1.4-6.2-2.64-9.1-3.839-1.46-.58-2.86-1.19-4.27-1.661l-4.19-1.4c-2.64-.87-5.11-1.63-7.39-2.24a43.205 43.205 0 0 0 -6.26-1.21c-1.94-.94-3.86-1.84-5.78-2.69s-3.87-1.53-5.79-2.23-3.84-1.38-5.75-2-3.85-1.15-5.78-1.64a116.46 116.46 0 0 0 -23.69-3.5 114.3 114.3 0 0 0 -25.28-5.09c-4.43-.4-8.77-.5-12.72-.54a89.979 89.979 0 0 0 -10.4.7c-1.07-.2-2.17-.44-3.32-.61s-2.38-.34-3.7-.49a70.328 70.328 0 0 0 -9.38-.48c-11.75.15-23.65.86-35.39 2.12a244.542 244.542 0 0 0 -34.21 6.272 49.772 49.772 0 0 1 -6.29 1.32c-4.29.66-7.88 1.44-11.11 2.15-1.61.36-3.14.71-4.6 1.06s-2.84.79-4.21 1.19c-2.73.83-5.36 1.67-8.14 2.71s-5.69 2.29-9 3.72c-3 .58-5.9 1.3-9.26 2.17a114.723 114.723 0 0 0 -11.49 3.72q-22.809 8.589-44.64 19.31c-2.71 1.27-5.16 2.64-7.41 3.91s-4.26 2.48-6 3.63a41.965 41.965 0 0 1 -8.52 4.67 141.867 141.867 0 0 0 -32 19.23 26.947 26.947 0 0 1 -7.28 4.68c-1.12.52-2.33 1.12-3.63 1.83s-2.65 1.52-4.09 2.4c-2.88 1.76-6.08 3.79-9.43 6.16-2.32 1.62-4.51 3.26-6.51 4.85s-3.79 3.18-5.41 4.6c-3.25 2.8-5.66 5.09-7.16 6.07l-5.4 3.51c-1.76 1.16-3.49 2.37-5.28 3.63s-3.64 2.58-5.59 4.07-4 3.13-6.2 5c-2.74 2.23-5.45 4.58-8.21 6.88s-5.48 4.67-8.16 7c-5.35 4.73-10.66 9.34-15.3 14-4.92 4.89-9.7 9.31-14.26 13.8-2.3 2.22-4.61 4.41-6.94 6.6l-3.51 3.28-3.51 3.37a105.785 105.785 0 0 0 -8.75 9.59 79.454 79.454 0 0 1 -6.81 7.73l-8.71 8.1c-2.87 2.78-5.81 5.78-9.15 9.4-4.81 5.16-9.5 10.44-14.23 15.68s-9.38 10.55-14.05 15.84a130.982 130.982 0 0 0 -8.61 10.54 80.715 80.715 0 0 1 -8 9.37c-16.08 17.42-31.52 36.24-46.53 55.09a59.364 59.364 0 0 0 -4.13 6 25 25 0 0 1 -5 6.07 189.565 189.565 0 0 0 -24.63 29.07 36.329 36.329 0 0 1 -5 5.95c-5.85 5.91-10.18 10.41-14.2 15.14s-7.74 9.68-12.5 16.39a199.733 199.733 0 0 0 -15.14 15.31c-6.38 7.08-9.53 12-14.06 17.27-2.17 2.53-4.55 4.83-7.21 7.41s-5.64 5.42-8.9 9.16c-7 8-10 14.05-14.88 19.41a185.7 185.7 0 0 0 -16.64 21.11c-3 4.39-5.77 8.83-8.51 13.43-1.36 2.31-2.58 4.62-3.88 6.93s-2.6 4.59-3.77 7c-6.13 12-9.77 23.11-10.43 30a90.846 90.846 0 0 0 -4.42 11.51c-.62 1.92-1.08 3.86-1.57 5.8a45.222 45.222 0 0 0 -.99 5.81 81.923 81.923 0 0 0 0 25 79.688 79.688 0 0 0 -.2 12.34 62.089 62.089 0 0 0 1.78 11.45 67.2 67.2 0 0 0 3.72 11.56 97.83 97.83 0 0 0 6.48 12.41c.29 1 .6 2 1 3.11s.85 2.3 1.41 3.58a57.3 57.3 0 0 0 4.61 8.55c12.78 19.58 30.64 36.65 50.37 47.43a38.841 38.841 0 0 1 4.67 2.89 99.025 99.025 0 0 0 9.46 5.92c3.18 1.68 6.3 3.24 9.39 4.59s6.16 2.4 9.15 3.37 6 1.63 8.83 2.3a91.037 91.037 0 0 0 19.67 7c3.77.9 7.55 1.75 11.38 2.51 1.91.39 3.85.75 5.79 1.1l2.86.49 1.46.24.73.12.37.06h.07l.28-1.14v1.18a225.512 225.512 0 0 0 25.09 2.52l5.18.23 5 .16 5 .14 4.88.1c6.49.11 12.95.16 19.85.11 7.4-.051 15.18-.36 22.94-.9s15.48-1.329 22.77-2.2c14.06-1.719 26.18-3.27 40.29-4.65 14.44-1.45 30.91-3.53 45.19-5.49 3.56-.48 7-.89 10.38-1.28 1.74-.2 3.25-.37 5-.53l5-.47c6.63-.55 13.2-1 20.21-1.22 7.19-.29 14.65-.47 22.15-.57s14.92-.06 22 .07a259.508 259.508 0 0 1 41.54 4.14l10.25 1.781 5.31 1 5.32 1.06 10.72 2.12c3.57.72 7.15 1.37 10.67 2.2 2.85.63 5.58 1.23 8.15 1.75l3.71.71c1.18.21 2.36.42 3.31.55h.21a.424.424 0 0 1 -.14-.06l.211.06c2 .32 3.75.54 5.31.67a26.208 26.208 0 0 1 8.369 2 170.837 170.837 0 0 0 38.56 9.09 27.767 27.767 0 0 1 8.461 1.93c.919.34 1.93.68 3 1l1.669.51.9.26 1 .25h-.2c3.789 1.05 8.14 2 13 3 3.719.73 7.18 1.18 10.31 1.5h.419c2.91.27 5.54.44 7.79.6h.1a45.9 45.9 0 0 1 5.929.63c4.17.87 8 1.65 12 2.36 2 .36 4.2.68 6.5 1s4.86.55 7.581.72l2.43.17 2.43.14c1.65.1 3.14.19 4.82.25 3.28.14 6.489.23 9.739.28 6.521.09 12.86-.11 19.071-.47h.12l1-.26a2.5 2.5 0 0 1 -.9.25h.031l3.78-.31 7-.68c2.32-.23 4.58-.49 6.84-.77l3.39-.41 3.33-.45 6.47-.89h.18l12.86-1.92c.36-.051.79-.15 1.19-.22a79.791 79.791 0 0 0 11.09-3c3.12-1.06 5.87-2 8.78-2.7 6.64-1.78 12.12-2.1 21.23-5.22l2.88-1 2.91-1 2.87-1 2.88-1.07q2.919-1.09 5.74-2.2l5.7-2.31c1.89-.79 3.77-1.59 5.59-2.41s3.74-1.69 5.49-2.52l1.41-.67 1.33-.68 2.65-1.36 5.22-2.72 4.23-2.22-1.2-2.27 1.21 2.25c2.76-1.53 5.45-3 8-4.55l3.92-2.25 2-1.15 1-.58.49-.29a5.861 5.861 0 0 0 .52-.33c2-1.18 4-2.38 6-3.63s4.14-2.56 6.26-3.9a225.155 225.155 0 0 0 19.72-14 228.883 228.883 0 0 0 18.32-15.89c4.88-4.72 9.29-9.22 13.63-13.79 2.13-2.29 4.37-4.55 6.51-7q1.61-1.74 3.24-3.6 1.65-1.83 3.3-3.76a229.974 229.974 0 0 0 14.62-18.67 220.519 220.519 0 0 0 12.469-19.93c7-12.78 12.581-24 18.281-36.95a246.253 246.253 0 0 0 13.78-41.3c3.53-15.13 6.33-28.73 8.8-43.75 1.11-6.77 2-13.8 2.62-20.89s1-14.27 1.42-21.34c.08-1.35.07-2.6.13-3.87l-2.66-.12 2.66.12c.1-1.65.21-3.38.28-5.19a434.31 434.31 0 0 0 -.03-47.182z" fill="#f1c517"/><path d="m1005.779 411.289-1.3-37.14c-.36-11.36-1.66-24-2.79-35.94s-2.65-22.25-4.85-28.87c.06-3.13 0-6.43-.13-9.72v-1.09l-1.25-.68a40.673 40.673 0 0 0 -24.54-4.59c-4.7.65-8.13 1.36-11.57 1.94l-11.39 2c-1.13.16-2.25.48-3.43.77s-2.39.62-3.63 1a71.8 71.8 0 0 0 -7.69 3.06 89.454 89.454 0 0 0 -16.55 10 69.534 69.534 0 0 0 -18.409 11.06 169.1 169.1 0 0 0 -16.56 15.26 153.284 153.284 0 0 0 -13.95 17c-7.16 10.12-12.9 19-20.131 28.93-4.25 5.79-8.729 11.85-13.52 17.58a143.427 143.427 0 0 1 -15.13 15.88 85.544 85.544 0 0 1 -13.59 10 63.045 63.045 0 0 1 -15.41 6.56 65.44 65.44 0 0 1 -16.63 2.39 68.145 68.145 0 0 1 -17.37-2.38c-6-1.57-11.51-3.43-16.44-4.88a78.463 78.463 0 0 0 -12.79-3 60.968 60.968 0 0 0 -22.43-6.4l-2.89-.16-2.9.14a26.227 26.227 0 0 0 -2.88.25l-2.86.49a25.143 25.143 0 0 0 -2.81.69c-.92.28-1.86.49-2.76.85a43.369 43.369 0 0 0 -5.31 2.31 43.615 43.615 0 0 0 -11.25 3.72 61.559 61.559 0 0 0 -10.85 6.71 67.84 67.84 0 0 0 -15 15.82 64.061 64.061 0 0 0 -11.2 10.59c-7 8.39-14 16.9-21.42 24.64a123 123 0 0 1 -24.16 20 25.449 25.449 0 0 1 -5.24 2.43c-1.82.7-3.54 1.15-5.13 1.62-.8.23-1.58.36-2.33.54a21.649 21.649 0 0 1 -2.19.44l-2.08.34c-.68.09-1.34.13-2 .21-1.29.19-2.54.16-3.77.25a50.972 50.972 0 0 1 -7.41-.36c-1.3-.11-2.61-.4-4-.64a32.764 32.764 0 0 1 -4.46-1.16c-1.19-.65-2.3-1.45-3.49-2.2s-2.36-1.63-3.59-2.59c-2.49-1.86-5.25-4-8.56-6.73-5.69-4.68-11.06-9.87-16.51-15.07a223.815 223.815 0 0 0 -17.09-15.19 46.164 46.164 0 0 0 -13-7c-1.58-.48-2.75-.93-4.08-1.34-.66-.22-1.34-.48-2.1-.79l-2.66-1a42.749 42.749 0 0 0 -18.72-2.28 49.993 49.993 0 0 0 -16.49 4.62c-1.77.81-2.94 1.36-4.05 1.76a36.347 36.347 0 0 1 -3.64 1c-4.53 1.06-10.63 3.53-17.49 7a128.207 128.207 0 0 0 -12.23 7.17 63.706 63.706 0 0 1 -7.47 4.5c-3.8 1.55-7.3 2.92-11.06 4.29-1.88.64-3.82 1.33-5.89 2.11s-4.39 1.32-6.86 2.14c-12.31 3.64-26 4.27-38 4-1.58 0-3.14-.17-4.67-.26s-3.06-.18-4.56-.38l-4.44-.61c-1.47-.2-2.93-.41-4.37-.73-2.87-.61-5.75-1.11-8.57-1.93l-4.2-1.21c-1.43-.38-2.83-.9-4.25-1.35-4.46-1.39-8.15-2.41-11.51-3.18a50.762 50.762 0 0 1 -9-3c-3.39-1.72-6.5-3.31-9.71-5.12s-6.62-3.65-10.66-5.73c-11.51-6.13-22.66-13-33.65-20.15-3.91-2.56-7.8-5-10.81-6.61a68.952 68.952 0 0 1 -9.6-6.34c-8.94-6.51-18.2-12.87-27.82-18.83-2.41-1.48-4.81-3-7.28-4.38s-4.9-2.86-7.41-4.2l-3.74-2c-1.27-.67-2.58-1.32-3.88-2a80.717 80.717 0 0 0 -8.05-3.29 31.6 31.6 0 0 0 -6.82-1.51 34.838 34.838 0 0 1 -7.38-1.54 47.265 47.265 0 0 0 -22.48-.77l-1 .21-.58.69c-2.75 3.27-5.51 6.82-8.49 10.87a30.368 30.368 0 0 1 -4.77 5.43c-11.33 10.62-16.58 16.45-25.48 29a128 128 0 0 0 -14 14.6c-5.69 6.91-8.27 11.76-12.05 17-3.63 5.08-8.08 9.42-13.21 17.21a65.114 65.114 0 0 0 -3.42 5.99l-1.39 2.68-1.21 2.57c-.76 1.67-1.52 3.22-2.26 4.74a44.727 44.727 0 0 1 -2.39 4.44 127.713 127.713 0 0 0 -11 22.71 175.589 175.589 0 0 0 -7.78 28.74l-.76 4.58c-.21 1.5-.34 3-.49 4.43-.2 1.66-.3 3.27-.36 4.83a3.948 3.948 0 0 0 -.13.62v.28l-.18 1.83c-.07 1.21-.14 2.38-.15 3.55a62.777 62.777 0 0 0 1.5 14.31c-.06 2.33 0 4.63.08 6.9a77.029 77.029 0 0 0 1.69 11.13 70.133 70.133 0 0 0 6.93 17.66c.55 1.46 1.07 3 1.6 4.62.45 1.32 1 2.7 1.6 4.16.27.66.72 1.62 1 2.3s.79 1.55 1.22 2.36a46.388 46.388 0 0 0 2.69 4.26c1.16 2.1 2.41 4.13 3.78 6.12a80.522 80.522 0 0 0 7.86 9.58 86.3 86.3 0 0 0 9 10.57c2.81 2.8 5.64 5.45 8.65 8.09 1.48 1.3 3 2.54 4.5 3.8l4.62 3.66c2 1.55 3.9 2.94 5.8 4.23q1.431 1 2.8 1.83c.93.55 1.84 1.06 2.72 1.54a48.22 48.22 0 0 0 9.12 4.09 67.37 67.37 0 0 0 32.71 15.2 68.763 68.763 0 0 0 8.21 4 63.748 63.748 0 0 0 8 2.71 88.283 88.283 0 0 0 19 2.7 42.678 42.678 0 0 0 4.17 1.62c.78.26 1.61.51 2.57.75l1.47.35.77.17.4.08h.12l.23-.91v1q1 .18 2.12.34c8.46 1.17 17.14 2.28 25.69 2.77l3.27.21 3.15.13 1.55.05h4.86c4.24 0 8.44-.13 12.56-.44a22 22 0 0 1 4-.06 91.911 91.911 0 0 0 29.59-1.92 71.945 71.945 0 0 0 15.4.09c11.91-1 24.3-2.16 35.5-3.9 5.13-.81 9.88-1.47 14.63-2s9.45-1.1 14.53-1.57c2.71-.26 5.48-.55 8.28-.86l8.51-1c5.67-.66 11.33-1.43 16.71-2.14 2.59-.35 5.09-.67 7.55-1l1.76-.2 1.84-.19 3.66-.36c4.83-.43 9.73-.74 14.92-.92l33.51-1.26c5.29-.2 10.2-.18 15.1 0l3.68.17 3.69.27c2.47.2 5 .37 7.53.66l8.05.88 8.22 1 8.17 1c2.72.36 5.44.69 8.07 1 10.82 1.07 20.35 1.94 30.85 3.8 5 .89 10.21 1.79 15.39 2.91a108.234 108.234 0 0 1 15.18 4.41c.81.32 1.62.59 2.39.91l2.25.94 4.2 1.71.4.17h.1a45.589 45.589 0 0 0 5.86.65 14.466 14.466 0 0 1 6.2 1.48 93.352 93.352 0 0 0 28.58 6.63 14.913 14.913 0 0 1 6.26 1.4c.531.22 1.08.44 1.68.66l.95.33 1.12.32h-.19a103.75 103.75 0 0 0 10.781 2.68 84.069 84.069 0 0 0 12.62 1.37h-.011a32.385 32.385 0 0 1 5.54.55l2.55.64h.051a111.413 111.413 0 0 0 16.56 3.25l7.88.82c2.65.26 5.32.49 7.9.68l2 .15 2 .12c1.34.08 2.61.15 3.88.2q3.96.135 7.73.11c7.849-.08 15.17-.41 22.58-.58h.16l.84-.22a2.229 2.229 0 0 1 -.68.21h-.08l7.07-.22a3.949 3.949 0 0 0 .89-.07c6.72-.47 10.71-2.14 15.08-2.63 2.72-.31 5.16-.34 8-.47h-.03c1.18-.06 2.42-.15 3.78-.28a9 9 0 0 0 1.1-.12l1.07-.15c.73-.11 1.49-.23 2.29-.38 2.93-.54 5.91-1 8.88-1.69l4.43-.93 4.42-1c2.94-.72 5.88-1.37 8.74-2.16s5.69-1.63 8.44-2.5c9.26-3.06 17.06-5.73 26.34-9 5.34-1.89 11.09-4.17 16.58-6.68 1.42-.64 2.74-1.26 4.12-1.91s2.72-1.39 4.08-2.08q2.559-1.33 5-2.65c1.61-.83 3.22-1.65 4.79-2.48l.13-.07h.05l.82-.46 3.89-2.22.59-.35 5.22-3.06 1.67-1 1.5-.87 1-.57.49-.29c.15-.1.21-.11.51-.31l3.41-2 3.5-2.09a208.937 208.937 0 0 0 19.839-13.24l.12-.09.07-.06.1-.09a232.649 232.649 0 0 0 23.69-20c2.69-2.61 5.23-5.14 7.7-7.651 1.84-1.64 3.69-3.37 5.52-5.159l2.89-2.93 1.42-1.51.71-.76c.24-.261.44-.48.75-.841 1-1.2 1.77-2.31 2.58-3.44l.09-.13c1.1-1.23 2.2-2.48 3.3-3.77l3.55-4.08c1.19-1.38 2.42-2.76 3.53-4.25l6.831-8.91c4.28-6.17 8.5-12.34 11.88-18.46l2.53-4.33c.83-1.42 1.55-2.88 2.33-4.29l4.55-8.33 4.25-8.41c.7-1.42 1.5-2.81 2.15-4.28l2.07-4.44 2.11-4.53c.35-.77.72-1.53 1-2.31l1-2.37 3.82-9.62c1.13-3.27 2.23-6.54 3.29-9.77l.79-2.41c.25-.8.46-1.61.69-2.41l1.3-4.74c3.719-14 6.859-26.61 9.59-40.56a344.286 344.286 0 0 0 5.18-39.28c.11-1.26.14-2.43.23-3.61q.219-2.309.419-4.84a422.633 422.633 0 0 0 1.17-44.079z" fill="#382d15"/><path d="m883.809 594.559a18.557 18.557 0 0 0 -.16-2.08 26.7 26.7 0 0 0 -.82-4c-.26-.95-.54-1.68-.75-2.43a17.6 17.6 0 0 0 -2.18.84 8.946 8.946 0 0 0 -2.37 1.68c-.18.18-.36.36-.52.54l-.22.26-.13.16-.52.63-1 1.27c-.71.84-1.37 1.73-2.05 2.59-1.35 1.75-2.65 3.54-3.88 5.36a85.194 85.194 0 0 0 -6.47 11.2c-1.66 3.48-3.08 6.77-4.44 10.09l-.14.34c0-.63-.06-1.27-.1-1.89a77.122 77.122 0 0 0 -1-9.71 29.467 29.467 0 0 0 -2.18-7.2c.79-6.66 0-14.47-2.09-19.75a38.174 38.174 0 0 1 -3.13-13c-.49-5.25-2.93-11.68-7.08-18.84a35.918 35.918 0 0 0 -.8-5.27 50.321 50.321 0 0 0 -2.3-6.86l-2.32-5.46-2-4.67-2.9 4.26a123.258 123.258 0 0 0 -10 17.3c-3 6.61-5.54 12.33-8.33 19.06a115.1 115.1 0 0 0 -6.34 20.77 154.37 154.37 0 0 0 -4.93-16.39c-2.46-7.13-5.42-12.88-8.42-15.91a41.165 41.165 0 0 0 -13.46-22.7 40.487 40.487 0 0 0 -7.26-11.91l-2.65-3.15-1.9 3.58a53.449 53.449 0 0 0 -3 6.46 32.523 32.523 0 0 0 -1.53 5.68c-.78.93-1.62 1.89-2.48 3.09a23.2 23.2 0 0 0 -1.29 2 22.028 22.028 0 0 0 -1.2 2.52c-1.29 2.95-2.45 6-3.65 9s-2.25 6.09-3.16 9.2-1.75 6.21-2.48 9.31a84.623 84.623 0 0 0 -1.44 9.33 15.882 15.882 0 0 1 -.74 3.44c-.61 2.3-1.11 4.26-1.48 6-.15.83-.28 1.61-.39 2.38-.13-.36-.27-.71-.4-1a14.836 14.836 0 0 1 -1.23-5.18 48.341 48.341 0 0 0 -2-10.54 39.788 39.788 0 0 0 -4.18-8.94 8.808 8.808 0 0 1 -1.65-4.44 29.081 29.081 0 0 0 -1.12-4.74c-.59-1.76-1.4-3.69-2.3-5.76a32.473 32.473 0 0 0 -2.15-3.92 38.891 38.891 0 0 0 -2.22-3.23 25.112 25.112 0 0 1 -3-4.23c-.92-2.25-1.79-4.31-2.81-6.51a56.864 56.864 0 0 0 -4.18-7l-2.93-4.27-2.57-3.66-2.16 4a133.041 133.041 0 0 0 -7.7 16.38c-2.62 7.15-5 13.35-7.62 20.05-2 5.25-1.34 9.13-2.66 12.51a74.332 74.332 0 0 0 -4.1 13.11q-.889 4.49-1.61 9a18.435 18.435 0 0 0 -1.229-2 27.718 27.718 0 0 1 -2.92-6.09c-4.81-12.09-11.66-23.66-19.29-34.45a18.346 18.346 0 0 0 -2.75-2.93 7.93 7.93 0 0 1 -2.44-3.55c-2.92-6.65-6.37-11.36-12.26-16.87a10.991 10.991 0 0 1 -2.73-3.25c-4.76-7.85-7.9-11.32-15.2-16.74q-.555-.9-1.17-1.83l-1.711-2.57-1.59 3.41c-.56 1.21-1.12 2.51-1.67 4a40.069 40.069 0 0 0 -1.55 5.17c-1.26 5.1-.93 8.4-1.56 12.15-.48 3.62-2.23 6.95-3 12.35a24.34 24.34 0 0 0 -.3 4c0 1.219 0 2.36.08 3.43a27.005 27.005 0 0 1 -.19 6c-.23 1.19-.45 2.36-.64 3.53s-.31 2.34-.44 3.52-.24 2.4-.33 3.65-.09 2.55-.1 3.92c-.08 5.76.17 11.54.45 17.28.43 7.29 1.45 13.54 3.38 17-.17 1.79-.26 3.53-.27 5.24 0 1 .07 2.08.16 3.1a37.772 37.772 0 0 0 -4.06-6.16c-.66-.82-1.35-1.62-2.09-2.43s-1.57-1.56-2.42-2.35a63.669 63.669 0 0 0 -6-4.8 24.707 24.707 0 0 0 -2-3.4c-.43-.62-.92-1.27-1.48-1.95a17.147 17.147 0 0 0 -2-2 172.416 172.416 0 0 0 -14.54-12.47 89.187 89.187 0 0 0 -16.07-9.79 11.683 11.683 0 0 1 -2.62-1.45 51.485 51.485 0 0 0 -6.23-4l-3.8-2.39-.11 4.73a48.364 48.364 0 0 0 1.74 14.49 37.946 37.946 0 0 0 -.46 11.39 194.75 194.75 0 0 0 3.8 26.16c1.79 7.48 3.2 13.87 4.88 21.23.45 2 1 4 1.51 6s1.15 4.049 1.84 6.1a107.642 107.642 0 0 0 4.71 11.7 156.15 156.15 0 0 1 8.23 20.29c1.13 3.71 2.28 7.67 3.19 11.62.24 1 .39 2 .6 3l.3 1.47.2 1.47c.12 1 .3 1.94.39 2.89l.21 2.82a19.149 19.149 0 0 1 0 2.71 23.1 23.1 0 0 1 -.14 2.63c-.27 1.72-.47 3.36-.93 5.17l-2.54 10.86a94.656 94.656 0 0 0 -1.78 10.55 73.366 73.366 0 0 0 -.37 10.81l.08 2.32 2.11.39 3.16.59c2.8.5 5.48 1 8.12 1.58l3.94.83 2 .44 1 .23 1.14.23h-.2l6.47 1.55c5.35 1.29 11.1 2.29 16.83 3.22h.24l6.2 1 1.63.25h.08a38.974 38.974 0 0 0 9.81.37 8.187 8.187 0 0 1 4.67.58 43.812 43.812 0 0 0 5.18 1.4 49 49 0 0 0 5.47.81 46.446 46.446 0 0 0 5.52.17 24.157 24.157 0 0 0 2.69-.15c.92-.07 1.83-.18 2.69-.31a8.261 8.261 0 0 1 4.71.3 43.876 43.876 0 0 0 10.95 1.3c6.25.09 10.9-1.63 13.43-1.47 1.91.14 3.66.33 5.48.49h.24c1.27.08 2.57.14 4 .15s3-.07 4.7-.22l5.66-.48c1.9-.16 3.78-.37 5.67-.57 3.7-.41 7.39-.93 10.92-1.589h.08l.57-.11 2.78-.561 1.44-.28 1.35-.29q2.685-.57 5.34-1.06c3.56-.67 7.1-1.33 10.7-1.89a3.269 3.269 0 0 0 .64-.15c4.82-1.14 7.49-3 10.67-3.71a41.574 41.574 0 0 1 5.34-.88 33.946 33.946 0 0 0 6.39-1.3c8.44-2.6 17.13-5.28 24.93-8.72 3.25-1.42 6.31-2.78 9.36-4.07l4.59-1.94 4.82-2 .92-.38 1-.44 1.88-.86 3.8-1.8c2.55-1.23 5.11-2.5 7.64-3.8l-1.37-2.59 1.38 2.57c2.82-1.54 5.59-3.15 8.13-4.76l3.85-2.37 1.87-1.16.92-.57.46-.28c.14-.09.21-.12.52-.33l10.4-6.3.56-.34.39-.81a111.329 111.329 0 0 0 8.34-24.42c.88-3.89 1.55-7.52 2.36-11.09l1.1-5.39c.4-1.81.76-3.65 1.12-5.55.78-3.76 1.34-7.78 1.85-11.78a115.569 115.569 0 0 0 .87-11.77c.27-8.45.78-16 1.33-24.21.27-3.72.36-7.55.43-11.41 0-1.93 0-3.87.05-5.81v-.86zm-180.05 167.22.87-.22a2.009 2.009 0 0 1 -.87.22z" fill="#f1c517"/><path d="m667.859 310.719a46.31 46.31 0 1 0 -36.15 77.56h2a46.31 46.31 0 0 0 34.11-77.6z" fill="#ea472c"/><path d="m724.639 727.419c-5.65 2.37-10.37 4.32-15.88 6.18-1.86.62-3.8 1.39-5.76 2.21a28.062 28.062 0 0 0 2.62-2.61 19.474 19.474 0 0 0 1.94-2.85c.5-.9 1-1.68 1.41-2.36a19.172 19.172 0 0 1 1.35-1.91 24.479 24.479 0 0 1 3.67-3.46 20.617 20.617 0 0 0 4.29-5.19 40.616 40.616 0 0 0 3.49-7.76 19.492 19.492 0 0 0 3-2.74 31.016 31.016 0 0 0 3.12-4.46 123.293 123.293 0 0 0 8.52-17.44c.89-2.57 1.78-4.94 2.65-7.31s1.82-4.72 2.71-7.29c.57-1.61 1.22-3.26 1.7-5s1-3.45 1.44-5.2l1.57-6-5.62 2.63c-1.409.66-2.81 1.34-4.179 2s-2.69 1.43-4 2.15c-4.66 2.67-8.62 4.87-13.461 7.23-4.45 2.19-9 5.41-13.469 8.29-4.7 3-8.35 6.16-9.93 9.06a27.831 27.831 0 0 0 -11.69 7.69 15.039 15.039 0 0 0 .3-2.59 16.017 16.017 0 0 0 4-5.59c3.659-8.841 7.5-18 8.679-27.281a8.819 8.819 0 0 1 .711-2.52c.65-1.66 1.2-3.07 1.59-4.36a32.1 32.1 0 0 0 .87-3.61 31.121 31.121 0 0 0 .24-7.58 33.1 33.1 0 0 0 1.52-3.659 23.689 23.689 0 0 0 1.15-4.821c1-6.56 1.58-13.169 1.95-19.78a32.057 32.057 0 0 0 0-3.31l-.29-5.62-3.8 3.38a20.3 20.3 0 0 0 -2.12 2.16 7.369 7.369 0 0 1 -3.17 2.39 27.26 27.26 0 0 0 -11.67 9.81 4.6 4.6 0 0 1 -2.69 2.3 25.233 25.233 0 0 0 -6.68 4.85c-3.41 3.18-4.93 7.2-6.14 8.06a42.228 42.228 0 0 0 -8.47 7.61c-1.89 2.2-3.74 4.53-5.62 6.79q-1.35 1.74-2.61 3.48a40.066 40.066 0 0 0 -2.32 3.47c-.74 1.22-1.47 2.39-2.22 3.52s-1.43 2.26-2.17 3.35c-1.19 1.72-2.35 3.45-3.57 5.18.38-2.42.69-4.86 1-7.29a21.416 21.416 0 0 0 .2-5.58 13.626 13.626 0 0 1 .41-5 120.176 120.176 0 0 0 1-29.51 10.686 10.686 0 0 0 -.76-2.94 4.324 4.324 0 0 1 -.15-3.22 27.107 27.107 0 0 0 .63-7.62 30.712 30.712 0 0 0 -1.58-7.94 6.171 6.171 0 0 1 -.38-3.15 36.558 36.558 0 0 0 -.17-8.55 35.859 35.859 0 0 0 -2.58-8.13 28.154 28.154 0 0 0 -.47-8.89c-.76-3.84-2.25-5.92-3-8.66s-.41-5.46-1.37-9.41c-1.1-4.12-3.28-6.26-3.72-9.15l-.45-3-2.68 2.31-.11.1a58.271 58.271 0 0 0 -7.8 7.74l-4 5.08c-.66.85-1.35 1.68-2 2.54l-1.92 2.59a51.329 51.329 0 0 0 -4.14 6.21 16.124 16.124 0 0 0 -1.88 5.29 27.015 27.015 0 0 0 -6.65 7.39 25.429 25.429 0 0 0 -2.2 4.4 40.291 40.291 0 0 0 -1.49 5.09 32.673 32.673 0 0 0 -3.41 3.79 28.037 28.037 0 0 0 -2.45 4 30.206 30.206 0 0 0 -1.84 4.53c-.48 1.68-.89 3.53-1.27 5.61a14.459 14.459 0 0 0 -4 5.6c-.89 2.18-1.83 4.36-2.78 6.54s-1.73 4.43-2.57 6.65l-1.2 3.34q-.521 1.69-1 3.38c-.61 2.26-1.15 4.51-1.54 6.77a6.492 6.492 0 0 1 -.57 2.15 33.662 33.662 0 0 0 -2.9 8.27 31.944 31.944 0 0 0 -.46 7.73 22.664 22.664 0 0 0 -2.93 8c-.69 3.24-1.17 6.58-1.72 9.87a1.055 1.055 0 0 1 -.08.49 103.844 103.844 0 0 0 -6.83-17.22c-2.64-5.17-4.81-9.68-7.19-15a95.969 95.969 0 0 0 -8.92-15.69l-3.51-5-1.39 5.53-.17.66c-.7 2.88-1.51 5.52-2.21 8.18l-2.32 8a90.982 90.982 0 0 0 -3.121 18.241c-.42 6-.9 11.3-1.43 17.27a120.311 120.311 0 0 0 .13 17.88 37.43 37.43 0 0 0 .56 4.87 16.207 16.207 0 0 0 1.17 3.69 4.874 4.874 0 0 1 .41 3.51 28.716 28.716 0 0 0 -.29 4.07 27.376 27.376 0 0 0 .4 4.14 25.936 25.936 0 0 0 2.61 7.8q.21.4.35.71v-.33a4.429 4.429 0 0 1 0 2.85 17.405 17.405 0 0 0 -.49 3.72l-.06 1.4 1.41.54c.15.68.31 1.37.49 2.09l.2.74 5.39-1.37c-.08-.33-.17-.661-.27-1a4.937 4.937 0 0 1 1.36.28c3.25 1.31 5.7 2.7 10.09 3.71 5.57 1.28 11.28 2.92 16.68 3.9a114.262 114.262 0 0 1 15.88 3.78 2.344 2.344 0 0 1 .48.11c3.58.85 6 .189 8.38.78 2.69.68 4.62 2.14 8.4 2.94l1 .209 1.15.21h-.22c5.87 1.27 11.72 2.61 17.38 3.32 2.11.27 4.09.54 6 .85h.21c2.57.4 5.1.87 7.83 1.44h.07l.82.17c3.071.64 6.331 1.21 9.641 1.63s6.62.71 9.8.87c2.77.13 5.3.29 7.869.5s5 .46 7.831.78l2.349.25c.781.07 1.531.15 2.35.2 1.62.11 3.29.21 4.91.25a91.2 91.2 0 0 0 9.57-.15c2.74-.15 5.29-.32 7.82-.35s5-.11 7.67-.09h.21l.87-.23a2.326 2.326 0 0 1 -.71.22h.89c1.39 0 2.72 0 4.26-.11h.94l.83-.79a100.168 100.168 0 0 0 9.18-9.93c4-4.94 7.71-9.14 11.9-13.69 1.88-2.06 3.72-4.26 5.521-6.52l2.69-3.41 1.33-1.71.33-.43c.15-.19.4-.52.59-.81a8.009 8.009 0 0 0 1-2.16 12.132 12.132 0 0 0 .31-2.88l-1.93.72c-6.001 2.261-12.27 4.391-18.431 6.951z" fill="#4e73b8"/><path d="m992.769 519.369 2.66-.13c-.2-.86-.44-1.77-.75-2.71l-.25-.77-.21-.61-.43-1.22c-.28-.82-.58-1.63-.88-2.44-.59-1.63-1.24-3.24-1.91-4.83a77.2 77.2 0 0 0 -4.49-9.11l-8.89-14.88a60 60 0 0 0 -3.66-5.34l-3.27-4.3-1.73 5.09-1.57 4.91c-.51 1.64-1 3.27-1.57 4.88-1.74 5.33-2.77 10-2.29 13.38-2.91 4.5-5 10.29-5.08 14.79a21.993 21.993 0 0 1 -2.25 10.28c-1.69 3.82-2.2 9.18-1.72 15.75a22.765 22.765 0 0 0 -1.88 4.57c-.18-.46-.34-.93-.53-1.37-2.18-5.29-4-9.85-6-15.21a103.375 103.375 0 0 0 -9.5-18.57c-3.1-4.76-5.7-8.77-8.62-13.66a85.432 85.432 0 0 0 -6.3-8.85l-3.72-4.75-1.27 5.76c-.4 1.91-.81 3.83-1.25 5.7-1.28 5.75-1.88 10.75-1 14.11a30.735 30.735 0 0 0 -2.75 20.56c-2.93 6.2-3.16 15.86-1.34 20.83a18 18 0 0 0 -1.6 7c-.08 5.86-.22 11.83.09 17.69a31.935 31.935 0 0 0 -7-8 30.976 30.976 0 0 0 -4.41-8.22q-6.27-8.34-12.93-16.37a26.074 26.074 0 0 0 -4.77-4.6 7.874 7.874 0 0 1 -2.78-3.11 31.672 31.672 0 0 0 -11-11.62 5.165 5.165 0 0 1 -2.55-2.71 28.261 28.261 0 0 0 -5.33-6.83c-2.62-2.71-5.74-4.3-7.4-5.48l-2.44-1.74-.24 2.59a4.8 4.8 0 0 1 -.24 1.41c-.72 1.78-1.42 3.4-2.06 5.19-.32.9-.64 1.83-.91 2.85s-.49 2.13-.7 3.359c-.52 3-1.18 6.07-1.61 9.13a73.876 73.876 0 0 0 -1 8.9c-.1 3-.41 5.789-.61 8.55s-.56 5.46-.92 8.26c-.44 4.39 1.06 7.229.62 10.06-.25 1.76-.52 3.39-.73 5.11a33.267 33.267 0 0 0 -.28 5.669c.13 3 .15 6.1.36 9.151s.35 6.09.63 9.13a28.549 28.549 0 0 0 1 5.81 9.941 9.941 0 0 1 .51 2.52c.09.82.11 1.68.16 2.77a122.052 122.052 0 0 0 5.53 30.65 11.676 11.676 0 0 0 1.38 2.88 5.058 5.058 0 0 1 .9 3.15c-.73-.81-1.54-1.65-2.43-2.57a31.038 31.038 0 0 0 -1.54-3.86 29.258 29.258 0 0 0 -2.66-4.54 30.976 30.976 0 0 0 -3.41-4 40.365 40.365 0 0 1 -3.1-3.16c-1.8-2.23-2.74-5.08-5.37-8.48-2.92-3.53-5.87-4.75-7.63-7.34a54.9 54.9 0 0 0 -7.29-9l-4.89-4.74-5-4.64a59.562 59.562 0 0 0 -6.13-4.95 17.654 17.654 0 0 0 -5.3-2.57 36.132 36.132 0 0 0 -4.82-5.64 32.6 32.6 0 0 0 -5.83-4.14l-4.891-2.72.78 4.92a42.98 42.98 0 0 0 1.59 6.5 33.535 33.535 0 0 0 -1 10.17 42.866 42.866 0 0 0 2.53 10.86 17.777 17.777 0 0 0 -.63 7.2c1.211 9.82 2.13 20 5.2 29.17a7.09 7.09 0 0 1 .5 2.289 35.766 35.766 0 0 0 1.341 9.11 31 31 0 0 0 3.159 7.5 25.929 25.929 0 0 0 0 4 31.11 31.11 0 0 0 1 4.91 193.108 193.108 0 0 0 6.141 19.86c1.13 2.81 2.15 5.41 3.049 8 .87 2.46 1.73 4.91 2.581 7.53-4.841-3.26-9.25-5.9-14.44-8.78a58.249 58.249 0 0 0 -15.87-5.83l-4.461-.95 1 4.21c.25 1.09.511 2.14.771 3.15 1.71 6.09 3.18 11.33 5.15 17.19a78.013 78.013 0 0 0 3.76 9.06 70.344 70.344 0 0 0 4.94 8.4c2.87 4.151 5.56 7.851 8.49 11.7l1 1.36 1.78-.569 3.76-1.21c1.42-.45 2.9-1 4.35-1.51s2.88-1.12 4.34-1.73c2.91-1.22 5.87-2.52 8.7-3.78a44.7 44.7 0 0 0 4.6-2.32c.65-.39 1.26-.79 1.8-1.18a10.272 10.272 0 0 0 1.47-1.26 4.994 4.994 0 0 1 3.31-1.66 33.641 33.641 0 0 0 9.78-3.73l-1.29-2.45 1.31 2.43a29.435 29.435 0 0 0 5.33-4.09 4.992 4.992 0 0 1 3.25-1.79 17.739 17.739 0 0 0 3.39-1.11c.62-.27 1.27-.58 1.92-.92l1-.53.52-.28.26-.15h.07l.13-.081.08-.049.59-.341a25.65 25.65 0 0 0 5.07-4 16.3 16.3 0 0 1 3.24-2.75c3.37-1.59 6.18-2.54 10.1-5.33a178.89 178.89 0 0 0 14.54-11c4.44-4.06 8.64-7.67 13.27-11.15.12-.09.26-.23.39-.34 2.92-2.59 3.87-5.08 5.77-6.81 2.17-2 4.56-2.84 7.45-5.79 4.86-5 9.94-10.1 14-15.42 3.44-4.51 6.44-8.21 10.14-12.55a117.66 117.66 0 0 0 12-17c2.92-5 5.51-9.31 8.67-14.2a114.992 114.992 0 0 0 9.46-17.89c2.38-5.79 4.66-10.62 7.27-16.12a114.171 114.171 0 0 0 6.62-17.47c1.8-6.43 3.69-12.07 5.77-18.27.94-2.8 1.75-5.72 2.49-8.69.38-1.48.72-3 1.07-4.48l.53-2.34.54-2.61c.13-.66.17-1.27.27-1.89z" fill="#ea472c"/><path d="m218.909 682.029c-7 3.31-14.4 6.52-21.43 10.14-6.45 3.34-11.89 6.1-18.29 8.9-2.91 1.27-5.94 2.8-9 4.4a26.6 26.6 0 0 0 2.24-6.85c4.23-4.31 8.11-10 9.71-14.85a26.5 26.5 0 0 1 5.82-10.44c3-3.61 5.52-9.13 7.76-16.22a35.3 35.3 0 0 0 6.7-9c2.9-5.21 6-10.46 8.8-15.64l4.54-8.42-8.33 4.53q-2.25 1.22-4.4 2.47c-5.56 3.25-10.47 5.82-16.31 8.57-6.86 3.22-14.26 7.12-20.79 10.94a162.477 162.477 0 0 1 -16.12 8.47c-3.17 1.43-6.47 3.19-9.8 5a18.708 18.708 0 0 0 1-2.74 42.735 42.735 0 0 0 8.2-8.94 40.269 40.269 0 0 0 5-10.67 31.694 31.694 0 0 0 4.24-4.48 51.028 51.028 0 0 0 3.66-5.43 34.827 34.827 0 0 0 4.18-10.59 23.132 23.132 0 0 0 5.09-6.37c5.38-10.13 11.09-20.53 14.26-31.21a11.858 11.858 0 0 1 1.28-2.87c4.09-7.47 5.16-10.69 6.22-17.87a42.543 42.543 0 0 0 4.21-8.19l2.46-6.41-6.3 3.07-1.27.62-21.11 10.65a36.194 36.194 0 0 0 -6.37 4 10.093 10.093 0 0 1 -4.2 2.19 43.994 43.994 0 0 0 -16.11 8.45 6.454 6.454 0 0 1 -3.78 1.87 38.945 38.945 0 0 0 -9.17 3.48c-5 2.42-8.44 6-10.12 6.53a74.27 74.27 0 0 0 -12.62 4.91c-2.14 1.1-4.34 2.18-6.54 3.25l.2-.2c3.64-3.49 4.35-7.08 6.75-9.29l2.18-2c.71-.67 1.37-1.36 2.06-2.07a59.534 59.534 0 0 0 4.24-4.89c2.11-2.77 4.09-5.63 6.14-8.44s3.9-5.77 5.86-8.64a31.851 31.851 0 0 0 3.21-5.91c.76-2.08 1.72-3.16 3.12-5.21a143.359 143.359 0 0 0 16.2-31.61 14.872 14.872 0 0 0 .82-3.53 6.7 6.7 0 0 1 1.43-3.61 39.29 39.29 0 0 0 4.29-8.11 50.311 50.311 0 0 0 2.34-9.44 8.9 8.9 0 0 1 1.07-3.66c.92-1.85 1.69-3.49 2.33-5a37.515 37.515 0 0 0 1.43-4.52 43.579 43.579 0 0 0 1.27-10.15 44.388 44.388 0 0 0 2.4-5.89l1.3-4-4.57 1c-1.26.28-2.64.65-4.19 1.13a32.825 32.825 0 0 0 -5.51 2.29c-1.55.78-2.95 1.52-4.54 2.15-3 1.25-6.44 1.24-11 2.95a31.032 31.032 0 0 0 -5.92 3 19.781 19.781 0 0 1 -4.84 2.34c-2.1.59-4.09 1.19-6.11 1.89s-4.05 1.57-6.27 2.59l-7 3.34-6.95 3.36a78.364 78.364 0 0 0 -7.78 4.43 22 22 0 0 0 -5 4.36c-8.22 2.09-14.35 5.83-20.42 12.26-1.28.45-2.47.91-3.6 1.4.21-.52.43-1.05.64-1.61a22.6 22.6 0 0 0 5.6-5.94c6.16-9.39 13.1-18.63 18-28.36a9.183 9.183 0 0 1 1.44-2.24 48.389 48.389 0 0 0 10.16-16.7 35.147 35.147 0 0 0 6.64-7.73l1.46-2.2 4.6-6.94-7.86 2.84a152.509 152.509 0 0 0 -19.46 8.22c-6.12 3.26-11.37 5.92-17.42 9a122.006 122.006 0 0 0 -19 12.26l-6.28 5-.28.22-.18.25c-2.31 3.17-4.64 6.23-7.21 9.56a121.093 121.093 0 0 0 -12.1 19c-1.55 3.19-3.08 6.11-4.68 9l-2.27 4.41-2.34 4.53a111.643 111.643 0 0 0 -8.11 20.49c-1.92 7-3.59 13.18-5.32 20.2a115.97 115.97 0 0 0 -2.63 21.441 30.078 30.078 0 0 0 1 10.5 6.938 6.938 0 0 1 .24 4.23 32.09 32.09 0 0 0 3.16 19.42 7.168 7.168 0 0 1 1 4.18 30.371 30.371 0 0 0 2.17 9.78c2 5.34 5.32 8.54 6.08 10.69 1.43 4 2.34 7.31 5.32 12a115.069 115.069 0 0 0 12.53 16.82c3 3.23 6 6.21 9 9.21l.67.68c1.42 1.44 2.82 2.9 4.23 4.39a5.84 5.84 0 0 0 .44.4c3.33 3 6.2 3.86 8.46 5.74 2.6 2.14 4.06 4.6 7.94 7.31q2.741 1.91 5.56 3.79l1.46.94.26.17 1.6 1a110.048 110.048 0 0 0 11.52 6.48l16.7 7.91a114.059 114.059 0 0 0 22.44 7.83c6.48 1.53 12 2.88 18.46 4.53a131.959 131.959 0 0 0 22.79 3.73c7.11.48 13.19 1.11 20.07 1.83l1.43.14c.49 0 .92.1 1.63.13l1 .05.92-.82a84.9 84.9 0 0 0 12.47-13.82c2.23-3.14 4.32-6.13 6.31-9.16s3.94-6.07 5.87-9.33a79.366 79.366 0 0 0 4.65-9.4c.67-1.64 1.32-3.31 1.92-5l.87-2.52.23-.68c.11-.35.21-.71.3-1.1a10.988 10.988 0 0 0 .28-2.41 18.021 18.021 0 0 0 -.37-3z" fill="#ea472c"/><g fill="#fff"><path d="m846.469 248.179c3.64 2.37 7.27 5.1 11 7.09a102.637 102.637 0 0 1 10.82 6.39 2.568 2.568 0 0 0 .33.18 10.963 10.963 0 0 0 3.46 1.14 12.171 12.171 0 0 1 2.83.73 20.027 20.027 0 0 1 2.64 1.75 11.409 11.409 0 0 0 3.381 1.8 63.663 63.663 0 0 0 14.94 3.48l11.87.87a41.69 41.69 0 0 0 15.309-1.79c1-.35 2.151-.76 3.141-1.15a21.406 21.406 0 0 0 2.859-1.33c.86-.5 1.85-.91 2.74-1.42s1.831-1 2.771-1.51a89.727 89.727 0 0 0 11.87-8.25 29.492 29.492 0 0 1 2.53-1.8l1.26-.77c.43-.22.85-.43 1.28-.64a19.426 19.426 0 0 1 2.6-1 12.741 12.741 0 0 1 2.64-.41 23.856 23.856 0 0 1 2.88 0 14.435 14.435 0 0 1 1.51.14c.5.07 1 .08 1.51.17 1 .19 2 .3 3 .57s1.94.48 2.88.73a22.684 22.684 0 0 1 5.84 2.66 38.461 38.461 0 0 1 5.21 4c1.54 1.34 3.17 2.73 4.86 4.09l2.56 2.07 1.29 1 .42.33a8.677 8.677 0 0 0 .75.51 7.187 7.187 0 0 0 1.81.79 9.609 9.609 0 0 0 2.39.25l-1.4-2.27 1.4 2.27-.1-1.65c-.19-2.58-.28-5.38-.58-8.33a49.1 49.1 0 0 0 -1.61-8.49c-.35-1.26-.67-2.15-1-3.15s-.57-1.94-.82-2.92c-.49-1.95-.94-3.9-1.35-6-.66-3.73-2.18-7.67-3.28-11.51s-2.51-7-4.56-8.72a21.1 21.1 0 0 0 -.43-6 13.454 13.454 0 0 0 -2.19-5 11.411 11.411 0 0 1 -2.771-7.05c-.23-3.08-2.25-6.43-5.45-10.06a14.911 14.911 0 0 0 -1.57-7l-3.15-6.69c-1.07-2.21-2.24-4.36-3.46-6.37-1.05-1.76-2.08-3.37-3-5s-1.77-3.38-2.71-5.21a78.743 78.743 0 0 0 -7.86-12.73c-1.25-1.61-2.36-3.12-3.41-4.68s-2.11-3.11-3.12-4.89c-1.86-3.29-4.66-6.48-7-9.69-2.54-3.4-5.07-6-7.59-6.89q-.219-.711-.47-1.37l-.41-1.07-2 .9a15.19 15.19 0 0 0 -5.73 4.33 16.334 16.334 0 0 0 -3 6.33 17.133 17.133 0 0 0 -6 5.47 16.308 16.308 0 0 0 -2.87 6.63 11.258 11.258 0 0 0 -4.2 3 56.341 56.341 0 0 1 -7.32 7.34 74.052 74.052 0 0 1 -7.94 5.81 3.253 3.253 0 0 1 -1.73.549c-2.45.31-4.1.24-5.66.511s-3 .6-5.25 1.07l-2.63-1.29c-.46-.23-1-.41-1.49-.62a13.254 13.254 0 0 0 -1.68-.65 32.733 32.733 0 0 1 -11.58-7.25 16.549 16.549 0 0 0 -3.73-2.71 3.925 3.925 0 0 1 -2.07-2.08 17.684 17.684 0 0 0 -7.92-8.33 2.752 2.752 0 0 1 -1.83-2 13.987 13.987 0 0 0 -3.91-5.11 10.39 10.39 0 0 0 -1-.85c-.37-.24-.75-.46-1.12-.66-.74-.4-1.47-.72-2.12-1a9.425 9.425 0 0 1 -2.86-1.15c-2.12-1.94-4.06-3.75-7.82-4.76a39.8 39.8 0 0 0 -7.11-1.2 23.639 23.639 0 0 0 -6.89.52c-4.47 1.08-8.2 2.26-12.23 3.65-3.15 1.14-4.12 3.65-6.09 4.37a25.214 25.214 0 0 0 -7.11 3.64 108.761 108.761 0 0 0 -10.07 8.85 13.8 13.8 0 0 0 -2.68 3.37 8.551 8.551 0 0 1 -2.56 2.9 53.341 53.341 0 0 0 -4 4c-1.24 1.35-2.44 2.76-3.63 4.15l-7 8.46a6.729 6.729 0 0 0 -1.08 2c-.33.9-.64 1.19-1.71 1.67a22.223 22.223 0 0 0 -9.1 6.93 3.352 3.352 0 0 1 -1.93 1.28 31.12 31.12 0 0 0 -3.25 1 19.649 19.649 0 0 0 -2.63 1c-.8.43-1.61.85-2.46 1.41-.42.28-.86.59-1.31.93l-1.48 1a23.845 23.845 0 0 0 -6.51.49 16.472 16.472 0 0 0 -3.45 1.11 13.866 13.866 0 0 1 -2.93.94c-2 .35-4-.65-7-.57-3.23.07-5.23 1.63-7.48 1.28a27.6 27.6 0 0 0 -8.5-.1 47.086 47.086 0 0 0 -10 2.55 25.772 25.772 0 0 0 -2.93 1.41 15.015 15.015 0 0 0 -2.37 1.71 9.1 9.1 0 0 0 -2.62 3.65 13.24 13.24 0 0 0 -9.62 12 22.168 22.168 0 0 0 -2.57 3.23 17.776 17.776 0 0 0 -1.36 3.57 18.982 18.982 0 0 0 -.19 4c.11.71.26 1.45.44 2.2a11.882 11.882 0 0 0 .73 2.32 8 8 0 0 0 -.53 5.57l.33 1.42c.15.46.32.92.48 1.38.34.91.61 1.86 1 2.75a31.014 31.014 0 0 0 2.84 5.1l.83 1.19c.14.2.28.4.43.59l.49.53c.65.71 1.31 1.4 2 2.07l.51.5.56.43 1.13.83a21.2 21.2 0 0 0 2.32 1.5 4.091 4.091 0 0 1 1.46 1 15.892 15.892 0 0 0 5.63 4.13 14.836 14.836 0 0 0 6.05 1.09 12.874 12.874 0 0 0 2.47 1.82 17.53 17.53 0 0 0 3.53 1.28 53.651 53.651 0 0 0 15.35 1.54l12.61-1a48.691 48.691 0 0 0 14.1-3.5l3-1.28c1-.45 1.94-.87 2.91-1.27l5.92-2.56a64.947 64.947 0 0 0 12.29-7.18 56.758 56.758 0 0 1 10.75-6.29c4-1.77 8.24-3.68 12.11-5.15a28.72 28.72 0 0 1 12.06-1.91 66.652 66.652 0 0 1 12.56 1.46 18.015 18.015 0 0 0 6.32.8 2.546 2.546 0 0 1 2.43.91 20.079 20.079 0 0 0 10.87 5.08 2.638 2.638 0 0 1 2.29 1.32 17.47 17.47 0 0 0 4.73 4c2.89 1.86 6 1.94 7 3 1.88 1.81 3.151 3.59 6.02 5.45z"/><path d="m556.089 350.489a2.493 2.493 0 0 1 1.34.33 14.582 14.582 0 0 0 10 2.4 10.459 10.459 0 0 0 4.7 2.91c4 1.31 8.31 2.74 12.43 3.09 3.76.31 6.92.72 10.72 1a24.512 24.512 0 0 0 6.42-.41 18.5 18.5 0 0 0 6.23-2.44 21.786 21.786 0 0 0 4.66-4l1-1.16.88-1.23a28.592 28.592 0 0 0 1.52-2.62c.24-.46.49-.92.72-1.41l.59-1.56a9.7 9.7 0 0 0 .47-1.68 9.956 9.956 0 0 0 .29-1.79 12.819 12.819 0 0 0 0-1.9 13.793 13.793 0 0 0 -.29-1.95 12.049 12.049 0 0 0 -.67-1.88 10.2 10.2 0 0 0 -1-1.66 14.5 14.5 0 0 0 -5.22-4.07 37.055 37.055 0 0 0 -5.49-2.07 33.47 33.47 0 0 0 -6-1.08 38.115 38.115 0 0 0 -5.93 0 83.442 83.442 0 0 1 -11 .24c-1.8-.09-3.66 0-5.5 0a31.206 31.206 0 0 1 -5.25-.1 14.221 14.221 0 0 0 -5.15-.11c-.94.23-1.28 0-2-.7a15.382 15.382 0 0 0 -8.54-4.8c-1.14-.22-1.37-.5-1.72-1.34a12.607 12.607 0 0 0 -3.26-4c-2.11-1.93-4.86-2.23-5.56-3.24-1.29-1.87-2.05-3.61-4.31-5.5-2.86-2.37-5.84-5-9.22-6.65s-6.75-2.92-10.29-4.29a2.833 2.833 0 0 0 -.33-.08c-2.51-.55-4.21.42-5.81.34-1.84-.1-3.4-1.13-6-.72a47.844 47.844 0 0 0 -12.51 3.55 54.47 54.47 0 0 1 -9 3.47c-3.8 1.06-7.82 2.45-11.41 3.46a16.563 16.563 0 0 1 -9 .25 34.6 34.6 0 0 1 -9.69-4.35 19.011 19.011 0 0 1 -6.44-7.27c-1.66-3-3.44-6.44-5.3-9.42a62.741 62.741 0 0 1 -4.94-10.36 54.871 54.871 0 0 0 -5.44-9.85c-.2-.3-.46-.54-.66-.82l-2.2 1.51 2.2-1.51c-.23-.38-.48-.78-.76-1.17a39.276 39.276 0 0 0 -8.62-9.42c-3.09-2.22-5.82-4-9-6.06-2.85-1.82-6.52-2.83-10-3.66s-6.58-.79-8.58.49c-3.08-1.75-7.14-2.1-9.72-.75a9.377 9.377 0 0 1 -6.44 1.26c-2.68-.26-5.84 1.21-8.92 4.06a9.913 9.913 0 0 0 -6.1 1.07 58.429 58.429 0 0 0 -10.82 6.29c-2.75 2.18-5.16 4-8.05 5.94a45.557 45.557 0 0 0 -9.36 8.63 87.628 87.628 0 0 1 -6.54 7.4c-2.29 2.28-4.16 5.4-6.07 8.24-2 3-3.24 5.93-2.9 8.28-4 3-5.62 7-4.77 11.74a11.145 11.145 0 0 0 -3.12 6.3 10.006 10.006 0 0 0 .88 6.31 7.531 7.531 0 0 0 -1.46 4.4c.07 1.6.23 3.2.33 4.81.26 1.58.46 3.19.82 4.76q.315 1.155.66 2.31a15.234 15.234 0 0 0 .82 2.23c.33.72.67 1.43 1 2.12q.281.521.57 1c.22.32.451.64.68.95a3.618 3.618 0 0 1 .68 1.59c.15.57.28 1.11.44 1.6a14.117 14.117 0 0 0 .54 1.33 10.56 10.56 0 0 0 5 5.49 18.088 18.088 0 0 0 .921 2.51 10.913 10.913 0 0 0 .75 1.35 13.312 13.312 0 0 0 1.16 1.34l1.16 1.18.579.59.63.54 2.52 2.16a48.307 48.307 0 0 0 5.52 3.7 12.667 12.667 0 0 0 2.08 1 9.3 9.3 0 0 0 2 .33 3.44 3.44 0 0 1 2.44 1 17.267 17.267 0 0 0 2.38 1.46 11.423 11.423 0 0 0 1.22.54q.63.18 1.26.3a12.894 12.894 0 0 0 2.51.22 8.849 8.849 0 0 0 2.46-.46 2.09 2.09 0 0 1 2.31.29 7.605 7.605 0 0 0 2.33.81 12.017 12.017 0 0 0 3.05.24c3.11 0 5.45-2 6.41-1.85a18.685 18.685 0 0 0 7.39 0 81.521 81.521 0 0 0 10.67-2.69 37.826 37.826 0 0 1 9.72-2.32 7.468 7.468 0 0 0 3.11-1.18 4.279 4.279 0 0 1 2.48-.9l3.05.25a15.276 15.276 0 0 0 3.27 0c.87-.06 1.73-.08 2.6-.12l1.3-.05h1.29l2.58.11 2.56.33a12.861 12.861 0 0 0 3.37.16 3.276 3.276 0 0 1 1.5 0 15.143 15.143 0 0 1 1.5.61 165.338 165.338 0 0 0 17.27 6.23 4.769 4.769 0 0 0 2 .08 1.869 1.869 0 0 1 1.92.71 12.076 12.076 0 0 0 4.16 2.7 13.9 13.9 0 0 0 5.21.8 2.877 2.877 0 0 1 2 .5c3.89 2.45 6.42 2.79 10.91 1.59a14.916 14.916 0 0 0 2.52.94 11.031 11.031 0 0 0 3.36.22 8.29 8.29 0 0 0 3.25-.87 25.1 25.1 0 0 1 2.61-1.06 8.662 8.662 0 0 1 2.81-.32 9.561 9.561 0 0 0 3.47-.57 8.6 8.6 0 0 0 1.78-.88 14.3 14.3 0 0 0 1.33-1.1 5.626 5.626 0 0 1 2.5-1.54 21.9 21.9 0 0 0 6.59-2.73c1.19-.72 2.33-1.48 3.48-2.23l3.44-2.24c2.91-1.86 5.16-3.76 5.85-5.87 4.82-.52 7.74-2.3 10.76-6.16a23.1 23.1 0 0 0 3.24-.24 10.259 10.259 0 0 0 2.73-.65 21.807 21.807 0 0 0 2.63-1.26c.46-.27.92-.58 1.42-.92s1-.63 1.6-1a8.152 8.152 0 0 0 4.18.82 38.392 38.392 0 0 1 8.37.47 64.193 64.193 0 0 0 8.3 1.06z"/><path d="m450.509 72.189a6.664 6.664 0 0 0 3.9 4 5.072 5.072 0 0 0 1.27 3.82 24.8 24.8 0 0 0 6.61 5.07 14 14 0 0 0 8 1.56 3.175 3.175 0 0 1 1.49.17c4 .9 5.76.48 8.49-1.74a8.1 8.1 0 0 0 4.91-.19c3.35-1.24 6.48-2.74 9.56-4.16a7.183 7.183 0 0 0 2.62-1.95 1.89 1.89 0 0 1 1.81-.86 10.515 10.515 0 0 0 4-.72 8.9 8.9 0 0 0 3.08-2.08c.67-.66 1-.68 1.69-.39a5.2 5.2 0 0 0 1.82.47h2.12a6.409 6.409 0 0 0 1.53-.28 10.562 10.562 0 0 0 1.37-.43c.42-.16.81-.32 1.14-.42a1.131 1.131 0 0 1 .74 0 28.619 28.619 0 0 0 4.84 2.58c2.56.89 4.91 2.66 7.3 3.79a20.724 20.724 0 0 1 6.31 4.87c1.44 1.56 3.55 1.18 4.37 2.37a16.313 16.313 0 0 0 3.43 4.19 81.369 81.369 0 0 0 7.53 5.41 6.652 6.652 0 0 0 2.86 1.13 4.707 4.707 0 0 1 2.53 1.15 18.084 18.084 0 0 0 7.87 2.71 22.233 22.233 0 0 0 4.27 0 13.067 13.067 0 0 0 2.09-.36q1.013-.206 2-.51a3.749 3.749 0 0 0 1.44-1c.5-.59.8-.59 1.68-.51a7.8 7.8 0 0 0 6.05-1.55 14.012 14.012 0 0 0 1.68-1.66 1.928 1.928 0 0 1 1.43-.87c3.8-.64 5.26-1.75 7.32-4.93a9.376 9.376 0 0 0 4.45-1.39c1.68-1 2.24-2.38 3.42-3.23a4.7 4.7 0 0 1 2.08-.59 11.734 11.734 0 0 0 1.23-.21 6.507 6.507 0 0 0 1.33-.36 8.608 8.608 0 0 0 2.23-1.58 3 3 0 0 1 2-1 19.09 19.09 0 0 0 2.62 0 20.4 20.4 0 0 0 2.65-.17 27.745 27.745 0 0 1 6.07 0c2.57.33 4.82.53 6.51-.5 2.77 3 5.3 3.89 9.49 3.32 2.53 3.29 4.65 4.27 9.4 4.18a6.953 6.953 0 0 0 .92 1.5 4.365 4.365 0 0 0 1.9 1.19 46.06 46.06 0 0 0 7.58 2 20.631 20.631 0 0 0 7.49 0 2 2 0 0 1 1.18 0 8.882 8.882 0 0 0 8.62-1 6.868 6.868 0 0 0 4.7.6 36.7 36.7 0 0 0 5.41-1.42 14.4 14.4 0 0 0 5-2.9 15.627 15.627 0 0 0 3.29-4.09 12.4 12.4 0 0 0 1.52-5.16v-1.5a8.561 8.561 0 0 0 -.2-1.46l-.13-.74-.21-.69-.45-1.37a25.559 25.559 0 0 0 -1.25-2.5 11.062 11.062 0 0 0 -1.87-2.32 22.94 22.94 0 0 0 -4.07-3c-1.36-.81-2.72-1.52-4.18-2.25a27.185 27.185 0 0 0 -9.69-2.53 31.6 31.6 0 0 1 -8.34-1.74 58.648 58.648 0 0 1 -7.73-3.07 15.2 15.2 0 0 1 -5.76-5.65c-1.45-2.34-3.3-4.74-4.8-7.35a7.764 7.764 0 0 0 -3.08-3.32c-.79-.37-.88-.68-.9-1.58a8.289 8.289 0 0 0 -4.36-7.26c-.9-.49-1-.77-1-1.58a7.422 7.422 0 0 0 -1.89-4.14 6.982 6.982 0 0 0 -2.8-2 5.094 5.094 0 0 1 -2-1.06c-1.1-1.61-2-3.2-4.34-4.38a20.529 20.529 0 0 0 -9.63-2.5 90 90 0 0 0 -9.32 1.26 1.946 1.946 0 0 0 -.27.08c-2 .64-2.67 2.24-3.86 2.75-1.37.59-2.91.22-4.72 1.32a57.5 57.5 0 0 0 -8.55 5.94 32.65 32.65 0 0 1 -6.32 4.65c-2.81 1.58-5.68 3.56-8.21 5.32a15.206 15.206 0 0 1 -6.86 2.84 32.237 32.237 0 0 1 -8.43.06 10.721 10.721 0 0 1 -6.56-3.43c-1.84-1.87-3.73-4.17-5.65-6.22a33.411 33.411 0 0 1 -5.1-7.68 41.936 41.936 0 0 0 -5.37-7.51c-.2-.23-.44-.39-.63-.6l-2 1.76 2-1.76c-.22-.29-.47-.59-.74-.89a30.666 30.666 0 0 0 -8-6.86c-2.8-1.46-5.21-2.63-8-4.07-2.51-1.3-5.69-1.64-8.63-1.91a12.274 12.274 0 0 0 -4.08.23 6 6 0 0 0 -2.869 1.651c-2.81-1.17-6.3-.8-8.06 1a8.876 8.876 0 0 1 -2.21 1.73 10.3 10.3 0 0 1 -2.72.64 5.589 5.589 0 0 0 -3.34 1.77 10.341 10.341 0 0 0 -2.51 4.22 7.29 7.29 0 0 0 -2.21 1.08 6.971 6.971 0 0 0 -1 1.06 6.363 6.363 0 0 0 -.93 1.45 30.782 30.782 0 0 0 -2.96 10.08 25.166 25.166 0 0 1 -1.75 7.54c-.27.73-.59 1.46-.89 2.19s-.57 1.5-.9 2.22l-.46 1.15-.21.56c-.07.18-.14.3-.21.45s-.25.6-.4.88-.32.54-.48.82a8.626 8.626 0 0 1 -5.45 3.59 35.3 35.3 0 0 0 -7.83 3.33 9 9 0 0 0 -3.51 3.37 5 5 0 0 0 -.65 1.82 4.216 4.216 0 0 0 0 1.66 7.65 7.65 0 0 0 -3.55 4.74 7.223 7.223 0 0 0 1.14 5.69 7.17 7.17 0 0 0 -.301 6.149z"/><path d="m183.809 408.469c-.21-.17-.18-.3-.14-.52a2.3 2.3 0 0 0 -.21-1.78 2.8 2.8 0 0 0 -1.88-.781 2.217 2.217 0 0 0 -.18-2.3 16.212 16.212 0 0 0 -3.37-2.821 1.565 1.565 0 0 0 -1.47-.09c-.42.17-.59.2-.75-.31-.49-1.56-1.56-1.88-2.88-.93-.47.33-.55.26-.63-.26a1.79 1.79 0 0 0 -1.2-1.47c-.86-.349-2 1-2.21.7-.49-.8-.89-1.6-1.77-1.76-1.08-.2-2.14-.771-3.2-.591a4 4 0 0 1 -2.9-.63c-.7-.43-1.5 1.11-1.9.63s-.89-1.25-1.61-1.38c-1-.19-2-.41-3-.67a1.123 1.123 0 0 0 -1.05.16c-.42.33-.58.09-.86-.19a7.7 7.7 0 0 0 -4.45-2 1.746 1.746 0 0 0 -.73.31c-.24.16-.48.21-.46-.27.06-1.68-.39-2.07-2-1.82-.31 0-.45.08-.45-.32.06-1.78-.32-2.06-2.3-1.88a2.128 2.128 0 0 0 -.07-2c-.4-.53-1.38-.29-1.78-.62s.22-1.35-.13-2-1.86-.24-1.76-.94a2.9 2.9 0 0 0 -.29-2.14 21.071 21.071 0 0 1 -1.19-2 2.12 2.12 0 0 0 -2.59-1.21c.67-1.12.86-1.92.54-2.44l-2.11-3.49-2.49 3c-.36.45-.35 1.23 0 2.37-2.43-.36-3 .3-2.41 2.82-.72-.22-1.53-.4-1.89 0-1.12 1.32-2.83 2.19-3 4.26 0 .18 0 .32-.25.33-1.63.11-2 1.14-1.45 2.73-.87-.19-1.57-.18-2 .33a11.731 11.731 0 0 0 -2.33 2.79 4.777 4.777 0 0 1 -2 2.25 6.15 6.15 0 0 0 -2.23 2.62 4.674 4.674 0 0 1 -2 2.3 5.439 5.439 0 0 0 -2.25 2.6 4.793 4.793 0 0 1 -2 2.32 6.133 6.133 0 0 0 -2.23 2.5 5.118 5.118 0 0 1 -2.1 2.37 12.046 12.046 0 0 0 -2.21 2.41 1.65 1.65 0 0 0 -.29 1.87c.21.53.08.57-.43.49-1.51-.22-2.24.38-2.08 1.68h-.24l.33.48v.12c.15.56 0 .58-.47.46a2.162 2.162 0 0 0 -.6-.07l-4.33.16 6.83 3.46a1.659 1.659 0 0 0 1.2.12c.76-.18.86-1.92 1.27-1.74.74.33 1.38 1 2.11.76.94-.26 2-.1 2.84-.56a3 3 0 0 1 2.76-.12h.08c.62 0 1-1.15 1.45-1.09s.82 1.17 1.48 1.19a9.816 9.816 0 0 1 1.69.24 6.143 6.143 0 0 0 1.69.09 3.618 3.618 0 0 1 2.6.54 6.221 6.221 0 0 0 3.33.9 4.254 4.254 0 0 1 2.66.86 5.9 5.9 0 0 0 3.2 1.22 4.431 4.431 0 0 1 2.78 1.17 5.539 5.539 0 0 0 2.95 1.28 5.264 5.264 0 0 1 3 1.41 11.352 11.352 0 0 0 2.86 1.4h.31l1.13-2.42-1.14 2.581a2.14 2.14 0 0 0 .39.24 9.022 9.022 0 0 0 3.78 1.23 5.577 5.577 0 0 1 3.11.7 9.608 9.608 0 0 0 3 .57 2.18 2.18 0 0 0 2.6-1.34c.75 1.69 1.85 2.34 2.7 1.46s1.18-.86 1.9.09 1.72.42 2.86-1.09c.43.84 1 1.49 1.79 1.45a11.694 11.694 0 0 0 3.7-.31 5.823 5.823 0 0 1 3-.36 6.418 6.418 0 0 0 3.79-.74 5.385 5.385 0 0 1 2.93-.83 3.37 3.37 0 0 0 1.54-.39l1.51-.71a2.28 2.28 0 0 0 1.6-2.73 2.516 2.516 0 0 0 2.69-.05 2.419 2.419 0 0 0 .25-2.68 2.891 2.891 0 0 0 1.66-.24 2.188 2.188 0 0 0 .9-1 2.269 2.269 0 0 0 -.85-2.53c.68-.23 1.53-.58 1.61-1.31a13.823 13.823 0 0 0 0-3.34 4 4 0 0 0 -1.61-2.758z"/><path d="m1009.169 433.449c.08-2.05-.24-3.79-1.6-5 1.59-1.88 2.19-4.12 1.22-5.72a3.091 3.091 0 0 1 0-3.86c.87-1.51.33-3.46-1.23-5.78a4.76 4.76 0 0 0 1.4-3.62 52.239 52.239 0 0 0 -.32-7.43 21.328 21.328 0 0 1 -.26-6 27.071 27.071 0 0 0 -.41-7.58 21.167 21.167 0 0 1 -.43-3.23l-.14-3-2.86.82a18.375 18.375 0 0 1 -2.78.56 14.622 14.622 0 0 0 -3 1l-2.94 1.47a9.446 9.446 0 0 0 -2.57 1.74 4.285 4.285 0 0 0 -1.21 2.34c-3.48-.3-5.59 1.24-6.24 4.53a5.349 5.349 0 0 0 -5.844 4.8c-.006.065-.012.13-.016.2a3.818 3.818 0 0 0 -2.9.66c-2.76 2.48-6 4.53-7.74 7.8a1.222 1.222 0 0 1 -.79.61c-2.61 1.07-3.31 1.79-4.12 4.38a5.639 5.639 0 0 0 -3.4 1 72.474 72.474 0 0 1 -6.09 4.09 4.266 4.266 0 0 0 -1.67 1.74 1.11 1.11 0 0 1 -1.27.75 5.78 5.78 0 0 0 -3 .54 5.091 5.091 0 0 0 -2.06 2c-.41.66-.64.68-1.24.4a4.847 4.847 0 0 0 -3.13-.14 4.475 4.475 0 0 0 -2 1.17c-.56.45-1 .87-1.29.78-.7-.2-1.33-.51-2-.69a5.57 5.57 0 0 0 -1-.2 5.247 5.247 0 0 0 -1.14-.08c-2 .11-4.13-.51-6.1-.43a12.167 12.167 0 0 1 -5.69-1.42c-1.4-.7-2.85.58-3.72-.11a10.239 10.239 0 0 0 -3.39-2.2c-2.13-.67-4.25-1.4-6.45-2a3.992 3.992 0 0 0 -2.24-.18c-.81.24-1.21-.06-2-.45a17.993 17.993 0 0 0 -12-1.08 2.435 2.435 0 0 0 -1.14.81c-.41.49-.63.49-1.3.25-2.44-.94-4.42-.32-6.15 1.79a1.181 1.181 0 0 1 -1.14.61c-3.07.06-4.35 1-5.63 3.739a5.529 5.529 0 0 0 -3.52 1c-1.23.88-1.42 2.151-2.22 2.9s-2.24.409-3.51 1.2-1.41 2.61-2.61 2.76a12.456 12.456 0 0 0 -3.88 1 11.225 11.225 0 0 1 -3.94 1.06c-1.67.1-3.48.24-4.62 1.61a5.709 5.709 0 0 0 -3.84-1.76 5.119 5.119 0 0 0 -2.06.45 6.819 6.819 0 0 0 -2 1.46 5.289 5.289 0 0 0 -4.43-.27 5.929 5.929 0 0 0 -3.09 3.83 3.269 3.269 0 0 0 -3.08 1.51 10 10 0 0 0 -1.5 7.23 7.944 7.944 0 0 0 4 5.5 1.362 1.362 0 0 1 .77.63 5.5 5.5 0 0 0 2.85 2.63 5.314 5.314 0 0 0 3.45.13 4.4 4.4 0 0 0 3 2.28 19.011 19.011 0 0 0 8.38.38 53.956 53.956 0 0 1 6.58-1.17 20.225 20.225 0 0 0 7.11-2.33 21.387 21.387 0 0 1 6-2.36 27.618 27.618 0 0 0 6.56-2.44 13.1 13.1 0 0 1 5.87-1.51c2.13-.09 4.31-.19 6.33-.35a10.856 10.856 0 0 1 5.89 1.1c.91.48 1.9.74 2.89 1.18a24.256 24.256 0 0 1 3 1.27 6.1 6.1 0 0 0 1.69.61 3.3 3.3 0 0 0 1.61 0c.7-.19.87 0 1.15.66a5 5 0 0 0 5.21 3.28c.82 0 .95.14 1.11.79a4.86 4.86 0 0 0 2.06 2.6c1.46 1.06 3.49.46 4 1.08.87 1.17 1.35 2.42 2.94 3.29.5.28 1 .58 1.49.88l1.54.86c.52.28 1 .56 1.56.8a16.529 16.529 0 0 0 1.63.58l1.64.49c.55.14 1.09.3 1.62.469s1 .38 1.55.61a13.84 13.84 0 0 1 1.57.67 1.065 1.065 0 0 0 .2.05c1.5.44 2.64-.6 3.59-.4a5.345 5.345 0 0 1 1.57.75 3.669 3.669 0 0 0 2 .62 26.6 26.6 0 0 0 8.08-.69 32.393 32.393 0 0 1 6-1.36 21.725 21.725 0 0 0 7.39-2.45 23.2 23.2 0 0 1 5.711-2.26 25.536 25.536 0 0 0 6.82-2.76 17.576 17.576 0 0 1 5.93-2.21 30.56 30.56 0 0 0 6.28-1.94 14.307 14.307 0 0 1 6.49-1.15c1 0 2 0 3.06-.05h2.97a10.7 10.7 0 0 0 1.66-.25 8.4 8.4 0 0 0 1-.37l-1.74-2 1.74 2a10.627 10.627 0 0 0 .36-1 25.731 25.731 0 0 0 .65-2.73c.08-.47.15-1 .2-1.43s.08-1 .09-1.26a23.068 23.068 0 0 0 0-3.68 19.93 19.93 0 0 1 .16-6.28c.249-1.938-.021-4.088.059-6.118z"/><path d="m722.689 443.369a7.764 7.764 0 0 0 -2.83-2.91 12.739 12.739 0 0 0 -3.77-1.51 3.818 3.818 0 0 0 -3.65.68c-.52.52-.73.47-1.36.11a4.218 4.218 0 0 0 -1.67-.56 3.823 3.823 0 0 0 -1.65.13 4.161 4.161 0 0 0 -2.51 2c-.39.68-.6.67-1.19.44a4.136 4.136 0 0 0 -3 .22c-1.46.57-1.92 2.51-2.62 2.48-1.28-.09-2.33-.53-3.62-.2a6.039 6.039 0 0 1 -1.27.18l-1.28.11a18.394 18.394 0 0 0 -2.57.12 11.035 11.035 0 0 1 -2.6-.07 6.787 6.787 0 0 1 -2.45-.92.627.627 0 0 0 -.15 0 2.71 2.71 0 0 0 -1.62.1 2.236 2.236 0 0 1 -1.35.1c-.88-.36-1.2-1.6-2.44-2.05-2.09-.75-4.16-1.94-6.37-2.43a21.236 21.236 0 0 1 -5.17-1.83 14.833 14.833 0 0 0 -7.23-1.45c-1.06.05-2.07.2-3.05.18s-2 .16-3.09.15a12.446 12.446 0 0 0 -7 2.72 37.108 37.108 0 0 1 -5.06 3.58 20.309 20.309 0 0 0 -4.67 3.86 9.642 9.642 0 0 1 -4.78 3 32.12 32.12 0 0 1 -4.86 1.23c-.159.039-.315.086-.47.14a3.243 3.243 0 0 0 -.59-.06 20.035 20.035 0 0 1 -5.17-1.26 9.389 9.389 0 0 1 -4.34-2.81 26.465 26.465 0 0 0 -4.54-3.33c-1.62-1.12-3.36-1.65-4.91-.83-1-2.19-3-3.48-4.74-2.91s-2.32.4-3.51-.76-3-.95-5.34.16a4.092 4.092 0 0 0 -3-2 33.313 33.313 0 0 0 -6.78-.77 23.63 23.63 0 0 1 -5.52-.31 17.568 17.568 0 0 0 -7.12.32 19.387 19.387 0 0 1 -5.43.8 23.636 23.636 0 0 0 -5.58 1.2c-2 .48-3.56 1.4-4 3.08-3.11-1.09-5.56.22-6.24 3.42a4.844 4.844 0 0 0 -2.26.27 5 5 0 0 0 -1.77 1.33 4.613 4.613 0 0 0 -.92 2 3.906 3.906 0 0 0 .14 2 6.346 6.346 0 0 0 -1.35.6 2.593 2.593 0 0 0 -1 1.32 13.323 13.323 0 0 0 -.56 6.24 7.938 7.938 0 0 0 3.11 5.14 1.518 1.518 0 0 1 .61.86 5.5 5.5 0 0 0 2 2.72 5 5 0 0 0 3.12.57 4.42 4.42 0 0 0 2.58 2.55 19.71 19.71 0 0 0 7.85 1.08 3.7 3.7 0 0 0 2.4-1 1.352 1.352 0 0 1 1.5-.5 4.985 4.985 0 0 0 1.79 0 3.805 3.805 0 0 0 1.23-.36 4.652 4.652 0 0 0 1.76-1.88c.36-.62.57-.63 1.1-.33a3.993 3.993 0 0 0 2.72.4 3.5 3.5 0 0 0 1.81-.93c.51-.44 1-.72 1.19-.61 1.18.62 2 1.38 3.42 1.53 1.76.23 3.47 1.11 5.21 1.36a9.86 9.86 0 0 1 4.75 2.061c1.1.88 2.68-.16 3.31.63a8.422 8.422 0 0 0 2.59 2.59l5.35 2.85a3.355 3.355 0 0 0 1.94.51c.76-.1 1 .25 1.62.74a17.828 17.828 0 0 0 9.95 3.91 2 2 0 0 0 1.21-.39c.51-.341.7-.3 1.17.18 1.7 1.68 3.57 1.909 5.76.57.43-.25.59-.41 1.18-.16a6.036 6.036 0 0 0 1.82.5 3.594 3.594 0 0 0 1.53-.1 4.574 4.574 0 0 0 1.37-.72 8.54 8.54 0 0 0 1.34-1.42 4.473 4.473 0 0 0 1.68.21 4 4 0 0 0 1.89-.56c1.36-.75 1.55-2 2.31-2.76s2.17-.49 3.331-1.45.83-2.75 1.89-3.15a8.673 8.673 0 0 0 3.27-2 22 22 0 0 1 3.11-2.63 8.035 8.035 0 0 0 1.74-1.46 3.55 3.55 0 0 0 .909-2 8.807 8.807 0 0 0 1.891.63 3.5 3.5 0 0 0 1.59 0 5.788 5.788 0 0 0 2.9-2.19c2.65 1.7 4 1.58 6.73-.56a3.132 3.132 0 0 0 2.24 1.44c3.14.08 6.28 1.12 9.51.3a.8.8 0 0 1 .76.07 4.611 4.611 0 0 0 5.68.07 4 4 0 0 0 2.75 1.68c2.28.3 4.67.87 6.93.67a24.166 24.166 0 0 1 5.83.24 16.018 16.018 0 0 0 6.82-.51 36.39 36.39 0 0 1 6-1.39 13.737 13.737 0 0 0 3.39-1 11.327 11.327 0 0 0 3.09-2 64.833 64.833 0 0 0 4.86-4.75 10 10 0 0 0 2.51-7.25 18.532 18.532 0 0 0 -2.021-7.301z"/></g></svg>