<svg xmlns="http://www.w3.org/2000/svg" version="1.1" viewBox="0 0 3000 2500" width="3000" height="2500">
<defs/><!--ITEM: Illustration component 1--><g transform="translate(505.0 413.0) rotate(0.0 745.5 554.5)  scale(1.0002207059773753 1.0003535965823809)"><svg width="1490.671" height="1108.608" viewBox="0.0 0.0 1490.671 1108.608"><path d="m1331.996 1106.108h-1173.321c-86.253 0-156.175-69.922-156.175-156.175v-791.258c0-86.253 69.922-156.175 156.175-156.175h1173.321c86.253 0 156.176 69.922 156.176 156.175v791.258c-.001 86.253-69.923 156.175-156.176 156.175z" fill="#fff"/><path d="m6.419 124.349h1477.832c-13.273-70.265-78.767-121.849-149.477-121.849h-1178.876c-70.711 0-134.4 52.632-149.479 121.849z" fill="#cad5f3"/><path d="m126.303 212.64h1360.645v83.848h-1360.645z" fill="#cad5f3"/><path d="m126.303 5.88c-70.714 14.909-123.803 77.644-123.803 152.794v791.258c0 75.152 53.088 137.887 123.803 152.796z" fill="#cad5f3"/><path d="m1334.846 1108.608h-1179.021c-85.922 0-155.825-69.902-155.825-155.825v-796.958c0-85.922 69.903-155.825 155.825-155.825h1179.021c85.922 0 155.825 69.902 155.825 155.824v796.958c.001 85.924-69.903 155.826-155.825 155.826zm-1179.021-1103.608c-83.165 0-150.825 67.66-150.825 150.825v796.958c0 83.165 67.66 150.825 150.825 150.825h1179.021c83.165 0 150.825-67.66 150.825-150.825v-796.958c.001-83.165-67.66-150.825-150.825-150.825z" fill="#000000"/><circle cx="136.701" cy="66.98" fill="#ff6996" r="28.108"/><circle cx="225.889" cy="66.98" fill="#fbb348" r="28.108"/><circle cx="315.078" cy="66.98" fill="#92acef" r="28.108"/><path d="m136.701 97.587c-16.877 0-30.607-13.73-30.607-30.607 0-16.878 13.73-30.608 30.607-30.608 16.878 0 30.608 13.73 30.608 30.608 0 16.877-13.73 30.607-30.608 30.607zm0-56.215c-14.12 0-25.607 11.488-25.607 25.608s11.487 25.607 25.607 25.607 25.608-11.487 25.608-25.607-11.488-25.608-25.608-25.608z" fill="#000000"/><path d="m225.889 97.587c-16.877 0-30.607-13.73-30.607-30.607 0-16.878 13.73-30.608 30.607-30.608s30.607 13.73 30.607 30.608c.001 16.877-13.73 30.607-30.607 30.607zm0-56.215c-14.12 0-25.607 11.488-25.607 25.608s11.487 25.607 25.607 25.607 25.608-11.487 25.608-25.607-11.488-25.608-25.608-25.608z" fill="#000000"/><path d="m315.078 97.587c-16.878 0-30.608-13.73-30.608-30.607 0-16.878 13.73-30.608 30.608-30.608 16.877 0 30.607 13.73 30.607 30.608 0 16.877-13.73 30.607-30.607 30.607zm0-56.215c-14.12 0-25.608 11.488-25.608 25.608s11.488 25.607 25.608 25.607 25.607-11.487 25.607-25.607-11.487-25.608-25.607-25.608z" fill="#000000"/><path d="m1482.825 127.198h-1477.112c-1.381 0-2.5-1.119-2.5-2.5s1.119-2.5 2.5-2.5h1477.111c1.381 0 2.5 1.119 2.5 2.5s-1.118 2.5-2.499 2.5z" fill="#000000"/><path d="m126.302 1105.768c-1.381 0-2.5-1.119-2.5-2.5v-978.57c0-1.381 1.119-2.5 2.5-2.5s2.5 1.119 2.5 2.5v978.57c-0 1.381-1.119 2.5-2.5 2.5z" fill="#000000"/><path d="m1486.947 753.727h-1360.645c-1.381 0-2.5-1.119-2.5-2.5s1.119-2.5 2.5-2.5h1360.645c1.381 0 2.5 1.119 2.5 2.5s-1.119 2.5-2.5 2.5z" fill="#000000"/><circle cx="65.029" cy="252.76" fill="#ef4910" r="22.498"/><circle cx="65.029" cy="585.071" fill="#ef4910" r="22.498"/><path d="m371.396 260.26h-129.841c-4.143 0-7.5-3.357-7.5-7.5s3.357-7.5 7.5-7.5h129.841c4.143 0 7.5 3.357 7.5 7.5s-3.357 7.5-7.5 7.5z" fill="#6f5490"/><path d="m703.739 592.571h-282.254c-4.143 0-7.5-3.357-7.5-7.5s3.357-7.5 7.5-7.5h282.254c4.143 0 7.5 3.357 7.5 7.5s-3.358 7.5-7.5 7.5z" fill="#92acef"/><g fill="#fbb348"><path d="m764.324 343.337h-420.647c-4.143 0-7.5-3.357-7.5-7.5s3.357-7.5 7.5-7.5h420.646c4.143 0 7.5 3.357 7.5 7.5s-3.357 7.5-7.499 7.5z"/><path d="m764.324 675.649h-420.647c-4.143 0-7.5-3.357-7.5-7.5s3.357-7.5 7.5-7.5h420.646c4.143 0 7.5 3.357 7.5 7.5s-3.357 7.5-7.499 7.5z"/><path d="m590.114 840.177h-374.139c-4.143 0-7.5-3.357-7.5-7.5s3.357-7.5 7.5-7.5h374.139c4.143 0 7.5 3.357 7.5 7.5s-3.358 7.5-7.5 7.5z"/><path d="m725.222 840.177h-71.175c-4.143 0-7.5-3.357-7.5-7.5s3.357-7.5 7.5-7.5h71.175c4.143 0 7.5 3.357 7.5 7.5s-3.357 7.5-7.5 7.5z"/><path d="m616.976 426.416h-273.299c-4.143 0-7.5-3.357-7.5-7.5s3.357-7.5 7.5-7.5h273.299c4.143 0 7.5 3.357 7.5 7.5s-3.357 7.5-7.5 7.5z"/></g><path d="m84.179 985.904h-38.299c-1.849 0-3.349-1.499-3.349-3.349v-38.299c0-1.849 1.499-3.349 3.349-3.349h38.299c1.849 0 3.349 1.499 3.349 3.349v38.299c0 1.849-1.5 3.349-3.349 3.349z" fill="#fff"/><path d="m42.531 786.016v34.16c0 2.489 2.62 4.108 4.846 2.995l34.16-17.08c2.468-1.234 2.468-4.756 0-5.99l-34.16-17.08c-2.226-1.113-4.846.506-4.846 2.995z" fill="#fff"/><path d="m56.383 905.234h-10.503c-1.849 0-3.349-1.499-3.349-3.349v-38.299c0-1.849 1.499-3.349 3.349-3.349h10.503c1.849 0 3.349 1.499 3.349 3.349v38.299c-.001 1.85-1.5 3.349-3.349 3.349z" fill="#fff"/><path d="m84.179 905.234h-10.503c-1.849 0-3.349-1.499-3.349-3.349v-38.299c0-1.849 1.499-3.349 3.349-3.349h10.503c1.849 0 3.349 1.499 3.349 3.349v38.299c0 1.85-1.5 3.349-3.349 3.349z" fill="#fff"/><path d="m810.522 260.26h-389.037c-4.143 0-7.5-3.357-7.5-7.5s3.357-7.5 7.5-7.5h389.037c4.143 0 7.5 3.357 7.5 7.5s-3.357 7.5-7.5 7.5z" fill="#92acef"/><path d="m371.396 592.571h-129.841c-4.143 0-7.5-3.357-7.5-7.5s3.357-7.5 7.5-7.5h129.841c4.143 0 7.5 3.357 7.5 7.5s-3.357 7.5-7.5 7.5z" fill="#6f5490"/><path d="m302.342 923.255h-86.367c-4.143 0-7.5-3.357-7.5-7.5s3.357-7.5 7.5-7.5h86.367c4.143 0 7.5 3.357 7.5 7.5s-3.357 7.5-7.5 7.5z" fill="#fbb348"/><path d="m548.408 923.255h-186.737c-4.143 0-7.5-3.357-7.5-7.5s3.357-7.5 7.5-7.5h186.737c4.143 0 7.5 3.357 7.5 7.5s-3.358 7.5-7.5 7.5z" fill="#fbb348"/><circle cx="65.029" cy="252.76" fill="#ef4910" r="22.498"/><circle cx="65.029" cy="585.071" fill="#ef4910" r="22.498"/></svg></g><!--ITEM: Illustration component 2--><g transform="translate(1330.0 626.0) rotate(0.0 685.5 726.0)  scale(1.0003867286405395 1.0002225012864432)"><svg width="1370.47" height="1451.677" viewBox="0.0 0.0 1370.47 1451.677"><path d="m522.037 145.435s-143.934-63.123-195.354 53.024c-62.737 141.71 115.933 279.629 117.826 331.037-109.793 327.175 159.14 663.962 435.597 623.715s512.505-270.478 385.457-474.807c-113.476-182.502-269.665-137.76-303.913-248.822 0 0 29.122-173.064-138.812-281.69-167.934-108.626-300.801-2.457-300.801-2.457z" fill="#ff6996"/><path d="m964.978 488.531c-1.162 0-2.203-.815-2.446-1.998-4.621-22.526-3.434-55.646-3.381-57.046.052-1.379 1.247-2.452 2.592-2.403 1.38.052 2.456 1.213 2.404 2.592-.013.337-1.217 33.923 3.283 55.852.277 1.353-.594 2.675-1.946 2.952-.17.034-.339.051-.506.051z" fill="#000000"/><path d="m835.043 1158.959c-108.62.005-218.111-55.271-300.145-153.498-52.411-62.759-89.313-138.169-106.717-218.078-9.139-41.958-12.77-84.708-10.791-127.062 2.076-44.454 10.352-88.585 24.599-131.174-.907-15.56-19.604-41.015-41.222-70.442-24.277-33.05-54.492-74.182-72.848-118.689-21.627-52.438-22.779-99.072-3.523-142.566 11.97-27.037 29.929-46.722 53.38-58.507 18.711-9.404 40.892-13.793 65.939-13.048 37.78 1.125 70.917 13.813 77.953 16.681 6.466-4.811 38.748-27.486 87.211-39.077 31.786-7.602 64.245-9.043 96.476-4.289 40.249 5.939 80.232 21.612 118.84 46.586 38.596 24.965 69.974 55.433 93.263 90.558 18.64 28.113 32.162 59.246 40.191 92.534 12.801 53.07 7.364 95.011 6.559 100.504 15.527 49.525 55.888 67.169 106.936 89.48 60.059 26.251 134.804 58.921 196.542 158.214 43.017 69.183 47.245 145.582 12.229 220.941-28.92 62.239-82.473 119.851-154.868 166.605-72.516 46.832-157.091 78.318-244.58 91.055-15.068 2.192-30.244 3.272-45.424 3.272zm-396.737-1028.146c-22.08 0-41.687 4.24-58.349 12.629-22.356 11.256-39.512 30.106-50.988 56.03-18.674 42.18-17.505 87.528 3.573 138.637 18.124 43.944 48.138 84.805 72.255 117.636 23.232 31.626 41.582 56.606 42.21 73.66.012.301-.032.602-.128.887-14.191 42.289-22.433 86.115-24.494 130.263-1.957 41.919 1.637 84.232 10.682 125.766 17.233 79.124 53.773 153.794 105.67 215.937 92.376 110.612 219.85 166.118 341.01 148.482 86.785-12.634 170.671-43.862 242.588-90.307 35.007-22.608 65.875-48.087 91.745-75.727 26.415-28.221 47.04-58.093 61.302-88.786 34.271-73.755 30.142-148.514-11.941-216.193-60.918-97.975-134.874-130.3-194.299-156.272-52.408-22.907-93.804-41-109.88-93.134-.115-.372-.142-.767-.077-1.15.072-.43 7.041-43.584-6.446-99.32-7.909-32.688-21.207-63.253-39.524-90.85-22.897-34.499-53.762-64.445-91.732-89.006-37.956-24.552-77.222-39.966-116.708-45.815-31.572-4.677-63.368-3.289-94.509 4.131-53.108 12.651-86.338 38.818-86.668 39.082-.725.578-1.712.707-2.563.336-.356-.156-36.141-15.635-77.6-16.838-1.725-.054-3.436-.078-5.129-.078z" fill="#000000"/><path d="m445.163 515.533c-.017 0-.033 0-.049 0-1.381-.027-2.479-1.168-2.452-2.548.153-7.942 4.143-15.297 11.535-21.269 5.438-4.392 10.792-6.499 11.018-6.586 1.292-.505 2.737.139 3.235 1.425.5 1.286-.137 2.733-1.422 3.234-.19.074-19.064 7.644-19.366 23.291-.026 1.365-1.14 2.453-2.499 2.453z" fill="#000000"/><path d="m588.178 174.549c-.285 0-.574-.049-.857-.152-28.927-10.56-65.905-26.506-66.275-26.666-1.268-.547-1.852-2.019-1.304-3.286.547-1.268 2.021-1.853 3.286-1.304.369.159 37.219 16.049 66.008 26.559 1.297.474 1.965 1.909 1.491 3.206-.37 1.013-1.328 1.643-2.349 1.643z" fill="#000000"/><path d="m870.453 132.54c1.525-73.322 62.203-131.537 135.526-130.011s131.525 62.212 130 135.536c-1.526 73.324-62.203 131.52-135.524 129.994-73.324-1.525-131.529-62.195-130.002-135.519z" fill="#ff6996"/><path d="m935.762 222.788c-21.01 0-35.052-2.287-35.302-2.329-.846-.143-1.56-.708-1.892-1.499-.331-.791-.234-1.697.257-2.4 44.201-63.176 102.907-94.006 144.371-108.744 23.464-8.341 44.014-12.523 57.12-14.564 14.246-2.218 22.83-2.454 23.188-2.463.804-.032 1.554.342 2.041.971.486.63.645 1.455.424 2.22-10.297 35.768-28.597 64.689-54.39 85.963-20.616 17.003-46.011 29.156-75.479 36.123-22.237 5.255-43.521 6.722-60.338 6.722zm-30.46-6.711c12 1.458 49.278 4.694 89.801-4.915 28.686-6.803 53.369-18.624 73.365-35.136 24.148-19.94 41.527-46.856 51.691-80.046-9.809.693-39.36 3.751-75.464 16.608-39.981 14.239-96.284 43.716-139.393 103.489z" fill="#000000"/><path d="m900.328 217.773c-1.351 0-2.462-1.076-2.498-2.434-.023-.891-.513-22.142 5.545-50.136 5.604-25.901 18.138-62.51 46.014-89.82 28.878-28.289 68.439-41.446 117.545-39.136 1.379.065 2.444 1.236 2.379 2.615-.064 1.379-1.247 2.446-2.615 2.379-47.679-2.252-85.966 10.437-113.81 37.714-51.73 50.68-50.082 135.4-50.06 136.251.037 1.38-1.052 2.528-2.433 2.565-.023.002-.045.002-.067.002z" fill="#000000"/><path d="m1003.256 270.589c-.951 0-1.898-.01-2.854-.03-36.131-.751-69.805-15.526-94.821-41.604-25.017-26.078-38.38-60.337-37.627-96.467.751-36.131 15.527-69.807 41.607-94.826s60.364-38.386 96.469-37.632c74.584 1.552 133.999 63.498 132.447 138.086-1.532 73.625-61.922 132.469-135.221 132.473zm-.113-265.589c-33.768 0-65.675 12.818-90.121 36.271-25.115 24.095-39.346 56.526-40.07 91.321s12.146 67.788 36.237 92.902c24.092 25.113 56.521 39.342 91.316 40.066.916.019 1.837.028 2.749.028 70.597.003 128.748-56.668 130.225-127.576 1.494-71.832-55.726-131.488-127.553-132.984-.929-.018-1.858-.028-2.783-.028zm-132.69 127.54h.01z" fill="#000000"/><path d="m576.329 1060.621c-20.203 80.578-218.024 320.771-328.075 345.536-80.493 18.113-393.717-177.169-41.035-382.229 76.248-44.333 100-104.997 187.613-207.816 98.27-115.325 201.524-82.613 201.524-82.613z" fill="#6f5490"/><path d="m236.559 1409.818c-24.08 0-58.818-11.562-91.44-31.016-26.488-15.796-74.056-50.207-95.022-103.197-15.452-39.054-12.61-79.011 8.448-118.763 24.657-46.545 74.252-91.989 147.406-135.069 50.292-29.616 77.988-66.564 116.32-117.704 19.438-25.931 41.469-55.322 70.658-89.578 22.608-26.532 47.381-47.433 73.629-62.122 21.045-11.777 43.077-19.608 65.484-23.277 38.249-6.266 63.992 1.684 65.069 2.023 1.093.347 1.811 1.393 1.74 2.536l-20.028 327.122c-.009.154-.033.307-.07.456-10.027 39.993-63.859 120.081-130.909 194.76-34.972 38.95-70.653 73.191-103.188 99.019-37.348 29.649-69.597 47.679-95.854 53.588-3.656.822-7.767 1.222-12.243 1.222zm324.217-678.087c-8.297 0-17.798.62-28.207 2.342-34.274 5.667-85.661 24.782-135.833 83.661-29.089 34.138-51.07 63.463-70.464 89.335-38.682 51.604-66.629 88.889-117.784 119.014-72.346 42.604-121.308 87.386-145.525 133.102-20.342 38.4-23.106 76.951-8.217 114.582 20.422 51.613 66.992 85.272 92.934 100.743 37.66 22.459 77.855 34.202 100.026 29.208 25.517-5.741 57.09-23.447 93.843-52.625 32.317-25.656 67.788-59.697 102.576-98.443 66.436-73.995 119.728-153.051 129.723-192.413l19.891-324.862c-4.375-1.111-16.205-3.644-32.963-3.644zm15.552 328.89h.01z" fill="#000000"/><path d="m496.572 856.751c-3.949 119.27-205.028 425.979-37.77 540.008 116.087 83.886 403.049 62.802 487.061-32.728 136.64-155.372-60.657-544.611-99.677-626.241-37.668-98.081-82.871-127.741-196.63-111.203-140.586 11.805-137.935 143.644-137.935 143.644z" fill="#6f5490"/><path d="m671.247 1451.679c-34.759 0-68.604-2.949-99.643-8.752-46.937-8.775-86.45-24.039-114.268-44.141-52.646-35.892-74.121-93.419-65.596-175.832 7.328-70.844 35.564-149.026 60.477-218.005 21.825-60.432 40.675-112.621 41.854-148.281.046-1.38 1.223-2.446 2.582-2.416 1.38.046 2.461 1.202 2.416 2.582-1.207 36.449-20.181 88.983-42.149 149.813-49.813 137.926-111.807 309.579 3.288 388.047 27.28 19.712 66.099 34.677 112.314 43.317 43.413 8.116 92.4 10.595 141.662 7.171 49.082-3.412 95.983-12.507 135.634-26.301 41.922-14.583 74.483-34.121 94.166-56.502 55.029-62.572 61.779-171.043 20.063-322.398-33.627-122.005-90.221-239.177-114.388-289.212-2.166-4.484-4.089-8.465-5.731-11.9-.028-.06-.055-.12-.078-.182-19.869-51.738-40.417-80.843-68.705-97.32-28.992-16.887-67.612-20.681-125.231-12.306-.05.008-.1.014-.15.018-31.562 2.65-58.314 11.699-79.515 26.895-16.929 12.134-30.404 28.213-40.053 47.793-16.51 33.507-16.083 66.091-16.076 66.416.026 1.38-1.071 2.521-2.451 2.548-1.362.004-2.52-1.069-2.549-2.449-.027-1.37-.479-33.964 16.504-68.547 10.002-20.366 24.002-37.105 41.61-49.752 21.944-15.76 49.545-25.14 82.035-27.879 58.771-8.538 98.37-4.542 128.393 12.943 29.336 17.087 50.521 46.926 70.82 99.755 1.631 3.41 3.536 7.354 5.68 11.793 24.226 50.157 80.959 167.615 114.706 290.059 42.192 153.082 35.083 263.11-21.13 327.029-20.25 23.026-53.542 43.056-96.277 57.922-40.062 13.938-87.412 23.123-136.929 26.566-14.494 1.008-28.966 1.508-43.285 1.508z" fill="#000000"/><path d="m575.684 570.957 25.098 133.868s87.264 60.201 152.191-37.586l-24.332-128.741z" fill="#fbb348"/><path d="m661.903 725.677c-34.831 0-61.25-17.904-62.54-18.795-.543-.374-.916-.948-1.037-1.597l-25.099-133.867c-.25-1.335.61-2.625 1.938-2.906l152.957-32.46c.66-.141 1.345-.008 1.904.364.56.373.946.956 1.07 1.617l24.332 128.742c.121.641-.013 1.304-.373 1.847-20.678 31.142-45.765 49.746-74.565 55.297-6.385 1.23-12.613 1.758-18.587 1.758zm-58.86-22.363c5.622 3.563 38.582 23.026 76.554 15.686 27.155-5.251 50.946-22.843 70.729-52.299l-23.666-125.227-148.068 31.422z" fill="#000000"/><path d="m496.171 288.901c-.227 0-.456-.031-.685-.097-.252-.071-25.362-7.173-38.566-7.751-1.38-.061-2.448-1.229-2.389-2.607.062-1.379 1.256-2.415 2.607-2.389 13.79.604 38.663 7.639 39.715 7.938 1.328.377 2.099 1.76 1.721 3.088-.312 1.101-1.313 1.818-2.403 1.818z" fill="#000000"/><path d="m384.683 521.224c-7.413-42.043 20.882-82.177 63.204-89.639 42.314-7.46 82.636 20.576 90.048 62.619 7.413 42.043-20.89 82.179-63.204 89.639-42.322 7.461-82.636-20.578-90.048-62.619z" fill="#fbb348"/><path d="m460.965 587.553c-16.293 0-32.16-4.935-45.776-14.404-17.559-12.21-29.267-30.496-32.968-51.491-3.701-20.994 1.047-42.183 13.371-59.662 12.32-17.474 30.738-29.148 51.861-32.872 43.589-7.689 85.303 21.312 92.944 64.646 3.701 20.995-1.048 42.184-13.374 59.663-12.321 17.475-30.739 29.148-51.859 32.872-4.737.835-9.488 1.248-14.199 1.248zm-73.82-66.763c3.469 19.673 14.441 36.81 30.898 48.254 16.462 11.448 36.442 15.831 56.253 12.336 19.812-3.493 37.086-14.441 48.642-30.829 11.552-16.384 16.004-36.241 12.536-55.914-7.162-40.618-46.257-67.803-87.153-60.59-19.812 3.493-37.088 14.442-48.643 30.83-11.551 16.382-16.002 36.239-12.533 55.913z" fill="#000000"/><path d="m509.222 546.258c-1.005 0-1.952-.61-2.334-1.604-.214-.544-17.044-41.823-89.299-68.443-1.296-.478-1.959-1.914-1.481-3.21.477-1.296 1.914-1.963 3.21-1.481 74.698 27.52 91.557 69.565 92.237 71.343.494 1.289-.149 2.734-1.439 3.229-.294.112-.597.166-.894.166z" fill="#000000"/><path d="m492.152 285.417c-23.793 13.918-53.457 53.019-53.59 124.937-.185 98.816 50.82 233.473 184.241 221.038 61.423-5.725 122.297-65.934 134.15-117.318 0 0 29.439 27.541 78.449 9.853 38.238-13.801 58.217-50.541 51.641-87.843-14.085-79.885-106.531-83.542-123.413-28.705-8.711 28.294-32.355 27.502-64.561 2.407-32.206-25.096-133.641-109.693-206.917-124.369z" fill="#fbb348"/><path d="m605.761 634.701c-38.494 0-71.865-12.679-99.397-37.812-22.968-20.966-41.599-50.936-53.88-86.669-10.652-30.994-16.484-66.463-16.422-99.871.062-32.965 6.183-61.68 18.194-85.346 9.456-18.632 22.467-33.457 36.634-41.745.529-.31 1.151-.415 1.754-.293 67.331 13.485 158.744 85.898 197.778 116.819 3.897 3.088 7.314 5.795 10.183 8.029 18.937 14.757 34.65 20.757 45.433 17.364 6.979-2.198 12.093-8.434 15.202-18.535 7.632-24.789 31.556-40.274 59.577-38.535 26.483 1.646 60.363 20.322 68.688 67.541 6.969 39.529-14.931 76.797-53.255 90.629-41.25 14.886-68.822-1.149-77.832-7.804-13.901 50.591-73.295 109.62-135.383 115.407-5.865.549-11.626.821-17.274.821zm-113.161-346.641c-24.989 15.135-51.413 55.007-51.538 122.3-.165 88.436 35.366 152.434 68.673 182.838 26.576 24.26 58.839 36.5 96.078 36.502 5.481 0 11.063-.265 16.758-.796 28.224-2.631 58.131-17.154 84.213-40.896 24.214-22.041 42.058-49.89 47.734-74.494.2-.871.852-1.569 1.706-1.83.854-.263 1.785-.046 2.438.566.281.262 29.007 26.251 75.892 9.326 35.994-12.991 56.566-47.968 50.028-85.059-4.888-27.722-24.602-60.965-64.075-63.418-25.656-1.605-47.55 12.478-54.487 35.016-3.622 11.767-9.84 19.112-18.479 21.833-12.601 3.973-29.426-2.15-50.008-18.189-2.877-2.241-6.304-4.956-10.214-8.053-38.572-30.555-128.65-101.913-194.719-115.646z" fill="#000000"/><path d="m815.999 474.666c-1.002 0-1.947-.606-2.331-1.596-4.228-10.884-19.622-11.304-19.777-11.307-1.381-.027-2.479-1.167-2.452-2.548s1.181-2.457 2.548-2.452c.77.016 18.915.522 24.342 14.496.5 1.287-.138 2.735-1.425 3.235-.298.117-.604.172-.905.172z" fill="#000000"/><path d="m785.831 487.175c-.017 0-.033 0-.05-.001-1.378-.026-2.474-1.16-2.451-2.538.026-1.523 1.188-37.775 49.675-78.828 1.054-.89 2.63-.761 3.523.293.892 1.054.761 2.631-.293 3.523-46.595 39.451-47.898 74.75-47.905 75.103-.03 1.361-1.143 2.448-2.499 2.448z" fill="#000000"/><path d="m490.046 437.051c-.618-3.507 1.72-6.852 5.231-7.47 3.504-.618 6.846 1.725 7.464 5.232.619 3.507-1.72 6.852-5.224 7.469-3.511.619-6.852-1.724-7.471-5.231z" fill="#000000"/><path d="m496.395 444.881c-4.26 0-8.045-3.06-8.811-7.396 0 0 0 0 0-.001-.415-2.354.111-4.728 1.48-6.686 1.371-1.958 3.424-3.266 5.779-3.68 2.355-.42 4.726.111 6.683 1.483 1.956 1.372 3.262 3.423 3.676 5.776.415 2.353-.109 4.727-1.479 6.685s-3.42 3.266-5.772 3.681c-.522.093-1.042.138-1.556.138zm-3.887-8.264c.378 2.144 2.433 3.573 4.575 3.203 1.036-.183 1.939-.759 2.543-1.622.604-.864.836-1.912.652-2.951-.183-1.04-.759-1.945-1.622-2.55-.861-.604-1.909-.839-2.944-.654-1.041.184-1.946.76-2.551 1.623s-.835 1.911-.653 2.951z" fill="#000000"/><path d="m602.202 416.928c-.618-3.507 1.719-6.851 5.231-7.47 3.505-.618 6.846 1.725 7.464 5.232.619 3.507-1.72 6.852-5.224 7.469-3.511.62-6.852-1.724-7.471-5.231z" fill="#000000"/><path d="m608.532 424.76c-1.819 0-3.592-.556-5.113-1.621-1.956-1.371-3.262-3.423-3.678-5.776 0 0 0 0 0-.001-.415-2.354.11-4.728 1.48-6.685 1.37-1.958 3.423-3.266 5.779-3.681 2.348-.416 4.726.111 6.684 1.484 1.956 1.371 3.261 3.423 3.675 5.776.416 2.352-.109 4.726-1.479 6.684-1.37 1.959-3.421 3.267-5.773 3.681-.526.093-1.052.139-1.575.139zm-3.868-8.266c.184 1.039.761 1.944 1.623 2.55.864.604 1.913.834 2.951.653 1.037-.183 1.94-.759 2.544-1.622.604-.864.836-1.911.652-2.95-.184-1.041-.759-1.946-1.622-2.551-.861-.604-1.911-.836-2.944-.654-1.041.184-1.947.76-2.551 1.624-.604.862-.835 1.91-.653 2.95z" fill="#000000"/><path d="m626.029 487.84c-3.387-19.21 9.436-37.523 28.646-40.91 19.211-3.387 37.516 9.438 40.903 28.648s-9.429 37.522-28.639 40.909c-19.211 3.388-37.523-9.436-40.91-28.647z" fill="#e79f33"/><path d="m459.925 516.643c-3.361-19.063 9.367-37.237 28.427-40.597 19.053-3.359 37.229 9.366 40.59 28.429 3.362 19.064-9.366 37.236-28.42 40.596-19.06 3.361-37.235-9.365-40.597-28.428z" fill="#e79f33"/><path d="m547.419 472.035c-.573 0-1.148-.195-1.618-.596-1.052-.895-1.18-2.472-.285-3.523 4.709-5.54 17.203-13.602 30.774-4.473 1.146.771 1.449 2.323.679 3.47-.771 1.147-2.323 1.448-3.47.679-13.295-8.943-23.735 3.047-24.175 3.562-.494.582-1.197.881-1.905.881z" fill="#000000"/><path d="m569.625 541.233c-15.683 0-27.687-9.212-28.243-9.646-1.089-.85-1.282-2.42-.433-3.509.846-1.088 2.416-1.285 3.506-.435.135.104 13.722 10.476 29.781 8.279 10.019-1.369 19.001-7.311 26.696-17.659.822-1.107 2.389-1.341 3.498-.514 1.107.823 1.338 2.39.514 3.498-8.541 11.485-18.662 18.092-30.084 19.636-1.781.241-3.53.35-5.235.35z" fill="#000000"/><path d="m114.776 1081.408c89.603-60.389 164.122-50.065 234.949-129.792 71.122-80.06 121.666-124.533 216.577-94.342 51.821 16.484 161.183 130.302 114.793 227.565-47.892 100.412-139.856 96.902-236.39 199.939-107.099 114.314-162.348 143.372-254.988 143.372-68.443 0-145.591-25.13-168.591-64.441-51.983-88.849 13.096-228.011 93.65-282.301z" fill="#6f5490"/><path d="m189.717 1430.651c-64.146 0-145.79-23.019-170.75-65.679-24.286-41.511-25.372-97.003-3.057-156.254 20.13-53.449 56.566-101.816 97.469-129.383l1.397 2.073-1.397-2.073c37.516-25.284 71.986-38.099 105.322-50.491 45.358-16.861 88.2-32.788 129.154-78.889 50.929-57.328 76.054-76.585 100.084-89.073 35.736-18.571 73.589-20.474 119.12-5.991 30.482 9.697 87.041 56.204 113.949 118.305 17.472 40.322 18.282 79.301 2.343 112.72-26.943 56.489-67.695 80.508-114.881 108.318-37.17 21.907-79.299 46.738-121.942 92.254-55.925 59.692-95.857 94.094-133.525 115.03-36.74 20.42-73.611 29.133-123.286 29.133zm321.242-580.317c-21.538 0-41.46 4.979-60.714 14.984-23.525 12.226-48.233 31.204-98.651 87.957-41.782 47.032-85.191 63.17-131.149 80.255-33.062 12.291-67.249 25-104.271 49.951-40.074 27.008-75.807 74.484-95.585 126.999-21.773 57.812-20.816 111.782 2.694 151.966 10.472 17.898 33.895 34.191 65.952 45.876 30.656 11.175 66.341 17.328 100.481 17.328 48.767 0 84.91-8.524 120.857-28.504 37.188-20.669 76.756-54.786 132.306-114.077 43.135-46.041 85.593-71.064 123.052-93.144 46.479-27.395 86.621-51.053 112.906-106.163 15.299-32.076 14.463-69.623-2.417-108.579-11.402-26.314-30.237-53.207-53.035-75.726-20.014-19.768-41.637-34.647-57.842-39.802-19.509-6.206-37.552-9.321-54.584-9.321z" fill="#000000"/><path d="m644.801 1302.012c-88.267 49.498-138.309-7.591-201.098-18.386-19.749-3.39-35.879-178.915 15.098-171.984 50.975 6.931 116.482 26.448 170.219 44.854z" fill="#fbb348"/><path d="m575.505 1324.45c-29.145 0-54.297-10.449-78.962-20.697-17.963-7.462-34.93-14.511-53.264-17.663-10.189-1.749-15.65-30.777-17.999-47.926-3.893-28.423-4.079-59.291-.499-82.574 6.359-41.365 22.196-48.072 34.356-46.426 54.02 7.345 122.64 28.507 170.693 44.966.917.314 1.57 1.131 1.675 2.096l15.78 145.517c.108.996-.389 1.96-1.263 2.45-26.449 14.833-49.52 20.257-70.517 20.257zm-119.462-210.498c-9.547 0-21.032 8.009-26.319 42.397-3.511 22.833-3.32 53.164.511 81.137 4.218 30.805 10.76 43.138 13.892 43.676 18.888 3.247 36.908 10.733 54.335 17.974 41.008 17.036 83.396 34.648 143.676 1.496l-15.431-142.286c-47.761-16.311-115.183-37.013-168.242-44.227-.79-.107-1.598-.167-2.422-.167z" fill="#000000"/><path d="m347.925 1230.447s-50.088 51.79-72.944 85.345c-28.05 41.18-105.77 42.098-83.167-44.982 11.388-43.876 40.86-86.318 89.368-120.432 44.415-31.236 114.955-44.939 177.62-38.735-2.716 40.023-3.689 48.29-110.877 118.804z" fill="#fbb348"/><path d="m225.447 1345.304c-6.173 0-12.125-1.144-17.475-3.571-9.766-4.431-16.748-12.712-20.191-23.949-3.859-12.593-3.316-28.609 1.613-47.603 12.111-46.663 43.354-88.798 90.349-121.85 43.106-30.315 113.488-45.687 179.305-39.178 1.374.137 2.378 1.36 2.242 2.734-.137 1.373-1.353 2.372-2.734 2.242-64.699-6.404-133.754 8.626-175.936 38.291-46.014 32.36-76.576 73.516-88.386 119.016-8.644 33.302-2.883 57.264 15.805 65.743 19.611 8.898 48.399-1.545 62.876-22.796 22.714-33.346 72.711-85.156 73.214-85.676.961-.991 2.544-1.019 3.535-.059.992.96 1.019 2.542.059 3.535-.499.516-50.202 52.022-72.675 85.014-11.873 17.431-32.754 28.107-51.601 28.107z" fill="#000000"/><path d="m370.619 1260.597c-13.883 10.064-29.864 42.505-46.504 71.243-21.696 37.469-98.577 26.784-67.37-67.578 10.942-33.085 52.48-102.382 130.653-112.594 100.297-8.755 91.058 45.224-16.779 108.929z" fill="#fbb348"/><path d="m288.507 1354.44c-5.636 0-11.27-1.117-16.523-3.477-9.507-4.27-38.873-23.197-17.612-87.487 11.591-35.048 54.242-104.039 132.702-114.288 1.377-.179 2.624.786 2.803 2.154.18 1.369-.785 2.624-2.154 2.803-75.998 9.928-117.354 76.884-128.603 110.901-19.947 60.315 6.371 77.52 14.912 81.356 16.964 7.617 38.459.523 47.921-15.816 3.445-5.951 6.903-12.134 10.248-18.114 13.116-23.451 25.506-45.603 36.952-53.899 1.114-.812 2.68-.562 3.491.558.811 1.117.561 2.681-.558 3.491-10.554 7.65-22.682 29.334-35.521 52.291-3.354 5.996-6.821 12.196-10.286 18.18-7.782 13.438-22.777 21.347-37.772 21.347z" fill="#000000"/><path d="m481.797 1283.626c-36.693-4.55-67.17 27.059-78.841 48.943-22.637 42.445-96.061 41.318-76.565-41.578 11.322-48.143 61.654-111.605 125.845-120.358z" fill="#fbb348"/><path d="m359.124 1362.69c-4.732 0-9.397-.788-13.806-2.45-21.731-8.191-29.717-34.293-21.361-69.821 5.949-25.297 22.295-53.748 43.726-76.108 17.438-18.194 46.204-40.972 84.216-46.155 1.372-.188 2.629.773 2.815 2.14.187 1.368-.771 2.629-2.14 2.815-36.584 4.988-64.394 27.039-81.282 44.66-20.839 21.743-36.715 49.329-42.468 73.793-7.727 32.853-.901 56.776 18.258 63.998 18.723 7.058 42.798-3.785 53.667-24.169 12.134-22.748 43.812-54.903 81.354-50.247 1.37.17 2.344 1.419 2.174 2.789-.171 1.37-1.418 2.336-2.789 2.174-35.049-4.347-64.843 26.108-76.327 47.638-9.488 17.788-28.234 28.942-46.037 28.943z" fill="#000000"/><path d="m462.63 771.772c2 27.8 67.605 113.896 121.599 165.511 61.133 58.44 147.986-1.722 101.774-76.461-33.193-53.684-72.181-116.537-130.864-142.517-45.659-20.215-96.328.375-92.509 53.467z" fill="#fbb348"/><path d="m638.056 963.288c-17.832 0-37.462-6.903-55.555-24.198-53.337-50.987-120.278-138.126-122.365-167.139-1.626-22.608 6.382-41.32 22.548-52.689 19.252-13.54 47.402-14.783 73.467-3.244 59.566 26.371 99.717 91.31 131.978 143.489 25.081 40.562 11.018 73.556-8.646 89.484-10.712 8.677-25.338 14.297-41.427 14.297zm-172.934-191.696c1.816 25.246 63.928 109.485 120.834 163.883 32.23 30.81 69.442 26.593 90.378 9.632 23.816-19.293 26.777-51.86 7.542-82.971-33.561-54.279-71.599-115.801-129.749-141.546-24.468-10.833-50.742-9.775-68.567 2.762-14.674 10.319-21.933 27.452-20.438 48.24z" fill="#000000"/><path d="m462.63 771.772c-6.871-55.088 18.076-113.624 43.122-149.347 25.046-35.724 71.487-69.21 111.221-76.304s40.783 28.252 25.594 49.281c-13.467 18.645-42.932 41.75-61.078 69.163-16.323 24.659-24.721 68.17-28.97 95.11-4.25 26.94-72.872 90.813-89.889 12.097z" fill="#fbb348"/><path d="m476.937 808.14c-.794 0-1.575-.378-2.061-1.081-18.413-26.717-22.036-61.262-10.768-102.676 11.104-40.816 33.114-74.149 39.596-83.394 26.557-37.876 74.008-70.398 112.828-77.33 20.253-3.612 29.465 3.52 33.625 10.142 7.8 12.415 3.105 31.062-5.564 43.064-5.859 8.113-14.724 17.088-24.107 26.589-12.489 12.646-26.646 26.979-36.913 42.49-11.968 18.079-21.585 49.745-28.585 94.12-.215 1.362-1.486 2.293-2.859 2.08-1.363-.216-2.295-1.495-2.08-2.859 7.113-45.088 16.989-77.421 29.354-96.101 10.537-15.918 24.875-30.436 37.525-43.243 9.245-9.361 17.978-18.202 23.612-26.004 8.819-12.212 11.134-28.323 5.383-37.477-4.793-7.63-14.657-10.352-28.512-7.88-37.644 6.722-83.743 38.381-109.613 75.279-6.363 9.076-27.973 41.801-38.865 81.836-10.863 39.928-7.479 73.076 10.061 98.524.783 1.137.497 2.694-.64 3.478-.434.3-.928.443-1.417.443z" fill="#000000"/><path d="m513.372 739.781s22.142-63.344 85.424-85.19c30.567-10.552 59.993 6.489 66.52 32.953 10.736 43.53-8.29 84.855-28.451 91.736-25.882 8.833-35.077-18.59-35.077-18.59l-26.274 29.543z" fill="#fbb348"/><path d="m575.512 792.733c-.591 0-1.184-.208-1.66-.632-1.032-.918-1.125-2.498-.207-3.529l26.274-29.544c.593-.666 1.491-.968 2.369-.788.873.179 1.586.809 1.869 1.654.039.113 4.082 11.763 13.832 16.563 5.269 2.594 11.349 2.747 18.068.455 9.374-3.199 18.672-14.923 24.265-30.598 6.449-18.075 7.36-38.734 2.565-58.173-3.081-12.494-10.488-22.613-20.858-28.491-11.76-6.666-26.458-7.59-42.5-2.671-59.455 18.235-83.571 83.001-83.808 83.652-.471 1.299-1.904 1.971-3.202 1.498-1.298-.47-1.969-1.902-1.499-3.2.25-.691 6.283-17.138 20.011-36.146 12.707-17.594 34.651-40.652 67.031-50.583 17.392-5.333 33.445-4.262 46.433 3.101 11.578 6.563 19.834 17.801 23.248 31.644 5.026 20.38 4.063 42.062-2.712 61.05-6.186 17.335-16.413 29.915-27.358 33.65-8.039 2.744-15.417 2.501-21.931-.721-7.869-3.891-12.481-11.171-14.697-15.639l-23.664 26.608c-.494.557-1.179.84-1.869.84z" fill="#000000"/><path d="m565.186 787.205s22.142-63.344 85.424-85.19c30.567-10.552 59.993 6.489 66.52 32.953 10.736 43.53-8.29 84.855-28.451 91.736-25.882 8.833-35.077-18.59-35.077-18.59l-26.274 29.543z" fill="#fbb348"/><path d="m678.841 830.96c-3.992.001-7.765-.87-11.284-2.61-11.622-5.746-16.139-18.884-16.325-19.44-.439-1.31.267-2.727 1.575-3.165 1.313-.442 2.727.268 3.165 1.575.038.113 4.082 11.763 13.832 16.563 5.27 2.595 11.35 2.747 18.068.454 9.374-3.199 18.672-14.923 24.265-30.598 6.449-18.075 7.36-38.734 2.565-58.173-3.081-12.494-10.488-22.613-20.858-28.491-11.76-6.666-26.458-7.59-42.5-2.671-43.729 13.413-68.117 51.091-78.762 72.356-.618 1.233-2.119 1.733-3.354 1.116-1.234-.618-1.734-2.12-1.116-3.354 11.002-21.98 36.256-60.939 81.766-74.897 17.392-5.333 33.445-4.262 46.433 3.101 11.578 6.563 19.834 17.801 23.248 31.644 5.026 20.38 4.063 42.062-2.712 61.051-6.186 17.335-16.413 29.914-27.358 33.649-3.696 1.26-7.252 1.89-10.648 1.89z" fill="#000000"/><path d="m652.757 811.706c-.533 0-1.071-.17-1.526-.521-1.093-.844-1.294-2.414-.45-3.507l21.523-27.862c.844-1.091 2.414-1.294 3.507-.45s1.294 2.414.45 3.507l-21.523 27.862c-.493.637-1.233.971-1.981.971z" fill="#000000"/><path d="m868.425 1068.527c-3.629-1.167-9.497-7.544-59.45-14.606-185.733-26.26-218.082 89.79-218.082 165.652 0 64.191 11.204 193.235 197.214 197.611 136.388 3.209 374.081 16.534 478.084-18.966 115.475-39.415 136.227-203.44 39.941-296.155-57.27-55.146-149.949-152.606-198.745-223.179-118.266-171.046-249.863-179.474-310.407-144.46 0 0-118.59 111.727 71.445 334.103z" fill="#6f5490"/><path d="m1023.212 1424.683c-60.905 0-123.61-1.834-178.638-3.444-20.241-.592-39.358-1.151-56.525-1.556-81.476-1.916-138.81-28.001-170.41-77.529-26.215-41.085-29.246-89.636-29.246-122.581 0-25.279 3.458-48.698 10.278-69.608 8.689-26.641 22.713-48.501 41.679-64.975 37.736-32.775 94.591-44.06 168.975-33.544 43.581 6.162 80.123 18.165 115.462 29.773 47.683 15.663 92.718 30.468 146.797 27.104 1.358-.082 2.564.963 2.649 2.341.086 1.378-.962 2.564-2.341 2.649-55.037 3.422-100.515-11.527-148.666-27.344-35.132-11.54-71.459-23.473-114.601-29.572-72.892-10.304-128.402.584-164.996 32.368-22.918 19.904-50.236 58.757-50.236 130.808 0 32.318 2.95 79.909 28.461 119.892 30.649 48.037 86.605 73.346 166.312 75.221 17.182.404 36.307.964 56.554 1.556 137.046 4.011 344.148 10.07 420.547-20.345 50.895-20.26 86.214-63.106 96.901-117.555 5.817-29.636 3.913-61.063-5.508-90.887-9.878-31.274-27.95-60.18-52.263-83.59-49.446-47.612-147.017-148.277-199.067-223.558-52.21-75.511-112.936-126.883-175.61-148.562-48.24-16.688-97.394-14.876-131.488 4.844-1.197.69-2.726.282-3.416-.912-.691-1.195-.283-2.725.912-3.416 35.337-20.435 86.037-22.393 135.627-5.241 63.687 22.029 125.269 74.053 178.089 150.444 51.826 74.956 149.109 175.316 198.423 222.8 24.911 23.987 43.433 53.617 53.562 85.686 9.671 30.619 11.623 62.901 5.646 93.356-11.021 56.146-47.454 100.336-99.958 121.236-48.138 19.162-143.577 24.141-243.905 24.141z" fill="#000000"/><path d="m866.121 1068.294c-.711 0-1.417-.302-1.912-.888l-53.093-62.935c-.89-1.056-.756-2.633.299-3.523 1.057-.89 2.632-.757 3.523.299l53.093 62.935c.89 1.056.756 2.633-.299 3.523-.469.396-1.041.589-1.611.589z" fill="#000000"/></svg></g><!--ITEM: Illustration component 3--><g transform="translate(1808.0 1453.0) rotate(0.0 -741.5 293.5)  scale(-1.3182222222222222 1.3191011235955057)"><svg width="1125.0" height="445.0" viewBox="0.0 0.0 1125.0 445.0"><path d="m2.5 382.5h420v60h-420z" fill="#cad5f3"/><path d="m422.5 445h-420c-1.381 0-2.5-1.119-2.5-2.5v-60c0-1.381 1.119-2.5 2.5-2.5h420c1.381 0 2.5 1.119 2.5 2.5v60c0 1.381-1.12 2.5-2.5 2.5zm-417.5-5h415v-55h-415z" fill="#000000"/><path d="m382.5 442.5 140-440h600l-140 440z" fill="#cad5f3"/><path d="m982.5 445h-600c-.798 0-1.547-.381-2.018-1.024-.472-.644-.606-1.474-.364-2.233l140-440c.33-1.039 1.293-1.743 2.382-1.743h600c.798 0 1.547.38 2.018 1.024.472.644.606 1.474.364 2.233l-140 440c-.331 1.039-1.294 1.743-2.382 1.743zm-596.582-5h594.753l138.41-435h-594.753z" fill="#000000"/><path d="m722.5 232.5c0-27.61 22.39-50 50-50s50 22.39 50 50-22.39 50-50 50-50-22.39-50-50z" fill="#92acef"/><path d="m772.5 285c-28.948 0-52.5-23.552-52.5-52.5s23.552-52.5 52.5-52.5 52.5 23.552 52.5 52.5-23.552 52.5-52.5 52.5zm0-100c-26.191 0-47.5 21.309-47.5 47.5s21.309 47.5 47.5 47.5 47.5-21.309 47.5-47.5-21.309-47.5-47.5-47.5z" fill="#000000"/></svg></g><!--ITEM: Illustration component 4--><g transform="translate(159.0 2034.0) rotate(0.0 1355.5 49.0)  scale(1.1781429494597968 1.1950199373224237)"><svg width="2301.079" height="82.007" viewBox="0.0 0.0 2301.079 82.007"><path d="m2.5 79.507v-77.007h2296.079v77.007z" fill="#fff"/><path d="m2298.579 82.007h-2296.079c-1.381 0-2.5-1.119-2.5-2.5v-77.007c0-1.381 1.119-2.5 2.5-2.5h2296.079c1.381 0 2.5 1.119 2.5 2.5v77.007c0 1.381-1.119 2.5-2.5 2.5zm-2293.579-5h2291.079v-72.007h-2291.079z" fill="#111"/></svg></g></svg>