<svg xmlns="http://www.w3.org/2000/svg" viewBox="0 0 4000 3000" width="4000" height="3000"><g transform="translate(757.0 2081.0) rotate(0.0 332.5 282.5) scale(1.0 1.0)"><svg width="665" height="565" viewBox="0 0 665 565"><path d="M82.5 402.5h500v-40h-500z" fill="#fff"/><path d="M582.5 405h-500a2.5 2.5 0 0 1-2.5-2.5v-40a2.5 2.5 0 0 1 2.5-2.5h500a2.5 2.5 0 0 1 2.5 2.5v40a2.5 2.5 0 0 1-2.5 2.5zM85 400h495v-35H85z" fill="#161616"/><path d="M82.5 2.5v40h500v-40z" fill="#fff"/><path d="M582.5 45h-500a2.5 2.5 0 0 1-2.5-2.5v-40A2.5 2.5 0 0 1 82.5 0h500a2.5 2.5 0 0 1 2.5 2.5v40a2.5 2.5 0 0 1-2.5 2.5zM85 40h495V5H85z" fill="#161616"/><path d="m182.5 42.5-180 520h40l180-520z" fill="#fff"/><path d="M42.5 565h-40a2.5 2.5 0 0 1-2.362-3.318l180-520A2.5 2.5 0 0 1 182.5 40h40a2.5 2.5 0 0 1 2.362 3.318l-180 520A2.5 2.5 0 0 1 42.5 565zm-36.489-5H40.72L218.989 45H184.28z" fill="#161616"/><path d="m442.5 42.5 180 520h40l-180-520z" fill="#fff"/><path d="M662.5 565h-40a2.5 2.5 0 0 1-2.362-1.682l-180-520A2.5 2.5 0 0 1 442.5 40h40a2.5 2.5 0 0 1 2.362 1.682l180 520A2.5 2.5 0 0 1 662.5 565zm-38.22-5h34.709L480.72 45h-34.709z" fill="#161616"/></svg></g><g transform="translate(738.0 855.0) rotate(0.0 760.0 895.5) scale(0.9999710534695048 0.9997069535730732)"><svg width="1520.044" height="1791.525" viewBox="0 0 1520.044 1791.525"><path d="m263.023 790.155-164.481-.313c-47.588-.091-88.825-34.242-96.413-81.218a87.307 87.307 0 0 1-1-19.629c2.871-44.11 34.771-89.78 70.53-116.15s83.114-44.83 134.818-61.58 164.186-57.03 178.686-67.28 119.18-77.7 191.77-97.61 96.12-20.88 147.67-10.39 91.02 45.92 108.6 55.58 22.5 46.4 86.8 25.08c50.94-16.89 123.538 20.45 139.018 55.29 45.59 102.6-19.18 226-16.14 223.86 78.5-55.14 175.44 29.14 159.64 84.06-33.71 117.14-141.37 178.94-141.37 178.94s-115.66 65.58-180.1 46.82-77.66-121.87-77.66-121.87l-304.32 10.6-300.013 45.8-52.922-41.51 59.371-61.17z" fill="#fff"/><g fill="#fbb348"><path d="M885.765 550.648c-16.685 0-32.094-1.782-45.034-6.1-42.064-14.017-70.452-35.39-97.9-56.059-72.8-54.812-108.99-62.572-143.985-70.078-.184-.037-.646-.124-1.324-.254-18.3-3.485-34.606-7.189-48.47-11.007-23.357-6.432-45.774-14.206-51.6-27.417l22.874-10.087a3.848 3.848 0 0 0-.5-.867c3.214 3.77 24.566 13.808 82.373 24.821 1.018.193 1.673.321 1.907.372 76.553 16.417 115.8 45.967 153.76 74.546 27.04 20.357 52.58 39.586 90.772 52.312 36.671 12.224 107.107 1.83 209.355-30.886 2.3-.735 4.279-1.369 5.9-1.88l7.5 23.85c-1.592.5-3.531 1.121-5.784 1.842-31.809 10.184-115.29 36.892-179.844 36.892zm-704.346 27.666c-2.273-2.106-13.07-8.169-20.215-12.181-23.191-13.023-31.55-18.24-34.285-25.648l23.451-8.662a7.966 7.966 0 0 0-1.456-2.558c2.714 2.819 16.371 10.488 24.531 15.069 17.8 10 24.325 13.918 27.667 18.692l-20.481 14.337a6.4 6.4 0 0 0 .788.951z"/><path d="M900.592 629.744a255.846 255.846 0 0 1-92.63-17.433c-27.548-10.611-67.138-36.128-109.051-63.145-34.062-21.956-69.284-44.659-95.507-57.3-32.752-15.79-78.995-25.388-116.152-33.1-47.849-9.932-69.306-14.861-76.458-27.6l21.8-12.24a4.26 4.26 0 0 0-.711-.977c5.35 4.9 37.2 11.511 60.452 16.337 38.5 7.991 86.408 17.936 121.928 35.06 27.615 13.313 63.494 36.441 98.2 58.807 38.999 25.147 79.337 51.142 104.482 60.827 43.144 16.607 88.468 20.073 134.714 10.3 39.146-8.274 71.309-24.249 92.593-34.819 15.562-7.729 24.134-11.987 31.581-12.035l.16 25a3.594 3.594 0 0 0 .438-.025c-2.906.434-12.551 5.224-21.059 9.451-31.281 15.535-86.363 42.892-154.78 42.892zM81.461 787.52l-24.375-5.555c1.436-6.307 1.436-15.051 1.436-25.176 0-44.49 0-118.952 118.611-207.367l14.942 20.045C83.519 650.383 83.521 714.416 83.522 756.789c0 11.634 0 21.682-2.061 30.731zm341.026-203.671c-.077-.311-2.232-7.752-32.978-20.209-21.178-8.58-48.811-16.705-73.191-23.874-53.245-15.657-75.05-22.561-79.971-36.363l23.549-8.4a5.952 5.952 0 0 0-1.183-2.09c5.554 5.484 39.715 15.529 64.658 22.864 70.387 20.7 117 36.2 123.387 62.079zM173.081 788.445 148.1 787.4c.218-5.211-.208-12.124-.7-20.128-1.5-24.338-3.55-57.671 8.062-95.741 12.977-42.544 41.675-73.92 60.664-94.682 6.382-6.977 14.324-15.66 15.458-18.678a5.07 5.07 0 0 0-.222 1.591l25 .116c-.047 10.074-8.231 19.021-21.787 33.844-17.471 19.1-43.873 47.967-55.2 85.1-10.294 33.75-8.4 64.477-7.022 86.912.536 8.702.998 16.211.728 22.711zm928.651 142.247c-1.692-.594-7.513-.909-12.189-1.162-20.837-1.127-55.712-3.011-81.9-32.589-15.625-17.647-24.085-35.919-30.263-49.262-2.773-5.99-6.572-14.195-8.561-15.8a2.839 2.839 0 0 0 .71.37l8.867-23.375c10.394 3.943 15.37 14.691 21.671 28.3 5.835 12.6 13.1 28.289 26.294 43.193 19.258 21.751 45.425 23.165 64.531 24.2 12.654.684 22.651 1.224 28.247 9.118l-20.392 14.461a7.031 7.031 0 0 0 2.985 2.546zM331.505 789.155c-4.436-97.176 11.74-163.6 20.43-199.287.916-3.76 1.745-7.164 2.451-10.208l24.354 5.649c-.725 3.123-1.574 6.615-2.515 10.475-8.393 34.47-24.018 98.631-19.745 192.231zm807.037 64.58a145.643 145.643 0 0 1-58.7-11.765c-39.042-17.061-54.421-55.862-62.683-76.708-1.706-4.3-3.828-9.657-4.809-11.056a8.5 8.5 0 0 0 4.189 2.725l7.613-23.813c8.2 2.621 11.227 10.267 16.248 22.932 7.423 18.728 19.847 50.074 49.45 63.011s57.4 9.766 72.342 8.07c9.2-1.044 14.765-1.677 19.867 2.087l-14.836 20.121a9.605 9.605 0 0 0 4.923 1.974c-1.029-.054-4.408.349-7.135.659a225.3 225.3 0 0 1-26.469 1.763zM250.52 791.76c-13.833-83.83 6.577-130.846 24.585-172.326 7.568-17.434 14.717-33.9 18.852-52L318.33 573c-4.652 20.363-12.6 38.679-20.292 56.391-17.446 40.185-35.485 81.739-22.852 158.3z"/><path d="M916.525 698.152c-54.317 0-113.271-10.648-175.767-31.787-22.456-7.6-45.022-25.781-71.152-46.838-33.121-26.689-70.662-56.94-119.132-75.542C525 534.209 487.939 526.5 452.1 519.039c-74.289-15.46-116.712-25.366-124.777-49.174L351 461.844l-.009-.025c.109.263 3.01 6.521 31.784 15.286 20.433 6.224 46.655 11.681 74.418 17.459 36.809 7.66 74.874 15.581 102.236 26.081 52.14 20.009 93.016 52.949 125.861 79.417 24.272 19.558 45.234 36.45 63.477 42.622 72.523 24.53 139.7 34.324 199.674 29.11 48.993-4.26 80.021-17.54 93.271-23.211 7.14-3.055 13.361-3.692 18.488-1.891l-8.278 23.589a5.961 5.961 0 0 0 2.3.421 10.6 10.6 0 0 0-2.67.865c-14.349 6.142-47.958 20.527-100.941 25.133q-16.717 1.453-34.086 1.452zM212.878 883.886c-17.735 0-30.706-3.378-38.882-11.374l17.478-17.875c1.825 1.785 10.744 7.2 48.869 2 27.79-3.8 63.205-12.078 97.454-20.087q6.91-1.615 13.825-3.227c67.057-15.592 165.486-15.827 218.187-14.581 108.66 2.562 208.384 15.083 248.149 31.158l-9.37 23.177c-42.774-17.291-154.067-27.331-239.37-29.342-88.959-2.1-164.225 2.845-211.934 13.938q-6.894 1.6-13.794 3.22c-57.026 13.332-100.625 22.993-130.612 22.993zm66.314-57.115c-18.072 0-34.977-3.671-44.136-12.629l17.481-17.873c4.67 4.566 23.358 7.408 45.414 4.038 19.96-3.052 30.979-9.407 32.444-12.132a2.755 2.755 0 0 0-.168 1.543l24.629-4.293c1.155 6.629.271 19.234-18.635 29.185-13.837 7.29-36.208 12.161-57.029 12.161zm549.578-12.039c-25.7-18.808-78.929-49.92-146.81-46.935a215.019 215.019 0 0 0-62.7 12.361l-8.385-23.552a240 240 0 0 1 69.985-13.786c75.485-3.32 134.327 30.992 162.674 51.738zm115.607-32.725c-23.791 0-54.571-3.093-92.9-14.447l7.1-23.971c62.468 18.5 101.643 13.506 125.049 10.519 13.7-1.748 22.751-2.9 30.5 1.547l-12.453 21.678a3.48 3.48 0 0 0 .792.352c-2.084-.512-9.3.41-15.673 1.222a315.654 315.654 0 0 1-42.415 3.1zm-444.095 7.039c-11.716-111-10.068-138.389-2.541-216.244l24.885 2.406c-7.339 75.9-8.945 102.616 2.517 211.215zm-87.508.764c-6.845-75.775 2.918-138.018 8.751-175.207 2.166-13.812 4.212-26.857 3.677-31.1l24.8-3.127c.979 7.756-.813 19.18-3.782 38.106-5.653 36.049-15.117 96.383-8.55 169.083zm483.785 81.054a91.273 91.273 0 0 1-12.263-.793c-27.544-3.722-50.659-16.692-60.529-22.23-1.339-.751-3.005-1.686-3.51-1.921.171.079.323.134.447.18l8.558-23.49a48.886 48.886 0 0 1 6.738 3.429c9.356 5.249 28.826 16.173 51.647 19.258 13.263 1.795 27.426-1.022 38.8-3.287 14.051-2.8 25.152-5.008 33.437 1.533L944.4 863.166a5.5 5.5 0 0 0 2.224 1.135c-2.242-.371-9.783 1.131-15.289 2.227-9.545 1.9-21.781 4.336-34.776 4.336z"/></g><path d="M806.385 886.235a2.527 2.527 0 0 1-.651-.086 2.5 2.5 0 0 1-1.765-3.063c.282-1.046 28.775-105.651 86.562-198.393a2.5 2.5 0 1 1 4.244 2.644c-57.384 92.093-85.7 196.008-85.978 197.047a2.5 2.5 0 0 1-2.412 1.851z" fill="#161616"/><path d="M914.3 1011.619a110.44 110.44 0 0 1-32.765-4.577c-27.2-8.453-49.645-32.069-64.9-68.3a233.311 233.311 0 0 1-14.62-50.257l-393.5.726-229.43 49.527a2.5 2.5 0 0 1-2.693-1.192l-25.4-43.971a2.5 2.5 0 0 1 .26-2.869c.524-.618 51.106-59.863 105.554-98.033l-160.466-.236a94.909 94.909 0 0 1-57.047-18.983 93.977 93.977 0 0 1-34.277-49.328c-8.079-27.682-6.412-54.85 4.954-80.748 14.413-32.84 44.5-63.432 89.424-90.925 31.8-19.461 75.943-33.783 127.061-50.367 61.6-19.988 131.43-42.643 191.54-79.552 50.331-30.9 119.26-73.23 192.7-89.095 38.937-8.413 76.393-8.7 111.324-.868 40.166 9.012 78.684 29.1 114.483 59.7a2.5 2.5 0 0 1 .748 1.111 50.037 50.037 0 0 0 15.912 21.028c15.809 12.2 37.361 14.074 64.057 5.569 16.286-5.193 45.678-8.615 74.919-1.175 25.2 6.413 58.794 23.427 75.678 68.062 27.578 72.9-7.514 168.731-19.045 200.223l-.48 1.312c26.832-20.324 83.141-15.656 121.074 11.844 19.967 14.476 61.584 56.011 16.915 128.893-36.288 59.2-74.136 95.218-99.5 115.011-26.454 20.648-44.789 28.288-46.947 29.15a352.481 352.481 0 0 1-54.21 24.454c-19.89 7.004-45.883 13.865-71.323 13.866zM804.153 883.485a2.5 2.5 0 0 1 2.477 2.163 228.026 228.026 0 0 0 14.65 51.26c10.226 24.243 29.239 55.261 61.735 65.359 62.947 19.568 153.556-32.847 154.464-33.379a2.388 2.388 0 0 1 .36-.174c.187-.072 19.019-7.512 46.077-28.668 24.978-19.531 62.273-55.079 98.1-113.518 16.241-26.5 22.173-51.248 17.634-73.568-3.835-18.86-15.322-35.687-33.22-48.662-18.716-13.569-43.247-22.077-67.3-23.341-23.885-1.255-43.394 4.867-53.539 16.8-1.629 1.916-3.165 1.328-3.75.986-2.016-1.175-1.269-3.422-.477-5.8.6-1.791 1.529-4.34 2.711-7.567 11.373-31.06 45.983-125.58 19.064-196.734-30.289-80.073-116.565-72.766-144.4-63.894-19.577 6.239-47.416 10.169-68.844-6.54a55 55 0 0 1-17.139-22.556c-66.219-56.4-138.515-75.146-221-57.324-72.6 15.685-141.111 57.753-191.134 88.47C360 464.016 289.869 486.768 228 506.842c-48.7 15.8-94.7 30.725-125.995 49.876-44.036 26.95-73.459 56.783-87.455 88.669C3.667 670.181 2.075 696.2 9.815 722.726a89.014 89.014 0 0 0 32.469 46.721 89.944 89.944 0 0 0 54.063 17.99l168.54.248a2.5 2.5 0 0 1 1.379 4.583c-51.811 34.4-101.91 90.969-110.056 100.344l23.6 40.855 227.9-49.195a2.47 2.47 0 0 1 .522-.057l395.92-.73z" fill="#161616"/><path d="M596.353 652.555s.8 6.99-14.17 34.12c0 0 11.02 30.18 20.57 48.61 16.47 31.76 5.64 52.72 5.64 52.72l27.708-8.714a88.322 88.322 0 0 0 43.952-30.986l224.828.695c22.81.07 38.545-23.077 29.818-44.151-13.227-31.942-53.3-69.229-168.7-67.762-68.776.868-169.646 15.468-169.646 15.468z" fill="#ffaac3"/><path d="M608.393 790.505a2.5 2.5 0 0 1-2.221-3.647c.022-.043 2.541-5.091 3.1-13.774.519-8.026-.575-20.9-8.743-36.648-9.514-18.361-20.587-48.6-20.7-48.9a2.493 2.493 0 0 1 .16-2.065c13.794-25 13.876-32.267 13.866-32.719A2.5 2.5 0 0 1 596 650.08c1.01-.145 101.821-14.633 169.976-15.5 64.563-.815 146.7 10.536 171.037 69.306a34.238 34.238 0 0 1-3.235 32.233 34.6 34.6 0 0 1-28.796 15.381h-.108l-223.59-.689a90.3 90.3 0 0 1-44.433 30.867l-27.708 8.714a2.489 2.489 0 0 1-.75.113zm-23.47-103.626c2.044 5.5 11.685 31.113 20.049 47.255 8.776 16.922 9.886 30.873 9.271 39.6a51.109 51.109 0 0 1-1.769 10.37l22.877-7.2a85.35 85.35 0 0 0 42.708-30.104 2.5 2.5 0 0 1 1.994-.992h.008l224.828.693h.092a29.611 29.611 0 0 0 24.64-13.158 28.876 28.876 0 0 0 2.768-27.536c-12.843-31.011-52.168-67.671-166.354-66.219-62.6.792-153.031 13.154-167.382 15.169-.662 3.953-3.353 13.171-13.73 32.122z" fill="#161616"/><path d="M574.385 749.142a2.487 2.487 0 0 1-1.754-.723c-.872-.866-21.037-21.711 7.508-64.767 13.113-19.769 17.7-39.556 13.268-57.222-4.246-16.919-16.552-31.275-35.589-41.513-27.444-14.763-68.964-8.516-105.6-3.006-19.187 2.886-37.33 5.613-52.5 5.364-22.489-.364-48.5-6.127-76.047-12.23-27.892-6.18-56.734-12.569-85.306-14.254-55.774-3.308-103.447 28.522-103.922 28.843a2.5 2.5 0 0 1-2.806-4.139c.489-.331 49.522-33.088 107.023-29.7 28.969 1.709 58.009 8.143 86.093 14.365 27.288 6.046 53.063 11.756 75.046 12.111 14.771.262 32.7-2.454 51.675-5.308 37.4-5.627 79.8-12 108.709 3.546 20.308 10.924 33.472 26.38 38.069 44.7 4.785 19.066-.04 40.23-13.95 61.2-26.13 39.412-8.887 57.7-8.141 58.465a2.5 2.5 0 0 1-1.78 4.261zm334.915 1.113a2.5 2.5 0 0 1-2.469-2.129c-3.5-23.335-14.711-41.83-33.317-54.971-55-38.841-157.563-19.477-158.594-19.276a2.5 2.5 0 0 1-.955-4.908 353.64 353.64 0 0 1 59.526-5.174h.659c30.478 0 72.712 4.419 102.24 25.269 19.767 13.958 31.673 33.579 35.386 58.318a2.5 2.5 0 0 1-2.1 2.844 2.645 2.645 0 0 1-.376.027z" fill="#161616"/><path d="M860.791 750.255a2.5 2.5 0 0 1-2.5-2.391c-.381-8.762-4.075-16.017-11.29-22.181-35.801-30.583-142.808-18.817-143.886-18.694a2.5 2.5 0 0 1-.566-4.968 478.413 478.413 0 0 1 59.351-2.247c42.81 1.159 72.535 8.6 88.351 22.106 8.211 7.015 12.6 15.684 13.04 25.766a2.5 2.5 0 0 1-2.389 2.607zm-596.848 42.439a2.5 2.5 0 0 1-.016-5l344.45-2.189h.016a2.5 2.5 0 0 1 .016 5l-344.45 2.189zm673.338 85.09a2.5 2.5 0 0 1-2.03-3.956c.187-.261 19.029-26.616 41.3-61.551 20.53-32.2 48.255-78.474 63.757-116.085a2.5 2.5 0 1 1 4.623 1.906c-15.644 37.956-43.536 84.516-64.18 116.892-22.343 35.042-41.251 61.487-41.439 61.75a2.5 2.5 0 0 1-2.031 1.044z" fill="#161616"/><path d="M1098.251 747.915q-.572-.9-1.122-1.818c-13.12-21.849-2.484-50.281 21.554-58.749 23.725-8.357 59.7-18.714 96.67-20.713 105.354-5.706 180.989 31.426 192.767 95.132a21.458 21.458 0 0 1-21.018 25.289l-213.766 1.252c-30.268.177-58.885-14.824-75.085-40.393z" fill="#ffaac3"/><path d="M1172.816 790.81c-31.073 0-60.413-15.888-76.677-41.557q-.585-.925-1.152-1.866a42.258 42.258 0 0 1-3.481-36.218 43.14 43.14 0 0 1 26.346-26.179c23.849-8.4 60.1-18.836 97.366-20.85 106.692-5.774 183.378 32.365 195.36 97.174a23.957 23.957 0 0 1-23.461 28.243l-213.766 1.252zm-72.452-44.233c15.352 24.233 43.078 39.233 72.451 39.233h.507l213.765-1.252a18.959 18.959 0 0 0 18.575-22.335c-11.5-62.183-86.139-98.721-190.174-93.09-36.676 1.983-72.435 12.283-95.974 20.575a38.151 38.151 0 0 0-23.3 23.156 37.277 37.277 0 0 0 3.062 31.948c.355.591.72 1.182 1.091 1.767z" fill="#161616"/><path d="M1252.074 788.836a2.5 2.5 0 0 1-.952-4.812l.872-.359c22.621-9.28 48.516-22.958 43.425-35.425-6.346-15.528-34.289-18.479-56.6-18.2a327.691 327.691 0 0 0-48.649 4.659 2.5 2.5 0 1 1-.911-4.916c3.949-.731 96.86-17.53 110.79 16.564 8.048 19.7-32.749 36.441-46.155 41.941l-.868.356a2.476 2.476 0 0 1-.952.192z" fill="#161616"/><path d="M1375.234 788.835h-.032a2.5 2.5 0 0 1-2.469-2.531c.219-17.609-5.842-32.558-18.014-44.432-36.7-35.8-117.389-33.228-118.192-33.2a2.5 2.5 0 0 1-.188-5 276.4 276.4 0 0 1 46.265 3.11c34.059 5.195 59.493 15.792 75.6 31.5 13.194 12.868 19.765 29.045 19.529 48.08a2.5 2.5 0 0 1-2.499 2.473z" fill="#161616"/><path d="M1393.055 788.065h-.1a2.5 2.5 0 0 1-2.4-2.6c.841-21.341-5.857-39.62-19.908-54.328-39.072-40.9-122.739-41.9-123.58-41.9a2.5 2.5 0 0 1 .016-5h.014a276.812 276.812 0 0 1 48.064 5.576c24.349 5 57.837 15.62 79.092 37.863 15.03 15.727 22.2 35.237 21.3 57.989a2.5 2.5 0 0 1-2.498 2.4z" fill="#161616"/><path d="M717.063 231.085s-69.1-76.9 20.66-179.785 143.94-15.727 279.49 14c0 0 80.71-31.195 115.06-4.457s6.93 159.6-26.56 196.977L913.2 281.7z" fill="#6f5490"/><path d="M913.2 284.2a2.5 2.5 0 0 1-.625-.079l-196.14-50.611a2.489 2.489 0 0 1-1.234-.75c-.725-.806-17.814-20.117-23.928-52.518a125.861 125.861 0 0 1 2.946-58.123c6.9-24.332 20.9-48.71 41.617-72.458C764.968 16.271 792.543.5 822.616.012c27.858-.435 56.32 11.848 89.331 26.085 29.8 12.852 63.544 27.408 105.08 36.6a283.51 283.51 0 0 1 44.387-12.113c33.206-6.048 57.563-3.261 72.394 8.285 8.961 6.975 14.4 20.545 16.178 40.335 4.558 50.857-16.846 131.747-42.411 160.283a2.5 2.5 0 0 1-1.555.813l-192.51 23.88a2.433 2.433 0 0 1-.31.02zm-194.75-55.334 194.914 50.294 191.1-23.7c11.261-13.02 22.707-38.664 30.732-68.916 8.359-31.518 11.935-63.187 9.81-86.888-1.621-18.095-6.555-30.832-14.268-36.836-32.852-25.571-111.829 4.509-112.623 4.817a2.5 2.5 0 0 1-1.437.109c-42.336-9.292-76.537-24.046-106.712-37.057-66.04-28.484-109.67-47.3-170.359 22.254-20.181 23.132-33.815 46.806-40.526 70.365a120.989 120.989 0 0 0-2.939 55.751c5.252 28.165 19.532 46.455 22.311 49.802z" fill="#161616"/><path d="M963.944 92.039a2.5 2.5 0 0 1-1-4.79c25.181-11.021 54.078-24.461 54.367-24.595a2.5 2.5 0 0 1 2.11 4.533c-.29.135-29.239 13.6-54.473 24.642a2.485 2.485 0 0 1-1.004.21z" fill="#161616"/><path d="m838.923 336.655-49.01 91.02s52.24 87.26 137.34 53.86l26.39-60.86" fill="#ffaac3"/><path d="M889.032 491.6c-26.818 0-48.593-11.1-63.855-22.46a154.986 154.986 0 0 1-37.409-40.176 2.5 2.5 0 0 1-.057-2.47l49.011-91.02a2.5 2.5 0 1 1 4.4 2.371l-48.319 89.734a154.656 154.656 0 0 0 35.485 37.645c30.388 22.565 63.045 27.4 97.084 14.362l25.974-59.9a2.5 2.5 0 0 1 4.588 1.988l-26.391 60.859a2.5 2.5 0 0 1-1.38 1.333 106.451 106.451 0 0 1-39.131 7.734z" fill="#161616"/><path d="M839.793 336.5s41.97 88.83 145.87 85.57 127.52-114.93 127.52-114.93 52.95-19.39 47.87-41.13-51.61 1.7-51.61 1.7 10.61-106.2-84.3-148.333c0 0-39.23-9.341-73.31 50.393s-56.81 115.45-80.63 74.4c0 0-24.73-101.266-104.2-77.54-90.05 26.89-53.47 141.16 6.5 164.47 42.59 16.545 66.29 5.4 66.29 5.4z" fill="#ffaac3"/><path d="M980.194 424.651c-51.522 0-87.108-22.8-108.13-42.317a168.083 168.083 0 0 1-33.479-42.693c-7.011 2.395-29.835 7.832-65.988-6.216-35.955-13.976-63.838-59.316-62.155-101.072 1.353-33.58 21.185-57.774 55.845-68.124 21.056-6.286 40.3-4.563 57.2 5.126 19.3 11.064 31.908 30.678 39.089 45.185a157.542 157.542 0 0 1 10.964 28.67c5 8.519 9.859 12.639 14.878 12.572 13.282-.16 28.956-28.739 47.105-61.831 4.521-8.243 9.2-16.766 14.138-25.425 9.924-17.4 26.784-39.964 50.749-48.707 14.6-5.327 24.88-2.982 25.311-2.879a2.485 2.485 0 0 1 .436.147c49.906 22.154 70.576 62.017 79.128 91.556a178.258 178.258 0 0 1 6.918 55c9.114-4.1 31.833-13.166 43.827-7.562a13.111 13.111 0 0 1 7.456 9.356c5.113 21.882-39.735 40.311-48.166 43.566a183.948 183.948 0 0 1-24.856 55.765c-17.563 26.332-49.989 58.081-104.724 59.8-1.865.054-3.72.083-5.546.083zM839.787 334a2.5 2.5 0 0 1 2.265 1.429c.1.22 10.643 22.153 33.558 43.378 21.062 19.509 57.2 42.413 109.975 40.763 23.2-.728 44.194-7.08 62.394-18.879 14.591-9.459 27.455-22.433 38.236-38.561a179.7 179.7 0 0 0 24.523-55.509 2.5 2.5 0 0 1 1.585-1.829c14.149-5.186 50.048-22.16 46.3-38.215a8.224 8.224 0 0 0-4.7-5.964c-10.543-4.931-34.87 5.062-43.349 9.329a2.5 2.5 0 0 1-3.611-2.481 170.374 170.374 0 0 0-6.523-57.594c-12.007-41.306-37.6-70.946-76.06-88.1-1.4-.264-10.363-1.67-22.6 2.881C979.4 132.969 963.449 154.449 954 171c-4.92 8.622-9.585 17.127-14.1 25.352-19.682 35.885-35.228 64.23-51.428 64.425h-.175c-6.964 0-13.267-5.027-19.264-15.362a2.485 2.485 0 0 1-.267-.662c-.124-.508-12.851-51.058-47.791-71.076-15.659-8.97-33.578-10.539-53.266-4.662-32.452 9.691-51.018 32.255-52.279 63.534-.767 19.027 4.968 39.581 16.148 57.877 11.208 18.343 26.416 31.957 42.822 38.334 21.4 8.315 37.755 9.354 47.718 8.761 10.757-.64 16.552-3.271 16.61-3.3a2.488 2.488 0 0 1 1.059-.221z" fill="#161616"/><path d="M1087.636 365.515a2.515 2.515 0 0 1-.446-.04c-.274-.049-27.566-5.331-34.543-38.445a2.5 2.5 0 1 1 4.893-1.03c6.29 29.858 30.3 34.512 30.537 34.556a2.5 2.5 0 0 1-.441 4.96zm-250.402-60.451h-.047a2.5 2.5 0 0 1-2.454-2.544c.012-.627.481-63.273-53.724-110.55a2.5 2.5 0 0 1 3.291-3.77 163.03 163.03 0 0 1 48.961 75.648c6.708 22.16 6.489 38.1 6.476 38.764a2.5 2.5 0 0 1-2.503 2.452z" fill="#161616"/><path d="M801.972 268.2a2.5 2.5 0 0 1-1.871-4.157c11.136-12.581 28.788-8.217 29.535-8.025a2.5 2.5 0 0 1-1.241 4.844c-.156-.04-15.466-3.77-24.55 6.495a2.493 2.493 0 0 1-1.873.843z" fill="#161616"/><path d="M1054.833 246.015a7.175 7.175 0 1 1 7.17 7.18 7.17 7.17 0 0 1-7.17-7.18z"/><path d="M918.033 330.065a45.275 45.275 0 1 1 45.27 45.28 45.272 45.272 0 0 1-45.27-45.28z" fill="#ff6996"/><path d="M990.933 1789.025h520s66.68-215.39-223.48-246.63l-318.28 26.4s-34.04 95.11 21.76 220.23z" fill="#fff"/><path d="M1510.933 1791.525h-520a2.5 2.5 0 0 1-2.283-1.482c-29.021-65.073-33.431-121.921-32.02-158.15 1.533-39.349 9.837-62.954 10.19-63.941a2.5 2.5 0 0 1 2.146-1.648l318.28-26.4a2.587 2.587 0 0 1 .474.006c99.388 10.7 168.112 44 204.263 98.982 23.913 36.367 28.445 75.436 28.036 101.807-.442 28.548-6.442 48.242-6.7 49.066a2.5 2.5 0 0 1-2.386 1.76zm-518.374-5h516.482a196.7 196.7 0 0 0 5.982-46.089c.374-25.635-4.05-63.592-27.25-98.848-35.272-53.6-102.677-86.126-200.352-96.683l-316.39 26.245c-1.829 5.812-8.148 28.03-9.413 61.165-1.352 35.375 2.946 90.734 30.941 154.21z" fill="#161616"/><path d="m978.373 1748.965 14.23 37.46 516.45-.01 5.63-36.03z" fill="#fbb348"/><path d="M1398.893 1791.525a2.5 2.5 0 0 1-2.5-2.5v-40a2.5 2.5 0 0 1 5 0v40a2.5 2.5 0 0 1-2.5 2.5zm-20 0a2.5 2.5 0 0 1-2.5-2.5v-40a2.5 2.5 0 0 1 5 0v40a2.5 2.5 0 0 1-2.5 2.5zm-40 0a2.5 2.5 0 0 1-2.5-2.5v-40a2.5 2.5 0 0 1 5 0v40a2.5 2.5 0 0 1-2.5 2.5zm-80 0a2.5 2.5 0 0 1-2.5-2.5v-40a2.5 2.5 0 0 1 5 0v40a2.5 2.5 0 0 1-2.5 2.5zm-20 0a2.5 2.5 0 0 1-2.5-2.5v-40a2.5 2.5 0 0 1 5 0v40a2.5 2.5 0 0 1-2.5 2.5zm-20 0a2.5 2.5 0 0 1-2.5-2.5v-40a2.5 2.5 0 0 1 5 0v40a2.5 2.5 0 0 1-2.5 2.5zm-60 0a2.5 2.5 0 0 1-2.5-2.5v-40a2.5 2.5 0 0 1 5 0v40a2.5 2.5 0 0 1-2.5 2.5zm-80 0a2.5 2.5 0 0 1-2.5-2.5v-40a2.5 2.5 0 0 1 5 0v40a2.5 2.5 0 0 1-2.5 2.5zm-20 0a2.5 2.5 0 0 1-2.5-2.5v-40a2.5 2.5 0 0 1 5 0v40a2.5 2.5 0 0 1-2.5 2.5z" fill="#161616"/><path d="m976.973 1749.025 537.44-.06" fill="#fff"/><path d="M976.973 1751.525a2.5 2.5 0 0 1 0-5l537.44-.06a2.5 2.5 0 0 1 0 5z" fill="#161616"/><path d="M892.723 1340.835s47.67 112.87 57.11 165.93 10.34 111.08 10.34 111.08 48.91 17.64 111.07 4.31c68.35-14.65 171.68-87.26 254.51-74.47 0 0-74.62-474.19-261.33-585.63-182.17-108.74-527.92-89.99-527.92-89.99" fill="#92acef"/><path d="M1024.1 1629.591c-38.124 0-64.414-9.265-64.774-9.395a2.5 2.5 0 0 1-1.652-2.312c-.008-.578-1.006-58.428-10.3-110.682-9.283-52.176-56.476-164.268-56.952-165.394a2.5 2.5 0 0 1 4.606-1.946c.478 1.131 47.888 113.738 57.268 166.465 8.447 47.485 10.092 99.505 10.34 109.7 8.914 2.813 53.605 15.367 108.084 3.685 24.234-5.194 53.2-17.877 83.875-31.305 54-23.639 115.043-50.369 168.143-43.668-3.381-20.187-22.451-128.838-60.033-247.382-24.332-76.747-51.544-142.557-80.881-195.6-36.553-66.089-76.483-112.368-118.68-137.555-41.331-24.671-94.7-44.739-158.628-59.647-51.222-11.946-109.283-20.62-172.568-25.78-107.793-8.789-194.446-4.259-195.308-4.213a2.475 2.475 0 0 1-2.632-2.361 2.5 2.5 0 0 1 2.361-2.632c.867-.048 87.857-4.594 195.985 4.222 63.529 5.181 121.836 13.893 173.3 25.895 64.431 15.025 118.28 35.288 160.055 60.223 42.972 25.649 83.516 72.568 120.507 139.455 29.5 53.34 56.844 119.466 81.276 196.541 41.57 131.141 60.549 250.2 60.735 251.392a2.5 2.5 0 0 1-2.851 2.859c-52.444-8.1-114.246 18.959-168.773 42.83-30.91 13.533-60.1 26.314-84.832 31.614a227.475 227.475 0 0 1-47.671 4.991z" fill="#161616"/><path d="M1379.2 1630.956c-21.065 0-45.478-5.164-72.664-15.379-49.625-18.644-92.042-48.148-92.465-48.444l2.867-4.1c.418.292 42.387 29.475 91.434 47.89 28.646 10.755 54.049 15.78 75.5 14.939 26.43-1.037 46.893-11.09 60.819-29.88l4.018 2.977c-14.881 20.077-36.642 30.811-64.681 31.9q-2.387.098-4.828.097z" fill="#161616"/><path d="M358.893 1789.025h520s66.68-215.39-223.48-246.63l-318.28 26.4s-34.04 95.11 21.76 220.23z" fill="#fff"/><path d="M878.893 1791.525h-520a2.5 2.5 0 0 1-2.283-1.482c-29.021-65.073-33.431-121.921-32.02-158.15 1.533-39.349 9.836-62.954 10.19-63.941a2.5 2.5 0 0 1 2.146-1.648l318.28-26.4a2.586 2.586 0 0 1 .474.006c99.388 10.7 168.112 44 204.263 98.982 23.913 36.367 28.445 75.436 28.036 101.807-.442 28.548-6.442 48.242-6.7 49.066a2.5 2.5 0 0 1-2.386 1.76zm-518.374-5H877a196.7 196.7 0 0 0 5.982-46.089c.374-25.635-4.05-63.592-27.25-98.848-35.272-53.6-102.677-86.126-200.352-96.683l-316.39 26.245c-1.829 5.812-8.148 28.03-9.413 61.165-1.351 35.375 2.947 90.734 30.942 154.21z" fill="#161616"/><path d="m346.553 1749.635 14.37 36.84 516.07-.02 5.68-36.19z" fill="#fbb348"/><path d="m344.933 1749.025 537.44-.06" fill="#fff"/><path d="M344.933 1751.525a2.5 2.5 0 0 1 0-5l537.44-.06a2.5 2.5 0 0 1 0 5z" fill="#161616"/><path d="M418.893 1791.525a2.5 2.5 0 0 1-2.5-2.5v-40a2.5 2.5 0 0 1 5 0v40a2.5 2.5 0 0 1-2.5 2.5zm20 0a2.5 2.5 0 0 1-2.5-2.5v-40a2.5 2.5 0 0 1 5 0v40a2.5 2.5 0 0 1-2.5 2.5zm20 0a2.5 2.5 0 0 1-2.5-2.5v-40a2.5 2.5 0 0 1 5 0v40a2.5 2.5 0 0 1-2.5 2.5zm80 0a2.5 2.5 0 0 1-2.5-2.5v-40a2.5 2.5 0 0 1 5 0v40a2.5 2.5 0 0 1-2.5 2.5zm20 0a2.5 2.5 0 0 1-2.5-2.5v-40a2.5 2.5 0 0 1 5 0v40a2.5 2.5 0 0 1-2.5 2.5zm60 0a2.5 2.5 0 0 1-2.5-2.5v-40a2.5 2.5 0 0 1 5 0v40a2.5 2.5 0 0 1-2.5 2.5zm80 0a2.5 2.5 0 0 1-2.5-2.5v-40a2.5 2.5 0 0 1 5 0v40a2.5 2.5 0 0 1-2.5 2.5zm20 0a2.5 2.5 0 0 1-2.5-2.5v-40a2.5 2.5 0 0 1 5 0v40a2.5 2.5 0 0 1-2.5 2.5zm40 0a2.5 2.5 0 0 1-2.5-2.5v-40a2.5 2.5 0 0 1 5 0v40a2.5 2.5 0 0 1-2.5 2.5zm60 0a2.5 2.5 0 0 1-2.5-2.5v-40a2.5 2.5 0 0 1 5 0v40a2.5 2.5 0 0 1-2.5 2.5z" fill="#161616"/><path d="M336.7 1568.6s22.93-184.34 222.68-341.24l-224.455.684c-57.637.175-114.091-17.735-160.314-52.166-39.764-29.621-75.387-73.667-76.37-136.658-1.534-98.27 50.18-141.14 56.048-148.2 3.07-3.69 23.675 30.44 79.159 23.3 94.652-12.18 130.9-54.17 200.812-51.48 99.74 3.84 151.63 13.96 273.37 32.47s324.28 61.48 365.98 133.16c43.26 74.35 11.29 117.34-79.01 216.87s-270.94 307.84-270.94 307.84-94.34-26.96-177.12 10.16-188.677 39.585-209.84 5.26z" fill="#92acef"/><path d="M412.1 1595.338c-39.414 0-67.487-9.151-77.521-25.432a2.5 2.5 0 0 1-.353-1.62c.058-.465 6.134-47.232 36.65-112.532a595.639 595.639 0 0 1 67.465-110.412 678.6 678.6 0 0 1 113.846-115.466l-217.247.662h-.83c-58.235 0-115.372-18.684-160.984-52.662-50.5-37.613-76.529-84.253-77.378-138.623-.6-38.324 6.74-72.825 21.81-102.544a174.808 174.808 0 0 1 32.217-44.542c1.183-1.215 2.118-2.174 2.6-2.751 2.353-2.831 5.4-.408 9.614 2.946 10.052 8 30.971 24.646 71.148 19.472 44.845-5.77 76.794-18.4 104.984-29.542 31.744-12.547 59.159-23.381 96.244-21.956C519.152 863.6 568.167 871.2 657.146 885c15.952 2.474 32.447 5.032 50.863 7.832 95.515 14.514 322.555 56.661 367.765 134.375 21.809 37.482 25.014 67.757 10.718 101.232-14.452 33.84-47.863 72.088-90.037 118.575-89.249 98.382-269.1 305.715-270.9 307.8a2.508 2.508 0 0 1-2.575.766c-.936-.268-94.454-26.266-175.411 10.037-39.7 17.8-86.71 28.607-128.984 29.642q-3.294.08-6.485.079zm-72.789-27.313c9.967 14.91 39.427 23.207 79.151 22.234 41.636-1.02 87.948-11.664 127.061-29.2 43.228-19.383 89.546-21.146 120.78-19.214a313.288 313.288 0 0 1 56.5 8.516c14.8-17.061 184.183-212.153 269.954-306.7 41.854-46.133 75-84.054 89.142-117.179 13.605-31.857 10.482-60.792-10.442-96.753-18.1-31.114-69.089-59.844-151.55-85.393-33.691-10.438-106.117-30.367-212.645-46.554-18.423-2.8-34.921-5.36-50.878-7.833-88.794-13.771-137.708-21.356-222.211-24.61-36.027-1.382-63 9.271-94.215 21.61-28.461 11.25-60.72 24-106.183 29.851-42.277 5.446-65.137-12.75-74.9-20.518-1.26-1-2.645-2.1-3.529-2.685a134.75 134.75 0 0 1-1.99 2.066 170.087 170.087 0 0 0-31.338 43.315c-14.7 28.987-21.855 62.7-21.269 100.2.823 52.737 26.179 98.054 75.364 134.691 44.752 33.336 100.836 51.672 158 51.672h.814l224.456-.683h.007a2.5 2.5 0 0 1 1.544 4.465c-45.353 35.625-85.231 75.643-118.527 118.942a590.748 590.748 0 0 0-66.9 109.4c-27.954 59.735-35.214 103.683-36.2 110.36z" fill="#161616"/><path d="M558.834 1230.235a2.5 2.5 0 0 1-1.665-4.367l190.96-170.16a2.5 2.5 0 1 1 3.327 3.733L560.5 1229.6a2.491 2.491 0 0 1-1.666.635zm184.887 407.676c-24.552 0-52.434-6.65-82.933-19.787-53.63-23.1-97.523-58.838-97.96-59.2l3.17-3.867c.432.354 43.853 35.7 96.853 58.508 30.966 13.328 59.091 19.805 83.556 19.314 30.3-.632 55.111-12.112 73.759-34.124l3.814 3.232c-19.623 23.163-45.7 35.24-77.515 35.892q-1.365.031-2.744.032z" fill="#161616"/></svg></g><g transform="translate(614.0 1639.0) rotate(0.0 1405.5 22.5) scale(1.0021390374331551 1.0)"><svg width="2805" height="45" viewBox="0 0 2805 45"><path d="M2.5 2.5v40h2800v-40z" fill="#fff"/><path d="M2802.5 45H2.5A2.5 2.5 0 0 1 0 42.5v-40A2.5 2.5 0 0 1 2.5 0h2800a2.5 2.5 0 0 1 2.5 2.5v40a2.5 2.5 0 0 1-2.5 2.5zM5 40h2795V5H5z" fill="#161616"/></svg></g><g transform="translate(1418.0 1278.0) rotate(0.0 662.5 182.5) scale(1.0 1.0)"><svg width="1325" height="365" viewBox="0 0 1325 365"><path d="M2.5 362.5v-40h340v40z" fill="#fff"/><path d="M342.5 365H2.5a2.5 2.5 0 0 1-2.5-2.5v-40a2.5 2.5 0 0 1 2.5-2.5h340a2.5 2.5 0 0 1 2.5 2.5v40a2.5 2.5 0 0 1-2.5 2.5zM5 360h335v-35H5z" fill="#161616"/><path d="m322.5 362.5 80-360h440l-80 360z" fill="#fff"/><path d="M762.5 365h-440a2.5 2.5 0 0 1-2.441-3.042l80-360A2.5 2.5 0 0 1 402.5 0h440a2.5 2.5 0 0 1 2.44 3.043l-80 360A2.5 2.5 0 0 1 762.5 365zm-436.884-5h434.878l78.89-355H404.506z" fill="#161616"/><path d="m722.5 362.5-100-360h460l120 360z" fill="#fff"/><path d="M1202.5 365h-480a2.5 2.5 0 0 1-2.409-1.831l-100-360A2.5 2.5 0 0 1 622.5 0h460a2.5 2.5 0 0 1 2.372 1.71l120 360a2.5 2.5 0 0 1-2.372 3.29zm-478.1-5h474.631L1080.7 5H625.789z" fill="#161616"/><path d="m722.5 362.5-11.49-41.26 611.49 1.26v40z" fill="#fff"/><path d="M1322.5 365h-600a2.5 2.5 0 0 1-2.408-1.829l-11.492-41.26a2.5 2.5 0 0 1 2.409-3.171l611.496 1.26a2.5 2.5 0 0 1 2.495 2.5v40a2.5 2.5 0 0 1-2.5 2.5zm-598.1-5H1320v-35l-605.7-1.248z" fill="#161616"/><path d="M662.5 42.5 729 280.69l413.5 1.81-80-240z" fill="#fff"/><g fill="#161616"><path d="M1142.5 285h-.011l-413.5-1.81a2.5 2.5 0 0 1-2.4-1.828l-66.5-238.19A2.5 2.5 0 0 1 662.5 40h400a2.5 2.5 0 0 1 2.372 1.71l80 240a2.5 2.5 0 0 1-2.372 3.29zm-411.6-6.8 408.126 1.787L1060.7 45H665.8z"/><path d="M982.5 85h-260a2.5 2.5 0 0 1 0-5h260a2.5 2.5 0 0 1 0 5zm20 40h-260a2.5 2.5 0 0 1 0-5h260a2.5 2.5 0 0 1 0 5zm0 40h-260a2.5 2.5 0 0 1 0-5h260a2.5 2.5 0 0 1 0 5z"/></g></svg></g><g transform="translate(2126.0 872.0) rotate(0.0 509.5 887.0) scale(0.999312543578951 0.9998489517930774)"><svg width="1019.701" height="1774.268" viewBox="0 0 1019.701 1774.268"><path d="M441.164 57.778s-41.78-64.166-108.18-37.306-145.5 168.628-17.17 408.128c0 0-28.35 199.22 144.75 301.44 0 0 111.06 49.51 236.18 56.81s264.3-27.61 264.3-27.61 79.74-64.58 42.52-197.95c-29.04-104.06-128.18-124.79-199-235.03 0 0 3.71-201.236-80.66-276.548S541.764-1.7 441.164 57.778z" fill="#ff6996"/><path d="M732.142 790.341c-11.9 0-23.792-.311-35.544-1-124.139-7.245-235.937-56.527-237.051-57.024a2.258 2.258 0 0 1-.254-.131c-39.816-23.511-72.271-54.13-96.463-91.005-19.347-29.488-33.474-63.009-41.988-99.633-13.474-57.955-8.438-105.676-7.609-112.478-35.759-66.893-57.771-130.686-65.436-189.629-6.523-50.161-2.652-95.427 11.505-134.54 15.221-42.053 42.415-74.483 72.745-86.75 35.323-14.29 63.721-3.086 81.328 8.827a118.758 118.758 0 0 1 28.516 27.467C497.348 21.912 545.293 4.329 588.407.707c51.876-4.356 96.74 11.061 137.162 47.138 19.54 17.443 35.98 42.992 48.86 75.938 10.254 26.226 18.3 57.2 23.913 92.046a707.423 707.423 0 0 1 8.731 109.708c31.092 48.168 68.407 79.763 101.348 107.653 43.554 36.878 81.17 68.727 97.551 127.426 19.432 69.63 6.677 120.393-7.444 150.716-15.351 32.961-35.079 49.175-35.911 49.848a2.488 2.488 0 0 1-.965.483c-1.264.317-115.781 28.678-229.51 28.678zM461.709 727.81c4.37 1.92 113.86 49.463 235.18 56.542 119.335 6.965 253.208-25.013 262.988-27.4 2.9-2.5 20.577-18.532 34.232-47.976 13.692-29.522 26.03-78.994 7.047-147.015-15.968-57.22-53.04-88.609-95.967-124.953-17.092-14.472-34.765-29.437-52.238-47.027a376.827 376.827 0 0 1-50.49-62.371 2.5 2.5 0 0 1-.4-1.4 696.71 696.71 0 0 0-8.672-109.667C777.6 118.6 745.984 72.771 722.239 51.576 682.9 16.462 639.261 1.455 588.826 5.689c-42.863 3.6-90.748 21.344-146.39 54.241a2.5 2.5 0 0 1-3.367-.787 113.136 113.136 0 0 0-28.635-28.113c-24.106-16.253-49.849-19.03-76.512-8.241-29.036 11.745-55.173 43.078-69.922 83.817-13.883 38.356-17.667 82.833-11.249 132.194 7.613 58.546 29.571 122.005 65.262 188.618a2.5 2.5 0 0 1 .273 1.532c-.071.5-6.857 50.208 7.463 111.648 8.394 36.018 22.3 68.969 41.319 97.939 23.741 36.147 55.582 66.184 94.641 89.273z" fill="#161616"/><path d="M452.4 80.442a2.5 2.5 0 0 1-2.244-1.4c-5.067-10.282-12.837-22.454-12.914-22.576a2.5 2.5 0 1 1 4.211-2.694c.324.506 8 12.524 13.187 23.06a2.5 2.5 0 0 1-2.24 3.606zM349 473.408a2.5 2.5 0 0 1-1.578-.562c-21.124-17.231-33.617-42.632-34.138-43.706a2.5 2.5 0 0 1 4.5-2.186c.123.253 12.554 25.5 32.8 42.017a2.5 2.5 0 0 1-1.584 4.437zm521.645 34.2a2.493 2.493 0 0 1-1.918-.895c-29.318-35.022-45.876-82.087-54.6-115.4a438.678 438.678 0 0 1-12.043-64.513 2.5 2.5 0 1 1 4.98-.442c.1 1.106 10.48 111.426 65.5 177.147a2.5 2.5 0 0 1-1.916 4.1z" fill="#161616"/><path d="M967.034 772.878s23.43-38.44-26.84-75.29c0 0-32.24-69.76-93.63-109.15s-168.71-93-191.04-122.03 91.69 308.45 91.69 308.45z" fill="#92acef"/><path d="M747.214 777.358a2.5 2.5 0 0 1-2.369-1.7c-.257-.763-26.075-77.22-50.445-153.289-14.317-44.691-25.343-80.512-32.769-106.465-4.419-15.444-7.6-27.536-9.458-35.941-2.967-13.436-2.446-16.249-.156-17.473 2.59-1.379 4.77 1.46 5.489 2.394 14.564 18.934 67.279 49.257 118.257 78.582 25.361 14.588 51.585 29.672 72.151 42.868 58.29 37.4 90.928 102.7 94.267 109.613 14.678 10.875 32.057 28.8 32.783 53.029.443 14.789-5.54 24.785-5.8 25.2a2.5 2.5 0 0 1-2.113 1.2l-219.82 1.98zm-91.865-307.227c1.479 10.575 9.914 45.132 45.3 155.361 21.87 68.12 44.478 135.355 48.352 146.85l216.524-1.951a46.144 46.144 0 0 0 4.43-21.528c-.64-17.958-11.152-34.531-31.242-49.259a2.5 2.5 0 0 1-.791-.967c-.32-.691-32.671-69.572-92.71-108.094-20.465-13.131-46.636-28.185-71.945-42.743-49.527-28.492-100.682-57.918-117.918-77.669z" fill="#161616"/><path d="m754.544 1698.058-.96 69.48 186.28-193.26 70.82-71.65s-22.83-38.81-22.78-41.25-233.36 236.68-233.36 236.68z" fill="#ff6996"/><path d="m753.874 1698.388 236.36-239.41s-106.01-103.13-129.25-114c0 0-36.71 12.06-68.41 68.73s-32.61 72.88-81.4 100.48z" fill="#fff"/><path d="M713.454 1511.608s33.62-14.05 57-55.04 50.18-97.46 90.57-113.15c0 0-197.39-127.02-241.2-141.16l-182.47-10.7z" fill="#6f5490"/><path d="M753.494 1772.968a2.509 2.509 0 0 1-2.156-1.235l-339.71-578.639a2.5 2.5 0 0 1 2-3.761l138.269-8.67a2.554 2.554 0 0 1 1.054.162c91.138 35.068 171.823 73.781 239.816 115.064 54.448 33.058 100.934 67.835 138.169 103.367 63.622 60.71 78.007 102.055 78.588 103.786a2.5 2.5 0 0 1-.558 2.519l-253.661 266.63a2.5 2.5 0 0 1-1.811.777zM418 1194.068l335.97 572.273 250.289-263.087c-3.08-7.7-20.63-46.918-77.2-100.784-37-35.231-83.189-69.735-137.3-102.553-67.524-40.958-147.634-79.391-238.1-114.23z" fill="#161616"/><path d="M751.044 1704.828a2.5 2.5 0 0 1-1.794-4.241l232.68-239.66a2.5 2.5 0 1 1 3.588 3.482l-232.68 239.66a2.5 2.5 0 0 1-1.794.759zm-51.819-185.6h-.07a2.5 2.5 0 0 1 .028-5h.02c.193 0 9.983-.148 24.508-9.723 24.6-16.221 43.509-46.425 55.039-68.908 18.4-35.884 47.116-81.02 79.408-92.259l.656-.232a2.5 2.5 0 1 1 1.7 4.7l-.712.25c-30.728 10.7-58.618 54.747-76.6 89.82-41.039 80.024-81.437 81.352-83.977 81.352z" fill="#161616"/><path d="M805.345 1716.688a2.494 2.494 0 0 1-1.94-.921l-29.43-36.12a2.5 2.5 0 0 1 3.877-3.158l29.43 36.12a2.5 2.5 0 0 1-1.937 4.079zm17.855-18.47a2.5 2.5 0 0 1-1.94-.921l-29.431-36.119a2.5 2.5 0 1 1 3.877-3.159l29.431 36.119a2.5 2.5 0 0 1-1.937 4.08zm116.956-120.8a2.5 2.5 0 0 1-1.94-.921l-29.43-36.12a2.5 2.5 0 1 1 3.877-3.158l29.429 36.12a2.5 2.5 0 0 1-1.936 4.079zm24.91-27.51a2.493 2.493 0 0 1-1.942-.924l-27.981-34.44a2.5 2.5 0 0 1 3.881-3.153l27.981 34.441a2.5 2.5 0 0 1-1.939 4.076z" fill="#161616"/><path d="M348.354 1562.7s-174 49.07-174 209.07h580s25.7-120.01-20.49-220l-71.13-8.08z" fill="#fff"/><path d="M754.354 1774.268h-580a2.5 2.5 0 0 1-2.5-2.5c0-36.956 9.268-71.09 27.546-101.456 14.6-24.258 34.944-46.156 60.465-65.087 43.367-32.169 87.371-44.809 87.81-44.933a2.492 2.492 0 0 1 .528-.089l314.38-19.01a2.5 2.5 0 0 1 .433.011l71.13 8.08a2.5 2.5 0 0 1 1.987 1.436c13.279 28.745 28.88 77.856 27.8 148.583-.646 42.257-7.065 72.686-7.13 72.989a2.5 2.5 0 0 1-2.449 1.976zm-577.485-5H752.3a428.113 428.113 0 0 0 6.632-70.158c.576-38.167-3.622-94.168-26.753-145.016l-69.511-7.9-313.883 18.98c-3.6 1.062-45.114 13.743-86.068 44.159-24.961 18.538-44.839 39.947-59.081 63.634-17.359 28.873-26.359 61.259-26.767 96.301z" fill="#161616"/><path d="m180.694 1732.078-3.44 36.5 575.15.91 4.79-36.46z" fill="#ff6996"/><path d="m654.354 751.768-80 40-240 60s-280 20-320 160 9.2 232.04 335.48 550.4c0 0 57.13 31.16 162.1 11.27s194.35-32.89 228.64-7.63c0 0-80.13-200.39-277.99-359.08 0 0 329.74 16.87 445.21-19.96 105.55-33.67 233-295.92-140.67-489.97z" fill="#6f5490"/><g fill="#161616"><path d="M444.307 1582.536a281.067 281.067 0 0 1-53.262-4.819c-27.469-5.318-41.811-13.029-42.409-13.354a2.528 2.528 0 0 1-.548-.406c-171.453-167.29-259.96-266.545-305.495-342.589-23.755-39.674-36.8-74.311-41.06-109-3.849-31.361-.636-62.6 10.417-101.284 9.29-32.514 32.128-61.262 67.879-85.446 28.41-19.22 65.018-35.625 108.806-48.762 72.321-21.7 140.889-27.242 145.32-27.582l239.526-59.884 79.755-39.878.022-.011 112.77-54.97a2.5 2.5 0 0 1 2.248.028C1000.554 815.2 1025 953.257 1018.894 1024.812a216.161 216.161 0 0 1-39.251 107.688c-20.035 27.98-45.946 48.629-71.09 56.649-48.13 15.352-137.846 23.4-266.656 23.909-79 .322-149.164-2.467-171.811-3.477 99.26 81.007 167.647 172.124 207.8 234.848 44.378 69.331 64.811 119.947 65.012 120.45a2.5 2.5 0 0 1-3.8 2.941c-34.752-25.6-131.043-10.049-226.692 8.073a365.733 365.733 0 0 1-68.099 6.643zm-92.992-22.415c4.489 2.283 61.154 29.616 160.153 10.861 46.155-8.745 99.016-18.052 141.133-20.785 38.3-2.488 65.468.584 82.588 9.376-7.173-16.251-27.108-58.708-61.593-112.565-40.733-63.617-110.678-156.6-212.577-238.329a2.5 2.5 0 0 1 1.693-4.448c3.3.17 330.607 16.427 444.322-19.844 24.139-7.7 49.122-27.673 68.544-54.8a211.166 211.166 0 0 0 38.334-105.2c5.988-70.2-18.177-205.647-246.824-324.791l-111.62 54.41-80 40a2.592 2.592 0 0 1-.511.189l-240 60a2.606 2.606 0 0 1-.429.068c-.7.05-70.656 5.249-144.54 27.425-43.285 12.993-79.418 29.18-107.4 48.113-34.731 23.5-56.881 51.312-65.837 82.655C5.9 1050.467 2.733 1081.093 6.5 1111.757c4.17 33.974 17 67.988 40.387 107.042 45.272 75.612 133.47 174.501 304.428 341.322z"/><path d="M462.753 1209.258a2.5 2.5 0 0 1-1.693-.661l-161.66-148.83a2.5 2.5 0 0 1 3.387-3.677l161.66 148.829a2.5 2.5 0 0 1-1.694 4.339zm-283.829 525.01a2.5 2.5 0 1 1 0-5l578.31-.02a2.5 2.5 0 0 1 0 5z"/><path d="M254.354 1774.268a2.5 2.5 0 0 1-2.5-2.5v-40a2.5 2.5 0 1 1 5 0v40a2.5 2.5 0 0 1-2.5 2.5zm20 0a2.5 2.5 0 0 1-2.5-2.5v-40a2.5 2.5 0 0 1 5 0v40a2.5 2.5 0 0 1-2.5 2.5zm80 0a2.5 2.5 0 0 1-2.5-2.5v-40a2.5 2.5 0 0 1 5 0v40a2.5 2.5 0 0 1-2.5 2.5zm20 0a2.5 2.5 0 0 1-2.5-2.5v-40a2.5 2.5 0 0 1 5 0v40a2.5 2.5 0 0 1-2.5 2.5zm20 0a2.5 2.5 0 0 1-2.5-2.5v-40a2.5 2.5 0 0 1 5 0v40a2.5 2.5 0 0 1-2.5 2.5zm140 0a2.5 2.5 0 0 1-2.5-2.5v-40a2.5 2.5 0 0 1 5 0v40a2.5 2.5 0 0 1-2.5 2.5zm80 0a2.5 2.5 0 0 1-2.5-2.5v-40a2.5 2.5 0 0 1 5 0v40a2.5 2.5 0 0 1-2.5 2.5zm20 0a2.5 2.5 0 0 1-2.5-2.5v-40a2.5 2.5 0 0 1 5 0v40a2.5 2.5 0 0 1-2.5 2.5zm80 0a2.5 2.5 0 0 1-2.5-2.5v-40a2.5 2.5 0 0 1 5 0v40a2.5 2.5 0 0 1-2.5 2.5z"/></g><path d="M590.634 779.958s-133.16-46.75-144.7-103.09 9.02-101.9 3.45-169.45c-2.68-32.48-18.78-55.62 15.17-79.35 18.32-12.8 58.28-40.07 93.07-40.91 52.79-1.27 50.23 18.22 71.33 45.58 65.15 84.45 87.35 87.78 138.68 265.34 0 0-85.57 72.54-177 81.88z" fill="#92acef"/><path d="M590.633 782.458a2.494 2.494 0 0 1-.828-.142 542.751 542.751 0 0 1-68.38-30.575c-46.776-25.225-73-50.247-77.94-74.371-6.281-30.688-3.159-58.252.147-87.435 2.858-25.24 5.814-51.338 3.26-82.312a195.261 195.261 0 0 0-3.214-21.012c-4.258-22.244-7.936-41.455 19.443-60.592 15.846-11.071 57.938-40.479 94.442-41.36 42.845-1.03 50.616 11.433 62.38 30.3a191.531 191.531 0 0 0 10.99 16.254c11.146 14.446 21.181 26.7 30.035 37.506 44.206 53.963 66.393 81.049 109.067 228.666a2.5 2.5 0 0 1-.785 2.6c-.215.183-21.934 18.5-54.563 37.686-30.16 17.737-76.121 39.9-123.8 44.774a2.387 2.387 0 0 1-.254.013zm-28.2-392.86q-2.293 0-4.747.059c-35 .845-76.191 29.626-91.7 40.461-24.723 17.28-21.649 33.334-17.4 55.553a199.349 199.349 0 0 1 3.286 21.542c2.594 31.46-.39 57.806-3.276 83.285-3.259 28.777-6.338 55.959-.216 85.869 10.767 52.562 133.48 97.771 142.558 101.046 83.481-8.771 163.009-71.4 173.834-80.219C722.685 551.95 700.715 525.129 657.1 471.886c-8.876-10.835-18.935-23.116-30.126-37.621A195.178 195.178 0 0 1 615.7 417.6c-10.779-17.285-17.463-28-53.269-28z" fill="#161616"/><path d="M331.134 810.008s-59.87 10.09-89.99-17.05-52.97-62.53-52.97-62.53l-105.08.02s-13.55-28.17 21.71-57.55l13.94-11.21s-6.29-24.4 36.85-43.7 57.39-5.67 64.83-3.91c0 0 26.45-25.04 63.25 9.53s98.9 101.1 119.94 111.01l-17.2 30.11z" fill="#fbb348"/><path d="M550.134 680.258s13.07 5.97 18.66 18.66 19.04 38.82 29.49 46.65c0 0-54.48 1.46-85.52-11.62s-74.51-30.39-107.72-1.99c-13.96 11.94-14.15 24.52-18.56 31.35 0 0-47.65 20.81-56.59 50.31-11.18 36.91-.61 61.19 90.36 78.39s128.52 45.3 161.07 63.56c56.45 31.65 129.8 43.36 197.93-19.94 0 0 44.19-7.98 51.84-35.38s-.96-37.6.31-52.89 7.04-69.99-26.18-110.77-63.21-51.48-75.94-71.44c-42.23-66.22-48.77-130.47-104.52-167.59" fill="#92acef"/><path d="M671.393 983.772c-29.786 0-60.469-8.743-91.292-26.023-4.567-2.563-9.2-5.3-14.1-8.192-68.375-40.375-111.534-48.536-146.212-55.093-51.9-9.813-79.875-22.156-90.7-40.022-6.534-10.78-7.022-23.594-1.583-41.549 8.661-28.582 50.923-48.68 57.253-51.55a44.013 44.013 0 0 0 2.8-6.7c2.418-6.715 5.731-15.914 15.866-24.582 35.182-30.086 82.215-10.259 110.315 1.586 24.1 10.155 63.232 11.386 78.3 11.463-9.871-10.936-20.639-32.1-25.528-43.179-5.124-11.63-17.293-17.341-17.415-17.4a2.5 2.5 0 0 1 2.081-4.547c.568.261 14 6.521 19.909 19.927 6.4 14.5 19.327 38.634 28.7 45.657a2.5 2.5 0 0 1-1.432 4.5c-2.244.062-55.381 1.324-86.558-11.815-28.786-12.135-72.29-30.475-105.124-2.394-9.129 7.808-12.058 15.942-14.411 22.477a40.843 40.843 0 0 1-3.673 8.33 2.511 2.511 0 0 1-1.1.934c-.466.2-46.7 20.7-55.2 48.744-4.991 16.479-4.66 28.046 1.074 37.507 9.894 16.324 37.652 28.3 87.357 37.7 34.93 6.6 65.059 15.355 92.107 26.753 23.374 9.848 40.558 20 55.719 28.947 4.878 2.881 9.485 5.6 14 8.136 31.6 17.718 62.982 26.227 93.285 25.318 36.619-1.111 70.842-16.221 101.718-44.909a2.513 2.513 0 0 1 1.257-.629c.427-.077 42.742-8.032 49.877-33.592 4.746-17.021 3.02-27.244 1.5-36.264-.9-5.326-1.75-10.356-1.267-16.161l.119-1.4c1.458-17 5.895-68.745-25.746-107.588-18.093-22.209-35.311-35.479-49.146-46.141-11.734-9.043-21-16.185-26.964-25.533-15.386-24.127-25.882-47.585-36.033-70.271-17.6-39.332-32.8-73.3-67.765-96.583a2.5 2.5 0 1 1 2.771-4.162c36.17 24.083 51.643 58.663 69.559 98.7 10.076 22.521 20.5 45.808 35.683 69.625 5.492 8.61 14.454 15.516 25.8 24.261 14.04 10.82 31.512 24.284 49.971 46.943 32.919 40.412 28.351 93.671 26.85 111.172l-.118 1.386c-.429 5.176.332 9.688 1.215 14.912 1.611 9.536 3.438 20.344-1.608 38.441-7.519 26.931-46.981 35.81-53.075 37.028-31.652 29.218-66.789 44.613-104.442 45.755-1.528.055-3.062.077-4.594.077z" fill="#161616"/><path d="M373.5 798.089a2.5 2.5 0 0 1-2.3-3.476 22.011 22.011 0 0 1 1.272-2.342c2.25-3.822 6.93-11.776 12.713-31.371a2.5 2.5 0 0 1 4.8 1.416c-5.956 20.185-10.848 28.5-13.2 32.491-.447.76-.834 1.416-.977 1.755a2.5 2.5 0 0 1-2.308 1.527z" fill="#161616"/><path d="M779.414 935.548s10.73-10.42 13.86-18.3" fill="#92acef"/><path d="M779.414 938.048a2.5 2.5 0 0 1-1.742-4.293c.1-.1 10.385-10.145 13.279-17.43a2.5 2.5 0 1 1 4.646 1.846c-3.289 8.282-13.988 18.729-14.442 19.171a2.5 2.5 0 0 1-1.741.706z" fill="#161616"/><path d="M597.874 745.578s73.01-9.69 136.52 14.27" fill="#92acef"/><path d="M734.394 762.349a2.469 2.469 0 0 1-.883-.162c-62.164-23.45-134.585-14.227-135.309-14.131a2.5 2.5 0 0 1-.657-4.957c.736-.1 74.366-9.5 137.732 14.411a2.5 2.5 0 0 1-.883 4.839zm-422.888 52.163a165.589 165.589 0 0 1-20.833-1.3c-28.606-3.65-51.517-14.872-66.255-32.453-12.546-14.967-23.244-28.8-32.684-41-16.479-21.306-28.387-36.7-36.515-40.391a2.5 2.5 0 0 1 2.069-4.553c9.256 4.2 20.85 19.194 38.4 41.884 9.411 12.166 20.077 25.956 32.561 40.847 33.718 40.217 100.087 31.038 100.751 30.938a2.5 2.5 0 0 1 .725 4.947 136.291 136.291 0 0 1-18.219 1.081z" fill="#161616"/><path d="M82.684 732.528a2.5 2.5 0 0 1-2.215-1.341c-.195-.373-4.736-9.286-1.445-23.269 4.286-18.208 19.285-35.93 44.58-52.675 39.857-26.383 61.755-8.676 79.353 5.551a110.547 110.547 0 0 0 13.486 9.878 2.5 2.5 0 0 1-2.5 4.332 114.107 114.107 0 0 1-14.133-10.323c-17.176-13.886-36.644-29.633-73.448-5.268-16.493 10.918-37.232 28.323-42.374 49.24-2.3 9.34-.6 16.116.367 18.869L188 727.158a2.5 2.5 0 0 1 .008 5l-105.319.37z" fill="#161616"/><path d="M117.6 664.809a2.487 2.487 0 0 1-2.438-1.982c-.278-1.339-6.06-33.022 59.357-53.555C211.7 597.605 241.93 623.355 260 638.743c2.9 2.469 5.636 4.8 7.992 6.631a2.5 2.5 0 0 1-3.066 3.949c-2.447-1.9-5.226-4.268-8.168-6.773-18.4-15.671-46.2-39.348-80.741-28.507-17.642 5.537-40.845 15.477-51.2 31.388-6.032 9.273-4.816 16.112-4.762 16.4a2.508 2.508 0 0 1-1.963 2.931 2.568 2.568 0 0 1-.492.047z" fill="#161616"/><path d="M401.115 735.4a2.5 2.5 0 0 1-.772-.123c-12.689-4.111-38.851-31-66.549-59.471-19.8-20.351-40.273-41.394-54.981-53.026-32.68-25.852-56.818-7.289-57.83-6.487a2.5 2.5 0 0 1-3.124-3.9c.278-.223 28.159-21.928 64.056 6.469 14.963 11.834 35.552 33 55.462 53.461 26.054 26.78 53 54.472 64.507 58.2a2.5 2.5 0 0 1-.769 4.879z" fill="#161616"/><path d="m439.854 387.088 33.46 79.69s76.17 7.48 105.23-40.51l-41.39-89.81" fill="#fbb348"/><path d="M484.6 469.712c-6.835 0-11.162-.409-11.532-.446a2.5 2.5 0 0 1-2.061-1.52l-33.457-79.691a2.5 2.5 0 1 1 4.609-1.935l32.868 78.28c10.521.68 74.517 2.991 100.684-38.3l-40.828-88.6a2.5 2.5 0 0 1 4.542-2.093l41.389 89.811a2.5 2.5 0 0 1-.132 2.341c-12.263 20.252-34.81 33.882-65.2 39.415a174.81 174.81 0 0 1-30.882 2.738z" fill="#161616"/><path d="M378.534 142.158s-57.62 26.44-56.79 102.79c0 0-20.82-9.72-27.21 4.16s13.61 25.27 26.38 31.93c0 0 4.51 89.46 86.11 105.25s126.25-49.42 128.47-51.34c0 0 83.99 24.33 125.83-47.29s-7.92-111.83-54.81-111.68c-46.42.15-67.58 38.21-74.66 57.22 0 0-47.8 52.44-104.3-11.18-49.43-55.65-34.91-81.88-71.89-100.7" fill="#fbb348"/><path d="M432.275 391.271a135.08 135.08 0 0 1-25.725-2.529c-43.189-8.356-64.867-37.211-75.448-59.945a143.6 143.6 0 0 1-12.583-46.19c-11.1-5.817-33.694-18.35-26.257-34.542a14.4 14.4 0 0 1 8.343-7.8c6.439-2.362 14.21-.474 18.645 1.033.529-38.172 15.777-63.426 28.706-78.03a104.207 104.207 0 0 1 27.311-22.244c-4.65-6.757-10.7-12.368-20.737-17.476a2.5 2.5 0 0 1 2.268-4.456c20 10.18 25.569 22.534 33.275 39.634 7.066 15.678 15.859 35.19 39.35 61.636 17.955 20.217 36.78 30.531 55.955 30.655h.345c24.308 0 41.469-16.61 43.97-19.172 3.091-8.163 10.063-23.258 22.976-36.1 14.789-14.706 32.9-22.2 53.837-22.265h.274c27.6 0 53.071 13.307 64.963 33.951 8.913 15.474 14.715 42.172-8.261 81.491-22.138 37.9-55.99 49.046-80.491 51.727a138.908 138.908 0 0 1-46.612-2.877l-.225.277a150.61 150.61 0 0 1-39.056 34.7c-20.25 12.327-41.969 18.522-64.823 18.522zM307.494 244.132a15.054 15.054 0 0 0-5.179.827 9.44 9.44 0 0 0-5.511 5.195c-5.087 11.076 10.83 21.139 25.266 28.667a2.5 2.5 0 0 1 1.341 2.09 138.688 138.688 0 0 0 12.3 45.927c14.684 31.443 38.839 50.619 71.793 57 64.2 12.421 105.722-25.323 124.763-48.927a15.946 15.946 0 0 1 1.6-1.85 2.506 2.506 0 0 1 2.33-.51 133.726 133.726 0 0 0 46.429 3.11c33.893-3.757 59.647-20.331 76.549-49.26 21.765-37.249 16.5-62.146 8.244-76.473-11.014-19.121-34.792-31.447-60.629-31.447h-.26c-47.954.155-67.481 42.591-72.324 55.593a2.48 2.48 0 0 1-.5.811c-.79.867-19.591 21.132-47.971 21.132h-.386c-20.652-.134-40.725-11.013-59.661-32.335-24-27.016-32.964-46.914-40.17-62.9-2.61-5.794-4.915-10.908-7.573-15.507a100.119 100.119 0 0 0-26.394 21.482c-12.687 14.393-27.722 39.637-27.3 78.169a2.5 2.5 0 0 1-3.558 2.292c-.093-.043-6.737-3.086-13.199-3.086z" fill="#161616"/><path d="M553.1 304.658a2.5 2.5 0 0 1-2.425-3.112c.169-.671 4.3-16.674 17.253-36.881a166.228 166.228 0 0 1 71-61.36 2.5 2.5 0 0 1 2.084 4.545 161.247 161.247 0 0 0-68.764 59.342c-12.568 19.55-16.685 35.422-16.725 35.579a2.5 2.5 0 0 1-2.423 1.887z" fill="#161616"/><path d="M599.322 280.218a2.491 2.491 0 0 1-1.544-.535c-12.809-10.079-28.323-8.331-28.478-8.314a2.5 2.5 0 0 1-.616-4.962c.714-.089 17.692-2.059 32.186 9.346a2.5 2.5 0 0 1-1.548 4.465zM332.7 326.638a2.5 2.5 0 0 1-.024-5c.844-.01 20.723-.5 26.075-22.589a2.5 2.5 0 1 1 4.859 1.178c-6.288 25.948-30.648 26.41-30.894 26.411zm21.214-97.22a6.67 6.67 0 1 1 6.67 6.67 6.666 6.666 0 0 1-6.67-6.67z" fill="#161616"/><path d="M387.9 309.908a37.435 37.435 0 1 1 37.44 37.44 37.435 37.435 0 0 1-37.44-37.44z" fill="#e79f33"/></svg></g><g transform="translate(2579.0 2081.0) rotate(0.0 332.5 282.5) scale(1.0 1.0)"><svg width="665" height="565" viewBox="0 0 665 565"><path d="M82.5 402.5h500v-40h-500z" fill="#fff"/><path d="M582.5 405h-500a2.5 2.5 0 0 1-2.5-2.5v-40a2.5 2.5 0 0 1 2.5-2.5h500a2.5 2.5 0 0 1 2.5 2.5v40a2.5 2.5 0 0 1-2.5 2.5zM85 400h495v-35H85z" fill="#161616"/><path d="M82.5 2.5v40h500v-40z" fill="#fff"/><path d="M582.5 45h-500a2.5 2.5 0 0 1-2.5-2.5v-40A2.5 2.5 0 0 1 82.5 0h500a2.5 2.5 0 0 1 2.5 2.5v40a2.5 2.5 0 0 1-2.5 2.5zM85 40h495V5H85z" fill="#161616"/><path d="m182.5 42.5-180 520h40l180-520z" fill="#fff"/><path d="M42.5 565h-40a2.5 2.5 0 0 1-2.362-3.318l180-520A2.5 2.5 0 0 1 182.5 40h40a2.5 2.5 0 0 1 2.362 3.318l-180 520A2.5 2.5 0 0 1 42.5 565zm-36.489-5H40.72L218.989 45H184.28z" fill="#161616"/><path d="m442.5 42.5 180 520h40l-180-520z" fill="#fff"/><path d="M662.5 565h-40a2.5 2.5 0 0 1-2.362-1.682l-180-520A2.5 2.5 0 0 1 442.5 40h40a2.5 2.5 0 0 1 2.362 1.682l180 520A2.5 2.5 0 0 1 662.5 565zm-38.22-5h34.709L480.72 45h-34.709z" fill="#161616"/></svg></g><g transform="translate(1676.0 274.0) rotate(0.0 367.0 277.5) scale(0.9987617531398403 0.9995389514025963)"><svg width="734.91" height="555.256" viewBox="0 0 734.91 555.256"><g fill="#cad5f3"><path d="M0 234.032C0 104.78 164.51 0 367.45 0s367.46 104.78 367.46 234.032S570.4 468.064 367.45 468.064 0 363.284 0 234.032z"/><path d="M118.33 377.918 43.88 555.256l240.91-108.745zm509.27-4.788 74.45 177.337-240.91-108.744z"/></g></svg></g><g transform="translate(1829.0 428.0) rotate(0.0 222.0 72.5) scale(1.0037073876480693 1.0033838254527336)"><svg width="442.36" height="144.511" viewBox="0 0 442.36 144.511"><g fill="#161616"><path d="M67.353 33.022a2.505 2.505 0 0 1-.364-.022l-64.85-9.465a2.5 2.5 0 0 1 .723-4.948l64.849 9.461a2.5 2.5 0 0 1-.358 4.974zM24.41 79.808a2.5 2.5 0 0 1-.7-4.9l39.913-11.576a2.5 2.5 0 1 1 1.393 4.8L25.107 79.708a2.52 2.52 0 0 1-.697.1zm22.652 64.703a2.5 2.5 0 0 1-1.506-4.5L83.6 111.356a2.5 2.5 0 0 1 3 3.994l-38.04 28.657a2.485 2.485 0 0 1-1.498.504zM383.31 19.713a2.5 2.5 0 0 1-.807-4.866L425.683.134a2.5 2.5 0 1 1 1.617 4.732l-43.183 14.713a2.506 2.506 0 0 1-.807.134zm56.552 45.561h-.154l-48.849-2.955a2.5 2.5 0 0 1 .3-4.991l48.85 2.954a2.5 2.5 0 0 1-.149 5zm-8.34 45.569a2.518 2.518 0 0 1-.555-.062l-47.51-10.776a2.5 2.5 0 0 1 1.106-4.876l47.51 10.776a2.5 2.5 0 0 1-.551 4.938z"/></g></svg></g><g transform="translate(1944.0 357.0) rotate(0.0 117.5 168.5) scale(1.0160843998616396 1.018520757271694)"><svg width="231.28" height="330.872" viewBox="0 0 231.28 330.872"><path d="M54.56 210.864s-3.5 16.406 10.28 26.25c0 0-.22 7.875 7.87 15.969 0 0-3.06 20.343 12.25 31.281 0 0-3.5 43.531 28.88 43.75 0 0 32.15 1.968 29.97-42.219 0 0 10.71-20.343 9.4-28.437l6.78-17.281s17.72-14.219 18.38-29.531c0 0-55.1 43.173-123.81.218z" fill="#92acef"/><path d="M2.5 115.643a113.14 113.14 0 1 1 113.14 113.142A113.139 113.139 0 0 1 2.5 115.643z" fill="#fbb348"/><g fill="#161616"><path d="M115.64 231.285a115.643 115.643 0 1 1 115.64-115.642 115.772 115.772 0 0 1-115.64 115.642zM115.64 5a110.643 110.643 0 1 0 110.64 110.643A110.767 110.767 0 0 0 115.64 5z"/><path d="M88.648 213.515a2.49 2.49 0 0 1-1.557-.545 157.222 157.222 0 0 1-25.168-26.548c-15.748-21.151-21.61-41.869-16.954-59.916C50.007 107 59.936 95.493 71.643 95.493c.289 0 .577.006.869.021 5.506.266 10.531 3.032 14.524 7.642 12.689-16.8 23.874-24.538 33.268-23 6.437 1.052 11.421 6.363 14.448 15.377 10.651-5.91 20.247-6.284 26.1-.871 9.565 8.85 12.225 35.6-29.421 112.767a2.5 2.5 0 0 1-4.4-2.375c17.247-31.957 28.208-57.849 32.579-76.956 3.381-14.782 2.617-25.353-2.153-29.766-5.035-4.66-13.989-2.1-21.31 2.168 3.27 14.159 1.745 31.29-3.774 38.507-2.357 3.084-4.917 3.649-6.65 3.58-4.649-.186-9.143-4.891-10.931-11.442-1.219-4.469-3.608-19.826 15.579-32.9l-.114-.367c-1.667-5.3-4.887-11.824-10.758-12.784-7.44-1.218-17.836 6.7-29.39 22.309a43.112 43.112 0 0 1 5.453 15.592c5 31.8-7.678 35.283-9.14 35.575a2.49 2.49 0 0 1-1.87-.366 27.266 27.266 0 0 1-10.561-17.234c-1.821-10.084 1.536-21.377 9.982-33.6-3.244-4.134-7.325-6.652-11.7-6.863-3.592-.17-15.756 1.282-22.46 27.248-10.375 40.21 39.888 80.9 40.4 81.305a2.5 2.5 0 0 1-1.561 4.454zM86.9 111.98c-6.764 10.344-9.455 19.746-8 27.993a23.041 23.041 0 0 0 7.4 13.243c2.221-1.487 7.78-7.5 4.329-29.448A39.312 39.312 0 0 0 86.9 111.98zm44.772-8.53c-14.818 10.938-13.018 22.843-12.053 26.379 1.3 4.753 4.225 7.679 6.306 7.762.825.036 1.633-.514 2.479-1.621 3.956-5.18 5.83-19.501 3.263-32.52z"/><path d="M116.119 251.936q-1.66 0-3.361-.035c-26.6-.549-45.017-6.828-54.726-18.661-8.741-10.655-6.887-21.771-6.8-22.239a2.5 2.5 0 0 1 4.923.868c-.071.426-1.474 9.48 5.827 18.3 8.643 10.441 26.238 16.229 50.882 16.737 24.408.506 42.063-4.55 52.471-15.024 9.421-9.48 9.242-20.254 9.239-20.362a2.5 2.5 0 0 1 5-.163c.019.521.317 12.89-10.581 23.94s-28.679 16.639-52.874 16.639z"/><path d="M115.718 269.818q-1.059 0-2.141-.019c-14.125-.24-33.394-3.394-44.982-17.05-7.077-8.341-7.875-16.61-7.905-16.958a2.5 2.5 0 0 1 4.98-.444c.116 1.209 3.3 28.691 47.993 29.453 17.734.3 30.714-3.409 37.524-10.734 5.75-6.183 5.228-12.78 5.222-12.846a2.5 2.5 0 0 1 4.981-.448 23.169 23.169 0 0 1-6.541 16.7c-7.622 8.196-20.781 12.346-39.131 12.346z"/><path d="M116.233 294.514q-1.2 0-2.421-.039c-16.75-.527-29.176-5.44-36.932-14.6-10.289-12.155-8.394-27.189-8.308-27.823a2.5 2.5 0 0 1 4.956.664c-.017.135-1.655 13.551 7.208 23.975 6.807 8.009 17.988 12.309 33.232 12.787 13.224.408 22.984-2.75 29.056-9.4 8.425-9.235 6.912-22.365 6.9-22.5a2.5 2.5 0 0 1 4.96-.629c.08.627 1.849 15.478-8.122 26.451-6.71 7.38-16.973 11.113-30.529 11.114z"/><path d="M114.606 330.872c-9.456 0-16.987-2.991-22.416-8.908-12.149-13.238-9.151-36.225-9.017-37.2a2.5 2.5 0 0 1 4.953.678c-.029.216-2.8 21.66 7.759 33.151 4.824 5.25 11.835 7.675 20.858 7.22 7.274-.37 13.02-3.022 17.08-7.883 9.7-11.62 7.175-32.207 7.148-32.414a2.5 2.5 0 0 1 4.958-.646c.122.93 2.848 22.933-8.255 36.249-4.99 5.984-11.947 9.244-20.677 9.688a44.07 44.07 0 0 1-2.391.065z"/></g></svg></g></svg>