<svg xmlns="http://www.w3.org/2000/svg" version="1.1" viewBox="0 0 3000 2250" width="3000" height="2250">
<defs/><!--ITEM: Illustration component 1--><g transform="translate(857.0 568.0) rotate(0.0 803.5 666.5)  scale(1.001205558653388 1.0000577677780338)"><svg width="1605.065" height="1332.923" viewBox="0.0 0.0 1605.065 1332.923"><path d="m871.251 525.107c-232.179-83.351-347.863 369.387-392.386 471.672-80.62 185.209 12.463 315.714 102.158 328.091 135.201 18.656 166.287-83.206 221.456-210.452 50.439-116.338 93.117-312.807 93.117-312.807s41.457-252.881-24.345-276.504z" fill="#92acef"/><path d="m611.501 1329.586c-9.778 0-20.037-.75-30.82-2.238-41.918-5.784-81.956-35.978-107.102-80.767-17.559-31.277-27.229-68.767-27.967-108.417-.844-45.346 9.573-93.25 30.96-142.383 6.6-15.161 15-38.704 24.727-65.965 22.173-62.146 52.541-147.256 93.197-224.786 22.258-42.445 45.449-78.276 68.93-106.495 27.507-33.057 56.393-56.883 85.855-70.814 39.131-18.505 80.451-20.175 122.814-4.966 28.426 10.204 41.38 60.518 38.502 149.544-2.12 65.577-12.431 129.083-12.535 129.717-.007.042-.015.085-.023.126-.428 1.968-43.308 198.042-93.267 313.271-4.343 10.016-8.563 19.939-12.646 29.536-24.287 57.103-45.263 106.417-76.18 139.984-27.748 30.126-61.425 44.653-104.446 44.653zm204.063-812.1c-21.908 0-43.347 4.92-64.145 14.754-53.53 25.313-104.837 84.229-152.495 175.112-40.493 77.22-70.792 162.139-92.916 224.145-10.159 28.473-18.184 50.963-24.852 66.28-53.777 123.545-25.099 207.379-3.217 246.355 24.384 43.434 63.047 72.69 103.425 78.262 56.459 7.789 98.059-5.187 130.905-40.85 30.332-32.932 51.15-81.878 75.257-138.554 4.085-9.604 8.31-19.536 12.658-29.567 49.444-114.042 91.988-307.854 92.954-312.28.381-2.351 10.387-64.713 12.463-129.05 2.755-85.365-9.415-135.379-35.195-144.634-18.523-6.649-36.843-9.974-54.843-9.974z" fill="#000000"/><path d="m613.471 1012.602c-58.825-69.788-132.08-147.305-204.591-233.69-63.028-75.087-160.089-78.734-255.443 1.906-53.392 45.154-94.602 149.929-20.855 238.94 70.664 85.288 114.966 122.941 182.624 176.921 86.825 69.272 211.298 150.18 321.96 128.486" fill="#92acef"/><path d="m599.478 1331.224c-40.5 0-85.156-11.348-133.293-33.926-47.145-22.113-97.041-54.387-152.539-98.665-66.276-52.878-111.666-91.196-182.989-177.28-42.547-51.351-44.031-103.363-37.785-137.954 7.29-40.376 29.328-79.437 58.95-104.489 50.948-43.087 103.996-63.619 153.44-59.405 40.182 3.435 76.674 23.422 105.532 57.801 38.771 46.189 77.348 89.385 114.653 131.158 32.173 36.024 62.561 70.052 89.935 102.527.891 1.056.756 2.633-.3 3.522-1.054.889-2.633.758-3.522-.3-27.329-32.422-57.693-66.423-89.841-102.42-37.331-41.801-75.934-85.025-114.755-131.273-27.984-33.339-63.3-52.715-102.128-56.033-48.071-4.104-99.872 16.03-149.786 58.241-52.642 44.52-93.818 146.997-20.544 235.436 71.018 85.714 116.232 123.884 182.259 176.562 129.114 103.013 233.754 144.883 319.92 127.987 1.352-.271 2.668.617 2.934 1.972s-.617 2.669-1.972 2.935c-12.265 2.404-25 3.604-38.169 3.605z" fill="#000000"/><path d="m689.633 779.221c-43.306 120.55-25.192 392.533-16.574 551.201 140.813-.857 714.743-.654 714.743-.654s-100.858-740.671-170.13-786.943c-75.198-50.23-171.541-90.753-346.421-17.719-127.509 48.733-163.526 203.752-181.618 254.114z" fill="#92acef"/><path d="m673.059 1332.923c-1.295 0-2.376-.988-2.49-2.28-8.908-100.743-20.401-329.784-.141-475.558.189-1.367 1.456-2.323 2.82-2.133 1.368.19 2.322 1.453 2.133 2.82-20.048 144.238-8.894 370.448-.033 472.137 143.078-.832 706.747-.644 712.455-.641 1.381 0 2.5 1.12 2.499 2.501 0 1.38-1.12 2.499-2.5 2.499-5.74-.003-575.532-.194-714.727.654h-.016z" fill="#000000"/><path d="m1110.803 908.39s103.257 285.904 226.127 384.42c141.07 113.109 351.271-54.177 228.998-288.123-46.933-79.345-151.589-197.156-211.383-290.224-50.701-78.914-81.114-133.318-136.873-171.638l-106.869 365.564z" fill="#92acef"/><path d="m1435.854 1331.419c-35.622 0-70.271-12.621-100.48-36.653-49.075-39.04-82.929-110.382-122.128-192.99-28.824-60.743-61.494-129.592-104.501-191.967-.783-1.137-.497-2.693.64-3.478 1.139-.78 2.694-.496 3.478.64 43.234 62.706 75.996 131.747 104.901 192.661 38.932 82.046 72.555 152.903 120.724 191.222 60.269 47.944 137.012 47.661 195.515-.722 57.547-47.595 99.858-150.604 29.712-284.283-13.572-25.865-41.478-61.914-76.808-107.554-47.723-61.648-113.08-146.08-180.148-253.589-81.253-130.247-243.38-215.143-422.425-111.201-1.192.691-2.724.288-3.417-.907-.693-1.193-.287-2.724.907-3.417 82.965-48.165 169.857-59.297 251.281-32.199 71.121 23.67 134.299 75.193 177.896 145.078 66.935 107.295 132.203 191.61 179.86 253.175 35.479 45.834 63.505 82.036 77.281 108.291 30.825 58.745 42.68 118.293 34.281 172.208-7.414 47.596-30.581 89.591-65.234 118.251-27.924 23.095-62.355 36.366-96.952 37.371-1.46.042-2.924.063-4.382.063z" fill="#000000"/><path d="m1367.028 1018.07c-82.488-7.487-222.961-65.04-327.232-84.61-72.023-13.518-154.329-13.582-189.753 124.474-16.914 65.921.879 146.181 29.082 183.731 73.372 97.687 312.94 88.082 515.074 88.082 9.44.075 46.593 1.623 73.815-4.341" fill="#92acef"/><path d="m1292.135 1332.507c-78.883 0-157.769-1.366-226.808-10.339-96.091-12.488-157.651-38.33-188.199-79.002-14.407-19.182-26.043-49.175-31.923-82.29-6.371-35.879-5.513-72.658 2.417-103.563 16.233-63.266 43.23-102.757 82.534-120.729 35.855-16.396 75.777-12.023 110.102-5.58 47.49 8.913 102.607 25.726 155.909 41.983 64.96 19.814 126.317 38.53 171.087 42.593 1.375.125 2.389 1.341 2.265 2.716-.125 1.376-1.366 2.403-2.716 2.264-45.283-4.109-106.881-22.897-172.095-42.79-53.172-16.219-108.154-32.989-155.372-41.852-77.003-14.45-152.939-9.6-186.87 122.638-16.946 66.045 1.683 145.691 28.66 181.609 29.696 39.538 90.16 64.74 184.846 77.046 83.911 10.906 182.657 10.529 278.164 10.164 16.512-.063 33.587-.128 50.064-.128 1.1.009 2.541.036 4.286.07 13.513.256 45.155.869 68.994-4.353 1.361-.292 2.683.561 2.978 1.907.295 1.349-.559 2.682-1.907 2.978-24.415 5.347-56.472 4.73-70.161 4.467-1.722-.033-3.144-.061-4.209-.069-16.449 0-33.519.065-50.026.128-17.265.066-34.647.133-52.02.133z" fill="#000000"/><path d="m773.861 448.639s28.886 85.331 41.906 121.994c45.075 40.422 138.238 1.057 147.665-46.478l-41.909-124.663-147.662 49.146z" fill="#fbb348"/><path d="m864.335 589.932c-19.78 0-37.396-5.923-50.236-17.438-.312-.279-.547-.631-.687-1.024-12.878-36.262-41.63-121.176-41.919-122.029-.213-.63-.166-1.319.13-1.915s.817-1.049 1.449-1.259l147.661-49.146c1.308-.433 2.72.27 3.159 1.575l41.909 124.662c.139.413.167.855.082 1.283-4.752 23.962-30.719 47.659-64.614 58.967-12.706 4.239-25.202 6.324-36.935 6.324zm-46.427-20.742c19.133 16.773 49.644 20.396 81.779 9.675 31.936-10.653 56.402-32.515 61.159-54.555l-40.899-121.658-142.911 47.565c4.742 13.992 29.136 85.888 40.872 118.973z" fill="#000000"/><path d="m565.36 276.435c-40.337-69.893-32.991-158.042 16.905-215.438 45.134-51.919 117.542-70.005 183.341-45.551 12.323-4.535 92.337-32.523 167.707 11.451 13.563 7.909 57.99 34.738 77.46 90.413 16.444 47.019 5.78 88.025 2.591 99.636-5.327 19.292-13.97 37.509-25.545 53.838-124.296 13.921-268.612 35.584-422.458 5.652z" fill="#6f5490"/><path d="m730.769 293.981c-53.637 0-109.083-4.041-165.886-15.092-.71-.139-1.326-.577-1.688-1.204-20.002-34.658-28.894-74.028-25.712-113.854 3.127-39.149 18.361-76.252 42.896-104.475 22.496-25.878 51.959-43.929 85.204-52.201 32.973-8.204 67.537-6.257 100.028 5.627 22.667-8.194 97.601-29.68 168.962 11.955 48.254 28.143 69.354 65.426 78.559 91.747 11.146 31.87 12.061 66.839 2.643 101.123-5.421 19.632-14.141 38.008-25.916 54.621-.413.582-1.054.96-1.762 1.039-11.581 1.297-23.084 2.632-35.262 4.046-69.061 8.015-143.615 16.667-222.066 16.667zm-163.809-19.782c138.711 26.77 269.694 11.566 385.299-1.852 11.791-1.369 22.949-2.664 34.163-3.923 11.115-15.898 19.365-33.436 24.531-52.144 9.147-33.299 8.27-67.237-2.54-98.146-8.928-25.527-29.421-61.703-76.359-89.079-70.413-41.078-144.54-19.006-165.584-11.265-.559.207-1.174.207-1.734-.002-65.011-24.163-135.896-6.559-180.583 44.849-49.054 56.426-56.059 143.265-17.192 211.561z" fill="#111"/><path d="m497.979 381.423c-14.409-50.768 15.85-103.828 67.583-118.511s105.353 14.571 119.762 65.339-4.81 100.695-56.542 115.377c-51.733 14.683-116.394-11.438-130.803-62.206z" fill="#fbb348"/><path d="m598.77 450.205c-17.102 0-34.508-3.668-50.416-10.856-27.025-12.213-45.771-32.542-52.781-57.243-14.762-52.014 16.329-106.563 69.306-121.599 52.974-15.035 108.087 15.048 122.851 67.063 15.763 55.54-8.197 104.255-58.266 118.465-9.838 2.792-20.209 4.171-30.693 4.171zm-98.387-69.465c14.541 51.236 79.419 74.189 127.715 60.483 47.236-13.406 69.779-59.581 54.82-112.289-14.01-49.361-66.347-77.9-116.675-63.617-50.324 14.283-79.869 66.062-65.86 115.423z" fill="#000000"/><path d="m653.427 373.221c-.636 0-1.271-.241-1.759-.724-.733-.726-73.896-72.381-125.419-57.747-1.332.375-2.711-.396-3.088-1.723-.377-1.328.395-2.711 1.723-3.088 22.932-6.506 51.886 1.499 86.059 23.801 25.192 16.442 44.056 35.019 44.243 35.204.981.971.989 2.554.018 3.535-.488.494-1.133.741-1.776.741z" fill="#000000"/><path d="m598.676 392.863c-1.291 0-2.386-.994-2.489-2.304-2.834-35.933 20.416-48.962 21.407-49.499 1.216-.657 2.731-.207 3.39 1.007.656 1.212.208 2.726-1 3.386-.875.48-21.381 12.147-18.813 44.714.108 1.376-.919 2.58-2.296 2.688-.066.005-.133.008-.199.008z" fill="#000000"/><path d="m1139.3 191.858c-14.408-50.768-67.943-80.046-119.585-65.39-33.49 9.505-57.927 35.154-67.052 65.853-11.314-18.547-25.004-34.283-39.648-46.298-94.079-77.185-245.79-36.276-280.959 79.74-17.415 57.449-12.048 158.689 69.383 221.177 96.84 74.312 228.964 35.315 268.724-76.268 9.164-25.715 12.898-50.875 12.51-74.747 20.232 18.372 47.601 26.205 78.18 17.527 51.633-14.654 92.856-70.826 78.447-121.594z" fill="#fbb348"/><path d="m790.274 310.852c-.307 0-.619-.058-.922-.178-1.283-.51-1.91-1.963-1.4-3.246.199-.501 4.995-12.306 15.523-15.445 6.279-1.873 13.095-.268 20.261 4.772 1.129.795 1.4 2.354.606 3.483-.795 1.129-2.353 1.401-3.483.606-5.849-4.115-11.217-5.485-15.955-4.071-8.231 2.455-12.266 12.399-12.306 12.5-.39.98-1.33 1.578-2.324 1.578z" fill="#000000"/><path d="m850.153 262.871c-.308 0-.621-.058-.925-.179-1.281-.511-1.907-1.961-1.397-3.243.284-.717 7.145-17.604 22.122-22.071 8.893-2.649 18.599-.339 28.847 6.87 1.129.795 1.4 2.354.606 3.483-.795 1.129-2.353 1.401-3.483.606-8.924-6.278-17.172-8.353-24.517-6.176-12.646 3.754-18.868 18.982-18.93 19.136-.392.978-1.331 1.573-2.323 1.573z" fill="#000000"/><path d="m692.315 308.729c-.308 0-.621-.058-.925-.179-1.281-.511-1.907-1.961-1.397-3.243.284-.717 7.145-17.604 22.122-22.071 8.892-2.649 18.599-.339 28.847 6.87 1.129.795 1.4 2.354.606 3.483-.795 1.129-2.354 1.401-3.483.606-8.924-6.278-17.171-8.353-24.517-6.176-12.646 3.754-18.868 18.982-18.93 19.136-.392.978-1.331 1.573-2.323 1.573z" fill="#000000"/><path d="m806.374 369.917c-.762 0-1.512-.013-2.25-.036-19.296-.616-34.308-8.617-34.937-8.958-1.214-.656-1.666-2.172-1.011-3.386.655-1.216 2.171-1.667 3.387-1.014.145.078 14.739 7.831 32.891 8.365 24.032.734 42.7-10.98 55.542-34.737.655-1.216 2.172-1.667 3.388-1.011 1.215.656 1.667 2.174 1.011 3.388-16.541 30.602-40.252 37.389-58.021 37.389z" fill="#000000"/><path d="m675.134 374.632c-5.671-19.016 5.147-39.03 24.163-44.701s39.03 5.147 44.701 24.163-5.147 39.03-24.163 44.701-39.03-5.147-44.701-24.163z" fill="#e79f33"/><path d="m881.727 313.017c-5.671-19.016 5.147-39.03 24.163-44.701s39.03 5.147 44.701 24.163-5.147 39.03-24.163 44.701-39.03-5.147-44.701-24.163z" fill="#e79f33"/><path d="m997.969 267.543c-.237 0-.478-.034-.717-.105-1.323-.396-2.075-1.788-1.68-3.111.073-.245 7.496-24.837 21.799-51.058 19.367-35.505 41.449-56.988 65.632-63.852 1.331-.378 2.712.396 3.088 1.723.377 1.328-.395 2.711-1.723 3.088-54.742 15.536-83.719 110.572-84.005 111.53-.324 1.084-1.318 1.785-2.395 1.785z" fill="#000000"/><path d="m1058.374 254.252c-.888 0-1.748-.474-2.2-1.31-14.64-27.041-39.179-25.553-40.222-25.479-1.384.085-2.574-.93-2.679-2.304s.92-2.574 2.294-2.682c1.161-.101 28.77-1.901 45.003 28.083.657 1.215.206 2.731-1.008 3.389-.379.205-.786.302-1.188.302z" fill="#000000"/><path d="m810.545 487.611c-38.856 0-77.467-13.24-110.628-38.688-36.818-28.253-61.947-67.638-72.673-113.896-8.517-36.734-7.635-76.824 2.419-109.989 8.412-27.748 23.427-51.94 44.629-71.905 19.725-18.572 44.393-32.713 71.338-40.892 59.485-18.055 122.654-6.149 168.971 31.85 13.885 11.392 26.718 25.971 37.343 42.387 10.82-30.333 35.551-53.463 67.09-62.414 52.885-15.007 107.911 15.099 122.673 67.112 7.01 24.699 1.757 51.839-14.79 76.419-15.711 23.339-39.541 40.93-65.38 48.264-27.939 7.931-54.838 2.772-76.346-14.495-.237 23.625-4.493 47.195-12.673 70.148-19.127 53.68-60.488 93.437-113.479 109.075-15.951 4.708-32.246 7.024-48.494 7.024zm-9.608-378.64c-17.901 0-36.044 2.648-53.854 8.055-55.609 16.879-96.663 56.776-112.634 109.463-19.649 64.82-6.592 160.835 68.512 218.468 45.746 35.104 102.115 46.341 154.664 30.835 51.438-15.182 91.6-53.802 110.184-105.958 8.609-24.16 12.771-49.013 12.366-73.867-.016-.997.562-1.908 1.47-2.318.91-.411 1.974-.243 2.711.427 20.824 18.91 47.75 24.938 75.816 16.973 48.211-13.683 91.266-67.271 76.725-118.507-14.009-49.361-66.271-77.927-116.497-63.667-31.64 8.979-56.065 32.965-65.339 64.159-.281.947-1.095 1.64-2.074 1.768-.97.129-1.942-.334-2.457-1.178-10.854-17.795-24.375-33.587-39.1-45.667-31.17-25.572-70.212-38.984-110.492-38.984z" fill="#000000"/><path d="m673.062 86.269c4.371 46.656 151.203 156.98 279.602 106.052-6.288-23.636.5-48.885-5.789-72.521l-134.225-76.377z" fill="#6f5490"/><path d="m674.845 85.741c7.914 58.65 137.598 155.708 277.818 106.58l1.743-5.29" fill="#6f5490"/><path d="m874.333 208.326c-61.122 0-108.52-23.837-130.084-37.054-39.989-24.508-68.204-57.95-71.881-85.197-.185-1.368.775-2.627 2.144-2.812 1.368-.192 2.628.775 2.812 2.144 3.483 25.817 30.779 57.848 69.538 81.603 29.463 18.057 108.137 56.348 203.814 23.354l1.357-4.117c.432-1.31 1.839-2.027 3.157-1.591 1.311.432 2.023 1.846 1.591 3.157l-1.744 5.29c-.243.737-.814 1.319-1.548 1.576-28.063 9.833-54.708 13.646-79.156 13.646z" fill="#111"/><path d="m916.498 203.827c-.287 0-.578-.05-.863-.154-56.632-20.836-99.708-58.205-121.292-105.225-.575-1.255-.025-2.739 1.229-3.315 1.257-.573 2.74-.025 3.315 1.229 21.024 45.802 63.1 82.245 118.474 102.617 1.296.478 1.96 1.914 1.483 3.21-.372 1.011-1.329 1.638-2.347 1.638z" fill="#111"/><path d="m259.794 584.445c24.324 33.417 68.18 214.48-29.154 267.616-50.163 27.385-111.356 8.559-151.946-32.03-46.691-46.691-67.59-108.491-74.067-155.721-7.923-57.778 221-126.805 255.166-79.865z" fill="#fbb348"/><path d="m179.561 867.555c-38.888 0-76.66-19.782-102.634-45.756-55.673-55.673-70.84-128.445-74.777-157.148-1.662-12.118 5.752-24.913 22.037-38.029 14.073-11.336 34.477-22.546 59.004-32.421 34.531-13.901 73.219-23.653 106.144-26.755 26.117-2.461 59.894-1.764 72.48 15.528 18.08 24.841 42.431 117.874 26.397 189.256-8.707 38.76-27.674 66.357-56.375 82.026-17 9.28-34.752 13.299-52.277 13.299zm30.535-296.151c-6.272 0-13.047.337-20.292 1.02-32.464 3.059-70.642 12.687-104.744 26.416-50.79 20.447-80.661 45.404-77.956 65.132 3.868 28.203 18.76 99.693 73.358 154.293 36.363 36.362 96.53 60.235 148.979 31.604 27.384-14.949 45.516-41.438 53.893-78.733 16.736-74.508-10.666-164.753-25.562-185.217-6.935-9.528-23.57-14.514-47.677-14.514z" fill="#000000"/><path d="m230.639 852.062c113.351-62.839 98.473-269.642 38.596-273.459-58.626-3.737-42.421 70.167-52.013 99.496-5.376 16.436-29.442 39.256-30.899 99.208l44.317 74.755z" fill="#fbb348"/><path d="m130.987 635.297c-5.884-27.462-7.038-51.949-5.207-68.797 3.438-31.633 18.489-53.594 37.531-64.556 38.777-22.321 70.166 78.34 64.212 111.894-2.722 15.342-87.233 64.879-96.537 21.459z" fill="#fbb348"/><path d="m230.642 854.562c-.879 0-1.732-.465-2.188-1.288-.669-1.208-.232-2.729.975-3.398 77.81-43.111 92.735-151.775 78.481-215.166-7.281-32.383-21.795-52.363-38.825-53.447-40.634-2.602-43.112 34.253-45.302 66.754-.794 11.783-1.544 22.913-4.18 30.965-1.461 4.465-4.195 9.314-7.362 14.932-8.899 15.783-22.348 39.635-23.416 83.501-.033 1.359-1.146 2.439-2.498 2.439-.021 0-.041 0-.062 0-1.381-.033-2.473-1.18-2.438-2.56 1.099-45.114 14.915-69.62 24.059-85.836 3.036-5.386 5.658-10.036 6.966-14.03 2.44-7.457 3.17-18.284 3.942-29.746 1.097-16.276 2.34-34.726 8.862-48.687 7.749-16.586 21.407-24.006 41.747-22.722 19.659 1.252 35.473 22.152 43.385 57.341 8.12 36.111 6.074 80.715-5.472 119.313-9.735 32.542-30.729 76.537-75.464 101.322-.384.213-.8.313-1.21.313z" fill="#000000"/><path d="m8.405 685.899c-5.884-27.462-7.038-51.949-5.207-68.797 3.438-31.633 18.489-53.594 37.531-64.556 38.777-22.321 70.166 78.34 64.212 111.894-2.722 15.342-87.233 64.879-96.537 21.459z" fill="#fbb348"/><path d="m15.417 714.916c-1.032 0-1.999-.645-2.359-1.675-12.781-36.477-14.385-77.641-12.345-96.41 3.251-29.92 17.382-54.142 38.77-66.453 9.046-5.205 18.602-4.605 27.634 1.733 12.163 8.538 23.867 28.069 32.111 53.585 7.323 22.666 10.532 45.895 8.176 59.18-.241 1.36-1.544 2.261-2.898 2.025-1.359-.241-2.267-1.539-2.025-2.898 2.191-12.348-1.028-35.161-8.01-56.769-7.917-24.504-18.935-43.104-30.227-51.03-7.536-5.291-14.819-5.778-22.267-1.492-19.987 11.506-33.216 34.344-36.293 62.66-1.99 18.315-.413 58.522 12.093 94.217.456 1.303-.229 2.729-1.533 3.186-.273.096-.552.142-.826.142z" fill="#000000"/><path d="m64.369 647.695c-5.884-27.462-7.038-51.949-5.207-68.797 3.438-31.633 18.489-53.594 37.531-64.556 38.777-22.321 70.166 78.34 64.212 111.894-2.722 15.342-87.233 64.879-96.537 21.459z" fill="#fbb348"/><path d="m64.366 650.196c-1.153 0-2.19-.804-2.441-1.978-5.401-25.211-7.314-50.576-5.248-69.591 3.251-29.92 17.382-54.141 38.77-66.452 9.044-5.204 18.602-4.608 27.634 1.733 12.163 8.538 23.867 28.068 32.112 53.585 7.323 22.665 10.532 45.894 8.176 59.179-.241 1.36-1.539 2.262-2.898 2.025-1.359-.241-2.267-1.539-2.025-2.898 2.191-12.348-1.028-35.161-8.01-56.769-7.918-24.504-18.935-43.104-30.227-51.029-7.537-5.291-14.82-5.779-22.268-1.492-19.987 11.505-33.216 34.344-36.293 62.659-2.012 18.505-.128 43.291 5.166 68.003.289 1.35-.57 2.679-1.921 2.968-.176.038-.353.057-.526.057z" fill="#000000"/><path d="m130.983 637.798c-1.153 0-2.19-.804-2.441-1.978-5.401-25.209-7.313-50.574-5.247-69.591 3.251-29.921 17.382-54.142 38.769-66.452 9.045-5.205 18.603-4.605 27.635 1.733 12.163 8.538 23.867 28.069 32.111 53.585 7.323 22.665 10.532 45.894 8.176 59.179-.241 1.358-1.539 2.258-2.898 2.025-1.359-.241-2.267-1.539-2.025-2.898 2.191-12.348-1.028-35.161-8.01-56.769-7.917-24.504-18.935-43.103-30.227-51.029-7.535-5.289-14.817-5.779-22.268-1.492-19.987 11.505-33.215 34.343-36.292 62.659-2.012 18.507-.129 43.293 5.165 68.003.289 1.35-.57 2.679-1.921 2.968-.176.038-.353.057-.526.057z" fill="#000000"/><path d="m166.775 575.82c15.018 35.313 52.438 55.854 82.765 39.372 22.417-12.183 26.124-47.034-.808-85.17-24.848-35.185-59.215-42.504-85.421-28.077-19.248 10.596 3.464 73.875 3.464 73.875z" fill="#fbb348"/><path d="m226.928 623.496c-5.98 0-12.091-1.063-18.217-3.199-18.921-6.596-35.457-22.857-44.236-43.499-.54-1.271.052-2.738 1.322-3.279 1.272-.539 2.74.053 3.279 1.322 8.236 19.367 23.668 34.596 41.28 40.735 13.25 4.617 26.386 3.725 37.99-2.581 7.983-4.339 13.396-11.746 15.65-21.421 3.966-17.011-2.342-38.92-17.307-60.11-22.416-31.743-54.674-42.472-82.173-27.329-2.218 1.271-4.66 2.929-7.429 5.046-1.096.838-2.666.63-3.505-.468-.838-1.097-.629-2.666.468-3.505 2.945-2.252 5.567-4.029 8.017-5.433 13.842-7.621 29.868-9.315 45.172-4.795 16.375 4.839 31.429 16.457 43.534 33.599 15.788 22.355 22.382 45.73 18.093 64.131-2.589 11.104-8.859 19.638-18.134 24.678-7.479 4.065-15.518 6.108-23.806 6.108z" fill="#000000"/><path d="m100.157 588.217c15.018 35.313 52.438 55.854 82.765 39.372 22.417-12.183 26.124-47.034-.808-85.17-24.848-35.185-59.215-42.504-85.421-28.077-19.248 10.596 3.464 73.875 3.464 73.875z" fill="#fbb348"/><path d="m160.31 635.894c-5.98 0-12.091-1.063-18.216-3.199-18.921-6.596-35.458-22.856-44.237-43.499-.54-1.271.052-2.738 1.322-3.279 1.273-.539 2.738.053 3.279 1.322 8.237 19.367 23.669 34.596 41.281 40.735 13.247 4.618 26.385 3.726 37.99-2.581 7.983-4.339 13.396-11.746 15.65-21.421 3.966-17.011-2.342-38.92-17.307-60.11-22.418-31.742-54.674-42.471-82.174-27.329-2.029 1.032-4.266 2.538-6.91 4.64-1.082.859-2.655.68-3.513-.401-.859-1.081-.68-2.653.401-3.513 2.951-2.346 5.392-3.98 7.683-5.145 13.732-7.562 29.76-9.256 45.062-4.735 16.375 4.839 31.43 16.457 43.535 33.599 15.788 22.355 22.382 45.73 18.093 64.131-2.589 11.104-8.859 19.638-18.134 24.678-7.479 4.065-15.518 6.108-23.807 6.108z" fill="#000000"/><path d="m44.193 626.421c15.018 35.313 52.438 55.854 82.765 39.372 22.417-12.183 26.124-47.034-.808-85.17-24.848-35.185-59.215-42.504-85.421-28.077-19.248 10.596 3.464 73.875 3.464 73.875z" fill="#fbb348"/><path d="m104.346 674.097c-5.981 0-12.092-1.063-18.218-3.199-18.92-6.596-35.457-22.856-44.235-43.498-.54-1.271.052-2.738 1.322-3.279 1.272-.538 2.74.053 3.279 1.322 8.236 19.366 23.668 34.595 41.279 40.734 13.251 4.62 26.386 3.726 37.992-2.581 7.982-4.339 13.395-11.746 15.65-21.42 3.966-17.011-2.343-38.921-17.308-60.111-22.416-31.743-54.672-42.472-82.173-27.329-3.055 1.711-6.309 4.044-9.931 7.123-1.051.896-2.63.768-3.523-.285-.895-1.052-.767-2.63.285-3.523 3.871-3.292 7.385-5.806 10.741-7.686 13.82-7.61 29.849-9.305 45.15-4.782 16.375 4.839 31.429 16.456 43.534 33.598 15.788 22.356 22.383 45.731 18.093 64.132-2.589 11.104-8.858 19.637-18.133 24.677-7.479 4.065-15.519 6.108-23.807 6.108z" fill="#000000"/><path d="m802.479 953.461s-83.455-119.139-127.577-111.545c-44.125 7.612-44.562 43.953-44.562 43.953z" fill="#fbb348"/><path d="m802.477 955.961c-.306 0-.615-.057-.913-.173l-172.139-67.592c-.967-.38-1.599-1.318-1.586-2.357.005-.384.989-38.512 46.637-46.387 45.164-7.774 126.605 107.656 130.05 112.574.633.903.599 2.114-.084 2.981-.484.615-1.214.953-1.965.953zm-169.526-71.752 162.489 63.803c-18.527-25.103-84.052-109.849-120.115-103.632-36.6 6.313-41.672 32.763-42.374 39.829z" fill="#000000"/><path d="m530.788 851.246c-32.457-7.313-73.704-1.022-78.306 20.265-11.696 54.101 71.005 62.887 89.958 71.302-43.723 1.664-95.872 11.56-94.941 49.407.824 33.71 37.204 41.221 37.204 41.221s-31.249 17.786-27.772 45.571c3.476 27.785 31.729 34.088 63.295 32.903s92.067-6.069 122.455 22.081c42.94 40.304 143.773 64.396 213.415 17.447l64.808 22.135c71.462-2.692 91.16-114.371 32.611-153.159-18.72-11.176-240.173-128.04-422.727-169.173z" fill="#fbb348"/><path d="m766.139 1178.935c-8.701 0-17.563-.558-26.538-1.688-39.407-4.962-76.279-20.448-98.631-41.428-27.433-25.412-81.258-23.091-113.419-21.705-2.545.109-4.963.214-7.231.299-40.601 1.546-62.765-10.28-65.869-35.09-2.832-22.629 15.469-38.658 24.384-45.029-10.579-3.736-33.171-14.879-33.834-42.013-.721-29.265 28.202-46.846 83.856-51.193-1.291-.354-2.631-.719-4.008-1.093-15.271-4.148-36.185-9.829-52.145-20.063-19.376-12.425-27.002-28.894-22.666-48.949 1.322-6.115 5.284-11.317 11.774-15.461 15.258-9.738 43.845-12.501 69.525-6.715 95.853 21.598 201.509 64.112 273.266 95.975 80.409 35.705 140.388 67.638 150.192 73.491.034.02.066.041.1.063 34.687 22.979 40.72 68.226 31.646 100.541-4.46 15.885-12.445 29.553-23.093 39.525-11.699 10.957-26.379 17.069-42.452 17.675-.303.01-.611-.032-.901-.132l-63.651-21.741c-25.021 16.234-56.382 24.73-90.306 24.731zm-210.58-70.588c30.736 0 67.117 3.711 88.821 23.815 21.622 20.294 57.447 35.289 95.845 40.124 43.269 5.445 83.928-2.694 114.491-22.929.646-.427 1.456-.531 2.188-.281l64.365 21.984c28.818-1.285 51.398-21.266 60.459-53.536 8.595-30.611 3.013-73.383-29.545-94.989-9.901-5.897-69.546-37.633-149.608-73.184-71.551-31.771-176.88-74.159-272.336-95.668-24.09-5.426-51.735-2.882-65.735 6.053-5.325 3.399-8.548 7.539-9.578 12.303-8.94 41.353 41.248 54.985 71.234 63.131 7.523 2.044 13.467 3.658 17.295 5.357 1.063.473 1.66 1.615 1.44 2.757-.22 1.143-1.198 1.982-2.36 2.026-42.7 1.625-93.417 11.072-92.536 46.848.765 31.285 33.807 38.542 35.213 38.835 1.018.213 1.798 1.032 1.959 2.059.162 1.026-.326 2.046-1.229 2.562-.298.17-29.756 17.314-26.53 43.089 2.765 22.099 22.621 32.139 60.721 30.715 2.26-.085 4.668-.188 7.203-.298 8.266-.356 17.928-.772 28.224-.772z" fill="#000000"/><path d="m699.555 1047.987c-.269 0-.541-.044-.81-.136-.719-.245-72.559-24.574-133.944-22.208-.039 0-.073.006-.119.002-48.06-.47-78.852 10.053-79.158 10.158-1.304.457-2.729-.238-3.182-1.541-.453-1.304.236-2.728 1.54-3.182 1.277-.444 31.84-10.919 80.787-10.436 62.304-2.39 134.969 22.227 135.695 22.476 1.307.447 2.003 1.868 1.556 3.175-.355 1.038-1.326 1.691-2.365 1.691z" fill="#000000"/><path d="m708.338 977.238c-.247 0-.499-.037-.747-.115-62.021-19.387-116.076-29.792-165.255-31.811-1.38-.057-2.452-1.221-2.396-2.601.057-1.381 1.227-2.454 2.601-2.396 49.621 2.037 104.098 12.516 166.542 32.035 1.317.411 2.052 1.813 1.64 3.132-.334 1.069-1.32 1.755-2.385 1.755z" fill="#000000"/><path d="m856.098 1153.943c-.857 0-1.692-.441-2.158-1.234-.698-1.191-.3-2.723.891-3.422 12.883-7.56 25.253-21.944 25.376-22.089.897-1.051 2.478-1.171 3.524-.276 1.05.897 1.174 2.476.276 3.524-.526.616-13.047 15.173-26.646 23.153-.397.233-.833.344-1.264.344z" fill="#000000"/></svg></g><!--ITEM: Illustration component 2--><g transform="translate(626.0 742.0) rotate(0.0 475.0 579.5)  scale(0.9975156609958776 0.9966411730612793)"><svg width="952.366" height="1162.906" viewBox="0.0 0.0 952.366 1162.906"><path d="m144.99 982.891c-84.042 0-142.49 33.83-142.49 92.279s56.825 85.125 103.908 85.237c94.544.225 86.164-177.29 38.582-177.516z" fill="#fff"/><path d="m648.364 704.996s20.577 294.336 31.444 358.425c8.874 52.338 21.051 96.986 62.452 96.986 44.648 0 58.081-50.19 62.37-106.353 4.288-56.163 24.945-368.54 24.945-368.54l-181.21 19.483z" fill="#fff"/><path d="m742.261 1162.907c-44.404 0-56.418-48.94-64.917-99.068-10.764-63.475-31.268-355.724-31.474-358.668-.096-1.378.942-2.572 2.319-2.669 1.387-.081 2.571.942 2.669 2.319.205 2.942 20.692 294.947 31.415 358.182 8.142 48.021 19.48 94.904 59.987 94.904 35.43 0 54.457-33.061 59.877-104.044 4.238-55.508 24.736-365.391 24.943-368.515.09-1.378 1.275-2.431 2.659-2.329 1.378.091 2.421 1.281 2.329 2.659-.206 3.124-20.706 313.032-24.945 368.565-3.563 46.647-14.162 108.663-64.863 108.663z" fill="#000000"/><path d="m827.865 346.187c130.538 174.436 62.754 370.249-112.534 408.14 8.033 347.631-167.312 406.08-525.309 406.08-160.733-440.229 78.743-739.536 395.961-767.137 0 0 214.238-84.025 241.882-47.083z" fill="#fff"/><path d="m190.021 1162.907c-1.05 0-1.988-.656-2.349-1.643-39.796-108.998-56.691-213.537-50.217-310.714 5.999-90.024 31.704-171.268 76.402-241.472 79.591-125.005 214.992-204.546 371.55-218.267 4.667-1.816 56.327-21.779 110.458-37.339 76.765-22.064 121.851-25.022 134.001-8.784 33.771 45.129 55.383 92.699 64.234 141.391 8.246 45.362 4.699 90.487-10.257 130.497-26.619 71.208-87.031 122.045-165.939 139.743 2.481 70.323-2.955 128.452-16.611 177.652-13.542 48.792-34.917 87.866-65.347 119.454-40.592 42.138-98.164 70.899-176.008 87.931-67.197 14.702-152.966 21.55-269.918 21.55zm607.549-823.623c-53.783 0-163.619 37.859-210.675 56.314-.224.088-.458.143-.696.163-155.141 13.499-289.316 92.229-368.123 216.003-92.262 144.907-101.587 338.802-26.305 546.143 202.213-.105 354.518-18.614 440.574-107.949 60.116-62.405 85.691-156.314 80.487-295.537-.046-1.212.785-2.281 1.97-2.537 78.212-16.906 138.118-66.862 164.358-137.058 31.039-83.032 11.613-180.401-53.298-267.141-4.43-5.92-14.531-8.401-28.293-8.401z" fill="#000000"/><path d="m582.655 704.996s20.577 294.336 31.444 358.425c8.874 52.338 21.051 96.986 62.452 96.986 44.648 0 58.081-50.19 62.37-106.353 4.288-56.163 24.945-368.54 24.945-368.54l-181.21 19.483z" fill="#fff"/><path d="m676.552 1162.907c-44.404 0-56.418-48.94-64.917-99.068-10.764-63.475-31.268-355.724-31.474-358.668-.096-1.378.942-2.572 2.319-2.669 1.393-.081 2.572.942 2.669 2.319.205 2.942 20.692 294.947 31.415 358.182 8.142 48.021 19.48 94.904 59.987 94.904 35.431 0 54.457-33.061 59.876-104.044 4.238-55.508 24.736-365.391 24.943-368.515.091-1.378 1.282-2.431 2.659-2.329 1.378.091 2.421 1.281 2.329 2.659-.206 3.124-20.706 313.032-24.945 368.565-3.562 46.647-14.16 108.663-64.862 108.663z" fill="#000000"/><path d="m255.777 660.618c204.57-64.402 330.206 209.981 215.293 407.696 226.317-40.228 202.343 79.916 180.046 92.092h-461.094s-73.223-456.036 65.755-499.788z" fill="#fff"/><path d="m651.115 1162.907h-461.093c-1.381 0-2.5-1.119-2.5-2.5s1.119-2.5 2.5-2.5h460.409c7.565-4.864 16.632-26.552 8.993-48.292-4.499-12.808-16.53-30.096-48.292-39.722-33.03-10.012-80.008-9.715-139.625.882-.966.172-1.93-.231-2.486-1.028-.558-.798-.602-1.848-.112-2.688 71.572-123.146 46.271-266.028-15.714-343.524-49.723-62.162-121.408-84.225-196.668-60.53-1.319.411-2.722-.315-3.136-1.634-.414-1.317.317-2.721 1.634-3.136 40.331-12.696 79.043-12.96 115.063-.784 32.863 11.11 62.951 32.882 87.011 62.961 34.231 42.798 55.339 100.408 59.434 162.219 4.255 64.229-9.794 127.142-40.662 182.313 142.026-24.118 178.937 16.447 188.271 43.016 8.539 24.303-1.465 48.983-11.829 54.644-.367.2-.779.306-1.198.306z" fill="#000000"/><path d="m2.5 1075.169c0 58.448 56.825 85.237 103.908 85.237s107.299 0 228.183 0 148.354-194.345-228.478-137.253c0 0-39.212.062-103.614 52.016z" fill="#fff"/><path d="m334.592 1162.907h-228.184c-25.862 0-51.755-7.709-71.04-21.149-23.138-16.128-35.368-39.153-35.368-66.589 0-29.116 14.143-53.382 40.9-70.175 25.646-16.096 61.641-24.604 104.09-24.604 1.381 0 2.5 1.119 2.5 2.5s-1.119 2.5-2.5 2.5c-41.508 0-76.583 8.243-101.432 23.839-25.226 15.831-38.559 38.633-38.559 65.939 0 60.703 60.646 82.737 101.408 82.737h228.184c32.22 0 60.633-14.771 72.385-37.63 8.617-16.76 6.933-35.635-4.622-51.784-10.737-15.009-35.029-35.138-89.771-45.801-53.174-10.358-122.518-9.37-206.105 2.935-1.373.195-2.637-.744-2.838-2.109-.201-1.366.743-2.637 2.109-2.838 84.149-12.386 154.061-13.36 207.79-2.895 56.356 10.977 81.616 32.052 92.883 47.799 12.682 17.727 14.505 38.495 5.002 56.979-12.794 24.885-42.234 40.344-76.832 40.344z" fill="#000000"/><path d="m761.471 2.5s-28.299 47.647-31.266 113.429c-19.464 1.076-39.489 4.103-59.637 9.521-20.021 5.383-38.744 12.749-56.02 21.503-35.51-54.561-83.726-82.362-83.726-82.362-55.899 117.857-27.303 207.183-27.303 207.183-4.773 19.556-5.073 39.501.156 58.947 22.214 82.615 132.949 124.648 247.333 93.892s189.107-122.656 166.893-205.271c-5.3-19.71-15.498-36.944-29.729-51.6l.018.02s-19.253-91.333-126.72-165.263z" fill="#fff"/><path d="m676.098 437.228c-29.78 0-58.416-4.919-84.206-14.709-47.486-18.026-79.673-50.396-90.63-91.148-5.113-19.017-5.224-39.038-.332-59.519-1.215-4.092-7.072-25.562-7.22-59.462-.149-34.075 5.777-87.564 34.854-148.87.299-.631.848-1.107 1.514-1.315.669-.207 1.39-.126 1.994.221.481.278 48.031 28.083 83.344 81.296 17.521-8.713 35.847-15.669 54.503-20.685 18.783-5.052 38.253-8.235 57.901-9.471 3.495-64.501 31.218-111.866 31.501-112.342.354-.595.938-1.017 1.613-1.165.677-.148 1.383-.01 1.953.382 55.905 38.458 87.64 81.687 104.417 111.179 16.661 29.287 22.19 50.715 23.171 54.909 14.574 15.173 24.612 32.719 29.841 52.164 10.958 40.752-.654 84.899-32.696 124.31-31.851 39.174-80.137 69.016-135.962 84.025-25.323 6.81-50.837 10.2-75.561 10.2zm-144.2-369.046c-27.606 59.3-33.308 110.912-33.189 143.953.129 36.321 7.122 58.657 7.193 58.879.14.438.156.907.047 1.354-4.854 19.888-4.808 39.303.141 57.704 21.82 81.148 131.4 122.474 244.27 92.128 54.819-14.74 102.188-43.986 133.381-82.352 31.002-38.131 42.277-80.696 31.748-119.856-5.058-18.81-14.828-35.778-29.041-50.438-.037-.036-.074-.074-.109-.113-.329-.363-.532-.798-.612-1.25-.354-1.588-5.547-23.888-22.885-54.305-16.289-28.58-46.902-70.303-100.526-107.759-5.562 10.332-27.075 53.669-29.611 109.914-.058 1.283-1.077 2.313-2.359 2.384-20.066 1.109-39.96 4.285-59.126 9.439-19.035 5.118-37.722 12.291-55.539 21.319-1.14.576-2.53.202-3.226-.867-30.379-46.678-70.557-73.829-80.555-80.135z" fill="#000000"/><path d="m553.741 123.303 15.061 15.037 15.064 15.049c3.572 3.555 2.511 7.505-2.356 8.814l-20.55 5.526-20.562 5.529c-4.867 1.309-7.754-1.58-6.458-6.444l5.486-20.575 5.5-20.566c1.295-4.864 5.242-5.925 8.814-2.37z" fill="#ffaac3"/><path d="m780.444 61.36 15.061 15.037 15.061 15.037c3.575 3.567 2.515 7.516-2.353 8.825l-20.55 5.526-20.562 5.529c-4.867 1.309-7.754-1.58-6.461-6.455l5.489-20.563 5.5-20.566c1.292-4.876 5.239-5.937 8.814-2.37z" fill="#ffaac3"/><path d="m634.816 253.337c-.732 0-1.446-.022-2.141-.063-9.879-.584-17.484-4.908-17.804-5.092-1.196-.689-1.607-2.218-.918-3.414.69-1.195 2.217-1.605 3.411-.92 1.104.632 27.264 15.185 42.613-11.456.689-1.196 2.217-1.607 3.414-.918 1.196.689 1.607 2.218.918 3.414-8.631 14.979-20.426 18.449-29.494 18.449z" fill="#000000"/><path d="m818.918 203.836c-.732 0-1.447-.023-2.142-.064-9.879-.584-17.484-4.908-17.804-5.092-1.196-.689-1.607-2.218-.918-3.414.69-1.195 2.218-1.605 3.412-.919 1.134.647 27.272 15.171 42.612-11.456.689-1.196 2.218-1.607 3.414-.918s1.607 2.218.918 3.414c-8.631 14.979-20.425 18.449-29.493 18.449z" fill="#000000"/><path d="m726.65 255.531-8.614-4.643c-5.194-2.798-2.688-6.877 5.596-9.105l13.739-3.694 13.739-3.694c8.285-2.228 12.498.045 9.408 5.071l-5.124 8.337-5.121 8.348c-3.09 5.026-9.81 6.833-15.004 4.034l-8.617-4.654z" fill="#000000"/><path d="m721.352 304.221c-5.612 0-11.923-1.556-18.88-5.564-1.196-.689-1.607-2.218-.918-3.414.69-1.197 2.219-1.607 3.414-.918 24.233 13.962 39.107-6.045 42.082-10.607l-5.907-21.965c-.358-1.334.432-2.705 1.765-3.063 1.34-.358 2.705.432 3.063 1.765l6.188 23.012c.172.641.083 1.323-.248 1.897-.14.243-11.156 18.855-30.56 18.858z" fill="#000000"/><path d="m768.443 291.437c-.732 0-1.447-.023-2.142-.064-9.879-.584-17.484-4.908-17.804-5.092-1.196-.689-1.607-2.218-.918-3.414.689-1.195 2.219-1.605 3.411-.92 1.104.632 27.264 15.186 42.613-11.455.689-1.196 2.216-1.607 3.414-.918 1.196.689 1.607 2.218.918 3.414-8.631 14.979-20.425 18.449-29.493 18.449z" fill="#000000"/><path d="m827.863 240.934c-.592 0-1.187-.21-1.663-.635-1.03-.919-1.12-2.499-.202-3.529.467-.523 47.561-52.5 123.468-64.807 1.363-.22 2.646.705 2.868 2.067.221 1.363-.705 2.647-2.067 2.868-74.099 12.013-120.081 62.689-120.537 63.199-.494.554-1.179.836-1.866.836z" fill="#000000"/><path d="m845.652 253.388c-.857 0-1.691-.44-2.157-1.231-.7-1.189-.304-2.722.886-3.423.469-.276 47.479-27.701 94.8-32.626 1.384-.153 2.603.855 2.745 2.228.144 1.373-.854 2.603-2.228 2.745-46.218 4.811-92.32 31.69-92.78 31.962-.398.234-.835.346-1.266.346z" fill="#000000"/><path d="m525.361 311.746c-.952 0-1.863-.548-2.28-1.474-.567-1.259-.007-2.739 1.252-3.307 77.628-34.999 137.149-27.035 137.74-26.95 1.366.194 2.315 1.46 2.121 2.826-.195 1.367-1.474 2.326-2.826 2.123-.581-.083-58.764-7.806-134.98 26.56-.333.15-.683.222-1.026.222z" fill="#000000"/><path d="m559.809 339.856c-.826 0-1.636-.409-2.112-1.159-.74-1.165-.396-2.71.77-3.451 44.235-28.113 97.725-32.975 98.26-33.021 1.366-.122 2.586.902 2.703 2.277.118 1.376-.901 2.586-2.276 2.705-.523.045-52.83 4.819-96.005 32.259-.416.264-.88.39-1.339.39z" fill="#000000"/></svg></g><!--ITEM: Illustration component 3--><g transform="translate(350.0 1885.0) rotate(0.0 1150.0 41.5)  scale(0.9995310895453827 1.0121087224261343)"><svg width="2301.079" height="82.007" viewBox="0.0 0.0 2301.079 82.007"><path d="m2.5 79.507v-77.007h2296.079v77.007z" fill="#fff"/><path d="m2298.579 82.007h-2296.079c-1.381 0-2.5-1.119-2.5-2.5v-77.007c0-1.381 1.119-2.5 2.5-2.5h2296.079c1.381 0 2.5 1.119 2.5 2.5v77.007c0 1.381-1.119 2.5-2.5 2.5zm-2293.579-5h2291.079v-72.007h-2291.079z" fill="#111"/></svg></g><!--ITEM: Illustration component 4--><g transform="translate(746.0 281.0) rotate(0.0 306.0 207.0)  scale(0.9999542504591293 0.9996547086392865)"><svg width="612.028" height="414.143" viewBox="0.0 0.0 612.028 414.143"><path d="m492.882 295.71 116.646-11.708-67.477-96.231c.322-4.305.489-8.653.489-13.04 0-95.121-77.111-172.231-172.231-172.231h-195.578c-95.121 0-172.231 77.11-172.231 172.23 0 95.12 77.11 172.231 172.231 172.231h195.579c2.916 0 5.813-.075 8.693-.218l80.725 64.9 29.564-112.39c1.215-1.162 2.409-2.346 3.59-3.543z" fill="#ffaac3"/><path d="m459.727 414.143c-.562 0-1.116-.189-1.566-.552l-79.987-64.306c-2.627.116-5.268.176-7.864.176h-195.58c-96.346 0-174.73-78.384-174.73-174.73s78.384-174.731 174.73-174.731h195.579c96.347 0 174.731 78.384 174.731 174.731 0 4.082-.146 8.227-.432 12.333l66.966 95.502c.51.728.596 1.67.226 2.477-.369.808-1.14 1.357-2.022 1.446l-115.752 11.619c-.885.89-1.709 1.702-2.494 2.461l-29.386 111.71c-.216.819-.831 1.474-1.636 1.738-.256.085-.52.126-.782.126zm-80.726-69.899c.568 0 1.121.194 1.566.552l77.722 62.484 28.584-108.662c.117-.446.356-.852.689-1.171 1.085-1.037 2.243-2.18 3.54-3.493.409-.414.949-.673 1.528-.73l112.397-11.282-65.025-92.734c-.332-.474-.489-1.046-.446-1.622.32-4.274.482-8.6.482-12.854 0-93.59-76.141-169.73-169.73-169.73h-195.578c-93.589-.002-169.73 76.139-169.73 169.729s76.141 169.73 169.73 169.73h195.579c2.827 0 5.71-.072 8.568-.215.041-.002.083-.003.124-.003z" fill="#000000"/><path d="m208.479 99.551c-10.906.508-20.746 3.871-28.412 10.363-24.547 20.787-17.655 65.705 15.384 100.339 23.761 24.917 52.33 49.174 79.474 62.181 26.79-13.728 54.705-38.731 77.801-64.268 32.11-35.502 37.809-80.587 12.72-100.714-22.335-17.907-61.499-9.954-92.49 17.028-20.56-16.967-44.34-25.856-64.477-24.929z" fill="#fff"/></svg></g><!--ITEM: Illustration component 5--><g transform="translate(885.0 1061.0) rotate(0.0 121.5 91.5)  scale(1.0030048870690793 1.0077369971640189)"><svg width="242.272" height="181.595" viewBox="0.0 0.0 242.272 181.595"><path d="m103.101 142.822c1.01 28.067-7.038-51.949-5.207-68.797 3.438-31.633 18.489-53.594 37.531-64.556 38.777-22.321 71.715 145.136 64.213 111.894-13.061-57.869-97.622-8.682-96.537 21.459z" fill="#fbb348"/><path d="m36.483 155.22c-5.884-27.462-7.038-51.949-5.207-68.797 3.438-31.633 18.489-53.594 37.531-64.556 38.777-22.321 70.166 78.34 64.213 111.894-28.223-15.46-87.233 64.879-96.537 21.459z" fill="#fbb348"/><path d="m36.48 157.721c-1.153 0-2.19-.804-2.441-1.978-5.401-25.209-7.313-50.574-5.247-69.591 3.252-29.921 17.383-54.142 38.77-66.452 9.045-5.204 18.602-4.608 27.634 1.733 12.163 8.537 23.867 28.068 32.111 53.585 7.323 22.665 10.532 45.894 8.176 59.179-.241 1.358-1.543 2.254-2.898 2.025-1.359-.241-2.267-1.539-2.025-2.898 2.191-12.348-1.028-35.161-8.01-56.769-7.917-24.504-18.935-43.104-30.227-51.029-7.535-5.29-14.819-5.779-22.267-1.492-19.987 11.505-33.216 34.343-36.293 62.659-2.012 18.507-.129 43.293 5.165 68.003.289 1.35-.57 2.679-1.921 2.968-.176.038-.353.057-.526.057z" fill="#000000"/><path d="m103.098 145.323c-1.153 0-2.19-.804-2.441-1.978-5.401-25.211-7.314-50.576-5.248-69.591 3.251-29.92 17.383-54.141 38.77-66.452 9.045-5.205 18.602-4.607 27.634 1.733 12.163 8.538 23.867 28.068 32.112 53.585 7.323 22.665 10.532 45.894 8.176 59.179-.241 1.359-1.543 2.258-2.898 2.025-1.359-.241-2.267-1.539-2.025-2.898 2.191-12.348-1.028-35.161-8.01-56.769-7.918-24.504-18.935-43.104-30.227-51.029-7.537-5.291-14.819-5.779-22.268-1.492-19.987 11.505-33.216 34.344-36.293 62.659-2.012 18.505-.128 43.291 5.166 68.003.289 1.35-.57 2.679-1.921 2.968-.176.038-.353.057-.526.057z" fill="#000000"/><path d="m138.889 83.345c15.018 35.313 52.438 55.854 82.765 39.372 22.417-12.183 26.124-47.034-.808-85.17-24.847-35.186-59.214-42.504-85.421-28.078-19.248 10.596 3.464 73.875 3.464 73.875z" fill="#fbb348"/><path d="m199.042 131.022c-5.98 0-12.09-1.063-18.216-3.199-18.921-6.595-35.458-22.856-44.237-43.499-.54-1.271.052-2.738 1.322-3.279 1.273-.539 2.738.052 3.279 1.322 8.237 19.367 23.669 34.596 41.281 40.735 13.25 4.618 26.386 3.725 37.99-2.582 7.983-4.339 13.396-11.745 15.65-21.419 3.966-17.012-2.342-38.921-17.307-60.111-22.417-31.744-54.672-42.473-82.173-27.33-2.218 1.271-4.66 2.93-7.428 5.046-1.096.838-2.666.63-3.505-.468-.838-1.097-.629-2.666.468-3.505 2.944-2.251 5.566-4.028 8.015-5.433 13.842-7.621 29.869-9.316 45.173-4.795 16.375 4.839 31.43 16.457 43.535 33.599 15.788 22.356 22.382 45.73 18.092 64.131-2.589 11.104-8.858 19.638-18.133 24.677-7.479 4.065-15.519 6.109-23.807 6.109z" fill="#000000"/><path d="m72.272 95.742c15.018 35.313 52.438 55.854 82.765 39.372 22.417-12.183 26.124-47.034-.808-85.17-24.848-35.185-59.215-42.504-85.421-28.077-19.248 10.596 3.464 73.875 3.464 73.875z" fill="#fbb348"/><path d="m132.424 143.419c-5.98 0-12.091-1.063-18.217-3.199-18.921-6.596-35.457-22.857-44.236-43.499-.54-1.271.052-2.738 1.322-3.279 1.273-.539 2.739.053 3.279 1.322 8.236 19.367 23.668 34.596 41.28 40.735 13.25 4.616 26.386 3.725 37.99-2.581 7.983-4.339 13.396-11.746 15.65-21.421 3.966-17.011-2.342-38.92-17.307-60.11-22.416-31.743-54.674-42.469-82.174-27.329-2.035 1.036-4.271 2.541-6.908 4.639-1.082.86-2.655.68-3.513-.399-.86-1.081-.681-2.653.399-3.513 2.943-2.342 5.385-3.978 7.683-5.146 13.73-7.562 29.759-9.258 45.062-4.735 16.376 4.839 31.43 16.457 43.535 33.599 15.788 22.355 22.382 45.73 18.092 64.131-2.588 11.104-8.858 19.638-18.133 24.678-7.479 4.065-15.518 6.108-23.806 6.108z" fill="#000000"/><path d="m16.307 133.946c15.018 35.313 52.438 55.854 82.765 39.372 22.417-12.183 26.124-47.034-.808-85.17-24.847-35.186-59.214-42.504-85.421-28.077-19.248 10.596 3.464 73.875 3.464 73.875z" fill="#fbb348"/><path d="m76.46 181.622c-5.98 0-12.091-1.063-18.217-3.198-18.92-6.596-35.457-22.857-44.236-43.499-.54-1.271.052-2.738 1.322-3.279 1.272-.541 2.739.053 3.279 1.322 8.236 19.367 23.669 34.595 41.28 40.734 13.251 4.619 26.386 3.725 37.991-2.581 7.983-4.339 13.395-11.745 15.65-21.419 3.966-17.012-2.342-38.922-17.307-60.112-22.417-31.743-54.675-42.473-82.174-27.329-3.057 1.712-6.31 4.045-9.931 7.123-1.051.896-2.63.768-3.523-.285-.895-1.052-.767-2.63.285-3.523 3.87-3.29 7.383-5.805 10.741-7.686 13.82-7.607 29.848-9.305 45.15-4.783 16.375 4.839 31.43 16.457 43.535 33.599 15.788 22.356 22.382 45.731 18.092 64.132-2.589 11.104-8.858 19.638-18.133 24.677-7.479 4.065-15.519 6.108-23.807 6.108z" fill="#000000"/></svg></g><!--ITEM: Illustration component 6--><g transform="translate(1303.0 1408.0) rotate(0.0 272.5 169.5)  scale(0.9992226231335621 0.9974666113499343)"><svg width="545.424" height="339.861" viewBox="0.0 0.0 545.424 339.861"><path d="m357.492 114.393s-83.455-119.139-127.577-111.545c-44.125 7.612-44.562 43.953-44.562 43.953z" fill="#fbb348"/><path d="m357.492 116.894c-.306 0-.615-.057-.913-.173l-172.139-67.592c-.967-.38-1.599-1.318-1.586-2.357.005-.384.988-38.513 46.637-46.387 45.142-7.779 126.604 107.656 130.05 112.574.633.903.599 2.114-.084 2.981-.484.615-1.214.953-1.965.953zm-169.527-71.752 162.489 63.803c-18.526-25.104-84.057-109.862-120.115-103.632-36.601 6.313-41.672 32.762-42.374 39.829z" fill="#000000"/><path d="m85.801 12.178c-32.457-7.313-73.704-1.022-78.306 20.265-11.696 54.101 71.005 62.887 89.958 71.302-43.723 1.664-95.872 11.56-94.941 49.407.824 33.71 37.204 41.221 37.204 41.221s-31.249 17.786-27.772 45.571c3.476 27.785 31.729 34.088 63.295 32.903s92.067-6.069 122.455 22.081c42.94 40.304 143.773 64.396 213.415 17.447l64.808 22.135c71.462-2.692 91.16-114.371 32.611-153.159-18.72-11.176-240.173-128.04-422.727-169.173z" fill="#fbb348"/><path d="m321.152 339.867c-8.701 0-17.563-.559-26.538-1.688-39.407-4.961-76.278-20.448-98.63-41.427-27.433-25.413-81.263-23.091-113.427-21.705-2.542.109-4.957.214-7.224.299-40.588 1.523-62.766-10.28-65.869-35.091-2.832-22.629 15.469-38.657 24.384-45.029-10.58-3.737-33.172-14.879-33.835-42.012-.72-29.265 28.203-46.846 83.857-51.193-1.291-.354-2.631-.719-4.008-1.093-15.271-4.148-36.185-9.829-52.145-20.063-19.375-12.426-27.001-28.894-22.665-48.95 1.321-6.115 5.283-11.317 11.774-15.461 15.259-9.74 43.849-12.499 69.525-6.715 95.853 21.597 201.509 64.112 273.266 95.975 80.414 35.706 140.389 67.639 150.192 73.491.034.02.067.041.1.063 34.687 22.979 40.72 68.225 31.646 100.54-4.46 15.886-12.445 29.553-23.093 39.525-11.699 10.957-26.378 17.069-42.451 17.675-.299.011-.611-.032-.901-.132l-63.652-21.74c-25.021 16.233-56.382 24.73-90.306 24.731zm-210.577-70.589c30.736 0 67.115 3.712 88.819 23.816 21.621 20.294 57.446 35.289 95.844 40.123 43.269 5.451 83.928-2.694 114.491-22.928.646-.428 1.456-.531 2.188-.281l64.366 21.983c28.818-1.285 51.398-21.266 60.458-53.536 8.595-30.61 3.013-73.382-29.545-94.988-9.9-5.897-69.541-37.632-149.608-73.185-71.551-31.77-176.88-74.157-272.336-95.666-24.089-5.426-51.736-2.882-65.734 6.052-5.325 3.399-8.548 7.539-9.578 12.304-8.941 41.352 41.247 54.985 71.233 63.131 7.523 2.044 13.467 3.658 17.295 5.357 1.063.473 1.66 1.615 1.44 2.757-.22 1.143-1.198 1.982-2.36 2.026-42.7 1.625-93.417 11.072-92.537 46.848.767 31.362 34.866 38.763 35.211 38.834 1.018.21 1.799 1.029 1.962 2.056.164 1.027-.326 2.049-1.229 2.564-.298.17-29.755 17.315-26.529 43.089 2.765 22.099 22.62 32.146 60.721 30.716 2.258-.085 4.663-.188 7.196-.298 8.268-.356 17.934-.773 28.232-.773z" fill="#000000"/><path d="m254.569 208.919c-.269 0-.541-.044-.81-.136-.718-.245-72.565-24.557-133.944-22.208-.04 0-.08 0-.119.002-48.019-.454-78.853 10.051-79.159 10.157-1.303.458-2.728-.237-3.182-1.541-.453-1.304.236-2.728 1.54-3.182 1.278-.444 31.871-10.913 80.788-10.435 62.314-2.384 134.969 22.227 135.695 22.476 1.307.447 2.003 1.868 1.556 3.175-.355 1.038-1.326 1.691-2.365 1.691z" fill="#000000"/><path d="m263.352 138.169c-.247 0-.498-.037-.747-.115-62.026-19.388-116.082-29.792-165.256-31.81-1.38-.057-2.452-1.221-2.396-2.601s1.232-2.438 2.601-2.396c49.617 2.035 104.094 12.514 166.543 32.034 1.317.411 2.052 1.813 1.64 3.132-.334 1.069-1.32 1.755-2.385 1.755z" fill="#000000"/><path d="m411.111 314.875c-.857 0-1.692-.441-2.158-1.234-.698-1.191-.3-2.723.891-3.422 12.864-7.55 25.253-21.945 25.376-22.09.899-1.049 2.476-1.172 3.525-.274 1.049.896 1.173 2.475.275 3.523-.526.616-13.047 15.172-26.646 23.153-.397.233-.833.344-1.264.344z" fill="#000000"/></svg></g></svg>