<svg xmlns="http://www.w3.org/2000/svg" version="1.1" viewBox="0 0 3000 2769" width="3000" height="2769">
<defs/><!--ITEM: Illustration component 1--><g transform="translate(813.2307692307693 476.3076923076923) rotate(0.0 925.8461538461539 908.3076923076924)  scale(0.9229232558947352 0.9226549772032021)"><svg width="2006.334" height="1968.9" viewBox="0.0 0.0 2006.334 1968.9"><path d="m660.815 164.504c-72.106-71.92 47.918-221.436 143.273-106.559 71.649-112.413 240.624-41.677 180.005 102.816 95.665-18.778 121.022 105.271 51.776 148.4 69.456 40.284 31.214 117.23 4.136 125.023-131.788 37.932-299.612-117.942-379.19-269.681z" fill="#fbb348"/><path d="m1013.883 444.516c-1.274 0-2.364-.971-2.486-2.266-.13-1.374.88-2.594 2.255-2.724 29.224-2.757 51.771-23.664 57.442-53.264 5.967-31.14-8.307-60.529-36.361-74.875-.803-.41-1.322-1.22-1.36-2.12s.411-1.751 1.177-2.228c37.858-23.58 44.89-70.293 32.286-102.273-13.218-33.534-43.967-49.068-82.26-41.552-.906.176-1.836-.158-2.42-.874-.583-.716-.724-1.694-.367-2.546 31.491-75.064-.481-124.289-37.43-143.635-41.233-21.588-101.933-13.711-138.161 43.129-.43.674-1.154 1.102-1.952 1.151-.787.045-1.57-.284-2.08-.898-33.83-40.756-66.848-44.045-88.588-39.625-30.957 6.292-58.482 32.909-68.493 66.235-8.685 28.915-2.307 56.827 17.498 76.58.978.976.979 2.559.005 3.536-.976.977-2.559.979-3.536.005-21.151-21.097-27.987-50.823-18.755-81.559 10.524-35.04 39.574-63.05 72.285-69.697 31.773-6.457 64.066 7.293 91.249 38.754 38.041-56.802 100.289-64.323 142.847-42.039 22.855 11.967 39.784 32.031 47.669 56.497 8.518 26.433 6.351 57.223-6.24 89.296 19.382-2.97 37.219-.2 51.83 8.082 14.184 8.04 25.094 20.947 31.55 37.328 7.239 18.368 8.18 39.23 2.649 58.744-5.593 19.732-17.104 35.997-33.409 47.284 27.617 16.011 41.404 46.268 35.278 78.242-6.1 31.838-30.391 54.329-61.885 57.301-.079.007-.159.011-.237.011z" fill="#000000"/><path d="m816.383 76.162c-2.011-5.372-12.294-18.216-12.294-18.216" fill="#fff"/><path d="m816.383 78.663c-1.013 0-1.965-.62-2.341-1.624-1.536-4.1-9.114-14.045-11.905-17.53-.862-1.078-.688-2.651.39-3.515 1.076-.862 2.65-.688 3.515.39 1.077 1.347 10.592 13.317 12.683 18.901.484 1.293-.171 2.733-1.464 3.218-.289.108-.585.16-.877.16z" fill="#000000"/><path d="m962.251 170.395c10.193-5.955 21.842-9.632 21.842-9.632" fill="#fff"/><path d="m962.253 172.895c-.859 0-1.695-.443-2.16-1.239-.697-1.191-.295-2.723.897-3.419 10.316-6.027 21.864-9.705 22.351-9.858 1.318-.415 2.721.313 3.137 1.631.416 1.316-.314 2.721-1.631 3.137-.114.036-11.515 3.671-21.335 9.407-.396.232-.83.342-1.259.342z" fill="#000000"/><path d="m1009.436 318.825c-.993 0-1.539-.06-1.63-.071-1.37-.166-2.347-1.411-2.181-2.782.167-1.371 1.419-2.351 2.782-2.181.072 0 9.213.883 26.433-6.905 1.26-.571 2.74-.011 3.308 1.247.569 1.258.011 2.739-1.247 3.308-14.607 6.609-23.905 7.385-27.465 7.385z" fill="#000000"/><path d="m1022.279 869.76s-149.224 422.819-45.589 606.188c103.635 183.368 703.549 209.737 703.549 209.737l177.054-173.686-93.117-174.818c-144.605-27.77-318.807-37.611-463.829-44.672 0 0 163.525-478.28 53.866-598.364-124.176-135.982-306.844-11.626-306.844-11.626l-25.09 187.242z" fill="#ffaac3"/><path d="m990.663 1496.252c-45.764-49.684-49.218-156.46-49.218-156.46 119.599 11.842 174.393 129.736 133.759 221.044 0 0-44.144-18.044-84.541-64.584z" fill="#ff6996"/><path d="m1336.93 1641.527v2.3c174.172 34.423 343.309 41.858 343.309 41.858l177.054-173.687-93.117-174.818c-115.223-22.128-249.225-32.867-372.294-39.893l-2.155.241-52.795 343.998z" fill="#fff"/><path d="m955.611 1132.041.003.01c143.637-24.668 285.68-4.714 380.973 42.087 43.889-149.666 88.121-389.225 12.097-472.611-124.067-136.081-301.315-19.009-301.315-19.009l-25.09 187.242s-42.836 121.384-66.667 262.28z" fill="#92acef"/><path d="m1680.238 1688.185c-.036 0-.073 0-.109-.003-1.502-.065-152.014-6.937-313.248-36.143-94.764-17.165-174.659-38.576-237.468-63.64-78.858-31.468-130.975-68.888-154.9-111.222-23.85-42.199-36.271-100.5-36.921-173.283-.518-58.048 6.404-125.428 20.573-200.27 23.543-124.355 59.643-228.644 61.67-234.45l25.057-186.989c.103-.765.552-1.438 1.218-1.827.45-.263 45.684-26.349 105.758-35.504 35.353-5.386 68.878-3.963 99.652 4.234 38.506 10.258 72.741 31.19 101.755 62.218 25.666 27.448 38.902 75.267 39.341 142.128.349 53.143-7.323 118.473-22.801 194.175-23.9 116.9-59.381 223.115-66.021 242.564 149.156 7.288 319.563 17.418 460.854 44.552.742.143 1.38.613 1.734 1.28l93.118 174.817c.521.979.335 2.184-.456 2.96l-177.055 173.687c-.469.459-1.098.715-1.751.715zm-630.557-1004.1-24.925 186.007c-.022.17-.063.338-.12.5-.372 1.056-37.537 107.05-61.571 234.027-22.131 116.925-37.354 276.047 15.801 370.098 23.349 41.314 74.616 77.997 152.378 109.03 62.49 24.938 142.053 46.257 236.478 63.363 153.709 27.847 297.665 35.353 311.545 36.025l174.94-171.612-91.676-172.112c-141.794-27.105-312.944-37.134-462.306-44.405-.788-.038-1.512-.446-1.953-1.101-.44-.655-.546-1.479-.285-2.224.404-1.151 40.682-116.68 66.938-245.123 15.404-75.352 23.038-140.325 22.689-193.114-.434-65.552-13.216-112.225-37.993-138.723-64.226-68.685-142.581-73.222-197.001-64.924-54.104 8.245-95.876 30.378-102.939 34.287z" fill="#000000"/><path d="m1680.239 1685.686c-59.869-3.192-121.329-8.834-184.171-16.606 0 0 69.611-127.781 240.466-124.625l-56.296 141.231z" fill="#fff"/><path d="m1680.24 1688.186c-.045 0-.089 0-.134-.004-58.253-3.105-120.275-8.698-184.345-16.621-.821-.102-1.539-.604-1.917-1.339-.378-.736-.367-1.612.028-2.339.72-1.321 18.083-32.739 56.779-64.238 22.713-18.489 48.063-33.087 75.347-43.388 34.086-12.871 71.279-19.032 110.581-18.303.821.016 1.582.433 2.036 1.116s.544 1.547.24 2.31l-56.295 141.231c-.38.954-1.303 1.574-2.321 1.574zm-180.067-21.12c61.954 7.582 121.942 12.971 178.408 16.027l54.284-136.187c-85.441-.627-144.35 32.411-178.884 60.476-30.951 25.151-48.331 50.844-53.809 59.684z" fill="#000000"/><path d="m1878.935 1965.995s-132.141 22.673-196.63-271.161c0 0-10.53-43.698 29.429-111.534s94.258-84.425 52.442-246.118c0 0 177.026-19.812 239.658 44.493l-124.899 584.321z" fill="#fff"/><path d="m1807.497 1942.593s35.238 25.3 71.438 23.402l124.899-584.321s-21.614-23.641-68.745-35.701z" fill="#6f5490"/><path d="m1872.101 1968.93c-12.148 0-38.223-3.219-68.806-26.334-24.145-18.248-46.1-45.242-65.254-80.231-23.844-43.556-43.418-99.74-58.178-166.995-.429-1.774-10.296-45.413 29.716-113.339 8.249-14.004 17.042-25.76 25.545-37.128 31.974-42.746 59.587-79.662 26.632-207.096-.182-.701-.05-1.447.361-2.044s1.061-.986 1.78-1.066c.444-.05 45.068-4.944 96.768-1.879 69.765 4.132 118.536 19.982 144.96 47.111.583.599.828 1.449.653 2.267l-124.899 584.321c-.213 1-1.014 1.769-2.021 1.941-.366.063-2.927.472-7.257.472zm-104.78-629.552c32.424 127.494 4.315 165.06-28.192 208.52-8.422 11.26-17.131 22.903-25.24 36.67-38.885 66.012-29.253 109.255-29.151 109.685 33.159 151.086 84.414 216.27 121.574 244.355 34.664 26.199 63.501 25.703 70.555 25.107l124.241-581.243c-32.065-31.886-94.066-41.893-140.664-44.659-43.816-2.6-82.508.56-93.122 1.565z" fill="#000000"/><path d="m1729.625 1841.262c-.948 0-1.855-.543-2.275-1.462-.574-1.255-.021-2.738 1.234-3.313l42.594-19.475c1.257-.575 2.739-.021 3.313 1.234s.021 2.738-1.234 3.313l-42.594 19.475c-.337.154-.689.228-1.037.228z" fill="#000000"/><path d="m1712.792 1795.25c-.948 0-1.855-.543-2.275-1.461-.574-1.256-.021-2.739 1.233-3.313l42.593-19.475c1.257-.574 2.739-.021 3.313 1.233.574 1.256.021 2.739-1.233 3.313l-42.593 19.475c-.337.154-.69.228-1.038.228z" fill="#000000"/><path d="m1697.126 1749.257c-.949 0-1.855-.543-2.275-1.462-.574-1.256-.021-2.739 1.234-3.313l42.605-19.471c1.261-.577 2.739-.02 3.313 1.234.574 1.256.021 2.739-1.234 3.313l-42.605 19.471c-.337.154-.69.228-1.037.228z" fill="#000000"/><path d="m1807.809 1943.948c-.174 0-.35-.018-.525-.056-1.351-.288-2.211-1.616-1.922-2.967l127.05-594.389c.29-1.351 1.629-2.212 2.967-1.922 1.351.288 2.211 1.616 1.922 2.967l-127.05 594.389c-.251 1.174-1.288 1.978-2.441 1.978z" fill="#000000"/><path d="m1894.551 1895.456c-.174 0-.35-.019-.525-.057l-73.04-15.612c-1.351-.288-2.211-1.616-1.922-2.967.289-1.35 1.625-2.21 2.967-1.922l73.04 15.612c1.351.288 2.211 1.616 1.922 2.967-.251 1.174-1.288 1.979-2.441 1.979z" fill="#000000"/><path d="m1904.959 1846.763c-.174 0-.35-.019-.525-.057l-73.04-15.612c-1.351-.288-2.211-1.616-1.922-2.967s1.625-2.212 2.967-1.922l73.04 15.612c1.351.288 2.211 1.616 1.922 2.967-.251 1.174-1.288 1.979-2.441 1.979z" fill="#000000"/><path d="m1920.571 1773.723c-.174 0-.35-.019-.525-.057l-73.04-15.613c-1.351-.288-2.211-1.617-1.922-2.967s1.626-2.209 2.967-1.922l73.04 15.613c1.351.288 2.211 1.617 1.922 2.967-.251 1.174-1.288 1.979-2.441 1.979z" fill="#000000"/><path d="m1930.98 1725.03c-.174 0-.35-.019-.525-.057l-73.04-15.612c-1.351-.288-2.211-1.616-1.922-2.967s1.626-2.211 2.967-1.922l73.04 15.612c1.351.288 2.211 1.616 1.922 2.967-.251 1.174-1.288 1.979-2.441 1.979z" fill="#000000"/><path d="m1951.796 1627.643c-.174 0-.35-.019-.525-.057l-73.04-15.612c-1.351-.288-2.211-1.616-1.922-2.967s1.626-2.213 2.967-1.922l73.04 15.612c1.351.288 2.211 1.616 1.922 2.967-.251 1.174-1.288 1.979-2.441 1.979z" fill="#000000"/><path d="m1962.204 1578.95c-.174 0-.35-.019-.525-.057l-73.04-15.612c-1.351-.288-2.211-1.616-1.922-2.967s1.626-2.207 2.967-1.922l73.04 15.612c1.351.288 2.211 1.616 1.922 2.967-.251 1.174-1.288 1.979-2.441 1.979z" fill="#000000"/><path d="m1972.613 1530.256c-.174 0-.35-.019-.525-.057l-73.041-15.612c-1.351-.288-2.211-1.616-1.922-2.967s1.627-2.207 2.967-1.922l73.041 15.612c1.351.288 2.211 1.616 1.922 2.967-.251 1.174-1.288 1.979-2.441 1.979z" fill="#000000"/><path d="m1993.43 1432.869c-.174 0-.35-.019-.525-.057l-73.041-15.612c-1.351-.288-2.211-1.616-1.922-2.967.289-1.35 1.627-2.209 2.967-1.922l73.041 15.612c1.351.288 2.211 1.616 1.922 2.967-.251 1.174-1.288 1.979-2.441 1.979z" fill="#000000"/><path d="m1793.633 1779.551c-3.98 0-7.743-2.393-9.299-6.317-29.511-74.441-2.373-116.922 23.871-158.003 11.294-17.681 22.974-35.963 29.912-56.812 12.03-36.156.921-85.899-8.88-129.787-4.635-20.753-9.013-40.355-10.974-57.931-.612-5.488 3.341-10.435 8.83-11.047 5.476-.608 10.435 3.341 11.047 8.83 1.84 16.494 6.103 35.581 10.615 55.788 10.368 46.425 22.119 99.043 8.338 140.462-7.723 23.206-20.082 42.553-32.034 61.263-25.688 40.211-47.872 74.938-22.134 139.865 2.035 5.135-.477 10.946-5.61 12.981-1.209.479-2.457.707-3.683.707z" fill="#6f5490"/><path d="m1336.585 1176.638c-.37 0-.745-.083-1.101-.257-101.105-49.655-242.954-65.307-379.447-41.867-1.353.238-2.653-.68-2.887-2.041-.233-1.36.68-2.653 2.041-2.887 68.961-11.844 141.347-13.841 209.333-5.776 64.915 7.701 124.795 24.327 173.165 48.083 1.239.608 1.75 2.106 1.142 3.347-.435.885-1.322 1.398-2.246 1.398z" fill="#000000"/><path d="m1336.934 1644.027c-.126 0-.254-.009-.382-.029-1.365-.209-2.302-1.485-2.092-2.85l52.796-343.998c.208-1.365 1.488-2.311 2.85-2.092 1.365.209 2.302 1.485 2.092 2.85l-52.796 343.998c-.189 1.236-1.254 2.121-2.468 2.121z" fill="#000000"/><path d="m859.381 545.268c-128.157 50.208-87.7 142.653-257.332 231.052-88.627 46.186-409.719 10.103-350.055 228.933 54.444 199.682 414.24-21.425 481.2-63.044 79.501-49.414 199.701-166.654 215.6-215.163s-4.316-215.116-89.412-181.778z" fill="#ef4910"/><path d="m368.855 1090.1c-21.278 0-39.972-3.146-56.019-9.449-31.863-12.514-53.145-37.66-63.255-74.741-12.491-45.815-9.061-84.106 10.198-113.81 18.117-27.943 50.184-49.049 98.03-64.523 41.412-13.393 89.211-20.821 131.383-27.375 47.113-7.322 87.803-13.646 111.7-26.099 87.55-45.625 118.837-92.428 146.441-133.721 26.196-39.187 48.819-73.029 111.134-97.443 21.737-8.515 40.891-5.15 56.926 10.002 40.351 38.127 47.55 138.956 35.774 174.883-16.713 50.99-140.141 168.949-216.656 216.508-66.051 41.056-128.239 74.251-184.836 98.664-72.709 31.363-133.228 47.104-180.821 47.104zm490.525-544.833.912 2.328c-60.854 23.841-83.073 57.079-108.802 95.566-27.938 41.792-59.603 89.159-148.287 135.375-24.627 12.834-65.693 19.216-113.243 26.605-41.987 6.525-89.578 13.922-130.611 27.192-46.71 15.105-77.907 35.545-95.374 62.485-18.711 28.858-21.841 64.767-9.569 109.775 9.672 35.474 29.945 59.497 60.258 71.402 15.512 6.092 33.635 9.134 54.283 9.135 46.798.003 106.616-15.612 178.749-46.728 56.37-24.315 118.336-57.396 184.178-98.319 37.927-23.574 86.978-63.789 131.211-107.575 44.964-44.508 76.115-84.226 83.332-106.243 11.598-35.383 3.182-134.128-34.457-169.692-14.506-13.706-31.891-16.728-51.667-8.979l-.912-2.328z" fill="#000000"/><path d="m1004.637 771.495s-365.573 276.451-390.096 465.359c-27.116 208.875 417.825 496.3 417.825 496.3l276.744 46.813 126.051-50.552c-73.973-185.008-295.803-378.266-430.525-467.547 103.996-94.53 422.608-301.07 407.816-485.192-13.774-171.455-257.409-179.344-257.409-179.344l-150.407 174.164z" fill="#ffaac3"/><path d="m683.239 1088.092c93.256 92.676 62.159 244.641-32.845 285.555 0 0-44.608-74.131-36.485-130.817-4.667-54.182 69.33-154.738 69.33-154.738z" fill="#ff6996"/><path d="m1032.366 1733.153 276.744 46.813 126.051-50.552c-59.675-149.247-215.564-303.849-344.328-404.916l-268.012 244.145-.736 2.617c105.011 93.888 210.28 161.893 210.28 161.893z" fill="#fff"/><path d="m1155.044 597.331-150.407 174.164s-71.28 53.907-153 130.371c114.918 27.207 234.194 150.247 290.551 245.211 124.535-103.887 295.651-257.689 268.953-386.64-32.618-157.543-256.098-163.106-256.098-163.106z" fill="#92acef"/><path d="m1309.109 1782.467c-.14 0-.278-.012-.417-.035l-276.744-46.813c-.335-.057-.654-.181-.939-.365-1.114-.72-112.643-73.089-219.405-170.07-62.766-57.015-111.648-111.272-145.292-161.267-42.264-62.804-60.517-119.12-54.251-167.385 5.648-43.504 29.788-95.164 71.748-153.545 33.457-46.549 78.28-97.499 133.226-151.437 91.301-89.626 180.881-158.083 185.882-161.887l150.236-173.966c.461-.535 1.128-.85 1.834-.865.344-.009 35.041-.689 78.458 8.783 40.162 8.762 96.274 28.25 135.519 71.338 33.884 37.203 49.312 79.156 45.854 124.695-4.732 62.321-43.688 131.63-119.094 211.887-64.292 68.428-145.081 133.82-209.995 186.364-28.482 23.054-55.444 44.878-76.987 63.694 77.894 51.954 163.641 123.382 235.719 196.394 93.314 94.524 160.062 188.061 193.023 270.499.513 1.28-.11 2.734-1.391 3.248l-126.052 50.553c-.297.119-.613.18-.931.18zm-275.816-51.692 275.539 46.61 123.074-49.359c-79.126-194.759-314.709-388.564-428.651-464.074-.648-.43-1.061-1.138-1.113-1.914s.259-1.533.843-2.047c22.009-19.364 49.982-42.006 79.598-65.978 64.796-52.448 145.438-117.722 209.496-185.9 74.593-79.393 113.11-147.705 117.753-208.843 3.35-44.111-11.645-84.805-44.565-120.949-38.328-42.082-93.354-61.182-132.765-69.793-38.556-8.425-70.107-8.747-76.303-8.708l-149.669 173.31c-.115.134-.244.254-.385.36-.913.69-92.381 70.105-185.646 161.666-54.732 53.732-99.36 104.458-132.645 150.771-41.463 57.692-65.295 108.58-70.834 151.25-6.104 47.017 11.87 102.169 53.424 163.925 33.412 49.655 82.021 103.602 144.476 160.34 103.109 93.67 210.69 164.324 218.374 169.334z" fill="#000000"/><path d="m1032.366 1733.153c-47.99-31.308-87.411-60.328-141.272-103.63 65.588-19.807 228.372-46.494 303.072 126.087z" fill="#fff"/><path d="m1194.165 1758.109c-.114 0-.229-.008-.344-.023l-161.8-22.456c-.364-.051-.714-.182-1.022-.383-47.303-30.86-86.968-59.956-141.472-103.775-.723-.581-1.064-1.515-.888-2.425.177-.911.844-1.648 1.731-1.917 29.729-8.978 88.667-22.104 149.363-9.154 71.339 15.222 124.069 61.194 156.725 136.641.359.829.243 1.787-.304 2.506-.477.627-1.216.987-1.99.987zm-160.902-27.355 156.807 21.763c-73.43-163.523-226.179-141.338-293.68-121.947 52.283 41.908 91.009 70.242 136.873 100.185z" fill="#000000"/><path d="m841.999 1965.994s-49.794-124.483 224.07-248.967c0 0 40.532-19.431 115.222 5.465s102.263 74.528 251.644-.162c5.494 4.264 60.781 172.391 6.585 243.664z" fill="#fff"/><path d="m849.952 1891.242s-17.376 39.748-7.953 74.752h597.521s20.406-26.078 22.347-74.689l-611.916-.063z" fill="#6f5490"/><path d="m1439.52 1968.494h-597.521c-1.022 0-1.941-.622-2.321-1.571-.524-1.312-12.598-32.668 9.392-79.788 12.799-27.426 34.607-54.538 64.819-80.583 37.609-32.422 88.462-63.308 151.146-91.8 1.645-.79 42.258-19.56 117.048 5.368 15.537 5.18 28.93 11.386 41.881 17.388 48.184 22.329 89.798 41.611 207.294-17.135.613-.306 1.323-.349 1.968-.115.644.233 1.164.72 1.439 1.347 9.866 22.466 23.329 64.69 28.802 109.751 6.869 56.563-.688 103.593-21.854 136.006-.461.707-1.248 1.133-2.093 1.133zm-595.719-5h594.355c19.955-31.379 26.991-76.819 20.346-131.536-5.217-42.955-17.763-83.254-27.377-105.934-117.84 58.376-160.236 38.739-209.265 16.02-12.826-5.943-26.089-12.09-41.36-17.18-72.681-24.228-112.957-5.77-113.354-5.581-140.422 63.829-193.506 127.393-213.317 169.48-18.592 39.496-12.077 67.908-10.027 74.73z" fill="#000000"/><path d="m963.161 1833.468c-.764 0-1.518-.349-2.008-1.008l-27.947-37.582c-.824-1.108-.594-2.675.514-3.498 1.107-.826 2.675-.594 3.498.514l27.947 37.582c.824 1.108.594 2.675-.514 3.498-.448.334-.972.494-1.49.494z" fill="#000000"/><path d="m1004.639 1807.387c-.764 0-1.518-.349-2.008-1.008l-27.947-37.581c-.824-1.108-.594-2.675.514-3.498 1.107-.824 2.674-.594 3.498.514l27.947 37.581c.824 1.108.594 2.675-.514 3.498-.448.333-.972.494-1.49.494z" fill="#000000"/><path d="m1046.341 1782.467c-.764 0-1.518-.349-2.008-1.009l-27.947-37.594c-.824-1.107-.594-2.674.515-3.497 1.104-.826 2.673-.595 3.497.515l27.947 37.594c.824 1.107.594 2.674-.515 3.497-.447.334-.971.494-1.489.494z" fill="#000000"/><path d="m1462.561 1893.804h-611.425c-1.381 0-2.5-1.119-2.5-2.5s1.119-2.5 2.5-2.5h611.425c1.381 0 2.5 1.119 2.5 2.5s-1.119 2.5-2.5 2.5z" fill="#000000"/><path d="m916.689 1968.495c-1.381 0-2.5-1.119-2.5-2.5v-74.69c0-1.381 1.119-2.5 2.5-2.5s2.5 1.119 2.5 2.5v74.69c0 1.381-1.119 2.5-2.5 2.5z" fill="#000000"/><path d="m966.482 1968.495c-1.381 0-2.5-1.119-2.5-2.5v-74.69c0-1.381 1.119-2.5 2.5-2.5s2.5 1.119 2.5 2.5v74.69c0 1.381-1.119 2.5-2.5 2.5z" fill="#000000"/><path d="m1041.173 1968.495c-1.381 0-2.5-1.119-2.5-2.5v-74.69c0-1.381 1.119-2.5 2.5-2.5s2.5 1.119 2.5 2.5v74.69c0 1.381-1.119 2.5-2.5 2.5z" fill="#000000"/><path d="m1090.965 1968.495c-1.381 0-2.5-1.119-2.5-2.5v-74.69c0-1.381 1.119-2.5 2.5-2.5s2.5 1.119 2.5 2.5v74.69c0 1.381-1.119 2.5-2.5 2.5z" fill="#000000"/><path d="m1190.552 1968.495c-1.381 0-2.5-1.119-2.5-2.5v-74.69c0-1.381 1.119-2.5 2.5-2.5s2.5 1.119 2.5 2.5v74.69c0 1.381-1.119 2.5-2.5 2.5z" fill="#000000"/><path d="m1240.346 1968.495c-1.381 0-2.5-1.119-2.5-2.5v-74.69c0-1.381 1.119-2.5 2.5-2.5s2.5 1.119 2.5 2.5v74.69c0 1.381-1.119 2.5-2.5 2.5z" fill="#000000"/><path d="m1290.14 1968.495c-1.381 0-2.5-1.119-2.5-2.5v-74.69c0-1.381 1.119-2.5 2.5-2.5s2.5 1.119 2.5 2.5v74.69c0 1.381-1.119 2.5-2.5 2.5z" fill="#000000"/><path d="m1389.727 1968.495c-1.381 0-2.5-1.119-2.5-2.5v-74.69c0-1.381 1.119-2.5 2.5-2.5s2.5 1.119 2.5 2.5v74.69c0 1.381-1.119 2.5-2.5 2.5z" fill="#000000"/><path d="m1242.07 1861.42c-4.124 0-8.203-.212-12.239-.66-24.308-2.701-45.811-10.743-66.605-18.521-44.692-16.716-83.288-31.151-141.402 7.592-4.592 3.063-10.804 1.821-13.867-2.773s-1.822-10.804 2.773-13.867c66.629-44.418 113.844-26.761 159.502-9.685 19.651 7.35 39.971 14.949 61.809 17.377 37.878 4.21 84.195-17.055 125.063-35.813 19.326-8.871 37.581-17.25 54.358-22.841 5.238-1.746 10.902 1.086 12.648 6.326 1.746 5.239-1.086 10.902-6.326 12.648-15.745 5.247-33.52 13.405-52.338 22.043-39.209 17.997-83.169 38.172-123.375 38.173z" fill="#6f5490"/><path d="m1142.19 1149.577c-.854 0-1.685-.437-2.152-1.224-60.267-101.551-178.881-217.99-288.979-244.055-1.344-.318-2.175-1.665-1.856-3.009.317-1.343 1.659-2.178 3.009-1.856 66.795 15.813 128.407 61.896 168.331 97.77 48.482 43.563 93.604 97.726 123.795 148.598.705 1.188.313 2.722-.873 3.427-.4.237-.84.35-1.274.35z" fill="#000000"/><path d="m822.822 1571.142c-.68 0-1.355-.275-1.85-.816-.93-1.021-.855-2.602.165-3.532l268.016-244.147c1.022-.933 2.601-.854 3.532.164.93 1.021.855 2.602-.165 3.532l-268.016 244.147c-.479.438-1.082.652-1.683.652z" fill="#000000"/><path d="m959.775 424.135s-62.339-71.973-134.488 2.717c-54.617 66.348-44.535 104.13-11.703 133.618 19.915 93.533 112.417 341.502 308.703 146.519 102.914-102.231 30.41-194.437-32.642-225.353-48.425-23.744-97.683-52.482-129.871-57.502z" fill="#ef4910"/><path d="m985.87 782.313c-10.472 0-20.712-1.487-30.721-4.468-37.805-11.26-71.274-43.253-99.479-95.092-27.895-51.269-40.825-104.589-44.36-120.97-18.719-17.012-27.356-34.293-27.167-54.323.223-23.525 13.05-50.412 39.215-82.197.042-.051.086-.101.132-.148 22.868-23.673 47.193-35.35 72.273-34.649 35.861.974 60.988 26.653 65.284 31.343 24.991 4.184 59.429 21.829 95.866 40.497 11.077 5.676 22.531 11.545 33.834 17.086 33.565 16.458 75.743 53.794 84.145 104.85 3.242 19.701 1.104 39.73-6.352 59.532-8.3 22.044-23.269 43.909-44.49 64.989-49.247 48.92-95.583 73.548-138.18 73.551zm-158.716-353.796c-25.365 30.833-37.801 56.673-38.012 78.99-.177 18.705 8.12 34.943 26.113 51.103.393.354.664.822.774 1.34 3.24 15.219 15.992 68.878 44.032 120.414 27.55 50.636 60.022 81.82 96.515 92.689 9.517 2.834 19.28 4.249 29.267 4.25 41.255.003 86.411-24.137 134.683-72.088 39.469-39.207 56.101-79.636 49.432-120.163-8.093-49.179-48.914-85.236-81.412-101.171-11.342-5.562-22.816-11.44-33.913-17.126-36.501-18.701-70.978-36.366-95.242-40.15-.584-.091-1.117-.386-1.504-.832-.255-.293-25.896-29.346-62.307-30.311-23.562-.635-46.607 10.495-68.426 33.055z" fill="#000000"/><path d="m810.519 328.028-56.014 105.315 66.144 63.495c69.503-6.495 80.627-71.51 80.627-71.51l-90.756-97.3z" fill="#ffaac3"/><path d="m820.649 499.337c-.643 0-1.264-.248-1.731-.696l-66.145-63.494c-.807-.774-1.001-1.99-.476-2.978l56.014-105.314c.379-.713 1.08-1.199 1.881-1.305.795-.104 1.604.183 2.154.773l90.757 97.299c.551.59.782 1.409.622 2.2-.14.69-3.552 17.108-15.438 34.472-11.012 16.087-31.648 35.917-67.421 39.033-.072.007-.145.01-.217.01zm-63.05-66.489 63.957 61.395c26.56-2.6 47.582-14.917 62.5-36.621 9.558-13.903 13.46-27.493 14.48-31.564l-87.456-93.762-53.481 100.553z" fill="#000000"/><path d="m604.412 329.54c9.689-23.415 29.514-56.342 76.786-68.844 60.088-15.891 105.224 21.93 105.224 21.93s-9.438-29.412 16.568-60.788c37.389-45.106 123.006-20.798 115.282 48.528-7.096 63.681-79.282 79.673-79.282 79.673s17.78 80.464-55.63 119.43c-76.18 40.433-130.104-20.015-130.104-20.015s-43.096 7.131-46.537-10.967c-3.442-18.098 28.97-11.853 28.97-11.853-38.534-47.161-31.277-97.093-31.277-97.093z" fill="#ffaac3"/><path d="m785.656 390.985c-12.476 14.648-34.464 16.409-49.112 3.933s-16.409-34.464-3.933-49.112 34.464-16.409 49.112-3.933c14.647 12.476 16.407 34.463 3.933 49.112z" fill="#ff6996"/><path d="m730.774 485.835c-16.734 0-31.031-4.109-42.035-8.92-20.073-8.776-32.915-21.167-36.404-24.787-8.438 1.251-44.525 5.468-48.073-13.174-1.067-5.614.96-9.039 2.849-10.924 5.279-5.265 15.922-5.322 22.812-4.702-34.502-45.915-28.277-92.135-27.984-94.146.029-.205.085-.406.165-.598 15.277-36.923 41.674-60.577 78.456-70.305 31.701-8.382 59.209-1.854 76.708 5.1 11.549 4.589 20.27 9.874 25.428 13.392-1.395-10.729-1.106-33.029 18.371-56.527 18.898-22.8 52.17-30.201 80.916-17.995 27.739 11.778 42.234 37.347 38.774 68.395-2.988 26.82-18.014 49.488-43.451 65.555-15.299 9.662-29.862 14.189-35.425 15.691 1.03 6.122 3.161 23.222-.721 43.719-4.418 23.336-17.829 55.477-56.627 76.07-19.636 10.422-37.805 14.157-53.758 14.157zm-77.52-38.881c.706 0 1.387.3 1.865.834.133.148 13.508 14.924 35.803 24.624 29.741 12.941 60.447 11.206 91.266-5.15 29.682-15.755 47.857-40.115 54.023-72.403 4.627-24.226.379-44.084.336-44.281-.296-1.346.555-2.68 1.899-2.979.178-.04 17.96-4.084 36.316-15.711 24.372-15.438 38.174-36.229 41.023-61.798 3.201-28.731-10.167-52.372-35.76-63.239-26.724-11.345-57.611-4.528-75.112 16.584-24.751 29.859-16.2 58.15-16.111 58.433.335 1.059-.068 2.214-.991 2.832-.923.62-2.144.557-2.995-.156-.441-.369-44.902-36.791-102.979-21.43-35.587 9.411-60.12 31.354-74.988 67.075-.487 4.104-5.09 50.97 30.774 94.863.666.814.75 1.959.211 2.862-.538.904-1.59 1.374-2.618 1.175-5.154-.988-19.616-2.471-24.577 2.483-1.522 1.521-2.002 3.629-1.466 6.448 2.45 12.879 32.359 10.843 43.674 8.967.136-.022.272-.033.407-.033z" fill="#000000"/><path d="m652.803 385.8c2.403 2.045 2.693 5.651.648 8.053-2.044 2.4-5.645 2.689-8.046.648-2.404-2.043-2.695-5.647-.652-8.05 2.043-2.404 5.647-2.695 8.05-.652z" fill="#000000"/><path d="m598.749 225.747c-118.203-41.711-168.749 76.247-104.498 134.008 66.735 59.994 127.563-17.602 132.754-52.108 43.038 31.922 115.847 20.551 159.416-25.022-43.143-45.264-100.043-71.89-187.672-56.879z" fill="#fbb348"/><path d="m786.42 282.627c-3.776-16.409-1.198-33.618 10.082-51.926 0 0-101.069-54.058-135.687-66.197-22.238-7.797-80.177 45.818-62.066 61.243 16.244 13.835 187.672 56.879 187.672 56.879z" fill="#6f5490"/><path d="m685.767 474.963c-.871 0-1.718-.456-2.178-1.27-.68-1.201-.257-2.727.945-3.406.939-.539 23.101-13.684 16.764-48.223-.249-1.358.649-2.661 2.008-2.91 1.355-.249 2.661.649 2.91 2.008 7.001 38.159-18.957 53.328-19.221 53.477-.389.22-.812.324-1.229.324z" fill="#000000"/><path d="m544.983 384.285c-15.131 0-33.208-5.413-52.403-22.669-15.597-14.021-25.288-32.066-28.026-52.183-2.569-18.876 1.357-38.215 11.058-54.454 18.094-30.291 60.165-54.497 123.983-31.584 1.3.466 1.975 1.897 1.508 3.197-.466 1.3-1.894 1.976-3.197 1.508-60.961-21.884-100.927.858-118.001 29.443-19.668 32.926-13.081 74.193 16.019 100.354 22.542 20.266 45.972 26.229 69.641 17.735 31.887-11.445 55.837-47.526 58.97-68.355.131-.868.707-1.604 1.519-1.938.81-.336 1.738-.222 2.443.303 42.012 31.161 113.506 19.83 156.12-24.742.952-1 2.535-1.035 3.534-.079.998.954 1.033 2.536.079 3.534-21.442 22.428-50.324 37.455-81.327 42.314-29.594 4.635-57.183-.601-78.191-14.753-5.288 22.02-28.524 56.602-61.457 68.423-6.29 2.258-13.822 3.946-22.27 3.946z" fill="#000000"/><path d="m843.642 275.955c-.749 0-1.49-.335-1.982-.975-.843-1.095-.639-2.664.455-3.506.464-.356 11.531-8.705 27.423-6.963 1.372.151 2.362 1.387 2.212 2.759-.151 1.372-1.383 2.358-2.759 2.212-13.924-1.528-23.729 5.879-23.825 5.953-.455.351-.991.52-1.523.52z" fill="#000000"/><path d="m845.323 316.636c-.951 0-1.859-.546-2.276-1.47-.647-1.434-15.527-35.834 12.124-99.114.553-1.267 2.027-1.843 3.292-1.29 1.266.553 1.843 2.026 1.29 3.292-26.668 61.031-12.295 94.729-12.146 95.062.561 1.259-.003 2.737-1.26 3.301-.333.149-.681.22-1.023.22z" fill="#000000"/><path d="m786.419 285.127c-.203 0-.408-.025-.61-.076l.61-2.424-.621 2.421c-17.611-4.427-172.528-43.648-188.67-57.396-6.102-5.197-5.261-14.917 2.367-27.37 12.733-20.786 43.318-45.958 62.278-38.085 33.582 13.947 134.849 65.758 135.868 66.279.604.31 1.058.853 1.254 1.504.196.65.119 1.353-.214 1.945-9.791 17.441-12.906 33.408-9.803 50.249.154.837-.129 1.694-.749 2.276-.469.44-1.083.677-1.711.677zm-132.353-119.38c-15.398 0-38.817 18.388-50.308 37.146-6.008 9.81-7.275 17.642-3.389 20.952 12.242 10.427 122.931 40.272 182.991 55.434-2.066-15.766 1.126-31.372 9.714-47.521-15.279-7.797-102.633-52.241-133.22-64.944-1.747-.726-3.695-1.066-5.789-1.066z" fill="#000000"/><path d="m853.077 786.713c30.984-12.267 68.293-24.037 125.286-31.183 63.74-7.992 88.934 22.786 91.647 42.461 3.536 25.643-16.357 74.637-70.921 102.764-48.383 24.941-99.053 28.015-136.791 40.131-18.906-63.226-11.319-142.369-9.221-154.174z" fill="#ffaac3"/><path d="m862.297 943.387c-1.057 0-2.039-.676-2.379-1.736-.423-1.315.301-2.723 1.615-3.145 13.157-4.225 27.825-7.35 43.355-10.659 28.912-6.16 61.683-13.143 93.055-29.313 30.483-15.714 47.413-36.611 56.248-51.376 10.216-17.071 15.203-35.324 13.342-48.825-2.804-20.336-28.779-47.852-88.858-40.322-59.719 7.487-96.537 19.886-124.678 31.026-1.286.51-2.736-.121-3.244-1.404-.509-1.283.12-2.736 1.404-3.244 28.432-11.257 65.622-23.782 125.896-31.339 63.665-7.981 91.358 22.299 94.434 44.6 3.64 26.395-16.37 76.522-72.252 105.328-31.967 16.479-65.085 23.535-94.304 29.761-15.403 3.282-29.952 6.382-42.868 10.528-.255.082-.512.121-.766.121z" fill="#000000"/><path d="m788.676 863.567c-2.382 15.014-.903 34.99 10.231 42.38 15.916 10.564 35.109.287 44.659-15.446 11.514-18.969 9.353-33.731 41.535-47.346 30.523-12.914 34.99-81.725-32.021-56.437-34.983 13.201-58.872 41.993-64.403 76.849z" fill="#ffaac3"/><path d="m812.931 912.756c-5.451 0-10.688-1.594-15.406-4.726-11.99-7.958-14.766-29.124-11.291-44.997 9.815-44.839 36.838-71.574 87.618-86.688 1.316-.394 2.715.358 3.109 1.684.394 1.323-.36 2.715-1.684 3.109-48.824 14.531-74.78 40.118-84.159 82.964-3.164 14.453-.599 33.277 9.172 39.763 5.462 3.625 11.504 4.735 17.967 3.29 8.893-1.985 17.555-8.695 23.172-17.949.717-1.181 2.256-1.555 3.434-.84 1.181.716 1.557 2.254.84 3.434-6.309 10.396-16.161 17.96-26.356 20.235-2.158.482-4.303.722-6.415.722z" fill="#000000"/><path d="m764.773 901.528c-4.631 14.761-4.606 33.415 6.157 40.597 18.22 12.158 40.098-5.345 51.223-20.588 13.506-18.505 24.694-25.531 49.027-32.548 32.067-9.247 17.538-63.482-23.202-57.212-51.274 7.891-73.687 39.415-83.205 69.751z" fill="#ffaac3"/><path d="m784.283 948.792c-4.922 0-9.9-1.357-14.741-4.588-11.869-7.92-12.146-27.517-7.154-43.424 4.1-13.064 11.229-30.092 30.133-45.929 19.104-16.006 47.202-28.393 85.899-37.868 1.345-.327 2.693.493 3.023 1.834.328 1.341-.493 2.694-1.834 3.023-83.027 20.329-103.113 50.673-112.45 80.436-4.29 13.671-4.506 31.32 5.158 37.77 17.673 11.795 39.007-7.914 47.816-19.982.813-1.116 2.378-1.359 3.493-.546 1.115.814 1.359 2.378.546 3.493-8.063 11.046-23.672 25.781-39.89 25.781z" fill="#000000"/><path d="m756.288 958.336c-3.613 14.87-2.275 33.385 9.043 40.008 19.159 11.212 39.904-7.191 50.008-22.845 12.265-19.004 27.191-26.838 46.959-34.613 31.01-12.196 13.149-63.838-27.335-55.699-50.952 10.244-71.248 42.589-78.674 73.149z" fill="#ffaac3"/><path d="m777.584 1004.218c-4.562 0-9.117-1.144-13.516-3.718-12.458-7.289-14.104-26.727-10.21-42.755 8.456-34.799 41.173-76.837 107.638-90.459 1.343-.273 2.674.593 2.951 1.947.277 1.353-.595 2.674-1.947 2.951-64.175 13.152-95.688 53.432-103.782 86.74-3.346 13.769-2.309 31.301 7.876 37.26 18.613 10.897 38.649-9.654 46.645-22.042 13.664-21.172 42.379-37.518 74.938-42.659 1.362-.216 2.643.716 2.859 2.08.215 1.363-.716 2.644-2.08 2.859-31.196 4.926-58.6 20.418-71.516 40.431-9.517 14.745-24.707 27.363-39.855 27.364z" fill="#000000"/><path d="m923.055 466.931c13.526-30.132 44.204-54.621 90.116-57.776 104.51-7.183 158.021 35.798 281.38 27.53 109.984-7.372 167.598 20.424 189.556 84.083 23.844 69.125-63.225 158.577-201.478 127.246-14.347-3.251-146.223-56.693-199.914-38.703" fill="#ef4910"/><path d="m1338.088 657.005c-18.021 0-36.73-2.184-56.011-6.553-2.682-.608-8.749-2.704-17.933-5.876-41.081-14.189-137.284-47.416-180.635-32.896-1.307.443-2.726-.268-3.164-1.576-.439-1.309.267-2.726 1.576-3.164 44.959-15.073 142.293 18.553 183.854 32.91 8.704 3.006 14.992 5.178 17.406 5.725 85.731 19.431 147.951-8.979 177.587-42.042 22.265-24.843 30.105-55.478 20.975-81.95-22.138-64.176-79.816-89.591-187.026-82.404-64.491 4.326-109.71-5.226-153.444-14.461-40.169-8.481-78.108-16.493-127.932-13.068-41.136 2.827-73.213 23.35-88.007 56.305-.566 1.261-2.05 1.82-3.304 1.257-1.26-.565-1.823-2.045-1.257-3.304 7.206-16.054 18.89-29.901 33.786-40.047 16.454-11.205 36.115-17.665 58.438-19.199 50.513-3.47 88.788 4.609 129.308 13.165 43.401 9.163 88.28 18.638 152.077 14.364 55.375-3.714 97.564 1.397 128.985 15.621 31.024 14.043 51.665 36.986 63.102 70.141 9.731 28.213 1.516 60.705-21.979 86.918-17.988 20.07-43.171 34.981-72.824 43.122-17.031 4.675-34.938 7.013-53.58 7.013z" fill="#000000"/><path d="m1256.828 538.354c-39.625 39.625-60.819 58.976-110.895 82.513-36.476 17.145-110.957 24.151-139.293 73.982-6.988 12.288-16.416 46.696 3.225 65.587-7.372 153.88 135.2 156.685 206.417 99.166 49.761-40.19 105.93-118.165 154.812-152.613 38.826-27.362 152.969-104.13 107.615-198.014" fill="#ef4910"/><path d="m1118.258 896.611c-19.581 0-37.801-4.082-53.628-12.114-18.877-9.58-33.415-24.328-43.21-43.835-10.717-21.342-15.46-47.994-14.103-79.231-19.577-19.999-10.247-54.81-2.851-67.816 20.995-36.923 66.772-50.897 103.555-62.126 13.848-4.228 26.928-8.22 36.848-12.883 50.899-23.924 71.673-43.501 110.191-82.019.977-.977 2.559-.977 3.535 0s.977 2.559 0 3.535c-37.883 37.883-60.052 58.779-111.6 83.009-10.245 4.815-23.491 8.858-37.515 13.14-35.935 10.97-80.657 24.622-100.669 59.814-5.876 10.335-16.131 44.357 2.786 62.55.52.5.798 1.2.764 1.922-3.549 74.079 27.695 105.863 54.53 119.482 15.425 7.828 33.388 11.604 52.055 11.605 33.057.002 68.338-11.836 95.763-33.987 22.942-18.528 47.761-45.693 71.762-71.964 27.904-30.543 56.759-62.126 83.182-80.748l3.223-2.265c20.126-14.136 57.588-40.447 83.789-74.021 31.594-40.482 38.253-80.385 19.793-118.597-.601-1.243-.08-2.738 1.163-3.339 1.246-.598 2.739-.079 3.339 1.163 45.085 93.325-64.105 170.014-105.211 198.884l-3.215 2.262c-25.979 18.309-54.647 49.687-82.371 80.032-24.127 26.408-49.075 53.716-72.311 72.482-20.616 16.65-47.043 28.34-74.414 32.916-8.581 1.435-17 2.146-25.181 2.147z" fill="#000000"/><path d="m320.368 1049.571c-23.694 65.815-88.906 76.444-88.906 76.444-52.845 11.539-228.665-138.429-147.586-169.245 51.787-19.682 119.125-24.782 167.4-16.31 0 0 84.589-28.012 102.047 24.823 21.237 64.273-32.955 84.289-32.955 84.289z" fill="#ffaac3"/><path d="m225.105 1129.146c-46.386.009-147.205-80.11-162.648-132.033-6.098-20.499 1.002-35.258 20.531-42.68 49.376-18.766 116.841-25.391 168.109-16.542 3.704-1.17 23.087-6.965 44.612-7.333 31.729-.573 52.472 11.193 59.987 33.939 11.331 34.293 1.377 56.252-8.969 68.634-9.508 11.38-20.842 16.826-24.393 18.34-12.603 34.061-36.313 53.143-54.076 63.179-18.999 10.733-34.989 13.595-36.327 13.82-2.111.456-4.397.676-6.827.676zm-22.862-190.145c-40.126 0-83.221 7.085-117.479 20.105-16.929 6.434-22.821 18.741-17.516 36.58 7.297 24.532 35.474 57.982 73.533 87.296 37.038 28.528 72.424 44.464 90.146 40.589.042-.01.087-.018.13-.024.159-.026 16.229-2.755 34.908-13.345 17.147-9.723 40.098-28.28 52.049-61.479.25-.694.793-1.242 1.485-1.498.204-.076 13.229-5.048 23.524-17.461 13.747-16.576 16.413-38.007 7.924-63.699-6.849-20.729-25.372-30.999-55.053-30.511-22.691.369-43.626 7.209-43.835 7.277-.392.129-.813.16-1.217.089-15.062-2.643-31.565-3.92-48.602-3.92z" fill="#000000"/><path d="m169.09 1079.989c14.09 7.024 12.811 22.156 5.683 36.206 34.136-11.661 54.882 2.218 57.979 14.353 1.542 6.042 8.87 36.791-56.85 47.762-74.297 12.976-94.525-29.113-98.359-40.152-15.699-45.203 52.035-77.864 91.546-58.169z" fill="#ffaac3"/><path d="m149.418 1183.261c-55.68.003-71.396-36.11-74.234-44.283-6.07-17.479-.932-34.564 14.472-48.11 21.679-19.064 57.061-24.828 80.551-13.116 5.611 2.797 9.354 6.93 11.125 12.283 2.431 7.348.663 15.463-1.989 22.128 21.702-6.021 35.715-1.24 42.379 2.365 7.022 3.799 11.927 9.412 13.455 15.401 2.265 8.872.996 17.079-3.771 24.394-8.376 12.849-26.91 21.748-55.089 26.452-9.863 1.723-18.806 2.486-26.897 2.486zm-7.227-106.621c-17.401 0-36.016 6.357-49.234 17.982-7.978 7.016-20.281 21.895-13.051 42.715 3.019 8.69 21.796 51.389 95.567 38.509 26.76-4.467 44.162-12.626 51.742-24.254 3.972-6.094 5.02-12.966 3.115-20.427-1.168-4.573-5.275-9.149-10.989-12.24-6.481-3.506-20.784-8.217-43.76-.364-.963.327-2.029.041-2.696-.727s-.802-1.863-.342-2.771c4.605-9.079 6.041-17.411 4.04-23.46-1.337-4.041-4.233-7.196-8.608-9.378-7.58-3.778-16.512-5.586-25.784-5.586z" fill="#000000"/><path d="m130.524 1059.424s25.812-51.874-12.498-43.867c-38.311 8.007-56.963 46.967-64.741 64.514-6.181 13.94-9.118 44.117 24.26 58.086 33.377 13.97 151.03-3.054 139.794-60.605-6.467-33.105-86.814-18.128-86.814-18.128z" fill="#ffaac3"/><path d="m109.108 1145.222c-13.437 0-25.036-1.622-32.528-4.759-13.248-5.544-22.215-14.015-26.654-25.175-5.227-13.142-2.873-27.333 1.073-36.231 6.289-14.187 25.431-57.36 66.515-65.947 9.84-2.057 16.796-.539 20.692 4.507 7.563 9.792.445 29.573-3.439 38.567 17.775-2.717 79.038-9.764 85.025 20.889 3.034 15.54-2.766 29.785-16.771 41.195-22.596 18.407-63.08 26.953-93.912 26.954zm16.194-128.008c-1.99 0-4.246.264-6.766.79-38.576 8.063-56.935 49.472-62.968 63.08-3.533 7.97-5.651 20.654-.997 32.355 3.923 9.865 11.978 17.405 23.938 22.411 11.623 4.866 34.298 5.805 57.77 2.392 26.536-3.857 49.712-12.551 63.583-23.852 12.664-10.316 17.719-22.55 15.021-36.359-5.921-30.321-83.122-16.297-83.902-16.15-.934.17-1.882-.196-2.453-.951-.571-.757-.665-1.771-.243-2.62 3.815-7.678 12.324-29.405 5.963-37.64-1.778-2.301-4.775-3.456-8.945-3.456z" fill="#000000"/><path d="m91.419 954.537c-77.065 21.552-93.045 64.752-87.688 89.14s33.523 37.029 45.601 39.459c32.962 6.629 119.153-150.152 42.087-128.599z" fill="#ffaac3"/><path d="m195.122 1030.132c12.037 55.746-112.828 59.633-145.79 53.004-12.077-2.429-41.707-14.795-45.601-39.459-10.094-63.933 179.354-69.292 191.39-13.545z" fill="#ffaac3"/><path d="m84.887 1088.52c-12.295 0-23.685-.847-32.269-2.532-10.334-2.029-44.576-11.038-51.328-41.774-5.653-25.732 4.821-62.439 86.824-91.179 1.302-.457 2.729.229 3.187 1.532s-.229 2.729-1.532 3.187c-36.037 12.63-60.942 27.757-74.022 44.962-9.5 12.495-12.721 26.096-9.573 40.426 6.1 27.765 37.829 36.06 47.408 37.94 30.98 6.082 103.635 2.075 129.378-22.729 7.231-6.967 10.16-15.169 8.704-24.378-7.408-46.896-115.469-36.495-116.561-36.387-1.37.15-2.6-.861-2.739-2.235-.139-1.373.861-2.6 2.234-2.739 4.649-.47 113.862-10.956 122.005 40.58 1.725 10.918-1.698 20.594-10.174 28.761-15.578 15.009-44.433 21.496-65.896 24.295-11.623 1.516-24.038 2.271-35.646 2.271z" fill="#000000"/><path d="m244.525 1028.727c-20.02-3.167-54.819-27.757-67.884-52.895-46.002 5.271-162.876-26.364-129.399-89.717 17.78-27.008 65.317 5.62 125.27 3.238 59.954-2.383 124.384 23.535 130.465 62.287" fill="#ffaac3"/><path d="m244.532 1031.225c-.13 0-.261-.01-.394-.03-20.56-3.252-51.759-27.264-68.787-52.782-2.82.154-5.704.23-8.628.23-45.707.002-102.57-18.629-121.703-49.512-8.662-13.981-8.641-29.291.06-44.273 10.726-18.466 31.567-13.757 60.414-7.238 18.472 4.175 41.486 9.403 67.005 9.232 34.264-.187 114.53-.622 132.884 64.104.377 1.328-.395 2.71-1.724 3.087-1.326.375-2.71-.395-3.087-1.724-17.316-61.069-94.921-60.653-128.046-60.468-26.117.106-49.414-5.124-68.135-9.355-27.765-6.273-46.106-10.42-54.987 4.873-7.826 13.475-7.87 26.64-.133 39.128 19.622 31.674 81.617 49.792 127.213 46.838.88-.054 1.766.376 2.259 1.135 15.898 24.526 46.822 48.725 66.177 51.785 1.363.216 2.294 1.496 2.079 2.86-.195 1.231-1.258 2.109-2.467 2.109z" fill="#000000"/><path d="m1009.865 760.437c0-12.095 10.943-27.645 10.943-27.645" fill="#92acef"/><path d="m1009.865 762.936c-1.381 0-2.5-1.119-2.5-2.5 0-12.739 10.933-28.422 11.397-29.083.796-1.128 2.354-1.4 3.482-.606 1.129.794 1.401 2.354.607 3.482-.104.149-10.487 15.057-10.487 26.207 0 1.381-1.119 2.5-2.5 2.5z" fill="#000000"/><path d="m1004.637 1261.867-36.764-21.732" fill="#ef4910"/><path d="m1004.635 1264.367c-.433 0-.871-.112-1.271-.348l-36.764-21.731c-1.188-.703-1.582-2.236-.88-3.425.704-1.188 2.236-1.578 3.425-.88l36.764 21.731c1.188.703 1.582 2.236.88 3.425-.467.789-1.3 1.228-2.154 1.228z" fill="#000000"/><path d="m1300.347 1295.01h-38.054c-1.381 0-2.5-1.119-2.5-2.5s1.119-2.5 2.5-2.5h38.054c1.381 0 2.5 1.119 2.5 2.5s-1.119 2.5-2.5 2.5z" fill="#000000"/></svg></g><!--ITEM: Upload 2--><g transform="translate(804.0 1368.923076923077) rotate(0.0 114.9230769230769 107.0769230769231)  scale(0.9257500728857778 0.9260827001165255)"><svg width="248.281" height="231.247" viewBox="0.0 0.0 248.281 231.247"><g id="&#1101;&#1090;&#1086;_&#1077;&#1089;&#1090;&#1100;_&#1074;_&#1052;&#1050;_1_-i2">
	<path d="M131.741,157.99c12.764-14.603,96.424-39.059,112.172,2.244c21.709,56.969-152.572,96.202-170.337,44.183   c-17.762-52.043,74.514-64.736,74.514-64.736" style="fill:#FFAAC3;"/>
	<path d="M129.733,231.308c-7.996,0-15.701-0.622-22.851-1.944c-19.154-3.542-31.49-11.889-35.673-24.138   c-3.976-11.65-3.019-22.378,2.846-31.887c17.318-28.083,71.399-35.817,73.693-36.133c1.373-0.189,2.628,0.768,2.817,2.135   c0.188,1.368-0.768,2.629-2.135,2.818c-0.539,0.074-54.047,7.731-70.123,33.81c-5.04,8.176-5.836,17.476-2.366,27.642   c4.503,13.187,19.806,18.61,31.85,20.837c42.046,7.773,106.6-10.367,127.917-35.945c7.422-8.906,9.396-18.117,5.868-27.377   c-4.098-10.747-13.504-17.508-27.959-20.094c-29.601-5.298-71.802,9.232-79.995,18.605c-0.909,1.039-2.489,1.145-3.528,0.237   c-1.04-0.909-1.146-2.488-0.237-3.527c10.074-11.526,53.803-25.753,84.64-20.236c16.072,2.875,27.051,10.91,31.75,23.235   c4.161,10.919,1.844,22.108-6.699,32.359C220.544,214.508,171.264,231.307,129.733,231.308z" fill="#000000"/>
	<path d="M87.95,93.355c12.769-14.597,96.439-39.07,112.175,2.246C221.861,152.573,47.56,191.81,29.8,139.77   c-17.773-52.026,74.5-64.721,74.5-64.721" style="fill:#FFAAC3;"/>
	<path d="M85.972,166.674c-7.999,0-15.702-0.623-22.855-1.945c-19.161-3.543-31.5-11.895-35.683-24.151   c-3.978-11.644-3.023-22.368,2.837-31.874c17.31-28.079,71.394-35.816,73.688-36.131c1.371-0.189,2.628,0.768,2.817,2.135   c0.188,1.368-0.768,2.629-2.135,2.818c-0.539,0.074-54.05,7.733-70.118,33.808c-5.036,8.172-5.829,17.468-2.358,27.629   c4.503,13.196,19.812,18.622,31.86,20.85c42.046,7.775,106.597-10.364,127.906-35.943c7.419-8.906,9.39-18.117,5.857-27.377   c-4.093-10.746-13.489-17.506-27.93-20.095c-29.6-5.306-71.823,9.226-80.028,18.604c-0.91,1.039-2.489,1.145-3.528,0.236   c-1.039-0.909-1.145-2.489-0.236-3.528c10.089-11.533,53.839-25.763,84.674-20.234c16.058,2.879,27.026,10.914,31.72,23.236   c4.165,10.917,1.853,22.107-6.688,32.358C176.776,149.874,127.501,166.672,85.972,166.674z" fill="#000000"/>
	<path d="M78.122,22.152c16.982-4.297,81.48-22.5,97.016,14.648C196.856,93.779,22.559,133.021,4.799,80.981   C-12.958,28.943,64.298,4.204,64.298,4.204L78.122,22.152z" style="fill:#FFAAC3;"/>
	<path d="M60.965,107.885c-8.002,0-15.707-0.623-22.862-1.946c-19.154-3.544-31.488-11.895-35.67-24.148   c-4.784-15.35-2.567-30.202,6.568-44.21C23.879,14.767,52.509,1.679,67.174,0.016c1.38-0.159,2.611,0.831,2.766,2.202   c0.156,1.372-0.83,2.61-2.202,2.766C53.473,6.602,26.581,19.779,13.189,40.312C4.907,53.011,2.887,66.445,7.186,80.239   c4.481,13.128,19.783,18.554,31.827,20.783c42.041,7.779,106.598-10.36,127.92-35.943c7.425-8.909,9.399-18.123,5.869-27.386   c-4.097-10.746-13.501-17.506-27.95-20.093c-29.6-5.299-71.809,9.226-80.007,18.601c-0.909,1.039-2.489,1.144-3.528,0.236   c-1.039-0.909-1.145-2.488-0.236-3.528c10.081-11.526,53.818-25.752,84.652-20.23c16.066,2.876,27.042,10.911,31.74,23.233   c4.163,10.922,1.846,22.115-6.7,32.369C151.767,91.085,102.49,107.883,60.965,107.885z" fill="#000000"/>
</g>
</svg></g><!--ITEM: Illustration component 3--><g transform="translate(325.84615384615387 1107.6923076923078) rotate(0.0 555.2307692307693 592.6153846153846)  scale(0.9229641419224239 0.9226041243901252)"><svg width="1203.147" height="1284.658" viewBox="0.0 0.0 1203.147 1284.658"><path d="m346.995 1116.893c-25.508 16.753-97.326 21.768-163.734-6.745-62.143-26.682-113.345-82.325-156.195-239.13-51.035 142.574-22.378 284.744 84.318 358.586 65.728 45.489 208.72 45.656 276.659-34.532l-41.048-78.178z" fill="#fbb348"/><path d="m114.587 1060.517c-32.613-36.8-61.596-94.631-87.52-189.499-30.261 84.536-32.501 168.93-7.071 239.024 53.373 3.437 75.588-21.578 94.591-49.525z" fill="#fff"/><path d="m227.33 1262.842c-45.166 0-88.726-11.36-117.369-31.184-52.212-36.135-87.596-89.741-102.323-155.023-14.373-63.708-8.469-135.101 17.075-206.461.367-1.027 1.312-1.69 2.45-1.655 1.09.042 2.027.786 2.314 1.839 46.539 170.302 101.89 214.787 154.771 237.492 29.701 12.753 63.879 19.907 96.236 20.145 27.897.215 52.248-4.727 65.139-13.191.589-.386 1.316-.51 1.998-.33.683.176 1.26.633 1.588 1.258l41.048 78.178c.474.902.353 2.001-.307 2.778-31.547 37.234-81.572 60.415-140.861 65.27-7.255.595-14.532.886-21.759.886zm-200.535-383.442c-48.15 142.356-14.796 278.382 86.012 348.147 32.318 22.367 84.38 33.638 135.874 29.427 57.273-4.69 105.618-26.772 136.36-62.242l-39.02-74.314c-26.903 15.361-96.348 20.968-163.746-7.974-35.187-15.107-62.639-37.867-86.391-71.627-26.558-37.746-49.188-90.606-69.09-161.417z" fill="#000000"/><path d="m723 986.122s267.227-206.798 341.449-376.351c77.147-176.237-75.231-304.787-188.678-360.768-113.446-55.981-295.138 30.217-295.138 30.217l134.518 150.12c-199.662 242.047-506.89 566.915-327.108 765.731 37.113 41.043 334.957-208.949 334.957-208.949z" fill="#fbb348"/><path d="m875.771 249.003c-33.742-16.65-73.52-20.721-112.76-18.225-18.778 28.314-12.634 54.656 11.422 83.146 43.396 51.397 117.538 126.381 138.659 149.329 24.643 26.775 94.894 107.813 163.086 114.399 46.727-159.727-93.972-276.126-200.407-328.649z" fill="#fff"/><path d="m400.715 1202.104c-6.477 0-11.3-1.789-14.526-5.356-73.508-81.29-73.335-190.054.53-332.506 63.834-123.105 173.323-253.58 269.925-368.695 19.281-22.977 37.52-44.71 55.211-66.139l-133.084-148.521c-.525-.587-.744-1.388-.589-2.161.156-.773.667-1.428 1.38-1.766.456-.217 46.338-21.826 105.505-36.271 34.795-8.495 67.334-12.896 96.713-13.083 36.854-.222 68.869 6.211 95.098 19.153 40.926 20.196 117.012 64.732 166.756 136.101 23.158 33.226 37.394 68.121 42.311 103.72 5.597 40.512-.865 82.297-19.205 124.193-38.505 87.964-129.534 185.896-199.117 252.561-74.568 71.44-141.103 123.221-143.052 124.734-2.057 1.724-76.104 63.691-153.663 119.942-46.019 33.375-84.271 58.249-113.693 73.932-25.264 13.467-43.971 20.161-56.498 20.161zm184.047-922.023 132.252 147.592c.824.92.853 2.306.066 3.259-18.133 21.982-36.821 44.252-56.606 67.83-96.435 114.916-205.736 245.166-269.315 367.782-72.79 140.379-73.203 247.292-1.261 326.851 1.89 2.09 5.186 3.708 10.853 3.708 18.626.002 62.889-17.473 167.203-93.126 78.125-56.659 152.695-119.145 153.439-119.77.025-.021.052-.042.077-.063.668-.516 67.605-52.479 142.729-124.456 69.239-66.34 159.789-163.723 197.959-250.92 90.798-207.421-140.255-334.213-187.494-357.523-57.929-28.586-134.433-18.877-188.412-5.697-49.984 12.203-90.35 29.534-101.49 34.533z" fill="#000000"/><path d="m577.094 270.586c-1.323-62.226 100.627-188.036 163.13-190.588 31.685-1.294 83.029 30.25 83.029 30.25s40.477-25.037 88.535-81.275c48.053-56.233 101.122-13.145 76.222 59.229-20.303 59.013-76.521 96.162-102.51 115.271 49.543-10.603 88.963-31.534 105.133-42.132 13.221 11.59-35.744 59.475-99.995 107.138-110.109 81.68-316.2 30.286-313.545 2.108z" fill="#fbb348"/><path d="m990.635 161.34c-16.169 10.599-50.819 26.383-89.359 30.635 25.989-19.11 75.861-53.853 88.424-101.461 20.411-77.347-29.857-117.774-77.911-61.541-13.854 16.212-26.991 30.956-38.685 43.749v.002c-.458 17.861 4.059 36.005-13.822 58.971-27.779 35.679-53.315 48.887-87.595 87.828-28.669 32.568-24.491 61.943 2.436 94.024 38.584 16.955 120.31-23.767 116.517-45.069 64.251-47.663 113.217-95.548 99.996-107.138z" fill="#fff"/><path d="m577.093 273.086c-1.356 0-2.47-1.085-2.498-2.447-.628-29.531 22.222-76.371 58.213-119.329 29.115-34.752 72.597-72.392 107.314-73.81 29.552-1.223 74.555 24.71 83.087 29.8 7.22-4.75 44.164-30.199 86.68-79.951 20.8-24.343 43.219-33.04 61.495-23.861 21.855 10.97 30.517 44.866 21.552 84.346-10.417 45.877-53.353 79.146-81.678 99.934 29.756-5.785 62.965-18.658 78.007-28.518.938-.615 2.173-.531 3.019.211 2.095 1.837 3.136 4.444 3.009 7.54-.836 20.496-53.839 66.896-103.164 103.486-1.108.823-2.675.59-3.497-.519s-.591-2.675.519-3.497c59.879-44.42 100.527-84.476 101.147-99.674.036-.891-.085-1.573-.283-2.104-18.104 11.104-55.893 25.245-88.395 29.759-1.128.148-2.229-.475-2.66-1.535s-.087-2.277.836-2.956c1.333-.98 2.734-2.004 4.195-3.071 27.498-20.089 73.522-53.713 84.07-100.163 9.754-42.957-2.474-70.515-18.92-78.77-16.053-8.063-36.269.192-55.451 22.641-47.76 55.889-88.713 81.524-89.121 81.776-.804.496-1.818.5-2.624.004-.508-.312-51.063-31.179-81.619-29.881-27.682 1.131-67.412 28.729-103.685 72.024-35.259 42.084-57.651 87.621-57.048 116.013.03 1.38-1.065 2.522-2.446 2.552-.018 0-.036 0-.054 0z" fill="#000000"/><path d="m949.526 2.83c-23.988 4.973-48.25 39.207-48.25 39.207s13.965 20.508 42.605 10.925c28.64-9.584 39.59-33.508 39.59-33.508s-9.963-21.591-33.946-16.623z" fill="#000000"/><path d="m515.527 1179.63c21.562 0 177.365-4.079 221.32-1.162 48.567 3.224 92.772 14.989 92.772 50.238 0 38.39-41.077 49.286-95.182 52.142-30.72 1.622-173.916.652-207.901.652-52.182 0-84.409-23.003-84.409-50.935s28.013-50.935 73.4-50.935z" fill="#fff"/><path d="m643.599 1284.29c-29.15 0-59.664-.108-83.41-.193-14.646-.053-26.541-.095-33.652-.095-25.414 0-47.237-5.318-63.111-15.382-15.347-9.729-23.798-23.242-23.798-38.054s7.354-28.227 20.707-37.963c13.884-10.122 32.969-15.473 55.192-15.473 5.28 0 18.404-.241 36.567-.575 56.725-1.044 151.666-2.789 184.919-.581 28.404 1.885 49.817 6.244 65.464 13.326 19.669 8.904 29.643 22.162 29.643 39.406 0 18.821-9.674 32.839-28.752 41.666-15.55 7.193-37.411 11.316-68.798 12.973-14.051.742-51.242.944-90.971.944zm39.802-104.365c-42.537 0-96.613.994-131.215 1.63-18.189.335-31.333.576-36.659.576-21.157 0-39.224 5.019-52.246 14.513-12.029 8.771-18.653 20.817-18.653 33.923 0 28.065 34.448 48.436 81.909 48.436 7.115 0 19.017.042 33.67.095 56.058.201 149.881.536 174.1-.743 65.057-3.435 92.813-18.282 92.813-49.646 0-15.316-8.735-26.717-26.705-34.851-14.88-6.736-36.323-11.074-63.733-12.894-11.44-.759-30.744-1.038-53.28-1.038z" fill="#000000"/><path d="m345.438 1125.786c35.669 119.394 121.122 156.003 172.956 156.003 225.768 21.47 340.495-290.459 108.173-414.553 0 0-343.743 48.964-281.129 258.55z" fill="#fbb348"/><path d="m532.499 1284.652c-4.706 0-9.449-.122-14.232-.366-16.098-.824-58.052-6.374-99.854-40.021-43.343-34.887-71.908-87.977-84.903-157.798-.252-1.357.644-2.662 2.001-2.915 1.36-.251 2.663.644 2.915 2.001 12.771 68.612 40.736 120.7 83.122 154.816 40.664 32.73 81.364 38.123 96.976 38.922 133.277 6.816 204.22-80.515 224.47-157.38 22.431-85.146-5.216-196.224-117.544-252.44-1.234-.617-1.734-2.119-1.116-3.354.615-1.234 2.117-1.735 3.354-1.116 51.494 25.771 89.687 65.409 110.448 114.629 18.858 44.71 22.301 95.692 9.692 143.556-12.403 47.08-39.85 88.724-77.283 117.259-38.108 29.05-85.592 44.208-138.045 44.208z" fill="#000000"/><circle cx="783.331" cy="138.122" r="13.601" fill="#000000"/><path d="m581.443 281.695c-45.566-34.338-82.291-88.267-108.381-165.765 72.858-.755 128.276 12.996 176.526 31.053z" fill="#fbb348"/><path d="m587.195 289.043c-.687 0-1.369-.28-1.863-.832l-4.765-5.318c-47.99-36.239-84.955-92.143-109.875-166.165-.256-.759-.132-1.594.331-2.246.464-.652 1.212-1.043 2.012-1.052 87.365-.917 162.99 23.756 191.436 34.4 1.293.484 1.949 1.925 1.466 3.218-.483 1.294-1.927 1.947-3.218 1.466-27.675-10.357-100.409-34.108-184.981-34.108-.399 0-.792 0-1.191.002 24.605 71.524 60.668 125.555 107.226 160.64.129.097.249.207.357.328l4.928 5.5c.921 1.028.834 2.608-.194 3.53-.477.427-1.073.638-1.667.638z" fill="#000000"/><path d="m925.206 652.367s81.198 49.456 157.253-33.891c38.623-42.326 78.01-97.844 90.349-117.687 31.665-50.919 29.222-100.485 12.356-113.965-22.911-18.311-64.857-1.08-96.566 37.38-29.644 35.955-59.144 69.872-59.144 69.872z" fill="#fbb348"/><path d="m532.019 161.774 57.456 78.053c2.104 2.858 6.38 2.843 8.464-.029l42.135-58.078c2.243-3.091.533-7.466-3.212-8.218l-99.591-19.975c-4.696-.942-8.092 4.389-5.252 8.247z" fill="#e79f33"/><path d="m1185.164 386.825c-24.026-16.82-64.857-1.08-96.566 37.38-29.643 35.955-59.143 69.871-59.143 69.871l-38.967 43.728c50.693 44.784 19.362 115.509-12.524 129.016 83.329 9.301 141.13-91.577 194.845-166.03 32.4-44.909 36.713-96.912 12.356-113.964z" fill="#fff"/><path d="m982.934 669.424c-2.699 0-5.296-.091-7.785-.253-30.073-1.964-50.393-14.151-51.243-14.67-1.179-.718-1.552-2.254-.835-3.434.719-1.179 2.258-1.552 3.435-.837.199.121 20.288 12.134 49.195 13.965 38.658 2.458 73.971-13.497 104.912-47.405 37.971-41.611 77.401-96.944 90.073-117.321 31.126-50.052 36.374-94.493 13.059-110.587-23.186-16.006-62.389-.481-93.217 36.912-29.325 35.568-58.892 69.582-59.187 69.922-.907 1.043-2.484 1.151-3.527.246-1.042-.906-1.151-2.485-.246-3.527.295-.339 29.82-34.306 59.103-69.822 32.522-39.445 74.545-55.361 99.914-37.846 25.662 17.714 20.979 64.87-11.652 117.343-12.757 20.514-52.437 76.2-90.626 118.052-36.372 39.859-73.99 49.263-101.372 49.263z" fill="#000000"/></svg></g><!--ITEM: Upload 4--><g transform="translate(804.0 1368.923076923077) rotate(0.0 114.9230769230769 107.53846153846155)  scale(0.9257500728857778 0.9300744358928897)"><svg width="248.281" height="231.247" viewBox="0.0 0.0 248.281 231.247"><path d="M131.741,157.99c12.764-14.603,96.424-39.059,112.172,2.244,21.709,56.969-152.572,96.202-170.337,44.183-17.762-52.043,74.514-64.736,74.514-64.736" style="         fill: #ffaac3;       "/>
  <path d="M129.733,231.308c-7.996,0-15.701-.623-22.851-1.944-19.154-3.542-31.49-11.889-35.674-24.139-3.976-11.649-3.019-22.378,2.846-31.888,17.319-28.083,71.399-35.817,73.693-36.133,1.361-.184,2.629,.769,2.817,2.136s-.768,2.629-2.136,2.817c-.538,.074-54.047,7.731-70.122,33.811-5.04,8.176-5.836,17.476-2.366,27.642,4.503,13.188,19.806,18.61,31.851,20.837,42.036,7.776,106.6-10.366,127.918-35.945,7.422-8.905,9.396-18.116,5.867-27.376-4.098-10.748-13.506-17.509-27.961-20.095-29.606-5.297-71.801,9.232-79.992,18.605-.911,1.039-2.488,1.145-3.528,.237-1.039-.909-1.146-2.488-.237-3.528,10.073-11.525,53.798-25.762,84.639-20.236,16.072,2.875,27.053,10.909,31.752,23.235,4.161,10.919,1.845,22.107-6.698,32.358-19.006,22.805-68.286,39.604-109.817,39.605Z" fill="#000000"/>
  <path d="M87.95,93.355c12.769-14.597,96.439-39.07,112.175,2.246,21.735,56.972-152.565,96.21-170.325,44.17C12.027,87.744,104.3,75.049,104.3,75.049" style="         fill: #ffaac3;       "/>
  <path d="M85.972,166.674c-7.998,0-15.702-.622-22.855-1.944-19.16-3.544-31.499-11.896-35.682-24.151-3.978-11.644-3.023-22.368,2.837-31.874,17.311-28.08,71.395-35.816,73.688-36.132,1.37-.188,2.629,.769,2.817,2.136s-.768,2.629-2.136,2.817c-.538,.074-54.05,7.733-70.117,33.808-5.036,8.173-5.829,17.468-2.357,27.629,4.503,13.196,19.811,18.622,31.858,20.851,42.051,7.778,106.598-10.364,127.907-35.943,7.419-8.906,9.39-18.117,5.856-27.377-4.092-10.746-13.488-17.506-27.928-20.095-29.6-5.305-71.823,9.224-80.029,18.604-.909,1.037-2.489,1.145-3.528,.235s-1.145-2.488-.235-3.528c10.091-11.533,53.835-25.763,84.676-20.233,16.057,2.879,27.024,10.914,31.717,23.235,4.166,10.917,1.854,22.107-6.688,32.358-18.997,22.805-68.272,39.603-109.802,39.604Z" fill="#000000"/>
  <path d="M78.122,22.152c16.982-4.297,81.48-22.5,97.016,14.648C196.856,93.779,22.559,133.021,4.799,80.981-12.958,28.943,64.298,4.204,64.298,4.204l13.824,17.948Z" style="         fill: #ffaac3;       "/>
  <path d="M60.965,107.885c-8.002,0-15.707-.623-22.862-1.947-19.153-3.544-31.487-11.895-35.669-24.147C-2.351,66.441-.134,51.589,9.001,37.581,23.879,14.768,52.51,1.678,67.175,.015c1.371-.144,2.611,.832,2.766,2.203,.155,1.371-.831,2.609-2.203,2.766-14.264,1.617-41.156,14.795-54.548,35.328-8.282,12.699-10.302,26.133-6.003,39.927,4.481,13.129,19.782,18.555,31.826,20.783,42.033,7.779,106.599-10.36,127.92-35.943,7.425-8.909,9.399-18.123,5.869-27.387-4.097-10.746-13.501-17.506-27.95-20.093-29.604-5.307-71.809,9.227-80.007,18.601-.909,1.039-2.489,1.145-3.527,.236-1.04-.909-1.146-2.488-.236-3.527,10.081-11.527,53.82-25.754,84.651-20.231,16.067,2.876,27.043,10.91,31.741,23.233,4.163,10.922,1.846,22.115-6.7,32.369-19.007,22.806-68.283,39.603-109.809,39.605Z" fill="#000000"/>
</svg></g></svg>