<svg xmlns="http://www.w3.org/2000/svg" version="1.1" viewBox="0 0 3000 2600" width="3000" height="2600">
<defs/><!--ITEM: Illustration component 1--><g transform="translate(2300.0 534.0) rotate(0.0 -469.0 253.0)  scale(-1.9989770693035547 1.9990755263376225)"><svg width="469.24" height="253.117" viewBox="0.0 0.0 469.24 253.117"><path d="m415.572 253.117h-361.055c-10.769 0-20.038-7.68-22.04-18.261l-32.08-169.542c-1.246-6.584.492-13.321 4.768-18.481 4.275-5.161 10.571-8.12 17.272-8.12h361.055c10.769 0 20.038 7.68 22.04 18.261l32.079 169.542c1.246 6.584-.492 13.32-4.767 18.48-4.275 5.161-10.571 8.12-17.273 8.12zm-393.135-211.404c-5.805 0-11.259 2.564-14.962 7.034-3.704 4.47-5.209 10.305-4.13 16.009l32.079 169.542c1.734 9.166 9.763 15.818 19.092 15.818h361.056c5.805 0 11.259-2.564 14.963-7.034s5.209-10.305 4.129-16.009l-32.079-169.542c-1.734-9.166-9.764-15.819-19.092-15.819h-361.056z" fill="#f0e760"/><path d="m448.303 211.404h-361.055c-10.059 0-18.696-7.156-20.566-17.04l-32.079-169.542c-2.44-12.891 7.446-24.822 20.566-24.822h361.055c10.059 0 18.696 7.156 20.566 17.04l32.079 169.543c2.439 12.891-7.446 24.822-20.566 24.822z" fill="#f0e760"/><g fill="#fff"><path d="m145.478 127.149h-42.894l-8.292-42.894h42.894z"/><path d="m118.046 85.755c-.352 0-.705-.123-.99-.373-.622-.547-.684-1.495-.137-2.117l36.615-41.68c.285-.324.695-.51 1.127-.51h200.945c.828 0 1.5.671 1.5 1.5s-.672 1.5-1.5 1.5h-200.266l-36.167 41.17c-.297.338-.711.51-1.127.51z"/><path d="m380.012 170.329h-200.945c-.338 0-.665-.114-.93-.323l-52.729-41.68c-.65-.514-.76-1.457-.247-2.107.514-.65 1.457-.76 2.107-.247l52.32 41.357h200.424c.828 0 1.5.671 1.5 1.5s-.672 1.5-1.5 1.5z"/><path d="m201.7 64.022h-42.893l-8.292-42.894h42.894z"/><path d="m293.237 64.022h-42.894l-8.291-42.894h42.893z"/><path d="m384.773 64.022h-42.893l-8.292-42.894h42.894z"/><path d="m226.106 190.276h-42.894l-8.291-42.894h42.893z"/><path d="m317.642 190.276h-42.893l-8.292-42.894h42.894z"/><path d="m409.179 190.276h-42.894l-8.291-42.894h42.893z"/></g></svg></g><!--ITEM: Illustration component 2--><g transform="translate(2326.0 822.0) rotate(0.0 -1033.0 616.0)  scale(-1.999694141651132 1.9970789478376596)"><svg width="1033.158" height="616.901" viewBox="0.0 0.0 1033.158 616.901"><g fill="#bbddfa"><path d="m518.279 304.567h279.38l3.498 57.452h-282.878z"/><path d="m402.596 616.901h118.124l61.707-172.833-71.891-177.443-119.303 334.152c-2.806 7.858 3.02 16.123 11.364 16.123z"/><path d="m465.717 603.193h180.227v13.708h-166.519c-7.566 0-13.708-6.142-13.708-13.708z" transform="matrix(-1 0 -0 -1 1111.661 1220.094)"/></g><path d="m549.838 604.693h-84.121c-.828 0-1.5-.671-1.5-1.5s.672-1.5 1.5-1.5h84.121c.828 0 1.5.671 1.5 1.5s-.672 1.5-1.5 1.5z" fill="#25242e"/><path d="m408.731 279.306-361.684-105.474h-18c-18.05 0-31.727 16.293-28.6 34.07l54.832 311.756c2.442 13.884 14.503 24.009 28.6 24.009h510.949c18.05 0 31.727-16.293 28.6-34.07l-105.932-95.845c-2.442-13.884-94.669-134.445-108.766-134.445z" fill="#bbddfa"/><path d="m539.996 173.832h-492.949c-18.05 0-31.727 16.293-28.6 34.07l54.832 311.756c2.442 13.884 14.503 24.009 28.6 24.009h492.949c18.05 0 31.727-16.293 28.6-34.07l-54.832-311.756c-2.442-13.884-14.503-24.009-28.6-24.009z" fill="#fff"/><path d="m65.965 519.321-7.025-36.887h558.996l.738.129 4.755 27.034c3.127 17.777-10.55 34.07-28.6 34.07h-492.949c-14.098 0-33.473-10.461-35.915-24.345z" fill="#bbddfa"/><path d="m623.427 511.097c-.715 0-1.348-.512-1.476-1.24l-54.833-311.756c-2.32-13.193-13.727-22.769-27.123-22.769h-492.948c-8.159 0-15.847 3.584-21.093 9.833-.533.635-1.479.717-2.113.185-.635-.533-.717-1.479-.184-2.113 5.817-6.93 14.342-10.904 23.39-10.904h492.949c14.855 0 27.505 10.619 30.078 25.249l54.833 311.756c.144.816-.402 1.594-1.218 1.737-.088.016-.175.023-.261.023z" fill="#25242e"/><path d="m592.427 545.238-188.339-.039c-.828 0-1.5-.672-1.5-1.5s.672-1.5 1.5-1.5l188.339.039c.828 0 1.5.672 1.5 1.5s-.672 1.5-1.5 1.5z" fill="#25242e"/><path d="m1005.426 543.666h-333.582c-13.447 0-24.955-9.65-27.3-22.891l-86.181-486.716c-3.007-16.982 10.054-32.559 27.3-32.559h333.582c13.447 0 24.955 9.65 27.3 22.891l86.182 486.717c3.007 16.982-10.054 32.559-27.3 32.559z" fill="#bbddfa"/><path d="m978.491 543.666h-287.647c-13.447 0-24.955-9.65-27.3-22.891l-86.181-486.716c-3.007-16.982 10.054-32.559 27.3-32.559h277.829l96 542.166z" fill="#fff"/><path d="m897.692 3h-308.348c-.828 0-1.5-.671-1.5-1.5s.672-1.5 1.5-1.5h308.348c.828 0 1.5.671 1.5 1.5s-.672 1.5-1.5 1.5z" fill="#25242e"/><path d="m989.917 545.166h-299.073c-.828 0-1.5-.671-1.5-1.5s.672-1.5 1.5-1.5h299.073c.828 0 1.5.671 1.5 1.5s-.672 1.5-1.5 1.5z" fill="#25242e"/><path d="m618.725 376.467c-.714 0-1.346-.512-1.475-1.239l-16.27-91.887c-.145-.816.4-1.594 1.216-1.739.817-.141 1.594.4 1.739 1.215l16.27 91.887c.145.816-.4 1.594-1.216 1.739-.088.016-.177.023-.263.023z" fill="#25242e"/><path d="m322.454 576.096h380.629c3.132 0 5.675 2.543 5.675 5.675v24.247h-391.979v-24.247c0-3.132 2.543-5.675 5.675-5.675z" fill="#bbddfa"/><path d="m297.035 590.521h413.309c14.56 0 26.38 11.82 26.38 26.38h-413.309c-14.56 0-26.38-11.82-26.38-26.38z" fill="#bbddfa"/><path d="m710.344 592.021h-403.567c-.828 0-1.5-.671-1.5-1.5s.672-1.5 1.5-1.5h403.567c.828 0 1.5.671 1.5 1.5s-.672 1.5-1.5 1.5z" fill="#25242e"/></svg></g><!--ITEM: Illustration component 3--><g transform="translate(1076.0 906.0) rotate(0.0 -313.0 443.0)  scale(-1.9967656224581907 1.9964532534752033)"><svg width="313.507" height="443.787" viewBox="0.0 0.0 313.507 443.787"><g fill="#bbddfa"><circle cx="68.884" cy="83.888" r="5.026"/><circle cx="75.819" cy="123.32" r="5.026"/><circle cx="82.754" cy="162.749" r="5.026"/><circle cx="117.43" cy="359.9" r="5.026"/><circle cx="74.365" cy="399.328" r="5.026"/><circle cx="81.301" cy="438.761" r="5.026"/><path d="m218.075 8.026h-163.049c-1.657 0-3-1.343-3-3s1.343-3 3-3h163.049c1.657 0 3 1.343 3 3s-1.343 3-3 3z"/><path d="m61.962 47.456c-1.657 0-3-1.343-3-3s1.343-3 3-3h82.837c1.657-.001 3 1.342 3 2.999s-1.343 3-3 3h-82.837z"/><path d="m118.723 86.888c-1.657 0-3-1.343-3-3s1.343-3 3-3l113.173-.003c1.657 0 3 1.343 3 3s-1.343 3-3 3z"/><path d="m125.832 126.319c-1.657 0-3-1.343-3-3s1.343-3 3-3h91.35c1.657 0 3 1.342 3 2.999s-1.343 3-3 3h-91.35z"/><path d="m132.767 165.747c-1.657 0-3-1.343-3-3s1.343-3 3-3l99.129-.002c1.657 0 3 1.343 3 3s-1.343 3-3 3z"/><path d="m310.507 323.546h-99.986c-1.657 0-3-1.343-3-3s1.343-3 3-3h99.986c1.657 0 3 1.343 3 3s-1.343 3-3 3z"/><path d="m300.363 362.9h-132.92c-1.657 0-3-1.343-3-3s1.343-3 3-3h132.92c1.657 0 3 1.343 3 3s-1.343 3-3 3z"/><path d="m190.756 402.328h-66.378c-1.657 0-3-1.343-3-3s1.343-3 3-3h66.378c1.657 0 3 1.343 3 3s-1.343 3-3 3z"/><circle cx="96.578" cy="241.606" r="5.026"/><circle cx="153.513" cy="281.034" r="5.026"/><circle cx="160.448" cy="320.467" r="5.026"/><path d="m189.655 205.252h-99.986c-1.657 0-3-1.343-3-3s1.343-3 3-3h99.986c1.657 0 3 1.343 3 3s-1.343 3-3 3z"/><path d="m206.271 244.606h-59.681c-1.657 0-3-1.343-3-3s1.343-3 3-3h59.681c1.657 0 3 1.343 3 3s-1.343 3-3 3z"/><path d="m269.904 284.034h-66.378c-1.657 0-3-1.343-3-3s1.343-3 3-3h66.378c1.657 0 3 1.343 3 3s-1.343 3-3 3z"/><path d="m281.229 441.761h-149.915c-1.657 0-3-1.343-3-3s1.343-3 3-3h149.916c1.657 0 3 1.343 3 3s-1.343 3-3 3z"/><circle cx="5.026" cy="5.026" r="5.026"/><circle cx="11.949" cy="44.459" r="5.026"/><circle cx="39.655" cy="202.172" r="5.026"/></g></svg></g><!--ITEM: Illustration component 4--><g transform="translate(2198.0 1230.0) rotate(0.0 -469.0 246.0)  scale(-1.9985043176641788 1.994721286351971)"><svg width="469.351" height="246.651" viewBox="0.0 0.0 469.351 246.651"><g fill="#bbddfa"><circle cx="5.026" cy="5.026" r="5.026"/><path d="m144.12 8.025c-1.657 0-3-1.343-3-3s1.343-3 3-3h104.149c1.657 0 3 1.343 3 3s-1.343 3-3 3z"/><path d="m105.026 8.026-50-.002c-1.657 0-3-1.343-3-3s1.343-3 3-3l50 .002c1.657 0 3 1.343 3 3s-1.343 3-3 3z"/><circle cx="11.949" cy="44.459" r="5.026"/><path d="m365.992 47.458c-1.657 0-3-1.343-3-3s1.343-3 3-3h100.359c1.657 0 3 1.343 3 3s-1.343 3-3 3z"/><path d="m298.588 47.458c-1.657 0-3-1.343-3-3s1.343-3 3-3h33.702c1.657 0 3 1.343 3 3s-1.343 3-3 3z"/><path d="m111.962 47.459c-1.657 0-3-1.343-3-3s1.343-3 3-3h155.222c1.657 0 3 1.342 3 2.999s-1.343 3-3 3h-155.222z"/><circle cx="18.872" cy="83.892" r="5.026"/><path d="m347.226 86.891h-81.574c-1.657 0-3-1.343-3-3s1.343-3 3-3h81.574c1.657 0 3 1.343 3 3s-1.343 3-3 3z"/><path d="m238.077 86.891h-32.391c-1.657 0-3-1.343-3-3s1.343-3 3-3h32.391c1.657 0 3 1.343 3 3s-1.343 3-3 3z"/><path d="m168.897 86.891h-50c-1.657 0-3-1.343-3-3s1.343-3 3-3h50c1.657 0 3 1.343 3 3s-1.343 3-3 3z"/><circle cx="25.795" cy="123.325" r="5.026"/><circle cx="32.717" cy="162.758" r="5.026"/><path d="m343.526 165.756h-176.938c-1.657 0-3-1.343-3-3s1.343-3 3-3h176.938c1.657 0 3 1.343 3 3s-1.343 3-3 3z"/><path d="m132.769 165.756h-50c-1.657 0-3-1.343-3-3s1.343-3 3-3h50c1.657 0 3 1.343 3 3s-1.343 3-3 3z"/><circle cx="39.64" cy="202.191" r="5.026"/><path d="m454.077 205.19h-135.192c-1.657 0-3-1.344-3-3s1.343-3 3-3h135.192c1.657 0 3 1.344 3 3s-1.343 3-3 3z"/><path d="m285.567 205.189h-63.685c-1.657 0-3-1.343-3-3s1.343-3 3-3h63.685c1.657 0 3 1.343 3 3s-1.343 3-3 3z"/><path d="m189.704 205.189h-50c-1.657 0-3-1.343-3-3s1.343-3 3-3h50c1.657 0 3 1.343 3 3s-1.343 3-3 3z"/><circle cx="46.563" cy="241.625" r="5.026"/><path d="m401.011 244.632c-1.657 0-3-1.343-3-3s1.343-3 3-3l48.982-.005c1.657 0 3 1.343 3 3s-1.343 3-3 3z"/><path d="m196.195 244.653c-1.657 0-3-1.343-3-3s1.343-3 3-3l168.146-.017c1.657 0 3 1.343 3 3s-1.343 3-3 3z"/></g></svg></g><!--ITEM: Illustration component 5--><g transform="translate(2588.0 940.0) rotate(0.0 -218.0 158.0)  scale(-1.9955694696179125 1.9994305419342593)"><svg width="218.484" height="158.045" viewBox="0.0 0.0 218.484 158.045"><path d="m189.27 158.045h-142.459c-14.17 0-26.296-10.172-28.761-24.127l-17.597-99.632c-3.159-17.886 10.599-34.286 28.761-34.286h142.459c14.17 0 26.296 10.172 28.761 24.127l17.597 99.633c3.159 17.885-10.599 34.286-28.761 34.286z" fill="#56b1f0"/><g fill="#fff"><path d="m80.083 108.925c-.408 0-.822-.1-1.205-.312l-49.688-27.402c-.755-.417-1.242-1.193-1.289-2.054s.354-1.686 1.06-2.182l39.035-27.402c1.13-.793 2.689-.52 3.482.61s.52 2.689-.61 3.483l-35.757 25.101 46.181 25.468c1.209.667 1.649 2.187.982 3.396-.456.826-1.31 1.293-2.191 1.293z"/><path d="m149.053 108.925c-.787 0-1.562-.371-2.048-1.063-.793-1.13-.52-2.689.61-3.483l35.757-25.101-46.181-25.468c-1.209-.667-1.649-2.187-.982-3.396s2.188-1.649 3.396-.982l49.688 27.402c.755.417 1.242 1.193 1.289 2.054s-.354 1.686-1.06 2.182l-39.036 27.402c-.437.307-.938.454-1.434.454z"/><path d="m91.85 117.355c-.366 0-.738-.081-1.09-.251-1.242-.603-1.76-2.099-1.157-3.341l34.78-71.664c.603-1.242 2.099-1.76 3.341-1.157s1.76 2.099 1.157 3.341l-34.781 71.664c-.432.89-1.323 1.409-2.251 1.409z"/></g></svg></g><!--ITEM: Illustration component 6--><g transform="translate(1670.0 596.0) rotate(0.0 -461.0 81.0)  scale(-1.9837128995126778 1.9750557770381478)"><svg width="464.785" height="82.023" viewBox="0.0 0.0 464.785 82.023"><path d="m431.835 80.523h-380.642c-19.17 0-38.752-13.761-46.445-32.639-9.859-24.197 3.631-46.384 28.201-46.384h380.642c19.17 0 38.752 13.761 46.445 32.639 9.859 24.196-3.63 46.383-28.201 46.383z" fill="#fff"/><path d="m431.835 82.023h-380.642c-19.79 0-39.906-14.12-47.834-33.574-5.117-12.559-4.374-25.231 2.038-34.769 5.846-8.694 15.888-13.68 27.552-13.68h380.642c19.79 0 39.907 14.119 47.834 33.574 5.117 12.559 4.375 25.231-2.038 34.769-5.845 8.694-15.887 13.68-27.552 13.68zm-398.886-79.023c-10.805 0-19.706 4.387-25.062 12.354-5.846 8.695-6.484 20.345-1.749 31.963 7.486 18.372 26.435 31.706 45.055 31.706h380.642c10.805 0 19.706-4.387 25.062-12.354 5.846-8.695 6.484-20.345 1.749-31.963-7.486-18.372-26.435-31.706-45.055-31.706h-380.642z" fill="#25242e"/><path d="m417.85 50.904h-363.347c-3.93 0-8.025-2.327-10.432-5.927-4.369-6.536-1.27-13.858 5.864-13.858h363.347c3.93 0 8.025 2.327 10.432 5.927 4.369 6.536 1.27 13.858-5.864 13.858z" fill="#24968b"/><ellipse cx="318.096" cy="37.883" fill="#fff" rx="20.82" ry="26.214" transform="matrix(.6653346 -.74654529 .74654529 .6653346 78.176 250.153)"/><path d="m323.489 62.744c-13.54 0-27.095-11.001-30.217-24.524-1.572-6.81-.335-13.204 3.484-18.005 3.69-4.639 9.353-7.194 15.946-7.194 13.54 0 27.095 11.001 30.217 24.524 1.572 6.81.335 13.204-3.484 18.004-3.69 4.639-9.353 7.194-15.946 7.194zm-10.787-46.723c-5.659 0-10.489 2.153-13.598 6.062-3.238 4.071-4.271 9.562-2.909 15.462 2.826 12.24 15.07 22.199 27.293 22.199 5.659 0 10.489-2.153 13.598-6.062 3.238-4.07 4.271-9.562 2.908-15.462-2.826-12.241-15.07-22.199-27.293-22.199z" fill="#25242e"/></svg></g><!--ITEM: Illustration component 7--><g transform="translate(1684.0 1880.0) rotate(0.0 144.0 87.0)  scale(1.9352107565464551 1.9401886666220647)"><svg width="148.821" height="89.682" viewBox="0.0 0.0 148.821 89.682"><circle cx="104.526" cy="16.819" fill="#fff" r="15.319"/><path d="m104.526 33.638c-9.274 0-16.819-7.545-16.819-16.819-.001-9.274 7.544-16.819 16.819-16.819s16.819 7.545 16.819 16.819-7.545 16.819-16.819 16.819zm0-30.638c-7.62 0-13.819 6.199-13.819 13.819s6.199 13.819 13.819 13.819 13.819-6.199 13.819-13.819-6.199-13.819-13.819-13.819z" fill="#25242e"/><path d="m87.758 7.453c54.836.019 60.77 54.194 61.062 74.588.06 4.207-3.337 7.641-7.544 7.641h-133.729c-4.982 0-8.588-4.735-7.276-9.541 5.914-21.666 26.336-72.709 87.487-72.688z" fill="#56b1f0"/><path d="m106.687 25.43c37.837.015 41.932 42.346 42.133 58.281.041 3.287-2.303 5.971-5.206 5.971h-92.273c-3.437 0-5.926-3.7-5.02-7.455 4.08-16.929 18.171-56.813 60.366-56.797z" fill="#bbddfa"/></svg></g><!--ITEM: Illustration component 8--><g transform="translate(2312.0 1724.0) rotate(0.0 185.0 166.0)  scale(1.9597353827575068 1.9607032546492882)"><svg width="188.801" height="169.327" viewBox="0.0 0.0 188.801 169.327"><path d="m154.511 42.171h-26.335c-18.109 0-32.79 14.68-32.79 32.79v19.404c0 18.109 14.681 32.79 32.79 32.79h26.335c18.109 0 32.79-14.681 32.79-32.79v-19.404c0-18.109-14.681-32.79-32.79-32.79zm16.538 48.764c0 11.705-9.489 21.194-21.194 21.194h-17.022c-11.705 0-21.194-9.489-21.194-21.194v-12.543c0-11.705 9.489-21.194 21.194-21.194h17.022c11.705 0 21.194 9.489 21.194 21.194z" fill="#fff"/><path d="m154.511 128.656h-26.335c-18.908 0-34.29-15.382-34.29-34.29v-19.405c0-18.908 15.382-34.29 34.29-34.29h26.335c18.908 0 34.29 15.382 34.29 34.29v19.404c0 18.908-15.382 34.291-34.29 34.291zm-26.335-84.985c-17.253 0-31.29 14.037-31.29 31.29v19.404c0 17.253 14.037 31.29 31.29 31.29h26.335c17.253 0 31.29-14.037 31.29-31.29v-19.404c0-17.253-14.037-31.29-31.29-31.29z" fill="#25242e"/><path d="m149.855 113.629h-17.022c-12.514 0-22.694-10.181-22.694-22.694v-12.543c0-12.514 10.181-22.694 22.694-22.694h17.022c12.514 0 22.694 10.181 22.694 22.694v12.542c0 12.514-10.181 22.695-22.694 22.695zm-17.023-54.931c-10.859 0-19.694 8.835-19.694 19.694v12.542c0 10.859 8.835 19.694 19.694 19.694h17.022c10.859 0 19.694-8.835 19.694-19.694v-12.542c0-10.859-8.835-19.694-19.694-19.694z" fill="#25242e"/><path d="m126.041 167.827h-109.238c-8.451 0-15.303-6.851-15.303-15.303v-135.721c0-8.452 6.851-15.303 15.303-15.303h109.238c8.451 0 15.303 6.851 15.303 15.303v135.722c-.001 8.451-6.852 15.302-15.303 15.302z" fill="#fff"/><path d="m126.041 169.327h-109.239c-9.264 0-16.802-7.538-16.802-16.803v-135.721c0-9.266 7.538-16.803 16.802-16.803h109.238c9.265 0 16.803 7.538 16.803 16.803v135.722c0 9.264-7.537 16.802-16.802 16.802zm-109.239-166.327c-7.61 0-13.802 6.192-13.802 13.803v135.722c0 7.611 6.192 13.803 13.802 13.803h109.238c7.611 0 13.803-6.192 13.803-13.803v-135.722c0-7.611-6.192-13.803-13.802-13.803z" fill="#25242e"/><path d="m75.38 126.223c-2.566 1.951-6.098 1.981-8.696.073-14.521-10.672-58.737-46.511-32.521-69.856 17.611-15.684 36.613 11.036 36.613 11.036s17.929-26.111 36.513-11.373c27.388 21.722-17.37 59.062-31.909 70.12z" fill="#f0e760"/></svg></g><!--ITEM: Illustration component 9--><g transform="translate(452.0 1966.0) rotate(0.0 509.0 46.0)  scale(2.1492345726971207 2.092906865644479)"><svg width="473.657" height="43.958" viewBox="0.0 0.0 473.657 43.958"><path d="m21.269 32.234h422.262v-26.121c0-3.376-2.737-6.113-6.113-6.113h-410.035c-3.376 0-6.113 2.737-6.113 6.113v26.121z" fill="#56b1f0"/><path d="m28.418 43.958h445.239c0-15.695-12.723-28.418-28.418-28.418h-445.239c0 15.695 12.723 28.418 28.418 28.418z" fill="#56b1f0"/><path d="m445.239 17.04h-434.745c-.828 0-1.5-.671-1.5-1.5s.672-1.5 1.5-1.5h434.745c.829 0 1.5.671 1.5 1.5s-.671 1.5-1.5 1.5z" fill="#25242e"/></svg></g><!--ITEM: Illustration component 10--><g transform="translate(94.0 2050.0) rotate(0.0 1423.0 5.0)  scale(2.01288073929163 1.8828845791752966)"><svg width="1413.894" height="5.311" viewBox="0.0 0.0 1413.894 5.311"><path d="m1.5 5.311c-.827 0-1.499-.67-1.5-1.497-.001-.829.669-1.501 1.498-1.503l1410.893-2.311c.789-.027 1.5.668 1.502 1.498.001.829-.669 1.501-1.498 1.502l-1410.893 2.311s-.001 0-.002 0z" fill="#25242e"/></svg></g></svg>