<svg xmlns="http://www.w3.org/2000/svg" version="1.1" viewBox="0 0 3000 3000" width="3000" height="3000">
<defs/><!--ITEM: Upload 1--><g transform="translate(131.66666666666669 1633.3333333333335) rotate(0.0 990.8333333333334 500.0)  scale(1.6659254769464777 1.664416929783243)"><svg width="1189.529" height="600.811" viewBox="0.0 0.0 1189.529 600.811"><path d="M291.989,586.708c-3.866,0-7-3.134-7-7v-172.172c0-3.866,3.134-7,7-7s7,3.134,7,7v172.172c0,3.866-3.134,7-7,7Z" style="         fill: #25242e;       "/>
  <rect x="277.819" y="19.196" width="28.34" height="406.723" rx="2.396" ry="2.396" style="         fill: #fff;       "/>
  <path d="M303.382,427.42h-22.785c-2.359,0-4.278-1.919-4.278-4.278V19.196c0-.828,.671-1.5,1.5-1.5h28.34c.829,0,1.5,.672,1.5,1.5V423.142c0,2.359-1.919,4.278-4.277,4.278ZM279.319,20.696V423.142c0,.704,.573,1.278,1.278,1.278h22.785c.704,0,1.277-.573,1.277-1.278V20.696h-25.34Z" style="         fill: #25242e;       "/>
  <rect x="277.819" y="549.858" width="28.34" height="37.061" rx="2.396" ry="2.396" style="         fill: #fff;       "/>
  <path d="M306.159,588.42h-28.34c-.829,0-1.5-.672-1.5-1.5v-34.284c0-2.359,1.919-4.277,4.278-4.277h22.785c2.358,0,4.277,1.919,4.277,4.277v34.284c0,.828-.671,1.5-1.5,1.5Zm-26.84-3h25.34v-32.784c0-.704-.573-1.277-1.277-1.277h-22.785c-.705,0-1.278,.573-1.278,1.277v32.784Z" style="         fill: #25242e;       "/>
  <path d="M118.432,572.38H465.547c14.864,0,26.932,12.068,26.932,26.932H91.5c0-14.864,12.068-26.932,26.932-26.932Z" style="         fill: #fff;       "/>
  <path d="M492.479,600.812H91.5c-.829,0-1.5-.672-1.5-1.5,0-15.677,12.754-28.432,28.431-28.432h159.388c.829,0,1.5,.672,1.5,1.5s-.671,1.5-1.5,1.5H118.431c-13.52,0-24.609,10.604-25.387,23.932H490.935c-.778-13.328-11.868-23.932-25.388-23.932h-173.558c-.829,0-1.5-.672-1.5-1.5s.671-1.5,1.5-1.5h173.558c15.677,0,28.432,12.754,28.432,28.432,0,.828-.671,1.5-1.5,1.5Z" style="         fill: #25242e;       "/>
  <rect x="1.5" y="1.5" width="1186.529" height="42.229" rx="10.635" ry="10.635" style="         fill: #fff;       "/>
  <path d="M1177.393,45.229H12.135C5.444,45.229,0,39.785,0,33.094V12.135C0,5.444,5.444,0,12.135,0H1177.393c6.691,0,12.135,5.444,12.135,12.135v20.959c0,6.691-5.444,12.135-12.135,12.135ZM12.135,3C7.098,3,3,7.098,3,12.135v20.959c0,5.037,4.098,9.135,9.135,9.135H1177.393c5.037,0,9.135-4.098,9.135-9.135V12.135c0-5.037-4.098-9.135-9.135-9.135H12.135Z" style="         fill: #25242e;       "/>
  <path d="M1177.393,45.229c-.829,0-1.5-.672-1.5-1.5s.671-1.5,1.5-1.5c5.037,0,9.135-4.098,9.135-9.135V12.135c0-5.037-4.098-9.135-9.135-9.135-.829,0-1.5-.672-1.5-1.5S1176.565,0,1177.393,0c6.691,0,12.135,5.444,12.135,12.135v20.959c0,6.691-5.444,12.135-12.135,12.135Z" style="         fill: #25242e;       "/>
</svg></g><!--ITEM: Illustration component 2--><g transform="translate(443.33333333333337 611.6666666666667) rotate(0.0 860.8333333333333 513.3333333333334)  scale(1.6664117847092765 1.6642324565313833)"><svg width="1033.158" height="616.901" viewBox="0.0 0.0 1033.158 616.901"><g fill="#bbddfa"><path d="m518.279 304.567h279.38l3.498 57.452h-282.878z"/><path d="m402.596 616.901h118.124l61.707-172.833-71.891-177.443-119.303 334.152c-2.806 7.858 3.02 16.123 11.364 16.123z"/><path d="m465.717 603.193h180.227v13.708h-166.519c-7.566 0-13.708-6.142-13.708-13.708z" transform="matrix(-1 0 -0 -1 1111.661 1220.094)"/></g><path d="m549.838 604.693h-84.121c-.828 0-1.5-.671-1.5-1.5s.672-1.5 1.5-1.5h84.121c.828 0 1.5.671 1.5 1.5s-.672 1.5-1.5 1.5z" fill="#25242e"/><path d="m408.731 279.306-361.684-105.474h-18c-18.05 0-31.727 16.293-28.6 34.07l54.832 311.756c2.442 13.884 14.503 24.009 28.6 24.009h510.949c18.05 0 31.727-16.293 28.6-34.07l-105.932-95.845c-2.442-13.884-94.669-134.445-108.766-134.445z" fill="#bbddfa"/><path d="m539.996 173.832h-492.949c-18.05 0-31.727 16.293-28.6 34.07l54.832 311.756c2.442 13.884 14.503 24.009 28.6 24.009h492.949c18.05 0 31.727-16.293 28.6-34.07l-54.832-311.756c-2.442-13.884-14.503-24.009-28.6-24.009z" fill="#fff"/><path d="m65.965 519.321-7.025-36.887h558.996l.738.129 4.755 27.034c3.127 17.777-10.55 34.07-28.6 34.07h-492.949c-14.098 0-33.473-10.461-35.915-24.345z" fill="#bbddfa"/><path d="m623.427 511.097c-.715 0-1.348-.512-1.476-1.24l-54.833-311.756c-2.32-13.193-13.727-22.769-27.123-22.769h-492.948c-8.159 0-15.847 3.584-21.093 9.833-.533.635-1.479.717-2.113.185-.635-.533-.717-1.479-.184-2.113 5.817-6.93 14.342-10.904 23.39-10.904h492.949c14.855 0 27.505 10.619 30.078 25.249l54.833 311.756c.144.816-.402 1.594-1.218 1.737-.088.016-.175.023-.261.023z" fill="#25242e"/><path d="m592.427 545.238-188.339-.039c-.828 0-1.5-.672-1.5-1.5s.672-1.5 1.5-1.5l188.339.039c.828 0 1.5.672 1.5 1.5s-.672 1.5-1.5 1.5z" fill="#25242e"/><path d="m1005.426 543.666h-333.582c-13.447 0-24.955-9.65-27.3-22.891l-86.181-486.716c-3.007-16.982 10.054-32.559 27.3-32.559h333.582c13.447 0 24.955 9.65 27.3 22.891l86.182 486.717c3.007 16.982-10.054 32.559-27.3 32.559z" fill="#bbddfa"/><path d="m978.491 543.666h-287.647c-13.447 0-24.955-9.65-27.3-22.891l-86.181-486.716c-3.007-16.982 10.054-32.559 27.3-32.559h277.829l96 542.166z" fill="#fff"/><path d="m897.692 3h-308.348c-.828 0-1.5-.671-1.5-1.5s.672-1.5 1.5-1.5h308.348c.828 0 1.5.671 1.5 1.5s-.672 1.5-1.5 1.5z" fill="#25242e"/><path d="m989.917 545.166h-299.073c-.828 0-1.5-.671-1.5-1.5s.672-1.5 1.5-1.5h299.073c.828 0 1.5.671 1.5 1.5s-.672 1.5-1.5 1.5z" fill="#25242e"/><path d="m618.725 376.467c-.714 0-1.346-.512-1.475-1.239l-16.27-91.887c-.145-.816.4-1.594 1.216-1.739.817-.141 1.594.4 1.739 1.215l16.27 91.887c.145.816-.4 1.594-1.216 1.739-.088.016-.177.023-.263.023z" fill="#25242e"/><path d="m322.454 576.096h380.629c3.132 0 5.675 2.543 5.675 5.675v24.247h-391.979v-24.247c0-3.132 2.543-5.675 5.675-5.675z" fill="#bbddfa"/><path d="m297.035 590.521h413.309c14.56 0 26.38 11.82 26.38 26.38h-413.309c-14.56 0-26.38-11.82-26.38-26.38z" fill="#bbddfa"/><path d="m710.344 592.021h-403.567c-.828 0-1.5-.671-1.5-1.5s.672-1.5 1.5-1.5h403.567c.828 0 1.5.671 1.5 1.5s-.672 1.5-1.5 1.5z" fill="#25242e"/></svg></g><!--ITEM: Illustration component 3--><g transform="translate(1473.3333333333335 683.3333333333334) rotate(0.0 260.83333333333326 369.1666666666667)  scale(1.6639713520484918 1.6637110445626695)"><svg width="313.507" height="443.787" viewBox="0.0 0.0 313.507 443.787"><g fill="#bbddfa"><circle cx="68.884" cy="83.888" r="5.026"/><circle cx="75.819" cy="123.32" r="5.026"/><circle cx="82.754" cy="162.749" r="5.026"/><circle cx="117.43" cy="359.9" r="5.026"/><circle cx="74.365" cy="399.328" r="5.026"/><circle cx="81.301" cy="438.761" r="5.026"/><path d="m218.075 8.026h-163.049c-1.657 0-3-1.343-3-3s1.343-3 3-3h163.049c1.657 0 3 1.343 3 3s-1.343 3-3 3z"/><path d="m61.962 47.456c-1.657 0-3-1.343-3-3s1.343-3 3-3h82.837c1.657-.001 3 1.342 3 2.999s-1.343 3-3 3h-82.837z"/><path d="m118.723 86.888c-1.657 0-3-1.343-3-3s1.343-3 3-3l113.173-.003c1.657 0 3 1.343 3 3s-1.343 3-3 3z"/><path d="m125.832 126.319c-1.657 0-3-1.343-3-3s1.343-3 3-3h91.35c1.657 0 3 1.342 3 2.999s-1.343 3-3 3h-91.35z"/><path d="m132.767 165.747c-1.657 0-3-1.343-3-3s1.343-3 3-3l99.129-.002c1.657 0 3 1.343 3 3s-1.343 3-3 3z"/><path d="m310.507 323.546h-99.986c-1.657 0-3-1.343-3-3s1.343-3 3-3h99.986c1.657 0 3 1.343 3 3s-1.343 3-3 3z"/><path d="m300.363 362.9h-132.92c-1.657 0-3-1.343-3-3s1.343-3 3-3h132.92c1.657 0 3 1.343 3 3s-1.343 3-3 3z"/><path d="m190.756 402.328h-66.378c-1.657 0-3-1.343-3-3s1.343-3 3-3h66.378c1.657 0 3 1.343 3 3s-1.343 3-3 3z"/><circle cx="96.578" cy="241.606" r="5.026"/><circle cx="153.513" cy="281.034" r="5.026"/><circle cx="160.448" cy="320.467" r="5.026"/><path d="m189.655 205.252h-99.986c-1.657 0-3-1.343-3-3s1.343-3 3-3h99.986c1.657 0 3 1.343 3 3s-1.343 3-3 3z"/><path d="m206.271 244.606h-59.681c-1.657 0-3-1.343-3-3s1.343-3 3-3h59.681c1.657 0 3 1.343 3 3s-1.343 3-3 3z"/><path d="m269.904 284.034h-66.378c-1.657 0-3-1.343-3-3s1.343-3 3-3h66.378c1.657 0 3 1.343 3 3s-1.343 3-3 3z"/><path d="m281.229 441.761h-149.915c-1.657 0-3-1.343-3-3s1.343-3 3-3h149.916c1.657 0 3 1.343 3 3s-1.343 3-3 3z"/><circle cx="5.026" cy="5.026" r="5.026"/><circle cx="11.949" cy="44.459" r="5.026"/><circle cx="39.655" cy="202.172" r="5.026"/></g></svg></g><!--ITEM: Illustration component 4--><g transform="translate(836.6666666666667 863.3333333333334) rotate(0.0 911.6666666666666 885.0)  scale(1.6654929052133582 1.6666635279406254)"><svg width="1094.771" height="1062.002" viewBox="0.0 0.0 1094.771 1062.002"><path d="m174.721 853.284-40.689 82.158s96.294 116.358 112.537 56.336c18.088-21.37 64.405-75.973 86.405-99.792 37.302-40.385-119.659-116.629-158.252-38.703z" fill="#eda38c"/><path d="m136.786 917.109-9.57 13.92s-55.2-1.117-64.713-1.402c-27.365-.819-40.157 2.071-48.063 21.525l62.705 25.493 162.532 65.886c8.365-19.131 14.267-38.1 14.259-56.684 0 0 8.721-5.175 15.453-8.915 8.164-4.536-.151-17.632-9.699-10.144-2.815 2.207-6.288 4.952-9.167 7.232-3.632 2.877-8.321 4.108-12.951 3.408l-29.122-4.408c-9.268-1.403-17.949-5.45-24.975-11.644l-25.784-22.731 5.559-7.475c3.523-4.737 1.806-11.519-3.579-14.135l-7.828-3.803c-5.335-2.592-11.744-.942-15.057 3.877z" fill="#f0e760"/><path d="m133.948 955.463c-1.264 0-2.534-.096-3.802-.292l-59.593-9.19c-8.228-1.269-14.507-8.161-14.931-16.388-.043-.827.594-1.533 1.421-1.575.829-.051 1.533.593 1.575 1.421.351 6.814 5.563 12.524 12.392 13.578l59.593 9.19c7.606 1.172 15.338-1.73 20.18-7.576l5.752-6.943c.528-.638 1.474-.727 2.112-.198s.727 1.474.198 2.112l-5.752 6.943c-4.703 5.678-11.796 8.918-19.146 8.918z" fill="#25242e"/><path d="m7.677 969.351 62.16 25.271 161.012 65.394c5.183 1.65 10.692-1.155 12.306-6.266 1.614-5.111-1.28-10.591-6.462-12.241l-160.086-65.083-61.621-25.052c-5.039-2.049-10.76.315-12.778 5.279-2.018 4.964.431 10.649 5.47 12.698z" fill="#fff"/><path d="m233.887 1061.993c-1.168 0-2.344-.182-3.493-.547-.037-.012-.073-.025-.109-.04l-161.012-65.394-62.16-25.271c-2.804-1.14-5.004-3.289-6.194-6.052-1.193-2.77-1.229-5.825-.1-8.601s3.285-4.939 6.073-6.091c2.78-1.148 5.855-1.153 8.66-.013l221.655 90.114c5.924 1.92 9.234 8.233 7.38 14.104-.893 2.829-2.843 5.143-5.49 6.515-1.633.847-3.412 1.276-5.208 1.276zm-2.53-3.389c2.135.665 4.391.47 6.357-.55 1.934-1.003 3.359-2.692 4.01-4.755 1.363-4.315-1.099-8.963-5.487-10.36-.037-.012-.074-.025-.11-.04l-221.707-90.135c-2.07-.843-4.337-.839-6.384.006-2.039.842-3.616 2.422-4.439 4.448s-.796 4.258.077 6.284c.876 2.034 2.499 3.618 4.568 4.459l62.16 25.271 160.956 65.371z" fill="#25242e"/><path d="m782.827 333.908c-24.509 33.527-24.103 89.459-8.12 128.988l49.889-.223 1.833-132.161-43.603 3.395z" fill="#f05467"/><path d="m225.297 425.747c4.566 9.499 46.252 38.153 102.025 35.841 49.701-13.616 45.129-136.678-27.182-125.903-13.507 2.013-36.23 5.204-60.009 10.844-35.313 8.376-25.655 56.705-14.834 79.218z" fill="#eda38c"/><path d="m300.059 343.767c-24.478-2.494-68.363-3.598-103.017 22.156-25.291 18.796-10.821 41.173 11.651 34.223 12.939-4.001 22.006-6.826 32.777-8.765 11.022-1.984 21.492.582 33.839 3.89 12.023 3.221 49.228-49.011 24.75-51.505z" fill="#eda38c"/><path d="m271.823 356.34c-24.42-3.009-68.272-5.037-103.461 19.982-25.681 18.259-11.686 40.936 10.928 34.461 13.02-3.728 22.144-6.361 32.954-8.073 11.061-1.752 21.475 1.035 33.75 4.602 11.952 3.474 50.249-47.963 25.829-50.973z" fill="#eda38c"/><path d="m188.721 366.5c-.581 0-1.134-.339-1.378-.907-.328-.761.023-1.644.784-1.971 16.889-7.278 36.422-10.877 58.091-10.693.828.007 1.494.684 1.487 1.513-.007.824-.677 1.487-1.5 1.487h-.013c-21.236-.169-40.374 3.336-56.878 10.448-.194.083-.395.123-.593.123z" fill="#25242e"/><path d="m264.443 385.486c-23.979-5.515-67.387-12.06-104.971 9.191-27.429 15.509-15.851 39.511 7.311 35.406 13.335-2.364 22.683-4.04 33.612-4.627 11.183-.6 21.254 3.247 33.094 8.063 11.53 4.689 54.933-42.518 30.955-48.033z" fill="#eda38c"/><path d="m151.246 402.058c-.41 0-.819-.167-1.115-.497-.554-.615-.505-1.563.11-2.118.171-.154 4.227-3.791 8.523-6.09 23.892-12.782 49.869-17.386 79.42-14.072.823.092 1.416.834 1.323 1.658s-.834 1.417-1.658 1.324c-28.926-3.245-54.332 1.249-77.67 13.736-3.968 2.123-7.891 5.638-7.93 5.673-.287.258-.646.385-1.003.385z" fill="#25242e"/><path d="m994.037 446.888c-13.545-4.454-116.212-47.999-116.212-47.999-54.411-56.57-6.078-176.871 37.554-158.517 40.806 17.92 72.01 34.395 140.154 77.457 53.647 33.901 52.374 110.971-4.37 135.722-12.188 5.316-30.869 1.971-57.126-6.663z" fill="#f05467"/><path d="m565.24 879.903c48.389 59.206 91.265 111.43 91.265 111.43s129.533 24.79 123.921-30.295c-9.039-19.057-39.8-83.913-55.918-115.666-15.552-30.639-216.218-35.149-159.269 34.531z" fill="#eda38c"/><path d="m424.484 544.026c-37.934 41.767-47.856 111.445-13.498 184.497 10.593 22.523 30.68 81.191 80.068 140.217 23.32 27.871 47.843 16.476 91.822 70.335l141.633-93.703c-8.953-20.06-17.507-39.603-22.784-52.587-12.939-31.831-27.53-56.892-44.03-78.763-16.976-22.502-177.332-231.52-233.21-169.997z" fill="#56b1f0"/><path d="m602.695 927.487c-.435 0-.866-.188-1.163-.551-22.936-28.089-40.311-38.131-54.797-45.339-.742-.369-1.044-1.27-.675-2.011.369-.742 1.269-1.044 2.011-.675 14.766 7.347 32.472 17.577 55.785 46.127.524.642.428 1.586-.213 2.111-.279.227-.614.338-.948.338z" fill="#25242e"/><path d="m622.049 914.678c-.435 0-.866-.188-1.163-.551-9.368-11.473-18.406-20.685-27.631-28.162-.644-.521-.742-1.466-.221-2.109.522-.643 1.466-.743 2.11-.221 9.385 7.607 18.566 16.961 28.065 28.595.524.642.428 1.586-.213 2.111-.279.227-.614.338-.948.338z" fill="#25242e"/><path d="m657.542 891.177c-.488 0-.966-.237-1.254-.675-53.757-81.653-156.406-237.007-160.95-241.783-.583-.469-.737-1.312-.331-1.962.438-.702 1.364-.917 2.067-.478 3.181 1.987 124.586 186.171 161.72 242.574.456.692.264 1.622-.428 2.078-.254.167-.541.247-.823.247zm-162.061-242.356.003.002z" fill="#25242e"/><path d="m636.617 978.002 4.91 5.185s-43.823 16.543-52.744 19.86c-25.661 9.542-36.425 17.033-36.427 38.032l67.689.017 175.379-.133c.549-20.872-1.122-40.668-8.125-57.883 0 0 3.523-11.253 6.228-18.463 3.281-8.744-11.537-13.334-13.96-1.444-.714 3.505-1.582 7.845-2.298 11.448-.903 4.544-3.747 5.724-8.3 6.818l-33.339 8.006c-6.053 1.454-12.396 1.133-18.272-.923l-44.732-9.749-10.97-17.234c-2.464-5.364-9.238-7.114-14.118-3.647l-7.094 5.041c-4.835 3.436-6.465 9.85-3.828 15.07z" fill="#f0e760"/><path d="m598.324 1015.646c-6.708 0-13.023-3.828-15.928-10.04-.351-.75-.027-1.643.724-1.994.75-.352 1.643-.027 1.994.724 2.89 6.18 9.866 9.509 16.591 7.915l58.67-13.916c7.487-1.776 13.559-7.375 15.845-14.613l1.252-3.966c.25-.79 1.092-1.231 1.882-.979.79.25 1.228 1.092.979 1.882l-1.252 3.966c-2.602 8.239-9.504 14.611-18.013 16.629l-58.67 13.916c-1.357.322-2.723.477-4.073.477z" fill="#25242e"/><path d="m552.939 1060.485 67.101.017 173.785-.017c5.423-.422 9.471-5.095 9.042-10.437-.429-5.342-5.172-9.33-10.594-8.908l-172.81-.044-66.519-.017c-5.439-.001-9.85 4.342-9.851 9.7-.001 5.359 4.407 9.704 9.847 9.705z" fill="#fff"/><path d="m620.041 1062.002-67.102-.017c-6.258-.001-11.347-5.028-11.346-11.206.002-6.176 5.093-11.2 11.349-11.2h.003l239.273.06c6.213-.453 11.653 4.153 12.145 10.288.237 2.957-.698 5.835-2.634 8.103-1.971 2.31-4.737 3.712-7.787 3.95-.039.003-.078.004-.116.004l-173.785.017zm-67.101-3.017 67.101.017 173.724-.017c2.228-.188 4.244-1.217 5.682-2.902 1.415-1.658 2.099-3.758 1.926-5.915-.362-4.511-4.401-7.895-8.983-7.533-.039.003-.078.004-.117.004l-239.329-.06h-.002c-4.603 0-8.348 3.678-8.349 8.201 0 4.523 3.743 8.203 8.347 8.205z" fill="#25242e"/><path d="m831.376 493.17s-284.37 9.596-329.891 16.527c-60.177 9.163-94.938 42.369-104.629 83.46-25.2 106.85 107.039 96.645 139.921 97.079s221.55 3.509 306.082-1.578c131.624-7.921 156.593-108.19 139.557-197.66-17.036-89.469-151.039 2.171-151.039 2.171z" fill="#56b1f0"/><path d="m632.238 71.21-24.391 5.11c.562-30.089 13.919-49.843 46.716-53.895z" fill="#25242e"/><path d="m633.769 98.154c-7.578-44.388 8.532-79.738 56.869-84.306 50.014-4.727 75.597 27.327 80.04 71.368 9.75-16.144 29.332-5.873 30.831 10.054 1.109 11.784-10.322 25.153-30.241 20.054-9.462 40.659-48.302 60.657-85.154 59.444-45.119-1.485-75.493-41.161-52.344-76.613z" fill="#eda38c"/><path d="m737.857 48.854s4.167 16.343 9.427 31.77c7.374 21.626 23.71 16.777 23.394 4.591-1.56-20.276-8.694-36.877-19.91-50.788l-12.912 14.427z" fill="#25242e"/><path d="m790.169 102.07c-.311 0-.625-.097-.895-.297l-12.433-9.255c-.665-.495-.802-1.434-.307-2.099.495-.664 1.435-.802 2.099-.308l12.433 9.255c.665.495.802 1.435.307 2.099-.294.396-.746.604-1.204.604z" fill="#25242e"/><path d="m779.831 103.047c-.317 0-.637-.1-.909-.308-.658-.502-.784-1.444-.282-2.103l9.282-12.153c.503-.658 1.444-.785 2.103-.281.658.502.784 1.444.282 2.103l-9.282 12.153c-.295.386-.742.589-1.193.589z" fill="#25242e"/><path d="m695.204 86.083c-.608 0-1.18-.373-1.406-.976-2.946-7.885-10.437-14.35-20.529-11.013-.786.261-1.635-.167-1.895-.954s.167-1.635.954-1.895c11.923-3.94 20.944 3.88 24.281 12.812.29.776-.104 1.64-.88 1.93-.173.064-.35.095-.525.095z" fill="#25242e"/><path d="m680.203 84.463c.851 7.419 4.23 13.126 7.547 12.745 3.318-.38 5.318-6.703 4.467-14.123-.34-2.966-1.084-5.659-2.067-7.798-3.273-2.024-8.033-3.387-8.435-2.666-2.338 4.192-1.79 9.418-1.512 11.841z" fill="#25242e"/><path d="m652.183 88.535c-.608 0-1.18-.373-1.406-.976-2.635-7.054-9.327-13.376-18.333-11.594-.813.161-1.602-.368-1.762-1.181s.368-1.602 1.181-1.763c10.734-2.118 18.646 5.245 21.725 13.487.29.776-.104 1.64-.88 1.93-.173.064-.35.095-.525.095z" fill="#25242e"/><path d="m637.182 86.915c.851 7.419 4.23 13.126 7.547 12.745 3.318-.38 5.318-6.703 4.467-14.123-.34-2.966-1.084-5.659-2.067-7.798-3.273-2.024-8.033-3.387-8.435-2.666-2.338 4.192-1.79 9.418-1.512 11.841z" fill="#25242e"/><path d="m667.895 121.525c.601-11.492-23.996-12.485-23.591-.964-2.193 4.741 1.301 12.287 9.961 13.245 8.347.924 16.709-6.108 13.63-12.281z" fill="#c27065"/><path d="m656.751 124.654c-4.696 0-9.254-.774-13.13-2.757-.738-.377-1.029-1.281-.652-2.019s1.281-1.029 2.019-.652c10.905 5.581 28.707.225 36.598-3.387.753-.346 1.643-.014 1.988.739s.014 1.644-.74 1.988c-6.044 2.767-16.357 6.087-26.083 6.087z" fill="#25242e"/><path d="m661.257 18.17c48.548-37.286 101.979-13.148 131.037 35.81l-80.542 5.701c-6.78-5.797-14.257-11.603-18.369-14.254l9.056 15.629-11.094.874c-8.776-6.343-16.665-14.276-24.098-23.025-.106 9.048 2.545 17.178 8.32 24.268l-23.542 1.854c-10.451-8.681-12.983-20.383-7.596-35.106-24.26 6.371-33.862 27.57-32.563 45.559l-6.942 1.454c-9.287-29.722 6.35-70.398 56.333-58.763z" fill="#25242e"/><path d="m736.394 59.881c-.775 0-1.432-.596-1.494-1.382-.065-.826.552-1.548 1.378-1.613l33.605-2.646c.825-.064 1.548.552 1.613 1.378s-.552 1.548-1.378 1.613l-33.605 2.646c-.04.003-.08.004-.119.004z" fill="#fff"/><path d="m611.863 76.979c-.78 0-1.438-.603-1.495-1.392-1.349-18.696 8.541-40.516 33.678-47.117.802-.212 1.622.269 1.832 1.07s-.268 1.621-1.07 1.832c-23.473 6.165-32.708 26.541-31.448 44 .06.826-.562 1.544-1.388 1.604-.037.002-.073.004-.109.004z" fill="#fff"/><path d="m823.075 323.825c27.701.725 164.096 6.128 164.096 6.128s120.171 79.946 82.947 111.815c-14.582 12.485-35.642 20.272-63.202 19.544-90.371-2.387-193.177 1.361-193.177 1.361-35.999-31.614-22.06-139.67 9.336-138.848z" fill="#f05467"/><path d="m915.378 240.372c-31.936-15.37-57.586-23.532-86.277-28.739-36.945-6.705-87.826-11.186-126.15-10.325-30.781.692-74.318 3.794-120.076 36.849-15.067 10.884 71.994 109.844 71.994 109.844l195.397 12.436s90.787-107.707 65.112-120.064z" fill="#f05467"/><path d="m761.376 493.17s-248.961 10.393-294.799 14.764c-128.242 12.231-179.034 117.544-191.913 143.548l-99.943 201.801c29.038 15.426 135.02 52.086 163.126 62.702 51.296-63.649 78.49-44.028 108.998-101.947 35.451-67.303 45.957-91.667 57.706-123.271 83.547 1.145 193.782 1.108 268.306.21 132.692-1.598 156.593-110.509 139.557-199.978s-151.039 2.171-151.039 2.171z" fill="#56b1f0"/><path d="m446.845 815.539c-.236 0-.475-.056-.698-.173-.733-.386-1.014-1.293-.628-2.026 34.726-65.927 45.429-90.283 57.627-123.095.221-.595.818-.969 1.427-.978 78.691 1.08 189.006 1.166 268.267.21 49.344-.594 86.781-16.085 111.271-46.044 28.763-35.186 38.542-90.644 26.831-152.153-.155-.814.379-1.599 1.193-1.754.814-.153 1.599.379 1.754 1.193 11.878 62.384 1.871 118.738-27.455 154.613-25.078 30.678-63.284 46.54-113.557 47.146-78.93.952-188.645.871-267.287-.196-12.094 32.444-22.962 57.047-57.416 122.457-.269.51-.79.801-1.328.801z" fill="#25242e"/><path d="m318.164 910.102c-.33 0-.663-.108-.94-.332-.645-.52-.747-1.464-.227-2.109 24.582-30.501 43.734-42.043 59.123-51.317.71-.427 1.632-.199 2.059.51.428.71.199 1.631-.51 2.059-15.187 9.152-34.087 20.542-58.336 50.63-.296.368-.731.559-1.169.559z" fill="#25242e"/><path d="m298.336 903.052c-.33 0-.663-.108-.94-.332-.645-.52-.747-1.464-.227-2.109 9.604-11.916 19.023-21.765 28.798-30.11.63-.538 1.577-.462 2.115.167.538.63.463 1.577-.167 2.115-9.631 8.224-18.924 17.942-28.409 29.712-.296.368-.731.559-1.169.559z" fill="#25242e"/><path d="m239.866 881.696c-.224 0-.45-.05-.665-.156-.742-.368-1.046-1.268-.678-2.01 26.483-53.474 48.446-96.709 61.568-122.542 6.21-12.225 10.697-21.058 13.229-26.17l.422-.852c6.891-13.93 23.03-46.551 53.519-77.462 38.136-38.665 84.961-60.891 139.174-66.061 23.168-2.21 63.784-4.872 103.063-7.446 38.512-2.524 78.335-5.134 101.739-7.319 42.043-3.923 65.068-27.896 70.388-73.289.096-.823.841-1.411 1.664-1.315s1.412.842 1.315 1.665c-5.434 46.362-30.025 71.908-73.089 75.927-23.446 2.188-63.29 4.799-101.822 7.325-39.257 2.573-79.851 5.233-102.974 7.439-83.642 7.978-147.664 55.708-190.289 141.867l-.422.853c-2.539 5.127-7.029 13.965-13.243 26.198-13.12 25.827-35.078 69.054-61.554 122.514-.262.529-.793.835-1.345.835z" fill="#25242e"/><path d="m729.645 508.089c81.06 58.972 184.691 75.268 255.008 63.583 2.247-14.377 3.01-28.997 2.209-43.874-9.159-.702-257.218-19.709-257.218-19.709z" fill="#f05467"/><path d="m920.463 304.166s47.788 93.702 57.24 117.191 62.504 34.462 9.159 106.441c-79.676 24.794-186.82 6.821-288.517-31.913-37.032-12.097-15.974-40.79-23.423-57.978-9.503-21.926-43.225-109.702-43.225-109.702l288.766-24.04z" fill="#f05467"/><path d="m300.14 335.685c-34.866 23.832-36.908 98.357 6.096 125.335 6.266.571 33.712 2.129 55.673 3.431l-18.167-132.161-43.603 3.395z" fill="#f05467"/><path d="m357.144 320.719c12.006-1.711 131.017.327 131.017.327l94.714-82.889c71.065-33.325 156.817 77.834 125.405 113.243-35.222 32.809-50.256 46.1-80.988 71.034-60.586 49.157-108.667 42.24-161.81 42.24-90.403 0-117.873 0-117.873 0-62.127-20-57.02-134.468 9.533-143.954z" fill="#f05467"/><path d="m452.408 348.713c-.462 0-.918-.213-1.212-.614-.489-.668-.344-1.607.324-2.096l35.755-26.168c.669-.489 1.607-.344 2.096.325s.344 1.607-.324 2.096l-35.755 26.168c-.267.195-.577.29-.885.29z" fill="#25242e"/><path d="m824.358 210.786s6.395 11.04 9.007 16.153c3.668 7.18 3.668 15.031-1.885 22.308-3.121 4.09-10.665 11.955-10.665 11.955s-49.787-46.357-75.848-70.12c-35.085-31.991-51.294-1.146-60.418 11.269 0 0 10.504-.409 18.433-.087 10.347 8.394 23.627 44.449 30.594 60.745 3.398 7.948 8.289 15.169 14.414 21.268l82.845 63.447c10.199 7.811 25.05 3.433 29.381-8.662l25.743-71.891c4.252-11.874 1.235-25.175-7.821-33.953-8.169-7.917-17.614-15.633-29.011-26.728-14.483-14.101-34.523-30.072-57.639-.363 14.885 1.418 32.869 4.658 32.869 4.658z" fill="#f05467"/><g fill="#25242e"><path d="m832.645 273.695c-.366 0-.732-.133-1.021-.401l-11.83-10.994c-.607-.564-.642-1.513-.078-2.12.565-.606 1.513-.641 2.12-.078l11.83 10.994c.607.564.642 1.513.078 2.12-.296.318-.697.479-1.099.479z"/><path d="m820.816 262.702c-.366 0-.733-.133-1.022-.402-.498-.463-50.08-46.624-75.837-70.109-.612-.558-.656-1.507-.098-2.119s1.507-.656 2.119-.098c23.64 21.555 67.333 62.195 74.772 69.119 2.157-2.283 7.18-7.666 9.538-10.756 6.102-7.995 4.315-15.678 1.742-20.715-2.216-4.337-7.252-13.106-8.621-15.48-3.423-.601-19.034-3.278-32.062-4.52-.825-.079-1.429-.811-1.351-1.635s.812-1.439 1.635-1.351c14.776 1.408 32.812 4.642 32.992 4.675.434.078.811.343 1.032.724.262.452 6.445 11.133 9.045 16.222 4.192 8.206 3.472 16.693-2.028 23.9-3.136 4.11-10.464 11.76-10.775 12.083-.294.307-.688.461-1.083.461z"/><path d="m842.295 353.15c-4.417 0-8.731-1.447-12.371-4.235l-82.845-63.448c-.052-.04-.1-.082-.146-.128-6.286-6.26-11.243-13.574-14.735-21.741-1.217-2.846-2.652-6.356-4.17-10.072-6.959-17.025-17.421-42.624-25.617-49.784-7.714-.278-17.701.103-17.803.107-.83.008-1.525-.613-1.557-1.441s.613-1.525 1.44-1.557c.105-.004 10.655-.407 18.552-.087.323.013.633.13.884.334 8.845 7.176 19.267 32.674 26.877 51.293 1.514 3.704 2.944 7.204 4.152 10.027 3.327 7.782 8.045 14.754 14.025 20.726l82.768 63.388c4.477 3.429 10.147 4.48 15.555 2.886 5.409-1.594 9.601-5.554 11.502-10.863l25.743-71.891c4.061-11.34 1.135-24.046-7.453-32.37-3.665-3.552-7.645-7.114-11.858-10.884-5.099-4.563-10.879-9.736-17.155-15.846-.594-.578-.606-1.527-.028-2.121.578-.593 1.528-.606 2.121-.028 6.231 6.066 11.985 11.216 17.063 15.76 4.236 3.791 8.238 7.372 11.946 10.965 9.432 9.141 12.646 23.09 8.189 35.536l-25.743 71.891c-2.228 6.221-7.14 10.86-13.478 12.729-1.939.572-3.908.854-5.856.854z"/><path d="m627.294 423.934c-.437 0-.869-.189-1.166-.555-.522-.644-.424-1.588.22-2.11 29.784-24.165 44.907-37.43 80.91-70.967.606-.564 1.555-.53 2.12.075.565.606.531 1.555-.075 2.12-36.064 33.594-51.217 46.884-81.065 71.102-.278.225-.612.335-.944.335z"/><path d="m347.611 466.174c-.152 0-.307-.023-.46-.073-15.358-4.944-27.656-15.844-35.563-31.521-7.124-14.123-10.237-31.418-8.766-48.699 2.343-27.521 17.92-61.488 54.11-66.647.817-.12 1.58.453 1.697 1.273s-.453 1.58-1.273 1.697c-34.446 4.91-49.295 37.508-51.544 63.932-2.534 29.771 9.609 66.599 42.259 77.11.789.254 1.222 1.099.968 1.887-.205.636-.794 1.041-1.427 1.041z"/><path d="m903.883 540.708c-75.104 0-151.982-22.819-206.071-43.42-.774-.295-1.163-1.162-.868-1.936s1.161-1.162 1.936-.868c87.902 33.479 169.445 47.953 235.819 41.853.824-.083 1.555.532 1.631 1.356s-.531 1.555-1.356 1.631c-10.285.945-20.671 1.384-31.09 1.384z"/><path d="m962.954 535.321c-.702 0-1.329-.495-1.47-1.21-.16-.813.368-1.602 1.181-1.762 8.033-1.585 15.864-3.549 23.283-5.838 38.798-52.569 20.145-71.182 3.681-87.607-5.57-5.557-10.831-10.806-13.318-16.986-7.183-17.851-37.105-77.415-49.637-102.195-.374-.739-.078-1.642.662-2.015.74-.375 1.642-.078 2.016.662 15.587 30.823 42.777 85.116 49.743 102.429 2.258 5.611 7.307 10.649 12.654 15.982 16.505 16.466 37.046 36.959-3.681 91.911-.189.256-.456.445-.76.539-7.66 2.383-15.755 4.423-24.061 6.063-.098.019-.196.029-.292.029z"/><path d="m504.552 692.267h-32.683c-.828 0-1.5-.671-1.5-1.5s.672-1.5 1.5-1.5h32.683c.828 0 1.5.671 1.5 1.5s-.672 1.5-1.5 1.5z"/><path d="m677.202 267.431c-.515 0-1.017-.266-1.296-.743-.274-.467-27.783-46.73-64.059-44.361-.825.045-1.541-.573-1.594-1.4-.054-.827.573-1.54 1.399-1.594 38.136-2.469 65.689 43.867 66.843 45.841.418.715.177 1.634-.538 2.052-.238.139-.499.206-.756.206z"/><path d="m917.156 271.313c-.052 0-.106-.002-.159-.008-.824-.087-1.421-.826-1.334-1.649l2.798-26.479c.087-.823.821-1.424 1.649-1.334.824.087 1.421.826 1.334 1.649l-2.798 26.479c-.081.77-.732 1.342-1.49 1.342z"/></g></svg></g><!--ITEM: Illustration component 5--><g transform="translate(1878.3333333333335 1385.0) rotate(0.0 491.66666666666674 624.1666666666667)  scale(1.6642408241094904 1.665641485458661)"><svg width="590.86" height="749.461" viewBox="0.0 0.0 590.86 749.461"><path d="m54.998 732.847c-.451 0-.908-.044-1.368-.135-3.792-.751-6.257-4.434-5.506-8.227 4.615-23.296 15.622-44.785 31.832-62.141 16.21-17.357 36.896-29.805 59.824-35.999l88.655-23.951c3.731-1.009 7.575 1.199 8.583 4.932 1.008 3.732-1.2 7.575-4.932 8.583l-88.655 23.951c-41.886 11.316-73.144 44.784-81.574 87.345-.66 3.334-3.586 5.642-6.859 5.642z" fill="#25242e"/><path d="m405.522 732.847c-3.274 0-6.199-2.308-6.859-5.641-8.43-42.56-39.688-76.029-81.574-87.345l-88.655-23.951c-3.732-1.008-5.94-4.851-4.932-8.583 1.009-3.732 4.852-5.941 8.583-4.932l88.655 23.951c22.927 6.194 43.614 18.642 59.824 35.999s27.217 38.845 31.832 62.141c.751 3.792-1.714 7.475-5.506 8.227-.459.09-.917.134-1.368.134z" fill="#25242e"/><path d="m230.26 616.152c-3.866 0-7-3.134-7-7v-172.172c0-3.866 3.134-7 7-7s7 3.134 7 7v172.172c0 3.866-3.134 7-7 7z" fill="#25242e"/><path d="m218.507 540.606h23.506c1.335 0 2.417-1.082 2.417-2.417v-128.525h-28.34v128.525c0 1.335 1.082 2.417 2.417 2.417z" fill="#fff"/><path d="m364.43 1.5h178.508c32.199 0 54.602 32.004 43.581 62.258l-129.249 354.808c-4.847 13.305-17.496 22.16-31.657 22.16h-253.651l148.887-408.719c6.672-18.317 24.086-30.507 43.581-30.507z" fill="#fff"/><path d="m242.013 542.106h-23.506c-2.16 0-3.917-1.757-3.917-3.917v-128.525c0-.828.671-1.5 1.5-1.5h28.341c.829 0 1.5.672 1.5 1.5v128.525c-.001 2.16-1.758 3.917-3.918 3.917zm-24.424-130.942v127.025c0 .506.412.917.917.917h23.506c.506 0 .917-.411.917-.917v-127.025z" fill="#25242e"/><path d="m314.43 1.5h178.508c32.199 0 54.602 32.004 43.581 62.258l-137.321 376.968h-277.236l148.887-408.719c6.672-18.317 24.086-30.507 43.581-30.507z" fill="#fff"/><path d="m32.562 440.726h394.635c17.155 0 31.062-13.907 31.062-31.062 0-17.155-13.907-31.062-31.062-31.062h-394.635c-17.155 0-31.062 13.907-31.062 31.062 0 17.155 13.907 31.062 31.062 31.062z" fill="#fff"/><path d="m216.09 609.045c0 15.605 28.34 15.605 28.34 0v-27.349c0-1.335-1.082-2.417-2.417-2.417h-23.506c-1.335 0-2.417 1.082-2.417 2.417z" fill="#fff"/><circle cx="405.529" cy="722.182" fill="#fff" r="25.779"/><circle cx="55.067" cy="721.998" fill="#fff" r="25.779"/><g fill="#25242e"><path d="m257.686 442.226h-72.529c-.829 0-1.5-.672-1.5-1.5s.671-1.5 1.5-1.5h72.529c.829 0 1.5.672 1.5 1.5s-.671 1.5-1.5 1.5z"/><path d="m427.198 442.226h-394.636c-17.955 0-32.562-14.607-32.562-32.562s14.607-32.562 32.562-32.562h110.98l125.897-345.608c6.863-18.838 24.943-31.494 44.991-31.494h228.508c15.843 0 30.141 7.444 39.227 20.423s11.187 28.961 5.764 43.848l-129.249 354.808c-.632 1.734-1.415 3.444-2.327 5.082-5.506 11.119-16.691 18.065-29.155 18.065zm-394.636-62.124c-16.301 0-29.562 13.261-29.562 29.562s13.261 29.562 29.562 29.562h394.636c11.316 0 21.471-6.307 26.5-16.46.869-1.563 1.585-3.128 2.163-4.713l129.248-354.808c5.083-13.954 3.113-28.935-5.403-41.101s-21.918-19.144-36.768-19.144h-228.508c-18.792 0-35.739 11.863-42.172 29.52l-126.256 346.595c-.215.592-.779.987-1.409.987z"/><path d="m230.26 622.249c-7.787 0-15.67-4.535-15.67-13.204v-27.349c0-2.16 1.757-3.917 3.917-3.917h23.506c2.16 0 3.917 1.757 3.917 3.917v27.349c0 8.668-7.883 13.204-15.67 13.204zm-11.753-41.47c-.506 0-.917.411-.917.917v27.349c0 7.01 6.568 10.204 12.67 10.204 6.103 0 12.67-3.193 12.67-10.204v-27.349c0-.506-.412-.917-.917-.917z"/><path d="m405.529 749.461c-15.042 0-27.28-12.238-27.28-27.28s12.238-27.279 27.28-27.279 27.279 12.238 27.279 27.279c0 15.043-12.237 27.28-27.279 27.28zm0-51.559c-13.388 0-24.28 10.892-24.28 24.279 0 13.388 10.892 24.28 24.28 24.28s24.279-10.892 24.279-24.28c0-13.387-10.891-24.279-24.279-24.279z"/><path d="m55.067 749.277c-15.042 0-27.279-12.238-27.279-27.279s12.237-27.279 27.279-27.279 27.279 12.238 27.279 27.279-12.237 27.279-27.279 27.279zm0-51.558c-13.388 0-24.279 10.892-24.279 24.279s10.892 24.279 24.279 24.279 24.279-10.892 24.279-24.279-10.891-24.279-24.279-24.279z"/><path d="m140.675 442.226c-.829 0-1.5-.672-1.5-1.5s.671-1.5 1.5-1.5h23.46c11.937 0 22.604-7.571 26.545-18.839l135.988-388.875c6.869-18.856 24.949-31.512 44.998-31.512h50c.829 0 1.5.672 1.5 1.5s-.671 1.5-1.5 1.5h-50c-18.792 0-35.74 11.863-42.172 29.52l-135.982 388.858c-4.361 12.47-16.167 20.848-29.377 20.848z"/></g></svg></g><!--ITEM: Illustration component 6--><g transform="translate(443.33333333333337 363.33333333333337) rotate(0.0 390.8333333333333 210.83333333333331)  scale(1.6658142244196288 1.6658962719480186)"><svg width="469.24" height="253.117" viewBox="0.0 0.0 469.24 253.117"><path d="m415.572 253.117h-361.055c-10.769 0-20.038-7.68-22.04-18.261l-32.08-169.542c-1.246-6.584.492-13.321 4.768-18.481 4.275-5.161 10.571-8.12 17.272-8.12h361.055c10.769 0 20.038 7.68 22.04 18.261l32.079 169.542c1.246 6.584-.492 13.32-4.767 18.48-4.275 5.161-10.571 8.12-17.273 8.12zm-393.135-211.404c-5.805 0-11.259 2.564-14.962 7.034-3.704 4.47-5.209 10.305-4.13 16.009l32.079 169.542c1.734 9.166 9.763 15.818 19.092 15.818h361.056c5.805 0 11.259-2.564 14.963-7.034s5.209-10.305 4.129-16.009l-32.079-169.542c-1.734-9.166-9.764-15.819-19.092-15.819h-361.056z" fill="#f0e760"/><path d="m448.303 211.404h-361.055c-10.059 0-18.696-7.156-20.566-17.04l-32.079-169.542c-2.44-12.891 7.446-24.822 20.566-24.822h361.055c10.059 0 18.696 7.156 20.566 17.04l32.079 169.543c2.439 12.891-7.446 24.822-20.566 24.822z" fill="#f0e760"/><g fill="#fff"><path d="m145.478 127.149h-42.894l-8.292-42.894h42.894z"/><path d="m118.046 85.755c-.352 0-.705-.123-.99-.373-.622-.547-.684-1.495-.137-2.117l36.615-41.68c.285-.324.695-.51 1.127-.51h200.945c.828 0 1.5.671 1.5 1.5s-.672 1.5-1.5 1.5h-200.266l-36.167 41.17c-.297.338-.711.51-1.127.51z"/><path d="m380.012 170.329h-200.945c-.338 0-.665-.114-.93-.323l-52.729-41.68c-.65-.514-.76-1.457-.247-2.107.514-.65 1.457-.76 2.107-.247l52.32 41.357h200.424c.828 0 1.5.671 1.5 1.5s-.672 1.5-1.5 1.5z"/><path d="m201.7 64.022h-42.893l-8.292-42.894h42.894z"/><path d="m293.237 64.022h-42.894l-8.291-42.894h42.893z"/><path d="m384.773 64.022h-42.893l-8.292-42.894h42.894z"/><path d="m226.106 190.276h-42.894l-8.291-42.894h42.893z"/><path d="m317.642 190.276h-42.893l-8.292-42.894h42.894z"/><path d="m409.179 190.276h-42.894l-8.291-42.894h42.893z"/></g></svg></g><!--ITEM: Illustration component 7--><g transform="translate(545.0 951.6666666666667) rotate(0.0 390.83333333333337 205.83333333333337)  scale(1.6654202647201493 1.6690249245560194)"><svg width="469.351" height="246.651" viewBox="0.0 0.0 469.351 246.651"><g fill="#bbddfa"><circle cx="5.026" cy="5.026" r="5.026"/><path d="m144.12 8.025c-1.657 0-3-1.343-3-3s1.343-3 3-3h104.149c1.657 0 3 1.343 3 3s-1.343 3-3 3z"/><path d="m105.026 8.026-50-.002c-1.657 0-3-1.343-3-3s1.343-3 3-3l50 .002c1.657 0 3 1.343 3 3s-1.343 3-3 3z"/><circle cx="11.949" cy="44.459" r="5.026"/><path d="m365.992 47.458c-1.657 0-3-1.343-3-3s1.343-3 3-3h100.359c1.657 0 3 1.343 3 3s-1.343 3-3 3z"/><path d="m298.588 47.458c-1.657 0-3-1.343-3-3s1.343-3 3-3h33.702c1.657 0 3 1.343 3 3s-1.343 3-3 3z"/><path d="m111.962 47.459c-1.657 0-3-1.343-3-3s1.343-3 3-3h155.222c1.657 0 3 1.342 3 2.999s-1.343 3-3 3h-155.222z"/><circle cx="18.872" cy="83.892" r="5.026"/><path d="m347.226 86.891h-81.574c-1.657 0-3-1.343-3-3s1.343-3 3-3h81.574c1.657 0 3 1.343 3 3s-1.343 3-3 3z"/><path d="m238.077 86.891h-32.391c-1.657 0-3-1.343-3-3s1.343-3 3-3h32.391c1.657 0 3 1.343 3 3s-1.343 3-3 3z"/><path d="m168.897 86.891h-50c-1.657 0-3-1.343-3-3s1.343-3 3-3h50c1.657 0 3 1.343 3 3s-1.343 3-3 3z"/><circle cx="25.795" cy="123.325" r="5.026"/><circle cx="32.717" cy="162.758" r="5.026"/><path d="m343.526 165.756h-176.938c-1.657 0-3-1.343-3-3s1.343-3 3-3h176.938c1.657 0 3 1.343 3 3s-1.343 3-3 3z"/><path d="m132.769 165.756h-50c-1.657 0-3-1.343-3-3s1.343-3 3-3h50c1.657 0 3 1.343 3 3s-1.343 3-3 3z"/><circle cx="39.64" cy="202.191" r="5.026"/><path d="m454.077 205.19h-135.192c-1.657 0-3-1.344-3-3s1.343-3 3-3h135.192c1.657 0 3 1.344 3 3s-1.343 3-3 3z"/><path d="m285.567 205.189h-63.685c-1.657 0-3-1.343-3-3s1.343-3 3-3h63.685c1.657 0 3 1.343 3 3s-1.343 3-3 3z"/><path d="m189.704 205.189h-50c-1.657 0-3-1.343-3-3s1.343-3 3-3h50c1.657 0 3 1.343 3 3s-1.343 3-3 3z"/><circle cx="46.563" cy="241.625" r="5.026"/><path d="m401.011 244.632c-1.657 0-3-1.343-3-3s1.343-3 3-3l48.982-.005c1.657 0 3 1.343 3 3s-1.343 3-3 3z"/><path d="m196.195 244.653c-1.657 0-3-1.343-3-3s1.343-3 3-3l168.146-.017c1.657 0 3 1.343 3 3s-1.343 3-3 3z"/></g></svg></g><!--ITEM: Illustration component 8--><g transform="translate(965.0 421.6666666666667) rotate(0.0 396.66666666666674 70.00000000000003)  scale(1.7068823936515451 1.7068383258354372)"><svg width="464.785" height="82.023" viewBox="0.0 0.0 464.785 82.023"><path d="m431.835 80.523h-380.642c-19.17 0-38.752-13.761-46.445-32.639-9.859-24.197 3.631-46.384 28.201-46.384h380.642c19.17 0 38.752 13.761 46.445 32.639 9.859 24.196-3.63 46.383-28.201 46.383z" fill="#fff"/><path d="m431.835 82.023h-380.642c-19.79 0-39.906-14.12-47.834-33.574-5.117-12.559-4.374-25.231 2.038-34.769 5.846-8.694 15.888-13.68 27.552-13.68h380.642c19.79 0 39.907 14.119 47.834 33.574 5.117 12.559 4.375 25.231-2.038 34.769-5.845 8.694-15.887 13.68-27.552 13.68zm-398.886-79.023c-10.805 0-19.706 4.387-25.062 12.354-5.846 8.695-6.484 20.345-1.749 31.963 7.486 18.372 26.435 31.706 45.055 31.706h380.642c10.805 0 19.706-4.387 25.062-12.354 5.846-8.695 6.484-20.345 1.749-31.963-7.486-18.372-26.435-31.706-45.055-31.706h-380.642z" fill="#25242e"/><path d="m417.85 50.904h-363.347c-3.93 0-8.025-2.327-10.432-5.927-4.369-6.536-1.27-13.858 5.864-13.858h363.347c3.93 0 8.025 2.327 10.432 5.927 4.369 6.536 1.27 13.858-5.864 13.858z" fill="#24968b"/><ellipse cx="318.096" cy="37.883" fill="#fff" rx="20.82" ry="26.214" transform="matrix(.6653346 -.74654529 .74654529 .6653346 78.176 250.153)"/><path d="m323.489 62.744c-13.54 0-27.095-11.001-30.217-24.524-1.572-6.81-.335-13.204 3.484-18.005 3.69-4.639 9.353-7.194 15.946-7.194 13.54 0 27.095 11.001 30.217 24.524 1.572 6.81.335 13.204-3.484 18.004-3.69 4.639-9.353 7.194-15.946 7.194zm-10.787-46.723c-5.659 0-10.489 2.153-13.598 6.062-3.238 4.071-4.271 9.562-2.909 15.462 2.826 12.24 15.07 22.199 27.293 22.199 5.659 0 10.489-2.153 13.598-6.062 3.238-4.07 4.271-9.562 2.908-15.462-2.826-12.241-15.07-22.199-27.293-22.199z" fill="#25242e"/></svg></g><!--ITEM: Illustration component 9--><g transform="translate(223.33333333333334 713.3333333333334) rotate(0.0 175.0 126.66666666666669)  scale(1.6019479687299756 1.6029189998629085)"><svg width="218.484" height="158.045" viewBox="0.0 0.0 218.484 158.045"><path d="m189.27 158.045h-142.459c-14.17 0-26.296-10.172-28.761-24.127l-17.597-99.632c-3.159-17.886 10.599-34.286 28.761-34.286h142.459c14.17 0 26.296 10.172 28.761 24.127l17.597 99.633c3.159 17.885-10.599 34.286-28.761 34.286z" fill="#56b1f0"/><g fill="#fff"><path d="m80.083 108.925c-.408 0-.822-.1-1.205-.312l-49.688-27.402c-.755-.417-1.242-1.193-1.289-2.054s.354-1.686 1.06-2.182l39.035-27.402c1.13-.793 2.689-.52 3.482.61s.52 2.689-.61 3.483l-35.757 25.101 46.181 25.468c1.209.667 1.649 2.187.982 3.396-.456.826-1.31 1.293-2.191 1.293z"/><path d="m149.053 108.925c-.787 0-1.562-.371-2.048-1.063-.793-1.13-.52-2.689.61-3.483l35.757-25.101-46.181-25.468c-1.209-.667-1.649-2.187-.982-3.396s2.188-1.649 3.396-.982l49.688 27.402c.755.417 1.242 1.193 1.289 2.054s-.354 1.686-1.06 2.182l-39.036 27.402c-.437.307-.938.454-1.434.454z"/><path d="m91.85 117.355c-.366 0-.738-.081-1.09-.251-1.242-.603-1.76-2.099-1.157-3.341l34.78-71.664c.603-1.242 2.099-1.76 3.341-1.157s1.76 2.099 1.157 3.341l-34.781 71.664c-.432.89-1.323 1.409-2.251 1.409z"/></g></svg></g></svg>