<svg xmlns="http://www.w3.org/2000/svg" viewBox="0 0 2500 2500" width="2500" height="2500"><g transform="translate(1430.0 1806.0) rotate(0.0 181.0 178.0) scale(1.6760655980590975 1.6714085842793693)"><svg width="215.982" height="212.994" viewBox="0 0 215.982 212.994"><path d="M9.929 22.837C26.645 11.5 171.08-3.327 187.125 4.866s26.357 205.628 26.357 205.628H9.929s-16.715-176.315 0-187.657z" fill="#3054e5"/><path d="M213.482 213H9.929a2.5 2.5 0 0 1-2.489-2.27c-.042-.441-4.208-44.66-6.276-89.7C-.053 94.544-.317 72.945.379 56.835c1.206-27.886 4.987-33.923 8.146-36.067 9.67-6.561 54.526-13.112 90-16.729 35.559-3.625 80.4-6.167 89.737-1.4 3.078 1.572 11.256 5.748 20.548 107.886 4.536 49.855 7.143 99.344 7.169 99.838a2.5 2.5 0 0 1-2.5 2.631zm-201.273-5h198.633c-.6-10.885-3.082-53.823-7.012-97.028-8.391-92.219-15.778-102.825-17.842-103.879C170.952-.587 27.31 14.064 11.333 24.906 8.54 26.8 2.445 39.937 6.157 120.788 7.954 159.9 11.337 198.41 12.209 208z" fill="#3054e5"/><path d="m173.153 48.628-3.792 23.805c-9.418-.987-18.852-1.654-24.064 2.767-6.362 5.4-6.191 14.349-5.043 25.094l26.007-1.121-1.619 26.445-19.289 1.668 9.924 83.208h-22.26l-12.34-81.79-22.67 4.046 1.282-26.65 17.56-2.337c-2.574-19.521-4.35-35.323 1.165-44.735 9.477-16.176 32.452-15.31 55.139-10.4z" fill="#fff"/><path d="M155.277 213h-22.26a2.5 2.5 0 0 1-2.473-2.127l-11.956-79.251-20.141 3.594a2.5 2.5 0 0 1-2.937-2.581l1.282-26.652a2.5 2.5 0 0 1 2.167-2.358l15.088-2.008c-2.624-20.26-3.734-34.387 1.81-43.85 8.43-14.387 27.344-18.174 57.825-11.577a2.5 2.5 0 0 1 1.94 2.837l-3.792 23.8a2.494 2.494 0 0 1-2.729 2.093c-9.195-.962-17.813-1.522-22.187 2.188-4.72 4-5.311 10.64-4.406 20.587l23.645-1.018a2.5 2.5 0 0 1 2.6 2.65l-1.619 26.446a2.5 2.5 0 0 1-2.28 2.337l-16.716 1.445 9.618 80.645a2.5 2.5 0 0 1-2.482 2.8zm-20.109-5h17.293l-9.59-80.413a2.5 2.5 0 0 1 2.267-2.787l17.14-1.482 1.318-21.522-23.234 1a2.5 2.5 0 0 1-2.593-2.232c-1.15-10.75-1.563-20.926 5.91-27.265 5.428-4.606 14.157-4.482 23.585-3.584l3.046-19.124c-26.729-5.422-43.142-2.239-50.139 9.7-4.949 8.447-3.472 23.21-.843 43.145a2.5 2.5 0 0 1-2.149 2.8l-15.493 2.064-1.031 21.437 19.583-3.5a2.5 2.5 0 0 1 2.911 2.088z" fill="#fff"/><g fill="#2043b7"><path d="M68.065 10.148C42.882 13.77 15.619 18.977 9.929 22.837c-16.715 11.342 0 187.657 0 187.657h50.689c-1.736-44.328.69-160.973 7.447-200.346z"/><path d="M60.618 213H9.929a2.5 2.5 0 0 1-2.489-2.27c-.042-.441-4.208-44.66-6.276-89.7C-.053 94.544-.317 72.945.379 56.835c1.206-27.886 4.987-33.923 8.146-36.067 8.158-5.535 50.732-11.879 59.184-13.095a2.5 2.5 0 0 1 2.82 2.9c-6.791 39.571-9.1 156.735-7.413 199.826a2.5 2.5 0 0 1-2.5 2.6zm-48.409-5h45.817c-1.468-43.961.74-152.978 7.032-194.882-27.955 4.14-49.344 8.82-53.725 11.793C8.54 26.8 2.445 39.937 6.157 120.788 7.954 159.9 11.337 198.41 12.209 208z"/></g></svg></g><g transform="translate(206.0 600.0) rotate(0.0 543.0 740.0) scale(1.5778668576767 1.5747528808401519)"><svg width="688.271" height="939.83" viewBox="0 0 688.271 939.83"><g fill="#1e1e1e"><path d="M178.17 937.33h507.6S620.5 60.373 601.645 37.839 27.808-12.2 4.427 11.771 178.17 937.33 178.17 937.33z"/><path d="M685.771 939.83H178.17a2.5 2.5 0 0 1-2.442-1.966c-.493-2.254-49.816-228.028-95.647-453.828C-12.9 25.953-1.2 13.964 2.637 10.025 6.145 6.429 18.861 1.506 88.488.27 133.4-.524 193.072.423 261.047 3.014c80.075 3.053 162.287 8.07 225.553 13.766 108.881 9.8 114.961 17.067 116.959 19.454 3.04 3.634 12.293 14.691 49.708 459.591 18.461 219.528 34.83 439.127 34.993 441.319a2.5 2.5 0 0 1-2.493 2.686zm-505.588-5h502.894c-1.93-25.8-17.435-232.227-34.789-438.589-10.841-128.911-20.272-232.57-28.03-308.1-12.651-123.154-18.293-146.028-20.53-148.7-1.583-1.892-14.454-8.761-113.572-17.683-63.188-5.689-145.306-10.7-225.3-13.749C192.972 5.423 133.4 4.475 88.577 5.27 20.321 6.48 8.242 11.44 6.216 13.516c-.782.918-3.005 6.935 1.548 45.477 3.031 25.666 8.622 62.1 16.618 108.286 13.475 77.84 33.934 184.427 60.81 316.8 43.484 214.189 90.04 428.052 94.991 450.751z"/></g></svg></g><g transform="translate(313.0 1832.0) rotate(0.0 186.5 165.0) scale(1.6709747651451687 1.6701419114521125)"><svg width="223.223" height="197.588" viewBox="0 0 223.223 197.588"><g fill="#1e1e1e"><path d="M28.146 195.088h168.741s31.36-177.681 22.138-189.406S11.9 17.491 3.8 30.088s24.346 165 24.346 165z"/><path d="M196.887 197.588H28.146a2.5 2.5 0 0 1-2.445-1.98c-.081-.381-8.2-38.595-15.227-77.856C-3.9 37.436.166 31.115 1.7 28.737 4.921 23.72 27.79 17.992 69.667 11.71c36.659-5.5 77.967-9.8 107.806-11.214 39.19-1.865 42.222 1.993 43.517 3.64 1.758 2.235 6.427 8.172-7.1 101.006-6.616 45.4-14.461 89.935-14.539 90.38a2.5 2.5 0 0 1-2.464 2.066zm-166.714-5h164.613c1.617-9.284 8.357-48.388 14.152-88.153 12.265-84.148 9.318-95.678 8.123-97.208-1.887-1.853-18.133-3.952-66.9.115-30.4 2.535-65.348 6.824-93.49 11.474C10.714 26.408 6.253 30.955 5.9 31.448c-1.357 2.112-3.16 14.678 9.5 85.424 6.1 34.09 13.023 67.387 14.773 75.716z"/></g></svg></g><g transform="translate(317.0 461.0) rotate(0.0 597.0 850.5) scale(1.6621354682168796 1.6637356489351505)"><svg width="718.353" height="1022.398" viewBox="0 0 718.353 1022.398"><path d="M173.687 1019.9h542.166S646.139 83.225 626 59.157 29.694-16.113 4.72 9.488 173.687 1019.9 173.687 1019.9z" fill="#ffd04d"/><path d="M715.853 1022.4H173.687a2.5 2.5 0 0 1-2.453-2.017c-.484-2.462-49.007-249.072-93.855-495.64C-13.579 24.667-1.153 11.929 2.931 7.743c2.642-2.71 10.688-10.956 129.644-6.421 85.73 3.269 203.837 12.367 308.225 23.744 51.439 5.606 95.5 11.361 127.408 16.641 48.32 8 57.216 12.873 59.7 15.846 3.239 3.87 13.095 15.649 53.054 490.791 19.719 234.476 37.2 469.027 37.376 471.368a2.5 2.5 0 0 1-2.493 2.686zm-540.109-5h537.415c-2-26.741-18.594-247.723-37.172-468.638-34.652-412.039-47.394-482.607-51.906-488-4.759-5.687-55.547-16.745-183.819-30.725C335.978 18.671 218.006 9.583 132.384 6.319 27.021 2.3 9.257 8.419 6.51 11.234c-.86.947-3.347 7.307.837 49.265 2.782 27.9 8.1 67.6 15.815 117.976 13 84.9 32.928 201.3 59.244 345.964 42.655 234.483 88.599 468.838 93.338 492.961z" fill="#ffd04d"/><path d="M184.546 987.285c7.77 9.473 498.885 9.148 509.94 0s-91-875.806-103.2-886.652S452.951 83.089 442.7 90.511s22.208 45.962 8.89 52.3-180.46 1.592-193.483-8.257 4.4-47.8 0-59.176S67.689 50.858 56.3 65.667s120.475 912.145 128.246 921.618z" fill="#f6f6f6"/><path d="M436.561 996.765c-97.237 0-205.64-1.431-240.894-4.836-10.609-1.024-12.147-1.952-13.055-3.058-.981-1.2-3.279-4-25.454-147.12-13.571-87.586-30.479-201.641-46.392-312.92C98.313 441.744 80.779 316.586 67.965 214.9 49.722 70.126 52.829 66.086 54.322 64.143c4.486-5.835 28.1-8.328 70.187-7.4 34.681.757 75.067 3.845 102.891 7.857 30.959 4.468 32.317 7.982 33.047 9.87 2.019 5.222.284 14.051-1.726 24.274-2.525 12.849-5.668 28.84.9 33.809 5.118 3.871 44.271 7.857 95.213 9.693 48.014 1.73 90.045.984 95.688-1.7 4.725-2.246-.759-14.262-5.164-23.915-5.492-12.032-10.678-23.4-4.118-28.148 8.491-6.15 68.379-2.676 75.181-2.26 15.728.963 67.731 4.713 76.53 12.539 1.571 1.4 4.84 4.3 22.181 132.529 10.083 74.551 22.706 175.4 35.542 283.974 23.981 202.829 47.856 425.573 47.135 465.975-.1 5.645-.637 7.067-1.726 7.968-1.386 1.147-4.269 3.533-73.216 5.462-39.688 1.11-94.2 1.834-153.492 2.037-10.709.039-21.689.058-32.814.058zm-250.074-11.234c9.881 3.686 115.415 6.3 253.111 6.236 134.943-.061 242.393-2.762 252.956-6.316 3.047-14.544-15.14-199.052-43.646-442.393-28.293-241.518-53.782-430.465-59.44-440.689-5.286-4.252-35.29-8.822-73.356-11.152-40.471-2.477-68.36-1.276-71.942 1.319-3.245 2.35 1.944 13.72 5.733 22.022 5.867 12.854 11.933 26.146 2.764 30.506-7.673 3.649-56.188 3.689-98.016 2.181-20.667-.746-88.815-3.719-98.048-10.7-9.064-6.855-5.732-23.806-2.793-38.761 1.683-8.562 3.422-17.411 2.023-21.361-1.807-1.849-16.443-6.317-59.769-10.443-34.163-3.253-72.05-4.9-98.864-4.29-32 .725-37.8 4.349-38.8 5.37-3.6 11.487 18.876 192.285 57.372 461.471 33.169 231.922 65.87 443.175 70.715 457z" fill="#f6f6f6"/><g fill="#ffde8a"><path d="M628.906 67.362c-1.057-4.366-2.029-7.155-2.907-8.2C605.859 35.089 29.694-16.113 4.72 9.488 2.019 12.257 1.881 26.253 3.779 49 118.92 5.807 492.626 36.855 628.906 67.362z"/><path d="M628.906 69.862a2.47 2.47 0 0 1-.546-.061C556.577 53.733 427.952 38.96 308.292 33.04 163.1 25.859 55.262 32.358 4.657 51.343a2.5 2.5 0 0 1-3.369-2.133C-1.407 16.915.606 10.125 2.931 7.743c2.642-2.71 10.688-10.956 129.644-6.421 85.73 3.269 203.837 12.367 308.225 23.744 51.439 5.606 95.5 11.361 127.408 16.641 48.32 8 57.216 12.873 59.7 15.846.778.929 1.87 2.817 3.419 9.22a2.5 2.5 0 0 1-2.429 3.089zM201.2 25.243c39.771 0 77.7 1.338 107.34 2.8 117.711 5.827 244.137 20.212 316.878 35.99a10.969 10.969 0 0 0-1.336-3.271c-4.76-5.687-55.548-16.745-183.82-30.725C335.978 18.671 218.006 9.583 132.384 6.319 27.024 2.3 9.257 8.418 6.51 11.234c-.5.547-2.786 4.747-.5 34.3C51.391 29.621 129.276 25.243 201.2 25.243z"/></g></svg></g><g transform="translate(572.0 789.0) rotate(0.0 376.0 338.5) scale(1.6659282233052726 1.6654407513917622)"><svg width="451.4" height="406.499" viewBox="0 0 451.4 406.499"><g fill="#3054e5"><ellipse cx="225.7" cy="203.249" rx="223.2" ry="200.749"/><path d="M225.7 406.5c-60.237 0-116.881-21.11-159.5-59.44C23.511 308.662 0 257.59 0 203.249S23.511 97.836 66.2 59.44C108.818 21.11 165.462 0 225.7 0s116.881 21.11 159.5 59.44c42.691 38.4 66.2 89.469 66.2 143.809s-23.511 105.413-66.2 143.81c-42.619 38.33-99.263 59.441-159.5 59.441zm0-401.5C104.005 5 5 93.934 5 203.249S104.005 401.5 225.7 401.5s220.7-88.935 220.7-198.25S347.394 5 225.7 5z"/></g></svg></g><g transform="translate(699.0 1537.0) rotate(0.0 312.5 199.5) scale(1.6692439793708151 1.6630543514504836)"><svg width="374.421" height="239.92" viewBox="0 0 374.421 239.92"><path d="M5.623 52.132c-13.047 17.681 19 185.288 19 185.288L356 208.545S383.152 16.5 366.542 4.6 18.67 34.452 5.623 52.132z" fill="#aef45d"/><path d="M24.624 239.92a2.5 2.5 0 0 1-2.453-2.03c-.08-.42-8.1-42.463-14.413-86.126-12.91-89.24-6.314-98.179-4.147-101.116 1.424-1.929 5.2-7.051 61.114-17.532C96.5 27.16 139.009 20.653 184.427 14.8c44.712-5.767 87.457-10.3 120.362-12.766 56.54-4.237 61.384-.768 63.208.538 3.151 2.257 6.727 8.723 6.4 38.944-.186 17.479-1.672 40.95-4.414 69.759-4.664 48.989-11.446 97.144-11.514 97.625a2.5 2.5 0 0 1-2.258 2.141l-331.368 28.87a2.251 2.251 0 0 1-.219.009zM7.635 53.616c-9 12.191 6.3 114.12 19.025 181.118l327.14-28.507c1.317-9.533 7.1-52.167 11.215-95.446 8.616-90.517 2.236-102.6.075-104.149-5.875-4.208-74.816-.447-180.02 13.122C74.458 34.021 12.083 47.588 7.635 53.616z" fill="#aef45d"/><path d="M196.056 117.718c-9.4 0-55.176-13.279-95.53-26.4C80.953 84.96 16.038 63.4 2.513 53.151a2.5 2.5 0 0 1 3.02-3.984c8.576 6.5 45.568 20.832 96.539 37.4 45.113 14.664 86.4 26.151 93.984 26.151 13.713 0 161.653-99.293 172.387-110.42a2.5 2.5 0 0 1 3.6 3.472c-5.438 5.638-44.759 33.144-85.864 60.064-36.143 23.666-81.115 51.884-90.123 51.884z" fill="#94d63e"/></svg></g><g transform="translate(399.0 1774.0) rotate(0.0 207.0 194.0) scale(1.6623168038546476 1.6652217577531523)"><svg width="249.05" height="233.002" viewBox="0 0 249.05 233.002"><path d="M19.61 230.5h198.851S255.417 21.117 244.55 7.3 14.257 12.418 4.712 27.263 19.61 230.5 19.61 230.5z" fill="#ffa9d8"/><path d="M218.461 233H19.611a2.5 2.5 0 0 1-2.479-2.178c-.062-.471-6.173-47.7-11.038-96.125-9.923-98.774-5.078-106.31-3.485-108.786C3.835 24 7.567 18.2 63.915 10.538c32.2-4.378 71.969-7.968 106.4-9.6 20.3-.965 37.722-1.185 50.37-.637 19.768.857 24.19 3.367 25.835 5.457 2.038 2.593 7.455 9.48-8.461 118.689-7.8 53.492-17.039 105.97-17.131 106.494a2.5 2.5 0 0 1-2.467 2.059zM21.81 228h194.55c1.785-10.236 9.836-56.867 16.748-104.29 14.084-96.64 11.319-112.522 9.477-114.865-1.786-2.27-18.964-5.44-72.038-2.917-34.289 1.63-73.9 5.2-105.958 9.564C12.043 22.637 7.194 28.024 6.815 28.615c-1.652 2.569-4.544 18 4.253 105.575 4.265 42.453 9.489 83.983 10.742 93.81z" fill="#ffa9d8"/><g fill="#fff"><path d="m34.385 62.044 9.506 129.681a12.987 12.987 0 0 0 12.952 12.037h127.579a12.986 12.986 0 0 0 12.9-11.478l16.749-143.313a12.3 12.3 0 0 0-13.236-13.684L46.259 48.153a12.986 12.986 0 0 0-11.874 13.891zm138.668 128.2H69.568A12.987 12.987 0 0 1 56.616 178.2l-7.7-105.055a12.986 12.986 0 0 1 11.873-13.888l124.679-10.378a12.987 12.987 0 0 1 13.976 14.449l-13.493 115.433a12.986 12.986 0 0 1-12.898 11.479z"/><path d="M184.422 206.262H56.842A15.546 15.546 0 0 1 41.4 191.908L31.892 62.227a15.534 15.534 0 0 1 14.159-16.565L200.628 32.8a14.8 14.8 0 0 1 15.926 16.466L199.8 192.574a15.486 15.486 0 0 1-15.378 13.688zm17.443-168.518q-.409 0-.822.034L46.466 50.645a10.519 10.519 0 0 0-9.588 11.216l9.506 129.682a10.528 10.528 0 0 0 10.458 9.719h127.58a10.487 10.487 0 0 0 10.415-9.268l16.752-143.313a9.8 9.8 0 0 0-9.724-10.937zm-28.812 155H69.568a15.547 15.547 0 0 1-15.445-14.354L46.422 73.33a15.533 15.533 0 0 1 14.16-16.564L185.26 46.388a15.485 15.485 0 0 1 16.666 17.23l-13.492 115.433a15.487 15.487 0 0 1-15.381 13.689zm13.5-141.406c-.293 0-.586.012-.881.036L61 61.748a10.52 10.52 0 0 0-9.589 11.216l7.7 105.057a10.526 10.526 0 0 0 10.458 9.719h103.484a10.487 10.487 0 0 0 10.415-9.269l13.493-115.433a10.487 10.487 0 0 0-10.4-11.7z"/><path d="M157.039 115.883c-4.6-17.623-24.039-27.809-43.408-22.752S82.282 116.574 86.882 134.2s24.035 27.809 43.408 22.752 31.349-23.446 26.749-41.069zM127.746 147.2c-13.455 3.512-26.953-3.562-30.148-15.8s5.123-25.009 18.578-28.521 26.952 3.562 30.147 15.8-5.123 25.009-18.577 28.521z"/><path d="M120.237 160.752a39.443 39.443 0 0 1-18.351-4.46 33.412 33.412 0 0 1-12.714-48.7A40.4 40.4 0 0 1 113 90.712c20.674-5.4 41.517 5.611 46.458 24.539 4.941 18.929-7.86 38.72-28.536 44.117a42.351 42.351 0 0 1-10.685 1.384zm3.385-66.413a37.057 37.057 0 0 0-9.36 1.211 35.417 35.417 0 0 0-20.9 14.766 28.418 28.418 0 0 0 10.846 41.548 35.41 35.41 0 0 0 25.452 2.666c18.008-4.7 29.206-21.755 24.961-38.016-3.505-13.423-16.456-22.175-30.999-22.175zm-2.806 56.261c-11.987 0-22.7-7.34-25.637-18.566-3.538-13.553 5.6-27.716 20.365-31.571s29.659 4.036 33.2 17.589-5.6 27.716-20.365 31.571a29.923 29.923 0 0 1-7.563.977zm2.3-46.116a24.963 24.963 0 0 0-6.309.817c-12.1 3.159-19.631 14.585-16.79 25.47s15 17.172 27.1 14.014c12.1-3.158 19.631-14.585 16.79-25.47-2.347-8.983-11.031-14.834-20.791-14.834z"/><ellipse cx="173.875" cy="70.957" rx="6.945" ry="7.634" transform="matrix(.75779279 -.65249527 .65249527 .75779279 -4.186 130.638)"/><path d="M174.562 80.8a10.413 10.413 0 0 1-7.845-3.679c-3.646-4.235-3.4-10.445.545-13.843s10.122-2.717 13.77 1.517 3.4 10.444-.545 13.843a9.011 9.011 0 0 1-5.925 2.162zm-4.055-6.942c1.847 2.145 4.861 2.59 6.718.991s1.865-4.646.018-6.791-4.861-2.59-6.718-.991-1.866 4.645-.018 6.791z"/></g></svg></g><g transform="translate(1230.0 1473.0) rotate(0.0 61.0 69.5) scale(1.6505445444091185 1.6563591081876572)"><svg width="73.915" height="83.919" viewBox="0 0 73.915 83.919"><g fill="#ffa9d8"><ellipse cx="36.957" cy="41.96" rx="34.457" ry="39.46"/><path d="M36.957 83.919C16.579 83.919 0 65.1 0 41.96S16.579 0 36.957 0s36.958 18.823 36.958 41.96-16.579 41.959-36.958 41.959zm0-78.919C19.336 5 5 21.58 5 41.96s14.336 36.959 31.957 36.959 31.958-16.58 31.958-36.959S54.579 5 36.957 5z"/></g></svg></g><g transform="translate(719.0 336.0) rotate(0.0 596.5 565.0) scale(1.665017466633357 1.6659712833728695)"><svg width="716.509" height="678.283" viewBox="0 0 716.509 678.283"><path d="M86.135 534.707c8.206 27.308 38.113 106.853 57.971 141.076a243.353 243.353 0 0 0 94.876-21.864c-31.908-38.68-65.094-93.486-81.037-139.429z" fill="#ffa9d8"/><path d="M144.106 678.283a2.5 2.5 0 0 1-2.162-1.245c-20.195-34.8-50.339-115.442-58.2-141.611a2.5 2.5 0 0 1 1.716-3.126l71.811-20.217a2.5 2.5 0 0 1 3.039 1.586c14.9 42.937 46.538 97.363 80.6 138.658a2.5 2.5 0 0 1-.883 3.862 245.348 245.348 0 0 1-95.86 22.092zM89.276 536.42c8.707 27.881 36.848 102.719 56.254 136.823a240.6 240.6 0 0 0 89.454-20.261c-33.037-40.676-63.55-93.236-78.618-135.45z" fill="#ffa9d8"/><path d="m157.945 514.49-71.81 20.217c2.988 9.944 8.856 26.818 16.066 45.9 16.572-11.59 51.736-27.516 68.7-34.5a336.673 336.673 0 0 1-12.956-31.617z" fill="#e075b5"/><path d="M102.2 583.111a2.5 2.5 0 0 1-2.339-1.616c-6.973-18.458-13-35.679-16.121-46.068a2.5 2.5 0 0 1 1.716-3.126l71.81-20.217a2.5 2.5 0 0 1 3.04 1.586 334.386 334.386 0 0 0 12.864 31.381 2.5 2.5 0 0 1-1.314 3.369c-18.833 7.755-52.543 23.273-68.223 34.24a2.5 2.5 0 0 1-1.433.451zM89.275 536.42c3.061 9.822 8.206 24.5 14.151 40.349 16.157-10.554 45.786-24.3 64.118-31.973-4.343-9.472-8.095-18.622-11.178-27.264z" fill="#e075b5"/><path d="M164.521 528.764s49.134-18.01 65.254-18.511c69.964-2.175 477.721 52.247 483.473 34.87C724.21 512.006 613.375 19.149 596.37 3.625c-25.084-22.9-329.6 311.005-415.437 341.784C155.122 354.663 9.68 375.451 3.18 397.232s35.335 158.316 52.5 160.215c4.935.547 18.91-3.049 37.031-8.466z" fill="#ffa9d8"/><path d="M56.777 560a12.343 12.343 0 0 1-1.372-.069c-3.105-.344-6.293-3.131-10.032-8.773-9.016-13.605-21.522-45.366-31.859-80.916-8.286-28.5-15.981-62.83-12.73-73.726 4.569-15.308 61.489-28.138 129.8-42.134 22.417-4.592 41.777-8.558 49.5-11.328 43.177-15.482 144.727-110.8 234.322-194.89 44.279-41.559 86.1-80.814 118.65-108.509 48.444-41.213 59.869-42.555 65-37.876 11.128 10.159 50.447 178.085 69.682 265.46C694.8 390.145 721.584 527.9 715.621 545.908c-.893 2.7-3.813 5.318-28.123 5.136-14.687-.109-35.378-1.2-63.253-3.326-51.5-3.935-118.7-10.775-183.692-17.389-93.386-9.5-181.595-18.472-210.7-17.577-15.537.482-63.984 18.181-64.471 18.359-.06.022-.121.042-.183.059l-71.81 20.218C73.442 557.351 62.225 560 56.777 560zM592.95 5.01c-2.165 0-6.757 1.208-16.205 7.213-9.906 6.3-23.135 16.515-40.443 31.241-32.457 27.616-74.236 66.83-118.469 108.347-89.95 84.427-191.9 180.119-236.056 195.951-8.061 2.89-26.651 6.7-50.186 11.52-25.275 5.178-56.729 11.618-81.571 18.479-36.43 10.057-43.483 16.964-44.445 20.186C.237 415.834 30.643 519.883 49.541 548.4c3.986 6.015 6.042 6.524 6.413 6.565 5.851.648 28.574-6.144 36.041-8.375l71.757-20.2c3.055-1.118 49.8-18.128 65.946-18.63 29.439-.91 117.806 8.079 211.361 17.6 63.35 6.447 128.858 13.114 179.787 17.086 27.488 2.143 48.163 3.308 63.208 3.56 21.67.361 26.062-1.38 26.9-1.94 4.249-14.968-15.014-125.443-48.1-275.747-14.524-65.984-29.415-129.044-41.927-177.569-19.189-74.418-24.937-84.087-26.242-85.279a2.529 2.529 0 0 0-1.735-.461z" fill="#ffa9d8"/><path d="M633.9 132.2C616.547 61.321 601.755 8.54 596.37 3.625c-25.084-22.9-329.6 311.005-415.437 341.783C155.122 354.663 9.68 375.451 3.18 397.232c-1.925 6.448.388 22.954 5.042 43.045 46.186-9.072 184.8-36.535 199.842-42.307C224.443 391.687 569 173.362 633.9 132.2z" fill="#ffd2ed"/><path d="M8.219 442.777a2.5 2.5 0 0 1-2.433-1.936c-3.634-15.689-7.451-36.114-5-44.324 4.569-15.308 61.489-28.138 129.8-42.134 22.417-4.592 41.777-8.558 49.5-11.328 43.177-15.482 144.727-110.8 234.322-194.89 44.279-41.559 86.1-80.814 118.651-108.508C581.5-1.558 592.925-2.9 598.056 1.779c6.9 6.3 24.624 74.081 38.273 129.829a2.5 2.5 0 0 1-1.089 2.707C566.958 177.618 225.5 393.959 208.96 400.3c-14.902 5.721-145.01 31.578-200.26 42.43a2.5 2.5 0 0 1-.481.047zM592.95 5.01c-2.165 0-6.757 1.208-16.205 7.213-9.906 6.3-23.135 16.515-40.443 31.242-32.457 27.615-74.236 66.829-118.469 108.346-89.95 84.427-191.9 180.119-236.056 195.95-8.061 2.891-26.651 6.7-50.186 11.521-25.275 5.178-56.729 11.618-81.571 18.479-36.43 10.057-43.484 16.964-44.445 20.186-1.581 5.3.075 19.594 4.543 39.41 45.6-8.966 182.37-36.089 197.051-41.721 12.45-4.776 235.757-145.284 423.877-264.582C609.529 43.323 598.158 8.642 594.685 5.471a2.529 2.529 0 0 0-1.735-.461z" fill="#ffd2ed"/><path d="M229.446 515.228a2.613 2.613 0 0 1-.292-.017 2.5 2.5 0 0 1-2.195-2.772c3.536-30.378-26.372-148.626-49.648-167.818a2.5 2.5 0 0 1 3.181-3.857c16.074 13.253 30.933 62.221 36.575 82.66 10.473 37.936 16.583 74.778 14.859 89.593a2.5 2.5 0 0 1-2.48 2.211z" fill="#e075b5"/></svg></g><g transform="translate(1066.0 1525.0) rotate(0.0 197.0 296.5) scale(1.7110868876024372 1.7101855536905979)"><svg width="230.263" height="346.746" viewBox="0 0 230.263 346.746"><g fill="#fff"><path d="M205.938 2.5 2.5 344.246c27.559-.07 54.789-.253 80.392-.548L216.6 99.316c-3.312-30.846-6.9-63.392-10.662-96.816z"/><path d="M2.5 346.746a2.5 2.5 0 0 1-2.148-3.779L203.79 1.221a2.5 2.5 0 0 1 4.633 1c3.806 33.814 7.394 66.391 10.665 96.828a2.514 2.514 0 0 1-.292 1.468L85.085 344.9a2.5 2.5 0 0 1-2.164 1.3c-25.351.292-52.406.477-80.415.548zm201.784-336.58L6.905 341.734c25.887-.077 50.92-.252 74.5-.519L214.033 98.8a19321.482 19321.482 0 0 0-9.749-88.634zm19.596 158.45-84.091 174.176c9.224-.2 17.992-.41 26.209-.643l61.765-134.735a8977.78 8977.78 0 0 0-3.883-38.798z"/><path d="M139.789 345.292a2.5 2.5 0 0 1-2.251-3.587l84.09-174.176a2.5 2.5 0 0 1 4.739.833c1.392 13.625 2.7 26.683 3.885 38.809a2.5 2.5 0 0 1-.216 1.285l-61.765 134.735a2.5 2.5 0 0 1-2.2 1.457c-8.093.23-16.916.446-26.227.643zm82.5-167.627L143.815 340.2c7.218-.16 14.111-.331 20.559-.511l60.836-132.704c-.91-9.285-1.889-19.115-2.923-29.32z"/></g></svg></g><g transform="translate(1876.0 367.0) rotate(0.0 209.0 357.0) scale(1.6698959311267803 1.6714070016503388)"><svg width="250.315" height="427.185" viewBox="0 0 250.315 427.185"><g fill="#d4ff9c"><path d="M2.835 119.748c-2.459 7.511 9.2 25.9 16.043 29.831s176.967-40.144 180.269-51.94-50.033-94.015-65.936-95.131S5.294 112.236 2.835 119.748z"/><path d="M20.545 152.333a4.91 4.91 0 0 1-2.912-.587c-7-4.021-20.184-23.579-17.174-32.776 1.729-5.284 37.053-40.544 60.809-62.9 16.812-15.82 31.9-29.207 43.634-38.714C124.375 1.579 130.352-.2 133.386.015c9.8.687 27.58 23.938 37.3 37.736 13.757 19.52 33.329 51.757 30.864 60.562-.578 2.067-2.85 4.689-15.445 9.84-22.114 9.043-64.53 21.2-96.852 29.556-17.966 4.647-34.766 8.641-47.305 11.248-12.814 2.664-18.587 3.376-21.403 3.376zm-.604-5.03c4.734.79 42.538-7.263 90.017-20.283 56.416-15.471 84.485-26.446 86.8-30.143 1.1-4.813-11.473-29.731-30.159-56.245C149.561 16.45 137.464 5.313 133.036 5c-4.334-.268-24.683 13.683-67.71 54.118C32.708 89.772 6.827 117.04 5.2 120.568c-1.852 5.878 8.223 22.784 14.741 26.732zm28.442 73.572c2.813-9.408 191.065-25.177 198.021-17.8s-13.415 93.482-25.958 100.125S61 267.639 54.692 261.686s-8.527-33.394-6.309-40.811z"/><path d="M215.652 306.325c-15.057 0-51.081-8.716-81.067-16.745-31.291-8.378-77.3-22.007-81.609-26.076-7.085-6.685-9.41-35.249-6.988-43.345.594-1.987 2.647-3.542 11.379-5.612 20.566-4.873 68.509-9.976 106.9-12.871 21.45-1.617 41.176-2.659 55.544-2.931 25.489-.485 27.318 1.456 28.412 2.616s4.04 4.285.135 27.893c-3.8 22.952-15.921 70.424-26.742 76.154-1.19.63-3.233.917-5.964.917zM50.675 221.964c-1.98 7.74.669 33.125 5.732 37.9 3.062 2.493 38.727 13.993 80.079 25.045 51.942 13.883 79.009 18.08 82.79 16.076 5.513-2.919 15.193-29.446 21.577-59.133 5.033-23.4 5.01-34.947 3.795-36.968-4.542-2.189-41.942-1.6-97.541 3.192-57.529 4.967-92.29 10.808-96.432 13.888zm9.468 98.636c7.956-4.1 120.389 44.766 123.925 52.729s-37.926 52.822-49.484 51.315-74.115-65.951-79.94-73.344-2.457-26.6 5.499-30.7z"/><path d="M135.108 427.181a6.46 6.46 0 0 1-.847-.054c-13.125-1.711-77.23-68.758-81.581-74.279-4.032-5.119-4.012-13.651-2.648-19.929 1.543-7.1 4.811-12.4 8.966-14.537 1.317-.679 3.769-1.942 24.151 5.239 16.734 5.9 41.569 16.166 63.271 26.166 37.626 17.337 39.362 21.247 39.933 22.532.922 2.076 1.146 6.178-7.516 17.781-10.182 13.639-33.044 37.081-43.729 37.081zm-73.92-104.3c-2.7 1.461-5.095 5.7-6.27 11.1-1.388 6.39-.709 12.728 1.69 15.772 6.385 8.105 68.256 71.107 78.3 72.416 4.1.553 17.615-9.165 32.312-25.768 11.68-13.195 14.83-20.461 14.562-22.031-2.26-3.067-24.687-14.863-58.718-29.5-35.527-15.287-58.32-22.712-61.876-21.991z"/></g><path d="M133.211 2.508C117.307 1.393 5.294 112.236 2.835 119.748a11.793 11.793 0 0 0 .262 6.394c26.206-23.076 124.3-88.1 139.782-88.1 14.242 0 44.914 40.339 50.979 63.828 2.49-1.181 4.866-2.715 5.289-4.227 3.301-11.8-50.033-94.019-65.936-95.135z" fill="#aef45d"/><path d="M3.1 128.642a2.5 2.5 0 0 1-2.418-1.867 14.037 14.037 0 0 1-.219-7.805c1.729-5.284 37.053-40.544 60.809-62.9 16.812-15.82 31.9-29.207 43.634-38.715C124.374 1.58 130.354-.2 133.386.015c9.8.687 27.58 23.938 37.3 37.736 13.757 19.52 33.329 51.757 30.864 60.562-.58 2.072-2.747 3.973-6.626 5.811a2.5 2.5 0 0 1-3.491-1.633c-5.98-23.16-36.385-61.953-48.558-61.953-14.3 0-112.06 64.525-138.13 87.48a2.5 2.5 0 0 1-1.645.624zM132.892 5c-4.634 0-25 14.117-67.566 54.122-32.691 30.719-58.616 58.041-60.14 61.469a3.627 3.627 0 0 0-.134.608c30.179-24.918 121.855-85.661 137.827-85.661 15.082 0 44.558 38.006 52.5 62.622a4.395 4.395 0 0 0 1.374-1.238c1.269-4.543-11.347-29.609-30.151-56.29C149.561 16.45 137.464 5.313 133.036 5h-.144zM246.4 203.076c-6.956-7.378-195.208 8.391-198.021 17.8a27.161 27.161 0 0 0-.788 6.2c32.391-3.9 173.8-20.135 181.789-7.655 4.469 6.981 6.724 27.764 7.862 46.97 7.786-26.786 13.293-58.934 9.158-63.315z" fill="#aef45d"/><path d="M237.248 268.886a2.4 2.4 0 0 1-.28-.016 2.5 2.5 0 0 1-2.217-2.336c-1.939-32.7-5.513-42.711-7.472-45.771-.719-1.123-7.926-6.455-79.454-1.167-40.171 2.969-83.267 7.953-99.931 9.957a2.5 2.5 0 0 1-2.8-2.579 29.112 29.112 0 0 1 .891-6.815c.594-1.987 2.646-3.542 11.377-5.611 20.564-4.874 68.508-9.976 106.9-12.871 21.451-1.618 41.178-2.659 55.546-2.932 25.49-.484 27.32 1.456 28.413 2.616 6.565 6.964-4.265 50.885-8.576 65.722a2.5 2.5 0 0 1-2.397 1.803zm-38.627-56.6c29.174 0 31.615 3.823 32.869 5.783 3.133 4.895 5.529 16.123 7.149 33.457 5.783-23.546 8.077-43.407 6.013-46.635-4.528-2.191-41.933-1.607-97.545 3.19-57.518 4.962-92.277 10.8-96.429 13.882a18.167 18.167 0 0 0-.375 2.267c18.458-2.194 59.106-6.807 97.154-9.62 22.725-1.681 39.197-2.325 51.164-2.325zm-14.553 161.047c-1.521-3.426-23.2-14.42-48.038-25.512 11.65 5.3 29.408 17.039 29.239 27.58-.142 8.819-29.41 30.589-44 40.848 6.061 4.886 10.853 8.078 13.319 8.4 11.554 1.506 53.012-43.349 49.48-51.316z" fill="#aef45d"/><path d="M135.108 427.181a6.46 6.46 0 0 1-.847-.054c-1.935-.252-5.338-1.5-14.565-8.931a2.5 2.5 0 0 1 .13-3.992C151.419 392 162.7 379.4 162.769 375.361c.131-8.136-14.213-19.09-27.776-25.264a2.5 2.5 0 0 1 2.056-4.559c21.289 9.506 47.123 21.869 49.3 26.781.922 2.076 1.146 6.178-7.516 17.781-10.178 13.639-33.04 37.078-43.725 37.081zm-9.667-10.824c6.613 5.08 8.889 5.737 9.466 5.812 4.095.552 17.615-9.165 32.312-25.768 11.677-13.192 14.828-20.457 14.563-22.03-1.013-1.345-7.065-5.2-19.782-11.583 3.528 4 5.838 8.306 5.768 12.653-.143 8.927-22.474 26.786-42.327 40.916z" fill="#aef45d"/></svg></g><g transform="translate(1984.0 1565.0) rotate(0.0 66.0 70.0) scale(1.6731098295202484 1.666626985071784)"><svg width="78.895" height="84.002" viewBox="0 0 78.895 84.002"><g fill="#ffde8a"><path d="M44.344 37.383s21.713-10.205 30.138 3.023c5.9 9.269-2.681 25.785-14.456 32.838C36.281 87.467 11.737 79 11.737 79S-2.89 50.228 4.669 29.854c6.06-16.336 23.479-32.737 35.365-25.665 13.91 8.277 4.31 33.194 4.31 33.194z"/><path d="M29.425 84.04a61.185 61.185 0 0 1-18.5-2.674 2.5 2.5 0 0 1-1.413-1.231c-.621-1.214-15.036-29.993-7.187-51.151C7.01 16.357 17.616 4.647 27.544 1.142c5.033-1.778 9.793-1.466 13.768.9 11.545 6.868 9.134 22.918 6.956 31.172 7.483-2.4 21.424-4.983 28.322 5.849 2.336 3.668 2.911 8.4 1.661 13.689-2.055 8.7-8.863 17.8-16.941 22.636a61.569 61.569 0 0 1-31.885 8.652zm-15.912-7.113c4.648 1.3 25.382 6.06 45.228-5.828C65.735 66.91 71.62 59.074 73.386 51.6c.649-2.749 1-6.691-1.013-9.853-7.136-11.207-26.77-2.194-26.967-2.1a2.5 2.5 0 0 1-3.395-3.161c.088-.23 8.674-23.05-3.256-30.149-2.7-1.6-5.907-1.766-9.547-.48-8.508 3-18.05 13.694-22.195 24.867-6.346 17.103 4.141 41.168 6.5 46.203z"/></g></svg></g><g transform="translate(249.0 1544.0) rotate(-22.279135285964344 92.0 84.5) scale(1.6742950217021393 1.658374792703151)"><svg width="109.897" height="101.907" viewBox="0 0 109.897 101.907"><g fill="#ffd2ed"><path d="M57.4 35.958S65.187 2.351 85.838 2.5c14.47.1 23.8 24.674 21.093 38.667-5.451 28.218-48.66 58.239-48.66 58.239s-32.2-14.048-46.7-31.841C-.048 53.3-2.16 29.281 15.1 23.047c20.208-7.295 42.3 12.911 42.3 12.911z"/><path d="M58.271 101.907a2.511 2.511 0 0 1-1-.208c-1.338-.584-32.928-14.5-47.636-32.554-8.056-9.891-11.523-23.557-8.626-34.008A20.565 20.565 0 0 1 14.255 20.7c17.03-6.147 34.773 5.459 41.769 10.877C58.856 22.381 67.61 0 85.7 0h.16c5.24.038 10.231 2.768 14.432 7.9 7.086 8.649 11.082 23.471 9.1 33.744-5.58 28.884-47.89 58.569-49.689 59.819a2.5 2.5 0 0 1-1.432.444zM24.392 23.966a24.692 24.692 0 0 0-8.439 1.434A15.553 15.553 0 0 0 5.827 36.472c-2.444 8.822.715 20.958 7.685 29.514C25.85 81.134 51.911 93.73 57.987 96.534c6.807-4.957 41.781-31.464 46.49-55.841 1.706-8.831-1.908-22.122-8.056-29.627C94.169 8.318 90.5 5.034 85.82 5h-.12C67.35 5 59.911 36.206 59.838 36.522a2.5 2.5 0 0 1-4.122 1.278c-.178-.159-15.39-13.834-31.324-13.834z"/></g></svg></g><g transform="translate(1868.0 1851.0) rotate(60.0216910084485 63.5 59.0) scale(1.155627542153107 1.1579184943134426)"><svg width="109.897" height="101.907" viewBox="0 0 109.897 101.907"><g fill="#ffd2ed"><path d="M57.4 35.958S65.187 2.351 85.838 2.5c14.47.1 23.8 24.674 21.093 38.667-5.451 28.218-48.66 58.239-48.66 58.239s-32.2-14.048-46.7-31.841C-.048 53.3-2.16 29.281 15.1 23.047c20.208-7.295 42.3 12.911 42.3 12.911z"/><path d="M58.271 101.907a2.511 2.511 0 0 1-1-.208c-1.338-.584-32.928-14.5-47.636-32.554-8.056-9.891-11.523-23.557-8.626-34.008A20.565 20.565 0 0 1 14.255 20.7c17.03-6.147 34.773 5.459 41.769 10.877C58.856 22.381 67.61 0 85.7 0h.16c5.24.038 10.231 2.768 14.432 7.9 7.086 8.649 11.082 23.471 9.1 33.744-5.58 28.884-47.89 58.569-49.689 59.819a2.5 2.5 0 0 1-1.432.444zM24.392 23.966a24.692 24.692 0 0 0-8.439 1.434A15.553 15.553 0 0 0 5.827 36.472c-2.444 8.822.715 20.958 7.685 29.514C25.85 81.134 51.911 93.73 57.987 96.534c6.807-4.957 41.781-31.464 46.49-55.841 1.706-8.831-1.908-22.122-8.056-29.627C94.169 8.318 90.5 5.034 85.82 5h-.12C67.35 5 59.911 36.206 59.838 36.522a2.5 2.5 0 0 1-4.122 1.278c-.178-.159-15.39-13.834-31.324-13.834z"/></g></svg></g><g transform="translate(1912.0 1603.0) rotate(55.785099250159746 -45.5 49.0) scale(-1.1534317764116864 1.1666388895502489)"><svg width="78.895" height="84.002" viewBox="0 0 78.895 84.002"><g fill="#FFD2ED"><path d="M44.344 37.383s21.713-10.205 30.138 3.023c5.9 9.269-2.681 25.785-14.456 32.838C36.281 87.467 11.737 79 11.737 79S-2.89 50.228 4.669 29.854c6.06-16.336 23.479-32.737 35.365-25.665 13.91 8.277 4.31 33.194 4.31 33.194z"/><path d="M29.425 84.04a61.185 61.185 0 0 1-18.5-2.674 2.5 2.5 0 0 1-1.413-1.231c-.621-1.214-15.036-29.993-7.187-51.151C7.01 16.357 17.616 4.647 27.544 1.142c5.033-1.778 9.793-1.466 13.768.9 11.545 6.868 9.134 22.918 6.956 31.172 7.483-2.4 21.424-4.983 28.322 5.849 2.336 3.668 2.911 8.4 1.661 13.689-2.055 8.7-8.863 17.8-16.941 22.636a61.569 61.569 0 0 1-31.885 8.652zm-15.912-7.113c4.648 1.3 25.382 6.06 45.228-5.828C65.735 66.91 71.62 59.074 73.386 51.6c.649-2.749 1-6.691-1.013-9.853-7.136-11.207-26.77-2.194-26.967-2.1a2.5 2.5 0 0 1-3.395-3.161c.088-.23 8.674-23.05-3.256-30.149-2.7-1.6-5.907-1.766-9.547-.48-8.508 3-18.05 13.694-22.195 24.867-6.346 17.103 4.141 41.168 6.5 46.203z"/></g></svg></g><g transform="translate(349.0 1775.0) rotate(-61.83819474159388 -41.5 39.0) scale(-0.7552526456591171 0.7654037504783774)"><svg width="109.897" height="101.907" viewBox="0 0 109.897 101.907"><g fill="#FFDE8A"><path d="M57.4 35.958S65.187 2.351 85.838 2.5c14.47.1 23.8 24.674 21.093 38.667-5.451 28.218-48.66 58.239-48.66 58.239s-32.2-14.048-46.7-31.841C-.048 53.3-2.16 29.281 15.1 23.047c20.208-7.295 42.3 12.911 42.3 12.911z"/><path d="M58.271 101.907a2.511 2.511 0 0 1-1-.208c-1.338-.584-32.928-14.5-47.636-32.554-8.056-9.891-11.523-23.557-8.626-34.008A20.565 20.565 0 0 1 14.255 20.7c17.03-6.147 34.773 5.459 41.769 10.877C58.856 22.381 67.61 0 85.7 0h.16c5.24.038 10.231 2.768 14.432 7.9 7.086 8.649 11.082 23.471 9.1 33.744-5.58 28.884-47.89 58.569-49.689 59.819a2.5 2.5 0 0 1-1.432.444zM24.392 23.966a24.692 24.692 0 0 0-8.439 1.434A15.553 15.553 0 0 0 5.827 36.472c-2.444 8.822.715 20.958 7.685 29.514C25.85 81.134 51.911 93.73 57.987 96.534c6.807-4.957 41.781-31.464 46.49-55.841 1.706-8.831-1.908-22.122-8.056-29.627C94.169 8.318 90.5 5.034 85.82 5h-.12C67.35 5 59.911 36.206 59.838 36.522a2.5 2.5 0 0 1-4.122 1.278c-.178-.159-15.39-13.834-31.324-13.834z"/></g></svg></g></svg>