<svg xmlns="http://www.w3.org/2000/svg" viewBox="0 0 1500 1500" width="1500" height="1500"><g transform="translate(199.0 440.0) rotate(0.0 469.5 461.0) scale(0.9992572081668791 0.9993399153921108)"><svg width="939.698" height="922.609" viewBox="0 0 939.698 922.609"><g fill="#1e1e1e"><path d="M822.769 355.919c-16.328-1.989-386.21 367.511-407.399 374.759s-155.09-41.892-168.142-57.847-45.465-127.366-42.231-151.045c3.235-23.679 390.009-349.005 386.869-367.534-3.141-18.528-84.953-137.956-103.19-151.464C470.438-10.721 12.321 455.413 3.138 492.679s83.437 307.49 102.925 341.064c19.487 33.574 314.661 92.394 347.455 85.865s483.68-407.177 483.68-431.283-98.1-130.417-114.428-132.405z"/><path d="M446.67 922.574c-26.2 0-98.45-11.766-172.419-28.42-47.043-10.591-157.815-37.558-170.351-59.155-10.031-17.283-38.039-93.384-62.432-169.641C23.862 610.32-4.844 514.624.711 492.081c4.774-19.375 118.266-141.319 228.625-253.576C339.885 126.055 461.726 8.88 484.725.593c.863-.311 3.49-1.257 5.438.186 19.229 14.243 101.004 134.399 104.167 153.056.647 3.818-3.464 11.968-60.144 64.828-36.29 33.843-85.771 78.157-133.623 121.013-47.241 42.308-96.09 86.056-132.337 119.808-52.033 48.451-60.397 60.043-60.752 62.641-3.199 23.42 29.731 134.506 41.689 149.124 5.702 6.969 39.313 22.467 79.92 36.851 42.482 15.047 76.833 23.171 85.479 20.213 9.277-3.173 97.465-87.654 182.75-169.353 51.996-49.809 105.761-101.315 147.607-140.217 71.154-66.148 75.533-65.624 78.153-65.305 9.723 1.184 40.459 31.273 64.902 58.728 12.134 13.629 51.724 59.4 51.724 76.159 0 2.629 0 9.612-71.732 78.443-41.196 39.53-97.538 91.258-158.647 145.657C623.971 788.4 474.154 918.049 454.007 922.06c-1.739.346-4.213.514-7.336.514zM487.455 5c-2.606.137-16.084 6.181-84.36 69.893-44.131 41.182-102.047 97.965-163.078 159.89C108.09 368.641 9.489 477.354 5.566 493.277 1.78 508.64 16.983 572.4 46.231 663.834c23.891 74.684 52.281 151.918 61.994 168.654 7.891 13.595 71.929 35.354 167.125 56.787 80.822 18.197 162.188 30.965 177.68 27.881 13.966-2.781 119.959-90.103 252.03-207.634 60.873-54.172 117.133-105.8 158.416-145.375 65.379-62.674 71.044-73.902 71.224-75.85 0-9.788-19.807-38.377-50.459-72.806-30.696-34.478-55.281-55.956-61.601-57.064-3.438.813-19.546 13.003-76.197 65.728-41.542 38.663-94.479 89.374-145.672 138.415C492.339 666.443 425.807 729.75 416.18 733.043c-1.715.587-3.984.852-6.679.852-20.777.001-66.998-15.738-82.087-21.083-35.538-12.588-74.712-29.343-82.121-38.398-7.673-9.38-19.713-45.47-27.692-73.525-8.469-29.777-16.878-66.284-15.081-79.441 1.614-11.819 74.637-77.964 194.708-185.497 47.051-42.138 95.704-85.71 131.758-119.276 51.179-47.647 59.866-59.419 60.388-62.156-3.377-17.88-83.39-135.226-101.918-149.518z"/></g></svg></g><g transform="translate(147.0 355.0) rotate(0.0 492.0 483.0) scale(0.9995784298288832 0.9994733623794502)"><svg width="984.415" height="966.509" viewBox="0 0 984.415 966.509"><path d="M214.685 546.63c3.389-24.812 408.668-365.702 405.377-385.117S531.045 16.957 511.935 2.802C492.825-11.353 12.791 477.081 3.169 516.13s87.429 322.2 107.849 357.381l147.918-168.61c-13.676-16.718-47.641-133.46-44.251-158.271z" fill="#3054e5"/><path d="M111.018 876.011a2.5 2.5 0 0 1-2.162-1.245c-10.508-18.104-39.85-97.835-65.409-177.733C28.598 650.614-5.289 540.005.742 515.532c4.997-20.28 123.905-148.036 239.532-265.652C356.101 132.06 483.754 9.292 507.836.615c.889-.32 3.595-1.296 5.586.178 20.14 14.918 105.792 140.763 109.104 160.302.643 3.794-3.641 12.478-62.985 67.822-38.024 35.461-89.872 81.895-140.013 126.8-49.501 44.332-100.688 90.174-138.67 125.542-54.55 50.794-63.322 62.972-63.696 65.71-1.463 10.714 4.681 42.567 15.654 81.148 10.5 36.921 22.037 67.845 28.056 75.202a2.5 2.5 0 0 1-.056 3.232l-147.918 168.61a2.5 2.5 0 0 1-1.879.851zM510.692 4.996c-2.637.065-16.527 6.114-88.268 73.043C376.201 121.162 315.5 180.67 251.502 245.601 113.133 385.986 9.715 500.011 5.596 516.728c-3.972 16.119 11.958 82.953 42.613 178.781 23.784 74.352 51.827 151.12 63.301 173.65l144.223-164.398c-8.041-11.94-19.797-47.395-27.727-75.277-8.871-31.19-17.679-69.424-15.798-83.193 1.686-12.344 78.189-81.64 203.985-194.3 49.353-44.2 100.386-89.904 138.18-125.093 53.736-50.033 62.721-62.29 63.2-65.105-3.475-18.674-87.517-141.932-106.88-156.797z" fill="#3054e5"/><path d="M862.012 372.828c-17.11-2.084-404.687 385.093-426.89 392.688-22.202 7.595-162.51-43.896-176.187-60.614l-147.918 168.61c20.419 35.181 329.715 96.814 364.078 89.973 34.363-6.842 506.82-426.658 506.82-451.917s-102.793-136.656-119.903-138.74z" fill="#ffa9d8"/><path d="M467.908 966.474c-27.436.001-103.128-12.33-180.629-29.779C238 925.6 121.967 897.356 108.856 874.766a2.5 2.5 0 0 1 .283-2.904l147.918-168.61a2.5 2.5 0 0 1 3.814.066c5.986 7.318 41.228 23.573 83.796 38.651 44.538 15.776 80.567 24.288 89.646 21.181 9.746-3.334 102.163-91.865 191.537-177.481 54.483-52.192 110.821-106.161 154.668-146.924 74.527-69.283 79.078-68.731 81.796-68.399 10.157 1.237 42.334 32.746 67.933 61.498 12.708 14.273 54.168 62.204 54.168 79.723 0 2.741 0 10.021-75.127 82.11-43.166 41.42-102.202 95.622-166.234 152.622-119.838 106.677-249.018 215.962-267.47 219.636-1.82.362-4.408.537-7.676.538zm-353.722-92.783c11.723 14.338 77.686 36.399 174.19 58.126 84.703 19.071 169.985 32.449 186.23 29.215 14.662-2.919 125.825-94.498 264.321-217.754 63.823-56.8 122.782-110.91 166.017-152.363 68.493-65.67 74.318-77.351 74.472-79.367 0-10.294-20.766-40.282-52.903-76.379-32.217-36.187-58.032-58.716-64.643-59.836-3.537.779-20.347 13.468-79.815 68.812-43.545 40.526-99.059 93.706-152.745 145.135-113.607 108.83-183.313 175.159-193.377 178.602-1.79.612-4.159.889-6.972.889-21.733.001-70.156-16.489-85.962-22.088-34.662-12.278-72.622-28.334-83.937-38.133L114.187 873.691z" fill="#ffa9d8"/><path d="M538.126 33.063c-11.53-15.134-21.166-26.538-26.192-30.261C492.825-11.353 12.791 477.081 3.169 516.13c-2.883 11.7 3.813 45.318 15.152 87.611 5.665-25.023 14.485-59.557 24.149-80.984 14.71-32.614 408.456-407.01 495.655-489.694z" fill="#668bff"/><path d="M18.321 606.241a2.5 2.5 0 0 1-2.414-1.853C3.092 556.595-2.01 526.699.742 515.531c4.997-20.28 123.904-148.036 239.532-265.652C356.101 132.06 483.754 9.292 507.836.615c.889-.32 3.596-1.296 5.586.178 6.188 4.584 17.931 19.255 26.692 30.755a2.5 2.5 0 0 1-.269 3.329C459.73 110.845 59.335 491.448 44.75 523.785c-9.563 21.201-18.324 55.483-23.99 80.509a2.502 2.502 0 0 1-2.389 1.948h-.05zM510.691 4.996c-2.637.065-16.527 6.114-88.268 73.044-46.223 43.123-106.924 102.631-170.922 167.562C113.133 385.986 9.715 500.011 5.596 516.728c-1.65 6.698-.675 25.516 12.568 76.617 5.659-23.843 13.508-52.728 22.027-71.617C54.715 489.526 420.18 141.469 534.774 32.794 523.559 18.173 515.06 8.361 510.691 4.995z" fill="#668bff"/><g fill="#e075b5"><path d="M401.342 956.424c36.737 5.929 64.729 8.857 73.753 7.061 34.363-6.842 506.82-426.658 506.82-451.917 0-2.912-1.381-6.981-3.825-11.884-166.78 162.665-451.439 395.88-494.465 420.12-18.885 10.64-58.535 27.073-82.284 36.62z"/><path d="M467.621 966.503c-16.699 0-47.696-4.548-66.677-7.612a2.5 2.5 0 0 1-.534-4.788c22.477-9.036 63.016-25.789 81.99-36.479 21.815-12.291 104.242-77.217 200.445-157.888 113.446-95.13 220.423-190.569 293.501-261.843a2.5 2.5 0 0 1 3.983.675c2.75 5.518 4.087 9.77 4.087 12.999 0 2.741 0 10.021-75.127 82.11-43.166 41.42-102.202 95.622-166.234 152.622-119.838 106.677-249.018 215.963-267.47 219.636-1.975.393-4.697.567-7.963.567zm-56.981-11.144c33.281 5.123 56.37 7.185 63.968 5.673 14.662-2.919 125.825-94.498 264.321-217.754 63.823-56.8 122.782-110.91 166.017-152.363 68.493-65.67 74.318-77.351 74.472-79.367 0-1.317-.403-3.661-2.103-7.617-164.39 159.89-447.641 392.8-492.46 418.05-17.032 9.596-50.984 23.921-74.214 33.378z"/></g></svg></g><g transform="translate(1067.0 402.0) rotate(0.0 142.0 198.5) scale(0.9979689224044024 0.9981721130323061)"><svg width="284.578" height="397.727" viewBox="0 0 284.578 397.727"><g fill="#aef45d"><path d="M3.099 280.799c-4.239 0 15.308-116.394 18.382-119.759 3.075-3.365 78.513-3.166 78.513-3.166s-6.82-63.206-2.979-67.037 103.759-10.673 103.759-10.673S260.226.4 264.151 2.542s-29.055 108.575-32.924 110.704c-3.87 2.129-99.576 4.303-99.576 4.303s22.152 74.769 18.804 80.969c-3.349 6.2-104.871 2.857-104.871 2.857S7.337 280.798 3.098 280.798z"/><path d="M3.099 283.299c-.876 0-2.019-.468-2.598-1.78-1.883-4.272 2.764-36.242 6.993-62.308 2.156-13.284 9.401-56.859 12.141-59.857 1.117-1.222 2.646-2.896 42.207-3.658 14.747-.284 29.414-.321 35.376-.323-.542-5.259-1.734-17.251-2.647-29.392-2.536-33.707-.601-35.636.679-36.913 1.139-1.136 3.045-3.037 54.871-7.494 22.127-1.903 44.141-3.461 49.336-3.824 3.104-4.151 16.223-21.644 29.563-38.738 8.937-11.451 16.229-20.491 21.671-26.868C261.176-.139 263.123-.866 265.349.348c1.622.885 1.625 2.838 1.626 3.48.012 6.884-7.924 35.163-15.356 59.331-4.025 13.09-8.036 25.417-11.293 34.71-5.744 16.385-6.836 16.986-7.894 17.568-3.834 2.109-66.988 3.827-97.466 4.537 1.792 6.151 5.915 20.477 9.76 35.1 10.49 39.89 8.76 43.094 7.928 44.634-1.117 2.067-2.817 5.19-55.896 5.065-21.835-.051-43.609-.665-49.629-.847-2.4 4.959-10.544 21.718-18.969 38.295C7.282 283.3 5.25 283.3 3.098 283.3zm20.253-120.412c-1.493 4.11-6.09 27.289-11.002 57.622-4.48 27.663-6.705 45.596-7.241 53.937 7.185-11.513 23.785-44.17 38.224-74.155a2.536 2.536 0 0 1 2.334-1.414c46.11 1.518 96.433 1.248 102.618-1.783.956-5.93-8.789-44.269-19.03-78.835a2.5 2.5 0 0 1 2.34-3.209c34.885-.793 91.257-2.549 98.186-3.975 2.065-3.502 9.323-23.955 18.117-52.84 7.76-25.487 12.313-43.115 13.665-50.762-9.407 9.569-35.67 43.176-58.783 74.185a2.5 2.5 0 0 1-1.833 1c-36.287 2.485-95.184 7.34-102.083 10.007-1.588 4.977.548 36.491 3.618 64.94a2.499 2.499 0 0 1-2.485 2.768h-.006c-33.474-.088-70.955.763-76.636 2.514zm67.3 209.491c-1.455 5.478 71.926 25.464 76.561 22.562s14.918-61.022 14.918-61.022 59.554 5.795 64.792 3.97c5.238-1.826 38.497-69.841 34.881-73.28-3.615-3.439-50.831 42.809-50.831 42.809s-73.609-23.998-78.806-20.645-10.707 73.436-10.707 73.436-49.352 6.693-50.807 12.171z"/><path d="M165.388 397.728c-1.99 0-5.24-.375-10.871-1.48-6.444-1.264-14.838-3.279-23.636-5.674-16.013-4.359-35.06-10.445-40.492-14.452-1.841-1.358-2.565-2.833-2.153-4.385.665-2.503 3.367-5.334 27.902-9.955 9.494-1.788 18.977-3.197 22.991-3.771.423-5.116 1.637-19.271 3.25-33.544 4.188-37.057 6.844-38.771 8.431-39.795 1.575-1.016 4.208-2.716 43.41 8.766 15.828 4.636 31.377 9.616 36.087 11.136 3.205-3.114 13.025-12.602 23.044-21.701 7.162-6.505 13.031-11.551 17.446-14.997 7.513-5.865 10.605-7.098 12.729-5.079 1.375 1.309 1.141 3.433.729 5.339-1.699 7.874-10.223 26.626-17.006 40.291-9.967 20.079-16.53 30.786-19.505 31.823-5.077 1.771-47.312-2.061-63.562-3.621-.852 4.682-2.932 15.907-5.328 27.23-6.52 30.824-8.896 32.312-10.316 33.201-.569.356-1.337.669-3.151.669zM94.06 372.605c3.874 2.366 16.188 7.006 34.709 12.198 19.317 5.415 33.94 8.25 37.113 7.924 2.791-4.068 9.132-32.936 13.787-59.244a2.503 2.503 0 0 1 2.704-2.053c27.899 2.715 59.355 5.057 63.578 4.134 2.171-1.8 9.775-14.768 19.032-33.869 8.032-16.572 12.856-28.604 14.209-33.752-7.401 4.563-28.186 23.351-46.47 41.26a2.499 2.499 0 0 1-2.524.591c-33.591-10.951-70.896-21.573-76.635-20.847-2.872 4.691-7.107 39.61-9.611 71.457a2.5 2.5 0 0 1-2.156 2.281c-19.657 2.666-42.027 7.001-47.735 9.92zm-3.408-.227 2.416.642z"/></g></svg></g><g transform="translate(716.0 137.0) rotate(0.0 178.0 157.5) scale(0.9991552086578483 0.9985386466155879)"><svg width="356.301" height="315.461" viewBox="0 0 356.301 315.461"><g fill="#aef45d"><path d="M59.871 293.134c-1.051 3.736 92.628 24.095 97.147 19.019 3.892-4.371 14.555-52.494 14.555-52.494s74.715 17.137 79.802 13.4c5.087-3.738 22.479-68.556 22.479-68.556s80.548-33.533 79.943-38.633-99.972 9.258-105.596 10.913-25.362 61.477-25.362 61.477-79.212-24.839-83.43-22.647-25.947 63.959-25.947 63.959-52.54 9.826-53.591 13.562z"/><path d="M152.226 315.417c-6.044 0-17.891-1.321-41.73-6.077-21.094-4.209-45.348-10.057-50.891-13.091-2.418-1.324-2.379-2.944-2.141-3.792.523-1.857 1.063-3.777 29.059-9.946 10.637-2.344 21.301-4.41 25.062-5.127 1.46-4.119 6.043-16.964 10.932-29.855 12.257-32.324 14.353-33.413 15.74-34.133 1.406-.73 3.529-1.832 45.151 10.32 16.078 4.694 31.991 9.611 37.837 11.429 1.614-4.808 5.535-16.338 9.824-27.873 11.711-31.498 14.664-32.367 16.428-32.886 3.101-.913 28.621-4.768 52.881-7.8 49.896-6.236 53.129-4.103 54.509-3.192.794.524 1.29 1.299 1.394 2.182.292 2.463.594 5.01-41.202 23.804-17.17 7.721-34.588 15.056-39.127 16.957-5.479 20.351-17.967 64.97-23.095 68.737-1.521 1.117-4.065 2.987-43.773-4.86-15.071-2.978-29.906-6.275-35.615-7.561-3.048 13.588-10.821 46.939-14.582 51.163-.543.611-1.427 1.601-6.659 1.601zM65.08 293.141c6.863 2.373 23.065 6.531 42.99 10.607 27.122 5.549 44.079 7.453 47.244 6.518 2.359-3.622 8.804-28.519 13.818-51.147a2.5 2.5 0 0 1 3-1.895c34.552 7.925 72.837 15.17 77.842 13.739 3.062-3.406 13.292-36.645 21.466-67.107a2.5 2.5 0 0 1 1.454-1.66c27.072-11.27 64.945-28.09 75.787-34.915-5.272-.095-18.021.536-48.712 4.395-25.152 3.163-47.736 6.682-50.865 7.454-3.57 2.994-14.896 32.654-23.891 59.914a2.5 2.5 0 0 1-3.122 1.602c-35.456-11.118-75.354-22.62-81.531-22.682-3.53 4.597-16.439 38.841-24.74 62.438a2.5 2.5 0 0 1-1.899 1.628c-19.498 3.647-40.68 8.333-48.841 11.112zM2.784 233.825c-2.959-5.641 18.073-93.967 21.92-96.568s73.377-7.787 73.377-7.787 20.187-74.5 25.377-77.634 99.057 6.541 99.057 6.541S285.019-.153 288.84 2.593c3.822 2.746-33.237 94.508-36.88 98.749-3.644 4.241-89.988-1.309-89.988-1.309s-15.578 73.431-21.134 77.881c-5.556 4.449-92.834 6.832-92.834 6.832S5.743 239.465 2.783 233.824z"/><path d="M3.688 236.748c-.186 0-.352-.015-.509-.028a3.21 3.21 0 0 1-2.609-1.733c-2.118-4.036 3.283-30.044 8.187-51.151 2.754-11.857 5.623-23.173 8.078-31.865 4.332-15.339 5.517-16.14 6.47-16.784 3.863-2.612 50.859-6.423 72.831-8.077 1.381-5.04 5.644-20.471 10.294-35.998 11.668-38.958 14.315-40.556 15.737-41.415 1.377-.831 3.938-2.378 52.977 1.744 20.885 1.755 41.515 3.828 46.497 4.335 3.453-3.22 17.099-15.902 30.946-28.189 9.382-8.325 17.027-14.849 22.721-19.389C285.762-.138 288.289-.88 290.301.565c.498.358 1.124 1.055 1.278 2.342.63 5.273-8.91 31.142-17.023 51.914-7.156 18.32-18.308 45.371-20.697 48.152-1.221 1.42-3.064 3.566-48.354 1.805-17.817-.693-35.522-1.744-41.538-2.114-1.159 5.373-4.4 20.204-8.047 35.232-9.379 38.657-12.174 40.895-13.517 41.971-1.332 1.066-4.103 3.285-49.936 5.63-19.328.989-38.356 1.574-43.21 1.716-2.446 3.143-10.704 13.69-19.392 24.076-19.834 23.708-24.143 25.459-26.175 25.459zm22.591-97.461c-1.717 3.045-6.926 20.98-12.744 46.071-5.491 23.682-8.255 39.61-8.539 45.393 6.56-4.969 25.054-26.848 41.029-47.533a2.5 2.5 0 0 1 1.91-.971c40.917-1.117 86.69-3.699 91.342-6.295 3.292-3.612 12.857-41.596 20.249-76.438a2.506 2.506 0 0 1 2.606-1.976c38.928 2.502 82.588 4.009 88.085 1.952 1.901-2.988 10.546-23.084 19.832-46.881 9.7-24.857 14.815-40.207 16.19-46.366-9.14 5.879-37.285 30.8-62.015 53.958a2.493 2.493 0 0 1-1.965.662c-34.607-3.567-91.158-8.53-97.473-6.865-3.724 4.418-16.38 46.927-24.292 76.125a2.5 2.5 0 0 1-2.227 1.839c-25.336 1.89-66.582 5.499-71.988 7.324z"/></g></svg></g><g transform="translate(815.0 420.0) rotate(95.87503126203781 64.5 60.0) scale(1.173826401084652 1.177544231505196)"><svg width="109.897" height="101.907" viewBox="0 0 109.897 101.907"><g fill="#FFA9D8"><path d="M57.4 35.958S65.187 2.351 85.838 2.5c14.47.1 23.8 24.674 21.093 38.667-5.451 28.218-48.66 58.239-48.66 58.239s-32.2-14.048-46.7-31.841C-.048 53.3-2.16 29.281 15.1 23.047c20.208-7.295 42.3 12.911 42.3 12.911z"/><path d="M58.271 101.907a2.511 2.511 0 0 1-1-.208c-1.338-.584-32.928-14.5-47.636-32.554-8.056-9.891-11.523-23.557-8.626-34.008A20.565 20.565 0 0 1 14.255 20.7c17.03-6.147 34.773 5.459 41.769 10.877C58.856 22.381 67.61 0 85.7 0h.16c5.24.038 10.231 2.768 14.432 7.9 7.086 8.649 11.082 23.471 9.1 33.744-5.58 28.884-47.89 58.569-49.689 59.819a2.5 2.5 0 0 1-1.432.444zM24.392 23.966a24.692 24.692 0 0 0-8.439 1.434A15.553 15.553 0 0 0 5.827 36.472c-2.444 8.822.715 20.958 7.685 29.514C25.85 81.134 51.911 93.73 57.987 96.534c6.807-4.957 41.781-31.464 46.49-55.841 1.706-8.831-1.908-22.122-8.056-29.627C94.169 8.318 90.5 5.034 85.82 5h-.12C67.35 5 59.911 36.206 59.838 36.522a2.5 2.5 0 0 1-4.122 1.278c-.178-.159-15.39-13.834-31.324-13.834z"/></g></svg></g><g transform="translate(992.0 192.0) rotate(54.39246016258715 88.5 85.5) scale(0.640133089817544 0.6401856912882333)"><svg width="276.505" height="267.11" viewBox="0 0 276.505 267.11"><ellipse cx="138.252" cy="133.555" fill="#ffd04d" rx="130.696" ry="136.036" transform="matrix(.24510434 -.96949671 .96949671 .24510434 -25.115 234.855)"/><path d="M140.809 267.093c-11.603 0-23.411-1.424-35.204-4.405C31.546 243.964-14.059 170.803 3.942 99.599 21.944 28.395 96.84-14.301 170.9 4.422c35.857 9.065 66.18 31.01 85.383 61.79 19.223 30.813 25.004 66.788 16.279 101.299-15.135 59.865-70.494 99.582-131.753 99.582zM135.693 5.017c-59.027 0-112.339 38.202-126.903 95.807-17.326 68.531 26.655 138.968 98.041 157.016a138.563 138.563 0 0 0 33.981 4.252c59.027.002 112.339-38.201 126.903-95.807 8.389-33.179 2.822-67.78-15.674-97.427-18.516-29.679-47.768-50.842-82.367-59.589a138.563 138.563 0 0 0-33.981-4.252z" fill="#ffd04d"/><path d="M172.732 125.699c5.801 1.831 11.988-1.41 13.809-7.216 4.731-15.086 1.547-30.082-8.736-41.142-3.359-3.612-7.349-6.628-11.704-8.987l3.033-11.998c1.491-5.899-2.081-11.89-7.981-13.381-5.899-1.491-11.89 2.081-13.381 7.981l-2.923 11.56c-3.826-.137-7.642.194-11.325 1.06-13.75 3.235-24.035 13.225-28.219 27.408-4.727 16.023-3.457 37.958 29.429 51.458 13.412 5.506 18.186 14.805 14.594 28.426-4.333 16.431-20.311 13.216-23.446 12.383-7.151-1.847-19.756-8.974-16.278-22.731 1.491-5.899-2.081-11.89-7.981-13.381-5.899-1.491-11.89 2.081-13.381 7.981-5.227 20.673 6.177 37.28 21.709 45.43l-2.58 10.204c-1.491 5.899 2.081 11.89 7.981 13.381 5.899 1.491 11.89-2.081 13.381-7.981l2.554-10.102c16.929.266 33.876-8.824 39.346-29.566 6.426-24.366-3.867-44.713-27.532-54.428-17.819-7.315-19.586-14.928-16.663-24.841 1.964-6.659 6.046-10.761 12.132-12.193 7.87-1.851 17.369 1.158 23.096 7.319 4.951 5.325 6.246 11.901 3.849 19.546-1.821 5.806 1.41 11.988 7.216 13.809z" fill="#d3a32d"/></svg></g><g transform="translate(910.0 524.0) rotate(0.0 138.0 133.5) scale(0.9981736315798991 0.9995881846430309)"><svg width="276.505" height="267.11" viewBox="0 0 276.505 267.11"><ellipse cx="138.252" cy="133.555" fill="#ffd04d" rx="130.696" ry="136.036" transform="matrix(.24510434 -.96949671 .96949671 .24510434 -25.115 234.855)"/><path d="M140.809 267.093c-11.603 0-23.411-1.424-35.204-4.405C31.546 243.964-14.059 170.803 3.942 99.599 21.944 28.395 96.84-14.301 170.9 4.422c35.857 9.065 66.18 31.01 85.383 61.79 19.223 30.813 25.004 66.788 16.279 101.299-15.135 59.865-70.494 99.582-131.753 99.582zM135.693 5.017c-59.027 0-112.339 38.202-126.903 95.807-17.326 68.531 26.655 138.968 98.041 157.016a138.563 138.563 0 0 0 33.981 4.252c59.027.002 112.339-38.201 126.903-95.807 8.389-33.179 2.822-67.78-15.674-97.427-18.516-29.679-47.768-50.842-82.367-59.589a138.563 138.563 0 0 0-33.981-4.252z" fill="#ffd04d"/><path d="M172.732 125.699c5.801 1.831 11.988-1.41 13.809-7.216 4.731-15.086 1.547-30.082-8.736-41.142-3.359-3.612-7.349-6.628-11.704-8.987l3.033-11.998c1.491-5.899-2.081-11.89-7.981-13.381-5.899-1.491-11.89 2.081-13.381 7.981l-2.923 11.56c-3.826-.137-7.642.194-11.325 1.06-13.75 3.235-24.035 13.225-28.219 27.408-4.727 16.023-3.457 37.958 29.429 51.458 13.412 5.506 18.186 14.805 14.594 28.426-4.333 16.431-20.311 13.216-23.446 12.383-7.151-1.847-19.756-8.974-16.278-22.731 1.491-5.899-2.081-11.89-7.981-13.381-5.899-1.491-11.89 2.081-13.381 7.981-5.227 20.673 6.177 37.28 21.709 45.43l-2.58 10.204c-1.491 5.899 2.081 11.89 7.981 13.381 5.899 1.491 11.89-2.081 13.381-7.981l2.554-10.102c16.929.266 33.876-8.824 39.346-29.566 6.426-24.366-3.867-44.713-27.532-54.428-17.819-7.315-19.586-14.928-16.663-24.841 1.964-6.659 6.046-10.761 12.132-12.193 7.87-1.851 17.369 1.158 23.096 7.319 4.951 5.325 6.246 11.901 3.849 19.546-1.821 5.806 1.41 11.988 7.216 13.809z" fill="#d3a32d"/></svg></g><g transform="translate(1350.0 541.0) rotate(45.67012412687338 -44.5 41.5) scale(-0.8098492224537521 0.8144680934577605)"><svg width="109.897" height="101.907" viewBox="0 0 109.897 101.907"><g fill="#668BFF"><path d="M57.4 35.958S65.187 2.351 85.838 2.5c14.47.1 23.8 24.674 21.093 38.667-5.451 28.218-48.66 58.239-48.66 58.239s-32.2-14.048-46.7-31.841C-.048 53.3-2.16 29.281 15.1 23.047c20.208-7.295 42.3 12.911 42.3 12.911z"/><path d="M58.271 101.907a2.511 2.511 0 0 1-1-.208c-1.338-.584-32.928-14.5-47.636-32.554-8.056-9.891-11.523-23.557-8.626-34.008A20.565 20.565 0 0 1 14.255 20.7c17.03-6.147 34.773 5.459 41.769 10.877C58.856 22.381 67.61 0 85.7 0h.16c5.24.038 10.231 2.768 14.432 7.9 7.086 8.649 11.082 23.471 9.1 33.744-5.58 28.884-47.89 58.569-49.689 59.819a2.5 2.5 0 0 1-1.432.444zM24.392 23.966a24.692 24.692 0 0 0-8.439 1.434A15.553 15.553 0 0 0 5.827 36.472c-2.444 8.822.715 20.958 7.685 29.514C25.85 81.134 51.911 93.73 57.987 96.534c6.807-4.957 41.781-31.464 46.49-55.841 1.706-8.831-1.908-22.122-8.056-29.627C94.169 8.318 90.5 5.034 85.82 5h-.12C67.35 5 59.911 36.206 59.838 36.522a2.5 2.5 0 0 1-4.122 1.278c-.178-.159-15.39-13.834-31.324-13.834z"/></g></svg></g><g transform="translate(792.0 123.0) rotate(52.057160535032644 -86.5 93.5) scale(-2.1927878826288105 2.2261374729173116)"><svg width="78.895" height="84.002" viewBox="0 0 78.895 84.002"><g fill="#FFA9D8"><path d="M44.344 37.383s21.713-10.205 30.138 3.023c5.9 9.269-2.681 25.785-14.456 32.838C36.281 87.467 11.737 79 11.737 79S-2.89 50.228 4.669 29.854c6.06-16.336 23.479-32.737 35.365-25.665 13.91 8.277 4.31 33.194 4.31 33.194z"/><path d="M29.425 84.04a61.185 61.185 0 0 1-18.5-2.674 2.5 2.5 0 0 1-1.413-1.231c-.621-1.214-15.036-29.993-7.187-51.151C7.01 16.357 17.616 4.647 27.544 1.142c5.033-1.778 9.793-1.466 13.768.9 11.545 6.868 9.134 22.918 6.956 31.172 7.483-2.4 21.424-4.983 28.322 5.849 2.336 3.668 2.911 8.4 1.661 13.689-2.055 8.7-8.863 17.8-16.941 22.636a61.569 61.569 0 0 1-31.885 8.652zm-15.912-7.113c4.648 1.3 25.382 6.06 45.228-5.828C65.735 66.91 71.62 59.074 73.386 51.6c.649-2.749 1-6.691-1.013-9.853-7.136-11.207-26.77-2.194-26.967-2.1a2.5 2.5 0 0 1-3.395-3.161c.088-.23 8.674-23.05-3.256-30.149-2.7-1.6-5.907-1.766-9.547-.48-8.508 3-18.05 13.694-22.195 24.867-6.346 17.103 4.141 41.168 6.5 46.203z"/></g></svg></g></svg>