<svg xmlns="http://www.w3.org/2000/svg" viewBox="0 0 1800 1800" width="1800" height="1800"><g transform="translate(424.0 404.0) rotate(0.0 280.0 204.5) scale(1.0071942446043165 1.0073891625615763)"><svg width="556" height="406" viewBox="0 0 556 406"><path d="M361.565 405h-212.13a7.435 7.435 0 0 1-7.435-7.435v-11.13a7.435 7.435 0 0 1 7.435-7.435h212.13a7.435 7.435 0 0 1 7.435 7.435v11.13a7.435 7.435 0 0 1-7.435 7.435z" fill="#9797f7"/><path d="M361.565 406h-212.13c-4.65 0-8.435-3.784-8.435-8.435v-11.131c0-4.65 3.784-8.435 8.435-8.435h212.13c4.651 0 8.436 3.784 8.436 8.435v11.131c-.001 4.651-3.785 8.435-8.436 8.435zm-212.13-26a6.443 6.443 0 0 0-6.435 6.435v11.131a6.443 6.443 0 0 0 6.435 6.435h212.13a6.443 6.443 0 0 0 6.436-6.435v-11.131a6.443 6.443 0 0 0-6.436-6.435z" fill="#112c41"/><path d="M242 255h95v150h-95z" fill="#b2b0f7"/><path d="M337 406h-95a1 1 0 0 1-1-1V255a1 1 0 0 1 1-1h95a1 1 0 0 1 1 1v150a1 1 0 0 1-1 1zm-94-2h93V256h-93z" fill="#112c41"/><path d="M512.457 308H20.543C9.75 308 1 299.25 1 288.457V20.543C1 9.75 9.75 1 20.543 1h491.913C523.25 1 532 9.75 532 20.543v267.913C532 299.25 523.25 308 512.457 308z" fill="#9797f7"/><path d="M512.456 309H20.543C9.216 309 0 299.784 0 288.456V20.543C0 9.216 9.216 0 20.543 0h491.913C523.785 0 533 9.216 533 20.543v267.913c0 11.328-9.215 20.544-20.544 20.544zM20.543 2C10.319 2 2 10.319 2 20.543v267.913C2 298.682 10.319 307 20.543 307h491.913c10.226 0 18.544-8.318 18.544-18.544V20.543C531 10.319 522.682 2 512.456 2z" fill="#112c41"/><path d="M535.457 308H43.543C32.75 308 24 299.25 24 288.457V20.543C24 9.75 32.75 1 43.543 1h491.913C546.25 1 555 9.75 555 20.543v267.913C555 299.25 546.25 308 535.457 308z" fill="#b2b0f7"/><path d="M535.456 309H43.543C32.216 309 23 299.784 23 288.456V20.543C23 9.216 32.216 0 43.543 0h491.913C546.785 0 556 9.216 556 20.543v267.913c0 11.328-9.215 20.544-20.544 20.544zM43.543 2C33.319 2 25 10.319 25 20.543v267.913C25 298.682 33.319 307 43.543 307h491.913c10.226 0 18.544-8.318 18.544-18.544V20.543C554 10.319 545.682 2 535.456 2z" fill="#112c41"/><path d="M519.722 282H58.37a6.37 6.37 0 0 1-6.37-6.37V33.37A6.37 6.37 0 0 1 58.37 27h461.353a6.37 6.37 0 0 1 6.37 6.37v242.26a6.372 6.372 0 0 1-6.371 6.37z" fill="#fff"/><path d="M519.722 283H58.37c-4.063 0-7.369-3.307-7.369-7.37V33.369C51 29.306 54.306 26 58.37 26h461.353c4.063 0 7.37 3.306 7.37 7.369V275.63c-.001 4.064-3.307 7.37-7.371 7.37zM58.37 28A5.375 5.375 0 0 0 53 33.369V275.63a5.375 5.375 0 0 0 5.369 5.37h461.353a5.376 5.376 0 0 0 5.37-5.37V33.369a5.375 5.375 0 0 0-5.37-5.369z" fill="#112c41"/><path d="M519.722 283H58.37c-4.063 0-7.369-3.307-7.369-7.37V33.369C51 29.306 54.306 26 58.37 26h461.353c4.063 0 7.37 3.306 7.37 7.369V275.63c-.001 4.064-3.307 7.37-7.371 7.37zM58.37 28A5.375 5.375 0 0 0 53 33.369V275.63a5.375 5.375 0 0 0 5.369 5.37h461.353a5.376 5.376 0 0 0 5.37-5.37V33.369a5.375 5.375 0 0 0-5.37-5.369z" fill="#112c41"/><path d="M394.565 405h-212.13a7.435 7.435 0 0 1-7.435-7.435v-11.13a7.435 7.435 0 0 1 7.435-7.435h212.13a7.435 7.435 0 0 1 7.435 7.435v11.13a7.435 7.435 0 0 1-7.435 7.435z" fill="#b2b0f7"/><path d="M394.565 406h-212.13c-4.65 0-8.435-3.784-8.435-8.435v-11.131c0-4.65 3.784-8.435 8.435-8.435h212.13c4.651 0 8.436 3.784 8.436 8.435v11.131c-.001 4.651-3.785 8.435-8.436 8.435zm-212.13-26a6.443 6.443 0 0 0-6.435 6.435v11.131a6.443 6.443 0 0 0 6.435 6.435h212.13a6.443 6.443 0 0 0 6.436-6.435v-11.131a6.443 6.443 0 0 0-6.436-6.435z" fill="#112c41"/></svg></g><g transform="translate(921.0 1488.0) rotate(0.0 264.0 34.5) scale(1.2873213475913925 1.2753923217685441)"><svg width="410.154" height="54.101" viewBox="0 0 410.154 54.101"><ellipse cx="205.077" cy="27.05" fill="#cbc8ff" rx="205.077" ry="27.05"/></svg></g><g transform="translate(1201.0 1067.0) rotate(0.0 146.5 227.5) scale(1.0034246575342465 1.0044150110375276)"><svg width="292" height="453" viewBox="0 0 292 453"><path d="M146 437a7 7 0 0 1-7-7V44a7 7 0 1 1 14 0v386a7 7 0 0 1-7 7z" fill="#9797f7"/><path d="M146 438c-4.411 0-8-3.589-8-8V44c0-4.411 3.589-8 8-8s8 3.589 8 8v386c0 4.411-3.588 8-8 8zm0-400c-3.309 0-6 2.691-6 6v386c0 3.309 2.691 6 6 6s6-2.691 6-6V44c0-3.308-2.691-6-6-6z" fill="#112c41"/><path d="M234 437a7 7 0 0 1-7-7v-32.195a5.811 5.811 0 0 0-5.805-5.805H71.805A5.811 5.811 0 0 0 66 397.805V427a7 7 0 1 1-14 0v-29.195C52 386.885 60.885 378 71.805 378h149.391c10.92 0 19.805 8.885 19.805 19.805V430a7.001 7.001 0 0 1-7.001 7z" fill="#9797f7"/><path d="M234 438c-4.411 0-8-3.589-8-8v-32.195a4.81 4.81 0 0 0-4.805-4.805H71.805A4.81 4.81 0 0 0 67 397.805V427c0 4.411-3.589 8-8 8s-8-3.589-8-8v-29.195C51 386.333 60.333 377 71.805 377h149.391c11.472 0 20.805 9.333 20.805 20.805V430c-.001 4.411-3.589 8-8.001 8zM71.805 391h149.391a6.813 6.813 0 0 1 6.805 6.805V430c0 3.309 2.691 6 6 6s6-2.691 6-6v-32.195c0-10.369-8.436-18.805-18.805-18.805H71.805C61.436 379 53 387.436 53 397.805V427c0 3.309 2.691 6 6 6s6-2.691 6-6v-29.195A6.813 6.813 0 0 1 71.805 391z" fill="#112c41"/><path d="M291 33c0 8.84-3.58 16.84-9.37 22.63S267.84 65 259 65H33C15.33 65 1 50.67 1 33c0-8.84 3.58-16.84 9.37-22.63S24.16 1 33 1h226c5.26 0 10.23 1.27 14.61 3.52h.01C283.94 9.84 291 20.6 291 33z" fill="#ffa9dc"/><path d="M259 66H33C14.804 66 0 51.197 0 33c0-8.818 3.432-17.106 9.663-23.337C15.895 3.432 24.183 0 33 0h226a33.105 33.105 0 0 1 14.989 3.591c.03.012.061.025.089.04C285.133 9.33 292 20.584 292 33c0 8.817-3.432 17.105-9.663 23.337S267.818 66 259 66zM33 2c-8.283 0-16.069 3.224-21.923 9.077C5.224 16.93 2 24.716 2 33c0 17.094 13.906 31 31 31h226c8.283 0 16.069-3.224 21.923-9.077S290 41.283 290 33c0-11.636-6.422-22.186-16.763-27.553a1.094 1.094 0 0 1-.085-.038A31.1 31.1 0 0 0 259 2z" fill="#112c41"/><path d="M291 33c0 8.84-3.58 16.84-9.37 22.63S267.84 65 259 65H44.52C149 58 230.758 57.576 255 44c25-14 18.6-39.47 18.6-39.47l.01-.01h.01C283.94 9.84 291 20.6 291 33z" fill="#ff90d8"/><path d="M259 66H33C14.804 66 0 51.197 0 33S14.804 0 33 0h226c18.196 0 33 14.804 33 33s-14.803 33-33 33zM33 2C15.907 2 2 15.907 2 33s13.906 31 31 31h226c17.094 0 31-13.906 31-31S276.094 2 259 2z" fill="#112c41"/><circle cx="58.5" cy="429.5" fill="#9797f7" r="22.5"/><path d="M58.5 453C45.542 453 35 442.458 35 429.5S45.542 406 58.5 406 82 416.542 82 429.5 71.458 453 58.5 453zm0-45c-11.855 0-21.5 9.645-21.5 21.5S46.645 451 58.5 451 80 441.356 80 429.5 70.356 408 58.5 408z" fill="#112c41"/><circle cx="146.5" cy="429.5" fill="#9797f7" r="22.5"/><path d="M146.5 453c-12.958 0-23.5-10.542-23.5-23.5s10.542-23.5 23.5-23.5 23.5 10.542 23.5 23.5-10.542 23.5-23.5 23.5zm0-45c-11.855 0-21.5 9.645-21.5 21.5s9.645 21.5 21.5 21.5 21.5-9.645 21.5-21.5-9.644-21.5-21.5-21.5z" fill="#112c41"/><circle cx="234.5" cy="429.5" fill="#9797f7" r="22.5"/><path d="M234.5 453c-12.958 0-23.5-10.542-23.5-23.5s10.542-23.5 23.5-23.5 23.5 10.542 23.5 23.5-10.542 23.5-23.5 23.5zm0-45c-11.855 0-21.5 9.645-21.5 21.5s9.645 21.5 21.5 21.5 21.5-9.645 21.5-21.5-9.644-21.5-21.5-21.5z" fill="#112c41"/><g fill="#fff"><circle cx="58.5" cy="429.5" r="6.5"/><circle cx="146.5" cy="429.5" r="6.5"/><circle cx="234.5" cy="429.5" r="6.5"/></g></svg></g><g transform="translate(860.0 735.0) rotate(0.0 -91.5 39.0) scale(-0.9481865284974094 0.9384135997786306)"><svg width="193" height="83.119" viewBox="0 0 193 83.119"><path d="M191.754 77.977c-.244 2.369-1.698 4.143-3.43 4.143H11.947c-.757 0-1.488-.338-2.085-.974-3.985-4.173-17.833-21.307.109-41.928 10.77-12.376 27.838-22.466 47.1-29.162C94.595-3.007 140.416-3.182 164 17.767c16.303 14.478 23.365 29.162 26.224 40.841 2.068 8.418 1.942 15.278 1.53 19.369z" fill="#cbc8ff"/><path d="M191.754 77.977c-.244 2.369-1.698 4.143-3.43 4.143H11.947c-.757 0-1.488-.338-2.085-.974-3.985-4.173-17.833-21.307.109-41.928 10.77-12.376 23.895-21.153 43.157-27.849 20.178 0 36.531 6.932 46.209 17.37 12.519 13.494 13.486 21.594 15.167 28.772 2.522 1.025 25.223 11.279 45.729 10.418 14.439-.607 21.978-3.374 29.94-10.418 2.068 8.418 1.993 16.375 1.581 20.466z" fill="#b2b0f7"/><g fill="#112c41"><path d="M188.327 83.119H11.949c-1.025 0-2.024-.455-2.812-1.282-3.282-3.441-18.7-21.698.08-43.278C27.092 18.018 63.574 2.644 99.996.302c27.571-1.773 50.54 4.164 64.669 16.714 28.375 25.205 29.092 51.096 28.083 61.057-.296 2.924-2.156 5.046-4.422 5.046zM109.411 1.994c-3.029 0-6.124.101-9.286.304-35.925 2.309-71.852 17.409-89.4 37.574-17.199 19.763-4.457 36.061-.142 40.585.413.433.885.662 1.365.662h176.379c1.199 0 2.244-1.396 2.432-3.248.978-9.655.264-34.768-27.421-59.36-12.122-10.767-31.05-16.517-53.927-16.517z"/><path d="M115.346 83.12a1 1 0 0 1-.99-1.153c2.999-19.331-2.676-38.755-15.179-51.959-11.921-12.59-28.833-18.491-47.632-16.618a1 1 0 1 1-.198-1.99c19.425-1.935 36.927 4.184 49.283 17.233 12.926 13.651 18.796 33.703 15.703 53.641a1 1 0 0 1-.987.847z"/><path d="M156.714 68.943c-13.442 0-28.316-3.345-42.413-10.038a1 1 0 0 1 .857-1.806c27.618 13.113 58.165 13.165 74.283.126a1 1 0 1 1 1.258 1.555c-8.375 6.775-20.455 10.164-33.985 10.164z"/><path d="M166.301 68.384a1 1 0 0 1-.993-.894c-3.007-28.073-25.833-57.474-50.885-65.538a1 1 0 0 1 .613-1.904c25.733 8.284 49.177 38.443 52.26 67.229a1 1 0 0 1-.996 1.107z"/></g></svg></g><g transform="translate(313.0 810.0) rotate(0.0 445.5 356.0) translate(0.0 0.0) scale(1.0 1.0)"><svg width="737" height="712" viewBox="0 0 737 712"><path d="M253.337 711a8.338 8.338 0 0 1-8.337-8.337V26c0-2.762 5.82-5 13-5s13 2.238 13 5v676.663a8.338 8.338 0 0 1-8.337 8.337z" fill="#fcd7ac"/><path d="M262.663 712h-9.326c-5.148 0-9.337-4.188-9.337-9.337V26c0-3.897 7.213-6 14-6s14 2.103 14 6v676.663c0 5.149-4.188 9.337-9.337 9.337zM258 22c-7.435 0-12 2.33-12 4v676.663c0 4.046 3.291 7.337 7.337 7.337h9.326c4.046 0 7.337-3.291 7.337-7.337V26c0-1.67-4.565-4-12-4z" fill="#112c41"/><path d="M807.723 698.128a8.338 8.338 0 0 1-8.337-8.337V13.128c0-2.762 5.82-5 13-5s13 2.238 13 5v676.663a8.338 8.338 0 0 1-8.337 8.337z" fill="#fcd7ac"/><path d="M817.049 699.128h-9.326c-5.148 0-9.337-4.188-9.337-9.337V13.128c0-3.897 7.213-6 14-6s14 2.103 14 6v676.663c0 5.149-4.188 9.337-9.337 9.337zm-4.663-690c-7.435 0-12 2.33-12 4v676.663c0 4.046 3.291 7.337 7.337 7.337h9.326c4.046 0 7.337-3.291 7.337-7.337V13.128c0-1.67-4.565-4-12-4z" fill="#112c41"/><path d="M78.337 711A8.338 8.338 0 0 1 70 702.663V26c0-2.762 5.82-5 13-5s13 2.238 13 5v676.663A8.338 8.338 0 0 1 87.663 711z" fill="#fccc86"/><path d="M87.663 712h-9.326c-5.148 0-9.337-4.188-9.337-9.337V26c0-3.897 7.213-6 14-6s14 2.103 14 6v676.663c0 5.149-4.188 9.337-9.337 9.337zM83 22c-7.435 0-12 2.33-12 4v676.663c0 4.046 3.291 7.337 7.337 7.337h9.326c4.046 0 7.337-3.291 7.337-7.337V26c0-1.67-4.565-4-12-4z" fill="#112c41"/><path d="M707.804 41H15.196C7.356 41 1 34.644 1 26.804V15.196C1 7.356 7.356 1 15.196 1h692.609C715.644 1 722 7.356 722 15.196v11.609C722 34.644 715.644 41 707.804 41z" fill="#fccc86"/><path d="M707.804 42H15.196C6.817 42 0 35.183 0 26.804V15.196C0 6.817 6.817 0 15.196 0h692.608C716.183 0 723 6.817 723 15.196v11.608C723 35.183 716.183 42 707.804 42zM15.196 2C7.919 2 2 7.919 2 15.196v11.608C2 34.08 7.919 40 15.196 40h692.608C715.081 40 721 34.08 721 26.804V15.196C721 7.919 715.081 2 707.804 2z" fill="#112c41"/><path d="M875.804 41H183.196C175.356 41 169 34.644 169 26.804V15.196C169 7.356 175.356 1 183.196 1h692.609C883.644 1 890 7.356 890 15.196v11.609C890 34.644 883.644 41 875.804 41z" fill="#fcd7ac"/><path d="M875.804 42H183.196C174.817 42 168 35.183 168 26.804V15.196C168 6.817 174.817 0 183.196 0h692.608C884.183 0 891 6.817 891 15.196v11.608C891 35.183 884.183 42 875.804 42zM183.196 2C175.919 2 170 7.919 170 15.196v11.608C170 34.08 175.919 40 183.196 40h692.608C883.081 40 889 34.08 889 26.804V15.196C889 7.919 883.081 2 875.804 2z" fill="#112c41"/></svg></g><g transform="translate(1440.0 832.0) rotate(0.0 -283.5 364.0) scale(-1.0046333619780823 1.004573015071355)"><svg width="564.385" height="724.686" viewBox="0 0 564.385 724.686"><path d="M368.856 487.433a832.69 832.69 0 0 0 14.654-36.26l.087-.2c.028-.081.063-.155.086-.214 4.711-12.489 9.299-24.609 13.216-35.225 0 0 86.429 36.212 135.364 49.92-4.643 11.716-9.303 21.316-14.725 33.504-9.317 20.955-17.33 38.825-17.33 38.825l-131.352-50.349z" fill="#ffd6c0"/><path d="m414.365 413.481-30.846 79.744c-4.595.998-13.482 3.026-16.641 3.173 12.137-31.901 32.455-85.391 32.455-85.391z" fill="#f5b9ab"/><path d="M500.208 538.782c-.119 0-.24-.021-.358-.066l-131.352-50.349a.998.998 0 0 1-.559-1.33 828.05 828.05 0 0 0 14.637-36.217l.106-.248s.028-.075.056-.139l1.854-4.912c4.097-10.856 7.967-21.11 11.369-30.333a1 1 0 0 1 1.325-.576c.863.362 86.933 36.345 135.247 49.879a.998.998 0 0 1 .66 1.332c-3.27 8.249-6.579 15.522-10.083 23.223-1.498 3.293-3.045 6.691-4.658 10.319-9.211 20.717-17.252 38.649-17.332 38.828a.998.998 0 0 1-.912.591zm-130.021-51.91 129.495 49.638c1.713-3.823 8.879-19.824 16.941-37.959 1.616-3.633 3.165-7.037 4.666-10.335 3.347-7.354 6.515-14.318 9.634-22.102-45.817-12.997-123.878-45.276-133.447-49.257-3.317 8.974-7.06 18.891-11.013 29.369l-1.844 4.885a3.419 3.419 0 0 1-.044.107 7.162 7.162 0 0 1-.063.155l-.087.2a826.918 826.918 0 0 1-14.239 35.298z" fill="#112c41"/><path d="M528.668 636.272c-51.004-3.978-109.671-30.588-155.447-61.077-13.343-8.892-25.593-18.101-36.234-27.187 0 0 20.576-37.478 31.869-60.575l10.598 4.096s120.401 46.209 120.754 46.253c7.083 8.651 38.107 50.689 28.46 98.49z" fill="#ffa9dc"/><path d="M336.987 548.009s20.576-37.478 31.869-60.575l12.068 7.373c-7.204 21.286-18.964 54.372-16.313 74.719.028.214-16.983-12.43-27.624-21.516z" fill="#ff90d8"/><path d="M528.669 637.272c-.026 0-.053 0-.079-.003-45.373-3.539-103.661-26.433-155.923-61.241-13.318-8.876-25.541-18.047-36.329-27.259a1.002 1.002 0 0 1-.228-1.242c.206-.375 20.694-37.722 31.848-60.533a1 1 0 0 1 1.259-.493l10.598 4.096c1.185.455 118.424 45.448 120.678 46.227a.997.997 0 0 1 .489.325c6.526 7.97 38.576 50.215 28.667 99.321a1 1 0 0 1-.979.802zm-190.413-89.497c10.575 8.983 22.521 17.926 35.521 26.588 51.649 34.401 109.163 57.1 154.083 60.84 9.247-48.292-23.696-90.962-28.27-96.597-2.485-.911-18.111-6.85-120.494-46.144l-9.745-3.767c-10.384 21.14-28.23 53.844-31.095 59.079z" fill="#112c41"/><path d="M443.536 616.56h-.073a2.5 2.5 0 0 1-2.427-2.571c.357-12.365-2.509-28.424-26.479-53.772-20.631-21.816-24.958-39.619-15.966-65.688a2.5 2.5 0 0 1 4.727 1.631c-8.378 24.288-4.486 40.152 14.872 60.622 20.066 21.22 28.394 38.372 27.845 57.353a2.5 2.5 0 0 1-2.498 2.428z" fill="#fff"/><path d="M522.575 658.61c-.622 1.471-1.684 2.568-3.405 3.027-31.326 8.362-144.597-39.79-190.347-83.552-3.919-3.749-3.696-6.919-2.53-10.032l10.693-20.045c47.169 40.251 125.813 83.123 191.681 88.264-1.407 7.889-3.284 15.693-6.092 22.338z" fill="#fff"/><path d="M510.649 663.567c-17.564 0-47.424-8.399-81.641-23.242-41.894-18.172-79.604-41.17-100.876-61.518-4.499-4.304-3.928-8.029-2.775-11.105a.817.817 0 0 1 .055-.12l10.693-20.045a1 1 0 0 1 1.531-.29c45.418 38.757 124.596 82.836 191.109 88.027a1.002 1.002 0 0 1 .906 1.172c-1.656 9.293-3.67 16.67-6.155 22.552-.796 1.884-2.165 3.096-4.068 3.604-2.424.647-5.371.963-8.779.963zm-183.441-95.102c-1.099 2.968-1.116 5.623 2.308 8.897 47.229 45.177 159.731 91.234 189.397 83.309 1.294-.345 2.19-1.147 2.742-2.45 2.33-5.514 4.24-12.406 5.832-21.042-66.265-5.584-144.65-49.057-190.202-87.605z" fill="#112c41"/><path d="M368.858 487.429c35.48 24.155 92.337 44.869 131.349 50.353 0 0 6.521-14.731 14.749-33.018.287-.633.571-1.276.855-1.919s.568-1.286.862-1.931l.866-1.954c-36.027-5.63-89.899-26.231-133.742-48.462 0 0-.036.093-.113.261-.025.059-.066.133-.085.211-.032.072-.066.133-.088.202a834.078 834.078 0 0 1-14.655 36.257z" fill="#fff"/><path d="M500.208 538.782a.951.951 0 0 1-.14-.01c-41.362-5.815-98.013-27.532-131.772-50.517a1 1 0 0 1-.355-1.223 828.743 828.743 0 0 0 14.638-36.214c.01-.038.047-.123.09-.213.025-.074.056-.145.086-.21.077-.17.105-.24.11-.254a1.004 1.004 0 0 1 1.387-.536c47.646 24.159 100.025 43.144 133.444 48.367a1 1 0 0 1 .76 1.393l-.865 1.952c-.297.652-.58 1.292-.862 1.931-.286.646-.571 1.292-.859 1.928a6606.41 6606.41 0 0 0-14.746 33.01.999.999 0 0 1-.914.595zm-130.104-51.717c33.413 22.524 88.743 43.728 129.496 49.62a6739.288 6739.288 0 0 1 14.444-32.332c.287-.633.57-1.273.853-1.914.286-.646.571-1.292.867-1.941l.336-.757c-33.426-5.493-84.835-24.156-131.786-47.863a827.896 827.896 0 0 1-14.21 35.187z" fill="#112c41"/><circle cx="477.533" cy="558.836" fill="#ffe993" r="8.5"/><path d="M477.722 561.781c14.13 5.878 32.429 4.743 38.477 2.412a2.831 2.831 0 1 0-2.037-5.285c-4.643 1.789-22.161 3.024-35.077-2.706a2.832 2.832 0 0 0-2.3 5.176c.31.138.623.272.936.403z" fill="#fff"/><path d="M501.611 567.103c-7.551 0-16.465-1.151-24.271-4.398a43.31 43.31 0 0 1-.96-.413 3.836 3.836 0 0 1-1.946-5.058 3.841 3.841 0 0 1 5.058-1.947c12.662 5.617 29.788 4.429 34.313 2.687a3.836 3.836 0 0 1 4.953 2.198 3.81 3.81 0 0 1-.072 2.933 3.81 3.81 0 0 1-2.126 2.021c-2.888 1.113-8.406 1.977-14.947 1.977zm-23.672-10.145c-.703 0-1.375.406-1.678 1.087-.41.923.008 2.008.931 2.418.302.135.606.266.913.393 13.882 5.775 31.943 4.634 37.733 2.403a1.828 1.828 0 0 0 1.052-2.368 1.835 1.835 0 0 0-2.369-1.051c-4.751 1.833-22.679 3.114-35.842-2.725a1.838 1.838 0 0 0-.741-.157z" fill="#112c41"/><circle cx="484.928" cy="584.678" fill="#ffe993" r="8.5"/><path d="M485.253 587.937c14.385 5.223 34.333 1.819 40.268-.787a2.832 2.832 0 0 0-2.278-5.186c-4.556 2.001-23.718 5.467-36.884.338a2.832 2.832 0 1 0-2.06 5.276c.316.123.634.244.954.36z" fill="#fff"/><path d="M503.015 591.669c-6.074 0-12.462-.744-18.104-2.792a38.327 38.327 0 0 1-.977-.368c-.953-.372-1.705-1.093-2.116-2.031s-.432-1.979-.06-2.933a3.842 3.842 0 0 1 4.962-2.177c13.11 5.109 31.934 1.518 36.119-.321 1.936-.85 4.2.034 5.051 1.968.411.937.433 1.979.062 2.932a3.806 3.806 0 0 1-2.03 2.117c-3.484 1.53-12.762 3.603-22.907 3.603zm-17.683-8.56a1.834 1.834 0 0 0-1.682 2.567 1.82 1.82 0 0 0 1.011.971c.31.121.62.238.932.351 14.535 5.276 34.163 1.592 39.524-.763.448-.197.794-.557.972-1.013s.167-.954-.03-1.402a1.835 1.835 0 0 0-2.415-.941c-4.368 1.919-23.998 5.672-37.648.354a1.841 1.841 0 0 0-.663-.125z" fill="#112c41"/><path d="M323.121 609.176a833.018 833.018 0 0 0-1.264-39.089v-.218c-.008-.085-.006-.167-.009-.231-.743-13.328-1.449-26.267-2.161-37.561 0 0 93.691-1.84 143.988-9.096.492 12.593.113 23.258.084 36.597-.045 22.933-.146 42.517-.146 42.517l-140.493 7.081z" fill="#ffd6c0"/><path d="m334.831 523.136 4.044 85.407c-3.798 2.771-11.106 8.221-13.936 9.632-1.804-34.084-4.856-91.222-4.856-91.222z" fill="#f5b9ab"/><path d="M323.122 610.176a1.002 1.002 0 0 1-1-.991c-.116-13.114-.518-25.52-1.263-39.042l-.003-.26a1.596 1.596 0 0 1-.006-.15l-.274-4.96c-.649-11.693-1.263-22.737-1.887-32.631a1.001 1.001 0 0 1 .979-1.063c.937-.018 94.204-1.922 143.865-9.086a1.003 1.003 0 0 1 1.141.95c.347 8.868.262 16.86.172 25.321-.038 3.617-.078 7.349-.087 11.318-.044 22.671-.145 42.324-.146 42.52a1 1 0 0 1-.949.993l-140.492 7.081-.051.001zm-2.371-77.121c.602 9.632 1.195 20.317 1.822 31.605l.273 4.922.004.118c.002.022.006.133.006.156v.231a825.207 825.207 0 0 1 1.256 38.038l138.507-6.98c.021-4.189.102-21.722.141-41.568.009-3.975.049-7.713.087-11.334.086-8.081.167-15.733-.129-24.114-47.159 6.646-131.604 8.697-141.967 8.927z" fill="#112c41"/><path d="M529.479 680.658c-48.255 16.991-112.672 16.384-166.868 7.016-15.799-2.735-30.728-6.203-44.134-10.208 0 0 3.659-42.598 4.645-68.289l11.349-.54s128.803-6.439 129.143-6.54c9.977 5.047 55.353 30.945 65.865 78.563z" fill="#ffa9dc"/><path d="M318.477 677.465s3.659-42.598 4.645-68.289l14.019 1.861c2.022 22.381 4.648 57.397 15.302 74.932.112.184-20.56-4.499-33.966-8.504z" fill="#ff90d8"/><path d="M436.853 695.15c-24.012 0-49.265-2.144-74.412-6.491-15.766-2.729-30.653-6.173-44.25-10.235a1 1 0 0 1-.71-1.043c.036-.426 3.667-42.87 4.642-68.243a.999.999 0 0 1 .951-.96l11.349-.541c1.268-.063 126.721-6.335 129.064-6.533.198-.024.399.009.578.1 9.192 4.65 55.592 30.321 66.39 79.24.108.493-.168.991-.645 1.159-25.479 8.972-57.89 13.549-92.957 13.549zm-117.311-18.411c13.31 3.939 27.853 7.285 43.239 9.949 61.149 10.57 122.93 8.068 165.524-6.68-11.074-47.906-58.463-73.604-64.925-76.909-2.639.172-19.326 1.06-128.861 6.535l-10.436.497c-.946 23.534-4.04 60.662-4.542 66.608z" fill="#112c41"/><path d="M442.637 697.278a2.5 2.5 0 0 1-2.315-1.556c-4.675-11.454-13.792-24.981-45.968-38.467-27.69-11.607-38.849-26.139-41.17-53.618a2.501 2.501 0 0 1 4.982-.421c2.162 25.602 12.138 38.536 38.121 49.427 26.934 11.29 41.487 23.608 48.663 41.189a2.5 2.5 0 0 1-2.313 3.445z" fill="#fff"/><path d="M532.942 703.551c.026 1.597-.502 3.03-1.889 4.145-25.267 20.318-148.335 22.095-207.877.577-5.1-1.843-6.179-4.833-6.371-8.151l1.672-22.657c59.418 17.733 148.683 25.132 211.002 3.193 1.904 7.784 3.344 15.681 3.463 22.893z" fill="#fff"/><path d="M436.319 724.687c-44.339 0-86.537-5.734-113.483-15.473-5.855-2.117-6.84-5.754-7.029-9.034a.97.97 0 0 1 0-.132l1.673-22.657a.998.998 0 0 1 1.284-.885c57.215 17.075 147.454 25.362 210.383 3.207a1 1 0 0 1 1.304.706c2.244 9.175 3.387 16.736 3.492 23.115.033 2.044-.728 3.707-2.263 4.941-12.031 9.674-47.17 15.881-91.705 16.198-1.218.009-2.44.013-3.655.013zm-118.513-24.558c.195 3.159 1.254 5.594 5.709 7.204 61.464 22.213 182.977 18.832 206.91-.416 1.044-.839 1.54-1.935 1.517-3.35-.099-5.98-1.139-13.056-3.177-21.603-62.862 21.695-152.131 13.642-209.382-3.189l-1.577 21.353z" fill="#112c41"/><path d="M323.122 609.172c42.218 7.741 102.595 3.687 140.492-7.076 0 0 .005-16.11.134-36.163.006-.695.006-1.398.006-2.101s0-1.406.007-2.115c0-.703 0-1.42.002-2.137-35.226 9.423-92.827 12.372-141.915 9.773 0 0 .005.1.003.284.001.064-.006.148.008.228 0 .078-.006.149.001.22a833.384 833.384 0 0 1 1.262 39.087z" fill="#fff"/><path d="M373.378 614.157c-18.216 0-35.7-1.3-50.437-4.002a.998.998 0 0 1-.819-.975c-.115-13.083-.516-25.488-1.26-39.041a1.787 1.787 0 0 1-.005-.227c-.007-.078-.008-.155-.007-.227.002-.196 0-.273 0-.288a1.004 1.004 0 0 1 .296-.755.97.97 0 0 1 .756-.29c53.345 2.824 108.926-1 141.604-9.74a1 1 0 0 1 1.259.967l-.002 2.135c-.008.717-.008 1.416-.008 2.115v.234c0 .628 0 1.255-.006 1.876a6835.081 6835.081 0 0 0-.134 36.154.999.999 0 0 1-.727.961c-25.44 7.226-59.066 11.1-90.51 11.1zm-49.264-5.822c39.667 7.083 98.847 4.098 138.501-6.997.003-3.421.021-18.013.133-35.412.006-.618.006-1.239.006-1.86v-.234c0-.707 0-1.413.008-2.126v-.828c-32.794 8.498-87.358 12.221-139.883 9.53a829.264 829.264 0 0 1 1.235 37.928z" fill="#112c41"/><circle cx="451.393" cy="630.52" fill="#ffe993" r="8.5"/><path d="M452.756 633.138c15.3-.339 31.577-8.779 36.165-13.357a2.833 2.833 0 0 0-4.001-4.011c-3.523 3.515-19.044 11.729-33.174 11.713a2.832 2.832 0 0 0-.01 5.664c.339 0 .68-.003 1.019-.01z" fill="#fff"/><path d="M451.85 634.148h-.116a3.837 3.837 0 0 1-3.824-3.838 3.84 3.84 0 0 1 3.835-3.826c.013.003.029 0 .042 0 13.843 0 29-8.001 32.428-11.421a3.837 3.837 0 0 1 5.42.006 3.837 3.837 0 0 1-.007 5.42c-4.721 4.709-21.072 13.297-36.848 13.648-.311.007-.621.011-.93.011zm-.105-5.664c-1.01 0-1.833.82-1.835 1.829 0 1.01.819 1.833 1.829 1.835.323.002.663-.002.994-.01 15.031-.333 31.088-8.683 35.481-13.065.715-.713.717-1.876.003-2.592s-1.876-.716-2.592-.002c-3.603 3.594-19.453 12.004-33.84 12.005h-.042z" fill="#112c41"/><circle cx="468.608" cy="651.164" fill="#ffe993" r="8.5"/><path d="M470.223 654.013c15.269-1.042 32.135-12.223 36.509-17.007a2.834 2.834 0 0 0-4.181-3.823c-3.357 3.673-19.48 14.594-33.596 15.228a2.832 2.832 0 1 0 .251 5.659c.339-.015.679-.034 1.018-.057z" fill="#fff"/><path d="M469.079 655.073a3.837 3.837 0 0 1-3.827-3.663 3.84 3.84 0 0 1 3.658-3.998c14.057-.631 29.818-11.529 32.903-14.904a3.812 3.812 0 0 1 2.657-1.243 3.826 3.826 0 0 1 2.757 1 3.809 3.809 0 0 1 1.243 2.657 3.809 3.809 0 0 1-1 2.757c-4.104 4.49-21.191 16.239-37.179 17.33-.347.023-.693.043-1.04.059-.058.002-.115.004-.172.004zm35.566-21.811c-.028 0-.057 0-.084.002-.489.022-.94.233-1.271.594-3.22 3.522-19.655 14.895-34.29 15.552a1.837 1.837 0 0 0-1.75 1.912 1.835 1.835 0 0 0 1.912 1.749c.33-.015.663-.033.994-.056 15.426-1.053 31.888-12.362 35.838-16.685.33-.361.5-.829.479-1.318a1.821 1.821 0 0 0-.595-1.271 1.819 1.819 0 0 0-1.233-.48z" fill="#112c41"/><path d="M530.513 469.781s-59.06-16.62-67.06-21.62c2 29 .47 80.32.47 80.32s-36.47 9.68-84.47 9.68c-19.41 0-36.76-.81-49.97-1.71-3.94-.26-7.5-.54-10.65-.8-8.69-.72-15.39-7.93-15.49-16.65-.12-10.75-.37-27.12-.89-48.84-1-42-9-140.01-66-165-59.74-26.2-85.86-13.03-167-51-55.1-25.78-88.62-105.76-55-173 16.29-32.57 40.12-57.1 75.71-70 36.53-13.23 85.44-14.2 151.29 1 130 30 274 100 310 215s-20.94 242.62-20.94 242.62z" fill="#b2b0f7"/><path d="M379.453 539.161c-16.524 0-33.359-.576-50.038-1.712-4.31-.285-8.15-.594-10.664-.801-9.247-.766-16.301-8.347-16.408-17.635-.111-9.969-.356-26.531-.89-48.828-.547-22.981-3.066-57.013-11.963-88.632-11.084-39.396-29.063-64.79-53.438-75.476-26.652-11.689-46.632-15.52-67.784-19.576-26.708-5.121-54.325-10.417-99.238-31.434-27.637-12.931-50.007-39.089-61.374-71.769-12.01-34.521-9.913-70.953 5.902-102.584 17.614-35.218 42.561-58.277 76.264-70.493 38.679-14.009 88.352-13.692 151.855.965 50.414 11.634 124.396 34.22 190.557 75.752 63.07 39.593 103.502 86.669 120.173 139.923 18.661 59.611 11.961 122.598 3.055 164.94-9.646 45.854-23.894 78.066-24.036 78.387a1 1 0 0 1-1.184.555c-2.291-.645-53.49-15.082-65.674-20.861 1.803 29 .369 78.125.354 78.628a1.002 1.002 0 0 1-.743.937c-.366.097-37.146 9.714-84.727 9.714zM154.757 1.946c-24.257 0-45.562 3.385-64.254 10.155C57.305 24.134 32.721 46.87 15.347 81.609-.225 112.753-2.287 148.633 9.544 182.641c11.191 32.173 33.183 57.911 60.333 70.614 44.688 20.912 72.18 26.184 98.767 31.281 21.267 4.078 41.354 7.93 68.211 19.708 24.95 10.938 43.307 36.767 54.562 76.766 8.952 31.819 11.487 66.03 12.037 89.126.533 22.307.778 38.879.89 48.853.095 8.25 6.36 14.984 14.573 15.665 2.507.207 6.336.515 10.634.799a737.627 737.627 0 0 0 49.903 1.708c43.646 0 78.133-8.13 83.491-9.463.178-6.464 1.354-52.755-.489-79.468a1.001 1.001 0 0 1 1.528-.917c7.274 4.547 58.723 19.217 65.96 21.268 2.23-5.209 14.808-35.554 23.571-77.238 8.85-42.096 15.511-104.7-3.016-163.883C505.742 84.486 302.463 27.267 241.228 13.135 208.911 5.676 180.21 1.946 154.757 1.946z" fill="#112c41"/><path d="M329.483 536.451c-3.94-.26-7.5-.54-10.65-.8-8.69-.72-15.39-7.93-15.49-16.65-.12-10.75-.37-27.12-.89-48.84-1-42-9-140.01-66-165-59.74-26.2-85.86-13.03-167-51-55.1-25.78-88.62-105.76-55-173 16.29-32.57 40.12-57.1 75.71-70 .01.01.02.01.02.01-58.73 42.99-75.73 108.99-56.73 161.99 17.889 49.9 72.413 78.894 129 88 87 14 117 44 132 84 18.126 48.337 22 109 22 142s13.03 49.29 13.03 49.29z" fill="#9797f7"/><g fill="#112c41"><path d="M379.453 539.161a748.37 748.37 0 0 1-60.698-2.509c-9.253-.768-16.31-8.352-16.414-17.641-.113-10.024-.358-26.632-.888-48.826-.547-22.982-3.066-57.014-11.962-88.63-11.084-39.395-29.063-64.79-53.439-75.478-26.65-11.686-46.629-15.518-67.781-19.574-26.709-5.122-54.327-10.419-99.241-31.437-27.639-12.934-50.01-39.094-61.377-71.774-12.007-34.517-9.909-70.948 5.905-102.578 37.363-74.727 109.847-96.82 228.119-69.527 50.414 11.634 124.396 34.22 190.557 75.753 63.07 39.592 103.502 86.669 120.173 139.923 18.661 59.611 11.961 122.597 3.054 164.938-9.646 45.853-23.895 78.065-24.037 78.385a1.003 1.003 0 0 1-1.184.555c-2.291-.645-53.493-15.08-65.672-20.858 1.803 29 .373 78.124.358 78.627a1.002 1.002 0 0 1-.743.937c-.366.097-37.15 9.715-84.73 9.715zM154.711 1.959c-67.505 0-112.609 26.139-139.364 79.65-15.572 31.143-17.634 67.022-5.805 101.027 11.19 32.174 33.182 57.914 60.335 70.62 44.688 20.912 72.182 26.185 98.771 31.284 21.266 4.078 41.352 7.93 68.207 19.706 24.951 10.941 43.308 36.769 54.562 76.768 8.952 31.817 11.487 66.028 12.037 89.124.529 22.204.774 38.821.888 48.851.093 8.252 6.36 14.989 14.58 15.67a745.812 745.812 0 0 0 60.532 2.502c43.646 0 78.137-8.131 83.495-9.464.177-6.463 1.35-52.754-.493-79.467a1.001 1.001 0 0 1 1.528-.917c7.274 4.547 58.721 19.214 65.958 21.265 2.231-5.209 14.808-35.554 23.572-77.236 8.851-42.096 15.512-104.699-3.015-163.882C505.742 84.486 302.463 27.267 241.228 13.136c-32.189-7.428-60.964-11.177-86.517-11.177z"/><path d="M464.016 460.134a1 1 0 0 1-1-.979c-.016-.738-1.791-74.598-21.521-139.704-21.503-70.96-67.121-171.317-214.376-223.347a1 1 0 1 1 .666-1.886c66.323 23.434 118.918 59.167 156.323 106.204 33.898 42.626 50.079 88.016 59.301 118.449C463.22 384.246 465 458.372 465.015 459.113a1 1 0 0 1-.979 1.021h-.021z"/></g></svg></g><g transform="translate(1360.0 333.0) rotate(-17.611001317536655 -135.5 113.0) scale(-0.9775312106597795 0.9763684278740226)"><svg width="277.229" height="231.47" viewBox="0 0 277.229 231.47"><circle cx="247.656" cy="102.004" fill="#ffd6c0" r="28.57"/><path d="M244.644 130.414a28.567 28.567 0 0 0 31.223-23.9A28.572 28.572 0 0 1 222.273 90q.086-.762.207-1.509a28.589 28.589 0 0 0 22.164 41.924z" fill="#f5b9ab"/><path d="M247.678 131.575a29.589 29.589 0 0 1-23.77-11.952 1 1 0 0 1 1.606-1.193 27.569 27.569 0 1 0-4.976-21.4 1 1 0 0 1-1.968-.358 29.571 29.571 0 1 1 29.108 34.907z" fill="#112c41"/><path d="M233.182 108.859a1 1 0 0 1-.973-.776 18.452 18.452 0 0 1 2.185-13.792A17.56 17.56 0 0 1 260.52 89.7a1 1 0 1 1-1.248 1.563 15.56 15.56 0 0 0-23.168 4.07 16.466 16.466 0 0 0-1.946 12.306 1 1 0 0 1-.751 1.2.966.966 0 0 1-.225.02z" fill="#112c41"/><circle cx="143.688" cy="127.943" fill="#ffd6c0" r="102.5"/><path d="M105.269 32.916c.32-.13.643-.241.964-.367l10.867 9.069c-49.479 20.172-73.762 73.994-54.03 122.8 19.768 48.9 76.227 74.243 125.891 54.164A98.268 98.268 0 0 0 203 211.57a102.51 102.51 0 1 1-97.731-178.654z" fill="#f5b9ab"/><path d="M143.675 231.5a103.747 103.747 0 1 1 38.807-7.6 103.3 103.3 0 0 1-38.807 7.6zm.025-205.112a101.729 101.729 0 1 0 39.626 8.112 101.38 101.38 0 0 0-39.626-8.112z" fill="#112c41"/><ellipse cx="126.535" cy="112.293" fill="#112c41" rx="6.828" ry="9.104" transform="matrix(.92709884 -.37481696 .37481696 .92709884 -32.865 55.614)"/><ellipse cx="111.4" cy="85.723" fill="#112c41" rx="14.13" ry="9.336" transform="matrix(.86245184 -.50613914 .50613914 .86245184 -28.065 68.176)"/><ellipse cx="210.167" cy="121.3" fill="#ffa9dc" rx="12.121" ry="8.009" transform="matrix(.88267705 -.46998003 .46998003 .88267705 -32.351 113.007)"/><ellipse cx="118.423" cy="139.798" fill="#ffa9dc" rx="8.009" ry="12.121" transform="matrix(.07459583 -.99721385 .99721385 .07459583 -29.819 247.463)"/><g fill="#112c41"><ellipse cx="198.688" cy="69.502" rx="8.6" ry="13.016" transform="matrix(.21807511 -.97593199 .97593199 .21807511 87.53 248.252)"/><path d="M196.394 62.64a17.19 17.19 0 0 1 3.733.421 14.84 14.84 0 0 1 7.43 3.9c.905.939 2.354 2.83 1.882 4.942-.587 2.626-4.064 4.46-8.456 4.46a17.133 17.133 0 0 1-3.734-.422c-5.828-1.3-10.092-5.352-9.313-8.843.587-2.626 4.065-4.46 8.458-4.46m0-2c-5.269 0-9.583 2.33-10.408 6.024-1.037 4.638 3.814 9.666 10.826 11.238a19.128 19.128 0 0 0 4.171.47c5.269 0 9.583-2.33 10.408-6.024 1.036-4.635-3.812-9.664-10.828-11.232a19.178 19.178 0 0 0-4.17-.469z"/><ellipse cx="194.736" cy="98.632" rx="6.828" ry="9.104" transform="matrix(.99979717 -.02013974 .02013974 .99979717 -1.947 3.943)"/><path d="M147.13 125.111c3.926 11.862 13.4 19.595 22.647 17.809s15.162-12.487 14.391-24.958z"/><path d="M167.105 144.175c-8.685 0-17.177-7.428-20.924-18.75a1 1 0 0 1 .76-1.3l37.037-7.149a1 1 0 0 1 1.188.92c.817 13.209-5.576 24.144-15.2 26a15.132 15.132 0 0 1-2.861.279zm-18.65-18.3c4.029 10.963 12.781 17.678 21.132 16.064s13.976-11.1 13.635-22.775z"/></g><path d="M176.564 138.971c-3.753-3.592-10.1-4.662-16.064-2.252a17.713 17.713 0 0 0-4.123 2.342c4.029 3.244 8.742 4.758 13.4 3.859a14.683 14.683 0 0 0 7.112-3.625q-.159-.165-.325-.324z" fill="#ffa6e0"/><path d="M167.121 144.173a18.217 18.217 0 0 1-11.371-4.333 1 1 0 0 1 .02-1.574 18.818 18.818 0 0 1 4.355-2.475c6.124-2.476 13.008-1.487 17.13 2.458.121.116.239.233.354.354a1 1 0 0 1-.05 1.434 15.613 15.613 0 0 1-7.594 3.865 15.025 15.025 0 0 1-2.844.271zm-9.044-5.083a15.015 15.015 0 0 0 11.51 2.848 13.441 13.441 0 0 0 5.8-2.681c-3.609-3.042-9.343-3.7-14.511-1.611a16.92 16.92 0 0 0-2.799 1.444z" fill="#112c41"/><circle cx="31.508" cy="147.949" fill="#ffd6c0" r="30.5"/><path d="M60.437 157.932a33.178 33.178 0 0 1-5.358 5.413c-12.966 10.761-32.489 8.455-43.243-4.5-7.059-8.505-8.194-19.14-4.836-28.866-8.226 11.018-8.7 26.05.473 37.11a30.492 30.492 0 0 0 42.948 4c4.457-3.696 8.261-8.042 10.016-13.157z" fill="#f5b9ab"/><path d="M31.5 179.466a31.508 31.508 0 1 1 28.232-45.5 1 1 0 0 1-1.793.886A29.6 29.6 0 0 0 20.451 120.6a29.5 29.5 0 0 0 22.114 54.7A31.46 31.46 0 0 0 59.5 157.58a1 1 0 0 1 1.872.7 33.523 33.523 0 0 1-18.058 18.867 31.464 31.464 0 0 1-11.814 2.319z" fill="#112c41"/><path d="M49.253 146.854a1 1 0 0 1-.954-.7 17.277 17.277 0 0 0-21.49-11.55A16.764 16.764 0 0 0 16.2 144.713a1 1 0 0 1-1.872-.713 18.755 18.755 0 0 1 11.877-11.3 19.277 19.277 0 0 1 24 12.853 1 1 0 0 1-.953 1.3z" fill="#112c41"/><path d="M37 107.924c18.817-19.516 45.809-36.393 77.86-46.892a213.323 213.323 0 0 1 40.476-9.084 64.009 64.009 0 0 0-10.241-25.543c.136.1.282.188.408.288a75.849 75.849 0 0 1 22.07 24.157 187.56 187.56 0 0 1 7.542-.288c18.32-.309 35.367 2.184 50.027 7.2a1.861 1.861 0 0 0 2.318-2.511 89.573 89.573 0 0 0-17.986-25.972C182.5 2.165 139.131-7.2 99.331 8.89a108.729 108.729 0 0 0-18.955 9.918c-30.6 20.116-48.015 54.068-45.907 88.174a1.477 1.477 0 0 0 2.531.942z" fill="#fcaa51"/><path d="M37 107.924a155.9 155.9 0 0 1 15.824-14.263c-1.663-30.338 13.9-60.48 41.124-78.367a98.089 98.089 0 0 1 30.159-13.153 109.121 109.121 0 0 0-43.731 16.667c-30.6 20.116-48.015 54.068-45.907 88.174a1.477 1.477 0 0 0 2.531.942z" fill="#ff9522"/><path d="M35.93 109.2a2.435 2.435 0 0 1-.87-.157 2.671 2.671 0 0 1-1.619-2.551c-1.667-34.7 16.108-68.616 46.388-88.514A109.848 109.848 0 0 1 98.956 7.963 106.761 106.761 0 0 1 159.4 1.9a97.232 97.232 0 0 1 50.778 26.675 89.845 89.845 0 0 1 18.115 26.1 2.9 2.9 0 0 1-.331 3.24 3.092 3.092 0 0 1-3.314.741c-16.6-5.658-36.317-8.015-57.02-6.81a1.015 1.015 0 0 1-.92-.491 76.832 76.832 0 0 0-17.971-21.022 66.817 66.817 0 0 1 7.574 21.444 1 1 0 0 1-.864 1.164 212.386 212.386 0 0 0-40.28 9.038C84.77 71.937 57.4 88.362 38.093 108.229a3.06 3.06 0 0 1-2.163.971zm44.449-90.39.549.836C51.236 39.156 33.806 72.4 35.439 106.392c.01.2.061.675.328.776a.941.941 0 0 0 .891-.333c19.526-20.095 47.188-36.7 77.891-46.755a214.7 214.7 0 0 1 39.607-8.992 62.841 62.841 0 0 0-9.888-24.109 1 1 0 0 1 1.38-1.4 76.631 76.631 0 0 1 22.476 24.236c20.738-1.134 40.5 1.263 57.173 6.95a1.147 1.147 0 0 0 1.186-.191c.279-.308.116-.8 0-1.067a87.881 87.881 0 0 0-17.714-25.52 95.246 95.246 0 0 0-49.746-26.121 104.778 104.778 0 0 0-59.318 5.951 107.879 107.879 0 0 0-18.777 9.829z" fill="#112c41"/></svg></g><g transform="translate(715.0 578.0) rotate(0.0 363.5 169.0) scale(0.997771141219614 0.9931391129328456)"><svg width="728.624" height="340.335" viewBox="0 0 728.624 340.335"><path d="M405.562 166.821c.815 27.604 8.533 53.38 21.441 75.731 28.681 49.629 82.999 82.321 144.309 80.51 88.914-2.626 158.867-76.836 156.241-165.749a162.139 162.139 0 0 0-4.143-31.989C706.366 52.223 639.732-1.23 561.803 1.072c-88.914 2.625-158.866 76.835-156.241 165.749z" fill="#ffe993"/><path d="M566.519 324.132c-57.833.002-111.292-30.745-140.382-81.08-13.323-23.071-20.783-49.421-21.574-76.202-1.277-43.27 14.372-84.447 44.065-115.948S518.504 1.35 561.773.072c37.597-1.123 74.641 10.985 104.279 34.062 29.248 22.771 49.964 55.077 58.331 90.963a163.679 163.679 0 0 1 4.169 32.188c2.637 89.323-67.888 164.14-157.212 166.778-1.608.046-3.218.069-4.821.069zm.013-322.13c-1.566 0-3.131.022-4.7.069-42.735 1.262-82.422 19.09-111.749 50.202s-44.783 71.781-43.521 114.518c.78 26.451 8.147 52.476 21.307 75.261 28.729 49.711 81.534 80.078 138.649 80.08 1.588.001 3.17-.022 4.764-.07 88.221-2.605 157.876-76.498 155.271-164.72a161.632 161.632 0 0 0-4.116-31.792c-8.264-35.441-28.725-67.348-57.612-89.84-28.036-21.827-62.775-33.708-98.293-33.708z" fill="#112c41"/><path d="M427.003 242.552c28.681 49.629 82.999 82.321 144.309 80.51 88.914-2.626 158.867-76.836 156.241-165.749a162.139 162.139 0 0 0-4.143-31.989h-.008c-13.33 193.641-211.503 209.383-296.399 117.228z" fill="#ffd169"/><path d="M566.519 324.132c-57.833.002-111.292-30.745-140.382-81.08-13.323-23.071-20.783-49.421-21.574-76.202-1.277-43.27 14.372-84.447 44.065-115.948S518.504 1.35 561.773.072c37.597-1.123 74.641 10.985 104.279 34.062 29.248 22.771 49.964 55.077 58.331 90.963a163.679 163.679 0 0 1 4.169 32.188c2.637 89.323-67.888 164.14-157.212 166.778-1.608.046-3.218.069-4.821.069zm.013-322.13c-1.566 0-3.131.022-4.7.069-42.735 1.262-82.422 19.09-111.749 50.202s-44.783 71.781-43.521 114.518c.78 26.451 8.147 52.476 21.307 75.261 28.729 49.711 81.534 80.078 138.649 80.08 1.588.001 3.17-.022 4.764-.07 88.221-2.605 157.876-76.498 155.271-164.72a161.632 161.632 0 0 0-4.116-31.792c-8.264-35.441-28.725-67.348-57.612-89.84-28.036-21.827-62.775-33.708-98.293-33.708z" fill="#112c41"/><path d="M422.412 207.122c12.91 16.845 28.136 32.839 42.44 44.112 15.122 11.917 29.214 18.556 38.441 15.316 8.386-2.943 23.92-14.207 39.721-29.798 17.219-16.985 34.748-39.113 43.706-61.203.008 0 .008-.008.008-.008.407-.993.79-1.985 1.157-2.977L539.466 3.281c-39.336 5.159-99.44 41.106-136.409 70.881-17.293 13.921-29.524 26.497-32.198 33.928-8.378 23.325 24.465 63.707 51.553 99.032z" fill="#ffe993"/><path d="M463.254 250.424c15.122 11.917 30.813 19.366 40.039 16.126 17.531-6.155 67.764-49.806 84.592-93.987-19.882 24.491-85.37 67.636-124.631 77.861z" fill="#ffd169"/><path d="M422.412 207.122c12.91 16.845 28.136 32.839 42.44 44.112 15.122 11.917 29.214 18.556 38.441 15.316 8.386-2.943 23.92-14.207 39.721-29.798-4.701-28-22.073-59.927-55.94-100.774-27.349-32.986-62.602-52.286-84.017-61.817-17.293 13.921-29.524 26.497-32.198 33.928-8.378 23.326 24.465 63.708 51.553 99.033z" fill="#fff"/><g fill="#112c41"><path d="M498.18 268.364c-19.768.002-52.357-29.068-76.562-60.633-1.686-2.199-3.395-4.418-5.114-6.651-25.605-33.252-54.627-70.939-46.587-93.328 4.205-11.708 31.422-35.891 66.186-58.809 39.85-26.271 77.477-43.277 103.231-46.657a.995.995 0 0 1 1.121.861.999.999 0 0 1-.861 1.121C481.898 11.84 379.872 85.954 371.8 108.427c-7.671 21.359 20.996 58.587 46.289 91.433a3886.8 3886.8 0 0 1 5.117 6.654c23.353 30.455 56.022 59.862 74.902 59.865 1.742 0 3.364-.25 4.854-.772 18.949-6.651 68.562-51.695 83.985-93.39a.996.996 0 0 1 1.284-.591.998.998 0 0 1 .591 1.284c-15.608 42.196-65.953 87.828-85.198 94.583-1.677.59-3.499.871-5.444.871z"/><path d="M498.65 255.592c-2.76 2.27-8.74.23-16.78-5.14-.73-.49-1.47-1-2.23-1.54-5.73-4.08-12.39-9.68-19.59-16.49-10.6-10.04-22.38-22.7-34.14-37.02-20.46-24.87-36.02-48.82-42.82-64.71-.94-2.18-1.71-4.22-2.31-6.08-1.96-6.13-2.03-10.42.15-12.21 2.6-2.14 8.05-.46 15.39 4.23l.51.33c14.33 9.31 35.59 29.78 56.84 55.62 10.66 12.97 20 25.69 27.45 37.14 6.66 10.23 11.83 19.45 15.11 26.95.09.2.18.41.26.61 4.02 9.38 5 15.97 2.16 18.31z"/><path d="M495.729 257.501c-3.393 0-8.216-2.078-14.414-6.217a108.68 108.68 0 0 1-2.253-1.557c-5.828-4.15-12.456-9.728-19.698-16.579-11.037-10.454-22.872-23.287-34.226-37.111-19.798-24.065-35.86-48.347-42.966-64.951a70.017 70.017 0 0 1-2.343-6.166c-2.17-6.785-2.012-11.256.467-13.29 2.914-2.402 8.485-1 16.562 4.159l.513.332c15.009 9.752 36.343 30.62 57.071 55.826 10.333 12.572 19.849 25.445 27.516 37.229 6.654 10.221 11.906 19.59 15.188 27.095.092.204.188.427.272.64 4.409 10.285 5.04 16.838 1.867 19.452v.001c-.921.758-2.108 1.137-3.556 1.137zm2.921-1.91h.01zM383.891 112.475c-.976 0-1.757.231-2.324.698-1.733 1.424-1.674 5.377.166 11.134a68.284 68.284 0 0 0 2.276 5.988c7.037 16.443 22.989 40.544 42.674 64.471 11.302 13.763 23.078 26.532 34.056 36.93 7.175 6.787 13.729 12.306 19.482 16.401.752.534 1.484 1.039 2.207 1.524 10.517 7.024 14.278 6.273 15.587 5.198 2.304-1.898 1.413-8.147-2.443-17.145-.085-.21-.169-.406-.253-.595-3.243-7.414-8.441-16.683-15.036-26.813-7.628-11.723-17.098-24.535-27.385-37.051-20.605-25.056-41.769-45.772-56.612-55.416l-.51-.33c-5.154-3.292-9.238-4.994-11.885-4.994z"/></g><path d="M496.49 237.282c-4.83 4.54-9.7 8.93-14.62 13.17-105.78 91.34-230.92 116.38-342.95 55.9l-.01-.01c-20.53-11.07-37.23-22.23-55.56-40.32-5.26-5.2-12.84-14.23-24.57-21.03-.02 0-.03-.01-.05-.02-7.14-4.13-15.82-7.42-26.45-8.52-13.93-1.43-24.93-11.43-14.46-25.22-8.38-4.64-8.24-28.66 20.71-43.33-22.18 1.12-34.18 2.12-37.18-5.88-3.24-8.63 16.11-32.55 53.49-31.43 47.51 1.43 87.51 29.43 127.06 48.02 65.43 30.75 130.37 19.57 201.19-47.92 1.32-1.25 2.64-2.53 3.96-3.82 3.25-3.19 6.52-6.49 9.78-9.91 14.33 9.31 35.59 29.78 56.84 55.62 11.17 13.59 20.88 26.89 28.5 38.76 6.15 9.59 10.95 18.23 14.06 25.33.09.2.18.41.26.61z" fill="#ffd6c0"/><path d="M266.777 340.336c-43.937 0-87.277-10.939-128.332-33.104a.894.894 0 0 1-.084-.051c-23.072-12.447-39.22-24.17-55.713-40.447-.948-.937-1.97-1.996-3.077-3.145-4.961-5.146-11.753-12.188-21.226-17.693a1.178 1.178 0 0 1-.123-.063c-7.95-4.598-16.716-7.421-26.045-8.386-8.902-.914-15.991-5.072-18.501-10.852-1.396-3.219-2.008-8.405 2.717-15.106-2.809-2.146-4.459-6.359-4.368-11.323.245-13.327 11.035-24.371 22.22-31.043-19.818 1.013-30.779 1.386-33.831-6.749-1.141-3.039.087-7.413 3.367-12.001 4.062-5.68 10.607-10.827 18.43-14.494 9.668-4.531 20.66-6.629 32.659-6.287 36.755 1.107 68.855 17.918 99.899 34.175 9.479 4.963 18.431 9.651 27.557 13.94 33.601 15.792 65.637 19.98 97.931 12.809 33.873-7.522 67.284-27.327 102.145-60.547a358.252 358.252 0 0 0 3.95-3.812 413.564 413.564 0 0 0 9.755-9.886 1.001 1.001 0 0 1 1.269-.148c15.005 9.75 36.339 30.618 57.067 55.824 10.835 13.181 20.714 26.616 28.569 38.854 6.233 9.719 10.989 18.288 14.135 25.469.092.204.188.428.272.641a1 1 0 0 1-.244 1.1 460.57 460.57 0 0 1-14.651 13.199c-68.318 58.991-142.843 89.126-215.747 89.126zm-127.308-34.824c108.391 58.47 232.949 38.131 341.748-55.817a457.68 457.68 0 0 0 14.079-12.664c-3.107-7.083-7.806-15.541-13.968-25.149-7.813-12.173-17.645-25.543-28.431-38.665-20.287-24.669-41.115-45.132-55.92-54.962a418.414 418.414 0 0 1-9.227 9.331 343.864 343.864 0 0 1-3.973 3.832c-35.128 33.477-68.85 53.447-103.087 61.051-32.747 7.27-65.199 3.034-99.217-12.951-9.164-4.308-18.553-9.225-27.633-13.979-30.844-16.152-62.737-32.854-99.032-33.946-25.406-.767-42.482 10.269-49.401 19.945-2.844 3.977-4.011 7.766-3.121 10.134 2.608 6.955 13.494 6.396 33.26 5.383l2.933-.15c.503-.013.896.287 1.018.742a1 1 0 0 1-.515 1.148c-11.896 6.029-24.7 17.445-24.957 31.409-.087 4.753 1.553 8.645 4.279 10.154a.999.999 0 0 1 .312 1.48c-3.815 5.025-4.89 9.854-3.105 13.962 2.222 5.118 8.687 8.818 16.871 9.658 9.59.992 18.603 3.891 26.791 8.615.037.017.073.034.108.055 9.75 5.652 16.674 12.832 21.729 18.074 1.096 1.136 2.106 2.185 3.043 3.11 19.123 18.873 35.95 29.7 55.331 40.15.03.015.057.032.085.05z" fill="#112c41"/><path d="M496.49 237.282c-4.83 4.54-9.7 8.93-14.62 13.17-105.78 91.34-230.92 116.38-342.95 55.9l-.01-.01c-20.53-11.07-37.23-22.23-55.56-40.32-5.26-5.2-12.84-14.23-24.57-21.03 31.57 20.03 68.57 53.03 123.57 69.03 50.782 14.773 135.526 16.655 206-26 38-23 70.1-53.68 93.82-76.68 6.15 9.59 10.95 18.23 14.06 25.33.09.2.18.41.26.61z" fill="#f5b9ab"/><path d="M266.777 340.336c-43.937.002-87.277-10.939-128.332-33.104a.782.782 0 0 1-.084-.051c-23.091-12.461-39.237-24.185-55.713-40.447-.956-.943-1.987-2.013-3.105-3.172-8.505-8.817-22.741-23.575-47.366-26.11-8.904-.918-15.993-5.078-18.501-10.858-1.396-3.218-2.005-8.402 2.718-15.1-2.807-2.147-4.457-6.361-4.366-11.325.245-13.329 11.033-24.373 22.218-31.046-19.818 1.013-30.779 1.386-33.831-6.749-1.141-3.042.089-7.418 3.371-12.007 4.063-5.679 10.608-10.825 18.431-14.489 9.667-4.529 20.654-6.637 32.659-6.282 36.751 1.104 68.852 17.914 99.896 34.171 9.478 4.964 18.43 9.651 27.556 13.94 33.598 15.793 65.634 19.982 97.93 12.81 33.873-7.522 67.285-27.328 102.146-60.548a358.252 358.252 0 0 0 3.95-3.812 413.564 413.564 0 0 0 9.755-9.886 1.001 1.001 0 0 1 1.269-.148c15.005 9.75 36.339 30.618 57.067 55.824 19.484 23.702 35.448 47.749 42.704 64.323.092.204.188.428.272.641a1 1 0 0 1-.244 1.1 459.5 459.5 0 0 1-14.652 13.199c-68.319 58.991-142.844 89.124-215.748 89.126zm-127.308-34.824c108.391 58.47 232.949 38.131 341.748-55.817a456.511 456.511 0 0 0 14.079-12.664c-7.2-16.423-23.044-40.27-42.398-63.814-20.287-24.669-41.115-45.132-55.92-54.962a418.414 418.414 0 0 1-9.227 9.331 343.864 343.864 0 0 1-3.973 3.832c-35.129 33.478-68.85 53.447-103.089 61.052-32.751 7.272-65.2 3.034-99.215-12.952-9.164-4.308-18.553-9.225-27.632-13.979-30.842-16.153-62.735-32.854-99.027-33.944-25.381-.787-42.482 10.263-49.402 19.936-2.847 3.979-4.015 7.769-3.125 10.14 2.608 6.955 13.496 6.396 33.259 5.383l2.933-.15c.504-.013.896.286 1.018.742s-.094.936-.515 1.148c-11.896 6.029-24.697 17.447-24.954 31.412-.088 4.754 1.552 8.646 4.278 10.156a.999.999 0 0 1 .311 1.48c-3.814 5.022-4.889 9.848-3.106 13.956 2.22 5.118 8.685 8.821 16.871 9.664 25.353 2.611 39.905 17.698 48.601 26.713 1.106 1.146 2.126 2.203 3.07 3.136 19.104 18.857 35.937 29.689 55.332 40.151.028.015.056.032.083.05z" fill="#112c41"/><path d="M15.35 216.021a1 1 0 0 1-.913-1.405c.128-.288 3.248-7.12 12.768-12.294 8.672-4.715 24.572-8.86 51.05-1.839a1 1 0 1 1-.512 1.934c-14.211-3.77-34.322-6.549-49.446 1.589-8.991 4.837-12.003 11.359-12.032 11.425-.168.37-.533.59-.915.59zm7.722-36.186a1 1 0 0 1-.743-1.669c.255-.283 25.894-28.127 63.532-12.954.512.207.76.789.554 1.302s-.791.757-1.302.554c-36.313-14.641-61.052 12.164-61.298 12.437a.999.999 0 0 1-.743.33z" fill="#112c41"/></svg></g><g transform="translate(475.0 430.0) rotate(0.0 240.0 130.0) scale(1.0082084975172867 1.0116731517509727)"><svg width="476.092" height="257" viewBox="0 0 476.092 257"><path d="M468.722 256H7.37A6.37 6.37 0 0 1 1 249.63V7.37A6.37 6.37 0 0 1 7.37 1h461.353a6.37 6.37 0 0 1 6.37 6.37v242.26a6.372 6.372 0 0 1-6.371 6.37z" fill="#fff"/><path d="M468.722 257H7.37C3.306 257 0 253.694 0 249.63V7.369C0 3.306 3.306 0 7.37 0h461.353c4.063 0 7.37 3.306 7.37 7.369V249.63c-.001 4.064-3.307 7.37-7.371 7.37zM7.37 2A5.375 5.375 0 0 0 2 7.369V249.63A5.376 5.376 0 0 0 7.37 255h461.353a5.376 5.376 0 0 0 5.37-5.37V7.369A5.375 5.375 0 0 0 468.723 2z" fill="#112c41"/><path d="M468.722 257H7.37C3.306 257 0 253.694 0 249.63V7.369C0 3.306 3.306 0 7.37 0h461.353c4.063 0 7.37 3.306 7.37 7.369V249.63c-.001 4.064-3.307 7.37-7.371 7.37zM7.37 2A5.375 5.375 0 0 0 2 7.369V249.63A5.376 5.376 0 0 0 7.37 255h461.353a5.376 5.376 0 0 0 5.37-5.37V7.369A5.375 5.375 0 0 0 468.723 2z" fill="#112c41"/><circle cx="117.107" cy="52.518" fill="#9dd9f4" r="25.316"/><path d="M117.107 78.833c-14.511 0-26.315-11.805-26.315-26.315s11.805-26.315 26.315-26.315 26.315 11.805 26.315 26.315-11.804 26.315-26.315 26.315zm0-50.631c-13.407 0-24.315 10.908-24.315 24.315s10.908 24.315 24.315 24.315 24.315-10.908 24.315-24.315-10.908-24.315-24.315-24.315z" fill="#112c41"/><path d="M164 129H69c0-27 28.612-44.104 49.039-44.104C137.849 84.896 164 103 164 129z" fill="#9dd9f4"/><path d="M164 130H69a1 1 0 0 1-1-1c0-12.492 6.123-24.199 17.24-32.963 9.501-7.489 22.068-12.142 32.798-12.142C137.186 83.896 165 101.467 165 129a1 1 0 0 1-1 1zm-93.986-2h92.973c-.302-11.195-5.669-21.831-15.191-30.045-8.754-7.552-19.878-12.06-29.757-12.06-19.337.001-47.314 16.369-48.025 42.105z" fill="#112c41"/><circle cx="359.107" cy="52.518" fill="#9dd9f4" r="25.316"/><path d="M359.107 78.833c-14.511 0-26.315-11.805-26.315-26.315s11.805-26.315 26.315-26.315 26.315 11.805 26.315 26.315-11.804 26.315-26.315 26.315zm0-50.631c-13.407 0-24.315 10.908-24.315 24.315s10.908 24.315 24.315 24.315 24.315-10.908 24.315-24.315-10.908-24.315-24.315-24.315z" fill="#112c41"/><path d="M406 129h-95c0-27 28.612-44.104 49.039-44.104C379.849 84.896 406 103 406 129z" fill="#9dd9f4"/><path d="M406 130h-95a1 1 0 0 1-1-1c0-12.492 6.123-24.199 17.24-32.963 9.501-7.489 22.068-12.142 32.798-12.142C379.186 83.896 407 101.467 407 129a1 1 0 0 1-1 1zm-93.986-2h92.973c-.302-11.195-5.669-21.831-15.191-30.045-8.754-7.552-19.878-12.06-29.757-12.06-19.337.001-47.314 16.369-48.025 42.105z" fill="#112c41"/><circle cx="117.107" cy="179.518" fill="#9dd9f4" r="25.316"/><path d="M117.107 205.833c-14.511 0-26.315-11.805-26.315-26.315s11.805-26.315 26.315-26.315 26.315 11.805 26.315 26.315-11.804 26.315-26.315 26.315zm0-50.631c-13.407 0-24.315 10.908-24.315 24.315s10.908 24.315 24.315 24.315 24.315-10.908 24.315-24.315-10.908-24.315-24.315-24.315z" fill="#112c41"/><path d="M164 256H69c0-27 28.612-44.104 49.039-44.104C137.849 211.896 164 230 164 256z" fill="#9dd9f4"/><path d="M164 257H69a1 1 0 0 1-1-1c0-12.492 6.123-24.199 17.24-32.963 9.501-7.489 22.068-12.142 32.798-12.142C137.186 210.896 165 228.467 165 256a1 1 0 0 1-1 1zm-93.986-2h92.973c-.302-11.195-5.669-21.831-15.191-30.045-8.754-7.552-19.878-12.06-29.757-12.06-19.337.001-47.314 16.369-48.025 42.105z" fill="#112c41"/><circle cx="359.107" cy="179.518" fill="#9dd9f4" r="25.316"/><path d="M359.107 205.833c-14.511 0-26.315-11.805-26.315-26.315s11.805-26.315 26.315-26.315 26.315 11.805 26.315 26.315-11.804 26.315-26.315 26.315zm0-50.631c-13.407 0-24.315 10.908-24.315 24.315s10.908 24.315 24.315 24.315 24.315-10.908 24.315-24.315-10.908-24.315-24.315-24.315z" fill="#112c41"/><path d="M406 256h-95c0-27 28.612-44.104 49.039-44.104C379.849 211.896 406 230 406 256z" fill="#9dd9f4"/><g fill="#112c41"><path d="M406 257h-95a1 1 0 0 1-1-1c0-12.492 6.123-24.199 17.24-32.963 9.501-7.489 22.068-12.142 32.798-12.142C379.186 210.896 407 228.467 407 256a1 1 0 0 1-1 1zm-93.986-2h92.973c-.302-11.195-5.669-21.831-15.191-30.045-8.754-7.552-19.878-12.06-29.757-12.06-19.337.001-47.314 16.369-48.025 42.105zm-74.514 2a1 1 0 0 1-1-1V1a1 1 0 1 1 2 0v255a1 1 0 0 1-1 1z"/><path d="M475.092 130.478H1a1 1 0 1 1 0-2h474.092a1 1 0 1 1 0 2z"/></g><circle cx="237.14" cy="128.643" fill="#ffa9dc" r="39.859"/><path d="M237.196 169.503c-.849 0-1.699-.025-2.554-.078-10.894-.667-20.875-5.536-28.105-13.711-7.231-8.175-10.846-18.676-10.179-29.569s5.536-20.875 13.711-28.105c8.175-7.231 18.674-10.843 29.569-10.179 22.487 1.377 39.661 20.793 38.284 43.28l-.998-.062.998.062c-.667 10.894-5.536 20.875-13.711 28.105-7.533 6.664-17.044 10.257-27.015 10.257zm-.109-79.721c-9.484 0-18.528 3.417-25.693 9.755-7.774 6.877-12.405 16.37-13.04 26.73-.635 10.359 2.804 20.347 9.681 28.121s16.37 12.405 26.73 13.04c10.35.635 20.347-2.804 28.121-9.681s12.405-16.37 13.04-26.73c1.31-21.386-15.024-39.852-36.411-41.161a40.268 40.268 0 0 0-2.428-.074z" fill="#112c41"/><path d="M246.514 143.151h-16.872c-9.389 0-17-7.611-17-17v-9.117a3 3 0 0 1 3-3h16.872c9.389 0 17 7.611 17 17v9.117a3 3 0 0 1-3 3zm16.124-26.616-10.176 7.047a.866.866 0 0 0-.373.712v8.597c0 .284.139.55.373.712l10.176 7.047a.754.754 0 0 0 1.183-.62v-22.876a.754.754 0 0 0-1.183-.619z" fill="#fff"/></svg></g><g transform="translate(672.0 321.0) rotate(0.0 42.5 42.5) scale(0.9883720930232558 0.9883720930232558)"><svg width="86" height="86" viewBox="0 0 86 86"><path d="M25 66h30v19H25z" fill="#9797f7"/><path d="M55 86H25a1 1 0 0 1-1-1V66a1 1 0 0 1 1-1h30a1 1 0 0 1 1 1v19a1 1 0 0 1-1 1zm-29-2h28V67H26z" fill="#112c41"/><path d="M79 40c0 21.54-17.46 39-39 39-14.64 0-27.4-8.07-34.07-20A38.834 38.834 0 0 1 1 40C1 18.46 18.46 1 40 1c9.98 0 19.09 3.75 25.99 9.92C73.97 18.06 79 28.44 79 40z" fill="#b2b0f7"/><path d="M40 80c-14.48 0-27.869-7.86-34.943-20.512A40.044 40.044 0 0 1 0 40C0 17.944 17.945 0 40 0a39.94 39.94 0 0 1 26.657 10.174A40.073 40.073 0 0 1 80 40c0 22.056-17.944 40-40 40zm0-78C19.047 2 2 19.047 2 40a38.03 38.03 0 0 0 4.803 18.512C13.524 70.532 26.244 78 40 78c20.953 0 38-17.047 38-38a38.07 38.07 0 0 0-12.677-28.335A37.936 37.936 0 0 0 40 2z" fill="#112c41"/><path d="M79 40c0 21.54-17.46 39-39 39-14.64 0-27.4-8.07-34.07-20h.01C42 83 85 39 66 10.94c0-.01-.01-.01-.01-.02C73.97 18.06 79 28.44 79 40z" fill="#9797f7"/><path d="M40 80C17.945 80 0 62.056 0 40S17.945 0 40 0s40 17.944 40 40-17.944 40-40 40zm0-78C19.047 2 2 19.047 2 40s17.047 38 38 38 38-17.047 38-38S60.954 2 40 2z" fill="#112c41"/><circle cx="52.5" cy="40.5" fill="#b2b0f7" r="22.5"/><path d="M52.5 64C39.542 64 29 53.458 29 40.5S39.542 17 52.5 17c12.998 0 20.134 1.585 23.136 5.141 2.557 3.028 1.872 7.05 1.148 11.309-.385 2.266-.784 4.609-.784 7.05 0 2.875.164 5.415.309 7.656.345 5.328.594 9.177-1.869 11.804C71.679 62.905 65.733 64 52.5 64zm0-45C40.645 19 31 28.645 31 40.5S40.645 62 52.5 62c12.438 0 18.181-.956 20.48-3.408 1.87-1.995 1.656-5.301 1.333-10.307C74.166 46.013 74 43.439 74 40.5c0-2.609.432-5.147.812-7.386.699-4.115 1.252-7.365-.705-9.683C71.555 20.408 64.69 19 52.5 19z" fill="#112c41"/><circle cx="62.5" cy="40.5" fill="#cbc8ff" r="22.5"/><g fill="#112c41"><path d="M62.5 64C49.542 64 39 53.458 39 40.5S49.542 17 62.5 17 86 27.542 86 40.5 75.458 64 62.5 64zm0-45C50.645 19 41 28.645 41 40.5S50.645 62 62.5 62 84 52.355 84 40.5 74.356 19 62.5 19z"/><ellipse cx="62.562" cy="41" rx="15.469" ry="15"/><path d="M62.563 57c-9.081 0-16.469-7.178-16.469-16s7.388-16 16.469-16 16.469 7.178 16.469 16-7.388 16-16.469 16zm0-30c-7.979 0-14.469 6.28-14.469 14s6.49 14 14.469 14 14.469-6.28 14.469-14-6.491-14-14.469-14z"/></g><path d="M52.498 45a2.5 2.5 0 0 1-2.448-2.01c-.611-3.057.417-6.583 2.751-9.43 2.341-2.855 5.594-4.56 8.7-4.56a2.5 2.5 0 1 1 0 5c-1.601 0-3.452 1.046-4.833 2.73-1.374 1.676-2.031 3.699-1.716 5.28A2.5 2.5 0 0 1 52.498 45z" fill="#fff"/></svg></g></svg>