<svg xmlns="http://www.w3.org/2000/svg" viewBox="0 0 1800 1800" width="1800" height="1800"><g transform="translate(600.0 1594.0) rotate(0.0 138.5 23.5) scale(0.7128225715138602 0.7164743364990319)"><svg width="388.596" height="65.599" viewBox="0 0 388.596 65.599"><ellipse cx="194.298" cy="32.799" fill="#cbc8ff" rx="194.298" ry="32.799"/></svg></g><g transform="translate(693.0 792.0) rotate(0.0 473.0 417.0) scale(1.0065328878769177 1.0061333114573732)"><svg width="939.86" height="828.916" viewBox="0 0 939.86 828.916"><path d="M58.941 629.323a834.115 834.115 0 0 0 20.972-33.01l.122-.181c.042-.075.09-.142.124-.2 6.893-11.43 13.6-22.52 19.37-32.253 0 0 78.452 51.25 124.1 73.585-6.686 10.682-13.006 19.281-20.544 30.287a14733.766 14733.766 0 0 1-24.067 35.049z" fill="#ffd6c0"/><path d="m117.078 564.825-44.764 72.848c-4.7.15-13.807.537-16.94.11 17.707-29.18 47.367-78.111 47.367-78.111z" fill="#f5b9ab"/><path d="M179.016 703.6a.986.986 0 0 1-.52-.147L58.42 630.177a1 1 0 0 1-.311-1.409c7.277-10.881 13.933-21.357 20.948-32.972l.149-.223a1.012 1.012 0 0 1 .077-.123l2.764-4.581c5.976-9.907 11.62-19.264 16.622-27.7a1 1 0 0 1 1.407-.327c.784.512 78.923 51.472 123.991 73.523a1 1 0 0 1 .408 1.429c-4.707 7.523-9.278 14.077-14.118 21.018-2.069 2.967-4.2 6.029-6.448 9.3a15046.446 15046.446 0 0 1-24.069 35.051 1 1 0 0 1-.824.437zM60.351 629.013l118.379 72.244c2.377-3.45 12.319-17.89 23.529-34.266 2.247-3.282 4.385-6.348 6.458-9.32 4.622-6.628 9-12.9 13.473-20-42.71-21.071-113.642-66.94-122.333-72.587-4.872 8.2-10.33 17.252-16.1 26.813l-2.745 4.551-.065.1-.085.135-.122.18a820.145 820.145 0 0 1-20.389 32.15z" fill="#112c41"/><path d="M189.19 804.618c-49.443-13.14-102.328-49.924-141.833-88.191a384.939 384.939 0 0 1-30.718-33.293S43.656 650 58.941 629.323l9.682 5.946S178.678 702.5 179.017 702.6c5.401 9.794 28.308 56.751 10.173 102.018z" fill="#ffa9dc"/><path d="M16.639 683.134S43.656 650 58.941 629.323l10.535 9.435C58.54 658.389 40.988 688.8 39.915 709.292c-.015.215-14.454-15.292-23.276-26.158z" fill="#ff90d8"/><path d="M189.19 805.618a.992.992 0 0 1-.257-.034c-43.986-11.684-97.171-44.751-142.272-88.439a384.73 384.73 0 0 1-30.8-33.38 1 1 0 0 1 0-1.263c.27-.331 27.177-33.356 42.273-53.773a1 1 0 0 1 1.327-.258l9.682 5.945c1.083.662 108.274 66.139 110.325 67.3a1 1 0 0 1 .421.407c4.976 9.02 28.856 56.369 10.226 102.87a1 1 0 0 1-.925.625zM17.929 683.134a384.082 384.082 0 0 0 30.124 32.575c44.573 43.177 97.031 75.906 140.534 87.711 17.832-45.82-6.85-93.748-10.328-100.118-2.279-1.345-16.572-10.013-110.157-67.18l-8.9-5.466c-14.04 18.912-37.509 47.844-41.273 52.478z" fill="#112c41"/><path d="M109.483 769.871a2.5 2.5 0 0 1-2.447-3.024c2.588-12.1 2.674-28.409-16.316-57.676-16.344-25.187-17.379-43.479-3.819-67.492a2.5 2.5 0 0 1 4.354 2.459c-12.634 22.372-11.676 38.678 3.659 62.313 15.9 24.5 20.984 42.874 17.011 61.443a2.5 2.5 0 0 1-2.442 1.977z" fill="#fff"/><path d="M179.157 825.485a4.931 4.931 0 0 1-3.9 2.361C142.939 830.4 40.248 762.555 3.169 711.238c-3.176-4.4-2.383-7.474-.673-10.324l14.143-17.78c39.109 48.12 108.7 104.512 172.551 121.484-2.811 7.504-6.069 14.84-10.033 20.867z" fill="#fff"/><path d="M173.481 828.913c-16.049 0-47.489-14.473-83.039-38.337-37.915-25.453-70.842-54.892-88.083-78.752-3.647-5.047-2.411-8.608-.721-11.425a1.3 1.3 0 0 1 .075-.108l14.144-17.779a1 1 0 0 1 1.558-.009c37.659 46.335 107.556 104.01 172.032 121.148a1 1 0 0 1 .679 1.317c-3.313 8.845-6.627 15.735-10.134 21.067a5.91 5.91 0 0 1-4.652 2.808c-.594.047-1.215.07-1.859.07zM3.32 701.484c-1.618 2.72-2.115 5.328.66 9.168 37.587 52.021 136.92 116.26 169.481 116.262q.9 0 1.721-.065a3.947 3.947 0 0 0 3.139-1.914 102.13 102.13 0 0 0 9.543-19.639C123.7 787.818 54.477 730.882 16.649 684.728z" fill="#112c41"/><path d="M58.944 629.32c30.524 30.175 82.7 60.833 120.073 73.284 0 0 9.078-13.308 20.479-29.805.4-.571.792-1.152 1.188-1.733s.792-1.162 1.2-1.744.8-1.173 1.206-1.764C168.673 655.5 119.417 625.5 80.319 595.7c0 0-.052.086-.158.237a1.388 1.388 0 0 0-.122.192 2.094 2.094 0 0 0-.123.183 834.708 834.708 0 0 1-20.972 33.008z" fill="#fff"/><g fill="#112c41"><path d="M179.016 703.6a1.013 1.013 0 0 1-.315-.051c-39.628-13.2-91.414-44.809-120.46-73.522a1 1 0 0 1-.128-1.267 819.36 819.36 0 0 0 20.947-32.965 1.812 1.812 0 0 1 .125-.19 2.3 2.3 0 0 1 .126-.2c.108-.155.15-.221.157-.233a1 1 0 0 1 1.457-.269c42.486 32.377 90.567 60.524 122.492 71.709a1 1 0 0 1 .5 1.507l-1.2 1.763c-.41.588-.8 1.166-1.2 1.743-.411.6-.8 1.177-1.194 1.741a6279.402 6279.402 0 0 0-20.474 29.8 1 1 0 0 1-.833.434zM60.235 629.187c28.788 28.2 79.369 59.061 118.382 72.228a6890.992 6890.992 0 0 1 20.056-29.184c.39-.562.778-1.131 1.166-1.7.417-.613.814-1.2 1.223-1.781l.467-.684c-31.884-11.449-79.066-39.105-120.953-70.913a829.474 829.474 0 0 1-20.341 32.034z"/><path d="M58.943 630.32a1 1 0 0 1-.831-1.556 820.556 820.556 0 0 0 20.948-32.969 1.766 1.766 0 0 1 .125-.19 2.2 2.2 0 0 1 .126-.2c.107-.155.149-.221.156-.233a1 1 0 0 1 1.7 1.047s-.063.1-.192.287l-.9-.463.838.545a.421.421 0 0 1-.058.1l-.868-.5.787.618a829.49 829.49 0 0 1-21.009 33.068 1 1 0 0 1-.822.446zm120.073 73.28a1 1 0 0 1-.823-1.568s9.124-13.241 20.478-29.8c.4-.573.793-1.152 1.187-1.73s.795-1.169 1.2-1.753l1.2-1.756a1 1 0 0 1 1.651 1.128l-1.2 1.763c-.41.588-.8 1.166-1.2 1.743s-.8 1.168-1.194 1.741c-11.352 16.559-20.477 29.8-20.477 29.8a1 1 0 0 1-.822.432z"/></g><circle cx="152.908" cy="719.208" fill="#ffe993" r="8.5"/><path d="M152.561 722.139c12.833 8.337 31.036 10.531 37.406 9.333a2.832 2.832 0 1 0-1.047-5.567c-4.891.92-22.342-1.035-34.009-9.007a2.832 2.832 0 0 0-3.2 4.675c.281.192.565.381.85.566z" fill="#fff"/><path d="M185.852 732.778c-8.364 0-22.859-2.669-33.836-9.8a46.852 46.852 0 0 1-.869-.58 3.834 3.834 0 0 1-1-5.325 3.838 3.838 0 0 1 5.326-1c11.438 7.814 28.5 9.744 33.26 8.849a3.832 3.832 0 0 1 1.417 7.532 24.045 24.045 0 0 1-4.298.324zM153.1 721.3c12.609 8.192 30.579 10.33 36.677 9.19a1.833 1.833 0 1 0-.678-3.6c-5.005.939-22.868-1.041-34.757-9.163a1.831 1.831 0 1 0-2.07 3.022q.413.284.829.554z" fill="#112c41"/><circle cx="155.505" cy="745.962" fill="#ffe993" r="8.5"/><path d="M155.245 748.9c13.075 7.953 33.3 8.546 39.634 7.159a2.832 2.832 0 1 0-1.212-5.533c-4.861 1.064-24.33.688-36.228-6.934a2.832 2.832 0 0 0-3.059 4.767q.428.277.865.541z" fill="#fff"/><path d="M187.553 757.623c-9 0-22.8-1.769-32.828-7.867-.3-.18-.593-.366-.884-.553a3.832 3.832 0 0 1 4.137-6.452c11.848 7.591 31.009 7.777 35.475 6.8a3.832 3.832 0 1 1 1.639 7.486 38.719 38.719 0 0 1-7.539.586zm-31.789-9.576c13.211 8.035 33.181 8.286 38.9 7.037a1.83 1.83 0 0 0 1.4-2.181 1.839 1.839 0 0 0-2.182-1.4c-4.661 1.024-24.646.834-36.981-7.068a1.832 1.832 0 0 0-1.98 3.084c.278.179.561.354.845.527z" fill="#112c41"/><path d="M813.314 140.662c-.767 88.522-68.155 122.569-68.155 122.569a833.183 833.183 0 0 0-33.852-19.586l-.185-.114c-.077-.039-.145-.085-.2-.116-11.707-6.413-22.073-11.8-32.037-17.167 0 0 43.4-82.971 63.827-129.5l1.01.577c10.7 6.124 22.7 13.448 33.66 20.306a1917.82 1917.82 0 0 1 35.644 22.853z" fill="#ffd6c0"/><path d="m679.415 208.1 74.77 41.474c.359 4.688 1.152 13.769.864 16.919-29.939-16.391-80.178-42.435-80.178-42.435z" fill="#f5b9ab"/><path d="M813.018 141.731v-.07c.1-.336.2-.671.294-1.013 9.557-5.8 55.608-31.064 101.589-14.821-14.309 64.5-67.77 136.368-114.227 177.438 0 0-34.229-25.619-55.518-40.034" fill="#ffa9dc"/><path d="M802.081 303.173s-34.309-25.514-55.642-39.863l8.956-10.945c20.1 10.05 51.263 26.231 71.781 26.39.215.002-14.638 15.122-25.095 24.418z" fill="#ff90d8"/><path d="M800.677 304.265a1 1 0 0 1-.6-.2c-.342-.256-34.454-25.771-55.479-40.007a1 1 0 1 1 1.121-1.656c19.451 13.171 50.059 35.958 54.9 39.574 44.423-39.484 98.436-110.892 113.109-175.5-45.171-15.461-90.085 9.128-99.561 14.821-.06.207-.121.411-.182.616a1 1 0 0 1-1.014.78.971.971 0 0 1-.956-1.009v-.07a1.039 1.039 0 0 1 .041-.242c.1-.327.2-.655.287-.99a1 1 0 0 1 .446-.591c8.884-5.394 55.576-31.461 102.441-14.91a1 1 0 0 1 .643 1.16c-14.545 65.567-69.57 138.216-114.54 177.971a1 1 0 0 1-.656.253z" fill="#112c41"/><path d="M784.93 241.082c-8.977 0-18.179-2.594-28.528-7.679a2.5 2.5 0 0 1 2.2-4.489c23.059 11.333 39.283 9.442 62-7.224 23.548-17.275 41.6-23.408 60.368-20.5a2.5 2.5 0 0 1-.764 4.941c-12.225-1.891-28.516-1.041-56.646 19.594-14.082 10.33-26.137 15.357-38.63 15.357z" fill="#fff"/><path d="M936.169 134.986a4.933 4.933 0 0 1 2.52 3.8c3.895 32.188-59.638 137.6-109.374 176.778-4.26 3.355-7.368 2.691-10.287 1.1l-18.351-13.394c46.457-41.07 99.916-112.943 114.223-177.443 7.618 2.497 15.082 5.448 21.269 9.159z" fill="#fff"/><path d="M823.434 318.976a10.132 10.132 0 0 1-4.885-1.439.823.823 0 0 1-.111-.07l-18.35-13.394a1 1 0 0 1-.073-1.557c44.733-39.546 99.461-111.773 113.912-176.906a1 1 0 0 1 1.288-.734c8.975 2.945 16 5.972 21.468 9.253a5.913 5.913 0 0 1 3 4.532c1.855 15.326-11.448 48.437-34.715 86.412-23.858 38.936-51.908 73.057-75.033 91.271a10.471 10.471 0 0 1-6.501 2.632zm-3.871-3.163c2.785 1.5 5.411 1.892 9.133-1.039 51.342-40.441 112.69-145.382 109-175.873a3.952 3.952 0 0 0-2.043-3.057 102.322 102.322 0 0 0-20.017-8.722c-14.8 64.832-68.822 136.36-113.368 176.067z" fill="#112c41"/><path d="M710.669 243.26c28.157-40.289 56.1-90.755 66.716-125.637 19.44 12.166 35.636 22.855 35.636 22.855.006.4 0 .831-.007 1.253-11.585 40.829-38.791 89.543-67.844 121.492l-.009.011a831.12 831.12 0 0 0-33.855-19.586 2.069 2.069 0 0 0-.188-.118c-.073-.035-.136-.081-.2-.117l-.1-.063a1.589 1.589 0 0 0-.149-.09z" fill="#fff"/><path d="M745.152 264.23a.974.974 0 0 1-.512-.143c-11.15-6.806-21.895-13.022-33.815-19.561a1.251 1.251 0 0 1-.115-.074l-.094-.056a1.516 1.516 0 0 1-.163-.1l.378-.928-.5.853.353-.955-.493.868a1.021 1.021 0 0 1-.489-.653 1.009 1.009 0 0 1 .149-.8c30.588-43.766 56.722-92.97 66.579-125.354a1 1 0 0 1 1.487-.556c19.229 12.033 35.494 22.76 35.657 22.867a1 1 0 0 1 .449.818c.006.415 0 .862-.008 1.3a1.015 1.015 0 0 1-.037.244c-11.6 40.9-38.958 89.882-68.066 121.892a1.025 1.025 0 0 1-.76.338zm-33.047-21.283a828.268 828.268 0 0 1 32.87 19c28.7-31.811 55.572-80.037 67.042-120.372 0-.186.007-.374.008-.559a2008.442 2008.442 0 0 0-34.068-21.858c-10.126 32.356-35.808 80.642-65.852 123.789z" fill="#112c41"/><path d="M745.152 264.23a.974.974 0 0 1-.512-.143c-11.15-6.806-21.895-13.022-33.815-19.561a1.251 1.251 0 0 1-.115-.074l-.094-.056a1.516 1.516 0 0 1-.163-.1l.382-.938-.506.862c-7.2-3.942-13.878-7.486-20.331-10.913-3.955-2.1-7.8-4.142-11.582-6.178a1 1 0 0 1-.413-1.345c.434-.829 43.615-83.476 63.793-129.451a1 1 0 0 1 1.411-.466c9.666 5.514 21.343 12.547 34.708 20.905 19.229 12.033 35.494 22.76 35.657 22.867a1 1 0 0 1 .449.818c.006.415 0 .862-.008 1.3a1.015 1.015 0 0 1-.037.244c-11.6 40.9-38.958 89.882-68.066 121.892a1.025 1.025 0 0 1-.758.337zm-33.317-21.43c11.677 6.407 22.23 12.5 33.14 19.152 28.7-31.811 55.572-80.037 67.042-120.372 0-.186.007-.374.008-.559a2012.958 2012.958 0 0 0-35.171-22.548c-12.9-8.066-24.222-14.9-33.674-20.311-19.248 43.638-58.28 118.718-62.947 127.677 3.5 1.88 7.054 3.768 10.7 5.705 6.458 3.43 13.137 6.977 20.359 10.929l.267.162c.125.065.205.116.276.165z" fill="#112c41"/><circle cx="831.071" cy="165.618" fill="#ffe993" r="8.5"/><path d="M834.014 165.844c7.8-13.168 9.236-31.446 7.774-37.761a2.832 2.832 0 1 0-5.519 1.277c1.122 4.848-.108 22.365-7.588 34.352a2.832 2.832 0 1 0 4.8 3c.183-.285.36-.576.533-.868z" fill="#fff"/><path d="M831.075 169.046a3.834 3.834 0 0 1-3.243-5.863c7.335-11.752 8.556-28.877 7.463-33.6a3.833 3.833 0 0 1 7.468-1.727c1.5 6.5.153 24.917-7.889 38.5-.177.3-.359.6-.543.891a3.839 3.839 0 0 1-3.256 1.8zm7.954-42.157a1.836 1.836 0 0 0-1.785 2.246c1.148 4.961-.091 22.891-7.715 35.107a1.832 1.832 0 0 0 3.107 1.942q.264-.422.518-.85c7.66-12.937 9.059-30.98 7.66-37.025a1.837 1.837 0 0 0-1.785-1.42z" fill="#112c41"/><circle cx="857.695" cy="161.914" fill="#ffe993" r="8.5"/><path d="M860.642 162.053c7.4-13.394 7.159-33.628 5.511-39.9a2.833 2.833 0 1 0-5.479 1.44c1.265 4.812 1.7 24.281-5.426 36.484a2.832 2.832 0 0 0 4.89 2.859q.262-.436.504-.883z" fill="#fff"/><path d="M857.687 165.341a3.831 3.831 0 0 1-3.3-5.764c7.092-12.152 6.485-31.3 5.322-35.727a3.832 3.832 0 1 1 7.413-1.948c1.547 5.884 2.151 26.612-5.6 40.634q-.252.456-.515.907a3.836 3.836 0 0 1-3.32 1.898zm5.725-44.3a1.834 1.834 0 0 0-1.77 2.3c1.213 4.615 1.854 24.591-5.53 37.242a1.832 1.832 0 1 0 3.163 1.85c.167-.286.332-.575.492-.865 7.481-13.531 6.907-33.495 5.419-39.159a1.837 1.837 0 0 0-1.774-1.366z" fill="#112c41"/><path d="M742.942 96.877c-10.09 35.75-44.77 99.17-61.85 127.54-.13.21-.25.42-.38.63-.29.48-.57.95-.85 1.41-1.89 3.1-3.52 5.71-4.83 7.71a8.521 8.521 0 0 1-10.95 3.07c-105.75-54.88-278.795-85.988-392.925-42.548 87.96 182.3 41.23 317.62-48.21 443.55-38.48-16.42-103.41-56.82-126.56-73.86-2.21-1.62-4.03-3.03-5.42-4.19-3.93-3.28-4.44-6.9-1.79-11 6.05-9.35 87.04-111.87 3.19-272.26-.45-.86-.9-1.72-1.36-2.58-27.93-52.53-56.04-152.21 33.82-215.47a.055.055 0 0 0 .05-.03c2.25-1.59 4.57-3.14 6.97-4.68.54-.34 1.07-.68 1.61-1.02s1.09-.68 1.64-1.02 1.1-.67 1.65-1 1.12-.67 1.68-1a236.816 236.816 0 0 1 24.54-12.53c.48-.22.97-.43 1.46-.64q6.075-2.655 12.62-5.14 2.175-.825 4.41-1.64l.01-.01q2.22-.8 4.5-1.59c.82-.28 1.63-.56 2.45-.84 2.06-.69 4.16-1.38 6.29-2.05.18-.06.36-.12.54-.17 1.74-.56 3.5-1.1 5.29-1.64 95.05-28.4 330.963-52.922 542.405 72.998z" fill="#b2b0f7"/><path d="M115.187 266.149c66.33 154.23 8.79 248.78-12.91 280.76 0 .01-.01.01-.02.02-1.84 2.71-2.94 4.25-3.05 4.52-3.2 4.69-5.55 9.1-2.82 12.93-2.21-1.62-4.03-3.03-5.42-4.19-3.93-3.28-4.44-6.9-1.79-11 6.05-9.35 87.04-111.87 3.19-272.26-.45-.86-.9-1.72-1.36-2.58-26.6-53.19-55.55-152.37 33.82-215.47a.055.055 0 0 0 .05-.03q3.375-2.37 6.97-4.68c.54-.34 1.07-.68 1.61-1.02s1.09-.68 1.64-1.02 1.1-.67 1.65-1 1.12-.67 1.68-1a236.816 236.816 0 0 1 24.54-12.53c.48-.22.97-.43 1.46-.64q6.075-2.655 12.62-5.14 2.175-.825 4.41-1.64l.01-.01q2.22-.8 4.5-1.59c.82-.28 1.63-.56 2.45-.84 2.06-.69 4.16-1.38 6.29-2.05.2-.07.4-.14.61-.2-.02.01-.05.02-.07.03-132.97 55.94-113.941 161.851-80.06 240.63zm565.901-41.73c-.13.21-.25.42-.38.63-.29.48-.57.95-.85 1.41-1.89 3.1-3.52 5.71-4.83 7.71a8.521 8.521 0 0 1-10.95 3.07c-105.75-54.88-278.8-85.989-392.926-42.549-8.637-16.511-7.721-26.891-7.721-26.891 123.1-37.94 282.9-8 403.491 58.9 5.078 2.816 11.356-.199 14.166-2.28z" fill="#9797f7"/><path d="M96.81 174.3c-.432 0-.86 0-1.294-.011a1 1 0 1 1 .034-2c31.884.561 54.709-19.676 62.417-38.7a1 1 0 0 1 1.854.752C151.97 153.718 128.962 174.3 96.81 174.3zm174.344 21.389a1 1 0 0 1-.9-.566c-7.246-15.028-9.538-26.791-6.814-34.962a1 1 0 0 1 1.9.632c-2.518 7.553-.195 19.123 6.718 33.461a1 1 0 0 1-.9 1.435z" fill="#112c41"/><path d="M222.946 639.239a1.025 1.025 0 0 1-.392-.08c-38.762-16.541-104.1-57.295-126.76-73.974-2.193-1.608-4.033-3.03-5.468-4.229-4.287-3.578-4.956-7.719-1.989-12.31.286-.442.736-1.088 1.326-1.935a218.225 218.225 0 0 0 35.237-83.862c11.4-58.847.156-121.243-33.414-185.457-.449-.857-.9-1.715-1.356-2.571-10.571-19.882-28.183-59.854-27.379-104.2.843-46.55 21.537-84.42 61.505-112.557.025-.018.05-.033.076-.049a188.567 188.567 0 0 1 6.98-4.686l1.617-1.025c.536-.337 1.082-.674 1.627-1.012.567-.345 1.13-.688 1.682-1.019s1.123-.672 1.687-1a238.847 238.847 0 0 1 24.643-12.583c.443-.2.908-.4 1.373-.6l.095-.041a287.992 287.992 0 0 1 12.66-5.155q2.143-.813 4.342-1.615a.908.908 0 0 1 .1-.041q2.223-.8 4.507-1.594l2.457-.842a366.416 366.416 0 0 1 6.313-2.057c.212-.071.393-.13.573-.18a287.663 287.663 0 0 1 5.268-1.633c23.127-6.923 107.928-28.893 227.9-21.422a744.131 744.131 0 0 1 154.471 25.882 665.69 665.69 0 0 1 160.827 68.626 1 1 0 0 1 .451 1.131c-10.842 38.414-48.4 105.266-61.956 127.784l-1.232 2.044c-2 3.284-3.588 5.814-4.848 7.738a9.577 9.577 0 0 1-12.246 3.41c-53.815-27.927-124.156-49.083-192.99-58.041-53.541-6.968-131.251-9.96-198.1 15.155 41.033 85.431 54.784 164.777 42.033 242.525-10.651 64.941-39.5 128.827-90.8 201.054a1 1 0 0 1-.82.421zM125.373 59.717C100.185 77.459 23.5 145.245 91.89 273.879c.46.861.912 1.724 1.363 2.586 33.785 64.625 45.092 127.462 33.606 186.764A220.215 220.215 0 0 1 91.3 547.855a82.805 82.805 0 0 0-1.288 1.877c-2.4 3.705-1.889 6.784 1.592 9.689 1.4 1.171 3.209 2.568 5.37 4.152C119.43 580.1 183.882 620.319 222.6 637c50.822-71.7 79.424-135.129 89.991-199.56 12.732-77.629-1.116-156.892-42.334-242.318a1 1 0 0 1 .545-1.369c37.238-14.173 102.18-28.393 200.089-15.653 69.056 8.987 139.64 30.218 193.652 58.249a7.556 7.556 0 0 0 9.653-2.731c1.248-1.905 2.822-4.418 4.813-7.682l1.233-2.046c13.425-22.3 50.477-88.231 61.528-126.548a663.766 663.766 0 0 0-159.683-68.024A742.12 742.12 0 0 0 428.031 3.506C308.389-3.944 223.876 17.95 200.823 24.837a292.978 292.978 0 0 0-5.27 1.634 8.59 8.59 0 0 0-.485.151c-2.185.689-4.28 1.377-6.334 2.065l-2.445.838q-2.223.776-4.4 1.555a.874.874 0 0 1-.09.039q-2.229.809-4.4 1.634a284.614 284.614 0 0 0-12.574 5.121l-.1.044c-.451.194-.9.388-1.344.59a236.739 236.739 0 0 0-24.448 12.483c-.557.327-1.113.655-1.668.993s-1.111.67-1.649 1c-.556.344-1.1.678-1.629 1.012l-1.608 1.02a185.34 185.34 0 0 0-6.927 4.65.852.852 0 0 1-.079.051z" fill="#112c41"/></svg></g><g transform="translate(213.0 444.0) rotate(0.0 605.0 237.0) scale(0.9967839301954685 0.9961205936374373)"><svg width="1213.904" height="475.846" viewBox="0 0 1213.904 475.846"><path d="M1116.346 172.676c-12.91 33.56-107.37 149.07-291.01 124.44.16 2.93.24 6 .22 9.2a155.031 155.031 0 0 1-4.19 34.8c-17.47 74.08-80.83 124.87-153.17 133.22a239.905 239.905 0 0 1-39.82-.72c-58.99-5.99-108.17-38.76-136.49-84.49 0-.01-.02-.02-.02-.03-.12-.19-.22-.37-.33-.56a105.242 105.242 0 0 1-7.44-13.55c-180.66 127.23-341.45-27.36-354.7-46.35-13.96-20 69.27-121.36 86.47-112.34 47.31 31.32 97.18 77.44 202.92 7.55 59.74-39.48 108.1-60.16 149.08-71.8 6.05-1.73 11.94-3.25 17.68-4.61l.01-.01q5.82-1.365 11.44-2.53c12.9-2.67 24.55-4.56 34.7-6.05a325.516 325.516 0 0 1 40.74-3.05c5.52-.11 11.15-.12 16.86-.05q2.76.03 5.55.09c39.19.79 81.93 5.04 120.68 7.98 46.12 3.51 85.78 1.82 108.42-4.8 50.04-14.64 70.1-43.45 84.16-56.67 17.03-16.01 117.18 67.1 108.24 90.33z" fill="#fff"/><path d="M1080.216 221.276c-44.41 43.4-128.54 92.79-254.88 75.84a138.2 138.2 0 0 0-4.55-28.93c104.523 34.576 220.438-6.52 259.43-46.91z" fill="#dedffe"/><path d="M818.765 261.665c1.479 4.216 6.95 20.813 6.794 44.656a155.682 155.682 0 0 1-4.189 34.792c-17.477 74.079-80.835 124.876-153.172 133.22a238.79 238.79 0 0 1-39.818-.717c-59-5.989-108.177-38.764-136.5-84.494 0-.01-.013-.018-.015-.028-.119-.184-.228-.37-.337-.555-.238-.369-17.839-25.918-25.038-73.375" fill="#fff"/><path d="M652.651 475.844a242.794 242.794 0 0 1-24.372-1.232 183.5 183.5 0 0 1-80.185-27.5 181.327 181.327 0 0 1-57.06-57.468.605.605 0 0 1-.032-.055 16.7 16.7 0 0 1-.315-.519c-1.866-2.785-18.282-28.282-25.181-73.761a1 1 0 1 1 1.977-.3c6.834 45.05 23.025 70.2 24.848 72.922.011.015.053.079.063.1.113.192.21.356.315.518.017.026.032.054.047.081a179.311 179.311 0 0 0 56.406 56.8 181.492 181.492 0 0 0 79.319 27.194 237.967 237.967 0 0 0 39.65.713 180.513 180.513 0 0 0 96.578-41.722 169.442 169.442 0 0 0 55.691-90.732 155.057 155.057 0 0 0 4.162-34.569c.146-22.25-4.663-38.405-6.738-44.318a1 1 0 0 1 1.888-.662c2.109 6.012 7 22.429 6.85 44.993a157.035 157.035 0 0 1-4.216 35.015A171.417 171.417 0 0 1 766 433.136a182.535 182.535 0 0 1-97.692 42.189q-7.778.519-15.657.519z" fill="#112c41"/><path d="M723.029 459.966c-19.746 7.846-42.46 15.937-83.5 14.778a185.243 185.243 0 0 1-47.059-7.424.03.03 0 0 0-.022 0c-67.341-20.723-116-78.084-125-145.746a.037.037 0 0 0 0-.032l-.247-2.213-.469-4.1q-.685-7.179-.766-14.493l-.141-.522c0-1.387.025-2.773.061-4.171.385-13.531 4.8-37.085 4.8-37.085 6.767 3.523 17.416 21.237 18.02 28.272 8.17 95.175 76.935 176.338 174.587 179.11 21.656.606 46.325-1.84 59.736-6.374z" fill="#dedffe"/><path d="M652.69 475.842a243.579 243.579 0 0 1-24.414-1.23 183.494 183.494 0 0 1-80.18-27.493 181.326 181.326 0 0 1-57.053-57.455l-.021-.033a8.64 8.64 0 0 1-.271-.455l-.063-.111c-.026-.035-.054-.077-.086-.125l-.156-.238c-.124-.193-.229-.357-.356-.543a.9.9 0 0 1-.047-.078 10.398 10.398 0 0 1-1.739-2.888l-.049-.082a11.74 11.74 0 0 1-.272-.48c-.085-.134-.2-.347-.319-.559a82.591 82.591 0 0 1-.884-1.6c-.1-.18-.191-.354-.287-.528-.144-.264-.258-.47-.371-.686l-.676-1.293c-.121-.251-.23-.46-.34-.671l-.3-.6a33.398 33.398 0 0 0-.284-.568l-.077-.154a3.808 3.808 0 0 1-.106-.212l-.217-.44a95.481 95.481 0 0 1-.78-1.604l-.142-.294c-5.663-11.964-13.3-31.929-17.538-59.14l-.15-.96a1 1 0 1 1 1.976-.309l.15.96c4.2 26.976 11.763 46.749 17.366 58.587l.135.278c.1.195.189.386.278.578.164.34.333.683.5 1.019l.3.608c.036.07.072.139.105.211.081.155.181.356.278.553l.136.273c.085.165.124.244.159.321.108.2.228.434.339.666.136.254.285.539.43.819l.233.447c.107.2.214.4.32.593.134.243.236.429.329.607.3.55.587 1.074.863 1.558.112.2.213.388.315.554.1.193.181.322.254.446l.065.11c.1.184.195.34.286.487.2.353.381.646.547.921.089.155.153.267.217.364.237.375.427.687.59.954a1.358 1.358 0 0 1 .087.14c.13.192.238.36.323.494l.242.369a.965.965 0 0 1 .071.105l.084.146c.073.127.144.251.225.38l.026.04a179.326 179.326 0 0 0 56.428 56.828 181.5 181.5 0 0 0 79.313 27.193 239.179 239.179 0 0 0 39.653.717 180.554 180.554 0 0 0 96.58-41.724 169.4 169.4 0 0 0 55.683-90.727 154.425 154.425 0 0 0 4.163-34.576v-1.065c0-1.221-.02-2.423-.05-3.6 0-.208 0-.4-.009-.573-.04-1.344-.09-2.636-.159-3.9a137.5 137.5 0 0 0-4.516-28.72 98.338 98.338 0 0 0-2-6.455 1 1 0 0 1 1.888-.66c.72 2.057 1.406 4.273 2.041 6.586a139.628 139.628 0 0 1 4.584 29.141c.07 1.276.12 2.585.161 3.923.01.184.01.413.01.631.03 1.172.05 2.39.05 3.629v1.071a156.425 156.425 0 0 1-4.217 35.03 171.372 171.372 0 0 1-56.334 91.79 182.581 182.581 0 0 1-97.694 42.192q-7.769.512-15.626.51z" fill="#112c41"/><path d="M712.626 181.736c-12 11.75-48.764-.336-57.57-8.14-5.24 9.17-6.654 37.343-31.7 41.34-20.771 3.315-54.813-20.089-53.92-63.343 6.05-1.73 10.37-2.8 16.11-4.157l.01-.01q5.82-1.365 11.44-2.53c12.9-2.67 24.55-4.56 34.7-6.05a325.516 325.516 0 0 1 40.74-3.05c5.52-.11 11.15-.12 16.86-.05 14.68 13.77 34.06 35.49 23.33 45.99z" fill="#dedffe"/><path d="M712.628 181.741c-12.511 10.723-45.452-13.365-56.082-21.2.54 9.47-7.833 54.9-33.19 54.39-19.8-.4-40.515-32.174-37.81-67.5l.01-.01q5.82-1.365 11.44-2.53c12.9-2.67 24.55-4.56 34.7-6.05a325.516 325.516 0 0 1 40.74-3.05c7.3-.14 14.79-.12 22.41.04 0 .005 35.204 30.977 17.782 45.91z" fill="#fff"/><g fill="#112c41"><path d="M623.776 215.941h-.44c-7.057-.142-14.531-4.171-21.046-11.347-12.585-13.861-19.383-35.79-17.741-57.229a1 1 0 0 1 .266-.606 1.045 1.045 0 0 1 .513-.3 466.843 466.843 0 0 1 11.465-2.535c10.864-2.248 21.909-4.174 34.758-6.06a327.771 327.771 0 0 1 40.866-3.061c7.136-.135 14.69-.123 22.45.04a1.006 1.006 0 0 1 .64.249c.942.829 23.064 20.476 22.961 36.353a14.149 14.149 0 0 1-5.189 11.061c-12.635 10.832-43.495-11-55.735-19.978-.374 9.117-5.058 33.245-17.074 45.714-4.929 5.108-10.544 7.699-16.694 7.699zm-37.285-67.706c-1.367 20.381 5.378 41.9 17.28 55.01 6.141 6.765 13.1 10.562 19.605 10.692 5.744.129 11.01-2.271 15.654-7.09 12.644-13.12 16.895-39.62 16.518-46.244a1 1 0 0 1 1.591-.861c28.414 20.927 46.863 28.07 54.838 21.24a12.234 12.234 0 0 0 4.492-9.555c.092-14.067-19.476-32.294-22.015-34.6-7.6-.155-15-.167-22-.032a325.691 325.691 0 0 0-40.614 3.039c-12.809 1.881-23.817 3.8-34.642 6.041a463.765 463.765 0 0 0-10.707 2.36z"/><path d="M637.406 166.236c-21.17 1.96-39.26-6.49-40.41-18.86a12.843 12.843 0 0 1 0-2.48c12.9-2.67 24.55-4.56 34.7-6.05a325.516 325.516 0 0 1 40.74-3.05 13.461 13.461 0 0 1 1.23 4.48c1.14 12.37-15.08 23.99-36.26 25.96z"/><path d="M652.69 475.842a243.579 243.579 0 0 1-24.414-1.23 183.494 183.494 0 0 1-80.18-27.493 181.337 181.337 0 0 1-57.053-57.455l-.021-.033c-.1-.163-.193-.318-.285-.479l-.066-.116a105 105 0 0 1-6.966-12.552c-59.755 41.767-123.268 57.1-188.794 45.587-48.934-8.6-89.331-30.854-114.6-48.005-29.036-19.706-47.682-39.056-51.73-44.858-9.372-13.427 20.89-56.748 42.166-80.9 8.03-9.114 35.049-38.414 45.589-32.9.03.016.059.034.087.052 3.7 2.447 7.488 5.039 11.155 7.545 43.935 30.031 93.732 64.068 190.662 0 63.308-41.843 120.046-66.976 178.558-79.095 10.864-2.248 21.909-4.174 34.758-6.06a327.771 327.771 0 0 1 40.866-3.061c36.059-.7 76.357 2.6 115.328 5.8 9.647.79 18.76 1.536 27.857 2.229 46.288 3.523 85.676 1.787 108.064-4.762 41.336-12.092 62.176-34.011 75.966-48.516 2.9-3.044 5.4-5.674 7.789-7.925 8.185-7.693 30.717 5.482 43.42 14.02 31.922 21.458 72.64 61.283 66.438 77.4-6.822 17.737-34.26 54.885-81.886 84.532-41.275 25.692-110.981 53.541-209 40.7.124 2.659.178 5.364.161 8.057a156.414 156.414 0 0 1-4.217 35.024 171.372 171.372 0 0 1-56.334 91.79 182.581 182.581 0 0 1-97.694 42.192q-7.767.514-15.624.512zM492.736 388.6a179.326 179.326 0 0 0 56.428 56.828 181.5 181.5 0 0 0 79.313 27.193 239.288 239.288 0 0 0 39.653.717 180.554 180.554 0 0 0 96.58-41.724 169.4 169.4 0 0 0 55.683-90.727 154.425 154.425 0 0 0 4.163-34.576c.019-3.061-.054-6.136-.218-9.14a1 1 0 0 1 1.131-1.046c98.054 13.149 167.7-14.633 208.868-40.257 47.207-29.385 74.35-66.066 81.076-83.551 5.227-13.583-31.661-52.147-65.688-75.02-20.468-13.759-35.771-19.074-40.934-14.222-2.353 2.212-4.835 4.823-7.709 7.846-13.938 14.659-35 36.814-76.854 49.057-22.611 6.613-62.258 8.376-108.778 4.836-9.1-.693-18.218-1.44-27.868-2.23-38.922-3.184-79.169-6.484-115.126-5.784a325.693 325.693 0 0 0-40.615 3.039c-12.81 1.881-23.817 3.8-34.642 6.041-58.255 12.066-114.772 37.107-177.862 78.8-40.88 27.02-73.483 36.787-100.818 36.789-38.226 0-66.154-19.093-92.075-36.81-3.646-2.493-7.415-5.069-11.085-7.5-6-3.036-23.311 9.991-43.116 32.471-13.3 15.1-25.525 31.926-33.531 46.158-8.928 15.871-11.945 27.334-8.5 32.276 3.982 5.707 22.406 24.8 51.213 44.346 25.111 17.042 65.243 39.15 113.827 47.691 65.337 11.485 128.678-3.969 188.264-45.932a1 1 0 0 1 1.48.39 106.865 106.865 0 0 0 7.346 13.391c.014.019.044.066.056.086l.069.122c.078.134.153.265.24.4l.025.04z"/><path d="M1108.756 169.386c-1.25 1.45-4.45 1.07-9.06-.82a.784.784 0 0 1-.14-.05c-10.33-4.26-27.59-15.94-45.67-31.45-17.89-15.33-31.95-30.46-37.84-40.03a.3.3 0 0 1-.05-.07c-2.74-4.46-3.69-7.71-2.41-9.2 1.21-1.41 4.27-1.09 8.67.66.09.04.18.07.28.12 10.29 4.16 27.69 15.91 45.91 31.54 17.92 15.38 32.03 30.53 37.9 40.1.03.06.07.11.1.17 2.66 4.38 3.57 7.56 2.31 9.03z"/><path d="M1106.272 171.271a19.461 19.461 0 0 1-6.9-1.756 2.105 2.105 0 0 1-.177-.065c-10.814-4.46-28.417-16.574-45.961-31.625-17.25-14.781-31.789-30.16-37.982-40.169l-.109-.166c-3.151-5.128-3.908-8.522-2.316-10.375 1.513-1.763 4.718-1.637 9.8.381l.108.046c.08.033.161.066.248.109 10.69 4.319 28.387 16.468 46.115 31.676 17.4 14.935 32 30.391 38.1 40.337.076.126.112.185.143.248 3.016 4.96 3.741 8.3 2.173 10.124a4.043 4.043 0 0 1-3.242 1.235zm-89.45-74.871.076.112c6.058 9.843 20.48 25.092 37.639 39.795 17.394 14.922 34.791 26.909 45.4 31.284l.138.051c6.073 2.488 7.6 1.468 7.923 1.092s1.108-2.072-2.407-7.858l-.139-.241c-5.957-9.706-20.4-24.981-37.657-39.79-17.574-15.076-35.06-27.1-45.634-31.372l-.311-.133c-5.737-2.282-7.2-1.282-7.5-.923-.336.383-1.134 2.099 2.472 7.983zm51.024 137.186a1.015 1.015 0 0 1-.211-.022c-21.512-4.612-46.133-19.693-67.551-41.375-20.832-21.089-36.224-45.7-42.229-67.518a1 1 0 0 1 1.928-.531c5.917 21.5 21.125 45.79 41.723 66.644 21.152 21.413 45.408 36.292 66.548 40.825a1 1 0 0 1-.208 1.977z"/></g><circle cx="1072.527" cy="193.621" fill="#fff" r="6.313"/><path d="M1072.527 200.935a7.314 7.314 0 1 1 7.314-7.314 7.322 7.322 0 0 1-7.314 7.314zm0-12.627a5.314 5.314 0 1 0 5.314 5.313 5.32 5.32 0 0 0-5.314-5.313z" fill="#112c41"/><circle cx="702.518" cy="263.919" fill="#fff" r="6.313"/><path d="M702.518 271.233a7.314 7.314 0 1 1 7.313-7.314 7.323 7.323 0 0 1-7.313 7.314zm0-12.627a5.314 5.314 0 1 0 5.313 5.313 5.319 5.319 0 0 0-5.313-5.313z" fill="#112c41"/><circle cx="727.992" cy="358.141" fill="#fff" r="6.313"/><path d="M728 365.451a7.312 7.312 0 1 1 5.792-11.764A7.309 7.309 0 0 1 728 365.451zm-.019-12.625a5.317 5.317 0 1 0 4.225 2.08 5.278 5.278 0 0 0-3.522-2.033 5.379 5.379 0 0 0-.703-.047z" fill="#112c41"/><path d="M716.117 463.121a1 1 0 0 1-.619-1.786c25.81-20.29 41.144-77.62 34.182-127.8a293.637 293.637 0 0 0-32.782-99.6c-16.6-30.338-37.751-55.294-61.162-72.171a1 1 0 1 1 1.169-1.623c23.652 17.051 45 42.236 61.748 72.834a295.662 295.662 0 0 1 33.008 100.281 197.522 197.522 0 0 1-4.542 74.924c-6.471 24.971-17.262 44.4-30.385 54.721a1 1 0 0 1-.617.22z" fill="#112c41"/><path d="M514.756 350.766c-2.14 1.88-4.29 3.72-6.43 5.53-.01.01-.02.02-.03.02q-8.265 6.945-16.49 13.07c-.63.47-1.26.94-1.9 1.41s-1.27.94-1.9 1.39c-.61.44-1.22.88-1.82 1.31q-.99.72-1.98 1.41c-180.7 127.37-341.56-27.28-354.81-46.27-.09-.13-.18-.27-.27-.43a3.412 3.412 0 0 1-.17-.33 9.091 9.091 0 0 1-.99-3.11c-.87-5.99 2.29-15.21 7.88-25.81q1.305-2.46 2.78-5.03c20.74-36.1 65.19-83.95 77.24-77.63 47.31 31.32 97.18 77.44 202.92 7.55 18.39-12.15 35.7-22.52 52.05-31.4" fill="#fff"/><path d="M336.845 425.778a241.689 241.689 0 0 1-41.882-3.7c-48.948-8.593-89.359-30.846-114.641-48-29.046-19.709-47.7-39.064-51.746-44.867a6.482 6.482 0 0 1-.322-.511 4.622 4.622 0 0 1-.209-.408 9.912 9.912 0 0 1-1.069-3.38c-.852-5.868 1.835-14.756 7.986-26.419.857-1.617 1.8-3.319 2.8-5.061 10.072-17.53 26.176-38.575 42.029-54.921 10.146-10.462 28.386-27.373 36.544-23.1.03.016.059.034.087.052 3.7 2.448 7.491 5.041 11.159 7.548 43.934 30.031 93.729 64.067 190.658 0 17.7-11.691 35.233-22.27 52.124-31.444a1 1 0 1 1 .954 1.757c-16.84 9.147-34.327 19.7-51.976 31.355-40.88 27.02-73.484 36.789-100.818 36.791-38.225 0-66.151-19.093-92.071-36.81-3.647-2.493-7.418-5.07-11.089-7.5-10.491-5.335-53.679 38.646-75.866 77.264a179.61 179.61 0 0 0-2.763 5c-5.865 11.119-8.553 19.833-7.774 25.2a8.066 8.066 0 0 0 .877 2.773c.068.144.109.227.15.3.088.156.162.27.235.376 3.981 5.7 22.41 24.8 51.227 44.352 25.12 17.045 65.265 39.156 113.863 47.688 65.361 11.473 128.721-4.007 188.322-46.018.659-.459 1.313-.925 1.968-1.4l1.824-1.313c.627-.448 1.262-.915 1.886-1.381a359.163 359.163 0 0 0 18.345-14.443.954.954 0 0 1 .09-.067c2.478-2.1 4.482-3.825 6.353-5.469a1 1 0 0 1 1.32 1.5 441.061 441.061 0 0 1-6.444 5.543l-.069.054a360.902 360.902 0 0 1-16.5 13.074c-.631.471-1.263.943-1.905 1.415s-1.275.943-1.91 1.4l-1.82 1.309q-.988.72-1.99 1.418c-47.239 33.286-96.844 50.041-147.937 50.043z" fill="#112c41"/><path d="M508.3 356.316q-8.265 6.945-16.49 13.07c-.63.47-1.26.94-1.9 1.41s-1.27.94-1.9 1.39c-.61.44-1.22.88-1.82 1.31q-.99.72-1.98 1.41c-180.7 127.37-341.56-27.28-354.81-46.27-.09-.13-.18-.27-.27-.43a3.412 3.412 0 0 1-.17-.33 13.256 13.256 0 0 1-.99-3.11c-.87-5.99 2.29-15.21 7.88-25.81 41.374 56.25 206.31 174.359 372.45 57.36z" fill="#dedffe"/><path d="M336.845 425.778a241.689 241.689 0 0 1-41.882-3.7c-48.948-8.593-89.359-30.846-114.641-48-29.046-19.709-47.7-39.064-51.746-44.867a6.482 6.482 0 0 1-.322-.511 4.622 4.622 0 0 1-.209-.408 9.912 9.912 0 0 1-1.069-3.38c-.852-5.868 1.835-14.756 7.986-26.419.857-1.617 1.8-3.319 2.8-5.061 10.072-17.53 26.176-38.575 42.029-54.921 10.146-10.462 28.386-27.373 36.544-23.1.03.016.059.034.087.052 3.7 2.448 7.491 5.041 11.159 7.548 43.934 30.031 93.729 64.067 190.658 0 17.7-11.691 35.233-22.27 52.124-31.444a1 1 0 1 1 .954 1.757c-16.84 9.147-34.327 19.7-51.976 31.355-40.88 27.02-73.484 36.789-100.818 36.791-38.225 0-66.151-19.093-92.071-36.81-3.647-2.493-7.418-5.07-11.089-7.5-10.491-5.335-53.679 38.646-75.866 77.264a179.61 179.61 0 0 0-2.763 5c-5.865 11.119-8.553 19.833-7.774 25.2a8.066 8.066 0 0 0 .877 2.773c.068.144.109.227.15.3.088.156.162.27.235.376 3.981 5.7 22.41 24.8 51.227 44.352 25.12 17.045 65.265 39.156 113.863 47.688 65.361 11.473 128.721-4.007 188.322-46.018.659-.459 1.313-.925 1.968-1.4l1.824-1.313c.627-.448 1.262-.915 1.886-1.381a359.163 359.163 0 0 0 18.345-14.443.954.954 0 0 1 .09-.067c2.478-2.1 4.482-3.825 6.353-5.469a1 1 0 0 1 1.32 1.5 441.061 441.061 0 0 1-6.444 5.543l-.069.054a360.902 360.902 0 0 1-16.5 13.074c-.631.471-1.263.943-1.905 1.415s-1.275.943-1.91 1.4l-1.82 1.309q-.988.72-1.99 1.418c-47.239 33.286-96.844 50.041-147.937 50.043z" fill="#112c41"/><path d="M193.73 382.546a1 1 0 0 1-.5-1.869c18.128-10.334 37.863-30.941 54.144-56.538 16.2-25.471 26.374-51.711 27.907-71.991a1 1 0 0 1 1.994.15c-3.3 43.652-44.439 108.1-83.054 130.117a1 1 0 0 1-.491.131zm19.586-149c-.15.43-.31.88-.48 1.34-4.07 10.74-14.67 28.2-28.83 46.61a295.8 295.8 0 0 1-24.32 28.11 114.246 114.246 0 0 1-13.03 11.51c-.3.22-.6.43-.89.62-4.41 3.06-7.67 4.23-9.26 3.01-1.49-1.15-1.32-4.28.25-8.86q.09-.315.21-.63a97.134 97.134 0 0 1 6.85-14.35 285.529 285.529 0 0 1 22.3-33.17c13.82-17.97 27.61-32.43 36.95-39.33.26-.19.52-.38.77-.56 4.67-3.33 8.13-4.64 9.78-3.37 1.52 1.17 1.32 4.37-.3 9.07z" fill="#112c41"/><path d="M138.083 326.224a3.481 3.481 0 0 1-2.186-.685c-1.867-1.441-1.894-4.7-.087-9.977.052-.188.131-.425.222-.661a97.377 97.377 0 0 1 6.913-14.485 289.038 289.038 0 0 1 22.379-33.289c13.471-17.517 27.358-32.294 37.148-39.525l.778-.567c5.357-3.819 8.946-4.916 10.976-3.35 1.886 1.451 1.9 4.784.036 10.187-.152.437-.315.892-.487 1.358-4.24 11.19-15.342 29.148-28.975 46.873a296.658 296.658 0 0 1-24.4 28.208 114.653 114.653 0 0 1-13.151 11.612c-.31.228-.624.447-.928.647-3.521 2.441-6.245 3.654-8.238 3.654zm73.929-101.216c-1.144 0-3.381.647-7.595 3.652l-.76.553c-9.645 7.125-23.384 21.755-36.748 39.133a286.89 286.89 0 0 0-22.22 33.049 95.618 95.618 0 0 0-6.781 14.2c-.077.2-.138.387-.19.57-2.077 6.063-.985 7.5-.6 7.793.41.318 2.212 1.033 8.079-3.039.3-.2.583-.4.869-.605a112.578 112.578 0 0 0 12.912-11.414 294.568 294.568 0 0 0 24.235-28.014c13.523-17.581 24.515-35.343 28.688-46.355a72.6 72.6 0 0 0 .47-1.313c2.133-6.188 1.026-7.649.635-7.95a1.594 1.594 0 0 0-.994-.26z" fill="#112c41"/><circle cx="180.081" cy="343.409" fill="#fff" r="6.313"/><path d="M180.081 350.723a7.314 7.314 0 1 1 7.313-7.314 7.321 7.321 0 0 1-7.313 7.314zm0-12.627a5.314 5.314 0 1 0 5.313 5.313 5.319 5.319 0 0 0-5.313-5.309z" fill="#112c41"/><path d="M212.836 234.886c-4.07 10.74-14.67 28.2-28.83 46.61a295.8 295.8 0 0 1-24.32 28.11 114.246 114.246 0 0 1-13.03 11.51c-.3.22-.6.43-.89.62-3-2.02-5.99-3.96-9.01-5.85-.11-.07-.23-.14-.34-.21-18.78-11.74-35.04-20.15-50.56-26.41-1.63-.65-3.26-1.29-4.88-1.9s-3.23-1.2-4.84-1.77-3.22-1.12-4.82-1.64c-1.4-.46-2.8-.91-4.21-1.34-4.2-1.29-8.4-2.45-12.65-3.52q-4.635-1.155-8.87-2.39c-.94-.27-1.87-.54-2.78-.82-1.46-.44-2.87-.89-4.25-1.35-2.05-.68-4.02-1.38-5.88-2.09-.62-.24-1.23-.47-1.83-.72-1.2-.48-2.35-.97-3.46-1.46-6.35-2.86-11.15-5.94-14.12-9.29-.26-.29-.5-.59-.73-.88l-.33-.45a14.528 14.528 0 0 1-1.12-1.81c-.16-.31-.3-.62-.43-.93s-.24-.62-.34-.93-.18-.63-.25-.95-.12-.64-.15-.97a12.126 12.126 0 0 1-.07-2c0-.12.01-.23.02-.35a16.54 16.54 0 0 1 2.79-7.82c-15.92-5.39-15.79-25.99 1.98-34.77-14.39-6.61-11.09-32.74 37.32-37.09 26.37-2.37 41.56 2.42 60.36 5.73-.95-7.52 4.52-33.51 19.15-32.09 14.54 1.41 15.28 43.18 71.6 82.74q4.62 3.255 9.77 6.48z" fill="#ffd6c0"/><path d="M145.766 322.737a.993.993 0 0 1-.558-.171c-2.968-2-5.907-3.907-8.983-5.832l-.347-.215c-18.2-11.374-34.684-19.987-50.4-26.325-1.62-.646-3.244-1.284-4.858-1.892s-3.218-1.195-4.822-1.764-3.2-1.113-4.8-1.63c-1.4-.459-2.789-.908-4.192-1.334a252.067 252.067 0 0 0-12.6-3.508 236.725 236.725 0 0 1-8.905-2.4c-.943-.27-1.879-.542-2.8-.824-1.464-.44-2.883-.893-4.272-1.357-2.058-.682-4.05-1.39-5.92-2.1l-.413-.159c-.488-.188-.97-.374-1.445-.572-1.2-.48-2.36-.975-3.48-1.469-6.728-3.03-11.458-6.149-14.464-9.541-.27-.3-.523-.617-.765-.923l-.352-.477a15.61 15.61 0 0 1-1.2-1.94 13.263 13.263 0 0 1-.467-1.007 17.86 17.86 0 0 1-.369-1.009c-.105-.36-.2-.7-.276-1.043a11.34 11.34 0 0 1-.169-1.1 13.147 13.147 0 0 1-.073-2.135c0-.095.009-.224.021-.363a16.9 16.9 0 0 1 2.306-7.244C4.616 241.759.484 236.3.039 229.6c-.535-8.061 4.207-15.771 12.477-20.487a13.1 13.1 0 0 1-6.156-13.596c1.724-10.016 14.584-21.708 45.507-24.486 21.509-1.932 35.459.831 50.23 3.759 2.96.587 6.01 1.192 9.126 1.755-.229-6.7 2.84-20.651 9.54-27.547 3.166-3.259 6.8-4.714 10.8-4.327 6.141.6 9.84 7.416 15.44 17.741 8.859 16.334 22.248 41.02 56.638 65.176 3.029 2.135 6.3 4.305 9.726 6.45a1 1 0 0 1 .4 1.2c-4.237 11.182-15.339 29.14-28.972 46.865a296.658 296.658 0 0 1-24.4 28.208 114.653 114.653 0 0 1-13.151 11.612c-.31.228-.624.447-.928.647a1 1 0 0 1-.55.167zM65.673 172.389a151.7 151.7 0 0 0-13.627.634c-29.794 2.677-42.117 13.55-43.715 22.833a11.137 11.137 0 0 0 6.723 12.351 1 1 0 0 1 .025 1.806c-8.561 4.23-13.56 11.684-13.045 19.452.416 6.258 4.506 11.295 10.943 13.474a1 1 0 0 1 .52 1.488 15.573 15.573 0 0 0-2.633 7.346c-.01.124-.018.2-.018.283a11.433 11.433 0 0 0 .063 1.88c.03.328.086.617.14.906.059.269.144.567.228.857.083.256.194.543.305.83s.245.562.393.848a13.539 13.539 0 0 0 1.04 1.681l.326.445c.2.246.423.531.67.806 2.779 3.136 7.416 6.177 13.786 9.045 1.093.483 2.232.969 3.421 1.444.472.2.937.376 1.408.558l.411.158c1.839.7 3.8 1.4 5.834 2.073 1.372.457 2.773.905 4.223 1.341.91.28 1.834.55 2.768.817a235.5 235.5 0 0 0 8.836 2.38 255.24 255.24 0 0 1 12.7 3.535c1.415.432 2.821.884 4.228 1.346 1.605.523 3.224 1.075 4.842 1.648a256.26 256.26 0 0 1 9.759 3.683c15.826 6.384 32.415 15.049 50.72 26.491l.343.212c2.9 1.814 5.677 3.615 8.472 5.489l.3-.219a112.578 112.578 0 0 0 12.916-11.41 294.568 294.568 0 0 0 24.235-28.014c13.215-17.181 24.013-34.535 28.393-45.594-3.2-2.021-6.265-4.06-9.116-6.069-34.773-24.426-48.3-49.359-57.245-65.858-5.3-9.762-8.793-16.211-13.875-16.705-3.365-.323-6.451.929-9.173 3.731-6.768 6.967-9.6 21.6-8.889 27.239a1 1 0 0 1-1.165 1.11c-3.578-.63-7.064-1.321-10.435-1.989-11.246-2.228-22.008-4.362-36.035-4.362z" fill="#112c41"/><path d="M146.986 321.086c.88-.63 1.82-1.32 2.78-2.07-.96.76-1.89 1.45-2.78 2.07zm12.7-11.48a114.246 114.246 0 0 1-13.03 11.51c-.3.22-.6.43-.89.62-3-2.02-5.99-3.96-9.01-5.85-.11-.07-.23-.14-.34-.21-18.78-11.74-35.04-20.15-50.56-26.41-1.63-.65-3.26-1.29-4.88-1.9s-3.23-1.2-4.84-1.77-3.22-1.12-4.82-1.64c-1.4-.46-2.8-.91-4.21-1.34-4.2-1.3-8.4-2.47-12.65-3.53-3.09-.77-6.05-1.57-8.87-2.38-.94-.27-1.87-.54-2.78-.82-1.46-.44-2.87-.89-4.25-1.35-2.05-.68-4.02-1.38-5.88-2.09-.62-.24-1.23-.47-1.83-.72-1.2-.48-2.35-.97-3.46-1.46-6.35-2.86-11.15-5.94-14.12-9.29-.26-.29-.5-.59-.73-.88l-.33-.45a14.528 14.528 0 0 1-1.12-1.81c-.16-.31-.3-.62-.43-.93s-.24-.62-.34-.93-.18-.63-.25-.95-.12-.64-.16-.97a12.125 12.125 0 0 1-.06-2c0-.12.01-.23.02-.35 7.47 7.37 24.2 12.99 47.03 17.44 27.47 5.34 53.74 14.38 86.92 31.76q3.375 1.755 6.86 3.65 4.515 2.43 9.01 5.05z" fill="#f5b9ab"/><path d="M12.653 243.882c9.612-13.1 35.451-14.329 61.107-7.05" fill="#ffd6c0"/><path d="M12.652 244.882a1 1 0 0 1-.8-1.592c9.247-12.6 33.656-15.514 62.186-7.421a1 1 0 0 1-.546 1.924c-27.292-7.742-51.415-5.057-60.028 6.681a1 1 0 0 1-.812.408z" fill="#112c41"/><path d="M14.631 209.117c10.537-5.618 29.438-9.621 54.665-3.59" fill="#ffd6c0"/><path d="M14.632 210.117a1 1 0 0 1-.471-1.882c6.586-3.511 25.164-10.9 55.367-3.681a1 1 0 0 1-.465 1.945c-29.537-7.062-47.576.095-53.961 3.5a1.006 1.006 0 0 1-.47.118z" fill="#112c41"/><path d="M72.34 189.955c-4.479 12.461-1.627 43.588 5.036 59.124" fill="#ffd6c0"/><path d="M77.377 250.079a1 1 0 0 1-.92-.605c-6.89-16.067-9.538-47.395-5.058-59.857a1 1 0 0 1 1.883.676c-4.353 12.11-1.729 42.67 5.013 58.392A1 1 0 0 1 77.77 250a.978.978 0 0 1-.393.079z" fill="#112c41"/><path d="M112.318 177.76c.539 18.069 6 28.543 6 28.543" fill="#ffd6c0"/><path d="M118.317 207.3a1 1 0 0 1-.887-.538c-.227-.436-5.572-10.886-6.111-28.976a1 1 0 0 1 .97-1.029 1.012 1.012 0 0 1 1.029.971c.524 17.593 5.832 28.008 5.886 28.11a1 1 0 0 1-.426 1.349.99.99 0 0 1-.461.113z" fill="#112c41"/><path d="M145.766 322.737a.993.993 0 0 1-.558-.171c-2.968-2-5.907-3.907-8.983-5.832l-.347-.215c-18.2-11.374-34.684-19.987-50.4-26.325-1.62-.646-3.244-1.284-4.858-1.892s-3.218-1.195-4.822-1.764-3.2-1.113-4.8-1.63c-1.4-.459-2.789-.908-4.192-1.334a252.067 252.067 0 0 0-12.6-3.508 236.725 236.725 0 0 1-8.905-2.4c-.943-.27-1.879-.542-2.8-.824-1.464-.44-2.883-.893-4.272-1.357-2.058-.682-4.05-1.39-5.92-2.1l-.413-.159c-.488-.188-.97-.374-1.445-.572-1.2-.48-2.36-.975-3.48-1.469-6.728-3.03-11.458-6.149-14.464-9.541-.27-.3-.523-.617-.765-.923l-.352-.477a15.61 15.61 0 0 1-1.2-1.94 13.263 13.263 0 0 1-.467-1.007 17.86 17.86 0 0 1-.369-1.009c-.105-.36-.2-.7-.276-1.043a11.34 11.34 0 0 1-.169-1.1 13.147 13.147 0 0 1-.073-2.135c0-.095.009-.224.021-.363a16.9 16.9 0 0 1 2.306-7.244C4.616 241.759.484 236.3.039 229.6c-.535-8.061 4.207-15.771 12.477-20.487a13.1 13.1 0 0 1-6.156-13.596c1.724-10.016 14.584-21.708 45.507-24.486 21.509-1.932 35.459.831 50.23 3.759 2.96.587 6.01 1.192 9.126 1.755-.229-6.7 2.84-20.651 9.54-27.547 3.166-3.259 6.8-4.714 10.8-4.327 6.141.6 9.84 7.416 15.44 17.741 8.859 16.334 22.248 41.02 56.638 65.176 3.029 2.135 6.3 4.305 9.726 6.45a1 1 0 0 1 .4 1.2c-4.237 11.182-15.339 29.14-28.972 46.865a296.658 296.658 0 0 1-24.4 28.208 114.653 114.653 0 0 1-13.151 11.612c-.31.228-.624.447-.928.647a1 1 0 0 1-.55.167zM65.673 172.389a151.7 151.7 0 0 0-13.627.634c-29.794 2.677-42.117 13.55-43.715 22.833a11.137 11.137 0 0 0 6.723 12.351 1 1 0 0 1 .025 1.806c-8.561 4.23-13.56 11.684-13.045 19.452.416 6.258 4.506 11.295 10.943 13.474a1 1 0 0 1 .52 1.488 15.573 15.573 0 0 0-2.633 7.346c-.01.124-.018.2-.018.283a11.433 11.433 0 0 0 .063 1.88c.03.328.086.617.14.906.059.269.144.567.228.857.083.256.194.543.305.83s.245.562.393.848a13.539 13.539 0 0 0 1.04 1.681l.326.445c.2.246.423.531.67.806 2.779 3.136 7.416 6.177 13.786 9.045 1.093.483 2.232.969 3.421 1.444.472.2.937.376 1.408.558l.411.158c1.839.7 3.8 1.4 5.834 2.073 1.372.457 2.773.905 4.223 1.341.91.28 1.834.55 2.768.817a235.5 235.5 0 0 0 8.836 2.38 255.24 255.24 0 0 1 12.7 3.535c1.415.432 2.821.884 4.228 1.346 1.605.523 3.224 1.075 4.842 1.648a256.26 256.26 0 0 1 9.759 3.683c15.826 6.384 32.415 15.049 50.72 26.491l.343.212c2.9 1.814 5.677 3.615 8.472 5.489l.3-.219a112.578 112.578 0 0 0 12.916-11.41 294.568 294.568 0 0 0 24.235-28.014c13.215-17.181 24.013-34.535 28.393-45.594-3.2-2.021-6.265-4.06-9.116-6.069-34.773-24.426-48.3-49.359-57.245-65.858-5.3-9.762-8.793-16.211-13.875-16.705-3.365-.323-6.451.929-9.173 3.731-6.768 6.967-9.6 21.6-8.889 27.239a1 1 0 0 1-1.165 1.11c-3.578-.63-7.064-1.321-10.435-1.989-11.246-2.228-22.008-4.362-36.035-4.362z" fill="#112c41"/><path d="M1206.636 62.876c3.7 4.14 4.35 9.03 2.21 14.23-3.63 8.82-13.6 15.03-36.29 28.36-23.13 13.58-45.61 31.28-59.47 46.51-1.08 1.18-3.77 4.5-6.74 8.21-2.25 2.81-4.65 5.85-6.65 8.38a.784.784 0 0 1-.14-.05c-10.33-4.26-27.59-15.94-45.67-31.45-17.89-15.33-31.95-30.46-37.84-40.03 1.94-2.53 4.3-5.63 6.49-8.49 3.11-4.1 5.83-7.71 6.36-8.5 23.02-34.23 16.79-61.46 21.9-73.09a5.125 5.125 0 0 1 .25-.53 8.9 8.9 0 0 1 .74-1.28v-.01a8.514 8.514 0 0 1 3.29-2.98c.23-.12.46-.23.71-.34.18-.07.37-.15.56-.21.13-.05.25-.09.38-.13a7.624 7.624 0 0 1 1.41-.34c11.16-1.84 22.15 15.37 25.88 25.89a.031.031 0 0 0 .01.02c.16.49.32.96.46 1.41.02-.01.03-.02.05-.03 16.48-9.48 41.39-24.18 67.71-26.79 44.72-4.45 56.24 20.09 43.7 29.76 16.64 4.52 22.64 20.604 10.69 31.48z" fill="#ffd6c0"/><path d="M1099.7 169.567a.938.938 0 0 1-.21-.023 1.535 1.535 0 0 1-.29-.094c-10.814-4.46-28.417-16.574-45.961-31.625-17.3-14.829-31.882-30.257-38.041-40.264a1 1 0 0 1 .059-1.133c1.046-1.364 2.214-2.894 3.412-4.463l3.077-4.027c3.759-4.955 5.888-7.8 6.324-8.448 15.739-23.4 17.648-43.146 19.042-57.561.627-6.493 1.123-11.621 2.773-15.375a5.859 5.859 0 0 1 .281-.6 9.538 9.538 0 0 1 .746-1.3.815.815 0 0 1 .044-.075 9.444 9.444 0 0 1 3.672-3.319c.239-.125.489-.245.761-.364l.152-.061c.166-.066.338-.134.51-.187.091-.038.235-.087.391-.134a8.515 8.515 0 0 1 1.553-.372c5.287-.866 11.044 2.118 16.631 8.649a60.745 60.745 0 0 1 10.318 17.845.985.985 0 0 1 .037.1l.078.238.367-.212c16.29-9.382 40.914-23.562 66.722-26.121 13.215-1.316 24.829-.175 33.586 3.3 7.483 2.968 12.791 7.59 14.946 13.017a12.64 12.64 0 0 1-2.723 14c8.1 2.7 13.833 8.253 15.487 15.112 1.436 5.956-.542 12.06-5.435 16.882 3.343 4.2 3.955 9.206 1.762 14.535-3.79 9.207-13.993 15.5-36.708 28.84-22.627 13.285-45.325 31.035-59.237 46.322-1.178 1.286-4.387 5.274-6.7 8.162-2.065 2.578-4.256 5.35-6.148 7.744l-.5.631a1 1 0 0 1-.778.381zm-82.434-72.473c6.257 9.856 20.45 24.8 37.275 39.213 17.092 14.663 34.186 26.492 44.841 31.05l.032-.041c1.894-2.4 4.088-5.173 6.156-7.754 3.753-4.689 5.844-7.236 6.783-8.26 14.036-15.425 36.913-33.319 59.7-46.7 22.313-13.109 32.327-19.268 35.871-27.878 2.041-4.957 1.357-9.393-2.031-13.184a1 1 0 0 1 .073-1.405c4.916-4.477 6.883-10.016 5.537-15.6-1.6-6.622-7.51-11.923-15.816-14.178a1 1 0 0 1-.348-1.757 10.629 10.629 0 0 0 3.486-12.912c-3.47-8.736-17.722-17.919-46.477-15.062-25.382 2.522-49.782 16.574-65.928 25.874l-1.385.8-.108.061a1 1 0 0 1-1.4-.6 44.87 44.87 0 0 0-.295-.909l-.144-.438-.017-.045C1079.649 17.7 1068.866.392 1058.3 2.122a6.762 6.762 0 0 0-1.244.3 4.686 4.686 0 0 0-.345.117c-.189.062-.313.113-.434.161l-.126.049c-.191.084-.4.185-.611.295a7.491 7.491 0 0 0-2.869 2.57.836.836 0 0 1-.065.108 7.913 7.913 0 0 0-.657 1.137 4.665 4.665 0 0 0-.22.462c-1.537 3.5-2.019 8.487-2.63 14.8-1.334 13.8-3.351 34.662-19.372 58.483-.47.7-2.5 3.416-6.393 8.547l-3.079 4.028c-1.041 1.361-2.055 2.694-2.993 3.915z" fill="#112c41"/><path d="M1209.546 67.906a13.417 13.417 0 0 1-.7 9.2c-3.63 8.82-13.6 15.03-36.29 28.36-23.13 13.58-45.61 31.28-59.47 46.51-1.08 1.18-3.77 4.5-6.74 8.21-2.25 2.81-4.65 5.85-6.65 8.38a.784.784 0 0 1-.14-.05 88.729 88.729 0 0 1-12.21-6.48c2.16-2.4 4.65-5.18 7-7.77 3.38-3.71 6.43-7.03 7.65-8.21 15.61-15.13 40.49-32.31 65.79-45.12 24.83-12.57 35.76-18.46 40.15-27.51a15.725 15.725 0 0 0 1.61-5.52z" fill="#f5b9ab"/><path d="M1206.628 62.871c-12.3-10.617-37.49-7.165-60.972 3.431" fill="#ffd6c0"/><path d="M1145.657 67.3a1 1 0 0 1-.412-1.911c31.877-14.383 52.947-11.123 62.036-3.277a1 1 0 1 1-1.307 1.513c-10.835-9.351-34.349-7.945-59.907 3.586a.982.982 0 0 1-.41.089z" fill="#112c41"/><path d="M1195.947 31.4c-13.787-3.745-34.043-2.213-53.106 6.758" fill="#ffd6c0"/><path d="M1142.841 39.158a1 1 0 0 1-.426-1.906c17.809-8.38 38.422-10.994 53.794-6.817a1 1 0 0 1-.524 1.93c-14.935-4.054-35.02-1.49-52.419 6.7a1 1 0 0 1-.425.093z" fill="#112c41"/><path d="M1136.39 23.662c7.153 11.143 11.336 42.119 8.317 58.752" fill="#ffd6c0"/><path d="M1144.708 83.414a1.09 1.09 0 0 1-.179-.015 1 1 0 0 1-.806-1.163c3.055-16.832-1.223-47.205-8.175-58.035a1 1 0 0 1 1.684-1.08c7.154 11.146 11.581 42.271 8.459 59.472a1 1 0 0 1-.983.821z" fill="#112c41"/><path d="M1088.4 55.214a67.219 67.219 0 0 0-3.916-26.761" fill="#ffd6c0"/><path d="M1088.405 56.214a.92.92 0 0 1-.1-.006 1 1 0 0 1-.892-1.1 66.879 66.879 0 0 0-3.863-26.323 1 1 0 1 1 1.883-.673 67.559 67.559 0 0 1 3.969 27.2 1 1 0 0 1-.997.902z" fill="#112c41"/><path d="M1099.7 169.567a.938.938 0 0 1-.21-.023 1.535 1.535 0 0 1-.29-.094c-10.814-4.46-28.417-16.574-45.961-31.625-17.3-14.829-31.882-30.257-38.041-40.264a1 1 0 0 1 .059-1.133c1.046-1.364 2.214-2.894 3.412-4.463l3.077-4.027c3.759-4.955 5.888-7.8 6.324-8.448 15.739-23.4 17.648-43.146 19.042-57.561.627-6.493 1.123-11.621 2.773-15.375a5.859 5.859 0 0 1 .281-.6 9.538 9.538 0 0 1 .746-1.3.815.815 0 0 1 .044-.075 9.444 9.444 0 0 1 3.672-3.319c.239-.125.489-.245.761-.364l.152-.061c.166-.066.338-.134.51-.187.091-.038.235-.087.391-.134a8.515 8.515 0 0 1 1.553-.372c5.287-.866 11.044 2.118 16.631 8.649a60.745 60.745 0 0 1 10.318 17.845.985.985 0 0 1 .037.1l.078.238.367-.212c16.29-9.382 40.914-23.562 66.722-26.121 13.215-1.316 24.829-.175 33.586 3.3 7.483 2.968 12.791 7.59 14.946 13.017a12.64 12.64 0 0 1-2.723 14c8.1 2.7 13.833 8.253 15.487 15.112 1.436 5.956-.542 12.06-5.435 16.882 3.343 4.2 3.955 9.206 1.762 14.535-3.79 9.207-13.993 15.5-36.708 28.84-22.627 13.285-45.325 31.035-59.237 46.322-1.178 1.286-4.387 5.274-6.7 8.162-2.065 2.578-4.256 5.35-6.148 7.744l-.5.631a1 1 0 0 1-.778.381zm-82.434-72.473c6.257 9.856 20.45 24.8 37.275 39.213 17.092 14.663 34.186 26.492 44.841 31.05l.032-.041c1.894-2.4 4.088-5.173 6.156-7.754 3.753-4.689 5.844-7.236 6.783-8.26 14.036-15.425 36.913-33.319 59.7-46.7 22.313-13.109 32.327-19.268 35.871-27.878 2.041-4.957 1.357-9.393-2.031-13.184a1 1 0 0 1 .073-1.405c4.916-4.477 6.883-10.016 5.537-15.6-1.6-6.622-7.51-11.923-15.816-14.178a1 1 0 0 1-.348-1.757 10.629 10.629 0 0 0 3.486-12.912c-3.47-8.736-17.722-17.919-46.477-15.062-25.382 2.522-49.782 16.574-65.928 25.874l-1.385.8-.108.061a1 1 0 0 1-1.4-.6 44.87 44.87 0 0 0-.295-.909l-.144-.438-.017-.045C1079.649 17.7 1068.866.392 1058.3 2.122a6.762 6.762 0 0 0-1.244.3 4.686 4.686 0 0 0-.345.117c-.189.062-.313.113-.434.161l-.126.049c-.191.084-.4.185-.611.295a7.491 7.491 0 0 0-2.869 2.57.836.836 0 0 1-.065.108 7.913 7.913 0 0 0-.657 1.137 4.665 4.665 0 0 0-.22.462c-1.537 3.5-2.019 8.487-2.63 14.8-1.334 13.8-3.351 34.662-19.372 58.483-.47.7-2.5 3.416-6.393 8.547l-3.079 4.028c-1.041 1.361-2.055 2.694-2.993 3.915z" fill="#112c41"/></svg></g><g transform="translate(1280.0 295.0) rotate(0.0 94.5 103.5) scale(0.9980303422346375 0.9970858119987477)"><svg width="189.373" height="207.605" viewBox="0 0 189.373 207.605"><path d="M80.025 6.349C77.367.477 67.534-.628 56.836 3.369S38.964 14.512 41.283 20.825c.677 1.841 2.672 6.181 2.672 6.181L82.7 12.53s-1.782-4.207-2.675-6.181z" fill="#ffe993"/><path d="M43.955 28.006a1 1 0 0 1-.909-.582c-.082-.179-2.019-4.4-2.7-6.254-2.418-6.577 4.22-14.282 16.14-18.737 11.515-4.3 21.57-2.862 24.45 3.5.888 1.963 2.664 6.161 2.682 6.2a1 1 0 0 1-.571 1.326L44.305 27.943a1 1 0 0 1-.35.063zM68.806 1.985a33.872 33.872 0 0 0-11.62 2.321c-10.651 3.98-16.945 10.783-14.964 16.175.476 1.3 1.646 3.913 2.256 5.262l36.89-13.785a332.476 332.476 0 0 0-2.254-5.2c-1.421-3.136-5.261-4.773-10.308-4.773z" fill="#112c41"/><ellipse cx="63.326" cy="19.768" fill="#ffd169" rx="20.679" ry="9.325" transform="matrix(.93674552 -.3500112 .3500112 .93674552 -2.913 23.416)"/><path d="M53.5 32.085c-.556 0-1.1-.017-1.632-.053-4.679-.309-7.814-1.973-8.827-4.686-2.021-5.408 5.3-12.974 16.677-17.224S81.585 6.78 83.607 12.19 78.3 25.164 66.93 29.413a39.437 39.437 0 0 1-13.43 2.672zM73.242 9.392A37.891 37.891 0 0 0 60.4 11.943c-10 3.739-17.12 10.482-15.535 14.723.72 1.926 3.32 3.175 7.136 3.427a35.541 35.541 0 0 0 14.248-2.5c10.007-3.738 17.122-10.481 15.537-14.724-.859-2.299-4.132-3.477-8.544-3.477z" fill="#112c41"/><path d="M75.866 24.439C73.758 18.8 68.23 17 62.9 18.988s-8.44 7.018-6.332 12.661l3.066 7.723 19.3-7.21z" fill="#ffe993"/><path d="M59.637 40.371a1 1 0 0 1-.93-.631l-3.066-7.722c-2.2-5.89.644-11.625 6.911-13.967a11.766 11.766 0 0 1 8.4-.132 10.181 10.181 0 0 1 5.843 6.16l3.063 7.713a1 1 0 0 1-.579 1.306l-19.3 7.21a1 1 0 0 1-.342.063zm7.432-21.165a10.92 10.92 0 0 0-3.817.718c-5.164 1.93-7.527 6.607-5.745 11.375l2.7 6.793 17.422-6.51-2.689-6.774-.007-.02a8.244 8.244 0 0 0-4.7-5.007 8.649 8.649 0 0 0-3.164-.575z" fill="#112c41"/><path d="M136.175 194.542c-.49.26-.97.52-1.47.77q-2.685 1.41-5.49 2.64c-.92.42-1.86.82-2.8 1.21-47.77 19.58-101.23-.49-119.4-44.84-8.81-21.49-7.71-44.74 1.2-65.22a91.537 91.537 0 0 1 5.19-10.15 97.608 97.608 0 0 1 47.2-40.36 99.316 99.316 0 0 1 37.15-7.5 85.154 85.154 0 1 0 34.52 164.99.037.037 0 0 0 .03-.01q1.965-.72 3.87-1.53z" fill="#ffe993"/><path d="M88.7 207.631a94.94 94.94 0 0 1-33.416-6.031c-22.8-8.563-40.253-25.225-49.141-46.919-8.6-20.976-8.17-44.4 1.208-65.953A92.74 92.74 0 0 1 12.6 78.471 100.586 100.586 0 0 1 97.75 30.15a.942.942 0 0 1 .057 1.882 84.288 84.288 0 0 0-78.995 84.049 83.427 83.427 0 0 0 7.526 34.84A84.336 84.336 0 0 0 131.952 195.2l.042-.014a82.13 82.13 0 0 0 3.813-1.507.942.942 0 0 1 .809 1.7l-.307.164c-.392.208-.781.415-1.183.616a87.6 87.6 0 0 1-5.533 2.661 86.15 86.15 0 0 1-2.817 1.216 100.4 100.4 0 0 1-38.076 7.595zM72.868 35.422a100.6 100.6 0 0 0-11.9 4.042 97.272 97.272 0 0 0-46.752 39.967 90.972 90.972 0 0 0-5.137 10.047c-9.173 21.084-9.6 43.985-1.192 64.486 8.687 21.2 25.754 37.494 48.059 45.869a95.2 95.2 0 0 0 64.4.6A86.253 86.253 0 0 1 24.628 151.7a85.3 85.3 0 0 1-7.695-35.621 86.265 86.265 0 0 1 55.935-80.657z" fill="#112c41"/><path d="M129.215 197.952c-.92.42-1.86.82-2.8 1.21-47.77 19.58-101.23-.49-119.4-44.84-8.81-21.49-7.71-44.74 1.2-65.22a89.639 89.639 0 0 0 11.2 69c18.83 29.92 54.7 47.96 93.25 43.29a98.127 98.127 0 0 0 16.55-3.44z" fill="#ffd169"/><path d="M88.7 207.631a94.94 94.94 0 0 1-33.416-6.031c-22.8-8.563-40.253-25.225-49.141-46.919-8.6-20.976-8.17-44.4 1.208-65.953A92.74 92.74 0 0 1 12.6 78.471 100.586 100.586 0 0 1 97.75 30.15a.942.942 0 0 1 .057 1.882 84.288 84.288 0 0 0-78.995 84.049 83.427 83.427 0 0 0 7.526 34.84A84.336 84.336 0 0 0 131.952 195.2l.042-.014a82.13 82.13 0 0 0 3.813-1.507.942.942 0 0 1 .809 1.7l-.307.164c-.392.208-.781.415-1.183.616a87.6 87.6 0 0 1-5.533 2.661 86.15 86.15 0 0 1-2.817 1.216 100.4 100.4 0 0 1-38.076 7.595zM72.868 35.422a100.6 100.6 0 0 0-11.9 4.042 97.272 97.272 0 0 0-46.752 39.967 90.972 90.972 0 0 0-5.137 10.047c-9.173 21.084-9.6 43.985-1.192 64.486 8.687 21.2 25.754 37.494 48.059 45.869a95.2 95.2 0 0 0 64.4.6A86.253 86.253 0 0 1 24.628 151.7a85.3 85.3 0 0 1-7.695-35.621 86.265 86.265 0 0 1 55.935-80.657z" fill="#112c41"/><ellipse cx="102.685" cy="116.15" fill="#fff" rx="85.739" ry="85.928"/><path d="M102.685 203.026a86.876 86.876 0 1 1 86.687-86.876 86.881 86.881 0 0 1-86.687 86.876zm0-171.856a84.98 84.98 0 1 0 84.791 84.98 84.982 84.982 0 0 0-84.791-84.98z" fill="#112c41"/><path d="M102.072 119.964a3.931 3.931 0 0 1-.905-7.609l43.267-15.506a3.93 3.93 0 0 1 2.652 7.4l-43.267 15.506a3.908 3.908 0 0 1-1.747.209z" fill="#b2b0f7"/><path d="M102.5 120.774a4.585 4.585 0 0 1-.509-.029 4.717 4.717 0 0 1-1.086-9.131l43.266-15.505a4.717 4.717 0 1 1 3.183 8.88l-43.27 15.511a4.665 4.665 0 0 1-1.584.274zm-.34-1.591a3.135 3.135 0 0 0 1.395-.167l43.268-15.507a3.145 3.145 0 0 0 .281-5.8 3.113 3.113 0 0 0-2.4-.116L101.432 113.1a3.146 3.146 0 0 0 .726 6.088z" fill="#112c41"/><path d="M102.072 119.964a3.93 3.93 0 0 1-3.3-2.651L80.8 64.088a3.931 3.931 0 0 1 7.448-2.516l17.969 53.228a3.933 3.933 0 0 1-4.145 5.167z" fill="#b2b0f7"/><path d="M102.5 120.774a4.585 4.585 0 0 1-.509-.029 4.733 4.733 0 0 1-3.964-3.181L80.051 64.34a4.717 4.717 0 1 1 8.937-3.019l17.974 53.224a4.724 4.724 0 0 1-4.465 6.229zm-17.976-61.09a3.148 3.148 0 0 0-2.984 4.153l17.974 53.224a3.157 3.157 0 0 0 2.644 2.122 3.146 3.146 0 0 0 3.314-4.135L87.5 61.824a3.146 3.146 0 0 0-2.975-2.14z" fill="#112c41"/></svg></g><g transform="translate(702.0 329.0) rotate(0.0 133.5 115.0) scale(0.9998165130743797 0.9978654356767264)"><svg width="267.049" height="230.492" viewBox="0 0 267.049 230.492"><circle cx="237.478" cy="84.689" fill="#ffd6c0" r="28.57"/><path d="M239.064 113.215a28.569 28.569 0 0 0 26.984-28.6 28.572 28.572 0 0 1-55.55-7.7q-.039-.765-.039-1.522a28.59 28.59 0 0 0 28.6 37.824z" fill="#f5b9ab"/><path d="M237.491 114.259a29.664 29.664 0 0 1-20.626-8.37 1 1 0 1 1 1.394-1.433 27.679 27.679 0 0 0 20.747 7.761 27.57 27.57 0 1 0-29.093-28.088 1.016 1.016 0 0 1-1.019.98 1 1 0 0 1-.981-1.019A29.571 29.571 0 0 1 267 83.051a29.57 29.57 0 0 1-27.887 31.162q-.813.045-1.622.046z" fill="#112c41"/><path d="M224.133 93.791a1 1 0 0 1-.927-.622 18.121 18.121 0 0 1 9.616-23.718 17.634 17.634 0 0 1 15.378 1.024 1 1 0 1 1-.98 1.744 15.659 15.659 0 0 0-13.642-.917 16.121 16.121 0 0 0-8.519 21.111 1 1 0 0 1-.925 1.378z" fill="#112c41"/><circle cx="139.02" cy="126.977" fill="#ffd6c0" r="102.5"/><path d="M85.849 39.346c.3-.179.6-.341.893-.517l12.185 7.207C53.322 73.888 37.991 130.909 65.3 175.917c27.359 45.089 87.153 61.047 132.952 33.258A98.411 98.411 0 0 0 210.98 200 102.511 102.511 0 1 1 85.849 39.346z" fill="#f5b9ab"/><g fill="#112c41"><path d="M139.19 230.453a103.539 103.539 0 0 1-88.656-49.786A103.5 103.5 0 1 1 227.505 73.288a103.464 103.464 0 0 1-88.315 157.165zM52.244 179.63a101.5 101.5 0 1 0-11.815-76.782 101.619 101.619 0 0 0 11.815 76.782z"/><ellipse cx="119.578" cy="114.282" rx="6.828" ry="9.104" transform="matrix(.88298037 -.46940992 .46940992 .88298037 -39.653 69.506)"/><ellipse cx="98.237" cy="84.337" rx="14.13" ry="9.336" transform="matrix(.77004578 -.63798863 .63798863 .77004578 -31.216 82.068)"/><ellipse cx="184.169" cy="56.381" rx="8.6" ry="13.016" transform="matrix(.05862688 -.99827997 .99827997 .05862688 117.086 236.927)"/><path d="M183.505 49.762c.348 0 .7.01 1.051.031 5.961.35 10.82 3.663 10.61 7.234-.193 3.294-4.829 5.973-10.334 5.973-.348 0-.7-.011-1.051-.031-5.961-.35-10.819-3.663-10.61-7.235.194-3.293 4.83-5.973 10.334-5.973m0-2c-6.653 0-12.067 3.374-12.331 7.856-.278 4.741 5.314 8.927 12.49 9.348q.589.035 1.168.035c6.653 0 12.068-3.375 12.331-7.857.278-4.741-5.314-8.926-12.49-9.348q-.589-.034-1.168-.034z"/><ellipse cx="184.703" cy="89.853" rx="6.828" ry="9.104" transform="matrix(.95494228 -.29679159 .29679159 .95494228 -18.346 58.868)"/><path d="M141.387 123.839c5.779 11.079 16.366 17.191 25.211 13.944s12.962-14.758 10.2-26.944z"/><path d="M161.66 139.651c-7.878 0-16.176-5.8-21.16-15.349a1 1 0 0 1 .542-1.4l35.411-13a1 1 0 0 1 1.32.718c2.925 12.906-1.629 24.726-10.831 28.1a15.248 15.248 0 0 1-5.282.931zm-18.843-15.272c5.736 10.175 15.449 15.4 23.436 12.465s12.014-13.2 9.8-24.668z"/></g><path d="M172.664 132.8c-4.282-2.943-10.72-2.981-16.217.355a17.715 17.715 0 0 0-3.694 2.974c4.5 2.555 9.392 3.293 13.845 1.658a14.687 14.687 0 0 0 6.438-4.719q-.183-.142-.372-.268z" fill="#ffa6e0"/><path d="M161.67 139.646a19.1 19.1 0 0 1-9.411-2.652 1 1 0 0 1-.233-1.556 18.713 18.713 0 0 1 3.9-3.141c5.647-3.429 12.6-3.557 17.3-.325q.207.142.406.291a1 1 0 0 1 .181 1.424 15.609 15.609 0 0 1-6.875 5.033 15.212 15.212 0 0 1-5.268.926zm-7.235-3.765a15.02 15.02 0 0 0 11.818.963 13.436 13.436 0 0 0 5.294-3.577c-4.05-2.423-9.816-2.153-14.582.739a16.928 16.928 0 0 0-2.53 1.875z" fill="#112c41"/><circle cx="31.504" cy="164.725" fill="#ffd6c0" r="30.5"/><path d="M61.661 169.937a33.288 33.288 0 0 1-4.42 6.2c-11.072 12.7-30.711 13.559-43.4 2.494-8.341-7.256-11.164-17.571-9.412-27.709-6.351 12.195-4.408 27.109 6.423 36.553a30.493 30.493 0 0 0 43.033-2.945c3.806-4.362 6.864-9.263 7.776-14.593z" fill="#f5b9ab"/><path d="M31.562 196.238a31.7 31.7 0 0 1-7.546-.916 31.5 31.5 0 0 1-8.852-57.522 31.614 31.614 0 0 1 41.959 8.6 1 1 0 1 1-1.628 1.162 29.609 29.609 0 0 0-39.295-8.057 29.5 29.5 0 1 0 30.605 50.441A31.465 31.465 0 0 0 60.68 169.74a1 1 0 1 1 1.961.395 33.52 33.52 0 0 1-14.8 21.52 31.312 31.312 0 0 1-16.279 4.583z" fill="#112c41"/><path d="M14.894 164.787a1 1 0 0 1-.98-1.2 18.756 18.756 0 0 1 9.908-13.061 19.278 19.278 0 0 1 25.753 8.834 1 1 0 1 1-1.785.9 17.275 17.275 0 0 0-23.065-7.951 16.765 16.765 0 0 0-8.852 11.68 1 1 0 0 1-.979.798z" fill="#112c41"/><path d="M30.5 124.339c15.441-22.283 39.375-43.273 69.326-58.78A213.343 213.343 0 0 1 138.318 50.1a64.028 64.028 0 0 0-14.207-23.569c.149.073.307.141.448.219a75.854 75.854 0 0 1 25.665 20.3c2.48-.558 4.944-1.047 7.4-1.494 18.033-3.245 35.258-3.521 50.535-.918a1.861 1.861 0 0 0 1.884-2.851 89.532 89.532 0 0 0-21.923-22.749C157.148-3.4 112.834-5.685 76.132 16.585a108.767 108.767 0 0 0-17.117 12.831C32.039 54.182 20.3 90.489 27.853 123.815a1.477 1.477 0 0 0 2.647.524z" fill="#fcaa51"/><path d="M30.5 124.339a155.947 155.947 0 0 1 13.334-16.618c-6.51-29.679 4.019-61.928 28.015-83.951A98.052 98.052 0 0 1 99.505 5.948a109.1 109.1 0 0 0-40.49 23.468C32.039 54.182 20.3 90.489 27.853 123.815a1.477 1.477 0 0 0 2.647.524z" fill="#ff9522"/><path d="M29.245 125.8a2.424 2.424 0 0 1-.479-.048 2.672 2.672 0 0 1-2.007-2.258C19.545 89.51 31.647 53.18 58.341 28.681A109.929 109.929 0 0 1 75.613 15.73 106.707 106.707 0 0 1 134.305.048a97.23 97.23 0 0 1 54.4 18.18 89.87 89.87 0 0 1 22.069 22.854 2.9 2.9 0 0 1 .193 3.25 3.1 3.1 0 0 1-3.152 1.264c-17.291-2.923-37.131-2.082-57.374 2.428a1.007 1.007 0 0 1-.987-.337 76.831 76.831 0 0 0-21.112-17.866 66.794 66.794 0 0 1 10.918 19.951 1 1 0 0 1-.666 1.287 212.549 212.549 0 0 0-38.307 15.386C71.879 81.151 47.5 101.756 31.63 124.464a2.97 2.97 0 0 1-2.385 1.336zm29.773-96.38.676.736c-26.176 24.021-38.046 59.627-30.979 92.92.042.2.169.657.449.714a.933.933 0 0 0 .826-.471c16.048-22.97 40.687-43.8 69.378-58.649a214.69 214.69 0 0 1 37.651-15.233 62.881 62.881 0 0 0-13.629-22.21 1 1 0 0 1 1.137-1.6A76.628 76.628 0 0 1 150.6 45.94c20.288-4.451 40.174-5.253 57.548-2.316a1.133 1.133 0 0 0 1.14-.378 1 1 0 0 0-.176-1.053 87.9 87.9 0 0 0-21.58-22.346 95.239 95.239 0 0 0-53.288-17.8 104.741 104.741 0 0 0-57.593 15.392 107.985 107.985 0 0 0-16.957 12.715zM198.6 115.551a22.539 22.539 0 0 1-4.937-.57 31.953 31.953 0 0 1-16.637-10.364 31.95 31.95 0 0 1-8.089-17.853c-.565-6.307 1.333-11.715 5.343-15.229s9.62-4.686 15.8-3.3a33.805 33.805 0 0 1 24.72 28.221c.565 6.307-1.333 11.716-5.343 15.229a16.152 16.152 0 0 1-10.857 3.866zm-13.449-45.922a14.242 14.242 0 0 0-9.584 3.379c-3.527 3.089-5.19 7.914-4.682 13.582a30 30 0 0 0 7.611 16.738 30 30 0 0 0 15.594 9.744c5.552 1.248 10.553.232 14.08-2.859 3.527-3.09 5.19-7.914 4.682-13.582a31.856 31.856 0 0 0-23.205-26.483 20.582 20.582 0 0 0-4.496-.519zm-68.7 78.582c-11.468 0-21.021-11.958-21.384-26.9a31.874 31.874 0 0 1 5.626-19.422c3.866-5.34 9.131-8.357 14.826-8.5 5.7-.16 11.1 2.617 15.221 7.764a31.876 31.876 0 0 1 6.564 19.125c.367 15.11-8.807 27.635-20.452 27.918a3.85 3.85 0 0 1-.401.015zm-.524-52.765h-.356c-5.039.123-9.732 2.839-13.214 7.647a29.818 29.818 0 0 0-5.236 18.168c.336 13.823 8.973 24.894 19.33 24.894h.353c10.513-.257 18.79-11.838 18.45-25.816a29.817 29.817 0 0 0-6.114-17.893c-3.625-4.524-8.305-7-13.215-7z" fill="#112c41"/><path d="M134.849 112.312a1 1 0 0 1-.822-1.567c7.29-10.57 23.564-19.278 39.367-14.593a1 1 0 0 1-.569 1.918c-14.357-4.256-30.165 3.681-37.152 13.81a1 1 0 0 1-.824.432zm-89.044 25.803a1 1 0 0 1-.728-1.686c10.54-11.19 32.406-18.714 50.861-17.5a1 1 0 0 1 .932 1.063 1.016 1.016 0 0 1-1.063.933c-20.417-1.354-40.625 7.694-49.274 16.878a1 1 0 0 1-.728.312zm162.324-55.631a1 1 0 0 1-.807-1.589c3.746-5.139 12.54-9.978 18.121-9.978h.036a1 1 0 0 1 0 2 .2.2 0 0 1-.035 0c-4.965 0-13.127 4.526-16.5 9.156a1 1 0 0 1-.815.411z" fill="#112c41"/></svg></g><g transform="translate(1245.0 608.0) rotate(0.0 37.0 47.5) scale(1.089036055923473 1.0607177151023872)"><svg width="67.95" height="89.562" viewBox="0 0 67.95 89.562"><path d="M1 88.562c.08-.1.15-.19.22-.29.29-.36.58-.73.86-1.1s.56-.73.84-1.09c27.72-36.66 20.56-66.7 26.24-79.15a5.125 5.125 0 0 1 .25-.53 12.224 12.224 0 0 1 .74-1.28c.01 0 .01 0 0-.01a9.244 9.244 0 0 1 3.29-2.98c.23-.12.46-.23.71-.34.18-.07.37-.15.56-.21a1.667 1.667 0 0 1 .2-.08 1.209 1.209 0 0 1 .18-.05 7.624 7.624 0 0 1 1.41-.34C45.41-.268 56.33 11.3 62.38 27a.031.031 0 0 0 .01.02q.255.675.51 1.38a64.14 64.14 0 0 1 3.76 28" fill="#ffd6c0"/><path d="M1 89.562a1 1 0 0 1-.781-1.623c.066-.084.125-.158.183-.241.324-.406.608-.768.881-1.13l.849-1.1c19.228-25.429 21.558-48.027 23.1-62.981.7-6.752 1.246-12.085 3.018-15.969a5.638 5.638 0 0 1 .276-.583 13.092 13.092 0 0 1 .739-1.287.809.809 0 0 1 .061-.1 10.177 10.177 0 0 1 3.642-3.294c.258-.135.507-.255.778-.375l.176-.069a7.99 7.99 0 0 1 .484-.179 1.331 1.331 0 0 1 .222-.087 2.26 2.26 0 0 1 .2-.055 8.529 8.529 0 0 1 1.527-.367C45.49-1.3 56.829 9.842 63.3 26.608a.632.632 0 0 1 .025.06q.258.681.515 1.393a64.781 64.781 0 0 1 3.815 28.444 1 1 0 1 1-1.99-.207 62.752 62.752 0 0 0-3.705-27.556q-.247-.683-.494-1.337a.512.512 0 0 1-.018-.044C55.413 11.7 44.758.84 36.653 2.1a6.536 6.536 0 0 0-1.234.3 1.09 1.09 0 0 1-.168.043l-.157.065c-.2.069-.32.116-.437.162l-.147.058c-.185.083-.4.185-.607.295a8.165 8.165 0 0 0-2.85 2.547.945.945 0 0 1-.123.187 11.679 11.679 0 0 0-.629 1.1 4.075 4.075 0 0 0-.208.435c-1.659 3.641-2.194 8.829-2.872 15.4-1.565 15.175-3.93 38.107-23.5 63.993l-.85 1.1c-.276.367-.573.745-.869 1.113a4.774 4.774 0 0 1-.217.286 1 1 0 0 1-.785.378z" fill="#112c41"/></svg></g><g transform="translate(178.0 481.0) rotate(0.0 130.5 105.5) scale(0.986014461545436 0.9881237824067136)"><svg width="264.702" height="213.536" viewBox="0 0 264.702 213.536"><path d="M246.866 148.256s-23.743 28.468-40.91 64.28c0 0-28.41-15.31-77.39-22.55-7.99-1.18-16.52-2.14-25.57-2.79a368.28 368.28 0 0 0-69 1.645 1.106 1.106 0 0 1-1.236-1.088l-.133-26.937 211.15-39.01a140.091 140.091 0 0 0 3.089 26.45z" fill="#7bdaac"/><path d="M205.956 213.536a1 1 0 0 1-.474-.119c-.283-.152-28.847-15.315-77.062-22.441a343.31 343.31 0 0 0-25.5-2.782 368.314 368.314 0 0 0-68.813 1.64 2.1 2.1 0 0 1-2.351-2.076l-.134-26.936a1 1 0 0 1 .818-.989l211.15-39.01a1 1 0 0 1 1.181.959 140.347 140.347 0 0 0 3.063 26.241 1 1 0 0 1-.2.874c-.237.283-23.864 28.791-40.776 64.072a1 1 0 0 1-.593.519 1.022 1.022 0 0 1-.309.048zM77.5 185.293q12.883 0 25.57.906a344.186 344.186 0 0 1 25.645 2.8 303.516 303.516 0 0 1 57.253 14.037 180.19 180.19 0 0 1 19.535 8.144c15.912-32.865 37.425-59.68 40.279-63.18a144.979 144.979 0 0 1-2.973-25L33.63 161.648l.13 26.1.235 1.093-.116-.993a376.754 376.754 0 0 1 43.621-2.555z" fill="#112c41"/><path d="M243.776 121.806c-26.015 27.728-41.88 58.9-41.88 58.9a441.807 441.807 0 0 0-74.02-16.66c-8.89-1.23-17.39-2.15-25.39-2.82-41.66-3.5-69.86-.41-69.86-.41 11.8-22.67 32.07-44.41 35.84-48.35a2.2 2.2 0 0 1 1.48-.7c22.04-1.55 50.23-1.24 77.85.11.56.03 1.13.05 1.68.08 7.91.4 15.76.89 23.4 1.43l1.64.12c29.64 2.18 55.84 5.33 69.26 8.3z" fill="#ddfeee"/><path d="M201.9 181.706a.976.976 0 0 1-.3-.048 441.082 441.082 0 0 0-73.852-16.622 477.02 477.02 0 0 0-25.337-2.814c-41.071-3.45-69.387-.441-69.667-.411a1 1 0 0 1-1-1.456c11.9-22.854 32.079-44.478 36-48.58a3.2 3.2 0 0 1 2.132-1.006c25.666-1.8 56.567-.937 77.97.108l1.686.081c7.421.375 15.3.857 23.415 1.431l1.644.12c29.385 2.162 55.979 5.35 69.4 8.32a1 1 0 0 1 .513 1.662c-25.621 27.307-41.56 58.359-41.718 58.668a1 1 0 0 1-.886.547zM63.384 158.568c10.882 0 24.187.4 39.185 1.662 8.442.708 17 1.658 25.444 2.826A443.352 443.352 0 0 1 201.4 179.5c2.573-4.861 17.54-32.28 40.443-57.082-13.81-2.845-39.311-5.846-67.4-7.913l-1.567-.114a1176.956 1176.956 0 0 0-23.45-1.434l-1.684-.08c-21.343-1.043-52.16-1.908-77.725-.112a1.209 1.209 0 0 0-.818.384c-3.809 3.98-22.961 24.5-34.822 46.5 4.003-.349 14.286-1.081 29.007-1.081z" fill="#112c41"/><ellipse cx="191.25" cy="162.099" fill="#7bdaac" rx="5.503" ry="8.845" transform="matrix(.21637146 -.97631112 .97631112 .21637146 -8.39 313.746)"/><path d="M193.058 168.881a14.982 14.982 0 0 1-3.231-.363 13.061 13.061 0 0 1-6.274-3.207 5.761 5.761 0 0 1-1.984-5.357c.8-3.6 5.673-5.477 11.1-4.273a13.065 13.065 0 0 1 6.275 3.207 5.761 5.761 0 0 1 1.983 5.356c-.627 2.864-3.847 4.637-7.869 4.637zm-3.579-11.412c-2.985 0-5.417 1.135-5.819 2.948a3.739 3.739 0 0 0 1.391 3.363 10.915 10.915 0 0 0 5.24 2.646c4.112.909 8.028-.3 8.549-2.644a3.742 3.742 0 0 0-1.391-3.363 10.911 10.911 0 0 0-5.24-2.646 12.707 12.707 0 0 0-2.73-.304z" fill="#112c41"/><ellipse cx="79.815" cy="121.806" fill="#7bdaac" rx="8.845" ry="5.503" transform="matrix(.99411699 -.10831167 .10831167 .99411699 -12.723 9.361)"/><path d="M78.871 128.433a12.378 12.378 0 0 1-5.316-1.115 5.765 5.765 0 0 1-3.6-4.438c-.4-3.665 3.618-7.008 9.146-7.61s10.171 1.8 10.57 5.462-3.618 7.008-9.145 7.61a15.247 15.247 0 0 1-1.655.091zm1.866-11.109a12.869 12.869 0 0 0-1.4.077c-4.189.456-7.508 2.859-7.248 5.247a3.737 3.737 0 0 0 2.4 2.738 10.886 10.886 0 0 0 5.812.825c4.189-.456 7.508-2.859 7.248-5.247-.237-2.117-3.219-3.64-6.812-3.64z" fill="#112c41"/><path d="M128.566 189.986c-7.99-1.18-16.52-2.14-25.57-2.79l-.51-25.97c8 .67 16.5 1.59 25.39 2.82z" fill="#fff"/><path d="M128.566 190.987a1.014 1.014 0 0 1-.146-.011 343.251 343.251 0 0 0-25.5-2.782 1 1 0 0 1-.928-.978l-.51-25.971a1 1 0 0 1 1.083-1.015c8.442.708 17 1.658 25.444 2.826a1 1 0 0 1 .862.964l.69 25.94a1 1 0 0 1-1 1.027zm-24.588-4.721c7.941.591 15.856 1.45 23.556 2.559l-.635-23.9a472.409 472.409 0 0 0-23.392-2.6z" fill="#112c41"/><path d="M135.388 151.51c13.027.769 28.576-4.521 30.385-13.878s-11.2-14.616-24.228-15.329c-14.726-.806-28.765 5.293-29.772 13.82-.92 7.79 9.442 14.55 23.615 15.387z" fill="#7bdaac"/><path d="M137.913 152.583q-1.3 0-2.584-.075c-9.66-.57-17.874-3.832-21.972-8.726a10.147 10.147 0 0 1-2.577-7.776c1.042-8.827 15.163-15.555 30.819-14.7 8.3.453 18.757 2.981 23.232 8.717a9.332 9.332 0 0 1 1.924 7.8c-1.773 9.169-15.844 14.76-28.842 14.76zm-2.465-2.071c12.538.742 27.676-4.445 29.343-13.069a7.409 7.409 0 0 0-1.537-6.191c-3.4-4.355-11.738-7.4-21.764-7.951-14.389-.783-27.817 5.258-28.724 12.94a8.093 8.093 0 0 0 2.124 6.256c3.695 4.413 11.573 7.485 20.558 8.015z" fill="#112c41"/><path d="m172.876 113.386-45 50.66c-8.89-1.23-17.39-2.15-25.39-2.82l45.31-49.35c.56.03 1.13.05 1.68.08 7.91.4 15.76.89 23.4 1.43z" fill="#fff"/><path d="M127.876 165.046a.893.893 0 0 1-.137-.01 477.02 477.02 0 0 0-25.337-2.814 1 1 0 0 1-.653-1.673l45.31-49.35a1.015 1.015 0 0 1 .791-.322l1.681.081c7.421.375 15.3.857 23.415 1.431a1 1 0 0 1 .677 1.661l-45 50.66a1 1 0 0 1-.747.336zM104.6 160.4a479.302 479.302 0 0 1 22.885 2.579l43.295-48.742c-7.387-.509-14.56-.942-21.353-1.286l-1.209-.057z" fill="#112c41"/><path d="M201.75 194.722a236.61 236.61 0 0 0-32.469-9.756" fill="#7bdaac"/><path d="M201.75 195.722a1.026 1.026 0 0 1-.359-.066 234.967 234.967 0 0 0-32.317-9.711 1 1 0 1 1 .416-1.957 237.4 237.4 0 0 1 32.618 9.8 1 1 0 0 1-.358 1.934z" fill="#112c41"/><path d="M205.922 213.227a1 1 0 0 1-.951-.69c-.051-.158-5.145-15.977-4.072-31.9a1.011 1.011 0 0 1 1.065-.931 1 1 0 0 1 .93 1.066c-1.045 15.526 3.929 30.991 3.979 31.145a1 1 0 0 1-.641 1.261.985.985 0 0 1-.31.049z" fill="#112c41"/><path d="M1 91.525c.254.467 29.612 36.135 43.454 62.594 0 0 27.773-16.437 76.423-25.636 7.937-1.5 16.421-2.8 25.438-3.813a368.258 368.258 0 0 1 69.255-1.105.886.886 0 0 0 .955-.911l-.955-27.165L3.025 64.979A140.327 140.327 0 0 1 1 91.525z" fill="#7bdaac"/><path d="M44.454 155.119a.985.985 0 0 1-.274-.038 1 1 0 0 1-.612-.5c-8-15.3-22.6-36.392-42.216-60.994A16.9 16.9 0 0 1 .122 92a1 1 0 0 1-.1-.671A138.591 138.591 0 0 0 2.026 65a1 1 0 0 1 1.142-1.006L215.712 94.5a1 1 0 0 1 .858.955l.955 27.165a1.888 1.888 0 0 1-2.031 1.944 368.618 368.618 0 0 0-69.068 1.1 344.958 344.958 0 0 0-25.363 3.8c-47.891 9.055-75.823 25.351-76.1 25.514a.992.992 0 0 1-.509.141zM2.065 91.272c.186.237.474.6.851 1.07 19.306 24.216 33.784 45.069 41.942 60.4a180.1 180.1 0 0 1 19.19-8.918 303.415 303.415 0 0 1 56.643-16.324 346.167 346.167 0 0 1 25.512-3.825 370.511 370.511 0 0 1 69.318-1.118l-.921-26.2L4.04 66.135a143.023 143.023 0 0 1-1.975 25.137z" fill="#112c41"/><path d="M3.025 64.979c30.523 32.3 44.209 57.173 44.209 57.173a441.816 441.816 0 0 1 73.292-19.615 473.613 473.613 0 0 1 25.257-3.836c41.486-5.169 69.787-3.212 69.787-3.212-12.7-22.178-33.825-43.088-37.75-46.874a2.2 2.2 0 0 0-1.507-.64c-22.085-.665-50.24.776-77.783 3.233-.558.052-1.127.095-1.676.147-7.887.717-15.711 1.521-23.323 2.367l-1.634.186c-29.529 3.367-55.582 7.565-68.872 11.071z" fill="#ddfeee"/><path d="M47.235 123.152a1 1 0 0 1-.877-.518c-.137-.248-13.99-25.15-44.059-56.969a1 1 0 0 1 .472-1.653c13.3-3.508 39.74-7.76 69.012-11.1l1.634-.185c8.134-.905 15.988-1.7 23.347-2.37l1.672-.147c21.347-1.9 52.184-4.008 77.907-3.237a3.216 3.216 0 0 1 2.182.932c4.074 3.928 25.1 24.713 37.913 47.084a1 1 0 0 1-.021 1.029 1.027 1.027 0 0 1-.916.467c-.282-.02-28.694-1.888-69.594 3.206a475.152 475.152 0 0 0-25.2 3.828 440.759 440.759 0 0 0-73.126 19.57 1 1 0 0 1-.346.063zM4.915 65.528c26.587 28.366 40.258 51.06 42.77 55.4a443.363 443.363 0 0 1 72.664-19.371c8.4-1.508 16.918-2.8 25.31-3.844 35.138-4.378 61.131-3.637 68.115-3.316-12.741-21.524-32.695-41.244-36.649-45.057a1.222 1.222 0 0 0-.843-.36c-25.62-.772-56.375 1.33-77.663 3.228l-1.671.147c-7.349.668-15.19 1.464-23.307 2.366l-1.63.185C43.984 58.1 18.586 62.126 4.915 65.528z" fill="#112c41"/><ellipse cx="57.068" cy="103.256" fill="#7bdaac" rx="8.845" ry="5.503" transform="matrix(.95641185 -.29202118 .29202118 .95641185 -27.665 21.166)"/><path d="M54.788 110.192a11.1 11.1 0 0 1-2.841-.353 5.27 5.27 0 0 1-2.8-9.183 14 14 0 0 1 13.046-3.984 5.271 5.271 0 0 1 2.8 9.184 13.057 13.057 0 0 1-6 3.687 14.451 14.451 0 0 1-4.205.649zm4.557-11.732a12.32 12.32 0 0 0-3.571.557 10.908 10.908 0 0 0-5.017 3.049 3.174 3.174 0 0 0 1.741 5.7 10.929 10.929 0 0 0 5.864-.275 10.9 10.9 0 0 0 5.017-3.048 3.175 3.175 0 0 0-1.742-5.7 8.968 8.968 0 0 0-2.292-.283z" fill="#112c41"/><ellipse cx="166.854" cy="58.403" fill="#7bdaac" rx="5.503" ry="8.845" transform="matrix(.06834613 -.99766167 .99766167 .06834613 97.183 220.875)"/><path d="M167.481 65q-.531 0-1.076-.037c-5.548-.381-9.7-3.559-9.444-7.237a5.76 5.76 0 0 1 3.417-4.578 14 14 0 0 1 13.609.932 5.765 5.765 0 0 1 2.76 5c-.236 3.438-4.219 5.92-9.266 5.92zm-1.241-11.05a10.467 10.467 0 0 0-4.857 1.089 3.738 3.738 0 0 0-2.285 2.832c-.164 2.4 3.249 4.664 7.453 4.953s7.894-1.494 8.059-3.89a3.735 3.735 0 0 0-1.877-3.116 10.9 10.9 0 0 0-5.576-1.835q-.457-.033-.917-.033z" fill="#112c41"/><path d="M120.877 128.483c7.937-1.5 16.421-2.8 25.438-3.813l-.532-25.97c-7.967.99-16.423 2.25-25.257 3.836z" fill="#fff"/><path d="M120.877 129.484a1 1 0 0 1-1-.987l-.351-25.947a1 1 0 0 1 .823-1c8.4-1.508 16.918-2.8 25.31-3.844a1 1 0 0 1 1.124.972l.532 25.97a1 1 0 0 1-.888 1.014 344.905 344.905 0 0 0-25.364 3.8.977.977 0 0 1-.186.022zm.66-26.113.324 23.911a344.999 344.999 0 0 1 23.435-3.5l-.49-23.949a475.408 475.408 0 0 0-23.269 3.538z" fill="#112c41"/><path d="M112.517 90.312C99.532 91.6 83.783 86.94 81.6 77.664s10.6-15.054 23.594-16.289c14.682-1.4 28.954 4.135 30.3 12.615 1.234 7.747-8.848 14.917-22.977 16.322z" fill="#7bdaac"/><path d="M108.185 91.523c-12.462 0-25.521-4.968-27.559-13.63a9.335 9.335 0 0 1 1.61-7.872c4.241-5.909 14.591-8.856 22.863-9.642 15.613-1.487 29.99 4.677 31.385 13.454a10.145 10.145 0 0 1-2.263 7.873c-3.9 5.055-11.976 8.644-21.605 9.6a44.765 44.765 0 0 1-4.431.217zm1.5-29.362c-1.451 0-2.92.068-4.4.208-10 .952-18.207 4.33-21.428 8.818a7.407 7.407 0 0 0-1.287 6.247c2.011 8.551 17.344 13.126 29.844 11.883 8.956-.891 16.7-4.275 20.219-8.832a8.1 8.1 0 0 0 1.872-6.337c-1.085-6.848-12.186-11.987-24.818-11.987z" fill="#112c41"/><path d="m73.531 53.722 46.995 48.815a473.613 473.613 0 0 1 25.257-3.836L98.53 51.208c-.558.052-1.127.095-1.676.147-7.887.717-15.711 1.521-23.323 2.367z" fill="#fff"/><path d="M120.526 103.536a1 1 0 0 1-.72-.306l-47-48.815a1 1 0 0 1 .61-1.687c8.131-.9 15.985-1.7 23.344-2.369l1.672-.147a.965.965 0 0 1 .8.29L146.492 98a1 1 0 0 1-.585 1.7 475.152 475.152 0 0 0-25.2 3.828.962.962 0 0 1-.181.008zM75.661 54.493l45.215 46.965c7.558-1.347 15.2-2.52 22.763-3.494l-45.488-45.72-1.2.106a1171.47 1171.47 0 0 0-21.29 2.143z" fill="#112c41"/><path d="M47.942 136.151A256.537 256.537 0 0 1 79.993 125.1" fill="#7bdaac"/><path d="M47.943 137.151a1 1 0 0 1-.393-1.92 258.872 258.872 0 0 1 32.2-11.1 1 1 0 0 1 .494 1.938 256.568 256.568 0 0 0-31.9 11 1.007 1.007 0 0 1-.401.082z" fill="#112c41"/><path d="M44.476 154.809a1 1 0 0 1-.963-1.272c.044-.156 4.394-15.808 2.726-31.281a1 1 0 0 1 1.988-.215c1.71 15.869-2.744 31.88-2.789 32.04a1 1 0 0 1-.962.728z" fill="#112c41"/><path d="M16.017 97.392c6.128 8.17 16.556 21.64 22.341 31.532" fill="#fff"/><path d="M38.359 129.923a1 1 0 0 1-.865-.5c-4.982-8.519-13.437-19.719-19.61-27.9-.952-1.261-1.848-2.448-2.666-3.541a1 1 0 1 1 1.6-1.2c.819 1.09 1.713 2.276 2.663 3.534 6.2 8.217 14.7 19.472 19.741 28.092a1 1 0 0 1-.862 1.5z" fill="#112c41"/><path d="M259.664 97.033a1.272 1.272 0 0 1-1.422 1.011c-18.779-1.911-84.14-8.3-151.45 7.145C84.1 83.49 54 58.308 45.253 50.751a2.6 2.6 0 0 1-.827-2.5A196.832 196.832 0 0 0 48.2 18.2l58.874 52.949L263.7 59a307.626 307.626 0 0 1-4.036 38.033z" fill="#7bdaac"/><path d="M106.792 106.189a1 1 0 0 1-.691-.278c-18.83-18.006-42.593-38.266-55.36-49.15-2.566-2.188-4.66-3.974-6.142-5.253a3.614 3.614 0 0 1-1.153-3.457A193.932 193.932 0 0 0 47.2 18.162a1 1 0 0 1 1.668-.71l58.556 52.662 156.2-12.107a1 1 0 0 1 1.077 1.034 311.2 311.2 0 0 1-4.054 38.173 2.267 2.267 0 0 1-2.506 1.825c-68.749-7-120.129.013-151.125 7.124a1.007 1.007 0 0 1-.224.026zM49.11 20.359a200.918 200.918 0 0 1-3.7 28.09 1.609 1.609 0 0 0 .5 1.545c1.479 1.278 3.57 3.06 6.132 5.245 12.694 10.822 36.247 30.9 55.055 48.855 31.2-7.1 82.62-14.029 151.25-7.045a.277.277 0 0 0 .336-.2 305.27 305.27 0 0 0 3.973-36.763l-155.5 12.053a1.008 1.008 0 0 1-.746-.254z" fill="#112c41"/><path d="M106.841 105.892a1.069 1.069 0 0 1-.113-.006 1 1 0 0 1-.883-1.1 196.615 196.615 0 0 0 .233-33.55 1 1 0 1 1 1.993-.164 198.886 198.886 0 0 1-.238 33.928 1 1 0 0 1-.992.892z" fill="#112c41"/><path d="M263.7 59.008c-16.321 4.825-40.049 8.542-65.074 10.858-32.923 3.05-68.09 3.688-91.553 1.283l-.1-.082-8.257-7.43L48.2 18.2c6.18 1.048 13.18 2.05 20.807 2.953 41.5 4.963 101.617 7.08 150.61-3.123 6.419 10.034 21.113 29.605 44.083 40.978z" fill="#ddfeee"/><path d="M141.159 73.607c-12.893 0-24.622-.483-34.187-1.463a1 1 0 0 1-.548-.237l-.1-.082-58.8-52.883a1 1 0 0 1-.232-1.179 1.016 1.016 0 0 1 1.067-.551c6.332 1.074 13.315 2.066 20.758 2.946 20.173 2.412 90.626 9.315 150.288-3.109a1 1 0 0 1 1.046.441c6.64 10.38 21.145 29.461 43.687 40.622a1 1 0 0 1-.16 1.855c-15.414 4.557-38.592 8.426-65.266 10.9-19.612 1.812-39.695 2.74-57.553 2.74zm-33.659-3.42c22.7 2.289 57.54 1.787 91.04-1.317 25.18-2.33 47.206-5.908 62.457-10.128-21.278-11.28-35.166-29.284-41.844-39.595-59.816 12.3-130.087 5.409-150.26 3a445.109 445.109 0 0 1-17.479-2.405z" fill="#112c41"/><path d="M263.7 59c-15.34 4.548-37.241 8.1-60.6 10.435l-.182.015c-1.426.138-2.861.274-4.3.411a651.634 651.634 0 0 1-21.145 1.607h-.01q-3.522.216-7.033.393c-23.708 1.173-46.547 1.01-63.363-.72l-.094-.078c-.59-.454-34.529-34.185-45.3-69.537a.41.41 0 0 1 .6-.469c20.254 12.146 44.735 20.576 66.656 21.827.489.029.978.058 1.468.077.11.009.22.007.32.015q3.072.155 6.094.2a250.558 250.558 0 0 0 26.388-1.07c.031-.008.07 0 .1-.012.4-.028.8-.067 1.2-.105.121-.01.232-.012.343-.023 24.832-2.31 37.9-6.076 49.963-9.938a1.541 1.541 0 0 1 1.727.57A202.354 202.354 0 0 0 263.7 59z" fill="#ddfeee"/><path d="M141.183 73.619c-12.969 0-24.648-.5-34.211-1.48a1.01 1.01 0 0 1-.531-.222l-.094-.077c-.295-.226-34.757-34.353-45.622-70.02A1.411 1.411 0 0 1 62.8.2c20.977 12.58 45.105 20.484 66.2 21.688.485.028.968.057 1.451.076l.358.018c1.906.094 3.945.16 6.031.191a250.117 250.117 0 0 0 26.279-1.065l.048-.006a.694.694 0 0 1 .077-.008c.363-.026.719-.06 1.081-.094l.1-.01.327-.021c24.527-2.282 37.534-5.982 49.763-9.9a2.534 2.534 0 0 1 2.843.938 201.684 201.684 0 0 0 46.924 46.183 1 1 0 0 1-.3 1.773c-14.635 4.339-35.654 7.96-60.784 10.471l-.1.009-4.378.417a654.63 654.63 0 0 1-21.18 1.61h-.054q-3.507.216-7 .392c-10.219.506-20.086.757-29.303.757zM107.5 70.182c16.235 1.643 38.549 1.887 62.889.684 2.332-.116 4.677-.249 7.021-.393h.058a661.025 661.025 0 0 0 21.065-1.6l4.491-.426c23.525-2.351 44.153-5.825 58.425-9.828a203.037 203.037 0 0 1-45.712-45.439.535.535 0 0 0-.608-.2c-12.34 3.948-25.461 7.682-50.177 9.981-.065.007-.142.011-.22.016l-.127.008c-.46.043-.826.078-1.2.1l-.059.006a.393.393 0 0 1-.048.006 251.285 251.285 0 0 1-26.493 1.074c-2.108-.032-4.17-.1-6.127-.2l-.35-.018a64.355 64.355 0 0 1-1.448-.076c-20.96-1.2-44.853-8.9-65.784-21.181C74.033 36.575 105.29 68.019 107.5 70.182z" fill="#112c41"/><path d="M202.921 69.454 200.9 94.9c-1.355 0-2.7.016-4.046.039-7.081.108-14.235.382-21.288.773l1.934-24.319c10.857-.45 14.556-.928 25.421-1.939z" fill="#fff"/><path d="M175.56 96.716a1 1 0 0 1-1-1.079l1.94-24.323a1 1 0 0 1 .955-.92c8.926-.369 12.942-.753 20.232-1.449 1.544-.148 3.232-.309 5.141-.487a1 1 0 0 1 1.09 1.075l-2.026 25.45a1 1 0 0 1-1 .921c-1.349 0-2.69.015-4.031.039-6.729.1-13.878.362-21.25.771zm2.864-24.361-1.776 22.3c7-.375 13.78-.615 20.186-.713q1.565-.027 3.137-.036l1.858-23.346-3.952.375c-7.077.677-11.085 1.059-19.453 1.42z" fill="#112c41"/><path d="M170.263 61.012c-13.046-.279-28.121-6.8-29.173-16.271-1.05-9.457 12.336-13.671 25.38-13.336 14.744.379 28.248 7.585 28.567 16.165.292 7.839-10.579 13.746-24.774 13.442z" fill="#7bdaac"/><path d="M171.316 62.024c-.357 0-.714 0-1.075-.012-13.669-.292-29.041-7.257-30.141-17.161a9.332 9.332 0 0 1 2.543-7.62c4.921-5.358 15.555-7.028 23.857-6.825 15.682.4 29.21 8.246 29.54 17.127a10.146 10.146 0 0 1-3.192 7.544c-4.316 4.38-12.309 6.946-21.532 6.947zm-6.351-29.638c-9.394 0-17.3 2.33-20.852 6.2a7.411 7.411 0 0 0-2.03 6.047c.97 8.732 15.641 15.114 28.2 15.382 9 .214 17.1-2.236 21.134-6.338a8.1 8.1 0 0 0 2.619-6.066c-.287-7.73-13.18-14.833-27.592-15.2q-.744-.025-1.479-.025z" fill="#112c41"/><path d="M202.921 69.454c-1.426.138-2.861.274-4.3.411a651.634 651.634 0 0 1-21.145 1.607h-.01l-40.645-48.3a250.558 250.558 0 0 0 26.388-1.07c.031-.008.07 0 .1-.012z" fill="#fff"/><path d="M177.48 72.472h-.1a1.027 1.027 0 0 1-.676-.352l-40.645-48.3a1 1 0 0 1-.138-1.074 1.033 1.033 0 0 1 .92-.57 249.49 249.49 0 0 0 26.276-1.065l.049-.006a1.011 1.011 0 0 1 .914.347l39.607 47.363a1 1 0 0 1-.671 1.636l-4.3.411a654.63 654.63 0 0 1-21.18 1.61zM139 24.2l38.918 46.245a650.722 650.722 0 0 0 20.619-1.576l2.4-.228-38.052-45.5c-8.721.759-16.558 1.116-23.885 1.059z" fill="#112c41"/><ellipse cx="87.718" cy="24.834" fill="#7bdaac" rx="4.794" ry="8.517" transform="matrix(.43337598 -.90121321 .90121321 .43337598 27.323 93.124)"/><path d="M91.117 31.516a13.96 13.96 0 0 1-5.91-1.461 13.527 13.527 0 0 1-5.2-4.2c-1.273-1.822-1.579-3.649-.861-5.143s2.336-2.394 4.555-2.538a13.459 13.459 0 0 1 6.533 1.442c4.809 2.312 7.474 6.417 6.067 9.345-.719 1.493-2.336 2.4-4.555 2.538-.209.011-.418.017-.629.017zm-6.789-11.365c-.171 0-.338.006-.5.016-1.444.093-2.494.607-2.88 1.409s-.132 1.943.7 3.129a11.483 11.483 0 0 0 4.432 3.547 11.513 11.513 0 0 0 5.533 1.248c1.444-.093 2.494-.606 2.88-1.409.778-1.617-1.138-4.757-5.13-6.676a11.918 11.918 0 0 0-5.035-1.264z" fill="#112c41"/><path d="M71.2 51.42c-9.038-8.7-23.575-21.362-23.575-21.362" fill="#7bdaac"/><path d="M71.2 52.42a1 1 0 0 1-.693-.279c-8.917-8.584-23.393-21.2-23.538-21.329a1 1 0 1 1 1.31-1.512c.146.127 14.66 12.778 23.611 21.4a1 1 0 0 1-.69 1.72z" fill="#112c41"/><path d="M112.825 88.11a323.724 323.724 0 0 1 43.126-4.468" fill="#7bdaac"/><path d="M112.824 89.11a1 1 0 0 1-.176-1.985 327.139 327.139 0 0 1 43.285-4.483 1 1 0 0 1 .037 2A324.414 324.414 0 0 0 113 89.094a.982.982 0 0 1-.176.016z" fill="#112c41"/><path d="M262.724 73.577c-7.424.832-17.488 1.668-25.644 2.245" fill="#7bdaac"/><path d="M237.079 76.823a1 1 0 0 1-.069-2c9.547-.676 19.119-1.514 25.6-2.242a1 1 0 0 1 .222 1.989c-6.509.729-16.111 1.57-25.684 2.248q-.033.005-.069.005z" fill="#112c41"/><ellipse cx="236.042" cy="53.956" fill="#7bdaac" rx="8.845" ry="4.794" transform="matrix(.99411699 -.10831167 .10831167 .99411699 -4.455 25.882)"/><path d="M234.8 59.819c-4.624 0-8.234-1.942-8.545-4.8-.352-3.23 3.672-6.228 9.159-6.826a14.356 14.356 0 0 1 6.857.787c2.114.864 3.378 2.252 3.558 3.906.351 3.229-3.672 6.227-9.16 6.826a17.378 17.378 0 0 1-1.869.107zm2.49-9.729a15.146 15.146 0 0 0-1.659.092c-4.6.5-7.582 2.838-7.388 4.621s3.615 3.429 8.209 2.922 7.583-2.838 7.389-4.621c-.1-.878-.944-1.706-2.327-2.273a11.314 11.314 0 0 0-4.224-.738z" fill="#112c41"/></svg></g><g transform="translate(636.0 436.0) rotate(150.8089721252614 -81.5 -45.0) scale(-1.0203953875624445 -0.8240173592990359)"><svg width="159.742" height="109.221" viewBox="0 0 159.742 109.221"><path d="M127.482 1.488C100.948 31.118 44.243 44.969 2.9 32.935a1.5 1.5 0 0 0-1.875 1.729l13.047 67.516a1.509 1.509 0 0 0 1.089 1.172c51.147 13.642 116.089-2.168 143.275-37.652a1.506 1.506 0 0 0 .167-1.545L129.946 1.877a1.5 1.5 0 0 0-2.464-.389z" fill="#ddfeee"/><path d="M53.93 109.252a151.914 151.914 0 0 1-39.03-4.934 2.523 2.523 0 0 1-1.813-1.948L.046 34.854a2.488 2.488 0 0 1 .774-2.328 2.459 2.459 0 0 1 2.363-.55c19.921 5.8 43.829 5.76 67.319-.111C94.124 25.963 114.1 14.938 126.736.821a2.472 2.472 0 0 1 2.214-.794 2.5 2.5 0 0 1 1.905 1.432l28.656 62.278a2.505 2.505 0 0 1-.282 2.573C138.782 93 96.318 109.251 53.93 109.252zM2.486 33.875a.479.479 0 0 0-.319.125.5.5 0 0 0-.157.471l13.044 67.519a.514.514 0 0 0 .366.4c52.032 13.876 115.834-2.852 142.222-37.294a.506.506 0 0 0 .052-.52L129.038 2.3a.5.5 0 0 0-.387-.289.45.45 0 0 0-.424.149c-12.907 14.407-33.234 25.648-57.24 31.646-23.83 5.954-48.108 5.988-68.363.09a.515.515 0 0 0-.138-.021z" fill="#112c41"/><ellipse cx="80.127" cy="65.747" fill="#7bdaac" rx="22.723" ry="16.596" transform="matrix(.98212664 -.18822131 .18822131 .98212664 -10.943 16.256)"/><path d="M77.448 83.605a26.539 26.539 0 0 1-11.32-2.405c-5.1-2.41-8.4-6.313-9.3-10.988s.73-9.522 4.579-13.648a28.356 28.356 0 0 1 15.409-8.1 28.343 28.343 0 0 1 17.31 1.828c5.1 2.41 8.405 6.313 9.3 10.987S102.7 70.8 98.848 74.93a28.343 28.343 0 0 1-15.409 8.1 31.844 31.844 0 0 1-5.991.575zm5.364-33.716a29.844 29.844 0 0 0-5.62.542 26.337 26.337 0 0 0-14.323 7.5c-3.4 3.647-4.849 7.876-4.077 11.907s3.682 7.427 8.19 9.558a26.367 26.367 0 0 0 16.08 1.671 26.354 26.354 0 0 0 14.323-7.5c3.4-3.648 4.849-7.876 4.077-11.909s-3.682-7.425-8.191-9.556a24.538 24.538 0 0 0-10.459-2.213z" fill="#112c41"/><ellipse cx="139.488" cy="65.84" fill="#7bdaac" rx="8.237" ry="6.016" transform="matrix(.80403331 -.59458425 .59458425 .80403331 -11.812 95.841)"/><path d="M137.288 73.724a5.946 5.946 0 0 1-5.967-8.14 11.5 11.5 0 0 1 10.315-7.628 5.949 5.949 0 0 1 6.019 8.14 11.5 11.5 0 0 1-10.315 7.628zm4.4-13.768h-.04a9.516 9.516 0 0 0-8.418 6.226 4.344 4.344 0 0 0 .439 3.961 4.449 4.449 0 0 0 3.66 1.581 9.516 9.516 0 0 0 8.418-6.226 3.964 3.964 0 0 0-4.059-5.542z" fill="#112c41"/><ellipse cx="21.233" cy="49.497" fill="#7bdaac" rx="6.016" ry="8.237" transform="matrix(.21700188 -.97617118 .97617118 .21700188 -31.692 59.483)"/><path d="M22.334 56.638a12.132 12.132 0 0 1-2.623-.292 10.923 10.923 0 0 1-5.838-3.3 5.949 5.949 0 0 1 2.2-9.881 10.917 10.917 0 0 1 6.685-.516 10.915 10.915 0 0 1 5.838 3.3 5.949 5.949 0 0 1-2.2 9.881 10.158 10.158 0 0 1-4.062.808zm-2.207-12.283a8.14 8.14 0 0 0-3.256.645 3.967 3.967 0 0 0-1.5 6.729 8.91 8.91 0 0 0 4.77 2.668A8.879 8.879 0 0 0 25.6 54a3.966 3.966 0 0 0 1.5-6.728 8.9 8.9 0 0 0-4.778-2.672 10.089 10.089 0 0 0-2.195-.245z" fill="#112c41"/></svg></g><g transform="translate(542.0 959.0) rotate(-13.182069330217349 -99.5 51.0) scale(-1.1207668523347434 0.9126863401277762)"><svg width="177.557" height="111.758" viewBox="0 0 177.557 111.758"><path d="M176.039 63.985a1.557 1.557 0 0 0 .183-2.124c-26.27-33.189-58.579-38.073-79.789-40.385-22.26-2.426-33.867-8.006-44.79-19.959a1.55 1.55 0 0 0-2.265-.049c-6.924 7.167-42.5 44.659-47.955 50.408a1.541 1.541 0 0 0-.272 1.724c2.017 4.288 11.615 21.388 39 28.306 31.1 7.855 49.117-2.336 81.9 28.421a1.551 1.551 0 0 0 2.1.033c6.836-6.175 44.949-40.179 51.888-46.375z" fill="#ddfeee"/><path d="M123.123 111.763a2.564 2.564 0 0 1-1.758-.7c-22.743-21.339-38.25-22.745-56.2-24.374-7.813-.709-15.892-1.442-25.254-3.806C12.434 75.939 2.6 59.043.246 54.03A2.535 2.535 0 0 1 .7 51.188C7.505 44.012 41.814 7.859 48.659.774A2.52 2.52 0 0 1 50.516 0a2.583 2.583 0 0 1 1.865.842C63.491 13 75.047 18.139 96.542 20.482c18.437 2.011 52.756 5.752 80.464 40.758a2.557 2.557 0 0 1-.3 3.491l-.359.32c-28.89 25.78-47.188 42.136-51.525 46.055a2.521 2.521 0 0 1-1.699.657zM50.48 2a.52.52 0 0 0-.383.162C43.258 9.242 8.955 45.39 2.148 52.565a.539.539 0 0 0-.092.613C4.319 57.991 13.775 74.215 40.4 80.94c9.209 2.326 17.209 3.052 24.944 3.754 18.324 1.662 34.149 3.1 57.393 24.907a.55.55 0 0 0 .748.021c4.338-3.922 22.641-20.281 51.533-46.063l.359-.32a.555.555 0 0 0 .064-.758c-27.191-34.35-60.969-38.032-79.116-40.011C74.556 20.1 62.246 14.6 50.9 2.192A.566.566 0 0 0 50.487 2z" fill="#112c41"/><ellipse cx="90.356" cy="54.439" fill="#7bdaac" rx="16.596" ry="22.723" transform="matrix(.2369738 -.97151604 .97151604 .2369738 16.056 129.321)"/><path d="M93.578 72.436a31.262 31.262 0 0 1-7.391-.9A28.354 28.354 0 0 1 71.2 62.677c-3.638-4.313-5.02-9.235-3.892-13.86 2.3-9.427 14.507-14.572 27.217-11.473a28.364 28.364 0 0 1 14.987 8.856c3.638 4.313 5.02 9.235 3.892 13.86-1.846 7.567-10.077 12.376-19.826 12.376zm-6.494-34c-8.821 0-16.209 4.2-17.832 10.856-.973 3.988.262 8.284 3.478 12.1a26.332 26.332 0 0 0 13.93 8.2c11.64 2.837 22.763-1.648 24.8-10 .973-3.989-.262-8.285-3.478-12.1a26.332 26.332 0 0 0-13.931-8.2 29.484 29.484 0 0 0-6.967-.856z" fill="#112c41"/><ellipse cx="153.907" cy="59.371" fill="#7bdaac" rx="6.016" ry="8.237" transform="matrix(.71018538 -.70401472 .70401472 .71018538 2.807 125.56)"/><path d="M156.114 67.58a10.435 10.435 0 0 1-7.19-3.269c-3.586-3.618-4.268-8.777-1.52-11.5a6.275 6.275 0 0 1 5.582-1.558 11.5 11.5 0 0 1 9.032 9.111 6.282 6.282 0 0 1-1.608 5.567 5.975 5.975 0 0 1-4.296 1.649zm-4.409-14.432a4.007 4.007 0 0 0-2.893 1.083c-1.964 1.947-1.277 5.837 1.533 8.672s6.693 3.554 8.657 1.608a4.343 4.343 0 0 0 1.038-3.848 8.915 8.915 0 0 0-2.571-4.823 8.914 8.914 0 0 0-4.8-2.613 6.109 6.109 0 0 0-.964-.079z" fill="#112c41"/><ellipse cx="22.368" cy="58.165" fill="#7bdaac" rx="6.016" ry="8.237" transform="matrix(.71018538 -.70401472 .70401472 .71018538 -34.467 32.605)"/><path d="M24.575 66.374a10.433 10.433 0 0 1-7.19-3.269c-3.585-3.617-4.267-8.776-1.521-11.5a6.274 6.274 0 0 1 5.582-1.558 10.912 10.912 0 0 1 5.9 3.179 10.927 10.927 0 0 1 3.127 5.932 6.278 6.278 0 0 1-1.607 5.567 5.975 5.975 0 0 1-4.291 1.649zm-4.409-14.432a4.005 4.005 0 0 0-2.893 1.083C15.309 54.972 16 58.863 18.806 61.7s6.693 3.553 8.657 1.608a4.343 4.343 0 0 0 1.037-3.851 8.912 8.912 0 0 0-2.571-4.823 8.914 8.914 0 0 0-4.8-2.613 6.119 6.119 0 0 0-.963-.079z" fill="#112c41"/></svg></g><g transform="translate(1128.0 1185.0) rotate(53.98266581129724 81.5 45.0) scale(1.0203953875624445 0.8240173592990359)"><svg width="159.742" height="109.221" viewBox="0 0 159.742 109.221"><path d="M127.482 1.488C100.948 31.118 44.243 44.969 2.9 32.935a1.5 1.5 0 0 0-1.875 1.729l13.047 67.516a1.509 1.509 0 0 0 1.089 1.172c51.147 13.642 116.089-2.168 143.275-37.652a1.506 1.506 0 0 0 .167-1.545L129.946 1.877a1.5 1.5 0 0 0-2.464-.389z" fill="#ddfeee"/><path d="M53.93 109.252a151.914 151.914 0 0 1-39.03-4.934 2.523 2.523 0 0 1-1.813-1.948L.046 34.854a2.488 2.488 0 0 1 .774-2.328 2.459 2.459 0 0 1 2.363-.55c19.921 5.8 43.829 5.76 67.319-.111C94.124 25.963 114.1 14.938 126.736.821a2.472 2.472 0 0 1 2.214-.794 2.5 2.5 0 0 1 1.905 1.432l28.656 62.278a2.505 2.505 0 0 1-.282 2.573C138.782 93 96.318 109.251 53.93 109.252zM2.486 33.875a.479.479 0 0 0-.319.125.5.5 0 0 0-.157.471l13.044 67.519a.514.514 0 0 0 .366.4c52.032 13.876 115.834-2.852 142.222-37.294a.506.506 0 0 0 .052-.52L129.038 2.3a.5.5 0 0 0-.387-.289.45.45 0 0 0-.424.149c-12.907 14.407-33.234 25.648-57.24 31.646-23.83 5.954-48.108 5.988-68.363.09a.515.515 0 0 0-.138-.021z" fill="#112c41"/><ellipse cx="80.127" cy="65.747" fill="#7bdaac" rx="22.723" ry="16.596" transform="matrix(.98212664 -.18822131 .18822131 .98212664 -10.943 16.256)"/><path d="M77.448 83.605a26.539 26.539 0 0 1-11.32-2.405c-5.1-2.41-8.4-6.313-9.3-10.988s.73-9.522 4.579-13.648a28.356 28.356 0 0 1 15.409-8.1 28.343 28.343 0 0 1 17.31 1.828c5.1 2.41 8.405 6.313 9.3 10.987S102.7 70.8 98.848 74.93a28.343 28.343 0 0 1-15.409 8.1 31.844 31.844 0 0 1-5.991.575zm5.364-33.716a29.844 29.844 0 0 0-5.62.542 26.337 26.337 0 0 0-14.323 7.5c-3.4 3.647-4.849 7.876-4.077 11.907s3.682 7.427 8.19 9.558a26.367 26.367 0 0 0 16.08 1.671 26.354 26.354 0 0 0 14.323-7.5c3.4-3.648 4.849-7.876 4.077-11.909s-3.682-7.425-8.191-9.556a24.538 24.538 0 0 0-10.459-2.213z" fill="#112c41"/><ellipse cx="139.488" cy="65.84" fill="#7bdaac" rx="8.237" ry="6.016" transform="matrix(.80403331 -.59458425 .59458425 .80403331 -11.812 95.841)"/><path d="M137.288 73.724a5.946 5.946 0 0 1-5.967-8.14 11.5 11.5 0 0 1 10.315-7.628 5.949 5.949 0 0 1 6.019 8.14 11.5 11.5 0 0 1-10.315 7.628zm4.4-13.768h-.04a9.516 9.516 0 0 0-8.418 6.226 4.344 4.344 0 0 0 .439 3.961 4.449 4.449 0 0 0 3.66 1.581 9.516 9.516 0 0 0 8.418-6.226 3.964 3.964 0 0 0-4.059-5.542z" fill="#112c41"/><ellipse cx="21.233" cy="49.497" fill="#7bdaac" rx="6.016" ry="8.237" transform="matrix(.21700188 -.97617118 .97617118 .21700188 -31.692 59.483)"/><path d="M22.334 56.638a12.132 12.132 0 0 1-2.623-.292 10.923 10.923 0 0 1-5.838-3.3 5.949 5.949 0 0 1 2.2-9.881 10.917 10.917 0 0 1 6.685-.516 10.915 10.915 0 0 1 5.838 3.3 5.949 5.949 0 0 1-2.2 9.881 10.158 10.158 0 0 1-4.062.808zm-2.207-12.283a8.14 8.14 0 0 0-3.256.645 3.967 3.967 0 0 0-1.5 6.729 8.91 8.91 0 0 0 4.77 2.668A8.879 8.879 0 0 0 25.6 54a3.966 3.966 0 0 0 1.5-6.728 8.9 8.9 0 0 0-4.778-2.672 10.089 10.089 0 0 0-2.195-.245z" fill="#112c41"/></svg></g></svg>