<?xml version="1.0" encoding="UTF-8"?><svg xmlns="http://www.w3.org/2000/svg" version="1.1" viewBox="0 0 1500 1500" width="1500" height="1500" x="0px" y="0px" xmlns:xlink="http://www.w3.org/1999/xlink">
<defs/><!--ITEM: Illustration component 1--><g transform="translate(322.0 574.0) rotate(0.0 341.0 181.5)  scale(2.201492398798734 2.2043574134179416)"><svg width="309.78985" height="164.67384" viewBox="0.0 0.0 309.78985 164.67384"><defs>
    
    <linearGradient id="linear-gradient-i1" x1="106.33809" y1="-19.92429" x2="228.42505" y2="203.90179" gradientUnits="userSpaceOnUse">
      <stop offset="0" stop-color="#8abdff" fill="#000000"/>
      <stop offset="1" stop-color="#5a80f9" fill="#000000"/>
    </linearGradient>
  </defs>
  <g>
    <path d="M2.83472,96.49688C82.26655,60.083,160.36726,29.26677,236.34026,7.39786a3.55728,3.55728,0,0,1,3.29111.72633c20.97551,17.95552,38.44314,28.66782,66.76095,38.27739a3.53276,3.53276,0,0,1,.70069,6.36262c-66.7702,40.38024-134.456,77.4344-203.39237,109.945a10.00972,10.00972,0,0,1-8.21114.16307C60.56441,147.874,29.1768,127.95005,1.90616,102.29264A3.53638,3.53638,0,0,1,2.83472,96.49688Z" style="         fill: #fff;       "/>
    <path d="M99.402,164.67382a10.91951,10.91951,0,0,1-4.30713-.88281c-35.74707-15.35156-67.331-35.79688-93.87353-60.76953a1,1,0,1,1,1.37011-1.457C28.964,126.377,60.35215,146.69433,95.88388,161.95312a8.99212,8.99212,0,0,0,7.39014-.14844C169.23838,130.69531,235.73838,94.748,306.57529,51.90917a2.53329,2.53329,0,0,0-.50439-4.56054c-27.10205-9.19727-44.65821-19.2627-67.08985-38.46485a2.54918,2.54918,0,0,0-2.36377-.52539,1,1,0,0,1-.55371-1.92187,4.54227,4.54227,0,0,1,4.21778.92773c22.21582,19.01758,39.5996,28.98438,66.43212,38.08984a4.53347,4.53347,0,0,1,.897,8.166C236.714,96.49609,170.1539,132.4746,104.12754,163.61327A11.08313,11.08313,0,0,1,99.402,164.67382Z" style="         fill: #053ff6;       "/>
    <path d="M2.05162,89.23525C81.48345,52.8214,159.58416,22.00513,235.55716.13623a3.55728,3.55728,0,0,1,3.29111.72633c20.97551,17.95552,38.44314,28.66782,66.761,38.27739a3.53276,3.53276,0,0,1,.70068,6.36262c-66.7702,40.38024-134.456,77.4344-203.39237,109.945a10.00972,10.00972,0,0,1-8.21114.16307C59.78131,140.61235,28.39371,120.68842,1.12306,95.031A3.53637,3.53637,0,0,1,2.05162,89.23525Z" style="         fill: url(#linear-gradient-i1);       "/>
  </g>
</svg></g><!--ITEM: Illustration component 2--><g transform="translate(752.0 163.0) rotate(90.0 260.0 180.0) translate(0.0 0.0) scale(1.5228679117088042 1.521619679614523)"><svg width="340.8043442307693" height="227.3892777777778" viewBox="0.0 0.0 340.8043442307693 227.3892777777778"><linearGradient id="SVGID_1_-i2" gradientUnits="userSpaceOnUse" x1="183.0961" y1="32.266" x2="254.9629" y2="234.7219" gradientTransform="matrix(1 -0.0032 0.0032 1 -1.0976 -1.0969)">
	<stop offset="0" style="stop-color:#EBCE52"/>
	<stop offset="0.4512" style="stop-color:#FFC515"/>
	<stop offset="0.6214" style="stop-color:#FFB311"/>
	<stop offset="0.8049" style="stop-color:#FFA80F"/>
	<stop offset="0.9995" style="stop-color:#FFA40E"/>
</linearGradient>
<path style="fill:url(#SVGID_1_-i2);" d="M341.461,128.123c0.149,46.5-38.622,85.575-93.634,95.911  c-1.629,0.306-2.103,12.295-3.761,12.55c-2.073,0.319-5.337-11.109-7.452-10.872c-5.684,0.638-11.514,0.978-17.468,0.997  c-69.725,0.223-126.389-43.559-126.562-97.789C92.411,74.688,148.782,26.925,218.507,26.702  C288.232,26.479,341.287,73.892,341.461,128.123z"/>
<linearGradient id="SVGID_2_-i2" gradientUnits="userSpaceOnUse" x1="276.9799" y1="33.0862" x2="72.3083" y2="151.2534" gradientTransform="matrix(1 -0.0032 0.0032 1 -1.0976 -1.0969)">
	<stop offset="0" style="stop-color:#3E7FE8"/>
	<stop offset="1" style="stop-color:#053FF6"/>
</linearGradient>
<path style="fill:url(#SVGID_2_-i2);" d="M253.538,85.416c9.593-3.557,15.87-10.24,20.758-19.227s7.56-18.836,5.333-28.822  c0,0-29.012-16.197-76.103-16.396c-26.169-0.11-52.604,7.459-73.869,22.711s-36.927,38.879-40.265,64.835  c-2.662,20.699,2.443,41.849,11.442,60.678c2.476,5.18,5.286,10.349,6.071,16.036s-0.961,12.165-5.836,15.198  c0,0,13.468,1.273,22.705-9.255c5.788-6.597,6.334-16.306,7.231-25.037c0.897-8.731,1.393-17.678,4.71-25.804  c6.247-15.302,21.761-25.255,37.834-29.108s32.876-2.544,49.35-1.211c0,0-44.932-22.044-26.424-38.897  c18.95-17.256,55.252,14.304,55.252,14.304"/>
<linearGradient id="SVGID_3_-i2" gradientUnits="userSpaceOnUse" x1="125.8899" y1="49.2373" x2="98.8995" y2="64.8203" gradientTransform="matrix(1 -0.0032 0.0032 1 -1.0976 -1.0969)">
	<stop offset="0" style="stop-color:#3E7FE8"/>
	<stop offset="1" style="stop-color:#053FF6"/>
</linearGradient>
<path style="fill:url(#SVGID_3_-i2);" d="M110.366,42.916c3.111-1.868,7.199-2.974,10.283-1.062c2.362,1.465,3.501,4.404,3.46,7.183  c-0.041,2.779-1.086,5.442-2.264,7.959c-1.716,3.667-3.828,7.278-7.013,9.778c-3.185,2.5-7.641,3.7-11.384,2.157  C91.191,63.877,103.699,46.919,110.366,42.916z"/>
<linearGradient id="SVGID_4_-i2" gradientUnits="userSpaceOnUse" x1="112.6584" y1="22.4933" x2="-1.554" y2="88.4339" gradientTransform="matrix(1 -0.0032 0.0032 1 -1.0976 -1.0969)">
	<stop offset="0" style="stop-color:#3E7FE8"/>
	<stop offset="1" style="stop-color:#053FF6"/>
</linearGradient>
<path style="fill:url(#SVGID_4_-i2);" d="M27.254,97.054c3.208-10.081,10.552-19.202,20.534-22.705  c8.541-2.998,17.912-1.699,26.932-2.463c12.768-1.081,25.497-6.806,33.174-17.065s9.344-25.268,2.398-36.035  c-3.941-6.108-10.18-10.43-16.805-13.42c-20.407-9.212-45.557-6.281-63.844,6.638S0.272,47.132,0.005,69.521  c-0.132,11.056,2.314,22.079,6.806,32.165c3.792,8.513,10.594,21.657,19.056,26.236c1.116-4.435-0.956-10.767-0.908-15.608  C25.011,107.148,25.684,101.985,27.254,97.054z"/>
<g>
	<path style="fill:#053FF6;" d="M228.673,84.799c-4.671-0.374-9.318,2.153-11.594,6.216c-0.488-0.603-0.962-1.218-1.414-1.85   c-1.895-2.649-2.507-4.845-1.819-6.521c0.511-1.245,1.795-2.207,3.352-2.51c1.381-0.269,2.958-0.063,4.687,0.609   c0.514,0.202,1.094-0.055,1.294-0.568c0.201-0.515-0.054-1.095-0.569-1.295c-2.086-0.813-4.036-1.049-5.794-0.709   c-2.21,0.43-4.058,1.853-4.821,3.714c-0.966,2.355-0.278,5.197,2.043,8.443c4.017,5.62,9.439,10.153,15.684,13.11   c0.138,0.066,0.284,0.097,0.427,0.097c0.375,0,0.734-0.211,0.905-0.572c0.236-0.499,0.023-1.095-0.476-1.331   c-4.588-2.174-8.702-5.25-12.101-8.999c0.011-0.02,0.03-0.032,0.04-0.053c1.735-3.681,5.937-6.13,9.996-5.787   c4.057,0.327,7.815,3.405,8.937,7.317c0.126,0.439,0.526,0.725,0.961,0.725c0.091,0,0.184-0.013,0.276-0.039   c0.531-0.151,0.838-0.706,0.686-1.236C238.007,88.8,233.608,85.199,228.673,84.799z"/>
	<path style="fill:#053FF6;" d="M259.842,95.81c-2.152-5.683-6.524-10.227-10.381-14.236c-0.146-0.152-0.332-0.229-0.523-0.268   c-9.636-8.79-18.372-11.476-29.561-14.246c-4.327-1.07-10.784-2.279-16.881-0.431c-5.139,1.56-10.624,5.98-11.292,12.343   c-0.512,4.876,1.804,9.909,7.081,15.389c6.555,6.808,14.642,12.301,23.386,15.885c0.124,0.052,0.253,0.075,0.379,0.075   c0.394,0,0.767-0.233,0.926-0.621c0.209-0.511-0.035-1.095-0.546-1.304c-8.489-3.48-16.341-8.813-22.704-15.422   c-4.842-5.028-6.979-9.54-6.532-13.793c0.487-4.646,4.552-9.021,9.883-10.638c4.281-1.299,9.309-1.155,15.82,0.458   c13.208,3.27,20.59,6.13,29.422,14.442c0.109,0.103,0.236,0.171,0.37,0.215c3.55,3.701,7.395,7.874,9.282,12.86   c1.737,4.587,1.674,11.219-2.567,14.938c-0.416,0.364-0.457,0.996-0.093,1.411c0.197,0.226,0.474,0.341,0.752,0.341   c0.234,0,0.469-0.082,0.659-0.248C261.68,108.613,261.815,101.023,259.842,95.81z"/>
</g>
</svg></g><!--ITEM: Illustration component 3--><g transform="translate(242.0 140.0) rotate(0.0 268.5 283.5)  scale(2.151358356448751 2.1531221486321104)"><svg width="249.60974" height="263.33852" viewBox="0.0 0.0 249.60974 263.33852"><g>
    <path d="M13.05988,262.33852C-1.436,197.81531-.81834,116.45023,4.32322,53.77921,76.00872,24.30351,174.51152,5.09115,248.60974,1c-4.06687,53.35027-7.27342,121.31305-1.89557,179.70226C175.07305,204.09986,87.6431,229.22531,13.05988,262.33852Z" style="         fill: #fff;       "/>
    <path d="M13.06,263.33863a.99921.99921,0,0,1-.97559-.78125C-4.41848,189.1023-.48635,100.17066,3.32664,53.697a.99947.99947,0,0,1,.61621-.84278C70.05613,25.66968,168.35838,4.42945,248.55467.00171a.9838.9838,0,0,1,.76953.29883.99782.99782,0,0,1,.28271.77539c-5.61669,73.6836-6.2373,132.40918-1.897,179.53418a.99875.99875,0,0,1-.68506,1.042c-15.30273,4.99805-31.08056,9.99707-47.78515,15.29-59.60743,18.88575-127.16846,40.291-185.77393,66.31055A.99629.99629,0,0,1,13.06,263.33863ZM5.27,54.47144c-3.7666,46.27148-7.564,133.81641,8.50049,206.459,58.44629-25.84082,125.58642-47.11425,184.86523-65.8955,16.42383-5.20313,31.95313-10.124,47.01026-15.03614-4.249-46.85937-3.63379-105.085,1.88037-177.93652C167.97264,6.60425,70.87547,27.60425,5.27,54.47144Z" style="         fill: #053ff6;       "/>
  </g>
</svg></g><!--ITEM: Illustration component 4--><g transform="translate(900.0 919.0) rotate(0.0 155.5 243.0)  scale(2.133311382862513 2.133949971694427)"><svg width="145.78275" height="227.74667" viewBox="0.0 0.0 145.78275 227.74667"><defs>
    
    <linearGradient id="linear-gradient-i4" x1="88.42932" y1="-277.87445" x2="88.42932" y2="739.43382" gradientTransform="translate(-9.62765 -110.60602) rotate(1.96001)" gradientUnits="userSpaceOnUse">
      <stop offset="0" stop-color="#8abdff" fill="#000000"/>
      <stop offset="1" stop-color="#5a80f9" fill="#000000"/>
    </linearGradient>
  </defs>
  <path d="M34.79291,227.73958a11.8837,11.8837,0,1,1,12.2832-11.4703A11.88371,11.88371,0,0,1,34.79291,227.73958Zm82.98295-52.68717a11.8837,11.8837,0,1,0-12.28319,11.4703A11.8837,11.8837,0,0,0,117.77586,175.05241Zm-3.07815-30.07789a12.2113,12.2113,0,0,0-13.3809-10.92239,79.19882,79.19882,0,0,0-18.76614,4.31814l.46081-13.46536A124.27233,124.27233,0,0,1,58.351,131.272l-.69211,20.224a178.0203,178.0203,0,0,0-30.59326,27.73059,12.21424,12.21424,0,0,0,18.218,16.27435c20.348-22.78,40.027-35.27688,58.49165-37.14557A12.21264,12.21264,0,0,0,114.69771,144.97452ZM144.956,53.24734a71.122,71.122,0,0,1-4.63881,7.75859c-10.05453,14.6375-26.30032,27.7245-45.74378,36.85237-17.60263,8.26281-36.40614,12.50115-52.94566,11.93514-19.46491-.66613-34.351-7.89178-41.37541-19.95125L.15376,92.72275a32.719,32.719,0,0,0-.1392,4.06741l-.00189.05531L.018,96.84375A27.89919,27.89919,0,0,0,2.60433,107.8345c10.61749,22.61947,50.51846,26.2669,89.12124,8.14657C124.42178,100.63372,145.66327,74.6008,144.956,53.24734ZM143.16875,19.67C132.55126-2.94969,92.65029-6.59713,54.04752,11.523S-7.24172,62.66906,3.37589,85.28852s50.51846,26.26714,89.12124,8.1468C131.09989,75.31547,153.78648,42.28948,143.16875,19.67Z" style="         fill: url(#linear-gradient-i4);       "/>
</svg></g><!--ITEM: Illustration component 5--><g transform="translate(345.0 669.0) rotate(0.0 400.5 205.5)  scale(2.1945188043549226 2.188507958341458)"><svg width="365.00029" height="187.79918" viewBox="0.0 0.0 365.00029 187.79918"><path d="M1.00078,187.799a1.00018,1.00018,0,0,1-.45654-1.89062L363.54473.1095a1.00038,1.00038,0,0,1,.91113,1.78125L1.45537,187.68958A1,1,0,0,1,1.00078,187.799Z" style="         fill: #053ff6;       "/>
</svg></g><!--ITEM: Illustration component 6--><g transform="translate(495.0 550.0) rotate(0.0 356.5 397.5)  scale(2.1554650152761403 2.1582761351697664)"><svg width="330.78709" height="368.34953" viewBox="0.0 0.0 330.78709 368.34953"><g>
    <g>
      <path d="M261.06072,235.21c6.02528,23.62078-53.133,12.99563-56.814,55.53062-2.08458,24.08809,23.93813,23.04575,24.93805,5.30806.92664-16.43777,9.09933-18.59142,27.11873-27.26842,19.94724-9.60534,27.192-26.69624,20.36077-41.47046C268.19967,223.84154,261.06072,235.21,261.06072,235.21Z" style="         fill: #fff;       "/>
      <path d="M216.55459,310.11593a12.44813,12.44813,0,0,1-7.03906-2.15039c-2.73731-1.873-7.19092-6.61132-6.26465-17.31054,2.10742-24.3584,21.81689-31.68946,37.65332-37.58008,12.08447-4.49512,21.62939-8.04492,19.188-17.61817a.99884.99884,0,0,1,.12207-.77929c.30957-.49317,7.687-12.03809,16.82959-8.293a1.00341,1.00341,0,0,1,.52832.50586c7.29394,15.77539-1.27344,33.37109-20.83448,42.791-1.73388.835-3.37646,1.60938-4.93066,2.3418-14.7251,6.94336-20.81982,9.81738-21.62353,24.082-.32422,5.752-3.18018,10.36426-7.83448,12.6543A13.12126,13.12126,0,0,1,216.55459,310.11593Zm45.58105-74.71484c2.49952,10.98145-8.18652,14.95606-20.53418,19.54883-15.3081,5.69336-34.35937,12.7793-36.35839,35.87695-.6211,7.17969,1.29687,12.67969,5.40185,15.48731a10.76626,10.76626,0,0,0,10.8208.65136c3.98877-1.96289,6.43848-5.96191,6.72071-10.97363.87109-15.45215,8.18847-18.90332,22.76757-25.77734,1.54932-.73047,3.187-1.50293,4.91553-2.33594,18.65723-8.9834,26.67139-24.92871,20.0542-39.78125C269.2582,225.72824,263.35146,233.63644,262.13564,235.40109Z" style="         fill: #053ff6;       "/>
    </g>
    <g>
      <path d="M9.88729,90.51542c14.37831-15.0683,35.199-27.288,69.2335-25.56114,38.723,1.96476,67.75918,21.51556,91.76889,6.66056C201.87934,52.4413,238.52024-9.8376,268.66551,2.63774c40.38983,16.71495,55.414,64.60756,60.36212,107.985,5.50843,48.28969-19.57943,104.40074-54.7639,121.72213-52.85227,26.0193-131.39914,1.3851-151.91683,54.99215-7.4498,19.46428-7.341,34.1344-4.62435,54.35535,4.202,31.27628-34.9318,37.51716-44.32778-1.37493C61.65076,291.70631,67.081,237.13908,113.106,205.28426s88.50685-18.88656,96.00273-51.505c9.71486-42.27449-32.13013-17.79567-72.11093-31.802-45.30812-15.87265-59.60862-28.41123-96.1503-3.82553C8.90215,139.64492-11.69213,113.13041,9.88729,90.51542Z" style="         fill: #fff;       "/>
      <path d="M99.59023,368.34738c-10.42871,0-22.439-8.22363-27.16748-27.7959-6.42187-26.58105-7.04736-52.26172-1.80859-74.26562,6.20557-26.06543,20.31055-46.86524,41.92236-61.82422,20.563-14.23145,40.61768-19.63086,56.73194-23.96875,20.2207-5.44336,34.83007-9.377,38.86572-26.9375,2.1958-9.55664,1.78662-16.05274-1.25195-19.86133-4.54-5.69043-14.82618-5.67383-27.85108-5.64453-12.28467.02539-27.56836.05469-42.36377-5.12891-7.08545-2.48144-13.51025-4.91894-19.1792-7.07031-31.36084-11.89551-45.6748-17.32715-76.08252,3.13184-17.21045,11.58007-31.22656,9.27734-37.48242,1.85839-5.687-6.74414-6.272-18.95019,5.24024-31.01562C27.18252,70.94113,50.081,62.48507,79.17178,63.9548c14.63623.74317,28.08984,4.02832,39.96,6.92774,19.63574,4.79589,36.59424,8.93945,51.23144-.11817,10.8545-6.71582,22.231-18.58594,34.27539-31.1543,21.77735-22.72265,44.29834-46.2246,64.40918-37.89648,42.12647,17.43359,56.40967,68.78613,60.97364,108.7959,5.59082,49.01367-19.74073,105.21875-55.31592,122.73242-20.6499,10.166-44.98194,12.63867-68.51221,15.03027-36.29053,3.6875-70.56836,7.17188-82.91211,39.42188-7.34521,19.19043-7.272,33.73633-4.56738,53.86523,2.13135,15.86231-6.2876,24.71973-15.57617,26.46094A19.17843,19.17843,0,0,1,99.59023,368.34738ZM181.5751,126.0466c12.353,0,22.0542.36426,26.87011,6.40039,3.4917,4.376,4.01221,11.22558,1.63819,21.55566-4.30469,18.73242-20.187,23.00782-40.29492,28.42188-15.96534,4.29785-35.835,9.64648-56.11329,23.68164-39.02587,27.01074-53.353,75.84375-39.3081,133.97656,4.96924,20.57031,18.20312,27.88281,28.40185,25.97266,8.35987-1.56739,15.91895-9.667,13.96241-24.23047-2.74854-20.45606-2.81641-35.25586,4.68164-54.8457,12.78418-33.4004,47.65722-36.94532,84.57763-40.69727,23.355-2.37305,47.5044-4.82715,67.83106-14.835,34.89062-17.17578,59.7168-72.45508,54.2124-120.71094-4.50293-39.47558-18.5249-90.11328-59.751-107.1748C249.435-4.2366,227.39541,18.75656,206.08291,40.99484c-12.13477,12.66113-23.59668,24.62109-34.667,31.4707-15.34961,9.49707-32.68555,5.2627-52.75879.36036-11.78369-2.87793-25.13965-6.14063-39.58692-6.87305-28.47314-1.4541-50.86669,6.8164-68.45947,25.25293h0C-.046,102.37472.34072,113.49,5.45205,119.55148c5.6792,6.7334,18.65332,8.65918,34.8374-2.22949,31.26465-21.03613,46.85352-15.125,77.90821-3.34082,5.65771,2.14551,12.06982,4.57812,19.13086,7.05273,14.47265,5.06934,28.936,5.043,41.69873,5.01563Q180.31851,126.04659,181.5751,126.0466Z" style="         fill: #053ff6;       "/>
    </g>
  </g>
</svg></g><!--ITEM: Illustration component 7--><g transform="translate(791.0 295.0) rotate(-16.78546609554996 149.0 120.5) translate(0.0 0.0) scale(2.737464479561153 2.748709446698475)"><svg width="88.76827510067113" height="87.67751" viewBox="0.0 0.0 88.76827510067113 87.67751"><g>
    <path d="M34.87592,85.38328a15.60481,15.60481,0,0,1-5.8291-1.09765c-13.25244-5.291-16.58545-28.251-7.43066-51.18164C30.77143,10.1743,49.00141-4.17531,62.25336,1.11375c13.25244,5.291,16.58545,28.251,7.43067,51.18164h0C61.81245,72.00926,47.23237,85.38328,34.87592,85.38328ZM56.30561,1.99168c-11.49512,0-25.271,12.916-32.832,31.85449C14.72748,55.75242,17.56,77.54637,29.788,82.4282c12.22852,4.87891,29.292-8.96875,38.03858-30.875C76.5727,29.647,73.74018,7.853,61.51215,2.97117A13.95738,13.95738,0,0,0,56.30561,1.99168ZM68.75532,51.9243h0Z" style="         fill: #053ff6;       "/>
    <path d="M16.36762,65.12156a.99029.99029,0,0,1-.59326-.19629C3.26557,55.6782.16352,45.11766.03754,44.67234a1.003,1.003,0,0,1,.17578-.89062.962.962,0,0,1,.82325-.38086l17.73486.64941a.99936.99936,0,0,1,.96289,1.03516.96485.96485,0,0,1-1.03613.96289l-16.2544-.59473c1.23926,3.06739,5.12354,10.918,14.51905,17.86426a.99958.99958,0,0,1-.59522,1.80371Z" style="         fill: #053ff6;       "/>
    <path d="M51.44721,87.67723a1.00009,1.00009,0,0,1-.08935-1.9961,13.1271,13.1271,0,0,0,10.83007-8.36035,1,1,0,0,1,1.88086.67969,14.987,14.987,0,0,1-12.53027,9.67285C51.50776,87.67625,51.47748,87.67723,51.44721,87.67723Z" style="         fill: #053ff6;       "/>
    <ellipse cx="29.38022" cy="44.94779" rx="6.42518" ry="4.56281" transform="matrix(0.32414, -0.94601, 0.94601, 0.32414, -22.66415, 58.17223)" style="         fill: #053ff6;       "/>
    <path d="M107.85883,49.20848a.9974.9974,0,0,1-.53125-.15332c-8.75586-5.50684-25.55371-8.2959-35.65722-3.49219a1.0001,1.0001,0,1,1-.8584-1.80664c10.689-5.084,28.38476-2.17774,37.58008,3.60547a1,1,0,0,1-.53321,1.84668Z" style="         fill: #053ff6;       "/>
    <path d="M32.75092,33.29539A1.0001,1.0001,0,0,1,32.559,31.314l17.14648-3.36914a1.00022,1.00022,0,0,1,.38574,1.96289L32.94477,33.27684A1.01031,1.01031,0,0,1,32.75092,33.29539Z" style="         fill: #053ff6;       "/>
  </g>
</svg></g><!--ITEM: Illustration component 8--><g transform="translate(409.0 318.0) rotate(-5.654173626434151 110.5 83.0)  scale(0.9418575561907531 0.9422425736527179)"><svg width="234.6427" height="176.17544" viewBox="0.0 0.0 234.6427 176.17544"><g>
    <path d="M69.418,138.08267a9.95611,9.95611,0,0,1-4.59668-1.126L5.3946,106.12076A9.99934,9.99934,0,0,1,2.73249,90.37564L47.42292,43.10025A9.99978,9.99978,0,0,1,61.9571,56.83853L26.377,94.4772l47.65527,24.72754A10.00127,10.00127,0,0,1,69.418,138.08267Z" style="         fill: #053ff6;       "/>
    <path d="M179.95221,124.05142a10,10,0,0,1-7.26562-16.86914l35.5791-37.6377L160.61042,44.81607a10.00012,10.00012,0,0,1,9.21289-17.752L229.24909,57.901a10.0001,10.0001,0,0,1,2.66016,15.74609l-44.6875,47.27344A9.973,9.973,0,0,1,179.95221,124.05142Z" style="         fill: #053ff6;       "/>
    <path d="M112.59089,176.17544c-.082,0-.16309-.001-.2461-.00293a10.0003,10.0003,0,0,1-9.75586-10.23828c1.00782-41.82324,6.05664-85.07031,10.93848-126.89453,1.15625-9.90234,2.35156-20.14258,3.4668-30.14648a10,10,0,1,1,19.877,2.21484c-1.12109,10.05664-2.31934,20.32227-3.47852,30.251-4.83007,41.373-9.82422,84.15527-10.80957,125.05761A10.00041,10.00041,0,0,1,112.59089,176.17544Z" style="         fill: #053ff6;       "/>
  </g>
</svg></g></svg>