<?xml version="1.0" encoding="UTF-8"?><svg xmlns="http://www.w3.org/2000/svg" version="1.1" viewBox="0 0 1500 1500" width="1500" height="1500" x="0px" y="0px" xmlns:xlink="http://www.w3.org/1999/xlink">
<defs/><!--ITEM: Illustration component 1--><g transform="translate(322.0 574.0) rotate(0.0 341.0 181.5)  scale(2.201492398798734 2.2043574134179416)"><svg width="309.78985" height="164.67384" viewBox="0.0 0.0 309.78985 164.67384"><defs>
    
    <linearGradient id="linear-gradient-i1" x1="106.33809" y1="-19.92429" x2="228.42505" y2="203.90179" gradientUnits="userSpaceOnUse">
      <stop offset="0" stop-color="#8abdff" fill="#000000"/>
      <stop offset="1" stop-color="#5a80f9" fill="#000000"/>
    </linearGradient>
  </defs>
  <g>
    <path d="M2.83472,96.49688C82.26655,60.083,160.36726,29.26677,236.34026,7.39786a3.55728,3.55728,0,0,1,3.29111.72633c20.97551,17.95552,38.44314,28.66782,66.76095,38.27739a3.53276,3.53276,0,0,1,.70069,6.36262c-66.7702,40.38024-134.456,77.4344-203.39237,109.945a10.00972,10.00972,0,0,1-8.21114.16307C60.56441,147.874,29.1768,127.95005,1.90616,102.29264A3.53638,3.53638,0,0,1,2.83472,96.49688Z" style="         fill: #fff;       "/>
    <path d="M99.402,164.67382a10.91951,10.91951,0,0,1-4.30713-.88281c-35.74707-15.35156-67.331-35.79688-93.87353-60.76953a1,1,0,1,1,1.37011-1.457C28.964,126.377,60.35215,146.69433,95.88388,161.95312a8.99212,8.99212,0,0,0,7.39014-.14844C169.23838,130.69531,235.73838,94.748,306.57529,51.90917a2.53329,2.53329,0,0,0-.50439-4.56054c-27.10205-9.19727-44.65821-19.2627-67.08985-38.46485a2.54918,2.54918,0,0,0-2.36377-.52539,1,1,0,0,1-.55371-1.92187,4.54227,4.54227,0,0,1,4.21778.92773c22.21582,19.01758,39.5996,28.98438,66.43212,38.08984a4.53347,4.53347,0,0,1,.897,8.166C236.714,96.49609,170.1539,132.4746,104.12754,163.61327A11.08313,11.08313,0,0,1,99.402,164.67382Z" style="         fill: #053ff6;       "/>
    <path d="M2.05162,89.23525C81.48345,52.8214,159.58416,22.00513,235.55716.13623a3.55728,3.55728,0,0,1,3.29111.72633c20.97551,17.95552,38.44314,28.66782,66.761,38.27739a3.53276,3.53276,0,0,1,.70068,6.36262c-66.7702,40.38024-134.456,77.4344-203.39237,109.945a10.00972,10.00972,0,0,1-8.21114.16307C59.78131,140.61235,28.39371,120.68842,1.12306,95.031A3.53637,3.53637,0,0,1,2.05162,89.23525Z" style="         fill: url(#linear-gradient-i1);       "/>
  </g>
</svg></g><!--ITEM: Illustration component 2--><g transform="translate(1167.0 141.0) rotate(-8.15958347386325 -161.0 233.0) translate(-1.0 0.0) scale(-2.066190873814579 2.0684205097120776)"><svg width="146.64666456521738" height="225.29268" viewBox="0.48398239130434784 0.0 146.64666456521738 225.29268"><defs>
    
    <linearGradient id="New_Gradient_Swatch_4-i2" data-name="New Gradient Swatch 4" x1="44.72433" y1="43.41272" x2="106.97431" y2="218.77686" gradientUnits="userSpaceOnUse">
      <stop offset="0" stop-color="#ebce52" fill="#000000"/>
      <stop offset="0.45116" stop-color="#ffc515" fill="#000000"/>
      <stop offset="0.62139" stop-color="#ffb311" fill="#000000"/>
      <stop offset="0.80488" stop-color="#ffa80f" fill="#000000"/>
      <stop offset="0.99948" stop-color="#ffa40e" fill="#000000"/>
    </linearGradient>
    <linearGradient id="New_Gradient_Swatch_2-i2" data-name="New Gradient Swatch 2" x1="131.32533" y1="51.05745" x2="-9.20331" y2="132.1917" gradientUnits="userSpaceOnUse">
      <stop offset="0" stop-color="#3e7fe8" fill="#000000"/>
      <stop offset="1" stop-color="#053ff6" fill="#000000"/>
    </linearGradient>
  </defs>
  <g>
    <path d="M155.84233,144.19772l-10.8598-6.34362a131.00516,131.00516,0,0,0-.57294-15.07672c-5.78058-50.56562-39.16773-90.04822-77.2-85.83564S.34935,85.85831,5.95243,136.44388s41.4361,92.77087,79.46845,88.55829c30.4552-3.37335,53.40234-33.90369,58.50446-71.09546Z" style="         fill: url(#New_Gradient_Swatch_4-i2);       "/>
    <path d="M121.08761,36.06458c-3.99288,5.42871-10.50617,6.06585-14.41921,3.54849C113.97275,32.6087,115.01622,14.73158,99.88579,0,98.71188,13.30435,91.90965,23.17148,74.8632,26.67392,52.50785,31.26706,37.82011,40.80478,30.461,47.10935l.01685.00293a73.19021,73.19021,0,0,0-19.961,23.535C1.581,87.28983-1.54177,107.06754.69712,126.03769c4.02894,34.13672,17.78052,53.882,17.78052,53.882,7.18433.81628,13.868-1.90955,19.765-6.17377s10.06323-9.35138,11.76446-16.59308l-.14545-1.31311s-25.1231-23.80285-14.5913-38.92682c10.28607-14.77093,29.451,16.05231,29.451,16.05231-2.29492-11.84149-4.60083-23.92291-3.22735-35.88794s5.25378-24.02,15.46539-29.77466c5.42249-3.05572,15.44517-4.50721,21.49168-5.8562s11.70293-3.45458,17.05023-8.40256C123.43692,45.70074,121.15324,41.49329,121.08761,36.06458Z" style="         fill: url(#New_Gradient_Swatch_2-i2);       "/>
    <path d="M60.07776,139.8212a1.00045,1.00045,0,0,1-.85742-.4834,27.81356,27.81356,0,0,0-9.87158-9.72216c-1.91406-1.104-3.39941-1.37159-4.41357-.79737a3.02654,3.02654,0,0,0-1.33887,2.41455,6.15888,6.15888,0,0,0,.7876,3.21973.99994.99994,0,0,1-1.78028.91113,8.11194,8.11194,0,0,1-1.00244-4.27539,4.99619,4.99619,0,0,1,2.34961-4.01123c1.67529-.9458,3.82715-.67578,6.397.80615A29.82436,29.82436,0,0,1,60.93323,138.3046a.9999.9999,0,0,1-.85547,1.5166Z" style="         fill: #053ff6;       "/>
    <path d="M54.66077,146.50773a1.015,1.015,0,0,1-.1748-.01514,9.23822,9.23822,0,0,1-7.2544-7.271,9.354,9.354,0,0,1,3.99463-9.50586.99979.99979,0,0,1,1.07422,1.68653,7.4108,7.4108,0,0,0-3.105,7.43847,7.29652,7.29652,0,0,0,5.63818,5.68213,1,1,0,0,1-.17285,1.98487Z" style="         fill: #053ff6;       "/>
    <path d="M61.067,161.579a13.09183,13.09183,0,0,1-3.3374-.42578c-4.22315-1.12207-7.79541-3.94922-10.94678-6.44336a1,1,0,0,1,1.24121-1.56836c2.999,2.37354,6.39795,5.06348,10.21924,6.07911,3.2544.86279,7.749.31445,9.92432-2.936a1,1,0,0,1,1.66211,1.11231C67.82532,160.393,64.33411,161.579,61.067,161.579Z" style="         fill: #053ff6;       "/>
    <path d="M47.7389,155.081a.99563.99563,0,0,1-.65821-.24756c-7.42431-6.501-10.08886-12.76221-13.043-20.89795-1.11767-3.07813-2.51074-7.70557-1.70752-12.33447.68458-3.94239,3.40723-8.37842,7.94581-9.40235,3.4746-.78222,7.27929.51221,11.63232,3.96094a50.81836,50.81836,0,0,1,13.13818,15.77393.99983.99983,0,0,1-1.76367.94238A48.81182,48.81182,0,0,0,50.66614,117.727c-3.84814-3.04882-7.10254-4.21826-9.95019-3.57714-3.10157.6997-5.73975,3.90429-6.415,7.793-.54932,3.166-.03565,6.75977,1.6167,11.31006,3.36718,9.27393,5.96826,14.37354,12.48047,20.07569a1,1,0,0,1-.65918,1.75244Z" style="         fill: #053ff6;       "/>
  </g>
</svg></g><!--ITEM: Illustration component 3--><g transform="translate(241.0 140.0) rotate(0.0 268.5 283.5)  scale(2.151358356448751 2.1531221486321104)"><svg width="249.60974" height="263.33852" viewBox="0.0 0.0 249.60974 263.33852"><g>
    <path d="M13.05988,262.33852C-1.436,197.81531-.81834,116.45023,4.32322,53.77921,76.00872,24.30351,174.51152,5.09115,248.60974,1c-4.06687,53.35027-7.27342,121.31305-1.89557,179.70226C175.07305,204.09986,87.6431,229.22531,13.05988,262.33852Z" style="         fill: #fff;       "/>
    <path d="M13.06,263.33863a.99921.99921,0,0,1-.97559-.78125C-4.41848,189.1023-.48635,100.17066,3.32664,53.697a.99947.99947,0,0,1,.61621-.84278C70.05613,25.66968,168.35838,4.42945,248.55467.00171a.9838.9838,0,0,1,.76953.29883.99782.99782,0,0,1,.28271.77539c-5.61669,73.6836-6.2373,132.40918-1.897,179.53418a.99875.99875,0,0,1-.68506,1.042c-15.30273,4.99805-31.08056,9.99707-47.78515,15.29-59.60743,18.88575-127.16846,40.291-185.77393,66.31055A.99629.99629,0,0,1,13.06,263.33863ZM5.27,54.47144c-3.7666,46.27148-7.564,133.81641,8.50049,206.459,58.44629-25.84082,125.58642-47.11425,184.86523-65.8955,16.42383-5.20313,31.95313-10.124,47.01026-15.03614-4.249-46.85937-3.63379-105.085,1.88037-177.93652C167.97264,6.60425,70.87547,27.60425,5.27,54.47144Z" style="         fill: #053ff6;       "/>
  </g>
</svg></g><!--ITEM: Illustration component 4--><g transform="translate(900.0 919.0) rotate(0.0 155.5 243.0)  scale(2.133311382862513 2.133949971694427)"><svg width="145.78275" height="227.74667" viewBox="0.0 0.0 145.78275 227.74667"><defs>
    
    <linearGradient id="linear-gradient-i4" x1="88.42932" y1="-277.87445" x2="88.42932" y2="739.43382" gradientTransform="translate(-9.62765 -110.60602) rotate(1.96001)" gradientUnits="userSpaceOnUse">
      <stop offset="0" stop-color="#8abdff" fill="#000000"/>
      <stop offset="1" stop-color="#5a80f9" fill="#000000"/>
    </linearGradient>
  </defs>
  <path d="M34.79291,227.73958a11.8837,11.8837,0,1,1,12.2832-11.4703A11.88371,11.88371,0,0,1,34.79291,227.73958Zm82.98295-52.68717a11.8837,11.8837,0,1,0-12.28319,11.4703A11.8837,11.8837,0,0,0,117.77586,175.05241Zm-3.07815-30.07789a12.2113,12.2113,0,0,0-13.3809-10.92239,79.19882,79.19882,0,0,0-18.76614,4.31814l.46081-13.46536A124.27233,124.27233,0,0,1,58.351,131.272l-.69211,20.224a178.0203,178.0203,0,0,0-30.59326,27.73059,12.21424,12.21424,0,0,0,18.218,16.27435c20.348-22.78,40.027-35.27688,58.49165-37.14557A12.21264,12.21264,0,0,0,114.69771,144.97452ZM144.956,53.24734a71.122,71.122,0,0,1-4.63881,7.75859c-10.05453,14.6375-26.30032,27.7245-45.74378,36.85237-17.60263,8.26281-36.40614,12.50115-52.94566,11.93514-19.46491-.66613-34.351-7.89178-41.37541-19.95125L.15376,92.72275a32.719,32.719,0,0,0-.1392,4.06741l-.00189.05531L.018,96.84375A27.89919,27.89919,0,0,0,2.60433,107.8345c10.61749,22.61947,50.51846,26.2669,89.12124,8.14657C124.42178,100.63372,145.66327,74.6008,144.956,53.24734ZM143.16875,19.67C132.55126-2.94969,92.65029-6.59713,54.04752,11.523S-7.24172,62.66906,3.37589,85.28852s50.51846,26.26714,89.12124,8.1468C131.09989,75.31547,153.78648,42.28948,143.16875,19.67Z" style="         fill: url(#linear-gradient-i4);       "/>
</svg></g><!--ITEM: Illustration component 5--><g transform="translate(345.0 669.0) rotate(0.0 400.5 205.5)  scale(2.1945188043549226 2.188507958341458)"><svg width="365.00029" height="187.79918" viewBox="0.0 0.0 365.00029 187.79918"><path d="M1.00078,187.799a1.00018,1.00018,0,0,1-.45654-1.89062L363.54473.1095a1.00038,1.00038,0,0,1,.91113,1.78125L1.45537,187.68958A1,1,0,0,1,1.00078,187.799Z" style="         fill: #053ff6;       "/>
</svg></g><!--ITEM: Illustration component 6--><g transform="translate(495.0 550.0) rotate(0.0 356.5 397.5)  scale(2.1554650152761403 2.1582761351697664)"><svg width="330.78709" height="368.34953" viewBox="0.0 0.0 330.78709 368.34953"><g>
    <g>
      <path d="M261.06072,235.21c6.02528,23.62078-53.133,12.99563-56.814,55.53062-2.08458,24.08809,23.93813,23.04575,24.93805,5.30806.92664-16.43777,9.09933-18.59142,27.11873-27.26842,19.94724-9.60534,27.192-26.69624,20.36077-41.47046C268.19967,223.84154,261.06072,235.21,261.06072,235.21Z" style="         fill: #fff;       "/>
      <path d="M216.55459,310.11593a12.44813,12.44813,0,0,1-7.03906-2.15039c-2.73731-1.873-7.19092-6.61132-6.26465-17.31054,2.10742-24.3584,21.81689-31.68946,37.65332-37.58008,12.08447-4.49512,21.62939-8.04492,19.188-17.61817a.99884.99884,0,0,1,.12207-.77929c.30957-.49317,7.687-12.03809,16.82959-8.293a1.00341,1.00341,0,0,1,.52832.50586c7.29394,15.77539-1.27344,33.37109-20.83448,42.791-1.73388.835-3.37646,1.60938-4.93066,2.3418-14.7251,6.94336-20.81982,9.81738-21.62353,24.082-.32422,5.752-3.18018,10.36426-7.83448,12.6543A13.12126,13.12126,0,0,1,216.55459,310.11593Zm45.58105-74.71484c2.49952,10.98145-8.18652,14.95606-20.53418,19.54883-15.3081,5.69336-34.35937,12.7793-36.35839,35.87695-.6211,7.17969,1.29687,12.67969,5.40185,15.48731a10.76626,10.76626,0,0,0,10.8208.65136c3.98877-1.96289,6.43848-5.96191,6.72071-10.97363.87109-15.45215,8.18847-18.90332,22.76757-25.77734,1.54932-.73047,3.187-1.50293,4.91553-2.33594,18.65723-8.9834,26.67139-24.92871,20.0542-39.78125C269.2582,225.72824,263.35146,233.63644,262.13564,235.40109Z" style="         fill: #053ff6;       "/>
    </g>
    <g>
      <path d="M9.88729,90.51542c14.37831-15.0683,35.199-27.288,69.2335-25.56114,38.723,1.96476,67.75918,21.51556,91.76889,6.66056C201.87934,52.4413,238.52024-9.8376,268.66551,2.63774c40.38983,16.71495,55.414,64.60756,60.36212,107.985,5.50843,48.28969-19.57943,104.40074-54.7639,121.72213-52.85227,26.0193-131.39914,1.3851-151.91683,54.99215-7.4498,19.46428-7.341,34.1344-4.62435,54.35535,4.202,31.27628-34.9318,37.51716-44.32778-1.37493C61.65076,291.70631,67.081,237.13908,113.106,205.28426s88.50685-18.88656,96.00273-51.505c9.71486-42.27449-32.13013-17.79567-72.11093-31.802-45.30812-15.87265-59.60862-28.41123-96.1503-3.82553C8.90215,139.64492-11.69213,113.13041,9.88729,90.51542Z" style="         fill: #fff;       "/>
      <path d="M99.59023,368.34738c-10.42871,0-22.439-8.22363-27.16748-27.7959-6.42187-26.58105-7.04736-52.26172-1.80859-74.26562,6.20557-26.06543,20.31055-46.86524,41.92236-61.82422,20.563-14.23145,40.61768-19.63086,56.73194-23.96875,20.2207-5.44336,34.83007-9.377,38.86572-26.9375,2.1958-9.55664,1.78662-16.05274-1.25195-19.86133-4.54-5.69043-14.82618-5.67383-27.85108-5.64453-12.28467.02539-27.56836.05469-42.36377-5.12891-7.08545-2.48144-13.51025-4.91894-19.1792-7.07031-31.36084-11.89551-45.6748-17.32715-76.08252,3.13184-17.21045,11.58007-31.22656,9.27734-37.48242,1.85839-5.687-6.74414-6.272-18.95019,5.24024-31.01562C27.18252,70.94113,50.081,62.48507,79.17178,63.9548c14.63623.74317,28.08984,4.02832,39.96,6.92774,19.63574,4.79589,36.59424,8.93945,51.23144-.11817,10.8545-6.71582,22.231-18.58594,34.27539-31.1543,21.77735-22.72265,44.29834-46.2246,64.40918-37.89648,42.12647,17.43359,56.40967,68.78613,60.97364,108.7959,5.59082,49.01367-19.74073,105.21875-55.31592,122.73242-20.6499,10.166-44.98194,12.63867-68.51221,15.03027-36.29053,3.6875-70.56836,7.17188-82.91211,39.42188-7.34521,19.19043-7.272,33.73633-4.56738,53.86523,2.13135,15.86231-6.2876,24.71973-15.57617,26.46094A19.17843,19.17843,0,0,1,99.59023,368.34738ZM181.5751,126.0466c12.353,0,22.0542.36426,26.87011,6.40039,3.4917,4.376,4.01221,11.22558,1.63819,21.55566-4.30469,18.73242-20.187,23.00782-40.29492,28.42188-15.96534,4.29785-35.835,9.64648-56.11329,23.68164-39.02587,27.01074-53.353,75.84375-39.3081,133.97656,4.96924,20.57031,18.20312,27.88281,28.40185,25.97266,8.35987-1.56739,15.91895-9.667,13.96241-24.23047-2.74854-20.45606-2.81641-35.25586,4.68164-54.8457,12.78418-33.4004,47.65722-36.94532,84.57763-40.69727,23.355-2.37305,47.5044-4.82715,67.83106-14.835,34.89062-17.17578,59.7168-72.45508,54.2124-120.71094-4.50293-39.47558-18.5249-90.11328-59.751-107.1748C249.435-4.2366,227.39541,18.75656,206.08291,40.99484c-12.13477,12.66113-23.59668,24.62109-34.667,31.4707-15.34961,9.49707-32.68555,5.2627-52.75879.36036-11.78369-2.87793-25.13965-6.14063-39.58692-6.87305-28.47314-1.4541-50.86669,6.8164-68.45947,25.25293h0C-.046,102.37472.34072,113.49,5.45205,119.55148c5.6792,6.7334,18.65332,8.65918,34.8374-2.22949,31.26465-21.03613,46.85352-15.125,77.90821-3.34082,5.65771,2.14551,12.06982,4.57812,19.13086,7.05273,14.47265,5.06934,28.936,5.043,41.69873,5.01563Q180.31851,126.04659,181.5751,126.0466Z" style="         fill: #053ff6;       "/>
    </g>
  </g>
</svg></g><!--ITEM: Illustration component 7--><g transform="translate(409.0 318.0) rotate(-5.654173626434151 110.5 83.0)  scale(0.9418575561907531 0.9422425736527179)"><svg width="234.6427" height="176.17544" viewBox="0.0 0.0 234.6427 176.17544"><g>
    <path d="M69.418,138.08267a9.95611,9.95611,0,0,1-4.59668-1.126L5.3946,106.12076A9.99934,9.99934,0,0,1,2.73249,90.37564L47.42292,43.10025A9.99978,9.99978,0,0,1,61.9571,56.83853L26.377,94.4772l47.65527,24.72754A10.00127,10.00127,0,0,1,69.418,138.08267Z" style="         fill: #053ff6;       "/>
    <path d="M179.95221,124.05142a10,10,0,0,1-7.26562-16.86914l35.5791-37.6377L160.61042,44.81607a10.00012,10.00012,0,0,1,9.21289-17.752L229.24909,57.901a10.0001,10.0001,0,0,1,2.66016,15.74609l-44.6875,47.27344A9.973,9.973,0,0,1,179.95221,124.05142Z" style="         fill: #053ff6;       "/>
    <path d="M112.59089,176.17544c-.082,0-.16309-.001-.2461-.00293a10.0003,10.0003,0,0,1-9.75586-10.23828c1.00782-41.82324,6.05664-85.07031,10.93848-126.89453,1.15625-9.90234,2.35156-20.14258,3.4668-30.14648a10,10,0,1,1,19.877,2.21484c-1.12109,10.05664-2.31934,20.32227-3.47852,30.251-4.83007,41.373-9.82422,84.15527-10.80957,125.05761A10.00041,10.00041,0,0,1,112.59089,176.17544Z" style="         fill: #053ff6;       "/>
  </g>
</svg></g><!--ITEM: Illustration component 8--><g transform="translate(828.0 308.0) rotate(-20.512274552649682 136.0 115.0) translate(0.0 0.0) scale(2.357458687269931 2.3527226320051295)"><svg width="100.53198441176471" height="97.75907999999998" viewBox="0.0 0.0 100.53198441176471 97.75907999999998"><g>
    <path d="M36.127,87.71056a18.89315,18.89315,0,0,1-8.61817-2.00147C20.57815,82.2003,16.3301,74.504,15.54983,64.03819,14.78225,53.756,17.4551,41.97911,23.0762,30.87608c5.62207-11.103,13.53125-20.229,22.27246-25.69677C54.24416-.38661,62.96-1.51942,69.89553,1.99034c14.12891,7.15332,16.11719,31.75147,4.43262,54.833h0c-5.62207,11.103-13.53125,20.229-22.27344,25.69678C46.54983,85.964,41.1133,87.71056,36.127,87.71056ZM61.27444,1.99229c-4.61231,0-9.6875,1.64356-14.86524,4.88233C37.97268,12.152,30.32034,20.99669,24.86135,31.7794c-5.46,10.78272-8.05762,22.186-7.31738,32.10987.72656,9.73974,4.58691,16.85547,10.86914,20.03564,6.28223,3.17969,14.30078,2.07861,22.58105-3.1001C59.43166,75.547,67.084,66.70226,72.543,55.92c11.1875-22.09766,9.59375-45.49024-3.55176-52.14551A16.91418,16.91418,0,0,0,61.27444,1.99229Zm12.16113,54.3794h0Z" style="         fill: #053ff6;       "/>
    <circle cx="36.28084" cy="41.06979" r="4.76284" style="         fill: #053ff6;       "/>
    <path d="M37.89944,31.01671a1,1,0,0,1-.043-1.999l18.47265-.80615.04493-.001a1,1,0,0,1,.043,1.999l-18.47266.80615Z" style="         fill: #053ff6;       "/>
    <path d="M16.5801,57.70909a.99734.99734,0,0,1-.5791-.18506L.42,46.43761a1,1,0,0,1,.26562-1.76416L20.29885,38.172a1,1,0,0,1,.62891,1.89844L3.18655,45.95128l13.97461,9.94287a1.00038,1.00038,0,0,1-.58106,1.81494Z" style="         fill: #053ff6;       "/>
    <path d="M50.22854,97.76329a10.89582,10.89582,0,0,1-7.97363-3.88818,1.00008,1.00008,0,0,1,1.48242-1.34278c2.666,2.94483,6.18262,3.96827,9.17383,2.67188,3.04882-1.32031,4.74121-4.59766,4.418-8.55322a1.0004,1.0004,0,0,1,1.99415-.16309c.38867,4.76367-1.81543,8.90527-5.61719,10.55176A8.71965,8.71965,0,0,1,50.22854,97.76329Z" style="         fill: #053ff6;       "/>
    <path d="M114.37893,45.22325a1.00177,1.00177,0,0,1-.3916-.08008c-11.46875-4.87549-24.80762-5.55127-34.81153-1.76172a1,1,0,1,1-.709-1.87011c10.46582-3.96387,24.376-3.27832,36.30371,1.791a1.00057,1.00057,0,0,1-.3916,1.9209Z" style="         fill: #053ff6;       "/>
  </g>
</svg></g></svg>