<svg xmlns="http://www.w3.org/2000/svg" viewBox="0 0 1600 1200" width="1600" height="1200"><g transform="translate(-243.0 -367.0) rotate(0.0 1044.5 783.5) scale(2.61125 2.611666666666667)"><svg width="800" height="600" viewBox="0 0 800 600"><path d="m797.707 600 2.128-80.876v-39.235c-2.099-1.563-7.028-5.118-10.339-6.568-33.672-14.747-75.668-10.778-111.338.526-35.67 11.303-67.472 29.215-102.005 42.611-3.287 1.276-7.065 2.53-10.47 1.472-5.792-1.799-5.703-8.811-2.038-12.843s9.483-6.491 13.359-10.394c8.818-8.88 4.57-22.875-5.693-30.685s-24.698-10.818-38.602-12.834c-44.911-6.513-91.004-5.655-136.454-2.345-131.098 9.551-261.7 36.724-377.009 87.807C8.543 541.378 1.615 544.65 0 545.419V600z" fill="#e0ebfe"/><path d="M799.835 600v-45.939c-46.528 12.225-106.192 26.678-155.839 34.346-50.022 7.726-102.349 9.253-150.12-7.475-62.626-21.93-113.336-73.685-178.529-86.053-33.575-6.369-68.206-1.617-101.808 4.605C137.798 513.509 71.42 533.542 0 562v38z" fill="#d9e021"/><path d="m800 392.369-26.45 40.993c-.19.233-.403.478-.575.737l-52.592 79.151c-2.865 4.323-2.06 10.855 2.265 13.141h.002c3.414 3.048 9.779 1.619 11.875-1.348l4.244-6.207c2.865-4.322 8.518-5.399 12.843-2.351h.002c4.326 2.286 5.87 8.532 3.005 12.855l-10.239 14.95c-1.933 3.228-.29 8.771 3.053 11.057h.002c3.478 2.286 9.742 1.422 11.932-1.9l9.858-14.138c2.865-4.323 8.61-5.298 12.937-2.25h.001c4.326 2.286 5.77 8.303 2.905 12.625l-21.021 31.653-.426.579c-2.28 3.578-.525 9.245 2.953 11.531h.002c4.326 3.048 10.206 1.685 13.07-2.637L800 560.257z" fill="#afccfc"/><path d="M62.81 598.538c-.112 0-.225-.006-.339-.019-1.011-.107-1.676-.821-1.694-1.82-.019-1.097.795-2.489 1.873-2.642.541-.073 1.265.162 1.586 1.057.314-.626.497-1.29.556-1.522 19.706-77.738 83.817-189.062 106.005-220.259l1.74 1.237c-22.122 31.102-86.039 142.08-105.675 219.545-.711 2.799-2.21 4.423-4.052 4.423zm.364-2.449a.874.874 0 0 0-.188.289c.464-.099.837-.528 1.122-1.026l-1.87.504a.694.694 0 0 0 .421.297c.25.066.454-.015.515-.064z" fill="#d9e021"/><path d="m96.105 598.878-2.103-.363c14.622-84.796 14.671-170.792.144-255.599l2.104-.36c14.568 85.047 14.519 171.287-.145 256.322zm574.222.352a5356.15 5356.15 0 0 0-70.951-123.052c-5.691-9.573-13.125-18.075-22.726-25.991l2.036-2.47c9.891 8.154 17.559 16.928 23.441 26.824a5348.942 5348.942 0 0 1 67.205 116.358l.428-.206 3.407 7.061zm24.211-8.276c-.459 0-.925-.138-1.35-.416-.881-.573-1.629-1.808-1.282-2.966.213-.709.785-1.211 1.516-1.363-13.375-29.873-34.104-56.285-54.152-81.827-2.135-2.72-4.269-5.439-6.392-8.159l2.524-1.97c2.121 2.718 4.253 5.434 6.386 8.152 20.219 25.761 41.127 52.399 54.66 82.728 1.309 2.934.488 4.485-.431 5.27a2.271 2.271 0 0 1-1.479.551zm-.635-3.384-.008 1.791c.329.027.737-.196.976-.632.223-.405.144-.774.091-.856-.119-.123-.649-.228-1.023.091a.012.012 0 0 1-.002.003c-.008.002.016-.117-.034-.397zm65.478-.221c-16.736-23.948-42.005-43.366-64.298-60.498-4.923-3.783-9.572-7.356-14.135-10.968l1.987-2.509c4.546 3.597 9.187 7.163 14.1 10.939 22.477 17.273 47.952 36.851 64.971 61.202z" fill="#d9e021"/><g opacity=".27"><g fill="none"><path d="m485.556 500.86-8.031-8.031v104.615h8.031zm88.737 96.584v-7.848l-9.573-9.573v17.421zm-35.495 0v-43.343l-9.573-9.572v52.915zm17.748 0v-25.595l-9.574-9.574v35.169zm-53.243 0v-78.837l-9.573-9.574v88.411zm17.748 0v-61.089l-9.574-9.574v70.663z"/></g><path d="m582.14 597.444-7.847-7.848v7.848zm-17.42 0v-17.421l-8.174-8.174v25.595zm-17.748 0v-35.169l-8.174-8.174v43.343zm-17.747 0v-52.915l-8.174-8.174v61.089zm-17.748 0v-70.663l-8.174-8.174v78.837zm-17.747 0v-88.411l-8.174-8.173v96.584z" fill="#d9e021"/></g><path d="M285.141 440.51a1.173 1.173 0 0 0-1.418-.857 1.173 1.173 0 0 0 .562 2.277 1.166 1.166 0 0 0 .856-1.42zm-72.644-95.712a1.198 1.198 0 0 0-.4-1.649 1.096 1.096 0 0 0-1.59.454 1.157 1.157 0 0 0 .341 1.595 1.214 1.214 0 0 0 1.649-.4zm33.674 50.84a1.305 1.305 0 0 0 .229-1.71 1.217 1.217 0 0 0-1.71-.229 1.217 1.217 0 0 0-.229 1.71 1.311 1.311 0 0 0 1.71.229zM395.392 348.6a2.281 2.281 0 0 0 .632-3.129 2.17 2.17 0 0 0-2.968-.753c-.037.023-.07.039-.1.065a2.281 2.281 0 0 0-.632 3.129 2.223 2.223 0 0 0 3.068.688zm-45.551 29.638a2.248 2.248 0 0 0 .586-3.135 2.25 2.25 0 0 0-3.086-.622 2.22 2.22 0 0 0-.687 3.068 2.408 2.408 0 0 0 3.187.689zm-45.655 29.643a2.21 2.21 0 0 0 .671-3.059l-.043-.062a2.17 2.17 0 0 0-2.968-.753c-.037.023-.07.039-.1.065a2.404 2.404 0 0 0-.688 3.188 2.287 2.287 0 0 0 3.128.621zm111.038 55.261a2.223 2.223 0 0 0-2.659-1.699 2.224 2.224 0 0 0-1.699 2.659 2.232 2.232 0 0 0 2.598 1.713 2.302 2.302 0 0 0 1.76-2.673zm-53.487 9.945a2.223 2.223 0 0 0-2.659-1.699 2.224 2.224 0 0 0-1.699 2.659 2.232 2.232 0 0 0 2.598 1.713 2.303 2.303 0 0 0 1.76-2.673zm-58.833-183.711a2.269 2.269 0 0 0-.626-3.129 2.196 2.196 0 0 0-3.059.546l-.014.018a2.156 2.156 0 0 0 .37 3.027l.142.107a2.394 2.394 0 0 0 3.187-.569zm-30.831 44.853a2.39 2.39 0 0 0-.564-3.184 2.275 2.275 0 0 0-3.129.626 2.234 2.234 0 0 0 .582 3.105l.033.024a2.193 2.193 0 0 0 3.054-.54l.024-.031zm-30.772 44.788a2.148 2.148 0 0 0-.475-3.005.424.424 0 0 0-.088-.056 2.233 2.233 0 0 0-3.122.47l-.067.089a2.26 2.26 0 0 0 .602 3.133 2.26 2.26 0 0 0 3.15-.631zm182.277 136.81a2.021 2.021 0 0 0-2.16-1.826 2.005 2.005 0 0 0-1.826 2.16 1.998 1.998 0 0 0 2.16 1.826 2.022 2.022 0 0 0 1.826-2.16zm-95.012-179.656a2.12 2.12 0 0 0-.283-2.902 1.94 1.94 0 0 0-2.733.219l-.053.071a1.986 1.986 0 0 0 .197 2.815l.033.024a2.098 2.098 0 0 0 2.839-.227zm-31.167 37.111a1.99 1.99 0 0 0-.28-2.788 1.94 1.94 0 0 0-2.733.219l-.053.071a2 2 0 0 0 .19 2.822l.033.024a2.067 2.067 0 0 0 2.843-.348zm-31.218 37.283a2 2 0 0 0-.19-2.822l-.033-.024a1.891 1.891 0 0 0-2.792.285 2 2 0 0 0 .19 2.822l.033.024a2.048 2.048 0 0 0 2.792-.285zM373.618 432.6a2.035 2.035 0 0 0 .797-2.732 1.981 1.981 0 0 0-2.671-.853 2.107 2.107 0 0 0-.914 2.726 2.087 2.087 0 0 0 2.788.859zm-43.096 22.414a1.926 1.926 0 0 0 .913-2.565c-.017-.032-.037-.069-.05-.107a1.981 1.981 0 0 0-2.671-.853 2.107 2.107 0 0 0-.914 2.726 2.02 2.02 0 0 0 2.722.799zm-97.388-144.105a1.904 1.904 0 0 0-1.186-2.412c-.042-.012-.078-.03-.114-.035a2.003 2.003 0 0 0-2.542 1.237c-.008.023-.017.048-.02.065a2.072 2.072 0 0 0 1.365 2.508 1.972 1.972 0 0 0 2.48-1.275c.004-.027.005-.058.017-.088zm-14.567 46.348a2.066 2.066 0 0 0-1.305-2.562 2.03 2.03 0 0 0-1.252 3.861 1.98 1.98 0 0 0 2.527-1.191.653.653 0 0 0 .03-.108zM465.312 485.56a2.407 2.407 0 0 0 .917-3.187 2.324 2.324 0 0 0-3.125-.972 2.379 2.379 0 0 0-.917 3.187 2.324 2.324 0 0 0 3.125.972zm-49.469 26.388c1.133-.597 1.563-1.996.972-3.125s-1.996-1.563-3.125-.972a2.317 2.317 0 0 0-.972 3.125 2.317 2.317 0 0 0 3.125.972zm-131.82-177.477a2.436 2.436 0 0 0-1.591-2.958 2.336 2.336 0 0 0-2.863 1.663 2.336 2.336 0 0 0 1.548 2.827 2.383 2.383 0 0 0 2.906-1.532zm-16.28 53.628a2.377 2.377 0 0 0-1.531-2.903 2.32 2.32 0 0 0-2.903 1.531 2.32 2.32 0 0 0 1.531 2.903 2.365 2.365 0 0 0 2.903-1.531zm108.285 26.751a2.471 2.471 0 0 0-.334-3.302 2.343 2.343 0 0 0-3.247.395 2.277 2.277 0 0 0 .248 3.216l.039.029c.994.821 2.466.67 3.294-.338-.005.006 0 0 0 0zm-35.608 43.362a2.35 2.35 0 0 0-.328-3.298l-.006-.005a2.257 2.257 0 0 0-3.181.334 2.301 2.301 0 0 0 .303 3.238c.956.815 2.392.685 3.212-.269zm70.457-27.107a2.302 2.302 0 0 0-3.522-2.961 2.301 2.301 0 0 0 .213 3.181 2.35 2.35 0 0 0 3.309-.22zm-37.195 41.657a2.345 2.345 0 0 0-.225-3.3 2.381 2.381 0 0 0-3.245.165 2.465 2.465 0 0 0 .164 3.356 2.404 2.404 0 0 0 3.306-.221zm-74.662-75.183a2.368 2.368 0 0 0-1.476-2.963 2.285 2.285 0 0 0-2.902 1.42 2.254 2.254 0 0 0 1.263 2.925c.031.014.06.026.097.032a2.308 2.308 0 0 0 2.987-1.347c.016-.018.023-.041.031-.067zM23.763 351.41a1.173 1.173 0 0 0-1.418-.857 1.173 1.173 0 0 0 .562 2.277 1.17 1.17 0 0 0 .856-1.42zm110.25-91.91a2.281 2.281 0 0 0 .632-3.129 2.17 2.17 0 0 0-2.968-.753c-.037.023-.07.039-.1.065a2.281 2.281 0 0 0-.632 3.129 2.221 2.221 0 0 0 3.068.688zm-45.551 29.639a2.248 2.248 0 0 0 .586-3.135 2.25 2.25 0 0 0-3.086-.622 2.22 2.22 0 0 0-.687 3.068 2.409 2.409 0 0 0 3.187.689zm-45.655 29.642a2.21 2.21 0 0 0 .671-3.059l-.043-.062a2.17 2.17 0 0 0-2.968-.753c-.037.023-.07.039-.1.065a2.404 2.404 0 0 0-.688 3.188 2.286 2.286 0 0 0 3.128.621zm111.038 55.263a2.223 2.223 0 0 0-2.659-1.699 2.224 2.224 0 0 0-1.699 2.659 2.232 2.232 0 0 0 2.598 1.713 2.303 2.303 0 0 0 1.76-2.673zm-53.487 9.944a2.223 2.223 0 0 0-2.659-1.699A2.225 2.225 0 0 0 96 384.948a2.232 2.232 0 0 0 2.598 1.713 2.303 2.303 0 0 0 1.76-2.673zM41.526 200.276a2.269 2.269 0 0 0-.626-3.129 2.196 2.196 0 0 0-3.059.546l-.014.018a2.156 2.156 0 0 0 .37 3.027l.142.107a2.394 2.394 0 0 0 3.187-.569zM10.695 245.13a2.39 2.39 0 0 0-.564-3.184 2.275 2.275 0 0 0-3.129.626 2.234 2.234 0 0 0 .582 3.105l.033.024a2.193 2.193 0 0 0 3.054-.54l.024-.031zM162.2 426.728a2.021 2.021 0 0 0-2.16-1.826c-1.096.091-1.914 1.058-1.827 2.16s1.058 1.914 2.16 1.826a2.025 2.025 0 0 0 1.827-2.16zM67.187 247.072a2.12 2.12 0 0 0-.283-2.902 1.94 1.94 0 0 0-2.733.219l-.053.071a1.986 1.986 0 0 0 .197 2.815l.033.024a2.1 2.1 0 0 0 2.839-.227zm-31.168 37.111a1.99 1.99 0 0 0-.28-2.788 1.94 1.94 0 0 0-2.733.219l-.053.071a2 2 0 0 0 .19 2.822l.033.024a2.067 2.067 0 0 0 2.843-.348zM4.802 321.466a2 2 0 0 0-.19-2.822l-.033-.024a1.891 1.891 0 0 0-2.792.285 2 2 0 0 0 .19 2.822l.033.024a2.05 2.05 0 0 0 2.792-.285zm107.436 22.035a2.035 2.035 0 0 0 .797-2.732 1.981 1.981 0 0 0-2.671-.853 2.107 2.107 0 0 0-.914 2.726 2.087 2.087 0 0 0 2.788.859zm-43.095 22.414a1.926 1.926 0 0 0 .913-2.565c-.017-.032-.037-.069-.05-.107a1.981 1.981 0 0 0-2.671-.853 2.107 2.107 0 0 0-.914 2.726 2.02 2.02 0 0 0 2.722.799zm134.79 30.546a2.407 2.407 0 0 0 .917-3.187 2.324 2.324 0 0 0-3.125-.972 2.379 2.379 0 0 0-.917 3.187 2.325 2.325 0 0 0 3.125.972zm-49.469 26.387c1.133-.597 1.563-1.996.972-3.125s-1.996-1.563-3.125-.972a2.317 2.317 0 0 0-.972 3.125 2.316 2.316 0 0 0 3.125.972zM22.645 245.371a2.436 2.436 0 0 0-1.591-2.958 2.336 2.336 0 0 0-2.863 1.663 2.336 2.336 0 0 0 1.548 2.827 2.382 2.382 0 0 0 2.906-1.532zM6.364 299a2.377 2.377 0 0 0-1.531-2.903 2.32 2.32 0 0 0-2.903 1.531 2.32 2.32 0 0 0 1.531 2.903A2.366 2.366 0 0 0 6.364 299zm108.285 26.751a2.471 2.471 0 0 0-.334-3.302 2.342 2.342 0 0 0-3.247.396 2.277 2.277 0 0 0 .248 3.216l.039.029c.995.82 2.466.668 3.294-.339-.004.006 0 0 0 0zm-35.608 43.362a2.35 2.35 0 0 0-.328-3.298l-.006-.005a2.257 2.257 0 0 0-3.181.334 2.302 2.302 0 0 0 .303 3.238c.956.815 2.393.685 3.212-.269zm70.457-27.107a2.302 2.302 0 0 0-3.522-2.961 2.301 2.301 0 0 0 .213 3.181 2.35 2.35 0 0 0 3.309-.22zm-37.195 41.657a2.345 2.345 0 0 0-.225-3.3 2.381 2.381 0 0 0-3.245.165 2.465 2.465 0 0 0 .164 3.356 2.405 2.405 0 0 0 3.306-.221zm-74.662-75.184a2.368 2.368 0 0 0-1.476-2.963 2.285 2.285 0 0 0-2.902 1.42 2.254 2.254 0 0 0 1.263 2.925c.031.014.06.026.097.032a2.308 2.308 0 0 0 2.987-1.347.154.154 0 0 0 .031-.067z" fill="#a1c3fc"/><g opacity=".26"><g fill="none"><path d="M211.716 598.511V464.99l-16.214-16.215v149.736zm30.058 0V495.047l-16.215-16.214v119.678zm60.115 0v-43.348l-16.214-16.215v59.563zM181.658 434.932l-13.601-13.601v177.18h13.601zm150.289 163.579V585.22l-16.214-16.213v29.504zm-60.116 0v-73.406l-16.214-16.214v89.62z"/></g><path d="m345.238 598.511-13.291-13.291v13.291zm-29.505 0v-29.504l-13.844-13.844v43.348zm-30.058 0v-59.563l-13.844-13.843v73.406zm-30.058 0v-89.62l-13.843-13.844v103.464zm-30.058 0V478.833l-13.843-13.843v133.521zm-30.057 0V448.775l-13.844-13.843v163.579z" fill="#fff"/></g><g opacity=".26"><g fill="none"><path d="m321.211 526.942 60.03 60.03 6.501-6.5-53.53-53.53zm72.302 0 23.879 23.879 6.501-6.501-17.379-17.378zm-24.1 0 35.929 35.929 6.501-6.5-29.43-29.429zm-70.207 0 71.033 71.033 5.453-5.452-65.581-65.581zm118.408 0 11.829 11.829 6.5-6.501-5.328-5.328zm-72.302 0 47.979 47.98 6.501-6.5-41.479-41.48z"/></g><path d="m435.943 532.27 5.329-5.328h-10.657zm-29.429-5.328 17.379 17.378 5.55-5.549-11.829-11.829zm-24.101 0 29.43 29.429 5.549-5.55-23.879-23.879zm-24.1 0 41.479 41.48 5.55-5.551-35.929-35.929zm-24.101 0 53.53 53.53 5.549-5.55-47.979-47.98zm-24.101 0 65.581 65.581 5.549-5.551-60.03-60.03z" fill="#fff"/></g><g fill="#d9e021"><path d="m66.916 375.481-14.734-10.134c2.931 3.968 8.072 7.454 14.734 10.134zm-17.268-15.663 27.36 18.82c1.293.306 2.618.586 3.972.84l-31.54-21.696c.007.686.078 1.365.208 2.036zm.294-5.477 38.052 26.175c1.052.117 2.115.217 3.191.302l-40.68-27.983c-.222.497-.409.999-.563 1.506zm2.138-4.208 45.048 30.987c.817.018 1.638.028 2.465.028l.325-.002-46.866-32.238a18.61 18.61 0 0 0-.972 1.225zm3.209-3.472 49.922 34.34c.846-.044 1.685-.098 2.517-.162l-51.191-35.213c-.435.34-.851.685-1.248 1.035zm3.972-2.946 53.27 36.643a94.837 94.837 0 0 0 2.296-.314l-54.098-37.213c-.503.29-.993.584-1.468.884zm4.598-2.516 55.363 38.082a90.63 90.63 0 0 0 2.104-.446l-55.808-38.389c-.565.246-1.118.497-1.659.753zm5.152-2.135 56.339 38.754a74.06 74.06 0 0 0 1.925-.569l-56.43-38.817a76.97 76.97 0 0 0-1.834.632zm5.676-1.774 56.265 38.703a60.256 60.256 0 0 0 1.751-.688l-56.006-38.526c-.68.163-1.35.334-2.01.511zm6.208-1.408 55.131 37.923c.536-.265 1.06-.536 1.57-.813l-54.508-37.495a94.21 94.21 0 0 0-2.193.385zm6.776-1.018 52.869 36.368a33.91 33.91 0 0 0 1.368-.952l-51.841-35.66c-.805.072-1.604.154-2.396.244zm7.421-.574 49.321 33.926c.395-.367.77-.741 1.125-1.119l-47.807-32.885c-.886.016-1.765.042-2.639.078zm8.21-.031 44.189 30.397c.294-.443.558-.892.796-1.345l-42.026-28.908c-.977-.062-1.963-.11-2.959-.144zm9.33.739 36.798 25.313c.134-.562.226-1.131.274-1.705l-33.59-23.106a96.51 96.51 0 0 0-3.482-.502zm16.276 3.624a72.085 72.085 0 0 0-4.861-1.45l25.255 17.373a13.103 13.103 0 0 0-1.081-2.637z" opacity=".45"/></g><path d="m512.03 498.682-22.935-15.776c4.564 6.176 12.565 11.602 22.935 15.776zm-26.879-24.383 42.591 29.297c2.013.476 4.076.913 6.184 1.307l-49.098-33.773a17.63 17.63 0 0 0 .323 3.169zm.458-8.525 59.234 40.746c1.636.181 3.293.338 4.967.47l-63.325-43.56a19.612 19.612 0 0 0-.876 2.344zm3.327-6.551 70.124 48.236c1.272.029 2.55.044 3.837.044l.507-.003-72.955-50.184a29.164 29.164 0 0 0-1.513 1.907zm4.995-5.405 77.712 53.456a164.59 164.59 0 0 0 3.918-.251l-79.687-54.815a42.373 42.373 0 0 0-1.943 1.61zm6.184-4.586 82.923 57.041c1.203-.15 2.394-.312 3.574-.488L502.4 447.858a61.37 61.37 0 0 0-2.285 1.374zm7.158-3.916 86.181 59.281a131.9 131.9 0 0 0 3.274-.694l-86.874-59.758c-.879.381-1.74.772-2.581 1.171zm8.019-3.323 87.701 60.327c1.014-.285 2.012-.58 2.996-.885l-87.842-60.424c-.968.316-1.92.645-2.855.982zm8.835-2.763 87.585 60.248a93.805 93.805 0 0 0 2.726-1.071l-87.183-59.971c-1.057.253-2.099.519-3.128.794zm9.665-2.191 85.82 59.033a69.783 69.783 0 0 0 2.444-1.266l-84.851-58.366c-1.15.187-2.287.387-3.413.599zm10.548-1.585 82.299 56.611c.735-.485 1.445-.98 2.129-1.482l-80.697-55.51c-1.256.114-2.499.24-3.731.381zm11.551-.894 76.775 52.812a35.564 35.564 0 0 0 1.751-1.742l-74.418-51.191c-1.377.024-2.747.065-4.108.121zm12.781-.048 68.787 47.317c.458-.689.868-1.388 1.24-2.094l-65.42-45.001a167.837 167.837 0 0 0-4.607-.222zm14.524 1.151 57.283 39.403c.21-.876.352-1.76.427-2.653l-52.289-35.968c-1.78-.291-3.587-.552-5.421-.782zm25.337 5.642a113.855 113.855 0 0 0-7.566-2.258l39.314 27.043a20.414 20.414 0 0 0-1.682-4.104z" fill="#fff" opacity=".45"/><path d="m112.829 444.819 27.624 19.002a47.79 47.79 0 0 0 2.244-.389l-28.27-19.446a22.53 22.53 0 0 0-1.598.833zm-5.766 7.578.002.056 16.105 11.079c1.154.216 2.351.394 3.581.53l-19.431-13.366a5.855 5.855 0 0 0-.257 1.701zm8.21-8.796 28.498 19.603a40.013 40.013 0 0 0 2.055-.52l-28.769-19.79c-.617.224-1.212.46-1.784.707zm-6.809 12.715 7.523 5.175a36.227 36.227 0 0 0 5.154 1.612l-13.971-9.61c.19.98.631 1.925 1.294 2.823zm-.856-6.389 20.773 14.289c.994.078 2.006.131 3.034.154l-23.003-15.824c-.325.449-.593.91-.804 1.381zm3.08-3.681 26.14 17.981c.832-.063 1.65-.146 2.453-.246l-27.202-18.711a16.8 16.8 0 0 0-1.391.976zm-1.78 1.676 23.932 16.462a55.777 55.777 0 0 0 2.702-.074l-25.492-17.536c-.421.372-.803.754-1.142 1.148zm12.073-6.194L149.58 461.4a26.403 26.403 0 0 0 1.697-.766l-28.152-19.365c-.731.138-1.446.292-2.144.459zm3.265-.654 27.834 19.146c.53-.288 1.033-.588 1.503-.899l-26.997-18.57c-.795.09-1.576.198-2.34.323zm16.864.001 17.152 11.799c.013-.159.022-.317.022-.477 0-.542-.078-1.074-.227-1.597l-12.897-8.871a43.704 43.704 0 0 0-4.05-.854zm-13.3-.449 26.472 18.209c.463-.34.89-.691 1.279-1.053l-25.185-17.324a50.4 50.4 0 0 0-2.566.168zm4.863-.218c-.319 0-.635.004-.95.009l24.412 16.792c.379-.405.714-.821.997-1.247l-22.565-15.522a59.116 59.116 0 0 0-1.894-.032zm14.971 2.261 9.862 6.784c-1.494-2.771-5.051-5.158-9.862-6.784zm-29.65-.096 28.815 19.822a34.385 34.385 0 0 0 1.878-.642l-28.731-19.763c-.674.179-1.328.375-1.962.583zm18.086-2.059 21.46 14.762c.263-.499.459-1.01.584-1.532l-18.791-12.926a52.962 52.962 0 0 0-3.253-.304z" fill="none"/><path d="m115.987 461.491-7.523-5.175c1.497 2.026 4.122 3.806 7.523 5.175zm-8.817-7.998 13.971 9.61c.661.156 1.337.299 2.028.429l-16.105-11.079c.003.35.04.697.106 1.04zm.15-2.797 19.431 13.366a52.32 52.32 0 0 0 1.629.154l-20.773-14.289a6.62 6.62 0 0 0-.287.769zm1.092-2.149 23.003 15.965c.417.009.837.156 1.259.156h.166l-23.932-16.605c-.177.207-.343.272-.496.484zm1.638-1.773 25.492 17.536c.432-.023.86-.05 1.285-.082l-26.14-17.981a13.51 13.51 0 0 0-.637.527zm2.029-1.504 27.202 18.712c.395-.05.786-.103 1.172-.16l-27.624-19.002c-.258.147-.508.297-.75.45zm2.348-1.285 28.27 19.446c.362-.072.721-.148 1.074-.228L115.273 443.6c-.288.126-.57.254-.846.385zm2.631-1.09 28.769 19.79c.333-.094.66-.19.983-.29l-28.815-19.822c-.318.104-.631.211-.937.322zm2.898-.906 28.731 19.763c.304-.114.602-.231.895-.351l-28.599-19.672c-.347.082-.69.169-1.027.26zm3.17-.719 28.152 19.365c.274-.136.541-.274.802-.415l-27.834-19.146c-.377.061-.751.126-1.12.196zm3.46-.52 26.997 18.57c.241-.159.474-.322.699-.486l-26.472-18.209c-.412.037-.819.079-1.224.125zm3.789-.293 25.185 17.324c.202-.187.393-.378.575-.572l-24.412-16.792c-.452.008-.901.021-1.348.04zm4.193-.016 22.565 15.522c.15-.226.285-.455.407-.687l-21.46-14.762c-.5-.031-1.004-.055-1.512-.073zm4.765.377 18.791 12.926c.069-.287.116-.578.14-.87l-17.152-11.799a51.062 51.062 0 0 0-1.779-.257zm8.311 1.851a37.404 37.404 0 0 0-2.482-.741l12.897 8.871a6.685 6.685 0 0 0-.552-1.346z" fill="#a1c3fc" opacity=".45"/><path d="M635.42 536.669c-4.276 0-7.755-3.478-7.755-7.755s3.479-7.756 7.755-7.756c4.277 0 7.756 3.479 7.756 7.756-.002 4.277-3.48 7.755-7.756 7.755zm0-14.442c-3.687 0-6.687 3-6.687 6.688 0 3.687 3 6.687 6.687 6.687 3.688 0 6.688-3 6.688-6.687s-3-6.688-6.688-6.688z" fill="#fff"/><path d="M635.42 541.21c-6.779 0-12.295-5.516-12.295-12.295 0-6.78 5.516-12.296 12.295-12.296 6.78 0 12.296 5.516 12.296 12.296-.001 6.779-5.517 12.295-12.296 12.295zm0-23.524c-6.191 0-11.228 5.038-11.228 11.229s5.037 11.228 11.228 11.228 11.229-5.037 11.229-11.228c-.001-6.192-5.038-11.229-11.229-11.229z" fill="#fff"/><path d="M635.42 546.318c-9.596 0-17.403-7.807-17.403-17.403 0-9.597 7.807-17.405 17.403-17.405s17.405 7.807 17.405 17.405c-.001 9.596-7.809 17.403-17.405 17.403zm0-33.741c-9.008 0-16.336 7.329-16.336 16.337s7.328 16.336 16.336 16.336 16.337-7.328 16.337-16.336-7.33-16.337-16.337-16.337z" fill="#fff"/><path d="M635.42 551.994c-12.726 0-23.08-10.353-23.08-23.078 0-12.726 10.353-23.08 23.08-23.08s23.08 10.353 23.08 23.08c-.001 12.725-10.354 23.078-23.08 23.078zm0-45.092c-12.138 0-22.012 9.875-22.012 22.012 0 12.138 9.875 22.012 22.012 22.012s22.012-9.874 22.012-22.012c0-12.136-9.875-22.012-22.012-22.012z" fill="#fff"/><path d="M635.42 557.102c-15.542 0-28.188-12.645-28.188-28.188s12.645-28.188 28.188-28.188 28.188 12.645 28.188 28.188c-.001 15.543-12.645 28.188-28.188 28.188zm0-55.308c-14.954 0-27.12 12.167-27.12 27.121s12.166 27.12 27.12 27.12 27.121-12.166 27.121-27.12-12.167-27.121-27.121-27.121z" fill="#fff"/><g opacity=".31"><g fill="none"><path d="M764.666 440.493h35.169v-9.574H774.24zm-35.494 35.494h70.663v-9.573h-61.09zm53.242-53.242h17.421v-9.573h-7.847zm-87.194 87.194h104.615v-8.03h-96.584zm16.205-16.204h88.41v-9.574h-78.837zm35.494-35.495h52.916v-9.573h-43.342z"/></g><path d="M799.835 413.172v-7.848l-7.847 7.848zm-25.595 17.747h25.595v-8.174h-17.421zm-17.747 17.748h43.342v-8.174h-35.169zm-17.748 17.747h61.09v-8.174h-52.916zm-17.747 17.747h78.837v-8.174h-70.663zm-17.747 17.748h96.584v-8.174h-88.41z" fill="#428dfc"/></g><path d="M117.632 574.156a.348.348 0 1 0-.333.61.348.348 0 0 0 .333-.61zm-35.498-3.313a.355.355 0 0 0-.44-.243.325.325 0 0 0-.22.438.342.342 0 0 0 .417.245.36.36 0 0 0 .243-.44zm17.871 2.835a.388.388 0 0 0-.328-.393.362.362 0 1 0-.065.721.391.391 0 0 0 .393-.328zm19.644-42.064a.677.677 0 0 0-.558-.766.644.644 0 0 0-.76.498c-.002.013-.005.023-.006.035a.677.677 0 0 0 .558.766.66.66 0 0 0 .766-.533zm-2.656 15.905a.667.667 0 0 0-.568-.757.668.668 0 0 0-.755.55.66.66 0 0 0 .533.766.714.714 0 0 0 .79-.559zm-2.675 15.928a.655.655 0 0 0-.534-.76l-.022-.003a.644.644 0 0 0-.76.498c-.002.013-.005.023-.006.035a.714.714 0 0 0 .559.79.679.679 0 0 0 .763-.56zm34.354-13.195a.66.66 0 0 0-.905.241.66.66 0 0 0 1.136.68.682.682 0 0 0-.231-.921zm-8.553 13.69a.66.66 0 0 0-.905.241.662.662 0 0 0 1.136.681.683.683 0 0 0-.231-.922zm-51.97-23.983a.674.674 0 0 0-.81-.491.653.653 0 0 0-.494.779l.002.007a.64.64 0 0 0 .736.527l.052-.01a.713.713 0 0 0 .514-.812zm3.623 15.738a.708.708 0 0 0-.809-.515.676.676 0 0 0-.491.81c.083.357.44.579.796.495l.012-.002a.652.652 0 0 0 .495-.776l-.003-.012zm3.622 15.712a.637.637 0 0 0-.753-.499c-.01.002-.021.004-.03.008a.663.663 0 0 0-.523.777l.006.033a.67.67 0 0 0 .805.497.67.67 0 0 0 .497-.805l-.002-.011zm66.474-12.417a.6.6 0 0 0-.833.106.594.594 0 0 0 .939.727.6.6 0 0 0-.106-.833zm-58.34-15.258a.628.628 0 0 0-.691-.52.576.576 0 0 0-.5.642l.005.026a.59.59 0 0 0 .655.522l.012-.002a.626.626 0 0 0 .519-.668zm1.863 14.258a.59.59 0 0 0-.666-.498.576.576 0 0 0-.5.642l.005.026c.036.326.33.56.655.524l.012-.002a.614.614 0 0 0 .494-.692zm1.891 14.304a.593.593 0 0 0-.655-.524l-.012.002a.561.561 0 0 0-.498.667c.036.326.33.56.655.524l.012-.002a.607.607 0 0 0 .498-.667zm26.367-19.072a.604.604 0 0 0-.437-.722.587.587 0 0 0-.722.413.626.626 0 0 0 .413.747.621.621 0 0 0 .746-.438zm-3.742 13.919a.571.571 0 0 0-.378-.714c-.011-.003-.023-.005-.034-.011a.587.587 0 0 0-.722.413.626.626 0 0 0 .413.747.601.601 0 0 0 .721-.435zm-51.044-7.609a.564.564 0 0 0-.765-.225c-.011.007-.022.011-.03.018a.593.593 0 0 0-.239.804l.01.018a.614.614 0 0 0 .822.205.586.586 0 0 0 .219-.798c-.006-.007-.013-.013-.017-.022zm7.212 12.481a.614.614 0 0 0-.822-.229.603.603 0 0 0 .593 1.048.587.587 0 0 0 .229-.819zm77.545-28.219a.714.714 0 0 0-.513-.84.69.69 0 0 0-.839.488.706.706 0 0 0 .513.84.69.69 0 0 0 .839-.488zm-4.151 16.11a.687.687 0 1 0-1.33-.35.687.687 0 0 0 1.33.35zm-65.247-6.774a.723.723 0 0 0-.966-.245.694.694 0 0 0 .718 1.188.707.707 0 0 0 .248-.943zm8.461 14.316a.706.706 0 0 0-.942-.248.689.689 0 0 0 .694 1.19.702.702 0 0 0 .248-.942zm27.568-18.312a.733.733 0 0 0-.789-.589.695.695 0 0 0-.565.789c.044.37.38.636.753.591l.014-.002a.694.694 0 0 0 .587-.789c.001.003 0 0 0 0zm2.34 16.484a.698.698 0 0 0-.787-.59l-.002.001a.67.67 0 0 0-.565.763.684.684 0 0 0 1.354-.174zm8.205-20.843a.683.683 0 0 0-1.353.176.682.682 0 0 0 .738.591.698.698 0 0 0 .615-.767zm1.648 16.488a.696.696 0 0 0-.767-.613.707.707 0 0 0-.615.743c.05.382.385.659.767.637a.714.714 0 0 0 .615-.767zm-31.415 1.246a.704.704 0 0 0-.944-.272.678.678 0 0 0-.271.92.668.668 0 0 0 .92.296.686.686 0 0 0 .295-.944zm638.862 31.008a.348.348 0 1 1 .333.609.348.348 0 0 1-.333-.609zm35.499-3.313a.355.355 0 0 1 .44-.243.326.326 0 0 1 .22.439.343.343 0 0 1-.417.245.36.36 0 0 1-.243-.441zm-17.871 2.835a.388.388 0 0 1 .328-.393.362.362 0 1 1 .065.721.39.39 0 0 1-.393-.328zm-19.644-42.064a.677.677 0 0 1 .558-.766.644.644 0 0 1 .76.498c.002.013.005.023.006.035a.677.677 0 0 1-.558.766.66.66 0 0 1-.766-.533zm2.656 15.905a.667.667 0 0 1 .568-.757.667.667 0 0 1 .755.55.66.66 0 0 1-.533.766.714.714 0 0 1-.79-.559zm2.675 15.928a.654.654 0 0 1 .534-.76l.022-.003a.644.644 0 0 1 .76.498c.002.013.005.023.006.035a.714.714 0 0 1-.559.79.68.68 0 0 1-.763-.56zm-34.354-13.195a.66.66 0 0 1 .905.241.66.66 0 0 1-1.136.68.682.682 0 0 1 .231-.921zm8.553 13.69a.66.66 0 0 1 .905.241.662.662 0 0 1-1.136.681.685.685 0 0 1 .231-.922zm51.971-23.983a.673.673 0 0 1 .81-.491.652.652 0 0 1 .494.779l-.001.007a.64.64 0 0 1-.736.527l-.052-.01a.71.71 0 0 1-.515-.812zm-3.624 15.738a.708.708 0 0 1 .809-.515.676.676 0 0 1 .491.81.662.662 0 0 1-.796.495l-.012-.002a.652.652 0 0 1-.495-.776l.003-.012zm-3.621 15.712a.637.637 0 0 1 .753-.499c.01.002.021.004.03.008a.663.663 0 0 1 .523.777l-.006.033a.67.67 0 0 1-.805.497.67.67 0 0 1-.495-.816zm-66.475-12.417a.6.6 0 0 1 .833.106.594.594 0 0 1-.939.727.601.601 0 0 1 .106-.833zm58.34-15.258a.628.628 0 0 1 .691-.52c.315.04.539.326.5.642l-.005.026a.59.59 0 0 1-.655.522l-.012-.002a.627.627 0 0 1-.519-.668zm-1.863 14.258a.59.59 0 0 1 .666-.498c.315.04.539.326.5.642l-.005.026a.593.593 0 0 1-.655.524l-.012-.002a.614.614 0 0 1-.494-.692zm-1.891 14.304a.593.593 0 0 1 .655-.524l.012.002a.562.562 0 0 1 .498.667.593.593 0 0 1-.655.524l-.012-.002a.606.606 0 0 1-.498-.667zm-26.367-19.072a.604.604 0 0 1 .437-.722.587.587 0 0 1 .722.413.626.626 0 0 1-.413.747.62.62 0 0 1-.746-.438zm3.743 13.919a.571.571 0 0 1 .378-.714c.011-.003.023-.006.034-.011a.587.587 0 0 1 .722.413.626.626 0 0 1-.413.747.6.6 0 0 1-.721-.435zm51.043-7.609a.564.564 0 0 1 .765-.225c.011.007.022.011.03.018a.593.593 0 0 1 .239.804l-.01.018a.613.613 0 0 1-.822.204.586.586 0 0 1-.219-.798c.006-.006.013-.012.017-.021zm-7.212 12.481a.613.613 0 0 1 .821-.229.603.603 0 0 1-.593 1.048.587.587 0 0 1-.228-.819zm-77.545-28.219a.714.714 0 0 1 .513-.84.69.69 0 0 1 .839.488.706.706 0 0 1-.513.84.689.689 0 0 1-.839-.488zm4.152 16.109a.687.687 0 1 1 1.33-.35.687.687 0 0 1-1.33.35zm65.246-6.773a.723.723 0 0 1 .966-.245.695.695 0 0 1-.719 1.188.708.708 0 0 1-.247-.943zm-8.461 14.316a.706.706 0 0 1 .942-.248.689.689 0 0 1-.694 1.19.702.702 0 0 1-.248-.942zm-27.568-18.312a.733.733 0 0 1 .789-.589.695.695 0 0 1 .565.789.676.676 0 0 1-.753.591l-.014-.002a.694.694 0 0 1-.587-.789zm-2.339 16.484a.698.698 0 0 1 .787-.59l.002.001a.67.67 0 0 1 .565.763.684.684 0 0 1-1.354-.174zm-8.206-20.843a.683.683 0 0 1 1.353.176.682.682 0 0 1-.738.591.697.697 0 0 1-.615-.767zm-1.648 16.488a.696.696 0 0 1 .767-.613.707.707 0 0 1 .615.743.731.731 0 0 1-.767.637.714.714 0 0 1-.615-.767zm31.415 1.246a.704.704 0 0 1 .944-.272c.328.18.451.591.271.92a.669.669 0 0 1-.92.296.686.686 0 0 1-.305-.924c.002-.007.006-.013.01-.02z" fill="#fff"/></svg></g><g transform="translate(258.0 639.0) rotate(0.0 132.0 232.0) scale(1.1156940969639597 1.1138851545995774)"><svg width="236.624" height="416.56" viewBox="0 0 236.624 416.56"><linearGradient id="a" gradientTransform="matrix(1 0 0 -1 0 416)" gradientUnits="userSpaceOnUse" x1="0" x2="236.624" y1="225.714" y2="225.714"><stop offset="0" stop-color="#23286b"/><stop offset="1" stop-color="#151a4f"/></linearGradient><path d="M51.695 412.192a3.5 3.5 0 0 1-3.467-4.008l30.22-206.044c.28-1.913 2.068-3.243 3.971-2.955a3.5 3.5 0 0 1 2.955 3.971L55.154 409.2a3.5 3.5 0 0 1-3.459 2.992zm132.43 4.368a3.5 3.5 0 0 1-3.459-2.992l-30.22-206.044a3.5 3.5 0 0 1 6.926-1.016l30.22 206.044a3.5 3.5 0 0 1-3.467 4.008z" fill="#23286b"/><path d="M0 140.835c10.051 56.224 59.197 98.901 118.312 98.901s108.261-42.677 118.312-98.901z" fill="url(#a)"/><circle cx="51.691" cy="405.571" fill="#23286b" r="10.989"/><path d="M101.218 116.495a3.5 3.5 0 0 1-3.229-2.147c-10.392-24.778-5.634-41.019-1.032-56.723 4.28-14.61 8.706-29.719.939-53.019a3.5 3.5 0 0 1 6.641-2.213c8.46 25.378 3.721 41.555-.863 57.199-4.453 15.201-8.66 29.561.771 52.048a3.5 3.5 0 0 1-3.227 4.855zm23.811 0a3.5 3.5 0 0 1-3.229-2.147c-7.913-18.87-4.301-31.201-.808-43.126 3.318-11.327 6.453-22.025.715-39.241a3.5 3.5 0 0 1 6.641-2.213c6.432 19.294 2.676 32.112-.638 43.422-3.438 11.736-6.407 21.872.545 38.451a3.5 3.5 0 0 1-3.226 4.854z" fill="#eee"/><path d="M186.163 156.002a.319.319 0 1 0 .23-.594.319.319 0 0 0-.23.594zm2.762-7.294a.352.352 0 0 0 .434-.187.324.324 0 0 0-.202-.408.302.302 0 0 0-.4.147c-.006.01-.009.022-.013.036a.318.318 0 0 0 .181.412zm29.855 6.14a.325.325 0 0 0 .428.17.298.298 0 0 0 .148-.425.315.315 0 0 0-.407-.175.326.326 0 0 0-.169.43zm-44.23-11.103a.315.315 0 0 0 .442-.009.316.316 0 0 0-.009-.443.312.312 0 0 0-.442.009.297.297 0 0 0 .009.443zm27.675 10.623a.354.354 0 0 0 .344.318.332.332 0 0 0-.026-.663.358.358 0 0 0-.318.345zm-.23-7.8a.32.32 0 0 0 .339.298.31.31 0 0 0 .322-.295v-.027a.34.34 0 0 0-.344-.318.352.352 0 0 0-.317.342zm-58.203 12.759a.604.604 0 0 0 .854.041c.005-.003.009-.01.016-.014a.602.602 0 0 0 .036-.846s-.003-.001-.003-.003a.604.604 0 0 0-.854-.041c-.005.003-.009.01-.016.014a.602.602 0 0 0-.036.846v.003zm10.82-10.06a.617.617 0 1 0 .908-.835s-.003-.005-.008-.008a.598.598 0 0 0-.844-.035l-.001.003a.635.635 0 0 0-.055.875zm34.704 45.655a.619.619 0 0 0 .595.63.59.59 0 0 0 .632-.542c.001-.012.003-.022.001-.033a.62.62 0 0 0-.597-.63.605.605 0 0 0-.631.575zm1.113-29.572a.602.602 0 0 0 .575.629s.014.001.02-.001a.59.59 0 0 0 .632-.542c.001-.012.003-.022.001-.033 0-.34-.26-.624-.599-.653a.624.624 0 0 0-.629.6zm.547-14.775a.612.612 0 1 0 1.224.034.606.606 0 0 0-.573-.635.616.616 0 0 0-.65.576l-.001.025zm-30.189 30.808a.607.607 0 1 0-.316-.81.623.623 0 0 0 .316.81zm6.162-13.452a.607.607 0 1 0-.316-.81.623.623 0 0 0 .316.81zm6.166-13.434a.623.623 0 0 0 .514-1.134.622.622 0 0 0-.546 1.119.102.102 0 0 0 .032.015zm43.817 29.141a.617.617 0 0 0 .794.352.598.598 0 0 0 .358-.765l-.002-.005a.587.587 0 0 0-.73-.393l-.046.015a.654.654 0 0 0-.374.796zm-10.256-27.75a.585.585 0 0 0 .768.355.607.607 0 0 0 .384-.768c-.003-.011-.005-.02-.009-.029a.614.614 0 0 0-1.147.435.027.027 0 0 1 .004.007zm-58.89 19.098a.55.55 0 0 0 .744-.194.542.542 0 1 0-.937-.551.549.549 0 0 0 .193.745zm6.619-11.423a.55.55 0 0 0 .744-.194.542.542 0 1 0-.919-.579c-.007.009-.011.02-.018.029a.535.535 0 0 0 .174.733c.005.003.013.005.019.011zm6.389-11.741c.025.134.11.25.233.316a.55.55 0 0 0 .744-.194.558.558 0 0 0-.192-.764l-.005-.003a.55.55 0 0 0-.515-.023l-.022.004a.374.374 0 0 0-.206.214.46.46 0 0 0-.037.45zm41.737 30.188c.09.294.391.464.688.392a.53.53 0 0 0 .379-.643l-.007-.023a.54.54 0 0 0-.66-.396.573.573 0 0 0-.4.67zm-6.752-25.532a.544.544 0 0 0 .657.401l.011-.003a.513.513 0 0 0 .372-.664.544.544 0 0 0-.657-.401l-.011.003a.555.555 0 0 0-.372.664zm-3.383-12.742a.549.549 0 0 0 1.058-.295.573.573 0 0 0-.666-.397.581.581 0 0 0-.392.692zm-18.318 33.181a.554.554 0 0 0 .481.605.537.537 0 0 0 .606-.46.574.574 0 0 0-.462-.631.567.567 0 0 0-.625.486zm1.765-13.096a.525.525 0 0 0 .427.606c.009.001.022.002.031.005a.537.537 0 0 0 .606-.46.574.574 0 0 0-.462-.631.55.55 0 0 0-.602.48zm1.746-13.091a.54.54 0 1 0 .612-.467.54.54 0 0 0-.614.455c.002.004.002.007.002.012zm37.472 3.513a.56.56 0 0 0 .773.11.554.554 0 0 0-.663-.885.542.542 0 0 0-.132.749c.01.01.016.02.022.026zm-36.57-1.737a.32.32 0 1 0 .637-.041.32.32 0 0 0-.637.041zm-.534-7.772a.337.337 0 0 0 .362.293.32.32 0 0 0 .298-.339.306.306 0 0 0-.315-.298c-.009.001-.015 0-.025.002a.332.332 0 0 0-.32.335v.007zm-14.765 1.811a.346.346 0 0 0 .408-.203.316.316 0 0 0-.188-.404c-.005-.003-.011-.003-.017-.006a.307.307 0 0 0-.398.174l-.009.028a.327.327 0 0 0 .204.411zm29.533-1.933c.077.16.265.225.424.148a.316.316 0 0 0 .147-.426.297.297 0 0 0-.424-.149.314.314 0 0 0-.153.415c.001.006.004.008.006.012zm-50.443 5.538c.165.1.383.046.483-.12.001-.003.004-.005.007-.009a.36.36 0 0 0-.106-.496l-.025-.015a.353.353 0 0 0-.483.12c-.001.003-.004.005-.007.009a.38.38 0 0 0 .131.511zm36.82 5.139a.342.342 0 0 0 .443.256.364.364 0 0 0 .257-.443.4.4 0 0 0-.448-.278.371.371 0 0 0-.252.465c-.002-.004-.002-.004 0 0zm-2.209-8.614a.37.37 0 0 0 .464.253l.001-.001a.364.364 0 0 0 .257-.443.4.4 0 0 0-.448-.278.403.403 0 0 0-.274.469zm-16.099 5.147a.451.451 0 0 0 .144.063.36.36 0 0 0 .41-.303l.003-.012a.375.375 0 0 0-.292-.416l-.022.004a.36.36 0 0 0-.413.315.332.332 0 0 0 .17.349zm32.892-8.197c.12.162.349.195.51.074.003-.003.008-.005.008-.008a.358.358 0 0 0 .069-.501.35.35 0 0 0-.484-.105l-.021.013a.383.383 0 0 0-.082.527zm-45.712 45.387a.655.655 0 0 0 .565.704.63.63 0 0 0 .704-.542.649.649 0 0 0-.565-.704.627.627 0 0 0-.704.542zm1.88-15.138a.628.628 0 1 0 1.245.164.63.63 0 0 0-.541-.706.63.63 0 0 0-.704.542zm1.86-15.134a.649.649 0 0 0 .563.704c.344.031.649-.224.681-.567s-.223-.65-.566-.682a.624.624 0 0 0-.678.545zm48.808 1.608a.64.64 0 0 0 .883.113.63.63 0 1 0-.77-.998.64.64 0 0 0-.113.885zm-9.356-12.025a.636.636 0 0 0 .883.113.662.662 0 0 0 .109-.907.636.636 0 0 0-.895-.079.642.642 0 0 0-.097.873zm-17.579 17.197c.096.34.445.537.783.444l.001-.001a.615.615 0 0 0 .423-.76.623.623 0 1 0-1.209.31l.001.005zm-4.052-14.692a.62.62 0 0 0 .75.45l.012-.003a.638.638 0 0 0-.303-1.239.638.638 0 0 0-.467.771l.008.021zm-4.384 19.811c.084.341.427.55.767.467a.646.646 0 0 0 .47-.748.669.669 0 0 0-.771-.489.655.655 0 0 0-.466.77zm-3.425-14.801c.084.341.427.55.767.467a.625.625 0 0 0-.277-1.22.655.655 0 0 0-.49.753zm-22.469 7.18a.625.625 0 0 0 .519.71.631.631 0 0 0 .733-.503.649.649 0 0 0-.525-.733.655.655 0 0 0-.727.526zm2.502-15a.626.626 0 1 0 1.231.226l.002-.017a.656.656 0 0 0-.525-.733.622.622 0 0 0-.709.516c.003.005.003.005.001.008zm51.765 17.8c.21.279.606.341.888.136a.622.622 0 0 0 .139-.868.61.61 0 0 0-.847-.176c-.008.005-.015.008-.023.017a.628.628 0 0 0-.168.876c.002.005.006.009.011.015zm-8.816-12.362c.21.279.606.341.888.136a.622.622 0 0 0 .139-.868.61.61 0 0 0-.847-.176c-.008.005-.015.008-.023.017a.63.63 0 0 0-.168.876c.003.003.008.008.011.015zm-16.66 5.756a.475.475 0 0 0 .864-.393.458.458 0 0 0-.636-.225.474.474 0 0 0-.228.618zm-4.838-10.359a.477.477 0 1 0 .861-.414.469.469 0 0 0-.621-.232l-.015.007a.49.49 0 0 0-.225.639zm-19.433 10.01c.017.259.24.458.497.445a.496.496 0 0 0 .445-.499.47.47 0 0 0-.493-.448l-.001.001a.458.458 0 0 0-.451.463c.001.016.001.026.003.038zm-.524-11.457a.502.502 0 0 0 .502.468.47.47 0 0 0 .447-.494v-.004a.457.457 0 0 0-.461-.452l-.018.002a.472.472 0 0 0-.47.48z" fill="#fff" opacity=".51"/></svg></g><g transform="translate(446.0 400.0) rotate(0.0 477.0 91.0) scale(2.628099173553719 2.63768115942029)"><svg width="363" height="69" viewBox="0 0 363 69"><linearGradient id="b" gradientUnits="userSpaceOnUse" x1="181.5" x2="181.5" y1="50" y2="-40.013"><stop offset="0" stop-color="#CADEFD"/><stop offset="1" stop-color="#8AB6EF"/></linearGradient><ellipse cx="181.5" cy="34.5" fill="url(#b)" rx="181.5" ry="34.5"/><g fill="#fff"><path d="M93.133 41.54c-6.385 0-13.262-1.414-19.396-2.674l-1.833-.375c-4.123-.839-8.171-.456-12.086-.086-3.481.329-6.77.639-9.904.089a.5.5 0 1 1 .173-.985c3.002.527 6.225.223 9.638-.1 3.987-.375 8.112-.766 12.379.103l1.835.375c6.687 1.375 14.262 2.934 21.038 2.611 3.973-.188 7.886-1.082 11.67-1.946 4.305-.983 8.756-1.999 13.469-2.051 2.979-.043 6.032.597 8.979 1.207 4.189.866 8.146 1.685 11.93.77a.5.5 0 0 1 .236.972c-4.001.969-8.255.089-12.368-.762-2.896-.599-5.87-1.221-8.766-1.186-4.605.051-9.003 1.055-13.257 2.026-3.827.874-7.784 1.777-11.846 1.97-.625.027-1.256.042-1.891.042zm190.712-3.769c-4.527 0-8.699-1.276-12.76-2.519-5.613-1.718-10.918-3.34-16.959-1.769a.5.5 0 0 1-.252-.968c6.318-1.643 12.003.098 17.504 1.78 4.902 1.5 9.975 3.049 15.552 2.26 2.556-.362 5.048-1.428 7.458-2.459 2.737-1.171 5.567-2.382 8.573-2.619 2.796-.222 5.367.551 7.854 1.297 3.065.919 5.962 1.788 9.025.751a.5.5 0 0 1 .321.947c-3.368 1.139-6.553.184-9.633-.74-2.398-.719-4.872-1.466-7.488-1.258-2.842.223-5.596 1.401-8.258 2.541-2.47 1.057-5.024 2.15-7.711 2.53a22.72 22.72 0 0 1-3.226.226zm-120.94-12.334c-6.479 0-12.46-1.83-18.281-3.61-8.101-2.478-15.751-4.82-24.498-2.545a.5.5 0 0 1-.252-.968c9.018-2.346 17.165.147 25.042 2.557 7.069 2.163 14.377 4.397 22.451 3.256 3.702-.524 7.298-2.063 10.775-3.551 3.918-1.677 7.97-3.411 12.255-3.748 3.983-.309 7.656.79 11.209 1.856 4.441 1.332 8.636 2.59 13.107 1.077a.5.5 0 0 1 .321.947c-4.774 1.616-9.319.252-13.714-1.066-3.466-1.04-7.047-2.116-10.844-1.817-4.121.324-8.096 2.025-11.94 3.67-3.538 1.514-7.195 3.079-11.029 3.622a32.81 32.81 0 0 1-4.602.32z"/><path d="M69.667 20.439c.145.05.303-.029.352-.174s-.029-.304-.173-.353a.279.279 0 0 0-.353.174.282.282 0 0 0 .174.353zm2.142-6.462a.307.307 0 0 0 .372-.179.284.284 0 0 0-.191-.349.262.262 0 0 0-.343.143c-.005.009-.007.019-.01.032a.277.277 0 0 0 .172.353zm26.261 4.261a.285.285 0 0 0 .38.133.26.26 0 0 0 .113-.375.275.275 0 0 0-.362-.138.284.284 0 0 0-.131.38zm-38.979-8.063a.275.275 0 0 0 .385-.024.273.273 0 1 0-.409-.362.26.26 0 0 0 .003.367c.008.008.013.014.021.019zm24.524 8.251a.309.309 0 0 0 .311.265.29.29 0 0 0-.046-.577.312.312 0 0 0-.265.312zm-.486-6.794a.278.278 0 0 0 .307.247.27.27 0 0 0 .27-.269l-.001-.024a.297.297 0 0 0-.312-.265.309.309 0 0 0-.264.311zM32.838 24.89a.53.53 0 0 0 .747.005c.005-.003.008-.009.013-.013a.525.525 0 0 0 0-.739l-.003-.002a.53.53 0 0 0-.747-.005c-.005.003-.008.009-.013.013a.525.525 0 0 0 .003.741zm9.067-9.169a.54.54 0 0 0 .761-.762c-.003-.002-.003-.005-.007-.007a.522.522 0 0 0-.737 0l-.002.003a.557.557 0 0 0-.015.766zm31.937 38.544a.54.54 0 0 0 .542.528.515.515 0 0 0 .531-.496c0-.011.002-.019 0-.029a.54.54 0 0 0-.543-.528.53.53 0 0 0-.53.525zm-.112-25.83c0 .292.233.526.524.527.005 0 .012 0 .018-.002a.515.515 0 0 0 .531-.496c0-.011.002-.019 0-.029a.57.57 0 0 0-.546-.547.545.545 0 0 0-.527.547zm-.064-12.905a.534.534 0 1 0 1.069-.015.53.53 0 0 0-.523-.533.538.538 0 0 0-.546.526zM48.467 43.503a.53.53 0 0 0 .369-.994.527.527 0 0 0-.674.299.544.544 0 0 0 .305.695zm4.881-11.958a.53.53 0 0 0 .369-.994.527.527 0 0 0-.674.299.543.543 0 0 0 .305.695zm4.885-11.941a.544.544 0 0 0 .407-1.008.544.544 0 1 0-.407 1.008zm39.279 23.809c.12.269.432.395.705.277a.52.52 0 0 0 .284-.68l-.002-.005a.513.513 0 0 0-.651-.316l-.039.015a.573.573 0 0 0-.297.709zm-9.96-23.824a.51.51 0 0 0 .683.281.53.53 0 0 0 .307-.684c-.003-.009-.005-.017-.009-.025a.535.535 0 1 0-.981.428zM36.894 38.4a.48.48 0 0 0 .642-.196.475.475 0 1 0-.642.196zm5.355-10.205a.48.48 0 0 0 .642-.196.474.474 0 1 0-.822-.472c-.005.008-.009.018-.015.026a.467.467 0 0 0 .179.633c.003.003.01.005.016.009zm5.141-10.472a.393.393 0 0 0 .215.267.48.48 0 0 0 .642-.196.486.486 0 0 0-.196-.659l-.005-.002a.484.484 0 0 0-.45-.002l-.019.005a.33.33 0 0 0-.172.194.405.405 0 0 0-.015.393zM84.894 42.52c.09.253.358.39.614.317a.46.46 0 0 0 .307-.574l-.007-.02a.47.47 0 0 0-.586-.323l-.009.003a.5.5 0 0 0-.319.597zm-6.823-22.019a.474.474 0 0 0 .587.325l.009-.003a.448.448 0 0 0 .3-.593.474.474 0 0 0-.587-.325l-.009.003a.485.485 0 0 0-.3.593zM74.654 9.514a.48.48 0 0 0 .911-.296.5.5 0 0 0-.595-.322.507.507 0 0 0-.316.618zm-14.76 29.607a.484.484 0 0 0 .441.51.47.47 0 0 0 .512-.424.501.501 0 0 0-.426-.533.496.496 0 0 0-.527.447zm1.06-11.485a.457.457 0 0 0 .394.512c.008.001.019.001.027.003a.47.47 0 0 0 .512-.424.501.501 0 0 0-.426-.533.482.482 0 0 0-.507.442zm1.043-11.481a.47.47 0 0 0 .936.089.472.472 0 1 0-.938-.1c.002.004.002.007.002.011zm32.807 1.692c.169.202.47.233.678.068a.484.484 0 0 0-.611-.748.473.473 0 0 0-.087.658c.009.008.015.017.02.022zm-31.955-.176a.278.278 0 1 0 .554-.06.279.279 0 0 0-.554.06zm-.75-6.758c.026.155.169.26.326.243a.28.28 0 0 0 .247-.307.267.267 0 0 0-.286-.248l-.022.002a.29.29 0 0 0-.267.304c.002.002.001.004.002.006zm-12.81 2.12a.303.303 0 0 0 .349-.192.277.277 0 0 0-.179-.346l-.015-.005a.269.269 0 0 0-.341.166l-.007.025a.286.286 0 0 0 .193.352zm25.684-2.768c.073.137.24.186.375.114a.276.276 0 0 0 .113-.377.258.258 0 0 0-.374-.114.274.274 0 0 0-.118.368c0 .005.002.006.004.009zm-43.787 6.677a.309.309 0 0 0 .417-.122l.005-.008a.315.315 0 0 0-.111-.429l-.022-.012a.309.309 0 0 0-.417.122l-.005.008a.33.33 0 0 0 .133.441zm32.298 3.134a.298.298 0 0 0 .395.207.318.318 0 0 0 .208-.396.35.35 0 0 0-.401-.226.324.324 0 0 0-.202.415c-.002-.003-.002-.003 0 0zm-2.243-7.431c.057.172.24.263.414.203l.001-.001a.318.318 0 0 0 .208-.396.35.35 0 0 0-.401-.226.354.354 0 0 0-.222.42zM47.39 17.723a.37.37 0 0 0 .128.049.313.313 0 0 0 .346-.279l.002-.011a.327.327 0 0 0-.27-.352l-.019.005a.313.313 0 0 0-.348.29.292.292 0 0 0 .161.298zM75.775 9.37a.318.318 0 0 0 .448.046c.002-.003.007-.005.007-.007a.313.313 0 0 0 .042-.439.305.305 0 0 0-.426-.074c-.007.005-.01.008-.018.012a.332.332 0 0 0-.053.462zM37.572 50.625a.573.573 0 0 0 .519.594.55.55 0 0 0 .594-.499.567.567 0 0 0-.519-.594.549.549 0 0 0-.594.499zm1.086-13.271a.548.548 0 1 0 1.092.097.55.55 0 0 0-.498-.596.551.551 0 0 0-.594.499zm1.068-13.266a.567.567 0 0 0 .517.594.548.548 0 0 0 .054-1.093.542.542 0 0 0-.571.499zm42.623-.385a.56.56 0 0 0 .774.066.55.55 0 1 0-.774-.066zm-8.6-10.144c.198.228.541.26.774.066a.577.577 0 0 0 .062-.795.556.556 0 0 0-.784-.036.56.56 0 0 0-.052.765zM59.049 29.2a.558.558 0 0 0 .7.359l.001-.001a.537.537 0 0 0 .341-.678.545.545 0 1 0-1.042.32zm-4.072-12.664a.54.54 0 0 0 .671.365l.01-.003a.556.556 0 1 0-.689-.38l.008.018zM51.88 33.973a.556.556 0 0 0 .686.38.565.565 0 0 0 .383-.669.583.583 0 0 0-.69-.398.569.569 0 0 0-.379.687zm-3.53-12.782a.556.556 0 0 0 .686.38.546.546 0 0 0-.286-1.053.57.57 0 0 0-.4.673zm-19.332 7.084a.547.547 0 0 0 .475.601c.001-.001.002.002.003 0a.55.55 0 0 0 .621-.465.567.567 0 0 0-.485-.62.57.57 0 0 0-.614.484zm1.633-13.173a.548.548 0 0 0 1.082.152l.001-.015a.573.573 0 0 0-.485-.62.544.544 0 0 0-.6.476c.004.004.004.004.002.007zm45.795 13.627a.56.56 0 0 0 .779.086.543.543 0 0 0 .09-.762.534.534 0 0 0-.745-.123c-.007.005-.013.008-.019.015a.548.548 0 0 0-.105.784zm-8.141-10.457a.56.56 0 0 0 .779.086.543.543 0 0 0 .09-.762.534.534 0 0 0-.745-.123c-.007.005-.013.008-.019.015a.549.549 0 0 0-.114.77l.009.014zm-14.318 5.63a.413.413 0 0 0 .739-.374.399.399 0 0 0-.563-.173.414.414 0 0 0-.176.547zm-4.598-8.857a.416.416 0 1 0 .735-.392.408.408 0 0 0-.55-.179l-.013.007a.425.425 0 0 0-.172.564zm-16.581 9.441c.024.225.226.39.45.37a.432.432 0 0 0 .37-.451.411.411 0 0 0-.446-.373h-.003a.401.401 0 0 0-.374.421c.001.014.001.023.003.033zm-.877-9.972c.025.23.225.4.455.39a.41.41 0 0 0 .372-.447v-.003a.398.398 0 0 0-.418-.377l-.015.002a.413.413 0 0 0-.394.43z" opacity=".51"/></g></svg></g><g transform="translate(226.0 104.0) rotate(0.0 213.0 130.0) scale(1.0597014925373134 1.0621652647446922)"><svg width="402" height="244.783" viewBox="0 0 402 244.783"><linearGradient id="c" gradientUnits="userSpaceOnUse" x1="42.092" x2="360.298" y1="123.297" y2="123.297"><stop offset="0" stop-color="#E7F0FF"/><stop offset="1" stop-color="#BAD3FE"/></linearGradient><linearGradient id="d" gradientUnits="userSpaceOnUse" x1="55.414" x2="350.579" y1="47.243" y2="47.243"><stop offset="0" stop-color="#6FABFF"/><stop offset="1" stop-color="#4A90DB"/></linearGradient><path d="M360.298 244.781C359.723 132.316 288.716 1.813 201.195 1.813S42.667 132.316 42.092 244.781z" fill="url(#c)"/><path d="M275.529 244.781c-.269-69.505-33.444-160.504-74.334-160.504s-74.065 90.998-74.334 160.504z" fill="#A5C7F2"/><path d="M398.709 244.783c-.352-55.373-22.155-116.754-58.326-164.194C301.251 29.265 251.82 1 201.195 1S101.14 29.265 62.008 80.589C25.837 128.029 4.032 189.41 3.682 244.783l-1-.006c.353-55.583 22.233-117.188 58.531-164.795 18.649-24.46 39.823-43.849 62.935-57.626C149.031 7.521 174.954 0 201.195 0s52.164 7.521 77.048 22.356c23.111 13.777 44.285 33.166 62.935 57.626 36.298 47.606 58.179 109.212 58.531 164.795z" fill="#6FABFF"/><path d="M350.579 93.988C314.278 39.847 260.814.211 201.195.5 110 .944 55.414 88.743 55.414 88.743c95.06-36.883 193.251-37.42 295.165 5.245z" fill="url(#d)"/><g fill="#6FABFF"><path d="M0 230.114h6v14.667H0zm396 0h6v14.667h-6z"/></g></svg></g><g transform="translate(594.0 613.0) rotate(24.8649022260412 -141.5 23.0) scale(-0.7591588627102775 0.7485395342782288)"><svg width="372.781" height="61.453" viewBox="0 0 372.781 61.453"><path d="M369.281 43.767H42.357a3.5 3.5 0 1 1 0-7h326.924a3.5 3.5 0 1 1 0 7z" fill="#23286b"/><path d="M40.265 43.767a3.499 3.499 0 0 1-2.475-5.974c7.034-7.036 7.035-18.483 0-25.519s-18.482-7.035-25.518 0-7.034 18.482 0 25.519a3.499 3.499 0 1 1-4.949 4.949c-9.765-9.765-9.765-25.653 0-35.417 9.764-9.766 25.652-9.766 35.416 0 9.765 9.764 9.765 25.652 0 35.417a3.488 3.488 0 0 1-2.474 1.025z" fill="#23286b"/><circle cx="300.802" cy="38.487" fill="#e94a47" r="17.792"/><path d="m214.999 24.474 36.989-6.52 6.52 36.989-36.989 6.52z" fill="#428dfc"/><path d="M165.546 20.631h37.56v37.56h-37.56z" fill="#a1c3fc"/><path d="m106.652 22.407 37.417-3.276 3.276 37.418-37.418 3.275z" fill="#1d72d8"/></svg></g><g transform="translate(952.0 232.0) rotate(0.0 252.0 318.5) scale(1.1743625471550834 1.1762099082297763)"><svg width="429.169" height="541.57" viewBox="0 0 429.169 541.57"><linearGradient id="e"><stop offset="0" stop-color="#23286b"/><stop offset="1" stop-color="#151a4f"/></linearGradient><linearGradient xmlns:xlink="http://www.w3.org/1999/xlink" id="g" gradientUnits="userSpaceOnUse" x1="169.085" x2="257.44" xlink:href="#e" y1="134.238" y2="130.786"/><linearGradient id="f"><stop offset="0" stop-color="#ffbeb6"/><stop offset="1" stop-color="#f2a19c"/></linearGradient><linearGradient xmlns:xlink="http://www.w3.org/1999/xlink" id="h" gradientUnits="userSpaceOnUse" x1="55.605" x2="214.374" xlink:href="#f" y1="210.569" y2="210.569"/><linearGradient xmlns:xlink="http://www.w3.org/1999/xlink" id="i" gradientUnits="userSpaceOnUse" x1="132.684" x2="176.206" xlink:href="#f" y1="121.943" y2="121.943"/><linearGradient xmlns:xlink="http://www.w3.org/1999/xlink" id="j" gradientUnits="userSpaceOnUse" x1="141.576" x2="163.576" xlink:href="#f" y1="108.085" y2="81.085"/><linearGradient id="k" gradientUnits="userSpaceOnUse" x1="282.875" x2="188.299" y1="365.759" y2="275.946"><stop offset="0" stop-color="#a1c3fc"/><stop offset="1" stop-color="#89b3f4"/></linearGradient><linearGradient id="l" gradientUnits="userSpaceOnUse" x1="137.123" x2="135.052" y1="196.056" y2="257.491"><stop offset="0" stop-color="#e94a47"/><stop offset="1" stop-color="#d62929"/></linearGradient><linearGradient xmlns:xlink="http://www.w3.org/1999/xlink" id="m" gradientUnits="userSpaceOnUse" x1="167.814" x2="256.169" xlink:href="#e" y1="101.705" y2="98.254"/><linearGradient xmlns:xlink="http://www.w3.org/1999/xlink" id="n" gradientUnits="userSpaceOnUse" x1=".923" x2="17.165" xlink:href="#f" y1="24.674" y2="24.281"/><path d="M133.067 76.96c-2.473 0-4.865-.394-6.598-2.745a.5.5 0 0 1 .804-.594c1.858 2.522 4.536 2.413 7.641 2.289.658-.026 1.323-.053 1.986-.053a.5.5 0 0 1 0 1c-.65 0-1.301.026-1.946.052-.627.025-1.26.051-1.887.051z" fill="#23286b"/><path d="M133.384 72.579c13.363-27.04 38.026-20.173 58.019-5.502C202.049 74.889 211 81.88 224.861 81.043c11.737-.708 23.726-10.231 35.495-10.246 26.702-.036 29.32 43.498 22.527 63.186-4.204 12.184-13.039 17.906-20.314 28.848-6.708 10.089-5.66 22.417-15.678 30.069-16.977 12.967-39.338-.087-58.917 8.808-10.099 4.589-13.931 13.455-25.789 13.215-13.89-.281-19.657-10.402-22.018-22.063-2.194-10.838 1.337-22.944-.383-33.882-1.633-10.383-9.002-17.51-11.907-27.018-4.18-13.68.796-17.138 5.131-29.264 3.875-10.84-4.315-20.624.376-30.117z" fill="url(#g)"/><g fill="#f2a19c"><path d="M102.751 183.937c-11.986-7.265-51.362-38.277-65.602-65.701C25.095 95.02 25.17 67.699 15.39 43.072c6.621-.498 13.225-1.347 19.651-3.877 11.103 22.139 19.543 54.172 38.742 70.108 26.609 22.087 52.941 25.599 53.667 60.832zM314.289 308.74c17.279 1.736 34-2 36.667-6 2.293-3.439 11.528-7.368 16.031-7.084 5.174.326 10.442 9.04 13.529 12.489 8.844 9.882 17.702 19.603 28.438 26.817 7.551 5.074 25.902 10.731 18.484 23.045-3.507 2.915-10.212-4.489-17.37-6.975-12.446-4.323-21.593-8.78-32.445-10.292-19.956-2.782-32.863-1.048-50 9.333 1.792-11.776-5.914-32.442-13.334-41.333zm-101.778 80.174c2.381 13.744 5.573 26.554 4.239 40.384-.975 10.117-4.502 18.567-5.999 28.718-3.176 21.531-1.836 37.998 4.639 60.464 8.517 29.551-27.793 17.551-48.947 18.607-12.288.614-47.452 11.584-52.855-3.233-1.704-4.597 10.72-3.497 19.616-5.308 16.847-3.43 35.563-7.67 39.031-22.99 2.165-9.564-5.805-30.584-7.265-40.309-2.274-15.145-2.856-28.83-9.896-42.855 25.172-9.148 55.635 1.246 57.437-33.478z"/></g><path d="M134.352 131.269c-8.924 1.981-29.416 8.129-37.049 13.803-12.483 9.279-24.537 20.595-34.21 33.421-4.064 5.388-7.202 13.094-7.472 19.739-.299 7.346 3.824 11.804 4.279 18.849.544 8.421-1.209 16.712.027 25.711 1.235 8.987 2.191 18.904 5.118 27.428 2.726 7.939 8.678 13.867 13.883 20.439 33.988-5.506 78.551-10.373 99.457-42.698 5.942-9.187 3.154-9.131.433-18.045-2.511-8.227 1.285-7.707 7.735-13.928 10.879-10.492 27.348-26.212 27.803-42.611.463-16.691-8.085-29.187-22.251-33.391-9.101-2.701-20.967-7.025-30.511-7.991-8.925-.903-19.367-2.474-27.242-.726z" fill="url(#h)"/><path d="M182.158 240.058c-7.046 5.945-14.465 13.083-22.24 18.276-9.445 6.309-20.179 10.508-30.525 15.519-17.812 8.628-40.419 16.364-52.709 13.987 4.789 11.61 4.729 22.999 9.837 34.981 5.921 13.887 14.224 26.855 20.483 40.821 6.364 14.2 12.273 26.334 21.744 38.566 9.185 11.862 23.374 22.529 28.517 36.815 5.224 14.513 7.79 30.838 10.935 45.266 13.189-1.877 27.242-.427 40.941.117 1.579-13.476 9.325-27.692 12.264-41.174 3.021-13.861 1.256-25.691-2.835-38.811-1.931-6.194-5.506-11.252-6.365-17.595-.791-5.843 1.099-12.375 1.222-18.815.285-15.026-8.15-26.646-2.638-41.394 6.174-16.519 22.752-40.522 13.499-57.212-9.466-17.074-24.03-26.643-42.13-29.347z" fill="#89b3f4"/><path d="M147.202 100.753c-3.088 4.578-4.008 10.343-6.235 15.993-1.91 4.845-5.239 9.412-7.861 16.264-3.389 8.857 14.496 11.88 22.676 9.155 7.023-2.339 12.352-3.751 13.026-8.253.622-4.155 1.082-7.749 1.435-10.39 1.326-9.916 2.951-10.544 5.964-19.788-9.725 5.205-19.22.283-29.005-2.981z" fill="url(#i)"/><path d="M169.091 67.839c-22.974-13.98-25.618 4.403-35.135 8.403-9.29 3.903-8.31 1.393-7.907 10.643.302 6.932-1.983 12.933 1.693 19.709 13.112 24.172 51.66 16.151 57.44-9.615 2.707-12.071-4.449-27.417-16.091-29.14z" fill="url(#j)"/><path d="M124.214 311.175c7.179 21.667 39.001 34.959 56.817 44.628 20.007 10.858 39.271 22.817 60.781 23.034 21.979.221 32.208-5.507 53.81-11.431 12.675-3.476 40.667-20.667 40.667-20.667l-5.643-37.615s-20.646-1.242-30.463-1.239c-17.642.005-25.484 6.4-39.873-3.909-7.433-5.325-13.814-9.687-22.462-14.396-8.271-4.504-12.346-26.225-19.559-32.174-20.497-16.908-37.012-18.449-37.012-18.449s-19.408 21.623-61.199 40.748c-14.4 6.589 8.099 16.894 4.136 31.47z" fill="url(#k)"/><path d="M124.908 133.812s-29.391 22.707-10.897 25.789c26.152 4.359 41.101-5.012 62.838-24.699 2.211 1.115 2.582 1.497 7.529 2.61 13.822 3.109 34.566 5.682 41.242 4.777 5.614 27.588-46.432 90.205-46.432 90.205s-30.12 22.484-46.899 26.914c-22.495 5.939-58.536 8.641-75.422 2.451-1.198-.444-2.173-.614-2.935-.868 7.998-27.85-16.57-57.144 4.417-83.309 12.649-15.77 52.031-42.779 52.031-42.779z" fill="url(#l)"/><path d="M38.417 40.891c-2.082-7.769-2.342-7.604-4.977-12.705-3.061-5.924-16.192-16.895-17.924-15.164-2.043 2.735 5.209 8.603 8.137 18.005 3.238 10.398 5.583 21.69 7.829 22.208 1.563-3.722 6.684-8.697 6.935-12.344z" fill="#f2a19c"/><path d="M33.029 66.22C35.033 49.643 18.431 47.4 9.628 39.256-2.733 27.819-.781 19.33 2.358 2.462 3.379-1.387 8.071-.481 8.417 3.501c-.68 9.553 3.568 15.575 9.163 20.897 4.309 4.098 12.241 2.372 16.514 6.932 5.485 5.856 6.199 20.085 9.062 28.718-3.48.734-6.33 5.387-10.127 6.172z" fill="#f2a19c"/><path d="M151.268 62.533c18.21-.344-6.558 50.016 10.284 64.987 19.664 17.479 46.052 14.088 70.724 12.67 2.29-21.638-61.655-91.303-81.008-77.657z" fill="url(#m)"/><path d="M174.182 153.945c11.45-20.641 42.386-23.418 61.81-33.945 12.945-7.016 21.826-13.654 28.941-26.867 6.58-12.219 10.444-25.904 17.398-37.702 5.533 2.808 11.335 2.117 16.942 3.939-1.174 14.469-8.928 33.546-13.494 47.187-2.368 7.074-4.59 15.711-8.48 22.097-3.975 6.526-10.715 10.735-16.81 16.87-16.916 17.026-69.259 64.011-89.464 29.495-5.15-8.795-1.379-12.897 3.157-21.074z" fill="#ffbeb6"/><path d="M296.899 69.519c5.479-10.95 6.59-10.242 14.89-17.612 8.157-7.243 5.375-17.748 9.834-27.716 2.595-5.8-3.663-5.8-7.784 1.068-2.276 3.794-3.184 11.301-5.647 14.194-5.159 6.06-5.036 4.273-14.804 9.31 1.652-8.928-.1-16.356-5.744-19.959-7.18-4.583-1.775 9.791-2.355 17.103-.637 8.021-6.302 11.599-7 19.5 3.842 1.467 14.531 4.13 18.61 4.112z" fill="#ffbeb6"/><path d="M147.973 81.839c-2.472 0-4.864-.394-6.595-2.745a.5.5 0 0 1 .804-.594c1.855 2.521 4.53 2.412 7.639 2.289.659-.026 1.324-.053 1.988-.053a.5.5 0 0 1 0 1c-.65 0-1.303.026-1.948.052-.627.025-1.26.051-1.888.051z" fill="#23286b"/><path d="M3.314 31.723C-1.458 27.656 3.19 9.179 7.291 5.357c5.336 1.806 1.096 11.58 1.387 15.55.427 5.832 6.478 5.974 9.487 11.113 8.616 14.717-4.896 15.813-14.851-.297z" fill="url(#n)"/><path d="M232.489 74.352c-11.816 0-25.16-4.251-32.675-9.283-16.332-10.938-39.716-23.494-54.143-6.34a.502.502 0 0 1-.766-.644c16.674-19.82 45.871-.271 55.465 6.154 9.121 6.107 26.982 11.047 39.937 8.376 6.184-1.274 10.747-4.128 13.562-8.479a.5.5 0 0 1 .839.543c-2.966 4.585-7.743 7.585-14.199 8.916-2.522.52-5.23.757-8.02.757z" fill="#23286b"/><path d="M87.674 359.298a.5.5 0 0 1-.476-.346c-5.563-17.136-10.74-41.691-4.424-62.571-1.94 2.254-2.622 5.741-3.285 9.132-.666 3.406-1.354 6.929-3.324 9.256-2.676 3.16-5.572 4.514-7.757 3.621-1.157-.475-3.044-2.025-2.667-7.088.552-7.41 6.048-10.482 11.362-13.454 2.079-1.162 4.043-2.259 5.694-3.598a.499.499 0 0 1 .732.114.499.499 0 0 1 .583.016c.172.13.241.354.172.559-7.086 20.988-1.81 46.228 3.864 63.705a.5.5 0 0 1-.474.654zm-6.222-62.848c-1.237.805-2.563 1.546-3.86 2.271-5.084 2.843-10.341 5.781-10.853 12.655-.242 3.237.505 5.456 2.048 6.088 1.734.712 4.269-.57 6.614-3.342 1.803-2.128 2.436-5.37 3.106-8.801.625-3.194 1.266-6.47 2.945-8.871z" fill="#428dfc"/><path d="M175.859 264.579a.317.317 0 0 0 .204-.401.32.32 0 1 0-.204.401zm-2.464-7.4a.352.352 0 0 0 .219-.419.324.324 0 0 0-.414-.189.301.301 0 0 0-.217.367c.002.012.007.022.012.036a.318.318 0 0 0 .4.205zm27.028-14.09c.16.084.357.021.44-.138a.298.298 0 0 0-.154-.423.315.315 0 0 0-.426.122.325.325 0 0 0 .14.439zm-41.309 19.318a.314.314 0 0 0 .337-.286c.012-.172-.114-.322-.286-.338s-.322.114-.337.286a.297.297 0 0 0 .286.338zm28.169-9.237a.356.356 0 0 0 .468.03.33.33 0 0 0 .029-.468.33.33 0 0 0-.468-.03.356.356 0 0 0-.029.468zm-5.104-5.903a.32.32 0 0 0 .451.017.309.309 0 0 0 .063-.432l-.017-.021a.341.341 0 0 0-.468-.03.354.354 0 0 0-.029.466zm-37.077 46.644a.605.605 0 0 0 .689-.508c.002-.006.001-.014.003-.021a.6.6 0 0 0-.507-.678h-.004a.605.605 0 0 0-.689.508c-.002.006-.001.014-.003.021a.6.6 0 0 0 .507.678l.002.002zm2.038-14.633a.617.617 0 0 0 .176-1.221l-.011-.002a.599.599 0 0 0-.676.508.637.637 0 0 0 .511.715zm55.738 13.491a.618.618 0 0 0 .859.113.591.591 0 0 0 .147-.82c-.007-.01-.012-.019-.02-.026a.619.619 0 0 0-.861-.112.608.608 0 0 0-.125.845zm-17.809-23.635c.2.268.574.323.842.125 0 0 .011-.008.015-.014a.591.591 0 0 0 .147-.82c-.007-.01-.012-.019-.02-.026a.655.655 0 0 0-.877-.128.626.626 0 0 0-.107.863zm-8.904-11.803a.612.612 0 1 0 .971-.746.604.604 0 0 0-.845-.13.615.615 0 0 0-.126.876zm-3.958 42.952a.607.607 0 1 0-.757-.428.623.623 0 0 0 .757.428zm-3.716-14.322a.607.607 0 1 0-.757-.428c.094.323.43.513.757.428zm-3.701-14.311a.624.624 0 0 0-.317-1.205.623.623 0 0 0 .283 1.212.069.069 0 0 0 .034-.007zm52.378-5.069a.617.617 0 0 0 .837-.228.598.598 0 0 0-.205-.819l-.005-.003a.587.587 0 0 0-.814.156l-.026.041a.654.654 0 0 0 .213.853zm-25.474-15.043a.585.585 0 0 0 .82-.21.607.607 0 0 0-.187-.838l-.025-.016a.612.612 0 1 0-.608 1.064zm-33.608 51.994a.548.548 0 0 0 .454-.62.542.542 0 1 0-1.074.164.55.55 0 0 0 .62.456zm-2.08-13.038a.548.548 0 0 0 .454-.62.543.543 0 1 0-1.078.131c0 .011.004.023.005.034a.535.535 0 0 0 .598.459c.005-.001.013-.004.021-.004zm-2.459-13.138a.455.455 0 0 0 .38.098.548.548 0 0 0 .454-.62.557.557 0 0 0-.631-.471l-.006.001a.554.554 0 0 0-.414.307l-.015.017a.377.377 0 0 0-.025.296.467.467 0 0 0 .257.372zm51.426-2.945a.576.576 0 0 0 .781-.13.529.529 0 0 0-.112-.738l-.02-.014a.539.539 0 0 0-.759.105l-.003.005a.574.574 0 0 0 .113.772zm-21.357-15.535c.24.182.58.135.762-.104l.006-.009a.514.514 0 0 0-.13-.751.544.544 0 0 0-.762.104l-.006.009a.556.556 0 0 0 .13.751zm-10.668-7.744a.549.549 0 0 0 .634-.897.573.573 0 0 0-.767.113.58.58 0 0 0 .133.784zm6.745 37.296a.554.554 0 0 0 .755.166.537.537 0 0 0 .179-.74.575.575 0 0 0-.757-.198.57.57 0 0 0-.177.772zm-6.9-11.27a.524.524 0 0 0 .713.2c.008-.005.018-.013.027-.016a.537.537 0 0 0 .179-.74.575.575 0 0 0-.757-.198.555.555 0 0 0-.162.754zm-6.912-11.254a.54.54 0 0 0 .921-.559.54.54 0 1 0-.93.55c.005.003.006.005.009.009zm31.276-20.935a.56.56 0 0 0 .669-.402.553.553 0 0 0-1.073-.267.542.542 0 0 0 .371.664c.014-.001.024.004.033.005zm-29.455 21.743a.32.32 0 1 0 .468-.434.32.32 0 0 0-.468.434zm-5.321-5.689a.337.337 0 0 0 .466-.001.321.321 0 0 0 .017-.451.307.307 0 0 0-.433-.032l-.018.017a.332.332 0 0 0-.037.462l.005.005zm-10.306 10.726a.347.347 0 0 0 .189-.415.316.316 0 0 0-.401-.195c-.006.001-.01.004-.017.006a.308.308 0 0 0-.199.386l.011.027a.325.325 0 0 0 .417.191zm21.68-20.146a.318.318 0 1 0 .267-.577.296.296 0 0 0-.423.152.315.315 0 0 0 .144.419c.005.004.009.004.012.006zm-35.619 36.145a.353.353 0 0 0 .299-.398v-.011a.361.361 0 0 0-.425-.314.353.353 0 0 0-.299.398v.011c.035.203.223.34.425.314zm31.797-19.264c.145.12.361.099.48-.046.01-.011.017-.023.025-.036a.364.364 0 0 0-.08-.506.4.4 0 0 0-.523.068.372.372 0 0 0 .098.52c-.003-.002-.003-.002 0 0zm-7.152-5.284a.37.37 0 0 0 .519-.097v-.001a.364.364 0 0 0-.08-.506.4.4 0 0 0-.523.068.403.403 0 0 0 .084.536zm-9.234 14.156a.436.436 0 0 0 .151-.042.36.36 0 0 0 .127-.493.035.035 0 0 1-.005-.012.374.374 0 0 0-.489-.138l-.015.018a.36.36 0 0 0-.127.493.335.335 0 0 0 .358.174zm20.331-27.125a.363.363 0 0 0 .442-.265c0-.004.003-.009.002-.011a.359.359 0 0 0-.263-.432.35.35 0 0 0-.442.224l-.008.024a.381.381 0 0 0 .269.46zm-6.79 64.058a.655.655 0 0 0 .883.189.63.63 0 0 0 .204-.865.65.65 0 0 0-.883-.189.628.628 0 0 0-.204.865zm-8.101-12.926a.628.628 0 1 0 1.069-.659.63.63 0 0 0-.865-.206.632.632 0 0 0-.204.865zm-8.113-12.91a.65.65 0 0 0 .882.19.627.627 0 1 0-.882-.19zm38.864-29.571a.643.643 0 0 0 .757-.47.63.63 0 0 0-1.228-.288.639.639 0 0 0 .471.758zm-14.848-3.417a.637.637 0 0 0 .757-.47.664.664 0 0 0-.488-.773.636.636 0 0 0-.269 1.243zm-2.773 24.435a.639.639 0 0 0 .888-.15v-.001a.615.615 0 0 0-.152-.856.624.624 0 1 0-.743 1.004l.004.004zm-12.419-8.835a.62.62 0 0 0 .866-.125l.007-.01a.638.638 0 1 0-.892.124.1.1 0 0 0 .019.011zm9.109 18.131a.635.635 0 0 0 .89-.122.646.646 0 0 0-.108-.877.667.667 0 0 0-.906.108.655.655 0 0 0 .124.891zm-12.001-9.314a.635.635 0 0 0 .89-.122.625.625 0 0 0-.985-.771.654.654 0 0 0 .095.893zm-12.891 19.755a.625.625 0 0 0 .848.225s.003 0 .003-.002a.631.631 0 0 0 .251-.853.65.65 0 0 0-.87-.237.655.655 0 0 0-.232.867zm-7.531-13.213a.627.627 0 1 0 1.098-.602l-.009-.014a.656.656 0 0 0-.87-.237.623.623 0 0 0-.224.848c.005.002.005.002.005.005zm51.38-18.881a.64.64 0 0 0 .774-.455.622.622 0 0 0-.44-.761.61.61 0 0 0-.768.398c-.003.009-.007.016-.007.027a.628.628 0 0 0 .423.785c.005.003.012.004.018.006zm-14.641-4.02a.64.64 0 0 0 .774-.455.622.622 0 0 0-.44-.761.61.61 0 0 0-.768.398c-.003.009-.007.016-.007.027a.63.63 0 0 0 .441.791zm-9.285 14.983a.475.475 0 0 0 .422-.85.46.46 0 0 0-.636.227.477.477 0 0 0 .214.623zm-10.292-4.979a.476.476 0 1 0 .406-.864.468.468 0 0 0-.628.213l-.007.015a.487.487 0 0 0 .229.636zm-8.749 20.034c.176.19.475.204.667.031a.495.495 0 0 0 .03-.668.47.47 0 0 0-.665-.036v.001a.458.458 0 0 0-.057.644l.025.028zm-7.641-8.554c.18.194.48.213.685.046a.471.471 0 0 0 .035-.665l-.002-.003a.456.456 0 0 0-.642-.06l-.013.013a.473.473 0 0 0-.063.669z" fill="#fff" opacity=".75"/></svg></g><g transform="translate(900.0 362.0) rotate(0.0 -168.0 368.0) scale(-1.2262773722627738 1.2266666666666666)"><svg width="274" height="600" viewBox="0 0 274 600"><linearGradient id="o"><stop offset="0" stop-color="#f1b505"/><stop offset="1" stop-color="#d89c05"/></linearGradient><linearGradient xmlns:xlink="http://www.w3.org/1999/xlink" id="q" gradientUnits="userSpaceOnUse" x1="0" x2="136.92" xlink:href="#o" y1="573.246" y2="573.246"/><linearGradient xmlns:xlink="http://www.w3.org/1999/xlink" id="r" gradientTransform="matrix(-.0741 0 0 .0741 -210.6924 -49.4972)" gradientUnits="userSpaceOnUse" x1="-4568.573" x2="-2255.217" xlink:href="#o" y1="9323.381" y2="11458.787"/><linearGradient id="p"><stop offset=".129" stop-color="#428dfc"/><stop offset=".999" stop-color="#1d72d8"/></linearGradient><linearGradient xmlns:xlink="http://www.w3.org/1999/xlink" id="s" gradientTransform="matrix(-.0741 -.00016762 .00016762 .0714 -234.9459 -45.6689)" gradientUnits="userSpaceOnUse" x1="-1788.269" x2="-4482.034" xlink:href="#p" y1="4502.677" y2="6173.492"/><linearGradient xmlns:xlink="http://www.w3.org/1999/xlink" id="t" gradientTransform="matrix(-.0673 .0308 .03 .0647 -272.9906 -32.0781)" gradientUnits="userSpaceOnUse" x1="-1292.082" x2="-3882.343" xlink:href="#p" y1="6682.065" y2="8288.682"/><linearGradient id="u" gradientUnits="userSpaceOnUse" x1="76.863" x2="93.866" y1="101.039" y2="320.492"><stop offset="0" stop-color="#23286b"/><stop offset="1" stop-color="#151a4f"/></linearGradient><linearGradient id="v" gradientUnits="userSpaceOnUse" x1="130.324" x2="145.089" y1="92.164" y2="65.95"><stop offset="0" stop-color="#ffbeb6"/><stop offset="1" stop-color="#f2a19c"/></linearGradient><path d="M246.879 282.427s-21.808 1.938-30.296-13.323c-8.489-15.261-12.149-13.806-24.114-16.395-5.16-1.119-24.347-6.167-39.109-10.298l29.5-22.908c12.603 11.021 30.219 25.386 38.152 27.245 13.033 3.032 25.26-1.002 31.111-.027 5.908.977 7.359 1.893 7.301 6.236 0 0 2.821.97 10.295 2.867 14.289 4.568-13.458 26.516-22.84 26.603z" fill="#ffbeb6"/><path d="M19.195 546.492 0 599.995l136.92.005s-7.02-13.541-30.424-23.571c-23.404-10.031-42.121-29.801-42.121-29.801z" fill="url(#q)"/><path d="m142.929 546.216-19.209 53.779 136.92.005s-7.02-13.541-30.424-23.571c-23.404-10.031-45.133-30.592-45.133-30.592z" fill="url(#r)"/><path d="M64.373 546.626c11.529-19.675 61.887-130.728 66.992-157.14 4.445-23.063 5.275-49.866 4.093-74.407l-1.123-101.622-71.615-5.685c-3.479 4.576-6.708 28.33 6.605 103.45 10.31 58.177-13.284 62.878-23.676 82.62-10.439 19.727-12.152 28.528-15.842 47.485-4.203 21.591-16.83 28.092-21.517 49.743-5.159 23.831-.954 47.418.817 55.48z" fill="url(#s)"/><path d="M51.758 218.411c-1.244 5.612-10.077 50.604 38.862 104.311 32.434 35.595 17.856 48.982 17.386 79.975-.27 17.771 4.963 27.257 9.545 46.016 5.219 21.368-9.545 24.104-4.908 53.66 4.659 29.696 15.646 44.044 15.646 44.044l56.792-.58s9.947-138.207 2.898-166.901c-5.615-22.807-19.95-70.93-31.293-92.723l-39.58-88.201z" fill="url(#t)"/><path d="M96.771 248.452a.268.268 0 0 0 .355-.144.268.268 0 0 0-.144-.355.268.268 0 0 0-.355.144.273.273 0 0 0 .144.355zm2.554-6.12a.297.297 0 0 0 .374-.146.275.275 0 0 0-.162-.352.255.255 0 0 0-.343.114l-.012.028a.271.271 0 0 0 .143.356zm2.57-6.122a.268.268 0 0 0 .355-.144.297.297 0 0 0-.146-.374.303.303 0 0 0-.372.164.282.282 0 0 0 .163.354zm22.665 12.171a.28.28 0 0 0 .36.158.254.254 0 0 0 .153-.324l-.014-.033a.267.267 0 0 0-.342-.159.277.277 0 0 0-.157.358zm-37.332-10.667a.266.266 0 0 0 .38-.372.266.266 0 0 0-.376-.004.254.254 0 0 0-.024.357.121.121 0 0 1 .02.019zm23.257 9.798a.3.3 0 0 0 .282.281.282.282 0 0 0-.001-.563.298.298 0 0 0-.281.282zm.021-6.634c.004.15.131.266.281.262a.261.261 0 0 0 .282-.242c0-.008.002-.015 0-.024a.29.29 0 0 0-.282-.281.304.304 0 0 0-.281.285zm-49.889 9.215a.515.515 0 0 0 .739.049.509.509 0 0 0 .053-.718l-.003-.003a.515.515 0 0 0-.739-.049.509.509 0 0 0-.053.718c.001.001.001.003.003.003zm9.491-8.243a.524.524 0 0 0 .791-.687l-.003-.003a.508.508 0 0 0-.717-.053l-.003.003a.533.533 0 0 0-.068.74zm28.267 39.758a.526.526 0 0 0 .49.552.5.5 0 0 0 .552-.443c.002-.009.002-.019.002-.028a.528.528 0 0 0-.49-.553.514.514 0 0 0-.554.472c0-.003 0 0 0 0zm.875-12.537a.522.522 0 1 0 1.042.066v-.003a.516.516 0 0 0-.471-.556.556.556 0 0 0-.571.493zm.892-12.559a.511.511 0 0 0 .471.55l.019.002a.5.5 0 0 0 .552-.443c.002-.009.002-.019.002-.028a.557.557 0 0 0-.494-.571.528.528 0 0 0-.55.49zm.876-12.536a.523.523 0 0 0 1.042.062.516.516 0 0 0-.471-.556h-.002a.524.524 0 0 0-.569.471v.023zm-26.548 25.33a.516.516 0 1 0-.247-.699.533.533 0 0 0 .247.699zm5.618-11.257a.516.516 0 1 0-.247-.699.53.53 0 0 0 .247.699zm5.62-11.241a.528.528 0 1 0-.023-.01l.023.01zm5.613-11.277a.513.513 0 0 0 .694-.216l.008-.014a.514.514 0 1 0-.913-.477c-.004.008-.008.015-.011.024a.491.491 0 0 0 .196.667.087.087 0 0 0 .026.016zm30.87 37.258c.097.27.393.413.665.321a.507.507 0 0 0 .325-.639l-.002-.006a.498.498 0 0 0-.609-.354l-.039.012a.554.554 0 0 0-.34.666zm-3.982-11.94a.555.555 0 0 0 .667.34.527.527 0 0 0 .321-.665.517.517 0 0 0-.655-.324l-.009.003a.507.507 0 0 0-.325.639l.001.007zm-3.979-11.921a.499.499 0 0 0 .623.331l.024-.008a.515.515 0 0 0 .348-.641c-.003-.008-.004-.018-.008-.025a.52.52 0 1 0-.987.339v.004zm-3.998-11.936c.097.27.393.413.665.321a.499.499 0 0 0 .331-.623l-.008-.024a.526.526 0 0 0-.649-.342.54.54 0 0 0-.339.668zm-46.65 26.515a.463.463 0 1 0-.146-.638.47.47 0 0 0 .146.638zm5.952-9.52a.47.47 0 0 0 .638-.146.462.462 0 0 0-.766-.516l-.014.024a.452.452 0 0 0 .128.627c.002.004.007.008.014.011zm5.762-9.794a.39.39 0 0 0 .189.275.47.47 0 0 0 .494-.8l-.004-.003a.468.468 0 0 0-.437-.033l-.019.003a.337.337 0 0 0-.183.175.406.406 0 0 0-.04.383zm6.14-9.246a.468.468 0 1 0-.148-.654.475.475 0 0 0 .144.654c.002-.002.002 0 .004 0zm28.543 36.057a.49.49 0 0 0 .574.352.45.45 0 0 0 .338-.554.461.461 0 0 0-.547-.357l-.008.002a.488.488 0 0 0-.357.557zm-2.506-10.923a.462.462 0 0 0 .554.337.45.45 0 0 0 .338-.554.461.461 0 0 0-.547-.357l-.008.002a.475.475 0 0 0-.337.572zm-2.532-10.957c.053.25.297.41.547.357l.008-.002a.437.437 0 0 0 .337-.553.461.461 0 0 0-.547-.357l-.008.002a.47.47 0 0 0-.337.553zm-2.525-10.921a.467.467 0 0 0 .908-.221.486.486 0 0 0-.557-.355.495.495 0 0 0-.351.576zm-43.529-1.562c.146.206.43.256.635.11l.018-.012a.44.44 0 0 0 .117-.611c-.004-.008-.011-.015-.018-.024a.46.46 0 0 0-.655-.116.477.477 0 0 0-.097.653zm27.018 29.242a.473.473 0 0 0 .393.529.46.46 0 0 0 .53-.374.488.488 0 0 0-.376-.549.481.481 0 0 0-.547.394zm1.867-11.077c-.05.24.106.475.346.526l.028.004a.46.46 0 0 0 .53-.374.488.488 0 0 0-.376-.549.471.471 0 0 0-.528.393zm1.849-11.075a.46.46 0 0 0 .373.532.46.46 0 0 0 .532-.373v-.003a.462.462 0 0 0-.376-.531.462.462 0 0 0-.529.375zm38.317 13.178c.135.201.41.253.609.117.008-.004.015-.011.024-.018a.461.461 0 0 0 .117-.655.478.478 0 0 0-.652-.098.455.455 0 0 0-.11.635c.005.009.008.015.012.019zm-6.523-9.145c.152.21.441.26.655.116a.47.47 0 0 0-.537-.771.454.454 0 0 0-.131.631.04.04 0 0 0 .013.024zm-57.101-12.081a.275.275 0 0 0 .391-.018.275.275 0 0 0-.018-.391.275.275 0 0 0-.391.018.286.286 0 0 0 .018.391zm26.026 9.583a.272.272 0 1 0 .543-.019.272.272 0 0 0-.543.019zm-.24-6.617a.286.286 0 0 0 .299.259.271.271 0 0 0 .262-.28.261.261 0 0 0-.26-.262h-.02a.279.279 0 0 0-.281.276zm-12.617 1.128a.295.295 0 0 0 .354-.162.267.267 0 0 0-.147-.348l-.014-.004a.263.263 0 0 0-.345.137l-.009.025a.278.278 0 0 0 .161.352zm25.187-.819a.27.27 0 0 0 .495-.219.254.254 0 0 0-.324-.153l-.033.014a.266.266 0 0 0-.141.349l.003.009zm-43.082 3.294c.138.09.323.052.413-.088l.004-.008a.306.306 0 0 0-.077-.424c-.006-.004-.012-.009-.02-.012a.297.297 0 0 0-.413.088l-.004.008a.318.318 0 0 0 .097.436zm4.06-6.365a.316.316 0 0 0 .438-.095.316.316 0 0 0-.095-.438l-.004-.003a.297.297 0 0 0-.413.088l-.004.008a.303.303 0 0 0 .06.425.055.055 0 0 0 .018.015zm27.133 11.76a.29.29 0 0 0 .334.239c.012-.002.024-.004.036-.008a.31.31 0 0 0 .231-.37.343.343 0 0 0-.373-.25.318.318 0 0 0-.228.389zm-1.641-7.381c.043.17.217.272.387.229h.002a.31.31 0 0 0 .231-.37.343.343 0 0 0-.373-.25.347.347 0 0 0-.247.391zm-13.844 3.927a.381.381 0 0 0 .12.058.307.307 0 0 0 .357-.246l.002-.011a.319.319 0 0 0-.239-.361l-.019.003a.307.307 0 0 0-.357.245l-.002.011a.291.291 0 0 0 .138.301zm1.2-7.755a.304.304 0 0 0 .237.362c.17.03.336-.073.381-.24a.345.345 0 0 0-.259-.378.312.312 0 0 0-.359.256zm27.02 1.707c.098.14.291.175.434.076l.009-.006a.306.306 0 0 0 .073-.422.299.299 0 0 0-.409-.103l-.018.011a.323.323 0 0 0-.089.444zm-40.163 37.283a.557.557 0 0 0 .46.613.538.538 0 0 0 .614-.441.551.551 0 0 0-.46-.613.537.537 0 0 0-.614.441zm2.022-12.808a.533.533 0 0 0 .441.614.533.533 0 0 0 .614-.441.533.533 0 0 0-.441-.614.537.537 0 0 0-.614.441zm2.003-12.805a.55.55 0 0 0 .46.613.532.532 0 1 0-.46-.613zm2.022-12.808a.535.535 0 1 0 1.054.171.535.535 0 0 0-1.054-.171zm47.1 26.014a.565.565 0 0 0 .767.119.541.541 0 0 0-.645-.868.55.55 0 0 0-.122.749zm-7.628-10.478a.55.55 0 0 0 .749.122.536.536 0 1 0-.624-.874l-.004.003a.543.543 0 0 0-.121.749zm-7.63-10.477a.543.543 0 0 0 .749.122.565.565 0 0 0 .119-.767.541.541 0 0 0-.868.645zm-47.583-3.163c.256.156.59.076.746-.178s.076-.59-.178-.746a.544.544 0 0 0-.746.178.553.553 0 0 0 .178.746zm35.186 29.898a.573.573 0 0 0 .657.398.543.543 0 0 0 .379-.654.528.528 0 0 0-.627-.403l-.011.003a.542.542 0 0 0-.398.656c-.002 0-.002 0 0 0zm-3.043-12.614c.072.29.364.47.655.398h.002a.524.524 0 0 0 .382-.635.53.53 0 1 0-1.037.235c-.002 0-.002.002-.002.002zm-3.038-12.596a.528.528 0 0 0 .627.403l.011-.003a.54.54 0 1 0-.641-.418l.003.018zm-33.28-13.145c.25.152.574.09.751-.141a.554.554 0 0 0-.159-.749.514.514 0 0 0-.734.141.534.534 0 0 0 .132.744l.01.005zm31.504 42.523a.532.532 0 0 0 1.036-.236.532.532 0 0 0-.618-.404.54.54 0 0 0-.418.64zM78.483 260.3a.541.541 0 0 0 .639.418.55.55 0 0 0 .421-.623.572.572 0 0 0-.643-.437.558.558 0 0 0-.417.642zm-2.505-12.671a.541.541 0 0 0 1.06-.205.531.531 0 0 0-.623-.421.557.557 0 0 0-.437.626zm-2.486-12.673a.514.514 0 0 0 .588.428l.033-.006c.287-.058.474-.334.421-.623s-.33-.479-.62-.425a.53.53 0 0 0-.422.626zm-16.835 18.145a.524.524 0 0 0 .423.617.538.538 0 0 0 .638-.407.547.547 0 0 0-.425-.636.556.556 0 0 0-.636.426zm2.547-12.673a.532.532 0 1 0 1.042.224l.003-.012a.556.556 0 0 0-.425-.636.524.524 0 0 0-.615.419c-.003.001-.005.002-.005.005zm43.558 16.566c.17.245.505.308.752.14a.526.526 0 0 0 .141-.733.52.52 0 0 0-.736-.161.536.536 0 0 0-.168.739l.011.015zm-7.159-10.748c.17.245.505.308.752.14a.526.526 0 0 0 .141-.733.52.52 0 0 0-.736-.161.536.536 0 0 0-.168.739l.011.015zm-7.16-10.748c.17.245.505.308.752.14a.526.526 0 0 0 .141-.733.538.538 0 0 0-.901.585.013.013 0 0 1 .008.008zm-7.18 15.175c.09.204.329.296.532.208a.406.406 0 0 0 .214-.516.386.386 0 0 0-.535-.206.399.399 0 0 0-.211.514zm-3.828-8.937a.408.408 0 1 0 .222-.543c-.004.002-.009.003-.012.006a.415.415 0 0 0-.21.537zm-16.816 7.962a.41.41 0 0 0 .412.395.423.423 0 0 0 .394-.412.401.401 0 0 0-.407-.395h-.003a.387.387 0 0 0-.394.382c-.002.012-.002.021-.002.03zm-.128-9.75a.43.43 0 0 0 .413.412.4.4 0 0 0 .394-.407v-.003a.388.388 0 0 0-.379-.396h-.014a.402.402 0 0 0-.414.394zm34.614-4.358c.152.154.4.158.554.006l.009-.009a.397.397 0 0 0 .018-.56l-.022-.022a.405.405 0 0 0-.559.585zm-30.709 1.226c.11.167.336.211.502.1a.331.331 0 0 0 .102-.483.34.34 0 0 0-.487-.12.353.353 0 0 0-.131.483l.014.02z" fill="#fff" opacity=".86"/><path d="M139.314 143.269c0 .343.015.687.015 1.03l-14.848 89.494c-4.211.312-8.293.535-12.244.671-75.629 2.527-101.94-26.982-101.94-26.982-6.504-60.344 32.208-68.299 42.221-81.181 13.491-17.343 17.578-27.56 41.113-43.032 23.551-15.472 40.474-18.732 40.474-18.732 8.75 17.64 15.971 15.051 15.971 15.051s-11.184 38.18-10.762 63.681z" fill="url(#u)"/><path d="m187.508 208.042-21.773 70.497s-24.923-5.038-35.342-23.723c-6.254-11.245-12.228-16.892-18.155-20.354-5.162-3.026-10.278-4.383-15.518-6.348-11.262-4.211-33.908-20.042-26.078-58.192 7.83-38.135 24.393-68.08 63.464-105.387l15.971 15.051s-11.183 38.181-10.762 63.682c0 .343.015.687.015 1.03.483 24.721 3.213 33.44 20.962 45.823 14.052 9.796 27.216 17.921 27.216 17.921z" fill="#23286b"/><path d="m155.831 62.508-.046.094a129.879 129.879 0 0 0-5.709 16.985s-17.343 5.958-15.971-15.051a23.033 23.033 0 0 0 3.197-7.253 59.453 59.453 0 0 0 6.504 2.48 51.565 51.565 0 0 0 6.987 2.09c.256.072.516.13.78.171.376.089.755.156 1.138.202.05.018.103.026.156.031.981.152 1.971.235 2.964.251z" fill="url(#v)"/><path d="M178.718 56.731s-12.235 22.773-41.398.565c.055.018-.05-.036 0 0 0 0 4.865-6.907-.253-11-5.093-4.107-8.664-10.065-3.06-14.326s6.782 3.308 13.091 2.174c6.334-1.146 13.427-9.019 13.427-9.019s12.489 9.106 26.362 8.623c-.204 2.149-.917 10.716.657 15.572 1.816 5.572-1.286 8.133-8.826 7.411z" fill="#ffbeb6"/><path d="M176.85 63.387a6.218 6.218 0 0 1-10.157-4.196c-.098-.942 1.356-1.27 1.454-.315a4.736 4.736 0 0 0 7.696 3.415c.751-.584 1.763.507 1.007 1.096z" fill="#1c2868"/><path d="M216.734 13.4c-4.159 13.754-17.741 22.403-31.962 20.358 10.972.372 23.193-4.781 30.965-25.069L114.895 0s-6.178 15.548-.513 30.834c4.93 13.302 18.778 23.799 22.938 26.462 0 0 4.863-6.903-.245-11.006-5.108-4.102-8.68-10.06-3.074-14.324s6.785 3.314 13.107 2.171 13.424-9.019 13.424-9.019a53.177 53.177 0 0 0 14.427 6.942c16.465 8.444 36.858.908 43.156-18.245a.724.724 0 0 0-.515-.883.726.726 0 0 0-.866.468z" fill="#23286b"/></svg></g><g transform="translate(1404.0 152.0) rotate(0.0 46.0 191.0) scale(1.8262302241102089 1.833602933764694)"><svg width="50.377" height="208.333" viewBox="0 0 50.377 208.333"><g fill="#23286b"><path d="M4.729 70.164A4.729 4.729 0 0 1 0 65.435V20.729a4.729 4.729 0 1 1 9.458 0v44.707a4.73 4.73 0 0 1-4.729 4.728z"/><path d="M4.229 46.951h1v158.194h-1zm17.134 7.213a4.729 4.729 0 0 1-4.729-4.729V4.729a4.729 4.729 0 1 1 9.458 0v44.707a4.73 4.73 0 0 1-4.729 4.728z"/><path d="M20.863 30.951h1v111.382h-1z"/></g><path d="m1.682 207.333.21-57.93 18.315-71.788h25.986L6.869 207.333z" fill="#78a9ef"/><path d="m50.377 108.875-3.442-31.26H20.374z" fill="#a1c3fc"/></svg></g><g transform="translate(1402.0 432.0) rotate(0.0 -18.5 49.5) scale(-0.7598316048875654 0.7573555286953595)"><svg width="48.695" height="130.718" viewBox="0 0 48.695 130.718"><path d="m0 130 .209-58.212L18.525 0h25.986L4.943 130z" fill="#78a9ef"/><path d="M48.695 31.26 45.252 0H18.691z" fill="#a1c3fc"/></svg></g><g transform="translate(142.0 214.0) rotate(0.0 -26.0 108.5) scale(-1.0322170831927269 1.0416016665626666)"><svg width="50.377" height="208.333" viewBox="0 0 50.377 208.333"><g fill="#23286b"><path d="M4.729 70.164A4.729 4.729 0 0 1 0 65.435V20.729a4.729 4.729 0 1 1 9.458 0v44.707a4.73 4.73 0 0 1-4.729 4.728z"/><path d="M4.229 46.951h1v158.194h-1zm17.134 7.213a4.729 4.729 0 0 1-4.729-4.729V4.729a4.729 4.729 0 1 1 9.458 0v44.707a4.73 4.73 0 0 1-4.729 4.728z"/><path d="M20.863 30.951h1v111.382h-1z"/></g><path d="m1.682 207.333.21-57.93 18.315-71.788h25.986L6.869 207.333z" fill="#78a9ef"/><path d="m50.377 108.875-3.442-31.26H20.374z" fill="#a1c3fc"/></svg></g><g transform="translate(154.0 148.0) rotate(0.0 6.5 136.5) scale(1.3746431214973034 1.443344753203908)"><svg width="9.457" height="189.144" viewBox="0 0 9.457 189.144"><g fill="#23286b"><path d="M4.729 54.164A4.729 4.729 0 0 1 0 49.435V4.729a4.729 4.729 0 1 1 9.457 0v44.707a4.728 4.728 0 0 1-4.728 4.728z"/><path d="M4.229 30.951h1v158.194h-1z"/></g></svg></g><g transform="translate(145.0 275.0) rotate(0.0 33.0 88.0) scale(1.3553752952048466 1.3464098287917503)"><svg width="48.695" height="130.718" viewBox="0 0 48.695 130.718"><path d="m0 130 .209-58.212L18.525 0h25.986L4.943 130z" fill="#78a9ef"/><path d="M48.695 31.26 45.252 0H18.691z" fill="#a1c3fc"/></svg></g></svg>