<svg xmlns="http://www.w3.org/2000/svg" viewBox="0 0 1500 1500" width="1500" height="1500"><g transform="translate(-128.0 186.0) rotate(0.0 876.0 657.0) scale(2.19 2.19)"><svg width="800" height="600" viewBox="0 0 800 600"><path d="m797.707 600 2.128-80.876v-39.235c-2.099-1.563-7.028-5.118-10.339-6.568-33.672-14.747-75.668-10.778-111.338.526-35.67 11.303-67.472 29.215-102.005 42.611-3.287 1.276-7.065 2.53-10.47 1.472-5.792-1.799-5.703-8.811-2.038-12.843s9.483-6.491 13.359-10.394c8.818-8.88 4.57-22.875-5.693-30.685s-24.698-10.818-38.602-12.834c-44.911-6.513-91.004-5.655-136.454-2.345-131.098 9.551-261.7 36.724-377.009 87.807C8.543 541.378 1.615 544.65 0 545.419V600z" fill="#e0ebfe"/><path d="M799.835 600v-45.939c-46.528 12.225-106.192 26.678-155.839 34.346-50.022 7.726-102.349 9.253-150.12-7.475-62.626-21.93-113.336-73.685-178.529-86.053-33.575-6.369-68.206-1.617-101.808 4.605C137.798 513.509 71.42 533.542 0 562v38z" fill="#d9e021"/><path d="m800 392.369-26.45 40.993c-.19.233-.403.478-.575.737l-52.592 79.151c-2.865 4.323-2.06 10.855 2.265 13.141h.002c3.414 3.048 9.779 1.619 11.875-1.348l4.244-6.207c2.865-4.322 8.518-5.399 12.843-2.351h.002c4.326 2.286 5.87 8.532 3.005 12.855l-10.239 14.95c-1.933 3.228-.29 8.771 3.053 11.057h.002c3.478 2.286 9.742 1.422 11.932-1.9l9.858-14.138c2.865-4.323 8.61-5.298 12.937-2.25h.001c4.326 2.286 5.77 8.303 2.905 12.625l-21.021 31.653-.426.579c-2.28 3.578-.525 9.245 2.953 11.531h.002c4.326 3.048 10.206 1.685 13.07-2.637L800 560.257z" fill="#afccfc"/><path d="M62.81 598.538c-.112 0-.225-.006-.339-.019-1.011-.107-1.676-.821-1.694-1.82-.019-1.097.795-2.489 1.873-2.642.541-.073 1.265.162 1.586 1.057.314-.626.497-1.29.556-1.522 19.706-77.738 83.817-189.062 106.005-220.259l1.74 1.237c-22.122 31.102-86.039 142.08-105.675 219.545-.711 2.799-2.21 4.423-4.052 4.423zm.364-2.449a.874.874 0 0 0-.188.289c.464-.099.837-.528 1.122-1.026l-1.87.504a.694.694 0 0 0 .421.297c.25.066.454-.015.515-.064z" fill="#d9e021"/><path d="m96.105 598.878-2.103-.363c14.622-84.796 14.671-170.792.144-255.599l2.104-.36c14.568 85.047 14.519 171.287-.145 256.322zm574.222.352a5356.15 5356.15 0 0 0-70.951-123.052c-5.691-9.573-13.125-18.075-22.726-25.991l2.036-2.47c9.891 8.154 17.559 16.928 23.441 26.824a5348.942 5348.942 0 0 1 67.205 116.358l.428-.206 3.407 7.061zm24.211-8.276c-.459 0-.925-.138-1.35-.416-.881-.573-1.629-1.808-1.282-2.966.213-.709.785-1.211 1.516-1.363-13.375-29.873-34.104-56.285-54.152-81.827-2.135-2.72-4.269-5.439-6.392-8.159l2.524-1.97c2.121 2.718 4.253 5.434 6.386 8.152 20.219 25.761 41.127 52.399 54.66 82.728 1.309 2.934.488 4.485-.431 5.27a2.271 2.271 0 0 1-1.479.551zm-.635-3.384-.008 1.791c.329.027.737-.196.976-.632.223-.405.144-.774.091-.856-.119-.123-.649-.228-1.023.091a.012.012 0 0 1-.002.003c-.008.002.016-.117-.034-.397zm65.478-.221c-16.736-23.948-42.005-43.366-64.298-60.498-4.923-3.783-9.572-7.356-14.135-10.968l1.987-2.509c4.546 3.597 9.187 7.163 14.1 10.939 22.477 17.273 47.952 36.851 64.971 61.202z" fill="#d9e021"/><g opacity=".27"><g fill="none"><path d="m485.556 500.86-8.031-8.031v104.615h8.031zm88.737 96.584v-7.848l-9.573-9.573v17.421zm-35.495 0v-43.343l-9.573-9.572v52.915zm17.748 0v-25.595l-9.574-9.574v35.169zm-53.243 0v-78.837l-9.573-9.574v88.411zm17.748 0v-61.089l-9.574-9.574v70.663z"/></g><path d="m582.14 597.444-7.847-7.848v7.848zm-17.42 0v-17.421l-8.174-8.174v25.595zm-17.748 0v-35.169l-8.174-8.174v43.343zm-17.747 0v-52.915l-8.174-8.174v61.089zm-17.748 0v-70.663l-8.174-8.174v78.837zm-17.747 0v-88.411l-8.174-8.173v96.584z" fill="#d9e021"/></g><path d="M285.141 440.51a1.173 1.173 0 0 0-1.418-.857 1.173 1.173 0 0 0 .562 2.277 1.166 1.166 0 0 0 .856-1.42zm-72.644-95.712a1.198 1.198 0 0 0-.4-1.649 1.096 1.096 0 0 0-1.59.454 1.157 1.157 0 0 0 .341 1.595 1.214 1.214 0 0 0 1.649-.4zm33.674 50.84a1.305 1.305 0 0 0 .229-1.71 1.217 1.217 0 0 0-1.71-.229 1.217 1.217 0 0 0-.229 1.71 1.311 1.311 0 0 0 1.71.229zM395.392 348.6a2.281 2.281 0 0 0 .632-3.129 2.17 2.17 0 0 0-2.968-.753c-.037.023-.07.039-.1.065a2.281 2.281 0 0 0-.632 3.129 2.223 2.223 0 0 0 3.068.688zm-45.551 29.638a2.248 2.248 0 0 0 .586-3.135 2.25 2.25 0 0 0-3.086-.622 2.22 2.22 0 0 0-.687 3.068 2.408 2.408 0 0 0 3.187.689zm-45.655 29.643a2.21 2.21 0 0 0 .671-3.059l-.043-.062a2.17 2.17 0 0 0-2.968-.753c-.037.023-.07.039-.1.065a2.404 2.404 0 0 0-.688 3.188 2.287 2.287 0 0 0 3.128.621zm111.038 55.261a2.223 2.223 0 0 0-2.659-1.699 2.224 2.224 0 0 0-1.699 2.659 2.232 2.232 0 0 0 2.598 1.713 2.302 2.302 0 0 0 1.76-2.673zm-53.487 9.945a2.223 2.223 0 0 0-2.659-1.699 2.224 2.224 0 0 0-1.699 2.659 2.232 2.232 0 0 0 2.598 1.713 2.303 2.303 0 0 0 1.76-2.673zm-58.833-183.711a2.269 2.269 0 0 0-.626-3.129 2.196 2.196 0 0 0-3.059.546l-.014.018a2.156 2.156 0 0 0 .37 3.027l.142.107a2.394 2.394 0 0 0 3.187-.569zm-30.831 44.853a2.39 2.39 0 0 0-.564-3.184 2.275 2.275 0 0 0-3.129.626 2.234 2.234 0 0 0 .582 3.105l.033.024a2.193 2.193 0 0 0 3.054-.54l.024-.031zm-30.772 44.788a2.148 2.148 0 0 0-.475-3.005.424.424 0 0 0-.088-.056 2.233 2.233 0 0 0-3.122.47l-.067.089a2.26 2.26 0 0 0 .602 3.133 2.26 2.26 0 0 0 3.15-.631zm182.277 136.81a2.021 2.021 0 0 0-2.16-1.826 2.005 2.005 0 0 0-1.826 2.16 1.998 1.998 0 0 0 2.16 1.826 2.022 2.022 0 0 0 1.826-2.16zm-95.012-179.656a2.12 2.12 0 0 0-.283-2.902 1.94 1.94 0 0 0-2.733.219l-.053.071a1.986 1.986 0 0 0 .197 2.815l.033.024a2.098 2.098 0 0 0 2.839-.227zm-31.167 37.111a1.99 1.99 0 0 0-.28-2.788 1.94 1.94 0 0 0-2.733.219l-.053.071a2 2 0 0 0 .19 2.822l.033.024a2.067 2.067 0 0 0 2.843-.348zm-31.218 37.283a2 2 0 0 0-.19-2.822l-.033-.024a1.891 1.891 0 0 0-2.792.285 2 2 0 0 0 .19 2.822l.033.024a2.048 2.048 0 0 0 2.792-.285zM373.618 432.6a2.035 2.035 0 0 0 .797-2.732 1.981 1.981 0 0 0-2.671-.853 2.107 2.107 0 0 0-.914 2.726 2.087 2.087 0 0 0 2.788.859zm-43.096 22.414a1.926 1.926 0 0 0 .913-2.565c-.017-.032-.037-.069-.05-.107a1.981 1.981 0 0 0-2.671-.853 2.107 2.107 0 0 0-.914 2.726 2.02 2.02 0 0 0 2.722.799zm-97.388-144.105a1.904 1.904 0 0 0-1.186-2.412c-.042-.012-.078-.03-.114-.035a2.003 2.003 0 0 0-2.542 1.237c-.008.023-.017.048-.02.065a2.072 2.072 0 0 0 1.365 2.508 1.972 1.972 0 0 0 2.48-1.275c.004-.027.005-.058.017-.088zm-14.567 46.348a2.066 2.066 0 0 0-1.305-2.562 2.03 2.03 0 0 0-1.252 3.861 1.98 1.98 0 0 0 2.527-1.191.653.653 0 0 0 .03-.108zM465.312 485.56a2.407 2.407 0 0 0 .917-3.187 2.324 2.324 0 0 0-3.125-.972 2.379 2.379 0 0 0-.917 3.187 2.324 2.324 0 0 0 3.125.972zm-49.469 26.388c1.133-.597 1.563-1.996.972-3.125s-1.996-1.563-3.125-.972a2.317 2.317 0 0 0-.972 3.125 2.317 2.317 0 0 0 3.125.972zm-131.82-177.477a2.436 2.436 0 0 0-1.591-2.958 2.336 2.336 0 0 0-2.863 1.663 2.336 2.336 0 0 0 1.548 2.827 2.383 2.383 0 0 0 2.906-1.532zm-16.28 53.628a2.377 2.377 0 0 0-1.531-2.903 2.32 2.32 0 0 0-2.903 1.531 2.32 2.32 0 0 0 1.531 2.903 2.365 2.365 0 0 0 2.903-1.531zm108.285 26.751a2.471 2.471 0 0 0-.334-3.302 2.343 2.343 0 0 0-3.247.395 2.277 2.277 0 0 0 .248 3.216l.039.029c.994.821 2.466.67 3.294-.338-.005.006 0 0 0 0zm-35.608 43.362a2.35 2.35 0 0 0-.328-3.298l-.006-.005a2.257 2.257 0 0 0-3.181.334 2.301 2.301 0 0 0 .303 3.238c.956.815 2.392.685 3.212-.269zm70.457-27.107a2.302 2.302 0 0 0-3.522-2.961 2.301 2.301 0 0 0 .213 3.181 2.35 2.35 0 0 0 3.309-.22zm-37.195 41.657a2.345 2.345 0 0 0-.225-3.3 2.381 2.381 0 0 0-3.245.165 2.465 2.465 0 0 0 .164 3.356 2.404 2.404 0 0 0 3.306-.221zm-74.662-75.183a2.368 2.368 0 0 0-1.476-2.963 2.285 2.285 0 0 0-2.902 1.42 2.254 2.254 0 0 0 1.263 2.925c.031.014.06.026.097.032a2.308 2.308 0 0 0 2.987-1.347c.016-.018.023-.041.031-.067zM23.763 351.41a1.173 1.173 0 0 0-1.418-.857 1.173 1.173 0 0 0 .562 2.277 1.17 1.17 0 0 0 .856-1.42zm110.25-91.91a2.281 2.281 0 0 0 .632-3.129 2.17 2.17 0 0 0-2.968-.753c-.037.023-.07.039-.1.065a2.281 2.281 0 0 0-.632 3.129 2.221 2.221 0 0 0 3.068.688zm-45.551 29.639a2.248 2.248 0 0 0 .586-3.135 2.25 2.25 0 0 0-3.086-.622 2.22 2.22 0 0 0-.687 3.068 2.409 2.409 0 0 0 3.187.689zm-45.655 29.642a2.21 2.21 0 0 0 .671-3.059l-.043-.062a2.17 2.17 0 0 0-2.968-.753c-.037.023-.07.039-.1.065a2.404 2.404 0 0 0-.688 3.188 2.286 2.286 0 0 0 3.128.621zm111.038 55.263a2.223 2.223 0 0 0-2.659-1.699 2.224 2.224 0 0 0-1.699 2.659 2.232 2.232 0 0 0 2.598 1.713 2.303 2.303 0 0 0 1.76-2.673zm-53.487 9.944a2.223 2.223 0 0 0-2.659-1.699A2.225 2.225 0 0 0 96 384.948a2.232 2.232 0 0 0 2.598 1.713 2.303 2.303 0 0 0 1.76-2.673zM41.526 200.276a2.269 2.269 0 0 0-.626-3.129 2.196 2.196 0 0 0-3.059.546l-.014.018a2.156 2.156 0 0 0 .37 3.027l.142.107a2.394 2.394 0 0 0 3.187-.569zM10.695 245.13a2.39 2.39 0 0 0-.564-3.184 2.275 2.275 0 0 0-3.129.626 2.234 2.234 0 0 0 .582 3.105l.033.024a2.193 2.193 0 0 0 3.054-.54l.024-.031zM162.2 426.728a2.021 2.021 0 0 0-2.16-1.826c-1.096.091-1.914 1.058-1.827 2.16s1.058 1.914 2.16 1.826a2.025 2.025 0 0 0 1.827-2.16zM67.187 247.072a2.12 2.12 0 0 0-.283-2.902 1.94 1.94 0 0 0-2.733.219l-.053.071a1.986 1.986 0 0 0 .197 2.815l.033.024a2.1 2.1 0 0 0 2.839-.227zm-31.168 37.111a1.99 1.99 0 0 0-.28-2.788 1.94 1.94 0 0 0-2.733.219l-.053.071a2 2 0 0 0 .19 2.822l.033.024a2.067 2.067 0 0 0 2.843-.348zM4.802 321.466a2 2 0 0 0-.19-2.822l-.033-.024a1.891 1.891 0 0 0-2.792.285 2 2 0 0 0 .19 2.822l.033.024a2.05 2.05 0 0 0 2.792-.285zm107.436 22.035a2.035 2.035 0 0 0 .797-2.732 1.981 1.981 0 0 0-2.671-.853 2.107 2.107 0 0 0-.914 2.726 2.087 2.087 0 0 0 2.788.859zm-43.095 22.414a1.926 1.926 0 0 0 .913-2.565c-.017-.032-.037-.069-.05-.107a1.981 1.981 0 0 0-2.671-.853 2.107 2.107 0 0 0-.914 2.726 2.02 2.02 0 0 0 2.722.799zm134.79 30.546a2.407 2.407 0 0 0 .917-3.187 2.324 2.324 0 0 0-3.125-.972 2.379 2.379 0 0 0-.917 3.187 2.325 2.325 0 0 0 3.125.972zm-49.469 26.387c1.133-.597 1.563-1.996.972-3.125s-1.996-1.563-3.125-.972a2.317 2.317 0 0 0-.972 3.125 2.316 2.316 0 0 0 3.125.972zM22.645 245.371a2.436 2.436 0 0 0-1.591-2.958 2.336 2.336 0 0 0-2.863 1.663 2.336 2.336 0 0 0 1.548 2.827 2.382 2.382 0 0 0 2.906-1.532zM6.364 299a2.377 2.377 0 0 0-1.531-2.903 2.32 2.32 0 0 0-2.903 1.531 2.32 2.32 0 0 0 1.531 2.903A2.366 2.366 0 0 0 6.364 299zm108.285 26.751a2.471 2.471 0 0 0-.334-3.302 2.342 2.342 0 0 0-3.247.396 2.277 2.277 0 0 0 .248 3.216l.039.029c.995.82 2.466.668 3.294-.339-.004.006 0 0 0 0zm-35.608 43.362a2.35 2.35 0 0 0-.328-3.298l-.006-.005a2.257 2.257 0 0 0-3.181.334 2.302 2.302 0 0 0 .303 3.238c.956.815 2.393.685 3.212-.269zm70.457-27.107a2.302 2.302 0 0 0-3.522-2.961 2.301 2.301 0 0 0 .213 3.181 2.35 2.35 0 0 0 3.309-.22zm-37.195 41.657a2.345 2.345 0 0 0-.225-3.3 2.381 2.381 0 0 0-3.245.165 2.465 2.465 0 0 0 .164 3.356 2.405 2.405 0 0 0 3.306-.221zm-74.662-75.184a2.368 2.368 0 0 0-1.476-2.963 2.285 2.285 0 0 0-2.902 1.42 2.254 2.254 0 0 0 1.263 2.925c.031.014.06.026.097.032a2.308 2.308 0 0 0 2.987-1.347.154.154 0 0 0 .031-.067z" fill="#a1c3fc"/><g opacity=".26"><g fill="none"><path d="M211.716 598.511V464.99l-16.214-16.215v149.736zm30.058 0V495.047l-16.215-16.214v119.678zm60.115 0v-43.348l-16.214-16.215v59.563zM181.658 434.932l-13.601-13.601v177.18h13.601zm150.289 163.579V585.22l-16.214-16.213v29.504zm-60.116 0v-73.406l-16.214-16.214v89.62z"/></g><path d="m345.238 598.511-13.291-13.291v13.291zm-29.505 0v-29.504l-13.844-13.844v43.348zm-30.058 0v-59.563l-13.844-13.843v73.406zm-30.058 0v-89.62l-13.843-13.844v103.464zm-30.058 0V478.833l-13.843-13.843v133.521zm-30.057 0V448.775l-13.844-13.843v163.579z" fill="#fff"/></g><g opacity=".26"><g fill="none"><path d="m321.211 526.942 60.03 60.03 6.501-6.5-53.53-53.53zm72.302 0 23.879 23.879 6.501-6.501-17.379-17.378zm-24.1 0 35.929 35.929 6.501-6.5-29.43-29.429zm-70.207 0 71.033 71.033 5.453-5.452-65.581-65.581zm118.408 0 11.829 11.829 6.5-6.501-5.328-5.328zm-72.302 0 47.979 47.98 6.501-6.5-41.479-41.48z"/></g><path d="m435.943 532.27 5.329-5.328h-10.657zm-29.429-5.328 17.379 17.378 5.55-5.549-11.829-11.829zm-24.101 0 29.43 29.429 5.549-5.55-23.879-23.879zm-24.1 0 41.479 41.48 5.55-5.551-35.929-35.929zm-24.101 0 53.53 53.53 5.549-5.55-47.979-47.98zm-24.101 0 65.581 65.581 5.549-5.551-60.03-60.03z" fill="#fff"/></g><g fill="#d9e021"><path d="m66.916 375.481-14.734-10.134c2.931 3.968 8.072 7.454 14.734 10.134zm-17.268-15.663 27.36 18.82c1.293.306 2.618.586 3.972.84l-31.54-21.696c.007.686.078 1.365.208 2.036zm.294-5.477 38.052 26.175c1.052.117 2.115.217 3.191.302l-40.68-27.983c-.222.497-.409.999-.563 1.506zm2.138-4.208 45.048 30.987c.817.018 1.638.028 2.465.028l.325-.002-46.866-32.238a18.61 18.61 0 0 0-.972 1.225zm3.209-3.472 49.922 34.34c.846-.044 1.685-.098 2.517-.162l-51.191-35.213c-.435.34-.851.685-1.248 1.035zm3.972-2.946 53.27 36.643a94.837 94.837 0 0 0 2.296-.314l-54.098-37.213c-.503.29-.993.584-1.468.884zm4.598-2.516 55.363 38.082a90.63 90.63 0 0 0 2.104-.446l-55.808-38.389c-.565.246-1.118.497-1.659.753zm5.152-2.135 56.339 38.754a74.06 74.06 0 0 0 1.925-.569l-56.43-38.817a76.97 76.97 0 0 0-1.834.632zm5.676-1.774 56.265 38.703a60.256 60.256 0 0 0 1.751-.688l-56.006-38.526c-.68.163-1.35.334-2.01.511zm6.208-1.408 55.131 37.923c.536-.265 1.06-.536 1.57-.813l-54.508-37.495a94.21 94.21 0 0 0-2.193.385zm6.776-1.018 52.869 36.368a33.91 33.91 0 0 0 1.368-.952l-51.841-35.66c-.805.072-1.604.154-2.396.244zm7.421-.574 49.321 33.926c.395-.367.77-.741 1.125-1.119l-47.807-32.885c-.886.016-1.765.042-2.639.078zm8.21-.031 44.189 30.397c.294-.443.558-.892.796-1.345l-42.026-28.908c-.977-.062-1.963-.11-2.959-.144zm9.33.739 36.798 25.313c.134-.562.226-1.131.274-1.705l-33.59-23.106a96.51 96.51 0 0 0-3.482-.502zm16.276 3.624a72.085 72.085 0 0 0-4.861-1.45l25.255 17.373a13.103 13.103 0 0 0-1.081-2.637z" opacity=".45"/></g><path d="m512.03 498.682-22.935-15.776c4.564 6.176 12.565 11.602 22.935 15.776zm-26.879-24.383 42.591 29.297c2.013.476 4.076.913 6.184 1.307l-49.098-33.773a17.63 17.63 0 0 0 .323 3.169zm.458-8.525 59.234 40.746c1.636.181 3.293.338 4.967.47l-63.325-43.56a19.612 19.612 0 0 0-.876 2.344zm3.327-6.551 70.124 48.236c1.272.029 2.55.044 3.837.044l.507-.003-72.955-50.184a29.164 29.164 0 0 0-1.513 1.907zm4.995-5.405 77.712 53.456a164.59 164.59 0 0 0 3.918-.251l-79.687-54.815a42.373 42.373 0 0 0-1.943 1.61zm6.184-4.586 82.923 57.041c1.203-.15 2.394-.312 3.574-.488L502.4 447.858a61.37 61.37 0 0 0-2.285 1.374zm7.158-3.916 86.181 59.281a131.9 131.9 0 0 0 3.274-.694l-86.874-59.758c-.879.381-1.74.772-2.581 1.171zm8.019-3.323 87.701 60.327c1.014-.285 2.012-.58 2.996-.885l-87.842-60.424c-.968.316-1.92.645-2.855.982zm8.835-2.763 87.585 60.248a93.805 93.805 0 0 0 2.726-1.071l-87.183-59.971c-1.057.253-2.099.519-3.128.794zm9.665-2.191 85.82 59.033a69.783 69.783 0 0 0 2.444-1.266l-84.851-58.366c-1.15.187-2.287.387-3.413.599zm10.548-1.585 82.299 56.611c.735-.485 1.445-.98 2.129-1.482l-80.697-55.51c-1.256.114-2.499.24-3.731.381zm11.551-.894 76.775 52.812a35.564 35.564 0 0 0 1.751-1.742l-74.418-51.191c-1.377.024-2.747.065-4.108.121zm12.781-.048 68.787 47.317c.458-.689.868-1.388 1.24-2.094l-65.42-45.001a167.837 167.837 0 0 0-4.607-.222zm14.524 1.151 57.283 39.403c.21-.876.352-1.76.427-2.653l-52.289-35.968c-1.78-.291-3.587-.552-5.421-.782zm25.337 5.642a113.855 113.855 0 0 0-7.566-2.258l39.314 27.043a20.414 20.414 0 0 0-1.682-4.104z" fill="#fff" opacity=".45"/><path d="m112.829 444.819 27.624 19.002a47.79 47.79 0 0 0 2.244-.389l-28.27-19.446a22.53 22.53 0 0 0-1.598.833zm-5.766 7.578.002.056 16.105 11.079c1.154.216 2.351.394 3.581.53l-19.431-13.366a5.855 5.855 0 0 0-.257 1.701zm8.21-8.796 28.498 19.603a40.013 40.013 0 0 0 2.055-.52l-28.769-19.79c-.617.224-1.212.46-1.784.707zm-6.809 12.715 7.523 5.175a36.227 36.227 0 0 0 5.154 1.612l-13.971-9.61c.19.98.631 1.925 1.294 2.823zm-.856-6.389 20.773 14.289c.994.078 2.006.131 3.034.154l-23.003-15.824c-.325.449-.593.91-.804 1.381zm3.08-3.681 26.14 17.981c.832-.063 1.65-.146 2.453-.246l-27.202-18.711a16.8 16.8 0 0 0-1.391.976zm-1.78 1.676 23.932 16.462a55.777 55.777 0 0 0 2.702-.074l-25.492-17.536c-.421.372-.803.754-1.142 1.148zm12.073-6.194L149.58 461.4a26.403 26.403 0 0 0 1.697-.766l-28.152-19.365c-.731.138-1.446.292-2.144.459zm3.265-.654 27.834 19.146c.53-.288 1.033-.588 1.503-.899l-26.997-18.57c-.795.09-1.576.198-2.34.323zm16.864.001 17.152 11.799c.013-.159.022-.317.022-.477 0-.542-.078-1.074-.227-1.597l-12.897-8.871a43.704 43.704 0 0 0-4.05-.854zm-13.3-.449 26.472 18.209c.463-.34.89-.691 1.279-1.053l-25.185-17.324a50.4 50.4 0 0 0-2.566.168zm4.863-.218c-.319 0-.635.004-.95.009l24.412 16.792c.379-.405.714-.821.997-1.247l-22.565-15.522a59.116 59.116 0 0 0-1.894-.032zm14.971 2.261 9.862 6.784c-1.494-2.771-5.051-5.158-9.862-6.784zm-29.65-.096 28.815 19.822a34.385 34.385 0 0 0 1.878-.642l-28.731-19.763c-.674.179-1.328.375-1.962.583zm18.086-2.059 21.46 14.762c.263-.499.459-1.01.584-1.532l-18.791-12.926a52.962 52.962 0 0 0-3.253-.304z" fill="none"/><path d="m115.987 461.491-7.523-5.175c1.497 2.026 4.122 3.806 7.523 5.175zm-8.817-7.998 13.971 9.61c.661.156 1.337.299 2.028.429l-16.105-11.079c.003.35.04.697.106 1.04zm.15-2.797 19.431 13.366a52.32 52.32 0 0 0 1.629.154l-20.773-14.289a6.62 6.62 0 0 0-.287.769zm1.092-2.149 23.003 15.965c.417.009.837.156 1.259.156h.166l-23.932-16.605c-.177.207-.343.272-.496.484zm1.638-1.773 25.492 17.536c.432-.023.86-.05 1.285-.082l-26.14-17.981a13.51 13.51 0 0 0-.637.527zm2.029-1.504 27.202 18.712c.395-.05.786-.103 1.172-.16l-27.624-19.002c-.258.147-.508.297-.75.45zm2.348-1.285 28.27 19.446c.362-.072.721-.148 1.074-.228L115.273 443.6c-.288.126-.57.254-.846.385zm2.631-1.09 28.769 19.79c.333-.094.66-.19.983-.29l-28.815-19.822c-.318.104-.631.211-.937.322zm2.898-.906 28.731 19.763c.304-.114.602-.231.895-.351l-28.599-19.672c-.347.082-.69.169-1.027.26zm3.17-.719 28.152 19.365c.274-.136.541-.274.802-.415l-27.834-19.146c-.377.061-.751.126-1.12.196zm3.46-.52 26.997 18.57c.241-.159.474-.322.699-.486l-26.472-18.209c-.412.037-.819.079-1.224.125zm3.789-.293 25.185 17.324c.202-.187.393-.378.575-.572l-24.412-16.792c-.452.008-.901.021-1.348.04zm4.193-.016 22.565 15.522c.15-.226.285-.455.407-.687l-21.46-14.762c-.5-.031-1.004-.055-1.512-.073zm4.765.377 18.791 12.926c.069-.287.116-.578.14-.87l-17.152-11.799a51.062 51.062 0 0 0-1.779-.257zm8.311 1.851a37.404 37.404 0 0 0-2.482-.741l12.897 8.871a6.685 6.685 0 0 0-.552-1.346z" fill="#a1c3fc" opacity=".45"/><path d="M635.42 536.669c-4.276 0-7.755-3.478-7.755-7.755s3.479-7.756 7.755-7.756c4.277 0 7.756 3.479 7.756 7.756-.002 4.277-3.48 7.755-7.756 7.755zm0-14.442c-3.687 0-6.687 3-6.687 6.688 0 3.687 3 6.687 6.687 6.687 3.688 0 6.688-3 6.688-6.687s-3-6.688-6.688-6.688z" fill="#fff"/><path d="M635.42 541.21c-6.779 0-12.295-5.516-12.295-12.295 0-6.78 5.516-12.296 12.295-12.296 6.78 0 12.296 5.516 12.296 12.296-.001 6.779-5.517 12.295-12.296 12.295zm0-23.524c-6.191 0-11.228 5.038-11.228 11.229s5.037 11.228 11.228 11.228 11.229-5.037 11.229-11.228c-.001-6.192-5.038-11.229-11.229-11.229z" fill="#fff"/><path d="M635.42 546.318c-9.596 0-17.403-7.807-17.403-17.403 0-9.597 7.807-17.405 17.403-17.405s17.405 7.807 17.405 17.405c-.001 9.596-7.809 17.403-17.405 17.403zm0-33.741c-9.008 0-16.336 7.329-16.336 16.337s7.328 16.336 16.336 16.336 16.337-7.328 16.337-16.336-7.33-16.337-16.337-16.337z" fill="#fff"/><path d="M635.42 551.994c-12.726 0-23.08-10.353-23.08-23.078 0-12.726 10.353-23.08 23.08-23.08s23.08 10.353 23.08 23.08c-.001 12.725-10.354 23.078-23.08 23.078zm0-45.092c-12.138 0-22.012 9.875-22.012 22.012 0 12.138 9.875 22.012 22.012 22.012s22.012-9.874 22.012-22.012c0-12.136-9.875-22.012-22.012-22.012z" fill="#fff"/><path d="M635.42 557.102c-15.542 0-28.188-12.645-28.188-28.188s12.645-28.188 28.188-28.188 28.188 12.645 28.188 28.188c-.001 15.543-12.645 28.188-28.188 28.188zm0-55.308c-14.954 0-27.12 12.167-27.12 27.121s12.166 27.12 27.12 27.12 27.121-12.166 27.121-27.12-12.167-27.121-27.121-27.121z" fill="#fff"/><g opacity=".31"><g fill="none"><path d="M764.666 440.493h35.169v-9.574H774.24zm-35.494 35.494h70.663v-9.573h-61.09zm53.242-53.242h17.421v-9.573h-7.847zm-87.194 87.194h104.615v-8.03h-96.584zm16.205-16.204h88.41v-9.574h-78.837zm35.494-35.495h52.916v-9.573h-43.342z"/></g><path d="M799.835 413.172v-7.848l-7.847 7.848zm-25.595 17.747h25.595v-8.174h-17.421zm-17.747 17.748h43.342v-8.174h-35.169zm-17.748 17.747h61.09v-8.174h-52.916zm-17.747 17.747h78.837v-8.174h-70.663zm-17.747 17.748h96.584v-8.174h-88.41z" fill="#428dfc"/></g><path d="M117.632 574.156a.348.348 0 1 0-.333.61.348.348 0 0 0 .333-.61zm-35.498-3.313a.355.355 0 0 0-.44-.243.325.325 0 0 0-.22.438.342.342 0 0 0 .417.245.36.36 0 0 0 .243-.44zm17.871 2.835a.388.388 0 0 0-.328-.393.362.362 0 1 0-.065.721.391.391 0 0 0 .393-.328zm19.644-42.064a.677.677 0 0 0-.558-.766.644.644 0 0 0-.76.498c-.002.013-.005.023-.006.035a.677.677 0 0 0 .558.766.66.66 0 0 0 .766-.533zm-2.656 15.905a.667.667 0 0 0-.568-.757.668.668 0 0 0-.755.55.66.66 0 0 0 .533.766.714.714 0 0 0 .79-.559zm-2.675 15.928a.655.655 0 0 0-.534-.76l-.022-.003a.644.644 0 0 0-.76.498c-.002.013-.005.023-.006.035a.714.714 0 0 0 .559.79.679.679 0 0 0 .763-.56zm34.354-13.195a.66.66 0 0 0-.905.241.66.66 0 0 0 1.136.68.682.682 0 0 0-.231-.921zm-8.553 13.69a.66.66 0 0 0-.905.241.662.662 0 0 0 1.136.681.683.683 0 0 0-.231-.922zm-51.97-23.983a.674.674 0 0 0-.81-.491.653.653 0 0 0-.494.779l.002.007a.64.64 0 0 0 .736.527l.052-.01a.713.713 0 0 0 .514-.812zm3.623 15.738a.708.708 0 0 0-.809-.515.676.676 0 0 0-.491.81c.083.357.44.579.796.495l.012-.002a.652.652 0 0 0 .495-.776l-.003-.012zm3.622 15.712a.637.637 0 0 0-.753-.499c-.01.002-.021.004-.03.008a.663.663 0 0 0-.523.777l.006.033a.67.67 0 0 0 .805.497.67.67 0 0 0 .497-.805l-.002-.011zm66.474-12.417a.6.6 0 0 0-.833.106.594.594 0 0 0 .939.727.6.6 0 0 0-.106-.833zm-58.34-15.258a.628.628 0 0 0-.691-.52.576.576 0 0 0-.5.642l.005.026a.59.59 0 0 0 .655.522l.012-.002a.626.626 0 0 0 .519-.668zm1.863 14.258a.59.59 0 0 0-.666-.498.576.576 0 0 0-.5.642l.005.026c.036.326.33.56.655.524l.012-.002a.614.614 0 0 0 .494-.692zm1.891 14.304a.593.593 0 0 0-.655-.524l-.012.002a.561.561 0 0 0-.498.667c.036.326.33.56.655.524l.012-.002a.607.607 0 0 0 .498-.667zm26.367-19.072a.604.604 0 0 0-.437-.722.587.587 0 0 0-.722.413.626.626 0 0 0 .413.747.621.621 0 0 0 .746-.438zm-3.742 13.919a.571.571 0 0 0-.378-.714c-.011-.003-.023-.005-.034-.011a.587.587 0 0 0-.722.413.626.626 0 0 0 .413.747.601.601 0 0 0 .721-.435zm-51.044-7.609a.564.564 0 0 0-.765-.225c-.011.007-.022.011-.03.018a.593.593 0 0 0-.239.804l.01.018a.614.614 0 0 0 .822.205.586.586 0 0 0 .219-.798c-.006-.007-.013-.013-.017-.022zm7.212 12.481a.614.614 0 0 0-.822-.229.603.603 0 0 0 .593 1.048.587.587 0 0 0 .229-.819zm77.545-28.219a.714.714 0 0 0-.513-.84.69.69 0 0 0-.839.488.706.706 0 0 0 .513.84.69.69 0 0 0 .839-.488zm-4.151 16.11a.687.687 0 1 0-1.33-.35.687.687 0 0 0 1.33.35zm-65.247-6.774a.723.723 0 0 0-.966-.245.694.694 0 0 0 .718 1.188.707.707 0 0 0 .248-.943zm8.461 14.316a.706.706 0 0 0-.942-.248.689.689 0 0 0 .694 1.19.702.702 0 0 0 .248-.942zm27.568-18.312a.733.733 0 0 0-.789-.589.695.695 0 0 0-.565.789c.044.37.38.636.753.591l.014-.002a.694.694 0 0 0 .587-.789c.001.003 0 0 0 0zm2.34 16.484a.698.698 0 0 0-.787-.59l-.002.001a.67.67 0 0 0-.565.763.684.684 0 0 0 1.354-.174zm8.205-20.843a.683.683 0 0 0-1.353.176.682.682 0 0 0 .738.591.698.698 0 0 0 .615-.767zm1.648 16.488a.696.696 0 0 0-.767-.613.707.707 0 0 0-.615.743c.05.382.385.659.767.637a.714.714 0 0 0 .615-.767zm-31.415 1.246a.704.704 0 0 0-.944-.272.678.678 0 0 0-.271.92.668.668 0 0 0 .92.296.686.686 0 0 0 .295-.944zm638.862 31.008a.348.348 0 1 1 .333.609.348.348 0 0 1-.333-.609zm35.499-3.313a.355.355 0 0 1 .44-.243.326.326 0 0 1 .22.439.343.343 0 0 1-.417.245.36.36 0 0 1-.243-.441zm-17.871 2.835a.388.388 0 0 1 .328-.393.362.362 0 1 1 .065.721.39.39 0 0 1-.393-.328zm-19.644-42.064a.677.677 0 0 1 .558-.766.644.644 0 0 1 .76.498c.002.013.005.023.006.035a.677.677 0 0 1-.558.766.66.66 0 0 1-.766-.533zm2.656 15.905a.667.667 0 0 1 .568-.757.667.667 0 0 1 .755.55.66.66 0 0 1-.533.766.714.714 0 0 1-.79-.559zm2.675 15.928a.654.654 0 0 1 .534-.76l.022-.003a.644.644 0 0 1 .76.498c.002.013.005.023.006.035a.714.714 0 0 1-.559.79.68.68 0 0 1-.763-.56zm-34.354-13.195a.66.66 0 0 1 .905.241.66.66 0 0 1-1.136.68.682.682 0 0 1 .231-.921zm8.553 13.69a.66.66 0 0 1 .905.241.662.662 0 0 1-1.136.681.685.685 0 0 1 .231-.922zm51.971-23.983a.673.673 0 0 1 .81-.491.652.652 0 0 1 .494.779l-.001.007a.64.64 0 0 1-.736.527l-.052-.01a.71.71 0 0 1-.515-.812zm-3.624 15.738a.708.708 0 0 1 .809-.515.676.676 0 0 1 .491.81.662.662 0 0 1-.796.495l-.012-.002a.652.652 0 0 1-.495-.776l.003-.012zm-3.621 15.712a.637.637 0 0 1 .753-.499c.01.002.021.004.03.008a.663.663 0 0 1 .523.777l-.006.033a.67.67 0 0 1-.805.497.67.67 0 0 1-.495-.816zm-66.475-12.417a.6.6 0 0 1 .833.106.594.594 0 0 1-.939.727.601.601 0 0 1 .106-.833zm58.34-15.258a.628.628 0 0 1 .691-.52c.315.04.539.326.5.642l-.005.026a.59.59 0 0 1-.655.522l-.012-.002a.627.627 0 0 1-.519-.668zm-1.863 14.258a.59.59 0 0 1 .666-.498c.315.04.539.326.5.642l-.005.026a.593.593 0 0 1-.655.524l-.012-.002a.614.614 0 0 1-.494-.692zm-1.891 14.304a.593.593 0 0 1 .655-.524l.012.002a.562.562 0 0 1 .498.667.593.593 0 0 1-.655.524l-.012-.002a.606.606 0 0 1-.498-.667zm-26.367-19.072a.604.604 0 0 1 .437-.722.587.587 0 0 1 .722.413.626.626 0 0 1-.413.747.62.62 0 0 1-.746-.438zm3.743 13.919a.571.571 0 0 1 .378-.714c.011-.003.023-.006.034-.011a.587.587 0 0 1 .722.413.626.626 0 0 1-.413.747.6.6 0 0 1-.721-.435zm51.043-7.609a.564.564 0 0 1 .765-.225c.011.007.022.011.03.018a.593.593 0 0 1 .239.804l-.01.018a.613.613 0 0 1-.822.204.586.586 0 0 1-.219-.798c.006-.006.013-.012.017-.021zm-7.212 12.481a.613.613 0 0 1 .821-.229.603.603 0 0 1-.593 1.048.587.587 0 0 1-.228-.819zm-77.545-28.219a.714.714 0 0 1 .513-.84.69.69 0 0 1 .839.488.706.706 0 0 1-.513.84.689.689 0 0 1-.839-.488zm4.152 16.109a.687.687 0 1 1 1.33-.35.687.687 0 0 1-1.33.35zm65.246-6.773a.723.723 0 0 1 .966-.245.695.695 0 0 1-.719 1.188.708.708 0 0 1-.247-.943zm-8.461 14.316a.706.706 0 0 1 .942-.248.689.689 0 0 1-.694 1.19.702.702 0 0 1-.248-.942zm-27.568-18.312a.733.733 0 0 1 .789-.589.695.695 0 0 1 .565.789.676.676 0 0 1-.753.591l-.014-.002a.694.694 0 0 1-.587-.789zm-2.339 16.484a.698.698 0 0 1 .787-.59l.002.001a.67.67 0 0 1 .565.763.684.684 0 0 1-1.354-.174zm-8.206-20.843a.683.683 0 0 1 1.353.176.682.682 0 0 1-.738.591.697.697 0 0 1-.615-.767zm-1.648 16.488a.696.696 0 0 1 .767-.613.707.707 0 0 1 .615.743.731.731 0 0 1-.767.637.714.714 0 0 1-.615-.767zm31.415 1.246a.704.704 0 0 1 .944-.272c.328.18.451.591.271.92a.669.669 0 0 1-.92.296.686.686 0 0 1-.305-.924c.002-.007.006-.013.01-.02z" fill="#fff"/></svg></g><g transform="translate(456.0 314.0) rotate(0.0 331.5 526.0) scale(2.104761904761905 2.104)"><svg width="315" height="500" viewBox="0 0 315 500"><linearGradient id="a" gradientUnits="userSpaceOnUse" x1="5532.705" y1="1850.972" x2="6012.311" y2="5870.067" gradientTransform="matrix(0.0762 0 0 0.0762 -206.9312 -84.891)"><stop offset="0" style="stop-color:#eee"/><stop offset="1" style="stop-color:#dce3ea"/></linearGradient><path fill="url(#a)" d="m167.266 22.825-37.894 192.779h147.733L315 22.825H167.266zm91.547 160.674h-98.527L185.558 54.93h98.527l-25.272 128.569z"/><linearGradient id="b" gradientUnits="userSpaceOnUse" x1="4806.396" y1="-4730.034" x2="4981.494" y2="-2999.657" gradientTransform="matrix(0.0741 0 0 -0.0741 -207.4016 52.7163)"><stop offset="0" style="stop-color:#eee"/><stop offset="1" style="stop-color:#dce3ea"/></linearGradient><path fill="url(#b)" d="M170.874 217.432 145.373 500h-4.275l20.039-282.568z"/><linearGradient id="c" gradientUnits="userSpaceOnUse" x1="6159.957" y1="-5084.57" x2="6067.257" y2="-3704.39" gradientTransform="matrix(0.0741 0 0 -0.0741 -207.4016 52.7163)"><stop offset="0" style="stop-color:#eee"/><stop offset="1" style="stop-color:#dce3ea"/></linearGradient><path fill="url(#c)" d="M259.187 500h-4.275L229.41 217.432h9.737z"/><linearGradient id="d" gradientUnits="userSpaceOnUse" x1="6668.322" y1="-4635.975" x2="6561.194" y2="-3357.151" gradientTransform="matrix(0.0741 0 0 -0.0741 -207.4016 52.7163)"><stop offset="0" style="stop-color:#eee"/><stop offset="1" style="stop-color:#dce3ea"/></linearGradient><path fill="url(#d)" d="M296.657 500h-4.265l-25.701-284.571 9.772.058z"/><linearGradient id="e" gradientUnits="userSpaceOnUse" x1="4761.713" y1="-2142.273" x2="6255.184" y2="-2142.273" gradientTransform="matrix(0.0741 0 0 -0.0741 -207.4016 52.7163)"><stop offset="0" style="stop-color:#28306d"/><stop offset=".51" style="stop-color:#1f275f"/><stop offset="1" style="stop-color:#171f51"/></linearGradient><path fill="url(#e)" d="M253.232 217.43H145.441l2.875-11.943h107.792z"/><linearGradient id="f" gradientUnits="userSpaceOnUse" x1="5979.48" y1="754.916" x2="5908.482" y2="441.341" gradientTransform="matrix(0.0741 0 0 -0.0741 -207.4016 52.7163)"><stop offset="0" style="stop-color:#28306d"/><stop offset=".51" style="stop-color:#1f275f"/><stop offset="1" style="stop-color:#171f51"/></linearGradient><path fill="url(#f)" d="M236.6 22.433h-13.175L228.217 0h13.176z"/><g><linearGradient id="g" gradientUnits="userSpaceOnUse" x1="2798.942" y1="-5808.28" x2="4002.612" y2="-5808.28" gradientTransform="matrix(0.0741 0 0 -0.0741 -207.4016 52.7163)"><stop offset="0" style="stop-color:#a1c3fc"/><stop offset=".696" style="stop-color:#81aef2"/><stop offset="1" style="stop-color:#78a9ef"/></linearGradient><path fill="url(#g)" d="M12.634 466.487 0 499.733l89.192.003s-4.573-8.321-19.819-14.485c-15.246-6.163-27.629-18.767-27.629-18.767l-29.11.003"/><path fill="#A1C3FC" d="m63.042 466.487-12.634 33.245 89.192.003s-4.573-8.321-19.819-14.485c-15.246-6.163-29.475-18.764-29.475-18.764H63.042"/></g><linearGradient id="h" gradientUnits="userSpaceOnUse" x1="2519.982" y1="-3876.706" x2="3528.632" y2="-3876.706" gradientTransform="matrix(0.0741 0 0 -0.0741 -207.4016 52.7163)"><stop offset="0" style="stop-color:#23286b"/><stop offset="1" style="stop-color:#151a4f"/></linearGradient><path fill="url(#h)" d="M85.688 342.198c0 15.833-22.759 73.241-35.519 104.189a1619.678 1619.678 0 0 1-8.423 20.098H12.638c-5.039-33.659 1.32-73.232 17.272-101.744 11.572-20.692 9.886-45.544 8.088-57.63-.671-4.572-1.371-7.313-1.371-7.313-7.528-28.445-9.245-48.869-8.89-62.68 0-.115 0-.22.01-.326.417-14.607 3.16-21.727 3.738-23.078a9.72 9.72 0 0 0 .102-.239l51.725 6.268a160.912 160.912 0 0 0-.132 17.041c-1.342 31.262 2.508 87.521 2.508 105.414z"/><linearGradient id="i" gradientUnits="userSpaceOnUse" x1="3645.909" y1="-3764.672" x2="4370.875" y2="-692.632" gradientTransform="matrix(0.0741 0 0 -0.0741 -207.4016 52.7163)"><stop offset="0" style="stop-color:#23286b"/><stop offset="1" style="stop-color:#151a4f"/></linearGradient><path fill="url(#i)" d="m90.352 466.504-27.31-.019s-10.181-7.341-12.873-20.098c-.03-.162-.071-.335-.102-.508-2.519-13.073-.01-9.862-4.206-31.647-4.195-21.775-7.976-28.11-3.779-51.073 3.424-18.775 2.378-27.228-4.084-56.048-1.442-6.45-3.16-13.916-5.151-22.753-4.552-20.145-5.527-35.816-5.111-47.24 0-.115 0-.22.01-.326.539-14.127 3.2-21.669 3.738-23.078a9.72 9.72 0 0 0 .102-.239l52.05 2.779a80.92 80.92 0 0 0-.325 3.489 160.912 160.912 0 0 0-.132 17.041c1.199 31.752 8.768 76.337 10.119 96.675 1.677 25.338-2.946 133.045-2.946 133.045z"/><path opacity=".72" fill="#FFF" d="M52.195 224.201c.004.115.1.204.215.201a.199.199 0 0 0 .199-.198v-.008a.207.207 0 0 0-.414.005zm5.098-.093a.213.213 0 0 0 .203.225.213.213 0 0 0 .225-.203.213.213 0 0 0-.203-.225h-.012a.215.215 0 0 0-.213.203zm5.111-.089a.194.194 0 0 0 .189.198h.011a.203.203 0 0 0 .213-.191.202.202 0 0 0-.191-.213h-.024a.19.19 0 0 0-.2.178l.002.028zm5.099-.093c.004.115.1.204.215.201a.202.202 0 0 0-.002-.403.208.208 0 0 0-.213.202zm5.098-.093a.214.214 0 1 0 .225-.203h-.012a.21.21 0 0 0-.213.203zm-11.747 19.085a.219.219 0 0 0 .296-.003.188.188 0 0 0 .008-.267l-.011-.011a.218.218 0 0 0-.296.004.187.187 0 0 0-.008.266l.011.011zm3.536-3.468a.24.24 0 0 0 .309 0 .193.193 0 0 0-.008-.273l-.009-.008a.206.206 0 0 0-.291-.002l-.005.005a.188.188 0 0 0-.008.267l.012.011zm3.549-3.466a.218.218 0 0 0 .296-.004.208.208 0 0 0 0-.292.245.245 0 0 0-.313.013c-.073.078-.07.2.008.273.003.005.006.007.009.01zm3.536-3.468a.219.219 0 0 0 .296-.003.204.204 0 0 0 .003-.289l-.003-.003a.219.219 0 0 0-.296.003.205.205 0 0 0 0 .292zm9.324 17.657c.004.115.1.204.215.201a.19.19 0 0 0 .2-.178v-.027a.201.201 0 0 0-.201-.198.21.21 0 0 0-.214.202zm-23.796-17.027a.198.198 0 0 0 .268.101.18.18 0 0 0 .109-.253.198.198 0 0 0-.268-.101.18.18 0 0 0-.119.225c.001.01.005.02.01.028zm4.676-1.921c.037.08.125.122.21.102l.014.003a.055.055 0 0 0 .045-.004.2.2 0 0 0 .113-.266.21.21 0 0 0-.268-.101.194.194 0 0 0-.12.246c0 .005.003.014.006.02zm4.676-1.922a.21.21 0 0 0 .272.088.179.179 0 0 0 .121-.222l-.012-.03a.198.198 0 0 0-.268-.101.193.193 0 0 0-.12.245l.007.02zm4.68-1.936a.198.198 0 0 0 .268.101.193.193 0 0 0 .12-.245l-.008-.021a.21.21 0 0 0-.268-.101.194.194 0 0 0-.119.248c.001.006.004.011.007.018zm-.086 18.519a.213.213 0 0 0 .125.263.227.227 0 0 0 .28-.118.205.205 0 0 0-.125-.263h-.001a.235.235 0 0 0-.279.118zm1.863-4.48a.194.194 0 0 0 .118.247l.009.003a.2.2 0 0 0 .181-.355c-.009-.005-.019-.008-.029-.012a.233.233 0 0 0-.279.117zm-38.339-6.88a.403.403 0 0 0 .517.227.363.363 0 0 0 .244-.453l-.007-.021a.403.403 0 0 0-.517-.227.363.363 0 0 0-.244.453l.007.021zm9.102-3.082a.406.406 0 0 0 .517.227.367.367 0 0 0 .251-.456l-.01-.031a.397.397 0 0 0-.504-.223.385.385 0 0 0-.254.483zm9.115-3.08a.416.416 0 0 0 .517.227c.2-.066.309-.28.243-.478l-.003-.009a.42.42 0 0 0-.517-.227.367.367 0 0 0-.251.456l.011.031zm9.102-3.081c.068.143.21.235.367.235a.26.26 0 0 0 .149-.008.36.36 0 0 0 .182-.14l.014.003a.35.35 0 0 0 .044-.351.403.403 0 0 0-.517-.227.378.378 0 0 0-.239.488zm9.119-3.092a.4.4 0 0 0 .5.236.385.385 0 0 0 .254-.483v-.001a.406.406 0 0 0-.517-.227.353.353 0 0 0-.237.475zm-18.146 43.573a.375.375 0 0 0 .182.496l.015.007c.194.097.431.02.529-.173a.375.375 0 0 0-.182-.496l-.015-.007a.407.407 0 0 0-.529.173zm4.121-8.249a.375.375 0 0 0 .182.496l.015.007a.415.415 0 0 0 .532-.186.364.364 0 0 0-.16-.488l-.022-.01a.438.438 0 0 0-.547.181zm4.138-8.259a.364.364 0 0 0 .163.487c.01.006.022.01.033.014a.385.385 0 0 0 .52-.154.385.385 0 0 0-.154-.52c-.009-.006-.02-.01-.03-.014a.417.417 0 0 0-.532.187zm4.121-8.25a.375.375 0 0 0 .182.496l.015.007a.414.414 0 0 0 .532-.186.364.364 0 0 0-.16-.488l-.022-.01a.411.411 0 0 0-.547.181zm4.138-8.259a.355.355 0 0 0 .183.498.398.398 0 0 0 .531-.183l.001-.003a.36.36 0 0 0-.154-.485l-.028-.013a.418.418 0 0 0-.533.186zM36.395 218.36a.383.383 0 0 0 .377.392h.008a.38.38 0 1 0-.385-.392zm9.674.432a.388.388 0 0 0 .37.402.395.395 0 0 0 .415-.365.372.372 0 0 0-.352-.389h-.021a.375.375 0 0 0-.411.337l-.001.015zm-7.016 32.369c.15.159.4.173.566.029a.361.361 0 0 0 .018-.537.413.413 0 0 0-.566-.029.37.37 0 0 0-.031.523l.013.014zm7.165-6.138c.15.159.4.173.566.029a.36.36 0 0 0 .044-.508c-.008-.009-.017-.02-.026-.028a.413.413 0 0 0-.566-.029.37.37 0 0 0-.031.522c.003.005.008.009.013.014zm7.16-6.125a.429.429 0 0 0 .569.016.37.37 0 0 0 .044-.521l-.012-.013a.443.443 0 0 0-.58-.032.387.387 0 0 0-.021.55zm7.168-6.151c.15.159.4.173.566.029a.371.371 0 0 0 .041-.524l-.009-.01a.426.426 0 0 0-.569-.016.344.344 0 0 0-.064.481c.01.015.022.027.035.04zm7.162-6.126a.429.429 0 0 0 .569.016.346.346 0 0 0 .015-.523.393.393 0 0 0-.552-.026.363.363 0 0 0-.032.533zm4.591 39.439c0 .215.173.389.388.392a.382.382 0 0 0 .412-.351v-.001a.371.371 0 0 0-.336-.401l-.033-.001a.42.42 0 0 0-.431.362zm.473-9.123c.003.214.17.39.383.406a.395.395 0 0 0 .415-.365.402.402 0 0 0-.41-.392.4.4 0 0 0-.388.351zm.469-9.108a.372.372 0 0 0 .352.389h.021a.38.38 0 0 0 .427-.324.38.38 0 0 0-.384-.43.395.395 0 0 0-.416.365zm.457-9.126c0 .215.173.389.388.392.207.02.391-.13.411-.337l.001-.014a.388.388 0 0 0-.37-.402.406.406 0 0 0-.43.361zm-40.837 5.674a.374.374 0 0 0 .498.07.314.314 0 0 0 .1-.433c-.008-.012-.016-.025-.025-.035a.363.363 0 0 0-.498-.07.328.328 0 0 0-.084.455l.009.013zm6.921-4.875a.376.376 0 0 0 .498.07.33.33 0 0 0 .095-.458l-.017-.025a.378.378 0 0 0-.501-.057.318.318 0 0 0-.098.437c.006.012.015.023.023.033zm6.86-5.109a.267.267 0 0 0 .059.235.376.376 0 0 0 .498.07.33.33 0 0 0 .095-.458l-.017-.025a.365.365 0 0 0-.304-.137l-.013-.003a.256.256 0 0 0-.179.071.285.285 0 0 0-.139.247zm6.979-4.64a.39.39 0 0 0 .498.07.342.342 0 0 0 .077-.482.374.374 0 0 0-.498-.07.331.331 0 0 0-.095.458l.018.024zm6.919-4.874a.38.38 0 0 0 .501.057.327.327 0 0 0 .084-.455l-.009-.013a.393.393 0 0 0-.511-.073.344.344 0 0 0-.067.481l.002.003zm3.501 36.764a.36.36 0 0 0 .314.389.34.34 0 1 0 .118-.67c-.008-.001-.015-.003-.023-.003a.37.37 0 0 0-.409.284zm1.247-8.047a.337.337 0 0 0 .3.372h.003a.34.34 0 1 0 .118-.67c-.008-.001-.015-.003-.023-.003a.363.363 0 0 0-.398.301zm1.237-8.077a.34.34 0 0 0 .286.385l.014.002a.334.334 0 0 0 .396-.285.34.34 0 0 0-.286-.385l-.014-.002a.36.36 0 0 0-.396.285zm1.232-8.049a.337.337 0 0 0 .3.372h.003a.341.341 0 0 0 .405-.258.341.341 0 0 0-.294-.411.376.376 0 0 0-.414.297zm1.238-8.075a.34.34 0 0 0 .286.385l.014.002a.353.353 0 0 0 .409-.283.36.36 0 0 0-.314-.389.365.365 0 0 0-.395.285zm-32.014-4.424a.351.351 0 0 0 .439.237h.001a.316.316 0 0 0 .247-.402.355.355 0 0 0-.437-.25.346.346 0 0 0-.25.415zm8.375-2.008a.355.355 0 0 0 .424.247.341.341 0 0 0 .267-.403l-.002-.009a.378.378 0 0 0-.437-.25.336.336 0 0 0-.252.415zm8.363-2.013a.364.364 0 0 0 .437.25.353.353 0 0 0 .265-.412.36.36 0 0 0-.441-.237.324.324 0 0 0-.268.371l.007.028zm-5.514 30.901a.33.33 0 0 0 .12.452l.014.008a.365.365 0 0 0 .484-.113.341.341 0 0 0-.117-.469h-.001a.38.38 0 0 0-.5.122zm4.426-7.001a.312.312 0 0 0 .083.435l.037.022a.365.365 0 0 0 .484-.113.342.342 0 0 0-.116-.469h-.001a.371.371 0 0 0-.487.125zm4.411-7.005c-.095.15-.05.35.101.446l.02.011a.365.365 0 0 0 .484-.113.312.312 0 0 0-.083-.435l-.037-.022a.355.355 0 0 0-.485.113zm4.411-7.004c-.095.15-.05.35.101.446l.02.011a.36.36 0 0 0 .316.029l.014.003a.398.398 0 0 0 .169-.143.33.33 0 0 0-.12-.452l-.014-.008a.367.367 0 0 0-.486.114zm4.41-7.006a.339.339 0 0 0 .117.465l.014.008c.171.09.382.035.487-.127a.459.459 0 0 0 .047-.128.266.266 0 0 1-.05-.206.3.3 0 0 0-.13-.127.37.37 0 0 0-.485.115zm14.982 32.996c.05.181.237.287.419.236l.008-.002a.336.336 0 0 0 .271-.389l-.005-.024a.37.37 0 0 0-.441-.237.329.329 0 0 0-.252.416zm-2.13-7.901a.368.368 0 0 0 .437.25.334.334 0 0 0 .254-.4l-.004-.015a.354.354 0 0 0-.423-.247.33.33 0 0 0-.273.379l.009.033zm-6.38-23.686a.354.354 0 0 0 .423.247.341.341 0 0 0 .267-.403l-.002-.01a.378.378 0 0 0-.437-.25.336.336 0 0 0-.255.401l.004.015zm-31.195.507a.226.226 0 0 0 .286.092.203.203 0 0 0 .098-.269.226.226 0 0 0-.286-.092.201.201 0 0 0-.098.269zm4.584-2.083c.06.098.181.137.286.092a.205.205 0 0 0 .098-.269.226.226 0 0 0-.286-.092.2.2 0 0 0-.098.269c0-.001 0-.001 0 0zm4.601-2.091a.21.21 0 0 0 .272.089.18.18 0 0 0 .097-.269.21.21 0 0 0-.272-.088.183.183 0 0 0-.115.232c.004.01.009.024.018.036zm6.804 17.495a.194.194 0 0 0 .118.247l.009.003a.212.212 0 0 0 .265-.121.193.193 0 0 0-.119-.247l-.009-.003a.21.21 0 0 0-.264.121zm1.672-4.537a.205.205 0 0 0 .142.253h.001a.21.21 0 0 0 .265-.121.187.187 0 0 0-.104-.243l-.023-.008a.22.22 0 0 0-.281.119zM60.487 230a.194.194 0 0 0 .118.247l.009.003a.21.21 0 0 0 .265-.121.187.187 0 0 0-.104-.243l-.024-.008a.212.212 0 0 0-.264.122zm1.685-4.535-.013.052a.22.22 0 0 0 .141.199.212.212 0 0 0 .265-.121.202.202 0 0 0-.063-.222l-.014-.003a.085.085 0 0 0-.052-.025.202.202 0 0 0-.264.12zm1.672-4.538a.194.194 0 0 0 .118.247l.009.003a.202.202 0 0 0 .263-.116l.002-.005a.187.187 0 0 0-.104-.243l-.024-.008a.214.214 0 0 0-.264.122zm8.058 4.164c.06.097.181.136.286.092a.203.203 0 0 0 .098-.269.21.21 0 0 0-.272-.089.194.194 0 0 0-.119.248l.007.018zm-22.46 6.89a.237.237 0 0 0 .298-.016.185.185 0 0 0-.017-.28.21.21 0 0 0-.296.014l-.002.002c-.073.078-.07.2.008.273l.009.007zm3.401-3.581a.237.237 0 0 0 .298-.016.197.197 0 0 0-.014-.279l-.003-.003a.21.21 0 0 0-.296.004.194.194 0 0 0-.008.275.211.211 0 0 1 .023.019zm3.392-3.598a.21.21 0 0 0 .298-.016.194.194 0 0 0-.008-.274l-.009-.008a.237.237 0 0 0-.298.016.185.185 0 0 0-.003.263l.02.019zm3.388-3.585a.21.21 0 0 0 .298-.016.193.193 0 0 0-.008-.273l-.009-.008a.237.237 0 0 0-.298.016c-.073.078-.07.2.008.273l.009.008zm8.106 16.83a.2.2 0 0 0 .212.188h.006a.199.199 0 0 0 .199-.198v-.008a.192.192 0 0 0-.218-.188.199.199 0 0 0-.199.198v.008zm-.292-4.798c.013.115.116.2.232.191a.195.195 0 0 0 .185-.204v-.004a.192.192 0 0 0-.218-.188.199.199 0 0 0-.199.205zm-.294-4.797a.223.223 0 0 0 .232.191.219.219 0 0 0 .203-.219.217.217 0 0 0-.235-.178.21.21 0 0 0-.2.206zm-.279-4.795a.2.2 0 0 0 .212.188h.006a.227.227 0 0 0 .176-.113.144.144 0 0 0 .026-.105.213.213 0 0 0-.218-.188.234.234 0 0 0-.131.053l-.003.013a.145.145 0 0 0-.068.152zm3.45-1.434a.258.258 0 0 0 .341.049.227.227 0 0 0 .052-.322.258.258 0 0 0-.341-.049.227.227 0 0 0-.059.313l.007.009zm-34.393 6.73c.08.1.223.12.327.045a.215.215 0 0 0 .072-.294c-.006-.009-.012-.019-.02-.027a.239.239 0 0 0-.327-.045.227.227 0 0 0-.059.313.019.019 0 0 1 .007.008zm4.682-3.24a.258.258 0 0 0 .341.049.227.227 0 0 0 .052-.322.239.239 0 0 0-.327-.045.215.215 0 0 0-.085.29l.019.028zm4.699-3.235a.271.271 0 0 0 .307.069c.017-.009.03-.007.034-.02a.227.227 0 0 0 .052-.322.258.258 0 0 0-.341-.049.227.227 0 0 0-.059.313c.003.002.005.006.007.009zM50 219.242a.258.258 0 0 0 .341.049.227.227 0 0 0 .059-.313l-.007-.009a.227.227 0 0 0-.213-.089c-.027-.007-.045.004-.06.001l-.069.04a.227.227 0 0 0-.059.313.02.02 0 0 1 .008.008zm6.783 21.556a.212.212 0 0 0 .169.249l.031.004a.237.237 0 0 0 .268-.19.249.249 0 0 0-.198-.266.243.243 0 0 0-.27.203zm.88-5.422a.233.233 0 0 0 .216.256.237.237 0 0 0 .268-.19.249.249 0 0 0-.198-.266.265.265 0 0 0-.286.2zm.911-5.43a.214.214 0 0 0 .198.266.238.238 0 0 0 .268-.19.249.249 0 0 0-.198-.266.237.237 0 0 0-.268.19zm.893-5.419a.214.214 0 0 0 .198.266.23.23 0 0 0 .258-.2.23.23 0 0 0-.456-.066zm-25.843-7.259c.02.131.143.22.274.201a.241.241 0 0 0-.073-.476.246.246 0 0 0-.029.007.22.22 0 0 0-.172.261v.007zm13.018 17.125a.314.314 0 0 0 .07.071.244.244 0 0 0 .329-.079.223.223 0 0 0-.07-.307l-.013-.003a.244.244 0 0 0-.329.079.198.198 0 0 0 .013.239zm3.021-4.929a.213.213 0 0 0 .069.307.265.265 0 0 0 .339-.063.24.24 0 0 0-.081-.323.245.245 0 0 0-.327.079zm3.017-4.681a.214.214 0 0 0 .064.298l.02.011a.244.244 0 0 0 .329-.079.214.214 0 0 0-.064-.298l-.02-.011a.243.243 0 0 0-.329.079zm3.019-4.693a.22.22 0 0 0 .084.31.23.23 0 0 0 .321-.06l.004-.007a.213.213 0 0 0-.069-.307.253.253 0 0 0-.34.064zm12.862 17.63c.037.127.17.201.297.163a.22.22 0 0 0 .172-.261l-.001-.006a.228.228 0 0 0-.272-.176l-.008.002a.234.234 0 0 0-.188.278zm-1.365-5.33a.222.222 0 0 0 .272.163l.011-.003a.215.215 0 0 0 .184-.264.252.252 0 0 0-.295-.178.226.226 0 0 0-.176.27l.004.012zm-1.379-5.332a.236.236 0 0 0 .292.166l.006-.002a.22.22 0 0 0 .172-.261l-.001-.006a.24.24 0 0 0-.288-.179.239.239 0 0 0-.181.282zm-1.379-5.331a.243.243 0 0 0 .297.163.21.21 0 0 0 .177-.239l-.006-.027a.228.228 0 0 0-.272-.176l-.008.002a.246.246 0 0 0-.188.277zM29.377 252.38a.393.393 0 0 0 .152.532l.007.004a.427.427 0 0 0 .564-.137.388.388 0 0 0-.143-.527l-.015-.008a.427.427 0 0 0-.565.136zm5.018-8.131a.373.373 0 0 0 .115.515c.009.007.02.012.03.017a.421.421 0 0 0 .564-.137.373.373 0 0 0-.115-.515c-.009-.007-.02-.012-.03-.017a.427.427 0 0 0-.564.137zm5.003-8.135a.388.388 0 0 0 .143.527l.015.008a.427.427 0 0 0 .564-.137.376.376 0 0 0-.124-.516l-.035-.019a.426.426 0 0 0-.563.137zm5.019-8.131a.38.38 0 0 0 .124.52l.021.012a.427.427 0 0 0 .564-.137.373.373 0 0 0-.115-.515c-.009-.007-.02-.012-.03-.017a.42.42 0 0 0-.564.137zm5.003-8.136a.388.388 0 0 0 .159.535.404.404 0 0 0 .55-.141.36.36 0 0 0-.146-.533.43.43 0 0 0-.563.139zm21.521 38.11a.44.44 0 0 0 .518.283.38.38 0 0 0 .289-.452l-.007-.025a.409.409 0 0 0-.504-.279.394.394 0 0 0-.296.473zm-2.551-9.092c.07.21.289.33.504.279a.385.385 0 0 0 .301-.453l-.005-.021a.409.409 0 0 0-.504-.279.392.392 0 0 0-.297.469l.001.005zm-2.551-9.091a.422.422 0 0 0 .504.279.392.392 0 0 0-.156-.768l-.05.013a.383.383 0 0 0-.298.476zm-2.552-9.091a.423.423 0 0 0 .504.28.393.393 0 0 0-.155-.769c-.017.004-.034.008-.051.014a.372.372 0 0 0-.298.475zm-2.566-9.095a.41.41 0 0 0 .508.266.383.383 0 0 0 .296-.475.423.423 0 0 0-.504-.28.411.411 0 0 0-.3.489zm-28.12 3.541c.147.17.399.203.584.076a.384.384 0 0 0 .08-.55.44.44 0 0 0-.583-.076.387.387 0 0 0-.089.54c.003.002.005.006.008.01zm7.926-5.719a.426.426 0 0 0 .581.088.384.384 0 0 0 .09-.537l-.01-.013a.428.428 0 0 0-.584-.076.37.37 0 0 0-.093.517l.016.021zm8.974 35.188a.418.418 0 0 0 .359.441.412.412 0 0 0 .454-.342.387.387 0 0 0-.329-.436l-.016-.002a.413.413 0 0 0-.468.339zm1.333-9.331a.41.41 0 0 0 .809.113.377.377 0 0 0-.312-.434l-.034-.004a.394.394 0 0 0-.462.31c.001.004 0 .009-.001.015zm1.33-9.319a.387.387 0 0 0 .329.436l.017.002a.412.412 0 0 0 .467-.339.395.395 0 0 0-.345-.438.414.414 0 0 0-.468.339zm1.33-9.317a.378.378 0 0 0 .349.425.387.387 0 1 0 .162-.758c-.014-.003-.028-.006-.043-.007a.414.414 0 0 0-.468.34zm14.92-3.112c.143.169.39.2.57.072a.384.384 0 0 0 .08-.55.443.443 0 0 0-.583-.076.377.377 0 0 0-.067.554zm-36.45-5.208c.143.17.387.212.578.102a.387.387 0 0 0 .102-.537c-.003-.004-.005-.008-.008-.01a.409.409 0 0 0-.563-.099.373.373 0 0 0-.128.514c.004.01.012.02.019.03zm10.742 37.041a.391.391 0 0 0 .329.449.41.41 0 0 0 .475-.31.393.393 0 0 0-.314-.459l-.011-.002a.414.414 0 0 0-.479.322zm1.734-9.228a.396.396 0 0 0 .333.45l.009.001c.215.034.421-.1.475-.31a.417.417 0 0 0-.339-.465.426.426 0 0 0-.478.324zm1.735-9.227a.396.396 0 0 0 .333.45l.008.001a.41.41 0 0 0 .475-.31.392.392 0 0 0-.325-.448l-.003-.001a.424.424 0 0 0-.488.308zm1.748-9.225a.376.376 0 0 0 .294.443c.011.003.024.004.035.006a.411.411 0 0 0 .475-.31.384.384 0 0 0-.309-.445l-.02-.003a.4.4 0 0 0-.475.309zm24.31 4.112a.44.44 0 0 0 .581.088.37.37 0 0 0 .09-.535.409.409 0 0 0-.563-.099.373.373 0 0 0-.128.514c.005.012.013.022.02.032zm-5.755-7.935a.28.28 0 0 0 .05.206c-.003.013.008.029.018.046a.427.427 0 0 0 .578.101.371.371 0 0 0 .133-.469.135.135 0 0 0-.039-.079.426.426 0 0 0-.284-.16l-.003.013a.355.355 0 0 0-.278.049.364.364 0 0 0-.175.293zM30.796 235.52a.37.37 0 0 0 .105.513l.026.016c.19.118.438.071.571-.108a.384.384 0 0 0-.128-.542.441.441 0 0 0-.574.121zm5.358-7.903a.374.374 0 0 0 .128.543.426.426 0 0 0 .56-.125.389.389 0 0 0-.12-.537l-.008-.005a.419.419 0 0 0-.56.124zm5.34-7.893a.37.37 0 0 0 .105.513l.026.016c.189.122.44.074.571-.108a.384.384 0 0 0-.111-.532c-.006-.004-.011-.008-.017-.01a.436.436 0 0 0-.574.121zm21.276 30.547a.423.423 0 0 0 .501.293.383.383 0 0 0 .307-.458.4.4 0 0 0-.479-.303l-.004.001a.39.39 0 0 0-.329.444l.004.023zm-2.14-9.152a.423.423 0 0 0 .501.293.383.383 0 0 0 .307-.458.4.4 0 0 0-.479-.303l-.004.001a.39.39 0 0 0-.329.444l.004.023zm-2.138-9.152a.423.423 0 0 0 .501.293.384.384 0 0 0 .307-.458.412.412 0 0 0-.482-.303.39.39 0 0 0-.326.468zm-2.14-9.151a.427.427 0 0 0 .501.293.383.383 0 0 0 .307-.458.428.428 0 0 0-.482-.303.395.395 0 0 0-.326.468zm16.089.605c.129.11.321.104.445-.011a.29.29 0 0 0-.002-.409l-.01-.009a.336.336 0 0 0-.445.011.29.29 0 0 0 .012.418zm-23.324 16.923a.311.311 0 0 0 .621-.014.291.291 0 0 0-.326-.282.302.302 0 0 0-.295.296zm-.256-7.051a.31.31 0 0 0 .327.281.309.309 0 0 0 .298-.308.3.3 0 0 0-.326-.281.309.309 0 0 0-.299.308zm-.252-7.063c.016.166.16.29.327.281a.309.309 0 0 0 .298-.308.311.311 0 0 0-.327-.281.307.307 0 0 0-.298.308zm-.252-7.065c.007.16.143.286.305.279h.008a.3.3 0 0 0 .309-.289v-.003a.315.315 0 0 0-.323-.295.297.297 0 0 0-.298.296l-.001.012zm-13.773 15.094a.29.29 0 0 0 .178.371l.008.003a.331.331 0 0 0 .397-.175.286.286 0 0 0-.169-.369l-.017-.006a.303.303 0 0 0-.397.176zm2.625-6.628a.307.307 0 0 0 .182.388.313.313 0 0 0 .397-.175.276.276 0 0 0-.17-.37.315.315 0 0 0-.409.157zm2.634-6.612a.277.277 0 0 0 .185.374.301.301 0 0 0 .394-.161.306.306 0 0 0-.182-.388.316.316 0 0 0-.397.175zm23.4 12.762c.073.15.252.215.405.145a.282.282 0 0 0 .175-.357c-.005-.012-.009-.025-.016-.037a.309.309 0 0 0-.408-.133.279.279 0 0 0-.156.382zm-3.105-6.426a.327.327 0 0 0 .422.136.29.29 0 0 0 .156-.379l-.001-.003a.342.342 0 0 0-.419-.149.306.306 0 0 0-.158.395zm-3.087-6.437c.073.15.252.215.405.145a.29.29 0 0 0 .156-.378l-.001-.003a.313.313 0 0 0-.417-.149l-.001.001a.275.275 0 0 0-.153.358l.011.026zm-18.238-1.821a.164.164 0 0 0 .127.195h.001a.187.187 0 0 0 .21-.133.177.177 0 0 0-.144-.185.17.17 0 0 0-.194.123zm2.069 7.442a.28.28 0 0 0 .332.2.242.242 0 0 0 .209-.299.275.275 0 0 0-.329-.207.27.27 0 0 0-.212.306zm-1.273-6.281a.275.275 0 0 0 .54-.102.285.285 0 0 0-.329-.213.255.255 0 0 0-.211.315z"/><path fill="#428DFC" d="m150.69 115.925 51.937-29.987 2.15 3.723-51.937 29.987z"/><linearGradient id="j" gradientUnits="userSpaceOnUse" x1="5534.742" y1="-419.246" x2="5659.159" y2="-419.246" gradientTransform="matrix(0.0741 0 0 -0.0741 -207.4016 52.7163)"><stop offset="0" style="stop-color:#28306d"/><stop offset=".51" style="stop-color:#1f275f"/><stop offset="1" style="stop-color:#171f51"/></linearGradient><path fill="url(#j)" d="M202.641 85.938s1.395-2.752 4.037-2.092c2.641.66 5.281-1.98 4.752-5.941 0 0 2.959 10.971-6.639 11.757l-2.15-3.724z"/><linearGradient id="k" gradientUnits="userSpaceOnUse" x1="5339.362" y1="-792.4" x2="4859.539" y2="-1536.472" gradientTransform="matrix(0.0741 0 0 -0.0741 -207.4016 52.7163)"><stop offset="0" style="stop-color:#ffbeb6"/><stop offset="1" style="stop-color:#f2a19c"/></linearGradient><path fill="url(#k)" d="M152.7 149.468s17.168-15.609 19.821-28.72c2.654-13.111 1.717-21.852 6.243-24.35s17.967-4.373 19.666-4.839c1.388-.38 1.092 2.498-4.994 4.683 0 0 3.59 1.873 4.37 8.273.78 6.401-5.15.313-6.398 1.405-1.249 1.092.937 8.428-6.556 12.955-7.491 4.526-7.024 42.611-20.29 59.938-.001 0-10.925-29.5-11.862-29.345-.937.156 11.862 29.344 11.862 29.344"/><linearGradient id="l" gradientUnits="userSpaceOnUse" x1="3738.99" y1="-1022.888" x2="3691.223" y2="-860.041" gradientTransform="matrix(0.0741 0 0 -0.0741 -207.4016 52.7163)"><stop offset="0" style="stop-color:#ffbeb6"/><stop offset="1" style="stop-color:#f2a19c"/></linearGradient><path fill="url(#l)" d="M73.036 129.029s-9.517-4.054-16.254-6.613c0 0 8.194-12.785 8.27-17.826l1.121.661a15.262 15.262 0 0 0 5.539 7.753 6.613 6.613 0 0 0 2.051-.825c.689-.133 1.37-.303 2.042-.508-.727 2.656-3.545 13.294-2.769 17.358z"/><linearGradient id="m" gradientUnits="userSpaceOnUse" x1="3341.507" y1="-1515.118" x2="4635.459" y2="-2552.255" gradientTransform="matrix(0.0741 0 0 -0.0741 -207.4016 52.7163)"><stop offset=".129" style="stop-color:#428dfc"/><stop offset=".999" style="stop-color:#1d72d8"/></linearGradient><path fill="url(#m)" d="M99.697 220.749c-55.508 5.348-84.296-13.37-84.296-13.37 1.763-20.29 14.988-45.094 26.02-62.641 8.003-12.738 14.845-21.65 15.333-22.283.009-.009.019-.028.028-.038a9.84 9.84 0 0 1 .748-.028 12.149 12.149 0 0 1 1.677.125c.181.027.373.063.575.102 6.432 1.115 13.254 6.416 13.254 6.416.019.096.028.202.048.297a403.238 403.238 0 0 0 20.423 76.204c3.631 9.657 6.19 15.216 6.19 15.216z"/><path fill="#428DFC" d="M166.054 182.422s-13.196 17.769-38.363 27.449c-8.884 3.421-21.401 1.466-34.185-4.342-23.192-10.542-54.424-38.676-36.724-83.114 0 0-.518.671-.028.038.009-.009.019-.028.028-.038a7.634 7.634 0 0 1 2.07.048c.105.009.23.028.355.048 2.617.403 7.302 1.878 13.877 6.814a98.678 98.678 0 0 1 16.071 15.785c20.767 24.813 43.643 13.552 56.313-4.218.001.002 7.562 1.756 20.586 41.53z"/><path fill="#FFBEB6" d="M70.784 113.158a23.24 23.24 0 0 1-1.735-.009c-3.009-4.6-4.552-8.175-4.265-11.721a15.8 15.8 0 0 0 6 11.73z"/><path fill="#FFBEB6" d="M87.747 95.782s.426 12.573-13.251 16.507c0 0-1.508.419-2.782.716a15.074 15.074 0 0 1-5.827-15.584 25.54 25.54 0 0 1 4.341-6.143c7.973-8.788 4.706-15.076 4.706-15.076a28.108 28.108 0 0 1 6.833 5.233c0 .009.009.009.009.019.042.05.087.099.134.143 1.476 1.686 4.936 5.339 8.251 6.929 2.56 1.218 1.745 4.159-2.414 7.256z"/><path fill="#1C2868" d="M77.853 84.726c2.796 1.457 5.766-.83 5.409-4.048-.043-.389-.607-.291-.563.097a3.185 3.185 0 0 1-4.65 3.387c-.333-.176-.527.391-.196.564z"/><path fill="#E94A47" d="M81.909 81.595c-4.564-15.405-20.031-12.717-31.061-8.341-11.032 4.377-13.345 15.903-12.83 19.124a91.858 91.858 0 0 1 1.424 9.92 24.318 24.318 0 0 1-.134 2.121c-.363 3.214-1.686 5.737-3.042 8.574-1.53 3.204-2.44 6.432-.567 9.671.231.4.801-.039.572-.435-2.887-4.994 1.601-9.686 3.067-14.325a13.9 13.9 0 0 1-1.044 3.991 16.156 16.156 0 0 0-1.201 10.668c18.585 3.405 33.569-7.031 33.569-7.031-4.055-5.793-6.206-9.974-5.877-14.101a15.971 15.971 0 0 0 7.13 12.574l.05.035c.394.268.798.528 1.223.769.401.228.672-.438.274-.664-.349-.199-.682-.41-1.009-.628-.115-.077-.224-.156-.336-.234a15.086 15.086 0 0 1-6.229-15.86 25.418 25.418 0 0 1 4.343-6.145c7.967-8.791 4.707-15.071 4.707-15.071a27.725 27.725 0 0 1 6.971 5.388z"/><path fill="#23286B" d="M39.41 101.96s-3.879-1.15-5.779-1.867c-2.405-.907-11.87-6.717-4.452-15.69S55.975 63.394 62.387 61.07c6.412-2.324 19.933-7.619 18.994 5.811-.94 13.43-28.259 31.946-41.971 35.079z"/></svg></g><g transform="translate(-122.0 999.0) rotate(327.87245504369173 180.0 202.5) scale(3.5294117647058822 3.5217391304347827)"><svg width="102" height="115" viewBox="0 0 102 115"><g fill="#c4d9f8"><path d="M.499 115a.5.5 0 0 1-.41-.786c3.843-5.505 7.912-10.991 11.848-16.297 8.109-10.93 16.495-22.232 23.296-34.257C47.035 42.795 51.882 23.093 49.638 5.102a.5.5 0 0 1 .434-.558.505.505 0 0 1 .557.435c2.271 18.208-2.616 38.118-14.527 59.174-6.831 12.079-15.235 23.407-23.361 34.361-3.932 5.299-7.997 10.779-11.831 16.272a.502.502 0 0 1-.411.214z"/><path d="M46.413 40.498a.492.492 0 0 1-.315-.112L31.177 28.252a.499.499 0 1 1 .63-.775l14.921 12.134a.499.499 0 0 1-.315.887zm1.599-4.756a.488.488 0 0 1-.314-.112l-14.68-11.937a.499.499 0 1 1 .63-.775l14.68 11.937a.499.499 0 0 1-.316.887zm.817-5.394a.488.488 0 0 1-.314-.112L34.859 19.133a.501.501 0 0 1 .63-.777L49.145 29.46a.499.499 0 0 1-.316.888zm.932-5.301a.497.497 0 0 1-.315-.111L36.7 14.572a.5.5 0 0 1 .63-.776L50.076 24.16a.5.5 0 0 1-.315.887zm.758-5.441a.492.492 0 0 1-.315-.112L38.541 10.01a.499.499 0 1 1 .63-.775l11.663 9.484a.499.499 0 0 1-.315.887zm.129-5.952a.492.492 0 0 1-.315-.112l-9.951-8.093a.499.499 0 1 1 .63-.775l9.951 8.093a.499.499 0 0 1-.315.887zm-.249-6.261a.488.488 0 0 1-.314-.112L42.225.888a.498.498 0 1 1 .629-.775l7.86 6.393a.499.499 0 0 1-.315.887z"/><path d="M46.559 40.604a.5.5 0 0 1-.176-.968l17.981-6.803a.5.5 0 0 1 .353.936l-17.981 6.803a.521.521 0 0 1-.177.032zm1.496-5.593a.5.5 0 0 1-.176-.968l16.172-6.119a.5.5 0 1 1 .353.936l-16.172 6.119a.521.521 0 0 1-.177.032zm1.18-5.473a.5.5 0 0 1-.176-.968l14.683-5.555a.5.5 0 1 1 .353.936l-14.683 5.555a.535.535 0 0 1-.177.032zm1.025-5.415a.5.5 0 0 1-.176-.968l13.346-5.049a.5.5 0 0 1 .353.936l-13.346 5.049a.521.521 0 0 1-.177.032zm.486-5.212a.5.5 0 0 1-.176-.968l12.548-4.747a.5.5 0 1 1 .353.936l-12.548 4.747a.53.53 0 0 1-.177.032zm.246-5.119a.5.5 0 0 1-.176-.968l11.992-4.537a.5.5 0 1 1 .353.936L51.168 13.76a.52.52 0 0 1-.176.032zm-.439-4.862a.5.5 0 0 1-.176-.968l12.119-4.585a.5.5 0 1 1 .353.936L50.73 8.898a.521.521 0 0 1-.177.032zM10.527 114.308a.5.5 0 0 1-.364-.842c4.052-4.339 8.048-8.878 11.913-13.267 7.991-9.073 16.254-18.455 25.458-26.611 16.048-14.224 32.399-22.136 48.597-23.516a.513.513 0 0 1 .539.456.5.5 0 0 1-.455.54c-15.979 1.361-32.136 9.19-48.02 23.268-9.157 8.116-17.4 17.476-25.371 26.525-3.87 4.394-7.871 8.937-11.932 13.288a.501.501 0 0 1-.365.159z"/><path d="M79.839 71.457a.496.496 0 0 1-.314-.111L66.274 60.621a.5.5 0 1 1 .628-.777L80.153 70.57a.5.5 0 0 1-.314.887zm3.611-2.437a.496.496 0 0 1-.314-.111L70.099 58.358a.5.5 0 1 1 .628-.777l13.037 10.552a.5.5 0 0 1-.314.887zm3.609-2.438a.496.496 0 0 1-.314-.111l-12.127-9.815a.5.5 0 1 1 .628-.777l12.127 9.815a.5.5 0 0 1-.314.888zm3.61-2.438a.496.496 0 0 1-.314-.111l-11.32-9.162a.5.5 0 1 1 .628-.777l11.32 9.162a.5.5 0 0 1-.314.888zm3.611-2.438a.496.496 0 0 1-.314-.111l-10.357-8.384a.5.5 0 1 1 .628-.777l10.358 8.384a.5.5 0 0 1-.315.888zm3.609-2.437a.496.496 0 0 1-.314-.111l-8.837-7.153a.5.5 0 1 1 .628-.777l8.837 7.153a.5.5 0 0 1-.314.888zm3.611-2.439a.496.496 0 0 1-.314-.111l-6.98-5.649a.5.5 0 1 1 .628-.777l6.98 5.649a.5.5 0 0 1-.314.888z"/><path d="M66.471 60.625a.5.5 0 0 1-.494-.576l2.583-16.866a.498.498 0 1 1 .986.152l-2.583 16.866a.498.498 0 0 1-.492.424zm4.568-2.329a.5.5 0 0 1-.494-.576l2.322-15.17a.5.5 0 1 1 .986.152l-2.322 15.17a.5.5 0 0 1-.492.424zm4.522-2.031a.5.5 0 0 1-.494-.576l2.109-13.771a.498.498 0 1 1 .986.152l-2.109 13.771a.5.5 0 0 1-.492.424zm4.499-1.887a.5.5 0 0 1-.494-.576l1.917-12.518a.5.5 0 1 1 .986.152l-1.917 12.518a.497.497 0 0 1-.492.424zm4.423-1.38a.5.5 0 0 1-.494-.576l1.803-11.769a.5.5 0 1 1 .986.152l-1.803 11.769a.497.497 0 0 1-.492.424zm4.388-1.155a.5.5 0 0 1-.494-.576l1.722-11.246a.498.498 0 1 1 .986.15l-1.722 11.248a.498.498 0 0 1-.492.424zm4.29-.514a.5.5 0 0 1-.494-.576l1.74-11.366a.5.5 0 1 1 .986.152l-1.74 11.366a.497.497 0 0 1-.492.424z"/></g></svg></g><g transform="translate(-26.0 848.0) rotate(343.84043676186326 157.5 257.5) scale(5.25 5.255102040816326)"><svg width="60" height="98" viewBox="0 0 60 98"><g fill="#c4d9f8"><path d="M.506 98a.5.5 0 0 1-.476-.673c1.953-5.335 3.783-10.824 5.553-16.132 3.657-10.971 7.439-22.314 12.52-32.937C26.965 29.73 38.487 16.636 52.347 9.336a.508.508 0 0 1 .684.208.498.498 0 0 1-.21.678C39.159 17.419 27.785 30.36 19.018 48.688c-5.054 10.565-8.826 21.88-12.474 32.822C4.772 86.825 2.94 92.32.982 97.669A.505.505 0 0 1 .506 98z"/><path d="M45.805 34.323a.517.517 0 0 1-.139-.019l-15.824-4.441a.5.5 0 1 1 .277-.965l15.824 4.441a.5.5 0 0 1-.138.984zm2.281-3.497a.517.517 0 0 1-.139-.019L32.38 26.438a.5.5 0 1 1 .277-.965l15.567 4.369a.5.5 0 0 1-.138.984zm2.282-3.498a.517.517 0 0 1-.139-.019l-14.48-4.064a.5.5 0 1 1 .275-.965l14.482 4.064a.5.5 0 0 1-.138.984zm2.281-3.497a.517.517 0 0 1-.139-.019l-13.517-3.793a.5.5 0 1 1 .277-.965l13.517 3.793a.5.5 0 0 1-.138.984zm2.282-3.498a.517.517 0 0 1-.139-.019l-12.369-3.471a.5.5 0 1 1 .277-.965l12.369 3.471a.5.5 0 0 1-.138.984zm2.281-3.497a.517.517 0 0 1-.139-.019l-10.551-2.961a.5.5 0 1 1 .275-.965l10.553 2.961a.5.5 0 0 1-.138.984zm2.282-3.498a.517.517 0 0 1-.139-.019L51.02 10.98a.5.5 0 1 1 .277-.965l8.335 2.339a.5.5 0 0 1-.138.984z"/><path d="M29.836 29.833a.505.505 0 0 1-.49-.376l-4.093-15.783a.502.502 0 0 1 .364-.611.507.507 0 0 1 .616.361l4.093 15.783a.502.502 0 0 1-.49.626zm3.173-3.762a.505.505 0 0 1-.49-.376l-3.682-14.196a.502.502 0 0 1 .364-.611.509.509 0 0 1 .616.361l3.682 14.196a.502.502 0 0 1-.49.626zm3.245-3.483a.505.505 0 0 1-.49-.376L32.421 9.324a.502.502 0 0 1 .364-.611.508.508 0 0 1 .616.361l3.343 12.888a.502.502 0 0 1-.49.626zm3.28-3.348a.505.505 0 0 1-.49-.376L36.006 7.15a.502.502 0 0 1 .364-.611.51.51 0 0 1 .616.361l3.038 11.714a.502.502 0 0 1-.49.626zm3.403-2.874a.505.505 0 0 1-.49-.376L39.59 4.976a.502.502 0 0 1 .364-.611.507.507 0 0 1 .616.361l2.857 11.014a.502.502 0 0 1-.49.626zm3.457-2.663a.505.505 0 0 1-.49-.376L43.175 2.801a.506.506 0 0 1 .98-.25l2.729 10.525a.502.502 0 0 1-.49.627zm3.615-2.064a.505.505 0 0 1-.49-.376L46.759.626a.502.502 0 0 1 .364-.611.51.51 0 0 1 .616.361l2.76 10.637a.502.502 0 0 1-.49.626z"/></g></svg></g><g transform="translate(293.0 1132.0) rotate(0.0 14.0 14.0) scale(0.28 0.28)"><svg width="100" height="100" viewBox="0 0 100 100"><circle fill="#A1C3FC" cx="50" cy="50" r="50"/></svg></g><g transform="translate(80.0 663.0) rotate(0.0 10.0 10.0) scale(0.2 0.2)"><svg width="100" height="100" viewBox="0 0 100 100"><circle fill="#A1C3FC" cx="50" cy="50" r="50"/></svg></g><g transform="translate(837.0 1191.0) rotate(0.0 11.0 11.0) scale(0.22 0.22)"><svg width="100" height="100" viewBox="0 0 100 100"><circle fill="#A1C3FC" cx="50" cy="50" r="50"/></svg></g><g transform="translate(692.0 877.0) rotate(0.0 8.5 8.5) scale(0.17 0.17)"><svg width="100" height="100" viewBox="0 0 100 100"><circle fill="#A1C3FC" cx="50" cy="50" r="50"/></svg></g><g transform="translate(899.0 1138.0) rotate(0.0 6.5 6.5) scale(0.13 0.13)"><svg width="100" height="100" viewBox="0 0 100 100"><circle fill="#A1C3FC" cx="50" cy="50" r="50"/></svg></g><g transform="translate(172.0 563.0) rotate(0.0 10.0 10.0) scale(1.6231131309852298 1.6231131309852298)"><svg width="12.322" height="12.322" viewBox="-1373.77 605.694 12.322 12.322"><circle cx="-1367.609" cy="611.855" fill="#d9e021" r="6.161"/></svg></g><g transform="translate(110.0 461.0) rotate(0.0 7.5 7.5) scale(1.2173348482389224 1.2173348482389224)"><svg width="12.322" height="12.322" viewBox="-1373.77 605.694 12.322 12.322"><circle cx="-1367.609" cy="611.855" fill="#d9e021" r="6.161"/></svg></g><g transform="translate(1068.0 1119.0) rotate(0.0 7.0 7.0) scale(1.1361791916896609 1.1361791916896609)"><svg width="12.322" height="12.322" viewBox="-1373.77 605.694 12.322 12.322"><circle cx="-1367.609" cy="611.855" fill="#d9e021" r="6.161"/></svg></g><g transform="translate(686.0 818.0) rotate(0.0 5.5 5.5) scale(0.8927122220418764 0.8927122220418764)"><svg width="12.322" height="12.322" viewBox="-1373.77 605.694 12.322 12.322"><circle cx="-1367.609" cy="611.855" fill="#d9e021" r="6.161"/></svg></g><g transform="translate(1138.0 138.0) rotate(0.0 113.0 33.0) scale(1.13 1.1379310344827587)"><svg width="200" height="58" viewBox="0 0 200 58"><path d="M0 0c.667 32.55 26.914 58 59.238 58s58.59-25.45 59.257-58z" fill="#dae8fe"/><path d="M65.048 0c.438 21.7 17.752 38.261 39.067 38.261S142.763 21.701 143.182 0z" fill="#c3d9fd"/><path d="M107.029 0c.514 25.316 21.124 45.513 46.476 45.513S199.486 25.316 200 0z" fill="#afccfc"/></svg></g><g transform="translate(130.0 85.0) rotate(0.0 233.5 120.5) scale(2.071072833467118 2.0863452598408836)"><svg width="225.487" height="115.513" viewBox="-532.736 405.297 225.487 115.513"><ellipse cx="-432.219" cy="462.458" fill="#d3e3fe" rx="57.115" ry="57.161"/><path d="M-532.727 511.549c-.004.118-.009.237-.009.356 0 4.918 3.983 8.905 8.897 8.905s8.897-3.986 8.897-8.905c0-.119-.004-.238-.009-.356z" fill="#d3e3fe"/><path d="M-500.739 489.816c-.007.196-.014.393-.014.591 0 8.157 6.607 14.769 14.757 14.769s14.758-6.613 14.758-14.769c0-.198-.007-.395-.014-.591z" fill="#a1c3fc"/><path d="M-395.332 439.764a34.73 34.73 0 0 0-.036 1.41c0 19.472 15.772 35.255 35.226 35.255 19.456 0 35.226-15.785 35.226-35.255 0-.473-.017-.941-.036-1.41z" fill="#eee"/><path d="M-358.405 439.764c-.013.341-.026.681-.026 1.025 0 14.145 11.458 25.611 25.591 25.611 14.134 0 25.591-11.467 25.591-25.611 0-.343-.013-.684-.026-1.025z" fill="#d3e3fe"/></svg></g><g transform="translate(690.0 85.0) rotate(0.0 97.5 28.0) scale(0.975 0.9655172413793104)"><svg width="200" height="58" viewBox="0 0 200 58"><path d="M0 0c.667 32.55 26.914 58 59.238 58s58.59-25.45 59.257-58z" fill="#EFF6FF"/><path d="M65.048 0c.438 21.7 17.752 38.261 39.067 38.261S142.763 21.701 143.182 0z" fill="#D8E7FE"/><path d="M107.029 0c.514 25.316 21.124 45.513 46.476 45.513S199.486 25.316 200 0z" fill="#C4DAFD"/></svg></g></svg>