<?xml version="1.0" encoding="UTF-8"?><svg version="1.1" id="Layer_1" xmlns="http://www.w3.org/2000/svg" xmlns:xlink="http://www.w3.org/1999/xlink" x="0px" y="0px" viewBox="0 0 858.7 644" style="enable-background:new 0 0 858.7 644;" xml:space="preserve" width="859px" height="644px">

<line x1="57.6" y1="644" x2="55.1" y2="644" style="fill:none;"/>
<polyline points="88.1,644 88,644 87.3,644 85.7,644 " style="fill:none;"/>
<line x1="228.9" y1="644" x2="213.4" y2="644" style="fill:none;"/>
<g>
	<path d="M836.8,523.8c7.5,1.5,14.8,3.7,21.9,6.5V644H0v-42.5c27.6-12.2,56-23.1,85-32.9c1-0.3,2.1-0.7,3.1-1
		c1.6-0.5,3.2-1.1,4.8-1.6c0.8-0.3,1.6-0.5,2.4-0.8c27.7-9,55.8-17,84.4-24.1c5.2-1.3,10.3-2.5,15.5-3.7c6-1.4,12.1-2.8,18.2-4.1
		c3.1-0.7,6.1-1.3,9.2-2c40.5-8.5,81.6-15.2,123-20.2c0,0,0.1,0,0.1,0c0.1,0,0.2,0,0.3,0c24.7-3,49.6-5.4,74.4-7.2
		c39.6-2.9,79.6-4.1,119.1-1.1c3.7,0.3,7.3,0.6,11,1h0c1.9,0.2,3.8,0.4,5.7,0.6c3.9,0.4,7.8,0.9,11.6,1.4c1.9,0.2,3.8,0.5,5.7,0.8
		c0.1,0,0.2,0,0.3,0h0c4.3,0.6,8.6,1.3,12.8,2.2h0c2.5,0.5,4.9,1.1,7.3,1.7h0c8.5,2.3,16.4,5.5,22.9,10.4c4.2,3.2,7.6,7.4,9.6,11.9
		c0.6,1.4,1.1,2.9,1.5,4.3c0.6,2.3,0.8,4.7,0.6,7c-0.1,1-0.3,2-0.5,3v0c-0.5,1.8-1.2,3.5-2.2,5.1c-0.5,0.8-1,1.5-1.6,2.2
		c-0.3,0.3-0.6,0.6-0.9,1c-1,1-2.1,1.9-3.3,2.8c-0.8,0.6-1.6,1.1-2.4,1.7c-1.6,1.1-3.3,2.2-4.8,3.3c-0.8,0.6-1.5,1.1-2.3,1.8
		c-0.8,0.7-1.6,1.4-2.3,2.2c-0.5,0.6-1,1.2-1.4,1.9c-0.1,0.3-0.3,0.5-0.4,0.8c-2.1,4.5-1.2,10,4.1,11.7c3.8,1.2,8.1-0.2,11.7-1.7
		c14.3-5.6,28.2-11.8,42.1-18.1c1.1-0.5,2.2-1,3.3-1.5c22.5-10.3,45-20.6,69.1-28.2c22.4-7.1,47-11.6,71-11.3
		c4.3,0,8.6,0.3,12.9,0.6C826.1,521.9,831.5,522.7,836.8,523.8z" style="fill:#E0EBFE;"/>
	<path d="M509.1,644H0v-22.3c24.5-9.3,48.6-17.7,72.8-25.4c1-0.3,2-0.6,3-0.9c5.2-1.6,10.3-3.2,15.5-4.7
		c0.8-0.2,1.6-0.5,2.5-0.7c28.1-8.3,56.4-15.5,85.9-21.9c5.1-1.1,10.3-2.2,15.5-3.2c6-1.2,12.1-2.4,18.2-3.5c0.7-0.1,1.4-0.3,2-0.4
		c4.5-0.8,9-1.6,13.5-2.4c33.4-5.7,67.5-9.1,100.7-2.8c31.3,5.9,59.6,20,87.2,36c0.4,0.2,0.7,0.4,1.1,0.6
		C448.1,609.9,477.5,629.8,509.1,644z" style="fill:#D9E021;"/>
	<path d="M851.6,627.8c2.4-0.6,4.7-1.2,7-1.8v18h-74.1c8.6-1.9,17.1-3.9,25.5-5.9h0c1.3-0.3,2.7-0.7,4-1
		c1.3-0.3,2.6-0.6,3.9-0.9c0.4-0.1,0.8-0.2,1.1-0.3c4.7-1.1,9.3-2.3,13.9-3.4c0.4-0.1,0.9-0.2,1.3-0.3c5.1-1.3,10.1-2.5,15-3.8
		c0.3-0.1,0.6-0.2,1-0.2C850.7,628,851.2,627.9,851.6,627.8z" style="fill:#D9E021;"/>
	<path d="M847.4,481.1l11.3-17.5V644H839l10.4-15.6l7.4-11.1c1.1-1.7,1.7-3.7,1.7-5.6c0-3.5-1.8-6.9-4.9-8.6
		c-4.9-3.4-11.3-2.3-14.5,2.5l-11.1,15.9c-1.5,2.3-4.8,3.6-8,3.6c-2,0-3.9-0.5-5.4-1.4c-3.8-2.6-5.6-8.8-3.4-12.4l11.5-16.8
		c1.1-1.7,1.6-3.6,1.6-5.6c0-3.6-1.8-7.2-5-8.9c-4.8-3.4-11.2-2.2-14.4,2.6l-4.8,7c-1.4,2-4.6,3.4-7.8,3.4c-2,0-4-0.6-5.5-1.9
		c-4.8-2.6-5.8-9.9-2.5-14.8l8.5-12.7l6.1-9.2l7.1-10.8l6.1-9.2l7.1-10.8l1.6-2.3l4.5-6.8l7.1-10.8l6.1-9.2l4.8-7.2
		c0.2-0.3,0.4-0.6,0.6-0.8l1.8-2.8L847.4,481.1L847.4,481.1z" style="fill:#AFCCFC;"/>
	<path d="M167.5,419.2c-9.8,13.8-26.9,41.5-45.3,75.4c0,0,0,0,0,0c-0.3,0.5-0.6,1-0.9,1.6c-0.1,0.3-0.3,0.5-0.4,0.8
		c-0.3,0.5-0.6,1.1-0.9,1.6c-0.1,0.3-0.3,0.5-0.4,0.8c-0.3,0.5-0.6,1-0.9,1.6c-0.1,0.3-0.3,0.5-0.4,0.8c-0.3,0.5-0.6,1.1-0.8,1.6
		c-0.1,0.3-0.3,0.5-0.4,0.8c-0.3,0.5-0.6,1.1-0.8,1.6c-0.1,0.3-0.3,0.5-0.4,0.8c-0.3,0.5-0.6,1.1-0.8,1.6c-0.1,0.3-0.3,0.5-0.4,0.8
		c-0.3,0.5-0.6,1.1-0.8,1.6c-0.1,0.3-0.3,0.5-0.4,0.8c-0.3,0.6-0.6,1.2-0.9,1.8c-0.1,0.2-0.2,0.5-0.4,0.7c-0.3,0.5-0.5,1-0.8,1.5
		c-0.1,0.3-0.3,0.5-0.4,0.8c-0.3,0.5-0.6,1.1-0.8,1.6c-0.1,0.3-0.3,0.5-0.4,0.8c-4.5,8.8-9.1,17.8-13.6,27v0
		c-0.8,1.7-1.7,3.5-2.5,5.2c0,0,0,0,0,0c-2.9,5.9-5.7,11.9-8.4,18c-4.2,9.2-8.3,18.5-12.1,27.7C66.1,612.6,60,628.7,55.1,644h2.5
		c5-15.6,11.3-32,18.2-48.6c3.9-9.3,8-18.6,12.2-27.8c1.7-3.7,3.4-7.3,5.1-11c0.8-1.8,1.7-3.6,2.5-5.4c0,0,0,0,0,0
		c5.2-10.7,10.4-21.2,15.7-31.4c0.1-0.3,0.3-0.5,0.4-0.8c0.3-0.5,0.5-1.1,0.8-1.6c0.1-0.3,0.3-0.5,0.4-0.8c0.3-0.5,0.5-1,0.8-1.5
		c0.1-0.2,0.2-0.5,0.4-0.7c0.3-0.6,0.6-1.2,0.9-1.8c0.1-0.3,0.3-0.5,0.4-0.8c0.3-0.5,0.6-1.1,0.8-1.6c0.1-0.3,0.3-0.5,0.4-0.8
		c0.3-0.5,0.6-1.1,0.8-1.6c0.1-0.3,0.3-0.5,0.4-0.8c0.3-0.5,0.6-1.1,0.8-1.6c0.1-0.3,0.3-0.5,0.4-0.8c0.3-0.5,0.6-1.1,0.9-1.6
		c0.1-0.3,0.3-0.5,0.4-0.8c0.3-0.5,0.6-1.1,0.8-1.6c0.1-0.3,0.3-0.5,0.4-0.8c0.3-0.5,0.6-1.1,0.9-1.6c0.1-0.3,0.3-0.5,0.4-0.8v0
		c0.3-0.5,0.6-1.1,0.8-1.6c0.2-0.3,0.3-0.5,0.4-0.8c18.3-33.5,35.2-60.9,44.9-74.6L167.5,419.2z" style="fill:#D9E021;"/>
	<path d="M88.1,644c1.5-11,2.8-22.1,3.9-33.2c0-0.1,0-0.1,0-0.2v0c0.7-6.9,1.3-13.8,1.8-20.6c0.6-8.2,1.1-16.5,1.4-24.7
		c0.2-4.7,0.4-9.3,0.5-14c0,0,0,0,0,0c0.1-1.9,0.1-3.8,0.1-5.7v0c0.8-40.2-1.2-80.4-6.1-120.5c-0.1-0.8-0.2-1.6-0.3-2.3
		c-0.2-1.5-0.4-3.1-0.6-4.7v0c-0.1-0.8-0.2-1.5-0.3-2.3v0c-0.2-1.6-0.4-3.1-0.6-4.7c-0.1-0.8-0.2-1.6-0.3-2.3
		c-0.2-1.6-0.4-3.2-0.7-4.7c-0.1-0.8-0.2-1.6-0.4-2.4v0c-0.2-1.6-0.5-3.2-0.7-4.8v0c-0.1-0.8-0.2-1.6-0.4-2.4
		c-0.2-1.6-0.5-3.2-0.8-4.8c-0.1-0.8-0.3-1.6-0.4-2.4v0c-0.1-0.8-0.3-1.7-0.4-2.5l-2.4,0.4c0,0.1,0,0.2,0,0.2
		c0.1,0.8,0.3,1.6,0.4,2.4v0c0.3,1.6,0.5,3.2,0.8,4.8c0.1,0.8,0.3,1.6,0.4,2.4c0.2,1.6,0.5,3.2,0.7,4.8c0.1,0.8,0.2,1.6,0.4,2.4v0
		c0.2,1.6,0.5,3.1,0.7,4.7c0.1,0.8,0.2,1.6,0.3,2.4c0.2,1.6,0.5,3.1,0.7,4.7c0.1,0.8,0.2,1.6,0.3,2.4c0.2,1.5,0.4,3.1,0.6,4.7v0
		c0.1,0.8,0.2,1.6,0.3,2.3c0.2,1.5,0.4,3.1,0.6,4.6c0,0.1,0,0.1,0,0.2c0.1,0.7,0.2,1.5,0.3,2.2c0.1,0.8,0.2,1.7,0.3,2.5
		c4.5,39.2,6.2,78.6,5.1,118c0,0,0,0,0,0c-0.1,2-0.1,3.9-0.2,5.9c-0.1,3.1-0.2,6.3-0.4,9.4c-0.4,8.2-0.9,16.4-1.5,24.6
		c-1.3,17.8-3.2,35.6-5.7,53.3H88.1z" style="fill:#D9E021;"/>
	<path d="M715.8,644h-4.1c-3.8-6.8-7.7-13.6-11.6-20.5c-0.2-0.3-0.4-0.7-0.6-1.1c-0.8-1.3-1.5-2.7-2.3-4
		c-0.2-0.3-0.4-0.7-0.6-1c-0.9-1.5-1.8-3.1-2.6-4.6h0c-0.2-0.4-0.4-0.7-0.6-1.1c-0.8-1.4-1.6-2.8-2.4-4.1c-0.2-0.4-0.4-0.8-0.7-1.1
		c-0.7-1.3-1.5-2.5-2.2-3.8c-0.2-0.4-0.5-0.9-0.8-1.3c-1.9-3.3-3.8-6.5-5.6-9.8c-0.3-0.4-0.5-0.9-0.8-1.3c-0.7-1.3-1.5-2.6-2.2-3.8
		c-0.2-0.4-0.4-0.7-0.7-1.1c-0.8-1.4-1.6-2.8-2.4-4.1c-0.2-0.4-0.4-0.7-0.6-1.1c-0.9-1.5-1.8-3.1-2.7-4.6c-0.2-0.4-0.4-0.7-0.6-1
		c-0.8-1.3-1.5-2.7-2.3-4c-0.2-0.3-0.4-0.7-0.6-1c-1.5-2.5-3-5.1-4.5-7.6c-0.3-0.5-0.6-1-0.8-1.5c-0.6-1.1-1.2-2.1-1.9-3.2
		c-2.2-3.7-4.4-7.4-6.6-11.1c-1.1-1.9-2.2-3.7-3.3-5.6c-1.1-1.9-2.3-3.8-3.4-5.7c-1.2-2-2.4-3.9-3.7-5.8c-1.6-2.3-3.4-4.6-5.2-6.9
		c-4.7-5.8-10.2-11.3-16.6-16.5l0.8-1l1.5-1.8c4.3,3.5,8.1,7.1,11.7,10.9c4.4,4.7,8.3,9.5,11.7,14.7l0,0c1,1.5,2,3,2.9,4.5
		c0.2,0.4,0.5,0.8,0.8,1.3c2.2,3.7,4.4,7.4,6.6,11.2c1.1,1.9,2.2,3.7,3.3,5.6c1.8,3.1,3.7,6.3,5.5,9.4c1.4,2.3,2.7,4.6,4.1,7
		c0.2,0.3,0.4,0.7,0.6,1c0.8,1.3,1.5,2.6,2.3,3.9c0.2,0.4,0.4,0.7,0.6,1c0.9,1.5,1.7,3,2.6,4.5c0.2,0.4,0.4,0.7,0.6,1
		c0.8,1.3,1.5,2.6,2.3,3.9c0.2,0.3,0.4,0.7,0.6,1c0.7,1.1,1.3,2.3,2,3.4c0.2,0.4,0.4,0.7,0.6,1.1c2.5,4.2,4.9,8.5,7.4,12.8
		c0.2,0.4,0.4,0.7,0.6,1.1c0.7,1.1,1.3,2.3,2,3.4c0.2,0.3,0.4,0.7,0.6,1h0c0.8,1.3,1.5,2.6,2.3,4c0.2,0.3,0.4,0.7,0.6,1
		c0.9,1.5,1.7,3,2.6,4.5c0.2,0.3,0.4,0.7,0.6,1h0c0.8,1.3,1.5,2.6,2.2,3.9c0.2,0.3,0.4,0.7,0.6,1C707.5,629.4,711.7,636.7,715.8,644
		z" style="fill:#D9E021;"/>
	<path d="M720.3,596c-0.4-0.5-0.8-1-1.1-1.6c-1.8-2.4-3.6-4.8-5.4-7.2c-0.8-1-1.5-2-2.3-3c-2.5-3.2-5-6.5-7.5-9.7
		c-0.8-1-1.6-2-2.4-3c-1.9-2.4-3.7-4.7-5.5-7.1c-0.1-0.1-0.1-0.1-0.2-0.2c-0.3-0.4-0.7-0.9-1-1.3c-2.1-2.6-4.1-5.2-6.2-7.9l-2.8,2.2
		c1.3,1.7,2.7,3.4,4,5.1c0.3,0.4,0.7,0.8,1,1.2c0.7,1,1.5,1.9,2.2,2.8c0.6,0.8,1.2,1.6,1.9,2.4c0.4,0.5,0.8,1,1.2,1.6
		c5.8,7.4,11.6,14.8,17.2,22.4c0.4,0.5,0.8,1.1,1.2,1.6c1.3,1.8,2.7,3.6,4,5.4c0.3,0.4,0.6,0.9,1,1.3c10,13.8,19.4,28,27.2,42.9h4.1
		C742.2,627.2,731.6,611.3,720.3,596z" style="fill:#D9E021;"/>
	<path d="M814.1,637.1c2.1,2.2,4.2,4.5,6.2,6.9h-4.8c-1.8-2-3.6-4-5.4-5.9h0c-16.6-17.4-36.4-32.6-54.4-46.4
		c-5.5-4.2-10.7-8.3-15.9-12.3l2.2-2.8c5.1,4,10.3,8,15.8,12.3C776.5,603.1,797,618.9,814.1,637.1z" style="fill:#D9E021;"/>
	<polygon points="602.1,644 600.3,644 600.3,642.2 	" style="fill:#D9E021;"/>
	<polygon points="589.5,631.4 589.5,644 580.4,644 580.4,622.3 	" style="fill:#D9E021;"/>
	<polygon points="569.6,611.5 569.6,644 560.5,644 560.5,602.3 	" style="fill:#D9E021;"/>
	<polygon points="549.7,591.6 549.7,644 540.6,644 540.6,582.4 	" style="fill:#D9E021;"/>
	<polygon points="529.8,571.6 529.8,644 520.6,644 520.6,562.5 	" style="fill:#D9E021;"/>
	<path id="texture-2_12_w4uHJETek5szkgOwhFc2K" d="M309.7,443.2c-1.3-0.5-2.8,0.3-3.2,1.6c-0.5,1.3,0.1,2.8,1.4,3.3
		c0,0,0.1,0,0.1,0c1.3,0.5,2.8-0.2,3.4-1.5c0,0,0,0,0-0.1C311.8,445.1,311.1,443.6,309.7,443.2z M394.9,527.2
		c-1.1-0.9-2.7-0.8-3.6,0.2c-0.9,1.1-0.9,2.8,0.2,3.8c1.1,0.9,2.7,0.8,3.7-0.2C396.1,529.8,396,528.2,394.9,527.2z M436.5,480.5
		c-1.1-0.9-2.7-0.8-3.6,0.3c-0.9,1.1-0.8,2.6,0.2,3.6c1.1,1,2.8,0.8,3.7-0.2C437.8,483,437.6,481.4,436.5,480.5z M357.4,510.9
		C357.4,510.9,357.4,510.9,357.4,510.9c-1.1-0.9-2.7-0.7-3.6,0.4c-0.4,0.5-0.6,1.1-0.6,1.7c0,0.7,0.3,1.5,0.9,2
		c1.1,0.9,2.7,0.8,3.6-0.3C358.7,513.4,358.5,511.8,357.4,510.9z M397.4,462.2c-1.1-0.9-2.8-0.7-3.6,0.4c-0.9,1.1-0.8,2.7,0.3,3.6
		c0,0,0,0,0,0c1.1,0.9,2.8,0.8,3.7-0.4C398.6,464.7,398.4,463.1,397.4,462.2z M274.5,432.6c-1.4-0.4-2.8,0.3-3.3,1.7
		c-0.4,1.4,0.3,2.8,1.7,3.3c1.4,0.4,2.8-0.4,3.3-1.7C276.6,434.5,275.9,433,274.5,432.6z M292.7,372.3c-1.4-0.4-2.8,0.5-3.2,1.9
		c-0.4,1.4,0.4,2.8,1.7,3.2c1.4,0.4,2.8-0.4,3.3-1.7C294.9,374.2,294.1,372.7,292.7,372.3z M443.5,571.4c-0.7-1.3-2.2-1.8-3.5-1.1
		s-1.8,2.2-1.1,3.5c0.7,1.3,2.2,1.8,3.5,1.1C443.7,574.2,444.2,572.7,443.5,571.4z M499,541.7c-0.7-1.3-2.2-1.8-3.5-1.1
		c-1.2,0.7-1.7,2.3-1,3.6s2.2,1.8,3.5,1.1C499.2,544.5,499.6,543,499,541.7z M219.6,398.3c-1.2-0.3-2.5,0.3-2.8,1.6
		c-0.3,1.2,0.3,2.4,1.4,2.8c1.1,0.4,2.4-0.2,2.8-1.3c0,0,0-0.1,0-0.1C221.5,400,220.8,398.7,219.6,398.3z M236.1,346.4
		c0,0-0.1,0-0.1,0c-1.2-0.4-2.4,0.2-2.8,1.4c0,0,0,0.1,0,0.1c-0.3,1.2,0.3,2.4,1.5,2.8c1.2,0.4,2.4-0.3,2.8-1.4c0,0,0-0.1,0-0.1
		C237.8,348,237.2,346.8,236.1,346.4z M347.7,508.1c0,0,0-0.1-0.1-0.1c-0.6-1.1-1.9-1.5-3-1c-1.1,0.6-1.5,1.9-1,3.1
		c0.4,0.8,1.2,1.2,2,1.2c0,0,0.1,0,0.1,0c0.1,0,0.2,0,0.3,0c0.2,0,0.5-0.1,0.7-0.2C347.8,510.5,348.2,509.2,347.7,508.1z
		 M395.9,482.7c-0.6-1.1-1.9-1.5-3-1c-1.1,0.6-1.5,1.9-1,3.1c0.6,1.1,2,1.5,3.1,1C396.1,485.2,396.5,483.8,395.9,482.7z
		 M274.3,457.9C274.3,457.9,274.3,457.9,274.3,457.9c-0.9-0.8-2.2-0.8-3,0.1c0,0-0.1,0.1-0.1,0.2c-0.8,0.9-0.7,2.3,0.2,3.2
		c0,0,0,0,0,0c1,0.7,2.3,0.6,3.1-0.3C275.3,460.1,275.2,458.7,274.3,457.9z M309.2,416.1c-0.9-0.8-2.3-0.7-3.1,0.2c0,0,0,0-0.1,0.1
		c-0.8,0.9-0.7,2.3,0.2,3.2c0,0,0,0,0,0c1,0.7,2.4,0.6,3.2-0.4C310.3,418.2,310.2,416.8,309.2,416.1z M344.2,374.3
		c-0.9-0.8-2.3-0.7-3.1,0.2c0,0,0,0-0.1,0.1c-0.8,0.9-0.7,2.3,0.2,3.2c0,0,0,0,0,0c1,0.8,2.3,0.7,3.2-0.2
		C345.3,376.5,345.1,375.1,344.2,374.3z M451.1,579.3c-0.1-1.2-1.2-2.1-2.4-2.1c-1.2,0.1-2.1,1.2-2,2.4c0.1,1.2,1.2,2.1,2.4,2
		c1.2-0.1,2-1.1,2-2.2C451.1,579.4,451.1,579.3,451.1,579.3z M246.1,422.3C246,422.2,246,422.2,246.1,422.3
		c-1.2-0.9-2.8-0.6-3.6,0.5c0,0-0.1,0.1-0.1,0.1c-0.8,1.2-0.5,2.7,0.7,3.5c1.2,0.8,2.7,0.5,3.5-0.7c0,0,0,0,0,0
		C247.4,424.5,247.1,423,246.1,422.3z M280.5,371.8c-1.2-0.8-2.7-0.5-3.5,0.7c-0.8,1.1-0.5,2.7,0.7,3.5c0,0,0,0,0,0
		c1.1,0.8,2.7,0.5,3.4-0.6c0,0,0,0,0,0C281.9,374.2,281.6,372.6,280.5,371.8z M315,321.5c-1.1-0.8-2.7-0.5-3.4,0.6c0,0,0,0,0,0
		c-0.8,1-0.6,2.6,0.4,3.4c0.1,0,0.1,0.1,0.2,0.1c1.2,0.7,2.7,0.5,3.6-0.6C316.5,323.8,316.2,322.2,315,321.5z M381.7,531.3
		c-0.3-1.4-1.6-2.2-3-1.9c-1.4,0.3-2.2,1.6-1.9,3c0.3,1.3,1.6,2.2,2.9,1.9C381.1,534,382,532.7,381.7,531.3z M441.7,520.1
		c-0.3-1.3-1.6-2.2-3-1.9c-1.3,0.3-2.2,1.6-1.9,3c0.3,1.3,1.6,2.2,2.9,1.9C441.1,522.8,442,521.5,441.7,520.1z M317.9,454.6
		C317.9,454.6,317.9,454.6,317.9,454.6c-0.7-1.2-2.2-1.6-3.4-0.9c0,0-0.1,0-0.1,0.1c-1.1,0.8-1.5,2.4-0.8,3.6
		c0.8,1.1,2.3,1.5,3.5,0.7C318.3,457.3,318.6,455.8,317.9,454.6z M369,421.2c-0.8-1.1-2.3-1.5-3.5-0.7c-1.2,0.7-1.5,2.3-0.8,3.5
		c0.5,0.7,1.4,1.1,2.2,1.1c0.5,0,0.9-0.1,1.4-0.4C369.5,424,369.8,422.4,369,421.2z M420.2,388c-0.7-1.2-2.2-1.5-3.3-0.8
		c0,0-0.1,0-0.1,0.1c-1.2,0.8-1.5,2.3-0.7,3.5c0.7,1.2,2.3,1.5,3.4,0.8C420.6,390.7,421,389.1,420.2,388z M252.3,442.4
		c-0.5-0.6-1.3-0.7-1.9-0.3c-0.6,0.5-0.7,1.3-0.2,1.9c0.5,0.6,1.3,0.7,1.9,0.3C252.6,443.8,252.7,443,252.3,442.4z M213.8,385.4
		c-0.2-0.1-0.4-0.2-0.7-0.2c-0.4,0-0.8,0.2-1,0.6c0,0-0.1,0.1-0.1,0.2c-0.4,0.6-0.2,1.4,0.4,1.8c0.6,0.4,1.5,0.2,1.9-0.4
		C214.7,386.6,214.5,385.7,213.8,385.4z M295.8,494.7c-0.2-0.7-0.9-1.1-1.6-1c-0.7,0.2-1.1,0.9-1,1.6c0.2,0.7,0.9,1.1,1.6,1
		c0.6-0.1,1-0.7,1-1.3C295.8,494.9,295.8,494.8,295.8,494.7z" style="fill:#A1C3FC;"/>
	<path id="texture-2_11_w4uHJETek5szkgOwhFc2K" d="M16.4,343.1c-1.3-0.5-2.8,0.3-3.3,1.6c-0.5,1.3,0.1,2.8,1.4,3.3
		c0,0,0.1,0,0.1,0c1.3,0.5,2.8-0.2,3.3-1.5c0,0,0,0,0-0.1C18.5,345,17.8,343.6,16.4,343.1z M101.6,427.2c-1.1-0.9-2.7-0.8-3.6,0.2
		c-0.9,1.1-0.9,2.8,0.2,3.8c1.1,0.9,2.7,0.8,3.7-0.2C102.8,429.8,102.7,428.1,101.6,427.2z M143.3,380.4c-1.1-0.9-2.7-0.8-3.6,0.3
		c-0.9,1.1-0.8,2.6,0.2,3.6c1.1,1,2.8,0.8,3.7-0.2C144.5,383,144.4,381.4,143.3,380.4z M65,412.3L65,412.3c-0.1-0.6-0.4-1.1-0.9-1.5
		c0,0,0,0,0,0c-0.6-0.5-1.3-0.6-2-0.5c-0.6,0.1-1.2,0.4-1.6,0.9c0,0-0.1,0.1-0.1,0.1c-0.4,0.5-0.5,1-0.5,1.6c0,0.7,0.3,1.5,0.9,2
		c1.1,0.9,2.7,0.8,3.6-0.3c0.1-0.1,0.2-0.2,0.2-0.3C65.1,413.6,65.2,412.9,65,412.3z M104.1,362.1c-1.1-0.9-2.8-0.7-3.6,0.4
		c-0.9,1.1-0.8,2.7,0.3,3.6c0,0,0,0,0,0c1.1,0.9,2.8,0.8,3.7-0.4C105.3,364.7,105.2,363.1,104.1,362.1z M150.2,471.3
		c-0.7-1.3-2.2-1.8-3.5-1.1s-1.8,2.2-1.1,3.5c0.7,1.3,2.2,1.8,3.5,1.1C150.4,474.2,150.9,472.6,150.2,471.3z M205.7,441.7
		c-0.7-1.3-2.2-1.8-3.5-1.1c-1.3,0.7-1.7,2.3-1,3.6c0.7,1.3,2.2,1.8,3.5,1.1C205.9,444.5,206.4,442.9,205.7,441.7z M54.5,408
		c0,0,0-0.1,0-0.1c-0.6-1.1-1.9-1.5-3-1c-0.6,0.3-1,0.9-1.2,1.5c-0.1,0.5-0.1,1.1,0.1,1.6c0.6,1.1,2,1.5,3.1,0.9
		c0.1,0,0.2-0.1,0.2-0.1C54.6,410.2,54.9,409,54.5,408z M102.8,383L102.8,383c0-0.1-0.1-0.2-0.1-0.3c-0.4-0.8-1.2-1.2-2-1.2h0
		c-0.3,0-0.6,0.1-1,0.2c-0.9,0.5-1.4,1.5-1.2,2.5c0,0.2,0.1,0.4,0.2,0.5c0.5,0.9,1.4,1.3,2.3,1.2h0c0.3,0,0.5-0.1,0.8-0.2
		C102.8,385.2,103.2,384,102.8,383z M16,316c-0.9-0.8-2.3-0.7-3.1,0.2c0,0,0,0-0.1,0.1c-0.8,0.9-0.7,2.4,0.2,3.2l0,0
		c1,0.7,2.4,0.6,3.2-0.4C17,318.2,16.9,316.8,16,316z M50.9,274.2c-0.9-0.8-2.3-0.7-3.1,0.2c0,0,0,0-0.1,0.1
		c-0.8,0.9-0.7,2.3,0.2,3.2c0,0,0,0,0,0c1,0.8,2.4,0.7,3.2-0.3C52,276.5,51.9,275,50.9,274.2z M157.8,479.2
		c-0.1-1.2-1.2-2.1-2.4-2.1c-1.2,0.1-2.1,1.2-2,2.4c0.1,1.2,1.2,2.1,2.4,2c1.2-0.1,2.1-1.1,2.1-2.2
		C157.8,479.3,157.8,479.3,157.8,479.2z M21.7,221.4c-1.1-0.8-2.6-0.5-3.4,0.6c0,0,0,0,0,0c-0.8,1-0.6,2.6,0.4,3.4
		c0,0,0.1,0.1,0.2,0.1c1.2,0.7,2.7,0.5,3.6-0.6C23.2,223.7,22.9,222.2,21.7,221.4z M88.5,431.2c-0.1-0.4-0.2-0.7-0.5-1
		c-0.6-0.7-1.5-1.1-2.5-0.9c-1.3,0.3-2.2,1.6-1.9,3c0.3,1.3,1.6,2.2,2.9,1.9c0.8-0.2,1.5-0.7,1.8-1.5
		C88.5,432.3,88.5,431.8,88.5,431.2z M148.5,420c-0.3-1.3-1.6-2.2-3-1.9c-1.3,0.3-2.2,1.6-1.9,3c0.3,1.3,1.6,2.2,2.9,1.9
		C147.8,422.8,148.7,421.4,148.5,420z M24.6,354.6C24.6,354.5,24.6,354.5,24.6,354.6c-0.7-1.2-2.2-1.6-3.4-0.9c0,0-0.1,0-0.1,0.1
		c-1.2,0.8-1.5,2.4-0.8,3.6c0.8,1.2,2.3,1.5,3.5,0.7C25,357.2,25.4,355.7,24.6,354.6z M75.8,321.2c-0.8-1.1-2.3-1.5-3.5-0.7
		c-1.2,0.7-1.5,2.3-0.8,3.5c0.5,0.7,1.4,1.2,2.2,1.2c0.5,0,0.9-0.1,1.4-0.4C76.3,323.9,76.6,322.3,75.8,321.2z M126.9,287.9
		c-0.7-1.2-2.2-1.5-3.3-0.8c0,0-0.1,0-0.1,0.1c-1.1,0.8-1.5,2.3-0.7,3.5c0.7,1.2,2.3,1.5,3.4,0.8
		C127.4,290.6,127.7,289.1,126.9,287.9z M5.1,395.9c-0.2-0.7-0.9-1.1-1.6-1c-0.7,0.2-1.1,0.9-1,1.6c0.2,0.7,0.9,1.1,1.6,1
		c0.6-0.1,1-0.7,1-1.3C5.2,396.1,5.2,396,5.1,395.9z" style="fill:#A1C3FC;"/>
	<polygon points="330.1,639 330.1,644 314.6,644 314.6,623.5 	" style="fill:#FFFFFF;"/>
	<polygon points="296.4,605.2 296.4,644 280.8,644 280.8,589.7 	" style="fill:#FFFFFF;"/>
	<polygon points="262.7,571.5 262.7,644 247.1,644 247.1,555.9 	" style="fill:#FFFFFF;"/>
	<polygon points="228.9,644 228.9,558.5 228.9,537.7 222.6,531.4 213.4,522.2 213.4,533.4 213.4,561.3 213.4,644 	" style="fill:#FFFFFF;"/>
	<polygon points="195.2,504 195.2,644 179.7,644 179.7,488.4 	" style="fill:#FFFFFF;"/>
	<polygon points="465,597.7 471,591.8 459,591.8 	" style="fill:#FFFFFF;"/>
	<polygon points="432,591.8 451.5,611.3 457.7,605 444.4,591.8 	" style="fill:#FFFFFF;"/>
	<polygon points="404.9,591.8 437.9,624.8 444.2,618.6 417.4,591.8 	" style="fill:#FFFFFF;"/>
	<polygon points="377.9,591.8 424.4,638.3 430.6,632.1 390.3,591.8 	" style="fill:#FFFFFF;"/>
	<polygon points="415.5,644 403,644 350.8,591.8 363.3,591.8 	" style="fill:#FFFFFF;"/>
	<polygon points="388.4,644 376,644 323.8,591.8 336.2,591.8 	" style="fill:#FFFFFF;"/>
	<path d="M50.9,421.7l-16.5-11.4C37.7,414.7,43.5,418.7,50.9,421.7z" style="fill:#D9E021;"/>
	<path d="M31.6,404.1l30.7,21.1c1.5,0.3,2.9,0.7,4.5,0.9l-35.4-24.4C31.3,402.6,31.4,403.3,31.6,404.1z" style="fill:#D9E021;"/>
	<path d="M31.9,397.9l42.7,29.4c1.2,0.1,2.4,0.2,3.6,0.3l-45.6-31.4C32.3,396.8,32.1,397.4,31.9,397.9z" style="fill:#D9E021;"/>
	<path d="M34.3,393.2L84.8,428c0.9,0,1.8,0,2.8,0c0.1,0,0.2,0,0.4,0l-52.6-36.2C35,392.3,34.6,392.7,34.3,393.2z" style="fill:#D9E021;"/>
	<path d="M37.9,389.3l56,38.6c0.9,0,1.9-0.1,2.8-0.2l-57.4-39.5C38.8,388.5,38.3,388.9,37.9,389.3z" style="fill:#D9E021;"/>
	<path d="M42.3,386l59.8,41.2c0.9-0.1,1.7-0.2,2.6-0.4L44,385C43.4,385.3,42.9,385.7,42.3,386z" style="fill:#D9E021;"/>
	<path d="M47.5,383.2l62.1,42.8c0.8-0.2,1.6-0.3,2.4-0.5l-62.6-43.1C48.7,382.6,48.1,382.9,47.5,383.2z" style="fill:#D9E021;"/>
	<path d="M53.3,380.8l63.2,43.5c0.7-0.2,1.5-0.4,2.2-0.6l-63.3-43.6C54.6,380.3,54,380.5,53.3,380.8z" style="fill:#D9E021;"/>
	<path d="M59.6,378.8l63.1,43.5c0.7-0.3,1.3-0.5,2-0.8l-62.8-43.3C61.1,378.4,60.4,378.6,59.6,378.8z" style="fill:#D9E021;"/>
	<path d="M66.6,377.2l61.9,42.6c0.6-0.3,1.2-0.6,1.8-0.9l-61.2-42.1C68.2,376.9,67.4,377,66.6,377.2z" style="fill:#D9E021;"/>
	<path d="M74.2,376.1l59.3,40.8c0.5-0.4,1-0.7,1.5-1.1l-58.2-40C76,375.9,75.1,376,74.2,376.1z" style="fill:#D9E021;"/>
	<path d="M82.5,375.4l55.3,38.1c0.4-0.4,0.9-0.8,1.3-1.3l-53.6-36.9C84.5,375.3,83.5,375.4,82.5,375.4z" style="fill:#D9E021;"/>
	<path d="M91.8,375.4l49.6,34.1c0.3-0.5,0.6-1,0.9-1.5l-47.2-32.5C94,375.5,92.9,375.4,91.8,375.4z" style="fill:#D9E021;"/>
	<path d="M102.2,376.2l41.3,28.4c0.2-0.6,0.3-1.3,0.3-1.9l-37.7-25.9C104.8,376.6,103.5,376.4,102.2,376.2z" style="fill:#D9E021;"/>
	<path d="M120.5,380.3c-1.7-0.6-3.6-1.1-5.5-1.6l28.3,19.5c-0.3-1-0.7-2-1.2-3L120.5,380.3z" style="fill:#D9E021;"/>
	<path d="M550.3,560l-25.7-17.7C529.7,549.2,538.7,555.3,550.3,560z" style="fill:#FFFFFF;"/>
	<path d="M520.2,532.6l47.8,32.9c2.3,0.5,4.6,1,6.9,1.5l-55.1-37.9C519.8,530.3,520,531.5,520.2,532.6z" style="fill:#FFFFFF;"/>
	<path d="M520.7,523.1l66.5,45.8c1.8,0.2,3.7,0.4,5.6,0.5l-71.1-48.9C521.3,521.3,521,522.2,520.7,523.1z" style="fill:#FFFFFF;"/>
	<path d="M524.4,515.7l78.7,54.2c1.4,0,2.9,0,4.3,0c0.2,0,0.4,0,0.6,0l-81.9-56.4C525.5,514.3,525,515,524.4,515.7z" style="fill:#FFFFFF;"/>
	<path d="M530,509.6l87.2,60c1.5-0.1,2.9-0.2,4.4-0.3l-89.4-61.6C531.5,508.4,530.7,509,530,509.6z" style="fill:#FFFFFF;"/>
	<path d="M537,504.5l93,64.1c1.3-0.2,2.7-0.4,4-0.5l-94.5-65.1C538.7,503.4,537.8,504,537,504.5z" style="fill:#FFFFFF;"/>
	<path d="M545,500.1l96.7,66.6c1.2-0.2,2.5-0.5,3.7-0.8l-97.5-67.1C546.9,499.2,546,499.6,545,500.1z" style="fill:#FFFFFF;"/>
	<path d="M554,496.4l98.4,67.7c1.1-0.3,2.3-0.7,3.4-1l-98.6-67.9C556.1,495.6,555.1,496,554,496.4z" style="fill:#FFFFFF;"/>
	<path d="M563.9,493.3l98.3,67.7c1-0.4,2.1-0.8,3.1-1.2l-97.8-67.3C566.2,492.6,565.1,492.9,563.9,493.3z" style="fill:#FFFFFF;"/>
	<path d="M574.8,490.8l96.3,66.3c0.9-0.5,1.9-0.9,2.7-1.4l-95.2-65.5C577.3,490.3,576,490.6,574.8,490.8z" style="fill:#FFFFFF;"/>
	<path d="M586.6,489l92.3,63.6c0.8-0.5,1.6-1.1,2.4-1.7l-90.5-62.3C589.4,488.7,588,488.9,586.6,489z" style="fill:#FFFFFF;"/>
	<path d="M599.6,488l86.1,59.3c0.7-0.6,1.3-1.3,2-2l-83.5-57.5C602.6,487.9,601.1,487.9,599.6,488z" style="fill:#FFFFFF;"/>
	<path d="M613.9,488l77.2,53.1c0.5-0.8,1-1.6,1.4-2.4l-73.4-50.5C617.4,488.1,615.6,488,613.9,488z" style="fill:#FFFFFF;"/>
	<path d="M630.2,489.2l64.3,44.2c0.2-1,0.4-2,0.5-3l-58.7-40.4C634.3,489.8,632.3,489.5,630.2,489.2z" style="fill:#FFFFFF;"/>
	<path d="M658.6,495.6c-2.7-0.9-5.6-1.8-8.5-2.5l44.1,30.4c-0.4-1.6-1.1-3.1-1.9-4.6L658.6,495.6z" style="fill:#FFFFFF;"/>
	<path d="M106,518.3l-8.4-5.8C99.2,514.7,102.2,516.7,106,518.3z" style="fill:#A1C3FC;"/>
	<path d="M96.1,509.3l15.7,10.8c0.7,0.2,1.5,0.3,2.3,0.5L96,508.1C96,508.5,96,508.9,96.1,509.3z" style="fill:#A1C3FC;"/>
	<path d="M96.3,506.1l21.8,15c0.6,0.1,1.2,0.1,1.8,0.2l-23.3-16C96.5,505.6,96.4,505.8,96.3,506.1z" style="fill:#A1C3FC;"/>
	<path d="M97.5,503.7l25.8,17.9c0.5,0,0.9,0.2,1.4,0.2c0.1,0,0.1,0,0.2,0L98,503.2C97.8,503.4,97.7,503.5,97.5,503.7z" style="fill:#A1C3FC;"/>
	<path d="M99.3,501.7l28.6,19.7c0.5,0,1-0.1,1.4-0.1L100,501.1C99.8,501.3,99.6,501.5,99.3,501.7z" style="fill:#A1C3FC;"/>
	<path d="M101.6,500l30.5,21c0.4-0.1,0.9-0.1,1.3-0.2l-31-21.3C102.2,499.7,101.9,499.9,101.6,500z" style="fill:#A1C3FC;"/>
	<path d="M104.2,498.6l31.7,21.8c0.4-0.1,0.8-0.2,1.2-0.3l-32-22C104.9,498.3,104.5,498.4,104.2,498.6z" style="fill:#A1C3FC;"/>
	<path d="M107.2,497.4l32.3,22.2c0.4-0.1,0.7-0.2,1.1-0.3L108.2,497C107.9,497.1,107.5,497.2,107.2,497.4z" style="fill:#A1C3FC;"/>
	<path d="M110.4,496.4l32.2,22.2c0.3-0.1,0.7-0.3,1-0.4l-32.1-22.1C111.2,496.2,110.8,496.3,110.4,496.4z" style="fill:#A1C3FC;"/>
	<path d="M114,495.5l31.6,21.7c0.3-0.2,0.6-0.3,0.9-0.5l-31.2-21.5C114.8,495.4,114.4,495.5,114,495.5z" style="fill:#A1C3FC;"/>
	<path d="M117.9,495l30.3,20.9c0.3-0.2,0.5-0.4,0.8-0.5l-29.7-20.4C118.8,494.9,118.3,494.9,117.9,495z" style="fill:#A1C3FC;"/>
	<path d="M122.1,494.6l28.3,19.5c0.2-0.2,0.4-0.4,0.6-0.6l-27.4-18.9C123.1,494.6,122.6,494.6,122.1,494.6z" style="fill:#A1C3FC;"/>
	<path d="M126.8,494.6l25.3,17.4c0.2-0.3,0.3-0.5,0.5-0.8l-24.1-16.6C128,494.7,127.4,494.6,126.8,494.6z" style="fill:#A1C3FC;"/>
	<path d="M132.2,495l21.1,14.5c0.1-0.3,0.1-0.6,0.2-1l-19.2-13.3C133.5,495.2,132.9,495.1,132.2,495z" style="fill:#A1C3FC;"/>
	<path d="M141.5,497.1c-0.9-0.3-1.8-0.6-2.8-0.8l14.5,10c-0.1-0.5-0.4-1-0.6-1.5L141.5,497.1z" style="fill:#A1C3FC;"/>
	<path d="M688.8,585.3c-2.1,0-4,0.7-5.5,2c-1,0.8-1.8,1.9-2.4,3c-0.5,1.1-0.8,2.4-0.8,3.7c0,4.6,3.5,8.3,8,8.7
		c0.2,0,0.5,0,0.7,0c1.1,0,2.1-0.2,3.1-0.6c3.3-1.2,5.6-4.4,5.6-8.1C697.5,589.2,693.6,585.3,688.8,585.3z M691.3,601
		c-0.8,0.3-1.6,0.4-2.5,0.4c-0.5,0-1,0-1.5-0.1c-3.4-0.7-6-3.7-6-7.4c0-0.8,0.1-1.6,0.4-2.4c0.4-1.3,1.2-2.4,2.2-3.3
		c1.3-1.1,3-1.8,4.9-1.8c4.1,0,7.5,3.4,7.5,7.5C696.3,597.2,694.2,600,691.3,601z" style="fill:#FFFFFF;"/>
	<path d="M688.8,580.2c-3,0-5.8,1-8.1,2.6c-1,0.7-1.9,1.6-2.7,2.5c-1.9,2.4-3,5.4-3,8.7c0,7.6,6.2,13.8,13.8,13.8
		c0.7,0,1.5-0.1,2.2-0.2c1.2-0.2,2.4-0.5,3.5-1.1h0c4.8-2.2,8.1-7,8.1-12.6C702.6,586.4,696.4,580.2,688.8,580.2z M693.9,605.5
		c-1.1,0.5-2.3,0.8-3.6,1c-0.5,0.1-1,0.1-1.5,0.1c-6.9,0-12.6-5.7-12.6-12.6c0-2.8,0.9-5.4,2.5-7.5c0.8-1,1.6-1.9,2.6-2.6
		c2.1-1.5,4.7-2.5,7.5-2.5c7,0,12.6,5.7,12.6,12.6C701.4,599.1,698.3,603.6,693.9,605.5z" style="fill:#FFFFFF;"/>
	<path d="M688.8,574.4c-4.1,0-7.8,1.2-10.9,3.4c-1,0.7-2,1.5-2.8,2.3c-3.6,3.5-5.8,8.4-5.8,13.8
		c0,10.8,8.8,19.6,19.5,19.6c1.8,0,3.5-0.2,5.1-0.7h0c1.2-0.3,2.3-0.8,3.4-1.3c6.5-3.2,11-9.9,11-17.6
		C708.3,583.2,699.6,574.4,688.8,574.4z M696.7,610.5c-1.1,0.5-2.2,0.9-3.4,1.2c-1.5,0.4-3,0.6-4.5,0.6c-10.1,0-18.3-8.2-18.3-18.4
		c0-5,2-9.5,5.2-12.8c0.8-0.9,1.8-1.7,2.8-2.3c3-2,6.5-3.2,10.3-3.2c10.1,0,18.3,8.2,18.3,18.3C707.1,601.2,702.9,607.5,696.7,610.5
		z" style="fill:#FFFFFF;"/>
	<path d="M713.8,587.2c-1.8-6.7-6.2-12.4-12.1-15.8c-2.1-1.2-4.3-2.1-6.7-2.7c-2-0.5-4.1-0.8-6.2-0.8
		c-5.2,0-10.1,1.6-14.2,4.2c-1,0.7-2,1.4-2.9,2.2c-5.4,4.8-8.8,11.7-8.8,19.5c0,14.3,11.6,25.9,25.9,25.9c2.9,0,5.8-0.5,8.4-1.4
		c1.2-0.4,2.3-0.8,3.3-1.4h0c8.3-4.2,14-12.8,14.2-22.7c0-0.1,0-0.3,0-0.4C714.7,591.6,714.4,589.4,713.8,587.2z M713.5,594
		c0,9.6-5.5,18-13.6,22.1c-1.1,0.5-2.2,1-3.3,1.4c-2.5,0.8-5.1,1.3-7.8,1.3c-13.6,0-24.7-11.1-24.7-24.7c0-7.3,3.2-13.9,8.3-18.4
		c0.9-0.8,1.9-1.6,2.9-2.2c3.9-2.6,8.6-4.1,13.6-4.1c2.6,0,5.1,0.4,7.4,1.1c2.9,0.9,5.5,2.3,7.8,4.1c3.2,2.5,5.8,5.8,7.5,9.7
		c1.2,2.7,1.9,5.5,2,8.6C713.5,593.2,713.5,593.6,713.5,594z" style="fill:#FFFFFF;"/>
	<path d="M694.9,562.9c-1.6-0.3-3.3-0.5-5-0.6c-0.4,0-0.8,0-1.1,0c-6.3,0-12.1,1.8-17.1,5c-1,0.6-2,1.4-2.9,2.1
		c-7.1,5.8-11.7,14.6-11.7,24.5c0,17.5,14.2,31.7,31.6,31.7c4,0,7.8-0.7,11.3-2.1c1.1-0.4,2.2-0.9,3.3-1.5
		c8.1-4.2,14.2-11.8,16.3-21c0.4-1.6,0.6-3.3,0.7-5.1c0.1-0.7,0.1-1.4,0.1-2.1C720.4,578.6,709.5,565.8,694.9,562.9z M718.7,599.8
		c-1.8,9.2-7.8,17-15.9,21.2c-1.1,0.6-2.2,1-3.3,1.5c-3.3,1.3-6.9,1.9-10.7,1.9c-16.8,0-30.4-13.7-30.4-30.5c0-9.4,4.3-17.9,11-23.5
		c0.9-0.8,1.9-1.5,2.9-2.1c4.8-3.1,10.4-4.9,16.5-4.9c0.7,0,1.4,0,2.1,0.1c1.8,0.1,3.5,0.4,5.2,0.8c13.3,3.3,23.1,15.3,23.1,29.6
		c0,0.2,0,0.3,0,0.5C719.2,596.3,719,598.1,718.7,599.8z" style="fill:#FFFFFF;"/>
	<polygon points="858.7,474.7 858.7,483.9 844.5,483.9 847.3,481.1 847.4,481.1 853.7,474.7 	" style="fill:#428DFC;"/>
	<polygon points="858.7,494.7 858.7,503.8 824.6,503.8 833.8,494.7 	" style="fill:#428DFC;"/>
	<polygon points="858.7,514.6 858.7,523.8 804.7,523.8 807.7,520.8 813.9,514.6 	" style="fill:#428DFC;"/>
	<polygon points="858.7,534.5 858.7,543.7 784.8,543.7 794,534.5 	" style="fill:#428DFC;"/>
	<polygon points="858.7,554.5 858.7,563.6 764.9,563.6 774.1,554.5 	" style="fill:#428DFC;"/>
	<path id="texture-2_15_w4uHJETek5szkgOwhFc2K" d="M87.7,643.8c-0.2,0-0.3,0.1-0.4,0.2H88
		C87.9,643.9,87.8,643.8,87.7,643.8z M100.4,631.7C100.4,631.7,100.4,631.7,100.4,631.7c-0.2-0.4-0.7-0.5-1.1-0.3
		c-0.4,0.2-0.5,0.7-0.3,1c0.2,0.4,0.6,0.5,1,0.4c0,0,0,0,0,0C100.5,632.6,100.6,632.1,100.4,631.7z M134.8,629.6
		c-0.4,0-0.7,0.4-0.7,0.8c0.1,0.4,0.4,0.7,0.9,0.7c0.4-0.1,0.7-0.4,0.7-0.9C135.6,629.9,135.2,629.6,134.8,629.6z M133,611.1
		c-0.4,0.1-0.7,0.4-0.7,0.9c0,0.4,0.4,0.7,0.8,0.7c0.4-0.1,0.7-0.4,0.7-0.9C133.8,611.4,133.4,611.1,133,611.1z M123.7,634.5
		c-0.4,0-0.6,0.4-0.6,0.8c0,0,0,0.1,0,0.1c0.1,0.4,0.4,0.7,0.8,0.7c0,0,0.1,0,0.1,0c0.4,0,0.7-0.4,0.7-0.8
		C124.5,634.8,124.2,634.5,123.7,634.5z M121.1,616c-0.4,0.1-0.7,0.5-0.6,0.9c0.1,0.4,0.4,0.7,0.9,0.7h0c0.4-0.1,0.7-0.5,0.7-0.9
		C121.9,616.3,121.5,616,121.1,616z M91.1,637.2c-0.2-0.4-0.7-0.5-1.1-0.3c-0.4,0.2-0.5,0.7-0.3,1.1c0.2,0.4,0.7,0.5,1.1,0.3
		C91.1,638.1,91.3,637.6,91.1,637.2z M81.6,621.2c-0.2-0.4-0.7-0.5-1.1-0.3c-0.4,0.2-0.5,0.7-0.2,1.1c0.2,0.4,0.7,0.5,1,0.3
		C81.7,622,81.8,621.5,81.6,621.2z M154.2,627.8c-0.4-0.1-0.8,0.1-0.9,0.5c-0.1,0.4,0.1,0.8,0.5,0.9c0.4,0.1,0.8-0.1,0.9-0.5
		C154.9,628.4,154.6,627.9,154.2,627.8z M158.9,609.7c-0.4-0.1-0.8,0.1-1,0.5c-0.1,0.4,0.2,0.8,0.6,0.9c0.4,0.1,0.8-0.1,0.9-0.5
		C159.5,610.3,159.3,609.8,158.9,609.7z M72.5,642.4C72.4,642.4,72.4,642.4,72.5,642.4c-0.2-0.4-0.6-0.5-1-0.3
		c-0.3,0.2-0.4,0.6-0.2,0.9c0.2,0.3,0.6,0.4,0.9,0.2C72.5,643.1,72.6,642.7,72.5,642.4z M64.3,628.4
		C64.3,628.4,64.3,628.4,64.3,628.4c-0.2-0.3-0.6-0.4-0.9-0.3c0,0,0,0,0,0c-0.3,0.2-0.4,0.6-0.3,0.9c0,0,0,0,0,0
		c0.2,0.3,0.6,0.4,0.9,0.2C64.4,629.1,64.5,628.7,64.3,628.4z M121.2,636.1C121.2,636.1,121.2,636.1,121.2,636.1
		c-0.4-0.1-0.8,0.1-0.8,0.5c-0.1,0.4,0.1,0.7,0.5,0.8c0.4,0.1,0.7-0.1,0.8-0.5C121.7,636.6,121.5,636.2,121.2,636.1z M125.3,620.5
		c-0.3-0.1-0.7,0.1-0.8,0.5c-0.1,0.4,0.1,0.7,0.5,0.8c0.4,0.1,0.7-0.1,0.8-0.5C125.9,620.9,125.7,620.5,125.3,620.5z M95.5,642.1
		C95.5,642.1,95.5,642.1,95.5,642.1c-0.4,0-0.6,0.3-0.6,0.7c0,0,0,0,0,0.1c0,0.4,0.4,0.6,0.7,0.6h0c0.4-0.1,0.6-0.4,0.6-0.8
		C96.2,642.3,95.8,642.1,95.5,642.1z M93.3,626.1c-0.3,0-0.6,0.4-0.6,0.7c0,0,0,0,0,0c0,0.4,0.4,0.6,0.7,0.6c0,0,0,0,0,0
		c0.4-0.1,0.6-0.4,0.6-0.8C94,626.3,93.7,626,93.3,626.1z M91.2,610c-0.3,0-0.6,0.4-0.6,0.7c0,0,0,0,0,0c0,0.4,0.4,0.6,0.7,0.6
		c0,0,0,0,0,0c0.3,0,0.5-0.3,0.6-0.5c0-0.1,0-0.1,0-0.2v0C91.9,610.2,91.6,610,91.2,610z M157.5,627.8c-0.3-0.2-0.7-0.2-0.9,0.1
		c-0.2,0.3-0.2,0.7,0.1,0.9c0.3,0.2,0.7,0.2,0.9-0.1c0.1-0.1,0.1-0.3,0.1-0.4C157.7,628.1,157.6,627.9,157.5,627.8z M82.9,641.7
		L82.9,641.7c-0.1-0.4-0.5-0.7-0.8-0.6c0,0,0,0,0,0c-0.4,0.1-0.7,0.5-0.6,0.9v0c0.1,0.4,0.5,0.7,0.9,0.6
		C82.7,642.5,83,642.1,82.9,641.7z M78.8,624.1C78.8,624,78.8,624,78.8,624.1c-0.1-0.4-0.5-0.7-0.9-0.6c-0.4,0.1-0.6,0.5-0.5,0.9
		c0.1,0.4,0.5,0.7,0.9,0.5c0,0,0,0,0,0C78.7,624.8,78.9,624.5,78.8,624.1z M73.8,605.8c-0.4,0.1-0.6,0.5-0.6,0.9c0,0,0,0,0,0
		c0.1,0.4,0.4,0.6,0.8,0.6c0,0,0,0,0.1,0c0.4-0.1,0.7-0.5,0.6-0.9C74.7,606,74.2,605.7,73.8,605.8z M133.1,633.3
		c-0.3-0.2-0.8-0.1-1,0.3c-0.2,0.3-0.1,0.8,0.3,1c0.3,0.2,0.8,0.1,1-0.2C133.5,634,133.4,633.5,133.1,633.3z M142.7,617.9
		c-0.3-0.2-0.8-0.1-1,0.3c-0.2,0.4-0.1,0.8,0.3,1c0.4,0.2,0.8,0.1,1-0.2C143.1,618.6,143,618.2,142.7,617.9z M103.5,631.9
		C103.5,631.9,103.5,631.9,103.5,631.9c-0.4-0.1-0.8,0.2-0.9,0.5c0,0,0,0,0,0c0,0.4,0.2,0.8,0.6,0.9c0.4,0.1,0.8-0.2,0.8-0.6
		C104.2,632.3,103.9,632,103.5,631.9z M106.5,614c-0.4,0-0.8,0.2-0.8,0.6s0.2,0.8,0.6,0.9c0,0,0.1,0,0.1,0c0.4,0,0.7-0.3,0.8-0.6
		C107.2,614.5,106.9,614.1,106.5,614z M109.5,596.1c-0.4-0.1-0.8,0.2-0.8,0.6c0,0,0,0,0,0c-0.1,0.4,0.2,0.8,0.6,0.9
		c0.4,0.1,0.8-0.2,0.9-0.6C110.2,596.6,109.9,596.2,109.5,596.1z M68,641.1c-0.1-0.2-0.3-0.3-0.5-0.3c-0.2,0-0.3,0.2-0.3,0.4
		c0,0,0,0.1,0,0.1c0,0,0,0,0,0.1c0.1,0.2,0.3,0.3,0.5,0.3C67.9,641.5,68.1,641.3,68,641.1z" style="fill:#FFFFFF;"/>
	<path id="texture-2_16_w4uHJETek5szkgOwhFc2K" d="M792.1,632.9c-0.4,0-0.8,0.2-0.9,0.7c0,0.4,0.3,0.8,0.7,0.9
		c0.4,0,0.8-0.3,0.8-0.7C792.8,633.3,792.5,632.9,792.1,632.9z M804,637.8c-0.4,0-0.8,0.2-0.9,0.7c-0.1,0.4,0.2,0.8,0.7,0.9h0
		c0.4,0,0.8-0.2,0.9-0.7C804.7,638.2,804.4,637.8,804,637.8z M844.6,642.6c-0.4-0.2-0.9-0.1-1.1,0.3c-0.2,0.4-0.1,0.8,0.3,1.1
		c0,0,0,0,0.1,0h0.6c0.1-0.1,0.2-0.2,0.3-0.3C845,643.3,844.9,642.9,844.6,642.6z M767.2,632c-0.1-0.4-0.5-0.7-0.9-0.6
		c-0.4,0.1-0.7,0.5-0.6,1c0.1,0.4,0.5,0.7,0.9,0.5C767,632.9,767.2,632.5,767.2,632z M800.6,642.7c-0.1-0.3-0.5-0.6-0.8-0.5
		c-0.4,0.1-0.6,0.5-0.5,0.8c0.1,0.4,0.5,0.6,0.8,0.5C800.4,643.4,800.7,643,800.6,642.7z M834.3,632.2c-0.1-0.2-0.3-0.4-0.5-0.4
		c-0.4,0-0.7,0.2-0.8,0.6c0,0,0,0.1,0,0.1c0,0.3,0.3,0.6,0.6,0.6c0,0,0,0,0,0c0.4,0,0.7-0.2,0.7-0.6c0,0,0,0,0,0
		C834.4,632.4,834.4,632.3,834.3,632.2z M851.6,627.8c-0.1-0.1-0.2-0.2-0.4-0.2c-0.4-0.1-0.8,0.1-0.9,0.5v0
		c-0.1,0.4,0.2,0.8,0.6,0.9c0,0,0,0,0.1,0c0.4,0.1,0.8-0.2,0.8-0.6v0C851.8,628.2,851.8,628,851.6,627.8z M783.4,640
		c-0.2-0.4-0.7-0.5-1-0.3c-0.4,0.2-0.5,0.7-0.3,1c0.2,0.3,0.7,0.5,1,0.2C783.5,640.8,783.6,640.3,783.4,640z M819.2,635.9
		c-0.2-0.1-0.4-0.2-0.6-0.1c-0.3,0-0.5,0.2-0.6,0.4c-0.1,0.1-0.1,0.3-0.1,0.4c0.1,0.4,0.4,0.6,0.8,0.6c0,0,0.1,0,0.1,0
		c0.4-0.1,0.7-0.5,0.6-0.9C819.4,636.2,819.3,636,819.2,635.9z M816.4,618.5c-0.1-0.4-0.5-0.6-0.8-0.6c-0.4,0.1-0.7,0.5-0.6,0.9
		c0.1,0.4,0.5,0.7,0.9,0.6C816.2,619.3,816.5,618.9,816.4,618.5C816.5,618.5,816.5,618.5,816.4,618.5z" style="fill:#FFFFFF;"/>
</g>
<g>
	<path id="texture-2_6_xjpZZ1M6Ko54KYyom0AIe" d="M517.4,207.9c0.1-0.6-0.4-1.1-0.9-1.2c-0.6-0.1-1.1,0.4-1.2,1
		c-0.1,0.6,0.4,1.1,0.9,1.2l0,0C516.8,208.9,517.4,208.5,517.4,207.9L517.4,207.9z M485.8,101.6c0.5-0.4,0.6-1.1,0.2-1.6l0,0
		c-0.3-0.5-1-0.5-1.4-0.2c0,0-0.1,0.1-0.1,0.1c-0.5,0.4-0.6,1-0.2,1.5C484.6,101.9,485.3,102,485.8,101.6L485.8,101.6L485.8,101.6z
		 M498.4,156.5c0.6-0.2,0.9-0.8,0.8-1.4c-0.2-0.6-0.8-0.9-1.4-0.7c-0.6,0.2-0.9,0.8-0.8,1.4C497.2,156.3,497.8,156.6,498.4,156.5z
		 M642.3,163.9c1.1-0.3,1.8-1.4,1.6-2.5c-0.2-1.1-1.2-1.8-2.3-1.6c0,0-0.1,0-0.1,0c-1.1,0.3-1.8,1.4-1.6,2.5
		C640.1,163.5,641.1,164.2,642.3,163.9L642.3,163.9z M593.4,174.9c1.1-0.3,1.8-1.4,1.5-2.5c-0.3-1.1-1.4-1.8-2.5-1.5
		c-1.1,0.2-1.8,1.3-1.6,2.4l0,0C591.2,174.4,592.3,175.1,593.4,174.9z M544.4,185.8c1.1-0.2,1.8-1.3,1.6-2.4c0,0,0,0,0-0.1
		c-0.2-1.1-1.2-1.8-2.3-1.6c0,0-0.1,0-0.1,0c-1.1,0.3-1.8,1.4-1.6,2.5C542.2,185.4,543.3,186.1,544.4,185.8z M622.3,269.4
		c0.2-1.1-0.6-2.2-1.7-2.3c-1.1-0.2-2.2,0.6-2.3,1.8c-0.2,1.1,0.6,2.1,1.7,2.3C621,271.3,622.1,270.6,622.3,269.4L622.3,269.4z
		 M572.9,260.8c0.2-1.1-0.6-2.2-1.7-2.3c-1.1-0.2-2.2,0.6-2.3,1.8c-0.2,1.1,0.6,2.1,1.7,2.3C571.7,262.7,572.7,261.9,572.9,260.8
		L572.9,260.8z M581.7,82.9c0.9-0.7,1.1-2,0.5-2.9c-0.6-0.9-1.9-1.1-2.8-0.5c0,0,0,0,0,0c-0.9,0.6-1.2,1.8-0.7,2.7
		c0,0,0.1,0.1,0.1,0.1C579.5,83.2,580.7,83.5,581.7,82.9z M540.6,111.7c0.9-0.7,1.2-2,0.5-2.9c-0.7-0.9-2-1.1-2.9-0.5
		c-0.9,0.7-1.2,1.9-0.5,2.9c0,0,0,0,0,0C538.4,112.1,539.6,112.4,540.6,111.7C540.6,111.7,540.6,111.7,540.6,111.7z M499.6,140.5
		c0.9-0.6,1.2-1.8,0.6-2.8c0,0,0-0.1-0.1-0.1c-0.6-1-1.9-1.2-2.8-0.6c0,0-0.1,0-0.1,0.1c-0.9,0.7-1.2,2-0.5,2.9
		C497.3,141,498.6,141.2,499.6,140.5C499.5,140.6,499.6,140.6,499.6,140.5z M612.4,317.7c0.3-1-0.3-2-1.3-2.3c-1-0.3-2,0.3-2.3,1.3
		c-0.3,1,0.3,2,1.3,2.3l0,0C611.1,319.3,612.1,318.7,612.4,317.7z M588.7,131.6c0.9-0.5,1.2-1.7,0.7-2.6c-0.5-0.9-1.6-1.2-2.4-0.7
		c0,0,0,0-0.1,0c-0.9,0.5-1.2,1.6-0.7,2.5c0,0,0,0,0,0C586.7,131.8,587.8,132.1,588.7,131.6L588.7,131.6z M549.8,153.7
		c0.9-0.5,1.2-1.6,0.7-2.5c-0.5-0.9-1.6-1.2-2.4-0.7c0,0,0,0-0.1,0c-0.9,0.5-1.2,1.6-0.7,2.5c0,0,0,0,0,0
		C547.8,153.9,548.9,154.2,549.8,153.7L549.8,153.7z M510.8,175.9c0.9-0.5,1.2-1.6,0.7-2.5c0,0,0,0,0,0c-0.4-0.9-1.5-1.2-2.3-0.7
		c-0.1,0-0.1,0.1-0.2,0.1c-0.9,0.5-1.2,1.6-0.7,2.5c0,0,0,0,0,0C508.8,176.1,509.9,176.4,510.8,175.9L510.8,175.9z M596.3,229.6
		c1-0.2,1.7-1.1,1.6-2.1c-0.1-1-1-1.7-2-1.6c-1,0.1-1.7,1-1.7,2.1C594.3,229,595.2,229.7,596.3,229.6L596.3,229.6z M551.9,235.1
		c1-0.1,1.7-0.9,1.6-1.9c0,0,0-0.1,0-0.1c-0.1-1-1-1.7-2-1.6c-1,0.1-1.7,1-1.7,2.1C549.9,234.5,550.9,235.2,551.9,235.1L551.9,235.1
		z M514.6,79c0.6-0.8,0.5-1.9-0.2-2.5c0,0-0.1-0.1-0.1-0.1c-0.8-0.6-1.9-0.5-2.6,0.2c0,0,0,0,0,0c-0.6,0.8-0.4,2,0.4,2.6
		C512.8,80,513.9,79.8,514.6,79C514.5,79,514.6,79,514.6,79L514.6,79z M487,114.4c0.6-0.8,0.5-2-0.3-2.6c-0.8-0.6-2-0.4-2.6,0.4
		c-0.6,0.8-0.5,1.9,0.3,2.5C485.1,115.3,486.3,115.2,487,114.4C487,114.4,487,114.4,487,114.4L487,114.4z M658.2,305
		c1.2-0.2,2-1.3,1.8-2.5c-0.2-1.2-1.2-2-2.4-1.8c-1.2,0.2-2,1.3-1.8,2.5C656,304.3,657,305.1,658.2,305L658.2,305z M607,311.9
		c1.2-0.2,2-1.2,1.8-2.4c-0.1-1.2-1.2-2-2.4-1.8c-1.2,0.2-2,1.2-1.8,2.4C604.8,311.2,605.8,312,607,311.9L607,311.9z M550.8,115.8
		c0.7-1,0.5-2.3-0.4-3.1c-1-0.7-2.3-0.5-3,0.5c-0.7,0.9-0.5,2.2,0.4,2.9C548.8,116.9,550.1,116.7,550.8,115.8L550.8,115.8z
		 M519.4,156.9c0.7-0.9,0.5-2.3-0.4-3c-0.9-0.7-2.3-0.5-3,0.4c-0.7,0.9-0.6,2.3,0.4,3C517.4,158,518.7,157.9,519.4,156.9
		L519.4,156.9z M604.1,215c1-0.6,1.3-1.9,0.8-3c-0.6-1-1.9-1.3-2.9-0.7c-1,0.6-1.4,1.8-0.8,2.9c0,0,0,0,0,0
		C601.8,215.3,603.1,215.6,604.1,215C604.1,215,604.1,215,604.1,215L604.1,215z M559.4,241c1-0.6,1.4-1.9,0.8-3c0,0,0,0,0,0
		c-0.6-1-1.9-1.3-2.9-0.7l0,0c-1,0.6-1.4,1.9-0.8,2.9C557.1,241.3,558.4,241.6,559.4,241L559.4,241z M628.9,240.3
		c1-0.6,1.4-1.9,0.8-2.9c-0.6-1-1.9-1.4-2.9-0.8c-1,0.6-1.4,1.8-0.8,2.8C626.5,240.5,627.8,240.9,628.9,240.3L628.9,240.3z
		 M583.3,264.4c1-0.6,1.4-1.9,0.9-2.9c-0.6-1-1.8-1.4-2.9-0.9c-1,0.6-1.5,1.9-0.9,3C581,264.5,582.3,264.9,583.3,264.4L583.3,264.4z
		 M543.3,175.2c0.7-0.9,0.6-2.3-0.3-3c-0.9-0.7-2.2-0.6-3,0.3c-0.8,0.9-0.7,2.2,0.1,2.9c0,0,0,0,0.1,0.1
		C541.1,176.3,542.5,176.2,543.3,175.2C543.3,175.3,543.3,175.2,543.3,175.2L543.3,175.2z" style="fill:#428DFC;"/>
	<polygon points="691.3,160.3 709.7,158.9 711,177.3 692.6,178.7 	" style="fill:#428DFC;"/>
	<polygon points="379.5,21.9 392.3,35.2 378.9,48 366.2,34.7 	" style="fill:#A1C3FC;"/>
	<polygon points="437.4,104.6 462,102.8 463.8,127.4 439.2,129.3 	" style="fill:#E94A47;"/>
	<path d="M362.3,151c-0.2-0.1-0.4-0.3-0.4-0.6c-3.4-37.2-25.5-71.9-57.6-90.8c-0.4-0.2-0.5-0.7-0.3-1s0.7-0.5,1-0.3
		c32.5,19,54.9,54.3,58.4,91.9c0,0.4-0.3,0.8-0.7,0.8C362.6,151.1,362.4,151,362.3,151z" style="fill:#428DFC;"/>
	<path d="M326.1,213.6c-0.1-0.1-0.2-0.2-0.3-0.3c-12.6-25.4-40.1-42.8-68.4-43.4c-0.4,0-0.7-0.4-0.7-0.8
		c0-0.4,0.4-0.7,0.8-0.7c28.8,0.6,56.9,18.4,69.7,44.2c0.2,0.4,0,0.8-0.3,1C326.5,213.8,326.3,213.8,326.1,213.6z" style="fill:#428DFC;"/>
	<path d="M527.1,218.9c-0.2-0.1-0.3-0.2-0.3-0.4c-0.1-0.4,0.1-0.8,0.4-1c32.9-12.4,70.6-9.4,101,8.2
		c0.4,0.2,0.6,0.4,0.4,0.8c-0.2,0.4-0.5,0.2-0.9,0c0,0,0,0,0,0c-30.4-16.5-67.4-20.1-99.9-7.8C527.7,218.7,527.3,219,527.1,218.9z" style="fill:#428DFC;"/>
</g>
<g>
	<path id="tailiYSfMmn58AodN0XpeXSud" d="M668,478.3c0,0-5.6-4.5-28.5,3.7c-22.9,8.1-34.7-5.3-34.7-5.3
		c-1.9,12.7,5.3,20.7,14.1,24.8c4.7,3.3,10.3,5.1,16.1,5.2c8.9,0.1,19.1-4.3,26.5,2.7c0.3,0.2,0.7-0.2,0.5-0.5
		c-4.8-4.6-11.4-4.5-17.7-3.8c-7.8,0.9-15,0.9-21.6-2.3c5.3,1.7,10.7,1.9,14.7,0.9c11.7-3.1,26.9,1.7,26.9,1.7
		C671.4,500.1,668,478.3,668,478.3z" style="fill:#23286B;"/>
	
		<linearGradient id="front_legiYSfMmn58AodN0XpeXSud_1_" gradientUnits="userSpaceOnUse" x1="39296.7227" y1="-17621.7754" x2="43638.3008" y2="-17621.7754" gradientTransform="matrix(1.635400e-02 0 0 -1.635400e-02 -180.3381 95.0228)">
		<stop offset="0" style="stop-color:#A1C3FC"/>
		<stop offset="0.6955" style="stop-color:#81AEF2"/>
		<stop offset="1" style="stop-color:#78A9EF"/>
	</linearGradient>
	<path id="front_legiYSfMmn58AodN0XpeXSud" d="M527.2,364.5c0.8,8.3-3,16.5-9.9,21.2c-11.8,8.2-27.4,11.6-37,9.6
		c-9.6-1.9-13.7-8.4-18-2.2c0,0,25.5,17.6,42.6,10.1c17.1-7.5,25-11.3,27.2-21.9c2.2-10.6,1.7-18.9-2.6-20
		C525.1,360.5,527.2,364.5,527.2,364.5z" style="fill:url(#front_legiYSfMmn58AodN0XpeXSud_1_);"/>
	
		<linearGradient id="back_legiYSfMmn58AodN0XpeXSud_1_" gradientUnits="userSpaceOnUse" x1="45749.8359" y1="-26171.8125" x2="48168.8359" y2="-26171.8125" gradientTransform="matrix(1.635400e-02 0 0 -1.635400e-02 -180.3381 95.0228)">
		<stop offset="0" style="stop-color:#A1C3FC"/>
		<stop offset="0.6955" style="stop-color:#81AEF2"/>
		<stop offset="1" style="stop-color:#78A9EF"/>
	</linearGradient>
	<path id="back_legiYSfMmn58AodN0XpeXSud" d="M604.8,476.6c0,0-0.7,19.2-4.6,32.7c-3.8,13.4,4.8,29.8,6.5,41.3
		c1.7,11.6-0.5,18.9-0.5,18.9h-22.6c0,0-0.3-7.5,8.7-6.8c7.2,0.5,0.2-17.1-3.3-21.9c-3.6-4.8-16.9-3.3-19.7-21.6
		c-2.9-18.2,0.5-31.2-1.5-34.3L604.8,476.6z" style="fill:url(#back_legiYSfMmn58AodN0XpeXSud_1_);"/>
	
		<linearGradient id="bottom_lipiYSfMmn58AodN0XpeXSud_1_" gradientUnits="userSpaceOnUse" x1="42132.2617" y1="-16481.0312" x2="42997.4062" y2="-16481.0312" gradientTransform="matrix(1.635400e-02 0 0 -1.635400e-02 -180.3381 95.0228)">
		<stop offset="0" style="stop-color:#A1C3FC"/>
		<stop offset="0.6955" style="stop-color:#81AEF2"/>
		<stop offset="1" style="stop-color:#78A9EF"/>
	</linearGradient>
	<path id="bottom_lipiYSfMmn58AodN0XpeXSud" d="M522.8,363.9c-0.2,0.8-1.2,2.7-5.3,3c-3.1,0.2-6.2-0.5-8.9-2.2l6.2-2.6
		c2.3,0.7,4.6,1.2,6.9,1.6C522.2,363.8,522.5,363.8,522.8,363.9z" style="fill:url(#bottom_lipiYSfMmn58AodN0XpeXSud_1_);"/>
	<path id="bodyiYSfMmn58AodN0XpeXSud" d="M592.8,509.8c-11.2,13.7-1.6,32.4-2.5,41.9c-0.6,6.2-2.4,12.2-5.1,17.8
		l-29.3-0.1c0,0,2.4-8.6,10.7-7.4c8.3,1.2,9.1-15.8,4.7-19.9c-4.4-4.2-19-17.8-17.6-35.6c1.4-17.8,9.7-27.9-7.3-41.9
		c-17-14.1-25.3-22-32.1-45.9c0,0-16.6,2.8-37.8-10.1c-21.2-12.9-27.9-16.4-27.9-16.4s5.5-7.1,15.6-0.2s31.1,14.1,49.6,3.2l0,0l0,0
		c18.6-10.9,18-29.7,13.3-30.7c-1-0.2-3-0.5-5.4-0.9c-8.3-1.4-22-5-19-18.5c0.2-0.6,0.3-1.2,0.5-1.9l0.5-1.5l0,0
		c0.2,0.1,2.1,0.8,4.7,1.5c4.7,1.3,11.6,2.9,15.4,1.5c4.3-1.5,8.9-2.2,13.5-2c1.5,0.1,3,0.2,4.3,0.6l0,0c1.4,0.3,2.8,0.9,4.1,1.6
		c1.8,1,3.3,2.4,4.3,4.1c0.1,0.2,0.2,0.3,0.2,0.5c0.2,0.3,0.3,0.6,0.5,0.9c2.4,5.3,1.9,9.7,0.9,14.2v0.1c-1,4.5-2.6,9-2.1,14.5
		c0.8,10.9,6.4,52,55.1,97.3C604.7,476.6,604,496.1,592.8,509.8z" style="fill:#A1C3FC;"/>
	
		<linearGradient id="eariYSfMmn58AodN0XpeXSud_1_" gradientUnits="userSpaceOnUse" x1="41253.2227" y1="-16861.8086" x2="44821.2383" y2="-16861.8086" gradientTransform="matrix(1.635400e-02 0 0 -1.635400e-02 -180.3381 95.0228)">
		<stop offset="0" style="stop-color:#23286B"/>
		<stop offset="1" style="stop-color:#151A4F"/>
	</linearGradient>
	<path id="eariYSfMmn58AodN0XpeXSud" d="M552.7,359.3c0-0.1,0-0.2-0.1-0.2c0.1-3-0.5-5.8-1.7-8.5
		c-0.2-0.3-0.3-0.6-0.5-0.9c-0.1-0.2-0.2-0.3-0.2-0.5c-1.1-1.7-2.6-3.2-4.3-4.1c-1.3-0.7-2.6-1.2-4.1-1.6l0,0
		c-1.4-0.3-2.9-0.5-4.3-0.6c-0.3,1.3-0.7,2.6-1.2,3.9c-3.3,6.9-10.6,12.2-16.9,16.1c-7.4,4.6-16.6,6.9-24.5,2.2
		c-0.2-0.1-0.3,0-0.4,0.2s0,0.3,0.1,0.4c7.6,4.6,16.6,2.8,23.9-1.5c5-3,10.6-6.8,14.7-11.6c-3,4.4-6.8,8.2-11.3,11.2
		c-5.9,4-14,7.6-25.1,9.6c0,0,3.7,15.3,17.2,21.8c4.5,2.2,10.2,3.4,17.2,2.8c0,0,11.1-11.6,17.5-24.6c-3.2,9.1-8,17.5-14.2,24.9
		c-0.2,0.3,0.2,0.7,0.5,0.5c7.6-8.9,13.1-19.5,16.2-30.8c0.4-1,0.7-2,0.9-3v-0.1c0.4-1.6,0.6-3.3,0.8-4.9
		C552.6,359.6,552.7,359.5,552.7,359.3z" style="fill:url(#eariYSfMmn58AodN0XpeXSud_1_);"/>
	<path id="eyeiYSfMmn58AodN0XpeXSud" d="M524.6,342.4c-0.9,1.8-0.2,4,1.6,4.9c0.6,0.3,1.4,0.5,2.1,0.4
		c0.5-0.1,0.5-0.9,0-0.9c-1.5,0.2-3-0.8-3.1-2.3c-0.1-0.5,0-1.2,0.2-1.6C525.6,342.3,524.8,341.9,524.6,342.4L524.6,342.4z" style="fill:#1C2868;"/>
	<path id="noseiYSfMmn58AodN0XpeXSud" d="M508.4,343.4c-0.7,2.1-4.9,1.9-5.7,1.8c0.2-0.6,0.3-1.2,0.5-1.9l0.5-1.5l0,0
		C504,342,505.9,342.7,508.4,343.4z" style="fill:#1C2868;"/>
	<path id="textureiYSfMmn58AodN0XpeXSud" d="M544.1,393.8c0,0.2,0.2,0.3,0.3,0.3l0,0c0.2,0,0.3-0.2,0.3-0.3l0,0
		c0-0.2-0.2-0.3-0.3-0.3l0,0C544.2,393.5,544.1,393.6,544.1,393.8L544.1,393.8z M547.2,423.6c-0.2,0.2-0.2,0.3,0,0.5
		c0.1,0.2,0.3,0.2,0.5,0.1l0,0c0.2-0.2,0.2-0.3,0-0.5C547.5,423.6,547.4,423.6,547.2,423.6L547.2,423.6z M552.9,418.5
		c-0.2,0.2-0.2,0.3,0,0.5c0.2,0.2,0.3,0.2,0.5,0l0,0c0.2-0.1,0.2-0.3,0-0.5l0,0C553.3,418.4,553,418.4,552.9,418.5L552.9,418.5z
		 M542,408.1c0.1,0.2,0.2,0.2,0.4,0.2c0.2-0.1,0.2-0.2,0.2-0.4c-0.1-0.2-0.2-0.2-0.4-0.2C542,407.7,541.9,407.9,542,408.1z
		 M549.2,405.5c0.1,0.2,0.2,0.2,0.4,0.2c0.2-0.1,0.2-0.2,0.2-0.4c-0.1-0.2-0.2-0.2-0.4-0.2C549.2,405.2,549.1,405.4,549.2,405.5z
		 M561.4,429.9c-0.1,0.2,0,0.3,0.2,0.4c0.2,0.1,0.3,0,0.4-0.2l0,0c0.1-0.2,0-0.3-0.1-0.4l0,0C561.6,429.7,561.5,429.8,561.4,429.9z
		 M539.7,400.9c0,0.2,0.2,0.2,0.3,0.2c0.2,0,0.2-0.2,0.2-0.3c0-0.2-0.2-0.2-0.3-0.2l0,0C539.7,400.6,539.7,400.7,539.7,400.9
		L539.7,400.9z M546.3,399.2c0,0.2,0.2,0.2,0.3,0.2c0.2,0,0.2-0.2,0.2-0.3c0-0.2-0.2-0.2-0.3-0.2l0,0
		C546.3,398.9,546.3,399.1,546.3,399.2L546.3,399.2z M556.8,423.9c-0.1,0.2,0,0.3,0.1,0.4c0.2,0.1,0.3,0.1,0.4-0.1l0,0
		c0.1-0.2,0.1-0.3-0.1-0.4l0,0C557.1,423.8,556.9,423.8,556.8,423.9z M549.1,387.1c0,0.2,0.1,0.3,0.2,0.3l0,0c0.2,0,0.3-0.1,0.3-0.2
		l0,0c0-0.2-0.1-0.3-0.2-0.3l0,0C549.2,386.9,549.1,387,549.1,387.1z M548.4,411.4c-0.2,0.1-0.2,0.3-0.1,0.4
		c0.1,0.2,0.2,0.2,0.4,0.1c0.2-0.1,0.2-0.2,0.1-0.4C548.8,411.4,548.5,411.4,548.4,411.4L548.4,411.4z M554,407.4
		c-0.2,0.1-0.2,0.2-0.1,0.4l0,0c0.1,0.2,0.2,0.2,0.4,0.1c0.2-0.1,0.2-0.2,0.1-0.4C554.3,407.3,554.1,407.3,554,407.4L554,407.4z
		 M547,389.9c0,0.1,0.2,0.2,0.2,0.2l0,0c0.1,0,0.2-0.2,0.2-0.2l0,0c0-0.1-0.2-0.2-0.2-0.2l0,0C547,389.7,547,389.8,547,389.9
		L547,389.9z M558.3,405.5c-0.1,0.1,0,0.2,0.1,0.2l0,0c0.1,0.1,0.2,0,0.2-0.1c0.1-0.1,0-0.2-0.1-0.2
		C558.5,405.4,558.4,405.5,558.3,405.5L558.3,405.5L558.3,405.5z M549.1,380.1c0,0.1,0.1,0.2,0.2,0.2l0,0c0.1,0,0.2-0.1,0.2-0.2
		s-0.1-0.2-0.2-0.2l0,0C549.2,380,549.1,380.1,549.1,380.1L549.1,380.1z M534.5,406c-0.2,0.1-0.2,0.3-0.1,0.5
		c0.1,0.2,0.3,0.2,0.5,0.1c0.2-0.1,0.2-0.3,0.1-0.5C534.9,405.9,534.6,405.9,534.5,406z M540.8,401.3c-0.2,0.1-0.2,0.3-0.1,0.5
		c0.1,0.2,0.3,0.2,0.5,0.1c0.2-0.1,0.2-0.3,0.1-0.5C541.1,401.2,541,401.2,540.8,401.3L540.8,401.3z M547.1,396.5
		c-0.2,0.1-0.2,0.3-0.1,0.5c0.1,0.2,0.3,0.2,0.5,0.1c0.2-0.1,0.2-0.3,0.1-0.5C547.5,396.5,547.3,396.5,547.1,396.5z M545.8,385.9
		c0.1,0.2,0.2,0.3,0.4,0.2c0.2-0.1,0.3-0.2,0.2-0.4c-0.1-0.2-0.2-0.3-0.4-0.2C545.9,385.6,545.7,385.7,545.8,385.9L545.8,385.9z
		 M548.4,414c-0.1,0.2,0,0.4,0.2,0.5c0.2,0.1,0.4,0,0.5-0.2s0.1-0.4-0.1-0.5l0,0C548.8,413.8,548.6,413.8,548.4,414L548.4,414
		L548.4,414z M552.5,407.2c-0.1,0.2-0.1,0.4,0.2,0.5l0,0c0.2,0.1,0.3,0,0.5-0.1l0,0c0.1-0.2,0.1-0.4-0.1-0.5
		C552.8,406.9,552.6,407,552.5,407.2L552.5,407.2z M547.6,380.5c0.1,0.2,0.2,0.3,0.4,0.2c0.2-0.1,0.3-0.2,0.2-0.4
		c0-0.2-0.2-0.3-0.4-0.2l0,0C547.7,380.1,547.5,380.2,547.6,380.5L547.6,380.5z M543.2,412.5c-0.1,0.2-0.1,0.4,0.1,0.5
		c0.2,0.1,0.4,0.1,0.5-0.1c0.1-0.2,0.1-0.3-0.1-0.5C543.5,412.3,543.3,412.3,543.2,412.5L543.2,412.5z M547.6,405.8
		c-0.1,0.2-0.1,0.4,0.1,0.5c0.2,0.1,0.3,0.1,0.5-0.1c0.1-0.2,0.1-0.4-0.1-0.5C547.8,405.7,547.7,405.7,547.6,405.8z M551.9,399.2
		c-0.1,0.2-0.1,0.4,0.1,0.5c0.2,0.1,0.4,0.1,0.5-0.1c0.1-0.2,0.1-0.4-0.1-0.5l0,0C552.2,399,551.9,399.1,551.9,399.2L551.9,399.2z
		 M541.1,393.4c-0.2,0.1-0.2,0.3-0.1,0.5l0,0c0.1,0.2,0.3,0.2,0.5,0.1c0.2-0.1,0.2-0.3,0.1-0.5C541.4,393.3,541.2,393.3,541.1,393.4
		L541.1,393.4z M547.6,388.9c-0.2,0.1-0.2,0.3-0.1,0.5c0.1,0.2,0.3,0.2,0.5,0.1l0,0c0.2-0.1,0.2-0.3,0.1-0.5
		C547.9,388.8,547.7,388.8,547.6,388.9L547.6,388.9L547.6,388.9z M552.9,402.8c-0.1,0.2,0,0.2,0.2,0.3c0.2,0.1,0.2,0,0.3-0.2
		c0.1-0.2,0-0.2-0.2-0.3l0,0C553,402.7,552.9,402.7,552.9,402.8z M544.2,393.6c-0.1,0.1-0.1,0.2,0,0.3c0.1,0.1,0.2,0.1,0.3,0
		c0.1-0.1,0.1-0.2,0-0.3l0,0C544.5,393.5,544.3,393.5,544.2,393.6L544.2,393.6L544.2,393.6z M548.4,389.3c-0.1,0.1-0.1,0.2,0,0.4
		c0.1,0.1,0.2,0.1,0.3,0l0,0c0.1-0.1,0.1-0.2,0-0.3l0,0C548.6,389.2,548.4,389.2,548.4,389.3L548.4,389.3L548.4,389.3z" style="opacity:0.86;fill:#FFFFFF;enable-background:new    ;"/>
</g>
<g>
	
		<linearGradient id="R_shoe-0kylRgHLBRwiKbxDs3T__1_" gradientUnits="userSpaceOnUse" x1="-3922.333" y1="-9514.082" x2="-2621.6179" y2="-9514.082" gradientTransform="matrix(-6.587490e-02 0 0 -6.587490e-02 143.6226 -75.4361)">
		<stop offset="0.1291" style="stop-color:#428DFC"/>
		<stop offset="0.9987" style="stop-color:#1D72D8"/>
	</linearGradient>
	<path id="R_shoe-0kylRgHLBRwiKbxDs3T_" d="M354.7,534.4c0.1,0.1,13.6,12.8,28.3,19.1c14.6,6.3,19,14.8,19,14.8
		l-85.7,0l12.1-33.8H354.7L354.7,534.4z" style="fill:url(#R_shoe-0kylRgHLBRwiKbxDs3T__1_);"/>
	<path id="L_shoe-0kylRgHLBRwiKbxDs3T_" d="M299.2,534.4c1.5,1.4,14.4,13.2,28.2,19.1c14.6,6.3,19,14.8,19,14.8l-85.7,0
		l12-33.8H299.2L299.2,534.4z" style="fill:#428DFC;"/>
	
		<linearGradient id="R_trousers-0kylRgHLBRwiKbxDs3T__1_" gradientUnits="userSpaceOnUse" x1="-4133.126" y1="-8830.2314" x2="-2870.4253" y2="-7282.8047" gradientTransform="matrix(-6.587490e-02 0 0 -6.587490e-02 143.6226 -75.4361)">
		<stop offset="0" style="stop-color:#23286B"/>
		<stop offset="0.4316" style="stop-color:#1D225F"/>
		<stop offset="1" style="stop-color:#151A4F"/>
	</linearGradient>
	<path id="R_trousers-0kylRgHLBRwiKbxDs3T_" d="M348,325.5c6.8,4.8,16.7,6,16.7,6l0,0l17.7-1.9l2.3,30.2
		c0.7,17.5,3.5,39.2,0.2,59.6c-3.5,21.7-24.2,84.5-30.1,114.9h-26.3c-8.9-18.9-7.1-35.1-3.5-63.3c4.4-34-2.8-24.1,4.5-55.9
		c7.3-31.8,5.3-25.6,3-73.2c-0.8-15.4-2.9-17.3,0.4-26.5" style="fill:url(#R_trousers-0kylRgHLBRwiKbxDs3T__1_);"/>
	<path id="L_trousers-0kylRgHLBRwiKbxDs3T_" d="M372.3,369.9L372.3,369.9c-1.4,18.6-4.2,38.7-8.9,55.8
		c-5,18.2-50.9,87.7-64.2,108.7h-26.5c0.2-6,0.4-30.2,6.2-45.7c6.6-17.9,12.2-13,13.4-27.5c1.3-14.5,5.8-23.2,13.9-37.4
		c8.1-14.2,19.1-9.8,11.3-62.7c-3.2-21.1-0.1-42.7,8.9-62c1.1,0.5,2.3,0.9,3.5,1.4l0.1-0.9c0,0,2.2,1.1,5.6,2.9
		c1.1,0.4,2.2,0.7,3.3,1.1c0,0.3,0.1,0.5,0.2,0.7c13.7,7.1,37.9,20,36.5,20.6C373.5,325.8,372.3,369.9,372.3,369.9" style="fill:#23286B;"/>
	
		<linearGradient id="L_hand-0kylRgHLBRwiKbxDs3T__1_" gradientUnits="userSpaceOnUse" x1="-4743.7437" y1="-7085.5063" x2="-3485.2229" y2="-6310.1665" gradientTransform="matrix(-6.587490e-02 0 0 -6.587490e-02 143.6226 -75.4361)">
		<stop offset="0" style="stop-color:#FFBEB6"/>
		<stop offset="3.260000e-02" style="stop-color:#FEBDB5"/>
		<stop offset="0.6116" style="stop-color:#F5A8A3"/>
		<stop offset="1" style="stop-color:#F2A19C"/>
	</linearGradient>
	<path id="L_hand-0kylRgHLBRwiKbxDs3T_" d="M395.9,334.6c0,0,15.1,24.7,29.6,36.9c14.5,12.2,18.5,12.3,29.7,8.5
		c11.2-3.8,14.3-4.5,14.3-4.5s4,5.4-4.6,7.8c-8.6,2.4-9.6,5.7-2.2,9.1c7.4,3.4,19.9,5.8,20.2,8.1c0.4,2.2-0.8,4.9-5.6,3.4
		c-4.8-1.5-14-4-13-3c1,1,15.3,4.9,14.9,6.7c-0.4,1.8-15.8,14-26,5.8c-10.2-8.2-15.5-19.6-22.5-22.8c-7-3.2-45.5-17.3-55.4-27.5l0,0
		L395.9,334.6" style="fill:url(#L_hand-0kylRgHLBRwiKbxDs3T__1_);"/>
	<path id="texture-0kylRgHLBRwiKbxDs3T_" d="M327,331.7c0.1,0,0.2,0,0.2,0.1l0,0c0,0.1,0,0.2-0.1,0.2c0,0,0,0,0,0
		c-0.1,0-0.2,0-0.2-0.1l0,0C326.9,331.9,326.9,331.8,327,331.7z M330.7,330.2c0.1,0,0.2,0,0.2,0.1c0,0.1,0,0.2-0.1,0.2
		c-0.1,0-0.2,0-0.2-0.1C330.6,330.4,330.6,330.3,330.7,330.2L330.7,330.2z M334.4,328.7c0.1,0,0.2,0,0.2,0.1c0,0.1,0,0.2-0.1,0.2
		c0,0,0,0,0,0c-0.1,0-0.2,0-0.2-0.1c0,0,0,0,0,0C334.2,328.9,334.3,328.8,334.4,328.7C334.3,328.7,334.4,328.7,334.4,328.7
		L334.4,328.7z M338.7,343.7c0-0.1,0.1-0.1,0.2-0.1c0.1,0,0.1,0.1,0.1,0.2c0,0.1-0.1,0.1-0.2,0.1l0,0
		C338.7,343.9,338.7,343.8,338.7,343.7L338.7,343.7L338.7,343.7z M340.2,340c0-0.1,0.1-0.1,0.2-0.1c0,0,0,0,0,0
		c0.1,0,0.1,0.1,0.1,0.2c0,0.1-0.1,0.1-0.2,0.1C340.2,340.2,340.2,340.1,340.2,340L340.2,340L340.2,340z M341.8,336.4
		c0-0.1,0.1-0.1,0.2-0.1c0.1,0,0.1,0.1,0.1,0.2c0,0.1-0.1,0.1-0.2,0.1l0,0C341.8,336.6,341.7,336.5,341.8,336.4L341.8,336.4z
		 M343.3,332.7c0-0.1,0.1-0.1,0.2-0.1l0,0c0.1,0,0.1,0.1,0.1,0.2c0,0.1-0.1,0.1-0.2,0.1l0,0C343.3,332.9,343.3,332.8,343.3,332.7
		L343.3,332.7z M333.1,337.3c0.1-0.1,0.2-0.1,0.2,0c0.1,0.1,0.1,0.2,0,0.2c-0.1,0.1-0.2,0.1-0.2,0l0,0
		C333,337.4,333,337.3,333.1,337.3C333.1,337.3,333.1,337.3,333.1,337.3L333.1,337.3z M335.9,334.5c0.1-0.1,0.2-0.1,0.2,0
		c0,0,0,0.1,0,0.1c0,0.1,0,0.1,0,0.1c0,0,0,0,0,0l0,0c-0.1,0-0.1,0-0.2,0C335.8,334.6,335.8,334.5,335.9,334.5
		C335.9,334.5,335.9,334.5,335.9,334.5L335.9,334.5z M338.7,331.7c0.1-0.1,0.2-0.1,0.2,0c0.1,0.1,0.1,0.2,0,0.2
		c-0.1,0.1-0.2,0.1-0.2,0C338.7,331.8,338.7,331.7,338.7,331.7C338.7,331.7,338.7,331.7,338.7,331.7L338.7,331.7z M341.5,328.8
		c0.1-0.1,0.2-0.1,0.2,0c0.1,0.1,0.1,0.2,0,0.2c0,0,0,0,0,0c-0.1,0.1-0.2,0.1-0.2,0c0,0,0,0,0,0C341.5,329,341.5,328.9,341.5,328.8
		C341.5,328.8,341.5,328.8,341.5,328.8L341.5,328.8z M347.2,343.2c0.1,0,0.2,0.1,0.2,0.2c0,0.1-0.1,0.2-0.2,0.2
		c-0.1,0-0.2-0.1-0.2-0.2C347,343.3,347.1,343.2,347.2,343.2z M317.2,344.5c0.1-0.1,0.3-0.1,0.4,0c0,0,0,0,0,0
		c0.1,0.1,0.1,0.3,0,0.4c0,0,0,0,0,0c-0.1,0.1-0.3,0.1-0.4,0c0,0,0,0,0,0C317,344.8,317.1,344.6,317.2,344.5
		C317.2,344.5,317.2,344.5,317.2,344.5L317.2,344.5z M322.9,339.5c0.1-0.1,0.3-0.1,0.4,0c0,0,0,0,0,0c0.1,0.1,0.1,0.3,0,0.4
		c-0.1,0.1-0.3,0.1-0.4,0C322.7,339.8,322.7,339.6,322.9,339.5L322.9,339.5z M328.6,334.6c0.1-0.1,0.3-0.1,0.4,0
		c0.1,0.1,0.1,0.3,0,0.4c-0.1,0.1-0.3,0.1-0.4,0l0,0C328.4,334.9,328.4,334.7,328.6,334.6C328.6,334.6,328.6,334.6,328.6,334.6
		L328.6,334.6z M334.2,329.6c0.1-0.1,0.3-0.1,0.4,0c0,0,0,0,0,0c0.1,0.1,0.1,0.2,0.1,0.3l0,0c0,0.1,0,0.1-0.1,0.2c0,0-0.1,0-0.1,0
		c-0.2,0.1-0.3,0-0.4-0.2C334.1,329.9,334.1,329.7,334.2,329.6L334.2,329.6z M340.1,363.5c0.2,0,0.3,0.2,0.3,0.3
		c0,0.2-0.1,0.3-0.3,0.3c0,0,0,0,0,0c-0.2,0-0.3-0.2-0.3-0.3C339.8,363.6,339.9,363.5,340.1,363.5L340.1,363.5L340.1,363.5z
		 M340.6,356c0.2,0,0.3,0.2,0.3,0.3l0,0c0,0.2-0.2,0.3-0.3,0.3c-0.2,0-0.3-0.2-0.3-0.3c0,0,0,0,0,0C340.3,356.1,340.5,356,340.6,356
		L340.6,356z M341.2,348.5c0.2,0,0.3,0.2,0.3,0.3c0,0.2-0.2,0.3-0.3,0.3c0,0,0,0,0,0c-0.2,0-0.3-0.2-0.3-0.3c0,0,0,0,0,0
		C340.8,348.6,341,348.4,341.2,348.5L341.2,348.5z M341.7,340.9c0.2,0,0.3,0.2,0.3,0.3c0,0,0,0,0,0c0,0.2-0.2,0.3-0.3,0.3
		c-0.2,0-0.3-0.2-0.3-0.3C341.4,341.1,341.5,340.9,341.7,340.9C341.7,340.9,341.7,340.9,341.7,340.9z M342.2,333.4
		c0.2,0,0.3,0.2,0.3,0.3c0,0.2-0.2,0.3-0.3,0.3c-0.2,0-0.3-0.1-0.3-0.3c0,0,0,0,0,0C341.9,333.5,342,333.4,342.2,333.4L342.2,333.4z
		 M321.1,329.1c0.2-0.1,0.3,0,0.4,0.2c0,0,0,0,0,0c0.1,0.2,0,0.3-0.2,0.4c-0.2,0.1-0.3,0-0.4-0.2c0,0,0,0,0,0
		C320.8,329.4,320.9,329.2,321.1,329.1C321,329.1,321.1,329.1,321.1,329.1L321.1,329.1z M328.2,326.7c0.2-0.1,0.3,0,0.4,0.2
		c0,0,0,0,0,0c0.1,0.2,0,0.3-0.2,0.4c0,0,0,0,0,0c-0.2,0.1-0.3,0-0.4-0.2c0,0,0,0,0,0C327.9,327,328,326.8,328.2,326.7L328.2,326.7z
		 M325.3,356c0.1-0.2,0.3-0.2,0.4-0.2c0.2,0.1,0.2,0.3,0.2,0.4c-0.1,0.2-0.3,0.2-0.4,0.2c0,0,0,0,0,0
		C325.3,356.3,325.2,356.2,325.3,356L325.3,356z M328.7,349.3c0.1-0.2,0.3-0.2,0.4-0.2c0.2,0.1,0.2,0.3,0.2,0.4
		c-0.1,0.2-0.3,0.2-0.4,0.2c0,0,0,0,0,0C328.7,349.6,328.6,349.4,328.7,349.3L328.7,349.3z M332,342.5c0.1-0.2,0.3-0.2,0.4-0.1
		c0.2,0.1,0.2,0.3,0.1,0.4c-0.1,0.1-0.3,0.2-0.4,0.1C332,342.9,332,342.7,332,342.5L332,342.5z M335.4,335.8
		c0.1-0.2,0.3-0.2,0.4-0.2c0.2,0.1,0.2,0.3,0.2,0.4c0,0,0,0,0,0c-0.1,0.2-0.3,0.2-0.4,0.1c0,0,0,0,0,0
		C335.4,336.1,335.3,335.9,335.4,335.8C335.4,335.8,335.4,335.8,335.4,335.8z M338.8,329c0.1-0.2,0.3-0.2,0.4-0.1
		c0.1,0.1,0.2,0.3,0.1,0.4c-0.1,0.2-0.3,0.2-0.4,0.1C338.8,329.4,338.7,329.2,338.8,329C338.8,329,338.8,329,338.8,329z
		 M354.2,358.1c0.2-0.1,0.3,0,0.4,0.2c0,0,0,0,0,0c0.1,0.2,0,0.3-0.2,0.4c0,0,0,0,0,0c-0.2,0.1-0.3,0-0.4-0.2
		C354,358.3,354.1,358.2,354.2,358.1z M351.8,351c0.2-0.1,0.3,0,0.4,0.2c0,0,0,0,0,0c0.1,0.2,0,0.3-0.2,0.4c-0.2,0-0.3,0-0.4-0.2
		C351.6,351.2,351.7,351,351.8,351C351.8,351,351.8,351,351.8,351z M318.8,352.6c0.1-0.1,0.3-0.2,0.4-0.1c0.1,0.1,0.2,0.3,0.1,0.4
		c0,0,0,0,0,0c-0.1,0.1-0.3,0.2-0.4,0.1C318.8,352.9,318.8,352.7,318.8,352.6z M322.4,346.9c0.1-0.1,0.3-0.2,0.4-0.1
		s0.2,0.3,0.1,0.4s-0.3,0.2-0.4,0.1l0,0C322.4,347.2,322.3,347,322.4,346.9C322.4,346.9,322.4,346.9,322.4,346.9L322.4,346.9z
		 M326,341.1c0,0,0.1-0.1,0.1-0.1l0,0c0.1,0,0.2,0,0.3,0c0.1,0.1,0.2,0.3,0.1,0.4c0,0,0,0,0,0c-0.1,0.1-0.3,0.2-0.4,0.1
		c-0.1,0-0.1-0.1-0.1-0.2C325.9,341.3,325.9,341.2,326,341.1z M329.5,335.4c0.1-0.1,0.3-0.2,0.4-0.1c0.1,0.1,0.2,0.3,0.1,0.4
		c-0.1,0.1-0.3,0.2-0.4,0.1C329.5,335.7,329.4,335.6,329.5,335.4C329.5,335.4,329.5,335.4,329.5,335.4L329.5,335.4z M333.1,329.7
		c0.1-0.1,0.3-0.2,0.4-0.1c0.1,0.1,0.2,0.3,0.1,0.4c-0.1,0.1-0.2,0.2-0.4,0.1C333.1,330,333,329.9,333.1,329.7L333.1,329.7z
		 M346.9,357.1c0.1,0,0.3,0.1,0.3,0.2c0,0,0,0,0,0c0,0.1,0,0.3-0.2,0.3c0,0,0,0,0,0c-0.2,0-0.3-0.1-0.3-0.2
		C346.7,357.3,346.8,357.1,346.9,357.1L346.9,357.1z M345.4,350.5c0.1,0,0.3,0.1,0.3,0.2c0,0,0,0,0,0c0,0.1,0,0.3-0.2,0.3
		c0,0,0,0,0,0c-0.1,0-0.3-0.1-0.3-0.2C345.2,350.7,345.3,350.6,345.4,350.5L345.4,350.5z M343.9,344c0.1,0,0.3,0.1,0.3,0.2
		c0,0,0,0,0,0c0,0.1,0,0.3-0.2,0.3c0,0,0,0,0,0c-0.1,0-0.3-0.1-0.3-0.2c0,0,0,0,0,0C343.7,344.2,343.8,344,343.9,344L343.9,344z
		 M342.4,337.4c0.1,0,0.3,0.1,0.3,0.2c0,0.2-0.1,0.3-0.2,0.3c-0.1,0-0.3-0.1-0.3-0.2C342.2,337.6,342.2,337.5,342.4,337.4
		L342.4,337.4z M340.9,330.9c0.2,0,0.3,0.1,0.3,0.2c0,0.2-0.1,0.3-0.2,0.3s-0.3-0.1-0.3-0.2c0,0,0,0,0,0
		C340.6,331.1,340.7,330.9,340.9,330.9L340.9,330.9z M321.7,332.5c0.1-0.1,0.3-0.1,0.4,0.1c0.1,0.1,0.1,0.3-0.1,0.4
		c-0.1,0.1-0.3,0-0.4-0.1C321.5,332.8,321.5,332.6,321.7,332.5L321.7,332.5z M327.1,328.6c0.1-0.1,0.3-0.1,0.4,0.1l0,0
		c0.1,0.1,0.1,0.3-0.1,0.4c-0.1,0.1-0.3,0.1-0.4-0.1C327,328.9,327,328.7,327.1,328.6C327.1,328.6,327.1,328.6,327.1,328.6
		L327.1,328.6z M332.6,354.1c0.1,0,0.2,0.2,0.2,0.3c0,0.1-0.2,0.2-0.3,0.2c-0.2,0-0.3-0.2-0.2-0.3
		C332.3,354.2,332.5,354.1,332.6,354.1z M333.7,347.5c0.1,0,0.2,0.2,0.2,0.3c0,0.1-0.2,0.2-0.3,0.2c-0.1,0-0.2-0.2-0.2-0.3
		c0,0,0,0,0,0C333.4,347.6,333.6,347.5,333.7,347.5z M334.8,340.9c0.1,0,0.2,0.2,0.2,0.3c0,0,0,0,0,0c0,0.1-0.2,0.3-0.3,0.2
		c-0.1,0-0.3-0.2-0.2-0.3c0,0,0,0,0,0C334.5,340.9,334.7,340.8,334.8,340.9C334.8,340.9,334.8,340.9,334.8,340.9L334.8,340.9z
		 M335.9,334.2c0.2,0,0.3,0.2,0.2,0.3c0,0.1,0,0.1-0.1,0.2l0,0c-0.1,0.1-0.2,0.1-0.2,0.1c-0.1,0-0.2-0.2-0.2-0.3
		C335.7,334.3,335.8,334.2,335.9,334.2L335.9,334.2z M319.4,336c0.1-0.1,0.2-0.1,0.2,0c0.1,0.1,0.1,0.2,0,0.2
		c-0.1,0.1-0.2,0.1-0.2,0l0,0C319.3,336.2,319.3,336.1,319.4,336z M322.1,333.1c0.1-0.1,0.2-0.1,0.2,0s0.1,0.2,0,0.2
		c-0.1,0.1-0.2,0.1-0.2,0l0,0C322,333.3,322,333.2,322.1,333.1z M324.8,330.2c0.1-0.1,0.2-0.1,0.2,0c0.1,0.1,0.1,0.1,0,0.2
		c0,0,0,0,0,0c-0.1,0.1-0.2,0.1-0.2,0C324.7,330.4,324.7,330.3,324.8,330.2C324.8,330.2,324.8,330.2,324.8,330.2z M327.5,327.3
		c0.1-0.1,0.2-0.1,0.2,0c0.1,0.1,0.1,0.2,0,0.2c0,0,0,0,0,0c-0.1,0.1-0.2,0.1-0.2,0C327.4,327.5,327.4,327.4,327.5,327.3z
		 M335.1,341.8c0.1,0,0.2,0.1,0.2,0.2c0,0.1-0.1,0.2-0.2,0.2c-0.1,0-0.2-0.1-0.2-0.2l0,0C334.9,341.9,335,341.8,335.1,341.8
		L335.1,341.8z M335,337.9c0.1,0,0.2,0.1,0.2,0.1c0,0,0,0,0,0c0,0.1-0.1,0.2-0.2,0.2l0,0c-0.1,0-0.2-0.1-0.2-0.2
		C334.8,338,334.9,337.9,335,337.9C335,337.9,335,337.9,335,337.9L335,337.9z M334.8,333.9c0.1,0,0.2,0.1,0.2,0.1c0,0,0,0,0,0
		c0,0.1-0.1,0.2-0.2,0.2c-0.1,0-0.2-0.1-0.2-0.2S334.7,333.9,334.8,333.9L334.8,333.9z M334.7,329.9
		C334.7,329.9,334.7,329.9,334.7,329.9L334.7,329.9c0.1,0,0.2,0.1,0.2,0.2c0,0.1-0.1,0.2-0.2,0.2l0,0c-0.1,0-0.1,0-0.2-0.1l0,0
		C334.5,330,334.6,330,334.7,329.9C334.7,329.9,334.7,329.9,334.7,329.9z M319.8,326.3c0.1,0,0.2,0,0.2,0.1c0,0,0,0,0,0
		c0,0.1,0,0.2-0.1,0.2c0,0,0,0,0,0c-0.1,0-0.2,0-0.2-0.1C319.7,326.5,319.8,326.4,319.8,326.3C319.8,326.3,319.8,326.3,319.8,326.3z
		 M327.2,338.5c0-0.1,0.1-0.1,0.2-0.1c0,0,0,0,0,0c0.1,0,0.1,0.1,0.1,0.2c0,0,0,0,0,0c0,0.1-0.1,0.1-0.2,0.1
		C327.2,338.7,327.1,338.6,327.2,338.5L327.2,338.5z M328.6,334.8c0-0.1,0.1-0.1,0.2-0.1c0,0,0,0,0,0c0.1,0,0.1,0.1,0.1,0.2
		c0,0.1-0.1,0.1-0.2,0.1C328.6,335,328.5,334.9,328.6,334.8C328.6,334.8,328.6,334.8,328.6,334.8L328.6,334.8z M329.9,331.1
		c0-0.1,0.1-0.1,0.2-0.1c0.1,0,0.1,0.1,0.1,0.2c0,0.1-0.1,0.1-0.2,0.1c0,0,0,0,0,0C330,331.3,329.9,331.2,329.9,331.1
		C329.9,331.1,329.9,331.1,329.9,331.1L329.9,331.1z M331.3,327.4c0-0.1,0.1-0.1,0.2-0.1c0.1,0,0.1,0.1,0.1,0.2
		c0,0.1-0.1,0.1-0.2,0.1c0,0,0,0,0,0C331.3,327.5,331.3,327.4,331.3,327.4L331.3,327.4z M342.4,338c0.1,0,0.2,0,0.2,0.1c0,0,0,0,0,0
		c0,0.1,0,0.2-0.1,0.2c-0.1,0-0.2,0-0.2-0.1C342.3,338.1,342.3,338.1,342.4,338z M340.8,334.4c0.1,0,0.2,0,0.2,0.1c0,0,0,0,0,0
		c0,0.1,0,0.2-0.1,0.2c0,0,0,0,0,0c-0.1,0-0.2,0-0.2-0.1C340.7,334.5,340.7,334.4,340.8,334.4C340.8,334.4,340.8,334.4,340.8,334.4
		L340.8,334.4z M339.1,330.8c0.1,0,0.2,0,0.2,0.1c0,0.1,0,0.2-0.1,0.2c-0.1,0-0.2,0-0.2-0.1C339,330.9,339,330.8,339.1,330.8
		L339.1,330.8z M316.5,339.9c0.1-0.1,0.2-0.1,0.2-0.1c0,0,0,0,0,0c0.1,0.1,0.1,0.2,0.1,0.2c0,0,0,0,0,0c-0.1,0.1-0.2,0.1-0.2,0.1
		c0,0,0,0,0,0C316.5,340.1,316.4,340,316.5,339.9L316.5,339.9z M318.9,336.1c0.1-0.1,0.2-0.1,0.2-0.1c0,0,0,0,0,0
		c0.1,0.1,0.1,0.2,0.1,0.3c-0.1,0.1-0.2,0.1-0.3,0.1l0,0C318.9,336.3,318.9,336.2,318.9,336.1C318.9,336.1,318.9,336.1,318.9,336.1
		L318.9,336.1z M321.4,332.3c0.1-0.1,0.2-0.1,0.3-0.1s0.1,0.2,0.1,0.3c0,0,0,0,0,0c0,0,0,0,0,0c-0.1,0.1-0.2,0.1-0.2,0
		C321.3,332.5,321.3,332.4,321.4,332.3L321.4,332.3z M323.8,328.5L323.8,328.5C323.8,328.4,323.9,328.4,323.8,328.5
		c0.1-0.1,0.2-0.1,0.3-0.1c0.1,0.1,0.1,0.2,0.1,0.3c-0.1,0.1-0.2,0.1-0.3,0.1C323.8,328.7,323.7,328.6,323.8,328.5L323.8,328.5z
		 M335.4,343.2c0.1,0,0.2,0.1,0.2,0.1c0,0.1,0,0.2-0.1,0.2c-0.1,0-0.2,0-0.2-0.1c0,0,0,0,0,0C335.2,343.3,335.3,343.2,335.4,343.2
		C335.4,343.2,335.4,343.2,335.4,343.2L335.4,343.2z M334.4,338.8c0.1,0,0.2,0.1,0.2,0.1c0,0.1,0,0.2-0.1,0.2c-0.1,0-0.2,0-0.2-0.1
		l0,0C334.2,338.9,334.3,338.8,334.4,338.8L334.4,338.8z M333.4,334.4c0.1,0,0.2,0.1,0.2,0.1c0,0.1,0,0.2-0.1,0.2
		c-0.1,0-0.2,0-0.2-0.1c0,0,0,0,0,0C333.2,334.5,333.3,334.4,333.4,334.4L333.4,334.4z M332.4,329.9c0.1,0,0.2,0,0.2,0.1
		c0,0.1,0,0.2-0.1,0.2c-0.1,0-0.2,0-0.2-0.1c0,0,0,0,0,0C332.3,330.1,332.3,330,332.4,329.9L332.4,329.9z M318.8,326.4
		c0.1-0.1,0.2,0,0.3,0.1c0.1,0.1,0,0.2,0,0.2c0,0,0,0,0,0c-0.1,0.1-0.2,0-0.2,0c0,0,0,0,0,0C318.8,326.6,318.8,326.5,318.8,326.4
		L318.8,326.4z M325.9,341.2c0-0.1,0.1-0.2,0.2-0.2c0,0,0,0,0,0l0,0c0.1,0,0.2,0.1,0.1,0.2c0,0.1-0.1,0.2-0.2,0.2c0,0,0,0,0,0
		c0,0-0.1,0-0.1,0C325.9,341.3,325.8,341.3,325.9,341.2L325.9,341.2z M326.9,336.6c0.1,0,0.2,0.1,0.2,0.2c0,0.1-0.1,0.2-0.2,0.1
		c-0.1,0-0.2-0.1-0.1-0.2c0,0,0,0,0,0C326.7,336.6,326.8,336.6,326.9,336.6L326.9,336.6z M327.7,332.1c0.1,0,0.2,0.1,0.2,0.2
		c0,0.1-0.1,0.2-0.2,0.2c-0.1,0-0.2-0.1-0.2-0.2l0,0C327.5,332.2,327.6,332.1,327.7,332.1C327.7,332.1,327.7,332.1,327.7,332.1
		L327.7,332.1z M328.5,327.7c0.1,0,0.2,0.1,0.1,0.2c0,0,0,0,0,0c0,0.1-0.1,0.2-0.2,0.1c0,0,0,0,0,0c-0.1,0-0.2-0.1-0.2-0.2
		C328.3,327.7,328.4,327.6,328.5,327.7C328.5,327.7,328.5,327.7,328.5,327.7L328.5,327.7z M342.9,337.5c0.1-0.1,0.2,0,0.2,0
		c0,0,0,0,0,0c0.1,0.1,0,0.2,0,0.3c-0.1,0.1-0.2,0-0.3,0c0,0,0,0,0,0C342.8,337.7,342.8,337.5,342.9,337.5z M340.3,333.8
		c0.1-0.1,0.2,0,0.3,0.1c0.1,0.1,0,0.2,0,0.2c0,0,0,0,0,0c-0.1,0.1-0.2,0-0.2,0c0,0,0,0,0,0C340.2,333.9,340.2,333.8,340.3,333.8
		C340.3,333.8,340.3,333.8,340.3,333.8L340.3,333.8z M337.7,330c0.1-0.1,0.2,0,0.3,0c0,0,0,0,0,0c0.1,0.1,0,0.2-0.1,0.3
		c-0.1,0.1-0.2,0-0.3,0C337.6,330.2,337.6,330.1,337.7,330L337.7,330z M319.2,359.8c0.2,0,0.3,0.2,0.3,0.4c0,0.2-0.2,0.3-0.4,0.3
		c-0.2,0-0.3-0.2-0.3-0.4C318.8,359.9,319,359.8,319.2,359.8L319.2,359.8z M320.4,352.1c0.2,0,0.3,0.2,0.3,0.4
		c0,0.2-0.2,0.3-0.4,0.3c-0.2,0-0.3-0.2-0.3-0.4C320,352.2,320.2,352.1,320.4,352.1L320.4,352.1z M321.6,344.5
		c0.2,0,0.3,0.2,0.3,0.4c0,0.2-0.2,0.3-0.4,0.3c0,0,0,0,0,0c-0.2,0-0.3-0.2-0.3-0.4C321.2,344.6,321.4,344.4,321.6,344.5
		L321.6,344.5z M322.8,336.8c0.2,0,0.3,0.2,0.3,0.4c0,0,0,0,0,0c0,0.2-0.2,0.3-0.4,0.3s-0.3-0.2-0.3-0.4c0,0,0,0,0,0
		C322.4,336.9,322.6,336.8,322.8,336.8C322.8,336.8,322.8,336.8,322.8,336.8z M324,329.1c0.2,0,0.3,0.2,0.3,0.4
		c0,0.2-0.2,0.3-0.4,0.3c-0.2,0-0.3-0.2-0.3-0.4C323.6,329.2,323.8,329.1,324,329.1L324,329.1z M350.7,352.2
		c0.1-0.1,0.3-0.1,0.5,0.1c0.1,0.1,0.1,0.3-0.1,0.4c-0.1,0.1-0.3,0.1-0.5-0.1C350.5,352.5,350.5,352.3,350.7,352.2L350.7,352.2z
		 M346.1,345.9c0.1-0.1,0.3-0.1,0.4,0.1c0.1,0.1,0.1,0.3-0.1,0.4c-0.1,0.1-0.3,0.1-0.4-0.1C345.9,346.2,346,346,346.1,345.9
		L346.1,345.9z M341.6,339.6c0.1-0.1,0.3-0.1,0.4,0.1c0,0,0,0,0,0c0.1,0.1,0.1,0.3-0.1,0.5c-0.1,0.1-0.3,0.1-0.4-0.1
		C341.4,340,341.4,339.8,341.6,339.6C341.5,339.6,341.5,339.6,341.6,339.6L341.6,339.6z M337,333.4c0.1-0.1,0.3-0.1,0.4,0.1
		c0,0,0,0,0,0c0.1,0.1,0.1,0.3-0.1,0.5c-0.1,0.1-0.3,0.1-0.4-0.1C336.8,333.7,336.8,333.5,337,333.4C337,333.4,337,333.4,337,333.4
		L337,333.4z M332.4,327.1c0.1-0.1,0.3-0.1,0.4,0.1c0.1,0.1,0.1,0.3-0.1,0.5c-0.1,0.1-0.3,0.1-0.4-0.1
		C332.2,327.4,332.3,327.2,332.4,327.1L332.4,327.1z M334.3,355.7c0.2,0,0.3,0.1,0.4,0.2c0,0,0,0,0,0c0,0.2-0.1,0.3-0.2,0.4
		c-0.2,0-0.3-0.1-0.4-0.2C334,355.9,334.1,355.8,334.3,355.7C334.3,355.7,334.3,355.7,334.3,355.7L334.3,355.7z M332.5,348.2
		c0.2,0,0.3,0.1,0.4,0.2c0,0,0,0,0,0c0,0.2-0.1,0.3-0.2,0.4l0,0c-0.2,0-0.3-0.1-0.4-0.2v0C332.2,348.4,332.3,348.2,332.5,348.2
		C332.5,348.2,332.5,348.2,332.5,348.2L332.5,348.2z M330.7,340.6c0.2,0,0.3,0.1,0.4,0.3c0,0.2-0.1,0.3-0.2,0.4
		c-0.2,0-0.3-0.1-0.4-0.2c0,0,0,0,0,0C330.4,340.8,330.5,340.7,330.7,340.6C330.7,340.6,330.7,340.6,330.7,340.6L330.7,340.6z
		 M328.8,333.1c0.2,0,0.3,0.1,0.4,0.2s-0.1,0.3-0.2,0.4c-0.2,0-0.3-0.1-0.4-0.2C328.6,333.3,328.7,333.1,328.8,333.1
		C328.8,333.1,328.8,333.1,328.8,333.1L328.8,333.1z M329.6,358.2c0.2,0,0.3,0.1,0.4,0.3c0,0.2-0.1,0.3-0.3,0.4
		c-0.2,0-0.3-0.1-0.4-0.3C329.3,358.4,329.4,358.3,329.6,358.2L329.6,358.2L329.6,358.2z M328.1,350.6c0.2,0,0.3,0.1,0.4,0.3
		c0,0.2-0.1,0.3-0.3,0.4c-0.2,0-0.3-0.1-0.4-0.3C327.8,350.8,327.9,350.7,328.1,350.6L328.1,350.6z M326.6,343.1
		c0.2,0,0.3,0.1,0.4,0.3c0,0.2-0.1,0.3-0.3,0.4c-0.2,0-0.3-0.1-0.4-0.3C326.3,343.3,326.4,343.1,326.6,343.1L326.6,343.1z
		 M325.1,335.5c0.2,0,0.3,0.1,0.4,0.2c0,0,0,0,0,0c0,0.2-0.1,0.3-0.3,0.4c-0.2,0-0.3-0.1-0.4-0.2c0,0,0,0,0,0
		C324.8,335.7,324.9,335.5,325.1,335.5C325.1,335.5,325.1,335.5,325.1,335.5L325.1,335.5z M323.6,327.9c0.2,0,0.3,0.1,0.4,0.2
		c0,0,0,0,0,0c0,0.1,0,0.2-0.1,0.3c0,0,0,0,0,0c0,0-0.1,0-0.1,0c-0.2,0-0.3-0.1-0.4-0.3C323.3,328.1,323.4,327.9,323.6,327.9z
		 M316.7,338.9c0.2,0,0.3,0.2,0.3,0.4c0,0.2-0.2,0.3-0.4,0.3c-0.2,0-0.3-0.2-0.3-0.4c0,0,0,0,0,0
		C316.3,338.9,316.5,338.8,316.7,338.9C316.7,338.9,316.7,338.9,316.7,338.9L316.7,338.9z M318.2,331.3c0.2,0,0.3,0.2,0.3,0.4
		c0,0.2-0.2,0.3-0.4,0.2c-0.2,0-0.3-0.2-0.2-0.4C317.9,331.4,318,331.2,318.2,331.3L318.2,331.3z M342.5,348.6
		c0.1-0.1,0.3-0.1,0.4,0.1c0,0,0,0,0,0c0.1,0.1,0.1,0.3-0.1,0.4c-0.1,0.1-0.3,0.1-0.5-0.1C342.3,348.9,342.3,348.7,342.5,348.6
		C342.5,348.6,342.5,348.6,342.5,348.6L342.5,348.6z M338.2,342.1c0.1-0.1,0.3-0.1,0.4,0.1c0,0,0,0,0,0c0.1,0.1,0.1,0.3-0.1,0.4
		c-0.1,0.1-0.3,0.1-0.5-0.1C338,342.5,338,342.3,338.2,342.1C338.2,342.2,338.2,342.1,338.2,342.1L338.2,342.1z M333.9,335.7
		c0.1-0.1,0.3-0.1,0.4,0.1c0.1,0.1,0.1,0.3-0.1,0.4c-0.1,0.1-0.3,0.1-0.5-0.1C333.7,336,333.8,335.8,333.9,335.7
		C333.9,335.7,333.9,335.7,333.9,335.7L333.9,335.7z M329.6,329.3c0.1-0.1,0.3,0,0.4,0.1c0.1,0.1,0.1,0.3-0.1,0.4
		c-0.1,0.1-0.3,0.1-0.5-0.1C329.4,329.6,329.5,329.4,329.6,329.3C329.6,329.3,329.6,329.3,329.6,329.3L329.6,329.3z M329.6,344.9
		c0.1-0.1,0.3,0,0.3,0.1c0,0,0,0,0,0c0.1,0.1,0,0.3-0.1,0.3c-0.1,0.1-0.3,0-0.3-0.1C329.5,345.1,329.5,345,329.6,344.9z
		 M327.3,339.6c0.1-0.1,0.3,0,0.3,0.1c0,0,0,0,0,0c0.1,0.1,0,0.3-0.1,0.3c-0.1,0.1-0.3,0-0.3-0.1
		C327.2,339.8,327.2,339.6,327.3,339.6L327.3,339.6z M325.1,334.2c0.1-0.1,0.3,0,0.3,0.1s0,0.3-0.1,0.3c-0.1,0.1-0.3,0-0.3-0.1l0,0
		C324.9,334.4,324.9,334.3,325.1,334.2L325.1,334.2z M322.8,328.8c0.1,0,0.3,0,0.3,0.1c0,0.1,0,0.3-0.1,0.3c0,0,0,0,0,0
		c-0.1,0.1-0.3,0-0.3-0.1c0,0,0,0,0,0C322.6,329,322.6,328.9,322.8,328.8C322.8,328.8,322.8,328.8,322.8,328.8L322.8,328.8z
		 M317.4,344.4c0.1,0,0.2,0.1,0.2,0.2c0,0,0,0,0,0c0,0.1-0.1,0.2-0.2,0.2c-0.1,0-0.2-0.1-0.2-0.2
		C317.1,344.5,317.2,344.4,317.4,344.4C317.4,344.4,317.4,344.4,317.4,344.4L317.4,344.4z M317.3,338.6c0.1,0,0.2,0.1,0.2,0.2
		c0,0,0,0,0,0c0,0.1-0.1,0.2-0.2,0.2c0,0,0,0,0,0c-0.1,0-0.2-0.1-0.2-0.2C317.1,338.7,317.2,338.6,317.3,338.6
		C317.3,338.6,317.3,338.6,317.3,338.6L317.3,338.6z M317.2,332.7c0.1,0,0.2,0.1,0.2,0.2c0,0.1-0.1,0.2-0.2,0.2c0,0,0,0,0,0
		c-0.1,0-0.2-0.1-0.2-0.2c0,0,0,0,0,0C317,332.9,317.1,332.7,317.2,332.7C317.2,332.7,317.2,332.7,317.2,332.7L317.2,332.7z
		 M317.2,326.9c0.1,0,0.2,0.1,0.2,0.2v0c0,0.1-0.1,0.2-0.2,0.2c0,0,0,0,0,0c-0.1,0-0.2-0.1-0.2-0.2c0,0,0,0,0,0
		C316.9,327,317.1,326.9,317.2,326.9L317.2,326.9z M337.8,335.9c0.1-0.1,0.2-0.1,0.3,0c0,0,0,0,0,0c0.1,0.1,0.1,0.2,0,0.3
		c0,0,0,0,0,0c-0.1,0.1-0.2,0.1-0.3,0C337.7,336.1,337.7,336,337.8,335.9C337.8,335.9,337.8,335.9,337.8,335.9L337.8,335.9z
		 M333.6,331.8c0.1-0.1,0.2-0.1,0.3,0c0.1,0.1,0.1,0.3,0,0.3c-0.1,0.1-0.2,0.1-0.3,0C333.5,332,333.5,331.9,333.6,331.8L333.6,331.8
		z M329.5,327.7c0.1-0.1,0.2-0.1,0.3,0c0,0,0,0,0,0c0.1,0.1,0.1,0.2,0,0.3c-0.1,0.1-0.2,0.1-0.3,0
		C329.4,328,329.4,327.8,329.5,327.7z M321.2,327.8c0.1,0,0.1,0,0.2,0c0,0,0,0,0,0c0,0.1,0,0.1,0,0.2c0,0,0,0,0,0
		c-0.1,0-0.1,0-0.2,0C321.1,327.9,321.1,327.8,321.2,327.8C321.2,327.8,321.2,327.8,321.2,327.8L321.2,327.8z M319.5,336.6
		c0.1-0.1,0.2,0,0.3,0.1c0,0,0,0,0,0c0.1,0.1,0,0.2,0,0.3c0,0,0,0,0,0c-0.1,0.1-0.2,0-0.3-0.1l0,0
		C319.4,336.9,319.4,336.7,319.5,336.6C319.5,336.7,319.5,336.6,319.5,336.6L319.5,336.6z M325.3,327.4c0.1-0.1,0.2-0.1,0.3,0
		c0.1,0.1,0.1,0.2,0,0.3c-0.1,0.1-0.2,0.1-0.3,0.1c0,0,0,0,0,0C325.3,327.6,325.3,327.5,325.3,327.4L325.3,327.4z" style="opacity:0.86;fill:#FFFFFF;enable-background:new    ;"/>
	
		<linearGradient id="sweater-0kylRgHLBRwiKbxDs3T__1_" gradientUnits="userSpaceOnUse" x1="-3331.5137" y1="-4937.6899" x2="-3174.4392" y2="-6665.5161" gradientTransform="matrix(-6.587490e-02 0 0 -6.587490e-02 143.6226 -75.4361)">
		<stop offset="0" style="stop-color:#A1C3FC"/>
		<stop offset="0.6955" style="stop-color:#81AEF2"/>
		<stop offset="1" style="stop-color:#78A9EF"/>
	</linearGradient>
	<path id="sweater-0kylRgHLBRwiKbxDs3T_" d="M413.6,230.4c0,0-13.6-1.2-35,7.7c-21.4,8.9-28,16.8-40.2,22.4
		s-43.5,13.8-42.2,48.9c0,0,6.5,22.3,73.8,18.6l55.4-86.1C425.6,241.9,416.9,240.6,413.6,230.4z" style="fill:url(#sweater-0kylRgHLBRwiKbxDs3T__1_);"/>
	<path id="L_sleeve-0kylRgHLBRwiKbxDs3T_" d="M424.4,246.3c0,0-16.2,29.4-20.1,48.8s-3.4,26.5,8.1,39
		c9,9.8,17.6,18.1,17.6,18.1L401.9,402c0,0-18-7.9-22.8-23.8c-5.4-17.9-13.3-20.8-21.1-25.8c-7.8-5.1-22.4-20.8-10.1-48.4
		c12.2-27.6,30.4-53,66.2-74.8l0,0" style="fill:#A1C3FC;"/>
	
		<linearGradient id="neck-0kylRgHLBRwiKbxDs3T__1_" gradientUnits="userSpaceOnUse" x1="-4132.9082" y1="-4916.8389" x2="-4408.2368" y2="-4533.0474" gradientTransform="matrix(-6.587490e-02 0 0 -6.587490e-02 143.6226 -75.4361)">
		<stop offset="0" style="stop-color:#FFBEB6"/>
		<stop offset="3.260000e-02" style="stop-color:#FEBDB5"/>
		<stop offset="0.6116" style="stop-color:#F5A8A3"/>
		<stop offset="1" style="stop-color:#F2A19C"/>
	</linearGradient>
	<path id="neck-0kylRgHLBRwiKbxDs3T_" d="M436.1,231.8c0,0-9.5,10.1-11.7,14.5c0,0-3.6,0.6-8.4-9.5l11.2-14
		L436.1,231.8z" style="fill:url(#neck-0kylRgHLBRwiKbxDs3T__1_);"/>
	<path id="face-0kylRgHLBRwiKbxDs3T_" d="M457.1,198.8c0,0,1.4,10.5,4.8,14.3c4.7,5.3,3.8,5.9-2,8.4
		c0,0-12.7,21.8-33.8,4.8c0,0-9.2-8.2-8.7-12.9c0.6-4.8,2.5-12,7.5-13.1C430,199,456.2,190.9,457.1,198.8z" style="fill:#FFBEB6;"/>
	<ellipse id="hair2-0kylRgHLBRwiKbxDs3T_" cx="419.5" cy="179.1" rx="10.1" ry="10.1" style="fill:#E94A47;"/>
	<path id="hair-0kylRgHLBRwiKbxDs3T_" d="M372.8,214.3c2.2-4.4,6.4-7.5,11.2-8.1c6.4-0.8,18,4.4,21.9-2.3
		c0.3-0.6,0.6-1.2,0.8-1.9c0.1-0.3,0.2-0.5,0.2-0.8c0-0.1,0.1-0.2,0.2-0.3c0-0.1,0-0.1,0.1-0.2c1.8-4.7,5-8.6,9.1-11.4
		c-5.5-0.2-9.8-4.9-9.6-10.4c0-0.2,0-0.5,0.1-0.7c0.1-0.6,1-0.6,0.9,0c-0.6,5,2.9,9.5,7.9,10.1c0.8,0.1,1.6,0.1,2.4,0
		c5.3-3,12.5-4.8,22.1-4.4c19.5,0.7,21.9,15.6,19.3,25.2c-0.3-0.6-0.5-1.2-0.7-1.9l0-0.1l-0.6-2.1l-0.1-0.3l-1.4-5
		c0,0-8.9,1.7-13.7,7.4s-11.8,3.4-14.2,1.7c-2.4-1.7-7.2,1.2-5,6.2c0.1,0.3,0.3,0.6,0.4,0.9c5.1,8.5,2.3,19.5-6.2,24.5
		c-1.4,0.9-3,1.5-4.6,1.9c-0.3,0.1-0.5-0.1-0.6-0.3c-0.1-0.2,0.1-0.5,0.3-0.6c6.6-1.8,11.5-7.4,12.4-14.2
		c-1.5,4.2-5.7,8.8-15.8,13.4l-34.3-24.3c3-5.4,9.1-8.3,15.1-7.2c7.9,1.2,11.2,1,13.8-2.9c-2.2,1.4-4.7,2-7.2,1.9
		c-3.9,0-7.6-1.4-11.5-1.3c-5.2,0.1-10,3.1-12.3,7.8C373.3,215.3,372.5,214.8,372.8,214.3z" style="fill:#E94A47;"/>
	<path id="eye-0kylRgHLBRwiKbxDs3T_" d="M454.2,208.6c1.5,2.2,4.5,2.8,6.7,1.3c0.8-0.5,1.4-1.3,1.8-2.2
		c0.3-0.7-0.7-1.2-1-0.6c-0.7,1.9-2.8,2.9-4.7,2.2c-0.7-0.3-1.3-0.7-1.8-1.4C454.8,207.4,453.8,208,454.2,208.6L454.2,208.6z" style="fill:#1C2868;"/>
</g>
<g>
	<path d="M460.9,211.8c0,0-6.3,1.3-8.8,1.4c-3.8,0.2-7.1-0.9-10.8-1.4c0.6,1.4,1.7,2.2,1.9,3.8c0.2,1.6-0.3,3.8-0.7,5.3
		c-1.1,3.5-2.3,6.6-5.1,9c-0.6,0.5-4,2.8-4,2.8s8.7,10.1,11.4,12.2c6.4,2.7,15.1-5.9,18.9-12.5c3.3-5.9,4.8-11.9,0.7-17.4
		C463.3,213.4,460.9,211.8,460.9,211.8z" style="fill:#23286B;"/>
	<path d="M435.7,234.7c-0.2-0.1-0.4-0.2-0.6-0.3c-1.1-0.8-3.9-3.9-6.6-6.8c-1.7-1.8-3.2-3.5-4-4.3l1.5-1.5
		c0.8,0.8,2.4,2.5,4.1,4.3c2.4,2.6,5.4,5.9,6.4,6.6c0.2,0.2,0.8-0.1,1.5-0.5c0.4-0.2,0.9-0.5,1.4-0.7c2.5-0.9,4.3-3.5,5.4-7.8
		c0.5-1.7,1.6-6.4,0.4-8.3c-0.3-0.4-0.7-0.7-1.3-0.8c-2.4-0.5-7.2-2.6-9.3-4.2l1.3-1.7c2,1.5,6.5,3.4,8.4,3.8
		c1.2,0.2,2.1,0.8,2.7,1.8c1.5,2.4,0.8,6.4-0.2,10c-1.3,5-3.6,8.2-6.8,9.3c-0.3,0.1-0.7,0.3-1,0.5
		C438.1,234.5,436.9,235.1,435.7,234.7z" style="fill:#23286B;"/>
</g>
</svg>