<svg enable-background="new 0 0 1050 1050" height="1050" viewBox="0 0 1050 1050" width="1050" xmlns="http://www.w3.org/2000/svg"><path d="m1046.991 789.602 2.793-106.137v-51.49c-2.754-2.051-9.223-6.717-13.568-8.62-44.189-19.353-99.303-14.144-146.114.69-46.812 14.834-88.547 38.34-133.866 55.92-4.314 1.674-9.272 3.32-13.74 1.932-7.601-2.361-7.485-11.563-2.674-16.854 4.81-5.291 12.445-8.519 17.531-13.641 11.572-11.654 5.998-30.02-7.471-40.27s-32.412-14.197-50.659-16.843c-58.939-8.548-119.429-7.422-179.075-3.077-172.046 12.534-343.442 48.194-494.768 115.233-14.048 6.224-23.141 10.519-25.26 11.527v71.63z" fill="#e0ebfe"/><path d="m1049.784 789.602v-60.288c-61.061 16.044-139.361 35.011-204.515 45.074-65.647 10.139-134.317 12.143-197.01-9.81-82.187-28.78-148.737-96.7-234.292-112.932-44.062-8.359-89.51-2.122-133.608 6.044-99.4 18.405-186.511 44.696-280.239 82.043v49.869z" fill="#d9e021"/><path d="m1050 517.117-34.712 53.797c-.25.306-.529.627-.754.967l-69.019 103.874c-3.76 5.673-2.704 14.245 2.973 17.245h.002c4.48 4 12.833 2.125 15.584-1.769l5.57-8.146c3.76-5.672 11.178-7.085 16.855-3.085h.002c5.677 3 7.703 11.197 3.943 16.87l-13.437 19.62c-2.537 4.236-.38 11.51 4.006 14.51h.002c4.564 3 12.785 1.866 15.659-2.494l12.937-18.554c3.76-5.673 11.3-6.953 16.978-2.953h.002c5.677 3 7.572 10.896 3.812 16.569l-27.587 41.54-.559.76c-2.992 4.696-.689 12.132 3.875 15.132h.002c5.677 4 13.394 2.212 17.153-3.46l26.713-40.095z" fill="#afccfc"/><path d="m82.549 787.683c-.147 0-.295-.008-.445-.025-1.327-.14-2.2-1.078-2.223-2.389-.025-1.439 1.043-3.267 2.458-3.467.71-.096 1.66.212 2.081 1.387.412-.821.652-1.693.73-1.998 25.861-102.019 109.997-248.116 139.116-289.057l2.283 1.623c-29.032 40.819-112.913 186.46-138.683 288.122-.933 3.673-2.9 5.804-5.317 5.804zm.477-3.214c-.082.067-.177.222-.247.379.609-.13 1.099-.693 1.472-1.346l-2.454.661c.063.112.248.312.553.39.329.087.597-.019.676-.084z" fill="#d9e021"/><path d="m126.244 788.13-2.76-.476c19.189-111.282 19.253-224.139.189-335.436l2.761-.473c19.118 111.612 19.054 224.789-.19 336.385z" fill="#d9e021"/><path d="m879.824 788.591c-30.173-53.98-61.501-108.312-93.113-161.488-7.469-12.563-17.225-23.721-29.825-34.109l2.672-3.241c12.98 10.701 23.043 22.216 30.763 35.203 29.899 50.292 59.544 101.617 88.197 152.702l.562-.271 4.471 9.267z" fill="#d9e021"/><path d="m911.597 777.73c-.602 0-1.214-.181-1.772-.546-1.156-.752-2.138-2.373-1.682-3.892.279-.931 1.03-1.589 1.99-1.789-17.552-39.204-44.757-73.865-71.066-107.386-2.802-3.569-5.602-7.138-8.389-10.707l3.312-2.585c2.784 3.567 5.581 7.131 8.381 10.698 26.535 33.808 53.973 68.766 71.733 108.568 1.718 3.851.641 5.886-.565 6.916-.564.479-1.246.723-1.942.723zm-.833-4.44-.011 2.351c.432.036.967-.257 1.281-.829.293-.532.189-1.016.12-1.123-.156-.161-.852-.299-1.343.119-.001.003-.003.004-.003.004-.01.001.021-.155-.044-.522z" fill="#d9e021"/><path d="m996.694 773c-21.964-31.428-55.125-56.911-84.381-79.395-6.461-4.964-12.562-9.654-18.55-14.394l2.607-3.293c5.966 4.721 12.056 9.401 18.504 14.356 29.497 22.668 62.93 48.362 85.265 80.319z" fill="#d9e021"/><g opacity=".27"><g fill="none"><path d="m637.339 659.495-10.539-10.539v137.292h10.539z"/><path d="m753.794 786.248v-10.299l-12.564-12.564v22.863z"/><path d="m707.212 786.248v-56.881l-12.564-12.563v69.444z"/><path d="m730.503 786.248v-33.59l-12.564-12.564v46.154z"/><path d="m660.63 786.248v-103.462l-12.564-12.564v116.026z"/><path d="m683.921 786.248v-80.171l-12.564-12.564v92.735z"/></g><path d="m764.092 786.248-10.298-10.299v10.299z" fill="#d9e021"/><path d="m741.23 786.248v-22.863l-10.727-10.727v33.59z" fill="#d9e021"/><path d="m717.939 786.248v-46.154l-10.727-10.727v56.881z" fill="#d9e021"/><path d="m694.648 786.248v-69.444l-10.727-10.727v80.171z" fill="#d9e021"/><path d="m671.357 786.248v-92.735l-10.727-10.727v103.462z" fill="#d9e021"/><path d="m648.066 786.248v-116.026l-10.727-10.727v126.753z" fill="#d9e021"/></g><path d="m374.325 580.295c-.198-.824-1.039-1.324-1.861-1.125-.824.198-1.324 1.039-1.123 1.863.198.824 1.039 1.324 1.861 1.125.823-.2 1.331-1.031 1.123-1.863zm-95.334-125.608c.454-.743.218-1.713-.525-2.164-.666-.434-1.558-.247-1.991.417-.038.051-.074.115-.096.178-.451.704-.252 1.633.448 2.093.74.437 1.711.216 2.164-.524zm44.192 66.721c.651-.566.779-1.528.3-2.244-.528-.702-1.537-.84-2.244-.3-.702.528-.84 1.537-.3 2.244.572.643 1.526.778 2.244.3zm195.83-61.731c1.347-.914 1.717-2.737.829-4.106-.809-1.348-2.552-1.787-3.895-.988-.048.03-.092.051-.131.085-1.347.914-1.717 2.737-.829 4.106.857 1.359 2.664 1.768 4.026.903zm-59.779 38.896c1.355-.924 1.697-2.765.769-4.114-.904-1.327-2.705-1.693-4.05-.816-1.363.864-1.766 2.663-.902 4.026.958 1.347 2.777 1.736 4.183.904zm-59.915 38.901c1.355-.87 1.75-2.659.88-4.014-.018-.026-.038-.054-.057-.081-.809-1.348-2.552-1.787-3.895-.988-.048.03-.092.051-.131.085-1.345.944-1.737 2.764-.903 4.184.915 1.333 2.74 1.702 4.106.814zm145.72 72.523c-.345-1.581-1.903-2.583-3.49-2.23-1.58.343-2.581 1.904-2.23 3.49.34 1.549 1.852 2.544 3.409 2.248 1.588-.352 2.613-1.908 2.311-3.508zm-70.193 13.051c-.345-1.581-1.903-2.583-3.49-2.23-1.58.343-2.581 1.904-2.23 3.49.34 1.549 1.852 2.544 3.409 2.248 1.582-.344 2.613-1.908 2.311-3.508zm-77.21-241.094c.893-1.364.537-3.191-.822-4.106-1.305-.916-3.099-.588-4.014.717-.006.008-.012.016-.018.024-.964 1.231-.744 3.007.485 3.973.059.044.117.088.186.14 1.381.869 3.191.553 4.183-.748zm-40.461 58.863c.877-1.376.553-3.192-.74-4.178-1.364-.893-3.195-.527-4.106.822-.913 1.336-.572 3.165.764 4.075.016.012.034.026.043.032 1.305.916 3.099.588 4.008-.709.019-.026.025-.034.031-.042zm-40.384 58.778c.915-1.267.643-3.033-.624-3.944-.034-.026-.075-.056-.115-.074-1.298-.964-3.134-.681-4.097.617-.032.043-.058.077-.088.117-.917 1.358-.557 3.201.79 4.111 1.358.917 3.201.557 4.111-.79.011-.02.017-.029.023-.037zm239.212 179.542c-.134-1.436-1.395-2.502-2.835-2.397-1.438.12-2.512 1.388-2.397 2.835.114 1.446 1.388 2.512 2.835 2.397 1.436-.137 2.503-1.395 2.397-2.835zm-124.689-235.771c.906-1.17.745-2.835-.371-3.808-1.071-.911-2.674-.782-3.587.288-.026.034-.044.059-.07.093-.955 1.092-.84 2.751.258 3.694.016.012.024.018.043.032 1.119.884 2.746.761 3.727-.299zm-40.903 48.703c.906-1.116.735-2.751-.367-3.659-1.071-.911-2.674-.782-3.587.288-.026.034-.044.059-.07.093-.955 1.092-.84 2.751.25 3.704.016.012.024.018.043.032 1.16.869 2.813.674 3.731-.458zm-40.968 48.928c.955-1.092.84-2.751-.25-3.704-.016-.012-.024-.018-.043-.032-1.013-.921-2.584-.835-3.504.178-.058.061-.11.129-.16.196-.955 1.092-.84 2.751.25 3.704.016.012.024.018.043.032 1.124.861 2.737.702 3.664-.374zm140.994 28.918c1.263-.714 1.733-2.304 1.046-3.585-.664-1.279-2.227-1.78-3.505-1.119-1.275.692-1.806 2.261-1.199 3.578.706 1.307 2.328 1.802 3.658 1.126zm-56.557 29.415c1.258-.601 1.799-2.108 1.198-3.366-.022-.042-.049-.091-.065-.141-.664-1.279-2.227-1.78-3.505-1.119-1.275.692-1.806 2.261-1.199 3.578.698 1.264 2.288 1.734 3.571 1.048zm-127.806-189.116c.441-1.307-.255-2.716-1.556-3.165-.055-.016-.103-.04-.149-.046-1.364-.471-2.861.254-3.336 1.624-.01.03-.022.063-.026.085-.375 1.395.409 2.844 1.791 3.291 1.358.441 2.814-.314 3.254-1.673.004-.037.006-.077.022-.116zm-19.118 60.824c.429-1.396-.325-2.889-1.712-3.362-1.414-.405-2.898.409-3.301 1.825-.391 1.345.338 2.765 1.657 3.241 1.343.482 2.835-.219 3.316-1.563.016-.038.032-.093.04-.141zm323.816 168.378c1.448-.854 1.982-2.684 1.204-4.183-.79-1.479-2.62-2.051-4.101-1.275-1.466.84-2.002 2.694-1.204 4.183.79 1.479 2.62 2.051 4.101 1.275zm-64.92 34.631c1.487-.784 2.051-2.62 1.275-4.101-.775-1.481-2.62-2.051-4.101-1.275-1.487.784-2.051 2.62-1.275 4.101.784 1.487 2.62 2.05 4.101 1.275zm-172.994-232.912c.446-1.646-.466-3.35-2.088-3.882-1.638-.44-3.325.538-3.757 2.182-.424 1.583.477 3.213 2.031 3.71 1.604.451 3.283-.428 3.814-2.01zm-21.365 70.379c.452-1.603-.426-3.281-2.009-3.81-1.608-.497-3.314.401-3.81 2.009-.497 1.608.401 3.314 2.009 3.81 1.602.467 3.293-.429 3.81-2.009zm142.107 35.106c.994-1.338.796-3.219-.438-4.334-1.328-1.012-3.217-.781-4.261.519-1.075 1.252-.937 3.141.325 4.22.016.012.034.026.051.038 1.305 1.078 3.237.88 4.323-.443-.006.008 0 0 0 0zm-46.73 56.907c1.073-1.32.876-3.253-.43-4.328 0 0 0 0-.008-.006-1.27-1.035-3.149-.838-4.175.438-1.061 1.288-.884 3.193.398 4.25 1.255 1.068 3.139.898 4.215-.354zm92.464-35.574c1.071-1.268.908-3.175-.367-4.252-1.276-1.081-3.175-.908-4.254.366-1.039 1.241-.921 3.086.28 4.174 1.291 1.116 3.224.986 4.341-.288zm-48.812 54.668c1.109-1.28.979-3.214-.295-4.331-1.25-1.061-3.123-.961-4.259.216-1.097 1.302-.999 3.224.215 4.404 1.297 1.082 3.201.941 4.339-.289zm-97.983-98.666c.519-1.604-.343-3.336-1.937-3.889-1.568-.533-3.276.296-3.809 1.864-.6 1.518.141 3.238 1.658 3.838.041.018.079.034.127.042 1.57.601 3.329-.19 3.92-1.768.021-.023.031-.053.041-.087z" fill="#a1c3fc"/><path d="m31.305 463.365c-.198-.824-1.039-1.324-1.861-1.125-.824.198-1.324 1.039-1.123 1.863.198.824 1.039 1.324 1.861 1.125.822-.199 1.33-1.031 1.123-1.863zm144.687-120.618c1.347-.914 1.717-2.737.829-4.106-.809-1.348-2.552-1.787-3.895-.988-.048.03-.092.051-.131.085-1.347.914-1.717 2.737-.829 4.106.857 1.36 2.665 1.769 4.026.903zm-59.779 38.897c1.355-.924 1.697-2.765.769-4.114-.904-1.327-2.705-1.693-4.05-.816-1.363.864-1.766 2.663-.902 4.026.959 1.346 2.778 1.735 4.183.904zm-59.915 38.9c1.355-.87 1.75-2.659.88-4.014-.018-.026-.038-.054-.057-.081-.809-1.348-2.552-1.787-3.895-.988-.048.03-.092.051-.131.085-1.345.944-1.737 2.764-.903 4.184.916 1.334 2.741 1.702 4.106.814zm145.72 72.524c-.345-1.581-1.903-2.583-3.49-2.23-1.58.343-2.581 1.904-2.23 3.49.34 1.549 1.852 2.544 3.409 2.248 1.588-.352 2.613-1.908 2.311-3.508zm-70.193 13.05c-.345-1.581-1.903-2.583-3.49-2.23-1.58.343-2.58 1.904-2.23 3.49.34 1.549 1.852 2.544 3.409 2.248 1.582-.344 2.613-1.908 2.311-3.508zm-77.209-241.094c.893-1.364.537-3.191-.822-4.106-1.305-.916-3.099-.588-4.015.717-.006.008-.012.016-.018.024-.964 1.231-.744 3.007.485 3.973.059.044.117.088.186.14 1.382.869 3.191.554 4.184-.748zm-40.461 58.864c.877-1.376.553-3.192-.74-4.178-1.364-.893-3.195-.527-4.106.822-.913 1.336-.572 3.165.764 4.075.016.012.034.026.043.032 1.305.916 3.099.588 4.008-.709.018-.026.025-.034.031-.042zm198.828 238.32c-.134-1.436-1.395-2.502-2.835-2.397-1.438.12-2.512 1.388-2.397 2.835.114 1.446 1.388 2.512 2.835 2.397 1.435-.138 2.502-1.396 2.397-2.835zm-124.69-235.771c.906-1.17.745-2.835-.371-3.808-1.071-.911-2.674-.782-3.587.288-.026.034-.044.059-.07.093-.955 1.092-.84 2.751.258 3.694.016.012.024.018.043.032 1.119.884 2.746.76 3.727-.299zm-40.903 48.702c.906-1.116.735-2.751-.367-3.659-1.071-.911-2.674-.782-3.587.288-.026.034-.044.059-.07.093-.955 1.092-.84 2.751.25 3.704.016.012.024.018.043.032 1.16.87 2.813.674 3.731-.458zm-40.968 48.929c.955-1.092.84-2.751-.25-3.704-.016-.012-.024-.018-.043-.032-1.013-.921-2.584-.835-3.504.178-.058.061-.11.129-.16.196-.955 1.092-.84 2.751.25 3.704.016.012.024.018.043.032 1.125.86 2.738.701 3.664-.374zm140.994 28.917c1.263-.714 1.733-2.304 1.046-3.585-.664-1.279-2.227-1.78-3.505-1.119-1.275.692-1.806 2.261-1.199 3.578.706 1.308 2.328 1.803 3.658 1.126zm-56.556 29.416c1.258-.601 1.799-2.108 1.198-3.366-.022-.042-.049-.091-.065-.141-.664-1.279-2.227-1.78-3.505-1.119-1.275.692-1.806 2.261-1.199 3.578.698 1.263 2.287 1.734 3.571 1.048zm176.891 40.086c1.448-.854 1.982-2.684 1.204-4.183-.79-1.479-2.62-2.051-4.101-1.275-1.466.84-2.002 2.694-1.204 4.183.79 1.478 2.62 2.05 4.101 1.275zm-64.92 34.63c1.487-.784 2.051-2.62 1.275-4.101-.775-1.481-2.62-2.051-4.101-1.275-1.487.784-2.051 2.62-1.275 4.101.784 1.487 2.62 2.051 4.101 1.275zm-172.993-232.912c.446-1.646-.466-3.35-2.088-3.882-1.638-.44-3.325.538-3.757 2.182-.424 1.583.477 3.213 2.031 3.71 1.603.452 3.283-.428 3.814-2.01zm-21.366 70.379c.452-1.603-.426-3.281-2.009-3.81-1.608-.497-3.314.401-3.81 2.009-.497 1.608.401 3.314 2.009 3.81 1.602.467 3.293-.429 3.81-2.009zm142.108 35.107c.994-1.338.796-3.219-.438-4.334-1.328-1.012-3.217-.781-4.261.519-1.075 1.252-.937 3.141.325 4.22.016.012.034.026.051.038 1.305 1.078 3.236.879 4.323-.443-.006.008 0 0 0 0zm-46.731 56.907c1.073-1.32.876-3.254-.43-4.328 0 0 0 0-.008-.006-1.27-1.035-3.149-.838-4.175.438-1.061 1.288-.884 3.193.398 4.25 1.255 1.068 3.14.898 4.215-.354zm92.465-35.574c1.071-1.268.908-3.175-.367-4.252-1.276-1.081-3.175-.908-4.254.366-1.039 1.241-.921 3.086.28 4.174 1.29 1.116 3.223.986 4.341-.288zm-48.813 54.668c1.109-1.28.979-3.214-.295-4.331-1.25-1.061-3.123-.961-4.259.216-1.097 1.302-.999 3.224.215 4.404 1.298 1.081 3.201.941 4.339-.289zm-97.983-98.667c.519-1.604-.343-3.337-1.937-3.889-1.568-.533-3.276.296-3.809 1.864-.6 1.518.141 3.238 1.658 3.838.041.018.079.034.127.042 1.57.601 3.329-.19 3.92-1.768.022-.022.032-.053.041-.087z" fill="#a1c3fc"/><g opacity=".26"><g fill="none"><path d="m277.966 787.648v-175.227l-21.279-21.279v196.506z"/><path d="m317.412 787.648v-135.781l-21.279-21.278v157.059z"/><path d="m396.304 787.648v-56.888l-21.278-21.279v78.167z"/><path d="m238.519 572.975-17.849-17.849v232.522h17.849z"/><path d="m435.751 787.648v-17.442l-21.279-21.278v38.72z"/><path d="m356.858 787.648v-96.334l-21.279-21.279v117.613z"/></g><path d="m453.193 787.648-17.442-17.442v17.442z" fill="#fff"/><path d="m414.472 787.648v-38.72l-18.168-18.168v56.888z" fill="#fff"/><path d="m375.026 787.648v-78.167l-18.168-18.167v96.334z" fill="#fff"/><path d="m335.579 787.648v-117.613l-18.167-18.168v135.781z" fill="#fff"/><path d="m296.133 787.648v-157.059l-18.167-18.168v175.227z" fill="#fff"/><path d="m256.687 787.648v-196.506l-18.168-18.167v214.673z" fill="#fff"/></g><g opacity=".26"><g fill="none"><path d="m421.661 693.724 78.781 78.781 8.531-8.531-70.25-70.25z"/><path d="m516.547 693.724 31.338 31.338 8.531-8.531-22.807-22.807z"/><path d="m484.919 693.724 47.152 47.152 8.531-8.53-38.622-38.622z"/><path d="m392.783 693.724 93.22 93.22 7.156-7.155-86.065-86.065z"/><path d="m548.176 693.724 15.524 15.524 8.53-8.531-6.992-6.993z"/><path d="m453.29 693.724 62.966 62.967 8.531-8.531-54.435-54.436z"/></g><path d="m572.23 700.717 6.993-6.993h-13.985z" fill="#fff"/><path d="m533.609 693.724 22.807 22.807 7.284-7.283-15.524-15.524z" fill="#fff"/><path d="m501.98 693.724 38.622 38.622 7.283-7.284-31.338-31.338z" fill="#fff"/><path d="m470.352 693.724 54.435 54.436 7.284-7.284-47.152-47.152z" fill="#fff"/><path d="m438.723 693.724 70.25 70.25 7.283-7.283-62.966-62.967z" fill="#fff"/><path d="m407.094 693.724 86.065 86.065 7.283-7.284-78.781-78.781z" fill="#fff"/></g><g fill="#d9e021"><path d="m87.937 494.955-19.336-13.3c3.847 5.208 10.593 9.782 19.336 13.3z" opacity=".45"/><path d="m65.276 474.399 35.906 24.699c1.697.401 3.436.769 5.213 1.102l-41.392-28.473c.009.901.102 1.791.273 2.672z" opacity=".45"/><path d="m65.662 467.212 49.938 34.351c1.38.153 2.776.285 4.188.396l-53.387-36.723c-.292.651-.537 1.31-.739 1.976z" opacity=".45"/><path d="m68.467 461.689 59.119 40.666c1.072.024 2.15.037 3.235.037.143 0 .284-.002.427-.003l-61.505-42.308c-.455.53-.883 1.065-1.276 1.608z" opacity=".45"/><path d="m72.678 457.133 65.515 45.066c1.11-.058 2.211-.129 3.303-.212l-67.18-46.212c-.57.446-1.116.898-1.638 1.358z" opacity=".45"/><path d="m77.891 453.267 69.909 48.088c1.014-.126 2.019-.264 3.013-.412l-70.995-48.836c-.661.38-1.304.766-1.927 1.16z" opacity=".45"/><path d="m83.926 449.965 72.655 49.977c.931-.186 1.852-.38 2.761-.585l-73.24-50.38c-.741.322-1.467.652-2.176.988z" opacity=".45"/><path d="m90.687 447.163 73.937 50.859c.855-.24 1.697-.489 2.526-.747l-74.056-50.941c-.817.269-1.619.545-2.407.829z" opacity=".45"/><path d="m98.135 444.834 73.839 50.792c.781-.293 1.547-.594 2.298-.903l-73.5-50.559c-.891.214-1.77.438-2.637.67z" opacity=".45"/><path d="m106.283 442.987 72.351 49.768c.704-.348 1.391-.704 2.06-1.067l-71.534-49.206c-.969.158-1.928.326-2.877.505z" opacity=".45"/><path d="m115.175 441.651 69.383 47.727c.62-.409 1.218-.826 1.795-1.249l-68.033-46.799c-1.057.095-2.106.202-3.145.321z" opacity=".45"/><path d="m124.914 440.898 64.726 44.523c.519-.482 1.011-.972 1.476-1.469l-62.739-43.156c-1.162.02-2.316.054-3.463.102z" opacity=".45"/><path d="m135.689 440.857 57.992 39.891c.386-.581.732-1.17 1.045-1.765l-55.153-37.938c-1.283-.08-2.578-.144-3.884-.188z" opacity=".45"/><path d="m147.933 441.827 48.292 33.219c.176-.738.297-1.484.36-2.237l-44.083-30.323c-1.499-.245-3.023-.465-4.569-.659z" opacity=".45"/><path d="m169.293 446.583c-2.041-.69-4.171-1.325-6.379-1.903l33.144 22.799c-.334-1.176-.809-2.33-1.419-3.46z" opacity=".45"/></g><path d="m672.083 656.637-30.099-20.704c5.989 8.106 16.489 15.227 30.099 20.704z" fill="#fff" opacity=".45"/><path d="m636.808 624.638 55.894 38.448c2.642.625 5.349 1.198 8.116 1.715l-64.434-44.322c.014 1.401.159 2.788.424 4.159z" fill="#fff" opacity=".45"/><path d="m637.409 613.45 77.736 53.473c2.147.238 4.321.443 6.519.617l-83.105-57.166c-.454 1.014-.836 2.04-1.15 3.076z" fill="#fff" opacity=".45"/><path d="m641.775 604.853 92.027 63.303c1.669.038 3.347.058 5.036.058.222 0 .443-.003.665-.004l-95.743-65.859c-.707.823-1.373 1.657-1.985 2.502z" fill="#fff" opacity=".45"/><path d="m648.33 597.76 101.985 70.153c1.727-.09 3.441-.2 5.142-.33l-104.577-71.936c-.888.693-1.737 1.398-2.55 2.113z" fill="#fff" opacity=".45"/><path d="m656.446 591.742 108.824 74.858c1.579-.197 3.142-.41 4.69-.641l-110.515-76.021c-1.029.59-2.029 1.191-2.999 1.804z" fill="#fff" opacity=".45"/><path d="m665.84 586.603 113.099 77.797c1.45-.289 2.883-.592 4.297-.911l-114.009-78.424c-1.154.501-2.283 1.014-3.387 1.538z" fill="#fff" opacity=".45"/><path d="m676.364 582.241 115.094 79.17c1.331-.374 2.641-.761 3.932-1.162l-115.28-79.298c-1.27.417-2.519.848-3.746 1.29z" fill="#fff" opacity=".45"/><path d="m687.958 578.616 114.942 79.066c1.215-.456 2.408-.925 3.577-1.406l-114.415-78.703c-1.386.333-2.754.681-4.104 1.043z" fill="#fff" opacity=".45"/><path d="m700.642 575.74 112.626 77.472c1.096-.542 2.166-1.095 3.207-1.661l-111.354-76.597c-1.509.246-3.002.508-4.479.786z" fill="#fff" opacity=".45"/><path d="m714.484 573.66 108.005 74.294c.964-.637 1.896-1.286 2.794-1.945l-105.903-72.848c-1.647.148-3.279.314-4.896.499z" fill="#fff" opacity=".45"/><path d="m729.644 572.487 100.756 69.308c.808-.751 1.574-1.513 2.298-2.286l-97.663-67.18c-1.808.031-3.606.084-5.391.158z" fill="#fff" opacity=".45"/><path d="m746.417 572.424 90.273 62.096c.601-.904 1.139-1.821 1.627-2.748l-85.854-59.057c-1.998-.123-4.013-.221-6.046-.291z" fill="#fff" opacity=".45"/><path d="m765.477 573.934 75.175 51.711c.275-1.149.462-2.31.56-3.482l-68.622-47.203c-2.334-.381-4.706-.724-7.113-1.026z" fill="#fff" opacity=".45"/><path d="m798.728 581.338c-3.178-1.073-6.493-2.063-9.929-2.963l51.594 35.49c-.52-1.83-1.26-3.627-2.208-5.386z" fill="#fff" opacity=".45"/><path d="m148.191 585.95 36.253 24.937c1.003-.149 1.986-.32 2.945-.511l-37.1-25.52c-.735.349-1.436.714-2.098 1.094z" fill="none"/><path d="m140.624 595.895c0 .025.002.049.002.074l21.136 14.539c1.515.284 3.085.517 4.7.696l-25.5-17.541c-.221.729-.338 1.474-.338 2.232z" fill="none"/><path d="m151.399 584.352 37.399 25.726c.924-.208 1.823-.436 2.697-.682l-37.755-25.971c-.81.293-1.591.602-2.341.927z" fill="none"/><path d="m142.463 601.038 9.873 6.792c2.054.826 4.323 1.538 6.764 2.116l-18.335-12.612c.249 1.285.828 2.526 1.698 3.704z" fill="none"/><path d="m141.339 592.654 27.261 18.752c1.304.103 2.632.172 3.982.202l-30.188-20.766c-.426.589-.778 1.194-1.055 1.812z" fill="none"/><path d="m145.381 587.823 34.305 23.597c1.092-.083 2.166-.191 3.219-.323l-35.698-24.556c-.652.413-1.261.84-1.826 1.282z" fill="none"/><path d="m143.046 590.022 31.407 21.604c1.198-.004 2.381-.037 3.546-.097l-33.455-23.013c-.553.488-1.054.99-1.498 1.506z" fill="none"/><path d="m158.89 581.894 37.532 25.817c.775-.319 1.518-.654 2.227-1.005l-36.945-25.414c-.96.181-1.899.382-2.814.602z" fill="none"/><path d="m163.174 581.035 36.528 25.126c.696-.378 1.355-.772 1.973-1.18l-35.43-24.371c-1.043.12-2.068.261-3.071.425z" fill="none"/><path d="m185.306 581.037 22.51 15.484c.017-.208.029-.416.029-.626 0-.711-.102-1.41-.298-2.096l-16.925-11.642c-1.687-.442-3.464-.818-5.316-1.12z" fill="none"/><path d="m167.851 580.447 34.74 23.897c.608-.446 1.168-.907 1.679-1.382l-33.052-22.735c-1.139.046-2.263.12-3.367.22z" fill="none"/><path d="m174.234 580.162c-.418 0-.833.005-1.247.012l32.037 22.037c.498-.531.937-1.077 1.309-1.636l-29.613-20.37c-.82-.028-1.649-.043-2.486-.043z" fill="none"/><path d="m193.88 583.129 12.943 8.903c-1.961-3.637-6.629-6.77-12.943-8.903z" fill="none"/><path d="m154.97 583.002 37.816 26.013c.849-.264 1.671-.545 2.464-.842l-37.705-25.936c-.885.236-1.744.493-2.575.765z" fill="none"/><path d="m178.704 580.301 28.163 19.373c.345-.655.602-1.326.766-2.01l-24.66-16.963c-1.39-.175-2.815-.31-4.269-.4z" fill="none"/><path d="m152.336 607.83-9.873-6.792c1.964 2.659 5.409 4.995 9.873 6.792z" fill="#a1c3fc" opacity=".45"/><path d="m140.765 597.333 18.335 12.612c.867.205 1.755.393 2.662.563l-21.136-14.539c.004.459.052.914.139 1.364z" fill="#a1c3fc" opacity=".45"/><path d="m140.962 593.663 25.5 17.541c.704.078 1.418.145 2.138.202l-27.261-18.752c-.149.332-.274.669-.377 1.009z" fill="#a1c3fc" opacity=".45"/><path d="m142.394 590.843 30.188 20.952c.547.012 1.098.205 1.652.205h.218l-31.407-21.791c-.232.27-.45.356-.651.634z" fill="#a1c3fc" opacity=".45"/><path d="m144.544 588.516 33.455 23.013c.567-.03 1.129-.066 1.687-.108l-34.305-23.597c-.291.226-.57.457-.837.692z" fill="#a1c3fc" opacity=".45"/><path d="m147.207 586.542 35.698 24.556c.518-.065 1.031-.135 1.538-.21l-36.253-24.937c-.337.193-.665.39-.983.591z" fill="#a1c3fc" opacity=".45"/><path d="m150.288 584.856 37.1 25.52c.475-.095.946-.194 1.41-.299l-37.399-25.726c-.378.165-.749.333-1.111.505z" fill="#a1c3fc" opacity=".45"/><path d="m153.741 583.425 37.755 25.971c.437-.123.866-.25 1.29-.381l-37.816-26.013c-.417.137-.827.278-1.229.423z" fill="#a1c3fc" opacity=".45"/><path d="m157.544 582.236 37.705 25.936c.399-.15.79-.303 1.174-.461l-37.532-25.817c-.455.109-.904.223-1.347.342z" fill="#a1c3fc" opacity=".45"/><path d="m161.705 581.293 36.945 25.414c.359-.178.71-.359 1.052-.545l-36.528-25.126c-.495.08-.985.165-1.469.257z" fill="#a1c3fc" opacity=".45"/><path d="m166.245 580.61 35.43 24.371c.316-.209.622-.422.917-.638l-34.74-23.897c-.541.049-1.076.104-1.607.164z" fill="#a1c3fc" opacity=".45"/><path d="m171.218 580.226 33.052 22.735c.265-.246.516-.496.754-.75l-32.037-22.037c-.593.01-1.183.027-1.769.052z" fill="#a1c3fc" opacity=".45"/><path d="m176.72 580.205 29.613 20.37c.197-.297.374-.597.534-.901l-28.163-19.373c-.656-.041-1.317-.073-1.984-.096z" fill="#a1c3fc" opacity=".45"/><path d="m182.973 580.7 24.66 16.963c.09-.377.152-.758.184-1.142l-22.51-15.484c-.766-.125-1.545-.238-2.334-.337z" fill="#a1c3fc" opacity=".45"/><path d="m193.88 583.129c-1.042-.352-2.13-.677-3.257-.972l16.925 11.642c-.171-.6-.413-1.19-.724-1.767z" fill="#a1c3fc" opacity=".45"/><path d="m834.013 706.49c-5.611 0-10.177-4.565-10.177-10.177 0-5.613 4.565-10.178 10.177-10.178 5.613 0 10.178 4.565 10.178 10.178-.001 5.612-4.566 10.177-10.178 10.177zm0-18.954c-4.839 0-8.776 3.937-8.776 8.777 0 4.839 3.937 8.776 8.776 8.776 4.84 0 8.777-3.937 8.777-8.776s-3.937-8.777-8.777-8.777z" fill="#fff"/><path d="m834.013 712.449c-8.896 0-16.135-7.239-16.135-16.135 0-8.898 7.239-16.137 16.135-16.137 8.898 0 16.137 7.239 16.137 16.137-.001 8.896-7.24 16.135-16.137 16.135zm0-30.872c-8.125 0-14.735 6.611-14.735 14.736s6.61 14.735 14.735 14.735 14.736-6.61 14.736-14.735-6.611-14.736-14.736-14.736z" fill="#fff"/><path d="m834.013 719.153c-12.593 0-22.839-10.246-22.839-22.839 0-12.594 10.246-22.841 22.839-22.841 12.594 0 22.841 10.246 22.841 22.841-.001 12.593-10.247 22.839-22.841 22.839zm0-44.28c-11.822 0-21.439 9.618-21.439 21.44s9.617 21.439 21.439 21.439 21.44-9.617 21.44-21.439-9.619-21.44-21.44-21.44z" fill="#fff"/><path d="m834.013 726.601c-16.701 0-30.289-13.587-30.289-30.287 0-16.701 13.587-30.289 30.289-30.289s30.289 13.587 30.289 30.289c-.001 16.7-13.588 30.287-30.289 30.287zm0-59.176c-15.929 0-28.888 12.96-28.888 28.888 0 15.929 12.96 28.887 28.888 28.887s28.888-12.958 28.888-28.887c-0-15.928-12.96-28.888-28.888-28.888z" fill="#fff"/><path d="m834.013 733.305c-20.397 0-36.992-16.595-36.992-36.992 0-20.398 16.595-36.993 36.992-36.993 20.398 0 36.993 16.595 36.993 36.993-.001 20.397-16.595 36.992-36.993 36.992zm0-72.584c-19.625 0-35.591 15.967-35.591 35.592s15.966 35.591 35.591 35.591 35.592-15.966 35.592-35.591-15.967-35.592-35.592-35.592z" fill="#fff"/><g opacity=".31"><g fill="none"><path d="m1003.63 580.273h46.154v-12.564h-33.59z"/><path d="m957.049 626.854h92.735v-12.564h-80.172z"/><path d="m1026.921 556.982h22.863v-12.564h-10.299z"/><path d="m912.492 671.411h137.292v-10.539h-126.753z"/><path d="m933.758 650.145h116.026v-12.564h-103.462z"/><path d="m980.339 603.563h69.445v-12.563h-56.881z"/></g><path d="m1049.784 544.418v-10.299l-10.299 10.299z" fill="#428dfc"/><path d="m1016.194 567.709h33.59v-10.727h-22.863z" fill="#428dfc"/><path d="m992.903 591h56.881v-10.727h-46.154z" fill="#428dfc"/><path d="m969.612 614.29h80.172v-10.727h-69.445z" fill="#428dfc"/><path d="m946.322 637.581h103.462v-10.727h-92.735z" fill="#428dfc"/><path d="m923.031 660.872h126.753v-10.727h-116.026z" fill="#428dfc"/></g><path d="m154.495 755.686c-.22-.122-.498-.038-.619.181-.122.22-.038.498.182.619.22.122.498.038.619-.181.122-.22.042-.498-.182-.619zm-46.586-4.348c-.071-.248-.331-.391-.578-.319-.228.058-.366.291-.308.519.003.018.01.039.02.057.064.24.306.383.547.322.243-.075.39-.331.319-.579zm23.452 3.72c.007-.256-.178-.477-.431-.516-.259-.025-.492.168-.516.43-.025.259.168.492.431.516.256.004.477-.178.516-.43zm25.78-55.202c.07-.478-.254-.925-.732-1.005-.457-.093-.903.2-.997.654-.003.017-.007.03-.008.046-.07.478.254.925.732 1.005.47.084.921-.229 1.005-.7zm-3.485 20.873c.07-.482-.264-.926-.745-.993-.471-.068-.913.252-.991.722-.085.471.228.92.699 1.005.487.06.937-.26 1.037-.734zm-3.511 20.903c.082-.471-.23-.916-.701-.998-.009-.001-.02-.002-.029-.004-.457-.093-.903.2-.997.654-.003.017-.007.03-.008.046-.063.483.256.934.734 1.037.475.067.921-.258 1.001-.735zm45.085-17.317c-.415-.242-.946-.102-1.188.316-.242.414-.101.946.316 1.188.407.236.928.105 1.175-.295.242-.418.108-.954-.303-1.209zm-11.225 17.966c-.415-.242-.946-.102-1.188.316-.242.414-.101.946.316 1.188.407.236.928.105 1.175-.294.243-.416.108-.955-.303-1.21zm-68.203-31.474c-.119-.469-.59-.757-1.063-.644-.462.102-.75.56-.648 1.022.001.003.001.006.002.009.076.458.508.766.966.691.021-.004.043-.008.068-.013.466-.128.76-.587.675-1.065zm4.755 20.654c-.125-.468-.587-.761-1.062-.676-.469.119-.756.593-.644 1.063.109.468.577.76 1.044.65.006-.001.013-.002.016-.003.462-.102.75-.56.649-1.019-.002-.01-.002-.012-.003-.015zm4.753 20.619c-.093-.454-.534-.749-.988-.655-.013.002-.027.005-.039.01-.471.09-.777.549-.687 1.02.003.016.005.028.008.043.113.473.588.764 1.057.652.473-.113.764-.588.652-1.057-.002-.007-.003-.01-.003-.013zm87.238-16.295c-.341-.259-.827-.197-1.093.139-.262.338-.2.828.139 1.093s.828.2 1.093-.139c.258-.342.197-.827-.139-1.093zm-76.563-20.024c-.074-.433-.471-.732-.907-.683-.414.052-.707.428-.656.842.002.013.004.021.006.034.047.428.433.735.859.685.006-.001.009-.002.016-.003.417-.068.717-.448.682-.875zm2.445 18.712c-.062-.422-.454-.712-.874-.654-.414.052-.707.428-.656.842.002.013.004.021.006.034.047.428.433.735.86.688.006-.001.009-.002.016-.003.423-.079.711-.479.648-.907zm2.482 18.772c-.047-.428-.433-.735-.86-.688-.006.001-.009.002-.016.003-.405.037-.701.398-.664.802.002.025.006.05.011.074.047.428.433.735.86.688.006-.001.009-.002.016-.003.413-.073.702-.458.653-.876zm34.602-25.03c.097-.419-.156-.841-.574-.948-.413-.111-.836.13-.948.542-.104.418.132.849.542.98.428.108.861-.148.98-.574zm-4.911 18.267c.121-.396-.1-.816-.496-.937-.014-.004-.03-.007-.044-.014-.413-.111-.836.13-.948.542-.104.418.132.849.542.98.417.1.838-.153.946-.571zm-66.987-9.986c-.197-.359-.645-.489-1.004-.295-.014.009-.029.015-.04.023-.377.204-.518.676-.314 1.055.005.008.009.017.013.023.23.362.704.481 1.079.269.369-.208.496-.678.287-1.047-.007-.008-.016-.016-.021-.028zm9.465 16.38c-.219-.374-.697-.508-1.079-.3-.372.228-.492.716-.263 1.088.216.355.673.481 1.041.288.375-.197.521-.664.323-1.039-.004-.011-.013-.025-.022-.037zm101.766-37.033c.104-.488-.189-.972-.673-1.102-.482-.124-.974.162-1.101.641-.11.489.188.978.673 1.102.482.123.974-.162 1.101-.641zm-5.448 21.141c.127-.482-.162-.974-.641-1.101s-.974.162-1.101.641c-.127.482.162.974.641 1.101.481.127.973-.162 1.101-.641zm-85.627-8.889c-.27-.428-.826-.57-1.268-.322-.425.27-.549.835-.276 1.259.261.41.798.54 1.218.3.421-.26.566-.804.326-1.237zm11.104 18.788c-.26-.42-.803-.565-1.236-.325-.431.252-.577.805-.325 1.236s.805.577 1.236.325c.423-.257.567-.806.325-1.236zm36.179-24.032c-.093-.486-.544-.82-1.036-.773-.488.087-.816.547-.741 1.036.058.486.499.835.988.775.006-.001.013-.002.018-.003.498-.07.842-.532.771-1.035.001.003 0 0 0 0zm3.071 21.632c-.074-.499-.536-.844-1.033-.774 0 0 0 0-.003.001-.481.07-.815.52-.742 1.001.069.49.521.834 1.009.765.486-.06.827-.507.769-.993zm10.767-27.353c-.062-.488-.512-.835-1.003-.773-.492.062-.835.512-.773 1.004.063.476.49.82.969.776.502-.059.861-.508.807-1.007zm2.163 21.638c-.057-.499-.506-.859-1.006-.804-.483.06-.836.49-.807.975.065.501.505.865 1.006.836.497-.067.848-.512.807-1.007zm-41.227 1.635c-.247-.435-.798-.594-1.239-.357-.431.236-.592.776-.356 1.207.212.436.736.619 1.172.407.012-.005.023-.01.035-.019.446-.223.626-.766.4-1.212-.002-.009-.006-.017-.012-.026z" fill="#fff"/><path d="m984.24 781.097c.22-.122.498-.038.619.181.122.22.038.498-.182.619-.22.122-.498.038-.619-.181-.121-.22-.042-.498.182-.619zm46.587-4.348c.071-.248.331-.391.578-.319.228.058.366.291.308.519-.003.018-.01.039-.02.057-.064.24-.307.383-.547.322-.244-.075-.39-.331-.319-.579zm-23.453 3.72c-.007-.256.178-.477.431-.516.259-.025.492.168.516.431.025.259-.168.492-.431.516-.256.003-.476-.178-.516-.431zm-25.78-55.202c-.07-.478.254-.925.732-1.005.457-.093.903.2.997.654.003.017.007.03.008.046.07.478-.254.925-.732 1.005-.469.085-.921-.229-1.005-.7zm3.485 20.873c-.07-.482.264-.926.745-.993.471-.069.913.252.991.722.085.471-.228.92-.699 1.005-.487.06-.937-.26-1.037-.734zm3.511 20.903c-.082-.471.23-.916.701-.998.009-.001.02-.002.029-.004.457-.093.903.2.997.654.003.017.007.03.008.046.063.483-.256.934-.734 1.037-.474.067-.921-.258-1.001-.735zm-45.085-17.317c.415-.242.946-.102 1.188.316.242.414.101.946-.316 1.188-.407.236-.928.105-1.175-.295-.242-.418-.107-.954.303-1.209zm11.225 17.966c.415-.242.946-.102 1.188.316.242.414.101.946-.316 1.188-.407.236-.928.105-1.175-.294-.242-.416-.107-.955.303-1.21zm68.204-31.474c.119-.469.59-.758 1.063-.644.462.102.75.56.648 1.022 0 .003-.001.006-.002.009-.076.458-.508.766-.966.691-.021-.004-.043-.008-.068-.013-.467-.128-.761-.587-.675-1.065zm-4.756 20.654c.125-.468.587-.761 1.062-.676.469.119.756.593.644 1.063-.109.468-.578.76-1.044.65-.006-.001-.013-.002-.016-.003-.462-.102-.75-.56-.649-1.019.002-.009.002-.012.003-.015zm-4.752 20.619c.093-.454.534-.749.988-.655.013.002.027.005.039.01.471.09.777.549.687 1.02-.003.016-.005.028-.008.043-.113.473-.588.764-1.057.652-.473-.113-.764-.588-.652-1.057.001-.007.002-.01.003-.013zm-87.238-16.295c.341-.259.827-.197 1.093.139.262.338.2.828-.139 1.093s-.828.2-1.093-.139c-.258-.341-.197-.827.139-1.093zm76.562-20.024c.074-.433.471-.732.907-.683.414.052.707.428.656.842-.002.013-.004.021-.006.034-.047.428-.433.735-.859.685-.006-.001-.009-.002-.016-.003-.417-.068-.716-.448-.682-.875zm-2.445 18.712c.062-.422.454-.712.874-.654.414.052.707.428.656.842-.002.013-.004.021-.006.034-.047.428-.433.735-.86.688-.006-.001-.009-.002-.016-.003-.422-.078-.711-.479-.648-.907zm-2.481 18.772c.047-.428.433-.735.86-.688.006.001.009.002.016.003.404.037.701.398.664.802-.002.025-.006.05-.011.074-.047.428-.433.735-.86.688-.006-.001-.009-.002-.016-.003-.414-.073-.703-.458-.653-.876zm-34.603-25.03c-.097-.419.156-.841.574-.948.413-.111.836.13.948.542.104.418-.132.849-.542.98-.428.108-.861-.147-.98-.574zm4.912 18.267c-.121-.396.1-.816.496-.937.014-.004.03-.008.044-.014.413-.111.836.13.948.542.104.418-.132.849-.542.98-.417.1-.839-.153-.946-.571zm66.986-9.986c.197-.359.645-.489 1.004-.295.014.009.029.015.04.023.377.204.518.676.314 1.055-.005.008-.009.017-.013.023-.23.362-.704.481-1.079.268-.369-.208-.496-.678-.287-1.047.007-.007.016-.015.021-.027zm-9.465 16.38c.219-.374.697-.508 1.078-.3.372.228.492.716.263 1.088-.216.355-.672.481-1.041.288-.375-.197-.521-.664-.323-1.039.005-.011.014-.025.023-.037zm-101.766-37.033c-.104-.488.189-.972.673-1.102.482-.124.974.162 1.101.641.11.489-.188.978-.673 1.102-.481.124-.973-.162-1.101-.641zm5.449 21.141c-.127-.482.161-.974.641-1.101s.974.162 1.101.641c.127.482-.162.974-.641 1.101-.482.127-.974-.161-1.101-.641zm85.626-8.889c.27-.428.826-.57 1.268-.322.425.27.549.835.276 1.259-.261.41-.798.54-1.219.3-.42-.26-.564-.803-.325-1.237zm-11.104 18.788c.26-.42.803-.565 1.236-.325.431.252.577.805.325 1.236s-.805.577-1.236.325c-.423-.257-.567-.806-.325-1.236zm-36.179-24.032c.093-.486.544-.82 1.036-.773.488.087.816.547.741 1.036-.058.486-.499.835-.988.775-.006-.001-.013-.002-.018-.003-.498-.07-.842-.532-.771-1.035zm-3.07 21.632c.074-.499.536-.844 1.033-.774 0 0 0 0 .003.001.481.07.815.52.742 1.001-.069.49-.521.834-1.009.765-.487-.06-.827-.507-.769-.993zm-10.768-27.353c.062-.488.512-.835 1.003-.773.492.062.835.512.773 1.004-.063.476-.49.82-.969.776-.502-.058-.861-.507-.807-1.007zm-2.163 21.638c.057-.499.506-.859 1.006-.804.483.06.836.49.807.975-.065.501-.505.865-1.006.836-.496-.067-.847-.511-.807-1.007zm41.227 1.635c.247-.435.798-.594 1.239-.357.431.236.592.776.356 1.207-.212.435-.736.619-1.172.407-.012-.005-.023-.01-.035-.019-.446-.223-.626-.766-.4-1.212.002-.009.007-.017.012-.026z" fill="#fff"/></svg>