<svg xmlns="http://www.w3.org/2000/svg" viewBox="0 0 1036 760" width="1036" height="760"><g transform="translate(305.0 604.0) rotate(0.0 251.0 12.0) scale(0.9884691723638197 0.9905894006934125)"><svg width="507.856" height="24.228" viewBox="0 0 507.856 24.228"><g fill="#231f20"><path d="M507.692 12.114 456.27 17.79l-51.654 2.948-51.73 1.24-51.739.384-51.736.366-49.935-.367-49.935-.395-49.919-1.276-49.841-3.013L.169 12.065l49.613-5.601 49.843-2.989 49.922-1.247 49.933-.371 49.931-.357 51.737.366 51.741.384 51.727 1.24 51.656 2.948z"/><path d="m249.422 24.228-49.956-.367-49.936-.395-49.946-1.276-49.894-3.016L0 13.556v-2.981l49.614-5.601 49.921-2.996L149.509.729 249.4 0l103.5.75 51.752 1.24 51.705 2.95 51.499 5.683v2.982l-51.421 5.676-51.733 2.955-51.78 1.242zM13.525 12.066l36.424 4.12 49.763 3.006 49.867 1.274 49.909.394 49.934.367 103.453-.75 51.705-1.239 51.605-2.946 37.837-4.178-37.915-4.185-51.576-2.942-51.678-1.237L249.401 3l-99.843.728-49.896 1.246-49.79 2.987z"/></g></svg></g><g transform="translate(160.0 99.0) rotate(-7.9584978466759155 86.5 87.0) scale(1.0030264729414766 1.001075868893581)"><svg width="172.478" height="173.813" viewBox="0 0 172.478 173.813"><path d="m171.75 61.08-50.204 27.875 47.608 32.107-56.376-10.917 15.832 55.198-36.17-44.601-23.353 52.461.962-57.416-51.61 25.176 37.643-43.364L.363 83.71l56.71-9.023-33.756-46.454 49.243 29.54L76.562.489l18.733 54.282 39.888-41.309-20.542 53.624z" fill="#fff"/><path d="m70.458 173.813-2.87-.635.921-54.97-49.412 24.104-1.79-2.331 36.04-41.518L0 85.165l.127-2.937 54.295-8.638-32.318-44.476 1.985-2.168 47.145 28.283L75.066.385 77.98 0l17.936 51.97 38.188-39.55 2.48 1.578-19.666 51.34 54.676-5.75.885 2.803-48.066 26.688 45.581 30.74-1.124 2.716-53.975-10.452 15.157 52.847-2.607 1.358-34.629-42.701zm-1.066-59.374 2.157 1.373-.839 50.056 20.36-45.736 2.535-.335 31.533 38.884-13.802-48.123 1.727-1.886 49.15 9.518-41.506-27.992.111-2.555 43.769-24.302-49.789 5.236-1.558-2.028 17.908-46.75-34.773 36.014-2.497-.553L77.545 7.937l-3.489 49.941-2.268 1.182-42.93-25.755 29.429 40.5-.978 2.363-49.441 7.867 48.577 12.108.77 2.439-32.818 37.806z" fill="#231f20"/></svg></g><g transform="translate(267.0 196.0) rotate(0.0 248.0 210.5) scale(1.0014496791726735 1.0022807243085217)"><svg width="495.282" height="420.042" viewBox="0 0 495.282 420.042"><path d="M179.078 302.624h178.284v87.694H179.078z" fill="#fff"/><g fill="#231f20"><path d="M357.362 391.818H179.078l-1.5-1.5v-87.694l1.5-1.5h178.284l1.5 1.5v87.694zm-176.784-3h175.284v-84.694H180.578z"/><path d="M143.2 302.624h35.878v87.694H143.2z"/><path d="M180.578 391.818H141.7v-90.694h38.878zm-35.878-3h32.878v-84.694H144.7z"/><path d="M143.2 418.542H87.05v-12.224l2.141-8.001 5.858-5.858 8.001-2.141h40.15v18.814z"/><path d="M144.7 420.042H85.55v-13.921l2.296-8.581 6.427-6.426 8.58-2.296H144.7zm-56.15-3h53.15v-25.224h-38.453l-7.422 1.986-5.289 5.289-1.986 7.422zm54.65-114.418h214.162v22.18H143.2z"/><path d="M358.862 326.303H141.7v-25.18h217.162zm-214.162-3h211.162v-19.18H144.7z"/></g><path d="M413.36 418.542H122.928v-12.224l2.141-8.001 5.858-5.858 8.001-2.141H397.36l8.001 2.141 5.858 5.858 2.141 8.001v8.147z" fill="#fff"/><path d="M413.36 420.042H122.928l-1.5-1.5v-12.224l.051-.388 2.141-8.001.388-.673 5.858-5.857.673-.388 8.001-2.141.388-.051H397.36l.388.051 8.001 2.141.673.388 5.858 5.858.388.673 2.141 8.001.051.388v12.224zm-288.932-3H411.86v-10.526l-1.986-7.422-5.289-5.289-7.422-1.986H139.125l-7.422 1.986-5.289 5.289-1.986 7.422zm329.691-114.418H21.5l-10.002-2.677-7.322-7.322L1.5 282.624V21.5l2.677-10.002 7.322-7.322L21.5 1.5h432.619l10.002 2.677 7.322 7.322 2.676 10.001v261.124l-2.676 10.001-7.322 7.322z" fill="#231f20"/><path d="M454.317 304.124H21.303l-10.581-2.832-7.891-7.891L0 282.821V21.303l2.831-10.581 7.891-7.891L21.303 0h433.014l10.581 2.831 7.891 7.891 2.831 10.58V282.82l-2.831 10.581-7.891 7.891zm-432.62-3h432.225l9.422-2.521 6.754-6.753 2.521-9.423V21.697l-2.521-9.422-6.753-6.753L453.922 3H21.697l-9.422 2.521-6.754 6.754L3 21.697v260.729l2.521 9.422 6.753 6.754z" fill="#231f20"/><path d="M473.782 302.624H41.162l-10.001-2.677-7.322-7.322-2.677-10.001V21.5l2.677-10.002 7.322-7.322L41.162 1.5h432.62l10.001 2.677 7.322 7.322 2.677 10.001v261.124l-2.677 10.001-7.322 7.322z" fill="#fff"/><path d="M473.782 304.124H41.163l-.388-.051-10.002-2.677-.673-.388-7.322-7.322-.388-.673-2.676-10.001-.051-.388V21.5l.051-.388 2.677-10.002.388-.673 7.322-7.322.673-.388L40.775.051 41.163 0h432.619l.388.051 10.002 2.676.673.388 7.322 7.322.388.673 2.676 10.001.051.388v261.124l-.051.388-2.677 10.002-.388.673-7.322 7.322-.673.388-10.001 2.676zm-432.422-3h432.225l9.422-2.521 6.753-6.753 2.522-9.423V21.697l-2.521-9.422-6.753-6.753L473.585 3H41.36l-9.422 2.521-6.753 6.753-2.522 9.423v260.729l2.521 9.423 6.753 6.753z" fill="#231f20"/><path d="M493.782 53.178V21.5l-2.677-10.002-7.322-7.322L473.782 1.5H41.162L31.161 4.177l-7.322 7.322L21.162 21.5v31.678H336.24z" fill="#ee4878"/><path d="M493.782 54.678H21.163l-1.5-1.5V21.5l.051-.388 2.676-10.001.388-.673L30.1 3.116l.673-.388L40.775.051 41.163 0h432.619l.388.051 10.001 2.676.673.388 7.322 7.322.388.673 2.677 10.002.051.388v31.678zm-471.119-3h469.619V21.697l-2.521-9.422-6.753-6.753L473.585 3H41.36l-9.422 2.522-6.753 6.753-2.521 9.422v29.981z" fill="#231f20"/><path d="m435.474 30.617-3.322 4.57-5.373 1.745-5.372-1.745-3.322-4.569v-5.651l3.321-4.569 5.373-1.746 5.373 1.745 3.322 4.57z" fill="#fff"/><path d="M427.242 38.358h-.927l-5.372-1.745-.75-.545-3.322-4.569-.287-.882v-5.651l.287-.882 3.321-4.569.75-.545 5.373-1.746h.927l5.373 1.745.75.545 3.322 4.57.287.882v5.65l-.287.882-3.322 4.57-.75.545zm-4.908-4.448 4.445 1.444 4.446-1.444 2.749-3.781v-4.675l-2.749-3.781-4.446-1.444-4.446 1.445-2.748 3.781v4.676z" fill="#231f20"/><path d="m472.971 30.617-3.322 4.57-5.373 1.745-5.373-1.745-3.322-4.569v-5.651l3.322-4.569 5.373-1.746 5.373 1.745 3.321 4.57z" fill="#fff"/><path d="M464.739 38.358h-.927l-5.373-1.745-.75-.545-3.322-4.569-.287-.882v-5.651l.287-.882 3.322-4.569.75-.544 5.373-1.746h.927l5.373 1.745.75.545 3.321 4.57.286.882.001 5.65-.287.882-3.322 4.57-.75.545zm-4.909-4.448 4.446 1.444 4.446-1.444 2.749-3.781-.001-4.675-2.748-3.781-4.446-1.444-4.446 1.445-2.749 3.781v4.676z" fill="#231f20"/></svg></g><g transform="translate(269.0 394.0) rotate(0.0 51.5 52.0) scale(0.943067992455456 0.9327688885699936)"><svg width="109.218" height="111.496" viewBox="0 0 109.218 111.496"><g><path style="fill:#231f20" d="m107.406 37.662-.483-.609-3.437-2.552-.722-.286-4.251-.49-.761.111-7.633 3.261-6.844 3.812-5.271-6.458-.629-.454-9.567-3.637-.351-.036.503-8.039.001-.158-.53-12.335-.229-.734-3.389-5.388-.57-.528-5.631-2.97L56.854 0l-6.361.245-.741.229-5.389 3.389-.528.57-2.97 5.631-.172.757.245 6.361.226.735 6.528 10.482 5.142 6.6-4.544 3.708-.452.623-7.14 18.528-3.272 12.165-11.528-3.083h-.775l-19.68 5.266-.673.388L0 77.364v14.133c0 11.046 8.954 20 20 20h45.427l.887-3.372-.001-.769-5.266-19.679-.389-.673-3.652-3.652 9.803-6.472 15.456-12.718.448-.625 3.638-9.567.079-.773-.392-2.419 6.148 1.348 8.405.939.76-.114 3.928-1.699.609-.482 2.552-3.437.286-.722.49-4.252-.113-.767-1.697-3.93z"/></g></svg></g><g transform="translate(373.0 337.0) rotate(0.0 47.0 57.5) scale(1.055065436505264 1.0478073492296338)"><svg width="89.094" height="109.753" viewBox="0 0 89.094 109.753"><path d="M1.5 1.5h86.094v106.753H1.5z" fill="#fff"/><path d="M87.594 109.753H1.5l-1.5-1.5V1.5L1.5 0h86.094l1.5 1.5v106.753zm-84.594-3h83.094V3H3z" fill="#231f20"/><path d="m57.579 40.162-1.744 6.517-4.771 4.771-6.517 1.744-6.517-1.744-4.771-4.771-1.744-6.517 1.744-6.517 4.771-4.771 6.517-1.744 6.517 1.744 4.771 4.771z" fill="#fff"/><path d="m44.547 54.694-7.264-1.949-5.319-5.319-1.949-7.264 1.949-7.264 5.319-5.319 7.264-1.949 7.264 1.949 5.319 5.319 1.949 7.264-1.949 7.264-5.319 5.319zm0-26.064-5.764 1.547-4.221 4.221-1.547 5.764 1.547 5.764 4.221 4.221 5.764 1.547 5.764-1.547 4.221-4.221 1.547-5.764-1.547-5.764-4.221-4.221z" fill="#231f20"/><path d="m18.674 78.943 3.462-12.938 9.473-9.473 12.938-3.462 12.939 3.463 9.472 9.472 3.463 12.938H35.923z" fill="#fff"/><path d="M70.421 80.444H18.673l-.499-.499-.5-.5-.5-.5 3.671-13.683 10.02-10.02 13.682-3.671 13.683 3.671 10.02 10.02 3.671 13.682-.499.499-.5.5zm-50.202-3h48.655l-3.742-11.538-8.838-8.313-11.747-3.023-11.748 3.023-8.838 8.313z" fill="#231f20"/></svg></g><g transform="translate(578.0 336.0) rotate(0.0 47.5 58.0) scale(1.066289536893618 1.0569187174838046)"><svg width="89.094" height="109.753" viewBox="0 0 89.094 109.753"><path d="M1.5 1.5h86.094v106.753H1.5z" fill="#fff"/><path d="M87.594 109.753H1.5l-1.5-1.5V1.5L1.5 0h86.094l1.5 1.5v106.753zm-84.594-3h83.094V3H3z" fill="#231f20"/><path d="m57.579 40.162-1.744 6.517-4.771 4.771-6.517 1.744-6.517-1.744-4.771-4.771-1.744-6.517 1.744-6.517 4.771-4.771 6.517-1.744 6.517 1.744 4.771 4.771z" fill="#fff"/><path d="m44.547 54.694-7.264-1.949-5.319-5.319-1.949-7.264 1.949-7.264 5.319-5.319 7.264-1.949 7.264 1.949 5.319 5.319 1.949 7.264-1.949 7.264-5.319 5.319zm0-26.064-5.764 1.547-4.221 4.221-1.547 5.764 1.547 5.764 4.221 4.221 5.764 1.547 5.764-1.547 4.221-4.221 1.547-5.764-1.547-5.764-4.221-4.221z" fill="#231f20"/><path d="m18.674 78.943 3.462-12.938 9.473-9.473 12.938-3.462 12.939 3.463 9.472 9.472 3.463 12.938H35.923z" fill="#fff"/><path d="M70.421 80.444H18.673l-.499-.499-.5-.5-.5-.5 3.671-13.683 10.02-10.02 13.682-3.671 13.683 3.671 10.02 10.02 3.671 13.682-.499.499-.5.5zm-50.202-3h48.655l-3.742-11.538-8.838-8.313-11.747-3.023-11.748 3.023-8.838 8.313z" fill="#231f20"/></svg></g><g transform="translate(459.0 291.0) rotate(0.0 64.0 80.5) scale(1.2367866736235917 1.2616763839257727)"><svg width="103.494" height="127.608" viewBox="0 0 103.494 127.608"><path d="M1.5 1.5h100.494v124.608H1.5z" fill="#fff"/><path d="M101.994 127.608H1.5l-1.5-1.5V1.5L1.5 0h100.494l1.5 1.5v124.608zm-98.994-3h97.494V3H3z" fill="#231f20"/><circle cx="51.747" cy="46.628" fill="#ee4878" r="15.212"/><path d="M51.747 63.34c-9.215 0-16.712-7.497-16.712-16.712s7.497-16.712 16.712-16.712a16.6 16.6 0 0 1 11.817 4.895 16.603 16.603 0 0 1 4.895 11.817c0 9.215-7.497 16.712-16.712 16.712zm0-30.423c-7.561 0-13.712 6.151-13.712 13.712s6.151 13.712 13.712 13.712 13.712-6.151 13.712-13.712c0-3.663-1.426-7.106-4.016-9.696s-6.033-4.016-9.696-4.016z" fill="#231f20"/><path d="M21.546 91.897c0-16.68 13.521-30.201 30.201-30.201s30.201 13.521 30.201 30.201z" fill="#ee4878"/><path d="M81.948 93.397H21.546l-1.5-1.5c0-17.48 14.221-31.701 31.701-31.701s31.701 14.221 31.701 31.701zm-58.863-3H80.41c-.783-15.131-13.34-27.201-28.662-27.201s-27.879 12.07-28.662 27.201z" fill="#231f20"/></svg></g><g transform="translate(222.0 394.0) rotate(0.0 84.0 111.5) scale(0.9951958106995397 0.9959759000629742)"><svg width="168.811" height="223.901" viewBox="0 0 168.811 223.901"><path d="M125.525 9.858c2.007 6.488-1.416 37.034-1.416 37.034s-20.072-23.278-22.078-29.766c-2.007-6.488 1.626-13.374 8.114-15.381 6.488-2.007 13.374 1.626 15.381 8.113z" fill="#fff"/><path d="M122.973 47.871c-.828-.96-20.3-23.592-22.375-30.302-2.248-7.268 1.836-15.009 9.104-17.258 3.521-1.089 7.255-.742 10.514.977s5.654 4.605 6.743 8.126c2.076 6.71-1.217 36.384-1.359 37.644zM113.792 2.69c-1.073 0-2.151.162-3.204.488-5.688 1.76-8.883 7.818-7.124 13.505 1.388 4.487 13.024 18.872 19.522 26.578 1.013-10.029 2.495-28.472 1.107-32.959a10.726 10.726 0 0 0-5.277-6.359 10.742 10.742 0 0 0-5.024-1.252z" fill="#231f20"/><path d="M160.351 51.573c-4.517.667-24.462-4.743-24.462-4.743s17.528-10.947 22.045-11.614a8.267 8.267 0 1 1 2.417 16.357z" fill="#fff"/><path d="M159.478 53.124c-5.934 0-22.045-4.321-23.982-4.846l-.402-2.72c1.821-1.137 17.929-11.133 22.62-11.826 5.326-.787 10.303 2.907 11.09 8.235a9.708 9.708 0 0 1-1.82 7.251 9.702 9.702 0 0 1-6.414 3.839 7.557 7.557 0 0 1-1.092.067zm-19.818-6.851c7.766 1.993 17.794 4.212 20.472 3.816a6.722 6.722 0 0 0 4.444-2.66 6.718 6.718 0 0 0 1.261-5.024 6.775 6.775 0 0 0-7.684-5.706c-2.676.395-11.635 5.419-18.493 9.573z" fill="#231f20"/><path d="M32.721 69.573c8.857 6.387 34.029 48.921 34.029 48.921s-48.304-10.459-57.161-16.847S-1.27 82.902 5.117 74.044s18.747-10.859 27.603-4.47z" fill="#fff"/><path d="M66.433 119.959c-1.985-.43-48.714-10.6-57.721-17.096C-.8 96.002-2.959 82.68 3.901 73.166c3.323-4.609 8.243-7.648 13.852-8.556s11.236.422 15.845 3.746c9.007 6.495 33.408 47.625 34.443 49.373zm-45.24-52.627c-.982 0-1.971.079-2.96.239A18.15 18.15 0 0 0 6.334 74.92c-5.892 8.172-4.038 19.615 4.133 25.509 7.164 5.167 42.089 13.334 53.202 15.842-5.887-9.753-24.662-40.316-31.826-45.482a18.134 18.134 0 0 0-10.651-3.457z" fill="#231f20"/><path d="M140.905 63.003c-6.387 8.857-48.921 34.029-48.921 34.029s10.459-48.304 16.847-57.161 18.745-10.859 27.603-4.472 10.859 18.747 4.47 27.603z" fill="#fff"/><path d="m92.749 98.323-2.23-1.608c.43-1.985 10.6-48.714 17.096-57.721 6.862-9.513 20.183-11.67 29.697-4.811 4.609 3.323 7.648 8.243 8.556 13.852s-.422 11.237-3.746 15.845c-6.495 9.007-47.625 33.408-49.373 34.443zm32.145-65.151c-5.678 0-11.278 2.631-14.846 7.577-5.167 7.164-13.334 42.09-15.842 53.202 9.753-5.887 40.316-24.662 45.482-31.826a18.157 18.157 0 0 0 3.218-13.611 18.15 18.15 0 0 0-7.349-11.899 18.18 18.18 0 0 0-10.663-3.445z" fill="#231f20"/><path d="M124.457 107.743c0 21.734-39.355 111.89-39.355 111.89s-39.353-90.155-39.353-111.89S63.368 68.388 85.104 68.39c21.733-.001 39.353 17.619 39.353 39.353z" fill="#fff"/><path d="M86.477 220.233h-2.75c-1.612-3.693-39.479-90.693-39.479-112.49 0-10.913 4.25-21.172 11.966-28.888S74.189 66.89 85.1 66.89h.003c10.911 0 21.171 4.249 28.887 11.965s11.966 17.976 11.966 28.888c0 21.797-37.868 108.797-39.48 112.49zM85.101 69.89c-10.111 0-19.616 3.937-26.765 11.086-7.15 7.15-11.087 16.656-11.087 26.767 0 18.889 30.902 91.918 37.854 108.106 6.952-16.188 37.855-89.217 37.855-108.106 0-10.111-3.938-19.617-11.088-26.767S95.214 69.889 85.104 69.89h-.002z" fill="#231f20"/><path d="m84.997 222.414-8.946-1.17-8.333-3.455-7.154-5.497-5.497-7.153-3.453-8.333-1.17-8.945v-27.4h69.108v27.4l-1.17 8.945-3.455 8.334-5.497 7.154-7.154 5.496-8.332 3.454z" fill="#ee4878"/><path d="M85.192 223.901h-.389l-8.947-1.17-.38-.102-8.333-3.455-.339-.196-7.154-5.497-.276-.276-5.497-7.154-.196-.34-3.454-8.333-.102-.38-1.182-9.14v-27.4l1.5-1.5h69.109l1.5 1.5-.013 27.594-1.17 8.945-.102.38-3.455 8.334-.196.339-5.497 7.153-.276.276-7.154 5.497-.34.196-8.333 3.454-.38.102-8.946 1.17zm-8.75-4.119 8.555 1.118 8.555-1.118 7.967-3.302 6.841-5.257 5.257-6.841 3.303-7.968 1.131-8.652V161.96H51.944v25.802l1.131 8.652 3.302 7.967 5.256 6.841 6.841 5.256 7.967 3.304z" fill="#231f20"/></svg></g><g transform="translate(658.0 323.0) rotate(0.0 123.0 136.0) scale(1.00336085098052 1.003249495608939)"><svg width="245.176" height="271.119" viewBox="0 0 245.176 271.119"><path d="m95.875 224.82 3.315-1.949 3.32-1.952 3.319-1.952 2.523-2.813.445-3.756-1.768-3.343-4.884-4.875-4.887-4.878-4.887-4.879-3.555 2.091-3.561 2.093-3.561 2.094 4.725 8.036 4.728 8.042z" fill="#fff"/><path d="m96.636 226.113-2.053-.533-14.181-24.119.533-2.053 10.677-6.278 1.82.231 14.659 14.632.266.36 1.768 3.343.164.878-.445 3.756-.373.825-2.523 2.813-.356.292zm-12.889-24.879 12.661 21.533 8.46-4.974 2.05-2.286.334-2.82-1.443-2.729-13.678-13.653z" fill="#231f20"/><path d="m65.379 212.261 7.541-4.434 7.546-4.437 7.547-4.436 10.669 18.147 10.672 18.149 10.671 18.15.829 2.994-.78 3.007-2.18 2.212-4.094 2.408-4.097 2.409-4.098 2.409-2.993.828-3.007-.78-2.213-2.179-10.67-18.148-10.671-18.149z" fill="#fff"/><g fill="#231f20"><path d="m102.235 271.119-3.007-.78-.676-.383-2.213-2.179-.241-.308-32.013-54.447.533-2.053 22.633-13.308 2.053.533 32.013 54.447.153.36.828 2.994.006.777-.78 3.007-.383.676-2.18 2.213-.308.24-12.289 7.225-.36.153-2.994.829zm-1.864-3.583 2.228.578 2.416-.669 11.949-7.025 1.759-1.786.578-2.228-.669-2.416-31.152-52.983-20.047 11.787 31.152 52.983zM41.72 168.681l2.826 8.025-.438 8.496-3.645 7.686-6.338 5.672-8.037 2.78-8.489-.552-7.636-3.748-5.639-6.372-2.826-8.025.438-8.496 3.645-7.685 6.337-5.672 8.038-2.78 8.488.551 7.637 3.749z"/><path d="m25.99 202.837-8.488-.552-.564-.15-7.637-3.748-.462-.352-5.639-6.371-.292-.496-2.826-8.025-.082-.577.438-8.496.143-.566 3.645-7.685.355-.475 6.338-5.672.51-.3 8.038-2.78.588-.079 8.488.552.564.15 7.637 3.748.462.352 5.639 6.371.292.496 2.826 8.025.083.575-.438 8.496-.143.566-3.645 7.685-.355.475-6.338 5.672-.51.3-8.038 2.78zm-7.997-3.526 7.89.513 7.467-2.583 5.887-5.269 3.388-7.143.407-7.903-2.63-7.469-5.248-5.93-7.104-3.487-7.89-.513-7.467 2.583-5.887 5.269-3.388 7.143-.407 7.903 2.63 7.469 5.248 5.93zM235.511 54.738l5.011 14.229-.776 15.065-6.463 13.628-11.237 10.057-14.252 4.93-15.051-.979-13.542-6.646-9.998-11.297-5.011-14.23.777-15.065 6.463-13.627 11.237-10.057 14.252-4.93 15.051.978 13.541 6.647z"/><path d="m207.696 114.144-15.051-.979-.564-.15-13.542-6.646-.462-.352-9.998-11.297-.292-.496-5.011-14.229-.083-.575.776-15.065.143-.566 6.463-13.628.355-.475 11.237-10.057.51-.3 14.252-4.93.588-.079 15.051.979.564.15 13.542 6.646.462.352 9.998 11.297.292.496 5.011 14.229.083.575-.776 15.065-.143.566-6.463 13.628-.355.475-11.237 10.057-.51.3-14.252 4.93zm-14.559-3.953 14.453.94 13.681-4.732 10.787-9.654 6.206-13.086.746-14.472-4.815-13.674-9.607-10.856-13.009-6.385-14.452-.94-13.681 4.732-10.787 9.654-6.206 13.086-.746 14.472 4.815 13.674 9.607 10.856z"/></g><path d="m99.46 178.969-4.038 2.375-4.044 2.378-4.045 2.378-4.036 2.373-4.044 2.378-4.043 2.377-4.04 2.375-4.046 2.379-4.046 2.379-4.039 2.375-4.046 2.379-4.046 2.379-1.226.428-1.229.429-1.23.429-1.297-.076-1.299-.075-1.299-.076-1.17-.564-1.172-.566-1.173-.566-.863-.97-.866-.972-.865-.973-2.374-4.037-2.378-4.044-2.377-4.044-2.374-4.036-2.377-4.043-2.376-4.043-2.375-4.039-2.379-4.045-2.378-4.045-2.375-4.039-2.379-4.046-2.378-4.045-.428-1.226-.429-1.229-.429-1.23.075-1.297.076-1.299.076-1.299.564-1.17.566-1.172.565-1.173.97-.863.973-.866.973-.865 4.038-2.374 4.044-2.378 4.045-2.378 4.037-2.374 4.043-2.377 4.043-2.378 4.04-2.375 4.046-2.379 4.046-2.379 4.039-2.375 4.046-2.379 4.046-2.379 3.22 5.476 3.222 5.48 3.222 5.479 3.219 5.476 3.222 5.48 3.222 5.48 3.221 5.477 3.222 5.481 3.222 5.48 3.221 5.477 3.222 5.481z" fill="#ee4878"/><path d="m47.175 210.278-3.896-.227-.565-.147-3.515-1.696-.469-.354-2.767-3.152L7.321 155.93l-1.286-3.684-.081-.582.227-3.896.146-.565 1.696-3.515.354-.469 3.152-2.767 48.514-28.524 2.053.533 38.657 65.747-.533 2.053-48.78 28.648-3.684 1.286zm-3.424-3.205 3.3.192 3.263-1.139 47.094-27.689-37.137-63.161-47.094 27.69-2.582 2.297-1.436 2.977-.192 3.3 1.139 3.263 28.371 48.252 2.297 2.582z" fill="#231f20"/><path d="m224.805 150.45-43.259 2.262-42.367 9.062-39.719 17.195-12.884-21.913-12.886-21.917-12.887-21.917 34.336-26.345 28.519-32.615 23.011-36.705 26.043 44.294 26.047 44.299z" fill="#fff"/><path d="m100.056 180.346-1.889-.616-38.657-65.747.38-1.95 34.218-26.255 28.342-32.413 22.948-36.604 2.564.036 78.137 132.893-1.215 2.258-43.141 2.255-42.105 9.007zm-37.287-66.741 37.313 63.461 38.502-16.668.282-.09 42.602-9.094 40.793-2.133-75.633-128.635-21.841 34.802-28.518 32.616-.216.203z" fill="#231f20"/><path d="m239.097 155.225-.144.084-.152.089-.152.09-4.68 1.295-4.701-1.22-3.46-3.407-26.711-45.431-26.716-45.437-26.715-45.437-1.296-4.68 1.22-4.701 3.408-3.46.144-.084.151-.089.152-.09 4.68-1.295 4.701 1.22 3.46 3.407 26.712 45.431 26.715 45.437 26.716 45.437 1.295 4.68-1.22 4.701z" fill="#ee4878"/><path d="m233.592 158.235-4.701-1.22-.676-.383-3.46-3.407-.24-.308-80.142-136.305-.153-.36-1.295-4.68-.006-.777 1.22-4.701.383-.676 3.407-3.46.755-.503.361-.153 4.68-1.295.777-.007 4.701 1.22.676.383 3.46 3.407.24.308 80.142 136.304.153.36 1.295 4.68.006.777-1.22 4.701-.383.676-3.407 3.46-.756.504-.359.152-4.68 1.296zm-3.558-4.023 3.922 1.018 4.21-1.198 2.987-3.033 1.018-3.923-1.135-4.102L161.093 7.009l-3.033-2.987-3.923-1.018-4.21 1.198-2.987 3.033-1.018 3.922 1.135 4.102L227 151.224z" fill="#231f20"/><path d="m69.696 222.729 7.989-7.942 7.995-7.948 7.994-7.947 1.594-2.511.366-2.952-.92-2.829-1.286-2.187-1.288-2.191-1.288-2.191-13.292 7.815-13.3 7.82-13.301 7.821 2.704 4.6 2.707 4.603 2.706 4.603 2.995 2.739 4.02.554z" fill="#ee4878"/><path d="m65.886 226.072-4.02-.554-.808-.379-2.995-2.739-.281-.346-8.117-13.806.533-2.053 39.893-23.456 2.053.533 3.996 6.866.919 2.829.062.648-.365 2.952-.222.62-1.803 2.771-23.978 23.837-.37.27-3.605 1.857zm-3.147-3.462 3.087.426 2.977-1.534 23.695-23.555 1.323-2.084.283-2.286-.766-2.356-3.019-5.135-37.307 21.935 7.243 12.319z" fill="#231f20"/></svg></g><g transform="translate(540.0 266.0) rotate(0.0 31.5 31.5) scale(1.0190876738919443 1.0190876738919443)"><svg width="61.82" height="61.82" viewBox="0 0 61.82 61.82"><circle cx="30.91" cy="30.91" fill="#ee4878" r="29.41"/><path d="M30.91 61.82C13.866 61.82 0 47.954 0 30.91S13.866 0 30.91 0s30.91 13.866 30.91 30.91-13.866 30.91-30.91 30.91zm0-58.82C15.52 3 3 15.52 3 30.91s12.52 27.91 27.91 27.91S58.82 46.3 58.82 30.91 46.299 3 30.91 3z" fill="#231f20"/><path d="M27.126 42.902 12.772 28.549l4.242-4.243 12.233 12.232 17.784-17.783 4.242 4.243-19.905 19.904z" fill="#fff"/></svg></g><g transform="translate(727.0 273.0) rotate(-6.059337716024835 31.0 39.5) scale(1.0579121591645906 1.0603457532481477)"><svg width="58.606" height="74.504" viewBox="0 0 58.606 74.504"><path d="M2.414 65.031a32306.161 32306.161 0 0 0 36.537-49.257c.298-.363 10.144-13.85 10.263-13.424 1.742-1.148 4.212-1.14 5.931.06l-.012.016.012-.016-.012.016.012-.016-.012.016c2.154 1.628 2.601 4.843 1.058 7.042-8.166 10.952-19.25 25.979-27.416 36.929a8250.725 8250.725 0 0 1-18.272 24.634c-1.602 2.15-4.861 2.603-7.042 1.058l.012-.016-.013.016.012-.016-.012.016.012-.016C1.308 70.46.879 67.22 2.414 65.031z" fill="#fff"/><path d="M6.404 74.504a6.572 6.572 0 0 1-3.81-1.191l-.008-.05-.01.013c-2.768-2.063-3.404-6.233-1.39-9.106l.024-.034a32303.849 32303.849 0 0 0 36.536-49.255c.126-.161.577-.774 1.243-1.675C46.212 3.425 47.812 1.258 48.738.884c2.234-1.275 5.165-1.171 7.267.296l.013.078.021-.028c2.798 2.115 3.418 6.197 1.382 9.1-4.11 5.512-8.923 12.008-13.737 18.503a8032.353 8032.353 0 0 1-13.706 18.461 8294.384 8294.384 0 0 1-18.272 24.634c-1.252 1.679-3.27 2.576-5.302 2.576zm-2.031-3.607c1.544 1.056 3.833.707 4.927-.762a8473.522 8473.522 0 0 0 18.269-24.628c4.085-5.478 8.895-11.969 13.705-18.46A7960.057 7960.057 0 0 1 54.991 8.572c1.075-1.534.739-3.816-.76-4.949l-.004-.025c-1.209-.804-2.958-.805-4.186.004l-.009-.002c-1.086 1.172-6.736 8.822-8.63 11.388-.737.997-1.227 1.659-1.291 1.737a31546.158 31546.158 0 0 1-36.48 49.183c-1.075 1.552-.733 3.867.738 4.963zm44.6-67.694-.166.584c.533.147.976-.031 1.209-.193z" fill="#231f20"/></svg></g><g transform="translate(170.0 480.0) rotate(-105.09801801762958 31.0 39.5) scale(1.0579121591645906 1.0603457532481477)"><svg width="58.606" height="74.504" viewBox="0 0 58.606 74.504"><path d="M2.414 65.031a32306.161 32306.161 0 0 0 36.537-49.257c.298-.363 10.144-13.85 10.263-13.424 1.742-1.148 4.212-1.14 5.931.06l-.012.016.012-.016-.012.016.012-.016-.012.016c2.154 1.628 2.601 4.843 1.058 7.042-8.166 10.952-19.25 25.979-27.416 36.929a8250.725 8250.725 0 0 1-18.272 24.634c-1.602 2.15-4.861 2.603-7.042 1.058l.012-.016-.013.016.012-.016-.012.016.012-.016C1.308 70.46.879 67.22 2.414 65.031z" fill="#fff"/><path d="M6.404 74.504a6.572 6.572 0 0 1-3.81-1.191l-.008-.05-.01.013c-2.768-2.063-3.404-6.233-1.39-9.106l.024-.034a32303.849 32303.849 0 0 0 36.536-49.255c.126-.161.577-.774 1.243-1.675C46.212 3.425 47.812 1.258 48.738.884c2.234-1.275 5.165-1.171 7.267.296l.013.078.021-.028c2.798 2.115 3.418 6.197 1.382 9.1-4.11 5.512-8.923 12.008-13.737 18.503a8032.353 8032.353 0 0 1-13.706 18.461 8294.384 8294.384 0 0 1-18.272 24.634c-1.252 1.679-3.27 2.576-5.302 2.576zm-2.031-3.607c1.544 1.056 3.833.707 4.927-.762a8473.522 8473.522 0 0 0 18.269-24.628c4.085-5.478 8.895-11.969 13.705-18.46A7960.057 7960.057 0 0 1 54.991 8.572c1.075-1.534.739-3.816-.76-4.949l-.004-.025c-1.209-.804-2.958-.805-4.186.004l-.009-.002c-1.086 1.172-6.736 8.822-8.63 11.388-.737.997-1.227 1.659-1.291 1.737a31546.158 31546.158 0 0 1-36.48 49.183c-1.075 1.552-.733 3.867.738 4.963zm44.6-67.694-.166.584c.533.147.976-.031 1.209-.193z" fill="#231f20"/></svg></g><g transform="translate(147.0 311.0) rotate(-64.45142366449846 41.5 49.5) scale(1.26147486169372 1.2583252834409477)"><svg width="65.796" height="78.676" viewBox="0 0 65.796 78.676"><path d="M6.083 77.173c-.822.066-1.246-.785-1.902-1.106-.609-.558-1.38-1.027-1.92-1.668-.505-.557-.53-1.345-.599-2.033-.065-.809-.411-1.774.17-2.476 9.784-11.923 22.763-28.533 32.544-40.454 5.31-6.781 16.171-20.342 21.635-27.003.736-.806 1.995-.756 2.994-.795 1.198-.544 2.026.666 2.913 1.253.606.643 1.613 1.058 1.913 1.969.315.815.235 1.698.375 2.532 1.267.563-11.07 14.27-11.19 14.842-9.499 12.138-22.874 28.426-32.369 40.563L9.741 76.245a1.546 1.546 0 0 1-.746.504c-.942.315-1.949.241-2.912.424z" fill="#fff"/><path d="M5.987 78.676c-1.043 0-1.73-.62-2.151-1-.102-.092-.254-.23-.315-.263l-.353-.241c-.203-.186-.428-.359-.653-.536-.453-.354-.966-.755-1.401-1.271-.757-.833-.855-1.891-.927-2.663l-.018-.188c-.015-.178-.039-.333-.063-.49-.123-.809-.309-2.032.571-3.093 4.891-5.959 10.685-13.224 16.289-20.249 5.586-7.002 11.362-14.243 16.25-20.201C38.564 21.651 49.493 8.01 54.85 1.479 55.993.224 57.594.177 58.654.146l.047-.001c1.616-.541 2.853.509 3.537 1.089.17.145.336.29.507.403l.263.221c.122.129.321.281.531.441.579.441 1.372 1.045 1.716 2.089.258.66.308 1.363.352 1.983.012.158.022.316.038.473.045.1.081.206.106.316.287 1.246-.355 2.563-8.678 12.445-1.119 1.329-2.273 2.699-2.646 3.197l-.017.078-.215.274c-4.748 6.068-10.555 13.285-16.171 20.265-5.628 6.995-11.448 14.228-16.196 20.298L10.906 77.19a3.04 3.04 0 0 1-1.467.992c-.707.237-1.43.296-2.068.348-.337.028-.676.053-1.007.116l-.16.021a2.303 2.303 0 0 1-.217.009zm-.935-3.842c.326.193.582.423.794.615.068.062.161.146.232.203.362-.055.709-.084 1.048-.111.514-.042.999-.082 1.393-.214l10.963-13.475c4.745-6.065 10.571-13.307 16.206-20.31 5.564-6.915 11.316-14.064 16.03-20.085.248-.426.924-1.243 3.062-3.781 2.341-2.781 7.078-8.405 7.937-10.093a11.678 11.678 0 0 1-.102-.995c-.034-.469-.062-.875-.184-1.187-.079-.232-.429-.499-.71-.713-.244-.186-.517-.394-.773-.645a9.618 9.618 0 0 1-.651-.52c-.217-.184-.579-.491-.723-.527l-.268.122-.564.028c-.587.018-1.391.041-1.625.297-5.294 6.46-16.202 20.074-21.561 26.917C30.66 36.328 24.89 43.561 19.31 50.555 13.7 57.588 7.898 64.86 2.99 70.841c-.018.086.044.492.081.734.035.229.068.455.085.67l.018.181c.032.351.077.832.197.965.271.319.621.593.991.883.236.185.47.369.69.56z" fill="#231f20"/></svg></g><g transform="translate(332.0 163.0) rotate(0.0 35.5 35.5) scale(1.139098347505214 1.1382583044760806)"><svg width="62.33" height="62.376" viewBox="0 0 62.33 62.376"><path d="m31.119 1.524-.004.034.1-.023-.1.023.1-.023-.1.023 2.993 8.308 4.604 7.536 6.316 6.171 7.427 4.777 8.375 2.8-.023.1.023-.1-.023.1.023-.1-.034.096.034.004-.023-.1.023.1-.023-.1.023.1-8.376 2.8-7.426 4.777-6.317 6.172-4.603 7.535-2.993 8.308.1.023-.1-.023.1.023-.1-.023.096.034.004-.034-.1.023.1-.023-.1.023.1-.023-2.993-8.308-4.604-7.536-6.316-6.171-7.427-4.777-8.375-2.8.023-.1-.023.1.023-.1-.023.1.034-.096-.034-.004.023.1-.023-.1.023.1-.023-.1 8.376-2.8 7.427-4.777 6.316-6.172 4.603-7.535 2.993-8.308-.1-.023.1.023-.1-.023.073-.035z" fill="#fff"/><path d="M31.185 62.371c-.053 0-.105-.003-.158-.009a1.498 1.498 0 0 1-1.412-1.498v-.04l-2.752-7.639-4.426-7.246-6.073-5.934-7.142-4.593-8.181-2.735c-.224-.072-.421-.193-.582-.348s0 0-.001 0l-.028-.028-.001-.001A1.486 1.486 0 0 1 0 31.251l.001-.051L0 31.149a1.504 1.504 0 0 1 .247-.824c.022-.034.001-.001.001-.001a1.494 1.494 0 0 1 .793-.603l8.181-2.735 7.141-4.593 6.074-5.934 4.426-7.246 2.752-7.639v-.04a1.46 1.46 0 0 1 .066-.439 1.49 1.49 0 0 1 .45-.693l.019-.016c.141-.124.306-.222.486-.283l.069-.023a1.5 1.5 0 0 1 1.667.498 1.481 1.481 0 0 1 .345.958v.04l2.752 7.639 4.426 7.246 6.074 5.934 7.141 4.593 8.183 2.735c.222.071.417.19.576.343l.052.052.001.001.001.001a1.472 1.472 0 0 1 .196.26l.001.002a1.5 1.5 0 0 1 .21.764l-.001.051.001.051c0 .25-.063.492-.177.705s0 0-.001.001a1.583 1.583 0 0 1-.266.358 1.485 1.485 0 0 1-.598.363l-8.182 2.735-7.141 4.593-6.073 5.934-4.426 7.246-2.752 7.639v.04a1.5 1.5 0 0 1-1.232 1.476 1.282 1.282 0 0 1-.297.033zM6.081 31.2l4.27 1.428c.118.039.231.093.336.161l7.427 4.777c.085.055.165.118.237.189l6.316 6.171c.089.087.167.185.232.291l4.604 7.536c.053.086.097.178.131.273l1.532 4.252 1.532-4.251c.034-.096.078-.187.131-.273l4.604-7.536c.065-.106.143-.204.232-.291l6.316-6.171a1.49 1.49 0 0 1 .237-.189l7.427-4.777c.105-.067.218-.122.336-.161l4.271-1.427-4.27-1.427a1.55 1.55 0 0 1-.336-.161l-7.427-4.777a1.49 1.49 0 0 1-.237-.189l-6.316-6.171a1.514 1.514 0 0 1-.232-.291L32.83 10.65a1.458 1.458 0 0 1-.131-.273l-1.532-4.251-1.532 4.251a1.428 1.428 0 0 1-.131.273L24.9 18.186a1.514 1.514 0 0 1-.232.291l-6.316 6.171a1.49 1.49 0 0 1-.237.189l-7.427 4.777a1.505 1.505 0 0 1-.336.161z" fill="#231f20"/></svg></g><g transform="translate(92.0 386.0) rotate(0.0 40.5 40.5) scale(0.8446738620366026 0.8446738620366026)"><svg width="95.895" height="95.895" viewBox="0 0 95.895 95.895"><path d="m47.947 1.222.033.278.032.274.033.276.034.282.033.282.034.282.058.266.057.261.058.263.059.269.059.269.059.269.025.271.024.268.024.269.025.274.025.275.025.276.058.266.058.262.058.265.059.269.059.271.06.27.024.272.025.267.024.27.025.275.025.276.025.276.068.26.068.256.067.258.07.264.069.264.07.264.034.266.034.262.035.264.035.269.035.271.035.27.068.26.068.256.068.258.069.264.069.264.07.264.035.267.034.264.035.265.035.27.035.271.036.272.068.26.068.257.068.259.069.264.07.265.069.265.021.268.021.264.021.266.021.271.022.272.021.273.055.262.054.259.055.26.055.266.056.267.056.267.021.268.021.264.021.266.021.271.021.272.022.273.055.263.054.26.055.262.055.266.056.268.056.268.021.269.021.264.021.267.022.272.021.273.022.273.068.26.068.256.068.259.069.263.069.264.07.264.034.267.034.262.035.264.035.27.035.27.035.27.069.26.067.257.068.258.069.264.07.264.069.264.035.267.034.264.035.265.035.27.036.272.035.271.069.261.067.257.068.259.069.264.07.265.07.265.022.27.021.266.022.268.023.274.022.274.023.274.055.265.056.26.055.263.057.268.056.268.057.269.022.27.022.266.022.268.022.274.023.274.022.274.056.266.055.262.056.263.057.269.057.27.056.27.025.275.024.272.025.273.024.279.025.279.025.28.275.024.27.024.273.025.278.024.279.025.278.025.265.056.26.055.262.055.268.057.269.057.268.056.27.022.266.022.268.022.273.022.274.023.274.022.266.056.261.055.264.056.269.057.269.057.27.056.27.023.267.021.268.022.274.023.275.022.275.023.26.068.256.068.258.067.264.07.264.069.264.069.266.035.262.034.264.035.27.035.27.035.27.035.26.068.257.068.258.068.263.069.264.069.264.07.267.035.264.034.265.034.27.036.272.035.271.036.26.068.258.068.258.067.264.07.265.069.265.07.268.021.264.021.266.021.271.021.273.022.272.021.262.055.259.054.261.054.265.056.267.056.267.056.268.021.264.02.266.021.271.022.273.021.272.022.263.055.26.054.262.055.267.055.267.056.268.056.269.021.265.021.266.021.272.022.273.021.273.022.26.068.257.068.258.067.263.07.264.069.265.069.266.035.262.034.264.035.27.035.27.035.27.035.261.069.256.067.258.068.264.069.264.07.264.069.267.035.264.034.265.035.271.035.271.036.271.035.261.068.257.068.259.068.264.069.265.07.265.069.271.025.267.024.269.024.275.025.275.025.276.025.265.058.262.058.263.058.269.059.269.059.27.059.271.024.267.025.27.024.274.025.276.025.275.025.267.058.262.058.265.058.269.059.271.059.271.059.279.033.275.033.276.033.283.033.283.033.283.034-.278.033-.274.032-.276.033-.281.034-.283.033-.282.034-.265.058-.262.057-.263.058-.268.059-.27.059-.269.059-.271.025-.267.024-.269.024-.275.025-.275.025-.275.025-.267.058-.262.058-.264.058-.27.059-.27.059-.271.06-.271.024-.268.025-.27.024-.275.025-.276.025-.276.025-.26.068-.256.068-.258.067-.263.07-.264.069-.264.07-.266.034-.263.034-.264.035-.269.035-.27.035-.271.035-.26.068-.256.068-.258.068-.264.069-.264.069-.264.07-.267.035-.263.034-.265.035-.271.035-.271.035-.271.036-.261.068-.257.068-.259.068-.264.069-.265.07-.264.069-.268.021-.265.021-.266.021-.271.021-.272.022-.272.021-.263.055-.259.054-.26.055-.266.055-.267.056-.266.056-.268.021-.265.021-.265.021-.272.021-.272.021-.272.022-.264.055-.26.054-.261.055-.267.055-.268.056-.268.056-.268.021-.265.021-.267.021-.272.022-.273.021-.272.022-.261.068-.256.068-.258.068-.264.069-.264.069-.264.07-.266.034-.263.034-.264.035-.269.035-.271.035-.27.035-.26.069-.257.067-.258.068-.263.069-.265.07-.264.069-.267.035-.263.034-.266.035-.27.035-.271.036-.272.035-.261.069-.257.067-.259.068-.264.069-.265.07-.265.07-.27.022-.266.021-.268.022-.273.023-.274.022-.275.023-.264.055-.261.056-.262.055-.268.057-.269.056-.269.057-.27.022-.266.022-.268.022-.274.022-.274.023-.274.022-.266.056-.262.055-.263.056-.269.057-.27.057-.269.056-.276.025-.271.024-.273.025-.279.024-.28.025-.28.025-.024.275-.024.27-.024.273-.025.278-.025.279-.025.278-.056.265-.055.26-.055.262-.057.268-.056.269-.057.268-.022.27-.022.266-.022.268-.022.273-.022.274-.023.274-.056.266-.055.261-.056.264-.056.269-.057.269-.057.27-.022.27-.022.267-.022.268-.022.274-.023.275-.022.275-.069.26-.067.256-.068.258-.069.264-.07.264-.069.264-.035.266-.034.262-.034.264-.035.27-.036.27-.035.27-.068.26-.067.257-.068.258-.07.263-.069.264-.069.264-.035.267-.035.264-.034.265-.035.27-.036.272-.035.271-.069.26-.067.258-.068.258-.07.264-.069.265-.07.265-.021.268-.021.264-.02.266-.022.271-.021.273-.022.272-.055.262-.054.259-.054.261-.056.265-.056.267-.055.267-.021.268-.021.264-.021.266-.021.271-.022.273-.021.272-.055.263-.055.26-.054.262-.056.267-.056.267-.056.268-.021.269-.021.265-.021.266-.021.272-.022.273-.021.273-.069.26-.067.257-.068.258-.069.263-.07.264-.069.265-.035.266-.034.262-.034.264-.035.27-.036.27-.035.27-.068.261-.068.256-.068.258-.069.264-.069.264-.07.264-.035.267-.034.264-.034.265-.036.271-.035.271-.036.271-.068.261-.068.257-.068.259-.069.264-.07.265-.069.265-.025.271-.024.267-.024.269-.025.275-.025.275-.025.276-.058.265-.057.262-.058.263-.059.269-.059.269-.06.27-.024.271-.024.267-.025.27-.024.274-.025.276-.025.275-.059.267-.057.262-.058.265-.059.269-.06.271-.059.271-.033.279-.033.275-.032.276-.034.283-.033.283-.034.283-.033-.278-.032-.274-.033-.276-.033-.281-.034-.283-.033-.282-.059-.265-.057-.262-.058-.263-.059-.268-.059-.27-.059-.269-.025-.271-.024-.267-.024-.269-.025-.275-.025-.275-.025-.275-.058-.267-.058-.262-.058-.264-.059-.27-.059-.27-.06-.271-.024-.271-.024-.268-.025-.27-.025-.275-.025-.276-.025-.276-.068-.26-.067-.256-.068-.258-.069-.263-.07-.264-.069-.264-.035-.266-.034-.263-.034-.264-.035-.269-.036-.27-.035-.271-.068-.26-.068-.256-.067-.258-.07-.264-.069-.264-.07-.264-.034-.267-.035-.263-.034-.265-.036-.271-.035-.271-.035-.271-.069-.261-.067-.257-.068-.259-.07-.264-.069-.265-.07-.264-.021-.268-.021-.265-.021-.266-.021-.271-.021-.272-.022-.272-.055-.263-.054-.259-.054-.26-.056-.266-.056-.267-.055-.266-.022-.268-.02-.265-.021-.265-.022-.272-.021-.272-.021-.272-.055-.264-.055-.26-.054-.261-.056-.267-.056-.268-.056-.268-.021-.268-.021-.265-.021-.267-.022-.272-.021-.273-.022-.272-.068-.261-.067-.256-.068-.258-.069-.264-.07-.264-.069-.264-.035-.266-.034-.263-.035-.264-.035-.269-.035-.271-.035-.27-.068-.26-.068-.257-.068-.258-.069-.263-.069-.265-.07-.264-.035-.267-.034-.263-.035-.266-.035-.27-.035-.271-.036-.272-.068-.261-.068-.257-.068-.259-.069-.264-.07-.265-.069-.265-.022-.27-.022-.266-.022-.268-.022-.273-.023-.274-.022-.275-.056-.264-.055-.261-.056-.262-.056-.268-.057-.269-.057-.269-.022-.27-.022-.266-.022-.268-.022-.274-.022-.274-.023-.274-.056-.266-.055-.262-.056-.263-.056-.269-.057-.27-.057-.269-.025-.276-.024-.271-.024-.273-.025-.279-.025-.28-.025-.28-.275-.024-.27-.024-.272-.024-.278-.025-.279-.025-.279-.025-.264-.056-.261-.055-.262-.055-.268-.057-.268-.056-.269-.057-.27-.022-.266-.022-.268-.022-.273-.022-.274-.022-.274-.023-.265-.056-.262-.055-.263-.056-.269-.056-.27-.057-.269-.057-.271-.022-.267-.022-.268-.022-.274-.022-.275-.023-.274-.022-.26-.069-.257-.067-.258-.068-.263-.069-.264-.07-.265-.069-.266-.035-.262-.034-.264-.034-.269-.035-.271-.036-.27-.035-.26-.068-.256-.067-.258-.068-.264-.07-.264-.069-.264-.069-.267-.035-.263-.035-.265-.034-.271-.035-.271-.036-.271-.035-.261-.069-.257-.067-.259-.068-.264-.07-.265-.069-.265-.07-.268-.021-.264-.021-.266-.02-.271-.022-.272-.021-.272-.022-.263-.055-.259-.054-.26-.054-.266-.056-.267-.056-.266-.055-.268-.021-.265-.021-.266-.021-.271-.021-.272-.022-.272-.021-.264-.055-.26-.055-.261-.054-.267-.056-.268-.056-.268-.056-.268-.021-.265-.021-.267-.021-.272-.021-.273-.022-.273-.021-.26-.069-.256-.067-.258-.068-.264-.069-.264-.07-.264-.069-.266-.035-.263-.034-.264-.034-.269-.035-.271-.036-.27-.035-.26-.068-.257-.068-.258-.068-.263-.069-.265-.069-.264-.07-.267-.035-.264-.034-.265-.034-.27-.036-.272-.035-.271-.036-.261-.068-.257-.068-.259-.068-.264-.069-.265-.07-.264-.069-.272-.025-.267-.024-.269-.024-.275-.025-.275-.025-.275-.025-.266-.058-.261-.057-.264-.058-.268-.059-.27-.059-.269-.06-.272-.024-.267-.024-.269-.025-.275-.024-.275-.025-.276-.025-.266-.059-.263-.057-.264-.058-.27-.059-.271-.06-.27-.059-.279-.033-.275-.033-.277-.032-.282-.034-.284-.033-.283-.034.278-.033.274-.032.276-.033.282-.033.282-.034.282-.033.266-.059.261-.057.263-.058.269-.059.269-.059.269-.059.271-.025.268-.024.269-.024.274-.025.275-.025.276-.025.266-.058.262-.058.265-.058.269-.059.271-.059.27-.06.272-.024.267-.024.27-.025.275-.025.276-.025.276-.025.26-.068.256-.067.258-.068.264-.069.264-.07.264-.069.266-.035.262-.034.264-.034.269-.035.271-.036.27-.035.26-.068.256-.068.258-.067.264-.07.264-.069.264-.07.267-.034.264-.035.265-.034.27-.036.271-.035.272-.035.26-.069.257-.067.259-.068.264-.07.265-.069.265-.07.268-.021.264-.021.266-.021.271-.021.272-.021.273-.022.262-.055.259-.054.26-.054.266-.056.267-.056.267-.055.268-.022.264-.02.266-.021.271-.022.272-.021.273-.021.263-.055.26-.055.262-.054.266-.056.268-.056.268-.056.269-.021.264-.021.267-.021.272-.022.273-.021.273-.022.26-.068.256-.067.259-.068.263-.069.264-.07.264-.069.267-.035.262-.034.264-.035.27-.035.27-.035.27-.035.26-.068.257-.068.258-.068.264-.069.264-.069.264-.07.267-.035.264-.034.265-.035.27-.035.272-.035.271-.036.261-.068.257-.068.259-.068.264-.069.265-.07.265-.069.27-.022.266-.022.268-.022.274-.022.274-.023.274-.022.265-.056.26-.055.263-.056.268-.056.268-.057.269-.057.27-.022.266-.022.268-.022.274-.022.274-.022.274-.023.266-.056.262-.055.263-.056.269-.056.27-.057.27-.057.275-.025.272-.024.273-.024.279-.025.279-.025.28-.025.024-.275.024-.27.025-.272.024-.278.025-.279.025-.279.056-.264.055-.261.055-.262.057-.268.057-.268.056-.269.022-.27.022-.266.022-.268.022-.273.023-.274.022-.274.056-.265.055-.262.056-.263.057-.269.057-.27.056-.269.023-.271.021-.267.022-.268.023-.274.022-.275.023-.274.068-.26.068-.257.067-.258.07-.263.069-.264.069-.265.035-.266.034-.262.035-.264.035-.269.035-.271.035-.27.068-.26.068-.256.068-.258.069-.264.069-.264.07-.264.035-.267.034-.263.034-.265.036-.271.035-.271.036-.271.068-.261.068-.257.067-.259.07-.264.069-.265.07-.265.021-.268.021-.264.021-.266.021-.271.022-.272.021-.272.055-.263.054-.259.054-.26.056-.266.056-.267.056-.266.021-.268.02-.265.021-.266.022-.271.021-.272.022-.272.055-.264.054-.26.055-.261.055-.267.056-.268.056-.268.021-.268.021-.265.021-.267.022-.272.021-.273.022-.273.068-.26.068-.256.067-.258.07-.264.069-.264.069-.264.035-.266.034-.263.035-.264.035-.269.035-.271.035-.27.069-.26.067-.257.068-.258.069-.264.07-.264.069-.264.035-.267.034-.264.035-.265.035-.27.036-.272.035-.271.068-.261.068-.257.068-.259.069-.264.07-.265.069-.265.025-.271.024-.267.024-.269.025-.275.025-.275.025-.275.058-.266.058-.261.058-.264.059-.269.059-.269.059-.27.024-.271.025-.267.024-.269.025-.275.025-.275.025-.276.058-.266.058-.263.058-.264.059-.27.059-.271.059-.271.033-.278.033-.275.033-.277.033-.283.033-.283z" fill="#fff"/><path d="m46.459 94.851-6.531-38.884-38.882-6.529-.001-2.979 38.883-6.531 6.529-38.882 2.979-.002 6.531 38.884 38.882 6.529.001 2.979-38.883 6.531-6.529 38.882zm1.356-10.175.132.504 5.143-30.729 1.361-1.361 30.729-5.142-30.729-5.143-1.361-1.361-5.142-30.728-5.143 30.728-1.361 1.361-30.729 5.142 30.728 5.143 1.361 1.361z" fill="#231f20"/></svg></g><g transform="translate(807.0 220.0) rotate(0.0 40.5 40.5) scale(0.8446738620366026 0.8446738620366026)"><svg width="95.895" height="95.895" viewBox="0 0 95.895 95.895"><path d="m47.947 1.222.033.278.032.274.033.276.034.282.033.282.034.282.058.266.057.261.058.263.059.269.059.269.059.269.025.271.024.268.024.269.025.274.025.275.025.276.058.266.058.262.058.265.059.269.059.271.06.27.024.272.025.267.024.27.025.275.025.276.025.276.068.26.068.256.067.258.07.264.069.264.07.264.034.266.034.262.035.264.035.269.035.271.035.27.068.26.068.256.068.258.069.264.069.264.07.264.035.267.034.264.035.265.035.27.035.271.036.272.068.26.068.257.068.259.069.264.07.265.069.265.021.268.021.264.021.266.021.271.022.272.021.273.055.262.054.259.055.26.055.266.056.267.056.267.021.268.021.264.021.266.021.271.021.272.022.273.055.263.054.26.055.262.055.266.056.268.056.268.021.269.021.264.021.267.022.272.021.273.022.273.068.26.068.256.068.259.069.263.069.264.07.264.034.267.034.262.035.264.035.27.035.27.035.27.069.26.067.257.068.258.069.264.07.264.069.264.035.267.034.264.035.265.035.27.036.272.035.271.069.261.067.257.068.259.069.264.07.265.07.265.022.27.021.266.022.268.023.274.022.274.023.274.055.265.056.26.055.263.057.268.056.268.057.269.022.27.022.266.022.268.022.274.023.274.022.274.056.266.055.262.056.263.057.269.057.27.056.27.025.275.024.272.025.273.024.279.025.279.025.28.275.024.27.024.273.025.278.024.279.025.278.025.265.056.26.055.262.055.268.057.269.057.268.056.27.022.266.022.268.022.273.022.274.023.274.022.266.056.261.055.264.056.269.057.269.057.27.056.27.023.267.021.268.022.274.023.275.022.275.023.26.068.256.068.258.067.264.07.264.069.264.069.266.035.262.034.264.035.27.035.27.035.27.035.26.068.257.068.258.068.263.069.264.069.264.07.267.035.264.034.265.034.27.036.272.035.271.036.26.068.258.068.258.067.264.07.265.069.265.07.268.021.264.021.266.021.271.021.273.022.272.021.262.055.259.054.261.054.265.056.267.056.267.056.268.021.264.02.266.021.271.022.273.021.272.022.263.055.26.054.262.055.267.055.267.056.268.056.269.021.265.021.266.021.272.022.273.021.273.022.26.068.257.068.258.067.263.07.264.069.265.069.266.035.262.034.264.035.27.035.27.035.27.035.261.069.256.067.258.068.264.069.264.07.264.069.267.035.264.034.265.035.271.035.271.036.271.035.261.068.257.068.259.068.264.069.265.07.265.069.271.025.267.024.269.024.275.025.275.025.276.025.265.058.262.058.263.058.269.059.269.059.27.059.271.024.267.025.27.024.274.025.276.025.275.025.267.058.262.058.265.058.269.059.271.059.271.059.279.033.275.033.276.033.283.033.283.033.283.034-.278.033-.274.032-.276.033-.281.034-.283.033-.282.034-.265.058-.262.057-.263.058-.268.059-.27.059-.269.059-.271.025-.267.024-.269.024-.275.025-.275.025-.275.025-.267.058-.262.058-.264.058-.27.059-.27.059-.271.06-.271.024-.268.025-.27.024-.275.025-.276.025-.276.025-.26.068-.256.068-.258.067-.263.07-.264.069-.264.07-.266.034-.263.034-.264.035-.269.035-.27.035-.271.035-.26.068-.256.068-.258.068-.264.069-.264.069-.264.07-.267.035-.263.034-.265.035-.271.035-.271.035-.271.036-.261.068-.257.068-.259.068-.264.069-.265.07-.264.069-.268.021-.265.021-.266.021-.271.021-.272.022-.272.021-.263.055-.259.054-.26.055-.266.055-.267.056-.266.056-.268.021-.265.021-.265.021-.272.021-.272.021-.272.022-.264.055-.26.054-.261.055-.267.055-.268.056-.268.056-.268.021-.265.021-.267.021-.272.022-.273.021-.272.022-.261.068-.256.068-.258.068-.264.069-.264.069-.264.07-.266.034-.263.034-.264.035-.269.035-.271.035-.27.035-.26.069-.257.067-.258.068-.263.069-.265.07-.264.069-.267.035-.263.034-.266.035-.27.035-.271.036-.272.035-.261.069-.257.067-.259.068-.264.069-.265.07-.265.07-.27.022-.266.021-.268.022-.273.023-.274.022-.275.023-.264.055-.261.056-.262.055-.268.057-.269.056-.269.057-.27.022-.266.022-.268.022-.274.022-.274.023-.274.022-.266.056-.262.055-.263.056-.269.057-.27.057-.269.056-.276.025-.271.024-.273.025-.279.024-.28.025-.28.025-.024.275-.024.27-.024.273-.025.278-.025.279-.025.278-.056.265-.055.26-.055.262-.057.268-.056.269-.057.268-.022.27-.022.266-.022.268-.022.273-.022.274-.023.274-.056.266-.055.261-.056.264-.056.269-.057.269-.057.27-.022.27-.022.267-.022.268-.022.274-.023.275-.022.275-.069.26-.067.256-.068.258-.069.264-.07.264-.069.264-.035.266-.034.262-.034.264-.035.27-.036.27-.035.27-.068.26-.067.257-.068.258-.07.263-.069.264-.069.264-.035.267-.035.264-.034.265-.035.27-.036.272-.035.271-.069.26-.067.258-.068.258-.07.264-.069.265-.07.265-.021.268-.021.264-.02.266-.022.271-.021.273-.022.272-.055.262-.054.259-.054.261-.056.265-.056.267-.055.267-.021.268-.021.264-.021.266-.021.271-.022.273-.021.272-.055.263-.055.26-.054.262-.056.267-.056.267-.056.268-.021.269-.021.265-.021.266-.021.272-.022.273-.021.273-.069.26-.067.257-.068.258-.069.263-.07.264-.069.265-.035.266-.034.262-.034.264-.035.27-.036.27-.035.27-.068.261-.068.256-.068.258-.069.264-.069.264-.07.264-.035.267-.034.264-.034.265-.036.271-.035.271-.036.271-.068.261-.068.257-.068.259-.069.264-.07.265-.069.265-.025.271-.024.267-.024.269-.025.275-.025.275-.025.276-.058.265-.057.262-.058.263-.059.269-.059.269-.06.27-.024.271-.024.267-.025.27-.024.274-.025.276-.025.275-.059.267-.057.262-.058.265-.059.269-.06.271-.059.271-.033.279-.033.275-.032.276-.034.283-.033.283-.034.283-.033-.278-.032-.274-.033-.276-.033-.281-.034-.283-.033-.282-.059-.265-.057-.262-.058-.263-.059-.268-.059-.27-.059-.269-.025-.271-.024-.267-.024-.269-.025-.275-.025-.275-.025-.275-.058-.267-.058-.262-.058-.264-.059-.27-.059-.27-.06-.271-.024-.271-.024-.268-.025-.27-.025-.275-.025-.276-.025-.276-.068-.26-.067-.256-.068-.258-.069-.263-.07-.264-.069-.264-.035-.266-.034-.263-.034-.264-.035-.269-.036-.27-.035-.271-.068-.26-.068-.256-.067-.258-.07-.264-.069-.264-.07-.264-.034-.267-.035-.263-.034-.265-.036-.271-.035-.271-.035-.271-.069-.261-.067-.257-.068-.259-.07-.264-.069-.265-.07-.264-.021-.268-.021-.265-.021-.266-.021-.271-.021-.272-.022-.272-.055-.263-.054-.259-.054-.26-.056-.266-.056-.267-.055-.266-.022-.268-.02-.265-.021-.265-.022-.272-.021-.272-.021-.272-.055-.264-.055-.26-.054-.261-.056-.267-.056-.268-.056-.268-.021-.268-.021-.265-.021-.267-.022-.272-.021-.273-.022-.272-.068-.261-.067-.256-.068-.258-.069-.264-.07-.264-.069-.264-.035-.266-.034-.263-.035-.264-.035-.269-.035-.271-.035-.27-.068-.26-.068-.257-.068-.258-.069-.263-.069-.265-.07-.264-.035-.267-.034-.263-.035-.266-.035-.27-.035-.271-.036-.272-.068-.261-.068-.257-.068-.259-.069-.264-.07-.265-.069-.265-.022-.27-.022-.266-.022-.268-.022-.273-.023-.274-.022-.275-.056-.264-.055-.261-.056-.262-.056-.268-.057-.269-.057-.269-.022-.27-.022-.266-.022-.268-.022-.274-.022-.274-.023-.274-.056-.266-.055-.262-.056-.263-.056-.269-.057-.27-.057-.269-.025-.276-.024-.271-.024-.273-.025-.279-.025-.28-.025-.28-.275-.024-.27-.024-.272-.024-.278-.025-.279-.025-.279-.025-.264-.056-.261-.055-.262-.055-.268-.057-.268-.056-.269-.057-.27-.022-.266-.022-.268-.022-.273-.022-.274-.022-.274-.023-.265-.056-.262-.055-.263-.056-.269-.056-.27-.057-.269-.057-.271-.022-.267-.022-.268-.022-.274-.022-.275-.023-.274-.022-.26-.069-.257-.067-.258-.068-.263-.069-.264-.07-.265-.069-.266-.035-.262-.034-.264-.034-.269-.035-.271-.036-.27-.035-.26-.068-.256-.067-.258-.068-.264-.07-.264-.069-.264-.069-.267-.035-.263-.035-.265-.034-.271-.035-.271-.036-.271-.035-.261-.069-.257-.067-.259-.068-.264-.07-.265-.069-.265-.07-.268-.021-.264-.021-.266-.02-.271-.022-.272-.021-.272-.022-.263-.055-.259-.054-.26-.054-.266-.056-.267-.056-.266-.055-.268-.021-.265-.021-.266-.021-.271-.021-.272-.022-.272-.021-.264-.055-.26-.055-.261-.054-.267-.056-.268-.056-.268-.056-.268-.021-.265-.021-.267-.021-.272-.021-.273-.022-.273-.021-.26-.069-.256-.067-.258-.068-.264-.069-.264-.07-.264-.069-.266-.035-.263-.034-.264-.034-.269-.035-.271-.036-.27-.035-.26-.068-.257-.068-.258-.068-.263-.069-.265-.069-.264-.07-.267-.035-.264-.034-.265-.034-.27-.036-.272-.035-.271-.036-.261-.068-.257-.068-.259-.068-.264-.069-.265-.07-.264-.069-.272-.025-.267-.024-.269-.024-.275-.025-.275-.025-.275-.025-.266-.058-.261-.057-.264-.058-.268-.059-.27-.059-.269-.06-.272-.024-.267-.024-.269-.025-.275-.024-.275-.025-.276-.025-.266-.059-.263-.057-.264-.058-.27-.059-.271-.06-.27-.059-.279-.033-.275-.033-.277-.032-.282-.034-.284-.033-.283-.034.278-.033.274-.032.276-.033.282-.033.282-.034.282-.033.266-.059.261-.057.263-.058.269-.059.269-.059.269-.059.271-.025.268-.024.269-.024.274-.025.275-.025.276-.025.266-.058.262-.058.265-.058.269-.059.271-.059.27-.06.272-.024.267-.024.27-.025.275-.025.276-.025.276-.025.26-.068.256-.067.258-.068.264-.069.264-.07.264-.069.266-.035.262-.034.264-.034.269-.035.271-.036.27-.035.26-.068.256-.068.258-.067.264-.07.264-.069.264-.07.267-.034.264-.035.265-.034.27-.036.271-.035.272-.035.26-.069.257-.067.259-.068.264-.07.265-.069.265-.07.268-.021.264-.021.266-.021.271-.021.272-.021.273-.022.262-.055.259-.054.26-.054.266-.056.267-.056.267-.055.268-.022.264-.02.266-.021.271-.022.272-.021.273-.021.263-.055.26-.055.262-.054.266-.056.268-.056.268-.056.269-.021.264-.021.267-.021.272-.022.273-.021.273-.022.26-.068.256-.067.259-.068.263-.069.264-.07.264-.069.267-.035.262-.034.264-.035.27-.035.27-.035.27-.035.26-.068.257-.068.258-.068.264-.069.264-.069.264-.07.267-.035.264-.034.265-.035.27-.035.272-.035.271-.036.261-.068.257-.068.259-.068.264-.069.265-.07.265-.069.27-.022.266-.022.268-.022.274-.022.274-.023.274-.022.265-.056.26-.055.263-.056.268-.056.268-.057.269-.057.27-.022.266-.022.268-.022.274-.022.274-.022.274-.023.266-.056.262-.055.263-.056.269-.056.27-.057.27-.057.275-.025.272-.024.273-.024.279-.025.279-.025.28-.025.024-.275.024-.27.025-.272.024-.278.025-.279.025-.279.056-.264.055-.261.055-.262.057-.268.057-.268.056-.269.022-.27.022-.266.022-.268.022-.273.023-.274.022-.274.056-.265.055-.262.056-.263.057-.269.057-.27.056-.269.023-.271.021-.267.022-.268.023-.274.022-.275.023-.274.068-.26.068-.257.067-.258.07-.263.069-.264.069-.265.035-.266.034-.262.035-.264.035-.269.035-.271.035-.27.068-.26.068-.256.068-.258.069-.264.069-.264.07-.264.035-.267.034-.263.034-.265.036-.271.035-.271.036-.271.068-.261.068-.257.067-.259.07-.264.069-.265.07-.265.021-.268.021-.264.021-.266.021-.271.022-.272.021-.272.055-.263.054-.259.054-.26.056-.266.056-.267.056-.266.021-.268.02-.265.021-.266.022-.271.021-.272.022-.272.055-.264.054-.26.055-.261.055-.267.056-.268.056-.268.021-.268.021-.265.021-.267.022-.272.021-.273.022-.273.068-.26.068-.256.067-.258.07-.264.069-.264.069-.264.035-.266.034-.263.035-.264.035-.269.035-.271.035-.27.069-.26.067-.257.068-.258.069-.264.07-.264.069-.264.035-.267.034-.264.035-.265.035-.27.036-.272.035-.271.068-.261.068-.257.068-.259.069-.264.07-.265.069-.265.025-.271.024-.267.024-.269.025-.275.025-.275.025-.275.058-.266.058-.261.058-.264.059-.269.059-.269.059-.27.024-.271.025-.267.024-.269.025-.275.025-.275.025-.276.058-.266.058-.263.058-.264.059-.27.059-.271.059-.271.033-.278.033-.275.033-.277.033-.283.033-.283z" fill="#fff"/><path d="m46.459 94.851-6.531-38.884-38.882-6.529-.001-2.979 38.883-6.531 6.529-38.882 2.979-.002 6.531 38.884 38.882 6.529.001 2.979-38.883 6.531-6.529 38.882zm1.356-10.175.132.504 5.143-30.729 1.361-1.361 30.729-5.142-30.729-5.143-1.361-1.361-5.142-30.728-5.143 30.728-1.361 1.361-30.729 5.142 30.728 5.143 1.361 1.361z" fill="#231f20"/></svg></g><g transform="translate(188.0 510.0) rotate(0.0 20.0 39.5) translate(14.0 54.0) scale(1.0083440469888327 1.0160379663807184)"><svg width="25.785" height="24.605" viewBox="13.884 53.148 25.785 24.605"><path d="m23.945 13.388.025-3.65L21.805 6.8l-2.127-2.966-3.477-1.108-3.464-1.146-3.465 1.146-3.477 1.109L3.668 6.8 1.503 9.738l.025 3.65-.025 3.65 2.165 2.939 2.127 2.965 3.477 1.109 3.465 1.146 3.465-1.146 3.476-1.109 2.127-2.966 2.165-2.938z" fill="#fff"/><path d="m12.737 26.777-7.87-2.556L0 17.527l.029-4.149L0 9.25l4.866-6.693L12.737 0l7.871 2.556 4.866 6.693-.028 4.139.028 4.138-4.866 6.693zm-6.012-5.113 6.012 1.953 6.012-1.953 3.718-5.114-.021-3.172.021-3.152-3.718-5.114-6.012-1.952-6.012 1.953-3.718 5.114.022 3.151-.022 3.172z" fill="#231f20"/><path d="M38.172 71.381c-.354-6.497-9.52-6.495-9.873 0 .354 6.497 9.519 6.495 9.873 0z" fill="#fff"/><path d="M33.236 77.753c-3.027 0-6.21-2.16-6.435-6.29V71.3c.225-4.129 3.407-6.29 6.434-6.291 3.027 0 6.21 2.16 6.435 6.29v.163c-.225 4.13-3.407 6.291-6.434 6.291zm-3.435-6.372c.173 2.487 1.951 3.372 3.434 3.372 1.484 0 3.261-.885 3.434-3.372-.173-2.487-1.951-3.372-3.434-3.372-1.484 0-3.262.886-3.434 3.372z" fill="#231f20"/></svg></g><g transform="translate(886.0 247.0) rotate(0.0 23.0 45.0) translate(16.0 62.0) scale(1.1595956540371575 1.157511607269173)"><svg width="25.009" height="24.19" viewBox="13.798 53.563 25.009 24.19"><path d="m23.945 13.388.025-3.65L21.805 6.8l-2.127-2.966-3.477-1.108-3.464-1.146-3.465 1.146-3.477 1.109L3.668 6.8 1.503 9.738l.025 3.65-.025 3.65 2.165 2.939 2.127 2.965 3.477 1.109 3.465 1.146 3.465-1.146 3.476-1.109 2.127-2.966 2.165-2.938z" fill="#fff"/><path d="m12.737 26.777-7.87-2.556L0 17.527l.029-4.149L0 9.25l4.866-6.693L12.737 0l7.871 2.556 4.866 6.693-.028 4.139.028 4.138-4.866 6.693zm-6.012-5.113 6.012 1.953 6.012-1.953 3.718-5.114-.021-3.172.021-3.152-3.718-5.114-6.012-1.952-6.012 1.953-3.718 5.114.022 3.151-.022 3.172z" fill="#231f20"/><path d="M38.172 71.381c-.354-6.497-9.52-6.495-9.873 0 .354 6.497 9.519 6.495 9.873 0z" fill="#fff"/><path d="M33.236 77.753c-3.027 0-6.21-2.16-6.435-6.29V71.3c.225-4.129 3.407-6.29 6.434-6.291 3.027 0 6.21 2.16 6.435 6.29v.163c-.225 4.13-3.407 6.291-6.434 6.291zm-3.435-6.372c.173 2.487 1.951 3.372 3.434 3.372 1.484 0 3.261-.885 3.434-3.372-.173-2.487-1.951-3.372-3.434-3.372-1.484 0-3.262.886-3.434 3.372z" fill="#231f20"/></svg></g><g transform="translate(842.0 531.0) rotate(0.0 22.5 43.5) translate(0.0 0.0) scale(1.1343870528624367 1.118927887026867)"><svg width="30.854" height="33.961" viewBox="0 0 30.854 33.961"><path d="m23.945 13.388.025-3.65L21.805 6.8l-2.127-2.966-3.477-1.108-3.464-1.146-3.465 1.146-3.477 1.109L3.668 6.8 1.503 9.738l.025 3.65-.025 3.65 2.165 2.939 2.127 2.965 3.477 1.109 3.465 1.146 3.465-1.146 3.476-1.109 2.127-2.966 2.165-2.938z" fill="#fff"/><path d="m12.737 26.777-7.87-2.556L0 17.527l.029-4.149L0 9.25l4.866-6.693L12.737 0l7.871 2.556 4.866 6.693-.028 4.139.028 4.138-4.866 6.693zm-6.012-5.113 6.012 1.953 6.012-1.953 3.718-5.114-.021-3.172.021-3.152-3.718-5.114-6.012-1.952-6.012 1.953-3.718 5.114.022 3.151-.022 3.172z" fill="#231f20"/><path d="M38.172 71.381c-.354-6.497-9.52-6.495-9.873 0 .354 6.497 9.519 6.495 9.873 0z" fill="#fff"/><path d="M33.236 77.753c-3.027 0-6.21-2.16-6.435-6.29V71.3c.225-4.129 3.407-6.29 6.434-6.291 3.027 0 6.21 2.16 6.435 6.29v.163c-.225 4.13-3.407 6.291-6.434 6.291zm-3.435-6.372c.173 2.487 1.951 3.372 3.434 3.372 1.484 0 3.261-.885 3.434-3.372-.173-2.487-1.951-3.372-3.434-3.372-1.484 0-3.262.886-3.434 3.372z" fill="#231f20"/></svg></g></svg>