<svg xmlns="http://www.w3.org/2000/svg" viewBox="0 0 1920 1080" width="1920" height="1080"><g transform="translate(95.0 756.0) rotate(0.0 346.5 154.0) scale(1.0950029626703535 1.094873645182734)"><svg width="632.875" height="281.311" viewBox="0 0 632.875 281.311"><path d="m0 65.311 78 216h554.875L614 15.311H85z" fill="#a65f35"/><path d="m99 66.311-7.5 214.724-13.5.276-78-216z" fill="#bf7351"/><path d="m99 66.311 25-38 490-13L107.609 0 0 65.311z" fill="#2b2929"/><path d="m124 28.311-25 38-7.488 215h10.372z" fill="#9a552d"/><g fill="#403838"><path d="M97.267 117.074H18.331a1 1 0 0 1 0-2h78.5l21.435-23.438a1 1 0 0 1 .738-.325H563a1 1 0 0 1 0 2H119.44l-21.435 23.437a1 1 0 0 1-.738.326zM95 167.893H36.683a1 1 0 1 1 0-2h57.964l17.893-14.448a1 1 0 0 1 .628-.222H408a1 1 0 0 1 0 2H113.522l-17.894 14.448a1 1 0 0 1-.628.222zm531 46.418H319a1 1 0 0 1 0-2h307a1 1 0 0 1 0 2z"/></g><ellipse cx="188.5" cy="124.311" fill="#ba6a43" rx="10.5" ry="5"/><ellipse cx="275.5" cy="130.311" fill="#9b5837" rx="5" ry="10.5" transform="matrix(.4390926 -.89844181 .89844181 .4390926 37.453 320.612)"/><ellipse cx="242" cy="188.311" fill="#9a552d" rx="7" ry="5" transform="matrix(.78007016 -.62569205 .62569205 .78007016 -64.601 192.832)"/><circle cx="560" cy="154.311" fill="#ba6a43" r="10"/><ellipse cx="383.972" cy="40.715" fill="#ba6a43" rx="14.104" ry="8.812" transform="matrix(.9210835 -.3893651 .3893651 .9210835 14.448 152.715)"/><path d="M93.586 224.492H57.121a1 1 0 0 1 0-2h36.465a1 1 0 0 1 0 2zM92.1 265a1 1 0 0 1-.648-1.761l12.208-10.369a.991.991 0 0 1 .647-.239H214a1 1 0 0 1 0 2H104.67l-11.927 10.127a1 1 0 0 1-.643.242z" fill="#403838"/><ellipse cx="50" cy="132.811" fill="#ce805d" rx="3.5" ry="6" transform="matrix(.44663511 -.8947162 .8947162 .44663511 -91.16 118.23)"/><ellipse cx="295.5" cy="241.811" fill="#cc7e5e" rx="4.5" ry="6.5" transform="matrix(.37601403 -.92661397 .92661397 .37601403 -39.678 424.7)"/><ellipse cx="83.5" cy="204.311" fill="#cc7e5e" rx="5.5" ry="2"/></svg></g><g transform="translate(1235.0 133.0) rotate(0.0 300.5 369.0) scale(0.9375828770221993 0.9379444274281385)"><svg width="641.01" height="786.827" viewBox="0 0 641.01 786.827"><path d="M11.055 0a12.583 12.583 0 0 0-11 12 12.6 12.6 0 0 0 11 12.726c137 42.758 268.346 92.343 405.346 135.1l-.28.32a55.3 55.3 0 0 0-4.746 66.568c36.024 55.4 103.265 159.055 119.1 177.02a62.664 62.664 0 0 1 9.084 69.326C488.725 575.374 435.236 684.514 384.4 786.827h109L611.055 478l25.6-8a6.2 6.2 0 0 0 3.91-8.226l-5.962-14.9a6.716 6.716 0 0 0-5.7-4.2L608.055 441q-63.121-84.235-126-176-23.005-33.658-45-67l32.659-47.173a22.054 22.054 0 0 0 8.151-7.37l.113-.174a10.781 10.781 0 0 0-6.305-16.141z" fill="#403838"/><path d="M.055 12c-.23.659.165 5.1 3.024 8.421a12.637 12.637 0 0 0 7.976 4.305c137 42.758 268.346 92.343 405.346 135.1a55.3 55.3 0 0 0-5.026 66.886c36.024 55.4 103.265 159.055 119.1 177.02a62.664 62.664 0 0 1 9.084 69.326C488.725 575.374 435.236 684.514 384.4 786.827h59.22l124.829-344.081a43.533 43.533 0 0 0-5.892-40.683Q519.376 343.5 476.4 284.827q-19.55-26.692-39.065-53.42a70.4 70.4 0 0 1-12.328-54.486l8.227-7.252a16.5 16.5 0 0 0-4.468-27.593c-7.5-3.136-16.171-5.383-22.491-7.441C164.457 55.876 2.267 5.66.055 12z" fill="#312828"/><path d="m262.4 71.827-1.094-16.413A11.858 11.858 0 0 1 273.984 42.8 24.353 24.353 0 0 1 294.4 56.975l15 32.852z" fill="#403838"/></svg></g><g transform="translate(372.0 724.0) rotate(-34.4910601106338 -125.0 149.5) scale(-0.6402835687869444 0.6406767603611788)"><svg width="390.452" height="466.694" viewBox="0 0 390.452 466.694"><path d="M210.953 407.162q.859-.762 1.72-1.532c53.016-47.446 143.741-156.946 172.166-275.041 21.618-89.812-22.128-140.3-81.245-118.312-48.43 18.016-97.094 80.755-120.938 150.868-2.05 6.028-9.737 10.969-13.385 8.561-11.19-7.386-25.165-8.749-41.232-2.772C77.044 187.905 18.7 293.063 8.7 363.725c-3.117 22.015-1.5 40.432 2.9 55.775 19.42 67.576 115.666 61.809 199.353-12.338zm-2.586-224.4c-10.323-3.518-7.436-22.046 6.448-41.385s33.509-32.164 43.831-28.647 7.436 22.047-6.448 41.385-33.508 32.159-43.831 28.642z" fill="#d88830"/><path d="M203.871 400.012q.859-.762 1.721-1.532c53.015-47.446 143.74-156.946 172.166-275.041 21.617-89.812-22.129-140.3-81.246-118.312C248.082 23.143 199.419 85.882 175.574 156c-2.05 6.028-9.737 10.969-13.385 8.561-11.189-7.386-25.165-8.749-41.231-2.772C69.963 180.755 11.617 285.913 1.617 356.575c-3.115 22.015-1.5 40.432 2.9 55.773 19.421 67.578 115.667 61.811 199.354-12.336zm.955-220.83c-10.323-3.518-7.436-22.046 6.449-41.385s33.508-32.164 43.83-28.647 7.436 22.047-6.448 41.385-33.508 32.165-43.831 28.647z" fill="#f8a036"/><path d="M77.4 297.137c4.206-2.657 5.683-2.546 7.662-4.916 2.909-3.485 1.151-5.444 3.851-9.2 3.365-4.675 8.115-4.439 10-8.226 1.481-2.983-1.083-3.895.364-7.484 1.706-4.232 6.213-5.3 6.8-8.029.81-3.762-7.483-3-7.845-8.726-.187-2.956 1.939-4.467 1.249-6.59-1.114-3.427-7.947-3.465-13.589-.635-6.916 3.468-10.867 10.657-11.037 10.974-2.593 4.845-1.852 7.851-4.527 9.947-2.025 1.587-3.579.751-6.56 1.227-6.54 1.046-15.806 7.743-18.689 15.15a12.534 12.534 0 0 0 1.1 11.528c.628 1.081 4.222 6.841 10.456 5.378 2.956-.693 4.056-2.436 5.675-2.121 3.776.734.15 10.663 3.178 11.059 2.121.28 4.297-4.522 11.912-9.336z" fill="#ff5e43"/><path d="M46 424.167c5.873-.773 12.1-11.382 13.522-13.813 5.028-8.572 2.815-10.931 7.287-16.195 5.6-6.592 12.653-7.111 14.038-11.289.754-2.274-1.158-2.663-2.378-5.724-3.093-7.752 4.986-15.75 1.975-21.557-1.97-3.8-7.573-4.509-11.822-3.423-3.26.833-3.78 2.227-8.327 4.015-6.989 2.748-8.545.549-13.12 2.454-6.8 2.833-13.041 11.726-15.148 18.725-2.282 7.583.271 12.979 1.749 16.1 3.622 7.654 9.391 8.4 8.2 14.877-.625 3.395-2.453 4.508-2.55 7.893-.126 4.222 2.547 8.47 6.574 7.937z" fill="#5dace2"/><path d="M66.805 395.034a.874.874 0 0 1-.666-1.441 29.889 29.889 0 0 1 8.871-6.766c2.469-1.382 4.42-2.474 5-4.232.311-.937.042-1.3-.676-2.254a11.775 11.775 0 0 1-1.684-2.87c-1.719-4.312-.236-8.662 1.073-12.5 1.19-3.492 2.219-6.508.938-8.979-1.708-3.3-6.855-3.994-10.828-2.979a11.6 11.6 0 0 0-3.571 1.628 26.963 26.963 0 0 1-4.65 2.359 20.3 20.3 0 0 1-8.268 1.611 11.407 11.407 0 0 0-4.835.837.875.875 0 0 1-.673-1.615 13.009 13.009 0 0 1 5.487-.972 18.777 18.777 0 0 0 7.649-1.49 25.082 25.082 0 0 0 4.38-2.218 13.161 13.161 0 0 1 4.051-1.83c4.741-1.212 10.667-.273 12.815 3.868 1.625 3.135.429 6.639-.836 10.35s-2.584 7.576-1.1 11.286a10.13 10.13 0 0 0 1.461 2.47c.788 1.054 1.533 2.05.935 3.854-.8 2.4-3.119 3.7-5.809 5.209a28.011 28.011 0 0 0-8.392 6.37.875.875 0 0 1-.672.304z" fill="#403838"/><path d="M127.054 429.882c6.368-6.3 5.217-10.306 11.811-15.305 5-3.792 8.514-3.647 10.881-7.333 2.014-3.137.245-4.451 1.665-8.786 2.055-6.276 7.172-7.825 10.08-13.494 4.179-8.147.608-18.586-6.024-19.046-2.08-.145-2.905.8-12.651 5.545-9.223 4.49-13.933 6.761-18.761 8.033-7.921 2.088-7.964-.062-12.684 2.087-9.4 4.282-15.478 15.658-17.335 19.134-1.457 2.728-9.165 17.162-4.418 23.7 2.467 3.4 5.915 1.379 10.41 5.9 4.134 4.162 2.473 7.133 5.78 8.453 5.092 2.03 14.939-2.652 21.246-8.888z" fill="#f75c84"/><path d="M230.642 352.038c4.98-1.725 8.864-7.835 12.185-13.059 6.851-10.776 5.686-15.77 11.191-20.1 4.84-3.81 8.825-2.378 10.464-5.136 1.816-3.055-3.072-4.814-5.206-13.191-1.414-5.552.061-7.416-2.034-9.82-2.9-3.332-6.483-.606-10.986-3.242-6.07-3.552-3.591-10.86-8.436-11.134-2.173-.123-3.909 1.277-11.3 6.4-17.332 12.022-17.092 10.781-18.736 12.987-6.135 8.232.406 12.242-6.3 27.663-2.156 4.959-4.194 7.677-3.6 10.839.829 4.424 5.51 2.761 8.6 7.294 3.888 5.7-.076 13.379 3.646 14.149 2.333.482 3.988-2.514 9.163-3.833 6.007-1.529 7.043 1.675 11.349.183z" fill="#ffe3c3"/><path d="M315.189 226.454c3.514-2.1 2.176-7.256 7.382-18.926 4.4-9.87 7.543-11.071 8.588-17.5.815-5-.721-6.545 1.2-11.876 1.955-5.439 4.326-5.989 4.917-9.348 1.051-5.979-6.34-4.92-9.085-13.179-1.8-5.425.114-9.705-3.178-11.058-2.392-.983-4.133.976-7.445.333-5.387-1.046-4.42-6.937-7.622-6.623-2.386.235-5.107 3.718-14.608 18.2-11.508 17.54-12.145 19.487-12.492 21.406-.544 3 1.3 8.059 5.017 18.045 4.272 11.483 5.766 12.97 4.984 18.221-.683 4.589-2.467 7.773-.779 9.68 1.716 1.94 4.761.006 10.517.152 8.246.208 9.428 4.37 12.604 2.473zm-44.605-11.918c.853-.468.611-1.152 1.994-3.085 1.169-1.635 1.922-1.955 2.256-2.934.261-.763-.077-.914.446-1.776.534-.878 1.1-1.069 1.283-1.583.329-.914-1.417-.415-1.946-1.483-.347-.7.163-1.41-.59-1.452-.547-.03-.982.335-1.749.4-1.248.1-.939-.8-1.694-.6-.563.145-1.249.777-3.677 3.317-2.942 3.077-3.118 3.389-3.226 3.683-.169.46.193 1.106.924 2.378.841 1.462 1.171 1.608.914 2.4-.224.7-.686 1.241-.318 1.438s1.116-.222 2.463-.47c1.93-.357 2.149.19 2.92-.233z" fill="#ae84d3"/><path d="M320.5 107.771c-10.4 9.354-12.464 11.97-15.014 11.848-4.329-.207-1.47-7.889-7.135-12.437-5.373-4.313-12.912-1.392-12.966-4.851-.052-3.369 7.1-6.257 8.851-12.389 1.414-4.943-2.459-5.771-.991-11.467 1.251-4.857 5.24-8.814 6.038-9.6 4.711-4.672 7.952-4.17 18.368-8.965 11.159-5.137 11.576-7.618 16.512-8.155 5.666-.616 9.12 2.215 13.642 5.923 3.538 2.9 5.725 4.693 4.961 7.672-1 3.913-5.9 5.2-9.592 11.2-3.271 5.315-.9 6.683-3.382 12.286-2.221 4.995-5.123 6.19-19.292 18.935z" fill="#80862c"/><path d="M305.482 120.494h-.043c-2.788-.133-3.324-2.663-3.842-5.109-.536-2.526-1.142-5.388-3.8-7.52-2.547-2.045-5.68-2.338-8.2-2.574-2.6-.244-5.056-.474-5.1-2.945-.03-1.957 1.663-3.566 3.624-5.429 2.058-1.956 4.39-4.173 5.26-7.214a6.406 6.406 0 0 0-.442-4.774 9.44 9.44 0 0 1-.554-6.671 22.914 22.914 0 0 1 6.269-10.008c3.127-3.1 5.61-4.013 9.725-5.523 2.282-.838 5.123-1.88 8.894-3.616a.875.875 0 0 1 .731 1.59c-3.833 1.765-6.71 2.82-9.022 3.669-4.024 1.477-6.24 2.289-9.1 5.122a21.183 21.183 0 0 0-5.807 9.2 7.76 7.76 0 0 0 .487 5.59 8.034 8.034 0 0 1 .5 5.9c-1 3.5-3.627 6-5.738 8-1.662 1.58-3.1 2.945-3.079 4.133.013.779.844.981 3.508 1.23 2.606.244 6.174.579 9.131 2.953 3.142 2.522 3.847 5.848 4.414 8.521.562 2.653.9 3.661 2.214 3.724a.875.875 0 0 1-.041 1.749z" fill="#403838"/><path d="M139.336 364.434c4.5.6 6.071 3.452 7.11 2.614 1.081-.871-1.3-3.411.183-8.266.9-2.94 2.532-4.5 1.915-5.547-.293-.5-1.009-.731-5.378.106-4.334.831-8.525 1.634-9.025 2.933-.385 1 1.9 1.078 1.732 2.72-.226 2.247-4.744 4.459-4.6 5.6.127 1.041 3.911-.711 8.063-.16z" fill="#f75c84"/></svg></g><g transform="translate(912.0 1067.0) rotate(0.0 398.5 -553.5) translate(0.0 -0.0) scale(1.3246353928615948 -1.3248028951790098)"><svg width="601.675" height="149.908" viewBox="0 0 601.675 149.908"><path d="M515.25.529h86.425l-43.774 835.067H482.7z" fill="#403838"/><path d="M510.271.529 491.19 123.993l-424.268 1.122L71.834 0H0l6.312 835.6H486.7L519.25.529zm-85.72 795.6h-376l4.9-141.236h387.231zm18.376-174.908H53.453l3.368-207.644H463.13zm21.325-235.7H59.065l7.857-233.459H486.7z" fill="#494242"/></svg></g><g transform="translate(359.0 44.0) rotate(0.0 156.0 131.0) scale(1.1291133926600392 1.1336494859635156)"><svg width="276.323" height="231.112" viewBox="0 0 276.323 231.112"><circle cx="150.707" cy="45.678" fill="#211f1f" r="45.674"/><path d="M182.439 76.964c-36.739-17.015-80.639-.322-98.058 37.285s-1.754 81.887 34.985 98.9 77.292-.764 94.709-38.37c2.672-5.768 7.913-10.608 9.071-16.568 6.394-32.894-9.604-66.842-40.707-81.247z" fill="#2b2929" fill-rule="evenodd"/><path d="M276.323 151.356c-5.744-.665-13.531-2.524-20.095-8.163-11.211-9.631-9.706-22.429-19-27-4.174-2.053-11.135-2.747-23.23 3.908-1.787-3.768-7.984-13.14-9.77-16.908 26.159-13.142 40.664-6 45-2 7.267 6.7-.386 21.434 9 36 5.085 7.89 12.76 11.989 18.095 14.163z" fill="#2b2929"/><path d="M245.565 142.594c-6.011-1.036-9.188-3.432-10.969-5.386-3.327-3.649-3.191-7.3-6.922-10.019a13.452 13.452 0 0 0-8.4-2.26c-6.655-5.286-7.967-7.853-7.062-8.6.781-.642 22.467-9.3 24.645 12.474.3 3.005.818 7.369 8.708 13.791z" fill="#211f1f"/><g fill="#2b2929"><circle cx="79.415" cy="66.06" r="65.906"/><path d="M60.244 124.1C28.748 122.17 2.949 99.9.233 72.291c-2.306-23.432 12.341-48.571 32.65-56.036a40.008 40.008 0 0 1 12.831-2.406l.05 2a37.98 37.98 0 0 0-12.191 2.283C14.065 25.3 0 49.511 2.223 72.1c2.621 26.635 27.617 48.133 58.143 50z"/><path d="M183.439 76.964c-36.739-17.015-80.639-.322-98.058 37.285s-1.754 81.887 34.985 98.9 77.292-.764 94.709-38.37c2.672-5.768 7.913-10.608 9.071-16.568 6.394-32.894-9.604-66.842-40.707-81.247z" fill-rule="evenodd"/></g><path d="m201.682 105.587-30.938-14.329c-22.425-10.386-49.154-.346-59.7 22.424l-16.877 36.441a5.3 5.3 0 0 0-.482 2.209c-7.538 23.8 4.45 52.473 30.189 68.235 29.553 18.1 66.031 12.323 81.476-12.9a46.213 46.213 0 0 0 3.68-7.437l6.312-1.046a5.033 5.033 0 0 0 1.308-.662c2.279-1.6 2.537-3.75 1.874-6.838l-3.672-11.735a40.577 40.577 0 0 0 6.067-9.42l2.273-4.908c10.546-22.769.915-49.648-21.51-60.034z" fill="#d1a7db"/><path d="m201.682 105.586-30.938-14.328c-22.425-10.386-49.154-.346-59.7 22.424l-16.877 36.44a5.3 5.3 0 0 0-.482 2.21 57.45 57.45 0 0 0-1.457 24.861 49.481 49.481 0 0 0 3.412 10.7 145.835 145.835 0 0 1 32.2-18.007c30.4-12.16 49.889-7.634 80-23a134.781 134.781 0 0 0 18.349-11.3 46.676 46.676 0 0 0-14.841-23.9 43.443 43.443 0 0 0-9.666-6.1z" fill="#ae75bc"/><path d="M216.715 109.564c3.167 3.833 6.692 9.417 5.519 15.08-2.964 14.314-32.753 21.322-52.614 22.6-27.355 1.754-35.592-7.274-49.392-1.047-9.916 4.474-20.4 15.779-26 44L85.8 169.956a51.324 51.324 0 0 1-1.576-20.763 53.192 53.192 0 0 1 15.066-30.131c1.408-2.131 23.449-34.694 49.934-34.869 8.322-.055 24.121 3.041 39.02 9.42 1.152.494 2.1.922 2.75 1.219z" fill="#2b2929" fill-rule="evenodd"/><path d="M131.527 140.044a19.059 19.059 0 1 0-16.015 34.579q.471.218.946.409s24.818-9.67 24.854-9.751a19.282 19.282 0 0 0-9.785-25.237z" fill="#ae75bc" fill-rule="evenodd"/><path d="m206.142 206.322-13.537-4.346a11.261 11.261 0 0 0 7.374 12.812 18.49 18.49 0 0 0 6.163-8.466z" fill="#fff"/><path d="M198.913 154.7a3.957 3.957 0 0 0 3.321-4.419 5.63 5.63 0 0 0-2.006-4.083 3.913 3.913 0 0 0-.431-.244c-4.477-2.15-14.569 3.244-14.569 3.244-2.862 1.53-6.3 3.5-10.132 5.985a1.619 1.619 0 0 0 1.129 2.955z" fill="#2b2929"/><path d="m162.912 129.017-.931 19.3a2.749 2.749 0 0 0 3.389 2.805l8.95-2.15a2.578 2.578 0 0 0 1.548-3.93L164.9 128.47a1.087 1.087 0 0 0-1.988.547zm3.965 7.561 4.113 6.215a2.578 2.578 0 0 1-1.745 3.969l-1.141.182a2.749 2.749 0 0 1-3.179-2.847l.341-7.076a.879.879 0 0 1 1.611-.443z" fill="#ffadc7" fill-rule="evenodd"/><path d="m153.5 127.568-11.667 15.4a2.749 2.749 0 0 0 1.212 4.229l8.6 3.28a2.578 2.578 0 0 0 3.5-2.369l.309-19.867a1.086 1.086 0 0 0-1.954-.673zm-1 8.479-.116 7.452a2.578 2.578 0 0 1-3.682 2.29l-1.044-.495a2.749 2.749 0 0 1-1.015-4.145l4.277-5.647a.879.879 0 0 1 1.586.545z" fill="#7c7c29" fill-rule="evenodd"/><path d="M114.524 168.484a1 1 0 0 1-.811-.414c-4.087-5.657-4.931-11.178-2.508-16.408 2.437-5.262 7.1-7.943 13.87-7.969a1 1 0 0 1 0 2c-6.006.024-9.952 2.25-12.063 6.809-2.126 4.59-1.369 9.3 2.314 14.4a1 1 0 0 1-.81 1.586z" fill="#403838"/><path d="M190.228 174.193a13.98 13.98 0 0 1 6.891-12.046 22.645 22.645 0 0 0-5.787-2.2c-8.783-2.043-17.056 1.254-18.477 7.365s4.546 12.72 13.329 14.763a22.381 22.381 0 0 0 6.865.525 13.92 13.92 0 0 1-2.821-8.407z" fill="#fff" fill-rule="evenodd"/><path d="M197.119 162.147a13.955 13.955 0 0 0-4.07 20.448c5.876-.477 10.574-3.427 11.612-7.889 1.079-4.639-2.106-9.561-7.542-12.559z" fill="#2b2929" fill-rule="evenodd"/></svg></g><g transform="translate(160.0 313.0) rotate(0.0 572.0 377.0) scale(1.1053140096618357 1.1025213229670985)"><svg width="1035" height="683.887" viewBox="0 0 1035 683.887"><path d="m518.471 212.769 41.015-10.322 5.187 2.608a116.029 116.029 0 0 0 30.378 10.314l6.344 1.211a35.369 35.369 0 0 0 26.506-5.486l6.906-4.692 15.691.608a13.109 13.109 0 0 0 8.691-2.811 61.753 61.753 0 0 0 16.111-18.587c2.486-4.535 2.988-7.062 1.952-8.729-1.617-2.6-7.98-5.941-14.436-4 2.831-.376 20.894.185 22.918-8.763a7.777 7.777 0 0 0 .122-2.625c-1.6-9.649-35.927-12.5-45.368-13.164l-16.564-3.76a1.224 1.224 0 0 1 .093-2.405l4.941-.723c.773 1.085 7.214 9.847 16.855 9.378 3.988-.195 14.611-2.765 12.085-7.022-5.526-9.307-10.248-16.859-13.31-19.957-4.914-4.971-12.479-4.7-24.721-4.085-6.209.311-11.606.581-18.677 2.383a81.247 81.247 0 0 0-34.7 19.2l-40.771 11.726z" fill="#d1a7db"/><path d="M545.823 148.488c14.78 11.064 18.883 21.031 19.709 28.365.953 8.471-2.591 12.324 1.024 18.573 3.915 6.769 16.529 16.867 17.015 17.158 0 0 .02.012.018.018a67.2 67.2 0 0 1-9.674-2.829 97.19 97.19 0 0 1-14.5-7.062l-6.453 1.377z" fill="#ae75bc"/><path d="M653.618 147.664c-1.984 0-5.371-.819-11.36-3.356a4.395 4.395 0 0 1-2.653-3.6 4.215 4.215 0 0 1 1.809-3.952 11.429 11.429 0 0 1 5.991-2.022 5.6 5.6 0 0 1 4.583 2.068c4.158 5.11 5.475 8.134 4.272 9.8a2.911 2.911 0 0 1-2.642 1.062zm-5.955-11.186h-.175a9.793 9.793 0 0 0-2.649.494 9.682 9.682 0 0 0-2.43 1.22 2.487 2.487 0 0 0-1.063 2.334 2.611 2.611 0 0 0 1.6 2.167c10.195 4.319 11.7 3.161 11.9 2.884.16-.221.707-1.632-4.209-7.674a3.847 3.847 0 0 0-2.974-1.425z" fill="#403838"/><path d="M633.749 183.23a25.039 25.039 0 0 0 2.2-7.324c.2-1.482.459-4.374-3.787-18.433-1.48-4.9-2.229-6.926-4.274-7.934a7.157 7.157 0 0 0-6.043.184c-4.588 2.324-6.012 11.11-3.692 21.821-2.573.234-23.169 2.3-25.741 2.535a29.4 29.4 0 0 0 15.116 13.435c12.791 4.874 24.048-1.617 25.492-2.482q.362-.901.729-1.802z" fill="#d1a7db"/><path d="M632.149 183.066a8.022 8.022 0 0 1-4.21-1.124c-3.585-2.184-5.009-7.149-3.386-11.8a.875.875 0 0 1 1.653.576c-1.354 3.882-.242 7.976 2.643 9.734a7.236 7.236 0 0 0 5.574.554.875.875 0 1 1 .475 1.684 10.325 10.325 0 0 1-2.749.376z" fill="#403838"/><path d="M635.356 205.446a.892.892 0 0 1-.374-.084.876.876 0 0 1-.417-1.165 24.169 24.169 0 0 0 2.121-7.069c.171-1.255.528-3.866-3.758-18.061-1.421-4.705-2.119-6.563-3.823-7.4a6.315 6.315 0 0 0-5.262.179c-4.176 2.117-5.476 10.5-3.233 20.856a.874.874 0 0 1-.775 1.056l-7.717.7a.875.875 0 1 1-.159-1.742l6.74-.615c-2.155-10.861-.478-19.371 4.354-21.819a8.049 8.049 0 0 1 6.825-.189c2.439 1.2 3.254 3.6 4.725 8.467 4.4 14.559 4.019 17.321 3.816 18.8a25.946 25.946 0 0 1-2.271 7.58.876.876 0 0 1-.792.506z" fill="#403838"/><path d="M650.155 188.261a.891.891 0 0 1-.3-.053l-15.291-5.582a.875.875 0 0 1 .6-1.644l14.792 5.4 15.353-13.982a.875.875 0 0 1 1.179 1.293l-15.744 14.343a.876.876 0 0 1-.589.225zm8.245-15.652a.829.829 0 0 1-.184-.02l-13.62-2.91a.875.875 0 1 1 .365-1.711l13.621 2.91a.875.875 0 0 1-.182 1.731z" fill="#403838"/><path d="M623.02 143.735a21.729 21.729 0 0 1-4.252 4.554 23.045 23.045 0 0 1-12.708 4.847 48.079 48.079 0 0 0 18.064 3.419c6.3-.066 10.2-1.424 16.059-2.662a110.854 110.854 0 0 1 26.385-2.25l-13.08-2.483c-.2-.038-5.273 1.6-9.737 1.09-6.664-.763-9.285-3.4-9.64-3.492-3.317-.858-8.133-2.306-11.091-3.023z" fill="#ae75bc"/><path d="M671.075 191.616a.876.876 0 0 1-.765-.45 10.079 10.079 0 0 1-1.272-6.062c.686-5.881 6.578-8.43 6.828-8.536a.875.875 0 0 1 .68 1.613c-.052.021-5.2 2.247-5.77 7.126a8.35 8.35 0 0 0 1.062 5.008.875.875 0 0 1-.763 1.3z" fill="#403838"/><path d="m532 513-34 92 105 6 41-98z" fill="#b595a2" fill-rule="evenodd"/><path d="M743.146 633.943a31.4 31.4 0 0 1 3.417 13.344 20.421 20.421 0 0 1-10.451 19.042l-4.1 2.157a132.233 132.233 0 0 1-63.227 15.392l-159.663-1.873c-10.272-.121-18.329-9.76-17.6-21.059l4.517-70.323a27.538 27.538 0 0 1 18.772-24.36l30.868-10.291c-6.252-17.955-1.444-35.658 9.014-42.248 9.613-6.057 20.7-.646 21.972 0 11.863 6.028 19.032 21.865 17.466 39.762 36.013 42.437 68.117 55.892 91.552 59.955 20.73 3.595 47.717 2.098 57.463 20.502z" fill="#e5d2d8"/><path d="m744.829 637.833.589 1.5c3.91 9.956.356 21.621-8.286 26.807l-.183.109a77.5 77.5 0 0 1-13.746 6.475 42.308 42.308 0 0 0-5.973-10.824c-21.445-27.85-68.83-10.225-109.862-11.8-26.558-1.022-65.09-10.651-111.767-52.712 3.82 2.565 22.089 14.245 41.342 6.737a39.332 39.332 0 0 0 11.268-6.835 54.6 54.6 0 0 0-2.817-16.153 50.983 50.983 0 0 0-13.137-20.689c4.379-1.387 8.476-3.086 12.855-4.473l30.142 30.753 30.426-20.451 6.846 6.815c-3.3 2.348-10.987 8.553-13.609 19.228-4.252 17.3 7.614 34.889 19.155 42.248 13.525 8.623 27.35 3.678 44.508.621 19.025-3.389 46.62-5.257 82.249 2.644z" fill="#4097ff"/><path d="M563.423 592.938c9.134.577 25.352 19.26 17.465 35.414a34.514 34.514 0 0 1-12.7 14.253 144.807 144.807 0 0 1-47.867-22.641 154.9 154.9 0 0 1-24.741-22.283 6.35 6.35 0 0 1 .033-.513 51.564 51.564 0 0 0 25.271 8.507c6.645.368 16.458-1.779 16.518-1.737 13.568 9.571 25.395 11.189 28.836 6.4 3.407-4.746-1.748-15.285-2.815-17.4z" fill="#ffe3c3"/><path d="m694.841 614.737-2.1 1.242a57.682 57.682 0 0 1-41.775 6.9 179.891 179.891 0 0 1-75.713-36.154 190.811 190.811 0 0 1-29.86-30.443c-8.665-14.317-5.7-32.841 5.071-41.626 11.352-9.263 26.987-4.116 35.614 5 12.4 13.107 8.541 32.536 8.33 33.519a191.084 191.084 0 0 0 28.17 27.337 179.422 179.422 0 0 0 72.263 34.225z" fill="#3fb4e9"/><path d="M662.726 604.385a117.8 117.8 0 0 0-43.527 10.3A120.238 120.238 0 0 0 605.461 622a38.057 38.057 0 0 1-8.235-12.9 40.826 40.826 0 0 1-2.623-12.057 17.259 17.259 0 0 1 5.611-13.851l12.274-11.2a29.124 29.124 0 0 1 9.633 6.977 146.177 146.177 0 0 1 20.502 14.911q1.539.585 3.107 1.243a96.251 96.251 0 0 1 16.996 9.262z" fill="#c7d94f"/><path d="M579.075 682.826A109.492 109.492 0 0 0 543.7 646.99a96.84 96.84 0 0 0-50.353-14.57l-2.294 30.335c-.777 10.278 6.523 19.12 15.874 19.229z" fill="#ffadc7"/><ellipse cx="592.25" cy="575.869" fill="#403838" rx="4.488" ry="4.535" transform="matrix(.99307871 -.11745074 .11745074 .99307871 -63.533 73.54)"/><ellipse cx="626.562" cy="603.221" fill="#403838" rx="4.488" ry="4.535" transform="matrix(.99307871 -.11745074 .11745074 .99307871 -66.508 77.759)"/><path d="M626.469 602.947a1 1 0 0 1-.822-1.569 19.063 19.063 0 0 1 17.687-8.129 1 1 0 0 1-.208 1.989 17.061 17.061 0 0 0-15.833 7.277 1 1 0 0 1-.824.432zm-33.519-27.003a1 1 0 0 1-.806-1.591 22.7 22.7 0 0 1 14.269-8.94 1 1 0 1 1 .36 1.967 20.707 20.707 0 0 0-13.015 8.154 1 1 0 0 1-.808.41zM571 562a1 1 0 0 1-.855-1.516 19.248 19.248 0 0 1 10.864-8.9c7.979-2.291 13.656.926 18.6 4.742a1 1 0 0 1-1.222 1.584c-4.529-3.5-9.7-6.452-16.828-4.4a17.272 17.272 0 0 0-9.7 8.012A1 1 0 0 1 571 562z" fill="#403838"/><path d="m576.925 557.161-3.062-2.461a11.1 11.1 0 0 0-15.561 1.691l-5.339 6.641a7.626 7.626 0 0 0 1.163 10.692l8.458 6.8a7.628 7.628 0 0 0 10.693-1.162l5.339-6.641a11.1 11.1 0 0 0-1.691-15.56zm-5.591 11.85a6.256 6.256 0 1 1-4.078-7.851 6.255 6.255 0 0 1 4.078 7.851z" fill="#4097ff"/><path d="m822 626-62-69 97-34 36.145 50.799z" fill="#c9a6b4"/><path d="M355.417 399.065 560 398l106.612 132.381C667.935 534.15 681.406 570.533 720 582c28.895 8.585 60.669-.123 82.2-22.411l15.219-7.117a69.712 69.712 0 0 0 24.242-27.581c2.32-4.795 10.617-22.6 5.338-43.891-7.843-31.633-38.925-43.85-42-45L693.314 233.478 404 257z" fill="#5dace2"/><path d="m580.804 337.324-63.558 60.899 42.558.101 18.959 22.974zM754 582c.429-11.164 30.8-36.038 44.331-56.773 7.5-11.5 10.42-20.887 20.669-24.227 6.321-2.06 10.263-.135 15-3 7.962-4.814 9.137-17.693 8.662-28.8 4.438 5.552 19.113 25.3 14.338 47.8-4.047 19.068-19.869 29.754-38 42-17.746 11.986-36.1 17.886-46 21-7.686 2.417-19.013 4.639-19.018 4.428A39.18 39.18 0 0 1 754 582zm-31.495-278c9.9 3.41 14.3 8.371 16.5 12 11.536 19.088-12.254 43.985-19 89a161.206 161.206 0 0 0-.705 42c-7.937 4.132-25.785 22.065-36.916 51-3.084 8.018-8.41 21.833-5.617 39A63.784 63.784 0 0 0 685 560a79.292 79.292 0 0 1-9-11c-6.135-9.131-8.663-18.365-10.473-25l-38.5-59.7z" fill="#3591ba"/><path d="m323.077 31.908 141.508 147.075a204.969 204.969 0 0 1 46.906-49.833 24.954 24.954 0 0 1 34.445 4.316C572.148 165.9 584.028 204.066 573 233c-18.436 48.369-104.641 80.768-191.079 34.908z" fill="#4ca2bb"/><path d="M409 259c16.5-21.25 33.132-31.542 45-37 25-11.5 41.895-7.528 77-19a229.725 229.725 0 0 0 42.346-18.762L589 224z" fill="#477ca2"/><path d="M361 72c2.674 12.5 24.924 65.408 27.6 77.908L396 251c7.667-3 29.91-7.592 37.577-10.592a44.57 44.57 0 0 0 10.816-18.588C451.537 196.308 433.3 164.073 399 141a162.8 162.8 0 0 0-8-23 165.58 165.58 0 0 0-30-46z" fill="#477ca2" fill-rule="evenodd"/><path d="m192.26 312.771 37.129 52.509c18.133 25.645 43.925 45.422 75.256 47.629l86.383 2.254a366.343 366.343 0 0 0 64.931-2.7C473.4 410.174 503.346 406.025 539 391c14.492-6.107 27.783-16.964 35.8-21.676-15.688 18.03-33.108 40.645-48.8 58.676-27.059 12.9-44.68 36.93-45.283 62.514-.588 24.929 16.214 42.817 26.451 53.716C541.5 580.787 589 587.426 608 589c3.815-.132 42.5-2.142 65-36 20.44-30.757 11.348-63.454 10-68a650.424 650.424 0 0 0 26.077-67.092c1.79-5.5 4.354-13.619 9.091-29.965C724.531 365.988 730.455 343.9 737 322c4.838-16.192 12.449-41.4 4.044-69.888A180.431 180.431 0 0 0 733 233c-33.307-66.221-212.07-16.008-318.7 9.045L314 264z" fill="#5dace2" fill-rule="evenodd"/><path d="M382 255c-33.657 19.39-55.4 39.917-69 55-19.19 21.287-32.317 43.009-54 44a38.336 38.336 0 0 1-18.573-4.157 27.294 27.294 0 0 0-22.2-.669l-.129.052L192 313l125.673-49.8 71.38-15.625z" fill="#3591ba" fill-rule="evenodd"/><path d="M106.577 281.56C146.225 105.705 221.519-4.333 283.577.131c57.727 4.152 95.511 106.775 107 141.188 24.243 19.488 34.5 49.877 26 76.754-10.483 33.162-47.812 55.613-88 50.221a114.589 114.589 0 0 1-47 40.746c-33.051 15.6-63.888 11.3-74 9.476z" fill="#4ca2bb"/><path d="M169 384c-8.954 49.926-31.51 61.119-41.278 65.423-32.693 14.406-61.725 2.033-66.742 0-22.79 28.406-26.045 33.654-36.224 32.777-11.421-.976-1.462-11.4 4.679-27.494-1.168.126-26.261 3.521-28.895-2.754-3.221-7.684 8.85-10.814 12.761-13.66-7-1.309-10.821.307-11-5.508C2.086 426 30.9 413.505 84.79 397.35c3.593-1.077 8.44-14.3 12.21-15.35z" fill="#d1a7db"/><path d="M28.709 459.31a.985.985 0 0 1-.43-.1 1 1 0 0 1-.473-1.332c.859-1.8 1.571-3.4 2.26-4.941 2.332-5.221 4.017-8.992 8.2-13.576a44.186 44.186 0 0 1 22.127-12.989 1 1 0 1 1 .462 1.946 42.191 42.191 0 0 0-21.119 12.4c-3.958 4.339-5.587 7.987-7.842 13.036a217.402 217.402 0 0 1-2.281 4.986 1 1 0 0 1-.904.57zm-13.494-20.716a1 1 0 0 1-.568-1.823 122.46 122.46 0 0 1 40.045-18.113 1 1 0 0 1 .482 1.941 120.456 120.456 0 0 0-39.393 17.818 1 1 0 0 1-.566.177zM28.98 478.5a4.364 4.364 0 0 1-3.142-1.166 7.128 7.128 0 0 1-1.652-5.379 8.6 8.6 0 0 1 2.594-6.25c1.708-1.422 4.223-1.526 6.728-.275 2.351 1.175 4.668 3.624 4.546 6.033-.135 2.672-3.233 5.3-6.079 6.414a8.291 8.291 0 0 1-2.995.623zm1.091-11.949a3.059 3.059 0 0 0-2.011.692 6.812 6.812 0 0 0-1.875 4.791 5.38 5.38 0 0 0 1.05 3.869c1.11 1.084 3.174.44 4.01.112 2.487-.975 4.736-3.148 4.812-4.653.066-1.3-1.478-3.161-3.443-4.143a5.989 5.989 0 0 0-2.543-.672zm-19.63-15.961a7.808 7.808 0 0 1-2.882-.5 2.816 2.816 0 0 1-2.037-2.606c-.022-2.438 3.638-5.971 6.527-6.3a3.692 3.692 0 0 1 3.843 2.225 5.115 5.115 0 0 1-.661 5.622 7.038 7.038 0 0 1-4.79 1.559zm2.069-7.432a2.128 2.128 0 0 0-.235.014c-2.105.241-4.764 3.088-4.753 4.3 0 .3.271.558.8.773 1.614.665 4.543.331 5.5-.625a3.189 3.189 0 0 0 .269-3.338 1.707 1.707 0 0 0-1.581-1.124zM9.116 434.1a7.28 7.28 0 0 1-2.548-.431 2.868 2.868 0 0 1-2.108-2.515c-.085-2.226 3.057-5.341 5.6-5.556a3.484 3.484 0 0 1 3.474 2.16 4.678 4.678 0 0 1-.488 5.035 5.616 5.616 0 0 1-3.93 1.307zm1.244-6.515h-.127c-1.673.142-3.813 2.5-3.775 3.486.015.374.584.633.828.727 1.39.534 3.617.327 4.331-.4a2.8 2.8 0 0 0 .113-2.786 1.559 1.559 0 0 0-1.37-1.024z" fill="#403838"/><path d="M94 394a61.281 61.281 0 0 0 25 18c19.512 7.487 36.816 2.37 42.014.613A63.374 63.374 0 0 0 165 404a64.181 64.181 0 0 0 4-20l-74-3-8.259 14.838z" fill="#ba87c6"/><path d="m131.1 426.228 5.677 18.1q-24.526 13.757-31.646 18.1c-27.582 16.811-36.518 24-36.518 13.788 0-5.293 2.035-11.984 5.677-18.014 5.256-8.7 13.918-16.827 25.155-24.213q8.626-5.671 31.655-7.761z" fill="#d1a7db" fill-rule="evenodd"/><path d="M74.148 478.805a4.125 4.125 0 0 1-2.789-.945 5.466 5.466 0 0 1-1.522-4.375 6.789 6.789 0 0 1 2.353-5.138c1.673-1.254 4.1-1.236 6.5.046 1.69.906 3.625 2.676 3.512 4.682-.117 2.093-2.59 4.062-4.838 5a8.413 8.413 0 0 1-3.216.73zm.959-9.381a2.8 2.8 0 0 0-1.717.523 4.849 4.849 0 0 0-1.554 3.614 3.652 3.652 0 0 0 .841 2.8c.724.635 2.223.591 3.911-.12 2.1-.882 3.566-2.4 3.615-3.272.04-.712-.869-1.956-2.46-2.807a5.8 5.8 0 0 0-2.636-.738zm3.133-14.848a1 1 0 0 1-.817-1.576c6.356-9.009 11.893-15.422 16.459-19.06a42.836 42.836 0 0 1 17.481-7.907 1 1 0 1 1 .438 1.952 40.857 40.857 0 0 0-16.673 7.515c-4.418 3.521-9.824 9.795-16.07 18.649a1 1 0 0 1-.818.427z" fill="#403838"/><path d="M271.223 175.143a166.447 166.447 0 0 1-19.146 67.765 165.389 165.389 0 0 1-32 42c-5.97 19.824-4.009 44.75-12.077 67.092a250.615 250.615 0 0 0-4.614 14.051 58.706 58.706 0 0 1-81.749 36.126l-.56-.269q-3.524-1.695-6.993-3.087c-1.793-.722-3.173-1.283-4.784-1.857-4.189-1.492-7.415-2.3-7.727-2.382C97.669 393.556 45.814 372.2 45 330c-.473-24.515 16.425-48.391 42-61 13.345-49.679 38.05-115.259 86-181a533.742 533.742 0 0 1 49-58" fill="#4ca2bb"/><path d="M274.371 212.146A89.739 89.739 0 0 1 238 290a36.67 36.67 0 0 1-4 20c-5.942 11.318-16.124 9.844-19 11 1.634-13.977 3.366-22.023 5-36a95.512 95.512 0 0 0 54.371-72.854z" fill="#477ca2"/><path d="M191 287a74.111 74.111 0 0 0 29-2l-2.228 16.219A23.871 23.871 0 0 1 208 301c-10.823-2.565-16.032-12.138-17-14z" fill="#477ca2" fill-rule="evenodd"/><path d="M215 321a1.027 1.027 0 0 1-.232-.027 1 1 0 0 1-.742-1.2c4.279-18.021 4.807-23 5.05-34.882a1 1 0 0 1 .584-.889 92.21 92.21 0 0 0 40.487-35.52c19.043-31.069 12.551-63.792 10.108-73.081a1 1 0 0 1 1.934-.508c2.5 9.482 9.12 42.89-10.337 74.634a94.135 94.135 0 0 1-40.79 36.031c-.275 12.4-1.08 17.787-5.09 34.678A1 1 0 0 1 215 321z" fill="#403838"/><path d="M198.5 288.365a99.97 99.97 0 0 1-8.589-.369 1 1 0 0 1 .172-1.992 97.86 97.86 0 0 0 29.7-1.98 1 1 0 0 1 .434 1.953A100.425 100.425 0 0 1 207.086 288c-2.847.242-5.714.365-8.586.365z" fill="#403838"/><path d="M1023.844 537.336a30.572 30.572 0 0 1 8.4 10.315c3.65 6.971 3.178 15.4-.988 21.323l-2.582 3.671a125.959 125.959 0 0 1-47.2 40.828l-136.014 67.11c-8.751 4.317-19.556-.727-23.608-11.022l-25.217-64.066a27.909 27.909 0 0 1 5.842-29.605l21.9-22.384c-12.71-13.168-15.949-30.878-9.812-41.2 5.642-9.491 17.27-9.487 18.612-9.463 12.538.216 25.151 11.118 31.216 27.6 48.031 21.976 80.782 20.035 102.31 13.532 19.043-5.754 41.283-18.698 57.141-6.639z" fill="#e5d2d8"/><path d="m1026.876 540.047 1.119 1.073c7.424 7.11 9.23 18.945 4.052 27.248l-.11.176a75.656 75.656 0 0 1-8.969 11.64 39.975 39.975 0 0 0-9.53-6.989c-29.668-15.366-62.527 20.611-97.936 36.888-22.917 10.536-59.533 18.625-116.442 1.572 4.294.621 24.594 3.07 37.8-11.854a38.875 38.875 0 0 0 6.722-10.89 53.652 53.652 0 0 0-9.057-13.056 47.673 47.673 0 0 0-19.671-12.618c3.136-3.112 5.9-6.377 9.041-9.489l38.233 14.186 17.326-31.171 8.614 3.072c-1.828 3.5-5.774 12.288-3.587 22.847 3.545 17.116 20.858 27.54 33.673 29.07 15.018 1.793 24.687-8.53 37.958-18.62 14.716-11.188 37.317-24.718 70.764-33.085z" fill="#4097ff"/><path d="M854.673 578.518c7.975-3.425 29.429 6.094 29.419 23.761a34.965 34.965 0 0 1-4.87 18.06 130.963 130.963 0 0 1-49.9.615 141.476 141.476 0 0 1-30.2-9.044c-.153-.13-.262-.433-.164-.455a46.735 46.735 0 0 0 24.935-3.367c5.781-2.536 13.206-8.659 13.274-8.648 15.446 2.611 26.132-1.053 27.067-6.768.935-5.657-7.784-12.746-9.561-14.154z" fill="#4097ff"/><path d="m975 541.173-1.266 2a54.474 54.474 0 0 1-32.535 24.087 162.762 162.762 0 0 1-79.065.672 175.078 175.078 0 0 1-37.871-14.032c-13.253-8.916-18.388-26.558-12.9-38.955 5.791-13.072 21.16-15.259 32.233-10.921 15.918 6.237 20.672 25.062 20.9 26.022a174.9 174.9 0 0 0 35.151 12.016 162.307 162.307 0 0 0 75.353-.889z" fill="#3fb4e9"/><path d="M943.516 545.861a112.031 112.031 0 0 0-32.616 27.844 118.167 118.167 0 0 0-8.617 12.377 35.585 35.585 0 0 1-12.3-7.854 39.946 39.946 0 0 1-7.2-9.52 17.611 17.611 0 0 1-.967-14.653l5.77-15.181a26.443 26.443 0 0 1 11.042 2.014 132.61 132.61 0 0 1 23.525 4.342q1.545-.147 3.144-.24a86.988 86.988 0 0 1 18.219.871z" fill="#c7d94f"/><path d="M905.053 651.18a100.587 100.587 0 0 0-44.761-16.422 88.053 88.053 0 0 0-48.669 8.815l10.585 27.786c3.586 9.413 13.421 14.081 21.387 10.15z" fill="#ffadc7"/><g fill="#403838"><ellipse cx="872.042" cy="551.024" rx="4.24" ry="4.445" transform="matrix(.99485068 -.10135148 .10135148 .99485068 -51.354 91.215)"/><ellipse cx="890.791" cy="556.623" rx="4.24" ry="4.445" transform="matrix(.99485068 -.10135148 .10135148 .99485068 -51.825 93.144)"/><ellipse cx="912.402" cy="560.408" rx="4.24" ry="4.445" transform="matrix(.99485068 -.10135148 .10135148 .99485068 -52.097 95.353)"/><path d="M911.8 560.322a.906.906 0 0 1-.146-.011 1 1 0 0 1-.844-1.134 19.183 19.183 0 0 1 3.956-9.177 18.064 18.064 0 0 1 7.692-5.633 1 1 0 1 1 .71 1.869 16.08 16.08 0 0 0-6.839 5.012 17.185 17.185 0 0 0-3.542 8.22 1 1 0 0 1-.987.854zm-21.178-3.498h-.014a1 1 0 0 1-.986-1.013 19.559 19.559 0 0 1 1.449-7.179 19.079 19.079 0 0 1 6.99-8.572 1 1 0 1 1 1.12 1.656 17.091 17.091 0 0 0-6.259 7.674 17.526 17.526 0 0 0-1.3 6.448 1 1 0 0 1-1 .986zm-18.368-5.919a.985.985 0 0 1-.17-.015 1 1 0 0 1-.816-1.155 22.87 22.87 0 0 1 2.635-7.4 21.979 21.979 0 0 1 5.767-6.644 1 1 0 1 1 1.218 1.586 19.977 19.977 0 0 0-5.244 6.045 20.847 20.847 0 0 0-2.4 6.757 1 1 0 0 1-.99.826zm-24.354-2.866a.838.838 0 0 1-.086 0 1 1 0 0 1-.911-1.081 19.268 19.268 0 0 1 5.531-12.542c5.839-5.484 12-5.087 17.789-3.839a1 1 0 1 1-.421 1.955c-6.073-1.309-11.119-1.24-16 3.341a17.294 17.294 0 0 0-4.907 11.255 1 1 0 0 1-.995.911z"/></g><path d="m851.334 541.1-3.61-.856a10.458 10.458 0 0 0-12.482 8.2l-1.78 8.166a7.51 7.51 0 0 0 5.4 8.945l9.974 2.364a7.188 7.188 0 0 0 8.578-5.632l1.779-8.166a10.927 10.927 0 0 0-7.859-13.021zm.159 12.876a6.114 6.114 0 0 1-4.967 6.983 5.936 5.936 0 0 1-6.7-5.179 6.114 6.114 0 0 1 4.966-6.983 5.937 5.937 0 0 1 6.701 5.177z" fill="#4097ff"/><path d="M845.633 563.022a7.693 7.693 0 0 1-4.594-1.532 8.236 8.236 0 0 1 3.437-14.676 7.66 7.66 0 0 1 5.777 1.44 8.124 8.124 0 0 1 3.2 5.434 8.128 8.128 0 0 1-6.641 9.241 7.771 7.771 0 0 1-1.179.093zm.017-12.3a3.692 3.692 0 0 0-.563.044 4.115 4.115 0 0 0-3.292 4.724 4.161 4.161 0 0 0 1.627 2.786 3.694 3.694 0 0 0 2.784.7 4.117 4.117 0 0 0 3.292-4.726 4.159 4.159 0 0 0-1.627-2.784 3.725 3.725 0 0 0-2.221-.743z" fill="#f97381"/><path d="M844.456 566.088a1 1 0 0 1-.957-.713 16.446 16.446 0 0 1 .481-10.294 1 1 0 0 1 1.878.69 14.434 14.434 0 0 0-.443 9.03 1 1 0 0 1-.672 1.245 1.017 1.017 0 0 1-.287.042z" fill="#403838"/><ellipse cx="845.328" cy="567.887" fill="#403838" rx="4.24" ry="4.445" transform="matrix(.99485068 -.10135148 .10135148 .99485068 -53.2 88.594)"/><path d="M650.453 489.876H650a77.4 77.4 0 0 1-15.326-1.658.875.875 0 0 1 .359-1.713 75.621 75.621 0 0 0 14.977 1.621c13.523.042 30.832-3.555 32.762-3.969l.1-.021a.875.875 0 0 1 .3 1.723c-1.983.425-19.092 4.017-32.719 4.017zm-128.521-92.41a.875.875 0 0 1-.255-1.712 164.6 164.6 0 0 0 44.83-21.476 163.725 163.725 0 0 0 8.49-6.209.875.875 0 1 1 1.078 1.379 166.212 166.212 0 0 1-8.581 6.275 166.346 166.346 0 0 1-45.306 21.7.873.873 0 0 1-.256.043z" fill="#403838"/><path d="M742.143 302.655A101.169 101.169 0 0 1 702 320a93.244 93.244 0 0 1-35 0 269.364 269.364 0 0 0 15 15q3.461 3.2 6.859 6.125a32.188 32.188 0 0 0 26.5 7.4l.145-.025 4.346-.75a16.483 16.483 0 0 0 13.038-11.673l.021-.072c2.265-7.846 2.171-7.853 2.9-10a186.05 186.05 0 0 0 4.19-14.01q1.24-4.82 2.144-9.34z" fill="#3591ba"/><path d="M78.241 273.974A170.952 170.952 0 0 1 101 268c15.9-3.021 31-2.454 31-3s-15.678 2.409-27-6c-5.689-4.225-8.76-10.194-10.527-15.461q-1.367 4.2-2.689 8.563-2.238 7.382-4.123 14.473z" fill="#477ca2"/><path d="M329 268a62.1 62.1 0 0 1 3-8 61.836 61.836 0 0 1 2-4 71.756 71.756 0 0 0 34 2 72.975 72.975 0 0 0 39.621-21.971C405.8 240.485 398.248 257.521 379 267c-23.9 11.769-46.635 2.446-50 1z" fill="#477ca2" fill-rule="evenodd"/><path d="M773 444.875a.874.874 0 0 1-.4-1.653 72.9 72.9 0 0 1 32.387-8.1H805a.875.875 0 0 1 .011 1.75 71.137 71.137 0 0 0-31.613 7.9.874.874 0 0 1-.398.103zM450 205a1.012 1.012 0 0 1-.323-.053 1 1 0 0 1-.623-1.27 70.548 70.548 0 0 1 15.216-25.359 1 1 0 0 1 1.461 1.365 68.557 68.557 0 0 0-14.785 24.641A1 1 0 0 1 450 205z" fill="#403838"/></svg></g><g transform="translate(837.0 323.0) rotate(104.99785148396046 15.5 160.0) scale(3.5235280745624005 3.4395657548234535)"><svg width="8.798" height="93.035" viewBox="0 0 8.798 93.035"><path d="M0 10.475a4.4 4.4 0 0 0 8.8.044C8.818 6.423 5.859 4.926 7.131 0 2.438 1.437.022 6.026 0 10.475z" fill="#FF5E43"/><path d="M6.419 21.521a311.58 311.58 0 0 0-.307-7.013l-3.481-.017a327.36 327.36 0 0 0-.367 7.01z" fill="#2B2929"/><path d="M2.264 21.5c-.882 20.666-.114 44.39.714 71.523L5 93.035c1.082-27.357 2.109-51.049 1.419-71.514z" fill="#F8A036"/></svg></g><g transform="translate(1242.0 177.0) rotate(-162.8275247074526 61.5 108.5) scale(0.6758353159667466 0.672665895839081)"><svg width="181.997" height="322.597" viewBox="0 0 181.997 322.597"><path d="M181.99 89.757c.2 14.98-3.93 28.8-9.44 41.65-15.54 36.24-45.03 70.19-58.08 137.59-.98 5.05-5.58 8.63-11.68 10.72-14.71 5.05-38.13 1.45-40.3-10.94-9.95-56.79-33.5-92.36-48.1-123.6a155.256 155.256 0 0 1-9.24-23.95A90.566 90.566 0 0 1 0 91.047V91A90.95 90.95 0 0 1 89.83.007c43.83-.55 81.14 30.44 90.11 71.77a89.553 89.553 0 0 1 2.05 17.98z" fill="#f8a036"/><path d="M181.99 89.757c.2 14.98-3.93 28.8-9.44 41.65-15.54 36.24-45.03 70.19-58.08 137.59-.98 5.05-5.58 8.63-11.68 10.72 7.28-66.32 28.13-103.6 35.31-120.86 43.9-95.77-8.96-139.66-61.9-125.9-45.66 11.88-66.79 60.75-61.81 112.22a155.256 155.256 0 0 1-9.24-23.95A90.566 90.566 0 0 1 0 91.047V91A90.95 90.95 0 0 1 89.83.007c43.83-.55 81.14 30.44 90.11 71.77a89.553 89.553 0 0 1 2.05 17.98z" fill="#ffdc83"/><path d="M92.782 285.238h-.125a3.5 3.5 0 0 1-3.375-3.62c.121-3.439.267-6.48.445-9.3 2.784-46.516 13.737-78.259 22.537-103.764 3.582-10.381 6.965-20.186 9.3-29.561 6.836-27.5 6.007-50.978-2.218-62.811a18.052 18.052 0 0 0-13.218-8.075c-7-.8-13.342 2.02-18.875 8.375 9.919 11.5 15.717 28.361 14.584 42.973-.892 11.5-5.812 20.9-14.231 27.2-8.7 6.5-14.319 2.518-16.332.5-5.287-5.294-7.411-17.583-5.683-32.876 1.608-14.227 6.1-27.581 12.46-37.2-11.568-10.359-21.459-6.817-26.482-3.621-17.878 11.377-12.339 28.814 1.892 67.17 11.648 31.392 27.6 74.385 31.122 131.622.179 2.778.324 5.751.445 9.079a3.5 3.5 0 0 1-7 .253c-.118-3.262-.26-6.171-.435-8.892-3.46-56.213-19.2-98.645-30.7-129.627-13.544-36.5-22.492-60.618.912-75.51 10.959-6.974 23.632-5.445 34.5 3.961 7-7.829 15.437-11.4 24.605-10.356a24.778 24.778 0 0 1 18.179 11.035c9.5 13.666 10.687 38.632 3.263 68.5-2.41 9.676-5.842 19.622-9.476 30.153-8.661 25.1-19.44 56.342-22.167 101.912a321.878 321.878 0 0 0-.436 9.113 3.5 3.5 0 0 1-3.491 3.367zM83 82.308c-12.43 20.086-13.956 52.711-6.777 59.9.659.66 2.41 2.413 7.187-1.16 8.535-6.385 10.934-15.56 11.444-22.133.961-12.343-3.724-26.528-11.854-36.607zM63.993 13.95C40.363 20 14.728 43.063 13.832 65.271c-.14 3.455 1.478 12.528 6.651 1.2 9.663-21.164 30.278-41.681 66.722-49 27.759-5.581-1.29-9.133-23.212-3.521z" fill="#ffe3c3"/><path d="M114.47 269.247v50c0 .97-3.213 1.85-8.351 2.46a154.51 154.51 0 0 1-17.655.89 154.327 154.327 0 0 1-17.646-.89c-5.138-.61-8.351-1.49-8.351-2.46l.116-50c0 1.85 11.527 3.35 25.881 3.35s26.006-1.497 26.006-3.35z" fill="#494242"/></svg></g><g transform="translate(1127.0 436.0) rotate(0.0 181.5 216.0) scale(0.8843089965650808 0.8838151353341925)"><svg width="410.49" height="488.79" viewBox="0 0 410.49 488.79"><path d="m198.49 333.79-99 155-39.42-87.6-9.72-21.61-22.86-50.79zm212-77-31.09 77.25-5.32 13.22-8.55 21.23-1.67 4.16-46.73 116.14-118.64-155z" fill="#ffe3c3"/><path d="M317.13 488.79H99.49l99-155 54.98 71.83 24.31 31.76z" fill="#eacaac"/><path d="m410.49 256.79-212 77-171-5 182.14-72z" fill="#d1ae8b"/><path d="M190.751 206.954c6.368-36.252 28.9-117.476 86.367-158.964-19.637 39.333-28.16 77.384-31.943 106.74v.011c-4.324 33.654-2.418 55.857-3.885 55.467z" fill="#5b5c1a"/><path d="M172.29 316.72c-22.612 2.217-44.511 1.829-64.674-1.3a20 20 0 0 1-16.176-14.671C79.632 256.786 38.072 210.1 0 188.29c77.2-12.87 167.51 43.54 172.29 128.43z" fill="#80862c"/><path d="M393.25 164.71c-48.485 4.867-86.3 65.75-92.823 103.944a19.924 19.924 0 0 1-11 14.481 355.558 355.558 0 0 1-74.777 26.545 270.821 270.821 0 0 1 15.8-49.87c15.1-34.75 35.66-58.07 57.74-73.17 37.01-25.33 78.26-27.57 105.06-21.93zM69.42 53.9c65.068 23.164 139.138 107.076 137.5 227.89l-57.43 2a337.718 337.718 0 0 0-15.47-123.5c0-.01-18.03-55-64.6-106.39z" fill="#5b5c1a"/><path d="M195.85 313.5a291.129 291.129 0 0 1-67.3 4.15c-7.36-93.79-56.88-166.63-113.33-193.07 32.95-1.16 80.66 4.66 118.8 35.71a142.744 142.744 0 0 1 23.59 24.45c21.6 28.43 36.68 69.61 38.24 128.76z" fill="#80862c"/><path d="M128.549 318.65a1 1 0 0 1-1-.922c-3.167-40.36-14.5-79.158-32.786-112.2a1 1 0 1 1 1.75-.968c18.419 33.291 29.841 72.37 33.03 113.013a1 1 0 0 1-.919 1.075 1.781 1.781 0 0 1-.075.002z" fill="#403838"/><path d="M91.171 164.212a.966.966 0 0 1-.12-.007 99.968 99.968 0 0 0-17.374-.579 1 1 0 1 1-.108-2 102.073 102.073 0 0 1 15.936.39l-9.5-20.185a1 1 0 1 1 1.809-.852l10.26 21.805a1 1 0 0 1-.9 1.425zm23.819 22.078a1 1 0 0 1-.18-.016 188.776 188.776 0 0 0-21.82-1.984 1 1 0 1 1 0-2 197.033 197.033 0 0 1 20.764 1.789l-.087-.452a146.785 146.785 0 0 1-2.676-24.3 1 1 0 0 1 2-.072 145.034 145.034 0 0 0 2.643 24c.145.761.264 1.384.345 1.878a1 1 0 0 1-.987 1.161zm18.881 33.915a1 1 0 0 1-.394-.081 97.393 97.393 0 0 0-22.669-6.619 1 1 0 0 1 .324-1.974 99.4 99.4 0 0 1 21.823 6.2c.546-8.411 2.283-19.419 3.24-25.486.348-2.208.678-4.3.709-4.787a1 1 0 0 1 1.677-.866c.462.435.462.435-.411 5.965-1.006 6.378-2.879 18.249-3.3 26.695a1 1 0 0 1-1 .95zm12.492 35.425a4.386 4.386 0 0 1-1.338-.26l-17.55-5.6a1 1 0 0 1 .608-1.906l17.55 5.6a1.921 1.921 0 0 0 .86.145c.176-.081.37-.578.454-.791l7.564-19.365a1 1 0 1 1 1.863.727l-7.565 19.366a3.13 3.13 0 0 1-1.488 1.883 2.281 2.281 0 0 1-.958.201z" fill="#9bb9af"/><path d="M233.61 304.7a327.349 327.349 0 0 1-79.11 13.23c.07-36.86.85-84.15 3.11-133.19 3.167-68.752 7.266-122.164 21.45-184.74 18.752 57.051 30.492 100.988 43.37 192 5.186 36.863 9.503 75.816 11.18 112.7z" fill="#80862c"/><path d="M183.938 103.921a3.669 3.669 0 0 1-2.1-.873l-9.7-7.117a1 1 0 0 1 1.183-1.612l9.7 7.117c.216.158.722.528.964.481.2-.037.493-.386.67-.595l9.888-11.663a1 1 0 1 1 1.525 1.293l-9.888 11.663a3.293 3.293 0 0 1-1.82 1.267 2.236 2.236 0 0 1-.422.039zm3.899 38.089a.994.994 0 0 1-.6-.2l-12.649-9.427a1 1 0 0 1 1.2-1.6l11.832 8.82 8.573-11.915a1 1 0 0 1 1.624 1.168l-9.167 12.741a1 1 0 0 1-.659.4.986.986 0 0 1-.154.013zm3.796 32.297a1.009 1.009 0 0 1-.38-.075L176.6 168.2a1 1 0 0 1 .761-1.849l14.092 5.8a133.988 133.988 0 0 1 11.773-8.753 1 1 0 0 1 1.1 1.668 132.127 132.127 0 0 0-12.054 9 1 1 0 0 1-.639.241zm6.908 47.935a1 1 0 0 1-.369-.071c-1.159-.461-5.09-2.558-9.642-4.985-3.808-2.031-7.746-4.131-10.487-5.5a1 1 0 0 1 .894-1.788c2.765 1.382 6.714 3.488 10.534 5.525 3.639 1.941 7.109 3.791 8.737 4.573a83.288 83.288 0 0 1 13.752-14.739 1 1 0 1 1 1.286 1.531 81.312 81.312 0 0 0-13.89 15.036 1 1 0 0 1-.815.418zm-.713 48.337a1 1 0 0 1-.69-.277 255.421 255.421 0 0 0-23.964-20.174 1 1 0 1 1 1.191-1.607 257.437 257.437 0 0 1 23.266 19.493c3.313-5.035 15.019-20.9 18.578-25.349a1 1 0 1 1 1.562 1.25c-4.15 5.187-17.428 23.305-19.077 26.163a1.009 1.009 0 0 1-.866.5z" fill="#9bb9af"/><path d="M368.81 47.91c-45.41 40.47-68.74 90.95-80.62 138.73-9.47 38.07-11.67 74.42-11.99 102.61a354.748 354.748 0 0 1-66.69 21.58c.85-41.63 5.87-77.93 14.25-109.22v-.01q1.17-4.38 2.43-8.64a289.483 289.483 0 0 1 15.33-40.69v-.01c29.19-62.23 75.5-95.62 127.29-104.35z" fill="#80862c"/><g fill="#9bb9af"><path d="M279.65 131.729a1 1 0 0 1-.993-1.12l2.528-20.867a1 1 0 1 1 1.985.24l-2.29 18.908a35.843 35.843 0 0 1 13.5-3.975 1 1 0 0 1 .174 1.992 33.809 33.809 0 0 0-14.392 4.679.994.994 0 0 1-.512.143zm-15.041 26.088a1 1 0 0 1-1-.929l-1.483-20.607a1 1 0 1 1 2-.144l1.38 19.18a99.53 99.53 0 0 1 15.151-5.273 1 1 0 1 1 .5 1.936 97.5 97.5 0 0 0-16.13 5.745 1 1 0 0 1-.418.092zM252.49 186.1a1.806 1.806 0 0 1-.526-.075 2.393 2.393 0 0 1-1.443-1.982l-3.149-15.829a1 1 0 1 1 1.962-.39l3.148 15.829a2.365 2.365 0 0 0 .12.433l.16-.046 14.465-3.986a1 1 0 0 1 .531 1.928l-14.465 3.986a2.96 2.96 0 0 1-.803.132zm-11.79 38.039a1 1 0 0 1-.966-.741 122.733 122.733 0 0 0-6.427-18.13 1 1 0 1 1 1.826-.815 124.715 124.715 0 0 1 6.218 17.276 62.063 62.063 0 0 1 18.2-5.155 1 1 0 0 1 .246 1.985 60.051 60.051 0 0 0-18.666 5.481 1 1 0 0 1-.431.099zm-2.712 32.094a2.19 2.19 0 0 1-.547-.068 3.071 3.071 0 0 1-1.691-1.413l-11.06-16.292a1 1 0 1 1 1.655-1.123l11.06 16.292c.114.167.38.559.536.6a1.844 1.844 0 0 0 .676-.178l17.3-6.769a1 1 0 0 1 .729 1.863l-17.3 6.769a3.705 3.705 0 0 1-1.358.319zM67.83 223.806a1.014 1.014 0 0 1-.225-.025 44.179 44.179 0 0 0-13.789-.967 1 1 0 1 1-.173-1.993 46.179 46.179 0 0 1 12.462.6L56.648 200.6a1 1 0 1 1 1.821-.827l10.271 22.62a1 1 0 0 1-.91 1.413zm4.298 19.534a1 1 0 0 1-.012-2l25.045-.284a114.013 114.013 0 0 1-3.619-22.231 1 1 0 1 1 2-.125 111.943 111.943 0 0 0 3.891 23.073 1 1 0 0 1-.952 1.268l-26.339.3zm42.466 34.939a.991.991 0 0 1-.525-.15c-12.334-7.63-18.82-8.016-27.889-6.006a1 1 0 1 1-.433-1.952c9.4-2.085 16.529-1.689 29.374 6.257a1 1 0 0 1-.527 1.851z"/></g><path d="M209.51 311.83h-.02a1 1 0 0 1-.98-1.02c.823-40.305 5.627-77.124 14.278-109.435a1 1 0 0 1 1.972.225 1.067 1.067 0 0 1-.034.269c-8.613 32.161-13.4 68.828-14.216 108.981a1 1 0 0 1-1 .98zm-55.01 7.1a1 1 0 0 1-1-1c.059-31.276.647-79.78 3.111-133.234a1 1 0 1 1 2 .092c-2.462 53.418-3.05 101.89-3.109 133.146a1 1 0 0 1-1.002.996z" fill="#403838"/><path d="m87.01 379.39-4.44 11.93 1.32 1.07a5.385 5.385 0 0 1-3.6 9.55l-20.22-.75-9.72-21.61 10.75-11.35a5.386 5.386 0 0 1 9.26 4.29l-.47 4.26 9.98-4.22a5.377 5.377 0 0 1 7.14 6.83zm292.39-45.35-5.32 13.22-8.55 21.23-16.25-3.73a4.806 4.806 0 0 1-.23-9.31l6.41-1.82-11.16-9.17a4.808 4.808 0 0 1 2.71-8.51l13.05-.93-.95-7.89a4.818 4.818 0 0 1 8-4.15zM277.78 437.38l-16.82 26.02a7.521 7.521 0 0 1-13.74-2.87l-.89-5.45-26.96 1.08a7.523 7.523 0 0 1-6.98-10.97l11.19-21.62-3.24-2.42a7.523 7.523 0 0 1 3.99-13.53l29.14-2z" fill="#5dace2" fill-rule="evenodd"/></svg></g><g transform="translate(1349.0 560.0) rotate(0.0 123.5 153.5) scale(0.997983830237698 0.9992188517120166)"><svg width="247.499" height="307.24" viewBox="0 0 247.499 307.24"><path d="M3.5 90.84c8.817 30.938 31.663 60.448 74.5 61.4-10.471-33.317-32.366-59.02-74.5-61.4z" fill="#3d768a"/><path d="M222.97 82.87a1.462 1.462 0 0 1-.05.2 42.583 42.583 0 0 1-1.66 5.79c-11.24 31.1-56.32 49.59-88.09 52.48a89.371 89.371 0 0 1-10.66.36 52.147 52.147 0 0 1-9.5-1.07c32.42-50.55 62.34-63.85 109.96-57.76zM90.73 158.88a73.838 73.838 0 0 1-18.85-9.32c-16.72-11.51-27.72-29.35-33.66-49.68-6.17-21.09-6.9-44.85-2.94-66.98a108.556 108.556 0 0 1 18.52 9.98c45.99 31 52.33 89.19 36.93 116z" fill="#9bb9af"/><path d="M90.73 158.88a73.838 73.838 0 0 1-18.85-9.32c4.45-25.55-.31-75.02-18.08-106.68 45.99 31 52.33 89.19 36.93 116zm132.19-75.81a42.583 42.583 0 0 1-1.66 5.79c-11.24 31.1-56.32 49.59-88.09 52.48a89.371 89.371 0 0 1-10.66.36c19.82-24.957 51.858-50.86 100.41-58.63z" fill="#3d768a"/><path d="M142.85 103.54A90.711 90.711 0 0 1 104.96 152c-1.13-.67-2.23-1.39-3.3-2.15-22.09-15.66-30.51-48.72-22.19-81.95C85.73 42.93 101.44 17.87 127.9.021c.01-.011.02-.011.03-.021 0 .01.01.01.01.021 20.63 37.819 24.6 74.169 14.91 103.519z" fill="#9bb9af"/><path d="M142.85 103.54c-3.42 4.89-17.9 18.15-19.16 17.8C134.25 86.78 137.42 54.22 127.9.021c.01-.011.02-.011.03-.021 0 .01.01.01.01.021 20.63 37.819 24.6 74.169 14.91 103.519z" fill="#3d768a"/><path d="M190.351 41.942a129.223 129.223 0 0 1-5.722 41.114c-8.748 27.511-28.3 51.936-64.042 63.629.313-29.571 7.854-56.953 27.261-77.688 10.471-11.187 24.396-20.438 42.503-27.055z" fill="#9bb9af"/><g fill="#403838"><path d="M104.964 153.005a1 1 0 0 1-.511-.141c-12.145-7.233-21.021-19.351-25.668-35.044C74.3 102.664 74.2 84.85 78.5 67.657a1 1 0 1 1 1.94.486c-4.221 16.851-4.128 34.291.26 49.109 4.5 15.2 13.068 26.922 24.774 33.893a1 1 0 0 1-.513 1.86zm-14.237 6.878a1 1 0 0 1-.313-.05c-25.483-8.4-44.361-29.594-53.156-59.669a1 1 0 0 1 1.919-.561c6.088 20.815 20.027 47.832 51.863 58.33a1 1 0 0 1-.313 1.95zm29.86-12.198h-.01a1 1 0 0 1-.99-1.011c.348-32.851 9.611-59.215 27.531-78.36a1 1 0 0 1 1.461 1.366c-17.568 18.769-26.649 44.681-26.992 77.015a1 1 0 0 1-1 .99z"/><path d="M120.587 147.685a1 1 0 0 1-.311-1.951c31.669-10.359 53.592-32.137 63.4-62.981a1 1 0 1 1 1.906.606c-10.011 31.482-32.378 53.709-64.684 64.276a.991.991 0 0 1-.311.05z"/></g><path d="m246.5 197.28-69.24 109.96H57.01L1 233.61l48.54-86.05 143.75-25.82 10.04 14.25L216 153.97z" fill="#ffdc83"/><path d="M21.507 260.568 1 233.61l133.218-19.714z" fill="#f8a036"/><path d="M1 234.61a1 1 0 0 1-.145-1.989l245.5-36.33a1 1 0 0 1 .292 1.979L1.146 234.6a1.048 1.048 0 0 1-.146.01z" fill="#403838"/><path d="m216 153.97-11 27.29a7.251 7.251 0 0 1-13.12.73l-4.46 6.34a14.081 14.081 0 1 1-18.87-20.12l13.1-8.03a10.045 10.045 0 0 1-.06-19.69l21.74-4.5zM94.71 307.24l6.39-26.75a11.47 11.47 0 0 1 4.35-6.61 11.7 11.7 0 0 1 6.93-2.28 11.432 11.432 0 0 1 6.44 1.98 11.571 11.571 0 0 1 2.43 16.98l-13.83 16.68z" fill="#ff5e43"/><path d="m96.8 307.24 9-25.75a10 10 0 0 0-.35-7.61 10.185 10.185 0 0 0-19.44 4.24c0 .28.02.56.04.85l2.34 28.27z" fill="#ff5e43"/></svg></g></svg>