<svg xmlns="http://www.w3.org/2000/svg" version="1.1" viewBox="0 0 3000 1687" width="3000" height="1687">
<defs/><!--ITEM: Illustration component 1--><g transform="translate(851.5625 82.8125) rotate(0.0 407.8125 477.34375)  scale(1.5603269010401224 1.5616616611704355)"><svg width="522.727" height="611.328" viewBox="0.0 0.0 522.727 611.328"><path d="m144.6 165.766c1.525 58.6-11.445 95.89-24.029 119.414-6.106 11.415-11.581 18.58-17.867 35.077-13.525 35.493-7.24 50.957-19.66 79.156-7.064 16.038-11.537 15.165-29.978 40.275-1.341 1.825-29.167 40.08-43.546 77.643a197.679 197.679 0 0 0 -8.063 26.569c-10.195 44.416 35 81.246 76.476 62.368l420.115-191.219c21.833-19.274 25.384-33.845 24.576-43.6-1.279-15.45-13.315-16.752-24.082-42.957-9.063-22.053-3.427-28.163-14.322-44.164-6.725-9.877-30.3-46.055-31.746-50.29-5.176-15.205-17.951-45.907-49.423-111.916z" fill="#2b2929"/><path d="m151.826 203.153c12.151 37.884 7.424 61.736.75 76.579-5.009 11.139-10.49 15.818-17.962 33.126-10.133 23.474-12.057 42.685-13.216 50.5-6.247 42.1-37.506 74.2-55.843 100.072a231 231 0 0 0 -24.977 45.6c-4.863 11.752-10.978 40.047 3.93 60.648 13.992 19.335 43.632 26.538 73.533 18.332l356.147-161.725a76 76 0 0 0 12.689-28.031c2.634-12 .273-21.339-1.065-40.351-.951-13.5-2.079-21.034-6.311-29.355-7.069-13.9-15.893-16.542-23.793-27.209-12.194-16.465-9.667-35.152-10.147-48.394-.779-21.468-10.315-52.1-49.911-91.182z" fill="#1c1a1a"/><ellipse cx="277.256" cy="170.726" fill="#2b2929" rx="135.394" ry="121.43" transform="matrix(.96463567 -.26358685 .26358685 .96463567 -35.196 79.119)"/><path d="m409.972 215.807c-.095.946-.22 1.893-.345 2.83-6.9 51.2-41.117 94.813-90.95 108.43-35.577 9.719-72.077 2.233-101.693-17.619a138.431 138.431 0 0 1 -26.071-22.725c-1.988-2.207-3.91-4.5-5.755-6.852-2.208-2.8-4.329-5.7-6.325-8.686a145.021 145.021 0 0 1 -11.743-21.041c-1.22-2.685-2.363-5.413-3.428-8.205-.708-1.818-1.367-3.658-2.007-5.52-.152-.463-.305-.926-.458-1.4-.786-2.4-1.523-4.822-2.192-7.283-.389-1.433-.758-2.857-1.107-4.292-16.951-70.037 19.146-140.13 82.488-160.774.878-.282 1.756-.565 2.644-.828l.227-.071c.9-.263 1.8-.527 2.706-.771 1.265-.341 2.53-.672 3.8-.973 64.761-15.446 131.627 25.373 153.763 93.308q1.141 3.459 2.109 7.006c.279 1.018.548 2.036.8 3.056.049.177.087.346.135.524 1.108 4.5 2.006 9.014 2.692 13.506q.46 3.042.783 6.08a143.976 143.976 0 0 1 -.073 32.3z" fill="#2b2929"/><path d="m198.218 270.814c-.521.615-1.073 1.213-1.657 1.781a30.932 30.932 0 0 1 -9.185 6.368c-.724.336-1.461.631-2.218.908-.639.241-1.29.452-1.952.644-.2.06-.394.119-.592.169a31.488 31.488 0 0 1 -28.481-54.546 31.54 31.54 0 0 1 9.933-5.593q.96-.331 1.953-.6a31.677 31.677 0 0 1 4.433-.874 31.443 31.443 0 0 1 13.812 1.369 31.5 31.5 0 0 1 13.954 50.378z" fill="#dda094"/><path d="m143.94 258.615a31.487 31.487 0 1 1 60.747-16.6l-35.334-15.239z" fill="#dda094"/><g fill="#f8b5a4"><circle cx="404.488" cy="184.808" r="31.487"/><path d="m230.433 120.847 61.658-16.847a83.894 83.894 0 0 1 103.041 58.814l2.632 9.634a73.906 73.906 0 0 1 -51.812 90.773l-80.926 22.114a73.919 73.919 0 0 1 -87.969-43.5 74.75 74.75 0 0 1 -2.8-8.315l-2.632-9.634a83.893 83.893 0 0 1 58.808-103.039z" fill-rule="evenodd"/><path d="m321.486 332.829c-39.428 10.775-73.907 5.373-98.97-10.973a91.355 91.355 0 0 1 -31.6-35.133q-1.938-3.767-3.537-7.76a98.665 98.665 0 0 1 -3.7-10.974q-.8-2.935-1.383-5.871c-.1-.535-.211-1.071-.3-1.6a84.091 84.091 0 0 1 -1.244-10.893 87.368 87.368 0 0 1 .929-17.535 91.37 91.37 0 0 1 2.584-11.657c10.325-35.567 42.022-66.584 85.1-78.365 2.7-.74 5.39-1.38 8.086-1.941q2.319-.5 4.642-.893a126.021 126.021 0 0 1 65.047 5.464c1.856.682 3.673 1.415 5.472 2.19a103.451 103.451 0 0 1 27.874 17.542q3.31 2.935 6.313 6.154c.253.269.5.537.74.816a87.575 87.575 0 0 1 12.818 18.205 83.488 83.488 0 0 1 5.077 11.68q.974 2.761 1.752 5.623c.815 3 1.49 6.015 2 9.034.173.893.317 1.8.44 2.692 7.182 48.804-23.908 96.652-88.14 114.195z" fill-rule="evenodd"/></g><path d="m307.822 256.764a1 1 0 0 1 -.819-1.573l5.092-7.277a4.13 4.13 0 0 0 -.583-5.385l-6.452-5.947a1 1 0 0 1 1.356-1.47l6.451 5.946a6.137 6.137 0 0 1 .866 8l-5.091 7.276a1 1 0 0 1 -.82.43z" fill="#403838"/><path d="m386.8 170.587c-.355.538-.729 1.077-1.144 1.627a53.293 53.293 0 0 1 -8.188 8.563c-1.168-.775-2.439-1.585-3.81-2.41a93.838 93.838 0 0 0 -36.152-12.93c-40.565-5.379-72.991 19.036-85.638 28.553-14.541 10.951-26.307 18.825-34.542 33.927-9.1 16.667-10.343 34.567-8.4 50.311.051.438.112.886.174 1.324a131.808 131.808 0 0 0 7.884 29.9 134.509 134.509 0 0 0 5.532 12.408 91.355 91.355 0 0 1 -31.6-35.133c-1.988-2.207-3.91-4.5-5.755-6.852-.639.241-1.29.452-1.952.644-1.795-1.725-3.171-2.861-3.582-2.881q-.441-3.237-.791-6.449c-.309-2.689-.567-5.359-.795-8.012q-.233-2.646-.4-5.276-.562-8.279-.673-16.307c-.067-3.9-.052-7.746.037-11.515s.232-7.48.448-11.094c1.87-31.106 8.418-55.879 16.061-65.366 10.677-13.248 24.726-23.184 24.726-23.184a111.221 111.221 0 0 1 13.019-8.044 118.7 118.7 0 0 1 12.288-5.125 113.06 113.06 0 0 1 15.616-4.266.094.094 0 0 1 .05-.013c90.756 11.077 127.064 26.623 130.874 43.819a12.806 12.806 0 0 1 .252 1.49c.433 3.811-.671 7.904-3.539 12.291z" fill="#dda094" fill-rule="evenodd"/><path d="m244.969 66.942c-.9-3.36-5.835-20.491-23.207-30.4a49.872 49.872 0 0 0 -31.65-5.843 179.461 179.461 0 0 1 54.857 36.241z" fill="#1c1a1a"/><path d="m249.722 76.887c-2.6-4.241-12.769-21.9-8.307-44.734a69.812 69.812 0 0 1 3.095-10.594 63.031 63.031 0 0 1 14.232-21.559 265.417 265.417 0 0 0 -9.02 76.887z" fill="#2b2929"/><path d="m405.4 163.438c.826.3 14.05 5.3 16.91 18.881a26.178 26.178 0 0 1 -3.857 19.333c-.595-3.133-1.107-6.584-1.449-10.32-.3-3.3-.43-6.395-.444-9.258a16.268 16.268 0 0 1 -7.448-4.8c-4.906-5.636-3.892-12.726-3.712-13.836z" fill="#f8b5a4"/><path d="m419.478 202.6a1 1 0 0 1 -.833-1.552 24.957 24.957 0 0 0 3.712-18.575c-2.772-13.167-15.719-17.949-16.269-18.146a1 1 0 0 1 .675-1.883c.593.213 14.551 5.369 17.551 19.616a26.978 26.978 0 0 1 -4 20.091 1 1 0 0 1 -.836.449z" fill="#403838"/><path d="m162.928 232.536c-.561.675-9.4 11.709-4.959 24.857a26.183 26.183 0 0 0 13.152 14.685 125.379 125.379 0 0 0 -2.5-14.165c-.595-2.516-1.244-4.914-1.927-7.191 5.425-7.715 5.81-15.11 2.8-17.6-.429-.35-2.257-1.703-6.566-.586z" fill="#dda094"/><path d="m171.12 273.078a.99.99 0 0 1 -.437-.1 26.978 26.978 0 0 1 -13.661-15.264c-4.663-13.8 4.734-25.331 5.136-25.816a1 1 0 0 1 1.539 1.278c-.373.449-9.09 11.149-4.781 23.9a24.962 24.962 0 0 0 12.643 14.106 1 1 0 0 1 -.439 1.9z" fill="#403838"/><path d="m157.667 193.4 16.411 69.559a1.761 1.761 0 0 0 2.694 1.06l17.266-11.561a1.763 1.763 0 0 0 .782-1.458l.265-41.645a1.762 1.762 0 0 1 3.372-.7c.488 9.9 8.465 21.842 27.143 15.558a11.042 11.042 0 0 0 7.389-9.251l5.611-49.712a1.762 1.762 0 0 1 3.449-.446l5.74 19.263a1.762 1.762 0 0 0 2.456 1.083l31.043-15.045a1.764 1.764 0 0 0 .968-1.883l-5.5-32.145a1.761 1.761 0 0 1 3.326-1.055l11.212 23.518a1.762 1.762 0 0 0 1.835.987l50.621-7.114a1.758 1.758 0 0 0 1.365-2.458 3.952 3.952 0 0 1 6.7-4.082l23.31 29.491a1.764 1.764 0 0 0 2.084.523l26.483-11.493a1.761 1.761 0 0 0 .834-2.479l-31.71-56.366a1.767 1.767 0 0 0 -.8-.736l-65.816-30.339a1.762 1.762 0 0 0 -1.217-.095l-98.06 27.766a1.763 1.763 0 0 0 -1.071.86l-48.022 89.152z" fill="#2b2929" fill-rule="evenodd"/><path d="m233.822 125.169 4.778 40.081a2.273 2.273 0 0 1 1.747-1.142 2.212 2.212 0 0 1 1.7.7q-4.113-19.822-8.225-39.639z" fill="#1c1a1a"/><path d="m383.4 120.48 16.391 33.02q2.064-.069 4.271-.054c1.946.015 3.812.085 5.592.2z" fill="#1c1a1a"/><path d="m155.569 219.952c-14.669-66.97 25.857-134.481 91.391-152.994 66.187-18.7 136.666 18.578 158.519 84.282-44.268-55.277-117.723-72.858-174.248-45.4-66.167 32.146-75.202 109.524-75.662 114.112z" fill="#ff5e43"/><path d="m292.189 275.364a1.324 1.324 0 0 1 .254-2.4l38.416-12.564a.575.575 0 0 1 .047.034.259.259 0 0 1 .029.025c.036.033-4.012 12.306-13.333 17.161-7.33 3.822-16.974 2.561-25.413-2.256z" fill="#fff"/><path d="m352.6 225.116c10.091-3.9 17.748-10.444 21.018-17.129-3.693-8.743-14.7-12.657-24.881-8.728-10.355 4-15.914 14.584-12.416 23.646a15.585 15.585 0 0 0 3.431 5.289 48.331 48.331 0 0 0 12.848-3.078z" fill="#2b2929"/><path d="m336.32 222.9c-3.5-9.062 2.061-19.649 12.416-23.646 10.18-3.929 21.188-.015 24.882 8.728 1.849-3.78 2.3-7.6.984-11.016-3.646-9.447-19.409-12.162-35.206-6.064s-25.649 18.7-22 28.145c2.638 6.833 11.615 10.14 22.358 9.142a15.585 15.585 0 0 1 -3.434-5.289z" fill="#fff"/><path d="m259.247 256.514c10.091-3.9 17.747-10.444 21.018-17.129-3.694-8.743-14.7-12.657-24.882-8.728-10.355 4-15.914 14.583-12.416 23.646a15.6 15.6 0 0 0 3.431 5.289 48.347 48.347 0 0 0 12.849-3.078z" fill="#2b2929"/><path d="m242.965 254.3c-3.5-9.063 2.061-19.649 12.416-23.646 10.18-3.929 21.188-.015 24.881 8.728 1.85-3.78 2.3-7.6.984-11.016-3.646-9.447-19.408-12.162-35.206-6.064s-25.648 18.7-22 28.145c2.637 6.832 11.615 10.14 22.358 9.142a15.6 15.6 0 0 1 -3.433-5.289z" fill="#fff"/><rect fill="#2b2929" height="15.414" rx="7.707" transform="matrix(.91705311 -.39876507 .39876507 .91705311 -63.116 112.334)" width="42.716" x="217.109" y="200.178"/><rect fill="#2b2929" height="15.414" rx="7.707" transform="matrix(.96463567 -.26358685 .26358685 .96463567 -34.67 94.829)" width="42.716" x="314.707" y="168.914"/><path d="m445.952 324.707-.01.01" fill="#eacaac"/></svg></g><!--ITEM: Illustration component 2--><g transform="translate(698.4375 648.4375) rotate(0.0 925.78125 470.3125)  scale(1.5614103068997418 1.5607914259971227)"><svg width="1185.827" height="602.659" viewBox="0.0 0.0 1185.827 602.659"><path d="m1170.544 443.37c-6.2-3.117-17.529-7.576-31.411-12.577-20.454-31-49.007-32.73-90.263-29.238-13.446-3.918-26.763-9.968-33.787-11.447l-90.018 14.354c.12 26.426 16.268 62.491 45.133 72.658s78.772 17.413 105.331 17.213 31.752-16.4-9.815-28.947c-4.569-1.38-8.748-2.675-12.6-3.9 27.274.611 75.285 1.75 103.2 2.787 34.328 1.277 38.219-8.842 14.23-20.903z" fill="#f8b5a4"/><path d="m997.606 484.64a95.2 95.2 0 0 0 18.432-95.525c-4.913 3.253-34.248 67.787-38.9 79.778a83.2 83.2 0 0 0 20.467 15.747z" fill="#dda094"/><g fill="#403838"><path d="m1131.91 429.692a.749.749 0 0 1 -.262-.048c-4.416-1.649-18.007-5.855-32.394-10.309-17.794-5.507-37.961-11.749-46.9-15.027a.75.75 0 0 1 .516-1.409c8.907 3.266 29.055 9.5 46.831 15 15.035 4.654 28.019 8.673 32.475 10.337a.75.75 0 0 1 -.262 1.453z"/><path d="m1053.111 462.239a.743.743 0 0 1 -.276-.053c-12.913-5.1-32.3-9.756-41.724-11.7a.75.75 0 1 1 .3-1.469c9.469 1.955 28.963 6.634 41.972 11.775a.75.75 0 0 1 -.275 1.448z"/><path d="m1170.223 452.481c-4.69 0-8.98-1.393-11.291-3.935-1.433-1.577-2.775-4.333-1.026-8.514a.75.75 0 0 1 1.384.579c-1.159 2.772-.907 5.1.752 6.926 3.051 3.357 10.47 4.425 16.888 2.432a.75.75 0 1 1 .445 1.432 24.3 24.3 0 0 1 -7.152 1.08z"/><path d="m1075.821 490.735c-2.728 0-5.266-.567-6.946-2.063-1.8-1.6-2.386-4.015-1.752-7.185 1-5.019 3.661-6.884 5.714-7.566 3.454-1.147 7.983.177 11.536 3.372 3.245 2.919 4.7 5.69 4.206 8.014-.268 1.26-1.261 2.981-4.476 4.025a27.91 27.91 0 0 1 -8.282 1.403zm-.327-15.726a6.9 6.9 0 0 0 -2.184.336c-2.4.8-4.033 3.023-4.716 6.436-.522 2.61-.092 4.552 1.278 5.771 2.729 2.428 9.05 1.885 13.768.353 1.4-.454 3.136-1.327 3.472-2.91.37-1.744-.959-4.083-3.742-6.586a12.277 12.277 0 0 0 -7.876-3.4z"/></g><path d="m1011.469 377.57c-25.708-54.914-100.4-87.17-177.424-66.57-11.409-120.907-124.423-260.16-274.8-299.81-134.975-35.59-254.172 25.91-291.483 45.138-136.806 70.5-193.379 187.147-223.033 248.289-31.85 65.67-58.013 119.614-37.393 177.069 30.664 85.443 139.93 109.784 166.505 115.361 121.6 25.516 238.013-43.871 241.013-50.582 115.52 31.209 215.853.445 293.68-39.35 63.674 2.152 157.339.916 227.934 2.286 44.038.854 81.407-32.784 84.544-76.717 1.263-17.691-.912-36.684-9.543-55.114z" fill="#ae84d3"/><path d="m325.225 252.887a115.479 115.479 0 0 1 -45.644 84.06c10.3-9.8 28.254-23.68 53.4-29.24a125.661 125.661 0 0 1 28.1-2.537c12.883.149 15.233 1.708 23.069 3.62 5.009-1.868-35.187-10.517-50.243-13.873-3.729-13.107-4.952-28.917-8.682-42.03z" fill="#8c6fb5"/><path d="m522.339 324.577c4.34-4.5 11.622-8.582 19.712-14.067 9.473-6.422 19.5-17.25 30.5-18.188 26.561-2.267 42.651 8.7 44.915-1.616s-13.013-29.179-37.062-34.164c-18.138-3.764-40.728-2.432-72.974 10.978a317.7 317.7 0 0 0 -59.986 32.574c-3.811 4.8-66.26 32.67-70.148 37.744l29.392 93.945c13.809-3.512 77.259-20.207 88.935-28.332 27.86-13.537 19.316-40.824 22.6-71.039" fill="#f8b5a4"/><path d="m545.958 309.2a1 1 0 0 1 -.722-1.691c5.647-5.9 15.446-11.722 22.206-14.417a36.014 36.014 0 0 1 22.4-1.43 1 1 0 0 1 -.455 1.948 34.106 34.106 0 0 0 -21.206 1.34c-6.56 2.615-16.052 8.243-21.5 13.941a.994.994 0 0 1 -.723.309z" fill="#403838"/><path d="m455.975 412.2c12.531 4.178 45.6 3.8 74.929-7.527 26.314-10.163 49.593-27.437 43.686-38.935-10.88-21.188-26.692 1.5-64.4.937-26.813-.4-28.946-9.2-43.962-16.148 5.316 15.473-15.562 46.205-10.253 61.673z" fill="#f8b5a4"/><ellipse cx="548.498" cy="322.228" fill="#f8b5a4" rx="16.658" ry="34.927" transform="matrix(.98452154 -.17526363 .17526363 .98452154 -47.986 101.122)"/><path d="m557.037 345.821c-1 0-2.314-.451-3.839-2.077-2.9-3.1-5.49-9.558-4.351-12.942.7-2.093 3.068-3.517 5.883-3.542a7.56 7.56 0 0 1 7.415 5.017c1.217 3.425.311 7.757-1.045 10.332a5.655 5.655 0 0 1 -3.243 3.106 3.191 3.191 0 0 1 -.82.106zm-2.237-16.812h-.059c-2.07.018-3.774.963-4.24 2.349-.837 2.487 1.2 8.237 3.969 11.187.633.674 1.854 1.764 2.932 1.477a4.185 4.185 0 0 0 2.144-2.23c1.223-2.321 1.94-6.133.946-8.93a5.847 5.847 0 0 0 -5.692-3.853z" fill="#403838"/><path d="m554.166 388.361a.891.891 0 0 1 -.184-.019.875.875 0 0 1 -.672-1.04c1.441-6.711 11.7-17.731 17.7-19.019a.875.875 0 1 1 .367 1.711c-5.415 1.161-15.045 11.569-16.356 17.676a.875.875 0 0 1 -.855.691z" fill="#403838"/><path d="m498.315 382.608c10.1-9.071 9.849-23.822 9.642-36-.314-18.587-16.433-24.424-45.591-17.349-14.194 26.026 25.673 62.577 35.949 53.349z" fill="#dda094"/><path d="m538.85 342.321c5.843-16.27 4.2-31.728-3.66-34.525s-45.64-18.724-51.482-2.455c-1.653 4.6-30.231 10.674-27.657 17.957 2.606 7.371 43.153 3.125 48.506 9.694 8.063 9.891.12 31.568 9.474 33.717 8.136 1.872 18.976-8.121 24.819-24.388z" fill="#f8b5a4"/><path d="m510.939 365.879a.877.877 0 0 1 -.793-.5l-.932-1.991a25.129 25.129 0 0 1 -2.377-9.723l-.637-15.665a6.483 6.483 0 0 0 -5.051-5.716l-14.472-3.216a.875.875 0 1 1 .38-1.708l14.472 3.216a8.241 8.241 0 0 1 6.417 7.307l.638 15.707a23.386 23.386 0 0 0 2.214 9.05l.932 1.992a.876.876 0 0 1 -.792 1.247z" fill="#403838"/><path d="m517.424 365.264a4.039 4.039 0 0 1 -1.618-.309c-1.483-.647-2.355-2.273-2.521-4.7-.285-4.151 1.655-10.362 4.583-12.15 1.916-1.171 4.746-.722 7.04 1.119a7.432 7.432 0 0 1 2.65 8.263c-1.1 3.2-4.393 5.888-6.981 7.025a7.982 7.982 0 0 1 -3.153.752zm2.878-16.057a2.89 2.89 0 0 0 -1.522.391c-2.126 1.3-4.018 6.615-3.749 10.536.068.991.349 2.726 1.474 3.217a4.58 4.58 0 0 0 3.368-.442c2.322-1.02 5.139-3.406 6.03-5.992a5.721 5.721 0 0 0 -2.09-6.329 5.837 5.837 0 0 0 -3.513-1.381z" fill="#403838"/><path d="m539.169 343.069c4.88-6.679 4.507-23.889.857-30.161-2.4-4.121-3.417-9.087-8.141-10.086-2.054-.435-8.245-5.678-12.587-6.071-4.214-.382-5.969 3.631-8.135 3.15 2.043.309 18.019 3.245 25.392 14.527 5.015 7.672 2.757 25.702 2.614 28.641z" fill="#dda094"/><path d="m552.7 287.25c-2.366-2.4-7-4.376-10.283-3.458-1.43.4-6.108.561-8.959 1.733a49.342 49.342 0 0 1 -6.568 2.11c1.382-.474 14.295-.583 21.916 2.813a26.272 26.272 0 0 1 9.615 7.441c.368.463 3.044-1.747-5.721-10.639z" fill="#dda094"/><path d="m538.758 343.845a.843.843 0 0 1 -.172-.017.875.875 0 0 1 -.687-1.029c2.822-14.176 1.816-24.255-3.075-30.814-4.517-6.059-12.455-9.424-24.979-10.59a.875.875 0 1 1 .162-1.743c13.053 1.216 21.385 4.8 26.22 11.287 5.2 6.979 6.312 17.512 3.388 32.2a.875.875 0 0 1 -.857.706z" fill="#403838"/><path d="m561.687 309.836a.875.875 0 0 1 -.863-.736c-3.114-19.413-12.071-19.652-33.709-20.229l-.058-.877.105-.872c21.336.569 32.045.855 35.39 21.7a.874.874 0 0 1 -.725 1 .834.834 0 0 1 -.14.014zm-34.63-21.842.024-.874z" fill="#403838"/><path d="m420.8 312.985a1.631 1.631 0 0 0 1.384.558l-.04.027a15.1 15.1 0 0 0 -5.737 7.566c-8.823 26.236 1.823 55.162 1.823 55.162 10.111 23.179 29.338 35.01 39.62 40.022a16.388 16.388 0 0 0 9.967 1.407l.05-.009.576.7c-11.081 4.892-25.645 9.632-36.726 14.523l-33.245 14.675c-3.958-26.493-24.431-106.4-30.711-119.859z" fill="#ae84d3"/><path d="m695.5 170.161q2.1 1.518 4.334 3.043 3.313 2.259 6.512 4.244a17.525 17.525 0 0 1 -1.83 6.512 18.159 18.159 0 0 1 -7.975 7.854 29.626 29.626 0 0 1 7.9 8.171 30.759 30.759 0 0 1 4.683 18.512q-3.856-5.816-8.341-11.927c-3.544-4.81-7.076-9.3-10.542-13.473q2.631-11.467 5.259-22.936z" fill="#8c6fb5"/><path d="m716.057 238.856a1 1 0 0 1 -.963-.734 101.84 101.84 0 0 0 -25.564-44.322l-.384-.391 5.38-23.47a1 1 0 1 1 1.949.447l-5.135 22.4a103.832 103.832 0 0 1 25.682 44.8 1 1 0 0 1 -.7 1.23.988.988 0 0 1 -.265.04z" fill="#403838"/><path d="m723.273 266.155a485.9 485.9 0 0 1 17.562 107.318c2.555 52.372-4.958 77.739-7.854 86.634a189.453 189.453 0 0 1 -22.181 45.853c11.45-11.264 44.2-46.409 51.893-102.341 10.254-74.536-31.916-128.228-39.42-137.464z" fill="#8c6fb5"/><path d="m709.931 507.424a1 1 0 0 1 -.837-1.546 198.1 198.1 0 0 0 30.748-132.285 1 1 0 1 1 1.985-.241 200.1 200.1 0 0 1 -31.057 133.617 1 1 0 0 1 -.839.455z" fill="#403838"/><path d="m276.444 340.912a1 1 0 0 1 -.716-1.7c7.334-7.516 27.99-25.811 61.3-33.332 20.412-4.607 39.944-.173 47.394 1.947a1 1 0 0 1 -.547 1.924c-7.3-2.079-26.444-6.426-46.407-1.92-32.792 7.4-53.1 25.389-60.311 32.778a1 1 0 0 1 -.713.303z" fill="#403838"/><path d="m454.951 449.88c.763 7.08-.825 10.331-2.382 19.3-6.317 36.389-27.8 71.022-37.033 77.468q7.114 1.863 14.641 3.545c13.316 2.965 26.049 5.1 38.063 6.608a116.912 116.912 0 0 0 9.394-43.117 118.691 118.691 0 0 0 -15.463-60.877c4.51-8.412 5.406-10.819 5.073-11.025-.53-.328-3.562 5.282-10.1 7.512a16.616 16.616 0 0 1 -2.193.586z" fill="#8c6fb5"/><path d="m414.063 548.252a1 1 0 0 1 -.715-1.7 142.421 142.421 0 0 0 40.6-96.694l.015-.737.709-.2c1.052-.3 10.375-3.227 13.9-12.987 3.543-9.822-1.838-18.05-2.463-18.956a1 1 0 1 1 1.646-1.136c.685.992 6.581 10.008 2.7 20.77-3.426 9.5-11.863 13.089-14.519 14.006a144.42 144.42 0 0 1 -41.156 97.337 1 1 0 0 1 -.717.297z" fill="#403838"/><path d="m251.933 64.886a181.2 181.2 0 0 0 58.56 7.709c41.267-1.414 73.315-16.9 92.728-29.109a50.249 50.249 0 0 1 27.279-7.716 133.867 133.867 0 0 0 48.581-8.541 133.643 133.643 0 0 0 40.181-23.949 379.619 379.619 0 0 0 -52.379-3.271c-94.344.66-169.183 36.562-214.95 64.877z" fill="#8c6fb5"/><path d="m834.045 311a55.494 55.494 0 0 1 1.228 22.673 155.509 155.509 0 0 1 88.098-22.673 161.317 161.317 0 0 0 -89.326 0z" fill="#8c6fb5"/></svg></g><!--ITEM: Illustration component 3--><g transform="translate(1595.3125 812.5) rotate(0.0 403.90625 403.125)  scale(1.560794296368572 1.5615860484755046)"><svg width="517.565" height="516.302" viewBox="0.0 0.0 517.565 516.302"><path d="m503.206 84.783a38.681 38.681 0 0 0 -8.949-8.261c-.118-.086-.247-.172-.365-.247a32.927 32.927 0 0 0 -5.231-2.75.152.152 0 0 1 -.065-.022 31.747 31.747 0 0 0 -12.912-2.417 29.79 29.79 0 0 0 -3.653.29h-.021a31.918 31.918 0 0 0 -3.47.677 35.061 35.061 0 0 0 -8.1 3.094 40.286 40.286 0 0 0 -15.952 15.673c-.494.838-.945 1.686-1.375 2.567a45.2 45.2 0 0 0 -2.051 4.781c-3.309 9.152-6.607 18.24-9.8 27.242v.021c-8.647 24.31-16.586 47.911-22.161 70.137h-.011c-.655 2.621-1.278 5.21-1.869 7.788q-1.628 7.058-2.868 13.9c.011.01 0 .01 0 .021a190.484 190.484 0 0 0 -3.438 36.492l-19.415-8.711-19.959-8.949h-.01l-63.191-28.338a.177.177 0 0 0 -.055-.021l-54.1-24.267-17.121-7.683h-.011l-16.79-7.53h-.021l-11.129-5.006c0-.011-.011-.011-.022 0a.011.011 0 0 0 -.011-.011l-3.91-1.762h-.011l-18-8.078-23.68-10.613-12.042-5.4-12.944-5.8a302.094 302.094 0 0 1 33.14-32.786.55.55 0 0 1 .086-.075c6.581-5.639 13.535-11.163 20.786-16.539.032-.021.054-.032.086-.053a430.588 430.588 0 0 1 40.853-26.759.031.031 0 0 1 .021-.011c2.944-1.708 5.9-3.384 8.906-5.017l.021-.01q12.489-6.865 25.556-12.988c3.749-1.772 7.541-3.48 11.344-5.135q8.186-3.578 16.532-6.821 14.793-5.769 29.907-10.377a368.767 368.767 0 0 1 43.442-10.491c3.04-.538 6.069-1.042 9.1-1.483l1.322-.193c.945-.14 1.88-.269 2.825-.387q3.288-.452 6.564-.827c3.34-.4 6.681-.709 10.011-.978 71.888-5.757 111.527 26.8 122.377 50.65a73.047 73.047 0 0 1 6.187 28.188c.267 12.945-6.253 15.383-14.353 5.275z" fill="#0e1049"/><path d="m444.49 90.819c.6.646 1.179 1.3 1.75 1.965-1.053.215-2.093.418-3.132.608-47.85 8.533-90.185-9.686-90.185-9.686l-67-57.335-.1-.963-1.7-16.6a263.969 263.969 0 0 1 31.609 6.225 368.593 368.593 0 0 1 43.439-10.5q6.626-1.181 13.233-2.073c14.328 20.28 57.3 61.322 88.033 72.682a40.231 40.231 0 0 0 -15.947 15.677z" fill="#1c1a1a"/><path d="m482.35 233.951c-28.934 75.668-137.187 104.614-241.789 64.625s-165.929-133.75-137.008-209.431c23.266-60.872 97.856-91.5 180.573-80.334a263.969 263.969 0 0 1 31.609 6.225 281.177 281.177 0 0 1 29.593 9.484c40.421 15.443 74.375 38.925 99.162 66.3.6.646 1.179 1.3 1.75 1.965 38.1 43.082 53.594 95.433 36.11 141.166z" fill="#0e1049"/><path d="m214.544 241.445c-59.731-24.161-114.328-107.234-32.044-159.236 90.7-57.309 182.481-1.99 218.21 75.161s-44.895 141.218-186.166 84.075z" fill="#1c1a1a"/><path d="m6.594 436.235c3.517 17.536 4.543 29.325 2.074 47.4 20.771 1.297 43.582-9.035 43.582-9.035l-3.873-32.279z" fill="#f8a036"/><path d="m286.518 91.863c-.259-10.737-2.05-68-19.42-71.448-4.319-.857-10.387 1.455-44.644 42.327-13.129 15.664-23.92 30.815-31.951 41.171 32.005-3.499 64.01-8.551 96.015-12.05z" fill="#f8a036"/><path d="m261.524 86.314 3.887-53.526a4.892 4.892 0 0 0 -8.477-3.5l-59.746 72.412z" fill="#ffe3c3"/><path d="m364.064 516.3h-12.045a17.174 17.174 0 0 1 -14.823-8.52l-33.548-57.51 82.708-70.279-22.432 58.171a100.647 100.647 0 0 0 -5.224 55.99 19.094 19.094 0 0 0 6.961 11.424l1.661 1.306a5.275 5.275 0 0 1 -3.258 9.418z" fill="#d88830"/><g fill="#f8a036"><path d="m261.833 478.265c-31.444 5.414-64.612 8.939-96.437 8.47-94.432 2.307-137.236-2.929-150.156-24.787-21.947-37.124-5.553-114.2 24.572-151.1a176.914 176.914 0 0 1 23.506-23.836c41.08-34.474 85.761-40.154 106.441-57.715 10.967-9.293 15.2-21.922 8.609-43.932-29.06-97.738 176.262 41.667 176.432 41.717 82.941 64.194 64.138 224.152-92.967 251.183z"/><path d="m392.659 166.564c-1.051 8.634-2.966 33.87-17.542 51.341a76.766 76.766 0 0 1 -16.549 14.5c-6.33 4.181-12.636 7.154-17.343 8.267a.039.039 0 0 1 -.035.014c-25.624 6.068-72.269-7.317-108.929-20.54-.058-.027-.128-.054-.2-.081q-3.468-1.242-6.8-2.484c-26.324-9.8-40.62 1.71-40.62 1.71-5.5-3.04-28.669-16.614-34.094-41.922-6.628-30.917 15.675-67.908 56.594-82.584a100.4 100.4 0 0 1 35.633-16.769c3.867-.943 45.622-10.45 80.041 14.55a98.447 98.447 0 0 1 12.133 9.935c6.26-5.58 13.6-11.944 22.693-19.261 21.714-17.465 32.749-25.975 37.794-24.218 8.09 2.816 11.586 26.523-2.776 107.542z"/><path d="m215.01 433.76 41.074 74.68a15.165 15.165 0 0 0 13.287 7.856h13.29a4.184 4.184 0 0 0 2.828-7.269 14.058 14.058 0 0 1 -2.457-17.758l58.534-94.651z"/><path d="m105.247 443.147 5.043 31.753-4.677 21.258c-6.235 8.68-.253 19.3 9.04 19.7 7.567.332 49.732.234 71.4.253a10.589 10.589 0 0 0 9.769-14.691c-1.97-4.667-4.417-6.449-6.18-7.238-2.136-.957-7.527-1.815-12.969-2.765-8.912-1.555-7.362-.434-13.366-5.856 64.373-35.53 42.147-79.882 28.928-91.284z"/></g><path d="m85.42 514.939c-18.564.827-62.469 6.389-78.449-18.236-12.171-18.754-5.881-50.983-.105-51.877 2.443-.379 3.882 4.986 7.651 9.222 16.37 18.4 73.945 12.424 104.468-21.393 27.038-29.956 24.562-72.545 24.085-78.693-.113-1.457-.227-2.615-.308-3.425-5.176-51.5-44.989-88.951-34.2-106.54a4.116 4.116 0 0 1 1.62-1.469c20.23-10.836 70.935 11.6 92.231 56.18 2.168-33.3 27.855-24.343 23.644 57.588 7.581-15.078 15.745-21.288 21.26-19.452 8.408 2.8 4.984 45.012-9.285 72.014-44.932 85.015-138.514 105.453-152.612 106.081z" fill="#ffe3c3"/><path d="m381.006 143.474 14.672-72.02c.773-3.795-5.178-7.337-8.228-4.951-5.507 3.561-11.2 7.531-17.012 11.957a265.914 265.914 0 0 0 -30.849 27.367 226.143 226.143 0 0 1 21.255 17.191 219.271 219.271 0 0 1 20.162 20.456z" fill="#ffe3c3"/><path d="m184.645 154.434a35.177 35.177 0 0 1 5.291-17.446c7.3-11.487 21.79-17.091 37.894-17.256a42.851 42.851 0 0 1 23.292 6.448c9.28 5.934 6.984 14.447 18.695 23.1 12.175 9 31.121 17.992 27.353 26.411-20.122 44.961-113.64 8.721-112.525-21.257z" fill="#ffe3c3"/><path d="m217.477 85.4a.013.013 0 0 1 -.013.013" fill="none"/><path d="m392.185 384.416c-12.154-.427-14.988-9.973-21.617-15.355-15.1-12.209-43.666-2.218-62.241-10.675-13.187-6.023-17.9-19.855-18.461-32.8-.583-12.932 1.877-26.321-1.547-38.747-1.1-3.993-2.814-7.886-2.929-12.057-.583-23.241 47.9-42.3 89.336-27.209l.71-.026c30.236 38.239 35.728 92.01 16.749 136.869z" fill="#ffe3c3"/><path d="m250.637 135.757-19.437 8.043-8.3-12.11a2.935 2.935 0 0 1 2.986-4.54l24.365 4.779a2.008 2.008 0 0 1 .386 3.828z" fill="#2b2929"/><path d="m251.758 162.738a37.029 37.029 0 0 1 -21.217-6.7l-5.249-3.659a1 1 0 0 1 -.252-1.387l5.339-7.756a1 1 0 0 1 1.648 1.134l-4.775 6.937 4.432 3.09a35.022 35.022 0 0 0 30.244 4.841 1 1 0 1 1 .574 1.915 37.369 37.369 0 0 1 -10.744 1.585z" fill="#2b2929"/><path d="m213.949 153.391a10.907 10.907 0 0 1 -10.726-8.937 1 1 0 0 1 1.967-.363 8.912 8.912 0 0 0 9.411 7.277l11.191-.806a1 1 0 0 1 .144 1.994l-11.191.806c-.267.02-.533.029-.796.029z" fill="#2b2929"/><path d="m225.087 115.6a11.94 11.94 0 0 1 -6.3-1.708c-4.364-2.681-5.565-7.765-5.879-9.826a1 1 0 1 1 1.977-.3c.272 1.786 1.3 6.18 4.949 8.422 4.588 2.818 12.53 1.556 17.881-5.431a1 1 0 0 1 1.588 1.216c-3.735 4.875-9.191 7.627-14.216 7.627z" fill="#2b2929"/><path d="m307.047 112.813a10.565 10.565 0 0 1 -10.147-5.013l-3.942-6.48a10.892 10.892 0 0 0 -13.4-4.431l-12.1 4.91a15.953 15.953 0 0 0 -9.419 18.872l1.18 4.446a23.345 23.345 0 0 0 19.327 17.134l8.744 1.225a25.559 25.559 0 0 0 27.444-16.245l1.129-2.974a8.48 8.48 0 0 0 -8.816-11.444z" fill="#ffe3c3"/><path d="m291.557 132a25.6 25.6 0 0 1 -8.81-1.564c-12.532-4.563-16.221-16.608-16.6-17.967a1 1 0 0 1 1.926-.538c.351 1.257 3.765 12.4 15.359 16.626 11.952 4.352 21.872-2.429 22.964-3.217a1 1 0 0 1 1.17 1.623 29.089 29.089 0 0 1 -16.009 5.037z" fill="#2b2929"/><path d="m5.879 401.723c.565 1.4 5.77 13.934 14.3 14.806 6.591.674 14.886-5.645 19.37-17.075a15.1 15.1 0 0 1 16.828-9.319c8.015 1.484 15.225.2 19.295-3.789 7.092-6.959 6.927-24.394-5.64-38.652a11.009 11.009 0 0 1 -.685-13.747 17.708 17.708 0 0 0 -2.43-23.506l-14.667-13.318a133.16 133.16 0 0 0 -11.95 12.35c-26.906 31.664-33.077 69.127-34.421 92.25z" fill="#ffe3c3"/><path d="m365.461 106.151a164.664 164.664 0 0 0 -35.421-26.729l62.4-24.621 22.481 19.022-19.089 73.788a164.877 164.877 0 0 0 -30.371-41.46z" fill="#0e1049"/></svg></g><!--ITEM: Illustration component 4--><g transform="translate(253.125 929.6875) rotate(0.0 373.4375 335.9375)  scale(1.5594333319413705 1.5617300307755246)"><svg width="478.94" height="430.212" viewBox="0.0 0.0 478.94 430.212"><g fill="#80862c"><path d="m256.194 83.267a3.5 3.5 0 0 1 -.757-6.917c10.67-2.376 21.971-8.839 26.71-20.246-11.947 1.685-24.706-1.324-32.547-8.637a21.892 21.892 0 0 1 -4.548-26.506c3.6-6.575 11.7-12.5 23.63-9.428 13.669 3.527 23.029 17.213 22.761 33.282-.008.443-.023.887-.046 1.335a28.727 28.727 0 0 0 2.569-1.4c12.084-7.411 15.8-21.718 10.458-40.284a3.5 3.5 0 1 1 6.728-1.934c6.2 21.549 1.267 39.112-13.526 48.185a37.5 37.5 0 0 1 -7.523 3.5c-3.343 12.307-13.233 24.527-33.143 28.961a3.513 3.513 0 0 1 -.766.089zm6.306-65.544a12.409 12.409 0 0 0 -11.314 6.6 14.717 14.717 0 0 0 3.184 18.022c6.918 6.45 19.1 8.684 29.776 6.29a33.7 33.7 0 0 0 .294-3.94c.214-12.821-6.987-23.671-17.511-26.387a17.78 17.78 0 0 0 -4.429-.585z"/><path d="m231.449 142.567c-42.468 29.342-90.029 18.415-72.288-6.682 0-.011.01-.011.01-.022.457-.642.958-1.306 1.5-1.97 8.816-10.753 12.223-20.439 11.994-28.808-.218-8.522-4.2-15.673-10.067-21.158-7.27-6.813-17.425-11.08-26.894-12.266a.2.2 0 0 1 -.086-.011 42.187 42.187 0 0 0 -6.466-.3c-.413.011-.837.032-1.251.065a35.658 35.658 0 0 1 12.919-26.306 52.4 52.4 0 0 1 11.961-7.6c24.219-4.309 57.695 2.372 81.193 25.043a87.477 87.477 0 0 1 21.126 32.335q.733 1.942 1.4 3.95s4.117 23.574-25.051 43.73z"/><path d="m259.55 86.354a35.438 35.438 0 0 1 -4.451 8.533c-12.941 18.284-41.532 21.7-63.81 16.967a64.658 64.658 0 0 1 -18.622-6.769c-9.425-5.42-14.268-12.93-10.067-21.158 1.774-3.472 5.159-7.074 10.481-10.7a51.926 51.926 0 0 1 5.692-3.341c15.825-8.064 37.961-10.219 55.2-7.335 17.621 2.961 30.137 11.2 25.577 23.803z"/></g><path d="m212.954 104.556c-1.818 8.587-28.021 24.124-35.357 31.329h-18.436c0-.011.01-.011.01-.022.457-.642.958-1.306 1.5-1.97 8.816-10.753 12.223-20.439 11.994-28.808-9.425-5.42-14.268-12.93-10.067-21.158-7.27-6.813-17.425-11.08-26.894-12.266a.2.2 0 0 1 -.086-.011 36.878 36.878 0 0 0 -6.466-.3c-.413.011-.837.032-1.251.065a35.658 35.658 0 0 1 12.919-26.306c16.619 6.106 29.331 14.824 37.951 24.782 18.937-.783 37.154 20.609 34.183 34.665z" fill="#5b5c1a"/><path d="m353.024 169.989c-27.662-63.421-96.372-108.789-158.124-93.926-46.961 11.3-73.369 61.529-62.506 174.4 13.636 141.69 104.621 196.089 175 174.8 75.133-22.728 100.079-130.44 45.63-255.274z" fill="#d88830"/><path d="m260.693 71.226c-20.792 4.089-37.151 19.448-43.447 36.013-32.754-21.321-67.6-25.225-99.508-1.61-123.871 65.21-193.612 294.523 16.739 315.089h.011c61.878 11.983 178.667 14.95 250.647-4.941 58.325-16.119 93.805-70.877 93.805-130.331 0-159.128-138.656-229.838-218.247-214.22z" fill="#f8a036"/><path d="m134.477 420.718c-27.275-2.667-49.836-8.838-68.175-17.7-74.521-68.351-41.444-210.778 29.266-283.567a183.671 183.671 0 0 1 22.17-13.822c.032-.022.076-.055.109-.077-91.008 81.671-98.907 266.458 16.63 315.166z" fill="#d88830"/><path d="m359.178 355.428c-1.045 23.573-16.423 53.372-38.9 71.7-8.512.838-17.142 1.48-25.784 1.948 31.119-12.037 56.728-42.282 64.684-73.648z" fill="#d88830"/><path d="m263.164 167.523c-10.492-27.72-25.316-46.875-45.918-60.284a52.669 52.669 0 0 1 5.823-10.992 99.138 99.138 0 0 1 40.095 71.276z" fill="#d88830"/><path d="m263.164 168.523a1 1 0 0 1 -.935-.646c-8.467-22.369-21.9-41.267-38.863-54.652-17.861-14.1-38.829-21.869-62.319-23.093a1 1 0 1 1 .1-2c23.911 1.245 45.26 9.159 63.454 23.52 17.241 13.61 30.9 32.806 39.493 55.514a1 1 0 0 1 -.935 1.354z" fill="#403838"/><path d="m227.312 218.718a30.605 30.605 0 0 1 -31.922 29.233c-15.086-.661-3.386-10.919-6.475-22.971s-20.967-25.9-8.141-33.732c20.47-12.567 47.64 2.657 46.538 27.47z" fill="#d88830"/><path d="m214.251 223.071a30.535 30.535 0 0 1 -14.616 24.771 28.926 28.926 0 0 1 -4.245.109 30.609 30.609 0 0 1 -14.616-56.7 30.6 30.6 0 0 1 33.477 31.823z" fill="#2b2929"/><path d="m388.41 174.433a28.56 28.56 0 0 1 -29.777 27.274c-12.395-.548.386-8.294-3.455-18.044-4.255-10.8-23.961-24.063-13.219-32.717 18.919-15.252 47.524-1.189 46.451 23.487z" fill="#d88830"/><path d="m377.526 179.875a28.472 28.472 0 0 1 -10.644 20.994 28.562 28.562 0 0 1 -24.923-49.923 28.569 28.569 0 0 1 35.567 28.929z" fill="#2b2929"/><path d="m362.921 306.091-5.225-2.558-2.84-2.579-10.7-9.708a2.467 2.467 0 0 0 -2.286-.827c-.718.206-1.219.979-1.339 2.231l-3.047 30.267a130.457 130.457 0 0 1 -22.279 8.543c-37.657 10.666-75.172 5.627-99.41-13.942a.043.043 0 0 0 -.033-.01 72.891 72.891 0 0 1 -19.562-23.988c-1.295-2.59-.141-3.961 2.623-3.058a109.531 109.531 0 0 0 22.822 4.615q7.281.75 15.259.816l23.781 23.7a3.152 3.152 0 0 0 1.535.936c1.066.229 1.925-.544 2.154-2.166l2.547-17.99.076-.5.871-6.171a254.126 254.126 0 0 0 33.978-7.237c33.641-9.523 62.1-24.6 80.4-41 .816-.73 1.621-1.47 2.394-2.21a94.01 94.01 0 0 0 7.031-7.4c1.872-2.209 3.58-1.654 3.831 1.241 2.235 25.804-10.302 49.709-32.581 68.995z" fill="#2b2929"/><path d="m260.681 319.6a3.152 3.152 0 0 0 1.535.936c-2.363 1.589-11.7 3.026-14.443.392l-26.132-25.848q7.281.75 15.259.816z" fill="#d88830"/><path d="m266.993 299.876-.076.501" fill="#d88830"/><path d="m310.658 254.906c-3.124.25-6.987-.653-11.308-3.091-9.937 15.781-24.379 9.556-20.614-8.751a26.125 26.125 0 0 1 6.7-12.712 27.634 27.634 0 0 1 6.813-5.344 1.013 1.013 0 0 1 .587-.119c2.025.152 13.594 1.4 20.484 9.425 8.951 10.405 5.991 19.906-2.662 20.592z" fill="#d88830"/><path d="m310.658 254.9v.011c-3.124.25-6.987-.653-11.308-3.091-9.937 15.781-24.379 9.556-20.614-8.751a26.125 26.125 0 0 1 6.7-12.712c2.525.218 13.593 1.633 20.265 9.4 4.968 5.767 6.263 11.274 4.957 15.143z" fill="#2b2929"/><path d="m341.872 290.419c-.718.206-1.219.979-1.339 2.231l-3.047 32.444a130.457 130.457 0 0 1 -22.279 8.543c-37.657 10.666-75.172 3.45-99.41-16.119 28.983 15.074 70.884 20.483 110.131 4.267l3.689-23.16c.683-3.925 9.872-8.525 12.255-8.206z" fill="#d88830"/><path d="m362.944 308.267-5.248-4.75c17.246-17 26.895-36.306 27.054-60.368 0-.036 4.943-5.045 7.063-7.535 1.88-2.217 3.6-1.66 3.848 1.245 2.251 25.892-10.341 52.058-32.717 71.408z" fill="#d88830"/></svg></g><!--ITEM: Illustration component 5--><g transform="translate(2406.25 957.8125) rotate(0.0 146.09375 319.53125)  scale(1.5558854069597168 1.560302605621423)"><svg width="187.795" height="409.576" viewBox="0.0 0.0 187.795 409.576"><path d="m158.263 409.576h-121.277l-20.586-67.907a20.087 20.087 0 0 1 -.927-5.849c.01-4.551 1.7-7.1 5.651-6.712l144.362 18.111c2.783.443 4.268 5.475 3.4 10.607z" fill="#d88830"/><path d="m89.84 362.8c42.193 4.193 77.223-.725 78.243-10.984s-32.359-21.973-74.552-26.165-76.631-3.119-77.647 7.139 31.763 25.815 73.956 30.01z" fill="#f8a036" fill-rule="evenodd"/><path d="m105.621 171.269c45.9-3.118 96.88-48 78.223-107.192-18.218-57.8-96.387-86.738-150.151-42.8-44.5 36.366-37.349 90.391-21.4 110.411s33.324 43.657 93.328 39.581z" fill="#ffdc83" fill-rule="evenodd"/><path d="m140.442 166.978v179.371c-.5 5.024-22.715 6.926-49.619 4.254-20.941-2.078-38.355-7.46-44.81-12.1a6.147 6.147 0 0 1 -2.49-5.006v-166.519z" fill="#eacaac"/><ellipse cx="91.982" cy="166.978" fill="#ffe3c3" rx="48.46" ry="8.842"/><path d="m56.71 123.815c14.318 21.526 57.782 25.32 74.656-12.695s-18.015-77.872-54.713-62.271c-28.635 12.174-36.713 49.751-19.943 74.966z" fill="#f8a036" fill-rule="evenodd"/><path d="m105.423 134.611c2.965 35.212-28.233 42.6-31.629 1.772-1.4-21.424 10.246-47 15.652-57.125 1.364-2.556 3.134-2.369 3.935.415 3.074 10.688 10.701 36.76 12.042 54.938z" fill="#ff5e43" fill-rule="evenodd"/><path d="m122.281 169.732c13.458 2 .384 30.35 3.913 43.408s19.7 12.352 21.114-2.47-9.956-20.3-5.384-34.658c3.671-11.531-6.938-12.57-6.938-12.57z" fill="#ffe3c3"/><path d="m108.1 170.262c5.468 0 11.107 1.75 9.7 9.452-2.167 11.866-.245 29.755 5.064 45.144 6.077 17.613-9.351 32.355-5.784 51.8 2.788 15.2-15.823 14.984-14.121-3.08s14.781-29.474 7.877-48.716c-6.381-17.787-4.6-31.126-3.284-44.6.618-6.334-3.414-8.6-9.158-8.3.743-2.524 9.706-1.7 9.706-1.7z" fill="#ffe3c3"/><g fill="#403838"><path d="m118.9 365.174c-9.179 0-19.034-.5-29.143-1.506-43.4-4.312-75.81-20.186-74.739-30.964a.875.875 0 0 1 1.741.173c-.863 8.684 29.482 24.709 73.171 29.05 20.339 2.02 39.642 2 54.354-.069 14.131-1.984 22.489-5.676 22.932-10.131a.875.875 0 1 1 1.741.173c-.688 6.925-13.665 10.18-24.43 11.691a187.524 187.524 0 0 1 -25.627 1.583z"/><path d="m91.982 176.7c-23.916 0-49.334-3.405-49.334-9.717a.875.875 0 0 1 1.75 0c0 3.327 18.1 7.967 47.584 7.967a.875.875 0 1 1 0 1.75z"/></g></svg></g><!--ITEM: Illustration component 6--><g transform="translate(1076.5625 226.5625) rotate(-61.949580521952925 59.375 62.5)  scale(1.5406871140173337 1.529931581459677)"><svg width="77.076" height="81.703" viewBox="0.0 0.0 77.076 81.703"><path d="m35.293.214c-21.207 2.07-36.946 18.633-35.154 36.995.913 9.354 6.205 17.364 13.976 22.705l1.423 14.586a8.868 8.868 0 0 0 2.862 5.7 2.248 2.248 0 0 0 3.725-1.418l1.418-11.626a2.356 2.356 0 0 1 2.109-2.059l2.93-.286a2.356 2.356 0 0 1 2.579 2.508l-.781 11.218a2.964 2.964 0 0 0 3.245 3.155l3.609-.352a4.448 4.448 0 0 0 3.982-3.888l1.413-11.583a2.357 2.357 0 0 1 2.109-2.059l2.93-.286a2.357 2.357 0 0 1 2.579 2.508l-.83 11.858a1.926 1.926 0 0 0 2.108 2.051 7.258 7.258 0 0 0 6.528-7.41 6.584 6.584 0 0 1 .03-.983l1.317-10.468c11.589-6.771 18.78-18.634 17.537-31.367-1.792-18.362-20.437-31.569-41.644-29.499z" fill="#ffe3c3"/><ellipse cx="20.304" cy="32.508" fill="#eacaac" rx="9.998" ry="7.881" transform="matrix(.99526988 -.09714864 .09714864 .99526988 -3.062 2.126)"/><ellipse cx="21.249" cy="34.322" fill="#1c1a1a" rx="9.998" ry="7.881" transform="matrix(.99526988 -.09714864 .09714864 .99526988 -3.234 2.227)"/><ellipse cx="52.175" cy="29.397" fill="#eacaac" rx="9.998" ry="7.881" transform="matrix(.99526988 -.09714864 .09714864 .99526988 -2.609 5.208)"/><ellipse cx="53.985" cy="30.683" fill="#1c1a1a" rx="9.998" ry="7.881" transform="matrix(.99526988 -.09714864 .09714864 .99526988 -2.725 5.39)"/><path d="m40.653 51.83-6.006-.1c-3.05-.22-3.695-2.022-2.943-3.463l4.206-8.067a1.655 1.655 0 0 1 2.993.2l3.405 9.335a1.53 1.53 0 0 1 -1.655 2.095z" fill="#eacaac"/><path d="m41.07 51.925-6.215-.182a2.117 2.117 0 0 1 -1.862-3l3.537-7.7a1.47 1.47 0 0 1 2.7.079l3.37 8.63a1.6 1.6 0 0 1 -1.53 2.173z" fill="#1c1a1a"/></svg></g></svg>