<svg xmlns="http://www.w3.org/2000/svg" viewBox="0 0 1920 1080" width="1920" height="1080"><g transform="translate(1252.0 121.0) rotate(0.0 298.5 433.5) scale(0.9992350913956988 0.9994224790518974)"><svg width="597.457" height="867.501" viewBox="0 0 597.457 867.501"><path d="M435.558 403.129c-17.55-2.03-28.73-47.29-35.56-88.08-5.46-41-8.07-87.54 8.11-94.64 42.48 84.68 35.98 169.74 27.45 182.72z" fill="#5b5c1a"/><path d="M435.558 403.129c8.53-12.98 15.03-98.04-27.45-182.72 16.48-7.34 48.92 35.73 55.74 85.05 7.98 49.15-10.38 99.841-28.29 97.67z" fill="#80862c"/><path d="M435.557 404.129a1 1 0 0 1-.835-1.549c3.8-5.78 7.937-29.41 5.243-63.845a321.438 321.438 0 0 0-32.751-117.877 1 1 0 0 1 1.788-.9 323.461 323.461 0 0 1 32.957 118.618c2.571 32.87-.948 58.074-5.565 65.1a1 1 0 0 1-.837.453z" fill="#033a11"/><path d="M437.668 402.4c-1.46.96-3.65 1.07-6.62.25-18.77-5.33-75.42-42.171-120.21-76.16-41.97-31.93-61.76-66.11-35.7-72.69a34.8 34.8 0 0 1 5.94-.96c22.29-1.87 85.7 30.95 121.2 77.13 30.13 39.152 43.03 67.43 35.39 72.43z" fill="#5b5c1a"/><path d="m437.668 402.4-2.11.73c-20.93-30.7-74.139-122.538-160.42-149.33a34.8 34.8 0 0 1 5.94-.96c22.29-1.87 85.7 30.95 121.2 77.13 30.13 39.152 43.03 67.43 35.39 72.43z" fill="#80862c"/><path d="M592.954 867.5a4.5 4.5 0 0 1-4.349-3.356c-60.359-229.368-116.263-408.8-192.912-538.978-84.267-143.112-188.13-216.528-326.866-231.042a4.5 4.5 0 1 1 .937-8.951c73.809 7.721 137.138 31.574 193.606 72.921C315.881 196.543 361.7 249.7 403.449 320.6c77.172 131.067 133.311 311.164 193.86 541.255a4.5 4.5 0 0 1-4.355 5.646z" fill="#8e5740"/><path d="M187.108 119.219C126.028 74.459 33.428 79.069.438 94.3c2.18-7.01 12.68-10.61 28.16-14.96 18.41-4.67 43.94-10.41 69.61-11.97 61.86-5.161 95.02 38.739 88.9 51.849z" fill="#80862c"/><path d="M187.108 119.219c-3.19 7.45-16.19 6.82-34.05 7.64-45.29.92-89.26 9.86-122.62-2.07-17.15-5.64-28.99-16.75-30.33-26.02a10.111 10.111 0 0 1 .33-4.47c32.99-15.23 125.59-19.84 186.67 24.92z" fill="#5b5c1a"/><path d="M184.218 122.809c-14.2 10.51-53.29-14.91-86.14-40.03-31.99-26.21-65.69-58.41-58.72-74.65 18.59-1.11 46.23 13.79 72.43 33.69 35.43 26.9 68.22 62.96 72.43 80.99z" fill="#5b5c1a"/><path d="M184.218 122.809c-4.21-18.03-37-54.09-72.43-80.99-26.2-19.9-53.84-34.8-72.43-33.69 7.01-16.62 60.13-7.34 98.8 24.03 39.4 30.441 60.63 80 46.06 90.65z" fill="#80862c"/><g fill="#033a11"><path d="M62.121 51.408a1 1 0 0 1-.47-1.883c25.49-13.519 48.118-10.2 48.343-10.164a1 1 0 1 1-.307 1.976c-.219-.034-22.225-3.238-47.1 9.955a.994.994 0 0 1-.466.116zm379.685 306.714a1 1 0 0 1-.992-.888c-4-35.543-26.127-69.091-44.292-78.125a1 1 0 0 1 .891-1.791c18.636 9.268 41.321 43.5 45.388 79.692a1 1 0 0 1-.882 1.106 1.069 1.069 0 0 1-.113.006zM175.8 126.191c-14.346 0-38.952-13.025-73.436-38.909a1 1 0 0 1 1.2-1.6c29.248 21.954 66.881 46.076 80.058 36.323a1 1 0 1 1 1.19 1.607 14.777 14.777 0 0 1-9.012 2.579z"/><path d="M184.217 123.809a1 1 0 0 1-.973-.772c-4.024-17.231-36.35-53.308-72.061-80.421C81.45 20.032 55.959 8.136 39.417 9.128a1 1 0 0 1-.119-2c9.857-.589 32.464 3.031 73.1 33.892 36.638 27.817 68.615 63.642 72.8 81.559a1 1 0 0 1-.975 1.227z"/></g></svg></g><g transform="translate(69.0 499.0) rotate(0.0 411.0 244.5) scale(0.99996350498157 0.9996218199658616)"><svg width="822.03" height="489.185" viewBox="0 0 822.03 489.185"><path d="M733.409 488.185H357.935c-168.9-232.02-205.16-440.262-118.1-462.164 75.008-18.848 241.514 100.566 493.574 462.164z" fill="#7c7c29"/><path d="M571.04 489.186a1 1 0 0 1-.877-.52c-42.8-78.139-99.983-179.152-162.8-267.442-69.9-98.249-132.988-160.4-187.509-184.716a1 1 0 1 1 .815-1.826c54.851 24.467 118.212 86.839 188.324 185.382 62.876 88.375 120.1 189.454 162.922 267.641a1 1 0 0 1-.876 1.481z" fill="#05541a"/><path d="m822.03 488.185-346.146.068C374.041 245.742 324.736 58.889 347.445 13.4 372.07-35.924 589.767 35.6 822.03 488.185z" fill="#4f4f19"/><path d="M748.351 489.186a1 1 0 0 1-.924-.619C715.444 411.186 650.615 305.1 578.239 211.72 496.84 106.7 418.905 32.88 358.788 3.87a1 1 0 1 1 .87-1.8c60.389 29.14 138.578 103.161 220.161 208.43 72.481 93.51 137.41 199.768 169.456 277.3a1 1 0 0 1-.924 1.383z" fill="#033a11"/><path d="M534.865 488.185H102.438q-18.594-30.066-32.814-57.133C-14.994 270.3 11.644 187.57 88.612 173.869c23.612-4.205 51.956-1.915 83.285 6.621 109.644 29.858 255.767 136.129 362.968 307.695z" fill="#7c7c29"/><path d="M258.789 489.185a1 1 0 0 1-.983-.828c-11.821-67.948-42.316-136.351-85.867-192.608-40.583-52.423-87.928-88.341-129.9-98.546a1 1 0 0 1 .473-1.944c42.4 10.31 90.15 46.491 131.006 99.266 43.746 56.51 74.379 125.226 86.255 193.489a1 1 0 0 1-.814 1.157 1.017 1.017 0 0 1-.17.014z" fill="#033a11"/><path d="M253.46 463.548a1 1 0 0 1-.3-1.956c27.733-8.606 57.067-29.391 80.479-57.025 25.989-30.676 41.905-66.913 44.817-102.036a1 1 0 0 1 1.993.165c-2.946 35.535-19.028 72.172-45.284 103.163-23.652 27.918-53.325 48.928-81.412 57.644a1.025 1.025 0 0 1-.293.045z" fill="#033a11"/><path d="M666.862 102.591c-.065.152-.14.3-.2.454" fill="#eacaac"/><path d="M176.252 488.185H91.745C41.732 488.185.352 448.141 0 398.128c-.581-83.284 112.928-7.44 176.252 90.057z" fill="#5b5c1a"/><path d="M124.34 489.185a1 1 0 0 1-.859-.486C104.9 457.664 65.141 401.027 7.619 370.407a1 1 0 1 1 .94-1.765c57.948 30.847 97.951 87.816 116.638 119.03a1 1 0 0 1-.857 1.513z" fill="#05541a"/></svg></g><g transform="translate(1225.0 350.0) rotate(0.0 217.0 256.5) scale(0.9983988810571065 0.9997602913921223)"><svg width="434.696" height="513.123" viewBox="0 0 434.696 513.123"><path d="M315.843 262.536a1.671 1.671 0 0 1-.54.09 3.705 3.705 0 0 1-2.6-1.52c-5.88-6.63-18.57-34.59-27.41-58.55-7.29-19.86-7.54-36.15.47-37.04a8.532 8.532 0 0 1 3.63.48 15.04 15.04 0 0 1 2.51 1.09c8.99 4.73 25.25 32.8 27.55 59.16 1.88 21.36.17 35.08-3.61 36.29z" fill="#5b5c1a"/><path d="M315.843 262.536a1.671 1.671 0 0 1-.54.09 3.705 3.705 0 0 1-2.6-1.52c-5.88-6.63-18.57-34.59-27.41-58.55-7.29-19.86-7.54-36.15.47-37.04 4.38 26.75 16.06 66.24 30.08 97.02z" fill="#80862c"/><path d="M430.19 513.124a4.5 4.5 0 0 1-4.438-3.791c-14.27-89.362-68.3-195.578-148.246-291.412C200.689 125.833 112.48 59 41.549 39.141a4.5 4.5 0 1 1 2.426-8.667c72.618 20.331 162.5 88.25 240.442 181.682C365.367 309.2 420.121 417 434.64 507.913a4.5 4.5 0 0 1-3.734 5.154 4.6 4.6 0 0 1-.716.057z" fill="#8e5740"/><path d="M58.674 22.1c35.841 20.829 46.618 33.594 44.2 37.8s-18.869 1.3-54.9-19.2C12.14 19.87-.328 10.013 3.777 2.9s18.874-1.3 54.897 19.2z" fill="#4f4f19"/><path d="M100.733 62.306c-8.75 2.5-40.25 1.791-66.35-.7-10.24-.98-19.03-3.08-25.17-5.84-9.52-4.29-12.62-10.19-4.71-16.05 8.38-6.22 41.58-8.76 66.99.83 1.68.63 3.3 1.27 4.86 1.9 22.3 9 32.43 17.5 24.38 19.86z" fill="#80862c"/><path d="M100.733 62.306c-8.75 2.5-40.25 1.791-66.35-.7-10.24-.98-19.03-3.08-25.17-5.84 11.66-10.46 34.28-15.99 67.14-13.32 22.3 9 32.43 17.5 24.38 19.86z" fill="#4f4f19"/><path d="M102.5 58.441a1 1 0 0 1-.8-.4c-2.883-3.848-12.5-9.331-25.72-14.667a207.39 207.39 0 0 0-4.837-1.892C58.618 36.756 45.663 35.475 37 35.233a1 1 0 0 1 .056-2c8.816.247 22.008 1.554 34.79 6.378 1.686.632 3.314 1.275 4.881 1.908 13.749 5.549 23.434 11.134 26.573 15.323a1 1 0 0 1-.8 1.6z" fill="#033a11"/></svg></g><g transform="translate(300.0 250.0) rotate(0.0 189.5 224.5) scale(0.9999050222142488 0.9989943308740422)"><svg width="379.036" height="449.452" viewBox="0 0 379.036 449.452"><path d="M327.011 449.453a4.594 4.594 0 0 1-.508-.029 4.5 4.5 0 0 1-3.97-4.974c19.123-170.334 22.622-283.341 10.7-345.479C323.14 46.4 303.98 39.145 285.219 36.22c-27.654-4.311-53.13 8.406-64.906 32.4a4.5 4.5 0 1 1-8.079-3.965c13.548-27.607 42.742-42.259 74.371-37.328 26.012 4.056 45.4 17.5 55.463 69.948 12.1 63.041 8.635 176.931-10.591 348.179a4.5 4.5 0 0 1-4.466 3.999z" fill="#8e5740"/><path d="M216.274 66.638C184.494-49.982-4.816.278.094 111.228c.14 3.18.35 6.36.65 9.52.65 7.12 6.17 9.86 12.27 6.1 26.02-16.04 58.67-24.21 75.37-27.59 5.94-1.2 10.28 2.74 9.66 8.76l-.04.33c-.83 8.01-7.39 17.52-14.66 21.01-18.7 8.97-37.06 23.64-51.75 38.63-9.691 9.883-13.2 24.819-5.37 41.09q2.4 5.07 4.97 10.06c3.07 5.98 9.03 6.64 13.38 1.52 12.99-15.34 24.49-25 37.25-32.69 7.57-4.56 14.18-1.1 14.68 7.73l.02.31c.437 7.657-3.255 19.207-9.21 25.56-19.08 21.33-19.85 56.94-1.78 79.14 13.3 16.33 26.84 31.2 39.54 44.25a815.35 815.35 0 0 0 27.73 27.18 5.278 5.278 0 0 0 7.85-.62c2.31-2.92 4.87-6.06 7.75-9.55a100.864 100.864 0 0 0 22.08-80.96c-3.234-23.859-1.271-36.284-1.21-38.98.92-8.38 5.16-9.3 9.49-2.06a285.171 285.171 0 0 1 21.57 44.83c2.62 6.96 8.88 8.18 13.92 2.7l.23-.25a40.47 40.47 0 0 0 9.63-37c-8.22-33.33-24.47-64.63-37.3-80.28a13.659 13.659 0 0 1-2.39-10.94l.05-.17c.76-2.74 3.14-3.47 5.26-1.58 15.94 14.24 37.18 44.69 50.02 83.98 2.45 7.49 8.77 8.85 14.08 3.02.93-1.04 1.89-2.08 2.84-3.14a56.215 56.215 0 0 0 5.47-68.62c-16.42-24.96-36.81-45.17-53.08-56.36-10.8-7.428 3.878-24.215 17.69-16.96 23.51 12.37 55.67 35.56 80.17 67.92 3.89 5.14 10.45 5.37 14.64.48q6.555-7.65 13.27-15.62c89.29-105.9-93.95-161.61-138.56-85.34zm-140.4 4.274c-15.824.493-33.464-.127-36.584-5-1.687-2.6 1.053-6.589 5.78-11.477 4.821-4.771 11.621-10.439 20.162-13.621 19.042-7.852 41.55 2.627 42.709 13.958 1.23 11.338-16.529 15.004-32.066 16.14zm28.009 228.3c-6.47 2.17-17.1-15.22-17.87-34.03-1.21-18.78 7.54-37.19 14.2-35.72 6.53 1.41 9.09 18.84 10.17 34.44.561 15.626-.149 33.226-6.499 35.306zm226.89-169.67c-3.5 1.52-7.3-2.58-13.1-7.66-14.29-13.27-30.89-23.49-37.18-37.46-3.39-7.01-3.31-14.26-.59-17.75 2.99-3.76 7.89-1.73 15.34 2.08 7.27 3.97 17.08 9.71 25.54 16.89 20.851 16.826 16.301 41.366 9.991 43.896z" fill="#05541a"/><g fill="#033a11"><path d="M155.637 374.542a1 1 0 0 1-.928-.627c-15.81-39.3-19.615-93.012-10.438-147.356 7.144-42.307 25.3-104.5 71.228-160.557a1 1 0 0 1 1.547 1.268c-45.65 55.712-63.7 117.554-70.8 159.622-9.117 53.99-5.355 107.306 10.322 146.277a1 1 0 0 1-.928 1.373z"/><path d="M26.226 210.077a1 1 0 0 1-.842-1.538c21.7-34.043 53.438-54.4 76.241-65.48 26.68-12.966 56.089-20.145 76.751-18.734a1 1 0 0 1-.137 1.995c-20.333-1.385-49.355 5.716-75.74 18.538-22.571 10.969-53.979 31.107-75.428 64.756a1 1 0 0 1-.845.463zm208.26 78.167a1 1 0 0 1-.992-.886c-3.184-27.73-12.2-52.583-26.064-71.871-13.806-19.2-31.425-31.5-50.952-35.556a1 1 0 1 1 .407-1.958c20.025 4.16 38.065 16.728 52.169 36.346 14.066 19.565 23.2 44.743 26.427 72.811a1 1 0 0 1-.88 1.108 1.107 1.107 0 0 1-.115.006zm46.138-50.999a1 1 0 0 1-1-.941c-2.052-34.476-19.076-62.486-32.995-79.914-16.643-20.84-38.141-38.39-58.979-48.159a1 1 0 0 1 .849-1.811c21.106 9.892 42.864 27.65 59.695 48.722 14.1 17.654 31.345 46.044 33.429 81.043a1 1 0 0 1-.939 1.058z"/></g></svg></g><g transform="translate(1147.0 511.0) rotate(0.0 363.0 239.5) scale(0.998756369479326 0.9996786001995184)"><svg width="726.904" height="479.154" viewBox="0 0 726.904 479.154"><path d="M388.052 478.153H135.327C83.8 394.89 48.628 326.9 27.086 273.464-81.058 5.26 154.116 103.78 388.052 478.153z" fill="#4f4f19"/><path d="M263.234 478.153H155.327C103.8 394.89 68.628 326.9 47.086 273.464c54.767 85.378 141.229 164.678 216.148 204.689z" fill="#4f4f19"/><path d="M205.1 479.154a1 1 0 0 1-.784-.379C127.783 382.4 40.381 222.717 26.6 122.316a1 1 0 1 1 1.982-.272c10.789 78.577 80.06 233.031 177.306 355.488a1 1 0 0 1-.782 1.622z" fill="#033a11"/><path d="M577.618 478.153H353.471C251.628 240.668 202.324 54.749 225.033 10.205c24.624-48.305 133.88 69.543 352.585 467.948z" fill="#4f4f19"/><path d="M577.618 478.153h-38.255c-103.135-194.9-210.1-422.308-314.33-467.948 24.624-48.305 133.88 69.543 352.585 467.948z" fill="#80862c"/><g fill="#033a11"><path d="M503.939 479.154a1 1 0 0 1-.922-.612c-45.835-108.6-165.152-370.117-282.862-452.749a1 1 0 1 1 1.149-1.637C269.41 57.926 322.61 124.59 379.429 222.3c53.076 91.272 97.505 189.3 125.431 255.468a1 1 0 0 1-.921 1.389zm-30.191 0a1 1 0 0 1-.947-.679c-16.451-48.548-49.246-121.488-91.954-180.609C323.156 218 280.5 208.535 254.873 214.656a1 1 0 0 1-.465-1.945c47.505-11.347 95.86 39.408 128.061 83.984C425.306 356 458.2 429.147 474.7 477.833a1 1 0 0 1-.947 1.321z"/><path d="M433.035 479.154a1 1 0 0 1-.957-.713c-21.817-72.675-80.681-157.4-146.8-171.277a1 1 0 0 1 .411-1.958c66.874 14.034 126.322 99.433 148.305 172.66a1 1 0 0 1-.959 1.288z"/></g><path d="M726.9 478.153H537.6c-19.351-68.634-33.776-127.646-43.947-177.788C449.4 82.322 485.35 31.948 544.487 87.26c56.191 52.572 133.306 200.6 182.413 390.893z" fill="#4f4f19"/><path d="M685.706 478.153H467.778C372.528 347.3 312.217 225.093 293.852 149.61c-8.356-34.383-8.023-59.063 1.68-70.473 22.056-25.915 92.487 16.824 219.08 170.511q20.571 24.986 43.155 53.941c.042.056.083.111.139.181 38.228 49.082 80.772 106.909 127.8 174.383z" fill="#80862c"/><path d="M557.767 303.589c-40.67-52.178-219-275.407-262.235-224.452-9.7 11.4-10.044 36.089-1.681 70.47C322.143 59.459 547.038 268.484 580.17 478.15h105.536c-75.557-108.404-123.443-168.566-127.939-174.561z" fill="#7c7c29"/><path d="M529.684 391.814a1 1 0 0 1-.873-1.487c16.189-29.055 12.883-83.081-8.04-131.382a1 1 0 1 1 1.835-.8c21.154 48.834 24.424 103.588 7.952 133.151a1 1 0 0 1-.874.518z" fill="#05541a"/><path d="M559.765 479.154a1 1 0 0 1-.967-.749c-19.295-74.387-62.55-166.6-115.707-246.679C388.347 149.26 333.785 94.9 293.394 82.592a1 1 0 1 1 .583-1.913c40.827 12.444 95.784 67.1 150.78 149.941 53.273 80.251 96.629 172.693 115.977 247.28a1 1 0 0 1-.717 1.219 1.036 1.036 0 0 1-.252.035z" fill="#05541a"/><path d="M465.364 321.781c-43.088 0-92.414-18.777-120.755-41.1a1 1 0 0 1 1.237-1.571c34.821 27.429 101.615 49.459 148.805 37.224a1 1 0 1 1 .5 1.936 119.1 119.1 0 0 1-29.787 3.511z" fill="#05541a"/><path d="M299.322 170.484a1 1 0 0 1-.956-.709c-14.014-46.006-15.257-77.572-3.6-91.286 6.886-8.091 17.911-9.591 32.769-4.457a1 1 0 0 1-.653 1.89c-14-4.837-24.294-3.538-30.593 3.863-11.037 12.981-9.622 44.733 3.986 89.407a1 1 0 0 1-.665 1.248.985.985 0 0 1-.288.044z" fill="#033a11"/></svg></g><g transform="translate(302.0 61.0) rotate(0.0 617.0 489.5) scale(1.0021154869071256 1.002654627983384)"><svg width="1231.395" height="976.408" viewBox="0 0 1231.395 976.408"><path d="M164.165 751.213c7.556-14.618 10.189-25.92 17.5-38.308 0 0-15.515-14.574-27.224-21.274-3.493-2-15.257-2.4-28.76-.516h-.01c4.382 30.341 28.429 57.3 38.494 60.098z" fill="#ae75bc"/><path d="M85.768 750.612q4.188 4.827 8.07 8.842a137.466 137.466 0 0 0 11.854 11l.012.008c14.29 11.645 25.179 14.051 33.906 10.865h.01c8.918-3.258 15.573-12.356 21.277-23.4 7.557-14.618 13.457-32.632 20.764-45.02 0 0-15.515-14.574-27.224-21.274-3.493-2-15.257-2.4-28.76-.516h-.01a122.332 122.332 0 0 0-25.443 6.234C77.433 705.9 61.4 722.5 85.768 750.612z" fill="#d1a7db"/><path d="M8.583 796.708c4.953 3.164 9.549 5.891 13.863 8.2 1.234.657 2.442 1.279 3.634 1.872.054.022.1.055.155.076.078.048.166.084.243.122l.11.053c.762.381 1.511.743 2.246 1.078a69.92 69.92 0 0 0 2.072.945c.481.214.951.42 1.429.615.513.219 1.025.438 1.535.638.424.173.858.344 1.278.5a73.13 73.13 0 0 0 2.741 1.006c31.437 10.888 50.244-4.9 101.722-30.47a35.616 35.616 0 0 0 8.875-5.725s-9.792-15.7-27.991-19.475c22.024-11.344 25.756-63.319 21.706-62.984-86.881 7.127-92.75 12.638-127.912 53.583-22.755 26.486-1.924 30.177 17.094 21 8.553-4.12 16.75-14.253 27.633-19.478.966-.474 1.95-.9 2.961-1.28a29.793 29.793 0 0 1 16.384-1.442 9.471 9.471 0 0 1 4.019 2.113 14.209 14.209 0 0 1 3.352 3.966 14.407 14.407 0 0 1 1.607 4.326 15.288 15.288 0 0 1-.726 8.482c-10.769 8.065-27.454 15.6-43.221 15.68-6.278-.756-12.423-2-18.072-3.063-14.927-2.805-37.978 6.074-16.737 19.662z" fill="#d1a7db"/><path d="M25.32 777.044c5.649 1.063 11.794 2.307 18.072 3.063 12.957-.068 26.534-5.167 36.938-11.458 7.171-4.336 8.816-14.324 2.93-20.29a9.547 9.547 0 0 0-4.9-2.819 29.793 29.793 0 0 0-16.384 1.442c11.068-6.359 28.657-8.159 33.434 2.124 3.75 8.087-3.743 19.533-16.732 25.572-6.622 3.082-7.025 1.237-27.263 13.134 8.964-1.26 15.722-.846 20.8.452l-34.326 23.545a104.536 104.536 0 0 1-15.443-6.9c-4.314-2.307-8.91-5.034-13.863-8.2-21.241-13.589 1.81-22.468 16.737-19.665z" fill="#ae75bc"/><path d="M25.34 858.948c15.766-18.611 41.526-46.223 62.217-56.871 0 0-1.319-10.242-15.339-13.813-5.08-1.3-11.838-1.712-20.8-.452a6.912 6.912 0 0 0-.453.267c-10.07 5.79-17.694 12.718-24.728 18.775-9.893 8.518-23.969 38.339-21.917 53.009 1.328 9.51 12.243 9.445 21.02-.915z" fill="#d1a7db"/><path d="M115 793.95c-18.283 9.647-40.266 35.4-54.657 51.6-7.316 8.235-18.162 10.281-19.131 2.858-2.3-17.609 7.391-43.068 42.419-63.527C113.523 780.352 115 793.95 115 793.95z" fill="#d1a7db"/><path d="M20.255 803.012a1 1 0 0 1-.873-1.487c1.285-2.306 1.3-4.357.045-6.1-2.387-3.3-8.941-4.993-14.921-3.849a1 1 0 0 1-.376-1.964c6.793-1.3 14.066.7 16.918 4.642 1.2 1.665 2.194 4.447.081 8.24a1 1 0 0 1-.874.518zm-6.605-39.001a5.414 5.414 0 0 1-2.575-.6c-1.274-.676-2.82-2.267-2.952-6.008a1 1 0 1 1 2-.071c.055 1.539.427 3.535 1.891 4.313 1.641.871 4.4.187 7.768-1.923 3.776-2.366 6.222-6.133 6.086-9.374-.111-2.662-1.9-4.963-5.183-6.654a1 1 0 0 1 .917-1.777c5 2.577 6.165 5.961 6.264 8.347.168 4-2.589 8.375-7.022 11.153-2.744 1.722-5.184 2.594-7.194 2.594zm2.52 99.743a1 1 0 0 1-.988-.857 9.965 9.965 0 0 1 3.644-9.3 9.187 9.187 0 0 1 9.369-1.143 1 1 0 0 1-.759 1.851 7.236 7.236 0 0 0-7.38.868 7.967 7.967 0 0 0-2.895 7.433 1 1 0 0 1-.846 1.133 1.022 1.022 0 0 1-.145.015zM53.059 850.9a1 1 0 0 1-.995-.916A8.88 8.88 0 0 1 54.53 843a9.766 9.766 0 0 1 7.48-2.931 1 1 0 1 1-.083 2 7.761 7.761 0 0 0-5.953 2.317 6.9 6.9 0 0 0-1.917 5.43 1 1 0 0 1-.913 1.08.806.806 0 0 1-.085.004zm-26.581-42.924a1 1 0 0 1-.714-1.7 120.736 120.736 0 0 1 24.689-19.057c.133-.087.3-.185.481-.284a166.9 166.9 0 0 1 21.326-10.48l1.4-.567a1 1 0 1 1 .75 1.854l-1.4.565a164.926 164.926 0 0 0-21.091 10.367 6.584 6.584 0 0 0-.415.244 118.844 118.844 0 0 0-24.316 18.758 1 1 0 0 1-.71.3zM41 842.341h-.056a1 1 0 0 1-.943-1.053c.64-11.686 6.578-34.351 39.152-54.858a1 1 0 0 1 1.066 1.693C48.41 808.148 42.621 830.1 42 841.4a1 1 0 0 1-1 .941z" fill="#403838"/><path d="M59.016 748.262c.966-.474 1.95-.9 2.961-1.28a29.793 29.793 0 0 1 16.384-1.442 9.471 9.471 0 0 1 4.019 2.113 14.209 14.209 0 0 1 3.352 3.966q3.879-2.01 8.3-4.4c-9.667-11.895-23.395-7.081-35.016 1.043z" fill="#ae75bc"/><path d="M474.463 506.909c-2.38 5.9-6.07 11.9-8.83 18.88-36.02 111.56-48.26 119.91-131.18 164.04-16.93 9.01-36.8 19.52-60.43 32.7-74.77 41.71-104.82 56.349-133.61 23.36-9.96-11.4-19.77-28.511-31.22-52.15-30.77-63.53 77.77-143.67 199.6-151.12-.12-.21.18-22.28 20.73-48.85 8.32-10.78 19.98-22.29 36.3-33.38 11.86-33.67 52.78-86.34 98.6-116.95 0-.01 40.1 88.58 10.04 163.47z" fill="#ffe3c3"/><path d="M1063.194 753.652c-9.84-13.19-14.281-23.911-23.511-34.941 0 0 12.93-16.91 23.39-25.43 3.12-2.54 14.66-4.86 28.29-5.2h.01c.622 30.648-18.703 61.168-28.179 65.571z" fill="#ae75bc"/><path d="M341.843 681.139q-3.525 4.395-7.39 8.69c-16.93 9.01-36.8 19.52-60.43 32.7-74.77 41.71-104.82 56.349-133.61 23.36 48.34 1.5 81.94-83.58 201.43-64.75z" fill="#eacaac"/><path d="M1139.3 735.411q-3.717 5.2-7.205 9.561a137.2 137.2 0 0 1-10.768 12.068l-.011.009c-13.134 12.936-23.748 16.354-32.736 14h-.01c-9.184-2.406-16.664-10.839-23.381-21.3-8.9-13.844-16.462-31.224-24.9-42.871 0 0 14.078-15.967 25.107-23.736 3.29-2.317 14.963-3.826 28.584-3.214h.01a122.314 122.314 0 0 1 25.917 3.818c23.493 6.371 41.021 21.39 19.393 51.665z" fill="#d1a7db"/><path d="M1220.476 774.055c-4.634 3.616-8.954 6.762-13.032 9.464-1.167.771-2.311 1.5-3.442 2.205-.052.027-.1.064-.147.091-.074.054-.157.1-.231.144l-.1.063c-.724.45-1.435.882-2.135 1.284-.659.395-1.317.77-1.974 1.135-.459.259-.908.508-1.366.747a56.38 56.38 0 0 1-1.467.779c-.406.212-.822.424-1.226.616-.884.45-1.765.859-2.635 1.259-30.275 13.792-50.481-.162-104.134-20.784a35.618 35.618 0 0 1-9.373-4.866s8.275-16.553 26.039-22.017c-22.992-9.227-31.588-60.621-27.525-60.668 87.167-1.062 93.528 3.873 132.379 41.335 25.141 24.233 4.749 29.864-15.047 22.515-8.9-3.3-18.014-12.617-29.34-16.8-1-.382-2.025-.714-3.068-1a29.786 29.786 0 0 0-16.447.1 9.472 9.472 0 0 0-3.8 2.481 14.2 14.2 0 0 0-2.965 4.263 14.4 14.4 0 0 0-1.193 4.458 15.273 15.273 0 0 0 1.519 8.376c11.478 7.018 28.8 12.951 44.5 11.553 6.179-1.342 12.18-3.158 17.705-4.747 14.594-4.183 38.376 2.493 18.505 18.014z" fill="#d1a7db"/><path d="M1201.967 756.05c-5.525 1.589-11.526 3.405-17.705 4.747-12.906 1.148-26.9-2.653-37.851-7.939-7.059-3.408-9.766-12.194-5.748-18.628a14.117 14.117 0 0 1 1.736-2.083 9.472 9.472 0 0 1 3.8-2.481 29.786 29.786 0 0 1 16.447-.1c1.043.283 2.063.615 3.068 1-11.268-6.395-24.028-9.863-32.638-.688a11.076 11.076 0 0 0-3.517 4.946c-2.973 8.4 5.562 19.094 19.06 23.887 6.882 2.446 7.11.572 28.376 10.516-9.043-.412-15.733.634-20.668 2.4l36.388 20.217a104.4 104.4 0 0 0 14.727-8.323c4.078-2.7 8.4-5.848 13.032-9.464 19.873-15.523-3.909-22.199-18.507-18.007z" fill="#ae75bc"/><path d="M1209.637 837.594c-17.443-17.048-45.683-42.119-67.282-50.777 0 0 .351-10.321 13.974-15.192 4.935-1.77 11.625-2.816 20.668-2.4.165.071.321.142.476.223 10.569 4.819 18.81 11 26.382 16.371 10.649 7.551 27.752 37.928 27.538 52.739-.181 12.193-12.044 8.527-21.756-.964z" fill="#d1a7db"/><path d="M1114.266 781.3c19.108 7.887 43.923 30.937 59.261 46.241 8.538 8.519 19.044 11.878 19.315 1.048.443-17.752-11.4-42.183-48.2-59.262-30.178-1.701-30.376 11.973-30.376 11.973z" fill="#d1a7db"/><path d="M1209.354 781.433a1 1 0 0 1-.825-.434c-2.46-3.578-1.734-6.44-.693-8.211 2.469-4.2 9.522-6.864 16.408-6.21a1 1 0 0 1-.19 1.991c-6.061-.577-12.428 1.721-14.494 5.233-1.087 1.848-.879 3.888.617 6.064a1 1 0 0 1-.823 1.567zm2.303-39.422a15.5 15.5 0 0 1-6.7-1.939c-4.675-2.349-7.83-6.448-8.039-10.443-.125-2.385.72-5.864 5.453-8.9a1 1 0 0 1 1.079 1.684c-3.106 1.991-4.674 4.45-4.535 7.11.169 3.24 2.958 6.76 6.94 8.761 3.551 1.785 6.362 2.206 7.913 1.185 1.386-.911 1.569-2.934 1.478-4.47a1 1 0 0 1 2-.118c.219 3.737-1.171 5.467-2.375 6.259a5.733 5.733 0 0 1-3.214.871zm8.168 102.013a.983.983 0 0 1-.152-.012 1 1 0 0 1-.838-1.139 7.963 7.963 0 0 0-2.844-7.452 7.233 7.233 0 0 0-7.373-.92 1 1 0 0 1-.746-1.856 9.188 9.188 0 0 1 9.361 1.207 9.972 9.972 0 0 1 3.579 9.322 1 1 0 0 1-.987.85zm-38.635-11.834a1 1 0 0 1-1-.99 6.907 6.907 0 0 0-2.419-5.226 7.766 7.766 0 0 0-6.144-1.747 1 1 0 0 1-.27-1.982 9.774 9.774 0 0 1 7.722 2.216 8.884 8.884 0 0 1 3.111 6.719 1 1 0 0 1-.99 1.01zm22.434-45.231a1 1 0 0 1-.645-.236 118.737 118.737 0 0 0-25.933-16.374 5.35 5.35 0 0 0-.446-.21 165.147 165.147 0 0 0-22-8.354l-1.44-.431a1 1 0 1 1 .573-1.916l1.443.432a166.983 166.983 0 0 1 22.246 8.445c.162.069.339.151.516.243a120.619 120.619 0 0 1 26.332 16.637 1 1 0 0 1-.645 1.764zm-11.235 35.577a1 1 0 0 1-.988-.852c-1.677-11.192-9.5-32.5-43.055-49.451a1 1 0 0 1 .9-1.785c34.356 17.358 42.4 39.365 44.131 50.939a1 1 0 0 1-.841 1.137.945.945 0 0 1-.147.012z" fill="#403838"/><path d="M1096.225 636.509c-50.715-51.828-144.4-98.4-209.334-109.979-.16-.047-.324-.1-.482-.142v-.012c-.1 0-5.334-1.547-5.436-1.577a115.249 115.249 0 0 0-1.124-18.936c-1.124-8.333-1.365-9.441-5.383-18a.04.04 0 0 0-.011-.033c-10.542-22.445-38.474-71.284-50.754-92.582-25.712-44.57-65.143-80.776-116.4-100.828-9.965 11.651-33.332 41.881-55.251 91.533-24.05 77.971 5.625 194.763 120.364 285.872l-1.272 1.969s2.709 1.073 7.765 3.087a490.558 490.558 0 0 0 56.812 37.329c56.318 31.815 116.447 51.89 162.081 52.232q13.139 5.508 26.6 11.186c52.029-13.194 75.042-46.2 86.037-78.386a61.245 61.245 0 0 0-14.212-62.733z" fill="#ffe3c3"/><path d="M1076.428 801.393c-61.135-107.8-231.965-165.931-390.422-170.049-34.236-.892-82.883-10.135-82.883-10.135H539.5c-160.306-.215-265.141 59.934-342.667 129.432C41.616 889.789 114.029 967.6 388.523 967.6c27.178 12.09 73.445 9.512 102.88 5.31a.019.019 0 0 1 .03 0 392.1 392.1 0 0 0 38.672-7.377 84.538 84.538 0 0 0 32.484-15.993c20.105-15.957 34.695-31.54 44.746-46.54 35.439 26.946 73.525 44.761 98.817 44.761 14.71 0 35.278.648 59.5 1.329 43.113 1.232 97.747.681 151.518.681 139.139.001 206.081-65.814 159.258-148.378z" fill="#5dace2"/><path d="m684.333 822.568-.01.031a41.709 41.709 0 0 1-1.76 4.989c-.14.331-.29.661-.44.98-4.88 10.681-14.08 18.431-25.5 22.691-14.91 5.57-33.6 5.19-51.46-2.41-17.41-7.41-30.43-20.15-36.93-34.31-16.52 12.56-43.55 14.8-69.27 3.859a89.44 89.44 0 0 1-17.26-9.7c-6.82-17.051-3.14-31.19.99-38.95a22.915 22.915 0 0 1 3.69-5.32c20.98-21.071 44.3-16.21 74.57 1.929 8.9 5.331 15.76 5.651 23.01 4.491 6.68-1.071 13.69-3.41 22.95-4.261a82.759 82.759 0 0 1 25.5 1.77l.13.031a.254.254 0 0 1 .12.03q3 .645 6.25 1.54c10.84 2.97 23.78 8.06 39.57 16.33 6.717 11.24 9.33 23.971 5.85 36.28z" fill="#ffe3c3"/><path d="M672.563 823.589c-10.78 25.34-35.44 38.86-67.4 25.26-17.41-7.41-30.43-20.15-36.93-34.31-16.52 12.56-43.55 14.8-69.27 3.859a89.44 89.44 0 0 1-17.26-9.7 74.715 74.715 0 0 1-20.96-22.62c-7.67-13.16-9.69-27.7-4.25-40.48 11.69-27.48 49.99-33.46 82.2-19.75h.01c1.25.54 2.49 1.1 3.72 1.69a85.4 85.4 0 0 1 17.51 11.19 76.446 76.446 0 0 0 45.67 12.76c1.38-.18 2.75-.33 4.13-.42a89.994 89.994 0 0 1 18.45.47c20.19 2.68 36.2 12.73 43.3 29.75a62.048 62.048 0 0 1 4.82 19.73 48.627 48.627 0 0 1-3.74 22.571z" fill="#ffe3c3"/><path d="M676.3 801.019a130.521 130.521 0 0 1-13.28-7.88c-1.18-14.47-11.28-30.33-34.84-41.6 20.19 2.68 36.2 12.73 43.3 29.75a62.048 62.048 0 0 1 4.82 19.73zm-215.557-14.94c-7.67-13.16-9.69-27.7-4.25-40.48 11.69-27.48 49.99-33.46 82.2-19.75h.01c-60.787-4.468-78.703 33.751-77.96 60.23zm148.99-35.011c-22.508 5.51-48.512-.729-62.734-21.162a84.653 84.653 0 0 1 12.934 8.823 76.438 76.438 0 0 0 45.67 12.759 65.63 65.63 0 0 1 4.13-.42z" fill="#f991aa"/><path d="m698.343 784.6-14.01 37.97-.01.03-2.2 5.97-11.63 31.52-13.87-8.83L606.9 819.6l-30.87-19.66 3.63-18.16 4.3-10.93c14.948-2.4 24.554-8.384 54.95-.89 7.573 1.859 23.953 5.898 59.433 14.64z" fill="#fcf0e3"/><path d="m606.9 819.6-30.87-19.66 3.63-18.16 4.3-10.93c6.68-1.07 13.69-3.41 22.95-4.26a71.906 71.906 0 0 1 16.31.234c-8.112 8.613 4.128 27.556-16.32 52.776z" fill="#eacaac"/><path d="M665.463 802.723a1 1 0 0 1-.308-.049l-63.8-20.612a1 1 0 0 1 .615-1.9l63.8 20.612a1 1 0 0 1-.307 1.952zm-4.001 20a1.012 1.012 0 0 1-.367-.07l-59.8-23.613a1 1 0 0 1 .734-1.86l59.8 23.612a1 1 0 0 1-.368 1.931z" fill="#403838"/><path d="M594.6 822.139c-52.48-14.531-78.31-25.02-78.31-25.02l10.52-20.511 6.4-12.469c6.94 3.909 22.33 5.71 36.18 6.05 8.4 2.52 15.38.62 23.99-1.311a38.915 38.915 0 0 1 4.42 2.541c13.163 8.87 14.493 23.93-3.2 50.72z" fill="#3591ba"/><path d="M606.913 766.588c-23.907 17.768-89.88 9.691-124.22-2.449 10.62-22.875 31.378-28.605 44.857-19.193 10.707 7.475 12.323-6.447 35.573 10.374 9.71 7.025 7.172-2.748 22.879 6.635a33.524 33.524 0 0 0 20.356 4.685z" fill="#c7d94f"/><path d="M574.916 771.609a5.995 5.995 0 1 1 2.488-.547 5.982 5.982 0 0 1-2.488.547zm0-9.964a3.988 3.988 0 0 0-3.735 2.593 3.982 3.982 0 1 0 3.735-2.593zm-30.058-.345a5.983 5.983 0 0 1-5.609-8.067 5.977 5.977 0 1 1 5.609 8.067zm-3.734-7.37a3.979 3.979 0 1 0 2.076-2.23 3.984 3.984 0 0 0-2.073 2.232zm-25.7.898a5.981 5.981 0 0 1-5.6-8.064 5.98 5.98 0 1 1 5.6 8.064zm-3.724-7.367a3.98 3.98 0 1 0 5.117-2.344 3.985 3.985 0 0 0-5.117 2.344z" fill="#403838"/><path d="M543.9 833.817a1 1 0 0 1-.887-.539 48.036 48.036 0 0 1 26.848-67.023 1 1 0 0 1 .642 1.894 46.038 46.038 0 0 0-25.716 64.206 1 1 0 0 1-.887 1.462zm-26.432-10.424a1 1 0 0 1-.9-.555 48.069 48.069 0 0 1 24.217-65.1 1 1 0 1 1 .774 1.844 46.07 46.07 0 0 0-23.2 62.364 1 1 0 0 1-.45 1.34.985.985 0 0 1-.441.107zM491.5 809.284a1 1 0 0 1-.908-.578 43.4 43.4 0 0 1 21-57.156 1 1 0 0 1 .837 1.817 41.4 41.4 0 0 0-20.018 54.5 1 1 0 0 1-.906 1.422z" fill="#403838"/><ellipse cx="834.347" cy="820.925" fill="#5dace2" rx="184.714" ry="98.303"/><path d="M834.347 920.228c-49.5 0-96.052-10.267-131.082-28.91-35.23-18.748-54.632-43.748-54.632-70.393 0-18.507 9.544-36.549 27.6-52.175 20.5-17.741 51.626-31.856 87.651-39.746 38.409-8.412 80.758-9.662 122.468-3.615a1 1 0 1 1-.287 1.979c-81.438-11.806-165.238 5.431-208.523 42.894-17.6 15.235-26.908 32.754-26.908 50.663 0 53.653 82.414 97.3 183.714 97.3a1 1 0 0 1 0 2z" fill="#403838"/><path d="M937.273 866.5c-.437 25.188-9.639 43.867-30.81 59.7a418.026 418.026 0 0 1-50.86 27.909c-24.682 8.851-49.2 12.64-74.27 4.081h-.01a98.674 98.674 0 0 1-10.1-4.081c-55.251-7.6-133.85-6.278-142.39-7.33-2.533-.257-5.229-.69-6.49-.94a61.833 61.833 0 0 1-33.92-17.4.131.131 0 0 1-.03-.041c-33.683-34.34-12.374-104.429 42.46-104.429 31.73 0 53.05 5.87 90.69 3.03 86.755-6.524 82.771-21.507 132.61-21.22 14.438.123 31.514 3.667 45.55 8.46 12.329 4.158 22.174 8.124 28.8 18.05 5.96 8.94 9.01 20.3 8.77 34.211z" fill="#ffe3c3"/><path d="M703.439 921.138c18.548-3.769 16.965 19.932 39.4 9.036s8.95 17.852 37.794 2.469 5.054 26.887 64.1-12.819c65.971-44.367 28.883-66.858-8.974-86.578-32.682-17.025-12.334 10.578-49.317-2.475-41.29-14.573-10.739 24.126-55.723 1.882-18.541-9.168-16.942 23.806-35.172 15.1-11.486-5.487-58.4-13.183-101.757 16.6s32.685 52.223 45.223 56.4 37.27 5.903 64.426.385z" fill="#c7d94f"/><path d="M919.483 823.108c-65.95 13.661-79.67-8.069-104.04-13.039a144.979 144.979 0 0 1 59.18-2.26c17.253 2.972 37.309 9.935 44.86 15.299zm-6.44 97.721c-12.217 10.965-42.652 26.363-57.44 33.279-25.028 8.975-49.058 12.55-74.27 4.081h-.01a98.674 98.674 0 0 1-10.1-4.081c-55.251-7.6-133.85-6.278-142.39-7.33-2.338-.237-4.9-.63-6.49-.94a61.833 61.833 0 0 1-33.92-17.4.131.131 0 0 1-.03-.041 55.5 55.5 0 0 1-11.33-17.5c30.86 5.531 63.57 22.6 70.98 31.061 42.91-7.851 100.18.279 124.48 6.58 23.24-3.35 52.29-2.011 66.7 3.2 11.66-11.46 39.2-29.09 73.82-30.909zm-247.594-94.993a609.343 609.343 0 0 1-86.432 31.464c8.981-18.947 26.869-33.332 51.835-33.332 12.603-.002 23.584.932 34.597 1.868z" fill="#f991aa"/><path d="M703.063 922.189c-13.28 1.45-26.77 2.89-39.92 4.26-58.32 6.079-110.23 10.929-110.23 10.929l4.24-120.719 128.88 27.84 18.67 4.03c22.92 16.11 26.59 57.11-1.64 73.66z" fill="#fcf0e3"/><path d="M703.063 922.189c-13.28 1.45-26.77 2.89-39.92 4.26 8.524-7.336 4.993-20.031 7.031-34.653 3.434-24.634 13.736-32.16 17.894-46.858l16.635 3.591c22.92 16.11 26.59 57.11-1.64 73.66z" fill="#eacaac"/><path d="M704.192 866.715a.95.95 0 0 1-.119-.007c-.959-.114-96.42-11.441-148.118-18.877a1 1 0 0 1 .285-1.98c51.673 7.432 147.11 18.757 148.068 18.871a1 1 0 0 1-.116 1.993zm-.376 18.823h-.055c-.781-.042-78.991-4.212-148.771-7.517a1 1 0 0 1-.952-1.046.989.989 0 0 1 1.047-.951c69.785 3.3 148 7.475 148.783 7.516a1 1 0 0 1-.052 2zM553.976 908.2a1 1 0 0 1-.034-2c59.757-2.076 148.587-3.824 149.477-3.841a.99.99 0 0 1 1.02.98 1 1 0 0 1-.981 1.019c-.89.018-89.7 1.766-149.446 3.841z" fill="#403838"/><path d="M838.659 892.532c-15.715-5.523-14.331 25.194-34.737 11.587s-38.855 20.891-49.544 5.836c-9.263-13.056-31.236 6.733-45.394 11.359l-.066.021a9.977 9.977 0 0 1-9.418-1.935c-25.369-21.123-22.861-49.982-1.394-68.446a8.824 8.824 0 0 1 10.167-1.425c42.12 20.471 39.581-6.17 64.57 8.448 35.288 20.643 24.469-20.708 51.911 2.475 14.472 12.245 27.9-.508 29.2 14.526 1.198 13.588-7.837 20.181-15.295 17.554z" fill="#3591ba"/><g fill="#403838"><path d="M728.508 847a6.491 6.491 0 0 1 0-12.982 6.5 6.5 0 0 1 6.492 6.493 6.49 6.49 0 0 1-6.49 6.489zm0-10.982a4.491 4.491 0 0 0 0 8.982 4.491 4.491 0 1 0 0-8.982zm1.206 95.082a6.491 6.491 0 0 1 0-12.982 6.5 6.5 0 0 1 6.492 6.489 6.49 6.49 0 0 1-6.49 6.493zm0-10.982a4.491 4.491 0 0 0 0 8.982 4.491 4.491 0 0 0 4.49-4.492 4.5 4.5 0 0 0-4.49-4.495zM769 933.12a6.491 6.491 0 0 1 0-12.982 6.491 6.491 0 0 1 0 12.982zm0-10.982a4.491 4.491 0 0 0 0 8.982 4.491 4.491 0 1 0 0-8.982zm-3.35-74.247a6.491 6.491 0 0 1 0-12.982 6.491 6.491 0 0 1 0 12.982zm0-10.982a4.491 4.491 0 0 0 0 8.982 4.491 4.491 0 1 0 0-8.982zm66.133 86.325a6.491 6.491 0 0 1 0-12.982 6.49 6.49 0 0 1 6.491 6.489 6.5 6.5 0 0 1-6.489 6.493zm0-10.982a4.491 4.491 0 1 0 0 8.982 4.491 4.491 0 1 0 0-8.982zm0-58.752a6.492 6.492 0 0 1 0-12.983 6.5 6.5 0 0 1 6.491 6.49 6.49 6.49 0 0 1-6.489 6.493zm0-10.983a4.492 4.492 0 0 0 0 8.983 4.492 4.492 0 0 0 0-8.983zm-29 84.717a6.491 6.491 0 0 1 0-12.982 6.49 6.49 0 0 1 6.491 6.489 6.5 6.5 0 0 1-6.489 6.493zm0-10.982a4.491 4.491 0 1 0 0 8.982 4.491 4.491 0 1 0 0-8.982zm0-63.752a6.492 6.492 0 0 1 0-12.983 6.5 6.5 0 0 1 6.491 6.49 6.49 6.49 0 0 1-6.489 6.493zm0-10.983a4.492 4.492 0 0 0 0 8.983 4.492 4.492 0 0 0 0-8.983z"/><path d="M734.473 922.869a1 1 0 0 1-.729-1.685c8.814-9.394 13.869-23.031 13.869-37.415 0-15.4-5.654-29.65-15.512-39.088a1 1 0 0 1 1.383-1.445c10.25 9.813 16.129 24.587 16.129 40.533 0 14.887-5.253 29.023-14.411 38.784a1 1 0 0 1-.729.316zm35.569-.63a1 1 0 0 1-.741-1.671c8.46-9.354 13.312-22.767 13.312-36.8 0-14.482-5.116-28.184-14.036-37.592a1 1 0 1 1 1.452-1.376c9.268 9.776 14.584 23.979 14.584 38.968 0 14.522-5.04 28.424-13.828 38.141a1 1 0 0 1-.743.33zm36.37-4.61a1 1 0 0 1-.758-1.652c7.254-8.452 11.249-19.9 11.249-32.248 0-12.382-4.228-24.286-11.6-32.659a1 1 0 1 1 1.5-1.322c7.69 8.733 12.1 21.119 12.1 33.981 0 12.82-4.166 24.736-11.731 33.551a1 1 0 0 1-.76.349zm28.72-4.24a1 1 0 0 1-.815-1.579 48.824 48.824 0 0 0 8.586-28.091c0-11.64-3.778-22.552-10.636-30.728a1 1 0 1 1 1.532-1.285c7.16 8.535 11.1 19.9 11.1 32.013a50.837 50.837 0 0 1-8.955 29.248 1 1 0 0 1-.812.422z"/></g><path d="M565.622 947.1a97.233 97.233 0 0 1-39.347 19.344 400.87 400.87 0 0 1-34.842 6.464.018.018 0 0 0-.03 0c-23.17 3.239-56.51 5.56-82.93.6a90.272 90.272 0 0 1-19.95-5.91.906.906 0 0 0-.14.009l-.61.061a.784.784 0 0 0-.14.02q-18.825 1.83-35.22 2.689a581.393 581.393 0 0 1-78.07-.6c-114.36-9.139-156.6-53.19-156.6-89l151.37-108s153.46-90.55 307.57 13.63c15.71 10.62 31.61 22.94 44.59 36.66l.007.012c11.899 34.396 1.357 77.592-55.658 124.021z" fill="#5dace2"/><path d="M622.613 825.51a1 1 0 0 1-.736-.323c-11.377-12.351-26.773-25.121-45.758-37.955-48.37-32.7-102.705-49.182-161.435-48.978a.974.974 0 0 1-1-1 1 1 0 0 1 1-1c59.177-.182 113.852 16.394 162.561 49.321 19.114 12.921 34.627 25.792 46.109 38.257a1 1 0 0 1-.735 1.678z" fill="#403838"/><path d="M752.616 420.122c15.261 17.682 32.046 100.5 12.256 149.076-6.895 16.926-18.233 29.69-35.623 34.078a57.934 57.934 0 0 1-15.542 1.654c-73.43-1.622-149.313 12.245-205.353 2.15-27.085-4.885-49.534-13.845-64.838-29.873-47.966-50.236-8.03-140.732 33.484-185.9 47.285-51.457 197.744-114.317 296.151-29.441 22.762 19.628-14.731 55.922-20.535 58.256z" fill="#ffe3c3"/><ellipse cx="726.403" cy="552.129" fill="#eacaac" rx="66.116" ry="91.735"/><path d="M533.31 563.729c-4.162 11.824-52.041 12.246-78.986 10.311a15.906 15.906 0 0 1-1.286-.14q-.44-.381-.853-.794c-9.671-9.673-2.307-26.257 11.37-26.431 19.145-.244 46.986 7.598 69.755 17.054z" fill="#eacaac"/><path d="M602.323 667.329s-71.08-46.09-75.16-46.01c-47.78.87-90.52 7.18-129 17.49.23-.29.44-.58.66-.87 10.22-13.64 17.56-23.44 22.85-30.47 13.59-18.071 13.61-17.96 13.71-18.071q.54-.719 1.11-1.409c13.65-17 35.13-27.08 58-27.08 0 0 3.88.08 10.69.239 43.06 1.031 203.2 5.591 239.36 16.831 28.46 8.85 46.36 29.95 57.57 44.23 4.01 5.12 12.51 16.53 18.75 24.96 4.27 5.76 7.48 10.13 7.48 10.13l7.5 10.03z" fill="#5dace2"/><path d="M818.3 403.889c-18.709 22.5-83.6 39.622-167.828 51.76-117.97 17-252.725 16.536-271.272-21.887 22.038-40.281 50.517-73.333 82.887-98.559 0-.01 0-.01.011-.01a283.994 283.994 0 0 1 69.615-40.044 262.331 262.331 0 0 1 93.025-18.8 250.8 250.8 0 0 1 29.733 1.308 313.23 313.23 0 0 1 28.209 6.874.144.144 0 0 1 .087.033c9.6 2.8 30.8 12.418 42.832 18.168 1.275.616 2.453 1.189 3.5 1.7 23.101 11.317 89.201 99.457 89.201 99.457z" fill="#ffe3c3"/><path d="M820.863 647.169c-36.01-8.75-72.5-11.95-108.04-14.5-35.255-19.164-91.643-41.876-141.079-56.643-25.247-7.542 136.639-9.287 172.8 1.953 28.46 8.85 46.36 29.95 57.57 44.23 4.009 5.12 12.509 16.53 18.749 24.96zm-108.04-14.5c-.19-.01-.39-.03-.58-.04m-257.87 267.72c-8.01 33.429-24.22 61.469-45.9 73.16a90.272 90.272 0 0 1-19.95-5.91.906.906 0 0 0-.14.009c-.14 0-.34.031-.61.061a.784.784 0 0 0-.14.02q-18.825 1.83-35.22 2.689c57.2-19.089 83.11-41.689 101.96-70.029z" fill="#3591ba"/><path d="M445.029 540.027c-.065.151-.14.3-.2.454m-85.908 11.295c-20.374-9.583-33.895-9.843-50.127-9.155-.119-.216.183-22.286 20.729-48.853-.4 19.747 11.997 42.422 29.398 58.008zm515.545-63.909a.039.039 0 0 0-.011-.032c-1.761-3.751-4-8.214-6.582-13.186 6.3 24.257-27.826 29.824-49.576 54.656 18.363-6.214 45.275-8.635 62.676-4.539 5.281-7.9 0-25.312-6.507-36.899zM725.6 302.736c-41.535-5.231-68.382 14.855-120.441-.21-23.723-6.865-46.339-13.213-73.445-7.377a262.331 262.331 0 0 1 93.025-18.8 250.8 250.8 0 0 1 29.733 1.308 313.23 313.23 0 0 1 28.209 6.874.144.144 0 0 1 .087.033c9.593 2.803 30.798 12.422 42.832 18.172z" fill="#eacaac"/><path d="M527.163 621.319c-47.78.87-90.52 7.18-129 17.49.23-.29.44-.58.66-.87 10.22-13.64 17.56-23.44 22.85-30.47 13.59-18.071 13.61-17.96 13.71-18.071q.54-.719 1.11-1.409c10.71.67 21.75 6.17 30.65 17.86 15.5-3.549 42.52-2.33 60.02 15.47z" fill="#3591ba"/><path d="M776.458 411.1a46.46 46.46 0 0 1-8.812 19.857c31.656 71.016 34.725 157.5-28.127 174.293-66.258 17.7-167.015-30.111-227.943-49.98L628.653 423.7z" fill="#ffe3c3"/><path d="M707.422 610.093c-20.794 0-45.2-3.917-73.739-11.791a1 1 0 0 1 .532-1.928c44.58 12.3 78.94 14.889 105.045 7.914 18.519-4.948 32.092-16.225 40.344-33.519 15.711-32.928 10.779-86.343-12.871-139.4a1 1 0 0 1 .123-1.02 45.37 45.37 0 0 0 8.621-19.44 1 1 0 0 1 1.962.391 47.455 47.455 0 0 1-8.638 19.8c23.676 53.4 28.511 107.2 12.608 140.533-8.515 17.846-22.523 29.483-41.632 34.589a125.214 125.214 0 0 1-32.355 3.871zm-255.236-35.987a1 1 0 0 1-.927-.623c-19.126-46.975-4.457-132.94 29.614-173.553a1 1 0 0 1 1.532 1.286c-33.68 40.146-48.19 125.1-29.294 171.512a1 1 0 0 1-.925 1.378zm-93.265-21.33a1 1 0 0 1-.425-.095c-20.217-9.509-33.335-9.752-49.66-9.061a1 1 0 1 1-.085-2c16.075-.683 30.008-.434 50.6 9.249a1 1 0 0 1-.426 1.9zm459.379-22.47a1 1 0 0 1-.321-1.948c19.322-6.539 46.5-8.5 63.226-4.565a1 1 0 0 1-.458 1.946c-16.4-3.861-43.114-1.921-62.127 4.514a.994.994 0 0 1-.32.053zm66.808 135.627a.994.994 0 0 1-.333-.058c-65.218-23.026-118.586-28.375-172.024-32.209a1 1 0 1 1 .143-2c53.58 3.845 107.094 9.209 172.547 32.318a1 1 0 0 1-.333 1.944zM613.123 251.429A100.144 100.144 0 0 1 513.093 151.4c0-.4 0-.8.01-1.2a99.733 99.733 0 0 1 15.364-52.1 98.838 98.838 0 0 1 4.253-6.2A99.326 99.326 0 0 1 598 52.5a101.287 101.287 0 0 1 14.938-1.131h.182a100.287 100.287 0 0 1 73.656 32.363 100.02 100.02 0 0 1-73.656 167.7zm-.18-198.06a99.315 99.315 0 0 0-14.64 1.108 97.338 97.338 0 0 0-63.977 38.607 99.102 99.102 0 0 0-4.169 6.08A97.741 97.741 0 0 0 515.1 150.24c-.01.4-.01.777-.01 1.159a98.021 98.021 0 1 0 98.03-98.03z" fill="#403838"/><path d="M732.333 265.1a5.086 5.086 0 0 1-5.09 4.86h-8.99a5.088 5.088 0 0 1-5.06-4.52c-.74-6.63-1.68-12.27-2.75-17.59a2.02 2.02 0 0 0-3.99.24c-.44 5.23-.93 11-1.38 17.14a5.112 5.112 0 0 1-5.08 4.73h-179.05a4.586 4.586 0 0 1-4.57-4.21c-.71-8.78-1.02-19.26-1.44-30.4a3 3 0 0 0-5.94-.5 286.788 286.788 0 0 0-4.52 30.97 4.589 4.589 0 0 1-4.56 4.14h-6.89a4.594 4.594 0 0 1-4.58-4.42c-2.01-50.25 5.09-87.47 14.68-115a218.5 218.5 0 0 1 26.19-51.911q2-3.148 4.21-6.139a98.986 98.986 0 0 1 56.19-37.33q4.155-1.02 8.44-1.67c1.31-.2 2.64-.37 3.97-.51.74-.09 1.48-.15 2.22-.21.51-.05 1.01-.1 1.52-.13 1.06-.08 2.12-.14 3.17-.18.09-.01.19-.01.28-.02.53-.02 1.07-.041 1.6-.05a97.346 97.346 0 0 1 51.03 12.9 107.326 107.326 0 0 1 26.91 21.98c12.12 12.879 20.94 29.57 27.35 47.62 1.15 3.23 2.22 6.509 3.22 9.81 14.7 48.759 13.63 103.948 12.91 120.4z" fill="#0e1049"/><path d="M539.414 193.346c-.459.315-.935.612-1.427.884a21.366 21.366 0 0 1-7.276 2.564 19.86 19.86 0 0 1-1.643.2c-.469.043-.941.066-1.417.073-.142 0-.284.007-.425 0a21.735 21.735 0 0 1-9.011-41.507 21.8 21.8 0 0 1 7.633-1.911q.7-.046 1.41-.046a21.8 21.8 0 0 1 3.111.226 21.726 21.726 0 0 1 8.945 3.431 21.745 21.745 0 0 1 .1 36.082z" fill="#ae75bc"/><path d="M505.506 175.326a21.734 21.734 0 0 1 43.468.029l-20.743-16.589z" fill="#ae75bc"/><path d="m690.2 177.369-.01 6.89a51.013 51.013 0 0 1-51.04 50.98l-57.91-.04a51.025 51.025 0 0 1-50.63-45 52.567 52.567 0 0 1-.35-6.051v-6.889a57.92 57.92 0 0 1 57.95-57.87l17.6.009 26.52.021a57.907 57.907 0 0 1 57.87 57.95z" fill="#d1a7db" fill-rule="evenodd"/><path d="m690.2 163.369-.01 6.89a51.013 51.013 0 0 1-51.04 50.98l-57.91-.04a51.025 51.025 0 0 1-50.63-45 52.567 52.567 0 0 1-.35-6.051v-6.889a57.92 57.92 0 0 1 57.95-57.87l17.6.009 26.52.021a57.907 57.907 0 0 1 57.87 57.95z" fill="#d1a7db" fill-rule="evenodd"/><path d="M608.061 256.989c-47.266 0-77.673-39.75-77.673-73 0-88.991 159.035-87.442 159.035-1.074 0 37.417-24.29 74.074-81.362 74.074z" fill="#d1a7db" fill-rule="evenodd"/><path d="M557.707 153.324c-18.475 9.99-30.469 25.949-25.937 43.274-7.917 1.009-12.478-9.256-12.478-9.256l-2.359-23.214 28.636-12.728z" fill="#ae75bc"/><path d="M522.9 161.428c-.5.346-8.395 6.08-7.835 15.643a18.075 18.075 0 0 0 6.077 12.175 86.657 86.657 0 0 0 .921-9.886c.063-1.783.068-3.5.028-5.138 5.019-4.147 6.625-9 5.072-11.2-.217-.322-1.188-1.552-4.263-1.594z" fill="#ae75bc"/><circle cx="692.418" cy="175.338" fill="#d1a7db" r="21.734"/><path d="M696.92 161.278c.5.347 8.387 6.091 7.814 15.653a18.073 18.073 0 0 1-6.094 12.169 74.504 74.504 0 0 1 2.31-13.379 11.242 11.242 0 0 1-4.083-4.552 12.1 12.1 0 0 1 .053-9.891z" fill="#ae75bc"/><path d="M699.334 190.253a1 1 0 0 1-.659-1.753 16.913 16.913 0 0 0 5.755-11.474c.545-9.1-7.066-14.548-7.39-14.775a1 1 0 1 1 1.148-1.638c.362.254 8.85 6.328 8.238 16.533a18.934 18.934 0 0 1-6.433 12.859 1 1 0 0 1-.659.248zm-178.189-.007a1 1 0 0 1-.66-.249 18.939 18.939 0 0 1-6.415-12.868c-.6-10.2 7.9-16.267 8.26-16.521a1 1 0 0 1 1.146 1.639c-.325.227-7.943 5.665-7.41 14.765A16.922 16.922 0 0 0 521.8 188.5a1 1 0 0 1-.66 1.751z" fill="#403838"/><ellipse cx="607.325" cy="39.93" fill="#0e1049" rx="40.985" ry="39.791" transform="matrix(.946 -.325 .325 .946 20.047 199.749)"/><path d="M581.742 75.47a.99.99 0 0 1-.408-.088C566.691 68.831 556.412 56.907 555.148 45c-.92-8.664 2.609-18.019 9.682-25.665C574.169 9.246 588.248 3.7 603.462 4.132a1 1 0 1 1-.056 2c-14.633-.415-28.161 4.9-37.108 14.567-6.681 7.222-10.021 16-9.161 24.1 1.191 11.207 11.009 22.5 25.014 28.764a1 1 0 0 1-.409 1.913zm4.558 79.23a5.5 5.5 0 0 0-5.2-9.693c-1.256.6-12.272 5.371-18.982 8.263a5.5 5.5 0 0 0 4.354 10.1c18.789-8.091 19.542-8.509 19.828-8.67zm51.329 0a5.5 5.5 0 0 1 5.2-9.693c1.256.6 12.271 5.371 18.981 8.263a5.5 5.5 0 1 1-4.353 10.1c-18.79-8.091-19.544-8.509-19.828-8.67z" fill="#0e1049"/><path d="M615.673 199.326a1 1 0 0 1-.639-1.77l4.716-3.915a2.54 2.54 0 0 0 .53-3.289l-3.21-5.136a1 1 0 1 1 1.7-1.06l3.21 5.136a4.547 4.547 0 0 1-.948 5.888l-4.717 3.915a1 1 0 0 1-.642.231z" fill="#403838"/><path d="M600.6 212.716a3.365 3.365 0 0 1 2.1-.816c21.957-.514 22.852-1.206 23.569.4.393.876-2.906 7.557-11.329 8-10.965.58-15.087-6.8-14.34-7.584z" fill="#fff"/><path d="M578.445 183.619a21.225 21.225 0 0 1-15.929-7.2 3 3 0 0 1 4.5-3.964 15.227 15.227 0 0 0 22.851 0 3 3 0 1 1 4.5 3.964 21.225 21.225 0 0 1-15.922 7.2zm70 0a21.225 21.225 0 0 1-15.929-7.2 3 3 0 0 1 4.5-3.964 15.227 15.227 0 0 0 22.851 0 3 3 0 1 1 4.5 3.964 21.225 21.225 0 0 1-15.922 7.2z" fill="#403838"/><path d="M605.813 99.4c-13.73 30.861-42.015 57.67-76.345 64.73v-6.814c.03-31.98 26.765-57.945 58.745-57.925z" fill="#ae75bc"/><path d="M709.423 146.7c-52.284 12.852-119.877-20.705-128.741-77.14-.681-4.335 48.351-14.933 71.261-3.27 26.6 15.168 43.85 40.288 54.26 69.6 1.15 3.229 2.22 7.51 3.22 10.81z" fill="#ae75bc"/><path d="M718.423 150.7c-56.3 15.125-129.352-27.135-128.71-91.54a13 13 0 0 1 .21-1.58 124.406 124.406 0 0 1 20.99-1.19 119.253 119.253 0 0 1 51.03 12.9 107.326 107.326 0 0 1 26.91 21.98c12.12 12.879 20.94 29.57 27.35 47.62 1.15 3.229 1.22 8.51 2.22 11.81z" fill="#0e1049"/><path d="M617.943 56.369c-9.43 46.97-53.148 94.875-109.82 102.17 8.29-23.84 18.45-44.42 26.19-55.911a98.922 98.922 0 0 1 83.63-46.259z" fill="#0e1049"/><path d="M398.162 639.809a1 1 0 0 1-.258-1.966 520.054 520.054 0 0 1 94.331-15.876 1 1 0 0 1 .154 2 518.018 518.018 0 0 0-93.967 15.813 1.015 1.015 0 0 1-.26.029z" fill="#403838"/></svg></g><g transform="translate(47.0 468.0) rotate(0.0 159.5 160.5) scale(0.9976325772383403 0.9973187349897317)"><svg width="319.757" height="321.863" viewBox="0 0 319.757 321.863"><path d="M318.755 86.831c-4.381-48.32-30.53-84.43-94.34-86.79-43.191-1.61-74.1 44.92-78.551 52.01-.37.59-.56.91-.56.91-14.58-18.77-45.759-30.53-75.449-29.54-.571.02-1.15.04-1.72.07s-1.15.06-1.72.1q-.99.06-1.981.15c-.449.04-.9.08-1.349.13-.37.03-.75.07-1.13.12-.47.05-.95.11-1.421.17-1.239.15-2.469.33-3.69.55-.419.07-.839.14-1.259.22-.511.09-1.02.19-1.531.29a35.4 35.4 0 0 0-1.719.37q-.72.15-1.44.33c-.421.1-.85.2-1.281.32-.419.1-.839.22-1.25.33a75.417 75.417 0 0 0-10.959 3.9c-.42.19-.851.39-1.27.59a.162.162 0 0 0-.081.03c-.46.22-.909.44-1.37.67s-.92.46-1.369.71-.91.48-1.36.74-.9.5-1.341.77-.89.52-1.319.8-.87.55-1.3.83c-.859.56-1.7 1.15-2.529 1.76q-1.845 1.35-3.58 2.83a57.976 57.976 0 0 0-4.541 4.35c-.35.38-.7.76-1.04 1.15-.69.78-1.37 1.58-2.02 2.41-.31.39-.609.79-.92 1.19a.623.623 0 0 0-.089.12c-.3.4-.6.82-.89 1.24-.291.4-.57.82-.851 1.23-.06.08-.109.17-.17.26-.259.39-.509.79-.759 1.19-.281.45-.551.9-.83 1.36a1.091 1.091 0 0 0-.06.11c-.25.43-.5.87-.741 1.31-.029.05-.059.1-.089.16-.24.45-.48.9-.71 1.35a60.67 60.67 0 0 0-2.121 4.61 62.865 62.865 0 0 0-1.799 4.94c-.179.57-.35 1.14-.52 1.71-.33 1.16-.641 2.34-.931 3.55-.139.6-.27 1.21-.4 1.83-.11.51-.21 1.03-.311 1.55-.04.18-.069.36-.1.54-.1.55-.19 1.11-.279 1.68-.1.64-.19 1.29-.281 1.94-.079.59-.15 1.18-.219 1.78-.01.13-.031.25-.04.38-.061.61-.121 1.22-.17 1.84l-.15 1.91v.1c-.04.63-.071 1.26-.1 1.9-.031.6-.05 1.2-.06 1.82-.02.73-.03 1.48-.03 2.23 0 .4.01.8.01 1.2v.16a11.107 11.107 0 0 0 15.009 10.25q2.025-.765 4.06-1.5a356.912 356.912 0 0 1 56.781-15.61 42.415 42.415 0 0 1 46.29 24.59c.049.11.09.22.14.33a4.462 4.462 0 0 1-4.4 6.23c-15.779-1.08-54.879-1.75-87.75 13.88a13.946 13.946 0 0 0-5.069 20.92c.129.18.259.34.39.5 3.719 4.58 7.78 9.13 12.119 13.63.591.61 1.181 1.22 1.781 1.82.489.5.98 1 1.48 1.49.65.66 1.319 1.32 1.989 1.98.841.83 1.7 1.66 2.56 2.49q2.521 2.4 5.13 4.8c.5.46 1.011.92 1.521 1.38.67.61 1.329 1.21 2.01 1.81.85.76 1.7 1.52 2.569 2.28q1.667 1.455 3.361 2.91a19.273 19.273 0 0 0 26.659-1.41 252.47 252.47 0 0 1 20.98-20.3 26.471 26.471 0 0 1 41.2 9.01c.069.14.12.26.18.41a8.541 8.541 0 0 1-5.58 11.87c-8.79 2.23-22.011 8.04-34.95 23.06a10.8 10.8 0 0 0 1.97 16.09c2.02 1.43 4.05 2.87 6.079 4.29s4.06 2.85 6.1 4.27q6.106 4.26 12.23 8.48 3.63 2.5 7.241 5t7.21 4.97c7.089 4.87 13.08 1.82 13.35-6.79.219-6.93.549-13.37 1.06-18.85a6.3 6.3 0 0 1 11.719-2.56c.17.28.331.57.5.85a42.8 42.8 0 0 1 5.291 27.23c-.021.13-.041.27-.061.41a34.651 34.651 0 0 0 13.071 31.84c13.5 10.51 23.94 20.05 39.429 34.2a4.917 4.917 0 0 0 3.241 1.31 4.751 4.751 0 0 0 3.989-2.03 396.6 396.6 0 0 0 30.211-50.01 33.356 33.356 0 0 0-3.441-35.91q-1.905-2.4-3.72-4.62a104.16 104.16 0 0 1-23.05-53.81c-.029-.23-.049-.46-.079-.69a8.565 8.565 0 0 1 13.75-7.82c11.869 9.16 24.41 24.85 35.119 40.25a5.044 5.044 0 0 0 8.911-1.19c1.1-3.13 2.17-6.28 3.19-9.43a46.1 46.1 0 0 0-10.65-46.31 169.268 169.268 0 0 0-42.7-31.46l-.459-.25a32.864 32.864 0 0 1-17.07-28.2 10.527 10.527 0 0 1 15.4-9.55c14.04 7.25 35.92 21.06 59.04 45.23 6.16 6.42 11.859 4.46 12.619-4.4a192.256 192.256 0 0 0 .13-33.83zm-93.681-71.99c19.591-1.5 38.911 7.35 37.451 14.27-1.38 6.79-19.55 9.67-35.81 11-16.3.78-34.681.27-36.931-6.29-2.339-6.68 15.681-17.94 35.29-18.98zm29.05 221.41c8.23 11.07 10.18 25.89 5.49 27.64-4.58 1.74-13.1-7.97-19.979-17.14-6.57-9.39-13.15-20.51-10.07-24.33 3.11-3.91 16.59 2.56 24.559 13.83z" fill="#05541a"/><path d="M237.567 320.863a4.879 4.879 0 0 1-3.238-1.316c-15.49-14.142-25.934-23.686-39.432-34.2a34.651 34.651 0 0 1-13.072-31.842c.021-.141.042-.282.058-.412a42.773 42.773 0 0 0-5.29-27.226l-.494-.851a6.3 6.3 0 0 0-11.724 2.562c-.508 5.479-.842 11.913-1.061 18.852-.266 8.607-6.264 11.658-13.351 6.782-12.861-8.874-25.99-17.865-38.859-27.006a10.787 10.787 0 0 1-1.966-16.087c12.933-15.024 26.158-20.833 34.942-23.065a8.544 8.544 0 0 0 5.589-11.871 5.515 5.515 0 0 0-.182-.4 26.468 26.468 0 0 0-41.2-9.014A251.613 251.613 0 0 0 87.3 186.07a19.267 19.267 0 0 1-26.658 1.41c-13.15-11.276-24.934-22.8-34.517-34.589-5.688-7.015-18.114-26.733-7.145-31.336 33.564-14.085 70.445-13.408 86.221-12.326a4.463 4.463 0 0 0 4.4-6.235c-.05-.111-10.487-20.223-33.077-16.553-17.552 2.851-39.206 8.988-60.841 17.107A11.108 11.108 0 0 1 .672 93.3v-.153C-.3 4.248 113.07 11.466 145.307 52.957c0 0 .185-.315.559-.9 4.486 23.448 5.022 42.142 4.165 52.091 36.916 32.187 76.609 121.372 87.536 216.715z" fill="#05541a"/><g fill="#033a11"><path d="M237.565 321.863a1 1 0 0 1-.992-.886c-10.165-88.7-47.653-181.595-87.2-216.078a1 1 0 0 1-.339-.84c.865-10.041.228-28.926-4.151-51.817a1 1 0 0 1 1.964-.376c5.385 28.147 4.658 46.262 4.221 51.859 39.739 35.034 77.308 128.167 87.491 217.024a1 1 0 0 1-.88 1.107.877.877 0 0 1-.114.007z"/><path d="M150.031 105.145a1 1 0 0 1-1-.956c-.287-6.593-6.859-17.079-20.9-25.641-9.323-5.687-25.416-12.5-49.14-12.691-23.671-.195-49.77 6.216-77.578 19.03a1 1 0 0 1-.836-1.816c28.076-12.938 54.468-19.4 78.429-19.214 24.182.19 40.628 7.166 50.167 12.984 14.665 8.946 21.542 20.137 21.852 27.261a1 1 0 0 1-.955 1.042zM38.249 167.519a1 1 0 0 1-.717-1.7c15.8-16.28 42.035-29.438 70.174-35.2 29.024-5.94 54.926-3.215 71.065 7.475a1 1 0 0 1-1.1 1.667c-32.509-21.536-105.1-7.17-138.7 27.448a1 1 0 0 1-.722.31zm97.27 76.738a.967.967 0 0 1-.2-.02 1 1 0 0 1-.782-1.178c5.128-25.407 15.906-43.191 31.17-51.428 11.584-6.252 25.534-6.655 39.28-1.135a1 1 0 1 1-.746 1.856c-13.184-5.3-26.532-4.926-37.585 1.039-14.723 7.946-25.152 25.258-30.159 50.064a1 1 0 0 1-.978.802zM318.757 87.832a1 1 0 0 1-.744-.332c-34.7-38.628-79.107-39.552-102.492-36.665-32.533 4.016-58.511 18.787-64.832 30.748a1 1 0 0 1-1.768-.935c6.56-12.414 33.174-27.7 66.355-31.8C239.048 45.914 284.2 46.86 319.5 86.164a1 1 0 0 1-.744 1.668zm-14.394 100.177a1 1 0 0 1-.894-.551c-13.581-27.035-46.486-57.176-78.042-60.821-17.348-2-31.978 3.973-43.488 17.763a1 1 0 1 1-1.535-1.282c11.8-14.138 27.446-20.526 45.252-18.467 19.036 2.2 35.786 13.027 46.486 21.725 13.886 11.287 25.955 25.934 33.114 40.184a1 1 0 0 1-.893 1.449z"/></g></svg></g><g transform="translate(1489.0 92.0) rotate(0.0 123.0 74.0) scale(0.9988793061443259 0.9952925353059853)"><svg width="246.276" height="148.7" viewBox="0 0 246.276 148.7"><path d="M98.546 75.483c8.813 26.363 10.3 49.638 1 53.937-9.212 4.258-26.323-13.3-35.794-41.221-9.526-27.87-7.124-54.174 2.752-56.866 9.931-2.75 23.156 17.841 32.042 44.15z" fill="#eacaac"/><path d="M101 126.54c-4.43 9.44-24.83-14.88-56.83-36.17q-5.61-3.735-10.4-7.3C-1.66 56.74-4.25 37.75 5.17 31.39a2.4 2.4 0 0 1 .26-.18c8.52-5.43 31.21 8.81 56.86 34.37 25.628 25.66 43.188 51.44 38.71 60.96z" fill="#ffe3c3"/><path d="M33.768 83.07c-35.43-26.33-38.02-45.32-28.6-51.68-5.495 13.24 12.36 34.8 28.6 51.68z" fill="#eacaac"/><g fill="#f991aa"><path d="M99.969 129.42a1.5 1.5 0 0 1-1.217-.622c-5.292-7.328-11.6-15.3-18.756-23.706-7.3-8.564-15.384-17.465-24.02-26.453a722.472 722.472 0 0 0-25.149-24.98c-8.474-8.026-16.963-15.67-24.549-22.1a1.5 1.5 0 1 1 1.94-2.288c7.628 6.47 16.159 14.152 24.672 22.215a731.96 731.96 0 0 1 25.252 25.081c8.674 9.03 16.8 17.974 24.137 26.585 7.207 8.462 13.567 16.5 18.905 23.895a1.5 1.5 0 0 1-1.215 2.378z"/><path d="M73.8 96.769a1.548 1.548 0 0 1-.192-.013l-27.667-3.57a1.5 1.5 0 1 1 .384-2.975l26.123 3.371 1.311-14.37a1.5 1.5 0 0 1 2.988.273L75.3 95.405a1.5 1.5 0 0 1-1.5 1.364zM56.968 80.03a1.415 1.415 0 0 1-.194-.013l-34.432-4.492a1.5 1.5 0 0 1 .388-2.975l32.9 4.292 1.519-14.983a1.5 1.5 0 0 1 2.985.3l-1.67 16.514a1.5 1.5 0 0 1-1.493 1.355zm-25.15-25.58a1.467 1.467 0 0 1-.3-.031L1.2 48.184a1.5 1.5 0 1 1 .6-2.938l28.692 5.9 1.092-10.817a1.5 1.5 0 0 1 2.984.3L33.31 53.107a1.5 1.5 0 0 1-1.492 1.343z"/></g><path d="M45.958 120c-1.53 11.156-8.69 19.559-16.01 18.771a10.344 10.344 0 0 1-7.46-4.994c-2.67-4.029-3.92-10.068-3.02-16.62 1.33-9.81 7.05-17.5 13.38-18.664a8.945 8.945 0 0 1 2.62-.107c7.32.776 12.01 10.453 10.49 21.614z" fill="#ffdc83"/><path d="M36.068 115.781c-1.412 10.319-7.168 18.334-12.974 18.042a1.366 1.366 0 0 1-.9-.507c-2.469-4.021-3.595-9.854-2.729-16.163 1.121-8.269 5.361-15.028 10.457-17.648a3.3 3.3 0 0 1 4.467 1.554c1.748 3.75 2.451 9.023 1.679 14.722z" fill="#0e1049"/><path d="M78.868 125.31c-1.67 8.64-9.78 13.85-19.29 15.37a37.9 37.9 0 0 1-4.66.45c-11.4.18-21.9-4.68-23.56-14.62-.93-5.39 1.87-11.51 7.07-15.98v-.01a26.968 26.968 0 0 1 16.98-6.44c.78-.02 1.56-.01 2.33.04 13.77.8 22.99 11.8 21.13 21.19z" fill="#3591ba"/><path d="M78.868 125.31c-24.228 5.345-36.284-.913-39.544-9.027a6.932 6.932 0 0 1 2.966-8.516c3.553-2.095 8.355-3.935 13.118-3.687.779.04 1.56-.01 2.33.04 13.77.8 22.99 11.8 21.13 21.19zm36.06-.17-12.164 18.536c-18.919-3.283-30.732-7.618-30.388-11.213.406-4.309 17.394-6.546 42.552-7.323z" fill="#5dace2"/><path d="m156.491 124.941-15.1 23.01a348.869 348.869 0 0 1-38.63-4.275l12.164-18.536c12.247-.385 26.426-.424 41.566-.199z" fill="#3591ba"/><path d="M187.077 125.85 172.1 148.675q-6.468.066-13.222-.057c-6-.1-11.851-.33-17.488-.667l15.1-23.01c.951.024 1.9.038 2.854.052 9.685.192 19.013.478 27.733.857z" fill="#5dace2"/><path d="M219.688 128.132 207.5 146.689c-10.416 1.106-22.437 1.833-35.4 1.986l14.973-22.825c12.334.55 23.441 1.3 32.615 2.282z" fill="#3591ba"/><path d="M246.273 135.678c.235 4.074-15.2 8.513-38.769 11.011l12.184-18.557c16.228 1.745 26.412 4.21 26.585 7.546z" fill="#5dace2"/><path d="M169.848 108.38c-17.44 8.32-33.71 14.07-47.4 17.28-9.71 2.28-18.12 3.27-24.72 2.99-8.65-.36-14.19-2.93-15.48-7.66-2.06-7.57 9.74-18.02 28.35-30.14 10.5-6.85 23.18-14.23 36.75-21.93 30.35-17.23 56.19-31.95 71.33-26.9a15.874 15.874 0 0 1 6.28 3.88c13.52 13.54-9.03 40.69-55.11 62.48z" fill="#ffe3c3"/><path d="M218.678 42.02c-6.09 16.1-17.69 33.59-36.92 49.63-21.06 17.56-42.45 28.77-59.31 34.01-10.29 3.18-18.89 4.15-24.72 2.99-3.71-.74-6.29-2.34-7.47-4.78-3.15-6.53 5.49-18.29 20.34-33.02 10.5-6.85 23.18-14.23 36.75-21.93 30.352-17.23 56.19-31.95 71.33-26.9z" fill="#eacaac"/><path d="M175.624 83.277c-40.955 36.355-78.252 52.611-85.365 40.59-6.262-10.584 20-39.029 52.609-72.088C173.3 20.923 198.471-4.7 215.5 4.2c17.105 8.934 1.2 42.852-39.876 79.077z" fill="#ffe3c3"/><path d="M85.9 123.65a1.5 1.5 0 0 1-.729-2.812 238.815 238.815 0 0 0 28.708-18.961c.036-.027.073-.053.111-.077a330.771 330.771 0 0 0 28.61-24.661 403.12 403.12 0 0 0 24.752-26.075c.027-.037.055-.072.085-.107A398.574 398.574 0 0 0 204.633.71a1.5 1.5 0 1 1 2.55 1.58 401.536 401.536 0 0 1-37.4 50.534 1.275 1.275 0 0 1-.085.109 406.245 406.245 0 0 1-25.023 26.368 333.592 333.592 0 0 1-28.971 24.962 1.561 1.561 0 0 1-.11.077 241.759 241.759 0 0 1-28.971 19.122 1.5 1.5 0 0 1-.723.188z" fill="#f991aa"/><path d="M125.988 105.631a53.3 53.3 0 0 1-11.55-1.1 1.5 1.5 0 0 1-1.009-.824c-.176-.377-4.24-9.4 1.545-24.793a1.5 1.5 0 0 1 2.808 1.056c-4.476 11.911-2.629 19.571-1.887 21.8 4.209.771 25.292 3.7 47.306-9.88a1.5 1.5 0 0 1 1.575 2.554 73.781 73.781 0 0 1-38.788 11.187zm17.65-25.911a1.5 1.5 0 0 1-1.444-1.093c-2.38-8.433-1.213-20.919 2.9-31.071.012-.03.025-.06.039-.089a1.5 1.5 0 0 1 2.723 1.258c-3.694 9.133-4.881 20.186-3.064 27.982 12.955-.272 37.313-4.682 51.44-15.873a1.5 1.5 0 0 1 1.863 2.352C182.836 75.277 157.169 79.7 143.641 79.72z" fill="#f991aa"/><path d="M169.318 52.571a1.5 1.5 0 0 1-1.434-1.06c-2.553-8.318.536-25.257 8.2-33.818a1.5 1.5 0 1 1 2.236 2c-6.534 7.3-9.6 21.994-7.848 29.867 22.479-.366 40.276-11.371 48.038-22.278a1.5 1.5 0 0 1 2.445 1.739c-11.578 16.268-34.277 23.55-51.637 23.55z" fill="#f991aa"/><ellipse cx="79.08" cy="120.694" fill="#ffdc83" rx="22.976" ry="16.657" transform="matrix(.12020615 -.99274895 .99274895 .12020615 -50.245 184.693)"/><ellipse cx="76.532" cy="117.696" fill="#0e1049" rx="19.985" ry="9.391" transform="matrix(.16093205 -.98696549 .98696549 .16093205 -51.947 174.289)"/></svg></g></svg>