<svg xmlns="http://www.w3.org/2000/svg" version="1.1" viewBox="0 0 3000 2950" width="3000" height="2950">
<defs/><!--ITEM: Illustration component 1--><g transform="translate(492.5 520.0) rotate(0.0 1207.5 1148.75)  scale(2.4021054976884084 2.401624846860483)"><svg width="1005.368" height="956.644" viewBox="0.0 0.0 1005.368 956.644"><path d="m490.731 160.635c-49.362-3.751-125.376 149.449-168.561 180.282-33.5 23.917-82.756 15.309-115.293 8.412a99.11 99.11 0 0 0 -33.982-5.782c-49.471.849-63.819 40.42-70.185 100.876-6.822 64.793 29.874 101.144 79.275 98.239 21.279-1.251 39.14-6.39 53.6-14.554 51.55 12.09 109.721 21.525 147.185 6.829 81.225-31.863 140.917-139.5 170.555-196.682s22.517-171.155-62.594-177.62z" fill="#77c3ed"/><path d="m435.156 424.856c-7.574-26.644-85.8-112.122-85.8-112.122-9.944 12.439-19.133 22.437-27.181 28.183-28.661 20.464-68.862 17.115-100.256 11.4 27.912 19.947 46.672 51.869 59.2 95.029 10.652 36.708 44.828 45.452 96.545 35.047 16.219-3.263 65.066-30.893 57.492-57.537z" fill="#5dace2"/><path d="m235.482 528.562a.851.851 0 0 1 -.39-1.607c8.7-4.477 16.643-10.884 27.424-22.118a.85.85 0 0 1 1.227 1.178c-10.921 11.378-19 17.883-27.873 22.452a.848.848 0 0 1 -.388.095z" fill="#403838"/><path d="m89.774 369.45c-17.948-7.173-79.147.428-82.928 16.55-.713 3.039 11.1 15.257 11.2 19.076.581 24.208 15.852 60.691 19.568 64.845 4.3 4.81 71.067-2.872 82.023-36.145 11.354-34.496-17.516-59.39-29.863-64.326z" fill="#dda094"/><path d="m55.468 453.73a13.044 13.044 0 0 0 2.645-4.572c2.018-5.834-1.7-12.013-7.171-17.792a9.43 9.43 0 0 0 8.023-3.826c7.687-10.616-4.008-24.417-12.247-32.814-5.621-5.729-11.15-12.6-22.5-17.821-2.375-1.094-5.816-.778-9.077.7-7.241 3.286-13.604 12.316-5.431 24.41a70.232 70.232 0 0 0 5.509 7.047q-1.088-.209-2.222-.38c-8.653-1.3-21.508 16.735-5.056 31.046a92.579 92.579 0 0 0 12.524 9.116c-5.625 4.87-8.92 18.764 4.22 25.462 15.442 7.872 38.756 10.543 40.655-5.451.741-6.24-3.873-11.555-9.872-15.125z" fill="#f8b5a4"/><g fill="#403838"><path d="m50.953 432.225a.766.766 0 0 1 -.142-.013c-14.325-2.4-28.665-13.888-36.593-22.994a.85.85 0 0 1 1.282-1.118c7.745 8.894 21.712 20.106 35.593 22.435a.85.85 0 0 1 -.139 1.689z"/><path d="m45.411 458.476c-8.219 0-18.464-4.465-27.064-9.943a.85.85 0 1 1 .914-1.434c12.329 7.854 28.07 13.663 35.27 6.417a.85.85 0 1 1 1.207 1.2c-2.633 2.648-6.229 3.76-10.327 3.76z"/><path d="m44.194 454.7c-3.609 0-7.378-1.172-8.927-2.341-2.552-1.925-2.589-7.778-1.022-12.037 1.239-3.369 3.321-5.219 5.7-5.082 3.8.223 8.72 3.49 11.208 7.437 1.7 2.7 2.1 5.366 1.153 7.7a6.722 6.722 0 0 1 -4.7 3.909 12.927 12.927 0 0 1 -3.412.414zm-4.5-17.768c-2.156 0-3.409 2.766-3.854 3.977-1.418 3.852-1.194 8.852.45 10.092 1.544 1.165 6.973 2.712 10.86 1.642a5.023 5.023 0 0 0 3.58-2.912c.928-2.275-.041-4.6-1.017-6.148-2.189-3.473-6.617-6.455-9.87-6.646-.051-.007-.1-.009-.149-.009z"/><path d="m49.456 426.484c-4.023 0-8.526-2.135-9.977-3.76-2.254-2.525-1.3-9.415 1.064-13.285 1.556-2.546 3.559-3.646 5.636-3.108 3.536.92 7.4 4.661 9.191 8.894 1.3 3.084 1.31 6.035.02 8.308a5.978 5.978 0 0 1 -4.835 2.894 10.473 10.473 0 0 1 -1.099.057zm-8.71-4.893c1.337 1.5 6.078 3.528 9.629 3.146a4.3 4.3 0 0 0 3.536-2.044c1.024-1.8.986-4.22-.107-6.806-1.574-3.725-5.036-7.126-8.053-7.911-1.658-.428-2.957 1.039-3.756 2.349-2.146 3.514-2.811 9.515-1.249 11.266z"/><path d="m49.633 478.879a6.41 6.41 0 0 1 -2.79-.494c-2.552-1.31-3.682-6.63-2.987-10.51.515-2.879 1.923-4.6 3.962-4.844 3.37-.407 8.781 1.006 11.646 4a6.151 6.151 0 0 1 1.841 5.369c-.309 1.88-1.727 3.506-4.1 4.7a18.217 18.217 0 0 1 -7.572 1.779zm-2.013-2.006c1.217.626 5.555.354 8.818-1.292 1.3-.657 2.916-1.791 3.189-3.46a4.462 4.462 0 0 0 -1.389-3.918c-2.424-2.529-7.239-3.846-10.217-3.485-1.665.2-2.276 2.252-2.491 3.457-.608 3.394.466 7.864 2.09 8.7z"/><path d="m65.341 469.705c-.033 0-.067 0-.1 0a.85.85 0 0 1 -.744-.945c.611-5.142-2.838-10.352-9.462-14.3a.848.848 0 0 1 -.2-1.3 12.3 12.3 0 0 0 2.472-4.28c1.626-4.7-.659-10.242-6.985-16.93a.85.85 0 0 1 .61-1.434 8.61 8.61 0 0 0 7.342-3.475c5.417-7.48 1.437-17.856-12.165-31.719-.781-.8-1.559-1.613-2.351-2.444-.755-.792-1.522-1.6-2.316-2.41a.85.85 0 1 1 1.216-1.187c.8.817 1.571 1.628 2.331 2.424.786.826 1.559 1.636 2.333 2.425 5.249 5.35 21.221 21.629 12.329 33.908a9.83 9.83 0 0 1 -6.9 4.05c5.883 6.629 7.9 12.316 6.159 17.347a14.317 14.317 0 0 1 -2.168 4.085c6.673 4.244 10.1 9.829 9.435 15.436a.849.849 0 0 1 -.836.749z"/></g><path d="m159.925 379.086c-8.511-5.145-20-14.5-41.271-21.2-.029-.009-.059-.014-.089-.022-12.828-6.514-29.532-7.595-45.607-4.418-16.146 3.19-40.747 2.93-48.615 1.525-4.988-.89-12.607-2.154-15.27 3.4-4.227 8.82 8.541 24.578 21.708 28.683 6.762 2.108 14.029 2.137 20.813 4.168 10.006 3 18.626 9.11 27.7 14.326a186.615 186.615 0 0 0 -.357 27.959 59.809 59.809 0 0 0 -12.582 35.1c19.1-2 36.686-4.85 56.255-10.9 8.183 1.136 15.216 2.069 17.835 2.357 2.639-5.195 10.182-15.743 16.181-41.083 4.857-20.519 4.074-29.098 3.299-39.895z" fill="#f8b5a4"/><path d="m99.27 413.8a25.928 25.928 0 0 1 -11.494-2.908c-4.349-2.241-8.49-4.717-12.493-7.111-7.884-4.713-15.33-9.165-23.933-11.741a72.95 72.95 0 0 0 -10.1-2 71.355 71.355 0 0 1 -10.723-2.17c-5.177-1.614-10.843-5.3-15.545-10.122a.85.85 0 1 1 1.217-1.187c4.511 4.623 9.918 8.153 14.834 9.686a70.257 70.257 0 0 0 10.467 2.109 74.079 74.079 0 0 1 10.335 2.052c8.805 2.635 16.34 7.14 24.317 11.91 3.981 2.381 8.1 4.843 12.4 7.058 2.853 1.471 10.3 4.541 17.857 1.266a.85.85 0 1 1 .676 1.56 19.511 19.511 0 0 1 -7.815 1.598z" fill="#403838"/><path d="m30.535 368.665a2.664 2.664 0 0 1 -.332-.019c-3.524-.419-10.051-2.826-12.874-6.661a6.377 6.377 0 0 1 -1.3-5.075.85.85 0 1 1 1.672.31 4.736 4.736 0 0 0 1 3.757c2.414 3.281 8.349 5.582 11.7 5.981a1.872 1.872 0 0 0 1.5-.739 12.7 12.7 0 0 0 2.662-6.644.843.843 0 0 1 .6-1.034.852.852 0 0 1 1.044.608c.347 1.281-.961 5.806-2.858 8a3.722 3.722 0 0 1 -2.814 1.516z" fill="#403838"/><path d="m494.3 537.6c-5.685 17.432-16.366 57.221-10.268 71.242s81.51 26.148 81.51 26.148l50.335-67.074-57.919-30.316z" fill="#5b5c1a"/><path d="m920.136 859.6-107.515-178.811c-11.633-19.347-38.938-24.283-60.987-11.025l-87.295 83.636a11.555 11.555 0 0 0 .328 16.985c15.694 13.962 44.433 43.167 37.786 64.727-4.83 15.667 34.242.317 67.216 20 64.725 38.647 103.546 79.671 116.738 84.421 11.106 4 30.081-8.915 33.9-16.394 7.621-14.924 8.893-48.464-.171-63.539z" fill="#bf7351"/><path d="m676.558 781.729c14.849 15.247 31.062 36.623 25.895 53.381-4.83 15.667 34.242.317 67.216 20a637.2 637.2 0 0 1 66.6 46.1c11.019-5.172 14.178-20.532-5.819-41.293-26.9-27.933-67.294-66.136-85.088-85.762s-2.42-44.493-18.632-48.529c-12.687-3.156-39.23 38.047-50.172 56.103z" fill="#efc15b"/><path d="m839.751 838.707c-18.368.017-42.174-13.084-59.506-5.732-10.536 4.469-12.946 16.214-10.576 22.14 64.725 38.647 103.546 79.671 116.738 84.421 11.1 4 30.081-8.915 33.9-16.394 7.622-14.927 8.893-48.467-.17-63.541l-35.417-58.901c-4.32 29.19-32.061 38-44.969 38.007z" fill="#494242"/><path d="m812.621 680.789c-11.633-19.347-38.938-24.283-60.987-11.025l-10.774 10.322a40.908 40.908 0 0 1 19.233 10.781c20.953 20.484-4.544 39.01 33.433 75.149 38.663 36.791 53.54 47.157 86.179 94.308 26.287 37.976 29.395 61.685 27.838 74.476 5.978-3.575 11-8.2 12.763-11.661 7.622-14.927 8.893-48.467-.17-63.541z" fill="#eacaac"/><path d="m695.65 858.87c11.609 6.125 27.166-9.212 37.276-9.461 10.2-.25 25.809-.822 36.743 5.706q2.731 1.632 5.4 3.268c5.024-6.332 11.693-15.847 9.39-19.205-3.569-5.206-18.991-11.938-44.5-17.429-21.41-4.609-33.231-5.772-44.328-1.1-15.031 6.326-12.767 31.474.019 38.221z" fill="#ef8d22"/><path d="m774.954 858.313q2.118 1.3 4.2 2.593l.751.471q2.022 1.266 4.009 2.533l.313.2q2.077 1.328 4.111 2.652l.81.528q2 1.308 3.968 2.612l.557.372q1.89 1.258 3.743 2.513c.137.092.276.185.412.278q1.95 1.321 3.856 2.637l.694.479q1.912 1.321 3.788 2.637l.262.185q1.845 1.3 3.649 2.583l.413.294q1.839 1.315 3.637 2.618l.525.381q3.7 2.689 7.228 5.321l.313.233q1.763 1.318 3.48 2.617l.257.2q3.532 2.676 6.876 5.268l.126.1q1.7 1.314 3.343 2.605c11.019-5.172 14.177-20.532-5.819-41.293-8.391-8.712-18.094-18.424-28.014-28.258-7.9-1.313-15.527-1.516-22.193 1.312-10.536 4.469-12.946 16.213-10.576 22.14q2.236 1.335 4.426 2.674c.282.166.57.34.855.515z" fill="#efc15b"/><path d="m809.682 747.432c21.73 20.031 56.8 46.92 76.18 55.167l-59.371-98.742c-2.432 6.237-11.1 9-23.328 5.223-19.185-5.925-18.219 15.55 6.519 38.352z" fill="#ef8d22"/><circle cx="768.468" cy="820.711" fill="#2b2929" r="4.76"/><circle cx="745.421" cy="814.788" fill="#2b2929" r="4.76"/><circle cx="717.805" cy="811.721" fill="#2b2929" r="4.76"/><path d="m722.38 856.313c-.134 0-.268 0-.4-.009a1.5 1.5 0 0 1 -1.434-1.564 1.52 1.52 0 0 1 1.565-1.434 4.166 4.166 0 0 0 4.165-2.4c3.841-7.059-.959-26.036-9.691-38.313a1.5 1.5 0 1 1 2.446-1.738c9.622 13.529 14.332 33.3 9.881 41.484a7.1 7.1 0 0 1 -6.532 3.974z" fill="#2b2929"/><path d="m736.651 853.411a6.887 6.887 0 0 1 -1.465-.158 1.5 1.5 0 1 1 .637-2.931 4.819 4.819 0 0 0 4.331-1.551c3.97-3.871 7.347-15.021 3.794-33.7a1.5 1.5 0 0 1 2.947-.561c3.771 19.83.072 31.812-4.648 36.412a8.036 8.036 0 0 1 -5.596 2.489z" fill="#2b2929"/><path d="m751.48 853.862a6.491 6.491 0 0 1 -3.408-.95 1.5 1.5 0 0 1 1.556-2.564 4.167 4.167 0 0 0 4.2-.1c5.274-2.616 11.384-12.812 13.145-29.694a1.5 1.5 0 1 1 2.984.311c-2.008 19.251-9.225 29.308-14.8 32.071a8.3 8.3 0 0 1 -3.677.926z" fill="#2b2929"/><path d="m999.019 873.967-107.519-178.812c-11.633-19.347-38.937-24.283-60.986-11.026l-87.3 83.635a11.555 11.555 0 0 0 .328 16.985c15.7 13.962 44.433 43.167 37.786 64.727-4.83 15.666 34.242.317 67.216 20 64.734 38.652 103.556 79.676 116.746 84.424 11.106 4 30.082-8.915 33.9-16.394 7.621-14.925 8.893-48.466-.171-63.539z" fill="#bf7351"/><path d="m755.441 796.1c14.849 15.247 31.062 36.622 25.895 53.381-4.83 15.666 34.242.317 67.216 20a636.839 636.839 0 0 1 66.6 46.1c11.02-5.172 14.178-20.532-5.819-41.294-26.9-27.933-67.294-66.135-85.088-85.761s-2.42-44.493-18.631-48.53c-12.687-3.16-39.235 38.043-50.173 56.104z" fill="#ffdc83"/><path d="m918.635 853.073c-18.369.017-42.175-13.084-59.506-5.733-10.536 4.47-12.946 16.214-10.577 22.141 64.726 38.647 103.548 79.671 116.738 84.419 11.106 4 30.081-8.915 33.9-16.394 7.621-14.927 8.893-48.468-.171-63.541l-35.416-58.9c-4.322 29.19-32.061 37.996-44.968 38.008z" fill="#494242"/><path d="m891.5 695.155c-11.632-19.347-38.937-24.283-60.986-11.026l-10.774 10.323a40.9 40.9 0 0 1 19.233 10.781c20.953 20.484-4.545 39.01 33.433 75.149 38.663 36.791 53.539 47.157 86.179 94.308 26.287 37.975 29.39 61.685 27.837 74.479 5.979-3.575 11-8.2 12.764-11.661 7.621-14.927 8.893-48.468-.171-63.541z" fill="#ffe3c3"/><path d="m774.534 873.236c11.609 6.125 27.166-9.212 37.276-9.461 10.2-.251 25.808-.823 36.742 5.706q2.733 1.632 5.4 3.268c5.024-6.332 11.693-15.847 9.39-19.206-3.569-5.205-18.99-11.937-44.5-17.429-21.41-4.608-33.232-5.772-44.328-1.1-15.035 6.327-12.767 31.475.02 38.222z" fill="#ef8d22"/><path d="m853.838 872.679q2.117 1.3 4.2 2.593l.75.471q2.022 1.266 4.01 2.532l.313.2q2.077 1.327 4.11 2.652l.811.528q2 1.308 3.967 2.612l.557.372q1.89 1.258 3.744 2.513l.412.278q1.95 1.321 3.856 2.637c.232.16.463.319.693.479q1.914 1.322 3.788 2.637l.262.184q1.846 1.3 3.649 2.584l.413.294q1.84 1.315 3.638 2.618l.525.381q3.7 2.689 7.227 5.321l.313.233q1.764 1.317 3.481 2.617l.256.2q3.534 2.674 6.876 5.267l.127.1q1.7 1.315 3.342 2.606c11.02-5.172 14.178-20.532-5.819-41.294-8.391-8.712-18.094-18.423-28.014-28.258-7.9-1.313-15.527-1.515-22.192 1.312-10.536 4.47-12.946 16.214-10.577 22.141q2.236 1.335 4.427 2.674z" fill="#ffdc83"/><path d="m888.565 761.8c21.731 20.03 56.8 46.92 76.181 55.167l-59.371-98.742c-2.433 6.237-11.1 9-23.329 5.223-19.184-5.927-18.219 15.552 6.519 38.352z" fill="#ef8d22"/><circle cx="847.352" cy="835.076" fill="#2b2929" r="4.76"/><circle cx="824.304" cy="829.154" fill="#2b2929" r="4.76"/><circle cx="796.688" cy="826.087" fill="#2b2929" r="4.76"/><path d="m801.264 870.679c-.134 0-.269 0-.4-.009a1.5 1.5 0 1 1 .131-3 4.172 4.172 0 0 0 4.165-2.4c3.84-7.059-.959-26.036-9.691-38.314a1.5 1.5 0 0 1 2.446-1.738c9.622 13.53 14.332 33.3 9.88 41.486a7.1 7.1 0 0 1 -6.531 3.975z" fill="#2b2929"/><path d="m815.535 867.778a6.888 6.888 0 0 1 -1.465-.159 1.5 1.5 0 1 1 .636-2.931 4.823 4.823 0 0 0 4.33-1.551c3.972-3.871 7.349-15.02 3.794-33.7a1.5 1.5 0 0 1 2.948-.561c3.772 19.83.073 31.812-4.647 36.413a8.042 8.042 0 0 1 -5.596 2.489z" fill="#2b2929"/><path d="m830.364 868.228a6.5 6.5 0 0 1 -3.41-.95 1.5 1.5 0 0 1 1.559-2.565 4.171 4.171 0 0 0 4.2-.1c5.276-2.613 11.387-12.813 13.147-29.692a1.5 1.5 0 1 1 2.984.311c-2.009 19.252-9.225 29.308-14.8 32.071a8.311 8.311 0 0 1 -3.68.925z" fill="#2b2929"/><path d="m425.5 616.335c-39.817-6.817-93.413-49.484-73.053-177.4-22.716-25.056-8.618-100.935 18.744-147.535-27.362-23.667-12.206-90.149 15.3-121.788-1.542-70.506 86.114-169.704 171.888-169.612 79.4.085 79.326 43.883 68.716 66.564 3.086 15.088 83.516 458.316 69.35 477.83s-227.745 79.337-270.945 71.941z" fill="#ff5e43"/><path d="m609.368 24.683c-8.727-6.609-19.172-9.9-37.6-11.167-29.868-2.052-60.645 6.972-79.568 19.053-70.448 44.972-100.94 112.463-88.923 141.514.388.938-27.406 43.555-10.916 66.088-.003-0 244.222-194.879 217.007-215.488z" fill="#e54630"/><path d="m494.048 894.746c-43.607 54.881-195.948 51.592-238.195 3.759-46.532-52.682-41.3-127.071 54.377-210.332 73.877-64.294 153.006-94.279 197.709-103.279 31.846-6.412 50.865 7.661 67.177 20.847 39.132 31.632-2.165 189.707-81.068 289.005z" fill="#80862c"/><path d="m425.5 616.335c-44.905 7.391-102.058-40.389-73.053-177.4-6.428-7.093 19.478-3.285 59.608 6.263 101.645 24.189 177.078 136.632 99.978 153.61-38.66 8.512-72.096 15.149-86.533 17.527z" fill="#e54630"/><path d="m507.939 584.894c-31 6.242-78.575 22.594-129.464 53.472-1.022 11.86-.721 15.3-29.8 41.372s-75.308 70.57-90.971 112.227c-10.7 28.448-10.276 49.328-27.6 58.762 4.2 17.37 13.034 33.386 25.745 47.778 13.212 14.958 37.189 25.56 65.241 31.389 5.663-6.189-33.072-69.581-8.737-141.887 25.284-75.116 227.432-209.525 195.586-203.113z" fill="#5b5c1a"/><path d="m750.173 747.107c15.285-3.676 32.148-11.1 51.417-25.536 42.83-32.093 30.114-151.835-19.755-218.84l-259.659 13.588c-7.637-4.009 1.951 80.1-4.218 81.934-27.232 8.083-207.728 89.92-244.193 195-33.674 97.036 6.325 179.557 175.348 156.781 11.221 1.03 23.623 1.749 38.4 2.038 25.422.5 134.39 0 179.957 0q2.212 0 4.3-.048c10.544 2.631 68.337 8.493 103.007.8 52.588-11.669 60.45-60.58 29.115-133.273-15.961-37.036-32.981-60.332-53.719-72.444z" fill="#80862c"/><path d="m816.854 575.725a211.308 211.308 0 0 0 -35.019-72.994l-259.659 13.588c-7.637-4.008-4.472 69.452-10.64 71.283-8.781 2.606-32.637 13.3-62.209 30.337 14.556-3.73 31.9-5.47 45.51-1.959 23.892 6.166 36.78 36.148 80.347 20.734s179.585-72.372 241.67-60.989z" fill="#5b5c1a"/><path d="m810.277 502.731c22.855-64.2 9.575-218.926-84.4-337.06-60.36-75.871-115.42-114.742-175.498-108.428-27.185 2.857-55.967 21.49-72.886 35.5-85.388 70.711-105.374 219.445-93.977 344.3 5.337 58.468 10.575 110.167 35.368 139.4 18.855 22.233 24.126 32.432 115.074 16.641 26.386-4.581 62.949-4.1 106.019-10.873 83.661-13.157 145.83-10.749 170.3-79.48z" fill="#5dace2"/><path d="m253.9 168.713c-.966 8.607 1 19.532.817 28.194-.127 5.937-2.919 11.913-6.073 7.4-1.269 16.357 0 40.41 8.961 54.156s25.106 23.407 41.43 21.759c5.389-.544 10.89-2.424 14.508-6.455 4.349-4.846 5.229-11.826 5.419-18.335.354-12.154-.99-24.288-2.4-36.366-1.558-13.379-3.289-27.066-9.4-39.068-6.27-12.3-16.674-21.908-26.861-31.232l-22.293-20.4c-10.541-9.648-9.2-.053-6.608 7.7 3.5 10.492 3.725 21.734 2.5 32.647z" fill="#dda094"/><path d="m239.51 250.97c-11.686-15.835-29.043-49.3-32.143-61.2-1.976-7.579 1.761-13.848 8.749-13.453 14.949.847 26.786 18.64 30.4 24.632 6.837 11.329 15.814 20.245 22.651 31.575 4.529 7.5 33.107 39.046 16.748 43.836-13.094 3.834-36.253-11.633-46.405-25.39z" fill="#dda094"/><path d="m311.522 144.329a27.128 27.128 0 0 0 -21.672-11.907c-3.581-6.747-9.275-15.391-21.806-15.391a39.9 39.9 0 0 0 -12.595 2.706c-4.957-12.889-22.491-16.09-37.216-2.818-13.932 12.558-23.9 29.207-17.225 37.273a11.66 11.66 0 0 0 9.745 4.147c-.153 9.972 9.843 16.214 23.139 11.877 1.577 8.687 11.6 15.395 29.133 7.62 17.5-7.763 23.656-.834 15.311 29.207s2.166 54.251 21.14 57.3c12.239 1.967 24.357-3.056 31.153-28.094s-.829-66.48-19.107-91.92z" fill="#f8b5a4"/><path d="m210.741 159.191h-.013a.849.849 0 0 1 -.837-.863 19.118 19.118 0 0 1 1.744-7.427c5.093-11.514 27.026-26.089 43.527-31.969a.85.85 0 0 1 .571 1.6c-16.175 5.763-37.625 19.935-42.543 31.054a17.445 17.445 0 0 0 -1.6 6.766.849.849 0 0 1 -.849.839z" fill="#403838"/><path d="m233.883 171.077a.851.851 0 0 1 -.835-.7 16.009 16.009 0 0 1 5.213-14.586c12.67-11.681 33.751-25.069 51.607-24.222a.849.849 0 1 1 -.079 1.7c-17.284-.774-37.947 12.315-50.376 23.775a14.321 14.321 0 0 0 -4.693 13.032.849.849 0 0 1 -.684.988.793.793 0 0 1 -.153.013z" fill="#403838"/><path d="m246.515 171.977c-3.358 0-5.88-.82-6.947-2.317-1.428-2-1.154-4.841.772-8 2.69-4.409 8.547-9.154 12.052-8.625 2.158.314 5.191 2.99 6.906 6.092 1.454 2.631 1.753 5.215.842 7.277-1.374 3.109-6.628 4.974-11.225 5.444a23.545 23.545 0 0 1 -2.4.129zm5.329-17.279c-2.4 0-7.4 3.5-10.053 7.849-.9 1.47-2.2 4.221-.84 6.124.907 1.273 4.033 1.872 7.791 1.487 4.781-.489 8.92-2.356 9.842-4.441.933-2.11-.085-4.518-.775-5.766-1.562-2.826-4.237-5.025-5.662-5.233a2.107 2.107 0 0 0 -.303-.018z" fill="#403838"/><path d="m222.107 159.935c-.112 0-.225 0-.336 0-2.658-.064-4.708-.911-5.928-2.447-1.72-2.164.817-6.458 1.986-8.2 2.557-3.812 7.768-9.077 11.693-7.944 2.9.84 6.679 4.028 7.675 7.435a5.482 5.482 0 0 1 -1.178 5.382c-2.836 3.224-9.008 5.774-13.912 5.774zm6.271-17.056c-2.621 0-6.635 3.616-9.136 7.347-2.1 3.134-2.631 5.491-2.068 6.2 1.133 1.426 3.148 1.769 4.638 1.805h.295c4.4 0 10.123-2.341 12.635-5.2a3.808 3.808 0 0 0 .823-3.784c-.869-2.973-4.381-5.661-6.516-6.279a2.444 2.444 0 0 0 -.671-.089z" fill="#403838"/><path d="m201.5 149.517a2.724 2.724 0 0 1 -1.67-.455.85.85 0 1 1 1.032-1.352c.525.408 3.677-.181 7.23-2.344 3.764-2.293 5.78-4.97 5.4-7.16-.5-2.8-5.5-3.989-7.4-3.989a.85.85 0 0 1 0-1.7c2.17 0 8.351 1.278 9.077 5.393.74 4.188-4.078 7.624-6.184 8.907-2.074 1.26-5.285 2.7-7.485 2.7z" fill="#403838"/><path d="m827.529 426.528c-.015-.173-.033-.352-.05-.526 7.834-11.529 12.064-28.011 9.637-51.332-3.813-36.625-16.667-63.852-34.775-77.937 5.491-14.431 5.16-34.349-4.509-61.72-10.62-30.06-26.347-50.644-43.793-61.061 1.518-18.14-8.616-42.334-30.01-66.99-25.16-29-58.367-45.974-93.2-51.708.078-.266.173-.523.239-.8 5.116-21.261-4.252-49.354-57.413-53.829.952 2.843-3.945 9.072-1.887 12.89 26.211 1.924 36.253 31.971.442 43.065-12.89 3.993-35.039 10.362-55.938 26.117-36.641 27.623-62.379 68.293-44.539 90.871-12.364 18.341-20.029 42.141-19.253 64.288 1.067 30.41 6.708 49.673 15.582 61.794-.193 53.257 4.447 111.121 9.644 160.046-23.524 86.434-12.3 126.953 3.61 138.787 38.4 28.555 128.791-11.93 291.554-33.9 94.068-12.698 77.972-91.145 54.659-138.055z" fill="#ff5e43"/><path d="m467.315 507.548q-1.517 9.9-2.259 18.623c-.361 4.69 24.09 16.1 70.039 22.167 130.61 17.257 182.084-23.676 189.114-75.792 17.033-10.221 31.128-76.351 12.486-105.41-23.395-36.463-21.221 188.354-269.38 140.412z" fill="#e54630"/><path d="m544.937 280.122c-44.137 3.908-83.092-1.022-91.237-60.833a96.538 96.538 0 0 0 -1.21 18.572c2.54 72.415 31.01 81.645 67.336 81.645 11.521 0 22.349-4 31.765-11.019 5.225-3.9 2.209-29.149-6.654-28.365z" fill="#e54630"/><path d="m751.832 268.614c-4.737-91.368-57.365-160.228-120.7-160.228-86.929 0-107.248 68.635-99.519 137.7 3.477 31.063 3.477 41.832 3.859 64.974 0 .056 0 .111.006.167-.132-.019-.256-.038-.388-.056-14.71-2.03-48.549-7.61-72.055-12.083-24.377-31.409-54.128-60.47-76.7-72.725-53.83-29.224-103 21.761-116.64 52.758-15.611 35.472-18.6 100.2 27.79 138.713 8.878 7.372 19.33 10.91 30.518 11.435 20.475 26.141 58.1 56.121 103.5 77.385 64.9 30.394 119.423 28.6 175.063 23.077 35.655-3.54 91.551-35.756 100.431-71.92 31.091-19.338 38.167-84.76 37.113-139.68a121.191 121.191 0 0 0 7.722-49.517z" fill="#77c3ed"/><path d="m565.663 329.17c4.355-21.092-14.667-25.52-18.45-32.441-5.222-9.552 6.829-49.126 21.973-90-21.776 24.055-33.333 15.726-30.258-40.689-8.926 23.476-10.48 51.725-7.31 80.052 3.477 31.063 3.477 41.832 3.859 64.974 14.902 4.95 19.891 5.469 30.186 18.104z" fill="#5dace2"/><path d="m356.405 459.26a.844.844 0 0 1 -.566-.215 234.406 234.406 0 0 1 -37.965-43.411.85.85 0 0 1 1.407-.953 232.677 232.677 0 0 0 37.689 43.1.85.85 0 0 1 -.565 1.484z" fill="#403838"/><path d="m482.512 328.663a.848.848 0 0 1 -.751-.451c-5.472-10.286-13.471-20.542-20.573-29.218a.849.849 0 1 1 1.314-1.077c7.157 8.741 15.219 19.079 20.759 29.5a.85.85 0 0 1 -.749 1.25z" fill="#403838"/><path d="m565.664 330.02a.851.851 0 0 1 -.745-.441c-5.321-9.646-18.882-15.774-29.96-17.568a.85.85 0 0 1 .272-1.678c11.485 1.86 25.579 8.279 31.177 18.426a.85.85 0 0 1 -.334 1.154.834.834 0 0 1 -.41.107z" fill="#403838"/><path d="m706.95 458.651a.84.84 0 0 1 -.132-.011.849.849 0 0 1 -.709-.971c2.578-16.542 1.5-32.84-3.037-45.889a.85.85 0 0 1 1.605-.559c4.627 13.309 5.732 29.9 3.111 46.71a.849.849 0 0 1 -.838.72z" fill="#403838"/><path d="m730.582 472.536a.85.85 0 0 1 -.13-1.69c23.711-3.729 57.609-14.6 76.518-28.159a.85.85 0 1 1 .99 1.381c-19.124 13.714-53.335 24.7-77.245 28.458a.86.86 0 0 1 -.133.01z" fill="#403838"/><path d="m752 332.917a.85.85 0 0 1 -.182-1.68c10.861-2.409 19.141-5.365 26.849-9.583a.85.85 0 1 1 .817 1.49c-7.855 4.3-16.274 7.308-27.3 9.753a.832.832 0 0 1 -.184.02z" fill="#403838"/><path d="m754.036 173.975c-.963 11.431-6.567 20.444-16.906 25.653 21.129-.908 23.511-5.11 40.031-4.283-7.092-9.329-14.92-16.466-23.125-21.37z" fill="#e54630"/><path d="m808.707 302.446a67.617 67.617 0 0 0 -6.394-5.635 46.643 46.643 0 0 1 -19.013 22.925v.192a50.334 50.334 0 0 1 16.443-5.22 58.912 58.912 0 0 1 18.729.217 76.843 76.843 0 0 0 -9.765-12.479z" fill="#e54630"/><path d="m832 436.163q-1.411-3.134-2.788-6.151c-.556-1.178-1.118-2.343-1.685-3.484-.008-.1-.019-.193-.028-.288l-.072-.162a51.145 51.145 0 0 1 -17.951 16.1 66.227 66.227 0 0 1 9.954 1.929 71.114 71.114 0 0 1 18.67 8.054c-1.819-5.524-3.887-10.889-6.1-15.998z" fill="#e54630"/><path d="m648.66 59.222q-4.636-1.311-9.34-2.328c.327-13.121-4.349-27.455-18.984-39.748 11.86 10.911 13.041 26.011 10 36.87-5.3 18.947-44.951 28.413-45.636 28.684 35.563-.926 59.571-16.22 63.96-23.478z" fill="#e54630"/><path d="m496.813 937.707a320.478 320.478 0 0 1 -47.3 12.359c11.117 1.011 23.4 1.717 38 2 6.945.135 38.74.2 55.157.215-44.973 0 23.5-40.35 15.158-36.7-30.06 13.135-48.815 17.175-61.015 22.126z" fill="#5b5c1a"/><path d="m698.322 749.652c-49.3 26.035-83.324 52.26-165.2 77.656l.075 1.448c44.654-11.219 77.231-20.268 111.932-16.414 3.4-37.322 94.618-62.308 114.022-59.114a77.362 77.362 0 0 0 -8.917-6.136c-19.268 4.646-36.027 3.331-51.912 2.56z" fill="#5b5c1a"/><path d="m485.841 834.37c-3.057 0-5.623-.057-7.489-.138a.85.85 0 1 1 .074-1.7c9.8.425 39.082.217 56.7-5.778a.85.85 0 1 1 .547 1.61c-14.493 4.936-36.69 6.006-49.832 6.006z" fill="#403838"/><path d="m487.513 850.943a.851.851 0 0 1 -.113-1.694c6.391-.863 15.681-7.136 20.308-17.059a.85.85 0 0 1 1.541.719c-4.934 10.582-14.612 17.078-21.621 18.026a.9.9 0 0 1 -.115.008z" fill="#403838"/><path d="m448.111 951.165a.85.85 0 0 1 -.141-1.688 329.083 329.083 0 0 0 56.719-15.471.85.85 0 0 1 .59 1.594 324.984 324.984 0 0 1 -57.026 15.553.86.86 0 0 1 -.142.012z" fill="#403838"/><path d="m670.948 952.586a.84.84 0 0 1 -.26-.041 52.85 52.85 0 0 1 -22.514-13.871.85.85 0 0 1 1.24-1.162 51.152 51.152 0 0 0 21.793 13.414.85.85 0 0 1 -.259 1.66z" fill="#403838"/><path d="m676.557 855.663a.85.85 0 0 1 -.826-.655c-3.467-14.723-18.252-34.706-31.019-41.926a.85.85 0 0 1 .836-1.48c13.107 7.412 28.281 27.914 31.837 43.017a.849.849 0 0 1 -.633 1.021.818.818 0 0 1 -.195.023z" fill="#403838"/><path d="m123.217 472.814a.85.85 0 0 1 -.11-1.693c13.345-1.755 24.958-19.493 31.862-48.663 6.048-25.551 5.817-48.156-.549-53.75a.85.85 0 0 1 1.121-1.277c6.922 6.081 7.367 28.87 1.082 55.418-7.18 30.336-19 48.077-33.294 49.958a.853.853 0 0 1 -.112.007z" fill="#403838"/></svg></g><!--ITEM: Illustration component 2--><g transform="translate(895.0 837.5) rotate(0.0 145.0 145.0)  scale(2.3864777234648367 2.3864777234648367)"><svg width="121.518" height="121.518" viewBox="0.0 0.0 121.518 121.518"><circle cx="60.759" cy="60.759" fill="#d1a7db" r="60.759"/><path d="m60.759 0a61.4 61.4 0 0 0 -6.639.368c-24.946 38.955 6.311 50.4 19.955 56.211 22.531 9.593 22.948 40.472 1.044 49.442-15.782 6.463-36.086 5.585-49.862 4.032a60.754 60.754 0 1 0 35.502-110.053z" fill="#ae75bc"/></svg></g><!--ITEM: Illustration component 3--><g transform="translate(72.5 1250.0) rotate(0.0 621.25 743.75)  scale(2.3975239414714715 2.3939654367719525)"><svg width="518.243" height="621.354" viewBox="0.0 0.0 518.243 621.354"><path d="m189.581 423.232-85.832 23.81c1.8 18.886 49.858 72.65 46.282 83.388-3.53 10.6-15.923 25.974-13.073 41.5 2.833 15.438 16.782 36.223 24.8 46.046a9.2 9.2 0 0 0 7.232 3.378c4.938-.05 14.964 0 18.168 0 7.762 0 10.364-19.333.183-22.112-3.579-.977-9.822.372-11.654-4.44-5.552-14.588-2.075-28.138 5-35.41 12.1-12.434 26.152-23.173 32.581-54.381 5.618-27.285-4.693-71.623-23.687-81.779z" fill="#ffe3c3"/><g fill="#f8a036"><path d="m104.273 375.338c-39.44 0-71.412-30.312-71.412-67.705 0-21.71 12.708-48.9 33.171-59.617 9.443-4.947 8.383-10.582 1.939-9.392-41.034 7.576-67.971 43.576-67.971 84.95 0 48.153 39.328 87.19 87.843 87.19s87.842-39.037 87.842-87.19q0-4.353-.425-8.6c-3.86 33.939-34.16 60.364-70.987 60.364z"/><path d="m239.961 161.724c-44.23-44.211-17.181-101.124 18.514-122.224 31.956-18.891 72.1-5.881 72.1-5.881s24.116-36.178 45.258-33.475 29.972 42.278 26.752 60.277c-4.679 26.158-38.892 73.3-59.9 79.97-23.437 7.439-75.711 48.336-102.724 21.333z"/><path d="m230.852 151.128c4.168 6.052 11.157 10.286 6.465 23.074a364.86 364.86 0 0 1 -33.537 68.688c-41.069 65.246-75.361 94.755-105.575 110.356-3.508 1.812-52.856 69.391-24.5 106.823s126.634 26.619 202.965-19.1c81.3-48.7 122.748-112.534 97.032-208.271-8.236-30.663-19.889-49.771-30.419-102.66-4.143-20.799-119.983 10.121-112.431 21.09z"/></g><path d="m331.78 390.249c2.63 11.581 53.443 35.147 80.721 46.531 10.468 4.369 12.681 4.565 16.784 4.369 2.422-.116 5.985-.709 8.4-3.221a139.465 139.465 0 0 0 10.674-12.506c4.687-6.078-3.663-18.821-13.579-13.642a20.823 20.823 0 0 1 -8.515 2.45c-6.058-.038-15.172-9.382-25.849-23.215-13.118-16.993-29.374-45.87-32.029-50.493s-38.412 41.778-36.607 49.727z" fill="#ffe3c3"/><path d="m381.288 236.383c-8.254-30.827-27.536-53.849-38.087-107.023-3.1-15.614-9.057-19.537-14.979-10.417-6.764 10.417-8.16 15.786-6.731 20.983 11.387 41.411 18.659 59.043 25.992 86.433 25.77 96.252-15.762 160.429-97.234 209.391-51.192 30.765-112.233 45.805-155.529 41.109 41.545 16.877 121.187 1.635 184.448-35.122 82.298-47.82 127.889-109.102 102.12-205.354z" fill="#fcf0e3"/><path d="m375.833.144c-21.142-2.7-45.258 33.477-45.258 33.477s2.575 2.679 4.539 4.455c19.885 17.99 19.58 50.46-.68 72.522s-15.186 37.232 8.25 29.793c21.009-6.67 55.222-53.812 59.9-79.97 3.216-18-5.609-57.573-26.751-60.277z" fill="#fcf0e3"/><path d="m375.833.144a23.533 23.533 0 0 0 -12.833 2.456c-.773 5.158.252 11.024 2.746 12.637 5.141 3.324 18.021-1.249 22.238-8.59a20.679 20.679 0 0 0 -12.151-6.503z" fill="#2b2929"/><path d="m364.643 197.709-136.72-11.693a2.715 2.715 0 0 1 -2.36-3.558l3.477-10.4a2.733 2.733 0 0 1 2.829-1.848l130.545 11.165a2.728 2.728 0 0 1 2.42 2.057l2.7 10.924a2.72 2.72 0 0 1 -2.891 3.353z" fill="#ee2667"/><ellipse cx="327.737" cy="57.867" fill="#fff" rx="11.827" ry="15.033" transform="matrix(.98511833 -.17187752 .17187752 .98511833 -5.069 57.194)"/><path d="m333.065 63.776a17.164 17.164 0 0 0 6.464-2.5 18.606 18.606 0 0 0 -.128-5.366c-1.4-8.184-7.748-13.943-14.189-12.861-5.293.888-8.992 6.119-9.373 12.5 2.95 5.914 9.894 9.458 17.226 8.227z" fill="#2b2929"/><path d="m404.349 32.593c6.35-3.887 18.783-.56 16.893 6.067s-12.7 5.09-17.536 7.94c-3.083 1.816-5.429 4.618-7.711 7.363q2.029-6.324 3.806-12.723c.893-3.217 1.343-6.685 4.548-8.647z" fill="#ffaac5"/><path d="m379.2 68.93a12.271 12.271 0 0 1 -3.193-.426 1 1 0 1 1 .52-1.932 11.066 11.066 0 0 0 9.381-1.878c6.9-4.685 12.339-16.237 13.858-29.429a1 1 0 0 1 1.987.228c-1.607 13.957-7.248 25.78-14.721 30.856a13.9 13.9 0 0 1 -7.832 2.581z" fill="#403838"/><path d="m209.607 423.232c0-44.27-33.891-80.158-75.7-80.158s-75.7 35.888-75.7 80.158a84.5 84.5 0 0 0 3.451 23.989c3.293 19.641 29.713 71.587 26.137 82.225-3.53 10.5-17.255 25.532-15.916 41.114s18.638 37.477 26.654 47.208a9.239 9.239 0 0 0 7.232 3.347c4.938-.051 13.965 0 17.168 0 10.18 0 13.212-19.853 2.1-23.011-3.566-1.013-7.769.6-9.6-4.168-5.553-14.452-5.539-25.537-1.488-26.916 11.4-3.88 47.954-12.391 71.591-45.613 16.164-22.707 19.239-45.661 17.412-65.307a83.823 83.823 0 0 0 6.659-32.868z" fill="#f8a036"/><path d="m38.5 334.039a64.486 64.486 0 0 1 -5.636-26.406c0-21.71 12.708-48.9 33.171-59.617 9.443-4.947 8.383-10.582 1.939-9.392-41.037 7.576-67.974 43.576-67.974 84.95 0 1.826.063 3.626.174 5.426a55.217 55.217 0 0 0 38.326 5.039z" fill="#fcf0e3"/><path d="m371.007 294.85s18.169 16.55 23.541 16.55c11.2 0 43.984-13.849 52.2-13.076 12.735 1.2 34.384 7.545 41.766 8.315 2.39.25 13.262-2.16 21.978.17s9.746 13.181 4.755 16.4-15.928 5.877-27.708 7.049-32.34 3.188-37.33 3.858c-4.4.592-38.905 24.622-62.2 30.239-7.86 1.894-28.95-9.581-32.933-11.369-5.692-2.559 15.931-58.136 15.931-58.136z" fill="#fcf0e3"/><path d="m300.084 331.664c-.728-6.1-3.538-11.733-6.3-17.227q-13.983-27.779-27.967-55.555c-5.922-11.764-11.958-23.694-20.889-33.409-6.261-6.81-14.215-12.448-22.972-15.235a351.24 351.24 0 0 1 -18.176 32.652c-37.85 60.132-75.11 90.932-105.739 110.038a36.142 36.142 0 0 0 22.332 25.14c8.985 3.327 19 3.131 27.95 6.561 13.148 5.043 22.308 17.212 35.018 23.262 14.352 6.831 31.262 5.016 46.837 1.761 11.1-2.32 22.546-5.547 30.88-13.192 5.117-4.694 8.714-10.749 12.882-16.292 11.379-15.129 28.385-29.755 26.144-48.504z" fill="#a65f35"/><path d="m250.494 95.56c-7.147 25.311-7.743 60.428 16.593 99.335 17.716 28.323 40.714 51.9 53.791 54.016 19.029 3.079 56.07-30.192 50.2-64.678-5.45-32-44.233-28.587-67.059-83.714-10.706-25.85-47.429-26.547-53.525-4.959z" fill="#f8a036"/><path d="m324.507 250.218a22.18 22.18 0 0 1 -3.8-.321c-8.046-1.4-22.92-13.625-37.013-30.417-16.3-19.424-28.784-41.447-34.248-60.42l-.128-.442c-2.86-9.923-10.459-36.28-2.178-52.914a1 1 0 0 1 1.791.891c-7.934 15.937-.492 41.751 2.309 51.469l.128.443c12.346 42.869 54.847 86.836 69.682 89.419 8.577 1.5 18.911-2.754 28.349-11.657a1 1 0 0 1 1.373 1.455c-8.572 8.083-17.933 12.494-26.265 12.494z" fill="#403838"/><path d="m322.4 131.7a1 1 0 0 1 -.719-.3c-10.613-10.97-16.148-16.718-25.9-27.422a1 1 0 0 1 1.479-1.348c9.732 10.684 15.258 16.424 25.858 27.379a1 1 0 0 1 -.719 1.7z" fill="#403838"/><path d="m503.426 325.164c.341 2.021-3.954 4.43-9.593 5.381s-10.486.084-10.827-1.937 4.375-1.935 10.013-2.886 10.066-2.579 10.407-.558z" fill="#f7b4a3"/><path d="m510.2 314.871c.327 1.938-1.881 3.925-4.931 4.44s-5.787-.639-6.114-2.577 2.284-1.533 5.334-2.047 5.379-1.753 5.711.184z" fill="#f7b4a3"/><path d="m516.613 317.656c.395 1.414-1.347 3.485-4.048 3.888-2.911.434-4.38-.17-4.711-1.106-.491-1.383 1.14-1.534 3.77-2.268s4.595-1.927 4.989-.514z" fill="#f7b4a3"/></svg></g><!--ITEM: Illustration component 4--><g transform="translate(1190.0 102.5) rotate(0.0 326.25 318.75)  scale(2.4078290422929176 2.4108003857280615)"><svg width="270.991" height="264.435" viewBox="0.0 0.0 270.991 264.435"><ellipse cx="28.85" cy="162.896" fill="#0e1049" rx="28.72" ry="12.485" transform="matrix(.39427876 -.91899089 .91899089 .39427876 -132.225 125.184)"/><circle cx="52.163" cy="188.295" fill="#c99085" r="25.393"/><circle cx="133.616" cy="128.44" fill="#0e1049" r="113.137"/><ellipse cx="125.142" cy="130.643" fill="#f8b5a4" rx="96.908" ry="71.726" transform="matrix(.94148231 -.33706239 .33706239 .94148231 -36.712 49.827)"/><ellipse cx="137.625" cy="189.749" fill="#f8b5a4" rx="97.667" ry="71.186" transform="matrix(.94148231 -.33706239 .33706239 .94148231 -55.905 57.493)"/><path d="m228.452 140.191c-3.9-10.232-9.258-2.29-18.087-8.973a66.953 66.953 0 0 1 3.672 7.448c17.6 42.121-10.922 94.146-63.705 116.2a126.478 126.478 0 0 1 -37.832 9.4 126.137 126.137 0 0 0 49.12-7.5c39.823-14.257 66.832-43.5 71.437-75.589a84.784 84.784 0 0 0 -4.605-40.986z" fill="#c99085"/><path d="m99.652 216.677c13.762-4.5 24.468-15.536 29.072-21.735 1.612-2.171 16.134 17.853 2.382 27.7-11.227 8.039-36.523-4.309-31.454-5.965z" fill="#fff"/><path d="m37.855 92.077c11.245-20.501 21.432-34.225 44.119-45.122a115.708 115.708 0 0 1 90.8-4.1c27.141 10.117 40.896 20.962 54.426 49.13 2.9 6.046-38.552 30.284-78.385 39.468-29.953 6.905-76.131 2.231-89.316-27.235-9.685 9.966-20.024 27.47-24.51 43.023.058-8.851-9.654-32.341 2.866-55.164z" fill="#c99085"/><path d="m237.211 69.311a84.319 84.319 0 0 0 -21.431-5.206q-3.1-3.165-6.419-6.063c17.83-1.643 30.931-7.909 31.231-15.879.371-9.876-19.048-18.624-43.375-19.539a97.273 97.273 0 0 0 -22.369 1.62c9.012-4.942 14.224-10.455 13.136-14.967-1.9-7.884-22.3-9.728-45.549-4.118-11.1 2.677-20.835 6.569-27.783 10.762 5.027-6.468 7.065-13.1 4.534-15.241-2.711-2.3-9.633 1.416-15.461 8.293a38.208 38.208 0 0 0 -4.01 5.684q-1.915-.909-3.915-1.774c-18.244-7.827-35.122-9.306-37.7-3.303-1.852 4.32 4.216 11.346 14.57 17.861a79.94 79.94 0 0 0 -24.988 3.972c-20.004 6.244-34.262 17.587-31.845 25.324 1.43 4.581 8.38 6.875 17.96 6.692a94.883 94.883 0 0 0 -11.464 7.823c-16.62 13.168-26.01 29-20.973 35.353 1.758 2.22 5.046 2.987 9.284 2.49-1.323 2.518-2.571 5.186-3.709 7.99-8.167 20.107-7.777 39.255.871 42.767 4.058 1.648 9.214-.44 14.387-5.2a99.626 99.626 0 0 0 4.3 15.845c12.218-13.38 6.441-43.852 32.305-73.346 13.184 29.466 60.5 34.256 91.566 31.147 26.263-2.628 56.137-13.19 73.231-21.972 22.042 8.267 42.938 6.811 46.785-3.309 3.868-10.181-10.98-25.271-33.169-33.706zm-80.65-37.575h-.007.013zm-64.736 5.015c-1.227.465-2.451.944-3.669 1.453a7.29 7.29 0 0 0 .367-2.729q1.664.674 3.302 1.276z" fill="#0e1049"/><circle cx="214.713" cy="126.932" fill="#f8b5a4" r="27.052"/><path d="m219.107 145.588a.851.851 0 0 1 -.2-1.676 17.489 17.489 0 0 0 -8.381-33.96.85.85 0 0 1 -.408-1.65 19.19 19.19 0 0 1 9.2 37.261.9.9 0 0 1 -.211.025z" fill="#403838"/><ellipse cx="181.848" cy="117.699" fill="#0e1049" rx="12.929" ry="28.893" transform="matrix(.37630512 -.9264958 .9264958 .37630512 4.371 241.89)"/><path d="m93.146 209.211a.846.846 0 0 1 -.32-.064l-6.8-2.762a6.533 6.533 0 0 1 -2.937-9.737l1.6-2.349a.85.85 0 1 1 1.4.959l-1.6 2.349a4.834 4.834 0 0 0 2.172 7.2l6.8 2.762a.85.85 0 0 1 -.32 1.638z" fill="#403838"/><path d="m90.057 140.669a7.5 7.5 0 0 1 -2.757-14.479 158.633 158.633 0 0 1 38.854-9.941 7.5 7.5 0 0 1 1.451 14.93 146.1 146.1 0 0 0 -34.8 8.965 7.484 7.484 0 0 1 -2.748.525z" fill="#0e1049"/><path d="m33.805 168.839a7.5 7.5 0 0 1 -5.138-12.965 61.68 61.68 0 0 1 24.6-14.228 7.5 7.5 0 0 1 3.686 14.54 47.287 47.287 0 0 0 -18.012 10.614 7.478 7.478 0 0 1 -5.136 2.039z" fill="#0e1049"/><ellipse cx="126.113" cy="159.253" fill="#fff" rx="26.642" ry="15.702" transform="matrix(.919417 -.39328409 .39328409 .919417 -52.469 62.431)"/><path d="m132.288 173.689a44.332 44.332 0 0 0 6.138-3.208 20.436 20.436 0 0 0 -28.213-16.581 20.1 20.1 0 0 0 -7.9 6.04c-1.627 3.411-1.97 6.822-.7 9.791 3.415 7.969 17.147 9.745 30.675 3.958z" fill="#2b2929"/><ellipse cx="59.559" cy="184.906" fill="#fff" rx="20.926" ry="12.952" transform="matrix(.919417 -.39328409 .39328409 .919417 -67.921 38.324)"/><path d="m64.653 196.815a33.149 33.149 0 0 0 4.81-2.554 17.707 17.707 0 0 0 -1.287-4.741c-3.66-8.556-13.187-12.686-21.279-9.224a15.185 15.185 0 0 0 -6.16 4.829 9.864 9.864 0 0 0 -.418 8.011c2.814 6.577 13.708 8.224 24.334 3.679z" fill="#2b2929"/></svg></g><!--ITEM: Upload 5--><g transform="translate(970.0 780.0) rotate(0.0 160.0 163.75)  scale(2.3891580009915003 2.394819876639355)"><svg width="133.9384" height="136.7535" viewBox="0.0 0.0 133.9384 136.7535"><g>
	<path fill="#F8B5A4" d="M57.1995,13.262c-3.8942-14.4642-22.4199-18.6366-37.85-4.7287   C5.4177,21.0907-4.5515,37.7399,2.1243,45.8065s20.0274,3.666,33.9352-6.9539C48.9124,29.0382,59.1891,20.652,57.1995,13.262z"/>
	<path fill="#F8B5A4" d="M93.0819,28.1161C89.5687,21.5309,84.459,8.645,69.1603,8.645S19.9264,28.3942,13.5287,42.8584   s6.3976,25.3124,23.9216,18.0803S97.3044,36.0309,93.0819,28.1161z"/>
	<path fill="#F8B5A4" d="M90.8616,24.0291c8.3003,0.358,15.9428,3.7912,21.7769,11.9138   c12.3551,17.2016,19.8454,41.7185,21.2999,63.5339c-8.7126,11.4262-41.8978,32.3081-54.416,37.2768   c-3.7225-10.1093-4.1512-23.406-0.0703-38.0971c8.3447-30.041,2.1928-36.9693-15.3108-29.2066   C37.1721,81.4107,27.947,59.1043,39.9537,48.0317C52.4784,36.4815,73.1649,23.2659,90.8616,24.0291"/>
	<path fill="#403838" d="M11.8573,50.8052c-0.0039,0-0.0088,0-0.0127,0c-0.4697-0.0068-0.8447-0.3936-0.8369-0.8623   c0.0371-2.3975,0.624-4.8965,1.7441-7.4277c5.0918-11.5127,27.0254-26.0879,43.5273-31.9688   c0.4375-0.1553,0.9277,0.0732,1.0859,0.5156c0.1572,0.4424-0.0732,0.9287-0.5156,1.0859   c-16.1758,5.7646-37.626,19.9355-42.543,31.0547c-1.0273,2.3223-1.5654,4.5986-1.5996,6.7656   C12.7001,50.4341,12.3212,50.8052,11.8573,50.8052z"/>
	<path fill="#403838" d="M34.9999,62.6909c-0.4033,0-0.7607-0.2881-0.835-0.6982c-0.9551-5.2432,0.9941-10.6953,5.2129-14.5859   c12.6689-11.6826,33.7598-25.0508,51.6055-24.2227c0.4688,0.0205,0.8311,0.418,0.8096,0.8877s-0.4229,0.8516-0.8877,0.8096   c-17.2812-0.7646-37.9473,12.3145-50.375,23.7754c-3.7881,3.4932-5.543,8.3652-4.6934,13.0312   c0.084,0.4619-0.2217,0.9043-0.6836,0.9883C35.1014,62.686,35.0506,62.6909,34.9999,62.6909z"/>
	<path fill="#403838" d="M47.6307,63.5913c-3.3584,0-5.8799-0.8213-6.9482-2.3174l0,0c-1.4268-2.001-1.1523-4.8408,0.7734-7.9971   c2.6895-4.4092,8.54-9.1465,12.0518-8.627c2.1572,0.3135,5.1904,2.9893,6.9062,6.0908c1.4541,2.6318,1.7539,5.2158,0.8428,7.2773   c-1.375,3.1104-6.6299,4.9756-11.2275,5.4453C49.1922,63.5493,48.3895,63.5913,47.6307,63.5913z M42.0663,60.2856   c0.9092,1.2725,4.0352,1.874,7.79,1.4863c4.7832-0.4883,8.9238-2.3564,9.8457-4.4414c0.9326-2.1104-0.0859-4.5186-0.7764-5.7666   c-1.5615-2.8252-4.2373-5.0244-5.6621-5.2324c-2.2842-0.3281-7.5879,3.2939-10.3564,7.8301   C42.0106,55.6323,40.7089,58.3823,42.0663,60.2856L42.0663,60.2856z"/>
	<path fill="#403838" d="M23.2225,51.5483c-0.1133,0-0.2256-0.001-0.3369-0.0039c-2.6572-0.0654-4.7061-0.9111-5.9268-2.4473   c-1.7197-2.1641,0.8164-6.458,1.9863-8.2041c2.5566-3.8135,7.7744-9.0752,11.6934-7.9424l0,0   c2.9014,0.8389,6.6777,4.0264,7.6738,7.4336c0.5801,1.9824,0.1729,3.8438-1.1777,5.3818   C34.2987,48.9985,28.1268,51.5483,23.2225,51.5483z M29.494,34.4936c-2.6211,0-6.6357,3.6152-9.1367,7.3457   c-2.1006,3.1348-2.6299,5.4922-2.0674,6.2012c1.1328,1.4248,3.1475,1.7676,4.6377,1.8037   c4.3906,0.126,10.3604-2.2715,12.9297-5.1992c0.9609-1.0947,1.2373-2.3682,0.8232-3.7842   c-0.8691-2.9736-4.3799-5.6602-6.5146-6.2773l0,0C29.9549,34.5229,29.7303,34.4936,29.494,34.4936z"/>
	<path fill="#403838" d="M2.618,41.1304c-0.6738,0-1.251-0.1357-1.6699-0.4551c-0.373-0.2842-0.4453-0.8174-0.1602-1.1914   c0.2832-0.3721,0.8154-0.4453,1.1914-0.1602c0.5283,0.4043,3.6797-0.1816,7.2305-2.3447c3.7646-2.293,5.7803-4.9688,5.3945-7.1582   c-0.4951-2.8018-5.4971-3.9893-7.4033-3.9893c-0.4697,0-0.8496-0.3799-0.8496-0.8496s0.3799-0.8496,0.8496-0.8496   c2.1699,0,8.3506,1.2783,9.0771,5.3936c0.7393,4.1865-4.0781,7.6221-6.1836,8.9053C8.0282,39.6899,4.8124,41.1304,2.618,41.1304z"/>
</g>
</svg></g><!--ITEM: Upload 6--><g transform="translate(492.5 1455.0) rotate(0.0 80.0 110.0)  scale(2.4145403620603276 2.4034233488208474)"><svg width="66.2652" height="91.5361" viewBox="0.0 0.0 66.2652 91.5361"><g>
	<path fill="#F8B5A4" d="M9.7101,12.9899c11.8516,17.5379,40.2141,38.0089,49.2547,25.525   c7.6877-10.6157-4.0075-24.4172-12.2466-32.8142c-1.5227-1.5519-3.0387-3.1875-4.6654-4.8513L26.6101,6.6461L9.7101,12.9899z"/>
	<path fill="#F8B5A4" d="M12.9974,19.6565C4.3442,18.3591-8.5109,36.3922,7.9408,50.7026s44.1491,26.848,50.1723,9.43   c3.3767-9.765-9.3234-20.4966-19.3698-28.6979C32.6467,26.4577,24.8254,21.4299,12.9974,19.6565z"/>
	<path fill="#F8B5A4" d="M23.5578,58.1712c-7.0612,1.4191-14.3144,19.2382,1.1275,27.11s38.7559,10.543,40.6548-5.4512   c1.0645-8.9667-8.9243-16.0289-18.1956-18.7354C41.1263,59.3377,33.8192,56.109,23.5578,58.1712z"/>
	<path fill="#403838" d="M50.952,43.2004c-0.0469,0-0.0938-0.0039-0.1416-0.0127c-14.3252-2.4043-28.666-13.8906-36.5928-22.9951   c-0.3086-0.3545-0.2715-0.8916,0.082-1.1992c0.3535-0.3096,0.8906-0.2715,1.1992,0.082   c7.7432,8.8936,21.7109,20.1055,35.5928,22.4365c0.4629,0.0771,0.7754,0.5156,0.6973,0.9785   C51.7196,42.9054,51.3592,43.2004,50.952,43.2004z"/>
	<path fill="#403838" d="M45.4091,69.4504c-8.2168,0-18.4629-4.4648-27.0625-9.9424c-0.3955-0.252-0.5117-0.7773-0.2598-1.1738   c0.252-0.3945,0.7783-0.5107,1.1738-0.2598c12.3291,7.8555,28.0732,13.6641,35.2695,6.416c0.332-0.335,0.8701-0.334,1.2021-0.0049   c0.333,0.3311,0.335,0.8691,0.0049,1.2021C53.1034,68.339,49.5087,69.4504,45.4091,69.4504z"/>
	<path fill="#403838" d="M44.1942,65.6701c-3.6084,0-7.3779-1.1719-8.9277-2.3408l0,0c-2.5518-1.9258-2.5889-7.7793-1.0215-12.0391   c1.2383-3.3672,3.3047-5.2256,5.6973-5.0801c3.7979,0.2236,8.7217,3.4912,11.209,7.4385c1.7051,2.7051,2.1035,5.3662,1.1533,7.6953   c-0.7861,1.9268-2.4121,3.2783-4.7031,3.9082C46.5389,65.5451,45.3759,65.6701,44.1942,65.6701z M36.2899,61.9719   c1.5459,1.165,6.9814,2.7119,10.8604,1.6416c1.7881-0.4922,2.9922-1.4717,3.5801-2.9121c0.9277-2.2734-0.041-4.5977-1.0166-6.1465   c-2.1895-3.4746-6.6182-6.4561-9.8711-6.6475c-2.293-0.1494-3.5469,2.7324-4.002,3.9697   C34.4227,55.7316,34.6454,60.7316,36.2899,61.9719L36.2899,61.9719z"/>
	<path fill="#403838" d="M49.4569,37.4582c-4.0244,0-8.5273-2.1348-9.9785-3.7598l0,0c-2.2539-2.5264-1.2979-9.417,1.0664-13.2861   c1.5537-2.5439,3.5537-3.6533,5.6348-3.1055c3.5352,0.9189,7.4004,4.6592,9.1895,8.8916c1.3037,3.085,1.3115,6.0352,0.0215,8.3086   c-0.9414,1.6572-2.6133,2.6582-4.8359,2.8945C50.1942,37.4396,49.827,37.4582,49.4569,37.4582z M40.746,32.5656   c1.3379,1.498,6.0898,3.5264,9.6279,3.1455c1.6797-0.1787,2.8691-0.8662,3.5381-2.0439c1.0234-1.8027,0.9844-4.2197-0.1094-6.8066   c-1.5742-3.7246-5.0352-7.124-8.0508-7.9092c-1.6553-0.4268-2.957,1.0381-3.7559,2.3477   C39.8495,24.8127,39.1835,30.8136,40.746,32.5656L40.746,32.5656z"/>
	<path fill="#403838" d="M49.6327,89.8537c-1.1475,0-2.1338-0.1572-2.79-0.4941l0,0c-2.5508-1.3096-3.6807-6.627-2.9863-10.5068   c0.5156-2.8799,1.9229-4.6016,3.9619-4.8477c3.3711-0.4082,8.7812,1.0068,11.6465,3.9971   c1.5205,1.5859,2.1572,3.4434,1.8408,5.3691c-0.3086,1.8799-1.7275,3.5059-4.1035,4.7031   C54.9657,89.2013,51.9657,89.8537,49.6327,89.8537z M49.0546,75.634c-0.3623,0-0.709,0.0195-1.0332,0.0586   c-1.665,0.2012-2.2754,2.2539-2.4912,3.46c-0.6074,3.3926,0.4668,7.8623,2.0898,8.6953l0,0   c1.2178,0.623,5.5557,0.3525,8.8174-1.291c1.3037-0.6572,2.916-1.792,3.1904-3.4609c0.2295-1.3975-0.2383-2.7158-1.3896-3.918   C56.077,76.924,52.0184,75.634,49.0546,75.634z"/>
	<path fill="#403838" d="M65.3407,80.6799c-0.0332,0-0.0674-0.002-0.1016-0.0059c-0.4658-0.0547-0.7988-0.4775-0.7432-0.9443   c0.6104-5.1426-2.8389-10.3535-9.4629-14.2949c-0.2197-0.1309-0.3682-0.3525-0.4062-0.6045   c-0.0371-0.252,0.04-0.5078,0.2109-0.6973c1.0645-1.1719,1.8955-2.6113,2.4717-4.2783c1.626-4.7021-0.6582-10.2402-6.9844-16.9307   c-0.2324-0.2461-0.2979-0.6064-0.165-0.917c0.1328-0.3115,0.4375-0.5146,0.7754-0.5166c3.2197-0.0254,5.6895-1.1934,7.3408-3.4736   c5.417-7.4805,1.4375-17.8564-12.1641-31.7207c-0.7764-0.791-1.5498-1.6025-2.3379-2.4287   c-0.7588-0.7969-1.5303-1.6064-2.3291-2.4229c-0.3281-0.3359-0.3223-0.874,0.0127-1.2021c0.3369-0.3281,0.875-0.3223,1.2021,0.0127   c0.8037,0.8223,1.5811,1.6377,2.3447,2.4395c0.7822,0.8193,1.5498,1.626,2.3203,2.4102   c5.249,5.3506,21.2197,21.6299,12.3281,33.9092c-1.6572,2.2881-3.9717,3.6455-6.8955,4.0488   c5.8838,6.6309,7.8984,12.3174,6.1592,17.3477c-0.5312,1.5342-1.2578,2.9033-2.167,4.085   c6.6719,4.2422,10.0996,9.8281,9.4336,15.4355C66.1327,80.3625,65.7655,80.6799,65.3407,80.6799z"/>
</g>
</svg></g></svg>