<svg enable-background="new 0 0 3000 3000" height="3000" viewBox="0 0 3000 3000" width="3000" xmlns="http://www.w3.org/2000/svg" xmlns:xlink="http://www.w3.org/1999/xlink"><linearGradient id="a" gradientTransform="matrix(1 0 0 -1 0 4.1522)" gradientUnits="userSpaceOnUse" x1="1449.4441" x2="1384.9562" y1="7992.9165" y2="5772.3882"><stop offset=".2834" stop-color="#f1f8ff"/><stop offset=".5263" stop-color="#fbf6fb"/></linearGradient><linearGradient id="b"><stop offset=".2904" stop-color="#f1f8ff"/><stop offset=".6312" stop-color="#f5faff"/><stop offset=".8319" stop-color="#fbfcff"/></linearGradient><linearGradient id="c" gradientTransform="matrix(1 0 0 -1 0 4.1522)" gradientUnits="userSpaceOnUse" x1="797.6764" x2="616.8971" xlink:href="#b" y1="7101.1504" y2="6852.4663"/><linearGradient id="d" gradientTransform="matrix(1 0 0 -1 0 4.1522)" gradientUnits="userSpaceOnUse" x1="1488.6007" x2="1371.2755" xlink:href="#b" y1="7468.23" y2="7027.147"/><linearGradient id="e" gradientTransform="matrix(1 0 0 -1 0 4.1522)" gradientUnits="userSpaceOnUse" x1="1229.2592" x2="1217.0717" xlink:href="#b" y1="7437.2407" y2="7413.8032"/><linearGradient id="f" gradientTransform="matrix(1 0 0 -1 0 4.1522)" gradientUnits="userSpaceOnUse" x1="1964.9333" x2="1821.6038" xlink:href="#b" y1="7407.3745" y2="7209.6187"/><linearGradient id="g" gradientTransform="matrix(1 0 0 -1 0 4.1522)" gradientUnits="userSpaceOnUse" x1="2449.2639" x2="1276.314" y1="6959.4497" y2="6095.4473"><stop offset=".1525" stop-color="#ecf3fb"/><stop offset=".3104" stop-color="#e1ebf6"/><stop offset=".5904" stop-color="#c3d7e8"/><stop offset=".9507" stop-color="#93b6d2"/></linearGradient><linearGradient id="h" gradientTransform="matrix(1 0 0 -1 0 4.1522)" gradientUnits="userSpaceOnUse" x1="2273.8538" x2="2207.1047" y1="7218.8525" y2="6410.4277"><stop offset=".1475" stop-color="#cbd4e3"/><stop offset=".2336" stop-color="#c7d2e2"/><stop offset=".3171" stop-color="#bbccde"/><stop offset=".3994" stop-color="#a8c1d8"/><stop offset=".4643" stop-color="#93b6d2"/></linearGradient><linearGradient id="i" gradientTransform="matrix(1 0 0 -1 0 4.1522)" gradientUnits="userSpaceOnUse" x1="701.9037" x2="1373.2113" y1="7093.1929" y2="6265.9766"><stop offset=".1475" stop-color="#91b3ce"/><stop offset=".2329" stop-color="#8eafca"/><stop offset=".7404" stop-color="#7c99b7"/></linearGradient><linearGradient id="j" gradientTransform="matrix(1 0 0 -1 0 4.1522)" gradientUnits="userSpaceOnUse" x1="863.0847" x2="361.5623" y1="7014.3027" y2="6393.2886"><stop offset=".2136" stop-color="#abc7db"/><stop offset=".3294" stop-color="#a7c4da"/><stop offset=".4419" stop-color="#9bbcd5"/><stop offset=".5178" stop-color="#8fb4d1"/></linearGradient><linearGradient id="k" gradientTransform="matrix(1 0 0 -1 0 4.1522)" gradientUnits="userSpaceOnUse" x1="1448.6123" x2="1450.2316" y1="6572.9302" y2="5752.0024"><stop offset=".06028089" stop-color="#deeee4"/><stop offset=".1919" stop-color="#daece4"/><stop offset=".3242" stop-color="#cee6e3"/><stop offset=".4565" stop-color="#badde1"/><stop offset=".5449" stop-color="#a8d4df"/></linearGradient><linearGradient id="l" gradientTransform="matrix(1 0 0 -1 0 4.1522)" gradientUnits="userSpaceOnUse" x1="786.6561" x2="2621.2793" y1="6001.5972" y2="6143.2075"><stop offset=".3395" stop-color="#92b8c1"/><stop offset=".6174" stop-color="#8fbac0"/></linearGradient><linearGradient id="m" gradientTransform="matrix(1 0 0 -1 0 4.1522)" gradientUnits="userSpaceOnUse" x1="1328.4438" x2="1554.7515" y1="6945.5488" y2="6354.5933"><stop offset=".1475" stop-color="#38576c"/><stop offset=".7404" stop-color="#2c4b60"/></linearGradient><linearGradient id="n" gradientTransform="matrix(1 0 0 -1 0 4.1522)" gradientUnits="userSpaceOnUse" x1="905.2558" x2="901.4105" y1="5771.5322" y2="6405.9668"><stop offset=".154" stop-color="#12200f"/><stop offset=".5415" stop-color="#2e4728"/></linearGradient><linearGradient id="o" gradientTransform="matrix(1 0 0 -1 0 4.1522)" gradientUnits="userSpaceOnUse" x1="2104.7681" x2="2084.7607" y1="5821.085" y2="6273.0962"><stop offset=".154" stop-color="#12200f"/><stop offset=".7329" stop-color="#2e4728"/></linearGradient><linearGradient id="p" gradientTransform="matrix(1 0 0 -1 0 4.1522)" gradientUnits="userSpaceOnUse" x1="1131.2571" x2="1683.1785" y1="3573.2781" y2="1384.0648"><stop offset=".147" stop-color="#cadee7"/><stop offset=".6368" stop-color="#dfdadd"/><stop offset=".8089" stop-color="#e7d9d9"/></linearGradient><linearGradient id="q" gradientTransform="matrix(1 0 0 -1 0 4.1522)" gradientUnits="userSpaceOnUse" x1="1560.092" x2="1564.0822" y1="2526.5742" y2="2085.7993"><stop offset="0" stop-color="#c3ccd3"/><stop offset=".8089" stop-color="#cec8cc"/></linearGradient><linearGradient id="r" gradientTransform="matrix(1 0 0 -1 0 4.1522)" gradientUnits="userSpaceOnUse" x1="1699.6537" x2="1712.6156" y1="2743.6987" y2="2125.1584"><stop offset="0" stop-color="#c3cad2"/><stop offset=".8089" stop-color="#cbc8cf"/></linearGradient><linearGradient id="s" gradientTransform="matrix(1 0 0 -1 0 4.1522)" gradientUnits="userSpaceOnUse" x1="983.1804" x2="988.3996" y1="2606.6519" y2="1915.3976"><stop offset=".00000003197" stop-color="#b2b8d0"/><stop offset=".8261" stop-color="#9aa0b0"/></linearGradient><linearGradient id="t" gradientTransform="matrix(1 0 0 -1 0 4.1522)" gradientUnits="userSpaceOnUse" x1="1257.1401" x2="1268.0459" y1="2705.3896" y2="2075.8799"><stop offset="0" stop-color="#96a1b3"/><stop offset=".8089" stop-color="#9aa0b0"/></linearGradient><linearGradient id="u" gradientTransform="matrix(1 0 0 -1 0 4.1522)" gradientUnits="userSpaceOnUse" x1="1113.144" x2="1174.3077" y1="1902.0558" y2="3910.1995"><stop offset=".1519" stop-color="#2e3351"/><stop offset=".5386" stop-color="#384c4d"/></linearGradient><linearGradient id="v" gradientTransform="matrix(1 0 0 -1 0 4.1522)" gradientUnits="userSpaceOnUse" x1="1201.0145" x2="1168.4436" y1="2001.1047" y2="3931.0735"><stop offset=".1519" stop-color="#36444f"/><stop offset=".9128" stop-color="#938a62"/></linearGradient><linearGradient id="w" gradientTransform="matrix(1 0 0 -1 0 4.1522)" gradientUnits="userSpaceOnUse" x1="1505.439" x2="1423.3247" y1="2271.8945" y2="1464.4929"><stop offset=".07873222" stop-color="#2c3b3e"/><stop offset="1" stop-color="#212838"/></linearGradient><linearGradient id="x" gradientTransform="matrix(1 0 0 -1 0 4.1522)" gradientUnits="userSpaceOnUse" x1="1325.5292" x2="1077.5111" y1="1961.0498" y2="1532.5347"><stop offset=".07873222" stop-color="#415150"/><stop offset="1" stop-color="#3a3f52"/></linearGradient><linearGradient id="y" gradientTransform="matrix(1 0 0 -1 0 4.1522)" gradientUnits="userSpaceOnUse" x1="2239.7671" x2="2060.0352" y1="2424.7329" y2="2051.762"><stop offset=".5176" stop-color="#41624f"/><stop offset="1" stop-color="#3e4d52"/></linearGradient><linearGradient id="z" gradientTransform="matrix(1 0 0 -1 0 4.1522)" gradientUnits="userSpaceOnUse" x1="1814.1686" x2="1494.2418" y1="-292.8668" y2="-2447.3298"><stop offset=".1188" stop-color="#fff9fd"/><stop offset=".3474" stop-color="#f7e6e8"/><stop offset=".3804" stop-color="#f6e3e5"/><stop offset=".6352" stop-color="#eedacf"/><stop offset=".9251" stop-color="#efd7cb"/></linearGradient><linearGradient id="A" gradientTransform="matrix(1 0 0 -1 0 4.1522)" gradientUnits="userSpaceOnUse" x1="423.8384" x2="416.5932" y1="-1536.6281" y2="-341.2782"><stop offset=".5807" stop-color="#12200f"/><stop offset=".866" stop-color="#2e4728"/></linearGradient><linearGradient id="B" gradientTransform="matrix(1 0 0 -1 0 4.1522)" gradientUnits="userSpaceOnUse" x1="1000.6296" x2="1009.6145" y1="-617.9504" y2="-1372.8679"><stop offset="0" stop-color="#f6fffe"/><stop offset=".1735" stop-color="#fff"/><stop offset=".526" stop-color="#fdfffe"/><stop offset=".6875" stop-color="#f5fdfb"/><stop offset=".8099" stop-color="#e9fbf6"/><stop offset=".848" stop-color="#e3faf4"/></linearGradient><linearGradient id="C" gradientTransform="matrix(1 0 0 -1 0 4.1522)" gradientUnits="userSpaceOnUse" x1="450.8634" x2="468.6661" y1="-783.4874" y2="-1406.4174"><stop offset="0" stop-color="#f6fffe"/><stop offset=".1506" stop-color="#fdffff"/><stop offset=".5011" stop-color="#fff"/><stop offset=".848" stop-color="#e3faf4"/></linearGradient><linearGradient id="D" gradientTransform="matrix(1 0 0 -1 0 4.1522)" gradientUnits="userSpaceOnUse" x1="1286.0314" x2="1301.2008" y1="-621.4443" y2="-1078.6852"><stop offset="0" stop-color="#f6fffe"/><stop offset=".003976211" stop-color="#f6fffe"/><stop offset=".1355" stop-color="#fdffff"/><stop offset=".5011" stop-color="#fff"/><stop offset=".5645" stop-color="#f4fdfb"/><stop offset=".6828" stop-color="#e3faf4"/><stop offset="1" stop-color="#fff"/></linearGradient><linearGradient id="E" gradientTransform="matrix(1 0 0 -1 0 4.1522)" gradientUnits="userSpaceOnUse" x1="654.5609" x2="688.5403" y1="-1457.7633" y2="-2313.3254"><stop offset=".08491642" stop-color="#f6fffe"/><stop offset=".5011" stop-color="#fff"/><stop offset=".5577" stop-color="#f6fdfb"/><stop offset=".6739" stop-color="#e8fbf6"/><stop offset=".7757" stop-color="#e3faf4"/><stop offset=".9972" stop-color="#fff"/></linearGradient><linearGradient id="F" gradientTransform="matrix(1 0 0 -1 0 4.1522)" gradientUnits="userSpaceOnUse" x1="1384.704" x2="1418.9037" y1="-1133.7832" y2="-2006.6038"><stop offset=".08491642" stop-color="#f6fffe"/><stop offset=".5011" stop-color="#fff"/><stop offset=".5726" stop-color="#f6fdfb"/><stop offset=".7195" stop-color="#e8fbf6"/><stop offset=".848" stop-color="#e3faf4"/><stop offset=".9972" stop-color="#fff"/></linearGradient><linearGradient id="G" gradientTransform="matrix(1 0 0 -1 0 4.1522)" gradientUnits="userSpaceOnUse" x1="1529.8425" x2="1517.2351" y1="-4669.7451" y2="-5205.4717"><stop offset=".3661" stop-color="#d2edf6"/><stop offset=".5066" stop-color="#d4eef6"/><stop offset=".5572" stop-color="#dbeff8"/><stop offset=".5931" stop-color="#e6f3fa"/><stop offset=".6161" stop-color="#f3f6fd"/></linearGradient><linearGradient id="H" gradientTransform="matrix(1 0 0 -1 0 4.1522)" gradientUnits="userSpaceOnUse" x1="8855.8506" x2="9225.7695" y1="7755.1304" y2="5449.5991"><stop offset=".1077" stop-color="#c7dde8"/><stop offset=".5026" stop-color="#c9dde7"/><stop offset=".6448" stop-color="#d0dce4"/><stop offset=".7458" stop-color="#dbdade"/><stop offset=".7971" stop-color="#e5d9d9"/></linearGradient><linearGradient id="I" gradientTransform="matrix(1 0 0 -1 0 4.1522)" gradientUnits="userSpaceOnUse" x1="9100.0508" x2="9107.668" y1="6288.0146" y2="5071.25"><stop offset="0" stop-color="#b0c688"/><stop offset=".1444" stop-color="#acc285"/><stop offset=".2977" stop-color="#a1b57b"/><stop offset=".4545" stop-color="#8ea06b"/><stop offset=".5612" stop-color="#7d8d5c"/></linearGradient><path d="m265.8-6465.9c809.3-1166.2 1869.4-1366.4 1485.4-727.1 381.8-455.2 833-538.6 295.1-19.8 354.1-271.3 493.3-189.4 124.8 107.1 484-183.8 453.8 119.5 244.3 631.4z" fill="url(#a)"/><path d="m1003.9-7288.2c-40 27.1-254.8 175.2-304 231.8-3.5 4-.9 13.6 10.2 2.8 78.7-77 320.6-252.8 293.8-234.6z" fill="url(#c)"/><path d="m1731-7578.8c-311.9 2.2-454.4 143.2-455.2 114.1-.2-6.6 91.8-63.8 232.1-96.5 119.2-27.7 237.5-17.7 223.1-17.6z" fill="url(#d)"/><path d="m1245-7445.2c1.5 3-3 8.4-10.1 12.1s-14.2 4.3-15.7 1.3 3-8.4 10.1-12.1 14.2-4.2 15.7-1.3z" fill="url(#e)"/><path d="m2129.2-7543.4c-179.6 81.1-236.7 181-243.5 163.9-1.6-3.9 41.8-50.4 117.9-100.4 64.6-42.5 133.9-67.3 125.6-63.5z" fill="url(#f)"/><path d="m773.5-6467.8s1151.7-905 1257.5-864.6c200.1 76.5 801.2 855.5 801.2 855.5z" fill="url(#g)"/><path d="m1593.2-6471.4 1239.1-5.5s-590.9-785.2-800.3-855.1c-94.8 105.6-260.5 199.2-132 261.6 327.8 159-150.3 319-306.8 599z" fill="url(#h)"/><path d="m265.8-6465.9s473.8-538.6 599.7-538.6c103.4 0 1278 531.3 1278 531.3z" fill="url(#i)"/><path d="m865.5-7004.5c-132.5-2.1-599.7 538.7-599.7 538.7l244.7-.9c213.5-194.6 438.1-346.4 247.3-398.5-24.1-6.7 59.6-92.5 107.7-139.3z" fill="url(#j)"/><path d="m130-6465.6s238.2 7.7 238.2 43c0 32-85.5 24.3-267.9 92-133.9 49.7 166.4 81.1 339.9 135.9 86.5 27.4-246.7 123.7-76.7 164.4 510.6 122.3 828 64.5 828 64.5 319.5 47.1 432.7 48.4 420.3 5 75.6 38.7 394.8 21.5 335.9-48 0 0 1115.6-81.4 471.4-228.1-241.1-54.9 1004.7-71.5 32.4-176.5-192.4-20.8 379.6-63.3 379.6-63.3-909.7-3.9-1810.5-.6-2701.1 11.1z" fill="url(#k)"/><path d="m2452.7-6413.6c-192.4-20.8 379.7-63.3 379.7-63.3l-47.9.3c-337.2 8.2-1245.5 30-1280.4 29-611.8-16.7 1053.4 77.3 1053.4 77.3 7.4 12.1-457.4 9.9-623 13.2-170 3.4-505.2-5.1-505.1 1.8 0 1.2 8.8 2.2 12 2.3 462.9 19.9 1066.4 39.7 1342.4 32.9 92.3-22.1 68.5-50.3-331.1-93.5z" fill="#e8fcf1"/><path d="m700.4-6383.8c59-20.3 1376.9 12.1 1376.9 12.1-547.1-.1-1227.9 7.8-1335.5 23.3-74.7 10.7-66.6-26.7-41.4-35.4z" fill="#e8fcf1"/><path d="m1948.8-6009s1115.6-81.6 471.4-228.3c-27.8-6.3-35.7-12.4-30.4-17.7-14.9 8.9-10.4 15.3-390.8 46.7-143 11.8 61.7 9.7 61.7 9.7-24.6 11.4-38.3 9.2-126.2 26.8-432 86.5-1063 83.4-1147.4 89.1-1.9.1-5.4.5-6.4 2.5-6.2 12.8 85.9 72.1 243.2 127.3 109.1-2.3 168.8-13.2 168.8-13.2 319.5 47.1 432.7 48.4 420.3 5 75.6 38.8 394.7 21.6 335.8-47.9z" fill="url(#l)"/><path d="m131.3-6465.9s12.7-29.8 65.3-41.9c10.6-2.4-7.2-8.4 23.7-19.9 14.4-5.4-3.1-10.8 22.9-18.9 0 0 .4-.2 2.9-1.7 13.4-7.9 0-19.9 39.6-36.8 13.8-5.9 7.8-27.6 17.9-35.1 6.4-4.8 11.3-1.2 22.7-4 13.1-3.3 2.6-12.8 33.1-18.9 4.4-.9 2-23.6 34.1-20.8 10.9 1-17-23.2 33.2-17.4 4.1.5 1.1-19.7 25.5-23.3 11.6-1.7-10.5-15.1 41.5-19.1 13.9-1.1.5-14.3 41.8-10.2 6.9.7 6-8.5 23.7-5.7 14.8 2.3 17-21 63.8 12.2 8.8 6.2 32.1-5.1 41.4 12.1 9.2 16.8 37-6.6 59.3 10.3 5.4 4.1 35.6-10.8 39 4.2 1.2 5.6 28.2-10.2 46.3 6.7 5.5 5.1 52.2-12 74 25.6 10.7 18.5 45.6-7.9 57.5 15.4 5.1 9.9 17.2-3.7 24.7 10 3 5.5 17.1-7.5 25.1 7.7 1.6 3 13.3-7.8 26 10.9 7 10.3 20.4-5.7 39.2 15.4 5.9 6.6 28.7-4 39.4 10.5 2.1 2.8 25.8-8 39.7 6.6 6.6 6.9 10-9 21.8-5.7 8.6 2.4 5.3-26.9 31.2 0 6.2 6.5 15-14 39.2 9.4 4.3 4.1 37.7-7 52 1.5 8.6 5.1 15.4-13.9 26.4-4 3.8 3.4 10.7-7.8 14.9 3.6 1.5 4.1 23.9-12.4 28.3.8 5.5 16.4 51.1-2.2 56.6 9.2 2 4.1 0 5.4 2.7 7 5.4 3.2 20.9-29.5 42.1-9.5 12.8 12.1 29.2-5.2 33 6.7 3.7 11.4 17.8-6.4 42.6 5.7 24.2 11.8 17.3-9.2 33.4.7 14.2 8.7 5.5-24.2 74.4 2.1 27.3 10.4 1.7-9.4 79.7.4 13.7 1.7 3.7-14.3 40.5-7.1 11 2.2 18.8-18.6 37.9-9.5 19.6 9.4-5.9-40.6 39.7-24.6 31.7 11.1 24.5-54.1 115.1-32.8 31.1 7.3-10.3-27.5 77.7-18 11.4 1.2 12-28.8 94.4 1.6 25.7 9.5 11.4-24.6 76.1-9.2 25.5 6.1 40.1-16.7 60.8-30 42.1-27.1 41.9.5 62.2-4 18-4 5.6-24.1 39.8-15.4 13 3.3-3.5-12.8 41.6-9.5 18.2 1.3 20-25.7 44.5-27.4 7.2-.5 3.2-10.1 22.6-9.5 10.7.3 15.5-30.2 48.3-26.5 23.3 2.6 23.2-15.9 41.6-7.6 15.2 6.8 12.2 3.2 33.2-2s2.4 19.7 66.6 60.1c5.8 3.7 1.1 18.3 5.2 22.3 5.4 5.3 6.4 1.9 14.2 6.2 11.7 6.6-1.4 13.4 25.3 23.8 15 5.9 4 28.9 13.9 42.8 11 15.5 14.2 17.1 30.8 30.8 10.6 8.8 5 23.9 6.9 25.8 2.3 4.1 34.8 7.5 41.5 37.1 3 13.2 23-4 31.2 13.2 7 14.7 9.9 8.6 18.8 9.1 5.3.3 11.2 1.8 22.4 12.1 11.9 10.9 19.7 35.2 19.7 35.2z" fill="url(#m)"/><path d="m993.9-6603.8c45.6 23.7-47.7 42.9-68.6 42.9-7.7 0 54.5 28.5 93.7 13.3 7.4-2.9-15.6 21.6 27.9 12 15.5-3.4 19.9-9.2 38.5-11.3 17.2-1.9-6.3 9.9 38.9 5.7 16.6-1.6 58-11.3 42.1-12.7-38.9-3.5 67.2-7.2 67.2-8.5s-60.1-2.4-77.4 1.5c-8.7 2-32 18.4-44.6 1-17.3-24-38.5-2.2-39.6-14.1-1.8-18.4-34.7-29.2-64.4-32.5-4.6-.6-17.4.8-13.7 2.7z" fill="#3d5b75"/><path d="m1244.2-6564.9c-6.1-6.7 4.6 6.7 30.4-.7 17.3-5 35.6-3.5 36.1-1.8.8 3.2-51.2 1.4-26.5 5.4 7.4 1.3-29.3 8.8-40-2.9z" fill="#3d5b75"/><path d="m1635.5-6548.9c-1 2.4 62 15.7 36.1 20.4-31.6 5.8 57 6.3 65.4 4.8 22.7-4.1 10.9-23.1 54.1-10.9 65.4 18.5-63.7-25 62.3-10.2 15.3 1.8 4.3-11.5 24.5-17 46.3-12.6 81.7-27.6 64-23.8-115.1 24.7-4.1-40.8-4.1-40.8-27.9-4.6-44.3 20.1-50.4 21.8-44.9 12.3-42.6 31.3-53.8 34.7-17.4 5.3-37 7.4-40.8 7.5-60.6 1.6-27.3 13.9-49 19.7-30.6 8.2-59.1 3.5-72.2 1.4-21.8-3.7-35.2-9.6-36.1-7.6z" fill="#3d5b75"/><path d="m157.1-6261.4c263.8 54.8 344.9 87.7 390.2 49.8 11.6-9.7 79.5 26.5 124-22.6 15.4-17 58.3 13.3 95.6-3.9 9.3-4.3-1.6-14.4 19.4-11.5 60.4 8.3 78.7-2.5 127.1-8.2 62.3-7.3 206.2-15.1 225.7-17.8.1-.1 1.2.1-982 14.2z" fill="#8ebbc1"/><path d="m155.6-6264.2c-66.7 25.2 1752.2-34.3 1771.1-36.3 18.3-1.9-776.5-13.2-794-34.2-27.9-33.6-327 1.8-346.1-14.5-108.7-92.4-357.5-80-369.4-51.8-43.3 102.9-137.4 59.5-144.4 111.1-1.4 10.1-26.4-8.6-117.2 25.7z" fill="#94ac6e"/><path d="m492.8-6260.3c88.4-1.5 188.7-3.7 294.3-6.2-45.3-45.2-185.4-144.7-258.9-93.4-27.9 19.6-35.3 67-35.4 99.6z" fill="#8a9b67"/><path d="m1036.6-6339.8c-35.1.4-37.5 44.5-30.9 67.7 90.8-2.4 182-5 269.9-7.5-78.5-24.2-212-60.5-239-60.2z" fill="#8a9b67"/><path d="m367-6258.6c171-.6 356.1-5.7 557.6-11.4-58-8.8-147.7-11.7-150.1-14.5-13.3-15.9-48.9-23.3-67.3-7.1-27-19-67.5-14.4-86.5 4.6-55.7-55.2-116-54.8-169.9-18.5-43.6-19.9-85.6 7.1-83.8 46.9z" fill="#1d2e42"/><path d="m603.9-6265.8c17.1-11.5 34.8-13.6 49.4-2.8 18.4 12.6 38.9-20.8 56.1-8.3 0 0 8.2-21.3 51-17.9-15.5-8.1-39.6-9-53.2 3-27-19-67.7-14.7-86.7 4.3-27.8-27.5-56.4-40.5-85.1-42.9 15 8.4 43.4 24.1 68.5 64.6z" fill="#32474c"/><path d="m2316.6-6198.6c-206.4-19.6-338.3 30.8-327.5 81.2 13 60.8-1117.4 49.2-1338.2 141 340.3 47 540.3 11.5 540.3 11.5 100.4 14.8 182.5 25 244.6 30.8 62.1 6.4 141.6 16.4 170.9-4.9 5.9-4.9 8.9-12.9 6.7-20.5 13.2 6.8 37.2 14.9 59 17.7 58.3 6.8 155.8 15.3 256.5-16.4 25.5-11 35.5-32.5 20-50.8 0 0 158-11.5 320.7-33.7 137.7-79.4 127.9-148.2 47-155.9z" fill="#2d3f25"/><path d="m2017.2-6146.1c0-15.4 259.4-39.9 327.6-15 13.6 5 11.8 19.1-12 13.3-124.8-30.5-315.6 1.7-315.6 1.7z" fill="#3a4c32"/><path d="m1051.6-6004.2c532-79.5 886.9-30.8 886.9-30.8 13.2 2.2 8.2 11.6-10.3 13.7 0 0-308.9 18.6-313 14.5-4.3-4.3 277.1-23.1 277.1-23.1s-379-25.6-840.7 25.7z" fill="#3a4c32"/><g fill="#0b1a07"><path d="m1222-5948.6c-1.2-25.2-5.3-68-8.3-71.1-1.1-1.1 1 51.8 4.1 71.7.4 2.2 4.3 1.9 4.2-.6z"/><path d="m1220.6-5951.6c-11.9-36.8-34.3-98.8-38.5-102.6-1.5-1.4 23.2 76.1 34.7 104.6 1.3 3.1 5 1.6 3.8-2z"/><path d="m1215.5-5955.6c-23.6-44.1-65.8-118.1-71.2-122.3-2-1.5 47.4 91.3 68 125.2 2.2 3.8 5.5 1.4 3.2-2.9z"/><path d="m1216.5-5951.2c-29.7-40.3-82-107.5-88-110.9-2.2-1.2 59.9 83.6 85.3 114.2 2.7 3.5 5.6.7 2.7-3.3z"/><path d="m804.1-6078.6c-41.8-39.6-114.4-105.2-121.5-108.1-2.6-1.1 84.9 82.3 119.5 112 3.8 3.3 6.1-.1 2-3.9z"/><path d="m800.5-6078.2c-39.4-31-107.6-81.8-114.3-83.5-2.4-.6 80 64.6 112.5 87.4 3.7 2.6 5.7-.9 1.8-3.9z"/><path d="m1823.7-5957.3c27.8-41.7 73.1-113.7 74.2-120.5.4-2.5-58.2 84.8-78.3 119.1-2.2 3.8 1.4 5.5 4.1 1.4z"/><path d="m1811.4-5931.5c16.5-41.2 42.6-112 42.1-118.2-.2-2.3-35.2 84-46.3 117.5-1.2 3.6 2.6 4.7 4.2.7z"/><path d="m2045.3-6019.9c42.6-60.5 112.9-164.9 115.4-174.3.9-3.5-88.9 123.3-120.4 172.8-3.6 5.3.8 7.3 5 1.5z"/><path d="m2004.3-6008.7c43-60.2 114.6-163.6 118-172.4 1.3-3.2-89.2 123.1-121.7 171.8-3.6 5.3-.5 6.4 3.7.6z"/><path d="m1990.9-5986.7c24.5-51.1 65-138.4 66.5-145.4.6-2.6-51.1 104.5-69.3 145.5-2 4.5.4 4.9 2.8-.1z"/></g><path d="m1122.1-6035.7c-145.4-97.6-104.2 1.6-104.2 1.6-171.7-135.1-321.6-213.8-233.7-59.1-215.3-122.4-319.6-36.2-266.3 62.8-87.5-39.8-107.2-28.5-106.5-4.5-59-44.5-94.4-34.1-99-28.5-13.7 16.9-5.2 52.5 41.2 94.5 40.1 37.8 133 90.3 157.4 69.7 8.5-7.2 6.1-25.7 6-35.9 47.4 21.4 77.5 20.1 76.7-21.1 74.9 44.5 229.1 93.8 249.3 27.8 178.6 61.3 283.5 58.5 267.7-16.5-.2.1 258.4 75 11.4-90.8z" fill="#0b1709"/><path d="m1121.1-6030.3s24.3 33.4 37.5 86.5c-9-21.4-33.7-79.4-45.4-89.4-72.7-47.6-84.4-38.7-84.4-38.7s107.3 106.2 128.1 129.5c-3.5-3-16.4-11.5-20-14.5-42.9-40.9-111-113.8-111-113.8s-13.8 6.1 53.6 91.8c-33.9-32.4-92.6-73.4-146.9-109.3-73.3-48.3-143.9-85.5-155-74.4 118.3 74.8 246.6 168.3 301.5 205.9-16.8-10.3-37.3-22.7-49.2-29.2l-252.3-173c9.5 23.2 46.7 65.5 54 69.5 27.3 14.8 124.4 57.6 124.4 57.6-15.9-3.5-83.5-30.9-121.5-52.2 36.3 37 72.7 74.1 109 111.1l-31.6-56.4c42.2 15.9 84.5 30.5 126.8 52.2l-116.6-43.6s27.5 54.1 34.4 61.2c11.1 11.3 51 34.9 93.1 61.1-9.3-3.7-19.1-7.9-32-16.2-20.3-13.1-39.9-25.4-58.5-36.8-13.2-12.8-59.8-44.7-81.6-64.3-29-26.1-63.2-54.9-84.1-66.1-147.6-79-205.2-67.8-205.2-67.8 55.9 24.6 116 55.7 174.8 88 26.1 14.3 91.3 46.3 119.5 61.5 34.2 18.4 48.8 30.9 66 42.3-46.8-28.4-91.5-49.4-123.5-65-72.9-35.6-146.2-75.7-238.6-121.6-.5 13.4 55.3 65 113 98.9l106.6 21.2c2.4 5.5-73.3-9.3-98.6-12.6 0 0 64.4 55.2 95.2 64.4 19.2 5.8 82.7 8.3 113.9 9.2 8.3 6.1-65.1 2.6-101.3 1.6 25.9 18.9 44.3 27.1 68 36.5 12.9 6.2 81-1.6 83.6-6.1-5.2 8.9-37.1 11.8-57 15 0 0 60.5 14.6 91.8 20.4 18.9 3.5 57.8 1.3 57.8 1.3 9.8.3 28.7-4.4 38.4-17.8 9.2-12.7 10-30.4 7.3-35.7-1-2-2.3-4.1-3.8-6.3 29.2 11.9 116.3 27 119.3 15.2 5.7-20.9-99.5-91.1-99.5-91.1z" fill="url(#n)"/><path d="m2014.9-6030.8c218.9-173.9 396.6-290.5 395.5-71.2 133-203.9 320.5-196.2 167.9 56.7 22.5-13.1 61.6-15.9 76.3.9 10.5 12 15.1 33.5-10.9 72.2-23.9 35.5-82 64.1-111.3 51.9-8.8-3.7-18.7-14.7-19.6-22.4-95.5 55.2-214.7 148.3-216.9 18.5-244.2 110.1-401 93.9-352.1-26.2 0 0-278.2 113.4-74.1-56.7 138.2-115.3 145.2-23.7 145.2-23.7z" fill="#0b1709"/><path d="m2382.7-6189c-40.4 30-140.3 62.3-123.5 52.7 3.6-2.1 130.5-53.2 123-61.4-21.1-22.8-48-17.3-48-17.3-222.1 198.3-333.3 296-334.2 296.4-13.8 7.6 92.9-90.1 325.7-296.4 0 0-62.6 14-118.3 54.1-22.1 15.9-49.2 68.5-62 95.2 11-33.6 24.4-64.4 45.8-85.8 0 0-82.2 51-112.9 84-11 11.8-24.3 53.9-32.3 82.1 2.5-25 6-46.2 23.3-78.2-40.3 27.1-66.8 53.2-77.1 62.8 32.5-43.3-15.8-56.2-15.8-56.2l-131.7 121.9c-.1.1-.1.1 0 0 29.6-33.3 74.6-74.8 127-121.9 0 0-46.6 7.3-73.7 37.4-8.2 9.1-39.5 54.9-55.7 76.4 6.5-16.5 21.3-32.7 50.4-74.7 0 0-98.3 73.6-86.4 93 3.6 5.9 16.3 4.5 24 3.1 0 0 81.3-16.5 137-51.1-78.9 116.6 39.9 185.3 315.7-90.7-9 4.8-225.5 112.8-224.1 102.3 50.6-25.4 202.1-94.6 223-108.4 46.4-30.7 100.8-119.3 100.8-119.3z" fill="url(#o)"/><path d="m255-1621.9s-93.8-453.5 247.9-1138.4c603.9-1210.7 1116.7-1113.6 1250.7-967.6 52.7 57.4 137.5 257.5 52.9 771.3-70.9 430.6 271.8-407.4 544.7-265.6 79.8 41.5 73 155.6 25.1 481.9-29 197.4 235.8-17.5 342.2 89 141.5 141.5-298.6 1047.3-298.6 1047.3z" fill="url(#p)"/><path d="m419.9-2708.8c278.6-623.9 472.2-723.8 423.1-733.7-19.2-3.8-153.9 150.3-265.6 378-192.8 392.9-167.3 377.7-157.5 355.7z" fill="#c4dde2"/><path d="m907.9-3525.8c9.7-.6 28.2-21.5 41.8-39 14.8-19.1 16.9-21.6 15.2-26-1.6-4.3-17.6-.9-36.9 13.6-31.7 24.1-37.6 52.6-20.1 51.4z" fill="#c4dde2"/><path d="m1561.6-2706c-7.2 64.1-19.4 119.6-35.7 162.2l32.5-56.9c-3.5 19.1-29.9 60.5-32.9 75.8-7.5 38-14.5 58.2-14.5 58.2l34.8-47.6c-.2 8.4-34.8 66.4-34.8 66.4l-50.6 382.4h207.7c-44.9-257.6-98.9-554.7-106.5-640.5z" fill="url(#q)"/><path d="m1708.9-2824.8c8.6 75.1 21.9 149.2 41.2 199.1l-38.6-66.6c4.1 22.4 35.5 70.9 39 88.8 8.9 44.5 17.3 68.2 17.3 68.2l-41.3-55.8c.3 9.9 41.2 77.7 41.2 77.7l78.6 447.9c-88.3 0-176.7 0-265 0 51.8-302 64.4-376.1 64.4-376.1 8.6-23 23.8-53.1 36.5-70.1-9.9 6.8-24.6 27.2-33.5 41.7.1-.1 56-292.7 60.2-354.8z" fill="url(#r)"/><path d="m988-2848.5c-15.6 81.1-32.1 155.8-51.7 210.2 14.6-31.6 28.4-56.8 40-66.2-7.3 33-39.4 83.8-44.1 94.7s-20 103.1-20 103.1c15.2-25.9 29.9-48.6 43.4-64.2 0 0-43.2 112.1-49.9 134.3s-101.2 588.7-101.2 588.7h368.8c-67.5-370.1-88.5-545.3-93.3-567.1s-42.7-87.2-42.7-87.2c9 2.4 21.7 9.1 28.5 22 6.9 12.9-37-116.1-77.8-368.3z" fill="url(#s)"/><path d="m1268.4-2998.8c-16.7 86.7-36.8 164.6-65.3 219.2l30.2-25.2s-21.8 29.4-27.4 39.2-23.8 87.5-23.8 87.5c10.9-25.6 24.9-47.1 44.3-61.6 0 0-41.6 77.8-44.6 89.6-3.1 11.8-121.7 658.2-121.7 658.2h418.7l-45.2-222.9c11.1 2.1 14.8 9.2 27.9 19.4 0 0-85.6-386.2-91.8-395.4s-72.8-122.5-72.8-122.5c30.8 31.6 45.7 54.2 75.6 105 0 0-32.8-102.2-37.1-117.4-5.3-18.8-63.4-112.4-63.4-112.4l62.3 76.1c-23.8-79.6-45.5-150.5-65.9-236.8z" fill="url(#t)"/><path d="m859.7-3107.3c-18 180.4-40.8 227.6-45.1 293.2 9.8-26 19.5-51.5 29.3-63.3-28.7 128.9-35.6 152-51.8 259.7 22.5-26.6 34.5-56.4 47.1-66.2 0 0-25.8 98.8-60.3 190.3-8.5 22.7-10.3 79.4-10.3 79.4 12.2-30.8 28.1-60.6 48.4-89.2-17.3 101.4-41.2 206.2-81.4 319.3 23.1-34.1 49.6-76.3 56-71.7-32.3 86.1-49.2 140.8-68.8 229.6 21.4-28.6 37.3-59.2 53.1-58.3-21.5 79.4-42.2 183.6-47.8 236.2h282.2c-26.3-105.7-47.5-173.6-61.9-231.8 7.2 1.6 12.9 28.4 39.6 80.6-27.5-246.4-16.5-135.6-93.5-333 16.1 16.4 34.5 42.6 54 73.6-14.1-49.2-30.9-93-47.3-127.3 11.7 10.3 17.4 19.7 30.8 47.1 0 0-5.6-59.7-11.1-74.5-55.5-150.3-54.8-187.8-54.8-187.8l47.7 108.1c-.6-88-35.4-149.4-47.2-276.4 10.2 3.4 19.3 24.2 28.3 47.8-15.2-107.7-25.8-242.6-35.2-385.4z" fill="#455066"/><path d="m647.3-2834.6c-8.5 74.3-16.4 155.4-26.3 186.9 3.8-7.7 10.2-17 21.1-26.3 0 0-18.7 41.4-21.2 48.7s-7.7 56.8-7.7 56.8c8-15.2 15.6-26.6 22.5-30 0 0-23.8 45.6-25.9 51.6-2.2 6.1-8.2 69.2-8.2 69.2 7.9-18.2 18.2-38.5 30.3-43.6-5 33-34 99.8-37.5 110.6-3.6 10.9-4.8 23.4-4.8 23.4 12-21.4 24.1-39.4 36.1-48.2.1.1-32.6 55.2-37.4 65.5-6.1 13-17.3 102.7-17.3 102.7 18.6-42.1 35.6-71 54.7-83.6-29.7 159-68.6 204.8-89.7 328 26.7-46.3 53.6-93.6 70.9-108.9-41.3 98.1-80 193-95.1 258.1l47.9-41.6-18.5 84.6 223.9.2-80.5-212.1 32.9 40.1s-2-57.5-6.9-68.8c-6.2-14.3-41.1-112-58.1-178.8 18.1 21.3 32.8 51.2 48.2 94.1 0 0-4.8-101.2-10.8-115.4-3.4-8.1-35.4-89.1-35.4-89.1 13.1 10.9 25.4 31.4 36.3 69.6-7.3-67.4-15.1-63.5-33.7-131.8 11.8 6.3 20.2 19 26 36.7 0 0-5.9-121.2-9.1-133.6s-25.2-106.5-25.2-106.5c8.3 1.4 17.3 13.7 24.1 28.9-13.1-64.7-20.4-147.7-25.6-237.4z" fill="#455066"/><path d="m1168.8-3907.8c-27.3 240.7-135 663.6-166.9 722.2l51.8-54.4c17.5-56.3 34.6-115.5 52.6-169.9-8.6 57.1-23.2 113.4-42.1 163.6 16.4-6.8 27.1-8.9 37.2-4.9-55.4 158.5-112.2 349.9-143.1 395.3l60.9-40.5c15.4-45.6 30.4-87.1 42.8-111-3.4 21.8-12.2 54.8-29.4 104.5 14.5-15.6 31.2-29.6 50-42-27.3 100.5-91.9 266.2-158.6 435.1 18.8-12.4 36.6-21.6 53.3-27.3 44.7-99.5 87.2-188.2 121-235-25.6 56-63.7 139-106.5 232.3 13.6-4.5 25.2-5.8 36.9-4.2-62.4 158.7-150.2 377.1-195 435.6 14.4-8.4 28.7-13.4 55.9-17.8 37.6-78.7 73.8-149 104.9-187.1-19.9 46.6-53.7 114.7-90.8 187.6 17.3-2.5 34.6-4.7 50.6-.6-24.2 68.3-58.9 142.5-102 221.2 34.3-2.2 75-7 86.1 0 11.1-17.4 23-36.1 35.4-55.7 2.9 18.3-.3 40.1-10.1 65.8 110.4-15.1 284-52 307.2-37.1-4.3-33.8-3-66.8 0-99.6 7.2 31 17.7 61.2 35.4 89.4 10 .4 23.1.9 43.9 1.7-11.6-31.4-20.1-62.7-25.6-94 18.3 15.4 35.5 28.6 49.3 34.9 7.1-8.3 16.5-13.6 28.7-15.2-44.8-59.9-103.4-235.2-151.8-328.3 46.5 33.5 87.2 87.5 120.7 130.5 0 0-52.7-196-61.7-210.6s-59.1-93.6-82.4-146.3c14.1 14.7 53 59.6 86.9 126.2l-57.3-161.3c22.6 12.3 87.4 56.8 111 79.8-69.9-155-116.5-257-127.1-355.3 31.8 51.8 44.7 62 93.1 117.3 0 0-54-131.4-75.3-184.3-3.8-9.4-46.8-87.5-46.8-87.5 19 18.3 66.9 62.6 85 101.4-25.8-84.4-77.4-200.5-89.1-278.9 33.3 10.8 53.6 49.9 72.9 92.3-58.9-291.4-93.1-252-106.4-421.9 15.9 59.9 32.2 115.7 49 161-30.5-179.1-45.2-352.9-54.5-527z" fill="url(#u)"/><path d="m987.2-1898.3s94.6-445.2 90.6-454.6c-6.1-14.2-40.2 108.9-49 109.3-5.1.3 36.9-186 33.7-186.8-.5-.1-1.9 4.1-2.1 4.8-20.1 61.3-90.7 255.9-106.7 299-21.3 57.5-37.6 90.9-41.8 100.2-20.4 45.6-48.2 97.4-61.8 122h90.1c8.2-12.8 24.6-42.6 33.5-56.5 1.9 11.8-6.6 51.1-10 66z" fill="#29263b"/><path d="m994.2-2312.8c-19.9 46.6-53.8 114.5-90.9 187.4 7.5-1.1 15.4-2.3 22.8-2.8 35.7-85.3 133.8-331.6 128.9-403.2-1.2-16.8-56 90.1-113.1 202.6-41.6 98.8-83 187.4-109 221.4 14.4-8.4 29.5-13.9 56.7-18.3 37.4-78.8 73.6-149 104.6-187.1z" fill="#29263b"/><path d="m1038.3-2667.1c15.6-64.4 31.7-127.7 35.7-131.9 3.3-3.5 2 27.3-.4 65.7 3.2-5.3 6.4-10.5 9.3-15.5 6.7-89.1 12.7-187.4 12.4-203-.2-9-5.8-2.2-15.2 15.4-32.6 101.8-93.5 263.8-156.6 427.2 18.8-12.4 37.1-22 53.8-27.7 20.9-46.8 41.6-91.4 61-130.2z" fill="#29263b"/><path d="m1337.4-2256-23.3-156.7c-1.9-5.7-3.4-9.1-4.4-10.7-9-14.6-56.2-92.3-81.2-144.4 14.1 14.7 53.9 66.5 89.4 131.7l-59.6-166.9c15.2 8.3 47.2 29.5 75.8 50.2l-38.1-135.8c-42.4-114.2-51.1-158.8-54.8-190 30.7 50.5 44.7 61.3 93.1 116.6 0 0-70.1-174.4-74.2-184.7-2.5-6.9-47.5-86.7-47.5-86.7 18.2 18.7 67.7 65.2 85.8 104-25.8-84.4-78.4-203.7-90.1-282.1 33.3 10.8 53.5 50.9 72.8 93.3-58.9-291.4-90.3-252.9-106.5-421.4 17.4 77.6 48.7 160.4 48.9 160.8 1.1-5.9-39.7-249.1-54.6-531.5-30.4 240.6-144.9 686-168.2 726.3l53.1-56.1c17.6-56.3 34.6-111.6 51.3-166-9 56.6-22.7 110.1-41.6 160.3 16.4-6.8 27.4-9.4 37.5-5.4-31.8 91-64.9 192.5-92.4 271.3l-9.7 97.1 20.2-13.7c15.4-45.6 30.1-86.3 42.5-110.2-3.4 21.8-12.9 55.7-30.1 105.4 14.5-15.6 31.4-29.4 50.2-41.8-5.1 18.8-13 39.8-20.4 62.6 33.4 88.5 163.4 430 156.1 419.1-40.8-61.1-94.7-214-135.5-275.1l-91.9 198.4c14.2-4.6 26.5-7.4 38.7-5.8 0 0 77.1 435.4 126.9 618.3 34.1-5.2 64.2-9 85.5-9.8 9.2-3.6 18.7-7.5 28.2-11.3-2.2-27.1-1-56.2 1.5-84.9 5.9 25.5 14 50.2 26.5 73.9 14.1-5.5 28.1-11 41.6-16.3-6.1-20.3-10.8-40.3-14.4-60.5 18.3 15.4 35.5 28.6 49.3 34.9 7.1-8.3 16.5-13.6 28.7-15.2-44.8-59.9-101-233.6-150.7-326.8 31.9 23 59.2 54.5 85.6 85.6z" fill="url(#v)"/><path d="m1184-2307c-15.8-29.3 64.6 231.6 85.5 293 .4-5.9.9-11.8 1.4-17.7 3 12.9 6.6 25.7 11 38.2l16.6 6.2s-98.4-289.6-114.5-319.7z" fill="#343f45"/><path d="m990-2538.1c6.1-2 13.9-4.3 19.4-5.1 3.6-15.4 8.6-41.2 15.3-69.7-10.7 23.4-23.1 49.6-34.7 74.8z" fill="#464a4a"/><path d="m1067-2597.7c3.1.3 9.3-64.3 15-138.7-3.1 6.7-6.2 13.6-9.5 20.7-3.7 55.4-8.7 117.7-5.5 118z" fill="#50504e"/><path d="m1076.5-3178.8c-47 139.9-95.3 286.2-119.7 324.8l57.3-39c16.4-66.8 65.6-269.6 62.4-285.8z" fill="#625d53"/><path d="m1061.4-2880.4s29.5-103.4 33.9-78.7c3.4 19.1-7.9 147.2-7.9 147.2z" fill="#5b5851"/><path d="m243.3-1754.7c103.7-35 280.9-46.3 374.3-103.4 60.5-36.9 71.9-41.7 244.2-101.1-59 27.9-104.3 53.5-128.7 75.4 76.9-42.1 183.7-80.1 312.4-115-21.9 7.9-26.4 13.7-43.6 24.6 93.5-17.5 127.5-20 193.7-54.9l-33.8 22.1c26.2-3.8 40.4-7.1 90.8-36.6-35.7 20.8-55.4 36.3-58.9 41.1 89.3-29.6 171.9-64.8 242.7-108.9l-63.5 45.8c54.6-9.2 113.4-28.2 157-48.1-21.5 13-46.7 25.8-57 35.7 34.2-10.6 91.8-36.9 148.3-64.6-39 23-70.6 44.3-87.4 62 29.7-8.5 79-42.3 130.7-64.4l-57 39.5c25.8-12.1 46-18.6 155.3-45.1 161.7-39.2 211.3-41.6 393-101.7 183.7-60.7 512-254.2 576.3-179.2 0 0-52.3 284.2-312.3 827.2l-2164.8-17.9c-6.9-44.7-11-89-11.7-132.5z" fill="url(#w)"/><path d="m245.7-1704.1c266-27.3 566.7-88.8 786.9-153.1l-269.2 98.5c195.1-9.3 395.6-24 639.1-82l-99.6 46.9 261.4-36.8-230.5 62.2c126.6-15.9 322.7-33.3 444-55.5-49.9 20.6-99.8 31.6-160.9 47.6 64.5-5.3 250.3-25.5 392.8-42.4-80 18.3-158.1 36.1-229.1 52.3l49.7 3.1c-22.5 5.9-176.7 20-164.6 18.6-3.7 12.8 267.6-15.7 496.8-45.3l-306.4 180.9-1601.1-12.8c-5.6-26.3-8.7-53.7-9.3-82.2z" fill="url(#x)"/><path d="m2162.9-2230.6c-8.2 4.5 183.5-87.7 390.1-95 25.2-.9 44.1 2.6 60.3 3.8-199.4 99.2-564.4 248.6-686.8 268.8 48.7-17.3 91.8-38.8 132.1-62.5-57.7 26.3-135.1 50.6-219.9 74.2 25.4-13.8 38.4-24.3 59.9-44.9-29.1 20.6-54.8 35.3-91.8 42.9 4.9-1.6 16.3-9.1 25.4-18.2-118.3 53.4-298 75.5-347.5 85.3 268-23.3 462-55.4 608.2-93.2-12.2 15.6-60.2 25-112.3 40.4 119.1-18.5 631.2-89.5 665.8-112.8 26.3-69.6 51-150.7 74.6-239.2-142.8-62.3-469.3 101.8-558.1 150.4z" fill="url(#y)"/><path d="m2221.6-2276.8s-221.7 111.9-355.1 189.5c-52.2 26-127.2 8.6-223.3 74.3-170.2 116.3-391.1 125.4-464.6 164.8-48.1 25.8-217.8 231.7-217.8 231.7l-464.3-3.4s586.5-245.4 624.7-260.6c36.1-14.4 82.8-14.4 307.8-63.8 76.4-16.8 133-35.3 182.3-61.3 76.5-40.4 80-50.9 183.7-67.3 64.8-10.3 86.8-31 132.6-57 132.6-75.5 266.8-135.7 268.3-136.4 5.3-2.5 19.8-8.4 25.7-10.5z" fill="#d2f9f6"/><path d="m1039.6-1846.7c9.4 8.7 18.5 13.8 24.9 16.8 0 0 12.5 7.6 58 6.6 5.9-.1-19.1-11-23.3-25 20.1 4.9 45.3 15.3 62.6 12-68 63.9-134.8 138.1-200.9 219.7l-464.3-3.4z" fill="#fcffff"/><path d="m1184.7-1851.3s21.9-13.7 191-56.7c153.3-42.6 224.9-78.6 225.6-79-114.1 74.6-379.9 118.1-416.6 135.7z" fill="#a7bede"/><path d="m1775-1609.4c0-7.2 59.7-80.1 114.4-104.1 102.1-44.7 219-57.2 219-57.2s-5.1-42.2 5.5-54.7c38.1-45.1 114.8-71.5 114.8-71.5s-12.8-138-4.8-187.6c4.4-27.2 43.4-128.5 59.1-144.8s153.9-155.1 218.9-214.5c15.9-14.6 109.7-71.6 121-64s132.2 88.2 137.3 98.3 107.9 570.9 98 589.2c-24.4 44.9-46.2 145.9-63.5 151.1-47.3 14.1-154.6 68.5-167.7 76.2s-230-5.5-343.2-3.9c-499.8 6.7-508.8-5.3-508.8-12.5z" fill="#29263b"/><path d="m2728.2-2435.5c-33.3-28.6-96.4-69.1-104-74.2-11.3-7.6-108.2 49.9-124.1 64.5-65 59.4-202.3 196.4-218 212.7s-53.8 120.8-58.2 148c-2.2 13.7-2.9 34.1-2.6 56.5 39.3-49.9 134.1-88.4 183.4-113.9 145.3-75 93-200.3 218.7-183.4 86.3 11.8 96.9-76.9 104.8-110.2z" fill="#747660"/><path d="m2624.2-2509.7c-11.3-7.6-108.2 49.9-124.1 64.5-65 59.4-202.3 196.4-218 212.7s-53.8 120.8-58.2 148c-2.2 13.7-2.9 34.1-2.6 56.5 17.8-22.6 47-42.7 78.1-60.5 16.8-46.6 93.2-246.8 191.7-334.8 18.7-16.7 98.5-63.3 135.7-84.7-1.1-.8-2-1.3-2.6-1.7z" fill="#939276"/><path d="m2415.1-2124.7c-140.2 74.8-165.4 74.1-193.3 119.2 1.7 53.1 6.9 108.5 6.9 108.5s-76.7 26.5-114.8 71.5c-6.8 8.1-7.1 28.4-6.5 41.9 26.4-13.1 66.7-37.4 136.8-44 19.9-1.9 88.9-38.5 94-41.8 106.9-138.6 152.9-188 155.7-211.7 3.5-28.8-1.5-27.7 6.3-62 11.1-49.3 34.8-86 52.7-108.9-76.1 66.5-109.3 112.1-137.8 127.3z" fill="#4f5547"/><path d="m2221.8-2005.5c1.1 34.6 3.7 70.3 5.4 90.9 9.7-34.1 13.7-64 20.4-77.4 13.2-26.5 95.4-86.3 137-116.7-113.6 59-137.1 61.5-162.8 103.2z" fill="#939276"/><path d="m2212-1871.7c3.3-7.4 6.1-14.9 8.7-22.3-20.6 8.1-76.2 32.4-106.8 68.6-6.8 8.1-7.1 28.4-6.5 41.9 6-3 12.7-6.6 20.3-10.4 22.5-31.4 84.3-77.8 84.3-77.8z" fill="#939276"/><path d="m2060.3-1763.3c-43.5 7.9-110.9 23-172.2 49.9-24.5 10.7-47.9 30.3-68.5 50.4 79.6 8.2 136.8-22.2 194.6-12.5 10.4 1.7 71-33.9 90.2-38.8 14.5-3.8-21.9-31.2-44.1-49z" fill="#4f5547"/><path d="m2084.5-1743.9c-8.2-6.7-16.9-13.6-24.1-19.5-38.4 7-95.4 19.5-150.3 40.9 47.3-5.5 110.4-13.5 174.4-21.4z" fill="#939276"/><path d="m189.6-1616.4c4.9-13.8 53.4-151.8 65.2-175.9s106.5-106.5 106.5-106.5 157.3-22.4 196.7-27.2c35.6-4.4 200 185.2 197.8 256-.2 6.6 152-53 173.8-55.7 200-24.7 242.4 75.4 242.4 75.4 17.7 3 133.7-20.8 164.6-18.1 36 3.2 100.4 18.9 105 16 46.1-29.2 212.6-14.6 221.6-3.8 15.5 18.5 54.7 42.7 49.3 52.2-8.5 14.9-132.4 15.9-151.9 11-2.8 2.4.9 8.2-6.2 8.4-106.6 3.7-118.7 16.2-155.6-27.8-4.1-10-230.1 34.3-249.1 28s-24-24.6-24-24.6-80.4 49.6-91.7 53.1-312.3 22.5-320.7 2.7c-3.1-6.7-12.7-18.2-12.7-18.2s-5.6 19.3-15.8 25.6-463.2-28.6-463.2-28.6-36.9-28.3-32-42z" fill="#29263b"/><path d="m800.8-1682.6c40.8 5.6 80.8 14.6 100.6 15.2 16.8.5 113.9-36.6 177.7-50.4-35.7-10.7-84.2-16-149.6-7.9-13.9 1.7-82 27-128.7 43.1z" fill="#747660"/><path d="m558-1926.1c-39.4 4.8-196.7 27.2-196.7 27.2s-58.5 51-89.3 84.5c47.3 5 166.8-.9 319.2 77.2 4 2.1 17.7 1.6 35 3.8 6.9.9 37.3-29.7 75.3-52.9-50.7-71.4-121.5-142.5-143.5-139.8z" fill="#747660"/><path d="m558-1926.1c-7.4.9-18.9 2.4-32.8 4.3 28.5 46.2 68.3 118.5 104.9 169.9 1.9 2.7 12.2 3 19.7 3 13.5-10.7 31.5-25 51.7-37.3-50.6-71.5-121.5-142.6-143.5-139.9z" fill="#939276"/><path d="m272.7 2070.9c-252.9-681.8 1383-2374 1893.4-1764.8 203.4 242.8-277.4 909.5-159.6 1008.3 52.2 43.7 318.9-148.9 443.9-41.4 112.5 96.7-73.3 356-24.2 511.4 35.9 113.8 244.8 120 379.9 258.2 44.4 45.5 66.5 122.6 54.2 201.1-53 338.2-2336.9 503.1-2587.6-172.8z" fill="url(#z)"/><path d="m226.4 1515.7c-203.9-379.3 0-410.1 0-410.1-118.5-262.3 10.2-305.6 69.7-249.7 17.4 16.3 29.1 31.8 37.3 45.4 21.8 35.8 24.4 55.2 27.9 50.9 7.4-9 26-618.9 208.7-607.5 93.2 5.8 141 244.4 135.1 493.1-9.9 427-408.6 808.4-478.7 677.9z" fill="url(#A)"/><path d="m163.2 1867.6c-60.4-135.2 157.5-855.2 216.6-1024.3 12.3-35.3 70.9-106.9 109-93.8 205.7-352.2 207.1-398 404.6-175.9 12.3 13.9 122.4 21.5 287.6 50.7 19.7 3.5 181.4-72.6 216.5 40.6 28.5 92 13.9 143 53.6 232.4 17.2 38.8 36.1 99.6 43.7 108.6 96.7 113.2 75.4 336.7 92.7 361.6s81.5 108.1 73.5 176.1c-.3 2.7 16.2 9.1 37.7 16.6 36.4 12.6 76.2 174.2 68.2 282.8 0 0 12.5 5.4 17.8 14 29.6 48.3 55.1 126.2 53.7 140.3-10.9 109.5-1384.1 522.6-1675.2-129.7z" fill="#abb3c0"/><path d="m216 1813c-4.5.3-9.5-81.6-14.5-172.7-1.5-27.4.2-59.2 8.3-97.4 24.6-116.3 5.9-100.7 11.2-119.4 19.3-67.5 58.3-111.3 69.8-121.7 52.1-47.1 94.1-47.6 90.9-58.5-4.1-14.1-79.4 1.4-94.1-21.3-5.6-8.6-2.3-29.9 18.6-36.5 68.9-21.7 85.1-12.7 85.1-25.2 0-10.4-67.5-14.6-73.1-35.6-4.3-16.1 42.3-131.4 79.9-278.9 9.6-37.6 49.7-54.4 69.4-38.6 46.1 37.1 88.3 269.8 87.3 276.4-2.1 13.8-37.5 82.3-35.4 80.5 3.8-3.2 52.4-67.9 58.1-88.4 0 0 19.4 67 60.5 182.4 14.7 41.2 14.4 42.2 16.4 62.2 3.9 38.8-44.2 156.2-25.8 207.4 25.8 71.5 341.5-33.5 273.4-25.7-101.1 11.6-97-47.1-200.9-169.3-41.6-49-89.7-336.9-218.3-551.2-2.7-4.5 94.3-40.7 94.3-19.8 0 12.2 111-17.8 156.3 35.9 23.3 27.6 28.1 51.3 52.1 59.3 19.5 6.5 30.3-2.8 64.4 4.1 27.8 5.6 25.4 16.5 0 52.8-17.6 25.1-219.6 79.9-224.7 90-17.8 35.1 258.6-6.5 307.7-40.8 1.8-1.3 2.9-1.7 3.3-1.3 4.1 3.1-15 38-24.1 69.9-18 63 19.6 120.3 1.9 141.9-3.5 4.2-7.8 5.4-14.1 7.8-53.7 20.2-170.3 32.6-169.9 38.3.1 1.5 11.4 2.3 12.5 2.4 71.1 5.3 86.5-2.3 100 7.6 16.3 11.9 2.9 29.7 15.8 77.5 14.7 54.5 38.5 72.4 33.1 91.2-3.6 12.5-23.8 16.5-60.3 26.1-51.1 13.3 111.5 8.8 164.2 16.6 271 40.4 301.6 426.5 625.5 532 94.5 30.8 187.3 29 189.1 20.8 2.1-9.2-105.2-18-170.4-91.4-9.1-10.3-29.1-166.9-56.6-270.8-5.1-19.5-7.1-35.2-8.8-49.9l114.6-25.1c-16.3-5.9-27.9-10.8-27.7-13 .2-1.7.3-2.9.5-4.6-22.2 11.7-54.9 23.9-88.3 35.2-3.4-27.4-8.1-52.4-35.2-92.9-9.4-14-8.9-55.8-8.6-105.7 19.8-1.5 41.3-1.4 64.4.7-2.4-3.4-4.4-6.2-6.1-8.6-3.1-4.5-5.1-15.6-6.7-31.4-14.4 10.5-32.3 19.6-51.6 28 .3-58-.6-124.5-17.6-170.5-40.5-110.1-147.9-198-250.3-191.4-74.9 4.8-125.1 37.4-149.8 18.3-21.8-16.8 1.2-82.5 41.4-111.6 49.6-35.9 93.6 5.2 196.7-27.4 15.4-4.9 32.4-16.8 49.1-6.7 20.2 12.3 52.5 55.8 73.6 76.7-6.8-18.5-14.4-38-21.5-54.2-33.5-75.3-28.2-123.3-42.8-191.5-12.4 36.8-26.6 105.2-76.7 149 0 0-124 10-183.1 25.8-50 13.4-52.4-157.1-19.1-143.1 17.5 7.4 131.1 28.1 136.1 17.5 1.4-3 2.1-8.5 2.2-20.2 0-4 0-22-6.8-44.1-10.9-35.5-34.1-65-42.3-74.8-9.3 2.5-17.4 4.7-23.9 6.3 9.9 17.4 31.3 36 31.2 51.1-.1 13.5-70.3 28.6-105.9 25.6-89.1-7.5-70.4 182.1-141.3 145.5-79.9-41.2-184.8-3.8-198.1-17.1-43.3-43.3-10.8-94.1-175.6-85.7-11.9.6.8-15.8-69.1-11.7-15.7.9 19.8.1 4.2-48.3-8.3-25.8 113.9-31 186.5-36.6 43.3-3.3 62.5-13.8 9.1-29.2-25.7-7.4 57-1.7 60.3-2.1 56.4-7-160.3-10.7-182.9-24.9-22.2-14.1 56-66.1 32.7-96.9-38.9 50-86.1 135-157.4 257.2-22.3 15-64.7 46.2-108.5 94.1-308.7 338.4-151.4 968.8-163.8 969.6z" fill="#907d90"/><path d="m893.4 573.6c-10.9 0-27.3 637.3-49.1 960.3h9.4c-6.5 5.3 39.8-949.4 46.4-956.3 3.5-15.5-27.5 618-22.4 950.3l89.1-8.5 1-714.8 22.5 705.4 177.2-5.1c17.8-519.3-3.5-886.7-49.6-894.1-148-23.9-213.7-37.2-224.5-37.2z" fill="url(#B)"/><path d="m439.9 764.8c-.4 11.9-22.6 652.4-22.6 652.4l82.2-11.7.9-347.6 13.5 339.9h6s-20.8-638.8-31.2-648.4c-9.7-8.8-48.4 3.5-48.8 15.4z" fill="url(#C)"/><path d="m1243.2 610.6c.1 8.7 22.2 421.6 22.2 421.6h76.5s-52.7-425.6-56-430.4c-2.6-3.7-42.8 1.7-42.7 8.8z" fill="url(#D)"/><path d="m293.4 2245.3c24.1 29.8 37.9 58.9 117.5 92.3-73.2 77.4 71 156.8 433.9 183.6-17.7 70.8 120.1 145.7 268 137.4-205.7 110.6 697.2 223.6 654 40.7 618.1 63.8 1028.8-84.3 720.6-229 207.8 10.4 363.9-63.9 389-165.6 5.1-20.7 7.7-54.3-12.6-101.2-348.2-92.8-1190.5-257.4-1233.1-238.8s-873.4 185.6-1337.3 280.6z" fill="#b3e3ed"/><path d="m1986.7 2281.4c115-20.5 644-63.7 857.7-83-345.1-96-1171.8-253-1214.9-233.7-42.6 18.6-873.3 185.6-1337.2 280.6 24.1 29.8 37.9 58.9 117.5 92.3-50.7 53.6 2 107.2 136.7 139.1 245.6-6 710.1-9.8 642.3-3.6-66.7 6.1-372.5 18.5-542.3 24.9 32.6 5.6 67.1 10.4 106 14.7 255 32 1011.8 24.8 1253.2-42.8 86.9-24.3-529.5-71.2-527.3-109.2.5-8.7 33.5-14.1 45.9-15.1 234.7-20.1 295-14.4 512.4-25.7 469.4-24.5 730.5-71.9 840.1-76-2.6-12-3.9-15.3-5.4-20.4-207.3 15-1027.1 83.3-884.7 57.9z" fill="#8ec8d4"/><path d="m183.7 1818c11.9-10-3.3-242.5 78.1-336.6 30.3-35 80.3-47.8 180.4-73.3 57.9-14.8 89.6-26.3 115.6-11.3 41.6 24.1 94 134.1 107.1 138.3 128 41.4 279.9-75.6 346-50.5 12.4 4.7 121.4-234.2 167.3-308.9 8.3-13.4-6.8-27.6-1.9-44.4 7.8-26.9 52.4-108 55.8-113.7 32.8-55.1 192.6-59.3 212.7-50.2 7.2 3.3 22.3 13.3 33.9 23.7 7.5 6.8 2.8 14.9 8.2 27.6 7.9 18.5 17.2 27 17.2 34.5 0 20.2 4.9 80.2 7.7 136.7 4.4 89.5-3.8 268.9-3.8 268.9 75 88.3 58.3 170.8 74.8 338 4.2 43 32.4 92.3 70 156.2 15.7 26.7 20.1 79.5-3.5 87.9-31.6 11.2-364.1 85.8-495.2 59.3-56.9-11.5-79.7-14.7-79.7-14.7-.1 6.7-4.2 29.9-22.1 56.5-29.5 43.8-179.3 20.9-189.7 34.2-27.6 35-13.4 60.5-50.8 83.2-145.2 88.4-451.5-43.7-468-45.1-198.9-16.5-253.4-48.5-249.9-99.5 4.2-61.4 34.2-212.7 63.8-295.2 4.4-12.6 23.1.8 26-1.6z" fill="#545164"/><path d="m232.8 1890.5c38.8 1.1 307.9 16.1 171.6-.6-8-1-100-11.9-185.2-32.5-9.3-2.3 96.1-389.2 107.3-377.7 15 15.5 18.9 68.3 29.3 67 10.9-1.4 42.6-75.4 30-123.9-76 18-101.7 33.1-123.8 58.6-81.4 94.1-66.2 326.6-78.1 336.6-2.9 2.5-21.6-11-26.2 1.7-29.6 82.4-59.6 233.8-63.8 295.2-2.9 42.6 34.7 72 163.5 90.1-28.5-29.2-101.9-76.4-100.9-88.6 1-11.3 39.9-201.8 42.2-190.5 3.3 16.1 37 32.8 50 49.8 33.2 43.6-45.2-86-15.9-85.2z" fill="#383a46"/><path d="m1232.3 2105.8c44.1-.5 95-5.3 145.8-12.1-8.9-13.2-30.6-29.6-80.8-53.7-6.7-3.2-48.7-62.1-64.2-94.1-88-180.6-156.2-424.2-149.1-484.4.9-8-20.1-12.2-12.6-21.7 30.8-38.8 67.9-122.9 76.4-123.2 85.6-3.4 238.5-22.8 254.4-45.6 6.6-9.5-88.6 6.4-121.1 5.4-28.4-.9-26.1-27.1-55.8-86.4-14.3-28.5 2.4-128.3 5.3-169.9-8.3 14.8-47.2 86.4-54.4 111.3-4.9 16.7-1.4 37.5-9.7 50.9-45.9 74.7-143.3 307.1-155.7 302.4-63.4-24.1-205.8 82.7-330.3 54.7-23.8 89.6 18.2 207.3 21.2 215.3 35.5 96.2 113.2 158.6 84.5 198-21.4 29.3-198.3 46.5-122 48.4 29.7.7 104.7-7.6 131.1-2.2 43 8.9 16.3 159.8 47.3 217.5 3.8-12 8-25.2 19.8-40.2 5.1-6.4 43-4.4 84.1-5.5-35.4-74.1-59.9-172.9-99.8-246-35.4-64.9-46.9-114-100.4-155.2-36.3-27.9-31.4-119-31.4-119 10.2-22 64.5-10.6 93.6-30 31.8-21.2 108.2-99.3 107.8-94.1-7.3 100.9 251.4 297.7 289.2 429 4.1 14.1-14.4 29.9-15.7 37.2-.8 4.7 27.4 67.9 42.5 113.2z" fill="#383a46"/><path d="m1611.3 1879.5c-69 26.2-147.9 20-147.9 34.5 0 16.1 109.1 7 167.2 1-7.1-12.4-13.5-24.2-19.3-35.5z" fill="#383a46"/><path d="m1582.7 1796.8c-16.4-166.2.3-251.3-74.8-338-6.1 10.2-8.9 25-9.8 35.8-1 12.4 21.9 28.4 46 81.6 45.3 100.2-6.9 247.9 23.3 296.3 3.4 5.4 5.3-32.2 16.3-68.2-.4-2.5-.8-5-1-7.5z" fill="#383a46"/><path d="m1099.2 2151.2c-1.9-.6-41.7-8.2-41.7-8.2-8.8-258.2-19.1-502.1-46.6-658.4 0 0-14.1-16.9-96.8 12.9-9.6 3.5-12.7 418.5-10.4 666.7-17.8-.9-29.9-.1-39.3 1.6-13.4-36.3-38-178.4-54.8-237.2-11.5-40.3-36.6-49.4-54.8-83.4-13.1-24.5-2-73.7 9-121.9 31.1-136 47.1-192 36-189.4-45.5 10.3-102 13.5-132 .9-.1-.1-5.6-1.7-5.8-1.7-14.1.5.7 297.9 14.3 325.3 33.5 67.2 73.8 71 85.9 93.3 15.5 28.6 17.2 319 17.2 319-35.2 9.4-71.1 11.9-107.2 12.3 0 0-34.4-646.3-71.7-815.4-4.8-21.5-39.6-69.9-54.4-76.3-23.3-10-119.7-3.6-127 1.4-4.3 3-35.8 22.2-45.3 53-37.7 122.3-72 763.5-72 763.5s-33.7-4.1-44.5-4.1c-14.7 0 53.4 80.2 86.7 94.3 83 35.1 177.8 58.8 198 49.5s-17-24.3-17-24.3c-27-17.2 226.1 50.1 222.3 19.1-1.3-10.7-19.7-10.7-21.8-18-4.1-14.2 286.3-5.5 304.3-9.8 44.2-10.6-131.7-67.9-117.2-79.4 10.2-8.1 31.2-8 37.8-14.6 11.5-11.5-82.5-35.1-82.6-35.2-29.1-16.9 163.6 9.6 209.6-2.5 7.6-2-3.5-12.9 3.1-18.7 7-6.7 51.5-3.6 18.7-14.3zm-596 113.3c-14.4-9.5-29.6-17.9-49.5-20.1l-2.9-824.5c60-33.7 62 328.5 52.4 844.6zm45.5 5.7c-24.3-429.1-6-831.6-16.7-863-1.2-3.6 16.7-5.9 27.8 10.1 17.8 25.6 21.5 183.8 27.7 218.4 36.1 201.5 63 649.5 63 649.5-43.6-8.6-92.8-13.2-101.8-15zm407.9-112c5.7-29.8 7.3-176.4 8.3-216.5 1.8 44.5 3.3 204.2 8.3 216.5zm59.7-4.6-31.5 4.6c-7-228.5-4-432.5 2.8-627.1 4.6 11.5 30.4 338.5 28.7 622.5z" fill="url(#E)"/><path d="m1571.9 2062.3c28.4-11.8-75.7 9.9-75.9 5.5-16-363-54.4-1078.8-79.2-1104-10-10.2-108.6 1.1-108.4 11.3.3 13.9-4.8 1006.9-1.9 1123.4 0 0-93.1 18.2-51.6 20.9 18.8 1.2 73.1-3 77.2.6 4.7 4.2-2.2 9.3 1.2 15.2 3.8 6.7 23.8 5.2 39.7-.5 35.4-12.6 238.2-22.8 136.6-37.8-25.3-3.7 12.7-9.1 25.8-9.6 19.4-.8 62-2.5 64.7-14.7 1.7-7-35.3-7.3-28.2-10.3zm-224.5 27.9c-14.7 4.3-26.8 6.8-32.9 5.1l5.7-1083.8c18.6 293.2 36.3 676.1 27.2 1078.7zm11.4-2.1v-496.8l9.5 496c-2 .6-4.4 1.1-9.5.8zm49.2-6.6c27.9-740.4-38.7-1103.4-39.4-1106.1s14.5-6.1 16-3.5 43.4 107.4 80.4 1104.8c-11.5-2.7-31.9-.3-57 4.8z" fill="url(#F)"/><path d="m789.9 5064.9c-261.5-15.5-539.7-169.6-78.8-278.8 142.3-33.7 1260.7-178.5 1737 131.5 183.7 119.6 121.9 200.2 121.9 200.2-1108.2-108.8-1317.8-23.8-1780.1-52.9z" fill="url(#G)"/><path d="m781.3 5064.3c-399.8 120.3-612.1 281-480.1 516 660.8-126.8 1361.8-238.9 2151.7-329 54.4-36.5 94-83.3 117.1-133.5-1070.6-126.2-1455.9-30.3-1788.7-53.5z" fill="#b8c6b5"/><path d="m2570 5117.8c-1070.6-126.1-1780.1-52.9-1788.7-53.5-104.4 31.4-196 65.6-272 103.1 232.3-65.3 372.1-72.9 782.1-60.1 0 0-556.8 52.1-561.5 107.9-6.7 79.2 1602.7-122.1 1814.7-53 8.6-12.9 19.1-30.7 25.4-44.4z" fill="#cdd3b9"/><path d="m1803.2 5054.5c-81.9 61.9-354.2 96-513 122.2-186.9 30.8-508.8 105.5-532.7 190.8-14.3 51.1 19.3 97.2 37.9 121.2 67.8-11.9 136.1-23.6 204.9-35.2-27.2-14-73.4-48.8-74.1-74.8-1.2-43.9 123.7-106.1 399.9-166.6 143.7-31.5 435.3-84.4 499.2-156.7-8.2-.3-13.5-.7-22.1-.9z" fill="#fcf0f0"/><path d="m1812.2 5054.8c-20.3 25.5-177.2 75.8-309.1 98.2-294.2 49.9-536 112.8-644 187.1-3.4 2.3-19.3 13.1-26.3 33.6-13 38.1 31.1 81.2 45.5 101.6 4.1-.7 8.9-1.6 13-2.3-15.6-19.5-64.7-63.1-48.3-105.3 24.3-62.5 331-158.3 611.9-203.7 239.2-38.7 354.6-98.1 357.8-109.2-.1-0-.5-0-.5-0z" fill="#fff8f9"/><path d="m2455.4 5146.4c2.9-33.1-28.1-76.1-54.5 35.7-41 173.6 33.2 91.8 35.6 75.4 0 0 2.7 6.7 17.9 3.8-3.6 38.5 28.3 41.1 63.4-2 0 0 36.6 46.8 95.6-68.9 58.8-115.4-8.2-86.6-8.2-86.6 62.5-160.2-48.7-110.6-114.4 47.2-12.2-29.1-35.6-3.2-35.4-4.6z" fill="#263530"/><path d="m2607.8 5005.5s-125.7 245.7-113 230c20.3-24.9 118.3-229 118.3-229s-2.2-1-5.3-1z" fill="#84865f"/><path d="m301.3 5580.3c449.1-85.8 2268.7 194.3 2359.7 291.2 205.1-127.8 100.7-273-213.9-341.8 506.4-123.1 392.1-313.3 7.2-280.2-791.2 68.1-1570.4 210.4-2153 330.8z" fill="#4e5d58"/><path d="m1277.4 5424.1c74.8-16.2 155.2-44.2 229.9-61.2-444.8 63.9-860.2 145.9-1205.5 217.2l-.5.1c83.3-15.8 214.1-19.2 371.6-13.5 249.9-50.4 432.8-82.4 530.9-111.5 9.2-2.7-120.8 14.4-106.8 11 14-3.3 138-32.9 180.4-42.1z" fill="#8b8960"/><path d="m2729.2 5276.9c-523.4 84.8-1056.3 164.6-908.6 169.6 136.5 4.6 816.3-106.9 958.3-130.5-9.9-17.1-33.3-33.2-49.7-39.1z" fill="#8b8960"/><path d="m2447 5529.8c212.2-17.8 357.6-125.8 338.2-197.5-67.4 10.4-579.9 68.5-826 136.5-81.6 22.6 121 67.5 487.8 61z" fill="#8b8960"/><path d="m1334.3 5621.8c296.1 34.4 600 79.9 842.3 124.3 175.5-127.5 130.6-342.6-70.2-462-240.5 25-514.3 62.6-718.8 96.5 22.1 86.3-13.2 177.8-53.3 241.2z" fill="#9d9d9f"/><path d="m2203.7 5361.4c-292.2 51.1-425.5 80-329.9 80.3 64.2.2 179.4-14.5 361.8-40.8-7.8-12.1-20.5-29-31.9-39.5z" fill="#a9a9ab"/><path d="m2241.7 5409.9c-140.4 25.5-228.8 44.5-252.3 51.4-93.8 27.5 38.4 69.1 295.5 68-3-38.1-21.2-89.3-43.2-119.4z" fill="#a9a9ab"/><path d="m1753.6 5677c4.4.7 8.6 1.3 13.1 2 94.9-92.9 103.7-282.5-17.7-352-3 .4-8.1 1-9.2 1.2 125.7 77 107.7 255.3 13.8 348.8z" fill="#c5c5c7"/><path d="m247.1 5356.7c-17.3-18-35.4-23.5-49.8-16-29.4 15.2-13.9 96.1 14.9 164.8 58.8 140.3 115 126.9 120.9 125.4 11.5-2.9 17.6-20.7 19.7-26.4 41.7 56.8 101.6 49.3 107.4-3.9.6-5.1 31 57.8 67.9 17.7.1 11 14.4 37.2 27.9 42 7 2.5 61.4 21.4 73.2-86.1 15.9-145.4-72.9-99.6-72.9-99.6s1.4-229.6-77.2-226.7c-55.6 1.1-52.1 78.9-52.1 78.9-88.3-425.2-304.1-366.2-179.9 29.9z" fill="#111a17"/><path d="m246.7 5038s104.7 467.2 110.6 433.8c2.1-12-91.6-439-91.6-439-7.5.1-13.9 2-19 5.2z" fill="#4e5d58"/><path d="m478.8 5248s-11.4 310.6 1.2 273.5c4.5-13.4 13.3-271.2 13.3-271.2-4.5-1.8-9.8-2.6-14.5-2.3z" fill="#4e5d58"/><path d="m299.1 5580.3c-243.3 47.4-224.3 201.7 27.1 301.8 0 0-143.8 76.9-167.5 134.1-202.6 488.3 3352.9 415.4 2505.4-146.7-212.8-141-2054.6-379.4-2365-289.2z" fill="#eee8e8"/><path d="m1488.4 5634.5c-259.2 120.8-493.8 354.6-719.9 671.3 15.8 2 31.9 3.7 48.2 5.5 234.6-317.8 456.1-544.2 717.2-671.1-15.3-2-30.2-3.8-45.5-5.7z" fill="#f4f2f3"/><path d="m7806.6-5406.8c-111-716.7 481.4-1320.4 732.9-698-18-814 589.5-1532.5 1122-1573.4s700.5 503.7 724.3 599.1c54 216 51.3 602.2-94.5 953.4z" fill="url(#H)"/><path d="m10405.3-6568.7c-165.3 181.1-536.7 181.1-1480.9 578.2-243.8 102.5-1053.6 473.1-1117.8 583.6-2.2 3.8-10 13.6-7.4 24.1 9.4 38 141.9 39.9 294.1 31.1-73.1 189.8 948.5 275.8 1456.3 125.7-150.1 179.7 1268.8-6.8 741.6-197.9z" fill="url(#I)"/><path d="m8163-5567.5s541.2-367.2 1929.3-836.3c238.9-80.7 313-164.8 313-164.8l-4.5 45.2c-125.3 72.9-279.5 170-377.1 202.1 130.4-13.9 296.2-133.6 374.2-173.1l-2.6 25.7c-361.9 250.6-426.1 172.7-1327.3 485.4-318.4 135.6-597.4 279.3-905 415.8z" fill="#c7dd9c" opacity=".46"/><path d="m9393.5-5998.3h69.5v95.3h-69.5z" fill="#15090b"/><path d="m8982.6-5998.3h69.5v175.1h-69.5z" fill="#15090b"/><path d="m9582.6-7330.7c-219.1 131.2-438.2 262.4-657.2 393.6v914.4h1314.5v-914.5c-219.1-131.1-438.2-262.3-657.3-393.5z" fill="#a2abb2"/><path d="m10239.9-6937.2-657.2 914.5h657.2z" fill="#acb3b9"/><path d="m9582.5-7255.5c-195.9 123.6-391.8 247.3-587.7 370.9v861.9h1175.3v-861.9c-195.9-123.6-391.7-247.3-587.6-370.9z" fill="#5c2810"/><path d="m9126.4-6967.7 288.1 79.9 276.1-182.7 48.7-86-156.8-99z" fill="#4e1f0d"/><path d="m10170.1-6884.6-626.3 861.9h626.3z" fill="#e9a370"/><path d="m10109.8-6024.2-18.4 1.4 5.6-824.3 3.3 2c12.3 255 12 525.6 9.5 820.9z" fill="#4e1f0d"/><path d="m9582.5-7153.5-518 308.1v822.7h1035.9v-822.2z" fill="#8da6ba"/><path d="m10100.4-6686.5-490.4 663.8h490.4z" fill="#b8c6c7"/><path d="m8925.4-6024.2h1314.5v40.8h-1314.5z" fill="#b27c62"/><path d="m8925.5-5998.8h1314.5v15.5h-1314.5z" fill="#5f3a34"/><path d="m9192.5-6322.4h119.9v299.6h-119.9z" fill="#23314b"/><path d="m9312.4-6022.7h-28.3l9.7-299.7h18.6z" fill="#314061"/><path d="m9393.5-6727.8v21.1h-205.6l-.1-21.1z" fill="#627a92"/><path d="m9187.8-6723.1h205.7v21.1h-205.7z" fill="#7092ad"/><path d="m9977.9-6725.5v21.1h-206.6l-.1-21.1z" fill="#627a92"/><path d="m9771.2-6720.8h206.7v21.1h-206.7z" fill="#7092ad"/><path d="m9754.9-6826.8v21.1h-344.9l-.2-21.1z" fill="#627a92"/><path d="m9409.8-6822.1h345v21.1h-345z" fill="#7092ad"/><path d="m9414.5-6022.7h-21v-1018.4l20.9-12.4z" fill="#627a92"/><path d="m9409.8-6022.7h-21l.8-1016 20.2-12.1z" fill="#7092ad"/><path d="m9754.9-6022.7h21v-1015.5l-20.8-12.4z" fill="#627a92"/><path d="m9750.2-6022.7h21v-1018.4l-21.1-12.5z" fill="#7092ad"/><path d="m9192.5-6022.7h-21.1v-886.3l21.1-12.5z" fill="#627a92"/><path d="m9187.8-6022.7h-21.1l.6-883.7 20.2-12.1z" fill="#7092ad"/><path d="m9977.9-6022.7h21.1v-882.7l-21.1-12.5z" fill="#627a92"/><path d="m9973.2-6022.7h21.1l-.7-885.9-20.4-12.1z" fill="#7092ad"/><path d="m9063.8-6512h1036.8v80.2h-1036.8z" fill="#7496b2"/><path d="m9063.8-6517.3h1036.9v80.2h-1036.9z" fill="#314061"/><path d="m9063.8-6517.3h467.1l-153.6 80.2h-313.5z" fill="#23314b"/><path d="m10100.6-6437.1h-189.6l62.4-80.2h127.2z" fill="#576f8b"/><path d="m7892.5-5479.8c314.1-181.7 568.8-257 568.8-257-57.4 30.4-88.5 48.6-121.8 76.4 74.8-34.2 174.9-69.4 303.3-108-39.5 11.9-60.8 23.7-78 36.1 116.1-27.6 222.7-59.7 318.5-96.8 0 0-92.3 49.2-91.7 49.9l145.5-62.2c-52.8 26.7-96.3 50.6-112.9 66.5 68.7-27 151.2-64.9 245.8-112.3-37.5 22.7-73.8 44.8-86.4 57.8 58-10.3 104.1-33.6 173.3-60.5-23.4 14-42.6 27.3-47.3 38.4 27.3-12.3 89.3-41.2 144.1-70.7-25.7 21.2-58.5 43-78.8 63.1 32.8-12.2 55.8-31.2 128.4-63.1l-54.7 39.3c37.2-1.3 749.4-157.5 914.6-321.3-27.2 26.9-19.5 39.8-50.3 61.3 61.5-30.1 73.3-43.7 120.1-85.6-19 28.7-37.6 50.1-55.7 63.5 48.5-17.2 124.5-70.3 200.9-131l-78 783c-216.4 34.7-387.4 34.6-660.3 15 173.1-6.2 258.5-29.5 339.3-64.8-213.8 53.6-311.3 18.4-584.1 65.7 55.7-9.7 99.1-27.6 126.2-39.1-71.5 19.9-195.4 26.1-220.9 21.3 231.6-35.4 260.1-55.4 310.9-76.2-90.6 37.1-235.5 42.5-320.4 39.3 61.6-7.8 108.1-45.2 108.1-45.2-94.3 46-220 52.5-389.4 49.6 98.6-8.5 141.9-38.9 189.6-45.5-140.3 19.4-212.2 28.3-260.6 32.6-60.2 8.6 79.9-34.9 115.9-53.3-19.9 12.6-354 90.2-449.4 82.3 45.2-8.4 110.5-35.1 132.3-49.5-34.3 7.3-126.4 30.5-169.8 29.3 116-20.8 225.3-80.4 291.8-132.1-212.1 102.2-348.4 124.6-463.1 141.9 139.7-41.7 247.1-83.8 284.3-118.1-95.4 60-299.4 104-400.2 129.5 45.2-20.2 76.6-35.8 92.3-61.7-34.1 35.4-168.2 71.1-245 92.2 77.6-36.3 129.7-70.4 168.5-107.2-230 148.5-194.3 46.9-489.5 200.1-.1.1 16.9-33 85.8-72.9z" fill="#667450"/><path d="m9104-5751.9c236.1-39.7 289.4-26.4 344.4-78l-24 27.1 113.4-63-76.6 60.6c86.5-21.1 166.3-49.6 238.3-86.5-32.4 22.1-64.9 42.9-97.6 61 155.2-21.3 269-86.1 389.9-178.2-40.1 38.6-92.7 80.2-151.2 123.2 62.6-31.4 120.1-62.3 156.4-91.2-24 24.6-50.1 47.3-77.7 65.8 127.6-65.1 243.9-130.6 332.8-196.9-51.1 50.4-117.6 99.2-191.8 147.3 93.6-18.8 297.8-144.2 300-156.7l-20.4 204.5c-119.5 30.5-233.3 57.4-336.8 78 66.8-21.9 134.1-43.8 162.7-62.3l-103.2 26.4c41.2-19.1 78.5-40.6 108.3-66.5-110.3 57.4-219.1 104.9-342.8 124.1 58.4-18.3 87.4-35 119.1-59.8-57.3 21.7-185.9 46.7-306.1 73.7 59.1-21.5 109.9-42.5 141-62.2 0 0-119.4 51-298.9 68-189.2 17.7-379.2 41.6-379.2 41.6z" fill="#7b8757"/><path d="m10277.5-5416.1c12.4-428.7 82.8-1272.6 46.4-1177.4-7.5 19.7-145.4 811.8-91.3 1175.9 5.4 37 43.7 43.3 44.9 1.5z" fill="#0b1a07"/><path d="m10280-5409.8c65.1-224.2 119.3-778.3 97.6-778.1-23.1.2-93.4 560.1-116.1 776.1-2.5 23.8 11 27.8 18.5 2z" fill="#0b1a07"/><path d="m10180.1-5376.1c-39.2-105.1-43.9-355.1-25.5-353.8 19.5 1.4 39.3 258.7 43.2 357.7.4 10.9-13.2 8.2-17.7-3.9z" fill="#0b1a07"/><path d="m10295.7-5377.5c64-126.6 147.4-447.1 132.7-449.4-15.6-2.5-113 324-147.6 450.5-3.8 13.9 7.5 13.5 14.9-1.1z" fill="#0b1a07"/><path d="m8236.2-2290.6s-268.7-614.2 33.4-1073.6c35.6-54.1 238.2-338.1 600.6-388.2 1065.2-147.4 1528.1 982.8 1275.2 1833.9-219.8 739.8-1652.9 648.3-2033.9 220.4-137.4-154.3-180.8-462.1 124.7-592.5z" fill="#2f2b1f"/><path d="m8239.2-3469.9c-140.5 169.9-283.2 500.7-206.2 899 23.9 123.8-267.4-529.7 248.3-1014.6 74.1-69.7 69.5-19.4-42.1 115.6z" fill="#a7aa5b"/><path d="m8859.6-3754.8c-45.9 7-89.1 17.6-129.7 30.9v1636.7l1431.4 115.5c235.8-837.1-241.3-1945-1301.7-1783.1z" fill="#a7aa5b"/><path d="m8730-3723.9c-279.3 91.6-433.4 311-464.5 358.2-302.1 459.4-37.1 1072.4-37.1 1072.4-168.4 71.9-228.4 198.5-225.3 323.5l726.9-117.4z" fill="#696a3e"/><path d="m8730-2091.6-8.2 1.3-18.9-1624.2c9-3.3 18.1-6.5 27.1-9.4z" fill="#464830"/><path d="m8730-2091.6v222.9l1317 138.8c42.3-55.6 75.7-118.3 98.4-188.5 7.2-22.4 13.9-45 20.1-67.8z" fill="#3c3523"/><path d="m8104.3-1706.4 625.7-162.3v-222.9l-727 117c1.1 99.4 42.5 198.2 101.3 268.2z" fill="#3c3523"/><path d="m8476.3-2311.6-248.1 18c.1.2.1.3.1.3-168.7 72-228.6 199-225.3 324.2l474.4-77.3z" fill="#3c3523"/><path d="m8456-2290.6-277.9 22.5c-8.9 5.2-22.9 13.7-30.3 18.5l290.8-22.4-.1 190.6-432.8 58.7c-.8 6.6-1.5 12.3-1.9 19.5l452.2-65.3z" fill="#504333"/><path d="m10161.4-1971.7c1.5-5.3 3-10.2 4.6-16.4-474.8-41.1-961.2-62.5-1436-103.6-241.9 41.3-485.1 70.5-727 111.7 0 6.2.2 14.3.4 19.3l718.1-113.8c-.2 50.7 1.2 139.9 1 190.6l-630.3 162.2c4.3 5.5 8.3 10.7 12.1 15.1l625.7-162.3 1316.9 139c3.2-4 8.3-10.4 12.1-16.4l-1321.4-137.2-1.8-190.6z" fill="#504333"/><path d="m8265.5-3365.7c-245.4 373.2-116.6 847.7-59.6 1012.7l265-12.5 2.1-1220.7c-118.9 91.8-187.9 190.6-207.5 220.5z" fill="#617b32"/><path d="m8404.2-3527.8c96.7-1.9-3.3 126.9 38.1 170.4-98.1 7.7-63.2 110.7-23.8 125.1-46.4-2.7-80.5 10.3-87.5 58.1-174-.1-97.4 110.9 23.4 147.6 65 19.8 82.7 84.2 114.3 123.6 5.1 140.1-36.5 186.9-50.7 133.6-17.1-63.9-107.6 17.1-26.3 40.7 79.4 23.1-62.6 38.2 18.1 97-39.4 31.3-28.9 125.7 50.4 114.5-27.5 147.7-56.6 52.2-120.2 106.1-33.2 28.2 20.6-66.1 0-90-21.7-25.3-92.3 28.5-59.7-12.9 21.8-27.7 4.6-83.8-30-101.8-17.6-9.2-45.8-6.6-59 3.3-61.6 46.2 16.1 263.5 16.1 263.5l263.4-12.6 2.1-1224.7c-22.1 18.3-45.1 38-68.7 58.5z" fill="#415120"/><path d="m8187.2-3214.6c25.3-57.8 113.1-10.1 4.1 45-4.6 2.3-4.1 226.2-4.1 284.1 0 64.1 41.8 59.7 68.7 22.5 28.2-38.9 73.4-4.8 54.4 9.8-75 57.8-14.3 73.5 7.7 52.9 11-10.4 21.9 73.4-31.7 78.4-95 8.8 44.7 108.7-102.1 97z" fill="#deffec"/><path d="m8191.3-3224.7c-128.1 313-52.4 658.6 0 827.2z" fill="#353126"/><path d="m8160.8-2509.9 11.9 47.7v-713.1l-11.9 38z" fill="#1f1a14"/><path d="m8323.2-2355.1h-12.9v-1071.7l12.9-15.6z" fill="#585448"/><path d="m8331-2355.1h-13v-1081.1l13-15.4z" fill="#353126"/><path d="m8227.5-2295.3 248.8-16.3v-1277.3c-5.6 4.3-11.2 8.7-16.6 13v1205.2l-256 11.3c3.2 9.6 21.1 56.5 23.8 64.1z" fill="#353126"/><path d="m8468.7-2370.5h-8.5v-1205.5l8.5-7z" fill="#585448"/><path d="m8469.7-3036.1-290.3-18.9v-11.9l290.3 18.9z" fill="#353126"/><path d="m8470.8-2810.7c-94.5-3.6-189.1-7.2-283.6-10.8v-11.8c94.5 3.6 189.1 7.2 283.6 10.8z" fill="#353126"/><path d="m8473.9-2588.6c-96.6.8-193.1 1.6-289.7 2.4v-11.8c96.6-.8 193.1-1.6 289.7-2.4z" fill="#353126"/><path d="m8476.3-2311.6-247.9 18.3-2.2-5.2 250.1-17.8z" fill="#1f1a14"/><path d="m8472.9-3325.2-215.9-27.4c-15.4 24.3-29.1 49.1-41.5 74.1l257.5 27.6v-74.3z" fill="#353126"/><path d="m8468.3-3296.2-228.2-28.5 2.4-3.9 226.2 28.3z" fill="#1f1a14"/><path d="m8228.4-2293.3c-305.5 130.4-254.2 440.9-116.9 595.2 118.8 133.5 338.3 234 591.3 286.5z" opacity=".3"/><path d="m8859.6-3754.8c-139 21.2-253.6 75.6-344.1 137.6l1694.1 1398.6c90.6-791-391.3-1682.6-1350-1536.2z" fill="#515733" opacity=".3"/><path d="m9879.1 1262.5c0 296.5 527.5 125.4 555.2 603 34 585.3-1633.3 1178.4-2177.8 428.8-490.5-675.2 528.8-2218.8 1391-1845.8 161.9 70 231.6 287.9 231.6 814z" fill="#e2e0de"/><path d="m9809.4 488.8c19.2 51.6 161.4 155.8 123.4 512.5-19.1 179 112.9-88.3 21-324.9-57.6-147.9-156.6-220.4-144.4-187.6z" fill="#efeeec"/><path d="m9651.8 352.9c4-8.1 30.7-2.7 59.5 11.8 28.8 14.6 44.8 40.9 40.7 48.9s-26.6-5.3-55.4-19.9c-28.8-14.4-51.1-28-44.8-40.8z" fill="#efeeec"/><path d="m9879.1 1262.5c0-526.1-69.7-744-231.6-814-429.1-185.7-897.2 103.5-1198.6 524v1003h1430.2z" fill="#efefef"/><path d="m8448.9 972.5c-240.3 335.2-374.7 753.9-299.2 1082.3l299.2-79.3z" fill="#c9c5c0"/><path d="m10199.8 2050.7c-682.9 2.1-2049.6 6.2-2049.6 6.2-.4-1.5-1.3-5.6-1.4-6.2 0 0 189.9-49.7 286-75.2h1444.3z" fill="#ddd9d3"/><path d="m10199.8 2134.3h-2027c-8.9-25.6-16.6-51.4-22.6-77.4l2049.6-6.2z" fill="#bab6b3"/><path d="m10232.1 2245.5-2007.9-.4c-14.2-23.8-28.5-52.6-38.6-77.5l2129.7-6.2c-25.3 29.1-52.6 57.3-83.2 84.1z" fill="#b2b0ab"/><path d="m10201.8 2271.4-1959.1 3.1c8.3 12.7 19.9 30.6 29.3 42.8 419 544.1 1479.5 336.3 1929.8-45.9z" fill="#cecbc8"/><path d="m9413.6 746.5c-97.9-59.6-195.3-67.5-246.9-67.5-253.5 0-459 192.8-459.9 430.9v127.1l-.5.2-8.6 1359.6c331.2 100.6 736.9 46 1076-85.3 171.5-68.9 326.7-153.5 443.5-253-211.8-443.9-425-892.7-636.8-1336.6-20-37-69.5-116.3-166.8-175.4z" fill="#f7f7f7"/><path d="m8700.6 2055.2 1418.5-4.3c-3.3-7-7.6-14.3-10.9-21.3l-229.1-54.2h-1178.5z" fill="#efedea"/><path d="m8700.6 2134.3 1457.3-.2c-13.3-27.8-25.6-55.3-38.9-83.1l-1418.5 4.3v79z" fill="#cccac6"/><path d="m8699.8 2245.2 1511.3.3c-13.3-27.9-26.6-55.8-39.9-83.7l-1470.6 4.3z" fill="#c9c7c3"/><path d="m10201.8 2271.4-1502 2.4-6.7 321.5c261 81.5 573.2 63.7 872.4-13.2 244.3-62.9 479.3-175.1 636.3-310.7z" fill="#e0dddc"/><path d="m9879.1 1975.5v-427.5c-99.6-208.7-199.1-417.4-298.7-626.1-20-36.9-69.5-116.2-166.8-175.4-97.9-59.6-195.3-67.5-246.9-67.5-253.5 0-459 192.8-459.9 430.9v127.1l-.5.2-5.7 738.4h1178.5z" fill="#fff"/><path d="m9626 1109.5c-.9-238.1-206.4-430.9-459.9-430.9s-459 192.8-459.9 430.9v873.4h919.7z" fill="#fff"/><path d="m9626 1109.8c-.9-238.1-206.4-430.9-459.9-430.9-23.8 0-47.1 1.7-69.9 5-12.3 81.4 19.8 128.7 103 140.4-4.9 45.4 23.2 115.6 71 163.3-89.4-14.6-173.6-4.4-170.5 89.3-102.6 44.8-111.1 122.6-69.5 217.9-44.3 36.4-48.1 74.2-6.3 113.7-14.7 72.7-64.2 112.5-127.9 138.9l-129.3 371 859.2-4.8v-803.8z" fill="#e3f9ed"/><path d="m8776.2 1918.4c62.5-137.1 97.6-297.1 280.4-259.6-3-73.6 90.5-103.7 250-62.4 8.4-37.2 41.5-47.5 87.1-44.2-60.3-58.4-112.9-117.4-25.5-187.9-9.1-81.6 16.2-131.1 120-107.4-54.2-100.4 149.1-231.4 137.8-39.4v696.1z" fill="#d2e9d5"/><path d="m8706.3 1927.9c74.4 8.2 150.4-83.7 150.4-83.7 85.8-25.2 82.9-96.7 78.4-136.8 154.6 29.1 224-170.8 29.8-217.9-24.8-64.5-56.2-107.6-117.7-117.3-8.3-82.3-37.2-136.1-84.1-198.3 124.8-54.5 173.8-77.6 172-189.8 132.4.3 192.2-176.4 30.7-262.2-153.2 69.8-259 217.2-259.6 387.9v818.3c0-.2.1-.2.1-.2z" fill="#e5f7d1"/><path d="m8935.1 1918.7c-4.5-63.1 62-157.2 207.4-109.2 45.3-35.9 111.7-47.1 222.6-6.3 22.4-19 48.3-32.8 82.1-34.7-34.2-99.4 49.4-184.4 178.8-107.3v252.5z" fill="#fcfee6"/><path d="m9162.2 679.4h9v1245.3h-9z" fill="#796959"/><path d="m8939.6 1950h-9v-1209.5l8.8-4.9z" fill="#796959"/><path d="m9402.8 1933.4h-9.1v-1197.1l9.1 4.3z" fill="#796959"/><path d="m8748.1 930.7 4.7-9 827.6.1 3.6 8.8z" fill="#796959"/><path d="m8706.3 1173.8v-9l919.9.1-.3 8.8z" fill="#796959"/><path d="m8706.3 1417.5v-9l919.3.1.9 8.8z" fill="#796959"/><path d="m8706.3 1661.2v-9l919.8.1-.1 8.8z" fill="#796959"/><path d="m9626 1109.8c-.9-238.1-206.4-430.9-459.9-430.9s-459 192.8-459.9 430.9v873.4h919.7z" fill="none" stroke="#604c45" stroke-miterlimit="10" stroke-width="10"/><path d="m8700.6 1896h931.1v95.1h-931.1z" fill="#bba18c"/><path d="m8712.5 1515.2c-47.5 13.9-80.5 35-119.8 81.7-24.7 29.5-42.8 77-41.2 119.8.4 12.4-.2 15.1 7.7 59.9" fill="none" stroke="#604c45" stroke-miterlimit="10" stroke-width="2"/><path d="m8487.6 1351c27.7 48.1 74.6 169.7 87.8 223.7 3.5 14.1 6.9 28.5 8.1 43 4.3 56-5.5 126.7-32.6 175.8-35.3 63.8-66.1 102.1-60.8 158.1" fill="none" stroke="#604c45" stroke-miterlimit="10" stroke-width="2"/><path d="m8615.5 1383.6c-10 13.4-16.3 30-17.5 47.3-1.2 16.7 2 33.6 2 50.3 0 28.9-10.8 57.3-28.5 78.8" fill="none" stroke="#604c45" stroke-miterlimit="10" stroke-width="2"/><path d="m8444.4 1557.8c22.8-1.2 45.6-8.1 68.1-6.1 31.8 2.9 61.8 29.2 70.1 58.1" fill="none" stroke="#604c45" stroke-miterlimit="10" stroke-width="2"/><path d="m8472.3 1604.5c4.4-.4 72.5-5.8 89.9 21.3 2.1 3.2 4 7.3 5.3 12.4" fill="none" stroke="#604c45" stroke-miterlimit="10" stroke-width="2"/><path d="m8445.8 1450.6c29.9 18.5 47.6 28 97.3 25.2 0 0-28.8-23.7-51.4-22.9-33.5 1-45.9-2.3-45.9-2.3z" fill="#696a3e"/><path d="m8401.4 1326.5c31.6 24.4 52 36.7 99.1 49.3 0 0-33.1-27.5-54.5-33.6-32.2-9.3-44.6-15.7-44.6-15.7z" fill="#696a3e"/><path d="m8568.4 1369.3 30 97.7s-1.5-33.5-7.4-56.2c-5.6-21.1-22.6-41.5-22.6-41.5z" fill="#696a3e"/><path d="m8655.8 1417.4c-10.4 13.2-32.7 37.1-56.2 50.5 0 0 10.3-38.7 30.7-47.9 9.2-4.4 25.5-2.6 25.5-2.6z" fill="#696a3e"/><path d="m8693.1 1442.9s-23.4 19.4-28.7 46c-2.9 14.7.5 45.5.5 45.5z" fill="#696a3e"/><path d="m8392.7 1622.3c32.7-10.8 77.4-17.3 96.2-17.5 0 0-32.7-10.5-50-8.9-23.5 2-46.2 26.4-46.2 26.4z" fill="#696a3e"/><path d="m8546.6 1614.4c-22.2-28.6-28.7-37-33.7-50.9 0 0-3.6 13.4-.8 21 8.3 21.7 34.5 29.9 34.5 29.9z" fill="#696a3e"/><path d="m8404.7 1539.6c10.4 9.1 41.7 9.7 84.2 13.5 0 0-42.1 20-59.8 10.6-11.6-6.5-24.4-24.1-24.4-24.1z" fill="#696a3e"/><path d="m8584.5 1666.8c4.4-23.9 33.9-42.8 66-71 0 0-37.3 4.3-51.2 20.4-13.9 15.8-14.8 50.6-14.8 50.6z" fill="#696a3e"/><path d="m8439.9 1237.1c7.1 51.3 12.5 78 58 131.8 0 0-.7-52.6-20.7-77.4-30-37.1-37.3-54.4-37.3-54.4z" fill="#a7aa5b"/><path d="m8660.9 1317.4c-11.6 36.1-18.9 55.9-58.6 88.9 0 0 7.3-38.8 24.8-54.4 26.5-23.1 33.8-34.5 33.8-34.5z" fill="#a7aa5b"/><path d="m8447.8 1508.9c36.9 18.9 58.1 41.3 117.6 31.1 0 0-35.2-28.3-62.3-24.4-40.2 5.9-55.3-6.7-55.3-6.7z" fill="#a7aa5b"/><path d="m8529.2 1441.1c3.3-33.2 16.6-83.4 18.2-103 0 0-24 22.8-26.1 50.7-1.4 18.6 7.9 52.3 7.9 52.3z" fill="#a7aa5b"/><path d="m8528.7 1433.4c-41.6-18.5-79.3-32.5-96.4-47.9 0 0 11.4 30.8 35.3 38.9 20.4 6.9 61.1 9 61.1 9z" fill="#a7aa5b"/><path d="m8561.5 1528.1c-.4 2.6 69.9-69.3 83.6-69.9 9.4-.4-48.5-1-70.1 23.6-8.2 9.2-12.1 39.1-13.5 46.3z" fill="#a7aa5b"/><path d="m8687.6 1522.7 100.8-13.8s-23.8-11.8-50.7-14.3c-23.1-2.8-50.1 28.1-50.1 28.1z" fill="#a7aa5b"/><path d="m8546.6 1614.4c-44 18.4-60.2 39.6-90.2 51.5 0 0 41.6 7.1 60.9-17.5 10.2-12.8 29.3-34 29.3-34z" fill="#a7aa5b"/><path d="m8663.2 1766.1c-8.2-7.9-20.6-14.1-35.2-18.7v-16.3c10.2-6.9 16.9-14.9 21-27.7-12.6-5.7-169.7-6.5-176.9.2 3.7 9.8 12.4 18.9 24.4 26.9v13.7c-20.4 4.7-36.5 12-44 21.8-22.4 66.4-7.7 213.1 0 220.3 25.3 30.4 193.8 33.4 210.9 0 16.5-41.5 23.2-168.6-.2-220.2z" fill="#8d684a"/><path d="m8628.1 1747.4v-16.3c10.2-6.9 16.9-14.9 21-27.7-7.7-3.5-70-5.1-118.5-4.3 6.9 4.3 14.1 10 21 17.6 16.8 18.8 22 39.2 24.5 48 13.9 50.1 63.4 175.4 94.4 196.4 10.9-54.4 12.5-151.5-7.2-195-8.3-7.9-20.7-14.2-35.2-18.7z" fill="#ac8364"/><path d="m9835.9 1664.7c-6.6-10.9-20.5-20-32.1-26.3l1-28c8.1-9.3 21.2-7.6 24.8-25.3-10.1-8.1-148-9.3-153.8 0 3 13.6 17.9 13.4 27.5 24.5l-1 28.5c-16.4 6.6-29.3 16.7-35.4 30.3-17.9 92.2-6.1 295.5 0 305.6 7.3 39.4 155.3 46.2 169 0 13.1-57.8 18.7-237.6 0-309.3z" fill="#9d7f67"/><path d="m9733.8 1627.2c-1.1-4.9-5.1-21.1-34.4-38.9-3.3-2 16-5.9 16-9.1-21.4.9-37.7 2.8-39.6 5.9 3 13.6 17.9 13.4 27.5 24.5l-1 28.5c-16.4 6.6-29.3 16.7-35.4 30.3-14.4 73.8-9.6 218.9-4 279 9-193.6 81.3-275.6 70.9-320.2z" fill="#bba18c"/><path d="m12527.9 1289.3c0 296.5 527.5 125.4 555.2 603 34 585.3-1633.3 1178.4-2177.8 428.8-490.5-675.2 528.8-2218.8 1391-1845.8 161.9 70 231.6 287.9 231.6 814z" fill="#e2e0de"/><path d="m12458.2 515.6c19.2 51.6 161.4 155.8 123.4 512.5-19.1 179 112.9-88.3 21-324.9-57.6-147.9-156.6-220.4-144.4-187.6z" fill="#efeeec"/><path d="m12300.6 379.7c4-8.1 30.7-2.7 59.5 11.8 28.8 14.6 44.8 40.9 40.7 48.9s-26.6-5.3-55.4-19.9c-28.8-14.4-51.1-28-44.8-40.8z" fill="#efeeec"/><path d="m12527.9 1289.3c0-526.1-69.7-744-231.6-814-429.1-185.7-897.2 103.5-1198.6 524v1003h1430.2z" fill="#efefef"/><path d="m11097.7 999.3c-240.3 335.2-374.7 753.9-299.2 1082.3l299.2-79.3z" fill="#c9c5c0"/><path d="m12848.6 2077.5c-682.9 2.1-2049.6 6.2-2049.6 6.2-.4-1.5-1.3-5.6-1.4-6.2 0 0 189.9-49.7 286-75.2h1444.3z" fill="#ddd9d3"/><path d="m12848.6 2161.1h-2027c-8.9-25.6-16.6-51.4-22.6-77.4l2049.6-6.2z" fill="#bab6b3"/><path d="m12880.9 2272.3-2007.9-.4c-14.2-23.8-28.5-52.6-38.6-77.5l2129.7-6.2c-25.3 29.1-52.6 57.3-83.2 84.1z" fill="#b2b0ab"/><path d="m12850.6 2298.2-1959.1 3.1c8.3 12.7 19.9 30.6 29.3 42.8 419 544.1 1479.5 336.3 1929.8-45.9z" fill="#cecbc8"/><path d="m12062.4 773.3c-97.9-59.6-195.3-67.5-246.9-67.5-253.5 0-459 192.8-459.9 430.9v127.1l-.5.2-8.6 1359.6c331.2 100.6 736.9 46 1076-85.3 171.5-68.9 326.7-153.5 443.5-253-211.8-443.9-425-892.7-636.8-1336.6-20.1-37-69.6-116.3-166.8-175.4z" fill="#f7f7f7"/><path d="m11349.4 2082 1418.5-4.3c-3.3-7-7.6-14.3-10.9-21.3l-229.1-54.2h-1178.5z" fill="#efedea"/><path d="m11349.4 2161.1 1457.3-.2c-13.3-27.8-25.6-55.3-38.9-83.1l-1418.5 4.3v79z" fill="#cccac6"/><path d="m11348.5 2272 1511.3.3c-13.3-27.9-26.6-55.8-39.9-83.7l-1470.6 4.3z" fill="#c9c7c3"/><path d="m12850.6 2298.2-1502 2.4-6.7 321.5c261 81.5 573.2 63.7 872.4-13.2 244.2-62.9 479.2-175.1 636.3-310.7z" fill="#e0dddc"/><path d="m12527.9 2002.3v-427.6c-99.6-208.7-199.1-417.4-298.7-626.1-20-36.9-69.5-116.2-166.8-175.4-97.9-59.6-195.3-67.5-246.9-67.5-253.5 0-459 192.8-459.9 430.9v127.1l-.5.2-5.7 738.4z" fill="#fff"/><path d="m12274.8 1136.3c-.9-238.1-206.4-430.9-459.9-430.9s-459 192.8-459.9 430.9v873.4h919.7z" fill="#fff"/><path d="m12274.8 1136.6c-.9-238.1-206.4-430.9-459.9-430.9-23.8 0-47.1 1.7-69.9 5-12.3 81.4 19.8 128.7 103 140.4-4.9 45.4 23.2 115.6 71 163.3-89.4-14.6-173.6-4.4-170.5 89.3-102.6 44.8-111.1 122.6-69.5 217.9-44.3 36.4-48.1 74.2-6.3 113.7-14.7 72.7-64.2 112.5-127.9 138.9l-129.3 371 859.2-4.8v-803.8z" fill="#e3f9ed"/><path d="m11425 1945.2c62.5-137.1 97.6-297.1 280.4-259.6-3-73.6 90.5-103.7 250-62.4 8.4-37.2 41.5-47.5 87.1-44.2-60.3-58.4-112.9-117.4-25.5-187.9-9.1-81.6 16.2-131.1 120-107.4-54.2-100.4 149.1-231.4 137.8-39.4v696.1z" fill="#d2e9d5"/><path d="m11355.1 1954.7c74.4 8.2 150.4-83.7 150.4-83.7 85.8-25.2 82.9-96.7 78.4-136.8 154.6 29.1 224-170.8 29.8-217.9-24.8-64.5-56.2-107.6-117.7-117.3-8.3-82.3-37.2-136.1-84.1-198.3 124.8-54.5 173.8-77.6 172-189.8 132.4.3 192.2-176.4 30.7-262.2-153.2 69.8-259 217.2-259.6 387.9v818.3c0-.2.1-.2.1-.2z" fill="#e5f7d1"/><path d="m11583.9 1945.5c-4.5-63.1 62-157.2 207.4-109.2 45.3-35.9 111.7-47.1 222.6-6.3 22.4-19 48.3-32.8 82.1-34.7-34.2-99.4 49.4-184.4 178.8-107.3v252.5z" fill="#fcfee6"/><path d="m11811 706.2h9v1245.3h-9z" fill="#796959"/><path d="m11588.4 1976.8h-9v-1209.5l8.8-4.9z" fill="#796959"/><path d="m12051.6 1960.2h-9.1v-1197.1l9.1 4.3z" fill="#796959"/><path d="m11396.9 957.5 4.7-9 827.6.1 3.6 8.8z" fill="#796959"/><path d="m11355.1 1200.6v-9l919.9.1-.3 8.8z" fill="#796959"/><path d="m11355.1 1444.3v-9l919.3.1.9 8.8z" fill="#796959"/><path d="m11355.1 1688v-9l919.8.1-.1 8.8z" fill="#796959"/><path d="m12274.8 1136.6c-.9-238.1-206.4-430.9-459.9-430.9s-459 192.8-459.9 430.9v873.4h919.7z" fill="none" stroke="#604c45" stroke-miterlimit="10" stroke-width="10"/><path d="m11349.4 1922.8h931.1v95.1h-931.1z" fill="#bba18c"/><path d="m11361.2 1542c-47.5 13.9-80.5 35-119.8 81.7-24.7 29.5-42.8 77-41.2 119.8.4 12.4-.2 15.1 7.7 59.9" fill="none" stroke="#604c45" stroke-miterlimit="10" stroke-width="2"/><path d="m11136.4 1377.8c27.7 48.1 74.6 169.7 87.8 223.7 3.5 14.1 6.9 28.5 8.1 43 4.3 56-5.5 126.7-32.6 175.8-35.3 63.8-66.1 102.1-60.8 158.1" fill="none" stroke="#604c45" stroke-miterlimit="10" stroke-width="2"/><path d="m11264.2 1410.4c-10 13.4-16.3 30-17.5 47.3-1.2 16.7 2 33.6 2 50.3 0 28.9-10.8 57.3-28.5 78.8" fill="none" stroke="#604c45" stroke-miterlimit="10" stroke-width="2"/><path d="m11093.2 1584.6c22.8-1.2 45.6-8.1 68.1-6.1 31.8 2.9 61.8 29.2 70.1 58.1" fill="none" stroke="#604c45" stroke-miterlimit="10" stroke-width="2"/><path d="m11121 1631.3c4.4-.4 72.5-5.8 89.9 21.3 2.1 3.2 4 7.3 5.3 12.4" fill="none" stroke="#604c45" stroke-miterlimit="10" stroke-width="2"/><path d="m11094.5 1477.4c29.9 18.5 47.6 28 97.3 25.2 0 0-28.8-23.7-51.4-22.9-33.5 1-45.9-2.3-45.9-2.3z" fill="#696a3e"/><path d="m11050.2 1353.3c31.6 24.4 52 36.7 99.1 49.3 0 0-33.1-27.5-54.5-33.6-32.3-9.3-44.6-15.7-44.6-15.7z" fill="#696a3e"/><path d="m11217.1 1396.1 30 97.7s-1.5-33.5-7.4-56.2c-5.5-21.1-22.6-41.5-22.6-41.5z" fill="#696a3e"/><path d="m11304.5 1444.2c-10.4 13.2-32.7 37.1-56.2 50.5 0 0 10.3-38.7 30.7-47.9 9.2-4.4 25.5-2.6 25.5-2.6z" fill="#696a3e"/><path d="m11341.8 1469.7s-23.4 19.4-28.7 46c-2.9 14.7.5 45.5.5 45.5z" fill="#696a3e"/><path d="m11041.4 1649.1c32.7-10.8 77.4-17.3 96.2-17.5 0 0-32.7-10.5-50-8.9-23.5 2-46.2 26.4-46.2 26.4z" fill="#696a3e"/><path d="m11195.3 1641.2c-22.2-28.6-28.7-37-33.7-50.9 0 0-3.6 13.4-.8 21 8.3 21.7 34.5 29.9 34.5 29.9z" fill="#696a3e"/><path d="m11053.4 1566.4c10.4 9.1 41.7 9.7 84.2 13.5 0 0-42.1 20-59.8 10.6-11.5-6.5-24.4-24.1-24.4-24.1z" fill="#696a3e"/><path d="m11233.2 1693.6c4.4-23.9 33.9-42.8 66-71 0 0-37.3 4.3-51.2 20.4-13.8 15.8-14.8 50.6-14.8 50.6z" fill="#696a3e"/><path d="m11088.6 1263.9c7.1 51.3 12.5 78 58 131.8 0 0-.7-52.6-20.7-77.4-30-37.1-37.3-54.4-37.3-54.4z" fill="#a7aa5b"/><path d="m11309.6 1344.2c-11.6 36.1-18.9 55.9-58.6 88.9 0 0 7.3-38.8 24.8-54.4 26.5-23.1 33.8-34.5 33.8-34.5z" fill="#a7aa5b"/><path d="m11096.5 1535.7c36.9 18.9 58.1 41.3 117.6 31.1 0 0-35.2-28.3-62.3-24.4-40.2 5.9-55.3-6.7-55.3-6.7z" fill="#a7aa5b"/><path d="m11177.9 1467.9c3.3-33.2 16.6-83.4 18.2-103 0 0-24 22.8-26.1 50.7-1.4 18.6 7.9 52.3 7.9 52.3z" fill="#a7aa5b"/><path d="m11177.4 1460.2c-41.6-18.5-79.3-32.5-96.4-47.9 0 0 11.4 30.8 35.3 38.9 20.5 6.9 61.1 9 61.1 9z" fill="#a7aa5b"/><path d="m11210.3 1554.9c-.4 2.6 69.9-69.3 83.6-69.9 9.4-.4-48.5-1-70.1 23.6-8.3 9.2-12.2 39.1-13.5 46.3z" fill="#a7aa5b"/><path d="m11336.3 1549.5 100.8-13.8s-23.8-11.8-50.7-14.3c-23.1-2.8-50.1 28.1-50.1 28.1z" fill="#a7aa5b"/><path d="m11195.3 1641.2c-44 18.4-60.2 39.6-90.2 51.5 0 0 41.6 7.1 60.9-17.5 10.2-12.8 29.3-34 29.3-34z" fill="#a7aa5b"/><path d="m11311.9 1792.9c-8.2-7.9-20.6-14.1-35.2-18.7v-16.3c10.2-6.9 16.9-14.9 21-27.7-12.6-5.7-169.7-6.5-176.9.2 3.7 9.8 12.4 18.9 24.4 26.9v13.7c-20.4 4.7-36.5 12-44 21.8-22.4 66.4-7.7 213.1 0 220.3 25.3 30.4 193.8 33.4 210.9 0 16.5-41.5 23.2-168.6-.2-220.2z" fill="#8d684a"/><path d="m11276.8 1774.2v-16.3c10.2-6.9 16.9-14.9 21-27.7-7.7-3.5-70-5.1-118.5-4.3 6.9 4.3 14.1 10 21 17.6 16.8 18.8 22 39.2 24.5 48 13.9 50.1 63.4 175.4 94.4 196.4 10.9-54.4 12.5-151.5-7.2-195-8.3-7.9-20.7-14.2-35.2-18.7z" fill="#ac8364"/><path d="m12484.6 1691.5c-6.6-10.9-20.5-20-32.1-26.3l1-28c8.1-9.3 21.2-7.6 24.8-25.3-10.1-8.1-148-9.3-153.8 0 3 13.6 17.9 13.4 27.5 24.5l-1 28.5c-16.4 6.6-29.3 16.7-35.4 30.3-17.9 92.2-6.1 295.5 0 305.6 7.3 39.4 155.3 46.2 169 0 13.1-57.8 18.7-237.6 0-309.3z" fill="#9d7f67"/><path d="m12382.6 1654c-1.1-4.9-5.1-21.1-34.4-38.9-3.3-2 16-5.9 16-9.1-21.4.9-37.7 2.8-39.6 5.9 3 13.6 17.9 13.4 27.5 24.5l-1 28.5c-16.4 6.6-29.3 16.7-35.4 30.3-14.4 73.8-9.6 218.9-4 279 9-193.5 81.2-275.6 70.9-320.2z" fill="#bba18c"/></svg>