<svg xmlns="http://www.w3.org/2000/svg" viewBox="0 0 1500 1500" width="1500" height="1500"><g transform="translate(268.0 215.0) rotate(0.0 518.0 517.0) scale(0.9990848151644873 0.9998926614260943)"><svg width="1036.949" height="1034.111" viewBox="0 0 1036.949 1034.111"><path d="M1028.73 547.508A508.82 508.82 0 0 1 910 851.318c-.18.21-.349.42-.53.63-134.16-1.85-229.6 73.06-395.16 65.15-8.76-.42-29.36 34.87-38 34-29.01-2.94-38.7-3.27-66-11-95.99-27.19-181-55-271.5-79.66q-1.515-1.71-2.99-3.42C50.71 759.328 1.55 631.178 7.891 498.688 21.381 216.788 252.83-1.182 534.73 12.3s508.76 226.568 494 535.208z" fill="#fff"/><path d="M932.17 823.8c-.239-.175.659-1.955 2.633-5.254q1.481-2.475 3.762-6.077 1.144-1.8 2.471-3.876l2.712-4.521q2.905-4.785 6.5-10.695 3.424-5.994 7.486-13.1a77.954 77.954 0 0 0 2.008-3.649l2.028-3.815 4.283-8.03c1.488-2.759 2.84-5.705 4.338-8.685 1.464-3 3.02-6.06 4.537-9.251l4.492-9.924 2.341-5.157 2.223-5.366q2.247-5.431 4.6-11.126l4.421-11.8c.731-2.018 1.568-4.021 2.236-6.111l2.118-6.3c1.4-4.252 2.973-8.539 4.233-13.024l4.055-13.639 3.733-14.274a527.711 527.711 0 0 0 11.506-63c.651-5.632 1.392-11.333 1.774-17.151.441-5.813 1.039-11.684 1.265-17.678l.455-9.033.251-9.156.127-4.619.015-4.65.032-9.382-.2-9.491-.11-4.786-.219-4.809c-.161-3.214-.261-6.45-.471-9.7l-.687-9.791c-1.088-13.111-2.491-26.487-4.633-40.03a545.484 545.484 0 0 0-8.055-41.13q-4.989-20.763-11.979-41.771a475.259 475.259 0 0 0-92.588-162.228c-43.331-50-99.76-92.991-165.054-123.472a544.009 544.009 0 0 0-103.682-35.9 553.316 553.316 0 0 0-55.291-10.2 563.426 563.426 0 0 0-56.756-4.719 491.808 491.808 0 0 0-216.7 42.593 486.478 486.478 0 0 0-47.53 24.469 499.355 499.355 0 0 0-118.809 97.232 503.981 503.981 0 0 0-57.3 77.843 512.217 512.217 0 0 0-39.6 82.228c-5.183 13.807-9.756 27.583-13.6 41.3s-7.086 27.322-9.774 40.766q-.961 5.05-1.915 10.051L18.2 443.9c-.589 3.308-.976 6.629-1.462 9.917q-.346 2.469-.693 4.925c-.223 1.638-.389 3.278-.585 4.911-.367 3.268-.783 6.514-1.105 9.751l-.884 9.665-.216 2.4-.134 2.395-.268 4.77-.535 9.458a507.15 507.15 0 0 0 2.115 71.613l2.027 16.633c.278 2.741.8 5.424 1.229 8.1l1.321 7.964 1.3 7.843 1.61 7.656q.799 3.798 1.58 7.534.392 1.867.779 3.721l.387 1.849.462 1.822a542.954 542.954 0 0 0 33.257 97.16C70.08 759.749 81.14 778.805 88.513 791.8c7.74 12.766 11.7 19.595 11.195 19.947-.466.327-5.379-5.84-14.115-18.088a494.9 494.9 0 0 1-33.244-56.8 515.751 515.751 0 0 1-36.54-97.72l-.509-1.849-.437-1.874-.879-3.774L12.2 624l-1.8-7.78-1.5-7.973-1.512-8.1c-.488-2.728-1.078-5.46-1.418-8.247l-2.394-16.958a507.213 507.213 0 0 1-3.4-73.286q.2-4.825.4-9.709l.2-4.9.1-2.46.184-2.458.763-9.9c.282-3.318.661-6.645.99-10 .178-1.674.326-3.357.53-5.037s.427-3.364.641-5.053c.451-3.375.805-6.782 1.361-10.179q.777-5.1 1.561-10.262.912-5.138 1.831-10.328 3.871-20.727 9.526-41.945c3.791-14.122 8.332-28.325 13.513-42.571a521.2 521.2 0 0 1 39.961-84.978A512.061 512.061 0 0 1 252.408 70.158a499.541 499.541 0 0 1 49.067-25.48A505.516 505.516 0 0 1 525.6.261a576.2 576.2 0 0 1 58.52 4.882 566.109 566.109 0 0 1 56.961 10.576 556.71 556.71 0 0 1 106.865 37.288c67.308 31.669 125.446 76.4 169.885 128.355a485.76 485.76 0 0 1 94.151 168.14q6.977 21.658 11.851 43.088a550.539 550.539 0 0 1 7.763 42.316c2.02 13.916 3.278 27.637 4.2 41.07l.562 10.028c.167 3.325.224 6.635.34 9.923l.15 4.92.042 4.892.056 9.7-.179 9.579-.091 4.745-.2 4.713-.408 9.334-.616 9.2c-.334 6.1-1.046 12.1-1.6 18.027-.5 5.935-1.357 11.748-2.128 17.486a520.667 520.667 0 0 1-13.048 64.017l-4.14 14.448c-1.479 4.692-3.006 9.275-4.466 13.781-1.4 4.526-3.112 8.85-4.646 13.134q-1.176 3.2-2.326 6.343c-.738 2.1-1.643 4.118-2.444 6.147l-4.837 11.852-5.017 11.148-2.43 5.367-2.546 5.15-4.9 9.892c-1.653 3.176-3.344 6.219-4.942 9.194-1.633 2.957-3.119 5.876-4.739 8.6s-3.173 5.374-4.68 7.927l-2.225 3.756a79.002 79.002 0 0 1-2.2 3.584l-8.255 12.8c-2.632 3.826-5.074 7.254-7.245 10.323l-3.08 4.313-2.835 3.657q-2.642 3.374-4.483 5.608c-2.46 2.974-3.83 4.408-4.07 4.236z" fill="#04294f"/><path d="M135.861 582.408c-4.329 23.056-6.041 44.548-4.984 64.388a4.366 4.366 0 0 0 6.157 3.726l10.165-4.574a2.759 2.759 0 0 1 3.892 2.622c-1.3 34.7 3.963 111.366 9.219 100.528.976-2.012 98.182-120.3 95-122-13.569-7.237-46.778-18.566-63.353-21.4a2.757 2.757 0 0 1-1.72-4.4l3.145-4.089a4.364 4.364 0 0 0-2.266-6.862l-46.679-13.226a6.831 6.831 0 0 0-8.576 5.287zM409.31 552.1c-25-8-35.552-64.1-8-70 28-6 26.271-24.718 29-40 5-28 48-40 64-13 15.813 26.683 23.018 43.258 40 42 27-2 34 28 13 55s-47 39-47 39z" fill="#04294f"/><path d="M771.7 365.73a710.4 710.4 0 0 0-63.57 53.881 6.885 6.885 0 0 0 1.37 10.93l20.6 11.754a2.171 2.171 0 0 1 .015 3.768c-32.315 18.537-59.029 49.682-84.59 83.437l-29.555 37.1 166.464 58.3c.82-24.341-.842-46.844-9.106-64.459a2.171 2.171 0 0 1 2.6-2.99l20.362 6.117a6.884 6.884 0 0 0 8.854-6.93c-1.376-28.521-7.85-58.5-19.263-90.808a2.178 2.178 0 0 1 2.716-2.808l2.211.713a6.885 6.885 0 0 0 8.986-6.885c-1.33-28.453-7.012-57.738-17.431-87.928a6.877 6.877 0 0 0-10.663-3.192z" fill="#00aee0"/><path d="M910 851.318c-.18.21-.349.42-.53.63-99.1 117.7-250.01 189.48-415.569 181.57q-13.14-.63-26.1-1.94a492.444 492.444 0 0 1-84.56-16.13c-95.99-27.19-180.2-82.5-244.43-155.01l-.03-.034a13.036 13.036 0 0 1-3.24-7.966c-6.075-115.407 59.748-283.053 282.77-313.34 298.55-40.56 503.939 93.01 491.689 312.22z" fill="#00aee0"/><path d="M660.31 280.1c18.211 4.654 52.68 65.034 64.72 87.043a5.378 5.378 0 0 1-4.725 7.957h-8.048a4.085 4.085 0 0 0-3.819 5.547l50.2 130.888a5.383 5.383 0 0 1-6.286 7.162l-11.829-2.855a4.086 4.086 0 0 0-4.831 5.265c12.037 36.35 18.105 70.432 21.913 103.656a5.383 5.383 0 0 1-5.673 6c-18.626-1.214-35.7-4.5-49.142-12.657a4.073 4.073 0 0 0-6.006 2.2c-5.9 18.258-17.114 34.427-32.376 49a5.383 5.383 0 0 1-7.788-.4c-11.879-13.869-20.9-28.1-24.3-43.052a4.1 4.1 0 0 0-6.094-2.651c-18.982 11.245-38.687 18.8-59.532 20.547a5.4 5.4 0 0 1-5.819-5.92A545.431 545.431 0 0 1 591.2 504.836a4.091 4.091 0 0 0-4-5.494l-11.666.467a5.387 5.387 0 0 1-5.423-6.76c9.882-37.423 25.111-76.132 47.044-116.624a4.088 4.088 0 0 0-4.927-5.821l-3.638 1.266a5.384 5.384 0 0 1-6.763-7.086c10.113-25.533 45.726-87.947 58.483-84.684zM292.281 621.009c10.446 20.515 53.183 23.906 61.164-2.215s-17.235-136.923-25.26-162.154-58.473 7.938-58.473 7.938 12.6 46.842 14.9 74.765-1.519 63.622 7.669 81.666z" fill="#04294f"/><path d="M299.291 552.709s-35.183 3.029-53.706-19.817c-14.153-17.455-18.912-49.115-18.912-49.115l15.889-1.883s5.517 29.556 16.977 41.288 41.775 4.112 41.775 4.112z" fill="#04294f"/><path d="M200.471 313.679c6.635-28.983 58.089-45.151 78.267-19.347s35.808 24.812 56.92 21.45c24.708-3.936 58.516 31.359 48.77 54.64-10.2 24.37 1.493 38.088 10.982 67.174 9.31 28.536-43.348 67.571-71.639 49.778s-40.965-14.278-61.922 4.318-64.6 15.712-70.4-7.768c-8.158-33.007-21.676-37.1-37.14-49.976-20.111-16.749-12.974-51.319 9.349-65.556 27.147-17.316 32.52-35.963 36.813-54.713z" fill="#00aee0"/><path d="M329.135 766.82c17.083 17.838 160.5 7.057 177.017-8.666s4.574-54.727-26.172-50.646-22.415-15.1-47.266-30.446c-18.21-11.243-47.264-.3-53.432 18.411s-18.806 22.986-37.612 25.873-32.735 24.38-12.535 45.474zM767.31 727.1c-15.418-5.223-23.545-48.252-10-61 16.156-15.2 40.44-3.317 48.82 13.351a3.021 3.021 0 0 0 3.739 1.549c26.222-9.966 60.043 15.9 57.617 39.758a3.031 3.031 0 0 0 .9 2.412c29.682 30.084 19.681 78.054-1.081 69.93-22.995-9-37.995-45-99.995-66zM263.306 453.6c.112.459-1.239 1.269-3.819 2.307a58.069 58.069 0 0 1-11.43 3.207 43.5 43.5 0 0 1-8.429.648 22.148 22.148 0 0 1-10.213-2.358 15.569 15.569 0 0 1-4.711-4.016 20.029 20.029 0 0 1-3-5.365 32.518 32.518 0 0 1-1.576-5.766 50.126 50.126 0 0 1-.43-2.913c-.124-1-.19-1.873-.316-2.558a4.068 4.068 0 0 0-.477-1.474 2.671 2.671 0 0 0-.866-.937 11.425 11.425 0 0 0-3.766-1.463c-1.578-.4-3.324-.716-5.208-1.313a20.728 20.728 0 0 1-5.257-2.545 21.606 21.606 0 0 1-7.05-7.826 19.446 19.446 0 0 1-.968-16.063 17.342 17.342 0 0 1 2.7-4.709 10.705 10.705 0 0 1 2.475-2.305c.679-.4 1.1-.514 1.269-.346s.075.607-.228 1.26c-.279.674-.758 1.578-1.23 2.777a22.315 22.315 0 0 0-1.291 4.391 18.265 18.265 0 0 0-.132 5.826 15.817 15.817 0 0 0 2.347 6.341 16.872 16.872 0 0 0 5.511 5.32 15.227 15.227 0 0 0 3.732 1.6c1.359.38 3.031.64 4.875 1.049a17.155 17.155 0 0 1 6.163 2.431 9.472 9.472 0 0 1 2.842 3.048 10.739 10.739 0 0 1 1.324 3.752c.2 1.153.263 2.133.366 2.962.091.861.215 1.7.346 2.52a28.108 28.108 0 0 0 1.152 4.6 11.562 11.562 0 0 0 4.564 6.246 17.686 17.686 0 0 0 7.417 2.157 48.861 48.861 0 0 0 7.541.208c4.7-.2 8.6-.774 11.337-.98 2.743-.238 4.323-.174 4.436.287zm79.046-30.674c-.293-.388.769-1.666 2.708-3.718a45.95 45.95 0 0 0 3.241-3.773 16.106 16.106 0 0 0 2.738-5.357 14.523 14.523 0 0 0 .532-3.342 18.378 18.378 0 0 0-.273-3.692 20.95 20.95 0 0 0-1.15-3.835 21.785 21.785 0 0 0-2.045-3.719 19.072 19.072 0 0 0-2.932-3.3 23.721 23.721 0 0 0-3.809-2.788 32.392 32.392 0 0 0-9.545-3.6l-.576-.12c-.345-.077-.688-.132-1.031-.19l-2.112-.281-1.054-.138c-.359-.04-.751-.058-1.124-.088l-2.258-.164-8.467-.6 6.214-4.173c1-.684 2.07-1.373 3.007-2.04l1.984-1.875a5.8 5.8 0 0 0 .472-.467l.2-.238c.05-.053.179-.266.2-.294l.285-.407a6.591 6.591 0 0 0 .531-.839 17.314 17.314 0 0 0 .9-1.757 17.53 17.53 0 0 0 1.047-3.71 16.435 16.435 0 0 0 .1-3.663 12.829 12.829 0 0 0-2.338-6.2 15.788 15.788 0 0 0-4.433-4.129 17.562 17.562 0 0 0-4.75-2.068 18.971 18.971 0 0 0-3.956-.657c-.564-.065-1.061-.046-1.506-.062s-.827-.025-1.141-.029c-.631-.023-1.017-.128-1.09-.332s.17-.5.739-.883a4.96 4.96 0 0 1 1.113-.587 9.144 9.144 0 0 1 1.634-.547 14.9 14.9 0 0 1 4.764-.4 18.241 18.241 0 0 1 6.276 1.561 19.017 19.017 0 0 1 6.517 4.783 17.7 17.7 0 0 1 4.13 8.7 21.484 21.484 0 0 1 .185 5.258 20.4 20.4 0 0 1-2.431 7.946 11.524 11.524 0 0 1-.735 1.256l-.4.616c.054-.084.014-.012.025-.027 0 .047 0 .059.017.061a.385.385 0 0 0 .06-.014h.01-.006l.442.092a36.564 36.564 0 0 1 11.6 4.565 28.634 28.634 0 0 1 4.8 3.75 24.385 24.385 0 0 1 3.741 4.619 26.3 26.3 0 0 1 2.408 5.073 24.98 24.98 0 0 1 1.134 5.179 22.09 22.09 0 0 1-.1 4.985 17.927 17.927 0 0 1-5.7 10.757 26.082 26.082 0 0 1-4.412 3.278c-2.552 1.481-4.102 1.998-4.38 1.624zm-67.616-78.394c-.372.315-1.109.1-2.168-.274-.523-.2-1.156-.4-1.859-.624a19.544 19.544 0 0 0-2.4-.572 18.618 18.618 0 0 0-6.211-.017 31.659 31.659 0 0 0-7.613 2.354 26.885 26.885 0 0 0-6.759 3.875 11.36 11.36 0 0 0-1.987 2.179 8.805 8.805 0 0 0-1.052 2.293 9.265 9.265 0 0 0-.262 3.9c.063.508.147.942.178 1.291a1.067 1.067 0 0 1-.168.813.819.819 0 0 1-.835.142 3.382 3.382 0 0 1-1.464-.862 6.588 6.588 0 0 1-1.533-2.214 9.5 9.5 0 0 1-.755-3.494A11.38 11.38 0 0 1 240.6 349a14.025 14.025 0 0 1 2.646-4.192 19.726 19.726 0 0 1 3.941-3.3 31.707 31.707 0 0 1 4.57-2.407 26.815 26.815 0 0 1 9.817-2.358 17.281 17.281 0 0 1 8.377 1.753 12.638 12.638 0 0 1 2.738 1.853 8.784 8.784 0 0 1 1.62 1.886c.723 1.165.778 2.004.427 2.297z" fill="#04294f"/><g fill="#00aee0"><path d="M684.239 350.228c.822 0 1.571 1.395 2.152 3.713a34.956 34.956 0 0 1 .735 4.114l.136 1.2.061.625.049 1.16a6.612 6.612 0 0 1-1.324 4.568 4.031 4.031 0 0 1-.529.524 4.59 4.59 0 0 1-.585.481 4.956 4.956 0 0 1-1.381.667 5.258 5.258 0 0 1-1.534.251 6.717 6.717 0 0 1-.8-.04 5.546 5.546 0 0 1-.811-.144 9.094 9.094 0 0 1-2.93-1.338l-.669-.481-.332-.27-.223-.192q-.406-.368-.781-.764a66.39 66.39 0 0 1-2.043-2.351 45.878 45.878 0 0 1-3.167-4.25c-1.659-2.562-2.348-4.48-1.673-5.147s2.584.043 5.127 1.731a46.194 46.194 0 0 1 4.214 3.215 71.795 71.795 0 0 1 2.316 2.057q.2.173.412.34a.705.705 0 0 0 .1.069.029.029 0 0 0-.01-.014l.007-.007a.026.026 0 0 0 .009-.016.1.1 0 0 0 .068.074.183.183 0 0 0 .185-.032l.028-.021.015-.013.007-.007.008-.077.066-.624c.049-.412.1-.814.146-1.2a35.108 35.108 0 0 1 .77-4.108c.598-2.312 1.359-3.696 2.181-3.693zm-55.218 94.336c.6.667-.118 2.506-2.158 4.744a21.842 21.842 0 0 1-1.77 1.717c-.338.286-.688.585-1.065.871-.634.462-1.393.922-2.147 1.392a43.754 43.754 0 0 1-4.9 2.531q-2.547 1.149-5.408 2.355l.281-1.79a219 219 0 0 1 1.088-6.241c.227-1.032.431-2.03.7-3.019l.382-1.448.205-.7.08-.255.063-.184a30.234 30.234 0 0 1 2.245-5.015c1.571-2.736 3.112-4.13 3.978-3.773.887.365.957 2.37.632 5.307-.162 1.471-.422 3.18-.724 5.057l-.028.176c-.011.068-.02.123-.011.108l.024.027a.251.251 0 0 0 .046.039.133.133 0 0 0 .083.023.136.136 0 0 0 .08-.038l-.008.009a.216.216 0 0 0 .068.335.356.356 0 0 0 .209.051l1.113-.488 2.027-.877c2.508-1.061 4.294-1.607 4.915-.914zm20.567 11.553c.832.456.694 2.5-.2 5.424-.224.732-.5 1.52-.81 2.353l-.245.633-.128.322c-.053.125-.06.167-.177.408l-1.212 2.515q-.662 1.325-1.353 2.713l-.723 1.416-.371.721-.187.354-.173.239a132.841 132.841 0 0 1-2.907 3.838l-.745.943c-.034.076-.056.008-.08-.054l-.071-.167-.141-.334-.28-.667q-.517-1.268-1.02-2.494a35.81 35.81 0 0 1-1.652-4.761 23.46 23.46 0 0 1-.742-5.009 20.06 20.06 0 0 1 .016-2.235l.011-.256.025-.167.053-.33.112-.633a10.436 10.436 0 0 1 1.43-3.712c.552-.808 1.105-1.165 1.561-1.062.953.221 1.3 2.149 1.867 4.852q.057.252.115.518l.057.265.027.134.029.049c.075.123.146.255.214.287a.373.373 0 0 0 .34.09c.186-.054.233-.329.233-.329s-.014.226.178.237a.469.469 0 0 0 .179-.026c0 .036.1-.128.159-.2l.2-.282q.2-.277.4-.547a38.774 38.774 0 0 1 1.546-1.95c1.988-2.337 3.632-3.551 4.465-3.096zm54.894 99.154c.931-.065 2.018 2.527 2.638 6.888a51.1 51.1 0 0 1 .442 7.693q-.015 1.089-.072 2.229l-.152 1.887c-.069.666-.239 1.393-.359 2.1a4.856 4.856 0 0 1-2.077 3.1 4.78 4.78 0 0 1-1.823.709 4.948 4.948 0 0 1-1.9-.069 3.548 3.548 0 0 1-1-.417l-1.006-.516a11.332 11.332 0 0 1-1.982-1.218l-.732-.538c-.179-.128-.341-.275-.51-.411-.333-.28-.67-.549-.986-.835a28.65 28.65 0 0 1-3.347-3.577 27.539 27.539 0 0 1-2.415-3.679 24.121 24.121 0 0 1-1.543-3.48 15.783 15.783 0 0 1-1-5.373 4.7 4.7 0 0 1 .238-1.54c.135-.366.318-.578.549-.633a.967.967 0 0 1 .793.291 6.976 6.976 0 0 1 .977 1.1c.361.482.762 1.071 1.223 1.739s.969 1.417 1.551 2.216 1.235 1.65 1.958 2.529 1.54 1.771 2.433 2.662a37.6 37.6 0 0 0 2.935 2.612l.816.618c.138.1.269.215.415.309l.214.146c.042.028.006 0 .013 0-.016-.024 0-.02 0-.024a.069.069 0 0 0 .066.046c.013-.015.021.029.043-.044a3.084 3.084 0 0 0 .079-.33l.291-2.076 1.013-7.239c.622-4.146 1.257-6.811 2.217-6.875zM832.1 735.551c-.483 0-.9-1.273-1.382-3.5a68.4 68.4 0 0 0-2.312-8.966 24.182 24.182 0 0 0-2.66-5.334 17.242 17.242 0 0 0-4.475-4.62 12.168 12.168 0 0 0-2.9-1.483 10.34 10.34 0 0 0-3.171-.549 10.489 10.489 0 0 0-3.288.462c-.253.1-.52.18-.769.289l-.369.17a1.308 1.308 0 0 0-.218.108l-.428.283-.857.567a13.891 13.891 0 0 0-.956 1.013c-.332.379-.628.669-.991 1.121l-1.065 1.295-2.79 3.386-.926-4.485c-.33-1.558-.623-3.167-.992-4.612a37.882 37.882 0 0 0-.957-3.246q-.321-.925-.688-1.8a24.857 24.857 0 0 0-3.639-6.179 19.1 19.1 0 0 0-4.742-4.187 16.983 16.983 0 0 0-5.07-2.138 14.182 14.182 0 0 0-4.5-.348 10.445 10.445 0 0 0-3.274.848c-1.7.773-2.455 1.756-2.914 1.555-.2-.087-.31-.473-.156-1.133a5.62 5.62 0 0 1 1.5-2.523 10.179 10.179 0 0 1 3.963-2.414 15.376 15.376 0 0 1 6.039-.717 19.612 19.612 0 0 1 7.069 1.924 22.776 22.776 0 0 1 6.77 4.984 28.5 28.5 0 0 1 5.064 7.626c.328.715.636 1.445.917 2.188a9.878 9.878 0 0 0 .365.958.021.021 0 0 0 .024-.017c.007 0-.015.009.016-.007l.133-.071.066-.036.3-.137.678-.3c.454-.19.918-.334 1.376-.492a16.64 16.64 0 0 1 5.558-.655 16.286 16.286 0 0 1 5.266 1.151 17.757 17.757 0 0 1 4.324 2.525 21.446 21.446 0 0 1 5.6 6.8 25.129 25.129 0 0 1 2.445 6.961 31.446 31.446 0 0 1 .3 10.15c-.323 2.334-.814 3.587-1.284 3.585zm-426.647.519a1.034 1.034 0 0 1-.823-.231 11.591 11.591 0 0 1-1.112-.911c-.224-.191-.478-.4-.725-.625l-.857-.7a23.265 23.265 0 0 0-2.171-1.5 16.542 16.542 0 0 0-2.765-1.376 13.741 13.741 0 0 0-3.236-.87 11.787 11.787 0 0 0-1.712-.1 5.5 5.5 0 0 0-.86.052l-.431.036-.525.08a31.732 31.732 0 0 0-4.275.952 26.039 26.039 0 0 0-7.461 3.525 12.155 12.155 0 0 0-3.9 4.638 14.768 14.768 0 0 0-1.274 4.27c-.168 1.127-.267 1.914-.72 2.116-.216.1-.49.028-.826-.223a4.1 4.1 0 0 1-1.071-1.341 8.255 8.255 0 0 1-.815-2.565 10.973 10.973 0 0 1 .038-3.6 14.337 14.337 0 0 1 4.594-8.221A24.9 24.9 0 0 1 384 724.3a28.317 28.317 0 0 1 5.432-1.05l.664-.058.752-.02a10.168 10.168 0 0 1 1.475.037 15.611 15.611 0 0 1 2.77.463 16.077 16.077 0 0 1 4.578 2.028 15.6 15.6 0 0 1 3.247 2.715 14.142 14.142 0 0 1 2.022 2.8c.227.463.431.888.587 1.3a11.667 11.667 0 0 1 .341 1.151 4.231 4.231 0 0 1 .059 1.705c-.085.399-.247.629-.474.699zm52.266 8.077a1.034 1.034 0 0 1 .164-.821 9.3 9.3 0 0 1 .818-1.087q.26-.325.576-.67l.631-.795a18.431 18.431 0 0 0 1.34-1.947 17.683 17.683 0 0 0 1.228-2.476 15.955 15.955 0 0 0 .821-2.97 12.584 12.584 0 0 0 .149-3.251 9.811 9.811 0 0 0-2.551-5.966 12.6 12.6 0 0 0-2.453-2.139 16.051 16.051 0 0 0-2.714-1.459 17.678 17.678 0 0 0-2.639-.822 18.261 18.261 0 0 0-2.333-.377l-1.011-.093a12.474 12.474 0 0 1-.882-.047 9.24 9.24 0 0 1-1.351-.16 1.034 1.034 0 0 1-.707-.449.835.835 0 0 1 .132-.81 3.865 3.865 0 0 1 1.084-1.12q.4-.283.933-.592a12.812 12.812 0 0 1 1.2-.523 12 12 0 0 1 3.138-.683 15.225 15.225 0 0 1 3.927.177 16.753 16.753 0 0 1 4.332 1.442 15.965 15.965 0 0 1 4.206 3 14.6 14.6 0 0 1 4.414 10.325 15.962 15.962 0 0 1-.738 5.112 16.748 16.748 0 0 1-1.951 4.128 15.269 15.269 0 0 1-2.585 2.962 12.01 12.01 0 0 1-2.662 1.8 12.719 12.719 0 0 1-1.207.506q-.586.17-1.072.264a3.844 3.844 0 0 1-1.558.011.837.837 0 0 1-.679-.47zm61.099-227.695c-.2-.128-.254-.5-.191-1.048l.145-.981c.057-.387.153-.794.211-1.274a22.284 22.284 0 0 0 .3-3.379 18.381 18.381 0 0 0-.432-4.3 16.379 16.379 0 0 0-1.829-4.683 13.72 13.72 0 0 0-3.7-4.08 16.7 16.7 0 0 0-2.585-1.523 17.41 17.41 0 0 0-2.965-1.016 16.8 16.8 0 0 0-3.192-.393l-.528.01a8.035 8.035 0 0 0-1 .056 5.8 5.8 0 0 0-1.088.187l-1.125.25c-1.452.3-3.2.794-4.67 1.151l-2.449.617q1-2.3 1.993-4.564c.37-.823.635-1.524.955-2.286l.454-1.114a9.061 9.061 0 0 0 .229-1l.08-.772a1.94 1.94 0 0 0 .019-.358l.011-.719a11.884 11.884 0 0 0-.16-1.435 10.573 10.573 0 0 0-2.281-4.994 8.711 8.711 0 0 0-3.976-2.742 11.192 11.192 0 0 0-4.541-.412 13.938 13.938 0 0 0-6.622 2.63c-.38.25-.687.508-.969.732-.3.214-.544.409-.747.572-.426.314-.763.451-.973.35s-.284-.439-.207-1.03a3.67 3.67 0 0 1 .278-1.041 6.534 6.534 0 0 1 .643-1.321 11.14 11.14 0 0 1 2.7-3.04 14.242 14.242 0 0 1 4.872-2.535 14.851 14.851 0 0 1 6.9-.378 13.911 13.911 0 0 1 7.247 3.952 16.142 16.142 0 0 1 4.242 7.944 17.573 17.573 0 0 1 .349 2.384l.025 1.233a4.978 4.978 0 0 1-.019.622l-.016.21c.014.011.022 0 .027 0v.006h.513a21.8 21.8 0 0 1 4.7.7 22.124 22.124 0 0 1 4.237 1.671 21.209 21.209 0 0 1 3.616 2.458 18.211 18.211 0 0 1 4.816 6.455 18.849 18.849 0 0 1 1.56 6.654 17.572 17.572 0 0 1-.6 5.475 13.961 13.961 0 0 1-1.605 3.761 8.112 8.112 0 0 1-.868 1.2 4.426 4.426 0 0 1-.777.769c-.47.378-.807.496-1.007.369zm-87.218 3.423a.942.942 0 0 1-.634.4 2.553 2.553 0 0 1-1.146-.05 5.508 5.508 0 0 1-1.55-.652 8.4 8.4 0 0 1-1.737-1.385 10.964 10.964 0 0 1-1.635-2.174 12.176 12.176 0 0 1 6.786-17.546 10.967 10.967 0 0 1 2.672-.508 8.453 8.453 0 0 1 2.217.144 5.525 5.525 0 0 1 1.586.56 2.575 2.575 0 0 1 .881.735.939.939 0 0 1 .2.723 1.193 1.193 0 0 1-.395.648 4.794 4.794 0 0 1-.829.565c-.335.188-.717.377-1.135.6s-.867.454-1.334.736-.949.6-1.438.953a13.944 13.944 0 0 0-1.417 1.239 10.34 10.34 0 0 0-1.248 1.509 8.163 8.163 0 0 0-1.406 3.635 10.461 10.461 0 0 0-.093 1.957 13.916 13.916 0 0 0 .216 1.869c.125.588.256 1.157.422 1.673s.33 1 .491 1.443.316.841.437 1.205a4.713 4.713 0 0 1 .233.977 1.188 1.188 0 0 1-.144.744zm-274.077 87.83c.46.1.794.691.957 1.7a12.909 12.909 0 0 1-.18 4.141 21.656 21.656 0 0 1-.694 2.758c-.147.492-.339.985-.526 1.5l-.559 1.2c-.189.407-.4.839-.655 1.288a37.085 37.085 0 0 1-3.363 5.182 210.636 210.636 0 0 1-3.911 4.771l-1.8 2.107c-.293-2.37-.568-4.756-.807-7.012l-.674-6.221-.305-2.674a4.137 4.137 0 0 1-.037-.432l-.018-.332-.03-.647a51.37 51.37 0 0 1-.048-2.375c.016-2.919.383-4.817 1.257-5.027s2.088 1.327 3.286 4.084c.3.689.6 1.453.883 2.285l.214.636.105.326c.032.092.081.277.087.237a.687.687 0 0 0 .177.116c.206.092.3-.1.322-.19l.01-.037a.18.18 0 0 0 .191.215c.019.011.063-.023.114-.068a1 1 0 0 0 .163-.15l.739-1.147 1.327-2.1c1.64-2.601 2.827-4.339 3.775-4.134zm42.584 10.183c.591-.422 1.664-.036 3.452 1.621a40.631 40.631 0 0 1 3.13 3.325c.594.692 1.221 1.451 1.872 2.264s1.351 1.685 2 2.591c-1.321.036-2.994.046-4.711.032l-1.305-.014c-.449-.01-.849.009-1.284.009s-.876-.008-1.276.031l-1.246.079-2.244.179-1.246.076a40.97 40.97 0 0 1-2.4.053 25.59 25.59 0 0 1-4.145-.334c-2.383-.414-3.872-1.184-3.933-2.127s1.294-1.893 3.5-2.712a30.77 30.77 0 0 1 3.914-1.123 40.565 40.565 0 0 1 2.355-.451l1.626-.236s.043.076.415.219c.1.057.1 0 .122-.037l.062-.12c.044-.087.092-.186.14-.3a6.815 6.815 0 0 0 .28-.9c.192-.706.332-1.703.922-2.125z"/></g><path d="M779.218 424.537c.905.04 1.733 1.837 1.8 4.864a20.857 20.857 0 0 1-.607 5.254c-.015.093-.095.342-.161.548l-.205.643a16.95 16.95 0 0 1-.453 1.3c-.32.881-.694 1.736-1.091 2.6a193.99 193.99 0 0 1-2.611 5.231l-.758-.839c-1.443-1.614-2.845-3.18-4.162-4.758-.656-.783-1.29-1.573-1.889-2.329-.369-.5-.608-.841-.9-1.263a33.731 33.731 0 0 1-2.614-4.487c-1.278-2.7-1.6-4.666-.83-5.211s2.486.4 4.69 2.262c1.105.933 2.333 2.1 3.647 3.418l.964.981a.129.129 0 0 0 .085-.029.089.089 0 0 0 .033-.07.155.155 0 0 0 .061.1.158.158 0 0 0 .09.025.26.26 0 0 0 .064-.008l.037-.011c.015-.011.016.023.068-.1l1.846-4.137c1.084-2.41 1.952-4.032 2.896-3.984zM280.462 807.228c-.1.2-.752.117-1.914-.256a30.073 30.073 0 0 1-4.836-2.217 45.92 45.92 0 0 1-6.986-4.831 51.373 51.373 0 0 1-7.872-8.221l4.178-1.783q.3 1.3.56 2.667l.247 1.383.229 1.467c.207 1.6.374 3.252.474 4.9l.288 5.108c-1.341-.462-2.769-1-4.147-1.512-.7-.247-1.416-.555-2.14-.848-.362-.152-.727-.288-1.093-.455l-1.1-.539-1.116-.545c-.318-.16-.463-.248-.7-.377-.436-.239-.879-.474-1.308-.738-.87-.508-1.727-1.062-2.577-1.646s-1.684-1.215-2.508-1.874l-1.22-1.024-1.1-.985-.417-.321c-.028-.027-.056-.065-.055.044a1.644 1.644 0 0 0-.007.194 1.261 1.261 0 0 0 .034.288l.015.053.1.81c.037.315.11.625.162.939a22.822 22.822 0 0 0 .6 2.211 12.872 12.872 0 0 0 .969 2.369l.288.616.144.309.073.155.125.2 1 1.59 4.588 7.252-3.047-.913-.431-.127-1.025-.325-2.011-.637-3.746-1.2a6.459 6.459 0 0 1-.968-.377l-1-.441c-.335-.153-.664-.283-1-.455l-1.053-.6a31.932 31.932 0 0 1-4.223-2.894l-1.3-1.15c-.374-.335-.714-.7-1.073-1.044-.708-.7-1.372-1.441-2.015-2.191s-1.254-1.524-1.851-2.307a73.589 73.589 0 0 1-6.068-9.812q-2.6-4.936-4.686-9.9c-1.384-3.306-2.6-6.6-3.654-9.866l-.191-.612a.8.8 0 0 1-.04-.134v-.022l-.009-.082-.025-.193-.074-.534-.015-.109-.033.03-.072.076a1.4 1.4 0 0 0-.161.214l-.091.14-.123.278-.132.307a1.242 1.242 0 0 0-.08.21l-.183.67a51.513 51.513 0 0 0-1.952 10.363 56.19 56.19 0 0 0-.051 9.4c.174 1.45.243 2.866.506 4.188l.317 1.955c.112.635.276 1.243.4 1.844s.264 1.186.391 1.754l.472 1.631q.229.791.437 1.544c.155.493.334.959.489 1.417.59 1.847 1.251 3.363 1.736 4.633s.954 2.205 1.165 2.9c.23.69.283 1.1.139 1.194s-.479-.124-1-.648a19.292 19.292 0 0 1-2.049-2.493 36.845 36.845 0 0 1-2.662-4.451c-.234-.455-.492-.921-.725-1.417l-.672-1.563-.708-1.673-.622-1.816c-.205-.626-.444-1.261-.632-1.928l-.54-2.061c-.41-1.4-.621-2.91-.929-4.47a54.865 54.865 0 0 1-.651-10.243 53.193 53.193 0 0 1 1.564-11.571l.173-.756c.09-.314.26-.779.387-1.163l.834-2.451c.288-.817.552-1.673.867-2.483l1.061-2.334c.715-1.569 1.429-3.15 2.252-4.852q.6-1.263 1.21-2.539l.613-1.285.53-1.008 2.456 9.419c.411 1.657.884 3.139 1.335 4.725.225.79.471 1.554.719 2.32l.538 1.607c1.074 3.072 2.287 6.176 3.646 9.29s2.883 6.227 4.546 9.328a70.283 70.283 0 0 0 5.538 8.9c.516.677 1.037 1.344 1.582 1.976s1.093 1.251 1.669 1.825c.29.282.567.584.865.851l.716.646a.1.1 0 0 0 .007.017.261.261 0 0 0 .062.065.359.359 0 0 0 .051.035.049.049 0 0 0 .006-.015v-.111c-.064-.424-.147-.845-.191-1.27l-.066-.637c-.018-.233-.053-.353-.063-.766l-.063-2.145.126-2.05c.056-.668.179-1.277.265-1.915a30.935 30.935 0 0 1 .84-3.381l.966-3.253.255-.848.127-.423.106-.3.42-1.148 4.112 5.71c.669.894 1.315 1.681 1.966 2.516.652.767 1.305 1.416 1.949 2.121.194.21.258.269.339.346l.249.241.5.479 1.015.919c.687.594 1.383 1.163 2.094 1.7s1.431 1.045 2.164 1.517c.359.247.733.465 1.1.69l.5.307.108.075c.149.105.3.2.471.3a4.728 4.728 0 0 0 .555.292 9.829 9.829 0 0 0 .077-1.279l-.113-1.278-.143-1.3q-.151-1.292-.341-2.526l-1.623-10.648 5.8 8.865a56.069 56.069 0 0 0 6.566 8.225 65.271 65.271 0 0 0 5.918 5.41c3.448 2.775 5.547 4.147 5.331 4.575zm371.001-14.045c-.183 0-.372-.277-.565-.813s-.368-1.33-.616-2.35l-.805-3.722q-.25-1.084-.538-2.322l-.667-2.6a92.72 92.72 0 0 0-1.813-5.917c-.373-1.054-.758-2.148-1.208-3.26-.227-.555-.44-1.125-.685-1.693l-.186-.427-.093-.214a.383.383 0 0 0-.041-.08l-.11-.176a2.544 2.544 0 0 0-.7-.792.29.29 0 0 0-.109-.041c-.03 0-.074-.045-.027.155.05.276.078.5.093.672l.032.432a19.2 19.2 0 0 1-.626 2.126 36.286 36.286 0 0 1-1.2 3.1 40.1 40.1 0 0 1-3.236 5.924 48.786 48.786 0 0 1-4.152 5.406 67.416 67.416 0 0 1-5.144 5.2l-1.325 1.183-1.4 1.193c-.829.679-1.606 1.342-2.462 2.02l-2.547 2-4.987 3.836-.616.473-.308.236-.153.118c-.031 0-.009-.113-.017-.164l-.011-1.555q-.009-1.547-.02-3.076c-.027-1.832.014-4.519.037-6.887q.016-1.12.035-2.228l.03.307.034.265c0 .07.011.018.017-.013l.018-.1.077-.477a2.1 2.1 0 0 0-.13-1.291.859.859 0 0 0-.1-.135c-.035-.039-.015 0-.025 0l-.021.072c-.028.055-.05.131-.1.219a6.269 6.269 0 0 1-.444.727c-.114.148-.221.321-.368.5l-.221.278-.574.819c-.4.6-.844 1.169-1.288 1.711-.423.553-.885 1.048-1.324 1.528a27.5 27.5 0 0 1-5.05 4.28 17.065 17.065 0 0 1-3.717 1.843c-.917.281-1.439.319-1.552.11s.185-.652.83-1.291 1.592-1.548 2.746-2.732a38.475 38.475 0 0 0 3.752-4.621c.321-.478.661-.962.963-1.5.319-.519.639-1.061.938-1.656l.234-.44c.088-.175.131-.221.276-.555l.768-1.7.4-.878c.119-.338.225-.723.34-1.089l.695-2.283.089-.294c.029-.115.054-.283.081-.423l.161-.885.326-1.806.334-1.853.084-.471.043-.233.052-.018.211-.069c.282-.092.572-.175.868-.25a.7.7 0 0 0 .32-.142l.25-.15c.41-.174.49-.408.7-.584.055-.1.085-.2.13-.293l.03-.068c.029-.015-.04-.071.146-.017l.771.191a4.823 4.823 0 0 1 2.185 1.313 6.581 6.581 0 0 1 1.234 1.738 9.828 9.828 0 0 1 .958 3.06c.057.369.1.769.129 1.2s.034.884.038 1.455l.025 3.3.024 3.377c.009.48.017 1.332.028.879.02-.29.039-.834.055-.638.01.1.116-.063.149-.116l.021-.038c0-.01.083-.082.118-.118l1.165-1.029 1.212-1.107a68.074 68.074 0 0 0 4.612-4.706 45.224 45.224 0 0 0 3.619-4.662 35.444 35.444 0 0 0 2.77-4.9c.389-.835.739-1.678 1.043-2.525.15-.424.31-.844.43-1.271l.27-.907c.127-.465.2-.974.3-1.461a15.5 15.5 0 0 0 .423-3.141 15.692 15.692 0 0 0-.167-4.39q-.209-1.535-.414-3.061l-.1-.76-.051-.379-.093-.6-.39-2.473-1.627-10.324 3.105 5.209.794 1.3.063.094.015.023.046.076.251.438.994 1.732 1.866 3.275 1.729 3.077c.56 1 1.108 1.97 1.637 3.071 1.079 2.046 2.034 4.33 2.93 6.461.219.543.423 1.093.616 1.645l.375 1.088c.21.631.385 1.263.572 1.878.37 1.231.666 2.439.941 3.6a62.633 62.633 0 0 1 1.136 6.473c.119.987.191 1.928.269 2.81l.107 2.493a37.54 37.54 0 0 1-.137 3.948 13.214 13.214 0 0 1-.4 2.449c-.152.565-.322.851-.505.854zm74.054-1.615c-.228-.065-.406-.32-.539-.731a9.293 9.293 0 0 1-.289-1.674c-.119-.707-.137-1.532-.293-2.484-.1-.944-.284-2-.51-3.148a30.864 30.864 0 0 0-.989-3.65l-.332-.971c-.121-.325-.27-.647-.4-.978-.248-.668-.592-1.317-.913-1.991s-.725-1.326-1.118-1.993l-.643-.983-.158-.245c-.026-.038-.015-.012-.023-.021h-.023a.049.049 0 0 0-.047.055.494.494 0 0 0-.071-.129c-.036-.041-.081-.054-.158.017-.016.008-.045.061-.058.048l-.224 1.156c-.211.784-.376 1.557-.647 2.276a21.844 21.844 0 0 1-1.744 3.93 20.9 20.9 0 0 1-2.087 3.025 16.746 16.746 0 0 1-2.115 2.1 11.172 11.172 0 0 1-1.836 1.258c-1.108.551-1.826.649-2.091.337s-.078-1.02.417-2c.213-.524.559-1.069.869-1.763.345-.663.692-1.435 1.068-2.273.354-.854.72-1.786 1.038-2.809a24.983 24.983 0 0 0 .8-3.3c.131-.581.164-1.2.26-1.811l.07-1a10.15 10.15 0 0 0 .069-1.093l-.055-1.171-.055-1.192-.027-.6-.013-.3c-.013-.112-.054-.26-.08-.39l-.712-3.263-1.848-7.871 1.672 1.151.466.317.611.432 3.882 2.815c.617.446 1.232.9 1.842 1.4s1.215.94 1.817 1.492a28.478 28.478 0 0 1 3.454 3.938l.794 1.08.376.52.192.337.737 1.323c.443.892.858 1.776 1.194 2.662a23.837 23.837 0 0 1 .848 2.629c.111.434.232.856.322 1.28s.15.845.222 1.258a23.239 23.239 0 0 1 .292 4.617 18.927 18.927 0 0 1-.5 3.756 13.8 13.8 0 0 1-.907 2.7 6.2 6.2 0 0 1-1 1.544c-.31.313-.579.445-.807.381zM494.163 610.741c-.334.331-1.479-.151-3.239-1.408a30.539 30.539 0 0 1-3.035-2.527 32.664 32.664 0 0 1-3.577-3.958 27.18 27.18 0 0 1-3.4-5.778 22.733 22.733 0 0 1-1.786-7.794 19.59 19.59 0 0 1 .291-4.481c.071-.383.166-.768.252-1.154l.034-.145.009-.037v-.018c-.031.118-.03.121-.027.109v-.009l-.006-.017a.09.09 0 0 0-.024-.037c-.029-.024-.089.036-.089.036a.063.063 0 0 0 .009-.03c-.013 0 .03-.07-.117.035.2-.276-1.01 1.014-1.76 1.766-.739.909-1.538 1.746-2.172 2.679a37.619 37.619 0 0 0-3.387 5.463 40.081 40.081 0 0 0-2.161 5.235c-.279.828-.543 1.621-.718 2.391-.2.766-.418 1.49-.532 2.182s-.3 1.337-.4 1.938-.183 1.156-.28 1.66c-.209 1.009-.276 1.8-.47 2.367-.17.561-.373.88-.607.913s-.492-.223-.769-.758a9.752 9.752 0 0 1-.827-2.43c-.11-.541-.217-1.149-.321-1.819s-.11-1.4-.156-2.192a19.617 19.617 0 0 1 .041-2.536 21.941 21.941 0 0 1 .31-2.838 33.665 33.665 0 0 1 1.653-6.364 35.732 35.732 0 0 1 3.4-6.792 39.225 39.225 0 0 1 2.41-3.368 28.069 28.069 0 0 1 3.775-3.808 20.638 20.638 0 0 1 2.9-2.333c1-.659 2.031-1.4 3.029-2.006l2.955-1.621c.624-.47.661-.026.913.085l.641.52.729.6a4.582 4.582 0 0 1 .953.935 4.776 4.776 0 0 1 .858 1.75 5.369 5.369 0 0 1 .16 1.785 4.782 4.782 0 0 1-.057.529c-.029.188-.112.456-.165.679l-.181.7-.045.174-.11.237-.219.474a14.244 14.244 0 0 1-.985 1.925l-.608 1-.3.5-.2.467-.389.929-.193.461-.048.116-.05.147-.006.023-.025.093-.2.742a14.483 14.483 0 0 0-.388 3.064 19.338 19.338 0 0 0 .806 5.93 28.693 28.693 0 0 0 2.131 5.1c1.638 3.081 3.382 5.5 4.477 7.287 1.119 1.764 1.63 2.891 1.293 3.232zm-216.104 79.114c-.16.423-.808.645-1.894.6a8.928 8.928 0 0 1-1.9-.346 13.536 13.536 0 0 1-2.386-.925 17.462 17.462 0 0 1-2.669-1.627 20.511 20.511 0 0 1-2.724-2.4c-.421-.471-.9-.981-1.277-1.486l-.587-.768a.177.177 0 0 0-.052 0 .083.083 0 0 0-.072.074v.01c.014 0-.036-.228-.253-.115-.029.029-.046.007-.07.014a4.9 4.9 0 0 0-.16.659 11.782 11.782 0 0 0-.227 1.3c-.072.427-.068.84-.118 1.249.011.4-.026.8 0 1.174.021.756.086 1.454.163 2.084.05.309.086.611.118.9.055.272.1.533.126.78a7.633 7.633 0 0 1 .094 1.237 1.056 1.056 0 0 1-.3.753.853.853 0 0 1-.789.108 3.351 3.351 0 0 1-1.26-.655q-.351-.276-.751-.655c-.241-.265-.49-.568-.753-.9a11.484 11.484 0 0 1-1.382-2.534c-.209-.5-.351-1.044-.524-1.614a17.032 17.032 0 0 1-.32-1.818 13.506 13.506 0 0 1-.089-1.991 8.262 8.262 0 0 1 .058-1.048 13.336 13.336 0 0 1 .3-1.7 16.552 16.552 0 0 1 2.776-5.978 58.066 58.066 0 0 1 2.016-2.321l2.072-2.267.974-1.042 1.507 4.871.184.6.186.529.367 1.045.361 1.033a6.142 6.142 0 0 0 .415.882l.841 1.648.423.717c.274.485.549.861.813 1.288.563.8 1.109 1.569 1.685 2.242.557.693 1.121 1.31 1.648 1.878s1.024 1.082 1.477 1.531c.44.474.846.859 1.158 1.241.636.716.96 1.31.795 1.743zm28.375.916a1.01 1.01 0 0 1-.457-.66 5.352 5.352 0 0 1-.148-1.25c-.017-.508.007-1.094.017-1.762s.045-1.4.036-2.2c.011-.4-.01-.817-.02-1.247 0-.214-.009-.433-.028-.655 0-.156-.025-.087-.037-.131a.324.324 0 0 1-.042-.057c-.116-.165-.228-.229-.325-.226-.2 0-.278.285-.269.29-.007-.007.053-.237-.022-.332-.033-.045-.1-.07-.208-.062a.111.111 0 0 0-.048.01l-.1.071-.214.146a1.081 1.081 0 0 0-.14.1l-.253.218-.5.421a20.789 20.789 0 0 1-3.646 2.392c-2.16 1.074-3.642 1.306-4.089.728s.212-1.932 1.526-3.76l2.269-3.123.718-1.028.575-.825.3-.424c.1-.173.208-.4.313-.595l.649-1.254.167-.321a1.294 1.294 0 0 0 .083-.174l.048-.455q.1-.921.195-1.85.2-1.9.4-3.83l.025-.244.013-.123.006-.063v-.176l.048-1.414.094-2.852.19-5.8.939 1.845.415.812.249.461q.5.958 1.017 1.933l.537.965.237.434.106.166.106.176c.035.059.081.143.075.118a.065.065 0 0 1 .036.021 1.616 1.616 0 0 0-.077-.185l-.04-.09.3.633c.918 1.978 1.66 3.6 2.353 5.247a25.051 25.051 0 0 1 .915 2.582 24.335 24.335 0 0 1 .608 2.872 24.008 24.008 0 0 1 .165 5.946c-.021.236-.047.47-.087.71-.034.211-.076.533-.1.627a8.99 8.99 0 0 1-.195.812 14.713 14.713 0 0 1-.47 1.493 13.575 13.575 0 0 1-1.138 2.422 9.012 9.012 0 0 1-1.209 1.628 3.7 3.7 0 0 1-1.077.83.894.894 0 0 1-.791.059zm34.985 192.441c-.125.168-.416.2-.864.1a7.805 7.805 0 0 1-1.794-.7 20.26 20.26 0 0 1-2.554-1.585 18.764 18.764 0 0 1-1.5-1.15 24.523 24.523 0 0 1-1.6-1.4 27.09 27.09 0 0 1-1.668-1.67c-.575-.592-1.127-1.25-1.7-1.939s-1.11-1.444-1.69-2.21c-.525-.8-1.113-1.607-1.616-2.494a41.5 41.5 0 0 1-2.881-5.721c-.134-.161-.166-.113-.194-.082a.346.346 0 0 0-.027.105v.029l-.057.116-.293.722c-.114.272-.224.544-.317.822a30.932 30.932 0 0 0-1.006 3.309 29.865 29.865 0 0 0-.805 6.489 31.231 31.231 0 0 0 1.966 11.055 40.907 40.907 0 0 0 1.782 4.1c.584 1.2 1.174 2.2 1.634 3.054.949 1.684 1.476 2.724 1.143 3.087-.306.336-1.462-.045-3.151-1.321a19.878 19.878 0 0 1-2.793-2.647 26.714 26.714 0 0 1-3-4.177 29.655 29.655 0 0 1-3.909-12.958 31.412 31.412 0 0 1 .558-8.115 32.814 32.814 0 0 1 1.141-4.162c.112-.348.243-.691.379-1.034l.2-.515.1-.258.056-.138.1-.213a34.377 34.377 0 0 1 1.736-3.407c.308-.51.591-1.088.919-1.528l.956-1.395c.314-.488.644-.843.962-1.268l.963-1.221 1.952-2.468.976-1.227.8-.981 1.506 7.44.776 3.433a30.886 30.886 0 0 0 .92 3.009 46.9 46.9 0 0 0 2.106 5.27c.356.824.791 1.579 1.16 2.345.425.731.793 1.473 1.216 2.145s.8 1.346 1.217 1.957a35.36 35.36 0 0 0 1.189 1.766c.378.567.764 1.085 1.131 1.577s.7.966 1.042 1.391c.648.878 1.243 1.605 1.7 2.247a11.373 11.373 0 0 1 1.01 1.55c.204.402.249.698.123.866z" fill="#04294f"/><path d="M332 583.452c-.465-.09-.736-1.144-.831-2.955-.042-.9-.048-2-.052-3.268s.071-2.694.093-4.274c.109-3.154.221-6.891.32-11.028.015-2.07.093-4.238.069-6.487.025-2.248-.024-4.574-.039-6.956-.073-2.382-.109-4.708-.217-6.953-.059-2.248-.216-4.412-.307-6.48-.251-4.13-.5-7.861-.725-11.009-.082-1.578-.2-3-.251-4.267s-.076-2.362-.068-3.268c.028-1.813.26-2.877.722-2.984s1.112.756 1.894 2.427a27.452 27.452 0 0 1 1.224 3.1c.412 1.224.876 2.625 1.271 4.2a95.015 95.015 0 0 1 2.233 11.181c.271 2.129.57 4.368.727 6.7.2 2.33.291 4.751.366 7.231.017 2.48.018 4.9-.1 7.239-.071 2.337-.287 4.585-.48 6.723a95.034 95.034 0 0 1-1.82 11.256c-.338 1.586-.749 3-1.116 4.241a27.55 27.55 0 0 1-1.109 3.14c-.725 1.694-1.342 2.58-1.804 2.491zm-11.735-15.063c-.948-.113-1.617-1.651-2.042-4a63.054 63.054 0 0 1 .084-18.033c.447-2.346 1.131-3.878 2.08-3.982s1.963 1.265 2.765 3.622a32.7 32.7 0 0 1-.088 18.8c-.823 2.347-1.864 3.704-2.799 3.593zm-16.832 24.065c-1.885.224-3.845-3.249-4.379-7.756s.56-8.341 2.444-8.564 3.845 3.249 4.379 7.756-.561 8.341-2.444 8.564zm318.938-37.997c.632.707-.353 2.738-2.455 5.449-.526.677-1.121 1.4-1.779 2.15l-1.032 1.153-.549.592-.283.3-.52.51-2.43 2.324c-.422.388-.852.835-1.289 1.168a6.2 6.2 0 0 1-1.272.769 4.663 4.663 0 0 1-2.066.413 3.961 3.961 0 0 1-1.1-.213 4.123 4.123 0 0 1-1.134-.616 3.96 3.96 0 0 1-.63-.616 4.229 4.229 0 0 1-.553-.9 4.467 4.467 0 0 1-.365-1.354 11.84 11.84 0 0 1 .009-1.784c.1-2.313.243-5.211.345-5.828a58.7 58.7 0 0 1 .884-5.906c.706-3.358 1.616-5.423 2.565-5.4s1.755 2.131 2.292 5.52a58.2 58.2 0 0 1 .588 5.943c.047 1.612.128 1.055.171 1.168a.1.1 0 0 0 .071-.046s-.078.2.16.219h.023c.008 0 0 .013.076-.046l.33-.247.65-.479 1.262-.895c.821-.569 1.6-1.079 2.337-1.525 2.934-1.78 5.062-2.531 5.694-1.823z" fill="#00aee0"/></svg></g><g transform="translate(355.0 1034.0) rotate(0.0 495.5 189.0) scale(0.9999505574396422 0.9976878978874355)"><svg width="991.049" height="378.876" viewBox="0 0 991.049 378.876"><path d="M301 120.106c-.985-50.2 53.008-64.036 158.485-65.953 108.282-1.969 147.657-40.36 231.329-48.235s118.126 128.954-52.172 163.407S302.68 205.872 301 120.106z" fill="#ffb400"/><path d="M482.125 304.185S301 315.013 170.076 245.122C111.653 213.937 58.487 165.781 27.7 120.529q-3.794-5.566-7.117-11.054A175.058 175.058 0 0 1 6.3 80.623C.674 65.64-1.383 51.82.94 40.086c2.215-11.3 8.485-20.672 19.51-27.277C60.131-11 96.769 48.433 167.123 98.45c81.7 58.078 165.376 66.938 249.048 60.047s65.954 145.688 65.954 145.688z" fill="#ffb400"/><path d="M991.049 211.653c0 11.813-40.359 74.813-105.329 121.079-47.634 33.922-131.906 50.2-140.766 45.282-6.172-3.426-32.829-46.886-48.471-73.012-2.51-4.183-4.735-7.924-6.546-10.986a11.087 11.087 0 0 0-14.017-4.488 888.756 888.756 0 0 1-91.42 34.345c-54.141 16.734-231.329 53.156-359.3-11.813S80.5 163.419 80.5 163.419l168.329 49.219 157.5 9.844-25.596-63.982S577.609 33.481 678.1 7.4s158.4 24.112 174.152 38.878 138.797 153.563 138.797 165.375z" fill="#ffb400"/><g fill="#f04e23"><path d="M610.738 172.485c.141 1.057-3.827 2.614-11.13 4.513s-17.943 4.143-31.187 6.451c-6.622 1.158-13.9 2.3-21.738 3.418-7.845 1.081-16.244 2.156-25.127 3.043s-18.23 1.683-27.964 2.16c-9.73.5-19.834.754-30.2.666-10.37-.126-20.5-.619-30.265-1.437-9.767-.785-19.155-2.062-28.053-3.5l-6.578-1.155c-2.16-.4-4.281-.863-6.375-1.287-4.193-.814-8.217-1.867-12.118-2.785-1.946-.49-3.844-1.035-5.712-1.541-1.863-.528-3.7-.987-5.478-1.565-3.553-1.132-6.983-2.117-10.187-3.305-3.214-1.147-6.281-2.2-9.12-3.388-2.845-1.164-5.543-2.2-7.993-3.364-2.461-1.134-4.751-2.173-6.823-3.213q-3.087-1.609-5.589-3c-1.672-.906-3.113-1.8-4.338-2.629s-2.249-1.543-3.049-2.177c-1.6-1.268-2.325-2.163-2.1-2.646s1.393-.532 3.389-.189c1 .171 2.2.44 3.6.8s2.994.821 4.806 1.285c1.8.484 3.791 1.049 5.951 1.692l7.07 1.945c2.511.751 5.254 1.379 8.12 2.148 2.858.793 5.929 1.464 9.124 2.242 3.183.817 6.582 1.448 10.076 2.24 1.745.408 3.556.7 5.383 1.069 1.832.345 3.688.733 5.59 1.072 3.817.615 7.731 1.382 11.812 1.934 2.036.293 4.094.628 6.191.909l6.379.811c8.626 1.007 17.7 1.943 27.145 2.5a589.2 589.2 0 0 0 29.3 1.082c10.062.085 19.9-.06 29.413-.34 9.513-.262 18.7-.753 27.464-1.228s17.1-1.072 24.913-1.591l21.768-1.522c13.331-.91 24.169-1.5 31.708-1.565s11.784.388 11.922 1.447zM380.549 321.941c-.056 1.065-4.332 1.8-12.06 2.2-3.863.183-8.592.393-14.071.194q-4.111-.1-8.784-.275l-4.8-.2c-1.644-.064-3.322-.248-5.046-.379-6.887-.627-14.464-1.132-22.529-2.408l-6.163-.882c-2.084-.326-4.219-.555-6.351-1.009l-13.192-2.582c-1.126-.237-2.27-.424-3.4-.709l-3.415-.851-6.944-1.747c-2.335-.609-4.714-1.157-7.08-1.845l-7.132-2.2-7.256-2.265c-.608-.195-1.223-.375-1.829-.585l-1.809-.666-3.637-1.344-7.349-2.734-3.7-1.4-3.658-1.577-7.284-3.16c-2.4-1.077-4.838-2.029-7.135-3.229l-13.692-6.824c-8.76-4.852-17.231-9.5-24.918-14.509-7.852-4.762-14.913-9.846-21.6-14.478-.831-.586-1.665-1.153-2.47-1.742l-2.371-1.784-4.6-3.481-8.593-6.595a654.416 654.416 0 0 1-14.261-11.943c-2.087-1.77-3.963-3.494-5.667-5.108s-3.257-3.093-4.629-4.453c-5.489-5.437-8.2-8.83-7.532-9.665s4.633.962 11.22 4.91q2.469 1.481 5.42 3.357c1.957 1.256 4.075 2.63 6.385 4.052 4.595 2.877 9.752 6.244 15.434 9.968l9.018 5.673 4.772 3.044 2.448 1.572 2.532 1.529c6.838 4.065 14 8.642 21.807 12.924 7.673 4.542 15.994 8.757 24.536 13.266l13.267 6.354c2.22 1.135 4.565 2.022 6.87 3.044q3.474 1.5 6.991 3.012l3.5 1.519 3.544 1.348 7.016 2.672 3.468 1.33 1.724.664c.577.209 1.164.388 1.743.584l6.912 2.294 6.787 2.277c2.252.72 4.521 1.309 6.745 1.966l6.614 1.91 3.25.948c1.077.319 2.172.543 3.247.818l12.6 3.12c2.032.555 4.086.895 6.084 1.336l5.913 1.246c7.728 1.782 15.055 2.891 21.7 4.193 1.666.3 3.284.657 4.878.9l4.655.745q4.527.736 8.529 1.446c5.319 1.009 9.939 1.673 13.7 2.409 7.543 1.438 11.705 2.739 11.648 3.805zM495.226 136.56c-1.032.272-2.2-.183-3.425-1.267a18.344 18.344 0 0 1-3.707-5.042 43.656 43.656 0 0 1-3.277-8.155c-.453-1.577-.9-3.244-1.236-4.993-.363-1.746-.636-3.571-.865-5.445-.2-1.878-.342-3.718-.38-5.5-.063-1.781-.006-3.5.082-5.144a43.553 43.553 0 0 1 1.36-8.682 18.371 18.371 0 0 1 2.479-5.747c.954-1.332 1.986-2.037 3.052-2s2.068.8 2.964 2.12a22.013 22.013 0 0 1 2.435 5.5 69.7 69.7 0 0 1 1.93 7.993c.3 1.493.533 3.062.788 4.684.232 1.624.469 3.3.65 5.028.211 1.723.357 3.412.5 5.047.115 1.637.237 3.219.285 4.741a69.916 69.916 0 0 1-.084 8.222 22.03 22.03 0 0 1-1.137 5.909c-.579 1.49-1.382 2.459-2.414 2.731zm20.211-2.21c-2.105.326-4.406-1.836-6.355-5.66a45.874 45.874 0 0 1-4.182-15.49 45.872 45.872 0 0 1 .869-16.019c1.111-4.146 2.913-6.74 5.039-6.857s4.193 2.239 5.865 6.088a53.7 53.7 0 0 1 3.6 15.173 53.639 53.639 0 0 1-.371 15.591c-.83 4.112-2.352 6.845-4.465 7.174z"/><path d="M174.037 204.943a4.158 4.158 0 0 1 .621 3.448 14.725 14.725 0 0 1-.643 2.339c-.3.842-.706 1.713-1.155 2.661a62.119 62.119 0 0 1-3.534 6.081c-.686 1.1-1.464 2.188-2.239 3.34-.8 1.129-1.616 2.3-2.5 3.469-.851 1.19-1.735 2.314-2.578 3.414-.872 1.08-1.685 2.144-2.531 3.123a62.082 62.082 0 0 1-4.77 5.17c-.773.708-1.487 1.353-2.2 1.888a14.746 14.746 0 0 1-2.046 1.3 4.157 4.157 0 0 1-3.477.423 3.855 3.855 0 0 1-2.015-2.881 10.256 10.256 0 0 1-.272-2.547 18.316 18.316 0 0 1 .273-3.15 32.235 32.235 0 0 1 2.334-7.6 41.275 41.275 0 0 1 2.116-4.148 44 44 0 0 1 5.92-8.02 41.283 41.283 0 0 1 3.34-3.244 32.181 32.181 0 0 1 6.573-4.469 18.315 18.315 0 0 1 2.929-1.19 10.3 10.3 0 0 1 2.514-.49 3.856 3.856 0 0 1 3.34 1.083zm12.883 30.114a6.958 6.958 0 0 1 2.322 5.989 16.493 16.493 0 0 1-8.954 13.3 6.956 6.956 0 0 1-6.423.1c-1.842-1.071-2.853-3.191-2.914-5.784a15.967 15.967 0 0 1 9.514-14.126c2.425-.924 4.769-.784 6.455.521zM378.932 97.822c-7.806-4.446-16.823-3.353-24.83-.079-5.9 2.413-10.086 7.854-8.251 14.531.017.059.043.118.06.177a17.863 17.863 0 0 0 5.1 17.356 18.734 18.734 0 0 0 6.221 3.8 23.54 23.54 0 0 0 5.536 1.663c7.1 1.216 15.963 1.613 21.341-4.083a16.936 16.936 0 0 0 4.553-12.328 19.846 19.846 0 0 0-9.73-21.037zm-334.689 14.34a15.838 15.838 0 0 1-8.929 6.891 12.824 12.824 0 0 1-7.619 1.476q-3.794-5.566-7.117-11.054A175.058 175.058 0 0 1 6.3 80.623a14.262 14.262 0 0 1 8.515-6.182h.01a13.342 13.342 0 0 1 5.9-1.723c9.873-.531 18.408 6.27 21.834 15.209.285.748.521 1.506.728 2.264 4.253 6.536 5.356 15.051.956 21.971zm673.326 163.496c-1.89 6.123-5.966 13.624-12.177 20.78a70.607 70.607 0 0 1-4.794 5.011 61.05 61.05 0 0 1-4.115 3.553c-2.51-4.183-4.735-7.924-6.546-10.986a11.088 11.088 0 0 0-10.582-5.384c.9-1.29 1.861-2.609 2.884-3.938a106.456 106.456 0 0 1 4.007-4.882c5.679-6.536 11.743-11.97 17.2-15.2 5.434-3.239 10.2-4.223 12.964-2.077s3.039 6.99 1.159 13.123z"/></g></svg></g><g transform="translate(171.0 78.0) rotate(0.0 506.5 223.5) scale(0.9992572155150219 0.99822463404013)"><svg width="1013.753" height="447.795" viewBox="0 0 1013.753 447.795"><path d="M632.39 186.986s226.524 16.188 220.24 76.45-73.978 32.79-157.216 26.8-155.163-3.738-215.733 17.2c-71.271 24.637-95.274 39.187-142.757 45.169-47.752 6.017-73.393.249-84.34 3.54-9.02 2.712-123.432 90.22-136.882 91.618-9.815 1.021-58.168-26.371-89.062-92.18-32.423-69.059-28.775-105.764-22.286-113.76s149.857-95.33 245.246-145.76c76.326-40.355 160.112-79.393 275.7-84.091 127.876-5.196 107.09 175.014 107.09 175.014z" fill="#ffb400"/><path d="M548.726 46.139S729.7 6.409 840 51.412s203.782 129.405 164.7 165.888c-35.446 33.086-85.374 3.647-177.269-45.362s-267.84-21.305-267.84-21.305z" fill="#ffb400"/><path d="M537.136 125.777c6.207-.645 223.926-38.968 307.718 2.518s143.358 81.306 95 129.21c-28.283 28.02-107.936-22.243-150.61-30.356s-196.2-16.2-196.2-16.2l-64.191-84.309z" fill="#ffb400"/><path d="M382.947 45.9S498.256 3.281 587.876.238s307.693 22.39 358.368 117.515c47.9 89.92-455.424-4.939-455.424-4.939z" fill="#ffb400"/><g fill="#f04e23"><path d="M834.348 233.441c-.5.946-4.895-.072-12.351-2.685q-2.8-.981-6.153-2.255l-7.382-2.485c-5.294-1.765-11.181-4.067-17.911-6.017l-10.446-3.315-1.365-.438-1.4-.38-2.84-.774-5.829-1.606c-7.848-2.363-16.428-4.192-25.364-6.386l-1.683-.405-1.712-.335-3.451-.682-7.015-1.4c-2.364-.465-4.742-.986-7.161-1.426l-7.355-1.188-7.48-1.229-3.786-.62-3.84-.483-15.62-2-15.687-1.49c-2.575-.293-5.146-.423-7.695-.582l-7.58-.484-7.45-.48-7.323-.244-7.169-.252c-2.364-.089-4.7-.2-7.014-.184l-13.518-.12-3.265-.042-3.215.058-6.281.1c-4.119.087-8.106.044-11.932.19l-11.012.385c-7.033.122-13.376.58-18.978.759l-7.815.249q-3.6.178-6.58.251c-7.929.19-12.419-.2-12.585-1.254s4.014-2.674 11.763-4.707q2.906-.762 6.468-1.6c2.374-.525 4.969-1 7.758-1.526 5.582-1 11.942-2.235 19.039-3.064l11.139-1.4c3.877-.466 7.931-.724 12.124-1.093l6.4-.51 3.28-.25 3.336-.143 13.834-.535c2.368-.119 4.767-.095 7.195-.092l7.366.019 7.525.041c2.532.072 5.088.208 7.668.317l7.807.361c2.624.124 5.27.227 7.927.5l16.172 1.456c5.444.667 10.813 1.425 16.107 2.14l3.954.544c1.309.213 2.607.463 3.9.693l7.7 1.405 7.562 1.4c2.487.518 4.932 1.124 7.36 1.678l7.193 1.69 3.534.838 1.75.418 1.722.489c9.145 2.647 17.865 5.013 25.8 7.984l5.875 2.074 2.853 1.017 1.4.5 1.369.564 10.409 4.362c6.663 2.672 12.417 5.748 17.5 8.318 2.528 1.316 4.892 2.506 7.013 3.715q3.141 1.9 5.687 3.529c6.78 4.345 10.248 7.176 9.754 8.117zM543.1 122.189c-.092-.526 1.35-1.294 4.188-2.276a128.569 128.569 0 0 1 12.577-3.476c5.5-1.329 12.275-2.687 20.171-4.139a1094.65 1094.65 0 0 1 12.682-2.105c4.5-.65 9.263-1.369 14.275-2.014 5.016-.6 10.267-1.316 15.761-1.842l8.4-.854 8.737-.733c2.965-.256 5.982-.486 9.053-.664l9.356-.576c6.34-.274 12.865-.6 19.572-.7 13.409-.269 27.517-.217 42.169.656 3.662.212 7.36.525 11.086.792 3.726.282 7.484.745 11.269 1.12 7.5.849 14.99 1.816 22.639 2.85 15.262 2.077 30.167 4.389 44.516 7.179 14.349 2.763 28.148 6 41.148 9.876l4.837 1.48 4.753 1.572c3.158 1.036 6.168 2.138 9.181 3.233 6 2.212 11.788 4.5 17.32 6.9a215.737 215.737 0 0 1 29.862 15.6 124.988 124.988 0 0 1 22.006 17.465 74.018 74.018 0 0 1 12.787 17.139 45.212 45.212 0 0 1 4.616 12.66c.513 3.044.386 4.692-.106 4.821-.538.144-1.422-1.228-2.828-3.772a89.205 89.205 0 0 0-6.769-10.5 84.9 84.9 0 0 0-13.567-14.005 135.752 135.752 0 0 0-21.7-14.4 238.82 238.82 0 0 0-29.13-13.139c-5.4-2.051-11.061-4.016-16.941-5.935-2.935-.942-5.956-1.928-8.976-2.8l-4.566-1.348-4.665-1.273c-12.546-3.346-25.976-6.192-40.032-8.69-14.049-2.525-28.73-4.7-43.824-6.75-7.532-1.018-15.055-2.016-22.371-2.9-3.635-.384-7.226-.863-10.821-1.172s-7.159-.643-10.7-.9c-14.179-1.049-27.957-1.4-41.09-1.526-6.568-.1-12.981.013-19.214.045l-9.213.2c-3.025.047-6 .141-8.929.255l-8.633.3-8.317.388c-5.442.206-10.654.582-15.641.83l-14.219.9-12.688.908-20.353 1.513c-5.606.341-9.964.62-12.959.6s-4.616-.268-4.709-.793zm-4-73c-.112-.522 1.089-1.291 3.492-2.28a86.822 86.822 0 0 1 10.72-3.478c2.359-.617 4.98-1.356 7.878-1.981s6.05-1.317 9.45-2l10.931-1.915c3.884-.566 7.994-1.175 12.318-1.741 8.654-1.041 18.162-2.035 28.394-2.662 10.23-.722 21.179-1.04 32.7-1.178 11.524-.06 23.621.184 36.146.788 12.521.664 25.47 1.648 38.693 3.068a716.812 716.812 0 0 1 38.456 5.313c12.361 2.138 24.24 4.466 35.475 7.072 11.229 2.631 21.845 5.37 31.672 8.341 9.849 2.877 18.9 6 27.1 8.983 4.093 1.518 7.952 3.079 11.608 4.517a738.862 738.862 0 0 1 10.2 4.4c3.153 1.452 6.057 2.871 8.726 4.171 2.677 1.28 5.043 2.644 7.19 3.8a83.031 83.031 0 0 1 9.571 5.97c2.091 1.544 3.067 2.582 2.831 3.061s-1.672.376-4.175-.251-6.045-1.831-10.641-3.268c-2.3-.72-4.788-1.647-7.582-2.5l-9.017-2.915-10.4-3.2-11.7-3.39c-8.237-2.261-17.257-4.712-27.035-6.995-9.75-2.375-20.25-4.594-31.319-6.791-11.078-2.173-22.764-4.155-34.9-6.049a1015.45 1015.45 0 0 0-37.727-4.9c-12.961-1.392-25.643-2.463-37.906-3.317a985.987 985.987 0 0 0-35.4-1.665c-11.29-.25-22.03-.414-32.075-.256-10.051.064-19.4.414-27.949.745l-12.186.625-10.869.708-17.434 1.341c-4.81.3-8.541.619-11.126.6s-3.998-.249-4.11-.771z"/><path d="M667.142 248.87c-1.065.07-2.113-.719-3.1-2.293a12.781 12.781 0 0 1-1.348-2.928 23.512 23.512 0 0 1-1.012-4q-.189-1.12-.342-2.357c-.1-.823-.122-1.675-.164-2.565a44.277 44.277 0 0 1 .145-5.672c.075-1 .241-2.007.386-3.045l.245-1.57.344-1.579a50.489 50.489 0 0 1 4.529-12.663q.37-.726.736-1.439l.806-1.37c.546-.894 1.057-1.779 1.632-2.6a44.288 44.288 0 0 1 3.486-4.478c.6-.661 1.156-1.3 1.753-1.879s1.188-1.108 1.759-1.606a23.519 23.519 0 0 1 3.317-2.447 12.775 12.775 0 0 1 2.9-1.41c1.76-.592 3.071-.537 3.849.193s.962 2.057.681 3.767a29.426 29.426 0 0 1-.705 2.88c-.312 1.069-.765 2.183-1.2 3.443q-.342.931-.751 1.906l-.8 2.045-1.785 4.4c-.321.762-.6 1.569-.925 2.365l-.5 1.206-.457 1.248c-.667 1.656-1.257 3.4-1.938 5.161-.589 1.792-1.24 3.516-1.775 5.219q-.22.635-.438 1.256l-.382 1.246c-.25.824-.55 1.622-.785 2.415l-1.409 4.534-.681 2.085q-.3 1.013-.629 1.95c-.464 1.249-.821 2.4-1.257 3.422s-.857 1.923-1.281 2.674c-.856 1.505-1.839 2.416-2.904 2.486zm30.095-22.813a4.464 4.464 0 0 1-2.872-1.485 9.093 9.093 0 0 1-1.989-3.7 17.134 17.134 0 0 1-.627-5.428 22.048 22.048 0 0 1 .345-3.131 23.506 23.506 0 0 1 2.113-6.373 21.815 21.815 0 0 1 1.594-2.718 17.105 17.105 0 0 1 3.744-3.978 9.1 9.1 0 0 1 3.807-1.781 4.461 4.461 0 0 1 3.19.524 5.055 5.055 0 0 1 1.989 2.538 11.577 11.577 0 0 1 .692 3.8 23.152 23.152 0 0 1-.358 4.571c-.125.811-.321 1.627-.519 2.469a33.363 33.363 0 0 1-.751 2.548c-.272.865-.6 1.69-.919 2.491-.345.794-.675 1.565-1.059 2.29a23.093 23.093 0 0 1-2.443 3.879 11.6 11.6 0 0 1-2.826 2.637 5.054 5.054 0 0 1-3.111.847zm59.236-83.357a4.274 4.274 0 0 1-2.455-2.146 7.228 7.228 0 0 1-.715-1.911 11.065 11.065 0 0 1-.294-2.383 17.983 17.983 0 0 1 .892-5.794 22.755 22.755 0 0 1 1.275-3.157 24.3 24.3 0 0 1 4.115-5.993 22.943 22.943 0 0 1 2.49-2.323 17.994 17.994 0 0 1 5.087-2.912 10.983 10.983 0 0 1 2.331-.581 7.205 7.205 0 0 1 2.039-.019 4.271 4.271 0 0 1 2.885 1.519 4.977 4.977 0 0 1 .966 3.1 10.99 10.99 0 0 1-.175 1.879 17.411 17.411 0 0 1-.52 2.025 28.075 28.075 0 0 1-1.872 4.34c-.378.758-.83 1.493-1.277 2.267-.471.754-.949 1.533-1.494 2.293-.514.782-1.07 1.508-1.605 2.218-.561.695-1.085 1.381-1.657 2a27.987 27.987 0 0 1-3.378 3.306 17.559 17.559 0 0 1-1.7 1.212 10.906 10.906 0 0 1-1.691.838 4.973 4.973 0 0 1-3.247.222zm25.152 9.517a4.378 4.378 0 0 1-2.866-1.517 7.123 7.123 0 0 1-1.123-1.645 10.745 10.745 0 0 1-.829-2.171 17.348 17.348 0 0 1-.508-5.606 22.138 22.138 0 0 1 .451-3.226 23.6 23.6 0 0 1 2.41-6.517 22.105 22.105 0 0 1 1.757-2.743 17.347 17.347 0 0 1 4.033-3.927 10.7 10.7 0 0 1 2.042-1.109 7.118 7.118 0 0 1 1.923-.519 4.38 4.38 0 0 1 3.164.713 5.043 5.043 0 0 1 1.8 2.685 10.4 10.4 0 0 1 .364 1.821 15.857 15.857 0 0 1 .069 2.048 25.057 25.057 0 0 1-.616 4.575c-.163.81-.4 1.618-.633 2.457-.256.829-.52 1.681-.852 2.53-.3.861-.654 1.679-1 2.475-.37.789-.715 1.557-1.118 2.278a25.019 25.019 0 0 1-2.509 3.875 16.1 16.1 0 0 1-1.384 1.511 10.463 10.463 0 0 1-1.462 1.146 5.044 5.044 0 0 1-3.113.866zm25.068-55.367a3.974 3.974 0 0 1-2.67-2.1 8.929 8.929 0 0 1-.908-2.139 15.006 15.006 0 0 1-.542-2.764 25.888 25.888 0 0 1 .264-7 33.205 33.205 0 0 1 .924-3.981 35.559 35.559 0 0 1 3.459-8.028 33.257 33.257 0 0 1 2.26-3.406 25.923 25.923 0 0 1 4.9-5 15.039 15.039 0 0 1 2.382-1.5 8.9 8.9 0 0 1 2.178-.808 3.975 3.975 0 0 1 3.36.5 4.36 4.36 0 0 1 1.516 3.028 12.429 12.429 0 0 1 .06 2.19 22.842 22.842 0 0 1-.32 2.537 43.987 43.987 0 0 1-1.572 5.872c-.334 1.058-.752 2.125-1.16 3.239-.436 1.1-.877 2.237-1.389 3.376-.476 1.154-1 2.256-1.5 3.328-.529 1.062-1.017 2.1-1.557 3.068a44.156 44.156 0 0 1-3.188 5.176 23.032 23.032 0 0 1-1.625 1.975 12.437 12.437 0 0 1-1.633 1.46 4.355 4.355 0 0 1-3.239.977zm3.276 160.173c-2.769 7.066-15.373 8.734-28.152 3.725s-20.893-14.8-18.124-21.862 15.373-8.733 28.152-3.725 20.893 14.796 18.124 21.862zM932.6 208.84c-2.269 3.056-6.816 3.93-12.287 3.163a58.191 58.191 0 0 1-33.3-19.525c-3.342-4.4-4.8-8.793-3.242-12.266 1.548-3.45 5.9-5.291 11.785-5.188a35.944 35.944 0 0 1 9.7 1.645 47.092 47.092 0 0 1 5.283 1.971 51.771 51.771 0 0 1 10.356 6.071 47.13 47.13 0 0 1 4.3 3.648 35.875 35.875 0 0 1 6.176 7.664c2.963 5.077 3.484 9.777 1.229 12.817zm42.924-55.711a11.034 11.034 0 0 1-5.113 2.279 18.983 18.983 0 0 1-2.906.28 24.922 24.922 0 0 1-3.015-.16 29.635 29.635 0 0 1-6.114-1.417c-1.033-.325-2.016-.767-3.039-1.2a38.1 38.1 0 0 1-5.84-3.379c-.886-.67-1.759-1.3-2.556-2.036a29.619 29.619 0 0 1-4.276-4.594 25.041 25.041 0 0 1-1.642-2.534 19.115 19.115 0 0 1-1.206-2.659 11.038 11.038 0 0 1-.572-5.568 8.6 8.6 0 0 1 2.723-4.911 10.837 10.837 0 0 1 2.642-1.8 14.646 14.646 0 0 1 3.408-1.206 22 22 0 0 1 8.559-.142 27.4 27.4 0 0 1 4.757 1.271 29.133 29.133 0 0 1 9.066 5.247 27.482 27.482 0 0 1 3.473 3.489 22.007 22.007 0 0 1 4.143 7.492 14.645 14.645 0 0 1 .653 3.556 10.8 10.8 0 0 1-.246 3.188 8.61 8.61 0 0 1-2.899 4.804z"/></g></svg></g><g transform="translate(702.0 400.0) rotate(0.0 64.5 66.5) scale(0.13365659579758796 0.1330051872023009)"><svg width="965.16" height="999.961" viewBox="0 0 965.16 999.961"><g fill="#ffb400"><path d="M824.277 886.836c-.611-.684-.289-2.199.864-4.438.576-1.119 1.36-2.42 2.34-3.889.988-1.46 2.159-3.102 3.452-4.965a197.9 197.9 0 0 1 4.456-6.009c1.63-2.183 3.363-4.581 5.282-7.087 1.947-2.48 3.878-5.261 6.016-8.111 2.164-2.829 4.298-5.939 6.605-9.136 2.348-3.162 4.591-6.643 7.056-10.15 1.246-1.744 2.399-3.612 3.632-5.467l3.73-5.686 3.724-5.966c.628-1.011 1.283-2.015 1.906-3.05l1.859-3.145c1.243-2.115 2.543-4.232 3.802-6.415l3.754-6.674c1.304-2.229 2.48-4.57 3.734-6.898 1.234-2.339 2.539-4.672 3.715-7.107l3.678-7.314 3.557-7.549a474.22 474.22 0 0 0 13.394-32.04 475.044 475.044 0 0 0 10.777-33.012l2.234-8.04 1.991-7.941c.699-2.612 1.234-5.231 1.827-7.809.57-2.582 1.207-5.123 1.675-7.662l1.515-7.506c.472-2.475.87-4.928 1.309-7.341l.645-3.596c.203-1.192.363-2.379.548-3.555l1.075-6.951.888-6.742c.277-2.21.624-4.378.819-6.512.424-4.266.997-8.366 1.284-12.294.34-3.927.755-7.677.963-11.232.241-3.555.595-6.922.739-10.072.183-3.151.436-6.098.627-8.816.153-2.715.336-5.208.549-7.461.237-2.256.422-4.264.627-6.015.217-1.752.472-3.249.767-4.473.589-2.448 1.334-3.805 2.244-3.925s1.941 1.004 3.074 3.282c.567 1.139 1.159 2.565 1.773 4.268a57.094 57.094 0 0 1 1.818 5.931 202.238 202.238 0 0 1 1.787 7.524c.568 2.765 1.051 5.787 1.58 9.043.568 3.256.901 6.754 1.319 10.474.45 3.72.666 7.661.923 11.811.311 4.152.302 8.5.406 13.044.069 2.274-.023 4.585-.056 6.948-.055 2.36-.082 4.769-.183 7.216l-.432 7.458c-.082 1.263-.143 2.54-.25 3.821l-.364 3.869c-.258 2.598-.484 5.241-.797 7.909l-1.072 8.098c-.333 2.741-.846 5.486-1.305 8.274-.482 2.785-.918 5.613-1.531 8.437l-1.771 8.58-2.093 8.685a357.695 357.695 0 0 1-11.017 35.541 358.054 358.054 0 0 1-14.863 34.112l-4.086 7.944-4.261 7.655c-1.379 2.539-2.897 4.966-4.349 7.389-1.474 2.412-2.877 4.826-4.415 7.119l-4.475 6.834c-1.506 2.225-3.06 4.375-4.561 6.511l-2.251 3.168c-.756 1.04-1.543 2.046-2.306 3.057l-4.543 5.931c-1.521 1.918-3.074 3.761-4.573 5.584-1.518 1.81-2.957 3.621-4.494 5.298-3.046 3.374-5.879 6.673-8.825 9.615-2.904 2.975-5.641 5.82-8.411 8.343-2.745 2.544-5.282 4.976-7.838 7.072-2.527 2.12-4.866 4.093-7.102 5.817a200.51 200.51 0 0 1-6.266 4.532 56.929 56.929 0 0 1-5.25 3.305c-1.577.888-2.957 1.582-4.13 2.074-2.343.985-3.858 1.163-4.469.478zm-551.953 101.58c-.213 1.822-3.813 3.057-10.304 3.7a98.434 98.434 0 0 1-5.397.371c-1.964.039-4.078-.073-6.362-.174-4.553-.27-9.801-.5-15.45-1.534-2.84-.453-5.818-.959-8.921-1.518-1.564-.241-3.101-.68-4.693-1.053l-4.847-1.213-5.015-1.298c-.847-.23-1.711-.435-2.562-.696l-2.556-.836a788.903 788.903 0 0 1-10.583-3.569c-14.301-5.382-29.58-12.655-44.553-22.081-14.883-9.568-27.945-20.325-38.88-30.998a786.303 786.303 0 0 1-7.718-8.073l-1.841-1.961c-.597-.661-1.149-1.357-1.716-2.026l-3.301-3.992-3.152-3.877c-1.012-1.284-2.062-2.49-2.942-3.804a453.286 453.286 0 0 1-5.155-7.438c-3.331-4.679-5.763-9.335-7.937-13.344-1.059-2.026-2.057-3.893-2.854-5.689a98.654 98.654 0 0 1-1.951-5.046c-2.167-6.152-2.575-9.936-1.015-10.901s4.931.957 9.597 5.125a96.342 96.342 0 0 1 3.736 3.541c1.361 1.289 2.89 2.643 4.445 4.149 3.166 2.972 6.44 6.562 10.451 10.177a413.818 413.818 0 0 1 6.044 5.839c1.006 1.048 2.174 1.991 3.291 3.012l3.435 3.092 3.515 3.22c.597.542 1.176 1.11 1.798 1.645l1.907 1.585a672.505 672.505 0 0 1 7.811 6.623c10.887 8.81 23.162 18.003 36.698 26.716 13.628 8.568 27.157 15.791 39.75 21.919a654.082 654.082 0 0 1 9.309 4.269l2.244 1.055c.748.336 1.508.62 2.252.931l4.406 1.82 4.257 1.8c1.398.579 2.747 1.237 4.123 1.704a421.464 421.464 0 0 1 7.85 3.001c4.974 2.101 9.613 3.545 13.647 5.153 2.023.77 3.898 1.582 5.642 2.268a95.684 95.684 0 0 1 4.791 1.883c5.749 2.463 8.919 4.701 8.706 6.523zm521.507 9.343c-.244-.884.363-1.997 1.714-3.298.676-.65 1.538-1.347 2.574-2.087 1.038-.731 2.247-1.516 3.597-2.406 5.451-3.396 13.359-7.808 22.813-13.447 2.388-1.357 4.796-2.958 7.355-4.494 2.541-1.573 5.129-3.299 7.829-5.021 2.638-1.837 5.439-3.592 8.191-5.61l4.226-2.992 4.267-3.169c11.481-8.599 23.419-18.867 35.01-30.59 11.52-11.794 21.579-23.908 29.978-35.536l3.095-4.322 2.918-4.277c1.97-2.787 3.676-5.618 5.467-8.287 1.675-2.73 3.356-5.347 4.885-7.915 1.491-2.584 3.05-5.02 4.366-7.432 5.474-9.55 9.748-17.533 13.049-23.043.866-1.365 1.631-2.587 2.343-3.638.721-1.049 1.404-1.922 2.042-2.609 1.277-1.373 2.379-1.999 3.268-1.771.888.228 1.521 1.302 1.904 3.166.191.931.32 2.06.388 3.378a33.717 33.717 0 0 1-.05 4.493c-.345 6.711-2.095 16.215-5.735 27.576-.858 2.864-1.999 5.763-3.122 8.828-1.159 3.046-2.515 6.153-3.915 9.381-1.514 3.164-2.995 6.501-4.787 9.79-.879 1.655-1.751 3.349-2.691 5.033l-2.944 5.072c-4.097 6.774-8.67 13.755-13.977 20.567a230.11 230.11 0 0 1-17.527 20.173 229.876 229.876 0 0 1-19.867 17.874c-6.719 5.425-13.619 10.117-20.321 14.332l-5.02 3.031c-1.667.969-3.347 1.87-4.986 2.778-3.258 1.849-6.569 3.386-9.706 4.956-3.203 1.456-6.285 2.866-9.311 4.077-3.045 1.175-5.924 2.367-8.772 3.275-11.296 3.837-20.769 5.752-27.473 6.213-1.664.155-3.17.18-4.492.128-1.319-.045-2.45-.154-3.384-.329-1.87-.35-2.955-.964-3.199-1.848zM633.936 113.434c-.35.848-1.853 1.219-4.37 1.157-1.259-.031-2.771-.17-4.52-.411-1.745-.252-3.733-.591-5.974-.943-2.232-.375-4.687-.84-7.35-1.391-2.675-.516-5.588-1.03-8.68-1.665-3.081-.672-6.425-1.197-9.922-1.879-3.489-.714-7.219-1.28-11.101-1.962-3.87-.735-7.979-1.236-12.211-1.926-2.112-.361-4.296-.584-6.503-.886l-6.744-.879-6.993-.751c-1.184-.125-2.372-.276-3.576-.386l-3.641-.303c-2.445-.197-4.918-.444-7.431-.625l-7.643-.469c-2.575-.202-5.194-.24-7.836-.354-2.643-.09-5.312-.248-8.016-.246l-8.186-.122-8.344.089a474.47 474.47 0 0 0-34.674 1.911 474.293 474.293 0 0 0-34.408 4.69l-8.21 1.494-8.015 1.67c-2.656.509-5.246 1.17-7.825 1.76-2.572.612-5.137 1.147-7.627 1.832l-7.416 1.908c-2.433.654-4.814 1.366-7.178 2.022l-3.518.987c-1.161.336-2.299.71-3.438 1.057l-6.724 2.062-6.455 2.14c-2.11.714-4.212 1.347-6.218 2.101-4.025 1.478-7.964 2.749-11.625 4.204-3.683 1.406-7.238 2.667-10.529 4.029-3.305 1.333-6.489 2.482-9.387 3.725-2.916 1.209-5.678 2.265-8.207 3.278a198.992 198.992 0 0 1-6.954 2.759c-2.134.77-4.021 1.479-5.687 2.057-1.672.569-3.13.991-4.36 1.26-2.46.537-4.006.458-4.51-.308s.058-2.184 1.614-4.197c.778-1.006 1.803-2.161 3.068-3.456a56.932 56.932 0 0 1 4.546-4.221 201.64 201.64 0 0 1 5.993-4.888c2.241-1.716 4.75-3.469 7.45-5.364 2.683-1.93 5.686-3.755 8.851-5.752 3.152-2.027 6.605-3.939 10.228-5.979 3.601-2.089 7.518-3.976 11.563-6.051 2.017-1.053 4.137-1.978 6.277-2.978 2.148-.979 4.328-2.005 6.574-2.981l6.9-2.862c1.173-.477 2.348-.979 3.548-1.441l3.641-1.359c2.45-.901 4.928-1.848 7.466-2.73l7.756-2.565c2.612-.895 5.306-1.629 8.016-2.432 2.716-.78 5.452-1.621 8.261-2.3l8.494-2.146 8.728-1.902a358.04 358.04 0 0 1 36.789-5.577 358.037 358.037 0 0 1 37.18-1.492l8.931.214 8.747.499c2.886.135 5.732.442 8.546.694 2.813.275 5.597.486 8.331.87l8.101 1.049c2.659.385 5.272.847 7.848 1.267l3.833.645c1.265.227 2.514.497 3.757.743l7.318 1.503c2.39.533 4.725 1.127 7.019 1.682 2.291.577 4.548 1.083 6.727 1.735 4.364 1.271 8.568 2.382 12.5 3.751 3.943 1.317 7.697 2.54 11.175 3.933 3.486 1.361 6.781 2.585 9.781 3.971 3.01 1.35 5.805 2.595 8.331 3.856a202.157 202.157 0 0 1 6.81 3.664 56.98 56.98 0 0 1 5.263 3.284c1.487 1.032 2.713 1.972 3.667 2.813 1.908 1.68 2.728 2.966 2.378 3.814zm113.102-20.948c-.69.605-1.956.544-3.716-.105-.88-.325-1.883-.797-3-1.407-1.111-.616-2.344-1.361-3.733-2.188-5.433-3.426-12.85-8.62-22.046-14.67-2.262-1.558-4.753-3.027-7.251-4.66-2.523-1.601-5.205-3.178-7.931-4.858-2.803-1.573-5.603-3.329-8.619-4.927l-4.535-2.499-4.712-2.459c-12.743-6.585-27.188-12.853-42.791-18.176-15.636-5.227-30.923-9-45.049-11.491l-5.239-.902-5.121-.762c-3.367-.558-6.658-.859-9.842-1.308-3.187-.318-6.275-.689-9.253-.946-2.976-.216-5.848-.557-8.591-.69-10.981-.764-20.029-1.131-26.426-1.7-1.606-.185-3.039-.34-4.296-.523-1.258-.192-2.342-.425-3.238-.701-1.793-.551-2.837-1.27-3.018-2.169-.182-.899.509-1.936 2.019-3.093.755-.578 1.715-1.186 2.871-1.821a33.704 33.704 0 0 1 4.066-1.913c6.19-2.615 15.507-5.183 27.319-6.858 2.951-.476 6.058-.712 9.305-1.038 3.247-.285 6.634-.418 10.149-.565 3.508-.016 7.156-.139 10.898.041 1.872.07 3.777.116 5.703.228l5.848.438c7.882.735 16.158 1.807 24.602 3.614a229.974 229.974 0 0 1 25.796 6.981 229.944 229.944 0 0 1 24.747 10.089c7.811 3.683 15.042 7.848 21.756 12.042l4.916 3.197c1.599 1.078 3.142 2.197 4.673 3.276 3.084 2.126 5.911 4.436 8.691 6.575 2.706 2.248 5.319 4.408 7.728 6.603 2.385 2.228 4.713 4.3 6.771 6.468 8.377 8.494 14.23 16.185 17.567 22.017a33.917 33.917 0 0 1 2.073 3.987c.535 1.207.929 2.272 1.179 3.19.499 1.834.419 3.078-.27 3.683zM12.424 635.392c-1.827.161-3.798-2.962-5.802-8.85a91.438 91.438 0 0 1-1.507-4.923c-.475-1.808-.882-3.784-1.316-5.912-.827-4.258-1.764-9.132-2.28-14.552a425.291 425.291 0 0 1-.844-8.523c-.255-2.969-.332-6.059-.474-9.265-.34-6.418-.184-13.268-.007-20.492a322.17 322.17 0 0 1 5.453-46.66 321.987 321.987 0 0 1 12.518-45.279c2.556-6.759 4.991-13.164 7.723-18.981 1.339-2.917 2.574-5.751 3.928-8.405a429.953 429.953 0 0 1 3.991-7.578c2.519-4.826 5.222-8.99 7.591-12.622 1.204-1.808 2.325-3.485 3.445-4.982a90.142 90.142 0 0 1 3.25-3.993c4.073-4.7 7.075-6.851 8.707-6.014 1.632.838 1.748 4.575.603 10.524a89.52 89.52 0 0 1-1.093 4.868c-.415 1.766-.845 3.691-1.373 5.721-1.019 4.078-2.434 8.584-3.75 13.646a402.314 402.314 0 0 1-2.253 7.848c-.798 2.718-1.5 5.588-2.334 8.513-1.721 5.833-3.256 12.148-5.049 18.716-3.328 13.218-6.764 27.745-9.822 43.117-2.955 15.392-5.243 30.144-7.137 43.642-.813 6.76-1.769 13.187-2.37 19.24-.329 3.024-.759 5.948-1.043 8.765a404.837 404.837 0 0 1-.869 8.119c-.687 5.185-1.073 9.892-1.665 14.054-.275 2.08-.602 4.024-.882 5.817a89.48 89.48 0 0 1-.821 4.922c-1.176 5.939-2.691 9.357-4.518 9.519zm117.3 179.68c-42.767-56.79-62.4-128.897-64.768-201.815-7.884-242.879 193.264-454.129 435.895-458.186 102.38-1.712 204.864 33.805 284.623 97.934 78.457 63.081 110.761 172.982 111.888 270.272 1.657 143.137-71.417 283.79-190.275 363.827-158.323 106.612-382.835 94.058-531.093-24.342-17.731-14.162-33.098-30.2-46.27-47.69z"/></g></svg></g></svg>