<?xml version="1.0" encoding="UTF-8"?><svg version="1.1" xmlns="http://www.w3.org/2000/svg" xmlns:xlink="http://www.w3.org/1999/xlink" viewBox="0 0 1500 1500" width="1500" height="1500" x="0px" y="0px">
    
    
    <!-- ITEM 0 -->
    <g>
        <defs>
            <clipPath id="clip-path-id-viewbox-item-0">
                <rect x="0.0" y="0.0" width="222.626" height="188.31"/>
            </clipPath>
        </defs>
        <g transform="translate(795.0 1043.0) rotate(0.0 209.5 177.0) scale(1.882080260167276 1.8798789230524136)">
            <g clip-path="url(#clip-path-id-viewbox-item-0)" transform="translate(-0.0 -0.0)">
                <title>ac_plug</title><g id="Layer_2-i0" data-name="Layer 2"><g id="ac_plug-i0"><path d="M84.423,188.31h-.34c-4.3-.18-6.64-3.64-8.33-6.54-2.35,2.38-5.47,5.15-9.67,4.26s-5.95-4.7-7.13-7.84c-2.72,1.95-6.27,4.16-10.26,2.57s-5.08-5.68-5.71-9c-3,1.44-7,3-10.62.69s-4-6.65-3.92-10.07c-3.32.78-7.57,1.55-10.69-1.6s-2.32-7.58-1.46-10.95c-3.48-.13-7.94-.49-10.1-4.54s.09-8.14,2-11.13c-3.3-1.33-7.53-3.22-8.13-7.94-.61-4.88,3.34-7.77,6.22-9.88.57-.42,1.36-1,1.83-1.4a6,6,0,0,1,11.64,2.47c-.21,3-2.06,5.16-4.1,6.86,2.4,1.14,4.73,2.74,5.67,5.63s-.06,5.71-1.4,8.09c2.76.24,5.65,1,7.57,3.5s1.76,5.74,1.15,8.53c2.85-.56,6-.72,8.62,1.38s3.18,5.33,3.23,8.27c2.73-1.19,5.84-2.1,9-.51s4.22,4.69,4.84,7.61c2.49-1.69,5.43-3.18,8.82-2.16s5,3.92,6.13,6.71c2.17-2.09,4.82-4.07,8.35-3.63s5.59,3,7.16,5.6c1.79-2.43,4.07-4.82,7.61-5s6,2,8,4.27c1.33-2.69,3.15-5.42,6.59-6.19s6.2.89,8.55,2.72c.8-2.86,2.08-5.85,5.28-7.26s6.23-.32,8.87,1c.23-3,.9-6.13,3.75-8.13s6.06-1.53,8.9-.73c-.35-3-.31-6.21,2.11-8.74s5.7-2.67,8.67-2.42c-.91-2.87-1.47-6.11.48-9.06s5.22-3.66,8.22-3.92c-1.38-2.72-2.5-5.87-1-9.14s4.67-4.45,7.64-5.16c-1.77-2.53-3.35-5.54-2.27-9s4.13-5.06,7-6.14c-2.08-2.33-4-5.17-3.34-8.82a6,6,0,0,1,11.84.31c.4.49,1,1.18,1.51,1.68,2.33,2.49,5.52,5.89,4.42,10.36-1,4.07-4.7,5.75-7.82,6.87,1.93,2.65,4.08,6.1,2.61,10s-5.44,5.17-8.7,5.89c1.57,2.92,3.27,6.67,1.22,10.38s-6.2,4.35-9.56,4.58c1.09,3.15,2.19,7.18-.48,10.54s-6.92,3.24-10.29,2.88c.5,3.33.87,7.53-2.41,10.36s-7.45,1.87-10.69.87c-.16,3.37-.61,7.59-4.41,9.72s-7.66.37-10.64-1.25c-.82,3.27-2.09,7.31-6.23,8.66s-7.55-1.11-10.15-3.27c-1.42,3.06-3.43,6.76-7.72,7.32s-7.18-2.45-9.35-5C91.053,185.15,88.523,188.31,84.423,188.31Z" fill="#00aee0"/><path d="M85.593,183.85a2,2,0,0,1-1.187-3.615l.007-.005a12.917,12.917,0,0,0,2.09-2.52,2,2,0,0,1,3.28,2.28,14.435,14.435,0,0,1-3,3.48A2,2,0,0,1,85.593,183.85Zm15.71-.28a5.07,5.07,0,0,1-3.38-1.58,2.015,2.015,0,0,1,2.69-3,3.206,3.206,0,0,0,.6.47h0a2,2,0,1,1,2.91,2.75h0a4.077,4.077,0,0,1-2.38,1.31,3.425,3.425,0,0,1-.44.05Zm-29.69-4.16a2,2,0,0,1-1.43-3.4,35.4,35.4,0,0,1,3.05-2.9,2.005,2.005,0,0,1,2.52,3.12,34.1,34.1,0,0,0-2.68,2.56A2,2,0,0,1,71.613,179.41Zm44.33-.25a2.006,2.006,0,0,1-1.05-.3,26,26,0,0,1-3-2.32l-.33-.27a2,2,0,1,1,2.57-3.07h0l.33.28a25.5,25.5,0,0,0,2.55,2,2,2,0,0,1-1,3.71Zm-54.87-3.29a2,2,0,0,1-1.63-.84,3,3,0,0,0-.65-.73,1.265,1.265,0,0,0-.3.09,2,2,0,0,1-1.549-3.688c.036-.015.072-.029.109-.042a4.9,4.9,0,0,1,1.8-.37,5.207,5.207,0,0,1,1,.15,5.579,5.579,0,0,1,2.8,2.27,2,2,0,0,1-1.63,3.16Zm-14.32-1.64a2,2,0,0,1-2-1.64l-.08-.44a23.728,23.728,0,0,0-.7-3.14,2,2,0,1,1,3.79-1.28,26.16,26.16,0,0,1,.85,3.71l.07.44a2,2,0,0,1-1.53,2.35Zm81.38-3.27a1.944,1.944,0,0,1-1-.25,15.637,15.637,0,0,0-3.08-1.43,2,2,0,1,1,.716-3.935,1.878,1.878,0,0,1,.194.045,17.335,17.335,0,0,1,4.1,1.82,2,2,0,0,1-1,3.75Zm-95.47-1a2,2,0,0,1-1.93-1.48,14.169,14.169,0,0,1-.34-3.55V164a2,2,0,0,1,2-2h0a2,2,0,0,1,2,2v.89a11.331,11.331,0,0,0,.2,2.5,2,2,0,0,1-1.41,2.45,1.865,1.865,0,0,1-.43.14Zm103.09-6.18h-.37a2,2,0,0,1-1.59-2.339h0a5,5,0,0,1,1.84-3.38,4.319,4.319,0,0,1,2.72-.68,2,2,0,0,1-.18,4h-.24a4.424,4.424,0,0,0-.21.8A2,2,0,0,1,135.753,163.78Zm-114-2.71a3.85,3.85,0,0,1-4.211-3.452,3.894,3.894,0,0,1-.009-.648,2,2,0,0,1,4,0v.16h.49a2,2,0,1,1,.23,4Zm126.82-3.49a2,2,0,0,1-2-1.69l-.06-.37a26.465,26.465,0,0,1-.42-3.85,2,2,0,0,1,2-2h0a2,2,0,0,1,2,2,23.636,23.636,0,0,0,.37,3.25l.06.37a2,2,0,0,1-1.66,2.29,1.756,1.756,0,0,1-.34,0Zm11.94-8.63a2,2,0,0,1-2-1.86,15.77,15.77,0,0,0-.92-3.28,2,2,0,1,1,3.78-1.33,17.612,17.612,0,0,1,1.13,4.33,2,2,0,0,1-1.86,2.13Zm-145.25-1.1h-.21a23.91,23.91,0,0,1-4.18-.38,2,2,0,1,1,.89-3.9,21.781,21.781,0,0,0,3.43.29h.13a2,2,0,0,1-.06,4Zm152.48-10.51a2.014,2.014,0,0,1-.47-4,3.149,3.149,0,0,0,.48-.11v-.15a2,2,0,0,1,1.451-2.428l.009,0a2,2,0,0,1,2.42,1.46,5.1,5.1,0,0,1,.18,1.3,3.6,3.6,0,0,1-.44,1.77,4.6,4.6,0,0,1-3.19,2.11,1.876,1.876,0,0,1-.49.05ZM12.393,134.4a2,2,0,0,1-1.09-.32,20.194,20.194,0,0,0-3.16-1.47l.68-1.88.75-1.85-.82,1.85.81-1.83a23.156,23.156,0,0,1,3.87,1.83,2,2,0,0,1-1.11,3.67Zm158.87-11.29a2.01,2.01,0,0,1-.41-4h.11a22.14,22.14,0,0,0,3.36-.88,2,2,0,1,1,1.721,3.611c-.062.029-.126.056-.191.079a23.9,23.9,0,0,1-4.07,1.1h-.1a1.973,1.973,0,0,1-.47.09Zm1.74-14a2,2,0,0,1-1.07-3.69,20.382,20.382,0,0,1,4.06-1.73,2,2,0,0,1,1.3,3.79,18.437,18.437,0,0,0-3.23,1.32,2,2,0,0,1-1.11.27Z" fill="#04294f"/><path d="M211.423,59.72c.43-8-.07-15.56-1.52-16.81-2.92-2.52-57.6-9.49-57.6-9.49s-1.95,22.81,1.6,38.65a23.732,23.732,0,0,0,2.48,7.68h0a22.989,22.989,0,0,0,1.74,2.76c5.72,9.55,13,11.83,20.42,15C186.953,100.98,214.753,100.11,211.423,59.72Z" fill="#04294f"/><path d="M188.613,31.11c-19.67-7.31-35.84-13.32-41.88-3.16,4.7,6.85,17.39,11.57,32,17,19.67,7.32,35.84,13.33,41.87,3.17C215.923,41.23,203.233,36.55,188.613,31.11Z" fill="#f04e23"/><path d="M178.753,44.95c-14.62-5.43-27.31-10.15-32-17a14.433,14.433,0,0,0-1.08,2.3c-4.92,13.27,12.08,19.6,33.08,27.41s38,14.14,43,.86a10.678,10.678,0,0,0-1.09-10.4C214.583,58.28,198.413,52.23,178.753,44.95Z" fill="#04294f"/><path d="M154.533,49.1c4.44,1.7,8.91,3.21,13.41,4.72,2.25.77,4.51,1.51,6.75,2.3s4.5,1.57,6.73,2.38,4.47,1.59,6.69,2.41,4.43,1.6,6.66,2.32a60.143,60.143,0,0,0,13.55,3.31h0a.479.479,0,0,1,.453.5l0,.035a.5.5,0,0,1-.38.44,24.369,24.369,0,0,1-7.38.31,51.014,51.014,0,0,1-7.21-1.23,117.839,117.839,0,0,1-13.75-4.4c-2.24-.82-4.46-1.69-6.67-2.59s-4.43-1.8-6.63-2.75a85.656,85.656,0,0,1-12.79-6.7.61.61,0,0,1-.17-.84.619.619,0,0,1,.73-.23Z" fill="#f04e23"/><path d="M157.753,30.66a3.508,3.508,0,0,0,1.6,2.76,6.548,6.548,0,0,0,4.51,1.16c2.43-.16,7.13-2.55,7.13-4.71V2.76c0-1.43-4.32-2.76-5.58-2.76a11.859,11.859,0,0,0-6,2.52,3.656,3.656,0,0,0-1.23,2.55C157.983,8.71,157,20.97,157.753,30.66Z" fill="#ffb400"/><path d="M168.753,4.09a6.634,6.634,0,0,0-2.34.43c-.36.13-.73.26-1.07.42a10.674,10.674,0,0,0-1,.53,1,1,0,0,0-.5.74l-.06.42a73.137,73.137,0,0,0-.39,12.37c.06,2.07.22,4.12.4,6.18s.45,4.12.84,6.19a.62.62,0,0,0,1.21,0,47.426,47.426,0,0,0,1-6.2c.2-2.07.36-4.14.41-6.21a70.51,70.51,0,0,0-.5-11.88V7.02l.72-.71a12.786,12.786,0,0,1,1.49-1.29V4.97a.481.481,0,0,0,.21-.4A.491.491,0,0,0,168.753,4.09Z" fill="#f04e23"/><path d="M194.463,43.92a3.508,3.508,0,0,0,1.6,2.76,6.548,6.548,0,0,0,4.51,1.16c2.44-.16,7.13-2.55,7.13-4.71V16.02c0-1.43-4.32-2.76-5.58-2.76a11.859,11.859,0,0,0-6,2.52,3.66,3.66,0,0,0-1.23,2.55C194.683,21.97,193.753,34.23,194.463,43.92Z" fill="#ffb400"/><path d="M205.443,17.35a6.634,6.634,0,0,0-2.34.43c-.36.13-.73.26-1.07.42a10.674,10.674,0,0,0-1,.53,1,1,0,0,0-.5.74v.42a72.111,72.111,0,0,0-.4,12.37c.06,2.07.22,4.12.4,6.18s.45,4.12.84,6.19a.62.62,0,0,0,1.21,0,47.426,47.426,0,0,0,1-6.2c.2-2.07.36-4.14.41-6.21a69.472,69.472,0,0,0-.5-11.88l.06-.06.71-.71a13.956,13.956,0,0,1,1.49-1.3h.05a.481.481,0,0,0,.21-.4.49.49,0,0,0-.452-.525A.467.467,0,0,0,205.443,17.35Z" fill="#f04e23"/><ellipse cx="165.883" cy="69.35" rx="2.31" ry="5.33" fill="#ffb400"/><ellipse cx="186.993" cy="77.94" rx="2.31" ry="5.33" fill="#ffb400"/></g></g>
            </g>
        </g>
    </g>
    
    <!-- ITEM 1 -->
    <g>
        <defs>
            <clipPath id="clip-path-id-viewbox-item-1">
                <rect x="0.0" y="0.0" width="532.0" height="340.247"/>
            </clipPath>
        </defs>
        <g transform="translate(463.0 1059.0) rotate(0.0 278.5 178.5) scale(1.0469924812030076 1.0492377596275646)">
            <g clip-path="url(#clip-path-id-viewbox-item-1)" transform="translate(-0.0 -0.0)">
                <title>island_ground</title><g id="Layer_2-i1" data-name="Layer 2"><g id="island_ground-i1"><path d="M337.788,205.305a3.583,3.583,0,0,1-2.633-6.018,3.412,3.412,0,0,0,.753-1,3.577,3.577,0,0,1,7.133.535l0,.056a8.72,8.72,0,0,1-2.633,5.373A3.582,3.582,0,0,1,337.788,205.305Z" fill="#04294f"/><path d="M6.108,126.889a581.285,581.285,0,0,0,29.786,79.67,18.471,18.471,0,0,0,6.574,7.451,216.155,216.155,0,0,0,35.267,19.165,19.163,19.163,0,0,1,11.248,11.66c3.206,10.209,8.956,27.816,15.01,42.127a19.539,19.539,0,0,0,12.412,10.854c17.912,5.553,62.475,16.586,134.424,16.407a20.636,20.636,0,0,1,18.9,11.1l1.182,2.508a20.312,20.312,0,0,0,16.747,11.051,233.446,233.446,0,0,0,71.645-3.314,19.7,19.7,0,0,0,14.759-12c2.686-7.165,6.985-19.559,13.469-39.907a19.864,19.864,0,0,1,17.41-13.111,302.379,302.379,0,0,0,67.382-15.206A18.682,18.682,0,0,0,485.2,240.7v-.286a18.592,18.592,0,0,1,11.66-14.186c2.687-1.128,5.571-2.436,8.293-3.887a18.212,18.212,0,0,0,9.726-12.842c3.3-19.165,17.284-72.9,17.105-108.273-.215-38.169-405.332-5.839-508.124,2.973C11.338,105.271,2.848,116.071,6.108,126.889Z" fill="#f04e23"/><path d="M470.332,37.279a11.053,11.053,0,0,0-5.571-.967l-51.495,4.693a10.89,10.89,0,0,1-11.57-8.329l-3.009-12.538a10.908,10.908,0,0,0-8.454-8.149A622.052,622.052,0,0,0,265.946.006c-53.214,0-102.739,6.09-144.311,16.55a10.889,10.889,0,0,0-4.173,2.078L94.07,37.476a10.739,10.739,0,0,1-5.194,2.275L46.032,46.235A11.2,11.2,0,0,0,42,47.668C15.422,63.788,0,82.935,0,103.5a45.424,45.424,0,0,0,6.77,23.285,10.909,10.909,0,0,0,6.162,4.8L56.8,144.98a10.924,10.924,0,0,1,7,6.573l.627,1.684a12.363,12.363,0,0,0,.143,1.379c.645,5.66,1.576,11.284,2.758,16.837a120.957,120.957,0,0,0,4.6,16.478,64.13,64.13,0,0,0,7.863,15.6,1.415,1.415,0,0,0,1.092.573,1.4,1.4,0,0,0,1.433-1.361h0A107.5,107.5,0,0,0,81.1,185.62c-.358-2.418-.788-4.836-1.254-7.164a7.414,7.414,0,0,1,7.29-8.83h30.575a10.739,10.739,0,0,1,5.642,1.576l46.229,27.834a10.862,10.862,0,0,0,4.1,1.469c9.4,1.361,19.076,2.507,28.945,3.439a6.876,6.876,0,0,1,6.269,6.376,42.358,42.358,0,0,0,.519,5.481,57.908,57.908,0,0,0,1.38,6.609,29.971,29.971,0,0,0,2.615,6.538,1.485,1.485,0,0,0,.788.645,1.434,1.434,0,0,0,1.791-.9h0a65.149,65.149,0,0,0,2.83-12.932c.143-1.182.268-2.364.358-3.582a6.915,6.915,0,0,1,7.29-6.377l3.457.18a4.925,4.925,0,0,1,4.639,5.1h0a62.893,62.893,0,0,0,.752,13.075,38.46,38.46,0,0,0,4.55,13.111,2.011,2.011,0,0,0,.716.735,2.043,2.043,0,0,0,2.79-.745l0-.008h0a40.618,40.618,0,0,0,4.532-13.039,63.956,63.956,0,0,0,.9-13.057h0a4.245,4.245,0,0,1,4.117-4.369c.067,0,.133,0,.2,0q6.376.126,12.806.144c66.917,0,128.066-9.619,174.814-25.488a10.747,10.747,0,0,0,6.592-6.376l7.164-18.789a10.924,10.924,0,0,1,7.021-6.52l33.888-10.138.466-.143a2.186,2.186,0,0,1,2.884,2.418h0a132.066,132.066,0,0,0-1.63,14.329,69.372,69.372,0,0,0,.645,14.831h0a1.4,1.4,0,0,0,.627.931,1.415,1.415,0,0,0,1.961-.4l.009-.014a53.572,53.572,0,0,0,6.09-13.756,86.966,86.966,0,0,0,2.883-14.436,121.64,121.64,0,0,0,.967-14.687,71.908,71.908,0,0,0-.25-7.326,9.279,9.279,0,0,1,1.5-.967l14.759-7.666A10.551,10.551,0,0,0,532,103.426h0C532,78.314,508.841,55.226,470.332,37.279Z" fill="#04294f"/><path d="M143.451,244.871a58.36,58.36,0,0,1,5.177,10.747A93.353,93.353,0,0,1,152,266.669l.627,2.794a10.608,10.608,0,0,0,.376,1.63,4.992,4.992,0,0,0,1.272,1.988c.179.125.34.3.555.43l.143.107.305.126.627.286c.859.358,1.791.735,2.579,1.147a48.041,48.041,0,0,1,5.373,2.776h0a1.487,1.487,0,0,1,.484,2.042,1.794,1.794,0,0,1-.7.591,23.789,23.789,0,0,1-6.161,1.5,30.129,30.129,0,0,1-3.135.179h-1.755a11.6,11.6,0,0,1-2.185-.5,12.4,12.4,0,0,1-6.9-5.911,14.317,14.317,0,0,1-1.343-3.886l-.609-2.848a96.058,96.058,0,0,1-1.541-11.607,57.768,57.768,0,0,1,.251-11.911,1.79,1.79,0,0,1,3.17-.7Z" fill="#04294f"/><path d="M392.812,269.105a63.491,63.491,0,0,1,1.415-10.89q1.038-5.158,2.472-10.156a74.06,74.06,0,0,1,3.456-9.869,39.258,39.258,0,0,1,5.732-9.493h0a1.505,1.505,0,0,1,2.114-.161,1.438,1.438,0,0,1,.465.716,30.685,30.685,0,0,1,.842,11.32,46.25,46.25,0,0,1-2.4,10.747,58.539,58.539,0,0,1-4.442,10.066,41.409,41.409,0,0,1-6.609,8.956l-.108.125a1.725,1.725,0,0,1-2.937-1.361Z" fill="#04294f"/><path d="M259.8,285.01a9.073,9.073,0,0,1-3.582-1.791,6.216,6.216,0,0,1-1.792-2.347,4.085,4.085,0,0,1-.322-2.83,7.513,7.513,0,0,1,2.328-3.582,2.942,2.942,0,0,1,2.472-.806h0a8.135,8.135,0,0,1,4.156,1.612,4.244,4.244,0,0,1,1.5,2.436,6.69,6.69,0,0,1,0,2.92,8.778,8.778,0,0,1-1.791,3.582,2.883,2.883,0,0,1-3.063,1Z" fill="#04294f"/><path d="M279.881,311.572a12.216,12.216,0,0,1-2.454-1.791,10.843,10.843,0,0,1-1.647-1.791,9.509,9.509,0,0,1-1.666-3.743,5.908,5.908,0,0,1,.412-3.887,10.226,10.226,0,0,1,4.137-4.173,3.8,3.8,0,0,1,3.439-.287h0a11.171,11.171,0,0,1,4.944,3.493,5.893,5.893,0,0,1,1.218,3.761,8.721,8.721,0,0,1-.842,3.923,8.976,8.976,0,0,1-1.254,2.024,10.946,10.946,0,0,1-2.024,2.1,3.939,3.939,0,0,1-4.281.358Z" fill="#04294f"/><path d="M454.212,223.288a12.013,12.013,0,0,1-1.971-2.275,9.972,9.972,0,0,1-1.182-2.149,9.368,9.368,0,0,1-.752-4.013,5.93,5.93,0,0,1,1.307-3.707,10.193,10.193,0,0,1,4.98-3.081,3.868,3.868,0,0,1,3.439.52h0a11.192,11.192,0,0,1,3.976,4.549,6,6,0,0,1,.322,3.958,8.959,8.959,0,0,1-1.791,3.583,9.244,9.244,0,0,1-1.683,1.665,10.919,10.919,0,0,1-2.472,1.559,3.9,3.9,0,0,1-4.227-.645Z" fill="#04294f"/><path d="M106.16,217.377a9.157,9.157,0,0,1-3.314-2.185,6.76,6.76,0,0,1-1.54-2.561,4.053,4.053,0,0,1,0-2.83,7.467,7.467,0,0,1,2.741-3.386,3.008,3.008,0,0,1,2.561-.5h0a8.27,8.27,0,0,1,3.94,2.095,4.264,4.264,0,0,1,1.218,2.6,6.376,6.376,0,0,1-.34,2.9,8.418,8.418,0,0,1-2.132,3.26,2.918,2.918,0,0,1-3.152.627Z" fill="#04294f"/><path d="M496.607,188.468a8.013,8.013,0,0,1,1.792,3.3,6.2,6.2,0,0,1,.107,2.848,3.9,3.9,0,0,1-1.4,2.364,7.265,7.265,0,0,1-4.012,1.433,3.188,3.188,0,0,1-2.454-.842h0a8.621,8.621,0,0,1-2.454-3.582,3.694,3.694,0,0,1,.161-2.615,5.569,5.569,0,0,1,1.666-2.114,9.153,9.153,0,0,1,3.439-1.683h0A3.044,3.044,0,0,1,496.607,188.468Z" fill="#04294f"/></g></g>
            </g>
        </g>
    </g>
    
    <!-- ITEM 2 -->
    <g>
        <defs>
            <clipPath id="clip-path-id-viewbox-item-2">
                <rect x="0.0" y="0.0" width="368.594" height="592.073"/>
            </clipPath>
        </defs>
        <g transform="translate(386.0 110.0) rotate(0.0 345.0 553.0) scale(1.8719783827191978 1.868012897058302)">
            <g clip-path="url(#clip-path-id-viewbox-item-2)" transform="translate(-0.0 -0.0)">
                <title>tree_propeller</title><g id="Layer_2-i2" data-name="Layer 2"><g id="tree_propeller-i2"><path d="M266.486,554.3c-1-3.75-1.95-7.49-3.25-11.48a43.794,43.794,0,0,0-2.55-6.29,25.466,25.466,0,0,0-4.69-6.51,29.382,29.382,0,0,0-6.37-4.77,61.817,61.817,0,0,0-6.13-3c-1-.43-1.95-.83-2.91-1.22l-2.7-1.1c-1.64-.69-3.23-1.41-4.68-2.15a26.681,26.681,0,0,1-3.74-2.28,4.709,4.709,0,0,1-1.68-1.84l-.86-5.8a34.687,34.687,0,0,0-2.73-8.44,31.132,31.132,0,0,0-5.57-8.091,29.2,29.2,0,0,0-3.08-2.77c-2.7-8,.77-14.36,3.7-28.3,4-19-12-32-11-50s13.5-20.569-.5-60.569c-.8-2.29-1.51-4.61-2.16-7-4-17,4-26.57,2.16-41-1.91-15.29-7.07-12.06-4.67-29.31.09-.59.18-1.17.26-1.73l.12-.79c1-6.06,1.79-9.67,1.79-9.67L161.6,246.741s15.77,57,8.22,69.68-7.28,20.8-3.63,29,1.09,22.6-3.19,29.8c-6.25,10.51-7.85,31.64-.37,44s-2.11,22.06-7.88,39.83c-4.67,14.38-5.43,23-.71,36.63-.56.61-1.1,1.24-1.61,1.87a36.025,36.025,0,0,0-5.06,8.64,32.438,32.438,0,0,0-2.44,10.29v2.211a4.581,4.581,0,0,0,0,.62l.12,1.38.1,1.1v.87c.06,1,.09,1.419.07,1.84a3.054,3.054,0,0,1-.85,1.7c-.19.18-.36.36-.54.56a8.854,8.854,0,0,1-.71.58,14.634,14.634,0,0,1-1.71,1.17c-.6.4-1.38.74-2.07,1.13a23.048,23.048,0,0,1-2.35,1c-.3.14-1,.42-1.62.65l-1.82.73a18.081,18.081,0,0,0-1.82.83l-1.82.93a18.515,18.515,0,0,0-1.81,1.05l-1.78,1.14c-.59.41-1.16.89-1.72,1.33a19.881,19.881,0,0,0-1.67,1.41,30.77,30.77,0,0,0-3,3.2c-.44.57-.92,1.13-1.31,1.71l-1.14,1.77a17.546,17.546,0,0,0-1,1.78c-.3.59-.63,1.19-.89,1.78-.49,1.16-1,2.35-1.41,3.47l-.6,1.69-.51,1.64c-.36,1.11-.64,2.15-.94,3.2-1.15,4.19-2.13,8.07-3.38,11.83h0c-.9,2.7,1.24,3.73,3.82,5.13,2.9,1.57,5.52,2.49,7.08-.41,2.13-3.94,3.94-8,5.69-11.7s3.5-7,5.47-9.14a14.407,14.407,0,0,1,6.81-4.2l1.09-.3a6.722,6.722,0,0,1,1.12-.28l1.18-.24,1.38-.3c1.22-.29,2.42-.53,3.66-.88a38.425,38.425,0,0,0,3.78-1.22,34.292,34.292,0,0,0,3.92-1.55c.67-.34,1.32-.65,2-1.05s1.35-.85,2-1.29a28.7,28.7,0,0,0,3.54-2.94h0c4-4.09,7.41,1.34,4.41,4.47a18,18,0,0,1-1.33,1.44l-.68.72-1,1a35.386,35.386,0,0,0-7.4,9.78,33.551,33.551,0,0,0-1.3,3.16c-.33,1.1-.61,2.219-.83,3.32a27.338,27.338,0,0,0-.29,6.3,70.956,70.956,0,0,0,1.66,10c.63,3,1.15,5.78,1.48,8.64v.14c.28,2.41,2.22,2.38,4.74,2.6,2.87.26,5.42.14,5.67-2.74.3-3.35.36-6.72.34-9.91a58.841,58.841,0,0,1,.29-8.51,11.3,11.3,0,0,1,.79-2.91c.2-.39.4-.74.6-1.09a5.258,5.258,0,0,1,.76-1,20.865,20.865,0,0,1,4.93-4l.8-.52,1.1-.76c.74-.531,1.48-1,2.22-1.571l2.22-1.75c.75-.64,1.49-1.33,2.22-2s1.46-1.53,2.19-2.309a32.4,32.4,0,0,0,2.08-2.691c.38-.559.74-1.15,1.1-1.75h0c2.66-4.89,6.63-6,10.49-4a41.747,41.747,0,0,1,9.33,7.75,33.356,33.356,0,0,1,7,12.11,41.761,41.761,0,0,1,1.69,14.92v.18c-.15,2.66,1.58,3.16,4.26,3.87,3.07.82,6.22,1,7-2.07a55.086,55.086,0,0,0,1.72-19.71,51.439,51.439,0,0,0-2.16-10.16,52.67,52.67,0,0,0-4.27-9.58q-.66-1.189-1.38-2.31h0c-2.45-3.56-.29-4.27,4.36-3.09,2.15.62,4.22,1.11,6.27,1.53l2.82.57,2.59.54c1.68.38,3.25.79,4.6,1.23a15.841,15.841,0,0,1,3.37,1.441,9.833,9.833,0,0,1,2.61,2.37,29.061,29.061,0,0,1,2.61,4c1.72,3.1,3.37,6.61,5,10.08h0c1.14,2.38,3.85,1.68,6.5,1C265.516,558.362,267.286,557.292,266.486,554.3Z" fill="#00aee0"/><path d="M173.206,372.592l-2-2.15c-.71-.73-1.43-1.44-2.17-2.15a41.749,41.749,0,0,0-5.25-4.21,31.421,31.421,0,0,0-3.26-1.94l-1.86-.86c-.63-.26-1.32-.48-2-.71a25.468,25.468,0,0,0-8.08-1.1,34.208,34.208,0,0,0-6.66.88c-2,.43-3.76.92-5.51,1.4-3.47,1-6.74,2.1-9.61,2.8a28.53,28.53,0,0,1-3.8.73,7.774,7.774,0,0,1-2.51-.06,3.429,3.429,0,0,1-1-.4c-.18-.13-.33-.2-.57-.38l-.91-.83-3.83-3.57a52.043,52.043,0,0,0-8.95-6.83,29.865,29.865,0,0,0-3.84-1.84,1.531,1.531,0,0,1-.31-.12l-.79-.26c-2.45-.55-3.7,2-2.3,3.26a33.464,33.464,0,0,1,3.17,3.7c1.93,2.62,3.61,5.45,5.39,8.39.89,1.47,1.8,3,2.82,4.52l.78,1.16c.35.46.82,1,1.25,1.49a15.939,15.939,0,0,0,3.2,2.64,19.085,19.085,0,0,0,7.5,2.64,32.405,32.405,0,0,0,6.64.24c4.06-.23,7.58-.74,11-1.1a37.617,37.617,0,0,1,8.54-.38,5.993,5.993,0,0,1,2.18.69c.15.1.29.15.45.26l.48.32c.17.11.36.28.54.41a4.45,4.45,0,0,1,.59.48,35.351,35.351,0,0,1,2.67,2.61l1.46,1.62,1.5,1.75.2.23c.07.08.14.17.22.25a10,10,0,0,0,14.68-13.58Z" fill="#00aee0"/><path d="M294.046,432.3l-.87-.13a59.951,59.951,0,0,0-14.26-.69,107.823,107.823,0,0,0-14,2.06c-2.73.519-5.32,1-7.8,1.25q1.17-2.37,2.09-4.77l.88-2.49c.28-.83.48-1.68.72-2.52.51-1.65.79-3.36,1.14-5,.14-.75.25-1.49.35-2.24.39-3.05-1.67-4.57-3.4-.79h0c-.27.57-.55,1.13-.86,1.68q-1.122,2.094-2.45,4.07c-.44.65-.84,1.31-1.31,1.94l-1.42,1.83a38.584,38.584,0,0,1-6.33,6.25c-.73.55-1.47,1.08-2.22,1.55l-.37-.05-3.92-.43a50.42,50.42,0,0,0-16.41,1.31c-1.39.35-2.75.85-4.13,1.3a15.974,15.974,0,0,0-2,.8l-2,.9a45.507,45.507,0,0,0-7.54,4.649c-1.16.911-2.3,1.87-3.4,2.881a35.147,35.147,0,0,0-3.12,3.23,35.987,35.987,0,0,0-2.84,3.59c-.44.66-.88,1.269-1.31,2-.22.37-.42.68-.65,1.109s-.39.68-.77,1.511A12,12,0,0,0,218,466.2c-.16.32-.05,0-.05,0s.1-.26.14-.39.26-.59.4-.91a21.038,21.038,0,0,1,1-1.919c.37-.67.84-1.271,1.27-1.9s1-1.2,1.47-1.78a26.087,26.087,0,0,1,7.62-5.64,32.144,32.144,0,0,1,10.15-2.74l2.83-.2.73-.07h1l2-.08a37.488,37.488,0,0,0,4-.37c.65-.09,1.31-.16,2-.27l1.92-.4a75.135,75.135,0,0,0,13.92-4.65,120.469,120.469,0,0,1,12.16-4.55,73.24,73.24,0,0,1,12.8-2.65h0C297.066,437.062,296.636,432.862,294.046,432.3Z" fill="#00aee0"/><ellipse cx="182.456" cy="456.892" rx="13.48" ry="18.57" fill="#04294f"/><path d="M174.636,482.412a9.5,9.5,0,0,1-3.89-1.32,12.692,12.692,0,0,1-3.19-2.69,11.591,11.591,0,0,1-2.12-3.53,8.642,8.642,0,0,1-.53-4.12.569.569,0,0,1,.64-.48.547.547,0,0,1,.27.12h0a20.715,20.715,0,0,1,2.68,2.74c.76.92,1.44,1.83,2.13,2.74s1.41,1.78,2.17,2.659,1.56,1.771,2.42,2.781h0a.65.65,0,0,1-.076.916l0,0A.674.674,0,0,1,174.636,482.412Z" fill="#04294f"/><path d="M202.116,462.692a7.872,7.872,0,0,1,.6,2.8,10.443,10.443,0,0,1-.27,2.729,7.826,7.826,0,0,1-1.05,2.56,5.534,5.534,0,0,1-2.21,2,.64.64,0,0,1-.84-.3.506.506,0,0,1,0-.11h0a8.32,8.32,0,0,1-.21-2.781,11.305,11.305,0,0,1,.52-2.39,18.2,18.2,0,0,1,.89-2.31,11.865,11.865,0,0,1,1.41-2.33h0a.7.7,0,0,1,.98-.135l.02.015A.894.894,0,0,1,202.116,462.692Z" fill="#04294f"/><path d="M189.916,431.192a13.117,13.117,0,0,1,5.72,2.78,17.3,17.3,0,0,1,4.11,4.92,18.439,18.439,0,0,1,2.21,5.93,16.176,16.176,0,0,1,0,6.24.52.52,0,0,1-.617.4h0a.5.5,0,0,1-.35-.26h0c-1-1.84-1.65-3.63-2.4-5.35s-1.47-3.41-2.32-5a28.116,28.116,0,0,0-3-4.52,29.019,29.019,0,0,0-3.93-4h0a.629.629,0,0,1-.07-.88A.618.618,0,0,1,189.916,431.192Z" fill="#04294f"/><path d="M160.076,388.8a10.882,10.882,0,0,1,3.58,2.34,14.575,14.575,0,0,1,2.55,3.2,11.183,11.183,0,0,1,1.48,3.88,7.668,7.668,0,0,1-.54,4.49.941.941,0,0,1-1.25.44l-.14-.08h-.05a13.679,13.679,0,0,1-2.9-2.8,16.194,16.194,0,0,1-1.84-3,27.521,27.521,0,0,1-1.41-3.36,17.033,17.033,0,0,1-.89-3.89v-.08a1,1,0,0,1,.86-1.123.7.7,0,0,1,.08-.007A1.065,1.065,0,0,1,160.076,388.8Z" fill="#04294f"/><path d="M168.956,364.182a6.559,6.559,0,0,1,3.13-.33,7.678,7.678,0,0,1,2.66.84,5.71,5.71,0,0,1,2.13,1.82,5.21,5.21,0,0,1,.92,3.17,1.152,1.152,0,0,1-.92,1.1h0a7.051,7.051,0,0,1-3.06,0,5.8,5.8,0,0,1-2.11-1,9.672,9.672,0,0,1-1.77-1.58,9.363,9.363,0,0,1-1.54-2.35l-.07-.17a1.15,1.15,0,0,1,.579-1.52h0Z" fill="#04294f"/><path d="M251.626,418.992c-4.36-4.11-11.07-10.82-12.85-10.93-2.15-.12-4,12.05,3,19.6,3,3.36,7.21,3.87,9.52,2.19h.07C255.386,427.182,254.576,421.982,251.626,418.992Z" fill="#f04e23"/><path d="M243.046,415.922a24.834,24.834,0,0,1,2.28,2.12c.68.71,1.32,1.41,1.93,2.11s1.23,1.37,1.78,2.14a18.027,18.027,0,0,1,1.66,2.61v.05a.591.591,0,0,1-.26.78.7.7,0,0,1-.2.06,6.006,6.006,0,0,1-3.5-.81,8.707,8.707,0,0,1-2.57-2.29,11.238,11.238,0,0,1-1.67-2.941,8.684,8.684,0,0,1-.6-3.369.66.66,0,0,1,1.07-.5Z" fill="#04294f"/><path d="M114.326,380.342c-1.92,5.67-5.19,14.58-4.55,16.24.79,2,12.63-1.36,16.53-11,1.79-4.15.49-8.17-2-9.57h-.07C120.186,373.492,115.8,376.4,114.326,380.342Z" fill="#ffb400"/><path d="M115.126,389.412a23.555,23.555,0,0,1,1-3c.36-.92.73-1.8,1.11-2.65s.73-1.68,1.19-2.5a20.6,20.6,0,0,1,1.68-2.61h0a.59.59,0,0,1,.82-.09.525.525,0,0,1,.14.16,5.862,5.862,0,0,1,.73,3.51,8.931,8.931,0,0,1-1,3.3,11.391,11.391,0,0,1-2,2.74,8.66,8.66,0,0,1-2.82,2,.661.661,0,0,1-.86-.35.607.607,0,0,1,0-.42Z" fill="#04294f"/><path d="M285.656,442.082c3.84,3.6,10.07,9.13,10.27,10.68.22,1.88-10.35,4.2-17.35-1.62-3.11-2.46-3.78-6.12-2.43-8.23v-.06C278.266,439.212,282.876,439.692,285.656,442.082Z" fill="#ffb400"/><path d="M288.436,450.512a7.262,7.262,0,0,1-3.06-.24,9.707,9.707,0,0,1-2.72-1.28,7.359,7.359,0,0,1-2.15-2.19,4.994,4.994,0,0,1-.76-3.11.609.609,0,0,1,.66-.54h.19a14.1,14.1,0,0,1,2.49,1.21,16.665,16.665,0,0,1,1.95,1.39,24.736,24.736,0,0,1,1.91,1.61,17.193,17.193,0,0,1,1.91,2l.05.06a.68.68,0,0,1-.11.95A.617.617,0,0,1,288.436,450.512Z" fill="#04294f"/><path d="M265.746,451.692c3.9,5.79,9.8,15.14,11.8,15.72,2.41.7,7.7-12.651,1.58-23.05-2.56-4.61-7.2-6.26-10.26-4.95h-.09C263.526,441.452,263.116,447.572,265.746,451.692Z" fill="#f04e23"/><path d="M274.746,457.4a34.133,34.133,0,0,1-1.88-3.06l-1.62-3c-.53-1-1.06-1.91-1.53-2.91a28.311,28.311,0,0,1-1.41-3.29h0a.561.561,0,0,1,.354-.709h.006a.615.615,0,0,1,.27,0,7.2,7.2,0,0,1,3.59,1.93,10.99,10.99,0,0,1,2.28,3.24,14.015,14.015,0,0,1,1.17,3.7,10.6,10.6,0,0,1,0,3.93.661.661,0,0,1-.77.5.64.64,0,0,1-.4-.26Z" fill="#04294f"/><path d="M195.026,499.692a10.836,10.836,0,0,1,1,2.84,15.136,15.136,0,0,1,.35,2.83,10.473,10.473,0,0,1-.23,2.83,7.469,7.469,0,0,1-1.27,2.83.621.621,0,0,1-.86.12l-.12-.12a7.453,7.453,0,0,1-1.27-2.83,10.433,10.433,0,0,1-.23-2.83,15.053,15.053,0,0,1,.35-2.83,10.8,10.8,0,0,1,1-2.84.7.7,0,0,1,.94-.27A.8.8,0,0,1,195.026,499.692Z" fill="#04294f"/><path d="M203.306,491.242a3.772,3.772,0,0,1,1,1.289,3.481,3.481,0,0,1,.35,1.29,2.282,2.282,0,0,1-.23,1.29,3.126,3.126,0,0,1-1.27,1.29,1,1,0,0,1-1,0,3.262,3.262,0,0,1-1.27-1.29,2.362,2.362,0,0,1-.23-1.29,3.443,3.443,0,0,1,.35-1.29,3.981,3.981,0,0,1,1-1.289A1,1,0,0,1,203.306,491.242Z" fill="#04294f"/><path d="M169.576,515.312a3.766,3.766,0,0,1,1,1.29,3.471,3.471,0,0,1,.35,1.289,2.282,2.282,0,0,1-.23,1.29,3.156,3.156,0,0,1-1.26,1.29,1,1,0,0,1-1,0,3.262,3.262,0,0,1-1.27-1.29,2.462,2.462,0,0,1-.23-1.29,3.455,3.455,0,0,1,.36-1.289,3.754,3.754,0,0,1,1-1.29A.939.939,0,0,1,169.576,515.312Z" fill="#04294f"/><path d="M225.746,564.462a3.76,3.76,0,0,1,1.06,1.27,3.436,3.436,0,0,1,.38,1.28,2.36,2.36,0,0,1-.21,1.29,3.139,3.139,0,0,1-1.24,1.32,1,1,0,0,1-1,0,3.217,3.217,0,0,1-1.3-1.27,2.339,2.339,0,0,1-.25-1.28,3.483,3.483,0,0,1,.32-1.3,3.986,3.986,0,0,1,1-1.31A1,1,0,0,1,225.746,564.462Z" fill="#04294f"/><path d="M194.806,406.032a10.287,10.287,0,0,1-1-2.83,15.073,15.073,0,0,1-.35-2.83,10.387,10.387,0,0,1,.23-2.83,7.235,7.235,0,0,1,1.27-2.83.609.609,0,0,1,.853-.125l.007,0,.12.12a7.538,7.538,0,0,1,1.27,2.83,10.844,10.844,0,0,1,.23,2.83,15.156,15.156,0,0,1-.35,2.83,10.71,10.71,0,0,1-1,2.83.67.67,0,0,1-.9.284l-.026-.014A.664.664,0,0,1,194.806,406.032Z" fill="#04294f"/><path d="M175.466,341.372a10.443,10.443,0,0,1-1-2.83,15.159,15.159,0,0,1-.36-2.83,11.246,11.246,0,0,1,.23-2.83,7.469,7.469,0,0,1,1.27-2.83.619.619,0,0,1,.868-.122l0,0a.649.649,0,0,1,.12.12,7.309,7.309,0,0,1,1.26,2.83,10.846,10.846,0,0,1,.24,2.83,16.149,16.149,0,0,1-.36,2.83,10.443,10.443,0,0,1-1,2.83.691.691,0,0,1-.938.271h0A.641.641,0,0,1,175.466,341.372Z" fill="#04294f"/><path d="M185.286,410.692a4,4,0,0,1-1-1.29,3.443,3.443,0,0,1-.35-1.29,2.282,2.282,0,0,1,.23-1.29,3.265,3.265,0,0,1,1.27-1.291.932.932,0,0,1,1,0,3.134,3.134,0,0,1,1.27,1.291,2.282,2.282,0,0,1,.23,1.29,3.481,3.481,0,0,1-.35,1.29,3.785,3.785,0,0,1-1,1.29A1,1,0,0,1,185.286,410.692Z" fill="#04294f"/><path d="M209.2,509.312a5.4,5.4,0,0,1,1,1.719,5.956,5.956,0,0,1,.35,1.72,3.89,3.89,0,0,1-1.5,3.44.779.779,0,0,1-1,0,3.888,3.888,0,0,1-1.27-1.72,3.931,3.931,0,0,1-.23-1.719,5.877,5.877,0,0,1,.35-1.72,5.16,5.16,0,0,1,1-1.72.819.819,0,0,1,1.159,0h.141Z" fill="#04294f"/><path d="M219.8,552.942a5.2,5.2,0,0,1,1.38,1.45,5.838,5.838,0,0,1,.72,1.6,4.013,4.013,0,0,1-.71,3.729.789.789,0,0,1-1,.211,3.913,3.913,0,0,1-1.61-1.4,3.991,3.991,0,0,1-.6-1.63,5.643,5.643,0,0,1,0-1.75,5.054,5.054,0,0,1,.63-1.9.809.809,0,0,1,1.1-.314l.009,0Z" fill="#04294f"/><path d="M147.956,540.232a6.388,6.388,0,0,1-1.75,1.33,7.719,7.719,0,0,1-1.87.659,5.1,5.1,0,0,1-1.95.081,4.521,4.521,0,0,1-2.12-.94.73.73,0,0,1-.16-1,4.4,4.4,0,0,1,1.71-1.56,4.981,4.981,0,0,1,1.89-.54,7.2,7.2,0,0,1,2,0,5.985,5.985,0,0,1,2.08.71.78.78,0,0,1,.3,1.06A.732.732,0,0,1,147.956,540.232Z" fill="#04294f"/><path d="M191.466,380.612a5.177,5.177,0,0,1,1,1.72,5.877,5.877,0,0,1,.35,1.72,3.952,3.952,0,0,1-.23,1.72,4.008,4.008,0,0,1-1.26,1.72.811.811,0,0,1-1,0,4.112,4.112,0,0,1-1.27-1.72,4.262,4.262,0,0,1-.23-1.72,5.852,5.852,0,0,1,.36-1.72,5.16,5.16,0,0,1,1-1.72.81.81,0,0,1,1.144-.056l.006.006Z" fill="#04294f"/><path d="M188.236,320.162a5.081,5.081,0,0,1,1,1.72,5.813,5.813,0,0,1,.35,1.72,4.012,4.012,0,0,1-.23,1.72,3.893,3.893,0,0,1-1.27,1.71.772.772,0,0,1-1,0,3.862,3.862,0,0,1-1.5-3.43,5.75,5.75,0,0,1,.35-1.72,5.389,5.389,0,0,1,1-1.72.829.829,0,0,1,1.16-.06Z" fill="#04294f"/><path d="M172.386,428.782a5.316,5.316,0,0,1-1-1.72,5.762,5.762,0,0,1-.35-1.71,3.917,3.917,0,0,1,.23-1.72,3.99,3.99,0,0,1,1.27-1.72.77.77,0,0,1,1,0,3.849,3.849,0,0,1,1.27,1.72,3.917,3.917,0,0,1,.23,1.72,5.825,5.825,0,0,1-.35,1.71,5.016,5.016,0,0,1-1,1.72.82.82,0,0,1-1.158.061h0Z" fill="#04294f"/><path d="M217.146,438.122a4,4,0,0,1,3-.39,4.992,4.992,0,0,1,2.5,1.57,4.212,4.212,0,0,1,1.1,2.67,3.563,3.563,0,0,1-1.27,2.8,1.271,1.271,0,0,1-1.3.24l-.17-.06a13.978,13.978,0,0,1-1.34-.63c-.38-.171-.62-.36-.87-.481a2.154,2.154,0,0,1-.84-.84,5.911,5.911,0,0,1-.47-1.13l-.29-.84c-.1-.32-.28-.679-.38-1.119l-.17-.75A1,1,0,0,1,217.146,438.122Z" fill="#04294f"/><path d="M154.836,514.552a.83.83,0,0,0-1.06-.47h0a34.128,34.128,0,0,0-5.6,3c-1.12.72-2.18,1.48-3.24,2.26,0,1.24.07,3.08.21,4.54s-1.53,3.09-2.8,4a30.573,30.573,0,0,0,4.44-2.54,23.062,23.062,0,0,0,4.92-4.38c.35-.44.69-.87,1-1.33s.6-1,.88-1.44a12.68,12.68,0,0,0,1.29-3.19A.822.822,0,0,0,154.836,514.552Z" fill="#04294f"/><path d="M226.506,536.522a27.445,27.445,0,0,0-3.21-4.79,28.4,28.4,0,0,0-3.11-3.19,24.181,24.181,0,0,0-3.69-2.51,18,18,0,0,0-8.46-2.37.739.739,0,0,0-.56.21.789.789,0,0,0,0,1.11l.06.06a16.031,16.031,0,0,0,1.55,1.44,19.715,19.715,0,0,1,1.53,1.3c.48.47,1,.88,1.47,1.28s.94.88,1.41,1.29c1,.8,1.81,1.74,2.74,2.56l1.29,1.34a15.078,15.078,0,0,1,1.27,1.38c1,1.13,2,2.33,2.94,3.57C220.456,537,219.976,535.112,226.506,536.522Z" fill="#04294f"/><path d="M163.9,166.182l130.73,23.51c8.47,1.53,10.47,11.15,9.23,21.49-1,8.46-2.65,14.79-9.23,16L163.9,250.692c-19.09,3.43-36.84-12.7-39.65-36s10.39-45,29.48-48.47A29.662,29.662,0,0,1,163.9,166.182Z" fill="#00aee0"/><path d="M169.8,63.3l-21.05,18.84,14.39,19.94,22.81-4.23S175.236,69.222,169.8,63.3Z" fill="#04294f"/><polygon points="98.006 285.362 71.556 276.252 75.596 301.342 98.006 285.362" fill="#04294f"/><path d="M143.816,204.692a128.274,128.274,0,0,1-8-10.83q-3.741-5.53-7.08-11.26c-4.49-7.61-8.57-15.4-12.33-23.34a201.907,201.907,0,0,1-9.94-24.43c-1.35-4.21-2.57-8.48-3.56-12.86a85.2,85.2,0,0,1-2.12-13.5,2.369,2.369,0,0,1,2.21-2.52h0a2.407,2.407,0,0,1,1.83.69,86.459,86.459,0,0,1,8.76,10.49c2.63,3.63,5,7.36,7.32,11.15a202.7,202.7,0,0,1,11.84,23.57c3.5,8.06,6.67,16.27,9.44,24.66q2.079,6.279,3.8,12.74a125.368,125.368,0,0,1,2.76,13.18,2.84,2.84,0,0,1-5,2.25Z" fill="#04294f"/><path d="M145.816,206.242a116.085,116.085,0,0,1-12.85.59c-4.24,0-8.47-.15-12.66-.44-8.4-.54-16.72-1.51-25-2.85a183.8,183.8,0,0,1-24.52-5.43c-4-1.24-8-2.61-12-4.24a79.97,79.97,0,0,1-11.7-5.79,2.39,2.39,0,0,1,.78-4.37,78.81,78.81,0,0,1,13-1.38c4.27-.15,8.5-.06,12.71.18a183.051,183.051,0,0,1,24.88,3.39c8.21,1.61,16.35,3.58,24.42,6q6.06,1.779,12,4a115.441,115.441,0,0,1,11.84,5,2.84,2.84,0,0,1,1.33,3.79h0A2.9,2.9,0,0,1,145.816,206.242Z" fill="#04294f"/><path d="M120.3,146.812c10.12,10.85,28.19,47.88,17.33,58s-46.53-10.5-56.65-21.36A26.88,26.88,0,0,1,120.3,146.8Z" fill="#f04e23"/><path d="M125.946,165.692c6.82,7.32,19,32.27,11.68,39.09s-31.35-7.08-38.17-14.39a18.11,18.11,0,0,1,26.49-24.7Z" fill="#fff"/><path d="M156.3,227.022a120.611,120.611,0,0,1-3.92,12.67q-2.241,6.169-4.83,12.11c-3.44,7.95-7.26,15.67-11.4,23.22a194.1,194.1,0,0,1-13.69,21.93c-2.57,3.48-5.26,6.9-8.18,10.19a82.9,82.9,0,0,1-9.56,9.42,2.38,2.38,0,0,1-3.34-.34,2.4,2.4,0,0,1-.51-1.86,83.39,83.39,0,0,1,3.22-13c1.35-4.19,2.91-8.25,4.6-12.24a193.65,193.65,0,0,1,11.89-22.95c4.38-7.41,9.08-14.64,14.16-21.65q3.789-5.261,8-10.33a122.873,122.873,0,0,1,8.86-9.81,2.84,2.84,0,0,1,4.74,2.7Z" fill="#04294f"/><path d="M156.376,224.472a116.745,116.745,0,0,1,8.09,10q3.759,5.139,7.15,10.47c4.54,7.09,8.68,14.37,12.49,21.81a183.527,183.527,0,0,1,10.15,23c1.39,4,2.65,8,3.68,12.16a78.531,78.531,0,0,1,2.27,12.87,2.39,2.39,0,0,1-4,2,79.422,79.422,0,0,1-8.81-9.65c-2.65-3.36-5.08-6.82-7.38-10.35a184.087,184.087,0,0,1-12-22.06c-3.56-7.57-6.8-15.3-9.64-23.22q-2.16-5.921-3.92-12.05a115.777,115.777,0,0,1-3-12.51,2.85,2.85,0,0,1,4.9-2.41Z" fill="#04294f"/><path d="M123.606,280.242c2.76-14.59,21.89-51.08,36.47-48.33s19.11,43.709,16.35,58.3a26.88,26.88,0,0,1-52.82-10Z" fill="#f04e23"/><path d="M136,262.5c1.7-9,13.56-31.66,22.6-29.95s11.83,27.08,10.15,36.14a16.653,16.653,0,0,1-32.73-6.17Z" fill="#fff"/><path d="M178.3,198.412a125.836,125.836,0,0,1,13.27-2.36q6.63-.861,13.23-1.3c8.82-.62,17.62-.8,26.4-.61a201.639,201.639,0,0,1,26.3,2c4.37.67,8.73,1.49,13.09,2.55a86.484,86.484,0,0,1,13,4.14,2.36,2.36,0,0,1,1.265,3.088l0,.012a2.384,2.384,0,0,1-1.42,1.33,86.207,86.207,0,0,1-13.31,3.15c-4.42.74-8.83,1.23-13.24,1.57a200.363,200.363,0,0,1-26.38.05c-8.77-.46-17.53-1.29-26.27-2.56q-6.57-.93-13.1-2.29a129.16,129.16,0,0,1-13.07-3.33,2.83,2.83,0,0,1,.21-5.45Z" fill="#04294f"/><path d="M176.006,199.5a117.222,117.222,0,0,1,5.2-11.76q2.87-5.7,6.05-11.14,6.36-10.9,13.71-21.08a182.66,182.66,0,0,1,15.78-19.51c2.91-3,5.93-6,9.15-8.83a78.95,78.95,0,0,1,10.41-7.89,2.4,2.4,0,0,1,3.29.78,2.431,2.431,0,0,1,.27,1.87,79.349,79.349,0,0,1-4.56,12.24c-1.78,3.89-3.75,7.64-5.84,11.29a183.411,183.411,0,0,1-14.15,20.75c-5.11,6.63-10.5,13-16.25,19.18-2.87,3.08-5.84,6.08-8.94,9a113.173,113.173,0,0,1-9.77,8.37,2.852,2.852,0,0,1-3.992-.559l-.008-.011A2.9,2.9,0,0,1,176.006,199.5Z" fill="#04294f"/><path d="M240.576,203.2c-14.23,4.21-55.43,3.84-59.64-10.39s30.17-37,44.4-41.16a26.88,26.88,0,0,1,15.24,51.55Z" fill="#f04e23"/><path d="M215.046,200.692c-8,2.36-31.42,1.26-34.11-7.84s16.36-22.77,24.36-25.13,16.67,3.09,19.36,12.2S223.046,198.282,215.046,200.692Z" fill="#fff"/><path d="M175.416,184.262c0-.19.35-.08.56-.08a4.069,4.069,0,0,1,.72.13c.51.09,1,.21,1.51.35,1,.25,2,.58,3,.89,2,.67,4,1.37,5.92,2.17,3.87,1.57,7.6,3.34,11.23,5.23a198.783,198.783,0,0,1,20.72,12.57c3.3,2.28,6.56,4.65,9.78,7.06l4.83,3.65,4.86,3.54c6.51,4.66,13.11,9.08,19.85,13.08,13.49,8,27.44,14.64,42.76,18.39l2.9.66c1,.22,1.94.38,2.93.58s2,.38,3,.53,2,.35,3,.44a107.232,107.232,0,0,0,12.42.87h3.21c1.07,0,2.13-.12,3.23-.13,2.2-.071,4.37-.291,6.62-.5,4.48-.43,9-1.231,13.75-2.05h0a.63.63,0,0,1,.69.54.653.653,0,0,1-.06.44,80.811,80.811,0,0,1-19.21,23.63,92.252,92.252,0,0,1-26.89,15.73,108.866,108.866,0,0,1-15.24,4.45,121.174,121.174,0,0,1-15.76,2.26,144.174,144.174,0,0,1-31.82-1.27,183.294,183.294,0,0,1-30.86-7.38c-5-1.66-10-3.46-14.83-5.51a134.044,134.044,0,0,1-14.15-7,126.047,126.047,0,0,1-25.36-19.12,112.449,112.449,0,0,1-10.85-12.26c-1.7-2.2-3.28-4.56-4.84-7-.77-1.25-1.54-2.48-2.27-3.82-.38-.65-.75-1.33-1.11-2l-.57-1.09a12.063,12.063,0,0,0-.74-1.3c-12.33-11.89-14-32-3.77-44.84S163.086,172.372,175.416,184.262Z" fill="#ffb400"/><path d="M354.746,249.812a3.477,3.477,0,0,0-2-1,3.421,3.421,0,0,0-.64,0h-.52l-6.37.83c-2.11.26-4.19.49-6.26.64l-6.22.29c-2.07.1-4.27.14-6.33.06s-4.16-.15-6.23-.32a103.664,103.664,0,0,1-12.23-1.73l-3.1-.63c-1-.25-2.09-.481-3.09-.74q-3-.765-6-1.68-6-1.811-11.81-4.21c-3.89-1.58-7.7-3.35-11.47-5.25s-7.51-3.87-11.2-6-7.29-4.32-10.89-6.59-7.17-4.62-10.66-7-7-4.93-10.57-7.38l-5.41-3.65c-1.8-1.23-3.61-2.43-5.48-3.56a158.988,158.988,0,0,0-23.17-12,1.212,1.212,0,1,0-1.06,2.18,219.077,219.077,0,0,1,21.48,13.94c1.74,1.24,3.41,2.58,5.1,3.88l5.07,3.9c1.69,1.28,3.37,2.68,5.06,4s3.43,2.65,5.14,4a245.794,245.794,0,0,0,21.6,14.79c3.75,2.26,7.55,4.43,11.45,6.48s7.9,3.89,12,5.59,8.26,3.24,12.5,4.55c2.12.67,4.27,1.23,6.46,1.77,1.08.27,2.13.49,3.2.74l3.24.62a92.935,92.935,0,0,0,13.39,1.53c2.23.1,4.44.13,6.68.09s4.36-.13,6.58-.32,4.44-.44,6.67-.71,4.39-.68,6.54-1.09c.73-.13,1.45-.28,2.17-.43a90.975,90.975,0,0,1-15.24,20.08,1,1,0,0,0,1.27,1.51,74.394,74.394,0,0,0,18.35-18.86c.63-.92,1.22-1.86,1.81-2.81l.44-.72.21-.36.11-.18a2.22,2.22,0,0,0,.23-.44A3.52,3.52,0,0,0,354.746,249.812Z" fill="#04294f"/><path d="M303.256,272.692a242.236,242.236,0,0,1-27.67-1.53,1.592,1.592,0,0,1,.11-.17l1.48-2.42c.52-.93,1.15-1.78,1.87-3V265.5l.06-.109a.81.81,0,0,0-.46-1,8.113,8.113,0,0,0-4.13-.4,10.543,10.543,0,0,0-3.83,1.39,8.83,8.83,0,0,0-3,2.66,7.041,7.041,0,0,0-.88,1.81.818.818,0,0,1,0,.14,173.1,173.1,0,0,1-27-6.65q-5.511-1.89-10.85-4.17c1-.64,2-1.34,3-2,1.21-.84,2.46-1.65,3.8-2.46s2.78-1.58,4.41-2.55h0a.76.76,0,0,0,.27-.29.712.712,0,0,0-.255-.972c-.018-.01-.037-.02-.055-.028a12.134,12.134,0,0,0-1.34-.57,6.927,6.927,0,0,0-1.38-.41c-.48-.12-.95-.2-1.44-.28a10.469,10.469,0,0,0-1.44-.1,17.1,17.1,0,0,0-5.74.79,15.658,15.658,0,0,0-5.15,2.58,12.245,12.245,0,0,0-2.07,2c-.18.23-.35.46-.51.7q-5.141-2.52-10.1-5.38a152.845,152.845,0,0,1-13.21-8.71c-2.11-1.58-4.23-3.15-6.23-4.85-1-.84-2-1.68-3-2.56s-2-1.79-2.8-2.59l-.12-.12a2.85,2.85,0,0,0-4.3,3.71c.92,1.28,1.79,2.32,2.73,3.42s1.9,2.1,2.88,3.11c1.17,1.18,2.37,2.32,3.59,3.44a2.629,2.629,0,0,0-.34.57,11.423,11.423,0,0,0-.93,3.16,14.978,14.978,0,0,0-.1,3.06,18.574,18.574,0,0,0,1.43,5.87,22.58,22.58,0,0,0,2.94,5.28,17.678,17.678,0,0,0,4.36,4.22.665.665,0,0,0,.41.12.711.711,0,0,0,.69-.71v-.06a28.289,28.289,0,0,0-.25-2.89c-.09-.891-.21-1.83-.29-2.72-.22-1.76-.38-3.46-.56-5.13s-.29-3.31-.6-4.921a.536.536,0,0,0-.06-.3,110.908,110.908,0,0,0,9.61,6.56,125.508,125.508,0,0,0,30.76,13.28c1.63.47,3.26.89,4.9,1.3a9.265,9.265,0,0,0,0,1.49,10.021,10.021,0,0,0,.54,2.26,12.665,12.665,0,0,0,2.39,3.921,15.983,15.983,0,0,0,3.48,3.079,12.169,12.169,0,0,0,4.41,1.84.751.751,0,0,0,.88-.89h0c-.33-1.59-.74-2.91-1.11-4.21s-.78-2.48-1.18-3.65c-.23-.65-.46-1.3-.71-1.92.89.16,1.79.33,2.69.47,1.36.26,2.74.42,4.12.61s2.75.39,4.13.51c2.77.23,5.52.54,8.29.63a154.707,154.707,0,0,0,32.93-1.89.657.657,0,0,0-.07-1.3Z" fill="#04294f"/><path d="M184.086,198.152c-5.55-16.73-22.24-26.08-37.28-20.88a8.576,8.576,0,0,1-1.36,0h-1.13c-.72,0-1.43-.06-2.11-.06-1.39,0-2.73,0-4.06.07a77.436,77.436,0,0,0-7.75.79,87.023,87.023,0,0,0-14.65,3.6,106.2,106.2,0,0,0-26.71,13.61,121.844,121.844,0,0,0-12,9.6c-3.84,3.48-7.52,7.21-11.11,11.06q-2.241,2.379-4.39,4.87c4.62,2.34,10.19,5.52,13.21,8.57,0,0-13.36.56-22.2,2.54q-3.37,4.489-6.51,9.25a164,164,0,0,0-15.48,29.48q-2.7,6.829-4.75,13.94a41.7,41.7,0,0,1,10.1,2.67s-6,2.56-12.23,5.79c-.77,3.53-1.42,7.09-1.91,10.67a120.569,120.569,0,0,0,.23,34.11,99.81,99.81,0,0,0,10,31.09.64.64,0,0,0,.32.31.55.55,0,0,0,.717-.3.544.544,0,0,0,.023-.068h0c1.51-5,2.93-9.68,4.62-14.16.86-2.24,1.67-4.42,2.62-6.54.48-1.05.91-2.1,1.36-3.14l1.47-3a121.113,121.113,0,0,1,6.33-11.3c.53-.89,1.15-1.75,1.72-2.61s1.15-1.7,1.77-2.52,1.17-1.66,1.79-2.47l1.84-2.38a138.512,138.512,0,0,1,25-24.08c-2.05-7.61-4.95-15.3-4.95-15.3,4.14,1.65,9.48,5.75,13.51,9.17l.45-.31c6.24-4.21,12.74-8.06,19.4-11.69l5-2.68,5.09-2.59c3.38-1.74,6.73-3.53,10.05-5.43a174.334,174.334,0,0,0,19.39-12.78q4.817-3.666,9.25-7.8c1.51-1.39,3-2.9,4.41-4.43.71-.79,1.42-1.55,2.09-2.38.34-.4.66-.81,1-1.24a6.458,6.458,0,0,0,.43-.62c.1-.2.34-.45.19-.58C181.956,232.692,189.646,214.892,184.086,198.152Z" fill="#ffb400"/><path d="M105.866,231.742a2.84,2.84,0,0,0-3.752-1.433l-.028.013a86.337,86.337,0,0,0-11.39,6.2c-1.85,1.14-3.6,2.42-5.37,3.67l-2.58,2c-.86.67-1.74,1.3-2.54,2a113.7,113.7,0,0,0-11.51,11,10.11,10.11,0,0,0-3.11-1.19,14.288,14.288,0,0,0-4.53-.13,20.075,20.075,0,0,0-4.49,1,15.091,15.091,0,0,0-4.25,2.24.889.889,0,0,0-.2.24.75.75,0,0,0,.3,1h0a30.506,30.506,0,0,0,4.19,1.81c1.34.47,2.65.88,3.95,1.209.8.21,1.59.4,2.38.541l-.75.929c-2.71,3.36-5.16,6.91-7.53,10.5-1.15,1.821-2.31,3.63-3.41,5.47l-3.12,5.62a147.838,147.838,0,0,0-9.87,23.58.629.629,0,0,0,.28.74.64.64,0,0,0,.877-.224l0-.006h0c4.25-7.31,8.54-14.48,13.26-21.33.49-.73,1-1.43,1.51-2.15l.5.71c.62.86,1.28,1.71,2,2.59a37.537,37.537,0,0,0,2.63,2.78h0l.13.1a.8.8,0,0,0,1.09-.3,10.369,10.369,0,0,0,1.24-4,13.83,13.83,0,0,0-.16-4,10.239,10.239,0,0,0-1.29-3.64,7.73,7.73,0,0,0-1-1.32q4.14-5.319,8.58-10.35a201.045,201.045,0,0,1,16-15.86c.14.56.29,1.12.43,1.68.35,1.37.72,2.77,1,4.26.2.74.33,1.5.55,2.3s.34,1.61.62,2.49v.07a.657.657,0,0,0,.18.3.719.719,0,0,0,1,0,14.006,14.006,0,0,0,2.9-4.61,17.565,17.565,0,0,0,1.17-5.32,14.389,14.389,0,0,0-.52-5.42,11.386,11.386,0,0,0-.6-1.55c4.58-3.7,9.32-7.2,14.14-10.69h0A2.849,2.849,0,0,0,105.866,231.742Z" fill="#04294f"/><path d="M110.616,279.472c-8.43,5.81-16.75,11.52-24.56,17.86a171.736,171.736,0,0,0-21.77,20.36c-1.66,1.84-3.22,3.73-4.75,5.66-.77,1-1.58,2-2.3,3l-2.15,3c-.72.94-1.38,2-2.08,3s-1.39,2.1-2.05,3.14c-1.32,2.09-2.6,4.22-3.82,6.38s-2.42,4.33-3.55,6.62l-3.29,6.73c-2.18,4.48-4.06,9.24-6.27,13.9a1,1,0,0,1-1.89-.57h0a110.459,110.459,0,0,1,8.74-29.88c1.1-2.38,2.28-4.74,3.57-7,.65-1.15,1.31-2.31,2-3.36s1.41-2.27,2.19-3.39l1.16-1.68,1.14-1.6c.75-1.07,1.54-2.08,2.33-3.1,1.65-2.07,3.35-4.11,5.12-6.05a129.483,129.483,0,0,1,23.82-20.36,159.17,159.17,0,0,1,27.28-14.69,1.21,1.21,0,0,1,1.16,2.12Z" fill="#04294f"/><path d="M197.5,150.012a157.262,157.262,0,0,0-2.15-16.61c-1-5.53-2.3-11.06-3.72-16.57a235.935,235.935,0,0,0-7-22.61c-.22-.05-10.18-1.86-15.71-1.51l4.76-7a85.072,85.072,0,0,0-15.15-3.48l15.3-12.54a177.56,177.56,0,0,0-9.52-16.21,155.125,155.125,0,0,0-10.38-14,136.691,136.691,0,0,0-11.85-12.42,106.891,106.891,0,0,0-27.16-18.37,78.312,78.312,0,0,0-29.17-7.44.533.533,0,0,0-.39.14.669.669,0,0,0,0,.9h0c3.25,4.15,6.35,8.06,9.13,12.11,1.39,2,2.75,4,4,6,.61,1,1.25,2,1.87,3l1.74,3a131.284,131.284,0,0,1,6.08,12.16c.47,1,.87,2,1.29,3.05.09.21.17.42.26.62,5.42.57,11.86,1.57,14.88,3.3a59.571,59.571,0,0,0-11.88,4.84l.13.39c5.39,16.23,7.72,32.48,8.74,48.9.5,8.22.59,16.48.45,24.77l-.16,6.22-.26,6.24c-.16,4.16-.26,8.31-.26,12.49a224.97,224.97,0,0,0,1.32,25.36c.48,4.3,1.11,8.64,2,13,.41,2.19.95,4.4,1.5,6.59.31,1.1.59,2.19.95,3.28q.24.81.54,1.59c.1.25.19.51.3.75s.2.55.37.49c-2.71,17.1,7.9,34.09,23.7,38s30.81-6.87,33.52-24a9.615,9.615,0,0,1,.63-1.29l.55-1c.35-.67.69-1.33,1-2,.66-1.3,1.22-2.6,1.79-3.88,1.08-2.59,2.09-5.17,2.9-7.78a109.331,109.331,0,0,0,3.81-15.86A138.063,138.063,0,0,0,197.5,150.012Z" fill="#ffb400"/><path d="M85.746.042a77.671,77.671,0,0,1,32,7.3,98.919,98.919,0,0,1,14.46,8.08,108.93,108.93,0,0,1,13.06,10.21,141.838,141.838,0,0,1,11.55,11.84,150.789,150.789,0,0,1,10,13.12q4.68,6.819,8.69,14t7.3,14.76q3.349,7.509,6.13,15.25c1.84,5.16,3.46,10.39,4.92,15.66s2.76,10.55,3.83,15.93,2,10.81,2.54,16.28a138.914,138.914,0,0,1-.52,32.92,100.319,100.319,0,0,1-9.41,31.35h0a.991.991,0,0,1-1.82-.771c.88-2.54,1.67-5.079,2.32-7.639s1.27-5.161,1.75-7.76a130.44,130.44,0,0,0,2-15.73,151.78,151.78,0,0,0-1.29-31.53c-.72-5.22-1.72-10.37-2.93-15.53s-2.53-10.32-4-15.4-3.12-10.12-4.9-15.1-3.71-9.91-5.83-14.74-4.43-9.59-6.94-14.22-5.15-9.2-8-13.59a146.159,146.159,0,0,0-19.87-24.39,119.49,119.49,0,0,0-11.92-10.2,105.387,105.387,0,0,0-13.29-8.4,81.548,81.548,0,0,0-30-9.32h0A1.211,1.211,0,0,1,85.7,0h0Z" fill="#04294f"/><path d="M154.316,164.692c.05-1.05.12-2.23.15-3.36s.09-2.29.1-3.45c.11-2.29,0-4.61.08-6.91-.08-4.61-.16-9.21-.46-13.82s-.71-9.19-1.16-13.78c-.29-2.29-.59-4.58-.84-6.88s-.74-4.56-1.11-6.84-.87-4.54-1.32-6.81l-.7-3.4-.35-1.71-.44-1.68c-.59-2.24-1.19-4.48-1.74-6.74a28.571,28.571,0,0,0-1-3.35l-1-3.33c-.74-2.2-1.26-4.5-2.14-6.66s-1.6-4.38-2.38-6.6-1.72-4.35-2.59-6.53-1.78-4.36-2.66-6.56h0a.63.63,0,0,1,.349-.82h0a.62.62,0,0,1,.77.25c1.28,2,2.56,4,3.81,6a62.722,62.722,0,0,1,3.6,6.18c2.2,4.23,4.45,8.47,6.23,12.92a157.324,157.324,0,0,1,8.91,27.36,145.218,145.218,0,0,1,3.91,28.61,137.232,137.232,0,0,1-.23,14.47,89.943,89.943,0,0,1-2.19,14.44,2.85,2.85,0,0,1-5.61-.82Z" fill="#04294f"/><path d="M157.636,151.852a13.949,13.949,0,0,1-3.78-.51,18.376,18.376,0,0,1-3.39-1.32,22,22,0,0,1-5.8-4.36,27.3,27.3,0,0,1-2.37-2.77c-.35-.5-.69-1-1-1.52l-.48-.77-.41-.82c-.28-.54-.54-1.09-.77-1.64a17.377,17.377,0,0,1-.58-1.72,9.362,9.362,0,0,1-.43-1.76c-.1-.59-.19-1.18-.24-1.78a.679.679,0,0,1,.62-.73.669.669,0,0,1,.49.15h0c1.82,1.49,3.34,2.9,5,4.12.78.64,1.66,1.19,2.44,1.79a24.215,24.215,0,0,0,2.49,1.61c1.66,1.05,3.35,2,5,3,.83.51,1.65,1.06,2.47,1.63a17.053,17.053,0,0,1,2.31,1.86l.51.53a2.931,2.931,0,0,1-2.11,4.94Z" fill="#04294f"/><path d="M150.5,100a6.665,6.665,0,0,1-2.19.58,7.453,7.453,0,0,1-2-.13,9.016,9.016,0,0,1-3.56-1.76,10.658,10.658,0,0,1-2.72-3,8.075,8.075,0,0,1-1.18-4,.808.808,0,0,1,.79-.82h.2c1.4.21,2.43.48,3.49.61l2.8.47a10.441,10.441,0,0,1,2.5.64,6.519,6.519,0,0,1,1.18.65,3.432,3.432,0,0,1,1,1.06l1,2a2.68,2.68,0,0,1-1.23,3.585l-.01,0Z" fill="#04294f"/><path d="M156.4,121.972a.224.224,0,0,1,.09-.2,1.377,1.377,0,0,1,.15-.22l.35-.43c.24-.26.47-.54.72-.78.48-.51,1-1,1.47-1.43,1-.92,2-1.71,3-2.67a32.394,32.394,0,0,0,3-3.22c.54-.58.94-1.26,1.5-1.92s1-1.41,1.59-2.16l.05-.06a.71.71,0,0,1,1-.1h0a.688.688,0,0,1,.22.32,13,13,0,0,1,.62,5.81,15.105,15.105,0,0,1-1.85,5.76,13.708,13.708,0,0,1-4,4.67,12.089,12.089,0,0,1-2.75,1.46,11.283,11.283,0,0,1-1.53.42,12.223,12.223,0,0,1-1.76.16,2.85,2.85,0,1,1-1.917-5.369c.042-.015.084-.028.127-.041Z" fill="#04294f"/><ellipse cx="148.596" cy="207.442" rx="28.94" ry="32.1" fill="#04294f"/><path d="M169.8,207.442c0,14-10.2,25.27-22.78,25.27s-43.55-11.31-43.55-25.27,31-25.26,43.55-25.26S169.8,193.492,169.8,207.442Z" fill="#fff"/><path d="M142.486,185.532a19.511,19.511,0,0,1,11.56,8.07,24.874,24.874,0,0,1,4.38,13.92,23.708,23.708,0,0,1-4.25,14c-2.85,4-7.18,7.1-11.91,7.68a1,1,0,0,1-1.142-.835c0-.022-.006-.043-.008-.065a1.048,1.048,0,0,1,.3-.87h0a29.475,29.475,0,0,0,6.67-9.45,28,28,0,0,0,2.35-10.47,25.32,25.32,0,0,0-2.09-10.6,24.9,24.9,0,0,0-6.91-9.17h0a1.249,1.249,0,0,1-.15-1.75A1.227,1.227,0,0,1,142.486,185.532Z" fill="#00aee0"/><path d="M131.956,187.992a13.338,13.338,0,0,1,4.89,3.28,19.207,19.207,0,0,1,3.42,4.84,26.009,26.009,0,0,1,2.68,11.39,24.639,24.639,0,0,1-2.55,11.46,18.27,18.27,0,0,1-3.53,4.81,12.018,12.018,0,0,1-5.08,3.05.77.77,0,0,1-.94-.541.739.739,0,0,1,.15-.69h0a23.473,23.473,0,0,0,4.49-8.62,35.73,35.73,0,0,0,1.46-9.44,32.293,32.293,0,0,0-1.26-9.52,20.221,20.221,0,0,0-4.71-8.43h0a.93.93,0,0,1,1-1.52Z" fill="#00aee0"/><path d="M41.326,56.352a82.81,82.81,0,0,1,6.11-11.75,109.33,109.33,0,0,1,7.67-10.78,87.874,87.874,0,0,1,9-9.7,57.245,57.245,0,0,1,10.71-7.9.76.76,0,0,1,1,1.09c-2.47,3.72-5.18,7.08-7.87,10.44s-5.48,6.6-8.25,9.87l-8.3,9.87c-2.8,3.28-5.56,6.61-8.56,9.84a.92.92,0,0,1-1.53-1Z" fill="#ffb400"/><path d="M28.746,78.742a8.565,8.565,0,0,1,0-3.27,10.973,10.973,0,0,1,.88-2.82,7.6,7.6,0,0,1,1.66-2.42,6.655,6.655,0,0,1,3-1.66,1.08,1.08,0,0,1,1.28.69h0a6.946,6.946,0,0,1,.34,3.45,7.575,7.575,0,0,1-1,2.69,10.725,10.725,0,0,1-1.8,2.28,9.356,9.356,0,0,1-2.71,1.84h0a1.152,1.152,0,0,1-1.518-.585l0,0A2,2,0,0,1,28.746,78.742Z" fill="#ffb400"/><path d="M56.656,381.692a95.2,95.2,0,0,1-10.43-11.1,125.166,125.166,0,0,1-8.83-12.42,111.367,111.367,0,0,1-7.24-13.391,76.148,76.148,0,0,1-5-14.429.75.75,0,0,1,.563-.9h.007a.767.767,0,0,1,.77.29c3,4.11,5.66,8.35,8.29,12.57s5.12,8.49,7.66,12.74,5.13,8.47,7.74,12.69,5.28,8.43,7.84,12.79a.93.93,0,0,1-1.41,1.16Z" fill="#ffb400"/><path d="M338.3,197.422a146.982,146.982,0,0,1,1.66,17.51,168.837,168.837,0,0,1-.3,17.57,144.553,144.553,0,0,1-2.14,17.46c-.55,2.88-1.19,5.74-2,8.58a74.89,74.89,0,0,1-2.7,8.41.75.75,0,0,1-.963.444l-.037-.014a.771.771,0,0,1-.48-.7h0c0-3,.16-5.85.31-8.75s.34-5.78.56-8.65c.44-5.75.94-11.48,1.43-17.209l1.35-17.231c.49-5.76.72-11.53,1.42-17.34h0a.91.91,0,0,1,1.81,0Z" fill="#ffb400"/><path d="M331.666,143.172a8.881,8.881,0,0,1,2.08,2.61,11.659,11.659,0,0,1,1.09,2.83,8.378,8.378,0,0,1,.23,3,6.77,6.77,0,0,1-1.31,3.26,1.071,1.071,0,0,1-1.43.26h0a7.175,7.175,0,0,1-2.43-2.56,7.87,7.87,0,0,1-.9-2.82,11.413,11.413,0,0,1,0-3,9.319,9.319,0,0,1,1-3.21h0a.96.96,0,0,1,1.67-.37Z" fill="#ffb400"/><path d="M22.946,165.612a87.447,87.447,0,0,1,.71-13.06,116.5,116.5,0,0,1,2.32-12.86,95.77,95.77,0,0,1,3.77-12.45,61.5,61.5,0,0,1,5.87-11.73.769.769,0,0,1,1.06-.22.781.781,0,0,1,.33.72,114.426,114.426,0,0,1-2.21,12.76c-.92,4.17-2,8.28-3,12.39s-2.16,8.23-3.29,12.35-2.3,8.25-3.73,12.36a.921.921,0,0,1-1.164.582l-.006,0A1,1,0,0,1,22.946,165.612Z" fill="#ffb400"/><path d="M317.746,233.692a46.469,46.469,0,0,1,.5,8.62,71,71,0,0,1-.77,8.5,53.173,53.173,0,0,1-1.89,8.32,32.258,32.258,0,0,1-3.65,7.9.8.8,0,0,1-1.1.22.819.819,0,0,1-.34-.55,40.6,40.6,0,0,1-.09-8.6,78.568,78.568,0,0,1,1.18-8.28c.51-2.74,1.09-5.46,1.79-8.18a64.132,64.132,0,0,1,2.56-8.14.94.94,0,0,1,1.219-.531h0A1,1,0,0,1,317.746,233.692Z" fill="#ffb400"/><path d="M316.186,172.852a61.268,61.268,0,0,1,2.6,10,89.194,89.194,0,0,1,1.24,10.15,69.59,69.59,0,0,1,0,10.21,43.94,43.94,0,0,1-1.89,10.17.78.78,0,0,1-.98.506l-.02-.006a.76.76,0,0,1-.49-.5h0a37.438,37.438,0,0,1-1.17-5c-.31-1.68-.54-3.35-.74-5-.38-3.34-.57-6.67-.69-10s-.2-6.67-.17-10,.12-6.73.48-10.16a.94.94,0,0,1,1.81-.22Z" fill="#ffb400"/><path d="M296.246,99.392a30.067,30.067,0,0,1,4,5.52,45.9,45.9,0,0,1,2.93,6,34.693,34.693,0,0,1,2,6.41,21.5,21.5,0,0,1,.29,6.92.82.82,0,0,1-.924.7h-.006a.868.868,0,0,1-.48-.25,25.173,25.173,0,0,1-3.87-5.64,43.6,43.6,0,0,1-2.55-6c-.73-2.05-1.37-4.14-1.9-6.28a38.344,38.344,0,0,1-1.15-6.65,1,1,0,0,1,.89-1A.907.907,0,0,1,296.246,99.392Z" fill="#ffb400"/><path d="M73.056,49.062a65.4,65.4,0,0,1,6.77-9.7,84.28,84.28,0,0,1,8.2-8.51,68.23,68.23,0,0,1,9.4-7.2,44.734,44.734,0,0,1,10.76-5.08.764.764,0,0,1,.78,1.25,108.7,108.7,0,0,1-8.38,8.05c-2.83,2.56-5.73,5-8.61,7.46l-8.64,7.47c-2.91,2.48-5.79,5-8.89,7.44a.941.941,0,0,1-1.31-.16A1,1,0,0,1,73.056,49.062Z" fill="#ffb400"/><path d="M84.986,68.372a14.545,14.545,0,0,1,1.49-4.3,21.085,21.085,0,0,1,2.4-3.61,14.559,14.559,0,0,1,3.16-3,10.345,10.345,0,0,1,4.34-1.77.939.939,0,0,1,1.05.78,1.045,1.045,0,0,1,0,.25h0a12.016,12.016,0,0,1-1.53,4.33,17.3,17.3,0,0,1-2.54,3.31,26.21,26.21,0,0,1-3.1,2.81,16.773,16.773,0,0,1-3.84,2.27h0a1,1,0,0,1-1.327-.49c-.012-.026-.023-.053-.033-.08A1,1,0,0,1,84.986,68.372Z" fill="#ffb400"/><path d="M52.356,132.342a84.071,84.071,0,0,1,2.82-13.08,109.946,109.946,0,0,1,4.57-12.57,88.921,88.921,0,0,1,6.14-11.88,57.949,57.949,0,0,1,8.25-10.61.76.76,0,0,1,1.25.78c-1.39,4.28-3.12,8.28-4.83,12.29s-3.54,7.92-5.36,11.85l-5.45,11.86c-1.85,4-3.64,8-5.7,11.89a.92.92,0,0,1-1.73-.53Z" fill="#ffb400"/><path d="M45.436,160.692a9.224,9.224,0,0,1-.91-3.25,12.044,12.044,0,0,1,.1-3.07,8.235,8.235,0,0,1,1-2.9,6.737,6.737,0,0,1,2.47-2.54,1.059,1.059,0,0,1,1.42.31h0a7.286,7.286,0,0,1,1.25,3.34,8.254,8.254,0,0,1-.26,3,11.788,11.788,0,0,1-1.13,2.8,9.394,9.394,0,0,1-2.12,2.63h0a1.129,1.129,0,0,1-1.594-.114l-.006-.006A.875.875,0,0,1,45.436,160.692Z" fill="#ffb400"/><path d="M72.616,330.522a43.063,43.063,0,0,1-5.61-6.73,63.876,63.876,0,0,1-4.42-7.481,49.9,49.9,0,0,1-3.3-8,32.011,32.011,0,0,1-1.52-8.69.787.787,0,0,1,1.38-.53,42.589,42.589,0,0,1,5,7.11c1.42,2.45,2.66,5,3.84,7.52s2.31,5.12,3.36,7.74a77.357,77.357,0,0,1,2.85,8.13,1,1,0,0,1-.66,1.16A.92.92,0,0,1,72.616,330.522Z" fill="#ffb400"/><path d="M84.066,347.332A8.12,8.12,0,0,1,81.2,346a10.325,10.325,0,0,1-2.08-2,7.191,7.191,0,0,1-1.37-2.49,6.2,6.2,0,0,1-.06-3.34,1.109,1.109,0,0,1,1.19-.83h0a6.671,6.671,0,0,1,3.18,1.16,6.782,6.782,0,0,1,1.88,2,9.9,9.9,0,0,1,1.16,2.53,8.685,8.685,0,0,1,.37,3.16v.05a1.171,1.171,0,0,1-1.24,1.09A.713.713,0,0,1,84.066,347.332Z" fill="#ffb400"/><path d="M295.166,239.692a24.942,24.942,0,0,1,.79,6.05,37.951,37.951,0,0,1-.36,5.94,27.608,27.608,0,0,1-1.36,5.78,17.635,17.635,0,0,1-3,5.43.851.851,0,0,1-1.19.09,1,1,0,0,1-.26-.4,20.073,20.073,0,0,1-.73-6.08,34.492,34.492,0,0,1,.69-5.81,51.119,51.119,0,0,1,1.39-5.66,29.68,29.68,0,0,1,2.28-5.59,1,1,0,0,1,1.8.21Z" fill="#ffb400"/><path d="M262.946,82.2a104.841,104.841,0,0,1,10.21,14.77,137.631,137.631,0,0,1,8,16.11,127.582,127.582,0,0,1,5.78,17c.75,2.9,1.37,5.83,1.88,8.78.26,1.47.45,3,.66,4.44s.31,3,.39,4.5a.75.75,0,0,1-.708.789h0a.772.772,0,0,1-.72-.44h0c-1.24-2.74-2.3-5.5-3.37-8.24l-3.21-8.22c-2.08-5.48-4.12-10.93-6.27-16.35s-4.43-10.79-6.79-16.14-4.89-10.64-7.38-16a.919.919,0,0,1,.45-1.22A.9.9,0,0,1,262.946,82.2Z" fill="#ffb400"/><path d="M78.016,128.692a10.52,10.52,0,0,1-.18-3.68,13.506,13.506,0,0,1,.83-3.3,9.779,9.779,0,0,1,1.69-2.93,7.721,7.721,0,0,1,3.14-2.22,1,1,0,0,1,1.3.556c.007.018.014.035.02.054h0a8.292,8.292,0,0,1,.32,3.77,10.036,10.036,0,0,1-1,3.12,14.615,14.615,0,0,1-1.76,2.8,11.544,11.544,0,0,1-2.66,2.46h0a1.111,1.111,0,0,1-1.538-.317l0,0A1.185,1.185,0,0,1,78.016,128.692Z" fill="#ffb400"/><path d="M115.626,344.382a53.843,53.843,0,0,1-9.37-7,72.262,72.262,0,0,1-7.94-8.56,65.914,65.914,0,0,1-6.45-9.7,45.776,45.776,0,0,1-4.3-10.88.77.77,0,0,1,.567-.93h0a.778.778,0,0,1,.72.21,104.273,104.273,0,0,1,7.43,8.72c2.31,3,4.52,5.95,6.75,8.93s4.51,5.92,6.82,8.87,4.66,5.87,7,9a.92.92,0,0,1-1.2,1.359Z" fill="#ffb400"/><path d="M258.356,124.322a60.063,60.063,0,0,1,5.37,9.53,86.4,86.4,0,0,1,3.88,10.18,71.316,71.316,0,0,1,2.49,10.6,45.617,45.617,0,0,1,.41,11,.77.77,0,0,1-1.45.28,74.034,74.034,0,0,1-4.1-10c-1.14-3.35-2.13-6.73-3.08-10.13s-1.89-6.79-2.78-10.23-1.75-6.89-2.42-10.47a.93.93,0,0,1,1.68-.71Z" fill="#ffb400"/><path d="M104.276,84.012a35.853,35.853,0,0,1,4.49-7.15,48.722,48.722,0,0,1,5.73-6.12,38.469,38.469,0,0,1,6.77-5,25.412,25.412,0,0,1,8-3.08.8.8,0,0,1,.92.64.833.833,0,0,1-.14.62h0a52.914,52.914,0,0,1-5.59,6.06c-1.94,1.83-4,3.55-6,5.25s-4.07,3.4-6.17,5.07-4.24,3.34-6.6,4.88a.941.941,0,0,1-1.3-.261l-.006-.009A1,1,0,0,1,104.276,84.012Z" fill="#ffb400"/><path d="M144.046,436.792a80.573,80.573,0,0,1-16.71-2.85,99.811,99.811,0,0,1-15.95-5.89,94.791,94.791,0,0,1-14.72-8.49c-1.15-.84-2.29-1.67-3.41-2.54s-2.18-1.81-3.26-2.72-2.09-1.92-3.12-2.88a32.908,32.908,0,0,1-2.91-3.1.741.741,0,0,1,.053-1.046l.017-.014a.748.748,0,0,1,.82-.11h0c1.27.61,2.49,1.29,3.72,1.95s2.45,1.3,3.64,2l7.23,4c4.8,2.62,9.6,5.19,14.49,7.58s9.87,4.59,14.94,6.64,10.25,3.86,15.51,5.71a.91.91,0,0,1,.565,1.156l0,.014A.932.932,0,0,1,144.046,436.792Z" fill="#ffb400"/><path d="M297.446,355.782a38.432,38.432,0,0,1-2.83,7.43,56.871,56.871,0,0,1-4,6.79,43.019,43.019,0,0,1-4.9,6.13,27.029,27.029,0,0,1-6.32,4.95.8.8,0,0,1-1.087-.315l0,0a.887.887,0,0,1-.06-.62,35.762,35.762,0,0,1,3.26-7.2,66.935,66.935,0,0,1,4.23-6.38c1.5-2.05,3.06-4.07,4.72-6a55.307,55.307,0,0,1,5.4-5.69,1,1,0,0,1,1.34.07A.93.93,0,0,1,297.446,355.782Z" fill="#ffb400"/><path d="M250.746,380.552a13.906,13.906,0,0,1-2,4,19.6,19.6,0,0,1-2.82,3.18,14.349,14.349,0,0,1-3.47,2.42,10.113,10.113,0,0,1-4.47,1.09.93.93,0,0,1-.92-.94h0a.806.806,0,0,1,0-.23h0a11.433,11.433,0,0,1,2.05-4,16.345,16.345,0,0,1,2.91-2.86,25.062,25.062,0,0,1,3.4-2.28,16.447,16.447,0,0,1,4.06-1.64h0a1,1,0,0,1,1.246.667.9.9,0,0,1,.024.093A1.188,1.188,0,0,1,250.746,380.552Z" fill="#ffb400"/><path d="M254.086,344.242a65.9,65.9,0,0,1-6.34,10.45,81.14,81.14,0,0,1-8,9.3,67.017,67.017,0,0,1-9.35,7.93,44.975,44.975,0,0,1-10.93,5.69.76.76,0,0,1-.81-1.23c2.73-3.08,5.58-5.8,8.4-8.55l8.51-8.1c2.82-2.72,5.62-5.47,8.43-8.25s5.6-5.59,8.6-8.33a.93.93,0,0,1,1.31.06A.94.94,0,0,1,254.086,344.242Z" fill="#ffb400"/><path d="M269.3,335.022c-2.14,5.59-5.77,14.35-5.2,16,.71,2,12.68-.85,17-10.28,1.95-4.08.82-8.15-1.61-9.64l-.06-.05C275.426,328.412,270.926,331.142,269.3,335.022Z" fill="#f04e23"/><path d="M269.746,344.112a21.854,21.854,0,0,1,1.09-2.91c.39-.9.8-1.76,1.21-2.6s.8-1.65,1.29-2.45a19.366,19.366,0,0,1,1.79-2.54h0a.579.579,0,0,1,.817-.073l0,0a.7.7,0,0,1,.13.17,5.877,5.877,0,0,1,.59,3.54,8.922,8.922,0,0,1-1.13,3.25,11.273,11.273,0,0,1-2.08,2.66,8.76,8.76,0,0,1-2.89,1.85.661.661,0,0,1-.849-.388v0a.639.639,0,0,1,0-.41Z" fill="#04294f"/><path d="M14.136,221.922c.74,5.94,1.64,15.39,2.94,16.61,1.58,1.46,10.8-6.71,10.15-17-.19-4.52-3.1-7.58-5.94-7.76h-.08C16.456,213.212,13.746,217.692,14.136,221.922Z" fill="#f04e23"/><path d="M18.8,229.752a22.034,22.034,0,0,1-.4-3.08c-.08-1-.12-1.94-.15-2.87a25.6,25.6,0,0,1,0-2.77,19.091,19.091,0,0,1,.38-3.08v-.05a.589.589,0,0,1,.7-.44.65.65,0,0,1,.19.09,5.868,5.868,0,0,1,2.23,2.84,8.7,8.7,0,0,1,.53,3.41,11.271,11.271,0,0,1-.59,3.32,8.615,8.615,0,0,1-1.69,3,.651.651,0,0,1-.917.071l-.013-.011a.7.7,0,0,1-.21-.36Z" fill="#04294f"/><path d="M242.416,46.172c-5.58-2.2-14.3-5.92-16-5.36-2,.68.72,12.69,10.11,17.06,4,2,8.14.91,9.65-1.51l.05-.06C248.956,52.372,246.266,47.842,242.416,46.172Z" fill="#ffb400"/><path d="M233.316,46.512a24.733,24.733,0,0,1,2.9,1.12c.9.41,1.75.82,2.58,1.24s1.65.82,2.44,1.32a19.24,19.24,0,0,1,2.52,1.81h0a.579.579,0,0,1,.051.818v0a.5.5,0,0,1-.16.13,5.919,5.919,0,0,1-3.55.56,8.692,8.692,0,0,1-3.24-1.17,11.428,11.428,0,0,1-2.64-2.11,8.657,8.657,0,0,1-1.82-2.91.659.659,0,0,1,.4-.84.639.639,0,0,1,.41,0Z" fill="#04294f"/><path d="M285.106,168.692c3,5.21,7.42,13.58,9.08,14.21,2,.75,7.41-10.33,2.84-19.62-1.9-4.11-5.76-5.82-8.46-4.89h-.08C283.906,159.772,283.156,164.982,285.106,168.692Z" fill="#f04e23"/><path d="M292.406,174.142a21.906,21.906,0,0,1-1.55-2.69c-.45-.88-.85-1.74-1.24-2.59s-.76-1.66-1.07-2.55a18.142,18.142,0,0,1-.82-3h0a.569.569,0,0,1,.452-.667l.018,0a.5.5,0,0,1,.21,0,5.939,5.939,0,0,1,3.11,1.79,8.711,8.711,0,0,1,1.79,3,11.4,11.4,0,0,1,.73,3.29,8.6,8.6,0,0,1-.41,3.41.671.671,0,0,1-.84.41.707.707,0,0,1-.33-.25Z" fill="#04294f"/><path d="M46.746,84.472c0,6-.29,15.47.85,16.84,1.38,1.65,11.55-5.31,12.18-15.64.38-4.51-2.13-7.91-4.93-8.44h-.08C50.076,76.112,46.846,80.272,46.746,84.472Z" fill="#f04e23"/><path d="M50.346,92.812a23.055,23.055,0,0,1,0-3.11c0-1,.12-1.93.21-2.86a25.661,25.661,0,0,1,.33-2.75,19.108,19.108,0,0,1,.76-3h0a.58.58,0,0,1,.74-.35.523.523,0,0,1,.18.1,5.938,5.938,0,0,1,1.82,3.1,9.144,9.144,0,0,1,.1,3.45,11.626,11.626,0,0,1-1,3.22,8.847,8.847,0,0,1-2,2.76.671.671,0,0,1-.94-.06.642.642,0,0,1-.16-.38Z" fill="#04294f"/><path d="M.476,199.132c-.27-5.26-.92-13.57,0-14.82,1.15-1.51,10.37,4.16,11.37,13.2.53,3.94-1.53,7-4,7.62h-.07C3.806,206.322.746,202.812.476,199.132Z" fill="#ffb400"/><path d="M4.326,191.122a7.386,7.386,0,0,1,2,2.3,9.644,9.644,0,0,1,1.06,2.81,7.387,7.387,0,0,1,0,3.07,5.116,5.116,0,0,1-1.61,2.81.611.611,0,0,1-.86-.07h0a.722.722,0,0,1-.07-.12v-.05a14.246,14.246,0,0,1-1-2.6,16.943,16.943,0,0,1-.44-2.35c-.11-.8-.2-1.62-.26-2.48a15.9,15.9,0,0,1,0-2.76v-.08a.668.668,0,0,1,.732-.6h.008A.626.626,0,0,1,4.326,191.122Z" fill="#04294f"/><path d="M76.306,357.792c-5.43-4.39-13.83-11.58-15.91-11.55-2.51.05-3.64,14.36,5.27,22.5,3.81,3.64,8.74,3.86,11.27,1.7l.07-.05C81.406,366.982,80,361,76.306,357.792Z" fill="#f04e23"/><path d="M65.976,355.042a35.685,35.685,0,0,1,2.7,2.37l2.42,2.35c.79.78,1.57,1.51,2.32,2.33a31.493,31.493,0,0,1,2.31,2.73h0a.56.56,0,0,1-.13.78.641.641,0,0,1-.26.1,7.242,7.242,0,0,1-4-.79,10.641,10.641,0,0,1-3.13-2.42,14.015,14.015,0,0,1-2.22-3.2,10.7,10.7,0,0,1-1.13-3.75.659.659,0,0,1,.58-.71.665.665,0,0,1,.46.13Z" fill="#04294f"/><path d="M368.356,221.932c-1.73-6.76-4.17-17.55-5.85-18.77-2-1.46-11.49,9.35-9.21,21.2.88,5.2,4.69,8.31,8,8.09h.1C366.966,232.352,369.406,226.692,368.356,221.932Z" fill="#f04e23"/><path d="M361.746,213.552a33.172,33.172,0,0,1,.75,3.52l.54,3.329c.17,1.1.36,2.15.47,3.25a29.393,29.393,0,0,1,.22,3.57v.05a.551.551,0,0,1-.56.541h-.01a.577.577,0,0,1-.27-.07,7.078,7.078,0,0,1-2.73-3,10.732,10.732,0,0,1-1.07-3.81,13.979,13.979,0,0,1,.14-3.88,10.566,10.566,0,0,1,1.33-3.69.639.639,0,0,1,.875-.228l.015.008a.614.614,0,0,1,.29.38Z" fill="#04294f"/><path d="M247.346,86.692a4,4,0,0,1-3.92-4.78,3.753,3.753,0,0,1,.22-.75,4.97,4.97,0,0,1,.37-.69,4.184,4.184,0,0,1,.5-.61,4,4,0,0,1,5.657,0l0,0a3.6,3.6,0,0,1,.49.61,3.548,3.548,0,0,1,.37.69,3.827,3.827,0,0,1,.23.75,4,4,0,0,1-3.143,4.7A4.054,4.054,0,0,1,247.346,86.692Z" fill="#04294f"/><path d="M44.746,390.622a4,4,0,0,1-4-4,3.958,3.958,0,0,1,.077-.776,3.753,3.753,0,0,1,.22-.75,4.914,4.914,0,0,1,.37-.69,4.184,4.184,0,0,1,.5-.61,4,4,0,0,1,5.657,0l0,0a3.6,3.6,0,0,1,.49.61,3.548,3.548,0,0,1,.37.69,3.827,3.827,0,0,1,.23.75,4,4,0,0,1-3.143,4.7A4.054,4.054,0,0,1,44.746,390.622Z" fill="#04294f"/><path d="M70.486,66.592a4,4,0,0,1-3.92-4.78,3.753,3.753,0,0,1,.22-.75,4.97,4.97,0,0,1,.37-.69,4.184,4.184,0,0,1,.5-.61,4,4,0,0,1,5.657,0l0,0a3.6,3.6,0,0,1,.49.61,3.548,3.548,0,0,1,.37.69,3.827,3.827,0,0,1,.23.75,4,4,0,0,1-3.92,4.78Z" fill="#04294f"/><path d="M341.576,134.922a4,4,0,0,1-4-4,3.958,3.958,0,0,1,.077-.776,3.753,3.753,0,0,1,.22-.75,4.914,4.914,0,0,1,.37-.69,4.184,4.184,0,0,1,.5-.61,4,4,0,0,1,5.657,0l0,0a3.65,3.65,0,0,1,.49.61,3.548,3.548,0,0,1,.37.69,3.827,3.827,0,0,1,.23.75,4,4,0,0,1-3.92,4.78Z" fill="#04294f"/><path d="M341.576,171.6a3.09,3.09,0,0,1-3.07-3.08,2.917,2.917,0,0,1,.06-.59,2.719,2.719,0,0,1,.17-.58,4.252,4.252,0,0,1,.29-.53,2.822,2.822,0,0,1,.38-.47,3.07,3.07,0,0,1,4.34,0,2.822,2.822,0,0,1,.38.47,2.24,2.24,0,0,1,.28.53,2.786,2.786,0,0,1,.18.58,3.084,3.084,0,0,1-3.01,3.67Z" fill="#04294f"/><path d="M132.686,340.852a3,3,0,0,1-2.17-.91,3.078,3.078,0,0,1-.9-2.16,3.084,3.084,0,0,1,.51-1.71,3.512,3.512,0,0,1,.39-.47,3,3,0,0,1,2.17-.89,3.119,3.119,0,0,1,2.17.89,2.822,2.822,0,0,1,.38.47,3.35,3.35,0,0,1,.28.53,3.007,3.007,0,0,1,.24,1.18,3.09,3.09,0,0,1-3.07,3.07Z" fill="#04294f"/><path d="M63.986,146.432a3.09,3.09,0,0,1-3.07-3.07,2.953,2.953,0,0,1,.07-.6,2.9,2.9,0,0,1,.16-.58,5.335,5.335,0,0,1,.29-.53,2.75,2.75,0,0,1,.38-.46,3,3,0,0,1,2.17-.9,3.083,3.083,0,0,1,2.18.9,2.348,2.348,0,0,1,.37.46,3.026,3.026,0,0,1,.29.53,3.894,3.894,0,0,1,.18.58,4.012,4.012,0,0,1,.06.6,3,3,0,0,1-.9,2.16A3.1,3.1,0,0,1,63.986,146.432Z" fill="#04294f"/></g></g>
            </g>
        </g>
    </g>
    
    <!-- ITEM 3 -->
    <g>
        <defs>
            <clipPath id="clip-path-id-viewbox-item-3">
                <rect x="0.0" y="0.0" width="79.842" height="70.016"/>
            </clipPath>
        </defs>
        <g transform="translate(1083.0 925.0) rotate(0.0 74.5 65.5) scale(1.8661857167906615 1.8710009140767823)">
            <g clip-path="url(#clip-path-id-viewbox-item-3)" transform="translate(-0.0 -0.0)">
                
<g>
	<path fill="#00aee0" d="M48.969,30.018l-0.31-0.27c-1.84-1.58-3.75-3.06-5.66-4.52c-1-0.77-2.06-1.5-3.09-2.25   c1.6-2.89,3.14-5.81,4.6-8.79c1-2,2-4.08,2.87-6.17c0.47-1,0.91-2.08,1.33-3.14s0.85-2.13,1.23-3.21   c0.163-0.46,0.042-0.972-0.31-1.31c-0.489-0.478-1.271-0.478-1.76,0c-0.79,0.84-1.56,1.69-2.3,2.56s-1.48,1.73-2.19,2.62   c-1.45,1.76-2.83,3.55-4.18,5.36c-2.71,3.63-5.27,7.35-7.73,11.12c-1.04,1.632-0.687,3.785,0.82,5l0.17,0.14   c1.9,1.5,3.82,3,5.75,4.41c1.11,0.81,2.23,1.6,3.36,2.39c-0.42,0.84-0.86,1.67-1.27,2.52c-0.92,1.9-1.82,3.82-2.68,5.76   s-1.7,3.89-2.49,5.87s-1.54,4-2.21,6c-0.098,0.361,0.014,0.747,0.29,1c0.407,0.373,1.04,0.345,1.413-0.062   c0.002-0.003,0.005-0.005,0.007-0.008c1.45-1.61,2.8-3.26,4.12-4.94s2.59-3.38,3.82-5.1s2.45-3.46,3.63-5.21s2.34-3.53,3.47-5.31   C50.524,33.014,50.232,31.15,48.969,30.018z"/>
	<path fill="#00aee0" d="M78.419,46.468c-1.324,0.143-2.64,0.36-3.94,0.65c-1.28,0.29-2.53,0.63-3.77,1   c-2.458,0.747-4.872,1.632-7.23,2.65c-1.889,0.807-2.766,2.993-1.959,4.883c0.058,0.136,0.125,0.269,0.199,0.397l0.18,0.32   c0.813,1.4,1.653,2.787,2.52,4.16l0.69,1c-0.79,0.56-1.58,1.14-2.34,1.75c-0.96,0.74-1.89,1.52-2.79,2.34   c-0.927,0.832-1.808,1.713-2.64,2.64c-0.196,0.23-0.29,0.529-0.26,0.83c0.073,0.579,0.6,0.991,1.18,0.92   c1.234-0.166,2.459-0.397,3.67-0.69c1.193-0.287,2.363-0.62,3.51-1c1.15-0.35,2.28-0.75,3.4-1.18s2.23-0.87,3.32-1.35l0.15-0.07   c1.722-0.862,2.421-2.957,1.56-4.68l-0.29-0.58c-0.73-1.46-1.56-2.86-2.4-4.24c-0.15-0.24-0.32-0.47-0.47-0.71   c0.92-0.58,1.84-1.19,2.73-1.82c1.06-0.75,2.09-1.53,3.11-2.36c1.027-0.847,2.005-1.752,2.93-2.71c0.254-0.269,0.384-0.631,0.36-1   C79.755,46.914,79.126,46.404,78.419,46.468z"/>
	<path fill="#00aee0" d="M13.839,53.568c-0.252-1.12-0.565-2.225-0.94-3.31c-0.37-1.06-0.77-2.1-1.22-3.11s-0.9-2-1.4-3l-0.19-0.36   l0.79-1.11c0.64-1,1.24-2,1.82-3l0.23-0.39c0.745-1.313,0.589-2.951-0.39-4.1c-1.512-1.799-3.132-3.506-4.85-5.11   c-0.87-0.81-1.78-1.59-2.72-2.34c-0.955-0.763-1.957-1.464-3-2.1c-0.299-0.184-0.662-0.235-1-0.14   c-0.69,0.178-1.105,0.881-0.928,1.571c0.003,0.01,0.005,0.02,0.008,0.029c0.326,1.184,0.727,2.346,1.2,3.48   c0.47,1.12,1,2.2,1.51,3.26c0.63,1.24,1.32,2.43,2,3.61c-0.18,0.28-0.39,0.55-0.57,0.83c-0.624,0.967-1.191,1.968-1.7,3l-0.36,0.78   c-0.529,1.123-0.365,2.449,0.42,3.41c0.68,0.85,1.4,1.67,2.14,2.48s1.5,1.6,2.3,2.37s1.62,1.51,2.48,2.24   c0.881,0.734,1.803,1.418,2.76,2.05c0.236,0.154,0.524,0.208,0.8,0.15C13.565,54.63,13.916,54.114,13.839,53.568z"/>
</g>

            </g>
        </g>
    </g>
    
</svg>