<svg enable-background="new 0 0 2359.522 1774.018" height="1775" viewBox="0 0 2359.522 1774.018" width="2360" xmlns="http://www.w3.org/2000/svg"><path d="m2269.937 778.075c-3.37 7.17-6.8 14.38-10.28 21.62-15.52 32.3-32.03 65.22-49.51 98.46-50.98 96.96-110.11 196.65-176.23 291.81v.01c-122 175.57-267.78 335.71-430.14 434.94-8.03 4.91-16.13 9.71-24.31 14.4h-.01c-293.26 168.22-674.98 193.24-958.66-7.38-8.11-5.73-16.11-11.61-24-17.64-114.06-86.91-205.63-202.05-288.78-322.65-16.76-24.3-33.17-48.82-49.36-73.38-49.71-75.42-98.77-153.46-140.95-235.02-9.33-18.02-18.32-36.21-26.91-54.59-6.79-14.52-13.33-29.16-19.58-43.92-27.64-65.24-49.73-132.79-63.42-203.06-32.11-164.88 37.47-327.7 162.54-429.31 114.09-92.68 257.71-135.02 398.97-166.63 359.99-80.54 731.5-104.59 1098.27-71.07 247.24 22.59 672.32 79.63 691.24 414.32 6.87 121.61-37.46 239.8-88.88 349.09z" fill="#04294f"/><path d="m2210.147 898.155c-50.98 96.96-110.11 196.65-176.23 291.81v.01c-122 175.57-267.78 335.71-430.14 434.94-8.03 4.91-16.13 9.71-24.31 14.4h-.01c-293.26 168.22-674.98 193.24-958.66-7.38-8.11-5.73-16.11-11.61-24-17.64-114.06-86.91-205.63-202.05-288.78-322.65-16.76-24.3-33.17-48.82-49.36-73.38-49.71-75.42-98.77-153.46-140.95-235.02 5.82-18.58 11.34-35.21 16.42-49.91.61-1.93.53-4.01-.24-5.88-1.81-4.37-6.82-6.46-11.2-4.66-4.21 1.81-8.12 3.31-11.73 4.82-1.79.84-3.85.95-5.72.3-.02-.01-.05-.02-.07-.02-4.46-1.51-6.85-6.35-5.35-10.81 25.03-75.61 55.92-149.15 92.38-219.96-4.82.91-9.03 1.81-12.64 2.41-1.76.32-3.57 0-5.11-.9-.02-.01-.03-.02-.05-.02-3.88-2.09-5.35-6.93-3.26-10.81 26.78-51.46 68.9-95.39 89.66-115.25 1.69-1.39 3.83-2.14 6.02-2.1l.6-.6c3.08-3.57 8.46-3.97 12.04-.91 1.78-.05 3.5.6 4.81 1.81 23.65 20.62 45.12 43.61 64.09 68.6l.91 1.81c1.59 4.15-.41 8.82-4.52 10.53-2.8 1.22-5.73 2.12-8.72 2.71 29.31 51.58 53.02 106.15 70.71 162.78.5 1.89.39 3.89-.3 5.72-1.89 4.26-6.82 6.25-11.14 4.51l-.6-.3c-2.01-.9-4.31-.9-6.32 0-4.26 1.89-6.26 6.81-4.51 11.13 15.92 39.81 42.25 111 74.45 218.71 25.14-103.91 51-186.19 72.44-246.97.7-1.92.7-4.01 0-5.93-1.77-4.58-6.88-6.9-11.49-5.23-6.62 2.09-12.54 4.19-17.76 5.93-1.79.7-3.78.7-5.57 0-.12-.04-.24-.08-.35-.13-4.39-1.7-6.57-6.63-4.87-11.02 35.51-109.11 66.51-199.04 102.37-267.7.72-1.53 1.07-3.2 1.05-4.88-.01-.06-.01-.11-.01-.16-.43-4.77-4.63-8.29-9.39-7.86h-.35c-2.13.3-4.29-.34-5.92-1.74-3.79-3.08-4.55-8.56-1.74-12.55 59.54-80.52 101.33-118.51 115.96-130.71 3.32-2.79 8.16-2.79 11.49 0 22.98 19.52 111.43 102.479 184.91 291.75.75 2.4.63 5-.35 7.32-.03.06-.06.12-.09.18-2.14 4.35-7.4 6.14-11.75 4l-9.75-4.88c-2.49-1.4-5.52-1.4-8.01 0-.04.02-.07.03-.11.05-4.28 2.23-5.95 7.51-3.72 11.8 14.81 28.8 33.85 69.09 54.53 121.15 27.91-83.32 53.96-153.59 83.25-209.68.72-1.53 1.07-3.19 1.05-4.88-.01-.05-.01-.11-.01-.16-.43-4.76-4.63-8.28-9.39-7.86h-.35c-2.13.3-4.29-.33-5.92-1.74-3.79-3.07-4.55-8.56-1.74-12.55 59.54-80.51 101.33-118.51 115.96-130.71 3.32-2.79 8.16-2.79 11.49 0 22.98 19.52 111.43 102.479 184.91 291.75.75 2.4.63 5-.35 7.32-.03.06-.06.13-.09.19-2.14 4.35-7.4 6.14-11.75 3.99l-9.75-4.88c-2.49-1.39-5.52-1.39-8.01 0-.04.02-.07.04-.11.06-4.28 2.22-5.95 7.51-3.72 11.79 24.69 48 61.1 127.87 97.3 240.99 27.42-113.04 54.35-200.021 75.44-261.021.79-2.49.68-5.17-.31-7.58-2.33-5.65-8.8-8.34-14.45-6.02-5.44 2.33-10.49 4.28-15.15 6.22-2.31 1.09-4.96 1.23-7.38.39-.03-.01-.06-.02-.09-.03-5.75-1.95-8.84-8.2-6.9-13.95 32.3-97.59 72.17-192.51 119.23-283.9-6.21 1.16-11.65 2.33-16.31 3.1-2.27.41-4.61 0-6.6-1.16-.02-.01-.04-.02-.05-.03-5.02-2.69-6.91-8.94-4.22-13.95 34.56-66.41 88.93-123.12 115.73-148.75 2.18-1.8 4.94-2.77 7.77-2.72l.78-.77c3.97-4.6 10.91-5.13 15.53-1.17 2.3-.06 4.53.77 6.21 2.33 30.52 26.62 58.24 56.29 82.73 88.55l1.16 2.33c2.06 5.36-.52 11.39-5.82 13.59-3.62 1.57-7.4 2.75-11.27 3.5 37.85 66.57 68.44 137.01 91.27 210.11.65 2.44.51 5.02-.39 7.38-2.43 5.5-8.79 8.07-14.37 5.82l-.77-.39c-2.6-1.16-5.57-1.16-8.16 0-5.5 2.44-8.08 8.8-5.83 14.37 22.2 55.5 60.07 158.25 106.22 316.58 8.85-29.16 17.37-54.78 25.15-76.85.56-1.53.56-3.21 0-4.74-1.42-3.67-5.5-5.53-9.2-4.19-5.29 1.68-10.03 3.35-14.21 4.75-1.44.55-3.03.55-4.46 0-.1-.04-.19-.07-.29-.11-3.51-1.36-5.25-5.31-3.9-8.82 28.44-87.35 53.25-159.35 81.97-214.32.57-1.22.85-2.56.83-3.91 0-.04 0-.08-.01-.13-.34-3.81-3.7-6.63-7.51-6.28h-.28c-1.71.23-3.44-.28-4.74-1.4-3.03-2.46-3.64-6.85-1.4-10.05 47.68-64.46 81.13-94.88 92.84-104.64 2.66-2.24 6.54-2.24 9.2 0 18.4 15.62 89.21 82.04 148.03 233.57.61 1.92.51 4-.27 5.86-.03.05-.05.1-.08.15-1.71 3.48-5.92 4.91-9.4 3.2l-7.81-3.91c-1.99-1.12-4.42-1.12-6.41 0-.03.01-.06.03-.08.04-3.43 1.79-4.77 6.02-2.99 9.45 17.64 34.291 42.76 88.921 68.56 164.651z" fill="#00aee0"/><ellipse cx="441.911" cy="173.175" fill="#ffb400" rx="18.15" ry="18.15" transform="matrix(.9998 -.0199 .0199 .9998 -3.3662 8.8488)"/><ellipse cx="2293.931" cy="483.379" fill="#ffb400" rx="18.15" ry="18.15" transform="matrix(.9998 -.0199 .0199 .9998 -9.1851 45.8507)"/><ellipse cx="378.969" cy="250.948" fill="#ffb400" rx="11.743" ry="11.743" transform="matrix(.9998 -.0199 .0199 .9998 -4.93 7.6088)"/><ellipse cx="605.761" cy="191.325" fill="#f04e23" rx="11.743" ry="11.743" transform="matrix(.9998 -.0199 .0199 .9998 -3.6956 12.1205)"/><ellipse cx="196.772" cy="366.337" fill="#f04e23" rx="11.743" ry="11.743" transform="matrix(.9998 -.0199 .0199 .9998 -7.2678 3.9977)"/><ellipse cx="1806.283" cy="202.505" fill="#f04e23" rx="11.743" ry="11.743" transform="matrix(.9998 -.0199 .0199 .9998 -3.6798 36.0683)"/><ellipse cx="891.477" cy="366.337" fill="#f04e23" rx="11.743" ry="11.743" transform="matrix(.9998 -.0199 .0199 .9998 -7.1296 17.8542)"/><ellipse cx="2220.775" cy="398.709" fill="#f04e23" rx="11.743" ry="11.743" transform="matrix(.9998 -.0199 .0199 .9998 -7.5108 44.3747)"/><ellipse cx="2232.518" cy="558.555" fill="#f04e23" rx="11.743" ry="11.743" transform="matrix(.9998 -.0199 .0199 .9998 -10.6968 44.6408)"/><ellipse cx="1218.643" cy="205.692" fill="#f04e23" rx="11.743" ry="11.743" transform="matrix(.9998 -.0199 .0199 .9998 -3.8603 24.3479)"/><g fill="#ffb400"><ellipse cx="1879.224" cy="152.997" rx="11.743" ry="11.743" transform="matrix(.9998 -.0199 .0199 .9998 -2.6778 37.5133)"/><ellipse cx="2197.288" cy="250.948" rx="11.743" ry="11.743" transform="matrix(.9998 -.0199 .0199 .9998 -4.5683 43.8769)"/><ellipse cx="1187.746" cy="160.795" rx="11.743" ry="11.743" transform="matrix(.9998 -.0199 .0199 .9998 -2.9709 23.7227)"/><ellipse cx="1346.765" cy="120.677" rx="11.743" ry="11.743" transform="matrix(.9998 -.0199 .0199 .9998 -2.1391 26.8865)"/><ellipse cx="81.081" cy="580.056" rx="11.743" ry="11.743" transform="matrix(.9998 -.0199 .0199 .9998 -11.5536 1.7326)"/><ellipse cx="477.587" cy="462.703" rx="11.743" ry="11.743" transform="matrix(.9998 -.0199 .0199 .9998 -9.134 9.618)"/><ellipse cx="1854.326" cy="450.96" rx="11.743" ry="11.743" transform="matrix(.9998 -.0199 .0199 .9998 -8.6259 37.076)"/><ellipse cx="1349.546" cy="652.587" rx="11.743" ry="11.743" transform="matrix(.9998 -.0199 .0199 .9998 -12.748 27.0478)"/><ellipse cx="958.046" cy="110.244" rx="11.743" ry="11.743" transform="matrix(.9998 -.0199 .0199 .9998 -2.0083 19.131)"/><ellipse cx="528.999" cy="288.507" rx="11.743" ry="11.743" transform="matrix(.9998 -.0199 .0199 .9998 -5.6493 10.6088)"/><ellipse cx="460.061" cy="726.788" rx="11.743" ry="11.743" transform="matrix(.9998 -.0199 .0199 .9998 -14.4049 9.3209)"/><ellipse cx="1774.543" cy="110.244" rx="18.15" ry="18.15" transform="matrix(.9998 -.0199 .0199 .9998 -1.8459 35.4168)"/><ellipse cx="939.896" cy="451.291" rx="18.15" ry="18.15" transform="matrix(.9998 -.0199 .0199 .9998 -8.8144 18.8369)"/><ellipse cx="2088.448" cy="265.022" rx="18.15" ry="18.15" transform="matrix(.9998 -.0199 .0199 .9998 -4.8706 41.7088)"/></g><ellipse cx="1349.546" cy="398.709" fill="#f04e23" rx="18.15" ry="18.15" transform="matrix(.9998 -.0199 .0199 .9998 -7.6841 26.9973)"/><ellipse cx="873.327" cy="120.469" fill="#f04e23" rx="18.15" ry="18.15" transform="matrix(.9998 -.0199 .0199 .9998 -2.2291 17.4433)"/><ellipse cx="1836.176" cy="523.32" fill="#f04e23" rx="18.15" ry="18.15" transform="matrix(.9998 -.0199 .0199 .9998 -10.0728 36.7284)"/><ellipse cx="46.859" cy="676.073" fill="#f04e23" rx="18.15" ry="18.15" transform="matrix(.9998 -.0199 .0199 .9998 -13.4756 1.0692)"/></svg>