<?xml version="1.0" encoding="UTF-8"?><svg version="1.1" xmlns="http://www.w3.org/2000/svg" xmlns:xlink="http://www.w3.org/1999/xlink" viewBox="0 0 1500 1500" width="1500" height="1500" x="0px" y="0px">
    
    
    <!-- ITEM 0 -->
    <g>
        <defs>
            <clipPath id="clip-path-id-viewbox-item-0">
                <rect x="0.0" y="0.0" width="848.401" height="1273.0"/>
            </clipPath>
        </defs>
        <g transform="translate(309.0 75.0) rotate(0.0 451.5 677.5) scale(1.0643551810995038 1.0644147682639435)">
            <g clip-path="url(#clip-path-id-viewbox-item-0)" transform="translate(-0.0 -0.0)">
                

<g id="Слой_114-i0">
	<g id="Слой_137-i0">
	</g>
	<g id="Слой_127-i0">
	</g>
	<g id="Слой_128-i0">
	</g>
	<g id="Слой_198-i0">
		<g id="Слой_196-i0">
		</g>
		<g id="Слой_255-i0">
		</g>
		<g id="Слой_256-i0">
		</g>
		<g id="Слой_259-i0">
		</g>
		<g id="Слой_257-i0">
		</g>
		<g id="Слой_139-i0">
		</g>
		<g id="Слой_101-i0">
		</g>
		<g id="Слой_106-i0">
		</g>
		<g id="Слой_141-i0">
		</g>
	</g>
</g>
<g id="Слой_199-i0">
	<g id="Слой_230-i0">
	</g>
	<g id="Слой_200-i0">
	</g>
	<g id="Слой_201-i0">
	</g>
	<g id="Слой_108-i0">
	</g>
	<g id="Слой_220-i0">
		<g id="Слой_221-i0">
		</g>
	</g>
	<g id="Слой_222-i0">
	</g>
	<g id="Слой_208-i0" style="display:none;">
	</g>
	<g id="Слой_203-i0">
		<g id="Слой_207-i0">
		</g>
		<g id="Слой_211-i0">
		</g>
		<g id="Слой_100-i0">
		</g>
	</g>
	<g id="Слой_209-i0">
	</g>
	<g id="Слой_210-i0">
	</g>
	<g id="Слой_212-i0">
		<g id="Слой_219-i0">
		</g>
	</g>
</g>
<g id="Слой_149-i0">
	<g id="Слой_170-i0">
	</g>
	<g id="Слой_171-i0">
	</g>
	<g id="Слой_225-i0">
	</g>
	<g id="Слой_158-i0">
		<g id="Слой_159-i0">
		</g>
		<g id="Слой_229-i0">
		</g>
	</g>
	<g id="Слой_228-i0">
	</g>
	<g id="Слой_224-i0">
	</g>
	<g id="Слой_155-i0">
	</g>
	<g id="Слой_164-i0">
		<g id="Слой_165-i0">
		</g>
		<g id="Слой_166-i0">
		</g>
		<g id="Слой_167-i0">
		</g>
		<g id="Слой_168-i0">
		</g>
	</g>
	<g id="Слой_226-i0">
	</g>
</g>
<g id="Слой_172-i0">
	<g id="Слой_190-i0">
	</g>
	<g id="Слой_111-i0">
	</g>
	<g id="Слой_192-i0">
		<g id="Слой_112-i0">
		</g>
	</g>
	<g id="Слой_174-i0">
		<g id="Слой_180-i0">
		</g>
	</g>
	<g id="Слой_194-i0">
	</g>
	<g id="Слой_184-i0">
	</g>
	<g id="Слой_186-i0">
	</g>
</g>
<g id="Слой_175-i0">
	<g id="Слой_98-i0">
		<g id="Слой_99-i0">
		</g>
		<g id="Слой_102-i0">
		</g>
		<g id="Слой_103-i0">
		</g>
		<g id="Слой_104-i0">
		</g>
	</g>
	<g id="Слой_89-i0">
		<g id="Слой_95-i0">
		</g>
		<g id="Слой_92-i0">
			<g id="Слой_93-i0">
			</g>
			<g id="Слой_94-i0">
			</g>
		</g>
		<g id="Слой_96-i0">
		</g>
		<g id="Слой_97-i0">
		</g>
	</g>
</g>
<g id="Слой_77-i0">
	<g id="Слой_79-i0">
	</g>
	<g id="Слой_81-i0">
	</g>
	<g id="Слой_86-i0">
	</g>
	<g id="Слой_82-i0">
	</g>
	<g id="Слой_88-i0">
	</g>
</g>
<g id="Слой_53-i0">
	<g id="Слой_58-i0">
	</g>
	<g id="Слой_61-i0">
	</g>
	<g id="Слой_62-i0">
	</g>
	<g id="Слой_65-i0">
	</g>
	<g id="Слой_68-i0">
	</g>
</g>
<g id="Слой_69-i0">
	<g id="Слой_75-i0">
	</g>
	<g id="Слой_76-i0">
	</g>
</g>
<g id="Слой_85-i0">
	<g id="Слой_87-i0">
	</g>
</g>
<g id="Слой_90-i0">
	<g id="Слой_91-i0">
	</g>
</g>
<g id="Слой_105-i0">
	<g id="Слой_107-i0">
	</g>
</g>
<g id="Слой_109-i0">
	<g id="Слой_110-i0">
	</g>
</g>
<g id="Слой_113-i0">
	<g id="Слой_115-i0">
	</g>
</g>
<g id="Слой_116-i0">
	<g id="Слой_117-i0">
	</g>
</g>
<g id="Слой_118-i0">
	<g id="Слой_119-i0">
	</g>
</g>
<g id="Слой_120-i0">
	<g id="Слой_121-i0">
	</g>
</g>
<g id="Слой_122-i0">
	<g id="Слой_123-i0">
		<g id="Слой_124-i0">
			<g id="Слой_125-i0">
			</g>
		</g>
		<g id="Слой_126-i0">
		</g>
		<g id="Слой_129-i0">
		</g>
	</g>
</g>
<g id="Слой_130-i0">
	<g id="Слой_131-i0">
		<g>
			<path d="M61.954,183.514c-47.461,81.21-80.339,186.77-50.625,342.771     c42.187,221.483,172.968,262.616,191.952,343.826s11.873,121.398,24.258,206.717c9.492,65.39,79.101,8.437,207.772,7.383     c128.671-1.055,128.671,131.835,128.671,125.507s49.826-116.648,56.953-152.929c11.602-59.062,17.93-140.273,26.367-195.116     c8.965-58.273,123.398-114.96,185.624-338.553c27.95-100.431,22.148-266.834-51.679-360.701C721.056,85.893,633.592,0,432.148,0     C237.032,0,106.312,107.613,61.954,183.514z" style="fill:#FFB400;"/>
			<ellipse cx="423.71" cy="1025.677" rx="200.389" ry="55.371" style="fill:#F04E23;"/>
			<path d="M231.139,1020.931c-7.294-0.471-9.696,8.002-9.928,9.492c-1.315,8.438-3.782,14.877-3.164,28.476     c1.055,23.203,13.711,31.64,18.984,50.625c3.63,13.068-5.928,21.105-5.273,40.078c1.055,30.586,10.453,40.232,13.711,45.351     c14.766,23.203,84.842,78.046,181.835,78.046s147.436-40.868,166.21-64.336c4.219-5.273,23.203-18.984,27.422-52.734     c3.542-28.334-8.394-45.467-5.273-53.789c6.328-16.875,11.56-25.327,13.711-42.187c1.66-13.011,1.387-26.136,0-33.75     c-1.18-6.477-3.153-7.275-9.174-4.219c-31.307,15.894-104.17,34.805-202.703,34.805     C330.311,1056.79,247.486,1021.986,231.139,1020.931z" style="fill:#04294F;"/>
			<g>
				<g>
					<path d="M256.659,1082.688c6.65,8.124,16.008,14.002,25.389,18.567c9.506,4.627,19.192,9.162,29.142,12.747       c21.697,7.816,43.85,14.187,66.539,18.388c43.902,8.129,89.25,8.873,132.778-1.896c11.901-2.944,23.57-6.935,34.761-11.94       c11.061-4.947,21.478-11.826,31.271-18.953c4.128-3.005,0.644-9.226-4.038-6.908c-18.394,9.109-38.494,16.095-58.373,21.309       c-19.766,5.184-39.829,8.36-60.256,9.222c-43.567,1.838-86.844-6.315-128.331-19.159c-11.484-3.556-23.169-6.92-34.463-11.042       c-10.849-3.959-21.027-9.221-31.278-14.408C257.088,1077.242,254.805,1080.423,256.659,1082.688L256.659,1082.688z" style="fill:#FFB400;"/>
				</g>
			</g>
			<g>
				<g>
					<path d="M265.824,1175.653c12.993,11.996,29.462,19.958,45.689,26.577c17.471,7.127,35.529,12.858,53.875,17.264       c22.7,5.452,45.99,6.768,69.26,5.588c23.253-1.179,46.977-3.899,69.772-8.624c10.716-2.221,21.117-4.881,31.243-9.115       c5.525-2.31,10.599-5.045,15.607-8.314c2.813-1.836,5.708-3.357,8.721-4.827c2.778-1.355,4.737-3.667,7.104-5.628       c3.383-2.803-0.925-7.439-4.431-5.742c-2.476,1.198-5.059,1.809-7.316,3.396c-2.469,1.736-4.836,3.194-7.647,4.339       c-4.494,1.829-9.247,3.304-13.856,4.828c-8.945,2.956-18.097,5.126-27.355,6.851c-21.133,3.938-42.996,6.569-64.419,8.321       c-22.985,1.88-46.065,1.969-68.762-2.51c-17.154-3.385-34.081-7.983-50.693-13.429c-18.048-5.917-37.553-12.476-52.816-24.128       C266.832,1168.233,263.117,1173.154,265.824,1175.653L265.824,1175.653z" style="fill:#FFB400;"/>
				</g>
			</g>
		</g>
	</g>
</g>
<g id="Слой_132-i0">
	<g id="Слой_133-i0">
	</g>
</g>
<g id="Слой_134-i0">
	<g id="Слой_135-i0">
	</g>
</g>
<g id="Слой_136-i0">
	<g id="Слой_138-i0">
	</g>
</g>
<g id="Слой_140-i0">
	<g id="Слой_142-i0">
	</g>
</g>
<g id="Слой_143-i0">
	<g id="Слой_144-i0">
	</g>
</g>
<g id="Слой_145-i0">
	<g id="Слой_146-i0">
	</g>
</g>
<g id="Слой_147-i0">
	<g id="Слой_148-i0">
	</g>
</g>
<g id="Слой_150-i0">
	<g id="Слой_151-i0">
	</g>
</g>
<g id="Слой_152-i0">
	<g id="Слой_153-i0">
	</g>
</g>
<g id="Слой_154-i0">
	<g id="Слой_156-i0">
	</g>
</g>

            </g>
        </g>
    </g>
    
    <!-- ITEM 1 -->
    <g>
        <defs>
            <clipPath id="clip-path-id-viewbox-item-1">
                <rect x="0.0" y="0.0" width="300.872" height="647.38"/>
            </clipPath>
        </defs>
        <g transform="translate(794.0 235.0) rotate(0.0 156.0 337.0) scale(1.0369858278603525 1.0411195897309153)">
            <g clip-path="url(#clip-path-id-viewbox-item-1)" transform="translate(-0.0 -0.0)">
                

<g id="Слой_114-i1">
	<g id="Слой_137-i1">
	</g>
	<g id="Слой_127-i1">
	</g>
	<g id="Слой_128-i1">
	</g>
	<g id="Слой_198-i1">
		<g id="Слой_196-i1">
		</g>
		<g id="Слой_255-i1">
		</g>
		<g id="Слой_256-i1">
		</g>
		<g id="Слой_259-i1">
		</g>
		<g id="Слой_257-i1">
		</g>
		<g id="Слой_139-i1">
		</g>
		<g id="Слой_101-i1">
		</g>
		<g id="Слой_106-i1">
		</g>
		<g id="Слой_141-i1">
		</g>
	</g>
</g>
<g id="Слой_199-i1">
	<g id="Слой_230-i1">
	</g>
	<g id="Слой_200-i1">
	</g>
	<g id="Слой_201-i1">
	</g>
	<g id="Слой_108-i1">
	</g>
	<g id="Слой_220-i1">
		<g id="Слой_221-i1">
		</g>
	</g>
	<g id="Слой_222-i1">
	</g>
	<g id="Слой_208-i1" style="display:none;">
	</g>
	<g id="Слой_203-i1">
		<g id="Слой_207-i1">
		</g>
		<g id="Слой_211-i1">
		</g>
		<g id="Слой_100-i1">
		</g>
	</g>
	<g id="Слой_209-i1">
	</g>
	<g id="Слой_210-i1">
	</g>
	<g id="Слой_212-i1">
		<g id="Слой_219-i1">
		</g>
	</g>
</g>
<g id="Слой_149-i1">
	<g id="Слой_170-i1">
	</g>
	<g id="Слой_171-i1">
	</g>
	<g id="Слой_225-i1">
	</g>
	<g id="Слой_158-i1">
		<g id="Слой_159-i1">
		</g>
		<g id="Слой_229-i1">
		</g>
	</g>
	<g id="Слой_228-i1">
	</g>
	<g id="Слой_224-i1">
	</g>
	<g id="Слой_155-i1">
	</g>
	<g id="Слой_164-i1">
		<g id="Слой_165-i1">
		</g>
		<g id="Слой_166-i1">
		</g>
		<g id="Слой_167-i1">
		</g>
		<g id="Слой_168-i1">
		</g>
	</g>
	<g id="Слой_226-i1">
	</g>
</g>
<g id="Слой_172-i1">
	<g id="Слой_190-i1">
	</g>
	<g id="Слой_111-i1">
	</g>
	<g id="Слой_192-i1">
		<g id="Слой_112-i1">
		</g>
	</g>
	<g id="Слой_174-i1">
		<g id="Слой_180-i1">
		</g>
	</g>
	<g id="Слой_194-i1">
	</g>
	<g id="Слой_184-i1">
	</g>
	<g id="Слой_186-i1">
	</g>
</g>
<g id="Слой_175-i1">
	<g id="Слой_98-i1">
		<g id="Слой_99-i1">
		</g>
		<g id="Слой_102-i1">
		</g>
		<g id="Слой_103-i1">
		</g>
		<g id="Слой_104-i1">
		</g>
	</g>
	<g id="Слой_89-i1">
		<g id="Слой_95-i1">
		</g>
		<g id="Слой_92-i1">
			<g id="Слой_93-i1">
			</g>
			<g id="Слой_94-i1">
			</g>
		</g>
		<g id="Слой_96-i1">
		</g>
		<g id="Слой_97-i1">
		</g>
	</g>
</g>
<g id="Слой_77-i1">
	<g id="Слой_79-i1">
	</g>
	<g id="Слой_81-i1">
	</g>
	<g id="Слой_86-i1">
	</g>
	<g id="Слой_82-i1">
	</g>
	<g id="Слой_88-i1">
	</g>
</g>
<g id="Слой_53-i1">
	<g id="Слой_58-i1">
	</g>
	<g id="Слой_61-i1">
	</g>
	<g id="Слой_62-i1">
	</g>
	<g id="Слой_65-i1">
	</g>
	<g id="Слой_68-i1">
	</g>
</g>
<g id="Слой_69-i1">
	<g id="Слой_75-i1">
	</g>
	<g id="Слой_76-i1">
	</g>
</g>
<g id="Слой_85-i1">
	<g id="Слой_87-i1">
	</g>
</g>
<g id="Слой_90-i1">
	<g id="Слой_91-i1">
	</g>
</g>
<g id="Слой_105-i1">
	<g id="Слой_107-i1">
	</g>
</g>
<g id="Слой_109-i1">
	<g id="Слой_110-i1">
	</g>
</g>
<g id="Слой_113-i1">
	<g id="Слой_115-i1">
	</g>
</g>
<g id="Слой_116-i1">
	<g id="Слой_117-i1">
	</g>
</g>
<g id="Слой_118-i1">
	<g id="Слой_119-i1">
	</g>
</g>
<g id="Слой_120-i1">
	<g id="Слой_121-i1">
	</g>
</g>
<g id="Слой_122-i1">
	<g id="Слой_123-i1">
		<g id="Слой_124-i1">
			<g id="Слой_125-i1">
			</g>
		</g>
		<g id="Слой_126-i1">
		</g>
		<g>
			<path d="M147.599,491.205c0,0,18-11,35-11s37,16,56,18c10.985,1.156,40-5,45-6s-0.412,19.365-27,30     c-25,10-48.507,19.498-81,13c-25-5-37.162-26.868-35.581-33.934C141.599,494.205,143.599,493.205,147.599,491.205z" style="fill:#00AEE0;"/>
			<path d="M211.601,425.834c0,0,18.62-16.318,35.545-14.717s27.027,11.598,21.956,12.123     c-5.072,0.524-20.665,6.08-27.015,9.497c-12.7,6.834-26.907-5.19-30.674-4.912" style="fill:#00AEE0;"/>
			<g>
				<path d="M71.541,551.104c0.362-1.552,0.37-2.813-0.328-4.303c-0.733-1.565-2.007-2.94-3.314-4.042      c-2.847-2.4-6.21-4.069-8.833-6.75c-5.178-5.291-7.754-12.343-8.849-19.554c-0.35-2.308-0.669-4.647-0.896-6.969      c-0.243-2.492-0.611-4.953-0.896-7.434c-0.094-0.819-1.214-0.838-1.289,0c-0.186,2.093-0.478,4.124-0.479,6.236      c-0.001,2.156-0.006,4.305,0.224,6.449c0.419,3.899,1.205,7.789,2.576,11.47c1.224,3.289,2.857,6.368,5.029,9.13      c2.265,2.88,5.076,4.92,8.18,6.813c1.768,1.078,3.54,2.179,5.006,3.658c1.381,1.392,2.821,3.416,3.417,5.295      C71.156,551.314,71.486,551.339,71.541,551.104L71.541,551.104z" style="fill:#04294F;"/>
			</g>
			<g>
				<path d="M57.275,537.283c-0.244-0.325-0.352-0.649-0.553-0.993c-0.187-0.321-0.492-0.613-0.712-0.912      c-0.509-0.691-1.231-1.261-1.849-1.856c-0.573-0.551-1.208-1.039-1.807-1.563c-0.69-0.604-1.346-1.237-2.083-1.783      c-0.583-0.432-1.112-0.939-1.657-1.424c-0.631-0.561-1.323-1.051-1.958-1.609c-1.265-1.114-2.567-2.172-3.824-3.294      c-0.594-0.53-1.534,0.137-1.123,0.866c0.837,1.485,1.708,2.915,2.756,4.262c0.518,0.666,1.004,1.374,1.559,2.009      c0.556,0.637,1.244,1.187,1.786,1.809c0.584,0.67,1.246,1.211,1.942,1.767c0.706,0.564,1.411,1.168,2.176,1.652      c0.698,0.442,1.468,0.967,2.247,1.249c0.382,0.139,0.799,0.29,1.194,0.402c0.428,0.122,0.874,0.086,1.311,0.193      C57.083,538.156,57.569,537.673,57.275,537.283L57.275,537.283z" style="fill:#04294F;"/>
			</g>
			<g>
				<path d="M140.566,497.902c3.881,1.142,7.575,2.477,11.163,4.371c3.548,1.873,6.964,3.969,10.562,5.752      c7.148,3.541,14.7,6.256,22.445,8.16c15.533,3.818,31.806,4.315,47.559,1.602c4.419-0.761,8.697-1.984,12.971-3.336      c4.149-1.312,8.727-2.793,12.325-5.295c1.214-0.844,0.475-2.675-1.002-2.378c-3.797,0.764-7.492,2.248-11.229,3.28      c-3.812,1.053-7.612,1.735-11.486,2.459c-7.611,1.423-15.382,2.009-23.121,1.852c-15.477-0.314-30.892-3.791-44.962-10.261      c-4.036-1.856-7.897-4.063-11.971-5.841c-4.142-1.808-8.681-3.381-13.253-2.536      C139.426,495.943,139.568,497.608,140.566,497.902L140.566,497.902z" style="fill:#04294F;"/>
			</g>
			<g>
				<path d="M159.753,505.228c4.219,0.666,8.4,0.43,12.626-0.053c4.263-0.487,8.524-0.982,12.781-1.522      c8.504-1.08,16.956-2.552,25.354-4.3c1.172-0.244,0.917-2.152-0.283-2.095c-8.38,0.397-16.753,1.05-25.07,2.106      c-4.119,0.523-8.232,1.085-12.344,1.66c-4.188,0.586-8.401,1.47-12.648,1.142C158.438,502.033,158.011,504.953,159.753,505.228      L159.753,505.228z" style="fill:#04294F;"/>
			</g>
			<g>
				<path d="M171.387,509.98c-0.988,1.296-0.047,3.203,0.551,4.464c0.747,1.576,2.052,2.985,3.278,4.211      c2.46,2.46,5.216,4.689,8.209,6.468c3.034,1.803,6.238,3.028,9.618,4.006c3.215,0.93,6.851,1.662,10.196,1.209      c1.005-0.136,0.742-1.506,0-1.785c-2.891-1.09-5.936-1.74-8.835-2.84c-2.894-1.098-5.717-2.662-8.354-4.278      c-2.603-1.595-5.108-3.33-7.383-5.373c-1.156-1.038-2.265-2.118-3.359-3.218c-0.571-0.574-1.108-1.106-1.603-1.751      c-0.399-0.52-0.811-1.069-1.42-1.349C171.932,509.582,171.621,509.674,171.387,509.98L171.387,509.98z" style="fill:#04294F;"/>
			</g>
			<g>
				<path d="M218.726,515.403c0.554,0.001,1.038,0.001,1.58-0.143c0.548-0.146,1.095-0.342,1.614-0.569      c0.984-0.43,1.948-0.913,2.895-1.419c0.915-0.489,1.776-1.104,2.621-1.705c0.888-0.631,1.981-1.413,2.493-2.391      c0.436-0.834-0.281-1.783-1.204-1.567c-0.978,0.229-1.912,0.908-2.75,1.457c-0.872,0.571-1.783,1.077-2.66,1.639      c-0.852,0.546-1.726,1.052-2.606,1.549c-0.424,0.239-0.841,0.503-1.246,0.773c-0.497,0.332-0.849,0.69-1.258,1.114      C217.763,514.6,218.078,515.401,218.726,515.403L218.726,515.403z" style="fill:#04294F;"/>
			</g>
			<g>
				<path d="M63.476,576.434c3.694-1.135,7.157-2.177,11.056-2.22c3.914-0.043,7.754,0.755,11.479,1.909      c8.185,2.534,15.945,7.194,24.526,8.317c4.707,0.616,9.337,0.818,13.741-1.239c0.877-0.41,0.476-1.997-0.509-1.878      c-4.099,0.495-8.474,0.648-12.533-0.319c-4.288-1.021-8.399-2.365-12.515-3.939c-7.784-2.975-15.678-6.337-24.189-5.917      c-4.072,0.201-8.739,1.263-11.592,4.365C62.583,575.901,62.928,576.602,63.476,576.434L63.476,576.434z" style="fill:#04294F;"/>
			</g>
			<g>
				<path d="M86.625,576.731c0.4,0.653,0.749,1.18,1.32,1.701c0.55,0.502,1.109,0.995,1.683,1.468      c1.179,0.972,2.432,1.788,3.758,2.542c2.512,1.428,5.338,2.673,8.191,3.202c0.941,0.174,1.501-1.016,0.659-1.564      c-2.366-1.539-4.837-2.911-7.206-4.45c-1.153-0.749-2.273-1.543-3.432-2.282c-0.594-0.378-1.183-0.762-1.763-1.163      c-0.315-0.218-0.628-0.496-0.979-0.644c-0.334-0.14-0.688-0.234-1.027-0.377C86.945,574.793,86.177,576,86.625,576.731      L86.625,576.731z" style="fill:#04294F;"/>
			</g>
			<g>
				<path d="M211.682,424.916c0.012,0.033,0.025,0.066,0.037,0.099c0.203,0.539,0.592,0.844,1.166,0.888      c6.104,0.465,12.357-0.431,18.376-1.42c6.158-1.012,12.035-2.462,17.862-4.699c1.005-0.386,0.617-1.777-0.442-1.605      c-6.024,0.981-12.043,2.084-18.083,2.999c-5.994,0.908-12.068,1.282-18.034,2.35c-0.399,0.071-0.748,0.467-0.845,0.845      C211.676,424.539,211.618,424.746,211.682,424.916L211.682,424.916z" style="fill:#04294F;"/>
			</g>
			<g>
				<path d="M187.583,365.546c0.337-0.792,0.693-1.499,0.922-2.328c0.254-0.918,0.365-1.798,0.445-2.75      c0.145-1.735,0.261-3.464,0.207-5.205c-0.053-1.734-0.153-3.471-0.357-5.195c-0.111-0.935-0.42-1.881-0.609-2.808      c-0.186-0.912-0.425-1.798-0.69-2.69c-0.395-1.329-2.441-1.095-2.44,0.33c0.002,1.726,0.008,3.448-0.013,5.168      c-0.021,1.717,0.241,3.476,0.316,5.195c0.076,1.737,0.227,3.468,0.311,5.205c0.039,0.809,0.092,1.578,0.241,2.371      c0.168,0.896,0.414,1.697,0.66,2.576C186.692,365.828,187.389,366.003,187.583,365.546L187.583,365.546z" style="fill:#04294F;"/>
			</g>
			<g>
				<path d="M195.747,123.062c0.106-2.21-0.468-4.337-1.063-6.454c-0.606-2.155-1.451-4.231-2.352-6.277      c-1.82-4.13-4.375-7.853-7.047-11.477c-0.646-0.876-2.097-0.097-1.498,0.875c2.297,3.73,4.047,7.717,5.783,11.731      c0.842,1.946,1.584,3.933,2.358,5.907c0.802,2.043,1.422,4.141,2.53,6.043C194.816,124.023,195.715,123.731,195.747,123.062      L195.747,123.062z" style="fill:#04294F;"/>
			</g>
			<g>
				<path d="M187.43,90.317c0.624-5.658-2.142-10.979-4.548-15.922c-2.511-5.159-4.855-10.193-5.351-15.976      c-0.066-0.764-1.301-1.077-1.45-0.196c-0.95,5.608,1.407,11.228,3.857,16.14c2.612,5.237,5.263,10.403,6.939,16.029      C186.974,90.713,187.397,90.622,187.43,90.317L187.43,90.317z" style="fill:#04294F;"/>
			</g>
			<g>
				<path d="M172.286,156.476c-2.323,0.143-4.572,0.694-6.917,0.64c-2.338-0.054-4.666-0.518-6.884-1.249      c-4.432-1.46-8.549-3.682-12.541-6.069c-3.843-2.297-7.601-4.729-11.425-7.056c-3.753-2.284-7.643-4.664-11.782-6.18      c-4.648-1.703-9.522-3.337-14.536-2.656c-1.342,0.182-1.202,2.285,0,2.576c4.26,1.031,8.619,1.721,12.634,3.588      c4.12,1.916,8.112,4,12.01,6.34c7.838,4.706,15.728,10.516,24.747,12.696c4.646,1.123,11.284,2.091,15.233-1.33      C173.315,157.352,172.93,156.437,172.286,156.476L172.286,156.476z" style="fill:#04294F;"/>
			</g>
			<g>
				<path d="M141.426,147.646c-7.818-0.785-15.638-0.61-23.475-0.291c-0.902,0.037-0.875,1.298,0,1.383      c7.813,0.754,15.619,1.369,23.475,1.017C142.803,149.693,142.76,147.78,141.426,147.646L141.426,147.646z" style="fill:#04294F;"/>
			</g>
			<path d="M64.549,574.99c0,0,9.984-16.053,32.113-14.229c22.129,1.824,35.017,18.16,47,17.521     c11.983-0.639,7.523,9.613-6.404,11.357s-42.353,13.275-55.92,2.983C67.769,582.331,65.908,578.421,64.549,574.99z" style="fill:#00AEE0;"/>
			<path d="M240.599,362.205c0,0,24.652-19.652,40-35s21.131-37.109,20.172-60.131     c-0.959-23.022-20.172-43.869-24.172-75.869c-4.968-39.741-5.245-55.592-11-46s-24.3,40.334-26.219,74.867     s20.144,60.432,15.348,80.576c-4.796,20.144-7.674,43.166-15.348,51.799C231.706,361.079,240.599,362.205,240.599,362.205z" style="fill:#00AEE0;"/>
			<path d="M129.772,89.536c0,0,12.887-18.901,0-37.801s-34.986-13.3-61.619-18.455     c-15.647-3.029-31.787-8.591-49.207-16.769C2.989,9.021,0.283-2.803,0.046,7.061c-0.171,7.082-0.621,32.233,14.843,53.711     C32.059,84.62,54.17,92.973,80.803,92.973S122.04,92.114,129.772,89.536z" style="fill:#00AEE0;"/>
			<path d="M221.49,401.176c0,0,2.084-15.745-2.192-25.715c-4.276-9.97-15.139-14.334-20.681-32.234     c-5.543-17.9-13.308-41.056-15.453-49.903c-2.145-8.847-7.94-10.122-8.693-5.036c-1.757,11.88-6.32,27.67-9.431,38.739     c-3.111,11.069-2.125,25.395,5.755,43.166c7.881,17.77,23.733,21.261,34.26,24.54C215.581,398.011,224.169,395.83,221.49,401.176     " style="fill:#00AEE0;"/>
			<path d="M73.842,555.025c0,0,3.907-3.538,0.07-18.886c-3.837-15.348-13.429-8.633-14.389-28.777     c-0.959-20.144-4.796-34.532-9.592-30.696s-18.225,31.655-17.266,46.043c0.959,14.389,10.552,25.899,21.103,28.777     C64.32,554.365,73.842,555.025,73.842,555.025" style="fill:#00AEE0;"/>
			<path d="M185.35,171.048c0,0-2.683-12.068,10.385-18.602c9.592-4.796,16.307-9.592,22.062-24.94     c7.356-19.616-14.389-50.839-24.94-69.065c-11.89-20.537-9.592-43.166-11.511-55.636s-16.065,19.406-19.185,41.247     c-2.878,20.144-2.878,34.532,2.878,50.839c5.755,16.307,18.225,20.144,15.348,37.41     C178.196,145.446,183.598,168.547,185.35,171.048" style="fill:#00AEE0;"/>
			<path d="M174.632,161.079c0,3.955-15.348,4.796-27.818,2.878c-12.47-1.918-33.573-10.552-47.003-17.266     s-30.777-23.103-33.573-25.899c-3.837-3.837,7.809,0.455,18.361,1.414c9.409,0.855,15.611,2,30,2c9.64,0,25.785,8.863,30,12     C156.569,145.115,174.632,158.201,174.632,161.079z" style="fill:#00AEE0;"/>
			<g>
				<path d="M129.554,89.943c-4.183-7.589-11.288-13.125-18.143-18.219c-8.36-6.213-17.546-11.471-26.788-16.237      c-18.037-9.303-37.4-17.599-57.279-21.876c-1.629-0.35-2.836,1.997-1.192,2.827c17.446,8.815,36.116,15.03,53.71,23.618      c8.657,4.226,17.17,8.829,25.319,13.972c8.151,5.144,15.238,11.027,22.413,17.428C128.637,92.386,130.257,91.219,129.554,89.943      L129.554,89.943z" style="fill:#04294F;"/>
			</g>
			<g>
				<path d="M93.765,66.213c-4.566-3.15-12.324-2.779-17.69-3.143c-6.431-0.437-13.125-0.716-19.501,0.364      c-1.295,0.219-1.29,2.386,0,2.61c6.097,1.061,12.382,1.146,18.545,1.611c5.578,0.421,13.062,2.428,18.39,0.517      C94.403,67.852,94.545,66.75,93.765,66.213L93.765,66.213z" style="fill:#04294F;"/>
			</g>
			<g>
				<path d="M97.587,63.785c-0.54-7.173-4.364-14.917-10.454-19.015c-1.339-0.901-2.764,0.824-2.092,2.092      c1.583,2.988,3.648,5.708,5.316,8.658c1.658,2.933,3.132,5.98,4.742,8.94C95.71,65.585,97.688,65.122,97.587,63.785      L97.587,63.785z" style="fill:#04294F;"/>
			</g>
			<g>
				<path d="M184.325,162.134c6.842-11.589,14.975-21.283,15.502-35.346c0.499-13.336-3.931-29.557-11.87-40.387      c-0.682-0.93-2.018-0.371-1.831,0.772c1.099,6.732,4.174,13.157,6.033,19.709c1.912,6.739,3.1,13.729,2.697,20.753      c-0.396,6.901-2.565,13.114-6.09,19.01c-2.86,4.783-5.846,9.273-6.438,14.947C182.212,162.695,183.82,162.99,184.325,162.134      L184.325,162.134z" style="fill:#04294F;"/>
			</g>
			<g>
				<path d="M242.058,354.926c18.329-14.896,30.608-35.004,35.964-58.076c5.586-24.062,3.634-51.057-8.355-72.955      c-0.647-1.182-2.682-0.381-2.217,0.935c8.191,23.155,11.862,47.394,6.051,71.61c-5.137,21.405-17.151,41.702-32.561,57.368      C240.21,354.549,241.283,355.556,242.058,354.926L242.058,354.926z" style="fill:#04294F;"/>
			</g>
			<g>
				<path d="M279.095,279.132c-1.156-10.536-7.696-23.214-14.531-31.163c-0.877-1.02-2.301,0.278-1.767,1.363      c2.482,5.042,5.476,9.803,7.884,14.899c2.378,5.031,3.995,10.494,6.612,15.389C277.724,280.425,279.201,280.103,279.095,279.132      L279.095,279.132z" style="fill:#04294F;"/>
			</g>
			<g>
				<path d="M275.251,309.496c7.246-6.842,13.601-16.443,18.091-25.282c0.515-1.013-0.776-2.141-1.629-1.257      c-6.914,7.169-13.874,16.268-17.981,25.367C273.297,309.29,274.408,310.293,275.251,309.496L275.251,309.496z" style="fill:#04294F;"/>
			</g>
			<g>
				<path d="M222.088,398.707c2.318-11.371-13.486-19.52-21.217-24.574c-5.888-3.849-11.559-7.994-15.425-14      c-4.363-6.779-5.148-14.102-6.188-21.877c-0.198-1.482-2.276-2.016-2.762-0.374c-3.472,11.727,3.292,25.273,12.009,32.926      c10.201,8.956,26.982,13.832,31.176,27.899C220.014,399.824,221.832,399.965,222.088,398.707L222.088,398.707z" style="fill:#04294F;"/>
			</g>
			<g>
				<path d="M115.852,80.769c31.728,35.225,57.096,74.962,78.591,117.141c21.438,42.067,40.809,87.054,39.326,135.212      c-1.396,45.363-23.7,85.575-52.771,119.249c-15.959,18.486-33.926,34.865-53.442,49.519      c-17.304,12.993-35.312,25.672-49.328,42.356c-24.136,28.731-28.45,65.802-33.109,101.727c-0.212,1.636,2.47,1.951,2.854,0.386      c7.995-32.584,10.455-67.584,32.257-94.705c13.915-17.31,32.358-30.13,50.112-43.149c19.545-14.332,38.225-29.525,54.93-47.146      c30.367-32.032,53.668-72.016,58.169-116.534c4.917-48.626-12.133-94.638-33.168-137.545      c-11.857-24.187-25.556-47.433-41.119-69.423c-15.061-21.281-31.516-42.036-51.812-58.579      C116.304,78.43,114.928,79.743,115.852,80.769L115.852,80.769z" style="fill:#04294F;"/>
			</g>
		</g>
		<g id="Слой_129-i1">
		</g>
	</g>
</g>
<g id="Слой_130-i1">
	<g id="Слой_131-i1">
	</g>
</g>
<g id="Слой_132-i1">
	<g id="Слой_133-i1">
	</g>
</g>
<g id="Слой_134-i1">
	<g id="Слой_135-i1">
	</g>
</g>
<g id="Слой_136-i1">
	<g id="Слой_138-i1">
	</g>
</g>
<g id="Слой_140-i1">
	<g id="Слой_142-i1">
	</g>
</g>
<g id="Слой_143-i1">
	<g id="Слой_144-i1">
	</g>
</g>
<g id="Слой_145-i1">
	<g id="Слой_146-i1">
	</g>
</g>
<g id="Слой_147-i1">
	<g id="Слой_148-i1">
	</g>
</g>
<g id="Слой_150-i1">
	<g id="Слой_151-i1">
	</g>
</g>
<g id="Слой_152-i1">
	<g id="Слой_153-i1">
	</g>
</g>
<g id="Слой_154-i1">
	<g id="Слой_156-i1">
	</g>
</g>

            </g>
        </g>
    </g>
    
    <!-- ITEM 2 -->
    <g>
        <defs>
            <clipPath id="clip-path-id-viewbox-item-2">
                <rect x="0.0" y="0.0" width="350.7" height="684.898"/>
            </clipPath>
        </defs>
        <g transform="translate(406.0 186.0) rotate(0.0 185.0 362.0) scale(1.0550327915597377 1.0570917129265964)">
            <g clip-path="url(#clip-path-id-viewbox-item-2)" transform="translate(-0.0 -0.0)">
                

<g id="Слой_114-i2">
	<g id="Слой_137-i2">
	</g>
	<g id="Слой_127-i2">
	</g>
	<g id="Слой_128-i2">
	</g>
	<g id="Слой_198-i2">
		<g id="Слой_196-i2">
		</g>
		<g id="Слой_255-i2">
		</g>
		<g id="Слой_256-i2">
		</g>
		<g id="Слой_259-i2">
		</g>
		<g id="Слой_257-i2">
		</g>
		<g id="Слой_139-i2">
		</g>
		<g id="Слой_101-i2">
		</g>
		<g id="Слой_106-i2">
		</g>
		<g id="Слой_141-i2">
		</g>
	</g>
</g>
<g id="Слой_199-i2">
	<g id="Слой_230-i2">
	</g>
	<g id="Слой_200-i2">
	</g>
	<g id="Слой_201-i2">
	</g>
	<g id="Слой_108-i2">
	</g>
	<g id="Слой_220-i2">
		<g id="Слой_221-i2">
		</g>
	</g>
	<g id="Слой_222-i2">
	</g>
	<g id="Слой_208-i2" style="display:none;">
	</g>
	<g id="Слой_203-i2">
		<g id="Слой_207-i2">
		</g>
		<g id="Слой_211-i2">
		</g>
		<g id="Слой_100-i2">
		</g>
	</g>
	<g id="Слой_209-i2">
	</g>
	<g id="Слой_210-i2">
	</g>
	<g id="Слой_212-i2">
		<g id="Слой_219-i2">
		</g>
	</g>
</g>
<g id="Слой_149-i2">
	<g id="Слой_170-i2">
	</g>
	<g id="Слой_171-i2">
	</g>
	<g id="Слой_225-i2">
	</g>
	<g id="Слой_158-i2">
		<g id="Слой_159-i2">
		</g>
		<g id="Слой_229-i2">
		</g>
	</g>
	<g id="Слой_228-i2">
	</g>
	<g id="Слой_224-i2">
	</g>
	<g id="Слой_155-i2">
	</g>
	<g id="Слой_164-i2">
		<g id="Слой_165-i2">
		</g>
		<g id="Слой_166-i2">
		</g>
		<g id="Слой_167-i2">
		</g>
		<g id="Слой_168-i2">
		</g>
	</g>
	<g id="Слой_226-i2">
	</g>
</g>
<g id="Слой_172-i2">
	<g id="Слой_190-i2">
	</g>
	<g id="Слой_111-i2">
	</g>
	<g id="Слой_192-i2">
		<g id="Слой_112-i2">
		</g>
	</g>
	<g id="Слой_174-i2">
		<g id="Слой_180-i2">
		</g>
	</g>
	<g id="Слой_194-i2">
	</g>
	<g id="Слой_184-i2">
	</g>
	<g id="Слой_186-i2">
	</g>
</g>
<g id="Слой_175-i2">
	<g id="Слой_98-i2">
		<g id="Слой_99-i2">
		</g>
		<g id="Слой_102-i2">
		</g>
		<g id="Слой_103-i2">
		</g>
		<g id="Слой_104-i2">
		</g>
	</g>
	<g id="Слой_89-i2">
		<g id="Слой_95-i2">
		</g>
		<g id="Слой_92-i2">
			<g id="Слой_93-i2">
			</g>
			<g id="Слой_94-i2">
			</g>
		</g>
		<g id="Слой_96-i2">
		</g>
		<g id="Слой_97-i2">
		</g>
	</g>
</g>
<g id="Слой_77-i2">
	<g id="Слой_79-i2">
	</g>
	<g id="Слой_81-i2">
	</g>
	<g id="Слой_86-i2">
	</g>
	<g id="Слой_82-i2">
	</g>
	<g id="Слой_88-i2">
	</g>
</g>
<g id="Слой_53-i2">
	<g id="Слой_58-i2">
	</g>
	<g id="Слой_61-i2">
	</g>
	<g id="Слой_62-i2">
	</g>
	<g id="Слой_65-i2">
	</g>
	<g id="Слой_68-i2">
	</g>
</g>
<g id="Слой_69-i2">
	<g id="Слой_75-i2">
	</g>
	<g id="Слой_76-i2">
	</g>
</g>
<g id="Слой_85-i2">
	<g id="Слой_87-i2">
	</g>
</g>
<g id="Слой_90-i2">
	<g id="Слой_91-i2">
	</g>
</g>
<g id="Слой_105-i2">
	<g id="Слой_107-i2">
	</g>
</g>
<g id="Слой_109-i2">
	<g id="Слой_110-i2">
	</g>
</g>
<g id="Слой_113-i2">
	<g id="Слой_115-i2">
	</g>
</g>
<g id="Слой_116-i2">
	<g id="Слой_117-i2">
	</g>
</g>
<g id="Слой_118-i2">
	<g id="Слой_119-i2">
	</g>
</g>
<g id="Слой_120-i2">
	<g id="Слой_121-i2">
		<g>
			<g>
				<path d="M67.001,393.802c0,0-24.94-21.103-40.288-36.451C11.366,342.004,4.651,327.615,5.61,304.593      s28.777-70.983,24.94-114.149s0-48.921,5.755-39.329c5.755,9.592,28.777,71.943,30.696,106.475      c1.918,34.532-20.144,60.432-15.348,80.576c4.796,20.144,7.674,43.166,15.348,51.799S67.001,393.802,67.001,393.802z" style="fill:#00AEE0;"/>
				<path d="M176.834,126.655c0,0-14.389-21.103,0-42.206c14.389-21.103,51.799-22.062,79.617-30.696      s59.473-24.94,72.902-39.329s23.022-18.225,21.103-10.552c-1.918,7.674-11.511,67.146-37.41,87.29      c-25.899,20.144-51.799,39.329-81.535,39.329S185.467,129.533,176.834,126.655z" style="fill:#00AEE0;"/>
				<path d="M84.892,438.695c0,0-2.084-15.745,2.192-25.715c4.276-9.97,15.139-14.334,20.681-32.234      c5.543-17.9,13.308-41.056,15.453-49.903s7.94-10.122,8.693-5.036c1.757,11.88,6.32,27.67,9.431,38.739      s2.125,25.395-5.755,43.166c-7.881,17.77-23.733,21.261-34.26,24.54C90.801,435.53,82.212,433.349,84.892,438.695" style="fill:#00AEE0;"/>
				<path d="M163.405,531.453c-11.511,1.918-18.962-1.8-33.573-9.592c-14.389-7.674-13.801-30.752-45.084-35.492      c-31.655-4.796-64.854-12.048-75.78-27.818c-11.577-16.709-8.633-2.067-8.633,9.592c0,11.511,2.963,34.848,22.062,47.003      c21.103,13.429,46.359,18.116,53.717,23.022c20.144,13.429,41.533,17.346,53.717,13.429      C156.69,542.963,162.445,536.249,163.405,531.453" style="fill:#00AEE0;"/>
				<path d="M232.54,592.545c0,0-3.907-3.538-0.07-18.886c3.837-15.348,13.429-8.633,14.389-28.777      c0.959-20.144,4.796-34.532,9.592-30.695c4.796,3.837,18.225,31.655,17.266,46.043c-0.959,14.388-10.552,25.899-21.103,28.777      S232.54,592.545,232.54,592.545" style="fill:#00AEE0;"/>
				<path d="M254.765,655.416c-4.071-0.222-32.848,3.615-45.318-2.141c-12.47-5.755-8.633-19.185-22.062-23.022      c-13.429-3.837-23.981-11.511-17.266-11.511s21.103-9.592,33.573,0c12.47,9.592,16.307,17.266,28.777,15.348      c12.47-1.918,24.94,21.103,24.94,22.062" style="fill:#00AEE0;"/>
				<path d="M121.031,208.567c0,0,2.683-12.068-10.385-18.602c-9.592-4.796-16.307-9.592-22.062-24.94      c-7.356-19.616,14.389-50.839,24.94-69.065c11.89-20.537,9.592-43.166,11.511-55.636c1.918-12.47,16.065,19.406,19.185,41.247      c2.878,20.144,2.878,34.532-2.878,50.839c-5.755,16.307-18.225,20.144-15.348,37.41      C128.185,182.966,122.783,206.066,121.031,208.567" style="fill:#00AEE0;"/>
				<path d="M131.75,198.598c0,3.955,15.348,4.796,27.818,2.878s33.573-10.552,47.003-17.266      s30.777-23.103,33.573-25.899c3.837-3.837,4.796-5.755-5.755-4.796c-9.409,0.855-24.94,11.511-39.329,11.511      c-9.64,0-26.859-4.796-35.492,3.837C149.016,179.413,131.75,195.72,131.75,198.598z" style="fill:#00AEE0;"/>
			</g>
			<g>
				<g>
					<path d="M179.164,128.695c7.66-7.061,15.319-13.462,24.113-19.09c9.336-5.975,19.114-11.294,29.067-16.164       c19.66-9.619,40.455-16.638,60.094-26.228c1.631-0.797,0.453-3.204-1.192-2.827c-22.065,5.055-43.552,14.148-63.656,24.48       c-10.044,5.162-19.926,10.86-29.101,17.466c-8.001,5.76-16.343,12.156-21.286,20.851       C176.492,128.433,178.126,129.651,179.164,128.695L179.164,128.695z" style="fill:#04294F;"/>
				</g>
				<g>
					<path d="M217.356,102.681c3.231,1.108,6.545,0.391,9.894,0.079c3.532-0.329,7.069-0.544,10.606-0.805       c6.865-0.508,13.865-0.579,20.664-1.682c1.29-0.209,1.295-2.405,0-2.61c-7.086-1.122-14.496-0.777-21.63-0.296       c-5.882,0.397-14.731-0.039-19.79,3.354C216.315,101.248,216.465,102.376,217.356,102.681L217.356,102.681z" style="fill:#04294F;"/>
				</g>
				<g>
					<path d="M215.414,98.577c3.478-6.757,7.493-13.065,11.21-19.659c0.703-1.248-0.787-3.022-2.092-2.092       c-6.646,4.732-10.824,13.096-11.607,21.077C212.795,99.229,214.829,99.714,215.414,98.577L215.414,98.577z" style="fill:#04294F;"/>
				</g>
				<g>
					<path d="M124.055,199.112c-0.561-5.381-3.273-9.741-6.028-14.273c-3.723-6.125-6.049-12.477-6.5-19.684       c-0.42-6.703,0.685-13.442,2.451-19.89c1.878-6.858,5.132-13.549,6.278-20.573c0.185-1.135-1.145-1.709-1.831-0.772       c-7.938,10.828-12.369,27.056-11.87,40.387c0.526,14.058,8.662,23.759,15.502,35.346       C122.562,200.509,124.17,200.216,124.055,199.112L124.055,199.112z" style="fill:#04294F;"/>
				</g>
				<g>
					<path d="M129.565,198.321c9.611,1.671,19.786-4.14,28.408-7.796c10.155-4.306,21.637-8.803,30.444-15.539       c1.29-0.987,0.639-3.536-1.219-2.892c-9.084,3.153-17.669,8.319-26.483,12.194c-9.658,4.245-19.999,9.738-30.678,10.545       C128.183,194.973,127.461,197.955,129.565,198.321L129.565,198.321z" style="fill:#04294F;"/>
				</g>
				<g>
					<path d="M65.442,391.327c-15.41-15.666-27.425-35.962-32.561-57.368c-5.811-24.216-2.141-48.454,6.051-71.61       c0.461-1.302-1.563-2.129-2.217-0.935c-11.991,21.899-13.942,48.891-8.355,72.955c5.357,23.072,17.635,43.18,35.964,58.076       C65.098,393.075,66.172,392.069,65.442,391.327L65.442,391.327z" style="fill:#04294F;"/>
				</g>
				<g>
					<path d="M29.088,317.14c2.618-4.896,4.233-10.356,6.612-15.389c2.408-5.096,5.402-9.856,7.884-14.899       c0.529-1.074-0.882-2.392-1.767-1.363c-6.837,7.952-13.375,20.628-14.531,31.163C27.18,317.622,28.658,317.945,29.088,317.14       L29.088,317.14z" style="fill:#04294F;"/>
				</g>
				<g>
					<path d="M32.648,345.844c-4.108-9.102-11.058-18.189-17.981-25.367c-0.846-0.877-2.148,0.234-1.629,1.257       c4.488,8.835,10.841,18.436,18.091,25.282C31.967,347.806,33.088,346.817,32.648,345.844L32.648,345.844z" style="fill:#04294F;"/>
				</g>
				<g>
					<path d="M86.7,436.227c4.193-14.061,20.98-18.946,31.176-27.899c8.721-7.657,15.482-21.197,12.009-32.926       c-0.483-1.631-2.562-1.12-2.762,0.374c-1.004,7.508-1.727,14.558-5.769,21.19c-3.874,6.356-9.712,10.685-15.844,14.688       c-7.724,5.043-23.534,13.208-21.217,24.574C84.549,437.483,86.367,437.344,86.7,436.227L86.7,436.227z" style="fill:#04294F;"/>
				</g>
				<g>
					<path d="M159.405,531.952c-6.304,0.596-12.432,2.435-18.732,3.155c-6.328,0.723-12.802,0.88-19.147,0.263       c-14.003-1.362-26.006-7.253-36.859-15.988c-9.656-7.772-18.542-16.468-29.66-22.2c-10.888-5.614-23.296-9.098-35.594-7.845       c-1.151,0.117-1.654,1.973-0.299,2.21c13.861,2.42,27.286,5.631,39.315,13.279c10.917,6.941,19.739,16.619,30.381,23.939       c10.205,7.02,22.046,10.793,34.369,11.636c11.728,0.802,26.438-0.441,36.723-6.614       C160.685,533.316,160.421,531.856,159.405,531.952L159.405,531.952z" style="fill:#04294F;"/>
				</g>
				<g>
					<path d="M110.014,531.71c-3.609-1.959-6.072-6.539-8.46-9.765c-2.264-3.059-4.793-5.918-7.17-8.894       c-0.788-0.987-2.309,0.276-1.712,1.321c2.529,4.426,5.164,8.66,8.276,12.7c2.301,2.987,4.327,5.962,8.266,6.534       C110.287,533.761,111.139,532.32,110.014,531.71L110.014,531.71z" style="fill:#04294F;"/>
				</g>
				<g>
					<path d="M232.998,590.956c2.393-4.967,5.674-9.415,9.821-13.069c4.009-3.533,8.737-5.189,13.142-8.018       c6.833-4.389,8.734-13.267,6.553-20.816c-0.394-1.364-2.215-0.976-2.348,0.318c-0.518,5.03,0.43,10.182-2.675,14.587       c-2.828,4.012-8.435,5.443-12.368,8.146c-6.55,4.502-11.151,10.681-13.956,18.08       C230.766,591.239,232.506,591.977,232.998,590.956L232.998,590.956z" style="fill:#04294F;"/>
				</g>
				<g>
					<path d="M252.77,650.807c-4.083-6.372-12.4-5.874-19.06-6.247c-10.21-0.572-16.068-5.018-22.496-12.504       c-0.713-0.83-2.143,0.052-1.822,1.06c2.049,6.435,8.228,11.298,14.401,13.545c3.784,1.377,7.685,1.561,11.675,1.658       c5.967,0.144,10.631,0.874,15.739,4.052C252.164,652.966,253.387,651.77,252.77,650.807L252.77,650.807z" style="fill:#04294F;"/>
				</g>
				<g>
					<path d="M189.038,116.797c-18.032,14.697-32.739,32.685-46.531,51.297c-14.261,19.245-27.007,39.63-38.291,60.756       c-22.497,42.117-42.088,87.832-42.123,136.378c-0.033,45.461,19.431,87.546,48.435,121.837       c14.973,17.703,32.134,33.607,50.495,47.738c18.916,14.559,39.428,27.454,56.279,44.506       c12.992,13.147,22.356,28.602,27.812,46.261c5.884,19.047,8.549,38.968,13.294,58.308c0.38,1.548,3.069,1.267,2.854-0.386       c-4.129-31.836-7.518-66.142-26.502-93.158c-11.222-15.97-26.253-28.47-41.668-40.213       c-19.471-14.832-38.71-29.372-55.733-47.072c-30.338-31.546-56.458-69.939-63.138-114.026       c-7.396-48.804,9.788-95.856,30.558-139.155c22.766-47.461,50.463-92.401,85.751-131.579       C191.453,117.263,190.078,115.949,189.038,116.797L189.038,116.797z" style="fill:#04294F;"/>
				</g>
			</g>
		</g>
	</g>
</g>
<g id="Слой_122-i2">
	<g id="Слой_123-i2">
		<g id="Слой_124-i2">
			<g id="Слой_125-i2">
			</g>
		</g>
		<g id="Слой_126-i2">
		</g>
		<g id="Слой_129-i2">
		</g>
	</g>
</g>
<g id="Слой_130-i2">
	<g id="Слой_131-i2">
	</g>
</g>
<g id="Слой_132-i2">
	<g id="Слой_133-i2">
	</g>
</g>
<g id="Слой_134-i2">
	<g id="Слой_135-i2">
	</g>
</g>
<g id="Слой_136-i2">
	<g id="Слой_138-i2">
	</g>
</g>
<g id="Слой_140-i2">
	<g id="Слой_142-i2">
	</g>
</g>
<g id="Слой_143-i2">
	<g id="Слой_144-i2">
	</g>
</g>
<g id="Слой_145-i2">
	<g id="Слой_146-i2">
	</g>
</g>
<g id="Слой_147-i2">
	<g id="Слой_148-i2">
	</g>
</g>
<g id="Слой_150-i2">
	<g id="Слой_151-i2">
	</g>
</g>
<g id="Слой_152-i2">
	<g id="Слой_153-i2">
	</g>
</g>
<g id="Слой_154-i2">
	<g id="Слой_156-i2">
	</g>
</g>

            </g>
        </g>
    </g>
    
    <!-- ITEM 3 -->
    <g>
        <defs>
            <clipPath id="clip-path-id-viewbox-item-3">
                <rect x="0.0" y="0.0" width="100.2" height="100.2"/>
            </clipPath>
        </defs>
        <g transform="translate(644.0 418.0) rotate(0.0 124.5 124.5) scale(2.48502994011976 2.48502994011976)">
            <g clip-path="url(#clip-path-id-viewbox-item-3)" transform="translate(-0.0 -0.0)">
                

<path d="M45.8,100c-27.6-2.4-48-26.7-45.6-54.3c0.2-2.1,0.5-4.1,0.9-6.2C2.7,31,7.4,23.9,7.4,23.9  c4.8-7.7,11.6-14,19.6-18.3C38.4,0,47.2-0.6,57.9,0.5C76.2,3.4,92,18.1,97.5,33.6C104.5,53.6,89.6,103.6,45.8,100z" style="fill:#00AEE0;"/>
<title>earth</title>
<path d="M97.5,33.7c9,26.3-5.1,54.8-31.3,63.8c-5.2,1.8-10.6,2.7-16.1,2.7c-1.5,0-2.9-0.1-4.3-0.2  c-3.6-4.6-3.5-17.1,6-19.4c8.6-2.2,11.1-12.5,8.6-19.8c-4.1-11.8,13.8-17.3,15-3.5c1.2,13.6,23.4,5,14.5-6.9  C83.7,42.1,97.5,33.7,97.5,33.7z" style="fill:#04294f;"/>
<path d="M72.9,23.2c4.1,8.2,3.6,22.3-8.5,17.6c-6.2-2.4-4.2-8.8,0-8.9c3.7-0.2,4.5-5.4,0.9-7.9  C61.5,21.2,68.9,15,72.9,23.2z" style="fill:#04294f;"/>
<path d="M50.1,0c2.6,0,5.3,0.1,7.8,0.5c-4,18.5-24.8,16.3-31,5.2C34,1.9,42,0,50.1,0z" style="fill:#04294f;"/>
<path d="M35.6,32.9c13.3-6.1,17.3,11,7.2,12.7c-4.9,0.8-7.5,4-5.9,16.6c1.8,14.2-10.6,18.6-19.2,13.3  c-5-3.1-7.1-10.9,0-18.8c5.9-6.5-7.2-18.7-16.6-17.1C2.4,33,4.2,29,7.3,24.1C7.4,24.1,23.5,38.5,35.6,32.9z" style="fill:#04294f;"/>

            </g>
        </g>
    </g>
    
    <!-- ITEM 4 -->
    <g>
        <defs>
            <clipPath id="clip-path-id-viewbox-item-4">
                <rect x="0.0" y="0.0" width="188.977" height="766.848"/>
            </clipPath>
        </defs>
        <g transform="translate(106.0 173.0) rotate(0.0 99.5 406.0) scale(1.0530382004159236 1.0588799866466367)">
            <g clip-path="url(#clip-path-id-viewbox-item-4)" transform="translate(-0.0 -0.0)">
                

<g id="Слой_114-i4">
	<g id="Слой_137-i4">
	</g>
	<g id="Слой_127-i4">
	</g>
	<g id="Слой_128-i4">
	</g>
	<g id="Слой_198-i4">
		<g id="Слой_196-i4">
		</g>
		<g id="Слой_255-i4">
		</g>
		<g id="Слой_256-i4">
		</g>
		<g id="Слой_259-i4">
		</g>
		<g id="Слой_257-i4">
		</g>
		<g id="Слой_139-i4">
		</g>
		<g id="Слой_101-i4">
		</g>
		<g id="Слой_106-i4">
		</g>
		<g id="Слой_141-i4">
		</g>
	</g>
</g>
<g id="Слой_199-i4">
	<g id="Слой_230-i4">
	</g>
	<g id="Слой_200-i4">
	</g>
	<g id="Слой_201-i4">
	</g>
	<g id="Слой_108-i4">
	</g>
	<g id="Слой_220-i4">
		<g id="Слой_221-i4">
		</g>
	</g>
	<g id="Слой_222-i4">
	</g>
	<g id="Слой_208-i4" style="display:none;">
	</g>
	<g id="Слой_203-i4">
		<g id="Слой_207-i4">
		</g>
		<g id="Слой_211-i4">
		</g>
		<g id="Слой_100-i4">
		</g>
	</g>
	<g id="Слой_209-i4">
	</g>
	<g id="Слой_210-i4">
	</g>
	<g id="Слой_212-i4">
		<g id="Слой_219-i4">
		</g>
	</g>
</g>
<g id="Слой_149-i4">
	<g id="Слой_170-i4">
	</g>
	<g id="Слой_171-i4">
	</g>
	<g id="Слой_225-i4">
	</g>
	<g id="Слой_158-i4">
		<g id="Слой_159-i4">
		</g>
		<g id="Слой_229-i4">
		</g>
	</g>
	<g id="Слой_228-i4">
	</g>
	<g id="Слой_224-i4">
	</g>
	<g id="Слой_155-i4">
	</g>
	<g id="Слой_164-i4">
		<g id="Слой_165-i4">
		</g>
		<g id="Слой_166-i4">
		</g>
		<g id="Слой_167-i4">
		</g>
		<g id="Слой_168-i4">
		</g>
	</g>
	<g id="Слой_226-i4">
	</g>
</g>
<g id="Слой_172-i4">
	<g id="Слой_190-i4">
	</g>
	<g id="Слой_111-i4">
	</g>
	<g id="Слой_192-i4">
		<g id="Слой_112-i4">
		</g>
	</g>
	<g id="Слой_174-i4">
		<g id="Слой_180-i4">
		</g>
	</g>
	<g id="Слой_194-i4">
	</g>
	<g id="Слой_184-i4">
	</g>
	<g id="Слой_186-i4">
	</g>
</g>
<g id="Слой_175-i4">
	<g id="Слой_98-i4">
		<g id="Слой_99-i4">
		</g>
		<g id="Слой_102-i4">
		</g>
		<g id="Слой_103-i4">
		</g>
		<g id="Слой_104-i4">
		</g>
	</g>
	<g id="Слой_89-i4">
		<g id="Слой_95-i4">
		</g>
		<g id="Слой_92-i4">
			<g id="Слой_93-i4">
			</g>
			<g id="Слой_94-i4">
			</g>
		</g>
		<g id="Слой_96-i4">
		</g>
		<g id="Слой_97-i4">
		</g>
	</g>
</g>
<g id="Слой_77-i4">
	<g id="Слой_79-i4">
	</g>
	<g id="Слой_81-i4">
	</g>
	<g id="Слой_86-i4">
	</g>
	<g id="Слой_82-i4">
	</g>
	<g id="Слой_88-i4">
	</g>
</g>
<g id="Слой_53-i4">
	<g id="Слой_58-i4">
	</g>
	<g id="Слой_61-i4">
	</g>
	<g id="Слой_62-i4">
	</g>
	<g id="Слой_65-i4">
	</g>
	<g id="Слой_68-i4">
	</g>
</g>
<g id="Слой_69-i4">
	<g id="Слой_75-i4">
	</g>
	<g id="Слой_76-i4">
	</g>
</g>
<g id="Слой_85-i4">
	<g id="Слой_87-i4">
	</g>
</g>
<g id="Слой_90-i4">
	<g id="Слой_91-i4">
	</g>
</g>
<g id="Слой_105-i4">
	<g id="Слой_107-i4">
	</g>
</g>
<g id="Слой_109-i4">
	<g id="Слой_110-i4">
	</g>
</g>
<g id="Слой_113-i4">
	<g id="Слой_115-i4">
	</g>
</g>
<g id="Слой_116-i4">
	<g id="Слой_117-i4">
	</g>
</g>
<g id="Слой_118-i4">
	<g id="Слой_119-i4">
		<g>
			<g>
				<g>
					<path d="M87.317,385.716c-6.419-5.35-13.339-6.374-21.408-7.215c-6.895-0.718-13.556-1.474-20.454-1.402       c-6.803,0.071-13.672-0.532-20.478-0.707c-6.369-0.164-15.895,0.086-21.285,3.866c-3.488,2.447-5.474,8.339-1.491,11.571       c5.568,4.517,13.807,5.754,20.825,6.366c6.801,0.593,13.714,0.734,20.48,1.666c6.827,0.941,13.546,1.353,20.456,1.768       c7.691,0.462,14.673,0.921,21.682-2.931C89.998,396.306,91.392,389.113,87.317,385.716L87.317,385.716z" style="fill:#FFB400;"/>
				</g>
			</g>
			<g>
				<g>
					<path d="M151.941,31.069c-1.635-2.009-3.093-4.45-5.263-6.326c-2.642-2.282-5.425-4.357-8.286-6.356       c-4.634-3.238-9.669-5.903-14.79-8.295C112.82,5.059,101.021,1.784,89.18,0.177c-4.917-0.667-9.694,0.448-12.378,5.037       c-2.251,3.849-2.049,10.325,1.714,13.283c9.294,7.306,18.474,14.257,28.648,19.719c5.384,2.891,10.835,5.668,16.487,7.995       c2.563,1.055,5.106,2.139,7.726,3.039c3.063,1.051,6.186,1.176,9.013,1.663C152.401,52.978,159.608,40.493,151.941,31.069       L151.941,31.069z" style="fill:#FFB400;"/>
				</g>
			</g>
			<g>
				<g>
					<path d="M177.199,710.213c-3.498,0.463-6.852,0.321-10.337,1.259c-3.325,0.894-6.471,2.335-9.624,3.69       c-5.373,2.308-10.433,5.109-15.352,8.278c-2.313,1.491-4.609,3.04-6.848,4.64c-3.279,2.344-5.44,5.182-7.617,7.016       c-4.612,3.887-8.75,8.284-12.566,12.944c-3.127,3.819-4.347,8.782-1.714,13.283c2.307,3.944,7.873,6.688,12.378,5.037       c11.368-4.165,21.882-8.391,32.042-14.284c4.76-2.761,9.52-5.587,13.969-8.826c2.777-2.022,5.544-4.04,8.171-6.26       c2.347-1.983,3.892-4.329,5.867-6.571c3.173-3.604,4.449-8.377,2.447-12.93C186.322,713.634,181.821,709.601,177.199,710.213       L177.199,710.213z" style="fill:#FFB400;"/>
				</g>
			</g>
		</g>
	</g>
</g>
<g id="Слой_120-i4">
	<g id="Слой_121-i4">
	</g>
</g>
<g id="Слой_122-i4">
	<g id="Слой_123-i4">
		<g id="Слой_124-i4">
			<g id="Слой_125-i4">
			</g>
		</g>
		<g id="Слой_126-i4">
		</g>
		<g id="Слой_129-i4">
		</g>
	</g>
</g>
<g id="Слой_130-i4">
	<g id="Слой_131-i4">
	</g>
</g>
<g id="Слой_132-i4">
	<g id="Слой_133-i4">
	</g>
</g>
<g id="Слой_134-i4">
	<g id="Слой_135-i4">
	</g>
</g>
<g id="Слой_136-i4">
	<g id="Слой_138-i4">
	</g>
</g>
<g id="Слой_140-i4">
	<g id="Слой_142-i4">
	</g>
</g>
<g id="Слой_143-i4">
	<g id="Слой_144-i4">
	</g>
</g>
<g id="Слой_145-i4">
	<g id="Слой_146-i4">
	</g>
</g>
<g id="Слой_147-i4">
	<g id="Слой_148-i4">
	</g>
</g>
<g id="Слой_150-i4">
	<g id="Слой_151-i4">
	</g>
</g>
<g id="Слой_152-i4">
	<g id="Слой_153-i4">
	</g>
</g>
<g id="Слой_154-i4">
	<g id="Слой_156-i4">
	</g>
</g>

            </g>
        </g>
    </g>
    
    <!-- ITEM 5 -->
    <g>
        <defs>
            <clipPath id="clip-path-id-viewbox-item-5">
                <rect x="0.0" y="0.0" width="188.977" height="766.848"/>
            </clipPath>
        </defs>
        <g transform="translate(1401.0 178.0) rotate(0.0 -99.5 406.0) scale(-1.0530382004159236 1.0588799866466367)">
            <g clip-path="url(#clip-path-id-viewbox-item-5)" transform="translate(-0.0 -0.0)">
                

<g id="Слой_114-i5">
	<g id="Слой_137-i5">
	</g>
	<g id="Слой_127-i5">
	</g>
	<g id="Слой_128-i5">
	</g>
	<g id="Слой_198-i5">
		<g id="Слой_196-i5">
		</g>
		<g id="Слой_255-i5">
		</g>
		<g id="Слой_256-i5">
		</g>
		<g id="Слой_259-i5">
		</g>
		<g id="Слой_257-i5">
		</g>
		<g id="Слой_139-i5">
		</g>
		<g id="Слой_101-i5">
		</g>
		<g id="Слой_106-i5">
		</g>
		<g id="Слой_141-i5">
		</g>
	</g>
</g>
<g id="Слой_199-i5">
	<g id="Слой_230-i5">
	</g>
	<g id="Слой_200-i5">
	</g>
	<g id="Слой_201-i5">
	</g>
	<g id="Слой_108-i5">
	</g>
	<g id="Слой_220-i5">
		<g id="Слой_221-i5">
		</g>
	</g>
	<g id="Слой_222-i5">
	</g>
	<g id="Слой_208-i5" style="display:none;">
	</g>
	<g id="Слой_203-i5">
		<g id="Слой_207-i5">
		</g>
		<g id="Слой_211-i5">
		</g>
		<g id="Слой_100-i5">
		</g>
	</g>
	<g id="Слой_209-i5">
	</g>
	<g id="Слой_210-i5">
	</g>
	<g id="Слой_212-i5">
		<g id="Слой_219-i5">
		</g>
	</g>
</g>
<g id="Слой_149-i5">
	<g id="Слой_170-i5">
	</g>
	<g id="Слой_171-i5">
	</g>
	<g id="Слой_225-i5">
	</g>
	<g id="Слой_158-i5">
		<g id="Слой_159-i5">
		</g>
		<g id="Слой_229-i5">
		</g>
	</g>
	<g id="Слой_228-i5">
	</g>
	<g id="Слой_224-i5">
	</g>
	<g id="Слой_155-i5">
	</g>
	<g id="Слой_164-i5">
		<g id="Слой_165-i5">
		</g>
		<g id="Слой_166-i5">
		</g>
		<g id="Слой_167-i5">
		</g>
		<g id="Слой_168-i5">
		</g>
	</g>
	<g id="Слой_226-i5">
	</g>
</g>
<g id="Слой_172-i5">
	<g id="Слой_190-i5">
	</g>
	<g id="Слой_111-i5">
	</g>
	<g id="Слой_192-i5">
		<g id="Слой_112-i5">
		</g>
	</g>
	<g id="Слой_174-i5">
		<g id="Слой_180-i5">
		</g>
	</g>
	<g id="Слой_194-i5">
	</g>
	<g id="Слой_184-i5">
	</g>
	<g id="Слой_186-i5">
	</g>
</g>
<g id="Слой_175-i5">
	<g id="Слой_98-i5">
		<g id="Слой_99-i5">
		</g>
		<g id="Слой_102-i5">
		</g>
		<g id="Слой_103-i5">
		</g>
		<g id="Слой_104-i5">
		</g>
	</g>
	<g id="Слой_89-i5">
		<g id="Слой_95-i5">
		</g>
		<g id="Слой_92-i5">
			<g id="Слой_93-i5">
			</g>
			<g id="Слой_94-i5">
			</g>
		</g>
		<g id="Слой_96-i5">
		</g>
		<g id="Слой_97-i5">
		</g>
	</g>
</g>
<g id="Слой_77-i5">
	<g id="Слой_79-i5">
	</g>
	<g id="Слой_81-i5">
	</g>
	<g id="Слой_86-i5">
	</g>
	<g id="Слой_82-i5">
	</g>
	<g id="Слой_88-i5">
	</g>
</g>
<g id="Слой_53-i5">
	<g id="Слой_58-i5">
	</g>
	<g id="Слой_61-i5">
	</g>
	<g id="Слой_62-i5">
	</g>
	<g id="Слой_65-i5">
	</g>
	<g id="Слой_68-i5">
	</g>
</g>
<g id="Слой_69-i5">
	<g id="Слой_75-i5">
	</g>
	<g id="Слой_76-i5">
	</g>
</g>
<g id="Слой_85-i5">
	<g id="Слой_87-i5">
	</g>
</g>
<g id="Слой_90-i5">
	<g id="Слой_91-i5">
	</g>
</g>
<g id="Слой_105-i5">
	<g id="Слой_107-i5">
	</g>
</g>
<g id="Слой_109-i5">
	<g id="Слой_110-i5">
	</g>
</g>
<g id="Слой_113-i5">
	<g id="Слой_115-i5">
	</g>
</g>
<g id="Слой_116-i5">
	<g id="Слой_117-i5">
	</g>
</g>
<g id="Слой_118-i5">
	<g id="Слой_119-i5">
		<g>
			<g>
				<g>
					<path d="M87.317,385.716c-6.419-5.35-13.339-6.374-21.408-7.215c-6.895-0.718-13.556-1.474-20.454-1.402       c-6.803,0.071-13.672-0.532-20.478-0.707c-6.369-0.164-15.895,0.086-21.285,3.866c-3.488,2.447-5.474,8.339-1.491,11.571       c5.568,4.517,13.807,5.754,20.825,6.366c6.801,0.593,13.714,0.734,20.48,1.666c6.827,0.941,13.546,1.353,20.456,1.768       c7.691,0.462,14.673,0.921,21.682-2.931C89.998,396.306,91.392,389.113,87.317,385.716L87.317,385.716z" style="fill:#FFB400;"/>
				</g>
			</g>
			<g>
				<g>
					<path d="M151.941,31.069c-1.635-2.009-3.093-4.45-5.263-6.326c-2.642-2.282-5.425-4.357-8.286-6.356       c-4.634-3.238-9.669-5.903-14.79-8.295C112.82,5.059,101.021,1.784,89.18,0.177c-4.917-0.667-9.694,0.448-12.378,5.037       c-2.251,3.849-2.049,10.325,1.714,13.283c9.294,7.306,18.474,14.257,28.648,19.719c5.384,2.891,10.835,5.668,16.487,7.995       c2.563,1.055,5.106,2.139,7.726,3.039c3.063,1.051,6.186,1.176,9.013,1.663C152.401,52.978,159.608,40.493,151.941,31.069       L151.941,31.069z" style="fill:#FFB400;"/>
				</g>
			</g>
			<g>
				<g>
					<path d="M177.199,710.213c-3.498,0.463-6.852,0.321-10.337,1.259c-3.325,0.894-6.471,2.335-9.624,3.69       c-5.373,2.308-10.433,5.109-15.352,8.278c-2.313,1.491-4.609,3.04-6.848,4.64c-3.279,2.344-5.44,5.182-7.617,7.016       c-4.612,3.887-8.75,8.284-12.566,12.944c-3.127,3.819-4.347,8.782-1.714,13.283c2.307,3.944,7.873,6.688,12.378,5.037       c11.368-4.165,21.882-8.391,32.042-14.284c4.76-2.761,9.52-5.587,13.969-8.826c2.777-2.022,5.544-4.04,8.171-6.26       c2.347-1.983,3.892-4.329,5.867-6.571c3.173-3.604,4.449-8.377,2.447-12.93C186.322,713.634,181.821,709.601,177.199,710.213       L177.199,710.213z" style="fill:#FFB400;"/>
				</g>
			</g>
		</g>
	</g>
</g>
<g id="Слой_120-i5">
	<g id="Слой_121-i5">
	</g>
</g>
<g id="Слой_122-i5">
	<g id="Слой_123-i5">
		<g id="Слой_124-i5">
			<g id="Слой_125-i5">
			</g>
		</g>
		<g id="Слой_126-i5">
		</g>
		<g id="Слой_129-i5">
		</g>
	</g>
</g>
<g id="Слой_130-i5">
	<g id="Слой_131-i5">
	</g>
</g>
<g id="Слой_132-i5">
	<g id="Слой_133-i5">
	</g>
</g>
<g id="Слой_134-i5">
	<g id="Слой_135-i5">
	</g>
</g>
<g id="Слой_136-i5">
	<g id="Слой_138-i5">
	</g>
</g>
<g id="Слой_140-i5">
	<g id="Слой_142-i5">
	</g>
</g>
<g id="Слой_143-i5">
	<g id="Слой_144-i5">
	</g>
</g>
<g id="Слой_145-i5">
	<g id="Слой_146-i5">
	</g>
</g>
<g id="Слой_147-i5">
	<g id="Слой_148-i5">
	</g>
</g>
<g id="Слой_150-i5">
	<g id="Слой_151-i5">
	</g>
</g>
<g id="Слой_152-i5">
	<g id="Слой_153-i5">
	</g>
</g>
<g id="Слой_154-i5">
	<g id="Слой_156-i5">
	</g>
</g>

            </g>
        </g>
    </g>
    
</svg>