<svg enable-background="new 0 0 2261.777 1531.134" height="1532" viewBox="0 0 2261.777 1531.134" width="2262" xmlns="http://www.w3.org/2000/svg"><path d="m2168.368 1014.539c-132.35 219.19-398.95 349.21-653.15 318.54-98.18-11.85-193.15-45.36-291.79-52.33-171.98-12.16-337.84 56.56-500.09 114.89-162.24 58.33-339.97 107.58-504.75 56.89-112.21-34.52-227.89-152.55-130.59-260.61 29.27-32.51 71.1-44.13 92.07-86.13 34.13-68.4 8.73-166.84-13.53-235.07-35.75-109.55-96.12-209.63-134.02-318.46-37.89-108.82-50.91-235.1 6.58-334.96 85.39-148.34 288.22-179.75 457.35-153.45 126.58 19.69 251.3 62.23 377.53 76.12 42.42 4.68 85 6.12 127.89 2.37 77.98-6.82 152.48-30.48 226.6-56.58 81.18-28.59 161.9-60.09 246.24-75.55 251.86-46.16 525.91 67.3 671.421 277.98 145.509 210.69 154.589 507.16 22.239 726.35z" fill="#ffb400"/><path d="m1256.046 1333.589c32.553 5.849 68.238 19.693 80.252 50.508 12.204 31.302-6.698 67.828-34.51 86.678s-62.309 24.235-95.546 29.145c-59.564 8.799-119.128 17.599-178.691 26.398-27.25 4.026-55.41 8.008-82.026.91-26.615-7.099-51.497-28.303-53.925-55.74-9.788-110.609 295.012-150.375 364.446-137.899z" fill="#ffb400"/><path d="m569.056 1089.419c-2.945 4.962-6.757 9.63-11.62 13.923-55.268 48.789-106.882-17.73-105.207-72.198 2.176-70.793 4.35-141.58 6.526-212.373.71-23.182 1.663-47.416 11.547-68.295 9.878-20.88 31.727-36.828 50.104-29.351 20.204 8.224 25.429 37.634 27.869 62.717 6.248 64.294 12.518 128.585 18.778 192.883 3.432 35.242 21.254 80.256 2.003 112.694z" fill="#04294f"/><path d="m358.742 762.662c19.62 68.507 58.662 127.941 109.908 167.318 11.003 8.455 53.522 53.324 19.301 62.359-19.236 5.079-52.483-34.145-63.906-47.164-41.014-46.741-65.735-113.177-65.303-182.513z" fill="#04294f"/><path d="m622.742 808.077c3.27-4.414 9.136-9.287 12.335-5.246 1.951 2.465 1.003 6.492-.122 9.741-13.535 39.075-39.104 73.254-70.935 94.819-29.558 20.026-42.448-22.492-15.989-38.135 29.013-17.156 52.565-31.279 74.711-61.179z" fill="#04294f"/><path d="m1610.41 1180.603c19.925 24.129 59.281 36.221 88.125 35.105 33.292-1.287 62.73-17.649 84.459-42.26 25.747-29.162 12.337-61.766 9.279-96.672-10.245-116.958-20.487-233.907-30.731-350.865-3.35-38.299-7.187-78.324-24.82-112.272-17.624-33.95-53.702-59.036-82.039-45.584-31.153 14.796-36.587 63.746-38.034 105.377-3.314 94.791-6.603 189.582-9.905 284.374-1.23 35.317-.427 70.671-1.314 105.996-.843 33.565-18.884 75.738-1.248 107.694 1.768 3.204 3.861 6.241 6.228 9.107z" fill="#04294f"/><path d="m1490.286 623.781c27.086 115.167 87.1 216.834 168.95 286.21 17.574 14.896 84.514 92.686 27.045 104.947-32.304 6.892-84.317-60.799-102.224-83.297-64.296-80.774-100.005-192.914-93.771-307.86z" fill="#04294f"/><path d="m1833.039 791.996c2.804-7.751 9.621-17.59 17.257-14.015 4.658 2.181 5.454 8.095 5.501 13.072.567 59.855-21.565 120.015-61.399 166.896-36.991 43.535-83.124-5.896-48.676-41.818 37.774-39.391 68.323-71.632 87.317-124.135z" fill="#04294f"/><path d="m685.679 796.222c-3.478 3.341-7.238 6.385-11.29 9.066-19.373 12.819-43.77 16.227-66.895 14.015-37.173-3.556-67.428-22.178-105.38-14.446-34.926 7.115-67.746 25.728-104.4 21.607-34.075-3.83-67.689-22.972-82.413-53.939-6.235-13.114-8.89-27.619-13.98-41.219-16.533-44.18-82.076-49.747-89.369-99.967-2.552-17.57 1.37-35.346 4.661-52.793s5.932-35.702.942-52.741c-3.295-11.251-9.732-21.283-14.495-31.995-16.572-37.272 7.283-86.721 38.901-108.543 23.441-16.178 52.445-21.648 78.515-33.117 17.422-7.665 35.243-19.714 44.846-36.62 10.425-18.354 10.28-37.888 27.921-52.782 33.495-28.28 85.987-40.236 123.842-13.434 15.132 10.714 27.193 26.44 44.669 32.631 35.439 12.553 71.586-14.329 106.882 1.902 41.91 19.272 36.689 57.855 41.179 96.66 7.082 61.202 78.543 80.528 95.54 139.885 16.14 56.361-18.779 92.905-53.364 131.296-9.337 10.365-21.558 23.287-26.64 36.47-7.487 19.425-5.573 43.092-12.479 63.321-5.684 16.653-14.591 32.641-27.193 44.743z" fill="#fff"/><path d="m2038.249 721.952c4.527-3.94 8.67-8.252 12.34-12.956 17.548-22.492 22.772-52.023 20.513-80.531-3.631-45.827-27.425-84.617-16.078-130.326 10.442-42.064 36.057-80.462 31.664-125.707-4.085-42.062-28.469-85.011-69.073-105.967-17.194-8.874-36.336-13.499-54.207-21.017-58.057-24.423-63.527-105.157-129.856-118.847-23.206-4.789-46.872-1.677-70.085.695s-47.476 3.872-69.907-3.85c-14.812-5.099-27.916-13.929-41.972-20.774-48.903-23.816-115.115.685-144.947 37.307-22.117 27.15-30.207 62.124-46.162 92.939-10.662 20.593-27.144 41.257-49.824 51.405-24.621 11.017-50.499 8.986-70.747 29.16-38.444 38.306-55.811 101.407-21.399 150.274 13.756 19.534 34.242 35.785 41.937 57.758 15.603 44.558-21.066 86.242-.587 130.974 24.316 53.114 75.589 50.385 126.874 59.561 80.885 14.472 104.414 103.754 182.566 130.185 74.208 25.098 123.643-14.167 175.515-52.847 14.004-10.442 31.481-24.172 49.096-29.14 25.956-7.32 57.258-2.732 84.261-9.264 22.234-5.376 43.676-14.759 60.078-29.032z" fill="#fff"/><path d="m1225.988 265.059c-86.18 155.92-327.22 106.8-353.11-67-2.88-19.33-2.37-38.96 1.1-58.09 42.42 4.68 85 6.12 127.89 2.37 77.98-6.82 152.48-30.48 226.6-56.58 27.35 55.58 27.64 124.82-2.48 179.3z" fill="#f04e23"/><path d="m1014.481 763.502c-36.861-7.548-50.575 25.206-49.938 59.835.172 9.327-10.008 15.288-17.972 10.43-27.614-16.843-59.41-20.647-72.429 12.354-7.092 17.978 4.501 41.599 23.56 44.803 8.58 1.443 17.301-.92 25.997-1.189s18.641 2.494 22.33 10.373c3.256 6.955.476 15.371 2.716 22.717 2.767 9.071 13.309 14.431 22.656 12.829 9.347-1.601 17.023-9.038 20.612-17.816.967-2.365 1.669-4.812 2.143-7.308 1.288-6.779 7.908-10.993 14.628-9.422.465.109.933.209 1.404.299 9.313 1.788 19.735-.581 26.181-7.536s7.713-18.714 1.625-25.985c-4.93-5.889-13.498-8.156-17.546-14.682-4.586-7.394-1.469-17.233 3.505-24.371 4.975-7.138 11.717-13.153 15.194-21.129 7.723-17.714-5.732-40.325-24.666-44.202z" fill="#f04e23"/><path d="m946.096 766.032c2.157.163 3.784 3.536 5.195 8.598.695 2.538 1.389 5.508 2.043 8.774.686 3.264 1.35 6.823 2.028 10.563.702 3.736 1.353 7.297 1.877 10.591.555 3.284.968 6.306 1.224 8.925.489 5.233.174 8.964-1.783 9.886-1.9.899-5.148-1.292-8.446-6.03-1.654-2.359-3.259-5.361-4.685-8.843-1.395-3.488-2.592-7.461-3.391-11.723-.776-4.266-1.076-8.404-1.019-12.161.089-3.761.516-7.138 1.218-9.933 1.392-5.602 3.644-8.808 5.739-8.647z" fill="#04294f"/><path d="m893.439 797.083c-.045-1.066.874-2.096 2.667-3.044.448-.237.95-.469 1.505-.695.554-.213 1.159-.389 1.814-.571 1.309-.345 2.823-.714 4.497-.868.839-.094 1.721-.175 2.643-.242.922-.062 1.873-.039 2.867-.037 1.993-.021 4.095.204 6.318.466 4.415.639 9.215 1.854 14.006 3.787 4.774 1.974 9.053 4.467 12.652 7.102 1.77 1.369 3.429 2.68 4.837 4.091.711.694 1.406 1.344 2.021 2.033.612.693 1.185 1.369 1.718 2.023 1.088 1.282 1.91 2.605 2.603 3.768.34.589.65 1.138.896 1.678.238.549.434 1.066.588 1.549.616 1.933.552 3.312-.227 4.041-1.609 1.487-5.482-.016-10.792-2.584-2.59-1.27-5.673-2.782-9.096-4.46-3.399-1.592-7.096-3.292-11.046-4.93-3.968-1.595-7.797-2.97-11.339-4.213-3.62-1.198-6.879-2.277-9.618-3.183-5.588-1.885-9.406-3.523-9.514-5.711z" fill="#04294f"/><path d="m998.323 884.225c-2.096.559-4.576-1.485-7.353-4.638-.699-.792-1.401-1.664-2.166-2.578-.719-.936-1.53-1.895-2.3-2.933-1.607-2.041-3.287-4.269-5.064-6.602-1.801-2.315-3.525-4.51-5.086-6.585-.806-1.009-1.526-2.04-2.246-2.974-.689-.973-1.352-1.875-1.938-2.753-2.337-3.492-3.678-6.412-2.601-8.295 1.033-1.819 4.486-2.182 9.164-.446 1.161.436 2.402.986 3.65 1.705 1.282.681 2.544 1.554 3.858 2.51 2.573 1.962 5.157 4.455 7.45 7.411 2.271 2.973 4.018 6.11 5.257 9.099.587 1.514 1.108 2.958 1.438 4.371.375 1.391.59 2.731.714 3.965.48 4.965-.755 8.211-2.777 8.743z" fill="#04294f"/><path d="m1212.148 678.483c-3.014-24.123-25.9-25.734-46.962-18.173-5.673 2.037-11.429-2.959-10.105-8.84 4.59-20.389.334-40.636-22.56-41.77-12.472-.618-24.527 11.369-22.542 23.697.894 5.55 4.146 10.398 6.112 15.665 1.965 5.267 2.334 11.925-1.725 15.815-3.582 3.433-9.309 3.474-13.341 6.367-4.979 3.572-6.076 11.134-3.16 16.523s9.057 8.547 15.172 8.925c1.648.102 3.291.025 4.916-.202 4.416-.615 8.366 2.564 8.795 7.002.03.307.066.614.108.921.834 6.07 4.443 11.958 10.034 14.463 5.592 2.505 13.051.845 16.24-4.386 2.583-4.237 2.196-9.95 5.352-13.779 3.575-4.338 10.243-4.468 15.642-2.901 5.399 1.566 10.477 4.447 16.078 4.924 12.442 1.058 23.494-11.86 21.946-24.251z" fill="#f04e23"/><path d="m1196.438 637.154c.358 1.396-1.358 3.128-4.15 5.066-2.805 1.938-6.671 4.149-10.951 6.529-4.273 2.391-8.185 4.519-11.308 5.888-3.115 1.357-5.491 1.907-6.491.869-.974-1.008-.333-3.479 1.87-6.504 2.186-3.016 5.999-6.51 10.908-9.253 4.914-2.736 9.889-4.145 13.604-4.421 3.733-.285 6.172.467 6.518 1.826z" fill="#04294f"/><path d="m1166.531 611.356c1.281-.513 3.509 1.361 5.448 5.317.478.986.951 2.093 1.332 3.318.432 1.217.735 2.553 1.039 3.971.532 2.841.787 6.04.596 9.381-.22 3.34-.866 6.483-1.742 9.237-.476 1.37-.941 2.658-1.519 3.813-.529 1.169-1.134 2.209-1.729 3.13-2.41 3.688-4.851 5.275-6.06 4.608-1.282-.698-1.2-3.397-.759-7.18.23-1.846.504-4.044.809-6.484.261-2.404.53-5.011.714-7.759.154-2.75.207-5.369.243-7.787-.003-2.459-.005-4.673-.007-6.534.026-3.807.277-6.496 1.635-7.031z" fill="#04294f"/><path d="m1134.916 693.594c-1.193-1.795-.867-4.291.053-6.926.949-2.651 2.479-5.494 4.428-8.394 1.931-2.912 3.969-5.416 6.053-7.309 2.08-1.861 4.26-3.118 6.376-2.705 2.067.399 3.675 2.605 4.008 6.12.175 1.748-.012 3.781-.583 5.939-.592 2.144-1.583 4.403-2.997 6.538-1.429 2.125-3.135 3.906-4.888 5.276-1.774 1.354-3.58 2.307-5.261 2.816-3.373 1.039-6.027.401-7.189-1.355z" fill="#04294f"/><path d="m1252.204 928.537c-11.353-21.497-33.33-14.906-50.354-.383-4.586 3.912-11.737 1.276-12.579-4.693-2.92-20.694-14.064-38.126-35.879-31.087-11.884 3.835-18.919 19.311-12.7 30.14 2.799 4.875 7.557 8.259 11.258 12.49 3.702 4.231 6.402 10.328 3.982 15.402-2.136 4.479-7.478 6.543-10.225 10.675-3.393 5.102-1.744 12.564 2.89 16.572 4.633 4.009 11.495 4.79 17.349 2.98 1.577-.488 3.087-1.141 4.527-1.928 3.913-2.138 8.732-.562 10.704 3.437.136.277.279.551.427.823 2.928 5.382 8.386 9.613 14.502 9.978s12.506-3.827 13.638-9.848c.917-4.877-1.466-10.084.131-14.782 1.809-5.322 8-7.803 13.603-8.248 5.604-.445 11.372.453 16.78-1.083 12.011-3.411 17.778-19.403 11.946-30.445z" fill="#f04e23"/><path d="m1222.888 895.439c.829 1.179-.164 3.407-2.089 6.207-1.938 2.806-4.771 6.241-7.932 9.981-3.151 3.749-6.057 7.123-8.494 9.508-2.434 2.372-4.461 3.727-5.764 3.11-1.268-.598-1.542-3.136-.552-6.745.978-3.594 3.308-8.211 6.929-12.514 3.628-4.297 7.783-7.376 11.16-8.948 3.39-1.587 5.938-1.747 6.742-.599z" fill="#04294f"/><path d="m1185.788 881.891c1.017-.933 3.764.031 6.977 3.046.796.753 1.63 1.621 2.42 2.632.834.986 1.591 2.128 2.377 3.346 1.503 2.469 2.873 5.37 3.876 8.564.976 3.202 1.484 6.37 1.638 9.256.04 1.449.061 2.819-.071 4.104-.081 1.281-.279 2.468-.51 3.539-.949 4.302-2.672 6.65-4.037 6.454-1.446-.199-2.324-2.752-3.25-6.447-.438-1.808-.959-3.961-1.538-6.35-.607-2.341-1.277-4.874-2.077-7.509-.828-2.626-1.706-5.095-2.527-7.37-.872-2.299-1.658-4.369-2.318-6.109-1.324-3.572-2.041-6.175-.96-7.156z" fill="#04294f"/><path d="m1185.313 969.995c-1.751-1.257-2.329-3.706-2.401-6.496-.05-2.816.375-6.016 1.172-9.418.775-3.407 1.796-6.47 3.076-8.978 1.287-2.476 2.881-4.424 5.006-4.786 2.075-.358 4.359 1.137 5.914 4.307.782 1.573 1.327 3.541 1.556 5.76.205 2.215.077 4.679-.49 7.175-.585 2.493-1.55 4.763-2.705 6.664-1.18 1.895-2.532 3.424-3.924 4.495-2.788 2.166-5.496 2.508-7.204 1.277z" fill="#04294f"/><path d="m752.375 1105.893c-.779-.449.988-5.248 4.919-13.683 1.965-4.218 4.472-9.344 7.471-15.29.188-.372.377-.746.568-1.125l.139-.276.066-.148.13-.295c.166-.378.336-.762.508-1.153.305-.701.619-1.425.944-2.17.142-.333.287-.67.433-1.012.052-.17.183-.313.148-.508-.039-.19-.255-.361-.501-.343-.968.143-1.893.247-2.765.424-.573.113-1.037.186-1.645.326-.642.143-1.294.288-1.956.436-1.325.287-2.67.579-4.034.875-1.35.348-2.718.701-4.105 1.058-5.513 1.542-11.197 3.571-16.888 6.219-1.406.698-2.85 1.351-4.267 2.096-1.401.776-2.86 1.475-4.254 2.325-1.519.913-2.382 1.323-5.254 3.249-1.223.801-2.451 1.605-3.685 2.414-.293.175-.658.47-1.005.735l-1.05.806-2.115 1.623-2.133 1.638-1.073.824-.269.207c-.07.03-.132.043-.199.066l-.394.123c-1.054.324-2.112.65-3.175.978l-1.604.487c-.332.02-.593-.012-.893-.018-.581-.029-1.164-.059-1.75-.088-.14-.014-.306-.007-.425-.038-.147-.036-.378-.123-.629-.255-.507-.252-1.088-.712-1.337-1.001-.395-.578-.745-1.206-1.129-1.807l-.283-.456-.143-.228c-.042-.089-.057-.244-.087-.363l-.318-1.535-.323-1.542-.082-.387c-.021-.135-.075-.235-.04-.434l.097-1.067c.369-1.877.654-3.714 1.099-5.665.475-1.975.952-3.959 1.431-5.952.627-2.05 1.258-4.108 1.89-6.175.15-.527.351-1.059.426-1.272l.308-.868.62-1.741c1.717-4.631 3.758-9.232 6.134-13.749.299-.563.581-1.138.898-1.695l.91-1.611.07-.192.114-.302.066-.183c-.002-.019.038-.043-.033-.061-.067.006-.13.055-.187.078-.114.055-.207.109-.282.154l-.1.065-.041.029-.022.015-.154.073-.608.288c-.899.443-1.8.886-2.703 1.332-2.234 1.046-4.385 2.282-6.576 3.465-4.297 2.514-8.594 5.148-12.653 8.194l-1.543 1.115-1.499 1.18c-.996.793-2.016 1.56-3 2.375-1.934 1.67-3.923 3.294-5.775 5.085l-1.598 1.484-.508.478-.405.411-.805.865-1.607 1.74c-2.142 2.342-4.277 4.575-6.41 6.99-2.134 2.483-4.263 4.96-6.387 7.431l-.796.926-.199.231c-.074.095-.089.044-.136.073l-.237.062-.948.245-1.892.49-.944.245-.471.122-.232.059-.112-.02-.891-.158-.889-.156c-.146-.029-.3-.044-.44-.084-.15-.049-.573-.185-1.008-.391-.432-.201-.878-.457-1.102-.612-.209-.136-.284-.214-.427-.324-.258-.215-.499-.369-.787-.702l-.416-.44c-.139-.156-.274-.261-.419-.502l-.428-.634c-.143-.209-.287-.402-.415-.726l-.395-.874c-.072-.127-.122-.319-.17-.52l-.149-.582-.149-.582-.06-.747-.056-.754c-.005-.27.054-.625.078-.932.034-.603.197-1.355.329-2.069l.404-2.152c.269-1.432.537-2.862.806-4.29 1.046-5.553 2.085-11.073 3.117-16.559 1.093-5.66 2.171-11.249 3.235-16.759 2.165-11.012 4.269-21.709 6.298-32.033.257-1.29.513-2.574.768-3.852l.048-.24.024-.12.004-.013.015-.045.031-.092.065-.193c.097-.306.194-.609.289-.909l.163-.54c.019-.093.081-.195.053-.29s-.123-.125-.172-.088c-.262.111-.521.22-.778.329-.292.153-.581.304-.866.454l-.242.132c-.026.012-.118.084-.254.181l-.626.475c-.834.632-1.664 1.26-2.488 1.885-.825.626-1.645 1.248-2.46 1.867-.785.657-1.566 1.31-2.341 1.959-.778.648-1.55 1.293-2.318 1.933l-1.149.959-1.094 1.007c-1.458 1.337-2.896 2.656-4.316 3.958-1.361 1.365-2.704 2.712-4.028 4.039-.654.673-1.338 1.309-1.955 1.998-.62.686-1.236 1.367-1.847 2.043-1.208 1.365-2.469 2.654-3.59 4.021-9.161 10.803-15.925 21.284-20.84 30.286-9.733 18.103-12.964 29.756-14.528 29.347-.66-.158-.578-3.227.358-8.889 1.105-5.604 3.17-13.802 7.289-23.748 4.113-9.929 10.33-21.574 19.358-33.696 1.105-1.532 2.356-2.988 3.561-4.522.611-.76 1.227-1.526 1.848-2.298.619-.774 1.307-1.496 1.966-2.255 1.339-1.498 2.681-3.038 4.082-4.561 1.452-1.476 2.924-2.972 4.415-4.487l1.125-1.139 1.184-1.093c.794-.729 1.593-1.463 2.398-2.201.806-.738 1.617-1.48 2.432-2.226.85-.708 1.705-1.42 2.565-2.136.863-.714 1.732-1.431 2.605-2.153l.657-.542c.293-.24.622-.52 1.043-.82.803-.56 1.608-1.122 2.416-1.685 3.271-2.268 6.577-4.561 9.919-6.878 2.512-.387 5.061-.755 7.646-1.105.36-.093.517.022.9.186.347.167.74.411 1.045.658.316.256.497.447.605.595l.388.52c.513.683 1.09 1.615 1.531 2.934.103.346.232.646.289 1.081.065.415.171.779.165 1.289l.028.717c-.008.256-.051.545-.075.816-.035.534-.178 1.154-.271 1.736-.419 2.373-.841 4.757-1.264 7.153-.624 3.573-1.254 7.181-1.889 10.822-1.799 10.366-3.663 21.108-5.582 32.165-.979 5.525-1.971 11.13-2.977 16.806l-.074.418.001.012.003.023.006.04.014.059c.01.031.022.046.035.05.015.003.02-.002.043-.019.028-.037.04-.073.051-.092.01-.021.013-.032.014-.038v-.006c.005-.005-.066.054-.091.083l1.769-1.646c2.081-2.004 4.304-3.829 6.48-5.691 1.104-.911 2.246-1.771 3.365-2.654l1.685-1.313 1.731-1.244c4.562-3.387 9.382-6.319 14.218-9.089 2.461-1.311 4.885-2.665 7.397-3.818l1.865-.895.931-.446 1.562-.647c2.175-.891 4.345-1.78 6.508-2.667l1.619-.663 1.693-.555 3.38-1.1 3.365-1.095 1.676-.545 1.298-.124c1.726-.166 3.448-.331 5.164-.496l1.284-.124c.223.095.397.223.598.333l1.167.68 1.166.673.582.334c.152.1.354.323.62.628.251.303.514.67.692.972.189.329.258.473.291.592l.247.795c.077.287.171.481.229.844l.117 1.362.056.68.027.34.014.17.007.085-.052.15-.855 2.411c-.302.81-.531 1.583-.893 2.417-.863 1.073-1.725 2.145-2.585 3.214-.858 1.067-1.714 2.132-2.569 3.195-.702 1.014-1.403 2.027-2.103 3.038-.693 1.006-1.385 2.011-2.076 3.014-.67 1-1.285 1.995-1.874 3.019l-.904 1.515c-.29.481-.547.981-.822 1.469-2.181 3.913-4.082 7.911-5.71 11.944-.344.88-.687 1.756-1.029 2.628l-.165.333c-.109.237-.225.503-.339.802-.097.256-.197.534-.293.838l-.144.473c-.028.193.166.253.221.168.331-.194.738-.431 1.247-.678l.431-.218.834-.442c1.283-.678 2.553-1.349 3.811-2.013 1.6-.87 3.26-1.581 4.86-2.362 1.616-.75 3.256-1.4 4.855-2.087 6.462-2.609 12.863-4.487 19.024-5.795 1.547-.293 3.073-.583 4.579-.868 1.515-.221 3.009-.44 4.481-.656.204-.027.322-.052.596-.079l.836-.082c.554-.054 1.106-.108 1.655-.162 1.09-.106 2.172-.212 3.246-.317 1.061-.126 2.131-.173 3.189-.208 1.049-.042 2.09-.085 3.123-.126.695.075 1.476.089 2.08.211.489.193.974.385 1.457.576.959.37 1.906.736 2.84 1.096.383.228.851.864 1 1.423.081.286.083.502.052.705l-.067.629c-.036.396-.128.904-.193 1.346-.109.506-.181.97-.347 1.525-.288 1.057-.725 2.248-1.504 3.486-.753 1.217-1.495 2.416-2.224 3.595-.716 1.152-1.421 2.285-2.114 3.4-.317.504-.631 1.004-.943 1.5-.231.355-.46.707-.687 1.056-3.637 5.579-6.813 10.32-9.474 14.137-5.323 7.631-8.587 11.569-9.366 11.12z" fill="#04294f"/><path d="m454.685 1116.258c-.174.202-.744.045-1.7-.465-.962-.503-2.307-1.362-3.945-2.652-3.277-2.563-7.885-6.74-12.755-13.092-2.458-3.155-4.916-6.887-7.285-11.17-.606-1.047-1.189-2.21-1.728-3.292-.304-.527-.587-1.068-.847-1.593-.541-1.046-.998-2.064-1.384-3.035-.398-.968-.702-1.896-.954-2.761-.041-.104-.043-.224-.127-.31-.082-.087-.241-.107-.384-.048-.147.054-.268.208-.306.384l-.031.236c-.039.304-.067.57-.083.797-.017.227-.023.415-.018.564.002.075.008.139.016.194l.014.075.009.032.005.015.002.007c-.004.019.015-.042-.019.079-.741 2.679-1.492 5.393-2.252 8.141-.389 1.371-.734 2.879-1.325 3.928-.572 1.052-1.203 1.877-1.813 2.54-.303.333-.594.596-.893.891-.294.239-.526.491-.877.717-.398.237-1.07.43-1.615.451-.132.005-.262.006-.369-.005-.115-.013-.187.003-.315-.124l-.694-.563c-1.87-1.51-3.762-3.038-5.675-4.582-.968-.777-1.942-1.557-2.921-2.342-.988-.823-1.952-1.405-3.032-2.803-1.36-1.629-2.735-3.275-4.124-4.938-2.501-2.911-4.893-6.007-7.363-9.139-2.511-3.102-4.846-6.428-7.328-9.737-9.759-13.356-19.138-28.407-27.823-44.887-.546-1.029-1.093-2.061-1.642-3.095-.52-1.05-1.042-2.103-1.565-3.159-1.044-2.114-2.094-4.241-3.15-6.38-.997-2.168-1.999-4.348-3.007-6.54-.502-1.097-1.005-2.198-1.51-3.301-.476-1.116-.954-2.235-1.433-3.356-.95-2.248-1.904-4.507-2.864-6.778-.896-2.297-1.796-4.606-2.7-6.926-.45-1.161-.901-2.325-1.354-3.491-.419-1.179-.839-2.361-1.26-3.545-.836-2.371-1.676-4.754-2.52-7.147-1.536-4.837-3.194-9.685-4.566-14.664-.358-1.24-.717-2.483-1.077-3.728l-.539-1.87-.034-.117c-1.384.313 11.829-3.241 6.28-1.742.066-.023.111-.047.131-.058.059-.039.049-.044.031-.013-.038.069-.011.13-.037.036-.037-.098-.096-.037.186.027 12.77 2.277 3.53.697 6.376 1.235l-.017.115-.035.229-.069.458-.277 1.834c-.186 1.224-.372 2.449-.558 3.678-.188 1.228-.375 2.458-.564 3.69-.134 1.24-.269 2.482-.403 3.726-.25 2.49-.561 4.984-.771 7.495-.295 5.033-.709 10.094-.701 15.204-.45 26.7 3.539 52.614 10.794 76.155.91 2.942 1.938 5.825 2.886 8.714l.729 2.156.815 2.116c.542 1.409 1.081 2.813 1.619 4.212.555 1.392 1.031 2.812 1.644 4.168.594 1.364 1.186 2.723 1.775 4.077l.881 2.029.771 1.756c.295.705.632 1.359.959 2.023 1.293 2.622 2.582 5.233 3.865 7.835 1.272 2.581 2.539 5.151 3.801 7.711.627 1.273 1.253 2.544 1.878 3.812.234.405.129.427.115.552l-.075.337-.149.673c-.394 1.793-.759 3.588-1.1 5.363-.062.226-.996 1.219-1.573 1.523-.301.183-.338.148-.466.176l-.337.051-.679.092-.989.104-1.322.12-.66.055-.33.026c-.187-.047-.47-.163-.7-.241-1.935-.699-3.861-1.395-5.777-2.087-1.606-1.158-3.207-2.313-4.804-3.464l-2.374-1.703-1.182-.847c-.387-.27-.811-.613-1.122-.735-1.342-.684-2.679-1.367-4.013-2.047l-1.989-1.015c-.64-.323-1.44-.749-1.659-.805-1.415-.548-2.796-1.163-4.211-1.66-1.43-.453-2.828-.984-4.257-1.378-5.697-1.651-11.449-2.558-17.049-2.789-1.401-.016-2.791-.032-4.17-.048-1.86.113-1.536.048-2.043.056-.738.024-1.535.075-2.382.198-.428.04-.856.15-1.307.227-.216.059-.471.05-.667.168-.193.146-.138.404.017.47.574.46 1.136.911 1.688 1.353.415.337.826.67 1.231.999l.722.585.368.298.764.593c2.417 1.849 4.749 3.671 6.978 5.491 4.459 3.634 8.57 7.159 12.289 10.584 7.473 6.811 13.485 13.079 18.175 18.373 9.356 10.622 13.514 17.231 12.794 17.852-.807.705-6.415-4.614-16.836-13.793-5.223-4.574-11.674-10.092-19.458-16.122-3.874-3.036-8.108-6.165-12.656-9.397-2.272-1.619-4.64-3.24-7.083-4.887-1.853-1.23-3.731-2.476-5.634-3.739-1.052-.687-2.027-1.364-3.174-2.08-1.141-.718-2.289-1.44-3.444-2.166-.684-.629-1.371-1.261-2.063-1.896l-.52-.48c-.173-.16-.378-.333-.407-.439l-.431-.736c-.573-.985-1.139-1.986-1.697-3.001-.163-.261-.226-.446-.231-.888.002-.405.091-.898.241-1.265.075-.185.149-.331.233-.44l.329-.334.659-.673c.438-.453.878-.908 1.32-1.365l.66-.692c.431-.181.911-.352 1.366-.531.925-.355 1.855-.711 2.788-1.069l1.409-.542c.241-.088.46-.188.719-.266l.87-.179c2.331-.472 4.672-.985 7.097-1.445l1.886-.271c.638-.083 1.318-.123 1.979-.186.975-.088 1.953-.176 2.936-.264 1.62-.049 3.254-.098 4.9-.147 6.588.003 13.383.813 20.167 2.527 1.701.41 3.375.967 5.081 1.457 1.692.535 3.356 1.198 5.052 1.805.695.266 1.398.536 2.11.809.287.132.536.251.74.372.107.053.19.123.276.175.045.021.074.069.129.062.059-.014.103-.133.036-.22-.363-.542-.733-1.094-1.108-1.656l-.198-.298c-.014-.022-.033-.055-.032-.042l-.005.004-.001.001c.003.008 0 .004-.027-.058l-.122-.266-.978-2.135c-.652-1.427-1.307-2.859-1.964-4.296-.675-1.43-1.211-2.925-1.825-4.393-.596-1.477-1.193-2.958-1.793-4.445l-.9-2.235-.811-2.277c-1.058-3.05-2.19-6.101-3.2-9.213-8.05-24.904-12.496-52.458-12.016-80.916-.002-5.445.436-10.844.771-16.21.23-2.678.566-5.339.846-7.995.15-1.327.301-2.651.45-3.974.206-1.315.412-2.628.617-3.939.206-1.31.413-2.618.618-3.924l.309-1.956.182-1.109c.244-1.203.754-2.5 1.672-3.666.887-1.144 2.101-2.068 3.355-2.601 2.529-1.073 5.275-.985 7.793.422 1.235.692 2.344 1.782 3.054 2.961.179.293.346.601.489.905.128.285.244.579.345.876.111.325.195.639.177.573l.032.112.506 1.797c.337 1.197.672 2.392 1.007 3.584 1.276 4.788 2.83 9.454 4.253 14.114.785 2.307 1.567 4.603 2.345 6.889.39 1.143.779 2.283 1.168 3.42.421 1.126.84 2.249 1.259 3.37.838 2.241 1.672 4.472 2.502 6.691.89 2.197 1.775 4.382 2.655 6.555.443 1.086.884 2.169 1.325 3.25.468 1.069.934 2.135 1.399 3.198.932 2.126 1.858 4.241 2.779 6.343.977 2.078 1.948 4.143 2.914 6.197.483 1.027.964 2.051 1.443 3.072.508 1.007 1.014 2.011 1.519 3.012 8.021 16.043 16.658 30.803 25.642 44.022 2.288 3.274 4.428 6.576 6.742 9.662 2.273 3.117 4.467 6.207 6.769 9.121.566.736 1.129 1.469 1.69 2.197l.838 1.091.196.256.057.084.116.168c.254.381.541.767.834 1.18.314.435.625.864.932 1.289.086.104.149.247.275.306.122.059.267.03.339-.057.101-.19.169-.4.258-.607.374-.945.738-1.867 1.093-2.766 1.966-3.956 3.881-7.808 5.743-11.554.897-1.843 1.781-3.659 2.652-5.448l.639-1.322c.145-.143.531-.287.982-.298.438-.021.917.07 1.17.23.252.153.282.338.423.515.23.363.458.722.684 1.079.119.187.21.353.349.56l.486.682c.319.461.635.917.949 1.371l.232.344.293.544.586 1.11c.384.737.764 1.467 1.142 2.191l.14.271c.042.118.076.287.115.428l.224.881c.148.582.296 1.162.442 1.739.291 1.141.579 2.272.864 3.393.311 1.044.652 1.988.968 2.963.318.957.633 1.905.945 2.843.326.913.671 1.782 1.032 2.633.456 1.16.858 2.19 1.338 3.231 1.812 4.144 3.721 7.845 5.657 11.053 3.821 6.458 7.496 11.079 9.968 14.258 1.234 1.598 2.203 2.808 2.806 3.687.602.881.827 1.438.653 1.64z" fill="#04294f"/><path d="m1442.335 1207.208c-.89 1.94-24.919-6.963-63.048-22.926-4.759-2.01-9.746-4.115-14.942-6.31-.649-.276-1.3-.554-1.955-.833-.961-.42-1.928-.842-2.898-1.267-2.346-1.044-4.775-2.087-7.17-3.188-1.222-.552-2.029-1.268-2.811-1.946-.319-.34-.655-.689-.939-1.025-.241-.327-.507-.665-.727-.986-.187-.315-.396-.611-.565-.945-.169-.351-.34-.805-.455-1.314-.239-1.015-.221-2.224-.013-3.115.049-.222.108-.423.168-.6.109-.184.392-.371.58-.557l1.266-1.123c.849-.755 1.701-1.512 2.557-2.273 1.723-1.538 3.46-3.088 5.21-4.651l.66-.591.165-.148.23-.141.461-.283c.619-.396 1.227-.719 1.839-1.055.79-.44 1.584-.881 2.38-1.324 1.445-.805 2.902-1.616 4.369-2.432 2.986-1.531 6.065-2.991 9.168-4.514 3.178-1.346 6.386-2.757 9.679-4.072 13.225-5.122 27.719-8.97 43.037-11.065.957-.136 1.916-.273 2.876-.409.961-.141 1.933-.194 2.903-.295 1.942-.177 3.892-.355 5.85-.533l1.47-.132 1.478-.062c.987-.04 1.975-.08 2.966-.12 1.981-.065 3.969-.187 5.967-.2 1.998.024 4.004.047 6.017.071 1.006.013 2.015.027 3.025.041 1.008.063 2.019.126 3.03.189 2.024.132 4.054.263 6.09.396 2.034.167 4.064.454 6.106.68 1.346.16 2.689.32 4.029.479 1.335.202 2.661.448 3.987.671 1.1.191 2.198.382 3.294.572-.087-.011-.021.002-.037.003.013.018.079.056.08.012.004-.009.006-.019.008-.033l.001-.023v-.013l-.261-.567c-.976-2.171-2.047-4.287-3.191-6.346-.552-1.041-1.184-2.032-1.767-3.049-.627-.989-1.24-1.984-1.888-2.951l-.984-1.44c-.651-.984-1.493-1.989-2.259-2.972-.779-.987-1.556-1.973-2.333-2.957-.85-.987-1.806-1.977-2.699-2.961-1.854-1.971-3.539-3.923-5.237-5.864l-.637-.727-.318-.363c-.102-.119-.241-.255-.23-.324l-.286-1.01-.572-2.011c-.14-.389-.075-.523-.087-.753l.006-.635c.01-.397-.01-.901.022-1.209l.127-.809.06-.404c.017-.132.054-.261.114-.481.144-.454.421-1.161.837-1.832.398-.672.942-1.314 1.388-1.731.228-.226.416-.359.571-.474.23-.081.519-.128.775-.193l1.582-.36c1.054-.233 2.104-.466 3.149-.698l1.567-.337.781-.165.195-.041c.063-.016.119-.036.254.005l.69.152c4.446 1.397 8.85 2.781 13.21 4.151 2.138.653 4.385 1.423 6.472 2.295 1.256.512 2.505 1.022 3.747 1.529 1.161.491 2.338.927 3.467 1.457 1.129.528 2.252 1.053 3.369 1.576 2.222 1.067 4.464 2.024 6.568 3.198 2.124 1.128 4.222 2.243 6.295 3.344 2.017 1.196 4.009 2.376 5.974 3.541.974.595 1.966 1.145 2.905 1.767.938.623 1.87 1.241 2.795 1.854 1.838 1.245 3.691 2.405 5.431 3.674 14.016 10.031 24.96 20.554 33.052 29.991 8.102 9.453 13.407 17.757 16.683 23.587 3.134 5.938 4.369 9.349 3.71 9.755-1.555.998-9.462-10.902-26.626-27.429-8.611-8.201-19.712-17.353-33.416-26.037-1.701-1.101-3.509-2.093-5.293-3.171-.897-.531-1.8-1.066-2.709-1.605s-1.868-1.007-2.808-1.52c-1.89-1.004-3.806-2.022-5.746-3.054-1.982-.944-3.99-1.9-6.021-2.868-2.006-1.017-4.141-1.82-6.248-2.736-1.058-.448-2.122-.899-3.192-1.352-1.068-.456-2.181-.819-3.277-1.237-1.025-.377-2.056-.757-3.091-1.138-.196-.056-.285-.072-.403-.087-.223-.032-.412-.053-.569-.067-.148-.007-.27-.001-.367.007-.049.01-.089-.005-.129.032-.04.043-.042.159.03.242.253.203.511.409.772.617l.117.096c.025.024.017.004.066.062l1.184 1.673c.78 1.124 1.521 2.281 2.274 3.435.708 1.182 1.462 2.342 2.133 3.556 1.381 2.406 2.675 4.884 3.858 7.434.151.334.274.543.552 1.201l.732 1.78c.489 1.189.978 2.379 1.468 3.572.827 2.365 1.645 4.738 2.396 7.112.041 1.832.519 4.14-.233 5.135l-.727 1.927c-.265.504-1.103 1.501-1.624 1.921l-.17.143-.349.01-.698.02-1.398.039-2.803.079c-1.873.053-3.75.106-5.631.159l-2.827.08c-1.228-.218-2.5-.605-3.828-.785-1.435-.244-2.872-.488-4.313-.732-1.216-.202-2.431-.428-3.655-.614-1.23-.144-2.464-.288-3.699-.433-1.874-.206-3.736-.477-5.604-.633-1.871-.126-3.736-.251-5.595-.375l-2.784-.188-2.782-.046c-1.852-.034-3.697-.068-5.535-.102-1.838-.001-3.67.103-5.495.145-.913.028-1.823.055-2.732.083l-1.362.041-1.356.11c-1.807.145-3.606.289-5.398.432-.895.082-1.793.115-2.68.236-.888.115-1.774.23-2.657.345-14.156 1.737-27.618 5.002-39.992 9.388-3.079 1.131-6.085 2.348-9.075 3.493-2.911 1.321-5.813 2.572-8.635 3.886-1.387.706-2.763 1.407-4.13 2.102-.609.307-1.217.613-1.821.917l-.385.156c-.434.196-.953.397-1.498.69-.115.098-.167.25-.142.374.021.135.131.192.225.253.21.137.419.273.625.407.243.153.484.305.722.456l.196.122c.033.018-.003.004.086.047l.24.118.48.236c.639.315 1.274.628 1.906.94 5.051 2.509 9.899 4.917 14.526 7.216 36.961 18.507 59.377 30.922 58.487 32.862z" fill="#04294f"/><path d="m1927.133 1202.509c-.332-.228-.222-1.117.294-2.607.258-.745.617-1.639 1.073-2.676.233-.514.485-1.068.755-1.662.259-.598.535-1.236.828-1.913 2.471-5.325 5.998-13.091 9.687-23.088 1.756-5.034 3.668-10.582 5.272-16.726.888-3.044 1.567-6.273 2.37-9.577.651-3.344 1.404-6.778 1.928-10.364.146-.893.294-1.792.443-2.699.134-.908.234-1.829.355-2.752.208-1.851.528-3.712.66-5.622.16-1.906.365-3.831.504-5.785.099-1.89.2-3.803.302-5.74-.066-.602-.146-1.042-.24-1.368-.022-.076-.026-.17-.147-.193-.109-.028-.252.051-.32.172-.139.191-.279.385-.42.58l-.209.294-.044.065-.02.032c-.06.057.148-.127-.089.09l-1.697 1.575c-2.248 2.131-4.61 4.187-7 6.261-4.83 4.087-9.861 8.152-15.223 11.961-5.34 3.835-10.909 7.559-16.757 11.011-5.832 3.474-11.881 6.788-18.175 9.787-1.254.617-2.508 1.225-3.781 1.785-1.599.72-3.194 1.438-4.785 2.155-2.46 1.046-4.851 1.917-7.268 2.879l-3.607 1.407-1.799.701-.449.175c-.138.044-.334.158-.392.106l-.524-.1c-1.395-.266-2.787-.532-4.174-.796l-2.076-.395c-.432-.175-1.369-1.041-1.822-1.611-.232-.272-.312-.428-.461-.649-.133-.213-.271-.395-.399-.634-.25-.524-.513-1.003-.703-1.699-.377-1.308-.663-3.077.092-5.483 1.795-5.132 3.578-10.226 5.346-15.28.981-2.76 1.954-5.497 2.919-8.211 1.945-5.422 3.856-10.751 5.729-15.973 1.868-5.142 3.698-10.179 5.487-15.102.141-.258.281-.512.419-.763l.25-.485c.101-.175.019-.401-.117-.441-.253-.007-.518.042-.874.1l-.615.142-.333.079-.043.01c-.007 0-.024.005-.111.04l-.401.161-.799.32c-2.121.865-4.244 1.645-6.26 2.578-2.035.892-4.043 1.76-5.963 2.725-7.752 3.717-14.686 7.743-20.799 11.735-3.075 1.975-5.89 4.011-8.574 5.92-2.617 1.989-5.117 3.836-7.349 5.689-2.297 1.783-4.304 3.587-6.225 5.18-1.875 1.65-3.585 3.156-5.121 4.508-3.01 2.781-5.427 4.898-7.099 6.321-1.705 1.394-2.789 1.992-3.17 1.698s-.043-1.468.973-3.465c.984-2.023 2.767-4.768 5.24-8.222 1.295-1.673 2.718-3.565 4.387-5.548 1.702-1.95 3.519-4.122 5.657-6.283 2.074-2.231 4.446-4.465 6.972-6.849 2.591-2.303 5.351-4.741 8.408-7.12 6.078-4.801 13.132-9.65 21.182-14.161 1.994-1.164 4.088-2.228 6.219-3.314 2.112-1.127 4.344-2.099 6.583-3.15l.844-.39.423-.196c.05-.027.172-.074.304-.125l.374-.145c1.002-.387 2.008-.775 3.018-1.165 2.039-.785 4.093-1.576 6.162-2.373l.782-.301c.216-.033.4-.018.602-.029l1.19-.028c.797-.016 1.597-.033 2.399-.05.805-.013 1.613-.027 2.424-.041l1.221-.017.306-.004c.089.011.147.052.222.076.143.059.302.132.467.221.663.341 1.442.93 2.043 1.603.62.672 1.047 1.408 1.259 1.902.434 1.008.864 2.324.923 4.11l.013.68-.085.763c-.025.492-.187 1.062-.336 1.626-.343 1.145-.767 2.328-1.15 3.501-.792 2.365-1.589 4.744-2.39 7.137-1.681 5.118-3.401 10.355-5.156 15.701-1.75 5.265-3.536 10.636-5.354 16.103-.916 2.731-1.841 5.485-2.772 8.261l-.351 1.042-.088.261c-.034.101-.009.031-.017.055l.001.011.004.038c.003.022.008.04.013.052.01.022.021.029.036.028.031-.005.058-.042.07-.051.013-.014.018-.028.018-.028l.78-.357 1.775-.806c1.191-.525 2.364-1.095 3.537-1.674 5.891-2.804 11.565-5.887 17.053-9.099 5.504-3.19 10.76-6.62 15.823-10.137 5.085-3.492 9.874-7.215 14.5-10.942 2.288-1.895 4.557-3.767 6.722-5.71l1.637-1.434c.039-.034.528-.463.736-.667l.787-.758 1.568-1.519c2.076-2.009 4.14-4.006 6.192-5.991l.598-.54c.095-.077.21-.208.288-.241l.224-.07.894-.278 1.779-.557c1.178-.375 2.351-.748 3.518-1.119l.436-.14c.139-.033.22.001.347.003.249.025.549.068.882.136.667.153 1.435.419 2.104.788.669.356 1.255.81 1.594 1.151l.126.128c.036.059.061.147.092.219l.178.453.354.905c.465 1.204.928 2.403 1.389 3.594l.678 1.782.168.444.083.221c.013.039.031.07.039.115l-.006.187-.048 1.489c-.133 3.926-.265 7.808-.395 11.644-.225 2.216-.447 4.405-.666 6.568-.254 2.091-.579 4.146-.864 6.176-.257 2.034-.705 4.012-1.046 5.975-.187.979-.355 1.954-.556 2.915-.218.957-.435 1.908-.65 2.851-.803 3.784-1.849 7.388-2.802 10.878-1.106 3.45-2.096 6.799-3.303 9.938-2.242 6.334-4.819 11.97-7.247 17-1.307 2.475-2.485 4.844-3.732 7.004-1.272 2.148-2.414 4.185-3.601 6.013-1.194 1.824-2.313 3.501-3.352 5.027-1.095 1.494-2.115 2.833-3.041 4.021-.469.59-.91 1.146-1.324 1.667-.446.498-.863.963-1.249 1.395-.785.853-1.471 1.551-2.057 2.09-1.165 1.083-1.929 1.526-2.261 1.298z" fill="#04294f"/><path d="m608.003 1379.295c-.391.063-1.097-1.714-1.942-5.26-.835-3.545-1.728-8.877-2.214-15.893-.143-1.753-.172-3.612-.261-5.572-.001-1.958-.073-4.023.011-6.181.068-4.321.414-9.029 1.025-14.087.292-2.532.71-5.142 1.175-7.839.259-1.344.522-2.71.79-4.099.154-.69.309-1.386.465-2.088l.236-1.057.112-.565c.291-1.362.6-2.668.93-3.912.1-.305.005-.679-.271-.9-.266-.231-.676-.289-1.024-.153-.686.21-1.381.424-2.086.64-.402.122-.798.243-1.184.384l-.572.2-.281.098-.423.139c-.899.287-1.811.552-2.717.862-.903.317-1.812.637-2.728.959-.915.321-1.837.644-2.765.97-.917.355-1.841.713-2.77 1.073-1.858.724-3.745 1.44-5.613 2.278-7.529 3.198-15.228 7.054-22.925 11.665-7.695 4.609-15.387 9.971-22.869 16.143-1.903 1.503-3.69 3.18-5.567 4.78l-.532.462-.628.586-1.257 1.193c-.841.799-1.685 1.599-2.53 2.401-.848.805-1.699 1.612-2.551 2.421l-1.283 1.218-.644.611c-.118.131-.196.154-.274.175l-.241.085c-1.29.448-2.586.899-3.888 1.351l-1.963.67c-.361.156-.541.135-.969.05-.397-.08-.867-.255-1.227-.455-.18-.098-.339-.2-.447-.286-.108-.052-.18-.223-.263-.392l-.49-.977-.989-1.961c-.667-1.31-1.337-2.626-2.009-3.947-.188-2.748-.378-5.508-.568-8.281-.061-.697-.164-1.379-.244-2.071l-.224-1.792-.28-2.171-.28-2.18c-.08-.73-.192-1.457-.341-2.18-.27-1.45-.54-2.907-.812-4.37-.283-1.46-.515-2.936-.84-4.4-.354-1.458-.709-2.922-1.066-4.391-.355-1.469-.712-2.944-1.07-4.425-.438-1.46-.878-2.926-1.32-4.397-3.512-11.768-8.349-23.54-14.567-34.942-6.215-11.399-13.813-22.429-22.778-32.642-2.153-2.634-4.623-4.999-6.976-7.496-.598-.615-1.182-1.245-1.792-1.851l-1.892-1.757c-1.102-1.025-2.207-2.053-3.315-3.083-.171-.137-.225-.148-.316-.208-.035-.038-.112.017-.092.085l.016.17.009.08c.001.01.004.03.004.03l.003.002c-.001.022.004-.049-.001.05l-.021.389c-.119 2.074-.204 4.157-.353 6.24-.324 4.165-.608 8.354-1.07 12.548-.38 4.202-.945 8.403-1.464 12.63-.306 2.107-.614 4.218-.921 6.334l-.473 3.176-.543 3.172c-2.839 16.944-6.902 33.982-12.191 50.882-.599 1.876-1.197 3.749-1.794 5.619-.293.937-.632 1.858-.946 2.787l-1.166 3.381-.937 2.717-.985 2.664-.494 1.325-.516 1.235-1.032 2.468c-1.375 3.288-2.749 6.57-4.12 9.847l-.514 1.228c-.021.048-.043.111-.064.145l-.061.032-.122.065-.244.129-.975.517-1.948 1.034-1.944 1.033-.485.258c-.176.117-.275.097-.52.115-.47.029-1.235.002-1.748-.087-.536-.082-.608-.115-.891-.201l-.718-.219c-.219-.044-.539-.235-.807-.35-.284-.143-.543-.228-.873-.476-.319-.231-.619-.382-.952-.679-.339-.337-.673-.58-1.015-.994l-.515-.666c-.085-.116-.173-.21-.256-.345l-.243-.452c-.157-.319-.335-.563-.475-.944l-.408-1.193c-5.389-21.37-10.683-42.361-15.861-62.896-2.147-8.588-4.27-17.08-6.367-25.469l-.783-3.141-.391-1.567-.023-.095-.001-.009-.002-.017-.005-.035-.044-.313c-.016-.097-.013-.29-.15-.276-.089.038-.153.123-.24.193-.057.05-.116.104-.174.165l-.045.047-.023.024-.202.247-1.267 1.56c-.868 1.02-1.628 2.121-2.422 3.191-.789 1.074-1.577 2.146-2.363 3.215-1.512 2.18-2.941 4.405-4.404 6.59-1.334 2.266-2.718 4.49-4.002 6.756-5.085 9.096-9.163 18.514-12.265 28.001-3.104 9.488-5.232 19.046-6.448 28.459-.253 2.358-.636 4.692-.744 7.03l-.143 2.069c-.063 1.11-.167 2.189-.196 3.313-.023 1.127-.045 2.252-.068 3.375-.208.799-.461 1.516-.688 2.275-.462 1.495-.923 2.985-1.382 4.469l-.681 2.217-.169.552c-.081.09-.188.19-.325.299-.278.216-.659.456-1.04.615-.386.162-.729.269-.975.27l-1.029-.203-2.048-.409-2.036-.412-1.014-.207c-.342-.078-.633-.06-1.138-.452-1.953-1.267-3.898-2.528-5.835-3.784l-1.444-.937-.72-.467-.359-.233-.2-.115-1.593-.914c-1.06-.608-2.116-1.214-3.167-1.817-1.075-.56-2.146-1.117-3.211-1.672-2.109-1.156-4.309-2.079-6.431-3.113-2.168-.932-4.313-1.871-6.473-2.708-8.643-3.351-17.267-5.752-25.648-7.328-2.096-.391-4.183-.685-6.238-1.031-.787-.119-1.565-.236-2.333-.352-1.561-.195-3.228-.347-4.992-.427-.45-.015-.897-.029-1.341-.044l-.684-.022c-.228-.016-.467-.004-.669.096-.404.197-.599.653-.496.999.11.366.493.438.768.618 1.197.629 2.434 1.368 3.675 2.242 1.005.672 1.989 1.462 3.012 2.268.937.771 1.86 1.531 2.77 2.28 1.056.833 2.028 1.735 2.989 2.616 3.896 3.466 7.181 7.097 10.094 10.565 5.745 7.026 9.679 13.7 12.357 19.309 1.389 2.784 2.333 5.374 3.195 7.572.74 2.253 1.344 4.148 1.733 5.702.699 3.14.873 4.794.508 4.908-.365.115-1.257-1.311-2.619-4.122-.72-1.381-1.614-3.095-2.676-5.131-1.157-1.979-2.374-4.316-4.002-6.813-3.158-5.035-7.445-10.986-13.311-17.162-2.973-3.044-6.259-6.22-10.081-9.209-.942-.762-1.891-1.544-2.918-2.255-.505-.366-1.013-.735-1.525-1.106l-.77-.56-.224-.164c-.136-.103-.26-.197-.354-.258-.204-.144-.416-.285-.639-.42-1.775-1.109-3.576-2.234-5.402-3.375-.47-.286-.905-.583-1.411-.864-.534-.275-1.07-.551-1.608-.828-1.085-.558-2.177-1.119-3.277-1.685-.578-.376-1.159-.755-1.742-1.134l-.865-.569-.468-.452c-.62-.607-1.245-1.219-1.875-1.836-1.429-1.441-2.061-2.002-2.947-2.888l-.626-.626c-.198-.173-.37-.504-.438-.98-.156-.953.189-2.288.786-3.067.308-.4.557-.578.895-.718l.971-.472c.643-.322 1.291-.646 1.943-.971l.486-.249c.099-.036.122-.095.283-.114l.429-.072c.573-.097 1.148-.195 1.725-.292 1.158-.199 2.324-.4 3.497-.602l.884-.154c.328-.032.757-.006 1.132-.012.778.003 1.559.006 2.342.009 1.578.006 3.166.012 4.764.018 3.285.133 6.789.458 10.266.687 2.217.28 4.471.514 6.738.85 9.064 1.356 18.445 3.621 27.905 6.953 2.364.833 4.718 1.775 7.097 2.717 2.336 1.045 4.749 1.986 7.078 3.171 1.175.571 2.355 1.144 3.541 1.72 1.162.624 2.33 1.25 3.503 1.879 1.038.559 2.085 1.122 3.142 1.691l.586.337.281.162c.093.043.178.14.294.094.121-.04.147-.192.126-.314l-.018-.373-.036-.719c-.016-.234-.021-.461-.02-.682l-.003-.335.072-1.58c.066-2.544.412-5.081.634-7.649 1.092-10.246 3.19-20.672 6.37-31.047 3.18-10.374 7.442-20.7 12.84-30.71 1.362-2.494 2.833-4.948 4.261-7.442 1.558-2.415 3.09-4.868 4.714-7.276.844-1.183 1.69-2.369 2.538-3.558.855-1.184 1.677-2.397 2.611-3.532 1.243-1.567 2.489-3.137 3.737-4.712 1.74-2.04 3.538-4.052 5.341-6.114 1.25-.628 2.503-1.257 3.757-1.886l1.887-.945.472-.236c.078-.036.16-.087.234-.11l.207-.019c.287-.023.614-.033.98-.015 1.455.016 3.289.667 4.165 1.246.86.552 1.778 1.276 2.703 2.41l.663.981c.215.345.397.783.598 1.17.187.416.32.925.483 1.383l.393 1.513c.522 2.025 1.044 4.054 1.567 6.085.66 2.547 1.322 5.102 1.985 7.665 2.17 8.37 4.368 16.843 6.589 25.412 3.559 13.778 7.197 27.863 10.9 42.201.015.03.029-.015.028-.044l-.001-.019c.538-1.577 1.077-3.157 1.617-4.74.573-1.796 1.146-3.594 1.721-5.396 5.078-16.226 9.012-32.578 11.801-48.843l.535-3.044.467-3.049c.305-2.031.61-4.058.914-6.08.516-4.057 1.083-8.09 1.47-12.125.469-4.026.764-8.049 1.104-12.048.156-2 .251-4 .38-5.992l.154-2.607c.066-1.014.081-2.027.124-3.039.072-2.014.144-4.025.216-6.034 1.009-2.181 2.016-4.356 3.021-6.527.225-.658.537-.79 1.021-1.165.476-.34 1.068-.688 1.697-.959.626-.27 1.291-.473 1.857-.581.282-.06.548-.095.766-.116.096-.055.272.084.421.157l.461.254c2.453 1.353 4.9 2.702 7.341 4.048l3.649 2.016.91.503c.306.178.593.287.941.621.669.566 1.35 1.126 1.948 1.717 1.526 1.447 3.049 2.89 4.568 4.329l2.034 1.935c.656.665 1.286 1.354 1.928 2.028 2.532 2.733 5.173 5.342 7.481 8.216 9.592 11.182 17.635 23.209 24.147 35.601 6.514 12.394 11.497 25.155 15.027 37.886.442 1.592.882 3.177 1.32 4.756.354 1.601.707 3.195 1.059 4.783.349 1.588.696 3.169 1.042 4.745.315 1.581.536 3.175.805 4.752.256 1.579.512 3.151.766 4.716.141.78.243 1.565.314 2.353.083.786.167 1.57.25 2.352s.165 1.563.247 2.341l.031.292.005.078.003.087.006.18c.02.271.019.553.017.844.018.519-.04 1.091.044 1.653.083.127.251.104.319.009l.271-.231.566-.485c.465-.373.926-.742 1.383-1.108 2.048-1.655 4.007-3.382 6.079-4.927 8.159-6.343 16.507-11.776 24.823-16.374 8.317-4.6 16.602-8.365 24.671-11.408 2.002-.799 4.023-1.472 6.01-2.15.994-.336 1.981-.67 2.962-1.001.991-.299 1.975-.596 2.953-.892.977-.294 1.947-.586 2.911-.876.966-.281 1.938-.517 2.895-.773.694-.187 1.386-.373 2.075-.558.736-.203 1.465-.396 2.181-.561 1.437-.338 2.863-.674 4.278-1.007 1.902.048 3.78.096 5.633.143.249-.01.425.036.614.102.195.066.394.153.596.267.405.22.804.534 1.146.899.691.744 1.098 1.665 1.085 2.398-.104 1.782-.144 3.469-.332 5.236-.672 2.149-1.334 4.267-1.986 6.354-.43 1.501-.853 2.979-1.27 4.434-.335 1.302-.665 2.584-.99 3.844-.602 2.533-1.166 4.992-1.61 7.385-.915 4.78-1.592 9.258-2.005 13.393-.257 2.064-.362 4.047-.541 5.934-.092 1.888-.246 3.686-.289 5.387-.257 6.807-.142 12.086-.091 15.667.062 3.58-.026 5.482-.444 5.548z" fill="#04294f"/><path d="m1149.27 1456.579c-12.841 0-25.099-4.451-34.217-12.548-7.021-6.234-7.658-16.979-1.424-24s16.979-7.658 24-1.424c3.258 2.894 8.326 4.347 13.556 3.887s9.966-2.775 12.67-6.192c2.02-2.554 3.966-6.255 6.026-10.172 5.41-10.29 12.818-24.381 29.357-28.788 15.529-4.137 32.211 2.734 45.766 18.853 1.694 2.014 3.277 4.03 4.807 5.98 4.311 5.491 8.383 10.678 12.512 12.537.29.107.8.121 1.32.065 1.523-7.532 8.047-13.322 16.063-13.605 9.38-.327 17.258 7.006 17.59 16.389.354 10.025-4.465 19.149-13.221 25.031-10.394 6.983-24.411 8.208-35.709 3.122-11.753-5.291-19.264-14.858-25.299-22.545-1.419-1.808-2.76-3.516-4.086-5.092-5.599-6.658-10.078-8.128-10.991-7.882-2.135.569-5.674 7.301-8.016 11.756-2.566 4.882-5.475 10.415-9.456 15.446-8.522 10.772-21.774 17.685-36.358 18.967-1.635.144-3.268.215-4.89.215z" fill="#04294f"/><path d="m1147.256 1427.761c.621-.242 1.829.878 2.552 3.305.174.603.33 1.278.388 2.013.107.738.081 1.524.053 2.36-.128 1.657-.532 3.469-1.297 5.237-.789 1.757-1.854 3.277-2.992 4.489-.599.584-1.161 1.134-1.778 1.553-.582.453-1.185.793-1.747 1.071-2.28 1.104-3.921.966-4.162.345-.284-.69.705-1.728 1.971-3.256.317-.386.665-.788.996-1.258.363-.433.68-.955 1.047-1.461.677-1.063 1.357-2.25 1.951-3.562.568-1.323.985-2.625 1.314-3.843.126-.612.298-1.198.373-1.758.124-.562.187-1.089.257-1.584.274-1.966.373-3.396 1.074-3.651z" fill="#fff"/><ellipse cx="1128.422" cy="1426.036" fill="#fff" rx="4.294" ry="3.3" transform="matrix(.7071 -.7071 .7071 .7071 -677.8525 1215.5913)"/><path d="m1164.696 1443.691c-.712-.151-1.11-1.238-1.507-2.727-.391-1.501-.831-3.424-1.477-5.497-.66-2.068-1.403-3.896-1.944-5.35-.53-1.448-.828-2.565-.331-3.098.467-.507 1.726-.282 3.22.878 1.484 1.14 3.103 3.281 3.969 6.02.861 2.74.764 5.422.202 7.208-.556 1.806-1.458 2.713-2.132 2.566z" fill="#fff"/><ellipse cx="1179.628" cy="1419.569" fill="#fff" rx="2.577" ry="6.289" transform="matrix(.84 -.5426 .5426 .84 -581.526 867.2689)"/><path d="m1194.067 1408.364c-.704-.174-1.159-.944-1.601-1.848-.436-.92-.875-2.004-1.384-3.186-.523-1.175-1.02-2.234-1.4-3.179-.364-.938-.621-1.795-.271-2.43.329-.607 1.337-.844 2.672-.311 1.32.514 2.857 1.883 3.72 3.854.862 1.972.824 4.031.305 5.348-.514 1.344-1.373 1.923-2.041 1.752z" fill="#fff"/><path d="m1210.032 1401.693c-.71-.136-1.186-.975-1.611-2.073-.422-1.11-.823-2.494-1.275-4.008-.463-1.51-.897-2.885-1.161-4.042-.254-1.15-.324-2.111.191-2.619.494-.49 1.555-.381 2.768.493 1.205.858 2.483 2.53 3.134 4.675.648 2.146.511 4.246-.016 5.628-.524 1.401-1.347 2.079-2.03 1.946z" fill="#fff"/><ellipse cx="1232.908" cy="1405.099" fill="#fff" rx="6.74" ry="2.577" transform="matrix(.1301 -.9915 .9915 .1301 -320.6601 2444.7114)"/><ellipse cx="1245.626" cy="1422.177" fill="#fff" rx="6.549" ry="2.576" transform="matrix(.2543 -.9671 .9671 .2543 -446.543 2265.2288)"/><path d="m1255.36 1436.289c-.436-.579-.251-1.5.079-2.557.344-1.065.83-2.303 1.324-3.677.481-1.379.883-2.646 1.286-3.69.409-1.03.845-1.861 1.548-2.037.67-.172 1.537.449 2.09 1.838.557 1.367.682 3.492-.067 5.609-.751 2.117-2.187 3.689-3.479 4.401-1.304.731-2.368.669-2.781.113z" fill="#fff"/><path d="m1278.797 1434.374c-.726-.085-1.228-1.061-1.813-2.338-.579-1.292-1.291-2.913-2.261-4.605-.987-1.683-2.039-3.106-2.873-4.25-.818-1.143-1.415-2.063-1.128-2.735.262-.632 1.491-.877 3.226-.244.864.308 1.808.864 2.735 1.638.91.788 1.792 1.804 2.498 3.007.693 1.211 1.137 2.481 1.368 3.662.211 1.19.224 2.285.063 3.188-.313 1.818-1.136 2.764-1.815 2.677z" fill="#fff"/><g fill="#f04e23"><path d="m1846.818 563.729c.165-.405.928-.586 2.19-.576.615.022 1.377.049 2.282.081.895.021 1.889.145 3.034.128 4.496.115 11.094-.042 18.559-2.751 7.391-2.682 15.553-8.034 20.436-17.062 1.235-2.242 2.226-4.702 3.039-7.28.801-2.588 1.278-5.342 1.523-8.152.251-2.814.156-5.709-.301-8.568-.13-1.637-.747-3.351-1.24-5.087-.255-.867-.51-1.737-.767-2.608-.277-.885-.638-1.821-.956-2.735-.651-1.821-1.305-3.65-1.963-5.489-.321-.89-.643-1.783-.965-2.678-.314-.885-.679-1.837-.911-2.623 5.113.909 11.892 2.295 17.476 2.942.768.162 1.369.034 2.044.032.324.007.678-.091 1.02-.131l.414-.067c.472-.067.946-.138 1.417-.295l1.424-.376 1.409-.533c1.867-.758 3.734-1.712 5.43-2.991.895-.567 1.653-1.334 2.492-1.997.73-.783 1.557-1.483 2.204-2.342.733-.793 1.309-1.694 1.936-2.563.297-.444.529-.921.807-1.375l.401-.689.322-.72c.201-.483.481-.944.636-1.439l.513-1.472c.173-.494.264-1.055.409-1.578l.201-.799.124-.823c.068-.552.217-1.088.237-1.654l.131-1.686c-.009-1.14.053-2.281-.084-3.444-.045-1.159-.28-2.324-.448-3.494-.273-1.163-.502-2.337-.891-3.492-.772-2.476-1.776-4.901-3.065-7.162-1.291-2.258-2.793-4.374-4.459-6.306-3.328-3.764-7.543-6.947-12.125-9.272-2.283-1.19-4.669-2.193-7.118-2.997-2.439-.823-4.929-1.487-7.445-1.955l-.939-.187c-.094-.029-.469-.069-.75-.105l-.89-.11c-1.204-.14-2.322-.308-3.58-.425-2.926-.082-5.689-.266-8.808-.14-3.013.056-6.005.112-8.976.168-1.412.027-2.818.054-4.22.081l-2.074.039-1.76-.04c2.866-3.232 5.705-6.433 8.515-9.601 1.411-1.609 2.815-3.209 4.211-4.802.385-.408.619-.767.87-1.13l.759-1.089c.503-.723 1.005-1.443 1.506-2.162l.747-1.073c.226-.356.381-.71.574-1.064.196-.342.341-.731.504-1.108l.247-.552.419-.923.341-.952c.505-1.251.825-2.554 1.181-3.833.611-2.589.875-5.196.914-7.737.052-2.55-.312-5.003-.79-7.346-.506-2.345-1.345-4.5-2.263-6.541-1.046-1.966-2.132-3.884-3.51-5.523-1.293-1.706-2.799-3.154-4.273-4.527-.789-.621-1.536-1.277-2.315-1.854-.805-.535-1.554-1.139-2.355-1.609-3.154-1.982-6.286-3.363-9.131-4.283-1.429-.407-2.771-.857-4.034-1.087-.63-.128-1.236-.298-1.817-.394-.586-.094-1.142-.184-1.668-.268-1.064-.224-2.009-.253-2.849-.396-.842-.148-1.554-.204-2.145-.302-1.183-.199-1.874-.499-1.97-.915-.096-.415.409-.935 1.535-1.559.563-.313 1.279-.668 2.166-.928.885-.265 1.924-.64 3.129-.81.606-.098 1.247-.202 1.923-.311.68-.093 1.395-.109 2.151-.161 1.517-.129 3.163-.016 4.959.093 3.574.323 7.663 1.249 11.983 3.076 1.092.431 2.146 1.017 3.266 1.556 1.095.581 2.172 1.266 3.297 1.939 2.154 1.484 4.376 3.145 6.413 5.221 2.113 1.999 3.967 4.448 5.729 7.107 1.635 2.735 3.12 5.716 4.153 8.96 1.006 3.239 1.789 6.683 2.023 10.272.248 3.583.142 7.301-.473 11.059-.359 1.867-.721 3.768-1.318 5.639l-.418 1.416-.517 1.396-.132.35-.066.175-.031.082.002.004c.005.011-.002.012-.007.049-.008.057-.02.11-.033.161-.086.417-.192.706-.278.889-.003.016-.027.042-.011.048l.139-.026.259-.049.448-.077.358-.059.734.055.19.015c.078.008.066-.002.326.041l1.201.19c3.211.483 6.445 1.222 9.67 2.201 3.229.958 6.445 2.201 9.59 3.74 3.147 1.527 6.244 3.326 9.159 5.491.747.513 1.455 1.088 2.163 1.666.709.579 1.429 1.135 2.109 1.79.684.637 1.388 1.261 2.052 1.924l1.934 2.047c2.495 2.81 4.717 5.884 6.621 9.185 1.9 3.304 3.417 6.867 4.572 10.594.566 1.732.948 3.525 1.334 5.307.286 1.811.6 3.61.687 5.449.179 1.822.117 3.674.081 5.506-.078.92-.157 1.838-.235 2.754-.066.916-.275 1.825-.414 2.734l-.24 1.359-.338 1.342c-.246.894-.435 1.78-.743 2.669-.324.887-.647 1.772-.969 2.655-.322.884-.771 1.695-1.159 2.538l-.61 1.247c-.222.402-.464.79-.696 1.184-.478.778-.927 1.578-1.441 2.323-1.059 1.465-2.107 2.931-3.323 4.23-1.138 1.374-2.472 2.536-3.737 3.751-1.373 1.093-2.684 2.248-4.162 3.173-2.85 1.986-5.986 3.516-9.229 4.684-.822.27-1.641.538-2.458.806-.846.196-1.689.391-2.53.586-.833.212-1.694.33-2.557.428l-.584.071c.007-.002.037-.026.015-.022l-.07-.012c-.194-.04-.438-.103-.729-.216-.075-.039-.043.016-.05.039l.002.09c.005.062-.003.135-.003.211-.001.151-.02.342-.036.543.415 4.138.287 8.201-.307 12.073-.59 3.871-1.533 7.581-2.889 11.029-1.371 3.44-3.008 6.662-4.96 9.568-3.907 5.792-8.862 10.425-14.022 13.473-5.14 3.105-10.337 4.938-15.112 5.866-4.784.92-9.14 1.023-12.856.626-.929-.055-1.819-.247-2.668-.366-.423-.07-.838-.137-1.244-.204-.402-.097-.795-.192-1.179-.284-.766-.192-1.493-.368-2.176-.565-.673-.238-1.312-.463-1.916-.676-1.205-.402-2.212-.947-3.075-1.385-.867-.427-1.549-.902-2.077-1.322-1.063-.824-1.503-1.44-1.338-1.845z"/><path d="m1539.318 370.997c-.193.393-.966.521-2.225.424-.612-.064-1.371-.143-2.271-.238-.891-.083-1.875-.274-3.018-.336-4.478-.423-11.071-.72-18.704 1.47-7.558 2.169-16.068 6.948-21.559 15.619-1.386 2.152-2.543 4.539-3.532 7.055-.977 2.527-1.642 5.242-2.08 8.029-.443 2.79-.547 5.685-.288 8.569.017 1.643.515 3.394.887 5.16.195.883.39 1.768.586 2.655.215.902.512 1.86.766 2.794.525 1.861 1.052 3.731 1.582 5.611.259.91.519 1.823.779 2.738.252.904.551 1.879.729 2.679-5.038-1.258-11.707-3.106-17.233-4.135-.755-.214-1.363-.128-2.037-.172-.323-.029-.682.044-1.026.061l-.417.038c-.476.034-.953.073-1.434.197l-1.446.277-1.443.435c-1.915.628-3.843 1.452-5.622 2.612-.932.504-1.741 1.218-2.623 1.821-.782.731-1.655 1.372-2.36 2.185-.786.741-1.422 1.6-2.108 2.424-.327.423-.591.882-.899 1.316l-.448.66-.37.696c-.233.468-.545.908-.733 1.392l-.613 1.433c-.207.481-.335 1.035-.517 1.546l-.255.783-.18.813c-.106.546-.291 1.07-.35 1.633l-.247 1.673c-.069 1.137-.21 2.272-.152 3.441-.035 1.159.12 2.338.207 3.517.192 1.179.341 2.366.65 3.545.6 2.523 1.436 5.012 2.566 7.356 1.132 2.341 2.486 4.556 4.016 6.597 3.062 3.984 7.048 7.448 11.46 10.083 2.196 1.344 4.507 2.509 6.895 3.478 2.377.989 4.816 1.822 7.293 2.461l.924.251c.091.035.463.101.741.156l.88.171c1.192.223 2.295.467 3.542.67 2.913.283 5.658.656 8.778.744 3.01.151 5.999.3 8.967.449 1.41.07 2.815.139 4.215.208l2.072.103 1.753.16c-3.082 3.028-6.133 6.026-9.154 8.994-1.518 1.508-3.029 3.009-4.531 4.501-.412.381-.67.723-.945 1.067l-.832 1.034c-.552.686-1.102 1.371-1.651 2.053l-.819 1.019c-.25.34-.429.683-.646 1.022-.219.328-.391.706-.578 1.071l-.284.533-.481.892-.406.927c-.589 1.213-.998 2.491-1.441 3.743-.787 2.541-1.23 5.124-1.443 7.656-.227 2.541-.032 5.013.284 7.383.344 2.374 1.033 4.582 1.809 6.681.908 2.034 1.86 4.021 3.123 5.751 1.173 1.791 2.576 3.338 3.952 4.809.745.674 1.444 1.379 2.182 2.009.767.589 1.472 1.243 2.239 1.767 3.011 2.194 6.04 3.787 8.815 4.9 1.397.505 2.706 1.046 3.95 1.362.62.171 1.212.381 1.786.517.578.134 1.127.262 1.646.382 1.046.296 1.987.39 2.815.59.83.205 1.536.31 2.119.448 1.167.28 1.836.626 1.903 1.047s-.472.905-1.638 1.45c-.583.274-1.322.579-2.225.777-.901.203-1.964.507-3.177.593-.611.056-1.258.116-1.94.178-.685.046-1.399.013-2.157.012-1.522.025-3.156-.201-4.941-.433-3.543-.567-7.559-1.772-11.743-3.891-1.06-.505-2.072-1.162-3.152-1.776-1.053-.655-2.08-1.412-3.156-2.161-2.047-1.629-4.15-3.438-6.039-5.649-1.97-2.139-3.653-4.709-5.227-7.483-1.444-2.84-2.72-5.917-3.528-9.224-.781-3.3-1.326-6.79-1.313-10.386-.001-3.592.36-7.293 1.23-11 .486-1.838.978-3.709 1.702-5.535l.515-1.384.612-1.358.156-.34.078-.17.036-.079-.001-.005c-.004-.011.003-.012.01-.049.012-.056.028-.108.044-.158.115-.41.24-.691.339-.868.004-.016.03-.04.014-.047l-.14.016-.262.031-.452.046-.361.034-.728-.105-.188-.028c-.077-.013-.066-.003-.323-.064l-1.185-.272c-3.17-.702-6.346-1.661-9.496-2.86-3.156-1.178-6.279-2.638-9.311-4.389-3.035-1.739-6.001-3.747-8.76-6.107-.71-.563-1.376-1.186-2.044-1.811-.667-.626-1.348-1.23-1.981-1.93-.639-.683-1.298-1.354-1.915-2.06l-1.789-2.175c-2.297-2.974-4.302-6.194-5.975-9.617-1.669-3.426-2.937-7.085-3.834-10.883-.446-1.767-.704-3.582-.967-5.386-.161-1.826-.35-3.642-.311-5.483-.053-1.83.135-3.674.297-5.499.141-.912.283-1.823.424-2.732.128-.909.399-1.802.601-2.699l.333-1.34.429-1.316c.307-.875.557-1.746.925-2.612.384-.863.767-1.723 1.149-2.582.382-.86.885-1.638 1.331-2.452l.694-1.202c.25-.386.517-.757.776-1.134.53-.744 1.033-1.511 1.597-2.218 1.157-1.389 2.303-2.78 3.606-3.992 1.23-1.293 2.64-2.361 3.986-3.486 1.445-.995 2.832-2.058 4.37-2.879 2.98-1.785 6.213-3.097 9.529-4.04.838-.213 1.674-.424 2.507-.636.857-.137 1.712-.274 2.564-.411.846-.154 1.713-.213 2.58-.252l.588-.031c-.008.001-.038.023-.016.021l.069.017c.191.053.429.133.713.265.073.044.044-.013.053-.035l.004-.09c-.001-.062.012-.134.018-.21.011-.151.043-.34.073-.539-.13-4.157.277-8.201 1.135-12.024.854-3.822 2.05-7.458 3.64-10.805 1.604-3.338 3.458-6.44 5.605-9.205 4.295-5.51 9.557-9.792 14.914-12.479 5.341-2.745 10.651-4.217 15.479-4.815 4.836-.589 9.189-.393 12.869.258.922.119 1.797.372 2.637.548.418.098.827.195 1.227.289.394.124.78.246 1.157.365.75.244 1.464.469 2.132.713.655.283 1.277.552 1.865.806 1.174.484 2.142 1.096 2.973 1.593.836.486 1.484 1.006 1.981 1.461.996.904 1.392 1.55 1.199 1.943z"/><path d="m1755.239 675.568c.592-.02 1.16.752 1.696 2.313.262.78.541 1.759.762 2.928.144 1.163.262 2.519.347 4.063.016.385.052.786.047 1.191-.019.404-.038.819-.058 1.244-.054.856-.111 1.753-.17 2.691-.042.469-.056.958-.13 1.441-.082.483-.165.976-.25 1.478-.184 1.01-.376 2.059-.574 3.146-1.073 4.259-2.572 9.163-5.293 14.091-2.648 4.953-6.217 10.093-10.941 14.878-4.71 4.782-10.607 9.192-17.63 12.485-6.999 3.296-15.239 5.309-23.714 5.417-8.482.141-17.202-1.493-25.445-4.793-8.414-3.42-15.877-8.465-21.979-14.487-3.079-2.986-5.713-6.322-8.056-9.736-1.125-1.701-2.043-3.425-3.04-5.109-.087-.147-.062-.115-.066-.128l-.001-.024-.004-.051-.01-.11c-.012-.071-.012-.175-.041-.24l-.284-.111-.043-.015-.022-.01c.018 0-.056-.01.037-.001l.098.005-.07-.006-1.15-.099c-.767-.051-1.515-.18-2.26-.301-2.972-.498-5.802-1.297-8.407-2.412-2.608-1.108-5.016-2.463-7.208-3.991-2.171-1.567-4.117-3.306-5.834-5.156-3.378-3.756-5.779-8.026-7.052-12.141-1.314-4.11-1.742-8.026-1.588-11.492.286-6.971 2.638-12.025 4.71-14.95.493-.751 1.056-1.345 1.524-1.85.463-.509.932-.882 1.342-1.155.815-.549 1.403-.692 1.774-.453.778.501.459 2.37.041 5.408-.392 3.027-.854 7.36.134 12.439.972 5.052 3.461 10.709 8.391 14.826 1.252 1.02 2.62 1.966 4.102 2.804 1.506.802 3.115 1.489 4.802 2.021 1.686.54 3.466.849 5.253.998.448.033.896.085 1.345.067l.674.004.257.012c.169.014.173-.001.268 0l.44-.017c.293-.01.597-.052.896-.077 2.412-.215 4.84-.471 7.293-.751 1.487 2.889 2.993 5.815 4.518 8.776.878 1.292 1.699 2.69 2.622 3.947 1.869 2.425 3.898 4.825 6.285 6.979 4.71 4.349 10.406 8.085 16.76 10.669 6.228 2.482 12.708 3.786 18.918 3.884 6.225.11 12.109-1.011 17.49-3.108 5.375-2.1 10.201-5.076 14.292-8.453 4.103-3.375 7.487-7.115 10.261-10.8 2.85-3.662 4.784-7.416 6.509-10.748.38-.858.746-1.686 1.099-2.483.183-.401.364-.794.54-1.18.174-.387.289-.781.435-1.159.287-.765.562-1.497.824-2.194.138-.352.273-.695.405-1.029.122-.337.206-.671.311-.994.399-1.295.794-2.46 1.179-3.483.308-1.026.577-1.91.874-2.633.581-1.448 1.173-2.256 1.765-2.275z"/><path d="m1971.906 596.168c.483-.344 1.247-.231 2.302.369.533.297 1.134.718 1.732 1.305.607.58 1.323 1.269 1.956 2.151 2.661 3.422 5.581 9.461 5.884 17.621.154 4.052-.335 8.611-1.967 13.301-1.603 4.659-4.371 9.567-8.406 13.591-3.966 4.095-9.05 7.38-14.802 9.544-2.89 1.051-5.949 1.802-9.123 2.237-.799.073-1.602.147-2.407.221l-.605.05-.179.006-.339.009-.339.007c-.072.002-.02.003-.036.004l.001.003-.018-.019c-.018-.015-.047-.03-.089-.012-.011.004-.023.011-.034.02-.053.643-.105 1.283-.158 1.92-.191 1.468-.381 2.924-.719 4.333-.611 2.83-1.499 5.533-2.649 8.05-1.128 2.524-2.474 4.884-4.036 7.016-3.038 4.311-6.953 7.705-10.883 10.11-3.972 2.367-7.992 3.775-11.692 4.515-3.708.74-7.109.806-10.017.5-2.911-.312-5.336-.949-7.206-1.753-3.756-1.589-5.29-3.418-4.935-4.444.375-1.122 2.538-1.435 5.866-1.939 3.314-.502 7.924-1.323 12.83-3.63 2.438-1.154 4.925-2.679 7.201-4.627 2.229-1.995 4.277-4.33 5.863-7.24.822-1.423 1.507-2.98 2.07-4.611.586-1.623 1.005-3.344 1.269-5.104.164-.876.211-1.772.294-2.666.018-.551.036-1.103.055-1.658-.04-1.203-.226-2.465-.331-3.706l-.093-.937-.048-.47-.113-.511-.454-2.051c-.304-1.378-.61-2.762-.916-4.15-.592-2.697-1.188-5.414-1.788-8.148 3.421.813 6.88 1.635 10.364 2.462 1.489.355 2.894.641 4.338.965l1.074.236.536.118c.184.044.362.082.482.077l1.631.084 1.625.085.8.042.359-.03c.479-.032.957-.064 1.432-.096 1.902-.226 3.776-.605 5.578-1.156 3.58-1.163 6.847-2.931 9.457-5.145 2.677-2.165 4.61-4.761 6.13-7.549 1.516-2.784 2.453-5.749 3.002-8.561 1.128-5.668.616-10.632.143-14.17-.491-3.55-.9-5.849.108-6.569z"/><path d="m1913.66 279.666c-1.219-.095-2.112-2.072-3.322-5.174-.607-1.554-1.336-3.39-2.24-5.419-.938-2.021-2.068-4.233-3.511-6.495-2.877-4.508-7.013-9.275-12.653-12.571-2.799-1.704-6.033-3.015-9.473-3.946-1.734-.426-3.516-.768-5.339-.97-.455-.053-.914-.069-1.373-.11l-.689-.06-.879-.017-1.814.082-1.82.081c-.621.045-1.177-.002-1.898.18-1.372.266-2.749.532-4.129.8-3.721.779-7.414 1.551-11.073 2.317-3.228.664-6.427 1.321-9.59 1.972 4.037-5.482 8.016-10.885 11.93-16.199.807-1.147 1.61-2.29 2.409-3.428.177-.276.448-.583.547-.833l.282-.743.561-1.478.549-1.466.088-.359.044-.179.011-.045c.002.01.007-.036.025-.177l.015-.101.046-.246c.052-.329.158-.65.18-.983.391-2.642.18-5.289-.459-7.624-.689-2.323-1.707-4.326-3.184-6.042-1.442-1.728-3.19-3.166-4.982-4.273-3.617-2.228-7.236-3.114-9.883-3.693-2.662-.569-4.493-.895-4.89-1.956-.19-.511.013-1.137.656-1.885.32-.381.752-.782 1.312-1.148.557-.379 1.226-.806 2.029-1.134 1.593-.76 3.689-1.295 6.219-1.549 2.527-.235 5.489-.072 8.687.766 3.188.843 6.625 2.376 9.889 4.896 3.284 2.47 6.271 6.164 8.241 10.504 1.943 4.353 2.936 9.351 2.646 14.555-.01.652-.115 1.302-.177 1.958l-.057.492-.004.031c.003-.021-.012.09.005-.039.016-.126.018-.156.016-.131l.001.001.004.004.005.008.02.029c.028.036.052.059.077.073.047.028.09.02.129.001.066-.035.113-.076.104-.07 0 0-.002.004-.003.011v.006.004c-.013-.004-.153-.016-.082-.008l.262.025c.697.072 1.395.124 2.083.221 2.756.376 5.427.994 7.991 1.783 5.103 1.657 9.772 4.043 13.7 7.051 3.954 2.979 7.183 6.474 9.574 10.047 2.417 3.569 4.093 7.192 5.193 10.591 1.102 3.403 1.628 6.585 1.801 9.366.138 2.793-.059 5.182-.458 7.094-.813 3.836-2.213 5.698-3.349 5.602z"/><path d="m1784.505 319.127c-.734-.068-1.341-1.239-2.016-3.14-.756-1.902-1.725-4.56-3.502-7.531-.223-.367-.452-.744-.686-1.131-.231-.384-.538-.747-.805-1.133-.284-.379-.538-.781-.847-1.163-.318-.373-.643-.754-.975-1.144-.162-.194-.325-.39-.49-.588-.184-.183-.37-.367-.558-.554-.366-.373-.74-.753-1.12-1.14-.855-.68-1.622-1.486-2.586-2.112-1.807-1.385-3.917-2.554-6.185-3.399-.281-.109-.564-.219-.849-.33-.285-.107-.587-.16-.879-.245-.292-.081-.587-.162-.883-.244l-.457-.128-.94-.142c-.632-.096-1.268-.193-1.908-.29l-.968-.147-.487-.074-.572-.062c-1.557-.168-3.131-.337-4.723-.509-.392-1.987-.791-4.002-1.194-6.045-.202-1.04-.426-2.098-.767-3.072-.158-.472-.306-.872-.5-1.303-.704-1.704-1.575-3.392-2.637-5.003-2.124-3.216-4.955-6.156-8.314-8.35-3.325-2.184-7.288-3.655-11.557-4.201-4.251-.547-8.764-.158-12.864 1.315-2.565.893-5.39 2.432-8.606 4.203-3.194 1.742-6.803 3.726-11.135 5.146-2.184.693-4.549 1.208-7.004 1.413-2.474.203-4.975.003-7.236-.415-4.552-.875-8.171-2.557-11.23-4.027-3.076-1.505-5.652-2.879-7.974-3.846-1.155-.486-2.223-.852-3.248-1.144-1.048-.261-2.107-.495-3.18-.594-4.292-.5-8.56.337-12.069 1.862-3.517 1.538-6.306 3.816-8.468 6.281-2.142 2.473-3.621 5.035-4.692 7.256-1.058 2.229-1.739 4.128-2.297 5.466-.568 1.338-1.074 2.128-1.679 2.171-.576.042-1.233-.676-1.782-2.212-.555-1.532-.946-3.901-.742-6.99.225-3.074 1.07-6.878 3.148-10.937 1.047-2.019 2.411-4.087 4.158-6.082 1.747-1.996 3.895-3.9 6.385-5.531 2.49-1.637 5.338-2.986 8.463-3.959 3.124-.974 6.537-1.556 10.139-1.556 1.799-.027 3.643.144 5.51.423 1.88.316 3.716.775 5.441 1.325 3.442 1.097 6.538 2.484 9.351 3.62 2.822 1.156 5.38 2.036 7.51 2.301 1.071.123 2.004.151 2.968.022.978-.141 2.026-.396 3.179-.802 2.333-.848 5.03-2.318 8.161-4.116 3.115-1.757 6.725-3.881 11.201-5.472 13.905-4.893 28.949-2.11 39.549 5.723 5.272 3.882 9.311 8.77 12.137 13.953 1.412 2.597 2.505 5.284 3.312 7.982.214.659.397 1.368.544 2.005l-.012.312c-.017.237-.035.47-.052.7l.387.199c.337.137.671.273 1 .407.321.134.64.267.958.399.461.199.92.396 1.375.593.45.205.911.382 1.338.611.422.236.842.47 1.259.703 3.325 1.863 6.092 4.124 8.283 6.547 1.16 1.151 2.049 2.465 2.977 3.642.403.635.799 1.259 1.187 1.871.189.306.377.609.562.908.161.315.32.628.477.937.305.617.604 1.222.896 1.814.272.6.482 1.217.708 1.801.211.593.45 1.151.607 1.729.15.578.296 1.141.438 1.689 1.045 4.407.791 7.97.226 10.248-.655 2.295-1.462 3.355-2.159 3.286z"/><path d="m532.21 721.2c.864-.339 2.266 1.289 4.757 3.833 2.5 2.507 6.246 6.003 11.79 8.58 5.508 2.553 12.743 4.051 20.159 1.876 3.702-1.075 7.454-2.967 10.707-5.715.831-.664 1.581-1.429 2.351-2.179.356-.4.714-.802 1.074-1.207.097-.059.583-.767.927-1.238l1.118-1.553c.776-.912 1.438-2.411 2.146-3.732.352-.678.704-1.359 1.058-2.041.355-.707.711-1.416 1.068-2.126.7-1.399 1.404-2.806 2.112-4.219l1.024-2.057.516-1.035.499-.921c2.666 4.045 5.368 8.145 8.103 12.297.731.88 1.492 1.571 2.243 2.373l1.12 1.151.459.266c.308.175.597.376.911.544l.973.459c1.329.563 2.75 1.067 4.271 1.294.741.184 1.525.182 2.289.284.773-.01 1.55.063 2.319-.032.779-.01 1.528-.179 2.291-.275.728-.203 1.497-.309 2.182-.598.726-.207 1.373-.545 2.044-.838.337-.162.675-.391 1.018-.575.351-.177.679-.403 1.003-.64 1.332-.874 2.565-1.981 3.689-3.248 1.138-1.249 2.168-2.673 3.027-4.241.939-1.684 1.731-3.476 2.296-5.337.557-1.863.928-3.768 1.113-5.662l.101-1.418.005-1.406c.025-.46-.045-.958-.062-1.435-.018-.482-.056-.964-.127-1.445-.198-1.925-.596-3.838-1.156-5.712-.552-1.875-1.229-3.723-2.079-5.501-.4-.897-.869-1.767-1.333-2.633l-.728-1.283c-.121-.213-.26-.418-.389-.627l-.741-1.151c-.624-.928-1.348-1.825-2.073-2.716l-1.072-1.335-.533-.665c-.192-.221-.42-.443-.627-.664-.846-.882-1.689-1.761-2.529-2.638-.87-.888-1.736-1.773-2.6-2.655-1.704-1.734-3.396-3.457-5.076-5.166-1.551-1.59-3.281-3.286-4.35-4.553 3.614-.12 7.193-.239 10.735-.357 1.817-.071 3.625-.142 5.423-.212 1.628-.095 3.247-.189 4.858-.283.197-.014.407-.019.593-.04l.475-.125.946-.249c.628-.165 1.254-.329 1.878-.493l.932-.245.232-.061.325-.125.388-.156.69-.293c.465-.182.922-.382 1.356-.625.434-.24.902-.421 1.313-.695 3.423-1.976 6.27-4.664 8.265-7.601 1.052-1.452 1.76-3.012 2.428-4.54.242-.793.593-1.549.753-2.354.103-.398.206-.792.307-1.183.068-.402.135-.8.202-1.193.541-3.174.391-6.295-.1-9.086-.491-2.799-1.311-5.289-2.229-7.402-.955-2.087-1.917-3.869-2.82-5.273-.409-.747-.871-1.321-1.209-1.905-.338-.587-.662-1.051-.897-1.474-.47-.847-.625-1.477-.39-1.832.234-.355.853-.423 1.878-.183.512.12 1.136.304 1.799.643.663.336 1.482.699 2.271 1.276 1.665 1.07 3.504 2.695 5.395 4.896 1.849 2.225 3.655 5.089 5.062 8.616 1.399 3.519 2.401 7.728 2.363 12.469-.011.594-.023 1.193-.034 1.798-.06.606-.12 1.218-.181 1.836-.089 1.244-.405 2.489-.646 3.772-.666 2.516-1.523 5.12-2.851 7.566-2.561 4.946-6.481 9.534-11.572 13.127-.619.475-1.308.855-1.971 1.286-.662.434-1.359.821-2.077 1.185l-1.074.559-.135.07c-.027.015.052-.019.073-.028l.09-.043-.014.011-.056.042-.205.158c-.259.191-.458.3-.588.364-.129-.005.104.125.206.2l.326.229c.154.109.31.22.469.332.012.007.027.017.036.027l.185.266c.187.276.383.546.564.829.357.569.716 1.14 1.075 1.712.693 1.164 1.384 2.344 2.002 3.582 1.28 2.448 2.364 5.067 3.26 7.804.904 2.734 1.59 5.61 1.976 8.585.117.739.196 1.488.248 2.244.051.759.146 1.497.143 2.284.009.777.019 1.556.028 2.337-.04.777-.08 1.555-.121 2.335-.488 6.216-2.252 12.399-5.456 18.056-1.454 2.624-3.228 5.089-5.28 7.323-2.032 2.245-4.347 4.274-6.922 5.938-.631.432-1.274.844-1.954 1.201-.677.366-1.325.751-2.031 1.083-1.44.649-2.882 1.281-4.365 1.705-1.466.515-2.964.771-4.445 1.08-1.489.197-2.973.415-4.449.425-1.478.096-2.939-.023-4.393-.1-1.442-.191-2.886-.318-4.287-.676-2.824-.57-5.537-1.589-8.106-2.856-.633-.342-1.265-.683-1.895-1.024-.615-.366-1.204-.78-1.799-1.174l-.883-.601c-.042-.037-.027-.036-.044-.057l-.062-.099c-.082-.147-.183-.332-.276-.576-.009-.018-.018-.049-.027-.058l-.024.018-.051.04-.123.093c-.044.035-.094.072-.152.109-.062.044-.095.061-.226.175l-.168.142c-.091.083.005-.022-.408.383-.607.583-1.211 1.163-1.812 1.739-1.262 1.078-2.516 2.13-3.849 3.037-5.266 3.718-11.066 5.958-16.722 6.918-5.656.929-11.231.561-15.936-.823-4.731-1.341-8.706-3.438-11.9-5.774-3.192-2.351-5.64-4.907-7.43-7.353-.474-.585-.844-1.227-1.234-1.802-.39-.577-.731-1.15-1.021-1.724-.299-.565-.584-1.1-.834-1.618-.218-.536-.425-1.044-.621-1.525-.4-.947-.608-1.853-.793-2.616-.194-.759-.259-1.434-.268-1.989-.026-1.107.172-1.729.58-1.889z"/><path d="m531.571 398.378c-.91-.18-1.214-2.306-1.943-5.793-.756-3.458-2.028-8.422-5.311-13.58-3.265-5.118-8.554-10.278-15.973-12.441-3.698-1.089-7.878-1.516-12.099-.953-1.058.111-2.102.352-3.155.569-.516.145-1.034.291-1.555.438-.113-.003-.904.332-1.448.543l-1.778.706c-1.145.35-2.51 1.256-3.819 1.988-.662.382-1.325.765-1.991 1.149-.68.404-1.361.81-2.045 1.216-1.344.802-2.695 1.607-4.052 2.417l-1.971 1.182-.992.594-.916.507c-.067-4.844-.134-9.754-.202-14.725-.142-1.135-.411-2.127-.611-3.207l-.324-1.573-.244-.471c-.165-.313-.301-.639-.475-.949l-.572-.911c-.816-1.191-1.742-2.381-2.901-3.39-.525-.555-1.187-.975-1.775-1.473-.657-.408-1.272-.888-1.971-1.223-.662-.412-1.384-.672-2.078-1.002-.722-.221-1.428-.547-2.161-.671-.724-.217-1.45-.28-2.173-.395-.371-.045-.78-.034-1.168-.064-.391-.04-.789-.027-1.189-.001-1.593.019-3.228.287-4.858.749-1.632.44-3.266 1.084-4.835 1.943-1.699.913-3.331 1.996-4.81 3.259-1.473 1.269-2.811 2.674-3.988 4.171l-.849 1.141-.761 1.181c-.269.375-.478.831-.721 1.243-.245.416-.472.842-.672 1.286-.87 1.728-1.565 3.554-2.104 5.435-.545 1.876-.97 3.799-1.212 5.755-.147.971-.22 1.957-.296 2.936l-.078 1.473c-.012.245-.006.492-.01.738l.005 1.369c.026 1.118.152 2.264.283 3.405l.184 1.703.091.847c.042.29.115.6.171.898.237 1.199.474 2.394.709 3.585.254 1.217.508 2.429.76 3.637.501 2.379.999 4.741 1.493 7.087.45 2.175.995 4.536 1.212 6.179-3.109-1.846-6.189-3.674-9.237-5.483-1.569-.919-3.13-1.833-4.683-2.743-1.423-.797-2.838-1.59-4.245-2.378-.174-.095-.353-.203-.521-.286l-.467-.151-.931-.301c-.618-.199-1.234-.398-1.848-.596l-.917-.296-.228-.074-.341-.07-.411-.077-.739-.125c-.49-.097-.982-.175-1.479-.204-.495-.032-.987-.131-1.48-.122-3.949-.179-7.795.552-11.058 1.951-1.668.656-3.106 1.59-4.491 2.517-.631.538-1.334.986-1.903 1.577-.302.28-.6.557-.896.831-.274.302-.545.601-.813.896-2.165 2.382-3.721 5.093-4.811 7.709-1.094 2.623-1.745 5.162-2.11 7.437-.32 2.273-.469 4.293-.465 5.962-.057.85.022 1.582-.007 2.256-.031.676-.008 1.242-.038 1.725-.061.967-.27 1.581-.658 1.753-.389.173-.947-.104-1.681-.857-.367-.377-.793-.868-1.17-1.511-.378-.64-.872-1.388-1.226-2.299-.827-1.798-1.5-4.158-1.907-7.031-.359-2.871-.338-6.257.377-9.986.717-3.719 2.141-7.804 4.727-11.778.329-.494.662-.993.997-1.496.377-.478.758-.961 1.142-1.449.745-1 1.682-1.878 2.577-2.83 1.916-1.761 4.041-3.493 6.478-4.839 4.822-2.787 10.597-4.541 16.821-4.825.777-.066 1.563-.016 2.354-.022.792-.009 1.587.041 2.388.121l1.206.107.151.014c.031.002-.054-.012-.076-.016l-.099-.013.018-.001.069-.006.258-.022c.321-.021.548-.006.692.01.106.074-.02-.162-.066-.279l-.151-.369c-.071-.175-.143-.352-.216-.532-.006-.012-.013-.029-.015-.042l-.012-.324c-.009-.333-.029-.666-.029-1.002.005-.672.011-1.346.016-2.022.043-1.354.097-2.72.243-4.096.241-2.751.738-5.542 1.458-8.332.711-2.79 1.682-5.583 2.96-8.297.3-.686.636-1.359 1-2.024.366-.667.683-1.341 1.11-2.001l1.235-1.984 1.359-1.902c3.76-4.974 8.577-9.232 14.324-12.273 2.639-1.427 5.461-2.548 8.394-3.325 2.921-.797 5.965-1.259 9.031-1.274.764-.024 1.528-.025 2.294.041.768.056 1.52.081 2.294.181 1.562.229 3.118.474 4.596.915 1.513.356 2.913.947 4.326 1.485 1.36.636 2.728 1.252 3.977 2.038 1.297.716 2.464 1.603 3.646 2.451 1.112.938 2.26 1.823 3.248 2.879 2.073 2.001 3.809 4.322 5.291 6.773.349.629.698 1.257 1.045 1.883.321.64.594 1.306.883 1.958l.42.982c.016.054.003.045.006.072l-.002.117c-.01.168-.025.378-.077.634-.002.02-.011.051-.009.063l.03-.002.065-.006.153-.012c.056-.006.118-.01.187-.01.075-.004.113 0 .284-.025l.218-.029c.122-.021-.016.016.55-.103.826-.164 1.647-.327 2.463-.489 1.644-.228 3.267-.439 4.879-.485 6.439-.296 12.533.943 17.815 3.18 5.265 2.265 9.764 5.578 12.982 9.279 3.263 3.678 5.483 7.586 6.915 11.275 1.423 3.701 2.108 7.173 2.299 10.198.084.749.05 1.488.069 2.182.017.696-.003 1.363-.068 2.002-.052.637-.101 1.241-.169 1.813-.105.569-.204 1.109-.298 1.619-.173 1.013-.486 1.889-.741 2.631-.245.745-.554 1.348-.846 1.82-.576.949-1.078 1.367-1.507 1.282z"/><path d="m322.903 626.321c.172.567-.268 1.274-1.334 2.117-.534.417-1.22.887-2.069 1.351-.86.404-1.878.826-3.053 1.262-2.354.812-5.359 1.445-8.935 1.717-3.55.137-7.708.064-12.153-.967-4.45-.97-9.251-2.634-14.029-5.296-4.772-2.652-9.516-6.332-13.627-11.165-4.108-4.811-7.476-10.914-9.365-17.592-1.918-6.678-2.47-13.911-1.596-21.109.933-7.366 3.36-14.318 6.859-20.398 1.725-3.056 3.822-5.835 6.044-8.397.538-.653 1.178-1.223 1.761-1.828l.893-.886.223-.22c.068-.068-.004.007-.024.032l-.073.092.037-.011c.099-.029.247-.063.366-.127l.056-.232c.012.014-.005-.127-.016-.235l-.033-.331c-.048-.489-.096-.975-.144-1.459-.217-2.501-.155-4.943.2-7.268.353-2.326.947-4.538 1.726-6.612.811-2.066 1.814-3.984 2.948-5.74 2.328-3.482 5.284-6.281 8.324-8.122 3.03-1.875 6.073-2.982 8.863-3.53 5.609-1.118 10.07-.177 12.76.984 2.723 1.207 3.78 2.572 3.513 3.367-.282.871-1.826 1.183-4.194 1.656-2.357.488-5.638 1.188-9.092 3.052-1.721.91-3.446 2.143-4.978 3.663-1.556 1.509-2.795 3.344-3.768 5.495-.452 1.096-.837 2.25-1.12 3.465-.252 1.225-.406 2.494-.438 3.783-.034 1.29.108 2.594.36 3.861.078.344.067.48.349 1.368l.325 1.08c.11.364.196.696.401 1.185.706 1.806 1.42 3.63 2.14 5.471-1.873 1.742-3.862 3.522-5.862 5.34l-.758.689-.461.503-.139.161-.559.643c-.363.439-.78.828-1.112 1.306-1.387 1.849-2.733 3.803-3.831 5.975-2.238 4.303-3.853 9.209-4.507 14.367-.602 5.041-.307 10.023.796 14.567 1.1 4.559 3 8.615 5.534 12.17 2.534 3.547 5.617 6.561 8.872 8.976 3.255 2.425 6.656 4.27 9.912 5.687 3.255 1.48 6.413 2.27 9.235 3.002 2.836.597 5.368.981 7.495 1.231 1.059.097 2.025.219 2.884.362.847.084 1.582.168 2.204.305 1.246.268 2.018.673 2.19 1.24z"/><path d="m427.673 775.79c.456.378.619 1.063.452 2.08-.08.512-.245 1.104-.542 1.729-.29.632-.647 1.372-1.175 2.09-2.004 2.948-6.07 6.681-12.459 8.784-3.172 1.047-6.905 1.688-11.018 1.435-4.079-.236-8.65-1.375-12.771-3.728-4.163-2.285-7.911-5.645-10.895-9.795-1.471-2.092-2.737-4.387-3.77-6.847-.186-.503-.372-1.007-.559-1.514l-.014.003c-.007.002-.01.006-.01.006l.013-.021c.01-.021.02-.053.004-.093-.011-.009.007-.023-.034-.028l-.153-.01c-.55.061-1.098.121-1.643.181-.606.076-1.211.095-1.813.12-2.405.104-4.764-.046-7.028-.445-2.265-.38-4.443-.975-6.482-1.79-4.095-1.554-7.645-4.015-10.372-6.691-2.707-2.715-4.631-5.659-5.943-8.477-2.615-5.678-2.804-10.747-2.173-13.998.651-3.295 1.97-4.834 3.063-4.755 1.171.074 2.083 1.67 3.346 4.013 1.255 2.336 2.983 5.494 5.762 8.495 1.387 1.49 3.029 2.923 4.894 4.106 1.891 1.138 3.937 2.067 6.304 2.578 1.164.283 2.395.445 3.651.51 1.254.084 2.544.034 3.825-.13.321-.04.644-.065.961-.138l.479-.088.24-.041.12-.02.302-.084c.873-.248 1.75-.497 2.63-.747l.331-.094c.116-.047.24-.115.359-.171l.725-.355 1.456-.712c3.935-1.981 8.351-4.32 12.108-6.241.077 2.835.155 5.702.234 8.589.031 1.243.061 2.482.091 3.718.022.608.013 1.255.061 1.828l.201 1.644.199 1.638.101.815.195.747.454 1.361c.505 1.285 1.106 2.53 1.814 3.7 1.458 2.308 3.272 4.302 5.269 5.76 1.975 1.519 4.097 2.446 6.346 3.083 2.241.632 4.549.833 6.704.785 4.349-.08 7.995-1.209 10.674-2.072 2.686-.876 4.54-1.493 5.486-.713z"/><path d="m533.668 599.455c-.452-2.45 5.139-5.087 10.416-11.397 2.616-3.127 5.114-7.129 6.277-11.799.632-2.337.906-4.902.889-7.533-.049-1.352-.126-2.549-.39-4.179l-.021-.146-.082-.339-.165-.679-.329-1.362-.335-1.37-.635-1.457-.636-1.463c-.222-.495-.394-.955-.691-1.507-.541-1.065-1.083-2.133-1.627-3.204-1.495-2.965-2.979-5.906-4.448-8.818-1.233-2.485-2.454-4.946-3.661-7.379 5.477 2.162 10.874 4.293 16.182 6.388l1.825.722c.581.223 1.27.519 1.739.668 1.022.356 2.04.71 3.052 1.062l.378.132c.122.037.209.016.315.027l.607.021 1.206.042.6.021.299.01.148.005.057-.006.458-.05c.677-.054 1.071-.157 1.524-.224.43-.122.887-.191 1.297-.35.858-.249 1.637-.615 2.368-1.006.753-.379 1.357-.874 1.984-1.345.556-.528 1.146-1.062 1.609-1.709.982-1.25 1.749-2.704 2.268-4.158 1.078-2.93 1.251-5.729 1.369-7.854.112-2.131.184-3.705 1.092-4.353.838-.611 2.571-.2 4.559 1.915 1.932 2.087 4.042 6.006 4.242 11.467.105 2.712-.299 5.791-1.54 8.979-.589 1.604-1.48 3.19-2.532 4.765-1.12 1.518-2.398 3.031-3.928 4.303-1.513 1.291-3.203 2.458-5.06 3.376-.916.497-1.893.868-2.879 1.262-.504.165-1.01.331-1.519.498-.545.185-.923.246-1.398.373l-.681.166-.085.021-.003.004-.005.008-.01.016-.03.058c-.016.035-.023.067-.025.094-.003.054.02.095.05.129.048.052.11.096.101.087l-.012-.002-.014.001-.009.002-.005.002-.003.001.02.193c.245 1.985.332 4.388.23 6.569-.257 4.426-1.201 8.654-2.802 12.417-1.574 3.779-3.722 7.077-6.098 9.699-2.37 2.643-4.932 4.689-7.431 6.218-5.018 3.073-9.698 4.061-12.887 4.052-3.225-.027-4.984-.953-5.185-2.084z"/><path d="m645.284 511.936c-.122-.722.623-1.571 1.862-2.597 1.226-1.088 2.936-2.468 4.681-4.466.436-.5.889-1.011 1.299-1.615.21-.294.442-.57.648-.881.198-.316.4-.638.606-.968l.314-.486c.09-.175.182-.351.274-.53.187-.347.377-.701.571-1.062.297-.771.71-1.495.945-2.325.597-1.596.968-3.351 1.079-5.122.038-.437.079-.881.043-1.385l-.021-.734-.012-.377-.114-.885c-.159-1.184-.292-2.405-.478-3.633-.2-1.235-.403-2.485-.607-3.748 1.435-.715 2.89-1.44 4.365-2.175.771-.361 1.488-.784 2.22-1.206l1.108-.634.129-.075.05-.041.1-.082.201-.163c1.08-.858 2.086-1.81 3.015-2.891 1.848-2.154 3.355-4.741 4.23-7.518.873-2.742 1.136-5.789.703-8.894-.429-3.089-1.56-6.185-3.344-8.76-1.082-1.605-2.753-3.388-4.766-5.495-1.978-2.094-4.304-4.528-6.383-7.737-1.03-1.625-1.967-3.454-2.669-5.436-.707-2-1.087-4.116-1.23-6.057-.26-3.918.341-7.156.868-9.825.555-2.695 1.093-4.89 1.378-6.745.145-.922.219-1.733.254-2.489.006-.771-.003-1.551-.113-2.321-.36-3.102-1.667-6.016-3.334-8.286-1.675-2.271-3.759-3.926-5.93-5.129-2.167-1.183-4.319-1.889-6.171-2.365-3.715-.921-6.259-1.004-6.663-2.184-.19-.549.187-1.312 1.24-2.163 1.048-.854 2.797-1.755 5.264-2.337 2.459-.562 5.647-.787 9.331-.073 1.835.366 3.785.976 5.768 1.915 1.984.939 3.988 2.226 5.848 3.848 3.698 3.252 6.934 7.867 8.545 13.658.419 1.44.69 2.961.877 4.528.161 1.588.195 3.166.135 4.655-.121 2.97-.539 5.673-.805 8.018-.284 2.36-.384 4.365-.156 5.786.121.716.266 1.271.512 1.832.261.571.607 1.194 1.095 1.897 1.011 1.424 2.607 3.109 4.622 5.129 1.972 2.013 4.411 4.405 6.66 7.677 6.916 10.153 7.862 22.806 3.788 33.006-2.015 5.059-5.095 9.315-8.664 12.652-1.784 1.667-3.725 3.106-5.703 4.297l-.37.224-.184.111-.092.056c-.022.012-.014.005-.023.008l-.114.018-.248.04c-.197.028-.391.055-.583.082-.065.193-.136.425-.249.699l-.038.104-.091.581c-.064.39-.127.778-.19 1.163-.071.387-.115.759-.212 1.147-.103.388-.206.774-.308 1.156-.823 3.054-2.081 5.724-3.582 7.957-.691 1.154-1.563 2.127-2.323 3.096-.428.446-.848.884-1.261 1.314-.207.21-.412.418-.615.625-.221.189-.439.377-.655.563-.434.362-.858.717-1.274 1.064-.426.332-.878.619-1.301.91-.834.597-1.702 1.064-2.529 1.479-3.32 1.66-6.219 2.09-8.149 1.998-1.959-.157-2.96-.704-3.074-1.398z"/><ellipse cx="1636.335" cy="938.714" rx="90.522" ry="5.153" transform="matrix(.0252 -.9997 .9997 .0252 656.6279 2550.8396)"/><ellipse cx="1627.628" cy="1103.702" rx="38.552" ry="5.153" transform="matrix(.048 -.9988 .9988 .048 447.1119 2676.5066)"/><ellipse cx="1671.413" cy="1010.773" rx="113.632" ry="5.153" transform="matrix(.0535 -.9986 .9986 .0535 572.6334 2625.6924)"/><ellipse cx="1713.612" cy="1069.697" rx="5.153" ry="69.581" transform="matrix(.9994 -.036 .036 .9994 -37.3537 62.3059)"/><ellipse cx="1705.263" cy="906.205" rx="5.153" ry="27.003" transform="matrix(.9996 -.0282 .0282 .9996 -24.8606 48.4161)"/><ellipse cx="1750.413" cy="976.076" rx="5.153" ry="64.381" transform="matrix(.9944 -.1052 .1052 .9944 -92.9896 189.6049)"/><ellipse cx="1760.715" cy="1113.205" rx="5.153" ry="29.21" transform="matrix(.9928 -.12 .12 .9928 -120.8209 219.2446)"/><ellipse cx="470.1" cy="875.179" rx="4.294" ry="42.997" transform="matrix(.9999 -.0124 .0124 .9999 -10.8577 5.9196)"/><ellipse cx="472.222" cy="996.191" rx="47.002" ry="4.294" transform="matrix(.0063 -1 1 .0063 -526.9351 1462.105)"/><ellipse cx="498.796" cy="937.209" rx="4.294" ry="70.016" transform="matrix(.9996 -.0269 .0269 .9996 -25.0633 13.7754)"/><ellipse cx="525.667" cy="1029.664" rx="4.294" ry="35.625" transform="matrix(.9971 -.0765 .0765 .9971 -77.2168 43.2235)"/><ellipse cx="535.389" cy="906.145" rx="4.294" ry="64.235" transform="matrix(.9968 -.0802 .0802 .9968 -70.9733 45.8748)"/><ellipse cx="553.782" cy="1024.2" rx="4.294" ry="16.193" transform="matrix(.9867 -.1626 .1626 .9867 -159.1543 103.6665)"/></g></svg>