<svg enable-background="new 0 0 1339.681 930.994" height="931" viewBox="0 0 1339.681 930.994" width="1340" xmlns="http://www.w3.org/2000/svg"><path d="m1262.257 898.953c1.111-20.831 1.173-39.563 2.349-59.456.304-5.138-.574-11.043-.417-15.492.044-1.251-1.485-3.961-1.533-5.286-.049-1.371 3.011-2.306 2.998-3.445-.155-13.264-2.736-26.373-1.695-40.063 1.282-16.865.762-32.18-.858-49.186-1.175-12.337.565-26.448.243-39.068-.146-5.707 1.163-12.579.454-18.254-.687-5.499-3.011-9.632-3.37-15.257-.406-6.357 3.625-12.609 3.133-18.942-.331-4.259-3.422-7.823-3.65-11.603-.339-5.619 2.683-7.825 1.367-14.436-.809-4.067-3.745-7.146-3.642-12.071.184-8.814 3.154-17.326 1.551-26.349-.909-5.115-1.005-7.261-1.401-12.285-.43-5.441-1.987-6.913-3.324-11.744-2.289-8.269-.179-18.075.55-25.928.761-8.196-2.417-18.223-4.172-26.031-1.021-4.542-1.32-11.326-2.078-16.352-.856-5.672.613-9.283.386-14.387-.552-12.434-5.809-24.296-5.956-36.943-.253-21.739-2.971-41.438-8.292-61.03-2.928-10.779 1.357-22.612-1.048-33.606-3.187-14.568-8.584-29.843-8.785-44.729-.272-20.236-5.871-40.04-9.106-61.251-2.864-18.774-8.791-35.465-11.454-55.864-5.839-44.714-24.094-90.554-41.319-131.392-2.284-5.416-5.564-7.71-8.948-12.219-2.488-3.315-3.246-6.383-5.236-9.588-5.441-8.764-16.409-14.62-26.06-16.211-12.699-2.093-23.884 2.771-33.176 10.607-3.169 2.673-8.463 5.979-10.743 9.382-3.071 4.584-3.032 9.225-6.874 14.152-5.657 7.254-11.542 12.357-16.169 21.13-4.392 8.328-6.106 13.036-11.91 20.842-6.612 8.893-9.055 18.142-13.043 27.787-2.415 5.84-6.688 11.313-10.057 16.581-2.987 4.671-3.646 10.461-5.799 14.4-1.895 3.468-6.99 6.286-8.599 10.084-1.409 3.327-1.898 9.237-3.06 12.48-3.404 9.503-11.606 17.184-14.533 27.101-5.227 17.707-13.995 34.742-23.175 50.758-8.759 15.282-11.105 33.063-19.755 46.027-6.989 10.474-9.901 27.084-14.532 39.638-4.585 12.43-12.603 22.816-17.342 34.921-1.437 3.67-.912 5.987-2.471 9.157-2.848 5.79-5.608 7.858-7.334 15.655-2.636 11.906-8.518 26.391-13.755 37.306-4.253 8.866-9.855 15.244-13.484 25.263-3.638 10.046-4.55 21.589-10.348 30.084-4.663 6.832-7.584 11.947-10.258 21.034-2.74 9.311-8.529 16.921-11.395 27.212-4.495 16.137-10.221 36.179-18.392 51.058-1.536 2.797-4.191 3.519-5.804 6.458-.333.607.24 5.675-.053 7.064-1.767 8.369-9.349 14.68-12.435 22.868-2.031 5.388-.4 10.815-2.999 16.364-2.101 4.485-5.029 7.233-6.54 12.186-3.413 11.189-6.555 22.219-10.731 33.123-4.8 12.534-14.596 20.967-17.27 34.805-1.007 5.21-.086 5.572-1.878 9.793-1.852 4.363-4.603 8.067-6.295 13.347-5.101 15.908-12.856 32.957-19.124 48.467-3.338 8.26-8.46 17.136-10.549 26.201-2.208 9.578-6.246 16.236-8.758 26.282-1.862 7.446-4.203 15.046-7.564 22.019-1.753 3.637-10.154 15.7-8.322 19.517 2.434 5.07 16.074 4.693 20.715 4.295 10.209-.875 20.793-1.92 31.863-1.153 12.576.871 24.458 2.099 36.788 2.363 9.345.2 18.273 3.205 27.682 3.916 12.09.915 27.208 2.207 38.684.562 1.322-.189 2.692-2.804 4.207-2.843 4.444-.114 5.916 2.929 9.684 3.514 6.174.958 9.943-1.208 15.941-1.508 6.168-.308 13.763 3.03 19.944 3.161 6.693.142 13.249-2.603 19.762-1.938 3.905.399 7.286 2.827 11.555 3.166 3.297.262 7.754-1.523 10.088-1.256 4.215.483 6.819 1.612 10.955 1.96 4.316.364 10.719-.405 15.887.051 11.835 1.046 22.763-.909 34.426-.277 3.864.209 12.643.448 15.858 1.179 3.251.74 6.902 2.39 10.248 2.937 6.447 1.055 15.198-.678 21.141-.509 9.241.262 15.966-.017 25.778-.517 6.205-.317 12.147 1.725 18.349 1.82 3.652.056 6.62-1.492 10.468-.997 1.797.231 3.316 2.831 5.084 3.017 10.926 1.152 22.808-2.173 33.597-.226 9.826 1.774 20.32 2.766 30.326 2.92 11.642.179 23.439-1.344 35.3-1.055 13.187.328 26.25 4.156 39.509 4.733z" fill="#55b8ca"/><path d="m755.073 844.173c-1.485-6.894-4.925-13.528-6.122-20.374-1.079-6.173-.15-12.432-2.04-18.518-2.485-8.006-2.742-15.636-4.86-23.972-.343-1.349-2.772-6.091-2.854-7.094-.333-4.063 1.539-7.495 1.106-11.85-.495-4.982-3.287-5.552-4.076-9.45-.412-2.034-.108-6.699-.427-7.949-.978-3.828-4.149-10.023-4.891-14.347-.442-2.577 2.072-6.794 1.678-10.212-.688-5.969-4.237-12.74-5.621-18.68-1.307-5.611-4.949-11.698-5.807-17.114-.913-5.759 3.084-10.643.841-17.419-.788-2.379-3.953-2.924-4.728-4.944-1.127-2.939.031-5.385-.411-8.245-.457-2.96-.353-7.8-1.095-10.388-1.175-4.1-4.251-7.405-5.235-11.701-1.633-7.13.395-15.435-.63-22.223-1.11-7.355-4.407-12.057-6.627-18.967-.46-1.433 1.769-5.411 1.223-7.567-.341-1.349-4.608-2.162-5.145-3.82-1.363-4.212-.215-11.418-.961-16.068-1.179-7.348-3.426-14.504-5.097-21.569-1.604-6.782-2.559-16.494-4.246-23.594-1.176-4.952-4.265-9.395-5.716-14.772-.453-1.68 2.263-5.186 1.965-7.306-.452-3.222-3.636-3.809-4.116-7.522-.472-3.652.65-7.391.009-10.775-.794-4.198-4.062-8.206-4.424-13.776-.433-6.655-2.087-11.08-3.334-16.327-1.154-4.857-1.175-9.821-2.755-15.982-1.253-4.886-2.299-10.012-3.211-14.192-.578-2.652-3.554-5.528-3.787-7.884-.538-5.425-1.422-10.355-2.24-14.975-1.182-6.672-.352-14.245-2.858-21.279-2.132-5.982-4.818-9.54-6.013-16.24-.663-3.714-.285-8.742-1.131-12.024-1.736-6.736-6.158-11.704-7.299-19.01-1.05-6.726-.865-14.998-2.845-21.417-1.315-4.265-3.494-6.295-4.756-10.958-1.812-6.696-2.982-13.19-5.767-19.911-2.659-6.417-5.772-12.501-7.919-19.096-2.273-6.983-1.992-14.121-3.536-20.784-1.578-6.814-10.839-26.382-16.827-30.067-12.137-7.468-22.848 17.292-28.456 25.471-8.113 11.833-14.475 25.111-19.785 38.115-3.965 9.711-9.2 16.163-12.003 26.461-7.018 25.782-22.365 46.98-29.453 73.301-1.873 6.954-4.186 10.595-7.315 16.01-3.369 5.832-3.761 9.314-5.496 16.06-3.238 12.588-8.756 22.115-13.367 34.047-4.265 11.034-4.572 25.17-10.73 34.936-5.064 8.032-8.033 13.006-10.392 23.81-1.07 4.9-2.585 8.949-4.447 13.253-2.145 4.958-3.234 10.836-5.311 15.99-2.237 5.549-5.478 10.202-7.939 15.515-3.212 6.935-5.241 14.304-7.342 21.604-3.539 12.299-6.362 25.201-12.388 36.586-5.982 11.302-6.02 22.058-11.313 34.038-1.085 2.456-3.889 2.33-4.697 4.766-1.139 3.432-.455 7.161-1.285 10.832-1.731 7.658-5.931 17.565-9.16 24.797-6.527 14.619-11.461 27.975-19.276 42.035-1.769 3.183-3.937 6.273-4.498 9.961-.469 3.083 1.568 6.574.863 9.393-1.448 5.788-7.034 13.843-8.805 18.984-3.613 10.484-8.681 23.748-12.039 35.623-1.226 4.336-3.452 8.598-5.356 12.847-3.022 6.744-4.351 12.778-6.883 19.477-3.046 8.058-7.325 14.98-9.714 23.944-2.478 9.297-7.764 16.552-11.075 25.295 13.407-.727 25.855-3.031 39.257-2.951 8.445.05 15.3 2.862 23.221 2.249 4.187-.324 8-2.747 12.865-2.705 1.569.014 5.785 1.253 7.887 1.478 9.904 1.058 20.563.997 30.606 1.756 17.707 1.338 37.185 3.651 53.651 3.72 8.641.036 20.095.336 28.801.358 8.491.022 16.824 1.307 27.14.95 16.007-.555 31.443 1.147 45.09.716 8.119-.256 17.487-2.115 26.135-3.686 12.515-2.274 24.543-3.224 36.895-6.535 19.352-5.187 38.358-9.066 58.138-13.265 6.521-1.384 13.486-3.544 19.751-5.122 3.396-.856 6.57-2.373 10.592-2.301 3.529.06 7.194 2.713 10.218 2.549z" fill="#f2bb1c"/><path d="m429.866 856.389c-.24-2.268 1.582-4.084 1.147-6.342-.393-2.041-2.118-2.688-2.745-4.373-2.142-5.761 2.039-10.873 1.01-16.645-.641-3.597-3.744-4.8-4.957-7.845-1.099-2.758.293-5.042.692-7.696.842-5.604-2.478-10.036-2.654-15.855-.182-6.013.894-10.195-1.627-15.461-2.618-5.467-2.68-9.549-2.89-15.723-.099-2.903-1.024-5.668-1.17-8.487-.124-2.403 1.131-4.847.867-7.14-.371-3.216-2.294-5.295-2.212-8.563.094-3.753 1.661-4.601.2-8.731-.777-2.198-2.639-3.83-2.771-6.284-.127-2.357 1.456-3.396 1.889-5.676.923-4.855-1.052-13.86-1.724-18.878-.674-5.033-5.482-8.961-4.32-13.98.52-2.245 2.368-2.801 2.383-5.393.017-3.025-2.873-5.985-3.217-9.162-.326-3.012 1.081-5.597.031-8.524-1.114-3.105-3.107-3.831-3.714-7.37-.531-3.096-.01-5.969-.895-9.124-1.029-3.672-3.286-6.844-3.087-10.794.132-2.611 1.625-4.956 1.427-7.659-.254-3.475-2.53-6.26-3.74-9.398-2.843-7.371.867-13.819-.257-21.171-.476-3.115-2.213-4.989-3.195-7.867-1.013-2.971-.824-6.108-1.76-9.078-2.193-6.956-3.314-12.195-3.788-19.643-.473-7.426.513-15.418-1.22-22.695-1.55-6.507-6.429-11.42-8.172-17.832-1.624-5.976-.214-12.242-1.606-18.204-1.622-6.945-4.671-11.141-4.722-18.368-.038-5.396-2.446-9.837-3.486-15.237-.659-3.422-1.655-5.177-2.794-8.088-1.19-3.044-.032-6.352-1.748-9.191-.89-1.473-3.265-1.643-4.115-3.709-.704-1.708.593-4.078.104-5.832-1.176-4.217-5.862-8.254-8.05-12.235-1.121-2.041-3.539-8.687-6.642-8.214-1.632.249-7.519 8.964-8.429 10.086-4.53 5.58-5.97 12.648-8.548 19.23-2.16 5.516-5.644 10.041-7.577 15.498-1.902 5.368-5.587 9.408-8.164 14.633-2.831 5.74-2.526 12.621-5.718 17.99-1.722 2.897-4.283 4.247-5.316 7.687-.662 2.207.24 4.451-.79 6.61-2.716 5.693-7.167 5.556-8.002 12.481-.411 3.412-.232 3.342-2.446 6.04-1.827 2.227-3.313 3.243-4.198 6.276-.879 3.012-.259 5.939-1.941 8.776-1.052 1.775-2.987 2.7-3.963 4.496-1.542 2.837-.283 6.372-1.532 9.161-1.099 2.453-2.407 2.726-3.957 4.67-3.926 4.922-3.512 11.676-5.571 17.528-1.237 3.515-2.89 6.917-5.165 9.888-1.579 2.062-4.5 3.843-5.341 6.396-.983 2.984.665 5.909-.202 8.913-.832 2.883-3.241 4.025-4.748 6.386-2.199 3.445-1.296 6.05-2.792 9.71-.709 1.735-2.513 2.943-3.222 4.743-.77 1.956-.161 4.238-1.253 6.061-2.695 4.499-6.214 5.687-7.969 11.484-.796 2.631-.479 4.686-.833 7.285-.518 3.808-2.113 5.949-4.052 9.276-1.821 3.124-4.73 6.722-5.787 10.047-.556 1.751.119 3.757-.65 5.525-.903 2.074-3.143 3.581-4.108 5.814-.825 1.908-.598 3.712-1.853 5.655-1.486 2.3-3.763 3.347-5.085 6.006-3.11 6.255-.726 12.913-3.672 19.019-2.235 4.632-4.572 9.154-6.752 13.801-1.002 2.136-2.271 3.812-3.121 6.104-.718 1.938-.496 3.606-1.602 5.424-.668 1.099-2.688 1.556-3.24 2.613-1.403 2.687-.47 4.939-1.303 7.678-.784 2.577-2.464 4.017-4.063 6.067-4.33 5.554-1.951 9.594-4.368 15.209-1.08 2.509-3.322 3.597-4.073 6.509-.64 2.482.269 4.401-1.079 6.9-2.799 5.187-7.27 4.83-7.504 10.747-.159 4.022 1.833 2.685-.633 6.473-1.472 2.261-3.39 3.514-4.583 6.21-1.419 3.209-1.182 6.584-2.269 9.785-1.356 3.992-3.479 4.103-6.01 7.072-3.601 4.223-3.563 9.68-5.213 14.712-1.034 3.153-2.564 5.075-4.3 7.778-2.7 4.204-1.911 4.675-2.158 9.432-.317 6.106-4.884 7.572-7.534 12.855-2.592 5.168-.467 10.129-3.371 14.982-1.889 3.158-5.462 5.931-1.841 9.227 2.643 2.405 12.576 2.467 15.989 2.595 6.65.249 11.615.888 18.231 2.518 8.164 2.011 14.635-1.247 22.626-1.396 4.554-.085 8.656 3.601 12.837 3.173 2.578-.264 4.936-2.907 7.559-3.33 3.475-.561 3.86.679 6.756 1.681 5.177 1.791 9.278.109 14.397-1.478 6.949-2.154 12.287.522 19.075-.462 4.004-.581 8.537-1.809 12.317-2.856 3.01-.833 4.524-1.06 7.699-.969 3.17.09 5.622-1.312 8.631-1.351 2.07-.027 4.543 2.001 6.579 1.417 1.736-.498 2.024-2.942 3.454-3.495 3.67-1.42 9.03 2.746 13.812 2.236 4.852-.518 8.971-5.808 12.974-5.108 1.52.266 2.45 2.663 4.193 2.999 3.452.665 6.177-2.462 9.11-3.493 5.415-1.903 8.462 1.548 13.892 1.305 3.367-.151 6.434-1.656 9.696-2.297 4.012-.788 7.745-.019 11.765-.083 5.15-.082 10.39-3.853 15.262-3.323 4.155.452 7.325 2.965 11.985 2.729 6.867-.348 5.516-1.743 7.778-6.89 1.452-3.302 5.807-7.339 8.406-10.07 3.151-3.31 4.063-4.664 6.139-8.693 2.294-4.452 5.209-5.915 10.267-5.84z" fill="#55b8ca"/><path d="m1010.713 836.776c.651-25.374 3.829-49.429 4.093-75.049.154-14.977 1.473-29.309 3.161-44.089 1.67-14.621-.307-29.524 1.869-44.178.881-5.936 3.303-11.632 3.631-17.916.156-2.984-1.875-4.965-1.442-8.042.345-2.452 2.753-4.711 3.328-7.318 2.068-9.388-1.095-19.833-.066-28.812 1.352-11.795 5.223-22.366 5.854-34.165.231-4.319-2.095-10.59-1.444-14.312.698-3.984 3.544-6.786 4.498-10.531.202-.792-.584-7.771-.603-8.397-.131-4.419.14-11.354.998-15.882 1.753-9.248 3.272-16.949 4.822-26.057 1.127-6.625 2.355-12.978 2.79-19.726.161-2.493-1.907-4.257-1.726-6.668.158-2.111 2.971-3.362 2.959-4.822-.091-11.39 2.816-22.268 3.144-33.98.319-11.408 4.292-21.132 6.16-31.873 2.422-13.923 2.7-30.465 4.197-42.813 1.031-8.505 1.724-18.009 3.928-27.241 1.72-7.206 3.371-12.887 4.608-20.229 1.414-8.392.719-13.841 1.143-21.963.805-15.434 8.932-31.158 9.675-46.803.176-3.704-2.074-4.949-1.229-9.413.683-3.608 5.004-6.327 6.216-10.103.755-2.353 1.267-10.942 1.388-13.174.387-7.158 1.97-11.182 3.925-18.264 2.295-8.315-.188-16.819 2.592-25.181 1.172-3.524 4.246-12.988 9.199-12.369.27.034 7.59 8.429 7.588 8.454-.974 13.088-3.989 25.171-6.205 37.461-1.373 7.612-1.1 15.744-1.612 23.389-.168 2.516 2.346 3.431 1.807 6.706-.354 2.151-3.615 4.276-4.151 6.731-2.098 9.596 2.188 18.959.424 29.047-1.013 5.791-4.29 11.083-4.984 16.832-.227 1.883 2.721 4.348 2.462 6.332-.411 3.149-3.559 4.625-3.896 7.925-1.222 11.946-.074 24.057-1.487 36.25-1.221 10.539-3.067 21.123-4.17 31.395-.791 7.362-.535 14.291-2.177 21.799-2.502 11.438-1.326 23.486-4.858 35.149-2.044 6.75-.442 9.921-.835 15.041-.384 5.008-1.514 7.243-3.339 13.167-3.767 12.233 2.324 20-1.263 32.495-3.681 12.825-2.982 23.377-4.192 36.469-.707 7.654-3.978 14.611-4.455 22.297-.353 5.681 2.001 11.973 1.225 17.518-.356 2.544-3.62 2.994-3.948 5.083-.345 2.201.241 5.527-.18 8.127-1.075 6.628-1.577 13.489-2.313 20.34-1.421 13.231-2.758 25.412-4.296 39.081-.69 6.133-.112 14.276-1.572 20.104-.75 2.992-3.55 5.589-4.049 8.625-.289 1.756 1.982 3.995 1.775 5.597-.655 5.061-4.312 10.538-4.73 15.663-.429 5.263 1.122 11.137.898 16.458-.518 12.312-3.269 25.655-4.076 38.454-.776 12.303-6.253 23.715-6.911 35.38-1.177 20.846-8.265 41.673-11.905 63.006 1.017.178 2.035.355 3.052.533-1.357 7.967-15.549 7.914-15.295-1.538z" fill="#e86166"/><path d="m1189.586 397.833c-4.236 4.987-6.087 10.314-11.129 15.134-3.857 3.686-7.689 7.147-11.326 11.1-1.895 2.06-6.651 8.443-8.666 9.984-2.326 1.779-6.391 1.87-8.341 3.687-3.722 3.468-4.624 7.862-7.865 11.201-2.615 2.693-5.827 2.516-8.248 4.274-4.119 2.991-7.454 7.331-11.454 10.986-5.172 4.725-15.144 12.952-21.099 16.884-3.983 2.631-8.292 2.528-12.023 5.421-2.5 1.939-3.903 5.597-6.611 7.728-2.298.845-4.634 1.568-7.008 2.17-2.369 1.794-4.406 3.909-6.111 6.348-3.839 1.994-4.322 3.159-8.771 3.008-7.895-.268-13.9-7.077-15.051-13.937-2.703-16.116 16.422-18.977 26.329-25.23 1.295-.818 5.968-3.125 7.671-3.959 2.4-1.176 6.223-2.738 8.601-4.005 8.848-4.716 17.167-8.814 25.205-15.082 14.594-11.38 29.574-22.715 44.785-34.829 7.324-5.834 13.659-16.987 20.814-20.475 4.744-2.314 19.326-1.104 10.298 9.592z" fill="#e86166"/><path d="m1048.869 553.003c23.041.425 46.267-3.22 65.684-15.069 8.494-5.183 16.378-10.486 22.814-17.344 2.464-2.625 5.579-8.644 8.248-10.808-.67.543 7.843-5.635 6.801-4.224 2.984-4.043-.098-6.947 6.05-4.44 4.921 2.007 5.194 9.632 4.107 13.671-1.862 6.919-11.098 13.218-14.726 17.85-10.364 13.232-27.769 25.389-44.388 32.691-2.242.985-5.946 2.68-8.181 3.837-2.02 2.032-4.27 3.765-6.751 5.199-1.193-.327-2.353-.745-3.48-1.255-10.303 3.095-26.018 8.381-35.008 9.331-7.834.828-16.665-4.396-16.566-15.647.034-3.87 2.797-10.321 6.029-12.604 3.939-2.78 6.377 2.481 9.367-1.188z" fill="#e86166"/><path d="m1014.19 882.141c-2.257-5.111-2.933-9.673-5.792-14.593-2.25-3.87-2.793-6.919-3.682-11.312-1.045-5.164-3.268-5.83-6.137-9.547-4.38-5.674-2.622-11.939-5.095-17.93-1.227-2.972-3.952-4.337-5.404-7.148-1.892-3.664-.448-7.733-1.865-11.48-2.209-5.841-6.454-10.181-8.008-16.541-1.376-5.628-1.623-11.387-3.859-16.818-1.995-4.847-4.646-8.766-5.919-13.896-1.579-6.367-2.885-11.375-6.783-16.808-3.156-4.399-4.873-6.064-4.004-11.603.976-6.223.471-7.515-4.129-12.447-3.95-4.235-4.421-4.596-3.63-9.911.827-5.559-1.207-3.706-3.609-8.615-1.764-3.605.454-7.92-1.209-11.539-.81-1.762-2.673-2.251-3.558-3.763-1.739-2.974-1.023-3.698-1.154-6.976-.379-9.458-5.869-15.169-7.933-24.015-1.271-5.446-2.373-10.009-3.001-15.526-.675-5.932-3.273-8.801-5.814-13.974-3.954-8.05-.951-15.652-4.677-23.293-2.224-4.561-5.571-7.831-5.156-12.944.139-1.715 1.646-3.028 1.637-5.009-.013-2.681-2.079-5.785-2.77-8.36-3.078-11.475-7.633-23.422-9.739-35.079-2.072-11.467-5.825-23.149-5.849-34.62-.013-6.155-3.447-7.343-4.979-12.852-1.006-3.62.991-6.311.058-9.837-.479-1.809-2.422-2.628-2.865-5.021-.246-1.327.773-3.074.753-4.322-.101-6.198-3.693-8.301-4.625-13.81-.76-4.486-1.222-7.852-2.909-12.407-1.865-5.035-2.416-10.322-3.591-15.536-1.24-5.502-5.463-10.426-5.955-15.925-.182-2.038.896-4.25 1.041-6.201.372-5.012-.978-5.366-3.249-8.965-4.773-7.565-7.612-17.035-10.361-25.496-1.451-4.467-1.721-8.106-5.104-11.887-5.522-6.171-7.408-2.724-11.272 2.307-2.335 3.04-6.058 6.166-7.894 9.477-2.125 3.832-1.374 8.084-3.682 11.807-.882 1.423-2.536 1.906-3.195 3.613-.594 1.54.425 3.509-.047 4.713-1.169 2.985-2.81 1.63-4.182 3.625-1.747 2.541-.729 2.584-1.238 5.04-1.221 5.889-1.908 8.201-6.026 13.221-3.176 3.871-5.204 7.901-7.252 12.497-2.18 4.893-3.563 9.383-4.442 14.637-1.158 6.924-4.785 9.792-7.862 15.767-3.58 6.95-4.777 15.032-8.306 21.939-2.732 5.347-2.482 11.551-5.199 17.217-2.607 5.439-4.513 11.48-8.185 16.285-2.71 3.545-5.292 5.231-6.331 9.553-1.283 5.335.32 6.743-3.46 11.031-3.047 3.456-3.121 2.917-3.626 7.864-.655 6.418-3.446 9.012-6.729 14.356-3.125 5.087-3.339 9.91-4.86 15.486-1.532 5.616-4.794 8.098-7.644 12.745-2.078 3.388-1.817 7.302-3.902 10.813-3.303 5.561-5.398 8.328-6.844 14.774-1.161 5.175-3.511 7.692-5.804 12.262-1.986 3.958-1.573 8.395-3.753 12.303-2.263 4.056-5.071 6.378-6.512 11.033-1.742 5.626-1.936 9.753-5.261 14.611-2.579 3.769-1.646 5.62-3.239 9.741-1.875 4.851-6.362 6.796-7.658 12.129-.523 2.15.815 3.122-.655 5.155-1.122 1.552-3.777.85-5.003 2.353-1.558 1.91-.308 4.657-1.047 6.799-1.058 3.066-3.11 5.227-3.963 8.457-1.598 6.049-3.218 10.748-6.704 16.172-2.924 4.55-4.165 10.891-7.453 15.033-1.046 1.318-3.29 1.408-3.898 3.151-.783 2.244 2.048 4 1.45 6.003-.812 2.717-2.453 1.682-3.697 3.743-1.698 2.815-.756 3.822-1.489 6.853-1.075 4.444-4.904 7.006-6.458 11.531-2.044 5.951-3.487 6.559-7.268 11.433-3.259 4.201-6.523 10.429-7.995 15.62-.635 2.24.08 4.616-.82 6.833-1.331 3.28-4.145 5.236-6.417 7.782-3.986 4.467-2.877 8.267-5.102 13.225-.791 1.762-2.782 2.38-3.541 4.182-1.134 2.692-.07 5.556-1.104 8.446-1.738 4.859-6.923 6.976-9.037 11.06-1.194 2.307-.189 4.304-.842 6.112-1.249 3.457-3.274 3.543-5.005 6.721 8.523.426 14.411.98 21.706 5.205 6.98 4.042 15.219 7.289 22.755 8.636 4.397.786 8.8 5.026 13.04 7.642 2.94 1.814 4.951 4.47 7.64 6.481 3.212 2.401 6.965 3.505 10.447 5.636 3.14 1.922 5.316 3.947 9.017 4.759 3.315.727 6.758-.088 9.794 1.801 2.57 1.599 2.583 3.797 5.884 4.793 3.417 1.03 8.866-.258 12.406-.449 6.865-.37 13.341-1.055 19.747 1.418 2.492.962 2.807 2.347 5.883 2.876 4.427.761 9.2-1.256 13.343-2.453 8.206-2.371 12.948-1.389 21.076-.539 4.349.455 6.289-.934 10.278-2.143 4.54-1.377 6.628-.226 11.1.161 9.357.81 18.511-3.653 27.367-5.436 6.098-1.228 12.377 2.045 18.813.174 2.747-.799 4.396-3.091 6.937-3.955 2.69-.915 5.17.259 7.866-.332 1.077-.236 1.582-2.16 2.622-2.477 2.244-.684 4.171-.351 6.394-.096.292.034 4.28 1.242 5.219 1.15 4.155-.405 1.728-1.785 4.871-2.902 5.474-1.945 11.638.448 18.293-1.715 3.149-1.023 5.904-2.215 9.203-2.682 4.406-.623 9.329-2.941 13.622-3.186 3.616-.206 6.111 3.344 9.252 2.967 3.232-.388 3.475-4.158 6.846-4.373 1.542-.098 1.839 1.671 3.038 1.814 3.15.376 4.245-.715 7.538-.969 4.154-.32 7.775 1.438 11.96.451 3.725-.878 5.633-2.759 9.517-2.715 4.97.056 9 2.965 14.196 1.873 1.512-.318 3.291-1.89 4.924-2.001 2.462-.168 4.489 1.645 6.92 1.405 3.511-.347 5.82-2.526 9.864-2.323z" fill="#e86166"/><path d="m749.744 910.118c6.395-10.783 12.399-21.752 19.529-31.886 3.208-4.559 4.5-10.11 7.018-15.046 2.669-5.23 7.738-7.731 8.18-13.107.513-6.23 2.054-8.1 6.547-12.973 3.909-4.24 5.32-9.046 8.193-13.918 6.772-11.486 10.297-23.924 16.581-35.712 3.019-5.664 4.62-11.817 7.912-17.349 3.709-6.232 5.036-9.632 6.894-16.527 1.433-5.319 4.624-8.45 7.028-13.085 2.415-4.654 3.147-9.251 6.336-13.847 3.092-4.456 5.684-7.349 6.246-12.794.278-2.69-.385-4.86 1.093-7.333 1.645-2.754 4.936-2.995 5.949-6.01.693-2.064-1.109-4.505-.649-6.814.493-2.471 2.47-4.342 3.914-6.285 4.149-5.582 4.309-11.167 7.333-17.052 1.229-2.392 2.614-3.702 3.295-6.407.657-2.608-.203-5.415 1.102-7.904 2.529-4.825 7.303-6.908 9.175-12.766 3.535-11.064 3.75-23.704 9.307-33.93 2.736-5.034 6.389-7.981 7.868-14.18 1.3-5.447-.165-10.709 2.269-15.831 1.045-2.199 2.504-3.508 3.32-5.966 1.01-3.04.475-6.282 2.546-9.028 1.2-1.59 3.967-1.866 4.695-3.906.867-2.432-1.77-5.06-1.014-7.749 1.257-4.47 5.026-8.792 6.466-13.332.805-2.537-.19-4.097-.07-6.5.194-3.886 1.594-5.247 3.712-8.434 3.161-4.757 1.434-8.791 3.326-14.047 1.978-5.494 3.888-9.885 5.295-15.538 1.293-5.193 5.904-6.582 7.667-11.558.924-2.608.521-5.277 2.01-7.779 1.616-2.715 4.213-4.397 5.756-7.465 1.383-2.749 3.355-11.174 6.826-12.174 2.75-.793 10.382 4.521 12.984 5.806 3.859 1.906 7.513 3.426 8.351 7.923.308 1.652-1.171 3.138-.509 4.906.861 2.296 4.343 3.787 5.799 5.923 3.217 4.721 5.277 11.436 6.581 16.912 1.644 6.904 5.058 13.167 6.689 20.049 1.176 4.961 2.567 6.861 4.491 11.278 1.219 2.798.553 5.704.898 8.681.452 3.911 2.514 5.484 3.87 8.822 1.714 4.219 2.095 9.7 3.539 14.222 1.664 5.209 1.164 10.875 2.328 16.251.42 1.943.515 4.406 1.623 6.128 1.242 1.93 3.501 1.903 4.176 4.342.467 1.687-1.232 3.686-1.349 5.477-.215 3.283 1.776 5.983 2.805 8.96 2.043 5.91.247 11.595 2.023 17.378 1.888 6.146 3.848 12.344 5.368 18.713 1.332 5.579.396 11.538 3.144 16.507 1.362 2.463 2.977 2.344 2.92 5.431-.049 2.672-2.198 3.706-1.717 6.862.358 2.349 2.656 4.304 3.089 6.791.452 2.597-.863 5.156-.433 7.697.926 5.468 5.019 8.736 5.325 15.012.327 6.722.407 13.257 2.21 19.834 1.759 6.415 4.143 10.057 3.695 17.132-.263 4.15-1.159 8.358.038 12.452.893 3.055 3.154 5.238 4.072 8.246 1.796 5.886.813 11.969 2.731 18.094 1.712 5.469.014 7.741-.765 13.082-.923 6.332 2.408 12.777 4.488 18.582 1.933 5.396.93 9.781.889 15.524-.049 6.902 3.127 12.788 3.212 19.65.034 2.74-.717 5.744.105 8.428.754 2.464 2.66 3.553 3.708 5.76 2.683 5.647-1.515 10.189.173 15.189 1.205 3.57 3.843 5.193 4.524 9.541.911 5.817-1.511 7.909-2.124 13.144-.393 3.357 2.918 7.902 1.218 11.095-2.725 5.121-7.911-.122-11.509.202-2.213.199-3.636 2.198-6.071 2.298-2.83.116-5.862-1.999-8.761-2.321-5.407-.6-14.156-.865-19.384.202-7.644 1.56-17.157 4-25.006 1.576-5.408-1.67-10.757-1.788-16.396-.78-4.328.774-7.213 3.652-11.77 3.153-2.754-.301-5.087-2.589-7.931-2.513-2.687.072-4.893 2.144-7.461 2.641-5.65 1.093-9.993-3-15.793-1.652-5.516 1.282-9.301 3.694-15.241 3.135-2.455-.231-4.383-1.223-6.691-1.65-4.219-.781-4.252.073-8.215 1.101-5.012 1.3-8.321-1.492-13.216-1.326-6.623.225-12.253 2.575-19.301 1.659-6.742-.876-12.672-2.182-19.458-1.067-7.425 1.22-13.906-1.211-21.243-.411-5.144.561-10.45 4.882-15.548 4.399-4.244-.402-6.919-4.374-11.402-4.247-4.814.136-8.111 5.034-12.923 4.935-4.149-.086-5.843-3.296-9.844-2.641-2.645.433-3.863 2.003-6.928 1.497-2.358-.39-4.479-2.44-6.905-2.54-4.339-.178-3.291 1.927-6.461 3.231-3.303 1.357-4.913-.565-8.366-.473z" fill="#f2bb1c"/><path d="m525.932 854.338c-4.097-11.14-3.353-22.822-3.199-34.18.052-3.821-.514-7.286-.531-10.109-.063-10.071 1.799-21.395 3.45-32.407 1.842-12.287 2.622-24.07 3.772-36.398.671-7.184 2.858-12.285 4.192-19.193.31-1.606-2.407-3.457-2.141-4.859.837-4.404 3.648-7.174 4.754-11.452.811-3.137-1.086-5.2-.348-8.142 2.101-8.372 2.881-17.636 4.989-27.112 4.325-19.44 7.909-38.194 11.214-56.913 1.223-6.926 4.766-13.626 5.781-20.677.509-3.535-1.639-6.552-.952-10.525.694-4.012 5.014-7.926 6.179-12.135 4.402-15.901 1.332-30.882 4.889-46.544 2.686-11.826 7.834-23.261 7.751-34.731-.097-13.436 2.48-21.918 5.091-33.791 3.417-15.534.798-33.312 3.059-48.768 1.101-7.529.924-18.158 3.544-25.039 1.15-3.019-3.845-5.485 1.373-6.727 2.208-.525 8.875 3.347 10.122 5.043 4.445 6.045-1.463 16.231-1.599 24.05-.211 12.174 3.781 22.179 2.191 34.353-.437 3.345-2.556 2.448-2.638 7.486-.049 3.068 2.005 6.748 1.997 10.092-.024 10.178-4.336 20.452-4.08 30.883.422 17.226-1.431 33.254-2.919 50.165-1.841 20.927-3.56 42.835-9.89 62.427-2.869 8.878.115 14.832-1.075 23.198-.825 5.799-4.915 5.155-6.093 9.739-.591 2.3.971 9.659.737 12.589-.898 11.241-3.513 24.236-5.388 35.735-1.864 11.432-5.559 22.6-7.215 33.771-.948 6.399-2.276 15.842-2.683 22.498-.253 4.132 2.146 7.698 1.804 11.692-.501 5.85-4.019 10.517-5.271 16.137-4.846 21.768-3.323 45.331-6.957 67.509-1.067 6.515-3.747 15.392-7.007 21.07-2.178 3.793-.044 6.846-5.859 7.983-2.929.571-10.038-3.992-11.044-6.718z" fill="#54b8cb"/><path d="m656.012 498.974c-4.922 2.784-10.67 4.266-15.676 6.968-2.854 1.541-6.989 2.721-9.384 4.94-1.529 1.417-.898 4.769-2.196 6.057-9.117 9.045-18.61 12.311-26.334 21.947-5.849 7.297-13.448 24.617-22.477 24.405-10.032-.235-19.771-12.781-12.25-21.673 1.274 1.054 2.548 2.109 3.822 3.165 3.337-3.925 4.973-6.465 8.802-10.154 4.205-4.05 8.106-8.473 12.243-12.588 7.613-7.574 15.678-13.092 24.334-20.028 7.418-5.944 15.344-12.569 24.744-15.877 3.643-1.282 12.888-2.846 15.922 1.456 1.158 1.642.971 9.957-1.55 11.382z" fill="#54b8cb"/><path d="m654.738 570.283c-7.456 9.074-17.447 16.069-26.416 23.854-10.181 8.838-18.814 20.508-29.505 27.889-1.889 1.304-4.669.462-6.071 1.435-1.287.893-5.045 4.45-6.065 5.072-4.02 2.451-7.17 2.465-10.71 4.142-5.314 2.519-9.053 8.862-15.363 6.266-1.314-.541-9.431-9.061-9.68-10.502-2.141-12.376 17.575-14.434 24.656-19.666 10.65-7.87 21.393-16.306 33.786-22.524 7.022-3.523 8.215-3.86 13.392-10.058 4.238-5.074 8.657-9.943 14.188-13.674 1.484-1.001 8.485-4.738 9.377-4.67 5.421.417 12.52 7.446 8.411 12.436z" fill="#54b8cb"/><path d="m512.872 573.004c4.294 13.976 7.848 26.863 15.147 38.789 3.193 5.218 7.967 10.89 11.629 16.111 3.33 4.747 6.406 12.362 9.732 16.364 5.131 6.173 19.214 10.932 20.899 20.419 1.859 10.468-15.787 16.254-21.559 10.424-.547-.555-2.764-7.242-4.65-9.336-4.465-4.955-9.414-8.152-13.232-13.905-7.028-10.589-17.369-23.322-21.899-34.959-1.937-4.975-1.616-8.72-3.932-13.992-2.859-6.508-3.46-12.158-5.635-18.747-1.879-5.693-6.854-7.457-1.324-13.072 3.715-3.772 12.994-4.055 14.824 1.904z" fill="#54b8cb"/><path d="m5.444 931.707c.713-1.95-1.232-2.321-2.231-3.32-2.283-2.378-6.487-4.73 1.028-8.297 2.141-1.022 3.954-3.228 5.821-5.054 1.783-1.745 3.513-2.926 6.023-3.6 2.788-.739 5.503-1.89 8.215-2.838 2.715-.949 4.899-3.307 7.571-4.378 2.668-1.07 5.887-.793 8.545-1.899 2.654-1.104 5.119-2.657 7.797-3.711 2.674-1.053 5.349-2.079 8.08-2.996 2.717-.913 5.498-1.559 8.303-2.253 2.7-.669 5.327-1.81 7.964-2.852 2.599-1.028 4.871-2.907 7.461-4 2.603-1.098 5.357-1.887 8.004-2.751 2.687-.877 5.519-1.182 8.306-1.506 2.825-.329 5.651-.836 8.445-1.552 2.743-.703 5.498-1.503 8.258-2.34 2.72-.825 5.472-1.586 8.254-2.315 2.749-.721 5.429-1.911 8.282-2.318 3.17-.458 6.161-1.561 9.29-2.432 3.083-.859 6.55-.535 9.632-1.533 3.063-.992 6.195-1.682 9.295-2.555 3.108-.874 6.128-1.619 9.311-2.116 2.683-.414 5.296-1.535 7.89-2.289 2.599-.756 5.046-2.041 7.613-2.879 2.583-.843 5.351-.915 7.96-1.578 2.624-.667 5.005-2.856 7.714-3.072 3.589-.287 6.772-1.626 10.117-2.918 3.304-1.276 6.857-1.48 10.663.246 2.655-2.545 5.583-4.155 8.727-4.861 3.214-.722 6.621-.833 9.974-1.077 3.357-.245 6.835-.098 9.952-1.329 2.472-.976 5.011-2.216 7.859-2.811 2.653-.554 5.332-1.802 8.158-2.18 2.743-.366 5.725.795 8.495.458 2.805-.342 5.576-.918 8.27-1.371 3.139-.535 6.351-.711 9.487-1.285 3.134-.573 6.271-1.129 9.405-1.699 3.135-.571 6.018-2.584 9.159-3.11 3.144-.527 6.491.234 9.644-.207 2.864-.439 5.751-.764 8.617-1.205 2.864-.44 5.5-2.41 8.37-2.832 2.865-.421 5.86.014 8.737-.369 2.87-.382 5.862.276 8.747-.048 2.875-.323 5.624-1.901 8.519-2.147 3.045-.257 6.15.121 9.194-.178 3.042-.299 5.949-1.897 8.99-2.222 3.04-.325 6.244.851 9.282.514 3.04-.337 6.065-.798 9.102-1.131 3.042-.333 6.104-.45 9.142-.764 3.31-.369 6.578-1.033 9.897-1.291s6.651-.336 9.973-.583c3.318-.247 6.579-1.177 9.894-1.513 3.306-.335 6.512-1.344 9.809-1.866 2.898-.354 5.993 1.044 8.902.805 2.91-.239 5.786-.529 8.702-.652s5.804-1.048 8.723-1.055c2.918-.007 5.841-.007 8.759.102 2.678 0 5.428-1.689 8.188-2.195 2.582-.474 5.683 1.153 7.959 4.326 2.616-6.088 6.92-2.732 10.487-3.826 2.963-.893 6.08-.844 9.061-.999 3.02-.157 6.04.291 9.05.325 3.031.035 6.085-.055 9.077-.407 2.948-.347 5.827-1.199 8.75-1.389 2.947-.191 5.864-.915 8.8-1.053 2.94-.138 5.874-.053 8.817-.244 2.827-.19 5.67-.393 8.497-.51 2.83-.117 5.686.319 8.516.258 2.831-.061 5.661-.617 8.491-.639 2.831-.022 5.668.017 8.498.017 2.831 0 5.661 1.29 8.492 1.294 2.831.005 5.662-.794 8.493-.802 2.837 0 5.674.021 8.514-.006 2.838-.027 5.679.141 8.518.101 2.838-.041 5.669-.621 8.508-.661s5.68-.083 8.518-.108c2.839-.025 5.681 1.274 8.519 1.278 2.839.003 5.692-1.597 8.529-1.551 2.839.046 5.698-.004 8.533.098 2.837.102 5.618 1.522 8.451 1.694 3.24.199 6.519-.293 9.764-.141 3.242.152 6.506-.237 9.752-.106 3.243.131 6.452 1.134 9.698 1.269 3.243.135 6.503-.042 9.747.121 3.242.163 6.423 1.324 9.664 1.54 3.238.215 6.432.529 9.668.821 3.311.485 6.739-.106 10.074.119 3.336.225 6.67.847 10.014.813 3.342-.035 6.715.115 10.048-.18 3.075-.059 6.089-.331 9.146-.046s6.088.722 9.099 1.352c3.4.269 6.905-.622 10.323-.408 3.417.214 6.745 1.969 10.153 2.147 3.433.179 6.92-.995 10.314-.836 3.588.169 7.299.633 10.967 1.126 3.576.481 7.081 1.7 10.791.902 2.844-1.146 6.157-.669 8.44 1.376 1.474 1.57 3.644 1.288 5.594.813 2.576-.732 5.164-1.031 7.8-1.102 2.656-.072 5.471-.867 8.061-.279 2.571.583 4.739 2.561 7.122 3.782 3.425 1.807 6.595-1.254 9.686-1.206 3.659 0 7.356.212 10.968.712 3.571.494 6.888.772 10.601-.079.476 0 1.408-.429 1.741-.286 2.596 1.093 4.996 2.439 7.691 2.898 2.714.462 5.488.401 8.256.538 2.75.136 5.521.033 8.277.161 2.761.128 5.456.954 8.178 1.388 2.698.431 5.118 1.68 7.733 2.719 4.124 1.251 8.74.609 13.021.11 3.72-.112 7.32 1.168 10.989 1.701 3.668.533 7.384.616 10.918 1.783 2.222.591 4.562.424 6.813.708 2.279.288 4.359 1.712 6.584 2.119 2.838.511 5.722.805 8.569 1.336 2.841.53 5.905-.151 8.749.356 2.851.508 5.478 2.342 8.327 2.784 2.867.445 5.922-.553 8.78-.218 2.859.332 5.714.801 8.561 1.198 2.851.397 5.713.784 8.553 1.233 2.842.449 5.616 1.341 8.451 1.829 2.835.487 5.601 1.37 8.431 1.883 2.831.513 5.751.539 8.578 1.063 2.829.525 5.659 1.041 8.487 1.565 2.829.524 5.611 1.292 8.441 1.801 2.831.51 5.787.28 8.622.762 3.048.524 6.079 1.383 9.11 2.069 3.02.683 5.814 2.35 8.821 3.123 3.003.771 5.885 2.004 8.881 2.792 3.005.791 6.195.861 9.196 1.597 3.023.741 6.032 1.515 9.056 2.128 3.243.656 6.651.574 9.946 1.172 3.269.594 6.414 1.941 9.691 2.541 3.282.601 6.742.307 9.991.978 3.28.677 6.565 1.415 9.769 2.228 2.783.712 5.168 3.026 7.96 3.717 2.791.691 5.817.434 8.614 1.102 2.799.669 5.679.976 8.48 1.618 2.806.643 5.333 2.53 8.138 3.143 2.814.616 5.999-.527 8.808.056 3.202.669 6.132 2.572 9.249 3.62 3.105 1.043 6.299 1.843 9.412 2.856 3.124 1.017 6.187 2.215 9.412 2.794 3.176.57 6.57 1.723 9.934 1.476 1.674-.48 3.627-1.813 5.206-1.086 2.674 1.72 5.447 2.701 8.355 3.648 2.941.958 5.648 2.749 8.695 3.343 3.042.593 6.161.808 9.176 1.465 3.035.662 5.96 1.6 8.834 2.761 2.87 1.16 6.055 1.423 9.057 2.274 2.995.849 5.877 2.115 8.822 3.073 2.966.964 5.755 2.277 8.488 3.772 2.653 1.451 5.971 2.817 8.233 5.161.707 2.146.647 2.834-.104 4.965-1.474-.333-4.159-.672-4.539.66-1.665 5.993-6.387 5.265-10.715 5.265-3.151 0-6.309-.735-9.462-.708-3.151.027-6.297.828-9.449.859-3.152.03-6.302.765-9.454.776-3.153.011-6.313-.285-9.464-.315-3.153-.03-6.267-1.571-9.416-1.666-2.836-.109-5.705.1-8.538.109-2.835.009-5.65 1.361-8.484 1.444-2.833.083-5.72-1.327-8.553-1.215-2.832.112-5.628 1.142-8.462 1.239-2.832.097-5.672-.307-8.508-.268-2.832.039-5.671 1.057-8.508.992-2.828-.064-5.658-.559-8.493-.768-2.983-.223-5.959-.546-8.951-.651-2.988-.106-5.979-.5-8.974-.521-2.99-.021-5.984.382-8.979.414-2.99.032-5.999-.876-8.992-.823-2.991.053-5.967 1.002-8.959 1.044-2.993.042-5.984-.266-8.975-.266-2.763 0-5.589-.152-8.369.022-2.787.174-5.503 1.728-8.254 1.823-2.817.097-5.563-1.258-8.287-1.516-2.774-.256-5.637 1.004-8.404.889-2.779-.115-5.516-1.924-8.289-1.94-2.778-.017-5.573.083-8.347.122-2.777.039-5.541.881-8.316.932-2.776.051-5.547.753-8.323.772-3.172 0-6.345-.558-9.517-.549s-6.341.348-9.511.384c-3.173.036-6.352-.405-9.521-.324-3.172.08-6.339.321-9.506.464-2.948.124-5.909-.325-8.87-.286-2.952.039-5.903 1.047-8.862 1.033-2.954-.015-5.913-.077-8.869-.117s-5.918.411-8.871.376c-2.959-.035-5.908-.67-8.858-.67-3.083-.061-6.155-.922-9.236-.967-3.083-.045-6.183 1.345-9.265 1.313-3.083-.033-6.154-1.158-9.237-1.181-3.083-.024-6.167.184-9.25.167-3.082-.018-6.161-.649-9.244-.664-3.082-.015-6.168.8-9.25.784s-6.167.539-9.252.518c-3.109 0-6.215-.93-9.324-.93s-6.218.458-9.327.458-6.218-1.304-9.327-1.304-6.218 1.839-9.327 1.839-6.218-.344-9.327-.344-6.218-.965-9.327-.965-6.218.958-9.327.958-6.218-.481-9.327-.481-6.218-.619-9.327-.619-6.218.028-9.327.028-6.218.534-9.327.534c-4.184 0-4.184-.681-8.367-.681-4.184 0-4.184.392-8.367.392-4.185 0-4.185 1.105-8.37 1.105-4.186 0-4.186-1.61-8.373-1.61-4.185 0-4.185.045-8.37.045-4.188 0-4.188.553-8.376.553s-4.188-.18-8.376-.18c-3.127 0-6.253-.167-9.381-.175-3.127-.008-6.255.33-9.383.317s-6.255-.017-9.382-.031-6.255.151-9.383.14c-3.127-.01-6.254-.203-9.382-.206-3.127-.003-6.253.786-9.381.794-3.127.008-6.258-.856-9.385-.833s-6.266-.59-9.393-.549c-2.854.048-5.695 1.005-8.549 1.068-2.854.064-5.709.038-8.563.097-2.854.058-5.712-.393-8.566-.361s-5.706 1.407-8.56 1.391-5.719-.266-8.573-.352c-3.172-.095-6.322-1.013-9.491-1.062-3.172-.049-6.347-.18-9.517-.19-3.172-.01-6.345.354-9.515.377-3.172.022-6.341.161-9.512.209s-6.355-.605-9.526-.539c-3.1.055-6.187.811-9.287.816s-6.204.381-9.304.352c-3.099-.029-6.186-1.082-9.286-1.129-3.099-.048-6.217 1.053-9.316 1.003s-6.183-1.171-9.283-1.208-6.205.272-9.304.264c-3.194 0-6.386-.322-9.578-.322s-6.384 1.439-9.575 1.439-6.382-1.079-9.573-1.079c-3.19 0-6.38.707-9.57.707s-6.38-.637-9.571-.637-6.381.266-9.573.266-6.384-.529-9.577-.529c-2.746 0-5.506 1.179-8.265 1.163-2.75-.016-5.494-1.646-8.249-1.667-2.754-.021-5.518 1.275-8.27 1.259-2.759-.016-5.511.087-8.26.087-2.761 0-5.513-.429-8.257-.403-2.765.026-5.491.482-8.23.546-2.802.181-5.639-.406-8.444-.287-2.805.12-5.591 1.176-8.398 1.234-2.807.059-5.634-1.113-8.442-1.115s-5.638 1.24-8.445 1.178c-2.807-.063-5.605-.931-8.41-1.055-2.894-.23-5.77-.723-8.661-.785-2.897-.062-5.782 1.051-8.677 1.092-2.897.042-5.824-1.492-8.718-1.412-2.896.08-5.765 1.221-8.659 1.274-2.896.053-5.791-.924-8.686-.964-2.894-.04-5.728-.527-8.621-.726-2.879-.198-5.77-.146-8.649-.566-3.579-.147-7.2.982-10.776 1.085-3.578.103-7.161-.094-10.724.258-2.712 0-5.443.454-8.155.398-2.711-.056-5.385-1.628-8.096-1.701s-5.439.413-8.15.363-5.429.192-8.14.205c-2.71.012-5.413.317-8.124.431-3.193.128-6.392.559-9.608.659-3.199.099-6.408.315-9.622.39-3.203.075-6.43-.625-9.642-.571-3.207.053-6.406 1.05-9.615 1.085-3.211.035-6.424.218-9.629.238-3.214.02-6.429-.471-9.631-.463-2.789.007-5.595-1.424-8.417-1.43-2.793-.006-5.596.075-8.413.059-2.797-.017-5.614 1.296-8.428 1.271-2.802-.025-5.594-1.498-8.405-1.53-2.806-.032-5.621.564-8.428.527-2.809-.037-5.615-.164-8.418-.204-2.813-.04-5.632 1.076-8.431 1.035-2.968 0-5.929.282-8.894.282-2.966 0-5.93-.267-8.894-.267s-5.928-1.129-8.892-1.129c-2.963 0-5.926.673-8.89.673s-5.943-.439-8.91-.439c-2.305.423-4.568 1.63-6.903 1.781s-4.845.219-7.185.095c-3.046-.666-5.973-2.084-9.044-2.265-3.078-.182-6.172.659-9.267.707-3.084.048-6.181-.229-9.273-.209-3.084.02-6.128-.768-9.21-1.029-2.738-.239-5.52 1.169-8.28 1.207-2.744.037-5.494-.498-8.249-.355-2.748.143-5.508.206-8.257.287-2.754.081-5.495-.442-8.241-.589-2.738-.147-5.569.302-8.289-.238-3.247-.64-6.177.313-9.306.769-3.15.46-6.415.002-9.636-.761-1.76-.428-2.568 1.846-2.282 3.986-2.085 2.535-3.952 1.525-6.73.399z" fill="#173948"/><g fill="#55b7ca"><path d="m777.01 861.313c-.666 2.093-1.046 4.138-3.282 4.756-3.163.656-6.121 2.078-8.609 4.138-1.57 1.57-2.14.333-3.282-.999-8.561-10.274-17.313-11.51-29.252-6.088-7.182 3.282-14.554 5.66-19.025 12.89-.951 1.57-3.234 2.901-4.186.999-1.665-3.377-5.232-6.183-3.805-10.844 1.37-5.094 4.685-9.446 9.227-12.129 6.997-3.972 14.707-6.526 22.688-7.515 8.818-.499 17.627 1.132 25.684 4.756 5.232 1.855 6.754 8.942 13.223 8.324.267.547.471 1.123.619 1.712z"/><path d="m456.574 853.418c11.425-1.584 22.973 1.888 31.63 9.513 1.712 1.379 4.756 2.901 3.567 5.803-1.189 2.901-3.662 2.568-6.183 3.092-6.754 1.427-11.748-1.95-17.598-4.233-5.584-1.964-11.739-1.517-16.98 1.237-6.231 4.043-14.269 5.803-18.502 13.128-1.142 2.045-3.092.951-4.138-.761-3.567-5.199-2.25-12.305 2.949-15.872.571-.39 1.175-.732 1.807-1.013.813-.509 1.474-1.232 1.903-2.093 4.946-8.326 13.459-7.993 21.545-8.801z"/><path d="m360.829 863.168c.476 1.76 0 2.473-1.189 2.711s-1.998 0-2.14.238c-6.041 14.269-14.935 1.665-22.355 2.235-1.189 0-2.331-1.284-3.853 0-6.421 5.517-12.985 10.892-19.453 16.362-.518.533-.951 1.142-1.284 1.807-1.046 1.665.713 5.137-2.854 5.089s-4.756-3.377-5.565-5.47c-2.007-4.87-1.303-10.435 1.855-14.65 4.637-6.283 10.64-11.439 17.551-15.078 8.737-4.362 19.068-4.109 27.587.666 3.377 2.14 7.135 1.189 9.846 3.615.712.749 1.335 1.581 1.854 2.475z"/><path d="m596.078 820.504c9.513-2.854 14.269 6.231 21.784 9.037 2.616.999 0 3.472-.476 5.232s.618 3.187-2.093 2.806c-6.421-.999-13.413 1.855-19.025-3.187-2.901-2.521-4.756 1.332-7.325 1.617-7.467.542-14.531 3.61-20.024 8.704-3.044 2.901-3.948.476-4.756-1.427-1.56-4.1-.737-8.723 2.14-12.034 4.756-4.756 9.513-10.274 17.218-9.513 4.424.477 8.134-2.472 12.557-1.235z"/><path d="m929.07 856.938c5.517 2.378 12.747 3.52 17.694 9.513 1.189 1.474 2.426 2.568 1.665 4.328-.614 1.736-2.359 2.806-4.186 2.568-5.517-1.522-11.082 2.378-17.075-1.998-4.138-2.997-11.225-.428-14.935 3.472-3.082 2.749-6.483 5.113-10.131 7.039-2.521 1.665-5.042 2.949-7.42.951s-1.522-5.755-.618-8.229c1.817-6.278 6.683-11.216 12.937-13.128 7.129-2.447 14.545-3.965 22.069-4.516z"/><path d="m223.037 895.749c-1.046-14.602 11.843-19.311 23.782-15.839 4.376 1.46 8.861 2.573 13.413 3.329 3.52.428 3.282 2.997 4.376 5.089 1.76 3.377-1.617 2.521-2.568 3.71-2.849 3.981-7.919 5.703-12.604 4.281-7.762-1.717-15.881-.533-22.83 3.329-5.233 3.188-3.141-1.949-3.569-3.899zm4.757 0c.713.476 1.189 1.046 1.665 1.046s1.332-.571 1.332-.951 0-2.093-1.332-1.57c-.476 0-.904.618-1.617 1.284z"/><path d="m1025.529 872.681c10.592-.59 20.295 5.912 23.782 15.934.523 1.57 1.047 3.567-.618 4.756s-2.854 0-4.138-.618c-7.039-4.69-15.953-5.579-23.782-2.378-2.673.442-5.156 1.665-7.135 3.52-2.426 2.901-4.756.904-5.042-2.045-1.236-8.134 8.467-19.074 16.933-19.169z"/><path d="m603.736 891.041c-3.206.138-6.297 1.213-8.894 3.092-2.949 2.616-8.181 1.712-12.367 2.759-2.426.618-6.231 7.943-8.942.618-1.665-5.708.381-11.843 5.137-15.411 7.563-6.944 22.973-5.184 29.489 2.949 1.189 1.474 3.662 2.806 2.711 4.756s-3.9 1.332-7.134 1.237z"/><path d="m1169.361 897.034c3.662 4.09-1.76 4.328-2.235 3.758-2.378-2.616-6.992 0-8.942-4.328-.38-.856-6.992 1.094-10.749 1.807-.699.271-1.356.637-1.95 1.094 3.139-11.368 8.514-15.791 18.122-15.696 3.758 0 6.516 0 8.229 4.376 1.712 4.376-2.521 5.137-4.09 7.467-.618.761-1.046 1.617 0 2.236.474.189 1.044-.429 1.615-.714z"/></g><path d="m227.841 895.559c.713-.666 1.142-1.284 1.712-1.474 1.474-.523 1.379.809 1.332 1.57-.048.761-.856.951-1.332.951s-.998-.571-1.712-1.047z" fill="#173948"/><path d="m1169.361 897.034c-.571.285-1.332.904-1.617.713-1.046-.618-.571-1.474 0-2.235z" fill="#173948"/></svg>