<svg xmlns="http://www.w3.org/2000/svg" viewBox="0 0 1500 1500" width="1500" height="1500"><g transform="translate(519.0 1234.0) rotate(0.0 -146.5 22.5) scale(-0.7141307712368599 0.6988988460403498)"><svg width="410.289" height="64.387" viewBox="0 0 410.289 64.387"><path d="M0 64.387s175.146-75.07 222.6-18.5c0 0 41.5-14.216 118.74-41.484 68.9-24.283 68.951 59.732 68.951 59.732z" fill="#7d5252"/></svg></g><g transform="translate(206.0 1010.0) rotate(0.0 84.0 124.5) scale(0.5488402482848742 0.5501546619531595)"><svg width="306.1" height="452.6" viewBox="0 0 306.1 452.6"><path d="M306.1 447.8v-234c0-95.1-29.9-150.2-55-179.6A98.78 98.78 0 0 0 181.4-.2a95.409 95.409 0 0 0-70.9 25.9c-21.5 17.4-44.2 45-64.4 86.6C-28.1 264.6 7.7 452.6 7.7 452.6s71.2-12.4 85.6-73.7c23.7-100.5 62.8-103.7 80.1-139.5 19.2-38.2 13.7-67.5-2.3-159-6.2-35.4 3-56.6 18-63.8A82.673 82.673 0 0 1 239 44.5c23.4 27.4 51.2 79 51.2 169.2v234h15.9z" fill="#34ab53"/><g fill="#2b9962"><path d="M36.4 435.1c-6.6 5.8-13.9 10.8-21.2 15.9 18.7-5.1 66.5-22.9 78-71.9 23.7-100.5 62.8-103.7 80.1-139.5 19.2-38.2 13.7-67.4-2.3-159-5.4-30.6.8-50.6 12.2-60.1a10.834 10.834 0 0 0-4.4.1c-14.8 3.6-26.3 24.9-30.4 37.9-6.2 19.6-5 40.7-3.4 61.2s3.6 41.4-1.1 61.5c-5.8 25-21.7 46.6-40 64.6-18.4 18-39.4 32.9-58.9 49.6-8.9 7.6-17.7 16-21.6 27s-1.1 25.2 9.1 30.9c6 3.3 13.3 3.1 20.1 4.1s14.3 4 16.6 10.4c1.3 3.6.7 7.5-.1 11.2a104.755 104.755 0 0 1-32.7 56.1z"/><path d="M122.3 184c5.8-11.1 8-27.3-2.5-34.1-6.7-4.3-15.9-2.5-22.7 1.8s-12 10.6-18 15.8c-10 8.7-24.6 15.6-38.1 11.8-4.8-1.3-11-7.3-17.2-11.2C9.1 214.4 2.4 261.4 0 303.5a192.27 192.27 0 0 1 11.1-17.1c30.5-40.6 87.5-57.5 111.2-102.4z"/><ellipse cx="57.312" cy="150.922" rx="16.6" ry="13.5" transform="matrix(.86951217 -.49391152 .49391152 .86951217 -67.063 48)"/></g></svg></g><g transform="translate(378.0 -15.0) rotate(95.85261791847475 96.0 236.0) scale(1.432654066275174 1.4335262924515122)"><svg width="134.017" height="329.258" viewBox="0 0 134.017 329.258"><g fill="#439D5B"><path d="M119.1 323.6a7.5 7.5 0 0 1-7.262-5.653c-3.388-13.318-12.134-26.208-26.737-39.4-6.323-5.714-13.275-11.124-20-16.358-6.918-5.385-14.072-10.952-20.788-17.016-15.929-14.384-28.845-32.4-36.367-50.726-8.638-21.043-10.249-42.3-4.662-61.478 8.916-30.63 33.557-51.122 57.382-70.938C81.891 44.378 101.94 27.7 111.636 4.6a7.5 7.5 0 0 1 13.832 5.8c-11.116 26.489-33.532 45.134-55.211 63.163-23.108 19.221-44.935 37.375-52.575 63.595-10.853 37.257 12.977 75.472 36.682 96.876 6.309 5.7 13.243 11.093 19.948 16.312 6.938 5.4 14.112 10.983 20.843 17.066 16.865 15.241 27.077 30.56 31.217 46.836a7.506 7.506 0 0 1-7.275 9.35z"/><path d="M21.863 329.258a7.5 7.5 0 0 1-7.431-6.558c-4.272-33.748 23.284-55.154 45.425-72.355 3.563-2.766 6.926-5.38 10.082-7.971 61.768-50.732 51.817-96.419 40.387-119.137-9.6-19.092-26.618-33.262-44.63-48.265C44.522 57.337 22.628 39.1 13.67 11.993a7.5 7.5 0 1 1 14.242-4.707c7.612 23.035 26.93 39.125 47.384 56.16 18.4 15.324 37.423 31.171 48.43 53.049 12.591 25.027 13.679 50.875 3.234 76.825-8.509 21.141-24.935 42.111-47.5 60.645-3.313 2.721-6.755 5.4-10.4 8.226-21.112 16.4-42.944 33.36-39.746 58.624a7.5 7.5 0 0 1-7.45 8.443z"/><path d="M113.223 134.04H19.511a7.5 7.5 0 0 1 0-15h93.712a7.5 7.5 0 1 1 0 15zm6.695 45.74H15.049a7.5 7.5 0 0 1 0-15h104.869a7.5 7.5 0 0 1 0 15zM98.72 225.521H34.014a7.5 7.5 0 0 1 0-15H98.72a7.5 7.5 0 0 1 0 15z"/></g></svg></g><g transform="translate(321.0 679.0) rotate(0.0 59.5 225.0) scale(0.5401504250847673 0.5446623093681917)"><svg width="220.309" height="826.2" viewBox="0 0 220.309 826.2"><path d="M218.71 190c-11-109-123-190-123-190s-1.5 24.3-35.5 70.4c-45.6 60.4-85.6 140.5-40.6 242.5 35.1 79.6 59.3 137.8 70.1 188.9-3.7 85.4-9.6 235.1-9.6 324.4h16c0-90.8 6.1-244.5 9.8-328.8 7.7-27 20.5-61.3 40.7-89.4 35-48.6 83.1-109 72.1-218z" fill="#34ab53"/><g fill="#2b9962"><path d="M80.71 339.3c2-.4 4-.3 6-.6 10.6-1.6 16.1-14.7 13.7-25.1-2.4-10.5-10.2-18.7-17.4-26.6-16.5-18-32.1-37.3-42.3-59.5s-14.6-47.8-8.1-71.3c7.8-28.3 29.7-50 46.3-74.3 15.1-22.2 25.8-51.7 15.7-75.7-2.5 9.9-10.2 31.6-34.3 64.4-45.6 60.4-85.6 140.5-40.6 242.5 33.1 75.1 56.5 131.1 68.1 180.2-18-69.2 2-84.4-11.9-115.6-3-6.8-6.5-13.7-6.6-21.1s4.1-15.9 11.4-17.3z"/><path d="M130.91 199.5c.3 27.8-4.9 58.1 9.9 81.7 7.7 12.2 20 21.1 27 33.7 4 7.2 5.5 17.6-.9 22.8a15.368 15.368 0 0 1-8 3c-10.8 1.2-21.3-5-28.4-13.2-7.2-8.2-11.7-18.2-16.9-27.8a223.12 223.12 0 0 0-29.9-42.3c-5.3-5.9-11-11.6-14-18.9-3.8-9.2-2.7-19.8-.3-29.5 3.8-15.8 14.5-39 32.1-43.2 19.7-4.8 29.3 17.8 29.4 33.7z"/><ellipse cx="168.241" cy="258.781" rx="19" ry="26.999" transform="matrix(.955 -.296 .296 .955 -69.103 61.447)"/></g></svg></g><g transform="translate(365.0 876.0) rotate(0.0 90.5 196.5) scale(0.5799497590484979 0.5811030607718468)"><svg width="312.096" height="676.3" viewBox="0 0 312.096 676.3"><path d="M282 0S150 120.2 67.8 361.4l-.2-.1c-.2.4-17.1 42.6-33.8 102.1C5.9 563 0 634.2 0 676.3h16c0-90.5 26.5-189.9 46-250.9a82.584 82.584 0 0 1 55-24.5c58-3 151.8-72.5 157.7-174.7C282 102.5 350.3 121.1 282 0z" fill="#34ab53"/><g fill="#2b9962"><path d="M282 0c6.6 36.4 12 75.8-6 108-9.6 17-25.3 31-29.9 50.1-5.1 21.4 5.3 43.1 10.5 64.5 5.9 23.7 4.2 51.7-13.4 68.7-17.2 16.5-42.3 14.3-59.1 27.2-12.1 9.2-18.4 28-27.1 40.5-28.7 40.7-66.3 46.3-72.5 50.4a82.3 82.3 0 0 1 32.6-8.3c58-3 151.8-72.5 157.7-174.7C282 102.5 350.3 121.1 282 0z"/><path d="M91.2 333.6c5.5-6 9.3-13.3 13.9-20a97.494 97.494 0 0 1 53.4-38.2c20.7-5.8 43.5-4.7 62.4-14.9 5.1-2.8 10.1-6.6 12-12.1 3.9-11.2-7.2-22.8-18.8-25.1-16.4-3.2-32.4 5.5-48.8 3.1-14.3-2.1-20.7-12.3-30.2-21.3a1073.7 1073.7 0 0 0-60.8 138.1c6.3-.8 12.4-4.7 16.9-9.6z"/><ellipse cx="185.4" cy="182.903" rx="21.5" ry="17.5" transform="matrix(.99760044 -.06923414 .06923414 .99760044 -12.218 13.275)"/></g></svg></g><g transform="translate(226.0 1234.0) rotate(0.0 146.5 22.5) scale(0.7141307712368599 0.6988988460403498)"><svg width="410.289" height="64.387" viewBox="0 0 410.289 64.387"><path d="M0 64.387s175.146-75.07 222.6-18.5c0 0 41.5-14.216 118.74-41.484 68.9-24.283 68.951 59.732 68.951 59.732z" fill="#7d5252"/></svg></g><g transform="translate(961.0 1205.0) rotate(0.0 220.0 34.0) scale(1.072414810048527 1.0561138117943063)"><svg width="410.289" height="64.387" viewBox="0 0 410.289 64.387"><path d="M0 64.387s175.146-75.07 222.6-18.5c0 0 41.5-14.216 118.74-41.484 68.9-24.283 68.951 59.732 68.951 59.732z" fill="#7d5252"/></svg></g><g transform="translate(405.0 123.0) rotate(0.0 399.0 576.5) scale(0.8560394765071873 0.8553412462908012)"><svg width="932.2" height="1348" viewBox="0 0 932.2 1348"><linearGradient id="a"><stop offset="0" stop-color="#ff953f"/><stop offset=".18" stop-color="#fcaf3c"/><stop offset=".37" stop-color="#fbc13b"/><stop offset=".56" stop-color="#f9cc39"/><stop offset=".77" stop-color="#f9d039"/></linearGradient><linearGradient xmlns:xlink="http://www.w3.org/1999/xlink" id="b" gradientTransform="matrix(1 0 0 -1 0 2942)" gradientUnits="userSpaceOnUse" x1="332.479" x2="391.46" xlink:href="#a" y1="2730.727" y2="2730.727"/><linearGradient xmlns:xlink="http://www.w3.org/1999/xlink" id="c" gradientTransform="matrix(1 0 0 -1 0 2942)" gradientUnits="userSpaceOnUse" x1="570.3" x2="635.3" xlink:href="#a" y1="2763.127" y2="2763.127"/><linearGradient xmlns:xlink="http://www.w3.org/1999/xlink" id="d" gradientTransform="matrix(1 0 0 -1 0 2942)" gradientUnits="userSpaceOnUse" x1="540.723" x2="645.9" xlink:href="#a" y1="2830.722" y2="2830.722"/><linearGradient xmlns:xlink="http://www.w3.org/1999/xlink" id="e" gradientTransform="matrix(1 0 0 -1 0 2942)" gradientUnits="userSpaceOnUse" x1="0" x2="174.7" xlink:href="#a" y1="2679.85" y2="2679.85"/><linearGradient id="f" gradientTransform="matrix(1 0 0 -1 0 2942)" gradientUnits="userSpaceOnUse" x1="485.318" x2="429.189" y1="2389.211" y2="2736.851"><stop offset="0" stop-color="#0075be"/><stop offset=".21" stop-color="#2088BF"/><stop offset=".42" stop-color="#2A96C8"/><stop offset=".61" stop-color="#2E9BCB"/><stop offset=".66" stop-color="#379ECC"/><stop offset=".73" stop-color="#4EA8D0"/><stop offset=".81" stop-color="#65b8e3"/><stop offset=".91" stop-color="#9accec"/><stop offset="1" stop-color="#cce0f4"/></linearGradient><path d="M817 1290.4c0 6.7 1.9 11.9 8.5 11.6 4.8-.2 10.6-4.6 18.1-4.6 9.2 0 9.5 2.2 23 4.6 8.1 1.5 14.3-8 20.9-11.6 6.9-3.8 13.8 1.5 19.1-17.5 3-10.8 12.7-9.4 15.8-16.3 2.8-6.2-2.3-11.4 4.3-19.2 13.3-15.6-1.9-28 0-26l-42 65.7z" fill="#211c1b"/><path d="M391.4 262.3s-23-23.5-22.7-26.9c.3-3.3 9-74.3 9-74.3s-5.7-3.3-9 4.7l-7-36s-8-1.7-9.3 11l-7.7-16s-7.7 4.3-5.3 17.3 13.8 42.1 13.8 42.1l-11.5-11.5s-8.7 8.4-.3 18.4 10.5 19.1 5.7 25.2c-4.2 5.4-23.2 18.6-10.2 42.8 9 16.7 28.5 38.7 28.5 38.7z" fill="url(#b)"/><path d="m828.8 1075.1.2-.3c-2.9-5.6-5.9-11.4-9.2-17.4-39-72-105-97-127-125s6.2-141 27-240c16-76.1.6-101.6-19.7-164.3-7.5-23.4-97.2-39.1-97.2-39.1s-73.4 219.8-72.1 295.8 24.8 184 79.3 234c40.9 37.5 112.3 88.4 171.2 137.9 16.1-27 31.8-54.4 47.5-81.6z" fill="#34ab53"/><path d="m635.3 636-66.5-36.2c-19 66.3-38.7 145.2-38 184.9 1.2 69.2 20.8 165 65.5 219.3-26.3-35.3 4.7-76-12.6-102.7s-8.9-64.7 26.4-130.7S635.3 636 635.3 636z" fill="#211c1b"/><path d="m574.3 150.9-4 73 65 5.5-6.5-101z" fill="url(#c)"/><path d="m602.8 153.6-30 25.3 1.5-28z" fill="#211c1b"/><path d="m632.8 190.4-60.4-5.7-2.1 39.2 65 5.5z" fill="#7d5252"/><path d="M636.6 655.7c-5.7 29.8-15.1 60.3-29.3 88-.2.3-.3.6-.5.9s-.3.7-.5 1c-2.1 4-4.3 7.9-6.6 11.8-5.4 9-10.3 18.3-14.7 27.6-20.8 43.7-31.1 89.6-32.6 132.6v.2c-1.1 32 2.7 62.3 10.7 88.9 2.7 9 5.9 17.6 9.5 25.7 17.6 39 23.4 69.9 23.6 99.9 0 4.9-.1 9.8-.3 14.6 0 .8-.1 1.5-.1 2.3-.1 1.3-.2 2.6-.3 4-.1 1-.1 2.1-.2 3.1-1.3 16.6-3.9 33.6-6.6 52.2-2 13.7-2.8 27.7-2.9 41.2v.1c-.1 29.6 3.5 56.7 6.2 72.4v.1c.3 1.9.6 3.7.9 5.2.1.5.1.9.1 1.4 0 4.2-3.4 7.6-7.6 7.6H477.7s-4-22 17-28c5.9-1.7 11.4-2.2 16.5-2.4h1.9c1.3 0 2.6 0 3.8-.1h1.6c9.3-.2 16.2-.9 19.3-9.5.1-.2.1-.4.2-.6 7-29.8-135.4-312-154.2-517.3-6.4-69.9-2.4-123.2 5.8-163.1 8.1-39.4 20.1-65.8 30.1-82.3.2-.3.3-.6.5-.8 9.6-15.7 17.3-22.1 17.3-22.1 5.4-3.4 12.3-6.5 20.2-9.3 8.6-3 18.4-5.6 28.8-7.8 38.6-8 86.4-10 116.4-4h.2c12.3 2.5 21.5 6.4 25.9 11.7l.1.1c1.9 2.4 3.7 5.7 5.3 9.8 1.3 3.4 2.5 7.3 3.6 11.8.9 3.8 1.8 8 2.5 12.5 4.9 30.1 4.9 74.6-3.9 120.6z" fill="#34ab53"/><path d="m503 1188 14.1-8.4S420.7 922.2 404 767.7s34.7-220.5 34.7-220.5l-30.4 7.8c-17.7 39.8-35 109.5-24.5 223.4C396.1 912.8 461.3 1080 503 1188z" fill="#68cc82"/><path d="M567.8 73.9s-32.8 25-26.2 39c5.3 11.4 22.8 11 22.8 11s-15.5 29.5 1 39 64.5-21.5 64.5-21.5l16-56.5-58.2-27z" fill="url(#d)"/><path d="M563.3 48.4s-27 3-21.8 20 40 14.3 50.2-10.5zm43.6 19.3s11.5 8.3 7 22.7c-2.9 9.2-.2 10.3 2.1 9.9 1.3-.3 2.5-1 3.3-2 2.3-2.8 9-10 16-8.6 8.6 1.8 10.2 22-14.2 31.3 0 0-3.2 34.7 19 31 11.4-1.9 5.7-16.7 5.7-16.7s21.5 1.8 24.7-16.3c2.5-14.2-8.7-18.7-8.7-18.7s6.3-5.7 2.7-12.7-18.7-2.8-18.7-2.8z" fill="#211c1b"/><path d="M104.3 219.4c-3.2.7-5.8 1.2-7.9 1.7-5.1 1.1-10.4-.6-13.9-4.4-5.5-5.8-14.8-12.9-26.2-9.8 0 0-7.2-9-18-4 0 0-9.5-6.5-17.5.2 0 0-12.5-10.8-20.8-.8 0 0 22.2 20.8 37.5 27.2s63.8 24.8 72.2 40.8 27 56 27 56l38-32c-33.4-65.9-48.9-79.4-70.4-74.9z" fill="url(#e)"/><path d="M391.4 262.3s-27.3 2.5-54 51.5l22 29.7s49.3-63.7 48.7-65c-.6-1.4-16.7-16.2-16.7-16.2z" fill="#7d5252"/><path d="M771.4 306.1c-8.7-40.7-34.7-78.7-76.7-86.7-14.8-3-30-3.6-45-1.8-19.3 2.6-39 1.2-57.8-4-25.1-6.9-59.5-13.6-103.6-4.2-73 15.5-151.5 126-195 218 0 0-85-67-118.5-133 0 0-21 6.3-38 32 0 0-11.5 13.5-15 36.5 0 0 51 163.5 171 189.5 74.4 16.1 127.3-13.5 159.9-46.3C612.4 467.2 700.2 528 700.2 528c94-12 88.7-67.3 82.7-87.3s5-42.2 5.6-64.2-8.4-29.8-17.1-70.4z" fill="url(#f)"/><path d="m293.3 427.4-14.5 29s-8.8-43.9-30.7-69.3z" fill="#211c1b"/><path d="m617.8 331.4 42 5s15.5 43.3 67.5 74.3c0 0-16.9 91-27.2 117.3l-247.5-21.9s58.2-57.2 72.1-133.8c.1 0 49.1 18.1 93.1-40.9z" fill="#34ab53"/><path d="M727.3 410.7s-25.6 83.6-54.5 99.5c-19.3 10.6-35.7-5.1-49.3 2.8-9.7 5.7-8.4 20.5 6.8 21.4 53.5 3.3 76.6 4.3 93.7 70.6l-23.9-77 23.9-42.6z" fill="#2b9962"/><path d="M532.2 426.1c-14.4 27.4-29.2 30.1-45.7 66.9-.9 2.1-1.9 4.3-2.8 6.6-1.1 2.8-2.3 5.8-3.5 8.9-1.1 3.1-2.3 6.3-3.4 9.8-8.2 24.8-27.8 31.6-47 43.8-15.9 10.1-31.5 23.7-40.4 54v-.2c0-.1 0-.4.1-.6 8.1-39.4 20.1-65.8 30.1-82.3.5-.6.8-.9.8-.9l1.8-1.2c.1 0 .1-.1.2-.1 13.3-9 25-19.2 35.2-30l.5-.5c.2-.2.3-.3.4-.5 14.7-15.7 26.4-32.5 35.5-48.5 19.1-33.5 27.3-64 29.9-74.8v-.2c.5-2.4.8-3.8.9-4 .7 1.2 18.3 33 7.4 53.8z" fill="#211c1b"/><path d="M510.8 205.8s94 46.1 107 125.6l42 5s-5.2-79.2-109.6-130.7c-1.2-.6-10.6-1-19.3-.9-10.3.2-20.1 1-20.1 1z" fill="#2b9962"/><path d="M642.7 218.3c2.3 13.3 6.4 51.7-13.4 82.5l30.5 35.5s31.7-53.7 15.5-119.5c-14.6-1.1-24.7.9-32.6 1.5z" fill="#2b9962"/><path d="M174.8 294.4s-21 6.3-38 32c0 0-11.5 13.5-15 36.5 0 0 10 32 31.5 69.9 11.4-55.5 44.1-79.5 56.6-86.8-13.7-16.4-26.2-34.1-35.1-51.6z" fill="#7d5252"/><path d="M563.3 48.4s38.9-59.2 78-46.5c37.8 12.2 4.5 83 4.5 83z" fill="#ff953f"/><path d="m563.3 48.4-21.8-10.2c1.1-2.4 3.8-3.6 6.3-3l25.2 6.1z" fill="#ff953f"/><path d="M594.8 1336.4s-15-67-6-128c4.1-27.5 7.6-51.5 7.5-76.1l-93.2 55.7c22.5 58.3 38.1 99.3 34.8 108.4-5.4 14.9-22 6-43 12s-17 28-17 28zm303-144c-28.8-21.1-37.9-58.8-72-123.7l-58.6 76.2c39.1 32 74.4 64 94.3 91.8 4.7 6.6 4 28.7-14.7 28.7-27.5 0-30 25-30 25h50.3c13.3 0 25.4-7.6 31.1-19.6l28.6-59.4c-.2-.1-10.9-5.7-29-19z" fill="#7d5252"/><path d="M688.1 960.7c42.2 3.1 68.9 23.3 69 23.4-26.9-21.9-52.3-36.4-64.3-51.8-15.3-19.5-6.4-80 7.4-148.3 0 0-15.4 61.9-32.8 105.6s-21.6 68 20.7 71.1z" fill="#2b9962"/><path d="M559.4 98.9s13.5-26.3 41.8-8.1c0 0-17.1 27.5-41.8 8.1z" fill="#fff"/><path d="M565.4 75.1c-1 1.8-1.9 3.7-2.6 5.7-.3.7.1 1.5.8 1.8.3.1.7.1 1 0 6.1-2.8 21.1-8.1 34.8-2.1.5.3 1.2.1 1.6-.3.5-.6.5-1.5-.1-2h-.1c-3.2-2.7-12.4-10.2-31.3-6.2-1.7.4-3.2 1.5-4.1 3.1zm11.4 10C565.1 87.9 559.4 99 559.4 99c7.8 6.1 14.9 7.6 20.8 6.7 4.1-6.8 2.6-15.5-3.4-20.6z" fill="#211c1b"/><path d="m570.3 131.8 15.5-9.2s4 15-6.2 17.5c-5.2 1.2-9.3-8.3-9.3-8.3z" fill="#fff"/><path d="M727.3 410.7S685.9 491 700.1 528c0 0 35.6-4.2 50.8-14.4 0 0-21.7-15-13.4-57.2 7.1-36.5-10.2-45.7-10.2-45.7zm-249.5 925.7c0 6.7 1.9 11.9 8.5 11.6 4.8-.2 14.7-4.6 22.2-4.6 9.2 0 11.2 4.6 24.8 4.6 13.2 0 20.6-4.6 27.8-4.6s15.4 4.4 21.5 4.6c15 .4 12.2-11.6 12.2-11.6z" fill="#211c1b"/><ellipse cx="141.4" cy="375.3" fill="#ad8172" rx="6.7" ry="11.7"/><path d="M563.4 1007.2C542.1 937 550 840.9 599.8 757.4c3.7-6.2 7.1-12.5 10.2-19 0 0-30.1 59.7-56.3 97.3S505 888.8 512.2 922c4.9 22.3 21.5 22.3 51.2 85.2z" fill="#2b9962"/><path d="m624.6 60.1 26.8-52.2c-2.8-2.8-6.3-4.9-10.1-6.1-4.8-1.5-9.8-2.1-14.8-1.6L598 48.3z" fill="#ffb578"/><g fill="#211c1b"><path d="M585.9 1248.2c-.5 16.1-12.6 23.1-12.8 35.8-.3 12.5 14.9 17.6 19.4 40.5-4.4-25.2-6.6-50.8-6.6-76.3zm311.9-55.8c-17.1-12.5-27.2-30.8-39.7-57.2s6.9 15.1 10.4 37.8c3.2 21 6.3 24 18 25.3s21.2 1.3 28.3 5.7c-4.6-2.8-10.4-6.7-17-11.6zm-18.7 56.4c1-5.1-1.3-10.4-5.8-13.1-3.2-2-7.4-3.4-15.5-7.8-3.7-2-8.4-6.7-11.6-10.1 5.4 6 10.5 12.3 15.2 18.9 4.3 6 4.1 24.9-10.2 28.2 22.2-1.1 26.6-10.4 27.9-16.1z"/></g><path d="m530.7 1262.5.6 1.8-.6-1.8zm0 0c-.6-1.7-1.2-3.5-1.8-5.3.6 1.8 1.2 3.6 1.8 5.3zm-1.9-5.6c0 .1.1.2.1.3 0-.2-.1-.3-.1-.3zm21 31.3c-4.6-33.2-31.5-105.5-32.7-108.6v-.1l-14.1 8.4v.1c10.5 27.2 19.5 50.6 25.8 68.8 0 0 0 .1.1.3.3 1 1.1 3.5 2.4 7.1.2.6.5 1.3.7 2l-.4-1.5-.1-.2.6 1.7v-.1l.4 1.3.3.9c.2.8.5 1.6.7 2.3l.3 1c.2.7.4 1.4.6 2l.3 1.1c.2.6.3 1.2.5 1.8l.3 1.1.3 1.2c0 .2.1.3.1.5l.3.9v.2c.1.3.1.7.2 1 0 .2.1.3.1.4l.2.8v.2c.1.5.2.9.3 1.4.1.3.1.7.2 1 .1.4.2.8.2 1.2 0 .3.1.6.2.9s.1.8.2 1.1c0 .1 0 .2.1.3v.6c0 .2.1.7.1 1s.1.5.1.7c0 .3 0 .6.1.9.1.2 0 .3 0 .4v1.5c0 .1-.1.5-.1.8s0 .3-.1.4c0 .3-.1.5-.2.7 0 .1 0 .2-.1.2-.2.4-.3.9-.5 1.3l-.1.3c-.2.3-.3.7-.5 1l-.1.2c-.4.7-.9 1.4-1.4 2-2.7 3.1-6.5 4.1-11.2 4.5s-10.2.1-16.3.6c1.2 0 2.3.1 3.5.1h.1c10.4.5 16.8 2.7 25.8 4.2 5.9 1 10.3-1.6 11.7-4.3 2-3.4 2.1-10.2 1.1-17.6z" fill="#ad8172"/></svg></g><g transform="translate(82.0 1275.0) rotate(0.0 660.0 48.5) scale(0.6876432590122943 0.6740792216817234)"><svg width="1919.6" height="143.9" viewBox="0 0 1919.6 143.9"><path d="M0 0h1919.6v143.9H0z" fill="#dcdde2"/><g fill="#eeeff5"><path d="M30.4 31.4v75a6.445 6.445 0 0 0 6.4 6.4 7.42 7.42 0 0 0 3.5-1l116-74.9a6.321 6.321 0 0 0 1.9-8.8 6.468 6.468 0 0 0-5.4-2.9h-116a6.213 6.213 0 0 0-6.4 6.2zm43.7 74.8a6.36 6.36 0 0 0 3.3 11.9h183.8a6.38 6.38 0 0 0 6.4-6.4 6.294 6.294 0 0 0-.9-3.3l-46.5-78a6.356 6.356 0 0 0-8.6-2.3zm172.2-71.5 22.1 38.2a6.384 6.384 0 0 0 8.7 2.3 4.44 4.44 0 0 0 1.1-.8L320 36.2a6.345 6.345 0 0 0 .4-9 6.438 6.438 0 0 0-4.7-2.1h-63.9a6.38 6.38 0 0 0-6.4 6.4 6.2 6.2 0 0 0 .9 3.2zM283 99l8.3 15.7a6.37 6.37 0 0 0 5.6 3.4h132.4a6.38 6.38 0 0 0 6.4-6.4 6.874 6.874 0 0 0-.5-2.4L403 29.1a6.413 6.413 0 0 0-5.9-4h-41.8a6.039 6.039 0 0 0-4.4 1.8l-66.7 64.5A6.538 6.538 0 0 0 283 99zm146.7-65.5 10.5 30.6a6.452 6.452 0 0 0 8.1 4 3.379 3.379 0 0 0 1.2-.6l50.9-30.6a6.353 6.353 0 0 0 2.2-8.7 6.464 6.464 0 0 0-5.5-3.1h-61.4a6.38 6.38 0 0 0-6.4 6.4 4.477 4.477 0 0 0 .4 2zm21.5 57.6 6.8 20.6a6.4 6.4 0 0 0 8 4.1c.1 0 .2-.1.3-.1l58.4-22.3a6.645 6.645 0 0 0 3.8-3.9L545 41.7a6.332 6.332 0 0 0-9.3-7.5L454 83.7a6.289 6.289 0 0 0-2.8 7.4zm77.8 14.6 10.3-3.7a6.767 6.767 0 0 1 5.4.5l6.2 3.7a6.349 6.349 0 0 1-3.3 11.8h-16.5c-7.2.1-8.9-9.9-2.1-12.3zm26.5-11.2 21.3 12.4a6.413 6.413 0 0 0 8-1.3L645 35.7a6.347 6.347 0 0 0-4.9-10.5h-58.4a6.311 6.311 0 0 0-5.9 4l-23 57.5a6.448 6.448 0 0 0 2.7 7.8zm58.9 23.6h183.3a6.38 6.38 0 0 0 6.4-6.4 5.381 5.381 0 0 0-.4-2.2l-29.3-80.2a6.382 6.382 0 0 0-6-4.2h-91.8a6.159 6.159 0 0 0-5 2.5l-62.1 80.2a6.257 6.257 0 0 0 1.1 8.9 5.943 5.943 0 0 0 3.8 1.4zm178.2-84.6L804.4 68a6.452 6.452 0 0 0 8.1 4 5.244 5.244 0 0 0 1.8-1l45-34.5a6.35 6.35 0 0 0-3.9-11.4h-56.7a6.38 6.38 0 0 0-6.4 6.4 6.448 6.448 0 0 0 .3 2zm21.5 58.8 6.7 21.1a6.753 6.753 0 0 0 6.4 4.7h78.1a6.7 6.7 0 0 0 6.7-6.7 4.869 4.869 0 0 0-.1-1.2l-8.2-46.7a6.706 6.706 0 0 0-5.4-5.4l-34.1-6a6.563 6.563 0 0 0-5.1 1.2l-42.5 31.6a6.7 6.7 0 0 0-2.5 7.4zm78.3-49.6 19 3.2a6.973 6.973 0 0 0 5.4-1.4L926 37a6.582 6.582 0 0 0 .9-9.4 6.685 6.685 0 0 0-5.2-2.5h-23.4a6.81 6.81 0 0 0-4.5 1.7l-4.8 4.3a6.652 6.652 0 0 0-.5 9.4 6.457 6.457 0 0 0 3.9 2.2zM918 70.3l10.2 42.7a6.643 6.643 0 0 0 6.5 5.1h21.6a6.7 6.7 0 0 0 6.7-6.7 6.583 6.583 0 0 0-.7-3L942 67.2a6.748 6.748 0 0 0-5.2-3.7L925.3 62a6.665 6.665 0 0 0-7.5 5.8 10.145 10.145 0 0 0 .2 2.5zm24.4-19.1 5 .9a6.725 6.725 0 0 1 4.5 3.2l11.3 19a6.683 6.683 0 0 0 9.2 2.3 11.511 11.511 0 0 0 1.7-1.4l33.2-39.1a6.7 6.7 0 0 0-5.1-11h-43.7a6.989 6.989 0 0 0-4.4 1.6l-14.8 12.8a6.657 6.657 0 0 0-.7 9.4 5.858 5.858 0 0 0 3.8 2.3zm31.1 45.3 7.1 17.4a6.75 6.75 0 0 0 6.2 4.2h77.7a6.7 6.7 0 0 0 6.7-6.7 5.918 5.918 0 0 0-.7-2.9L1036.4 39a6.681 6.681 0 0 0-8.9-3.1 8.016 8.016 0 0 0-1.9 1.3l-50.7 52.2a6.485 6.485 0 0 0-1.4 7.1zm79.1-61.7 19.3 40.6a6.722 6.722 0 0 0 8.9 3.2 2.177 2.177 0 0 0 .8-.5l59.6-39.7a6.7 6.7 0 0 0-3.6-12.3l-78.9-.9a6.766 6.766 0 0 0-6.8 6.6 9.425 9.425 0 0 0 .7 3zm31.5 64.8 6.4 14.5a6.8 6.8 0 0 0 6.1 4h85.2a6.7 6.7 0 0 0 6.7-6.7v-.7l-7.1-69.4a6.7 6.7 0 0 0-7.3-6 6.423 6.423 0 0 0-3 1.1l-84.5 55a6.614 6.614 0 0 0-2.5 8.2zm113.5-67 5 42.8a6.66 6.66 0 0 0 7.4 5.9.6.6 0 0 0 .4-.1l88.2-15.8a6.661 6.661 0 0 0 5.5-6.6v-27a6.7 6.7 0 0 0-6.7-6.7h-93.1a6.7 6.7 0 0 0-6.7 6.7zm9.2 69.1 1.4 10.5a6.681 6.681 0 0 0 6.6 5.8h61.3a6.7 6.7 0 0 0 6.7-6.7v-.6l-1.8-21.2a6.731 6.731 0 0 0-7.3-6.1 1.268 1.268 0 0 0-.6.1l-60.8 10.6a7.075 7.075 0 0 0-5.5 7.6zm90.6-22.6 19.9-4.1a6.835 6.835 0 0 1 6.6 2.3l24.1 29.8a6.672 6.672 0 0 1-1 9.4 6.554 6.554 0 0 1-4.2 1.5h-40.4a6.681 6.681 0 0 1-6.6-5.8l-3.6-25.7a6.555 6.555 0 0 1 5.2-7.4zm22.7-25.4 1.1-22.2a6.708 6.708 0 0 1 6.7-6.4h75.3a6.741 6.741 0 0 1 6.6 5.5l14.3 79.6a6.757 6.757 0 0 1-5.4 7.8 4.869 4.869 0 0 1-1.2.1h-41a6.766 6.766 0 0 1-5.1-2.3l-49.6-57.3a7.249 7.249 0 0 1-1.7-4.8zm108.7-20.8 6.9 39.6a6.606 6.606 0 0 0 7.7 5.4 8.544 8.544 0 0 0 2.4-.9l62.7-39.6a6.668 6.668 0 0 0 2.1-9.2 6.806 6.806 0 0 0-5.7-3.1h-69.6a6.7 6.7 0 0 0-6.7 6.7c.1.4.1.8.2 1.1zm12.3 64.9 1.9 14.5a6.681 6.681 0 0 0 6.6 5.8h106.8a6.7 6.7 0 0 0 6.7-6.7 6.2 6.2 0 0 0-1-3.5l-36.2-58.5a6.743 6.743 0 0 0-9.2-2.2l-72.5 44a6.562 6.562 0 0 0-3.1 6.6zm99.1-64 11.5-7.6a6.959 6.959 0 0 1 3.7-1.1h53a6.7 6.7 0 0 1 6.7 6.7 6.555 6.555 0 0 1-2.4 5.1l-44.6 37.5a6.666 6.666 0 0 1-9.4-.8c-.2-.2-.3-.4-.5-.6l-19.9-29.9a6.753 6.753 0 0 1 1.9-9.3zm31.6 59.4 14.3 21.9a6.542 6.542 0 0 0 5.6 3h58.3a6.7 6.7 0 0 0 6.7-6.7 6.959 6.959 0 0 0-1.1-3.7l-34.3-51.9a6.735 6.735 0 0 0-9.3-1.9c-.2.1-.3.2-.5.3l-38.3 30.1a6.671 6.671 0 0 0-1.4 8.9zm75.1-66.6-13.1 10.9a6.668 6.668 0 0 0-1.3 8.9l23 34a6.641 6.641 0 0 0 9.3 1.8 6.447 6.447 0 0 0 2.4-3l18.7-44.9a6.805 6.805 0 0 0-3.6-8.8 7.512 7.512 0 0 0-2.6-.5h-28.6a7.281 7.281 0 0 0-4.2 1.6zm25.7 80.3 3.9 7.5a6.9 6.9 0 0 0 6.1 3.6l49.6-1a6.7 6.7 0 0 0 6.5-6.9 6.438 6.438 0 0 0-2.1-4.7l-39.2-36.2a6.771 6.771 0 0 0-9.5.4 5.715 5.715 0 0 0-1.1 1.6l-14.2 29.7a6.375 6.375 0 0 0 0 6zm31.8-77.6-7.9 20a6.836 6.836 0 0 0 1.8 7.5l25.5 22.4a6.806 6.806 0 0 0 7.8.8l73.5-42.4a6.693 6.693 0 0 0-3.3-12.5h-91.1a6.784 6.784 0 0 0-6.3 4.2zm147 2.4 37.1 76.6a6.681 6.681 0 0 1-3.1 8.9 6.3 6.3 0 0 1-3 .7l-114.1-2a6.66 6.66 0 0 1-4.4-1.8l-19-17.5a6.763 6.763 0 0 1-.4-9.5 5.665 5.665 0 0 1 1.5-1.2l96-57.2a6.771 6.771 0 0 1 9.2 2.3 2.544 2.544 0 0 1 .2.7zm22.4-6.6h12.7a6.7 6.7 0 0 1 6.7 6.7v26.8a6.7 6.7 0 0 1-6.7 6.7 6.786 6.786 0 0 1-6.1-3.8l-12.7-26.8a6.637 6.637 0 0 1 3.2-8.9 6.19 6.19 0 0 1 2.9-.7z"/></g></svg></g></svg>