<svg xmlns="http://www.w3.org/2000/svg" viewBox="0 0 600 600" width="600" height="600"><g transform="translate(96.0 142.0) rotate(0.0 122.0 156.0) scale(1.9937572518834468 1.9995898277276454)"><svg width="122.382" height="156.032" viewBox="0 0 122.382 156.032"><path d="M68.922 44.146c1.279-3.759 2.735-7.735 5.914-10.323.722-.588 1.565-1.149 2.453-1.447 1.018-.341 2.254.04 1.779 1.316-.735 1.975-1.932 3.875-3.096 5.62-.364.545.487 1.009.863.505a13.532 13.532 0 0 1 2.525-2.58c.485-.377.998-.718 1.53-1.024.496-.286 1.094-.678 1.672-.755.832-.11.496.888.338 1.349a16.958 16.958 0 0 1-.773 1.873 19.175 19.175 0 0 1-2.038 3.296c-.329.43.286.889.684.684 1.243-.639 2.294-2.113 3.776-2.157.506-.015 1.142.134 1.334.667.276.763-.403 1.769-.75 2.418a19.135 19.135 0 0 1-6.118 6.792c-.529.36-.03 1.226.505.863 3.062-2.08 5.756-5.079 7.145-8.546.625-1.561-.071-3.052-1.818-3.186-1.895-.145-3.044 1.497-4.579 2.285l.684.684a19.379 19.379 0 0 0 2.529-4.399c.415-1.009 1.286-3.019-.256-3.558-.634-.222-1.29.045-1.863.315a13.55 13.55 0 0 0-2.075 1.215 14.86 14.86 0 0 0-3.316 3.259l.863.505a37.265 37.265 0 0 0 2.941-5.261c.317-.699.616-1.463.257-2.206-.316-.655-1.029-1.057-1.739-1.115-1.655-.135-3.374 1.161-4.541 2.201-1.317 1.173-2.378 2.627-3.223 4.169-1.088 1.987-1.845 4.135-2.573 6.273-.206.613.76.875.966.268zm-10.721-1.567c.525-1.951-1.087-3.667-2.32-4.971a22.5 22.5 0 0 0-4.693-3.781c-.648-.392-1.541-1.079-2.326-.692-.777.383-.892 1.407-.917 2.169-.069 2.167.879 4.204 1.785 6.117l.863-.505c-.841-1.14-1.895-2.099-3.153-2.763-1.018-.538-2.466-1.156-3.571-.503-2.624 1.552 1.192 5.644 2.367 6.883l.606-.785c-1.222-.883-3.017-1.766-4.573-1.589-1.583.181-1.953 1.931-1.424 3.197.592 1.414 1.742 2.712 2.837 3.762a16.075 16.075 0 0 0 3.93 2.766c.574.288 1.081-.575.505-.863-2.221-1.113-4.17-2.74-5.597-4.78-.36-.515-.766-1.076-.893-1.702-.144-.709.162-1.401.963-1.394 1.325.012 2.7.711 3.748 1.467.474.342.983-.388.606-.785-.613-.646-4.328-4.694-2.394-5.391.849-.306 2.027.36 2.733.775a8.237 8.237 0 0 1 2.447 2.211c.38.515 1.142.084.863-.505-.722-1.524-1.482-3.123-1.627-4.827-.036-.42-.186-2.157.552-2.041.341.054.78.412 1.074.588a21.31 21.31 0 0 1 4.435 3.525c.99 1.028 2.634 2.571 2.208 4.151-.166.623.799.888.966.266z" fill="#1e7ec1"/><path d="M79.213 60.048c-.896 5.84.075 11.635 5.521 15.206 5.375 3.524 12.898 4.314 17.426 8.937 5.039 5.145 8.294 12.104 8.642 19.327.539 11.161-5.685 21.524-15.097 27.208-9.123 5.51-21.979 5.629-32.372 5.547-10.229-.08-21.125-.234-30.478-4.913-10.173-5.089-16.838-16.482-16.29-27.843.349-7.223 3.603-14.182 8.642-19.327 4.528-4.623 12.051-5.413 17.426-8.937 5.445-3.57 6.416-9.364 5.521-15.203-1.463-9.538 3.811-18.137 13.632-19.595 4.876-.724 9.138.257 13.089 3.497 4.077 3.341 5.087 11.215 4.338 16.096z" fill="#1e7ec1"/><path d="M78.731 59.915c-.68 4.534-.306 9.369 2.691 13.052 3.104 3.815 8.167 5.228 12.563 6.963 2.261.892 4.536 1.899 6.465 3.402 2.058 1.603 3.75 3.788 5.159 5.965 2.916 4.509 4.648 9.785 4.724 15.169.14 9.866-5.184 19.205-13.229 24.761-8.652 5.975-19.791 6.52-29.963 6.558-5.546.02-11.123.016-16.652-.461-5.681-.491-11.398-1.578-16.591-4.013-8.917-4.181-15.277-13.016-16.611-22.76-.708-5.172.124-10.474 2.274-15.224 2.106-4.652 5.367-9.191 9.94-11.644 4.315-2.315 9.269-3.292 13.387-5.998 1.966-1.292 3.606-3.045 4.631-5.174.972-2.018 1.39-4.25 1.428-6.48.04-2.348-.516-4.635-.531-6.977-.014-2.15.335-4.294 1.082-6.312 1.443-3.898 4.443-7.063 8.28-8.672 4.559-1.912 10.055-1.869 14.385.607 2.062 1.179 3.722 2.67 4.803 4.801 1.004 1.979 1.547 4.208 1.802 6.404.231 1.995.26 4.043-.037 6.033-.094.63.869.901.964.266.636-4.265.15-9.002-1.723-12.915-2.1-4.386-6.905-6.998-11.629-7.458-4.613-.449-9.498.864-13.073 3.853-3.243 2.71-5.174 6.671-5.701 10.829a19.572 19.572 0 0 0-.135 3.327c.054 1.211.274 2.397.396 3.601.24 2.381.151 4.826-.591 7.116a11.768 11.768 0 0 1-4.199 5.831c-2.077 1.536-4.516 2.524-6.91 3.446-2.321.894-4.68 1.727-6.89 2.881-2.251 1.175-4.113 2.726-5.763 4.65-3.551 4.142-6.055 9.213-7.006 14.596-1.756 9.938 2.106 20.372 9.453 27.195 8.407 7.808 20.349 9.257 31.34 9.553 5.472.147 10.977.215 16.446-.057 5.361-.266 10.789-.901 15.903-2.6 9.525-3.165 17.312-10.836 20.36-20.441a28.72 28.72 0 0 0 .617-15.149c-1.229-5.286-3.939-10.213-7.654-14.16-3.524-3.745-8.481-5.149-13.107-7.023-2.337-.946-4.722-2.053-6.58-3.795-1.794-1.682-2.957-3.864-3.478-6.258-.5-2.301-.425-4.705-.077-7.022.096-.63-.868-.901-.963-.266z" fill="#1e7ec1"/><path d="M72.404 54.278c-1.778-4.766-7.68-6.086-11.922-3.803-3.533 1.901-5.27 6.853-3.254 10.436 4.531 8.048 18.748 2.94 15.176-6.633z" fill="#fcf1d5"/><path d="M72.886 54.145c-1.475-3.826-5.483-5.719-9.442-5.154-2.037.291-3.992 1.213-5.36 2.774-1.361 1.552-2.176 3.586-2.211 5.655-.06 3.558 2.467 6.671 5.839 7.632 2.849.813 6.111.179 8.486-1.582 1.314-.974 2.352-2.28 2.887-3.835.616-1.79.442-3.733-.199-5.49-.219-.6-1.186-.341-.964.266.974 2.668.605 5.511-1.473 7.544-1.839 1.799-4.532 2.65-7.075 2.403-2.821-.273-5.435-2.184-6.242-4.959-1.094-3.761 1.274-7.852 4.918-9.059 3.776-1.251 8.367.164 9.873 4.071.228.594 1.195.336.963-.266z" fill="#fcf1d5"/><path d="M59.595 54.373a6.879 6.879 0 0 0-.54 1.107c-1.827 4.789 3.341 8.377 7.806 6.899 3.862-1.279 5.382-7.555 1.857-10.124-3.064-2.233-7.23-1.014-9.123 2.118z"/><path d="M59.163 54.121c-.766 1.305-1.169 2.802-.889 4.309.223 1.2.913 2.298 1.833 3.089 2.002 1.722 5.05 2.221 7.467 1.11 2.19-1.006 3.469-3.455 3.613-5.786.163-2.657-1.306-4.949-3.817-5.861-3.096-1.126-6.527.424-8.207 3.139-.339.549.525 1.052.863.505 1.274-2.059 3.732-3.387 6.172-2.928 2.208.415 3.85 2.091 3.99 4.356.121 1.959-.718 4.126-2.358 5.277-1.798 1.261-4.397 1.117-6.239.03-1.021-.602-1.872-1.533-2.224-2.679-.429-1.395-.062-2.827.66-4.056.326-.557-.538-1.06-.864-.505zm-1.169-6.138c2.412-2.911 6.743-4.141 10.278-2.641.497.211 1.071.149 1.368-.359.245-.42.141-1.156-.359-1.368-4.326-1.835-9.665-.711-12.702 2.954-.344.416-.407 1.007 0 1.414.355.354 1.068.417 1.415 0z"/><g fill="#1e7ec1"><path d="m57.022 133.807.104 18.687 1.5-1.5-4.735.399c-.807.068-1.5.641-1.5 1.5 0 .759.688 1.568 1.5 1.5l4.735-.399c.805-.068 1.505-.632 1.5-1.5l-.104-18.687c-.01-1.93-3.01-1.934-3 0zm10.681 2.795.093 12.681.023 3.108c.007.991-.048 2.089.651 2.884.719.819 1.671.791 2.668.729l3.108-.194c.809-.051 1.5-.653 1.5-1.5 0-.773-.687-1.551-1.5-1.5l-2.75.172c-.4.025-.817.017-1.213.073l-.139-.003c.34.028.577.183.71.465l-.007.05a3.67 3.67 0 0 1-.017-.278c-.075-1.828-.031-3.669-.044-5.499l-.082-11.189c-.015-1.929-3.015-1.933-3.001.001zm-51.484-34.881c-6.379 1.631-11.618 6.521-13.811 12.706-.271.764.307 1.642 1.048 1.845.83.228 1.573-.281 1.845-1.048 1.836-5.177 6.387-9.249 11.715-10.611 1.869-.477 1.077-3.372-.797-2.892z"/><path d="M5.291 114.402c.081.049.159.102.236.156.071.05-.07-.057-.022-.018l.055.045a3.094 3.094 0 0 1 .306.294c.032.035.062.071.092.108.012.015.066.083.014.016-.054-.069.005.007.012.017.108.149.203.308.281.474l.03.064c.043.091-.033-.084-.012-.028l.05.132c.033.094.06.189.083.285.061.255.364.43.615.349a.51.51 0 0 0 .349-.615 3.467 3.467 0 0 0-1.583-2.144c-.225-.134-.559-.058-.684.179a.51.51 0 0 0 .178.686zm-1.254 3.999a2205 2205 0 0 0 .866-2.335c.091-.246-.102-.559-.349-.615-.283-.065-.517.086-.615.349a2205 2205 0 0 0-.866 2.335c-.091.246.102.559.349.615.283.065.518-.086.615-.349zm-2.067-.656 1.273-1.94c.144-.219.051-.562-.179-.684a.511.511 0 0 0-.684.179l-1.273 1.94c-.144.219-.051.562.179.684a.51.51 0 0 0 .684-.179zM.854 115.8l1.845-1.476c.094-.075.146-.239.146-.354a.51.51 0 0 0-.146-.354.504.504 0 0 0-.354-.146.58.58 0 0 0-.354.146l-1.845 1.476c-.093.076-.146.241-.146.355a.51.51 0 0 0 .146.354c.095.087.22.152.354.146a.581.581 0 0 0 .354-.147z"/></g><path d="M84.114 114.981c4.525-1.849 8.663-4.947 11.058-9.209 2.394-4.262 2.827-9.753.467-14.034s-7.721-6.898-12.4-5.485c-3.843 1.161-6.512 4.534-9.174 7.539s-6.016 6.002-10.03 5.945h.264c-4.014.056-7.368-2.941-10.03-5.945-2.662-3.005-5.331-6.378-9.174-7.539-4.68-1.414-10.04 1.204-12.4 5.485s-1.928 9.772.467 14.034c2.394 4.262 6.532 7.361 11.058 9.209 6.411 2.619 13.405 2.942 20.244 2.893 6.676-.049 13.373-.329 19.65-2.893z" fill="#fcf1d5"/><path d="M84.246 115.463c4.209-1.737 8.084-4.453 10.642-8.276 2.61-3.902 3.625-9.029 2.121-13.544-1.342-4.029-4.79-7.208-8.982-8.053-2.052-.414-4.14-.223-6.066.603-2.078.892-3.814 2.405-5.362 4.023-3.467 3.623-6.943 9.031-12.565 9.022v1h.264v-1c-3.665.006-6.641-2.518-9.008-5.062-2.327-2.501-4.4-5.329-7.344-7.16-2.722-1.693-5.95-2.095-8.992-1.06-2.927.996-5.478 3.123-6.882 5.889-1.603 3.158-1.803 6.878-.917 10.276.879 3.37 2.858 6.353 5.419 8.687 5.64 5.142 13.375 6.935 20.796 7.406 4.037.256 8.115.226 12.155.046 4.005-.179 8.032-.632 11.881-1.793a33.103 33.103 0 0 0 2.84-1.004c.589-.238.332-1.206-.266-.964-7.224 2.919-15.267 3.003-22.948 2.86-7.385-.138-15.159-1.124-21.398-5.398-2.724-1.866-5.078-4.352-6.513-7.346-1.503-3.138-1.955-6.861-.984-10.224 1.76-6.095 8.875-10.06 14.729-6.848 5.779 3.172 8.381 10.643 15.099 12.403a9.173 9.173 0 0 0 2.332.292c.643-.001.645-1 0-1h-.264c-.643 0-.644.999 0 1 4.514.007 7.983-3.359 10.77-6.53 2.732-3.109 5.797-6.902 10.235-7.301 3.967-.357 7.975 1.889 9.992 5.278 2.388 4.014 2.078 9.225-.002 13.297-2.275 4.454-6.496 7.64-11.048 9.518-.586.241-.329 1.209.266.963z" fill="#fcf1d5"/><path d="M63.784 99.673v18.275c0 .643 1 .645 1 0V99.673c0-.643-1-.645-1 0zm16.977-12.652v29.052c0 .643 1 .645 1 0V87.021c0-.643-1-.644-1 0zm-36.352-.937v29.521c0 .643 1 .645 1 0V86.084c0-.643-1-.644-1 0z"/><path d="M30.566 98.328c7.683 6.723 17.875 9.655 27.835 10.809 9.478 1.099 19.414.782 28.053-3.707 4.513-2.345 8.364-5.817 10.967-10.202.329-.555-.535-1.058-.863-.505-4.666 7.86-13.168 12.062-21.965 13.436-4.719.737-9.499.62-14.24.18-4.993-.463-9.968-1.355-14.746-2.9-5.212-1.685-10.194-4.197-14.333-7.82-.484-.42-1.194.285-.708.709z"/><path d="M76.969 85.706a16.752 16.752 0 0 1 2.958-4.338l-.836-.221a4.342 4.342 0 0 0 1.497 1.943c.17.125.467.072.606-.078l2.529-2.74c.436-.472-.269-1.181-.707-.707l-2.529 2.74.606-.078a3.127 3.127 0 0 1-1.038-1.345c-.131-.33-.554-.519-.836-.221a17.583 17.583 0 0 0-3.114 4.541c-.274.577.588 1.085.864.504zm-22.883 1.17a59.441 59.441 0 0 0-4.343-6.099c-.329-.406-.954.037-.836.486.214.813.064 1.622-.399 2.32l.684-.179a12.38 12.38 0 0 0-4-1.925c-.621-.172-.886.793-.266.964 1.362.377 2.62.992 3.761 1.824.227.166.547.027.684-.179a3.81 3.81 0 0 0 .5-3.09l-.836.486a57.28 57.28 0 0 1 4.187 5.897c.339.546 1.204.044.864-.505z" fill="#e24122"/><path d="M120.009 6.886a1.455 1.455 0 0 1-1.721-.232 1.49 1.49 0 0 1-.405-.74c-.033-.146-.031-.147-.032-.312 0-.03.003-.06.005-.089 0 .006-.015.085-.004.029.011-.058.027-.112.045-.169-.028.088-.004.025.021-.025.046-.093-.043.023.016-.022.025-.019.139-.107.027-.035.039-.026.079-.05.119-.074.021-.012.043-.021.065-.032-.003.001-.088.034-.034.015a2.066 2.066 0 0 1 .442-.108c-.122.018.055-.004.079-.006l.153-.01c.119-.006.239-.008.358-.007.222.001.444.009.666.015.273.007.543-.006.815-.008.175-.002.37.001.528.069a.478.478 0 0 1 .158.108c.018.019.071.105.069.086.035.268.205.5.5.5.243 0 .535-.23.5-.5-.07-.539-.392-.938-.9-1.135-.433-.168-.889-.116-1.341-.115-.552.001-1.105-.053-1.655.012-.588.069-1.215.271-1.485.85-.351.753-.041 1.689.472 2.287.754.878 2.045 1.051 3.044.509.566-.304.062-1.168-.505-.861zm-2.032-2.891 3.377-1.162c.255-.088.424-.343.349-.615-.068-.248-.359-.437-.615-.349l-3.377 1.162c-.255.088-.424.343-.349.615.069.248.359.437.615.349z" fill="#1e7ec1"/><path d="m117.624 3.408 2.861-2.127c.209-.156.337-.44.179-.684-.134-.207-.46-.346-.684-.179l-2.861 2.127c-.209.156-.337.44-.179.684.133.207.459.346.684.179z" fill="#1e7ec1"/><path d="m116.68 3.27 1.993-2.418c.166-.202.212-.512 0-.707-.184-.169-.529-.216-.707 0l-1.993 2.418c-.166.202-.212.512 0 .707.184.168.53.215.707 0z" fill="#1e7ec1"/><path d="M104.586 96.411c6.742-1.373 11.677-7.27 13.537-13.663 2.313-7.949-.12-16.439-3.59-23.657-3.586-7.46-8.614-14.174-11.82-21.825-1.546-3.689-2.698-7.636-2.918-11.646a23.665 23.665 0 0 1 1.716-10.291c1.034-2.536 2.669-5.015 4.821-6.879.493-.427.906-.735 1.552-1.138a13.455 13.455 0 0 1 1.769-.928c1.416-.567 2.712-.831 4.113-.87.809-.022 1.616.031 2.418.137.805.107 1.5-.766 1.5-1.5 0-.899-.693-1.393-1.5-1.5-3.194-.423-6.451.168-9.266 1.746-2.697 1.513-4.876 3.856-6.483 6.474-1.679 2.734-2.817 5.871-3.325 9.037-.664 4.14-.299 8.342.753 12.389 2.125 8.177 6.858 15.258 10.998 22.509 4.012 7.026 7.689 14.832 7.091 23.135a19.024 19.024 0 0 1-3.093 9.143c-1.629 2.479-4.052 4.708-6.772 5.766-.745.29-1.512.508-2.295.668-.794.162-1.252 1.102-1.048 1.845.224.826 1.046 1.21 1.842 1.048z" fill="#1e7ec1"/></svg></g><g transform="translate(323.0 146.0) rotate(0.0 51.5 50.5) scale(1.9821796278120971 2.0143597925807737)"><svg width="51.963" height="50.14" viewBox="0 0 51.963 50.14"><g fill="#e24122"><path d="M51.416 41.795a4.858 4.858 0 0 0-.055-1.666c-.229-1.109-.851-2.155-1.825-2.762-1.096-.683-2.84-.218-3.998.029-1.979.422-4.543 1.47-6.552 1.412-1.663-.048-3.678-1.689-4.945-2.723-.662-.544-1.154-1.103-1.728-1.574.088-.118.184-.228.272-.346 1.655-2.103 3.339-4.177 5.023-6.258 1.456-1.802 3.309-3.633 4.17-5.817 1.008-2.537-.537-3.471-2.228-4.956-2.206-1.949-4.405-3.897-6.611-5.846-1.404-1.243-2.824-2.478-4.221-3.736-1.184-1.059-2.096-1.912-3.787-1.103-.904.434-1.61 1.184-2.294 1.919l-1.743 1.853c.081-.316.14-.632.162-.971.14-2.118-.529-4.295-1.912-5.905-1.978-2.309-5.309-3.361-8.251-2.603-3.214.832-5.678 3.627-6.766 6.767-1.081 3.14-.949 6.582-.346 9.847.456 2.471 1.176 4.883 1.824 7.31.11.404.176.919.272 1.434a228.983 228.983 0 0 0-3.625 3.978c-.875.978-1.794 2.103-1.75 3.412.052 1.368 1.133 2.434 2.14 3.361l11.229 10.236c.993.912 2.03 1.846 3.294 2.309 1.574.581 2.794.059 3.831-.86.809-.36 1.596-.816 2.191-1.015 3.355-1.119 7.088-1.109 10.576-1.253 4.586-.189 8.022-2.158 12.216-3.582 1.703-.578 3.749-.567 5.127.589-.162-.137.27-1.214.31-1.48zM17.312 12.458c-.118.603-.463 1.427-.691 2.265a1238.727 1238.727 0 0 0-7.442 7.817c-.015-.037-.037-.066-.052-.103a18.278 18.278 0 0 1-1.559-4.111 18.75 18.75 0 0 1-.162-8.501c.434-2.022 1.427-4.111 3.317-5.126 2.228-1.199 5.331-.022 6.28 2.39.677 1.736.669 3.567.309 5.369z"/><path d="M51.916 41.795c.223-1.909-.611-4.312-2.546-5.063-.882-.342-1.87-.228-2.779-.065a29.19 29.19 0 0 0-2.859.682c-1.92.548-4.179 1.472-6.122.583-1.923-.88-3.357-2.435-4.943-3.774v.707c2.164-2.75 4.341-5.496 6.608-8.163.961-1.13 1.929-2.293 2.603-3.623.552-1.091.983-2.363.51-3.559-.42-1.061-1.374-1.781-2.212-2.502-1.361-1.17-2.693-2.376-4.037-3.565a2069.64 2069.64 0 0 0-4.132-3.651c-1.258-1.107-2.471-2.3-3.789-3.335-1.217-.956-2.545-1.062-3.891-.259-1.482.884-2.62 2.42-3.787 3.661l.836.486c.699-2.898-.431-6.204-2.663-8.153C16.618.373 13.66-.413 10.941.217c-2.72.63-4.956 2.635-6.322 5.015-1.591 2.77-1.972 6.055-1.728 9.195.155 1.998.553 3.967 1.039 5.908.492 1.967 1.11 3.899 1.467 5.896l.129-.486c-.862.925-1.718 1.857-2.565 2.796-.737.816-1.526 1.617-2.145 2.53-.547.807-.914 1.758-.779 2.744.127.93.648 1.723 1.263 2.409.806.899 1.757 1.677 2.648 2.489l2.853 2.601 5.707 5.202c1.552 1.414 3.223 3.278 5.418 3.581.909.126 1.811-.091 2.588-.575.425-.264.784-.571 1.238-.791.494-.239.979-.513 1.495-.702 4.474-1.643 9.335-.689 13.906-1.72 2.354-.531 4.577-1.489 6.82-2.357 2.098-.812 4.755-1.941 6.783-.325.415.331 1.104-.083.785-.606.08.132.062-.059.091-.171.03-.114.065-.227.1-.34.059-.194.128-.385.169-.583.129-.628-.834-.897-.964-.266-.113.548-.588 1.323-.258 1.865l.785-.606c-2.797-2.23-6.265-.523-9.137.609-1.648.65-3.305 1.292-5.028 1.718-1.837.454-3.677.523-5.558.593-1.91.071-3.824.172-5.713.481-.931.153-1.856.357-2.755.645-.778.249-1.488.649-2.224.996-.729.344-1.24.954-2.07 1.124-.952.195-1.898-.193-2.694-.689-1.642-1.023-3.027-2.551-4.45-3.848-3.064-2.794-6.199-5.528-9.197-8.392-.631-.603-1.297-1.282-1.542-2.144-.251-.88.093-1.714.585-2.439.525-.774 1.201-1.453 1.825-2.147.682-.757 1.369-1.51 2.061-2.258.261-.282.736-.61.805-1.006.064-.366-.121-.899-.195-1.262-.195-.955-.5-1.894-.755-2.835-.533-1.966-1.046-3.947-1.34-5.965-.53-3.636-.36-7.574 1.644-10.765 1.709-2.721 4.636-4.633 7.932-4.297 3.46.352 6.266 2.961 6.822 6.398.142.878.144 1.785-.064 2.65-.113.468.481.863.836.486.982-1.044 1.918-2.218 3.036-3.121.532-.432 1.235-.852 1.95-.822.602.025 1.108.398 1.552.771 2.445 2.052 4.792 4.237 7.183 6.352l3.58 3.167c.85.751 1.886 1.458 2.57 2.374.772 1.035.431 2.214-.109 3.28-.637 1.258-1.539 2.353-2.447 3.421-2.266 2.667-4.443 5.413-6.608 8.163-.156.198-.225.517 0 .707 1.519 1.282 2.886 2.702 4.647 3.675.735.406 1.532.73 2.38.768.941.042 1.91-.165 2.817-.388 1.877-.46 3.729-1.184 5.663-1.379 1.035-.104 1.88.103 2.571.918.783.923 1.015 2.159.878 3.335-.074.639.927.634 1.001.001z"/><path d="M16.83 12.325c-.103.466-.263.914-.412 1.366-.2.605-.381.919-.83 1.388l-2.206 2.306a982.688 982.688 0 0 0-4.557 4.801l.785.101c-1.986-3.966-2.754-8.618-1.569-12.955.471-1.724 1.439-3.557 3.159-4.31 1.407-.616 3.126-.232 4.265.756 1.801 1.561 1.776 4.399 1.365 6.547-.12.629.843.898.964.266.426-2.221.472-4.942-.98-6.828-1.084-1.407-2.918-2.205-4.688-2.004-4.786.544-5.762 6.866-5.616 10.672.113 2.946.923 5.735 2.238 8.361.142.285.575.325.785.101a919.921 919.921 0 0 1 4.811-5.067l2.376-2.483c.378-.395.456-.759.626-1.275.161-.489.338-.973.449-1.476.138-.629-.826-.896-.965-.267zm24.225 3.534c.999-2.878.111-6.316-2.156-8.351s-5.781-2.547-8.535-1.244z"/><path d="M41.537 15.992c1.022-3.055.126-6.674-2.285-8.838-2.467-2.214-6.15-2.696-9.141-1.322-.286.131-.325.585-.101.785l9.363 8.403 1.328 1.192c.478.429 1.187-.276.707-.707l-9.363-8.403-1.328-1.192-.101.785c2.612-1.2 5.941-.706 8.045 1.272 2.078 1.953 2.812 5.069 1.912 7.758-.205.613.761.875.964.267z"/></g><path d="M50.605 42.531c.753-.159.891-.951.803-1.597-.091-.672-.347-1.318-.633-1.929-.241-.517-.56-1.035-1.098-1.288-.418-.197-.893-.169-1.191.219-.379.491-.276 1.131-.128 1.688.161.605.404 1.194.711 1.739.283.501.717 1.273 1.402 1.187.268-.034.5-.206.5-.5 0-.244-.23-.534-.5-.5l-.048.006c-.061 0-.063 0-.006.001.095.066-.07-.052.011.008a.622.622 0 0 1-.075-.07c.002.002-.107-.126-.054-.058a4.734 4.734 0 0 1-.381-.605 6.065 6.065 0 0 1-.502-1.154c-.115-.359-.288-.793-.144-1.141-.045.108.009.002.019-.018-.051.096-.031.037.006.006-.007.006-.099.069-.031.031l-.069.03c.052-.013.034-.012-.054.003.105-.008-.005-.024-.022-.013a.267.267 0 0 1 .057.013c.035.012.115.055-.004-.008.034.018.068.034.101.053.024.014.047.032.071.046.101.057-.078-.072.01.006.044.039.088.077.13.118.044.044.081.096.125.138.049.047-.064-.101-.011-.013l.056.085c.087.141.16.292.231.441.05.106.097.213.144.32.035.08-.005-.012-.01-.024l.04.098.079.203c.099.264.185.534.246.809.015.068.025.138.04.206.024.112-.007-.089-.001-.017.003.038.009.075.011.113.005.061.007.123.006.184l-.004.087c-.005.117.01-.025.002-.01s-.05.147-.045.159c-.01-.023.053-.121.015-.044-.053.105.018-.021.02-.016.002.006-.043.045-.047.049-.068.06.103-.075.027-.024-.088.06.016-.036.032-.009l-.101.028c-.264.056-.418.366-.349.615.073.273.348.405.613.349zM27.357 8.118l12.575 11.435c.475.432 1.184-.273.707-.707L28.064 7.411c-.475-.432-1.184.273-.707.707zm-9.839-5.683c1.912 1.615 3.203 3.958 3.263 6.476.03 1.254-.145 2.502-.291 3.744-.174 1.483-.376 2.961-.662 4.427-.123.629.841.898.964.266.296-1.513.503-3.041.684-4.572.168-1.419.376-2.851.288-4.283-.161-2.605-1.554-5.088-3.539-6.765-.489-.413-1.2.291-.707.707zm3.655 44.861c.241-6.067 4.608-11.112 10.403-12.663.621-.166.358-1.131-.266-.964-6.233 1.668-10.878 7.118-11.137 13.627-.026.643.974.642 1 0zM3.145 9.704c-.739 3.487.01 6.979.737 10.401.361 1.698.859 3.361 1.203 5.064.367 1.818.645 3.651.837 5.496.066.634 1.067.64 1 0a61.233 61.233 0 0 0-.736-5.063c-.325-1.711-.783-3.381-1.186-5.074-.811-3.405-1.63-7.072-.891-10.559.133-.627-.831-.896-.964-.265zm3.505 6.475a21.324 21.324 0 0 0 5.223 10.658c.433.478 1.139-.231.707-.707a20.388 20.388 0 0 1-4.966-10.216c-.11-.634-1.074-.366-.964.265z"/></svg></g><g transform="translate(402.0 132.0) rotate(0.0 14.5 14.5) scale(2.0655270655270654 1.965435445611657)"><svg width="14.04" height="14.755" viewBox="0 0 14.04 14.755"><g fill="#e24122"><path d="M11.61 2.646 5.475 8.664c-.46.451.247 1.158.707.707l6.135-6.017c.461-.452-.247-1.159-.707-.708zM.997 7.487 3.512.606C3.733.001 2.767-.26 2.548.34L.033 7.221c-.222.605.744.866.964.266zm7.27 7.267 5.273-.459c.269-.023.5-.213.5-.5 0-.252-.229-.524-.5-.5l-5.273.459c-.269.023-.5.213-.5.5 0 .252.23.523.5.5z"/></g></svg></g><g transform="translate(413.0 240.0) rotate(0.0 11.5 26.5) scale(2.272502717122814 2.1066857460847443)"><svg width="10.121" height="25.158" viewBox="0 0 10.121 25.158"><g fill="#1e7ec1"><path d="M6.911 4.405c-.363-1.327-.75-2.65-1.321-3.904-.416 1.002-.706 2.084-1.053 3.116-.182.54-.363 1.081-.541 1.623-.138.421-.444.988-.462 1.429-.812 2.568-1.584 5.151-2.197 7.775-.488 2.089-1.09 4.088-.735 6.227.347 2.092 1.606 3.717 3.815 3.933l.778.03c3.234-.064 4.218-2.801 4.385-5.537.027-.449.039-.899.04-1.349.003-2.003-.647-4.126-1.033-6.099-.416-2.126-.863-4.247-1.43-6.338l-.246-.906z"/><path d="M7.394 4.272C7.017 2.901 6.602 1.549 6.022.249c-.197-.441-.773-.229-.914.119-.383.946-.663 1.925-.98 2.894-.301.92-.658 1.821-.959 2.739-.625 1.907-1.161 3.877-1.685 5.817C.954 13.783.387 15.797.11 17.815c-.225 1.644-.151 3.404.649 4.895 1.189 2.212 4.075 3.02 6.341 2.03 2.674-1.168 3.05-4.55 3.018-7.103-.027-2.196-.696-4.336-1.118-6.475a100.296 100.296 0 0 0-1.606-6.89c-.169-.62-1.134-.357-.965.266.962 3.532 1.753 7.141 2.428 10.74.304 1.623.377 3.33.096 4.964-.194 1.127-.578 2.315-1.466 3.09-1.724 1.505-4.743.884-5.827-1.057-.791-1.416-.767-3.163-.506-4.717.302-1.801.789-3.593 1.262-5.355.532-1.982 1.089-3.987 1.717-5.936.296-.918.658-1.82.959-2.739.318-.969.597-1.948.98-2.894l-.914.119c.544 1.219.918 2.5 1.271 3.785.17.62 1.135.357.965-.266z"/></g></svg></g><g transform="translate(377.0 397.0) rotate(0.0 84.0 36.0) scale(2.0224881419594056 2.011397921555481)"><svg width="83.066" height="35.796" viewBox="0 0 83.066 35.796"><g fill="#1e7ec1"><path d="M59.1 27.514c8.567-4.271 15.75-11.196 20.411-19.551A47.376 47.376 0 0 0 82.819.609c.214-.608-.752-.87-.964-.266-3.113 8.853-8.987 16.7-16.561 22.235a46.666 46.666 0 0 1-6.698 4.073c-.577.287-.071 1.15.504.863zm14.3-1.446A41.682 41.682 0 0 0 83 14.413c.313-.563-.551-1.068-.863-.505a40.902 40.902 0 0 1-9.443 11.453c-.495.415.216 1.119.706.707zM.171 22.613a42.958 42.958 0 0 0 21.079 9.091c2.177.297 4.37.425 6.566.382.643-.013.645-1.013 0-1a41.925 41.925 0 0 1-21.579-5.523 41.025 41.025 0 0 1-5.359-3.657c-.496-.4-1.208.303-.707.707zm5.731 9.104a43.246 43.246 0 0 0 12.5 4.071c.63.102.9-.861.266-.964a42.351 42.351 0 0 1-12.261-3.97c-.574-.289-1.08.574-.505.863z"/></g></svg></g><g transform="translate(45.0 173.0) rotate(0.0 44.0 44.0) scale(1.9932049830124576 1.9701345512346922)"><svg width="44.15" height="44.667" viewBox="0 0 44.15 44.667"><g fill="#f6a50c"><path d="M11.333 27.02c5.246 10.471 21.137 4.829 20.403-5.987-.726-10.709-15.005-15.375-20.241-4.94-1.695 3.376-1.854 7.55-.162 10.927z"/><path d="M10.901 27.273c1.033 2.031 2.626 3.772 4.694 4.772 1.907.922 4.054 1.205 6.146.929 4.217-.558 8.14-3.3 9.76-7.285 1.761-4.332.337-9.53-3.02-12.682-3.135-2.945-7.886-4.19-11.937-2.495-5.37 2.247-7.879 8.887-6.54 14.334.207.841.517 1.649.897 2.427.283.578 1.145.072.863-.505-2.434-4.978-.783-11.976 4.14-14.83 3.454-2.003 7.812-1.34 10.934.987 3.371 2.512 5.176 7.045 4.136 11.168-.961 3.813-4.249 6.653-7.984 7.625-2.044.532-4.235.499-6.222-.248-2.242-.843-3.932-2.592-5.005-4.7-.29-.576-1.153-.07-.862.503zM19.386 4.32 18.698.365c-.046-.266-.373-.416-.615-.349-.281.077-.396.348-.349.615l.688 3.955c.046.266.373.416.615.349.281-.077.396-.348.349-.615zM30.66 7.442l1.888-3.098c.136-.224.056-.56-.179-.684a.51.51 0 0 0-.684.179l-1.888 3.098c-.136.224-.056.56.179.684a.51.51 0 0 0 .684-.179zm6.776 6.951 2.751-.86c.249-.078.434-.352.349-.615-.081-.251-.348-.433-.615-.349l-2.751.86c-.249.078-.434.352-.349.615.081.25.348.432.615.349zm2.103 9.962 4.128.128c.644.02.643-.98 0-1l-4.128-.128c-.643-.02-.643.98 0 1zm-5.027 10.056 2.58 2.751a.504.504 0 0 0 .707 0 .51.51 0 0 0 0-.707l-2.58-2.751a.504.504 0 0 0-.707 0 .51.51 0 0 0 0 .707zm-9.02 6.107 1.205 3.783a.51.51 0 0 0 .615.349c.253-.07.431-.357.349-.615l-1.205-3.783a.51.51 0 0 0-.615-.349c-.253.069-.431.356-.349.615zm-11.405-.44-.848 3.786a.511.511 0 0 0 .349.615c.251.069.556-.085.615-.349l.848-3.786a.511.511 0 0 0-.349-.615c-.251-.069-.556.085-.615.349zm-7.988-6.825-2.579 1.72c-.217.145-.332.448-.179.684.14.217.451.335.684.179l2.579-1.72c.217-.145.332-.448.179-.684-.14-.216-.451-.334-.684-.179zM4.626 21.617.5 22.142c-.268.034-.5.205-.5.5 0 .244.23.534.5.5l4.126-.525c.268-.034.5-.205.5-.5 0-.244-.231-.535-.5-.5zM8.94 9.774 6.705 7.195c-.172-.198-.533-.189-.707 0-.194.211-.183.496 0 .707l2.235 2.579c.172.198.533.189.707 0 .194-.211.184-.496 0-.707z"/></g></svg></g><g transform="translate(328.0 150.0) rotate(0.0 8.0 4.5) scale(2.277580071174377 1.9007391763463568)"><svg width="7.025" height="4.735" viewBox="0 0 7.025 4.735"><path d="M.482 1.117c1.243-.047 2.682-.397 3.849.192 1.092.551 1.73 1.737 1.693 2.943-.02.644.98.643 1 0 .046-1.477-.727-2.957-2.011-3.71C3.619-.276 2.006.059.482.117c-.641.024-.644 1.025 0 1z" fill="#1e7ec1"/></svg></g><g transform="translate(196.0 162.0) rotate(0.0 20.0 20.0) scale(2.359742788036104 2.4926777590826945)"><svg width="16.951" height="16.047" viewBox="0 0 16.951 16.047"><path d="M3.435 14.877A17.339 17.339 0 0 1 .602 3.999c.068-.868.266-1.836.992-2.316.803-.531 1.943-.199 2.62.486S5.219 3.8 5.535 4.709c.317.909.666 1.852 1.37 2.509-.517-1.388-1.042-2.865-.754-4.317S7.889.122 9.311.535c.945.275 1.552 1.187 1.957 2.084 1.539 3.402 1.338 7.302 1.106 11.029"/><path d="M3.867 14.625C1.83 11.525.822 7.812 1.095 4.105c.053-.723.168-1.721.906-2.08.88-.428 1.843.338 2.285 1.04.914 1.451 1.003 3.253 2.267 4.507.334.332 1.016 0 .836-.486-.61-1.642-1.443-3.826-.116-5.342.526-.602 1.346-1 2.126-.644.709.323 1.131 1.096 1.439 1.773 1.523 3.345 1.259 7.207 1.038 10.777-.04.643.96.64 1 0 .141-2.274.274-4.568.005-6.837-.232-1.956-.702-4.284-2.034-5.82-1.281-1.479-3.294-1.23-4.455.251-1.418 1.81-.689 4.166.031 6.106l.836-.486c-1.48-1.469-1.277-3.951-2.965-5.288-.692-.549-1.659-.83-2.517-.535C.953 1.324.473 2.091.268 2.9-.228 4.853.04 7.142.459 9.085a17.915 17.915 0 0 0 2.544 6.045c.352.535 1.218.035.864-.505z"/><path d="m.764 16.041 15.825-2.381c.634-.095.365-1.059-.266-.964L.498 15.077c-.634.095-.365 1.059.266.964z"/><path d="M3.799 14.166a38.718 38.718 0 0 1 8.56-1.385c.641-.031.644-1.031 0-1a39.957 39.957 0 0 0-8.825 1.42c-.619.173-.356 1.138.265.965z" fill="#fcf1d5"/></svg></g><g transform="translate(351.0 274.0) rotate(0.0 102.0 87.0) scale(2.008407746153013 2.0068741205508522)"><svg width="101.573" height="86.702" viewBox="0 0 101.573 86.702"><path d="M83.938 68.307a33.653 33.653 0 0 1-4.203 5.521c-3.754 3.984-8.396 7.024-13.467 9.077-4.456 1.833-9.241 2.897-14.037 3.194-8.473.538-17.253-1.295-24.277-6.08-8.868-6.047-14.312-16.66-14.466-27.394-.11-7.101 2.031-14.147 5.817-20.151a38.564 38.564 0 0 1 7.057-8.275c5.202-4.566 11.623-7.661 18.373-9.131 2.129-.461 4.39-.834 6.684-1.021 3.666-.329 7.43-.176 10.909.845 3.797 1.109 7.364 2.557 10.701 4.719 6.256 4.061 11.327 10.031 14.015 17.012 3.963 10.271 2.634 22.333-3.106 31.684z" fill="#1e7ec1"/><path d="M83.507 68.055c-4.045 6.573-10.258 11.466-17.371 14.367-7.355 3-15.576 4.006-23.43 2.751-7.222-1.154-14.082-4.287-19.214-9.568-4.75-4.887-7.9-11.26-9.045-17.968-1.275-7.47.153-15.247 3.604-21.959 3.536-6.879 9.136-12.501 15.947-16.148a41.898 41.898 0 0 1 10.457-3.891c4.031-.92 8.234-1.452 12.372-1.186 4.044.26 8.014 1.541 11.676 3.237a35.573 35.573 0 0 1 9.102 6.094c5.26 4.833 9.023 11.157 10.488 18.167 1.483 7.094.674 14.636-2.125 21.31a35.883 35.883 0 0 1-2.461 4.794c-.336.551.529 1.054.863.505 3.903-6.4 5.807-13.988 5.393-21.474a34.903 34.903 0 0 0-7.846-20.189 37.578 37.578 0 0 0-7.976-7.28c-3.315-2.254-7.012-3.852-10.838-5.017-4.156-1.266-8.451-1.411-12.75-.954-3.997.424-7.968 1.287-11.734 2.704-7.343 2.763-13.786 7.518-18.397 13.884-4.691 6.475-7.374 14.47-7.233 22.486.124 7.014 2.455 13.981 6.537 19.683 4.292 5.995 10.404 10.276 17.434 12.46 7.656 2.379 16.056 2.385 23.798.396C68.381 83.3 75.617 79.3 80.844 73.352a35.23 35.23 0 0 0 3.526-4.791c.338-.551-.526-1.054-.863-.506z" fill="#1e7ec1"/><g fill="#2fb195"><path d="M66.268 82.904c-4.456 1.833-9.241 2.897-14.037 3.194-8.473.538-17.253-1.295-24.277-6.08-8.868-6.047-14.312-16.66-14.466-27.394-.11-7.101 2.031-14.147 5.817-20.151 3.937-.423 8.348.169 11.743 2.324 3.768 2.391 5.683 12.965 1.893 15.785-1.525 1.134-4.285 1.144-3.547 3.796.501 1.8 6.419 5.075 1.762 7.134-3.136 1.385-7.818-2.331-9.894 1.988-1.524 3.171.794 7.628 3.816 8.902 2.656 1.119 5.762.395 8.308-.966s4.73-3.293 7.189-4.807c2.787-1.712 6.157-2.865 9.34-2.074 3.699.933 6.267 4.204 8.528 7.277 2.009 2.711 4.017 5.433 6.014 8.144.681.92 1.383 1.886 1.811 2.928z"/><path d="M66.135 82.422c-11.523 4.702-25.682 4.641-36.502-1.918-9.51-5.765-15.416-16.633-15.642-27.689-.145-7.098 1.988-14.095 5.745-20.09l-.432.248c2.392-.246 4.826-.147 7.164.441 1.832.46 3.97 1.183 5.259 2.641.981 1.109 1.594 2.55 2.024 3.951.496 1.612.765 3.302.749 4.991-.014 1.419-.213 2.941-.963 4.175-.782 1.287-2.142 1.543-3.367 2.246-1.261.724-1.791 2.136-1.098 3.486.586 1.142 1.726 1.979 2.524 2.965.356.44.789 1 .832 1.59.048.67-.526 1.098-1.055 1.39-1.494.825-3.193.402-4.785.162-1.518-.228-3.189-.381-4.484.612-1.458 1.118-1.984 3.115-1.771 4.875.223 1.844 1.133 3.617 2.451 4.921 1.48 1.465 3.482 2.121 5.55 2.022 5.197-.25 8.795-4.279 13.047-6.709 2.132-1.218 4.584-2.09 7.072-1.909 2.323.169 4.337 1.406 5.982 2.986 1.701 1.634 3.062 3.576 4.459 5.464 1.665 2.25 3.326 4.502 4.986 6.754.732.994 1.468 1.987 1.957 3.129.253.59 1.114.081.863-.505-.849-1.982-2.371-3.69-3.641-5.412-1.393-1.889-2.79-3.774-4.185-5.662-2.106-2.85-4.415-5.882-7.838-7.192-3.795-1.453-7.939.016-11.184 2.107-3.466 2.234-6.706 5.448-10.998 5.908-1.844.198-3.728-.197-5.127-1.463-1.214-1.099-2.083-2.628-2.363-4.245-.259-1.49.077-3.313 1.346-4.28 1.061-.809 2.527-.604 3.755-.414 1.316.203 2.668.494 3.998.245 1.113-.209 2.53-.934 2.882-2.101.638-2.118-2.04-3.86-3.124-5.296-.316-.419-.506-.899-.443-1.438.068-.586.519-.922 1.004-1.184 1.037-.561 2.194-.851 3.02-1.747 1.654-1.794 1.836-4.616 1.643-6.922-.218-2.608-.941-5.409-2.496-7.557-1.873-2.588-5.481-3.583-8.498-3.972a21.703 21.703 0 0 0-4.34-.123c-.378.027-.92-.025-1.199.269-.317.334-.547.873-.778 1.271a39.059 39.059 0 0 0-2.114 4.215c-1.617 3.777-2.635 7.799-2.941 11.899-.552 7.399 1.373 14.909 5.327 21.18 4.066 6.448 10.155 11.221 17.347 13.729 7.789 2.716 16.454 2.873 24.439.935a43.746 43.746 0 0 0 6.209-2.013c.588-.241.331-1.209-.266-.966zm17.968-19.153c-1.916-.128-3.245-2.065-4.197-3.78-.759-1.367-1.706-2.815-3.209-3.246-2.214-.636-4.279 1.194-6.384 2.129-2.681 1.191-5.974.876-8.382-.8-3.701-2.577-4.809-7.304-1.513-10.6 1.767-1.778 4.105-2.897 5.894-4.654 1.789-1.756 2.952-4.632 1.635-6.761-1.449-2.327-4.884-2.338-7.452-1.405-2.579.944-5.016 2.557-7.76 2.568-3.512.011-6.618-2.832-7.628-6.19-.999-3.369-.208-7.057 1.405-10.174 1.339-2.59 2.831-4.752 4.906-6.311 3.666-.329 7.43-.176 10.909.845 3.797 1.109 7.364 2.557 10.701 4.719 6.256 4.061 11.327 10.031 14.015 17.012 2.481 6.434 2.962 13.735 1.628 20.481-.409 2.07-.694 4.832-2.832 5.811-.626.287-1.204.391-1.736.356z"/><path d="M84.103 62.769c-2.677-.257-3.579-3.717-5.05-5.47-.794-.946-1.853-1.613-3.109-1.683-1.33-.073-2.591.561-3.724 1.182-1.261.69-2.468 1.4-3.901 1.664-1.386.255-2.836.125-4.168-.325-2.39-.807-4.455-2.85-5.038-5.336-.619-2.639.754-4.839 2.747-6.448 2.174-1.755 4.832-3.041 6.248-5.566 1.169-2.083 1.367-4.879-.643-6.528-1.771-1.453-4.378-1.396-6.471-.794-2.779.799-5.271 2.752-8.258 2.755-2.595.003-4.921-1.666-6.241-3.823-1.557-2.543-1.608-5.682-.841-8.495.765-2.809 2.313-5.635 4.266-7.799.43-.476.89-.948 1.396-1.344.599-.469 1.711-.334 2.453-.355 1.675-.048 3.36.014 5.021.243 3.13.431 6.23 1.496 9.112 2.771 5.258 2.326 9.897 5.935 13.496 10.416 3.698 4.604 6.103 10.095 7.042 15.921a37.74 37.74 0 0 1 .303 9.377c-.135 1.497-.392 2.968-.667 4.444-.208 1.12-.394 2.301-.921 3.325-.603 1.175-1.705 1.918-3.052 1.868-.644-.024-.643.976 0 1a4.16 4.16 0 0 0 3.378-1.533c.75-.936 1.097-2.122 1.343-3.277.628-2.949 1.047-5.941 1.074-8.96.057-6.302-1.423-12.611-4.543-18.105-2.881-5.075-7.034-9.409-11.908-12.608-2.683-1.761-5.619-3.103-8.652-4.141-3.21-1.098-6.449-1.739-9.849-1.756a36.685 36.685 0 0 0-2.59.082c-.332.022-.749-.01-1.071.091-.324.102-.648.459-.899.678-1.099.954-2.024 2.097-2.825 3.308-1.697 2.567-3.012 5.457-3.328 8.544-.292 2.844.381 5.704 2.204 7.938 1.624 1.99 4.109 3.334 6.717 3.176 3.085-.187 5.579-2.175 8.512-2.885 2.292-.555 5.646-.283 6.265 2.515.675 3.049-2.128 5.46-4.314 7.007-2.216 1.569-4.693 3.169-5.437 5.953-.631 2.361.171 4.819 1.732 6.634 1.82 2.115 4.591 3.282 7.375 3.147 1.417-.069 2.743-.472 3.998-1.124 1.297-.674 2.607-1.658 4.099-1.823 3.038-.334 4.029 3.516 5.598 5.36.817.96 1.845 1.657 3.119 1.779.642.061.638-.939.002-1z"/><path d="M88.085 60.992c5.179-12.697 6.988-26.73 5.268-40.331A79.609 79.609 0 0 0 91.1 9.401c-.171-.619-1.136-.356-.964.266 3.623 13.094 3.78 27.087.507 40.271a79.04 79.04 0 0 1-3.522 10.789c-.243.594.724.853.964.265zM53.011 84.79c-4.075.353-8.177.773-12.267.391-4.027-.376-8-1.618-11.679-3.27a45.606 45.606 0 0 1-16.852-13.017 41.838 41.838 0 0 1-6.009-10.126c-.243-.586-1.211-.329-.964.266 2.741 6.618 7.138 12.471 12.639 17.05 5.899 4.91 13.233 8.662 20.865 9.848 4.743.737 9.518.269 14.267-.142.636-.055.642-1.056 0-1zm32.317-44.485a53.52 53.52 0 0 0-10.55-27.442 52.89 52.89 0 0 0-5.58-6.29c-.464-.446-1.173.26-.707.707 7.027 6.744 12.063 15.456 14.458 24.894a51.235 51.235 0 0 1 1.379 8.131c.055.636 1.056.642 1 0zM17.3 58.035c-3.421-7.502-4.971-15.815-4.535-24.046.125-2.358.418-4.702.871-7.019.123-.629-.841-.898-.964-.266a52.66 52.66 0 0 0 1.216 25.075 52.654 52.654 0 0 0 2.549 6.762c.266.583 1.128.076.863-.506z"/><path d="M92.842 45.702a16.292 16.292 0 0 1 8.355-5.937l-.565-.735a18.496 18.496 0 0 1-8.282 6.602c-.59.236-.333 1.204.266.964a19.675 19.675 0 0 0 8.879-7.061c.251-.361-.164-.857-.565-.734a17.41 17.41 0 0 0-8.953 6.397c-.378.52.49 1.019.865.504zm.504-11.252c-2.962-1.462-5.241-4.12-6.2-7.286l-.615.615c3.029.652 5.527 3.04 6.296 6.044.159.623 1.124.359.964-.266-.85-3.321-3.64-6.021-6.994-6.743-.359-.077-.731.232-.615.615 1.03 3.4 3.471 6.309 6.66 7.884.574.284 1.082-.578.504-.863zm.037-14.978c1.17-2.853 3.564-5.187 6.44-6.293l-.615-.615c-.73 3.205-3.194 5.897-6.339 6.871-.613.19-.351 1.155.266.964 3.466-1.073 6.231-4.025 7.038-7.569.077-.338-.237-.76-.615-.615a12.624 12.624 0 0 0-7.138 6.991c-.103.252.112.547.349.615.285.082.512-.101.614-.349zM90.44 9.183a3.872 3.872 0 0 1-2.226-1.145c-.599-.607-1.024-1.442-1.107-2.244l-.633.482a7.065 7.065 0 0 1 3.6 3.06c.323.557 1.187.054.863-.505a8.13 8.13 0 0 0-4.198-3.52c-.285-.106-.665.174-.633.482.236 2.267 2.072 4.12 4.333 4.388.269.032.5-.253.5-.5.001-.294-.23-.466-.499-.498zM69.092 6.641c-.164-2.01.155-4.044.974-5.891h-.863c.991 1.818.775 4.11-.468 5.75-.163.215-.034.559.179.684.257.15.521.037.684-.179 1.456-1.922 1.616-4.654.468-6.76-.166-.305-.71-.347-.863 0-.891 2.01-1.289 4.201-1.111 6.396.052.637 1.052.642 1 0zm4.075 4.764a9.965 9.965 0 0 0-6.681.288c-.375.154-.527.682-.119.914 2.208 1.256 4.916 1.347 7.217.287.584-.269.076-1.131-.505-.863-1.967.906-4.331.78-6.207-.287l-.119.914a9.095 9.095 0 0 1 6.15-.288c.614.189.878-.776.264-.965zm4.157 5.121a13.558 13.558 0 0 1 2.958-7.376l-.836-.221c.719 2.721-.283 5.701-2.457 7.475-.499.407.212 1.111.707.707 2.442-1.993 3.517-5.409 2.714-8.448-.089-.337-.593-.52-.836-.221a14.732 14.732 0 0 0-3.251 8.084c-.052.641.948.638 1.001 0zm-64.082 9.949c-1.187-1.335-1.761-3.119-1.628-4.895l-.752.432c1.655.965 2.592 3.008 2.2 4.891-.131.628.833.897.964.266.483-2.323-.603-4.822-2.66-6.021-.347-.202-.725.062-.752.432-.153 2.04.565 4.077 1.92 5.602.43.482 1.135-.228.708-.707zm-.532 6.935a10.856 10.856 0 0 1 4.479-3.002l-.615-.615c-.341 1.887-2.073 3.378-3.997 3.381-.643.001-.645 1.001 0 1 2.34-.004 4.542-1.801 4.961-4.116.062-.344-.224-.752-.615-.615a11.9 11.9 0 0 0-4.921 3.259c-.428.478.277 1.188.708.708zm-.765 6.774c-2.194-.804-4.002-2.482-5.019-4.579l-.565.734c2.19.421 4.124 1.975 4.927 4.071.097.252.337.426.615.349.241-.066.446-.362.349-.615-.925-2.412-3.075-4.279-5.626-4.77a.508.508 0 0 0-.565.735c1.133 2.336 3.185 4.147 5.616 5.039.254.093.548-.104.615-.349.078-.279-.093-.522-.347-.615zm-6.307 18.37A6.169 6.169 0 0 1 .84 56.325l-.221.836c1.839-.336 3.774.378 5.005 1.769.427.483 1.133-.227.707-.707-1.479-1.67-3.796-2.425-5.978-2.026-.404.074-.438.575-.221.836 1.342 1.61 3.413 2.547 5.505 2.521.644-.008.645-1.008.001-1zm3.99 6.887a14.737 14.737 0 0 1 1.746-8.01l-.914-.119a8.438 8.438 0 0 1-.969 8.102c-.378.522.489 1.022.863.505 1.829-2.529 2.248-5.982 1.07-8.873-.151-.369-.689-.533-.914-.119a15.71 15.71 0 0 0-1.883 8.514c.042.639 1.043.644 1.001 0zm6.007 7.671-7.091 2.609c-.382.141-.521.692-.119.914 2.799 1.547 6.37.905 8.393-1.594.401-.496-.302-1.208-.707-.707-1.741 2.151-4.743 2.786-7.181 1.438l-.119.914 7.091-2.609c.598-.221.339-1.188-.267-.965z"/></g></svg></g></svg>