<svg enable-background="new 0 0 1236.506 941.753" height="942" viewBox="0 0 1236.506 941.753" width="1237" xmlns="http://www.w3.org/2000/svg"><path d="m288.774 175.719c1.098-.823 2.653-.604 3.486.487l48.13 63.212 21.899-62.523c.284-.811.964-1.419 1.801-1.61.838-.193 1.714.059 2.322.665l69.483 69.166-9.548-102.381c-.085-.908.332-1.791 1.087-2.302.756-.514 1.729-.572 2.541-.156l82.076 41.99c-60.103-126.996-115.656-120.265-137.548-116.937-108.915 16.556-176.49 101.716-218.078 209.321z" fill="#ffe3e2"/><path d="m816.579 443.072c-110.038-242.149-221.327 13.664-221.327 13.664-25.696-123.604-53.127-208.678-79.776-267.101l-83.728-42.835 9.767 104.727c.098 1.048-.472 2.045-1.424 2.494-.954.447-2.082.253-2.829-.49l-71.565-71.239-22.123 63.162c-.304.868-1.061 1.499-1.969 1.644-.917.144-1.822-.224-2.38-.955l-49.442-64.935-134.317 100.402c-.449.336-.975.498-1.495.498-.12 0-.238-.023-.357-.041-83.484 224.385-57.542 540.078-57.542 540.078 56.325-198.663 411.796-195.04 411.796-195.04 13.017-18.113 34.296-86.402 149.394-135.984 81.47-35.096 172.562-2.226 172.562-2.226s-9.529-37.646-13.245-45.823z" fill="#ffe3e2"/><path d="m352.376 645.264 2.836-49.189 9.951.943 10.528-13.792 26.943 23.519 14.226-36.519 15.868 44.226 11.906-24.094 5.434 26.566 11.974-44.071 8.827 39.524 7.011-32.604 14.981 40.076 3.367-33.283 4.933 27.849 10.039-56.052 6.792 25.486 6.113-42.792 13.585 26.491 8.151-41.434 21.016 27.878s-74.793 74.418-51.951 73.682z" fill="#324a58"/><path d="m1104.24 587.769s1.758 40.429-26.996 66.546c-5.08 4.614 12.113 12.599 27.534-2.066l3.328-65.596z" fill="#2568ef"/><path d="m1129.481 592.611c-.47 15.999-48.748 24.729-52.053-1.53-1.999-15.88 12.536-34.514 26.91-34.092 14.375.422 25.614 19.623 25.143 35.622z" fill="#ff564f"/><path d="m1055.507 554.16c-9.736 50.264 20.005 47.274 15.17 58.415-10.415 24-17.181 17.01-39.17 16.755-19.472-.226 6.34-72.453 6.34-72.453z" fill="#2568ef"/><path d="m985.319 570.009s88.268-4.205 124.947-30.922c0 0-25.324-70.512-84.192-51.493s-40.755 82.415-40.755 82.415z" fill="#ff564f"/><ellipse cx="1060.262" cy="499.594" fill="#fff" rx="7.472" ry="3.849"/><ellipse cx="1029.243" cy="507.745" fill="#fff" rx="8.604" ry="4.302"/><ellipse cx="1033.545" cy="493.934" fill="#fff" rx="4.302" ry="1.811"/><ellipse cx="1055.734" cy="517.028" fill="#fff" rx="12" ry="4.981"/><ellipse cx="1013.168" cy="501.518" fill="#fff" rx="3.849" ry="1.925"/><ellipse cx="1083.067" cy="510.685" fill="#fff" rx="5.824" ry="2.94"/><ellipse cx="1049.281" cy="491.103" fill="#fff" rx="3.509" ry="1.019"/><ellipse cx="1008.413" cy="543.971" fill="#fff" rx="10.415" ry="3.396"/><ellipse cx="1020.3" cy="536.047" fill="#fff" rx="3.283" ry="1.358"/><ellipse cx="1103.485" cy="565.028" fill="#fff" rx="4.62" ry="1.358"/><ellipse cx="1103.863" cy="587.247" fill="#fff" rx="4.242" ry="2.521"/><ellipse cx="1092.498" cy="572.839" fill="#fff" rx="6.368" ry="2.547"/><ellipse cx="1116.634" cy="592.314" fill="#fff" rx="6.368" ry="2.547"/><ellipse cx="1110.498" cy="570.009" fill="#fff" rx="3.991" ry="1.274"/><g fill="#ff9b19"><path d="m1086.095 663.862c-2.665 0-5.819-.607-8.326-2.87-4.007-3.616-5.005-10.182-2.969-19.516.294-1.348 1.623-2.203 2.976-1.909 1.349.294 2.204 1.626 1.909 2.976-1.601 7.335-1.108 12.427 1.421 14.726 3.137 2.85 8.892 1.046 8.95 1.026.22-.07.203-.097.384-.101.753-.235 5.907-2.17 22.521-14.993.756-.584 1.775-.687 2.63-.266s1.397 1.291 1.397 2.244v8.266c7.297-8.039 19.649-20.213 26.558-18.971 2.066.369 3.639 1.78 4.428 3.972.468 1.299-.207 2.731-1.506 3.199-1.297.467-2.732-.207-3.199-1.506-.244-.68-.47-.72-.604-.744-3.974-.708-16.754 11.023-26.264 22.313-.676.803-1.777 1.097-2.77.738-.986-.36-1.643-1.299-1.643-2.349v-9.871c-14.053 10.547-19.009 12.521-20.532 12.869-.594.18-2.741.767-5.361.767z"/><path d="m1050.686 633.269c-12.847 0-39.852-2.474-60.4-21.165 1.253 4.563 3.913 10.768 9.558 16.949.932 1.02.859 2.601-.16 3.531-1.021.933-2.602.858-3.531-.16-12.357-13.531-11.994-27.071-11.973-27.642.038-1.021.695-1.917 1.659-2.261.962-.342 2.038-.064 2.715.703 19.729 22.402 49.9 24.991 62.781 24.992-5.719-5.342-13.588-14.255-11.337-21.184.601-1.848 1.896-3.085 3.646-3.484 6.026-1.364 17.49 9.308 22.715 14.58 1.717-1.743 4.169-5.618 2.428-12.651-.332-1.34.485-2.695 1.826-3.027 1.333-.336 2.694.484 3.027 1.826 3.452 13.947-5.923 19.186-6.324 19.401-.99.535-2.219.341-2.994-.474-7.954-8.327-17.143-15.309-19.499-14.798-.019.036-.042.091-.068.172-1.501 4.617 7.615 14.434 14.567 19.929.797.63 1.134 1.68.852 2.655-.281.976-1.126 1.685-2.136 1.792-.432.048-3.128.315-7.352.316z"/><path d="m833.98 192.133c0 21.195-15.306 41.774-38.377 41.774s-43.472-16.981-45.17-38.377c-1.677-21.129 17.005-40.075 40.075-40.075s43.472 15.483 43.472 36.678z"/><path d="m841.452 175.018c-1.024 0-1.984-.635-2.352-1.653-.469-1.299.205-2.731 1.504-3.199l47.343-17.063c1.3-.474 2.731.206 3.199 1.504.469 1.299-.205 2.731-1.504 3.199l-47.342 17.062c-.281.102-.567.15-.848.15z"/><path d="m816.317 150.143c-.506 0-1.016-.152-1.457-.47-1.121-.806-1.377-2.368-.571-3.489l26.055-36.25c.805-1.123 2.368-1.377 3.489-.571s1.377 2.368.571 3.489l-26.055 36.25c-.488.679-1.255 1.041-2.032 1.041z"/><path d="m888.564 219.243c-.189 0-.382-.022-.574-.067l-46.188-10.867c-1.345-.316-2.178-1.662-1.861-3.006.314-1.345 1.659-2.175 3.006-1.861l46.188 10.867c1.345.316 2.178 1.662 1.861 3.006-.271 1.151-1.298 1.928-2.432 1.928z"/><path d="m786.429 144.708c-1.257 0-2.34-.945-2.481-2.224l-5.384-48.458c-.152-1.373.836-2.608 2.208-2.761 1.373-.158 2.608.836 2.761 2.208l5.384 48.458c.152 1.373-.836 2.608-2.208 2.761-.094.011-.188.016-.28.016z"/><path d="m795.942 295.501c-1.381 0-2.5-1.119-2.5-2.5v-43.471c0-1.381 1.119-2.5 2.5-2.5s2.5 1.119 2.5 2.5v43.472c0 1.38-1.119 2.499-2.5 2.499z"/><path d="m850.963 274.445c-.766 0-1.521-.351-2.012-1.013l-21.614-29.208c-.821-1.11-.587-2.676.522-3.497 1.11-.821 2.676-.587 3.497.522l21.614 29.208c.821 1.11.587 2.676-.522 3.497-.447.331-.969.491-1.485.491z"/><path d="m750.327 157.953c-.56 0-1.121-.187-1.587-.569l-35.933-29.547c-1.066-.877-1.22-2.452-.343-3.519.878-1.065 2.453-1.219 3.519-.343l35.933 29.547c1.066.877 1.22 2.452.343 3.519-.495.601-1.21.912-1.932.912z"/><path d="m738.21 190.218c-.074 0-.147-.003-.223-.01l-65.239-5.757c-1.375-.121-2.392-1.335-2.271-2.71.12-1.376 1.344-2.395 2.71-2.271l65.239 5.757c1.375.121 2.392 1.335 2.271 2.71-.114 1.302-1.206 2.281-2.487 2.281z"/><path d="m698.133 245.237c-.868 0-1.712-.452-2.173-1.26-.685-1.199-.268-2.727.931-3.411l40.076-22.89c1.197-.688 2.727-.27 3.411.931.685 1.199.268 2.727-.931 3.411l-40.076 22.89c-.392.223-.818.329-1.238.329z"/><path d="m743.639 269.01c-.563 0-1.128-.188-1.594-.575-1.063-.881-1.211-2.457-.33-3.52l19.698-23.773c.881-1.065 2.458-1.211 3.52-.33 1.063.881 1.211 2.457.33 3.52l-19.698 23.773c-.494.596-1.208.905-1.926.905z"/><path d="m332.256 862.745c-13.019 0-23.217-6.339-23.217-14.431s10.198-14.431 23.217-14.431c12.071 0 30.688 6.666 30.688 15.522 0 9.427-19.987 13.34-30.688 13.34zm0-23.861c-10.735 0-18.217 4.97-18.217 9.431s7.481 9.431 18.217 9.431c12.743 0 25.688-4.852 25.688-8.339 0-4.06-14.026-10.523-25.688-10.523z"/><path d="m374.131 838.884c-12.163 0-25.255-3.075-25.255-9.828 0-6.752 13.092-9.827 25.255-9.827s25.254 3.075 25.254 9.827c0 6.753-13.091 9.828-25.254 9.828zm0-14.655c-12.754 0-19.979 3.393-20.256 4.84.276 1.423 7.502 4.815 20.256 4.815 12.718 0 19.938-3.374 20.252-4.828-.315-1.454-7.536-4.827-20.252-4.827zm20.254 4.84h.01z"/><path d="m760.234 908.185c-10.231 0-21.244-2.863-21.244-9.15 0-6.288 11.013-9.151 21.244-9.151s21.243 2.863 21.243 9.151c-0 6.287-11.011 9.15-21.243 9.15zm0-13.302c-10.181 0-16.002 2.919-16.245 4.164.245 1.22 6.067 4.138 16.245 4.138 10.144 0 15.96-2.898 16.241-4.15-.279-1.253-6.094-4.152-16.241-4.152zm16.244 4.164h.01z"/><path d="m795.856 887.269c-15.572 0-31.336-4.078-31.336-11.872 0-7.793 15.764-11.871 31.336-11.871s31.336 4.078 31.336 11.871c0 7.794-15.764 11.872-31.336 11.872zm0-18.743c-16.337 0-26.336 4.448-26.336 6.871s9.999 6.872 26.336 6.872 26.336-4.449 26.336-6.872-9.999-6.871-26.336-6.871z"/><path d="m482.549 652.745c-7.311 0-15.18-2.341-15.18-7.48 0-5.141 7.869-7.481 15.18-7.481s15.179 2.341 15.179 7.481c-.001 5.14-7.869 7.48-15.179 7.48zm-10.103-7.48c.704.824 4.197 2.48 10.103 2.48s9.397-1.656 10.102-2.48c-.704-.825-4.196-2.481-10.102-2.481-5.907-.001-9.399 1.656-10.103 2.481zm20.308.153h.01z"/><path d="m500.161 672.09c-2.276 0-22.244-.216-22.244-7.708 0-7.491 19.968-7.707 22.244-7.707s22.244.216 22.244 7.707c-0 7.492-19.968 7.708-22.244 7.708zm-16.759-7.708c1.913 1.125 7.701 2.708 16.759 2.708s14.846-1.583 16.759-2.708c-1.913-1.124-7.701-2.707-16.759-2.707s-14.846 1.583-16.759 2.707zm34.127.484h.011z"/></g><path d="m1172.504 443.571c-9.509-12.906-5.933-25.891-5.933-25.891 6.46 6.886 19.932.999 19.932.999-11.3.852-21.18-35.561-21.18-35.561 4.855 11.454 14.047 8.73 14.047 8.73-11.913-13.741-5.119-32.441-5.119-32.441l5.548 5.945c-4.508-14.208 5.868-30.385 5.868-30.385-12.679 9.748-22.473 17.803-22.473 17.803s9.126.523 6.422 2.498c-9.909 7.238-15.986 14.295-24.866 24.562-3.274 3.785 15.643-2.932 13.602.312-14.327 22.766-32.365 34.84-41.721 27.892-13.063-9.701-8.015-22.412-5.298-20.94 6.382 3.457 16.065-.003 16.065-.003-7.007.892-14.624-7.437-16.059-22.482-1.138-11.931 12.334-4.391 11.201-5.138-15.283-10.075-7.485-47.007-7.472-47.264-3.057 9.139-19.103 32.805-19.103 32.805l7.536 1.223c.246 14.142-17.579 24.848-17.602 24.657l10.261-.322c1.756 9.053-18.124 16.87-18.124 16.87-21.12 8.71-24.414-31.141-24.414-31.141 13.24 8.749 25.824 7.121 25.824 7.121-25.341-10.345-22.415-56.887-22.415-56.887l16.642 3.226c-11.147-7.166-13.519-47.076-13.519-47.076-5.477 26.855-28.407 47.656-28.407 47.656 10.075-.453 15.651-2.567 15.651-2.567-1.897 3.958-27.705 34.639-27.705 34.639 8.006.308 18.959-4.676 18.959-4.676s-8.276 47.643-24.651 44.358c-8.447-1.694-16.057-25.28-16.057-25.28l6.239 3.233s-7.461-24.238-8.359-22.913c-6.012 8.866-12.302 23.112-12.302 23.112 2.194 2.025 8.184-6.666 8.184-6.666s-6.901 36.236-15.699 38.598c-17.738 4.764-16.26-33.5-16.26-33.5 4.868 7.245 14.303 4.573 14.303 4.573-12.566-6.398-5.103-86.011-8.037-76.586s-22.756 43.332-22.756 43.332c8.22 1.384 16.536-9.112 16.536-9.112-3.071 18.851-21.94 38.163-21.94 38.163 10.717.998 16.495-11.566 16.495-11.566-3.422 27.201-10.525 45.301-17.582 58.971-19.562 37.892-29.338-10.769-29.338-10.769 4.755 7.472 18.828 5.507 18.828 5.507-15.329-6.038-17.086-48.221-17.086-48.221 3.616-.944 10.053 7.021 10.053 7.021-7.118-17.299-13.149-39.368-13.149-39.368s-1.797 16.749-18.146 32.144c0 0 8.943 3.335 14.656-2.942 0 0 1.905 14.104-8.314 38.716-5.338 12.858-12.162 29.949-32.14 35.831 0 0 14.06 7.814 30.907-3.113 0 0-4.992 21.13-27.553 28.085 0 0 12.31 11.309 27.294 6.841 0 0 1.574 18.97-13.029 18.291-3.855-.179-11.139-.671-11.139-.671 14.949 26.949 43.288 25.789 43.288 25.789-1.558 3.981-7.586 19.377-7.586 19.377l11.313-28.898c2.274-.834 3.99-1.999 4.865-3.591 16.315-29.666 63.898-66.058 129.416-66.058 43.156 0 83.028 26.521 104.331 43.137 23.36 11.255 42.039-4.028 42.039-4.028s-12.087-.103-23.772-15.961z" fill="#324a58"/><path d="m864.885 505.791.11-.551c-.091-.028-.182-.056-.273-.083z" fill="#324a58"/><path d="m853.258 496.552-8.83-33.962-8.83 21.962-10.734-39.828-6.077-22.549-16.337 50.913-3.078-21.864-9.962 28.347-5.434-28.347-7.737 22.914-10.602-40.755-6.113 39.396-12.906-44.151-18.34 25.811-5.434-33.631-11.066 38.385-9.765-53.887-13.262 57.492-10.286-30.322-10.126 24.453-17.157-28.472-2.407 25.021-28.673-55.587-16.825 116.143-13.397-20.539-6.355 28.189-11.476-29.776-6.792 38.606-4.755-17.732-8.801 57.142s60.026-64.883 148.706-81.644c56.734-10.723 123.088 4.323 164.313 16.876l-7.387-28.642z" fill="#324a58"/><path d="m1226.24 937.436.005-.047.169-1.589.328-3.183.62-6.374c.398-4.252.776-8.507 1.119-12.765.696-8.516 1.305-17.041 1.85-25.57 1.098-17.058 1.896-34.138 2.389-51.226.487-17.088.729-34.185.629-51.279-.025-8.548-.181-17.094-.361-25.639-.248-8.543-.525-17.086-.945-25.622-.798-17.073-1.959-34.129-3.604-51.137-1.644-17.006-3.689-33.976-6.414-50.836-.682-4.215-1.362-8.43-2.158-12.624-.738-4.205-1.584-8.388-2.422-12.573-.825-4.187-1.789-8.344-2.685-12.516-1.011-4.144-1.913-8.315-3.014-12.436l-1.602-6.193-1.723-6.158c-1.112-4.116-2.43-8.17-3.661-12.249-2.647-8.096-5.372-16.174-8.634-24.035l-1.183-2.963-1.272-2.924c-.856-1.946-1.681-3.906-2.561-5.84-1.833-3.833-3.594-7.702-5.609-11.438-1.893-3.802-4.072-7.442-6.154-11.134-2.257-3.584-4.432-7.222-6.901-10.658-9.546-13.954-21.364-26.35-35.349-35.636-14.126-9.302-29.379-16.944-45.366-22.26-15.967-5.269-32.847-8.067-49.486-6.669-16.824 1.52-33.509 4.789-49.391 10.454-15.877 5.62-30.965 13.534-44.307 23.792-6.671 5.118-12.918 10.801-18.494 17.087l-2.087 2.36-1.99 2.44c-1.36 1.602-2.556 3.328-3.834 4.993-2.399 3.437-4.755 6.919-6.746 10.605-4.083 7.305-7.245 15.142-9.003 23.269-.937 4.25-2.118 8.669-4.516 12.639-1.149 2-2.698 3.857-4.598 5.375-.457.397-1.008.7-1.512 1.048-.551.289-1.083.611-1.677.831-.578.248-1.189.435-1.815.59-.325.058-.632.138-.974.171-.357.04-.621.075-1.139.06l.336-.012c-3.102.346-6.158.794-9.252 1.253l-9.19 1.573c-6.094 1.257-12.181 2.527-18.185 4.146-6.001 1.59-11.943 3.437-17.719 5.653-5.779 2.217-11.429 4.778-16.553 8.138-2.546 1.678-4.955 3.564-6.867 5.822-.929 1.118-1.76 2.373-2.14 3.608-.397 1.262-.278 2.618.064 4.049.329 1.389.957 2.744 1.65 4.107.7 1.347 1.492 2.636 2.371 3.889 1.75 2.509 3.756 4.864 5.873 7.117 4.268 4.511 8.989 8.496 13.88 12.44 4.889 3.945 9.639 8.04 14.263 12.327 9.204 8.579 17.772 18.017 24.512 28.892.836 1.375 1.623 2.687 2.423 4.146.755 1.426 1.472 2.821 2.169 4.27.695 1.442 1.356 2.911 1.965 4.411.306.745.597 1.515.871 2.265.132.367.26.718.406 1.084l.422 1.179c.534 1.575.955 3.081 1.411 4.588.411 1.615.774 3.152 1.13 4.768.198.805.286 1.591.432 2.387.14.782.273 1.602.383 2.414.222 1.625.378 3.253.478 4.877.883 13.003-1.81 26.194-6.864 38.125-4.97 12.017-12.003 22.956-19.756 33.109-3.881 5.088-7.983 9.955-12.235 14.714l-3.231 3.522c-1.091 1.152-2.213 2.268-3.318 3.404l-6.677 6.768c-2.244 2.23-4.429 4.558-6.726 6.702-2.296 2.174-4.612 4.328-6.944 6.459-4.657 4.272-9.411 8.425-14.193 12.529-19.151 16.387-38.94 31.901-58.958 47.046-9.992 7.57-20.113 15.064-30.328 22.382-10.213 7.328-20.564 14.461-30.95 21.497-20.788 14.058-41.648 27.807-62.139 42.073l-2.973-9.583 76.033.818 76.031.907 152.062 1.885 152.061 2.253 76.032 1.267 38.018.752 19.014.438 9.515.263 4.769.163 2.402.104 1.224.068.649.049.403.043.168.021c-.321-.041-.697.016-.996.155zm1.85 4.158c-.122-.004-.245.003-.362-.016-.117-.016-.08-.008-.127-.013l-.188-.017-.536-.033-1.149-.049-2.347-.072-4.731-.102-9.49-.142-18.998-.198-38.009-.272-76.029-.428-152.065-.631-304.132-1.376c-2.905-.013-5.249-2.379-5.236-5.284.008-1.76.879-3.314 2.211-4.263l.052-.036c20.543-14.428 41.435-28.324 62.064-42.399 20.636-14.082 40.87-28.558 60.755-43.67 19.904-15.067 39.532-30.467 58.423-46.641 4.72-4.043 9.372-8.151 13.982-12.294 4.602-4.14 9.147-8.377 13.52-12.731l6.637-6.471c1.105-1.079 2.23-2.142 3.32-3.235l3.201-3.317c4.239-4.438 8.332-9.044 12.268-13.732 3.932-4.698 7.647-9.542 11.046-14.582 3.397-5.039 6.511-10.242 9.122-15.684 2.626-5.468 4.772-11.048 6.198-16.893.722-2.912 1.272-5.87 1.64-8.851.38-2.939.511-5.975.497-8.989 0-3.011-.294-5.958-.707-8.976-.239-1.456-.514-2.985-.792-4.42-.369-1.511-.711-3.042-1.108-4.455-.853-2.941-1.837-5.763-3.059-8.579-.598-1.4-1.25-2.819-1.9-4.189-.647-1.316-1.406-2.725-2.139-4.058-5.965-10.74-14.08-20.311-22.955-28.996-4.43-4.359-9.137-8.476-13.913-12.484l-3.594-3.015-1.815-1.516-1.766-1.572c-2.368-2.082-4.625-4.297-6.809-6.586-2.182-2.291-4.265-4.698-6.115-7.311-.927-1.302-1.787-2.679-2.54-4.104-.745-1.41-1.476-2.903-1.902-4.558-.208-.814-.369-1.656-.412-2.538-.053-.882.052-1.828.295-2.684.528-1.774 1.484-3.173 2.513-4.477 2.09-2.571 4.632-4.626 7.263-6.444 5.283-3.622 11.053-6.376 16.9-8.761 5.88-2.352 11.882-4.31 17.956-6.013 6.071-1.681 12.193-3.209 18.383-4.357l9.292-1.733c3.09-.506 6.221-1.012 9.334-1.406l.337-.012c.018-.004.287-.018.46-.048.191-.017.403-.082.604-.116.41-.112.822-.241 1.224-.424.41-.152.792-.404 1.186-.609.365-.274.767-.481 1.11-.797 1.417-1.174 2.665-2.659 3.617-4.385.274-.402.469-.866.693-1.308.211-.451.456-.879.641-1.347.34-.951.776-1.852 1.045-2.84.644-1.943 1.045-3.917 1.505-5.992 1.74-8.636 4.963-16.882 9.12-24.558 2.031-3.873 4.43-7.525 6.881-11.132 1.303-1.746 2.527-3.557 3.914-5.237l2.034-2.559 2.132-2.476c5.7-6.594 12.092-12.562 18.926-17.947 13.68-10.77 29.195-19.13 45.548-24.988 16.371-5.846 33.524-9.313 50.788-10.708 17.561-1.366 35.113 1.69 51.549 7.222 16.481 5.55 31.982 13.604 46.324 23.27 7.2 4.92 13.869 10.624 19.885 16.895 6.069 6.238 11.367 13.149 16.23 20.299 2.487 3.546 4.666 7.281 6.926 10.963 2.081 3.783 4.256 7.516 6.137 11.398 2.005 3.821 3.748 7.763 5.563 11.67.87 1.97 1.684 3.963 2.528 5.943l1.254 2.975 1.163 3.01c3.19 7.995 5.911 16.155 8.535 24.336 1.219 4.119 2.524 8.213 3.622 12.365l1.701 6.212 1.578 6.242c4.194 16.652 7.357 33.53 10.103 50.455 2.742 16.93 4.799 33.958 6.454 51.017 1.656 17.06 2.825 34.162 3.631 51.278 1.598 34.232 1.904 68.515 1.073 102.768-.438 17.126-1.077 34.247-2.008 51.356-.467 8.554-.997 17.106-1.615 25.653l-.973 12.82-.537 6.409-.287 3.205-.149 1.604-.077.803-.039.402c-.024-.01.064.087-.205.874-.244.626-.833 1.133-1.254 1.323z" fill="#ff9b19"/><path d="m505.026 626.974c4.561-8.092 9.709-15.558 15.119-22.929 5.427-7.333 11.188-14.41 17.238-21.226 12.108-13.626 25.38-26.206 39.651-37.537 14.273-11.324 29.591-21.341 45.741-29.781 8.069-4.229 16.352-8.053 24.816-11.422 8.454-3.393 17.069-6.38 25.81-8.947 35.013-10.189 71.959-13.125 108.184-9.8 36.28 3.24 71.856 12.273 105.907 24.952.854.318 1.289 1.269.971 2.123-.258.694-.933 1.111-1.636 1.073l-.014-.001-9.783-.539.28-.007c-5.135.682-10.284 1.253-15.392 2.117-5.111.833-10.195 1.798-15.246 2.917-10.088 2.238-20.054 5.079-29.564 8.956-9.447 3.921-18.576 8.893-25.838 15.859-3.621 3.474-6.734 7.437-9.03 11.821-2.301 4.375-3.74 9.159-4.224 14.074-.497 4.886-.019 9.901 1.207 14.698 1.235 4.773 3.291 9.452 5.735 13.828 4.983 8.771 11.77 16.558 19.092 23.717 1.818 1.818 3.721 3.503 5.654 5.28l5.779 5.317c3.823 3.605 7.557 7.355 11.094 11.31 3.533 3.961 6.881 8.134 9.834 12.652l1.074 1.685c.361.567.728 1.178 1.068 1.771.686 1.197 1.313 2.406 1.905 3.599l.453.921c.171.332.318.723.443 1.004l.77 1.867c.504 1.273.987 2.61 1.352 4.066l-.065-.227c.438 1.322.57 2.456.77 3.18.021.075.037.15.048.225l.013.093.314 2.152.008.052c.01.072.017.145.02.216.018.48.072.917.12 1.592.039.617.051 1.224.045 1.819-.015 1.209-.092 2.281-.188 3.454-.069.63-.156 1.22-.244 1.777-.094.569-.196 1.137-.313 1.701-.232 1.129-.511 2.247-.834 3.35-.642 2.2-1.472 4.365-2.412 6.403-.916 2.034-1.963 4.034-3.07 5.959-4.461 7.713-9.979 14.563-15.814 21.02-5.821 6.452-12.087 12.487-18.467 18.288-6.413 5.813-12.988 11.364-19.685 16.797-26.822 21.609-55.095 41.198-83.457 60.404-14.101 9.621-28.063 19.522-42.052 29.384l-41.937 29.679c-13.988 9.892-28.008 19.753-42.177 29.423-7.067 4.862-14.201 9.631-21.387 14.34-7.164 4.737-14.455 9.317-21.828 13.794l-.007.004c-.611.38-1.281.588-1.952.636l-.093.005c-44.78 3.051-89.571 4.708-134.422 5.466-22.422.367-44.853.461-67.289.295-22.436-.169-44.879-.594-67.326-1.452-22.446-.876-44.899-2.137-67.341-4.344-11.22-1.118-22.438-2.471-33.64-4.327-5.601-.939-11.198-1.991-16.785-3.287-5.587-1.292-11.166-2.802-16.715-4.82-2.774-1.017-5.541-2.167-8.285-3.588-2.721-1.377-5.534-3.247-7.921-5.357-4.775-4.25-8.365-9.326-11.214-14.632-2.848-5.319-4.956-10.912-6.526-16.601-1.561-5.693-2.604-11.488-3.164-17.306-1.148-11.64-.501-23.354 1.553-34.755 2.071-11.402 5.514-22.515 10.125-33.078 9.188-21.181 22.869-40.084 38.862-56.348 16.034-16.289 34.377-30.04 53.799-41.725 19.446-11.684 39.982-21.362 61.035-29.51 21.059-8.156 42.648-14.791 64.473-20.334 43.685-11.05 88.314-17.556 133.033-21.539 44.747-3.913 89.662-5.146 134.507-4.551 1.346.018 2.423 1.124 2.405 2.47-.018 1.336-1.111 2.406-2.443 2.405-44.715-.055-89.436 1.603-133.894 5.891-22.222 2.182-44.374 5.004-66.374 8.681-21.993 3.702-43.839 8.226-65.391 13.821-21.538 5.631-42.791 12.331-63.443 20.496-20.646 8.157-40.703 17.792-59.575 29.313-18.851 11.52-36.522 24.987-51.816 40.747-15.275 15.728-28.094 33.864-36.68 53.852-4.301 9.976-7.473 20.416-9.356 31.056-1.866 10.636-2.402 21.5-1.3 32.149 1.104 10.613 3.815 21.13 8.73 30.253 2.451 4.536 5.497 8.695 9.122 11.881 1.826 1.578 3.706 2.835 5.981 3.985 2.234 1.144 4.648 2.144 7.133 3.04 4.983 1.788 10.237 3.196 15.562 4.398 5.326 1.21 10.743 2.204 16.188 3.09 10.9 1.754 21.932 3.035 32.998 4.086 22.142 2.075 44.432 3.226 66.738 3.992 44.627 1.499 89.354 1.3 134.065.653 22.358-.338 44.719-.775 67.08-1.309 22.355-.52 44.738-1.083 67.067-1.738l-2.045.642.007-.004c14.262-9.247 28.364-18.91 42.487-28.535l42.254-29.136 42.19-29.317c14.077-9.769 28.186-19.496 42.481-29.026 28.561-18.87 56.867-38.029 83.638-59.115 6.661-5.281 13.237-10.711 19.575-16.331 6.351-5.649 12.498-11.442 18.222-17.646 5.707-6.17 11.053-12.695 15.25-19.778 1.046-1.774 2.007-3.561 2.87-5.422.873-1.84 1.596-3.677 2.177-5.581.289-.948.539-1.906.749-2.871.105-.483.198-.968.284-1.454.084-.5.158-.968.212-1.401.088-.96.175-2.023.194-2.955.01-.476.005-.939-.018-1.391-.021-.393-.085-1.021-.103-1.611l.027.268-.301-2.229.062.318c-.298-1.256-.406-2.165-.619-2.785l-.035-.114-.031-.114c-1.184-4.423-3.467-9.096-6.168-13.255-2.702-4.234-5.849-8.244-9.209-12.086-3.37-3.844-6.955-7.518-10.674-11.096l-5.667-5.318c-1.885-1.766-3.864-3.557-5.711-5.441-7.47-7.456-14.459-15.592-19.701-25.019-2.577-4.736-4.714-9.693-6.044-15.024-1.296-5.3-1.776-10.82-1.167-16.299.588-5.449 2.259-10.806 4.857-15.624 2.589-4.826 6.047-9.12 9.974-12.813 3.93-3.706 8.335-6.831 12.939-9.508 4.606-2.675 9.41-4.946 14.321-6.908 9.822-3.912 19.988-6.723 30.245-8.917 5.127-1.095 10.288-2.035 15.464-2.838 5.172-.834 10.384-1.374 15.579-2.023.085-.011.17-.013.252-.009l.028.002 9.779.613-.678 3.195c-16.884-6.41-34.141-11.837-51.676-16.121l-6.583-1.577c-2.196-.519-4.414-.936-6.62-1.41-2.211-.446-4.411-.953-6.632-1.348l-6.664-1.18-3.332-.587-3.348-.487-6.696-.975c-2.236-.297-4.481-.518-6.721-.778-2.242-.244-4.48-.533-6.73-.682-35.913-3.284-72.472-.36-107.102 9.728-34.65 10.025-67.007 27.404-95.106 49.936-14.079 11.248-27.096 23.813-38.935 37.387-5.919 6.787-11.547 13.828-16.835 21.107-2.643 3.64-5.192 7.347-7.637 11.114-2.427 3.758-4.812 7.628-6.894 11.476l-.036.066c-.563 1.041-1.864 1.429-2.906.865-1.041-.563-1.429-1.864-.865-2.906-.003-.004.006-.022.01-.029z" fill="#ff9b19"/><path d="m692.833 592.346s-76.755 3.509-74.606-57.962l-.572-25.703c7.548-30.166 74.499-42.62 74.499-42.62l-16.302.398c-21.056-4.075-58.592 24.441-58.593 24.442l-1.86-83.572-23.39 37.395s9.879 89.426 6.409 105.283c-4.983 22.766-3.1 34.304-43.045 46.612 0 0 27.979 3.307 37.611-10.272 0 0 17.674 10.981 23.108 12.34 0 0-9.41-8.377-7.146-10.641 0 0 27.962 14.83 41.094 11.208 0 0-26.25-8.717-24.439-14.151.001-.003 49.911 12.11 67.232 7.243z" fill="#ff564f"/><path d="m572.964 239.866c.473-.734 1.365-1.077 2.209-.845.842.23 1.437.981 1.47 1.854.164 4.367 1.893 16.967 7.494 17.557.756.08 1.417-.148 2.076-.719 3.786-3.271 5.054-14.76 5.224-18.911.034-.82.565-1.537 1.341-1.807.774-.27 1.638-.039 2.173.583.16.186 12.002 13.736 28.282 20.482 3.464.742 8.939 1.232 16.958.209 0 0-8.89-2.904-17.1-8.662 5.003-.35 10.21-1.935 15.352-5.419 0 0-27.682-7.174-27.682-12.608 0 0 8.58 6.29 24.109-.82 0 0-38.49-6.792-43.924-46.189 0 0 5.434 16.981 17.66 15.623 0 0-21.736-33.283-24.113-48.227-2.377-14.943-6.453-29.887-6.453-29.887s1.358 44.151-16.302 66.566c0 0 8.151-2.038 11.547-9.509s5.66 50.264-31.245 81.283c0 0 1.799-.302 4.594-1.074 8.066-3.121 19.824-9.39 26.33-19.48z" fill="#2568ef"/><path d="m565.576 360.152c.497-.757 1.438-1.085 2.3-.802.859.284 1.421 1.11 1.369 2.014-.012.21-.983 18.424 4.167 30.484 1.466-8.012 4.587-20.857 9.794-23.038 1.65-.691 3.438-.413 5.036.784 6.285 4.715 14.886 23.78 19.367 34.498.965-6.542 2.633-15.966 4.997-22.745.25-.715.881-1.228 1.632-1.324.754-.099 1.493.238 1.916.866.084.125 8.5 12.508 16.236 14.341.439.104.606.051.608.051 1.323-1.338-1.028-10.948-4.97-20.139-.412-.96-.016-2.075.91-2.56.925-.485 2.067-.176 2.623.709.095.15 9.133 14.119 26.622 15.962.775-.424 1.536-.947 2.275-1.586 12.566-10.868-18.053-27.135-18.053-27.135s26.798 10.494 29.784 3.361c2.986-7.132-38.788-20.377-38.788-20.377s19.472 4.302 26.604-5.208c0 0-35.832 6.263-36.878-13.06-4.832-2.958-8.567-6.306-10.796-8.533-1.786 7.174 1.066 15.155 1.099 15.246.295.809.04 1.717-.635 2.252-.673.536-1.614.581-2.336.11-10.593-6.915-14.498-17.21-15.932-24.213-10.218 20.552-22.076 21.983-22.625 22.038-.676.068-1.341-.213-1.764-.745s-.547-1.242-.33-1.886c2.778-8.222 3.633-13.59 3.822-16.824-2.664 2.578-5.876 5.204-9.204 7.698-7.478 16.588-22.642 40.211-49.893 46.219 0 0 30.906-.68 44.49-10.189 0 0-5.774 17.655-23.774 20.205 0 0 11.347 1.598 20.273-5.222-.029.054-.06.113-.089.168 3.415-2.757 6.882-6.45 10.143-11.42z" fill="#2568ef"/><path d="m573.787 306.688c.456-.547 1.165-.811 1.871-.691.702.119 1.288.603 1.538 1.27.216.575 1.833 5.676-2.377 19.7 4.391-2.206 12.353-8.35 19.022-25.169.357-.9 1.31-1.415 2.257-1.223.949.193 1.624 1.038 1.602 2.006-.003.161-.156 14.72 10.507 24.883-.702-4.266-.927-10.173 1.535-15.37.292-.616.877-1.04 1.553-1.127.671-.088 1.349.176 1.787.698.134.16 11.701 13.69 27.113 15.678 8.87.139 18.721-1.743 22.977-9.751 0 0-34.762 1.111-43.475-27.916-.222-.741-.47-1.422-.733-2.071 6.292 1.893 18.701 4.583 27.906-.013 1.823-.91-6.664-5.195-18.792-18.113-1.843-1.963-4.395-4.594-6.639-7.771-12.104-5.04-21.678-13.505-26.377-18.188-.616 5.336-2.206 13.74-6.232 17.221-1.49 1.288-3.256 1.865-5.112 1.671-7.063-.743-9.63-9.997-10.558-16.143-3.4 3.974-7.534 7.324-11.775 10.066-3.36 13.131-11.664 33.573-31.57 41.446 0 0 20.377 14.264 37.358-3.849 0 0 1.183 12.338-21.571 28.302 0 0 5.932-.548 14.074-3.329 5.464-3.934 10.845-8.297 14.111-12.217z" fill="#2568ef"/><path d="m721.588 473.251c-1.811-21.736-57.085-44.962-62.674-55.133 0 0 31.845 9.017 37.4.186 0 0-35.7-11.926-56.275-31.353-1.746-1.137-3.304-2.329-4.663-3.501 1.756 5.731 2.833 11.824.65 14.422-.61.726-2.014 1.854-4.56 1.249-6.507-1.541-12.884-8.541-16.231-12.761-3.011 10.812-4.622 25.58-4.64 25.745-.099.917-.812 1.648-1.727 1.77-.088.012-.176.017-.263.017-.816 0-1.562-.5-1.864-1.277-3.674-9.472-14.592-35.089-20.901-39.821-.644-.483-.923-.365-1.09-.295-3.17 1.328-6.773 14.334-8.294 25.623-.109.81-.699 1.471-1.491 1.672-.793.199-1.626-.101-2.107-.761-6.28-8.619-7.526-23.214-7.687-31.564-4.502 5.503-9.224 9.129-13.651 11.52-3.018 5.724-6.557 12.442-9.933 18.867-8.485 16.148-18.859 39.803-53.096 48.298 0 0 43.567-4.2 57.398-23.619 0 0-31.479 43.317-54.622 52.827 0 0 29.551-4.449 43.065-16.364-10.864 14.751-33.82 51.372-11.59 57.458 0 0 28.697 6.792 50.914-43.132 0 0 11.109 28.189 38.88 19.698 0 0-15.546-18.974-1.439-23.846 26.127-9.024 113.939 45.446 110.491 4.075z" fill="#2568ef"/><path d="m192.783 665.321s40.188 85.585-12.736 120.906c0 0-23.377 15.623-42.056 8.491 0 0 20.717 12 63.17-10.076 0 0 20.488-16.528 22.868-1.358 0 0 9.736 24.906 33.736 22.415 0 0-25.811-7.245-18.906-22.868 0 0 27.057 16.868 63.057 19.924 0 0-39.396-10.641-47.774-27.057 0 0-5.776-12.113 15.17-7.811 0 0 44.377 13.132 84.901-3.396 0 0-99.278 8.943-100.297-30.792l1.358-81.057z" fill="#ff564f"/><path d="m123.149 349.07c.584-.069 1.17.123 1.601.525.43.402.661.974.632 1.562-.012.241-.874 22.79 16.028 44.368-.284-6.959.861-18.19 8.903-28.914 3.922-5.229 7.906-7.546 11.84-6.889 3.81.636 6.551 3.921 8.306 6.936l4.826-17.712c.194-.713.766-1.26 1.487-1.424s1.473.083 1.957.643c.229.264 17.042 19.318 42.085 23.587 11.159.841 24.828-1.49 38.312-12.343 0 0-67.754-8.086-69.113-28.292 0 0 15.786 6.354 27.786-11.306 0 0-31.132 5.094-33.962-13.585 0 0 15.63 4.659 30.113.453 0 0-20.118-9.559-31.97-23.4-2.828-1.649-5.333-3.36-7.323-4.721-.841-.575-1.735-1.187-2.506-1.688.259 8.717-.98 23.41-1.039 24.094-.072.85-.676 1.56-1.502 1.769-.828.209-1.696-.129-2.163-.841-2.282-3.478-10.031-13.145-15.508-12-3.515.734-6.209 6.029-7.792 15.313-.927 5.438-1.776 8.036-4.076 8.036-.01 0-.021 0-.031 0-2.799-.028-3.494-3.055-5.799-18.48-1.08-7.225-3.023-20.232-4.913-23.322-.306.46-.77 1.317-1.354 2.884-3.763 10.096-11.343 17.194-19.271 22.025-13.101 24.335-32.217 64.566-29.505 87.767 0 0 .955-1.345 2.525-3.451 6.045-11.838 18.58-28.888 41.426-31.594z" fill="#2568ef"/><path d="m10.457 616.357c-12.422 24.97-10.703 30.145-9.88 31.136.585.704 2.268.621 4.618-.229.804-.291 1.623-.639 2.454-1.04 16.62-13.841 43.427-47.166 61.65-62.575 5.008-4.789 9.417-7.95 13.039-8.482.97-.142 1.9.438 2.197 1.372.385 1.21 8.587 28.515-23.024 54.954 13.844-1.928 44.535-8.811 51.812-32.297.315-1.016 1.369-1.607 2.4-1.347s1.678 1.282 1.472 2.325c-.069.353-6.723 35.37 11.675 45.405 1.577.86 3.414.959 5.613.303 20.798-6.208 56.067-71.735 56.42-72.396.348-.651 1.026-1.057 1.763-1.057h.013c.742.005 1.421.42 1.762 1.078.109.208 10.564 19.62 36.354 23.658-6.871-6.685-18.415-19.543-14.56-27.253.259-.517.728-.897 1.288-1.042s1.155-.04 1.632.286c.706.483 71.051 48.206 114.555 35.056 6.239-1.886 9.564-4.594 9.883-8.048 1.432-15.51-48.98-45.163-68.526-55.28-.977-.505-1.362-1.706-.862-2.685.5-.98 1.698-1.373 2.68-.877.58.292 64.176 23.837 86.411 19.909 20.506-3.623 20.641-13.31 20.495-17.975-.08-2.563-2.382-7.118-35.82-17.082-.059-.018-.12-.032-.178-.052l-53.434-18.252c-1.01-.345-1.571-1.421-1.275-2.447.295-1.025 1.342-1.638 2.383-1.392 11.839 2.804 44.135 7.691 51.301-3.228.105-.159.233-.291.371-.41-11.482-.265-96.036-3.759-101.944-49.336l-.177-2.078c-11.588-5.858-19.227-14.479-24.903-20.892-3.707-4.189-6.914-7.783-8.918-7.78-.23.003-.932.013-2.054 1.354-4 4.779.494 16.065 4.459 26.022 4.601 11.554 8.947 22.467 1.258 25.811-6.627 2.883-12.274-6.258-18.254-15.933-5.396-8.732-11.508-18.632-17.473-18.368-3.704.161-7.626 4.303-11.658 12.31-9.746 19.354-17.028 30.384-23.611 35.764-3.912 3.196-7.426 4.222-10.685 4.222-2.45 0-4.755-.579-6.978-1.251-12.838-3.883-15.018-30.723-14.878-50.001-3.372 11.055-6.922 20.28-9.323 25.264-2.898 8.01-41.871 69.24-61.956 102.133-1.257 2.059-2.648 4.527-4.253 7.255-6.997 11.891-17.571 29.862-25.334 45.468z" fill="#2568ef"/><path d="m114.515 415.08c1.045.159 1.786 1.105 1.69 2.158-1.518 16.729-2.473 61.05 11.153 65.171 8.41 2.543 15.675 4.741 36.544-36.705 4.799-9.529 9.724-14.275 15.057-14.507 8.305-.375 14.783 10.123 21.049 20.261 4.597 7.438 9.809 15.87 13.257 14.368 4.133-1.797.314-11.388-3.379-20.662-4.593-11.534-9.342-23.46-3.81-30.07 1.526-1.823 3.23-2.761 5.066-2.786 3.801-.029 7.251 3.798 11.969 9.128 5.63 6.362 13.287 15.003 24.974 20.563 12.258 3.483 34.841 8.001 56.317 2.228 0 0 3.736.479 29.887-13.515 0 0-81.849 5.364-98.83-27.919 0 0 19.245 7.904 16.981-15.656 0 0-19.245 10.335-37.585-10.721-.656-.753-1.298-1.532-1.941-2.308-5.781-1.644-10.895-3.91-15.174-6.237-9.356-5.087-16.113-11.082-19.528-14.454l-5.351 19.64c-.233.854-.999 1.453-1.883 1.474-.898.011-1.677-.542-1.95-1.384-.787-2.417-3.677-8.837-7.539-9.478-2.915-.48-5.948 2.639-7.977 5.344-11.519 15.358-7.403 32.214-7.36 32.382.226.886-.178 1.813-.981 2.25-.301.164-.63.244-.956.244-.542 0-1.077-.221-1.466-.639-18.906-20.352-21.163-42.613-21.368-49.885-4.799.809-9.082 2.323-12.895 4.303 2.212 12.672.082 32.635-21.781 57.013 0 0-27.17 30.566-47.887 25.132 0 0 10.528 17.66 44.491-6.453 0 0-32.264 71.321-63.17 85.245 0 0 34.089 6.24 80.357-64.975.037.089 8.165-20.26 11.763-36.993.222-1.034 1.209-1.717 2.256-1.557z" fill="#2568ef"/><path d="m112.319 216.441c.642-.794 1.779-.979 2.637-.426l7.391 4.752 2.549-7.138c.221-.618.73-1.088 1.364-1.259.632-.171 1.31-.019 1.811.405l7.148 6.048 4.859-7.019c.447-.646 1.232-.969 2.004-.829.541.099 1.213.343 2.327.748 5.548 2.016 19.697 7.155 37.804.843-8.108-2.282-44.492-17.438-58.152-107.624l-15.62-104.942s12.536 176.506-17.67 234.262c3.296-1.184 11.32-5.158 21.548-17.821z" fill="#2568ef"/><path d="m186.78 264.566s19.698 4.529 28.528-13.584c0 0-41.226 9.537-60.269-32.223-5.537-.932-9.704-2.443-11.995-3.275-.17-.062-.346-.126-.517-.188l-5.273 7.616c-.321.464-.823.771-1.382.844-.56.074-1.124-.091-1.554-.456l-6.626-5.607-2.425 6.79c-.205.575-.661 1.024-1.239 1.221s-1.213.119-1.726-.211l-8.012-5.151c-1.875 2.244-3.679 4.208-5.402 5.939-1.116 19.327-8.476 51.888-42.56 73.604 0 0 12.093 2.244 25.502-.367 10.419-3.17 26.606-11.057 32.398-26.596 1.076-2.887 2.67-6.164 5.437-5.874 4.122.431 5.765 8.595 8.533 27.119.568 3.8 1.219 8.157 1.838 11.323.055-.299.112-.618.17-.959 1.936-11.358 5.508-17.428 10.92-18.557 6.236-1.297 12.631 4.821 16.398 9.348.407-5.993.927-15.57.509-20.631-.131-1.58.788-2.292 1.189-2.525 1.719-1 3.468.197 7.695 3.089 4.675 3.199 11.689 7.991 18.774 9.451 4.781.191 9.838-.88 14.82-4.089.053-.039.107-.076.163-.109 2.641-1.726 5.261-4.051 7.806-7.113-.002.001-26.096 2.443-31.7-8.829z" fill="#2568ef"/><path d="m395.223 630.589c-12.453-10.189-41.011-19.205-41.011-19.205s29.601-14.984 29.601-38.531c0 0-23.092 9.695-45.991 5.521 6.287 6.44 10.256 12.743 9.756 18.157-.483 5.234-4.759 9.107-12.709 11.51-5.723 1.73-11.841 2.488-18.156 2.489-38.956.003-85.694-28.827-97.239-36.358.706 6.245 10.519 17.28 18.425 24.101.649.56.869 1.47.548 2.265-.321.794-1.115 1.292-1.968 1.247-25.85-1.478-39.108-16.729-43.698-23.387-7.39 13.357-37.245 65.375-57.152 71.317-3.229.963-6.147.753-8.673-.624-13.814-7.535-15.5-26.029-14.954-38.219-2.853 4.081-6.42 7.494-10.358 10.37-21.198 30.72-54.282 68.671-87.617 69.891 0 0 44.391-1.027 75.396-17.66-14.464 14.321-30.21 37.067-31.105 58.551-.679 16.302-2.239 46.465 86.76-15.04 11.936 16.252 35.899 32.55 71.166-14.208 16.035 11.519 69.874 43.444 87.141-32.608 0 0 10.458-3.551 53.661 12.815 21.875 8.285 94.649-6.189 38.177-52.394z" fill="#2568ef"/></svg>