<?xml version="1.0" encoding="UTF-8"?><svg xmlns="http://www.w3.org/2000/svg" viewBox="0 0 894.595 846.633" x="0px" y="0px" width="895px" height="847px" version="1.1" xmlns:xlink="http://www.w3.org/1999/xlink">
  <title>Разбор фоны</title>
  <g id="Мыло">
    <path d="M414.271,551.967l63.523-81.888,51.916,54.438,94.461-81.581,93.736,203.506S541.616,508.435,414.271,551.967Z" fill="#ffe3e2"/>
    <path d="M778.119,228.636a2.545,2.545,0,0,1-.369-.027c-1.052-.157-105.791-16.129-159.974-52.7A2.5,2.5,0,0,1,616.82,173l11.92-33.49c-7.223,4.9-19.528,15.055-26.991,31.3a2.5,2.5,0,0,1-3.182,1.284l-15.624-6.113a2.5,2.5,0,0,1-1.385-3.316c.372-.866,8.805-20.367,16.815-30.037-5.619,1.719-17.7,8.913-26.591,25.121A2.5,2.5,0,0,1,569.129,159c-.336-.063-34-6.419-70.923-16.274a2.5,2.5,0,0,1-1.771-3.059c.277-1.042,7.123-25.687,35.575-41.818,29.64-16.805,70.709-17.871,122.067-3.17,69.488,19.891,100.194,54.5,113.717,80.026,14.749,27.844,12.9,50.7,12.815,51.657a2.5,2.5,0,0,1-2.49,2.277Zm-155.934-55.8c48.693,31.9,136.776,47.62,153.522,50.385,0-6.728-1.169-25.243-12.479-46.453-13.1-24.573-42.915-57.929-110.527-77.283-50.02-14.318-89.8-13.406-118.225,2.713-21.643,12.271-30,30.021-32.4,36.38,30.942,8.157,59.057,13.775,66.224,15.169,11.142-19.184,27.07-26.856,32.917-26.505a3.849,3.849,0,0,1,3.644,2.282c.627,1.555.087,3.273-1.6,5.106-6.229,6.747-13.4,21.817-16.05,27.644l11.021,4.312a81.9,81.9,0,0,1,34.124-35.075,2.5,2.5,0,0,1,3.446,3.088Z" fill="#ff9b19"/>
    <path d="M273.6,163.45c-42.1,0-73.939-12.078-95.035-23.928-30.523-17.145-45.4-37.008-46.021-37.845a2.5,2.5,0,0,1,1.087-3.809C197.7,72.419,256.937,58.43,309.705,56.289c42.341-1.718,80.65,4.144,113.857,17.423,56.765,22.7,78.612,58.7,79.514,60.222a2.5,2.5,0,0,1-4.3,2.553h0c-.215-.36-22.085-36.262-77.434-58.277C370.505,57.989,280.3,45.7,138.651,101.262c5.04,5.9,19.215,20.941,42.582,34.023,27.347,15.31,73.277,31,136.794,18.8A2.5,2.5,0,0,1,318.97,159,240.3,240.3,0,0,1,273.6,163.45Z" fill="#ff9b19"/>
    <path d="M499.866,140.74a2.571,2.571,0,0,1-.314-.02,2.5,2.5,0,0,1-2.187-2.559h0c0-.142.118-14.424-19.12-37.148C460.372,79.9,421.757,47.075,339.291,10.577a2.5,2.5,0,0,1,.418-4.714A260.633,260.633,0,0,1,393.168-.19c39.016-.278,69.778,9.428,88.978,28.077,24.116,23.425,30.9,60.729,20.162,110.876A2.5,2.5,0,0,1,499.866,140.74ZM348.4,9.182C411.3,37.732,457.637,68.545,482.678,98.516c9.485,11.352,14.406,20.731,16.956,27.532,6.988-42.467-.047-74.249-20.972-94.574C441.8-4.339,371.445,4.943,348.4,9.182Z" fill="#ff9b19"/>
    <path d="M500.115,137.508a2,2,0,0,1-1.329-.506C448.106,91.905,352.921,85.941,282,88.877a951.1,951.1,0,0,0-143.549,17.447,2,2,0,1,1-.848-3.909A955.771,955.771,0,0,1,281.836,84.88c45.516-1.884,85.978.337,120.265,6.6,43.043,7.866,76.467,22.176,99.344,42.532a2,2,0,0,1-1.33,3.494Z" fill="#ff9b19"/>
    <path d="M193.868,309.5a2,2,0,0,1-1.573-3.233c.346-.442,35.26-44.717,90.179-87.29,32.28-25.024,65.07-44.59,97.457-58.155,40.564-16.989,80.617-24.562,119.026-22.51a2,2,0,0,1-.214,4c-85.7-4.58-163.578,40.885-213.818,79.831-54.532,42.272-89.138,86.157-89.481,86.6A2,2,0,0,1,193.868,309.5Z" fill="#ff9b19"/>
    <g>
      <path d="M354.177,350.993a480,480,0,0,0-19.046,89.145,9.021,9.021,0,0,0,1.449.261c7.7.673,16.745-8.014,23.861-17.094a471.009,471.009,0,0,1,7.611-51.616c-.18-.1-.361-.194-.54-.3C361.29,367.646,357.053,359.657,354.177,350.993Z" fill="#ff564f"/>
      <path d="M338.066,576.544l28.347-11.809c-2.911-17.548-4.97-34.514-6.284-50.915-10.463-2.366-20.335-8.7-28.469-15.536C331.532,545.741,338.066,576.544,338.066,576.544Z" fill="#ff564f"/>
      <path d="M496.834,145.724c-1.771,1.381-4.311,3.455-7.468,6.224C494.1,148.022,497.33,145.336,496.834,145.724Z" fill="#ff564f"/>
      <path d="M382.153,307.817a19.2,19.2,0,0,1-10.334-3.293c-5.677,12.742-10.6,25.432-14.853,37.975,2.472,9.972,6.355,19.741,12.186,23.973a439.838,439.838,0,0,1,17.261-59.233,16.34,16.34,0,0,1-2.1.433A16.089,16.089,0,0,1,382.153,307.817Z" fill="#ff564f"/>
      <path d="M401.428,249.3c.4,3.394,1.514,7.247,4.281,9.856a10.411,10.411,0,0,0,1.393,1.1c29.693-57.6,65.109-93.266,82.264-108.316-10.872,9.015-29.7,24.581-29.7,24.581A429.922,429.922,0,0,0,401.428,249.3Z" fill="#ff564f"/>
      <path d="M397.665,255.331A427.448,427.448,0,0,0,373.9,299.918c3.35,2.268,6.6,3.215,9.73,2.8a13.179,13.179,0,0,0,5.245-1.98c4.974-12.8,10.344-24.8,15.945-36a15.688,15.688,0,0,1-2.563-1.962A18.028,18.028,0,0,1,397.665,255.331Z" fill="#ff564f"/>
      <path d="M337.385,445.434c-.414,0-.827-.017-1.241-.054a14.194,14.194,0,0,1-1.575-.232c-1.782,16.615-2.623,32.223-2.847,46.475,7.839,7.105,17.686,14.161,28.009,16.938a529.4,529.4,0,0,1,0-76.675C353.131,439.161,345.183,445.434,337.385,445.434Z" fill="#ff564f"/>
    </g>
    <path d="M889.851,324.782a1.986,1.986,0,0,1-.977-.257C823.9,288.056,640.74,321.4,638.9,321.745a2,2,0,0,1-.729-3.933c.464-.086,46.976-8.626,101-12.494,72.77-5.211,123.8.078,151.665,15.719a2,2,0,0,1-.981,3.745Z" fill="#ff9b19"/>
    <path d="M194.867,310.008c-.588,0-.948-.008-1.059-.011a2.5,2.5,0,0,1-2.279-3.379c.219-.582,22.46-58.805,71.238-108.906,28.714-29.492,60.876-50.475,95.594-62.364,43.411-14.866,90.9-15.462,141.146-1.771a2.5,2.5,0,0,1,1.733,3.144C488.075,179.7,329.44,260.138,322.693,263.542a2.5,2.5,0,0,1-3.609-2.519l3.283-28.456c-16.269,37.579-45.775,56.46-69.588,65.879A167.176,167.176,0,0,1,194.867,310.008Zm235.086-181.17c-75.095,0-129.074,36.9-163.6,72.362C225.059,243.61,203.1,291.84,197.6,304.945a166.66,166.66,0,0,0,53.5-11.212c39.552-15.7,64.5-44.623,74.147-85.973a2.5,2.5,0,0,1,4.918.855l-5.577,48.336c25-12.92,154.735-81.419,170.972-119.255A257.5,257.5,0,0,0,429.953,128.838Z" fill="#ff9b19"/>
    <g>
      <path d="M694.421,497.294a459.133,459.133,0,0,0-9.844-65.913,36.638,36.638,0,0,1-12.2,6.964c3.387,15.212,5.843,29.451,7.54,42.7C683.939,488.491,689.094,495.616,694.421,497.294Z" fill="#ff564f"/>
      <path d="M683.249,425.707c-2.669-11.057-5.613-21.285-8.7-30.682a25.21,25.21,0,0,1-4.4.4,23.143,23.143,0,0,1-9.852-2.186c4.392,14.11,8.02,27.549,10.99,40.319A29.329,29.329,0,0,0,683.249,425.707Z" fill="#ff564f"/>
      <path d="M695.674,556.044c.61-18.972.252-36.818-.874-53.527l-.039,0c-5.075-.827-9.657-4.881-13.538-10,3.375,33.666,1.845,60.381-1.073,80.039C686.554,569.507,691.734,562.935,695.674,556.044Z" fill="#ff564f"/>
      <path d="M672.929,390.207c-17.5-50.916-38.58-76.015-38.58-76.015V323.7c9.5,21.966,17.269,42.687,23.606,62.19a19.936,19.936,0,0,0,8.39,4.136A18.876,18.876,0,0,0,672.929,390.207Z" fill="#ff564f"/>
      <path d="M680.026,578.025c-.264.094-.531.163-.8.247-4.047,23.354-9.775,35.14-9.775,35.14l19.928,12.553c3.086-21.179,4.971-41.24,5.9-60.227C691.133,571.214,686.067,575.867,680.026,578.025Z" fill="#ff564f"/>
    </g>
    <path d="M188.391,825.808a29.273,29.273,0,0,1-5.163-5.794c-.714-1-1.314-2.04-1.923-3.076-.534-1.054-1.149-2.094-1.582-3.171a52.1,52.1,0,0,1-3.807-13.07,73.671,73.671,0,0,1-.779-13.024,97.852,97.852,0,0,1,1.272-12.609,145.039,145.039,0,0,1,6.246-23.893,239.73,239.73,0,0,1,9.33-22.383,373.688,373.688,0,0,1,23.8-41.514q13.08-19.908,27.692-38.591c2.4-3.138,4.911-6.183,7.36-9.279l3.7-4.626,3.777-4.551c2.538-3.036,5-6.06,7.6-9.1l4.11-4.592c1.38-1.519,2.865-2.919,4.293-4.383.724-.72,1.435-1.457,2.171-2.163l2.256-2.056c1.517-1.354,2.98-2.78,4.544-4.07l4.681-3.886c1.546-1.317,3.2-2.473,4.8-3.716,3.182-2.5,6.541-4.735,9.843-7.052,1.659-1.145,3.381-2.186,5.069-3.283,1.7-1.074,3.375-2.2,5.124-3.185a278.445,278.445,0,0,1,43.211-20.968,315.849,315.849,0,0,1,45.92-13.553,307.1,307.1,0,0,1,95.185-5.548,289.778,289.778,0,0,1,47,8.7l11.467,3.393,11.3,3.887c3.725,1.413,7.417,2.914,11.125,4.367,3.67,1.509,7.267,3.082,10.882,4.677,14.42,6.427,28.581,13.492,42.355,21.189,13.766,7.715,27.175,16,40.294,24.66s25.972,17.688,38.692,26.87,25.206,18.664,37.686,28.141l-.926-.427.013,0a382,382,0,0,1,37.12,11.252,329.682,329.682,0,0,1,35.743,15.069c5.79,2.912,11.5,6.011,17.054,9.39a172.523,172.523,0,0,1,16.062,11.148,105.71,105.71,0,0,1,14.278,13.569,68.23,68.23,0,0,1,10.852,16.709l-.588-.826.03.029a5.369,5.369,0,0,1,.554.635c.148.191.271.382.4.577a7.8,7.8,0,0,1,.6,1.215,7.513,7.513,0,0,1,.521,2.614,9.46,9.46,0,0,1-1.2,4.7,20.358,20.358,0,0,1-5.5,6.122A65.661,65.661,0,0,1,859.84,767.9a208.455,208.455,0,0,1-27.782,9.854c-18.811,5.4-37.895,9.488-57.03,13.19-19.142,3.671-38.37,6.8-57.62,9.74-19.258,2.891-38.552,5.506-57.861,7.986q-57.944,7.314-116.054,13.106l-29.054,2.907-29,2.788-7.367.708a35.323,35.323,0,0,1-8.25-.353,30.026,30.026,0,0,1-8.075-2.434,24.4,24.4,0,0,1-7.186-5.03,25.29,25.29,0,0,1-4.955-7.286,33.34,33.34,0,0,1-2.353-8.132,54.557,54.557,0,0,1,.135-15.931l-.054.54a4.786,4.786,0,0,0,.019.66c.011.107.027.214.048.32a3.325,3.325,0,0,0,.1.413,3.264,3.264,0,0,0,.6,1.114c.217.229.263.249.256.253a5.147,5.147,0,0,0-.793-.249,17.412,17.412,0,0,0-3.188-.406,52.809,52.809,0,0,0-7.682.276,159.731,159.731,0,0,0-16.087,2.534c-10.781,2.192-21.545,5-32.248,8.037s-21.342,6.359-32.023,9.734c-10.706,3.393-21.425,6.773-32.2,10.065q-16.149,4.965-32.57,9.36c-10.976,2.88-22.062,5.569-33.5,7.458a168.4,168.4,0,0,1-17.453,1.949,99.272,99.272,0,0,1-18.088-.541,64.4,64.4,0,0,1-34.138-14.717Zm9.215-11.019a52.074,52.074,0,0,0,12.472,7.794,52.722,52.722,0,0,0,14.3,3.854c10.053,1.341,20.8.435,31.5-1.191,10.74-1.618,21.53-4.065,32.3-6.732,10.772-2.7,21.516-5.713,32.284-8.721,10.763-3.033,21.521-6.168,32.283-9.32,10.784-3.177,21.681-6.231,32.639-9.019s22.013-5.356,33.289-7.323a169.282,169.282,0,0,1,17.228-2.2,62.072,62.072,0,0,1,9.131-.043,26.38,26.38,0,0,1,5.117.859,12.787,12.787,0,0,1,3.1,1.3,8.37,8.37,0,0,1,1.907,1.544,6.936,6.936,0,0,1,.992,1.394,6.6,6.6,0,0,1,.439,1.044,6.689,6.689,0,0,1,.172.666c.027.149.05.3.067.45a5.119,5.119,0,0,1,.03.791l0,.052a4.131,4.131,0,0,1-.051.489,45.541,45.541,0,0,0-.538,13.13,24.576,24.576,0,0,0,1.5,5.895,16.51,16.51,0,0,0,3.058,4.817,18.659,18.659,0,0,0,10.4,5.338,27.377,27.377,0,0,0,6.283.46l7.173-.481,14.606-.981,14.542-1.061,29.076-2.228c19.384-1.5,38.741-3.289,58.092-5.128s38.681-3.908,57.985-6.168q28.959-3.363,57.81-7.526c19.228-2.79,38.4-5.921,57.474-9.562q14.3-2.73,28.48-5.991c9.442-2.193,18.85-4.54,28.1-7.343a204.218,204.218,0,0,0,27.071-9.9,59.455,59.455,0,0,0,12.042-7.12,15.844,15.844,0,0,0,4.149-4.677,4.618,4.618,0,0,0,.59-2.284,2.559,2.559,0,0,0-.2-.94,2.763,2.763,0,0,0-.214-.412c-.043-.059-.082-.125-.124-.172-.025-.04-.115-.125-.041-.054l.012.012-.588-.827a63.245,63.245,0,0,0-10.065-15.46,100.685,100.685,0,0,0-13.6-12.917,167.288,167.288,0,0,0-15.56-10.8c-5.414-3.292-11-6.324-16.675-9.181a324.76,324.76,0,0,0-35.2-14.835A377.6,377.6,0,0,0,745.884,673l-.012,0a2.373,2.373,0,0,1-.854-.376l-.072-.052c-12.732-9.079-25.466-18.152-38.4-26.915-12.9-8.808-25.888-17.466-39.1-25.728-13.23-8.236-26.619-16.176-40.324-23.478s-27.729-13.931-42.031-19.957c-1.778-.772-3.59-1.476-5.381-2.224-1.8-.721-3.587-1.515-5.387-2.177-3.6-1.342-7.185-2.734-10.8-4.039l-10.958-3.571-11.1-3.09a279.069,279.069,0,0,0-45.38-7.643,299.155,299.155,0,0,0-91.506,6.478c-29.9,6.806-58.891,17.971-84.936,33.8-1.655.947-3.223,2.02-4.823,3.046-1.585,1.047-3.21,2.04-4.763,3.13-3.085,2.2-6.241,4.322-9.192,6.686-1.481,1.173-3.035,2.266-4.458,3.5l-4.327,3.642c-1.448,1.208-2.776,2.533-4.172,3.791l-2.07,1.911c-.671.653-1.313,1.332-1.971,2-1.292,1.347-2.655,2.64-3.893,4.028l-3.691,4.181c-2.462,2.923-4.922,5.986-7.383,8.972l-3.688,4.508-3.6,4.572c-2.385,3.058-4.833,6.072-7.166,9.166-9.438,12.3-18.471,24.879-26.9,37.793a359.693,359.693,0,0,0-22.8,39.944,225.485,225.485,0,0,0-8.684,20.958,130.846,130.846,0,0,0-5.582,21.485,83.689,83.689,0,0,0-1.068,10.733,59.548,59.548,0,0,0,.633,10.378,37.9,37.9,0,0,0,2.732,9.4c.287.746.7,1.38,1.038,2.079.39.642.765,1.309,1.191,1.893A15.358,15.358,0,0,0,197.606,814.789Z" fill="#ff9b19"/>
    <path d="M720.186,366.991c-4.423,0-16.577-2.306-30.527-7.893a146.179,146.179,0,0,1-55.769-39.461,2.5,2.5,0,0,1,.283-3.555c.317-.266,32.243-26.684,79.9-39.441,28.035-7.5,55.971-8.91,83.035-4.178,33.806,5.912,66.3,21.464,96.571,46.225a2.5,2.5,0,0,1,.243,3.643c-.459.491-11.475,12.115-31.306,20.308-18.277,7.552-47.76,13.412-84.42-1.555l-9.833-4.451,15.215,17.33a2.5,2.5,0,0,1-.775,3.892c-1.036.51-25.6,12.4-45.563,4.734a2.5,2.5,0,0,1-1.388-1.317l-8.482-19.057L723.5,364.193a2.517,2.517,0,0,1-.034.623,2.608,2.608,0,0,1-1.915,2.049A5.522,5.522,0,0,1,720.186,366.991ZM639.4,318.321c30.879,34.2,70.37,42.812,79.412,43.63l5.049-28.661a2.5,2.5,0,0,1,4.746-.583l11.377,25.563c13.913,4.8,30.787-.85,37.571-3.584l-20.594-23.457a2.5,2.5,0,0,1,2.91-3.927l20.3,9.19c28,11.431,55.059,11.985,80.327,1.612a96.9,96.9,0,0,0,27.824-17.318c-66.206-52.957-130.494-50.683-172.957-39.315C675.509,292.14,647.01,312.493,639.4,318.321Z" fill="#ff9b19"/>
    <path d="M537.677,477.093a2.5,2.5,0,0,1-2.486-2.234c-6.428-60,21.553-98.825,46.159-120.828,26.568-23.758,54.215-33.228,55.379-33.619A2.5,2.5,0,0,1,640,322.431c8.578,60.583-19.542,99.41-44.643,121.314-27.082,23.633-55.722,32.851-56.928,33.231A2.5,2.5,0,0,1,537.677,477.093ZM635.46,326.228a178.082,178.082,0,0,0-50.908,31.648c-33.644,30.152-48.672,68.257-44.7,113.294A178.085,178.085,0,0,0,592.2,439.865C626.483,409.882,641.027,371.66,635.46,326.228Z" fill="#ff9b19"/>
    <path d="M468.755,345.83c-21.811,0-41.681-8.772-42.931-9.335a2.5,2.5,0,0,1-1.049-3.673,102.368,102.368,0,0,1,60.64-43.1c20.287-5.323,43.815-5.736,69.928-1.226,44.246,7.643,81.239,27.1,81.607,27.3a2.5,2.5,0,0,1,.774,3.777c-16.709,20.73-80.53,19.475-83.234,19.412a2.5,2.5,0,0,1-2.038-1.137l-8.612-13.25-4.666,19.268a2.5,2.5,0,0,1-2.94,1.859l-23.856-4.981a2.5,2.5,0,0,1-1.979-2.213l-1.443-15.367L502.9,335.329a2.513,2.513,0,0,1-.785.921C492.047,343.44,480.137,345.829,468.755,345.83Zm-38.077-12.756c10.063,3.87,44.967,15.406,68.028-.54l9.68-19.456a2.5,2.5,0,0,1,4.727.88l2.092,22.262,19.68,4.11,5.46-22.552a2.5,2.5,0,0,1,4.526-.774L555.917,334c8.76.069,59-.225,75.731-15.278-9.53-4.666-40.919-19.059-77.269-25.319C497.925,283.678,456.327,297.025,430.678,333.074Z" fill="#ff9b19"/>
    <path d="M635.778,320.5a2.5,2.5,0,0,1-2.426-1.9c-13.566-54.552-107.7-53.9-108.656-53.887a2.5,2.5,0,0,1-1.814-4.256c.363-.367,9.063-9.065,25.13-15.076,14.758-5.521,38.785-9.688,69.452,1.812,18.088,6.783,28.983,16.709,32.383,29.5,5.622,21.162-11.417,42.019-12.145,42.9A2.5,2.5,0,0,1,635.778,320.5Zm-104.3-60.649a214.427,214.427,0,0,1,44.045,6.411c32.524,8.509,53.549,24.406,61.189,46.15,4.392-6.7,11.927-20.827,8.3-34.45-2.966-11.129-12.824-19.9-29.3-26.083C572.4,235.635,542.739,251.692,531.479,259.849Z" fill="#ff9b19"/>
    <path d="M684.624,745.146c-10.234,0-31.368-2.621-31.368-10.723S674.39,723.7,684.624,723.7c12.818,0,26.613,3.356,26.613,10.724S697.442,745.146,684.624,745.146Zm-26.319-10.723c1.275,2.084,12.538,5.723,26.319,5.723,14.039,0,21.613-4.063,21.613-5.723s-7.574-5.724-21.613-5.724C670.843,728.7,659.58,732.338,658.305,734.423Z" fill="#ff9b19"/>
    <path d="M711.606,710.868c-3.027,0-18.123-.334-18.123-6.915s15.1-6.916,18.123-6.916a105.116,105.116,0,0,1,15.527,1.327c7.833,1.286,10.746,2.8,10.746,5.589s-2.913,4.3-10.746,5.588A105.116,105.116,0,0,1,711.606,710.868Zm-12.388-6.915c1.826.856,6.123,1.915,12.388,1.915a93.5,93.5,0,0,0,18.17-1.915,93.48,93.48,0,0,0-18.17-1.916C705.341,702.037,701.044,703.1,699.218,703.953Zm34.135,1.21h0Z" fill="#ff9b19"/>
    <path d="M250.6,774.261c-7.233,0-12.688-3.41-12.688-7.933s5.455-7.933,12.688-7.933c.216,0,21.519.967,21.519,7.933S250.817,774.261,250.6,774.261Zm0-10.866c-4.694,0-7.688,1.926-7.688,2.933s2.994,2.933,7.688,2.933c4.664,0,12.4-1.541,15.529-2.933C263.005,764.937,255.265,763.4,250.6,763.4Zm16.744,3.683h0Z" fill="#ff9b19"/>
    <path d="M331.66,578.545a1.91,1.91,0,0,1-.225-.013,2,2,0,0,1-1.765-2.208h0c.027-.25,2.541-25.431-15.365-56.669-16.574-28.914-54.528-69.088-141.218-96.272a2,2,0,0,1,1.2-3.817c38.854,12.184,71.4,27.979,96.745,46.946,20.349,15.231,36.129,32.533,46.9,51.426,18.43,32.322,15.834,57.762,15.715,58.829A2,2,0,0,1,331.66,578.545Z" fill="#ff9b19"/>
    <path d="M234.748,498.568a30.273,30.273,0,0,1-8.735-1.319c-32.642-9.8-56.559-73.1-56.559-75.638a2,2,0,0,1,1.856-1.994c3.644-.263,89.435-6.117,105.783,21.794,4.756,8.12,3.277,18.136-4.4,29.769C260.684,489.393,247.953,498.568,234.748,498.568ZM174.2,423.453a225.472,225.472,0,0,0,16.129,33.516c9.171,15.447,23.589,34.446,40.194,37.235,13.261,2.227,26.326-6.26,38.836-25.227,6.764-10.254,8.2-18.848,4.284-25.544C260.036,420.2,188.775,422.689,174.2,423.453Z" fill="#ff9b19"/>
    <path d="M328.7,578.544a2,2,0,0,1-1.365-.538A188.781,188.781,0,0,0,274.9,545.632c-41.143-16.562-78.754-12.954-111.791,10.724a2,2,0,1,1-2.33-3.251c42.668-30.58,86.485-22.936,115.729-11.137a193.058,193.058,0,0,1,53.556,33.115,2,2,0,0,1-1.366,3.461Z" fill="#ff9b19"/>
    <path d="M201.19,572.118a65.126,65.126,0,0,1-12.278-1.153c-19-3.642-29.958-14.362-30.415-14.817a2,2,0,0,1-.344-2.38c15-27.35,32.628-42.069,52.385-43.749,31.155-2.651,55.819,27.914,56.854,29.216a2,2,0,0,1-.222,2.725C241.018,565.693,218.211,572.118,201.19,572.118Zm-38.761-17.812a60.944,60.944,0,0,0,27.447,12.771c23.209,4.365,48.475-4.894,73.164-26.785-5.262-5.971-26.871-28.446-52.181-26.286C192.854,515.545,176.567,529.1,162.429,554.306Z" fill="#ff9b19"/>
    <path d="M260.012,595.865a40.031,40.031,0,0,1-7.674-.674,2,2,0,0,1-1.564-2.249c5.863-39.772,45.313-39.357,45.706-39.349a2,2,0,0,1,1.949,2.156c-1.192,15.181-6.362,26.291-15.368,33.021C275.232,594.622,266.24,595.865,260.012,595.865Zm-4.956-4.306c4.512.525,16.232,1.035,25.64-6.015,7.594-5.69,12.142-15.068,13.538-27.894C286.458,558.106,260.507,561.867,255.056,591.559Z" fill="#ff9b19"/>
    <path d="M293.246,490.636a2,2,0,0,1-1.981-1.723c-.2-1.461-4.737-35.914,17.99-47.751a2,2,0,0,1,2.685.825c.364.678,8.872,16.758,3.059,31.158-3.272,8.106-10.386,13.96-21.144,17.4A2.015,2.015,0,0,1,293.246,490.636Zm16.05-44.887c-15.165,9.594-14.851,32.609-14.3,40.164,8.242-3.107,13.717-7.892,16.289-14.246C315.335,461.654,311.222,450.169,309.3,445.749Z" fill="#ff9b19"/>
    <path d="M695.984,635.983a2,2,0,0,1-1.942-2.484,167.286,167.286,0,0,1,24.949-51.766c16.906-23.506,47.475-51.153,97.138-49.366a2,2,0,0,1-.143,4c-38.443-1.381-69.987,14.667-93.748,47.7a166.175,166.175,0,0,0-24.314,50.4A2,2,0,0,1,695.984,635.983Z" fill="#ff9b19"/>
    <path d="M756.892,587.075a20.6,20.6,0,0,1-2.656-.169c-9.659-1.256-17.03-9.318-21.908-23.963-3.441-10.328-2.439-18.605,2.979-24.6,17.915-19.827,78.613-6.5,81.188-5.929a2,2,0,0,1,1.236,3.048C816.306,537.636,783.593,587.075,756.892,587.075ZM772.9,531.507c-14.168,0-28,2.187-34.626,9.519-4.44,4.914-5.144,11.67-2.151,20.653,4.352,13.065,10.619,20.218,18.627,21.26,21.547,2.805,50.722-36.833,57.961-47.217C806.1,534.434,789.281,531.507,772.9,531.507Z" fill="#ff9b19"/>
    <path d="M737.318,616.426c-8.236,0-18.542-2.985-30.813-8.94a2,2,0,0,1-.434-3.313c.261-.225,26.4-22.362,51.075-5.573a2,2,0,0,1,.867,1.829,17.946,17.946,0,0,1-8.855,13.2A23.661,23.661,0,0,1,737.318,616.426Zm-26.1-11.14c20.24,9.243,30.675,7.832,35.908,4.9a13.875,13.875,0,0,0,6.7-8.978C736.208,590.132,717.814,600.675,711.22,605.286Z" fill="#ff9b19"/>
    <path d="M656.726,606.919a2,2,0,0,1-1.967-1.654c-4.327-24.579,4.645-40.457,9.9-47.322-15.587,2.5-19.137,15.48-19.294,16.083a2,2,0,0,1-3.927-.3c-4.459-45.182-14.721-59.708-20.68-64.372,21.1,42.316,2.16,73.99,1.958,74.318a2,2,0,0,1-3.682-.76c-1.984-13.612-4.626-22.9-7.321-29.233,1.21,12.469-6.216,25.458-6.568,26.066a2,2,0,0,1-3.461-2.006c.088-.152,8.744-15.326,5.385-27.273a17.107,17.107,0,0,0-8.748-10.593,2,2,0,0,1,.678-3.737c1.649-.231,15.676-.94,22.954,39.772,4.356-11.1,10.854-37.472-7.435-69.768a2,2,0,0,1,1.695-2.985c.639-.014,6.347.121,12.721,9.226,7.42,10.6,12.7,28.736,15.724,53.975,3.619-5.56,10.918-12.6,24.739-12.822a2.018,2.018,0,0,1,1.889,1.259,2,2,0,0,1-.5,2.213c-.172.16-17.52,16.657-12.08,47.565a2,2,0,0,1-1.623,2.316A1.977,1.977,0,0,1,656.726,606.919Z" fill="#ff9b19"/>
    <path d="M537.679,476.593a2.029,2.029,0,0,1-.377-.036,2,2,0,0,1-1.589-2.339c8.937-46.858,96.575-148.445,100.3-152.746a2,2,0,0,1,3.024,2.619c-.906,1.045-90.659,105.071-99.4,150.876A2,2,0,0,1,537.679,476.593Z" fill="#ff9b19"/>
    <g>
      <path d="M570.941,677.449l-26-7.952c-1.329,2.323-4.33,4.2-6.957,5.482,10.176,2.656,14.75,5.41,14.7,8.763-.065,4.173-7.944,6.864-13.316,8.215,8.177,5.122,11.845,9.92,11.2,14.612-.842,6.1-9.14,9.579-13.373,10.968,6.338,6.869,9.315,12.818,8.9,17.755l24.85-6.141c6.779,0,12.275-11.573,12.275-25.851S577.72,677.449,570.941,677.449Z" fill="#ff564f"/>
      <path d="M520.275,741.672l22.664-5.6c1.061-4.54-2.156-10.662-9.607-18.231a1.5,1.5,0,0,1,.717-2.51c3.533-.853,12.851-4.163,13.54-9.173.523-3.808-3.97-8.487-12.992-13.531a1.5,1.5,0,0,1,.449-2.783c7.767-1.5,14.6-4.369,14.632-6.148,0-.314-.426-3.181-16.859-6.878a1.5,1.5,0,0,1-.154-2.883c3.226-1.1,7.625-3.3,9.29-5.35l-20.045-6.13a131.334,131.334,0,0,1,4.557,34.926C526.467,711.613,524.249,728.888,520.275,741.672Z" fill="#ff564f"/>
    </g>
    <path d="M281.367,757.394c-1.226,0-2.58-.082-4.039-.171-1.385-.084-2.818-.172-4.093-.172-6.877,0-12.062-3.192-12.062-7.424s5.185-7.425,12.062-7.425c6.216,0,14.779,6.369,14.779,10.991a3.718,3.718,0,0,1-1.175,2.738C285.61,757.088,283.728,757.394,281.367,757.394Zm1.658-4.08h0Zm-9.79-6.112c-4.558,0-7.062,1.821-7.062,2.425s2.5,2.424,7.062,2.424c1.427,0,2.937.092,4.4.181a46.4,46.4,0,0,0,4.847.133C280.946,750.422,276.593,747.2,273.235,747.2Z" fill="#ff9b19"/>
    <path d="M748.919,741.669a86.436,86.436,0,0,1-15.08-1.434c-7.011-1.344-9.871-3.027-9.871-5.812s2.86-4.469,9.871-5.812a86.34,86.34,0,0,1,15.08-1.435c1.928,0,18.837.2,18.837,7.247S750.847,741.669,748.919,741.669Zm-17.941-7.246a72.76,72.76,0,0,0,17.941,2.246c7.022,0,11.648-1.29,13.334-2.246-1.686-.957-6.312-2.247-13.334-2.247A72.7,72.7,0,0,0,730.978,734.423Zm31.9.484h0Z" fill="#ff9b19"/>
    <path d="M447.132,678.341c-6.066-11.878-10.216,5.748-12.454,20.371a17.684,17.684,0,0,0-13.549-6.1l-8.354.088,1.111,17.551a2,2,0,0,1-1.87,2.122c-.043,0-.086,0-.128,0a2,2,0,0,1-1.994-1.873l-2.853-45.056a2.952,2.952,0,0,0-1.115-.588c-2.984-.812-8.562-2.325-10.856-2.9-3.2-.8-4-29.235-4-29.235-4-34.841-17.621-15.619-17.621-15.619-12.847,5.71-2.8,39.584-.457,46.9a19.692,19.692,0,0,1,9.2-.852,2,2,0,1,1-.673,3.943c-8.13-1.387-17.843,5.7-23.918,11.138-14.081,24.8-7.868,75.4-7.868,75.4h10.159v-15.9a11.982,11.982,0,0,1,23.964,0v15.9h19.351c9.783-8.232,38.269-20.69,51.94-26.42C454.379,709.863,452.349,688.558,447.132,678.341ZM379.318,635.49l-4.673,1.2v-6.475a2.335,2.335,0,0,1,2.335-2.335h0a2.335,2.335,0,0,1,2.335,2.335Zm-11.147,69.972-4.672,1.2V694.292a2.334,2.334,0,0,1,2.335-2.335h0a2.334,2.334,0,0,1,2.335,2.335Zm26.5-32.395A2.335,2.335,0,0,1,397,670.732h0a2.335,2.335,0,0,1,2.335,2.335v5.274l-4.673,1.2Zm7.009,52.9-4.673,1.2V708.309a2.336,2.336,0,0,1,2.335-2.335h0a2.336,2.336,0,0,1,2.335,2.335Z" fill="#ff9b19"/>
    <path d="M510.923,648.35a9.15,9.15,0,0,0-5.65-2.076H484.8c-12.543,0-19.312,27.561-19.312,53.493,0,25.089,6.336,51.7,18.108,53.4,3.746-2.863,6.234-7.966,7.882-13.7-3.619-8.239-6.536-21.935-6.536-39.7,0-18.661,3.216-32.843,7.085-40.915,3.868,8.072,7.084,22.254,7.084,40.915,0,4.12-.164,8.007-.45,11.672.1,7.078-.3,30.44-9.547,41.821h16.162c2.913,0,5.51-1.5,7.786-4.111,4.956-10.26,9.408-30.844,9.408-51.769C522.467,674.231,516.821,654.761,510.923,648.35Zm-30.984,51.417c0,17.584,3.115,35.906,9.03,45.887-1.429,1.712-2.858,2.606-4.172,2.606-5.976,0-14.312-18.448-14.312-48.493s8.336-48.493,14.312-48.493c1.314,0,2.743.894,4.172,2.606C483.054,663.861,479.939,682.183,479.939,699.767Z" fill="#ff564f"/>
    <path d="M117.567,254.687c0,14.966-14.085,27.1-29.051,27.1-25.288,0-30.356-16.858-27.44-31.538,3.057-15.4,12.473-22.661,27.44-22.661S117.567,239.72,117.567,254.687Z" fill="#ff9b19"/>
    <path d="M60.339,227.857a2.492,2.492,0,0,1-1.746-.712l-35.6-34.768a2.5,2.5,0,0,1,3.493-3.578l35.6,34.769a2.5,2.5,0,0,1-1.747,4.289Z" fill="#ff9b19"/>
    <path d="M88.953,210.472a2.5,2.5,0,0,1-2.5-2.5V171.23a2.5,2.5,0,0,1,5,0v36.742A2.5,2.5,0,0,1,88.953,210.472Z" fill="#ff9b19"/>
    <path d="M83.835,337.767a2.584,2.584,0,0,1-.339-.022,2.5,2.5,0,0,1-2.142-2.814l5.122-37.77a2.5,2.5,0,1,1,4.955.671L86.309,335.6A2.5,2.5,0,0,1,83.835,337.767Z" fill="#ff9b19"/>
    <path d="M131.715,249.417a2.5,2.5,0,0,1-.4-4.968l36.339-5.926a2.5,2.5,0,1,1,.805,4.935l-36.339,5.926A2.554,2.554,0,0,1,131.715,249.417Z" fill="#ff9b19"/>
    <path d="M48.171,257.366h-.013l-33.623-.179a2.5,2.5,0,0,1,.013-5h.014l33.622.179a2.5,2.5,0,0,1-.013,5Z" fill="#ff9b19"/>
    <path d="M112.216,227.857a2.5,2.5,0,0,1-1.956-4.055l23.576-29.675a2.5,2.5,0,1,1,3.915,3.111l-23.576,29.674A2.5,2.5,0,0,1,112.216,227.857Z" fill="#ff9b19"/>
    <path d="M37.983,311.623a2.5,2.5,0,0,1-1.715-4.319L58.625,286.24a2.5,2.5,0,0,1,3.429,3.639L39.7,310.943A2.491,2.491,0,0,1,37.983,311.623Z" fill="#ff9b19"/>
    <path d="M131.721,308.3a2.5,2.5,0,0,1-2.156-1.231l-14.151-24.011a2.5,2.5,0,0,1,4.307-2.539l14.151,24.011a2.5,2.5,0,0,1-2.151,3.77Z" fill="#ff9b19"/>
    <path d="M401.977,757.882l82.05-5.291c7.315-7.021,9.26-23.185,9.733-33.448C481.191,722.9,425.6,740.125,401.977,757.882Z" fill="#ff9b19"/>
  </g>
</svg>