<svg enable-background="new 0 0 980.556 1096.086" height="1097" viewBox="0 0 980.556 1096.086" width="981" xmlns="http://www.w3.org/2000/svg"><path d="m483.854 1008.768c-37.322-64.528-54.392 15.246-54.392 15.246 8.551-6.471 19.706-9.594 31.969.524 0 0-29.208 6.453-27.849 29.233l106.612-.443c-2.716-75.396-56.34-44.56-56.34-44.56z" fill="#324a58"/><path d="m750.788 966.18c.172-.155.268-.238.268-.238-.131.033-.255.07-.386.103.04.045.077.09.118.135z" fill="#2568ef"/><path d="m603.237 907.775c3.925.522 9.077 5.932 12.902 6.52 35.361-33.75 122.596-18.373 157.738-9.853 48.401 11.734 69.905 13.63 95.724 28.23 9.002-117.35-6.632-288.346-4.788-355.593 1.58-57.624-32.724-169.803-45.834-223.409-51.642-211.15-338.54-11.949-355.406-148.495-26.635-215.641-236.108-287.474-291.957-87.263-16.591 59.479-30.635 213.401-30.635 370.785 0 194.521-.742 400.441 111.993 493.776 64.327-52.778 201.555-145.113 350.263-74.698z" fill="#2568ef"/><path d="m516.554 790.396s87.943-497.106 165.736-110.748c0 0-19.081-343.698 84.875-289.358s118.067 551.547 118.067 551.547-193.5-94.065-265.432-23.443c0 0-51.623-37.689-122.264-41.765z" fill="#ffe3e2"/><path d="m378.378 907.28s-11.854-23.707 15.558-37.784c0 0-11.113-60.009 38.525-45.192 0 0 14.076 2.349 12.595 30.438 0 0 46.027-203.963 95.951-96.982 11.504 24.651 21.104 42.096 19.622 112.477 0 0 34.079-80.012 48.896-40.747 0 0 31.116-125.946 34.079-57.046s0 60.009 0 60.009 22.967-25.93 21.485 7.409l.069 42.229s37.715-91.125 50.31-48.896v44.451s46.674-37.784 56.305 22.226c0 0-122.041-28.1-154.041 15.9 0-.001-76.365-62.574-239.354-8.492z" fill="#ff564f"/><path d="m802.475 696.877s-55.53-149.653 72.918-232.629c0 0 77.703-47.415 60.26 93.348s-41.23 179.287-41.23 179.287 53.917-48.896 82.461 45.933c28.544 94.83-118.614 68.599-118.614 68.599l-1.905-27.111c-.002 0-137.965-22.225-53.89-127.427z" fill="#ff9b19"/><path d="m346.555 176.37c1.274-3.284 1.557-6.832.566-10.247-2.83-9.722-14.576-15.24-26.181-12.349-4.812 1.182-8.774 3.679-11.605 6.832-.708-4.598-2.83-9.196-6.51-13.006-9.765-10.116-26.464-11.036-37.361-1.971-7.925 6.569-10.472 16.422-7.784 25.224-3.255-.92-6.651-1.577-10.331-1.577-15.85-.131-28.87 9.459-29.011 21.414-.142 11.955 12.595 21.809 28.445 22.071 10.189.131 19.246-3.81 24.341-9.853 5.095 6.832 14.718 11.561 25.898 11.693 11.746.131 22.077-4.992 27.172-12.481 4.246 2.759 10.048 4.467 16.558 4.598 13.02.131 23.634-6.7 23.775-15.108.143-7.357-7.641-13.532-17.972-15.24z" fill="#ffe3e2"/><path d="m110.02 533.153s-64.437-282.622 115.986-166.06c0 0 48.328 36.725 38.662 124.545 0 0 88.6 4.79 46.717 84.627 0 0 296.961 172.652-35.44 274.638-66.817 20.501-347.958 70.256-161.092-226.736 0 0-77.324-59.079-4.833-91.014z" fill="#ff9b19"/><path d="m940.867 881.586s38.752-.012 39.674 37.916c.923 37.928-39.674-37.916-39.674-37.916z" fill="#ff9b19"/><path d="m913.977 904.138s20.245-25.494-5.259-37.072c-25.504-11.579 5.259 37.072 5.259 37.072z" fill="#ff9b19"/><path d="m348.907 840.237s-35.66 48.059-12.226 40.553 12.226-40.553 12.226-40.553z" fill="#ff9b19"/><path d="m315.92 910.455s14.044 55.382 41.885 34.718c27.842-20.665-41.885-34.718-41.885-34.718z" fill="#ff9b19"/><path d="m642.906 362.47c-2.591.095-5.056.434-7.314.964.039-.65.049-1.307.025-1.971-.407-11.1-9.735-19.768-20.835-19.361-.276.01-.55.03-.822.051-2.761-8.236-10.681-14.032-19.802-13.697-11.1.407-19.767 9.735-19.36 20.834v.001c-22.048.84-39.641 8.491-39.325 17.119.317 8.647 18.504 14.999 40.621 14.188 3.913-.143 7.682-.506 11.241-1.046-.003.21-.005.421.002.633.317 8.647 9.572 15.327 20.672 14.92 10.887-.399 19.498-7.469 19.525-15.9 3.761 2.264 9.601 3.6 16.109 3.362 11.1-.407 19.932-5.236 19.729-10.786-.203-5.549-9.366-9.718-20.466-9.311z" fill="#ffe3e2"/><g fill="#ff9b19"><path d="m434.243 513.203c-1.257 0-2.34-.946-2.481-2.224l-5.384-48.458c-.152-1.372.836-2.608 2.208-2.761 1.379-.156 2.608.836 2.761 2.208l5.384 48.458c.152 1.372-.836 2.608-2.208 2.761-.095.011-.188.016-.28.016z"/><path d="m464.904 401.674c0 23.051-16.647 45.432-41.738 45.432s-47.279-18.468-49.126-41.738c-1.824-22.979 18.494-43.585 43.585-43.585 25.092 0 47.279 16.84 47.279 39.891z"/><path d="m413.985 353.393c-1.22 0-2.288-.894-2.471-2.136l-6.792-46.189c-.2-1.366.744-2.636 2.11-2.837 1.368-.2 2.636.744 2.837 2.11l6.792 46.189c.2 1.366-.744 2.636-2.11 2.837-.123.017-.245.026-.366.026z"/><path d="m448.017 358.827c-.388 0-.78-.09-1.147-.281-1.227-.635-1.705-2.144-1.07-3.37l16.886-32.604c.635-1.227 2.146-1.705 3.369-1.07 1.227.635 1.705 2.144 1.07 3.37l-16.886 32.604c-.445.859-1.318 1.351-2.222 1.351z"/><path d="m373.925 371.053c-.525 0-1.054-.165-1.505-.506l-27.864-21.057c-1.102-.833-1.32-2.4-.487-3.502.832-1.102 2.4-1.319 3.501-.487l27.864 21.057c1.102.833 1.32 2.4.487 3.502-.491.651-1.239.993-1.996.993z"/><path d="m364.53 406.945h-43.599c-1.381 0-2.5-1.119-2.5-2.5s1.119-2.5 2.5-2.5h43.599c1.381 0 2.5 1.119 2.5 2.5s-1.119 2.5-2.5 2.5z"/><path d="m354.892 473.619c-.568 0-1.14-.192-1.608-.587-1.057-.889-1.192-2.466-.304-3.522l25.133-29.887c.889-1.057 2.466-1.192 3.522-.304 1.057.889 1.192 2.466.304 3.522l-25.133 29.887c-.494.588-1.202.891-1.914.891z"/><path d="m505.684 449.607c-.384 0-.772-.088-1.138-.275l-36.68-18.78c-1.229-.629-1.715-2.136-1.086-3.365.63-1.229 2.135-1.715 3.365-1.086l36.68 18.78c1.229.629 1.715 2.136 1.086 3.365-.442.864-1.319 1.361-2.227 1.361z"/><path d="m469.004 386.964c-1.121 0-2.142-.76-2.424-1.897-.333-1.34.482-2.696 1.822-3.029l36.68-9.118c1.343-.334 2.696.483 3.029 1.823s-.482 2.696-1.822 3.029l-36.68 9.118c-.202.05-.405.074-.605.074z"/><path d="m380.731 1055.227c-1.163 0-2.204-.816-2.446-2-.052-.253-5.426-25.333-25.434-31.285-1.248-.371-2.002-1.637-1.733-2.911s1.481-2.131 2.76-1.965c1.625.206 33.68 4.448 43.913 19.189 1.305-12.187 3.044-30.342 4.228-43.272.114-1.248 1.135-2.218 2.387-2.27 1.3-.042 2.349.833 2.565 2.067l7.67 43.807c4.831-7.31 14.312-19.057 26.649-21.615 7.72-1.601 15.304.617 22.545 6.592.737.608 1.063 1.584.84 2.513-.224.93-.958 1.65-1.892 1.856-1.062.237-25.086 5.815-25.912 24.292h36.077c1.381 0 2.5 1.119 2.5 2.5s-1.119 2.5-2.5 2.5h-38.554c-1.323 0-2.417-1.031-2.495-2.351-1.101-18.445 15.993-27.074 24.774-30.272-4.742-2.812-9.561-3.733-14.369-2.734-15.499 3.213-26.63 24.697-26.74 24.913-.488.958-1.536 1.494-2.599 1.335-1.063-.16-1.905-.982-2.091-2.041l-5.62-32.104c-.308 3.2-.637 6.586-.971 9.961-.818 8.277-1.506 14.872-2.044 19.602-.321 2.826-.593 5.017-.807 6.512-.348 2.43-.677 4.727-3.129 4.571-2.608-.161-2.537-2.355-2.409-6.337.346-10.685-14.547-17.489-27.711-21.161 11.492 10.558 14.823 26.238 15 27.107.274 1.353-.599 2.673-1.952 2.948-.167.036-.335.053-.5.053z"/><path d="m343.254 1096.086c-96.669.001-187.761-3.367-224.168-14.537-10.627-3.26-15.569-12.611-12.592-23.821 2.997-11.284 15.262-26.635 40.692-35.882 19.013-6.913 52.243-12.772 102.585-1.431 1.347.304 2.192 1.642 1.889 2.988-.304 1.347-1.64 2.192-2.988 1.89-91.527-20.621-132.058 13.813-137.345 33.719-2.296 8.642 1.152 15.28 9.226 17.757 85.02 26.085 486.392 8.498 525.479 6.711-1.319-5.862-3.853-19.54-3.075-35.374 1.36-27.72 12.404-48.533 31.938-60.19.913-.545 2.072-.452 2.889.232.815.685 1.107 1.811.729 2.805-.225.588-20.376 54.271-4.589 76.808-.933-8.578-1.322-23.237 3.499-39.347 6.884-22.997 26.146-53.203 78.819-66.502 1.126-.285 2.292.241 2.828 1.267.535 1.026.297 2.286-.577 3.045-.434.377-41.383 36.535-31.814 76.259 6.855-10.769 25.968-34.175 61.644-33.183 1.076.03 2.013.746 2.323 1.776.312 1.031-.072 2.146-.952 2.766-.273.192-27.32 19.485-30.92 40.769-.834 4.929-.318 9.626 1.531 14.026 2.258-7.836 7.544-20.556 18.797-25.311 9.906-4.186 22.024-1.214 36.011 8.837.937.673 1.29 1.9.857 2.969-.435 1.069-1.547 1.7-2.684 1.534-5.246-.777-19.719-1.386-23.632 5.029-2.624 4.301-.346 11.801 6.588 21.729 10.94.713 96.578 4.986 131.754-32.646 14.159-15.148 19.064-33.162 13.812-50.725-5.263-17.594-20.086-34.227-44.059-49.436-28.079-17.814-68.003-33.074-118.662-45.356-23.686-5.743-143.008-31.539-166.013 24.694-.522 1.277-1.982 1.889-3.26 1.367-1.278-.523-1.891-1.983-1.367-3.261 9.996-24.435 36.943-37.434 80.093-38.637 37.582-1.053 76.671 7.328 91.725 10.977 51.192 12.411 91.621 27.885 120.163 45.993 25.019 15.873 40.553 33.444 46.17 52.225 5.783 19.336.475 39.071-14.949 55.571-16.47 17.62-44.575 28.716-83.536 32.979-28.802 3.151-53.193 1.174-53.437 1.154-.729-.061-1.396-.439-1.822-1.034-8.973-12.514-11.414-21.74-7.464-28.207 3.667-6.003 12.15-7.601 18.941-7.839-9.06-4.903-16.861-6.021-23.271-3.32-13.81 5.822-17.256 27.688-17.289 27.908-.152 1.006-.898 1.821-1.889 2.059-.988.238-2.024-.147-2.616-.974-5.015-7.001-6.839-14.792-5.422-23.153 2.864-16.901 18.243-31.963 26.963-39.306-37.259 2.739-51.926 33.957-52.568 35.367-.423.925-1.387 1.496-2.379 1.462-1.016-.042-1.906-.694-2.25-1.651-6.729-18.717-3.359-39.768 9.748-60.877 5.069-8.165 10.621-14.818 14.863-19.395-35.092 11.003-57.28 31.318-66.009 60.48-7.065 23.607-2.224 44.396-2.174 44.603.244 1.016-.169 2.076-1.036 2.659-.865.582-2.004.565-2.854-.045-22.666-16.284-10.614-62.584-4.813-80.643-35.936 28.379-19.92 88.117-19.745 88.748.203.732.062 1.517-.384 2.133s-1.146.996-1.905 1.032c-10.665.515-164.333 7.755-306.047 7.756z"/><path d="m221.069 1017.945c-.604 0-1.211-.218-1.691-.66-1.017-.935-1.082-2.516-.147-3.532.477-.519 48.518-52.277 121.338-90.393 42.832-22.42 85.753-35.828 127.571-39.852 52.346-5.038 103.07 4.696 150.755 28.929 1.23.625 1.722 2.13 1.096 3.361-.624 1.23-2.128 1.723-3.361 1.096-106.016-53.876-207.308-23.85-273.612 10.827-72.087 37.701-119.635 88.903-120.106 89.416-.495.537-1.168.808-1.843.808z"/><path d="m35.121 988.712c-19.85 0-32.876-4.521-33.454-4.726-1.22-.432-1.909-1.724-1.588-2.978.497-1.94 12.532-47.625 43.105-56.613 16.61-4.884 35.236 2.115 55.368 20.796 1.013.939 1.071 2.521.133 3.533-.94 1.012-2.521 1.072-3.533.132-18.751-17.398-35.761-24.014-50.558-19.665-24.191 7.112-36.188 41.504-39.01 50.762 4.847 1.353 17.166 4.202 33.455 3.697 19.434-.604 48.69-6.256 77.711-29.748 1.074-.869 2.648-.702 3.517.371.868 1.073.703 2.647-.37 3.516-30.186 24.434-60.672 30.271-80.931 30.866-1.307.039-2.591.057-3.845.057z"/><path d="m169.154 1020.732c-.997 0-1.938-.6-2.326-1.583-.205-.519-20.955-52.031-62.685-67.323-24.641-9.031-59.885 2.546-96.691 31.761-1.084.859-2.656.677-3.513-.404-.858-1.082-.678-2.654.403-3.512 38.767-30.77 74.823-42.326 101.521-32.54 43.863 16.073 64.747 67.981 65.615 70.183.506 1.284-.125 2.735-1.409 3.242-.3.119-.61.176-.915.176z"/><path d="m141.106 977.103c-1.295 0-2.391-.998-2.49-2.31-.095-1.249-2.152-30.775 12.699-48 6.141-7.122 14.288-11.095 24.214-11.809 1.382-.101 2.573.937 2.673 2.314s-.937 2.574-2.313 2.673c-8.547.615-15.537 4.004-20.776 10.075-13.496 15.636-11.531 44.083-11.51 44.368.103 1.376-.929 2.577-2.305 2.681-.065.005-.129.008-.192.008z"/><path d="m149.97 959.078c-4.706 0-8.156-.766-8.475-.839-1.346-.31-2.186-1.651-1.876-2.997.31-1.345 1.647-2.186 2.994-1.877.199.044 15.538 3.389 24.597-5.082 6.257-5.85 8.285-16.084 6.028-30.417-.215-1.364.717-2.644 2.081-2.858 1.372-.213 2.645.717 2.858 2.081 2.532 16.088-.017 27.82-7.576 34.869-6.241 5.82-14.501 7.12-20.631 7.12z"/><path d="m738.234 1078.772c-.856 0-1.69-.441-2.157-1.233-20.276-34.471-15.49-55.949-15.276-56.847.32-1.343 1.672-2.172 3.011-1.853 1.34.319 2.169 1.662 1.854 3.003-.06.263-4.398 20.659 14.722 53.162.699 1.19.303 2.722-.888 3.422-.399.235-.835.346-1.266.346z"/><path d="m143.893 957.628c-.266 0-.535-.07-.778-.218-.708-.431-.933-1.354-.502-2.062.673-1.107 16.665-27.237 31.732-38.286.666-.49 1.607-.345 2.097.322.489.668.345 1.607-.323 2.097-14.591 10.701-30.781 37.16-30.943 37.426-.283.464-.777.721-1.283.721z"/></g><path d="m368.591 692.056s-25.93-12.595-72.604 11.854c0 0 14.076-35.562 29.634-40.007 0 0-19.859-4.405-37.783 44.452l-20.744 18.634s-11.113-194.217-95.571-225.333c0 0 82.389 49.637 86.387 235.592v57.178c-11.486-17.223-59.993-87.662-96.759-105.828 0 0 89.229 88.402 96.759 140.269v188.927c-2.113 11.507-6.333 29.339-12.668 32.959-8.187 4.679 14.337-1.806 20.759-13.632l9.807 10.739 4.541-15.006c36.982 26.813 60.671 9.506 60.671 9.506-24.726 3.396-30.91-1.116-44.156-9.607-10.108-6.479-17.814-28.081-21.685-41.125-.054-2.539-.04-5.536.064-9.157.741-25.93-5.927-245.223-5.927-245.223s44.401-49.611 99.275-45.192z" fill="#324a58"/><path d="m885.346 790.401c26.152 23.513 63.121 13.286 63.121 13.286-47.412 1.979-58.047-16.266-58.048-16.269 16.201-8.45 29.895-5.714 29.895-5.714-27.896-13.198-54.505 19.507-63.621 32.43-1.612-39.348-2.979-77.8-3.28-106.139 37.638-25.936 39.86-71.869 39.86-71.869-.082 1.693-15.541 50.644-39.898 62.968.075-85.899 18.949-146.336 24.559-210.398 0 0-15.827 68.67-24.561 131.873-4.641-5.797-19.623-42.477-12.33-81.494 0 0-13.311 44.697 10.373 86.31l.014-.102c-2.479 19.551-4.089 38.651-4.089 55.296v278.249s-6.786 46.179-27.164 48.216c0 0 27.164-.927 27.164-24.572v9.266s.014.011.024.02c-.481 11.069-2.978 29.52-13.606 41.097 0 0 20.958-15.674 23.988-37.549.314-.091.622-.207.921-.361 6.654 16.338 39.935 29.76 39.935 29.76-26.726-12.813-33.902-36.828-35.655-52.052-.409-27.844-3.297-87.733-5.799-147.534 8.382-17.702 18.518-28.36 28.197-34.718zm5.07-2.98-5.062 2.975c1.706-1.12 3.397-2.106 5.062-2.975zm-37.042-86.083.039 6.653c-.016-1.472-.029-2.918-.039-4.333-.005-.781.003-1.544 0-2.32z" fill="#324a58"/></svg>