<svg xmlns="http://www.w3.org/2000/svg" viewBox="0 0 3000 3000" width="3000" height="3000"><g transform="translate(2228.0 802.0) rotate(0.0 333.5 717.5) scale(0.9995384440168558 0.999610604649478)"><svg width="667.308" height="1435.559" viewBox="0 0 667.308 1435.559"><path d="M638.77 980.349c-52.03-58.326-161.67-106.935-168.691-170.474 43.385 5.541 69.831-10.573 45.433-37.086 58.342 11.986 44.9-25.58-55.4-123.1 135.122 17.364-16.794-57.133-53.719-193.2 66.523 41.322 91.273 45.491 62.113 1.71 130.644 66.587-64.041-99.954-72.186-206.875 39.786 32.353 52.228 34.209 36.932 5.129 20 6.221 27.168 2.37 10.073-20.516C399.075 171.886 369.2 93.988 356.033 0c1.624 10.962-17.656 182.9-116.653 283.715-23.111 23.536 8.462 23.347 20.09 1.944-14.7 47.972 84.682-58.6 51.064-8.724-46.4 68.84-48.879 99.168-17.324 73.332-13.034 70-164.556 216.691-83.227 171.194-2.8 10.352-9.269 35.243-3.322 38.907 7.887 4.86 24.639-7.123 33.539-32.068 1.061 44.6 23.55 29.233 71.186-60.357-14.834 44.713-27.175 66.713-57.433 106.721s16.579 38.248 24.9 11.649c-33.365 106.675-201.911 160.371-111.62 150.2 0 0-12.878 13.338-48.585 48.289-35.451 34.7 73.783 29.574 73.783 29.574C169.017 914.2-49.726 949.791 87.513 956.422c-29.847 29.823 68.623 29.621 98.477.11 0 0-82.728 86.483-134.648 136.854-35.853 28.739-8.114 55.964 43.111 25.393C87.119 1136.205 142.9 1147 161.1 1131.1c-59.722 60.282-79.039 54.917-141.577 69.225-45.526 10.416-5.861 58.4 61.66 43.818-34.053 63.465 39.8 76.708 79.917 30.432-1.486 5.693-1.216 9.348-.044 11.826 7.869 16.627 106.509 33.813 168.528-51.9.043-1.66-3.3 152.951-7.671 193.76-1.1 10.234 66.252 9.458 65.37-.749-1.456-16.863-12.847-213.179-12.847-213.179 28.851 88.774 144.86 97.232 138.174 57.365 31.29 49.28 92.364 57.634 66.835-8.049 44.53 53.334 113.062 40.859 78.42 12.551-89.151-72.847-139.456-112.7-144.635-138.387 14.408 17.335 33.409 8.016 28.071-9.837 41.168 34.8 65.327 10.465 36.825-21.132-44.169-49.986-70.689-82.469-74.921-108.534 33.135 40.092 68.135 32.628 57.478 2.683 16.9 20.138 36.173 4.158 30.076-16.1 33.511 33.693 63.702 16.774 48.011-4.544z" fill="#333d44"/><path d="M356.033 0c18.883 80.035 38.979 157.644 71.209 210.983 30.968 37.552 40.445 58.489 6.012 45.473 8.24 8.291 14.608 44.243-24.379-25.754C356.807 137.218 356.033 0 356.033 0zm34.613 281.594c13.3 19.179 43.28 87.951 74.119 129.168 48.62 59.366 31.944 63.73-12.042 23.879 12.425 24.186 15.8 35.262 13.051 37.293-19.616-.327-49.112-81.6-45.958-84.184 1.423-1.167 17.779 25.723 21.605 23.525 4.667-2.681-55.489-130.473-52.77-131.917.331-.176 1.541 1.581 1.995 2.236z"/></svg></g><g transform="translate(1831.0 527.0) rotate(0.0 411.5 864.0) scale(0.9992629980075449 0.9996083710259349)"><svg width="823.607" height="1728.677" viewBox="0 0 823.607 1728.677"><path d="M814.829 1253.811c-17.613-14.645-241.174-178.446-241.174-178.446 72.021 37.046 44-9.47-19.417-56.486 57.958-18.3-33.327-55.689-45.827-89.008 0 0 32.565 6.923 15.1-24.078 31.168 49.988 66.37 32.722 59.963 5.037 11.787 12.967 41.793 10.861 24.232-11.4C458.635 724.161 456.683 699.7 424.293 618.738c26.927 12.52 41.561-15.2 27.22-40.241 81.658 81.675 120.585 51.867 78.146-2.683 16.39-11.923-11.1-22.827-34.244-42.029-36.293-30.107-83.707-116.551-93.073-192.264 25.438 16.319 57.658 1.192 42.146-16.991C400.5 272.97 354.342 1.705 354.342 1.705s-.585 230.419-98.2 370.119c-8.047 19.179 47.89 23.311 78.48-33.748-13.939 160.535-158.687 300.964-172.654 317.939-13.609 16.539 28.548 13 36.1-5.606-5.38 17.034 12.789 33.847 30.177 21.592 7.858 24.835 49.712 26.028 57.553-23.091 2.4 21.1 22.6 21.7 33.136 8.881C215.9 871.613 78.833 965.571 54.342 992.436c-33.913 37.2 68.426 22.22 108.644-28.255-45.444 74.874 40.064 85.927 72.23 6.22-6.825 17.663 3.711 28 15.7 19.538-22.93 78.292-125.177 176.342-245.306 278.847-20.615 21.318 19.049 38.237 63.076 4.544-8.009 20.255 17.31 36.235 39.513 16.1-14 29.945 31.98 37.409 75.512-2.682-5.561 26.065-40.4 58.547-98.428 108.534-37.444 31.6-5.706 55.931 48.379 21.132-7.013 17.853 17.95 27.172 36.878 9.837-6.8 25.688-64.779 75.089-137.268 157.419-31.382 38.135 44.522 40.783 103.024-12.551-33.54 65.683 46.7 57.329 87.805 8.049-8.783 39.867 90.877 12.377 128.781-76.4 0 0-11.872 168.557-17.039 217.941-1.13 10.8 91.091 11.915 88.848-4.752-5.895-43.791-12.941-194.681-12.884-193.021 81.477 85.717 165.941 101.792 180.647 88.867 9.291-8.165-8.516-20.117-18.762-26.4 52.705 46.276 149.594 47.961 104.856-15.5 73.862 48.9 167.015 38.361 126.745 2.515-92.628-76.991-166.922-124.928-176.839-150.28 23.9 15.9 52.351 8.848 42.716-8.578 67.3 30.571 103.739 3.346 56.637-25.393-68.209-50.371-90.037-86.213-90.037-86.213s74.164 10.361 55.316-18.681c28.026 18.457 57.331.2 46.336-19.565 55.144 30.292 104.887 4.309 75.407-9.897z" fill="#4a5862"/><g fill="#333d44"><path d="M446.654 329.715c-2.185-5.924-2.762-5.214-8.921-13.74C431.076 307.1 404.762 232.231 352.637 0c-.639.57 50.629 280.525 63.2 320.263 3.4 10.739 12.77 27.426 23.553 23.372 2.879-1.082 9.434-5.23 7.264-13.92zm-56.078 905.838c-4.1 13.813.554 117.488.554 117.488-11.241-47.972-31.349-54.862-36.117-31.237-1.711-56.948-33.44-7.319-48.5 47.649-28.22 102.972 6.441 83.516 28.118 12.818 3.54 88.053 22.4 146.746 42.085 47.111 8.607 42.009 33.386 66.983 42.865-21.512 0 0 53.035 100.621 76.919 129.1 19.271 22.98 30.605 35.473 18.564-9.725-19.806-74.331-110.885-337.579-124.488-291.692zm152.206-137.277c15.244 6.239 192.65 131.449 175.131 153.368-2.716 3.4-10.844 5.222-37.585-6.423 17.2 22.646 2.761 50.069-38.8 11.756s-87.23-97.531-72.108-86.6c16.453 11.892 111.477 87.553 76.335 43.351s-107.417-111.754-104.009-115.55c.198-.225.738-.024 1.036.098zm-337.69 193.682c-78.7 88.732-130.756 152.062-25.318 65.251-6.217 29.678 3.624 26.053 38.235-28.942 26.329-58.929 18.601-68.935-12.917-36.309zm47.686-229.478c-4.226 4.9-19.055 30.885-29.439 43.09-130.73 153.654-67.99 116.247.1 34.388-8.427 67.574-.933 64.9 25.317-20.523 17.985-58.067 11.925-66.118 4.022-56.955zm-49.234-84.022c10.709-14.3 20.457-50.5 15.12-53.471-2.312-1.288-25.086 23.909-30.942 47.293-2.622 10.48 10.233 13.641 15.822 6.178zM467.3 855.984c-2.96-5.462-15.267-9.585-5.854 16.1 21.658 59.088 46.793 67.487 33.951 32.193 26.564 18.8 17.186-8.941-14.048-64.983 47.2 62.037 106.146 83.861 53.535 19.475C424.37 737.148 418.879 640.513 410.1 629.981c-21.541-25.837 14.858 137.324 57.2 226.003zm-74.278-484.865c14.819 69.281 33.743 136.981 97.084 210.819 19.148 22.321 35.951 5.847 20.166-11.506 5.811 5.9 13.863 5.08 7.281-2.469-75.892-65.606-101.695-138.891-123-197.022-.927-2.541-2.571-4.686-1.531.178zm51.239 223.886c-1.006-8.611-21.942-52.485-25.364-53.92-1.961-.822 8.847 50.4 14.091 58.2 4.429 6.586 12.143 3.155 11.273-4.28z"/></g></svg></g><g transform="translate(567.0 2458.0) rotate(0.0 759.5 7.5) scale(1.016269681443946 1.016053647632595)"><svg width="1494.682" height="14.763" viewBox="0 0 1494.682 14.763"><g fill="#cdcdcd"><path d="M0 8.731C-.149 2.255 267.173-6.007 454.377 6.493c31.664 2.114 33.582 2.989 33.575 3.358C487.831 15.692.2 17.476 0 8.731zM1199.193 8.2c-.09-3.922 161.792-8.925 275.157-1.355 19.175 1.28 20.337 1.81 20.332 2.033-.073 3.536-295.367 4.616-295.489-.678z"/></g></svg></g><g transform="translate(109.0 1354.0) rotate(0.0 972.5 557.5) scale(1.0003723751154672 1.000662321787874)"><svg width="1944.276" height="1114.262" viewBox="0 0 1944.276 1114.262"><path d="m1765.047 949.718-407.347.782 31.72-54.383a57.186 57.186 0 0 1 48.739-28.2l234.706-2.881a64.556 64.556 0 0 1 54.424 28.413z"/><ellipse cx="1573.213" cy="967.049" fill="#0e131c" rx="148.504" ry="147.213"/><path d="M1574.116 1082.8c62.572 0 113.3-51.475 113.3-114.973s-50.724-114.973-113.3-114.973-113.3 51.475-113.3 114.973 50.728 114.973 113.3 114.973zm.1-211.749a96.842 96.842 0 1 1-96.841 96.841 96.841 96.841 0 0 1 96.838-96.846z" fill="#645d6a"/><path d="M1573.917 1054.733a86.337 86.337 0 1 0-86.337-86.333 86.336 86.336 0 0 0 86.337 86.333zm-.529-158.392a73.3 73.3 0 1 1-73.3 73.3 73.3 73.3 0 0 1 73.3-73.3z" fill="#b5cdd2"/><path d="M1573.865 1034.9a66.1 66.1 0 1 0-66.1-66.1 66.1 66.1 0 0 0 66.1 66.1zm.348-89.919a26.686 26.686 0 1 1-26.685 26.685 26.685 26.685 0 0 1 26.685-26.683z" fill="#b5cdd2"/><path d="M1573.777 1054.733a86.357 86.357 0 0 0 81.467-57.742 103.526 103.526 0 0 0-8.762-24.819 73.287 73.287 0 1 1-145.8-12.794 100.426 100.426 0 0 0-12.126 22.834 86.348 86.348 0 0 0 85.221 72.521z" fill="#d2d2d2"/><path d="M1573.725 1034.9a66.016 66.016 0 0 0 65.505-74.867c-16.09-23-41.239-37.807-69.505-37.807-22.385 0-42.813 9.288-58.337 24.574a66.111 66.111 0 0 0 62.337 88.1zm.349-89.919a26.686 26.686 0 1 1-26.686 26.685 26.685 26.685 0 0 1 26.686-26.683z" fill="#fff"/><path d="M557.051 949.718c-12.91-87-84.489-153.576-170.879-153.576S228.2 862.718 215.292 949.718z"/><ellipse cx="381.024" cy="967.049" fill="#0e131c" rx="148.504" ry="147.213"/><path d="M381.927 1082.8c62.571 0 113.3-51.475 113.3-114.973s-50.727-114.978-113.3-114.978-113.3 51.475-113.3 114.973 50.728 114.978 113.3 114.978zm.1-211.749a96.842 96.842 0 1 1-96.842 96.841 96.842 96.842 0 0 1 96.839-96.846z" fill="#645d6a"/><path d="M381.727 1054.733A86.337 86.337 0 1 0 295.39 968.4a86.336 86.336 0 0 0 86.337 86.333zm-.527-158.392a73.3 73.3 0 1 1-73.3 73.3 73.3 73.3 0 0 1 73.3-73.3z" fill="#b5cdd2"/><path d="M381.675 1034.9a66.1 66.1 0 1 0-66.1-66.1 66.1 66.1 0 0 0 66.1 66.1zm.349-89.919a26.686 26.686 0 1 1-26.686 26.685 26.685 26.685 0 0 1 26.686-26.683z" fill="#b5cdd2"/><path d="M381.824 1054.8a86.355 86.355 0 0 0 81.467-57.743 103.526 103.526 0 0 0-8.762-24.819 73.286 73.286 0 1 1-145.8-12.794 100.408 100.408 0 0 0-12.129 22.833 86.349 86.349 0 0 0 85.224 72.523z" fill="#d2d2d2"/><path d="M381.773 1034.968a66.016 66.016 0 0 0 65.505-74.868c-16.091-23-41.239-37.808-69.506-37.808-22.385 0-42.812 9.288-58.337 24.575a66.111 66.111 0 0 0 62.338 88.1zm.348-89.92a26.686 26.686 0 1 1-26.686 26.685 26.685 26.685 0 0 1 26.686-26.685z" fill="#fff"/><path d="M1860.933 187.051a27.091 27.091 0 0 0-26.683-23.145h29.411a599.735 599.735 0 0 0-336.833-103.153l-1004.39.917a590.451 590.451 0 0 0-335.583 102.236h62.023l-130.863 239a418.286 418.286 0 0 0-38.808 99.036L36.229 673.139l1873.065-157.126zm-1756.6 278.73a5.158 5.158 0 0 1-4.268-7.748l139.467-260.087a9.191 9.191 0 0 1 7.877-4.912l7.3-.124-141.583 273zM567.4 434.973a33.163 33.163 0 0 1-8.979 22.839 30 30 0 0 1-12.15 2.559h-381.82c-9.2 0-15.209-10.067-11.146-18.677l112.2-237.76a32.5 32.5 0 0 1 5.761-8.436 30.048 30.048 0 0 1 12.16-2.588h252.76c17.239 0 31.215 14.575 31.215 32.554zm311.578 1.5a30.788 30.788 0 0 1-4.777 16.481 30.923 30.923 0 0 1-21.189 8.415h-167.53a31.143 31.143 0 0 1-31.051-31.052V218.651a30.8 30.8 0 0 1 4.776-16.481 30.923 30.923 0 0 1 21.189-8.415h167.526a31.143 31.143 0 0 1 31.052 31.051zm294.539-.845a30.8 30.8 0 0 1-4.776 16.481 30.923 30.923 0 0 1-21.189 8.415h-167.53a31.144 31.144 0 0 1-31.052-31.052V217.806a30.8 30.8 0 0 1 4.776-16.481 30.927 30.927 0 0 1 21.19-8.415h167.526a31.142 31.142 0 0 1 31.051 31.051zm294.054.845a30.788 30.788 0 0 1-4.776 16.481 30.923 30.923 0 0 1-21.189 8.415h-167.53a31.143 31.143 0 0 1-31.051-31.052V218.651a30.8 30.8 0 0 1 4.775-16.481 30.927 30.927 0 0 1 21.19-8.415h167.526a31.142 31.142 0 0 1 31.051 31.051zm315.255-7.387V219.882a32.943 32.943 0 0 1 5.159-17.755 30.273 30.273 0 0 1 20.806-8.372h43.509l35.592 267.616h-74.014c-17.084 0-31.056-14.528-31.056-32.283z" fill="#f3d5cd"/><path d="M1860.933 187.051c-.976-6.5-5.9-16.478-13.332-19.466 14.727 116.169 44.563 295.424 44.107 349.9l17.586-1.475zM307.932 650.346l56.652-4.752 162.508-185.223H465.6c-43.758 53.029-99.785 120.475-157.668 189.975zm-121.077-486.44h62.023l-130.863 239a418.286 418.286 0 0 0-38.808 99.036L36.229 673.139l224.394-18.824 154.8-193.944H164.451c-9.2 0-15.209-10.067-11.146-18.677l112.2-237.76a32.5 32.5 0 0 1 5.761-8.436 30.048 30.048 0 0 1 12.16-2.588h183.462c19-39.943 67.208-85.12 168.259-131.342l-112.709.1a590.451 590.451 0 0 0-335.583 102.238zm-73.732 302-8.794-.128a5.158 5.158 0 0 1-4.268-7.748l139.471-260.084a9.191 9.191 0 0 1 7.877-4.912l7.3-.124z" fill="#f4e8e3"/><path d="M1897.294 504.013S341.051 514.24 248.219 514.833c-78.047 3.8-197.462 9.069-220.291 206.63l-16.59 234.106a12.035 12.035 0 0 0 12 12l190.2-.782c5.5-95.209 80.673-170.645 172.633-170.645 91.5 0 166.4 74.685 172.554 169.224l792.2-3.261 38.489-65.988a57.182 57.182 0 0 1 48.738-28.2l234.707-2.881a64.556 64.556 0 0 1 54.424 28.413l44.908 66.926 77.157-.318a58.005 58.005 0 0 0 57.835-57.835l2.107-386.206a12.035 12.035 0 0 0-11.996-12.003z" fill="#a8342f"/><path d="m27.928 721.463-16.59 234.106a11.926 11.926 0 0 0 2.693 7.546l358.457-449.093c-66.221.434-110.755.724-124.269.811-78.047 3.801-197.462 9.067-220.291 206.63zM421.372 513.7C298.511 661.969 122.044 872.994 42.957 967.489l39.227-.162 398.331-454.012zm1485.815 388.519 2.107-386.206a12.035 12.035 0 0 0-12-12l-6.058.039c.246 4.867.408 9.315.478 13.287 1.176 67.3-4.722 323.922-7.3 430.783a57.823 57.823 0 0 0 22.773-45.903z" fill="#d96a62"/><path d="M187.855 967.569h-2v-12.882c0-102.074 83.608-185.136 186.375-185.157l207.586.272-.016-267.425c.28-9.171-2.755-17.212-8.774-23.284-7.821-7.888-19.875-11.9-34.863-11.556l-.044-2c15.55-.339 28.111 3.861 36.327 12.148 6.416 6.471 9.65 15.02 9.354 24.722l.018 269.4h-1l-208.586-.273c-101.663.021-184.374 82.186-184.374 183.157z" fill="#2b252c"/><path d="m1093.087 177.086 764.738.8c-3.107-6.99-13.549-13.98-22.6-13.98h-272.707V66.924h24.5a7.756 7.756 0 0 0 7.734-7.734 7.757 7.757 0 0 0-7.734-7.735h-24.5V15.469h23.648a7.735 7.735 0 0 0 0-15.469h-519.733a7.735 7.735 0 0 0 0 15.469h21.957a4.565 4.565 0 0 0-.059.577v35.409h-21.05a7.757 7.757 0 0 0-7.734 7.735 7.756 7.756 0 0 0 7.734 7.734h21.05v96.982H248.878l-6.73 12.291 850.843.889h.096zm460.015-13.18H1324.17a4.166 4.166 0 0 0 1.507-3.186v-93.8H1553.1zM1398.063 51.455H1252.4V15.469h145.68c0 .056-.017.108-.017.164zm155.039 0h-146.661V15.633c0-.056-.015-.108-.017-.164H1553.1zm-455.413-35.986h146.336v35.986h-146.278V16.046a4.565 4.565 0 0 0-.058-.577zm.058 51.455H1317.3v93.8a4.166 4.166 0 0 0 1.506 3.186h-221.059zm49.801 393.176H980.022a31.143 31.143 0 0 1-31.052-31.051V217.383c0-5.651 2.109-11.481 4.776-16.058-5.732 5.642-9.862 14.007-9.862 22.636V435.63a31.143 31.143 0 0 0 31.052 31.051h167.526c3.733-.157 14.169-1.112 21.93-9.121a30.052 30.052 0 0 0 4.622-5.9 31.635 31.635 0 0 1-21.466 8.44zm294.052.848h-167.524a31.142 31.142 0 0 1-31.051-31.051V218.228a32.445 32.445 0 0 1 4.665-15.881 32.193 32.193 0 0 0-9.751 22.459v211.669a31.142 31.142 0 0 0 31.051 31.051h167.526c3.733-.157 14.17-1.112 21.93-9.121a30.75 30.75 0 0 0 4.672-5.981 31.828 31.828 0 0 1-21.518 8.524zm-588.592 0H685.482a31.142 31.142 0 0 1-31.051-31.048V218.228a30.747 30.747 0 0 1 4.218-15.526 30.957 30.957 0 0 0-9.3 22.1v211.673a31.142 31.142 0 0 0 31.051 31.051h167.522c3.733-.157 14.17-1.112 21.93-9.121a26.172 26.172 0 0 0 4.345-5.449 30.568 30.568 0 0 1-21.189 7.992zm1034.543 0h-73.678c-17.079 0-31.051-14.527-31.051-32.283V219.46c0-6.126 2.278-12.44 5.159-17.333a34.725 34.725 0 0 0-10.245 23.911v209.206c0 17.755 13.972 32.282 31.051 32.282l79.521-.291zm-1341.284-1H164.451c-9.2 0-12.945-9.728-8.882-18.338l111.564-238.341a38.673 38.673 0 0 1 5.745-8.427c-6.527 3.047-14.19 9.308-17.464 16.248L143.219 448.85c-4.063 8.609 1.945 18.676 11.146 18.676h381.816c6.74-.565 19.956-2.6 22.236-9.714a23.985 23.985 0 0 1-3.06 1.168 27.362 27.362 0 0 1-9.09.968zM211.341 919.452c-12.207-7.654-160.618 11.918-194.479-43.3C7.013 872.87-.1 897.793 5.235 924.137v.006c-4.484 8.449-6.929 22.715-3.881 39.357 18.028 53.306 208.074 56.989 211.153 43.9 2.994-12.731 2.345-36.554 2.125-42.535s2.849-41.565-3.291-45.413z" fill="#645d6a"/><path d="M5.239 924.143c-10.4-17.1 3.214-59.879 11.623-47.989 39.2 55.433 181.155 35.845 194.479 43.3 6.725 6.67 5.881 25.966 3.375 48.037-122.495 7.241-195.607-20.557-209.477-43.348z" fill="#b5cdd2"/><path d="M1906.645 910.1c-12.519 67.438-116.027 44.272-134.45 50.274-5.633 1.835-2.508 41.217 1.72 47.681 9 13.759 163.931 17.8 169.118-40.277 8.382-47.638-28.061-61.697-36.388-57.678z" fill="#645d6a"/><g fill="#2b252c"><path d="M1618.1 537.594h128.147a6.623 6.623 0 1 0 0-13.245H1618.1a6.623 6.623 0 1 0 0 13.245zm128.148 10.246H1618.1a6.623 6.623 0 1 0 0 13.245h128.147a6.623 6.623 0 1 0 0-13.245zm0 25.56H1618.1a6.623 6.623 0 0 0 0 13.246h128.147a6.623 6.623 0 1 0 0-13.246zm0 23.492H1618.1a6.623 6.623 0 1 0 0 13.245h128.147a6.623 6.623 0 1 0 0-13.245zm0 28.508H1618.1a6.623 6.623 0 1 0 0 13.245h128.147a6.623 6.623 0 1 0 0-13.245zm0 23.5H1618.1a6.623 6.623 0 0 0 0 13.246h128.147a6.623 6.623 0 1 0 0-13.246zm0 25.555H1618.1a6.623 6.623 0 0 0 0 13.246h128.147a6.623 6.623 0 1 0 0-13.246zm0 23.492H1618.1a6.623 6.623 0 1 0 0 13.245h128.147a6.623 6.623 0 1 0 0-13.245z"/><rect height="13.245" rx="6.623" width="141.393" x="1611.478" y="721.799"/><path d="m533.153 589.079-69.082-6.117a5.618 5.618 0 0 1-5.021-5.677 5.61 5.61 0 0 1 5.192-5.689l69.083-3.863a5.581 5.581 0 0 1 5.782 5.69v9.977a5.576 5.576 0 0 1-5.954 5.679z"/></g><path d="M39.57 652.726a4.8 4.8 0 0 1 1.493.331c14.931 4.687 16.009 45.427 12.579 73.813-3.794 31.4-17.81 69.458-29.832 68.8a5.843 5.843 0 0 1-1.748-.375c20.444 6.136 36.759-21.515 41.529-66.6 4.744-44.838-1.2-75.969-24.021-75.969z" fill="#27252c"/><path d="M53.642 726.87c-4.775 39.516-18.388 71.629-29.927 68.979C9.844 792.664 4.885 761 8.538 721.367c3.674-39.846 17.86-70.288 32.467-68.619 11.762 1.344 17.411 34.605 12.637 74.122z" fill="#f4e8e3"/><path d="M80.811 589.287a3.268 3.268 0 0 1 .915.224c9.654 2.82 10.35 27.328 8.133 44.4C87.405 652.806 78.344 675.7 70.57 675.3a4.015 4.015 0 0 1-1.13-.225c13.219 3.691 23.767-12.943 26.851-40.064 3.068-26.971-.725-45.724-15.48-45.724z" fill="#27252c"/><path d="M89.859 633.915c-3.087 23.772-11.889 43.09-19.35 41.5C61.54 673.5 58.334 654.448 60.7 630.6c2.375-23.97 11.548-42.283 20.992-41.279 7.601.813 11.254 20.822 8.167 44.594z" fill="#fff"/></svg></g><g transform="translate(472.0 929.0) rotate(0.0 253.5 180.5) scale(0.998947853739848 0.9983103390107049)"><svg width="507.534" height="361.611" viewBox="0 0 507.534 361.611"><g fill="#fad97a"><path d="M124.72 0s-8.012 58.851-10.833 64.835S74.655 77.19 74.655 77.19s33.711 7.241 37.622 14.171 13.523 72.248 13.523 72.248 7.252-67.238 11.916-72.581 39.232-14.274 39.232-14.274-37.748-8.311-41.024-12.968S124.72 0 124.72 0zM37.149 213.689S31.2 257.357 29.111 261.8 0 270.965 0 270.965s25.014 5.373 27.916 10.516 10.037 53.608 10.037 53.608 5.381-49.891 8.841-53.856 29.111-10.591 29.111-10.591-28.009-6.167-30.443-9.623-8.313-47.33-8.313-47.33zm439.845 52.26s-4.684 34.41-6.334 37.909-22.938 7.224-22.938 7.224 19.71 4.233 22 8.286 7.909 42.243 7.909 42.243 4.24-39.314 6.967-42.438 22.939-8.346 22.939-8.346-22.071-4.86-23.989-7.582-6.554-37.296-6.554-37.296z"/></g></svg></g><g transform="translate(1209.0 1207.0) rotate(0.0 221.5 73.5) scale(1.0050342460314758 1.0029063817593842)"><svg width="440.781" height="146.574" viewBox="0 0 440.781 146.574"><rect fill="#e6524d" height="146.574" rx="11.824" width="440.78"/><path d="M0 51.423h440.78v2H0z" fill="#6c4749"/><g fill="#f8b868"><path d="M440.781 134.75V104.7c-23.917 0-43.3 18.75-43.3 41.879h31.48a11.824 11.824 0 0 0 11.82-11.829zM0 11.824v30.055c23.916 0 43.3-18.75 43.3-41.879H11.824A11.824 11.824 0 0 0 0 11.824zM0 104.7v30.05a11.824 11.824 0 0 0 11.824 11.824H43.3C43.3 123.445 23.916 104.7 0 104.7zM428.957 0h-31.48c0 23.129 19.387 41.879 43.3 41.879V11.824A11.824 11.824 0 0 0 428.957 0z"/></g><path d="M259.317 64.33v16.756a13.39 13.39 0 0 1-13.39 13.391h-51.366a13.391 13.391 0 0 1-13.39-13.391V64.33a4.244 4.244 0 0 0-4.244-4.244h-9.22a4.244 4.244 0 0 0-4.244 4.244v10.025a25.83 25.83 0 0 0 25.83 25.829h62.488a25.829 25.829 0 0 0 25.829-25.829V64.33a4.244 4.244 0 0 0-4.244-4.244h-9.805a4.244 4.244 0 0 0-4.244 4.244z"/></svg></g><g transform="translate(1209.0 990.0) rotate(0.0 241.5 107.5) scale(1.0230038187906527 1.0191747055059135)"><svg width="472.139" height="210.955" viewBox="0 0 472.139 210.955"><rect fill="#b5cdd2" height="210.803" rx="39.787" width="472.139" y=".152"/><g fill="#7c6d6e"><path d="M408.362 14.993h15.025a34.051 34.051 0 0 1 33.951 33.951v14.134h14.8V39.787A39.9 39.9 0 0 0 432.352 0h-23.99zM15.387 63.078V48.944a34.051 34.051 0 0 1 33.951-33.951h14.439V0h-23.99A39.9 39.9 0 0 0 0 39.787v23.291zm441.951 85.409v14.777a34.051 34.051 0 0 1-33.951 33.951h-15.025V210.8h23.99a39.9 39.9 0 0 0 39.787-39.787v-22.526zM63.777 197.215H49.338a34.051 34.051 0 0 1-33.951-33.951v-14.777H0v22.529A39.9 39.9 0 0 0 39.787 210.8h23.99z"/></g><path d="M0 84.483h472.139v3H0z" fill="#767288"/><rect fill="#7c6d6e" height="30.732" rx="1.649" width="21.659" x="154.344" y="103.621"/><rect fill="#7c6d6e" height="30.732" rx="1.649" width="21.659" x="291.905" y="103.909"/><path d="M295.637 116.792v18.439a2.781 2.781 0 0 1-2.781 2.78H174.905a2.78 2.78 0 0 1-2.78-2.78v-18.439h-13.756v27a8.707 8.707 0 0 0 8.707 8.707h133.61a8.707 8.707 0 0 0 8.707-8.707v-27z"/><rect fill="#f8b868" height="45.811" rx="2.491" width="37.317" x="55.491" y="63.078"/><rect fill="#f8b868" height="45.811" rx="2.491" width="37.317" x="377.515" y="63.078"/></svg></g></svg>