<svg xmlns="http://www.w3.org/2000/svg" viewBox="0 0 1200 1200" width="1200" height="1200"><g transform="translate(830.0 374.0) rotate(0.0 70.5 70.5) scale(0.2781569831211975 0.2781569831211975)"><svg width="506.908" height="506.908" viewBox="0 0 506.908 506.908"><circle cx="253.454" cy="253.454" fill="#f62d00" r="253.454"/></svg></g><g transform="translate(85.0 356.0) rotate(0.0 521.5 217.0) scale(1.894231764614007 1.8939063345493898)"><svg width="550.619" height="229.156" viewBox="0 0 550.619 229.156"><path d="M501.61 216.688q-2.55-.57-5.1-1.11c.06-4.9.03-9.78-.09-14.67-.05-2.33-.12-4.65-.22-6.98a2.557 2.557 0 1 1 5.11-.21c.09 2.31.17 4.61.22 6.92q.21 8.025.08 16.05z" fill="#fff"/><path d="M502.17 216.046q-2.658-.594-5.322-1.16l.64.615q.073-6.357-.047-12.714c-.042-2.148-.093-4.3-.167-6.442a15.01 15.01 0 0 1-.061-3.009 1.423 1.423 0 0 1 2.162-1.142 2.4 2.4 0 0 1 .977 2.1c.06 1.151.085 2.306.121 3.459q.1 3.185.154 6.37.109 6.323.006 12.646c-.017 1 1.941.7 1.955-.154q.126-7.782-.068-15.563c-.06-2.508.023-5.094-.244-7.589a3.235 3.235 0 0 0-2.977-2.9 3.822 3.822 0 0 0-3.863 2.259A7.907 7.907 0 0 0 495.3 196q.072 1.994.119 3.987c.126 5.222.173 10.444.113 15.668 0 .4.3.542.64.615q2.442.518 4.877 1.061a1.35 1.35 0 0 0 1.366-.366c.231-.32.236-.812-.245-.919z"/><path d="M513.359 106.116c-6.214-46.8-15.472-57.213-23.02-31.251a37.165 37.165 0 0 0-5.218 10.992c-.677 2.64-.919 5.38-1.643 8.007-1.477 5.36-4.937 10.211-5.2 15.764-.143 3.006.676 6 .517 9-.137 2.582-.99 5.08-1.192 7.657-.269 3.441.633 6.879.526 10.33-.1 3.142-1.027 6.189-1.624 9.276-1.914 9.895-.409 20.124 1.738 29.971a41.153 41.153 0 0 0 3.657 11.1 17.689 17.689 0 0 0 4.939 5.789c3.27 5.845 7.426 8.376 11.809 8.376 9.871 0 18.6-17.18 18.6-51.891.001-10.216-1.612-25.974-3.889-43.12z" fill="#fff"/><path d="M514.325 105.857c-1.521-11.408-3.207-23.07-6.838-34.035a33.5 33.5 0 0 0-3.791-8.408c-.989-1.449-2.362-2.929-4.2-3.143-4.79-.559-7.305 6.378-8.56 9.8a64.272 64.272 0 0 0-.886 2.591 15.069 15.069 0 0 1-1.578 3.57 36.037 36.037 0 0 0-4.1 8.853c-.974 3.377-1.169 6.925-2.318 10.257-1.048 3.04-2.566 5.894-3.612 8.936a21.41 21.41 0 0 0-.922 9.638 26.151 26.151 0 0 1 .215 5.694c-.2 1.817-.686 3.586-.955 5.391-.54 3.615.316 7.138.371 10.747.055 3.648-1.07 7.134-1.718 10.688-1.3 7.153-.843 14.507.3 21.648a134.05 134.05 0 0 0 2.148 10.686 33.465 33.465 0 0 0 3.536 9.329 18.521 18.521 0 0 0 2.715 3.516c.517.521 1.135.948 1.644 1.467a20.552 20.552 0 0 1 1.684 2.481 15.779 15.779 0 0 0 5.972 5.191 11.155 11.155 0 0 0 9.133.223c5.593-2.426 8.686-8.854 10.612-14.252 3.729-10.45 4.736-21.848 5-32.864.294-12.332-1-24.645-2.446-36.875q-.66-5.569-1.4-11.128c-.12-.9-2.057-.424-1.932.518 3.14 23.7 6.372 48.368 1.2 72.03-1.451 6.638-3.64 14.373-8.719 19.237a9.229 9.229 0 0 1-5.331 2.732c-5 .5-8.973-3.3-11.373-7.269-.719-1.189-1.895-1.9-2.83-2.936a19.216 19.216 0 0 1-2.667-3.828 38.022 38.022 0 0 1-3.224-9.632 97.763 97.763 0 0 1-2.845-20.9 51.184 51.184 0 0 1 .969-10.443c.687-3.4 1.645-6.725 1.524-10.224-.119-3.446-.873-6.826-.358-10.277.247-1.656.679-3.279.9-4.939a21.23 21.23 0 0 0-.008-4.866c-.342-3.531-.584-6.724.53-10.15.952-2.926 2.388-5.663 3.46-8.542a63.033 63.033 0 0 0 2.172-9.249 31.61 31.61 0 0 1 3.63-9.142 18.845 18.845 0 0 0 2.038-3.66q.432-1.443.918-2.869a45.086 45.086 0 0 1 1.8-4.513c.819-1.744 1.862-3.918 3.584-4.958a1.6 1.6 0 0 1 1.231-.255 3.966 3.966 0 0 1 1.632.968 17.225 17.225 0 0 1 3.622 6.105c3.555 8.682 5.17 18.247 6.657 27.458a374.786 374.786 0 0 1 1.48 10.121c.123.905 2.06.425 1.934-.518z"/><path d="M461.7 208.768q-3.09-.54-6.18-1.06c-.03-8.2-.15-16.4-.24-24.6-.05-4.78-.1-9.56-.11-14.34v-.07a3.085 3.085 0 0 1 6.17.07c0 1.31.01 2.62.02 3.93q.03 5.34.09 10.68c.1 8.46.22 16.93.25 25.39z" fill="#fff"/><path d="M462.049 208.12q-3.088-.538-6.18-1.06l.625.558c-.044-11.5-.255-22.993-.33-34.49q-.012-1.977-.018-3.956c0-1.031.162-2.263 1.262-2.718a2.247 2.247 0 0 1 2.716 1.378c.559 1.263.249 3.1.258 4.465q.058 8.448.164 16.9c.08 6.555.156 13.11.18 19.665 0 .942 1.951.6 1.948-.18-.048-13.007-.317-26.011-.358-39.018-.007-2.153-.645-4.127-3.053-4.559a4.382 4.382 0 0 0-4.836 2.559 8.891 8.891 0 0 0-.225 3.176q.012 2.6.034 5.192.04 4.815.1 9.63c.085 7.38.184 14.76.212 22.14 0 .382.293.5.626.558q3.09.525 6.179 1.06c.88.15 1.985-1.075.696-1.3z"/><path d="M485.425 127.825c-3.959-14 1.113-22.6 2.047-27.186 1.783-8.746-2.848-17.311-6.285-25.49-1.558-3.709-1.2-4.417-.6-7.7 1.785-9.844-2.307-18.45-12.761-44.9-.139-.671-.247-1.352-.418-2.006C459.8-8.4 454.6-3.307 450.1 20.748c-6.426 34.37-14.309 81.6-14.309 106.421 0 41.9 11.425 56.469 23.341 56.469 4.811 0 9.542-3.242 13.473-9.861a11.572 11.572 0 0 1 2.474-2.164c4.112-2.416 9.3-3.341 12.12-7.314 2.2-3.1 2.354-7.257 2.417-11.129.266-16.27-1.646-16.344-4.191-25.345z" fill="#fff"/><path d="M486.39 127.566a36.945 36.945 0 0 1-1.332-13.276 42.484 42.484 0 0 1 2.031-9.215 27.348 27.348 0 0 0 1.754-8.214c.065-4.738-1.386-9.322-3.137-13.671-.9-2.24-1.893-4.443-2.852-6.659-.77-1.781-1.807-3.724-1.8-5.716.01-2.353.817-4.672.9-7.043a38.342 38.342 0 0 0-2.154-12.685c-2.109-6.731-4.836-13.273-7.442-19.821q-1.334-3.348-2.664-6.7a72.24 72.24 0 0 1-2.134-7.284 81.074 81.074 0 0 0-3.809-11.173c-1.159-2.6-3.564-7.683-7.238-5.639-1.52.845-2.415 2.61-3.09 4.136a49.36 49.36 0 0 0-2.612 8.269c-1.939 7.928-3.2 16.048-4.627 24.08q-2.316 13.028-4.407 26.093c-2.6 16.338-4.988 32.756-6.28 49.256-1.19 15.176-1.165 30.839 2.118 45.767 1.9 8.644 5.295 19.183 13.377 24.041a14.865 14.865 0 0 0 9.921 2.07 15.887 15.887 0 0 0 8.774-5.072 25.437 25.437 0 0 0 2.038-2.467c.685-.939 1.23-2.034 2-2.9 1.467-1.664 3.535-2.512 5.524-3.378 3.41-1.487 7.021-3.012 9.1-6.277 2.364-3.7 2.24-8.428 2.271-12.655.043-5.793-.147-11.557-2.008-17.086-.759-2.256-1.565-4.49-2.218-6.78-.253-.891-2.185-.372-1.931.518 1.22 4.284 3.058 8.378 3.692 12.814a70.842 70.842 0 0 1 .509 10.45c-.025 4.2.238 9.241-2.376 12.81-2.278 3.11-6.219 4.236-9.556 5.8a13.488 13.488 0 0 0-4.779 3.367c-.7.834-1.2 1.856-1.847 2.743a25.462 25.462 0 0 1-2.038 2.467c-2.324 2.46-5.363 4.4-8.845 4.389a12.811 12.811 0 0 1-4.052-.684c-7.774-2.634-11.77-11.356-14.023-18.59a97.565 97.565 0 0 1-3.714-20.393 173.059 173.059 0 0 1-.472-23.41c.713-15.134 2.759-30.218 4.969-45.195 2.457-16.655 5.32-33.25 8.377-49.8 1.216-6.584 2.189-13.526 4.835-19.729.531-1.242 1.39-3.1 2.47-3.643.17-.085.416-.072.869.2a5.522 5.522 0 0 1 1.589 1.708 32.119 32.119 0 0 1 3.452 7.621c.7 2.026 1.33 4.078 1.918 6.14.641 2.249 1.016 4.648 1.874 6.814 2.941 7.428 6 14.816 8.735 22.326a62.49 62.49 0 0 1 3.784 13.837 24.83 24.83 0 0 1 .045 5.511c-.266 2.538-1.185 5-.467 7.545a50.852 50.852 0 0 0 2.6 6.349c.936 2.147 1.862 4.3 2.662 6.5 1.6 4.408 2.714 9.107 1.984 13.809a50.117 50.117 0 0 1-1.928 6.662 39.331 39.331 0 0 0-1.73 9.319 38.531 38.531 0 0 0 1.458 12.262c.248.892 2.18.375 1.932-.518z"/><path d="M469.223 76.284c-1.459 5.189-3.938 5.267.333 15.725a101.6 101.6 0 0 1 1.7 70.094c-5.777 16.5-16.268 12.142-20.039-2.136-8.048-30.469 6.219-65.46 6.833-76.819.563-10.413-3.89-16.758-3.288-33.685.077-2.169-.335-6.3 1.349-7.755 2.321-2.01 6.339.188 6.047 3.605-1.176 13.803 9.911 20.848 7.065 30.971z" fill="#b0b0b0"/><path d="M55.29 214.948q-3.193.645-6.27 1.31.7-10.41.391-20.84c-.1-3.5-.3-7-.571-10.49q-.135-1.725-.3-3.45a3.129 3.129 0 0 1 2.75-3.42 3.094 3.094 0 0 1 3.39 2.83c.13 1.4.26 2.81.36 4.21q.39 4.995.53 9.99.33 9.93-.28 19.86z" fill="#fff"/><path d="M55.473 214.6q-3.139.635-6.27 1.31l.783.086a217.351 217.351 0 0 0-.108-30.378q-.135-1.832-.3-3.662a3.519 3.519 0 0 1 .669-2.994c1.059-1.055 2.465-.123 3.067.9a7.479 7.479 0 0 1 .574 3.154c.435 4.927.681 9.867.787 14.812.123 5.795 0 11.592-.348 17.377-.015.255 1.9.042 1.932-.518.354-5.951.477-11.913.337-17.873-.066-2.805-.17-5.609-.339-8.409q-.123-2.019-.282-4.035a24.85 24.85 0 0 0-.421-4.253c-.945-3.625-6.75-2.968-7.815.231a7.71 7.71 0 0 0 0 3.112q.2 2.289.347 4.582.276 4.185.387 8.378.269 10.052-.412 20.1c-.014.212.724.1.784.087q3.132-.672 6.27-1.31c.744-.155 1.714-.969.358-.697z"/><path d="M74.657 142.509c3.619-4.313 3.6-10.727 1.764-16.051a58.5 58.5 0 0 0-5.429-10.665c-1.084-11.181-2.555-23.705-4.211-36.55C58.863 17.8 46.152 13.362 37.284 65.924c-.012.027-.022.055-.035.082-1.137 2.361-2.632 4.559-3.5 7.031-1.658 4.707-.9 9.878-.115 14.806l.291 1.837c-2.945 23.168-5.073 44.368-5.073 57.266 0 41.9 10.542 48.53 22.458 48.53 7 0 13.22-2.595 17.162-13.227a25.246 25.246 0 0 0 6.188-39.74z" fill="#fff"/><path d="M75.457 142.763c5.062-6.235 3.227-14.721-.118-21.282-.98-1.923-2.361-3.738-3.223-5.7a11.338 11.338 0 0 1-.459-3.285q-.18-1.776-.366-3.55-.719-6.838-1.529-13.666c-1.938-16.439-3.68-33.135-8-49.159a53.413 53.413 0 0 0-4.742-12.678c-1.119-1.956-2.769-4.267-5.211-4.519-2.5-.258-4.446 1.653-5.752 3.546-2.3 3.327-3.615 7.343-4.784 11.174a168.383 168.383 0 0 0-4.5 19.7 15.952 15.952 0 0 1-.536 2.771 23.933 23.933 0 0 1-1.546 2.894 23.124 23.124 0 0 0-2.419 5.846c-.987 4.279-.313 8.753.36 13.025.4 2.54-.075 4.976-.387 7.513q-.428 3.474-.834 6.95-.8 6.844-1.5 13.7c-.777 7.666-1.462 15.349-1.824 23.047a183.894 183.894 0 0 0 .27 22.135 84.685 84.685 0 0 0 3 18.2c1.943 6.485 5.443 13.05 12.143 15.53a22.544 22.544 0 0 0 8.386 1.177 17.27 17.27 0 0 0 13.971-7.01 25.738 25.738 0 0 0 2.647-4.628 13.286 13.286 0 0 0 .568-1.344 1.107 1.107 0 0 1 .524-.785c.751-.582 1.637-1.021 2.405-1.592a27.17 27.17 0 0 0 7.4-8.291 26.179 26.179 0 0 0-3.857-30.382c-.564-.6-2.4.163-1.775.828a25.7 25.7 0 0 1 6.767 20.013 24.534 24.534 0 0 1-11.377 18.122c-.631.4-1.337.634-1.685 1.308-.471.91-.772 1.929-1.224 2.855a21.869 21.869 0 0 1-2.684 4.295 13.741 13.741 0 0 1-6.526 4.541 20.682 20.682 0 0 1-10.108.321c-6.07-1.282-9.974-6.019-12.262-11.546a59.364 59.364 0 0 1-3.637-14.809 156.159 156.159 0 0 1-1.2-22.423c.147-14.824 1.907-29.672 3.64-44.377q.411-3.489.843-6.974l.4-3.178a10.437 10.437 0 0 0-.078-3.257c-.672-4.249-1.384-8.644-.46-12.912a22.831 22.831 0 0 1 2.562-6.1 28.2 28.2 0 0 0 1.33-2.517 11.492 11.492 0 0 0 .545-2.512 235.513 235.513 0 0 1 2.056-10.432 96.359 96.359 0 0 1 4.462-15.333c1.016-2.506 2.279-5.661 4.564-7.3a2.309 2.309 0 0 1 .881-.433 1.807 1.807 0 0 1 .7-.011 4.532 4.532 0 0 1 2.232 1.514c2.273 2.533 3.521 6.009 4.6 9.174A127.937 127.937 0 0 1 62.36 57.7c1.6 8.119 2.758 16.313 3.8 24.519a1292.72 1292.72 0 0 1 3.149 26.8q.325 3.088.63 6.179c.186 1.9 1.8 3.746 2.718 5.415A28.994 28.994 0 0 1 76.6 132.1a14.151 14.151 0 0 1-2.746 10.159c-.754.931 1.083 1.141 1.603.504z"/><path d="M56.034 98.107a55.419 55.419 0 0 0 3.555-29.768 14.062 14.062 0 0 0-2.7-7.067 8.06 8.06 0 0 0-7.617-2.794c-3.782.867-5.352 4.629-6.165 7.886a96.226 96.226 0 0 0-2.86 25.015c.067 3.883-1.261 18.786 7.593 16.287 4.482-1.266 6.781-6.122 8.194-9.559zm9.746 45.599a264.366 264.366 0 0 1-2.219-4.577c5.265-15.667-8.318-25.837-19.525-20.619-8.535 3.975-11.512 26.1.466 42.718 1.215 1.686 1.392 2.271.322 4.515-1.644 3.445-3.177 7.055-2.854 10.736.859 9.788 13.806 12.324 20.753 3.681 2.792-3.473 3.884-7.672 4.923-11.662 2.571-9.876 2.921-15.24-1.866-24.792z" fill="#b0b0b0"/><path d="M550.619 229.151c-227.546-65.445-474.107-25.585-550.619 0z" fill="#fff"/><path d="M550.619 229.152a4.086 4.086 0 0 1-.775-.151l-2.228-.549-8.431-2.183-6.01-1.583c-2.185-.584-4.549-1.215-7.1-1.792l-17.093-4.064c-6.287-1.4-13.126-2.8-20.347-4.347-1.8-.4-3.641-.753-5.507-1.092l-5.655-1.057-11.673-2.185c-3.971-.7-8.026-1.323-12.124-2-4.1-.649-8.242-1.39-12.441-1.986l-12.687-1.78-6.391-.9-6.423-.769c-34.267-4.237-68.879-6.54-95.167-7.388-3.284-.155-6.441-.208-9.451-.274l-8.571-.188c-5.4-.153-10.142-.153-14.1-.17-7.913-.032-12.677-.079-13.23-.044-1.105.066-19.049-.076-45.319.93l-10.225.409-10.9.588c-7.475.365-15.326.951-23.435 1.521-16.207 1.272-33.429 2.8-50.555 4.884-17.129 2.044-34.18 4.458-50.085 7.1-15.907 2.622-30.652 5.549-43.218 8.322s-22.955 5.418-30.158 7.493c-3.621.974-6.425 1.869-8.351 2.436l-2.2.64a4.246 4.246 0 0 1-.768.183 4.031 4.031 0 0 1 .731-.293l2.168-.753c1.9-.639 4.691-1.607 8.3-2.653 7.171-2.217 17.539-4.993 30.091-7.911s27.292-5.965 43.2-8.708c15.905-2.76 32.963-5.288 50.1-7.436 17.138-2.187 34.376-3.81 50.6-5.165 8.119-.611 15.979-1.236 23.464-1.636l10.916-.639 10.24-.454c26.31-1.122 44.29-1.043 45.4-1.109.554-.035 5.327.028 13.255.089 3.965.033 8.718.051 14.125.227l8.586.224c3.015.078 6.178.145 9.468.314 26.331.963 60.994 3.436 95.29 7.882l6.428.808 6.4.938 12.694 1.863c4.2.624 8.343 1.394 12.447 2.073 4.1.71 8.153 1.361 12.125 2.094l11.673 2.278 5.654 1.1c1.864.355 3.7.724 5.5 1.14 7.217 1.613 14.05 3.077 20.327 4.544l17.061 4.269c2.544.612 4.9 1.277 7.078 1.9l5.986 1.688 8.375 2.4 2.2.658a4 4 0 0 1 .736.264z"/><path d="M171.98 200.427c-.416-1.9-.761-8.165 4.5-11.12-9.091-1.558-18.34 8.189-18.34 8.189-1.549-4.7 1.259-11.059 7.733-13.491-7.53-2.181-17.151 1.638-19.712 9-1.557-7.429-10.961-12.031-21.03-10.63 3.541 1.129 6.061 4.916 6.294 12.879-8.759-5.672-20.2.677-25.52 6.644 5.771-2.529 14.016-3 19.724 3.962z" fill="#fff"/><path d="M126.519 205.47c-5.308-6.328-13.706-7.167-21.015-4.026l1.184.66c5.739-6.345 15.905-11.414 23.974-6.347.533.334 1.751-.053 1.726-.758-.175-5.006-1.245-11.368-6.68-13.189l-.695 1.164c7.657-1.006 18.231 1.618 20.179 10.294.185.823 1.75.15 1.936-.363 2.57-7.075 11.245-10.252 18.162-8.331l.182-1.026c-5.524 2.157-10.217 8.037-8.3 14.207.2.659 1.427.286 1.752-.056 4.143-4.345 10.713-8.8 16.974-7.823l-.034-.91a10.929 10.929 0 0 0-4.849 11.719c.155.745 2.094.258 1.932-.517-.827-3.963.557-8.415 4.145-10.521.374-.219.549-.818-.035-.909-7.3-1.14-14.818 3.429-19.706 8.555l1.753-.055c-1.7-5.48 2.168-10.824 7.165-12.775.475-.186.88-.833.182-1.027-8.011-2.225-18.287 1.485-21.263 9.678l1.937-.363c-2.1-9.357-13.688-12.044-21.88-10.967-.506.067-1.71.824-.695 1.164 4.968 1.664 5.752 8.127 5.908 12.569l1.726-.758c-8.941-5.613-20.674-.13-27.067 6.94-.715.79.714.862 1.184.66a17.534 17.534 0 0 1 9.127-1.433 14.59 14.59 0 0 1 9.307 5.333c.473.564 2.326-.145 1.785-.789z"/></svg></g><g transform="translate(226.0 71.0) rotate(0.0 328.0 530.5) scale(1.236569274269557 1.237573236691422)"><svg width="530.5" height="857.323" viewBox="0 0 530.5 857.323"><path d="M526.329 801.988c-3.792-6.877-10.785-10.926-18.006-13.4a36.9 36.9 0 0 0-19.022-1.542 32.185 32.185 0 0 0-14.954 7.614c-9.067 8.1-13.894 20.225-15.1 32.137a57.086 57.086 0 0 0 1.855 21.471c.23.8 1.37.444 1.779.047l19.326-18.771 1.1-1.069c.653 9.371.9 18.784.99 28.174.006.6.677.768 1.166.625 12.481-3.648 25.682-8.41 34.985-17.894a31.944 31.944 0 0 0 8.867-16.972c1.147-6.775.364-14.346-2.986-20.42zm-153.495-7.834c-3.57-3.467-8.258-5.686-12.945-7.205a55.376 55.376 0 0 0-13.424-2.585q-1.329-.086-2.661-.09a64.313 64.313 0 0 0-21.926 3.555 74.968 74.968 0 0 0-16.3 8.8c-3.09 2.1-6.123 4.278-9.21 6.381-.169.116-.347.429-.028.5a77.785 77.785 0 0 0 23.28 1.633c-4.744 4.29-10.613 7.3-16.489 9.711a79.455 79.455 0 0 1-9.542 3.315c-.117.031-1.181.422-.8.727 8.072 6.525 18.135 10.294 28.251 12.207a77.208 77.208 0 0 0 31.278-.292c8.222-1.873 16.99-5.61 21.984-12.743a20.846 20.846 0 0 0 3.738-11.081 16.623 16.623 0 0 0-5.206-12.833z"/><path d="M377.09 806.666s-24 3.564-38.364-21.1c16.736-26.179 29.787-65.87 34.931-90.766s-13.72-17.591-38.177-32.178a.011.011 0 0 0-.011-.011c-24.469-14.587-29.031-48.037-26.179-72.955 0 0 38.188-20.169 55.812-22.713s25.719 25.718 9.41 65.2a77.507 77.507 0 0 0-4.255 13.018c-5.275 24.381 15.958 18.93 16.7 34.624.87 18.015-7.29 107.995-9.867 126.881z" fill="#fff"/><path d="M377.211 806.089a29.424 29.424 0 0 1-8.546-.246 38.692 38.692 0 0 1-18.655-8.257 46.054 46.054 0 0 1-10.39-12.411l.011.432c9.888-15.509 17.18-32.683 23.307-49.977q4.446-12.55 7.948-25.413 1.531-5.654 2.837-11.365a55.819 55.819 0 0 0 1.747-10.716c.141-5.085-1.544-9.436-5.956-12.188-4.978-3.107-11.1-4.362-16.59-6.25-7.681-2.64-15.45-6.007-21.82-11.133a51.483 51.483 0 0 1-13.989-18.13c-6.658-14.009-8.373-30.184-7.343-45.518q.18-2.691.487-5.37l-.576.548c6.592-3.48 13.315-6.732 20.085-9.847 5.794-2.666 11.647-5.215 17.6-7.5a94.757 94.757 0 0 1 16.058-4.969c4.008-.763 7.9-.333 11.133 2.351 3.621 3.008 5.551 7.594 6.615 12.071a56.918 56.918 0 0 1 .684 19.7 110.392 110.392 0 0 1-6.377 25.4c-2.876 7.759-6.635 15.455-7.009 23.873-.21 4.715.975 9.2 4.327 12.627 2.707 2.771 6.217 4.555 9.025 7.2a13.621 13.621 0 0 1 4.209 10.162c.2 7.926-.4 15.9-.877 23.809-.716 11.739-1.614 23.467-2.576 35.188q-1.482 18.07-3.2 36.122c-.85 8.892-1.712 17.787-2.773 26.657q-.228 1.917-.484 3.831c-.111.815 1.841.489 1.938-.22 1.9-13.963 3.061-28.051 4.338-42.081 1.725-18.955 3.315-37.929 4.525-56.925.452-7.107.879-14.223 1.032-21.343.047-2.191.084-4.391-.023-6.58a13.321 13.321 0 0 0-3.558-8.64c-4.238-4.524-10.672-6.685-12.985-12.892-1.667-4.475-1.011-9.489.058-14.019 1.672-7.086 4.892-13.642 7.225-20.511 3.9-11.469 6.577-23.917 5.384-36.087-.7-7.12-3.014-15.644-9.654-19.5-6.336-3.679-14.3-.792-20.666 1.323a252.937 252.937 0 0 0-27.509 11.349c-5.69 2.668-11.34 5.433-16.909 8.347-.13.068-.268.129-.393.206-.722.446-.651.959-.735 1.77q-.4 3.891-.543 7.8a112.31 112.31 0 0 0 .529 15.893c1.148 10.812 3.991 21.621 9.531 31.047a50.369 50.369 0 0 0 10.088 12.348 59.02 59.02 0 0 0 14.734 9.123 134.861 134.861 0 0 0 14.548 5.371c3.671 1.18 7.518 2.277 10.828 4.315a11.218 11.218 0 0 1 5.375 7.733c.85 4.707-.394 9.584-1.425 14.16a323.29 323.29 0 0 1-9.933 34.451 295.566 295.566 0 0 1-15.2 36.538 179.532 179.532 0 0 1-8.9 15.768.366.366 0 0 0 .011.431c4.589 7.81 11.172 14.37 19.527 18.046a40.227 40.227 0 0 0 16.244 3.43 23.968 23.968 0 0 0 3.366-.187c.958-.134 1.571-1.34.24-1.145z"/><path d="M347.938 627.231c.658-.13 1.043-.459 1.029-.972a1.236 1.236 0 0 0-1.158-1.259.949.949 0 0 0-1.055 1.187 1.159 1.159 0 0 0 1.184 1.044zm11.098 1.528c-.664.105-1.244.391-1.228 1.133a1.2 1.2 0 1 0 2.4.065c.04-.709-.489-1.081-1.172-1.198zm-.203 7.629a1.1 1.1 0 0 0-.991 1.331 1.087 1.087 0 0 0 1.345.952c.746-.075 1.025-.588 1-1.3a1.191 1.191 0 0 0-1.354-.983zm-.883-14.044a1.271 1.271 0 0 0 1.263 1.156.861.861 0 0 0 .98-.838 1.155 1.155 0 0 0-1-1.374 1 1 0 0 0-1.243 1.056zm1.792-7.003c.208-.131.253-.52.37-.791-.248-.462-.643-.7-1.105-.436a.887.887 0 0 0-.321.787.675.675 0 0 0 1.056.44zm14.038 13.481a.98.98 0 0 0-.96.958 1.175 1.175 0 0 0 1.136 1.344c.729.015 1.143-.538 1.228-1.329-.106-.795-.684-1.032-1.404-.973zm-36.761-.022c-.717.012-1.3.4-1.086 1.187.092.334.686.528.931.7.761-.092 1.085-.438 1.072-.982a.88.88 0 0 0-.917-.905zm-.197 9.758a1.281 1.281 0 0 0 1.079-1.332.946.946 0 0 0-.948-.879 1.248 1.248 0 0 0-1.3 1.116.969.969 0 0 0 1.169 1.095zm-.142-24.709a.943.943 0 0 0-.9.973 1.2 1.2 0 0 0 1.152 1.3c.718 0 1.08-.6 1.134-1.319a1.08 1.08 0 0 0-1.386-.954zm-.024 32.522a1.3 1.3 0 0 0 1.255-1.136 1.333 1.333 0 0 0-1.2-1.253 1.2 1.2 0 0 0-.051 2.389zm.08-37.913c.7-.029 1.105-.579 1.157-1.346a1.194 1.194 0 0 0-1.415-.968.972.972 0 0 0-.854 1.021c-.001.725.359 1.324 1.112 1.293zm-.258 14.922a1.155 1.155 0 0 0 1.4-1 1.251 1.251 0 0 0-1.148-1.318 1 1 0 0 0-1.047.822 1.068 1.068 0 0 0 .795 1.496zm11.556 19.312a1.74 1.74 0 0 0 1.883-1.344 1.582 1.582 0 0 0-1.53-1.479 1.409 1.409 0 0 0-1.76 1.242 1.34 1.34 0 0 0 1.407 1.581zm-.28-23.015c.691.03 1.254-.215 1.232-1.01-.014-.5-.352-.837-.969-.91-.567.057-1.194.184-1.149 1.02a.887.887 0 0 0 .886.9zm.737-8.159c.414-.033.52-.374.341-.751l-.822-.482c-.116.284-.387.63-.306.837a.949.949 0 0 0 .787.396zm-.211 21.357a.924.924 0 0 0-1.22.486.935.935 0 0 0 .881 1.34 1.039 1.039 0 0 0 1.073-.771c.132-.611-.24-.911-.734-1.055zm-32.38-10.569a1.336 1.336 0 0 0-1.219-1.3 1.137 1.137 0 0 0-1.17 1.272c0 .694.364 1.32 1.142 1.3a1.328 1.328 0 0 0 1.247-1.272zm1.932-10.053a1.236 1.236 0 0 0 1.3-1.073 1.044 1.044 0 0 0-1.024-1.273c-.67-.04-1.28.232-1.317 1a1.25 1.25 0 0 0 1.041 1.346zm-.947 22.009a1.556 1.556 0 0 0 1.066.851 1.149 1.149 0 0 0 1.185-1.278c-.03-.832-.67-1.027-1.393-1.007-.759.2-1.18.696-.858 1.434zm15.615 8.098a1.4 1.4 0 0 0 1.552-.954 1 1 0 0 0-.821-1.463 1.214 1.214 0 0 0-1.528.9 1.07 1.07 0 0 0 .797 1.517zm.031-14.952c.957.024 1.393-.654 1.63-1.487a.764.764 0 0 0-.808-.939 1.649 1.649 0 0 0-1.65 1.469.8.8 0 0 0 .828.957zm4.212 23.685a1.255 1.255 0 0 0-1.631 1.238 1.479 1.479 0 0 0 1.636 1.376 2.136 2.136 0 0 0 .346-.034 19.65 19.65 0 0 1 .894-1.715 1.65 1.65 0 0 0-1.245-.865zm-13.333-13.869c-.288-.806-.728-1.473-1.767-1.212a1.305 1.305 0 0 0-1 1.5c.06.911.49 1.687 1.471 1.6.963-.095 1.253-.949 1.296-1.888zm43.739 6.889c-.033-.017-.073-.022-.108-.036zm-53.363-30.278a.858.858 0 0 0-.785.988.986.986 0 0 0 1.371.837c.483-.121.837-.409.813-.722-.15-1.079-.717-1.231-1.399-1.103zm.57 16.848a.866.866 0 0 0 .779-.962 1.011 1.011 0 0 0-1.364-.856.852.852 0 0 0-.775.981.99.99 0 0 0 1.36.837zm-4.156-12.725a.742.742 0 0 0-.376 1.1.918.918 0 0 0 .734.385c.468-.062.807-.366.749-.691-.233-.736-.672-.959-1.107-.794zm.7 7.169h-.014c.125.558.261 1.113.4 1.667a1.261 1.261 0 0 0 .145-.539c.021-.396-.369-.813-.531-1.128zm3.418 11.3q.35.893.723 1.773a1.216 1.216 0 0 0 .221-.561 1.308 1.308 0 0 0-.944-1.212zm7.745-22.62c-.715 0-1.308.333-1.267 1.115a1.247 1.247 0 0 0 1.3 1.2 1.207 1.207 0 0 0 .96-1.425.968.968 0 0 0-.993-.89zm-3.907 13.393a1.235 1.235 0 0 0 .99-1.465.885.885 0 0 0-1.062-.753 1.154 1.154 0 0 0-.992 1.428.979.979 0 0 0 1.064.79zm-.139-9.87a.875.875 0 0 0-.966.9 1.183 1.183 0 0 0 .741 1.235c1.047.1 1.356-.309 1.378-.828a1.2 1.2 0 0 0-1.153-1.307zm-.142 24.408c.674.046 1.247-.158 1.284-.99a.866.866 0 0 0-.993-.758 1.151 1.151 0 0 0-1.048 1.308c.024.183.482.421.757.44zm3.825-12.899c-.512.116-.862.43-.875.327.21 1.255.645 1.573 1.121 1.536a.96.96 0 1 0-.246-1.863zm49.6-3.094c-.185-.437-.547-.826-1.052-.634a1.042 1.042 0 0 0-.632 1.475.889.889 0 0 0 1.1.642 1.115 1.115 0 0 0 .584-1.483zm-.612 14.39c-.928.165-1.21.614-1.177 1.1.051.732.5 1.26 1.3 1.006a.705.705 0 0 0 .2-.122q.158-.567.331-1.153c-.115-.505-.414-.853-.654-.831zM366.48 621.2a.843.843 0 0 0-.872.87c-.021.667.183 1.249.975 1.235a.881.881 0 0 0 .875-.877c-.019-.651-.172-1.244-.978-1.228zm3.553 11.772c-.722.124-.969.689-.958 1.377a.979.979 0 0 0 1 .8 1.244 1.244 0 0 0 1.2-1.213c.025-.772-.543-1.084-1.242-.964zm-7.377-15.518a1.536 1.536 0 0 0-.83 1.052 1.061 1.061 0 0 0 1.226 1.144c.752-.04 1.082-.573 1.026-1.324-.229-.7-.696-1.166-1.422-.872zm.313 9.81a1.014 1.014 0 0 0 .961-.9 1.152 1.152 0 0 0-1.029-1.338.961.961 0 0 0-1.2 1.061 1.308 1.308 0 0 0 1.268 1.177zm3.873 3.188a.9.9 0 0 0 .386-.725.736.736 0 0 0-.925-.722c-.467.2-.757.6-.578 1.051a.78.78 0 0 0 1.117.396zm-3.956 11.83a.937.937 0 0 0 1.023-.867c.1-.759-.374-1.192-1.067-1.4a.907.907 0 0 0-1.014.832 1.272 1.272 0 0 0 1.058 1.435zm3.584-3.922c.565.068.879-.3.96-.838a1.035 1.035 0 0 0-.6-1.218c-.8-.224-1.2.321-1.236 1.064a.939.939 0 0 0 .876.992zm-3.135-5.345a.778.778 0 0 0-.863.846c.036.4.271 1.081.507 1.122.715.123 1.057-.437 1.188-1.1a.762.762 0 0 0-.832-.868zm-40.445-25.534a.966.966 0 0 0-1.088-1.166 1.189 1.189 0 0 0-1.121 1.277.948.948 0 0 0 .872.943 1.214 1.214 0 0 0 1.337-1.054zm10.219 50.135c.774 0 1.073-.515 1.107-1.239-.348-.736-.772-1.446-1.741-1.233a1.043 1.043 0 0 0-.781 1.452 1.349 1.349 0 0 0 1.415 1.02zm-4.087-36.208c-.17 0-.44.458-.471.728-.082.705.223 1.28.99 1.3a.77.77 0 0 0 .8-.846 1.273 1.273 0 0 0-1.319-1.182zm-.017 24.792a1.311 1.311 0 0 0 1.267-1.173 1 1 0 0 0-.793-1.02 1.126 1.126 0 0 0-1.421.908.947.947 0 0 0 .947 1.285zm3.995 1.112a.831.831 0 0 0-.911.865c.014.869.424 1.525 1.428 1.332a.982.982 0 0 0 .752-1.035 1.4 1.4 0 0 0-1.269-1.162zm8.235-43.4c-.1-.274-.131-.673-.331-.8a.71.71 0 0 0-1.093.408.9.9 0 0 0 .322.793c.458.295.851.065 1.102-.401zm-.996 14.056a.894.894 0 0 0-.432.738.692.692 0 0 0 .971.649c.218-.082.315-.488.465-.746-.132-.536-.5-.814-1.004-.641zm.489-5.752c.336-.089.533-.7.651-.872.017-.879-.35-1.194-.894-1.2a.865.865 0 0 0-.91.931c.005.731.325 1.36 1.153 1.141zm-.213 27.971a.848.848 0 0 0-.938.9c0 .714.266 1.382 1.125 1.159.345-.089.561-.678.758-.937-.098-.718-.395-1.109-.945-1.122zm.26-7.523c-.778-.056-1.687-.043-1.641 1.11a1.445 1.445 0 0 0 1.023 1.448c.971.218 1.371-.5 1.628-1.291a1.014 1.014 0 0 0-1.01-1.267zm-7.621-22.691a1.2 1.2 0 0 0-1.083 1.39.9.9 0 0 0 1 .865 1.31 1.31 0 0 0 1.105-1.413c-.123-.546-.493-.921-1.022-.842zm.92-6.128c-.129-.265-.2-.657-.407-.756a.822.822 0 0 0-.779.238c-.278.484.011.881.5.968.199.035.457-.289.686-.45zm-1.241 28.974a.981.981 0 0 0-1.024.882 1.128 1.128 0 0 0 1.026 1.4c.746.075 1.162-.453 1.328-1.16a1.182 1.182 0 0 0-1.33-1.122zm-.152-15.409a.9.9 0 0 0-.593 1.149c.2.7.687 1.144 1.454.889a.964.964 0 0 0 .614-1.153c-.256-.682-.707-1.137-1.475-.885zm-11.943 27.184c-.291 1 .337 1.488 1.2 1.617a.88.88 0 0 0 .952-.872 1.264 1.264 0 0 0-1.03-1.371.987.987 0 0 0-1.122.626zm.788-21.128a1.194 1.194 0 0 0 1.355-1 1.155 1.155 0 0 0-1.014-1.32 1.028 1.028 0 0 0-1.3.973 1.1 1.1 0 0 0 .959 1.347zm3.622-5.397a.885.885 0 0 0-.324.778.675.675 0 0 0 1.061.413c.208-.136.252-.521.369-.792-.254-.46-.654-.678-1.106-.399zm.402 31.451c.75.086 1.2-.39 1.329-1.137a1.283 1.283 0 0 0-1.274-1.227.912.912 0 0 0-.983.9c-.102.721.125 1.373.928 1.464zm-.087-16.626a1.213 1.213 0 0 0-1.332 1.124c.188.939.987 1.156 1.758 1.254a.912.912 0 0 0 .982-.848 1.326 1.326 0 0 0-1.408-1.53zM329 653.673a1.178 1.178 0 0 0 1.247-1.119c-.134-.672-.512-1.2-1.2-1.215a1.2 1.2 0 0 0-1.223 1.167 1.1 1.1 0 0 0 1.176 1.167zm-.061-45.006c.567-.094 1.222-.2 1.272-1a1.147 1.147 0 0 0-1.026-1.317 1.113 1.113 0 0 0-1.315 1.01c-.098.705.286 1.16 1.069 1.307zm.239 5.365a.9.9 0 0 0-.433.738.694.694 0 0 0 .961.672c.217-.079.317-.482.469-.737-.124-.538-.49-.826-.997-.673zm.529 16.386c.218-.08.318-.484.469-.739-.126-.539-.5-.821-1-.669a.891.891 0 0 0-.432.736.7.7 0 0 0 .963.672zm-1.207 6.994c.1.373.463.895.779.95.786.135 1.046-.436.908-1.135a.962.962 0 0 0-1-.777.8.8 0 0 0-.687.962zm-3.193-10.19c.6.178.945-.231 1.063-.739.168-.723-.044-1.345-.9-1.349a.924.924 0 0 0-.893.967 1.1 1.1 0 0 0 .73 1.121zm.211 15.188c.613-.086 1.238-.311 1.315-1.047a1.149 1.149 0 0 0-1.054-1.312 1.058 1.058 0 0 0-1.3 1.018 1.112 1.112 0 0 0 1.039 1.341zm-.918-31.346c0 .72.29 1.37 1.134 1.15.34-.088.547-.689.679-.871 0-.843-.349-1.18-.887-1.193a.849.849 0 0 0-.926.914zm26.248 18.625a.828.828 0 0 0 .937.884 1.027 1.027 0 0 0 .923-.8c.045-.819-.4-1.029-.911-1.009a.929.929 0 0 0-.949.925zm4.625-4.567a.852.852 0 0 0-.911.924c.007.72.289 1.348 1.145 1.165.494-.105.688-.634.677-1.784a1.779 1.779 0 0 0-.911-.305zm-3.303 13.586a.917.917 0 0 0 .913-.956 1.358 1.358 0 0 0-1.1-1.409 1.188 1.188 0 0 0-1.155 1.291c.033.791.62 1.116 1.342 1.074zm-.648-15.234a1.154 1.154 0 0 0 1.315-1.042 1.186 1.186 0 0 0-1.032-1.324c-.71 0-1.237.327-1.282 1.046-.04.646.21 1.276.999 1.32zm-.829-8.913c-.279 1.008.368 1.476 1.232 1.595a.848.848 0 0 0 .936-.871 1.319 1.319 0 0 0-1.055-1.372.994.994 0 0 0-1.113.648zm1.085-8.414a1.071 1.071 0 0 0-1.258 1.062 1.136 1.136 0 0 0 1.023 1.319c.691-.059 1.231-.378 1.3-1.092a1.131 1.131 0 0 0-1.065-1.289zm3.675 33.953c-.695 0-1.254.282-1.341 1a1.251 1.251 0 0 0 .152.782 23.15 23.15 0 0 1 2.023-.019 1.285 1.285 0 0 0 .117-.407 1.137 1.137 0 0 0-.951-1.356zm-.007-30.051a1.181 1.181 0 0 0-1.332 1.019 1.109 1.109 0 0 0 1 1.325 1.044 1.044 0 0 0 1.3-.991 1.14 1.14 0 0 0-.968-1.353zm.278 9.359a.906.906 0 0 0 .441-.74.7.7 0 0 0-.965-.67c-.215.075-.316.481-.467.735.123.536.475.84.991.675zm-.934 14.076c-.185.508.113.863.634 1.01.258-.143.671-.231.748-.442a.71.71 0 0 0-.64-.99.891.891 0 0 0-.742.422zm-10.07-4.448a.7.7 0 0 0-.992.628.9.9 0 0 0 .416.751c.5.188.861-.11 1.015-.626-.142-.26-.226-.669-.439-.753zm-.62 9.664a1.188 1.188 0 0 0 1.309-1.14c.055-.7-.161-1.335-.94-1.414-.954-.1-1.438.531-1.662 1.392a1.208 1.208 0 0 0 1.293 1.162zm.37 5.314a1.124 1.124 0 0 0-1.424.9 1 1 0 0 0 .237 1.007 20.61 20.61 0 0 1 1.9-1.289.953.953 0 0 0-.713-.618zm-.577-22.714a1.169 1.169 0 0 0-1.052 1.314c.027.766.625.983 1.3 1.014a1.09 1.09 0 0 0 1.043-1.273 1.139 1.139 0 0 0-1.291-1.055zm-2.141 4.552a1.587 1.587 0 0 0-1.038-.882c-.776-.058-1.153.564-1.121 1.293a1.047 1.047 0 0 0 1.3 1.08c.698-.264 1.182-.737.859-1.491zm-.962 21.315a.972.972 0 0 0-1.12.7 1.187 1.187 0 0 0 .234 1.328 20.674 20.674 0 0 1 1.557-1.7 1.328 1.328 0 0 0-.671-.328zm3.099-33.336a1.051 1.051 0 0 0-1.039 1.256 1.123 1.123 0 0 0 1.3 1.038c.709-.067 1.023-.6 1.062-1.3a1.107 1.107 0 0 0-1.323-.994zm.511-7.586a.887.887 0 0 0-.9.936c.009.709.336 1.349 1.163 1.11.338-.1.531-.7.7-.942-.075-.77-.404-1.117-.963-1.104zM73.042 663.967c-1.306-7.832-6.222-14.158-12.765-18.449-2.623-1.671-6.638-1.191-9.539-.827a54.115 54.115 0 0 0-15.458 4.538 58.853 58.853 0 0 0-30.2 30.612C.689 690.317-.516 701.818.187 713.085c.037.587 1.519.01 1.727-.149q11.475-8.718 22.329-18.257c.12 5.537.027 11.07-.075 16.607a60.285 60.285 0 0 0 .481 11.67c.051.288.639.23.816.209 6.177-.713 12.037-3.444 17.217-6.78a74.275 74.275 0 0 0 16.282-14.422c8.636-10.163 16.38-24.185 14.078-37.996z"/><path d="M403.3 520.536c23.578 13.332 62.2 14.191 84.518-18 38.624 49.782-31.329 87.977-63.944 47.207a113.094 113.094 0 0 1-20.574-29.207z" fill="#fff"/><path d="M402.529 521.006a69.909 69.909 0 0 0 33.355 8.773 63.423 63.423 0 0 0 35.891-10.366 64.708 64.708 0 0 0 16.94-16.85l-1.8.356c7.16 9.275 12.545 20.825 10.975 32.805a33.91 33.91 0 0 1-14.4 23.061 42.767 42.767 0 0 1-27.609 7.485 43.717 43.717 0 0 1-28.381-13.756c-1.109-1.174-2.081-2.479-3.211-3.626q-2.4-2.436-4.614-5.046a111.124 111.124 0 0 1-7.394-9.752 106.894 106.894 0 0 1-7.708-13.157 32.73 32.73 0 0 1-.312-.656c-.307-.67-2.2-.07-1.932.518a90.911 90.911 0 0 0 5.451 9.873 118.326 118.326 0 0 0 6.673 9.686q2.055 2.682 4.278 5.23c1.492 1.708 3.188 3.263 4.622 5.013a45.488 45.488 0 0 0 28.74 16.452 46.593 46.593 0 0 0 29.481-5.7c8.34-4.812 15.049-12.555 17.494-21.98 2.951-11.375-.818-23.048-7.074-32.615a73.511 73.511 0 0 0-3.285-4.595c-.371-.481-1.518-.042-1.8.357-7.622 10.929-18.344 19.422-31.139 23.4a65.464 65.464 0 0 1-34.744.792 66.738 66.738 0 0 1-16.967-6.646c-.546-.306-2.323.497-1.53.944zM209.684 804.6c-1.145-9.31-9.346-15.986-17.1-20.008-17.752-8.974-36.669.782-52.311 9.6-4.4 2.48-8.771 5.023-13.319 7.226-.282.137-.561.487-.186.69 4.309 2.327 9.369 3.031 14.2 3.249a56.654 56.654 0 0 0 6.943-.089c-3.971 4.377-9.281 7.69-14.251 10.767-3.209 1.988-6.477 3.9-9.818 5.66-.269.142-.575.489-.186.691 18.192 9.433 40.025 12.156 59.8 6.367 7.1-2.079 14.244-5.271 19.75-10.323 3.821-3.515 7.146-8.395 6.478-13.83z"/><path d="M360.349 610.694c-42.059-26.178-58.368 27.035-127.462 27.035-27.889 0-51.491-10.3-72.954-21.463 18.03 26.179 44.637 149.352 48.5 187.113-13.413 1.821-36.268-3.1-45.02-18.184 9.015-102.138-24.929-201.974-45.1-241.456 0 0 10.222-12.283 26.431-30.237 26.706-29.546 69.665-74.446 109.98-105.1 6.4 26.8 16.846 43.562 31.2 55.187 16.517 13.4 38.232 20 64.982 27.363 19.061 5.243 36.926 15.508 52.357 29.557.011.011.022.011.033.022a158.977 158.977 0 0 1 31.73 40.369c19.313 34.769-37.289 73.067-74.677 49.794z" fill="#fff"/><path d="M361.122 610.243c-8.784-5.428-18.687-8.513-29.037-6.8-9.678 1.6-18.449 6.5-26.9 11.238-10.707 6-21.4 11.985-33.023 16.062a116.874 116.874 0 0 1-50.077 5.909c-21.838-2.191-42.088-10.819-61.381-20.839-.4-.208-2.111.18-1.672.82 5.221 7.632 8.387 16.834 11.429 25.489 4.506 12.821 8.279 25.9 11.8 39.021 7.735 28.8 14.271 57.955 19.71 87.269 2.165 11.671 4.27 23.409 5.487 35.224l1.107-.763c-13.111 1.705-28.655-2.162-38.572-11.114a30.584 30.584 0 0 1-3.274-3.44q-.707-.873-1.345-1.8c-1.033-1.508-.892-2.741-.755-4.452q.6-7.464.9-14.948.609-14.862.141-29.741a501.341 501.341 0 0 0-16.282-110.455c-6.853-26.416-15.442-52.691-27.136-77.392q-.725-1.53-1.47-3.049-.375-.767-.757-1.529a12.2 12.2 0 0 0-.8-1.229c.035-.5 1.373-1.634 1.682-2q5.6-6.622 11.324-13.139 16.266-18.577 33.229-36.531c25.112-26.578 51.284-52.423 79.741-75.435q5.088-4.116 10.295-8.083l-1.735.123c2.963 12.292 7.148 24.4 13.777 35.231a79.1 79.1 0 0 0 21.73 23.28c10.039 7.117 21.466 11.966 33.06 15.926 6.5 2.221 13.095 4.176 19.7 6.05 7.057 2 14.117 3.85 20.929 6.606 26.491 10.72 48.616 30.629 64.331 54.278 5.93 8.924 11.923 18.261 10.422 29.425-1.192 8.867-6.34 16.736-12.825 22.7-14.882 13.693-37.857 19.416-56.892 11.6a47.747 47.747 0 0 1-6.872-3.519c-.5-.31-2.293.443-1.546.9 17.622 10.837 40.386 8.615 57.65-1.846 15.055-9.122 27.779-26.731 20.582-44.833-2.377-5.979-6.262-11.594-9.872-16.883a159.135 159.135 0 0 0-13.641-17.3 143.619 143.619 0 0 0-33.035-27.12 124.312 124.312 0 0 0-19.535-9.392c-6.807-2.557-13.872-4.289-20.852-6.295-13.325-3.831-26.718-8.032-39.041-14.488a83.217 83.217 0 0 1-26.619-21.433c-7.748-9.68-12.971-21.1-16.643-32.877a165.993 165.993 0 0 1-2.881-10.531c-.15-.623-1.455-.09-1.734.123-23.137 17.621-44.553 37.471-65.155 57.964q-28.157 28.008-54.411 57.855c-5.73 6.484-11.435 13-16.972 19.649a.311.311 0 0 0-.071.263 334.762 334.762 0 0 1 16.608 39.417 519.8 519.8 0 0 1 16.521 56.254 515.523 515.523 0 0 1 11.309 67.846 423.387 423.387 0 0 1 .884 75.188c-.091 1.117-.408 2.234.065 3.238a14.928 14.928 0 0 0 1.729 2.532 30.71 30.71 0 0 0 4.3 4.525 41.717 41.717 0 0 0 10.769 6.593 57.84 57.84 0 0 0 23.748 4.659 45.829 45.829 0 0 0 5.007-.367c.341-.045 1.156-.278 1.106-.763-1.061-10.3-2.828-20.535-4.664-30.72-2.544-14.117-5.415-28.176-8.5-42.185-6.319-28.7-13.239-57.462-22.7-85.306-3.339-9.831-6.787-20.366-12.7-29.013l-1.672.821c16.829 8.741 34.358 16.476 53.152 19.759a121 121 0 0 0 51.531-2.2c12.389-3.282 23.947-8.734 35.122-14.923 8.963-4.963 17.864-10.737 27.754-13.7a35.9 35.9 0 0 1 15.514-1.335 45.991 45.991 0 0 1 17.343 6.827c.519.318 2.309-.434 1.561-.896zM198.581 190.948c2.2-5.418 5.189-10.578 6.427-16.343a21.7 21.7 0 0 0 .158-8.763 25.8 25.8 0 0 0-3.2-7.829 104.232 104.232 0 0 0-9.868-13.7c-4.074-4.971-8.357-9.767-12.68-14.521-4.006-4.4-8.067-8.76-12.037-13.2-2.748-3.074-5.8-6.2-7.949-9.742-2.446-4.032-.284-9.2 1.483-13.051 2.48-5.4 5.535-10.521 7.676-16.079 2-5.183 3.332-11.182 1.582-16.633-1.773-5.503-5.553-10.507-8.973-15.077a225.546 225.546 0 0 0-15.367-18.184 40.854 40.854 0 0 0-4.135-4.324 3.162 3.162 0 0 0-3.389-.2 2.6 2.6 0 0 0-1.527 2.934 11.289 11.289 0 0 0 1.149 2.209l1.692 3.071c2.23 4.054 4.452 8.114 6.61 12.207 2.126 4.03 4.358 8.079 6.164 12.266 2.722 6.316 1.2 13.256-1.524 19.289-2.591 5.739-6.236 10.862-9.48 16.231-2.753 4.556-5.437 9.788-5.9 15.17-.6 6.9 3.01 13 7.4 18.031 4.057 4.65 8.359 9.078 12.345 13.791 7.824 9.251 16.562 21.259 14.147 34.122-1.372 7.3-6.249 13.114-11.733 17.845-3.641 3.141-8.278 6.483-13.305 6.544-8.755.107-13.2-10.083-15.454-17.042a94.418 94.418 0 0 1-3.493-15.9q-.576-4.088-.91-8.2c-.217-2.616-.225-5.254-.452-7.866-.217-2.489-3.54-2.84-4.944-1.054-.758.964-.956 2.569-1.292 3.729q-.578 1.984-1.112 3.981a121.161 121.161 0 0 0-3.435 17.218c-1.236 10.617-.662 22.339 5.855 31.284a31.885 31.885 0 0 0 13.606 10.338c6.584 2.774 12.986 6.266 18.157 11.27a31.624 31.624 0 0 1 9.848 25.244 43.592 43.592 0 0 1-2.18 10.582c-.069.207.041.332.228.4a1.072 1.072 0 0 0 .381.1l22.769 2.628 3.267.377a1.421 1.421 0 0 0 1.269-.551l10.076-18.729 2.347-4.363a5.384 5.384 0 0 0 .794-1.706 19.373 19.373 0 0 0-.148-3.19q-.186-3.666-.426-7.328c-.44-6.708-.986-13.418-1.846-20.086-.385-2.985-1.129-5.992-.864-9.015a28.721 28.721 0 0 1 2.193-8.185z"/><path d="M174.531 261.14c4.936-12.016 15.1-29.848 7.94-40.34-9.227-13.519-22.706-29.792-27-38.585-4.506-9.227-2.825-18.278 6.187-23.214 8.14-4.458 36.065-15.569 65.745-23.211a1.136 1.136 0 0 1 .8 2.114c-22.039 10.964-56.581 27.626-54.524 36.976 2.361 10.729 15.235 21.243 21.887 28.539 9.227-8.8 23.306-11.344 46.266-8.555s49.221-7.968 45.359-33.5c-3.648-24.115-22.51-52.154-87.223-63.963a1.766 1.766 0 0 1 .175-3.5c17.209-1.3 35.1.911 41.772 3.517-20.391-13.518-45.497-31.972-32.193-56.863 8.258-15.45 21.559-30.322 30.461-39.38a1.826 1.826 0 0 1 2.9 2.166c-10.584 19.026-21.807 42.98-12.762 53.092 34.547 38.624 69.952 33.9 83.47 82.827 4.473-22.526-1.923-48.121-6.554-62.968a1.463 1.463 0 0 1 2.653-1.182c14.381 23.923 31.667 71.3 9.266 122.086a43.16 43.16 0 0 1-27.466 24.033c-22.96 6.652-57.185-8.047-70.918 6.115-11.748 12.115-15.986 27.359-13.626 36.157-12.446-.859-32.615-2.361-32.615-2.361z" fill="#f62d00"/><path d="M175.443 261.2c3.777-9.154 8.936-18.211 10.237-28.169.547-4.189.234-8.575-2.054-12.232-2.957-4.726-6.479-9.166-9.8-13.639-3.356-4.519-6.746-9.015-10.011-13.6a89.826 89.826 0 0 1-7.159-11.165c-2.172-4.273-3.39-9.263-2.062-13.985 1.251-4.45 4.651-7.514 8.652-9.557a207.168 207.168 0 0 1 22.46-9.363q17.268-6.384 35.038-11.313 2.423-.672 4.855-1.312c.549-.144 2.01-.8 2.222 0 .178.666-.78.93-1.243 1.16l-6.381 3.171c-4.554 2.27-9.1 4.559-13.6 6.92-8.253 4.324-16.568 8.784-24.115 14.278a39.28 39.28 0 0 0-7.514 6.675c-1.312 1.614-2.611 3.632-2.305 5.811.644 4.576 3.8 9.01 6.579 12.537A133.712 133.712 0 0 0 189.986 199c1.584 1.583 3.169 3.167 4.683 4.819.422.46 1.3.181 1.682-.181 6.454-6.1 15.074-8.441 23.746-9.046a104.36 104.36 0 0 1 17.55.471 90.124 90.124 0 0 0 15.339.7c8.758-.617 17.838-3.128 24.895-8.527A26.368 26.368 0 0 0 288.53 165.5c-.257-12.029-5.794-24.12-13.4-33.244-10.792-12.948-26.209-21.218-41.841-26.864-5.419-1.957-10.944-3.615-16.525-5.045q-4.693-1.2-9.437-2.2-2.436-.513-4.883-.978c-1.115-.212-3.124-.178-2.954-1.813.14-1.362 2.494-.975 3.518-1.029q2.852-.15 5.706-.181 5.044-.054 10.085.23a110.351 110.351 0 0 1 17.219 2.124 36.258 36.258 0 0 1 5.316 1.5c.538.207 2.175-.537 1.332-1.1-8.412-5.582-16.846-11.387-23.91-18.656-6.323-6.507-11.84-14.741-11.782-24.151a30.179 30.179 0 0 1 4.087-14.273 132.255 132.255 0 0 1 9.978-15.381c3.546-4.775 7.34-9.366 11.291-13.81q2.592-2.916 5.275-5.749 1.212-1.281 2.44-2.543c.367-.377.706-.926 1.237-.972.746-.064 1.144.791 1.053 1.452a7.081 7.081 0 0 1-1 1.965q-.525.956-1.046 1.916-1.052 1.943-2.075 3.9a213.27 213.27 0 0 0-3.962 7.972 112.982 112.982 0 0 0-6.115 15.508 40.39 40.39 0 0 0-2.062 13.648 16.8 16.8 0 0 0 1.227 5.7 17.226 17.226 0 0 0 3.476 4.883A142.649 142.649 0 0 0 254.552 78.8c7.245 5.019 14.87 9.439 22.294 14.181 6.881 4.4 13.569 9.17 19.188 15.138a68.885 68.885 0 0 1 14.233 23.436 99.602 99.602 0 0 1 2.559 7.965c.216.774 1.815.273 1.938-.357 2.541-13.019 1.651-26.529-.683-39.51-1.029-5.73-2.363-11.4-3.925-17.012q-.49-1.764-1.012-3.519-.234-.79-.474-1.578a6.09 6.09 0 0 1-.533-1.9c.132-1.609 1.452.859 1.68 1.249q.769 1.319 1.508 2.656a141.137 141.137 0 0 1 17.475 60.814 124.948 124.948 0 0 1-4.4 39.608c-3.444 12.369-8.158 25.013-18.5 33.244a41.568 41.568 0 0 1-15.328 7.713 57.531 57.531 0 0 1-15.39 1.5c-10.9-.172-21.71-2.057-32.616-2.12a46.188 46.188 0 0 0-13.37 1.519 22.643 22.643 0 0 0-10.746 6.955c-7.059 7.891-12.786 18.522-12.891 29.345a21.506 21.506 0 0 0 .632 5.634l1.322-.881q-16.311-1.125-32.616-2.36c-.839-.062-2.016 1.147-.711 1.245q16.305 1.214 32.615 2.36c.423.029 1.484-.257 1.322-.881-1.14-4.388-.595-9.085.536-13.417a49.138 49.138 0 0 1 7.658-15.969c3.056-4.286 6.518-8.4 11.539-10.338 4.357-1.681 9.2-1.985 13.827-1.968 11.087.04 22.073 1.989 33.159 2.125a61.316 61.316 0 0 0 15.706-1.524 44.351 44.351 0 0 0 26.613-19.391c3.626-5.786 5.961-12.5 8-18.985a125.153 125.153 0 0 0 5.7-40.781 141.518 141.518 0 0 0-16.929-62.736c-.961-1.793-1.932-3.6-3.014-5.324a2.667 2.667 0 0 0-4.545.256 3.48 3.48 0 0 0 .271 2.561q.589 1.927 1.145 3.863 1.135 3.962 2.113 7.966c3.155 12.956 5.129 26.423 4.22 39.778a80.665 80.665 0 0 1-1.3 10l1.938-.357c-2.715-9.751-6.809-19.162-13.071-27.178A81.5 81.5 0 0 0 283 95.009c-7.367-5.018-15.134-9.418-22.586-14.306a149.983 149.983 0 0 1-24.7-19.884 44.034 44.034 0 0 1-5.474-6.048 13.518 13.518 0 0 1-1.99-5.333c-.772-4.666.17-9.547 1.406-14.047a104.472 104.472 0 0 1 6.33-16.484 211.076 211.076 0 0 1 4.056-8.173q1.021-1.959 2.076-3.9a22.512 22.512 0 0 0 2.084-3.9C244.8.9 242.616-.393 240.836.108a5.27 5.27 0 0 0-2.255 1.676q-1.288 1.323-2.558 2.664a233.536 233.536 0 0 0-11.4 12.935 169 169 0 0 0-10.933 14.875c-3.135 4.841-6.328 9.931-7.795 15.566-5.3 20.349 14.541 35.832 29.136 45.964a347.21 347.21 0 0 0 6.121 4.14l1.332-1.1a57.5 57.5 0 0 0-13.408-2.847 145.3 145.3 0 0 0-19.648-1.081q-2.353.026-4.706.12a26.6 26.6 0 0 0-5.02.351c-1.62.4-2.914 2.276-1.719 3.794.675.856 1.852.9 2.838 1.085q2.8.526 5.586 1.115 4.626.98 9.209 2.148c18.517 4.74 37.448 12.037 51.693 25.2a59.759 59.759 0 0 1 18.291 31.481c1.743 8.279 1.214 16.868-4.237 23.715-5.607 7.043-14.557 10.684-23.241 12.062a57.394 57.394 0 0 1-14.3.447 181.947 181.947 0 0 0-18.352-1.251c-9.082.076-18.571 1.425-26.3 6.522a32.348 32.348 0 0 0-4.4 3.51l1.682-.181c-6.972-7.608-15.758-14.356-20.238-23.892-.741-1.577-1.724-3.6-1.649-5.392a6.059 6.059 0 0 1 1-2.839c1.64-2.7 4.271-4.832 6.746-6.727 7.534-5.771 16.028-10.324 24.4-14.729 4.622-2.432 9.286-4.785 13.959-7.116q3.2-1.6 6.4-3.183c1.166-.579 4-1.888 2.216-3.543a2.6 2.6 0 0 0-2.535-.25c-1.791.447-3.573.939-5.353 1.427q-4.793 1.316-9.552 2.744-9.216 2.764-18.309 5.92c-9.1 3.157-18.181 6.515-26.968 10.486a37.617 37.617 0 0 0-8.822 4.954 15.482 15.482 0 0 0-5.667 11.945c.009 4.656 1.836 8.935 4.176 12.873 2.49 4.19 5.365 8.153 8.236 12.086 3.442 4.713 6.962 9.368 10.416 14.071a383.216 383.216 0 0 1 5.141 7.147 19.758 19.758 0 0 1 3.384 6.389c1.184 4.6.253 9.528-1.043 14a119.062 119.062 0 0 1-5.928 15.14c-.968 2.175-1.942 4.347-2.851 6.547-.381.947 1.55.811 1.832.124z"/><path d="M323.872 287.532c-9 35.194-66.089 45.065-96.556 10.3 9.509 36.269 18.842 67.2 24.523 95.613.022.121.044.241.066.351.219 1.1.427 2.172.636 3.257a271.883 271.883 0 0 1 4.387 32.957c3.586 54.508-120.6 89.274-115.014 139.482-41.972-19.225-74.995-51.228-74.995-96.709 0-17.482 6.877-30.566 14.762-42.926a.083.083 0 0 1 .022-.044c.274-.428.538-.845.812-1.261 10.89-16.89 23.283-32.694 22.066-56.9-13.581-7.141-28.657-29.47-44.352-16.309-13.3 11.154-23.283 13.895-33.472-5.155-3.784-7.063-21.693-6.569-18.129-23.47 3.718-17.6 4.826-34.9 16.846-34.031s59.267 3.169 82.112-23.6c12.448-14.6 29.612-11.592 51.93-11.592 21.452 0 65.223-1.722 90.118 7.721s50.209 30.903 74.238 22.316z" fill="#fff"/><path d="M322.893 287.6c-3.542 13.586-14.673 23.369-27.64 27.874A62.71 62.71 0 0 1 228.2 297.4c-.487-.552-2.085-.211-1.85.687 8.118 30.943 17.514 61.637 23.989 92.986 1.712 8.288 3.182 16.63 4.246 25.027.788 6.219 1.818 12.7 1.337 18.984-.567 7.415-3.538 14.391-7.574 20.566a101.169 101.169 0 0 1-16.891 19.05c-7.091 6.461-14.685 12.352-22.369 18.084-15.352 11.452-31.434 22.138-45.619 35.065-10.549 9.613-22.012 22-22.688 37.089a31.9 31.9 0 0 0 .167 4.807l1.522-.916c-22.783-10.467-44.595-25.288-58.951-46.22C69 501.449 62.849 472.978 72.626 448.6c4.971-12.392 13.166-23.031 20.129-34.314 7.035-11.4 12.38-23.7 12.851-37.267q.047-1.343.035-2.685a8.9 8.9 0 0 0-.081-2.756c-.367-.9-1.923-1.434-2.759-1.97a80.652 80.652 0 0 1-6.942-5.136c-4.622-3.714-9.134-7.7-14.326-10.616-4.353-2.447-9.282-4.036-14.287-2.924-5.763 1.279-9.71 6.062-14.547 9.092-3.939 2.467-8.684 4.418-13.291 2.666-5.791-2.2-8.864-8.134-11.867-13.11-1.705-2.827-5.032-4.288-7.844-5.751-3.331-1.732-6.876-3.607-8.916-6.9-3.035-4.894-1.037-10.762-.045-15.949 1.25-6.534 2.186-13.35 4.674-19.559 1.787-4.458 4.644-8.3 9.872-8.02 2.828.154 5.65.331 8.483.4 19.845.462 41.106-1.889 58.72-11.668a59.361 59.361 0 0 0 13.159-9.786c2.181-2.175 4.039-4.636 6.4-6.633a29 29 0 0 1 7.172-4.465c5.369-2.341 11.3-3.008 17.1-3.218 6.661-.242 13.33.085 19.992.157 24.357.264 48.805-1.01 72.982 2.778a106.194 106.194 0 0 1 17.29 4.011 144.82 144.82 0 0 1 19.61 8.746c12.5 6.378 25.258 13.9 39.349 16.016a38.6 38.6 0 0 0 18.517-1.539c1.15-.4.82-1.752-.359-1.34-13.874 4.846-28.209-.545-40.794-6.561-12.719-6.079-24.947-13.785-38.592-17.681-12.271-3.5-25.173-4.709-37.872-5.38-12.318-.651-24.656-.631-36.987-.526-5.682.049-11.36.091-17.042-.019a196.272 196.272 0 0 0-19.782.129 42.665 42.665 0 0 0-15.851 4.014 31.166 31.166 0 0 0-7.112 4.953c-2.113 1.956-3.87 4.243-5.923 6.259-15.749 15.46-39.725 19.723-60.961 20.308q-5.847.162-11.695-.082c-3.067-.128-6.478-.8-9.456.115-4.521 1.384-6.967 5.714-8.48 9.9-2.251 6.222-3.222 12.878-4.466 19.351-1 5.21-2.7 10.708.056 15.679 1.856 3.342 5.242 5.4 8.522 7.14 2.9 1.535 6.569 2.924 8.411 5.806 3.158 4.943 5.849 10.4 11.347 13.172 3.988 2.009 8.386 1.6 12.409-.083a35.6 35.6 0 0 0 6.9-4.01c2.55-1.824 4.821-4.156 7.581-5.661 10.985-5.993 22.4 5.432 30.3 11.785 2.2 1.769 4.422 3.519 6.787 5.063.521.339 1.048.669 1.584.983.742.436.979.468 1.068 1.322a37.487 37.487 0 0 1-.091 6.168 63.157 63.157 0 0 1-4.875 20.327c-5.123 12.248-13.345 22.792-20.2 34.062-7.44 12.224-12.6 25.431-12.536 39.923a87.862 87.862 0 0 0 7.748 35.891c10.285 22.665 29.567 39.861 50.763 52.2 5.485 3.194 11.139 6.089 16.906 8.738.6.278 1.6-.2 1.522-.916-1.621-15.111 8.868-28.032 19.076-37.863 13.708-13.2 29.708-23.875 44.981-35.136 14.584-10.753 29.849-22 40.731-36.7 4.409-5.955 8.024-12.624 9.548-19.929a41.217 41.217 0 0 0 .555-11.607 264.725 264.725 0 0 0-3.366-26.29c-5.439-30.991-14.635-61.238-22.789-91.584q-1.685-6.269-3.334-12.549l-1.85.687a64.961 64.961 0 0 0 44.361 21.767c14.766.967 30.548-2.944 41.816-12.895a39.524 39.524 0 0 0 12.242-19.669c.237-.933-1.74-.715-1.964.139z"/><path d="M103.83 372.189a36 36 0 0 0 10.533 2.694 133.422 133.422 0 0 0 14.989 1.061 338.93 338.93 0 0 0 34.278-1.108c4.782-.373 9.56-.821 14.32-1.406 3.333-.41 7.106-.581 10.219-1.928 3.772-1.632 6.694-4.914 9.033-8.192a72.656 72.656 0 0 0 7.311-13.375 131.629 131.629 0 0 0 5.222-14.362 82.073 82.073 0 0 0 2.625-10.653 20.54 20.54 0 0 0 .2-1.563c.078-.959-1.885-.668-1.952.165a49.019 49.019 0 0 1-1.808 8.678 131.453 131.453 0 0 1-4.434 13.448 91.527 91.527 0 0 1-6.581 13.779c-2.188 3.653-4.805 7.382-8.357 9.832-2.7 1.861-5.913 2.115-9.077 2.54-4.361.586-8.741 1.03-13.123 1.41-10.935.947-21.926 1.5-32.9 1.452-5.155-.024-10.32-.191-15.454-.681a52.539 52.539 0 0 1-11.568-2.1 17.613 17.613 0 0 1-1.972-.769 1.339 1.339 0 0 0-1.382.128c-.257.2-.572.738-.116.954zm-76.854-70.276a6.114 6.114 0 0 1 3.3 6.171 8.673 8.673 0 0 1-1.148 3.752 6.969 6.969 0 0 1-1.122 1.58q-.327.368-.688.7c-.207.191.185-.154-.033.026l-.191.156q-.228.18-.465.346c-.108.076-.544.355-.417.28s-.285.151-.376.2c-.2.1-.413.186-.619.279-.306.137.219-.053-.228.078-.224.067-.449.127-.676.183-.442.109.07.016-.265.054-.244.028-.485.059-.73.075-.111.007-.7.012-.45.017a2.679 2.679 0 0 0-2.523 1.156c-.4.808.351 1.5 1.15 1.52a12.389 12.389 0 0 0 10.473-4.992c1.92-2.674 2.944-6.342 1.75-9.535a7.743 7.743 0 0 0-3.743-4.195 2.7 2.7 0 0 0-2.763.261c-.56.408-1.107 1.443-.236 1.891zm120.59-19.727a20.3 20.3 0 0 1-4.928 11.7c-4.053 4.667-9.7 6.651-15.7 6.9a58.813 58.813 0 0 1-17.616-2.386 4.463 4.463 0 0 0-2.472.426c-.224.091-1.415.581-.948.935 9.123 6.913 20.782 10.247 32.176 10.09.947-.013 1.9-.037 2.844-.133.729-.074 2.112-.272 2.592-.9s-.424-.6-.891-.551c-.158.016-.317.027-.476.038-.274.02-.445.026-.244.017-.3.013-.609.024-.913.03a50.081 50.081 0 0 1-5.066-.147 52.69 52.69 0 0 1-16.058-3.8 46.817 46.817 0 0 1-10.315-5.924l-3.42 1.361c9.784 2.634 20.574 3.842 30.265.15 5.725-2.182 10.641-6.128 13.214-11.777a20.506 20.506 0 0 0 1.819-7.061c.03-.441-3.789-.053-3.863 1.035zm80.654 15.289c-5.142-6.337-12.792-10.917-21.109-10.963-.334 0-1.135.139-1.282.5s.128.465.5.467c7.934.044 15.221 4.71 20.09 10.711.365.449 2.217-.209 1.805-.717zM42.265 355.332a16.962 16.962 0 0 1 9.765-12.108 15.145 15.145 0 0 1 13.075.571 3.3 3.3 0 0 0 2.5-.185c.19-.071 1.762-.809 1.136-1.157-8.3-4.619-20.489-1.414-26.437 5.666a18.187 18.187 0 0 0-3.854 7.867c-.205.933 3.6.352 3.818-.654zm26.711-3.621c3.029-.335 6.612-1.035 8.706-3.474a6.315 6.315 0 0 0 1.061-5.875 13.864 13.864 0 0 0-1.566-3.523c-.233-.387-1.151-.012-.883.432a10.257 10.257 0 0 1 1.758 5.636 5.515 5.515 0 0 1-3.405 4.66 17.055 17.055 0 0 1-5.592 1.412c-.546.061-.735.805-.079.732z"/><path d="M416.975 534.741C437.5 559.189 453.664 580 456.239 617.32c1.493 21.638 13.98 39.478 31.147 44.58 24.1 34.833 46.248 111.578 41.385 153.921-14.563 3.436-43.746-9.153-47.1-24.765 10.523-21.8 18.372-73.938-7.95-113.778-28.047-42.452-50.561 5.775-99.206-45.133-36.908-38.624-32.187-94.414-32.187-94.414z" fill="#fff"/><path d="M416.089 535.163c13.323 15.876 26.381 32.293 33.236 52.129a109.294 109.294 0 0 1 4.247 16.368c1.064 5.916 1.3 11.88 2.094 17.822A54.829 54.829 0 0 0 467.978 650 42.186 42.186 0 0 0 479 659.181a37.968 37.968 0 0 0 6.1 2.8 5.187 5.187 0 0 1 1.567.586 6.344 6.344 0 0 1 .84 1.238q.853 1.278 1.673 2.576a187.364 187.364 0 0 1 12.734 24.354 332.749 332.749 0 0 1 19.868 60.692c4.353 19.092 7.6 39.023 6.5 58.666q-.163 2.91-.489 5.808l.8-.724c-6.017 1.375-12.607.044-18.381-1.776a56.169 56.169 0 0 1-18.665-9.817 30.857 30.857 0 0 1-6.386-6.919 18.647 18.647 0 0 1-1.917-3.769 5.523 5.523 0 0 1-.551-1.889 6.175 6.175 0 0 1 .7-1.582 94.423 94.423 0 0 0 5.312-16.105 138.292 138.292 0 0 0 3.3-44c-1.428-17.032-6.2-33.86-14.971-48.6-5.991-10.062-14.045-19.9-25.972-22.647-9.151-2.11-18.654-.438-27.932-.944a57.3 57.3 0 0 1-16.726-3.339 70.466 70.466 0 0 1-19.625-11.522 111.343 111.343 0 0 1-31.936-41.522 138.53 138.53 0 0 1-10.662-39.569 129.247 129.247 0 0 1-.943-22.463c.019-.355.039-.711.069-1.065.082-.977-1.884-.7-1.955.156a106.106 106.106 0 0 0 .154 16.075 145.266 145.266 0 0 0 7.417 37.229 113.242 113.242 0 0 0 25.097 41.861c10.791 11.211 23.692 21.128 39.216 24.368a73.049 73.049 0 0 0 15.821 1.288c4.7-.054 9.415-.385 14.118-.142a33.323 33.323 0 0 1 13.212 3.148c5.263 2.614 9.541 6.812 13.119 11.407 10.644 13.668 16.836 30.692 19.483 47.691a137.213 137.213 0 0 1-.924 46.695 108 108 0 0 1-4.946 17.98q-.686 1.812-1.463 3.588c-.227.516-.467 1.025-.7 1.538a2.233 2.233 0 0 0 .02 1.838 21.144 21.144 0 0 0 4.12 7.441c4.275 5.183 10.151 8.96 16.174 11.8a54.757 54.757 0 0 0 19.622 5.4 28.128 28.128 0 0 0 8.053-.542c.328-.075.762-.352.8-.724 2.127-18.8-.561-38.181-4.266-56.605a340.275 340.275 0 0 0-18.614-61.839 225.294 225.294 0 0 0-12.349-25.8q-1.559-2.748-3.23-5.43-.78-1.246-1.588-2.475c-.479-.727-.994-1.89-1.752-2.333a23.832 23.832 0 0 0-3.078-1.07 34.993 34.993 0 0 1-3.583-1.67 39.236 39.236 0 0 1-5.921-3.921c-8.186-6.545-13.615-16.089-16.282-26.129-1.524-5.733-1.756-11.54-2.422-17.4a116.87 116.87 0 0 0-3.228-17.2 111.424 111.424 0 0 0-12.256-28.435 210.845 210.845 0 0 0-18.152-24.9q-2.563-3.118-5.164-6.206c-.55-.656-2.39.1-1.771.843z"/><path d="M370.958 553.823c-2.707-3.674-2.026-8.745-1.222-13.237.419-2.338.951-4.877 2.78-6.392 2.015-1.669 4.92-1.544 7.525-1.3 3.434.32 6.964.721 10 2.36a13.194 13.194 0 0 1 6.5 14.224c-2.512 10.385-19.427 12.699-25.583 4.345z" fill="#b2b2b2"/><path d="M371.862 553.473c-1.946-2.769-2.072-6.238-1.708-9.489.32-2.857.6-6.711 2.473-9.033 2.15-2.666 6.428-1.709 9.387-1.335 3.385.428 6.791 1.277 9.407 3.586 4 3.53 5.79 9.707 3.361 14.623-1.921 3.887-6.123 6.08-10.307 6.526-4.682.5-9.7-1.027-12.613-4.878-.323-.428-2.181.207-1.808.7 5.844 7.736 20.313 6.588 25.729-1.114 3.511-4.992 2.175-11.932-2.042-16.081-2.655-2.613-6.256-3.669-9.859-4.177-3.37-.476-7.25-1.073-10.481.326-3.809 1.651-4.4 5.9-4.951 9.563-.594 3.921-.779 8.095 1.6 11.483.306.427 2.175-.185 1.812-.7z"/><path d="M404.321 560.772a6.212 6.212 0 0 1 1.356-4.245c1.745-1.737 4.654-1.057 6.984-.259 1.869.64 3.83 1.342 5.124 2.836 2.073 2.395 1.779 5.963 1.366 9.1-.363 2.764-.95 5.893-3.319 7.364a6.414 6.414 0 0 1-5.712.185c-6.242-2.525-6.054-9.04-5.799-14.981z" fill="#b2b2b2"/><path d="M405.294 560.678c.083-1.693.33-4.11 2.352-4.533 1.649-.345 3.506.384 5.035.925 1.908.675 3.851 1.54 4.885 3.389a9.839 9.839 0 0 1 .864 5.432 28.957 28.957 0 0 1-.793 5.4c-.411 1.58-1.174 3.363-2.759 4.076-3.242 1.459-7.2-1.445-8.51-4.313-1.459-3.208-1.22-6.948-1.074-10.377.039-.917-1.913-.585-1.946.188-.159 3.724-.424 7.86 1.365 11.269 1.883 3.589 6.513 5.812 10.445 4.432 4.284-1.5 4.893-6.653 5.2-10.559a10.8 10.8 0 0 0-1.084-6.483c-1.245-2.069-3.565-3-5.742-3.752s-4.686-1.44-6.943-.566c-2.438.944-3.12 3.257-3.238 5.659-.051.916 1.905.586 1.943-.187z"/><path d="M396.956 594.859c1.809 1.034 4.1 1.654 5.947.687s2.624-3.144 3-5.176a9.338 9.338 0 0 0-.305-5.49c-.822-1.844-2.537-3.1-4.18-4.278l-5.649-4.038a6.1 6.1 0 0 0-3.769-1.555c-3.153.227-2.421 7.808-1.958 10.039a14.818 14.818 0 0 0 6.914 9.811z" fill="#b2b2b2"/><path d="M396.052 595.208a7.994 7.994 0 0 0 6.608.883 6.321 6.321 0 0 0 3.853-4.413c.659-2.194 1.011-4.9.05-7.057s-3.049-3.516-4.9-4.843L398 577.165a21.516 21.516 0 0 0-3.241-2.131 4.3 4.3 0 0 0-4.768.515 6.04 6.04 0 0 0-1.291 3.878 22.929 22.929 0 0 0 .157 4.558 15.206 15.206 0 0 0 7.193 11.223 1.542 1.542 0 0 0 1.258-.058c.11-.044.89-.441.551-.64-5.49-3.227-7.817-9.681-7.206-15.82a5.194 5.194 0 0 1 1.054-3.16.909.909 0 0 1 .15-.127c-.2.118-.441-.063.206.078a5.42 5.42 0 0 1 1.626.647c.988.582 1.9 1.306 2.834 1.972 1.848 1.321 3.764 2.581 5.535 4a7.51 7.51 0 0 1 3.046 4.693 11.748 11.748 0 0 1-1.049 6.582 3.4 3.4 0 0 1-2.605 2.193 7.035 7.035 0 0 1-3.591-1.062 1.562 1.562 0 0 0-1.258.058c-.101.045-.893.454-.549.644z"/><path d="M415.61 587.79a3.727 3.727 0 0 1 .547-2.565c.708-.844 1.971-.883 3.074-.853 3.412.093 7.131.3 9.686 2.564a9.575 9.575 0 0 1 2.777 4.9 11.405 11.405 0 0 1-1.687 9.5 8.643 8.643 0 0 1-8.8 3.308c-7.063-1.851-5.421-11.444-5.597-16.854z" fill="#b2b2b2"/><path d="M416.587 587.709c-.027-1.013-.092-2.35 1.141-2.6a12.165 12.165 0 0 1 3.044.02 13.833 13.833 0 0 1 6.028 1.387c3.851 2.168 5 7.448 3.885 11.473-1.072 3.884-4.957 7.2-9.151 5.97-2.96-.866-4.244-3.6-4.707-6.438-.53-3.248-.147-6.538-.24-9.807-.028-.981-1.977-.663-1.953.162.177 6.185-1.416 16.823 7.378 17.66a10.257 10.257 0 0 0 10.539-7.4c1.415-4.768-.189-10.817-4.928-13.048a19.815 19.815 0 0 0-8.051-1.388 5.968 5.968 0 0 0-3.652.756 3.7 3.7 0 0 0-1.286 3.421c.025.976 1.974.658 1.953-.168z"/><path d="M159.94 616.266c-19.2-8.422-68.2-4.4-88.11 56.439-4.578 13.987-49.665.145-45.936-12.862 7.184-25.052 76.969-93.359 156.362-48.3z" fill="#fff"/><path d="M160.7 615.752c-6.979-3.041-14.9-3.769-22.43-3.289a67.242 67.242 0 0 0-28.648 8.645 77.946 77.946 0 0 0-27.072 26.379 109.368 109.368 0 0 0-10.38 21.5c-.825 2.285-1.253 4.943-3.228 6.563a10.837 10.837 0 0 1-5.056 2.043c-4.988.865-10.287.074-15.15-1.133a50.475 50.475 0 0 1-14.894-6.112c-2.994-1.9-6.807-4.782-7.17-8.631a9.562 9.562 0 0 1 1.008-4.317 41.368 41.368 0 0 1 2.286-4.72c4.733-8.486 11.428-15.911 18.524-22.481a130.825 130.825 0 0 1 31.5-21.6 110.964 110.964 0 0 1 41.274-11.229 104.511 104.511 0 0 1 48.015 8.6 127.2 127.2 0 0 1 12.222 6.1c.643.363 2.386-.535 1.512-1.029-15.119-8.548-31.918-14.071-49.322-14.992a109 109 0 0 0-43.7 6.939A129.912 129.912 0 0 0 54.912 622.9a116.459 116.459 0 0 0-22.867 23.515 54.986 54.986 0 0 0-5.945 10.246 14.512 14.512 0 0 0-1.388 4.448 7.579 7.579 0 0 0 1.412 4.669c2.5 3.783 6.909 6.285 10.914 8.154A57.778 57.778 0 0 0 53 678.709c4.67.688 9.8.9 14.287-.82a9.814 9.814 0 0 0 4.453-3.188 9.205 9.205 0 0 0 1.26-2.674q1.1-3.308 2.378-6.552c5.429-13.726 13.474-26.605 24.815-36.209a66.39 66.39 0 0 1 29.45-14.438 54.448 54.448 0 0 1 25.1.41 32.958 32.958 0 0 1 4.442 1.543 1.419 1.419 0 0 0 1.377-.148c.243-.184.593-.682.135-.881zm80.649-517.691c17.231 7.24 34.662 16.676 44.528 33.239a81.631 81.631 0 0 1 5.857 12.791 123.126 123.126 0 0 1 4.133 12.7c2.028 7.744 3.415 16.187 1.595 24.113a21.122 21.122 0 0 1-4.642 9.356c-2.784 3.136-6.461 4.936-10.366 6.289-9.9 3.43-20.461 4.543-30.871 5.108-8.946.486-17.968.3-26.883 1.262a34.173 34.173 0 0 0-15.983 5.655c-13.158 8.992-18.327 25.388-18.845 40.65-.091 2.7-.045 5.393.1 8.085.053 1 2 .691 1.955-.153-.875-16.472 2.4-35.357 16.054-46.231a30.383 30.383 0 0 1 15.194-6.454c8.819-1.142 17.806-.908 26.675-1.341 10.392-.507 20.931-1.5 30.909-4.607 4.118-1.281 8.248-2.825 11.572-5.658a21.12 21.12 0 0 0 6.014-8.554c2.784-7.29 2.121-15.522.62-23.019a117.183 117.183 0 0 0-8.391-25.239c-8.1-17.816-24.693-28.782-41.955-36.607a242.343 242.343 0 0 0-6.148-2.676c-.8-.336-2.246.814-1.12 1.287z"/><path d="M194.662 203.792c1.989 2 4.067 4.168 4.685 7.013.777 3.578-.737 7.346-2.154 10.562-.249.568 1.658.364 1.929-.251 1.457-3.307 2.956-7.154 2.157-10.829-.636-2.921-2.777-5.192-4.821-7.241-.462-.464-2.29.251-1.8.746zm118.16-64.427a154.211 154.211 0 0 1-5.534 22.7c-2.466 7.781-5.343 15.664-9.633 22.648-1.641 2.671-3.583 5.5-6.316 7.152-.352.213-.473.563-.147.837s1.06.031 1.373-.16a19.962 19.962 0 0 0 5.821-6.048 63.638 63.638 0 0 0 5.425-10.114 155.808 155.808 0 0 0 8.308-24.654c1.057-4.15 1.982-8.34 2.643-12.573.13-.829-1.826-.518-1.94.21z"/><path d="M241.283 4.946c-8.318 9.517-16.9 19.308-21.707 31.163-2.419 5.961-3.754 12.641-2.122 18.989 1.533 5.957 5.7 10.853 10.1 14.964a120.384 120.384 0 0 0 16.24 12.238c6.455 4.239 13.062 8.241 19.527 12.464a172.079 172.079 0 0 1 19.085 14.06c5.26 4.58 10.378 9.5 13.148 16.013 2.882 6.775 4.023 14.256 4.5 21.558a122.181 122.181 0 0 1-.894 24.186q-.372 2.79-.877 5.558c-.137.751 1.811.436 1.933-.237a126.055 126.055 0 0 0 2-23.236 85.51 85.51 0 0 0-2.841-22.918 40.653 40.653 0 0 0-3.675-9.029 37.967 37.967 0 0 0-6.252-7.736 126.843 126.843 0 0 0-17.864-14.632c-12.278-8.559-25.655-15.607-37.4-24.912-4.756-3.766-9.477-8.069-12.555-13.366-3.392-5.839-3.561-12.685-1.851-19.086 3.407-12.76 12.436-23.57 20.961-33.313q1.17-1.338 2.343-2.672c.317-.363-.272-.56-.528-.582a1.59 1.59 0 0 0-1.274.531z"/><path d="M200.506 257.594c.019-9.058 1.29-18.379 5.289-26.6a33.323 33.323 0 0 1 20.288-17.478c9.014-2.814 18.634-2.411 27.925-1.634 7.962.666 15.983 1.767 23.958.693a48.61 48.61 0 0 0 20.072-7.341 49.317 49.317 0 0 0 15.7-16.971c7.405-12.958 9.667-28.656 10.214-43.373a171.421 171.421 0 0 0-8.409-58.632q-1.349-4.191-2.89-8.314c-.328-.88-2.252-.341-1.932.518a174.878 174.878 0 0 1 11.379 60.986 142.967 142.967 0 0 1-1.733 22.475 82.745 82.745 0 0 1-6.027 21.319 49.935 49.935 0 0 1-14.875 19.185 45 45 0 0 1-19.88 8.5c-7.863 1.308-15.76.332-23.632-.354-9.127-.8-18.481-1.319-27.471.842-8.845 2.126-16.794 7.068-21.875 14.7-4.9 7.367-7.09 16.219-7.8 24.951a84.18 84.18 0 0 0-.263 6.663c0 1.017 1.956.736 1.958-.143zm16.841-119.477c-9.388 3.631-18.712 7.448-27.834 11.707-4.592 2.144-9.141 4.4-13.54 6.917a58.545 58.545 0 0 0-10.117 6.916c-2.041 1.83-3.85 3.908-4.083 6.747-.31 3.779 1.216 7.628 2.763 10.994 3.911 8.508 9.6 16.344 15.6 23.494a51.988 51.988 0 0 1 4.546 5.468 17.677 17.677 0 0 1 2.5 8.791c.264 7.331-2.475 14.609-5.083 21.334-.188.484 1.7.271 1.918-.293 3.962-10.214 8.924-23.746.486-33.065a118.558 118.558 0 0 1-15.825-21.908 40.147 40.147 0 0 1-4.731-11.714c-.56-2.97-.241-5.64 1.76-7.973a35.981 35.981 0 0 1 8.62-6.718 145.831 145.831 0 0 1 12.918-6.951c10.049-4.873 20.406-9.107 30.818-13.134 1.269-.491.093-.925-.714-.612z"/><path d="M251.905 393.794c-.022-.12-.055-.23-.077-.351h.011c.022.121.044.241.066.351z" fill="#b2b2b2"/><path d="M252.871 393.535c-.022-.118-.056-.233-.077-.351l-1.364.724h.011l-.568-.206c.021.117.042.234.066.351a.189.189 0 0 0 .123.127.449.449 0 0 0 .233.071 1.272 1.272 0 0 0 .332 0 1.635 1.635 0 0 0 .381-.066l.253-.083a1.726 1.726 0 0 0 .4-.213l.13-.119a.262.262 0 0 0 .08-.231c-.024-.116-.045-.234-.066-.351a.263.263 0 0 0-.184-.16 1.083 1.083 0 0 0-.384-.045h-.011a2.195 2.195 0 0 0-.5.077 2.285 2.285 0 0 0-.473.184 1.1 1.1 0 0 0-.309.231.26.26 0 0 0-.08.231c.022.118.055.233.077.351a.189.189 0 0 0 .123.127.449.449 0 0 0 .233.071 1.272 1.272 0 0 0 .332 0 1.635 1.635 0 0 0 .381-.066l.253-.083a1.726 1.726 0 0 0 .4-.213l.13-.119a.262.262 0 0 0 .078-.239z"/><path d="M141.914 569.49c-41.972-19.225-74.995-51.228-74.995-96.709 0-17.482 6.877-30.566 14.762-42.926C68 466.371 68.653 502.54 112.346 530.459c9.441-44.06 50.329-55.655 94.416-72.955 37.191-14.593 50.736-30.545 45.779-60.453a271.883 271.883 0 0 1 4.387 32.957c3.586 54.508-120.597 89.274-115.014 139.482z" fill="#b2b2b2"/><path d="M142.691 569.057c-20.326-9.333-39.7-22.03-53.976-39.478C74.8 512.569 66.644 490.782 68 468.65c.875-14.27 7.008-26.937 14.57-38.809l-1.852.153c-5.007 13.406-8.518 27.694-7.774 42.1a66.06 66.06 0 0 0 15.545 39.114 99.949 99.949 0 0 0 22.953 19.611c.421.27 1.734.1 1.863-.5a67.873 67.873 0 0 1 20.082-35.74c10.337-9.6 23.074-16.187 35.908-21.781 14.6-6.363 29.753-11.345 44.37-17.65 12-5.175 24.606-11.675 32.758-22.242 6.946-9 8.865-20.118 7.738-31.24a80.653 80.653 0 0 0-.656-4.874l-1.932.517c1.3 6.859 2.416 13.753 3.243 20.685a105.531 105.531 0 0 1 1.2 15.662 40.11 40.11 0 0 1-4.4 16.489c-5.953 11.982-16.126 21.592-26.23 30.092-11.878 9.991-24.643 18.863-37.128 28.063-11.529 8.5-23.179 17.215-32.911 27.79-7.542 8.2-14.362 18.277-14.582 29.8a30.465 30.465 0 0 0 .178 3.856c.058.54 2 .136 1.932-.518-1.239-11.46 4.58-21.878 11.758-30.345 9.153-10.8 20.61-19.545 31.907-27.962 12.476-9.294 25.3-18.142 37.365-27.977 10.432-8.5 20.907-17.926 27.777-29.656a44.4 44.4 0 0 0 5.937-16.2 46.309 46.309 0 0 0 .071-10.1c-.528-6.735-1.366-13.445-2.425-20.116q-.8-5.053-1.763-10.08c-.107-.567-2.035-.11-1.932.517 1.863 11.367 1.3 23.3-5.19 33.184-7.214 10.979-19.464 17.744-31.15 22.981-14.544 6.517-29.765 11.444-44.427 17.694-12.778 5.448-25.508 11.723-36.181 20.744a68.572 68.572 0 0 0-21.86 33.205 79.984 79.984 0 0 0-1.382 5.48l1.863-.5c-13.9-8.917-26.531-20.651-33.2-36.039-5.528-12.759-6.31-26.852-4.037-40.453a129.54 129.54 0 0 1 6.63-23.89c.227-.608-1.625-.2-1.851.152-6.66 10.456-12.41 21.552-14.191 33.968a81.517 81.517 0 0 0 3.084 34.751c6.36 20.954 20.708 38.336 37.9 51.486a175.83 175.83 0 0 0 33.548 19.851c.516.233 2.29-.534 1.565-.866z"/></svg></g><g transform="translate(355.0 151.0) rotate(0.0 130.5 86.0) scale(0.8836853403035002 0.8836781561952518)"><svg width="295.354" height="194.641" viewBox="0 0 295.354 194.641"><path d="M272.559 155.6c-83.872 56.9-177.472 45.577-238.871-1.649C4.429 131.446.969 109.641 6.3 106.152c-6.9-11.924-16.824-30.5 40.878-44.429s271.468-16.03 243.363 40.052c10.929 6.635-3.983 30.227-14.686 35.114 20.333 4.886 2.579 14.721-3.296 18.711z" fill="#b1b1b1"/><path d="M271.928 155.189a224.333 224.333 0 0 1-66.4 30.959 200.185 200.185 0 0 1-65.644 6.739 195.956 195.956 0 0 1-60.645-13.851 192.044 192.044 0 0 1-27.513-13.791 156.64 156.64 0 0 1-26.458-19.614c-6.975-6.583-13.453-14.251-17.341-23.1a31.891 31.891 0 0 1-2.603-8.831 10.758 10.758 0 0 1 .549-5.828 3.169 3.169 0 0 1 1.057-1.316.6.6 0 0 0 .256-.822c-3.3-5.7-6.75-12.342-4.533-19.071 1.488-4.516 5.121-7.961 8.927-10.608 6.956-4.836 15.186-7.823 23.222-10.3a205.435 205.435 0 0 1 34.377-7.209c12-1.551 24.064-2.543 36.138-3.242q21-1.216 42.051-1.207c14.569-.008 29.145.4 43.685 1.35 13.676.89 27.342 2.238 40.874 4.431a190.509 190.509 0 0 1 33.456 8.059c7.579 2.7 15.6 6.189 21.28 12.081 4.435 4.6 6.443 10.531 4.823 16.813a24.818 24.818 0 0 1-1.865 4.85.469.469 0 0 0 .169.629c4.547 2.853 3.976 8.682 2.486 13.131a42.118 42.118 0 0 1-9.769 15.524 24.676 24.676 0 0 1-7.07 5.389c-.456.213-.893.972-.148 1.155 2.8.689 6.874 1.575 8.568 4.216 1.1 1.718.181 3.619-.969 5.04-2.9 3.586-7.194 5.877-10.96 8.421-1.084.732.515 1.32 1.263.814 4.132-2.791 9.094-5.367 11.953-9.6 1.13-1.674 1.675-3.706.487-5.5-1.88-2.847-6.147-3.878-9.212-4.633l-.147 1.156c5.48-2.56 9.807-7.592 13.119-12.516 3.253-4.838 6.462-11.043 5.884-17.067a8.556 8.556 0 0 0-3.986-6.6l.169.629c3-6.024 3.636-12.768.072-18.7-3.925-6.529-11.169-10.616-17.915-13.644-9.925-4.455-20.627-7.12-31.264-9.233a363.68 363.68 0 0 0-40.238-5.406c-14.666-1.239-29.383-1.864-44.1-2.06q-21.894-.291-43.78.692C101.409 54.1 88.588 55 75.828 56.432a237.4 237.4 0 0 0-28.52 4.6c-10.084 2.4-20.265 5.329-29.594 9.926C12.386 73.579 6.911 76.9 3.337 81.767A16.271 16.271 0 0 0 .031 92.5a25.541 25.541 0 0 0 3.039 9.807c.731 1.447 1.53 2.858 2.342 4.261l.255-.822c-3.438 2.33-2.562 7.994-1.732 11.361 1.993 8.085 6.917 15.421 12.243 21.682 7.5 8.815 16.662 16.069 26.223 22.523a192.882 192.882 0 0 0 27.053 15.222 197.245 197.245 0 0 0 61.016 16.926 202.047 202.047 0 0 0 66.925-3.944 222.132 222.132 0 0 0 67.509-28.13q4.2-2.607 8.287-5.383c1.083-.733-.515-1.321-1.263-.814z"/><path d="M109.479 100.1C81.072 83.334 68.547 51.945 84.5 24.91s49.483-31.248 77.89-14.487 62.33 60.777 46.379 87.811-70.883 18.623-99.29 1.866z" fill="#fff"/><path d="M110.381 99.735C98.361 92.6 88.024 82.2 82.525 69.206a48.875 48.875 0 0 1-.3-38c5.2-12.406 15.126-22.571 27.821-27.23 12.6-4.626 26.686-3.556 39.143.989 12.579 4.591 23.532 12.757 33.023 22.07 9.7 9.517 18.291 20.6 24.007 32.976 4.752 10.291 7.844 22.545 3.836 33.594-3.622 9.983-12.463 16.28-22.385 19.14-11.393 3.284-23.721 2.933-35.343 1.189a124.6 124.6 0 0 1-35.027-10.541q-3.6-1.716-7.047-3.732c-.479-.281-2.271.448-1.555.868a116.205 116.205 0 0 0 34.153 12.838c12.2 2.656 25.051 3.808 37.442 1.869 10.333-1.617 21.016-5.692 27.529-14.281 7.117-9.388 7.092-21.579 3.8-32.436-3.976-13.1-11.945-24.946-20.917-35.144-8.915-10.134-19.454-19.382-31.517-25.575C146.9 1.481 132.656-1.535 118.922.772a50.339 50.339 0 0 0-32.679 20.11 49.832 49.832 0 0 0-8.778 38.734C80.2 73.334 88.617 85.368 99.376 94.081a77.126 77.126 0 0 0 9.2 6.375c.541.32 2.235-.466 1.805-.721z"/><g fill="#fff"><path d="M117.947 13.671c-.642.029-1.275.113-1.849.2l-6.39.937a9.791 9.791 0 0 0-4.053 1.216c-1.589 1.049-2.413 2.9-3.157 4.656l-2.981 7.03a2.572 2.572 0 0 0-.167 2.4c.488.711 1.511.732 2.372.679l7.3-.448a7.107 7.107 0 0 0 3.693-.917 8.278 8.278 0 0 0 2.3-3.368 25 25 0 0 1 5.381-7.2c1.339-1.242 2.88-3.163.758-4.532a5.456 5.456 0 0 0-3.207-.653zm25.142 59.243c-15.1 2.378-12.794-6.3-12.78-17.163-.62-2.9-2.65-5.241-4.216-7.753-7.57-10.348 9.265-18.215 17.653-18.064 10.851 1.431 15.818 12.329 18.729 22.238a12.588 12.588 0 0 1-2.406 10.751 32.469 32.469 0 0 1-16.98 9.991zm41.011-3.323a33.021 33.021 0 0 0-8.453 3.625 8.819 8.819 0 0 0-2.419 12.111l5.844 8.862a10.128 10.128 0 0 0 2.036 2.47 7.514 7.514 0 0 0 4.143 1.393c6.908.514 13.272-4.828 14.965-11.348 1.4-5.381 2.283-10.37-2.832-13.861-3.52-2.404-8.705-4.766-13.284-3.252zm-71.1.165a2.258 2.258 0 0 1-.589.641 2.356 2.356 0 0 1-1.511.175 17.326 17.326 0 0 1-5-1.031 5.862 5.862 0 0 1-3.473-3.527 6.88 6.88 0 0 1 .971-5.133 1.479 1.479 0 0 1 .654-.71 1.53 1.53 0 0 1 .947.03q4.27 1.047 8.546 2.086a1.171 1.171 0 0 1 1 1.767c-.431 1.767-.859 3.538-1.293 5.3-.08.139-.166.27-.252.402zm77.469-18.607c-.683 2.414-2.535 4.667-5.01 5.056-2.543.4-5.05-1.286-6.406-3.476a19.872 19.872 0 0 1-2.232-7.34c-.211-1.285-.353-2.8.59-3.7a3.9 3.9 0 0 1 1.543-.785c2.9-.97 6.438-1.762 8.729.261a9.194 9.194 0 0 1 3.187 5.26 9.929 9.929 0 0 1-.401 4.724z"/><path d="M83.868 143.309c22.13 6.052 55.571 4.823 76.667-6.684a47.465 47.465 0 0 0 9.151-6.377 33.432 33.432 0 0 0 6.228-7.4 28.221 28.221 0 0 0 3.25-7.475A28.967 28.967 0 0 0 180 104.59c-.82-7.913-4.637-15.818-10.334-23.237a72.353 72.353 0 0 0-2.328-2.877C153.245 61.8 130.092 48.014 111.3 42.875c-31.82-8.695-63.064 4.2-71.331 34.484l-.056.2q-.531 1.983-.894 3.938c-5.419 28.577 14.49 53.527 44.849 61.812z"/></g><path d="M83.313 143.967a117.85 117.85 0 0 0 38.417 3.354c13-.857 26.373-3.462 38.033-9.48 6.486-3.347 12.562-7.9 16.577-14.088a30.16 30.16 0 0 0 4.211-22.237c-2.795-14.59-13.906-26.691-24.994-35.864a125.625 125.625 0 0 0-36.3-21.05c-11.729-4.324-24.415-6.261-36.848-4.4-11.272 1.69-22.039 6.457-30.252 14.46a51.09 51.09 0 0 0-14.846 32.319 49.268 49.268 0 0 0 8.885 32.15c6.9 9.855 16.986 17.168 28.035 21.739a77.715 77.715 0 0 0 9.082 3.1c.842.232 2.279-.994 1.111-1.315-11.585-3.192-22.58-9.023-30.97-17.726a50.168 50.168 0 0 1-14.063-29.07 50.392 50.392 0 0 1 8.5-33.65A48.925 48.925 0 0 1 74.1 43.474c11.457-3.467 23.843-3.224 35.385-.276 12.683 3.24 24.7 9.368 35.467 16.725 11.615 7.935 22.8 17.965 29.469 30.531 3.555 6.693 5.628 14.367 4.419 21.956-1.2 7.523-5.534 13.989-11.377 18.744-10.08 8.2-23.455 11.955-36.11 13.757a124.693 124.693 0 0 1-38.584-.427 90.683 90.683 0 0 1-8.343-1.832c-.844-.229-2.282.998-1.113 1.315z"/><path d="M55.225 109.178a18.5 18.5 0 0 1-1.147-1.464l-3.778-5.235a9.79 9.79 0 0 1-1.953-3.754c-.355-1.871.4-3.754 1.139-5.508l2.965-7.04c.326-.774.779-1.653 1.606-1.794.851-.146 1.579.573 2.141 1.228l4.765 5.546a7.114 7.114 0 0 1 1.917 3.287 8.274 8.274 0 0 1-.811 4 25 25 0 0 0-1.415 8.878c.043 1.826-.261 4.271-2.721 3.7a5.455 5.455 0 0 1-2.708-1.844zm79.106 25.23c-.031-2.509-1.232-5.166-3.52-6.187-2.352-1.045-5.211-.074-7.09 1.687a19.863 19.863 0 0 0-4.068 6.5c-.538 1.186-1.07 2.61-.4 3.725a3.913 3.913 0 0 0 1.286 1.161c2.544 1.691 5.757 3.378 8.495 2.023a9.2 9.2 0 0 0 4.447-4.248 9.934 9.934 0 0 0 .85-4.661zm-12.963-39.724c-7.027-9.948-10.7-3.812-16.9 2.228-2 1.255-4.466 1.4-6.771 1.9-10.115 1.421-5.263 15.407-.518 20.116 6.842 5.4 15.826 2.192 23.1-1.647a10.028 10.028 0 0 0 4.806-7.344 25.864 25.864 0 0 0-3.717-15.253zm25.962 22.963a33 33 0 0 1-3.291-8.588 8.819 8.819 0 0 1 7-10.176l10.427-1.983a10.118 10.118 0 0 1 3.19-.263 7.518 7.518 0 0 1 3.887 2c5.183 4.595 5.787 12.881 2.291 18.64-2.885 4.752-5.846 8.865-11.914 7.629-4.179-.849-9.487-2.922-11.59-7.259zM92 66.539a2.259 2.259 0 0 0 .049-.869 2.355 2.355 0 0 0-.927-1.206A17.336 17.336 0 0 0 86.9 61.6a5.862 5.862 0 0 0-4.95-.033 6.882 6.882 0 0 0-3 4.274 1.476 1.476 0 0 0-.054.964 1.536 1.536 0 0 0 .682.658l7.443 4.675a1.583 1.583 0 0 0 1.006.338c.437-.067.723-.476.959-.851.967-1.54 1.939-3.082 2.9-4.622.044-.154.077-.303.114-.464z" fill="#f52d00"/><path d="M157.593 124.746a48.216 48.216 0 0 0 19.3 33.263c25.034 18.936 57.646 10.074 77.541-16.236 10.893-14.4 20.2-36.979 22.3-57.571a72.266 72.266 0 0 0-.158-17.3c-1.4-9.934-5.325-18.443-12.652-23.982-25.034-18.936-72.635 9.747-92.53 36.057-.6.782-1.173 1.573-1.722 2.374a71.421 71.421 0 0 0-8.537 16.161c-.159.429-.317.866-.457 1.3a58.363 58.363 0 0 0-1.908 6.516 55.908 55.908 0 0 0-1.177 19.418z" fill="#fff"/><path d="M156.627 125a50.408 50.408 0 0 0 55.444 43.514c12.028-1.414 23.274-7 32.373-14.88 10.222-8.856 17.57-20.465 23.056-32.726 6.084-13.6 10.313-28.564 10.632-43.529.281-13.166-2.94-27.722-14.378-35.686-8.334-5.8-18.863-6.476-28.6-4.772-11.578 2.026-22.532 7.153-32.46 13.307a125.306 125.306 0 0 0-27.627 23c-9.928 11.166-17.15 25.025-18.577 40.05a55.819 55.819 0 0 0 .137 11.722c.1.9 2.041.428 1.932-.517-1.858-15.991 3.813-32.1 13.346-44.821a112.6 112.6 0 0 1 24.1-23.162c9.4-6.836 19.807-12.665 30.944-16.13 9.408-2.927 20-4.32 29.418-.679a28.164 28.164 0 0 1 12.477 9.546 38.9 38.9 0 0 1 6.7 17.525c2.166 14.629-1.011 30-5.867 43.8-8.337 23.682-23.928 47.537-49.334 54.86a47.9 47.9 0 0 1-33.039-2.186 48.346 48.346 0 0 1-28.75-38.751c-.107-.903-2.044-.425-1.927.515z"/><path d="M169.542 123.5a18.755 18.755 0 0 0-.015 1.86l.2 6.455a9.8 9.8 0 0 0 .745 4.166c.861 1.7 2.609 2.729 4.265 3.667l6.647 3.765a2.579 2.579 0 0 0 2.368.44c.762-.4.9-1.418.945-2.279l.388-7.3a7.115 7.115 0 0 0-.489-3.774 8.29 8.29 0 0 0-3.084-2.673 25.012 25.012 0 0 1-6.541-6.167c-1.081-1.472-2.814-3.223-4.416-1.27a5.451 5.451 0 0 0-1.013 3.11zm36.918-58.173c1.507 2.006 2.178 4.844.99 7.049-1.225 2.264-4.082 3.24-6.645 2.993a19.858 19.858 0 0 1-7.193-2.668c-1.15-.61-2.441-1.413-2.587-2.709a3.91 3.91 0 0 1 .309-1.7c.983-2.893 2.5-6.19 5.493-6.788a9.185 9.185 0 0 1 6.116.649 9.929 9.929 0 0 1 3.517 3.174zm24.808 39.954c.639 15.273-7.718 11.991-18.509 10.738-2.949.284-5.51 2.034-8.184 3.3-11.144 6.34-17.039-11.283-15.931-19.6 2.66-10.617 14.053-14.307 24.23-16.068a12.59 12.59 0 0 1 10.406 3.617 32.473 32.473 0 0 1 7.988 18.013zm1.38-41.125a33.032 33.032 0 0 0 2.637 8.811 8.818 8.818 0 0 0 11.755 3.786l9.471-4.8a10.14 10.14 0 0 0 2.687-1.74 7.522 7.522 0 0 0 1.856-3.958c1.3-6.8-3.281-13.736-9.565-16.162-5.187-2-10.043-3.452-14.095 1.232-2.794 3.23-5.728 8.112-4.746 12.831zm-7.948 70.661a2.247 2.247 0 0 1 .569.658 2.35 2.35 0 0 1 0 1.521 17.318 17.318 0 0 1-1.594 4.846 5.866 5.866 0 0 1-3.9 3.049 6.885 6.885 0 0 1-4.989-1.551 1.477 1.477 0 0 1-.63-.731 1.537 1.537 0 0 1 .137-.937q1.529-4.124 3.049-8.252a1.17 1.17 0 0 1 1.869-.794c1.706.629 3.417 1.257 5.119 1.889.125.097.245.197.37.302z" fill="#f52d00"/><path d="M152.42 193.511c41.5 0 82.951-13.243 119.877-38.3.509-.345 1.107-.735 1.762-1.161 4.28-2.785 11.443-7.447 10.783-11.285-.386-2.244-3.447-4.071-9.1-5.429l-1.314-.316 1.231-.56c7.475-3.406 17.651-16.82 18.215-26.4.216-3.664-.986-6.318-3.573-7.886l-.365-.222.327-.663a4.6 4.6 0 0 0-.192-4.592 5.176 5.176 0 0 0-4.272-2.424 4.645 4.645 0 0 0-3.2 1.322c-18.358 17.223-77.719 24.932-128.4 24.932-24.211 0-46.847-1.776-63.739-5-7.774-1.482-47.036-9.679-56.468-25.614a31.841 31.841 0 0 1-1.5-3.694c-2.07-5.55-25.867-11.839-30.355.65-2.549 7.064 1.655 14.023 4.563 19.051l.221.381-.369.241c-1.114.731-1.776 2.4-1.862 4.695-.27 7.157 5.594 24.128 29.28 42.343a195.12 195.12 0 0 0 118.45 39.931z" fill="#b1b1b1"/><path d="M284.618 91.316c-4.03 6-10.6 9.556-17.145 12.194a160.408 160.408 0 0 1-23.4 7.126c-18.376 4.3-37.32 6.338-56.118 7.691a435.911 435.911 0 0 1-57.351.516q-14.238-.854-28.383-2.8a221.056 221.056 0 0 1-27.456-5.334 138.705 138.705 0 0 1-24.089-8.864c-6.092-2.949-12.45-6.727-16.135-12.595a17.936 17.936 0 0 1-2.067-4.65c-.253-.887-2.184-.368-1.932.517 1.928 6.771 7.532 11.547 13.374 15.028a109.8 109.8 0 0 0 21.949 9.54c18.243 5.992 37.62 8.536 56.7 10.052a425.931 425.931 0 0 0 58.582.44c19.27-1.127 38.677-3.061 57.6-6.966a193.814 193.814 0 0 0 25.369-6.975c6.705-2.369 13.508-5.319 18.711-10.3a24.543 24.543 0 0 0 3.409-4.045c.684-1.018-1.121-1.306-1.616-.569zM124.679 148.5c.083-.143 2.464 1.133 6.056 2.993a84.929 84.929 0 0 0 13.547 5.844 41.584 41.584 0 0 0 7.646 1.641 34.787 34.787 0 0 0 6.824.1 45.761 45.761 0 0 0 4.9-.667c1.2-.222 1.922-.389 2.006-.405.17-.029 2.895-.553 6.89-1.583 4-.974 9.28-2.547 14.773-3.188a43.372 43.372 0 0 1 8.077-.253 27.978 27.978 0 0 1 6.913 1.329 21.4 21.4 0 0 1 4.476 2.134c.984.681 1.5 1.12 1.459 1.179a6.736 6.736 0 0 1-1.683-.785 26.932 26.932 0 0 0-4.5-1.69 29.063 29.063 0 0 0-6.722-.91 44.122 44.122 0 0 0-7.8.572 126.446 126.446 0 0 0-14.454 3.615c-3.989 1.147-6.8 1.755-6.973 1.784-.087.017-.831.173-2.084.373a46.548 46.548 0 0 1-5.135.564 36.053 36.053 0 0 1-7.2-.318 42 42 0 0 1-7.906-1.981 74.815 74.815 0 0 1-13.475-6.589c-3.484-2.111-5.707-3.639-5.635-3.759z"/><path d="M201.363 166.905c-.086.191-1.838-.735-4.675-.986a20.549 20.549 0 0 0-4.836.252 44.036 44.036 0 0 0-5.463 1.359c-3.688 1.165-7.4 2.538-10.359 3.277-1.476.382-2.768.577-3.688.728-.924.113-1.485.139-1.55.15a13.513 13.513 0 0 1-1.554.04l-1.654-.036-2.1-.2a33.4 33.4 0 0 1-10.572-3.275 32.583 32.583 0 0 1-8.738-6.466c-2.026-2.162-3.024-3.862-2.925-3.931.149-.115 1.379 1.391 3.533 3.3a35.236 35.236 0 0 0 8.813 5.659 32.871 32.871 0 0 0 10.114 2.651l1.967.113 1.537-.021a13.543 13.543 0 0 0 1.437-.081c.06-.011.579-.019 1.438-.094.853-.113 2.047-.247 3.472-.558 2.85-.593 6.574-1.794 10.4-2.789a41.272 41.272 0 0 1 5.731-1.075 19.59 19.59 0 0 1 5.111.126 12.994 12.994 0 0 1 3.426 1.106c.762.418 1.172.682 1.135.751zM38.762 125.081a5.348 5.348 0 0 1-2.472.751 23.454 23.454 0 0 1-5.7.189 26.187 26.187 0 0 1-5.7-1.141 22.014 22.014 0 0 1-2.6-.983 21.6 21.6 0 0 1-2.407-1.394 25.015 25.015 0 0 1-4.47-3.726 23.089 23.089 0 0 1-3.377-4.6c-.742-1.36-1.068-2.337-.937-2.406s.728.752 1.665 1.92a30.859 30.859 0 0 0 3.753 3.943 26.09 26.09 0 0 0 4.44 3.1 23.486 23.486 0 0 0 2.3 1.134 23.929 23.929 0 0 0 2.334 1.063 27.531 27.531 0 0 0 5.216 1.517 31.612 31.612 0 0 0 5.424.516c1.489.021 2.5-.058 2.531.117z"/><path d="M2.905 83.942c.177.091-.56 1.493-1.02 3.732a15.324 15.324 0 0 0-.285 3.852 19.492 19.492 0 0 0 .821 4.354 37.582 37.582 0 0 0 3.592 7.676c.595 1 1.137 1.927 1.486 2.447.378.559.637.887.663.926a25.172 25.172 0 0 0 2.519 3.047 22.753 22.753 0 0 0 6.74 4.855 23.494 23.494 0 0 0 4.234 1.432 33.811 33.811 0 0 0 3.873.735c2.293.3 3.849.188 3.871.358.025.136-1.531.55-3.931.515a27.252 27.252 0 0 1-4.068-.377 23.041 23.041 0 0 1-4.594-1.2 23.6 23.6 0 0 1-7.58-4.845 25.279 25.279 0 0 1-2.883-3.2c-.03-.045-.3-.408-.7-1.063-.423-.7-.86-1.539-1.441-2.63A36.664 36.664 0 0 1 .889 96.3a19.568 19.568 0 0 1-.544-4.751 14.657 14.657 0 0 1 .692-4.093 8.231 8.231 0 0 1 1.868-3.514zm54.432 42.951A6.981 6.981 0 0 1 59 127.954c1.019.716 2.39 1.842 4.22 2.942a81.314 81.314 0 0 0 13.808 7.244 106.264 106.264 0 0 0 14.933 4.919l5.161 1.177 2.147.38c.185 0 3.059.711 7.358 1.283 2.137.375 4.643.564 7.312.847 1.333.163 2.719.166 4.121.26 1.4.064 2.827.184 4.252.156l4.25.017c1.4-.022 2.775-.117 4.108-.167 2.67-.055 5.134-.4 7.262-.562 1.066-.071 2.029-.235 2.887-.35l2.226-.29a6.939 6.939 0 0 1 1.969-.124 6.808 6.808 0 0 1-1.884.569l-2.2.5c-.853.185-1.812.418-2.877.557-2.126.3-4.6.773-7.292.95-1.342.11-2.731.264-4.146.342l-4.3.144c-1.444.079-2.889.007-4.314-.011-1.424-.05-2.833-.011-4.189-.134-2.716-.205-5.27-.33-7.453-.653-4.386-.469-7.332-1.128-7.52-1.13l-2.178-.434-5.227-1.327a101.8 101.8 0 0 1-15.04-5.459 72.935 72.935 0 0 1-13.673-7.984 37.9 37.9 0 0 1-4.008-3.31c-.925-.849-1.427-1.355-1.376-1.413zm162.805 32.461c.022-.078.381-.041.994-.1a67.743 67.743 0 0 1 2.613-.285 72.617 72.617 0 0 0 7.848-1.289 64.085 64.085 0 0 0 7.679-2.19c2.083-.7 3.442-1.338 3.538-1.346s1.489-.549 3.519-1.389a66.452 66.452 0 0 0 13.748-7.976c1.739-1.3 2.871-2.215 2.991-2.089a11.153 11.153 0 0 1-2.427 2.758 50.7 50.7 0 0 1-6.337 5.07 63.078 63.078 0 0 1-7.109 4.12c-2.047.974-3.474 1.585-3.569 1.6s-1.532.61-3.72 1.223a58.033 58.033 0 0 1-8.023 1.781 51.154 51.154 0 0 1-8.1.6c-1.106-.036-2.014-.071-2.664-.136-.658-.088-1.005-.282-.981-.352z"/><path d="M211.686 175.994c.006-.177 1.312-.259 3.227-.5a39.27 39.27 0 0 0 6.879-1.576 38.349 38.349 0 0 0 6.47-2.849l1.165-.646.878-.563.824-.524c.083-.022 1.2-.735 2.8-1.837a38.529 38.529 0 0 0 5.293-4.666 32.312 32.312 0 0 0 4.208-5.63c.54-.806.839-1.553 1.137-2.042.28-.5.473-.772.547-.747s.023.352-.125.911a13.2 13.2 0 0 1-.776 2.271 26.958 26.958 0 0 1-3.784 6.274 36.452 36.452 0 0 1-5.236 5.272c-1.62 1.26-2.77 2.071-2.857 2.094l-.9.516-.958.546c-.374.194-.805.39-1.267.614a36.392 36.392 0 0 1-6.979 2.535 31.187 31.187 0 0 1-7.262.921 8.867 8.867 0 0 1-3.284-.374zM167.247 135.8c-.081-.107 1.046-1.165 3-2.424a32.324 32.324 0 0 1 7.794-3.526 34.839 34.839 0 0 1 8.583-1.406 36.333 36.333 0 0 1 4.16.109 36.613 36.613 0 0 1 4.083.8c2.333.591 5.248 1.681 8.121 2.673 1.439.492 2.877.944 4.241 1.29a27.5 27.5 0 0 0 3.767.67c2.231.208 3.741-.022 3.775.158.033.122-1.451.657-3.807.717a23.186 23.186 0 0 1-3.988-.313c-1.443-.239-2.958-.6-4.452-1-2.988-.817-5.9-1.729-8.134-2.177s-3.76-.557-3.853-.585a38.9 38.9 0 0 0-3.89-.272 35.463 35.463 0 0 0-8.2.871 37.869 37.869 0 0 0-7.776 2.753c-2.028.997-3.321 1.807-3.424 1.662zm71.142-7.237c0-.173 1.89-.213 4.68-.561a63.961 63.961 0 0 0 10.078-2.1 66.419 66.419 0 0 0 9.676-3.668c2.578-1.212 4.243-2.206 4.353-2.253s1.831-.942 4.22-2.468a44.49 44.49 0 0 0 7.964-6.465 31.216 31.216 0 0 0 5.821-8.316c1.188-2.523 1.622-4.365 1.806-4.324.119.016-.021 1.94-1 4.66a29.146 29.146 0 0 1-5.453 9.051 43.776 43.776 0 0 1-7.982 7.113c-2.422 1.686-4.191 2.657-4.3 2.721-.112.049-1.878 1.027-4.589 2.174a62.919 62.919 0 0 1-10.116 3.313 52.841 52.841 0 0 1-10.418 1.435c-2.857.083-4.748-.175-4.74-.312z"/><path d="M273.68 117.349c.3.025.323 2.8-.482 5.557a14.8 14.8 0 0 1-1.588 3.664 12.734 12.734 0 0 1-1.1 1.579 12.44 12.44 0 0 1-1.4 1.316 12.746 12.746 0 0 1-3.475 2.052 9.408 9.408 0 0 1-3.9.657 4.8 4.8 0 0 1-1.271-.227c-.3-.1-.456-.184-.446-.261.023-.183.706-.183 1.664-.386a11.069 11.069 0 0 0 3.284-1.224 12.5 12.5 0 0 0 2.755-2.147 13.09 13.09 0 0 0 1.093-1.249 13.593 13.593 0 0 0 1.08-1.268 15.166 15.166 0 0 0 1.815-3.054c1.107-2.383 1.655-5.051 1.971-5.009zM44.389 134.422a6.186 6.186 0 0 1 .975 1.578c.293.508.572 1.163 1.01 1.85l1.417 2.329a31.977 31.977 0 0 0 10.357 10.01 41.142 41.142 0 0 0 13.761 4.721c4 .679 6.8.869 6.964.905s2.937.346 7.035.734a145.255 145.255 0 0 1 14.906 1.956 53.016 53.016 0 0 1 7.724 2.183 34.192 34.192 0 0 1 6.261 3.1c.43.277.853.524 1.23.794l1.049.8.915.709c.27.234.5.468.719.67.858.82 1.318 1.309 1.265 1.366-.14.162-2.123-1.678-5.621-3.587a36.457 36.457 0 0 0-6.235-2.668 55.094 55.094 0 0 0-7.6-1.806c-5.275-.866-10.674-1.166-14.784-1.454s-6.936-.533-7.109-.563-3-.291-7.1-1.1a41.9 41.9 0 0 1-14.21-5.4 31.448 31.448 0 0 1-10.27-10.908l-1.264-2.477c-.376-.737-.6-1.425-.828-1.969a6.092 6.092 0 0 1-.567-1.773zm93.201 42.867c.1.108-.82 1.061-2.342 2.394-.834.555-1.77 1.3-2.887 1.9a22.446 22.446 0 0 1-3.654 1.626 23.806 23.806 0 0 1-3.9 1.039 17.839 17.839 0 0 1-1.859.229c-.6.044-1.161.145-1.687.13l-2.573-.042-1.052-.132a21.944 21.944 0 0 1-3.535-.821l-.785-.228-.81-.328-1.734-.716a25.159 25.159 0 0 1-3.467-2.093 17.035 17.035 0 0 1-5.06-5.476 9.068 9.068 0 0 1-1-2.229c-.184-.558-.254-.883-.181-.91s.284.242.594.723a14.156 14.156 0 0 0 1.314 1.933 18.08 18.08 0 0 0 5.215 4.637 25.465 25.465 0 0 0 3.335 1.708l1.641.559.761.258.736.167a21.97 21.97 0 0 0 3.277.586l.959.168 2.358.163c.484.044 1-.024 1.558-.031a16.915 16.915 0 0 0 1.732-.1 26.453 26.453 0 0 0 7.256-1.942c1.113-.469 2.072-1.077 2.953-1.5 1.615-1.07 2.728-1.793 2.837-1.672zm152.042-75.176c4.959 3.1 4.106 9.489 2.381 14.229a42.937 42.937 0 0 1-10.865 16.2c-2.655 2.5-5.8 4.8-9.528 5.219-.316.035-1.143.127-1.29.473-.141.331.117.4.468.36 7.147-.8 12.647-5.965 16.835-11.446 3.885-5.083 7.746-11.636 7.694-18.247a8.531 8.531 0 0 0-3.88-7.469c-.481-.3-2.125.482-1.815.676z"/><path d="M25.046 68.112c-8.25 3.226-18.02 7.542-22.8 15.494-2.876 4.785-2.681 10.246-.7 15.321a54.962 54.962 0 0 0 3.792 7.484l.227-.285c-4.175 2.83-2 10.366-.691 14.077 3.686 10.451 11.311 19.422 19.326 26.852a164.6 164.6 0 0 0 31.474 22.326 195.05 195.05 0 0 0 33.04 14.665 198.55 198.55 0 0 0 74.03 10.023 211.628 211.628 0 0 0 77.823-19.8c12.343-5.762 23.811-12.819 35.192-20.259 3.725-2.435 15.212-9.454 8.449-14.482-2.168-1.611-4.984-2.373-7.56-3.007l-.239.5a29.541 29.541 0 0 0 9.543-7.809 44.738 44.738 0 0 0 7.47-11.919c1.428-3.458 2.6-7.641 1.489-11.356a7.816 7.816 0 0 0-2.73-3.984c-.736-.562-.424-.852-.064-1.672.312-.71.6-1.432.842-2.167a20.847 20.847 0 0 0 .962-4.243c.762-6.634-2.646-12.28-7.5-16.505-.387-.336-2.108.407-1.821.656 3.3 2.873 6.1 6.423 7.1 10.763 1.045 4.531-.1 9.076-2.112 13.168a.11.11 0 0 0 .042.157c4.575 2.871 4.21 8.616 2.757 13.164a42.1 42.1 0 0 1-9.84 15.916 25.157 25.157 0 0 1-7.247 5.581c-.156.073-.669.392-.239.5 3.036.747 10.17 2.445 9.25 6.99-.662 3.268-4.334 5.764-6.854 7.556a248.166 248.166 0 0 1-30.687 18.63 208.516 208.516 0 0 1-77.04 22.423 196.859 196.859 0 0 1-72.7-7.437 192.728 192.728 0 0 1-62.108-31.566c-9.9-7.585-19.256-16.669-25.228-27.746a38.668 38.668 0 0 1-4.115-10.859c-.454-2.34-.729-5.04.186-7.311a3.8 3.8 0 0 1 1.278-1.773c.035-.024.284-.185.227-.285C4.9 101.8 2.5 97.468 2.019 92.677c-.627-6.251 2.763-11.489 7.45-15.328 4.778-3.914 10.53-6.571 16.243-8.805 1.277-.5.072-.721-.666-.432z"/></svg></g><g transform="translate(891.0 128.0) rotate(-24.79911871328431 34.0 24.5) scale(0.8905885742724677 0.9030427010191482)"><svg width="76.354" height="54.261" viewBox="0 0 76.354 54.261"><path d="M0 13.191c-.02-.208 3.756-.6 9.1 1.16a35.906 35.906 0 0 1 8.532 4.249 47.214 47.214 0 0 1 8.311 7.138 66.9 66.9 0 0 1 6.846 8.566c1.021 1.43 1.885 2.886 2.743 4.253.43.663.82 1.406 1.164 1.995a1.2 1.2 0 0 0 .124.134c.06.059.091.069.107.053a.758.758 0 0 0-.007-.2c-.013-.092-.027-.087-.026-.093l.015-.02.009-.012.105-.4a10.034 10.034 0 0 1 .333-1.127l1.028-2.927c.408-1.114.991-2.306 1.557-3.627a65.444 65.444 0 0 1 11.72-16.949A60.972 60.972 0 0 1 67.74 3.09C72.666.565 76.287-.193 76.351.04c.125.355-3.245 1.667-7.736 4.567a66.58 66.58 0 0 0-14.587 12.911 64.746 64.746 0 0 0-10.3 16.515c-.471 1.246-.972 2.37-1.3 3.406s-.6 1.952-.84 2.712a8.71 8.71 0 0 0-.266 1.035l-.288 1.248-.366 1.56c-.033.1-.119.745-.285 1.785-.081.5-.178 1.207-.293 1.822s-.243 1.341-.386 2.132-.3 1.644-.467 2.576l-.261 1.437-.068.374-.017.094-.009.047-.021-.039-.092-.191-.374-.779-3.319-6.921-.926-1.916-.973-1.852c-.376-.714-.669-1.351-1.069-2.031-.764-1.342-1.53-2.781-2.439-4.188a67.242 67.242 0 0 0-6.09-8.481 47.428 47.428 0 0 0-7.411-7.219 37.848 37.848 0 0 0-7.691-4.658C3.621 13.829-.045 13.6 0 13.191z"/></svg></g><g transform="translate(778.0 188.0) rotate(0.0 44.0 30.0) scale(1.879217562142308 1.8759379689844922)"><svg width="46.828" height="31.984" viewBox="0 0 46.828 31.984"><path d="M.01.052c.111-.246 2.173.366 4.874 2.109a38.65 38.65 0 0 1 8.616 7.964 48.506 48.506 0 0 1 6.366 10.1c.172.382.353.739.495 1.1l.211.525c.047.121.036.084.043.095l.011.008c.03.018.047.015.06 0a.1.1 0 0 0 .029-.056v.021c0 .028-.013.076.026.09a.086.086 0 0 0 .04 0l.026-.008c.033-.033-.076.085.035-.024l.2-.2c.548-.525 1.133-1.1 1.793-1.647a59.432 59.432 0 0 1 9.456-6.6 48.785 48.785 0 0 1 9.789-4.348 17.931 17.931 0 0 1 3.407-.681c.851-.027 1.321.027 1.341.172s-.409.376-1.144.661c-.732.325-1.77.777-3 1.392a70.38 70.38 0 0 0-8.761 5.375 64.9 64.9 0 0 0-8.344 6.979c-.571.546-1.051 1.1-1.5 1.6l-.493.539c-.216.248-.424.547-.63.815l-1.176 1.566c-1.5 1.982-2.548 3.546-3.171 4.389-.114-.494-.18-.781-.2-.844l-.709-3.436c-.234-1.017-.45-2.341-.837-3.55l-.287-.842-.152-.473c-.1-.325-.245-.659-.374-1.011a50.039 50.039 0 0 0-5.1-9.816 47.088 47.088 0 0 0-7.13-8.47C1.588 1.487-.146.364.01.052z"/></svg></g></svg>