<svg xmlns="http://www.w3.org/2000/svg" viewBox="0 0 1000 1000" width="1000" height="1000"><g transform="translate(491.0 533.0) rotate(0.0 55.5 8.0) scale(0.6124577211055138 0.631338042062897)"><svg width="181.237" height="25.343" viewBox="0 0 181.237 25.343"><path d="M81.645 20.138c40.637 0 40.637 5.2 81.272 5.2 7.264 0 13.189-.171 18.32-.445-10.833-3.514-38.979-13.089-45.175-14.169-8.907-1.555-17.544 3.254-26.282 2.807-10.936-.561-19.547-5.829-29.827-9.261C48.952-6.067 24.683 3.1 0 23.785a14.521 14.521 0 0 0 3.7 1.24c37.286-3.704 38.4-4.887 77.945-4.887z" fill="#36f"/></svg></g><g transform="translate(31.0 273.0) rotate(0.0 465.0 342.5) scale(0.9998924846790668 0.9978150036416606)"><svg width="930.1" height="686.5" viewBox="0 0 930.1 686.5"><path d="M878.9 676.3H61.3c-30.4-44.1-47.4-102.7-46-181.7 0 0 205-23.4 454.8-23.4 211.4 0 454.8 23.4 454.8 23.4 1.4 76.2-13.7 137-46 181.7z" fill="#36f"/><path d="M789.6 629.3H144.5c-23.9-34.8-37.4-81-36.3-143.4 0 0 161.7-18.5 358.9-18.5 166.8 0 358.9 18.5 358.9 18.5 1 60.2-10.9 108.2-36.4 143.4z" fill="#006"/><path d="M802.1 572.5H126.3L12.7 685.1h903z" fill="#006"/><g fill="#fff"><path d="M391.3 572.5h-62.9l-46.4 114h84.2zm-210.4 0H118L0 686.5h84.3zm70.1 0h-62.9L94 686.5h84.2zm70.2 0h-62.9l-70.3 114h84.2zm140.2 0h-62.8l-22.7 114h84.3zm70.2 0h-62.9l1.2 114h84.3zm70.1 0h-62.9l25.1 114h84.3zm70.2 0H609l48.9 114h84.3zm70.1 0h-62.9l72.8 114h84.2zm70.2 0h-62.9l96.6 114h84.2z"/></g><path d="M677.9 554.5h23.7c53.8 0 97.5 43.7 97.5 97.5l-188-3.3-9.2 7h-21.5V652c0-53.8 43.7-97.5 97.5-97.5zM364.522 15.288l10.337-3.762 69.05 189.725-10.337 3.762z" fill="#006"/><path d="m311.9 357.7-8.4-7 131.8-157.1 202 35.6-2 10.8-195.6-34.5z" fill="#006"/><path d="M445.9 404.2c-111.4 0-202.1-90.7-202.1-202.1S334.5 0 445.9 0 648 90.7 648 202.1s-90.6 202.1-202.1 202.1zm0-393.2c-105.4 0-191.1 85.7-191.1 191.1s85.7 191.1 191.1 191.1S637 307.5 637 202.1 551.3 11 445.9 11z" fill="#006"/><path d="M437.2 404.3c-111.4 0-202.1-90.7-202.1-202.1S325.8 0 437.2 0s202.1 90.7 202.1 202.1-90.6 202.2-202.1 202.2zm0-393.3c-105.4 0-191.1 85.7-191.1 191.1s85.7 191.1 191.1 191.1 191.1-85.7 191.1-191.1S542.6 11 437.2 11z" fill="#36f"/><path d="M431.9 210.5c-2.3 0-4.4-1.4-5.2-3.6L362.2 29.6c-1-2.9.4-6 3.3-7.1 2.9-1 6 .4 7.1 3.3L437 203.2c1 2.9-.4 6-3.3 7.1-.6.1-1.2.2-1.8.2z" fill="#36f"/><path d="M310.9 346.2c-3 0-5.5-2.5-5.5-5.5 0-1.3.5-2.5 1.3-3.5l115.8-138.6 204.9 35.6c3 .5 5 3.4 4.5 6.4s-3.4 5-6.4 4.5l-198.6-34.5-111.8 133.6c-1.1 1.2-2.6 2-4.2 2z" fill="#36f"/><circle cx="437.3" cy="214.4" fill="#006" r="45"/><path d="M754.8 605.3H626.9l-235.3-364c-16-25-8.7-58.2 16.2-74.2 24.8-15.9 57.9-8.8 74 15.9zm-118.1-18h85.1l-255-394.5c-10.7-16.6-32.8-21.3-49.4-10.6S396 215 406.7 231.6z" fill="#006"/><path d="M699.5 554.5h23.7c53.8 0 97.5 43.7 97.5 97.5v3.7H602V652c0-53.8 43.6-97.5 97.5-97.5z" fill="#36f"/><path d="m501.6 382 5.2-1.7s-3.2 2.7.5 6.8c3.2 3.6 7.7 2.3 7.7 2.3l-7.2 4.4zm77.8-52.4s-.8 4.8 3 7c5 2.8 7.7-1.6 7.7-1.6l-9.4 12.8-6.1-12.8z" fill="#006"/></svg></g><g transform="translate(106.0 113.0) rotate(0.0 91.0 393.5) scale(1.0022026431718063 1.0019096117122852)"><svg width="181.6" height="785.5" viewBox="0 0 181.6 785.5"><path d="M164.5 198.6c-.7 13.9 0 29-.2 43.1-.1 7.8-7.3 101.5-4 122.8-2.2 1.1-28-25.4-33.6-25.2 5.8-10.8 2.7-92.1 3.6-104.2 1.5-19.6.3-39.4-3.6-58.7 13.2-2.8 26.6-15.9 40.2-15.6.2 1.2-1.9 27.8-2.4 37.8zm-23.6 564c8.4 13.7 9.5 19.5-.5 21.4-6.1.9-12.2 1.4-18.4 1.5-10.6-.3-20.3-.3-26.5-.5-13.9-.5-13.9-7.9-14.3-22.1-.1-4.8 1.4-9.7 3.1-14.2 3.4-8.7 11.1-8.8 19.4-8.5 10 .4 9.8 0 19.2 2.8 1.9.6 8.2-4.5 13.4 8.5.1.4 2.4 7.5 4.6 11.1z" fill="#36f"/><path d="M163 726.3c3.8 1.4 17.5 5.8 17.6 10.8.1 4.8-6.1 8.4-15.6 8.8-10.5.5-33.9-1.4-44.4-2.3-13-1.2-32.8-4.1-22.5-23.8 2.7-5.2 2.6-5.4 8.4-5.4 6.7 0 13.8 2.2 20.4 3.4 8.4 1.6 16.6 4.2 24.7 6 3.9.8 8.2 5.7 11.4 2.5z" fill="#36f"/><path d="M163.2 739.4c-6.9 2.6-15.1 3.1-24.2 2.9-4.6-.1-9.4-.3-14.3-.6-8.6-.5-17.5-1-26.3-.8-3.3-11.7-5-28.7-3.6-41.1 11.9-1 14.6 14.6 25.9 6.7 6.5 3.6 15.2 6.1 23.8 9.8 2.2.9 4.3 1.9 6.5 2.9 1.8.9 3.6 1.7 5.3 2.6 12.9 6.1 23.9 11.2 6.9 17.6z" fill="#fff"/><path d="M156.4 721.8c-8.6 3.3-15.3 12.8-17.4 20.5-.2.6-.3 1.1-.4 1.6-7.3.3-10.5-.7-13.9-2.2-1-.5-2.1-1-3.3-1.5 6.6-11.1 13.2-17 23.2-23.8 2.2.9 4.3 1.9 6.5 2.9 1.7.8 3.6 1.7 5.3 2.5z" fill="#36f"/><path d="M125.5 700.9c.1 21 1.7 37.1 3.8 45.7 3.4 13.5 8.2 13.7 10.9 23.4 4.5 16.2-42.1 8.5-50.6-2-14.1-13-2.2-39.9-1.7-58.8 15.1-.4 26 .9 35.6-13-1.7 5.4.5.4 2 4.7z" fill="#fff"/><path d="M135.2 756.4c-5.1-2.3-8.8-4.5-14.8-3.7-11.7 1.6-27.1 6.4-34.8 15.7-2.1-4.7-4.8-12.6-2.9-17.6 2.9-7.7 14.5-9.1 21.4-10.6 5.1-1.2 10.3-1.3 15.4-.4 2.7.5 7.9 1.2 10.2 2.7 2.9 2 5.9 10.8 7.4 14.5-.1.3-1.5-.2-1.9-.6z" fill="#36f"/><g fill="#006"><path d="M153.5 286c1.4.9 23.9 206.1 27.7 245.1 2.3 23.1-12 28.3-22.1 47.6-26.5 50.4-25.2 94.7-49.4 145.7-11.8-3.8-24.7 7.5-36 2.7 7.4-18.7 11.2-40.2 13.7-60 1.7-14 .7-28.4 1.2-42.7.7-21.4 5.3-42.3 6-63.7 1.1-35.8-1.6-71.2-1.5-107 .1-30.3-4-124.2-13.1-152.8 16.6-.8 65.9 7.5 73.5-14.9z"/><path d="M22.9 469.3c9.1 38.9 8.7 46.6 21.6 119 8.2 45.9 14.7 71.3 17.1 118.1.4 7.3 1.5 12 2 26.6 19.5 1.5 52.3 2.2 64-1.6-2.2-17.5-5.1-25.1-4.5-42.9.9-26.7-.1-53.6-.1-80.4 0-37.9-4.1-75.6-4-113.5.1-16.2.9-33.8-.2-49.8-11.7 3.2-24.8 1.3-37.2 1.8-11.5.5-23.4 2-35 1.1-13.9-1.1-25.9 12.3-23.7 21.6z"/><path d="M159 357.7c-.7 10.3 2.2 21.7 3 31.9 2.9 37.4 9.3 72 15 109.1 3.3 21.2 7.9 44.2 1 65-4 12-24 47.8-30 63-7.8 19.9-8 39.7-14 60-2.1 7.1-5 23.9-5 23.9s-33.3-4.2-48.9-6.3c6.7-23.4 2.6-48.5 4.9-72.5 3.8-41.1 3-82.5 4.3-123.7 1.2-37.8-1.6-76.9-4-114.7-1-15 2.6-32.5-1.3-47 22.5.9 41.8 8.4 63.1 14 6.3 1.8 8.7 4.1 11.9-2.7z"/><path d="M25 324.9c-18.7 31.6-14.1 58-12.8 92.1 1 25.4 54.3 227.2 64.8 227.7 12.8.6 19.9 1.2 24.5-11.5 9.2-25 7-57.7 6.1-84.2-1.2-37.9 2.4-74.6 5.1-112 1.7-23.1-.1-46.7-1-69.9-.5-12.4.7-42.3-3-53.8-26.9 5.7-45.2-7-71.9-5-.2-2.1-14 17.6-11.8 16.6z"/></g><path d="M28 184.7c-4.8 8.6 3.4 27.5 4.1 37.5.9 15.1 15 27 17.7 41.9 2.2 12.2-7.1 36.4-7.2 48.5 0 4.9-1.4 2.5-1.4 2.5s43 7.1 51.6 8c20.8 2.1 45.6-4.5 65.9-5.6-2.3-20.8-5.6-37.8-5.6-60 0-13.7 16.5-27.2 18.3-40.7 1.6-11.7-16.7-23.5-15.7-35.2-11.2 2.6-21.7 6.4-33.8 7.6-14.8 1.5-29.2-.8-43.9.5-6 .8-54.4 5.9-50-5z" fill="#36f"/><path d="m169.3 137.5-5.2 62.3H11L.4 140.3C-2 126.8 7 113.9 20.5 111.5c1.5-.3 2.9-.4 4.4-.4 1.6 0 3.1 2.2 4.6 2.5L93 128.7l45.3-13.6c4.6-1.2 9.4-4 13.9-2.5 10.7 3.5 17.7 13.7 17.1 24.9z" fill="#36f"/><path d="M73.6 87.1h40.5v40.5H73.6z" fill="#fff"/><path d="M121 0c1.1-.2 23.4 26 24.4 42.7.9 14.6-2.7 20.3-7.7 29.5-6.9-.3-18.6-15.6-24-19.9-7.1-5.7-16.3-12.7-15.1-22.3 1.7-13.9 13.3-27.2 22.4-30z" fill="#006"/><path d="M111.3 10.1c10 1.5 18.8 7.1 21.6 12.4 2 3.9 2.4 10.1 3 14.8.2 1.6-1.7 3.4-1.4 4.9.8 4.3-.2 5 2.9 6.8 1.9 1.1 1.6 2.5.6 4.4-.7 1.3-.2.5-.5 1.7-2.2 7.1.4 11.7-.3 21.2-1.5 22.1-21.9 10.6-36.1 9.3-7.8-.8-15.6-.5-23.4.7-20.7 3.4-25.6-11.1-27-32.9-2-31.6 10.6-37.9 40.5-45.2 8 .5 12.2.7 20.1 1.9z" fill="#36f"/><path d="M142.7 54.9c-.5 1.2-2.4 2.3-3.6 3-.6.3-.9 1-.7 1.7.4 1.4.8 2.8 1.3 4.1 1.1 2.7-.9-2.2-3 16.6-3 .6-5.8 0-8.7-.8-4.6-1.2-24-5.7-27.8-8.6-4.9-3.8-9.4-17.9.6-22.5 2.4-1.1 8.5 2.7 15.2 4.8l1.4.3c6.3.5 4.8.1 10.4-12 .6-1.4-.6-.9.2-2.6.4-.9 5.9-1.7 6.9 1.5.1.3.2.5.2.8.8 2 1.7 3.9 2.9 5.7 2.7 4.1 5.2 6.8 4.7 8z" fill="#fff"/><path d="M99.3 42.6c-22.4-19.8-20 15.4.6 16.7 1-5.5.8-11.2-.6-16.7zm20.1 42.9c17.3 9.4 19.3-.3 19.1-13.6 0-1.2 1.3-.9.9-3.6-.2-1-.5-1.2-.5-1.2s-.2-3.2-.4-4.4c-1.6 1.4-23.7 1.5-34.2-3.7-3.8 6.8-2.2 12.3 15.1 26.5z" fill="#fff"/><path d="M138.3 71.7v.2c-.4.3-.7.7-.9 1.2-.1 0-.2 0-.3.1-1.1.1-2.2 0-3.2-.4-.4-.1-1.7-.6-1.7-1.1 1.9.3 4 .4 6.1 0zm-2.8-7.3c.5-.2 1.1-.3 1.7-.1l1.5.5 1.2-.5c.5 1-.6 2.8-1.2 3.2-.1 0-.6.3-.7.3-.4.1-.7 0-1-.2l-.4-.2c-.4-.1-.7-.1-1.1-.1l-5.9.9c-.8.1-1.6-.1-2.2-.7 0 0-.4-.3-.3-.4.1-.2 1.3.1 1.7.1.7.1 1.3-.1 1.9-.4zm.6-6.7c.6-.4 1-.8.9-1-.1-.3-.9-.1-1.8.4-.4.2-.8.5-1.2.8z" fill="#006"/><path d="M138 46.8c-1.5 3.9-3.6 7.7-8.1 9.2-1.9.6-4-.2-8.6-.4-2.3 0-4.5-.9-6.1-2.6-1.4-1.5-2.5-3.7-4.1-6 4.3-2.7 10.7-4.5 16.6-5.6 2.6-.5 5-.8 7.1-1.1.1.3.2.5.2.8.9 2 1.9 3.9 3 5.7z" fill="#36f"/><path d="m140.5 43.7-9.5-.6.3-4.8 9.5.5z" fill="#006"/><path d="m122.5 34.2-14.4 2.4.6 7.7c.5 7.3 6.8 12.9 14.1 12.4.3 0 .6 0 .9-.1l2.6-.4c5.6-.9 9.6-5.9 9.1-11.6v-.2c-.4-6.1-5.7-10.8-11.9-10.4-.3.1-.6.2-1 .2z" fill="#006"/><path d="M116.9 41.7 81 46.9l-.8-6.3 35.9-5.3z" fill="#006"/><path d="M112.9 41.1c1-1.4 3.4-2.5 4.6-3.2-.3 5.4 1.6 11.5 4.3 16.2-4.7.6-11.7-9-8.9-13zm39.4 71.5c-1.7 8.8-3.7 17.8-8.2 25.2-8.7 14.3-19.7 22.4-34.8 25.2-1.7.3-11.4-2.5-13.2-2.3-7.5.8-7.1 3.3-14.4 1.4a58.9 58.9 0 0 1-20.4-10.4c-11-8.4-19.5-18.2-28.2-28.8-1.9-2.3-4.9-6.9-8.1-11.9 1.6 0 3.1.2 4.6.5L93 123.7l45.3-11.6c4.6-1.2 9.4-1 14 .5z" fill="#fff"/><path d="M116.4 101.5c-.6 1.8-2.3 6.1-2.3 8.1v7.6s-10.3-1-12.9-1.8c-9.8-2.8-29.1-9.6-28.5-21.6.1-1.3 1-3.8.9-5 9.4 3.3 21.6 6.7 31 9.9 1.9.6 10.2 3.4 11.8 2.8z" fill="#36f"/><path d="M121.1 0c-3.7 4-21.2 39-20.1 48.7.4 3.1 2.4 5.5 4.1 7.9 9 13.1 10 20.4 24 28.1 3.7 1.5 8.9.7 6.2 1.6-8.9 2.7-22.2 6.2-31.5 8.2-9.7 2-12.3 5.3-27.9.3-4.8-1.6-11.4-5.3-16-7.9-6.5-3.7-15.6-6.3-20.1-12.5-5.5-7.7-3.9-13.1-.3-20.9 1.8-3.9 11.6-21.2 16.3-28.9 3.4-5.6 4.9-8.8 10.8-11.4C74 10 90.2 6.4 95.7 5.9c8.5-.6 25.9-6.3 25.4-5.9z" fill="#006"/><path d="M131.2 86.6c-5-3.4-15.1 1.1-20.8 2.4-9.4 2.1-23.3 4.5-32.7 6.6 8.1 8 31.9 10.8 42.8 10.5 8.5-.2 4.8-8.2 12.1-16.1 1.2-1.6 2.4-1.8 3.8-4.1z" fill="#006"/><path d="M78.7 93.4c-2.9-7.3-43.5.3-38.9 13.7 12.9 1 28.6-3.5 37.1-13.4-7.7 12.8-16.4 27.1-11.2 42.5 13.8-5.5 17.2-32.4 13-42.8zm21.2 65.8c3.3.9 6.1 2.6 9.2 3.9-1.7.3-3.4.5-5.2.7-7.5.8-15.1.3-22.4-1.6 2.8-.6 5.5-1.2 8.3-1.9 3.4-.9 6.8-2 10.1-1.1z" fill="#006"/><path d="M15 342.7c1.8 34.1 11.1 70.5 12.2 105.9 5.8-5 10.5-11.7 17.8-15.2 5.4-2.6 10.4-1.9 14.9-6.8-3.6-8.2-2.3-16.7-4.7-25-2.3-8.1-9.9-13.9-12.5-22-4.3-13.6-.9-32.8-.2-47.2.9-16.5-28.3-4.8-27.5 10.3z" fill="#fff"/><path d="M7 156.7c3.4 9.2 2.5 24 3 34.1.7 13.9.9 29.1 1 43.2.1 7.8 1.2 14.1 4 36.8.3 2.5 13.7-2.6 17-2.3 5.7.5 7.2-2.4 12.8-2.2-5.8-10.8 1.2-26.9.3-39-1.5-19.6-.3-39.4 3.6-58.7-13.2-2.8-28-11.9-41.5-11.6-.3 1.3-.6-1.4-.2-.3z" fill="#36f"/><path d="M9.5 263c-6.9 42.5 4.9 87.5 11.1 128 8-5.1 13.7-6.9 22.5-10.5-5.7-18.7 5-48.8 4.7-67.9-.4-26.1-3.3-53.7-4.4-80.6-9.6 3.8-21.8-19-31.8-21.9-1.5 5 2.3 26.3-2.1 52.9z" fill="#36f"/><path d="M27.1 425.3c1.4.6 24.5-12.8 29.5-19.6-8.1-5.4-23.6 9.6-32.4 12 .4 3.1 1.1 4.8 2.9 7.6z" fill="none"/><path d="M64.6 350.4c1.7 16.8-.7 36.4-12 51-7.9 10.3-18.5 17.2-27.1 25.9-15.3 15.4-.1 22.6.7 51.1 17.1-9.7 32.7-12.1 50.2-18.7 1.7-33-4.2-72.5-10.9-104.5.8-1.2-2.5-5.8-.9-4.8z" fill="#006"/><path d="M31.8 357.3c1.4.6 24.5-12.8 29.5-19.6-8.1-5.4-23.6 9.6-32.4 12 .4 3.1 1.1 4.8 2.9 7.6zm2.9 189.4c-3.1-1.8-1.8-5 1-8" fill="none"/></svg></g><g transform="translate(100.0 101.0) rotate(0.0 290.5 421.0) scale(1.001385738612469 1.001454606869598)"><svg width="580.196" height="840.777" viewBox="0 0 580.196 840.777"><path d="M137.163 179.838c-3.8 6.486-4.436 12.185-5.962 20.812-2.673 15.114 2.1 27.679.595 42.625-1.681 16.681-26.657 54.685-17.939 85.859 2.312 8.27 10.549 16.695 20.1 17.248 10.167.589 16.806-9.95 21.589-17.284 10.826-16.6 12.723-24.845 18.705-43.425 3.671-11.4 3.945-30.4 4.435-40.026.737-14.449 10.524-26.663 12.667-41.032 4.237-28.407-41.095-47.115-54.19-24.777z" fill="#006"/><path d="M189.8 275.092c-26.769-21.732-106.071 31.11-69.23 62.191 21.213 17.9 43.594 6.921 56.485-9.573 6.134-7.849 12.771-20.144 16.707-28.928 1.322-2.949 3.626-8.488 3.6-11.54-.028-3.326-5.381-8.558-4.007-11.59.891-.452-4.44-.113-3.555-.56zM83.175 754.175l-6.155 12.238a38.779 38.779 0 0 1-7.893 10.652l-15.108 14.4 5.531-13.5a13.6 13.6 0 0 0-6.665-17.4l-5.088-2.01a13.6 13.6 0 0 0-17.022 4.384 8.3 8.3 0 0 0-1.144 2.391l-3.675 12.081-1.536 2.839-.154-.078-10.129 16.81a19.48 19.48 0 0 1-4.327 5.826l-1.687 1.963-2.293 2.159c-1.513 1.423-2.263.266-3.206 2.05a28.71 28.71 0 0 0-1.489 4.466A21.429 21.429 0 0 0 .379 824.3a18.591 18.591 0 0 0 9.879 12.8l.723.362a31.408 31.408 0 0 0 32.742-2.855l4.574-3.388a18.588 18.588 0 0 0 7.487-13.741l.833-12.879 1.411-2.919 18.813-21.78c3.1-3.763 4.5-8.973 5.3-13.782l2.309-11.507a.679.679 0 0 0-1.275-.436z" fill="#006"/><path d="M149.19 501.344c-8.894 17.416-8.629 33.334-16.91 44.38-11.941 15.927-26.782 31.54-34.981 51.013-11.66 27.692-10.2 29.15-27.692 91.094-3.217 11.391-.886 8.055-18.219 48.1C47.7 744.446 25.653 779.5 23.7 788.4a158.183 158.183 0 0 1 25.279 9.084c7.794 3.761 7.288 3.189 12.534-3.891a106.3 106.3 0 0 0 12.838-22.61c6.655-15.667 11.3-23.817 18.581-37.24 25.436-46.867 41.4-54.875 59.029-86.722 10.5-18.956 12.327-39.109 18.948-61.216 2.876-9.6 11.492-25.109 16.032-34.251 10.234-20.605 23.785-36.833 34.726-57.219-11.526-1.961-23.113.059-34.561.014-12.577-.048-17.314-11.63-30.094-10.984 1.523 2.881-7.219 15.421-9.4 18.761.288 1.054.296-.77 1.578-.782z" fill="#fff"/><path d="M143.526 512.524c3.127 13.288 28.835 44.86 28.835 44.86s8.989-2.159 13.118-4.373c5.83-11.66 12.607-19.574 19.676-32.794-17.041-8.606-40.241-12.7-57.392-19.552-1.114 4.119-.863 4.835-4.237 11.859z" fill="#006"/><path d="M327.607 467.661c-.958 18.568-3.457 37.417-4.4 55.5-.836 16.072-2.129 19.572-9.617 34.533-11.743 23.46-13.859 47.5-19.529 73.3-5.985 27.227-15.006 59.342-19.95 87.126-2.211 12.428-6.7 28.223-8.472 40.407-2.4 16.455 9.335 26.858 18.893 40.4-13.347-.458-26.54 4.687-40.14 3.3-13.931-1.416-21.505-2.64-35.851.867 3.9-27.807 14.493-25.367 15.559-51.856 1.108-27.538 2.972-75.332 5.725-103.581 2.821-28.942 5.5-55.994 19.665-82.49 13.987-26.172 8.1-49.852 8.112-78 .006-14.852-.6-30.417.907-45.07 11.514-5.509 72.981-5.4 77.523 7.572" fill="#fff"/><path d="M262.128 541.3c25.419-.089 32.454 12.417 51.851 14.7 12.254-4.876 7.706-23.9 6.1-34.118-21.605.66-42.206-5.27-63.915-4.569 2.248 7.619 4.404 22.656 5.964 23.987z" fill="#006"/><path d="M200.212 338.668c-.871.988-6.711 15.724-9.333 22.165-3 7.372-9.16 14.508-10.313 22.833-.665 4.8 5.941 7.38 4.636 13.5-.933 4.376-5.615 10.581-7.489 15-3.683 8.684-6.271 18-9.416 27-3.951 11.306-7.96 22.685-11.543 34.135-2.773 8.862-14.015 39.177-14.015 39.177l37.6 26.719s28.44 5.351 35.288 8.264c5.895-14 8.354-23.235 13.289-32.83 14.07-27.359 20.888-49.831 30.887-75.559 7.774-20 12.74-29.572 12.067-50.647-.613-19.151-.246-38.168-1.359-57.021-21.832-1.88-50.744 2.083-71.8 7.3 3.004-.068-1.498-.079 1.501-.036z" fill="#36f"/><path d="M342.705 347.667c4.565 24.847-4.445 55.388-6 81-2.206 36.329-1.1 72.8-3.227 109.268-28.839-.166-60.552-6.224-90.84-10.143.357-43.473 1.2-65.627 2.905-100.843 1.036-21.341 1.943-42.824 1.084-64.073-.379-9.361 2.454-19.735-3.975-27.418C261.927 346 294.272 348.44 315.9 350.7c8.384.875 20.531 1.331 28.19-1.829-4.45 3.117 3.089-4.282-1.385-1.204z" fill="#36f"/><path d="M335.616 288.047c4.171 12.1 3.912 29.013 6.2 42.708 1.786 10.695 5.084 23.2 3.646 34.164-26.8-3.867-71.2 4.322-71.2 4.322s-3.107 11.252-6.671 11.583c-18.342 1.7-27.723-1.422-39.971-4.777-15.054-4.124-26.835-4.461-44.123-11.8-.877-59.2-16.9-144.261-19.877-156.2 15.744 3.254 50.73 63.808 66.611 64.925 23.306 1.64 46.586 6.25 69.7 9.1 8.324 1.02 29.584 10.091 35.685 5.975z" fill="#006"/><circle cx="262.203" cy="793.436" fill="#006" r="11.781"/><path d="M339.774 816.491a1.446 1.446 0 0 1-1.261 1.435c-1.974.253-5.726.706-7.271.7-29.245-.072-111.155-.011-123.042 0a1.445 1.445 0 0 1-1.446-1.447v-6.889h133.02z" fill="#006"/><path d="m211.661 785.434-1.8 5.977a77.766 77.766 0 0 0-3.3 21.417s120.525.071 123.061 0a36.74 36.74 0 0 0 10.15-1.45v-3.314a9.081 9.081 0 0 0-7.772-8.989c-5.438-.786-12.268-1.866-15.42-2.74-9.114-2.524-26.932-9.294-35.16-13.955-4.512-2.555-16.475-12.6-16.475-12.6a2.893 2.893 0 0 0-3.8.252l-.513.513a22.456 22.456 0 0 0-5.2 8.136l-.8 2.163a2.894 2.894 0 0 0 1.043 3.358l13.822 9.8a1.258 1.258 0 0 1-1.143 2.215c-6.1-2.135-13.85-4.8-17.566-5.859-5.77-1.649-17.47-4.4-23.38-5.438-3.132-.551-12.628-1.521-12.628-1.521a2.892 2.892 0 0 0-3.119 2.035z" fill="#36f"/><path d="m326.206 469.161 1.5-4.5" fill="none"/><path d="M199.616 330.047h140v-212a18.39 18.39 0 0 0-21.654-18.1l-86.024 15.513-73.563 39.577a48.011 48.011 0 0 0-19.274 65.5z" fill="#006"/><path d="m252.136 75.317-.23 26.43-.12 13.35a21.724 21.724 0 0 1-21.91 21.52l-21.7-.19a10.352 10.352 0 0 1-10.26-10.44l.45-51.15z" fill="#fff"/><path d="m200 69.232 19.7-2.587 4.347 22.088 4.444 15.658 35.168 8.942a8.45 8.45 0 0 0 10.141-10.751l-1.244-3.916.26-.272h.006l2.346-2.42-.195-.325-1.531-2.595.593-.463L277.5 89.9l-2.541-8 6.888-2.188a1.867 1.867 0 0 0 1.108-2.609L273.53 58.08l.786-4.457a6 6 0 0 0-.2-2.9l-9.856-30.239-8.051-5.184-21.4-10.273-36.586 11.624L187.414 34.9a30.1 30.1 0 0 0-2.714 24.509l.01.04A14.1 14.1 0 0 0 200 69.232z" fill="#fff"/><path d="m183.4 55.548 14.6 45.365 10.125.273c5.26.142 9.871-3.882 9.74-8.5l-.588-20.768-2.715-30.341z" fill="#006"/><path d="m214.035 61.532 6.491-.758 7.337 23.1-2.583.82a11.33 11.33 0 0 1-13.912-6.5l-2.937-7.156a6.927 6.927 0 0 1 5.604-9.506z" fill="#fff"/><g fill="#006"><path d="M275.81 80.348c.481-.687.672-1.308.428-1.54-.327-.311-1.306.19-2.188 1.119a5.029 5.029 0 0 0-.967 1.385zm-8.21-30.429-16.927-1.795c-2.761-.639-6.142-.167-8.065 1.922l-1.689 1.834-.549-.7 1.073-1.095c3.295-3.363 6.729-4.053 12.64-4.279l8.787-.681a5.528 5.528 0 0 1 4.564 4.135zm-3.013 5.457c-2.485-.94-7.012 4.1-10.9 7.768l.015 1.325c4.892-3.677 9.306-7.148 10.91-6.9 1.2.182.742 1.047 1.719 1.538 0-.007-.34-3.199-1.744-3.731z"/><path d="m265.282 61.842-2.874.593a4.8 4.8 0 0 1-1.338-2.555c-.408-1.975.253-3.78 1.475-4.032s2.544 1.143 2.952 3.117a4.808 4.808 0 0 1-.215 2.877z"/></g><path d="m219.7 66.645 6.347 22.088 15.924 7.774 32.99-14.607 6.888-2.188a1.867 1.867 0 0 0 1.108-2.609l-9.425-19.023.786-4.457a6 6 0 0 0-.2-2.9l-9.858-30.239-8.051-5.184-21.4-10.273-36.586 11.624L187.414 34.9c-4.389 7.411 32.286 31.745 32.286 31.745z" fill="#36f"/><path d="m268.845 97 .142.1c.092.064.225.151.387.23s.364.2.58.3.461.194.721.294.527.173.811.247.574.138.874.174c.151.024.3.036.454.052h.006l2.346-2.42-.195-.325c-.327 0-.651.011-.978.03a25.925 25.925 0 0 0-3.606.576c-.488.109-.883.248-1.164.33s-.438.146-.438.146zM264 92.157l.382.337c.7.609 2.534 1.635 3.391 1.448l5.842-1.3a2.453 2.453 0 0 1 .415-.053l.658-.382a4.137 4.137 0 0 0 2.059-3.662v-.25c-.894.6-.268 1.613-2.509 1.246l-2.567.088a3.435 3.435 0 0 0-1.034.289z" fill="#006"/><path d="M273.9 56.1c1-3.6.892-7.707-2.052-10.422-1.781.461-4.2-.042-6.2.232-5.137.7-10.327.825-15.421 2.042-9.528 2.275-19.095 4.142-28.582 6.579 1.161 3.293-.068 5.778-4.695 5.928-2.144.069-6.473.163-8.182 1.819-1.817 1.759-1.67 4.077-1 6.689a7.61 7.61 0 0 0 1.031.272 20.65 20.65 0 0 1 14.633 11.891l2.121 4.863s26.349-11.976 30.175-11.972a38.062 38.062 0 0 0 14.087-2.3c2.619-1.046 6.216-2.652 8.042-4.882-1.686-3.102-4.911-7.326-3.957-10.739z" fill="#36f"/><path d="M194.989 52.1c-.075 5.275 24.645 9.625 55.214 9.716s55.41-4.113 55.485-9.389-24.646-13.918-55.214-14.008-55.41 8.408-55.485 13.681z" fill="#006"/><path d="M182.114 48.838c1.229 9.63 17.7 12.3 36.475 11.65 26.948-.929 58.65-9.742 56.887-23.562-2.992-23.45-26.317-39.794-52.1-36.505s-44.254 24.966-41.262 48.417zm137.792 51.18c7.518-.02 12.762 2.3 20.984 5.326 14.405 5.3 22.858 15.75 36.53 21.974 15.258 6.945 60.669 4.5 83.215 27.725 5.982 6.162 9.114 17.521 4.783 26.052-4.61 9.081-17.058 9.512-25.8 9.952-19.795 1-27.873-1.516-46.938-5.7-11.7-2.568-28.252-11.9-36.817-16.319-12.854-6.637-28.336-4.331-41.829-9.713-26.679-10.642-20.022-59.229 5.872-59.297z" fill="#006"/><path d="M229.506 99.477c.01.02.01.04.02.06-.026.03-.04.01-.02-.06z" fill="#36f"/><path d="m251.906 101.747-.12 13.35a21.48 21.48 0 0 1-2.74 10.36 21.958 21.958 0 0 1-7.85-5.18 45.767 45.767 0 0 1-6.86-9.87 63.077 63.077 0 0 1-4.81-10.87c.07-.08.27-.5.08-.37a1.034 1.034 0 0 1-.31-.59c1.79-.05 3.63 1.34 5.38 1.71 5.28 1.12 10.97.93 16.34 1.37.29.02.584.06.89.09z" fill="#36f"/><path d="m274.963 81.9-11.444 3.635a26.918 26.918 0 0 1-33.8-17.506L225.546 54.9l-10.074 3.2 14.041 44.2a17.235 17.235 0 0 0 12.47 11.556l19.07 4.5a11.581 11.581 0 0 0 14.215-10.564l.112-1.834-1.9-5.981a9.515 9.515 0 0 1-11.864-5.931 2.251 2.251 0 0 1 1.443-2.889l10.635-3.378a1.386 1.386 0 0 0 .844-1.875 3.848 3.848 0 0 1 .425-4.004z" fill="#006"/><path d="M182.687 53.318a7.511 7.511 0 0 0 3.561 5.241 239.623 239.623 0 0 0 37.3-2.17c8.994-1.147 17.42-2.606 24.757-4.227 2.806-2.3 4.316-4.9 3.956-7.721a28.994 28.994 0 0 0-2.307-8.224c-5.75-12.895-20.5-21.027-36.518-18.983-16.609 2.119-29.151 14.481-30.8 29.087a29.072 29.072 0 0 0 .051 6.997z" fill="#36f"/><ellipse cx="58.608" cy="781.222" fill="#006" rx="10.896" ry="8.993"/><path d="m84.563 749.137-6.156 12.239a38.794 38.794 0 0 1-7.893 10.652l-15.108 14.4 5.532-13.5a13.6 13.6 0 0 0-6.665-17.4l-5.088-2.01a13.6 13.6 0 0 0-17.023 4.382 8.352 8.352 0 0 0-1.144 2.391l-3.674 12.08-11.82 19.576a19.476 19.476 0 0 1-4.326 5.826l-1.688 1.961-2.293 2.158a18.592 18.592 0 0 0-3.691 4.852 9.4 9.4 0 0 0-1.064 2.427 18.572 18.572 0 0 0 9.183 22.891l.723.361a31.41 31.41 0 0 0 32.743-2.854l4.574-3.388a18.6 18.6 0 0 0 7.487-13.741L58 799.561l1.412-2.919 18.812-21.777c3.1-3.763 4.5-8.973 5.3-13.782l2.308-11.507a.678.678 0 0 0-1.269-.439z" fill="#36f"/><path d="M463.616 160.047c-1.595-.665-3.06-5.281-5.753-8.025-3.285-3.347-7.229-4.026-11.251-6.178-8.977-4.8-15.6-7.295-26-7.8-17.032-.823-34.319 2.437-51.223 3.777-16.144 1.28-49.227 4.444-56.02 20.223-3.487 8.1-2.826 19.21 2.8 25.774 6.291 7.337 15.033 5.857 24.442 6.226 25.989 1.019 49.2-2.777 75-4 21.309-1.01 61.141 3.108 46.226-29.847-.437 1.24 1.49-1.477 1.779-.15zm-166.913 26.339 10.336-3.762 69.048 189.708-10.336 3.762z" fill="#006"/><path d="m244.085 528.886-8.426-7.071 131.809-157.083L569.41 400.34l-1.91 10.832-195.689-34.504z" fill="#006"/><path d="M378.084 575.369c-111.445 0-202.112-90.667-202.112-202.112s90.667-202.113 202.112-202.113S580.2 261.811 580.2 373.257s-90.671 202.112-202.116 202.112zm0-393.225c-105.38 0-191.112 85.733-191.112 191.113S272.7 564.369 378.084 564.369 569.2 478.637 569.2 373.257s-85.736-191.113-191.116-191.113z" fill="#006"/><path d="M369.4 575.4c-111.445 0-202.112-90.667-202.112-202.112S257.955 171.171 369.4 171.171s202.113 90.667 202.113 202.112S480.846 575.4 369.4 575.4zm0-393.224c-105.38 0-191.112 85.732-191.112 191.112S264.02 564.4 369.4 564.4s191.113-85.732 191.113-191.112S474.78 182.171 369.4 182.171z" fill="#36f"/><path d="M364.023 381.685a5.5 5.5 0 0 1-5.168-3.621l-64.538-177.317a5.5 5.5 0 1 1 10.336-3.762L369.191 374.3a5.505 5.505 0 0 1-5.168 7.382z" fill="#36f"/><path d="M243.02 517.3a5.5 5.5 0 0 1-4.216-9.028l115.845-138.609 204.9 35.6a5.5 5.5 0 0 1-1.883 10.837L359.02 381.587 247.243 515.331a5.488 5.488 0 0 1-4.223 1.969z" fill="#36f"/><path d="M356.978 171.263c-4.055 1.647-8.152 6.66-5.2 12.451-5.313.9-17.641 2.362-24.166 2.166 2.69-5.2 4.36-11.979 11.777-13.441 3.211-.632 17.951-3.575 17.589-1.176z" fill="#006"/><path d="M315.169 157.454c-4.112 2.938-17.966 7.686-19.668 12.458-.814 2.284 4.274 17.9 7.1 19.984 4.169 3.084 27.9 5.059 27.9 5.059s13.486-1.836 17.1-2.788c7.222-1.9 3.621-6.414-1.14-6.968-4.216-.49-8.041 1.933-9.521 1.7 3.347-3.556 5.6-12.143 5.6-12.143s11.738-2.015 15.954-3.236c1.471-7.337-26.732-11.4-40.331-14.246a17.426 17.426 0 0 0-2.994.18z" fill="#fff"/><path d="M297.784 169.059c-1.126 1.391-1.6 1.119-1.861 2.815-.375 2.432.93 6.157 1.4 8.548.818 4.12 2.5 8.2 3.587 12.252.6 2.251 1.632 5.625 4.573 4.9 2.545-.629 2.873-3.457 5.656-3.273 2.933.194 4.19 2.33 7.2.886 3.154-1.514 2.627-1.726 5.894-.236 9.025 4.118 6.794-11.168 6.677-15.548-.092-3.456 1.094-5.632-2.893-6.437-4.861-.983-10.448-1.146-15.409-1.534a71.774 71.774 0 0 1-8.927-1.335c-1.725-.35-4.241-1.261-5.938-.559.707.036-.65-.294.041-.479z" fill="#fff"/><circle cx="369.45" cy="385.571" fill="#006" r="45.042"/><path d="M174.529 279.961c8.025-4.939 14.957-12.139 19.726-11 2.325.557 5.007 1.832 8.695 4.354 6.174 4.221 8.8 5.782 7.926 13.729-.513 4.679-5.761 12.289-7.645 18.1a11.338 11.338 0 0 0 .248 8.053s-7.817 8.611-8.9 9.112c-5.985 5.431-8.238 2.167-7.118-2.182 1.021-3.966 5.184-8.835 5.184-8.835s-1.36-3.476-4.766-3.221c-6.683.5-6.471-.154-10.242 5-2.754 3.767-.464 10.213-6.786 10.767-9.118.8-6.575-17.426-6.575-17.426s6.638-22.019 10.253-26.451z" fill="#fff"/><path d="M207.293 276.96c2.465 2.665 6.771 4.4 8.095 8.02a3.521 3.521 0 0 1-.051 2.4c-2.112 5.751-4.256 2.353-4.927 4.672-.233.806.5 2.115.268 3.132a5.71 5.71 0 0 1-1.929 3.515 3.4 3.4 0 0 0-1.106 3.555 4 4 0 0 1 .032 2.249 2.87 2.87 0 0 1-1.406 1.942 3.3 3.3 0 0 0-1.8 3.382 4.05 4.05 0 0 1-.515 2.517c-1.675 3.5-5.815 7.609-9.164 9.9-.213-5.914 2.824-11.395 4.8-16.812a121.58 121.58 0 0 0 5.376-19.177c.556-2.946.473-6.476 2.062-9.084-.214.415.439-.644.265-.211z" fill="#fff"/><path d="M176.69 318.541c4.012-5.247 8.024-3.395 6.79 12.037-.663 8.278 14.855-24.868 14.237-33.435-3.682.682-9.844.958-13.208 2.681-6.207 3.18-2.722.671-5.63 6.219-2.122 4.049-2 9.622-4.8 14.227 1.614-1.456 1.691.297 2.611-1.729z" fill="#006"/></svg></g><g transform="translate(736.0 533.0) rotate(0.0 58.0 8.0) scale(0.6400459067408973 0.631338042062897)"><svg width="181.237" height="25.343" viewBox="0 0 181.237 25.343"><path d="M81.645 20.138c40.637 0 40.637 5.2 81.272 5.2 7.264 0 13.189-.171 18.32-.445-10.833-3.514-38.979-13.089-45.175-14.169-8.907-1.555-17.544 3.254-26.282 2.807-10.936-.561-19.547-5.829-29.827-9.261C48.952-6.067 24.683 3.1 0 23.785a14.521 14.521 0 0 0 3.7 1.24c37.286-3.704 38.4-4.887 77.945-4.887z" fill="#36f"/></svg></g><g transform="translate(713.0 465.0) rotate(0.0 35.0 5.0) scale(0.38623459889536904 0.39458627628931064)"><svg width="181.237" height="25.343" viewBox="0 0 181.237 25.343"><path d="M81.645 20.138c40.637 0 40.637 5.2 81.272 5.2 7.264 0 13.189-.171 18.32-.445-10.833-3.514-38.979-13.089-45.175-14.169-8.907-1.555-17.544 3.254-26.282 2.807-10.936-.561-19.547-5.829-29.827-9.261C48.952-6.067 24.683 3.1 0 23.785a14.521 14.521 0 0 0 3.7 1.24c37.286-3.704 38.4-4.887 77.945-4.887z" fill="#36f"/></svg></g><g transform="translate(583.0 465.0) rotate(0.0 35.0 5.0) scale(0.38623459889536904 0.39458627628931064)"><svg width="181.237" height="25.343" viewBox="0 0 181.237 25.343"><path d="M81.645 20.138c40.637 0 40.637 5.2 81.272 5.2 7.264 0 13.189-.171 18.32-.445-10.833-3.514-38.979-13.089-45.175-14.169-8.907-1.555-17.544 3.254-26.282 2.807-10.936-.561-19.547-5.829-29.827-9.261C48.952-6.067 24.683 3.1 0 23.785a14.521 14.521 0 0 0 3.7 1.24c37.286-3.704 38.4-4.887 77.945-4.887z" fill="#36f"/></svg></g><g transform="translate(728.0 621.0) rotate(0.0 109.0 15.5) scale(1.2028448937027207 1.223217456496863)"><svg width="181.237" height="25.343" viewBox="0 0 181.237 25.343"><path d="M81.645 20.138c40.637 0 40.637 5.2 81.272 5.2 7.264 0 13.189-.171 18.32-.445-10.833-3.514-38.979-13.089-45.175-14.169-8.907-1.555-17.544 3.254-26.282 2.807-10.936-.561-19.547-5.829-29.827-9.261C48.952-6.067 24.683 3.1 0 23.785a14.521 14.521 0 0 0 3.7 1.24c37.286-3.704 38.4-4.887 77.945-4.887z" fill="#36f"/></svg></g><g transform="translate(846.0 710.0) rotate(0.0 54.0 7.5) scale(0.5959048097242837 0.591879414433966)"><svg width="181.237" height="25.343" viewBox="0 0 181.237 25.343"><path d="M81.645 20.138c40.637 0 40.637 5.2 81.272 5.2 7.264 0 13.189-.171 18.32-.445-10.833-3.514-38.979-13.089-45.175-14.169-8.907-1.555-17.544 3.254-26.282 2.807-10.936-.561-19.547-5.829-29.827-9.261C48.952-6.067 24.683 3.1 0 23.785a14.521 14.521 0 0 0 3.7 1.24c37.286-3.704 38.4-4.887 77.945-4.887z" fill="#36f"/></svg></g><g transform="translate(818.0 213.0) rotate(0.0 76.0 166.0) scale(0.9934640522875817 0.9993979530403372)"><svg width="153" height="332.2" viewBox="0 0 153 332.2"><path d="M47.5 17.6h41.1v40H47.5z" fill="#36f"/><path d="M76.9 17.6h11.7v40H76.9z" fill="#006"/><path d="M44.3 59.7h48.5v182.9H44.3z" fill="#36f"/><path d="M29.4 60.8c6.8 0 12.4 5.5 12.4 12.4 0 .5 0 .9-.1 1.4l-19.2 168h24l12-171.3c.4-5.4-3.7-10.1-9.1-10.4h-20z" fill="#fff"/><path d="M108.4 60.8c-6.8 0-12.4 5.5-12.4 12.4 0 .5 0 .9.1 1.4l19.2 168h-24l-12-171.3c-.4-5.4 3.7-10.1 9.1-10.4h20z" fill="#36f"/><path d="M96.1 74.6c-.8-6.8 4.1-12.9 10.9-13.7.5-.1.9-.1 1.4-.1l-15.6-1.1H44.3l-14.9 1.1c6.8 0 12.4 5.5 12.4 12.4 0 .5 0 .9-.1 1.4l-.4 3.2 16.9.1 25.5 23.5 7.6 141.3h24z" fill="#006"/><path d="M29.4 55.5h80.5v5.3H29.4z" fill="#fff"/><path d="m73.1 56.5 14.9-1h21.9v5.3H88l-14.9-1z" fill="#36f"/><path d="M51.2 55.5H88v5.3H51.2z" fill="#fff"/><path d="M66.7 114.1h8v24.5h-8z" fill="#006"/><path d="M70.9 120h8v24.5h-8z" fill="#36f"/><path d="M66.7 172.1h8v24.5h-8z" fill="#006"/><path d="M70.9 177.9h8v24.5h-8z" fill="#36f"/><path d="M88.5 17.6h-41v6h11.2l17.3 10h12.5z" fill="#006"/><path d="m36.89 171.623 1.966-25.124 5.184.405-1.965 25.125z" fill="#36f"/><g fill="#fff"><path d="m39.185 176.169 1.966-25.124 5.184.405-1.965 25.124zM50.7 42.7h6.9V21.3h-6.9zm27.2-21.4H86v21.3h-8.1zm-16.8 0H75v21.3H61.1z"/></g><path d="M69.3 0h-3l-.7 1.2-9.7 17.2h22.9L69.5 0z" fill="#36f"/><path d="m66.3 0-.7 1.2-9.1 17.2H42.2L64.4 0z" fill="#36f"/><path d="m69.3 0 9.2 18.4h15L71.4 0h-1.9z" fill="#006"/><path d="M0 274.1h13.5l23.8-5v-35l-12.2-5H11.6z" fill="#fff"/><path d="M13.5 274.1h37.3v-45H25.1z" fill="#36f"/><path d="M35.4 300.5h15l59.1-5-26.2-49.9-18.1-3h-15z" fill="#fff"/><path d="M50.4 300.5h74.1l-26.2-62.9-33.1 5z" fill="#36f"/><path d="M70.5 332.2h21.9l38.7-5v-87.1l-19.9-5H89.3z" fill="#fff"/><path d="M92.4 332.2H153v-97.1h-41.8z" fill="#36f"/></svg></g></svg>