<svg xmlns="http://www.w3.org/2000/svg" viewBox="0 0 1000 1000" width="1000" height="1000"><g transform="translate(62.0 72.0) rotate(0.0 432.5 407.0) scale(0.9669125866308965 0.9678953626634959)"><svg width="894.6" height="841" viewBox="0 0 894.6 841"><path d="M868.9 326.6s-812.1-40.7-704 31.4c30.9 20.6-69 91.2-81.1 152.9-36.4 185.3 212.4 153 401.2 153h383.9z" fill="#36f"/><path d="M767.3 841V0h-37.4v841h36.7z" fill="#fff"/><path d="m716.9 592.8 53.6 3-3 24.7-50.6-14.6z" fill="#36f"/><path d="M767.3 841h127.3V0h-128v841z" fill="#36f"/><path d="M768.4 595.9H60L0 580.8l768.4-2zm-121.2 12.7V841h-10.5V613.1c0-1.5.7-2.9 2-3.7.7-.5 1.6-.7 2.4-.7h6.1z" fill="#006"/><path d="M640.6 613.1V841h-10.5V613.1c0-2.5 2-4.4 4.4-4.5h1.7c.9 0 1.7.3 2.4.7 1.3.9 2 2.3 2 3.8z" fill="#fff"/><circle cx="638" cy="601" fill="#006" r="13.2"/><path d="M629.5 607.9c.4 3.8.6 7.7.6 11.6 9.7-1.2 10.6 3 11.1 9.5.6-5.4.9-12.9 3.1-18.2-3.2 1.1-6.9.9-10.3.4-.1.5-4.5-3.3-4.5-3.3z" fill="#006"/><circle cx="635.2" cy="599.2" fill="#fff" r="12"/><path d="M618.6 592c16.6-2.2 27.8.5 29 8.9l2-14-31-.5zm-93.2 16.6V841h-10.5V613.1c0-1.5.7-2.9 2-3.7.7-.5 1.6-.7 2.4-.7h6.1z" fill="#006"/><path d="M518.9 613.1V841h-10.5V613.1c0-2.5 2-4.4 4.4-4.5h1.7c.9 0 1.7.3 2.4.7 1.2.9 2 2.3 2 3.8z" fill="#fff"/><circle cx="516.3" cy="601" fill="#006" transform="matrix(.9239 -.3827 .3827 .9239 -190.6885 243.3186)" r="13.2"/><path d="M508.6 608.4s-.2 6.4-.2 11.2c9.7-1.2 10.2 2.8 10.8 9.4.6-5.4.9-12.9 3.1-18.2-3.2 1.1-6.9.9-10.3.4-.2.5-3.4-2.8-3.4-2.8z" fill="#006"/><circle cx="513.4" cy="599.2" fill="#fff" transform="matrix(.9239 -.3827 .3827 .9239 -190.2311 242.0932)" r="12"/><path d="M496.9 592c16.6-2.2 27.8.5 29 8.9l2-14-31-.5zm-93.2 16.6V841h-10.5V613.1c0-1.5.7-2.9 2-3.7.7-.5 1.6-.7 2.4-.7h6.1z" fill="#006"/><path d="M397.1 613.1V841h-10.5V613.1c0-2.5 2-4.4 4.4-4.5h1.7c.9 0 1.7.3 2.4.7 1.3.9 2 2.3 2 3.8z" fill="#fff"/><circle cx="394.5" cy="601" fill="#006" r="13.2"/><path d="M386.4 606.9c.2 3.7.1 5.9.2 12.7 9.7-1.2 10.2 2.8 10.8 9.4.6-5.4.9-12.9 3.1-18.2-3.2 1.1-6.9.9-10.3.4-.1.5-3.8-4.3-3.8-4.3z" fill="#006"/><circle cx="391.7" cy="599.2" fill="#fff" r="12"/><path d="M375.1 592c16.6-2.2 27.8.5 29 8.9l2-14-31-.5zm-93.2 16.6V841h-10.5V613.1c0-1.5.7-2.9 2-3.7.7-.5 1.6-.7 2.4-.7h6.1z" fill="#006"/><path d="M275.4 613.1V841h-10.5V613.1c0-2.5 2-4.4 4.4-4.5h1.7c.9 0 1.7.3 2.4.7 1.2.9 2 2.3 2 3.8z" fill="#fff"/><circle cx="272.8" cy="601" fill="#006" r="13.2"/><path d="M264.8 607.9v11.8c9.7-1.2 10.2 2.8 10.8 9.4.6-5.4.9-12.9 3.1-18.2-3.2 1.1-6.9.9-10.3.4-.1.4-3.6-3.4-3.6-3.4z" fill="#006"/><circle cx="269.9" cy="599.2" fill="#fff" r="12"/><path d="M253.4 592c16.6-2.2 27.8.5 29 8.9l2-14-31-.5zm-93.2 16.6V841h-10.5V613.1c0-1.5.7-2.9 2-3.7.7-.5 1.6-.7 2.4-.7h6.1z" fill="#006"/><path d="M153.6 613.1V841h-10.5V613.1c0-2.5 2-4.4 4.4-4.5h1.7c.9 0 1.7.3 2.4.7 1.3.9 2 2.3 2 3.8z" fill="#fff"/><path d="M143.3 608.4c-.3 3.7-.4 7.5-.2 11.2 9.7-1.2 10.2 2.8 10.8 9.4.6-5.4.9-12.9 3.1-18.2-3.2 1.1-6.9.9-10.3.4-.1.5-3.4-2.8-3.4-2.8z" fill="#006"/><circle cx="151" cy="601" fill="#006" r="13.2"/><circle cx="148.2" cy="599.2" fill="#fff" r="12"/><path d="M131.6 592c16.6-2.2 27.8.5 29 8.9l2-14-31-.5z" fill="#006"/><path d="M40.4 538.8h701.1c22.3 0 40.4 18.1 40.4 40.4H1c0-5.8.2-11.2 2.4-16.2 6.2-14.2 20.5-24.2 37-24.2z" fill="#fff"/><path d="M3.4 562.9h785.4v18H0c0-8 1-12.7 3.4-18z" fill="#36f"/></svg></g><g transform="translate(71.0 40.0) rotate(0.0 439.0 420.5) translate(0.0 0.0) scale(0.9533116178067318 0.9554060532528111)"><svg width="921" height="176.888" viewBox="0 0 921 176.888"><path d="M730.93 35.254h37.32v845h-37.32z" fill="#fff"/><path d="M767.61 35.254h127.96v845H767.61z" fill="#36F"/><path d="M768.422 631.12H60L.181 614.472l768.241-.397zM648.18 643.864v236.39h-10.54v-231.94a4.364 4.364 0 0 1 .26-1.49 4.248 4.248 0 0 1 .21-.49 4.457 4.457 0 0 1 3.97-2.47z" fill="#171b1b"/><path d="M641.64 648.314v231.94H631.1v-231.94a4.35 4.35 0 0 1 .21-1.36 4.47 4.47 0 0 1 .63-1.23 4.131 4.131 0 0 1 .86-.91 4.439 4.439 0 0 1 2.74-.95h1.66a4.362 4.362 0 0 1 2.44.74 4.467 4.467 0 0 1 1.08 1 4.1 4.1 0 0 1 .65 1.2 4.212 4.212 0 0 1 .27 1.51z" fill="#36F"/><circle cx="639.028" cy="636.241" fill="#171b1b" r="13.212"/><path d="M631.087 642.838s-.09 7.046.009 12.043c9.657-1.216 10.233 2.814 10.811 9.363.618-5.4.888-12.947 3.086-18.161-3.171 1.084-6.9.895-10.32.427-.107.49-3.586-3.672-3.586-3.672z" fill="#171b1b"/><circle cx="636.176" cy="634.479" fill="#36F" r="12.012"/><path d="M619.629 627.267c16.592-2.158 27.792.469 28.961 8.943l2.045-14.026-31.006-.54zm-93.199 16.597v236.39h-10.54v-231.94a4.364 4.364 0 0 1 .26-1.49 4.248 4.248 0 0 1 .21-.49 4.457 4.457 0 0 1 3.97-2.47z" fill="#171b1b"/><path d="M519.89 648.314v231.94h-10.54v-231.94a4.35 4.35 0 0 1 .21-1.36 4.736 4.736 0 0 1 .62-1.23 4.282 4.282 0 0 1 .94-.96 4.4 4.4 0 0 1 2.67-.9h1.66a4.337 4.337 0 0 1 2.44.74 4.467 4.467 0 0 1 1.08 1 4.1 4.1 0 0 1 .65 1.2 4.212 4.212 0 0 1 .27 1.51z" fill="#36F"/><circle cx="517.278" cy="636.241" fill="#171b1b" r="13.212"/><path d="M509.314 642.567s0 6.233.033 12.314c9.657-1.216 10.232 2.814 10.81 9.363.618-5.4.889-12.947 3.086-18.161-3.171 1.084-6.9.895-10.319.427-.107.49-3.61-3.943-3.61-3.943z" fill="#171b1b"/><circle cx="514.427" cy="634.479" fill="#36F" r="12.012"/><path d="M497.88 627.267c16.591-2.158 27.791.469 28.96 8.943l2.046-14.026-31.006-.54zm-93.2 16.597v236.39h-10.54v-231.94a4.212 4.212 0 0 1 .27-1.51 2.765 2.765 0 0 1 .2-.47 4.457 4.457 0 0 1 3.97-2.47z" fill="#171b1b"/><path d="M398.14 648.314v231.94H387.6v-231.94a4.35 4.35 0 0 1 .21-1.36 4 4 0 0 1 .41-.89 1.791 1.791 0 0 1 .22-.34 4.224 4.224 0 0 1 .87-.92 4.423 4.423 0 0 1 2.73-.94h1.66a4.362 4.362 0 0 1 2.44.74 4.467 4.467 0 0 1 1.08 1 4.568 4.568 0 0 1 .92 2.71z" fill="#36F"/><circle cx="395.529" cy="636.241" fill="#171b1b" r="13.212"/><path d="M388.138 643.635a80.321 80.321 0 0 1-.216 11.246c9.657-1.216 10.232 2.814 10.81 9.363.618-5.4.889-12.947 3.086-18.161-3.171 1.084-6.9.895-10.319.427-.107.49-3.361-2.875-3.361-2.875z" fill="#171b1b"/><circle cx="392.677" cy="634.479" fill="#36F" r="12.012"/><path d="M376.13 627.267c16.591-2.158 27.792.469 28.96 8.943l2.046-14.026-31.006-.54zm-93.2 16.597v236.39h-10.54v-231.94a4.212 4.212 0 0 1 .27-1.51 2.765 2.765 0 0 1 .2-.47 4.457 4.457 0 0 1 3.97-2.47z" fill="#171b1b"/><path d="M276.39 648.314v231.94h-10.54v-231.94a4.35 4.35 0 0 1 .21-1.36 4 4 0 0 1 .41-.89 1.791 1.791 0 0 1 .22-.34 4.211 4.211 0 0 1 .87-.92 4.381 4.381 0 0 1 2.73-.94h1.66a4.337 4.337 0 0 1 2.44.74 4.467 4.467 0 0 1 1.08 1 4.568 4.568 0 0 1 .92 2.71z" fill="#36F"/><circle cx="273.779" cy="636.241" fill="#171b1b" r="13.212"/><path d="M266.389 643.635a80.385 80.385 0 0 1-.217 11.246c9.657-1.216 10.232 2.814 10.81 9.363.619-5.4.889-12.947 3.087-18.161-3.172 1.084-6.9.895-10.32.427-.107.49-3.36-2.875-3.36-2.875z" fill="#171b1b"/><circle cx="270.927" cy="634.479" fill="#36F" r="12.012"/><path d="M254.381 627.267c16.591-2.158 27.791.469 28.96 8.943l2.045-14.026-31.005-.54zm-93.201 16.597v236.39h-10.54v-231.94a4.364 4.364 0 0 1 .26-1.49 4.248 4.248 0 0 1 .21-.49 4.457 4.457 0 0 1 3.98-2.47z" fill="#171b1b"/><path d="M154.64 648.314v231.94H144.1v-231.94a4.35 4.35 0 0 1 .21-1.36 4.618 4.618 0 0 1 2.1-2.55 4.519 4.519 0 0 1 2.13-.54h1.66a4.362 4.362 0 0 1 2.44.74 4.467 4.467 0 0 1 1.08 1 4.1 4.1 0 0 1 .65 1.2 4.212 4.212 0 0 1 .27 1.51z" fill="#36F"/><circle cx="152.03" cy="636.241" fill="#171b1b" r="13.212"/><path d="M144.086 639.676s-.09 1.988.012 15.2c9.657-1.216 10.232 2.814 10.81 9.363.619-5.4.889-12.947 3.087-18.161-3.172 1.084-6.9.895-10.32.427-.107.495-3.589-6.829-3.589-6.829z" fill="#171b1b"/><circle cx="149.178" cy="634.479" fill="#36F" r="12.012"/><path d="M132.631 627.267c16.591-2.158 27.791.469 28.96 8.943l2.046-14.026-31.006-.54z" fill="#171b1b"/><path d="M40.432 574.075h701.136A40.432 40.432 0 0 1 782 614.507H0a40.432 40.432 0 0 1 40.432-40.432z" fill="#36F"/><path d="M717.94 620.079h50.533v24.705l-50.533-14.599z" fill="#171b1b"/><path d="M718.94 39.506h50.533v24.705L718.94 49.613z" fill="#36F"/><path d="M895.158 39.506H767.807v24.705l127.351 18.722z" fill="#171b1b"/><path d="M813 0 705 39.673h88.163z" fill="#fff"/><path d="m813 0 108 39.673H773.327z" fill="#36F"/></svg></g><g transform="translate(113.0 216.0) rotate(0.0 352.5 373.5) scale(0.9701389844502545 0.9701298701298702)"><svg width="726.7" height="770" viewBox="0 0 726.7 770"><ellipse cx="544.8" cy="297.2" fill="#fff" rx="12.9" ry="8.9" transform="matrix(.9426 -.334 .334 .9426 -67.9719 198.9904)"/><path d="M320.6 391.3c12 2.1 48.4-.8 64.1-.1 32 1.6 58.5-2.8 90.8-6.8-6.6-20.3.3-41.4-2.3-61.7-44-2.3-87.4 12.7-131.2 8.3-17.1-1.7-37-11.9-40.8 10.7-3.5 20.3 20.4 32.6 17.2 53.8 3.5-3.8-.1.5 2.2-4.2z" fill="#fff"/><path d="M333.5 292.2c18.4 6 38.8.4 58.1 4.3 20.8 4.2 43 10.2 60.3 24.1-9.8 21.8-3.2 47.8-15.4 68.3-20.9-7-43.2-10.1-62-21.8-11.7-7.2-32-19.6-39.8-30.2-10.7-14.6-6.8-27.6-2.8-46.5 3.1-3.9.1 1.3 1.6 1.8z" fill="#fff"/><path d="M579 395.6c-8.7-2.4-26.1 12.8-38.8 15.1-13.3 2.4-26.5-1.3-38.8-3.8-28.3-5.7-53.6-10.3-81-20.2 7.3-16.2 3.9-38.5 7.3-55.6 2.4-11.7 4.8-19.1 8.6-20.3 5.4-1.7 13.5 5.8 28.5 5.7 13.8-.1 57.5-7.2 57.5-7.2s41.4 64.4 54 82.7c2.4.3 3.3 7.3 2.7 3.6z" fill="#36f"/><path d="M682.7 89.6c10.7 16.9 25.9 31.1 28.7 51.8 2.1 14.8-.3 31.6-1 46.4-1.6 33.7-14.3 70-33.3 98.2-14.8 22-29.7 46.5-47.9 65.9-10.3 11-22.3 20.4-34.1 29.8-8.6 6.9-16.7 16.6-26.4 21.7-4.4-9.3-6.6-19.7-11.4-29.4-10.9-22.3-28.2-41.7-39-63.7 3-1.9 6.8-1.9 10.2-3.9 3.8-2.2 6.1-6.7 9.5-9.2 9.3-6.9 19-8.7 27.1-18.4 15.3-18.3 30.8-36.9 46.9-54.4 6-6.5 13.6-9.8 19.1-16.6 10.6-12.9 10.1-33 12.2-48 2.8-20 24.8-20.4 32.7-35.9 2.9-5.7-.8-12.8-.1-18.8.8-6.7 4.6-12.6 8.3-18.3-.8.7-1.4 1.7-1.5 2.8z" fill="#006"/><path d="M631.5 21.2c-24.4 4.5-15.7 30.7-28 38.2-1.9 1.2-2.6 3.7-1.5 5.7.7 1.2 1.3 2.5 1.7 3.8.9 2.7 1.2 5.3 1.1 7.9 0 4.4 7.2 9 7.9 15.1.7 7.1-4.6 10.7-.8 12.2 8.5 3.3 22.5-3.6 32.6-4.9 8.1-1.1 16.2-1.1 24.3 0 21.6 2.9 37.3-13.4 38-36 1-32.9-24.7-60.4-57-52.2-.8-.5-11.6 5.3-18.3 10.2z" fill="#36f"/><path d="M644 91.9c14.6 7.7 25.6 34.6 27 49.7 11.5-1.7 25.4-8.9 36.5-12.6-11.4-17.4-13.8-39.1-22.9-57.4-10.1 6.4-25.4 21.2-38.2 21.4.4-1.3-3.9-1-2.4-1.1z" fill="#006"/><path d="M645.7 53c26.2-16.8 18.1 19-3.3 17-.2-5.8 1-11.6 3.3-17z"/><path d="M616.3 29.4c15.9-21 34.5-35.5 61.7-26.9 21.7 6.9 43.5 34.8 47.5 57 1.8 10.2 3.1 32.7-10.1 34.2-11.5 1.3-26.5-16.3-34.5-22.4-20.6-15.7-32.3-25.2-52.4-35.9-3.2-1.7-15.4-8.3-12.2-6z" fill="#006"/><path d="M654.5 43.8c-18.9 7.4-34.5 12.7-56.9 14.5-3.2.3-21.2-.8-23.5-3.2-14.4-14.8 34.8-26.6 42.3-26.3 14.2.4 28.6 12.4 43.2 16.9-.3-2.5-5.8.6-5.1-1.9z" fill="#006"/><path d="M431.8 386.4c.3.9 12.5 4 12.3 4.9-7.6 2.3-28.1-.5-35.8 1.3.2-4.6.1-9.2-1.6-13.4.7-.4 18.4 6.2 25.1 7.2z" fill="#36f"/><path d="M625.6 99.9c-6.2 3.6-10.4 5-13.2 4.3-4.5-1.1-5.4-7.1-5.9-14.2-.1-1.2-1.3-1.8-1.3-3.2 0-1.3.2-2.4.3-3.8.2-1-1.8-1.9-1.8-2.7.1-1.4 1.1-2.3 1.3-3.5 1.7 1.4 21.6-2 26.6-3.4 4.1 7 11.5 11.2-6 26.5z" fill="#fff"/><path d="M429.4 325.3c-3.7 12.3-8.7 47.3-22.7 53.9 8.3 4 11.1 5.7 17.5 6.7.8-16.3 1.8-39.4 5.2-60.6z" fill="#006"/><path d="M153.3 613.8c-7.3 13.3-10.7 19.8-15.3 31.5-43-20-111.5-28.9-137.2-59.9-2.9-4.7 3.1-4.1 4.7-4 27.4 1.6 56.8 5.6 84.1 5.6 22.3.1 63.4-5.3 71.2 9.6 1.8 3.4-4.6 11.8-7.5 17.2z" fill="#36f"/><path d="M389.2 391.2c6.4.9 12.9 1.3 19.3 1.2.4-4.5-.3-9-1.8-13.2-11-2.5-19.7-7.7-28.5-14.8 4.9 7.8 14.1 12.4 11 26.8zM625.7 38c.4 31.4.4 60.4 1.2 96.6 13-15.3 40.9-.6 54.8-3.2 22-4.2-2.1-25 11.5-38.5 19.1-19 .3-27-17.2-38-11.2-7-34.3-20.5-48-15.7.6-1.9-5-2.3-2.3-1.2z" fill="#006"/><g fill="#fff"><path d="M593 346.2c-1.8-7.2-5.5-14.2-9.5-20.4-3.8-5.9-4.2-8.1-8.3-13.7-1.5-1.8-2.4-4.1-2.5-6.4 0-.3 0-.5.1-.8-.3-.3-1.2-3.7-1.5-4-5.6-5.1-11.3-7.6-17.2-11.3-2.9-1.9-6.6-2.2-9.9-1-3.3 1.3-7.1 2.7-7.4 2.9-3.7 1.4-2 8.4-1.5 11.5.5 3.3 1.8 6.3 3.8 9 3.6-1.1 8.8-1.4 12.8.7 8.1 4.2 9.9.7 15.6 7.8-.2-1.1 5.6 6.8 5.9 6.2 3.7 2.7 5.4 7.2 8 10.9s3.6 6.3 6 11.4c.8 1.7 2.1 7.2 5.2 6 3.1-1.1.9-6.9.4-8.8z"/><path d="M570.7 315.7c-.3 4.5 1.6 7.4 3.6 11.2 2.4 4.4 5.3 10.2 7.5 14.7 2.4 5 5.6 9.9 8.1 15 .8 1.7 3.1 4.7.4 5.6-2.8 1-6.5-5.7-7.6-7.1-3.3-4.4-6.2-9-8.8-13.9-3.1-5.7-9.4-14.2-8.6-20.9.3-2.7 1.5-6.1 5-4 .4-.2.6-.1.4-.6z"/><path d="M549.2 310.9c-.5-.3-.7-.6-1.4-.6 7.8 12.4 15 26.3 23.8 37.9 2.9 3.7 6.3 6.9 10.2 9.5 5.8 1.7 2.3-5-2.5-10.9-3.5-4.3-5.9-11.9-8.4-16.8-2.3-4.6-3.4-9.7-5.7-14.3-3.2-6.5-2.9-7-9.7-6.4-1.6.3-8.6 2.2-6.3 1.6z"/><path d="M537.2 304.6c-.2 9.8 12.5 19.5 16.4 28.1 1.9 4.3 2.9 8.8 4.3 13.5.9 2.9 1.2 10.5 4.7 10.9 2.1.4 3.4-1.2 2.2-8.1-.8-4.9-1.7-11.5-3.4-16.9-5.1-16.4-16.3-34.2-24.3-27.7 1-.7-.5 1.3.1.2zm14.4-14.8c4.9-1.7 7.9 5.6 11.8 6.8 5 1.5 9.5 4.5 12 9 4 7.2 8.3 16.4 15.3 21.4.6.4.8 1.2.4 1.8l-.1.1c-5.6 5.9-17.3-7.2-18.9-10.6-3.2-6.6-5-13.3-10.1-18.6-1.8-1.8-10.5-9.5-10.4-9.9z"/></g><path d="M605.5 88.2v.2c.4.3.8.7 1 1.2h.4c1.1.1 2.3-.1 3.4-.5.4-.2 1.8-.7 1.7-1.2-2.1.6-4.3.6-6.5.3zm2.6-8.7c-.6-.2-1.2-.2-1.7-.1 0 0-1 .7-1.3.6-.5 0-1.4-.4-1.4-.4-.4 1.3 1.2 2.8 1.7 3.4h.2c.4 0 .8-.1 1.1-.3l.4-.2c.4-.1.8-.1 1.1-.1l6.1.8c.8.1 1.7-.2 2.3-.8l.3-.3zm-.9-11.2c-.5-.5-.7-1.1-.6-1.3.2-.3 1.2 0 2 .7.4.3.7.7 1 1.1zM347.9 280c2.4 23.8 6.5 56.7 13.3 76.7-19-9.2-65.9-15.1-65.9-15.1s-.6 21.5-5.3 41.2c-13.6 56.9-58.4 93.4-91.7 140.1-12.1 17-27.7 34.1-29.6 51.4-2 18.3-8.1 31.6-15.2 33.1-3.8.8-9.8-.1-20.2-2.2-22.3-4.5-36 1-58.3 3.4-21.1 2.3-33-2.9-52.8-8.4-7.4-2.1-12.8-8.4-19.9-14.5-1.8-1.6-2-4.3-.4-6.1.8-.9 1.9-1.5 3.2-1.5 14.3-.4 28.2 1.8 39.9.8 24.2-2.2 31.6-7.4 51.7-21.5 16.5-11.7 37-18.6 49.5-34.2 14.2-17.9 19.9-44.4 30.2-64.7 15.6-31 30.8-61.7 45.9-92.9 8.4-17.4 15.7-54.6 31.6-66.7 11.1-8.5 39.4-8.6 54-8.1 14.1.2 19.2.7 40-10.8z" fill="#006"/><path d="M359.1 716.4c-.5 14.8-.4 30.9-1.1 45.1-19.4-4.1-104.2 15.2-140.3 5.8-.5-1.6-2-1.9.5-2.9 28.4-11.4 54.8-27.2 80.3-46 13.6-10 36.4-27.9 58.3-16.7 3.5 1.9 2.7 7.8 2.3 14.7z" fill="#36f"/><path d="M330.4 339.8c22.7 6.3 21.5 34.4 24.1 52.4-6.3-.4-12.6-.5-18.9-.2 8.4 37.9 29.6 69.1 23.6 109.1-3.5 23-4.7 46.8-6.8 70.3-1.9 21.9-9.1 47.7-6.1 69.7 2.8 20.3 12.8 40.2 13.8 58.4.5 9.3.7 13.6-3.5 16.6-7 5-21 5.5-33.8 13.7-10.6 6.8-15.4 19.5-24.9 27-10 7.9-11.7 6.9-23.9 8.6-11.4 1.6-36.6 5-52.7 1.8-2.3-.5-3.8-2.7-3.4-5.1.3-1.3 1.1-2.4 2.3-3 41.4-21.4 81.7-47.6 84.4-100 1.8-36-3.5-88.8-8.6-125.4-4.7-33.8-54.3-208.2 23-198.6 2.6.5 9.1 4.1 11.4 4.7zm323.4-201.6c-24.3 4.3-63.5 71.5-78.8 80.7-13.8 8.3-26.4 20.3-40 28.9-8.8 5.5-18.3 8.4-20.9 19.1-1.6 6.7-.7 17.9 2.2 23.9 5.6 11.6 14.8 7.5 24.7 3.1 34.9-15.5 73.2-25.2 105.5-46.5 18.8-12.4 33-30.6 44.9-49.9 5.2-8.5 11.9-21.6 12.3-31.7.5-12.5-19.9-36.7-29.4-27.2-1.2-.6-12.9-1.8-20.5-.4z" fill="#006"/></svg></g><g transform="translate(292.0 303.0) rotate(0.0 56.0 63.0) scale(1.686746987951807 1.686746987951807)"><svg width="66.4" height="74.7" viewBox="0 0 66.4 74.7"><path d="M65.6 4S59.9 26.2 58 31.7c-2.8 7.4-6.4 14.5-10.8 21.1-5.5 8.4-9.3 9.4-9.3 9.4l13.2 2.2s5.2-11.6 6.2-16 2.6-14.5 3.4-19S65.6 4 65.6 4z" fill="#006"/><path d="M51.6 64.2s-1.8 3-3.1 5.1c-1-.1-2.1-.1-3.1-.1h-.1c-3.1 0-3.2.4-6.3.4-3.2 0-3.2-.4-6.5-.4-3.2 0-3.2.4-6.5.4s-3.2-.4-6.5-.4c-2.7 0-3.1.3-5 .4.1 0 .2.1.3.1-.1 0-.2-.1-.3-.1-.3-.1-.7-.2-1-.3-.6-.2-1.1-.5-1.6-.8-.8-.5-1.5-1-2.2-1.6-1-.7-1.5-1.8-1.3-3s.6-2.4 1.2-3.4c3.5-.5 7.1-.8 10.7-.8 6.2.4 12.3 1.1 18.4 2.2 2.7.4 12.9 2.3 12.9 2.3z" fill="#FFF"/><path d="M45.3 69.2c-3.1 0-3.2.4-6.3.4-3.2 0-3.2-.4-6.5-.4-3.2 0-3.2.4-6.5.4s-3.2-.4-6.5-.4c-2.7 0-3.1.3-5 .4.1 0 .2.1.3.1-.1 0-.2-.1-.3-.1-.3-.1-.7-.2-1-.3-.6-.2-1.1-.5-1.6-.8-.8-.5-1.5-1-2.2-1.6l.3-.3c1.1-1.1 2.5-1.7 4-2 2.2-.4 4.5-.4 6.7-.1 3 .3 14.6 2.3 17.9 3.2 1.5.3 4.2.9 6.7 1.5z" fill="#006"/><g fill="#FFF"><path d="m26.6 58.2 12.5-.5 20.6-47.5s-7.3 15.6-13.6 24.9C42.2 41 35.6 49.8 32.6 52.4s-6 5.8-6 5.8zM66.4 0s-1.8 16.3-4 28.7c-1.8 10.3-1.5 11.7-3.7 18.9-1.9 5.4-4.2 10.7-7 15.7 0 0 5-17.9 6.8-25C61.4 25.9 66.4 0 66.4 0zM14.8 69.6c0 .1 0 .1 0 0-.1 0-.2 0-.3-.1h-1.4c-3.2 0-3.2-.4-6.5-.4-2.1 0-4.2.1-6.2.4-.1 0-.2 0-.3-.1 2-1.6 3.9-2.4 6.3-1.6.8.4 1.6.6 2.4.7.7 0 1.4-.3 2.1-.2.3.1 1.6.5 2.5.8.4.1.8.3 1 .3.3.2.4.2.4.2z"/></g><path d="M14.8 69.6c0 .1 0 .1 0 0-.1 0-.2 0-.3-.1.2.1.3.1.3.1z" fill="#fff"/></svg></g></svg>