<svg height="309.416" viewBox="0 0 669.824 309.416" width="669.824" xmlns="http://www.w3.org/2000/svg" xmlns:xlink="http://www.w3.org/1999/xlink"><linearGradient id="a" gradientTransform="matrix(1 0 0 -1 0 623.416)" gradientUnits="userSpaceOnUse" x2="150.367" y1="414.342" y2="414.342"><stop offset="0" stop-color="#ffd8a1"/><stop offset=".996" stop-color="#fff"/></linearGradient><linearGradient id="b" gradientTransform="matrix(-1 0 -0 -1 -608.609 623.416)" gradientUnits="userSpaceOnUse" x1="-958.902" x2="-958.902" y1="621.472" y2="335.638"><stop offset="0" stop-color="#c0ddfc"/><stop offset=".996" stop-color="#fff"/></linearGradient><linearGradient id="c" gradientTransform="matrix(1 0 0 -1 0 623.416)" gradientUnits="userSpaceOnUse" x1="468.502" x2="468.502" y1="475.527" y2="315.468"><stop offset=".01" stop-color="#81b1f9"/><stop offset=".25" stop-color="#84b3f9"/><stop offset=".421" stop-color="#8db8fa"/><stop offset=".57" stop-color="#9dc2fa"/><stop offset=".707" stop-color="#b3d0fb"/><stop offset=".836" stop-color="#cfe2fd"/><stop offset=".957" stop-color="#f2f7fe"/><stop offset=".996" stop-color="#fff"/></linearGradient><linearGradient id="d" x1="317.841" x2="317.841" xlink:href="#c" y1="408.273" y2="315.468"/><path d="m87.445 145.246a4.074 4.074 0 0 1 -4.038-4.038v-123.789a4.038 4.038 0 0 1 8.076 0v123.789a4.074 4.074 0 0 1 -4.038 4.038z" fill="#cee4fd"/><path d="m104.405 60.224a21.14 21.14 0 0 1 -20.925-17.768 4.02 4.02 0 0 1 7.93-1.322 13.083 13.083 0 0 0 14.023 10.94 4.036 4.036 0 0 1 4.332 3.745 3.993 3.993 0 0 1 -3.744 4.332c-.514-.001-1.102.073-1.616.073z" fill="#cee4fd"/><path d="m70.485 60.224a11.975 11.975 0 0 1 -1.616-.073 4.049 4.049 0 0 1 .588-8.077 13.177 13.177 0 0 0 14.023-10.94 4.02 4.02 0 0 1 7.93 1.322 21.14 21.14 0 0 1 -20.925 17.768z" fill="#cee4fd"/><path d="m104.405 39.96a21.14 21.14 0 0 1 -20.925-17.768 4.02 4.02 0 0 1 7.93-1.322 13.083 13.083 0 0 0 14.023 10.94 4.049 4.049 0 1 1 .588 8.076c-.514 0-1.102.074-1.616.074z" fill="#cee4fd"/><path d="m70.485 39.96a11.814 11.814 0 0 1 -1.616-.074 4.049 4.049 0 0 1 .588-8.076 13.177 13.177 0 0 0 14.023-10.94 4.02 4.02 0 0 1 7.93 1.322 21.14 21.14 0 0 1 -20.925 17.768z" fill="#cee4fd"/><path d="m133.04 200.9a4.074 4.074 0 0 1 -4.04-4.039v-123.788a4.039 4.039 0 0 1 8.077 0v123.788a4.074 4.074 0 0 1 -4.037 4.039z" fill="#cee4fd"/><path d="m150 115.877a21.073 21.073 0 0 1 -20.925-17.768 4.019 4.019 0 1 1 7.925-1.321 13.084 13.084 0 0 0 14.024 10.94 4.035 4.035 0 0 1 4.332 3.744 3.994 3.994 0 0 1 -3.745 4.332c-.511-.004-1.097.073-1.611.073z" fill="#cee4fd"/><path d="m116.079 115.877a11.96 11.96 0 0 1 -1.615-.073 4.049 4.049 0 0 1 .587-8.076 13.178 13.178 0 0 0 14.024-10.94 4.019 4.019 0 0 1 7.925 1.321 21.137 21.137 0 0 1 -20.921 17.768z" fill="#cee4fd"/><path d="m150 95.613a21.073 21.073 0 0 1 -20.925-17.768 4.019 4.019 0 0 1 7.925-1.322 13.084 13.084 0 0 0 14.024 10.94 4.049 4.049 0 0 1 .587 8.077c-.511 0-1.097.073-1.611.073z" fill="#cee4fd"/><path d="m116.079 95.613a11.96 11.96 0 0 1 -1.615-.073 4.049 4.049 0 0 1 .587-8.077 13.178 13.178 0 0 0 14.024-10.94 4.019 4.019 0 0 1 7.925 1.322 21.138 21.138 0 0 1 -20.921 17.768z" fill="#cee4fd"/><path d="m150.367 183.131-40.749-53.964a51.4 51.4 0 0 0 -80.543-1.909l-17.107 20.411a51.541 51.541 0 0 0 -11.968 32.966v128.781h30.764z" fill="url(#a)"/><path d="m669.824 309.416-141.483-213.73a213.77 213.77 0 0 0 -116.006-86.486 213.638 213.638 0 0 0 -124.009 0 213.242 213.242 0 0 0 -116.006 86.486l-141.556 213.73" fill="url(#b)"/><path d="m468.5 307.948a4.075 4.075 0 0 1 -4.038-4.038v-151.983a4.038 4.038 0 0 1 8.076 0v151.983a4.074 4.074 0 0 1 -4.038 4.038z" fill="url(#c)"/><path d="m485.463 192.236a21.14 21.14 0 0 1 -20.926-17.768 4.02 4.02 0 0 1 7.93-1.322 13.083 13.083 0 0 0 14.023 10.94 4.035 4.035 0 0 1 4.332 3.744 3.993 3.993 0 0 1 -3.744 4.332c-.514 0-1.102.074-1.615.074z" fill="#81b1f9"/><path d="m451.542 192.236a11.8 11.8 0 0 1 -1.615-.074 4.049 4.049 0 1 1 .587-8.076 13.177 13.177 0 0 0 14.023-10.94 4.02 4.02 0 0 1 7.93 1.322 21.14 21.14 0 0 1 -20.925 17.768z" fill="#81b1f9"/><path d="m485.463 212.427a21.14 21.14 0 0 1 -20.926-17.768 4.02 4.02 0 0 1 7.93-1.322 13.083 13.083 0 0 0 14.023 10.94 4.035 4.035 0 0 1 4.332 3.744 3.993 3.993 0 0 1 -3.744 4.332c-.514 0-1.102.074-1.615.074z" fill="#81b1f9"/><path d="m451.542 212.427a11.8 11.8 0 0 1 -1.615-.074 4.049 4.049 0 1 1 .587-8.076 13.177 13.177 0 0 0 14.023-10.94 4.02 4.02 0 0 1 7.93 1.322 21.14 21.14 0 0 1 -20.925 17.768z" fill="#81b1f9"/><path d="m485.463 171.971a21.139 21.139 0 0 1 -20.926-17.771 4.02 4.02 0 0 1 7.93-1.321 13.084 13.084 0 0 0 14.023 10.94 4.035 4.035 0 0 1 4.332 3.744 3.993 3.993 0 0 1 -3.744 4.332c-.514.005-1.102.076-1.615.076z" fill="#81b1f9"/><path d="m451.542 171.971a11.96 11.96 0 0 1 -1.615-.073 4.049 4.049 0 1 1 .587-8.076 13.177 13.177 0 0 0 14.023-10.94 4.02 4.02 0 0 1 7.93 1.321 21.139 21.139 0 0 1 -20.925 17.768z" fill="#81b1f9"/><path d="m317.841 307.948a4.075 4.075 0 0 1 -4.038-4.038v-84.729a4.039 4.039 0 0 1 8.077 0v84.729a4.075 4.075 0 0 1 -4.039 4.038z" fill="url(#d)"/><path d="m334.8 259.49a21.138 21.138 0 0 1 -20.925-17.768 4.019 4.019 0 1 1 7.929-1.322 13.083 13.083 0 0 0 14.024 10.94 4.049 4.049 0 1 1 .587 8.076c-.515 0-1.099.074-1.615.074z" fill="#81b1f9"/><path d="m300.881 259.49a11.8 11.8 0 0 1 -1.615-.074 4.049 4.049 0 1 1 .587-8.076 13.178 13.178 0 0 0 14.024-10.94 4.019 4.019 0 1 1 7.929 1.322 21.14 21.14 0 0 1 -20.925 17.768z" fill="#81b1f9"/><path d="m334.8 239.225a21.137 21.137 0 0 1 -20.925-17.768 4.019 4.019 0 1 1 7.929-1.321 13.083 13.083 0 0 0 14.024 10.94 4.035 4.035 0 0 1 4.332 3.744 3.994 3.994 0 0 1 -3.745 4.332c-.515 0-1.099.073-1.615.073z" fill="#81b1f9"/><path d="m300.881 239.225a11.96 11.96 0 0 1 -1.615-.073 4.049 4.049 0 1 1 .587-8.076 13.13 13.13 0 0 0 14.024-10.94 4.019 4.019 0 1 1 7.929 1.321 21.139 21.139 0 0 1 -20.925 17.768z" fill="#81b1f9"/><g fill="#fff"><path d="m318.949 36.261a1.058 1.058 0 0 1 -.954-.587l-3.965-7.856a1.1 1.1 0 0 1 1.983-.955l3.964 7.856a1.061 1.061 0 0 1 -.514 1.469c-.146 0-.363.073-.514.073z"/><path d="m332.826 30.167a.925.925 0 0 1 -.954-.954.987.987 0 0 1 .954-1.028l8.517-.514a.992.992 0 1 1 .073 1.982z"/><path d="m325.484 20.255a.444.444 0 0 1 -.294-.073 1.129 1.129 0 0 1 -.734-1.395l2.643-8.443a1.114 1.114 0 1 1 2.129.66l-2.643 8.444a1.238 1.238 0 0 1 -1.101.807z"/><path d="m209.178 108.315a1.059 1.059 0 0 1 -.955-.587l-3.965-7.856a1.1 1.1 0 1 1 1.983-.955l3.965 7.856a1.062 1.062 0 0 1 -.514 1.469c-.147 0-.367.073-.514.073z"/><path d="m223.054 102.368a1.116 1.116 0 0 1 -1.1-1.028 1.13 1.13 0 0 1 1.028-1.175l8.517-.587a1.1 1.1 0 1 1 .147 2.2l-8.517.588z"/><path d="m215.712 92.236a.794.794 0 0 1 -.367-.074 1.129 1.129 0 0 1 -.734-1.4l2.643-8.37a1.115 1.115 0 0 1 2.129.661l-2.643 8.37a1.081 1.081 0 0 1 -1.028.813z"/><path d="m209.178 134.894a1.06 1.06 0 0 1 -.955-.588l-3.965-7.856a1.1 1.1 0 0 1 1.983-.954l3.965 7.856a1.061 1.061 0 0 1 -.514 1.468c-.147-0-.367.074-.514.074z"/><path d="m223.128 128.946a1.116 1.116 0 0 1 -1.1-1.028 1.128 1.128 0 0 1 1.028-1.174l8.444-.514a1.1 1.1 0 1 1 .147 2.2l-8.517.514z"/><path d="m215.786 118.888a.438.438 0 0 1 -.294-.074 1.129 1.129 0 0 1 -.734-1.395l2.643-8.443a1.115 1.115 0 0 1 2.129.661l-2.643 8.443a1.239 1.239 0 0 1 -1.101.808z"/><path d="m177.9 94.879a1.736 1.736 0 0 1 -.587.147 1.072 1.072 0 0 1 -.955-.514l-1.542-2.5c.441-.66.955-1.321 1.4-1.982l2.056 3.3a1.175 1.175 0 0 1 -.372 1.549z"/><path d="m190.675 87.83a1.1 1.1 0 0 1 -1.1-.954 1.087 1.087 0 0 1 .955-1.248l8.37-1.248a1.111 1.111 0 1 1 .293 2.2l-8.37 1.248z"/><path d="m179.662 121.457a1.067 1.067 0 0 1 -.954-.514l-4.626-7.415a1.121 1.121 0 1 1 1.909-1.175l4.626 7.416a1.176 1.176 0 0 1 -.367 1.542 1.739 1.739 0 0 1 -.588.146z"/><path d="m193.025 114.336a1.1 1.1 0 0 1 -1.1-.955 1.086 1.086 0 0 1 .881-1.248l8.37-1.322a1.081 1.081 0 0 1 .367 2.13l-8.37 1.321c-.001.074-.073.074-.148.074z"/><path d="m184.8 104.938h-.22a1.1 1.1 0 0 1 -.808-1.322l1.909-8.59a1.1 1.1 0 1 1 2.129.514l-1.909 8.59a1.194 1.194 0 0 1 -1.101.808z"/><path d="m182.012 151.78a1.059 1.059 0 0 1 -.955-.587l-3.964-7.856a1.1 1.1 0 1 1 1.982-.954l3.965 7.856a1.061 1.061 0 0 1 -.514 1.468c-.147 0-.367.073-.514.073z"/><path d="m195.962 145.833a1.114 1.114 0 0 1 -1.1-1.028 1.127 1.127 0 0 1 1.027-1.174l8.444-.588a1.1 1.1 0 1 1 .147 2.2l-8.444.587z"/><path d="m188.62 135.7a.8.8 0 0 1 -.367-.073 1.13 1.13 0 0 1 -.735-1.395l2.644-8.37a1.114 1.114 0 1 1 2.129.66l-2.643 8.371a1.082 1.082 0 0 1 -1.028.807z"/><path d="m182.085 178.359a1.058 1.058 0 0 1 -.954-.587l-4.038-7.856a1.084 1.084 0 1 1 1.907-1.028l4.039 7.856a1.093 1.093 0 0 1 -.441 1.468 1.351 1.351 0 0 1 -.513.147z"/><path d="m195.962 172.412a1.115 1.115 0 0 1 -1.1-1.028 1.128 1.128 0 0 1 1.027-1.175l8.444-.587a1.1 1.1 0 1 1 .147 2.2l-8.444.587z"/><path d="m188.62 162.353a.443.443 0 0 1 -.294-.073 1.129 1.129 0 0 1 -.734-1.4l2.643-8.444a1.115 1.115 0 0 1 2.129.661l-2.643 8.444a1.24 1.24 0 0 1 -1.101.812z"/><path d="m150.734 138.271a1.736 1.736 0 0 1 -.587.147 1.072 1.072 0 0 1 -.955-.514l-2.349-3.745 1.321-2.055 2.864 4.625a1.087 1.087 0 0 1 -.294 1.542z"/><path d="m163.51 131.3a1.1 1.1 0 0 1 -1.1-.955 1.088 1.088 0 0 1 .881-1.248l8.37-1.321a1.08 1.08 0 1 1 .367 2.129l-8.37 1.321c-.002.074-.075.074-.148.074z"/><path d="m156.828 119.034-.44 2.056a1.194 1.194 0 0 1 -1.1.808h-.293z"/><path d="m152.57 164.923a1.072 1.072 0 0 1 -.955-.514l-4.7-7.489a1.121 1.121 0 0 1 1.909-1.175l4.7 7.489a1.175 1.175 0 0 1 -.367 1.542 1.736 1.736 0 0 1 -.587.147z"/><path d="m165.859 157.8a1.1 1.1 0 0 1 -1.1-.954 1.087 1.087 0 0 1 .881-1.249l8.37-1.321a1.08 1.08 0 1 1 .367 2.129l-8.37 1.322c-.001.073-.075.073-.148.073z"/><path d="m157.636 148.4h-.22a1.094 1.094 0 0 1 -.808-1.322l1.909-8.59a1.1 1.1 0 0 1 2.129.514l-1.909 8.59a1.193 1.193 0 0 1 -1.101.808z"/><path d="m262.482 47.008a1.059 1.059 0 0 1 -.955-.587l-3.965-7.856a1.1 1.1 0 1 1 1.983-.955l3.965 7.856a1.062 1.062 0 0 1 -.51 1.469c-.151 0-.372.073-.518.073z"/><path d="m276.432 41.061a1.117 1.117 0 0 1 -1.1-1.028 1.13 1.13 0 0 1 1.028-1.175l8.444-.514a1.1 1.1 0 0 1 .147 2.2l-8.517.514z"/><path d="m269.09 31a.8.8 0 0 1 -.368-.073 1.129 1.129 0 0 1 -.734-1.395l2.643-8.37a1.115 1.115 0 0 1 2.13.661l-2.644 8.37a1.079 1.079 0 0 1 -1.027.807z"/><path d="m254.846 25.2-7.122 1.028c1.982-1.1 3.965-2.129 5.947-3.157l.881-.147a1.086 1.086 0 0 1 1.248.954 1.119 1.119 0 0 1 -.954 1.322z"/><path d="m235.389 63.9a1.057 1.057 0 0 1 -.954-.587l-4.035-7.861a1.084 1.084 0 1 1 1.909-1.028l4.039 7.856a1.093 1.093 0 0 1 -.441 1.468 1.351 1.351 0 0 1 -.518.152z"/><path d="m249.266 57.948a1.117 1.117 0 0 1 -1.1-1.028 1.13 1.13 0 0 1 1.028-1.175l8.444-.514a1.188 1.188 0 0 1 1.175 1.028 1.129 1.129 0 0 1 -1.028 1.175l-8.517.514z"/><path d="m241.924 47.889a.443.443 0 0 1 -.294-.073 1.129 1.129 0 0 1 -.734-1.4l2.643-8.444a1.115 1.115 0 0 1 2.129.661l-2.643 8.443a1.239 1.239 0 0 1 -1.101.813z"/><path d="m235.389 90.474a1.058 1.058 0 0 1 -.954-.588l-3.965-7.856a1.1 1.1 0 0 1 1.982-.954l3.965 7.856a1.06 1.06 0 0 1 -.517 1.468c-.144 0-.364.074-.511.074z"/><path d="m249.266 84.526a1.116 1.116 0 0 1 -1.1-1.027 1.128 1.128 0 0 1 1.028-1.175l8.517-.514a1.1 1.1 0 1 1 .147 2.2l-8.59.514z"/><path d="m241.924 74.468a.79.79 0 0 1 -.367-.074 1.128 1.128 0 0 1 -.735-1.4l2.644-8.37a1.115 1.115 0 1 1 2.129.661l-2.643 8.37a1.082 1.082 0 0 1 -1.028.813z"/><path d="m225.4 42.162-3.084.441c.147-.074.294-.221.441-.294 1.028-.734 2.055-1.468 3.01-2.2a1.136 1.136 0 0 1 .587.808 1.086 1.086 0 0 1 -.954 1.245z"/><path d="m205.874 77.111a1.072 1.072 0 0 1 -.955-.514l-4.7-7.489a1.121 1.121 0 0 1 1.909-1.175l4.7 7.489a1.175 1.175 0 0 1 -.367 1.542 1.736 1.736 0 0 1 -.587.147z"/><path d="m219.236 69.916a1.1 1.1 0 0 1 -1.1-.955 1.087 1.087 0 0 1 .955-1.248l8.37-1.248a1.111 1.111 0 1 1 .293 2.2l-8.37 1.249z"/><path d="m214.024 51.12-1.909 8.59a1.2 1.2 0 0 1 -1.1.808h-.22a1.1 1.1 0 0 1 -.808-1.322l1.836-8.15c.514-.44.954-.807 1.468-1.248a1.112 1.112 0 0 1 .733 1.322z"/><path d="m155.653 197.522a1.058 1.058 0 0 1 -.954-.587l-3.965-7.856a1.1 1.1 0 0 1 1.983-.955l3.964 7.856a1.061 1.061 0 0 1 -.514 1.469c-.146 0-.367.073-.514.073z"/><path d="m169.6 191.575a1.117 1.117 0 0 1 -1.1-1.028 1.13 1.13 0 0 1 1.028-1.175l8.444-.514a1.187 1.187 0 0 1 1.174 1.028 1.127 1.127 0 0 1 -1.028 1.175l-8.516.514z"/><path d="m162.261 181.516a.442.442 0 0 1 -.293-.073 1.13 1.13 0 0 1 -.735-1.4l2.644-8.444a1.115 1.115 0 0 1 2.129.661l-2.643 8.444a1.241 1.241 0 0 1 -1.102.812z"/><path d="m155.653 224.1a1.059 1.059 0 0 1 -.954-.588l-3.965-7.856a1.1 1.1 0 0 1 1.983-.954l3.964 7.856a1.06 1.06 0 0 1 -.514 1.468c-.146.001-.367.074-.514.074z"/><path d="m169.6 218.153a1.116 1.116 0 0 1 -1.1-1.027 1.128 1.128 0 0 1 1.028-1.175l8.444-.514a1.186 1.186 0 0 1 1.174 1.028 1.127 1.127 0 0 1 -1.028 1.174l-8.516.514z"/><path d="m162.261 208.1a.794.794 0 0 1 -.367-.074 1.129 1.129 0 0 1 -.734-1.395l2.643-8.37a1.115 1.115 0 1 1 2.129.661l-2.643 8.37a1.081 1.081 0 0 1 -1.028.808z"/><path d="m124.376 184.086a1.736 1.736 0 0 1 -.587.147 1.256 1.256 0 0 1 -.955-.514l-4.258-6.9 1.321-1.982.22.22 4.626 7.489a1.175 1.175 0 0 1 -.367 1.54z"/><path d="m137.151 177.037a1.1 1.1 0 0 1 -1.1-.954 1.087 1.087 0 0 1 .954-1.248l8.37-1.248a1.111 1.111 0 1 1 .294 2.2l-8.37 1.248z"/><path d="m131.938 158.242-1.909 8.59a1.193 1.193 0 0 1 -1.1.808h-.22a1.1 1.1 0 0 1 -.808-1.322l1.175-5.36 2.5-3.818a1.211 1.211 0 0 1 .362 1.102z"/><path d="m126.138 210.738a1.253 1.253 0 0 1 -.954-.514l-4.626-7.489a1.121 1.121 0 1 1 1.909-1.175l4.626 7.489a1.176 1.176 0 0 1 -.368 1.542 1.736 1.736 0 0 1 -.587.147z"/><path d="m139.5 203.543a1.105 1.105 0 0 1 -1.1-.955 1.087 1.087 0 0 1 .955-1.248l8.37-1.248a1.111 1.111 0 0 1 .294 2.2l-8.37 1.249z"/><path d="m131.278 194.145h-.221a1.1 1.1 0 0 1 -.807-1.322l1.909-8.59a1.1 1.1 0 1 1 2.129.514l-1.909 8.59a1.194 1.194 0 0 1 -1.101.808z"/><path d="m128.561 240.987a1.059 1.059 0 0 1 -.955-.587l-4.038-7.856a1.084 1.084 0 0 1 1.909-1.028l4.038 7.856a1.093 1.093 0 0 1 -.44 1.469 1.367 1.367 0 0 1 -.514.146z"/><path d="m142.438 235.04a1.116 1.116 0 0 1 -1.1-1.028 1.128 1.128 0 0 1 1.028-1.174l8.444-.588a1.1 1.1 0 0 1 .146 2.2l-8.443.587z"/><path d="m135.1 224.982a.437.437 0 0 1 -.293-.074 1.128 1.128 0 0 1 -.734-1.395l2.643-8.443a1.115 1.115 0 0 1 2.129.661l-2.643 8.443a1.239 1.239 0 0 1 -1.102.808z"/><path d="m128.561 267.566a1.059 1.059 0 0 1 -.955-.587l-3.964-7.856a1.1 1.1 0 1 1 1.982-.955l3.965 7.856a1.061 1.061 0 0 1 -.514 1.469c-.147 0-.367.073-.514.073z"/><path d="m142.511 261.619a1.116 1.116 0 0 1 -1.1-1.028 1.128 1.128 0 0 1 1.028-1.175l8.443-.514a1.188 1.188 0 0 1 1.175 1.028 1.128 1.128 0 0 1 -1.028 1.175l-8.517.514z"/><path d="m135.1 251.56a.666.666 0 0 1 -.367-.073 1.163 1.163 0 0 1 -.734-1.395l2.79-8.444a1.115 1.115 0 0 1 2.129.661l-2.716 8.444a1.24 1.24 0 0 1 -1.102.807z"/><path d="m96.7 227.7a1.069 1.069 0 0 1 -.954-.514l-4.7-7.489a1.121 1.121 0 1 1 1.909-1.174l4.7 7.489a1.175 1.175 0 0 1 -.368 1.541 1.713 1.713 0 0 1 -.587.147z"/><path d="m109.985 220.5a1.1 1.1 0 0 1 -1.1-.955 1.088 1.088 0 0 1 .954-1.248l8.444-1.248a1.111 1.111 0 0 1 .294 2.2l-8.444 1.248z"/><path d="m101.836 211.105h-.221a1.094 1.094 0 0 1 -.807-1.322l1.909-8.59a1.1 1.1 0 1 1 2.129.514l-1.909 8.59a1.194 1.194 0 0 1 -1.101.808z"/><path d="m99.046 254.13a1.07 1.07 0 0 1 -.955-.514l-4.626-7.416a1.121 1.121 0 0 1 1.909-1.174l4.626 7.415a1.175 1.175 0 0 1 -.367 1.542 1.713 1.713 0 0 1 -.587.147z"/><path d="m112.408 247.008a1.1 1.1 0 0 1 -1.1-.954 1.088 1.088 0 0 1 .881-1.249l8.37-1.321a1.08 1.08 0 1 1 .367 2.129l-8.37 1.322c-.001.073-.074.073-.148.073z"/><path d="m104.185 237.61h-.22a1.094 1.094 0 0 1 -.808-1.321l1.909-8.591a1.1 1.1 0 0 1 2.129.514l-1.909 8.591a1.193 1.193 0 0 1 -1.101.807z"/><path d="m259.545 118.888a1.117 1.117 0 0 1 -1.1-1.028 1.041 1.041 0 0 1 1.028-1.175l8.811-.734a1.1 1.1 0 1 1 .147 2.2l-8.811.735z"/><path d="m257.416 103.91a1.059 1.059 0 0 1 -.955-.588l-3.961-7.562a1.084 1.084 0 0 1 1.909-1.028l3.965 7.562a1.094 1.094 0 0 1 -.44 1.469 1.375 1.375 0 0 1 -.518.147z"/><path d="m269.824 104.938a1.053 1.053 0 0 1 -.734-.294 1.065 1.065 0 0 1 -.074-1.542l5.8-6.681a1.092 1.092 0 1 1 1.616 1.468l-5.8 6.681a1.176 1.176 0 0 1 -.808.368z"/><path d="m236.858 132.691a1.117 1.117 0 0 1 -1.1-1.028 1.13 1.13 0 0 1 1.028-1.175l8.737-.661a1.1 1.1 0 1 1 .147 2.2l-8.737.661z"/><path d="m234.655 117.713a1.059 1.059 0 0 1 -.955-.587l-3.891-7.489a1.084 1.084 0 1 1 1.909-1.028l3.891 7.489a1.092 1.092 0 0 1 -.44 1.468 1.369 1.369 0 0 1 -.514.147z"/><path d="m247.137 118.741a1.055 1.055 0 0 1 -.735-.294 1.139 1.139 0 0 1 -.147-1.542l5.727-6.608a1.1 1.1 0 0 1 1.689 1.395l-5.727 6.608a1.014 1.014 0 0 1 -.807.441z"/><path d="m296.329 139.225-8.811-.073a1.1 1.1 0 0 1 0-2.2l8.811.074a1.1 1.1 0 0 1 0 2.2z"/><path d="m286.637 124.027a1.108 1.108 0 0 1 -1.028-.661l-3.23-7.856a1.2 1.2 0 0 1 .587-1.468 1.133 1.133 0 0 1 1.469.587l3.23 7.856a1.2 1.2 0 0 1 -.587 1.469.938.938 0 0 1 -.441.073z"/><path d="m298.972 126.156a1.177 1.177 0 0 1 -.808-.367 1.066 1.066 0 0 1 0-1.542l6.315-6.094a1.09 1.09 0 0 1 1.542 1.542l-6.315 6.094a.745.745 0 0 1 -.734.367z"/><path d="m272.467 150.973-8.811-.074a1.1 1.1 0 0 1 0-2.2l8.811.073a1.1 1.1 0 0 1 0 2.2z"/><path d="m262.775 135.775a1.11 1.11 0 0 1 -1.028-.661l-3.23-7.783a1.118 1.118 0 0 1 2.056-.881l3.23 7.783a1.132 1.132 0 0 1 -.587 1.468.927.927 0 0 1 -.441.074z"/><path d="m275.11 137.9a1.182 1.182 0 0 1 -.808-.367 1.066 1.066 0 0 1 0-1.542l6.315-6.094a1.09 1.09 0 1 1 1.542 1.542l-6.315 6.094a.745.745 0 0 1 -.734.367z"/><path d="m236.564 164.629a1.115 1.115 0 0 1 -1.1-1.028 1.127 1.127 0 0 1 1.027-1.174l8.811-.661a1.1 1.1 0 1 1 .147 2.2l-8.811.661z"/><path d="m234.435 149.651a1.059 1.059 0 0 1 -.955-.587l-3.965-7.489a1.084 1.084 0 1 1 1.909-1.028l3.965 7.489a1.092 1.092 0 0 1 -.44 1.468 1.351 1.351 0 0 1 -.514.147z"/><path d="m246.843 150.679a.939.939 0 0 1 -.734-.294 1.064 1.064 0 0 1 -.074-1.541l5.8-6.608a1.091 1.091 0 1 1 1.615 1.468l-5.8 6.608a1.182 1.182 0 0 1 -.807.367z"/><path d="m213.877 178.506a1.117 1.117 0 0 1 -1.1-1.028 1.041 1.041 0 0 1 1.023-1.178l8.737-.734a1.1 1.1 0 0 1 .147 2.2l-8.737.734z"/><path d="m211.674 163.528a1.057 1.057 0 0 1 -.954-.587l-3.965-7.563a1.084 1.084 0 0 1 1.909-1.028l3.965 7.563a1.093 1.093 0 0 1 -.441 1.468 1.369 1.369 0 0 1 -.514.147z"/><path d="m224.082 164.556a1.053 1.053 0 0 1 -.734-.294 1.064 1.064 0 0 1 -.073-1.542l5.8-6.681a1.091 1.091 0 0 1 1.615 1.468l-5.8 6.682a1.18 1.18 0 0 1 -.808.367z"/><path d="m273.348 185.04-8.811-.073a1.1 1.1 0 0 1 0-2.2l8.811.074a1.1 1.1 0 0 1 0 2.2z"/><path d="m263.656 169.842a1.108 1.108 0 0 1 -1.028-.661l-3.23-7.856a1.118 1.118 0 0 1 2.056-.881l3.23 7.856a1.2 1.2 0 0 1 -.587 1.469.938.938 0 0 1 -.441.073z"/><path d="m275.991 171.971a1.179 1.179 0 0 1 -.807-.367 1.064 1.064 0 0 1 0-1.542l6.316-6.162a1.09 1.09 0 1 1 1.542 1.542l-6.315 6.167a.744.744 0 0 1 -.736.362z"/><path d="m249.486 196.788-8.811-.074a1.1 1.1 0 0 1 0-2.2l8.811.073a1.1 1.1 0 0 1 0 2.2z"/><path d="m239.794 181.59a1.107 1.107 0 0 1 -1.027-.661l-3.231-7.856a1.118 1.118 0 1 1 2.056-.881l3.23 7.856a1.2 1.2 0 0 1 -.587 1.468.927.927 0 0 1 -.441.074z"/><path d="m252.129 183.719a1.179 1.179 0 0 1 -.807-.367 1.064 1.064 0 0 1 0-1.542l6.314-6.094a1.09 1.09 0 1 1 1.542 1.542l-6.315 6.094a.745.745 0 0 1 -.734.367z"/><path d="m290.162 47.008a.938.938 0 0 1 -.441-.073 1.107 1.107 0 0 1 -.587-1.469l2.716-6.241a1.118 1.118 0 0 1 2.056.881l-2.717 6.241a1.106 1.106 0 0 1 -1.027.661z"/><path d="m281.938 26.45a1.058 1.058 0 0 1 -.954-.587l-3.965-7.489a1.084 1.084 0 1 1 1.909-1.028l3.965 7.489a1.092 1.092 0 0 1 -.441 1.468 1.351 1.351 0 0 1 -.514.147z"/><path d="m294.347 27.478a.943.943 0 0 1 -.735-.294 1.065 1.065 0 0 1 -.073-1.542l5.8-6.608a1.092 1.092 0 1 1 1.615 1.469l-5.8 6.608a1.179 1.179 0 0 1 -.807.367z"/><path d="m319.75 59.783-8.81-.146a1.1 1.1 0 1 1 0-2.2l8.81.147a1.1 1.1 0 1 1 0 2.2z"/><path d="m310.059 44.512a1.108 1.108 0 0 1 -1.028-.661l-3.231-7.783a1.118 1.118 0 0 1 2.056-.881l3.231 7.783a1.131 1.131 0 0 1 -.588 1.468.923.923 0 0 1 -.44.074z"/><path d="m322.394 46.641a1.18 1.18 0 0 1 -.808-.367 1.064 1.064 0 0 1 0-1.542l6.314-6.094a1.09 1.09 0 0 1 1.542 1.542l-6.314 6.094a.745.745 0 0 1 -.734.367z"/><path d="m283.847 73.366a1.115 1.115 0 0 1 -1.1-1.028 1.127 1.127 0 0 1 1.028-1.174l8.737-.661a1.1 1.1 0 0 1 .147 2.2l-8.737.66z"/><path d="m281.645 58.388a1.059 1.059 0 0 1 -.955-.587l-3.89-7.489a1.084 1.084 0 0 1 1.909-1.028l3.891 7.489a1.093 1.093 0 0 1 -.44 1.469 1.373 1.373 0 0 1 -.515.146z"/><path d="m294.126 59.416a.943.943 0 0 1 -.734-.293 1.065 1.065 0 0 1 -.073-1.542l5.8-6.608a1.091 1.091 0 1 1 1.615 1.468l-5.8 6.608a1.18 1.18 0 0 1 -.808.367z"/><path d="m263.656 90.474a1.069 1.069 0 0 1 -.954-.514 1.175 1.175 0 0 1 .367-1.542l6.241-3.965a1.121 1.121 0 0 1 1.175 1.909l-6.241 3.965a1.39 1.39 0 0 1 -.588.147z"/><path d="m258.957 72.265a1.058 1.058 0 0 1 -.954-.587l-3.965-7.563a1.084 1.084 0 0 1 1.909-1.028l3.965 7.563a1.092 1.092 0 0 1 -.441 1.468 1.346 1.346 0 0 1 -.514.147z"/><path d="m271.366 73.293a1.051 1.051 0 0 1 -.735-.294 1.065 1.065 0 0 1 -.073-1.542l5.8-6.681a1.092 1.092 0 0 1 1.616 1.469l-5.8 6.681a1.179 1.179 0 0 1 -.808.367z"/><path d="m320.558 93.778-8.811-.074a1.1 1.1 0 0 1 0-2.2l8.811.074a1.1 1.1 0 0 1 0 2.2z"/><path d="m310.94 78.579a1.106 1.106 0 0 1 -1.028-.661l-3.231-7.856a1.118 1.118 0 0 1 2.056-.881l3.231 7.856a1.2 1.2 0 0 1 -.588 1.469.934.934 0 0 1 -.44.073z"/><path d="m323.275 80.708a1.175 1.175 0 0 1 -.808-.367 1.063 1.063 0 0 1 0-1.541l6.314-6.094a1.09 1.09 0 1 1 1.542 1.541l-6.314 6.094a.745.745 0 0 1 -.734.367z"/><path d="m296.769 105.525-8.81-.073a1.1 1.1 0 0 1 0-2.2l8.81.073a1.1 1.1 0 1 1 0 2.2z"/><path d="m287.078 90.327a1.108 1.108 0 0 1 -1.028-.661l-3.231-7.856a1.118 1.118 0 1 1 2.056-.881l3.231 7.856a1.2 1.2 0 0 1 -.588 1.468.921.921 0 0 1 -.44.074z"/><path d="m299.413 92.456a1.18 1.18 0 0 1 -.808-.367 1.064 1.064 0 0 1 0-1.542l6.314-6.094a1.09 1.09 0 0 1 1.542 1.547l-6.314 6.094a.745.745 0 0 1 -.734.362z"/><path d="m211.233 210.958a1.116 1.116 0 0 1 -1.1-1.028 1.128 1.128 0 0 1 1.028-1.174l8.737-.661a1.1 1.1 0 1 1 .147 2.2l-8.737.661z"/><path d="m209.031 195.98a1.059 1.059 0 0 1 -.955-.587l-3.891-7.489a1.084 1.084 0 1 1 1.909-1.028l3.891 7.489a1.092 1.092 0 0 1 -.44 1.468 1.351 1.351 0 0 1 -.514.147z"/><path d="m221.512 197.008a1.05 1.05 0 0 1 -.734-.294 1.138 1.138 0 0 1 -.147-1.541l5.727-6.608a1.1 1.1 0 0 1 1.689 1.4l-5.727 6.608a1.016 1.016 0 0 1 -.808.435z"/><path d="m188.473 224.835a1.115 1.115 0 0 1 -1.1-1.028 1.04 1.04 0 0 1 1.027-1.175l8.811-.734a1.1 1.1 0 0 1 .147 2.2l-8.811.734z"/><path d="m186.344 209.857a1.058 1.058 0 0 1 -.955-.588l-3.965-7.562a1.084 1.084 0 0 1 1.909-1.028l3.965 7.563a1.092 1.092 0 0 1 -.44 1.468 1.375 1.375 0 0 1 -.514.147z"/><path d="m198.752 210.885a1.053 1.053 0 0 1 -.734-.294 1.065 1.065 0 0 1 -.074-1.542l5.8-6.681a1.092 1.092 0 0 1 1.616 1.468l-5.8 6.682a1.177 1.177 0 0 1 -.808.367z"/><path d="m247.944 231.369-8.81-.073a1.1 1.1 0 1 1 0-2.2l8.81.074a1.1 1.1 0 1 1 0 2.2z"/><path d="m238.326 216.171a1.106 1.106 0 0 1 -1.028-.661l-3.3-7.856a1.118 1.118 0 0 1 2.056-.881l3.3 7.856a1.133 1.133 0 0 1 -.587 1.469.938.938 0 0 1 -.441.073z"/><path d="m250.587 218.3a1.179 1.179 0 0 1 -.807-.367 1.067 1.067 0 0 1 .073-1.542l6.388-6.094a1.066 1.066 0 1 1 1.468 1.542l-6.387 6.094a.814.814 0 0 1 -.735.367z"/><path d="m224.082 243.117-8.81-.074a1.1 1.1 0 1 1 0-2.2l8.81.073a1.1 1.1 0 1 1 0 2.2z"/><path d="m214.464 227.918a1.107 1.107 0 0 1 -1.028-.66l-3.23-7.856a1.2 1.2 0 0 1 .587-1.469 1.131 1.131 0 0 1 1.468.588l3.231 7.856a1.2 1.2 0 0 1 -.587 1.468.938.938 0 0 1 -.441.073z"/><path d="m226.725 230.048a1.179 1.179 0 0 1 -.807-.367 1.067 1.067 0 0 1 .073-1.542l6.388-6.094a1.066 1.066 0 1 1 1.468 1.542l-6.387 6.094a.816.816 0 0 1 -.735.367z"/><path d="m188.253 256.773a1.116 1.116 0 0 1 -1.1-1.028 1.13 1.13 0 0 1 1.028-1.175l8.737-.66a1.1 1.1 0 1 1 .147 2.2l-8.737.661z"/><path d="m186.05 241.8a1.059 1.059 0 0 1 -.955-.587l-3.964-7.489a1.084 1.084 0 1 1 1.909-1.028l3.96 7.484a1.092 1.092 0 0 1 -.44 1.468 1.351 1.351 0 0 1 -.51.152z"/><path d="m198.458 242.823a.939.939 0 0 1 -.734-.294 1.064 1.064 0 0 1 -.073-1.542l5.8-6.607a1.091 1.091 0 1 1 1.615 1.468l-5.8 6.608a1.18 1.18 0 0 1 -.808.367z"/><path d="m165.492 270.576a1.115 1.115 0 0 1 -1.1-1.028 1.127 1.127 0 0 1 1.028-1.174l8.81-.661a1.1 1.1 0 1 1 .147 2.2l-8.811.66z"/><path d="m163.363 255.6a1.059 1.059 0 0 1 -.955-.587l-3.965-7.489a1.084 1.084 0 0 1 1.909-1.028l3.965 7.489a1.093 1.093 0 0 1 -.44 1.469 1.367 1.367 0 0 1 -.514.146z"/><path d="m175.771 256.626a.942.942 0 0 1 -.734-.293 1.065 1.065 0 0 1 -.074-1.542l5.8-6.608a1.091 1.091 0 1 1 1.615 1.468l-5.8 6.608a1.182 1.182 0 0 1 -.807.367z"/><path d="m224.963 277.111-8.81-.074a1.1 1.1 0 1 1 0-2.2l8.81.073a1.1 1.1 0 1 1 0 2.2z"/><path d="m215.345 261.913a1.109 1.109 0 0 1 -1.028-.661l-3.3-7.783a1.118 1.118 0 0 1 2.056-.881l3.3 7.783a1.132 1.132 0 0 1 -.587 1.468.927.927 0 0 1 -.441.074z"/><path d="m227.606 264.042a1.179 1.179 0 0 1 -.807-.367 1.132 1.132 0 0 1 0-1.542l6.388-6.094a1.063 1.063 0 0 1 1.541 0 1.132 1.132 0 0 1 0 1.542l-6.387 6.094a.816.816 0 0 1 -.735.367z"/><path d="m201.1 288.932-8.81-.147a1.1 1.1 0 1 1 0-2.2l8.81.147a1.1 1.1 0 1 1 0 2.2z"/><path d="m191.483 273.733a1.108 1.108 0 0 1 -1.028-.66l-3.23-7.856a1.118 1.118 0 1 1 2.055-.881l3.231 7.856a1.2 1.2 0 0 1 -.587 1.468.938.938 0 0 1 -.441.073z"/><path d="m203.745 275.789a1.18 1.18 0 0 1 -.808-.367 1.132 1.132 0 0 1 0-1.542l6.388-6.094a1.065 1.065 0 0 1 1.541 0 1.131 1.131 0 0 1 0 1.542l-6.387 6.094a.813.813 0 0 1 -.734.367z"/></g></svg>