<?xml version="1.0" encoding="UTF-8"?><svg version="1.1" xmlns="http://www.w3.org/2000/svg" xmlns:xlink="http://www.w3.org/1999/xlink" viewBox="0 0 1500 1500" width="1500" height="1500" x="0px" y="0px">
              
              <!-- ITEM 0 -->
<g transform="translate(141.0 208.0) scale(2.821719576811735 2.833319841334089) rotate(352.5955288657467 143.5295 49.412)">
<g transform="translate(-0.0 -0.0)">
<title>drone</title><g id="Layer_2-i0" data-name="Layer 2"><g id="Layer_1-2-i0" data-name="Layer 1"><path d="M33.453,40.307a1.136,1.136,0,0,1-1.126-1.125V12.89a1.126,1.126,0,0,1,2.251,0V39.182A1.21,1.21,0,0,1,33.453,40.307Z" fill="#2b2b2b"/><path d="M44.4,47.57H22.506V42.046A11.025,11.025,0,0,1,33.453,31.1h0A10.959,10.959,0,0,1,44.4,42.046h0V47.57Z" fill="#96b5c8"/><rect x="1.33" y="14.834" width="63.939" height="7.059" fill="#f9d5ff"/><path d="M253.606,40.307a1.135,1.135,0,0,1-1.125-1.125V12.89a1.125,1.125,0,1,1,2.25,0V39.182A1.3,1.3,0,0,1,253.606,40.307Z" fill="#2b2b2b"/><path d="M253.606,31.1h0a10.958,10.958,0,0,1,10.946,10.946V47.57H242.66V42.046A10.893,10.893,0,0,1,253.606,31.1Z" fill="#96b5c8"/><path d="M227.826,98.824h-2.762a4.418,4.418,0,0,1-3.376-1.74L199.8,65.985l-9.514-13.606h33.658l3.887,6.956a9.781,9.781,0,0,0-9.719,9.719,9.43,9.43,0,0,0,1.535,5.217L231.3,92.481a4.149,4.149,0,0,1-1.227,5.729A4.668,4.668,0,0,1,227.826,98.824Z" fill="#96b5c8"/><path d="M96.777,52.379,87.263,65.985l-21.892,31.1A3.99,3.99,0,0,1,62,98.824H59.233a4.064,4.064,0,0,1-4.092-4.195,3.678,3.678,0,0,1,.716-2.25l11.662-18.21a9.181,9.181,0,0,0,1.023-8.287,9.581,9.581,0,0,0-9.207-6.649l3.888-6.957H96.777Z" fill="#96b5c8"/><path d="M179.744,52.379,168.9,65.985l-.307.409c-3.785,4.706-10.844,7.672-18.619,7.672H136.982c-7.673,0-14.834-2.966-18.619-7.672l-.307-.409L107.212,52.379Z" fill="#96b5c8"/><path d="M63.12,52.379H96.777L87.263,65.985H68.542a9.58,9.58,0,0,0-9.207-6.65Z" fill="#181818"/><polygon points="107.212 52.379 179.744 52.379 169.003 65.985 118.056 65.985 107.212 52.379" fill="#181818"/><path d="M227.621,59.335a9.675,9.675,0,0,0-9.207,6.65H199.693l-9.514-13.606h33.657Z" fill="#181818"/><path d="M136.982,0h12.992c7.673,0,14.834,2.967,18.619,7.673l11.151,14.015H107.11L118.261,7.673C122.148,2.967,129.309,0,136.982,0Z" fill="#96b5c8"/><path d="M33.453,45.422c50.741,0,50.946-34.476,110.076-34.476s59.335,34.476,110.077,34.476" fill="#f9d5ff"/><circle cx="143.529" cy="26.189" r="19.233" fill="#3a3a3a" stroke="#3a3a3a" stroke-linecap="round" stroke-linejoin="round" stroke-width="3"/><circle cx="143.529" cy="26.189" r="11.969" fill="#181818"/><circle cx="135.754" cy="16.982" r="3.376" fill="#fff" opacity="0.5" style="isolation:isolate"/><circle cx="148.644" cy="31.714" r="2.762" fill="#fff" opacity="0.5" style="isolation:isolate"/><path d="M8.082,45.422h270.9a6.9,6.9,0,0,1,6.956,6.956h0a6.9,6.9,0,0,1-6.956,6.957H8.082a6.9,6.9,0,0,1-6.957-6.957h0A6.964,6.964,0,0,1,8.082,45.422Z" fill="#fff"/><path d="M278.875,60.46H8.082a8.082,8.082,0,1,1,0-16.163h270.9a8.1,8.1,0,0,1,8.082,8.082A8.256,8.256,0,0,1,278.875,60.46ZM8.082,46.547a5.828,5.828,0,0,0-5.831,5.832A5.764,5.764,0,0,0,8.082,58.21h270.9a5.829,5.829,0,0,0,5.831-5.831,5.765,5.765,0,0,0-5.831-5.832Z" fill="#2b2b2b"/><rect x="221.586" y="14.834" width="63.939" height="7.059" fill="#f9d5ff"/><rect x="248.286" y="14.834" width="10.537" height="7.059" fill="#96b5c8"/><rect x="28.133" y="14.834" width="10.537" height="7.059" fill="#96b5c8"/></g></g>
</g>
</g>

<!-- ITEM 1 -->
<g transform="translate(444.0 701.0) scale(3.6560431124252264 3.6445740292988194) rotate(351.9468867730597 65.7815 84.372)">
<g transform="translate(-0.0 -0.0)">
<title> tablet</title><g id="Layer_2-i1" data-name="Layer 2"><g id="Layer_1-2-i1" data-name="Layer 1"><path d="M11.849,0H119.714a11.858,11.858,0,0,1,11.849,11.849V156.9a11.858,11.858,0,0,1-11.849,11.849H11.849A11.858,11.858,0,0,1,0,156.9V11.849A11.991,11.991,0,0,1,11.849,0Z" fill="#f9d5ff"/><rect x="7.712" y="13.483" width="116.139" height="133.401" fill="#fff"/><circle cx="65.781" cy="157.406" r="5.312" fill="#fff"/></g></g>
</g>
</g>

<!-- ITEM 2 -->
<g transform="translate(905.0 678.0) scale(2.823770165041061 2.813559461675036) rotate(0.0 75.25399999999999 121.3765)">
<g transform="translate(-0.0 -0.0)">
<defs><linearGradient id="linear-gradient-i2" x1="75.254" y1="-604.836" x2="75.254" y2="-554.155" gradientTransform="translate(0 792)" gradientUnits="userSpaceOnUse"><stop offset="0" stop-color="#f48b94"/><stop offset="1" stop-color="#f4a9a6" stop-opacity="0"/></linearGradient><linearGradient id="linear-gradient-2-i2" x1="81.89" y1="-625.561" x2="81.89" y2="-553.751" gradientTransform="translate(0 792)" gradientUnits="userSpaceOnUse"><stop offset="0" stop-color="#c0ddfc"/><stop offset="0.996" stop-color="#fff"/></linearGradient></defs><title>grass_1</title><g id="Layer_2-i2" data-name="Layer 2"><g id="Layer_1-2-i2" data-name="Layer 1"><path d="M18.357,242.753H0c0-59.586,28.571-72.391,58.771-92.82,16.729-11.251,53.294-37.01,72.465-57.587a11.073,11.073,0,0,1,15.248-1.036h0a11.119,11.119,0,0,1,1.11,16.062c-21.243,22.8-62.028,47.816-79.052,59.289C39.452,186.35,18.357,200.562,18.357,242.753Z" fill="url(#linear-gradient-i2)"/><path d="M55.292,242.753H33.383c0-38.416,14.73-72.095,29.015-104.737,11.251-25.759,32.717-91.784,38.194-125.389A15.091,15.091,0,0,1,116.654.044h0A14.953,14.953,0,0,1,130.2,17.29c-6.218,37.9-36.492,104.589-47.965,130.792C68.394,179.689,55.292,209.592,55.292,242.753Z" fill="url(#linear-gradient-2-i2)"/></g></g>
</g>
</g>

<!-- ITEM 3 -->
<g transform="translate(882.0 446.0) scale(1.6581957019288716 1.6595159070671093) rotate(9.702028854771209 143.52950000000004 49.412)">
<g transform="translate(-0.0 -0.0)">
<title>drone</title><g id="Layer_2-i3" data-name="Layer 2"><g id="Layer_1-2-i3" data-name="Layer 1"><path d="M33.453,40.307a1.136,1.136,0,0,1-1.126-1.125V12.89a1.126,1.126,0,0,1,2.251,0V39.182A1.21,1.21,0,0,1,33.453,40.307Z" fill="#2b2b2b"/><path d="M44.4,47.57H22.506V42.046A11.025,11.025,0,0,1,33.453,31.1h0A10.959,10.959,0,0,1,44.4,42.046h0V47.57Z" fill="#96b5c8"/><rect x="1.33" y="14.834" width="63.939" height="7.059" fill="#f9d5ff"/><path d="M253.606,40.307a1.135,1.135,0,0,1-1.125-1.125V12.89a1.125,1.125,0,1,1,2.25,0V39.182A1.3,1.3,0,0,1,253.606,40.307Z" fill="#2b2b2b"/><path d="M253.606,31.1h0a10.958,10.958,0,0,1,10.946,10.946V47.57H242.66V42.046A10.893,10.893,0,0,1,253.606,31.1Z" fill="#96b5c8"/><path d="M227.826,98.824h-2.762a4.418,4.418,0,0,1-3.376-1.74L199.8,65.985l-9.514-13.606h33.658l3.887,6.956a9.781,9.781,0,0,0-9.719,9.719,9.43,9.43,0,0,0,1.535,5.217L231.3,92.481a4.149,4.149,0,0,1-1.227,5.729A4.668,4.668,0,0,1,227.826,98.824Z" fill="#96b5c8"/><path d="M96.777,52.379,87.263,65.985l-21.892,31.1A3.99,3.99,0,0,1,62,98.824H59.233a4.064,4.064,0,0,1-4.092-4.195,3.678,3.678,0,0,1,.716-2.25l11.662-18.21a9.181,9.181,0,0,0,1.023-8.287,9.581,9.581,0,0,0-9.207-6.649l3.888-6.957H96.777Z" fill="#96b5c8"/><path d="M179.744,52.379,168.9,65.985l-.307.409c-3.785,4.706-10.844,7.672-18.619,7.672H136.982c-7.673,0-14.834-2.966-18.619-7.672l-.307-.409L107.212,52.379Z" fill="#96b5c8"/><path d="M63.12,52.379H96.777L87.263,65.985H68.542a9.58,9.58,0,0,0-9.207-6.65Z" fill="#181818"/><polygon points="107.212 52.379 179.744 52.379 169.003 65.985 118.056 65.985 107.212 52.379" fill="#181818"/><path d="M227.621,59.335a9.675,9.675,0,0,0-9.207,6.65H199.693l-9.514-13.606h33.657Z" fill="#181818"/><path d="M136.982,0h12.992c7.673,0,14.834,2.967,18.619,7.673l11.151,14.015H107.11L118.261,7.673C122.148,2.967,129.309,0,136.982,0Z" fill="#96b5c8"/><path d="M33.453,45.422c50.741,0,50.946-34.476,110.076-34.476s59.335,34.476,110.077,34.476" fill="#f9d5ff"/><circle cx="143.529" cy="26.189" r="19.233" fill="#3a3a3a" stroke="#3a3a3a" stroke-linecap="round" stroke-linejoin="round" stroke-width="3"/><circle cx="143.529" cy="26.189" r="11.969" fill="#181818"/><circle cx="135.754" cy="16.982" r="3.376" fill="#fff" opacity="0.5" style="isolation:isolate"/><circle cx="148.644" cy="31.714" r="2.762" fill="#fff" opacity="0.5" style="isolation:isolate"/><path d="M8.082,45.422h270.9a6.9,6.9,0,0,1,6.956,6.956h0a6.9,6.9,0,0,1-6.956,6.957H8.082a6.9,6.9,0,0,1-6.957-6.957h0A6.964,6.964,0,0,1,8.082,45.422Z" fill="#fff"/><path d="M278.875,60.46H8.082a8.082,8.082,0,1,1,0-16.163h270.9a8.1,8.1,0,0,1,8.082,8.082A8.256,8.256,0,0,1,278.875,60.46ZM8.082,46.547a5.828,5.828,0,0,0-5.831,5.832A5.764,5.764,0,0,0,8.082,58.21h270.9a5.829,5.829,0,0,0,5.831-5.831,5.765,5.765,0,0,0-5.831-5.832Z" fill="#2b2b2b"/><rect x="221.586" y="14.834" width="63.939" height="7.059" fill="#f9d5ff"/><rect x="248.286" y="14.834" width="10.537" height="7.059" fill="#96b5c8"/><rect x="28.133" y="14.834" width="10.537" height="7.059" fill="#96b5c8"/></g></g>
</g>
</g>

<!-- ITEM 4 -->
<g transform="translate(230.0 735.0) scale(3.873651993017862 3.8195587751070135) rotate(30.66958734580633 20.910500000000003 15.184999999999999)">
<g transform="translate(-0.0 -0.0)">
<title>star_1</title><g id="Layer_2-i4" data-name="Layer 2"><g id="Layer_1-2-i4" data-name="Layer 1"><path d="M30.841,6.813l.406,1.014A15.376,15.376,0,0,0,39.97,16.55l1.014.406a1.3,1.3,0,0,1,0,2.434L39.97,19.8a15.376,15.376,0,0,0-8.723,8.723l-.406,1.014a1.3,1.3,0,0,1-2.434,0L28,28.519A15.376,15.376,0,0,0,19.278,19.8l-1.014-.406a1.3,1.3,0,0,1,0-2.434l1.014-.406A15.376,15.376,0,0,0,28,7.827l.406-1.014A1.3,1.3,0,0,1,30.841,6.813Z" fill="#fde545"/><path d="M9.79.611l.3.74a11.227,11.227,0,0,0,6.367,6.366l.74.3a.951.951,0,0,1,0,1.776l-.74.3a11.231,11.231,0,0,0-6.367,6.367l-.3.74a.951.951,0,0,1-1.776,0l-.3-.74a11.227,11.227,0,0,0-6.366-6.367l-.74-.3a.951.951,0,0,1,0-1.776l.74-.3A11.222,11.222,0,0,0,7.717,1.351l.3-.74A.95.95,0,0,1,9.79.611Z" fill="#fde545"/></g></g>
</g>
</g>

<!-- ITEM 5 -->
<g transform="translate(345.0 643.0) scale(2.6960233655358348 2.704530087897228) rotate(345.8478741090713 8.902000000000001 8.874)">
<g transform="translate(-0.0 -0.0)">
<title>star_2</title><g id="Layer_2-i5" data-name="Layer 2"><g id="Layer_1-2-i5" data-name="Layer 1"><path d="M9.79.555l.3.74a11.225,11.225,0,0,0,6.367,6.367l.74.3a.952.952,0,0,1,0,1.777l-.74.3A11.227,11.227,0,0,0,10.086,16.4l-.3.741a.951.951,0,0,1-1.776,0l-.3-.741a11.222,11.222,0,0,0-6.366-6.366l-.74-.3a.951.951,0,0,1,0-1.777l.74-.3A11.221,11.221,0,0,0,7.717,1.3l.3-.74A.988.988,0,0,1,9.79.555Z" fill="#fde545"/></g></g>
</g>
</g>

<!-- ITEM 6 -->
<g transform="translate(1003.0 969.0) scale(3.931700741406426 3.944106378183457) rotate(9.526034425169499 8.902000000000001 8.874)">
<g transform="translate(-0.0 -0.0)">
<title>star_2</title><g id="Layer_2-i6" data-name="Layer 2"><g id="Layer_1-2-i6" data-name="Layer 1"><path d="M9.79.555l.3.74a11.225,11.225,0,0,0,6.367,6.367l.74.3a.952.952,0,0,1,0,1.777l-.74.3A11.227,11.227,0,0,0,10.086,16.4l-.3.741a.951.951,0,0,1-1.776,0l-.3-.741a11.222,11.222,0,0,0-6.366-6.366l-.74-.3a.951.951,0,0,1,0-1.777l.74-.3A11.221,11.221,0,0,0,7.717,1.3l.3-.74A.988.988,0,0,1,9.79.555Z" fill="#fde545"/></g></g>
</g>
</g>

<!-- ITEM 7 -->
<g transform="translate(966.0 1065.0) scale(2.808357672433161 2.817218841559612) rotate(0.0 8.902000000000001 8.874)">
<g transform="translate(-0.0 -0.0)">
<title>star_2</title><g id="Layer_2-i7" data-name="Layer 2"><g id="Layer_1-2-i7" data-name="Layer 1"><path d="M9.79.555l.3.74a11.225,11.225,0,0,0,6.367,6.367l.74.3a.952.952,0,0,1,0,1.777l-.74.3A11.227,11.227,0,0,0,10.086,16.4l-.3.741a.951.951,0,0,1-1.776,0l-.3-.741a11.222,11.222,0,0,0-6.366-6.366l-.74-.3a.951.951,0,0,1,0-1.777l.74-.3A11.221,11.221,0,0,0,7.717,1.3l.3-.74A.988.988,0,0,1,9.79.555Z" fill="#fde545"/></g></g>
</g>
</g>

<!-- ITEM 8 -->
<g transform="translate(943.0 866.0) scale(2.309868914939077 2.309868914939077) rotate(8.705637237483932 17.317 17.317)">
<g transform="translate(-0.0 -0.0)">

<path fill="#DBECFD" d="M17.9,0.431l2.717,8.811c0.704,2.283,2.491,4.07,4.774,4.774l8.811,2.717c0.574,0.177,0.574,0.99,0,1.167  l-8.811,2.717c-2.283,0.704-4.07,2.491-4.774,4.774L17.9,34.203c-0.177,0.574-0.99,0.574-1.167,0l-2.717-8.811  c-0.704-2.283-2.491-4.07-4.774-4.774L0.431,17.9c-0.574-0.177-0.574-0.99,0-1.167l8.811-2.717c2.283-0.704,4.07-2.491,4.774-4.774  l2.717-8.811C16.91-0.144,17.723-0.144,17.9,0.431z"/>

</g>
</g>

<!-- ITEM 9 -->
<g transform="translate(165.0 966.0) scale(1.5880348790206156 1.5880348790206156) rotate(338.74957662870315 17.317 17.317)">
<g transform="translate(-0.0 -0.0)">

<path fill="#DBECFD" d="M17.9,0.431l2.717,8.811c0.704,2.283,2.491,4.07,4.774,4.774l8.811,2.717c0.574,0.177,0.574,0.99,0,1.167  l-8.811,2.717c-2.283,0.704-4.07,2.491-4.774,4.774L17.9,34.203c-0.177,0.574-0.99,0.574-1.167,0l-2.717-8.811  c-0.704-2.283-2.491-4.07-4.774-4.774L0.431,17.9c-0.574-0.177-0.574-0.99,0-1.167l8.811-2.717c2.283-0.704,4.07-2.491,4.774-4.774  l2.717-8.811C16.91-0.144,17.723-0.144,17.9,0.431z"/>

</g>
</g>

<!-- ITEM 10 -->
<g transform="translate(119.0 897.0) scale(2.513178074776714 2.512909875257666) rotate(0.0 77.591 94.11400000000002)">
<g transform="translate(-0.0 -0.0)">
<defs><linearGradient id="linear-gradient-i10" x1="58.436" y1="-697.886" x2="155.182" y2="-697.886" gradientTransform="translate(0 792)" gradientUnits="userSpaceOnUse"><stop offset="0" stop-color="#c0ddfc"/><stop offset="0.996" stop-color="#fff"/></linearGradient><linearGradient id="linear-gradient-2-i10" x1="57.902" y1="-712.654" x2="57.902" y2="-610.411" gradientTransform="translate(0 792)" gradientUnits="userSpaceOnUse"><stop offset="0" stop-color="#9cbcba"/><stop offset="1" stop-color="#9cbcba" stop-opacity="0"/></linearGradient></defs><title>grass_3</title><g id="Layer_2-i10" data-name="Layer 2"><g id="Layer_1-2-i10" data-name="Layer 1"><path d="M155.182,188.228h-17.32c0-35.307-12.361-52.184-28.128-73.575C93.672,92.817,69.1,65.874,58.661,13.321A11.105,11.105,0,0,1,67.765.145h0A11.112,11.112,0,0,1,80.423,8.953C89.9,56.7,107.292,80.382,122.762,101.477,139.49,124.127,155.182,145.593,155.182,188.228Z" fill="url(#linear-gradient-i10)"/><path d="M115.8,188.228H93.968c0-24.2-36.713-55.81-87.046-87.787A14.976,14.976,0,0,1,2.11,80.16h0A15.019,15.019,0,0,1,23.058,75.2c20.429,12.953,37.75,26.054,51.739,39.082C101.962,139.671,115.8,164.542,115.8,188.228Z" fill="url(#linear-gradient-2-i10)"/></g></g>
</g>
</g>

<!-- ITEM 11 -->
<g transform="translate(757.0 1118.0) scale(0.8838763280241828 0.8838763280241828) rotate(0.0 28.2845 28.2845)">
<g transform="translate(-0.0 -0.0)">
<title>Asset 26</title><g id="Layer_2-i11" data-name="Layer 2"><g id="Layer_1-2-i11" data-name="Layer 1"><path d="M28.284,0A28.285,28.285,0,1,0,56.569,28.284,28.284,28.284,0,0,0,28.284,0Zm0,44.948A16.664,16.664,0,1,1,44.948,28.284,16.663,16.663,0,0,1,28.284,44.948Z" fill="#f9d5ff"/></g></g>
</g>
</g>

<!-- ITEM 12 -->
<g transform="translate(660.0 1106.0) scale(1.3965245982782089 1.3965245982782089) rotate(0.0 28.2845 28.2845)">
<g transform="translate(-0.0 -0.0)">
<title>Asset 26</title><g id="Layer_2-i12" data-name="Layer 2"><g id="Layer_1-2-i12" data-name="Layer 1"><path d="M28.284,0A28.285,28.285,0,1,0,56.569,28.284,28.284,28.284,0,0,0,28.284,0Zm0,44.948A16.664,16.664,0,1,1,44.948,28.284,16.663,16.663,0,0,1,28.284,44.948Z" fill="#f9d5ff"/></g></g>
</g>
</g>

<!-- ITEM 13 -->
<g transform="translate(596.0 1141.0) scale(0.8661988014636992 0.8661988014636992) rotate(0.0 28.284499999999998 28.284499999999998)">
<g transform="translate(-0.0 -0.0)">
<title>Asset 26</title><g id="Layer_2-i13" data-name="Layer 2"><g id="Layer_1-2-i13" data-name="Layer 1"><path d="M28.284,0A28.285,28.285,0,1,0,56.569,28.284,28.284,28.284,0,0,0,28.284,0Zm0,44.948A16.664,16.664,0,1,1,44.948,28.284,16.663,16.663,0,0,1,28.284,44.948Z" fill="#f9d5ff"/></g></g>
</g>
</g>

<!-- ITEM 14 -->
<g transform="translate(528.0 846.0) scale(4.868852459016393 4.885714285714286) rotate(352.2645132066516 30.5 17.5)">
<g transform="translate(-0.0 -0.0)">
<title>Asset 42</title><g id="Layer_2-i14" data-name="Layer 2"><g id="Layer_1-2-i14" data-name="Layer 1"><rect width="61" height="35" fill="#f9d5ff"/></g></g>
</g>
</g>

              </svg>