<svg xmlns="http://www.w3.org/2000/svg" viewBox="0 0 1200 1200" width="1200" height="1200"><g transform="translate(141.0 198.0) rotate(0.0 224.0 217.5) scale(1.305019080078068 1.2953290731399372)"><svg width="343.29" height="335.822" viewBox="0 0 343.29 335.822"><path d="M342.29 79.094V261.08c0 .263 0 .536-.021.798a31.063 31.063 0 0 1-6.931 18.892 31.351 31.351 0 0 1-16.529 10.669 30.11 30.11 0 0 1-3.508.683c-1.428.2-2.877.305-4.358.305H32.346A31.224 31.224 0 0 1 9.38 282.409a31.012 31.012 0 0 1-4.946-7.057 29.494 29.494 0 0 1-2.247-5.744A30.88 30.88 0 0 1 1 261.08V79.094c0-17.316 14.03-31.346 31.346-31.346h278.597c17.317-.001 31.347 14.029 31.347 31.346z" fill="#fff"/><path d="M310.943 293.426H32.346c-8.974 0-17.612-3.769-23.7-10.339a32.032 32.032 0 0 1-5.103-7.28 30.586 30.586 0 0 1-2.322-5.938A31.904 31.904 0 0 1 0 261.08V79.094c0-17.836 14.51-32.347 32.346-32.347h278.597c17.836 0 32.346 14.511 32.346 32.347V261.08c0 .288-.001.589-.024.878a31.922 31.922 0 0 1-.995 7.203 32.285 32.285 0 0 1-6.156 12.237c-4.331 5.37-10.388 9.28-17.055 11.008-1.204.31-2.424.547-3.627.706-1.488.208-3 .314-4.489.314zM32.346 48.747C15.613 48.747 2 62.36 2 79.094V261.08c0 2.819.386 5.595 1.148 8.251a28.612 28.612 0 0 0 2.175 5.562 30.039 30.039 0 0 0 4.788 6.831 30.399 30.399 0 0 0 22.236 9.701h278.597c1.396 0 2.816-.1 4.22-.295a29.04 29.04 0 0 0 3.397-.661c6.252-1.62 11.935-5.288 15.999-10.328a30.261 30.261 0 0 0 5.774-11.476c.571-2.232.886-4.523.936-6.81.021-.295.021-.541.021-.776V79.094c0-16.733-13.613-30.347-30.346-30.347z" fill="#1d0333"/><circle cx="283.483" cy="62.449" fill="#fff" r="5.251"/><circle cx="298.184" cy="62.449" fill="#fff" r="5.251"/><circle cx="312.886" cy="62.449" fill="#fff" r="5.251"/><path d="M109.163 191.614c-.835 17.85 10.925 32.492 25.203 34.654 15.324 2.32 26.657-10.78 27.303-11.551-1.213-2.654-8.219-17.309-25.203-23.103-12.669-4.321-23.606-1.228-27.303 0z" fill="#1d0333"/><path d="M262.858 265.112a273.215 273.215 0 0 0-23.271 27.314H32.346A31.224 31.224 0 0 1 9.38 282.408a31.012 31.012 0 0 1-4.946-7.057 29.494 29.494 0 0 1-2.247-5.744A30.868 30.868 0 0 1 1 261.08v-3.591c9.336-15.531 17.316-26.873 25.056-37.416.935.21 1.859.42 2.772.63a2285.784 2285.784 0 0 0 43.738 9.577l.473.094c1.617.336 3.203.672 4.778.987a.35.35 0 0 0 .105.021c2.352.483 4.652.956 6.91 1.407 17.484 3.518 32.176 6.164 44.578 8.159 1.218.2 2.405.389 3.581.567 1.04.168 2.069.326 3.077.473 3.938.609 7.624 1.134 11.079 1.607 5.093.683 9.682 1.239 13.809 1.68l.924.095c3.465.357 6.605.641 9.462.861 5.702.431 21.559 1.481 42.971 5.681a354.348 354.348 0 0 1 25.308 5.933 348.011 348.011 0 0 1 23.237 7.267z" fill="#cc9af0"/><path d="M238.959 69.723c4.99.648 11.926 15.159 4.595 23.855-4.861 5.766-14.543 7.251-17.603 3.776-5.177-5.88 6.366-28.493 13.008-27.631z" fill="#1d0333"/><path d="M125.109 104.218c-.363.508-8.906 12.93-3.88 20.804 3.705 5.811 12.654 5.855 13.25 5.855 24.029-.203 37.758-50.557 55.555-58.504 1.917-.857 3.879-1.22 5.913-.973.16.015 5.521 2.063 16.155 6.45 2.296.944 4.329 1.758 6.13 2.47 6.117 2.411 9.545 3.516 11.1 3.632 11.593.886 23.826-9.995 29.273-20.615 5.957-11.608 5.39-25.961.116-37.99a46.62 46.62 0 0 0-3.37-6.363c-2.964-4.707-6.741-8.833-11.172-11.956-13.032-9.196-28.082-7.191-37.889-5.884-32.993 4.387-54.218 27.632-61.961 37.148-3.414-1.903-10.707-5.288-19.148-3.632-14.702 2.862-23.375 19.133-24.029 32.47-.74 15.151 8.732 29.853 23.957 37.088z" fill="#1d0333"/><path d="M136.949 113.661c0 .116 0 .218.015.334.029 5.448.726 10.896 1.99 16.242 2.092 8.891 5.71 17.492 10.387 25.337 5.956 10.01 13.613 18.77 21.995 25.249.087.073.174.145.261.203 10.199 7.831 21.429 12.305 31.903 11.579 15.022-1.032 25.293-12.523 26.383-13.772 7.22-8.295 9.327-18.145 9.356-31.017.015-4.881-.276-10.213-.697-16.053-.044-.61-.087-1.22-.145-1.845a487.435 487.435 0 0 0-.436-5.506c-.073-.93-.145-1.86-.232-2.804-.232-2.789-.45-5.433-.668-7.918a158.867 158.867 0 0 0-.392-4.315c-.363-3.952-.741-7.525-1.206-10.765-.828-5.739-1.889-10.489-3.516-14.659a35.002 35.002 0 0 0-2.615-5.404 35.263 35.263 0 0 0-1.7-2.542c-.334-.465-.683-.93-1.046-1.38-11.564-14.397-34.184-24.973-55.206-17.898-15.763 5.288-24.305 18.378-28.867 29.622l-.087.218c-3.501 8.688-4.634 16.257-4.896 18.233a66.936 66.936 0 0 0-.581 8.861z" fill="#ffb5a6"/><path d="M153.725 97.74a77.67 77.67 0 0 0-17.396-15.993c-7.589-5.08-16.392-10.974-21.951-7.728-4.673 2.729-5.432 10.969-4.204 16.612 3.633 16.698 28.597 28.765 38.398 21.743 1.685-1.208 5.169-4.588 5.153-14.634z" fill="#ffb5a6"/><path d="M133.506 104.779c-.083 0-.167-.01-.25-.031-3.944-1.019-7.214-3.204-8.748-5.846-.707-1.218-.937-2.389-.665-3.384.669-2.448 4.6-4.336 9.771-3.834-1.538-2.127-4.259-4.964-8.416-6.219a15.364 15.364 0 0 0-5.98-.56c-.542.046-1.04-.346-1.095-.896s.346-1.04.896-1.095a17.282 17.282 0 0 1 6.757.636c6.259 1.889 9.601 6.912 10.748 8.984a1 1 0 0 1-1.091 1.461c-5.554-1.233-9.295.708-9.661 2.049-.124.454.045 1.129.465 1.853.98 1.69 3.47 3.868 7.518 4.912a1 1 0 0 1-.249 1.97z" fill="#1d0333"/><path d="M136.774 113.554c-1.875 18.661-7.239 47.248-23.805 77.716a203.195 203.195 0 0 1-28.723 40.208c2.222 5.156 7.508 15.163 18.415 21.064 5.191 2.809 9.955 3.768 14.556 4.695 9.296 1.872 15.584 3.145 21.056.174 2.857-1.551 4.573-3.76 11.195-19.077 5.489-12.697 8.893-21.71 8.893-21.71 6.248-16.545 9.466-24.786 10.344-27.541 4.003-12.559 8.988-27.963 15.845-48.776l-47.776-26.753z" fill="#ffb5a6"/><path d="M171.683 180.786c-5.855-5.09-8.985-10.146-10.801-14.122-4.868-10.749-7.57-20.894-9.549-20.581-.839.13-1.144 2.092-1.563 4.642-.92 5.763-.232 10.109.358 15.168.932 7.907.301 6.415 1.046 11.558 1.287 8.898 1.93 13.34 4.895 16.253.988.971 3.894 3.471 9.932 3.802z" fill="#1d0333"/><path d="M206.712 124.091c-.189.966-1.044 1.529-1.603 1.913-2.933 1.972-5.788.008-11.22-.852a28.546 28.546 0 0 0-3.373-.338c-4.758-.195-7.591.841-8.919-.983-.896-1.237-.447-2.942-.399-3.1 1.087-3.831 8.122-5.986 13.804-5.146 1.142.163 2.286.463 3.389.847 1.949.689 3.766 1.678 5.192 2.777 2.11 1.604 3.412 3.439 3.129 4.882zm33.552 4c-.137.759-.825 1.209-1.278 1.501-2.359 1.552-4.671-.004-9.049-.707a23.91 23.91 0 0 0-2.708-.281c-.136-.009-.272-.006-.407-.015-3.599-.105-5.742.606-6.788-.79-.74-.991-.377-2.33-.343-2.464.86-3.016 6.523-4.693 11.113-4.013.92.136 1.846.372 2.73.692a15.552 15.552 0 0 1 3.716 1.873c1.991 1.347 3.259 2.956 3.014 4.204z" fill="#fff"/><path d="M217.352 120.336a71.817 71.817 0 0 0 2.943 6.694 84.834 84.834 0 0 0 3.583 6.377c.637 1.05 1.299 2.078 1.907 3.219.285.592.619 1.165.704 2.066.034.209-.02.493-.071.745-.101.255-.217.526-.407.727-.376.422-.848.603-1.237.703-.796.182-1.48.136-2.147.075a16.818 16.818 0 0 1-1.924-.328c-1.246-.283-2.449-.645-3.639-1.034a1 1 0 1 1 .648-1.892l.01.004c1.134.412 2.276.794 3.419 1.092 1.114.286 2.354.523 3.22.368.203-.041.329-.111.364-.152.031-.05.07-.06.06-.235-.005-.332-.227-.894-.472-1.4-.515-1.046-1.148-2.111-1.752-3.182-1.225-2.143-2.39-4.342-3.43-6.592a73.112 73.112 0 0 1-2.771-6.896.527.527 0 0 1 .992-.359zm-10.64 3.755c-.189.966-1.044 1.529-1.603 1.913-2.933 1.972-5.788.008-11.22-.852a28.546 28.546 0 0 0-1.843-.235c.331-1.229 1.087-2.529 1.876-3.393 2.328-2.558 6.268-2.913 9.66-2.314 2.111 1.603 3.413 3.438 3.13 4.881zm33.552 4c-.137.759-.825 1.209-1.278 1.501-2.359 1.552-4.671-.004-9.049-.707a23.91 23.91 0 0 0-2.708-.281c-.136-.009-.272-.006-.407-.015a9.31 9.31 0 0 1 1.479-2.28c2.168-2.383 5.731-2.85 8.949-2.423 1.991 1.348 3.259 2.957 3.014 4.205zm-60.748-21.032c.767 1.167 5.556-2.313 11.94-3.216 9.088-1.285 15.417 3.466 16.762 1.376.737-1.145-.594-3.591-2.067-4.822-.451-.377-1.329-.982-3.444-1.377-2.551-.477-3.888-.084-6.615.071-5.741.326-6.618-1.029-9.414.231-1.575.709-2.913 1.868-3.674 2.526-1.574 1.362-2.25 2.382-2.569 2.915-.728 1.215-1.161 1.927-.919 2.296zm44.542 1.837c.683 1.278 2.92.407 6.203 1.148 3.094.697 5.346 2.441 6.799 3.647a158.867 158.867 0 0 0-.392-4.315c-.654-.552-1.54-1.162-2.688-1.787-2.906-1.613-6.741-3.719-8.746-2.107-.377.305-1.19 1.162-1.176 3.414z" fill="#1d0333"/><path d="M206.269 150.561c-5.913-2.828-6.883-8.548-9.373-8.065-2.166.42-3.273 5.102-3.047 8.47.254 3.786 2.383 8.715 6.74 10.367 7.647 2.899 16.386-6.484 15.467-8.876-.576-1.498-4.623.574-9.787-1.896z" fill="#fff"/><path d="M140.087 84.155c7.464 8.192 12.88 9.27 16.35 8.869 11.097-1.281 14.48-19.088 29.057-20.693 2.959-.326 5.392.125 7.402.497 10.577 1.958 14.203 8.185 23.027 7.742a20.851 20.851 0 0 0 5.018-.903c6.399-1.978 7.849-5.808 11.6-6.657 2.412-.546 6.212.041 12.006 5.763-1.136-28.083-15.531-50.966-33.717-55.372-27.737-6.72-54.38 31.946-59.384 39.209a104.122 104.122 0 0 0-11.359 21.545z" fill="#1d0333"/><path d="M180.3 27.394c5.347-2.223 9.515-2.876 12.756-2.702 2.469.116 4.402.726 5.927 1.482 6.654 3.283 6.073 9.603 13.889 14.557 5.23 3.327 12.261 4.852 18.334 3.704a20.185 20.185 0 0 0 3.574-1.031c11.056-4.286 14.557-17.027 23.942-18.058a46.62 46.62 0 0 0-3.37-6.363c-.45-.116-.901-.203-1.351-.276a1.65 1.65 0 0 0 .087-.16c-4.068.16-7.409.973-10.111 1.961-8.295 3.051-13.395 8.92-18.29 11.288-1.99.959-3.952 1.337-6.073.712-4.402-1.278-5.259-5.462-7.99-8.891l-.015-.015c-.915-1.133-2.034-2.194-3.574-3.022-7.105-3.849-17.348.132-27.735 6.814z" fill="#eedcff"/><ellipse cx="181.764" cy="137.143" fill="#f99282" rx="8.037" ry="11.747" transform="matrix(.067 -.9978 .9978 .067 32.7572 309.3162)"/><path d="M239.245 147.817c-6.451-.458-11.429-4.386-11.133-8.802.269-4.01 4.772-7.029 10.426-7.256.426 5.84.712 11.176.707 16.058z" fill="#f99282"/><path d="M75.454 228.799c-.798.525-1.607 1.05-2.415 1.575-.158.105-.304.21-.462.305-2.804 1.859-5.629 3.707-8.432 5.555l-1.953 1.292c-15.426 10.165-30.863 20.32-46.3 30.496a54.838 54.838 0 0 0-6.511 14.387 31.012 31.012 0 0 1-4.946-7.057 29.494 29.494 0 0 1-2.247-5.744A30.843 30.843 0 0 1 1 261.08v-50.112c6.301 1.376 13.022 2.94 20.698 4.747 1.008.242 1.995.483 2.982.704 4.442 1.05 8.768 2.079 12.99 3.098 2.279.546 4.526 1.092 6.742 1.638a3942.68 3942.68 0 0 1 20.068 4.915c.357.095.704.178 1.05.263 2.426.599 4.799 1.187 7.12 1.764l.914.221c.64.155 1.26.313 1.89.481zm83.852 63.627c-4.348-8.601-8.685-17.212-13.022-25.812a5761.067 5761.067 0 0 1-5.597-11.089c-1.208-2.405-2.426-4.799-3.633-7.204.557-.01 1.113-.021 1.659-.021 3.202 0 6.069-.08 6.301-.084 1.947-.031 5.684-.597 13.505-3.045a419.387 419.387 0 0 1 21.002-3.15c37.298-4.636 64.832-8.058 93.461 3.15 8.762 3.431 23.311 9.338 34.654 24.153 6.351 8.295 9.518 16.537 11.173 22.116-2.52.641-5.156.987-7.866.987H159.306z" fill="#cc9af0"/><path d="M77.659 231.519c-1.079 21.135 13.288 39.949 33.368 44.34 18.93 4.139 38.731-5.461 47.492-23.337a164.806 164.806 0 0 1 0-10.501 166.1 166.1 0 0 1 3.15-27.303 44.205 44.205 0 0 1-10.501 1.05s-6.141-.124-12.601-2.1c-14.731-4.506-28.453-20.898-29.403-22.053a285.527 285.527 0 0 1-22.053 29.403 287.324 287.324 0 0 1-9.452 10.501z" fill="#cc9af0"/><g fill="#1d0333"><path d="M24.678 216.417c4.469 5.795 8.971 8.789 12.039 10.417 12.854 6.82 21.973 1.025 31.491 8.886 4.529 3.74 4.303 6.571 9.527 9.366 5.619 3.006 11.601 2.793 15.675 2.185a170.693 170.693 0 0 1-13.652-17.852c-18.359-4.335-36.72-8.668-55.08-13.002zm102.598 45.338c-18.064 0-37.05-12.17-48.383-31.838a1 1 0 0 1 1.733-.998c12.668 21.984 35.104 34.318 54.572 29.977 10.568-2.354 18.1-9.115 22.557-14.372a.999.999 0 1 1 1.525 1.293c-4.656 5.491-12.538 12.557-23.648 15.031a38.346 38.346 0 0 1-8.356.907z"/><path d="M140.587 293.426H32.346c-8.974 0-17.612-3.769-23.7-10.339a32.032 32.032 0 0 1-5.103-7.28 30.586 30.586 0 0 1-2.322-5.938A31.904 31.904 0 0 1 0 261.08v-86.894a1 1 0 1 1 2 0v86.894c0 2.819.386 5.595 1.148 8.251a28.612 28.612 0 0 0 2.175 5.562 30.039 30.039 0 0 0 4.788 6.831 30.399 30.399 0 0 0 22.236 9.701h108.241a1 1 0 1 1-.001 2.001z"/><circle cx="283.483" cy="62.449" r="5.251"/><circle cx="298.184" cy="62.449" r="5.251"/><circle cx="312.886" cy="62.449" r="5.251"/></g><path d="M335.338 280.769a31.351 31.351 0 0 1-16.529 10.669 30.11 30.11 0 0 1-3.508.683l-46.52-.746a42.791 42.791 0 0 1-3.15 2.1c-9.015 5.45-18.257 6.454-23.523 6.973-1.406.139-3.749.277-8.432.588-10.743.714-10.344.599-10.837.704-2.783.588-5.975 2.289-19.28 21.842-4.873 7.172-7.204 11.005-11.562 11.572-2.426.305-5.492-.389-7.718-2.573-3.539-3.486-2.657-8.538-2.562-9-.42 1.155-3.56 9.399-11.572 11.572-1.313.357-6.836 1.848-10.281-1.292-2.961-2.699-3.591-8.107-1.113-13.379-2.153 3.308-5.513 5.429-9.168 5.671-.809.052-4.893.242-7.708-2.573-3.403-3.392-3.675-9.871 0-15.416-1.586.273-11.457 1.932-14.135-2.573-1.796-3.014.452-7.393 1.281-9 .62-1.208 1.691-2.615 3.171-4.169 12.465-13.043 54.585-36.166 112.521-34.581 35.819.991 66.503 11.125 90.625 22.928z" fill="#ffb5a6"/><path d="M140.587 309.164a.998.998 0 0 1-.861-1.505 84.405 84.405 0 0 1 13.005-16.906c9.271-9.314 20.961-16.509 33.805-20.806a1 1 0 0 1 .635 1.897c-12.55 4.199-23.969 11.226-33.022 20.319a82.44 82.44 0 0 0-12.697 16.506 1.004 1.004 0 0 1-.865.495zm16.707 14.137a1 1 0 0 1-.941-1.339 79.855 79.855 0 0 1 14.315-24.726c6.889-8.107 15.208-14.676 24.726-19.521a1 1 0 0 1 .907 1.784c-9.281 4.725-17.393 11.128-24.109 19.033a77.835 77.835 0 0 0-13.958 24.108.999.999 0 0 1-.94.661zm23.133 3.855a.999.999 0 0 1-.972-1.238 60.553 60.553 0 0 1 7.84-18.294c4.65-7.249 10.975-13.574 18.292-18.292a1.002 1.002 0 0 1 1.084 1.682c-7.078 4.562-13.195 10.68-17.692 17.69a58.57 58.57 0 0 0-7.582 17.69.998.998 0 0 1-.97.762zm130.516-33.73H268.78a1 1 0 1 1 0-2h42.163c1.396 0 2.816-.1 4.22-.295a29.04 29.04 0 0 0 3.397-.661c6.252-1.62 11.935-5.288 15.999-10.328a30.261 30.261 0 0 0 5.774-11.476 30.12 30.12 0 0 0 .935-6.81c.022-.295.021-.541.021-.776v-76.526a1 1 0 1 1 2 0v76.526c0 .288-.001.589-.024.878a31.92 31.92 0 0 1-.994 7.203 32.285 32.285 0 0 1-6.156 12.237c-4.331 5.37-10.388 9.28-17.055 11.008-1.204.31-2.424.547-3.627.706a32.584 32.584 0 0 1-4.49.314z" fill="#1d0333"/></svg></g><g transform="translate(132.0 655.0) rotate(0.0 269.5 203.5) scale(1.2995717922999768 1.3035011978119115)"><svg width="414.752" height="312.236" viewBox="0 0 414.752 312.236"><path d="M342.29 63.703v181.986c0 .263 0 .536-.021.798a31.12 31.12 0 0 1-.966 7.036c-3.476 13.526-15.752 23.512-30.359 23.512H32.346c-12.171 0-22.725-6.931-27.912-17.075a29.494 29.494 0 0 1-2.247-5.744A30.868 30.868 0 0 1 1 245.689V63.703c0-17.316 14.029-31.346 31.346-31.346h278.597c17.317 0 31.347 14.029 31.347 31.346z" fill="#fff"/><g fill="#1d0333"><path d="M310.943 278.035H32.347c-12.209 0-23.246-6.751-28.804-17.62a30.598 30.598 0 0 1-2.321-5.937A31.852 31.852 0 0 1 0 245.689V63.703c0-17.836 14.511-32.346 32.347-32.346h278.597c17.836 0 32.346 14.51 32.346 32.346v181.986c0 .288-.001.588-.023.876a32.044 32.044 0 0 1-.994 7.206c-3.673 14.286-16.556 24.264-31.33 24.264zM32.347 33.357C15.613 33.357 2 46.97 2 63.703v181.986c0 2.821.386 5.597 1.147 8.251a28.617 28.617 0 0 0 2.176 5.562c5.215 10.198 15.569 16.532 27.023 16.532h278.597c13.86 0 25.946-9.36 29.391-22.761.57-2.231.885-4.522.935-6.809.021-.293.021-.539.021-.776V63.703c0-16.733-13.613-30.346-30.346-30.346z"/><circle cx="283.483" cy="47.058" r="5.251"/><circle cx="298.184" cy="47.058" r="5.251"/><circle cx="312.886" cy="47.058" r="5.251"/><path d="M231.233 139.758c-2.773 30.037 11.811 55.219 31.375 61.122 9.791 2.954 22.671 1.635 33.536-3.646 9.376-4.558 15.139-11.041 18.035-14.834.929 5.003 1.738 12.254.738 20.81-2.743 23.471-17.935 46.823-38.738 57.058-26.212 12.896-52.972.827-89.722-15.652-28.862-12.942-57.236-25.581-58.027-42.98-1.041-22.886 40.328-48.556 102.803-61.878z"/></g><path d="M288.555 277.035h-82.844c.399-2.289.693-4.442.525-8.369a63.32 63.32 0 0 0-2.982-16.613c-2.94-9.231-7.74-17.464-13.169-24.615a231.99 231.99 0 0 0-1.323-1.712c-.021-.032-.053-.063-.074-.095-3.791-4.778-7.823-9.042-11.698-12.759l-1.155-1.092a1527.597 1527.597 0 0 0 20.288 3.612c.399.063.788.137 1.176.2.137.021.263.042.399.074 15.878 2.688 28.805 4.621 38.476 5.975 17.264 2.426 31.441 4.074 40.902 15.216 5.387 6.343 7.078 13.211 7.981 17.359.042.189.084.368.115.557v.011c1.566 7.192 2.648 14.638 3.383 22.251z" fill="#b8bfcc"/><path d="M175.037 212.431c-.609 6.973-1.544 13.494-2.804 19.543-.021.073-.032.147-.053.22a122.161 122.161 0 0 1-1.239 5.366c-.063.252-.126.494-.199.746-4.348 16.581-11.457 28.994-21.486 36.313a37.172 37.172 0 0 1-3.738 2.415h-44.525c-9.535-3.234-19.354-8.002-28.815-13.788a93.498 93.498 0 0 1-2.541-1.596 161.43 161.43 0 0 1-8.18-5.513c-23.061-16.487-42.246-38.308-47.182-57.232-.053-.168-.095-.336-.137-.504-.168-.672-.368-1.46-.567-2.331-1.617-6.92-3.801-19.564 2.352-31.661 5.671-11.152 15.573-17.096 19.805-18.808 30.233-12.265 46.394-7.928 55.814-19.448 15.741-19.27-1.145-48.18 10.585-73.267 2.961-6.322 8.38-13.757 19.123-20.53 4.137-2.615 9.073-5.135 14.954-7.456 2.993-1.187 6.238-2.31 9.756-3.381a874.654 874.654 0 0 1 3.182 10.837 895.972 895.972 0 0 1 5.23 18.913 810.281 810.281 0 0 1 7.928 32.48.681.681 0 0 1 .042.2 754.593 754.593 0 0 1 2.825 13.2A664.22 664.22 0 0 1 167.824 111v.031a521.922 521.922 0 0 1 2.867 17.148c1.565 10.197 2.772 20.026 3.633 29.445 1.878 20.321 2.141 38.741.713 54.807z" fill="#1d0333"/><path d="M122.951 201.101c-17.768 20.183-35.546 40.367-53.315 60.55-1.06 1.197-2.111 2.394-3.161 3.591-3.465 3.927-6.931 7.865-10.386 11.793H32.346c-12.171 0-22.725-6.931-27.912-17.075a29.494 29.494 0 0 1-2.247-5.744A30.868 30.868 0 0 1 1 245.689v-23.25c.399-.882.809-1.754 1.208-2.604 0 0 0-.011.011-.021 3.802-8.065 7.729-15.195 12.056-20.908 5.135-6.784 10.837-11.572 17.59-13.589 7.54-2.247 15.458-2.646 15.458-2.646 13.998-.693 23.691 3.392 36.586 7.718a357.06 357.06 0 0 0 18.241 5.576 395.493 395.493 0 0 0 20.801 5.136z" fill="#b8bfcc"/><path d="M223.101 223.3c-1.922 11.499-3.854 22.987-5.776 34.486-1.082 6.416-2.153 12.833-3.224 19.249H50.419c1.092-2.079 2.216-4.211 3.36-6.385 2.436-4.61 4.988-9.451 7.676-14.513 9.335-17.653 20.225-38.13 32.953-61.926 2.583.588 5.156 1.166 7.74 1.754 8.768 1.974 17.537 3.959 26.306 5.944 5.145 1.166 10.301 2.321 15.447 3.486.346.084.704.157 1.05.242l.273.063c9.934 2.247 19.879 4.494 29.813 6.731a62.27 62.27 0 0 0 1.953.441c6.143 1.397 12.276 2.783 18.419 4.169.305.074.599.137.903.2h.011c.115.032.21.052.326.084 8.82 1.995 17.631 3.98 26.452 5.975z" fill="#b8bfcc"/><path d="M151.482 277.035H41.755a164.32 164.32 0 0 1 12.024-6.385 150.586 150.586 0 0 1 12.696-5.408 114.926 114.926 0 0 1 5.702-1.995c26.631-8.632 51.551-7.519 69.161 4.621a52.078 52.078 0 0 1 7.918 6.752 45.052 45.052 0 0 1 2.226 2.415zm45.933 0h-16.56c4.242-.893 10.217-1.554 16.56 0z" fill="#71757f"/><path d="M213.59 125.602c-.085 3.725-.29 9.217-.819 15.821-.21 2.669-.471 5.837-.85 9.447-.589 5.685-1.444 12.458-2.832 20.056-2.122 11.617-4.408 24.605-10.78 39.402-5.615 13.038-8.23 19.639-14.954 23.778-7.909 4.869-19.893 6.434-29.695.619-1.037-.615-11.958-7.098-12.512-17.294-.29-5.337 2.422-8.678 5.945-14.968 4.245-7.576 6.447-14.171 10.852-27.362 0 0 7.937-23.771 9.632-58.783.134-2.768.314-6.677.314-6.677.092-2.226.196-4.452.301-6.678 15.127 7.542 30.269 15.098 45.398 22.639z" fill="#e59588"/><path d="M252.665 129.201c-.588 1.418-6.363 14.544-19.364 19.816-27.891 11.299-76.47-18.955-83.736-58.628-.756-4.179-6.049-35.851 16.056-52.307 16.55-12.318 39.61-9.525 53.997-.115 8.349 5.429 12.822 13.578 19.102 28.101.578 1.355 1.197 2.751 1.806 4.221.808 1.911 1.659 3.917 2.541 6.017 2.237 5.303 4.274 10.155 6.017 14.67a171.563 171.563 0 0 1 1.512 4.022c1.26 3.486 2.31 6.784 3.077 9.934.389 1.544.714 3.056.956 4.536 1.166 6.984.735 13.327-1.964 19.733z" fill="#e59588"/><path d="M211.922 150.87c-.588 5.685-1.445 12.458-2.832 20.056a21.484 21.484 0 0 1-3.449-.929c-3.309-1.156-6.171-2.99-10.455-7.003-2.261-2.131-3.393-3.426-11.84-13.773-4.533-5.559-6.818-8.406-7.822-12.331-.583-2.268-1.455-7.298.184-8.098 2.431-1.201 7.068 8.681 17.208 15.245 6.28 4.073 12.934 6.006 19.006 6.833zm47.2-102.33c-29.216 13.971-46.296 11.835-56.714 6.527-10.627-5.409-20.246-17.028-26.17-13.99-2.834 1.439-3.528 5.849-3.649 9.451 1.978 16.088-1.94 29.254-10.461 33.305-2.715 1.289-5.193 1.324-6.92 1.329-12.243.074-24.907-11.128-28.883-22.3-7.58-21.33 13.953-50.012 37.719-59.196 15.285-5.901 29.622-3.019 31.81-2.553 12.019 2.575 20.116 8.67 23.425 11.214.396.303.781.606 1.155.907 5.377 4.357 8.974 8.782 12.416 13.157 5.316 6.756 10.254 13.372 20.768 19.346a70.664 70.664 0 0 0 5.504 2.803z" fill="#1d0333"/><path d="M164.542 85.326a67.603 67.603 0 0 0-18.712-8.527c-7.65-2.151-16.525-4.647-20.245-.46-3.128 3.52-1.528 10.541 1.012 14.877 7.517 12.83 31.428 16.064 37.638 7.607 1.067-1.454 3.035-5.191.307-13.497z" fill="#e59588"/><path d="M148.464 96.818c-3.167 0-6.052-.92-7.861-2.536-.94-.84-1.462-1.777-1.508-2.709-.107-2.213 2.558-4.834 6.868-5.88-1.846-1.295-4.739-2.757-8.331-2.679-1.72.039-3.418.423-5.049 1.142a1 1 0 1 1-.806-1.83 15.18 15.18 0 0 1 5.811-1.312c5.785-.127 9.891 3.148 11.409 4.562a.999.999 0 0 1-.584 1.727c-4.645.457-7.379 2.96-7.319 4.171.018.369.333.861.843 1.316 1.247 1.115 3.864 2.227 7.45 1.999a1.01 1.01 0 0 1 1.062.935 1 1 0 0 1-.935 1.061c-.354.022-.703.033-1.05.033z" fill="#1d0333"/><path d="M232.849 26.39c-8.76 1.898-15.054.813-19.575-.986-6.761-2.673-12.44-8.06-17.426-5.795-3.734 1.697-5.083 6.802-5.644 10.673-7.134-2.859-14.279-5.73-21.413-8.589 5.837.58 11.684 1.173 17.521 1.753.273-3.035 1.157-7.15 4.261-9.357 6.727-4.778 16.797 4.456 26.989.615a15.138 15.138 0 0 0 2.871-1.47c5.377 4.356 8.975 8.781 12.416 13.156z" fill="#eedcff"/><path d="M224.225 116.543c-3.736-1.071-5.834-2.665-7.166-1.634-.953.737-.858 2.309-.835 2.692.244 4.06 5.782 8.97 10.86 7.797 3.991-.922 6.999-5.439 6.089-7.259-.727-1.455-3.366.004-8.948-1.596zm-11.899-23.857c.084 1.05-.662 1.89-1.166 2.436-.179.22-.378.41-.577.567-1.649 1.418-3.686 1.449-6.458 1.46-1.46 0-3.129 0-5.051.189a26.527 26.527 0 0 0-3.644.557c-5.104 1.103-7.792 2.982-9.693 1.418-1.292-1.071-1.292-2.993-1.281-3.182.074-3.518 4.621-6.962 9.672-8.495a20.211 20.211 0 0 1 3.455-.714c.021-.011.032-.011.042-.011a18.533 18.533 0 0 1 3.812-.032c5.565.472 10.732 3.108 10.889 5.807zm34.993-6.081c.056.849-.546 1.495-.949 1.94-1.846 2.06-4.357 1.442-8.332 1.649-.444.012-.931.048-1.419.097-.906.078-1.888.217-2.947.446-4.108.872-6.284 2.346-7.823 1.118-1.037-.848-1.029-2.354-1.028-2.506.059-2.732 3.597-5.415 7.602-6.656a15.698 15.698 0 0 1 3.035-.645 16.09 16.09 0 0 1 3.057-.02c4.498.383 8.666 2.448 8.804 4.577z" fill="#fff"/><path d="M247.319 86.605c.056.849-.546 1.495-.949 1.94-1.846 2.06-4.357 1.442-8.332 1.649-2.021-.681-5.112-2.157-5.718-5.023a5.342 5.342 0 0 1 .103-2.478 15.698 15.698 0 0 1 3.035-.645 16.09 16.09 0 0 1 3.057-.02c4.498.383 8.666 2.448 8.804 4.577zm-34.993 6.081c.084 1.05-.662 1.89-1.166 2.436-.179.22-.378.41-.577.567-1.649 1.418-3.686 1.449-6.458 1.46-1.208-.284-8.768-2.006-9.903-7.351a6.929 6.929 0 0 1-.095-2.163 20.211 20.211 0 0 1 3.455-.714c.021-.011.032-.011.042-.011a18.533 18.533 0 0 1 3.812-.032c5.566.473 10.733 3.109 10.89 5.808zm9.746-5.337a73.217 73.217 0 0 0 4.819 5.639 85.387 85.387 0 0 0 5.346 5.14c.925.832 1.867 1.636 2.789 2.561.448.488.937.946 1.276 1.781.093.191.121.475.146.729-.023.271-.056.561-.179.806-.237.508-.635.817-.98 1.025-.711.405-1.386.56-2.048.695a17.05 17.05 0 0 1-1.958.244c-1.29.09-2.562.091-3.83.062a1.001 1.001 0 0 1 .046-2l.035.001h.01c1.22.076 2.44.121 3.637.084 1.167-.042 2.438-.163 3.251-.567.188-.1.298-.207.327-.268.022-.067.057-.104-.005-.278-.105-.335-.484-.818-.868-1.243-.803-.873-1.723-1.725-2.616-2.593-1.803-1.731-3.562-3.533-5.215-5.42a74.044 74.044 0 0 1-4.659-5.9.42.42 0 0 1 .676-.498zm18.458-17.056a30.074 30.074 0 0 0-2.015-.321c-1.871-.238-4.807-.607-8.104.165-4.769 1.125-6.787 3.818-8.035 2.867-.889-.667-.815-2.706-.09-4.046.369-.669.894-1.088 1.323-1.378 2.07-1.374 4.305-1.336 8.07-1.523 5.584-.272 5.63-.599 6.746-.131.119.053.199.089.291.139.586 1.357 1.196 2.758 1.814 4.228zm-34.648 5.676c-.732 2.12-5.035.55-12.091 2.953-1.752.597-8.144 2.772-13.329 8.38-2.007 2.171-3.43 4.419-3.965 4.134-.71-.379.986-4.775 1.237-5.427 1.301-3.372 2.041-5.289 3.909-6.833 1.672-1.382 2.207-.777 6.692-2.84 2.202-1.013 2.077-1.16 5.343-2.812 6.322-3.197 7.504-3.005 8.042-2.868 2.502.635 4.763 3.57 4.162 5.313z" fill="#1d0333"/><ellipse cx="197.268" cy="110.007" fill="#e27469" rx="11.475" ry="7.425" transform="matrix(.9998 -.0208 .0208 .9998 -2.2481 4.132)"/><path d="M253.673 104.932c-5.303 1.334-10.249-.095-11.52-3.56-1.313-3.56 1.743-8.023 6.931-10.396a171.563 171.563 0 0 1 1.512 4.022c1.261 3.486 2.311 6.784 3.077 9.934z" fill="#e27469"/><path d="M291.453 277.035H32.346c-12.171 0-22.725-6.931-27.912-17.075a29.494 29.494 0 0 1-2.247-5.744A30.868 30.868 0 0 1 1 245.689v-22.704c.41-1.071.819-2.121 1.208-3.15 0 0 0-.011.011-.021.378-.998.746-1.974 1.103-2.93 2.237-6.007 5.009-13.799 10.249-20.813 2.877-3.875 6.511-7.508 11.215-10.48 1.292-.809 7.351-4.537 17.884-6.311 18.22-3.087 31.283 2.783 56.455 11.257a784.618 784.618 0 0 0 29.319 9.22 863.533 863.533 0 0 0 15.395 4.337c.011.431.032.872.063 1.302.052.746.126 1.481.22 2.205v.011c1.292 9.661 6.563 18.094 14.492 22.095 4.116 2.079 8.81 2.888 13.567 2.489 5.723-.452 11.551-2.646 16.581-6.469a34.176 34.176 0 0 0 4.578-4.18l.011-.01a34.628 34.628 0 0 0 3.298-4.211c.367-.536.714-1.092 1.05-1.659l.315-.536a1256.789 1256.789 0 0 1 36.376 4.694c19.322 2.772 30.149 4.768 40.167 13.116 0 0 2.709 2.258 5.251 5.114 3.035 3.402 5.429 8.727 7.298 15.258 1.963 6.846 3.37 15.027 4.347 23.722z" fill="#f85572"/><path d="M169.49 233.123c-4.327 0-9.06-.995-13.591-3.94-8.375-5.442-12.896-15.488-11.801-26.217.057-.55.566-.947 1.097-.893a1 1 0 0 1 .894 1.096c-1.02 9.98 3.157 19.305 10.9 24.337 9.061 5.888 19.101 3.287 24.278 1.213 9.692-3.88 14.39-11.897 15.96-15.164a1 1 0 0 1 1.803.866c-1.671 3.478-6.676 12.013-17.019 16.155-2.982 1.193-7.476 2.547-12.521 2.547z" fill="#1d0333"/><path d="M310.943 278.035H32.346c-12.208 0-23.245-6.751-28.803-17.62a30.598 30.598 0 0 1-2.321-5.937A31.852 31.852 0 0 1 0 245.689V113.142a1 1 0 1 1 2 0v132.546c0 2.821.386 5.597 1.147 8.251a28.617 28.617 0 0 0 2.176 5.562c5.215 10.198 15.569 16.532 27.022 16.532h278.598c3.442 0 6.821-.574 10.043-1.708a30.244 30.244 0 0 0 19.348-21.054c.57-2.231.885-4.522.935-6.808.021-.293.021-.54.021-.776V113.142a1 1 0 1 1 2 0v132.546c0 .288-.001.588-.023.876a32.043 32.043 0 0 1-.994 7.205 32.24 32.24 0 0 1-20.623 22.445 32.193 32.193 0 0 1-10.707 1.821z" fill="#1d0333"/><path d="M220.475 280.185c.676 1.312 2.519 4.888 1.05 7.351-2.194 3.678-10.259 2.33-11.551 2.1 2.999 4.533 2.775 9.831 0 12.601-2.298 2.295-5.636 2.145-6.301 2.1-3.563-.241-6.786-2.659-8.401-6.301 3.042 4.788 2.739 10.107 0 12.601-2.817 2.565-7.33 1.341-8.401 1.05-6.546-1.776-9.11-8.511-9.451-9.451.072.373.799 4.498-2.1 7.351-1.816 1.787-4.323 2.355-6.301 2.1-3.562-.459-5.471-3.596-9.451-9.451-10.867-15.984-13.484-17.369-15.752-17.852-.409-.087-.075.011-8.855-.574-2.942-.196-5.345-.365-6.897-.476-4.356.09-11.415-1.161-23.103-7.351l-70.768 1.05c21.319-13.164 52.832-27.443 91.751-28.512 52.957-1.453 89.743 22.37 94.531 31.664z" fill="#e59588"/><path d="M211.025 290.637a.999.999 0 0 1-.864-.495 67.153 67.153 0 0 0-10.347-13.451c-7.379-7.412-16.685-13.138-26.912-16.559a1 1 0 1 1 .635-1.896c10.521 3.52 20.098 9.414 27.695 17.045a69.152 69.152 0 0 1 10.655 13.852 1.001 1.001 0 0 1-.862 1.504zm-13.652 11.551a.999.999 0 0 1-.94-.661 63.455 63.455 0 0 0-11.373-19.644 63.354 63.354 0 0 0-19.645-15.508 1 1 0 0 1 .908-1.783 65.334 65.334 0 0 1 20.26 15.996 65.39 65.39 0 0 1 11.73 20.261 1 1 0 0 1-.94 1.339zm-18.903 3.15a1 1 0 0 1-.97-.762 47.669 47.669 0 0 0-6.172-14.4c-3.66-5.706-8.64-10.686-14.402-14.401a1 1 0 1 1 1.084-1.68c6.001 3.869 11.188 9.057 15.002 15.002a49.657 49.657 0 0 1 6.43 15.003 1 1 0 0 1-.972 1.238zm-74.55-27.303H32.504a1 1 0 1 1 0-2h71.416a1 1 0 1 1 0 2z" fill="#1d0333"/><path d="M370.643 162.572c.189 1.124 34.539-6.28 37.804 2.1.536 1.376.136 2.688 0 3.15-2.52 8.411-20.908 3.234-42.005 13.652-7.487 3.696-7.886 5.692-16.802 9.451-2.877 1.218-5.282 2.037-7.351 2.625-6.857 1.974-9.913 1.344-13.652 3.675-11.362 7.099-7.96 28.49-7.351 58.807a506.55 506.55 0 0 1 .032 19.238 31.185 31.185 0 0 1-10.375 1.764H275.26c6.154-19.301 9.472-36.187 11.373-49.356 2.184-15.164 4.421-30.664 3.15-51.456-1.953-31.85-12.538-57.085-5.251-60.907 2.258-1.187 6.07-.263 8.401 1.05 2.226 1.25 4.274 3.507 6.301 9.451 4.978 14.586.861 25.014 7.351 28.353.178.095.294.147.43.2 1.922.746 7.792.956 28.973-15.951a434.38 434.38 0 0 0 6.301-5.146c17.054-14.177 35.494-31.031 43.055-29.508 1.04.21 4.137.83 5.251 3.15.819 1.691.22 3.528 0 4.2-2.468 7.603-27.734 23.145-27.303 24.153.546 1.26 42.415-17.086 49.356-9.451.231.263.914 1.008 1.05 2.1.746 5.986-15.92 12.307-16.434 12.475-.21.063-.357.116-.41.137.011 0 .021-.011.042-.011 1.512-.389 13.105-3.213 16.802 2.1.136.2 1.124 1.649 1.05 3.15-.504 9.559-44.315 15.534-44.105 16.805z" fill="#e59588"/><path d="M353.842 141.519a1 1 0 0 1-.486-1.875l9.451-5.25a.999.999 0 0 1 1.359.389.999.999 0 0 1-.389 1.36l-9.451 5.25a.985.985 0 0 1-.484.126zm6.3 10.501a1 1 0 0 1-.293-1.956 608.751 608.751 0 0 1 22.089-6.311 611.899 611.899 0 0 1 16.83-4.208 1 1 0 1 1 .457 1.947 604.19 604.19 0 0 0-38.79 10.484c-.098.03-.197.044-.293.044zm3.149 13.652c-.458 0-.872-.317-.976-.783a1.001 1.001 0 0 1 .76-1.193l18.902-4.2a1.001 1.001 0 0 1 1.193.759 1.001 1.001 0 0 1-.76 1.193l-18.902 4.2a1.002 1.002 0 0 1-.217.024zm-52.348 112.363h-56.797a1 1 0 1 1 0-2h56.797c3.442 0 6.821-.574 10.043-1.708a30.425 30.425 0 0 0 11.914-7.691 1.001 1.001 0 0 1 1.447 1.381 32.428 32.428 0 0 1-12.699 8.198 32.198 32.198 0 0 1-10.705 1.82z" fill="#1d0333"/></svg></g><g transform="translate(636.0 430.0) rotate(0.0 234.5 184.0) scale(1.3004622325248654 1.3022999040969365)"><svg width="360.641" height="282.577" viewBox="0 0 360.641 282.577"><path d="M342.29 68.245v181.986c0 .263 0 .536-.021.798a31.12 31.12 0 0 1-.966 7.036c-3.476 13.526-15.752 23.512-30.359 23.512h-29.676c.294-2.174.588-4.358.871-6.574l-1.544 6.574H32.346c-12.171 0-22.725-6.931-27.912-17.075a29.494 29.494 0 0 1-2.247-5.744A30.868 30.868 0 0 1 1 250.231V68.245c0-17.316 14.029-31.346 31.346-31.346h278.597c17.317-.001 31.347 14.029 31.347 31.346z" fill="#fff"/><path d="M310.943 282.577h-29.676c-.116 0-.229-.02-.336-.058a.999.999 0 0 1-.337.058H32.347c-12.209 0-23.246-6.751-28.804-17.62a30.598 30.598 0 0 1-2.321-5.937A31.894 31.894 0 0 1 0 250.231V68.245c0-17.836 14.511-32.346 32.347-32.346h278.597c17.836 0 32.347 14.51 32.347 32.346v181.986c0 .289-.001.59-.024.88a32.041 32.041 0 0 1-.994 7.202c-3.673 14.286-16.556 24.264-31.33 24.264zm-28.531-2h28.531c13.86 0 25.946-9.36 29.391-22.761.57-2.231.885-4.522.935-6.808.022-.296.021-.541.021-.776V68.245c0-16.733-13.613-30.346-30.347-30.346H32.347C15.613 37.899 2 51.512 2 68.245v181.986c0 2.817.386 5.594 1.147 8.251a28.641 28.641 0 0 0 2.176 5.562c5.215 10.198 15.569 16.533 27.023 16.533h247.456l1.362-5.803a1 1 0 0 1 1.965.356 775.802 775.802 0 0 1-.717 5.447z" fill="#1d0333"/><path d="M177.861 226.887c-.021 2.195-.052 4.39-.105 6.595a462.871 462.871 0 0 1-.588 15.374c0 .063-.011.115-.011.168s-.011.105-.011.158l-.032.578c-.682 11.488-1.869 22.483-3.833 31.819H32.346c-12.171 0-22.725-6.931-27.912-17.075 26.453-22.767 40.934-32.753 61.59-34.528h.011c.095 0 .2-.01.294-.021 2.72-.231 4.904-.263 6.931-.147 6.185.347 9.231 1.428 16.644 2.594 0 0 .798.126 2.699.368 1.512.189 3.749.452 6.826.767 2.678.284 6.931.315 12.528.105 8.496-.315 20.089-1.218 34.014-2.73l1.218-.126a841.75 841.75 0 0 0 14.786-1.764c3.728-.462 7.571-.977 11.53-1.523 1.437-.203 2.886-.402 4.356-.612z" fill="#b8bfcc"/><path d="M94.114 133.834c-8.949-3.677-16.956-.581-18.611 3.988-1.444 3.986 2.119 8.621 2.659 9.306-2.446.434-11.955 2.412-17.282 10.635-6.457 9.968-4.219 25.179 6.647 35.893-2.373 3.326-7.22 11.152-6.647 21.27.778 13.751 11.039 22.431 15.953 26.588 17.868 15.116 54.166 25.755 74.445 6.647 21.617-20.37 8.088-58.581 6.647-62.481-14.766-39.948-59.114-50.779-63.811-51.846z" fill="#1d0333"/><path d="M265.368 281.577H85.64a526.338 526.338 0 0 1-.641-29.015l9.441-.378c.326-.011.661-.032.987-.042 7.267-.294 14.534-.588 21.801-.872l18.755-.756c4.264-.168 8.516-.346 12.78-.515.137-.011.273-.011.41-.021h.01c6.385-.252 12.759-.504 19.144-.767.598-.021 1.208-.053 1.806-.074l.903-.031h.021l6.112-.252c.473-.021.945-.032 1.418-.053h.032c.178-.01.357-.021.535-.021h.021c1.376-.063 2.741-.116 4.117-.168 1.691-.074 3.392-.137 5.082-.21l32.911-1.323h.011c2.804-.105 5.618-.221 8.422-.336 7.634-.305 15.269-.609 22.903-.924h.126l7.823-.315.252 2.352c.41 3.696.851 7.456 1.323 11.289a999.79 999.79 0 0 0 1.082 8.128c.65 4.685 1.364 9.452 2.141 14.304z" fill="#b8bfcc"/><path d="M341.303 258.065c-3.476 13.526-15.752 23.512-30.359 23.512h-29.676c.294-2.174.588-4.358.871-6.574l-1.544 6.574c-.042.168-.074.336-.126.504a19.024 19.024 0 0 0-2.52-.504h-66c-7.855-11.058-15.72-22.116-23.575-33.173-.378-.525-.756-1.05-1.124-1.575-.22-.305-.43-.609-.651-.914-.021-.031-.042-.052-.063-.084-2.919-4.117-5.849-8.233-8.779-12.349l-4.253-5.986c-2.982-4.19-5.954-8.38-8.937-12.57 7.529 2.961 17.359 6.206 29.025 8.306h.011c1.701.326 3.444.609 5.23.861.535.084 1.071.157 1.617.22a141.92 141.92 0 0 0 17.295 1.25c4.894.053 9.21-.157 13.116-.515 4.232-.389 7.991-.945 11.53-1.544 4.41-.725 8.474-1.512 12.654-2.069 4.904-.651 9.966-.998 15.951-.578a81.737 81.737 0 0 1 15.143 2.468h.011c5.23 1.355 10.123 3.182 14.733 5.345 12.392 5.786 22.693 13.956 31.672 21.895a368.914 368.914 0 0 0 8.748 7.5z" fill="#b8bfcc"/><path d="M342.269 251.029a31.12 31.12 0 0 1-.966 7.036c-3.476 13.526-15.752 23.512-30.359 23.512h-29.676c.294-2.174.588-4.358.871-6.574l-1.544 6.574c-.042.168-.074.336-.126.504a19.024 19.024 0 0 0-2.52-.504H119.401a162.176 162.176 0 0 1 2.961-6.511c.22-.462.451-.935.682-1.407 2.342-4.768 5.198-10.071 8.664-15.972v-.01c1.323-2.3 2.751-4.673 4.274-7.162 3.171-5.188 6.752-10.785 10.764-16.833.084-.126.157-.242.252-.368.252-.399.525-.809.798-1.208l.819-1.229c1.932 4.421 4.673 8.138 7.886 11.068 3.644 3.329 7.907 5.65 12.307 6.868.011.011.011.011.021.011.42.105.861.221 1.302.315.746.168 1.491.305 2.237.399.011.011.032.011.042.011 1.586.221 3.15.294 4.705.21a23.073 23.073 0 0 0 6.175-1.145 22.016 22.016 0 0 0 3.959-1.786c5.713-3.287 9.987-9.105 12.014-16.025v-.011a32.003 32.003 0 0 0 1.187-6.479c.011-.031.011-.052.011-.084a377.778 377.778 0 0 1 30.611-3.171 408.616 408.616 0 0 1 8.516-.463c.336-.021.672-.031 1.019-.042.641-.032 1.292-.052 1.943-.074.042-.011.094-.011.136-.011.483-.021.977-.031 1.47-.042a83.989 83.989 0 0 1 1.586-.053c.966-.031 1.932-.053 2.898-.063a75.23 75.23 0 0 1 2.184-.031c1.46-.032 2.93-.042 4.421-.042 10.743-.032 19.868.021 28.973 1.334.798.115 1.586.242 2.363.389 5.503.956 10.732 2.436 15.657 4.263 17.379 6.45 31.062 17.224 40.031 24.806z" fill="#759ef2"/><path d="M277.949 281.577h-1.722c.011-.063.011-.116.011-.178.073 0 .147.01.231.021.45.031.955.083 1.48.157zM205.782 60.718c3.824-1.074 17.199-4.321 30.576 2.659 3.733 1.948 11.01 5.569 14.623 13.294 5.178 11.07-2.755 18.415 1.329 23.929 7.631 10.301 39.139-10.176 57.163 2.659 6.764 4.817 9.434 12.762 10.635 18.611 11.901-4.753 25.145-2.024 33.234 6.647 8.631 9.25 8.473 22.129 5.318 30.576-5.36 14.348-22.29 23.717-41.211 21.27.735 8.775-3.418 17.091-10.635 21.27-8.528 4.938-17.36 1.798-18.611 1.329-6.182 3.664-15.167 8.071-26.588 10.635-32.352 7.263-80.913-.937-99.703-35.893-20.034-37.272-3.54-92.255 43.87-116.986z" fill="#1d0333"/><path d="M129.934 140.44c.058 3.583.22 8.865.686 15.221.184 2.568.415 5.616.757 9.09a298.04 298.04 0 0 0 2.595 19.306c2.52 14.808 4.291 25.211 9.33 37.515 5.2 12.696 7.8 19.043 15.013 23.411 7.488 4.534 18.987 6.377 28.553.785 1.177-.688 10.73-6.46 12.145-16.551.814-5.805-1.608-9.173-6.896-21.392-2.348-5.425-5.994-13.852-8.349-21.502 0 0-8.738-28.387-1.096-52.813.91-2.91 2.1-6.301 2.1-6.301a210.46 210.46 0 0 1 3.15-8.401 191.447 191.447 0 0 0-36.085 10.893 191.115 191.115 0 0 0-21.903 10.739z" fill="#e2957a"/><path d="M191.727 106.979c-7.231 38.117-54.144 66.895-80.908 55.846-12.457-5.148-17.928-17.807-18.487-19.186-2.558-6.162-2.922-12.277-1.764-18.986.755-4.317 2.141-8.89 3.98-13.879 1.993-5.413 4.519-11.306 7.351-17.93 8.689-20.283 13.02-30.437 22.792-36.728 13.897-8.943 36.099-11.489 51.941.468 21.147 15.961 15.855 46.377 15.095 50.395z" fill="#e2957a"/><path d="M127.205 165.221c.672 5.456 1.621 11.952 3.097 19.232.992-.198 2.11-.505 3.299-.958 3.16-1.173 5.878-2.99 9.922-6.928 2.134-2.091 3.198-3.358 11.128-13.464 4.255-5.429 6.399-8.209 7.291-12.003.519-2.192 1.263-7.045-.328-7.783-2.36-1.109-6.634 8.479-16.263 14.979-5.962 4.034-12.324 6.017-18.146 6.925z" fill="#1d0333"/><path d="M119.764 131.66c3.6-1.006 5.628-2.525 6.902-1.525.911.715.811 2.226.786 2.594-.261 3.903-5.618 8.59-10.494 7.429-3.832-.912-6.696-5.276-5.809-7.02.708-1.395 3.236.025 8.615-1.478zm11.588-22.876c-.075 1.027.639 1.83 1.104 2.369 2.448 2.803 5.872 1.588 11.619 2.19 1.084.112 2.248.284 3.503.564 4.892 1.093 7.472 2.918 9.314 1.425 1.255-1.018 1.259-2.865 1.253-3.04-.06-4.175-6.612-8.272-12.614-8.963a19.171 19.171 0 0 0-3.658-.054c-5.355.426-10.345 2.919-10.521 5.509z" fill="#fff"/><path d="M131.352 108.784c-.075 1.027.639 1.83 1.104 2.369 2.448 2.803 5.872 1.588 11.619 2.19 1.309-2.559 1.239-6.384-.913-8.91a6.18 6.18 0 0 0-1.289-1.158c-5.355.426-10.345 2.919-10.521 5.509z" fill="#1d0333"/><path d="M97.75 102.722c-.06.811.517 1.446.892 1.872 1.976 2.215 4.738 1.257 9.375 1.736.874.089 1.814.225 2.826.447 3.947.866 6.029 2.309 7.514 1.13 1.012-.803 1.015-2.262 1.009-2.401-.051-3.298-5.338-6.538-10.18-7.087a15.713 15.713 0 0 0-2.951-.044c-4.319.333-8.344 2.3-8.485 4.347z" fill="#fff"/><path d="M97.75 102.722c-.06.811.517 1.446.892 1.872 1.976 2.215 4.738 1.257 9.375 1.736 1.055-2.021.997-5.043-.74-7.039a4.974 4.974 0 0 0-1.04-.915c-4.321.332-8.346 2.299-8.487 4.346zm24.931 1.37a70.928 70.928 0 0 1-4.516 5.649 84.027 84.027 0 0 1-5.047 5.185c-.864.83-1.754 1.645-2.529 2.478-.371.405-.736.867-.835 1.18-.059.162-.024.187-.007.243.023.05.123.15.301.245.767.387 1.988.513 3.108.559a37.88 37.88 0 0 0 3.495-.06h.006a1 1 0 1 1 .072 1.998c-1.22.019-2.444.009-3.686-.087a16.464 16.464 0 0 1-1.885-.249c-.638-.135-1.289-.289-1.977-.687-.334-.205-.72-.507-.948-1.007-.119-.24-.149-.525-.17-.79.025-.248.055-.526.147-.71.337-.811.812-1.247 1.247-1.715.894-.885 1.806-1.651 2.702-2.445a82.742 82.742 0 0 0 5.176-4.904 70.262 70.262 0 0 0 4.674-5.387.421.421 0 0 1 .59-.073c.178.14.212.395.082.577zm-16.655-20.815c.279-.199.412-.279.678-.386 1.077-.452 1.117-.12 6.487.173 3.616.199 5.769.173 7.75 1.515.412.279.917.678 1.263 1.329.691 1.289.744 3.257-.106 3.895-1.21.904-3.137-1.702-7.71-2.805-3.164-.771-5.995-.425-7.79-.213-.798.093-1.555.226-2.247.359zm31.639 9.481c.69 2.043 4.838.561 11.609 2.917 1.682.585 7.814 2.719 12.764 8.144 1.916 2.1 3.27 4.272 3.786 4.001.685-.36-.918-4.599-1.155-5.227-1.229-3.251-1.928-5.1-3.715-6.596-1.599-1.34-2.117-.761-6.418-2.774-2.111-.988-1.99-1.129-5.12-2.739-6.059-3.115-7.198-2.938-7.716-2.81-2.409.596-4.602 3.404-4.035 5.084z" fill="#1d0333"/><ellipse cx="145.731" cy="125.548" fill="#bf7960" rx="7.141" ry="11.036" transform="matrix(.0275 -.9996 .9996 .0275 16.2238 267.7713)"/><path d="M102.431 117.862c-.109 3.945-5.141 7.002-11.228 6.835-.208-.006-.428-.012-.635-.043.755-4.317 2.141-8.89 3.98-13.879 4.636.958 7.973 3.804 7.883 7.087z" fill="#bf7960"/><path d="M219.076 96.611c-9.598 11.499-27.81 7.365-37.223 5.318-4.64-1.01-5.916-1.967-6.647-2.659-7.83-7.378 2.446-25.604-3.988-30.576-2.459-1.901-6.035-.838-9.306 0-3.403.877-33.793 8.415-55.834 1.329-5.171-1.662-14.357-4.613-18.611-13.294-.24-.492-5.769-12.257 1.329-21.27 5.211-6.62 15.035-8.947 23.929-5.318-.399-3.483-.372-6.501-.093-9.106.864-8.029 4.214-12.15 5.41-13.493a19.045 19.045 0 0 1 1.888-1.835c12.736-10.821 39.19-5.291 52.617 8.481 3.244 3.323 5.33 6.727 6.647 9.306 4.134-2.194 9.014-1.595 11.964 1.329 3.098 3.071 2.725 7.365 2.659 7.976 9.864-5.876 22.214-3.084 27.917 5.318 4.679 6.899 4.241 16.67-1.329 23.929 7.059 11.274 6.368 25.326-1.329 34.565z" fill="#1d0333"/><path d="M179.195 23.495c3.748 5.665 8.301 14.179 10.635 25.258 5.235 24.851-4.383 45.094-7.976 51.846l18.67-5.944c3.79-8.726 11.023-28.998 4.2-51.456a65.361 65.361 0 0 0-5.589-13.057c-.542-.886-4.52-7.161-11.964-7.976-3.583-.392-6.466.644-7.976 1.329z" fill="#fff"/><path d="M181.853 101.599a1 1 0 0 1-.883-1.47c4.992-9.382 12.654-28.506 7.88-51.17-1.857-8.818-5.388-17.2-10.49-24.912a1.001 1.001 0 0 1 .421-1.462c2.723-1.235 5.66-1.723 8.498-1.413 7.692.842 11.936 7.185 12.709 8.448a66.596 66.596 0 0 1 5.692 13.288c6.262 20.611 1.15 39.733-4.24 52.145a.998.998 0 0 1-.613.554l-18.67 5.944a.966.966 0 0 1-.304.048zm-1.161-77.635c4.886 7.641 8.287 15.905 10.115 24.583 4.563 21.662-1.92 40.152-6.968 50.37l15.946-5.077c5.189-12.113 9.997-30.549 3.98-50.35a64.623 64.623 0 0 0-5.504-12.858c-.668-1.092-4.438-6.732-11.2-7.472-2.528-.277-4.732.209-6.369.804z" fill="#1d0333"/><path d="M177.362 102.022a65.004 65.004 0 0 1 18.05-8.081c7.371-2.02 15.922-4.363 19.473-.313 2.985 3.405 1.402 10.147-1.069 14.301-7.312 12.29-30.328 15.247-36.245 7.074-1.018-1.404-2.886-5.011-.209-12.981z" fill="#e2957a"/><path d="M192.854 113.215c-.368 0-.74-.013-1.116-.039a1.001 1.001 0 0 1-.928-1.067.988.988 0 0 1 1.068-.928c3.426.239 5.947-.805 7.15-1.865.485-.428.786-.889.806-1.234.064-1.151-2.536-3.551-6.979-4.017a1 1 0 0 1-.573-1.731c1.475-1.354 5.492-4.491 11.029-4.324 1.912.056 3.794.494 5.594 1.302a1 1 0 1 1-.82 1.824 12.643 12.643 0 0 0-4.832-1.127c-3.418-.094-6.154 1.25-7.937 2.468 4.109 1.052 6.632 3.588 6.513 5.717-.05.906-.562 1.813-1.479 2.622-1.735 1.532-4.482 2.399-7.496 2.399z" fill="#1d0333"/><path d="M171.218 51.412c-2.632-7.83-6.793-16.192-13.294-17.282-6.833-1.143-10.582 6.713-17.282 5.318-8.322-1.728-8.096-14.955-17.282-18.611-3.363-1.329-7.059-1.024-10.728.199.864-8.029 4.214-12.15 5.41-13.493a19.045 19.045 0 0 1 1.888-1.835c6.607.279 10.409 2.379 12.736 4.493 5.876 5.318 4.281 12.403 10.635 15.953 5.769 3.217 10.143-.904 15.953 1.329 4.586 1.768 9.664 7.339 11.964 23.929z" fill="#eedcff"/><path d="M148.763 250c0 .105-.011.21-.011.315-.21 6.206-1.365 11.478-1.46 17.789-.074 4.967-.095 9.441-.116 13.473H32.346c-12.171 0-22.725-6.931-27.912-17.075a29.494 29.494 0 0 1-2.247-5.744c18.965-17.096 33.006-26.873 52.044-29.204 3.319-.42 5.797-.578 11.194-.525 4.536.031 11.142.22 22.042.525 1.533.031 3.035.074 4.516.115 6.647.168 12.948.336 18.86.473 11.215.283 12.843.231 28.269.578 2.951.063 5.345.126 6.847.157 0 .011.011.021.011.032a67.3 67.3 0 0 1 .777 2.772 70.927 70.927 0 0 1 1.386 6.626c.577 3.581.714 6.752.63 9.693z" fill="#759ef2"/><path d="M95.427 252.142c-.735-6.889-1.68-13.421-2.825-19.375-.199-1.05-.409-2.09-.619-3.098 6.647.168 12.948.336 18.86.473.378 1.155.746 2.321 1.113 3.497a532.363 532.363 0 0 1 5.272 17.632 483.053 483.053 0 0 1 1.943 7.057 527.73 527.73 0 0 1 2.856 11.1c.347 1.418.693 2.825 1.019 4.232a443.94 443.94 0 0 1 1.838 7.918H97.265c-.21-9.976-.809-19.784-1.785-28.952a7.865 7.865 0 0 0-.053-.484zm132.452 29.435.22-4.137c.494-9.336.987-18.661 1.47-27.986.053-.903.095-1.806.147-2.709.378-7.235.767-14.471 1.145-21.696.073-1.334.136-2.657.21-3.99a408.616 408.616 0 0 1 8.516-.463c.336-.021.672-.031 1.019-.042.641-.032 1.292-.052 1.943-.074.042-.011.094-.011.136-.011.483-.021.977-.031 1.47-.042a83.989 83.989 0 0 1 1.586-.053c.966-.031 1.932-.053 2.898-.063a75.23 75.23 0 0 1 2.184-.031c1.46-.032 2.93-.042 4.421-.042-.063.399-.136.798-.199 1.197-1.25 7.624-2.048 15.836-2.3 24.384a165.425 165.425 0 0 0-.084 4.011c-.042 4.757.074 9.588.368 14.471l.032.473c.346 5.566.934 11.194 1.785 16.802h-26.967z" fill="#f85572"/><path d="M181.621 135.61c-1.431 6.454-14.216 67.795 18.902 98.711 2.734 2.552 10.929 10.034 23.87 13.838 16.191 4.76 40.97 4.13 54.505-11.964 11.459-13.625 9.526-31.448 9.305-33.234-3.811-30.866-46.914-57.444-106.582-67.351z" fill="#1d0333"/><path d="M172.702 251.2c-12.16 0-23.299-7.908-27.683-19.981a1 1 0 0 1 1.881-.682c4.396 12.107 16.031 19.734 28.323 18.541 10.347-1.004 19.362-8.278 22.968-18.532a.999.999 0 1 1 1.886.663c-3.863 10.985-13.543 18.78-24.661 19.859-.908.089-1.815.132-2.714.132z" fill="#1d0333"/><path d="M310.943 282.577H32.347c-12.208 0-23.244-6.751-28.804-17.62a30.598 30.598 0 0 1-2.321-5.937A31.852 31.852 0 0 1 0 250.231v-85.018a1 1 0 1 1 2 0v85.018c0 2.821.386 5.597 1.147 8.251a28.617 28.617 0 0 0 2.176 5.562c5.216 10.198 15.57 16.533 27.023 16.533h278.597c13.86 0 25.946-9.36 29.391-22.761.57-2.231.885-4.522.935-6.808.022-.296.021-.541.021-.776v-78.36a1 1 0 1 1 2 0v78.36c0 .289-.001.59-.024.88a32.041 32.041 0 0 1-.994 7.202c-3.672 14.285-16.555 24.263-31.329 24.263z" fill="#1d0333"/><ellipse cx="196.848" cy="111.982" fill="#fff" rx="30.979" ry="23.628" transform="matrix(.2179 -.976 .976 .2179 44.6569 279.6933)"/><g fill="#1d0333"><path d="M194.12 143.66c-1.421 0-2.839-.155-4.241-.468-13.254-2.96-20.909-19.368-17.066-36.577 3.843-17.208 17.749-28.802 31.005-25.843 6.471 1.445 11.805 6.081 15.019 13.054 3.172 6.881 3.898 15.235 2.047 23.523s-6.062 15.54-11.859 20.418c-4.603 3.872-9.771 5.893-14.905 5.893zm5.488-61.351c-10.951 0-21.613 10.271-24.845 24.742-3.602 16.133 3.374 31.47 15.551 34.189 5.851 1.306 12.035-.471 17.421-5.003 5.464-4.598 9.44-11.46 11.196-19.323 1.756-7.863 1.077-15.765-1.912-22.25-2.946-6.393-7.79-10.633-13.638-11.939a17.22 17.22 0 0 0-3.773-.416z"/><path d="M197.19 134.558c-.999 0-1.997-.109-2.983-.329-9.271-2.07-14.635-13.507-11.958-25.495 1.285-5.759 4.215-10.8 8.249-14.194 4.11-3.458 8.878-4.806 13.418-3.792 9.271 2.07 14.635 13.507 11.958 25.495-1.285 5.759-4.215 10.8-8.249 14.194-3.218 2.707-6.836 4.121-10.435 4.121zm3.754-42.137c-3.133 0-6.31 1.252-9.158 3.649-3.701 3.114-6.395 7.766-7.586 13.099-2.436 10.911 2.248 21.277 10.442 23.106 3.919.876 8.073-.322 11.695-3.37 3.7-3.114 6.394-7.766 7.585-13.099l.976.218-.976-.218c2.436-10.911-2.248-21.277-10.442-23.106a11.667 11.667 0 0 0-2.536-.279zm-22.474 1.134a.999.999 0 0 1-.833-1.551c1.945-2.946 7.539-10.011 17.44-11.981 5.892-1.173 10.963-.055 14.182 1.089a1 1 0 1 1-.67 1.885c-2.979-1.059-7.679-2.095-13.121-1.012-9.163 1.823-14.355 8.385-16.163 11.122a1 1 0 0 1-.835.448z"/><circle cx="283.483" cy="51.6" r="5.251"/><circle cx="298.184" cy="51.6" r="5.251"/><circle cx="312.886" cy="51.6" r="5.251"/></g></svg></g><g transform="translate(448.0 506.0) rotate(0.0 120.0 120.0) scale(1.3000731291135128 1.3000731291135128)"><svg width="184.605" height="184.605" viewBox="0 0 184.605 184.605"><circle cx="92.303" cy="92.303" fill="#fff" r="91.299"/><g fill="#1d0333"><path d="M92.242 184.604c-48.329 0-89.054-37.749-92.064-86.628C-2.951 47.179 35.831 3.306 86.629.178c50.791-3.132 94.67 35.653 97.799 86.451 1.516 24.607-6.643 48.332-22.971 66.804s-38.873 29.479-63.48 30.995c-1.92.118-3.838.176-5.735.176zm.12-182.603c-1.86 0-3.729.057-5.61.173C37.054 5.235-.887 48.156 2.174 97.853c3.062 49.698 46.007 87.631 95.68 84.578 24.074-1.483 46.13-12.252 62.105-30.323 15.975-18.072 23.955-41.282 22.473-65.356-2.946-47.817-42.793-84.751-90.07-84.751z"/><path d="M108.742 120.395H51.824c-6.886 0-12.468-5.582-12.468-12.468V64.21h56.918c6.886 0 12.468 5.582 12.468 12.468z"/><path d="M108.742 121.395H51.824c-7.426 0-13.468-6.042-13.468-13.468V64.21a1 1 0 0 1 1-1h56.918c7.426 0 13.468 6.042 13.468 13.468v43.716a1 1 0 0 1-1 1.001zM40.356 65.21v42.716c0 6.323 5.145 11.468 11.468 11.468h55.918V76.679c0-6.324-5.145-11.468-11.468-11.468H40.356zm104.893 54.052-26.959-15.405V80.749l26.959-15.405z"/><path d="M145.249 120.262a.996.996 0 0 1-.496-.132l-26.959-15.405a.999.999 0 0 1-.504-.868V80.748c0-.359.192-.69.504-.868l26.959-15.405a1 1 0 0 1 1.496.868v53.919a1 1 0 0 1-1 1zm-25.959-16.986 24.959 14.262V67.066L119.29 81.329z"/></g></svg></g></svg>