<svg xmlns="http://www.w3.org/2000/svg" viewBox="0 0 2000 1400" width="2000" height="1400"><g transform="translate(124.0 421.0) rotate(0.0 875.5 277.5) scale(0.9994874130799853 0.9996847840770929)"><svg width="1751.898" height="555.175" viewBox="0 0 1751.898 555.175"><path d="M214.34 551.317h-79.363l-18.079-93.169h115.521z" fill="#ff89d8"/><path d="M228.945 520.848c-17.286 0-31.349-14.064-31.349-31.35s14.063-31.35 31.349-31.35 31.35 14.063 31.35 31.35-14.064 31.35-31.35 31.35zm0-50.7c-10.669 0-19.349 8.681-19.349 19.35s8.68 19.35 19.349 19.35 19.35-8.681 19.35-19.35-8.68-19.35-19.35-19.35z" fill="#ff89d8"/><path d="M1495.147 412.622h-34.249V295.657c0-5.32 4.313-9.632 9.632-9.632h14.984c5.32 0 9.632 4.313 9.632 9.632v116.965z" fill="#fff"/><path d="M1495.147 409.622h-34.249l3 3V300.6c0-1.624-.021-3.25 0-4.874.033-2.549 1.299-4.762 3.662-6.007 1.017-.536 1.954-.689 3.228-.696.958-.005 1.917 0 2.875 0h9.025c.878 0 1.757-.005 2.635 0 1.364.008 2.3.198 3.445.852 2.184 1.246 3.351 3.444 3.378 5.882.006.531 0 1.063 0 1.594v115.271c0 3.861 6 3.867 6 0V299.668c0-1.336.021-2.675 0-4.011-.076-4.943-2.945-9.543-7.52-11.528-2.656-1.153-5.329-1.104-8.141-1.104h-9.129c-2.864 0-5.549.009-8.239 1.231-4.421 2.008-7.146 6.617-7.219 11.402-.006.365 0 .73 0 1.095v115.869c0 1.622 1.375 3 3 3h34.249c3.86 0 3.867-6 0-6z" fill="#1b1464"/><path d="M1432.359 251.557h28.736v198.939h-28.736z" fill="#fff"/><path d="M1461.094 248.557h-28.735c-1.622 0-3 1.374-3 3v190.849c0 2.583-.057 5.172 0 7.754.002.111 0 .223 0 .335 0 1.622 1.374 3 3 3h28.735c1.622 0 3-1.374 3-3V259.646c0-2.583.057-5.172 0-7.754-.002-.111 0-.223 0-.335 0-3.861-6-3.867-6 0v190.849c0 2.575-.117 5.181 0 7.754.005.111 0 .223 0 .335l3-3h-28.735l3 3V259.646c0-2.575.116-5.181 0-7.754-.005-.111 0-.223 0-.335l-3 3h28.735c3.861 0 3.867-6 0-6z" fill="#1b1464"/><path d="M1460.358 272.462h-14.237c-1.569 0-3.073 1.38-3 3 .073 1.625 1.318 3 3 3h14.237c1.569 0 3.073-1.38 3-3-.073-1.625-1.318-3-3-3zm0 37.782h-14.237c-1.569 0-3.073 1.38-3 3 .073 1.625 1.318 3 3 3h14.237c1.569 0 3.073-1.38 3-3-.073-1.625-1.318-3-3-3zm0 37.782h-14.237c-1.569 0-3.073 1.38-3 3 .073 1.625 1.318 3 3 3h14.237c1.569 0 3.073-1.38 3-3-.073-1.625-1.318-3-3-3zm0 37.782h-14.237c-1.569 0-3.073 1.38-3 3 .073 1.625 1.318 3 3 3h14.237c1.569 0 3.073-1.38 3-3-.073-1.625-1.318-3-3-3zm0 37.782h-14.237c-1.569 0-3.073 1.38-3 3 .073 1.625 1.318 3 3 3h14.237c1.569 0 3.073-1.38 3-3-.073-1.625-1.318-3-3-3z" fill="#1b1464"/><path d="M1472.661 347.19h31.498v140.993h-31.498z" fill="#fff"/><path d="M1504.159 344.19h-31.498c-1.622 0-3 1.375-3 3v123.716c0 5.672-.171 11.375 0 17.045.002.077 0 .155 0 .233 0 1.622 1.375 3 3 3h31.498c1.622 0 3-1.374 3-3V364.468c0-5.672.171-11.375 0-17.045-.002-.077 0-.155 0-.233 0-3.861-6-3.867-6 0v135.233c0 1.83-.113 3.701 0 5.528.005.077 0 .156 0 .233l3-3h-31.498l3 3V352.951c0-1.83.113-3.701 0-5.528-.005-.077 0-.156 0-.233l-3 3h31.498c3.861 0 3.867-6 0-6z" fill="#1b1464"/><path d="M1500.398 347.19h-23.976l11.988-20z" fill="#fff"/><path d="M1500.398 344.19h-23.976l2.59 4.514 10.47-17.468 1.518-2.532h-5.181l10.47 17.468 1.518 2.532c1.983 3.309 7.173.295 5.181-3.028l-10.47-17.468-1.518-2.532c-1.164-1.942-4.016-1.942-5.181 0l-10.47 17.468-1.518 2.532c-1.174 1.959.336 4.514 2.59 4.514h23.976c3.862 0 3.868-6 .001-6z" fill="#1b1464"/><path d="M1428.823 520.544h75.499v31.604h-75.499z" fill="#fff"/><path d="M1504.322 517.544h-75.5c-1.622 0-3 1.375-3 3v31.604c0 1.622 1.374 3 3 3h75.5c1.622 0 3-1.375 3-3v-31.604c0-3.861-6-3.867-6 0v31.604l3-3h-75.5l3 3v-31.604l-3 3h75.5c3.861 0 3.867-6 0-6z" fill="#1b1464"/><path d="M1423.555 388.859h86.034v136.952h-86.034z" fill="#fff"/><path d="M1509.589 385.859h-75.416c-3.481 0-6.991-.131-10.47 0-.049.002-.099 0-.149 0-1.622 0-3 1.374-3 3v120.127c0 5.519-.168 11.068 0 16.586.002.08 0 .16 0 .239 0 1.622 1.375 3 3 3h75.416c3.481 0 6.991.131 10.47 0 .049-.002.099 0 .149 0 1.622 0 3-1.374 3-3V405.684c0-5.519.168-11.068 0-16.586-.002-.08 0-.16 0-.239 0-3.861-6-3.867-6 0v131.365c0 1.77-.112 3.581 0 5.348.005.079 0 .16 0 .239l3-3h-75.416c-3.453 0-7.024-.263-10.47 0-.049.004-.099 0-.149 0l3 3V394.446c0-1.77.112-3.581 0-5.348-.005-.079 0-.16 0-.239l-3 3h75.416c3.481 0 6.991.131 10.47 0 .049-.002.099 0 .149 0 3.861 0 3.867-6 0-6zm213.371 163.289c-224.38-.058-448.76-.093-673.141-.115-223.088-.021-446.176-.029-669.264-.032L2.898 549c-3.861 0-3.867 6 0 6 224.273 0 448.546 0 672.82.009 223.118.009 446.236.026 669.354.062 125.963.02 251.925.045 377.888.078 3.861 0 3.867-6 0-6.001z" fill="#1b1464"/><path d="M309.927 232.501h191.01v319.566h-191.01z" fill="#fff"/><path d="M309.927 235.501h183.235c2.457 0 5 .19 7.452 0 .107-.008.217 0 .324 0l-3-3v306.595c0 4.129-.175 8.302 0 12.429.008.18 0 .363 0 .543l3-3H317.703c-2.457 0-5-.19-7.452 0-.107.008-.217 0-.324 0l3 3V245.473c0-4.14.074-8.289 0-12.429-.003-.181 0-.362 0-.543 0-3.861-6-3.867-6 0v306.595c0 4.141-.074 8.289 0 12.429.003.181 0 .362 0 .543 0 1.622 1.375 3 3 3h167.528c7.705 0 15.456.246 23.159 0 .108-.003.216 0 .324 0 1.622 0 3-1.375 3-3V245.473c0-4.14.074-8.289 0-12.429-.003-.181 0-.362 0-.543 0-1.622-1.375-3-3-3H333.41c-7.705 0-15.456-.246-23.159 0-.108.003-.216 0-.324 0-3.861 0-3.867 6 0 6z" fill="#1b1464"/><path d="M696.692 409.95H115.737V3.064h580.955z" fill="#fff"/><path d="M696.692 406.95H139.319c-7.468 0-15.139-.507-22.595 0-.326.022-.661 0-.988 0l3 3V19.575c0-5.169.551-10.684 0-15.832-.024-.221 0-.457 0-.68l-3 3h557.373c7.468 0 15.139.507 22.595 0 .326-.022.661 0 .988 0l-3-3v390.375c0 5.269-.156 10.565 0 15.832.007.226 0 .453 0 .68 0 3.861 6 3.867 6 0V19.575c0-5.269.156-10.565 0-15.832-.007-.226 0-.453 0-.68 0-1.622-1.374-3-3-3H139.319c-7.527 0-15.069-.144-22.595 0-.329.006-.659 0-.988 0-1.622 0-3 1.374-3 3v390.375c0 5.269-.156 10.565 0 15.832.007.226 0 .453 0 .68 0 1.622 1.374 3 3 3h557.373c7.527 0 15.069.144 22.595 0 .329-.006.659 0 .988 0 3.861 0 3.867-6 0-6z" fill="#1b1464"/><path d="m74.903 113.152 90.06-14.148 11.638 74.081-90.06 14.149z" fill="#ff89d8"/><path d="M260.725 264.618c-1.72.094-3.403.795-4.998 1.384-2.85 1.053-5.66 2.215-8.459 3.395a536.336 536.336 0 0 0-24.193 10.934c-7.811 3.757-15.594 7.641-23.06 12.052-2.807 1.658-5.56 3.404-8.128 5.418-2.032 1.593-3.476 3.267-4.303 5.76-1.686 5.079-1.665 10.873-1.673 16.166-.01 6.662.37 13.32.784 19.967.097 1.553.196 3.105.295 4.658.103 1.617 1.305 3 3 3 1.545 0 3.103-1.375 3-3-.408-6.435-.835-12.872-1.006-19.319-.082-3.085-.11-6.174-.008-9.26.047-1.437.123-2.874.246-4.307.052-.607.121-1.212.185-1.818.062-.584-.043.219.044-.346.049-.317.097-.635.152-.951.181-1.043.407-2.082.733-3.09.066-.203.141-.402.21-.604.191-.564-.07.1.003-.019.085-.141.167-.303.243-.449.294-.568-.18.194-.138.153.152-.15.281-.331.428-.487.314-.333.651-.645.996-.945.19-.166.383-.327.578-.487.103-.084.21-.166.313-.251.463-.383-.484.353-.11.084.541-.389 1.072-.791 1.62-1.171a81.873 81.873 0 0 1 3.897-2.518c7.029-4.297 14.416-8.025 21.813-11.64a543.257 543.257 0 0 1 23.685-10.89l1.224-.525.699-.297.425-.18.314-.132.566-.237a217.995 217.995 0 0 1 5.371-2.173c1.778-.69 3.566-1.378 5.411-1.871.107-.029.225-.035.329-.07.454-.154-.948.094-.488.069 1.618-.089 3-1.315 3-3 0-1.559-1.374-3.092-3-3.003zm165.543 2.611c-2.737 2.524-5.188 5.384-7.645 8.175-3.809 4.328-7.533 8.731-11.237 13.149-7.784 9.288-15.454 18.671-23.092 28.079-2.765 3.405-5.413 6.99-8.391 10.213a21.89 21.89 0 0 1-1.632 1.592c-.102.09-.208.178-.316.261.434-.333.07-.064-.02-.008a22.26 22.26 0 0 1-.945.547c-.376.207.48-.148.073-.032-.147.042-.291.098-.439.138-.269.074-.842.131-.231.084-.327.025-.65.041-.978.031-.173-.005-.344-.022-.517-.033-.571-.037.204.053-.161-.028-3.687-.822-7.135-2.422-10.27-4.518-5.145-3.439-9.531-8.413-13.963-12.885-3.755-3.789-7.505-7.583-11.273-11.359-8.141-8.158-16.195-16.602-25.025-24.027a55.824 55.824 0 0 0-2.324-1.847c-1.295-.976-3.354-.207-4.105 1.076-.899 1.536-.222 3.126 1.076 4.105.547.412-.459-.38-.087-.069.149.124.304.241.454.363.338.274.673.554 1.005.836.824.7 1.634 1.418 2.437 2.142a280.787 280.787 0 0 1 5.84 5.445c4.697 4.485 9.314 9.054 13.911 13.642 4.132 4.124 8.241 8.272 12.348 12.42 4.194 4.236 8.262 8.705 12.874 12.488 3.41 2.796 7.069 5.005 11.172 6.631 3.128 1.239 6.767 2.306 10.066 1.068 3.285-1.232 5.555-4.034 7.701-6.679l3.273-4.039c7.385-9.11 14.795-18.2 22.294-27.216 6.78-8.152 13.472-16.53 20.92-24.091.473-.48.953-.954 1.448-1.411 1.191-1.099 1.113-3.13 0-4.243-1.185-1.187-3.046-1.102-4.241 0z" fill="#1b1464"/><path d="M406.261 64.633c4.883 20.166-24.345 39.871-34.766 54.084-5.745 7.835-10.264 19.249-16.827 26.152-4.827 5.076-1.508 3.668-8.006 6.693-4.269 1.988-3.6 2.321-6.409 7.017-5.8 9.698-4.485 13.84 4.832 20.684 5.587 4.104 4.632.32 6.789 8.104 1.391 5.021 1.139 13.525.781 18.589-1.482 20.931-15.503 35.81-15.02 56.794.163 7.099.288 14.312-.647 21.6-13.953-.789-32.121-4.85-46.215-7.935-14.672-3.211-31.05-6.525-44.558-13.604-1.036-13.422 5.673-29.757 10.143-42.169-9.172 8.437-20.777 6.883-25.913 35.335-.253 1.4-1.85 2.127-3.038 1.343-13.252-8.74-25.487-26.767-29.365-42.17 10.08-4.942 16.113-4.804 23.175-14.693 7.141-10.001 6.494-22.231 11.443-33.014 9.461-20.612 39.505-14.401 47.009-35.765 3.8-10.817 1.866-22.714 7.103-33.303 4.242-8.576 13.688-14.56 21.215-19.973 17.965-12.919 35.268-20.59 56.056-20.063 13.377.339 24.05 1.949 39.24 6.476.375.153 1.044-.011 2.978-.182z" fill="#1967ff"/><path d="M418.969 126.427c-1.149-.77-2.675-.682-3.918-.202-1.199.462-2.451 1.394-3.298 2.703-.205.317-.415.852-.556 1.213-.914 2.348-.542 3.858.78 5.567.898 1.161 2.876 2.035 4.303 1.46 1.434-.578 2.278-1.807 3.072-3.083 1.377-2.213 2.178-5.942-.383-7.658zm-5.995-7.916c1.638-.979 3.142-2.17 4.799-3.118.396-.227.802-.439 1.221-.622-.38.166-.199.088.083-.005.193-.064.388-.122.586-.171.143-.035.888-.115.173-.065.211-.015.419-.033.631-.036.218-.003.434.012.651.021.745.033-.569-.162.13.028.3.081.826.117 1.072.319-.346-.151-.419-.179-.218-.084.098.046.193.095.288.147.157.086.306.183.458.275.388.235.253.037-.008-.031.119.031.386.339.472.423.126.124.243.255.363.384.313.335.229.099-.005-.028.246.134.492.758.619.999.069.131.223.331.237.484-.144-.352-.176-.424-.095-.216a9.444 9.444 0 0 1 .406 1.363c.031.142.046.531.119.652l-.052-.357c.015.148.027.295.036.444.109 1.562 1.302 3.076 3 3 1.532-.069 3.117-1.323 3-3-.325-4.649-2.95-9.139-7.658-10.454-2.582-.721-5.152-.284-7.542.827-2.071.963-3.843 2.471-5.796 3.638-1.347.805-1.96 2.733-1.076 4.105.875 1.357 2.665 1.94 4.106 1.078zm2.246 52.964c2.693 4.27 6.255 8.89 11.109 10.768 2.351.909 5.025 1.435 7.543 1.142 3.144-.366 5.723-1.765 8.159-3.732 1.261-1.019 1.06-3.182 0-4.243-1.247-1.247-2.978-1.021-4.243 0-.721.582-1.773 1.224-2.461 1.516-.153.065-.818.277-1.175.365-.067.017-.823.169-.525.122.245-.039-.319.028-.375.032a10.84 10.84 0 0 1-1.571-.012c-.058-.004-.604-.067-.403-.038.248.036-.503-.1-.578-.116a18.28 18.28 0 0 1-1.51-.391c-.29-.087-.576-.187-.865-.278-.495-.156.063.055-.222-.091-1.758-.897-2.921-1.984-4.343-3.563a25.92 25.92 0 0 1-1.67-2.025 41.47 41.47 0 0 1-1.692-2.485c-.864-1.369-2.673-1.914-4.105-1.076-1.362.799-1.941 2.729-1.073 4.105z" fill="#1b1464"/><path d="M403.345 134.925c1.871.549 3.536-.57 4.909-1.719 1.443-1.207 2.726-2.309 4.348-3.316.919-.571 1.878-1.107 2.924-1.403 1.014-.288 1.834-.128 2.809.234 1.999.742 3.068 2.47 4.395 4.033 1.251 1.474 3.364-.657 2.121-2.121-1.4-1.65-2.604-3.47-4.654-4.368-1.052-.461-2.146-.876-3.303-.954-1.157-.077-2.321.283-3.375.725-2.041.856-3.992 2.154-5.698 3.56-.824.68-2.467 2.791-3.677 2.436-1.858-.545-2.651 2.349-.799 2.893z" fill="#1b1464"/><path d="M406.354 135.061c1.862-.875 14.914-.436 17.504-.008-1.259 1.499-3.195 3.381-4.211 5.026-.677 1.097-.348.969-1.683.977-1.102.007-2.338-.341-3.413-.576-2.403-.526-5.601-.545-7.806-1.669-1.046-.533-.896.143-.97-1.297-.025-.47.459-2.787.579-2.453z" fill="#fff"/><path d="M404.846 157.817c-.469 0-.944-.047-1.421-.146-8.15-1.68-13.86-4.944-17.446-7.253a7 7 0 0 1 7.579-11.771c2.867 1.846 6.901 4.118 12.694 5.313a7 7 0 0 1-1.406 13.857z" fill="#ff89d8" opacity=".5"/><g fill="#1b1464"><path d="M349.023 148.248c-7.462 1.273-12.914 8.157-13.833 15.433-.494 3.912.474 7.954 2.589 11.28 2.116 3.328 5.161 5.411 8.948 6.405 3.936 1.033 8.966 1.167 11.795-2.295 1.024-1.254 1.226-3.016 0-4.243-1.057-1.057-3.212-1.261-4.243 0-.195.239-.395.482-.633.681.305-.254-.265.145-.378.204.37-.194-.251.092-.395.133-.146.041-.295.073-.442.107-.49.114.393-.025-.116.03-1.461.159-2.23.012-3.411-.26-2.458-.566-4.351-1.422-5.74-3.48-1.672-2.478-2.306-4.924-2.068-7.736.043-.512.091-.761.274-1.499.172-.694.383-1.391.663-2.049-.113.265.198-.398.243-.488a15.42 15.42 0 0 1 .999-1.705 9.05 9.05 0 0 1 .412-.576c.97-1.203 1.928-2.052 3.025-2.728 1.339-.825 2.231-1.145 3.905-1.431 1.598-.273 2.494-2.24 2.095-3.69-.463-1.689-2.086-2.366-3.689-2.093zm52.179 69.162-8.467-2.342c-1.511-.418-3.331.517-3.69 2.095-.362 1.587.477 3.243 2.095 3.69l8.467 2.342c1.511.418 3.331-.517 3.69-2.095.362-1.586-.476-3.242-2.095-3.69zm3.332-156.774c-9.245-3.093-19.236-4.619-28.936-5.265-5.492-.366-10.938-.088-16.427.158-6.048.27-12.086.624-18.082 1.486-6.165.886-12.119 2.474-17.836 4.957-5.246 2.279-10.29 5.017-15.119 8.08-9.513 6.034-18.591 13.275-26.489 21.321-3.97 4.044-7.657 8.672-9.457 14.119-1.777 5.378-.902 10.846-.715 16.362.079 2.334.017 4.662-.614 6.918-.049.177-.28.651.014.022-.062.134-.121.276-.194.405-.182.323-.397.636-.571.961-.238.444-.008.034.07-.065a11.15 11.15 0 0 1-1.255 1.329c-.146.131-.296.255-.445.382-.359.305.588-.385-.054.041-.34.226-.67.465-1.018.68-.727.449-1.486.844-2.262 1.202-.161.074-.322.145-.484.217.53-.237-.016.008-.152.061-.382.15-.765.299-1.152.438a46.24 46.24 0 0 1-2.812.906c-3.579 1.036-7.243 1.725-10.882 2.511-3.529.762-6.8 1.786-10.101 3.269-8.814 3.96-16.722 10.73-17.511 20.944-.448 5.802.955 11.521 1.117 17.302.075 2.68.024 4.69-.674 7.043-.126.423-.268.84-.427 1.251-.332.857.141-.282-.092.206-.102.213-.203.425-.312.634a16.095 16.095 0 0 1-1.005 1.668c-.022.032-.55.749-.186.279-2.332 3-4.847 4.536-8.289 6.341-3.449 1.808-7.072 3.249-10.584 4.925-1.555.742-3.086 1.535-4.551 2.442-3.277 2.029-.267 7.221 3.028 5.181 6.327-3.917 13.737-5.811 19.798-10.204 3.381-2.451 6.145-5.454 7.76-9.344 1.987-4.785 1.714-10.218 1.175-15.265-.551-5.168-1.648-10.791-.092-15.657 1.168-3.652 4.137-6.798 7.398-9.011 3.325-2.256 6.904-4.038 10.634-5.121 3.262-.948 6.628-1.52 9.943-2.25 6.68-1.472 15.252-3.457 18.956-9.873 2.452-4.248 1.945-9.755 1.608-14.447-.183-2.547-.401-5.153-.077-7.698.334-2.621 1.319-5.058 2.664-7.314 2.676-4.488 6.517-8.172 10.359-11.656 4.055-3.677 8.22-7.243 12.612-10.514 9.037-6.729 19.168-13.062 30.089-16.156 5.593-1.585 11.352-2.356 17.137-2.792a330.723 330.723 0 0 1 17.468-.875c10.077-.223 20.309 1.226 30.066 3.699 1.806.458 3.6.965 5.368 1.556 1.536.514 3.278-.594 3.69-2.095.448-1.64-.555-3.178-2.097-3.694zM281.802 160.813c.288-.745-.169.313-.266.477a9.023 9.023 0 0 1-.49.735c.456-.628-.29.287-.416.414-.275.277-.573.522-.861.784-.097.088-.448.337.043-.025-.13.096-.26.195-.395.286-.345.233-.689.465-1.045.683-.706.431-1.435.823-2.175 1.193-3.082 1.541-6.342 2.689-9.431 4.217-2.906 1.438-5.864 3.345-7.519 6.225-2.259 3.928-1.394 8.659.075 12.699.806 2.216 1.801 4.357 2.633 6.563.356.943.687 1.9.924 2.881.044.182.237 1.224.167.698a9.95 9.95 0 0 1 .062 1.682c-.05 1.303-.638 3.2-1.353 4.56-1.007 1.917-2.104 3.378-3.46 4.911-5.676 6.418-12.914 11.234-19.419 16.733-2.083 1.761-3.978 3.686-5.571 5.908-1.523 2.124-2.447 4.533-3.242 7.005a154.336 154.336 0 0 0-3.976 14.972c-.338 1.583.469 3.244 2.095 3.69 1.494.411 3.35-.504 3.69-2.095a162.698 162.698 0 0 1 3.505-13.465c.594-1.948 1.124-3.827 2.119-5.548 1.105-1.913 2.547-3.46 4.218-4.99 3.237-2.965 6.838-5.558 10.235-8.337 3.238-2.65 6.494-5.3 9.391-8.329 3.058-3.197 5.904-6.902 7.158-11.21 1.294-4.445.141-8.545-1.565-12.683-.858-2.08-1.768-4.146-2.417-6.304a21.577 21.577 0 0 1-.455-1.753 15.186 15.186 0 0 1-.133-.695c.054.33-.029-.224-.03-.236-.118-1.154-.088-1.89.156-2.747.082-.287.376-.887.076-.305.167-.324.337-.632.525-.944.074-.124.166-.239.248-.357-.376.542-.169.202-.058.091.292-.294.557-.606.864-.887.133-.122.95-.769.385-.35.293-.217.591-.426.897-.626.676-.442 1.38-.841 2.096-1.215 6.508-3.398 15.553-5.091 18.501-12.71.585-1.511-.645-3.292-2.095-3.69-1.696-.467-3.104.577-3.691 2.094zm126.33-79.585c-6.09 3.685-11.418 8.627-15.782 14.234-4.522 5.81-8.237 12.424-9.975 19.627-.873 3.619-1.156 7.328-.983 11.041.178 3.811.771 7.587 1.014 11.394.24 3.756.195 7.603-.927 11.226-1.029 3.324-2.879 6.333-4.838 9.186-2.086 3.038-4.319 5.981-6.484 8.963-2.407 3.314-4.761 6.542-6.24 10.398-.555 1.448-.964 3.052-.844 4.614.114 1.48.533 2.885.86 4.323.941 4.138 1.564 8.329 2.603 12.452 1.081 4.292 2.342 8.533 3.665 12.756 1.12 3.576 2.395 7.388 1.413 11.147-.797 3.05-2.846 5.778-4.94 8.209-2.349 2.728-4.843 5.316-7.019 8.191-4.025 5.319-5.813 11.646-3.857 18.15.826 2.745 2.121 5.335 3.353 7.914 1.217 2.548 2.158 4.515 2.816 7.441.309 1.376.401 2.292.372 3.936-.068 3.862 5.931 3.863 6 0 .109-6.162-2.669-11.457-5.189-16.891-.617-1.33-.808-1.729-1.296-3.154a21.95 21.95 0 0 1-.543-1.83c-.07-.284-.134-.57-.191-.857a18.828 18.828 0 0 1-.103-.577c.054.322.01.142-.009-.076a16.251 16.251 0 0 1-.074-1.936c.026-.887.022-.855.153-1.523a14.103 14.103 0 0 1 1.488-4.109c3.243-5.995 9.016-10.168 12.532-16.02 2.064-3.435 3.174-7.377 2.769-11.396-.424-4.207-1.909-8.175-3.117-12.199-1.269-4.225-2.433-8.484-3.392-12.791-.802-3.601-1.358-7.243-2.226-10.829-.031-.126-.05-.255-.076-.382.007.034.045.526.021.175-.02-.298-.018-.589-.025-.887-.013-.504-.105.215.043-.326.106-.389.197-.779.324-1.163.571-1.729 1.481-3.333 2.461-4.86 1.996-3.111 4.28-6.07 6.474-9.044 4.421-5.99 8.807-12.142 9.8-19.716 1.013-7.725-.959-15.273-.818-22.987.12-6.599 2.637-13.08 6.145-18.792 3.53-5.748 8.191-11.005 13.554-15.069a47.66 47.66 0 0 1 4.117-2.782c3.299-1.996.287-7.187-3.029-5.181zm24.255 18.815a64.537 64.537 0 0 0 5.338 6.993 83.9 83.9 0 0 0 2.874 3.12c.847.876 2.156 2.003 2.75 2.776.122.159.576 1.071.42.653.098.262.175.546.215.822-.029-.199.019-.454-.037.027-.021.18-.008.37-.026.552.057-.586-.018.026-.063.174-.072.232-.127.468-.204.699-.002.005-.339.844-.149.413-.868 1.974-2.129 3.759-3.128 5.666-2.467 4.712-3.419 10.26-.473 15.002 3.038 4.892 8.02 8.75 12.459 12.299a33.758 33.758 0 0 0 5.406 3.56c.885.469 1.774.934 2.631 1.453.397.24.787.491 1.168.757.786.549-.198-.187.224.167.222.186.438.379.643.585.165.166.33.336.477.519-.087-.109-.265-.412.018.06.094.157.183.312.268.473-.286-.548.053.202.079.306.047.185.089.385.112.573-.064-.523-.02-.027-.025.062-.012.222-.003.448-.013.67-.019.229-.009.174.03-.164a5.576 5.576 0 0 1-.108.481c-.038.157-.098.307-.145.461.166-.552.11-.21.021-.06-.204.345-.394.683-.618 1.016.376-.558-.25.278-.386.423-.314.338-.646.659-.984.973-2.735 2.536-5.709 4.86-6.695 8.661-.393 1.518-.41 3.139-.464 4.698-.383 11.029-.484 22.067-1.663 33.052-.081.752-.167 1.503-.259 2.254-.038.311-.08.621-.118.931-.096.791.096-.662-.016.122l-.096.681a89.194 89.194 0 0 1-.682 4.112c-.447 2.335-.985 4.676-1.827 6.904-.082.216-.183.43-.257.649.318-.948.062-.157-.055.088-.192.403-.401.8-.636 1.18-.086.14-.182.273-.269.412-.404.652.225-.203.051-.056-.117.099-.718.606-.741.731.051-.283.727-.494.176-.173-.595.347.128-.199.268-.084-.013-.011-.386.121-.423.128-.589.123.876-.079.271-.044-.059.003-.121 0-.18-.002-.529-.018.424-.056.429.069 0-.011-.334-.07-.378-.086a15.742 15.742 0 0 0-1.109-.358c-2.648-.745-5.459-1.022-8.182-1.337-3.369-.389-6.75-.669-10.132-.913a516.642 516.642 0 0 0-17.347-.945c-1.338-.049-2.518.97-2.893 2.202-3.431 11.273-6.354 22.718-9.091 34.176-.406 1.701.538 3.082 2.095 3.69l7.235 2.827 1.681.657c.156.061.343.11.491.192.533.294-.806-.48.122.182 2.264 1.616 5.381 2.461 8.025 3.211 2.681.761 5.401 1.375 8.062 2.21 3.135.984 6.232 2.082 9.352 3.108 6.37 2.095 12.864 3.462 19.454 4.665 13.062 2.384 26.113 4.532 38.987 7.837 2.975.764 5.868 1.706 8.694 2.91 1.499.639 3.018 1.018 4.624 1.273 1.549.246 3.215.399 4.667 1.034 4.214 1.844 6.755 6.489 8.225 10.619 2.167 6.091 2.298 12.622 2.126 19.015-.179 6.621-.777 13.247-.394 19.871.094 1.618 1.312 3 3 3 1.552 0 3.094-1.374 3-3-.701-12.117 1.851-24.38-.782-36.379-1.178-5.366-3.591-10.941-7.484-14.907-2.182-2.223-4.952-3.888-8.003-4.566-1.48-.329-2.997-.457-4.477-.786-1.684-.374-3.194-1.129-4.795-1.747-5.915-2.283-12.312-3.538-18.489-4.907-6.819-1.512-13.709-2.674-20.589-3.867-6.73-1.167-13.549-2.229-20.148-4.02-6.238-1.694-12.233-4.173-18.478-5.837-3.146-.838-6.423-1.502-9.417-2.815-1.627-.713-3.096-1.66-4.754-2.308l-8.338-3.258 2.095 3.69c2.737-11.458 5.66-22.903 9.091-34.176l-2.893 2.202c4.246.154 8.49.376 12.73.638 3.551.219 7.1.471 10.642.798 1.652.152 3.302.321 4.948.522l1.044.132c-.852-.11.312.046.519.076.66.097 1.318.203 1.974.324 2.027.373 4.017 1.347 6.104.955 2.021-.379 3.519-1.844 4.617-3.5 2.638-3.98 3.435-9.338 4.129-13.955 1.801-11.989 2.06-24.155 2.376-36.254.043-1.656.072-3.315.173-4.969.014-.238.036-.476.052-.714.006-.087.025-.174.027-.261.009-.358-.273 1.308-.039.357.069-.282.119-.566.202-.845.053-.179.114-.356.179-.531-.19.516.015-.027.087-.155.198-.352.406-.688.621-1.029.444-.704-.226.253.093-.131.141-.17.285-.337.434-.5a18.4 18.4 0 0 1 .93-.944c2.616-2.493 5.823-4.701 6.514-8.515.41-2.26.077-4.719-1.228-6.647-1.299-1.92-3.221-3.279-5.211-4.411-1.71-.972-3.543-1.77-5.154-2.907-2.009-1.417-4.252-3.39-6.215-5.149-2.102-1.884-4.34-3.901-5.975-6.218-1.217-1.724-1.613-3.413-1.299-5.307.742-4.484 4.438-7.825 5.54-12.34.576-2.36.271-4.821-1.113-6.852-1.67-2.45-4.157-4.398-6.125-6.613a54.193 54.193 0 0 1-4.837-6.275c-.888-1.353-2.655-1.924-4.105-1.076-1.343.795-1.968 2.752-1.075 4.113zm1316.511 73.948h-540.197a3 3 0 1 1 0-6h540.197a3 3 0 1 1 0 6z"/></g><path d="M1317.364 14.111h30.87v156.88h-30.87z" fill="#fff"/><path d="M1348.234 173.991h-30.871a3 3 0 0 1-3-3V14.111a3 3 0 0 1 3-3h30.871a3 3 0 0 1 3 3v156.88a3 3 0 0 1-3 3zm-27.87-6h24.871V17.111h-24.871z" fill="#1b1464"/><path d="M1373.451 14.111h30.87v156.88h-30.87z" fill="#fff"/><path d="M1404.321 173.991h-30.87a3 3 0 0 1-3-3V14.111a3 3 0 0 1 3-3h30.87a3 3 0 0 1 3 3v156.88a3 3 0 0 1-3 3zm-27.87-6h24.87V17.111h-24.87z" fill="#1b1464"/><path d="m1446.888 11.09 30.138 6.68-33.948 153.163-30.139-6.68z" fill="#fff"/><path d="M1443.068 173.992c-.215 0-.434-.023-.652-.072l-30.139-6.681a3 3 0 0 1-2.279-3.578L1443.953 10.5a3 3 0 0 1 3.578-2.28l30.139 6.682a3 3 0 0 1 2.279 3.578l-33.955 153.161a3.002 3.002 0 0 1-2.926 2.351zm-26.564-11.962 24.281 5.383 32.657-147.303-24.281-5.383z" fill="#1b1464"/><path d="M1478.397 16.661h164.091v154.33h-164.091z" fill="#1967ff"/><path d="M1642.488 173.991h-164.09a3 3 0 0 1-3-3V16.661a3 3 0 0 1 3-3h164.09a3 3 0 0 1 3 3v154.33a3 3 0 0 1-3 3zm-161.091-6h158.09V19.661h-158.09z" fill="#1b1464"/><path d="M1478.397 100.309h164.091v70.682h-164.091z" fill="#1967ff"/><path d="M1642.488 173.991h-164.09a3 3 0 0 1-3-3v-70.682a3 3 0 0 1 3-3h164.09a3 3 0 0 1 3 3v70.682a3 3 0 0 1-3 3zm-161.091-6h158.09v-64.682h-158.09z" fill="#1b1464"/><path d="M1560.443 102.634a3 3 0 0 1-3-3V18.031a3 3 0 1 1 6 0v81.603a3 3 0 0 1-3 3zm21.963 22.427h-39.812a3 3 0 1 1 0-6h39.812a3 3 0 1 1 0 6z" fill="#1b1464"/><path d="M1628.72 391.99h-5.441c-17.89 0-31.613 15.879-29.019 33.581l10.354 70.67h42.769l10.354-70.67c2.595-17.702-11.127-33.581-29.017-33.581z" fill="#ff89d8"/><path d="M1647.384 499.24h-42.77a3 3 0 0 1-2.969-2.565l-10.354-70.669a32.31 32.31 0 0 1 7.526-25.824 32.307 32.307 0 0 1 24.462-11.191h5.44c9.399 0 18.315 4.079 24.461 11.191s8.889 16.525 7.526 25.825l-10.354 70.669a2.999 2.999 0 0 1-2.968 2.564zm-40.177-6h37.584l9.979-68.104c1.11-7.574-1.124-15.24-6.129-21.032s-12.266-9.114-19.921-9.114h-5.44c-7.655 0-14.917 3.322-19.922 9.114s-7.239 13.458-6.129 21.031z" fill="#1b1464"/><path d="M1657.348 516.148h-62.697l-14.283-58.472h91.263z" fill="#fff"/><path d="M1657.348 519.148h-62.697a3 3 0 0 1-2.914-2.288l-14.282-58.473a2.998 2.998 0 0 1 2.914-3.711h91.263a2.998 2.998 0 0 1 2.914 3.711l-14.283 58.473a3.001 3.001 0 0 1-2.915 2.288zm-60.342-6h57.986l12.817-52.473h-83.62zm45.088-80.635a3 3 0 0 1-3-3v-17.518a3 3 0 1 1 6 0v17.518a3 3 0 0 1-3 3zm-29.196 16.684a3 3 0 0 1-3-3v-19.186a3 3 0 1 1 6 0v19.186a3 3 0 0 1-3 3z" fill="#1b1464"/><circle cx="609.898" cy="99.152" fill="#fff" r="34"/><path d="M640.898 99.152c-.033 6.492-1.949 12.608-5.769 18.034-3.4 4.83-8.785 8.976-14.338 11.01-6.367 2.331-12.995 2.593-19.403.773-6.078-1.726-11.358-5.218-15.5-10.186-8.198-9.832-9.222-24.531-2.562-35.607 6.654-11.064 20.032-17.018 32.626-14.441 12.756 2.61 22.503 12.796 24.608 25.699.105.643.156 1.08.225 1.929.076.929.108 1.858.113 2.789.02 3.86 6.02 3.868 6 0-.079-15.535-9.939-29.494-24.512-34.83-14.31-5.24-31.15-.667-40.845 11.081-9.943 12.048-11.474 29.458-3.311 42.893 8.091 13.317 23.909 20.13 39.152 17.091 14.74-2.939 26.739-15.385 29.018-30.26.304-1.983.489-3.969.499-5.975.018-3.861-5.981-3.866-6.001 0z" fill="#1b1464"/><path d="M629.898 116.456c0-4.727-1.361-9.06-4.376-12.738-3.149-3.841-7.705-5.989-12.572-6.564l.797 5.893c4.586-1.669 7.838-5.474 8.453-10.36.572-4.545-1.542-8.973-5.231-11.613-3.724-2.665-8.718-2.849-12.766-.839-4.007 1.989-6.55 6.259-6.71 10.679-.201 5.55 3.466 10.281 8.555 12.133l.798-5.893c-4.874.576-9.413 2.726-12.572 6.564-3.019 3.669-4.376 8.017-4.376 12.738 0 3.861 6 3.867 6 0 0-3.165.763-6.158 2.619-8.495 1.17-1.474 2.246-2.378 3.772-3.251.385-.22.779-.427 1.182-.611.322-.147.348-.153.839-.32a15.596 15.596 0 0 1 2.137-.556c.06-.011.706-.105.398-.069 1.482-.175 2.757-1.007 2.946-2.601.185-1.551-.709-2.768-2.149-3.292-2.094-.762-3.849-2.922-4.112-5.103a7.832 7.832 0 0 1-.041-1.072c.002-.127.099-1.07.041-.722.053-.326.136-.652.23-.969.046-.158.098-.314.153-.469.177-.499-.148.291.071-.188a8.53 8.53 0 0 1 .545-.992c.056-.088.486-.669.291-.431.435-.535 1-1.046 1.295-1.249 1.059-.728 2.142-1.122 3.094-1.196 1.398-.107 2.496.088 3.497.617 2.155 1.139 3.513 3.156 3.595 5.424.103 2.86-1.609 5.422-4.15 6.347-3.294 1.199-2.555 5.497.798 5.893 1.3.154 3.115.751 4.412 1.475 1.609.898 2.708 1.808 3.917 3.332 1.855 2.338 2.619 5.332 2.619 8.495.001 3.863 6.001 3.87 6.001.003z" fill="#1b1464"/><circle cx="609.898" cy="204.15" fill="#fff" r="34"/><path d="M640.898 204.15c-.033 6.492-1.949 12.608-5.769 18.034-3.4 4.83-8.785 8.976-14.338 11.01-6.367 2.331-12.995 2.593-19.403.773-6.078-1.726-11.358-5.218-15.5-10.186-8.198-9.832-9.222-24.531-2.562-35.607 6.654-11.064 20.032-17.018 32.626-14.441 12.756 2.61 22.503 12.796 24.608 25.699.105.643.156 1.08.225 1.929.076.929.108 1.858.113 2.789.02 3.86 6.02 3.868 6 0-.079-15.535-9.939-29.494-24.512-34.83-14.31-5.24-31.15-.667-40.845 11.081-9.943 12.048-11.474 29.458-3.311 42.893 8.091 13.317 23.909 20.13 39.152 17.091 14.74-2.939 26.739-15.385 29.018-30.26.304-1.983.489-3.969.499-5.975.018-3.861-5.981-3.866-6.001 0z" fill="#1b1464"/><path d="M629.898 221.454c0-4.727-1.361-9.06-4.376-12.738-3.149-3.841-7.705-5.989-12.572-6.564l.797 5.893c4.586-1.669 7.838-5.474 8.453-10.36.572-4.545-1.542-8.973-5.231-11.613-3.724-2.665-8.718-2.849-12.766-.839-4.007 1.989-6.55 6.259-6.71 10.679-.201 5.55 3.466 10.281 8.555 12.133l.798-5.893c-4.874.576-9.413 2.726-12.572 6.564-3.019 3.669-4.376 8.017-4.376 12.738 0 3.861 6 3.867 6 0 0-3.165.763-6.158 2.619-8.495 1.17-1.474 2.246-2.378 3.772-3.251.385-.22.779-.427 1.182-.611.322-.147.348-.153.839-.32a15.596 15.596 0 0 1 2.137-.556c.06-.011.706-.105.398-.069 1.482-.175 2.757-1.007 2.946-2.601.185-1.551-.709-2.768-2.149-3.292-2.094-.762-3.849-2.922-4.112-5.103a7.832 7.832 0 0 1-.041-1.072c.002-.127.099-1.07.041-.722.053-.326.136-.652.23-.969.046-.158.098-.314.153-.469.177-.499-.148.291.071-.188a8.53 8.53 0 0 1 .545-.992c.056-.088.486-.669.291-.431.435-.535 1-1.046 1.295-1.249 1.059-.728 2.142-1.122 3.094-1.196 1.398-.107 2.496.088 3.497.617 2.155 1.139 3.513 3.156 3.595 5.424.103 2.86-1.609 5.422-4.15 6.347-3.294 1.199-2.555 5.497.798 5.893 1.3.154 3.115.751 4.412 1.475 1.609.898 2.708 1.808 3.917 3.332 1.855 2.338 2.619 5.332 2.619 8.495.001 3.864 6.001 3.87 6.001.003z" fill="#1b1464"/><circle cx="609.898" cy="309.148" fill="#fff" r="34"/><path d="M640.898 309.148c-.033 6.492-1.949 12.608-5.769 18.034-3.4 4.83-8.785 8.976-14.338 11.01-6.367 2.331-12.995 2.593-19.403.773-6.078-1.726-11.358-5.218-15.5-10.186-8.198-9.832-9.222-24.531-2.562-35.607 6.654-11.064 20.032-17.018 32.626-14.441 12.756 2.61 22.503 12.796 24.608 25.699.105.643.156 1.08.225 1.929.076.929.108 1.858.113 2.789.02 3.86 6.02 3.868 6 0-.079-15.535-9.939-29.494-24.512-34.83-14.31-5.24-31.15-.667-40.845 11.081-9.943 12.048-11.474 29.458-3.311 42.893 8.091 13.317 23.909 20.13 39.152 17.091 14.74-2.939 26.739-15.385 29.018-30.26.304-1.983.489-3.969.499-5.975.018-3.861-5.981-3.866-6.001 0z" fill="#1b1464"/><path d="M629.898 326.452c0-4.727-1.361-9.06-4.376-12.738-3.149-3.841-7.705-5.989-12.572-6.564l.797 5.893c4.586-1.669 7.838-5.474 8.453-10.36.572-4.545-1.542-8.973-5.231-11.613-3.724-2.665-8.718-2.849-12.766-.839-4.007 1.99-6.55 6.259-6.71 10.679-.201 5.55 3.466 10.281 8.555 12.133l.798-5.893c-4.874.576-9.413 2.726-12.572 6.564-3.019 3.669-4.376 8.017-4.376 12.738 0 3.861 6 3.867 6 0 0-3.165.763-6.158 2.619-8.495 1.17-1.474 2.246-2.378 3.772-3.251.385-.22.779-.427 1.182-.611.322-.147.348-.153.839-.32a15.596 15.596 0 0 1 2.137-.556c.06-.011.706-.105.398-.069 1.482-.175 2.757-1.007 2.946-2.601.185-1.551-.709-2.768-2.149-3.292-2.094-.762-3.849-2.922-4.112-5.103a7.832 7.832 0 0 1-.041-1.072c.002-.127.099-1.07.041-.722.053-.326.136-.652.23-.969.046-.158.098-.314.153-.469.177-.499-.148.291.071-.188a8.53 8.53 0 0 1 .545-.992c.056-.088.486-.669.291-.431.435-.535 1-1.046 1.295-1.249 1.059-.728 2.142-1.122 3.094-1.196 1.398-.107 2.496.088 3.497.617 2.155 1.139 3.513 3.156 3.595 5.424.103 2.86-1.609 5.422-4.15 6.347-3.294 1.199-2.555 5.497.798 5.893 1.3.154 3.115.751 4.412 1.475 1.609.898 2.708 1.808 3.917 3.332 1.855 2.338 2.619 5.332 2.619 8.495.001 3.864 6.001 3.87 6.001.003z" fill="#1b1464"/><path d="M1709.898 552.148h-137.741c-9.781 0-17.71-7.929-17.71-17.71s7.929-17.71 17.71-17.71h137.741" fill="#fff"/><path d="M1709.898 555.148h-137.741c-11.419 0-20.709-9.29-20.709-20.71 0-11.419 9.29-20.709 20.709-20.709h137.741a3 3 0 1 1 0 6h-137.741c-8.11 0-14.709 6.599-14.709 14.709 0 8.111 6.599 14.71 14.709 14.71h137.741a3 3 0 1 1 0 6z" fill="#1b1464"/><path d="M1707.332 530.812h-136.159a3 3 0 1 1 0-6h136.159a3 3 0 1 1 0 6zm-.537 12.03h-135.622a3 3 0 1 1 0-6h135.622a3 3 0 1 1 0 6z" fill="#1b1464"/></svg></g><g transform="translate(1479.0 377.0) rotate(0.0 -297.5 322.5) scale(-1.002916041599946 1.0025693754692258)"><svg width="593.27" height="643.347" viewBox="0 0 593.27 643.347"><path d="M552.894 339.504c-.74-2.822-2.342-5.569-3.282-8.323-2.328-6.814-4.059-14.176-5.714-21.206-1.709-7.26-2.299-15.332-5.345-22.048-3.224-7.108-7.163-13.688-9.98-21.038-2.249-5.865-5.356-11.398-8.77-16.821-2.929-4.653-4.202-13.032-8.719-15.01-11.997-5.252-25.735-15.222-37.57-15.967-13.793-.869-18.292-13.898-31.645-15.82-11.2-1.611-22.994-2.018-33.939-4.18.313.205-1.967 8.17.761 11.577 3.214 4.015 8.308 5.156 12.908 6.444 5.137 1.439 10.075.507 14.649 1.159 5.167.736 9.837 7.892 14.02 12.441-1.985 1.019-5.001 3.138-7.127 3.713-3.074.831-1.956.959-5.006-.469-6.703-3.138-11.471-9.943-19.814-8.847-16.211 2.131 5.887 16.755 10.297 19.763 5.272 3.597 4.59 7.836 4.96 14.391.103 1.829-.299 4.109-.525 6.383-4.396.151-8.776.331-13.071.561-12.431.665-24.992-2.964-37.047-5.594-5.629-1.228-13.722-1.542-15.317-8.054-2.054-8.389-1.547-19.198-1.807-27.779-.225-7.435.102-14.882.453-22.282.412-8.677 7.874-7.777 14.469-7.408 7.324.41 12.845-1.531 19.738-3.04 5.21-1.141 8.41-.191 10.029-5.915 1.847-6.529 1.31-13.444 1.015-20.156-.294-6.694-1.971-13.242-2.492-19.873-.658-8.379-.397-11.833 3.684-19.036 2.708-4.779 3.759-6.765-.491-9.722-5.249-3.652-11.698-5.898-16.839-9.78-5.357-4.044-5.887-7.029-5.915-13.507-.013-2.985 1.322-7.469.489-10.273-.704-2.368-3.5-4.088-4.911-5.913-4.303-5.565-7.366-12.556-10.974-18.638-2.98-5.024-6.469-14.705-13.26-15.476-3.467 3.858-11.729 1.852-16.74.783-8.572-1.827-13.424-.223-18.316 7.859-1.709 2.823-2.595 5.831-4.528 8.548-3.575 5.026-8.373 9.094-11.905 14.144-9.789 13.998-16.344 31.216-24.232 46.389-10.968 21.095-15.303 44.362-21.453 67.027 6.864 6.343 11.12 14.858 11.556 23.819.379 7.799.55 15.583 1.009 23.369.363 6.157 2.673 17.97-.798 23.219-2.303 3.483-8.36 5.837-12.292 6.722-5.986 1.348-12.328 1.03-18.43 1.922-6.708.981-12.715 4.061-19.562 4.559-10.902.793-21.098 1.054-31.692 3.173-5.2 1.04-9.624.094-14.669.556-5.134.47-10.578 4.492-15.684 3.834 1.255 5.387 8.972 13.375 12.979 16.613 14.649 11.841 32.069 20.248 48.649 28.875 7.34 3.819 13.577 8.61 21.533 11.22 11.701 3.838 23.97 5.533 36.134 7.112 12.403 1.61 24.02 5.884 36.439 7.365 14.716 1.755 29.838 2.536 44.645 3.05 10.227.355 20.512.552 30.744.531 15.978-.033 31.853-2.278 47.82-2.198 11.343.057 21.619 2.745 32.66 4.394 5.976.893 15.523 2.46 22.545.654-.065 7.072 33.426 1.372 39.605-1.209 4.966-2.074 17.555-10.935 16.072-16.587zm-101.783-80.802c.429 2.209 1.327 4.404 2.405 6.58-1.383 0-2.776.011-4.169.021 1.06-2.536 1.704-4.98 1.764-6.601z" fill="#fff"/><path d="M177.513 279.091c-12.318-2.658-25.247-1.694-35 5-21.578 14.81-36.791 48.576-49.203 80-8.634 21.859-11.677 42.585-18.797 55.01-31.259 54.543-92.479 139.615-63 173.99 79.338 4.023 158.629-.101 242.073-.761-.435-14.175 6.223-30.397 6.927-43.239 45.927 9.625 86 10 86 10l54 31s43.896-1.788 55.957-1.587c21.482.359 62.609-4.705 86.135-8.413 54.412-8.576 46.936-74.397 33.907-136.998-7.919-38.05-13.66-74.909-21-97.002-27.667 16.667-60 13-60 13s-11.521-22.435-16.793-31c-29.461-47.862-40.067-9.298-89.018 4.299-39.608 11.002-85.148 1.847-122.775-9.303-21.905-6.491-85.901-45.202-89.413-43.996z" fill="#ff89d8"/><path d="M265.901 549.798c-4.528 1.594-6.729 20.664-7.725 25.638-1.106 5.521-4.124 12.273-3.489 17.95 5.224-.147 10.632.039 15.951.039 4.892 0 13.429-1.09 17.802 1.173 3.651 1.889 4.099 8.522 5.837 12.062 2.174 4.429 4.185 8.073 4.689 13.005.533 5.217 1.318 20.908 7.547 20.426 7.19-.556 3.375-17.689 3.023-24.392-.279-5.305.331-10.492.274-15.79-.046-4.239-.023-5.868 5.253-5.24 5.941.707 11.659 5.066 15.852 8.98 5.905 5.51 12.539 10.375 19.462 14.548 6.856 4.133 14.113 9.156 21.711 11.539 3.364 1.055 13.49 2.379 10.511-4.234 6.496 5.292 14.422 7.803 22.526 9.396 5.278 1.038 13.541-2.354 7.765-8.713 2.793.555 12.092 2.372 10.624-3.002-.49-1.795-.933-3.171-2-4.683-1.079-1.529-5.938-4.823-6.911-6.409-3.073-5.008-6.437-8.77-10.059-13.384-5.401-6.882-14.243-14.109-21.657-18.707-3.882-2.408-7.937-4.459-12.002-6.559-4.34-2.243-7.844-5.483-12.259-7.646-11.142-5.459-25.673-6.598-37.92-7.655-12.277-1.059-24.465-3.618-36.585-5.344-6.064-.863-12.694-.244-18.246-2.926.725-.707-.963.239.026-.072zM163.513 427.091c9.904 18.447 13.447 37.199 18 57.801 3.245 14.681 5.99 35.273 8 53.199-6.513-2.896-16.537-4.729-23.357-6-7.187-1.34-13.305-2.637-20.724-3-12.03-.588-30.727-3.599-41.919-.107 1.561-21.805 23.861-37.427 32.216-57.009 7.279-17.061 8.024-37.899 27.784-44.884z" fill="#fff"/><path d="M337.552 24.837c-2.074.205-4.598-1.291-6.945-2.025-3.835-1.2-7.336-1.529-11.119-2.35-6.261-1.359-13.164-3.064-19.692-3.049-3.374.008-8.904 1.028-11.647 2.857-3.755 2.504-5.257 6.056-9.536 7.878-7.005 2.983-15.114 1.888-22.673 1.888-9.587 0-15.36-.116-23.581 5.777-3.624 2.598-8.149 4.66-11.503 7.504-3.053 2.589-6.952 8.228-9.207 11.654-2.909 4.42-4.827 9.277-8.176 13.627-3.042 3.952-4.335 8.592-8.042 12.072-3.592 3.371-8.96 3.841-12.277 7-4.126 3.93-1.814 8.848-2.645 13.566-1.983 11.253-8.111 16.437-15.022 25.03-5.656 7.034-11.027 13.387-9.576 23.034.975 6.48 5.131 12.286 11.32 14.675 5.224 2.017 13.88 1.323 15.279 8.476 1.477 7.553-4.861 10.202 2.155 17.071 9.123 8.933 19.768 1.163 30.444 2.134 3.544.322 9.745 2.161 11.225 5.87 1.664 4.168-.123 6.158 3.961 9.717 6.223 5.423 17.06 6.969 25.109 5.832 5.676-.801 6.612-2.83 11.654-.086 2.851 1.552 7.926 4.677 11.27 3.691 2.916-9.526 1.894-19.806 3.184-29.502.86-6.458 4.031-12.411 7.163-18.02 5.234-9.373 12.801-17.479 20.357-25.034 5.059-5.059 4.063-7.408 2.261-14.097-.76-2.82-3.309-8.159-3.022-11.027.497-4.956 5.147-7.888 8.785-10.575 4.455-3.289 6.696-7.049 9.645-11.638 4.234-6.589 4.068-10.978 3.917-18.558-.165-8.294 5.523-19.062 11.982-24.756 2.841-2.504 8.921-5.804 12.616-6.25 3.216-.388 4.553-.238 9.375-1.216-3.78-6.502-9.753-11.195-14.83-16.499l-12.212-4.67z" fill="#1b1464"/><path d="M367.552 51.531c-.053-.134-.112-.27-.156-.4.19-.133.195.144.156.4z" fill="#fff"/><path d="M364.782 98.633c-1.226-.558-2.679-.232-3.798.425-1.08.634-2.136 1.728-2.743 3.12-.147.337-.264.884-.343 1.254-.507 2.401.089 3.794 1.629 5.227 1.047.974 3.086 1.502 4.367.723 1.287-.782 1.904-2.097 2.465-3.449.974-2.344 1.154-6.055-1.579-7.3zm-10.638-6.448c.809-.685 1.571-1.418 2.338-2.149a41.61 41.61 0 0 1 1.233-1.141 18.5 18.5 0 0 1 .568-.481c-.315.254.079-.054.21-.144a9.085 9.085 0 0 1 1.236-.722c.27-.128-.289.059.216-.067.238-.06.47-.128.711-.179.359-.076-.297-.013.18-.015.231 0 .463-.022.695-.022.401-.002.802.016 1.201.052.086.008.771.102.34.034-.438-.069.342.071.346.072.419.084.835.186 1.244.308.415.124.828.264 1.227.431-.552-.231.013.018.119.075.193.103.39.199.581.307.383.217.753.456 1.108.715-.504-.367.166.155.215.199a10.465 10.465 0 0 1 .929.96c-.278-.319-.02-.03.103.149.288.424.53.868.75 1.33.697 1.463 2.791 1.845 4.105 1.076 1.496-.875 1.775-2.636 1.076-4.105-2.186-4.591-7.034-7.011-11.898-7.53-2.485-.265-5.014.171-7.151 1.511-2.221 1.393-3.939 3.411-5.923 5.093-1.237 1.048-1.079 3.163 0 4.243 1.225 1.225 3.003 1.051 4.243 0zm9.434 51.022c3.218 3.626 7.54 7.667 12.51 8.461 2.529.404 5.157.534 7.634-.251 2.575-.817 4.753-2.425 6.538-4.427 1.077-1.209 1.192-3.051 0-4.243-1.097-1.097-3.16-1.214-4.243 0-.679.761-1.491 1.559-2.071 1.949-.381.256-.779.475-1.183.691-.789.421.243-.068-.226.102-.227.082-.455.159-.687.225s-.466.118-.701.17c-.053.012-.62.107-.318.065.354-.049-.41.03-.48.034-.251.015-.502.02-.753.02-1.043 0-1.81-.077-2.538-.231-1.707-.359-3.299-1.353-4.793-2.529-1.525-1.2-3.094-2.756-4.447-4.28-1.076-1.212-3.145-1.098-4.243 0-1.204 1.204-1.079 3.027 0 4.243z" fill="#1b1464"/><path d="M351.263 109.318c1.778.223 3.258-1.183 4.309-2.435 1.161-1.384 2.31-2.692 3.67-3.895 1.439-1.273 3.002-2.427 5.001-2.065.945.171 1.769.442 2.554 1.008.852.614 1.592 1.383 2.391 2.062 1.463 1.243 3.595-.869 2.121-2.121-1.703-1.447-3.228-3.087-5.466-3.663-2.335-.601-4.365-.415-6.424.889-1.776 1.125-3.474 2.67-4.839 4.268-.776.909-1.961 3.122-3.316 2.952-.805-.101-1.5.762-1.5 1.5 0 .894.692 1.399 1.5 1.5z" fill="#1b1464"/><path d="M354.022 108.926c1.652-1.135 14.266-2.777 16.823-2.775-.973 1.64-2.536 3.755-3.253 5.497-.478 1.161-.181.986-1.464 1.206-1.058.181-2.301.042-3.371-.014-2.392-.126-5.469.361-7.766-.37-1.09-.347-.838.279-1.138-1.093-.098-.448.001-2.752.169-2.45z" fill="#fff"/><path d="M357.462 130.005c-.095 0-.191-.002-.287-.006-8.128-.328-14.154-2.57-17.979-4.228a7 7 0 1 1 5.568-12.845c3.034 1.315 7.25 2.854 12.977 3.084a7 7 0 0 1-.277 13.994z" fill="#ff89d8" opacity=".5"/><g fill="#1b1464"><path d="m350.107 192.759-8.508-.912c-.716-.077-1.633.39-2.121.879-.52.52-.912 1.374-.879 2.121.035.776.29 1.581.879 2.121.621.57 1.287.789 2.121.879l8.508.912c.716.077 1.633-.39 2.121-.879.52-.52.912-1.374.879-2.121-.035-.776-.29-1.581-.879-2.121-.621-.57-1.287-.789-2.121-.879zm-23.095 81.181c4.136 3.522 8.594 6.557 13.575 8.754 2.168.957 4.294-.183 4.514-2.59.032-.355.066-.709.105-1.063.012-.111.15-1.239.064-.595.102-.76.228-1.517.381-2.268.216-1.064.515-2.108.743-3.17.226-1.053.444-2.109.746-3.144a15.274 15.274 0 0 1 .4-1.195c-.179.41-.203.469-.072.178.111-.213.231-.42.343-.631.245-.46-.511.528.025-.004 1.115-1.107 1.191-3.149 0-4.243-1.201-1.103-3.052-1.181-4.243 0-1.881 1.867-2.409 4.755-2.942 7.246-.251 1.174-.579 2.33-.812 3.507-.351 1.775-.571 3.58-.736 5.381l4.514-2.59a48.817 48.817 0 0 1-6.688-3.574 51.564 51.564 0 0 1-3.54-2.491 49.019 49.019 0 0 1-.583-.466 73.284 73.284 0 0 1-1.549-1.286c-1.194-1.016-3.087-1.259-4.243 0-1.027 1.119-1.276 3.156 0 4.243z"/><path d="M272.237 193.29c-3.969 2.564-8.623 3.359-13.48 3.006-1.892-.138-4.765-.772-6.397-1.508-2.478-1.118-3.746-2.322-5.669-4.301-8.31-8.548-13.829-19.576-18.845-30.265-2.918-6.219-5.392-12.635-7.521-19.164-2.152-6.6-4.077-13.35-5.367-20.177-1.211-6.412-1.666-13.15-.641-19.623.991-6.254 3.315-12.01 6.278-17.57 5.223-9.8 12.654-17.832 22.142-23.824 5.281-3.335 11.13-6.2 17.122-8.009 5.104-1.541 10.542-2.426 14.781-5.91.78-.642 1.46-1.373 2.084-2.164.071-.09.197-.153.258-.246.242-.369-.52.261-.251.184.257-.073.569-.383.808-.521.242-.14.491-.269.742-.392.206-.101 1.34-.566.479-.232a42.894 42.894 0 0 1 2.194-.799c3.612-1.182 7.37-1.955 11.121-2.545a90.1 90.1 0 0 1 1.268-.19c.116-.017.961-.127.199-.029l.733-.093a68.28 68.28 0 0 1 2.556-.266c1.435-.121 2.886-.213 4.326-.141.23.012.464.048.694.051.338.005-.82-.226-.108-.004.367.114.821.383-.128-.123.507.27-.653-.678-.719-.79-.406-.684-.357-1.287-.276-2.037-.061.565-.152 1.041 0 1.595.246.894.915 1.576 1.685 2.049.8.492 1.734.728 2.651.87 4.035.623 8.291.209 12.322-.314 3.647-.473 7.26-1.298 10.936-1.521 3.364-.204 6.698.149 9.983.869 5.949 1.303 11.699 3.51 17.426 5.553.932.333 1.861.673 2.782 1.037.207.082.413.166.62.249.809.323-.539-.249.241.102.456.206.913.409 1.362.63.778.383 1.541.799 2.271 1.267.32.205.625.429.939.643.622.424-.449-.423.104.083.193.176.4.338.594.514a15.416 15.416 0 0 1 1.627 1.743c-.452-.563.37.557.492.75.269.425.518.862.749 1.307.205.394.394.796.574 1.201-.261-.588.107.276.125.324.106.275.206.551.303.829.39 1.123.709 2.27.983 3.426.327 1.381.561 2.322 1.369 3.41.825 1.11 1.651 2.22 2.479 3.329 2.462 3.3 4.931 6.595 7.427 9.87a354.927 354.927 0 0 0 3.453 4.474c1.229 1.56 2.294 2.974 2.691 4.896.164.791.165 2.055.072 3.172-.104 1.256-.355 2.48-.614 3.901-.547 3.001-1.094 5.994-.477 9.028.952 4.687 4.732 7.603 8.651 9.813 3.796 2.14 7.726 4.034 11.52 6.179a64.427 64.427 0 0 1 4.856 3.054c.613.422-.46-.419.072.056.124.111.257.212.382.322.251.22.487.451.721.688.086.087.167.231.267.302.302.214-.463-.619-.162-.196.014.02.205.337.196.341-.237-.595-.272-.663-.106-.203.047.141.088.284.124.429.05.149.138.774.069.161.029.26.009.518.028.777.056.757.101-.368.012.063-.041.199-.093.393-.14.59-.031.128-.339.844-.037.188-.102.222-.214.44-.333.654-.246.44-.537.847-.822 1.262-.479.698.378-.451-.161.216l-.33.41c-.337.414-.68.823-1.015 1.239-.723.895-1.45 1.802-2.055 2.783-1.604 2.6-1.984 5.38-1.634 8.332.121 1.023.258 2.043.395 3.064.112.838.225 1.677.339 2.515l.138 1.021.065.48.026.194c.451 3.395.89 6.791 1.275 10.194.845 7.474 1.557 15.031 1.361 22.561a57.366 57.366 0 0 1-.299 4.724c-.022.197-.048.394-.069.591-.072.695.119-.71.004-.032-.052.306-.094.614-.148.919-.12.679-.263 1.355-.444 2.021-.141.521-.323 1.023-.498 1.532-.185.54.362-.674-.06.112a27.75 27.75 0 0 1-.374.677c-.299.521-.342.304.02.026-.146.112-.291.313-.416.451-.455.503.236-.114.113-.07-.084.03-.186.115-.263.162-.246.15-.426.047-.009.023.559-.031-.009-.08-.229.025-.302.144.91-.108.213-.024-.492.059-.983.119-1.475.174-1.28.144-2.562.278-3.843.409-3.634.372-7.271.721-10.908 1.065a4754.343 4754.343 0 0 1-25.471 2.34c-1.612.144-3.005 1.258-3 3 .04 14.631.422 29.277 1.172 43.888.304 5.93.683 11.857 1.22 17.771.146 1.614 1.274 3 3 3 1.509 0 3.147-1.377 3-3-1.713-18.88-2.157-37.897-2.356-56.847a643.263 643.263 0 0 1-.037-4.812l-3 3c6.637-.593 13.272-1.199 19.907-1.817 4.815-.449 9.63-.902 14.442-1.383 1.786-.178 3.571-.359 5.355-.556 1.291-.142 2.74-.162 3.964-.597 3.225-1.146 4.747-4.483 5.481-7.597.937-3.976 1.066-8.164 1.032-12.232-.079-9.344-1.205-18.675-2.424-27.928-.265-2.01-.537-4.018-.809-6.027-.091-.669.075.568.006.047l-.064-.478c-.049-.371-.099-.743-.147-1.115-.076-.583-.15-1.166-.217-1.75-.049-.424-.098-.848-.129-1.274a9.275 9.275 0 0 1-.026-.442c-.007-.227.01-.453.01-.68 0-.028.051-.507.007-.18-.042.31.054-.245.068-.301.079-.315.174-.618.27-.927.033-.107.231-.517.006-.037.057-.122.113-.246.178-.364.327-.592.669-1.165 1.063-1.716.097-.135.485-.642.181-.253.193-.247.392-.49.59-.733.419-.513.844-1.02 1.253-1.541 1.767-2.248 3.321-4.798 3.049-7.787-.232-2.549-1.293-4.48-3.249-6.086-4.12-3.386-9.111-5.675-13.801-8.143-2.094-1.102-4.214-2.19-6.2-3.481-.358-.232-.695-.493-1.049-.73.467.312.334.277-.014-.046a15.995 15.995 0 0 1-.946-.932 6.261 6.261 0 0 1-1.598-3.393c-.407-3.101.871-6.913 1.266-10.182.442-3.653-.156-7.4-2.296-10.463-.679-.971-1.459-1.874-2.192-2.805-.277-.352-.552-.706-.827-1.06-.307-.393.265.346-.164-.213l-.598-.778a829.464 829.464 0 0 1-4.686-6.186 1712.78 1712.78 0 0 1-4.421-5.909c-.739-.992-1.421-2.181-2.284-3.071a.41.41 0 0 1-.053-.071c.284.49.194.21.104-.202a41.455 41.455 0 0 0-.62-2.506 32.598 32.598 0 0 0-1.593-4.376c-.985-2.22-2.372-4.305-4.134-5.987-3.729-3.558-8.764-5.244-13.532-6.904-7.868-2.739-15.776-5.797-24.208-6.072-4.594-.15-9.098.828-13.617 1.501-2.396.357-4.842.54-7.261.624-1.262.044-2.531.056-3.79-.048-.127-.01-.253-.026-.38-.036-.458-.035.509.097.082.014-.247-.048-.493-.101-.74-.151-.436-.088-.341-.176.026.066-.591-.39.24.287.028.068l.772 2.919c1.345-6.178-8.613-4.703-11.889-4.314-6.188.734-12.59 1.817-18.338 4.316-.908.395-1.781.831-2.582 1.415-1.19.868-2.124 2.27-3.159 3.051-1.458 1.099-3.148 1.781-4.937 2.361-2.006.65-4.058 1.139-6.088 1.707-9.91 2.775-19.32 7.982-27.273 14.454-6.926 5.636-12.528 12.596-16.724 20.469-2.467 4.63-4.676 9.471-5.972 14.569-1.361 5.352-1.848 10.941-1.589 16.452.525 11.147 3.73 22.228 7.274 32.749 3.391 10.065 7.696 19.817 12.687 29.189 2.336 4.386 4.867 8.681 7.754 12.73 2.782 3.903 5.872 7.878 9.584 10.951 6.592 5.46 16.555 6.275 24.52 3.746 1.954-.62 3.868-1.462 5.592-2.575 1.36-.878 1.92-2.662 1.076-4.105-.791-1.353-2.738-1.959-4.105-1.076z"/><path d="M352.46 31.549c-.378.49.987-.844.457-.444.249-.188.518-.353.789-.506.149-.084.875-.416.387-.22a10.349 10.349 0 0 1 1.606-.485c.281-.063.566-.116.851-.16-.507.077.367-.026.526-.037 1.338-.091 2.683-.026 4.014.129.355.041.055.005-.014-.005a36.482 36.482 0 0 1 1.558.266c.664.13 1.323.279 1.979.445a40.314 40.314 0 0 1 5.083 1.657c.112.044.224.091.335.137-.018-.008-.492-.215-.188-.076.313.143.628.28.94.426a46.104 46.104 0 0 1 7.554 4.432c1.978 1.434 4.438 3.69 5.859 5.588.805 1.075 1.67 2.505 2.129 3.557.141.323.42 1.135.566 1.66a14.91 14.91 0 0 1 .326 1.446c.075.456.018.078.04.354.121 1.48.025 2.954.211 4.433.207 1.649.545 3.253 1.151 4.804a23.214 23.214 0 0 0 5.119 7.873c2.199 2.234 4.831 4.1 7.596 5.567 2.605 1.383 5.486 2.463 7.575 4.358 2.224 2.017 3.682 4.469 4.434 7.431.853 3.363.942 6.868 1.812 10.228.862 3.33 2.416 6.156 5.213 8.188 2.408 1.75 5.331 2.8 8.109 3.8 1.284.462 2.578.897 3.855 1.381.259.098.516.2.774.302-.606-.238.605.255.818.342.734.3 1.479.569 2.225.837 2.494.894 5.297 1.784 6.393 4.449.601 1.462.532 3.083.479 4.633-.062 1.797-.176 3.577.045 5.367.456 3.694 2.198 6.871 4.821 9.485 2.188 2.181 4.783 3.921 7.245 5.77 1.774 1.332 4.006 3.29 5.132 5.246.579 1.005 1.026 2.208 1.169 3.329.205 1.607 1.232 3 3 3 1.462 0 3.206-1.382 3-3-.447-3.505-1.726-6.487-4.039-9.171-2.027-2.352-4.636-4.148-7.118-5.98-2.165-1.599-4.718-3.486-6.159-5.971-1.689-2.913-1.012-6.376-1.072-9.716-.075-4.194-1.674-7.839-5.09-10.349-1.407-1.034-3.049-1.704-4.671-2.319-.681-.258-1.37-.497-2.055-.745a50.72 50.72 0 0 1-1.199-.448c-.608-.238-.356-.146-1.083-.445-1.242-.511-2.513-.947-3.779-1.394-1.237-.437-2.95-1.052-3.852-1.441-1.278-.55-2.523-1.185-3.674-1.97-.061-.042-.455-.346-.097-.059a5.32 5.32 0 0 1-.324-.277 16.028 16.028 0 0 1-.589-.577 4.425 4.425 0 0 1-.263-.301c.1.127.238.42.016-.024-.21-.421-.477-.81-.674-1.24-1.433-3.129-1.516-6.793-2.086-10.138-.633-3.718-1.994-7.153-4.326-10.133-2.03-2.593-4.734-4.644-7.692-6.076-2.658-1.287-5.628-2.704-7.728-4.449-2.385-1.981-4.096-3.948-5.375-6.742-.41-.895-.899-2.571-1.088-3.871-.155-1.066-.038-2.94-.188-4.318-.726-6.657-4.983-12.109-10.12-16.135-4.597-3.602-9.82-6.446-15.436-8.099-5.315-1.565-11.92-2.585-16.992.272-1.388.782-2.436 1.856-3.399 3.102-.991 1.283-.195 3.361 1.076 4.105 1.55.906 3.111.21 4.105-1.076z"/><path d="M348.716 25.198c-.194.034.88.023.149-.044-.204-.019-.423-.019-.628-.025-.754-.021.714.161-.055-.011-.318-.071-.637-.129-.953-.208-1.332-.333-2.63-.805-3.905-1.312a61.675 61.675 0 0 1-.97-.396c.67.28-.429-.189-.628-.278a94.946 94.946 0 0 1-2.592-1.199 148.017 148.017 0 0 1-5.123-2.592c-6.311-3.333-12.46-6.973-18.536-10.714-2.92-1.798-5.807-3.655-8.947-5.057-4.964-2.215-10.157-3.3-15.593-3.359-3.181-.035-6.325.273-9.371 1.227-2.898.908-5.682 2.22-8.353 3.656-2.31 1.242-4.267 2.967-6.041 4.883-1.556 1.681-3.014 3.492-4.797 4.945-1.716 1.399-4.288 2.29-6.69 2.698-2.701.459-5.503.369-8.23.26-5.852-.233-11.921-.801-17.572 1.133-8.079 2.764-14.384 8.436-18.576 15.808-3.943 6.934-6.162 14.689-8.804 22.168a126.24 126.24 0 0 1-2.361 6.218c.2-.482-.039.092-.09.209-.19.438-.382.875-.579 1.31a61.22 61.22 0 0 1-1.302 2.694 45.59 45.59 0 0 1-3.035 5.095c-.268.386-.543.767-.824 1.144-.051.068-.347.448-.046.064a33.503 33.503 0 0 1-2.431 2.773c-3.59 3.661-8.09 5.238-12.753 7.092-5.295 2.105-9.961 4.984-13.644 9.403-3.52 4.224-5.964 9.026-7.894 14.149-.384 1.02-.753 2.046-1.129 3.069a130.08 130.08 0 0 1-.59 1.576c-.099.259-.2.518-.302.776.01-.024-.342.842-.2.505-.422 1-.892 1.984-1.42 2.933-.511.921-1.271 2.084-1.729 2.636-1.544 1.859-3.248 3.142-5.352 4.27-3.405 1.825-.378 7.006 3.028 5.181 4.523-2.424 7.944-6.165 10.119-10.795 2.026-4.315 3.261-9.018 5.325-13.142 2.19-4.375 5.137-8.608 9.137-11.461 4.541-3.238 10.057-4.408 14.963-6.935 7.707-3.969 12.64-11.833 15.954-19.572 3.172-7.408 5.242-15.223 8.352-22.653.209-.501-.278.636.084-.192.094-.215.187-.43.282-.644.171-.384.345-.766.523-1.147.431-.922.886-1.834 1.368-2.731a40.755 40.755 0 0 1 2.972-4.755c.134-.183.269-.365.407-.545-.334.436.032-.037.119-.142.261-.315.519-.63.788-.938a29.885 29.885 0 0 1 3.124-3.085c.13-.11 1.078-.857.706-.579a28.6 28.6 0 0 1 2.505-1.676c4.128-2.456 8.512-3.505 13.632-3.481 5.98.028 11.968.884 17.89-.362 2.632-.554 5.213-1.564 7.373-3.184 2.065-1.549 3.749-3.433 5.477-5.335 1.562-1.719 2.975-3.171 4.908-4.247 2.584-1.438 5.288-2.711 8.142-3.507 4.986-1.392 10.652-.983 15.48.359 4.062 1.129 7.605 3.149 11.233 5.401 5.53 3.433 11.116 6.779 16.817 9.921 3.359 1.851 6.757 3.644 10.246 5.24 2.76 1.263 5.66 2.609 8.662 3.187 1.342.258 2.533.348 3.877.109 1.596-.284 2.496-2.232 2.095-3.69-.463-1.683-2.089-2.38-3.69-2.095zm18 25c-1.882.254-3.802 1.462-5.482 2.298-1.922.956-3.823 1.954-5.765 2.87-.633.298.617-.218-.202.068-.834.291-1.654.637-2.417 1.084-1.618.949-3.057 2.229-4.427 3.5-1.898 1.762-4.08 3.509-5.32 5.834-1.285 2.408-2.018 5.154-3.085 7.664-1.504 3.538-2.686 6.958-2.647 10.855.035 3.551.594 7.038.259 10.595-.295 3.122-1.147 6.338-2.666 9.09-1.481 2.684-3.456 4.767-5.329 7.228-.258.339-.519.677-.765 1.025-.314.445-.045.062.022-.021-.338.42-.689.828-1.05 1.228-.896.992-1.843 1.938-2.79 2.882-3.729 3.72-8.151 7.677-9.784 12.856-.924 2.931-.277 5.727 1.113 8.396.673 1.291 1.484 2.509 2.117 3.821.525 1.088.821 2.629.653 3.46-.242 1.2-.704 1.816-1.323 3.051-.712 1.42-1.369 2.865-2.191 4.227-1.074 1.781-2.607 3.301-4.586 4.959-2.904 2.434-5.49 4.959-7.784 7.99-2.042 2.698-4.155 5.558-5.498 8.679a16.48 16.48 0 0 0-.754 10.894c.847 3.081 3.126 6.27 1.897 9.233-.621 1.497.671 3.299 2.095 3.69 1.725.474 3.067-.592 3.69-2.095 1.368-3.299.216-6.692-.994-9.827-1.042-2.7-1.674-5.438-.985-8.014.62-2.317 2.255-4.593 3.769-6.794 1.767-2.569 3.671-4.973 5.968-7.093 2.068-1.909 4.42-3.518 6.25-5.679 1.741-2.056 2.929-4.363 4.113-6.763.688-1.395 1.489-2.763 1.955-4.254.522-1.669.492-3.456.185-5.161-.558-3.1-2.834-5.579-3.866-8.338-.083-.221-.136-.45-.21-.673-.297-.889-.041.35-.078-.371-.013-.254.003-.503.005-.756.006-.77-.184.532.038-.219.075-.254.125-.514.205-.767.018-.057.33-.892.087-.311.224-.535.508-1.048.804-1.546 1.25-2.096 2.862-3.808 4.731-5.725 1.73-1.774 3.54-3.471 5.215-5.298 1.827-1.993 3.413-4.237 5.092-6.357 2.131-2.691 3.839-5.428 4.985-8.688s1.711-6.732 1.803-10.172c.094-3.507-.727-7.047-.323-10.548.391-3.392 2.219-6.54 3.431-9.68.262-.679.504-1.365.752-2.049.097-.267.193-.534.294-.799.06-.159.121-.316.185-.474-.15.349-.158.373-.024.072.217-.388.44-.773.659-1.16.362-.637-.414.417.127-.167.265-.286.519-.579.793-.858 2.067-2.101 4.609-4.899 7.309-5.912 2.105-.79 4.092-1.891 6.094-2.904a94.886 94.886 0 0 1 3.33-1.63c.224-.102.448-.202.673-.301-.727.323.113-.04.263-.094.319-.115.641-.223.978-.268 1.607-.217 2.483-2.279 2.095-3.69-.477-1.734-2.078-2.313-3.69-2.095zM275.62 189.865c.096 7.003-1.956 13.803-1.919 20.818.039 7.458-.001 14.917-.006 22.375-.004 6.462.755 12.915.558 19.377-.046 1.515-.134 3.039-.365 4.539-.113.734-.374 1.474-.446 2.209-.086.88.156-.228.138-.203-.185.259.634-.754.166-.257-.152.162.747-.377.033-.06-.217.097-.44.232-.648.346-.123.068-.257.113-.382.176-.321.161.759-.282.106-.047-.7.251-1.393.511-2.103.735-1.945.613-3.928 1.109-5.913 1.574-5.6 1.311-11.266 2.345-16.932 3.324-14.814 2.559-29.711 4.644-44.612 6.621a2835.391 2835.391 0 0 1-39.619 4.951c-6.775.802-14.311.649-20.114 4.658-5.33 3.683-9.702 8.662-13.71 13.7-5.156 6.482-9.819 13.342-14.215 20.357-8.582 13.691-16.371 27.979-23.086 42.68-2.051 4.491-4.228 9.089-5.552 13.862-3.123 11.262-5.729 22.57-9.642 33.609-6.582 18.564-16.294 35.358-27.344 51.587-8.028 11.791-14.734 24.359-22.159 36.523-4.578 7.501-9.08 15.032-13.083 22.86C6.13 533.078-2.397 553.101.619 572.499c.672 4.323 2.102 8.567 4.306 12.355 1.124 1.932 2.476 3.753 3.961 5.422 1.341 1.507 3.018 3.491 4.955 4.16 2.629.909 5.577 2.123 8.389 2.169 4.831.079 9.671.005 14.503.008l29.345.016 39.432.022 44.738.025 45.265.025 41.175.023 31.927.018 18.092.01h2.367c3.861.003 3.867-5.997 0-5.999l-9.587-.005-25.617-.014-36.93-.02-43.726-.024-45.402-.025-42.543-.024-34.966-.019-22.672-.013-5.252-.003c-.158 0-.713-.097-.849 0 .142-.101 1.024.319.556.04-.538-.321-1.41-.423-2.004-.601-1.469-.441-2.993-1.075-4.503-1.35-.862-.157.715.217.638.361.015-.028-1.227-1.104-1.268-1.143a30.436 30.436 0 0 1-2.43-2.585c-1.288-1.547-2.363-3.283-3.269-5.079-1.794-3.557-2.765-7.568-3.087-11.527-.763-9.374 1.39-18.749 4.356-27.584 6.239-18.58 16.809-34.909 26.634-51.696 3.671-6.272 7.242-12.604 11.035-18.804 3.237-5.291 6.759-10.382 10.193-15.544 5.322-7.999 10.374-16.186 14.727-24.757 4.615-9.085 8.443-18.559 11.643-28.23 1.885-5.697 3.563-11.461 5.104-17.26 1.14-4.293 1.949-8.722 3.325-12.946 1.683-5.163 3.579-9.118 5.956-14.157 3.323-7.046 6.899-13.974 10.646-20.802 7.866-14.333 16.353-28.795 27.003-41.267 2.073-2.428 4.251-4.781 6.623-6.922 1.931-1.743 3.313-2.865 5.819-4.156.234-.12.473-.231.713-.338-.46.205-.213.077.083-.023.482-.164.968-.289 1.455-.434.852-.253-.101-.017.178-.055.14-.019.28-.034.42-.05 1.053-.121 2.105-.244 3.158-.366a3257.485 3257.485 0 0 0 31.923-3.854c15.311-1.93 30.612-3.96 45.871-6.271 12.11-1.833 24.385-3.574 36.252-6.675 2.821-.737 6.568-1.468 8.733-3.589.732-.717 1.041-1.497 1.289-2.473.771-3.036.95-6.291.975-9.411.052-6.527-.591-13.038-.582-19.569.009-7.197.014-14.393 0-21.59-.013-6.744 2.016-13.284 1.923-20.033-.053-3.858-6.053-3.869-6 0z"/><path d="M175.343 280.682c18.048 10.552 36.995 19.544 56.604 26.799 19.35 7.159 39.324 12.581 59.606 16.349 10.531 1.956 21.158 3.53 31.816 4.609 10.732 1.087 21.507.754 32.177-.783 10.434-1.503 20.649-4.236 30.621-7.624 10.401-3.534 20.403-7.831 29.865-13.438 5.333-3.16 10.525-6.595 15.734-9.956 4.661-3.007 9.657-5.89 13.875-9.519.638-.549 1.298-1.248 1.479-2.099.337-1.583-.468-3.243-2.095-3.69-1.493-.41-3.352.503-3.69 2.095.011-.051.41-1.126.636-1.092-.02-.003-.197.21-.216.226-.258.21-.51.436-.764.651-.498.423.567-.414-.016.012-.169.124-.336.251-.505.375-.505.371-1.016.733-1.53 1.092-2.372 1.659-4.792 3.251-7.216 4.832-4.425 2.887-8.894 5.706-13.337 8.564-17.613 11.331-37.647 18.83-58.204 22.742a127.512 127.512 0 0 1-30.367 2.103c-10.258-.527-20.526-2.1-30.645-3.816-19.986-3.39-39.707-8.35-58.862-14.994s-37.636-14.976-55.32-24.837a376.258 376.258 0 0 1-6.618-3.782c-3.34-1.953-6.364 3.231-3.028 5.181zm-12.067 130.439c-.158-.125-.293-.27-.447-.398-.555-.464.242-.034.072.139-.021.021-.603-1.048-.654-1.135.253.436.187.515.041.056-.068-.215-.14-.427-.2-.644a16.765 16.765 0 0 1-.323-1.504c-.148-.818.04.564-.022-.157-.024-.274-.056-.548-.077-.822a31.717 31.717 0 0 1-.086-1.85 56.085 56.085 0 0 1 .078-3.976c.305-6.037 1.17-12.032 1.435-18.072.219-5.002.349-11.112-2.549-15.464-2.949-4.428-10.044-6.445-14.167-2.326-4.275 4.271-2.857 12.086-1.781 17.323 1.062 5.169 2.713 10.176 4.673 15.066 8.344 20.819 15.939 41.961 21.997 63.565s10.537 43.536 12.884 65.793c.294 2.788.555 5.58.787 8.374.134 1.615 1.283 3 3 3 1.519 0 3.135-1.376 3-3-1.829-22.031-5.618-43.866-11.079-65.283-5.403-21.192-12.384-41.95-20.217-62.36-2.533-6.599-5.453-13.086-7.494-19.863-.854-2.836-1.591-5.716-2.097-8.636-.065-.373-.122-.746-.181-1.12-.027-.169-.1-.744-.014-.067-.021-.163-.043-.326-.061-.49a38.809 38.809 0 0 1-.187-2.155 23.929 23.929 0 0 1-.027-2.04c.009-.286.024-.572.046-.858.011-.138.03-.277.038-.416.039-.664-.131.583 0-.005.123-.556.244-1.098.399-1.647.2-.706-.196.274.023-.09.134-.223.305-.483.405-.719.202-.477-.385.32-.135.16.082-.052.136-.167.21-.234.089-.08.21-.176.282-.269.175-.229.342.047-.238.182.13-.03.454-.222.545-.319-.337.358-.576.184-.267.113.161-.037.327-.097.486-.145.77-.233-.481-.035.192-.037.29 0 .578-.015.868-.001.425.021.72.107.094-.02.276.056.552.097.825.169.21.056.473.198.687.22.33.035-.649-.388-.217-.089.08.056.189.089.272.139.172.103.342.211.515.312.626.368-.384-.439.096.083.15.164.319.318.474.478.539.556-.095-.219.052.047.23.415.497.808.721 1.229.385.721-.157-.506.063.124.086.246.18.487.259.735.167.522.303 1.053.417 1.589.06.282.113.565.161.85.038.225.116 1.187.051.286.045.624.133 1.246.173 1.871.086 1.346.1 2.697.075 4.045-.111 5.907-.921 11.772-1.35 17.658-.343 4.712-.828 10.265 1.441 14.604.438.837 1.046 1.653 1.789 2.242 1.269 1.004 3.004 1.239 4.243 0 1.043-1.043 1.277-3.232 0-4.243z"/><path d="M99.728 527.97c-5.136-4.528-11.989-6.201-18.629-6.987-6.548-.776-13.194-.513-19.708.445-7.06 1.038-14.135 2.611-20.755 5.32-6.344 2.596-13.873 6.426-16.619 13.142-1.158 2.834-1.013 6.15.86 8.648 2.445 3.261 6.625 4.681 10.572 4.922 8.028.49 15.354-4.187 22.444-7.252 14.349-6.203 29.752-10.923 45.232-13.661 10.805-1.911 21.807-2.675 32.726-1.385 2.834.335 5.663.711 8.491 1.087.097.013-.691-.093 0 0l.542.073 1.484.202a2104.386 2104.386 0 0 1 8.864 1.234 3847.075 3847.075 0 0 1 29.268 4.27 5255.444 5255.444 0 0 1 32.071 4.889 3157.698 3157.698 0 0 1 28.531 4.554c6.208 1.025 12.426 2.031 18.598 3.255.789.156 1.577.317 2.361.498l-1.324-5.014c-2.457 2.033-4.015 5.358-5.365 8.173-1.823 3.803-3.387 7.74-4.817 11.706-.929 2.576-1.906 5.195-2.537 7.865-.721 3.049-.866 6.313-1.119 9.427a139.424 139.424 0 0 0-.383 6.027c-.057 1.498-.171 3.046.478 4.436.686 1.468 2.798 1.841 4.105 1.076 1.505-.88 1.765-2.631 1.076-4.105.2.427.363.841.328 1.055.031-.189-.019-.432-.022-.622-.009-.613.012-1.227.036-1.84.064-1.68.177-3.358.305-5.033.137-1.791.295-3.581.485-5.367.043-.401.087-.801.135-1.202.027-.225.191-1.427.053-.466.074-.511.142-1.024.25-1.529.499-2.329 1.359-4.615 2.146-6.857 1.279-3.646 2.626-7.117 4.054-10.238.822-1.798 1.697-3.58 2.712-5.278.217-.363.44-.723.674-1.076.123-.186.732-1.038.49-.717-.252.334.337-.399.474-.545.216-.23.443-.446.687-.648 1.734-1.435.753-4.536-1.324-5.014-4.865-1.12-9.826-1.881-14.746-2.714-8.611-1.459-17.235-2.84-25.862-4.201a4943.615 4943.615 0 0 0-30.865-4.764 4775.344 4775.344 0 0 0-30.099-4.462c-8.029-1.162-16.062-2.305-24.106-3.362-6.771-.89-13.428-1.615-20.287-1.396-15.83.504-31.595 4.043-46.626 8.883a220.49 220.49 0 0 0-21.216 8.048c-3.374 1.484-6.634 3.242-10.108 4.492-3.262 1.173-6.836 2.059-10.247 1.174-.789-.205-1.477-.443-2.149-.808-.8-.435-.733-.453-1.389-1.009-.375-.318-.177-.168-.063-.021a3.613 3.613 0 0 1-.222-.327c-.122-.202-.385-.841-.205-.309a8.08 8.08 0 0 1-.227-.837c-.078-.342.027.148.027.183-.003-.209-.01-.417-.009-.626.003-.673-.103.13.038-.349.075-.256.127-.518.21-.773.056-.172.117-.349.188-.516-.024.057-.172.382-.014.073.178-.349.366-.691.575-1.022.401-.632.455-.705 1.077-1.368a19.728 19.728 0 0 1 1.727-1.607c4.965-4.162 11.842-6.587 18.242-8.262 3.356-.878 6.76-1.566 10.185-2.113.39-.062.78-.123 1.17-.181l.493-.073c.064-.009.698-.099.325-.048-.249.034.472-.059.607-.075a76.905 76.905 0 0 1 5.846-.465c6.537-.27 12.801.068 18.95 2.082 1.515.496 2.194.763 3.549 1.481a20.154 20.154 0 0 1 2.542 1.597c-.398-.304.446.389.516.45 1.215 1.071 3.046 1.196 4.243 0 1.092-1.092 1.22-3.167 0-4.243z"/><path d="M158.769 426.501c-5.697 2.547-9.686 8.138-12.722 13.37-3.604 6.211-6.304 12.919-8.996 19.56-.636 1.568-1.268 3.137-1.911 4.702-.149.364-.3.728-.45 1.091-.072.174-.441 1.054-.255.613-.305.723-.616 1.444-.934 2.162-1.371 3.1-2.988 6.036-4.666 8.98-2.647 4.645-5.369 9.247-8.083 13.853-2.551 4.329-4.919 8.815-7.679 13.014-5.347 8.133-12.306 15.308-13.559 25.381-.2 1.611 1.522 3 3 3 1.788 0 2.799-1.385 3-3 .953-7.661 7.088-14.242 11.462-20.476 2.722-3.881 4.956-8.085 7.355-12.167 2.627-4.47 5.274-8.927 7.87-13.415 1.946-3.365 3.964-6.712 5.616-10.235 1.345-2.868 2.543-5.806 3.736-8.739 2.604-6.4 4.847-12.227 8.091-18.415a68.877 68.877 0 0 1 2.766-4.832c.473-.748.963-1.485 1.475-2.206.249-.35.502-.698.762-1.04-.295.387-.004.007.049-.06a38.1 38.1 0 0 1 .438-.539c1.009-1.217 2.104-2.368 3.318-3.384.128-.107.258-.212.388-.317.277-.224-.388.256.081-.054.303-.201.595-.417.903-.611a15.84 15.84 0 0 1 1.975-1.054c1.479-.661 1.831-2.814 1.076-4.105-.891-1.523-2.62-1.74-4.105-1.076zm298.516-55.042h-.003c-1.241-.371-2.76.237-3.388 1.378-.925 1.68.104 3.686.666 5.322a408.37 408.37 0 0 0 2.837 7.952c2.637 7.184 5.387 14.344 8.505 21.335 1.152 2.582 2.332 5.191 3.816 7.603 1.007 1.638 2.248 3.128 3.36 4.694 1.613 2.274 3.156 4.602 4.546 7.02 1.178 2.051 2.307 4.271 3.067 6.291a33.067 33.067 0 0 1 1.036 3.225 28.651 28.651 0 0 1 .529 2.413c-.002-.013.141.954.082.489.585 4.6-.24 8.753-2.397 12.812-4.14 7.789-11.566 13.031-17.308 19.547-1.588 1.802-3.104 3.732-4.119 5.922-1.02 2.201-1.608 4.482-1.956 6.876-.516 3.545-.75 7.122-1.007 10.693-.297 4.13-.692 8.255-.94 12.388-.411 6.864-.44 13.756-.494 20.63-.063 7.987-.058 15.975-.098 23.963-.026 5.173.136 10.43-.327 15.589-.012.138-.031.277-.041.415-.036.542.161-.872.059-.429-.094.408-.314.819.188-.254-.686 1.467-.411 3.235 1.076 4.105 1.3.761 3.415.398 4.105-1.076.696-1.487.668-3.225.735-4.839.106-2.54.134-5.083.161-7.625.081-7.581.068-15.163.1-22.744s.062-15.202.315-22.797c.248-7.436.918-14.873 1.535-22.286.064-.772.133-1.544.211-2.315.036-.352.073-.704.114-1.056.026-.226.219-1.577.067-.578.177-1.164.366-2.323.664-3.463.129-.492.274-.979.442-1.458.081-.232.174-.459.258-.69.08-.218.292-.547-.106.246.065-.13.116-.267.18-.397.465-.945.989-1.846 1.599-2.705.156-.219.321-.432.479-.649-.588.808.029-.027.162-.189.429-.523.874-1.032 1.328-1.533a96.91 96.91 0 0 1 3.14-3.271c3.38-3.394 7.011-6.608 10.063-10.307 3.438-4.167 6.335-8.943 7.424-14.298.984-4.838.572-9.812-.961-14.493-1.621-4.946-4.206-9.526-7.095-13.832-2.067-3.079-4.469-5.909-6.198-9.2-1.501-2.857-2.799-5.822-4.056-8.792.233.55-.25-.599-.325-.78-.176-.423-.35-.847-.524-1.271-.388-.947-.771-1.896-1.15-2.847a413.867 413.867 0 0 1-2.137-5.479c-2.04-5.338-4.062-10.702-5.827-16.138-.073-.223-.133-.454-.213-.675-.161-.444.061-.575.02.456l-.41 1.514.002-.003-3.388 1.379h.003c3.708 1.108 5.292-4.681 1.595-5.785zM286.952 594.414c.249.199.48.415.697.648.077.083.148.179.228.259.442.442-.364-.581-.02-.029.427.686.868 1.344 1.239 2.066a26.715 26.715 0 0 1 .814 1.734c.199.458-.258-.668.041.105a68.49 68.49 0 0 1 1.114 3.048c1.313 3.939 2.295 7.989 3.146 12.05.339 1.621.654 3.247.941 4.878.102.58.201 1.161.293 1.742.058.364.266 1.839.069.391.236 1.738.591 3.434.94 5.151.106.523.183 1.053.291 1.575-.221-1.068.009.115.041.411.202 1.851.377 3.707.694 5.543.646 3.738 2.262 8.262 6.444 9.176 4.87 1.064 8.855-2.7 9.861-7.194.928-4.144.314-8.346.302-12.535-.008-2.89.159-5.748.038-8.647-.288-6.894-.815-13.784-1.408-20.658l-3 3c-.02-.003-1.037-.153-.414-.054.348.055.697.107 1.044.166 1.008.171 2.011.37 3.007.598 1.296.297 2.583.643 3.843 1.071 1.222.416 1.741.589 2.966 1.345 2.997 1.85 5.801 4.064 8.768 5.975 3.1 1.997 6.235 3.942 9.324 5.957 2.964 1.934 5.922 3.915 8.693 6.12 2.901 2.309 5.525 4.926 8.48 7.169 3.031 2.301 6.334 4.131 9.874 5.524 3.175 1.25 6.541 2.401 9.975 2.575 4.381.221 10.234-2.234 8.94-7.474-.722-2.924-3.076-5.461-5.07-7.594-5.858-6.265-12.807-11.574-19.627-16.735a319.29 319.29 0 0 0-18.479-12.954c-1.63-1.061-3.289-2.071-5.011-2.977-1.433-.754-3.261-.365-4.105 1.076-.792 1.354-.363 3.347 1.076 4.105 4.697 2.472 9.075 5.621 13.44 8.631a266.055 266.055 0 0 1 7.053 5.059 333.13 333.13 0 0 1 4.765 3.588l.399.307c.669.515-.474-.37.195.151a281.201 281.201 0 0 1 3.857 3.05c3.201 2.581 6.352 5.236 9.332 8.072 1.291 1.228 2.552 2.491 3.732 3.827.248.281.493.565.733.854.154.186.875 1.165.292.349.387.542.783 1.072 1.12 1.647.123.21.227.43.348.64.398.69-.162-.645.006-.008.052.196.109.415.179.604.185.505.024-.896-.035-.071-.012.162.253-.922.005-.241.363-.995.305-.663.172-.434-.136.233-.385.396.284-.351-.022.024-.175.149-.176.174l.24-.189a6.719 6.719 0 0 1-.624.391c-.38.203-1.27.451-1.569.485-2.846.323-5.791-.868-8.503-1.84-3.206-1.149-6.187-2.8-8.945-4.793s-5.126-4.467-7.779-6.593c-2.769-2.22-5.657-4.283-8.611-6.25-3.372-2.245-6.816-4.378-10.226-6.563-3.148-2.017-6.143-4.253-9.266-6.297-3.936-2.577-9.102-3.497-13.704-4.091-1.52-.196-3.126 1.536-3 3 .479 5.543.892 11.095 1.207 16.65.187 3.285.412 6.602.295 9.894s.102 6.531.095 9.816c-.002.992-.044 1.98-.145 2.966-.054.526.14-.698-.02.143-.049.259-.092.518-.149.775-.11.492-.258.97-.427 1.445.234-.657-.244.363-.321.553-.05.122-.357.47.073-.052-.14.17-.327.321-.458.496-.271.365-.061.058.084-.039-.193.129-.399.234-.593.36-.599.389.353-.094-.07.021-.286.077-.565.158-.857.212.837-.156-.856-.26.088.008-.025-.007-.476-.104-.47-.121l-.091-.03c.422.19.49.212.203.068-.043.02-.597-.416-.162-.08.404.312-.073-.09-.124-.143-.15-.154-.442-.643-.035.001-.11-.174-.23-.341-.335-.52-.106-.181-.545-1.192-.265-.462a15.873 15.873 0 0 1-.38-1.093 21.506 21.506 0 0 1-.595-2.606 41.455 41.455 0 0 1-.186-1.208c.112.791-.058-.522-.081-.728-.085-.764-.156-1.529-.243-2.293a36.444 36.444 0 0 0-.428-2.868c-.142-.729-.305-1.454-.456-2.181-.06-.292-.121-.584-.178-.876-.029-.152-.314-1.838-.188-.998-.391-2.61-.825-5.204-1.354-7.79-.9-4.405-1.949-8.802-3.389-13.064-1.165-3.445-2.607-7.843-5.566-10.215-1.263-1.012-3.009-1.234-4.243 0-1.049 1.049-1.271 3.224 0 4.243z"/><path d="M268.194 552.858c10.018 1.908 20.161 3.287 30.246 4.784 12.25 1.818 24.567 3.842 36.922 4.804 2.672.208 5.31-.027 7.985.033.052.001.712.068.224.004.161.021.326.054.485.086.448.091.892.194 1.333.312a34.694 34.694 0 0 1 8.353 3.529c.48.281.953.573 1.415.883.177.118.35.24.525.362.815.567-.195-.175.242.172.73.579 1.317 1.329 2.079 1.858.403.279.83.529 1.244.791a652.225 652.225 0 0 0 7.069 4.417c2.956 1.82 5.925 3.623 8.942 5.34 2.108 1.2 4.368 2.144 6.447 3.378 1.281.76 2.494 1.635 3.675 2.541-.379-.291.604.481.738.589.312.251.623.505.932.761.822.681 1.633 1.375 2.435 2.079 3.432 3.013 6.721 6.191 9.929 9.441a257.5 257.5 0 0 1 9.761 10.446c1.573 1.782 3.064 3.642 4.682 5.382 1.644 1.768 3.427 3.392 5.16 5.07a39.375 39.375 0 0 1 1.872 1.94c.12.133.417.602.064.066.076.115.159.263.245.365.088.105.122.241.198.351-.387-.559-.143-.339-.057-.053l-.066-.485c-.007.236.002.203.028-.099.022-.118.366-1.022.142-.547.013-.028.444-.633.127-.211.327-.436.353-.201.104-.096-.935.395-1.712.813-2.673 1.148-.801.279-1.618.513-2.456.648.739-.119-.287-.007-.489-.01-.184-.002-.366-.022-.55-.027.469.015.343.077-.053-.031-.28-.076-.554-.172-.833-.251-.685-.196.389.2-.014-.01-.177-.092-.356-.177-.531-.273-.763-.417-1.48-.914-2.185-1.422-1.985-1.432-3.893-2.969-5.864-4.421-1.305-.962-3.348-.217-4.105 1.076-.891 1.524-.232 3.141 1.076 4.105 2.092 1.541 4.109 3.19 6.233 4.686 1.397.984 2.944 1.906 4.625 2.296 1.907.442 3.849.274 5.72-.256 2.075-.588 4.646-1.388 6.234-2.919 3.625-3.494-.292-7.648-2.922-10.166-1.829-1.752-3.689-3.472-5.381-5.36-1.596-1.781-3.11-3.636-4.7-5.423-6.349-7.134-13.049-14.065-20.317-20.272-2.655-2.267-5.429-4.626-8.528-6.273-2.305-1.225-4.646-2.339-6.911-3.652-5.262-3.052-10.426-6.278-15.558-9.543-.148-.094-.295-.194-.445-.284.715.427.362.195.062-.1a14.81 14.81 0 0 0-1.179-1.016c-1.837-1.457-3.847-2.639-5.963-3.642-4.374-2.073-8.678-3.472-13.559-3.237-4.566.219-9.139-.432-13.665-.978a600.615 600.615 0 0 1-8.192-1.049c-.519-.069.728.099-.123-.017l-.797-.108c-3.603-.489-7.204-.997-10.804-1.517-11.815-1.706-23.638-3.442-35.4-5.484-.548-.095-1.095-.191-1.641-.295-1.59-.303-3.237.445-3.69 2.095-.403 1.466.496 3.386 2.095 3.69zm202.487-270.42c3.387 6.499 6.988 12.942 11.287 18.891 1.522 2.106 3.19 4.08 5.459 5.413 2.706 1.59 5.828 2.096 8.903 2.398l-2.893-2.202c1.082 3.288 1.376 6.716 1.499 10.157.11 3.061.152 6.142.1 9.206-.098 5.789-.679 11.58-1.184 17.343-.402 4.594-.824 9.186-1.238 13.779-.145 1.616 1.483 3 3 3 1.744 0 2.854-1.379 3-3 1.183-13.145 2.713-26.277 2.348-39.493-.116-4.212-.414-8.559-1.74-12.586-.451-1.369-1.508-2.067-2.893-2.202-1.276-.125-2.416-.297-3.771-.693-.319-.093-.629-.208-.945-.309-.604-.193.33.195-.266-.106a13.824 13.824 0 0 1-1.31-.728 9.783 9.783 0 0 1-.595-.418c.563.428-.068-.078-.138-.146-.355-.345-.713-.682-1.044-1.051a17.395 17.395 0 0 1-.502-.585c-.095-.115-.5-.643-.194-.237a42.296 42.296 0 0 1-1.096-1.534c-3.948-5.731-7.393-11.756-10.607-17.923-.749-1.436-2.755-1.866-4.105-1.076-1.456.852-1.828 2.663-1.076 4.105z"/><path d="M450.883 226.113c-2.436-2.12-4.513-4.589-6.866-6.793-1.865-1.746-4.268-3.949-6.809-4.585-1.401-.351-3.013-.299-4.444-.361-1.979-.086-3.959-.146-5.939-.21-1.674-.055-3.349-.1-5.022-.192-.274-.015-.548-.036-.822-.053-.772-.049.12-.151.276.052-.246-.318-1.608-.525-2.005-.659a98.59 98.59 0 0 1-2.738-.959 60.109 60.109 0 0 1-2.058-.804c.547.228-.485-.217-.58-.26a28.766 28.766 0 0 1-2.738-1.411c-.463-.274-.903-.578-1.352-.874-.692-.456.269.236-.112-.077a13.297 13.297 0 0 1-.659-.572c-.176-.166-.338-.343-.509-.513a9.37 9.37 0 0 1-.308-.353c.231.307.25.327.058.06a4.193 4.193 0 0 0-.345-.568c-.334-.426.074.486-.045-.074a7.084 7.084 0 0 0-.169-.619c.247.771.053-.041.015-.283-.115-.715-.069.634.004-.113.091-.934.11.148-.093-.008-.04-.03 2.3-3.506 2.516-3.836l-1.793 1.379c.737-.167-.729.03-.187.015.242-.007.485-.034.727-.043a29.88 29.88 0 0 1 1.94.012c1.819.059 3.635.198 5.448.353 4.73.404 9.448.947 14.16 1.519a897.129 897.129 0 0 1 10.204 1.299l1.302.174c.553.074-.638-.086.046.006l.707.096c1.203.163 2.405.328 3.607.496.196.027.551.15.747.105.033-.008-.946-.569-.429-.148.849.691 1.879 1.235 2.793 1.835l4.953 3.254 11.009 7.234 3.369 2.214c.187.123.371.264.567.372 1.095.606 2.534.368 3.753.483.219.021.436.048.654.072-.631-.07-.069-.007.217.04.592.097 1.181.214 1.767.344 1.184.263 2.355.583 3.515.937 2.559.781 5.062 1.732 7.533 2.754.491.203-.109-.049.38.16a138.257 138.257 0 0 1 3.003 1.327c1.252.571 2.495 1.159 3.732 1.762a204.395 204.395 0 0 1 6.804 3.48c2.801 1.497 5.533 3.104 8.297 4.666.139.079.275.164.412.247l-1.076-1.076 6.996 13.55 12.873 24.935 4.867 9.428 1.331 2.577c.105.204.198.427.321.621.298.473-.256-.81-.211-.511.12.791.474 1.608.699 2.373a2497.744 2497.744 0 0 1 6.215 21.522 1317.433 1317.433 0 0 1 5.122 18.49 552.19 552.19 0 0 1 2.117 8.114c.465 1.847 1.209 3.589 1.891 5.367l.717 1.868 1.379-3.388c-7.2 3.555-13.787 8.489-21.287 11.332-4.408 1.671-9.079 2.827-13.769 3.321-3.857.406-7.719.359-11.587.205-3.302-.132-6.727-.333-9.939.612-3.696 1.088-2.123 6.88 1.595 5.786a17.678 17.678 0 0 1 1.717-.388c-.781.148.119-.01.339-.03.396-.035.793-.057 1.191-.071 1.504-.055 3.011.008 4.513.067 3.857.152 7.706.243 11.555-.121 9.513-.897 18.319-3.957 26.573-8.702 4.025-2.314 7.96-4.773 12.127-6.831 1.086-.536 1.824-2.226 1.379-3.388-.761-1.984-1.662-3.96-2.297-5.988-1.129-3.609-1.89-7.377-2.877-11.03-2.201-8.148-4.5-16.269-6.832-24.381a2427.627 2427.627 0 0 0-4.547-15.634c-.552-1.871-1.609-3.577-2.5-5.302l-15.807-30.618-6.898-13.361c-.539-1.044-1.047-2.112-1.62-3.138-.521-.933-1.305-1.437-2.192-1.96a207.517 207.517 0 0 0-14.953-8.017c-6.643-3.216-13.739-6.538-21.086-7.717-1.517-.243-3.049-.432-4.588-.379l1.514.41-19.526-12.831c-1.608-1.057-3.104-2.389-5.044-2.66-3.878-.541-7.76-1.059-11.644-1.557-5.348-.685-10.701-1.337-16.066-1.875-3.803-.382-7.779-.961-11.61-.699-1.451.099-2.583.309-3.501 1.615-.554.788-1.059 1.615-1.588 2.42-1.472 2.245-2.172 4.704-1.164 7.348 2.198 5.765 9.339 8.2 14.667 10.026 1.792.614 3.374 1.064 5.268 1.16 2.429.122 4.862.178 7.292.26 2.185.074 4.363.197 6.545.322.555.032-.747-.154-.359-.051.44.117.001-.284-.453-.235.327-.035 1.01.547 1.31.729.522.316 1.038.65 1.525 1.018 1.493 1.127 2.801 2.504 4.092 3.853 1.473 1.539 2.945 3.071 4.554 4.471 1.221 1.063 3.041 1.201 4.243 0 1.086-1.086 1.227-3.174 0-4.243z"/><path d="M473.819 222.666c-2.784 1.645-5.275 3.885-7.701 6.005-3.256 2.846-6.409 5.811-9.505 8.83-2.793 2.723-5.552 5.487-8.187 8.363-1.569 1.712-4.122 3.914-4.157 6.429-.03 2.113 1.358 4.19 2.465 5.891.973 1.495 2.141 2.908 3 4.473 1.53 2.787 2.563 5.928 3.66 8.901s2.314 5.94 3.323 8.951c.794 2.369 1.67 5.358 4.053 6.605 2.184 1.143 4.707.428 6.813-.512 3.375-1.505 8.284-5.041 8.218-9.212-.01-.66-.185-1.469-.533-2.048-.274-.456.192.885.121.306-.055-.445-.199-.895-.296-1.332l-1.174-5.278-1.939-8.718c-.352-1.582-2.184-2.509-3.69-2.095-1.63.448-2.448 2.104-2.095 3.69l3.323 14.938c.041.185.069.38.125.561-.309-1.007.371.795.381.835-.309-1.205-.173.444-.222-.859.007.191-.005.617.068-.353-.026.341-.422.723.013.09-.19.277-.344.583-.535.862.416-.606-.275.286-.44.457-.297.306-.61.597-.933.875.022-.019-.647.531-.316.27.23-.181-.483.348-.568.406-.734.503-1.505.93-2.304 1.32-.717.351.547-.122-.198.073-.149.039-.298.103-.446.147-.21.063-.44.093-.646.165-.569.198.603-.04-.009-.002-.399.025-.543-.188.073.066-.104-.043-.221-.031-.325-.08l.379.154c.308.261.337.271.088.03.107-.037.218.389.002-.03-.523-1.012-.698-1.429-1.111-2.659-.943-2.809-2.069-5.563-3.091-8.345-1.158-3.154-2.35-6.297-3.724-9.365-.76-1.696-1.687-3.119-2.737-4.643a61.94 61.94 0 0 1-1.591-2.401 25.405 25.405 0 0 1-.696-1.182c-.119-.218-.219-.454-.346-.667-.343-.577.084.454-.044-.095-.026-.112-.086-.444-.155-.533.208.273.048.694.06.345-.006.161-.099 1.08-.326 1.136.021-.005.049-.11.067-.13.086-.104.149-.245.225-.357.128-.192.304-.68.132-.195s.072-.086.245-.296c.159-.193.321-.384.484-.574.427-.498.864-.988 1.305-1.473 2.33-2.564 4.771-5.03 7.237-7.463 3.235-3.191 6.536-6.32 9.938-9.333a113.204 113.204 0 0 1 4.414-3.741l.327-.26c.667-.532-.224.156.177-.138.291-.213.578-.433.871-.643.482-.345.974-.677 1.484-.978 3.322-1.963.307-7.151-3.028-5.181z"/><path d="M504.127 247.001c-2.478-1.158-4.941-2.113-6.762-4.23-.472-.548-.82-1.091-1.479-1.463-.568-.32-.105-.167-.135.002 0-.003-.193-.188-.223-.224.772.943.075.038-.175-.221-.23-.238-.257-.301-.697-.567a3.59 3.59 0 0 0-1.759-.504c-2.276-.054-4.856 1.255-6.544 2.684-1.591 1.347-2.674 3.243-3.274 5.222-1.129 3.724-.596 7.852 1.523 11.105 1.437 2.206 3.087 4.106 4.213 6.511.9 1.924 2.424 3.535 3.855 5.076.58.624 1.169 1.243 1.702 1.908-.365-.454.298.475.401.628.084.126.148.276.216.409-.322-.625-.063-.088-.009.1-.2-.696-.075-.309-.029-.081.086.429.08-.765-.002-.076.077-.646.218-.21.035-.091-.54.352.206-.183-.067.133-.705.814-1.644 1.372-2.615 1.882-.6.315-1.141.497-2.102.716-.822.187.367-.006-.125.01-.214.007-.426.021-.64.017-.168-.003-.334-.019-.501-.027.71.035.004 0-.177-.047a9.765 9.765 0 0 1-1.168-.368c.637.257-.448-.266-.617-.368a13.16 13.16 0 0 1-.852-.57c.538.386-.156-.135-.217-.187a17.14 17.14 0 0 1-.602-.543c-1.374-1.298-2.373-2.588-3.246-3.786-1.158-1.589-2.245-3.227-3.396-4.82a47.87 47.87 0 0 0-3.795-4.61c-1.493-1.602-2.942-3.065-3.976-4.82-.105-.178-.196-.362-.3-.54-.287-.49.072.165-.189-.469-.131-.319.052-.573-.072-.084.094-.367-.101.927-.072.474.027-.427.266-.523-.047.018.172-.297.306-.621.473-.922.913-1.639 2.008-3.181 3.103-4.702.663-.92 1.34-1.83 2.027-2.732.395-.519.259-.344.677-.879.376-.481.754-.96 1.135-1.436 1.159-1.447 2.337-2.882 3.584-4.255 1.089-1.199 1.184-3.058 0-4.243-1.106-1.106-3.149-1.204-4.243 0-2.458 2.706-4.709 5.614-6.902 8.535-1.968 2.621-4.275 5.406-5.423 8.518-1.425 3.863 2.461 7.948 4.826 10.535.697.762 1.412 1.508 2.106 2.273.245.269.487.541.721.819.138.164.272.332.406.5a36.266 36.266 0 0 1 .279.368c1.105 1.482 2.131 3.021 3.199 4.529 2.2 3.109 4.606 6.412 7.983 8.338 3.776 2.153 8.086 1.781 11.768-.394 2.046-1.209 4.085-2.814 4.806-5.175.585-1.915-.062-4.005-1.177-5.591-1.138-1.619-2.561-2.983-3.858-4.467-.602-.689-.746-.811-1.304-1.769-.615-1.054-1.025-2.197-1.692-3.229-.792-1.223-1.744-2.331-2.573-3.528a22.73 22.73 0 0 1-1.115-1.811c-.038-.068-.271-.616-.082-.149.191.473-.057-.207-.087-.304-.12-.391-.191-.785-.278-1.183-.035-.158-.039-.562.01.095-.018-.244-.044-.488-.054-.733-.02-.468.005-.928.024-1.395.007-.167.101-.739-.003-.106.043-.259.09-.518.15-.774.1-.43.232-.85.384-1.265-.199.544-.003.003.073-.133.129-.233.263-.463.395-.695.071-.125.431-.582.082-.153.172-.211.359-.41.555-.599a5.55 5.55 0 0 1 .414-.368c-.438.345.23-.124.329-.182-.064.037.786-.399.448-.249-.12.053.578-.192.737-.24.28-.085.59-.134.86-.244l.243-.059a1.894 1.894 0 0 1-1.015-.044 3.17 3.17 0 0 1-1.462-1.078c.179.236.409.579.647.812.469.46 1.033.838 1.621 1.124l-1.076-1.076c1.177 1.589 2.456 2.932 4.076 4.078 1.561 1.104 3.371 1.814 5.095 2.619 1.467.686 3.234.412 4.105-1.076.76-1.3.398-3.415-1.076-4.105zm-37.446-29.582c-6.344 3.36-12.435 7.151-18.654 10.729-3.45 1.985-7.022 3.773-10.33 5.996-2.741 1.841-6.486 4.093-7.363 7.517-.446 1.744-.151 3.592.208 5.321.15.721.327 1.436.49 2.153.092.404.179.809.259 1.216.088.447.059.082.086.641.19 3.928-.765 7.938-1.512 11.766-.684 3.501-1.814 7.243-1.317 10.827.434 3.132 2.567 6.066 5.825 6.606 3.375.56 6.491-1.155 9.018-3.227 2.147-1.761 4.196-4.24 4.889-6.982.946-3.745-4.839-5.342-5.786-1.595-.049.193-.122.38-.17.572-.158.63.34-.483-.048.087-.274.402-.487.851-.762 1.256-.476.7.393-.425-.174.237-.119.139-.235.28-.357.417a16.027 16.027 0 0 1-2.058 1.945c.471-.363-.28.18-.309.2-.382.257-.778.495-1.186.708-.078.04-.882.383-.247.138a8.378 8.378 0 0 1-.721.245 8.356 8.356 0 0 1-.713.164c.761-.144-.055-.042-.243-.033-.478.021.753.065.024.011-.103-.008-.921-.135-.114.006-.061-.011-.841-.438-.153-.041-.087-.05-.603-.653-.205-.136-.364-.473-.458-.741-.569-1.24-.091-.407-.093-1.311-.044-1.967.224-2.979 1.171-6.316 1.742-9.385.642-3.452 1.449-7.196 1.181-10.727-.108-1.422-.437-2.812-.758-4.197-.164-.709-.345-1.422-.451-2.144.065.446-.05-.609-.047-.551a6.577 6.577 0 0 1-.003-.628c-.066.302-.062.28.011-.066.08-.304.032-.202.347-.571.475-.556 1.061-1.043 1.637-1.491 1.057-.822 2.353-1.712 3.549-2.477 3.045-1.948 6.272-3.587 9.403-5.388 6.219-3.578 12.31-7.369 18.654-10.729 1.431-.758 1.87-2.748 1.076-4.105-.848-1.449-2.668-1.837-4.105-1.076z"/><path d="M435.95 247.992c-.855-2.924-3.926-4.927-6.243-6.611-2.967-2.155-6.064-4.127-9-6.326-.193-.145-.384-.294-.578-.438.388.288.228.179-.036-.031a44.87 44.87 0 0 1-1.072-.874 27.026 27.026 0 0 1-1.76-1.607 16.778 16.778 0 0 1-.741-.791c-.104-.119-.203-.242-.306-.361-.418-.486.353.545.015.011-.149-.235-.311-.46-.446-.704-.047-.086-.132-.369-.207-.404.197.092.244.764.099.205-.028-.107-.054-.234-.095-.336-.199-.487-.032.702.028.301.005-.035-.037-.314-.008-.325.003 0 .013-.151.011-.16-.063-.239-.096.725-.059.48.018-.12.06-.25.106-.363-.075.185-.232.762-.113.311.014-.053.207-.261.191-.298.113.264-.562.561-.053.125.029-.025.295-.293.31-.281.01.008-.668.445-.12.106a15.46 15.46 0 0 1 1.062-.606c.086-.045.177-.082.264-.124.349-.166-.51.166-.044.024.271-.083.535-.179.81-.249.13-.033.828-.162.574-.127-.332.045.135-.007.167-.008.24-.004.478-.024.719-.024.342 0 .681.026 1.022.046.017.001.5.059.193.017-.283-.039.294.056.346.066.766.145 1.52.349 2.261.591.787.258 1.359.48 1.854.702.756.338 1.499.705 2.232 1.09 2.681 1.412 5.199 3.093 7.776 4.68 3.297 2.03 6.314-3.158 3.028-5.181-5.008-3.083-10.197-6.868-16.153-7.769-3.017-.456-5.957-.158-8.643 1.383-1.608.923-3.126 2.373-3.565 4.241-.847 3.609 1.778 6.72 4.285 8.961 3.061 2.737 6.533 4.998 9.907 7.323.857.59 1.712 1.184 2.555 1.793.402.29.796.59 1.195.883.379.279-.488-.396.082.066.172.139.345.276.515.417a20.098 20.098 0 0 1 1.67 1.566c.105.109.4.533.069.059-.348-.498-.018-.03.049.089.059.105.121.238.193.335.296.396-.285-.808-.131-.279 1.081 3.698 6.873 2.125 5.786-1.595zm116.67 98.897c2.884 13.055 5.938 26.071 8.811 39.128 4.323 19.648 8.041 39.465 11.587 59.265 1.895 10.58 3.57 21.191 5.328 31.793 1.292 7.794 2.901 15.531 4.372 23.291 3.021 15.942 5.719 32.072 4.055 48.415-.731 7.186-2.735 15.162-6.026 21.698-1.717 3.41-3.85 6.766-6.193 9.606-2.467 2.99-5.183 6.224-8.6 7.732.358-.158-.126.045-.166.06a11.775 11.775 0 0 1-2.056.547c-.547.093.34-.028-.231.032-.239.025-.479.04-.719.052-.575.028-1.148.018-1.724-.006-1.62-.068-3 1.427-3 3 0 1.681 1.375 2.932 3 3 4.609.192 8.578-1.347 12.077-4.289 3.312-2.785 6.16-6.261 8.645-9.786 4.679-6.636 7.82-14.332 9.537-22.249 3.601-16.609 1.634-33.858-1.187-50.423-1.384-8.128-3.056-16.203-4.578-24.306-1.796-9.564-3.183-19.2-4.826-28.791-3.857-22.522-8.258-44.948-12.884-67.324-2.609-12.621-5.662-25.158-8.477-37.734-.321-1.435-.641-2.871-.958-4.307-.35-1.583-2.186-2.509-3.69-2.095-1.631.448-2.446 2.103-2.095 3.69zm-59.107 14.202c.01 19.768 1.178 39.523 3.095 59.194a851.094 851.094 0 0 0 3.389 29.326c1.316 9.926 2.673 19.795 3.3 29.796.294 4.685.818 9.518.567 14.211-.162 3.041-1.2 6.567-2.506 9.263-3.072 6.338-7.789 11.672-11.51 17.611-4.154 6.63-7.483 14.348-5.254 22.238.796 2.818 2.015 5.833 4.067 7.982 2.45 2.565 6.152 2.635 8.548-.051 2.418-2.711 3.281-6.517 3.791-10.015.557-3.813.577-7.607.778-11.445.24-4.595.829-9.197 2.114-13.626 1.151-3.966 3.546-7.446 4.879-11.353.668-1.958 1.04-4.059.941-6.13-.077-1.619-1.324-3-3-3-1.565 0-3.077 1.374-3 3 .174 3.65-1.739 6.992-3.313 10.261-1.918 3.983-3.079 8.049-3.751 12.417s-.857 8.742-1.024 13.16c-.128 3.398-.388 6.367-1.354 9.613-.094.316-.195.63-.305.941-.07.198-.142.401-.224.595.053-.126.195-.4-.065.12-.15.299-.314.586-.481.876-.254.443-.081.156-.417.551-.443.519.124-.032-.235.21-.294.199.165-.053.203-.06 0 0 .662.001.314-.045.084.011.636.33.206.066-.319-.196-.013.01.113.121-.195-.17-.368-.353-.554-.532-.495-.479.074.194-.203-.239-.383-.598-.75-1.194-1.065-1.832-.07-.141-.399-.855-.309-.649.079.182-.194-.491-.26-.667a24.267 24.267 0 0 1-.61-1.863c-1.876-6.641 1.739-13.161 5.309-18.646 3.66-5.622 8.109-10.786 10.996-16.884 1.595-3.37 2.652-6.834 3.061-10.543.479-4.342-.059-8.865-.304-13.211-1.077-19.091-4.407-37.961-6.373-56.97-1.953-18.888-3.245-37.857-3.508-56.848a518.08 518.08 0 0 1-.048-6.941c-.002-3.861-6.002-3.867-6 0zM347.392 579.213c14.16 11.737 29.343 22.161 43.916 33.364a418.66 418.66 0 0 1 11.194 8.903 334.856 334.856 0 0 1 5.593 4.714 309.64 309.64 0 0 1 2.869 2.505c.418.369.837.737 1.25 1.112.173.157.343.314.507.48.147.165.139.14-.023-.074l.14.213c.263.082-.071.584-.002-.083-.034.33-.061.146.02-.175-.13.517.107-.588-.005.104-.064.4.172-.537.045-.145-.034.105-.343.447-.088.148.297-.348-.859.617-.255.214-1.102.735-2.466 1.155-3.725 1.266-1.806.16-3.347.005-5.052-.584a17.53 17.53 0 0 1-.826-.315c-.168-.067-.335-.138-.503-.205-.537-.217.514.227-.231-.1-7.595-3.329-15.061-7.435-21.579-12.585-1.27-1.003-3.003-1.24-4.243 0-1.042 1.042-1.278 3.233 0 4.243 6.659 5.26 14.04 9.596 21.777 13.073 2.659 1.195 5.136 2.207 8.081 2.47 3.857.345 8.756-.645 11.277-3.84 1.189-1.507 1.661-3.406 1.055-5.269-.724-2.225-2.764-3.66-4.449-5.136a348.187 348.187 0 0 0-12.284-10.243c-8.111-6.47-16.449-12.645-24.795-18.806-8.59-6.341-17.195-12.675-25.418-19.491-1.246-1.033-3.022-1.221-4.243 0-1.064 1.064-1.253 3.204 0 4.243zm-39.357 5.511c2.852-.974 5.292-2.754 7.993-4.043.646-.308 1.195-1.126 1.379-1.793.198-.718.108-1.674-.302-2.312-.413-.641-1.028-1.204-1.793-1.379-.824-.188-1.549-.061-2.312.302-2.189 1.044-4.19 2.452-6.419 3.412l.717-.302c-.282.119-.567.229-.857.328-.742.254-1.388.688-1.793 1.379-.376.643-.536 1.591-.302 2.312.235.726.685 1.426 1.379 1.793.689.364 1.548.563 2.312.302zm16.738-10.254c1.644.015 3.183-1.033 4.518-1.881 1.208-.767 2.398-1.64 3.716-2.212l-.717.302a2.81 2.81 0 0 1 .668-.207l-.798.107a.994.994 0 0 1 .218-.005l-.798-.107.032.005c.831.121 1.557.139 2.312-.302.622-.364 1.216-1.078 1.379-1.793.175-.768.137-1.63-.302-2.312-.393-.61-1.041-1.269-1.793-1.379-.778-.114-1.276-.162-2.06.045-.483.127-.948.355-1.395.566-.662.313-1.288.706-1.906 1.097-1.253.79-2.482 1.715-3.852 2.297l.717-.302a2.527 2.527 0 0 1-.594.179l.798-.107a1.37 1.37 0 0 1-.143.008c-1.57-.014-3.072 1.39-3 3 .073 1.638 1.318 2.985 3 3z"/></g></svg></g><g transform="translate(1164.0 394.0) rotate(0.0 37.0 73.5) scale(1.0186523504714708 1.015242449565932)"><svg width="72.645" height="144.793" viewBox="0 0 72.645 144.793"><g><g><ellipse transform="matrix(0.748 -0.6637 0.6637 0.748 -68.4917 49.0544)" style="fill:#ff89d8" cx="30.354" cy="114.724" rx="31.382" ry="28.994"/><path style="fill:#ff89d8" d="M42.036 5.932c6.583 2.501 13.269 6.121 17.723 11.923 5.012 6.528 6.982 14.831 6.887 22.939-.101 8.594-1.518 17.436-3.979 25.665-2.608 8.72-7.258 16.579-11.421 24.62-2.45 4.734-5.002 9.408-8.248 13.651-3.104 4.058-6.53 7.854-9.552 11.979-.958 1.308-.22 3.346 1.076 4.105 1.521.89 3.144.235 4.105-1.076 2.738-3.736 5.84-7.186 8.678-10.844 3.094-3.987 5.662-8.226 8.022-12.682 2.368-4.472 4.61-9.006 7.018-13.457a77.966 77.966 0 0 0 5.538-12.881c2.876-8.81 4.401-18.361 4.727-27.616.321-9.105-1.587-18.486-6.746-26.131C60.521 8.21 52.384 3.472 43.63.147c-1.515-.576-3.29.638-3.69 2.095-.463 1.687.575 3.112 2.096 3.69z"/></g></g></svg></g></svg>