<svg xmlns="http://www.w3.org/2000/svg" viewBox="0 0 1200 800" width="1200" height="800"><g transform="translate(824.0 545.0) rotate(0.0 171.0 105.5) scale(0.6984580823036863 0.6976913360623757)"><svg width="489.65" height="302.426" viewBox="0 0 489.65 302.426"><path d="M437.367 14.143c-14.998 0-28.51 6.325-38.044 16.441C383.545 11.887 359.952 0 333.572 0c-27.26 0-51.542 12.696-67.3 32.482a85.615 85.615 0 0 0-40.044-9.892c-21.008 0-40.248 7.541-55.185 20.051-9.386-13.97-25.331-23.164-43.426-23.164-13.516 0-25.834 5.13-35.115 13.548-9.59-11.535-24.045-18.882-40.219-18.882C23.408 14.143 0 37.551 0 66.426v236h489.65v-236c0-28.875-23.408-52.283-52.283-52.283z" fill="#b0ff5c"/></svg></g><g transform="translate(521.0 546.0) rotate(0.0 171.0 105.5) scale(0.6984580823036863 0.6976913360623757)"><svg width="489.65" height="302.426" viewBox="0 0 489.65 302.426"><path d="M437.367 14.143c-14.998 0-28.51 6.325-38.044 16.441C383.545 11.887 359.952 0 333.572 0c-27.26 0-51.542 12.696-67.3 32.482a85.615 85.615 0 0 0-40.044-9.892c-21.008 0-40.248 7.541-55.185 20.051-9.386-13.97-25.331-23.164-43.426-23.164-13.516 0-25.834 5.13-35.115 13.548-9.59-11.535-24.045-18.882-40.219-18.882C23.408 14.143 0 37.551 0 66.426v236h489.65v-236c0-28.875-23.408-52.283-52.283-52.283z" fill="#b0ff5c"/></svg></g><g transform="translate(207.0 545.0) rotate(0.0 171.0 105.5) scale(0.6984580823036863 0.6976913360623757)"><svg width="489.65" height="302.426" viewBox="0 0 489.65 302.426"><path d="M437.367 14.143c-14.998 0-28.51 6.325-38.044 16.441C383.545 11.887 359.952 0 333.572 0c-27.26 0-51.542 12.696-67.3 32.482a85.615 85.615 0 0 0-40.044-9.892c-21.008 0-40.248 7.541-55.185 20.051-9.386-13.97-25.331-23.164-43.426-23.164-13.516 0-25.834 5.13-35.115 13.548-9.59-11.535-24.045-18.882-40.219-18.882C23.408 14.143 0 37.551 0 66.426v236h489.65v-236c0-28.875-23.408-52.283-52.283-52.283z" fill="#b0ff5c"/></svg></g><g transform="translate(65.0 546.0) rotate(0.0 171.0 105.5) scale(0.6984580823036863 0.6976913360623757)"><svg width="489.65" height="302.426" viewBox="0 0 489.65 302.426"><path d="M437.367 14.143c-14.998 0-28.51 6.325-38.044 16.441C383.545 11.887 359.952 0 333.572 0c-27.26 0-51.542 12.696-67.3 32.482a85.615 85.615 0 0 0-40.044-9.892c-21.008 0-40.248 7.541-55.185 20.051-9.386-13.97-25.331-23.164-43.426-23.164-13.516 0-25.834 5.13-35.115 13.548-9.59-11.535-24.045-18.882-40.219-18.882C23.408 14.143 0 37.551 0 66.426v236h489.65v-236c0-28.875-23.408-52.283-52.283-52.283z" fill="#b0ff5c"/></svg></g><g transform="translate(573.0 170.0) rotate(-44.602783354161986 25.0 68.0) scale(1.6302575806977502 1.6754958728594307)"><svg width="30.67" height="81.17" viewBox="0 0 30.67 81.17"><path d="M15.33 81.17a4.51 4.51 0 0 1-4.5-4.5V50.33a4.5 4.5 0 0 1 9 0v26.34a4.5 4.5 0 0 1-4.5 4.5z" fill="#231E40"/><path d="M15.33 0A15.33 15.33 0 0 0 0 15.33V50a9.35 9.35 0 0 0 9.34 9.35h12A9.35 9.35 0 0 0 30.67 50V15.33A15.33 15.33 0 0 0 15.33 0z" fill="#FD7CE8"/></svg></g><g transform="translate(614.0 203.0) rotate(0.0 275.0 277.0) scale(0.43448997197144684 0.4349211881984057)"><svg width="1265.852" height="1273.794" viewBox="0 0 1265.852 1273.794"><path d="m328.26 96.939-61.834-7.029-30.036-3.41h-.063L125.81 73.948l-15.046-1.712-7.808-.889-33.3-3.778A21.019 21.019 0 0 0 46.4 86.087l-.469 4.121A21 21 0 0 0 56.5 110.9L7.614 155.05a23.1 23.1 0 1 0 30.965 34.281l.135-.116a23.1 23.1 0 1 0 30.975 34.279A23.1 23.1 0 0 0 90.7 263.068a22.876 22.876 0 0 0 6.82-2.915h.01l3.231-1.969-2.046 2.1a.01.01 0 0 0-.007.012 23.1 23.1 0 0 0 33.022 32.178l27.962-25.258 67.861 7.708 30.089 3.415 28.332 3.219.615.075a302.9 302.9 0 0 0 103.92-6.208c1.1-.26 2.209-.523 3.307-.793l72.659-17.892L574.3 36.354zM88.2 144.5v.032l-.328.3h-.01c.113-.115.229-.226.338-.332z" fill="#fff6cc"/><path d="M165.254 161.56a45.858 45.858 0 0 1-44.74-36.371 46.611 46.611 0 0 1-.76-4.858 2 2 0 0 1 3.979-.408 42.667 42.667 0 0 0 .695 4.44 41.82 41.82 0 0 0 49.558 32.28 2 2 0 1 1 .826 3.914 46.218 46.218 0 0 1-9.558 1.003zm-77.548-14.591a2 2 0 0 1-1.341-3.484 21.1 21.1 0 0 0 4.6-25.356 2 2 0 1 1 3.551-1.84 25.1 25.1 0 0 1-5.474 30.164 1.991 1.991 0 0 1-1.336.516z" fill="#231e40"/><path d="M120.6 121.852a1.966 1.966 0 0 1-.229-.013l-56.018-6.365a22.278 22.278 0 0 1-8.408-3.345 2 2 0 0 1 2.14-3.38 18.453 18.453 0 0 0 6.884 2.772l55.854 6.344a2 2 0 0 1-.223 3.987zm-81.878 69.359a2 2 0 0 1-1.341-3.484L86.5 143.36a25.1 25.1 0 1 1 33.647 37.254 2 2 0 1 1-2.68-2.968 21.1 21.1 0 0 0-28.287-31.318L40.061 190.7a1.987 1.987 0 0 1-1.339.511z" fill="#231e40"/><path d="M69.688 225.5a2 2 0 0 1-1.34-3.484l49.123-44.367a25.1 25.1 0 1 1 33.647 37.251 2 2 0 1 1-2.681-2.968 21.1 21.1 0 0 0-28.286-31.318l-49.123 44.368a1.99 1.99 0 0 1-1.34.518z" fill="#231e40"/><path d="M159.691 269.214a2 2 0 0 1-1.341-3.484l21.162-19.113a21.1 21.1 0 0 0-28.287-31.317L102.1 259.665a2 2 0 1 1-2.68-2.968l49.122-44.367a25.1 25.1 0 1 1 33.647 37.256L161.031 268.7a1.99 1.99 0 0 1-1.34.514zM378.4 104.048a1.824 1.824 0 0 1-.22-.012l-78.589-8.6a2 2 0 0 1 .436-3.976l78.589 8.6a2 2 0 0 1-.216 3.988z" fill="#231e40"/><path d="m628.286 1092.731-23.441 77.58-6 .01-264.42-.52-.04-.02.071-.45 23.16-76.6z" fill="#fff6cc"/><path d="m605.005 1169.8-24.138 79.863a9.551 9.551 0 0 1-9.142 6.787H228.747c-6.011 0-6.58-6.2-.2-13.07 33.26-35.12 102.571-71.87 105.729-73.54a.375.375 0 0 1 .15-.04.15.15 0 0 1 .09-.02z" fill="#231e40"/><path d="M341.152 1213.822a2 2 0 0 1-1.625-.832l-23.455-32.608a2 2 0 0 1 3.247-2.336l23.455 32.608a2 2 0 0 1-1.622 3.168zm-18.115 13.062a2 2 0 0 1-1.623-.828l-24.6-34.039a2 2 0 1 1 3.242-2.342l24.6 34.038a2 2 0 0 1-1.62 3.171z" fill="#fff"/><path d="M574.7 1273.794H221.974a2 2 0 1 1 0-4H574.7a2 2 0 0 1 0 4z" fill="#231e40"/><path d="M454.462 268.711c-7.847 52.776-18.214 118.073-27.877 177.705a326.888 326.888 0 0 0 96.174 287.969L866.3 1081.293 1124.746 817.2 734.669 507.025 590.746 268.711z" fill="#7b60c4"/><path d="M572.745 268.711 317 1092.728h397.539c100.137-392.315 176.206-590.891 199.922-824.017z" fill="#7b60c4"/><path d="M721.81 1066.411H325.779a2 2 0 0 1 0-4H721.81a2 2 0 0 1 0 4zM911.311 299.02H450.2a2 2 0 0 1 0-4h461.111a2 2 0 1 1 0 4z" fill="#fff"/><path d="M454.426 645.944a2 2 0 0 1-1.911-2.593l116.319-375.232a2 2 0 0 1 3.821 1.184l-116.32 375.232a2 2 0 0 1-1.909 1.409zm296.255 320.598a2 2 0 0 1-1.929-2.532l100.433-364.923a2 2 0 0 1 3.857 1.062L752.608 965.072a2 2 0 0 1-1.927 1.47zm62.142-540.578a2 2 0 0 1-1.911-2.593l48.127-155.252a2 2 0 0 1 3.821 1.184l-48.127 155.253a2 2 0 0 1-1.91 1.408z" fill="#fff"/><path d="M832.8 361.506h-57.045a37.466 37.466 0 0 1-35.785-48.56l13.9-44.827a2 2 0 1 1 3.82 1.184l-13.9 44.827a33.467 33.467 0 0 0 31.965 43.376H832.8a2 2 0 0 1 0 4zm10.778 698.843a2 2 0 0 1-1.43-3.4L1097.91 795.6a2 2 0 1 1 2.858 2.8l-255.761 261.35a1.994 1.994 0 0 1-1.429.599z" fill="#fff"/><path d="m992.7 1187.426 253.813-259.581a9.723 9.723 0 0 0-.9-14.407l-59.773-47.558-181.235 185.42s-23.275 77.66-21.379 127.128c.441 9.372 5.274 13.292 9.474 8.998z" fill="#231e40"/><path d="M1039.4 1077.861a1.929 1.929 0 0 1-.3-.023l-39.712-6.032a2 2 0 1 1 .6-3.954l39.712 6.032a2 2 0 0 1-.3 3.977zm-3.328 22.085a2.012 2.012 0 0 1-.3-.022l-41.534-6.215a2 2 0 1 1 .591-3.956l41.535 6.215a2 2 0 0 1-.294 3.978z" fill="#fff"/><path d="M1001.739 1202.136a2 2 0 0 1-1.43-3.4l262.113-267.993a2 2 0 1 1 2.86 2.8l-262.114 267.993a1.993 1.993 0 0 1-1.429.6z" fill="#231e40"/><path d="m1124.805 817.317-181.341 185.409 61.035 48.562 181.341-185.409z" fill="#fff6cc"/><path d="M914.464 268.71h-460c1.71-12.19 3.92-29.45 7.86-49.41 1.49-7.52 3.22-15.43 5.271-23.6.37-1.49.75-3 1.151-4.51C490.605 107.59 545.6 0 701.725 0a303.129 303.129 0 0 1 59.01 6.16 260.949 260.949 0 0 1 54.391 17.06c1.3.57 2.6 1.17 3.879 1.78 15.65 7.38 30.241 16.7 42.46 28.32C887.286 77.87 902 109.08 909.8 142.14c10 42.49 8.6 88.05 4.664 126.57z" fill="#fd7ce8"/><g fill="#fff"><path d="M499.938 250.823a2 2 0 0 1-1.414-3.414l12.45-12.451a2 2 0 1 1 2.828 2.828l-12.45 12.451a2 2 0 0 1-1.414.586zm71.341 0a2 2 0 0 1-1.414-3.414l12.451-12.451a2 2 0 0 1 2.828 2.828l-12.451 12.451a2 2 0 0 1-1.414.586zm159.909 0a2 2 0 0 1-1.414-3.414l12.45-12.451a2 2 0 0 1 2.828 2.828L732.6 250.237a2 2 0 0 1-1.412.586zm-79.955 0a2 2 0 0 1-1.414-3.414l12.451-12.451a2 2 0 0 1 2.828 2.828l-12.451 12.451a2 2 0 0 1-1.414.586zm159.909 0a2 2 0 0 1-1.414-3.414l12.451-12.451a2 2 0 0 1 2.828 2.828l-12.451 12.451a1.993 1.993 0 0 1-1.414.586zm79.958 0a2 2 0 0 1-1.414-3.414l12.45-12.451a2 2 0 0 1 2.828 2.828l-12.45 12.451a2 2 0 0 1-1.414.586zM473.824 199.1a1.982 1.982 0 0 1-1.409.58 2 2 0 0 1-1.42-.58l-3.4-3.4c.37-1.49.75-3 1.151-4.51l5.079 5.08a2 2 0 0 1-.001 2.83zm78.542.582a1.99 1.99 0 0 1-1.414-.586L538.5 186.645a2 2 0 1 1 2.828-2.828l12.451 12.451a2 2 0 0 1-1.414 3.414zm151.297 0a1.99 1.99 0 0 1-1.414-.586L689.8 186.645a2 2 0 1 1 2.829-2.828l12.451 12.451a2 2 0 0 1-1.414 3.414zm-79.956 0a1.994 1.994 0 0 1-1.415-.586l-12.45-12.451a2 2 0 1 1 2.828-2.828l12.451 12.451a2 2 0 0 1-1.414 3.414zm159.909 0a1.99 1.99 0 0 1-1.414-.586l-12.451-12.451a2 2 0 0 1 2.829-2.828l12.45 12.451a2 2 0 0 1-1.414 3.414zm79.955 0a1.989 1.989 0 0 1-1.414-.586l-12.451-12.451a2 2 0 1 1 2.828-2.828l12.451 12.451a2 2 0 0 1-1.414 3.414zm-363.633-58.251a2 2 0 0 1-1.414-3.414l12.45-12.451a2 2 0 1 1 2.828 2.828l-12.45 12.451a2 2 0 0 1-1.414.586zm71.341 0a2 2 0 0 1-1.414-3.414l12.451-12.451a2 2 0 0 1 2.828 2.828l-12.451 12.451a2 2 0 0 1-1.414.586zm159.909 0a2 2 0 0 1-1.414-3.414l12.45-12.451a2 2 0 0 1 2.828 2.828L732.6 140.845a2 2 0 0 1-1.412.586zm-79.955 0a2 2 0 0 1-1.414-3.414l12.451-12.451a2 2 0 0 1 2.828 2.828l-12.451 12.451a2 2 0 0 1-1.414.586zm159.909 0a2 2 0 0 1-1.414-3.414l12.451-12.451a2 2 0 0 1 2.828 2.828l-12.451 12.451a1.993 1.993 0 0 1-1.414.586zm79.958 0a2 2 0 0 1-1.414-3.414l12.45-12.451a2 2 0 0 1 2.828 2.828l-12.45 12.451a2 2 0 0 1-1.414.586zM552.366 90.29a1.99 1.99 0 0 1-1.414-.586L538.5 77.253a2 2 0 0 1 2.828-2.828l12.452 12.451a2 2 0 0 1-1.414 3.414zm151.297 0a1.99 1.99 0 0 1-1.414-.586L689.8 77.253a2 2 0 0 1 2.829-2.828l12.451 12.451a2 2 0 0 1-1.414 3.414zm-79.956 0a1.994 1.994 0 0 1-1.415-.586l-12.45-12.451a2 2 0 0 1 2.828-2.828l12.451 12.451a2 2 0 0 1-1.414 3.414zm159.909 0a1.99 1.99 0 0 1-1.416-.59l-12.449-12.447a2 2 0 0 1 2.829-2.828l12.45 12.451a2 2 0 0 1-1.414 3.414zm79.955 0a1.989 1.989 0 0 1-1.414-.586l-12.451-12.451a2 2 0 0 1 2.828-2.828l12.451 12.451a2 2 0 0 1-1.414 3.414zM731.188 32.038a2 2 0 0 1-1.414-3.414l12.45-12.451A2 2 0 0 1 745.052 19L732.6 31.452a1.992 1.992 0 0 1-1.412.586zm-79.955 0a2 2 0 0 1-1.414-3.414l12.451-12.451A2 2 0 0 1 665.1 19l-12.453 12.452a1.99 1.99 0 0 1-1.414.586zM819 25l-6.45 6.45a1.991 1.991 0 0 1-1.41.59 2.005 2.005 0 0 1-1.42-3.42l5.4-5.4c1.304.57 2.604 1.17 3.88 1.78z"/></g><path d="M740.156 75.03q-.708 1.047-1.413 2.1c-35.334 52.812-11.718 124.743 48.155 146.022l131.386 46.694 30.337 164.719c7.173 39.214-1.206 66.486-9.92 86.063l-18.388 41.307a21.75 21.75 0 0 0 11.025 28.714 21.749 21.749 0 0 0 28.714-11.025l10.814-24.293 18.589 100.931a21.749 21.749 0 0 0 25.328 17.45 21.749 21.749 0 0 0 17.449-25.329l-4.571-24.818a21.75 21.75 0 0 0 25.329 17.45 21.75 21.75 0 0 0 17.45-25.329l-4.571-24.819a21.748 21.748 0 0 0 25.328 17.45 21.749 21.749 0 0 0 17.45-25.329l-4.571-24.817a21.748 21.748 0 0 0 25.329 17.449 21.75 21.75 0 0 0 17.45-25.328L1125.2 432.7l-44.662-242.5A135.426 135.426 0 0 0 992.7 87.129l-61.877-21.991-77.338-27.482A97.421 97.421 0 0 0 740.156 75.03z" fill="#fff6cc"/><path d="M1027.66 625.567a2 2 0 0 1-1.964-1.637l-14.826-80.492a2 2 0 0 1 3.934-.724l14.825 80.491a2 2 0 0 1-1.969 2.362zm38.664-30.214a2 2 0 0 1-1.964-1.638l-13.56-73.606a2 2 0 0 1 3.934-.724l13.556 73.606a2 2 0 0 1-1.969 2.362zm38.665-30.214a2 2 0 0 1-1.964-1.637l-12.47-67.707a2 2 0 0 1 3.934-.724l12.469 67.706a2 2 0 0 1-1.969 2.362zm-135.071-1.895a2 2 0 0 1-1.965-1.637l-5-27.173a2 2 0 1 1 3.933-.724l5 27.172a2 2 0 0 1-1.969 2.362zm-53.785-292.018a2 2 0 0 1-1.965-1.638l-8.744-47.477a2 2 0 1 1 3.934-.724l8.744 47.477a2 2 0 0 1-1.605 2.329 1.964 1.964 0 0 1-.364.033z" fill="#231e40"/></svg></g><g transform="translate(65.0 233.0) rotate(0.0 268.5 262.0) scale(0.3556326718477336 0.35575349812957846)"><svg width="1509.985" height="1472.93" viewBox="0 0 1509.985 1472.93"><path d="M827.335 229.764c68.415 6.036 148.143 37.884 186.075 58.559l163.047 82.6 50.063-47.536a136.211 136.211 0 0 0 22.457-30.533c5.895-10.786 9.964-21.424 11.484-29.623l7.457-55.536a23.093 23.093 0 0 1 25.881-19.725l1.3.208a23.1 23.1 0 0 1 19.725 25.893l-3.921 29.184 2.842-2.685 39.263-53.008a23.083 23.083 0 0 1 32.257-4.838l.979.789a23.072 23.072 0 0 1 4.839 32.248l-41.6 56.2L1397 220.148a23.035 23.035 0 0 1 32.518-1.563l.946.9a23.018 23.018 0 0 1 1.562 32.508l-48.724 53.69 56.88-46.5.084-.069a22.948 22.948 0 0 1 32.28 3.353l.817.961.062.077a22.947 22.947 0 0 1-3.346 32.277l-58.294 47.618 61.71-40.887a23.007 23.007 0 0 1 31.871 6.418l.783 1.058a23.007 23.007 0 0 1-6.427 31.87L1464 365.439c-13.785 9.128-28.042 21.39-40.909 33.558l-142.671 135.5a137.32 137.32 0 0 1-156.733 22.951l-198.911-100.76z" fill="#fff6cc"/><path d="M1127.694 419.075a1.968 1.968 0 0 1-1.291-3.394l48.865-46.353.047-.044a1.967 1.967 0 0 1 2.661 2.9l-48.865 46.354a1.966 1.966 0 0 1-1.417.539zM1307.348 270.5a1.968 1.968 0 0 1-1.688-2.212l6.408-47.695c0-.032.007-.065.013-.1a1.967 1.967 0 1 1 3.885.622l-6.406 47.685a1.968 1.968 0 0 1-2.011 1.707 1.67 1.67 0 0 1-.201-.007z" fill="#231e40"/><path d="M1328.936 328.941a1.966 1.966 0 0 1-1.8-2.6 47.351 47.351 0 0 0-20.6-55.567 2.232 2.232 0 0 1-.124-.073 1.968 1.968 0 1 1 2.132-3.308 51.306 51.306 0 0 1 22.318 60.207 1.965 1.965 0 0 1-1.926 1.339zm93.739 26.427-85.865-94.743a1.967 1.967 0 0 1 2.916-2.642l85.865 94.743a1.967 1.967 0 0 1-2.916 2.642z" fill="#231e40"/><path d="M128.992 149.092c10.141 13.051 19.738 29.228 28.044 44.869l91.9 173.975a137.322 137.322 0 0 0 141.181 71.834l220.677-31.927-10.57-190.693-200.514 29.014-32.249-61.047c-11.11-22.327-15.317-51.341-12.944-67.843L365.2 62.266A23.093 23.093 0 0 0 346.968 35.3l-1.3-.216a23.094 23.094 0 0 0-26.964 18.229L313.1 82.22l-1.834-3.451L290.99 16a23.074 23.074 0 0 0-29.014-14.889l-1.186.431a23.075 23.075 0 0 0-14.884 29.014L267.369 97.1 238.9 32.822a23.018 23.018 0 0 0-30.308-11.865l-1.192.543a23.019 23.019 0 0 0-11.865 30.309l29.019 66.44-39.036-62.237-.062-.1a22.939 22.939 0 0 0-31.649-7.128l-1.082.647-.1.063a22.938 22.938 0 0 0-7.125 31.649l40.016 63.743-45.41-58.459a23 23 0 0 0-32.25-4.1l-1.081.754a23 23 0 0 0-4.1 32.25z" fill="#fff6cc"/><path d="m429.364 306.407-31.495-59.538a1.968 1.968 0 0 1 3.479-1.839l31.493 59.537a1.967 1.967 0 1 1-3.477 1.84zM307.77 109.176a1.965 1.965 0 0 1-1.556-2.305l9.167-47.243.015-.073a1.967 1.967 0 1 1 3.847.823l-9.168 47.241a1.96 1.96 0 0 1-2.305 1.557z" fill="#231e40"/><path d="M267.241 155.78a51.306 51.306 0 0 1 40.384-49.921 1.967 1.967 0 0 1 .822 3.848 47.351 47.351 0 0 0-37.271 46.073 1.968 1.968 0 1 1-3.935 0zm-96.829-2.775a1.967 1.967 0 0 1-.961-3.685l111.633-62.346A1.967 1.967 0 1 1 283 90.409l-111.63 62.342a1.962 1.962 0 0 1-.958.25zm10.244 1119.861c24.592-48.212 37-135.9 37-135.9l-104.665-296.86-84.427 21.533a9.3 9.3 0 0 0-5.394 11.648l144 404c2.161 6.257 8.849 4.529 13.486-4.421z" fill="#231e40"/><path d="m213.547 1159.346-42.173-12.188-.107-.031a1.967 1.967 0 1 1 1.2-3.746l42.173 12.187a1.967 1.967 0 0 1-.546 3.858 2.014 2.014 0 0 1-.547-.08zm-4.854 24.054-44.114-12.727a1.968 1.968 0 1 1 1.092-3.781l44.113 12.728a1.967 1.967 0 0 1-.544 3.858 2.059 2.059 0 0 1-.547-.078z" fill="#fff"/><path d="M151.3 1288.516.129 872.218a1.008 1.008 0 0 1-.028-.077 1.967 1.967 0 0 1 3.734-1.241l151.17 416.3a1.967 1.967 0 1 1-3.706 1.318z" fill="#231e40"/><path d="M1022.485 462.094H530.869l9.906-35.964.581-2.105 1.691-6.158.07-.226v-.01l.049-.187.491-.2c.344-.138.866-.355 1.534-.64a60.467 60.467 0 0 0 3.227-1.544c7.535-3.945 21.366-13 28.724-29.55q3.777-8.484 6.817-16.89a199.974 199.974 0 0 0 1.505-4.24 1.372 1.372 0 0 0 .088-.265c19.762-57.654 15.435-111.107 14.461-146.943a1.871 1.871 0 0 1-.01-.236 1591.024 1591.024 0 0 1 34.144-1.761c32.619-1.358 69.29-2 105.558-1.476 19.989.3 39.849.945 58.854 2.027q7.938.443 15.651.993c29.973 2.135 56.7 7.86 80.1 17.48a179.01 179.01 0 0 1 33.534 18.022c30.386 20.873 52.981 51.122 67.461 91.767 14.668 41.201 27.18 118.106 27.18 118.106z" fill="#fd7ce8"/><g fill="#fff"><path d="M935.766 431.68a2.157 2.157 0 0 1-1.519-3.689l12.835-12.727.045-.044a2.157 2.157 0 0 1 2.994 3.107l-12.832 12.728a2.149 2.149 0 0 1-1.52.625zm-155.203 0a2.157 2.157 0 0 1-1.526-3.68l12.728-12.727a2.156 2.156 0 0 1 3.049 3.05l-12.728 12.728a2.144 2.144 0 0 1-1.523.631zm81.971 0a2.157 2.157 0 0 1-1.518-3.689l12.835-12.727.044-.044a2.157 2.157 0 1 1 2.993 3.107l-12.835 12.728a2.141 2.141 0 0 1-1.519.625zm-164.051 0a2.157 2.157 0 0 1-1.526-3.68l12.728-12.727a2.157 2.157 0 1 1 3.05 3.05l-12.728 12.728a2.145 2.145 0 0 1-1.524.631zm-82.083 0a2.157 2.157 0 0 1-1.519-3.689l12.839-12.727.044-.044a2.157 2.157 0 0 1 2.994 3.107l-12.835 12.728a2.149 2.149 0 0 1-1.519.625zm-75.04-7.651 1.692-6.158.119-.421.492-.2c.788-.312 2.5-1.024 4.757-2.188a2.307 2.307 0 0 1 .259.215 2.149 2.149 0 0 1 0 3.039l-7.907 7.808zM988.072 371.3l-12.836-12.727a2.158 2.158 0 0 1 3.039-3.064l12.835 12.726a2.158 2.158 0 0 1-3.038 3.065zm-73.24 0L902.1 358.568c-.031-.03-.063-.06-.092-.092a2.158 2.158 0 0 1 3.142-2.958l12.727 12.727a2.158 2.158 0 0 1-1.525 3.683 2.139 2.139 0 0 1-1.52-.628zm-164.047 0-12.835-12.725a2.157 2.157 0 0 1 3.039-3.063l12.831 12.727a2.156 2.156 0 1 1-3.035 3.062zm81.966 0-12.727-12.727a2.157 2.157 0 0 1 3.049-3.05l12.727 12.722a2.156 2.156 0 1 1-3.049 3.05zm-164.051 0-12.729-12.727a1.578 1.578 0 0 1-.091-.092 2.157 2.157 0 0 1 3.14-2.958l12.728 12.727a2.156 2.156 0 1 1-3.048 3.05zm-83.231-6.913a2.8 2.8 0 0 0 .086-.269l4.11 4.131a2.152 2.152 0 0 1-3.043 3.042l-2.663-2.664a280.112 280.112 0 0 0 1.51-4.24zm350.302-44.878a2.158 2.158 0 0 1-1.526-3.682l12.835-12.835c.03-.032.061-.062.092-.092a2.157 2.157 0 1 1 2.958 3.141l-12.83 12.835a2.152 2.152 0 0 1-1.526.632zm-156.728-.626a2.156 2.156 0 0 1-.013-3.05L791.757 303a2.157 2.157 0 0 1 3.065 3.037l-12.728 12.833a2.156 2.156 0 0 1-3.051.013zm83.492.626a2.158 2.158 0 0 1-1.524-3.682l12.835-12.835c.029-.032.059-.062.09-.092a2.158 2.158 0 0 1 2.959 3.141l-12.835 12.835a2.158 2.158 0 0 1-1.525.633zm-165.574-.628a2.156 2.156 0 0 1-.009-3.049L709.679 303a2.157 2.157 0 0 1 3.063 3.037l-12.727 12.835a2.158 2.158 0 0 1-3.054.012zm-80.554.627a2.158 2.158 0 0 1-1.527-3.682l12.834-12.834c.029-.032.06-.062.091-.092a2.157 2.157 0 1 1 2.958 3.141l-12.836 12.835a2.149 2.149 0 0 1-1.524.632zm298.425-60.494L902.1 246.287a1.974 1.974 0 0 1-.092-.091 2.158 2.158 0 0 1 3.142-2.958l12.727 12.727a2.156 2.156 0 1 1-3.049 3.049zm-164.048.007-12.834-12.727a2.157 2.157 0 1 1 3.039-3.063l12.831 12.727a2.156 2.156 0 1 1-3.036 3.063zm81.967-.007-12.727-12.727a2.157 2.157 0 0 1 3.049-3.049l12.727 12.727a2.156 2.156 0 1 1-3.049 3.049zm-164.051 0-12.729-12.727a1.562 1.562 0 0 1-.091-.091 2.157 2.157 0 1 1 3.14-2.958l12.728 12.727a2.156 2.156 0 1 1-3.048 3.049z"/></g><path d="M531.4 460.172 454.017 752.39l-341.026 87.716 104.66 296.859 391.2-116.545a227.583 227.583 0 0 0 159.721-182l60.776-378.227zm756.136 493.964-26.59 65.39-15.94 39.21c-.04.09-.07.17-.11.26a133.089 133.089 0 0 1-172.71 73.26l-32.64-13.04a133.209 133.209 0 0 1-73.37-175.34l15.17-36.07.22-.51-179.6-243.15 186.37-232.47 257.1 283.99a227.57 227.57 0 0 1 42.1 238.47z" fill="#fff6cc"/><path d="m208.387 780.077 117.262 331.908 316.021-95.678c52.989-19.832 98.977-65.83 122.979-126.293 9.351-23.553 49.333-152.579 49.333-152.579L960.976 889.9l304.238-155.65-248.352-303.313H535.95l-75.177 291.215z" fill="#7b60c4"/><path d="M814.374 738.066a1.965 1.965 0 0 1-1.649-2.24l19.4-305.178a1.967 1.967 0 0 1 3.889.584l-19.4 305.178a1.967 1.967 0 0 1-1.943 1.672s-.197-.001-.297-.016z" fill="#fff"/><path d="M526.756 458.439a1.979 1.979 0 0 1 1.99-1.967h510.219a1.968 1.968 0 1 1 0 3.935H528.746a1.98 1.98 0 0 1-1.99-1.968zm32.165 314.015-99.013-48.539c-.025-.012-.05-.023-.074-.036a1.967 1.967 0 1 1 1.805-3.5l99.013 48.535a1.968 1.968 0 1 1-1.731 3.536zm-208.929 331.993L233.5 774.579a1.968 1.968 0 0 1 3.711-1.312l112.063 316.995c.074.211 4.545 13.306 4.545 13.53a1.967 1.967 0 0 1-3.822.655z" fill="#fff"/><path d="M827.958 525.442a1.968 1.968 0 0 1 0-3.935h12.621a21.607 21.607 0 0 0 21.567-18.493l4.94-73.464a1.967 1.967 0 0 1 3.89.591l-4.937 73.459a25.516 25.516 0 0 1-25.459 21.85h-12.621zm-316.058.007a1.968 1.968 0 0 1 0-3.935h36.563a53.078 53.078 0 0 0 51.484-39.839l13.267-51.232a1.967 1.967 0 1 1 3.81.983l-13.266 51.229a57.013 57.013 0 0 1-55.295 42.79H511.9zM1245.133 705.9 932.322 862.536a1.968 1.968 0 0 1-1.763-3.519l300.588-150.633c.2-.1 12.638-6.165 12.86-6.193a1.967 1.967 0 0 1 1.126 3.711z" fill="#fff"/><path d="M1304.136 859.656a96.324 96.324 0 0 0-101.069 13.58c-29.934 24.744-71.9 69.306-152.5 56.6a120.607 120.607 0 0 1-25.939-7.19l-32.835-13.581-25.616 34.807a133.209 133.209 0 0 0 73.37 175.34l32.64 13.04a133.249 133.249 0 0 0 151.591-38.185c.118-.142.239-.281.357-.424q1.621-1.956 3.173-3.985l.5-.654q1.531-2.024 2.994-4.113c.127-.183.252-.368.378-.551q3.039-4.4 5.748-9.1c.1-.176.206-.351.307-.528q1.292-2.262 2.5-4.593l.376-.728q1.193-2.328 2.3-4.717c.1-.21.191-.421.287-.631.761-1.665 1.5-3.346 2.2-5.055.04-.09.07-.17.11-.26l15.94-39.21 26.59-65.39a227.387 227.387 0 0 0 16.598-94.472zm-97.6 613.165L798 1330.1l-.076-.027a1.967 1.967 0 1 1 1.366-3.689l408.534 142.724a1.966 1.966 0 0 1 1.214 2.5 1.894 1.894 0 0 1-.323.587 1.966 1.966 0 0 1-2.179.626z" fill="#231e40"/><path d="M1214.069 1452.391a15.645 15.645 0 0 1-4.921-.8s-288.813-100.077-289.134-100.207c-1.912-.78-47.139-19.422-73.314-49.188-12.841-14.605-53.457-67.059-36.9-128.88 3.68-13.743 15.749-48.145 48.277-70.714 19.455-13.5 45.3-26.4 56.638-31.84l55.462-153.924c2.691-7.464 11.224-11.44 19.059-8.877s12 10.694 9.316 18.16l-57.467 159.486a14.55 14.55 0 0 1-7.692 8.242c-.343.157-34.8 16-57.656 31.862-24.642 17.1-33.992 43.93-36.869 54.672-13.028 48.649 20.3 91.484 30.829 103.454 20.316 23.1 57.31 39.229 61.7 41.089l287.6 99.661c7.826 2.589 11.968 10.733 9.25 18.19a14.979 14.979 0 0 1-14.178 9.614z" fill="#231e40"/><path d="M1085.177 965.877a188.748 188.748 0 0 1-35.2-3.439c-14.142-2.572-27.944-7.144-55.441-16.253-16.226-5.375-20.85-7.008-29.4-10.217a2 2 0 0 1 1.405-3.745c8.5 3.188 13.095 4.812 29.257 10.166 27.32 9.049 41.032 13.592 54.9 16.114 10.819 1.967 39.56 7.193 74.191-1.444 39.4-9.827 59.643-27.7 64.91-32.947 16.577-16.511 48.546-44.322 76.388-45.087 18.533-.529 35.561 7.891 38.39 15.743a2 2 0 1 1-3.763 1.355c-2-5.537-16.8-13.59-34.517-13.1-11.358.313-36.033 6.434-73.676 43.923-20.968 20.882-53.676 30.73-66.765 33.994a168.053 168.053 0 0 1-40.679 4.937zm130.731 91.112c-6.191 0-12.2-.164-17.023-.539a2 2 0 1 1 .311-3.988c15.088 1.175 40.726.184 47.64-1.078a2 2 0 0 1 .719 3.935c-5.323.972-18.862 1.67-31.647 1.67zm-6 18c-6.191 0-12.2-.164-17.023-.539a2 2 0 1 1 .311-3.988c15.088 1.174 40.726.184 47.64-1.078a2 2 0 0 1 .719 3.935c-5.323.972-18.862 1.67-31.647 1.67z" fill="#fff"/></svg></g><g transform="translate(325.0 265.0) rotate(-106.72385447146993 17.5 17.5) scale(0.36649214659685864 0.3661087866108787)"><svg width="95.5" height="95.6" viewBox="0 0 95.5 95.6"><path d="M0 47.8a47.779 47.779 0 1 0 18.4-37.7A47.8 47.8 0 0 0 0 47.8z" fill="#fff6cc"/><path d="M18.4 10.2A84.125 84.125 0 0 0 93.7 61 47.893 47.893 0 0 0 47.7.1a47.067 47.067 0 0 0-29.3 10.1z" fill="#231e40"/></svg></g><g transform="translate(901.0 151.0) rotate(37.12435083468975 20.5 20.5) scale(0.4293193717277487 0.4288702928870293)"><svg width="95.5" height="95.6" viewBox="0 0 95.5 95.6"><path d="M0 47.8a47.779 47.779 0 1 0 18.4-37.7A47.8 47.8 0 0 0 0 47.8z" fill="#fff6cc"/><path d="M18.4 10.2A84.125 84.125 0 0 0 93.7 61 47.893 47.893 0 0 0 47.7.1a47.067 47.067 0 0 0-29.3 10.1z" fill="#231e40"/></svg></g><g transform="translate(940.0 82.0) rotate(15.82701361751902 51.0 44.0) scale(0.4806151874399231 0.47560369241412115)"><svg width="212.228" height="185.028" viewBox="0 0 212.228 185.028"><g fill="#231e40"><path d="M205.763 137.336c-14.6 19.7-50.2 18.9-85.2.2 1.5 8 .4 15.4-3.8 21-9.6 12.9-32.4 13-55.6 1.7a20.354 20.354 0 0 1-2.3 14.1c-6.8 11.7-24.5 14.2-39.6 5.5s-21.8-25.3-15-37c4.1-7.1 12.1-10.8 21.1-10.7-14.5-17.8-19.4-37.3-10.6-49.2 8.2-11 25.9-12.7 45.4-6-8.3-18.1-9-35.5-.1-47.6 17.3-23.3 63.8-18 104 11.8 40.4 29.9 59 72.9 41.7 96.2z"/><path d="M36.461 144.436a2 2 0 0 1-1.192-.4c-13.858-10.307-24.74-22.949-30.643-35.6-6.1-13.057-6.19-24.636-.268-32.6S21.4 64.593 35.644 66.618c13.832 1.967 29.072 8.719 42.912 19.013a2 2 0 1 1-2.387 3.21c-13.314-9.9-27.906-16.388-41.088-18.262-12.728-1.81-22.5.907-27.513 7.65-10.618 14.282 2.88 42.365 30.088 62.6a2 2 0 0 1-1.2 3.605z"/><path d="M94.661 116.236a1.992 1.992 0 0 1-1.189-.393C73.746 101.22 58.49 83 50.514 64.542c-8.136-18.831-7.765-35.735 1.043-47.6 15.218-20.608 57.367-22.615 92.037-4.378a2 2 0 1 1-1.862 3.54C108.71-1.264 68.887.21 54.772 19.324 46.847 30 46.64 45.49 54.186 62.955c7.7 17.823 22.5 35.464 41.668 49.674a2 2 0 0 1-1.193 3.607z"/></g></svg></g><g transform="translate(150.0 47.0) rotate(0.0 53.5 53.5) scale(0.9755474918400466 0.9755474918400466)"><svg width="109.682" height="109.682" viewBox="0 0 109.682 109.682"><circle cx="54.841" cy="54.841" fill="#FFF23D" r="54.841"/></svg></g><g transform="translate(307.0 263.0) rotate(-39.02847936777748 26.0 9.0) scale(0.1908291895264133 0.19157088122605365)"><svg width="272.495" height="93.96" viewBox="0 0 272.495 93.96"><path d="M272.495 93.957 0 93.963l63.938-49.906 144.627-.003z" fill="#7B60C4"/><path d="m194.53-.003 14.035 44.057-144.627.003L77.972 0z" fill="#7B60C4"/><path d="M63.938 46.057a2 2 0 0 1 0-4h144.627a2 2 0 0 1 0 4z" fill="#FFF"/></svg></g><g transform="translate(291.0 212.0) rotate(-23.844899032928453 16.5 34.5) translate(0.0 0.0) scale(0.3316582914572864 0.3323699421965318)"><svg width="99.5" height="144.417" viewBox="0 0 99.5 144.417"><g fill="#231e40"><path d="M24 207.6a2 2 0 0 1-2-2c0-11.943-5.1-17.841-10.5-24.086C5.848 174.972 0 168.207 0 154.7c0-13.432 5.831-20.178 11.471-26.7C16.885 121.734 22 115.818 22 103.8c0-11.943-5.1-17.841-10.5-24.086C5.848 73.172 0 66.407 0 52.9c0-13.432 5.831-20.178 11.471-26.7C16.885 19.934 22 14.018 22 2a2 2 0 0 1 4 0c0 13.507-5.848 20.272-11.5 26.814C9.1 35.059 4 40.957 4 52.9c0 12.018 5.114 17.934 10.529 24.2C20.169 83.622 26 90.368 26 103.8c0 13.507-5.848 20.272-11.5 26.814C9.1 136.859 4 142.757 4 154.7c0 12.018 5.114 17.934 10.529 24.2C20.169 185.422 26 192.168 26 205.6a2 2 0 0 1-2 2zm73.5 0a2 2 0 0 1-2-2c0-11.943-5.1-17.841-10.5-24.086-5.655-6.542-11.5-13.307-11.5-26.814 0-13.432 5.831-20.178 11.471-26.7 5.414-6.264 10.529-12.18 10.529-24.2 0-11.943-5.1-17.841-10.5-24.086-5.652-6.542-11.5-13.307-11.5-26.814 0-13.432 5.831-20.178 11.471-26.7C90.385 19.934 95.5 14.018 95.5 2a2 2 0 0 1 4 0c0 13.507-5.848 20.272-11.5 26.814-5.4 6.245-10.5 12.143-10.5 24.086 0 12.018 5.114 17.934 10.529 24.2 5.64 6.524 11.471 13.27 11.471 26.7 0 13.507-5.848 20.272-11.5 26.814-5.4 6.245-10.5 12.143-10.5 24.086 0 12.018 5.114 17.934 10.529 24.2 5.64 6.524 11.471 13.27 11.471 26.7a2 2 0 0 1-2 2z"/></g></svg></g><g transform="translate(615.0 594.0) rotate(35.622388048270686 29.0 28.5) scale(0.6515902171592913 0.6433408577878105)"><svg width="89.013" height="88.6" viewBox="0 0 89.013 88.6"><path d="M88.701 34.007c-2.123-6.533-14.435-8.387-27.501-4.142a49.67 49.67 0 0 0-4.31 1.627c.291-2.108.449-4.326.449-6.618C57.338 11.136 51.77-.001 44.901-.001S32.463 11.136 32.463 24.874c0 2.428.177 4.772.501 6.991a48.926 48.926 0 0 0-5.149-2C14.749 25.62 2.437 27.474.314 34.007s6.749 15.27 19.814 19.516a49.177 49.177 0 0 0 5.122 1.365 48.717 48.717 0 0 0-4.151 4.985C13.024 70.987 10.983 83.27 16.54 87.308s16.608-1.699 24.683-12.814a48.452 48.452 0 0 0 3.677-5.912 48.32 48.32 0 0 0 3.676 5.912c8.075 11.114 19.126 16.851 24.683 12.814s3.516-16.321-4.559-27.435a48.574 48.574 0 0 0-4.287-5.126 49.309 49.309 0 0 0 4.472-1.223c13.067-4.247 21.938-12.984 19.816-19.517z" fill="#fd7ce8"/><circle cx="44.508" cy="47.732" fill="#fff" r="10.081"/><path d="M44.508 59.813c-6.662 0-12.081-5.42-12.081-12.081 0-6.662 5.419-12.082 12.081-12.082 6.661 0 12.081 5.42 12.081 12.082s-5.42 12.081-12.081 12.081zm0-20.162c-4.456 0-8.081 3.625-8.081 8.082s3.625 8.081 8.081 8.081 8.081-3.625 8.081-8.081-3.625-8.082-8.081-8.082z" fill="#231e40"/></svg></g><g transform="translate(223.0 651.0) rotate(35.62238804827075 22.0 21.5) scale(0.4943098199139451 0.48532731376975174)"><svg width="89.013" height="88.6" viewBox="0 0 89.013 88.6"><path d="M88.701 34.007c-2.123-6.533-14.435-8.387-27.501-4.142a49.67 49.67 0 0 0-4.31 1.627c.291-2.108.449-4.326.449-6.618C57.338 11.136 51.77-.001 44.901-.001S32.463 11.136 32.463 24.874c0 2.428.177 4.772.501 6.991a48.926 48.926 0 0 0-5.149-2C14.749 25.62 2.437 27.474.314 34.007s6.749 15.27 19.814 19.516a49.177 49.177 0 0 0 5.122 1.365 48.717 48.717 0 0 0-4.151 4.985C13.024 70.987 10.983 83.27 16.54 87.308s16.608-1.699 24.683-12.814a48.452 48.452 0 0 0 3.677-5.912 48.32 48.32 0 0 0 3.676 5.912c8.075 11.114 19.126 16.851 24.683 12.814s3.516-16.321-4.559-27.435a48.574 48.574 0 0 0-4.287-5.126 49.309 49.309 0 0 0 4.472-1.223c13.067-4.247 21.938-12.984 19.816-19.517z" fill="#fd7ce8"/><circle cx="44.508" cy="47.732" fill="#fff" r="10.081"/><path d="M44.508 59.813c-6.662 0-12.081-5.42-12.081-12.081 0-6.662 5.419-12.082 12.081-12.082 6.661 0 12.081 5.42 12.081 12.082s-5.42 12.081-12.081 12.081zm0-20.162c-4.456 0-8.081 3.625-8.081 8.082s3.625 8.081 8.081 8.081 8.081-3.625 8.081-8.081-3.625-8.082-8.081-8.082z" fill="#231e40"/></svg></g><g transform="translate(947.0 690.0) rotate(35.622388048270736 16.5 16.5) scale(0.37073236493545886 0.3724604966139955)"><svg width="89.013" height="88.6" viewBox="0 0 89.013 88.6"><path d="M88.701 34.007c-2.123-6.533-14.435-8.387-27.501-4.142a49.67 49.67 0 0 0-4.31 1.627c.291-2.108.449-4.326.449-6.618C57.338 11.136 51.77-.001 44.901-.001S32.463 11.136 32.463 24.874c0 2.428.177 4.772.501 6.991a48.926 48.926 0 0 0-5.149-2C14.749 25.62 2.437 27.474.314 34.007s6.749 15.27 19.814 19.516a49.177 49.177 0 0 0 5.122 1.365 48.717 48.717 0 0 0-4.151 4.985C13.024 70.987 10.983 83.27 16.54 87.308s16.608-1.699 24.683-12.814a48.452 48.452 0 0 0 3.677-5.912 48.32 48.32 0 0 0 3.676 5.912c8.075 11.114 19.126 16.851 24.683 12.814s3.516-16.321-4.559-27.435a48.574 48.574 0 0 0-4.287-5.126 49.309 49.309 0 0 0 4.472-1.223c13.067-4.247 21.938-12.984 19.816-19.517z" fill="#fd7ce8"/><circle cx="44.508" cy="47.732" fill="#fff" r="10.081"/><path d="M44.508 59.813c-6.662 0-12.081-5.42-12.081-12.081 0-6.662 5.419-12.082 12.081-12.082 6.661 0 12.081 5.42 12.081 12.082s-5.42 12.081-12.081 12.081zm0-20.162c-4.456 0-8.081 3.625-8.081 8.082s3.625 8.081 8.081 8.081 8.081-3.625 8.081-8.081-3.625-8.082-8.081-8.082z" fill="#231e40"/></svg></g><g transform="translate(334.0 193.0) rotate(-23.844899032928453 16.5 34.5) translate(0.0 0.0) scale(0.3316582914572864 0.3323699421965318)"><svg width="45.227" height="144.417" viewBox="0 0 45.227 144.417"><g fill="#231e40"><path d="M24 207.6a2 2 0 0 1-2-2c0-11.943-5.1-17.841-10.5-24.086C5.848 174.972 0 168.207 0 154.7c0-13.432 5.831-20.178 11.471-26.7C16.885 121.734 22 115.818 22 103.8c0-11.943-5.1-17.841-10.5-24.086C5.848 73.172 0 66.407 0 52.9c0-13.432 5.831-20.178 11.471-26.7C16.885 19.934 22 14.018 22 2a2 2 0 0 1 4 0c0 13.507-5.848 20.272-11.5 26.814C9.1 35.059 4 40.957 4 52.9c0 12.018 5.114 17.934 10.529 24.2C20.169 83.622 26 90.368 26 103.8c0 13.507-5.848 20.272-11.5 26.814C9.1 136.859 4 142.757 4 154.7c0 12.018 5.114 17.934 10.529 24.2C20.169 185.422 26 192.168 26 205.6a2 2 0 0 1-2 2zm73.5 0a2 2 0 0 1-2-2c0-11.943-5.1-17.841-10.5-24.086-5.655-6.542-11.5-13.307-11.5-26.814 0-13.432 5.831-20.178 11.471-26.7 5.414-6.264 10.529-12.18 10.529-24.2 0-11.943-5.1-17.841-10.5-24.086-5.652-6.542-11.5-13.307-11.5-26.814 0-13.432 5.831-20.178 11.471-26.7C90.385 19.934 95.5 14.018 95.5 2a2 2 0 0 1 4 0c0 13.507-5.848 20.272-11.5 26.814-5.4 6.245-10.5 12.143-10.5 24.086 0 12.018 5.114 17.934 10.529 24.2 5.64 6.524 11.471 13.27 11.471 26.7 0 13.507-5.848 20.272-11.5 26.814-5.4 6.245-10.5 12.143-10.5 24.086 0 12.018 5.114 17.934 10.529 24.2 5.64 6.524 11.471 13.27 11.471 26.7a2 2 0 0 1-2 2z"/></g></svg></g></svg>