<svg xmlns="http://www.w3.org/2000/svg" viewBox="0 0 1200 800" width="1200" height="800"><g transform="translate(873.0 21.0) rotate(0.0 56.0 332.5) translate(84.76190476190476 209.52380952380952) scale(1.925622818630401 1.9267041190905956)"><svg width="14.021" height="212.799" viewBox="44.018 108.747 14.021 212.799"><path d="M58.163 345.149V0S0 77.264 0 172.575c0 95.31 58.163 172.574 58.163 172.574z" fill="#FFF23D"/></svg></g><g transform="translate(696.0 513.0) rotate(0.0 246.5 124.0) translate(234.28571428571428 0.0) scale(0.9242144177449167 0.9229830215784498)"><svg width="279.929" height="268.694" viewBox="253.497 0 279.929 268.694"><path d="M400.326 223.833c-4.491 0-8.923.168-13.295.485l128.262-50.816s-71.926-19.755-140.261 7.32a185.303 185.303 0 0 0-17.648 8.092l-.002.001L469.358 92.3s-74.422 4.965-130.078 52.986c-7.466 6.442-14.21 13.335-20.3 20.436l64.425-141.914s-63.667 34.733-94.575 99.878C287.038 54.571 266.226 0 266.226 0s-20.413 53.528-22.547 121.698c-31.232-63.913-93.65-97.97-93.65-97.97l64.425 141.914c-6.09-7.102-12.834-13.994-20.3-20.436C138.498 97.185 64.076 92.22 64.076 92.22l111.992 96.629-.027-.015a186.261 186.261 0 0 0-17.638-8.092c-68.335-27.075-140.261-7.32-140.261-7.32l128.262 50.816a184.05 184.05 0 0 0-13.305-.485C59.591 223.754 0 268.615 0 268.615l533.426.079s-59.591-44.861-133.1-44.861z" fill="#b0ff5c"/></svg></g><g transform="translate(798.0 103.0) rotate(0.0 173.5 65.5) scale(0.7181648095104062 0.7138847866247419)"><svg width="483.176" height="183.503" viewBox="0 0 483.176 183.503"><g fill="#231e40"><path d="M240.743 180.994a2.18 2.18 0 0 1-1.719-3.481c.418-.565 10.482-13.993 30.817-27.429 18.729-12.376 50.044-26.996 92.865-26.366 42.794.63 72.781 14.705 90.401 26.4 19.166 12.721 28.071 25.17 28.439 25.693a2.182 2.182 0 0 1-3.565 2.519c-.087-.123-8.915-12.422-27.472-24.697-17.109-11.318-46.242-24.939-87.869-25.552-41.619-.613-72.041 13.549-90.235 25.538-19.752 13.015-29.778 26.36-29.877 26.493a2.175 2.175 0 0 1-1.785.882z"/><path d="M432.892 179.588a2.184 2.184 0 0 1-2.151-2.214l.528-35.86a2.184 2.184 0 0 1 4.366.064l-.528 35.86a2.184 2.184 0 0 1-2.215 2.15zm-14.395.105a2.184 2.184 0 0 1-2.151-2.214l.616-41.849a2.184 2.184 0 0 1 4.366.064l-.616 41.849a2.183 2.183 0 0 1-2.215 2.15zm43.293-.313a2.184 2.184 0 0 1-2.151-2.214l.262-17.816a2.184 2.184 0 0 1 4.366.064l-.262 17.815a2.183 2.183 0 0 1-2.215 2.151zm-14.449.103a2.184 2.184 0 0 1-2.151-2.214l.412-27.994a2.184 2.184 0 0 1 4.366.064l-.412 27.994a2.183 2.183 0 0 1-2.215 2.15zm-72.715.534a2.184 2.184 0 0 1-2.151-2.214l.755-51.329a2.184 2.184 0 0 1 4.366.064l-.755 51.329a2.183 2.183 0 0 1-2.215 2.15zm-14.384.106a2.184 2.184 0 0 1-2.151-2.214l.766-52.039a2.184 2.184 0 0 1 4.366.064l-.766 52.038a2.185 2.185 0 0 1-2.215 2.151zm43.282-.313a2.184 2.184 0 0 1-2.151-2.214l.684-46.464a2.184 2.184 0 0 1 4.366.064l-.684 46.464a2.184 2.184 0 0 1-2.215 2.15zm-14.448.104a2.184 2.184 0 0 1-2.151-2.214l.728-49.497a2.184 2.184 0 0 1 4.366.064l-.728 49.497a2.184 2.184 0 0 1-2.215 2.15zm-73.686.531a2.184 2.184 0 0 1-2.151-2.214l.687-46.661a2.184 2.184 0 0 1 4.366.064l-.687 46.661a2.184 2.184 0 0 1-2.215 2.15zm-14.384.104a2.184 2.184 0 0 1-2.151-2.214l.619-42.089a2.184 2.184 0 0 1 4.366.064l-.619 42.089a2.183 2.183 0 0 1-2.215 2.15zm43.282-.312a2.184 2.184 0 0 1-2.151-2.214l.758-51.536a2.184 2.184 0 0 1 4.366.064l-.758 51.536a2.184 2.184 0 0 1-2.215 2.15zm-14.45.103a2.184 2.184 0 0 1-2.151-2.214l.733-49.792a2.184 2.184 0 0 1 4.366.064l-.733 49.792a2.183 2.183 0 0 1-2.215 2.15zm-72.703.534a2.184 2.184 0 0 1-2.151-2.214l.245-16.637a2.184 2.184 0 0 1 4.366.064l-.245 16.637a2.183 2.183 0 0 1-2.215 2.15zm28.897-.207a2.184 2.184 0 0 1-2.151-2.214l.524-35.587a2.184 2.184 0 0 1 4.366.064l-.524 35.587a2.183 2.183 0 0 1-2.215 2.15zm-14.449.104a2.184 2.184 0 0 1-2.151-2.214l.402-27.318a2.184 2.184 0 0 1 4.366.064l-.402 27.318a2.183 2.183 0 0 1-2.215 2.15z"/><path d="M240.951 177.617a2.181 2.181 0 0 1-2.123-1.86c-.104-.696-2.483-17.307 2.394-41.186 4.493-21.995 16.297-54.475 47.022-84.309 30.706-29.815 61.862-41.067 82.592-45.256 22.549-4.556 37.645-2.05 38.278-1.942a2.18 2.18 0 0 1 1.779 2.519 2.18 2.18 0 0 1-2.519 1.782c-.148-.025-15.088-2.479-36.888 1.962-20.101 4.095-50.333 15.064-80.202 44.066-57.24 55.581-48.238 121.066-48.14 121.722a2.182 2.182 0 0 1-2.193 2.502z"/><path d="M375.828 40.754a2.168 2.168 0 0 1-1.533-.662l-24.983-25.729a2.182 2.182 0 1 1 3.131-3.041l24.983 25.729a2.182 2.182 0 0 1-1.598 3.703zm-10.104 10.252a2.168 2.168 0 0 1-1.533-.662l-29.157-30.027a2.182 2.182 0 1 1 3.131-3.041l29.157 30.027a2.182 2.182 0 0 1-1.598 3.703zm30.391-30.833a2.168 2.168 0 0 1-1.533-.662L382.17 6.728a2.182 2.182 0 1 1 3.131-3.041l12.412 12.783a2.182 2.182 0 0 1-1.598 3.703zm-10.144 10.29a2.168 2.168 0 0 1-1.533-.662L364.934 9.715a2.182 2.182 0 1 1 3.131-3.041l19.504 20.086a2.182 2.182 0 0 1-1.598 3.703zm-51.038 51.795a2.168 2.168 0 0 1-1.533-.662l-35.762-36.83a2.182 2.182 0 1 1 3.131-3.041l35.762 36.83a2.182 2.182 0 0 1-1.598 3.703zm-10.098 10.244a2.168 2.168 0 0 1-1.533-.662l-36.255-37.339a2.182 2.182 0 1 1 3.131-3.041l36.255 37.34a2.182 2.182 0 0 1-1.598 3.702zm30.384-30.825a2.168 2.168 0 0 1-1.533-.662l-32.371-33.339a2.182 2.182 0 1 1 3.131-3.041l32.371 33.339a2.182 2.182 0 0 1-1.598 3.703zm-10.143 10.291a2.168 2.168 0 0 1-1.533-.662l-34.485-35.515a2.182 2.182 0 1 1 3.131-3.041l34.485 35.515a2.182 2.182 0 0 1-1.598 3.703zm-51.729 52.478a2.168 2.168 0 0 1-1.533-.662l-32.509-33.48a2.182 2.182 0 1 1 3.131-3.041l32.509 33.48a2.182 2.182 0 0 1-1.598 3.703zm-10.097 10.245a2.168 2.168 0 0 1-1.533-.662l-29.324-30.2a2.182 2.182 0 1 1 3.131-3.041l29.324 30.2a2.182 2.182 0 0 1-1.598 3.703zm30.384-30.825a2.168 2.168 0 0 1-1.533-.662l-35.906-36.978a2.182 2.182 0 1 1 3.131-3.041l35.906 36.978a2.182 2.182 0 0 1-1.598 3.703zm-10.143 10.29a2.168 2.168 0 0 1-1.533-.662l-34.69-35.726a2.182 2.182 0 1 1 3.131-3.041l34.69 35.726a2.182 2.182 0 0 1-1.598 3.703zm-51.033 51.787a2.168 2.168 0 0 1-1.533-.662l-11.592-11.938a2.182 2.182 0 1 1 3.131-3.041l11.592 11.938a2.182 2.182 0 0 1-1.598 3.703zm20.288-20.581a2.168 2.168 0 0 1-1.533-.662l-24.794-25.535a2.182 2.182 0 1 1 3.131-3.041l24.794 25.535a2.182 2.182 0 0 1-1.598 3.703zm-10.143 10.29a2.168 2.168 0 0 1-1.533-.662l-19.032-19.601a2.182 2.182 0 1 1 3.131-3.041l19.032 19.601a2.182 2.182 0 0 1-1.598 3.703zM.856 179.969a2.181 2.181 0 0 1-1.72-3.481c.418-.565 10.482-13.993 30.817-27.429 18.729-12.376 50.044-26.996 92.865-26.365 42.794.63 72.781 14.705 90.401 26.4 19.166 12.721 28.071 25.169 28.439 25.692a2.182 2.182 0 0 1-3.565 2.519c-.087-.123-8.915-12.422-27.472-24.696-17.109-11.319-46.242-24.939-87.87-25.552-79.775-1.174-119.714 51.497-120.109 52.029a2.174 2.174 0 0 1-1.786.883z"/><path d="M193.005 178.563a2.184 2.184 0 0 1-2.151-2.214l.528-35.86a2.184 2.184 0 0 1 4.366.064l-.528 35.86a2.184 2.184 0 0 1-2.215 2.15zm-14.395.105a2.184 2.184 0 0 1-2.151-2.214l.616-41.849a2.184 2.184 0 0 1 4.366.064l-.616 41.849a2.184 2.184 0 0 1-2.215 2.15zm43.292-.312a2.184 2.184 0 0 1-2.151-2.214l.262-17.815a2.184 2.184 0 0 1 4.366.064l-.262 17.815a2.184 2.184 0 0 1-2.215 2.15zm-14.448.103a2.184 2.184 0 0 1-2.151-2.214l.412-27.994a2.184 2.184 0 0 1 4.366.064l-.412 27.994a2.183 2.183 0 0 1-2.215 2.15zm-72.714.534a2.184 2.184 0 0 1-2.151-2.214l.755-51.33a2.184 2.184 0 0 1 4.366.064l-.755 51.33a2.184 2.184 0 0 1-2.215 2.15zm-14.385.105a2.184 2.184 0 0 1-2.151-2.214l.766-52.039a2.184 2.184 0 0 1 4.366.064l-.766 52.039a2.183 2.183 0 0 1-2.215 2.15zm43.282-.313a2.184 2.184 0 0 1-2.151-2.214l.684-46.465a2.184 2.184 0 0 1 4.366.064l-.684 46.465a2.183 2.183 0 0 1-2.215 2.15zm-14.448.105a2.184 2.184 0 0 1-2.151-2.214l.728-49.498a2.184 2.184 0 0 1 4.366.064l-.728 49.498a2.184 2.184 0 0 1-2.215 2.15zm-73.687.529a2.184 2.184 0 0 1-2.151-2.214l.687-46.661a2.184 2.184 0 0 1 4.366.064l-.687 46.661a2.183 2.183 0 0 1-2.215 2.15zm-14.383.106a2.184 2.184 0 0 1-2.151-2.214l.619-42.089a2.184 2.184 0 0 1 4.366.064l-.619 42.089a2.183 2.183 0 0 1-2.215 2.15zm43.282-.312a2.184 2.184 0 0 1-2.151-2.214l.758-51.537a2.184 2.184 0 0 1 4.366.064l-.758 51.537a2.184 2.184 0 0 1-2.215 2.15zm-14.45.103a2.184 2.184 0 0 1-2.151-2.214l.733-49.792a2.184 2.184 0 0 1 4.366.064l-.733 49.792a2.183 2.183 0 0 1-2.215 2.15zm-72.704.534a2.184 2.184 0 0 1-2.151-2.214l.245-16.637a2.184 2.184 0 0 1 4.366.064l-.245 16.637a2.183 2.183 0 0 1-2.215 2.15zm28.898-.208a2.184 2.184 0 0 1-2.151-2.214l.524-35.587a2.184 2.184 0 0 1 4.366.064l-.524 35.587a2.181 2.181 0 0 1-2.215 2.15zm-14.449.105a2.184 2.184 0 0 1-2.151-2.214l.402-27.318a2.184 2.184 0 0 1 4.366.064l-.402 27.318a2.183 2.183 0 0 1-2.215 2.15z"/><path d="M242.211 176.736a2.182 2.182 0 0 1-2.122-2.55c.025-.149 2.479-15.087-1.961-36.888-4.096-20.102-15.065-50.333-44.066-80.202C138.481-.145 72.996 8.858 72.341 8.955a2.181 2.181 0 1 1-.643-4.317c.696-.104 17.309-2.483 41.187 2.395 21.995 4.492 54.475 16.297 84.309 47.022 29.815 30.706 41.067 61.862 45.256 82.592 4.557 22.548 2.05 37.645 1.942 38.278a2.183 2.183 0 0 1-2.181 1.811z"/><path d="M208.851 143.853a2.182 2.182 0 0 1-1.488-3.748l25.73-24.984a2.182 2.182 0 1 1 3.041 3.131l-25.73 24.984a2.18 2.18 0 0 1-1.553.617zm-10.253-10.105A2.182 2.182 0 0 1 197.11 130l30.027-29.156a2.182 2.182 0 1 1 3.041 3.131l-30.027 29.156a2.174 2.174 0 0 1-1.553.617zm30.834 30.392a2.182 2.182 0 0 1-1.488-3.748l12.783-12.412a2.182 2.182 0 1 1 3.041 3.131l-12.783 12.412a2.18 2.18 0 0 1-1.553.617zm-10.291-10.144a2.182 2.182 0 0 1-1.488-3.748l20.087-19.504a2.182 2.182 0 1 1 3.041 3.131l-20.087 19.504a2.171 2.171 0 0 1-1.553.617zm-51.795-51.039a2.182 2.182 0 0 1-1.488-3.748l36.83-35.762a2.182 2.182 0 1 1 3.041 3.131l-36.83 35.762c-.433.42-.994.625-1.553.617zM157.101 92.86a2.182 2.182 0 0 1-1.488-3.748l37.339-36.255a2.182 2.182 0 1 1 3.041 3.131l-37.339 36.255a2.172 2.172 0 0 1-1.553.617zm30.827 30.385a2.182 2.182 0 0 1-1.488-3.748l33.338-32.372a2.182 2.182 0 1 1 3.041 3.131l-33.338 32.372c-.433.42-.994.625-1.553.617zm-10.291-10.144a2.182 2.182 0 0 1-1.488-3.748l35.515-34.485a2.182 2.182 0 1 1 3.041 3.131l-35.515 34.484a2.172 2.172 0 0 1-1.553.618zm-52.48-51.729a2.182 2.182 0 0 1-1.488-3.748l33.48-32.509a2.182 2.182 0 1 1 3.041 3.131l-33.48 32.509a2.17 2.17 0 0 1-1.553.617zm-10.243-10.096a2.182 2.182 0 0 1-1.488-3.748l30.2-29.324a2.182 2.182 0 1 1 3.041 3.131l-30.2 29.324a2.18 2.18 0 0 1-1.553.617zm30.825 30.383a2.182 2.182 0 0 1-1.488-3.748l36.978-35.906a2.182 2.182 0 1 1 3.041 3.131l-36.978 35.906a2.17 2.17 0 0 1-1.553.617zm-10.29-10.143a2.182 2.182 0 0 1-1.488-3.748l35.725-34.69a2.182 2.182 0 1 1 3.041 3.131l-35.725 34.689a2.176 2.176 0 0 1-1.553.618zM83.661 20.483a2.182 2.182 0 0 1-1.488-3.748L94.11 5.145a2.182 2.182 0 1 1 3.041 3.131L85.213 19.867a2.163 2.163 0 0 1-1.552.616zm20.581 20.288a2.182 2.182 0 0 1-1.488-3.748l25.534-24.794a2.182 2.182 0 1 1 3.041 3.131l-25.534 24.794a2.168 2.168 0 0 1-1.553.617zM93.951 30.628a2.182 2.182 0 0 1-1.488-3.748l19.601-19.033a2.182 2.182 0 1 1 3.041 3.131L95.504 30.011c-.433.42-.994.625-1.553.617z"/></g></svg></g><g transform="translate(99.0 635.0) rotate(121.75680490421357 10.0 60.0) scale(0.3438612176125716 0.3476759312644684)"><svg width="58.163" height="345.149" viewBox="0 0 58.163 345.149"><path d="M58.163 345.149V0S0 77.264 0 172.575c0 95.31 58.163 172.574 58.163 172.574z" fill="#b0ff5c"/></svg></g><g transform="translate(96.0 557.0) rotate(145.23787565599758 13.0 76.0) scale(0.4470195828963431 0.4403895129349933)"><svg width="58.163" height="345.149" viewBox="0 0 58.163 345.149"><path d="M58.163 345.149V0S0 77.264 0 172.575c0 95.31 58.163 172.574 58.163 172.574z" fill="#b0ff5c"/></svg></g><g transform="translate(115.0 519.0) rotate(168.31821159454572 16.5 98.5) scale(0.5673710090607431 0.570767987159169)"><svg width="58.163" height="345.149" viewBox="0 0 58.163 345.149"><path d="M58.163 345.149V0S0 77.264 0 172.575c0 95.31 58.163 172.574 58.163 172.574z" fill="#b0ff5c"/></svg></g><g transform="translate(382.0 575.0) rotate(0.0 -184.5 92.5) translate(-0.0 0.0) scale(-0.6917548076021791 0.6885155604516662)"><svg width="533.426" height="268.694" viewBox="0 0 533.426 268.694"><path d="M400.326 223.833c-4.491 0-8.923.168-13.295.485l128.262-50.816s-71.926-19.755-140.261 7.32a185.303 185.303 0 0 0-17.648 8.092l-.002.001L469.358 92.3s-74.422 4.965-130.078 52.986c-7.466 6.442-14.21 13.335-20.3 20.436l64.425-141.914s-63.667 34.733-94.575 99.878C287.038 54.571 266.226 0 266.226 0s-20.413 53.528-22.547 121.698c-31.232-63.913-93.65-97.97-93.65-97.97l64.425 141.914c-6.09-7.102-12.834-13.994-20.3-20.436C138.498 97.185 64.076 92.22 64.076 92.22l111.992 96.629-.027-.015a186.261 186.261 0 0 0-17.638-8.092c-68.335-27.075-140.261-7.32-140.261-7.32l128.262 50.816a184.05 184.05 0 0 0-13.305-.485C59.591 223.754 0 268.615 0 268.615l533.426.079s-59.591-44.861-133.1-44.861z" fill="#b0ff5c"/></svg></g><g transform="translate(439.0 126.0) rotate(0.0 42.5 252.5) translate(64.65647691240957 30.30772355269197) scale(1.4614101748534292 1.463136210737971)"><svg width="13.685" height="300.04" viewBox="44.243 20.714 13.685 300.04"><path d="M58.163 345.149V0S0 77.264 0 172.575c0 95.31 58.163 172.574 58.163 172.574z" fill="#FFF23D"/></svg></g><g transform="translate(950.0 261.0) rotate(0.0 -455.0 253.5) translate(-845.0 487.1287128712871) scale(-0.53696819496076 0.5372470064639185)"><svg width="121.05" height="36.987" viewBox="1573.65 906.713 121.05 36.987"><path d="M810.2 166.9 704 62.7a272.555 272.555 0 0 0-30.4-29.9A137.025 137.025 0 0 0 641 12.7a127.137 127.137 0 0 0-34.4-9.1 198.945 198.945 0 0 0-23.9-1.5H476.8a22.107 22.107 0 0 0-22.1 22.1v1.7A22.107 22.107 0 0 0 476.8 48a22.107 22.107 0 0 0-22.1 22.1v1.7a22.107 22.107 0 0 0 22.1 22.1 22.107 22.107 0 0 0-22.1 22.1v1.7a22.107 22.107 0 0 0 22.1 22.1 22.107 22.107 0 0 0-22.1 22.1v1.7a22.107 22.107 0 0 0 22.1 22.1H541a22.015 22.015 0 0 0 18.7-10.3l.2.2 110.6 108.5a225.525 225.525 0 0 0 157.9 64.6h329.9V166.9z" fill="#fff6cc"/><path d="M517.491 105.482a24.932 24.932 0 0 1-17.713-42.588l62.51-62.31a2 2 0 1 1 2.824 2.832l-62.5 62.3a20.981 20.981 0 0 0 29.674 29.67l34.508-34.108a2 2 0 0 1 2.812 2.845l-34.5 34.1a24.826 24.826 0 0 1-17.615 7.259z" fill="#231e40"/><path d="M610.7 92.6a48.276 48.276 0 0 1-44.335-29.1 2 2 0 0 1 3.67-1.589 44.437 44.437 0 0 0 63.244 20.575 2 2 0 0 1 2.043 3.439A48.2 48.2 0 0 1 610.7 92.6zm228.2 107.6a2 2 0 0 1-1.4-.574l-30.8-30.3a2 2 0 1 1 2.806-2.851l30.8 30.3a2 2 0 0 1-1.4 3.425zM498.7 95.7h-25.2a2 2 0 0 1 0-4h25.2a2 2 0 0 1 0 4zm41.2 45.9h-66.4a2 2 0 0 1 0-4h66.4a21 21 0 0 0 0-42 2 2 0 0 1 0-4 25 25 0 0 1 0 50zm-22.1-91.8h-44.3a2 2 0 0 1 0-4h44.3a2 2 0 0 1 0 4z" fill="#231e40"/><path d="M539.9 95.7h-3.1a2 2 0 0 1 0-4h3.1a21.024 21.024 0 0 0 21-21 23.082 23.082 0 0 0-.188-2.478 2 2 0 0 1 3.976-.443 26.117 26.117 0 0 1 .212 2.921 25.028 25.028 0 0 1-25 25zm-41.2 0h-25.2a2 2 0 0 1 0-4h25.2a2 2 0 0 1 0 4zm57.9-84.5a1.994 1.994 0 0 1-1.447-.619A20.924 20.924 0 0 0 539.9 4h-66.4a2 2 0 0 1 0-4h66.4a24.894 24.894 0 0 1 18.147 7.82 2 2 0 0 1-1.447 3.38zm-38.8 38.7h-44.3a2 2 0 0 1 0-4h44.3a2 2 0 0 1 0 4zm22.1 137.6h-66.4a2 2 0 0 1 0-4h66.4a21 21 0 0 0 0-42h-66.4a2 2 0 0 1 0-4h66.4a25 25 0 0 1 0 50z" fill="#231e40"/><path d="M1321.8 403.3H907c4.04-34.87 11.9-64.99 22.67-90.91.56-1.33 1.12-2.65 1.69-3.96 45.39-104.47 139.04-138.86 218.94-141.33 58.8-1.8 105.7 4.2 150.3 22.4-18 31.9 21.2 213.8 21.2 213.8z" fill="#fd7ce8"/><g fill="#fff"><path d="M954.4 368a2 2 0 0 1-1.414-3.414l12.3-12.3a2 2 0 1 1 2.828 2.828l-12.3 12.3a1.99 1.99 0 0 1-1.414.586zm156.9 0a2 2 0 0 1-1.42-3.408l12.2-12.3a2 2 0 1 1 2.84 2.816l-12.2 12.3a1.992 1.992 0 0 1-1.42.592zm-78.4 0a2 2 0 0 1-1.42-3.408l12.2-12.3a2 2 0 1 1 2.84 2.816l-12.2 12.3a1.99 1.99 0 0 1-1.42.592zm156.8 0a2 2 0 0 1-1.42-3.408l12.2-12.3a2 2 0 1 1 2.84 2.816l-12.2 12.3a1.99 1.99 0 0 1-1.42.592zm78.4 0a2 2 0 0 1-1.42-3.408l12.2-12.3a2 2 0 1 1 2.84 2.816l-12.2 12.3a1.989 1.989 0 0 1-1.42.592zm-330.79-50.79a1.98 1.98 0 0 1-2.82 0l-4.82-4.82c.56-1.33 1.12-2.65 1.69-3.96l5.95 5.96a1.974 1.974 0 0 1 0 2.82zm146.99.59a2 2 0 0 1-1.414-.586l-12.2-12.2a2 2 0 0 1 2.828-2.828l12.2 12.2a2 2 0 0 1-1.414 3.414zm-78.4 0a2 2 0 0 1-1.414-.586l-12.2-12.2a2 2 0 0 1 2.828-2.828l12.2 12.2a2 2 0 0 1-1.414 3.414zm156.8 0a2 2 0 0 1-1.414-.586l-12.2-12.2a2 2 0 0 1 2.828-2.828l12.2 12.2a2 2 0 0 1-1.414 3.414zm78.4 0a2 2 0 0 1-1.414-.586l-12.2-12.2a2 2 0 0 1 2.828-2.828l12.2 12.2a2 2 0 0 1-1.414 3.414zm-129.8-57.1a2 2 0 0 1-1.414-3.414l12.2-12.2a2 2 0 0 1 2.828 2.828l-12.2 12.2a1.994 1.994 0 0 1-1.414.586zm-78.4 0a2 2 0 0 1-1.414-3.414l12.2-12.2a2 2 0 0 1 2.828 2.828l-12.2 12.2a1.99 1.99 0 0 1-1.414.586zm156.8 0a2 2 0 0 1-1.414-3.414l12.2-12.2a2 2 0 0 1 2.828 2.828l-12.2 12.2a1.992 1.992 0 0 1-1.414.586zm78.4 0a2 2 0 0 1-1.414-3.414l12.2-12.2a2 2 0 0 1 2.828 2.828l-12.2 12.2a1.99 1.99 0 0 1-1.414.586zm-183.8-50.2a1.99 1.99 0 0 1-1.414-.586l-12.2-12.2a2 2 0 0 1 2.828-2.828l12.2 12.2a2 2 0 0 1-1.414 3.414zm78.4 0a1.992 1.992 0 0 1-1.414-.586l-12.2-12.2a2 2 0 0 1 2.828-2.828l12.2 12.2a2 2 0 0 1-1.414 3.414zm78.4 0a1.994 1.994 0 0 1-1.414-.586l-12.2-12.2a2 2 0 0 1 2.828-2.828l12.2 12.2a2 2 0 0 1-1.414 3.414z"/></g><path d="M18.1 563.9v366.8a10.029 10.029 0 0 0 10 10H109v-266s-39.5-75.3-77.2-111c-7.2-6.7-13.7-6.1-13.7.2z" fill="#231e40"/><path d="M64.9 683.8a2 2 0 0 1-1.17-3.624l34.2-24.6a2 2 0 0 1 2.336 3.248l-34.2 24.6a1.994 1.994 0 0 1-1.166.376zm-13.7-19a2 2 0 0 1-1.173-3.621l35.7-25.8a2 2 0 1 1 2.342 3.242l-35.7 25.8a1.99 1.99 0 0 1-1.169.379z" fill="#fff"/><path d="M2 942.7a2 2 0 0 1-2-2V561a2 2 0 0 1 4 0v379.7a2 2 0 0 1-2 2z" fill="#231e40"/><path d="M108.93 674.59h150.1v266.1h-150.1z" fill="#fff6cc"/><path d="M1114.2 940.4c-4.2.2-8.5.2-12.8.2H211.5V585.7l902.7 65.9z" fill="#7b60c4"/><path d="M243.3 942.7a2 2 0 0 1-2-2V588.1a2 2 0 0 1 4 0v352.6a2 2 0 0 1-2 2zm473.8-180.6H650a2 2 0 0 1 0-4h67.1a2 2 0 0 1 0 4zm-340 0h-43.8a2 2 0 0 1-1.82-2.829l73.1-160.5a2 2 0 0 1 3.641 1.658L336.408 758.1H377.1a2 2 0 0 1 0 4z" fill="#fff"/><path d="m613.3 844.7 5-11.3H341.6l55.2-120.9H674z" fill="#fff6cc"/><path d="M341.6 833.4h276.7l-5 11.3H336.4z" fill="#fff6cc"/><path d="m618.3 833.4-5 11.3-31.2 70.6a15.71 15.71 0 0 1-14.3 9.3H230.5c-6.3 0-7-6.6-.3-13.6 35.5-37.6 110.2-76.9 111.4-77.5h276.7z" fill="#231e40"/><path d="M348.8 879.5a2 2 0 0 1-1.625-.831l-24.7-34.3a2 2 0 1 1 3.246-2.337l24.7 34.3a2 2 0 0 1-1.621 3.168zm-19.1 13.8a2 2 0 0 1-1.623-.83l-25.9-35.9a2 2 0 1 1 3.244-2.34l25.9 35.9a2 2 0 0 1-1.621 3.17z" fill="#fff"/><path d="M573 942.7H223.4a2 2 0 0 1 0-4H573a2 2 0 0 1 0 4z" fill="#231e40"/><path d="M1114.2 940.4c-4.2.2-8.5.2-12.8.2-139.3 0-230.2-92.6-360.2-229.3l-.9-.9s-2-2.1-2.1-2.2l-21.1 49.9H336.4l71.5-157.2 49.1-108c43.1-86.3 75.1-168.9 155.6-210.4 48.4-24.9 108.5-36 174-10 29 11.5 58.1 30.3 85.8 58.4l.2.2 73.9 72.2h452.8c46.2 360.2-90.2 530.1-285.1 537.1z" fill="#7b60c4"/><path d="M1273.9 489.7h-42.4a40.245 40.245 0 0 1-40.2-40.2v-46.2a2 2 0 1 1 4 0v46.2a36.24 36.24 0 0 0 36.2 36.2h42.4a2 2 0 0 1 0 4zm-197.2 454c-.055 0-.11 0-.166-.006-58.669-4.808-112.72-27.12-170.1-70.22-51.237-38.486-101.405-90.051-166.685-158.7l-.865-.863c-3.986-4.1-3.986-4.1-3.986-5.015a2 2 0 0 1 3.638-1.148c.342.393 1.855 1.974 3.2 3.355l.879.878c115.45 121.4 206.612 217.262 334.25 227.722a2 2 0 0 1-.162 3.993z" fill="#fff"/><path d="M717.1 762.1a2 2 0 0 1-1.875-2.7l81.2-218.5a2 2 0 1 1 3.749 1.392l-81.2 218.5a2 2 0 0 1-1.874 1.308zm365.8-221.4a1.993 1.993 0 0 1-1.424-.6l-133.6-135.4a2 2 0 1 1 2.848-2.808l133.6 135.4a2 2 0 0 1-1.424 3.4z" fill="#fff"/><path d="M1258.4 437H980.6a2 2 0 1 1 0-4h277.8a2 2 0 0 1 0 4zM729.1 729.8H349.2a2 2 0 0 1 0-4h379.9a2 2 0 1 1 0 4z" fill="#fff"/><path d="M1676.3 885.1a22.735 22.735 0 0 0-22.2-17.8h-2.9a22.969 22.969 0 0 0-21.4-14.8h-60.7l-154.8-504c-.3-1-.6-2.1-1-3.1-35.8-113.7-89.9-146.5-114.1-156.5-80.7 24.8-88.2 116.4-58.1 214.4l138.7 451c10 34.1 13.7 79.3 82.8 85.6a20.972 20.972 0 0 0 5.6.7h80.2a23.031 23.031 0 0 0 19.4-10.6h101.9a22.982 22.982 0 0 0 23-22.9 23.1 23.1 0 0 0-16.4-22z" fill="#fff6cc"/><path d="M1651.2 869.2a2 2 0 0 1-1.877-1.31 20.814 20.814 0 0 0-19.523-13.49h-60.7a2 2 0 0 1 0-4h60.7a24.827 24.827 0 0 1 23.277 16.11 2 2 0 0 1-1.877 2.691z" fill="#231e40"/><path d="M1676.2 887.1a2 2 0 0 1-1.948-1.556 20.869 20.869 0 0 0-20.268-16.244l-79.395-.5a2 2 0 0 1 .012-4h.014l79.4.5a24.859 24.859 0 0 1 24.138 19.356 2 2 0 0 1-1.952 2.444z" fill="#231e40"/><path d="M1692.7 909.2a2 2 0 0 1-2-2 20.974 20.974 0 0 0-20.9-21h-90.5a2 2 0 0 1 0-4h90.5a24.978 24.978 0 0 1 24.9 25 2 2 0 0 1-2 2zM1567.8 932a2 2 0 0 1-1.669-3.1 20.6 20.6 0 0 0 3.271-11.2 20.974 20.974 0 0 0-20.9-21h-55.7a2 2 0 0 1 0-4h55.7a24.978 24.978 0 0 1 24.9 25 24.3 24.3 0 0 1-3.929 13.4 2 2 0 0 1-1.673.9z" fill="#231e40"/></svg></g><g transform="translate(654.0 164.0) rotate(16.523867433944734 -375.0 396.0) translate(-0.0 21.0) scale(-0.5795197712828636 0.5796168088874577)"><svg width="288.17" height="307.099" viewBox="0 36.231 288.17 307.099"><path d="m513.607 132.667-124.35 99.39-124.066-120.99C239.585 84.02 231.016 56.378 226.1 30.732l-2.12-11.283A23.906 23.906 0 0 0 177 28.372l7.751 41.26L60.4 41.851A23.907 23.907 0 0 0 31.853 59.97a23.907 23.907 0 0 0 18.119 28.544 23.905 23.905 0 0 0-28.543 18.119 23.906 23.906 0 0 0 18.119 28.543A23.908 23.908 0 0 0 11 153.3a23.907 23.907 0 0 0 18.12 28.543A23.907 23.907 0 0 0 18.7 228.5l68.106 15.214c18.834 4.208 39.013 16.776 70.028 47.1l-.082-.248 71.766 69.979 56.982 55.717a142.512 142.512 0 0 0 188.584 9.453l.23-.184 62.106-49.613 110.26-88.07z" fill="#fff6cc"/><path d="M109.908 225.537a2 2 0 0 1-1.953-2.436l31.273-139.989a2 2 0 0 1 3.9.872l-31.27 139.989a2 2 0 0 1-1.95 1.564z" fill="#231e40"/><path d="M135.789 109.685a2 2 0 0 1-.438-.049L49.536 90.465a2 2 0 0 1 .872-3.9l85.815 19.171a2 2 0 0 1-.434 3.952zm-11.6 46.4a2 2 0 0 1-.438-.049l-84.639-18.908a2 2 0 1 1 .872-3.9l84.639 18.908a2 2 0 0 1-.434 3.952zm-9.248 46.925a1.935 1.935 0 0 1-.438-.049L28.688 183.79a2 2 0 1 1 .872-3.9l85.815 19.171a2 2 0 0 1-.434 3.952zm84.267-53.388a2.032 2.032 0 0 1-.467-.055 44.055 44.055 0 0 1-14.818-79.1 2 2 0 0 1 2.269 3.294 40.055 40.055 0 0 0 13.48 71.918 2 2 0 0 1-.464 3.946zm221.329 112.037a2 2 0 0 1-1.4-.57l-29.6-28.941a2 2 0 0 1 2.8-2.86l29.6 28.94a2 2 0 0 1-1.4 3.431z" fill="#231e40"/><path d="M1176.707 1261.024h-264.62l-20.28-77.05h264.67l20.16 76.6zm-522.28-77.05-3.59 74.42-.28 2.62h-253.66l3.72-77.04z" fill="#fff6cc"/><path d="M978.6 359.957H435.274c-.48 127.124-34.547 824.015-34.547 824.015h369.2l-29.555-483.365.155.59 19.44 73.87 98.95 380.587 7.45 28.32h374.38z" fill="#7b60c4"/><path d="M987.023 390.267H434.849a2 2 0 0 1 0-4h552.174a2 2 0 0 1 0 4z" fill="#fff"/><path d="M677.371 474.454H662.8a28.5 28.5 0 0 1-27.472-21.041l-25.085-92.938a2 2 0 1 1 3.861-1.042l25.085 92.938a24.5 24.5 0 0 0 23.611 18.083h14.576a2 2 0 0 1 0 4zm554.092 683.203H858.725a2 2 0 0 1 0-4h372.738a2 2 0 0 1 0 4zm-463.34 0H402.115a2 2 0 0 1 0-4h366.008a2 2 0 0 1 0 4z" fill="#fff"/><path d="M757.964 777.07a2 2 0 0 1-1.933-1.491L646.77 360.463a2 2 0 0 1 3.868-1.018L759.9 774.56a2 2 0 0 1-1.935 2.51z" fill="#fff"/><path d="M978.6 359.963H435.275v-.01c.42-45.53-4.13-129.73 38.34-187.14 34.5-46.65 84.39-76.45 195.25-80.21 35.64-1.21 67.05.34 94.75 4.17a.235.235 0 0 1 .08.02q6.135.84 12.02 1.83 9.495 1.62 18.39 3.59c.16.04.32.07.48.11a216.152 216.152 0 0 1 48.05 16.92c1.16.57 2.31 1.15 3.45 1.73A216.614 216.614 0 0 1 896.5 156.8c.08.07.16.14.24.22.52.5 1.05 1.01 1.57 1.52a303.77 303.77 0 0 1 5.03 4.97l1.33 1.36q4.35 4.455 8.78 9.33c.6.65 1.2 1.32 1.79 1.99.27.29.53.59.8.89.55.61 1.09 1.23 1.64 1.86a477.611 477.611 0 0 1 32.36 41.52c20.825 46.94 24.635 98.54 28.56 139.503z" fill="#fd7ce8"/><path d="M978.6 359.957H435.277c.42-45.53-4.13-129.74 38.34-187.15 34.5-46.65 84.39-76.45 195.25-80.21 35.64-1.21 67.05.34 94.75 4.17a.235.235 0 0 1 .08.02q6.135.84 12.02 1.83 9.5 1.62 18.39 3.59a296.506 296.506 0 0 1 44.03 13.25c31.56 14.91 69.37 44.21 111.9 105 20.83 46.943 24.64 98.543 28.563 139.5z" fill="none"/><g fill="#fff"><path d="M453.434 340.42a2 2 0 0 1-1.414-3.414l12.451-12.451a2 2 0 0 1 2.828 2.828l-12.451 12.451a1.99 1.99 0 0 1-1.414.586zm71.342 0a2 2 0 0 1-1.414-3.414l12.45-12.451a2 2 0 0 1 2.828 2.828l-12.45 12.451a1.992 1.992 0 0 1-1.414.586zm159.908 0a2 2 0 0 1-1.414-3.414l12.451-12.451a2 2 0 0 1 2.829 2.828l-12.45 12.451a1.99 1.99 0 0 1-1.416.586zm-79.954 0a2 2 0 0 1-1.414-3.414l12.451-12.451a2 2 0 0 1 2.828 2.828l-12.451 12.451a1.99 1.99 0 0 1-1.414.586zm159.909 0a2 2 0 0 1-1.414-3.414l12.451-12.451a2 2 0 0 1 2.828 2.828l-12.451 12.451a1.99 1.99 0 0 1-1.414.586zm79.954 0a2 2 0 0 1-1.414-3.414l12.451-12.451a2 2 0 0 1 2.828 2.828l-12.45 12.451a1.994 1.994 0 0 1-1.415.586zm79.955 0a2 2 0 0 1-1.414-3.414l12.451-12.451a2 2 0 0 1 2.828 2.828l-12.451 12.451a1.99 1.99 0 0 1-1.414.586zm-418.685-51.141a1.994 1.994 0 0 1-1.415-.586L492 276.243a2 2 0 0 1 2.828-2.828l12.452 12.45a2 2 0 0 1-1.414 3.414zm151.295 0a1.99 1.99 0 0 1-1.414-.586l-12.451-12.45a2 2 0 0 1 2.828-2.828l12.451 12.45a2 2 0 0 1-1.414 3.414zm-79.958 0a1.99 1.99 0 0 1-1.414-.586l-12.451-12.45a2 2 0 0 1 2.828-2.828l12.451 12.45a2 2 0 0 1-1.414 3.414zm159.913 0a1.994 1.994 0 0 1-1.415-.586l-12.45-12.45a2 2 0 0 1 2.828-2.828l12.451 12.45a2 2 0 0 1-1.414 3.414zm79.954 0a1.992 1.992 0 0 1-1.414-.586l-12.453-12.45a2 2 0 0 1 2.828-2.828l12.451 12.45a2 2 0 0 1-1.414 3.414zm79.955 0a1.99 1.99 0 0 1-1.414-.586l-12.452-12.45a2 2 0 0 1 2.829-2.828l12.451 12.45a2 2 0 0 1-1.414 3.414zm-443.588-58.251a2 2 0 0 1-1.414-3.414l12.451-12.451a2 2 0 1 1 2.828 2.828l-12.451 12.451a2 2 0 0 1-1.414.586zm71.342 0a2 2 0 0 1-1.414-3.414l12.45-12.451a2 2 0 1 1 2.828 2.828l-12.45 12.451a2 2 0 0 1-1.414.586zm159.908 0a2 2 0 0 1-1.414-3.414l12.451-12.451a2 2 0 1 1 2.829 2.828l-12.45 12.451a2 2 0 0 1-1.416.586zm-79.954 0a2 2 0 0 1-1.414-3.414l12.451-12.451a2 2 0 1 1 2.828 2.828l-12.451 12.451a2 2 0 0 1-1.414.586zm159.909 0a2 2 0 0 1-1.414-3.414l12.451-12.451a2 2 0 1 1 2.828 2.828l-12.451 12.451a2 2 0 0 1-1.414.586zm79.954 0a2 2 0 0 1-1.414-3.414l12.451-12.451a2 2 0 1 1 2.828 2.828l-12.45 12.451a2 2 0 0 1-1.415.586zm79.955 0a2 2 0 0 1-1.414-3.414l12.451-12.451a2 2 0 1 1 2.828 2.828l-12.451 12.451a2 2 0 0 1-1.414.586zm-418.685-51.141a1.994 1.994 0 0 1-1.415-.586L492 166.851a2 2 0 0 1 2.828-2.829l12.452 12.451a2 2 0 0 1-1.414 3.414zm151.295 0a1.99 1.99 0 0 1-1.414-.586l-12.451-12.45a2 2 0 0 1 2.828-2.829l12.451 12.451a2 2 0 0 1-1.414 3.414zm-79.958 0a1.99 1.99 0 0 1-1.414-.586l-12.451-12.45a2 2 0 0 1 2.828-2.829l12.451 12.451a2 2 0 0 1-1.414 3.414zm159.913 0a1.994 1.994 0 0 1-1.415-.586l-12.45-12.45a2 2 0 0 1 2.828-2.829l12.451 12.451a2 2 0 0 1-1.414 3.414zm79.954 0a1.992 1.992 0 0 1-1.414-.586l-12.453-12.45a2 2 0 0 1 2.828-2.829l12.451 12.451a2 2 0 0 1-1.414 3.414zm79.955 0a1.99 1.99 0 0 1-1.414-.586l-12.452-12.45a2 2 0 0 1 2.829-2.829l12.451 12.451a2 2 0 0 1-1.414 3.414zm-212.338-58.251a2 2 0 0 1-1.414-3.414l12.451-12.451a2 2 0 0 1 2.829 2.828L686.1 121.05a2 2 0 0 1-1.416.586zm-79.954 0a2 2 0 0 1-1.414-3.414l12.451-12.451a2 2 0 0 1 2.833 2.829l-12.456 12.45a2 2 0 0 1-1.414.586zm159.909 0a2 2 0 0 1-1.414-3.414l12.451-12.451a2 2 0 0 1 2.824 2.829l-12.447 12.45a2 2 0 0 1-1.414.586zm81.446-.663-.08.08a1.983 1.983 0 0 1-1.41.58 1.984 1.984 0 0 1-1.96-2.39c1.165.57 2.31 1.15 3.45 1.73z"/></g><path d="M650.517 1261.024v4.03L647 1337.986a10.2 10.2 0 0 1-10.188 9.708H291.257c-6.01 0-6.58-6.2-.2-13.07 34.04-35.94 105.84-73.6 105.84-73.6z" fill="#231e40"/><path d="M403.666 1305.068a2 2 0 0 1-1.625-.832l-23.454-32.608a2 2 0 1 1 3.247-2.336l23.454 32.608a2 2 0 0 1-1.622 3.168zm-18.115 13.063a2 2 0 0 1-1.623-.829l-24.6-34.038a2 2 0 0 1 3.243-2.343l24.6 34.038a2 2 0 0 1-1.62 3.172z" fill="#fff"/><path d="M644.727 1365.04H288.488a2 2 0 0 1 0-4h356.239a2 2 0 0 1 0 4zm637.62-17.346h-338.51a11.589 11.589 0 0 1-11.21-8.64l-20.36-77.35a.529.529 0 0 1 .51-.67l10.31-.01h253.49a.5.5 0 0 1 .24.06c3.16 1.67 72.47 38.42 105.73 73.54 6.38 6.87 5.81 13.07-.2 13.07z" fill="#231e40"/><path d="M1169.94 1305.068a2 2 0 0 1-1.622-3.168l23.455-32.608a2 2 0 1 1 3.247 2.336l-23.455 32.608a2 2 0 0 1-1.625.832zm18.115 13.063a2 2 0 0 1-1.619-3.172l24.6-34.038a2 2 0 1 1 3.242 2.343l-24.6 34.038a2 2 0 0 1-1.623.829z" fill="#fff"/><path d="M1289.119 1365.04H939.394a2 2 0 0 1 0-4h349.725a2 2 0 0 1 0 4z" fill="#231e40"/><path d="M1270.384 616.7a21.749 21.749 0 0 1-21.75 21.75H1013.8a88.215 88.215 0 0 1-75.75-43l-123.7-207.18-16.9-28.31-49.01-82.09c-34.32-59.46-27.39-135.81 21.09-164.54a120.23 120.23 0 0 1 24.57-11.12c.16.04.32.07.48.11a216.345 216.345 0 0 1 101.91 54.48c.08.07.16.14.24.22.52.5 1.05 1.01 1.57 1.52a303.77 303.77 0 0 1 5.03 4.97l1.33 1.36q4.35 4.455 8.78 9.33c.6.65 1.2 1.32 1.79 1.99.27.29.53.59.8.89.55.61 1.09 1.23 1.64 1.86a477.611 477.611 0 0 1 32.36 41.52c8.64 12.35 17.48 26 26.5 41.09v.01l178.66 299.01c5.6 9.38 10.91 16.23 16.38 21.17l.07-.02 53.9-19.81a21.736 21.736 0 0 1 26.4 31.17 19.341 19.341 0 0 1-1.26 1.97 21.747 21.747 0 0 1 19.704 21.65z" fill="#fff6cc"/><path d="M1075.3 638.447a2 2 0 0 1 0-4 19.749 19.749 0 1 0 0-39.5h-63.325a2 2 0 1 1 0-4h63.325a23.749 23.749 0 1 1 0 47.5zm176.649-43.364a1.976 1.976 0 0 1-.253-.016 15.04 15.04 0 0 0-1.945-.117c-.371 0-35.824.161-46.388 0-14.268-.221-24.207-3.779-33.233-11.9a2 2 0 1 1 2.674-2.973c8.356 7.515 17.227 10.665 30.621 10.871 10.524.162 45.936 0 46.293 0a18.209 18.209 0 0 1 2.48.149 2 2 0 0 1-.249 3.984z" fill="#231e40"/></svg></g><g transform="translate(943.0 255.0) rotate(0.0 -455.0 253.5) translate(-0.0 81.19629769078729) scale(-0.53696819496076 0.5372470064639185)"><svg width="1694.7" height="792.566" viewBox="0 151.134 1694.7 792.566"><path d="M810.2 166.9 704 62.7a272.555 272.555 0 0 0-30.4-29.9A137.025 137.025 0 0 0 641 12.7a127.137 127.137 0 0 0-34.4-9.1 198.945 198.945 0 0 0-23.9-1.5H476.8a22.107 22.107 0 0 0-22.1 22.1v1.7A22.107 22.107 0 0 0 476.8 48a22.107 22.107 0 0 0-22.1 22.1v1.7a22.107 22.107 0 0 0 22.1 22.1 22.107 22.107 0 0 0-22.1 22.1v1.7a22.107 22.107 0 0 0 22.1 22.1 22.107 22.107 0 0 0-22.1 22.1v1.7a22.107 22.107 0 0 0 22.1 22.1H541a22.015 22.015 0 0 0 18.7-10.3l.2.2 110.6 108.5a225.525 225.525 0 0 0 157.9 64.6h329.9V166.9z" fill="#fff6cc"/><path d="M517.491 105.482a24.932 24.932 0 0 1-17.713-42.588l62.51-62.31a2 2 0 1 1 2.824 2.832l-62.5 62.3a20.981 20.981 0 0 0 29.674 29.67l34.508-34.108a2 2 0 0 1 2.812 2.845l-34.5 34.1a24.826 24.826 0 0 1-17.615 7.259z" fill="#231e40"/><path d="M610.7 92.6a48.276 48.276 0 0 1-44.335-29.1 2 2 0 0 1 3.67-1.589 44.437 44.437 0 0 0 63.244 20.575 2 2 0 0 1 2.043 3.439A48.2 48.2 0 0 1 610.7 92.6zm228.2 107.6a2 2 0 0 1-1.4-.574l-30.8-30.3a2 2 0 1 1 2.806-2.851l30.8 30.3a2 2 0 0 1-1.4 3.425zM498.7 95.7h-25.2a2 2 0 0 1 0-4h25.2a2 2 0 0 1 0 4zm41.2 45.9h-66.4a2 2 0 0 1 0-4h66.4a21 21 0 0 0 0-42 2 2 0 0 1 0-4 25 25 0 0 1 0 50zm-22.1-91.8h-44.3a2 2 0 0 1 0-4h44.3a2 2 0 0 1 0 4z" fill="#231e40"/><path d="M539.9 95.7h-3.1a2 2 0 0 1 0-4h3.1a21.024 21.024 0 0 0 21-21 23.082 23.082 0 0 0-.188-2.478 2 2 0 0 1 3.976-.443 26.117 26.117 0 0 1 .212 2.921 25.028 25.028 0 0 1-25 25zm-41.2 0h-25.2a2 2 0 0 1 0-4h25.2a2 2 0 0 1 0 4zm57.9-84.5a1.994 1.994 0 0 1-1.447-.619A20.924 20.924 0 0 0 539.9 4h-66.4a2 2 0 0 1 0-4h66.4a24.894 24.894 0 0 1 18.147 7.82 2 2 0 0 1-1.447 3.38zm-38.8 38.7h-44.3a2 2 0 0 1 0-4h44.3a2 2 0 0 1 0 4zm22.1 137.6h-66.4a2 2 0 0 1 0-4h66.4a21 21 0 0 0 0-42h-66.4a2 2 0 0 1 0-4h66.4a25 25 0 0 1 0 50z" fill="#231e40"/><path d="M1321.8 403.3H907c4.04-34.87 11.9-64.99 22.67-90.91.56-1.33 1.12-2.65 1.69-3.96 45.39-104.47 139.04-138.86 218.94-141.33 58.8-1.8 105.7 4.2 150.3 22.4-18 31.9 21.2 213.8 21.2 213.8z" fill="#fd7ce8"/><g fill="#fff"><path d="M954.4 368a2 2 0 0 1-1.414-3.414l12.3-12.3a2 2 0 1 1 2.828 2.828l-12.3 12.3a1.99 1.99 0 0 1-1.414.586zm156.9 0a2 2 0 0 1-1.42-3.408l12.2-12.3a2 2 0 1 1 2.84 2.816l-12.2 12.3a1.992 1.992 0 0 1-1.42.592zm-78.4 0a2 2 0 0 1-1.42-3.408l12.2-12.3a2 2 0 1 1 2.84 2.816l-12.2 12.3a1.99 1.99 0 0 1-1.42.592zm156.8 0a2 2 0 0 1-1.42-3.408l12.2-12.3a2 2 0 1 1 2.84 2.816l-12.2 12.3a1.99 1.99 0 0 1-1.42.592zm78.4 0a2 2 0 0 1-1.42-3.408l12.2-12.3a2 2 0 1 1 2.84 2.816l-12.2 12.3a1.989 1.989 0 0 1-1.42.592zm-330.79-50.79a1.98 1.98 0 0 1-2.82 0l-4.82-4.82c.56-1.33 1.12-2.65 1.69-3.96l5.95 5.96a1.974 1.974 0 0 1 0 2.82zm146.99.59a2 2 0 0 1-1.414-.586l-12.2-12.2a2 2 0 0 1 2.828-2.828l12.2 12.2a2 2 0 0 1-1.414 3.414zm-78.4 0a2 2 0 0 1-1.414-.586l-12.2-12.2a2 2 0 0 1 2.828-2.828l12.2 12.2a2 2 0 0 1-1.414 3.414zm156.8 0a2 2 0 0 1-1.414-.586l-12.2-12.2a2 2 0 0 1 2.828-2.828l12.2 12.2a2 2 0 0 1-1.414 3.414zm78.4 0a2 2 0 0 1-1.414-.586l-12.2-12.2a2 2 0 0 1 2.828-2.828l12.2 12.2a2 2 0 0 1-1.414 3.414zm-129.8-57.1a2 2 0 0 1-1.414-3.414l12.2-12.2a2 2 0 0 1 2.828 2.828l-12.2 12.2a1.994 1.994 0 0 1-1.414.586zm-78.4 0a2 2 0 0 1-1.414-3.414l12.2-12.2a2 2 0 0 1 2.828 2.828l-12.2 12.2a1.99 1.99 0 0 1-1.414.586zm156.8 0a2 2 0 0 1-1.414-3.414l12.2-12.2a2 2 0 0 1 2.828 2.828l-12.2 12.2a1.992 1.992 0 0 1-1.414.586zm78.4 0a2 2 0 0 1-1.414-3.414l12.2-12.2a2 2 0 0 1 2.828 2.828l-12.2 12.2a1.99 1.99 0 0 1-1.414.586zm-183.8-50.2a1.99 1.99 0 0 1-1.414-.586l-12.2-12.2a2 2 0 0 1 2.828-2.828l12.2 12.2a2 2 0 0 1-1.414 3.414zm78.4 0a1.992 1.992 0 0 1-1.414-.586l-12.2-12.2a2 2 0 0 1 2.828-2.828l12.2 12.2a2 2 0 0 1-1.414 3.414zm78.4 0a1.994 1.994 0 0 1-1.414-.586l-12.2-12.2a2 2 0 0 1 2.828-2.828l12.2 12.2a2 2 0 0 1-1.414 3.414z"/></g><path d="M18.1 563.9v366.8a10.029 10.029 0 0 0 10 10H109v-266s-39.5-75.3-77.2-111c-7.2-6.7-13.7-6.1-13.7.2z" fill="#231e40"/><path d="M64.9 683.8a2 2 0 0 1-1.17-3.624l34.2-24.6a2 2 0 0 1 2.336 3.248l-34.2 24.6a1.994 1.994 0 0 1-1.166.376zm-13.7-19a2 2 0 0 1-1.173-3.621l35.7-25.8a2 2 0 1 1 2.342 3.242l-35.7 25.8a1.99 1.99 0 0 1-1.169.379z" fill="#fff"/><path d="M2 942.7a2 2 0 0 1-2-2V561a2 2 0 0 1 4 0v379.7a2 2 0 0 1-2 2z" fill="#231e40"/><path d="M108.93 674.59h150.1v266.1h-150.1z" fill="#fff6cc"/><path d="M1114.2 940.4c-4.2.2-8.5.2-12.8.2H211.5V585.7l902.7 65.9z" fill="#7b60c4"/><path d="M243.3 942.7a2 2 0 0 1-2-2V588.1a2 2 0 0 1 4 0v352.6a2 2 0 0 1-2 2zm473.8-180.6H650a2 2 0 0 1 0-4h67.1a2 2 0 0 1 0 4zm-340 0h-43.8a2 2 0 0 1-1.82-2.829l73.1-160.5a2 2 0 0 1 3.641 1.658L336.408 758.1H377.1a2 2 0 0 1 0 4z" fill="#fff"/><path d="m613.3 844.7 5-11.3H341.6l55.2-120.9H674z" fill="#fff6cc"/><path d="M341.6 833.4h276.7l-5 11.3H336.4z" fill="#fff6cc"/><path d="m618.3 833.4-5 11.3-31.2 70.6a15.71 15.71 0 0 1-14.3 9.3H230.5c-6.3 0-7-6.6-.3-13.6 35.5-37.6 110.2-76.9 111.4-77.5h276.7z" fill="#231e40"/><path d="M348.8 879.5a2 2 0 0 1-1.625-.831l-24.7-34.3a2 2 0 1 1 3.246-2.337l24.7 34.3a2 2 0 0 1-1.621 3.168zm-19.1 13.8a2 2 0 0 1-1.623-.83l-25.9-35.9a2 2 0 1 1 3.244-2.34l25.9 35.9a2 2 0 0 1-1.621 3.17z" fill="#fff"/><path d="M573 942.7H223.4a2 2 0 0 1 0-4H573a2 2 0 0 1 0 4z" fill="#231e40"/><path d="M1114.2 940.4c-4.2.2-8.5.2-12.8.2-139.3 0-230.2-92.6-360.2-229.3l-.9-.9s-2-2.1-2.1-2.2l-21.1 49.9H336.4l71.5-157.2 49.1-108c43.1-86.3 75.1-168.9 155.6-210.4 48.4-24.9 108.5-36 174-10 29 11.5 58.1 30.3 85.8 58.4l.2.2 73.9 72.2h452.8c46.2 360.2-90.2 530.1-285.1 537.1z" fill="#7b60c4"/><path d="M1273.9 489.7h-42.4a40.245 40.245 0 0 1-40.2-40.2v-46.2a2 2 0 1 1 4 0v46.2a36.24 36.24 0 0 0 36.2 36.2h42.4a2 2 0 0 1 0 4zm-197.2 454c-.055 0-.11 0-.166-.006-58.669-4.808-112.72-27.12-170.1-70.22-51.237-38.486-101.405-90.051-166.685-158.7l-.865-.863c-3.986-4.1-3.986-4.1-3.986-5.015a2 2 0 0 1 3.638-1.148c.342.393 1.855 1.974 3.2 3.355l.879.878c115.45 121.4 206.612 217.262 334.25 227.722a2 2 0 0 1-.162 3.993z" fill="#fff"/><path d="M717.1 762.1a2 2 0 0 1-1.875-2.7l81.2-218.5a2 2 0 1 1 3.749 1.392l-81.2 218.5a2 2 0 0 1-1.874 1.308zm365.8-221.4a1.993 1.993 0 0 1-1.424-.6l-133.6-135.4a2 2 0 1 1 2.848-2.808l133.6 135.4a2 2 0 0 1-1.424 3.4z" fill="#fff"/><path d="M1258.4 437H980.6a2 2 0 1 1 0-4h277.8a2 2 0 0 1 0 4zM729.1 729.8H349.2a2 2 0 0 1 0-4h379.9a2 2 0 1 1 0 4z" fill="#fff"/><path d="M1676.3 885.1a22.735 22.735 0 0 0-22.2-17.8h-2.9a22.969 22.969 0 0 0-21.4-14.8h-60.7l-154.8-504c-.3-1-.6-2.1-1-3.1-35.8-113.7-89.9-146.5-114.1-156.5-80.7 24.8-88.2 116.4-58.1 214.4l138.7 451c10 34.1 13.7 79.3 82.8 85.6a20.972 20.972 0 0 0 5.6.7h80.2a23.031 23.031 0 0 0 19.4-10.6h101.9a22.982 22.982 0 0 0 23-22.9 23.1 23.1 0 0 0-16.4-22z" fill="#fff6cc"/><path d="M1651.2 869.2a2 2 0 0 1-1.877-1.31 20.814 20.814 0 0 0-19.523-13.49h-60.7a2 2 0 0 1 0-4h60.7a24.827 24.827 0 0 1 23.277 16.11 2 2 0 0 1-1.877 2.691z" fill="#231e40"/><path d="M1676.2 887.1a2 2 0 0 1-1.948-1.556 20.869 20.869 0 0 0-20.268-16.244l-79.395-.5a2 2 0 0 1 .012-4h.014l79.4.5a24.859 24.859 0 0 1 24.138 19.356 2 2 0 0 1-1.952 2.444z" fill="#231e40"/><path d="M1692.7 909.2a2 2 0 0 1-2-2 20.974 20.974 0 0 0-20.9-21h-90.5a2 2 0 0 1 0-4h90.5a24.978 24.978 0 0 1 24.9 25 2 2 0 0 1-2 2zM1567.8 932a2 2 0 0 1-1.669-3.1 20.6 20.6 0 0 0 3.271-11.2 20.974 20.974 0 0 0-20.9-21h-55.7a2 2 0 0 1 0-4h55.7a24.978 24.978 0 0 1 24.9 25 24.3 24.3 0 0 1-3.929 13.4 2 2 0 0 1-1.673.9z" fill="#231e40"/></svg></g><g transform="translate(395.0 257.0) rotate(0.0 162.0 70.0) scale(0.4546277314497152 0.4551794544999366)"><svg width="712.671" height="307.571" viewBox="0 0 712.671 307.571"><path d="M3 272.765h183.328v32.127H3z" fill="#fff"/><path d="M186.328 306.893H3a2 2 0 0 1-2-2v-32.127a2 2 0 0 1 2-2h183.328a2 2 0 0 1 2 2v32.127a2 2 0 0 1-2 2zM5 302.893h179.328v-28.127H5z" fill="#231e40"/><path d="M586.21 304.893h-422L284.21 3h422z" fill="#fff"/><path d="M586.21 306.893h-422a2 2 0 0 1-1.859-2.739l120-301.893A2 2 0 0 1 284.21 1h422a2 2 0 0 1 1.858 2.739l-120 301.893a2 2 0 0 1-1.858 1.261zm-419.053-4h417.695L703.262 5H285.567z" fill="#231e40"/><circle cx="435.21" cy="153.946" fill="#fd7ce8" r="27.927"/></svg></g><g transform="translate(344.0 276.0) rotate(-42.188356876684956 -27.0 27.0) scale(-0.5654450261780105 0.5648535564853557)"><svg width="95.5" height="95.6" viewBox="0 0 95.5 95.6"><path d="M0 47.8a47.779 47.779 0 1 0 18.4-37.7A47.8 47.8 0 0 0 0 47.8z" fill="#fff6cc"/><path d="M18.4 10.2A84.125 84.125 0 0 0 93.7 61 47.893 47.893 0 0 0 47.7.1a47.067 47.067 0 0 0-29.3 10.1z" fill="#231e40"/></svg></g><g transform="translate(290.0 183.0) rotate(-13.566838210719217 -69.0 60.0) scale(-0.6502440771246019 0.6485504896556197)"><svg width="212.228" height="185.028" viewBox="0 0 212.228 185.028"><g fill="#231e40"><path d="M205.763 137.336c-14.6 19.7-50.2 18.9-85.2.2 1.5 8 .4 15.4-3.8 21-9.6 12.9-32.4 13-55.6 1.7a20.354 20.354 0 0 1-2.3 14.1c-6.8 11.7-24.5 14.2-39.6 5.5s-21.8-25.3-15-37c4.1-7.1 12.1-10.8 21.1-10.7-14.5-17.8-19.4-37.3-10.6-49.2 8.2-11 25.9-12.7 45.4-6-8.3-18.1-9-35.5-.1-47.6 17.3-23.3 63.8-18 104 11.8 40.4 29.9 59 72.9 41.7 96.2z"/><path d="M36.461 144.436a2 2 0 0 1-1.192-.4c-13.858-10.307-24.74-22.949-30.643-35.6-6.1-13.057-6.19-24.636-.268-32.6S21.4 64.593 35.644 66.618c13.832 1.967 29.072 8.719 42.912 19.013a2 2 0 1 1-2.387 3.21c-13.314-9.9-27.906-16.388-41.088-18.262-12.728-1.81-22.5.907-27.513 7.65-10.618 14.282 2.88 42.365 30.088 62.6a2 2 0 0 1-1.2 3.605z"/><path d="M94.661 116.236a1.992 1.992 0 0 1-1.189-.393C73.746 101.22 58.49 83 50.514 64.542c-8.136-18.831-7.765-35.735 1.043-47.6 15.218-20.608 57.367-22.615 92.037-4.378a2 2 0 1 1-1.862 3.54C108.71-1.264 68.887.21 54.772 19.324 46.847 30 46.64 45.49 54.186 62.955c7.7 17.823 22.5 35.464 41.668 49.674a2 2 0 0 1-1.193 3.607z"/></g></svg></g><g transform="translate(342.0 29.0) rotate(0.0 172.5 65.5) scale(0.714025531069424 0.7138847866247419)"><svg width="483.176" height="183.503" viewBox="0 0 483.176 183.503"><g fill="#231e40"><path d="M240.743 180.994a2.18 2.18 0 0 1-1.719-3.481c.418-.565 10.482-13.993 30.817-27.429 18.729-12.376 50.044-26.996 92.865-26.366 42.794.63 72.781 14.705 90.401 26.4 19.166 12.721 28.071 25.17 28.439 25.693a2.182 2.182 0 0 1-3.565 2.519c-.087-.123-8.915-12.422-27.472-24.697-17.109-11.318-46.242-24.939-87.869-25.552-41.619-.613-72.041 13.549-90.235 25.538-19.752 13.015-29.778 26.36-29.877 26.493a2.175 2.175 0 0 1-1.785.882z"/><path d="M432.892 179.588a2.184 2.184 0 0 1-2.151-2.214l.528-35.86a2.184 2.184 0 0 1 4.366.064l-.528 35.86a2.184 2.184 0 0 1-2.215 2.15zm-14.395.105a2.184 2.184 0 0 1-2.151-2.214l.616-41.849a2.184 2.184 0 0 1 4.366.064l-.616 41.849a2.183 2.183 0 0 1-2.215 2.15zm43.293-.313a2.184 2.184 0 0 1-2.151-2.214l.262-17.816a2.184 2.184 0 0 1 4.366.064l-.262 17.815a2.183 2.183 0 0 1-2.215 2.151zm-14.449.103a2.184 2.184 0 0 1-2.151-2.214l.412-27.994a2.184 2.184 0 0 1 4.366.064l-.412 27.994a2.183 2.183 0 0 1-2.215 2.15zm-72.715.534a2.184 2.184 0 0 1-2.151-2.214l.755-51.329a2.184 2.184 0 0 1 4.366.064l-.755 51.329a2.183 2.183 0 0 1-2.215 2.15zm-14.384.106a2.184 2.184 0 0 1-2.151-2.214l.766-52.039a2.184 2.184 0 0 1 4.366.064l-.766 52.038a2.185 2.185 0 0 1-2.215 2.151zm43.282-.313a2.184 2.184 0 0 1-2.151-2.214l.684-46.464a2.184 2.184 0 0 1 4.366.064l-.684 46.464a2.184 2.184 0 0 1-2.215 2.15zm-14.448.104a2.184 2.184 0 0 1-2.151-2.214l.728-49.497a2.184 2.184 0 0 1 4.366.064l-.728 49.497a2.184 2.184 0 0 1-2.215 2.15zm-73.686.531a2.184 2.184 0 0 1-2.151-2.214l.687-46.661a2.184 2.184 0 0 1 4.366.064l-.687 46.661a2.184 2.184 0 0 1-2.215 2.15zm-14.384.104a2.184 2.184 0 0 1-2.151-2.214l.619-42.089a2.184 2.184 0 0 1 4.366.064l-.619 42.089a2.183 2.183 0 0 1-2.215 2.15zm43.282-.312a2.184 2.184 0 0 1-2.151-2.214l.758-51.536a2.184 2.184 0 0 1 4.366.064l-.758 51.536a2.184 2.184 0 0 1-2.215 2.15zm-14.45.103a2.184 2.184 0 0 1-2.151-2.214l.733-49.792a2.184 2.184 0 0 1 4.366.064l-.733 49.792a2.183 2.183 0 0 1-2.215 2.15zm-72.703.534a2.184 2.184 0 0 1-2.151-2.214l.245-16.637a2.184 2.184 0 0 1 4.366.064l-.245 16.637a2.183 2.183 0 0 1-2.215 2.15zm28.897-.207a2.184 2.184 0 0 1-2.151-2.214l.524-35.587a2.184 2.184 0 0 1 4.366.064l-.524 35.587a2.183 2.183 0 0 1-2.215 2.15zm-14.449.104a2.184 2.184 0 0 1-2.151-2.214l.402-27.318a2.184 2.184 0 0 1 4.366.064l-.402 27.318a2.183 2.183 0 0 1-2.215 2.15z"/><path d="M240.951 177.617a2.181 2.181 0 0 1-2.123-1.86c-.104-.696-2.483-17.307 2.394-41.186 4.493-21.995 16.297-54.475 47.022-84.309 30.706-29.815 61.862-41.067 82.592-45.256 22.549-4.556 37.645-2.05 38.278-1.942a2.18 2.18 0 0 1 1.779 2.519 2.18 2.18 0 0 1-2.519 1.782c-.148-.025-15.088-2.479-36.888 1.962-20.101 4.095-50.333 15.064-80.202 44.066-57.24 55.581-48.238 121.066-48.14 121.722a2.182 2.182 0 0 1-2.193 2.502z"/><path d="M375.828 40.754a2.168 2.168 0 0 1-1.533-.662l-24.983-25.729a2.182 2.182 0 1 1 3.131-3.041l24.983 25.729a2.182 2.182 0 0 1-1.598 3.703zm-10.104 10.252a2.168 2.168 0 0 1-1.533-.662l-29.157-30.027a2.182 2.182 0 1 1 3.131-3.041l29.157 30.027a2.182 2.182 0 0 1-1.598 3.703zm30.391-30.833a2.168 2.168 0 0 1-1.533-.662L382.17 6.728a2.182 2.182 0 1 1 3.131-3.041l12.412 12.783a2.182 2.182 0 0 1-1.598 3.703zm-10.144 10.29a2.168 2.168 0 0 1-1.533-.662L364.934 9.715a2.182 2.182 0 1 1 3.131-3.041l19.504 20.086a2.182 2.182 0 0 1-1.598 3.703zm-51.038 51.795a2.168 2.168 0 0 1-1.533-.662l-35.762-36.83a2.182 2.182 0 1 1 3.131-3.041l35.762 36.83a2.182 2.182 0 0 1-1.598 3.703zm-10.098 10.244a2.168 2.168 0 0 1-1.533-.662l-36.255-37.339a2.182 2.182 0 1 1 3.131-3.041l36.255 37.34a2.182 2.182 0 0 1-1.598 3.702zm30.384-30.825a2.168 2.168 0 0 1-1.533-.662l-32.371-33.339a2.182 2.182 0 1 1 3.131-3.041l32.371 33.339a2.182 2.182 0 0 1-1.598 3.703zm-10.143 10.291a2.168 2.168 0 0 1-1.533-.662l-34.485-35.515a2.182 2.182 0 1 1 3.131-3.041l34.485 35.515a2.182 2.182 0 0 1-1.598 3.703zm-51.729 52.478a2.168 2.168 0 0 1-1.533-.662l-32.509-33.48a2.182 2.182 0 1 1 3.131-3.041l32.509 33.48a2.182 2.182 0 0 1-1.598 3.703zm-10.097 10.245a2.168 2.168 0 0 1-1.533-.662l-29.324-30.2a2.182 2.182 0 1 1 3.131-3.041l29.324 30.2a2.182 2.182 0 0 1-1.598 3.703zm30.384-30.825a2.168 2.168 0 0 1-1.533-.662l-35.906-36.978a2.182 2.182 0 1 1 3.131-3.041l35.906 36.978a2.182 2.182 0 0 1-1.598 3.703zm-10.143 10.29a2.168 2.168 0 0 1-1.533-.662l-34.69-35.726a2.182 2.182 0 1 1 3.131-3.041l34.69 35.726a2.182 2.182 0 0 1-1.598 3.703zm-51.033 51.787a2.168 2.168 0 0 1-1.533-.662l-11.592-11.938a2.182 2.182 0 1 1 3.131-3.041l11.592 11.938a2.182 2.182 0 0 1-1.598 3.703zm20.288-20.581a2.168 2.168 0 0 1-1.533-.662l-24.794-25.535a2.182 2.182 0 1 1 3.131-3.041l24.794 25.535a2.182 2.182 0 0 1-1.598 3.703zm-10.143 10.29a2.168 2.168 0 0 1-1.533-.662l-19.032-19.601a2.182 2.182 0 1 1 3.131-3.041l19.032 19.601a2.182 2.182 0 0 1-1.598 3.703zM.856 179.969a2.181 2.181 0 0 1-1.72-3.481c.418-.565 10.482-13.993 30.817-27.429 18.729-12.376 50.044-26.996 92.865-26.365 42.794.63 72.781 14.705 90.401 26.4 19.166 12.721 28.071 25.169 28.439 25.692a2.182 2.182 0 0 1-3.565 2.519c-.087-.123-8.915-12.422-27.472-24.696-17.109-11.319-46.242-24.939-87.87-25.552-79.775-1.174-119.714 51.497-120.109 52.029a2.174 2.174 0 0 1-1.786.883z"/><path d="M193.005 178.563a2.184 2.184 0 0 1-2.151-2.214l.528-35.86a2.184 2.184 0 0 1 4.366.064l-.528 35.86a2.184 2.184 0 0 1-2.215 2.15zm-14.395.105a2.184 2.184 0 0 1-2.151-2.214l.616-41.849a2.184 2.184 0 0 1 4.366.064l-.616 41.849a2.184 2.184 0 0 1-2.215 2.15zm43.292-.312a2.184 2.184 0 0 1-2.151-2.214l.262-17.815a2.184 2.184 0 0 1 4.366.064l-.262 17.815a2.184 2.184 0 0 1-2.215 2.15zm-14.448.103a2.184 2.184 0 0 1-2.151-2.214l.412-27.994a2.184 2.184 0 0 1 4.366.064l-.412 27.994a2.183 2.183 0 0 1-2.215 2.15zm-72.714.534a2.184 2.184 0 0 1-2.151-2.214l.755-51.33a2.184 2.184 0 0 1 4.366.064l-.755 51.33a2.184 2.184 0 0 1-2.215 2.15zm-14.385.105a2.184 2.184 0 0 1-2.151-2.214l.766-52.039a2.184 2.184 0 0 1 4.366.064l-.766 52.039a2.183 2.183 0 0 1-2.215 2.15zm43.282-.313a2.184 2.184 0 0 1-2.151-2.214l.684-46.465a2.184 2.184 0 0 1 4.366.064l-.684 46.465a2.183 2.183 0 0 1-2.215 2.15zm-14.448.105a2.184 2.184 0 0 1-2.151-2.214l.728-49.498a2.184 2.184 0 0 1 4.366.064l-.728 49.498a2.184 2.184 0 0 1-2.215 2.15zm-73.687.529a2.184 2.184 0 0 1-2.151-2.214l.687-46.661a2.184 2.184 0 0 1 4.366.064l-.687 46.661a2.183 2.183 0 0 1-2.215 2.15zm-14.383.106a2.184 2.184 0 0 1-2.151-2.214l.619-42.089a2.184 2.184 0 0 1 4.366.064l-.619 42.089a2.183 2.183 0 0 1-2.215 2.15zm43.282-.312a2.184 2.184 0 0 1-2.151-2.214l.758-51.537a2.184 2.184 0 0 1 4.366.064l-.758 51.537a2.184 2.184 0 0 1-2.215 2.15zm-14.45.103a2.184 2.184 0 0 1-2.151-2.214l.733-49.792a2.184 2.184 0 0 1 4.366.064l-.733 49.792a2.183 2.183 0 0 1-2.215 2.15zm-72.704.534a2.184 2.184 0 0 1-2.151-2.214l.245-16.637a2.184 2.184 0 0 1 4.366.064l-.245 16.637a2.183 2.183 0 0 1-2.215 2.15zm28.898-.208a2.184 2.184 0 0 1-2.151-2.214l.524-35.587a2.184 2.184 0 0 1 4.366.064l-.524 35.587a2.181 2.181 0 0 1-2.215 2.15zm-14.449.105a2.184 2.184 0 0 1-2.151-2.214l.402-27.318a2.184 2.184 0 0 1 4.366.064l-.402 27.318a2.183 2.183 0 0 1-2.215 2.15z"/><path d="M242.211 176.736a2.182 2.182 0 0 1-2.122-2.55c.025-.149 2.479-15.087-1.961-36.888-4.096-20.102-15.065-50.333-44.066-80.202C138.481-.145 72.996 8.858 72.341 8.955a2.181 2.181 0 1 1-.643-4.317c.696-.104 17.309-2.483 41.187 2.395 21.995 4.492 54.475 16.297 84.309 47.022 29.815 30.706 41.067 61.862 45.256 82.592 4.557 22.548 2.05 37.645 1.942 38.278a2.183 2.183 0 0 1-2.181 1.811z"/><path d="M208.851 143.853a2.182 2.182 0 0 1-1.488-3.748l25.73-24.984a2.182 2.182 0 1 1 3.041 3.131l-25.73 24.984a2.18 2.18 0 0 1-1.553.617zm-10.253-10.105A2.182 2.182 0 0 1 197.11 130l30.027-29.156a2.182 2.182 0 1 1 3.041 3.131l-30.027 29.156a2.174 2.174 0 0 1-1.553.617zm30.834 30.392a2.182 2.182 0 0 1-1.488-3.748l12.783-12.412a2.182 2.182 0 1 1 3.041 3.131l-12.783 12.412a2.18 2.18 0 0 1-1.553.617zm-10.291-10.144a2.182 2.182 0 0 1-1.488-3.748l20.087-19.504a2.182 2.182 0 1 1 3.041 3.131l-20.087 19.504a2.171 2.171 0 0 1-1.553.617zm-51.795-51.039a2.182 2.182 0 0 1-1.488-3.748l36.83-35.762a2.182 2.182 0 1 1 3.041 3.131l-36.83 35.762c-.433.42-.994.625-1.553.617zM157.101 92.86a2.182 2.182 0 0 1-1.488-3.748l37.339-36.255a2.182 2.182 0 1 1 3.041 3.131l-37.339 36.255a2.172 2.172 0 0 1-1.553.617zm30.827 30.385a2.182 2.182 0 0 1-1.488-3.748l33.338-32.372a2.182 2.182 0 1 1 3.041 3.131l-33.338 32.372c-.433.42-.994.625-1.553.617zm-10.291-10.144a2.182 2.182 0 0 1-1.488-3.748l35.515-34.485a2.182 2.182 0 1 1 3.041 3.131l-35.515 34.484a2.172 2.172 0 0 1-1.553.618zm-52.48-51.729a2.182 2.182 0 0 1-1.488-3.748l33.48-32.509a2.182 2.182 0 1 1 3.041 3.131l-33.48 32.509a2.17 2.17 0 0 1-1.553.617zm-10.243-10.096a2.182 2.182 0 0 1-1.488-3.748l30.2-29.324a2.182 2.182 0 1 1 3.041 3.131l-30.2 29.324a2.18 2.18 0 0 1-1.553.617zm30.825 30.383a2.182 2.182 0 0 1-1.488-3.748l36.978-35.906a2.182 2.182 0 1 1 3.041 3.131l-36.978 35.906a2.17 2.17 0 0 1-1.553.617zm-10.29-10.143a2.182 2.182 0 0 1-1.488-3.748l35.725-34.69a2.182 2.182 0 1 1 3.041 3.131l-35.725 34.689a2.176 2.176 0 0 1-1.553.618zM83.661 20.483a2.182 2.182 0 0 1-1.488-3.748L94.11 5.145a2.182 2.182 0 1 1 3.041 3.131L85.213 19.867a2.163 2.163 0 0 1-1.552.616zm20.581 20.288a2.182 2.182 0 0 1-1.488-3.748l25.534-24.794a2.182 2.182 0 1 1 3.041 3.131l-25.534 24.794a2.168 2.168 0 0 1-1.553.617zM93.951 30.628a2.182 2.182 0 0 1-1.488-3.748l19.601-19.033a2.182 2.182 0 1 1 3.041 3.131L95.504 30.011c-.433.42-.994.625-1.553.617z"/></g></svg></g><g transform="translate(410.0 607.0) rotate(0.0 -68.0 77.5) scale(-0.5726315789473684 0.5725895825637237)"><svg width="237.5" height="270.7" viewBox="0 0 237.5 270.7"><g fill="#231e40"><path d="M185.7 99.4a2 2 0 0 1-2-2V58.3H4v39.1a2 2 0 0 1-4 0V56.3a2 2 0 0 1 2-2h183.7a2 2 0 0 1 2 2v41.1a2 2 0 0 1-2 2zM93.9 270.7a2 2 0 0 1-2-2v-56.5a2 2 0 0 1 4 0v56.5a2 2 0 0 1-2 2z"/><path d="M144.8 270.7H42.9a2 2 0 1 1 0-4h101.9a2 2 0 0 1 0 4z"/></g><path d="M110.2 212.2H77.4A77.4 77.4 0 0 1 0 134.8V96.5h187.5v38.3a77.183 77.183 0 0 1-77.3 77.4z" fill="#fff23d"/><path d="M93.9 206.3a2 2 0 0 1-1.919-2.567l32.2-109a2 2 0 1 1 3.836 1.132l-32.2 109A2 2 0 0 1 93.9 206.3z" fill="#fff"/><path d="M126.1 97.3a2 2 0 0 1-1.919-2.568l27.6-93.3A2 2 0 0 1 153.7 0h81.8a2 2 0 0 1 0 4h-80.3l-27.182 91.867A2 2 0 0 1 126.1 97.3z" fill="#231e40"/></svg></g></svg>