<svg xmlns="http://www.w3.org/2000/svg" version="1.1" viewBox="0 0 3000 3000" width="3000" height="3000">
<defs/><!--ITEM: Illustration component 1--><g transform="translate(2170.0 1220.0) rotate(97.09232660789077 56.0 112.0)  scale(2.061893628380493 2.061893628380493)"><svg width="54.319" height="108.638" viewBox="0.0 0.0 54.319 108.638"><path d="m54.319 54.319c0-29.999-24.319-54.319-54.319-54.319v108.638c30 0 54.319-24.319 54.319-54.319z" fill="rgb(255,246,204)"/></svg></g><!--ITEM: Illustration component 2--><g transform="translate(124.0 646.0) rotate(0.0 1255.0 1066.0)  scale(1.726880442081393 1.7266261627596216)"><svg width="1453.488" height="1234.778" viewBox="0.0 0.0 1453.488 1234.778"><path d="m966.657 134.926-188.229 38.574-29.338 6.018 59.997-168.644c37.826 8.796 68.346 26.478 93.365 47.874 27.1 23.199 47.718 50.753 64.143 76.079.024.033.037.067.062.099z" fill="#fff6cc"/><path d="m940.433 100.916 102.056 133.954 158.413-92.266c33.229-21.173 49.126-47.336 60.767-72.389l5.075-11.033c5.862-12.677 20.892-18.202 33.569-12.339s18.201 20.892 12.339 33.569l-18.559 40.347 134.754 3.457c13.963.358 24.991 11.968 24.633 25.93-.358 13.963-11.967 24.991-25.93 24.633 13.963.358 24.991 11.968 24.633 25.93-.358 13.963-11.968 24.991-25.93 24.633 13.962.358 24.991 11.968 24.633 25.93-.358 13.963-11.968 24.991-25.93 24.633 13.962.358 24.991 11.968 24.633 25.93s-11.968 24.991-25.93 24.633l-73.799-1.893c-20.409-.523-44.346 7.187-83.967 30.332l.148-.233-91.632 53.363-72.79 42.527c-65.737 38.407-149.793 21.774-195.949-38.774l-.189-.248c-.001-.001-.001-.001-.001-.001l-50.98-66.872-90.508-118.716z" fill="#fff6cc"/><path d="m1331.341 299.932c-.018 0-.035 0-.053-.001-1.104-.028-1.976-.946-1.947-2.051l3.892-151.69c.027-1.086.917-1.948 1.998-1.948.018 0 .035 0 .053.001 1.104.028 1.976.946 1.947 2.051l-3.892 151.69c-.027 1.086-.917 1.948-1.998 1.948z" fill="#231e40"/><path d="m1427.55 176.781c-.018 0-.035 0-.053-.001l-92.988-2.386c-1.104-.028-1.976-.946-1.947-2.051.027-1.104.934-2.016 2.051-1.947l92.988 2.386c1.104.028 1.976.946 1.947 2.051-.027 1.085-.917 1.948-1.998 1.948z" fill="#231e40"/><path d="m1426.254 227.344c-.018 0-.035 0-.053-.001l-91.715-2.353c-1.104-.028-1.976-.946-1.947-2.051.027-1.104.957-2.015 2.051-1.947l91.715 2.353c1.104.028 1.976.946 1.947 2.051-.028 1.086-.917 1.948-1.998 1.948z" fill="#231e40"/><path d="m1424.956 277.907c-.018 0-.035 0-.053-.001l-92.988-2.386c-1.104-.028-1.976-.946-1.947-2.051.027-1.086.917-1.948 1.998-1.948.018 0 .035 0 .053.001l92.988 2.386c1.104.028 1.976.946 1.947 2.051-.028 1.086-.917 1.948-1.998 1.948z" fill="#231e40"/><path d="m1259.693 199.079c-.167 0-.331-.001-.498-.003-1.104-.012-1.99-.917-1.979-2.021.012-1.097.905-1.979 2-1.979h.021c13.77.16 26.851-6.431 34.921-17.598 11.704-16.192 10.671-37.958-2.515-52.93-.729-.829-.649-2.093.179-2.823.829-.731 2.093-.65 2.823.179 14.428 16.384 15.561 40.2 2.755 57.918-8.731 12.084-22.799 19.256-37.707 19.257z" fill="#231e40"/><path d="m1003.297 257.154c-.688 0-1.357-.354-1.729-.991-.558-.954-.236-2.179.718-2.735l37.818-22.088c.955-.557 2.18-.236 2.735.718.558.954.236 2.179-.718 2.735l-37.818 22.088c-.316.185-.663.273-1.006.273z" fill="#231e40"/><path d="m952.719 229.588h-412.358l18.618-59.981c25.707-82.091 21.263-131.811 3.809-162.807 50.143-5.818 119.857-9.838 203.64-3.808 40.728 2.962 74.58 13.223 101.979 31.419 1.481.952 2.856 2.01 4.337 2.962 13.916 10.09 26.13 22.34 36.179 36.285.846 1.164 1.693 2.327 2.433 3.491 9.129 13.486 16.622 28.011 22.321 43.267 1.269 3.279 2.433 6.665 3.597 10.05.317.952.635 1.904.952 2.75 5.894 18.518 9.656 37.648 11.213 57.019z" fill="#fd7ce8"/><g fill="#fff"><path d="m582.464 196.582c-.559-.005-1.092-.234-1.481-.635-.818-.779-.85-2.073-.071-2.891.023-.024.047-.048.071-.071l12.377-12.377c.826-.81 2.152-.796 2.962.03.798.814.798 2.117 0 2.932l-12.271 12.377c-.419.422-.993.652-1.587.635z"/><path d="m741.039 196.582c-.559-.005-1.092-.234-1.481-.635-.818-.779-.85-2.073-.071-2.891.023-.024.047-.048.071-.071l12.377-12.377c.81-.826 2.136-.84 2.962-.03s.84 2.136.03 2.962c-.01.01-.02.02-.03.03l-12.377 12.377c-.389.402-.922.63-1.481.635z"/><path d="m661.804 196.582c-.559-.005-1.092-.234-1.481-.635-.818-.779-.85-2.073-.071-2.891.023-.024.047-.048.071-.071l12.377-12.377c.826-.81 2.152-.796 2.962.03.798.814.798 2.117 0 2.932l-12.377 12.377c-.389.402-.922.63-1.481.635z"/><path d="m820.274 196.582c-.559-.005-1.092-.234-1.481-.635-.818-.779-.85-2.073-.071-2.891.023-.024.047-.048.071-.071l12.377-12.377c.81-.826 2.136-.84 2.962-.03s.84 2.136.03 2.962c-.01.01-.02.02-.03.03l-12.377 12.377c-.389.402-.923.63-1.481.635z"/><path d="m899.508 196.582c-.559-.005-1.092-.234-1.481-.635-.818-.779-.85-2.073-.071-2.891.023-.024.047-.048.071-.071l12.377-12.377c.81-.826 2.136-.84 2.962-.03s.84 2.136.03 2.962c-.01.01-.02.02-.03.03l-12.377 12.377c-.389.402-.922.63-1.481.635z"/><path d="m713.746 145.91c-.559-.005-1.092-.234-1.481-.635l-12.377-12.377c-.81-.826-.796-2.152.03-2.962.814-.798 2.117-.798 2.932 0l12.377 12.377c.818.779.85 2.073.071 2.891-.023.024-.047.048-.071.071-.389.402-.922.63-1.481.635z"/><path d="m634.511 145.91c-.559-.005-1.092-.234-1.481-.635l-12.377-12.377c-.81-.826-.796-2.152.03-2.962.814-.798 2.117-.798 2.932 0l12.377 12.377c.818.779.85 2.073.071 2.891-.023.024-.047.048-.071.071-.389.402-.922.63-1.481.635z"/><path d="m792.98 145.91c-.559-.005-1.092-.234-1.481-.635l-12.377-12.377c-.81-.826-.796-2.152.03-2.962.814-.798 2.117-.798 2.932 0l12.377 12.377c.818.779.85 2.073.071 2.891-.023.024-.047.048-.071.071-.388.402-.922.63-1.481.635z"/><path d="m872.215 145.91c-.559-.005-1.092-.234-1.481-.635l-12.377-12.377c-.826-.81-.84-2.136-.03-2.962s2.136-.84 2.962-.03c.01.01.02.02.03.03l12.377 12.377c.818.779.85 2.073.071 2.891-.023.024-.047.048-.071.071-.389.402-.922.63-1.481.635z"/><path d="m582.464 88.15c-.559-.005-1.092-.234-1.481-.635-.818-.779-.85-2.073-.071-2.891.023-.024.047-.048.071-.071l12.377-12.377c.826-.81 2.152-.796 2.962.03.798.814.798 2.117 0 2.932l-12.377 12.377c-.364.437-.914.673-1.481.635z"/><path d="m741.039 88.15c-.559-.005-1.092-.234-1.481-.635-.818-.779-.85-2.073-.071-2.891.023-.024.047-.048.071-.071l12.377-12.377c.81-.826 2.136-.84 2.962-.03s.84 2.136.03 2.962c-.01.01-.02.02-.03.03l-12.377 12.378c-.389.401-.922.63-1.481.634z"/><path d="m661.804 88.15c-.559-.005-1.092-.234-1.481-.635-.818-.779-.85-2.073-.071-2.891.023-.024.047-.048.071-.071l12.377-12.376c.826-.81 2.152-.796 2.962.03.798.814.798 2.117 0 2.932l-12.377 12.377c-.388.401-.922.63-1.481.634z"/><path d="m820.274 88.15c-.559-.005-1.092-.234-1.481-.635-.818-.779-.85-2.073-.071-2.891.023-.024.047-.048.071-.071l12.377-12.377c.826-.81 2.152-.796 2.962.03.798.814.798 2.117 0 2.932l-12.377 12.377c-.389.402-.923.631-1.481.635z"/><path d="m911.251 77.254-10.261 10.261c-.779.818-2.073.85-2.891.071-.024-.023-.048-.047-.071-.071-.818-.779-.85-2.073-.071-2.891.023-.024.047-.048.071-.071l10.79-10.79c.846 1.058 1.586 2.328 2.433 3.491z"/><path d="m713.746 37.478c-.559-.005-1.092-.234-1.481-.635l-12.377-12.377c-.809-.826-.796-2.153.031-2.962.814-.798 2.117-.798 2.931 0l12.377 12.377c.818.779.85 2.073.071 2.891-.023.024-.047.048-.071.071-.389.402-.922.631-1.481.635z"/><path d="m634.511 37.478c-.559-.005-1.092-.234-1.481-.635l-12.377-12.377c-.809-.826-.796-2.153.031-2.962.814-.798 2.117-.798 2.931 0l12.377 12.377c.818.779.85 2.073.071 2.891-.023.024-.047.048-.071.071-.389.402-.922.631-1.481.635z"/><path d="m792.98 37.478c-.559-.005-1.092-.234-1.481-.635l-12.377-12.377c-.81-.826-.796-2.153.031-2.962.814-.798 2.117-.798 2.931 0l12.377 12.377c.818.779.85 2.073.071 2.891-.023.024-.047.048-.071.071-.388.402-.922.631-1.481.635z"/><path d="m872.638 37.373h-.423c-.559-.005-1.092-.234-1.481-.635l-2.433-2.433c1.481 1.058 2.856 2.01 4.337 3.068z"/></g><path d="m946.266 1000.459h-344.02l92.881-510.846-196.129 510.846h-357.561l259.496-574.319 65.588-196.658h486.304c.846 10.579 1.587 21.581 2.01 33.006 3.914 104.941 7.193 520.473-8.569 737.971z" fill="#7b60c4"/><path d="m954.412 257.834h-496.671c-1.168 0-2.116-.947-2.116-2.116 0-1.168.947-2.116 2.116-2.116h496.671c1.168 0 2.116.947 2.116 2.116-.001 1.169-.948 2.116-2.116 2.116z" fill="#fff"/><path d="m740.722 338.762c-.245-.001-.488-.043-.718-.126-1.099-.398-1.667-1.611-1.269-2.709l38.612-107.057c.396-1.1 1.609-1.67 2.709-1.273 1.099.396 1.669 1.609 1.273 2.709l-38.612 107.057c-.304.841-1.102 1.401-1.995 1.399z" fill="#fff"/><path d="m547.025 304.168h-104.729c-1.169 0-2.116-.947-2.116-2.116 0-1.168.947-2.116 2.116-2.116h104.729c20.372-.015 38.558-12.773 45.508-31.922l14.176-39.141c.398-1.099 1.611-1.668 2.71-1.27s1.668 1.611 1.27 2.71l-14.176 39.141c-7.559 20.823-27.335 34.696-49.488 34.714z" fill="#fff"/><path d="m768.438 306.389h-15.974c-1.168 0-2.116-.947-2.116-2.116 0-1.168.947-2.116 2.116-2.116h15.974c8.824.005 16.702-5.526 19.694-13.827l21.475-59.461c.402-1.097 1.617-1.661 2.714-1.259 1.09.399 1.655 1.603 1.265 2.697l-21.475 59.452c-3.594 9.981-13.065 16.634-23.673 16.63z" fill="#fff"/><path d="m509.048 976.445h-355.868c-1.168 0-2.116-.947-2.116-2.116s.947-2.116 2.116-2.116h355.868c1.168 0 2.116.947 2.116 2.116s-.948 2.116-2.116 2.116z" fill="#fff"/><path d="m948.064 976.445h-341.057c-1.168 0-2.116-.947-2.116-2.116s.947-2.116 2.116-2.116h341.058c1.168 0 2.116.947 2.116 2.116s-.948 2.116-2.117 2.116z" fill="#fff"/><path d="m460.703 1000.459-61.78 134.561h-281.817l61.568-134.561z" fill="#fff6cc"/><path d="m9.309 1216.265h343.279c6.264-.01 11.938-3.696 14.493-9.415l36.814-83.254h-281.5s-76.907 40.305-113.404 78.917c-6.769 6.981-6.135 13.752.318 13.752z" fill="#231e40"/><path d="m129.801 1170.565c-.682.001-1.322-.327-1.72-.88l-25.177-35.016c-.682-.949-.466-2.271.482-2.953.949-.682 2.271-.466 2.954.482l25.177 35.016c.682.949.465 2.271-.484 2.953-.359.258-.79.397-1.232.397z" fill="#fff"/><path d="m110.336 1184.53c-.68.001-1.32-.325-1.718-.877l-26.341-36.497c-.684-.948-.471-2.27.477-2.955s2.27-.471 2.955.477l26.341 36.497c.684.947.471 2.27-.476 2.954-.361.26-.794.4-1.238.401z" fill="#fff"/><path d="m357.878 1234.778h-355.762c-1.168 0-2.116-.947-2.116-2.116s.947-2.116 2.116-2.116h355.762c1.168 0 2.116.947 2.116 2.116s-.948 2.116-2.116 2.116z" fill="#231e40"/><path d="m914.53 1000.459c-5.818 80.927-9.944 134.455-9.944 134.455h-272.931l13.223-134.455z" fill="#fff6cc"/><path d="m1018.307 1216.265h-382.315c-6.189-.026-11.185-5.065-11.158-11.254.001-.34.018-.679.051-1.018l8.251-80.504h272.19s76.907 40.305 113.404 78.917c6.665 7.088 6.03 13.859-.423 13.859z" fill="#231e40"/><path d="m897.921 1170.565c-1.168-.001-2.115-.95-2.113-2.118 0-.442.14-.873.398-1.232l25.177-35.016c.682-.949 2.005-1.165 2.954-.483s1.165 2.005.483 2.954l-25.177 35.016c-.399.553-1.04.88-1.722.879z" fill="#fff"/><path d="m917.386 1184.53c-1.168-.001-2.115-.949-2.114-2.117 0-.444.14-.877.401-1.237l26.341-36.497c.684-.948 2.007-1.162 2.955-.478s1.162 2.007.478 2.955l-26.341 36.497c-.399.551-1.039.878-1.72.877z" fill="#fff"/><path d="m1022.433 1234.778h-396.49c-1.168 0-2.116-.947-2.116-2.116s.947-2.116 2.116-2.116h396.49c1.168 0 2.116.947 2.116 2.116s-.948 2.116-2.116 2.116z" fill="#231e40"/><path d="m813.821 483.16s-.106.529-.317 1.481c-1.058 4.549-4.443 18.301-6.665 27.293-2.645 10.79-9.415 22.956-40.516 23.379l.212-1.058c-4.02 8.78-13.223 16.926-38.401 17.243l.423-1.904c-3.597 9.415-12.377 18.407-39.035 18.83l.106-.74c-.681.993-1.461 1.914-2.327 2.75-3.588 3.507-7.93 6.148-12.694 7.722-6.533 1.597-13.355 1.597-19.888 0-.846-.212-1.798-.423-2.645-.635-10.05-2.75-19.888-8.569-24.966-19.147l18.513-5.818c7.755-2.425 13.586-8.863 15.233-16.82l2.01-12.483s-81.773 22.638-180.155 54.375c-43.267 13.964-87.063 29.726-127.579 37.554-51.624 9.944-97.853 7.088-130.541-29.091-58.183-64.53-11.637-148.102 52.894-319.477 52.89-141.015 124.826-210.411 198.454-240.243h.106c15.375-6.221 31.318-10.934 47.604-14.07 11.213-1.798 24.331-3.703 39.141-5.395 13.118 23.273 18.936 57.125 10.156 107.268-3.452 18.785-8.081 37.334-13.858 55.538l-18.619 59.981-47.076 125.887c72.676-26.764 186.714-47.922 231.885-35.227 107.904 30.255 102.826 105.682 88.545 162.807z" fill="#fff6cc"/><path d="m396.067 390.914c-1.168 0-2.115-.948-2.115-2.117 0-.888.555-1.681 1.388-1.986l102.931-37.66c1.101-.39 2.311.186 2.701 1.288.384 1.085-.169 2.279-1.246 2.686l-102.931 37.66c-.233.086-.48.129-.728.129z" fill="#231e40"/><path d="m766.111 541.025c-.155 0-.31-.017-.461-.051-1.141-.254-1.86-1.384-1.606-2.525 0 0 0 0 0-.001l11.637-52.259c.201-1.151 1.297-1.922 2.448-1.721s1.922 1.297 1.721 2.448c-.011.065-.026.129-.043.192l-11.637 52.259c-.215.967-1.07 1.655-2.059 1.658z" fill="#231e40"/><path d="m728.45 556.576c-.155 0-.31-.017-.461-.051-1.14-.254-1.859-1.384-1.606-2.524l11.637-52.259c.307-1.127 1.47-1.793 2.597-1.486 1.054.287 1.716 1.329 1.529 2.405l-11.637 52.259c-.215.966-1.07 1.653-2.059 1.656z" fill="#231e40"/><path d="m689.415 572.338c-.155 0-.31-.017-.462-.05-1.141-.254-1.859-1.385-1.605-2.525v-.001l11.637-52.153c.305-1.128 1.466-1.795 2.594-1.491 1.058.286 1.723 1.333 1.531 2.412l-11.637 52.153c-.215.965-1.07 1.652-2.058 1.655z" fill="#231e40"/></svg></g><!--ITEM: Illustration component 3--><g transform="translate(1408.0 432.0) rotate(-22.50244879903404 -87.0 87.0)  scale(-1.8219895287958114 1.8200836820083683)"><svg width="95.5" height="95.6" viewBox="0.0 0.0 95.5 95.6"><path d="m0 47.8a47.779 47.779 0 1 0 18.4-37.7 47.8 47.8 0 0 0 -18.4 37.7z" fill="#fff6cc"/><path d="m18.4 10.2a84.125 84.125 0 0 0 75.3 50.8 47.893 47.893 0 0 0 -46-60.9 47.067 47.067 0 0 0 -29.3 10.1z" fill="#231e40"/></svg></g><!--ITEM: Illustration component 4--><g transform="translate(1618.0 1350.0) rotate(0.0 612.0 720.0) translate(464.0 0.0) scale(2.73672442705422 2.7353752402951166)"><svg width="268.93464052287584" height="526.436" viewBox="169.54575163398695 0.0 268.93464052287584 526.436"><path d="m1.82 0h442.93v526.436h-442.93z" fill="rgb(227,217,252)"/><path d="m444.75 70.736h-442.816a2 2 0 1 1 0-4h442.816a2 2 0 0 1 0 4z" fill="rgb(227,217,252)"/></svg></g><!--ITEM: Illustration component 5--><g transform="translate(1652.0 0.0) rotate(89.99999999999987 449.0 1441.0) translate(390.0 690.0) scale(1.9196237708422401 1.923513315090436)"><svg width="42.716703786191516" height="401.34892435808456" viewBox="203.1648106904232 358.7185981956974 42.716703786191516 401.34892435808456"><g fill="rgb(255,255,255)"><path d="m127.9 1498.2c-.1 0-.2 0-.3 0-1.1-.2-1.9-1.2-1.7-2.3l106-733.8v-405.1c0-1.1.9-2 2-2s2 .9 2 2v405.4.1l-106 734c-.2 1-1 1.7-2 1.7z"/><path d="m364.2 1498.2c-1 0-1.8-.7-2-1.7l-130.3-734c-.2-1.1.5-2.1 1.6-2.3s2.1.5 2.3 1.6l130.3 734c.2 1.1-.5 2.1-1.6 2.3-.1.1-.2.1-.3.1z"/><path d="m337 1344.9h-187c-1.1 0-2-.9-2-2s.9-2 2-2h187c1.1 0 2 .9 2 2s-.9 2-2 2z"/></g><path d="m378 0h-288.2l-89.8 357h90 287.8 90z" fill="#7b60c4"/><path d="m457.3 317.3h-446.8c-1.1 0-2-.9-2-2s.9-2 2-2h446.8c1.1 0 2 .9 2 2s-.9 2-2 2z" fill="#fff"/></svg></g><!--ITEM: Illustration component 6--><g transform="translate(2214.0 1548.0) rotate(0.0 244.0 142.0)  scale(2.7111111111111112 2.704761904761905)"><svg width="180.0" height="105.0" viewBox="0.0 0.0 180.0 105.0"><clipPath id="a-i6"><path d="m0 0h179.5v104.5h-179.5z" fill="#000000"/></clipPath><g clip-path="url(#a-i6)"><path d="m178 1.5h-176.5v101.5h176.5z" fill="rgb(227,217,252)" stroke="rgb(255,255,255)" stroke-miterlimit="10" stroke-width="3"/></g></svg></g><!--ITEM: Illustration component 7--><g transform="translate(2214.0 1936.0) rotate(0.0 244.0 142.0)  scale(2.7111111111111112 2.704761904761905)"><svg width="180.0" height="105.0" viewBox="0.0 0.0 180.0 105.0"><clipPath id="a-i7"><path d="m0 0h179.5v104.5h-179.5z" fill="#000000"/></clipPath><g clip-path="url(#a-i7)"><path d="m178 1.5h-176.5v101.5h176.5z" fill="rgb(227,217,252)" stroke="rgb(255,255,255)" stroke-miterlimit="10" stroke-width="3"/></g></svg></g><!--ITEM: Illustration component 8--><g transform="translate(2216.0 2336.0) rotate(0.0 244.0 142.0)  scale(2.7111111111111112 2.704761904761905)"><svg width="180.0" height="105.0" viewBox="0.0 0.0 180.0 105.0"><clipPath id="a-i8"><path d="m0 0h179.5v104.5h-179.5z" fill="#000000"/></clipPath><g clip-path="url(#a-i8)"><path d="m178 1.5h-176.5v101.5h176.5z" fill="rgb(227,217,252)" stroke="rgb(255,255,255)" stroke-miterlimit="10" stroke-width="3"/></g></svg></g><!--ITEM: Illustration component 9--><g transform="translate(1234.0 144.0) rotate(-14.93916680739162 -205.0 178.0)  scale(-1.9318845769643966 1.9240331193116718)"><svg width="212.228" height="185.028" viewBox="0.0 0.0 212.228 185.028"><g fill="#231e40"><path d="m205.763 137.336c-14.6 19.7-50.2 18.9-85.2.2 1.5 8 .4 15.4-3.8 21-9.6 12.9-32.4 13-55.6 1.7a20.354 20.354 0 0 1 -2.3 14.1c-6.8 11.7-24.5 14.2-39.6 5.5s-21.8-25.3-15-37c4.1-7.1 12.1-10.8 21.1-10.7-14.5-17.8-19.4-37.3-10.6-49.2 8.2-11 25.9-12.7 45.4-6-8.3-18.1-9-35.5-.1-47.6 17.3-23.3 63.8-18 104 11.8 40.4 29.9 59 72.9 41.7 96.2z"/><path d="m36.461 144.436a2 2 0 0 1 -1.192-.4c-13.858-10.307-24.74-22.949-30.643-35.6-6.1-13.057-6.19-24.636-.268-32.6s17.042-11.243 31.286-9.218c13.832 1.967 29.072 8.719 42.912 19.013a2 2 0 1 1 -2.387 3.21c-13.314-9.9-27.906-16.388-41.088-18.262-12.728-1.81-22.5.907-27.513 7.65-10.618 14.282 2.88 42.365 30.088 62.6a2 2 0 0 1 -1.2 3.605z"/><path d="m94.661 116.236a1.992 1.992 0 0 1 -1.189-.393c-19.726-14.623-34.982-32.843-42.958-51.301-8.136-18.831-7.765-35.735 1.043-47.6 15.218-20.608 57.367-22.615 92.037-4.378a2 2 0 1 1 -1.862 3.54c-33.022-17.368-72.845-15.894-86.96 3.22-7.925 10.676-8.132 26.166-.586 43.631 7.7 17.823 22.5 35.464 41.668 49.674a2 2 0 0 1 -1.193 3.607z"/></g></svg></g><!--ITEM: Illustration component 10--><g transform="translate(1888.0 168.0) rotate(89.99999999999987 449.0 1441.0) translate(390.0 1204.0) scale(1.9196237708422401 1.923513315090436)"><svg width="64.595991091314" height="134.12956280360856" viewBox="203.1648106904232 625.9379597501734 64.595991091314 134.12956280360856"><g fill="rgb(255,255,255)"><path d="m127.9 1498.2c-.1 0-.2 0-.3 0-1.1-.2-1.9-1.2-1.7-2.3l106-733.8v-405.1c0-1.1.9-2 2-2s2 .9 2 2v405.4.1l-106 734c-.2 1-1 1.7-2 1.7z"/><path d="m364.2 1498.2c-1 0-1.8-.7-2-1.7l-130.3-734c-.2-1.1.5-2.1 1.6-2.3s2.1.5 2.3 1.6l130.3 734c.2 1.1-.5 2.1-1.6 2.3-.1.1-.2.1-.3.1z"/><path d="m337 1344.9h-187c-1.1 0-2-.9-2-2s.9-2 2-2h187c1.1 0 2 .9 2 2s-.9 2-2 2z"/></g><path d="m378 0h-288.2l-89.8 357h90 287.8 90z" fill="#7b60c4"/><path d="m457.3 317.3h-446.8c-1.1 0-2-.9-2-2s.9-2 2-2h446.8c1.1 0 2 .9 2 2s-.9 2-2 2z" fill="#fff"/></svg></g><!--ITEM: Illustration component 11--><g transform="translate(1960.0 508.0) rotate(-41.755770804358605 70.0 63.0)  scale(1.5151515151515151 1.4858490566037736)"><svg width="92.4" height="84.8" viewBox="0.0 0.0 92.4 84.8"><path d="m67 0c-13.4 0-20.8 9.7-20.8 9.7s-7.4-9.7-20.8-9.7c-14 0-25.4 11.4-25.4 25.4 0 19.3 22.7 38 29 43.9 7.3 6.8 17.2 15.5 17.2 15.5s9.9-8.7 17.2-15.5c6.3-5.9 29-24.6 29-43.9 0-14-11.3-25.4-25.4-25.4z" fill="#fd7ce8"/></svg></g><!--ITEM: Illustration component 12--><g transform="translate(1910.0 552.0) rotate(89.99999999999987 449.0 1441.0) translate(390.0 1204.0) scale(1.9196237708422401 1.923513315090436)"><svg width="64.595991091314" height="134.12956280360856" viewBox="203.1648106904232 625.9379597501734 64.595991091314 134.12956280360856"><g fill="rgb(255,255,255)"><path d="m127.9 1498.2c-.1 0-.2 0-.3 0-1.1-.2-1.9-1.2-1.7-2.3l106-733.8v-405.1c0-1.1.9-2 2-2s2 .9 2 2v405.4.1l-106 734c-.2 1-1 1.7-2 1.7z"/><path d="m364.2 1498.2c-1 0-1.8-.7-2-1.7l-130.3-734c-.2-1.1.5-2.1 1.6-2.3s2.1.5 2.3 1.6l130.3 734c.2 1.1-.5 2.1-1.6 2.3-.1.1-.2.1-.3.1z"/><path d="m337 1344.9h-187c-1.1 0-2-.9-2-2s.9-2 2-2h187c1.1 0 2 .9 2 2s-.9 2-2 2z"/></g><path d="m378 0h-288.2l-89.8 357h90 287.8 90z" fill="#7b60c4"/><path d="m457.3 317.3h-446.8c-1.1 0-2-.9-2-2s.9-2 2-2h446.8c1.1 0 2 .9 2 2s-.9 2-2 2z" fill="#fff"/></svg></g><!--ITEM: Illustration component 13--><g transform="translate(2424.0 950.0) rotate(97.09232660789077 56.0 112.0)  scale(2.061893628380493 2.061893628380493)"><svg width="54.319" height="108.638" viewBox="0.0 0.0 54.319 108.638"><path d="m54.319 54.319c0-29.999-24.319-54.319-54.319-54.319v108.638c30 0 54.319-24.319 54.319-54.319z" fill="rgb(255,246,204)"/></svg></g><!--ITEM: Illustration component 14--><g transform="translate(1906.0 956.0) rotate(89.99999999999987 449.0 1441.0) translate(390.0 1204.0) scale(1.9196237708422401 1.923513315090436)"><svg width="64.595991091314" height="134.12956280360856" viewBox="203.1648106904232 625.9379597501734 64.595991091314 134.12956280360856"><g fill="rgb(255,255,255)"><path d="m127.9 1498.2c-.1 0-.2 0-.3 0-1.1-.2-1.9-1.2-1.7-2.3l106-733.8v-405.1c0-1.1.9-2 2-2s2 .9 2 2v405.4.1l-106 734c-.2 1-1 1.7-2 1.7z"/><path d="m364.2 1498.2c-1 0-1.8-.7-2-1.7l-130.3-734c-.2-1.1.5-2.1 1.6-2.3s2.1.5 2.3 1.6l130.3 734c.2 1.1-.5 2.1-1.6 2.3-.1.1-.2.1-.3.1z"/><path d="m337 1344.9h-187c-1.1 0-2-.9-2-2s.9-2 2-2h187c1.1 0 2 .9 2 2s-.9 2-2 2z"/></g><path d="m378 0h-288.2l-89.8 357h90 287.8 90z" fill="#7b60c4"/><path d="m457.3 317.3h-446.8c-1.1 0-2-.9-2-2s.9-2 2-2h446.8c1.1 0 2 .9 2 2s-.9 2-2 2z" fill="#fff"/></svg></g><!--ITEM: Illustration component 15--><g transform="translate(2318.0 796.0) rotate(97.09232660789077 56.0 112.0)  scale(2.061893628380493 2.061893628380493)"><svg width="54.319" height="108.638" viewBox="0.0 0.0 54.319 108.638"><path d="m54.319 54.319c0-29.999-24.319-54.319-54.319-54.319v108.638c30 0 54.319-24.319 54.319-54.319z" fill="rgb(255,246,204)"/></svg></g><!--ITEM: Illustration component 16--><g transform="translate(2128.0 348.0) rotate(25.622388085052396 94.0 84.0)  scale(2.0346320346320343 1.9811320754716981)"><svg width="92.4" height="84.8" viewBox="0.0 0.0 92.4 84.8"><path d="m67 0c-13.4 0-20.8 9.7-20.8 9.7s-7.4-9.7-20.8-9.7c-14 0-25.4 11.4-25.4 25.4 0 19.3 22.7 38 29 43.9 7.3 6.8 17.2 15.5 17.2 15.5s9.9-8.7 17.2-15.5c6.3-5.9 29-24.6 29-43.9 0-14-11.3-25.4-25.4-25.4z" fill="#fd7ce8"/></svg></g><!--ITEM: Illustration component 17--><g transform="translate(2010.0 630.0) rotate(0.0 376.0 361.0)  scale(0.5542395641554406 0.5547577391393879)"><svg width="1356.814" height="1301.469" viewBox="0.0 0.0 1356.814 1301.469"><g fill="rgb(255,242,61)"><path d="m516.214 1013.64 212.584 126.747-240.709 16.072-34.7 142.819h332.026c170.944 0 309.745-138.435 309.745-309.744 0-257.512-208.931-466.443-466.443-466.443h-171.676z"/><path d="m481.514 567.652 306.457 44.562v562.142h-109.214c-199.8 0-361.977-162.178-361.977-361.977v-211.123z"/><path d="m903.03 871.552c-152.681 0-276.505 123.825-276.505 276.505v8.766h-191.765c-39.449 0-71.227 31.778-71.227 71.227s31.778 71.227 71.227 71.227h343.714c174.597 0 316.319-141.723 316.319-316.319"/><path d="m1306 123.357c-3.023-.001-6.253.237-9.644.739-3.405.555-6.964 1.467-10.59 2.579-3.633 1.191-7.32 2.697-11.018 4.402-3.671 1.835-7.369 3.786-10.966 6.1-14.413 9.175-27.618 22.12-37.032 36.802l-.907 1.365-.835 1.398-1.68 2.789-1.541 2.841-.78 1.416c-.25.475-.466.962-.703 1.441l-1.415 2.877-1.268 2.914c-.916 1.925-1.539 3.914-2.341 5.86-1.32 3.944-2.622 7.89-3.428 11.871-.526 1.981-.765 3.976-1.16 5.96-.187.994-.225 1.927-.36 2.892-.099.961-.274 1.905-.341 2.879-.616 7.745-.209 16.017 1.248 25.114 1.451 9.079 3.947 18.903 7.196 29.208 3.231 10.3 7.14 21.038 11.367 32.039 4.226 11.002 8.747 22.261 13.323 33.687 9.179 22.863 18.538 46.443 27.157 70.452 8.63 24.024 16.658 48.461 23.666 73.209 1.742 6.19 3.511 12.372 5.115 18.601l2.462 9.326 2.316 9.363c.761 3.123 1.556 6.238 2.287 9.368l2.149 9.397 1.073 4.698 1.036 4.621 1.98 9.054c5.295 24.224 10.51 49.032 14.885 74.36 4.304 25.373 7.868 51.264 9.6 77.775.859 13.25 1.412 26.606 1.267 40.111-.114 13.494-.757 27.089-2.03 40.731-2.713 27.276-7.964 54.801-16.87 81.491-2.118 6.697-4.689 13.265-7.185 19.847-2.756 6.494-5.423 13.021-8.555 19.353l-2.277 4.777c-.749 1.597-1.62 3.134-2.427 4.703-1.655 3.116-3.272 6.253-4.974 9.341-1.766 3.052-3.497 6.125-5.308 9.149-1.862 2.991-3.682 6.011-5.595 8.967-15.289 23.675-33.56 45.197-53.731 64.181-10.077 9.513-20.656 18.37-31.587 26.623-10.932 8.253-22.196 15.947-33.753 23.008-23.081 14.2-47.227 26.066-71.822 36.085-20.459 8.335-43.802-1.494-52.136-21.953-8.241-20.23 1.276-43.279 21.27-51.851l.161-.069c20.827-8.914 40.818-19.212 59.46-31.144 9.345-5.931 18.309-12.306 26.903-19.031 8.594-6.726 16.788-13.84 24.473-21.363 15.396-15.022 28.888-31.564 39.998-49.447 1.391-2.234 2.696-4.516 4.057-6.766 1.309-2.279 2.547-4.596 3.834-6.886 1.222-2.324 2.37-4.686 3.568-7.021.578-1.178 1.224-2.322 1.751-3.525l1.62-3.588c2.267-4.734 4.128-9.655 6.126-14.51 1.748-4.968 3.617-9.881 5.101-14.957 6.345-20.135 10.039-41.324 11.834-63.034.815-10.881 1.151-21.896 1.054-33.011-.064-11.109-.734-22.353-1.66-33.644-1.861-22.589-5.386-45.477-9.713-68.551-4.406-23.106-9.705-46.397-15.336-70.163l-2.119-8.943-1.06-4.367-1.058-4.281-2.112-8.562c-.717-2.85-1.497-5.683-2.242-8.526l-2.262-8.519-2.399-8.48c-1.558-5.664-3.279-11.283-4.966-16.91-6.793-22.5-14.523-44.725-22.916-66.881-8.4-22.179-17.575-44.209-27.13-66.859-4.77-11.34-9.624-22.837-14.431-34.728-4.801-11.891-9.563-24.199-13.937-37.308-4.364-13.089-8.346-27.078-11.084-42.257-2.734-15.138-4.116-31.583-3.051-48.404.12-2.095.372-4.203.567-6.303.229-2.089.392-4.231.703-6.274.64-4.08 1.2-8.194 2.099-12.203 1.564-8.102 3.85-15.954 6.368-23.693 1.387-3.803 2.67-7.675 4.262-11.372.772-1.863 1.531-3.736 2.333-5.583l2.534-5.464c.429-.907.844-1.824 1.29-2.72l1.373-2.665 2.78-5.313 2.966-5.185 1.502-2.581 1.58-2.523 3.189-5.027 3.361-4.894 1.697-2.435 1.77-2.375 3.568-4.73 3.728-4.594 1.881-2.283 1.949-2.223c1.305-1.477 2.599-2.964 3.925-4.422l4.076-4.285c1.346-1.44 2.757-2.82 4.178-4.19s2.822-2.76 4.271-4.101c2.948-2.637 5.841-5.329 8.933-7.822 6.056-5.114 12.513-9.824 19.191-14.283 6.686-4.452 13.765-8.474 21.061-12.214 7.386-3.641 15.044-6.939 23.06-9.726 8.064-2.721 16.408-5.021 25.124-6.626 8.741-1.556 17.789-2.481 27.077-2.588 27.744-.318 50.493 21.915 50.811 49.659s-21.915 50.493-49.659 50.811c-.106.001-.212.002-.317.003z"/><path d="m346.732 276.901c116.519 11.324 201.991 114.693 190.668 231.578s-115.058 202.357-231.578 191.033-316.685-126.381-305.361-242.9 229.751-191.034 346.271-179.711z"/></g><path d="m429.281 1156.459c0-3.024 2.455-5.479 5.479-5.479h186.285v-3.287c0-155.486 126.498-281.984 281.984-281.984 3.024 0 5.479 2.455 5.479 5.479s-2.455 5.479-5.479 5.479c-149.444 0-271.026 121.582-271.026 271.026v14.245h-197.243c-3.024 0-5.479-2.455-5.479-5.479z" fill="#231e40"/><path d="m1052.649 1145.15c-2.634-1.49-3.561-4.832-2.071-7.466 25.342-44.811 38.736-96.171 38.736-148.52 0-37.969-4.613-75.493-13.712-111.526-.741-2.929 1.034-5.914 3.97-6.651 2.933-.749 5.91 1.041 6.651 3.97 9.322 36.91 14.048 75.336 14.048 114.211 0 54.238-13.887 107.461-40.157 153.915-1.008 1.786-2.867 2.783-4.774 2.783-.915-0-1.84-.23-2.691-.716z" fill="#231e40"/><path d="m108.202 1232.434c0 38.353 31.048 69.035 69.035 69.035h79.993c28.491 0 52.598-17.167 63.191-42.005 17.533-32.874 34.7-65.382 51.868-98.256 17.167-32.874 33.97-65.748 50.772-98.987s33.239-66.843 49.311-101.544c8.036-17.533 16.072-35.065 23.742-53.694l2.922-6.94 1.461-3.653 1.461-3.653 5.844-15.341 2.922-7.671c.365-1.096 1.096-2.922 1.461-4.383l1.461-4.748 5.479-18.994 2.192-24.473c.731-9.497-1.096-18.994-5.114-27.03l-110.676-224.271c-17.167-34.7-58.808-48.945-93.508-31.778-27.03 13.515-41.64 42.371-38.353 70.861l25.569 212.584c-1.096 7.671-2.557 16.072-4.383 25.203-3.287 16.072-7.305 33.239-11.323 50.041-8.401 34.335-17.898 69.035-27.395 103.735-9.862 34.7-20.09 69.766-30.317 104.466-6.21 20.455-12.419 41.275-18.629 62.095h-29.586c-37.987.001-68.67 30.683-69.4 69.401z" fill="rgb(255,242,61)"/><path d="m422.016 1055.525c-2.758-1.242-3.985-4.489-2.74-7.247l81.819-181.175c1.245-2.758 4.489-3.992 7.247-2.74 2.758 1.242 3.985 4.489 2.74 7.247l-81.819 181.175c-.917 2.027-2.911 3.225-4.997 3.225-.753.001-1.519-.152-2.25-.485z" fill="#231e40"/><path d="m363.534 299.759h-177.631l74.661-166.132c5.254-11.69 23.056-11.69 28.31 0z" fill="rgb(255,242,61)"/><path d="m305.278 704.593c-6.447-.644-13.131-.259-19.848-1.886-5.459-1.322-12.767-3.551-11.841-8.466.782-2.918 2.246-5.289 10.026-3.841s15.434 2.559 22.745 3.289c107.961 10.611 206.28-64.904 223.809-171.853.493-2.984 3.328-5.015 6.294-4.522 2.988.49 5.011 3.309 4.522 6.294-17.303 105.576-109.327 182.033-214.44 182.033-7.033.001-14.141-.343-21.267-1.048z" fill="#231e40"/><path d="m34.065 437.618c0-3.024 2.455-5.479 5.479-5.479h38.353c3.024 0 5.479 2.455 5.479 5.479s-2.455 5.479-5.479 5.479l-13.88 17.999h-10.958l-13.515-17.999c-3.028 0-5.479-2.455-5.479-5.479z" fill="#231e40"/><path d="m204.465 293.276c-.774-2.926.968-5.925 3.894-6.699 37.345-9.884 74.667-15.505 107.936-16.254 2.919.026 5.53 2.33 5.603 5.355.066 3.028-2.33 5.534-5.355 5.603-32.421.731-68.863 6.228-105.383 15.893-.471.124-.942.183-1.406.183-2.426-.001-4.643-1.623-5.289-4.081z" fill="#231e40"/><path d="m53.059 488.024v-50.407c0-3.024 2.455-5.479 5.479-5.479s5.479 2.455 5.479 5.479v50.407c0 3.024-2.455 5.479-5.479 5.479s-5.479-2.454-5.479-5.479z" fill="#231e40"/><path d="m529.029 425.419-161.833-102.772 157.706-111.207c11.097-7.825 27.33 1.779 25.814 15.273z" fill="rgb(255,242,61)"/></svg></g><!--ITEM: Illustration component 18--><g transform="translate(1976.0 722.0) rotate(-180.0 132.0 90.0) translate(0.0 0.0) scale(1.6673719313093291 1.6706266706266706)"><svg width="81.56548484848484" height="27.534577777777777" viewBox="0.0 0.0 81.56548484848484 27.534577777777777"><g fill="#231e40"><path d="m78.8 107.413a2 2 0 0 1 -1.989-2.219c.332-3.008 8.216-73.835 17.747-89.044a34.043 34.043 0 1 1 57.7 36.152c-9.529 15.21-69.828 53.2-72.391 54.8a2 2 0 0 1 -1.067.311zm44.658-103.223a30.054 30.054 0 0 0 -25.509 14.083c-7.778 12.415-14.806 67.525-16.675 83.2 13.287-8.515 59.815-38.875 67.594-51.289a30.032 30.032 0 0 0 -25.41-45.994z"/><path d="m78.8 107.413a2 2 0 0 1 -1.064-.307c-2.559-1.606-62.857-39.594-72.386-54.806a34.043 34.043 0 1 1 57.7-36.152c9.531 15.209 17.415 86.036 17.746 89.044a2 2 0 0 1 -1.988 2.219zm-44.66-103.242a30.059 30.059 0 0 0 -25.4 46.008c7.78 12.414 54.307 42.774 67.593 51.289-1.868-15.67-8.895-70.78-16.675-83.194a29.847 29.847 0 0 0 -18.739-13.331 30.283 30.283 0 0 0 -6.779-.772z"/></g></svg></g></svg>