<svg xmlns="http://www.w3.org/2000/svg" version="1.1" viewBox="0 0 3000 3000" width="3000" height="3000">
<defs/><!--ITEM: Illustration component 1--><g transform="translate(1856.0 1260.0) rotate(0.0 123.0 126.0)  scale(0.5418502202643172 0.5428694528220595)"><svg width="454.0" height="464.2" viewBox="0.0 0.0 454.0 464.2"><path d="M449.1,295c0,78.4-53.8,125.1-90,147.6-7.1,4.4-13.5,7.9-18.7,10.5-8.2,4.1-13.3,6-13.3,6h-200s-5.1-1.9-13.3-6C82.2,437.2,5.1,388.7,5.1,295c0-70.2,34.9-112.6,73-148.9,45.3-43.3,95-78,95-141.1h108C281.1,121,449.1,141,449.1,295Z" fill="#e3d9fc"/><path d="M327.1,464.2h-200a5.663,5.663,0,0,1-1.8-.3c-.2-.1-5.5-2.1-13.8-6.3-14.9-7.5-43.5-24.1-67.7-51C14.7,374.3,0,336.7,0,295c0-71.5,35.8-115.6,74.5-152.5,6.6-6.4,13.4-12.6,20-18.6C132.3,89.3,168,56.7,168,5a4.951,4.951,0,0,1,5-5H281a4.951,4.951,0,0,1,5,5c0,51.7,35.7,84.3,73.5,118.9C403.8,164.4,454,210.4,454,295c0,35.8-10.9,68.7-32.4,97.7-19.1,25.8-43.1,43.6-59.9,54.1-6.3,3.9-12.8,7.6-19.1,10.8a151.3,151.3,0,0,1-13.8,6.3A4.671,4.671,0,0,1,327.1,464.2Zm-199-10H326.2c1.7-.7,6-2.5,12-5.5,6.1-3.1,12.3-6.5,18.3-10.3,16.1-10,39.1-27.1,57.2-51.6,20.2-27.3,30.5-58.2,30.5-91.8,0-80.2-46.4-122.7-91.3-163.7-38.3-35-74.5-68.1-76.6-121.3H178c-2.1,53.2-38.4,86.3-76.6,121.3-6.5,6-13.3,12.2-19.9,18.4-16.8,16-35.8,35.8-49.8,60.6C17.2,236,10.1,263.7,10.1,295c0,30.2,10.3,105.5,106,153.7C122,451.7,126.3,453.5,128.1,454.2Z" fill="#e3d9fc"/><path d="M368.4,147.4H84.7a5,5,0,0,1,0-10H368.4a4.951,4.951,0,0,1,5,5A5.015,5.015,0,0,1,368.4,147.4Z" fill="#e3d9fc"/></svg></g><!--ITEM: Illustration component 2--><g transform="translate(2134.0 1138.0) rotate(0.0 133.0 188.0) translate(0.0 0.0) scale(2.485981308411215 2.478576137112723)"><svg width="107.0" height="142.82393617021276" viewBox="0.0 0.0 107.0 142.82393617021276"><path d="M40.7,0c0,19.7.8,35.8-12,48.7C15.9,61.5,0,72.4,0,117.4v18.8a15.45,15.45,0,0,0,15.5,15.5h76A15.45,15.45,0,0,0,107,136.2V117.4c0-45-15.8-55.8-28.7-68.7-12.8-12.8-12-29-12-48.7Z" style="         fill: #e3d9fc;       "/>
</svg></g><!--ITEM: Illustration component 3--><g transform="translate(1216.0 706.0) rotate(0.0 298.0 305.0)  scale(1.8060606060606061 1.7999409855414579)"><svg width="330.0" height="338.9" viewBox="0.0 0.0 330.0 338.9"><g>
	<path d="M198.8,179.7c16.6-48.1,52.8-95.2,131.2-95.2c0,0-140.8-23.8-177.7,119.7C98.6,125.6,0,142.2,0,142.2   c56.5,0,91.1,24.5,112.2,56.2C60.2,173.4,0,184.6,0,184.6c119.7,0,141.3,84.7,144.4,128.6c-0.6,8.2-0.8,16.7-0.8,25.7h0.8h41.2h0.8   c0-9.5-0.3-18.5-0.9-27c2.3-53.9,21.7-169.6,144.6-169.6C330,142.2,253.8,129.3,198.8,179.7z" style="fill:#B0FF5C;"/>
	<g>
		<g>
			<path d="M210,32.9c-2.1-6.3-14-8.1-26.6-4c-1.4,0.5-2.8,1-4.2,1.6c0.3-2,0.4-4.2,0.4-6.4c0-13.3-5.4-24.1-12-24.1     c-6.7,0-12,10.8-12,24.1c0,2.4,0.2,4.6,0.5,6.8c-1.6-0.7-3.2-1.4-5-1.9c-12.7-4.1-24.6-2.3-26.6,4s6.5,14.8,19.2,18.9     c1.7,0.5,3.3,1,5,1.3c-1.4,1.5-2.8,3.1-4,4.8c-7.8,10.8-9.8,22.7-4.4,26.6c5.4,3.9,16.1-1.6,23.9-12.4c1.4-1.9,2.6-3.8,3.6-5.7     c1,1.9,2.2,3.8,3.6,5.7c7.8,10.8,18.5,16.3,23.9,12.4s3.4-15.8-4.4-26.6c-1.3-1.8-2.7-3.5-4.2-5c1.4-0.3,2.9-0.7,4.3-1.2     C203.4,47.7,212,39.3,210,32.9z" style="fill:#FD7CE8;"/>
			<circle cx="167.2" cy="46.2" r="9.8" style="fill:#FFFFFF;"/>
		</g>
	</g>
	<g>
		<g>
			<path d="M131.1,98.6c0-6.7-10.8-12-24.1-11.9c-1.5,0-3,0.1-4.5,0.2c0.9-1.9,1.7-3.9,2.4-6     c4.1-12.7,2.2-24.6-4.1-26.6S86,60.9,81.9,73.6c-0.7,2.2-1.2,4.5-1.6,6.6c-1.3-1.2-2.7-2.3-4.2-3.4c-10.8-7.8-22.7-9.7-26.6-4.3     s1.7,16.1,12.5,23.8c1.4,1,2.9,2,4.3,2.8c-1.8,1-3.6,2.1-5.3,3.4c-10.7,7.9-16.2,18.6-12.3,24c3.9,5.4,15.8,3.3,26.5-4.5     c1.9-1.4,3.6-2.9,5.1-4.4c0.4,2.1,0.9,4.3,1.6,6.5c4.2,12.6,12.7,21.2,19,19.1c6.3-2.1,8.1-14,3.9-26.7c-0.7-2.1-1.5-4.1-2.5-6     c1.5,0.1,3,0.2,4.5,0.2C120.4,110.7,131.2,105.2,131.1,98.6z" style="fill:#FD7CE8;"/>
			
				<ellipse transform="matrix(0.3044 -0.9525 0.9525 0.3044 -33.5085 150.5104)" cx="86.3" cy="98.2" rx="9.8" ry="9.8" style="fill:#FFFFFF;"/>
		</g>
	</g>
	<g>
		<g>
			<path d="M200.2,142.6c-2.1-6.3-14-8.1-26.6-4c-1.4,0.5-2.8,1-4.2,1.6c0.3-2,0.4-4.2,0.4-6.4c0-13.3-5.4-24.1-12-24.1     s-12,10.8-12,24.1c0,2.4,0.2,4.6,0.5,6.8c-1.6-0.7-3.2-1.4-5-1.9c-12.7-4.1-24.6-2.3-26.6,4c-2.1,6.3,6.5,14.8,19.2,18.9     c1.7,0.5,3.3,1,5,1.3c-1.4,1.5-2.8,3.1-4,4.8c-7.8,10.8-9.8,22.7-4.4,26.6c5.4,3.9,16.1-1.6,23.9-12.4c1.4-1.9,2.6-3.8,3.6-5.7     c1,1.9,2.2,3.8,3.6,5.7c7.8,10.8,18.5,16.3,23.9,12.4c5.4-3.9,3.4-15.8-4.4-26.6c-1.3-1.8-2.7-3.5-4.2-5c1.4-0.3,2.9-0.7,4.3-1.2     C193.7,157.4,202.3,148.9,200.2,142.6z" style="fill:#FD7CE8;"/>
			<g>
				<circle cx="157.4" cy="155.9" r="9.8" style="fill:#FFFFFF;"/>
			</g>
		</g>
	</g>
</g>
</svg></g><!--ITEM: Illustration component 4--><g transform="translate(1380.0 1116.0) rotate(0.0 122.0 190.0)  scale(0.5105286063405979 0.5074644007045742)"><svg width="477.936" height="748.821" viewBox="0.0 0.0 477.936 748.821"><g>
	<path style="fill:#7b60c4;" d="M445.23,70.827H19.092c-6.737,0-17.297-10.56-17.297-23.587V25.225   c0-13.027,10.56-23.587,17.297-23.587H445.23c19.317,0,29.877,10.56,29.877,23.587V47.24   C475.107,60.266,464.547,70.827,445.23,70.827z"/>
</g>
<g>
	<path style="fill:#7b60c4;" d="M331.129,750.018l-179.652,0.166c-11.803,0.011-21.797-8.704-23.392-20.399L60.763,64.403   l355.377-6.29l-61.483,669.656C353.947,740.247,343.628,750.006,331.129,750.018z"/>
</g>
<g>
	<path style="fill:#ffffff00;" d="M381.47,79.799H93.709c-4.143,0-7.5-3.358-7.5-7.5s3.357-7.5,7.5-7.5H381.47   c4.143,0,7.5,3.358,7.5,7.5S385.612,79.799,381.47,79.799z"/>
</g>
</svg></g><!--ITEM: Illustration component 5--><g transform="translate(262.0 1482.0) rotate(0.0 1252.0 683.0)  scale(1.3344610168443727 1.3331043178526676)"><svg width="1876.413" height="1024.676" viewBox="0.0 0.0 1876.413 1024.676"><g>
    <path d="M1872.55,1024.676a2,2,0,0,1-2-2V885.721a2,2,0,1,1,4,0v136.955A2,2,0,0,1,1872.55,1024.676Z" style="         fill: #231e40;       "/>
    <path d="M4.55,1024.676a2,2,0,0,1-2-2V885.721a2,2,0,0,1,4,0v136.955A2,2,0,0,1,4.55,1024.676Z" style="         fill: #231e40;       "/>
    <rect width="1876.413" height="888.578" style="         fill: #fd7ce8;       "/>
    <rect x="43.694" y="48.406" width="411.014" height="377.57" style="         fill: #7b60c4;       "/>
    <rect x="43.694" y="475.273" width="411.014" height="377.57" style="         fill: #7b60c4;       "/>
    <rect x="506.302" y="50.406" width="411.014" height="377.57" style="         fill: #7b60c4;       "/>
    <rect x="506.302" y="477.273" width="411.014" height="377.57" style="         fill: #7b60c4;       "/>
    <rect x="957.567" y="51.406" width="411.014" height="377.57" style="         fill: #7b60c4;       "/>
    <rect x="957.567" y="478.273" width="411.014" height="377.57" style="         fill: #7b60c4;       "/>
    <rect x="1420.175" y="53.406" width="411.014" height="377.57" style="         fill: #7b60c4;       "/>
    <rect x="1420.175" y="480.273" width="411.014" height="377.57" style="         fill: #7b60c4;       "/>
  </g>
</svg></g><!--ITEM: Illustration component 6--><g transform="translate(478.0 1608.0) rotate(-13.732316752274347 54.0 219.0)  scale(1.3211009174311927 1.343558282208589)"><svg width="81.75" height="326.0" viewBox="0.0 0.0 81.75 326.0"><g>
	<g>
		<rect width="81.75" height="326" style="fill:#e3d9fc;"/>
	</g>
	<g>
		<path d="M64.375,304h-47c-1.104,0-2-0.896-2-2V23c0-1.104,0.896-2,2-2h47c1.104,0,2,0.896,2,2v279    C66.375,303.104,65.48,304,64.375,304z M19.375,300h43V25h-43V300z" style="fill:#FFFFFF;"/>
	</g>
</g>
</svg></g><!--ITEM: Illustration component 7--><g transform="translate(310.0 484.0) rotate(0.0 221.0 308.0)  scale(1.3804476148238838 1.3783165742568053)"><svg width="320.186" height="446.922" viewBox="0.0 0.0 320.186 446.922"><g>
    <rect id="basis_picture-i7" x="2" y="2" width="316.186" height="442.922" style="         fill: #fff;       "/>
    <path d="M318.186,446.922H2a2,2,0,0,1-2-2V2A2,2,0,0,1,2,0H318.186a2,2,0,0,1,2,2V444.922A2,2,0,0,1,318.186,446.922ZM4,442.922H316.186V4H4Z" style="         fill: #231e40;       "/>
  </g>
</svg></g><!--ITEM: Illustration component 8--><g transform="translate(1398.0 1104.0) rotate(0.0 128.0 29.0) translate(0.0 35.45994133659768) scale(1.8326162744915564 1.8704850361197112)"><svg width="138.5996640625" height="12.050381707496193" viewBox="0.0 18.957618292503806 138.5996640625 12.050381707496193"><g>
    <path d="M112.21,30.437H2.859a2,2,0,1,1,0-4H112.21a2,2,0,0,1,0,4Z" style="         fill: #ffffff;       "/>
    <path d="M136.832,4.571H64.414a2,2,0,0,1,0-4h72.418a2,2,0,0,1,0,4Z" style="         fill: #ffffff;       "/>
  </g>
</svg></g><!--ITEM: Illustration component 9--><g transform="translate(1962.0 336.0) rotate(89.99999999999999 392.0 267.0) translate(0.0 0.0) scale(1.4218714294523256 1.422854128142136)"><svg width="551.386" height="375.302" viewBox="0.0 0.0 551.386 375.302"><g>
    <path d="M549.194,375.044h-547a2,2,0,0,1-2-2V2.258a2,2,0,0,1,2-2h547a2,2,0,0,1,2,2V373.044A2,2,0,0,1,549.194,375.044Zm-545-4h543V4.258h-543Z" style="         fill: #231e40;       "/>
    <rect x="44.87" y="44.935" width="461.647" height="285.432" style="         fill: #ffffff;       "/>
  </g>
</svg></g><!--ITEM: Illustration component 10--><g transform="translate(2200.0 290.0) rotate(0.0 150.0 296.0)  scale(1.1160465168188212 1.1143508435748828)"><svg width="268.806" height="531.251" viewBox="0.0 0.0 268.806 531.251"><g id="Pineapple-i10">
    <g>
      <path d="M137.771,277.106,241.046,66.448s-59.888,29.131-88.406,87.3S137.771,277.106,137.771,277.106Z" style="         fill: #b0ff5c;       "/>
      <path d="M111.615,143.389C83.1,85.217,24.479,55.463,24.479,55.463L127.754,266.121S140.134,201.56,111.615,143.389Z" style="         fill: #b0ff5c;       "/>
      <path d="M156.506,128.992C156.835,57.862,113.7,0,113.7,0L112.5,257.582S156.177,200.121,156.506,128.992Z" style="         fill: #b0ff5c;       "/>
      <path d="M149.213,531.251a112.473,112.473,0,0,0,108.436-82.129,262.588,262.588,0,0,0,9.367-70.23c0-104.83-59.327-189.811-132.51-189.811S2,274.062,2,378.892a262.588,262.588,0,0,0,9.367,70.23A112.473,112.473,0,0,0,119.8,531.251Z" style="         fill: #fff23d;       "/>
    </g>
    <path d="M204.682,518.682a2,2,0,0,1-1.127-.349L.871,379.754a2,2,0,1,1,2.258-3.3L205.813,515.031a2,2,0,0,1-1.131,3.651Z" style="         fill: #231e40;       "/>
    <path d="M256.009,456.466a1.988,1.988,0,0,1-1.081-.319l-43.189-27.835c-.035-.02-.069-.04-.1-.062L13.275,300.411a2,2,0,0,1,2.166-3.362L213.707,424.826c.035.02.069.041.1.062l43.285,27.9a2,2,0,0,1-1.085,3.681Z" style="         fill: #231e40;       "/>
    <path d="M266.321,361.377a1.989,1.989,0,0,1-1.128-.35L61.143,221.4a2,2,0,0,1,2.258-3.3L267.453,357.726a2,2,0,0,1-1.132,3.651Z" style="         fill: #231e40;       "/>
    <path d="M73.884,523.494a2,2,0,0,1-1.13-3.65L211.59,424.918c.035-.023.07-.046.1-.067l53.982-36.918a2,2,0,1,1,2.258,3.3l-54.08,36.985c-.034.024-.069.046-.1.067L75.011,523.145A1.982,1.982,0,0,1,73.884,523.494Z" style="         fill: #231e40;       "/>
    <path d="M16.256,465.058a2,2,0,0,1-1.084-3.682L256.288,306a2,2,0,0,1,2.166,3.362L17.338,464.739A2,2,0,0,1,16.256,465.058Z" style="         fill: #231e40;       "/>
    <path d="M2.1,373.129a2,2,0,0,1-1.132-3.65L212.365,224.824a2,2,0,0,1,2.259,3.3L3.232,372.78A2,2,0,0,1,2.1,373.129Z" style="         fill: #231e40;       "/>
  </g>
</svg></g><!--ITEM: Illustration component 11--><g transform="translate(804.0 198.0) rotate(0.0 221.0 308.0)  scale(1.3804476148238838 1.3783165742568053)"><svg width="320.186" height="446.922" viewBox="0.0 0.0 320.186 446.922"><g>
    <rect id="basis_picture-i11" x="2" y="2" width="316.186" height="442.922" style="         fill: #fff;       "/>
    <path d="M318.186,446.922H2a2,2,0,0,1-2-2V2A2,2,0,0,1,2,0H318.186a2,2,0,0,1,2,2V444.922A2,2,0,0,1,318.186,446.922ZM4,442.922H316.186V4H4Z" style="         fill: #231e40;       "/>
  </g>
</svg></g><!--ITEM: Illustration component 12--><g transform="translate(1636.0 1958.0) rotate(0.0 153.0 48.0)  scale(1.1953125 1.1999250046872072)"><svg width="256.0" height="80.005" viewBox="0.0 0.0 256.0 80.005"><g>
	<g>
		<path d="M252.8,80.005H6.401C2.866,80.005,0,75.229,0,69.338v-58.67C0,4.776,2.866,0,6.401,0h246.064    c1.757,0,3.186,2.362,3.2,5.29l0,0.001c0.014,2.962-1.423,5.376-3.2,5.376l-37.652-0.001v58.671l37.987,0    c1.757,0,3.186,2.362,3.2,5.29v0C256.014,77.591,254.577,80.005,252.8,80.005z" style="fill:#b0ff5c;"/>
	</g>
	<g>
		<path d="M217.055,39.808c0-15.729,12.392-28.56,27.945-29.271v-0.034H10v59h235V69.08    C229.447,68.369,217.055,55.537,217.055,39.808z" style="fill:#ffffff;"/>
	</g>
	<g>
		<path d="M210.666,26.808H20.071c-1.104,0-2-0.896-2-2s0.896-2,2-2h190.596c1.104,0,2,0.896,2,2    S211.771,26.808,210.666,26.808z" style="fill:#231E40;"/>
	</g>
	<g>
		<path d="M210.666,58.81H20.071c-1.104,0-2-0.896-2-2s0.896-2,2-2h190.596c1.104,0,2,0.896,2,2    S211.771,58.81,210.666,58.81z" style="fill:#231E40;"/>
	</g>
	<g>
		<path d="M210.666,42.81H20.071c-1.104,0-2-0.896-2-2s0.896-2,2-2h190.596c1.104,0,2,0.896,2,2    S211.771,42.81,210.666,42.81z" style="fill:#231E40;"/>
	</g>
</g>
</svg></g><!--ITEM: Illustration component 13--><g transform="translate(354.0 648.0) rotate(-44.626762815755995 169.0 191.0) translate(36.25969169194607 0.0) scale(4.780628553647705 4.803520905375668)"><svg width="63.11728780472198" height="67.03416230366493" viewBox="7.584712195278019 0.0 63.11728780472198 67.03416230366493"><g id="Layer_2_1_-i13">
</g>
<g id="Layer_3-i13">
	<path d="M65.574,15.525c0,0-1.8,1-4.9,3c1.2-1.6,2.8-3.7,4.3-5.8c6.2-8.9,6.2-11.2,5.3-12.2c-0.3-0.4-0.8-0.6-1.2-0.5   c-0.7,0.1-2.2,0.3-7.6,10.9c-2.6,5.1-4.8,10.2-4.8,10.2s0,0.1,0,0.2c-1.6,1.2-3.4,2.5-5.4,4c-0.1,0-0.2,0.1-0.2,0.1l-0.6,0.5   c-0.2,0.2-0.4,0.4-0.7,0.5c1-2,2.3-4.4,3.5-6.9c4.9-10.6,3.8-13,2.5-13.8c-0.6-0.4-1.5-0.6-2.8,0c-5,2.7-12.5,18.3-12.6,28.5   c-7,6.1-15.4,14.2-24.5,24.6c1.2-3,2.4-6.8,1.6-8.8c-0.3-0.7-0.8-1.2-1.6-1.4c-0.7-0.2-1.3-0.1-1.9,0.3c-1.4,1-2.3,4-2.8,9   c-0.3,3.2-0.4,6.1-0.4,6.8c-1.1,1.3-2.1,2.6-3.2,3.9c0.1-0.8,0-1.6-0.3-2.2c-0.3-0.5-0.8-0.8-1.5-0.9c-0.6,0-1,0.2-1.4,0.6   c-1.6,1.6-1.1,6.7-1,7.9c-1.1,1.4-2.2,2.8-3.2,4.2c-0.3,0.4-0.2,0.8,0.2,1.1c0.2,0.1,0.3,0.2,0.5,0.2s0.5-0.1,0.6-0.3   c6.2-8.3,12.4-15.7,18.3-22.2c3.3-0.1,14.2-0.6,15.8-2.6c0.2-0.3,0.4-0.7,0.3-1c0-0.3-0.2-0.6-0.6-0.9c-1.7-1.1-8.2,0.2-12.2,1.1   c3.7-4,7.3-7.6,10.8-10.8c1.1,0.1,2,0.2,2.9,0.2c3.6,0,4.8-1,5-1.3c0.6-0.6,0.5-1.2,0.4-1.4c-0.2-0.3-0.6-1.2-4.5-1   c1.7-1.6,3.4-3,5-4.4l4.7-3.8c0.2,0,0.5,0,0.8,0c4.6,0,15.1-0.4,15.3-4.3c0-0.8-0.2-1.4-0.8-1.8c-1.4-1.1-4.5-0.8-7.1-0.4   c6.9-5.1,11.2-7.4,11.3-7.5c0.4-0.2,0.5-0.7,0.3-1.1C66.974,15.625,65.974,15.325,65.574,15.525z" style="fill:#b0ff5c;"/>
</g>
</svg></g><!--ITEM: Illustration component 14--><g transform="translate(942.0 326.0) rotate(0.0 88.0 145.0)  scale(9.946312517660356 10.064202672219329)"><svg width="17.695" height="28.815" viewBox="0.0 0.0 17.695 28.815"><path d="M10.2,12.548a7.6,7.6,0,0,0-1.6,2.539V13.132c.9-.493,2.2-2.154,2.2-5.014C10.8,4.664,8.1,0,8.1,0S5.4,4.664,5.4,8.118c0,2.866,1.291,4.528,2.2,5.018V18.62a8.375,8.375,0,0,0-.722-1.234C4.891,14.562,0,12.3,0,12.3s.481,5.366,2.47,8.19c1.937,2.751,4.39,3.135,5.131,2.72v5.6h1V18.122c.018.021.035.046.054.064.585.542,3.156.561,5.5-1.973S17.7,8.424,17.7,8.424,12.548,10.014,10.2,12.548Z" fill="#b0ff5c"/>
</svg></g><!--ITEM: Illustration component 15--><g transform="translate(682.0 1638.0) rotate(0.0 93.0 215.0) translate(0.0 0.0) scale(1.0572807421428694 1.0540507415124403)"><svg width="175.923" height="390.87302325581396" viewBox="0.0 0.0 175.923 390.87302325581396"><g id="stack_of_notebooks-i15">
    <rect x="27.361" y="25.105" width="39.756" height="381.318" transform="matrix(0.989, 0.145, -0.145, 0.989, 31.697, -4.563)" style="         fill: #fff23d;       "/>
    <rect x="70.487" y="0.827" width="39.756" height="389.521" transform="translate(29.232 -11.011) rotate(8.314)" style="         fill: #b0ff5c;       "/>
    <rect x="108.214" y="17.601" width="39.756" height="389.521" transform="translate(32.054 -16.29) rotate(8.314)" style="         fill: #e3d9fc;       "/>
    <path d="M169.72,66.987a2.056,2.056,0,0,1-.291-.021l-39.338-5.749a2,2,0,1,1,.578-3.958l39.338,5.749a2,2,0,0,1-.287,3.979Z" style="         fill: #fff;       "/>
    <path d="M168.164,77.631a2.056,2.056,0,0,1-.291-.021l-39.338-5.749a2,2,0,0,1,.579-3.958l39.337,5.749a2,2,0,0,1-.287,3.979Z" style="         fill: #fff;       "/>
    <path d="M75.313,113.343l-23.049-3.369L57.625,73.29l23.049,3.368ZM56.8,106.6l15.132,2.212,4.2-28.77L61.005,77.826Z" style="         fill: #fff;       "/>
  </g>
</svg></g><!--ITEM: Illustration component 16--><g transform="translate(1696.0 1862.0) rotate(0.0 153.0 48.0)  scale(1.1953125 1.1999250046872072)"><svg width="256.0" height="80.005" viewBox="0.0 0.0 256.0 80.005"><g>
	<g>
		<path d="M252.8,80.005H6.401C2.866,80.005,0,75.229,0,69.338v-58.67C0,4.776,2.866,0,6.401,0h246.064    c1.757,0,3.186,2.362,3.2,5.29l0,0.001c0.014,2.962-1.423,5.376-3.2,5.376l-26.308-0.001v58.671l26.644,0    c1.757,0,3.186,2.362,3.2,5.29v0C256.014,77.591,254.577,80.005,252.8,80.005z" style="fill:#fd7ce8;"/>
	</g>
	<g>
		<rect x="10" y="10.502" width="235" height="59" style="fill:#ffffff;"/>
	</g>
	<g>
		<path d="M233.939,27.446H21.738c-1.104,0-2-0.896-2-2s0.896-2,2-2h212.201c1.104,0,2,0.896,2,2    S235.043,27.446,233.939,27.446z" style="fill:#231E40;"/>
	</g>
	<g>
		<path d="M233.939,59.447H21.738c-1.104,0-2-0.896-2-2s0.896-2,2-2h212.201c1.104,0,2,0.896,2,2    S235.043,59.447,233.939,59.447z" style="fill:#231E40;"/>
	</g>
	<g>
		<path d="M233.939,43.447H21.738c-1.104,0-2-0.896-2-2s0.896-2,2-2h212.201c1.104,0,2,0.896,2,2    S235.043,43.447,233.939,43.447z" style="fill:#231E40;"/>
	</g>
</g>
</svg></g><!--ITEM: Illustration component 17--><g transform="translate(2202.0 1752.0) rotate(0.0 221.0 153.0)  scale(3.851314849345625 3.842386800271227)"><svg width="114.766" height="79.638" viewBox="0.0 0.0 114.766 79.638"><g>
	<g>
		<g>
			<rect x="6.255" y="3.382" style="fill:#fff23d;" width="102.255" height="76.257"/>
		</g>
	</g>
	<g>
		<g>
			<rect x="46.162" y="32.346" style="fill:#010101;" width="22.442" height="3.607"/>
		</g>
	</g>
	<g>
		<g>
			
				<rect x="44.407" y="-44.407" transform="matrix(-1.836970e-16 1 -1 -1.836970e-16 70.3592 -44.4068)" style="fill:#ffffff;" width="25.952" height="114.766"/>
		</g>
	</g>
</g>
</svg></g><!--ITEM: Illustration component 18--><g transform="translate(2358.0 1870.0) rotate(0.0 68.0 38.0) translate(0.0 4.585971075617253) scale(0.319409280718483 0.3207400654984976)"><svg width="425.786" height="49.88463157894736" viewBox="0.0 14.298092346179725 425.786 49.88463157894736"><g>
	<path d="M404.266,236.952H21.519C9.634,236.952,0,227.316,0,215.433V90.368c0-11.886,9.634-21.519,21.519-21.519   h382.747c11.886,0,21.519,9.634,21.519,21.519v125.065C425.786,227.316,416.152,236.952,404.266,236.952z" style="fill:#FD7CE8;"/>
	<path d="M411.679,68.851H14.107V15.28c0-8.44,6.841-15.28,15.28-15.28h367.011c8.44,0,15.28,6.841,15.28,15.28V68.851z   " style="fill:#7B60C4;"/>
</g>
</svg></g><!--ITEM: Illustration component 19--><g transform="translate(366.0 2200.0) rotate(0.0 225.0 210.0)  scale(1.3188706949862397 1.320094669646309)"><svg width="341.201" height="318.159" viewBox="0.0 0.0 341.201 318.159"><path id="box_for_things-i19" d="M0,0V318.159H341.2V0ZM283.6,74.444H57.605v-31.9H283.6Z" style="         fill: #e3d9fc;       "/>
</svg></g><!--ITEM: Illustration component 20--><g transform="translate(988.0 2204.0) rotate(0.0 225.0 210.0)  scale(1.3188706949862397 1.320094669646309)"><svg width="341.201" height="318.159" viewBox="0.0 0.0 341.201 318.159"><path id="box_for_things-i20" d="M0,0V318.159H341.2V0ZM283.6,74.444H57.605v-31.9H283.6Z" style="         fill: #e3d9fc;       "/>
</svg></g><!--ITEM: Illustration component 21--><g transform="translate(1578.0 2204.0) rotate(0.0 225.0 210.0)  scale(1.3188706949862397 1.320094669646309)"><svg width="341.201" height="318.159" viewBox="0.0 0.0 341.201 318.159"><path id="box_for_things-i21" d="M0,0V318.159H341.2V0ZM283.6,74.444H57.605v-31.9H283.6Z" style="         fill: #e3d9fc;       "/>
</svg></g><!--ITEM: Illustration component 22--><g transform="translate(2200.0 2206.0) rotate(0.0 225.0 210.0)  scale(1.3188706949862397 1.320094669646309)"><svg width="341.201" height="318.159" viewBox="0.0 0.0 341.201 318.159"><path id="box_for_things-i22" d="M0,0V318.159H341.2V0ZM283.6,74.444H57.605v-31.9H283.6Z" style="         fill: #e3d9fc;       "/>
</svg></g><!--ITEM: Illustration component 23--><g transform="translate(340.0 1610.0) rotate(-5.654028448443623 54.0 219.0)  scale(1.3211009174311927 1.343558282208589)"><svg width="81.75" height="326.0" viewBox="0.0 0.0 81.75 326.0"><g>
	<g>
		<rect width="81.75" height="326" style="fill:#fff23d;"/>
	</g>
	<g>
		<path d="M64.375,304h-47c-1.104,0-2-0.896-2-2V23c0-1.104,0.896-2,2-2h47c1.104,0,2,0.896,2,2v279    C66.375,303.104,65.48,304,64.375,304z M19.375,300h43V25h-43V300z" style="fill:#FFFFFF;"/>
	</g>
</g>
</svg></g><!--ITEM: Illustration component 24--><g transform="translate(1236.0 1892.0) rotate(0.0 45.0 81.0)  scale(0.2906826520593251 0.29498417646608954)"><svg width="309.616" height="549.182" viewBox="0.0 0.0 309.616 549.182"><g>
	<path d="M309.616,301.719v247.463H0V301.719c0-55.564,45.041-100.572,100.572-100.572h108.472   C264.608,201.147,309.616,246.155,309.616,301.719z" style="fill:#FFF23D;"/>
	<rect x="142.623" y="201.137" width="24.369" height="261.028" style="fill:#FD7CE8;"/>
	<rect x="98.874" width="111.868" height="201.137" style="fill:#231E40;"/>
	<rect y="375.148" width="309.616" height="174.034" style="fill:#b0ff5c;"/>
</g>
</svg></g><!--ITEM: Illustration component 25--><g transform="translate(1068.0 1814.0) rotate(0.0 68.0 120.0)  scale(0.43925378533409126 0.43701359476457713)"><svg width="309.616" height="549.182" viewBox="0.0 0.0 309.616 549.182"><g>
	<path d="M309.616,301.719v247.463H0V301.719c0-55.564,45.041-100.572,100.572-100.572h108.472   C264.608,201.147,309.616,246.155,309.616,301.719z" style="fill:#FFF23D;"/>
	<rect x="142.623" y="201.137" width="24.369" height="261.028" style="fill:#FD7CE8;"/>
	<rect x="98.874" width="111.868" height="201.137" style="fill:#231E40;"/>
	<rect y="375.148" width="309.616" height="174.034" style="fill:#ffffff;"/>
</g>
</svg></g></svg>