<svg xmlns="http://www.w3.org/2000/svg" version="1.1" viewBox="0 0 3000 2250" width="3000" height="2250">
<defs/><!--ITEM: Illustration component 1--><g transform="translate(221.25 731.25) rotate(5.419069683523447 352.5 527.8125) translate(0.0 0.0) scale(2.2885375109151878 2.28496194706356)"><svg width="308.057" height="276.5363339253997" viewBox="0.0 0.0 308.057 276.5363339253997"><g id="cosmic_vr_adventure-i1">
    <g id="rocket_trace-i1">
      <path d="M184.072,220.827C197.284,181.572,314.859,197.5,307.2,93.757,299.218-14.348,152.476-.994,123.37,3.535,181.582,3.535,271.688,29.8,268.436,73c-4.13,54.871-142,63.575-197.152,110.785C41.86,208.971,36.05,236.893,34.615,246.8v.016A79.178,79.178,0,0,0,89.408,390.539c-.009.459-.035.913-.035,1.374a69.573,69.573,0,0,0,132.848,28.926c21.4-43.757,57.75-48.961,57.75-48.961l-19.7-86.508c-1.963,11.8-40.389,26.556-53.1,7.9h0a36.183,36.183,0,0,0-24.7-55.983A39.845,39.845,0,0,1,184.072,220.827Z" style="         fill: #fff;       "/>
      <path d="M158.948,461.988a70.155,70.155,0,0,1-70.075-70.076c0-.271.009-.54.018-.808A79.705,79.705,0,0,1,34.157,246.521c2.033-13.72,9.52-39.764,36.8-63.119,23.276-19.926,61.051-32.948,97.584-45.54,49.9-17.2,97.025-33.446,99.393-64.9.688-9.123-2.848-17.936-10.51-26.195C232.619,20.018,169.785,4.035,123.37,4.035a.5.5,0,0,1-.077-.994A307.253,307.253,0,0,1,189.4.852c36.7,2.841,65.518,12.4,85.663,28.4,19.649,15.611,30.628,37.3,32.634,64.467,4.916,66.591-41.619,84.207-79.011,98.362-21.161,8.011-39.437,14.93-44.141,28.906h0a39.191,39.191,0,0,0-1.616,15.864,36.868,36.868,0,0,1,30.9,36.221,36.5,36.5,0,0,1-6.054,20.191c7.5,10.6,22.442,8.64,28.559,7.294,11.961-2.632,22.476-9.482,23.439-15.27a.5.5,0,0,1,.479-.418.511.511,0,0,1,.5.389l19.7,86.508a.5.5,0,0,1-.416.606c-.362.052-36.342,5.692-57.372,48.687A70.283,70.283,0,0,1,158.948,461.988Zm-69.54-71.949a.5.5,0,0,1,.5.51l-.017.556c-.008.268-.018.537-.018.807a69.073,69.073,0,0,0,131.894,28.719c19.869-40.622,53-48.276,57.6-49.155l-19.173-84.183c-2.558,5.75-12.326,11.75-23.643,14.241-6.37,1.4-22.019,3.427-29.791-7.984a.5.5,0,0,1,0-.56,35.684,35.684,0,0,0-24.364-55.209.5.5,0,0,1-.425-.45,40.425,40.425,0,0,1,1.629-16.663l.474.159-.474-.159c4.855-14.425,23.336-21.421,44.735-29.522,37.081-14.037,83.229-31.507,78.367-97.353-1.984-26.877-12.837-48.328-32.258-63.758C254.456,14.158,225.818,4.674,189.324,1.849A312.2,312.2,0,0,0,130.005,3.14C175.815,4.563,234.334,20.4,258.161,46.084c7.857,8.472,11.482,17.539,10.774,26.95-2.418,32.113-49.849,48.463-100.065,65.773-36.444,12.562-74.128,25.553-97.26,45.354-27.228,23.309-34.556,49.293-36.5,62.706a.4.4,0,0,1-.211.356A78.715,78.715,0,0,0,79.724,390.65a79.7,79.7,0,0,0,9.623-.607A.417.417,0,0,1,89.408,390.039Z" style="         fill: #00257d;       "/>
    </g>
  </g>
</svg></g><!--ITEM: Illustration component 2--><g transform="translate(530.625 825.0) rotate(0.0 1058.4375 622.5)  scale(4.073914055929656 4.073739594785613)"><svg width="519.617" height="305.616" viewBox="0.0 0.0 519.617 305.616"><g>
    <g>
      <path d="M443.309,305.616a76.309,76.309,0,1,1,76.308-76.309A76.4,76.4,0,0,1,443.309,305.616Zm0-151.617a75.309,75.309,0,1,0,75.308,75.308A75.394,75.394,0,0,0,443.309,154Z" style="         fill: #00257d;       "/>
      <path d="M443.309,277.893a48.585,48.585,0,1,1,48.585-48.586A48.641,48.641,0,0,1,443.309,277.893Zm0-96.17a47.585,47.585,0,1,0,47.585,47.584A47.639,47.639,0,0,0,443.309,181.723Z" style="         fill: #00257d;       "/>
      <path d="M443.308,153.5a75.809,75.809,0,1,0,75.809,75.809A75.809,75.809,0,0,0,443.308,153.5Zm0,123.894a48.085,48.085,0,1,1,48.086-48.085A48.085,48.085,0,0,1,443.308,277.393Z" style="         fill: #00257d;       "/>
    </g>
    <g>
      <path d="M428.524,117c-18.313-49.355-119.017-18.414-73.885,22.267C404.6,184.305,435.631,244.5,435.631,244.5l19.394-.615S448.634,171.2,428.524,117Zm3.687,41.346c1.2,4.559,3.146,9.055,4.469,13.758l-43.9-6.464C344.845,114.358,405.073,55.226,432.211,158.349Zm-33.4,15.1,41.331,12.627a347.426,347.426,0,0,1,6.254,40.216l-10.385.33A619,619,0,0,0,398.816,173.445Z" style="         fill: #8fd2ff;       "/>
      <path d="M435.631,245a.5.5,0,0,1-.444-.271c-.311-.6-31.564-60.634-80.883-105.089-12.945-11.667-12.832-21.4-10.458-27.509,4.713-12.13,23.222-21.126,43.1-21.01,20.414.157,36.132,9.767,42.046,25.707,19.9,53.643,26.467,126.286,26.531,127.014a.5.5,0,0,1-.482.543L435.647,245ZM386.449,92.12c-19.279,0-37.138,8.709-41.671,20.374-3.241,8.34.285,17.471,10.2,26.4,47.722,43.016,78.569,100.566,80.954,105.094l18.551-.588c-.633-6.694-7.462-75.122-26.424-126.227-5.764-15.536-21.135-24.9-41.116-25.055Z" style="         fill: #00257d;       "/>
      <path d="M436.68,172.607a.449.449,0,0,1-.073-.006l-43.9-6.463a.5.5,0,0,1-.291-.152c-20.558-21.868-20.183-41.272-19.068-48.6,1.232-8.094,5.07-14.5,10.53-17.588,1.868-1.054,15.212-7.186,19.437-3.432,16.3,14.477,32.1,69.391,33.846,75.606a.5.5,0,0,1-.481.635Zm-43.655-7.433,42.963,6.325c-2.539-8.91-17.768-60.557-33.337-74.385-3.443-3.059-15.508,1.988-18.281,3.555-5.191,2.931-8.848,9.079-10.033,16.868C373.246,124.705,372.888,143.678,393.025,165.174Z" style="         fill: #00257d;       "/>
      <path d="M436.016,227.118a.5.5,0,0,1-.426-.24,624.193,624.193,0,0,0-37.166-53.123.5.5,0,0,1,.538-.788l41.331,12.627a.5.5,0,0,1,.343.371,351.262,351.262,0,0,1,6.263,40.281.5.5,0,0,1-.482.542l-10.385.329Zm-35.823-52.729a628.472,628.472,0,0,1,36.1,51.72l9.566-.3a353.157,353.157,0,0,0-6.135-39.342Z" style="         fill: #00257d;       "/>
    </g>
    <g>
      <path d="M76.309,305.616a76.309,76.309,0,1,1,76.308-76.309A76.4,76.4,0,0,1,76.309,305.616Zm0-151.617a75.309,75.309,0,1,0,75.308,75.308A75.394,75.394,0,0,0,76.309,154Z" style="         fill: #00257d;       "/>
      <path d="M76.309,277.893a48.585,48.585,0,1,1,48.585-48.586A48.641,48.641,0,0,1,76.309,277.893Zm0-96.17a47.585,47.585,0,1,0,47.585,47.584A47.639,47.639,0,0,0,76.309,181.723Z" style="         fill: #00257d;       "/>
      <path d="M76.308,153.5a75.809,75.809,0,1,0,75.809,75.809A75.809,75.809,0,0,0,76.308,153.5Zm0,123.894a48.085,48.085,0,1,1,48.086-48.085A48.085,48.085,0,0,1,76.308,277.393Z" style="         fill: #00257d;       "/>
    </g>
    <polygon points="49.679 47.35 128.062 47.35 128.062 95.316 49.679 47.35" style="         fill: #0084cc;       "/>
    <g>
      <path d="M181.934,173.648l-51.567-21.535L54.19,220.457l17.13,27.064,78.543-19.664L205.686,256.9ZM88.871,234.191l-12.562-20.61,8.762-7.8,42.991,17.643Zm7.072-38.1L124.394,170.8l20.143,34.974Zm43.488-28.03,42.5,16.909,19.98,57.508L166,222.857Z" style="         fill: #8fd2ff;       "/>
      <path d="M205.437,257.337l-51.91-29.881L71.441,248.005a.5.5,0,0,1-.544-.217l-17.13-27.064a.5.5,0,0,1,.089-.639l76.177-68.344a.5.5,0,0,1,.527-.089l57.776,24.127-.385.923L130.466,152.7,54.838,220.547l16.711,26.4,81.931-20.511a.488.488,0,0,1,.371.052l52.085,29.982Z" style="         fill: #00257d;       "/>
      <path d="M205.686,245.038a.5.5,0,0,1-.239-.061L165.756,223.3a.5.5,0,0,1-.211-.22l-26.564-54.8a.5.5,0,0,1,.635-.682l42.5,16.908a.5.5,0,0,1,.28.28l23.752,59.568a.5.5,0,0,1-.465.685ZM166.375,222.5l38.333,20.939L181.55,185.355,140.443,169Z" style="         fill: #00257d;       "/>
      <path d="M88.871,234.691a.5.5,0,0,1-.427-.239L75.882,213.841a.5.5,0,0,1,.094-.634l8.762-7.805a.5.5,0,0,1,.511-.094l44.867,17.082a.5.5,0,0,1-.045.949L89,234.673A.513.513,0,0,1,88.871,234.691ZM76.953,213.677,89.1,233.609l39.232-10.827L85.177,206.351Z" style="         fill: #00257d;       "/>
      <path d="M144.1,206.025l-19.837-34.441-27.992,24.88-.664-.747,28.451-25.288a.5.5,0,0,1,.412-.12.5.5,0,0,1,.353.244l20.144,34.973Z" style="         fill: #00257d;       "/>
    </g>
    <polygon points="323.892 256.903 323.892 214.84 330.94 208.471 330.94 252.5 323.892 256.903" style="         fill: #fff;       "/>
    <polygon points="169.109 147.558 201.914 252.097 208.998 256.903 208.998 177.275 169.109 147.558" style="         fill: #8fd2ff;       "/>
    <path d="M303.594,38.669V66.656L235.807,83.1v25.179c.558.216-2.466-.792-1.905-.578-55.524-8.571-98.649-25.642-105.84-60.346V95.316L323.381,214.84s130.127-97.724,145.281-109.149c-13.021-18.418-29.92-37.661-29.92-37.661C372.2,38.724,305.719,39.085,303.594,38.669Z" style="         fill: #0084cc;       "/>
    <path d="M327.416,40.317,303.594,66.656l27.346,40.465c42.518-6.077,78.548-19.007,107.8-39.091C409.4,56.519,379.416,45.2,327.416,40.317Z" style="         fill: #8fd2ff;       "/>
    <g>
      <path d="M303.594,38.669S248.828,57.563,235.807,83.1l67.787-16.439,23.822-26.339Z" style="         fill: #fff;       "/>
      <path d="M236.252,83.322l-.89-.454C248.324,57.45,302.881,38.386,303.431,38.2l.326.945C303.211,39.33,249.032,58.263,236.252,83.322Z" style="         fill: #00257d;       "/>
    </g>
    <path d="M438.742,68.03c-23.675,17.1-56.578,31.179-106.885,39.584L436.68,129.8l31.982-24.113A423.7,423.7,0,0,0,438.742,68.03Z" style="         fill: #fff;       "/>
    <g>
      <path d="M235.807,108.273V83.1S154.36,92.287,128.062,47.35C127.89,47.76,129.766,93.1,235.807,108.273Z" style="         fill: #8fd2ff;       "/>
      <path d="M236.307,108.274h-1V83.648a199.876,199.876,0,0,1-43.58-1.079c-21.687-3.044-50.411-11.581-64.1-34.966l.864-.505C154.329,91.243,234.94,82.69,235.751,82.6a.5.5,0,0,1,.556.5Z" style="         fill: #00257d;       "/>
    </g>
    <path d="M448.694,120.745,381.779,95.8c-14.344,4.667-31.207,8.469-50.839,11.32L436.68,129.8Z" style="         fill: #8fd2ff;       "/>
    <path d="M438.533,68.484c-59.653-27.45-134.2-29.3-134.949-29.315l.02-1c.749.016,75.5,1.867,135.347,29.407Z" style="         fill: #00257d;       "/>
    <path d="M235.925,83.581l-.236-.972,67.637-16.4,23.719-26.225.742.671L303.965,66.991a.5.5,0,0,1-.253.15Z" style="         fill: #00257d;       "/>
    <path d="M351.13,67.2V38.884l8.056-10.014,8.05,10.137V67.04s0,7.817-7.906,7.817S351.13,67.2,351.13,67.2Z" style="         fill: #0084cc;       "/>
    <path d="M323.892,215.34a.5.5,0,0,1-.261-.074L49.419,47.777l.521-.853L323.862,214.236l144.5-108.945.6.8L324.193,215.239A.5.5,0,0,1,323.892,215.34Z" style="         fill: #00257d;       "/>
    <g>
      <polygon points="49.679 47.35 49.679 55.104 208.998 177.275 229.183 157.196 49.679 47.35" style="         fill: #8fd2ff;       "/>
      <path d="M209,177.774a.5.5,0,0,1-.3-.1L49.375,55.5a.5.5,0,0,1-.2-.4V47.35a.5.5,0,0,1,.761-.426l179.5,109.845a.5.5,0,0,1,.091.781l-20.184,20.079A.5.5,0,0,1,209,177.774ZM50.179,54.858,208.956,176.612l19.423-19.322L50.179,48.243Z" style="         fill: #00257d;       "/>
    </g>
    <rect x="316.767" y="62.469" width="1" height="48.838" transform="translate(5.746 192.542) rotate(-34.05)" style="         fill: #00257d;       "/>
    <g>
      <polyline points="323.892 214.84 229.183 157.196 208.998 177.275 208.998 256.903 323.892 256.903 323.892 214.84" style="         fill: #0084cc;       "/>
      <path d="M209,257.4a.5.5,0,0,1-.5-.5v-79.63a.5.5,0,0,1,.148-.354l20.184-20.079a.5.5,0,0,1,.613-.073l94.709,57.644a.5.5,0,0,1,.24.428V256.9a.5.5,0,0,1-.5.5Zm.5-79.922V256.4H323.392V215.121l-94.135-57.294Z" style="         fill: #00257d;       "/>
    </g>
    <rect x="185.012" y="145.045" width="1" height="109.565" transform="translate(-51.32 64.711) rotate(-17.422)" style="         fill: #00257d;       "/>
    <g>
      <polyline points="208.998 265.074 58.316 194.535 58.316 143.368 152.493 205.405 164.488 230.86 208.998 256.116" style="         fill: #fff;       "/>
      <path d="M208.786,265.526,58.1,194.988a.5.5,0,0,1-.288-.453V143.369a.5.5,0,0,1,.263-.44.5.5,0,0,1,.513.022l94.176,62.037a.5.5,0,0,1,.177.2L164.873,230.5l44.372,25.179-.494.87L164.241,231.3a.506.506,0,0,1-.205-.222L152.1,205.746,58.816,144.3v49.92l150.394,70.4Z" style="         fill: #00257d;       "/>
    </g>
    <g>
      <polygon points="338.635 203.724 338.635 256.126 323.892 265.074 208.998 265.074 208.998 256.116 323.892 256.903 330.94 252.5 330.94 209.526 338.635 203.724" style="         fill: #fff;       "/>
      <path d="M323.892,265.574H209a.5.5,0,0,1-.5-.5v-8.957a.5.5,0,0,1,.5-.5H323.733l6.707-4.7V209.526a.5.5,0,0,1,.2-.4l7.695-5.8a.5.5,0,0,1,.8.4v52.4a.5.5,0,0,1-.24.428L324.151,265.5A.5.5,0,0,1,323.892,265.574Zm-114.394-1H323.752l14.383-8.729V204.727l-6.695,5.048v41.4a.5.5,0,0,1-.213.409l-7.049,4.941a.5.5,0,0,1-.287.091H209.5Z" style="         fill: #00257d;       "/>
    </g>
    <path d="M381.779,95.8,366.024,1.145S410.13,33.719,438.742,68.03C406.5,90.144,381.779,95.8,381.779,95.8Z" style="         fill: #fff;       "/>
    <path d="M279.7,111.092c-39.1,0-76.563-6.113-104.6-17.615-28.113-11.532-44.548-27.455-47.53-46.047l.987-.159c2.924,18.23,19.149,33.888,46.923,45.281C244.826,121,372.02,116.385,438.446,67.627l.592.805C399.22,97.66,337.655,111.092,279.7,111.092Z" style="         fill: #00257d;       "/>
    <path d="M468.253,105.978C428.108,48.771,374.629,7.578,366.719,1.64l15.553,94.08-.986.163L365.531.581A.5.5,0,0,1,366.318.1c.589.428,59.42,43.558,102.754,105.309Z" style="         fill: #00257d;       "/>
    <rect x="383.31" y="64.389" width="1" height="108.146" transform="translate(187.48 468.887) rotate(-77.893)" style="         fill: #00257d;       "/>
    <rect x="414.737" y="72.567" width="1" height="71.413" transform="translate(168.745 459.538) rotate(-69.556)" style="         fill: #00257d;       "/>
    <path d="M128.562,95.316h-1V47.85H49.679v-1h78.383a.5.5,0,0,1,.5.5Z" style="         fill: #00257d;       "/>
    <path d="M359.33,75.357a8.381,8.381,0,0,1-8.382-7.695.43.43,0,0,1-.075-.036.5.5,0,0,1-.243-.429V38.885a.5.5,0,0,1,.111-.314L358.8,28.557a.619.619,0,0,1,.391-.187.5.5,0,0,1,.39.189L367.627,38.7a.5.5,0,0,1,.109.311V67.04A8.371,8.371,0,0,1,359.33,75.357Zm-7.7-8.773a.411.411,0,0,1,.051.027.5.5,0,0,1,.243.429,7.407,7.407,0,0,0,14.812,0V39.182l-7.552-9.511-7.554,9.39Z" style="         fill: #00257d;       "/>
    <g>
      <circle cx="358.68" cy="66.69" r="4.793" style="         fill: #0084cc;       "/>
      <circle cx="346.706" cy="72.945" r="4.156" style="         fill: #0084cc;       "/>
      <polygon points="344.653 69.33 356.163 62.616 360.814 70.978 348.622 76.634 344.653 69.33" style="         fill: #0084cc;       "/>
      <path d="M346.706,77.6a4.643,4.643,0,0,1-2.409-8.62.534.534,0,0,1,.1-.083l11.51-6.714a.628.628,0,0,1,.079-.037,5.277,5.277,0,1,1,5.148,9.208.463.463,0,0,1-.114.076l-12.191,5.657a.5.5,0,0,1-.116.037A4.569,4.569,0,0,1,346.706,77.6Zm-1.69-7.9a.423.423,0,0,1-.107.084,3.643,3.643,0,0,0,1.8,6.82,3.6,3.6,0,0,0,1.676-.427.482.482,0,0,1,.153-.05l11.96-5.549a.437.437,0,0,1,.088-.059,4.277,4.277,0,1,0-4.152-7.466.515.515,0,0,1-.1.046Z" style="         fill: #00257d;       "/>
      <path d="M346.706,77.6a4.656,4.656,0,1,1,4.656-4.656A4.66,4.66,0,0,1,346.706,77.6Zm0-8.312a3.656,3.656,0,1,0,3.656,3.656A3.66,3.66,0,0,0,346.706,69.289Z" style="         fill: #00257d;       "/>
      <path d="M353.246,75.038l-.471-.883a3.878,3.878,0,1,0-3.764-6.78l-.5-.865a4.878,4.878,0,1,1,4.737,8.528Z" style="         fill: #00257d;       "/>
      <path d="M356.906,73.342l-.383-.924a4.093,4.093,0,1,0-3.47-7.4l-.466-.885a5.093,5.093,0,1,1,4.319,9.213Z" style="         fill: #00257d;       "/>
    </g>
    <g>
      <polygon points="200.205 229.984 205.326 230.636 205.143 243.933 202.766 243.047 200.205 229.984" style="         fill: #fff;       "/>
      <path d="M205.143,244.433a.5.5,0,0,1-.174-.031l-2.378-.887a.5.5,0,0,1-.316-.372l-2.56-13.063a.5.5,0,0,1,.554-.592l5.12.652a.5.5,0,0,1,.437.5l-.183,13.3a.5.5,0,0,1-.5.493Zm-1.94-1.757,1.45.541.167-12.141-3.991-.508Z" style="         fill: #00257d;       "/>
    </g>
    <rect x="218.617" y="83.869" width="1" height="21.51" style="         fill: #00257d;       "/>
    <rect x="201.617" y="83.211" width="1" height="18.479" style="         fill: #00257d;       "/>
    <rect x="184.617" y="80.994" width="1" height="15.703" style="         fill: #00257d;       "/>
    <rect x="167.617" y="76.731" width="1" height="13.104" style="         fill: #00257d;       "/>
    <rect x="150.617" y="69.345" width="1" height="10.696" style="         fill: #00257d;       "/>
    <rect x="137.617" y="59.884" width="1" height="8.163" style="         fill: #00257d;       "/>
  </g>
</svg></g><!--ITEM: Illustration component 3--><g transform="translate(1265.625 463.125) rotate(0.0 417.1875 365.625) translate(60.16982146548793 0.0) scale(2.792372952259835 2.794571747405109)"><svg width="277.2570826930396" height="261.668" viewBox="21.547917306960443 0.0 277.2570826930396 261.668"><g id="&#1057;&#1083;&#1086;&#1081;_2-i3" data-name="&#1057;&#1083;&#1086;&#1081; 2">
    <g id="sitting_dog_tongue_out-i3">
      <path d="M62.291,210.353c-33.259,8.083-54.564-21.281-50.379-61.227-27.772,48.316-3.043,95.11,54.528,88.76Z" style="         fill: #fff;       "/>
      <path d="M182.214,42.243l-12.1,47.067L60.158,196.286l9.765,64.807L157.6,246.407l-6.655-17.347-20.934,3.719c21.478-4.121,30.826-12.114,29.813-25.047l52.432-37.608,25.293-11.062.968-102.292h41.9L286.5,42.243h-30.95l5.258-3.479,33.525-10.039L298.28.508l-40.1,13.147Z" style="         fill: #fff;       "/>
      <path d="M176.091,66.224c21.375-1.545,44.55-25.736,54.039-30.742,17.165-9.055,28.077-13.1,28.077-21.752L249,.583,205.373,13.7,188.1,5.442,154.185,22.757s-12.468,19.915,4.106,19.377a25.383,25.383,0,0,0,12.22-3.948l11.728,4.132Z" style="         fill: #cc7000;       "/>
      <path d="M272.455,42.134S259.421,36.9,248.267,38.84c-8,1.389-10.094,6.151-14.846,10.858-2.6,2.575-8.961,3.949-7.818,8.139s13.987,5.545,19.936,2.13C250.362,57.2,257.107,48.361,272.455,42.134Z" style="         fill: #ff6e85;       "/>
      <path d="M260.979,39.319l-.287-.958,33.218-9.947L297.7,1.308l-39.336,12.9a.5.5,0,0,1-.565-.188l-9-12.851L205.517,14.182l-.288-.958L248.86.1a.5.5,0,0,1,.553.192L258.4,13.139,298.149.108a.5.5,0,0,1,.652.544L294.856,28.87a.5.5,0,0,1-.351.409Z" style="         fill: #00257d;       "/>
      <path d="M236.617,62.407a22.27,22.27,0,0,1-8.092-1.374c-1.894-.782-3.071-1.842-3.405-3.064-.878-3.219,2.119-4.944,4.763-6.465a16.017,16.017,0,0,0,3.186-2.161c1.1-1.089,2.057-2.184,2.984-3.243,3.127-3.573,5.826-6.659,12.129-7.753,11.167-1.938,24.329,3.27,24.46,3.323a.5.5,0,0,1,0,.927c-10.555,4.283-16.935,9.743-21.593,13.73a38.868,38.868,0,0,1-5.262,4.074A19.14,19.14,0,0,1,236.617,62.407Zm16.924-23.494a30.418,30.418,0,0,0-5.188.42c-5.954,1.033-8.546,4-11.547,7.426-.939,1.072-1.909,2.18-3.034,3.294a16.887,16.887,0,0,1-3.391,2.318c-2.556,1.471-4.971,2.86-4.3,5.335.249.912,1.224,1.743,2.822,2.4,4.223,1.744,12.126,1.869,16.383-.574a38.33,38.33,0,0,0,5.109-3.967c4.535-3.88,10.682-9.141,20.684-13.4A57.136,57.136,0,0,0,253.541,38.913Z" style="         fill: #00257d;       "/>
      <path d="M241.12,51.894l-.76-.651a48.684,48.684,0,0,1,11.459-9.361l.49.872A47.577,47.577,0,0,0,241.12,51.894Z" style="         fill: #00257d;       "/>
      <path d="M280.444,57.346H249.672v-1h30.439l5.67-13.537-13.333-.175.014-1,14.073.184a.5.5,0,0,1,.454.694L280.9,57.039A.5.5,0,0,1,280.444,57.346Z" style="         fill: #00257d;       "/>
      <path d="M157.536,42.648c-3.7,0-6.205-1.089-7.455-3.245-3.272-5.638,3.4-16.453,3.681-16.911a.486.486,0,0,1,.2-.18L187.873,5a.5.5,0,0,1,.443-.006l23.659,11.315-.432.9L188.107,6,154.539,23.138c-.708,1.177-6.4,10.934-3.593,15.764,1.136,1.956,3.608,2.882,7.325,2.732,20.528-.792,29.836-28.7,29.928-28.984l.951.31c-.093.288-9.624,28.855-30.84,29.673C158.047,42.644,157.789,42.648,157.536,42.648Z" style="         fill: #00257d;       "/>
      <rect x="178.904" y="31.491" width="1" height="19.658" transform="translate(80.822 196.802) rotate(-70.593)" style="         fill: #00257d;       "/>
      <rect x="192.846" y="13.984" width="1" height="16.794" transform="translate(46.72 150.382) rotate(-47.723)" style="         fill: #00257d;       "/>
      <path d="M69.948,261.668a.5.5,0,0,1-.494-.425l-9.766-64.807a.5.5,0,0,1,.146-.433L169.684,89.125l12.071-46.931.969.249L170.618,89.51a.5.5,0,0,1-.136.234L60.715,196.541l9.652,64.05,86.576-14.5-6.288-16.39-20.526,3.647-.176-.985,20.934-3.719a.491.491,0,0,1,.554.313L158.1,246.3a.5.5,0,0,1-.384.673L70.031,261.661A.465.465,0,0,1,69.948,261.668Z" style="         fill: #00257d;       "/>
      <polygon points="170.134 89.386 238.546 89.386 238.403 76.281 173.504 76.281 170.134 89.386" style="         fill: #6eb60d;       "/>
      <path d="M160.144,208.213l-.584-.811,52.408-37.684a.5.5,0,0,1,.092-.053l25.021-10.857.966-96.912,1,.01-.969,97.237a.5.5,0,0,1-.3.453l-25.269,10.965Z" style="         fill: #00257d;       "/>
      <path d="M105.349,237.749l-.176-.984,24.78-4.4c13.922-2.866,28.294-7.561,29.241-20.627,1.007-13.874-7.566-21.94-28.664-26.968l.233-.973c21.388,5.1,30.464,13.738,29.429,28.014-1,13.73-15.75,18.591-30.05,21.536Z" style="         fill: #00257d;       "/>
      <polygon points="184.346 172.328 204.166 237.886 235.125 233.047 229.497 215.185 217.386 217.337 210.264 151.743 184.346 172.328" style="         fill: #fff;       "/>
      <path d="M204.166,238.386a.5.5,0,0,1-.479-.355l-19.82-65.559.957-.289,19.694,65.142,29.956-4.683-5.322-16.888-11.678,2.075a.5.5,0,0,1-.585-.438L209.768,151.8l.994-.108,7.063,65.062,11.584-2.058a.493.493,0,0,1,.565.342L235.6,232.9a.5.5,0,0,1-.4.645l-30.959,4.839A.509.509,0,0,1,204.166,238.386Z" style="         fill: #00257d;       "/>
      <rect x="211.166" y="216.301" width="18.473" height="1" transform="translate(-34.679 42.121) rotate(-10.125)" style="         fill: #00257d;       "/>
      <path d="M238.547,89.885H170.134a.5.5,0,0,1-.485-.624l3.37-13.1a.5.5,0,0,1,.485-.376h64.9a.5.5,0,0,1,.5.495l.144,13.1a.5.5,0,0,1-.145.357A.5.5,0,0,1,238.547,89.885Zm-67.769-1h67.263l-.132-12.1H173.892Z" style="         fill: #00257d;       "/>
      <path d="M56.341,238.956c-21.446,0-38.76-8.026-48.382-22.728C-3.774,198.3-2.457,173.122,11.478,148.877a.5.5,0,0,1,.931.3C10.036,171.833,16,191.81,28.362,202.617c9.056,7.917,20.745,10.426,33.811,7.25a.5.5,0,0,1,.612.411l4.149,27.534a.5.5,0,0,1-.439.571A92.7,92.7,0,0,1,56.341,238.956ZM11.2,151.429C-1.465,174.7-2.4,198.577,8.8,215.68c10.813,16.522,31.6,24.439,57.072,21.765l-3.99-26.48c-13.18,3.058-24.985.437-34.174-7.595C15.53,192.727,9.434,173.433,11.2,151.429Z" style="         fill: #00257d;       "/>
      <path d="M287.823,17.123a.5.5,0,0,1-.5-.447L286.031,4.5a.5.5,0,0,1,.341-.528L298.149.108a.5.5,0,0,1,.652.544L296.838,14.7a.5.5,0,0,1-.381.417l-8.52,2A.492.492,0,0,1,287.823,17.123Zm-.755-12.33,1.193,11.214,7.634-1.789,1.8-12.91Z" style="         fill: #00257d;       "/>
      <polygon points="286.529 4.444 287.823 16.623 296.342 14.627 298.305 0.583 286.529 4.444" style="         fill: #00257d;       "/>
      <path d="M175.434,66.772l6.207-24.134-11.062-3.9a25.687,25.687,0,0,1-12.271,3.892c-4.142.142-6.9-.972-8.229-3.287-3.252-5.654,3.4-16.4,3.683-16.854l.073-.117,34.259-17.49,17.32,8.283L249.206,0l9.5,13.572v.158c0,7.651-7.914,11.7-21.024,18.408-2.288,1.171-4.733,2.421-7.32,3.786-2.667,1.407-6.541,4.438-11.026,7.948-11.724,9.172-27.78,21.735-43.21,22.85Zm-5-29.142L182.838,42,176.75,65.667c14.917-1.416,30.526-13.628,41.971-22.583,4.523-3.539,8.429-6.6,11.175-8.044,2.591-1.367,5.04-2.62,7.33-3.792,12.678-6.486,20.367-10.419,20.48-17.362l-8.9-12.72-43.47,13.071L188.107,6,154.539,23.138c-.707,1.171-6.38,10.865-3.593,15.71,1.134,1.97,3.635,2.912,7.328,2.786a25.094,25.094,0,0,0,11.953-3.859Z" style="         fill: #00257d;       "/>
      <g>
        <path d="M152.488,106.554,105.261,152.5a71.455,71.455,0,0,0,11.4,5.745c24.513,9.739,49.565,4.593,55.956-11.493C177.806,133.687,169.085,117.419,152.488,106.554Z" style="         fill: #cc7000;       "/>
        <path d="M141.216,163.655a67.594,67.594,0,0,1-24.742-4.942A72.015,72.015,0,0,1,105,152.927a.5.5,0,0,1-.084-.782L152.14,106.2a.5.5,0,0,1,.622-.06c17.339,11.351,25.5,27.748,20.317,40.8C168.806,157.694,156.314,163.655,141.216,163.655Zm-35.147-11.241a71.242,71.242,0,0,0,10.774,5.37c24.216,9.621,49.028,4.59,55.306-11.214,4.974-12.518-2.9-28.3-19.6-39.377Z" style="         fill: #00257d;       "/>
      </g>
      <path d="M240.345,22.328a.424.424,0,0,1-.051,0,.5.5,0,0,1-.357-.207l-.848-1.188a.5.5,0,0,1-.042-.51,33.471,33.471,0,0,1,2.085-3.574,12.681,12.681,0,0,0-2.724,2.12.5.5,0,0,1-.4.149.5.5,0,0,1-.369-.208l-.764-1.072a.5.5,0,0,1-.017-.556c4.947-7.916,14.963-6.229,15.065-6.211a.5.5,0,0,1,.384.329l1.468,4.247a.5.5,0,0,1-.441.662A21.6,21.6,0,0,0,240.684,22.2.5.5,0,0,1,240.345,22.328Zm-.268-1.735.349.488a22.824,22.824,0,0,1,12.2-5.718l-1.158-3.35c-1.583-.2-9.4-.8-13.576,5.517l.228.32a11.876,11.876,0,0,1,4.318-2.7.5.5,0,0,1,.545.775A40.18,40.18,0,0,0,240.077,20.593Z" style="         fill: #00257d;       "/>
      <path d="M251.839,11.56s-9.728-1.737-14.553,5.984l.765,1.072a11.7,11.7,0,0,1,4.527-2.986,39.257,39.257,0,0,0-3.082,5.009l.849,1.188c3.728-3.45,8.616-5.745,12.962-6.02Z" style="         fill: #00257d;       "/>
    </g>
  </g>
</svg></g><!--ITEM: Illustration component 4--><g transform="translate(221.25 727.5) rotate(5.419069683523447 352.5 527.8125) translate(0.0 535.1947277719707) scale(2.2885375109151878 2.28496194706356)"><svg width="256.4410664893617" height="227.30137833037298" viewBox="0.0 234.22478805818093 256.4410664893617 227.30137833037298"><g id="cosmic_vr_adventure-i4">
    <g id="rocket_trace-i4">
      <path d="M184.072,220.827C197.284,181.572,314.859,197.5,307.2,93.757,299.218-14.348,152.476-.994,123.37,3.535,181.582,3.535,271.688,29.8,268.436,73c-4.13,54.871-142,63.575-197.152,110.785C41.86,208.971,36.05,236.893,34.615,246.8v.016A79.178,79.178,0,0,0,89.408,390.539c-.009.459-.035.913-.035,1.374a69.573,69.573,0,0,0,132.848,28.926c21.4-43.757,57.75-48.961,57.75-48.961l-19.7-86.508c-1.963,11.8-40.389,26.556-53.1,7.9h0a36.183,36.183,0,0,0-24.7-55.983A39.845,39.845,0,0,1,184.072,220.827Z" style="         fill: #fff;       "/>
      <path d="M158.948,461.988a70.155,70.155,0,0,1-70.075-70.076c0-.271.009-.54.018-.808A79.705,79.705,0,0,1,34.157,246.521c2.033-13.72,9.52-39.764,36.8-63.119,23.276-19.926,61.051-32.948,97.584-45.54,49.9-17.2,97.025-33.446,99.393-64.9.688-9.123-2.848-17.936-10.51-26.195C232.619,20.018,169.785,4.035,123.37,4.035a.5.5,0,0,1-.077-.994A307.253,307.253,0,0,1,189.4.852c36.7,2.841,65.518,12.4,85.663,28.4,19.649,15.611,30.628,37.3,32.634,64.467,4.916,66.591-41.619,84.207-79.011,98.362-21.161,8.011-39.437,14.93-44.141,28.906h0a39.191,39.191,0,0,0-1.616,15.864,36.868,36.868,0,0,1,30.9,36.221,36.5,36.5,0,0,1-6.054,20.191c7.5,10.6,22.442,8.64,28.559,7.294,11.961-2.632,22.476-9.482,23.439-15.27a.5.5,0,0,1,.479-.418.511.511,0,0,1,.5.389l19.7,86.508a.5.5,0,0,1-.416.606c-.362.052-36.342,5.692-57.372,48.687A70.283,70.283,0,0,1,158.948,461.988Zm-69.54-71.949a.5.5,0,0,1,.5.51l-.017.556c-.008.268-.018.537-.018.807a69.073,69.073,0,0,0,131.894,28.719c19.869-40.622,53-48.276,57.6-49.155l-19.173-84.183c-2.558,5.75-12.326,11.75-23.643,14.241-6.37,1.4-22.019,3.427-29.791-7.984a.5.5,0,0,1,0-.56,35.684,35.684,0,0,0-24.364-55.209.5.5,0,0,1-.425-.45,40.425,40.425,0,0,1,1.629-16.663l.474.159-.474-.159c4.855-14.425,23.336-21.421,44.735-29.522,37.081-14.037,83.229-31.507,78.367-97.353-1.984-26.877-12.837-48.328-32.258-63.758C254.456,14.158,225.818,4.674,189.324,1.849A312.2,312.2,0,0,0,130.005,3.14C175.815,4.563,234.334,20.4,258.161,46.084c7.857,8.472,11.482,17.539,10.774,26.95-2.418,32.113-49.849,48.463-100.065,65.773-36.444,12.562-74.128,25.553-97.26,45.354-27.228,23.309-34.556,49.293-36.5,62.706a.4.4,0,0,1-.211.356A78.715,78.715,0,0,0,79.724,390.65a79.7,79.7,0,0,0,9.623-.607A.417.417,0,0,1,89.408,390.039Z" style="         fill: #00257d;       "/>
    </g>
  </g>
</svg></g><!--ITEM: Illustration component 5--><g transform="translate(281.25 930.0) rotate(-52.88915929128397 352.5 527.8125) translate(332.1428571428572 535.7142857142865) scale(2.2885375109151878 2.28496194706356)"><svg width="81.11075265957453" height="59.902529307282435" viewBox="145.1332370820669 234.4521695001272 81.11075265957453 59.902529307282435"><g id="cosmic_vr_adventure-i5">
    <g id="rocket_trace-i5">
      <path d="M184.072,220.827C197.284,181.572,314.859,197.5,307.2,93.757,299.218-14.348,152.476-.994,123.37,3.535,181.582,3.535,271.688,29.8,268.436,73c-4.13,54.871-142,63.575-197.152,110.785C41.86,208.971,36.05,236.893,34.615,246.8v.016A79.178,79.178,0,0,0,89.408,390.539c-.009.459-.035.913-.035,1.374a69.573,69.573,0,0,0,132.848,28.926c21.4-43.757,57.75-48.961,57.75-48.961l-19.7-86.508c-1.963,11.8-40.389,26.556-53.1,7.9h0a36.183,36.183,0,0,0-24.7-55.983A39.845,39.845,0,0,1,184.072,220.827Z" style="         fill: #fff;       "/>
      <path d="M158.948,461.988a70.155,70.155,0,0,1-70.075-70.076c0-.271.009-.54.018-.808A79.705,79.705,0,0,1,34.157,246.521c2.033-13.72,9.52-39.764,36.8-63.119,23.276-19.926,61.051-32.948,97.584-45.54,49.9-17.2,97.025-33.446,99.393-64.9.688-9.123-2.848-17.936-10.51-26.195C232.619,20.018,169.785,4.035,123.37,4.035a.5.5,0,0,1-.077-.994A307.253,307.253,0,0,1,189.4.852c36.7,2.841,65.518,12.4,85.663,28.4,19.649,15.611,30.628,37.3,32.634,64.467,4.916,66.591-41.619,84.207-79.011,98.362-21.161,8.011-39.437,14.93-44.141,28.906h0a39.191,39.191,0,0,0-1.616,15.864,36.868,36.868,0,0,1,30.9,36.221,36.5,36.5,0,0,1-6.054,20.191c7.5,10.6,22.442,8.64,28.559,7.294,11.961-2.632,22.476-9.482,23.439-15.27a.5.5,0,0,1,.479-.418.511.511,0,0,1,.5.389l19.7,86.508a.5.5,0,0,1-.416.606c-.362.052-36.342,5.692-57.372,48.687A70.283,70.283,0,0,1,158.948,461.988Zm-69.54-71.949a.5.5,0,0,1,.5.51l-.017.556c-.008.268-.018.537-.018.807a69.073,69.073,0,0,0,131.894,28.719c19.869-40.622,53-48.276,57.6-49.155l-19.173-84.183c-2.558,5.75-12.326,11.75-23.643,14.241-6.37,1.4-22.019,3.427-29.791-7.984a.5.5,0,0,1,0-.56,35.684,35.684,0,0,0-24.364-55.209.5.5,0,0,1-.425-.45,40.425,40.425,0,0,1,1.629-16.663l.474.159-.474-.159c4.855-14.425,23.336-21.421,44.735-29.522,37.081-14.037,83.229-31.507,78.367-97.353-1.984-26.877-12.837-48.328-32.258-63.758C254.456,14.158,225.818,4.674,189.324,1.849A312.2,312.2,0,0,0,130.005,3.14C175.815,4.563,234.334,20.4,258.161,46.084c7.857,8.472,11.482,17.539,10.774,26.95-2.418,32.113-49.849,48.463-100.065,65.773-36.444,12.562-74.128,25.553-97.26,45.354-27.228,23.309-34.556,49.293-36.5,62.706a.4.4,0,0,1-.211.356A78.715,78.715,0,0,0,79.724,390.65a79.7,79.7,0,0,0,9.623-.607A.417.417,0,0,1,89.408,390.039Z" style="         fill: #00257d;       "/>
    </g>
  </g>
</svg></g><!--ITEM: Illustration component 6--><g transform="translate(-547.5 1233.75) rotate(0.0 1715.625 418.125) translate(803.3752399016244 104.62561263835111) scale(4.947664702260533 4.930515839558509)"><svg width="530.5533333333333" height="148.3869865079189" viewBox="162.37463293229453 21.220013492081097 530.5533333333333 148.3869865079189"><g>
    <rect x="69.188" width="100.668" height="1" style="         fill: #00257d;       "/>
    <rect x="39.722" y="27.34" width="94.047" height="1" style="         fill: #00257d;       "/>
    <rect x="86.745" y="70.38" width="74.363" height="1" style="         fill: #00257d;       "/>
    <rect y="82.426" width="98.775" height="1" style="         fill: #00257d;       "/>
    <rect x="63.69" y="130.775" width="90.237" height="1" style="         fill: #00257d;       "/>
    <rect x="537.865" y="168.607" width="155.645" height="1" style="         fill: #00257d;       "/>
    <rect x="174.865" y="168.607" width="149.427" height="1" style="         fill: #00257d;       "/>
    <rect x="473.986" y="168.607" width="39.114" height="1" style="         fill: #00257d;       "/>
    <rect x="433.563" y="168.558" width="16.877" height="1" style="         fill: #00257d;       "/>
    <rect x="133.541" y="168.558" width="16.876" height="1" style="         fill: #00257d;       "/>
  </g>
</svg></g><!--ITEM: Illustration component 7--><g transform="translate(412.5 -3.75) rotate(0.0 465.0 969.375) translate(0.0 228.58054989956665) scale(3.6007852034830825 3.602600004088057)"><svg width="257.7562802419354" height="176.43507446808513" viewBox="0.0 63.448773008434046 257.7562802419354 176.43507446808513"><g id="&#1057;&#1083;&#1086;&#1081;_2-i7" data-name="&#1057;&#1083;&#1086;&#1081; 2">
    <g>
      <rect y="-0.5" width="212.044" height="1" style="         fill: #00257d;       "/>
      <rect x="84.095" y="115.023" width="76.339" height="1" style="         fill: #00257d;       "/>
      <rect x="35.575" y="144.303" width="83.909" height="1" style="         fill: #00257d;       "/>
      <rect x="106.021" y="490.113" width="54.412" height="1" style="         fill: #00257d;       "/>
      <rect x="35.575" y="537.653" width="222.702" height="1" style="         fill: #00257d;       "/>
    </g>
  </g>
</svg></g><!--ITEM: Illustration component 8--><g transform="translate(924.375 187.5) rotate(-6.037136276301137 532.5 697.5)  scale(2.9623324821842822 2.956034548521347)"><svg width="359.514" height="471.916" viewBox="0.0 0.0 359.514 471.916"><g id="cosmic_vr_adventure-i8">
    <g id="girl_surprised_sitting-i8">
      <polygon points="191.002 233.855 273.764 335.31 303.699 337.114 337.958 348.085 359.014 313.884 322.817 296.27 282.883 296.386 250.083 240.985 204.176 190.668 191.002 233.855" style="         fill: #ffd6b5;       "/>
      <path d="M198.6,4.737,186.906,9.808,150.383.5,100.094,46.864c.529,23.812-1.638,35.074-13.858,40.913-21.659,10.349-31.76-13.127-56.27-.819C66.987,103.429,45.54,129.8,80.28,158.219l27.959-22.425-12.29,33.65c10.236,5.109,23.933,8.751,42.914,10.143l43.748-42.293L222.5,58.078S225.608,22.05,198.6,4.737Z" style="         fill: #00257d;       "/>
      <path d="M138.863,180.087h-.036c-17.887-1.312-31.985-4.647-43.1-10.2a.5.5,0,0,1-.246-.62l11.675-31.966-26.563,21.3a.5.5,0,0,1-.615.009c-16.172-12.284-20.286-26.02-23.916-38.139-4.1-13.674-7.633-25.484-26.283-33.057a.5.5,0,0,1-.025-.915C42.7,80.408,51.6,83.6,60.2,86.685c7.978,2.862,15.516,5.564,25.816.641,12.253-5.854,14.09-17.21,13.573-40.452a.5.5,0,0,1,.161-.378L150.044.133a.5.5,0,0,1,.462-.117l36.359,9.265,11.536-5a.5.5,0,0,1,.468.038C225.821,21.592,223.028,57.757,223,58.12a.464.464,0,0,1-.051.182l-39.888,79.217a.5.5,0,0,1-.1.134L139.21,179.946A.5.5,0,0,1,138.863,180.087Zm-42.29-10.893c10.888,5.348,24.67,8.58,42.1,9.877L182.2,136.993,222.007,57.94C222.15,55.9,224.09,21.875,198.554,5.3l-11.448,4.964a.489.489,0,0,1-.322.025l-36.261-9.24L100.6,47.078c.5,23.064-1.515,35.115-14.146,41.151-10.68,5.1-18.406,2.331-26.585-.6s-16.631-5.965-28.65-.688C49.39,94.724,53.1,107.1,57.019,120.19c3.562,11.9,7.6,25.367,23.253,37.394l27.654-22.18a.5.5,0,0,1,.782.562Z" style="         fill: #00257d;       "/>
      <polygon points="158.544 126.465 149.83 156.939 180.827 150.448 184.852 132.842 158.544 126.465" style="         fill: #ffd6b5;       "/>
      <path d="M228.554,78.25c5.713,33.278-8.443,63.481-31.619,67.459-19.831,3.405-39.839-13.493-48.782-39.29-8.888,7.818-20.657-5.864-18.6-15.191,1.7-7.719,8.239-9.209,14.354-3.612-3.535-31.235,10.337-58.64,32.336-62.417C199.421,21.22,222.84,44.972,228.554,78.25Z" style="         fill: #ffd6b5;       "/>
      <path d="M210.165,39.031c-8.425-12.138-20.951-20.7-37.051-26.145l-29.484,27.9c-9.46,14.334-9.868,32.457-9.417,41.073l8.287,1.66,6.98-2.961c-.049-3.974.293-15.415,5.37-23.835a93.73,93.73,0,0,0,1.462,20.937l7.277-3.1c-.025-3.028.058-9.748.714-11.808a69.165,69.165,0,0,1,3.923,9.832l20.6-8.779c8.334-15.6,7.3-28.339,7.3-28.339C201.505,34.882,206.825,37.224,210.165,39.031Z" style="         fill: #00257d;       "/>
      <path d="M142.5,84.017a.466.466,0,0,1-.1-.01l-8.287-1.66a.5.5,0,0,1-.4-.464c-.489-9.337.095-27.127,9.5-41.375a.517.517,0,0,1,.073-.088l29.486-27.9a.5.5,0,0,1,.5-.11c16.5,5.579,29.045,14.44,37.3,26.334a.5.5,0,0,1-.65.725c-4.911-2.657-9.391-3.856-13.283-3.557.081,2.516.01,14.285-7.382,28.12a.505.505,0,0,1-.245.225l-20.595,8.779a.5.5,0,0,1-.406-.006.5.5,0,0,1-.268-.3c-.085-.273-.184-.615-.3-1.01a38.072,38.072,0,0,0-2.915-7.653,85.845,85.845,0,0,0-.445,10.486.5.5,0,0,1-.3.464l-7.277,3.1a.493.493,0,0,1-.432-.019.5.5,0,0,1-.255-.349,94.968,94.968,0,0,1-1.539-18.964c-4,7.941-4.352,17.722-4.3,21.765a.5.5,0,0,1-.3.466L142.7,83.977A.513.513,0,0,1,142.5,84.017Zm-7.807-2.575L142.448,83l6.529-2.771c-.028-4.65.493-15.549,5.445-23.763a.5.5,0,0,1,.927.28,93.84,93.84,0,0,0,1.342,20.209l6.4-2.725c-.009-1.861.005-9.326.74-11.631a.5.5,0,0,1,.4-.343.5.5,0,0,1,.485.211c1.873,2.725,3.058,6.791,3.694,8.975.047.164.092.318.134.461l19.919-8.491c8.071-15.2,7.171-27.782,7.161-27.908a.5.5,0,0,1,.445-.537c3.731-.4,7.918.5,12.485,2.685C200.474,26.836,188.605,18.7,173.24,13.456l-29.225,27.65C134.928,54.913,134.248,72.142,134.693,81.442Z" style="         fill: #00257d;       "/>
      <path d="M151.5,152.783l-.961-.275L158,126.563a75.674,75.674,0,0,1-10.076-19.3c-3.219,2.493-7.026,2.654-10.8.428-5.618-3.317-9.308-10.9-8.057-16.569.816-3.7,2.758-6.2,5.467-7.058,2.651-.838,5.789.021,8.746,2.361-3.055-31.02,11.238-58,32.88-61.718,23.426-4.018,47.136,19.964,52.887,53.46S220.43,142.183,197.02,146.2a33.485,33.485,0,0,1-21.588-3.9,45.152,45.152,0,0,1-6.454-4.24l.6-.8a44.191,44.191,0,0,0,6.314,4.151,32.488,32.488,0,0,0,20.953,3.8c22.867-3.926,36.868-33.93,31.211-66.882S199.183,21.764,176.33,25.691C154.919,29.367,140.9,56.544,144.406,87.56a.5.5,0,0,1-.835.425c-2.957-2.707-6.142-3.79-8.737-2.969-2.353.743-4.054,2.988-4.791,6.319-1.166,5.281,2.31,12.376,7.59,15.493,3.586,2.119,7.206,1.84,10.191-.784a.5.5,0,0,1,.8.211,74.8,74.8,0,0,0,10.32,19.913.5.5,0,0,1,.078.435Z" style="         fill: #00257d;       "/>
      <rect x="202.844" y="93.645" width="1.001" height="6.926" transform="translate(43.821 256.266) rotate(-70.461)" style="         fill: #00257d;       "/>
      <rect x="208.896" y="94.798" width="5.335" height="1" transform="translate(24.753 232.931) rotate(-60.63)" style="         fill: #00257d;       "/>
      <path d="M80.464,97.757c-6.457,0-13.614-2.263-21.414-6.783l.5-.866c13.534,7.845,25.033,8.744,34.178,2.674,14.792-9.817,18.557-34.5,17.732-41a.5.5,0,0,1,.183-.453l44.206-35.593a.531.531,0,0,1,.359-.108l33.89,3.157-.093,1L156.32,16.646,112.486,51.938c.706,7.048-3.255,31.756-18.2,41.677A24.476,24.476,0,0,1,80.464,97.757Z" style="         fill: #fff;       "/>
      <path d="M133.6,80.823C131.96,57.1,143.1,40.662,143.218,40.5l.822.568c-.11.161-11.056,16.332-9.445,39.688Z" style="         fill: #fff;       "/>
      <rect x="138.362" y="88.448" width="1.001" height="10.954" transform="translate(-11.276 168.512) rotate(-60.491)" style="         fill: #00257d;       "/>
      <rect x="143.129" y="93.926" width="1" height="7.65" style="         fill: #00257d;       "/>
      <rect x="136.551" y="92.9" width="1" height="5.373" style="         fill: #00257d;       "/>
      <polygon points="210.165 55.371 211.123 63.799 221.995 63.799 220.609 59.091 210.165 55.371" style="         fill: #00257d;       "/>
      <path d="M222,64.3H211.123a.5.5,0,0,1-.5-.444l-.958-8.427a.5.5,0,0,1,.665-.528l10.444,3.721a.5.5,0,0,1,.311.329l1.387,4.707a.5.5,0,0,1-.48.642Zm-10.425-1h9.757L220.2,59.478l-9.45-3.367Z" style="         fill: #00257d;       "/>
      <path d="M207.109,35.136c-9.809-16.657-18.493-23.014-18.58-23.076l.584-.813c.088.064,8.929,6.522,18.857,23.381Z" style="         fill: #fff;       "/>
      <path d="M193.131,84.846c-5.437-4.37-15.479-7.73-25.3-1.194l-.355,3.336c9.071-4.383,16.563-4.652,25.128.789Z" style="         fill: #00257d;       "/>
      <path d="M192.606,88.277a.5.5,0,0,1-.269-.078c-8.046-5.11-15.185-5.334-24.641-.761a.5.5,0,0,1-.506-.041.5.5,0,0,1-.209-.461l.355-3.336a.5.5,0,0,1,.22-.364,21.638,21.638,0,0,1,25.888,1.22.5.5,0,0,1,.178.478l-.524,2.931a.5.5,0,0,1-.291.37A.487.487,0,0,1,192.606,88.277Zm-12.677-5.066a23.3,23.3,0,0,1,12.314,3.753l.342-1.912a20.626,20.626,0,0,0-24.279-1.112l-.236,2.216A28.3,28.3,0,0,1,179.929,83.211Z" style="         fill: #00257d;       "/>
      <path d="M215.243,81.244v3.7c1.2-4.071,7.7-8.174,11.383-7.095l-.82-3.178C221.968,74.434,216.728,76.053,215.243,81.244Z" style="         fill: #00257d;       "/>
      <path d="M215.243,85.445a.578.578,0,0,1-.071,0,.5.5,0,0,1-.429-.5v-3.7a.5.5,0,0,1,.02-.138c1.48-5.171,6.626-7.224,11.074-6.932a.5.5,0,0,1,.453.374l.821,3.179a.5.5,0,0,1-.625.6c-3.4-.994-9.629,2.921-10.763,6.756A.5.5,0,0,1,215.243,85.445Zm.5-4.13v1.479c2.184-3.238,6.9-5.926,10.2-5.58l-.532-2.058C222.336,75.048,217.227,76.275,215.743,81.315Z" style="         fill: #00257d;       "/>
      <polygon points="151.02 152.645 133.383 216.285 193.498 246.225 190.3 140.012 151.02 152.645" style="         fill: #fff;       "/>
      <path d="M337.957,348.585a.534.534,0,0,1-.152-.023l-34.2-10.953-29.872-1.8a.5.5,0,0,1-.358-.183L190.615,234.171a.5.5,0,0,1-.091-.462L203.7,190.522a.5.5,0,0,1,.368-.341.49.49,0,0,1,.479.15l45.907,50.317a.6.6,0,0,1,.061.082l32.654,55.155,39.649-.115h0a.5.5,0,0,1,.218.05l36.2,17.616a.5.5,0,0,1,.207.71l-21.057,34.2A.5.5,0,0,1,337.957,348.585Zm-63.944-13.762,29.716,1.792a.462.462,0,0,1,.122.023l33.886,10.851,20.562-33.4L322.7,296.77l-39.818.116h0a.5.5,0,0,1-.431-.245l-32.774-55.357L204.4,191.653l-12.84,42.092Z" style="         fill: #00257d;       "/>
      <polygon points="98.667 426.36 220.306 455.088 240.948 431.803 196.331 402.129 97.816 398.814 98.667 426.36" style="         fill: #ffd6b5;       "/>
      <path d="M220.306,455.588a.453.453,0,0,1-.115-.014L98.552,426.846l.231-.973L220.13,454.532,255.8,414.29l.748.664L220.68,455.42A.5.5,0,0,1,220.306,455.588Z" style="         fill: #00257d;       "/>
      <rect x="143.574" y="354.086" width="1.001" height="92.569" transform="translate(-260.915 530.897) rotate(-88.073)" style="         fill: #00257d;       "/>
      <polygon points="102.064 435.116 110.155 394.926 97.816 393.467 91.575 384.733 80.194 386.703 49.61 371.253 12.076 457.262 20.974 461.144 70.596 426.331 77.448 434.886 89.564 430.457 102.064 435.116" style="         fill: #fff;       "/>
      <polygon points="65.187 430.125 31.468 413.396 22.613 434.275 43.959 445.018 65.187 430.125" style="         fill: #8fd2ff;       "/>
      <rect x="47.826" y="402.939" width="1.001" height="37.642" transform="translate(-350.968 277.605) rotate(-63.612)" style="         fill: #00257d;       "/>
      <rect x="32.579" y="427.362" width="0.999" height="24.361" transform="translate(-374.412 271.485) rotate(-63.284)" style="         fill: #00257d;       "/>
      <path d="M20.974,461.645a.5.5,0,0,1-.2-.042l-8.9-3.883a.5.5,0,0,1-.258-.658l37.534-86.009a.5.5,0,0,1,.683-.246l30.437,15.376,11.218-1.942a.5.5,0,0,1,.492.2L98.094,393l12.119,1.435a.5.5,0,0,1,.347.2.5.5,0,0,1,.085.391l-8.091,40.19a.5.5,0,0,1-.247.338.505.505,0,0,1-.418.032L89.562,430.99,77.62,435.355a.5.5,0,0,1-.562-.157L70.5,427.01,21.261,461.554A.5.5,0,0,1,20.974,461.645ZM12.735,457l8.181,3.57,49.393-34.652a.5.5,0,0,1,.678.1l6.628,8.274,11.777-4.306a.5.5,0,0,1,.347,0l11.951,4.455,7.867-39.084-11.8-1.4a.5.5,0,0,1-.348-.205l-6.059-8.479L80.279,387.2a.5.5,0,0,1-.311-.047L49.857,371.938Z" style="         fill: #00257d;       "/>
      <rect x="-27.05" y="407.519" width="106.747" height="9.768" transform="translate(414.832 553.225) rotate(113.576)" style="         fill: #0084cc;       "/>
      <path d="M165.584,175.279l-4.362-.37-1.707-4.027a.782.782,0,0,0-1.439,0l-1.706,4.027-4.363.37a.781.781,0,0,0-.445,1.369l3.314,2.871-1,4.267a.782.782,0,0,0,1.165.846l3.751-2.264,3.75,2.264a.782.782,0,0,0,1.165-.846l-1-4.267,3.314-2.871A.781.781,0,0,0,165.584,175.279Z" style="         fill: #8fd2ff;       "/>
      <path d="M154.876,215.824l-1,4.267a.781.781,0,0,0,1.165.846l3.751-2.263,3.75,2.263a.781.781,0,0,0,1.165-.846l-1-4.267,3.314-2.871a.781.781,0,0,0-.446-1.368l-4.362-.37-1.707-4.027a.782.782,0,0,0-1.439,0l-1.706,4.027-4.363.37a.78.78,0,0,0-.445,1.368Z" style="         fill: #8fd2ff;       "/>
      <path d="M9.452,463.774a.492.492,0,0,1-.2-.042L.3,459.826a.5.5,0,0,1-.258-.658l42.7-97.837a.5.5,0,0,1,.658-.258l8.952,3.907a.5.5,0,0,1,.258.659L9.91,463.475A.5.5,0,0,1,9.452,463.774Zm-8.293-4.665L9.2,462.616l42.3-96.92-8.037-3.507Z" style="         fill: #00257d;       "/>
      <polygon points="125.966 195.927 129.318 225.799 124.051 239.587 90.221 275.331 90.168 312.2 169.382 397.378 164.008 400.948 237.285 471.416 256.179 414.622 179.89 295.26 176.084 275.959 186.394 265.491 211.562 255.48 125.966 195.927" style="         fill: #cc1d37;       "/>
      <path d="M237.285,471.916a.5.5,0,0,1-.347-.14l-73.277-70.467a.5.5,0,0,1,.071-.777l4.883-3.245L89.8,312.541a.5.5,0,0,1-.134-.342l.053-36.869a.5.5,0,0,1,.137-.343l33.761-35.672,5.188-13.582-3.338-29.751a.5.5,0,0,1,.782-.465l85.6,59.553a.5.5,0,0,1-.1.875l-25.07,9.972-10.051,10.2,3.738,18.949L256.6,414.353a.5.5,0,0,1,.054.427l-18.894,56.794a.5.5,0,0,1-.354.327A.493.493,0,0,1,237.285,471.916ZM164.8,401.02l72.256,69.487,18.568-55.817L179.469,295.529a.466.466,0,0,1-.069-.173l-3.807-19.3a.5.5,0,0,1,.134-.448l10.31-10.467a.51.51,0,0,1,.172-.115l24.3-9.667-83.927-58.392,3.229,28.776a.511.511,0,0,1-.03.235l-5.267,13.788a.518.518,0,0,1-.1.165l-33.693,35.6L90.668,312l79.08,85.033a.5.5,0,0,1,.13.4.492.492,0,0,1-.219.357Z" style="         fill: #00257d;       "/>
      <polygon points="176.084 275.959 124.051 239.587 129.38 225.637 186.394 265.491 176.084 275.959" style="         fill: #fa0;       "/>
      <path d="M176.083,276.459a.494.494,0,0,1-.286-.09L123.765,240a.5.5,0,0,1-.181-.589l5.329-13.95a.5.5,0,0,1,.321-.3.492.492,0,0,1,.432.068l57.014,39.854a.5.5,0,0,1,.212.364.5.5,0,0,1-.142.4L176.44,276.31A.5.5,0,0,1,176.083,276.459ZM124.658,239.4l51.366,35.908,9.6-9.746-56-39.149Z" style="         fill: #00257d;       "/>
      <rect x="336.64" y="296.441" width="0.999" height="36.521" transform="translate(-93.357 480.147) rotate(-64.051)" style="         fill: #00257d;       "/>
      <rect x="331.958" y="305.472" width="0.999" height="35.573" transform="translate(-103.682 480.757) rotate(-64.052)" style="         fill: #00257d;       "/>
      <rect x="326.473" y="315.469" width="0.999" height="34.822" transform="translate(-115.422 481.228) rotate(-64.051)" style="         fill: #00257d;       "/>
      <polygon points="190.3 140.012 250.083 240.985 184.161 275.959 167.421 177.033 190.3 140.012" style="         fill: #fff;       "/>
      <path d="M237.507,229.737a.781.781,0,0,0-.445,1.369l3.314,2.871-1,4.267a.781.781,0,0,0,1.165.846l3.751-2.264,3.75,2.264a.766.766,0,0,0,.9-.072l-6.508-10.991-.568,1.34Z" style="         fill: #8fd2ff;       "/>
      <path d="M194.084,157.126l-4.362-.369-1.707-4.027a.782.782,0,0,0-1.439,0l-1.706,4.027-4.363.369a.781.781,0,0,0-.445,1.369l3.314,2.871-1,4.267a.781.781,0,0,0,1.165.846l3.751-2.263,3.75,2.263a.781.781,0,0,0,1.165-.846l-1-4.267,3.314-2.871A.781.781,0,0,0,194.084,157.126Z" style="         fill: #8fd2ff;       "/>
      <path d="M208.562,176.648l3.314,2.871-1,4.267a.782.782,0,0,0,1.165.846l3.463-2.09L211.1,175.1l-2.1.178A.781.781,0,0,0,208.562,176.648Z" style="         fill: #8fd2ff;       "/>
      <path d="M194.084,193.432l-4.362-.37-1.707-4.027a.782.782,0,0,0-1.439,0l-1.706,4.027-4.363.37a.78.78,0,0,0-.445,1.368l3.314,2.872-1,4.267a.782.782,0,0,0,1.165.846l3.751-2.264,3.75,2.264a.782.782,0,0,0,1.165-.846l-1-4.267,3.314-2.872A.781.781,0,0,0,194.084,193.432Z" style="         fill: #8fd2ff;       "/>
      <path d="M222.584,211.585l-4.362-.37-1.707-4.027a.782.782,0,0,0-1.439,0l-1.706,4.027-4.363.37a.78.78,0,0,0-.445,1.368l3.314,2.871-1,4.267a.781.781,0,0,0,1.165.846l3.751-2.263,3.75,2.263a.781.781,0,0,0,1.165-.846l-1-4.267,3.314-2.871A.781.781,0,0,0,222.584,211.585Z" style="         fill: #8fd2ff;       "/>
      <path d="M183.376,233.977l-1,4.267a.781.781,0,0,0,1.165.846l3.751-2.264,3.75,2.264a.781.781,0,0,0,1.165-.846l-1-4.267,3.314-2.871a.781.781,0,0,0-.446-1.369l-4.362-.37-1.707-4.026a.782.782,0,0,0-1.439,0l-1.706,4.026-4.363.37a.781.781,0,0,0-.445,1.369Z" style="         fill: #8fd2ff;       "/>
      <path d="M219.716,252.13l3.314-2.872a.781.781,0,0,0-.446-1.368l-4.362-.37-1.707-4.027a.782.782,0,0,0-1.439,0l-1.706,4.027-4.363.37a.78.78,0,0,0-.445,1.368l3.314,2.872-1,4.267a.782.782,0,0,0,1.165.846l3.751-2.264,3.713,2.241,1.216-.645a.725.725,0,0,0-.014-.178Z" style="         fill: #8fd2ff;       "/>
      <path d="M191.216,270.282l3.314-2.871a.781.781,0,0,0-.446-1.368l-4.362-.37-1.707-4.027a.782.782,0,0,0-1.439,0l-1.706,4.027-2.387.2.72,4.258.173.149-.085.367.752,4.446,3.253-1.963,1.039.627,3.285-1.743Z" style="         fill: #8fd2ff;       "/>
      <path d="M184.161,276.459a.487.487,0,0,1-.22-.052.5.5,0,0,1-.273-.364l-14.635-85.9.986-.168,14.519,85.222,64.847-34.4L190.074,140.61l-38.643,12.429L137.4,203.678l-.963-.268,14.106-50.9a.5.5,0,0,1,.329-.342l39.279-12.634a.5.5,0,0,1,.584.221L250.513,240.73a.505.505,0,0,1,.051.391.5.5,0,0,1-.247.306L184.4,276.4A.5.5,0,0,1,184.161,276.459Z" style="         fill: #00257d;       "/>
      <rect x="129.458" y="220.458" width="25.627" height="1" transform="translate(-92.463 339.125) rotate(-83.944)" style="         fill: #00257d;       "/>
      <rect x="140.352" y="227.012" width="22.655" height="1" transform="translate(-120.323 255.501) rotate(-62.184)" style="         fill: #00257d;       "/>
      <polygon points="173.403 410.058 172.76 409.29 192.786 392.521 112.189 300.029 112.189 276.177 112.284 276.046 133.691 246.316 134.502 246.9 113.189 276.499 113.189 299.654 194.21 392.633 173.403 410.058" style="         fill: #00257d;       "/>
      <polygon points="190.726 426.572 189.939 425.955 213.012 396.605 128.833 297.217 126.837 273.679 140.486 251.115 141.341 251.633 127.861 273.919 129.802 296.814 214.303 396.582 190.726 426.572" style="         fill: #00257d;       "/>
      <ellipse cx="209.222" cy="115.473" rx="10.544" ry="6.842" transform="translate(85.654 320.019) rotate(-87.758)" style="         fill: #ff6e85;       "/>
      <path d="M203.1,111.09l11.78-1.857c-.8-2.227-2.392-3.893-5.747-4.315C206.1,105.333,204.185,107.536,203.1,111.09Z" style="         fill: #fff;       "/>
      <rect x="203.022" y="109.661" width="11.926" height="1.001" transform="translate(-14.639 33.987) rotate(-8.984)" style="         fill: #00257d;       "/>
      <path d="M202.385,115.205a20.13,20.13,0,0,1,12.145,6.424c-1.321,3.736-2.039,4.316-5.72,4.38C204.6,125.363,202.62,121.529,202.385,115.205Z" style="         fill: #cc1d37;       "/>
      <path d="M208.984,126.512c-.065,0-.129,0-.194,0-2-.078-3.821-1.328-5.124-3.52a14.345,14.345,0,0,1-1.781-7.8c.237-6.085,3.748-10.892,7.769-10.748,4.046.159,7.143,5.239,6.905,11.323h0C216.325,121.748,212.946,126.512,208.984,126.512Zm.471-21.078c-3.426,0-6.357,4.341-6.57,9.791a13.349,13.349,0,0,0,1.641,7.254,5.445,5.445,0,0,0,4.3,3.03c.053,0,.106,0,.159,0,3.426,0,6.358-4.342,6.571-9.791h0c.218-5.534-2.449-10.148-5.944-10.284C209.562,105.435,209.508,105.434,209.455,105.434Z" style="         fill: #00257d;       "/>
      <path d="M214.128,121.926a17.664,17.664,0,0,0-11.79-6.223l.094-1a18.356,18.356,0,0,1,12.5,6.625Z" style="         fill: #00257d;       "/>
    </g>
  </g>
</svg></g><!--ITEM: Illustration component 9--><g transform="translate(1779.375 236.25) rotate(9.608078898988287 -577.5 926.25) translate(-349.9616628785419 201.61809632041758) scale(-2.467690348660076 2.466546834431796)"><svg width="40.27044967532467" height="33.447570850202425" viewBox="141.81749467414605 81.7410371073952 40.27044967532467 33.447570850202425"><g id="marketing-i9">
    <g id="happy_girl_standing_on_one_leg-i9">
      <g>
        <polygon points="385.332 73.994 395.802 85.031 424.38 46.194 467.549 96.174 411.995 170.684 368.789 265.815 336.422 288.057 291.988 288.23 295.841 234.185 317.266 228.887 367.642 150.069 365.879 120.074 385.332 73.994" style="         fill: #ffd6b5;       "/>
        <path d="M291.988,288.73a.5.5,0,0,1-.5-.535l3.853-54.046a.5.5,0,0,1,.379-.449l21.232-5.25,50.18-78.514L365.38,120.1a.5.5,0,0,1,.038-.223L384.871,73.8a.5.5,0,0,1,.372-.3.494.494,0,0,1,.452.148l10.058,10.6L423.977,45.9a.5.5,0,0,1,.383-.2.484.484,0,0,1,.4.173l43.169,49.979a.5.5,0,0,1,.023.626L412.427,170.94l-43.182,95.082a.5.5,0,0,1-.172.2L336.705,288.47a.5.5,0,0,1-.281.087l-44.434.173Zm4.326-54.147-3.789,53.145,43.741-.17,32.126-22.076,43.147-95.005a.574.574,0,0,1,.055-.092L466.908,96.2,424.411,47,396.2,85.327a.5.5,0,0,1-.371.2.512.512,0,0,1-.393-.155L385.5,74.892l-19.111,45.269,1.756,29.878a.493.493,0,0,1-.078.3l-50.376,78.818a.491.491,0,0,1-.3.216Z" style="         fill: #00257d;       "/>
        <path d="M395.187,129.865l-5.413-15.209a.5.5,0,0,1-.021-.261l5.558-29.457.982.185-5.532,29.325,5.367,15.082Z" style="         fill: #00257d;       "/>
        <rect x="398.656" y="76.43" width="45.539" height="1" transform="translate(101.848 362.216) rotate(-52.1)" style="         fill: #00257d;       "/>
        <rect x="410.576" y="88.694" width="44.541" height="0.999" transform="translate(96.798 376.217) rotate(-52.145)" style="         fill: #00257d;       "/>
        <rect x="421.77" y="100.542" width="43.439" height="1" transform="translate(85.223 381.286) rotate(-50.868)" style="         fill: #00257d;       "/>
        <rect x="418.208" y="84.842" width="0.999" height="42.931" transform="translate(46.075 324.853) rotate(-44.637)" style="         fill: #00257d;       "/>
      </g>
      <polyline points="168.209 170.296 190.025 195.192 203.642 166.337 200.325 142.895 182.379 129.461 163.755 139.187 168.209 169.248" style="         fill: #ffd6b5;       "/>
      <g>
        <polygon points="279.531 184.803 305.734 208.142 318.781 205.079 325.266 213.887 321.436 381.632 232.128 324.821 279.531 184.803" style="         fill: #cc1d37;       "/>
        <path d="M321.436,382.132a.51.51,0,0,1-.269-.078L231.86,325.243l.537-.844,88.559,56.335,3.806-166.688-6.188-8.405-12.726,2.988a.5.5,0,0,1-.447-.113l-26.2-23.34.666-.747L305.872,207.6l12.794-3a.5.5,0,0,1,.517.19l6.485,8.809a.5.5,0,0,1,.1.307l-3.83,167.745a.5.5,0,0,1-.5.489Z" style="         fill: #00257d;       "/>
      </g>
      <g>
        <polygon points="60.628 270.568 87.819 396.568 109.794 272.1 80.543 246.125 60.628 270.568" style="         fill: #cc1d37;       "/>
        <path d="M87.819,397.068a.5.5,0,0,1-.489-.394l-27.191-126a.5.5,0,0,1,.1-.422l19.915-24.443a.5.5,0,0,1,.347-.183.513.513,0,0,1,.372.125l29.252,25.975a.5.5,0,0,1,.161.461L88.311,396.655a.5.5,0,0,1-.482.413ZM61.166,270.7l26.6,123.273,21.483-121.683L80.6,246.845Z" style="         fill: #00257d;       "/>
      </g>
      <g>
        <polygon points="36.433 114.598 9.3 107.606 0.5 176.271 25.747 210.663 38.292 308.1 68.35 334.391 102.518 309.075 106.867 233.559 80.176 236.794 64.074 184.803 69.433 138.649 36.433 114.598" style="         fill: #ffd6b5;       "/>
        <path d="M68.35,334.891a.5.5,0,0,1-.329-.123L37.962,308.476a.5.5,0,0,1-.167-.312l-12.528-97.31L.1,176.567A.5.5,0,0,1,0,176.208l8.8-68.666a.5.5,0,0,1,.216-.35.509.509,0,0,1,.405-.071l27.133,6.993a.52.52,0,0,1,.17.08l33,24.051a.5.5,0,0,1,.2.462l-5.347,46.049,15.948,51.491,26.276-3.185a.493.493,0,0,1,.4.132.5.5,0,0,1,.158.394l-4.35,75.516a.5.5,0,0,1-.2.373L68.648,334.793A.5.5,0,0,1,68.35,334.891ZM38.763,307.849l29.613,25.9,33.657-24.937,4.3-74.686-26.1,3.163a.5.5,0,0,1-.538-.348L63.6,184.951a.514.514,0,0,1-.019-.206L68.9,138.882,36.216,115.058,9.724,108.231l-8.7,67.906,25.128,34.23a.5.5,0,0,1,.093.232Z" style="         fill: #00257d;       "/>
        <polygon points="61.122 112.634 69.433 138.649 45.52 152.985 47.198 114.598 61.122 112.634" style="         fill: #ffd6b5;       "/>
        <path d="M34.116,177.748a.558.558,0,0,1-.07,0L9.612,174.329l.138-.99,23.994,3.353,13.823-53.361-11.352-8.273L9.175,108.09l.25-.969,27.133,6.993a.52.52,0,0,1,.17.08l11.7,8.529a.5.5,0,0,1,.19.53L34.6,177.374A.5.5,0,0,1,34.116,177.748Z" style="         fill: #00257d;       "/>
        <polygon points="55.255 124.171 37.908 124.543 30.322 116.946 48.166 107.606 61.122 112.634 64.074 121.877 55.255 124.171" style="         fill: #ffd6b5;       "/>
        <rect x="25.915" y="108.416" width="1" height="39.521" transform="translate(-104.256 120.961) rotate(-75.195)" style="         fill: #00257d;       "/>
        <path d="M69.665,140.982l-.994-.115.253-2.168-8.206-25.684L48.2,108.154l-17.041,8.92,6.955,6.965,17.134-.368.021,1-17.348.372a.509.509,0,0,1-.364-.146l-7.586-7.6a.5.5,0,0,1,.122-.8l17.845-9.34a.5.5,0,0,1,.412-.023L61.3,112.168a.5.5,0,0,1,.3.314L69.91,138.5a.516.516,0,0,1,.02.21Z" style="         fill: #00257d;       "/>
        <rect x="23.084" y="124.247" width="1" height="37.56" transform="translate(-121 132.623) rotate(-76.521)" style="         fill: #00257d;       "/>
        <rect x="19.976" y="141.811" width="1" height="35.408" transform="translate(-140.163 151.793) rotate(-79.933)" style="         fill: #00257d;       "/>
      </g>
      <g>
        <polygon points="109.794 203.41 80.176 236.794 85.211 258.261 87.819 396.568 142.658 362.866 132.519 222.696 109.794 203.41" style="         fill: #cc1d37;       "/>
        <path d="M87.819,397.068a.5.5,0,0,1-.5-.49L84.712,258.323,79.69,236.908a.5.5,0,0,1,.112-.446l29.618-33.384.748.664-29.446,33.19L85.7,258.146a.538.538,0,0,1,.013.1L88.3,395.684,142.4,362.44l.523.852-54.839,33.7A.49.49,0,0,1,87.819,397.068Z" style="         fill: #00257d;       "/>
      </g>
      <g>
        <path d="M305.165,227.035a8.4,8.4,0,0,1-.3-11.565,9.894,9.894,0,1,0,11.867,11.868A8.4,8.4,0,0,1,305.165,227.035Z" style="         fill: #fff;       "/>
        <path d="M300.094,300.113a9.894,9.894,0,1,0,16.635,9.225,8.4,8.4,0,0,1-11.867-11.867A9.84,9.84,0,0,0,300.094,300.113Z" style="         fill: #fff;       "/>
        <path d="M305.165,268.035a8.4,8.4,0,0,1-.3-11.565,9.894,9.894,0,1,0,11.867,11.868A8.4,8.4,0,0,1,305.165,268.035Z" style="         fill: #fff;       "/>
        <path d="M314.086,355.106a9.838,9.838,0,0,0,2.643-4.768,8.4,8.4,0,0,1-11.867-11.867,9.894,9.894,0,1,0,9.224,16.635Z" style="         fill: #fff;       "/>
        <path d="M259.094,320.613a9.894,9.894,0,1,0,16.635,9.225,8.4,8.4,0,0,1-11.867-11.867A9.84,9.84,0,0,0,259.094,320.613Z" style="         fill: #fff;       "/>
      </g>
      <g>
        <g>
          <rect x="109.167" y="466.112" width="6.979" height="29.193" transform="translate(-17.648 4.481) rotate(-2.113)" style="         fill: #0084cc;       "/>
          <path d="M109.708,495.924a.5.5,0,0,1-.5-.482l-1.077-29.173a.5.5,0,0,1,.482-.518l6.974-.257h.019a.5.5,0,0,1,.5.481l1.076,29.173a.5.5,0,0,1-.481.519l-6.974.257Zm-.558-29.192,1.04,28.174,5.973-.221-1.039-28.173Z" style="         fill: #00257d;       "/>
        </g>
        <rect x="116.069" y="465.622" width="21.538" height="29.193" transform="translate(-16.14 4.556) rotate(-1.935)" style="         fill: #ffd6b5;       "/>
        <path d="M116.568,495.67a.5.5,0,0,1-.5-.484l-.986-29.175a.5.5,0,0,1,.484-.517l21.526-.728a.543.543,0,0,1,.359.135.507.507,0,0,1,.158.349l.985,29.176a.5.5,0,0,1-.483.516l-21.527.728Zm-.469-29.194.951,28.177,20.528-.693-.952-28.177Z" style="         fill: #00257d;       "/>
        <g>
          <polygon points="132.891 502.702 150.401 494.026 161.364 501.739 169.579 493.379 226.998 491.44 226.013 462.263 168.593 464.202 159.811 455.776 149.415 464.85 131.338 456.738 132.891 502.702" style="         fill: #fff;       "/>
          <path d="M132.891,503.2a.5.5,0,0,1-.5-.483l-1.553-45.964a.5.5,0,0,1,.705-.473l17.785,7.981,10.155-8.864a.5.5,0,0,1,.675.017l8.629,8.279L226,461.764a.508.508,0,0,1,.516.483l.986,29.176a.5.5,0,0,1-.483.516l-57.22,1.933-8.075,8.218a.5.5,0,0,1-.644.058l-10.72-7.542-17.243,8.544A.509.509,0,0,1,132.891,503.2Zm-1.026-45.68,1.5,44.387,16.814-8.331a.5.5,0,0,1,.51.039l10.615,7.469,7.918-8.058a.5.5,0,0,1,.34-.149l56.92-1.922-.952-28.177L168.61,464.7a.553.553,0,0,1-.363-.14l-8.451-8.108-10.051,8.772a.507.507,0,0,1-.535.08Z" style="         fill: #00257d;       "/>
        </g>
        <g>
          <g>
            <path d="M203.812,457.029l1.315,38.929s1.9,56.189,50.834,71.7L252.169,455.4Z" style="         fill: #6eb60d;       "/>
            <path d="M255.961,568.161a.515.515,0,0,1-.154-.024c-48.716-15.753-51.16-71.6-51.18-72.163l-1.315-38.928a.5.5,0,0,1,.483-.517l48.358-1.634a.56.56,0,0,1,.358.135.5.5,0,0,1,.158.349l3.792,112.265a.5.5,0,0,1-.2.416A.494.494,0,0,1,255.961,568.161ZM204.329,457.512l1.3,38.429c.019.553,2.421,55.192,49.811,71.022l-3.751-111.051Z" style="         fill: #00257d;       "/>
          </g>
          <path d="M240.267,560.463c-33.7-22.04-35.14-64.5-35.14-64.5l10.679-.361c1.754,30.584,23.981,50.666,23.981,50.666Z" style="         fill: #a9e37d;       "/>
          <g>
            <rect x="198.25" y="503.705" width="126.758" height="15.136" transform="translate(763.778 232.532) rotate(88.065)" style="         fill: #fff;       "/>
            <path d="M256.2,575.371a.5.5,0,0,1-.5-.483L251.425,448.2a.5.5,0,0,1,.484-.517l15.128-.51a.489.489,0,0,1,.516.483l4.279,126.686a.5.5,0,0,1-.483.516l-15.128.511Zm-3.762-126.7,4.245,125.686,14.129-.476-4.245-125.687Z" style="         fill: #00257d;       "/>
          </g>
          <path d="M240.267,560.964a.506.506,0,0,1-.273-.081c-33.536-21.929-35.352-64.481-35.367-64.909a.5.5,0,0,1,.484-.516l10.678-.361a.528.528,0,0,1,.516.471c1.722,30.018,23.6,50.125,23.817,50.324a.5.5,0,0,1,.165.355l.48,14.2a.5.5,0,0,1-.5.517ZM205.655,496.44c.307,4.787,3.693,42.581,34.08,63.07l-.441-13.022c-2-1.885-22.091-21.564-23.958-50.375Z" style="         fill: #00257d;       "/>
          <rect x="209.501" y="518.058" width="11.61" height="1" transform="translate(-286.87 267.403) rotate(-40.881)" style="         fill: #00257d;       "/>
          <rect x="219.304" y="537.108" width="11.578" height="1" transform="translate(-312.368 312.165) rotate(-44.525)" style="         fill: #00257d;       "/>
        </g>
        <polygon points="74.919 496.6 109.708 495.424 108.632 466.251 74.394 471.12 74.919 496.6" style="         fill: #0084cc;       "/>
        <path d="M74.919,497.1a.5.5,0,0,1-.343-.136.5.5,0,0,1-.157-.353l-.525-25.48a.5.5,0,0,1,.43-.506l34.237-4.869a.514.514,0,0,1,.391.111.5.5,0,0,1,.179.365l1.077,29.173a.5.5,0,0,1-.483.519L74.936,497.1ZM74.9,471.553l.506,24.531,33.781-1.143-1.038-28.117Z" style="         fill: #00257d;       "/>
      </g>
      <g>
        <path d="M109.086,211.606a9.838,9.838,0,0,0,2.643-4.768,8.375,8.375,0,0,1-6.3,2.122l-4.811,5.423A9.87,9.87,0,0,0,109.086,211.606Z" style="         fill: #fff;       "/>
        <path d="M100.165,288.535a8.4,8.4,0,0,1-.3-11.565,9.894,9.894,0,1,0,11.867,11.868A8.4,8.4,0,0,1,100.165,288.535Z" style="         fill: #fff;       "/>
        <path d="M100.165,247.535a8.4,8.4,0,0,1-.3-11.565,9.894,9.894,0,1,0,11.867,11.868A8.4,8.4,0,0,1,100.165,247.535Z" style="         fill: #fff;       "/>
        <path d="M109.086,375.606a9.838,9.838,0,0,0,2.643-4.768,8.4,8.4,0,0,1-11.867-11.867,9.894,9.894,0,1,0,9.224,16.635Z" style="         fill: #fff;       "/>
        <path d="M95.094,320.613a9.894,9.894,0,1,0,16.635,9.225,8.4,8.4,0,0,1-11.867-11.867A9.84,9.84,0,0,0,95.094,320.613Z" style="         fill: #fff;       "/>
      </g>
      <polygon points="126.683 366.579 59.177 473.977 74.919 496.6 92.456 475.89 154.557 377.09 126.683 366.579" style="         fill: #0084cc;       "/>
      <path d="M74.919,497.1a.5.5,0,0,1-.41-.214L58.767,474.262a.5.5,0,0,1-.013-.551l67.506-107.4a.5.5,0,0,1,.6-.2l27.874,10.51a.5.5,0,0,1,.3.309.5.5,0,0,1-.051.424l-62.1,98.8-.845-.531,61.775-98.282-26.919-10.151L59.777,473.963l15.366,22.084,1.223-.242.193.98-1.542.306A.464.464,0,0,1,74.919,497.1Z" style="         fill: #00257d;       "/>
      <g>
        <rect x="242.435" y="413.036" width="29.193" height="164.364" style="         fill: #0084cc;       "/>
        <rect x="242.435" y="584.379" width="29.193" height="58.338" style="         fill: #ffd6b5;       "/>
        <rect x="242.435" y="577.4" width="29.193" height="6.979" style="         fill: #0084cc;       "/>
        <path d="M271.627,584.879H242.435a.5.5,0,0,1-.5-.5V577.4a.5.5,0,0,1,.5-.5h29.192a.5.5,0,0,1,.5.5v6.979A.5.5,0,0,1,271.627,584.879Zm-28.692-1h28.192V577.9H242.935Z" style="         fill: #00257d;       "/>
        <path d="M271.627,577.9H242.435a.5.5,0,0,1-.5-.5V413.036a.5.5,0,0,1,.5-.5h29.192a.5.5,0,0,1,.5.5V577.4A.5.5,0,0,1,271.627,577.9Zm-28.692-1h28.192V413.536H242.935Z" style="         fill: #00257d;       "/>
        <path d="M271.627,644.817H242.435a.5.5,0,0,1-.5-.5V584.379a.5.5,0,0,1,.5-.5h29.192a.5.5,0,0,1,.5.5v59.938A.5.5,0,0,1,271.627,644.817Zm-28.692-1h28.192V584.879H242.935Z" style="         fill: #00257d;       "/>
        <g>
          <polygon points="234.356 638.838 242.436 656.631 234.357 667.328 242.435 675.82 242.435 694.872 271.628 694.872 271.628 675.82 280.346 667.328 271.628 656.631 280.346 638.838 234.356 638.838" style="         fill: #fff;       "/>
          <path d="M271.627,695.372H242.435a.5.5,0,0,1-.5-.5V676.019L234,667.673a.5.5,0,0,1-.038-.647l7.9-10.46L233.9,639.045a.5.5,0,0,1,.455-.707h45.99a.5.5,0,0,1,.449.719l-8.577,17.506,8.516,10.45a.5.5,0,0,1-.039.673l-8.567,8.344v18.842A.5.5,0,0,1,271.627,695.372Zm-28.692-1h28.192V675.819a.5.5,0,0,1,.152-.358l8.389-8.172-8.428-10.343a.5.5,0,0,1-.062-.535l8.365-17.073H235.132l7.759,17.086a.5.5,0,0,1-.056.508l-7.824,10.359,7.786,8.183a.5.5,0,0,1,.138.345Z" style="         fill: #00257d;       "/>
        </g>
        <g>
          <path d="M277.794,683.364H236.6S219,703.732,219,734.54h76.4A85.592,85.592,0,0,0,277.794,683.364Z" style="         fill: #6eb60d;       "/>
          <path d="M295.393,735.04H219a.5.5,0,0,1-.5-.5,85.825,85.825,0,0,1,17.721-51.5.5.5,0,0,1,.379-.174h41.2a.5.5,0,0,1,.385.181c.178.214,17.714,21.735,17.714,51.5A.5.5,0,0,1,295.393,735.04Zm-75.9-1h75.394c-.185-27.708-15.662-48.057-17.337-50.176H236.83A85.032,85.032,0,0,0,219.5,734.04Z" style="         fill: #00257d;       "/>
        </g>
        <g>
          <rect x="210.996" y="734.54" width="92.029" height="16.01" transform="translate(514.02 1485.091) rotate(-180)" style="         fill: #fff;       "/>
          <path d="M303.025,751.051H211a.5.5,0,0,1-.5-.5V734.54a.5.5,0,0,1,.5-.5h92.029a.5.5,0,0,1,.5.5v16.011A.5.5,0,0,1,303.025,751.051Zm-91.529-1h91.029V735.04H211.5Z" style="         fill: #00257d;       "/>
        </g>
        <g>
          <path d="M268.014,683.364H246.376s-8.284,19.58-7.334,34.843h36.307A85.425,85.425,0,0,0,268.014,683.364Z" style="         fill: #a9e37d;       "/>
          <path d="M275.349,718.707H239.042a.5.5,0,0,1-.5-.5c0-18.687,7.306-34.889,7.379-35.051a.5.5,0,0,1,.455-.292h21.638a.5.5,0,0,1,.454.29,93.679,93.679,0,0,1,7.381,35.053A.5.5,0,0,1,275.349,718.707Zm-35.8-1h35.3a93.023,93.023,0,0,0-7.157-33.843H246.7C245.737,686.1,239.662,700.824,239.544,717.707Z" style="         fill: #00257d;       "/>
        </g>
        <rect x="242.435" y="694.372" width="29.192" height="1" style="         fill: #00257d;       "/>
        <rect x="239.993" y="705.572" width="34.419" height="1" style="         fill: #00257d;       "/>
      </g>
      <g>
        <path d="M149.606,328.908l-27.568,45.06c48.617,7.66,71.068,60.479,149.51,60.479L273.67,311.27Z" style="         fill: #00257d;       "/>
        <rect x="130.275" y="353.91" width="63.849" height="1.001" transform="translate(-227.168 371.973) rotate(-67.991)" style="         fill: #fff;       "/>
        <rect x="146.934" y="361.708" width="82.592" height="1" transform="translate(-207.807 461.102) rotate(-76.561)" style="         fill: #fff;       "/>
        <rect x="163.291" y="369.127" width="102.177" height="1.001" transform="translate(-177.143 540.78) rotate(-83.499)" style="         fill: #fff;       "/>
        <rect x="186.432" y="372.89" width="116.832" height="1.001" transform="translate(-138.264 602.731) rotate(-87.651)" style="         fill: #fff;       "/>
        <path d="M271.547,434.947c-46.532,0-73.705-18.716-97.678-35.228-16.533-11.388-32.148-22.144-51.909-25.257a.5.5,0,0,1-.348-.755l27.568-45.059a.5.5,0,0,1,.357-.235L273.6,310.775a.5.5,0,0,1,.57.5l-2.123,123.177A.5.5,0,0,1,271.547,434.947ZM122.854,373.594c19.635,3.3,35.158,13.989,51.582,25.3,23.769,16.372,50.7,34.921,96.62,35.052l2.105-122.1L149.911,329.37Z" style="         fill: #00257d;       "/>
      </g>
      <path d="M169.078,141.316c-27.9-8.244-48.34-34.917-48.34-66.549,0-38.208,29.815-69.181,66.6-69.181,35.822,0,65.038,29.382,66.534,66.213q.06,1.476.06,2.968c24.081,34.777-2.918,59.52-20.312,49.742a65.1,65.1,0,0,1-46.282,19.439" style="         fill: #ffd6b5;       "/>
      <g>
        <rect x="162.727" y="79.089" width="8.991" height="1" transform="matrix(0.99, -0.141, 0.141, 0.99, -9.529, 24.302)" style="         fill: #00257d;       "/>
        <rect x="156.179" y="72.515" width="1" height="5.781" transform="translate(-16.37 58.429) rotate(-20.097)" style="         fill: #00257d;       "/>
      </g>
      <g>
        <g>
          <polygon points="148.091 106.507 153.052 114.488 160.58 112.488 148.091 106.507" style="         fill: #cc1d37;       "/>
          <path d="M153.052,114.988a.5.5,0,0,1-.425-.236l-4.961-7.981a.5.5,0,0,1,.708-.676,45.6,45.6,0,0,0,12.348,5.913.5.5,0,0,1-.014.963l-7.528,2A.5.5,0,0,1,153.052,114.988Zm-3.356-6.847,3.586,5.769,5.52-1.467A47.441,47.441,0,0,1,149.7,108.141Z" style="         fill: #00257d;       "/>
        </g>
        <g>
          <path d="M150.62,89.232l5.126-3.045,2.848,3.429,6.368-.156,2,6.87A124.686,124.686,0,0,1,150.62,89.232Z" style="         fill: #cc1d37;       "/>
          <path d="M166.959,96.83a.522.522,0,0,1-.164-.027,125.388,125.388,0,0,1-16.409-7.129.5.5,0,0,1-.021-.871l5.127-3.045a.5.5,0,0,1,.639.11l2.693,3.242,6.126-.15a.542.542,0,0,1,.492.361l2,6.87a.5.5,0,0,1-.481.639ZM151.646,89.2a125.613,125.613,0,0,0,14.561,6.33l-1.619-5.564-5.982.146a.5.5,0,0,1-.4-.181l-2.574-3.1Z" style="         fill: #00257d;       "/>
        </g>
        <path d="M144.213,85.785a155.043,155.043,0,0,0,35.864,14.745L165.8,113.453a41.472,41.472,0,0,1-19.675-8.672Z" style="         fill: #cc1d37;       "/>
        <path d="M144.909,92.707l29.964,12.532,5.2-4.709a155.553,155.553,0,0,1-35.864-14.745Z" style="         fill: #fff;       "/>
        <path d="M146.123,102.937c5.514-1.194,19.673.593,26.4,4.428l-6.727,6.088a41.435,41.435,0,0,1-19.675-8.672Z" style="         fill: #ff6e85;       "/>
        <path d="M165.8,113.953a.451.451,0,0,1-.081-.007,42.146,42.146,0,0,1-19.907-8.776.5.5,0,0,1-.184-.339l-1.91-19a.5.5,0,0,1,.751-.481c10.223,6.025,20.914,10.42,35.749,14.7a.5.5,0,0,1,.2.851l-14.279,12.923A.5.5,0,0,1,165.8,113.953Zm-19.2-9.431a41.152,41.152,0,0,0,19.042,8.4l13.436-12.159c-14.071-4.1-24.425-8.348-34.269-14.049Z" style="         fill: #00257d;       "/>
        <rect x="159.391" y="82.734" width="1.001" height="32.479" transform="translate(6.886 208.291) rotate(-67.302)" style="         fill: #00257d;       "/>
        <path d="M172.314,107.819a49.05,49.05,0,0,0-26.108-4.388l-.166-.987a50.113,50.113,0,0,1,26.7,4.468Z" style="         fill: #00257d;       "/>
      </g>
      <rect x="165.586" y="139.867" width="0.999" height="30.275" transform="translate(-20.926 26.018) rotate(-8.428)" style="         fill: #00257d;       "/>
      <rect x="201.465" y="142.529" width="0.999" height="24.658" transform="matrix(0.991, -0.133, 0.133, 0.991, -18.795, 28.226)" style="         fill: #00257d;       "/>
      <g>
        <g>
          <path d="M152.606,64.779s-2.924-18.155-19.921-21.738C131.371,63.052,152.606,64.779,152.606,64.779Z" style="         fill: #fff;       "/>
          <path d="M152.607,65.279h-.041c-.217-.018-21.71-2-20.38-22.27a.5.5,0,0,1,.6-.457C149.923,46.163,153.071,64.515,153.1,64.7a.5.5,0,0,1-.493.579ZM133.152,43.657c-.754,17.022,15.265,20.081,18.828,20.549C151.26,61,147.33,46.991,133.152,43.657Z" style="         fill: #00257d;       "/>
        </g>
        <path d="M137.171,48.49a5.626,5.626,0,1,0,8.85,3.463c-.154-.79-4.13-4.435-4.935-4.52A5.6,5.6,0,0,0,137.171,48.49Z" style="         fill: #00257d;       "/>
      </g>
      <g>
        <g>
          <path d="M190.025,80.152s15.617-11.49,40.914,3.985C218.093,94.22,196.367,86.19,190.025,80.152Z" style="         fill: #fff;       "/>
          <path d="M215.588,89.425c-10.848,0-21.867-5.064-25.907-8.91a.5.5,0,0,1,.049-.766c.159-.117,16.181-11.509,41.47,3.961a.505.505,0,0,1,.238.4.5.5,0,0,1-.191.422C226.725,88.08,221.179,89.425,215.588,89.425Zm-24.744-9.206c6.434,5.549,26.621,13.129,39.205,3.964C208.238,71.149,193.72,78.485,190.844,80.219Z" style="         fill: #00257d;       "/>
        </g>
        <path d="M198.324,80.214A6.215,6.215,0,1,0,208,76.132c-.73-.506-6.686-.326-7.389.227A6.193,6.193,0,0,0,198.324,80.214Z" style="         fill: #00257d;       "/>
      </g>
      <path d="M187.332,144.448v-1a64.481,64.481,0,0,0,45.929-19.292.5.5,0,0,1,.6-.083c7.216,4.057,16.283,2.15,22.564-4.747,7.62-8.368,10.858-24.394-2.909-44.274a.5.5,0,0,1-.089-.285q0-1.482-.059-2.947c-1.5-36.861-30.5-65.734-66.036-65.734-36.444,0-66.094,30.81-66.094,68.681,0,30.554,19.73,57.723,47.981,66.07l-.283.959c-28.673-8.471-48.7-36.034-48.7-67.029,0-38.422,30.1-69.681,67.094-69.681,36.07,0,65.515,29.3,67.036,66.693q.057,1.409.059,2.832c14,20.3,10.6,36.754,2.737,45.388-6.4,7.031-15.995,9.11-23.46,5.128A65.453,65.453,0,0,1,187.332,144.448Z" style="         fill: #00257d;       "/>
      <polygon points="134.458 182.692 109.794 203.41 124.585 252.185 119.163 354.559 302.418 316.478 277.394 229.972 279.531 184.803 242.782 165.058 198.577 221.547 134.458 182.692" style="         fill: #cc1d37;       "/>
      <g>
        <path d="M264.165,206.535a8.4,8.4,0,0,1-.3-11.565,9.894,9.894,0,1,0,11.867,11.868A8.4,8.4,0,0,1,264.165,206.535Z" style="         fill: #fff;       "/>
        <path d="M300.094,314.106a9.9,9.9,0,0,0,2.262,1.688l-3.9-13.5A9.891,9.891,0,0,0,300.094,314.106Z" style="         fill: #fff;       "/>
        <path d="M273.086,293.606a9.838,9.838,0,0,0,2.643-4.768,8.4,8.4,0,0,1-11.867-11.868,9.894,9.894,0,1,0,9.224,16.636Z" style="         fill: #fff;       "/>
        <path d="M259.094,238.613a9.894,9.894,0,1,0,16.635,9.225,8.4,8.4,0,0,1-11.867-11.868A9.85,9.85,0,0,0,259.094,238.613Z" style="         fill: #fff;       "/>
        <path d="M263.862,317.971a9.872,9.872,0,0,0-7.594,8.506l5.613-1.167A8.4,8.4,0,0,1,263.862,317.971Z" style="         fill: #fff;       "/>
        <path d="M223.165,227.035a8.4,8.4,0,0,1-.3-11.565,9.894,9.894,0,1,0,11.867,11.868A8.4,8.4,0,0,1,223.165,227.035Z" style="         fill: #fff;       "/>
        <path d="M232.086,314.106a9.838,9.838,0,0,0,2.643-4.768,8.4,8.4,0,0,1-11.867-11.867,9.894,9.894,0,1,0,9.224,16.635Z" style="         fill: #fff;       "/>
        <path d="M218.094,259.113a9.894,9.894,0,1,0,16.635,9.225,8.4,8.4,0,0,1-11.867-11.868A9.85,9.85,0,0,0,218.094,259.113Z" style="         fill: #fff;       "/>
        <path d="M182.165,288.535a8.4,8.4,0,0,1-.3-11.565,9.894,9.894,0,1,0,11.867,11.868A8.4,8.4,0,0,1,182.165,288.535Z" style="         fill: #fff;       "/>
        <path d="M182.165,247.535a8.4,8.4,0,0,1-.3-11.565,9.894,9.894,0,1,0,11.867,11.868A8.4,8.4,0,0,1,182.165,247.535Z" style="         fill: #fff;       "/>
        <path d="M177.094,320.613a9.894,9.894,0,1,0,16.635,9.225,8.4,8.4,0,0,1-11.867-11.867A9.84,9.84,0,0,0,177.094,320.613Z" style="         fill: #fff;       "/>
        <path d="M141.165,227.035a8.4,8.4,0,0,1-.3-11.565,9.894,9.894,0,1,0,11.867,11.868A8.4,8.4,0,0,1,141.165,227.035Z" style="         fill: #fff;       "/>
        <path d="M111.117,207.338l.23.76a9.919,9.919,0,0,0,.382-1.26C111.532,207.016,111.327,207.182,111.117,207.338Z" style="         fill: #fff;       "/>
        <path d="M136.094,300.113a9.894,9.894,0,1,0,16.635,9.225,8.4,8.4,0,0,1-11.867-11.867A9.84,9.84,0,0,0,136.094,300.113Z" style="         fill: #fff;       "/>
        <path d="M141.165,268.035a8.4,8.4,0,0,1-.3-11.565,9.894,9.894,0,1,0,11.867,11.868A8.4,8.4,0,0,1,141.165,268.035Z" style="         fill: #fff;       "/>
        <path d="M140.862,338.471a9.891,9.891,0,0,0-6.913,13.424l7.539-1.567c-.108-.1-.22-.189-.323-.293A8.4,8.4,0,0,1,140.862,338.471Z" style="         fill: #fff;       "/>
      </g>
      <g>
        <rect x="239.474" y="108.617" width="13.273" height="1" transform="matrix(0.861, -0.508, 0.508, 0.861, -21.315, 140.113)" style="         fill: #00257d;       "/>
        <rect x="252.419" y="102.45" width="1" height="9.83" transform="translate(-21.532 120.476) rotate(-25.736)" style="         fill: #00257d;       "/>
        <rect x="244.578" y="110.192" width="1" height="7.037" transform="translate(-25.065 117.735) rotate(-25.744)" style="         fill: #00257d;       "/>
      </g>
      <g>
        <polygon points="208.629 205.508 163.047 164.588 143.376 184.403 177.973 225.958 208.629 205.508" style="         fill: #0084cc;       "/>
        <path d="M177.973,226.458a.5.5,0,0,1-.384-.18l-34.6-41.555a.5.5,0,0,1,.029-.672l19.671-19.815a.5.5,0,0,1,.688-.02l45.582,40.92a.5.5,0,0,1-.056.788l-30.657,20.45A.494.494,0,0,1,177.973,226.458Zm-33.922-42.025,34.019,40.86,29.746-19.844-44.749-40.171Z" style="         fill: #00257d;       "/>
        <polygon points="169.158 203.719 210.173 157.368 235.003 168.724 197.047 226.916 169.158 203.719" style="         fill: #0084cc;       "/>
        <path d="M195.527,226.458a.5.5,0,0,1-.323-.117L168.835,204.1a.5.5,0,0,1-.051-.714L209.8,157.037a.5.5,0,0,1,.582-.123l24.83,11.356a.5.5,0,0,1,.2.738l-39.476,57.234a.5.5,0,0,1-.345.212A.487.487,0,0,1,195.527,226.458Zm-25.656-22.791,25.557,21.554,38.825-56.289L210.3,157.977Z" style="         fill: #00257d;       "/>
        <polygon points="198.392 224.589 143.376 175.2 123.309 192.057 181.513 246.125 198.392 224.589" style="         fill: #ff6e85;       "/>
        <path d="M119.162,355.059a.5.5,0,0,1-.5-.526l5.423-102.374,1,.052L119.7,353.937,301.788,316.1,280.36,241.767l.961-.277L302.9,316.34a.5.5,0,0,1-.053.4.494.494,0,0,1-.326.231L119.264,355.049A.49.49,0,0,1,119.162,355.059Z" style="         fill: #00257d;       "/>
        <path d="M181.513,246.625a.5.5,0,0,1-.34-.134l-58.2-54.067a.5.5,0,0,1,.019-.749l20.067-16.858a.5.5,0,0,1,.655.011l55.017,49.389a.5.5,0,0,1,.06.68l-16.88,21.536a.5.5,0,0,1-.355.19Zm-57.449-54.548,57.391,53.312,16.256-20.741-54.345-48.786Z" style="         fill: #00257d;       "/>
        <polygon points="123.088 280.457 231.315 158.896 254.543 171.377 120.738 324.821 123.088 280.457" style="         fill: #ff6e85;       "/>
        <path d="M120.738,325.321a.511.511,0,0,1-.188-.036.5.5,0,0,1-.311-.49l2.349-44.365a.5.5,0,0,1,.126-.306l108.228-121.56a.5.5,0,0,1,.609-.108l23.228,12.48a.5.5,0,0,1,.14.769L121.115,325.15A.5.5,0,0,1,120.738,325.321Zm2.84-44.663L121.314,323.4,253.753,171.52l-22.327-12Z" style="         fill: #00257d;       "/>
      </g>
      <path d="M108.255,206.541l-.824-.565,1.951-2.849a.508.508,0,0,1,.091-.1l13.515-11.352.642.765-13.462,11.308Z" style="         fill: #00257d;       "/>
      <path d="M281.976,187.651l-2.733-2.436-24.937-13.4.473-.881,24.988,13.426a.54.54,0,0,1,.1.067l2.778,2.475Z" style="         fill: #00257d;       "/>
      <g>
        <path d="M190.377.5A75.146,75.146,0,0,0,128.2,33.663l23.63,7.792C157,36.278,164.279,31.2,171.835,26.135a119.429,119.429,0,0,0-13.13,17.942c1.408.551,2.809,1.12,4.21,1.687A26.832,26.832,0,0,1,171.3,38.2c-2.689,4.689-3.692,6.334-4.743,9.062q13.464,5.614,26.526,12.22a63.394,63.394,0,0,1,13.6-13.114l-4.051,18.074q10.134,5.424,20.046,11.392a73.849,73.849,0,0,0,6.374-15.173,122.121,122.121,0,0,1-.606,18.686c6.49,4.013,13.648,7.682,20.014,12l-2.018,5.443c8.828-3.048,14.741,3.169,13.085,12.753-1.583,9.156-13.135,17.442-23.979,12.948-9.006,9.612-19.8,17.438-35.218,20.147l.71,5.269,35.5-6.7,1.156-12.053,4.648,10.957,23.629-4.461V77.411C265.968,34.934,232.125.5,190.377.5Z" style="         fill: #00257d;       "/>
        <path d="M201.035,148.408a.5.5,0,0,1-.293-.095.494.494,0,0,1-.2-.338l-.709-5.27a.5.5,0,0,1,.409-.559c13.233-2.324,24.335-8.678,34.939-19.995a.5.5,0,0,1,.565-.117,15.348,15.348,0,0,0,13.243-.07,19.922,19.922,0,0,0,10.051-12.543c1.034-4.071-.053-8.445-2.7-10.884-1.669-1.536-4.714-3-9.732-1.273a.5.5,0,0,1-.632-.646l1.881-5.076c-3.735-2.511-7.787-4.836-11.709-7.087-2.645-1.518-5.381-3.088-7.962-4.684a.5.5,0,0,1-.233-.484,116.368,116.368,0,0,0,.682-15.591,77.091,77.091,0,0,1-5.517,12.38.5.5,0,0,1-.694.186c-6.792-4.075-13.529-7.9-20.025-11.38a.5.5,0,0,1-.252-.551l3.77-16.815a65.372,65.372,0,0,0-12.437,12.277.5.5,0,0,1-.615.134c-8.821-4.446-17.735-8.552-26.494-12.2a.5.5,0,0,1-.275-.642,48.917,48.917,0,0,1,3.784-7.405,27.2,27.2,0,0,0-6.567,6.4.5.5,0,0,1-.577.149l-.276-.111c-1.308-.53-2.616-1.059-3.93-1.573a.5.5,0,0,1-.25-.716A112.952,112.952,0,0,1,169.13,28.562c-6.22,4.23-12.392,8.684-16.949,13.247a.5.5,0,0,1-.51.122l-23.63-7.793a.5.5,0,0,1-.256-.756A75.8,75.8,0,0,1,190.376,0c41.957,0,76.092,34.726,76.092,77.411v58.237a.5.5,0,0,1-.407.492l-23.629,4.46a.494.494,0,0,1-.553-.295L238,131.162l-.968,10.091a.5.5,0,0,1-.406.444l-35.5,6.7A.478.478,0,0,1,201.035,148.408Zm-.15-5.362.574,4.273,34.614-6.535,1.121-11.68a.5.5,0,0,1,.958-.148l4.49,10.587,22.826-4.309V77.411C265.468,35.278,231.782,1,190.376,1a74.786,74.786,0,0,0-61.388,32.4l22.705,7.488c5.333-5.28,12.732-10.385,19.863-15.165a.5.5,0,0,1,.657.742A121.226,121.226,0,0,0,159.43,43.825c1.112.439,2.221.888,3.329,1.337a26.892,26.892,0,0,1,8.285-7.395.5.5,0,0,1,.687.68l-.76,1.323a54.823,54.823,0,0,0-3.771,7.219c8.516,3.564,17.172,7.553,25.745,11.863a63.645,63.645,0,0,1,13.453-12.9.5.5,0,0,1,.768.524L203.2,64.18c6.264,3.36,12.749,7.044,19.287,10.958a73.131,73.131,0,0,0,6.079-14.614.493.493,0,0,1,.541-.361.5.5,0,0,1,.44.478,123.968,123.968,0,0,1-.572,18.446c2.489,1.531,5.118,3.04,7.664,4.5,4.052,2.325,8.241,4.729,12.1,7.346a.5.5,0,0,1,.187.588L247.26,96.01c4.909-1.378,8,.176,9.75,1.791,2.914,2.681,4.118,7.45,3,11.866a20.958,20.958,0,0,1-10.58,13.195,16.271,16.271,0,0,1-13.758.227C225.107,134.279,214.034,140.634,200.885,143.046Z" style="         fill: #00257d;       "/>
      </g>
    </g>
  </g>
</svg></g><!--ITEM: Illustration component 10--><g transform="translate(924.375 187.5) rotate(-6.037136276301137 532.5 697.5) translate(0.0 1050.0) scale(2.9623324821842822 2.956034548521347)"><svg width="118.36112323943661" height="116.71040860215055" viewBox="0.0 355.2055913978495 118.36112323943661 116.71040860215055"><g id="cosmic_vr_adventure-i10">
    <g id="girl_surprised_sitting-i10">
      <polygon points="191.002 233.855 273.764 335.31 303.699 337.114 337.958 348.085 359.014 313.884 322.817 296.27 282.883 296.386 250.083 240.985 204.176 190.668 191.002 233.855" style="         fill: #ffd6b5;       "/>
      <path d="M198.6,4.737,186.906,9.808,150.383.5,100.094,46.864c.529,23.812-1.638,35.074-13.858,40.913-21.659,10.349-31.76-13.127-56.27-.819C66.987,103.429,45.54,129.8,80.28,158.219l27.959-22.425-12.29,33.65c10.236,5.109,23.933,8.751,42.914,10.143l43.748-42.293L222.5,58.078S225.608,22.05,198.6,4.737Z" style="         fill: #00257d;       "/>
      <path d="M138.863,180.087h-.036c-17.887-1.312-31.985-4.647-43.1-10.2a.5.5,0,0,1-.246-.62l11.675-31.966-26.563,21.3a.5.5,0,0,1-.615.009c-16.172-12.284-20.286-26.02-23.916-38.139-4.1-13.674-7.633-25.484-26.283-33.057a.5.5,0,0,1-.025-.915C42.7,80.408,51.6,83.6,60.2,86.685c7.978,2.862,15.516,5.564,25.816.641,12.253-5.854,14.09-17.21,13.573-40.452a.5.5,0,0,1,.161-.378L150.044.133a.5.5,0,0,1,.462-.117l36.359,9.265,11.536-5a.5.5,0,0,1,.468.038C225.821,21.592,223.028,57.757,223,58.12a.464.464,0,0,1-.051.182l-39.888,79.217a.5.5,0,0,1-.1.134L139.21,179.946A.5.5,0,0,1,138.863,180.087Zm-42.29-10.893c10.888,5.348,24.67,8.58,42.1,9.877L182.2,136.993,222.007,57.94C222.15,55.9,224.09,21.875,198.554,5.3l-11.448,4.964a.489.489,0,0,1-.322.025l-36.261-9.24L100.6,47.078c.5,23.064-1.515,35.115-14.146,41.151-10.68,5.1-18.406,2.331-26.585-.6s-16.631-5.965-28.65-.688C49.39,94.724,53.1,107.1,57.019,120.19c3.562,11.9,7.6,25.367,23.253,37.394l27.654-22.18a.5.5,0,0,1,.782.562Z" style="         fill: #00257d;       "/>
      <polygon points="158.544 126.465 149.83 156.939 180.827 150.448 184.852 132.842 158.544 126.465" style="         fill: #ffd6b5;       "/>
      <path d="M228.554,78.25c5.713,33.278-8.443,63.481-31.619,67.459-19.831,3.405-39.839-13.493-48.782-39.29-8.888,7.818-20.657-5.864-18.6-15.191,1.7-7.719,8.239-9.209,14.354-3.612-3.535-31.235,10.337-58.64,32.336-62.417C199.421,21.22,222.84,44.972,228.554,78.25Z" style="         fill: #ffd6b5;       "/>
      <path d="M210.165,39.031c-8.425-12.138-20.951-20.7-37.051-26.145l-29.484,27.9c-9.46,14.334-9.868,32.457-9.417,41.073l8.287,1.66,6.98-2.961c-.049-3.974.293-15.415,5.37-23.835a93.73,93.73,0,0,0,1.462,20.937l7.277-3.1c-.025-3.028.058-9.748.714-11.808a69.165,69.165,0,0,1,3.923,9.832l20.6-8.779c8.334-15.6,7.3-28.339,7.3-28.339C201.505,34.882,206.825,37.224,210.165,39.031Z" style="         fill: #00257d;       "/>
      <path d="M142.5,84.017a.466.466,0,0,1-.1-.01l-8.287-1.66a.5.5,0,0,1-.4-.464c-.489-9.337.095-27.127,9.5-41.375a.517.517,0,0,1,.073-.088l29.486-27.9a.5.5,0,0,1,.5-.11c16.5,5.579,29.045,14.44,37.3,26.334a.5.5,0,0,1-.65.725c-4.911-2.657-9.391-3.856-13.283-3.557.081,2.516.01,14.285-7.382,28.12a.505.505,0,0,1-.245.225l-20.595,8.779a.5.5,0,0,1-.406-.006.5.5,0,0,1-.268-.3c-.085-.273-.184-.615-.3-1.01a38.072,38.072,0,0,0-2.915-7.653,85.845,85.845,0,0,0-.445,10.486.5.5,0,0,1-.3.464l-7.277,3.1a.493.493,0,0,1-.432-.019.5.5,0,0,1-.255-.349,94.968,94.968,0,0,1-1.539-18.964c-4,7.941-4.352,17.722-4.3,21.765a.5.5,0,0,1-.3.466L142.7,83.977A.513.513,0,0,1,142.5,84.017Zm-7.807-2.575L142.448,83l6.529-2.771c-.028-4.65.493-15.549,5.445-23.763a.5.5,0,0,1,.927.28,93.84,93.84,0,0,0,1.342,20.209l6.4-2.725c-.009-1.861.005-9.326.74-11.631a.5.5,0,0,1,.4-.343.5.5,0,0,1,.485.211c1.873,2.725,3.058,6.791,3.694,8.975.047.164.092.318.134.461l19.919-8.491c8.071-15.2,7.171-27.782,7.161-27.908a.5.5,0,0,1,.445-.537c3.731-.4,7.918.5,12.485,2.685C200.474,26.836,188.605,18.7,173.24,13.456l-29.225,27.65C134.928,54.913,134.248,72.142,134.693,81.442Z" style="         fill: #00257d;       "/>
      <path d="M151.5,152.783l-.961-.275L158,126.563a75.674,75.674,0,0,1-10.076-19.3c-3.219,2.493-7.026,2.654-10.8.428-5.618-3.317-9.308-10.9-8.057-16.569.816-3.7,2.758-6.2,5.467-7.058,2.651-.838,5.789.021,8.746,2.361-3.055-31.02,11.238-58,32.88-61.718,23.426-4.018,47.136,19.964,52.887,53.46S220.43,142.183,197.02,146.2a33.485,33.485,0,0,1-21.588-3.9,45.152,45.152,0,0,1-6.454-4.24l.6-.8a44.191,44.191,0,0,0,6.314,4.151,32.488,32.488,0,0,0,20.953,3.8c22.867-3.926,36.868-33.93,31.211-66.882S199.183,21.764,176.33,25.691C154.919,29.367,140.9,56.544,144.406,87.56a.5.5,0,0,1-.835.425c-2.957-2.707-6.142-3.79-8.737-2.969-2.353.743-4.054,2.988-4.791,6.319-1.166,5.281,2.31,12.376,7.59,15.493,3.586,2.119,7.206,1.84,10.191-.784a.5.5,0,0,1,.8.211,74.8,74.8,0,0,0,10.32,19.913.5.5,0,0,1,.078.435Z" style="         fill: #00257d;       "/>
      <rect x="202.844" y="93.645" width="1.001" height="6.926" transform="translate(43.821 256.266) rotate(-70.461)" style="         fill: #00257d;       "/>
      <rect x="208.896" y="94.798" width="5.335" height="1" transform="translate(24.753 232.931) rotate(-60.63)" style="         fill: #00257d;       "/>
      <path d="M80.464,97.757c-6.457,0-13.614-2.263-21.414-6.783l.5-.866c13.534,7.845,25.033,8.744,34.178,2.674,14.792-9.817,18.557-34.5,17.732-41a.5.5,0,0,1,.183-.453l44.206-35.593a.531.531,0,0,1,.359-.108l33.89,3.157-.093,1L156.32,16.646,112.486,51.938c.706,7.048-3.255,31.756-18.2,41.677A24.476,24.476,0,0,1,80.464,97.757Z" style="         fill: #ffaa00;       "/>
      <path d="M133.6,80.823C131.96,57.1,143.1,40.662,143.218,40.5l.822.568c-.11.161-11.056,16.332-9.445,39.688Z" style="         fill: #ffaa00;       "/>
      <rect x="138.362" y="88.448" width="1.001" height="10.954" transform="translate(-11.276 168.512) rotate(-60.491)" style="         fill: #00257d;       "/>
      <rect x="143.129" y="93.926" width="1" height="7.65" style="         fill: #00257d;       "/>
      <rect x="136.551" y="92.9" width="1" height="5.373" style="         fill: #00257d;       "/>
      <polygon points="210.165 55.371 211.123 63.799 221.995 63.799 220.609 59.091 210.165 55.371" style="         fill: #00257d;       "/>
      <path d="M222,64.3H211.123a.5.5,0,0,1-.5-.444l-.958-8.427a.5.5,0,0,1,.665-.528l10.444,3.721a.5.5,0,0,1,.311.329l1.387,4.707a.5.5,0,0,1-.48.642Zm-10.425-1h9.757L220.2,59.478l-9.45-3.367Z" style="         fill: #00257d;       "/>
      <path d="M207.109,35.136c-9.809-16.657-18.493-23.014-18.58-23.076l.584-.813c.088.064,8.929,6.522,18.857,23.381Z" style="         fill: #ffaa00;       "/>
      <path d="M193.131,84.846c-5.437-4.37-15.479-7.73-25.3-1.194l-.355,3.336c9.071-4.383,16.563-4.652,25.128.789Z" style="         fill: #00257d;       "/>
      <path d="M192.606,88.277a.5.5,0,0,1-.269-.078c-8.046-5.11-15.185-5.334-24.641-.761a.5.5,0,0,1-.506-.041.5.5,0,0,1-.209-.461l.355-3.336a.5.5,0,0,1,.22-.364,21.638,21.638,0,0,1,25.888,1.22.5.5,0,0,1,.178.478l-.524,2.931a.5.5,0,0,1-.291.37A.487.487,0,0,1,192.606,88.277Zm-12.677-5.066a23.3,23.3,0,0,1,12.314,3.753l.342-1.912a20.626,20.626,0,0,0-24.279-1.112l-.236,2.216A28.3,28.3,0,0,1,179.929,83.211Z" style="         fill: #00257d;       "/>
      <path d="M215.243,81.244v3.7c1.2-4.071,7.7-8.174,11.383-7.095l-.82-3.178C221.968,74.434,216.728,76.053,215.243,81.244Z" style="         fill: #00257d;       "/>
      <path d="M215.243,85.445a.578.578,0,0,1-.071,0,.5.5,0,0,1-.429-.5v-3.7a.5.5,0,0,1,.02-.138c1.48-5.171,6.626-7.224,11.074-6.932a.5.5,0,0,1,.453.374l.821,3.179a.5.5,0,0,1-.625.6c-3.4-.994-9.629,2.921-10.763,6.756A.5.5,0,0,1,215.243,85.445Zm.5-4.13v1.479c2.184-3.238,6.9-5.926,10.2-5.58l-.532-2.058C222.336,75.048,217.227,76.275,215.743,81.315Z" style="         fill: #00257d;       "/>
      <polygon points="151.02 152.645 133.383 216.285 193.498 246.225 190.3 140.012 151.02 152.645" style="         fill: #ffaa00;       "/>
      <path d="M337.957,348.585a.534.534,0,0,1-.152-.023l-34.2-10.953-29.872-1.8a.5.5,0,0,1-.358-.183L190.615,234.171a.5.5,0,0,1-.091-.462L203.7,190.522a.5.5,0,0,1,.368-.341.49.49,0,0,1,.479.15l45.907,50.317a.6.6,0,0,1,.061.082l32.654,55.155,39.649-.115h0a.5.5,0,0,1,.218.05l36.2,17.616a.5.5,0,0,1,.207.71l-21.057,34.2A.5.5,0,0,1,337.957,348.585Zm-63.944-13.762,29.716,1.792a.462.462,0,0,1,.122.023l33.886,10.851,20.562-33.4L322.7,296.77l-39.818.116h0a.5.5,0,0,1-.431-.245l-32.774-55.357L204.4,191.653l-12.84,42.092Z" style="         fill: #00257d;       "/>
      <polygon points="98.667 426.36 220.306 455.088 240.948 431.803 196.331 402.129 97.816 398.814 98.667 426.36" style="         fill: #ffd6b5;       "/>
      <path d="M220.306,455.588a.453.453,0,0,1-.115-.014L98.552,426.846l.231-.973L220.13,454.532,255.8,414.29l.748.664L220.68,455.42A.5.5,0,0,1,220.306,455.588Z" style="         fill: #00257d;       "/>
      <rect x="143.574" y="354.086" width="1.001" height="92.569" transform="translate(-260.915 530.897) rotate(-88.073)" style="         fill: #00257d;       "/>
      <polygon points="102.064 435.116 110.155 394.926 97.816 393.467 91.575 384.733 80.194 386.703 49.61 371.253 12.076 457.262 20.974 461.144 70.596 426.331 77.448 434.886 89.564 430.457 102.064 435.116" style="         fill: #ffaa00;       "/>
      <polygon points="65.187 430.125 31.468 413.396 22.613 434.275 43.959 445.018 65.187 430.125" style="         fill: #cc1d37;       "/>
      <rect x="47.826" y="402.939" width="1.001" height="37.642" transform="translate(-350.968 277.605) rotate(-63.612)" style="         fill: #00257d;       "/>
      <rect x="32.579" y="427.362" width="0.999" height="24.361" transform="translate(-374.412 271.485) rotate(-63.284)" style="         fill: #00257d;       "/>
      <path d="M20.974,461.645a.5.5,0,0,1-.2-.042l-8.9-3.883a.5.5,0,0,1-.258-.658l37.534-86.009a.5.5,0,0,1,.683-.246l30.437,15.376,11.218-1.942a.5.5,0,0,1,.492.2L98.094,393l12.119,1.435a.5.5,0,0,1,.347.2.5.5,0,0,1,.085.391l-8.091,40.19a.5.5,0,0,1-.247.338.505.505,0,0,1-.418.032L89.562,430.99,77.62,435.355a.5.5,0,0,1-.562-.157L70.5,427.01,21.261,461.554A.5.5,0,0,1,20.974,461.645ZM12.735,457l8.181,3.57,49.393-34.652a.5.5,0,0,1,.678.1l6.628,8.274,11.777-4.306a.5.5,0,0,1,.347,0l11.951,4.455,7.867-39.084-11.8-1.4a.5.5,0,0,1-.348-.205l-6.059-8.479L80.279,387.2a.5.5,0,0,1-.311-.047L49.857,371.938Z" style="         fill: #00257d;       "/>
      <rect x="-27.05" y="407.519" width="106.747" height="9.768" transform="translate(414.832 553.225) rotate(113.576)" style="         fill: #cc1d37;       "/>
      <path d="M165.584,175.279l-4.362-.37-1.707-4.027a.782.782,0,0,0-1.439,0l-1.706,4.027-4.363.37a.781.781,0,0,0-.445,1.369l3.314,2.871-1,4.267a.782.782,0,0,0,1.165.846l3.751-2.264,3.75,2.264a.782.782,0,0,0,1.165-.846l-1-4.267,3.314-2.871A.781.781,0,0,0,165.584,175.279Z" style="         fill: #cc1d37;       "/>
      <path d="M154.876,215.824l-1,4.267a.781.781,0,0,0,1.165.846l3.751-2.263,3.75,2.263a.781.781,0,0,0,1.165-.846l-1-4.267,3.314-2.871a.781.781,0,0,0-.446-1.368l-4.362-.37-1.707-4.027a.782.782,0,0,0-1.439,0l-1.706,4.027-4.363.37a.78.78,0,0,0-.445,1.368Z" style="         fill: #cc1d37;       "/>
      <path d="M9.452,463.774a.492.492,0,0,1-.2-.042L.3,459.826a.5.5,0,0,1-.258-.658l42.7-97.837a.5.5,0,0,1,.658-.258l8.952,3.907a.5.5,0,0,1,.258.659L9.91,463.475A.5.5,0,0,1,9.452,463.774Zm-8.293-4.665L9.2,462.616l42.3-96.92-8.037-3.507Z" style="         fill: #00257d;       "/>
      <polygon points="125.966 195.927 129.318 225.799 124.051 239.587 90.221 275.331 90.168 312.2 169.382 397.378 164.008 400.948 237.285 471.416 256.179 414.622 179.89 295.26 176.084 275.959 186.394 265.491 211.562 255.48 125.966 195.927" style="         fill: #cc1d37;       "/>
      <path d="M237.285,471.916a.5.5,0,0,1-.347-.14l-73.277-70.467a.5.5,0,0,1,.071-.777l4.883-3.245L89.8,312.541a.5.5,0,0,1-.134-.342l.053-36.869a.5.5,0,0,1,.137-.343l33.761-35.672,5.188-13.582-3.338-29.751a.5.5,0,0,1,.782-.465l85.6,59.553a.5.5,0,0,1-.1.875l-25.07,9.972-10.051,10.2,3.738,18.949L256.6,414.353a.5.5,0,0,1,.054.427l-18.894,56.794a.5.5,0,0,1-.354.327A.493.493,0,0,1,237.285,471.916ZM164.8,401.02l72.256,69.487,18.568-55.817L179.469,295.529a.466.466,0,0,1-.069-.173l-3.807-19.3a.5.5,0,0,1,.134-.448l10.31-10.467a.51.51,0,0,1,.172-.115l24.3-9.667-83.927-58.392,3.229,28.776a.511.511,0,0,1-.03.235l-5.267,13.788a.518.518,0,0,1-.1.165l-33.693,35.6L90.668,312l79.08,85.033a.5.5,0,0,1,.13.4.492.492,0,0,1-.219.357Z" style="         fill: #00257d;       "/>
      <polygon points="176.084 275.959 124.051 239.587 129.38 225.637 186.394 265.491 176.084 275.959" style="         fill: #fa0;       "/>
      <path d="M176.083,276.459a.494.494,0,0,1-.286-.09L123.765,240a.5.5,0,0,1-.181-.589l5.329-13.95a.5.5,0,0,1,.321-.3.492.492,0,0,1,.432.068l57.014,39.854a.5.5,0,0,1,.212.364.5.5,0,0,1-.142.4L176.44,276.31A.5.5,0,0,1,176.083,276.459ZM124.658,239.4l51.366,35.908,9.6-9.746-56-39.149Z" style="         fill: #00257d;       "/>
      <rect x="336.64" y="296.441" width="0.999" height="36.521" transform="translate(-93.357 480.147) rotate(-64.051)" style="         fill: #00257d;       "/>
      <rect x="331.958" y="305.472" width="0.999" height="35.573" transform="translate(-103.682 480.757) rotate(-64.052)" style="         fill: #00257d;       "/>
      <rect x="326.473" y="315.469" width="0.999" height="34.822" transform="translate(-115.422 481.228) rotate(-64.051)" style="         fill: #00257d;       "/>
      <polygon points="190.3 140.012 250.083 240.985 184.161 275.959 167.421 177.033 190.3 140.012" style="         fill: #ffaa00;       "/>
      <path d="M237.507,229.737a.781.781,0,0,0-.445,1.369l3.314,2.871-1,4.267a.781.781,0,0,0,1.165.846l3.751-2.264,3.75,2.264a.766.766,0,0,0,.9-.072l-6.508-10.991-.568,1.34Z" style="         fill: #cc1d37;       "/>
      <path d="M194.084,157.126l-4.362-.369-1.707-4.027a.782.782,0,0,0-1.439,0l-1.706,4.027-4.363.369a.781.781,0,0,0-.445,1.369l3.314,2.871-1,4.267a.781.781,0,0,0,1.165.846l3.751-2.263,3.75,2.263a.781.781,0,0,0,1.165-.846l-1-4.267,3.314-2.871A.781.781,0,0,0,194.084,157.126Z" style="         fill: #cc1d37;       "/>
      <path d="M208.562,176.648l3.314,2.871-1,4.267a.782.782,0,0,0,1.165.846l3.463-2.09L211.1,175.1l-2.1.178A.781.781,0,0,0,208.562,176.648Z" style="         fill: #cc1d37;       "/>
      <path d="M194.084,193.432l-4.362-.37-1.707-4.027a.782.782,0,0,0-1.439,0l-1.706,4.027-4.363.37a.78.78,0,0,0-.445,1.368l3.314,2.872-1,4.267a.782.782,0,0,0,1.165.846l3.751-2.264,3.75,2.264a.782.782,0,0,0,1.165-.846l-1-4.267,3.314-2.872A.781.781,0,0,0,194.084,193.432Z" style="         fill: #cc1d37;       "/>
      <path d="M222.584,211.585l-4.362-.37-1.707-4.027a.782.782,0,0,0-1.439,0l-1.706,4.027-4.363.37a.78.78,0,0,0-.445,1.368l3.314,2.871-1,4.267a.781.781,0,0,0,1.165.846l3.751-2.263,3.75,2.263a.781.781,0,0,0,1.165-.846l-1-4.267,3.314-2.871A.781.781,0,0,0,222.584,211.585Z" style="         fill: #cc1d37;       "/>
      <path d="M183.376,233.977l-1,4.267a.781.781,0,0,0,1.165.846l3.751-2.264,3.75,2.264a.781.781,0,0,0,1.165-.846l-1-4.267,3.314-2.871a.781.781,0,0,0-.446-1.369l-4.362-.37-1.707-4.026a.782.782,0,0,0-1.439,0l-1.706,4.026-4.363.37a.781.781,0,0,0-.445,1.369Z" style="         fill: #cc1d37;       "/>
      <path d="M219.716,252.13l3.314-2.872a.781.781,0,0,0-.446-1.368l-4.362-.37-1.707-4.027a.782.782,0,0,0-1.439,0l-1.706,4.027-4.363.37a.78.78,0,0,0-.445,1.368l3.314,2.872-1,4.267a.782.782,0,0,0,1.165.846l3.751-2.264,3.713,2.241,1.216-.645a.725.725,0,0,0-.014-.178Z" style="         fill: #cc1d37;       "/>
      <path d="M191.216,270.282l3.314-2.871a.781.781,0,0,0-.446-1.368l-4.362-.37-1.707-4.027a.782.782,0,0,0-1.439,0l-1.706,4.027-2.387.2.72,4.258.173.149-.085.367.752,4.446,3.253-1.963,1.039.627,3.285-1.743Z" style="         fill: #cc1d37;       "/>
      <path d="M184.161,276.459a.487.487,0,0,1-.22-.052.5.5,0,0,1-.273-.364l-14.635-85.9.986-.168,14.519,85.222,64.847-34.4L190.074,140.61l-38.643,12.429L137.4,203.678l-.963-.268,14.106-50.9a.5.5,0,0,1,.329-.342l39.279-12.634a.5.5,0,0,1,.584.221L250.513,240.73a.505.505,0,0,1,.051.391.5.5,0,0,1-.247.306L184.4,276.4A.5.5,0,0,1,184.161,276.459Z" style="         fill: #00257d;       "/>
      <rect x="129.458" y="220.458" width="25.627" height="1" transform="translate(-92.463 339.125) rotate(-83.944)" style="         fill: #00257d;       "/>
      <rect x="140.352" y="227.012" width="22.655" height="1" transform="translate(-120.323 255.501) rotate(-62.184)" style="         fill: #00257d;       "/>
      <polygon points="173.403 410.058 172.76 409.29 192.786 392.521 112.189 300.029 112.189 276.177 112.284 276.046 133.691 246.316 134.502 246.9 113.189 276.499 113.189 299.654 194.21 392.633 173.403 410.058" style="         fill: #00257d;       "/>
      <polygon points="190.726 426.572 189.939 425.955 213.012 396.605 128.833 297.217 126.837 273.679 140.486 251.115 141.341 251.633 127.861 273.919 129.802 296.814 214.303 396.582 190.726 426.572" style="         fill: #00257d;       "/>
      <ellipse cx="209.222" cy="115.473" rx="10.544" ry="6.842" transform="translate(85.654 320.019) rotate(-87.758)" style="         fill: #ff6e85;       "/>
      <path d="M203.1,111.09l11.78-1.857c-.8-2.227-2.392-3.893-5.747-4.315C206.1,105.333,204.185,107.536,203.1,111.09Z" style="         fill: #ffaa00;       "/>
      <rect x="203.022" y="109.661" width="11.926" height="1.001" transform="translate(-14.639 33.987) rotate(-8.984)" style="         fill: #00257d;       "/>
      <path d="M202.385,115.205a20.13,20.13,0,0,1,12.145,6.424c-1.321,3.736-2.039,4.316-5.72,4.38C204.6,125.363,202.62,121.529,202.385,115.205Z" style="         fill: #cc1d37;       "/>
      <path d="M208.984,126.512c-.065,0-.129,0-.194,0-2-.078-3.821-1.328-5.124-3.52a14.345,14.345,0,0,1-1.781-7.8c.237-6.085,3.748-10.892,7.769-10.748,4.046.159,7.143,5.239,6.905,11.323h0C216.325,121.748,212.946,126.512,208.984,126.512Zm.471-21.078c-3.426,0-6.357,4.341-6.57,9.791a13.349,13.349,0,0,0,1.641,7.254,5.445,5.445,0,0,0,4.3,3.03c.053,0,.106,0,.159,0,3.426,0,6.358-4.342,6.571-9.791h0c.218-5.534-2.449-10.148-5.944-10.284C209.562,105.435,209.508,105.434,209.455,105.434Z" style="         fill: #00257d;       "/>
      <path d="M214.128,121.926a17.664,17.664,0,0,0-11.79-6.223l.094-1a18.356,18.356,0,0,1,12.5,6.625Z" style="         fill: #00257d;       "/>
    </g>
  </g>
</svg></g></svg>