<svg xmlns="http://www.w3.org/2000/svg" viewBox="0 0 800 800" width="800" height="800"><g transform="translate(241.0 13.0) rotate(0.0 202.5 322.0) scale(1.0088153021090467 1.0109493347984773)"><svg width="401.461" height="637.025" viewBox="0 0 401.461 637.025"><clipPath id="a"><path d="M121.066 114.769c-2.588 2.863-14.185 3.144-13.466-6.882 5.23-2.672 12.738 1.469 13.466 6.882z"/></clipPath><path d="m140.465 306.021 6.998 47.852 40.547 7.051zm113.118-138.243.985-.172 3.503 20.06-.985.173z" fill="#00257d"/><path d="m254.077 167.69 20.856 119.444-47.674-95.548z" fill="#00257d"/><path d="m102.768 167.69 3.969-72.39-.153-27.984 64.65 6.821 34.474 41.858v20.738l-18.882 38.491 1.682 4.601 12.799 43.956-65.739 25.756 12.04-67.767-2.465-11.128z" fill="#ffd6b5"/><g fill="#00257d"><path d="m128.756 129.787 10.37-5.6.476.88-10.37 5.6zm-8.052-4.409.739-.674 4.037 4.427-.738.674zm67.326 5.552.956-.294 2.196 7.157-.956.293zm7.185-6.129.94-.344 3.358 9.174-.939.344z"/><path d="m186.571 131.507 9.491-5.587.507.862-9.49 5.587zm-27.804 41.555-56.042-4.874a.5.5 0 0 1-.456-.526l3.969-72.389 1 .054-3.942 71.907 55.559 4.832zm48.845-37.236 7.419-3.338-5.373-10.066 9.054 6.166 6.886-18.4-20.447-15.836z"/><path d="m207.817 136.282-.41-.912 6.931-3.118-5.121-9.594a.5.5 0 0 1 .722-.649l8.528 5.807L225 110.358l-20.156-15.61.612-.791 20.444 15.836a.5.5 0 0 1 .162.57l-6.885 18.4a.5.5 0 0 1-.75.239l-7.376-5.023 4.417 8.274a.5.5 0 0 1-.236.691zm-62.996 35.215.976-.216 4.474 20.197-.977.216zm-17.74-31.333a84.2 84.2 0 0 1-10.763-.661l.143-.99c.232.034 23.278 3.254 35.477-5.123l.566.824c-6.56 4.5-16.059 5.7-22.873 5.911-.873.027-1.726.039-2.55.039zm9.483-40.645 20.615-8.258 4.2 7.266-19.494 10.899z"/></g><path d="M121.066 114.769c-2.588 2.863-14.185 3.144-13.466-6.882 5.23-2.672 12.966 1.499 13.466 6.882z" fill="#fff"/><path d="M115.673 117.019a10.236 10.236 0 0 1-4.14-.835c-3.143-1.4-4.717-4.358-4.432-8.333a.5.5 0 0 1 .271-.409 10.1 10.1 0 0 1 9.292.436 9.031 9.031 0 0 1 4.9 6.843.5.5 0 0 1-.138.395c-1.101 1.145-3.349 1.903-5.753 1.903zm-7.592-8.81c-.211 4.314 1.969 6.221 3.858 7.062 3.027 1.346 7 .737 8.6-.69a8.113 8.113 0 0 0-4.357-5.826 9.178 9.178 0 0 0-8.101-.546z" fill="#00257d"/><g clip-path="url(#a)"><circle cx="113.092" cy="110.032" fill="#00257d" r="4.133"/></g><path d="m124.959 100.097-4.557 8.095-12.582-8.597 1.915-5.116zm44.663 16.277c-14.384-7.16-25.217-1.507-25.325-1.449l-.475-.88c.112-.06 11.377-5.967 26.245 1.434z" fill="#00257d"/><path d="M37.072 243.208 96.44 306.75l2.146-81.138z" fill="#0084cc"/><path d="m290.483 338.421 60.581 175.435h-27.006l-28.053-15.45-31.41-90.961h-65.551l-73.406-24.096-4.224 4.419-26.877.384-22.808-67.102 96.651 28.773z" fill="#00257d"/><path d="m138.412 306.75 29.968 43.073 40.577 11.83 18.302-162.855-40.433 11.83-23.911 26.819-29.629-33.831z" fill="#0084cc"/><path d="M260.651 252.032c0 1.183 29.832 86.389 29.832 86.389L217.67 254z" fill="#00257d"/><path d="m260.18 252.192.945-.326 29.832 86.39-.945.326z" fill="#00257d"/><path d="m94.537 388.152 26.712 77.561 26.712-.791-26.547-77.154z" fill="#0084cc"/><path d="M122.173 468.9a.5.5 0 0 1-.473-.337l-27.635-80.248.945-.326 27.49 79.829 24.2-5.016-25.761-74.871.945-.325 25.946 75.408a.5.5 0 0 1-.371.652l-25.188 5.22a.5.5 0 0 1-.098.014z" fill="#00257d"/><path d="m102.832 387.933.945-.326 26.843 77.944-.946.326zm9.169-.002.946-.325 25.97 75.408-.946.326z" fill="#00257d"/><path d="m116.137 462.543-57.201 27.642-.291 12.58 105.812.309L150.669 463z" fill="#fa0"/><path d="m164.457 503.575-105.42-.309a.5.5 0 0 1-.5-.5l-.1-12.581a.5.5 0 0 1 .282-.454l57.2-27.643a.508.508 0 0 1 .224-.049l34.532.457a.5.5 0 0 1 .467.338l13.788 40.074a.5.5 0 0 1-.473.663zm-104.923-1.308 104.222.305L150.31 463.5l-34.062-.452-56.81 27.452z" fill="#00257d"/><path d="m171.42 510.82-119.154-.348.023-7.707 119.155.349z" fill="#ffe68c"/><path d="m171.418 511.321-119.154-.349a.5.5 0 0 1-.5-.5l.022-7.708a.5.5 0 0 1 .5-.5l119.154.349a.5.5 0 0 1 .5.5l-.022 7.707a.5.5 0 0 1-.5.501zm-118.653-1.347 118.154.345.02-6.707-118.154-.346z" fill="#00257d"/><path d="m324.058 513.856 26.711 77.561 26.712-.791-26.546-77.153z" fill="#0084cc"/><path d="M351.693 594.6a.5.5 0 0 1-.472-.337l-27.636-80.245.946-.325 27.492 79.828 24.2-5.015-25.761-74.871.945-.326 25.947 75.408a.5.5 0 0 1-.372.653l-25.187 5.22a.5.5 0 0 1-.102.01z" fill="#00257d"/><path d="m332.353 513.637.946-.326 26.843 77.945-.946.325zm9.167.001.946-.326 25.97 75.409-.946.325z" fill="#00257d"/><path d="m152.005 312.287 5.522-10.986h-6.057l-7.023 14.124.362.519h5.358l-2.248 4.471 1.262 1.813 8.788-9.941zm54.461-7.857h5.977l-6.022 11.98 8.73-9.874.648-5.762h-1.518l1.955-3.889.798-7.097h-3.288zm-17.801-37.668h-6.057l-7.28 14.643h5.977l-6.021 11.98 13.823-15.637h-5.964zm-31.138-23.025h-6.057l-7.28 14.642h5.977l-6.021 11.98 13.823-15.636h-5.964zm62.718-.527h-5.964l5.522-10.987h-6.057l-7.28 14.643h5.977l-6.022 11.98zm-38.94-19.37-6.021 11.98 13.823-15.636h-5.964l4.997-9.941-1.314.385-11.144 12.499-.354.713zm27.653 137.813.677-6.033-2.705 5.442zm-20.293-37.327h-6.057l-7.28 14.643h5.977l-6.021 11.98 13.823-15.636h-5.964z" fill="#fff"/><path d="m345.657 588.247-57.201 27.642-.291 12.58 105.813.31-13.789-40.074z" fill="#fa0"/><path d="m393.978 629.279-105.42-.309a.5.5 0 0 1-.5-.5l-.1-12.581a.5.5 0 0 1 .282-.454l57.2-27.642a.48.48 0 0 1 .224-.05l34.532.458a.5.5 0 0 1 .466.337l13.788 40.074a.5.5 0 0 1-.472.663zm-104.924-1.307 104.222.305-13.445-39.077-34.063-.451-56.809 27.451z" fill="#00257d"/><path d="m400.942 636.523-119.154-.349.023-7.707 119.154.35z" fill="#ffe68c"/><path d="m400.938 637.025-119.154-.348a.5.5 0 0 1-.5-.5l.023-7.707a.479.479 0 0 1 .5-.5l119.154.349a.5.5 0 0 1 .5.5l-.023 7.707a.5.5 0 0 1-.5.499zm-118.652-1.347 118.154.346.019-6.707-118.154-.346z" fill="#00257d"/><path d="m274.933 287.134 95.043 56.469-50.101-83.251z" fill="#0084cc"/><path d="M351.064 514.356h-27.006a.491.491 0 0 1-.241-.062l-28.053-15.45a.5.5 0 0 1-.231-.275l-31.3-90.624h-65.189a.519.519 0 0 1-.156-.025l-73.406-24.1.312-.95 73.33 24.071H264.6a.5.5 0 0 1 .472.336l31.348 90.78 27.771 15.3h26.176L290.01 338.584l.946-.327 60.58 175.436a.5.5 0 0 1-.472.663z" fill="#00257d"/><path d="M246.428 177.1c57.692 27.5 104.636 77.417 104.636 77.417l18.912 89.083-85.907-74.387-9.136 17.918-43.678-26.782-20.265-66.782z" fill="#0084cc"/><path d="m363.798 314.503-.216-1.017-1.47 2.924zm-19.442-47.741h-6.057l-7.281 14.643h5.978l-6.022 11.98 13.823-15.637h-5.963zm-31.138-23.025h-6.057l-7.281 14.642h5.977l-6.021 11.98 13.823-15.636h-5.964zm-40.826 41.839 2.541 1.558 4.517-8.859h-3.427zm58.838-50.045-.076-.068-.18.357zm-49.15-14.82h-6.057l-7.281 14.642h5.977l-6.021 11.98 13.823-15.636h-5.964zm-71.09-27.144.575 1.896 3.247-3.672zm34.429 72.669 5.522-10.987h-6.057l-5.129 10.316 7.925 4.859 3.703-4.188zm5.522-68.551h-6.057l-7.28 14.642h5.978l-6.022 11.98 13.823-15.636h-5.964z" fill="#fff"/><path d="m188.508 179.825-1.682 93.75 10.539 100.859 93.118-36.013-59.228-78.069 22.822-92.662z" fill="#00257d"/><path d="M227.259 273.847a11.515 11.515 0 1 0-19.117 12.84S386.188 529.845 387.4 529.073 227.259 273.847 227.259 273.847zm8.763 32.374a4.527 4.527 0 0 1-6.318-1.039l-12.247-17.065a4.528 4.528 0 0 1 7.357-5.28l12.247 17.063a4.528 4.528 0 0 1-1.039 6.321z" fill="#fff"/><path d="M387.423 529.594c-.5 0-1.613-1.366-8.471-10.412-4.726-6.234-11.614-15.438-20.473-27.358-14.92-20.073-35.634-48.118-61.566-83.357-44.154-60-88.732-120.875-89.177-121.482a12.015 12.015 0 1 1 19.909-13.455.56.56 0 0 1 .036.049c.4.637 40.8 64.343 80.527 127.325 23.334 36.992 41.874 66.5 55.107 87.7 7.858 12.59 13.907 22.354 17.98 29.021 7.007 11.469 6.935 11.514 6.375 11.871a.465.465 0 0 1-.247.098zM217.67 269.21a11.015 11.015 0 0 0-9.116 17.2c1.6 2.2 151.492 206.841 175.835 238.248-16.328-27.383-107.422-171.486-157.526-250.5l-.022-.03a11 11 0 0 0-9.171-4.918z" fill="#00257d"/><path d="M233.389 307.568a5.026 5.026 0 0 1-4.091-2.094l-12.247-17.065a5.028 5.028 0 1 1 8.169-5.863l12.247 17.065a5.034 5.034 0 0 1-1.153 7.016 5.006 5.006 0 0 1-2.925.941zm-12.262-26.119a4.029 4.029 0 0 0-3.264 6.377l12.247 17.065a4.032 4.032 0 0 0 5.621.923 4.032 4.032 0 0 0 .923-5.62l-12.247-17.065a4 4 0 0 0-2.619-1.626 4.111 4.111 0 0 0-.661-.054z" fill="#00257d"/><path d="M197.365 374.934a.5.5 0 0 1-.5-.448l-10.537-100.859 1.68-93.811a.5.5 0 0 1 .409-.483l65.569-12.133a.5.5 0 0 1 .576.611L231.8 260.24l59.084 77.878a.5.5 0 0 1-.218.769L197.545 374.9a.487.487 0 0 1-.18.034zM189 180.242l-1.675 93.342 10.469 100.148 91.889-35.538-58.827-77.539a.5.5 0 0 1-.087-.422l22.637-91.911z" fill="#00257d"/><path d="M369.976 344.1a.5.5 0 0 1-.327-.122l-85.424-73.97-8.847 17.351a.5.5 0 0 1-.707.2l-43.678-26.782a.5.5 0 0 1-.217-.282l-20.265-66.785a.5.5 0 0 1 .268-.6l35.438-16.466a.5.5 0 0 1 .426 0c57.116 27.225 104.315 77.026 104.785 77.526a.5.5 0 0 1 .125.239l18.912 89.091a.5.5 0 0 1-.235.535.505.505 0 0 1-.254.065zm-85.907-75.387a.5.5 0 0 1 .328.121l84.781 73.414-18.578-87.487c-2.415-2.537-48.563-50.532-104.179-77.107L211.6 193.837l20.083 66.188 43.055 26.4 8.891-17.437a.5.5 0 0 1 .349-.263.52.52 0 0 1 .091-.009z" fill="#00257d"/><path d="m276.35 275.095 15.528-39.275.93.368-15.528 39.275zM146.744 344.1a.5.5 0 0 1-.472-.336l-30.354-87.3a.5.5 0 0 1-.026-.114l-7.479-74.406a.5.5 0 0 1 .5-.55l38.7-.128a.489.489 0 0 1 .49.392l2.174 9.816a.5.5 0 0 1 .011.133l-3.266 66.5.229 85.494a.5.5 0 0 1-.416.494.476.476 0 0 1-.091.005zm-29.863-87.9 29.355 84.425-.22-82.535 3.263-66.456-2.073-9.358-37.743.126z" fill="#00257d"/><path d="m188.087 192.309-41.571 76.096.096 25.701 41.055-73.145z" fill="#8fd2ff"/><path d="M146.612 294.606a.5.5 0 0 1-.126-.016.5.5 0 0 1-.374-.482l-.1-25.7a.508.508 0 0 1 .061-.242l41.571-76.1a.5.5 0 0 1 .939.247l-.42 28.652a.519.519 0 0 1-.064.237l-41.055 73.145a.5.5 0 0 1-.432.259zm.4-26.074.089 23.675 40.064-71.38.389-26.5z" fill="#00257d"/><path d="m148.465 203.616 18.707 26.979-7.727 14.143-11.837-17.165z" fill="#8fd2ff"/><path d="M159.445 245.238a.5.5 0 0 1-.411-.216L147.2 227.857a.5.5 0 0 1-.088-.3l.857-23.956a.5.5 0 0 1 .911-.268l18.707 26.979a.5.5 0 0 1 .028.525l-7.727 14.143a.5.5 0 0 1-.413.26zm-11.332-17.812 11.283 16.36 7.189-13.16-17.674-25.489z" fill="#00257d"/><path d="m109.499 187.751-41.957 9.503L96.44 306.75l38.566-30.539z" fill="#0084cc"/><path d="m120.332 278.275-7.281 14.643h.857l8.507-6.736 3.974-7.907zm-30.603-12.039 5.522-10.987h-6.057l-4.145 8.337 1.664 6.306h1.178l-.772 1.536.915 3.47 7.658-8.662zm5.522-68.551h-6.057l-7.281 14.642h5.978l-6.022 11.98 13.823-15.636h-5.963z" fill="#fff"/><path d="m75.477 195.457 35.516 99.769L96.44 306.75 67.542 197.254z" fill="#8fd2ff"/><path d="M96.44 307.25a.5.5 0 0 1-.483-.373l-28.9-109.495a.5.5 0 0 1 .373-.616l7.935-1.8a.5.5 0 0 1 .581.32l35.516 99.769a.5.5 0 0 1-.161.56l-14.55 11.527a.5.5 0 0 1-.311.108zM68.158 197.627l28.571 108.256 13.671-10.827-35.245-99.014z" fill="#00257d"/><path d="M96.44 307.25a.5.5 0 0 1-.483-.373l-28.9-109.495a.5.5 0 0 1 .373-.616l41.957-9.5a.5.5 0 0 1 .591.349l25.507 88.461a.5.5 0 0 1-.171.53l-38.563 30.536a.5.5 0 0 1-.311.108zM68.158 197.627l28.571 108.256 37.7-29.856-25.284-87.684z" fill="#00257d"/><path d="M78.862 36.37 57.744 55.161l-39.8 167.769 20.732 43.471 45.036-7.881-8.685-32.908 4.74-91.321 17.742-8.271 7.254-45.791-7.895-.934-7.6 16.993 4.626-30.27 10.869-12.542-1.705-13.941-4.729 3.619-.552-8.283-7.431 6.021-.513-8.089-10.276 9.04z" fill="#ffd6b5"/><path d="M38.676 266.9a.5.5 0 0 1-.451-.285l-20.732-43.47a.5.5 0 0 1-.035-.331l39.8-167.768a.491.491 0 0 1 .154-.258L78.53 36a.5.5 0 0 1 .828.31L81 49.266a.5.5 0 0 1-.184.454l-11.883 9.459-3.451 16.874 5.942 2.24a.5.5 0 0 1 .324.468v41.016a.5.5 0 0 1-.359.48l-13.935 4.094-.282-.96 13.574-3.991V79.1l-6.017-2.269a.5.5 0 0 1-.314-.568L67.99 58.8a.5.5 0 0 1 .178-.291l11.808-9.4-1.49-11.739-20.292 18.06-39.723 167.444 20.493 42.969 44.125-7.722-8.546-32.381a.531.531 0 0 1-.016-.154l4.74-91.321a.5.5 0 0 1 .288-.427l17.5-8.159 7.132-45.014-7.014-.83-7.45 16.657a.5.5 0 0 1-.951-.279l4.628-30.27a.493.493 0 0 1 .117-.252l10.723-12.374-1.572-12.854-4.036 3.088-.607-.794 4.73-3.619a.5.5 0 0 1 .8.337l1.7 13.941a.5.5 0 0 1-.118.388l-10.77 12.432L90.32 92.71l6.091-13.619a.5.5 0 0 1 .516-.292l7.895.934a.5.5 0 0 1 .435.575L98 126.1a.5.5 0 0 1-.283.375l-17.47 8.144-4.717 90.941 8.67 32.832a.5.5 0 0 1-.4.621l-45.035 7.88a.512.512 0 0 1-.089.007z" fill="#00257d"/><path d="m75.606 74.177-.983-.183L77.2 60.15a.5.5 0 0 1 .163-.286L90.334 48.6 89.4 33.851l-9.511 8.368-.66-.751L89.5 32.427a.5.5 0 0 1 .829.344l1.016 16.014a.5.5 0 0 1-.171.409L78.154 60.5z" fill="#00257d"/><path d="m84.435 75.567-.985-.17 2.214-12.812a.494.494 0 0 1 .136-.266L98.261 49.67l-.919-13.8-6.681 5.41-.63-.777 7.431-6.021a.5.5 0 0 1 .814.355l1 14.991a.5.5 0 0 1-.143.384l-12.509 12.7z" fill="#00257d"/><path d="m121.859 388.193-.889-.849 15.391-16.1-8.955-13.808 1.031-.668 9.22 14.214a.615.615 0 0 1-.071.759z" fill="#fff"/><path d="M94.537 388.652a.5.5 0 0 1-.473-.339l-22.808-67.1a.5.5 0 0 1 .616-.64l96.651 28.773-.285.958-95.724-28.5 22.38 65.841 26.513-.379.014 1-26.877.384zm221.12-76.742.51-.86 54.064 32.121-.511.86z" fill="#00257d"/><path d="m280.353 266.326-16.5 41.709c-28.41 2.39-61.584 19.32-61.584 19.32l50.8 47.079s40.9-34.817 69.843-71.585z" fill="#ffd6b5"/><path d="M253.068 374.934a.5.5 0 0 1-.34-.133l-50.8-47.08a.5.5 0 0 1 .113-.812c.331-.169 33.345-16.878 61.46-19.345l16.382-41.422.93.368-16.5 41.709a.5.5 0 0 1-.423.315c-25.83 2.172-56 16.6-60.756 18.946l49.936 46.282c4.3-3.754 48.251-42.365 69.429-71.208l.806.591c-22.228 30.285-69.436 71.255-69.905 71.667a.5.5 0 0 1-.332.122z" fill="#00257d"/><path d="m280.353 266.326 3.716-9.397 80.089 59.271 5.818 27.403z" fill="#8fd2ff"/><path d="M369.976 344.1a.5.5 0 0 1-.327-.121L280.026 266.7a.5.5 0 0 1-.138-.562l3.716-9.4a.5.5 0 0 1 .763-.218l80.089 59.28a.506.506 0 0 1 .192.3l5.817 27.4a.5.5 0 0 1-.489.6zm-89.027-77.924 88.23 76.077-5.47-25.767-79.409-58.768zM147.608 181.77l-38.697.128 7.479 74.406 30.354 87.299-.228-85.52 3.266-66.497z" fill="#00257d"/><path d="m145.604 317.965.821-.571 22.365 32.144-.821.572zm-90.047-54.243.73-.682 40.52 43.366-.731.683zm131.617-88.772.986-.167.84 4.958-.985.167zm-.857-51.675c19.9-17 23.814 16.529 2.737 23.306l-1.387 28.285 13.018-5.54 2.089-25.448 3.437 22.368 4.779-2.666-5.974-74.015s-15.473-19.586-20.252-22.249c-11.3-4.091-33.35-5.695-49.351-2.875 0 0-23.647-5.453-38.02-1.192-3.907 16.38 5.466 40.322 5.466 40.322s5.709-11.544 9.835-22.571c4.93-4.266 22.586-9.881 22.586-9.881 9.607 22.761 29.286 37.351 51.81 46.749z" fill="#00257d"/><path d="m190.728 92.484.282-.96 14.584 4.283-.281.96zm-.091 6.819.282-.96 15.131 4.456-.282.959z" fill="#fff"/><path d="M187.667 175.366a.5.5 0 0 1-.286-.09.5.5 0 0 1-.214-.435l1.388-28.285a.5.5 0 0 1 .346-.451 19.6 19.6 0 0 0 13.7-17c.362-4.478-1.076-8.11-3.752-9.477-3.022-1.544-7.357-.114-12.205 4.026a.5.5 0 0 1-.82-.451l.718-5.022C160.954 107.429 143.618 91.807 135 71.737c-2.715.887-17.394 5.789-21.882 9.561-4.084 10.887-9.753 22.379-9.81 22.5a.5.5 0 0 1-.913-.04c-.095-.241-9.386-24.276-5.487-40.62a.5.5 0 0 1 .344-.364c13.92-4.126 36.679.828 38.2 1.167l2.037-.176c17.508-1.515 28.077-2.429 47.417 3.075a.51.51 0 0 1 .233.144l20.252 22.25a.5.5 0 0 1 .128.3l5.974 74.015a.5.5 0 0 1-.255.477l-4.779 2.665a.5.5 0 0 1-.738-.361l-2.791-18.169-1.741 21.215a.5.5 0 0 1-.3.42l-13.019 5.539a.49.49 0 0 1-.203.031zm1.87-28.418-1.332 27.146 12.007-5.109 2.063-25.148a.5.5 0 0 1 .993-.035l3.327 21.656 3.871-2.158-5.935-73.524-20.041-22.018c-19.076-5.41-29.567-4.5-46.92-3l-2.114.183a.5.5 0 0 1-.155-.011c-.234-.054-23.379-5.3-37.487-1.281-3.2 14.056 3.375 33.831 5.108 38.652 1.492-3.092 5.948-12.507 9.3-21.473a.494.494 0 0 1 .141-.2c4.95-4.285 22.037-9.749 22.762-9.98a.5.5 0 0 1 .612.282c8.49 20.116 25.831 35.755 51.542 46.483a.5.5 0 0 1 .3.532l-.591 4.131c4.783-3.776 9.123-4.961 12.308-3.334 3.044 1.555 4.689 5.559 4.294 10.448a20.593 20.593 0 0 1-14.053 17.758z" fill="#00257d"/><path d="m205.608 118.36-18.424-3.76a.505.505 0 0 1-.326-.227.5.5 0 0 1-.057-.392c5.648-21.085 1.938-36.514 1.9-36.667l.97-.242c.039.154 3.754 15.568-1.768 36.654l17.905 3.65z" fill="#fff"/><path d="m57.695 52.935.636-.771 68.93 56.876-.636.771z" fill="#00257d"/><path d="m54.928 19.482 72.015 89.944-10.026 10.049-89.128-58.182z" fill="#cc1d37"/><path d="M116.917 119.975a.5.5 0 0 1-.274-.082l-90.19-59.208a.5.5 0 0 1-.216-.322.5.5 0 0 1 .079-.38L54.517 19.2a.5.5 0 0 1 .8-.028l72.015 89.944a.5.5 0 0 1-.036.665L117.27 119.83a.5.5 0 0 1-.353.145zM27.43 60.131l89.421 58.7 9.422-9.443-71.316-89.069z" fill="#00257d"/><path d="M42.324 6.33 14.768 22.322 8.781 53.777.5 47.947l5.987-31.455L34.043.5z" fill="#fa0"/><path d="m14.768 22.322 18.773-10.895 20.153 14.611-4.07 21.381-18.443 10.704L10.77 43.325z" fill="#00257d"/><path d="m55.611 15.964 8.281 5.83-5.987 31.456-27.556 15.991-8.281-5.83 27.556-15.992z" fill="#fa0"/><path d="M30.349 69.741a.5.5 0 0 1-.291-.093L8.49 54.184a.5.5 0 0 1-.2-.5l5.987-31.456a.5.5 0 0 1 .24-.339L42.073 5.9a.5.5 0 0 1 .542.026l21.569 15.462a.5.5 0 0 1 .2.5L58.4 53.343a.5.5 0 0 1-.24.339L30.6 69.674a.5.5 0 0 1-.251.067zM9.332 53.557l21.046 15.09 27.078-15.715 5.885-30.918L42.3 6.925 15.217 22.64z" fill="#00257d"/><path d="m.5 47.947 10.27-4.622 20.411 14.798-9.113 5.288zM34.043.5l21.568 15.464-1.917 10.074-20.153-14.611z" fill="#ffe68c"/><path d="M22.068 63.911a.5.5 0 0 1-.291-.093L.209 48.354a.5.5 0 0 1-.2-.5L6 16.4a.5.5 0 0 1 .24-.339L33.792.067a.5.5 0 0 1 .542.027L55.9 15.557a.5.5 0 0 1 .2.5l-5.985 31.456a.5.5 0 0 1-.24.339L22.319 63.844a.5.5 0 0 1-.251.067zM1.051 47.727 22.1 62.816 49.176 47.1l5.884-30.916L34.014 1.1 6.936 16.81z" fill="#00257d"/><path d="M53.4 26.443 33.247 11.832a.5.5 0 0 1-.206-.428l.5-10.927 1 .046-.489 10.658 19.935 14.452zM30.887 58.528 10.711 43.9.705 48.4.3 47.491l10.27-4.622a.5.5 0 0 1 .5.051l20.41 14.8z" fill="#00257d"/><path d="m33.541 16.821-14.293 8.133-3.019 16.541 3.019 2.123 4.717-14.302 9.303-8.014z" fill="#fff"/><path d="m57.59 53.637.63-.776 69.039 56.176-.631.776z" fill="#00257d"/><path d="m100.228 108.192 3.038-28.338-9.243-2.657-6.638 28.566 6.421 8.315z" fill="#ffd6b5"/><path d="m99.657 115.654-.99-.143 1.066-7.39 2.991-27.9-8.333-2.4-5.728 24.65-.974-.226 5.847-25.163a.5.5 0 0 1 .233-.318.5.5 0 0 1 .392-.05l9.243 2.658a.5.5 0 0 1 .359.534l-3.038 28.338z" fill="#00257d"/><path d="M196.867 374.32a.613.613 0 0 1-.611-.551l-1.57-15.022 1.222-.128 1.487 14.224 38.093-14.733.444 1.146-38.843 15.023a.632.632 0 0 1-.222.041zm-50.79-30.853.34-1.181 22.414 6.444-.34 1.18z" fill="#fff"/></svg></g><g transform="translate(185.0 358.0) rotate(0.0 265.5 205.0) scale(1.0007538635506972 1.0007322431047108)"><svg width="530.6" height="409.7" viewBox="0 0 530.6 409.7"><path d="m68.7 269.6-28.1 22.6 259.5 117-1.7-36zM304.6 53c174.8 78.8 225.5 186.5 225.5 186.5-37.2 82.5-154.8 137-231.7 133.7L68.7 269.6C15.3 214.2-21.7 89.9 15.5 7.5c0 0 114.3-33.3 289.1 45.5z" fill="#ffe68c"/><path d="M16.8 179.1s77.3-5.8 207.1 52.7 176.6 120.3 176.6 120.3c12-5.3 23.4-10.8 34.3-16.8 16.3-8.9-64.9-80.2-200.5-141.3S6.7 142.3 6.7 142.3c3.2 13.2 6.5 25.7 10.1 36.8z" fill="#fa0"/><path d="M1.6 108.8s100.9-17.7 254.6 51.6S463.4 317 463.4 317c-9.4 6.7-18.9 12.8-28.6 18.4-14.5 8.4-64.9-80.2-200.5-141.3S6.7 142.3 6.7 142.3c-2.3-11.1-4.1-22.2-5.1-33.5z" fill="#fa0"/><path d="M1.6 108.8s100.9-17.7 254.6 51.6S463.4 317 463.4 317c8.5-6.2 16.6-12.9 24.3-20.1 0 0-50.3-94-216.8-169.1S.6 77.4.6 77.4c-.1 11.3.1 22.1 1 31.4z" fill="#fa0"/><g fill="#322763"><path d="M300.1 409.7h-.2l-259.5-117c-.3-.1-.4-.4-.2-.7 0-.1.1-.1.1-.2l28.1-22.6c.1-.1.3-.1.5-.1l229.7 103.6c.2.1.3.2.3.4l1.7 36c0 .3-.2.6-.5.6zM41.5 292l258 116.4-1.6-34.9L68.8 270.2zm393 43.7c-.6-.8-66.4-80.8-200.3-141.2-70-31.6-128.1-43.9-164.5-48.8-39.5-5.2-62.7-3-62.9-2.9l-.1-1c.2 0 23.5-2.3 63.1 2.9 36.5 4.8 94.7 17.2 164.8 48.9 134.2 60.5 200 140.7 200.7 141.5zm52.8-38.6c-.1-.2-12.9-23.8-45.9-56.3-30.4-30-84.7-73.8-170.7-112.6-47.4-21.4-120.2-48-197.4-53.3C27.1 71.7 1 77.8.7 77.8l-.2-1c.3-.1 26.6-6.1 72.9-3C116 76.9 185 88.5 271.1 127.4c47.5 21.4 115.7 58.4 171 112.8 33.1 32.6 45.9 56.3 46.1 56.5z"/><path d="M463 317.2c-.1-.2-13.8-22.1-46-52.2-29.7-27.8-81.8-68.4-161.1-104.1S111.8 113 71.3 109.1c-43.9-4.2-69.3.1-69.6.2l-.2-1c.3 0 25.8-4.4 69.8-.2 40.6 3.9 105.6 16 185.1 51.8S388 236.5 417.8 264.3c32.3 30.2 46 52.2 46.1 52.4zm-62.9 35.3c-.5-.6-48.3-62.4-176.4-120.2s-206-52.7-206.8-52.7l-.1-1c.8-.1 79-5.1 207.3 52.8s176.3 119.9 176.8 120.5z"/><path d="M305.4 373.8c-2.4 0-4.7 0-7.1-.2h-.2L68.5 270c-.1 0-.1-.1-.2-.1C13.1 212.6-21.4 88.1 15.1 7.3c0-.2.1-.3.3-.3.3-.1 29.2-8.3 79.1-6.8 46 1.4 119.9 11.6 210.3 52.4 49.9 22.5 121.3 62.1 178.5 122.9 34.2 36.4 47.2 63.5 47.3 63.8.1.1.1.3 0 .4-35.5 78.6-146 134.1-225.2 134.1zm-6.9-1.1c38.4 1.7 87.1-11.3 130.4-34.6 47.8-25.7 83.5-60.7 100.6-98.6-1.3-2.6-14.5-28.8-47.1-63.4-31.5-33.5-87.9-82-178.1-122.7C254.6 31.1 177.8 3.7 94.5 1.2 47-.3 18.6 7.1 15.9 7.9c-17 37.9-19.6 87.8-7.3 140.7 11.2 47.9 33.7 92.9 60.4 120.6z"/></g></svg></g><g transform="translate(62.0 394.0) rotate(0.0 338.0 195.5) scale(1.0013227532820723 0.9975940379085735)"><svg width="675.107" height="391.943" viewBox="0 0 675.107 391.943"><path d="M132.028 321.249C99.1 302.705 7.77 331.869.743 272.357c-5.725-48.486 98.477-101.6 119.515-124.947 12.81-14.214 13.455-48.944-9.356-59.861-35.714-17.09-59.146 16.75-63.077 52.617C34.243 78.6 71.474 24.13 136.555 27.9 246.111 34.233 295 199.924 340.274 177.288c15.371-7.685.9-29.878-20.825-36.216 20.825-9.055 45.856.729 62.474 18.108 17.938 18.759 44.578 93.992 87.132 111.2s76.745-24.28 104.816-29.713 53.226 12.2 56.144 19.129c-20.455-1.918-30.431 6.088-28.875 16.03 2.136 13.652 17.709 15.832 31.272 21.728 22.406 9.742 25.412 32.4 25.412 32.4s-12.438-16.695-26.845-7.264c-15.589 10.2 28.678 40.95-14.867 58.4-64.415 25.816-152.77-4.852-207.234-7.9-74.5-4.164-135.959 25.279-188.61 12.116-65.028-16.251-51.868-43.569-88.24-64.057z" fill="#0084cc"/><path d="M632.412 297.554c-13.563-5.9-25.386-4.561-27.522-18.213-1.556-9.941 4.67-21.463 25.125-19.545-2.918-6.931-28.076-24.561-56.144-19.129s-61.508 37.441-104.063 20.233-69.947-82.966-87.885-101.725c-16.618-17.379-41.649-27.163-62.474-18.108 21.73 6.338 36.2 28.531 20.825 36.216C295 199.924 246.111 34.233 136.555 27.9c-65.079-3.77-102.31 50.7-88.731 112.262 1.4-15.453 6.564-25.921 12.714-37.968 23.338-34.125 74.208-23.225 99.876 4.342 7.67 8.238 17.694 24.266 30.066 19.751 10.074-3.676 13.123-17.06 26.3-10.1 4.419 2.335 7.633 6.4 10.547 10.463 18.56 25.874 27.785 55.836 48.074 81.166a20.794 20.794 0 0 0 5.642 5.4c2.281 1.291 5.265 1.662 7.479.26 3.486-2.209 3.4-7.2 4.787-11.081a13.7 13.7 0 0 1 11.786-8.844c11.05-.665 14.841 13.341 21.427 19.97 9.241 9.3 19.915 17.808 32.721 21.471a20.843 20.843 0 0 0 8.6 1 9.065 9.065 0 0 0 6.989-4.621c.8-1.667.907-3.578 1.456-5.346 3.175-10.212 18.183 4.75 21.363 8.851 15.733 20.292 21.444 46.343 43.835 60.921 2.172 1.414 4.832 2.752 7.25 1.82 3.038-1.172 3.759-5.034 5.457-7.817 11.32-18.551 42.446 9.284 55.305 13.658 17.8 6.055 72.062-10.3 63.438 24.464-1.216 4.9-4.282 9.948-2.388 14.63 4.33 10.7 21.931 4.565 26.617 16.134a13.046 13.046 0 0 1-1.5 12.313c-5.412 7.468-19.528 20.177-28.915 20.945 17.319-1.417 34.2-4.323 49.362-10.85 7.54-3.245 12.084-6.493 15.254-10.48 13.774-17.326-4.985-37.993 6.3-44.8 12.228-7.375 20.158 4.139 20.158 4.139s-3.006-22.653-25.412-32.399z" fill="#fff"/><path d="M531.2 304.877c-2.41-2.05-5.57-2.836-9.984-.643l-3.411-5.9a56.608 56.608 0 0 0-3.908-5.723c-2.749-3.489-5.77-6.056-9.023-5.9a31.021 31.021 0 0 0-5-4.711 28.8 28.8 0 0 0-6.715-3.74c-4.848-1.906-10.214-2.395-14.96.228l-1.2-1.176A79.351 79.351 0 0 0 479.348 264a70.455 70.455 0 0 1-9.54-3.1 67.272 67.272 0 0 1-7.639-3.683c-1.682 1.233-3.6 1.259-6.064-3.567l-1.008-.908q-.827-.585-1.646-1.191c-.808 1.366-1.644 2.783-2.755 4.666l-2.265-2.068c-.542-3.057-1.118-5.586-1.7-8.036q-1.418-1.245-2.808-2.545c-.981.21-2.132.722-3.351.957-2.631.508-5.513-.313-7.835-8.166a7.651 7.651 0 0 0-3.986.2c-2.068-2.543-5.226 7.879-10.017-2.168-2.078-2.512-4.11-5.8-6.493-8.512l-5.019-4.255c-4.558.5-11.53 9.778-13.854-1.585-12.009-7.822-23.805-15.445-36.292-22.658-4.233 4.383-8.478 8.784-12.421 13.39-2.944 1.161-7.079 8.419-9.324 3.092a74.5 74.5 0 0 1 1.378-13.051 62.48 62.48 0 0 1-.192-10.046c-3.8-1.645-7.358-3.761-18.194 5.964-.81.8-1.6 1.494-2.388 2.144 3.891 4.5 6.769 10.811 10.582 14.649 9.241 9.3 19.914 17.808 32.722 21.471a20.837 20.837 0 0 0 8.6 1 9.065 9.065 0 0 0 6.989-4.621c.8-1.667.907-3.578 1.456-5.345 3.175-10.213 18.183 4.749 21.362 8.85 15.735 20.292 21.445 46.343 43.836 60.921 2.172 1.414 4.832 2.752 7.25 1.819 3.038-1.171 3.759-5.033 5.457-7.816 11.32-18.551 42.446 9.284 55.305 13.658 5.055 1.716 13.045 1.629 21.706 1.417zm74.2 69.565-2.181-4.087c-1.8-3.351-3.656-6.7-5.534-10.025a13.077 13.077 0 0 1-2.021 10.67c-5.411 7.468-19.527 20.178-28.914 20.945 14.952-1.223 29.572-3.562 43.048-8.377l-2.349-4.916q-1.021-2.102-2.049-4.21zM266.977 196.175c2.607 3.963 5.388 7.854 8.42 11.64a20.761 20.761 0 0 0 5.642 5.4c2.281 1.292 5.266 1.664 7.479.261 3.486-2.209 3.4-7.2 4.787-11.081a12.407 12.407 0 0 1 .615-1.409c-6.719-3.7-13.02-9.9-19.9-12.641-1.812 7.838-4.249 8.37-7.043 7.83zM574.476 339.91a9.21 9.21 0 0 0-4.1-3.811 10.355 10.355 0 0 0 .172 6.452 10.072 10.072 0 0 0 5.452 5.463 12.76 12.76 0 0 0-1.524-8.104zM593.7 354.1q.434.334.835.714c-.139-.238-.272-.481-.411-.719-.148.005-.284.005-.424.005z" fill="#c0e1f2" opacity=".7"/><path d="M440.573 244.53c1.219-.235 2.37-.747 3.351-.957a147.618 147.618 0 0 1-10.265-10.708q-.48 1.735-.921 3.5c2.322 7.852 5.204 8.673 7.835 8.165zm21.596 12.692a80.238 80.238 0 0 1-7.072-4.475l1.008.908c2.465 4.826 4.382 4.8 6.064 3.567zm71.347 9.96c8.8-3.439 15.373.636 21.856 5.953l2.436 2.045 2.4 2.174c1.615 1.453 3.264 2.893 4.988 4.226a31.166 31.166 0 0 0 11.605 5.992 70.928 70.928 0 0 0 8.775 2.031 35.125 35.125 0 0 0 2.109-5.291c3.366-1.974 6.162-3.768 8.983-5.558a31.606 31.606 0 0 0 1.332-7.089c-2.7-.6-5.177-1.311-8.178-13.886-5.8 2.244-8.869-1.462-12.014-4.81-1.572-1.666-3.144-3.263-5.067-3.91-1.937-.62-4.2-.34-7.085 1.653.958-2.839 2.008-5.81 3.13-8.8-12.178 3.534-25.361 11.029-39.837 16.716 1.118 1.327 2.247 3.573 3.375 7.316.471.504.718.745 1.192 1.238z" fill="#a8d5ee" opacity=".7"/><path d="M478.194 278.488c4.746-2.623 10.112-2.134 14.96-.228a28.8 28.8 0 0 1 6.715 3.74 31.021 31.021 0 0 1 5 4.711c3.253-.155 6.274 2.412 9.023 5.9a56.608 56.608 0 0 1 3.908 5.723l3.411 5.9c4.414-2.193 7.574-1.407 9.984.643 21.839-.533 47.915-1.856 41.739 23.044-.672 2.711-1.908 5.465-2.56 8.178a9.21 9.21 0 0 1 4.1 3.811 12.76 12.76 0 0 1 1.521 8.1c5.375 2.5 12.908 2.377 17.7 6.085h.424c.139.238.272.481.411.719a10.806 10.806 0 0 1 2.629 3.872 12.059 12.059 0 0 1 .526 1.645 566.425 566.425 0 0 1 5.534 10.025l2.181 4.087 2.045 4.208 2.349 4.916a107.265 107.265 0 0 0 6.314-2.473c5.539-2.384 9.458-4.771 12.406-7.45-.191-.237-.384-.471-.572-.716a45.248 45.248 0 0 1-1.655-2.2c-1.077-1.528-2.1-3.174-3.105-4.892s-1.978-3.508-2.955-5.323l-1.468-2.731-1.549-2.646a76.87 76.87 0 0 0-6.681-9.851c-4.157.666-7.893.941-11.982 1.653a65.047 65.047 0 0 0-9.909-22.185 66.343 66.343 0 0 0-7.3-8.872c-2.617-2.758-5.358-5.37-8.144-7.9a252.706 252.706 0 0 0-4.209-3.736l-4.343-3.51c-2.887-2.327-5.745-4.638-8.5-7q-2.07-1.773-4.056-3.6l-3.914-3.659a72.492 72.492 0 0 1-7.129-7.821c-4.117 2.839-4.948-2.207-7.524-11.472-.474-.493-.721-.734-1.188-1.241-6.529 2.193-11.4 5.307-15.164-3.285-11.743 3.342-24.3 4.681-37.816 1.347a79.351 79.351 0 0 1-2.355 13.309zM450.7 256.222c1.111-1.883 1.947-3.3 2.755-4.666q-3.437-2.541-6.719-5.438c.581 2.45 1.157 4.979 1.7 8.036z" fill="#a8d5ee" opacity=".7"/><path d="M652.763 325.374a18.255 18.255 0 0 1 4.151 3.458c.206-.15.413-.3.617-.446a45.829 45.829 0 0 0-4.474-11.841 143.053 143.053 0 0 0-2.165 3.709c.67 1.562 1.287 3.299 1.871 5.12zm-58.448-78.42c1.671 1.052 3.258 2.21 4.845 3.366s3.178 2.3 4.812 3.423l2.32 2.807 5.438 6.536c4.045-2.637 10-4.067 18.285-3.29-2.535-6.02-21.845-20.1-45.266-20.143 2.386 1.483 4.749 3 7.153 4.585zM47.824 140.162a77.241 77.241 0 0 1 2.6-14.174 28.71 28.71 0 0 1-5.174-4.194 117.787 117.787 0 0 0 2.574 18.368zm9.127-42.557a158.121 158.121 0 0 0-5.435-4.147l-1.409-1.009-.7-.492a6.271 6.271 0 0 1-.638-.473c-.264-.22-.533-.433-.8-.647a100.766 100.766 0 0 0-2.913 23.524l.431.642c.068.095.12.189.2.287l.3.3.607.6a31.46 31.46 0 0 0 4.731-4.046c.806 1.484 1.594 2.958 2.382 4.431 1.991-4.827 4.327-9.476 6.832-14.383q1.043-1.524 2.157-2.926a13.736 13.736 0 0 0-1.764-2.928 8.4 8.4 0 0 0-3.981 1.267zm21.374-11.171a48.314 48.314 0 0 1 6.008-2.555c-.18-.033-.36-.068-.539-.1-1.819-.358-3.562-.65-5.469 2.655zm116.18 6.986c-2.151 1.819-4.3 3.638-6.207 4.951a70.121 70.121 0 0 1-9.231-3.942 31.227 31.227 0 0 1-2.742-5.8c-4.233-.566-9.161-.526-14.636-1.279a51.9 51.9 0 0 1-17.577-5.41 70.582 70.582 0 0 0 2.675-7.957c2.4-2.689 2.936-7.561 4.136-10.648s3.135-4.361 8.132.1c1.237 3.315 4.614-.358 8.887-2.413 2.8-4.861 5.613-9.748 8.148-14.152l3.359 3.066c2.137 1.229 5.258-6.311 8.482-6.25.395.4.969.855 1.5 1.3l1.616 1.325 3.238 2.638c2.7 4.359 5.145 8.51 7.863 12.854l3.57-6.625c-20.085-15.066-42.877-25.763-69.162-27.278-17.886-1.035-33.662 2.336-46.864 9.036.794 3.891 1.375 8.222 1.745 11.914 2.363 1.15 4.373 2.106 6.68 3.286-1.631 6.076-2.929 12.306-4.69 18.926l-3.181 10.255a11.423 11.423 0 0 1-1.037 1.133 63.66 63.66 0 0 1 26.662-.3 10.393 10.393 0 0 1-.564-1.486 16.706 16.706 0 0 1-.617-5.97 185.155 185.155 0 0 1 9.878-5.618c1.875-6.195 4-12.944 5.505-19.4 3.487 2.549 7.181 5.4 10.477 8.032.828 3.535.011 6.863-.91 10.438a44.169 44.169 0 0 0-1.969 11.826 37.441 37.441 0 0 0-7.779.572 86.8 86.8 0 0 0-8.2 2.942 83.676 83.676 0 0 1 38.721 23.05c2.883 3.1 6.1 7.293 9.646 11.085 8.17-4.406 13.184 4.783 22.128 7.919 7.561-3.83 11.156-12.9 19.972-11.089-2.031-3.746-4-7.608-5.949-11.486zm-78.039-39.683-1.992 4.663a157.371 157.371 0 0 0-14.124-8.26c4.449-2.7 8.956-4.566 12.108-4.3s4.928 2.514 4.008 7.897z" fill="#79bee4" opacity=".7"/><path d="m90.246 81.317 3.181-10.255c1.761-6.62 3.059-12.85 4.69-18.926-2.307-1.18-4.317-2.136-6.68-3.291-3.514 1.427-6.989 2.934-10.149 3.919.163 7.993-4.79 6.313-7.173 8.872-2 3.95-3.864 7.366-6.308 11.721a135.209 135.209 0 0 1 10.256 13.208c.087-.045.174-.087.262-.131 1.907-3.3 3.65-3.013 5.469-2.658.179.035.359.07.539.1q2.4-.834 4.876-1.429a11.423 11.423 0 0 0 1.037-1.13z" fill="#c0e1f2" opacity=".7"/><path d="M57.85 66.724a88.1 88.1 0 0 0-9.884 24.113c.268.214.537.427.8.647a6.271 6.271 0 0 0 .638.473l.7.492 1.409 1.009c1.878 1.365 3.7 2.771 5.435 4.147a8.4 8.4 0 0 1 3.98-1.264 13.736 13.736 0 0 1 1.772 2.928 46.9 46.9 0 0 1 15.368-12.7 135.209 135.209 0 0 0-10.261-13.212 399.272 399.272 0 0 0-9.957-6.633zm474.478 199.217c-1.128-3.743-2.257-5.989-3.375-7.316-3.837 1.507-7.765 2.885-11.789 4.031 3.767 8.592 8.636 5.478 15.164 3.285zM170.06 117.621c5.891 6.3 12.7 11.484 20.42 8.666a15.493 15.493 0 0 0 1.708-.747c-8.944-3.14-13.958-12.325-22.128-7.919zm256.526 109.714a77.964 77.964 0 0 1 2.166 9.225 7.651 7.651 0 0 1 3.986-.2q.438-1.767.921-3.5c-3.337-3.826-6.542-7.832-9.62-11.926l-.079 4.136zM260.05 143.094l6.592 5.349c5.508 4.447 10.722 8.706 15.962 12.846 2.539 4.119 4.608 11.414 10.687 4.953 3.414 17.527 24.906-10.566 17.18 17.163 2.8 4.346 5.32 8.48 7.853 13.326 10.836-9.725 14.394-7.609 18.194-5.964 4.053.4 6.568-8.9 10.151-5.339a154.606 154.606 0 0 1 10.408 11.954c12.487 7.213 24.283 14.836 36.292 22.658 2.953-6.156 8.013-4.781 15.528-7.836l-1.674 9.421 5.019 4.255c3.336-3.36 5.948-6.03 8.754-9.068-16.508-22.834-29.218-47.326-39.073-57.632-16.618-17.379-41.649-27.163-62.474-18.108 21.73 6.337 36.2 28.531 20.825 36.216-30.389 15.195-62.411-54.472-113.318-103.834a9.311 9.311 0 0 1-4.26-1.3c.335-.628.654-1.228.976-1.829a215.108 215.108 0 0 0-17.95-15.148c-1.248 2.316-2.3 4.262-3.57 6.625-2.718-4.344-5.163-8.495-7.863-12.854l-3.238-2.638-1.616-1.325c-.535-.442-1.109-.9-1.5-1.3-3.224-.061-6.345 7.479-8.482 6.25l-3.359-3.066c-2.535 4.4-5.349 9.291-8.148 14.152-4.273 2.055-7.65 5.728-8.887 2.413-5-4.46-6.941-3.19-8.132-.1s-1.738 7.959-4.136 10.648a70.582 70.582 0 0 1-2.675 7.957 51.9 51.9 0 0 0 17.577 5.41c5.475.753 10.4.713 14.636 1.279a31.227 31.227 0 0 0 2.742 5.8 70.121 70.121 0 0 0 9.231 3.942c1.9-1.313 4.056-3.132 6.207-4.951l11.706 9.545c1.95 3.878 3.918 7.74 5.949 11.486a17.462 17.462 0 0 1 4.616 1.735c4.419 2.335 7.634 6.4 10.547 10.463a191.362 191.362 0 0 1 10.545 16.591c6.728-9.466 10.933 3.584 22.178-.145z" fill="#92cae9" opacity=".7"/><path d="M74.115 61.636c2.383-2.559 7.336-.879 7.173-8.872 3.16-.985 6.635-2.492 10.149-3.919-.37-3.692-.951-8.023-1.745-11.914A78.262 78.262 0 0 0 57.85 66.724a393.79 393.79 0 0 1 9.957 6.633c2.444-4.357 4.303-7.771 6.308-11.721z" fill="#d8ecf7" opacity=".7"/><path d="M657.824 329.955s-.077-.572-.293-1.569c-.2.146-.411.3-.617.446a13.369 13.369 0 0 1 .91 1.123zm-85.079-80.896c1.923.647 3.5 2.244 5.067 3.91 3.145 3.348 6.213 7.054 12.014 4.81 3 12.575 5.483 13.287 8.178 13.886a31.606 31.606 0 0 1-1.331 7.089c-2.821 1.79-5.617 3.584-8.983 5.558a35.125 35.125 0 0 1-2.109 5.291 70.928 70.928 0 0 1-8.775-2.031 31.166 31.166 0 0 1-11.606-5.992c-1.724-1.333-3.373-2.773-4.988-4.226l-2.4-2.174-2.436-2.045c-6.483-5.317-13.058-9.392-21.856-5.953 2.576 9.265 3.407 14.311 7.524 11.472a72.492 72.492 0 0 0 7.129 7.821l3.914 3.659q1.983 1.827 4.056 3.6c2.758 2.364 5.616 4.675 8.5 7l4.343 3.51a252.706 252.706 0 0 1 4.209 3.736c2.786 2.53 5.527 5.142 8.144 7.9a66.343 66.343 0 0 1 7.3 8.872 65.047 65.047 0 0 1 9.909 22.185c4.089-.712 7.825-.987 11.982-1.653a76.87 76.87 0 0 1 6.681 9.851l1.549 2.646 1.468 2.731c.977 1.815 1.953 3.605 2.955 5.323s2.028 3.364 3.105 4.892c.537.766 1.091 1.5 1.655 2.2.188.245.381.479.572.716a25.592 25.592 0 0 0 2.848-3.03c13.774-17.326-4.984-37.993 6.3-44.8 6.372-3.843 11.573-2.555 15.1-.442-.584-1.821-1.2-3.558-1.871-5.12.706-1.258 1.432-2.49 2.165-3.709a42.4 42.4 0 0 0-20.645-18.991c-6.629-2.882-12.84-4.039-17.71-6.06l.316 1.436c2.284 5.767 4.506 11.486 6.279 17.583l-1.522 1.656a149.786 149.786 0 0 1-11.81-11.216c-1.609 3.391-3.585 7.185-5 10.823-2.034-2.736-3.837-5.267-5.972-7.937a91.584 91.584 0 0 1 9.07-5.376c-.937-4.117-2.064-8.052-2.956-11.8l2.833-3.338a18.836 18.836 0 0 1-1.054-3.984c-.925-5.914.9-12.385 6.841-16.256l-5.438-6.536-2.32-2.807c-1.634-1.122-3.221-2.276-4.812-3.423s-3.174-2.314-4.845-3.366l-2.413-2.716c-2.4-1.582-4.767-3.1-7.153-4.585a56.6 56.6 0 0 0-10.878 1.014 57.454 57.454 0 0 0-5.081 1.242 285.3 285.3 0 0 0-3.13 8.8c2.89-1.986 5.151-2.266 7.088-1.646z" fill="#92cae9" opacity=".7"/><path d="M606.066 298.463a91.584 91.584 0 0 0-9.07 5.376c2.135 2.67 3.938 5.2 5.972 7.937 1.412-3.638 3.388-7.432 5-10.823a149.786 149.786 0 0 0 11.81 11.216l1.522-1.656c-1.773-6.1-4-11.816-6.279-17.583-.1-.467-.211-.957-.316-1.436-4-1.659-7.085-3.908-8.759-8.168l-2.833 3.338c.887 3.747 2.016 7.682 2.953 11.799zM393.369 220.04c2.324 11.363 9.3 2.084 13.854 1.585l1.674-9.421c-7.515 3.055-12.575 1.68-15.528 7.836zm-56.851-29.273a62.48 62.48 0 0 0 .192 10.046 74.5 74.5 0 0 0-1.378 13.051c2.245 5.327 6.38-1.931 9.324-3.092 3.943-4.606 8.188-9.007 12.421-13.39a154.606 154.606 0 0 0-10.408-11.954c-3.583-3.565-6.098 5.742-10.151 5.339zm-26.047-7.362c7.726-27.729-13.766.364-17.18-17.163-6.079 6.461-8.148-.834-10.687-4.953-5.24-4.14-10.454-8.4-15.962-12.846l-6.592-5.349c-11.245 3.729-15.451-9.321-22.182.146 10 17.478 17.9 35.892 29.109 52.935 2.794.54 5.231.008 7.048-7.827 6.875 2.738 13.176 8.943 19.9 12.641a13.743 13.743 0 0 1 11.171-7.436c4.652-.279 8.016 2.046 10.845 5.322a36.477 36.477 0 0 0 2.388-2.144c-2.538-4.846-5.062-8.98-7.858-13.326zM226.956 73.454q-1.629-1.578-3.284-3.128c-.322.6-.641 1.2-.976 1.829a9.311 9.311 0 0 0 4.26 1.299z" fill="#a8d5ee" opacity=".7"/><path d="M137.671 79.972a44.169 44.169 0 0 1 1.969-11.826c.921-3.575 1.738-6.9.91-10.438-3.3-2.633-6.99-5.483-10.477-8.032-1.5 6.455-3.63 13.2-5.505 19.4a185.155 185.155 0 0 0-9.878 5.618 16.706 16.706 0 0 0 .617 5.97 10.393 10.393 0 0 0 .564 1.486q2.922.555 5.822 1.337a86.8 86.8 0 0 1 8.2-2.942 37.441 37.441 0 0 1 7.778-.573z" fill="#92cae9" opacity=".7"/><path d="M112.458 45.84c-3.152-.264-7.659 1.606-12.108 4.3a157.371 157.371 0 0 1 14.124 8.26l1.992-4.665c.92-5.381-.85-7.644-4.008-7.895zm-65.865 70.353-.607-.6-.3-.3c-.08-.1-.132-.192-.2-.287l-.431-.642q-.03 3.679.2 7.433a28.71 28.71 0 0 0 5.174 4.194 85.324 85.324 0 0 1 3.282-9.41c-.788-1.473-1.576-2.947-2.382-4.431a31.46 31.46 0 0 1-4.736 4.043z" fill="#5eb1df" opacity=".7"/><path d="M428.752 236.56a7.651 7.651 0 0 1 3.986-.2m99.59 29.581c.467.507.714.748 1.188 1.241" fill="none" opacity=".7"/><path d="M418.735 234.392c4.791 10.047 7.949-.375 10.017 2.168a77.964 77.964 0 0 0-2.166-9.225l-2.626-2.26.079-4.136q-1.542-2.05-3.043-4.127c-2.806 3.038-5.418 5.708-8.754 9.068 2.383 2.713 4.415 6 6.493 8.512z" fill="#a8d5ee" opacity=".7"/><path d="M86.563 27.71c-2.508-13.6-23.2-15.926-16.332-24.473 7.811-9.727 23.522 8.547 16.332 24.473z" fill="#fff"/><path d="M76.542.622c-.5 2.021-.667 3.578.655 4.178-.08 3.412-.16 6.835-.244 10.287 4.144 3.06 8.538 6.811 9.61 12.623C92.089 15.47 84.088 1.858 76.542.622z" fill="#79bee4" opacity=".7"/><path d="M76.542.622a6.449 6.449 0 0 0-6.312 2.616c-3.93 4.893 1.17 7.75 6.723 11.849.084-3.452.164-6.875.244-10.287-1.322-.6-1.156-2.157-.655-4.178z" fill="#92cae9" opacity=".7"/><path d="M73.672 34.939c-19.926-25.005-36.226-28-49.894-20.826-13.21 6.934-7 24.2 4.7 19.736s27.867-10.532 45.194 1.09zm348.846 156.549s7.808-6.031-4.842-32.57 12.08-36.005 15.1-8.061-10.258 40.631-10.258 40.631zm-22.603-37.658s-1.281-17.133-14.967-25.255-15.224 9.374-3.315 11.46 18.282 13.795 18.282 13.795z" fill="#fff"/><path d="M432.473 168.772a68.249 68.249 0 0 0 .3-17.915 32.216 32.216 0 0 0-2.343-9.462l-8.763 15.949c3.846 3.7 7.37 7.548 10.806 11.428z" fill="#a8d5ee" opacity=".7"/><path d="M421.665 157.344c2.844-5.175 5.9-10.748 8.763-15.949-5.061-11.556-15.695-8.878-16.3 2.7a350.702 350.702 0 0 1 6.439 12.333 20.8 20.8 0 0 1 1.098.916z" fill="#92cae9" opacity=".7"/><path d="M421.665 157.344c-.268-.242-.813-.7-1.1-.915a23.977 23.977 0 0 0-2.907 2.455l.016.034c10.849 22.762 6.652 30.432 5.236 32.156 1.574-1.717 7.468-8.913 9.56-22.3-3.433-3.882-6.957-7.73-10.805-11.43zm.853 34.144a2.984 2.984 0 0 0 .4-.414c-.254.272-.4.414-.4.414z" fill="#92cae9" opacity=".7"/><path d="M420.568 156.429a350.702 350.702 0 0 0-6.439-12.333c-.207 3.962.761 8.962 3.532 14.788a23.977 23.977 0 0 1 2.907-2.455z" fill="#a8d5ee" opacity=".7"/><path d="M421.665 157.344c-.268-.242-.813-.7-1.1-.915" fill="none" opacity=".7"/><path d="M70.985 33.28c.311-.165.62-.333.933-.5C52.786 9.769 37.043 7.151 23.778 14.113c-13.21 6.934-7 24.2 4.7 19.735 11.087-4.233 26.201-9.894 42.507-.568z" fill="#92cae9" opacity=".7"/><path d="M73.672 34.939a128.769 128.769 0 0 0-1.754-2.154c-.313.162-.622.33-.933.5a41.6 41.6 0 0 1 2.687 1.654z" fill="#d8ecf7" opacity=".7"/><path d="M645.3 271.9s16.773-6.039 25.875 3-1.971 19.973-9.619 9.682S645.3 271.9 645.3 271.9z" fill="#fff"/><path d="M671.841 285.093c-6.872-3.943-12.367-9.441-17.663-15.022a39.528 39.528 0 0 0-8.878 1.829s8.607 2.4 16.255 12.686 18.708-.629 9.632-9.668a51.234 51.234 0 0 1 .654 10.175z" fill="#79bee4" opacity=".7"/><path d="M671.841 285.093a51.234 51.234 0 0 0-.654-10.17l-.013-.015c-4.738-4.707-11.55-5.324-17-4.837 5.3 5.581 10.795 11.079 17.667 15.022z" fill="#5eb1df" opacity=".7"/><path d="M555.032 391.9c-30.249 0-61.742-5.454-90.964-10.515-20.188-3.5-39.256-6.8-55.218-7.69-34.614-1.935-65.743 3.284-95.847 8.332-33.224 5.571-64.6 10.832-92.857 3.769-40.018-10.005-50.75-24.447-61.129-38.413-6.509-8.759-13.24-17.817-27.234-25.7-11.476-6.464-30.185-7.08-49.992-7.732-36.064-1.186-76.939-2.533-81.545-41.535-4.109-34.808 44-69.044 82.657-96.554 15.635-11.127 29.138-20.736 37-28.8 7.134-7.322 10.528-21.368 8.253-34.158-2.074-11.661-8.277-20.505-17.467-24.9-12.4-5.933-23.873-6.054-34.108-.361-14.775 8.219-25.6 28.367-28.256 52.582a.5.5 0 0 1-.986.053c-7.094-32.161-.569-63.039 17.9-84.714 16.91-19.85 42.248-29.85 71.345-28.164 61.9 3.581 104.031 57.245 137.886 100.364 25.789 32.847 46.16 58.792 65.58 49.081 4.375-2.188 6.475-5.713 6.07-10.2-.882-9.783-12.909-21.04-26.811-25.094a.5.5 0 0 1-.059-.939c9.939-4.321 21.407-4.624 33.165-.876a73.074 73.074 0 0 1 29.869 19.1c5.515 5.768 11.909 15.936 19.312 27.709 16.457 26.17 39 62.012 68.4 73.9 29.122 11.773 53.927.348 75.812-9.731 9.864-4.543 19.181-8.834 27.968-10.535 28.459-5.507 53.847 12.649 56.7 19.426a.5.5 0 0 1-.058.49.494.494 0 0 1-.45.2c-9.353-.877-16.54 1.044-20.781 5.555a15.8 15.8 0 0 0-3.8 13.415c1.5 9.617 7.847 11.518 16.624 14.15a92.575 92.575 0 0 1 10.6 3.682c22.407 9.741 25.678 32.564 25.709 32.794a.5.5 0 0 1-.87.4c-.057-.065-5.81-6.47-12.418-6.67a10.751 10.751 0 0 0-8.078 3.482c-3.514 3.513-2.531 7.975-1.285 13.624 1.192 5.4 2.675 12.132.646 20.214-1.825 7.274-5.514 14.808-20.017 20.62-18.945 7.589-39.798 10.339-61.266 10.339zm-161.15-19.618q7.407 0 15.024.414c16.02.9 35.116 4.2 55.333 7.7 49.834 8.63 106.317 18.412 151.687.228 14.086-5.646 17.658-12.918 19.419-19.936 1.971-7.853.516-14.452-.653-19.755-1.311-5.948-2.347-10.646 1.555-14.546a11.687 11.687 0 0 1 8.819-3.774c5.273.161 9.873 3.852 11.956 5.814-1.184-5.289-6.354-22.4-24.809-30.419a92.1 92.1 0 0 0-10.493-3.642c-8.784-2.633-15.722-4.713-17.324-14.952a16.788 16.788 0 0 1 4.063-14.255c3.032-3.226 9.072-6.826 20.7-5.942-4.212-7.091-28.265-23.276-55.195-18.064-8.668 1.678-17.932 5.944-27.739 10.461-22.069 10.164-47.083 21.685-76.606 9.75-29.7-12.008-52.342-48.008-68.871-74.294-7.375-11.727-13.744-21.855-19.188-27.55-20.4-21.33-44.854-24.66-60.637-18.52 13.69 4.476 25.3 15.713 26.191 25.551.445 4.926-1.844 8.792-6.619 11.179a19.788 19.788 0 0 1-8.966 2.183c-17.383 0-35.623-23.233-57.848-51.54-33.731-42.962-75.71-96.429-137.157-99.984C107.749 26.727 82.7 36.607 66 56.208c-17.7 20.773-24.3 50.119-18.3 80.9 3.228-23.184 13.956-42.308 28.392-50.342 10.534-5.861 22.318-5.749 35.026.332 9.488 4.541 15.888 13.643 18.02 25.63 2.364 13.3-1.06 27.372-8.522 35.03-7.922 8.13-21.459 17.764-37.133 28.919C45.041 204.033-2.8 238.079 1.24 272.3c2.011 17.033 11.238 28.2 28.209 34.15 15.058 5.276 34.029 5.9 52.375 6.5 19.933.657 38.76 1.277 50.45 7.861 14.179 7.986 20.974 17.13 27.546 25.974 10.274 13.825 20.9 28.121 60.569 38.039 28.05 7.013 59.331 1.767 92.449-3.785 25.744-4.314 52.24-8.756 81.044-8.756z" fill="#00257d"/><path d="M384.158 128.139c-7.894-4.258-11.439.331-10.354 5.037 3.149-1.109 6.4-2.411 9.5-3.416zm15.742 25.522-.13-.084c.094.161.145.253.145.253l-.015-.169z" fill="#92cae9" opacity=".7"/><path d="M384.948 128.575c-.271-.161-.529-.295-.79-.436l-.855 1.621c-3.095 1-6.35 2.307-9.5 3.416a9.3 9.3 0 0 0 7.829 6.859c10.883 1.906 17.139 11.843 18.137 13.542l.13.084c-.171-1.761-2.043-17.426-14.951-25.086z" fill="#a8d5ee" opacity=".7"/><path d="M86.563 28.21h-.061a.5.5 0 0 1-.431-.406c-1.175-6.37-6.4-10.143-11-13.471-3.394-2.452-6.325-4.569-6.687-7.245a5.428 5.428 0 0 1 1.462-4.16c2.647-3.3 6.373-3.834 10.222-1.473 6.05 3.713 12.008 15.273 6.955 26.464a.5.5 0 0 1-.46.291zM75.474 1.024a6.139 6.139 0 0 0-4.854 2.527 4.506 4.506 0 0 0-1.25 3.4c.3 2.25 3.074 4.251 6.281 6.568 4.173 3.014 9.285 6.708 11.035 12.568 3.742-10.215-1.657-20.414-7.146-23.782a7.816 7.816 0 0 0-4.066-1.281zm-1.802 34.414a.5.5 0 0 1-.278-.084c-17.214-11.546-33.123-5.473-44.739-1.038-5.766 2.2-10.1-.706-11.845-4.562-2.275-5.042-.692-12.185 6.735-16.083C39.59 5.249 56.115 12.1 74.063 34.627a.5.5 0 0 1-.391.811zM36.863 11.217a27.375 27.375 0 0 0-12.853 3.339c-6.88 3.611-8.371 10.172-6.288 14.786 1.434 3.178 5.065 6.142 10.576 4.04 11.244-4.293 26.441-10.095 43.084-.463-12.099-14.511-23.505-21.702-34.519-21.702zm385.655 180.771a.5.5 0 0 1-.346-.861c.012-.011.129-.127.331-.348 1.241-1.533 5.491-9.053-5.278-31.646-5.442-11.417-3.961-19.426-.76-23.115a6.9 6.9 0 0 1 7.4-2.257c4.9 1.536 8.413 7.907 9.4 17.042 1.57 14.545-1.328 24.914-4.035 31.051a35.676 35.676 0 0 1-5.891 9.5 3.4 3.4 0 0 1-.519.534.5.5 0 0 1-.302.1zm-.725-57.551a6.024 6.024 0 0 0-4.573 2.237c-2.993 3.449-4.327 11.047.908 22.029 7.441 15.612 7.879 24.239 6.9 28.756 3.66-5.555 9.3-17.515 7.242-36.548-.942-8.728-4.2-14.783-8.7-16.195a5.925 5.925 0 0 0-1.777-.279zm-21.878 19.893a.5.5 0 0 1-.439-.261c-.063-.115-6.4-11.524-17.929-13.542a9.78 9.78 0 0 1-8.232-7.215c-.611-2.617.12-5.056 1.909-6.366 1.33-.975 4.4-2.115 9.979 1.2 13.751 8.16 15.2 25.474 15.211 25.647a.5.5 0 0 1-.358.517.487.487 0 0 1-.141.02zm-21.347-27.4a4.554 4.554 0 0 0-2.753.823 5.017 5.017 0 0 0-1.526 5.332 8.8 8.8 0 0 0 7.43 6.458c9 1.575 14.936 8.609 17.377 12.088-.882-4.866-4.02-16.463-14.4-22.625a12.587 12.587 0 0 0-6.128-2.077zm289.871 162.323c-2.585 0-5.19-1.545-7.286-4.364-7.443-10.017-15.9-12.479-15.988-12.5a.5.5 0 0 1-.035-.952 39.672 39.672 0 0 1 9.658-1.917c7.123-.506 12.911 1.234 16.738 5.036 3.077 3.056 4.248 6.673 3.213 9.923a6.72 6.72 0 0 1-5.24 4.689 6.407 6.407 0 0 1-1.06.085zM646.88 271.94c2.8 1.142 9.188 4.428 15.076 12.352 2.151 2.894 4.84 4.311 7.378 3.887a5.723 5.723 0 0 0 4.452-4.007c.917-2.879-.163-6.127-2.965-8.91-7.257-7.21-19.755-4.503-23.941-3.322z" fill="#00257d"/><g fill="#d5fdf3"><path d="M105.575 287.648c-6.048-43.221 10.746-60.66 28.525-79.123 15.591-16.191 31.712-32.932 31.712-68.852h1c0 36.323-16.263 53.212-31.992 69.545-17.606 18.283-34.235 35.552-28.255 78.292zm-76.393-22.164h-1c0-29.729 24.776-44.046 25.026-44.187l.491.871c-.245.138-24.517 14.184-24.517 43.316zm108.574-23.741-.908-.418c5.932-12.884 14.628-19.5 23.038-25.9 12.2-9.283 23.718-18.052 25.8-44.9l1 .077c-2.116 27.3-13.81 36.2-26.191 45.62-8.316 6.321-16.911 12.863-22.739 25.521zM197.6 367.518c-15.82-18.352-17.371-43.018-11.89-59.318 6.939-20.642 18.6-31.63 28.881-41.325 14.074-13.267 26.229-24.724 20.622-56.588l.984-.173c5.7 32.395-6.635 44.023-20.92 57.489-10.2 9.614-21.76 20.511-28.619 40.916-5.391 16.033-3.863 40.292 11.7 58.346zm157.808-8.29c-18.167-13.478-18.167-29.8-18.167-47.084 0-17 0-34.582-17.8-50.661l.67-.743c18.129 16.378 18.129 34.184 18.129 51.4 0 17.023 0 33.1 17.762 46.281zm40.098-6.572c-26.183-1.775-35.743-18.784-38.638-26.014-1.695-4.233-2.367-8.263-1.531-9.176l.737.675-.368-.338.377.327c-.328.507-.041 4.916 2.985 10.965 3.884 7.766 13.792 21.023 36.5 22.563zm-164.794 17.903c-26.127-37.517 9.686-80.183 10.05-80.609l.76.65c-.359.421-35.672 42.508-9.99 79.387z"/><path d="m237.618 321.649-.982-.187c3.14-16.5 10.464-23.492 16.926-29.662 6.517-6.224 12.145-11.6 12.145-25.2h1c0 14.026-5.771 19.538-12.455 25.92-6.352 6.069-13.552 12.946-16.634 29.129zm255.357 55.971-.366-.931c31.438-12.369 37.185-45.828 37.239-46.164l.988.159c-.056.342-5.882 34.353-37.861 46.936zm24.397-1.485-.537-.843c20.923-13.326 23.439-26.783 23.462-26.917l.986.166c-.095.565-2.572 14.003-23.911 27.594z"/></g></svg></g></svg>