<svg xmlns="http://www.w3.org/2000/svg" version="1.1" viewBox="0 0 3000 1687" width="3000" height="1687">
<defs/><!--ITEM: Illustration component 1--><g transform="translate(2082.8125 426.5625) rotate(0.0 275.0 231.25)  scale(1.8388252915373917 1.831066769602312)"><svg width="299.104" height="252.585" viewBox="0.0 0.0 299.104 252.585"><path d="m99.062-1.947a22.105 22.105 0 0 1 22.105 22.105v100.072a16.84 16.84 0 0 1 -16.84 16.84h-10.527a16.84 16.84 0 0 1 -16.84-16.84v-100.071a22.105 22.105 0 0 1 22.102-22.106z" fill="#5a38fd" transform="matrix(.958998 .28341284 -.28341284 .958998 23.209 -25.305)"/><path d="m97.61 143.2c-10.36 18.393-39.8 21.452-65.753 6.833s-38.6-41.38-28.238-59.772 47.272-34.969 73.226-20.35 31.124 54.889 20.765 73.289z" fill="#82b1ff"/><path d="m113.021 1.97a22.105 22.105 0 0 1 22.105 22.105v100.071a16.84 16.84 0 0 1 -16.84 16.84h-10.53a16.84 16.84 0 0 1 -16.84-16.84v-100.07a22.105 22.105 0 0 1 22.105-22.106z" fill="#82b1ff" transform="matrix(.82365139 .56709646 -.56709646 .82365139 60.467 -51.489)"/><circle cx="44.826" cy="99.435" fill="#2b292d" r="8.594"/><path d="m259.834 248.176h-76.183c-58.2 0-105.817-47.617-105.817-105.817v-14.183c0-6.6 6.4-30 13-30l61.935 6.935c43.761-7.694 88.007 13.222 108.68 52.552 6.529 12.421 10.385 25.582 10.385 38.087v40.426a12.035 12.035 0 0 1 -12 12z" fill="#82b1ff"/><path d="m209.334 251.176a65.5 65.5 0 0 1 -47.747-110.338 3 3 0 0 1 4.373 4.108 59.5 59.5 0 0 0 43.374 100.23 3 3 0 0 1 0 6z" fill="#222433"/><path d="m259.834 248.176h-142a12.035 12.035 0 0 1 -12-12 37.109 37.109 0 0 1 37-37h117a12.035 12.035 0 0 1 12 12v25a12.035 12.035 0 0 1 -12 12z" fill="#82b1ff"/><path d="m258.834 251.176h-141a15.032 15.032 0 0 1 -15-15 40.045 40.045 0 0 1 40-40h43.049a3 3 0 0 1 0 6h-43.049a34.039 34.039 0 0 0 -34 34 9.034 9.034 0 0 0 9 9h141a3 3 0 0 1 0 6z" fill="#222433"/><path d="m60.834 137.176-1.69 95.489-10.31 10.511c-2.472 3.544 2.244 9.574 6.562 9.406 10.438-.406 20.723-7.194 20.767-7.226 11.754-8.325 23.6-26.108 26.671-40.18 1.2-5.481-1.074-5.518 1-11-3.887-22-17.113-38-21-60z" fill="#82b1ff"/><path d="m262.781 161.956a28 28 0 0 1 28 28v33.862a12 12 0 0 1 -12 12h-16a12 12 0 0 1 -12-12v-49.862a12 12 0 0 1 12-12z" fill="#82b1ff" transform="matrix(.72467718 .68908851 -.68908851 .72467718 211.605 -131.834)"/><path d="m.152 101.367a29.175 29.175 0 0 1 4.283-12.467c1.4 2.28 3.4 5.28 6.4 9.28z" fill="#222433"/></svg></g><!--ITEM: Illustration component 2--><g transform="translate(2078.125 142.1875) rotate(0.0 350.0 713.28125)  scale(1.5606571704393697 1.5634778158081342)"><svg width="448.529" height="912.429" viewBox="0.0 0.0 448.529 912.429"><path d="m-156.151 681.807h422.247v32.998h-422.247z" fill="#fff" transform="matrix(0 -1 1 0 -643.333 753.278)"/><path d="m71.471 912.43h-33a3 3 0 0 1 -3-3v-422.249a3 3 0 0 1 3-3h33a3 3 0 0 1 3 3v422.249a3 3 0 0 1 -3 3zm-30-6h27v-416.249h-27z" fill="#222433"/><path d="m182.47 681.807h422.247v32.998h-422.247z" fill="#fff" transform="matrix(0 -1 1 0 -304.712 1091.899)"/><path d="m410.092 912.43h-33a3 3 0 0 1 -3-3v-422.249a3 3 0 0 1 3-3h33a3 3 0 0 1 3 3v422.249a3 3 0 0 1 -3 3zm-30-6h27v-416.249h-27z" fill="#222433"/><path d="m3 473.081h287.609v33.564h-287.609z" fill="#fff"/><path d="m290.609 509.645h-287.609a3 3 0 0 1 -3-3v-33.563a3 3 0 0 1 3-3h287.609a3 3 0 0 1 3 3v33.563a3 3 0 0 1 -3 3zm-284.609-6h281.609v-27.563h-281.609z" fill="#222433"/><path d="m236.873 506.646h208.656v-322.104l-208.656-144.786z" fill="#fff"/><path d="m445.529 509.645h-208.655a3 3 0 0 1 -3-3v-466.888a3 3 0 0 1 4.71-2.465l208.655 144.785a3 3 0 0 1 1.29 2.465v322.1a3 3 0 0 1 -3 3.003zm-205.655-6h202.655v-317.534l-202.655-140.621z" fill="#222433"/><path d="m196.464 3v61.26l249.065 173.269v-61.26z" fill="#fff"/><path d="m445.529 240.528a2.991 2.991 0 0 1 -1.713-.537l-249.064-173.268a3 3 0 0 1 -1.288-2.463v-61.26a3 3 0 0 1 4.713-2.463l249.065 173.269a3 3 0 0 1 1.287 2.462v61.26a3 3 0 0 1 -3 3zm-246.065-177.836 243.065 169.1v-53.956l-243.065-169.095z" fill="#222433"/><path d="m272.32 471.799h137.762v-212.663l-137.762-95.592z" fill="#5a38fd"/><g fill="#222433"><path d="m408.013 472.755h-133.624a3 3 0 0 1 0-6h133.624a3 3 0 1 1 0 6z"/><path d="m408.013 432.663h-133.624a3 3 0 0 1 0-6h133.624a3 3 0 0 1 0 6z"/><path d="m408.013 390.5h-133.624a3 3 0 0 1 0-6h133.624a3 3 0 1 1 0 6z"/><path d="m408.013 348.345h-133.624a3 3 0 0 1 0-6h133.624a3 3 0 0 1 0 6z"/><path d="m408.013 306.185h-133.624a3 3 0 0 1 0-6h133.624a3 3 0 0 1 0 6z"/><path d="m408.013 264.025h-133.624a3 3 0 0 1 0-6h133.624a3 3 0 1 1 0 6z"/></g></svg></g><!--ITEM: Illustration component 3--><g transform="translate(190.625 253.125) rotate(0.0 879.6875 657.8125)  scale(1.563137193580687 1.5632853559448512)"><svg width="1125.541" height="841.577" viewBox="0.0 0.0 1125.541 841.577"><path d="m929.5 687.487-23.5-230.247-16.624-117.592a111.859 111.859 0 0 0 -12.055-21.67c-35.716-50.069-108.088-65.555-155.214-26.036-12.668 10.623-47.2 46.323-47.2 46.323l-102.051 128.354-216.048-42.792a121.748 121.748 0 0 0 17.135 156.34l-.1.061 1.084.858a122.179 122.179 0 0 0 15.051 11.931l28.377 22.483-202.724-4.673v227.2l473.987.334q1.482 0 2.955-.047c59.145-1.705 105.638-51.1 105.848-110.263a157.192 157.192 0 0 0 -1.421-21.97l2.428 2.312z" fill="#fff"/><path d="m584.492 300.7-56.192 121.051a3.344 3.344 0 0 1 -1.891 1.736 3.593 3.593 0 0 1 -1.135.189 3.378 3.378 0 0 1 -1.436-.323l-78-37.385a70.13 70.13 0 0 1 60.483-126.541l76.584 36.851a3.338 3.338 0 0 1 1.587 4.422z" fill="#5a38fd"/><path d="m671.185 262.414a3.342 3.342 0 0 0 -2.018-1.8l-86.675-27.922c-1.755-.565-8.054 51.482-57.212 36.836-32.834-17.6-18.6-49.489-20.445-49.474a109.385 109.385 0 0 0 -108.6 98.124c-2.372 22.142-9.969 42.594-21.976 59.154a127.77 127.77 0 0 0 -21.7 49.348 3.336 3.336 0 0 0 2.588 3.937l224.533 45.953a3.342 3.342 0 0 0 2.514-.478l15.911-20.768c.082-1.843-81.5-34.877-146.323-69.475-14.211-7.585-41.749-33.67-41.356-57.11.972-58.165 42.938-70.344 53.963-71.394 21.6-2.058 42.474 4.156 79.648 25.967 40.963 18.794 103.168 48.371 99.513 45.581l27.66-63.774a3.336 3.336 0 0 0 -.025-2.705z" fill="#5a38fd"/><path d="m929.256 315.32c22.253-5.32 37.914-25.2 59.32-39.769 29.644-20.293 46.783-35.884 46.092-44.354-1.763-19.429-96.051 27.526-96.051 27.526-24.611 7.694-37.594 14.52-41.915 16.117-.2 0-34.513.609-75.214 1.293l-76.558 1.157-34.945.684-41.841-14.182-27.705 63.754 23.654 18.908 415.915 10.529c4.18-12.651-27.2-29.609-49.777-42.975 37.58 3.847 86.811 8.643 89.51-8.195 2.671-16.963-32.8-23.816-81.564-28.318 54.341-4.339 83.711.834 84.356-15.671.75-18-47.754-23.083-91.855-21.229" fill="#fff"/><path d="m1080.009 359.983h-.077l-415.915-10.53a3 3 0 0 1 -1.8-.656l-23.651-18.907a3 3 0 0 1 -.878-3.539l27.7-63.755a3 3 0 0 1 3.714-1.645l41.345 14.012 34.42-.672 76.571-1.158c29.836-.5 56.245-.963 68.291-1.173l6.386-.11c.959-.383 2.341-1 4.025-1.75a322.35 322.35 0 0 1 37.36-14.171c2.222-1.1 21.082-10.368 41.322-18.622 19.109-7.794 45.6-17.549 54.985-12.309a7.282 7.282 0 0 1 3.853 5.927 12.156 12.156 0 0 1 -1.439 6.474 320.782 320.782 0 0 1 48.559 1.973c18.318 2.382 30.606 6.589 36.524 12.5a13.136 13.136 0 0 1 4.23 10.072c-.367 9.4-8.265 12.313-14.175 13.688-7.892 1.837-19.422 2.256-34.021 2.787l-4.3.158c26.7 4.1 40.924 9.411 46.838 17.01a13.426 13.426 0 0 1 2.836 10.688c-2.671 16.661-36.424 16.044-79.2 12.049 22.452 13.25 43.569 26.82 39.348 39.595a3 3 0 0 1 -2.851 2.064zm-414.831-16.5 412.18 10.435c-1.082-9.438-25.835-23.943-42.629-33.784-2.055-1.2-4.073-2.386-6.026-3.542a3 3 0 0 1 1.834-5.566c29.341 3 83.952 8.6 86.242-5.685a7.441 7.441 0 0 0 -1.644-6.06c-8.67-11.141-45.829-15.9-77.234-18.8a3 3 0 0 1 .036-5.978c14.992-1.2 27.841-1.665 39.178-2.077 29.166-1.06 42.075-1.9 42.42-10.721a7.291 7.291 0 0 0 -2.477-5.586c-9.322-9.318-42.574-14.229-84.893-12.583-5.981 7.4-18.069 18.179-41.895 34.489a249.656 249.656 0 0 0 -19.833 15.523c-12.859 10.793-25 20.988-40.483 24.688a3 3 0 0 1 -1.395-5.836c14.1-3.37 25.719-13.123 38.021-23.447a253.531 253.531 0 0 1 20.309-15.884c25.137-17.208 36.369-27.753 41.248-34.07a2.963 2.963 0 0 1 .327-.429c2.827-3.77 3.31-5.958 3.215-7.131a1.334 1.334 0 0 0 -.8-1.2c-2.387-1.333-12.021-2.779-49.765 12.613-21.24 8.66-40.962 18.459-41.159 18.557a2.942 2.942 0 0 1 -.441.177 316.681 316.681 0 0 0 -36.926 14c-2.155.96-3.713 1.655-4.845 2.073a3 3 0 0 1 -1.04.186l-6.864.119c-12.046.211-38.457.672-68.3 1.174l-76.563 1.157-34.931.682a2.985 2.985 0 0 1 -1.022-.158l-39.227-13.3-25.69 59.117z" fill="#222433"/><path d="m711.179 838.028c106.883-31.71 88.25-129.64 88.25-129.64l106.171-17.055c5.853 34.965 25.345 70.468 75.425 77.715 30.709 4.45 50.116 38.163 48 69.317l-174.4-1.891-68.139-38.283 1.381 38.839z" fill="#5a38fd"/><path d="m215.631 789.844c-37.26-19.56-98.438-34.721-135.632 23.039-16.8 26.035-52.628 30.931-80 16.022h.001l71.209-159.105 66.6-38.5-39.451-22.365 18.915-42.17 98.421 43.919" fill="#5a38fd"/><path d="m513.6 618.5h-95.246a3 3 0 0 1 0-6h95.246a3 3 0 0 1 0 6z" fill="#222433"/><path d="m708.489 601.061a3 3 0 0 1 -2.949-2.474l-7-39.25a3 3 0 0 1 5.906-1.054l7 39.25a3.007 3.007 0 0 1 -2.957 3.528z" fill="#222433"/><path d="m674.973 338.48s34.531-35.7 47.2-46.324c47.126-39.517 119.5-24.033 155.214 26.036a111.914 111.914 0 0 1 12.054 21.67l16.62 117.592 23.509 230.246-130.07 20.9" fill="#fff"/><path d="m799.491 711.6a3 3 0 0 1 -.472-5.962l127.281-20.45-23.217-227.371-16.558-117.15a109.1 109.1 0 0 0 -11.582-20.734 112.581 112.581 0 0 0 -77.129-46.286c-27.374-3.486-53.553 3.9-73.713 20.809-12.4 10.4-46.626 45.753-46.971 46.11a3 3 0 0 1 -4.313-4.172c1.414-1.462 34.784-35.935 47.428-46.536 21.455-17.991 49.269-25.858 78.328-22.158a118.592 118.592 0 0 1 81.256 48.755 115.055 115.055 0 0 1 12.38 22.253 3.013 3.013 0 0 1 .2.739l16.62 117.592c0 .038.01.077.014.115l23.512 230.246a3 3 0 0 1 -2.509 3.267l-130.075 20.9a3.023 3.023 0 0 1 -.48.033z" fill="#222433"/><path d="m689.684 841.577-473.984-.334a3 3 0 0 1 -3-3v-227.203a2.994 2.994 0 0 1 .9-2.145 2.915 2.915 0 0 1 2.166-.854l193.779 4.468-21.269-16.853a125.8 125.8 0 0 1 -15.236-12.075l-.992-.788a2.98 2.98 0 0 1 -.716-.817 124.748 124.748 0 0 1 -16.947-159.611 3 3 0 1 1 4.974 3.353 118.754 118.754 0 0 0 16.713 152.489 2.928 2.928 0 0 1 .354.4l.432.343c.062.048.121.1.179.153a119.836 119.836 0 0 0 14.684 11.637c.065.044.129.09.19.138l28.373 22.483a3 3 0 0 1 .958 3.37 2.965 2.965 0 0 1 -2.891 1.98l-199.655-4.6v221.134l470.989.332q1.432 0 2.859-.044a104.477 104.477 0 0 0 72.949-32.658 108.193 108.193 0 0 0 29.994-74.618c.1-27.654-6.5-65.062-38.474-86.225a2.974 2.974 0 0 1 -.256-.19l-139.24-115.042a3 3 0 1 1 3.822-4.625l139.12 114.938c34.094 22.654 41.132 62.067 41.029 91.162a114.166 114.166 0 0 1 -31.653 78.738 110.439 110.439 0 0 1 -77.108 34.513c-1.005.035-2.022.051-3.043.051z" fill="#222433"/><path d="m646.225 83.592a80.545 80.545 0 0 0 -2.573-10.925l-29.308-32.607-85.674 80.11-8.9 36.718 2.763 5.373-14.4 49.264-3.227 11.461a36.744 36.744 0 0 0 -1.557 13.908 38.275 38.275 0 0 0 74.769 7.232l3.129-9.954 5.862-18.629a73.784 73.784 0 0 0 75.781-98.316z" fill="#fff"/><path d="m541.41 274.454a41.328 41.328 0 0 1 -41.048-37.269 39.631 39.631 0 0 1 1.68-15.095l3.2-11.378 14.072-48.144-2.214-4.308a3.007 3.007 0 0 1 -.248-2.079l8.9-36.718a3 3 0 0 1 .867-1.484l85.673-80.11a3.077 3.077 0 0 1 2.179-.806 3.006 3.006 0 0 1 2.1.991l29.309 32.608a2.988 2.988 0 0 1 .633 1.116 83.768 83.768 0 0 1 2.594 10.883l16.47 33.239a2.95 2.95 0 0 1 .137.323 76.785 76.785 0 0 1 -76.455 102.477l-8.28 26.324a41.1 41.1 0 0 1 -35.53 29.231c-1.349.134-2.705.199-4.039.199zm-18.462-117.945 2.252 4.379a3 3 0 0 1 .212 2.214l-14.4 49.265-3.219 11.433a33.726 33.726 0 0 0 -1.455 12.855 35.275 35.275 0 0 0 68.9 6.613l9-28.624a3.016 3.016 0 0 1 3.117-2.089 70.784 70.784 0 0 0 72.767-94.155l-16.586-33.476a2.956 2.956 0 0 1 -.272-.849 77.711 77.711 0 0 0 -2.287-9.9l-26.819-29.834-82.783 77.407z" fill="#222433"/><path d="m645.394 105.371a21.908 21.908 0 1 1 15.7 11.443" fill="#fff"/><path d="m664.774 120.127a24.692 24.692 0 0 1 -4.193-.357 3 3 0 0 1 1.018-5.912 18.91 18.91 0 0 0 19.969-27.394 18.908 18.908 0 1 0 -33.515 17.517 3 3 0 0 1 -5.319 2.779 24.91 24.91 0 1 1 33.615 10.54 25.056 25.056 0 0 1 -11.575 2.827z" fill="#222433"/><path d="m583.235 110.6h-31.135a3 3 0 0 1 0-6h31.134a3 3 0 0 1 0 6z" fill="#222433"/><circle cx="607.232" cy="112.777" fill="#fff" r="21.932"/><path d="m607.232 137.709a24.933 24.933 0 1 1 24.933-24.932 24.96 24.96 0 0 1 -24.933 24.932zm0-43.865a18.933 18.933 0 1 0 18.933 18.933 18.954 18.954 0 0 0 -18.933-18.933z" fill="#222433"/><path d="m626.1 104.6a3 3 0 0 1 -.558-5.948l17.022-3.236a3 3 0 1 1 1.121 5.894l-17.022 3.236a2.932 2.932 0 0 1 -.563.054z" fill="#222433"/><path d="m560.957 120.532c6.526-3.115 12.038-8.6 16.382-17.6l43.615-49.179 22.7 18.915c-9.346-30.932-29.819-42.392-45.841-48.066a73.744 73.744 0 0 0 -94.228 44.692l-.013.036c-.69 1.935-1.289 3.894-1.813 5.863a64.645 64.645 0 0 0 -63.277-51.37h-37.5a64.645 64.645 0 1 0 -.014 129.289h37.51a64.644 64.644 0 0 0 61.922-46.049c.4 2.27.89 4.531 1.5 6.772" fill="#fff"/><g fill="#222433"><path d="m438.487 156.112h-37.5a67.645 67.645 0 1 1 -.007-135.29h37.512a68 68 0 0 1 63.479 44.29 76.838 76.838 0 0 1 96.851-43.337c24.556 8.7 40.162 25.059 47.705 50.025a3 3 0 0 1 -4.793 3.172l-20.466-17.053-41.413 46.7c-4.414 8.982-10.175 15.077-17.606 18.624a3 3 0 0 1 -2.584-5.414c6.254-2.987 11.151-8.285 14.973-16.2a2.967 2.967 0 0 1 .457-.685l43.615-49.182a3 3 0 0 1 4.165-.314l14.025 11.691c-10.272-22.714-27.426-31.224-40.094-35.71a70.818 70.818 0 0 0 -90.395 42.855v.006l-.016.046c-.638 1.791-1.223 3.684-1.74 5.626a3 3 0 0 1 -2.9 2.23h-.08a3 3 0 0 1 -2.858-2.383 61.917 61.917 0 0 0 -60.332-48.986h-37.508a61.645 61.645 0 0 0 -.007 123.29h37.517a61.267 61.267 0 0 0 59.039-43.913 3 3 0 0 1 5.828.343c.408 2.317.879 4.444 1.441 6.5a3 3 0 0 1 -4.634 3.236 67.682 67.682 0 0 1 -61.674 39.832z"/><circle cx="617.616" cy="114.169" r="5.452"/><circle cx="660.342" cy="101.596" r="5.452"/><path d="m586.688 218.531c-.093 0-.187 0-.282-.013a76.863 76.863 0 0 1 -37.4-13.9 3 3 0 0 1 3.478-4.888 70.863 70.863 0 0 0 34.478 12.808 3 3 0 0 1 -.275 5.988z"/></g><path d="m638.2 100.817 25.48 17.802-15.132 17.246" fill="#fff"/><path d="m648.547 138.866a3 3 0 0 1 -2.254-4.979l12.922-14.727-22.733-15.884a3 3 0 0 1 3.436-4.918l25.479 17.8a3 3 0 0 1 .537 4.437l-15.134 17.249a2.994 2.994 0 0 1 -2.253 1.022z" fill="#222433"/><path d="m641.649 167.238a16.036 16.036 0 0 1 -16.017-16.018 3 3 0 0 1 6 0 10.018 10.018 0 1 0 20.036 0 3 3 0 0 1 6 0 16.037 16.037 0 0 1 -16.019 16.018z" fill="#222433"/><path d="m522.615 161.96a31.71 31.71 0 1 1 38.342-41.428" fill="#fff"/><path d="m522.617 164.961a2.992 2.992 0 0 1 -.811-.112 34.711 34.711 0 1 1 41.968-45.349 3 3 0 1 1 -5.634 2.063 28.711 28.711 0 1 0 -34.715 37.509 3 3 0 0 1 -.808 5.889z" fill="#222433"/><path d="m519.356 142.649a3 3 0 0 1 -.865-5.873l20.4-6.153-14.991-10.311a3 3 0 1 1 3.4-4.943l20.136 13.85a3 3 0 0 1 -.834 5.344l-26.379 7.957a3.014 3.014 0 0 1 -.867.129z" fill="#222433"/><path d="m1073.834 70.241c0-38.793-9.734-70.241-21.734-70.241s-21.736 31.448-21.736 70.241 21.736 105.229 21.736 105.229 21.734-66.435 21.734-105.229z" fill="#5a38fd"/><path d="m1035.834 73.121c-13.508-36.366-33.581-62.457-44.834-58.277s-9.427 37.048 4.081 73.414 57.016 91.075 57.016 91.075-2.756-69.846-16.263-106.212z" fill="#5a38fd"/><path d="m1066.333 73.121c13.508-36.366 33.581-62.457 44.834-58.277s9.426 37.048-4.081 73.414-57.016 91.075-57.016 91.075 2.756-69.846 16.263-106.212z" fill="#5a38fd"/><path d="m1007.742 235.177c0 67.794 19.858 192.52 44.355 192.52s44.355-124.726 44.355-192.52-19.858-73.215-44.355-73.215-44.355 5.422-44.355 73.215z" fill="#82b1ff"/><path d="m1090.362 212.3h-40.292a3 3 0 0 1 0-6h40.292a3 3 0 0 1 0 6z" fill="#222433"/><path d="m1058.508 250.818h-27.151a3 3 0 0 1 0-6h27.151a3 3 0 0 1 0 6z" fill="#222433"/><path d="m525.28 420.452 94.8 45.4 2.559 1.224a56.2 56.2 0 0 0 26.258 5.341l206.73-9.013 1.094-.064c12.834 2.371 25.322 1.581 35.623-1.938 29.485-10.125 46.731-26.7 88.455-.779 18.8 11.683 45.174 32.044 55.633 13.908 7.232-12.573-22.587-37.719-43.95-57.079 39.61 12.351 91.348 28.484 98.024 10.9s-29.93-32.823-81.334-48.4c59.3 7.232 89.679 19.249 94.018 1.669 7.233-29.04-113.49-51.07-157.217-47.51-23.657 1.98-60.58 5.919-82.808 8.373-2.47-.341-199.247-3.7-199.247-3.7l-82.447-39.5" fill="#fff"/><path d="m1024.149 484.742c-11.416 0-25.453-9.058-38.009-17.16-2.426-1.565-4.718-3.043-6.925-4.416-32.928-20.457-49.648-13.543-70.818-4.79-4.769 1.972-9.7 4.012-15.081 5.86-10.818 3.7-23.861 4.446-36.78 2.116l-.734.044-206.776 9.014a59.459 59.459 0 0 1 -27.671-5.625l-2.572-1.23-94.8-45.4a3 3 0 1 1 2.592-5.412l97.355 46.618a53.494 53.494 0 0 0 24.844 5.05l206.72-9.011 1.049-.063a3.125 3.125 0 0 1 .722.045c12.036 2.224 24.15 1.573 34.107-1.827 5.2-1.786 10.047-3.79 14.732-5.727 21.859-9.037 40.734-16.846 76.277 5.239 2.251 1.4 4.563 2.889 7.011 4.469 12.554 8.1 28.181 18.18 37.738 15.87a10.447 10.447 0 0 0 6.7-5.382c5.437-9.452-20.73-32.988-38.045-48.561-1.812-1.63-3.594-3.232-5.32-4.8a3 3 0 0 1 2.907-5.087c19.915 6.21 42.474 13.244 61.008 16.589 19.495 3.52 31.017 2.176 33.318-3.885a8.476 8.476 0 0 0 -.413-7.079c-6.885-14.007-45.828-27.337-78.986-37.385a3 3 0 0 1 1.233-5.849c16.4 2 30.323 4.318 42.609 6.365 31.659 5.274 45.756 7.2 48.134-2.437.676-2.717-.2-5.453-2.675-8.369-8.367-9.853-33.327-19.753-68.481-27.163-30.741-6.481-64.061-9.81-82.9-8.269-25.894 2.168-66.477 6.572-82.723 8.364a2.762 2.762 0 0 1 -.649 0c-4.155-.3-131.9-2.538-198.978-3.682a3.033 3.033 0 0 1 -1.245-.294l-82.447-39.5a3 3 0 0 1 2.592-5.41l81.853 39.228c33.438.572 187.913 3.225 198.417 3.684 16.4-1.81 56.818-6.192 82.683-8.357 19.371-1.584 53.383 1.788 84.635 8.376 21.41 4.513 59.207 14.3 71.817 29.151 3.764 4.433 5.085 9.041 3.926 13.7-2.422 9.809-11.4 11.183-17.935 11.362-8.819.24-21.267-1.828-37.009-4.45q-3.874-.644-7.976-1.321c29.759 10.748 44.688 19.854 49.491 29.625a14.376 14.376 0 0 1 .638 11.856c-2.649 6.973-10.332 9.688-21.062 9.689-17.346 0-42.664-7.088-67.62-14.749 21.5 19.428 41.716 38.953 34.4 51.666a16.35 16.35 0 0 1 -10.489 8.218 18.648 18.648 0 0 1 -4.389.492z" fill="#222433"/><path d="m525.28 423.341a2.988 2.988 0 0 1 -1.3-.3l-78-37.384a3 3 0 0 1 2.594-5.411l75.257 36.072 54.91-118.3a3 3 0 1 1 5.441 2.525l-56.182 121.057a3 3 0 0 1 -2.721 1.737z" fill="#222433"/></svg></g><!--ITEM: Illustration component 4--><g transform="translate(87.5 1556.25) rotate(0.0 1411.71875 9.375)  scale(1.736004365469749 1.644736842105263)"><svg width="1626.4" height="11.4" viewBox="0.0 0.0 1626.4 11.4"><path d="m1623.4 8.8h-1620.4c-1.7 0-3-1.3-3-3s1.3-3 3-3h1620.4c1.7 0 3 1.3 3 3s-1.3 3-3 3z" fill="#222433"/></svg></g><!--ITEM: Illustration component 5--><g transform="translate(1560.9375 1062.5) rotate(0.0 258.59375 253.90625)  scale(1.4848908986505884 1.4809346748323127)"><svg width="348.3" height="342.9" viewBox="0.0 0.0 348.3 342.9"><path d="m326.9 177.5v102.5c0 33.1-26.8 59.9-59.9 59.9h-185.6c-33.1 0-59.9-26.8-59.9-59.9v-99.7" fill="#fff"/><path d="m267.1 342.9h-185.7c-34.7 0-62.9-28.2-62.9-62.9v-99.7h6v99.7c0 31.4 25.5 56.9 56.9 56.9h185.7c31.4 0 56.9-25.5 56.9-56.9v-102.5h6v102.5c-.1 34.7-28.3 62.9-62.9 62.9z" fill="#222433"/><path d="m333 177.6h-317.8c-6.8 0-12.2-5.5-12.2-12.2v-25.4c0-6.8 5.5-12.2 12.2-12.2h317.8c6.8 0 12.2 5.5 12.2 12.2v25.4c.1 6.7-5.4 12.2-12.2 12.2z" fill="#fff"/><path d="m333 180.6h-317.8c-8.4 0-15.2-6.8-15.2-15.2v-25.4c0-8.4 6.8-15.2 15.2-15.2h317.8c8.4 0 15.2 6.8 15.2 15.2v25.4c.1 8.3-6.8 15.2-15.2 15.2zm-317.8-49.9c-5.1 0-9.2 4.1-9.2 9.2v25.4c0 5.1 4.1 9.2 9.2 9.2h317.8c5.1 0 9.2-4.1 9.2-9.2v-25.4c0-5.1-4.1-9.2-9.2-9.2z" fill="#222433"/><g fill="#82b1ff"><path d="m84.6 300c-7.5 0-13.6-6.1-13.6-13.6v-57.8c0-7.5 6.1-13.6 13.6-13.6 7.5 0 13.6 6.1 13.6 13.6v57.8c.1 7.5-6 13.6-13.6 13.6z"/><path d="m144.3 300c-7.5 0-13.6-6.1-13.6-13.6v-57.8c0-7.5 6.1-13.6 13.6-13.6 7.5 0 13.6 6.1 13.6 13.6v57.8c.1 7.5-6 13.6-13.6 13.6z"/><path d="m204.1 300c-7.5 0-13.6-6.1-13.6-13.6v-57.8c0-7.5 6.1-13.6 13.6-13.6 7.5 0 13.6 6.1 13.6 13.6v57.8c0 7.5-6.1 13.6-13.6 13.6z"/><path d="m263.8 300c-7.5 0-13.6-6.1-13.6-13.6v-57.8c0-7.5 6.1-13.6 13.6-13.6 7.5 0 13.6 6.1 13.6 13.6v57.8c-0 7.5-6.1 13.6-13.6 13.6z"/></g><path d="m174.2 158.9c14.5 0 26.2-11.7 26.2-26.2v-103.5c0-14.5-11.7-26.2-26.2-26.2-14.4 0-26.2 11.7-26.2 26.2v103.6c0 14.4 11.8 26.1 26.2 26.1z" fill="#fff"/><path d="m174.2 161.9c-16.1 0-29.2-13.1-29.2-29.2v-103.5c0-16.1 13.1-29.2 29.2-29.2s29.2 13.1 29.2 29.2v103.6c0 16-13.1 29.1-29.2 29.1zm0-155.9c-12.8 0-23.2 10.4-23.2 23.2v103.6c0 12.8 10.4 23.2 23.2 23.2s23.2-10.4 23.2-23.2v-103.6c0-12.8-10.4-23.2-23.2-23.2z" fill="#222433"/><circle cx="174.2" cy="135.5" fill="#222433" r="6.8"/><path d="m174.2 142.8c-4 0-7.3-3.3-7.3-7.3s3.3-7.3 7.3-7.3 7.3 3.3 7.3 7.3-3.3 7.3-7.3 7.3zm0-13.6c-3.5 0-6.3 2.8-6.3 6.3s2.8 6.3 6.3 6.3 6.3-2.8 6.3-6.3-2.8-6.3-6.3-6.3z" fill="#222433"/></svg></g></svg>