<svg xmlns="http://www.w3.org/2000/svg" version="1.1" viewBox="0 0 3000 1687" width="3000" height="1687">
<defs/><!--ITEM: Illustration component 1--><g transform="translate(1289.0625 792.1875) rotate(0.0 162.890625 33.984375)  scale(0.9917237442922374 0.9893558951965065)"><svg width="328.5" height="68.7" viewBox="0.0 0.0 328.5 68.7"><rect fill="rgb(130,177,255)" height="68.7" rx="3" width="328.5"/></svg></g><!--ITEM: Illustration component 2--><g transform="translate(1171.875 574.21875) rotate(0.0 -304.6875 528.515625) translate(-0.0 0.0) scale(-1.6710954982229826 1.6719886902878835)"><svg width="364.656" height="590.1467849223947" viewBox="0.0 0.0 364.656 590.1467849223947"><path d="m47.864 632.201c-.255 0-.515-.033-.773-.102-1.602-.426-2.554-2.069-2.128-3.67l93.304-350.77c.426-1.601 2.069-2.555 3.67-2.128 1.602.426 2.554 2.069 2.128 3.67l-93.304 350.77c-.357 1.343-1.571 2.23-2.897 2.23z" fill="#222433"/><path d="m339.212 632.2c-1.457 0-2.736-1.064-2.962-2.549l-53.442-350.77c-.25-1.638.876-3.168 2.514-3.418 1.637-.247 3.168.876 3.417 2.514l53.442 350.77c.25 1.638-.876 3.168-2.514 3.418-.152.024-.304.035-.455.035z" fill="#222433"/><path d="m126.299 278.43s48.277-227.487 49.379-233.577c3.45-19.067 10.679-37.292 30.018-41.133 2.411-.479 4.862-.72 7.32-.72h20.06 69.552 20.06c2.458 0 4.909.241 7.32.72 20.357 4.043 33.583 23.823 31.416 44.053l-46.32 232.47" fill="#fff"/><g fill="#222433"><path d="m315.108 283.243c-.195 0-.392-.019-.59-.058-1.625-.324-2.68-1.903-2.356-3.528l46.293-232.335c1.989-19.183-10.741-37.027-29.031-40.659-2.213-.44-4.479-.663-6.735-.663h-109.672c-2.255 0-4.522.223-6.736.662-14.608 2.901-23.394 15.206-27.65 38.724-1.098 6.065-47.425 224.375-49.397 233.666-.344 1.621-1.937 2.656-3.557 2.312-1.621-.344-2.656-1.937-2.312-3.557.482-2.274 48.28-227.512 49.362-233.489 2.99-16.524 9.601-39.016 32.386-43.541 2.597-.515 5.257-.777 7.904-.777h109.672c2.647 0 5.307.261 7.904.777 21.349 4.24 36.202 25.023 33.814 47.315-.01.089-.023.178-.041.267l-46.32 232.47c-.283 1.427-1.536 2.414-2.938 2.414z"/><path d="m14.649 275.43 303.59-.03v4c0 7.776-6.304 14.08-14.08 14.08h-304.159z"/></g></svg></g><!--ITEM: Illustration component 3--><g transform="translate(825.0 257.8125) rotate(0.0 522.65625 653.90625)  scale(1.4660641004423525 1.4600521362464136)"><svg width="713.006" height="895.73" viewBox="0.0 0.0 713.006 895.73"><path d="m376.226 321.048c42.429-10.581 110.888-54.132 110.888-54.132s67.903 16.011 76.533.048c5.307-9.817-25.231-22.299-45.205-31.468 31.64-.065 73.068-.354 73.852-14.615.748-14.363-29.395-16.986-70.41-16.493 44.891-8.343 69.806-6.59 68.908-20.395-.941-15.056-41.789-15.074-78.365-9.691l-106.814 36.855" fill="#fff"/><path d="m376.223 324.049c-1.345 0-2.568-.911-2.908-2.275-.401-1.607.577-3.235 2.185-3.637 41.466-10.341 109.323-53.319 110.003-53.752.683-.434 1.511-.575 2.299-.389 27.269 6.426 68.009 11.153 73.205 1.541.298-.551.327-1.048.102-1.717-2.283-6.767-23.656-16.426-37.799-22.818-2.112-.954-4.166-1.883-6.119-2.779-1.281-.588-1.979-1.987-1.68-3.364.3-1.377 1.517-2.359 2.925-2.362 14.136-.028 33.495-.068 48.119-1.959 14.421-1.864 22.499-5.353 22.744-9.82.091-1.75-.469-3.195-1.762-4.542-8.06-8.39-39.299-9.104-65.616-8.786-.012 0-.024 0-.037 0-1.541 0-2.834-1.169-2.985-2.707-.152-1.55.907-2.958 2.438-3.242 12.393-2.304 23.061-3.812 32.474-5.142 23.896-3.378 34.441-5.164 33.989-12.108-.096-1.54-.872-2.876-2.371-4.091-8.545-6.928-36.904-8.049-72.287-2.868l-106.549 36.764c-1.566.54-3.274-.292-3.814-1.857-.541-1.566.291-3.274 1.857-3.814l106.814-36.855c.176-.061.357-.105.542-.132 16.429-2.419 32.552-3.576 45.408-3.246 15.576.394 26.278 2.866 31.808 7.349 2.836 2.299 4.377 5.114 4.581 8.369.595 9.141-8.091 12.142-10.945 13.128-6.233 2.153-15.382 3.491-26.924 5.125 19.668 1.318 30.694 4.493 35.945 9.959 2.453 2.553 3.606 5.587 3.427 9.019-.781 14.214-28.037 16.885-63.215 17.363 18.874 8.682 32.108 15.759 34.72 23.502.754 2.234.578 4.479-.508 6.488-4.276 7.909-18.822 10.37-44.473 7.517-15.243-1.694-29.887-4.835-34.15-5.789-9.148 5.752-70.678 43.857-110.71 53.841-.248.057-.492.086-.733.086z" fill="#222433"/><path d="m409.825 210.348c-19.535 3.708-49.95 10.202-68.254 14.18-2.087-.069-166.301 14.255-166.301 14.255l-72.118-25.73-36.263 105.825 82.919 29.568 2.238.797c7.163 2.512 14.827 3.254 22.339 2.164l171.428-25.495.906-.149c13.129-1.068 24.838-2.138 37.154-6.882" fill="#fff"/><path d="m167.657 354.89c-5.641 0-11.276-.948-16.603-2.816l-85.172-30.369c-1.547-.552-2.363-2.245-1.83-3.799l36.264-105.825c.26-.759.813-1.382 1.536-1.73.722-.348 1.554-.394 2.31-.122l71.501 25.509c38.094-3.322 156.288-13.612 165.468-14.183 13.523-2.938 46.78-10.1 68.136-14.153 1.627-.312 3.198.761 3.507 2.388.309 1.628-.76 3.198-2.388 3.507-21.39 4.061-54.803 11.258-68.176 14.164-.208.045-.421.068-.635.068-3.727.136-110.171 9.37-166.043 14.243-.43.037-.863-.018-1.269-.163l-69.257-24.709-34.318 100.148 82.365 29.368c6.666 2.338 13.898 3.036 20.901 2.021l171.417-25.494.86-.142c.081-.014.163-.023.245-.03 11.808-.96 24.017-1.952 36.318-6.691 1.546-.595 3.282.175 3.878 1.722.596 1.546-.175 3.282-1.721 3.878-13.065 5.032-25.672 6.07-37.866 7.062l-.785.129-171.474 25.503c-2.375.345-4.773.516-7.169.516z" fill="#222433"/><path d="m409.92 209.879c3.46-1.707 13.682-8.523 33.514-17.074 0 0 74.459-47.319 77.619-31.287 1.313 6.996-11.608 21.475-34.537 40.959-16.565 13.994-27.88 31.922-45.955 38.29" fill="#fff"/><path d="m440.561 243.768c-1.237 0-2.395-.771-2.83-2.004-.55-1.562.27-3.276 1.833-3.826 11.345-3.997 20.137-13.093 29.446-22.722 4.866-5.034 9.898-10.239 15.57-15.031 31.663-26.906 33.993-35.617 33.524-38.114-.063-.32-.155-.433-.485-.574-7.96-3.405-47.232 17.734-72.576 33.841-.134.085-.275.159-.421.223-14.904 6.426-24.396 11.904-29.495 14.848-1.718.992-2.96 1.708-3.879 2.162-1.485.735-3.285.123-4.018-1.363-.733-1.485-.123-3.284 1.363-4.018.744-.367 1.975-1.078 3.534-1.978 5.18-2.99 14.802-8.544 29.902-15.067 1.903-1.201 16.74-10.513 32.8-19.106 32.005-17.125 41.099-16.792 45.155-15.056 2.138.917 3.563 2.677 4.012 4.956 1.526 8.136-9.436 21.644-35.538 43.825-5.447 4.602-10.372 9.696-15.135 14.623-9.815 10.153-19.085 19.743-31.766 24.21-.329.115-.666.171-.996.171z" fill="#222433"/><path d="m713.006 814.318c-10.797-26.489-39.274-43.438-68.496-40.72 0 0-38.808 10.412-72.773-42.783l-137.679 50.639 51.904 112.662" fill="#82b1ff"/><path d="m312.22 895.73c8.179-28.553-4.552-53.969-30.609-61.091 0 0-31.466-8.972-38.469-41.103l-140.836-43.774-30.61 145.968" fill="#82b1ff"/><path d="m175.975 368.853 227.24 58.783c22.318 5.351 41.466 19.619 52.975 39.476l127.273 269.127-147.149 60.793-105.482-212.628" fill="#fff"/><path d="m436.316 800.032c-1.108 0-2.167-.617-2.688-1.668l-105.484-212.626c-.736-1.484-.13-3.284 1.354-4.021 1.485-.737 3.285-.131 4.021 1.354l104.239 210.119 141.646-58.52-125.871-266.161c-11.052-19-29.641-32.832-51.017-37.957l-227.292-58.795c-1.604-.415-2.568-2.052-2.153-3.655s2.052-2.57 3.656-2.153l227.24 58.782c22.955 5.503 42.955 20.406 54.82 40.877.042.072.081.146.116.222l127.273 269.127c.352.742.383 1.597.086 2.363-.296.767-.894 1.378-1.653 1.691l-147.149 60.793c-.373.154-.762.228-1.144.228z" fill="#222433"/><path d="m161.946 397.731 123.528 29.507 1.816.435c16.521 3.941 31.451 12.816 42.806 25.447 20.41 22.674 26.869 54.656 16.857 83.474-.123.359-.246.719-.378 1.078l-86.364 262.246-166.488-52.942 64.079-209.331-84.862-8.998c-73.678-13.567-82.55-95.469-56.933-159.383" fill="#fff"/><path d="m260.213 802.92c-.301 0-.607-.046-.91-.142l-166.489-52.942c-1.567-.499-2.441-2.165-1.959-3.737l63.015-205.854-81.245-8.614c-.076-.008-.152-.02-.227-.033-26.656-4.908-47.2-19.213-59.411-41.367-17.39-31.551-17.299-78.33.236-122.082.617-1.538 2.361-2.284 3.901-1.669 1.538.617 2.285 2.363 1.668 3.901-16.883 42.124-17.095 86.938-.551 116.953 11.458 20.788 30.005 33.688 55.131 38.343l84.747 8.985c.891.095 1.692.582 2.187 1.329.494.747.628 1.676.366 2.532l-63.212 206.494 160.832 51.144 85.435-259.426c.011-.032.022-.063.034-.096.125-.34.24-.678.356-1.017 9.656-27.796 3.428-58.635-16.249-80.495-10.999-12.234-25.27-20.718-41.272-24.536l-125.347-29.941c-1.612-.385-2.606-2.004-2.221-3.615.385-1.61 2.007-2.602 3.615-2.221l125.346 29.941c17.191 4.102 32.523 13.217 44.338 26.359 21.139 23.483 27.83 56.615 17.461 86.464-.121.352-.245.715-.378 1.08l-86.348 262.199c-.416 1.261-1.588 2.063-2.849 2.063z" fill="#222433"/><circle cx="255.519" cy="129.591" fill="#fff" r="29.262"/><path d="m255.543 161.855c-.91 0-1.826-.038-2.749-.116-8.587-.728-16.376-4.756-21.933-11.343s-8.216-14.943-7.488-23.53c.728-8.586 4.756-16.376 11.343-21.933s14.945-8.221 23.529-7.488c8.587.728 16.376 4.756 21.933 11.343s8.216 14.943 7.488 23.53c-1.425 16.802-15.557 29.537-32.123 29.537zm-.068-58.528c-6.184 0-12.11 2.158-16.891 6.191-5.362 4.523-8.641 10.864-9.233 17.854-.593 6.989 1.572 13.792 6.096 19.153s10.864 8.641 17.854 9.233c14.433 1.218 27.164-9.521 28.387-23.95.593-6.989-1.572-13.792-6.096-19.153s-10.864-8.641-17.854-9.233c-.757-.063-1.513-.095-2.263-.095z" fill="#222433"/><path d="m16.007 369.264 7.947-113.262c1.532-34.571 30.76-60.13 58.213-60.805 15.319-.377 103.307 10.511 118.329 12.925 13.534 2.174 86.017 14.015 86.017 14.015l-10.088 108.722-20.906 3.007-61.494 46.222z" fill="#fff"/><path d="m194.025 383.087c-.061 0-.121-.002-.182-.006l-178.018-10.823c-.799-.048-1.545-.414-2.073-1.016-.528-.603-.793-1.39-.737-2.188l7.947-113.262c1.646-37.15 32.939-62.9 61.132-63.595 15.665-.395 104.716 10.687 118.879 12.962 13.384 2.15 85.3 13.898 86.025 14.017 1.555.254 2.649 1.669 2.503 3.238l-10.088 108.722c-.128 1.381-1.187 2.494-2.56 2.692l-20.145 2.897-60.879 45.76c-.522.392-1.156.602-1.804.602zm-174.813-16.634 173.894 10.572 60.611-45.559c.403-.303.876-.499 1.375-.571l18.564-2.67 9.611-103.579c-13.4-2.188-71.376-11.656-83.247-13.563-16.641-2.674-102.999-13.256-117.78-12.888-12.875.317-26.286 6.45-36.792 16.827-11.246 11.107-17.815 25.708-18.498 41.112z" fill="#222433"/><path d="m451.851 336.243c-7.974-.959-15.895-1.566-25.461-2.149 8.781-.997 16.73-1.641 23.818-2.159l22.605-1.74c12.515-1.346 19.071-3.619 19.132-10.512.201-21.353-87.222-16.665-116.992-6.974-18.68 6.095-37.472 11.012-56.145 18.635-2.552-.381-5.136-.508-7.714-.378l-173.142 8.423-1.689-9.866.059.037c-4.645-27.049-30.337-45.211-57.386-40.567s-45.211 30.337-40.567 57.386l9.102 53.164.409 2.421c4.389 25.236 28.106 42.364 53.442 38.594l210.727-31.354c14.158 9.244 32.377 9.497 46.787.649 18.766-11.904 27.996-26.335 61.266-15.223 15 5.008 36.7 14.818 40.934.51 2.939-9.938-21.958-22.469-40.001-32.352 16.923 1.158 36.489-.057 50.719-1.612l16.674-3.157c9.039-3.095 7.668-16.282-1.81-17.46z" fill="#fff"/><g fill="#222433"><path d="m94.29 444.081c-10.474 0-20.665-3.273-29.301-9.511-10.682-7.714-17.808-19.11-20.065-32.092l-.411-2.436-9.101-53.157c-4.917-28.635 14.38-55.933 43.016-60.85 28.64-4.916 55.934 14.38 60.851 43.017.032.188.046.376.043.562l1.139 6.649 170.488-8.293c2.487-.125 4.999-.027 7.476.292 12.832-5.188 25.849-9.177 38.446-13.036 5.63-1.725 11.452-3.509 17.152-5.368 25.588-8.33 96.711-13.54 115.58.299 4.46 3.271 5.368 7.001 5.344 9.555-.091 10.272-10.825 12.285-21.811 13.466l-13.34 1.027 27.194 3.377c5.67.705 9.875 4.997 10.463 10.682.588 5.682-2.647 10.743-8.051 12.594-.135.047-.273.083-.414.109l-16.674 3.157c-.077.015-.154.026-.232.035-6.866.75-22.307 2.201-38.453 2.081 17.481 9.645 33.294 19.575 30.285 29.751-1.091 3.686-3.22 6.358-6.33 7.944-8.205 4.186-21.306-.442-32.864-4.526-1.923-.68-3.793-1.34-5.568-1.933-25.815-8.622-36.111-1.157-49.147 8.293-3 2.175-6.103 4.425-9.562 6.618-15.026 9.229-34.142 9.165-49.058-.051l-209.622 31.189c-2.496.373-4.993.556-7.473.556zm-6.847-152.816c-2.656 0-5.33.227-8.001.686-25.375 4.356-42.475 28.546-38.118 53.922l9.512 55.594c1.985 11.414 8.26 21.449 17.665 28.24s20.902 9.593 32.378 7.885l210.728-31.354c.725-.108 1.467.055 2.082.456 13.12 8.566 30.224 8.805 43.577.604 3.264-2.071 6.29-4.265 9.216-6.386 13.859-10.049 25.829-18.728 54.569-9.127 1.806.604 3.709 1.275 5.666 1.967 9.904 3.498 22.23 7.854 28.139 4.839 1.631-.832 2.681-2.199 3.303-4.302 2.018-6.824-20.634-19.125-34.168-26.474-1.497-.813-2.969-1.612-4.397-2.396-1.236-.677-1.834-2.122-1.438-3.474s1.674-2.26 3.084-2.15c19.635 1.347 41.472-.652 50.072-1.589l16.329-3.092c3.181-1.183 4.075-3.979 3.842-6.233-.238-2.3-1.738-4.911-5.235-5.345l-34.758-4.316c-7.1-.854-14.424-1.472-25.281-2.133-1.553-.094-2.776-1.36-2.817-2.916-.041-1.555 1.115-2.884 2.661-3.059 9.143-1.039 17.231-1.68 23.937-2.171l22.593-1.738c13.627-1.467 16.33-3.879 16.362-7.547.006-.626.024-2.523-2.892-4.662-7.179-5.264-26.426-8.02-51.497-7.358-22.329.585-45.909 3.771-58.675 7.926-5.75 1.876-11.598 3.668-17.253 5.4-12.715 3.896-25.863 7.925-38.686 13.159-.499.204-1.042.271-1.577.189-2.353-.351-4.748-.468-7.12-.349l-173.148 8.423c-1.509.083-2.847-.994-3.103-2.49l-1.689-9.866c-.031-.18-.045-.36-.043-.538-2.221-12.051-8.939-22.562-18.964-29.649-7.972-5.635-17.288-8.576-26.855-8.576z"/><path d="m125.242 343.009c-1.6 0-2.929-1.263-2.996-2.876-.068-1.655 1.218-3.053 2.874-3.121l12.723-.525c1.659-.097 3.052 1.218 3.121 2.873.068 1.655-1.218 3.053-2.874 3.121l-12.723.525c-.041.002-.083.003-.125.003z"/><path d="m240.137 335.215c-1.498 0-2.793-1.12-2.975-2.645l-3.142-26.302c-.196-1.645.978-3.138 2.623-3.334 1.649-.199 3.139.979 3.335 2.623l3.142 26.302c.196 1.645-.978 3.138-2.623 3.334-.121.015-.241.022-.36.022z"/><path d="m138.65 340.448c-1.326 0-2.539-.886-2.897-2.228l-16.585-62.19c-.427-1.602.525-3.245 2.126-3.672 1.599-.428 3.245.523 3.672 2.125l16.585 62.19c.427 1.602-.525 3.245-2.126 3.672-.259.069-.52.103-.775.103z"/></g><path d="m259.101 93.879c-1.753 7.609-1.743 11.14-3.442 14.592 19.114 25.251 14.138 61.215-11.112 80.328-9.029 6.834-19.879 10.843-31.183 11.519l-13.286 31.87c-8.269 19.87-31.081 29.274-50.951 21.005-19.535-8.13-29.013-30.362-21.353-50.085l25.111-64.37c-17.201 2.188-32.918-9.982-35.107-27.182-2.188-17.201 9.982-32.918 27.182-35.107 14.748-1.876 28.79 6.849 33.64 20.903l5.459-46.405 75.92 6.436z" fill="#fff"/><path d="m142.768 117.062c-1.307 0-2.509-.861-2.884-2.181-.453-1.594.472-3.253 2.065-3.706l12.92-3.674-19.38-9.237c-1.496-.713-2.13-2.503-1.417-3.999.712-1.496 2.502-2.129 3.999-1.417l26.554 12.657c1.126.537 1.803 1.716 1.698 2.959-.104 1.244-.968 2.293-2.169 2.635l-20.565 5.848c-.273.078-.549.115-.821.115z" fill="#222433"/><ellipse cx="203.992" cy="97.785" fill="#222433" rx="6.482" ry="6.482" transform="matrix(.0845 -.9964 .9964 .0845 89.3234 292.787)"/><path d="m279.437 62.415c1.438-17.257-11.087-32.538-28.292-34.514-2.266-17.528-18.312-29.899-35.84-27.633-7.55.976-14.504 4.612-19.615 10.254-14.478-10.136-34.432-6.615-44.567 7.863-2.974 4.248-4.871 9.155-5.528 14.298-18.363.799-32.601 16.333-31.802 34.696.184 4.218 1.168 8.363 2.901 12.213-13.523 12.655-14.226 33.876-1.571 47.399 1.673 1.788 3.538 3.387 5.559 4.77-.044.384-.088.779-.122 1.175-1.195 14.303 7.26 27.658 20.7 32.696l10.523-26.99c-17.198 2.183-32.91-9.989-35.093-27.187s9.989-32.91 27.187-35.093c.23-.029.461-.056.692-.08.559-.073 1.122-.118 1.686-.134 1.405-.072 2.813-.049 4.215.069 12.763 1.082 26.382 10.095 30.317 21.477l6.348-39.945 66.146 6.284c.231.022.465-.007.683-.086 3.405 10.49 3.938 21.7 1.544 32.466 4.235.748 5.029 1.348 5.029 1.348 4.49 1.208 8.86 2.821 13.058 4.82.572-6.725-1.003-13.458-4.498-19.232 5.969-5.421 9.663-12.901 10.34-20.934z" fill="#5a38fd"/><path d="m230.154 124.743c-.294 0-.588-.018-.882-.052l-13.872-1.396c-4.222-.502-7.612-3.74-8.298-7.882-.271-1.635.835-3.18 2.47-3.45 1.634-.274 3.179.835 3.45 2.47.252 1.524 1.499 2.716 3.033 2.897l13.869 1.396c.184.021.319.021.45 0 .531-.079.838-.401.975-.586.127-.172.324-.521.287-.994l-5.831-23.046c-.407-1.605.566-3.237 2.172-3.644 1.608-.403 3.238.566 3.644 2.173l5.876 23.228c.024.095.044.192.059.29.297 1.978-.194 3.952-1.382 5.561-1.188 1.607-2.932 2.657-4.909 2.953-.367.055-.739.082-1.111.082z" fill="#222433"/><path d="m220.977 164.728c-.45 0-.898-.02-1.345-.057-9.313-.777-18.388-9.432-17.712-24.466.038-.831.418-1.609 1.051-2.148.633-.54 1.463-.789 2.289-.697l31.509 3.625c.794.092 1.519.496 2.014 1.124s.718 1.428.621 2.221c-1.745 14.25-10.292 20.398-18.427 20.398zm-13.018-21.018c.708 9.241 6.365 14.497 12.172 14.982 4.766.399 10.693-2.626 12.808-12.108z" fill="#222433"/><ellipse cx="243.553" cy="102.247" fill="#222433" rx="6.482" ry="6.482" transform="matrix(.0845 -.9964 .9964 .0845 121.0962 336.2918)"/><path d="m164.044 259.185c-5.366 0-10.814-1.034-16.07-3.222-21.214-8.828-31.315-32.522-22.997-53.941l23.418-60.03c-7.414-.099-14.564-2.583-20.53-7.202-7.265-5.625-11.904-13.741-13.063-22.855-2.393-18.814 10.966-36.067 29.78-38.461 16.073-2.054 31.57 7.586 36.854 22.899.541 1.566-.291 3.274-1.857 3.814s-3.274-.292-3.814-1.857c-4.362-12.642-17.151-20.591-30.426-18.905-15.532 1.977-26.56 16.221-24.584 31.752.957 7.524 4.787 14.226 10.784 18.869 5.997 4.644 13.44 6.669 20.968 5.717 1.048-.136 2.092.296 2.744 1.13.651.834.814 1.95.43 2.936l-25.111 64.37c-7.127 18.354 1.53 38.66 19.711 46.227 18.311 7.62 39.409-1.077 47.029-19.388l13.287-31.872c.441-1.058 1.446-1.771 2.59-1.84 10.749-.644 20.967-4.419 29.551-10.917 11.574-8.761 19.043-21.504 21.032-35.882s-1.74-28.671-10.501-40.244c-.685-.904-.8-2.117-.3-3.135l.542-1.087c1.279-2.548 1.864-3.711 2.23-8.033.141-1.651 1.586-2.88 3.243-2.736 1.651.14 2.876 1.592 2.736 3.242-.432 5.098-1.283 7.085-2.557 9.641 8.931 12.573 12.673 27.83 10.55 43.175-2.208 15.966-10.502 30.115-23.354 39.843-9.03 6.836-19.688 10.958-30.932 11.98l-12.578 30.172c-6.707 16.106-22.355 25.839-38.805 25.84z" fill="#222433"/></svg></g><!--ITEM: Illustration component 4--><g transform="translate(1335.9375 857.8125) rotate(0.0 480.46875 351.5625) translate(0.0 0.0) scale(2.0810999577688984 2.0765162075320136)"><svg width="461.74499999999995" height="336.3506133333333" viewBox="0.0 0.0 461.74499999999995 336.3506133333333"><g fill="#222433"><path d="m410.244 338.608c-1.227 0-2.297-.902-2.473-2.152l-46.74-332.571c-.192-1.367.761-2.631 2.128-2.823 1.364-.197 2.631.761 2.823 2.128l46.74 332.571c.192 1.367-.761 2.631-2.128 2.823-.117.017-.235.024-.35.024z"/><path d="m61.895 338.608c-.115 0-.232-.008-.351-.024-1.367-.192-2.32-1.456-2.128-2.823l46.741-332.571c.192-1.367 1.445-2.325 2.823-2.128 1.367.192 2.32 1.456 2.128 2.823l-46.74 332.571c-.176 1.25-1.246 2.152-2.473 2.152z"/><path d="m459.245 5h-456.745c-1.381 0-2.5-1.119-2.5-2.5s1.119-2.5 2.5-2.5h456.745c1.381 0 2.5 1.119 2.5 2.5s-1.119 2.5-2.5 2.5z"/></g></svg></g><!--ITEM: Illustration component 5--><g transform="translate(2385.9375 942.1875) rotate(31.749366238071715 132.421875 45.703125)  scale(0.9758068973140267 0.98214477586281)"><svg width="271.41" height="93.068" viewBox="0.0 0.0 271.41 93.068"><path d="m60 16v61h211l-.399-61z" fill="#fff"/><path d="m270.9.588-270.9-.588v93l271.41.068v-17.86h-208.51v-56.81l208.068.003z" fill="#82b1ff"/></svg></g><!--ITEM: Illustration component 6--><g transform="translate(1795.3125 703.125) rotate(0.0 200.390625 39.84375)  scale(1.2232739675853859 1.2043208197315922)"><svg width="327.63" height="66.168" viewBox="0.0 0.0 327.63 66.168"><path d="m3 0 324.63.448v65.72l-324.63-.168v-14l219.94-.122v-32.81l-219.94-.068z" fill="rgb(130,177,255)"/><path d="m3 19 219.94.068v32.81l-219.94.122" fill="#fff"/><path d="m3 55c-1.656 0-2.999-1.342-3-2.998-.001-1.657 1.342-3.001 2.998-3.002l216.941-.121v-26.812l-216.94-.067c-1.657 0-3-1.344-2.999-3.001.001-1.656 1.344-2.999 3-2.999h.001l219.939.068c1.656 0 2.999 1.344 2.999 3v32.81c0 1.656-1.342 2.999-2.998 3l-219.939.122c-.001 0-.002 0-.002 0z" fill="#222433"/></svg></g><!--ITEM: Illustration component 7--><g transform="translate(2226.5625 780.46875) rotate(0.0 -200.390625 39.84375)  scale(-1.2232739675853859 1.2043208197315922)"><svg width="327.63" height="66.168" viewBox="0.0 0.0 327.63 66.168"><path d="m3 0 324.63.448v65.72l-324.63-.168v-14l219.94-.122v-32.81l-219.94-.068z" fill="#5a38fd"/><path d="m3 19 219.94.068v32.81l-219.94.122" fill="#fff"/><path d="m3 55c-1.656 0-2.999-1.342-3-2.998-.001-1.657 1.342-3.001 2.998-3.002l216.941-.121v-26.812l-216.94-.067c-1.657 0-3-1.344-2.999-3.001.001-1.656 1.344-2.999 3-2.999h.001l219.939.068c1.656 0 2.999 1.344 2.999 3v32.81c0 1.656-1.342 2.999-2.998 3l-219.939.122c-.001 0-.002 0-.002 0z" fill="#222433"/></svg></g><!--ITEM: Illustration component 8--><g transform="translate(2625.0 1490.625) rotate(0.0 -162.890625 31.640625)  scale(-0.9943572017214541 0.9563724156692056)"><svg width="327.63" height="66.168" viewBox="0.0 0.0 327.63 66.168"><path d="m3 0 324.63.448v65.72l-324.63-.168v-14l219.94-.122v-32.81l-219.94-.068z" fill="#5a38fd"/><path d="m3 19 219.94.068v32.81l-219.94.122" fill="#fff"/><path d="m3 55c-1.656 0-2.999-1.342-3-2.998-.001-1.657 1.342-3.001 2.998-3.002l216.941-.121v-26.812l-216.94-.067c-1.657 0-3-1.344-2.999-3.001.001-1.656 1.344-2.999 3-2.999h.001l219.939.068c1.656 0 2.999 1.344 2.999 3v32.81c0 1.656-1.342 2.999-2.998 3l-219.939.122c-.001 0-.002 0-.002 0z" fill="rgb(90,56,253)"/></svg></g><!--ITEM: Illustration component 9--><g transform="translate(2463.28125 1417.96875) rotate(16.140721852037885 200.390625 39.84375)  scale(1.2232739675853859 1.2043208197315922)"><svg width="327.63" height="66.168" viewBox="0.0 0.0 327.63 66.168"><path d="m3 0 324.63.448v65.72l-324.63-.168v-14l219.94-.122v-32.81l-219.94-.068z" fill="rgb(130,177,255)"/><path d="m3 19 219.94.068v32.81l-219.94.122" fill="#fff"/><path d="m3 55c-1.656 0-2.999-1.342-3-2.998-.001-1.657 1.342-3.001 2.998-3.002l216.941-.121v-26.812l-216.94-.067c-1.657 0-3-1.344-2.999-3.001.001-1.656 1.344-2.999 3-2.999h.001l219.939.068c1.656 0 2.999 1.344 2.999 3v32.81c0 1.656-1.342 2.999-2.998 3l-219.939.122c-.001 0-.002 0-.002 0z" fill="#222433"/></svg></g><!--ITEM: Illustration component 10--><g transform="translate(119.53125 482.8125) rotate(0.0 187.5 539.0625)  scale(1.2538409327239108 1.257054077373318)"><svg width="299.081" height="857.66" viewBox="0.0 0.0 299.081 857.66"><path d="m290.13 105.17a11.18 11.18 0 0 0 -15.088 4.726 11.18 11.18 0 1 0 -19.513-10.918c-.1.186-.2.376-.3.568l-26.38 50.14 4.16-56.47a11.18 11.18 0 0 0 -22.29-1.7 11.18 11.18 0 0 0 -22.29-1.7l-.57 7.43-3.81 50.08a45 45 0 0 0 23.45 43l-.07.12a48.069 48.069 0 0 0 18 5.16v-.14a45 45 0 0 0 42.64-24.06l23.25-44.52 3.45-6.6a11.17 11.17 0 0 0 -4.616-15.107z" fill="#fff"/><path d="m225.43 198.61c-.083 0-.166 0-.249-.011a50.78 50.78 0 0 1 -19.123-5.482 2.987 2.987 0 0 1 -.8-.6 48.052 48.052 0 0 1 -24.199-45.417l4.38-57.511a14.175 14.175 0 0 1 25.916-6.534 14.19 14.19 0 0 1 24.651 10.327l-3.106 42.167 19.675-37.4c.077-.161.2-.4.335-.638a14.186 14.186 0 0 1 26.358 4.567 14.362 14.362 0 0 1 1.442-.537 14.08 14.08 0 0 1 10.81.965c.036.019.072.038.107.059a14.2 14.2 0 0 1 5.791 19.129l-26.689 51.1a48.041 48.041 0 0 1 -44.544 25.715 2.983 2.983 0 0 1 -.755.101zm0-6.14c.061 0 .123 0 .184.006a42.074 42.074 0 0 0 39.8-22.457l26.7-51.119a8.184 8.184 0 0 0 -3.366-11.069l-.009-.005a8.18 8.18 0 0 0 -10.9 3.216c-.057.108-.116.215-.176.323a3 3 0 0 1 -5.3-2.807c.054-.1.109-.206.165-.307a8.18 8.18 0 0 0 -14.377-7.8c-.078.138-.149.276-.218.418l-26.422 50.222a3 3 0 0 1 -5.647-1.618l4.155-56.473a8.181 8.181 0 0 0 -16.313-1.187 3 3 0 0 1 -5.981-.456 8.18 8.18 0 0 0 -16.309-1.244l-4.375 57.444a42.047 42.047 0 0 0 21.887 40.134 3.048 3.048 0 0 1 .663.487 44.774 44.774 0 0 0 15.2 4.36 3.047 3.047 0 0 1 .639-.068z" fill="#222433"/><path d="m106.291 445.171a3 3 0 0 1 -2.75-1.8l-71.664-163.613a3 3 0 1 1 5.5-2.407l71.665 163.614a3 3 0 0 1 -2.747 4.206z" fill="#222433"/><circle cx="25.57" cy="257.88" fill="#fff" r="22.57"/><path d="m25.57 283.45a25.57 25.57 0 1 1 25.57-25.57 25.6 25.6 0 0 1 -25.57 25.57zm0-45.14a19.57 19.57 0 1 0 19.57 19.57 19.592 19.592 0 0 0 -19.57-19.57z" fill="#222433"/><circle cx="113.96" cy="30.21" fill="#5a38fd" r="30.21"/><circle cx="147.29" cy="94.04" fill="#5a38fd" r="30.21"/><circle cx="86.95" cy="96.96" fill="#5a38fd" r="30.21"/><circle cx="150.53" cy="161.06" fill="#5a38fd" r="30.21"/><circle cx="90.19" cy="163.98" fill="#5a38fd" r="30.21"/><path d="m206.85 730.9a58.339 58.339 0 0 1 0 82.505l-41.26 41.25h-61.74l-41.25-41.245a58.33 58.33 0 0 1 -.019-82.491l.019-.019a58.33 58.33 0 0 0 .009-82.491l-.009-.009a58.34 58.34 0 0 1 -2.63-79.7c.84-1 1.72-1.9 2.63-2.81a58.339 58.339 0 0 0 0-82.5 58.132 58.132 0 0 1 -17.08-41.21h178.45a58.15 58.15 0 0 1 -17.12 41.21 58.339 58.339 0 0 0 0 82.505c.91.91 1.79 1.85 2.63 2.81a58.34 58.34 0 0 1 -2.63 79.7 58.33 58.33 0 0 0 -.009 82.491l.009.009z" fill="#fff"/><g fill="#222433"><path d="m165.59 857.66h-61.74a3 3 0 0 1 -2.121-.879l-41.25-41.25a61.331 61.331 0 0 1 -.02-86.734l.033-.032a55.329 55.329 0 0 0 0-78.235 61.492 61.492 0 0 1 -2.773-83.807c.906-1.08 1.9-2.092 2.765-2.954a55.4 55.4 0 0 0 0-78.263l-.006-.006a61.546 61.546 0 0 1 -17.958-43.333 3 3 0 0 1 3-3h178.45a3 3 0 0 1 3 3 61.565 61.565 0 0 1 -18 43.336 55.339 55.339 0 0 0 0 78.258l.013.013c.955.955 1.882 1.946 2.757 2.945a61.489 61.489 0 0 1 -2.767 83.8 55.33 55.33 0 0 0 -.008 78.249l-2.113 2.13 2.121-2.121a61.41 61.41 0 0 1 .021 86.731l-.031.032-41.25 41.24a3.007 3.007 0 0 1 -2.123.88zm-60.5-6h59.255l40.381-40.372.01-.009a55.4 55.4 0 0 0 -.01-78.258l-.009-.009a61.329 61.329 0 0 1 .009-86.734 55.476 55.476 0 0 0 2.495-75.6c-.789-.9-1.626-1.8-2.488-2.657l-.022-.022a61.339 61.339 0 0 1 .015-86.738 55.575 55.575 0 0 0 16.158-36.089h-172.284a55.54 55.54 0 0 0 16.118 36.086 61.41 61.41 0 0 1 -.006 86.748c-.807.808-1.661 1.675-2.453 2.619a55.489 55.489 0 0 0 2.453 75.649 61.329 61.329 0 0 1 0 86.743l-.031.029a55.331 55.331 0 0 0 .031 78.237z"/><path d="m130.582 445.17a3 3 0 0 1 -3-2.879l-16.62-411.96a3 3 0 0 1 5.995-.242l16.624 411.959a3 3 0 0 1 -2.876 3.12z"/><path d="m209.52 571.7h-149.54a3 3 0 0 1 0-6h149.54a3 3 0 0 1 0 6z"/><path d="m206.85 651.4h-144.24a3 3 0 0 1 0-6h144.24a3 3 0 1 1 0 6z"/><path d="m209.52 736.7h-149.54a3 3 0 0 1 0-6h149.54a3 3 0 0 1 0 6z"/><path d="m206.85 816.4h-144.24a3 3 0 0 1 0-6h144.24a3 3 0 1 1 0 6z"/><path d="m207.483 137.44q-.114 0-.231-.009a3 3 0 0 1 -2.763-3.219l3.34-43.8a3 3 0 1 1 5.982.457l-3.34 43.8a3 3 0 0 1 -2.988 2.771z"/><path d="m255.118 151.071a3 3 0 0 1 -2.657-4.39l20.34-38.939a3 3 0 1 1 5.318 2.777l-20.34 38.94a3 3 0 0 1 -2.661 1.612z"/><path d="m146.3 445.171a3.007 3.007 0 0 1 -2.885-3.827l75.551-264.044a3 3 0 1 1 5.768 1.65l-75.555 264.05a3 3 0 0 1 -2.879 2.171z"/></g></svg></g><!--ITEM: Illustration component 11--><g transform="translate(51.5625 1553.90625) rotate(0.0 1440.234375 4.6875)  scale(2.4089786338296024 2.34375)"><svg width="1195.722" height="4.0" viewBox="0.0 0.0 1195.722 4.0"><path d="m1193.721 4h-1191.721c-1.105 0-2-.896-2-2s.896-2 2-2h1191.722c1.104 0 2 .896 2 2s-.896 2-2.001 2z" fill="#222433"/></svg></g><!--ITEM: Illustration component 12--><g transform="translate(1082.8125 215.625) rotate(-36.07898947002387 -52.734375 24.609375)  scale(-1.5510110294117647 1.6137295081967213)"><svg width="68.0" height="30.5" viewBox="0.0 0.0 68.0 30.5"><g fill="#222433"><path d="m18.3 28.3a2.993 2.993 0 0 1 -2.242-1.006l-15.3-17.2a3 3 0 1 1 4.484-3.988l15.3 17.2a3 3 0 0 1 -2.242 4.994z"/><path d="m36.7 26.7h-.119a3 3 0 0 1 -2.881-3.116l.8-20.7a3 3 0 1 1 6 .232l-.8 20.7a3 3 0 0 1 -3 2.884z"/><path d="m52.7 30.5a3 3 0 0 1 -2.413-4.779l12.3-16.7a3 3 0 1 1 4.83 3.558l-12.3 16.7a2.992 2.992 0 0 1 -2.417 1.221z"/></g></svg></g><!--ITEM: Illustration component 13--><g transform="translate(2259.375 780.46875) rotate(11.276957925716172 83.203125 44.53125) translate(70.3125 0.0) scale(1.9118365119485292 1.85779098873592)"><svg width="49.036619718309865" height="31.53947368421052" viewBox="36.7774647887324 0.0 49.036619718309865 31.53947368421052"><path d="m85.042 20.19c-.635 0-1.26-.301-1.647-.863l-11.18-16.19c-.628-.909-.4-2.155.509-2.782.909-.628 2.155-.4 2.782.509l11.18 16.19c.628.909.4 2.154-.509 2.782-.347.239-.743.354-1.135.354z" fill="#000000"/><path d="m70.129 30.15c-.461 0-.924-.158-1.301-.482l-27.65-23.72c-.838-.719-.935-1.982-.215-2.82s1.98-.935 2.82-.216l27.648 23.72c.839.719.936 1.982.216 2.82-.395.461-.955.698-1.518.698z" fill="#000000"/><path d="m59.208 47.941c-.316 0-.638-.075-.937-.234l-57.21-30.4c-.976-.518-1.346-1.729-.828-2.704.518-.976 1.73-1.347 2.705-.828l57.21 30.4c.976.518 1.346 1.729.828 2.705-.359.675-1.052 1.061-1.768 1.061z" fill="#000000"/></svg></g><!--ITEM: Illustration component 14--><g transform="translate(1734.375 236.71875) rotate(0.0 270.703125 233.203125)  scale(2.0831008757079537 2.0822265328535585)"><svg width="259.904" height="223.994" viewBox="0.0 0.0 259.904 223.994"><path d="m153.707 139.084 41.245 18.432 33.536 20.984 4.259 2.927a22.2 22.2 0 0 0 2.911-3.632l22.16-27.486a17.811 17.811 0 0 0 -25.125 2.331 52.689 52.689 0 0 0 -3.828 6.018l-66.639-54.214z" fill="#fff"/><path d="m232.747 183.105a1.611 1.611 0 0 0 .97-.325c.324-.217 1.187-1.085 3.235-3.958l22.106-27.486a1.682 1.682 0 0 0 -.216-2.277 19.678 19.678 0 0 0 -14.341-4.391 18.814 18.814 0 0 0 -13.048 6.993 35.107 35.107 0 0 0 -2.965 4.608l-65.188-53.021a1.66 1.66 0 0 0 -2.264.217 1.241 1.241 0 0 0 -.324.651l-8.568 34.584a1.65 1.65 0 0 0 .916 1.9l41.14 18.38 33.373 20.926 4.259 2.928a2.592 2.592 0 0 0 .917.271zm22.753-32.474-21.081 26.185-.054.054c-.808 1.139-1.455 1.952-1.833 2.44l-3.127-2.169-.054-.054-33.535-20.98c-.054-.055-.108-.055-.216-.109l-40-17.89 7.656-30.739 64.644 52.587a1.66 1.66 0 0 0 2.264-.217c.054-.054.108-.109.108-.163.323-.542.647-1.084.916-1.518a36.763 36.763 0 0 1 2.75-4.337 15.8 15.8 0 0 1 10.837-5.8 16.253 16.253 0 0 1 10.725 2.71z" fill="#222433"/><path d="m232.747 183.605-.083-.007a2.994 2.994 0 0 1 -1.091-.336l-4.285-2.944-33.356-20.918-41.076-18.346a2.14 2.14 0 0 1 -1.192-2.491l8.567-34.563a1.7 1.7 0 0 1 .454-.884 2.145 2.145 0 0 1 2.925-.259l64.73 52.652a34.323 34.323 0 0 1 2.717-4.15 19.438 19.438 0 0 1 13.4-7.186 20.1 20.1 0 0 1 14.7 4.5 2.179 2.179 0 0 1 .3 2.967l-22.114 27.5a21.52 21.52 0 0 1 -3.343 4.06 2.074 2.074 0 0 1 -1.253.405zm-70.466-80.2a1.11 1.11 0 0 0 -.857.384.791.791 0 0 0 -.217.429l-8.578 34.611a1.151 1.151 0 0 0 .641 1.324l41.13 18.37 33.434 20.959 4.278 2.94a2.134 2.134 0 0 0 .67.182 1.106 1.106 0 0 0 .62-.214c.2-.138.924-.748 3.141-3.858l22.124-27.51a1.18 1.18 0 0 0 -.148-1.58 19.114 19.114 0 0 0 -13.974-4.277 18.427 18.427 0 0 0 -12.7 6.81 34.526 34.526 0 0 0 -2.916 4.535l-.288.526-65.649-53.4a1.162 1.162 0 0 0 -.711-.236zm70.356 76.592-3.6-2.512-33.537-20.985a1.277 1.277 0 0 1 -.128-.056l-40.368-18.053 7.948-31.909 65.254 53.084a1.159 1.159 0 0 0 1.564-.148l.01-.008.053-.091c.326-.546.651-1.091.921-1.527a36.434 36.434 0 0 1 2.771-4.367 16.2 16.2 0 0 1 11.2-6 16.837 16.837 0 0 1 11.054 2.8l.45.3-21.51 26.7c-.635.905-1.207 1.64-1.6 2.141zm-36.523-24.297 33.592 21.031 2.722 1.894c.379-.488.907-1.171 1.53-2.048l.1-.117 20.7-25.716a15.822 15.822 0 0 0 -9.944-2.33 15.2 15.2 0 0 0 -10.5 5.619 35.616 35.616 0 0 0 -2.7 4.256c-.274.442-.581.957-.89 1.475a.843.843 0 0 1 -.225.326 2.139 2.139 0 0 1 -2.921.257l-64.044-52.1-7.365 29.569 39.623 17.72a1.2 1.2 0 0 1 .322.164z" fill="#222433"/><path d="m57.307 185.544a107.021 107.021 0 0 0 6.2 36.107h75.7a17.978 17.978 0 0 0 -17.738-18.162c-1.779 0-25.286.38-26.9.868 26.2-9.054 49.333-43.209 61.517-67.5z" fill="#fff"/><path d="m63.453 223.277h75.747a1.626 1.626 0 0 0 1.617-1.626 19.6 19.6 0 0 0 -19.355-19.788c-.162 0-10.244.108-18.116.379 9.435-5.15 18.978-13.445 28.468-24.884 12.616-15.125 21.512-31.444 25.717-39.792a1.608 1.608 0 0 0 -.7-2.169 1.706 1.706 0 0 0 -1.455 0l-98.824 48.684a1.634 1.634 0 0 0 -.917 1.464 108.863 108.863 0 0 0 6.254 36.648 1.751 1.751 0 0 0 1.564 1.084zm74.08-3.253h-72.894a105.536 105.536 0 0 1 -5.715-33.449l93.489-46.028c-13.64 25.7-35.422 54.376-58.336 62.346a1.57 1.57 0 0 0 -.971 2.06 1.638 1.638 0 0 0 2 1.03c1.941-.434 24.046-.813 26.419-.813a16.322 16.322 0 0 1 16.013 14.854z" fill="#222433"/><path d="m139.2 223.777h-75.747a2.236 2.236 0 0 1 -2.026-1.393 109 109 0 0 1 -6.292-36.841 2.133 2.133 0 0 1 1.192-1.909l98.831-48.685a2.226 2.226 0 0 1 1.9 0 2.093 2.093 0 0 1 .929 2.826c-4.272 8.482-13.292 24.923-25.786 39.9-8.857 10.676-17.877 18.74-26.84 24 7.537-.225 16.038-.314 16.1-.314a20.168 20.168 0 0 1 19.857 20.29 2.124 2.124 0 0 1 -2.118 2.126zm16.919-88.042a1.317 1.317 0 0 0 -.54.119l-98.807 48.676a1.135 1.135 0 0 0 -.637 1.015 107.973 107.973 0 0 0 6.226 36.481 1.252 1.252 0 0 0 1.092.751h75.747a1.124 1.124 0 0 0 1.118-1.126 19.166 19.166 0 0 0 -18.862-19.288c-.068 0-10.165.106-18.092.379l-2.11.072 1.853-1.011c9.433-5.148 18.962-13.48 28.322-24.764 12.432-14.9 21.409-31.269 25.655-39.7a1.1 1.1 0 0 0 -.465-1.491 1.115 1.115 0 0 0 -.496-.113zm-18.039 84.789h-73.8l-.116-.337a105.933 105.933 0 0 1 -5.743-33.608v-.314l.283-.139 94.877-46.711-.726 1.367c-6.444 12.14-29.717 52.533-58.614 62.583a1.035 1.035 0 0 0 -.635.553 1.064 1.064 0 0 0 -.035.85 1.15 1.15 0 0 0 1.408.73c2.079-.464 24.8-.828 26.541-.828a16.767 16.767 0 0 1 16.511 15.306zm-73.087-1h71.976a15.754 15.754 0 0 0 -15.456-13.854c-2.408 0-24.419.379-26.307.8a2.127 2.127 0 0 1 -2.579-1.361 2.055 2.055 0 0 1 .072-1.622 2.014 2.014 0 0 1 1.224-1.072c27.537-9.577 50.015-47.265 57.31-60.732l-91.81 45.2a104.929 104.929 0 0 0 5.577 32.641z" fill="#222433"/><path d="m52.454 201.917a23.31 23.31 0 0 1 -15.254 5.855 21.754 21.754 0 0 1 -14.126-5.2 22.072 22.072 0 0 1 -7.821-15.672 22.776 22.776 0 0 1 5.93-16.752l9.543-10.3a36.353 36.353 0 0 0 -1.779-50.96l-6.793-6.4c-6.362-5.963-15.69 3.362-9.6 9.65.269.217.431.434.7.651l6.577 6.18a22.534 22.534 0 0 1 1.133 31.715l-9 9.759a37.5 37.5 0 0 0 -9.759 26.727 35.318 35.318 0 0 0 11.215 24.939l.053.054.054.055a34.374 34.374 0 0 0 23.993 9.433h1.24c3.4-.109 8.3.054 11.7 0z" fill="#fff"/><path d="m48.734 223.277h1.671a1.587 1.587 0 0 0 1.564-1.464l2.1-19.733a1.63 1.63 0 0 0 -1.456-1.789 1.7 1.7 0 0 0 -1.24.379 21.438 21.438 0 0 1 -14.18 5.421h-.054a19.785 19.785 0 0 1 -12.993-4.825 20.548 20.548 0 0 1 -7.279-14.529 21.369 21.369 0 0 1 5.5-15.559l9.49-10.192a38.081 38.081 0 0 0 -1.834-53.238l-6.793-6.4a8.185 8.185 0 0 0 -11.807.379 8.127 8.127 0 0 0 -.054 11.6l.161.163.162.162.432.434 6.523 6.126a20.956 20.956 0 0 1 1.079 29.438l-9 9.759a38.682 38.682 0 0 0 -10.192 27.87 36.884 36.884 0 0 0 11.7 26.023l.108.108a35.9 35.9 0 0 0 25.125 9.921h1.293c1.887-.054 4.259-.054 6.523 0 1.187-.054 2.373-.054 3.451-.054zm.162-3.253c-1.132 0-2.319 0-3.613-.054-2.318-.054-4.69-.054-6.631 0h-1.24a32.552 32.552 0 0 1 -22.86-9l-.108-.109-.054-.054a34.07 34.07 0 0 1 -10.729-23.8 35.755 35.755 0 0 1 9.327-25.589l9-9.758a24.11 24.11 0 0 0 -1.24-33.992l-6.578-6.18c-.054-.054-.108-.054-.108-.109l-.161-.162-.378-.38a4.816 4.816 0 0 1 .108-6.993 4.944 4.944 0 0 1 7.279-.271l6.793 6.4a34.76 34.76 0 0 1 1.675 48.627l-9.543 10.3a24.416 24.416 0 0 0 -6.362 17.945 23.663 23.663 0 0 0 8.411 16.806 23.16 23.16 0 0 0 15.15 5.584 24.478 24.478 0 0 0 13.264-3.9z" fill="#222433"/><path d="m37.04 223.834a36.213 36.213 0 0 1 -25.04-10.062l-.118-.117a37.592 37.592 0 0 1 -11.848-26.362 39.442 39.442 0 0 1 10.323-28.219l9-9.758a20.533 20.533 0 0 0 -1.055-28.735l-7.291-6.9a8.6 8.6 0 0 1 .052-12.3 8.639 8.639 0 0 1 12.507-.395l6.794 6.4a38.759 38.759 0 0 1 1.86 53.938l-9.492 10.2a20.733 20.733 0 0 0 -5.367 15.19 20.117 20.117 0 0 0 7.1 14.175 19.274 19.274 0 0 0 12.671 4.708 20.992 20.992 0 0 0 13.9-5.3 2.2 2.2 0 0 1 1.634-.5 2.163 2.163 0 0 1 1.458.817 2.059 2.059 0 0 1 .432 1.53l-2.1 19.725a2.094 2.094 0 0 1 -2.06 1.911h-1.666c-1.056 0-2.253 0-3.428.054-2.286-.055-4.656-.054-6.532 0h-1.309c-.141-.001-.284 0-.425 0zm-19.44-124.334a8.161 8.161 0 0 0 -5.81 2.573 7.623 7.623 0 0 0 -.056 10.909l.75.753 6.511 6.115a21.535 21.535 0 0 1 1.105 30.14l-9.005 9.759a38.437 38.437 0 0 0 -10.061 27.509 36.6 36.6 0 0 0 11.54 25.677l.121.121a35.317 35.317 0 0 0 24.765 9.775h1.3c1.879-.053 4.268-.053 6.536 0 1.163-.054 2.373-.054 3.439-.054h1.672a1.083 1.083 0 0 0 1.064-1l2.105-19.753a1.07 1.07 0 0 0 -.226-.8 1.171 1.171 0 0 0 -.792-.441 1.188 1.188 0 0 0 -.86.267 21.957 21.957 0 0 1 -14.5 5.538 20.3 20.3 0 0 1 -13.375-4.949 21.115 21.115 0 0 1 -7.45-14.877 21.733 21.733 0 0 1 5.627-15.919l9.494-10.2a37.753 37.753 0 0 0 -1.813-52.534l-6.791-6.4a7.655 7.655 0 0 0 -5.29-2.209zm31.75 121.024h-.45c-1.144 0-2.329 0-3.633-.054-2.31-.054-4.656-.055-6.6 0h-1.255a32.734 32.734 0 0 1 -23.2-9.138l-.119-.118a34.835 34.835 0 0 1 -10.932-24.191 36.5 36.5 0 0 1 9.459-25.942l9.005-9.759a23.673 23.673 0 0 0 -1.213-33.287l-6.58-6.182a.542.542 0 0 1 -.2-.195l-.464-.466a5.321 5.321 0 0 1 .108-7.7 5.463 5.463 0 0 1 7.975-.283l6.794 6.4a35.384 35.384 0 0 1 1.7 49.331l-9.544 10.3a23.777 23.777 0 0 0 -6.231 17.576 23.192 23.192 0 0 0 8.233 16.45 22.657 22.657 0 0 0 14.83 5.469 23.839 23.839 0 0 0 12.991-3.824l.867-.561zm-7.525-1.095c1.127 0 2.3.014 3.47.041 1.122.047 2.153.053 3.147.054l1.258-13.237a24.858 24.858 0 0 1 -12.669 3.449 23.664 23.664 0 0 1 -15.478-5.706 24.2 24.2 0 0 1 -8.583-17.156 24.772 24.772 0 0 1 6.493-18.311l9.544-10.3a34.378 34.378 0 0 0 -1.648-47.928l-6.792-6.395a4.455 4.455 0 0 0 -6.576.254 4.308 4.308 0 0 0 -.106 6.3l.678.678 6.528 6.133a24.674 24.674 0 0 1 1.268 34.695l-9 9.758a35.492 35.492 0 0 0 -9.194 25.23 33.779 33.779 0 0 0 10.572 23.456l.174.174a31.868 31.868 0 0 0 22.084 8.855q.207 0 .414 0h1.247c.967-.03 2.044-.044 3.169-.044z" fill="#222433"/><path d="m185.625 20.248c-22.213 7.373-40.544 40.5-41.515 42.449-.593 1.138-1.186 2.277-1.833 3.307-2.75 4.554-5.769 8.023-9.112 9.162-52.459 11.873-91.44 56.761-91.278 110.378a108.371 108.371 0 0 0 6.2 36.107h75.213a17.889 17.889 0 0 0 -17.63-18.162 16.928 16.928 0 0 0 -4.961.759c17.739-4.5 33.859-15.668 47.338-28.625a191.359 191.359 0 0 0 19.194-21.577c.97-1.192 1.833-2.548 2.75-3.849a31.627 31.627 0 0 0 3.666-4.391c6.308-9 12.185-25.047 15.366-43.8.054-.217.054-.434.108-.651l.215-1.355a153.56 153.56 0 0 0 1.887-26.782l.809-8.132" fill="#fff"/><path d="m48.033 223.277h75.267a1.593 1.593 0 0 0 1.617-1.626 19.748 19.748 0 0 0 -13.964-19.029c12.832-5.1 25.664-13.716 38.226-25.806a193.986 193.986 0 0 0 19.356-21.739c.7-.868 1.348-1.844 2-2.765.215-.326.485-.705.7-1.03a33.944 33.944 0 0 0 3.765-4.554c6.685-9.542 12.508-26.131 15.635-44.4.054-.163.054-.325.108-.434v-.108c0-.055.054-.163.054-.217l.216-1.355a155.612 155.612 0 0 0 1.887-26.946l.808-8.023a1.626 1.626 0 1 0 -3.235-.325l-.808 8.132v.216a150.68 150.68 0 0 1 -1.887 26.511l-.162 1.247a1.194 1.194 0 0 0 -.054.433v.109c0 .054-.054.108-.054.217-3.019 17.836-8.68 33.937-15.1 43.154a28.722 28.722 0 0 1 -3.5 4.174l-.215.217c-.27.379-.54.813-.809 1.193-.647.921-1.24 1.789-1.887 2.6a193.663 193.663 0 0 1 -19.086 21.414c-14.881 14.312-30.085 23.637-45.127 27.812-.539.108-1.079.271-1.618.433a1.631 1.631 0 0 0 .863 3.145c.485-.109.97-.271 1.51-.38a14.783 14.783 0 0 1 3.073-.325 16.226 16.226 0 0 1 15.905 14.909h-72.352a107.767 107.767 0 0 1 19.841-104.305 118.581 118.581 0 0 1 64.483-39.034c.054 0 .108-.054.162-.054 3.45-1.193 6.685-4.445 9.974-9.867.647-1.03 1.24-2.223 1.887-3.415.162-.326 18.439-34.263 40.6-41.636a1.628 1.628 0 0 0 -1.024-3.09c-9.543 3.144-19.464 11.168-29.492 23.8a141.966 141.966 0 0 0 -12.996 19.462q-.889 1.707-1.78 3.253c-2.749 4.608-5.5 7.481-8.141 8.457a121.918 121.918 0 0 0 -66.154 40.064 111.083 111.083 0 0 0 -20.055 108.534 1.771 1.771 0 0 0 1.563.976z" fill="#222433"/><path d="m123.3 223.777h-75.267a2.267 2.267 0 0 1 -2.012-1.253 111.57 111.57 0 0 1 20.122-109.08 122.427 122.427 0 0 1 66.426-40.229c2.462-.914 5.115-3.688 7.823-8.226.585-1.016 1.18-2.1 1.765-3.228a142.7 142.7 0 0 1 13.043-19.542c10.108-12.733 20.11-20.8 29.726-23.964a2.171 2.171 0 0 1 1.67.137 2.056 2.056 0 0 1 1.013 1.219 2.11 2.11 0 0 1 -1.353 2.686c-21.753 7.237-40.128 41.046-40.3 41.383-.189.348-.366.681-.541 1.01-.46.869-.9 1.691-1.371 2.448-3.37 5.562-6.718 8.862-10.23 10.073l-.062.021a.647.647 0 0 1 -.182.054 118.083 118.083 0 0 0 -64.18 38.861 107.273 107.273 0 0 0 -19.866 103.486h71.436a15.636 15.636 0 0 0 -15.345-13.909 14.4 14.4 0 0 0 -2.97.314c-.3.059-.569.135-.836.207-.225.062-.447.122-.668.171a2.131 2.131 0 0 1 -1.121-4.109c.546-.165 1.106-.333 1.668-.447 15-4.165 30.114-13.481 44.879-27.681a193.889 193.889 0 0 0 19.033-21.358c.543-.682 1.045-1.4 1.576-2.16l.3-.426c.133-.186.264-.385.395-.582s.277-.418.416-.613l.271-.282a28.024 28.024 0 0 0 3.442-4.1c6.41-9.208 12.022-25.265 15.017-42.958a.565.565 0 0 1 .047-.209v-.033a1.677 1.677 0 0 1 .079-.59l.141-1.155a150.765 150.765 0 0 0 1.883-26.436v-.226l.811-8.182a2.179 2.179 0 0 1 .822-1.483 2.021 2.021 0 0 1 1.517-.427 2.158 2.158 0 0 1 1.458.816 2.059 2.059 0 0 1 .432 1.53l-.808 8.013a155.521 155.521 0 0 1 -1.891 26.972l-.215 1.355a.67.67 0 0 1 -.047.189l-.053.279a2.472 2.472 0 0 1 -.081.37c-3.126 18.3-9 34.969-15.7 44.531a34.238 34.238 0 0 1 -3.828 4.619c-.046.087-.168.264-.291.441s-.241.351-.348.513l-.453.651c-.5.723-1.019 1.47-1.571 2.152a195.022 195.022 0 0 1 -19.4 21.785c-12.12 11.663-24.611 20.206-37.147 25.406a20.4 20.4 0 0 1 13.038 19.072 2.1 2.1 0 0 1 -2.112 2.124zm62.306-204.628a1.227 1.227 0 0 0 -.371.058c-9.421 3.1-19.264 11.056-29.249 23.633a141.708 141.708 0 0 0 -12.948 19.394c-.586 1.125-1.188 2.226-1.783 3.26-2.833 4.747-5.658 7.664-8.4 8.677a121.5 121.5 0 0 0 -65.944 39.916 110.587 110.587 0 0 0 -19.97 108.048 1.273 1.273 0 0 0 1.092.642h75.267a1.1 1.1 0 0 0 1.118-1.126 19.37 19.37 0 0 0 -13.61-18.551l-1.365-.416 1.326-.527c12.831-5.1 25.638-13.743 38.064-25.7a194.262 194.262 0 0 0 19.3-21.683c.537-.664 1.044-1.4 1.534-2.1l.45-.645c.1-.155.227-.336.351-.516s.238-.344.342-.5a34.325 34.325 0 0 0 3.78-4.563c6.619-9.447 12.433-25.97 15.553-44.2a1.97 1.97 0 0 0 .052-.222 1.672 1.672 0 0 1 .049-.218v-.018a.833.833 0 0 1 .053-.267l.222-1.382a155.076 155.076 0 0 0 1.881-26.866l.811-8.082a1.073 1.073 0 0 0 -.225-.8 1.175 1.175 0 0 0 -.792-.441 1.04 1.04 0 0 0 -.779.222 1.185 1.185 0 0 0 -.446.8l-.807 8.123v.167a151.694 151.694 0 0 1 -1.893 26.589l-.16 1.233a1.024 1.024 0 0 0 -.05.369v.207l-.058.163c-3.021 17.871-8.7 34.079-15.182 43.4a28.876 28.876 0 0 1 -3.56 4.242l-.215.216c-.08.124-.213.324-.344.523s-.275.414-.412.607l-.3.423c-.541.773-1.052 1.5-1.608 2.2a194.841 194.841 0 0 1 -19.13 21.463c-14.886 14.317-30.141 23.715-45.341 27.933-.55.113-1.063.267-1.606.431a1.147 1.147 0 0 0 -.745 1.433 1.132 1.132 0 0 0 1.333.75c.227-.052.433-.108.644-.165.289-.079.583-.159.9-.222a15.358 15.358 0 0 1 3.172-.335 16.659 16.659 0 0 1 16.4 15.36l.053.549h-73.253l-.115-.34a108.268 108.268 0 0 1 19.932-104.79 119.1 119.1 0 0 1 64.746-39.2.688.688 0 0 1 .16-.055c3.266-1.147 6.43-4.3 9.667-9.639.46-.732.888-1.537 1.339-2.39.176-.333.354-.668.537-1 .159-.322 18.569-34.449 40.879-41.872a1.121 1.121 0 0 0 .705-1.437 1.062 1.062 0 0 0 -.522-.63 1.145 1.145 0 0 0 -.529-.133z" fill="#222433"/><path d="m127.936 193.568a1.5 1.5 0 0 0 .97-.325c8.357-6.4 13.317-17.24 13.317-28.9a35.788 35.788 0 0 0 -35.584-35.781 1.627 1.627 0 0 0 0 3.253 32.534 32.534 0 0 1 32.349 32.528c0 10.68-4.529 20.493-12.023 26.294a1.644 1.644 0 0 0 -.323 2.277 1.6 1.6 0 0 0 1.294.65z" fill="#222433"/><path d="m127.936 194.068a2.093 2.093 0 0 1 -1.7-.852 2.133 2.133 0 0 1 .419-2.971c7.406-5.733 11.828-15.415 11.828-25.9a32.114 32.114 0 0 0 -31.851-32.028 2.127 2.127 0 0 1 0-4.253 36.364 36.364 0 0 1 36.084 36.28c0 11.866-5.052 22.817-13.513 29.294a1.984 1.984 0 0 1 -1.267.43zm-21.3-65a1.127 1.127 0 0 0 0 2.253 33.117 33.117 0 0 1 32.849 33.027c0 10.792-4.567 20.769-12.217 26.69a1.146 1.146 0 0 0 -.232 1.577 1.134 1.134 0 0 0 1.553.24c8.226-6.3 13.131-16.95 13.131-28.506a35.361 35.361 0 0 0 -35.082-35.283z" fill="#222433"/><path d="m194.9 33.693 30.676-25.427-3.558 21.957z" fill="#fff"/><path d="m194.9 35.319h.216l27.12-3.47a1.663 1.663 0 0 0 1.4-1.355l3.559-21.956a1.567 1.567 0 0 0 -1.348-1.844 1.8 1.8 0 0 0 -1.294.326l-30.679 25.426a1.586 1.586 0 0 0 -.216 2.277 1.611 1.611 0 0 0 1.24.6zm25.772-6.56-20.38 2.6 23.022-19.083z" fill="#222433"/><path d="m194.9 35.819a2.109 2.109 0 0 1 -1.62-.772 2.077 2.077 0 0 1 .272-2.982l30.683-25.43a2.3 2.3 0 0 1 1.665-.435 2.033 2.033 0 0 1 1.412.82 2.082 2.082 0 0 1 .371 1.612l-3.557 21.945a2.163 2.163 0 0 1 -1.818 1.77zm30.708-28.639a1.275 1.275 0 0 0 -.764.245l-30.65 25.4a1.083 1.083 0 0 0 -.152 1.57 1.115 1.115 0 0 0 .856.419h.216l27.056-3.466a1.154 1.154 0 0 0 .971-.934l3.559-21.957a1.091 1.091 0 0 0 -.192-.846 1.034 1.034 0 0 0 -.721-.42 1.594 1.594 0 0 0 -.179-.011zm-26.963 24.9 25.371-21.031-2.911 18.163zm23.963-18.565-20.674 17.132 18.3-2.337z" fill="#222433"/><path d="m188.267 27.566 30.678-25.426-3.559 21.96z" fill="#fff"/><path d="m188.267 29.193h.216l27.119-3.47a1.664 1.664 0 0 0 1.4-1.355l3.5-21.957a1.618 1.618 0 0 0 -1.294-1.9 1.8 1.8 0 0 0 -1.294.325l-30.672 25.429a1.587 1.587 0 0 0 -.215 2.277 1.44 1.44 0 0 0 1.24.651zm25.717-6.56-20.38 2.6 23.022-19.081z" fill="#222433"/><path d="m188.267 29.693a1.933 1.933 0 0 1 -1.665-.887 2.055 2.055 0 0 1 .317-2.921l30.681-25.431a2.3 2.3 0 0 1 1.67-.437 2.124 2.124 0 0 1 1.73 2.483l-3.5 21.949a2.169 2.169 0 0 1 -1.819 1.771zm30.705-28.693a1.283 1.283 0 0 0 -.76.248l-30.65 25.4a1.085 1.085 0 0 0 -.152 1.571.982.982 0 0 0 .857.472h.216l27.056-3.466a1.154 1.154 0 0 0 .97-.934l3.505-21.96a1.126 1.126 0 0 0 -.892-1.331c-.05 0-.101 0-.15 0zm-27.012 24.949 25.371-21.03-2.912 18.163zm23.962-18.564-20.673 17.136 18.3-2.337z" fill="#222433"/><path d="m192.418 64.7c4.044 2.006 18.332 11.547 34.56 2.277 2.157-4.663 2.157-6.072.539-10.464a8.16 8.16 0 0 1 -.539-3.2c.377-12.252 1.4-20.439-9.759-29.655a24.905 24.905 0 0 0 -17.63-5.692c0-.163-11.322.759-15.528 2.927" fill="#fff"/><g fill="#222433"><path d="m212.421 72.564a30.367 30.367 0 0 0 15.312-4.175 1.617 1.617 0 0 0 .647-.7c2.318-4.987 2.372-6.83.593-11.71a7.168 7.168 0 0 1 -.485-2.6c0-.7.054-1.409.054-2.114.431-11.385.7-19.626-10.406-28.788a26.032 26.032 0 0 0 -18.816-6.017 37.722 37.722 0 0 0 -6.416.6c-3.127.434-7.333 1.247-9.759 2.44a1.61 1.61 0 0 0 1.456 2.873c3.45-1.735 13.155-2.711 14.611-2.765h.323a23.065 23.065 0 0 1 16.5 5.313c9.975 8.186 9.705 15.342 9.328 26.185 0 .7-.054 1.464-.054 2.169a11.209 11.209 0 0 0 .647 3.795c1.4 3.74 1.509 4.77-.27 8.728-13.748 7.59-25.933 1.03-31.163-1.843-.539-.326-1.024-.542-1.4-.759a1.638 1.638 0 0 0 -2.156.7 1.656 1.656 0 0 0 .7 2.169c.377.163.808.434 1.347.7 3.394 1.949 10.565 5.799 19.407 5.799zm-13.695-53.13a3.534 3.534 0 0 0 .432.163 3.534 3.534 0 0 1 -.432-.163zm-.862-1.355a.327.327 0 0 0 .054.217.413.413 0 0 0 -.054-.217z"/><path d="m212.421 73.064c-9.448 0-17.133-4.416-19.659-5.867-.213-.106-.428-.226-.629-.336-.246-.135-.464-.257-.668-.344a2.11 2.11 0 1 1 1.867-3.785c.185.1.35.189.529.281.279.144.589.3.918.5 5.067 2.785 16.95 9.31 30.517 1.915 1.65-3.7 1.54-4.59.19-8.2a11.772 11.772 0 0 1 -.679-3.971c0-.358.014-.729.028-1.1s.026-.719.026-1.066c.373-10.743.618-17.785-9.145-25.8a22.427 22.427 0 0 0 -16.145-5.2h-.36c-1.368.051-11.059 1.039-14.385 2.712a2.057 2.057 0 0 1 -1.629.141 2.028 2.028 0 0 1 -1.206-1.083 2.058 2.058 0 0 1 -.133-1.625 2.033 2.033 0 0 1 1.075-1.206c2.835-1.394 7.869-2.2 9.9-2.482 1.88-.27 3.382-.45 4.529-.541v-.078l.037.075a14.967 14.967 0 0 1 1.95-.056 26.323 26.323 0 0 1 19.107 6.134c11.336 9.351 11.02 17.672 10.584 29.189 0 .34-.014.7-.028 1.057s-.026.692-.026 1.038a6.71 6.71 0 0 0 .45 2.418c1.837 5.037 1.734 7.072-.6 12.1a2.117 2.117 0 0 1 -.842.922 30.887 30.887 0 0 1 -15.573 4.258zm-20-9.544a1.124 1.124 0 0 0 -1.007.593 1.159 1.159 0 0 0 .478 1.5c.2.087.45.222.727.374.19.105.4.218.621.331 2.493 1.432 10 5.748 19.185 5.748a29.881 29.881 0 0 0 15.06-4.107 1.134 1.134 0 0 0 .434-.457c2.254-4.854 2.341-6.548.588-11.354a7.7 7.7 0 0 1 -.515-2.774c0-.359.014-.717.027-1.076s.027-.692.027-1.038c.425-11.249.733-19.363-10.224-28.4a25.419 25.419 0 0 0 -18.459-5.905 12.8 12.8 0 0 0 -1.481.028l.434.879a.912.912 0 0 1 .106.438v.854c.178-.015.335-.027.468-.036l.064-.127a2.268 2.268 0 0 0 .29.11h.295a23.389 23.389 0 0 1 16.82 5.43c10.141 8.323 9.889 15.562 9.508 26.52 0 .406-.016.779-.029 1.151s-.027.719-.027 1.065a10.775 10.775 0 0 0 .616 3.625c1.426 3.805 1.559 5.008-.283 9.1l-.068.152-.147.08c-14.113 7.792-26.849.793-31.645-1.842-.325-.2-.615-.345-.876-.479-.194-.1-.373-.193-.533-.285a1.082 1.082 0 0 0 -.458-.098zm4.947-46.5q-1.689.138-4.389.527c-1.987.276-6.9 1.06-9.609 2.393a1.049 1.049 0 0 0 -.559.621 1.093 1.093 0 0 0 .078.865 1.051 1.051 0 0 0 1.48.5c3.03-1.523 10.668-2.469 13.722-2.743l-.525-.53a.784.784 0 0 1 -.2-.569zm.757 1.078.244.015a.156.156 0 0 0 -.008-.031.343.343 0 0 0 -.084-.135l-.136.135z"/><path d="m231.884 64.052-4.475-7.59-.539 10.463z"/><path d="m226.924 68.552a1.513 1.513 0 0 0 .809-.217l5.014-2.873a1.665 1.665 0 0 0 .593-2.223l-4.475-7.59a1.619 1.619 0 0 0 -3.019.7l-.539 10.463a1.634 1.634 0 0 0 1.509 1.735zm2.75-5.1-.971.6.108-2.06z"/><path d="m226.924 69.052h-.108a2.138 2.138 0 0 1 -2.008-2.265l.539-10.459a2.1 2.1 0 0 1 2.674-1.905 2.081 2.081 0 0 1 1.278.98l4.472 7.582a2.163 2.163 0 0 1 -.771 2.915l-5.014 2.873a2 2 0 0 1 -1.062.279zm.521-13.706a1.08 1.08 0 0 0 -.541.14 1.15 1.15 0 0 0 -.56.917l-.538 10.44a1.133 1.133 0 0 0 1.041 1.21h.077a1.007 1.007 0 0 0 .55-.145l5.024-2.879a1.162 1.162 0 0 0 .408-1.542l-4.472-7.587a1.1 1.1 0 0 0 -.677-.515 1.19 1.19 0 0 0 -.312-.039zm.71 9.63.243-4.67 1.955 3.319z"/><ellipse cx="212.367" cy="44.969" rx="3.605" ry="3.625"/><path d="m212.367 49.094a4.125 4.125 0 1 1 4.105-4.125 4.121 4.121 0 0 1 -4.105 4.125zm0-7.25a3.125 3.125 0 1 0 3.105 3.125 3.119 3.119 0 0 0 -3.105-3.125z"/></g><path d="m151.011 152.42 6.524 69.447h40.275a17.568 17.568 0 0 0 -17.091-18 16.625 16.625 0 0 0 -5.661.813v-88.854" fill="#fff"/><path d="m157.535 223.494h40.275a1.615 1.615 0 0 0 1.617-1.572 19.242 19.242 0 0 0 -18.708-19.68 20.9 20.9 0 0 0 -4.1.326v-86.742a1.618 1.618 0 1 0 -3.235 0v88.856a1.593 1.593 0 0 0 1.616 1.626 1.492 1.492 0 0 0 .485-.054 15.892 15.892 0 0 1 19.949 10.409 16.191 16.191 0 0 1 .7 3.578h-37.143l-6.416-67.984a1.708 1.708 0 0 0 -1.779-1.463 1.659 1.659 0 0 0 -1.456 1.734l6.578 69.5a1.632 1.632 0 0 0 1.617 1.464z" fill="#222433"/><path d="m197.81 223.994h-40.275a2.126 2.126 0 0 1 -2.114-1.9l-6.579-69.517a2.16 2.16 0 0 1 1.891-2.277 2.2 2.2 0 0 1 2.338 1.9l6.375 67.545h36.138a14.807 14.807 0 0 0 -.621-2.921 15.39 15.39 0 0 0 -19.323-10.089 1.949 1.949 0 0 1 -.637.077 2.1 2.1 0 0 1 -2.117-2.126v-88.86a2.118 2.118 0 1 1 4.236 0v86.159a20.184 20.184 0 0 1 3.617-.243 19.8 19.8 0 0 1 19.188 20.19 2.121 2.121 0 0 1 -2.117 2.062zm-46.915-72.7c-.022 0-.045 0-.068 0a1.15 1.15 0 0 0 -.988 1.2l6.577 69.486a1.132 1.132 0 0 0 1.119 1.011h40.275a1.11 1.11 0 0 0 1.117-1.072 18.8 18.8 0 0 0 -18.221-19.18 20.028 20.028 0 0 0 -4 .319l-.579.094v-87.326a1.118 1.118 0 1 0 -2.236 0v88.856a1.1 1.1 0 0 0 1.109 1.126 1.123 1.123 0 0 0 .327-.028 16.391 16.391 0 0 1 20.585 10.733 16.569 16.569 0 0 1 .721 3.683l.049.545h-38.146l-6.459-68.436a1.212 1.212 0 0 0 -1.177-1.014z" fill="#222433"/></svg></g></svg>