<svg xmlns="http://www.w3.org/2000/svg" version="1.1" viewBox="0 0 3000 1687" width="3000" height="1687">
<defs/><!--ITEM: Illustration component 1--><g transform="translate(195.3125 621.875) rotate(0.0 175.78125 503.125)  scale(1.1754758744286664 1.173250472215097)"><svg width="299.081" height="857.66" viewBox="0.0 0.0 299.081 857.66"><path d="m290.13 105.17a11.18 11.18 0 0 0 -15.088 4.726 11.18 11.18 0 1 0 -19.513-10.918c-.1.186-.2.376-.3.568l-26.38 50.14 4.16-56.47a11.18 11.18 0 0 0 -22.29-1.7 11.18 11.18 0 0 0 -22.29-1.7l-.57 7.43-3.81 50.08a45 45 0 0 0 23.45 43l-.07.12a48.069 48.069 0 0 0 18 5.16v-.14a45 45 0 0 0 42.64-24.06l23.25-44.52 3.45-6.6a11.17 11.17 0 0 0 -4.616-15.107z" fill="#fff"/><path d="m225.43 198.61c-.083 0-.166 0-.249-.011a50.78 50.78 0 0 1 -19.123-5.482 2.987 2.987 0 0 1 -.8-.6 48.052 48.052 0 0 1 -24.199-45.417l4.38-57.511a14.175 14.175 0 0 1 25.916-6.534 14.19 14.19 0 0 1 24.651 10.327l-3.106 42.167 19.675-37.4c.077-.161.2-.4.335-.638a14.186 14.186 0 0 1 26.358 4.567 14.362 14.362 0 0 1 1.442-.537 14.08 14.08 0 0 1 10.81.965c.036.019.072.038.107.059a14.2 14.2 0 0 1 5.791 19.129l-26.689 51.1a48.041 48.041 0 0 1 -44.544 25.715 2.983 2.983 0 0 1 -.755.101zm0-6.14c.061 0 .123 0 .184.006a42.074 42.074 0 0 0 39.8-22.457l26.7-51.119a8.184 8.184 0 0 0 -3.366-11.069l-.009-.005a8.18 8.18 0 0 0 -10.9 3.216c-.057.108-.116.215-.176.323a3 3 0 0 1 -5.3-2.807c.054-.1.109-.206.165-.307a8.18 8.18 0 0 0 -14.377-7.8c-.078.138-.149.276-.218.418l-26.422 50.222a3 3 0 0 1 -5.647-1.618l4.155-56.473a8.181 8.181 0 0 0 -16.313-1.187 3 3 0 0 1 -5.981-.456 8.18 8.18 0 0 0 -16.309-1.244l-4.375 57.444a42.047 42.047 0 0 0 21.887 40.134 3.048 3.048 0 0 1 .663.487 44.774 44.774 0 0 0 15.2 4.36 3.047 3.047 0 0 1 .639-.068z" fill="#222433"/><path d="m106.291 445.171a3 3 0 0 1 -2.75-1.8l-71.664-163.613a3 3 0 1 1 5.5-2.407l71.665 163.614a3 3 0 0 1 -2.747 4.206z" fill="#222433"/><circle cx="25.57" cy="257.88" fill="#fff" r="22.57"/><path d="m25.57 283.45a25.57 25.57 0 1 1 25.57-25.57 25.6 25.6 0 0 1 -25.57 25.57zm0-45.14a19.57 19.57 0 1 0 19.57 19.57 19.592 19.592 0 0 0 -19.57-19.57z" fill="#222433"/><circle cx="113.96" cy="30.21" fill="#5a38fd" r="30.21"/><circle cx="147.29" cy="94.04" fill="#5a38fd" r="30.21"/><circle cx="86.95" cy="96.96" fill="#5a38fd" r="30.21"/><circle cx="150.53" cy="161.06" fill="#5a38fd" r="30.21"/><circle cx="90.19" cy="163.98" fill="#5a38fd" r="30.21"/><path d="m206.85 730.9a58.339 58.339 0 0 1 0 82.505l-41.26 41.25h-61.74l-41.25-41.245a58.33 58.33 0 0 1 -.019-82.491l.019-.019a58.33 58.33 0 0 0 .009-82.491l-.009-.009a58.34 58.34 0 0 1 -2.63-79.7c.84-1 1.72-1.9 2.63-2.81a58.339 58.339 0 0 0 0-82.5 58.132 58.132 0 0 1 -17.08-41.21h178.45a58.15 58.15 0 0 1 -17.12 41.21 58.339 58.339 0 0 0 0 82.505c.91.91 1.79 1.85 2.63 2.81a58.34 58.34 0 0 1 -2.63 79.7 58.33 58.33 0 0 0 -.009 82.491l.009.009z" fill="#fff"/><g fill="#222433"><path d="m165.59 857.66h-61.74a3 3 0 0 1 -2.121-.879l-41.25-41.25a61.331 61.331 0 0 1 -.02-86.734l.033-.032a55.329 55.329 0 0 0 0-78.235 61.492 61.492 0 0 1 -2.773-83.807c.906-1.08 1.9-2.092 2.765-2.954a55.4 55.4 0 0 0 0-78.263l-.006-.006a61.546 61.546 0 0 1 -17.958-43.333 3 3 0 0 1 3-3h178.45a3 3 0 0 1 3 3 61.565 61.565 0 0 1 -18 43.336 55.339 55.339 0 0 0 0 78.258l.013.013c.955.955 1.882 1.946 2.757 2.945a61.489 61.489 0 0 1 -2.767 83.8 55.33 55.33 0 0 0 -.008 78.249l-2.113 2.13 2.121-2.121a61.41 61.41 0 0 1 .021 86.731l-.031.032-41.25 41.24a3.007 3.007 0 0 1 -2.123.88zm-60.5-6h59.255l40.381-40.372.01-.009a55.4 55.4 0 0 0 -.01-78.258l-.009-.009a61.329 61.329 0 0 1 .009-86.734 55.476 55.476 0 0 0 2.495-75.6c-.789-.9-1.626-1.8-2.488-2.657l-.022-.022a61.339 61.339 0 0 1 .015-86.738 55.575 55.575 0 0 0 16.158-36.089h-172.284a55.54 55.54 0 0 0 16.118 36.086 61.41 61.41 0 0 1 -.006 86.748c-.807.808-1.661 1.675-2.453 2.619a55.489 55.489 0 0 0 2.453 75.649 61.329 61.329 0 0 1 0 86.743l-.031.029a55.331 55.331 0 0 0 .031 78.237z"/><path d="m130.582 445.17a3 3 0 0 1 -3-2.879l-16.62-411.96a3 3 0 0 1 5.995-.242l16.624 411.959a3 3 0 0 1 -2.876 3.12z"/><path d="m209.52 571.7h-149.54a3 3 0 0 1 0-6h149.54a3 3 0 0 1 0 6z"/><path d="m206.85 651.4h-144.24a3 3 0 0 1 0-6h144.24a3 3 0 1 1 0 6z"/><path d="m209.52 736.7h-149.54a3 3 0 0 1 0-6h149.54a3 3 0 0 1 0 6z"/><path d="m206.85 816.4h-144.24a3 3 0 0 1 0-6h144.24a3 3 0 1 1 0 6z"/><path d="m207.483 137.44q-.114 0-.231-.009a3 3 0 0 1 -2.763-3.219l3.34-43.8a3 3 0 1 1 5.982.457l-3.34 43.8a3 3 0 0 1 -2.988 2.771z"/><path d="m255.118 151.071a3 3 0 0 1 -2.657-4.39l20.34-38.939a3 3 0 1 1 5.318 2.777l-20.34 38.94a3 3 0 0 1 -2.661 1.612z"/><path d="m146.3 445.171a3.007 3.007 0 0 1 -2.885-3.827l75.551-264.044a3 3 0 1 1 5.768 1.65l-75.555 264.05a3 3 0 0 1 -2.879 2.171z"/></g></svg></g><!--ITEM: Illustration component 2--><g transform="translate(1964.0625 359.375) rotate(0.0 -510.15625 632.8125)  scale(-2.1264484598391062 2.127025768838411)"><svg width="479.82" height="595.021" viewBox="0.0 0.0 479.82 595.021"><path d="m116.879 300.591-13.33-48.219-31.276-115.902-24.923-92.359c-5.4-20.56 9.93-40.71 31-40.71l159.68-.401c15.827-.04 29.731 10.494 33.978 25.74l75.812 272.192" fill="#fff"/><g fill="#222433"><path d="m347.819 303.934c-1.313 0-2.519-.869-2.889-2.196l-75.812-272.193c-3.864-13.873-16.605-23.545-31-23.545-.027 0-.053 0-.081 0l-159.679.401c-9.032 0-17.388 4.124-22.933 11.313-5.644 7.318-7.53 16.662-5.173 25.635l56.194 208.24 13.325 48.202c.441 1.597-.495 3.249-2.092 3.691-1.596.442-3.25-.496-3.691-2.092l-13.33-48.219-56.204-208.278c-2.838-10.805-.569-22.04 6.22-30.843 6.69-8.674 16.777-13.649 27.676-13.649l159.673-.401h.095c17.08 0 32.195 11.475 36.78 27.936l75.812 272.192c.444 1.596-.489 3.25-2.085 3.695-.269.075-.54.111-.806.111z"/><path d="m476.821 592.934c-1.178 0-2.295-.698-2.773-1.854l-120.172-290.572c-.633-1.531.095-3.286 1.626-3.919 1.53-.633 3.285.094 3.919 1.626l120.171 290.572c.633 1.531-.095 3.286-1.626 3.919-.375.154-.763.228-1.145.228z"/><path d="m441.004 314.671h-310.045c-7.776 0-14.08-6.304-14.08-14.08v-4h331.07z"/><path d="m2.998 595.022c-.436 0-.879-.096-1.299-.297-1.493-.719-2.121-2.511-1.402-4.004l137.103-284.892c.719-1.493 2.512-2.121 4.004-1.402 1.493.719 2.121 2.511 1.402 4.004l-137.103 284.891c-.517 1.074-1.589 1.7-2.705 1.7z"/><path d="m127.678 595.022c-.437 0-.879-.096-1.299-.297-1.493-.718-2.121-2.511-1.402-4.004l137.092-284.891c.718-1.493 2.512-2.121 4.004-1.402 1.493.718 2.121 2.511 1.402 4.004l-137.092 284.89c-.517 1.074-1.588 1.7-2.705 1.7z"/></g></svg></g><!--ITEM: Illustration component 3--><g transform="translate(2045.3125 987.5) rotate(0.0 374.21875 320.3125)  scale(1.5580016361944533 1.5574212871684288)"><svg width="480.383" height="411.337" viewBox="0.0 0.0 480.383 411.337"><path d="m196.085 255.574-76.485 34.026-62.175 38.711-7.943 5.44s-1.227-.892-5.407-6.683l-41.075-50.768c14.37-11.626 35.222-9.678 46.558 4.333 2.06 2.547 3.667 5.464 7.061 11.147l123.561-99.965z" fill="#fff"/><path d="m49.482 336.751a3 3 0 0 1 -1.763-.572c-.6-.437-2.182-1.965-6.028-7.288l-41.024-50.708a3 3 0 0 1 .446-4.219 36.674 36.674 0 0 1 26.583-8.1 35.023 35.023 0 0 1 24.194 12.879 69.961 69.961 0 0 1 5.538 8.521l120.865-97.781a3 3 0 0 1 4.8 1.606l15.907 63.759a3 3 0 0 1 -1.691 3.467l-76.3 33.946-61.943 38.563-7.888 5.4a3.008 3.008 0 0 1 -1.696.527zm-42.174-59.9 39.1 48.33c.035.043.068.087.1.131 1.548 2.145 2.656 3.569 3.42 4.5l5.8-3.974.11-.071 62.173-38.707a3.058 3.058 0 0 1 .366-.195l74.186-33.007-14.156-56.749-119.9 97a3 3 0 0 1 -4.462-.794c-.615-1.028-1.171-1.967-1.682-2.83a68.15 68.15 0 0 0 -5.137-7.967 29.064 29.064 0 0 0 -20.087-10.681 30.609 30.609 0 0 0 -19.831 5.014z" fill="#222433"/><path d="m374.93 341.306a197.069 197.069 0 0 1 -11.468 66.594h-140.436a33.192 33.192 0 0 1 32.885-33.47c3.278 0 46.93.7 49.855 1.638-48.567-16.736-91.517-79.691-114.1-124.52z" fill="#fff"/><path d="m363.462 410.9h-140.436a3 3 0 0 1 -3-2.974 36.239 36.239 0 0 1 35.858-36.5c.3 0 18.955.231 33.622.7-17.492-9.452-35.2-24.816-52.834-45.864-23.4-27.938-39.925-57.961-47.69-73.372a3 3 0 0 1 4-4.044l183.268 89.76a3 3 0 0 1 1.681 2.69 199.534 199.534 0 0 1 -11.643 67.6 3 3 0 0 1 -2.826 2.004zm-137.316-6h135.19a193.513 193.513 0 0 0 10.589-61.722l-173.414-84.937c25.276 47.425 65.68 100.325 108.233 114.989a3 3 0 0 1 -1.819 5.715c-3.621-.777-44.635-1.517-49.014-1.517a30.232 30.232 0 0 0 -29.765 27.472z" fill="#222433"/><path d="m383.947 371.5a42.908 42.908 0 0 0 28.317 10.768 40.2 40.2 0 0 0 26.215-9.6 40.645 40.645 0 0 0 14.512-28.907 41.87 41.87 0 0 0 -11-30.895l-17.67-18.96a66.749 66.749 0 0 1 3.276-93.975l12.64-11.819c11.82-11 29.142 6.2 17.79 17.788-.469.354-.82.822-1.288 1.173l-12.171 11.353a41.417 41.417 0 0 0 -2.107 58.512l16.735 18.022a68.9 68.9 0 0 1 18.138 49.273 64.823 64.823 0 0 1 -20.825 45.99l-.118.117-.117.117a64.152 64.152 0 0 1 -44.474 17.443h-2.345c-6.319-.235-15.448.117-21.651 0z" fill="#fff"/><path d="m390.8 410.923c-1.069 0-2.092-.008-3.056-.027a3 3 0 0 1 -2.926-2.682l-3.858-36.4a3 3 0 0 1 4.971-2.563 39.885 39.885 0 0 0 26.338 10.015h.136a37.219 37.219 0 0 0 24.125-8.881 37.79 37.79 0 0 0 13.47-26.785 39.065 39.065 0 0 0 -10.217-28.7l-17.659-18.948a69.942 69.942 0 0 1 3.416-98.205l12.647-11.825c7.325-6.819 16.573-4.824 21.926.668 5.212 5.347 6.9 14.42.055 21.411a3.218 3.218 0 0 1 -.335.294 3.282 3.282 0 0 0 -.325.309 9.173 9.173 0 0 1 -.824.756l-12.072 11.26a38.466 38.466 0 0 0 -1.956 54.275l16.736 18.026a71.452 71.452 0 0 1 18.938 51.428 68.165 68.165 0 0 1 -21.744 48.038l-.193.192a66.889 66.889 0 0 1 -46.616 18.321h-2.433c-3.462-.13-7.85-.078-12.093-.026-2.259.026-4.436.049-6.451.049zm-.3-6c2.057 0 4.321-.025 6.674-.053 4.292-.052 8.731-.105 12.33.027h2.296a60.757 60.757 0 0 0 42.415-16.622l.17-.17c.027-.029.056-.056.085-.084a62.149 62.149 0 0 0 19.862-43.86 65.508 65.508 0 0 0 -17.346-47.161l-16.725-18.014a44.474 44.474 0 0 1 2.26-62.748l12.17-11.35a2.874 2.874 0 0 1 .248-.208 3.017 3.017 0 0 0 .322-.307 10.14 10.14 0 0 1 .744-.691c4.227-4.437 2.965-9.661-.189-12.9-3.324-3.41-8.8-4.878-13.536-.467l-12.637 11.814a63.924 63.924 0 0 0 -3.123 89.746l17.664 18.952a45.094 45.094 0 0 1 11.8 33.12 43.785 43.785 0 0 1 -15.584 31.026 43.048 43.048 0 0 1 -28.149 10.3 45.889 45.889 0 0 1 -24.6-7.22z" fill="#222433"/><path d="m136.942 36.369c41.153 13.565 75.2 74.724 77.032 78.266 1.105 2.142 2.244 4.2 3.415 6.147 5.06 8.408 10.726 14.757 16.872 16.893 97.252 21.885 169.577 104.742 169.339 203.631a200 200 0 0 1 -11.466 66.594h-139.611c0-18.484 14.628-33.47 32.651-33.47a30.521 30.521 0 0 1 9.246 1.4c-32.935-8.309-62.838-28.93-87.835-52.808a362.123 362.123 0 0 1 -35.637-39.755c-1.762-2.223-3.4-4.681-5.15-7.139a55.638 55.638 0 0 1 -6.837-8.128c-11.715-16.643-22.62-46.177-28.506-80.809-.118-.353-.118-.822-.233-1.173l-.352-2.458a278.194 278.194 0 0 1 -3.511-49.389l-1.519-15.021" fill="#fff"/><path d="m392.135 410.9h-139.612a3 3 0 0 1 -3-3 36.424 36.424 0 0 1 25.87-35.074c-23.785-9.385-47.552-25.346-70.881-47.631a363.851 363.851 0 0 1 -35.935-40.086c-1.279-1.613-2.517-3.382-3.714-5.093q-.666-.954-1.348-1.916a59.371 59.371 0 0 1 -7.007-8.374c-12.418-17.64-23.247-48.235-28.982-81.867a6.93 6.93 0 0 1 -.159-.836c-.007-.052-.013-.1-.022-.154a2.812 2.812 0 0 1 -.093-.428l-.352-2.457a281.866 281.866 0 0 1 -3.544-49.689l-1.5-14.84a3 3 0 0 1 5.97-.6l1.519 15.016a3.036 3.036 0 0 1 .015.357 275.966 275.966 0 0 0 3.472 48.856l.332 2.316a6.939 6.939 0 0 1 .145.782c.007.052.014.1.022.155a2.784 2.784 0 0 1 .082.353c5.585 32.86 16.053 62.611 28 79.586a52.755 52.755 0 0 0 6.46 7.694 3 3 0 0 1 .365.423c.522.73 1.034 1.462 1.541 2.187 1.2 1.714 2.331 3.332 3.519 4.83a358.114 358.114 0 0 0 35.358 39.451c27.626 26.389 55.768 43.646 83.691 51.329q1.5.322 2.971.786a3 3 0 0 1 -1.633 5.771q-1.378-.348-2.756-.725a26.289 26.289 0 0 0 -5.747-.588c-15.373 0-28.046 12.071-29.517 27.469h134.335a196.439 196.439 0 0 0 10.6-63.592c.113-47.336-16.279-91.858-47.4-128.757-30.24-35.854-72.713-61.402-119.6-71.954a3.119 3.119 0 0 1 -.327-.093c-6.4-2.225-12.434-8.171-18.456-18.18-1.166-1.937-2.347-4.062-3.512-6.318-.323-.627-34.159-63.23-75.3-76.792a3 3 0 0 1 1.878-5.7c17.743 5.848 36.136 20.609 54.67 43.872a263.661 263.661 0 0 1 24.088 35.867c1.1 2.139 2.222 4.15 3.321 5.976 5.143 8.548 10.234 13.779 15.134 15.552 48.084 10.861 91.651 37.1 122.688 73.893 32.055 38 48.937 83.863 48.82 132.633a202.462 202.462 0 0 1 -11.641 67.59 3 3 0 0 1 -2.828 2zm-264.77-223.969.009.027zm5.937-.691.008.025z" fill="#222433"/><path d="m243.855 356.107a2.986 2.986 0 0 1 -1.822-.618c-15.466-11.841-24.7-31.761-24.7-53.289a66.066 66.066 0 0 1 65.967-65.957 3 3 0 0 1 0 6 60.058 60.058 0 0 0 -59.966 59.957c0 19.671 8.354 37.812 22.347 48.525a3 3 0 0 1 -1.826 5.381z" fill="#222433"/><path d="m119.682 61.22-56.909-46.934 6.572 40.503z" fill="#fff"/><path d="m119.684 64.221a2.894 2.894 0 0 1 -.382-.025l-50.338-6.431a3 3 0 0 1 -2.581-2.495l-6.572-40.5a3 3 0 0 1 4.87-2.795l56.91 46.934a3 3 0 0 1 -1.907 5.315zm-47.737-12.121 37.816 4.831-42.753-35.262z" fill="#222433"/><path d="m132.03 49.934-56.909-46.934 6.572 40.503z" fill="#fff"/><path d="m132.032 52.935a2.905 2.905 0 0 1 -.382-.025l-50.338-6.431a3 3 0 0 1 -2.581-2.5l-6.572-40.499a3 3 0 0 1 4.871-2.794l56.909 46.934a3 3 0 0 1 -1.907 5.315zm-47.732-12.123 37.817 4.831-42.759-35.26z" fill="#222433"/><path d="m124.339 118.387c-7.483 3.684-33.959 21.338-64.065 4.2-3.992-8.6-4.011-11.17-1.006-19.29a16.109 16.109 0 0 0 1.05-5.867c-.718-22.63-2.634-37.719 18.095-54.738a46.185 46.185 0 0 1 32.745-10.452c.015-.26 20.976 1.408 28.828 5.352" fill="#fff"/><g fill="#222433"><path d="m87.21 132.919a56.651 56.651 0 0 1 -28.42-7.719 3 3 0 0 1 -1.237-1.344c-4.254-9.166-4.428-12.6-1.1-21.594a13.082 13.082 0 0 0 .863-4.8c-.042-1.3-.09-2.635-.137-3.947-.751-21.021-1.294-36.208 19.328-53.14a48.986 48.986 0 0 1 34.866-11.125v.019c1.614-.074 4.88.135 11.85 1.126 5.8.824 13.647 2.277 18.109 4.519a3 3 0 0 1 -2.695 5.361c-6.45-3.241-24.36-5.035-27.079-5.059a3.1 3.1 0 0 1 -.617.018 42.98 42.98 0 0 0 -30.619 9.773c-18.333 15.051-17.86 28.274-17.145 48.293q.07 1.978.139 4.038a19.082 19.082 0 0 1 -1.243 7.028c-2.556 6.906-2.8 8.779.519 16.083 25.538 14 48.087 1.855 57.776-3.362 1.042-.561 1.928-1.037 2.646-1.391a3 3 0 1 1 2.65 5.383c-.665.327-1.486.771-2.451 1.29-6.36 3.425-19.59 10.55-36.003 10.55zm25.39-98.046a3.02 3.02 0 0 1 -.777.294 2.739 2.739 0 0 0 .777-.294zm1.557-2.455a2.938 2.938 0 0 1 -.055.421 2.883 2.883 0 0 0 .051-.421z"/><path d="m51.077 117.217 8.251-14.022 1.004 19.29z"/><path d="m60.332 125.485a3 3 0 0 1 -1.484-.392l-9.255-5.269a3 3 0 0 1 -1.1-4.129l8.251-14.021a3 3 0 0 1 5.582 1.365l1 19.29a3 3 0 0 1 -3 3.156zm-5.126-9.37 1.845 1.051-.2-3.846z"/><circle cx="87.324" cy="82.011" r="9.947"/></g><path d="m201.113 280.207-12.12 128.13h-74.671a32.471 32.471 0 0 1 42.247-31.7v-163.92" fill="#fff"/><path d="m188.993 411.337h-74.67a3 3 0 0 1 -3-2.932 35.477 35.477 0 0 1 42.246-35.627v-160.061a3 3 0 0 1 6 0v163.921a3 3 0 0 1 -3.905 2.86 29.472 29.472 0 0 0 -38.264 25.839h68.864l11.862-125.412a3 3 0 0 1 5.973.564l-12.119 128.13a3 3 0 0 1 -2.987 2.718z" fill="#222433"/></svg></g><!--ITEM: Illustration component 4--><g transform="translate(121.875 1615.625) rotate(0.0 1378.90625 9.375)  scale(1.6956545130349236 1.644736842105263)"><svg width="1626.4" height="11.4" viewBox="0.0 0.0 1626.4 11.4"><path d="m1623.4 8.8h-1620.4c-1.7 0-3-1.3-3-3s1.3-3 3-3h1620.4c1.7 0 3 1.3 3 3s-1.3 3-3 3z" fill="#222433"/></svg></g><!--ITEM: Illustration component 5--><g transform="translate(243.75 64.0625) rotate(0.0 971.875 780.46875)  scale(1.560297522147194 1.5618543084790772)"><svg width="1245.756" height="999.413" viewBox="0.0 0.0 1245.756 999.413"><circle cx="834.286" cy="61.217" fill="#fff" r="58.217"/><path d="m834.286 122.435a61.218 61.218 0 1 1 61.214-61.217 61.287 61.287 0 0 1 -61.214 61.217zm0-116.435a55.218 55.218 0 1 0 55.214 55.218 55.281 55.281 0 0 0 -55.214-55.218z" fill="#222433"/><path d="m213.853 784.229c-24.747 13.993-52.089 12.023-78.809-.873-32.888-15.872-59.116-31.263-59.116-31.263a58.79 58.79 0 0 0 -75.928 3.962l124.606 156.452 67.757 7.425-38.383 29.768 37.92 47.684 129.537-102.784" fill="#5a38fd"/><path d="m701.478 886.679c-7.206 23.044-20.2 43.14-39.75 49.938-35.166 12.226-45.155 31.938-43.1 60.117l146.953 1.839 31.826-48.594-.7 49.291 59.239.143.355-112.737" fill="#5a38fd"/><path d="m639.549 666.709-71.541 12.358-231.634 230.833-142.694-146.193 260.314-254.024q.918-.9 1.868-1.779c14.892-13.83 50.568-20.78 68.953-20.78l383.009-1.024-12.257 61.282 13.278 29.618 2.043 5.107-70.988 17.803 31.07 286.808-206.27-.562-34.686-300.982c-2.726-23.888-7.149-48 11.235-63.324" fill="#fff"/><path d="m336.374 912.9h-.021a3 3 0 0 1 -2.126-.9l-142.693-146.2a3 3 0 0 1 .052-4.243l260.314-254.021c.627-.615 1.273-1.229 1.928-1.835 15.157-14.077 50.968-21.577 70.988-21.577l383-1.021h.008a3 3 0 0 1 2.941 3.588l-12.065 60.34 12.886 28.744c.016.039.033.076.048.114l2.039 5.111a3 3 0 0 1 -2.056 4.025l-68.45 17.165 30.789 284.21a3 3 0 0 1 -2.983 3.323h-.007l-206.274-.562a3 3 0 0 1 -2.973-2.656l-24.919-216.276-67.344 11.633-230.965 230.165a3 3 0 0 1 -2.117.873zm-138.451-149.141 138.477 141.879 229.487-228.7a3.008 3.008 0 0 1 1.607-.831l68.611-11.852-9.074-78.741c-.194-1.7-.4-3.4-.6-5.1-2.67-22.42-5.43-45.6 12.894-60.873a3 3 0 0 1 3.842 4.609c-15.824 13.186-13.372 33.766-10.778 55.554.2 1.708.407 3.417.6 5.126l9.295 80.654a3.018 3.018 0 0 1 .206 1.786l24.879 215.889 200.255.546-30.703-283.472a3 3 0 0 1 2.253-3.233l67.653-16.965-.744-1.861-13.253-29.563a3 3 0 0 1 -.2-1.816l11.537-57.683-379.341 1.012c-18.563 0-53.067 7.114-66.918 19.979-.616.569-1.217 1.14-1.808 1.72z" fill="#222433"/><path d="m839.921 602.91a3 3 0 0 1 -2.987-2.745l-2.348-27.6a3 3 0 1 1 5.978-.509l2.349 27.6a3 3 0 0 1 -2.735 3.244c-.087.006-.172.01-.257.01z" fill="#222433"/><path d="m769.94 256.3c-8.025-.174-21.448-4.086-61.281 10.213l-263.359 115.754-11.288 16.377c-16.138 31.061 14.958 84.3 49.944 85.416l260.446 1.021 53.66 29.5 46.165 25.378a66.387 66.387 0 0 0 62.149 42.591h3.324l132.1-3.391v.072a68.474 68.474 0 0 0 46.8-112.942s-152.182-167.097-165.46-177.311c-22.582-17.371-56.467-31.325-75.581-30.641" fill="#5a38fd"/><path d="m882.93 455.46a3 3 0 0 1 -.2-5.993l97.009-6.5a3 3 0 0 1 .4 5.986l-97.009 6.5c-.064.005-.13.007-.2.007z" fill="#222433"/><path d="m882.853 121.478a25.123 25.123 0 0 0 -14.586-4.678v.03a25.071 25.071 0 0 0 -14.616 4.688c.731-3.523-16.3-38.852-50.006-38.852-35.747 0-52.7 35.083-51.874 38.85a25.136 25.136 0 1 0 0 40.855c-.225 1.021-.4 2.144-.562 3.237a58.1 58.1 0 0 0 18.982 75.14l2.364 21.857a39.038 39.038 0 0 0 77.623-8.406l-2.678-24.674a58.152 58.152 0 0 0 6.729-63.694c-.163-1.164-.347-2.329-.582-3.462a25.126 25.126 0 0 0 29.2-40.891z" fill="#fff"/><g fill="#222433"><path d="m811.336 300.442a42.1 42.1 0 0 1 -41.763-37.514l-2.217-20.493a61.022 61.022 0 0 1 -20.83-73.97 28.136 28.136 0 1 1 3.3-51.633 58.522 58.522 0 0 1 8.744-14.472c6.828-8.475 21.763-22.694 45.074-22.694 21.515 0 35.887 13.713 42.539 21.888a62.954 62.954 0 0 1 9.362 15.31 27.874 27.874 0 0 1 12.284-3.031 3 3 0 0 1 .436-.033 27.965 27.965 0 0 1 16.327 5.236l.029.021a28.29 28.29 0 0 1 6.467 38.779 28.164 28.164 0 0 1 -32.359 10.481 61.072 61.072 0 0 1 -8.111 62.121l2.54 23.438a42.036 42.036 0 0 1 -37.265 46.324 42.257 42.257 0 0 1 -4.557.242zm-59.566-141.072a3 3 0 0 1 2.93 3.645c-.2.929-.371 2.009-.525 3.036a2.976 2.976 0 0 1 -.309.95 55.036 55.036 0 0 0 18 71.259 3 3 0 0 1 1.306 2.165l2.364 21.857a36.038 36.038 0 0 0 71.658-7.759l-2.674-24.675a3 3 0 0 1 .666-2.23 55.085 55.085 0 0 0 6.381-60.407 3 3 0 0 1 -.307-.964c-.182-1.305-.357-2.345-.548-3.271a3 3 0 0 1 4.653-3.069 22.126 22.126 0 0 0 30.8-5.5 22.257 22.257 0 0 0 -5.075-30.5 21.992 21.992 0 0 0 -12.437-4.1 3 3 0 0 1 -.391.026h-.019a21.94 21.94 0 0 0 -12.849 4.127 3 3 0 0 1 -4.731-2.74c-.537-4.624-16.561-35.551-47.022-35.551-32.352 0-48.477 30.894-48.9 35.481a3 3 0 0 1 -4.726 2.807 22.135 22.135 0 1 0 0 35.979 2.993 2.993 0 0 1 1.755-.566z"/><path d="m733.174 151.033a3 3 0 0 1 -1.8-5.4l4.683-3.514-7.587-4.778a3 3 0 1 1 3.2-5.076l11.275 7.1a3 3 0 0 1 .2 4.938l-8.171 6.129a2.982 2.982 0 0 1 -1.8.601z"/><path d="m871.012 150.012a2.981 2.981 0 0 1 -1.8-.6l-8.171-6.129a3 3 0 0 1 .2-4.938l11.275-7.1a3 3 0 1 1 3.2 5.078l-7.586 4.777 4.683 3.513a3 3 0 0 1 -1.8 5.4z"/><path d="m805.645 187.1a3.008 3.008 0 0 1 -.8-.109l-11.776-3.26a3 3 0 0 1 1.6-5.784l7.975 2.209v-21.91a3 3 0 1 1 6 0v25.854a3 3 0 0 1 -3 3z"/><path d="m795.909 211.614a26.384 26.384 0 0 1 -12.1-2.752 3 3 0 0 1 2.668-5.375c5.442 2.7 10.179 2.236 14.762 1.784l.164-.015a24.521 24.521 0 0 0 12.7-4.533 3 3 0 1 1 3.497 4.877 30.521 30.521 0 0 1 -15.749 5.638 59.222 59.222 0 0 1 -5.942.376z"/><circle cx="828.822" cy="166.824" r="4.708"/><circle cx="780.593" cy="166.824" r="4.708"/><path d="m802.675 253.69a61.61 61.61 0 0 1 -10.866-.968c-8.048-1.444-17.514-5.972-23.176-9.411a3 3 0 0 1 3.116-5.127c5.633 3.422 14.347 7.418 21.119 8.631a55.407 55.407 0 0 0 20.137-.1 3 3 0 0 1 1.115 5.894 61.405 61.405 0 0 1 -11.445 1.081z"/><path d="m616.736 489.1a3 3 0 0 1 -2.757-4.183l61.281-142.99a3 3 0 0 1 5.516 2.363l-61.276 142.994a3 3 0 0 1 -2.764 1.816z"/><path d="m736.261 88.232c-10.515 0-20.4-1.624-26.363-6.5-4.417-3.614-6.453-8.582-6.049-14.768.489-7.491 4.318-10.982 7.444-12.593 18.31-9.429 64.813 18.756 70.054 22a3 3 0 0 1 -.794 5.447c-1.424.382-24.03 6.414-44.292 6.414zm-15.54-29.867a14.618 14.618 0 0 0 -6.682 1.337c-1.645.848-3.871 2.563-4.2 7.649-.274 4.2.989 7.383 3.862 9.733 10.79 8.825 41.105 4.458 58.2.668-13.844-7.852-37.337-19.387-51.18-19.387z"/><path d="m779.768 81.919a3.007 3.007 0 0 1 -1.492-.4c-1.943-1.115-47.63-27.55-49.894-50-.572-5.682 1.5-10.638 6.151-14.732 5.634-4.955 10.8-4.723 14.153-3.654 8.615 2.751 16.977 14.688 24.853 35.481a265.078 265.078 0 0 1 9.149 29.617 3 3 0 0 1 -2.92 3.687zm-35.1-63.433c-1.616 0-3.671.608-6.172 2.808-3.16 2.779-4.516 5.927-4.144 9.622 1.395 13.855 25.87 32.175 40.634 41.584-1.533-5.516-3.96-13.586-7.079-21.814-6.986-18.428-14.461-29.735-21.046-31.836a7.1 7.1 0 0 0 -2.193-.364z"/></g><path d="m803.683 77.226.943 6.563a57.354 57.354 0 0 0 54.246 48.9 55.333 55.333 0 0 0 -55.189-55.463z" fill="#fff"/><path d="m858.872 135.686c-.043 0-.087 0-.13 0a60.439 60.439 0 0 1 -57.084-51.454l-.944-6.576a3 3 0 0 1 2.969-3.426h.008a58.4 58.4 0 0 1 58.181 58.465 3 3 0 0 1 -3 2.994zm-51.709-55.335.432 3.011a54.437 54.437 0 0 0 48.186 46.091 52.411 52.411 0 0 0 -48.618-49.102z" fill="#222433"/><path d="m803.683 77.226-.938 6.564a57.411 57.411 0 0 1 -54.253 48.83 55.367 55.367 0 0 1 55.191-55.394z" fill="#fff"/><path d="m748.492 135.619a3 3 0 0 1 -3-3 58.464 58.464 0 0 1 58.182-58.393h.009a3 3 0 0 1 2.97 3.423l-.937 6.564a60.533 60.533 0 0 1 -57.092 51.4q-.066.006-.132.006zm51.715-55.266a52.478 52.478 0 0 0 -48.617 49.031 54.527 54.527 0 0 0 48.189-46.039z" fill="#222433"/><path d="m837.354 150.923a3.037 3.037 0 0 1 -.379-.024l-15.32-1.932a3 3 0 1 1 .75-5.953l15.32 1.932a3 3 0 0 1 -.371 5.977z" fill="#222433"/><path d="m766.874 150.012a3 3 0 0 1 -.185-5.994l16.342-1.018a3 3 0 1 1 .375 5.988l-16.342 1.022c-.064 0-.127.002-.19.002z" fill="#222433"/><path d="m412.3 494.453a3 3 0 0 1 -1.65-5.507l310.963-204.293a3 3 0 0 1 3.295 5.015l-310.961 204.292a2.983 2.983 0 0 1 -1.647.493z" fill="#222433"/><circle cx="412.299" cy="491.454" fill="#222433" r="13.077"/><path d="m487.233 470.771c18.191-14.039 26.331-29.772 61.6-21.563 15.872 3.734 39.178 11.785 42.258-3.46 2.09-10.472-24.779-21.009-44.318-29.455 30.555-.688 70.571-1.724 71.065-15.629s-28.736-15.746-68.305-14.545c43.215-8.939 67.173-7.8 66.083-21.066-1.872-21.961-90.93-14.026-120.614-1.259-17.835 7.681-39.039 17.434-49.726 22.529a50.115 50.115 0 0 0 -11.03 7.155c-18.1 15.329-24.564 42.183-11.662 62.226 18.616 28.465 52.561 24.431 64.649 15.067z" fill="#fff"/><path d="m463.04 480.745a53.611 53.611 0 0 1 -8.882-.74c-9.874-1.658-23.8-6.936-34.082-22.66-13.258-20.593-7.993-49.027 12.234-66.156a52.98 52.98 0 0 1 11.68-7.575c9.722-4.635 31.017-14.474 49.827-22.575 26.06-11.21 96.766-18.717 117.8-6.111 4.3 2.574 6.647 5.895 6.986 9.87.731 8.895-7.659 11.987-10.417 13-5.85 2.156-14.4 3.621-25.168 5.38 18.725.942 29.271 3.786 34.346 8.886a11.361 11.361 0 0 1 3.47 8.7c-.52 14.656-30.02 17.242-60.312 18.175 18.722 8.185 35.619 16.818 33.51 27.388a12.931 12.931 0 0 1 -5.8 8.792c-8.076 5.079-21.979 1.556-34.247-1.552-2.02-.511-3.98-1.009-5.84-1.446-27.4-6.374-37.31 2.3-49.857 13.289-2.886 2.527-5.869 5.141-9.224 7.73-5.34 4.142-14.899 7.605-26.024 7.605zm110.14-126.492c-27.241 0-61.02 5.428-76.991 12.3-18.731 8.066-39.936 17.864-49.62 22.481a47.114 47.114 0 0 0 -10.371 6.727c-17.948 15.2-22.711 40.268-11.089 58.321 9.08 13.89 21.351 18.549 30.043 20.009 12.929 2.17 24.741-1.426 30.244-5.689 3.207-2.476 6.12-5.027 8.937-7.494 13.291-11.64 24.772-21.7 55.177-14.617 1.9.446 3.893.951 5.947 1.472 10.549 2.674 23.682 6 29.578 2.29a6.975 6.975 0 0 0 3.114-4.9c1.451-7.253-23.149-17.788-37.849-24.08-1.606-.687-3.185-1.363-4.718-2.026a3 3 0 0 1 1.123-5.753c14.464-.325 32.464-.73 46.427-2.825 13.845-2.077 21.553-5.6 21.706-9.911a5.433 5.433 0 0 0 -1.727-4.257c-7.8-7.838-38.023-7.956-63.488-7.183a3 3 0 0 1 -.7-5.936c11.855-2.452 22.071-4.118 31.083-5.588 23.011-3.751 33.161-5.689 32.618-12.3-.167-1.964-1.506-3.675-4.091-5.225-6.863-4.109-20.083-5.816-35.353-5.816z" fill="#222433"/><path d="m1195.058 891.91a2.988 2.988 0 0 1 -1.074-.2c-29.624-11.369-64.541-13.471-104.973-15.9-58.664-3.531-125.155-7.532-197.143-41.337-76.261-35.814-117.361-85.421-125.649-151.659-7.2-57.545 11.443-120.228 27.891-175.533 19.56-65.766 36.452-122.564 11.388-159.859-16.06-23.9-48.779-37.968-100.026-43.02a3 3 0 0 1 .588-5.97c53.142 5.238 87.3 20.168 104.417 45.643 12.24 18.212 16.036 41.485 11.947 73.24-3.59 27.882-12.806 58.87-22.563 91.677-17.075 57.413-34.732 116.782-27.688 173.076 8.011 64.031 48 112.107 122.246 146.973 70.946 33.318 136.828 37.282 194.953 40.779 40.927 2.463 76.273 4.59 106.762 16.291a3 3 0 0 1 -1.076 5.8z" fill="#82b1ff"/><path d="m655.653 552.671 77.809-167.933-30.075-81.187-44.4 28.818-92.613 200.846a69.373 69.373 0 0 0 -6.433 29.238l.083 89.2-31.2 15.239a44.594 44.594 0 0 0 -20.441 59.466 44.6 44.6 0 0 0 59.464 20.442l56.448-27.569a44.468 44.468 0 0 0 24.128-31.69 8.824 8.824 0 0 0 .8-3.84v-101.855a69.386 69.386 0 0 1 6.43-29.175z" fill="#82b1ff"/><path d="m637.248 526.6a3 3 0 0 1 -2.634-1.565l-8.322-15.276-16.9 4.1a3 3 0 0 1 -3.343-1.48l-9.419-17.3a3 3 0 0 1 5.27-2.869l8.316 15.273 16.9-4.1a3 3 0 0 1 3.343 1.479l8.322 15.278 16.906-4.1a3 3 0 0 1 1.414 5.83l-19.145 4.643a3.012 3.012 0 0 1 -.708.087z" fill="#222433"/><path d="m619.607 631.355a2.987 2.987 0 0 1 -1.827-.622l-13.794-10.595-13.786 10.595a3 3 0 0 1 -3.656 0l-15.618-12a3 3 0 1 1 3.656-4.757l13.79 10.6 13.791-10.6a3 3 0 0 1 3.655 0l13.794 10.6 13.794-10.6a3 3 0 1 1 3.654 4.757l-15.621 12a2.985 2.985 0 0 1 -1.832.622z" fill="#222433"/><path d="m668.787 459.669a3 3 0 0 1 -2.625-1.547l-8.425-15.222-16.868 4.218a3 3 0 0 1 -3.353-1.457l-9.537-17.232a3 3 0 0 1 5.25-2.907l8.421 15.216 16.867-4.217a3 3 0 0 1 3.353 1.457l8.43 15.222 16.878-4.215a3 3 0 0 1 1.453 5.821l-19.114 4.773a2.97 2.97 0 0 1 -.73.09z" fill="#222433"/><path d="m809.928 585.425a3 3 0 0 1 -2.812-1.958l-108.626-293.053a3 3 0 0 1 5.625-2.086l108.626 293.053a3 3 0 0 1 -2.813 4.044z" fill="#222433"/><circle cx="809.928" cy="582.424" fill="#222433" r="13.077"/><path d="m892.35 454.683a54.615 54.615 0 0 1 29.211 83.4c-9.591 14.391-29.619 20.948-43.918 14.994-22.011-9.192-42.244-32.51-75.4-14.687-14.953 8.028-36.105 22.368-43.214 7.956-4.923-9.979 19.13-27.76 36.4-41.5-30.829 7.524-71.229 17.318-75.429 3.591s24.513-23.562 64.509-33.01c-45.706 2.656-69.452 10.367-71.944-3.309-4.086-22.542 89.2-33.511 122.45-28.67 25.4 3.708 40.507 6.69 46.227 7.885z" fill="#fff"/><path d="m889.283 558.309a33.222 33.222 0 0 1 -12.794-2.458 140.094 140.094 0 0 1 -15.936-8.377c-16.267-9.455-33.087-19.234-56.886-6.438-1.778.954-3.641 2-5.558 3.071-11.426 6.394-24.37 13.643-33.728 10.737a13.2 13.2 0 0 1 -8.04-7.167c-4.973-10.082 9.922-23.414 26.6-36.754-35.375 8.229-61.638 12.015-65.812-1.607a11.655 11.655 0 0 1 1.132-9.541c3.793-6.614 13.862-12.4 32.938-18.487-11.8 1.2-21.146 2.123-27.794 1.518-3-.276-12.148-1.113-13.795-10.15-.48-2.649-.2-6.686 3.862-10.891 17.421-18.036 93.453-25.44 121.973-21.285 24.605 3.591 39.637 6.5 46.407 7.917.085.017.17.039.253.064l11.112 3.351a57.614 57.614 0 0 1 30.812 87.983 42.852 42.852 0 0 1 -34.746 18.514zm-63.311-29.441c14.513 0 26.536 6.989 37.6 13.418a133.664 133.664 0 0 0 15.231 8.027c13.156 5.483 31.6-.882 40.266-13.89a51.614 51.614 0 0 0 -27.576-78.865l-10.993-3.315c-6.764-1.411-21.627-4.28-45.919-7.826-14.265-2.077-39.8-1.155-63.542 2.293-27.067 3.933-46.475 10.21-53.248 17.223-1.87 1.935-2.614 3.783-2.276 5.65 1.255 6.891 11.92 6.1 35.929 3.649 9.49-.968 20.246-2.066 32.89-2.8a3 3 0 0 1 .863 5.915c-25.7 6.071-55.947 14.332-61.728 24.414a5.718 5.718 0 0 0 -.6 4.8c3.395 11.068 47.934.212 71.858-5.621a3 3 0 0 1 2.573 5.26c-1.383 1.1-2.812 2.229-4.265 3.376-13 10.264-34.768 27.444-31.313 34.447a7.239 7.239 0 0 0 4.439 4.09c6.9 2.141 19.16-4.725 29.017-10.243 1.95-1.091 3.844-2.15 5.649-3.12 9.213-4.95 17.523-6.882 25.145-6.882z" fill="#222433"/><circle cx="1174.842" cy="927.362" fill="#82b1ff" r="70.914"/><path d="m1152.446 929.811a3 3 0 0 1 -.454-5.965c.491-.076 49.281-7.921 69.827-36.681a3 3 0 0 1 4.883 3.488c-11.57 16.2-31.062 25.975-45.376 31.327a158.2 158.2 0 0 1 -28.419 7.795 2.891 2.891 0 0 1 -.461.036z" fill="#222433"/><path d="m1159.15 953.987a3 3 0 0 1 -.454-5.964c.491-.077 49.281-7.921 69.827-36.682a3 3 0 0 1 4.883 3.488c-11.57 16.2-31.062 25.975-45.376 31.327a158.258 158.258 0 0 1 -28.419 7.8 2.889 2.889 0 0 1 -.461.031z" fill="#222433"/><path d="m1199.6 913.2a3 3 0 0 1 -2.746-1.789c-9.23-20.9-38.524-32.955-38.819-33.074a3 3 0 0 1 2.247-5.563 106.212 106.212 0 0 1 17.059 9.24c12.27 8.117 20.682 17.192 25 26.973a3 3 0 0 1 -2.743 4.213z" fill="#222433"/><path d="m1217.183 900.129a3 3 0 0 1 -2.818-1.974c-4.54-12.456-16.256-19.989-16.373-20.063a3 3 0 0 1 3.2-5.076c.551.346 13.552 8.656 18.811 23.085a3 3 0 0 1 -2.819 4.028z" fill="#222433"/><path d="m1179.376 922.5a3 3 0 0 1 -2.351-1.133c-20.569-25.878-48.813-29.447-49.1-29.48a3 3 0 0 1 .683-5.961c1.253.142 30.938 3.811 53.111 31.707a3 3 0 0 1 -2.346 4.867z" fill="#222433"/></svg></g></svg>