<svg xmlns="http://www.w3.org/2000/svg" viewBox="0 0 1280 720" width="1280" height="720"><g transform="translate(613.0 414.0) rotate(0.0 38.0 36.5) scale(0.5138329231684561 0.5133000977379638)"><svg width="147.908" height="142.217" viewBox="0 0 147.908 142.217"><path d="M29.921 139.974q-.627-.37-1.227-.8a15.6 15.6 0 0 1-6.265-15.292l4.617-27.033a9.759 9.759 0 0 0-2.746-8.563L4.734 69.149a15.642 15.642 0 0 1 8.613-26.674l27.1-3.946a9.761 9.761 0 0 0 7.3-5.27l12.1-24.544a15.6 15.6 0 0 1 28.026.055l12.139 24.614a9.484 9.484 0 0 0 7.222 5.263l27.093 3.953a15.622 15.622 0 0 1 12.818 10.689 15.329 15.329 0 0 1-3.991 15.88l-19.6 19.174a9.667 9.667 0 0 0-2.763 8.579l4.578 27a15.616 15.616 0 0 1-22.706 16.464l-24.282-12.762a9.71 9.71 0 0 0-8.982.028l-24.243 12.7a15.57 15.57 0 0 1-15.235-.378z" fill="#5a38fd"/></svg></g><g transform="translate(105.0 670.0) rotate(0.0 547.5 4.0) scale(0.6732661091982292 0.7017543859649122)"><svg width="1626.4" height="11.4" viewBox="0 0 1626.4 11.4"><path d="M1623.4 8.8H3c-1.7 0-3-1.3-3-3s1.3-3 3-3h1620.4c1.7 0 3 1.3 3 3s-1.3 3-3 3z" fill="#222433"/></svg></g><g transform="translate(674.0 220.0) rotate(335.44903094975047 30.0 208.0) scale(0.5552676390019989 0.5576033777896924)"><svg width="108.056" height="746.05" viewBox="0 0 108.056 746.05"><path d="M94.784 746.05a3 3 0 0 1-2.992-2.834L55.313 85.145a3 3 0 0 1 5.99-.332l36.479 658.071a3 3 0 0 1-2.829 3.161 3.086 3.086 0 0 1-.169.005z" fill="#222433"/><path d="M98.708 2.979a10.864 10.864 0 0 0-12.3 9.2 10.856 10.856 0 0 0-21.5-3l-7.9 54.6-14.6-53.2a10.868 10.868 0 0 0-21.2 4.8 2.92 2.92 0 0 1 .2.9 10.979 10.979 0 0 0-13.2-7.9 10.979 10.979 0 0 0-7.9 13.2c0 .1.1.2.1.3l1.9 7 12.8 47.2a43.587 43.587 0 0 0 35.5 31.8v.1a48.449 48.449 0 0 0 18.2-1.1v-.1a43.9 43.9 0 0 0 31.3-36l6.8-48.4 1-7.2a10.611 10.611 0 0 0-9.2-12.2z" fill="#82b1ff"/><g fill="#222433"><path d="M32.406 59.781a3 3 0 0 1-2.893-2.216l-11.2-41.3a3 3 0 0 1 5.791-1.57L35.3 56a3 3 0 0 1-2.111 3.68 2.97 2.97 0 0 1-.783.101zm48.206-3.001a3.041 3.041 0 0 1-.423-.03 3 3 0 0 1-2.551-3.39l6-42.4a3 3 0 0 1 5.941.84l-6 42.4a3 3 0 0 1-2.967 2.58zm-17.503 119.3a3 3 0 0 1-2.261-1.028l-41.1-47.1a3 3 0 1 1 4.522-3.946l41.1 47.1a3 3 0 0 1-2.26 4.973z"/><path d="M63.106 176.08a3 3 0 0 1-2.545-4.584l33-53.1a3 3 0 1 1 5.095 3.168l-33 53.1a3 3 0 0 1-2.55 1.416z"/></g></svg></g><g transform="translate(1103.0 440.0) rotate(10.661787111302166 38.0 121.5) scale(0.5281555557099871 0.5307704909080981)"><svg width="143.897" height="457.825" viewBox="0 0 143.897 457.825"><path d="M134.1 20.664a10.864 10.864 0 0 0-14.188 5.886 10.856 10.856 0 0 0-20.1-8.206L78.7 69.313l-1.04-55.157a10.868 10.868 0 0 0-21.729-.572 2.921 2.921 0 0 1-.028.922 10.878 10.878 0 1 0-21.755-.063c-.025.1.047.218.023.315l.116 7.252.774 48.9a43.586 43.586 0 0 0 26.569 39.567l-.024.1a48.432 48.432 0 0 0 17.909 3.419l.025-.1a43.9 43.9 0 0 0 39.206-27.177l18.517-45.231 2.744-6.732a10.612 10.612 0 0 0-5.91-14.091z" fill="#fff"/><path d="M79.517 116.992a51.145 51.145 0 0 1-19.017-3.631 3.012 3.012 0 0 1-.745-.43 46.609 46.609 0 0 1-27.692-41.979l-.888-56.017a3.283 3.283 0 0 1-.023-.667 13.82 13.82 0 0 1 24.489-8.636 14.091 14.091 0 0 1 1.679-1.887A13.648 13.648 0 0 1 67.18.007a13.841 13.841 0 0 1 9.743 4.385 13.658 13.658 0 0 1 3.74 9.779l.767 40.715L97.041 17.2a13.836 13.836 0 0 1 26.014 1.486 14.042 14.042 0 0 1 11.992-.869 3.02 3.02 0 0 1 .52.214A13.914 13.914 0 0 1 142.9 25.5a13.285 13.285 0 0 1-.149 10.469l-2.709 6.649-18.518 45.237a46.917 46.917 0 0 1-41.178 29.01 2.772 2.772 0 0 1-.829.127zM63.4 108.053a45.145 45.145 0 0 0 15.427 2.934 2.76 2.76 0 0 1 .616-.09 40.916 40.916 0 0 0 36.526-25.314l21.261-51.959a7.39 7.39 0 0 0 .112-5.864 7.773 7.773 0 0 0-4.361-4.311 7.888 7.888 0 0 0-10.288 4.223 3 3 0 0 1-5.584-2.194 7.9 7.9 0 0 0-4.5-10.2 7.807 7.807 0 0 0-10.036 4.238l-21.1 50.941A3 3 0 0 1 75.7 69.37l-1.04-55.157v-.153a7.693 7.693 0 0 0-2.106-5.56A7.89 7.89 0 0 0 67 6a7.74 7.74 0 0 0-5.566 2.11 7.886 7.886 0 0 0-2.5 5.419 5.4 5.4 0 0 1-.124 1.71 3 3 0 0 1-5.908-.725 7.877 7.877 0 0 0-15.752-.206 3.431 3.431 0 0 1 .022.54l.888 56.009a40.6 40.6 0 0 0 24.74 36.855 3.031 3.031 0 0 1 .6.341z" fill="#222433"/><path d="m55.908 13.681.678 42.786" fill="#fff"/><path d="M56.585 59.467a3 3 0 0 1-3-2.952l-.677-42.786a3 3 0 0 1 2.952-3.047 2.962 2.962 0 0 1 3.047 2.952l.677 42.785a3 3 0 0 1-2.952 3.048z" fill="#222433"/><path d="m120.302 25.824-16.263 39.613" fill="#fff"/><g fill="#222433"><path d="M104.037 68.438a3 3 0 0 1-2.774-4.141l16.264-39.613a3 3 0 1 1 5.55 2.279l-16.263 39.614a3 3 0 0 1-2.777 1.861zM3 457.826a2.968 2.968 0 0 1-.582-.058 3 3 0 0 1-2.365-3.522L71.794 89.6a3 3 0 0 1 5.887 1.158L5.944 455.4A3 3 0 0 1 3 457.826z"/></g></svg></g><g transform="translate(993.0 179.0) rotate(0.0 89.0 117.0) translate(0.0 0.0) scale(0.4877046373039249 0.4869927159209157)"><svg width="362.925" height="349.081" viewBox="0 0 362.925 349.081"><path d="M361.1 114.4a13.4 13.4 0 0 0-18.9 0 13.4 13.4 0 0 0 0-18.9 13.4 13.4 0 0 0-18.9 0 13.4 13.4 0 0 0 0-18.9 13.4 13.4 0 0 0-18.9 0 13.4 13.4 0 0 0 0-18.9 13.4 13.4 0 0 0-18.9 0 13.4 13.4 0 0 0 0-18.9 13.4 13.4 0 0 0-18.9 0l-6.3 6.3-21.6 21.6-11.6 11.6a66.753 66.753 0 0 0 0 94.3 66.753 66.753 0 0 0 94.3 0L333 161l21.6-21.6 6.3-6.3a12.984 12.984 0 0 0 .2-18.7z" fill="#5a38fd"/><path d="m343 113.7-37.1 37.1" fill="#fff"/><path d="M305.9 153.8a3 3 0 0 1-2.121-5.121l37.1-37.1a3 3 0 1 1 4.242 4.242l-37.1 37.1a2.991 2.991 0 0 1-2.121.879z" fill="#222433"/><path d="m324.1 94.8-37 37.1" fill="#fff"/><path d="M287.1 134.9a3 3 0 0 1-2.124-5.119l37-37.1a3 3 0 1 1 4.248 4.236l-37 37.1a2.989 2.989 0 0 1-2.124.883z" fill="#222433"/><path d="m305.3 76-37.1 37" fill="#fff"/><path d="M268.2 116a3 3 0 0 1-2.118-5.124l37.1-37a3 3 0 0 1 4.236 4.248l-37.1 37a2.99 2.99 0 0 1-2.118.876z" fill="#222433"/><path d="m286.4 57.1-37.1 37.1" fill="#fff"/><path d="M249.3 97.2a3 3 0 0 1-2.121-5.121l37.1-37.1a3 3 0 0 1 4.242 4.242l-37.1 37.1a2.989 2.989 0 0 1-2.121.879z" fill="#222433"/><path d="M60.2 107a10.02 10.02 0 0 0 0 14.3 10.02 10.02 0 0 0-14.3 0 10.02 10.02 0 0 0 0 14.3 10.02 10.02 0 0 0-14.3 0 10.02 10.02 0 0 0 0 14.3 10.02 10.02 0 0 0-14.3 0 10.02 10.02 0 0 0 0 14.3 10.02 10.02 0 0 0-14.3 0 10.02 10.02 0 0 0 0 14.3l4.8 4.8 16.4 16.4 8.8 8.8a50.7 50.7 0 0 0 71.7 0 50.7 50.7 0 0 0 0-71.7l-8.8-8.8-16.4-16.4-4.8-4.8a10.449 10.449 0 0 0-14.5.2z" fill="#5a38fd"/><path d="m59.7 120.7 28.1 28.2" fill="#fff"/><path d="M87.8 151.9a2.988 2.988 0 0 1-2.125-.883l-28.1-28.2a3 3 0 1 1 4.25-4.235l28.1 28.2A3 3 0 0 1 87.8 151.9z" fill="#222433"/><path d="m45.3 135.1 28.2 28.1" fill="#fff"/><path d="M73.5 166.2a2.986 2.986 0 0 1-2.117-.875l-28.2-28.1a3 3 0 1 1 4.234-4.25l28.2 28.1A3 3 0 0 1 73.5 166.2z" fill="#222433"/><path d="m31 149.4 28.2 28.1" fill="#fff"/><path d="M59.2 180.5a2.992 2.992 0 0 1-2.117-.875l-28.2-28.1a3 3 0 1 1 4.234-4.25l28.2 28.1A3 3 0 0 1 59.2 180.5z" fill="#222433"/><path d="m16.7 163.7 28.1 28.2" fill="#fff"/><path d="M44.8 194.9a2.988 2.988 0 0 1-2.125-.883l-28.1-28.2a3 3 0 1 1 4.25-4.235l28.1 28.2A3 3 0 0 1 44.8 194.9z" fill="#222433"/><path d="M186.4 0a11.822 11.822 0 0 0-11.8 11.8A11.822 11.822 0 0 0 162.8 0 11.822 11.822 0 0 0 151 11.8 11.822 11.822 0 0 0 139.2 0a11.822 11.822 0 0 0-11.8 11.8A11.822 11.822 0 0 0 115.6 0a11.822 11.822 0 0 0-11.8 11.8A11.822 11.822 0 0 0 92 0a11.822 11.822 0 0 0-11.8 11.8v49.5a59.087 59.087 0 0 0 59.1 59.1 59.087 59.087 0 0 0 59.1-59.1V11.8a12.06 12.06 0 0 0-12-11.8z" fill="#5a38fd"/><g fill="#222433"><path d="M174.6 60.3a3 3 0 0 1-3-3V10.9a3 3 0 0 1 6 0v46.4a3 3 0 0 1-3 3zm-23.6 0a3 3 0 0 1-3-3V10.9a3 3 0 0 1 6 0v46.4a3 3 0 0 1-3 3zm-23.6 0a3 3 0 0 1-3-3V10.9a3 3 0 0 1 6 0v46.4a3 3 0 0 1-3 3zm-23.7 0a3 3 0 0 1-3-3V10.9a3 3 0 0 1 6 0v46.4a3 3 0 0 1-3 3zm88.5 257.2a3 3 0 0 1-3-3v-68.4a86.933 86.933 0 0 0-25.621-61.879A92.894 92.894 0 0 1 136.2 118.1v-18a3 3 0 0 1 6 0v18a86.935 86.935 0 0 0 25.622 61.879A92.892 92.892 0 0 1 195.2 246.1v68.4a3 3 0 0 1-3 3z"/><path d="M192.2 308.5a3 3 0 0 1-3-3v-31.8a157.873 157.873 0 0 1 47.611-112.754l5.309-5.108a3 3 0 1 1 4.161 4.324l-5.3 5.1A151.832 151.832 0 0 0 195.2 273.7v31.8a3 3 0 0 1-3 3z"/><path d="M194.7 300.6a2.991 2.991 0 0 1-2.121-.879l-97.5-97.5a3 3 0 0 1 4.243-4.242l97.5 97.5a3 3 0 0 1-2.122 5.121z"/></g><path d="M194.5 341.9h-5.9a67.793 67.793 0 0 0-67.8 67.8 67.793 67.793 0 0 0 67.8 67.8h5.9a67.793 67.793 0 0 0 67.8-67.8 67.793 67.793 0 0 0-67.8-67.8z" fill="#fff"/><path d="M194.5 480.5h-5.9a70.8 70.8 0 1 1 0-141.6h5.9a70.8 70.8 0 0 1 0 141.6zm-5.9-135.6a64.8 64.8 0 1 0 0 129.6h5.9a64.8 64.8 0 0 0 0-129.6z" fill="#222433"/><path d="M191.5 341.9 149 287h85z" fill="#fff"/><path d="M191.5 344.9a3 3 0 0 1-2.372-1.164l-42.5-54.9A3 3 0 0 1 149 284h85a3 3 0 0 1 2.372 4.837l-42.5 54.9a3 3 0 0 1-2.372 1.163zM155.116 290l36.384 47 36.384-47z" fill="#222433"/></svg></g><g transform="translate(193.0 317.0) rotate(0.0 234.0 179.5) scale(0.5633802816901408 0.5641425347756944)"><svg width="830.7" height="636.364" viewBox="0 0 830.7 636.364"><path d="M693.123 239.135c6.969-2.514 13.67-4.887 19.277-6.8 29.2-10 115.2-15.9 115.3 5.2.1 12.8-28.6 8.2-69.8 16.7 37.3-1.9 68.9-3.3 68.1 9.8-.8 13.2-38.4 18.6-67.5 17 19.8 7 43.1 15.3 40.9 25.3-3.2 14.4-24.9 8.3-39.7 3.6-31.346-10-43.521 5-59.484 16.873" fill="#fff"/><path d="M700.218 329.81a3 3 0 0 1-1.792-5.408c2.077-1.544 4.135-3.179 6.124-4.76 13.444-10.682 27.344-21.729 56.062-12.562 8.1 2.571 24.958 7.924 32.345 3.671a7.2 7.2 0 0 0 3.514-5.065c1.642-7.462-23.781-16.45-38.971-21.82a3 3 0 0 1 1.165-5.824c32.514 1.787 63.79-5.106 64.341-14.186a3.5 3.5 0 0 0-1.082-2.889c-6.585-6.651-37.018-5.1-63.872-3.733a3 3 0 0 1-.759-5.935 376.187 376.187 0 0 1 39.957-5.634c18.065-1.812 27.49-3 27.45-8.1 0-.624-.012-2.494-2.916-4.559-16.126-11.465-82.1-6.836-108.413 2.173-5.22 1.78-11.688 4.061-19.229 6.782a3 3 0 1 1-2.037-5.644c7.574-2.733 14.077-5.026 19.327-6.815 25.062-8.583 95.025-14.755 113.828-1.386 4.474 3.181 5.428 6.874 5.44 9.411.07 8.94-8.883 11.385-23.205 13.088 9.018.839 15.283 2.689 18.693 6.135a9.531 9.531 0 0 1 2.812 7.47c-.835 13.769-28.444 19.131-53.156 19.97 15.949 6.264 28.587 13.265 26.49 22.792a13.159 13.159 0 0 1-6.378 8.969c-8.508 4.9-22.888 1.378-37.16-3.154-25.672-8.194-37.18.953-50.507 11.543-2.028 1.61-4.123 3.275-6.278 4.877a2.986 2.986 0 0 1-1.793.593z" fill="#222433"/><path d="m437.841 210.493 67.559 41.744 135.372-18.954 15.328-2.146a55.027 55.027 0 0 1 15.2 109l-75.044 10.48-429.929-47.629-8.127-17.651a55.088 55.088 0 0 1 27.6-73.3s176.8-68.513 202.8-35.513z" fill="#fff"/><path d="M596.256 353.617a3.041 3.041 0 0 1-.33-.018L166 305.969a3 3 0 0 1-2.394-1.726l-8.128-17.651a57.46 57.46 0 0 1-1.583-44.712 58.567 58.567 0 0 1 30.68-32.58 2.2 2.2 0 0 1 .141-.059c.444-.172 44.888-17.333 91.942-30.228 27.722-7.6 50.945-12.257 69.022-13.85 23.425-2.064 38.152.925 44.979 9.137l48.824 33.682 66.573 41.135 149.628-20.95a58.028 58.028 0 1 1 16.031 114.943l-75.044 10.479a3.025 3.025 0 0 1-.415.028zm-427.913-53.424 427.87 47.4 74.672-10.428a52.027 52.027 0 1 0-14.37-103.057l-150.7 21.1a2.991 2.991 0 0 1-1.993-.419l-67.559-41.744a2.74 2.74 0 0 1-.126-.083L386.9 178.993a2.994 2.994 0 0 1-.653-.613c-9.683-12.29-48.026-10.014-107.961 6.408-45.89 12.573-89.306 29.24-91.329 30.02A52.53 52.53 0 0 0 159.507 244a51.508 51.508 0 0 0 1.415 40.083z" fill="#222433"/><path d="M155.856 554.862c-20.24.836-41.8 17.638-52.256 28.175-8.485 8.554-31 36.9-31 36.9-10.9 14.5-34.4 13.6-69.6 13.3l63.6-157.9 69.5-42.4-45.7-17.5 19.3-48.6 59.3 23" fill="#fff"/><path d="M20.933 636.365c-4.229 0-8.674-.042-13.34-.086l-4.618-.042a3 3 0 0 1-2.758-4.121l63.6-157.9a3 3 0 0 1 1.221-1.44l64.288-39.22-40-15.317a3 3 0 0 1-1.715-3.909l19.3-48.6a3 3 0 0 1 3.873-1.69l59.3 23a3 3 0 1 1-2.17 5.594l-56.525-21.924-17.08 43.012 42.864 16.414a3 3 0 0 1 .49 5.362l-68.652 41.883L7.427 630.278h.223c31.939.3 53.047.5 62.552-12.144.972-1.226 22.764-28.638 31.268-37.211 4.632-4.669 29.018-28.017 54.262-29.06a3 3 0 0 1 .248 6c-17.84.737-38.219 15.162-50.25 27.291-8.273 8.339-30.557 36.371-30.78 36.653-9.72 12.927-27.636 14.558-54.017 14.558z" fill="#222433"/><path d="M294.134 500.1c-.11 1.581-24.21 71.25-25.76 71.25a2.14 2.14 0 0 1-.24-.009l-112.869-9.011a2.993 2.993 0 0 1-2.75-3.23l13.5-169.5a3 3 0 0 1 3.229-2.75l21.2 1.7c1.65.13 187.84 24.139 187.7 25.79 1.65.127-84.01 85.76-84.01 85.76z" fill="#82b1ff"/><path d="M531.6 126.524c7-19 1-32 0-34l-45-35-74.9 91.713-30.357 20.948a32.6 32.6 0 0 0-8.37 45.264 32.6 32.6 0 0 0 45.318 8.449l36.109-24.762a62.94 62.94 0 0 0 76.372-41.952l9.825-1.66z" fill="#fff"/><path d="M399.91 232.6a35.588 35.588 0 0 1-20.271-64.884l30.007-20.706 74.631-91.384a3 3 0 0 1 4.165-.471l45 35a3.024 3.024 0 0 1 .842 1.027c1.279 2.56 7.224 16.132.479 35.411l8.7 28.041a3 3 0 0 1-2.365 3.848l-8.04 1.358a65.947 65.947 0 0 1-78.088 42.543l-34.984 23.989a35.41 35.41 0 0 1-20.076 6.228zm87.161-170.91-73.047 89.445a3.024 3.024 0 0 1-.619.571l-30.358 20.948a29.6 29.6 0 0 0 33.548 48.77l36.111-24.762a3 3 0 0 1 2.481-.421 59.94 59.94 0 0 0 72.725-39.953 3 3 0 0 1 2.363-2.062l6.443-1.089-7.983-25.724a3 3 0 0 1 .05-1.927c6-16.278 1.895-27.748.412-31.031z" fill="#222433"/><path d="M453.878 554.387c4.086 17.53 13.294 32.6 24.322 37.75 32-5.5 63.232 15 61.932 39.9l-148.532 1.3-66-67.8-15 38.3-48.6-19.8 33.685-84.78" fill="#fff"/><path d="M391.6 636.337a3 3 0 0 1-2.149-.907L326.7 570.965l-13.3 33.966a3 3 0 0 1-3.925 1.685l-48.6-19.8a3 3 0 0 1-1.657-3.886l33.682-84.781a3 3 0 1 1 5.576 2.215l-32.587 82.017 43.029 17.531 13.892-35.469a3 3 0 0 1 4.942-1l65.107 66.881 144.27-1.263c-.454-7.778-4.455-15.35-11.468-21.581-11.9-10.574-29.9-15.319-46.951-12.388a3 3 0 0 1-1.776-.238c-11.559-5.394-21.512-20.64-25.975-39.788a3 3 0 0 1 5.844-1.362c3.884 16.661 12.4 30.377 21.864 35.315 18.529-2.889 37.975 2.423 50.979 13.975 9.249 8.217 14.038 18.587 13.484 29.2a3 3 0 0 1-2.969 2.843l-148.532 1.3z" fill="#222433"/><path d="M577.384 428.987 458.284 555.7a2.994 2.994 0 0 1-3.2.759l-159.4-57.2c-.971-.35 7.046-6.08 6.826-7.09s6.057-6.349 6.807-7.069l65.367-67.881-129.284-2.083a86.211 86.211 0 0 1-68.7-138.28 3.151 3.151 0 0 1 2.429-1.179l335.511 5.06a88.029 88.029 0 0 1 62.739 148.25z" fill="#82b1ff"/><path d="M295.685 502.257a3 3 0 0 1-2.161-5.081l74.215-77.071-122.382-1.969a88.81 88.81 0 0 1-69.629-33.559 3 3 0 1 1 4.685-3.748 82.865 82.865 0 0 0 64.992 31.307l129.328 2.081a3 3 0 0 1 2.113 5.08l-79 82.04a2.991 2.991 0 0 1-2.161.92zm47.607-220.582h-164.2a3 3 0 0 1-2.546-4.587l39.646-63.576a3 3 0 0 1 5.092 3.175L184.5 275.675h158.792a3 3 0 0 1 0 6z" fill="#222433"/><path d="M374.685 420.216a3 3 0 0 1-2.1-5.138l21.986-21.624a3 3 0 0 1 4.207 4.278l-21.986 21.623a2.986 2.986 0 0 1-2.107.861z" fill="#222433"/><path d="m505.3 252.237 20.4 12.5" fill="#fff"/><g fill="#222433"><path d="M525.7 267.738a2.986 2.986 0 0 1-1.565-.443l-20.4-12.5a3 3 0 0 1 3.135-5.116l20.4 12.5a3 3 0 0 1-1.57 5.559zm-71.3 291.9a3 3 0 0 1-2.049-5.191c4.9-4.581 48.485-44.655 70.394-41.471a13.223 13.223 0 0 1 9.845 6.545 11.287 11.287 0 0 1 .636 11.03c-8.854 18.479-71.3 28.028-78.4 29.055a3 3 0 0 1-.426.032zm65.608-40.854c-14.173 0-40.485 19.959-55.9 33.208 22.065-4.023 58.326-12.8 63.708-24.033a5.278 5.278 0 0 0-.4-5.4 7.145 7.145 0 0 0-5.535-3.649 13.167 13.167 0 0 0-1.874-.126z"/><path d="M521.57 577.144c-23.894 0-62.96-15.554-68.3-17.728a3 3 0 0 1 .47-5.705c6.536-1.477 64.365-14.032 81.677-.194a13.22 13.22 0 0 1 5.184 10.62 11.3 11.3 0 0 1-5.031 9.857c-3.314 2.237-8.212 3.15-14 3.15zm-56.457-19.607c21.059 7.69 56.771 18.459 67.1 11.485a5.289 5.289 0 0 0 2.39-4.873 7.138 7.138 0 0 0-2.93-5.945c-10.748-8.588-45.654-4.473-66.56-.667zM347.5 284.216a2.985 2.985 0 0 1-1.8-.6l-26.1-19.579a3 3 0 1 1 3.6-4.8l26.105 19.579a3 3 0 0 1-1.8 5.4zm140.3-148.579a2.994 2.994 0 0 1-1.074-.2l-13.3-5.1a3 3 0 0 1 2.149-5.6l7.777 2.982-3.647-13.393a3 3 0 0 1 5.79-1.576l5.2 19.1a3 3 0 0 1-2.895 3.788zm28.8 48.887a2.983 2.983 0 0 1-.732-.091c-11.367-2.853-11.948-11.961-11.966-12.347a3 3 0 0 1 5.99-.337c.048.556.646 5.16 7.436 6.865a3 3 0 0 1-.728 5.91z"/><circle cx="520.6" cy="127.537" r="4.5"/><path d="M454.4 202.038a2.984 2.984 0 0 1-.874-.131c-12.56-3.822-23.376-10.274-30.459-18.166a3 3 0 1 1 4.465-4.007c6.362 7.089 16.213 12.925 27.74 16.433a3 3 0 0 1-.872 5.871z"/></g><path d="M531.6 126.524c2.8 9.251 5.95 20.253 8.753 29.5l-16.653 3.413" fill="#fff"/><path d="M523.7 162.438a3 3 0 0 1-.6-5.94l13.436-2.75a2320.52 2320.52 0 0 1-3.449-11.67c-1.481-5.04-2.961-10.08-4.356-14.685a3 3 0 0 1 5.742-1.739c1.4 4.62 2.885 9.676 4.371 14.733s2.979 10.14 4.382 14.771a3 3 0 0 1-2.27 3.809l-16.656 3.409a2.978 2.978 0 0 1-.6.062z" fill="#222433"/><path d="m509.015 125.952.001-.006-.002.006z" fill="#5a38fd"/><path d="M511.6 52.524a70.34 70.34 0 0 0-43-10 76.9 76.9 0 0 0-28.769 8.116 1.966 1.966 0 0 1-2.82-1.32 48.315 48.315 0 0 0-47.06-37.415c-6.4 0-49.753 57.223-47.56 59.11.276.237.577.433.664.786a48.336 48.336 0 0 0 60.5 34.775 1.984 1.984 0 0 1 2.547 2.059c-2.229 27.33 3.885 38.431 5.236 40.515a1.971 1.971 0 0 0 .608.6c19.126 12.062 42.067-7.148 47.47-12.1a1.948 1.948 0 0 0 .429-2.333c-2.463-4.683-3.249-13.731-3.249-18.786 0-13.752 15.248-23 29-23s26 15.248 26 29v.056a1.942 1.942 0 0 0 3.069 1.5c5.3-3.713 23.544-24.39 23.261-27.409-1.444-15.446-5.78-31.827-26.326-44.154z" fill="#5a38fd"/><path d="M460.722 138.508a3 3 0 0 1-2.552-1.418 30.5 30.5 0 1 1 56.43-16.066 31.05 31.05 0 0 1-.233 3.794 3 3 0 1 1-5.955-.736 25.016 25.016 0 0 0 .188-3.058 24.5 24.5 0 1 0-45.332 12.9 3 3 0 0 1-2.546 4.583z" fill="#222433"/><circle cx="382.1" cy="67.024" fill="#5a38fd" r="61.5"/><path d="M404.6 127.524a3 3 0 0 1-1.786-5.413c.407-.3 40.6-30.493 37.322-67.793a3 3 0 1 1 5.977-.526c3.579 40.678-37.964 71.839-39.735 73.145a2.981 2.981 0 0 1-1.778.587z" fill="#222433"/><path d="M443.492 55.165a3 3 0 0 1-2.724-1.742c-1.59-3.443-15.315-34.019-7.754-47.253a12.153 12.153 0 0 1 9.8-6.09c5.446-.545 8.449 1.826 10.007 3.913 8.539 11.434-4.985 45.464-6.555 49.307a3 3 0 0 1-2.71 1.865zM444.366 6c-.293 0-.61.016-.95.05a6.158 6.158 0 0 0-5.192 3.1c-4.085 7.147.92 24.023 5.119 34.907C448 30.7 452.155 13.123 448.015 7.582A4.084 4.084 0 0 0 444.366 6z" fill="#222433"/><path d="M443.493 55.165a3 3 0 0 1-2.815-4.04c1.317-3.56 13.291-34.9 28-38.892a12.131 12.131 0 0 1 11.212 2.625c4.225 3.459 4.666 7.251 4.293 9.824-2.049 14.12-35.7 28.64-39.526 30.249a2.988 2.988 0 0 1-1.164.234zM471.879 17.8a6.213 6.213 0 0 0-1.631.228c-7.952 2.16-16.368 17.625-21.112 28.293 12.748-6.16 28.114-15.654 29.107-22.5.141-.98.073-2.494-2.157-4.319a6.555 6.555 0 0 0-4.207-1.702z" fill="#222433"/></svg></g><g transform="translate(694.0 312.0) rotate(0.0 211.0 181.5) scale(0.5222772277227723 0.5238095238095238)"><svg width="808" height="693" viewBox="0 0 808 693"><path d="M805 3 6 6 3 690l801-2z" fill="#fff"/><g fill="#222433"><path d="M3 693a3 3 0 0 1-3-3.013l3-684A3 3 0 0 1 5.989 3l799-3A3 3 0 0 1 808 3l-1 685a3 3 0 0 1-2.993 3l-801 2zM8.987 8.989l-2.974 678L801 685.007l.992-679z"/><path d="M775.734 71.347 6 71a3 3 0 0 1 0-6l769.734.347a3 3 0 0 1 0 6zm-61.9-16.3h-29.6a3 3 0 0 1-3-3v-29.6a3 3 0 0 1 3-3h29.6a3 3 0 0 1 3 3v29.6a3 3 0 0 1-3 3zm-26.6-6h23.6v-23.6h-23.6zm-12.9 6h-29.6a3 3 0 0 1 0-6h29.6a3 3 0 0 1 0 6zm49.4 0a3 3 0 0 1-2.122-5.122l29.6-29.6a3 3 0 0 1 4.243 4.243l-29.6 29.6a2.991 2.991 0 0 1-2.121.879z"/><path d="M753.334 55.047a2.992 2.992 0 0 1-2.122-.879l-29.6-29.6a3 3 0 0 1 4.243-4.243l29.6 29.6a3 3 0 0 1-2.121 5.122zm51.6 634.6h-29.2c-1.656 0-1.656-686.5 0-686.5h29.2a3 3 0 0 1 3 3v680.5a3 3 0 0 1-3 3z"/></g></svg></g><g transform="translate(535.0 526.0) rotate(40.2197628045433 31.0 29.5) scale(0.4191794899532142 0.4148589831032858)"><svg width="147.908" height="142.217" viewBox="0 0 147.908 142.217"><path d="M29.921 139.974q-.627-.37-1.227-.8a15.6 15.6 0 0 1-6.265-15.292l4.617-27.033a9.759 9.759 0 0 0-2.746-8.563L4.734 69.149a15.642 15.642 0 0 1 8.613-26.674l27.1-3.946a9.761 9.761 0 0 0 7.3-5.27l12.1-24.544a15.6 15.6 0 0 1 28.026.055l12.139 24.614a9.484 9.484 0 0 0 7.222 5.263l27.093 3.953a15.622 15.622 0 0 1 12.818 10.689 15.329 15.329 0 0 1-3.991 15.88l-19.6 19.174a9.667 9.667 0 0 0-2.763 8.579l4.578 27a15.616 15.616 0 0 1-22.706 16.464l-24.282-12.762a9.71 9.71 0 0 0-8.982.028l-24.243 12.7a15.57 15.57 0 0 1-15.235-.378z" fill="#5a38fd"/></svg></g><g transform="translate(563.0 516.0) rotate(293.7283220713665 34.0 32.5) scale(0.4597452470454607 0.4570480322324335)"><svg width="147.908" height="142.217" viewBox="0 0 147.908 142.217"><path d="M29.921 139.974q-.627-.37-1.227-.8a15.6 15.6 0 0 1-6.265-15.292l4.617-27.033a9.759 9.759 0 0 0-2.746-8.563L4.734 69.149a15.642 15.642 0 0 1 8.613-26.674l27.1-3.946a9.761 9.761 0 0 0 7.3-5.27l12.1-24.544a15.6 15.6 0 0 1 28.026.055l12.139 24.614a9.484 9.484 0 0 0 7.222 5.263l27.093 3.953a15.622 15.622 0 0 1 12.818 10.689 15.329 15.329 0 0 1-3.991 15.88l-19.6 19.174a9.667 9.667 0 0 0-2.763 8.579l4.578 27a15.616 15.616 0 0 1-22.706 16.464l-24.282-12.762a9.71 9.71 0 0 0-8.982.028l-24.243 12.7a15.57 15.57 0 0 1-15.235-.378z" fill="#82B1FF"/></svg></g><g transform="translate(490.0 464.0) rotate(0.0 95.5 105.5) scale(0.5138552596179715 0.5141325536062379)"><svg width="371.7" height="410.4" viewBox="0 0 371.7 410.4"><path d="M185.6 363.7h-4.3c-70.5 0-127.9-57.4-127.9-127.9V130c0-71.7 58.3-130 130-130s130 58.3 130 130v105.8c.1 70.6-57.3 127.9-127.8 127.9zM183.5 6c-68.4 0-124 55.6-124 124v105.8c0 67.2 54.7 121.9 121.9 121.9h4.3c67.2 0 121.9-54.7 121.9-121.9V130C307.5 61.6 251.8 6 183.5 6z" fill="#222433"/><path d="M222.3 407.4h-72.6c-70.1 0-126.8-56.8-126.8-126.8V219h326.3v61.5c-.1 70.1-56.9 126.9-126.9 126.9z" fill="#fff"/><path d="M222.3 410.4h-72.6c-71.6 0-129.8-58.2-129.8-129.8V216h332.3v64.5c-.1 71.6-58.4 129.9-129.9 129.9zM25.8 222v58.5c0 68.3 55.6 123.8 123.8 123.8h72.6c68.3 0 123.8-55.6 123.8-123.8V222z" fill="#222433"/><path d="M355.6 234H16.1C8.9 234 3 228.2 3 220.9v-27.1c0-7.2 5.9-13.1 13.1-13.1h339.5c7.2 0 13.1 5.9 13.1 13.1v27.1c0 7.3-5.9 13.1-13.1 13.1z" fill="#fff"/><path d="M355.6 237H16.1C7.2 237 0 229.8 0 220.9v-27.1c0-8.9 7.2-16.1 16.1-16.1h339.5c8.9 0 16.1 7.2 16.1 16.1v27.1c0 8.9-7.2 16.1-16.1 16.1zM16.1 183.7c-5.6 0-10.1 4.5-10.1 10.1v27.1c0 5.6 4.5 10.1 10.1 10.1h339.5c5.6 0 10.1-4.5 10.1-10.1v-27.1c0-5.6-4.5-10.1-10.1-10.1z" fill="#222433"/></svg></g><g transform="translate(786.0 474.0) rotate(0.0 35.0 34.0) scale(0.4548171635002729 0.45878677884453195)"><svg width="153.908" height="148.217" viewBox="0 0 153.908 148.217"><path d="M32.921 142.974q-.627-.37-1.227-.8a15.6 15.6 0 0 1-6.265-15.292l4.617-27.033a9.759 9.759 0 0 0-2.746-8.563L7.734 72.149a15.642 15.642 0 0 1 8.613-26.674l27.1-3.946a9.761 9.761 0 0 0 7.3-5.27l12.1-24.544a15.6 15.6 0 0 1 28.026.055l12.139 24.614a9.484 9.484 0 0 0 7.222 5.263l27.093 3.953a15.622 15.622 0 0 1 12.818 10.689 15.329 15.329 0 0 1-3.991 15.88l-19.6 19.174a9.667 9.667 0 0 0-2.763 8.579l4.578 27a15.616 15.616 0 0 1-22.706 16.464l-24.282-12.762a9.71 9.71 0 0 0-8.982.028l-24.243 12.7a15.57 15.57 0 0 1-15.235-.378z" fill="#fff"/><path d="M113 148.221a18.667 18.667 0 0 1-8.748-2.191l-24.266-12.75a6.719 6.719 0 0 0-6.215.04l-24.223 12.688a18.532 18.532 0 0 1-18.155-.452 19.055 19.055 0 0 1-1.456-.955 18.585 18.585 0 0 1-7.467-18.216l4.618-27.046a6.747 6.747 0 0 0-1.9-5.92L5.636 74.293A18.642 18.642 0 0 1 15.9 42.508l27.12-3.948a6.749 6.749 0 0 0 5.044-3.642l12.09-24.529A18.511 18.511 0 0 1 76.868 0h.042a18.47 18.47 0 0 1 16.659 10.456l12.132 24.6a6.5 6.5 0 0 0 4.941 3.617l27.118 3.953A18.589 18.589 0 0 1 153 55.359a18.312 18.312 0 0 1-4.763 18.968l-19.59 19.157a6.686 6.686 0 0 0-1.9 5.939l4.577 26.99A18.656 18.656 0 0 1 113 148.221zm-36.031-21.682a12.393 12.393 0 0 1 5.816 1.435l24.269 12.749a12.617 12.617 0 0 0 18.354-13.3l-4.579-27a12.677 12.677 0 0 1 3.636-11.238l19.592-19.161a12.363 12.363 0 0 0 3.234-12.811 12.638 12.638 0 0 0-10.378-8.643L109.8 44.615a12.473 12.473 0 0 1-9.485-6.913L88.182 13.1A12.515 12.515 0 0 0 76.9 6h-.029a12.548 12.548 0 0 0-11.33 7.041l-12.1 24.544a12.764 12.764 0 0 1-9.548 6.915l-27.114 3.943a12.642 12.642 0 0 0-6.945 21.563L29.4 89.141a12.767 12.767 0 0 1 3.6 11.203l-4.618 27.038a12.614 12.614 0 0 0 5.067 12.357c.324.235.66.455.995.653a12.565 12.565 0 0 0 12.315.3l24.243-12.7a13.053 13.053 0 0 1 5.967-1.453z" fill="#222433"/></svg></g><g transform="translate(862.0 474.0) rotate(0.0 34.5 33.5) scale(0.448319775450269 0.45203991444975944)"><svg width="153.908" height="148.217" viewBox="0 0 153.908 148.217"><path d="M32.921 142.974q-.627-.37-1.227-.8a15.6 15.6 0 0 1-6.265-15.292l4.617-27.033a9.759 9.759 0 0 0-2.746-8.563L7.734 72.149a15.642 15.642 0 0 1 8.613-26.674l27.1-3.946a9.761 9.761 0 0 0 7.3-5.27l12.1-24.544a15.6 15.6 0 0 1 28.026.055l12.139 24.614a9.484 9.484 0 0 0 7.222 5.263l27.093 3.953a15.622 15.622 0 0 1 12.818 10.689 15.329 15.329 0 0 1-3.991 15.88l-19.6 19.174a9.667 9.667 0 0 0-2.763 8.579l4.578 27a15.616 15.616 0 0 1-22.706 16.464l-24.282-12.762a9.71 9.71 0 0 0-8.982.028l-24.243 12.7a15.57 15.57 0 0 1-15.235-.378z" fill="#fff"/><path d="M113 148.221a18.667 18.667 0 0 1-8.748-2.191l-24.266-12.75a6.719 6.719 0 0 0-6.215.04l-24.223 12.688a18.532 18.532 0 0 1-18.155-.452 19.055 19.055 0 0 1-1.456-.955 18.585 18.585 0 0 1-7.467-18.216l4.618-27.046a6.747 6.747 0 0 0-1.9-5.92L5.636 74.293A18.642 18.642 0 0 1 15.9 42.508l27.12-3.948a6.749 6.749 0 0 0 5.044-3.642l12.09-24.529A18.511 18.511 0 0 1 76.868 0h.042a18.47 18.47 0 0 1 16.659 10.456l12.132 24.6a6.5 6.5 0 0 0 4.941 3.617l27.118 3.953A18.589 18.589 0 0 1 153 55.359a18.312 18.312 0 0 1-4.763 18.968l-19.59 19.157a6.686 6.686 0 0 0-1.9 5.939l4.577 26.99A18.656 18.656 0 0 1 113 148.221zm-36.031-21.682a12.393 12.393 0 0 1 5.816 1.435l24.269 12.749a12.617 12.617 0 0 0 18.354-13.3l-4.579-27a12.677 12.677 0 0 1 3.636-11.238l19.592-19.161a12.363 12.363 0 0 0 3.234-12.811 12.638 12.638 0 0 0-10.378-8.643L109.8 44.615a12.473 12.473 0 0 1-9.485-6.913L88.182 13.1A12.515 12.515 0 0 0 76.9 6h-.029a12.548 12.548 0 0 0-11.33 7.041l-12.1 24.544a12.764 12.764 0 0 1-9.548 6.915l-27.114 3.943a12.642 12.642 0 0 0-6.945 21.563L29.4 89.141a12.767 12.767 0 0 1 3.6 11.203l-4.618 27.038a12.614 12.614 0 0 0 5.067 12.357c.324.235.66.455.995.653a12.565 12.565 0 0 0 12.315.3l24.243-12.7a13.053 13.053 0 0 1 5.967-1.453z" fill="#222433"/></svg></g><g transform="translate(937.0 474.0) rotate(0.0 34.5 33.5) scale(0.448319775450269 0.45203991444975944)"><svg width="153.908" height="148.217" viewBox="0 0 153.908 148.217"><path d="M32.921 142.974q-.627-.37-1.227-.8a15.6 15.6 0 0 1-6.265-15.292l4.617-27.033a9.759 9.759 0 0 0-2.746-8.563L7.734 72.149a15.642 15.642 0 0 1 8.613-26.674l27.1-3.946a9.761 9.761 0 0 0 7.3-5.27l12.1-24.544a15.6 15.6 0 0 1 28.026.055l12.139 24.614a9.484 9.484 0 0 0 7.222 5.263l27.093 3.953a15.622 15.622 0 0 1 12.818 10.689 15.329 15.329 0 0 1-3.991 15.88l-19.6 19.174a9.667 9.667 0 0 0-2.763 8.579l4.578 27a15.616 15.616 0 0 1-22.706 16.464l-24.282-12.762a9.71 9.71 0 0 0-8.982.028l-24.243 12.7a15.57 15.57 0 0 1-15.235-.378z" fill="#fff"/><path d="M113 148.221a18.667 18.667 0 0 1-8.748-2.191l-24.266-12.75a6.719 6.719 0 0 0-6.215.04l-24.223 12.688a18.532 18.532 0 0 1-18.155-.452 19.055 19.055 0 0 1-1.456-.955 18.585 18.585 0 0 1-7.467-18.216l4.618-27.046a6.747 6.747 0 0 0-1.9-5.92L5.636 74.293A18.642 18.642 0 0 1 15.9 42.508l27.12-3.948a6.749 6.749 0 0 0 5.044-3.642l12.09-24.529A18.511 18.511 0 0 1 76.868 0h.042a18.47 18.47 0 0 1 16.659 10.456l12.132 24.6a6.5 6.5 0 0 0 4.941 3.617l27.118 3.953A18.589 18.589 0 0 1 153 55.359a18.312 18.312 0 0 1-4.763 18.968l-19.59 19.157a6.686 6.686 0 0 0-1.9 5.939l4.577 26.99A18.656 18.656 0 0 1 113 148.221zm-36.031-21.682a12.393 12.393 0 0 1 5.816 1.435l24.269 12.749a12.617 12.617 0 0 0 18.354-13.3l-4.579-27a12.677 12.677 0 0 1 3.636-11.238l19.592-19.161a12.363 12.363 0 0 0 3.234-12.811 12.638 12.638 0 0 0-10.378-8.643L109.8 44.615a12.473 12.473 0 0 1-9.485-6.913L88.182 13.1A12.515 12.515 0 0 0 76.9 6h-.029a12.548 12.548 0 0 0-11.33 7.041l-12.1 24.544a12.764 12.764 0 0 1-9.548 6.915l-27.114 3.943a12.642 12.642 0 0 0-6.945 21.563L29.4 89.141a12.767 12.767 0 0 1 3.6 11.203l-4.618 27.038a12.614 12.614 0 0 0 5.067 12.357c.324.235.66.455.995.653a12.565 12.565 0 0 0 12.315.3l24.243-12.7a13.053 13.053 0 0 1 5.967-1.453z" fill="#222433"/></svg></g><g transform="translate(713.0 476.0) rotate(0.0 32.5 31.5) scale(0.43946236849933745 0.44298501585605093)"><svg width="147.908" height="142.217" viewBox="0 0 147.908 142.217"><path d="M29.921 139.974q-.627-.37-1.227-.8a15.6 15.6 0 0 1-6.265-15.292l4.617-27.033a9.759 9.759 0 0 0-2.746-8.563L4.734 69.149a15.642 15.642 0 0 1 8.613-26.674l27.1-3.946a9.761 9.761 0 0 0 7.3-5.27l12.1-24.544a15.6 15.6 0 0 1 28.026.055l12.139 24.614a9.484 9.484 0 0 0 7.222 5.263l27.093 3.953a15.622 15.622 0 0 1 12.818 10.689 15.329 15.329 0 0 1-3.991 15.88l-19.6 19.174a9.667 9.667 0 0 0-2.763 8.579l4.578 27a15.616 15.616 0 0 1-22.706 16.464l-24.282-12.762a9.71 9.71 0 0 0-8.982.028l-24.243 12.7a15.57 15.57 0 0 1-15.235-.378z" fill="#5a38fd"/></svg></g><g transform="translate(975.0 611.0) rotate(332.30261051006624 -20.0 33.0) scale(-0.49750624992226467 0.503041112178168)"><svg width="80.401" height="131.202" viewBox="0 0 80.401 131.202"><g><path d="m16.8 60.102-.6-9.1a34.42 34.42 0 0 0-9.2-21.3l-4-4.3 74.4-4.9-3.4 4.8a34.363 34.363 0 0 0-6.3 22.4l.6 9.1a25.75 25.75 0 0 1-23.99 27.4h-.01a25.794 25.794 0 0 1-27.492-23.976z" fill="#fff"/><g fill="#222433"><path d="M42.5 87.264A28.8 28.8 0 0 1 13.815 60.43l-.009-.131-.6-9.1a31.5 31.5 0 0 0-8.4-19.448l-4-4.306a3 3 0 0 1 2-5.037l74.4-4.9a3 3 0 0 1 2.646 4.728l-3.4 4.8a31.441 31.441 0 0 0-5.756 20.452l.6 9.117a28.751 28.751 0 0 1-26.76 30.587h-.032q-1.004.072-2.004.072zM19.793 59.902v.064a22.793 22.793 0 0 0 24.279 21.245h.04a22.751 22.751 0 0 0 21.195-24.209l-.6-9.1a37.431 37.431 0 0 1 6.605-23.989L9.494 27.981a37.513 37.513 0 0 1 9.7 22.829z"/><path d="M47.1 131.202a3 3 0 0 1-2.991-2.8l-4.9-73.3a3 3 0 1 1 5.986-.4l4.9 73.3a3 3 0 0 1-2.793 3.193c-.071.007-.138.007-.202.007zm-6.9-105.69a2.987 2.987 0 0 1-2.008-.773l-15.2-13.71a3 3 0 1 1 4.018-4.455l15.2 13.71a3 3 0 0 1-2.01 5.228z"/><path d="M40.2 25.512a3 3 0 0 1-2.992-2.785l-1.4-19.51a3 3 0 1 1 5.984-.43l.87 12.118 8.238-9.83a3 3 0 0 1 4.6 3.854l-13 15.51a3 3 0 0 1-2.3 1.073z"/></g></g></svg></g><g transform="translate(125.0 507.0) rotate(0.0 42.0 83.5) scale(0.5497382198952879 0.5480800787659994)"><svg width="152.8" height="304.7" viewBox="0 0 152.8 304.7"><path d="M76.4 304.7a3 3 0 0 1-3-3V58.9a3 3 0 0 1 6 0v242.8a3 3 0 0 1-3 3z" fill="#222433"/><path d="M123.7 58.3H29.1a29.15 29.15 0 0 1 0-58.3h94.6a29.15 29.15 0 0 1 0 58.3zM29.1 23.4a5.8 5.8 0 0 0 0 11.6h94.6a5.8 5.8 0 0 0 0-11.6z" fill="#5a38fd"/><g fill="#222433"><path d="M117.8 139.5c-11.347 0-39.8-17.926-43.012-19.97a3 3 0 0 1 0-5.06C78 112.426 106.453 94.5 117.8 94.5a22.5 22.5 0 1 1 0 45zM82.09 117c10.213 6.2 28.663 16.5 35.71 16.5a16.5 16.5 0 1 0 0-33c-7.051 0-25.5 10.3-35.71 16.5z"/><path d="M35.1 139.5a22.5 22.5 0 0 1 0-45c11.347 0 39.8 17.926 43.012 19.97a3 3 0 0 1 0 5.06C74.9 121.574 46.447 139.5 35.1 139.5zm0-39a16.5 16.5 0 1 0 0 33c7.051 0 25.5-10.3 35.71-16.5-10.21-6.2-28.663-16.5-35.71-16.5z"/></g></svg></g><g transform="translate(1013.0 473.0) rotate(0.0 35.0 33.5) scale(0.4548171635002729 0.45203991444975944)"><svg width="153.908" height="148.217" viewBox="0 0 153.908 148.217"><path d="M32.921 142.974q-.627-.37-1.227-.8a15.6 15.6 0 0 1-6.265-15.292l4.617-27.033a9.759 9.759 0 0 0-2.746-8.563L7.734 72.149a15.642 15.642 0 0 1 8.613-26.674l27.1-3.946a9.761 9.761 0 0 0 7.3-5.27l12.1-24.544a15.6 15.6 0 0 1 28.026.055l12.139 24.614a9.484 9.484 0 0 0 7.222 5.263l27.093 3.953a15.622 15.622 0 0 1 12.818 10.689 15.329 15.329 0 0 1-3.991 15.88l-19.6 19.174a9.667 9.667 0 0 0-2.763 8.579l4.578 27a15.616 15.616 0 0 1-22.706 16.464l-24.282-12.762a9.71 9.71 0 0 0-8.982.028l-24.243 12.7a15.57 15.57 0 0 1-15.235-.378z" fill="#fff"/><path d="M113 148.221a18.667 18.667 0 0 1-8.748-2.191l-24.266-12.75a6.719 6.719 0 0 0-6.215.04l-24.223 12.688a18.532 18.532 0 0 1-18.155-.452 19.055 19.055 0 0 1-1.456-.955 18.585 18.585 0 0 1-7.467-18.216l4.618-27.046a6.747 6.747 0 0 0-1.9-5.92L5.636 74.293A18.642 18.642 0 0 1 15.9 42.508l27.12-3.948a6.749 6.749 0 0 0 5.044-3.642l12.09-24.529A18.511 18.511 0 0 1 76.868 0h.042a18.47 18.47 0 0 1 16.659 10.456l12.132 24.6a6.5 6.5 0 0 0 4.941 3.617l27.118 3.953A18.589 18.589 0 0 1 153 55.359a18.312 18.312 0 0 1-4.763 18.968l-19.59 19.157a6.686 6.686 0 0 0-1.9 5.939l4.577 26.99A18.656 18.656 0 0 1 113 148.221zm-36.031-21.682a12.393 12.393 0 0 1 5.816 1.435l24.269 12.749a12.617 12.617 0 0 0 18.354-13.3l-4.579-27a12.677 12.677 0 0 1 3.636-11.238l19.592-19.161a12.363 12.363 0 0 0 3.234-12.811 12.638 12.638 0 0 0-10.378-8.643L109.8 44.615a12.473 12.473 0 0 1-9.485-6.913L88.182 13.1A12.515 12.515 0 0 0 76.9 6h-.029a12.548 12.548 0 0 0-11.33 7.041l-12.1 24.544a12.764 12.764 0 0 1-9.548 6.915l-27.114 3.943a12.642 12.642 0 0 0-6.945 21.563L29.4 89.141a12.767 12.767 0 0 1 3.6 11.203l-4.618 27.038a12.614 12.614 0 0 0 5.067 12.357c.324.235.66.455.995.653a12.565 12.565 0 0 0 12.315.3l24.243-12.7a13.053 13.053 0 0 1 5.967-1.453z" fill="#222433"/></svg></g></svg>