<svg xmlns="http://www.w3.org/2000/svg" viewBox="0 0 1200 800" width="1200" height="800"><g transform="translate(349.0 533.0) rotate(0.0 107.0 199.5) translate(0.0 0.0) scale(1.7892976588628764 1.78125)"><svg width="119.041" height="98.246" viewBox="0 0 119.041 98.246"><path d="M0 0h119.6v224H0z" fill="#82b1ff"/></svg></g><g transform="translate(31.0 703.0) rotate(0.0 569.5 9.5) scale(1.2835249042145593 1.3475177304964538)"><svg width="887.4" height="14.1" viewBox="0 0 887.4 14.1"><g><path d="M875.2 6.1H3.7c-1 0-1.7-.5-1.7-1.2s.7-1.2 1.7-1.2h871.5c1 0 1.7.5 1.7 1.2s-.9 1.2-1.7 1.2z" style="fill:#222433"/></g></svg></g><g transform="translate(70.0 623.0) rotate(0.0 106.5 198.5) translate(0.0 0.0) scale(1.7809364548494984 1.7723214285714286)"><svg width="119.038" height="48.524" viewBox="0 0 119.038 48.524"><path d="M0 0h119.6v224H0z" fill="#82b1ff"/></svg></g><g transform="translate(629.0 441.0) rotate(0.0 106.5 198.5) translate(0.0 0.0) scale(1.7809364548494984 1.7723214285714286)"><svg width="119.6" height="151.214" viewBox="0 0 119.6 151.214"><path d="M0 0h119.6v224H0z" fill="#82b1ff"/></svg></g><g transform="translate(910.0 355.0) rotate(0.0 105.5 197.0) translate(0.0 0.0) scale(1.7642140468227425 1.7589285714285714)"><svg width="119.6" height="200.69" viewBox="0 0 119.6 200.69"><path d="M0 0h119.6v224H0z" fill="#82b1ff"/></svg></g><g transform="translate(563.0 493.0) rotate(354.02171623781373 33.0 108.0) scale(0.4752475247524752 0.4739326094159)"><svg width="138.875" height="455.761" viewBox="0 0 138.875 455.761"><g><path d="m112.113 137.529-35.36 21.179-21.179-35.36a48.7 48.7 0 0 1 16.649-66.83l.132-.079 35.36-21.179 21.179 35.36a48.7 48.7 0 0 1-16.649 66.83z" fill="#fff"/><path d="M76.753 161.708a3 3 0 0 1-2.573-1.458l-21.179-35.36a51.7 51.7 0 0 1 17.676-70.943l.134-.08 35.363-21.181a3 3 0 0 1 4.114 1.032l21.179 35.361a51.7 51.7 0 0 1-17.676 70.942l-.134.08-35.362 21.181a3.006 3.006 0 0 1-1.542.426zm29.93-122.333-32.9 19.7A45.7 45.7 0 0 0 58.146 121.8l19.639 32.79 32.916-19.713a45.7 45.7 0 0 0 15.621-62.711z" fill="#222433"/><path d="M3.001 455.761a3.032 3.032 0 0 1-.732-.091 3 3 0 0 1-2.18-3.64l88.058-351.084a3 3 0 0 1 5.821 1.46L5.911 453.489a3 3 0 0 1-2.91 2.272zM107.717 38.262a3.032 3.032 0 0 1-.732-.091 3 3 0 0 1-2.18-3.64l7.988-31.85a3 3 0 0 1 5.82 1.46l-7.988 31.85a3 3 0 0 1-2.908 2.271z" fill="#222433"/><path d="M107.711 38.262a3 3 0 0 1-2.95-2.48L99.075 3.521a3 3 0 1 1 5.908-1.042l5.686 32.262a3 3 0 0 1-2.958 3.521z" fill="#222433"/><path d="M107.713 38.261a3 3 0 0 1-2.351-4.862l20.363-25.728a3 3 0 0 1 4.7 3.724l-20.358 25.728a2.992 2.992 0 0 1-2.354 1.138z" fill="#222433"/></g><circle cx="70.964" cy="181.959" fill="#fff" r="23.801"/><path d="M70.964 208.76a26.8 26.8 0 1 1 26.8-26.8 26.832 26.832 0 0 1-26.8 26.8zm0-47.6a20.8 20.8 0 1 0 20.8 20.8 20.824 20.824 0 0 0-20.8-20.802z" fill="#222433"/></svg></g><g transform="translate(283.0 624.0) rotate(17.61912879191962 25.5 43.5) scale(0.4812592005435398 0.4808144001149533)"><svg width="105.972" height="180.943" viewBox="0 0 105.972 180.943"><g fill="#222433"><path d="M66.777 180.943a3 3 0 0 1-2.978-2.669l-14.9-134a3 3 0 0 1 5.963-.663l14.9 134a3 3 0 0 1-2.65 3.313 2.919 2.919 0 0 1-.335.019z"/><path d="M21.01 48.587a21.062 21.062 0 0 1-16.384-34.23 20.927 20.927 0 0 1 14.139-7.77L77 .129a21.065 21.065 0 0 1 23.237 18.636A21.1 21.1 0 0 1 81.6 42l-58.235 6.456a21.46 21.46 0 0 1-2.355.131zM79.34 6a15.082 15.082 0 0 0-1.68.094l-58.236 6.457A15.06 15.06 0 0 0 22.7 42.492l58.236-6.458A15.059 15.059 0 0 0 88.713 9.31 14.923 14.923 0 0 0 79.34 6zM16.938 35.077a6.972 6.972 0 0 1-4.406-1.562A7.061 7.061 0 0 1 16.2 20.993l66.1-7.331a7.05 7.05 0 0 1 7.786 6.254 7.071 7.071 0 0 1-6.251 7.784l-66.1 7.331a7.309 7.309 0 0 1-.797.046zm-.077-8.121a1.087 1.087 0 0 0-.732.395 1.017 1.017 0 0 0-.221.765 1.084 1.084 0 0 0 .394.732 1.006 1.006 0 0 0 .767.222l66.1-7.332a1.051 1.051 0 0 0 .953-1.161 1.084 1.084 0 0 0-.394-.73 1 1 0 0 0-.767-.222zm72.02 76.732c-4.052 0-10.525-1.817-19.711-5.526-7.226-2.919-13.347-5.9-13.6-6.023a3 3 0 0 1-.57-5.034c2.271-1.827 22.433-17.876 31.15-18.844a17.867 17.867 0 0 1 19.713 15.75 17.865 17.865 0 0 1-15.751 19.613 11.031 11.031 0 0 1-1.231.064zM62.568 88.8c9.446 4.306 22.342 9.36 26.882 8.857a11.759 11.759 0 0 0 7.928-4.4 11.609 11.609 0 0 0 2.522-8.579 11.853 11.853 0 0 0-13.088-10.454c-4.512.502-15.988 8.287-24.244 14.576z"/><path d="M25.576 110.637a17.787 17.787 0 0 1-11.18-3.928A17.509 17.509 0 0 1 7.9 94.87a17.877 17.877 0 0 1 15.75-19.709c3.907-.435 10.762 1.352 20.942 5.462 7.227 2.919 13.348 5.9 13.605 6.023a3 3 0 0 1 .565 5.034c-2.27 1.827-22.433 17.876-31.15 18.844a18.373 18.373 0 0 1-2.036.113zm-.582-29.547a6.285 6.285 0 0 0-.682.034 11.868 11.868 0 0 0-10.448 13.091 11.545 11.545 0 0 0 4.283 7.812 11.884 11.884 0 0 0 8.8 2.534c4.516-.5 15.992-8.287 24.246-14.58-9.006-4.107-21.173-8.891-26.199-8.891z"/></g></svg></g><g transform="translate(610.0 644.0) rotate(12.678264168729324 -10.5 39.5) translate(-0.0 0.0) scale(-0.4751131221719457 0.4759036144578313)"><svg width="44.2" height="136.582" viewBox="0 0 44.2 136.582"><path d="M22.1 166a3 3 0 0 1-3-3V22.1a3 3 0 0 1 6 0V163a3 3 0 0 1-3 3Z" fill="#222433"/><path d="M22.1 44.2a22.1 22.1 0 1 1 22.1-22.1 22.125 22.125 0 0 1-22.1 22.1Zm0-38.2a16.1 16.1 0 1 0 16.1 16.1A16.118 16.118 0 0 0 22.1 6Z" fill="#222433"/></svg></g><g transform="translate(577.0 567.0) rotate(346.2249644886012 -19.0 72.5) scale(-0.4400389087035064 0.441099524220927)"><svg width="86.356" height="328.724" viewBox="0 0 86.356 328.724"><g fill="#222433"><path d="M51.875 328.725a3 3 0 0 1-3-2.894L37.451 3.108a3.002 3.002 0 0 1 6-.212l11.424 322.722a3 3 0 0 1-2.892 3.105z"/><path d="M42.021 50.982a3 3 0 0 1-2.505-1.35l-19.18-29.13a3 3 0 1 1 5.012-3.3l16.469 25.014L56.5 16.055a3 3 0 1 1 5.232 2.936L44.639 49.45a3 3 0 0 1-2.511 1.53z"/><path d="M43.069 81.178a3 3 0 0 1-2.512-1.362L12.842 37.321a3 3 0 1 1 5.026-3.277l25 38.331 22.293-40.051a3 3 0 1 1 5.239 2.918l-24.712 44.4a3 3 0 0 1-2.516 1.539z"/><path d="M44.328 115.673a3 3 0 0 1-2.505-1.35L5.869 59.729a3 3 0 0 1 5.01-3.3l33.245 50.479 29.6-52.733a3 3 0 1 1 5.232 2.936l-32.01 57.03a3 3 0 0 1-2.509 1.53z"/><path d="M45.482 148.91a3 3 0 0 1-2.5-1.349L.5 83.102a3 3 0 1 1 5.01-3.3l39.774 60.347L80.74 77.102a3 3 0 0 1 5.231 2.942L48.1 147.381a3 3 0 0 1-2.51 1.527c-.037.002-.072.002-.108.002z"/></g></svg></g><g transform="translate(1115.0 580.0) rotate(0.0 35.5 65.5) scale(0.4487082258961525 0.4468717273468441)"><svg width="158.232" height="293.149" viewBox="0 0 158.232 293.149"><path d="M149.068 39.169c-6.06-3.672-13.95-1.735-17.621 4.326l-.009.015c3.673-6.075 1.725-13.977-4.35-17.65s-13.977-1.725-17.65 4.35l-33.82 55.57 8.83-64.45c.867-7.038-4.136-13.446-11.174-14.313-6.878-.847-13.187 3.916-14.256 10.763 1.07-7.01-3.745-13.56-10.755-14.63s-13.56 3.745-14.63 10.755c-.016.105-.031.21-.044.315l-1.19 8.47-8 57.15a51.67 51.67 0 0 0 23.8 51l-.09.13a55.266 55.266 0 0 0 20.31 7.22v-.16a51.66 51.66 0 0 0 50.63-24.52l29.87-49.37 4.43-7.32c3.694-6.047 1.787-13.943-4.259-17.637l-.022-.014z" fill="#fff"/><g fill="#222433"><path d="M74.838 141.431c-1.922 0-3.854-.102-5.791-.309a2.962 2.962 0 0 1-1.063.035 57.97 57.97 0 0 1-21.413-7.611 3.01 3.01 0 0 1-.801-.696c-17.755-11.541-27.292-32.398-24.343-53.427l9.239-65.969C31.984 4.818 40.079-1.131 48.715.183c5.215.796 9.451 4.065 11.698 8.432 3.329-3.379 8.135-5.201 13.227-4.576 8.669 1.067 14.853 8.988 13.785 17.657l-6.88 50.216 26.329-43.262c4.518-7.473 14.283-9.879 21.765-5.358 4.519 2.732 7.187 7.377 7.594 12.276a16.012 16.012 0 0 1 2.413-.798 15.72 15.72 0 0 1 11.976 1.834l.028.017.014.009-.001.001c7.456 4.617 9.778 14.333 5.245 21.753l-34.293 56.679c-9.971 16.482-27.827 26.367-46.777 26.368zm-6.42-6.402c.124 0 .249.008.373.023 19.038 2.387 37.759-6.678 47.69-23.096l34.301-56.69c2.832-4.636 1.368-10.699-3.257-13.524l1.543-2.573-1.554 2.566a9.763 9.763 0 0 0-7.437-1.139 9.764 9.764 0 0 0-6.056 4.441l-.015.025a3 3 0 1 1-5.134-3.105c2.811-4.65 1.315-10.72-3.335-13.531-4.651-2.811-10.72-1.315-13.531 3.335L78.181 87.339a3.001 3.001 0 0 1-5.535-1.967l8.83-64.45c.316-2.568-.398-5.146-2.015-7.217s-3.945-3.39-6.553-3.711a9.796 9.796 0 0 0-10.925 8.249 3 3 0 0 1-5.93-.915c.819-5.364-2.879-10.394-8.243-11.212-5.362-.821-10.393 2.878-11.212 8.243l-1.229 8.75-8 57.149c-2.666 19.013 6.134 37.87 22.418 48.04.254.159.481.353.674.575a51.992 51.992 0 0 0 17.445 6.204c.168-.033.339-.048.512-.048z"/><path d="M105.835 88.82a3 3 0 0 1-2.564-4.554l26.13-43.19a3.001 3.001 0 0 1 5.134 3.106l-26.13 43.19a3 3 0 0 1-2.57 1.448zM3 293.15a3 3 0 0 1-2.827-4.006l62.538-175.95a3 3 0 1 1 5.653 2.01L5.827 291.154A3.001 3.001 0 0 1 3 293.15zm49.202-223.4a3 3 0 0 1-2.975-3.416l6.99-49.99a3 3 0 1 1 5.943.831l-6.99 49.99a3.003 3.003 0 0 1-2.968 2.585z"/><path d="M57.948 138.56a3.002 3.002 0 0 1-2.827-4.006l17.7-49.78a3 3 0 0 1 5.654 2.01l-17.7 49.78a3.001 3.001 0 0 1-2.827 1.996z"/></g></svg></g><g transform="translate(533.0 667.0) rotate(0.0 9.0 21.0) scale(0.4812834224598931 0.47565118912797283)"><svg width="37.4" height="88.3" viewBox="0 0 37.4 88.3"><path d="M33.7 88.3a3 3 0 0 1-2.924-2.342L19.223 34.674a3 3 0 1 1 5.854-1.318l11.549 51.285A3 3 0 0 1 33.7 88.3z" fill="#222433"/><circle cx="18.7" cy="18.7" fill="#fff" r="15.7"/><path d="M18.7 37.4a18.7 18.7 0 1 1 18.7-18.7 18.721 18.721 0 0 1-18.7 18.7zm0-31.4a12.7 12.7 0 1 0 12.7 12.7A12.715 12.715 0 0 0 18.7 6z" fill="#222433"/></svg></g><g transform="translate(1065.0 519.0) rotate(354.10794981328013 28.5 133.0) translate(0.0 0.0) scale(0.49401976079043164 0.49206407932220947)"><svg width="113.356" height="390.193" viewBox="0 0 113.356 390.193"><path d="M101.47 3c-6.036-.006-10.934 4.884-10.94 10.92v.01C90.53 7.894 85.636 3 79.6 3h-.01c-6.036 0-10.93 4.894-10.93 10.93C68.66 7.894 63.766 3 57.73 3h-.01c-6.036-.006-10.934 4.884-10.94 10.92v.01c0-6.029-4.881-10.919-10.91-10.93-6.036-.039-10.961 4.823-11 10.86v.07C24.87 7.894 19.976 3 13.94 3 7.904 2.995 3.006 7.884 3 13.92V59.7c-.005 30.199 24.471 54.684 54.67 54.69h.02c30.204 0 54.69-24.486 54.69-54.69V13.93c0-6.028-4.881-10.919-10.91-10.93z" fill="#fff"/><g fill="#222433"><path d="M57.69 117.39c-15.427-.003-29.911-6.005-40.803-16.901C5.994 89.592-.003 75.107 0 59.7V13.93C.007 6.241 6.255 0 13.93 0h.013c4.428 0 8.382 2.079 10.934 5.312A13.921 13.921 0 0 1 35.889 0c4.406.008 8.343 2.083 10.891 5.306C49.334 2.074 53.284 0 57.71 0h.013c4.43 0 8.383 2.075 10.937 5.304C71.213 2.075 75.164 0 79.59 0c4.433 0 8.386 2.076 10.941 5.305C93.084 2.074 97.035 0 101.46 0h.016c7.667.014 13.905 6.263 13.905 13.93V59.7c-.001 31.811-25.881 57.69-57.691 57.69zM13.933 6C9.561 6 6.004 9.552 6 13.923V59.7c-.002 13.805 5.371 26.784 15.13 36.546 9.759 9.763 22.736 15.141 36.54 15.144 28.521 0 51.71-23.188 51.71-51.69V13.93c0-4.365-3.551-7.922-7.916-7.93h-.004c-4.37 0-7.926 3.552-7.93 7.923v.007a3 3 0 0 1-5.999.068v-.068C87.53 9.558 83.973 6 79.6 6c-4.383 0-7.94 3.558-7.94 7.93a3 3 0 1 1-6 0c0-4.373-3.557-7.93-7.93-7.93h-.007c-4.382 0-7.939 3.552-7.943 7.923v.007a3 3 0 0 1-5.999.063v-.063c0-4.365-3.551-7.922-7.916-7.93h-.052c-4.363 0-7.915 3.523-7.943 7.879v.05a3 3 0 0 1-6 .043v-.042c0-4.373-3.557-7.93-7.93-7.93h-.007z"/><path d="M57.72 540.58a3 3 0 0 1-3-3V116.15a3 3 0 1 1 6 0v421.43a3 3 0 0 1-3 3zM90.53 59.06a3 3 0 0 1-3-3v-43a3 3 0 1 1 6 0v43a3 3 0 0 1-3 3zm-21.88 0a3 3 0 0 1-3-3v-43a3 3 0 1 1 6 0v43a3 3 0 0 1-3 3zm-21.87 0a3 3 0 0 1-3-3v-43a3 3 0 1 1 6 0v43a3 3 0 0 1-3 3zm-21.88 0a3 3 0 0 1-3-3v-43a3 3 0 1 1 6 0v43a3 3 0 0 1-3 3z"/></g></svg></g><g transform="translate(828.0 481.0) rotate(8.127735656508817 31.5 120.0) translate(0.0 0.0) scale(0.5044035228182546 0.49968769519050593)"><svg width="122.917" height="460.288" viewBox="0 0 122.917 460.288"><circle cx="59.8" cy="32.3" fill="#fff" r="29.3"/><path d="M59.8 64.6a32.3 32.3 0 1 1 32.3-32.3 32.337 32.337 0 0 1-32.3 32.3zm0-58.6a26.3 26.3 0 1 0 26.3 26.3A26.33 26.33 0 0 0 59.8 6z" fill="#222433"/><circle cx="90.8" cy="94.8" fill="#fff" r="29.3"/><path d="M90.8 127.1a32.3 32.3 0 1 1 32.3-32.3 32.336 32.336 0 0 1-32.3 32.3zm0-58.6a26.3 26.3 0 1 0 26.3 26.3 26.33 26.33 0 0 0-26.3-26.3z" fill="#222433"/><circle cx="32.3" cy="96.4" fill="#fff" r="29.3"/><path d="M32.3 128.7a32.3 32.3 0 1 1 32.3-32.3 32.337 32.337 0 0 1-32.3 32.3zm0-58.6a26.3 26.3 0 1 0 26.3 26.3 26.33 26.33 0 0 0-26.3-26.3z" fill="#222433"/><circle cx="92.6" cy="159.9" fill="#fff" r="29.3"/><path d="M92.6 192.2a32.3 32.3 0 1 1 32.3-32.3 32.336 32.336 0 0 1-32.3 32.3zm0-58.6a26.3 26.3 0 1 0 26.3 26.3 26.33 26.33 0 0 0-26.3-26.3z" fill="#222433"/><circle cx="34.001" cy="161.4" fill="#fff" r="29.3"/><g fill="#222433"><path d="M34 193.7a32.3 32.3 0 1 1 32.3-32.3A32.337 32.337 0 0 1 34 193.7zm0-58.6a26.3 26.3 0 1 0 26.3 26.3A26.33 26.33 0 0 0 34 135.1z"/><path d="M71.9 480.3a3 3 0 0 1-3-2.919L57.206 46.165a3 3 0 0 1 6-.164L74.9 477.219a3 3 0 0 1-2.918 3.08z"/></g></svg></g><g transform="translate(242.0 656.0) rotate(0.0 17.0 27.5) scale(0.422880312433925 0.41920092681514004)"><svg width="80.401" height="131.202" viewBox="0 0 80.401 131.202"><g><path d="m16.8 60.102-.6-9.1a34.42 34.42 0 0 0-9.2-21.3l-4-4.3 74.4-4.9-3.4 4.8a34.363 34.363 0 0 0-6.3 22.4l.6 9.1a25.75 25.75 0 0 1-23.99 27.4h-.01a25.794 25.794 0 0 1-27.492-23.976z" fill="#fff"/><g fill="#222433"><path d="M42.5 87.264A28.8 28.8 0 0 1 13.815 60.43l-.009-.131-.6-9.1a31.5 31.5 0 0 0-8.4-19.448l-4-4.306a3 3 0 0 1 2-5.037l74.4-4.9a3 3 0 0 1 2.646 4.728l-3.4 4.8a31.441 31.441 0 0 0-5.756 20.452l.6 9.117a28.751 28.751 0 0 1-26.76 30.587h-.032q-1.004.072-2.004.072zM19.793 59.902v.064a22.793 22.793 0 0 0 24.279 21.245h.04a22.751 22.751 0 0 0 21.195-24.209l-.6-9.1a37.431 37.431 0 0 1 6.605-23.989L9.494 27.981a37.513 37.513 0 0 1 9.7 22.829z"/><path d="M47.1 131.202a3 3 0 0 1-2.991-2.8l-4.9-73.3a3 3 0 1 1 5.986-.4l4.9 73.3a3 3 0 0 1-2.793 3.193c-.071.007-.138.007-.202.007zm-6.9-105.69a2.987 2.987 0 0 1-2.008-.773l-15.2-13.71a3 3 0 1 1 4.018-4.455l15.2 13.71a3 3 0 0 1-2.01 5.228z"/><path d="M40.2 25.512a3 3 0 0 1-2.992-2.785l-1.4-19.51a3 3 0 1 1 5.984-.43l.87 12.118 8.238-9.83a3 3 0 0 1 4.6 3.854l-13 15.51a3 3 0 0 1-2.3 1.073z"/></g></g></svg></g><g transform="translate(778.0 615.0) rotate(349.3150029726987 31.5 48.0) scale(0.46871861259290676 0.47359229623198135)"><svg width="134.409" height="202.706" viewBox="0 0 134.409 202.706"><path d="M66.7 202.706a3 3 0 0 1-3-3v-146.9a3 3 0 0 1 6 0v146.9a3 3 0 0 1-3 3z" fill="#222433"/><path d="M106.4 52.006H27a24.505 24.505 0 0 1 0-49h79.4a24.505 24.505 0 1 1 1 49zM27 22.606a4.9 4.9 0 0 0 0 9.8h79.4a4.9 4.9 0 0 0 0-9.8z" fill="#fff"/><g fill="#222433"><path d="M106.4 55.006H27a27.5 27.5 0 0 1-.068-55H106.4a27.532 27.532 0 0 1 28 26.933 27.545 27.545 0 0 1-26.933 28.066zM106.951 6H27a21.506 21.506 0 0 0 .066 43H107.4a21.506 21.506 0 0 0-.449-43zm-.551 29.406H27a7.9 7.9 0 0 1 0-15.8h79.4a7.9 7.9 0 0 1 0 15.8zm-79.4-9.8a1.9 1.9 0 0 0 0 3.8h79.4a1.9 1.9 0 0 0 0-3.8zm74.4 95c-9.594 0-33.6-15.05-36.307-16.766a3 3 0 0 1-.007-5.063C67.8 97.05 91.8 81.906 101.4 81.906a19.353 19.353 0 0 1 .069 38.7zm-29-19.308c9.873 5.932 23.785 13.277 28.964 13.308a13.354 13.354 0 0 0-.034-26.7c-5.091 0-19.03 7.41-28.924 13.394z"/><path d="M31.1 120.706H31a19.4 19.4 0 0 1 .965-38.8c9.532 0 33.541 15.143 36.247 16.87a3 3 0 0 1-.007 5.063C65.5 105.556 41.5 120.606 31.9 120.606h-.03a2.963 2.963 0 0 1-.77.1zm.5-32.8a13.4 13.4 0 0 0-.777 26.787 5.879 5.879 0 0 1 1.079-.084c5.153 0 19.1-7.363 29-13.308-9.893-5.981-23.845-13.392-29-13.392-.102-.009-.202-.009-.302-.009z"/></g></svg></g><g transform="translate(1036.0 592.0) rotate(347.1999729211968 21.5 81.5) translate(0.0 0.0) scale(0.4979387651118626 0.49585670653800756)"><svg width="84.348" height="244.022" viewBox="0 0 84.348 244.022"><g fill="#222433"><path d="M51.875 328.725a3 3 0 0 1-3-2.894L37.451 3.108a3.002 3.002 0 0 1 6-.212l11.424 322.722a3 3 0 0 1-2.892 3.105z"/><path d="M42.021 50.982a3 3 0 0 1-2.505-1.35l-19.18-29.13a3 3 0 1 1 5.012-3.3l16.469 25.014L56.5 16.055a3 3 0 1 1 5.232 2.936L44.639 49.45a3 3 0 0 1-2.511 1.53z"/><path d="M43.069 81.178a3 3 0 0 1-2.512-1.362L12.842 37.321a3 3 0 1 1 5.026-3.277l25 38.331 22.293-40.051a3 3 0 1 1 5.239 2.918l-24.712 44.4a3 3 0 0 1-2.516 1.539z"/><path d="M44.328 115.673a3 3 0 0 1-2.505-1.35L5.869 59.729a3 3 0 0 1 5.01-3.3l33.245 50.479 29.6-52.733a3 3 0 1 1 5.232 2.936l-32.01 57.03a3 3 0 0 1-2.509 1.53z"/><path d="M45.482 148.91a3 3 0 0 1-2.5-1.349L.5 83.102a3 3 0 1 1 5.01-3.3l39.774 60.347L80.74 77.102a3 3 0 0 1 5.231 2.942L48.1 147.381a3 3 0 0 1-2.51 1.527c-.037.002-.072.002-.108.002z"/></g></svg></g><g transform="translate(998.0 642.0) rotate(0.0 15.0 60.5) translate(0.0 0.0) scale(0.4813863928112965 0.4768566868312676)"><svg width="60.243" height="142.6" viewBox="0 0 60.243 142.6"><ellipse cx="29.86" cy="29.811" fill="#fff" rx="26.86" ry="26.811"/><g fill="#222433"><path d="M29.86 59.622C13.395 59.622 0 46.249 0 29.811S13.395 0 29.86 0s29.86 13.373 29.86 29.811-13.395 29.811-29.86 29.811zM29.86 6C16.704 6 6 16.681 6 29.811s10.704 23.811 23.86 23.811S53.72 42.94 53.72 29.811 43.016 6 29.86 6z"/><path d="M59.316 253.745a3.001 3.001 0 0 1-2.97-2.604L26.886 30.207a3 3 0 0 1 5.947-.793l29.46 220.934a3 3 0 0 1-2.977 3.397z"/></g></svg></g><g transform="translate(471.0 607.0) rotate(329.2652832810705 36.0 66.5) translate(0.0 0.0) scale(0.45502806006370394 0.4536941964666432)"><svg width="156.034" height="213.8" viewBox="0 0 156.034 213.8"><path d="M149.068 39.169c-6.06-3.672-13.95-1.735-17.621 4.326l-.009.015c3.673-6.075 1.725-13.977-4.35-17.65s-13.977-1.725-17.65 4.35l-33.82 55.57 8.83-64.45c.867-7.038-4.136-13.446-11.174-14.313-6.878-.847-13.187 3.916-14.256 10.763 1.07-7.01-3.745-13.56-10.755-14.63s-13.56 3.745-14.63 10.755c-.016.105-.031.21-.044.315l-1.19 8.47-8 57.15a51.67 51.67 0 0 0 23.8 51l-.09.13a55.266 55.266 0 0 0 20.31 7.22v-.16a51.66 51.66 0 0 0 50.63-24.52l29.87-49.37 4.43-7.32c3.694-6.047 1.787-13.943-4.259-17.637l-.022-.014z" fill="#fff"/><g fill="#222433"><path d="M74.838 141.431c-1.922 0-3.854-.102-5.791-.309a2.962 2.962 0 0 1-1.063.035 57.97 57.97 0 0 1-21.413-7.611 3.01 3.01 0 0 1-.801-.696c-17.755-11.541-27.292-32.398-24.343-53.427l9.239-65.969C31.984 4.818 40.079-1.131 48.715.183c5.215.796 9.451 4.065 11.698 8.432 3.329-3.379 8.135-5.201 13.227-4.576 8.669 1.067 14.853 8.988 13.785 17.657l-6.88 50.216 26.329-43.262c4.518-7.473 14.283-9.879 21.765-5.358 4.519 2.732 7.187 7.377 7.594 12.276a16.012 16.012 0 0 1 2.413-.798 15.72 15.72 0 0 1 11.976 1.834l.028.017.014.009-.001.001c7.456 4.617 9.778 14.333 5.245 21.753l-34.293 56.679c-9.971 16.482-27.827 26.367-46.777 26.368zm-6.42-6.402c.124 0 .249.008.373.023 19.038 2.387 37.759-6.678 47.69-23.096l34.301-56.69c2.832-4.636 1.368-10.699-3.257-13.524l1.543-2.573-1.554 2.566a9.763 9.763 0 0 0-7.437-1.139 9.764 9.764 0 0 0-6.056 4.441l-.015.025a3 3 0 1 1-5.134-3.105c2.811-4.65 1.315-10.72-3.335-13.531-4.651-2.811-10.72-1.315-13.531 3.335L78.181 87.339a3.001 3.001 0 0 1-5.535-1.967l8.83-64.45c.316-2.568-.398-5.146-2.015-7.217s-3.945-3.39-6.553-3.711a9.796 9.796 0 0 0-10.925 8.249 3 3 0 0 1-5.93-.915c.819-5.364-2.879-10.394-8.243-11.212-5.362-.821-10.393 2.878-11.212 8.243l-1.229 8.75-8 57.149c-2.666 19.013 6.134 37.87 22.418 48.04.254.159.481.353.674.575a51.992 51.992 0 0 0 17.445 6.204c.168-.033.339-.048.512-.048z"/><path d="M105.835 88.82a3 3 0 0 1-2.564-4.554l26.13-43.19a3.001 3.001 0 0 1 5.134 3.106l-26.13 43.19a3 3 0 0 1-2.57 1.448zM3 293.15a3 3 0 0 1-2.827-4.006l62.538-175.95a3 3 0 1 1 5.653 2.01L5.827 291.154A3.001 3.001 0 0 1 3 293.15zm49.202-223.4a3 3 0 0 1-2.975-3.416l6.99-49.99a3 3 0 1 1 5.943.831l-6.99 49.99a3.003 3.003 0 0 1-2.968 2.585z"/><path d="M57.948 138.56a3.002 3.002 0 0 1-2.827-4.006l17.7-49.78a3 3 0 0 1 5.654 2.01l-17.7 49.78a3.001 3.001 0 0 1-2.827 1.996z"/></g></svg></g><g transform="translate(753.0 668.0) rotate(0.0 9.0 21.0) scale(0.4812834224598931 0.47565118912797283)"><svg width="37.4" height="88.3" viewBox="0 0 37.4 88.3"><path d="M33.7 88.3a3 3 0 0 1-2.924-2.342L19.223 34.674a3 3 0 1 1 5.854-1.318l11.549 51.285A3 3 0 0 1 33.7 88.3z" fill="#222433"/><circle cx="18.7" cy="18.7" fill="#fff" r="15.7"/><path d="M18.7 37.4a18.7 18.7 0 1 1 18.7-18.7 18.721 18.721 0 0 1-18.7 18.7zm0-31.4a12.7 12.7 0 1 0 12.7 12.7A12.715 12.715 0 0 0 18.7 6z" fill="#222433"/></svg></g><g transform="translate(950.0 206.0) rotate(0.0 -34.0 25.0) scale(-0.43556517784510534 0.4338018393197987)"><svg width="156.119" height="115.26" viewBox="0 0 156.119 115.26"><path d="M74.177 57.173c-.767.088-15.146-3.531-17.424-4.226L81.411 4.479A2.705 2.705 0 0 1 83.822 3h.037a2.7 2.7 0 0 1 2.407 1.546L98.8 30.967c.025.054.049.108.071.162 1.992 5.021 1.7 10.618.228 16.1-.336.171-16.659 8.993-24.922 9.944z" fill="#fff"/><path d="M74.365 60.161c-2.469 0-18.337-4.3-18.488-4.345a3 3 0 0 1-1.8-4.23l24.66-48.468a5.706 5.706 0 0 1 10.24.141l12.535 26.423c.049.1.093.205.136.308 2.056 5.186 2.169 11.237.349 18.015a3 3 0 0 1-1.537 1.9l-.092.049c-4.079 2.165-18 9.3-25.848 10.2a1.354 1.354 0 0 1-.155.007zM61.1 51.018c4.48 1.16 11.443 2.859 13.044 3.135 5.245-.727 14.753-4.978 22.37-8.955 1.151-4.981 1.007-9.337-.432-12.963L83.814 6.373z" fill="#222433"/><path d="m103.287 75.349 41.613-15a6.158 6.158 0 0 1 7.9 7.7 6.379 6.379 0 0 1-3.8 3.9l-10 3.5 8.5 1.4a6.124 6.124 0 1 1-1.9 12.1l-27.328-4.325" fill="#fff"/><path d="M146.575 92.026a9.269 9.269 0 0 1-1.443-.113L117.8 87.587a3 3 0 0 1 .937-5.926l27.327 4.325a3.194 3.194 0 0 0 2.69-.835 3 3 0 0 0 .8-3.132 3.122 3.122 0 0 0-2.535-2.207l-8.513-1.4a3 3 0 0 1-.5-5.791l9.944-3.481a3.392 3.392 0 0 0 2-2.036 3.036 3.036 0 0 0-.792-3.186 3.089 3.089 0 0 0-3.259-.738L104.3 78.171a3 3 0 1 1-2.035-5.644l41.614-15A9.157 9.157 0 0 1 155.646 69a9.358 9.358 0 0 1-5.246 5.62 9.133 9.133 0 0 1 4.9 5.629 9.027 9.027 0 0 1-2.433 9.28 9.206 9.206 0 0 1-6.292 2.497zM23.6 63.749 0 66.049l23.1 9.3z" fill="#222433"/><path d="M34.1 85.549a23.509 23.509 0 0 1 10.3 9.2 36.847 36.847 0 0 0 10.5 11c15.1 10.6 35.8 7.9 48.5-5.5l14.9-15.8-44.7-28.8a46.528 46.528 0 0 1-14.4-8.8 23.337 23.337 0 0 0-36.2 28.1 23.679 23.679 0 0 0 11.1 10.6z" fill="#fff"/><path d="M75.627 115.212a38.948 38.948 0 0 1-22.45-7.007 39.606 39.606 0 0 1-11.323-11.871 20.493 20.493 0 0 0-8.967-8.041l-.033-.015a26.651 26.651 0 0 1-12.5-11.923A26.329 26.329 0 0 1 61.19 44.6a43.632 43.632 0 0 0 13.469 8.238 3.032 3.032 0 0 1 .566.285l44.7 28.8a3 3 0 0 1 .557 4.58l-14.9 15.8a41.339 41.339 0 0 1-29.955 12.909zm-40.3-32.4a26.456 26.456 0 0 1 11.617 10.347 33.7 33.7 0 0 0 9.648 10.112c13.64 9.577 32.815 7.38 44.631-5.085l12.419-13.169L72.238 58.34a49.679 49.679 0 0 1-15.024-9.24 20.337 20.337 0 0 0-31.552 24.465 20.669 20.669 0 0 0 9.668 9.247z" fill="#222433"/><circle cx="35.9" cy="66.749" fill="#222433" r="6"/><path d="M53.358 79.517A13.3 13.3 0 0 1 51 77.249a3.154 3.154 0 0 1-.155-.228 15.48 15.48 0 0 1-1.976-11.312 9.928 9.928 0 0 0-1.072-7.1c-.16-.224-.3-.447-.442-.671-.081-.129-.158-.26-.255-.389a2.063 2.063 0 0 1-.136-.2 9.276 9.276 0 0 0-12.772-2.959l-11.5 7.2a3 3 0 0 1-4.518-3.2 25.733 25.733 0 0 1 10.047-15.257 26.189 26.189 0 0 1 32.992 1.492 41.674 41.674 0 0 0 11.9 7.608l54.451-42.156a3 3 0 0 1 4.837 2.372v32.4c0 .066 0 .131-.007.2-1.358 20.7-33.2 35.272-36.568 36.755a36.487 36.487 0 0 1-19.762 5.848 35.69 35.69 0 0 1-22.706-8.135z" fill="#5a38fd"/><path d="M71.875 58.17a3 3 0 0 1-.21-4.9l55.9-43.2a3 3 0 0 1 4.835 2.374v12.3a31.547 31.547 0 0 1-15.591 27.092l-12.19 7.095A30.993 30.993 0 0 1 88.9 63.223a31.4 31.4 0 0 1-17.025-5.053z" fill="#82b1ff"/></svg></g><g transform="translate(1144.0 494.0) rotate(0.0 15.0 15.0) scale(0.5031530927143432 0.5031699708161417)"><svg width="59.624" height="59.622" viewBox="0 0 59.624 59.622"><g fill="#82b1ff"><path d="M9.864 0h11.91c5.44-.001 9.851 4.408 9.852 9.848a9.861 9.861 0 0 1-1.042 4.412l-14.77 29.55L1.045 14.26C-1.391 9.396.578 3.478 5.442 1.042A9.853 9.853 0 0 1 9.864 0zm49.76 37.85v11.91c.007 5.44-4.398 9.856-9.838 9.862a9.85 9.85 0 0 1-4.422-1.042l-29.55-14.77 29.55-14.78c4.873-2.43 10.794-.449 13.224 4.424a9.848 9.848 0 0 1 1.036 4.396z"/></g></svg></g><g transform="translate(333.0 77.0) rotate(0.0 206.5 228.5) scale(0.5025841098237548 0.5029644083894903)"><svg width="821.753" height="908.613" viewBox="0 0 821.753 908.613"><path d="M247.16 437.253c-11.768 8.763-25.745 19.079-35.86 26.16-25.5 18-107.3 48.1-113.4 27.7-3.7-12.4 19.2-16 58.2-33-37.1 9-65 12.9-67.3-.2s35.3-22 63.9-28.7c-20.1-4.1-47.4-8.7-47.6-19-.2-14.9 23.4-11.9 39.1-11.6 34.9.8 39.5-15.6 53.8-32.5a47.211 47.211 0 0 1 15.632-11.752" fill="#fff"/><path d="M113.031 500.9a31.4 31.4 0 0 1-10.078-1.378c-5.227-1.806-7.2-5.1-7.927-7.546-2.494-8.357 4.845-12.968 7.257-14.484 4.932-3.1 12.376-6.072 21.743-9.69-17.159 2.611-27.386 1.944-33.135-1.819a11.022 11.022 0 0 1-5.046-7.548c-2.3-13.083 20.623-20.993 52.957-28.974-19.1-4-36.5-8.806-36.7-19.186a12.421 12.421 0 0 1 3.673-9.455c6.541-6.381 20.288-5.859 32.41-5.4 2.1.08 4.149.158 6.074.195 27.184.624 34.777-9.551 44.413-22.432 2.183-2.918 4.441-5.935 7.039-9.006a50.431 50.431 0 0 1 16.618-12.517 3 3 0 0 1 2.608 5.4 44.4 44.4 0 0 0-14.644 10.985c-2.484 2.936-4.686 5.88-6.816 8.728-10.249 13.7-19.142 25.531-49.344 24.836a312.826 312.826 0 0 1-6.176-.2c-10.382-.395-23.295-.885-27.992 3.7a6.474 6.474 0 0 0-1.864 5.061c.137 7.068 25.321 12.113 40.368 15.127 1.644.33 3.26.653 4.832.974a3 3 0 0 1 .085 5.86c-13.589 3.184-30.5 7.145-43.181 11.843-17 6.3-18.854 11.109-18.449 13.418a5.1 5.1 0 0 0 2.421 3.565c9.087 5.943 39.288-.442 61.217-5.762a3 3 0 0 1 1.906 5.666c-10.754 4.687-20.1 8.29-28.354 11.468-20.846 8.032-29.986 11.84-28.17 17.924.177.6.72 2.411 4.138 3.593 18.943 6.547 81.69-16.674 104.657-32.886 8.176-5.724 19.883-14.264 35.8-26.115a3 3 0 1 1 3.584 4.812c-15.962 11.886-27.716 20.46-35.931 26.211-19.154 13.52-72.275 35.032-99.993 35.032z" fill="#222433"/><path d="M209.26 395.3c-8.179 8.362-15.184 19-24.36 28.309-19.6 20-30.4 34.5-28.5 40.9 4.2 14.6 39.081-19.577 72.581-37.677" fill="#fff"/><path d="M160.957 471.045a8.331 8.331 0 0 1-2.805-.454 7.336 7.336 0 0 1-4.635-5.249c-1.481-4.987.5-14.5 29.24-43.829a194.476 194.476 0 0 0 12.806-14.844c3.865-4.8 7.516-9.337 11.552-13.463a3 3 0 0 1 4.29 4.2c-3.833 3.918-7.4 8.344-11.168 13.03a198.989 198.989 0 0 1-13.2 15.287c-27.03 27.583-28.418 35.722-27.759 37.94.309 1.075.691 1.21.874 1.275 4.346 1.535 19.144-8.846 32.2-18 10.83-7.593 23.1-16.2 35.2-22.736a3 3 0 0 1 2.852 5.279c-11.792 6.371-23.915 14.87-34.61 22.369-16.982 11.902-27.772 19.195-34.837 19.195z" fill="#222433"/><path d="m360.287 262.1-121.436 65.994a60 60 0 1 0 57.3 105.437l39.241-21.324 39-110.851z" fill="#fff"/><path d="M267.553 443.824a63.008 63.008 0 0 1-30.134-118.366l121.436-65.991a3 3 0 0 1 4.256 1.622l14.1 39.252a3 3 0 0 1 .007 2.01l-39 110.852a3 3 0 0 1-1.4 1.64l-39.241 21.324a63.093 63.093 0 0 1-30.024 7.657zm91.094-177.415L240.284 330.73a57 57 0 1 0 54.432 100.17l38.226-20.773 38.265-108.756z" fill="#222433"/><path d="M561.391 138.356c10-7 31.243-6.24 39-7l56 28c2 3 10 31 8 43l-103 43z" fill="#fff"/><path d="M561.391 248.356a3 3 0 0 1-3-3v-107a3 3 0 0 1 1.279-2.458c8.688-6.081 24.165-6.746 34.406-7.187 2.431-.1 4.529-.2 6.022-.341a3.015 3.015 0 0 1 1.635.3l56 28a3 3 0 0 1 1.154 1.02c2.63 3.944 10.537 32.711 8.463 45.157a3 3 0 0 1-1.8 2.275l-103 43a3 3 0 0 1-1.159.234zm3-108.349v100.845l97.235-40.593c.916-11.189-5.242-33.856-7.427-38.645l-54.392-27.2c-1.52.118-3.377.2-5.473.288-8.467.368-22.32.963-29.943 5.305z" fill="#222433"/><path d="M814.2 260.812a74.981 74.981 0 0 0-85.845-51.012l-65.964 9.555-92 95-40.152 55.209-124.37-98.158a106.615 106.615 0 0 0-15.213 6.091c-47.308 23.317-69.051 77.03-51.116 122.868L299 516.012c-19 15.6-50.6 41.7-83.5 69.7-19.5 16.5-39.4 33.8-57.3 50-22.5 20.3-41.9 38.8-53.7 52.1l112.4 99.3c26.8-30.2 132.6-119 193.1-168a75.607 75.607 0 0 0 23.6-33.5l49.552-141.436c.686-.416 100.566-32.405 100.566-32.405l-2.6-2.055 1.277.639 48.023-69.436-41.122 60.147L715.4 475.012l62.2-103.8 29.5-49.2a72.232 72.232 0 0 0 3.8-7.3 74.383 74.383 0 0 0 3.3-53.9z" fill="#fff"/><path d="m218.5 786.613-36.1 47.4a16 16 0 0 0 3.1 22.5 15.654 15.654 0 0 0 4.8 2.5c27.2 6.1 35.5 20.9 33.6 48.8l-115.5.8-31.2-26.7-20.809-68.557L31.6 842.913l-31.6-27 106.5-124.7zm496.912-312.132L693.5 515.813a29.762 29.762 0 0 0 12.4 40.2 31.542 31.542 0 0 0 3.2 1.5c27.5 4.5 44.3 32.3 41.9 60.2l-102.5-1.2-36.109-20.157-45-69-19.191 34.957-36.6-19.6 70.473-130.97 7.227-13.43zM410.152 182.17c-10.4-7.9-27.652-27.557-35.552-17.157l-39.5 51.2a23.6 23.6 0 0 0 4.5 33.1l19.706 15.012z" fill="#5a38fd"/><path d="M444.023 198.012c2.4-6.023 4.33-11.779 8.595-16.8a3.847 3.847 0 0 1 .605-.559 23.938 23.938 0 0 0-2.623-2.339l-35.8-27.3a23.449 23.449 0 0 0-32.9 4.4l-7.3 9.6 61.9 47.25c2.515-4.757 5.528-9.249 7.523-14.252z" fill="#82b1ff"/><path d="M638.5 205.719c4.547-2.231 9.741-4.337 14.893-4.886a101.634 101.634 0 0 0-7.982-22.232c-3.85 4.326-7.942 8.43-12.133 12.427.676 3.891 2.846 7.477 4.121 11.176a76.05 76.05 0 0 1 1.101 3.515z" fill="#5a38fd"/><path d="M716.4 477.013a2.983 2.983 0 0 1-1.515-.413l-126.11-73.945a3 3 0 0 1-.959-4.281l41.121-60.147a3 3 0 0 1 4.953 3.386l-39.307 57.493 120.771 70.816 60.673-101.251 29.5-49.2a67.872 67.872 0 0 0 3.627-6.965 72.057 72.057 0 0 0-79.221-100.761 3 3 0 1 1-1.156-5.887 78.054 78.054 0 0 1 85.846 109.112 74.25 74.25 0 0 1-3.932 7.555l-29.518 49.23-62.2 103.8a3 3 0 0 1-2.573 1.458zm-430.508 79.866a3 3 0 0 1-2.835-3.983l13.108-37.865a3 3 0 0 1 5.67 1.963l-13.108 37.865a3 3 0 0 1-2.835 2.02z" fill="#222433"/><path d="M216.9 790.113a2.992 2.992 0 0 1-1.986-.752l-112.4-99.3a3 3 0 0 1-.258-4.24c10.844-12.222 28.99-29.83 53.935-52.336 16.849-15.25 36.69-32.563 57.372-50.062 25.063-21.331 52.95-44.612 82.885-69.2l39.9-113.813c-8.575-22.708-8.047-47.9 1.514-71.072a106.169 106.169 0 0 1 51.471-54.534 109.731 109.731 0 0 1 15.64-6.263 3 3 0 1 1 1.8 5.725 103.778 103.778 0 0 0-14.784 5.919c-45.243 22.3-67.052 74.607-49.649 119.084a3 3 0 0 1 .037 2.086l-40.54 115.646a3 3 0 0 1-.927 1.326c-30.155 24.759-58.234 48.2-83.459 69.666-20.639 17.464-40.426 34.731-57.232 49.94-23.292 21.015-40.582 37.692-51.458 49.631L216.667 782.9c29.73-32.128 132.289-118.212 191.446-166.123a72.489 72.489 0 0 0 22.656-32.162l49.552-141.433a2.991 2.991 0 0 1 1.276-1.574c.393-.239.989-.6 101.206-32.7a3 3 0 0 1 1.83 5.714c-25.4 8.134-89.293 28.628-99.129 31.907l-49.073 140.076a78.5 78.5 0 0 1-24.531 34.833C351.461 670.385 245.7 759.18 219.144 789.1a2.993 2.993 0 0 1-2.244 1.013z" fill="#222433"/><path d="M574.359 172c.087-5.771 5.875-18.3 9.741-23.584-3.7-6.065-7.124-11.178-14.105-17.2-41.925-36.185-107-25-140.5 19l-63.8 86.3a64.407 64.407 0 0 0 11.97 90.12l74.99-145.68a60 60 0 0 1 108.91 50.1 60.089 60.089 0 0 1 26.1-1.9 101.2 101.2 0 0 0-.691-34.833c-1.787-9.162-12.759-12.75-12.615-22.323z" fill="#5a38fd"/><path d="M638.307 296.933a58.881 58.881 0 0 1-26.065 41.467l-174 116.3a60 60 0 0 1-86.688-77.344l101.1-196.4a60 60 0 0 1 108.915 50.1 60.065 60.065 0 0 1 34.524-.028z" fill="#fff"/><path d="M404.912 467.812a63 63 0 0 1-56.025-91.834l101.1-196.4a63.006 63.006 0 0 1 116.29 47.192 62.906 62.906 0 0 1 30.673 1.381 2.994 2.994 0 0 1 1.668 1.256l42.215 65.907a3.011 3.011 0 0 1 .448 2.017 61.71 61.71 0 0 1-27.372 43.559l-174 116.3a62.766 62.766 0 0 1-34.997 10.622zm101.15-316.429a57.158 57.158 0 0 0-50.741 30.942l-101.1 196.4a57 57 0 0 0 82.353 73.475l174-116.3a55.78 55.78 0 0 0 24.6-38.29l-41-64.016a56.843 56.843 0 0 0-31.739.329 3 3 0 0 1-3.645-4.007 57.343 57.343 0 0 0-26.7-72.184 56.721 56.721 0 0 0-26.028-6.349z" fill="#222433"/><path d="M448.1 302.313a3 3 0 0 1-1.821-5.385c2.981-2.276 73.495-55.868 114.383-68.741a3 3 0 0 1 1.8 5.723c-39.888 12.558-111.825 67.237-112.548 67.788a2.987 2.987 0 0 1-1.814.615z" fill="#222433"/><path d="M629.6 306.113c14.3-13.8 19.8-28.1 50.9-24.4 14 1.7 34.8 6.4 36-7 .8-9.2-23.3-15.7-40.9-21.1 26.2-3.5 60.5-8.2 59.6-20.2s-26.2-10.8-60.1-6c36.3-11.8 57-13.1 54.8-24.4-3.7-18.7-79.5-3.4-103.8 10.4-14.6 8.3-31.9 18.7-40.6 24.1a43.319 43.319 0 0 0-8.8 7.2c-14.1 14.9-17.1 38.6-4.1 54.6 18.7 22.7 47.5 16 57 6.8z" fill="#fff"/><path d="M604.641 317.676q-1.3 0-2.621-.073a43.425 43.425 0 0 1-31.736-16.383c-13.486-16.6-11.66-41.772 4.238-58.569a46.167 46.167 0 0 1 9.388-7.682c7.878-4.89 25.211-15.355 40.707-24.164 21.4-12.152 81.677-25.359 101.051-16.484 5.063 2.318 6.7 5.69 7.175 8.109 1.945 9.993-8.236 13.748-25.678 18.69 14.123-.558 22.516.972 27.065 4.633a10.215 10.215 0 0 1 3.962 7.435c.9 12.052-19.728 17.223-48.761 21.523 16.37 5.172 30.864 10.985 30.058 20.261a11.578 11.578 0 0 1-4.3 8.394c-6.594 5.245-18.978 3.526-29.9 2.01-1.78-.247-3.508-.487-5.143-.685-23.961-2.85-31.209 5.074-41.246 16.041-2.244 2.451-4.564 4.986-7.21 7.539-4.99 4.829-15.108 9.405-27.049 9.405zm102.141-120.4c-24.509 0-63.3 9.719-79.2 18.748-15.421 8.767-32.669 19.18-40.5 24.041a40.22 40.22 0 0 0-8.183 6.692c-13.854 14.639-15.552 36.412-3.971 50.667a37.547 37.547 0 0 0 27.429 14.191c11.213.63 20.892-3.526 25.156-7.655 2.512-2.424 4.767-4.889 6.95-7.273 10.393-11.355 19.365-21.162 46.388-17.947 1.675.2 3.437.447 5.252.7 9.25 1.284 20.762 2.881 25.343-.763a5.654 5.654 0 0 0 2.062-4.225c.091-1.045-.694-3.947-9.943-8.159-6.954-3.167-16.332-6.008-24.606-8.515a1255.27 1255.27 0 0 1-4.243-1.29 3 3 0 0 1 .482-5.842c12.392-1.655 27.813-3.715 39.591-6.839 11.327-3 17.675-6.708 17.416-10.163a4.317 4.317 0 0 0-1.741-3.21c-7.327-5.9-33.215-3.121-54.947-.044a3 3 0 0 1-1.349-5.823c9.968-3.241 18.6-5.646 26.208-7.769 18.671-5.206 27.6-7.942 26.575-13.2-.11-.558-.452-2.284-3.785-3.81-3.802-1.756-9.538-2.515-16.384-2.515z" fill="#222433"/><path d="M712.208 104.221a51.891 51.891 0 0 1-57.008 55.942l-14.15 25.551c-10.659 17.642-31.659 22.642-49.522 12.153-18.434-10.824-23.137-35.511-14.137-49.511l34.343-58.678-5.343-17.322 69-57 46.559 28.766a51.349 51.349 0 0 1-5.522 36.193c-.091.163-.183.324-.276.485" fill="#fff"/><path d="M610.976 206.386a41.29 41.29 0 0 1-39.861-31.948c-2.413-10.111-1.057-20.185 3.718-27.651L608.479 89.3l-4.955-16.06a3 3 0 0 1 .957-3.2l69-57a3 3 0 0 1 3.487-.239l46.559 28.769a3 3 0 0 1 1.353 1.913 54.453 54.453 0 0 1-5.837 38.3l-.292.513a3 3 0 0 1-5.2-3l.265-.464a48.5 48.5 0 0 0 5.453-32.846l-43.625-26.948L609.85 73.39l4.752 15.4a3 3 0 0 1-.279 2.4l-34.343 58.681a2.366 2.366 0 0 1-.066.107c-3.866 6.015-4.974 14.638-2.963 23.067a35.2 35.2 0 0 0 16.1 22.235c16.542 9.714 35.63 5.058 45.406-11.069l14.119-25.5a3 3 0 0 1 2.929-1.531 48.892 48.892 0 0 0 53.718-52.7 3 3 0 0 1 5.979-.506 54.892 54.892 0 0 1-58.317 59.347l-13.206 23.852-.058.1c-7.513 12.427-19.683 19.113-32.645 19.113z" fill="#222433"/><path d="m714.391 72.356 8.239 31.544-18.077.557" fill="#fff"/><g fill="#222433"><path d="M704.551 107.457a3 3 0 0 1-.091-6l14.317-.442-7.288-27.9a3 3 0 1 1 5.8-1.516l8.239 31.543a3 3 0 0 1-2.809 3.757l-18.077.558zm-2.616 25.014a21.106 21.106 0 0 1-16.631-8.017l-2.364-2.936a3 3 0 1 1 4.672-3.764l2.373 2.947a15.268 15.268 0 0 0 14.446 5.578l1.448-.24a3 3 0 1 1 .983 5.918l-1.479.246a22.432 22.432 0 0 1-3.448.268z"/><circle cx="696.789" cy="72.257" r="5.504" transform="matrix(.48988465 -.87178726 .87178726 .48988465 292.448 644.309)"/><path d="M654.688 163.158a2.964 2.964 0 0 1-.351-.021 55.266 55.266 0 0 1-43.581-31.3 3 3 0 0 1 5.426-2.561 49.27 49.27 0 0 0 38.849 27.9 3 3 0 0 1-.343 5.98z"/></g><path d="m638.608 80.005 7.869 4.421 30.034-60.555 45.537 20.306a51.968 51.968 0 0 0-96.1-14.7 52.392 52.392 0 0 0-2.337 4.692" fill="#fff"/><path d="M646.477 87.426a3 3 0 0 1-1.47-.384l-7.869-4.421a3 3 0 0 1 2.939-5.231l5.116 2.874 28.63-57.726a3 3 0 0 1 3.91-1.407l39.722 17.714a48.978 48.978 0 0 0-88.889-7.9 48.81 48.81 0 0 0-2.2 4.424 3 3 0 1 1-5.5-2.4 55.985 55.985 0 0 1 2.47-4.96 54.968 54.968 0 0 1 101.647 15.55 3 3 0 0 1-4.158 3.358l-42.906-19.133-28.755 57.975a3 3 0 0 1-2.687 1.667z" fill="#222433"/><path d="M638.608 80.005a28.39 28.39 0 1 0-26.874 9.677" fill="#fff"/><path d="M611.738 92.683a2.96 2.96 0 0 1-.544-.05 31.387 31.387 0 1 1 29.712-10.7 3 3 0 1 1-4.6-3.857 25.57 25.57 0 0 0 2.7-3.9 25.387 25.387 0 1 0-26.732 12.558 3 3 0 0 1-.536 5.952z" fill="#222433"/><path d="M621.941 67.583a3.015 3.015 0 0 1-.433-.032l-14.532-2.11a3 3 0 0 1 .863-5.938l7.982 1.159-6.132-9.451a3 3 0 1 1 5.033-3.266l9.734 15.005a3 3 0 0 1-2.515 4.633z" fill="#222433"/></svg></g><g transform="translate(510.0 540.0) rotate(0.0 13.0 13.5) scale(0.39989541196917733 0.40627163020253393)"><svg width="65.017" height="66.458" viewBox="0 0 65.017 66.458"><path d="m3.252 53.812-.25-11.91c-.116-5.439 4.198-9.942 9.637-10.059a9.843 9.843 0 0 1 4.433.949l29.85 14.14-29.22 15.39c-4.819 2.536-10.781.686-13.318-4.133a9.875 9.875 0 0 1-1.132-4.377z" fill="#fff"/><path d="M13.125 66.463c-1.281 0-2.568-.193-3.827-.584a12.77 12.77 0 0 1-7.568-6.293 12.92 12.92 0 0 1-1.477-5.708v-.002l-.25-11.91a12.771 12.771 0 0 1 3.568-9.164 12.762 12.762 0 0 1 9.003-3.957 12.87 12.87 0 0 1 5.784 1.238L48.206 44.22a3.001 3.001 0 0 1 .113 5.366L19.1 64.976a12.794 12.794 0 0 1-5.975 1.487zM6.252 53.749a6.87 6.87 0 0 0 .788 3.042 6.815 6.815 0 0 0 4.037 3.357 6.819 6.819 0 0 0 5.229-.481l23.91-12.593-24.428-11.571a6.883 6.883 0 0 0-3.085-.661 6.801 6.801 0 0 0-4.799 2.11 6.804 6.804 0 0 0-1.902 4.885z" fill="#222433"/><path d="m40.072 3.252 11.91-.25c5.445-.096 9.937 4.239 10.033 9.684a9.86 9.86 0 0 1-.943 4.386l-14.15 29.86-15.39-29.25c-2.525-4.825-.661-10.783 4.164-13.308a9.853 9.853 0 0 1 4.376-1.122z" fill="#fff"/><path d="M46.922 49.932a2.999 2.999 0 0 1-2.654-1.603l-15.39-29.25c-3.291-6.289-.855-14.075 5.428-17.363A12.91 12.91 0 0 1 40.01.253l11.91-.25c7.1-.123 12.97 5.54 13.096 12.63a12.932 12.932 0 0 1-1.23 5.721L49.633 48.216a3.001 3.001 0 0 1-2.648 1.715l-.063.001zM52.159 6l-.123.001-11.9.25h-.003a6.89 6.89 0 0 0-3.044.781 6.867 6.867 0 0 0-2.897 9.259l12.592 23.932 11.579-24.435c.446-.945.673-2 .655-3.049A6.871 6.871 0 0 0 52.159 6zM40.072 3.252h.01z" fill="#222433"/></svg></g><g transform="translate(808.0 538.0) rotate(0.0 12.5 12.5) scale(0.38451481920113206 0.3761774353727166)"><svg width="65.017" height="66.458" viewBox="0 0 65.017 66.458"><path d="m3.252 53.812-.25-11.91c-.116-5.439 4.198-9.942 9.637-10.059a9.843 9.843 0 0 1 4.433.949l29.85 14.14-29.22 15.39c-4.819 2.536-10.781.686-13.318-4.133a9.875 9.875 0 0 1-1.132-4.377z" fill="#fff"/><path d="M13.125 66.463c-1.281 0-2.568-.193-3.827-.584a12.77 12.77 0 0 1-7.568-6.293 12.92 12.92 0 0 1-1.477-5.708v-.002l-.25-11.91a12.771 12.771 0 0 1 3.568-9.164 12.762 12.762 0 0 1 9.003-3.957 12.87 12.87 0 0 1 5.784 1.238L48.206 44.22a3.001 3.001 0 0 1 .113 5.366L19.1 64.976a12.794 12.794 0 0 1-5.975 1.487zM6.252 53.749a6.87 6.87 0 0 0 .788 3.042 6.815 6.815 0 0 0 4.037 3.357 6.819 6.819 0 0 0 5.229-.481l23.91-12.593-24.428-11.571a6.883 6.883 0 0 0-3.085-.661 6.801 6.801 0 0 0-4.799 2.11 6.804 6.804 0 0 0-1.902 4.885z" fill="#222433"/><path d="m40.072 3.252 11.91-.25c5.445-.096 9.937 4.239 10.033 9.684a9.86 9.86 0 0 1-.943 4.386l-14.15 29.86-15.39-29.25c-2.525-4.825-.661-10.783 4.164-13.308a9.853 9.853 0 0 1 4.376-1.122z" fill="#fff"/><path d="M46.922 49.932a2.999 2.999 0 0 1-2.654-1.603l-15.39-29.25c-3.291-6.289-.855-14.075 5.428-17.363A12.91 12.91 0 0 1 40.01.253l11.91-.25c7.1-.123 12.97 5.54 13.096 12.63a12.932 12.932 0 0 1-1.23 5.721L49.633 48.216a3.001 3.001 0 0 1-2.648 1.715l-.063.001zM52.159 6l-.123.001-11.9.25h-.003a6.89 6.89 0 0 0-3.044.781 6.867 6.867 0 0 0-2.897 9.259l12.592 23.932 11.579-24.435c.446-.945.673-2 .655-3.049A6.871 6.871 0 0 0 52.159 6zM40.072 3.252h.01z" fill="#222433"/></svg></g><g transform="translate(210.0 375.0) rotate(7.62736040715628 70.5 43.0) scale(0.5243584975827446 0.524390243902439)"><svg width="268.9" height="164" viewBox="0 0 268.9 164"><g fill="#222433"><path d="M3 164a3 3 0 0 1-2.068-5.173c28.539-27.159 48.115-49.546 58.182-66.54q.824-1.388 1.534-2.679c-10.64 1.156-17.816-.782-21.634-5.789-4.488-5.886-3.241-12.859 3.255-18.2 7.851-6.45 21.105-8.6 27.1-1.832 3.558 4.022 3.98 10.029 1.38 17.841C107.088 72.433 172.13 38.106 230.678.476a3 3 0 0 1 3.244 5.048c-27.956 17.968-71.208 43.542-108.757 61.434-24 11.438-43.018 18.589-57.23 21.489-8.706 18.022-29.991 43.441-62.866 74.726A2.992 2.992 0 0 1 3 164zm55.816-98.407a21.6 21.6 0 0 0-12.738 4.665c-2.765 2.272-5.407 5.838-2.293 9.923 3.018 3.957 10.041 4.728 20.037 2.958 4.189-9.932 2.3-13.961 1.049-15.374-1.337-1.51-3.538-2.172-6.055-2.172zM151.9 99.6a3 3 0 0 1-1.012-5.825c42.081-15.071 112.5-68.134 113.2-68.669a3 3 0 0 1 3.619 4.786c-2.914 2.2-71.859 54.153-114.8 69.531a2.984 2.984 0 0 1-1.007.177z"/></g></svg></g></svg>