<svg xmlns="http://www.w3.org/2000/svg" viewBox="0 0 1280 720" width="1280" height="720"><g transform="translate(347.0 258.0) rotate(0.0 -122.0 211.0) scale(-0.6691237769294897 0.6675102815564694)"><svg width="364.656" height="632.2" viewBox="0 0 364.656 632.2"><path d="M47.864 632.201a2.999 2.999 0 0 1-2.901-3.772l93.304-350.77a2.999 2.999 0 1 1 5.798 1.542l-93.304 350.77a3.002 3.002 0 0 1-2.897 2.23zm291.348-.001a3 3 0 0 1-2.962-2.549l-53.442-350.77a3 3 0 0 1 5.931-.904l53.442 350.77a3 3 0 0 1-2.969 3.453z" fill="#222433"/><path d="M126.299 278.43s48.277-227.487 49.379-233.577c3.45-19.067 10.679-37.292 30.018-41.133a37.559 37.559 0 0 1 7.32-.72h109.672c2.458 0 4.909.241 7.32.72 20.357 4.043 33.583 23.823 31.416 44.053l-46.32 232.47" fill="#fff"/><g fill="#222433"><path d="M315.108 283.243a3 3 0 0 1-2.946-3.586l46.293-232.335c1.989-19.183-10.741-37.027-29.031-40.659A34.615 34.615 0 0 0 322.689 6H213.017c-2.255 0-4.522.223-6.736.662-14.608 2.901-23.394 15.206-27.65 38.724-1.098 6.065-47.425 224.375-49.397 233.666a3 3 0 0 1-5.869-1.245c.482-2.274 48.28-227.512 49.362-233.489 2.99-16.524 9.601-39.016 32.386-43.541A40.732 40.732 0 0 1 213.017 0h109.672c2.647 0 5.307.261 7.904.777 21.349 4.24 36.202 25.023 33.814 47.315-.01.089-.023.178-.041.267l-46.32 232.47a2.998 2.998 0 0 1-2.938 2.414z"/><path d="m14.649 275.43 303.59-.03v4c0 7.776-6.304 14.08-14.08 14.08H0z"/></g></svg></g><g transform="translate(948.0 260.0) rotate(0.0 121.5 210.5) scale(0.6663814663683033 0.6659285036380892)"><svg width="364.656" height="632.2" viewBox="0 0 364.656 632.2"><path d="M47.864 632.201a2.999 2.999 0 0 1-2.901-3.772l93.304-350.77a2.999 2.999 0 1 1 5.798 1.542l-93.304 350.77a3.002 3.002 0 0 1-2.897 2.23zm291.348-.001a3 3 0 0 1-2.962-2.549l-53.442-350.77a3 3 0 0 1 5.931-.904l53.442 350.77a3 3 0 0 1-2.969 3.453z" fill="#222433"/><path d="M126.299 278.43s48.277-227.487 49.379-233.577c3.45-19.067 10.679-37.292 30.018-41.133a37.559 37.559 0 0 1 7.32-.72h109.672c2.458 0 4.909.241 7.32.72 20.357 4.043 33.583 23.823 31.416 44.053l-46.32 232.47" fill="#fff"/><g fill="#222433"><path d="M315.108 283.243a3 3 0 0 1-2.946-3.586l46.293-232.335c1.989-19.183-10.741-37.027-29.031-40.659A34.615 34.615 0 0 0 322.689 6H213.017c-2.255 0-4.522.223-6.736.662-14.608 2.901-23.394 15.206-27.65 38.724-1.098 6.065-47.425 224.375-49.397 233.666a3 3 0 0 1-5.869-1.245c.482-2.274 48.28-227.512 49.362-233.489 2.99-16.524 9.601-39.016 32.386-43.541A40.732 40.732 0 0 1 213.017 0h109.672c2.647 0 5.307.261 7.904.777 21.349 4.24 36.202 25.023 33.814 47.315-.01.089-.023.178-.041.267l-46.32 232.47a2.998 2.998 0 0 1-2.938 2.414z"/><path d="m14.649 275.43 303.59-.03v4c0 7.776-6.304 14.08-14.08 14.08H0z"/></g></svg></g><g transform="translate(588.0 49.0) rotate(0.0 282.5 316.0) translate(0.0 0.0) scale(0.6689715598285538 0.6683587140439932)"><svg width="841.59" height="942.608" viewBox="0 0 841.59 942.608"><path d="M570.58 570.16 551.4 590.3l182.09.923c43.518-4.107 78.675-33.743 92.523-73.032L608.42 449.966l-31-34-70 3-19 41 15 103 36 38" fill="#fff"/><path d="M539.42 603.966a2.99 2.99 0 0 1-2.178-.937l-36-38a3.01 3.01 0 0 1-.791-1.631l-15-103a3 3 0 0 1 .247-1.694l19-41a3 3 0 0 1 2.594-1.736l70-3a3.018 3.018 0 0 1 2.345.976l30.454 33.4 216.819 67.985a3 3 0 0 1 1.932 3.859c-14.628 41.5-51.946 70.951-95.07 75.022a2.669 2.669 0 0 1-.3.013l-182.087-.923a3 3 0 0 1-2.157-5.069l19.18-20.14a3 3 0 0 1 4.344 4.138l-14.386 15.106 174.989.887c39.726-3.808 74.23-30.394 88.753-68.111l-214.586-67.283a3.007 3.007 0 0 1-1.319-.841l-30.055-32.964-66.774 2.861-17.857 38.533 14.735 101.175L541.6 598.9a3 3 0 0 1-2.178 5.064z" fill="#222433"/><path d="m517.93 331.92-9.632 30.148-24.878-.102-6-13z" fill="#fff"/><path d="m557.9 335.646 44.956-73.334a69.066 69.066 0 0 1 59.434-37.892l13.792-.447s-2.688 41.22 39.868 42.8c41.079 1.522 37.324-45.3 37.324-45.3l14.016-.454a69.1 69.1 0 0 1 68.978 51.181 68.027 68.027 0 0 1 4.792 28.069l3.52 181.12A56.521 56.521 0 0 1 788.11 536h-.1a56.539 56.539 0 0 1-23.43-5.09l-164.773-73.366s60.4 21.206 75.441-46.419c4.185-74.791-65.094-61.07-65.094-61.07z" fill="#5a38fd"/><path d="M593.45 347.049a3.041 3.041 0 0 1-.508-.044 3 3 0 0 1-2.452-3.462l5.113-29.968a3 3 0 0 1 5.914 1.01l-5.117 29.968a3 3 0 0 1-2.95 2.496z" fill="#222433"/><path d="M762.91 76.4V37.8A34.791 34.791 0 0 0 728.13 3h-91.4a26.29 26.29 0 0 0-26.29 26.29 26.289 26.289 0 0 0 26.29 26.29l74 1.74a12.39 12.39 0 0 1 12.09 12.66l-.65 30.73a16.734 16.734 0 0 0 3.273 10.319z" fill="#fff"/><path d="M725.443 114.029c-.094 0-.188 0-.283-.014a3 3 0 0 1-2.131-1.2 19.612 19.612 0 0 1-3.859-12.164l.651-30.73a9.406 9.406 0 0 0-9.163-9.6l-74-1.74A29.29 29.29 0 0 1 636.73 0h91.39a37.79 37.79 0 0 1 37.79 37.8v38.6a3 3 0 0 1-.964 2.2l-37.467 34.629a3 3 0 0 1-2.036.8zM636.73 6a23.29 23.29 0 1 0 0 46.58l74.07 1.741a15.414 15.414 0 0 1 15.019 15.725l-.65 30.728a13.7 13.7 0 0 0 1.008 5.491l33.733-31.177V37.8A31.791 31.791 0 0 0 728.129 6z" fill="#222433"/><path d="M403.3 836.2c-3.692 19.21-18.508 36.464-48.148 45.717-29.36 9.18-43.29 31.82-40.79 59.15H465.02l57.36-78.18 18.49 42 52.4-23.85-46.535-102.5" fill="#fff"/><path d="M465.02 944.07H314.36a3 3 0 0 1-2.988-2.727c-2.722-29.755 13.309-53.04 42.883-62.286 26.274-8.2 42.214-23.217 46.1-43.42a3 3 0 1 1 5.892 1.132c-4.265 22.188-22.093 39.24-50.2 48.015-26.158 8.179-40.21 27.516-38.891 53.286H463.5l56.461-76.955a3 3 0 0 1 5.165.566l17.266 39.22 46.907-21.35L544 779.782a3 3 0 0 1 5.464-2.481L596 879.8a3 3 0 0 1-1.489 3.971l-52.4 23.85a3 3 0 0 1-3.989-1.522l-16.4-37.247-54.288 73.993a3 3 0 0 1-2.414 1.225z" fill="#222433"/><path d="m514.1 634.58 60.85 132.62-181.08 72.79-18.45-39.024-91-190-34.67-72.3c-21.111-47.143 15.985-102.852 66.6-116.683a95 95 0 0 1 14.4-2.762 23.331 23.331 0 0 1 2.759-.136l173.7 1.1" fill="#fff"/><path d="M393.871 842.99a3 3 0 0 1-2.713-1.718l-18.45-39.024-90.994-189.987-34.669-72.294c-9.055-20.219-8.347-43.328 1.962-65.14 12.569-26.595 38.069-47.951 66.548-55.734a98.414 98.414 0 0 1 14.853-2.849 25.748 25.748 0 0 1 3.114-.155l173.7 1.1a3 3 0 0 1-.019 6h-.019l-173.7-1.1a19.783 19.783 0 0 0-2.4.117 92.3 92.3 0 0 0-13.943 2.675c-26.837 7.334-50.864 27.455-62.706 52.51-9.548 20.2-10.238 41.529-1.943 60.053l34.637 72.224 91 190 17.248 36.482 175.537-70.561-59.536-129.76a3 3 0 1 1 5.454-2.5l60.848 132.62a3 3 0 0 1-1.608 4.035l-181.08 72.789a2.976 2.976 0 0 1-1.121.217z" fill="#222433"/><path d="M169.842 775.938c-11.982 6.093-25.883 8.982-40.952 9.122-34.5.32-63.22-1.71-63.22-1.71A55.56 55.56 0 0 0 3 818.49l138 64.91 93.64-6.64-20.06 41.32 52.1 24.52 27.428-58.132" fill="#fff"/><path d="M266.678 945.6a2.982 2.982 0 0 1-1.276-.287l-52.1-24.52a3 3 0 0 1-1.421-4.024l17.793-36.65-88.462 6.273a2.994 2.994 0 0 1-1.489-.278l-138-64.91a3 3 0 0 1-1.534-3.762 58.372 58.372 0 0 1 65.869-37.072c2.475.168 30.224 1.991 62.8 1.69 15.088-.14 28.418-3.1 39.62-8.8a3 3 0 1 1 2.72 5.348c-12.035 6.121-26.261 9.3-42.284 9.448-34.224.318-63.171-1.7-63.459-1.718a2.938 2.938 0 0 1-.362-.047A52.376 52.376 0 0 0 6.839 816.98l134.73 63.372 92.859-6.584a3 3 0 0 1 2.911 4.3l-18.734 38.589 46.641 21.95 26.154-55.419a3 3 0 0 1 5.426 2.56l-27.433 58.132a3 3 0 0 1-2.715 1.72zM734.38 395.96a2.992 2.992 0 0 1-1.251-.273l-86.36-39.61a3 3 0 1 1 2.5-5.454l82.663 37.915 7.471-57.008a3 3 0 0 1 5.95.78l-8 61.04a3 3 0 0 1-2.975 2.61z" fill="#222433"/><path d="M610.154 350.055a47.912 47.912 0 0 1 21.866-1.971c28.252 4.016 47.606 32.24 43.228 63.041s-30.83 52.513-59.083 48.5c-19.368-2.754-34.555-16.884-40.78-35.422" fill="#fff"/><path d="M622.882 463.1a50.764 50.764 0 0 1-7.139-.506c-19.84-2.82-36.394-17.165-43.2-37.437a3 3 0 0 1 5.688-1.91c6.081 18.107 20.779 30.908 38.358 33.406 26.573 3.781 51.553-16.836 55.691-45.949s-14.111-55.872-40.68-59.649a44.733 44.733 0 0 0-20.5 1.849 3 3 0 0 1-1.883-5.7 50.683 50.683 0 0 1 23.229-2.092c29.845 4.242 50.38 34.044 45.777 66.433-4.239 29.791-28.288 51.555-55.341 51.555z" fill="#222433"/><path d="M413.16 306.282c-31.25-1.162-68.576 2.808-67.984 15.554.515 11.69 21.3 7.922 59.816 10.812-34.533 3.357-59.636 8.333-57.686 20.342 1.97 11.919 36.831 8.353 63.44 5.5-15.951 9.547-38.121 21.668-35.116 30.616 4.312 12.815 23.653 3.267 37-1.773 29.775-11.189 34.937 2.518 52.354 12.685 11.575 6.8 60.738 6.642 73.583-7.056" fill="#fff"/><path d="M493.462 407.47c-13.027 0-24.815-1.825-29.993-4.868a110.131 110.131 0 0 1-10.676-7.323c-10.232-7.669-17.624-13.211-39.1-5.14-1.52.574-3.123 1.209-4.773 1.862-10.427 4.128-22.245 8.806-29.968 5.222a11.569 11.569 0 0 1-6.162-7.162c-3.024-9 9.956-18.212 24.805-27.223-29.659 2.766-51.258 2.673-53.246-9.359a10.354 10.354 0 0 1 2.141-8.263c3.639-4.723 11.532-8.251 25.512-11.074-18.407-.652-29.366-1.858-29.82-12.175a9.928 9.928 0 0 1 3.127-7.518c9.658-9.747 42.646-12.105 67.965-11.165a3 3 0 1 1-.223 6c-30.763-1.144-56.867 2.718-63.48 9.392a3.856 3.856 0 0 0-1.395 3.024c.241 5.465 9.66 6 29.232 6.62 8.045.254 17.163.541 27.812 1.34a3 3 0 0 1 .065 5.978c-20.343 1.977-48.077 5.5-54.042 13.244a4.454 4.454 0 0 0-.973 3.631c.567 3.431 7.7 5.538 19.578 5.771 12.442.244 28.7-1.5 40.581-2.775a3 3 0 0 1 1.861 5.557c-1.38.826-2.806 1.671-4.259 2.532-11.792 6.986-31.527 18.679-29.554 24.556a5.651 5.651 0 0 0 3 3.63c5.385 2.5 16.391-1.857 25.234-5.358 1.681-.665 3.314-1.312 4.867-1.9 24.56-9.229 33.947-2.193 44.816 5.954a103.686 103.686 0 0 0 10.109 6.947c10.449 6.138 58.089 6.06 69.882-6.517a3 3 0 0 1 4.377 4.1c-8.314 8.867-29.026 12.459-47.3 12.46z" fill="#222433"/><path d="M478.044 358.279c-21.1 4.842-22.792-20.655-38.007-30.9-21.071-14.275-33.267-25.262-32.806-31.265 1.183-13.771 34.955 9.03 68.141 19.171 0 0 39.492 15.516 42.558 16.633" fill="#fff"/><path d="M473.069 361.882c-11.4 0-17.207-9.142-22.414-17.336-3.494-5.5-7.107-11.185-12.293-14.677-30.947-20.969-34.491-29.169-34.122-33.982a7.17 7.17 0 0 1 3.413-5.925c5.656-3.356 15.752.806 34.592 9.083 10.451 4.592 22.3 9.795 34 13.373.075.023.148.048.221.077.394.155 39.492 15.515 42.488 16.607a3 3 0 0 1-2.054 5.637c-3.016-1.1-39.782-15.542-42.52-16.617-12.007-3.679-23.982-8.94-34.551-13.583-12.116-5.323-25.85-11.357-29.116-9.417-.112.066-.409.242-.5 1.251-.121 1.581 1.786 8.393 31.5 28.524 6.219 4.187 10.174 10.412 14 16.431 6.531 10.279 11.071 16.455 21.654 14.027a3 3 0 0 1 1.342 5.848 25.2 25.2 0 0 1-5.64.679z" fill="#222433"/><path d="M571.42 568.966 374.694 799.9l-75.264 89.25-142.66-125.49 264.81-305.85a95 95 0 0 1 62.9-31.88l24.717-1.319" fill="#fff"/><path d="M299.43 892.15a3 3 0 0 1-1.981-.747l-142.66-125.49a3 3 0 0 1-.287-4.217l264.81-305.85a97.607 97.607 0 0 1 64.9-32.9l.106-.008 24.717-1.319a3 3 0 1 1 .32 5.991l-24.655 1.313a91.625 91.625 0 0 0-60.863 30.868L160.986 763.373l138.125 121.5 73.29-86.91L569.136 567.02a3 3 0 0 1 4.568 3.891L376.978 801.843l-75.255 89.241a3 3 0 0 1-2.07 1.058 3.445 3.445 0 0 1-.223.008z" fill="#222433"/><path d="M660.12 404.69c-1.66 31.71-40.32 54.66-66.16 32.4a12.757 12.757 0 0 1-1-.91c-11.13-10.22-24.06-18.66-45.51-13.32-15.12 3.77-37.19 11.75-40.25-2.67-2.12-10 23.3-20.38 41.76-28.71-29.13-.28-67.28-.69-67.93-13.86s18.82-17 56.58-16.32c-41.29-8-55.86-5-55-17.67 1.45-21 87-9.66 115.45 2.16 0 0 6.85 2.65 32 10.92 25.65 8.44 30.92 31.37 30.06 47.98z" fill="#fff"/><path d="M617.314 449A38.368 38.368 0 0 1 592 439.363a15.71 15.71 0 0 1-1.13-1.027c-11.943-10.952-23.786-17.274-42.7-12.565a335.7 335.7 0 0 0-5.621 1.473c-11.668 3.126-24.894 6.669-32.65 1.914a12.336 12.336 0 0 1-5.639-8.345c-2.14-10.094 13.6-18.521 31.138-26.532-32.91-.71-56.722-3.394-57.37-16.513a13 13 0 0 1 3.724-10.067c4.213-4.347 12.022-7.092 24.7-8.45-18.406-2.668-27.621-4.332-26.841-15.824.174-2.527 1.359-6.139 6.017-9.02 19.653-12.159 89.11-1.553 113.577 8.612s7.077 2.717 31.786 10.841c30.847 10.15 32.738 39.037 32.119 50.985-.9 17.234-12.592 33.548-29.089 40.6A42.489 42.489 0 0 1 617.314 449zm-57.173-30.8c15.2 0 25.728 7.4 34.848 15.771q.064.06.126.123a9.849 9.849 0 0 0 .765.692c10.088 8.69 23.12 10.551 35.79 5.139 14.439-6.167 24.668-20.39 25.454-35.389.547-10.572-1.085-36.119-28-44.975-24.936-8.2-31.862-10.863-32.145-10.972-25.6-10.634-91.877-19.17-108.186-9.079-3.018 1.867-3.146 3.719-3.188 4.328-.395 5.813 3.169 6.8 23.367 9.715 7.737 1.117 17.365 2.508 29.21 4.8a3 3 0 0 1 2.414 3.258 3.04 3.04 0 0 1-3.038 2.687c-18.629-.335-44.23.085-51.491 7.577a7.037 7.037 0 0 0-2.039 5.595c.114 2.314 2.954 6.553 20.689 8.939 13.163 1.77 30.413 1.936 44.274 2.069a3 3 0 0 1 1.2 5.734c-1.509.681-3.064 1.376-4.647 2.083-13.785 6.156-36.857 16.459-35.412 23.271a6.4 6.4 0 0 0 2.9 4.475c5.557 3.407 17.98.079 27.961-2.6 1.978-.53 3.9-1.044 5.723-1.5a55.431 55.431 0 0 1 13.425-1.741z" fill="#222433"/><path d="M725.59 110.92a33.214 33.214 0 1 1 27.371 32.732l.339 84.678a38.372 38.372 0 0 1-76.73 1.1l-.738-26.835a60.736 60.736 0 0 1-44.862-58.615 57.522 57.522 0 0 1 7.45-28.014l3.7-25.886-.007-.049a60.446 60.446 0 0 1 4.8-34.212l65.806.121a13.525 13.525 0 0 1 13.5 13.729z" fill="#fff"/><path d="M714.934 269.783a41.445 41.445 0 0 1-41.363-40.272l-.677-24.643a63.816 63.816 0 0 1-44.924-60.888 60.561 60.561 0 0 1 7.555-28.964l3.564-24.931a63.511 63.511 0 0 1 5.092-35.513 3 3 0 0 1 2.728-1.753h.006l65.805.121a16.527 16.527 0 0 1 16.493 16.775L728.9 90.5a36.246 36.246 0 1 1 29.94 56.67q-1.434 0-2.865-.112l.325 81.26a41.16 41.16 0 0 1-40.269 41.451c-.366.01-.731.014-1.097.014zM648.87 58.823a57.519 57.519 0 0 0-3.791 30.763 3.328 3.328 0 0 1 .011.919l-3.7 25.885a2.975 2.975 0 0 1-.331 1c-4.837 8.954-7.089 17.4-7.089 26.589a57.8 57.8 0 0 0 42.644 55.721 3 3 0 0 1 2.217 2.814l.738 26.836a35.372 35.372 0 0 0 70.731-1.013l-.339-84.671a3 3 0 0 1 3.527-2.965 30.318 30.318 0 0 0 27.471-9.143A30.25 30.25 0 0 0 738.2 88.8a30.375 30.375 0 0 0-9.6 21.2l-.014.971a3 3 0 0 1-6-.046q0-.53.016-1.058l.607-40.238a10.524 10.524 0 0 0-10.5-10.684z" fill="#222433"/><path d="M691.741 207.728a64.174 64.174 0 0 1-18.012-2.588 3 3 0 1 1 1.682-5.759 57.672 57.672 0 0 0 49.316-8.044 3 3 0 0 1 3.426 4.926 63.668 63.668 0 0 1-36.412 11.465zM659.77 122.23a3 3 0 0 1-2.951-3.538l4.96-27.21a3 3 0 0 1 5.9 1.076l-4.276 23.458 13.393-.771a3 3 0 1 1 .344 5.99l-17.2.99a3.154 3.154 0 0 1-.17.005z" fill="#222433"/><path d="M661.72 92.02c0 13-9.08 23.47-20.29 23.47s-20.31-10.51-20.31-23.47z" fill="#fff"/><path d="M641.43 118.49c-12.853 0-23.31-11.874-23.31-26.47a3 3 0 0 1 3-3h40.6a3 3 0 0 1 3 3c0 14.596-10.448 26.47-23.29 26.47zM624.3 95.02c1.231 9.87 8.442 17.47 17.125 17.47s15.875-7.6 17.105-17.47z" fill="#222433"/><path d="M715.12 92.02c0 13-9.08 23.47-20.28 23.47s-20.29-10.51-20.29-23.47z" fill="#fff"/><g fill="#222433"><path d="M694.84 118.49c-12.842 0-23.29-11.874-23.29-26.47a3 3 0 0 1 3-3h40.57a3 3 0 0 1 3 3c0 14.596-10.443 26.47-23.28 26.47zm-17.105-23.47c1.23 9.87 8.432 17.47 17.105 17.47s15.866-7.6 17.095-17.47z"/><path d="M730.83 95.02h-71.06a3 3 0 0 1 0-6h71.06a3 3 0 0 1 0 6zm-59.717 68.635c-8.621 0-17.656-6.584-19.257-21.75a3 3 0 0 1 2.687-3.3l33.439-3.33a3 3 0 0 1 3.3 2.9c.459 15.834-9.226 24.785-19.031 25.444-.38.023-.759.036-1.138.036zm-12.841-19.392c2.053 10.334 8.411 13.718 13.573 13.368 6.293-.423 12.507-6.031 13.352-16.049zm105.418-23.022a2.977 2.977 0 0 1-1.018-.179l-21.31-7.69a3 3 0 0 1-.084-5.613l28.98-11.439a3 3 0 1 1 2.2 5.581l-21.592 8.523 13.839 4.994a3 3 0 0 1-1.018 5.823z"/><circle cx="692.72" cy="98.84" r="6.4"/><circle cx="648.02" cy="98.64" r="6.4"/></g></svg></g><g transform="translate(109.0 53.0) rotate(0.0 229.0 313.5) translate(0.0 0.0) scale(0.6508862284980161 0.6491617323817817)"><svg width="702.12" height="962.78" viewBox="0 0 702.12 962.78"><path d="m112.71 233.173 98.191-8.176 37.984 9.02c10.645 3.944 25.396 18.902 28.728 29.754l18.468 96.443 119.329-4.141 17.128 69.804-139.535 3.078-88.236 24.624" fill="#fff"/><path d="M519.227 393.202c20.634 9.076 42.108 21.095 53.4 31.966l3.551 6.865-143.639-3.078-12.122-59.396" fill="#fff"/><path d="m576.178 435.034-.064-.001-143.639-3.078a3 3 0 0 1-2.875-2.399l-12.122-59.396a3 3 0 1 1 5.879-1.199L435 426.009l136.194 2.918-1-1.934c-10.022-9.482-29.467-21.056-52.174-31.043a3 3 0 1 1 2.416-5.492c23.589 10.375 43.878 22.543 54.273 32.55.236.227.433.492.584.783l3.552 6.865a3 3 0 0 1-2.667 4.378z" fill="#222433"/><path d="M518.722 962.473h120.45c2.565-28.04-12.02-54.86-42.143-64.279-31.954-9.976-47.111-29.014-49.884-49.92l-116.658-55.09-70.794 36.936 35.91 112.859 37.962 19.494z" fill="#fff"/><path d="M639.172 965.473H433.565c-.477 0-.946-.114-1.37-.331l-37.962-19.494a3.006 3.006 0 0 1-1.489-1.759l-35.91-112.859a3 3 0 0 1 1.471-3.569l70.794-36.936a3 3 0 0 1 2.669-.053l116.658 55.09a3 3 0 0 1 1.693 2.318c2.903 21.882 19.88 38.733 47.804 47.451 29.768 9.308 47.132 35.77 44.237 67.416a3 3 0 0 1-2.988 2.726zm-204.882-6h202.09c1.42-27.5-14.147-50.255-40.247-58.415-29.601-9.241-47.9-27.226-51.722-50.757l-113.858-53.768-67.237 35.08 34.767 109.267z" fill="#222433"/><path d="M450.481 373.838c-8.906-1.786-20.876-3.052-30.064-4.278" fill="#fff"/><path d="M450.484 376.838c-.196 0-.394-.019-.593-.059-6.538-1.311-14.971-2.365-22.412-3.294-2.602-.325-5.12-.64-7.459-.952a3 3 0 0 1 .793-5.947c2.323.31 4.824.622 7.409.945 7.543.942 16.093 2.01 22.848 3.365a3 3 0 0 1-.586 5.942z" fill="#222433"/><path d="M443.157 413.606c17.678 3.714 17.614-7.993 37.888-11.245 28.071-4.514 45.595-9.993 47.893-16.272 5.294-14.456-40.147-6.915-78.458-12.25" fill="#fff"/><path d="M449.401 417.319c-2.022 0-4.283-.236-6.86-.778a3 3 0 0 1 1.234-5.872c8.652 1.817 12.125-.344 17.381-3.617 4.375-2.724 9.82-6.115 19.414-7.654 39.734-6.39 44.911-12.593 45.551-14.341.435-1.188.17-1.574.057-1.739-2.459-3.581-19.216-3.853-34-4.093-13.139-.213-28.032-.455-42.112-2.416a3 3 0 0 1 .827-5.943c13.716 1.91 28.414 2.149 41.382 2.359 22.76.37 34.824.835 38.849 6.696.972 1.416 1.87 3.813.631 7.198-1.69 4.617-8.737 11.529-50.234 18.202-8.401 1.348-13.073 4.257-17.194 6.823-4.244 2.645-8.308 5.175-14.926 5.175zm-17.206 11.804a3.001 3.001 0 0 1-2.934-2.389l-14.09-67.646-118.623 5.653a2.994 2.994 0 0 1-3.083-2.402l-17.865-88.32c-5.035-24.901-30.412-44.258-60.341-46.028a65.38 65.38 0 0 0-9.295.098l-14.389 1.249a3 3 0 0 1-.519-5.977l14.403-1.25a71.61 71.61 0 0 1 10.157-.108c15.384.909 30.382 6.244 42.227 15.021 12.617 9.35 20.79 21.731 23.636 35.806l17.355 85.795 118.608-5.652a3.011 3.011 0 0 1 3.08 2.385l14.612 70.153a3 3 0 0 1-2.939 3.612z" fill="#222433"/><path d="m219.699 805.854 2.159 157.007 59.077-.759-1.159-47.083 88.022 47.842h153.2c1.974-27.81-17.055-55.149-43.729-63.263-15.519-4.72-27.681-10.291-59.764-25.26-19.989-9.326-35.381-22.858-43.575-40.916" fill="#fff"/><path d="M520.998 965.861h-153.2c-.5 0-.993-.125-1.433-.364l-83.462-45.364 1.031 41.895a3.001 3.001 0 0 1-2.96 3.073l-59.077.759a2.998 2.998 0 0 1-3.038-2.958L216.7 805.895a3 3 0 0 1 2.958-3.041c1.656-.042 3.018 1.302 3.041 2.958l2.118 154.01 53.044-.682-1.085-44.049a3 3 0 0 1 4.432-2.709l87.352 47.478h149.571c.492-25.525-17.03-49.878-41.735-57.393-15.573-4.737-27.619-10.229-60.16-25.411-21.719-10.134-36.872-24.397-45.039-42.395a3 3 0 1 1 5.463-2.48c7.558 16.657 21.727 29.926 42.112 39.437 32.255 15.049 44.183 20.489 59.369 25.108 28.213 8.582 47.924 37.104 45.848 66.345a2.998 2.998 0 0 1-2.991 2.79z" fill="#222433"/><path d="M258.561 495.711c12.171-4.955 19.143-24.363 26.888-28.456 16.069-4.306 33.77 7.107 46.834 8.811s20.264 4.652 21.701-6.594-37.902-31.286-37.902-31.286l30.383 1.168c40.202 4.436 39.309-13.59 39.309-13.59h71.786c53.572 5.27 92.729 52.97 87.46 106.543-.898 11.308-4.508 19.357-4.508 19.357L403.47 838.213l-203.937-35.91 48.222-105.052 18.56-40.465 23.023-54.644-141.69-.195c-30.136-.042-55.897-18.696-66.423-45.073.001 0 165.165-56.208 177.336-61.163z" fill="#5a38fd"/><path d="M112.71 233.173a25863.332 25863.332 0 0 0-26.15 2.278c-23.556 2.257-55.631 23.699-61.405 78.674L3.127 498.722c-2.097 31.952 22.105 59.555 54.057 61.652 7.613.5 15.25-.508 22.472-2.965l174.429-59.918" fill="#fff"/><path d="M61.026 563.501c-1.343 0-2.689-.044-4.039-.133-16.253-1.067-31.118-8.399-41.856-20.646C4.393 530.474-.934 514.779.133 498.525a4.27 4.27 0 0 1 .015-.159L22.176 313.77c2.647-25.207 11.232-46.245 24.821-60.798 10.911-11.686 25.228-19.161 39.278-20.507.558-.053 14.543-1.269 26.176-2.28a3 3 0 0 1 .52 5.978 22839.358 22839.358 0 0 0-26.125 2.275c-12.611 1.208-25.538 7.999-35.463 18.629-12.691 13.593-20.729 33.432-23.244 57.373L6.115 498.997c-.94 14.626 3.863 28.746 13.527 39.769 9.682 11.042 23.084 17.653 37.738 18.615a54.707 54.707 0 0 0 21.309-2.812l174.421-59.915a3 3 0 1 1 1.949 5.675L80.63 560.246a60.663 60.663 0 0 1-19.604 3.255z" fill="#222433"/><path d="M434.834 426.123h184.012c53.374 6.997 90.97 55.938 83.973 109.312-5.268 27.078-29.769 69.785-29.769 69.785l-76.283 159.481-14.887 31.118-29.559 61.796-150.672-48.876z" fill="#5a38fd"/><path d="M602.743 487.619c-.492 0-.991-.069-1.487-.215a5.256 5.256 0 0 1-3.576-3.575l-5.575-18.446a6.999 6.999 0 0 0-4.692-4.685l-18.424-5.594c-1.326-.389-2.443-1.29-3.119-2.527s-.829-2.664-.431-4.016a5.255 5.255 0 0 1 3.576-3.576l18.392-5.574a7.038 7.038 0 0 0 4.699-4.7l1.898-6.24a3 3 0 0 1 2.87-2.127h8.731c.1 0 .2.005.299.015 1.049.105 2.097.231 3.198.367a3 3 0 0 1 2.502 2.106l1.785 5.879a7.044 7.044 0 0 0 4.701 4.701l18.464 5.58c1.375.43 2.479 1.351 3.134 2.602s.784 2.683.363 4.031a5.287 5.287 0 0 1-3.494 3.477l-.011.004-18.468 5.592a7 7 0 0 0-4.698 4.687l-5.581 18.467c-.668 2.277-2.776 3.767-5.056 3.767zm-.689-5.493-.003.011zm1.373-.02.003.009-.003-.009zm-30.436-32.057 16.158 4.906a12.981 12.981 0 0 1 8.7 8.691l4.896 16.198 4.895-16.197a12.983 12.983 0 0 1 8.708-8.694l16.2-4.905-16.194-4.894a13.035 13.035 0 0 1-8.703-8.7l-1.216-4.004a88.36 88.36 0 0 0-.979-.105h-6.357l-1.251 4.111a13.03 13.03 0 0 1-8.698 8.697zm62.687 2.184h.01zm-64.937-1.502-.01.003a.126.126 0 0 1 .01-.003zm-.035-1.376.012.004-.012-.004z" fill="#222433"/><path d="m270.142 336.923 1.18 47.442" fill="#fff"/><g fill="#222433"><path d="M271.32 387.365a3 3 0 0 1-2.998-2.925l-1.18-47.442a3.001 3.001 0 0 1 5.998-.15l1.18 47.442a3.001 3.001 0 0 1-2.924 3.074l-.076.001zm-119.78-90.933c-33.97.002-62.667-25.383-66.392-59.692a3 3 0 1 1 5.965-.647 60.715 60.715 0 0 0 64.862 54.182c33.501-2.376 58.824-31.564 56.448-65.065a3 3 0 0 1 5.985-.425c2.61 36.802-25.208 68.865-62.009 71.474a69.055 69.055 0 0 1-4.859.173zm334.703 431.144c-.526 0-1.055-.08-1.573-.24a5.288 5.288 0 0 1-3.485-3.485l-5.588-18.489a7.042 7.042 0 0 0-4.698-4.687 3 3 0 0 1 1.741-5.741 13.032 13.032 0 0 1 8.699 8.685l4.897 16.204 4.895-16.197a13.031 13.031 0 0 1 8.701-8.692l16.157-4.897-16.158-4.906a13.007 13.007 0 0 1-8.693-8.62l-4.962-16.416a3.001 3.001 0 0 1 5.744-1.736l4.955 16.395a7.014 7.014 0 0 0 4.69 4.633l18.426 5.595c1.366.423 2.471 1.342 3.129 2.592s.791 2.681.372 4.03a5.287 5.287 0 0 1-3.486 3.485l-18.434 5.587a7.041 7.041 0 0 0-4.7 4.693l-5.579 18.461a5.264 5.264 0 0 1-2.593 3.133c-.77.408-1.61.613-2.457.613zm31.989-36.857h.01zm-124.251-49.667a5.285 5.285 0 0 1-1.534-.228 5.269 5.269 0 0 1-3.525-3.525l-5.591-18.466a7.012 7.012 0 0 0-4.687-4.688l-18.468-5.592c-2.768-.813-4.373-3.752-3.552-6.544a5.255 5.255 0 0 1 3.576-3.576l18.446-5.575a7.028 7.028 0 0 0 4.687-4.69l5.591-18.465a5.248 5.248 0 0 1 2.559-3.124 5.243 5.243 0 0 1 4.02-.4 5.267 5.267 0 0 1 3.524 3.523l5.592 18.468a7.03 7.03 0 0 0 4.69 4.688l18.463 5.58c2.77.814 4.374 3.753 3.554 6.545a5.255 5.255 0 0 1-3.576 3.576l-18.444 5.585a7.012 7.012 0 0 0-4.688 4.687l-5.592 18.468a5.248 5.248 0 0 1-2.559 3.124 5.239 5.239 0 0 1-2.486.629zm-29.8-37.555 16.201 4.905a12.997 12.997 0 0 1 8.691 8.692l4.901 16.185 4.901-16.185a12.997 12.997 0 0 1 8.692-8.691l16.2-4.905-16.199-4.896a13.024 13.024 0 0 1-8.692-8.689l-4.902-16.188-4.901 16.186a13.022 13.022 0 0 1-8.688 8.69zm61.866.689.01.003zm-64.125-.006-.009.003.009-.003zm64.112-1.369-.01.003zm-64.144-.007.012.004-.012-.004zM261.296 729.5a5.269 5.269 0 0 1-5.049-3.751l-5.591-18.467c-.76-2.509-2.165-4.09-4.178-4.7a3 3 0 1 1 1.738-5.742c3.938 1.192 6.844 4.283 8.182 8.704l4.901 16.186 4.901-16.186a12.997 12.997 0 0 1 8.692-8.691l16.2-4.905-16.199-4.896a13.024 13.024 0 0 1-8.692-8.689l-4.626-15.774a3 3 0 0 1 5.757-1.689l4.618 15.746a7.018 7.018 0 0 0 4.683 4.663l18.464 5.58c1.33.391 2.447 1.291 3.123 2.528s.829 2.664.431 4.016a5.257 5.257 0 0 1-3.577 3.576l-18.444 5.585a7.012 7.012 0 0 0-4.688 4.687l-5.592 18.468a5.287 5.287 0 0 1-5.054 3.751zm32.076-36.863a.126.126 0 0 1 .01.003zm-.013-1.376-.01.003zm281.868 120.255a2.996 2.996 0 0 1-2.506-1.347 7.048 7.048 0 0 0-3.827-2.853l-18.468-5.592c-2.768-.813-4.372-3.752-3.552-6.544a5.255 5.255 0 0 1 3.576-3.576l18.446-5.575a7.028 7.028 0 0 0 4.687-4.69l5.591-18.465a5.248 5.248 0 0 1 2.559-3.124 5.243 5.243 0 0 1 4.02-.4 5.267 5.267 0 0 1 3.525 3.525l4.156 13.728a3 3 0 0 1-5.743 1.739l-3.466-11.447-4.901 16.186a13.022 13.022 0 0 1-8.688 8.69l-16.204 4.897 16.201 4.905a13.053 13.053 0 0 1 7.094 5.288 3 3 0 0 1-2.5 4.655zm-23.054-14.164-.009.003.009-.003zm-.031-1.376.011.003-.011-.003zM659.557 635.54a3.001 3.001 0 0 1-2.86-2.098l-3.416-10.822a7.027 7.027 0 0 0-4.698-4.721l-18.468-5.592a5.227 5.227 0 0 1-3.121-2.528 5.237 5.237 0 0 1-.431-4.016 5.253 5.253 0 0 1 3.576-3.576l18.445-5.575a7.028 7.028 0 0 0 4.687-4.69l5.591-18.465a5.284 5.284 0 0 1 6.579-3.523 5.269 5.269 0 0 1 3.525 3.525l5.591 18.466c.618 2.033 1.628 3.396 3.087 4.165a2.999 2.999 0 1 1-2.796 5.308c-2.91-1.532-4.94-4.134-6.033-7.732l-4.902-16.188-4.901 16.185a13.022 13.022 0 0 1-8.688 8.69l-16.203 4.897 16.2 4.905a12.997 12.997 0 0 1 8.691 8.692l3.405 10.788a3 3 0 0 1-2.86 3.905zm-27.695-27.605-.01.003.01-.003zm-.032-1.377.012.003a.027.027 0 0 1-.012-.003zM414.05 796.671a5.267 5.267 0 0 1-5.049-3.751l-5.591-18.467a7.011 7.011 0 0 0-4.688-4.688l-18.468-5.592c-2.768-.813-4.373-3.752-3.552-6.544a5.255 5.255 0 0 1 3.576-3.576l18.446-5.575a7.03 7.03 0 0 0 4.687-4.69l5.591-18.465c.408-1.348 1.317-2.458 2.559-3.124s2.671-.808 4.02-.399a5.266 5.266 0 0 1 3.524 3.524l5.591 18.467a7.033 7.033 0 0 0 4.691 4.689l14.409 4.354a3 3 0 0 1-1.736 5.744l-14.414-4.356a13.024 13.024 0 0 1-8.692-8.689l-4.901-16.188-4.901 16.186a13.027 13.027 0 0 1-8.688 8.691l-16.204 4.897 16.201 4.905a12.999 12.999 0 0 1 8.692 8.692l4.901 16.186 4.9-16.186a12.997 12.997 0 0 1 8.692-8.691l10.597-3.209a3.001 3.001 0 0 1 1.739 5.743l-10.598 3.209a7.012 7.012 0 0 0-4.688 4.687l-5.592 18.468a5.286 5.286 0 0 1-5.054 3.748zm-32.049-36.87-.009.003zm-.031-1.376.011.003-.011-.003zm133.248-173.724c-.5 0-1.002-.072-1.495-.216a5.256 5.256 0 0 1-3.577-3.577l-5.574-18.391a7.04 7.04 0 0 0-4.7-4.699l-18.464-5.58c-2.77-.814-4.374-3.752-3.554-6.544a5.257 5.257 0 0 1 3.577-3.576l18.445-5.575a7.041 7.041 0 0 0 4.697-4.699l5.58-18.464a5.267 5.267 0 0 1 2.593-3.133 5.25 5.25 0 0 1 4.03-.372 5.288 5.288 0 0 1 3.485 3.485l5.588 18.489a7.041 7.041 0 0 0 4.699 4.697l13.573 4.114a3 3 0 0 1 2.063 3.504 94.859 94.859 0 0 1-1.251 5.098 2.987 2.987 0 0 1-.186.498l-1.529 3.201a3 3 0 0 1-1.837 1.578l-10.834 3.283a7.04 7.04 0 0 0-4.699 4.7l-5.581 18.415a5.224 5.224 0 0 1-2.528 3.12 5.28 5.28 0 0 1-2.521.644zm-.697-5.495-.003.011zm1.372-.024.003.01a.126.126 0 0 1-.003-.01zm-30.478-32.002 16.197 4.895a13.032 13.032 0 0 1 8.702 8.7l4.896 16.156 4.896-16.154a13.03 13.03 0 0 1 8.699-8.7l9.569-2.9.843-1.764c.165-.607.324-1.217.476-1.828l-10.886-3.3a13.03 13.03 0 0 1-8.7-8.699l-4.896-16.201-4.895 16.197a13.032 13.032 0 0 1-8.7 8.702zm-2.261.683-.01.003a.126.126 0 0 1 .01-.003zm-.032-1.376.011.003-.011-.003zm-138.668-87.581a3.002 3.002 0 0 1-.867-5.873l8.208-2.48a7.042 7.042 0 0 0 4.698-4.693l2.229-7.374a3.001 3.001 0 0 1 5.744 1.736l-2.231 7.381a13.033 13.033 0 0 1-8.701 8.692l-8.21 2.481a3 3 0 0 1-.87.13zm22.682 39.806c-.5 0-1.002-.072-1.495-.216a5.255 5.255 0 0 1-3.576-3.576l-5.574-18.393a7.037 7.037 0 0 0-3.769-4.334 3 3 0 0 1 2.525-5.443 13.045 13.045 0 0 1 6.985 8.035l4.897 16.158 4.906-16.158a12.971 12.971 0 0 1 8.694-8.69l16.153-4.904-16.157-4.896a12.998 12.998 0 0 1-8.691-8.691l-2.589-8.549a3 3 0 0 1 5.743-1.739l2.589 8.55a7.011 7.011 0 0 0 4.688 4.688l18.417 5.582c2.767.813 4.372 3.752 3.552 6.544a5.255 5.255 0 0 1-3.576 3.576l-18.391 5.584a6.99 6.99 0 0 0-4.689 4.685l-5.594 18.422a5.23 5.23 0 0 1-2.527 3.119 5.26 5.26 0 0 1-2.521.646zm-.697-5.495-.004.012zm1.372-.023.003.01a.022.022 0 0 0-.003-.01zm31.344-31.314.012.004zm-.014-1.374-.01.003zM237.178 601.038a5.286 5.286 0 0 1-1.534-.229 5.269 5.269 0 0 1-3.525-3.525l-5.591-18.413a7.024 7.024 0 0 0-4.691-4.701l-18.415-5.581c-2.768-.813-4.372-3.752-3.552-6.544a5.255 5.255 0 0 1 3.576-3.576l18.392-5.574a7.02 7.02 0 0 0 4.688-4.696l5.592-18.47a5.248 5.248 0 0 1 2.559-3.124 5.243 5.243 0 0 1 4.02-.4 5.267 5.267 0 0 1 3.524 3.523l5.592 18.468a7.043 7.043 0 0 0 4.693 4.7l18.412 5.58c2.767.813 4.372 3.751 3.552 6.544a5.257 5.257 0 0 1-3.576 3.576l-18.392 5.574a7.04 7.04 0 0 0-4.689 4.699l-5.592 18.418a5.238 5.238 0 0 1-2.559 3.121 5.215 5.215 0 0 1-2.484.63zm-29.752-37.504 16.154 4.896a13.009 13.009 0 0 1 8.691 8.703l4.9 16.139 4.901-16.143a13.033 13.033 0 0 1 8.685-8.698l16.159-4.897-16.154-4.896a13.037 13.037 0 0 1-8.69-8.7l-4.901-16.187-4.901 16.185a13.007 13.007 0 0 1-8.689 8.701zm61.766.69a.164.164 0 0 1 .011.003zm-64.018-.007-.01.003a.126.126 0 0 1 .01-.003zm64.005-1.369-.01.003zm-64.04-.007.012.003-.012-.003zm31.341-31.374.001.004-.001-.002v-.002z"/></g><path d="M199.122 442.087c-.236 43.759 32.35 62.586 54.963 55.404 14.592-4.635 23.4-18.242 27.663-29.109" fill="#fff"/><path d="M244.218 501.988c-8.711 0-17.72-3.011-25.498-8.733-8.509-6.26-22.759-21.235-22.597-51.184a3.007 3.007 0 0 1 3.016-2.984 3 3 0 0 1 2.984 3.016c-.147 27.291 12.563 40.734 20.153 46.318 9.525 7.009 21.077 9.331 30.901 6.21 15.518-4.928 23.197-20.765 25.778-27.345a3 3 0 0 1 5.585 2.191c-2.895 7.38-11.57 25.163-29.547 30.873-3.461 1.099-7.092 1.638-10.775 1.638z" fill="#222433"/><path d="M199.163 439.173c-1.518 32.545 35.612 59.918 64.258 39.819.39-.277.77-.544 1.139-.821 12.404-9.306 26.471-16.601 47.822-8.967 15.051 5.386 36.772 15.78 41.368 1.365 3.181-9.993-21.71-23.177-39.716-33.56 29.754 2.688 68.742 6.156 70.794-7.182s-26.101-18.519-64.72-21.71c42.958-3.93 66.156-.072 66.556-13.153.657-21.546-87.794-18.724-118.082-9.542 0 0-7.264 2.001-33.776 7.88-27.127 5.96-34.832 28.788-35.643 45.871z" fill="#fff"/><path d="M242.238 488.888c-6.86 0-13.833-1.83-20.521-5.509-16.107-8.858-26.375-26.679-25.551-44.345v-.002c.581-12.248 5.447-41.508 37.996-48.66 26.052-5.777 33.551-7.822 33.624-7.842 25.926-7.861 97.875-11.617 116.689 2.789 4.429 3.391 5.265 7.167 5.187 9.737-.269 8.779-8.763 10.862-11.554 11.547-5.818 1.427-14.092 1.903-24.482 2.404 17.664 2.981 27.427 6.916 31.775 12.429 2.084 2.642 2.888 5.619 2.392 8.848-2.042 13.273-26.741 13.527-60.523 10.867 17.183 10 32.55 20.242 29.339 30.329-1.182 3.708-3.393 6.367-6.57 7.904-8.374 4.052-21.498-.905-33.078-5.278-1.931-.729-3.808-1.438-5.59-2.076-18.899-6.757-31.662-1.472-45.01 8.542-.341.256-.688.502-1.044.755l-.158.112c-7.066 4.956-14.917 7.449-22.921 7.449zm-40.078-49.573c-.719 15.431 8.302 31.026 22.449 38.806 12.409 6.824 25.928 6.246 37.089-1.585l.147-.104c.312-.221.618-.438.916-.661 12.89-9.67 27.946-17.502 50.631-9.392 1.814.649 3.724 1.37 5.689 2.112 9.932 3.75 22.291 8.416 28.345 5.49 1.684-.814 2.785-2.188 3.466-4.324 2.187-6.871-20.372-19.764-33.851-27.467-1.535-.877-3.043-1.739-4.506-2.583a3 3 0 0 1 1.768-5.586c14.153 1.279 31.769 2.869 45.414 2.408 18.419-.623 21.781-4.69 22.145-7.059.24-1.561-.132-2.902-1.172-4.22-6.82-8.647-37.983-12.156-60.829-14.044a3 3 0 0 1-.026-5.978c11.891-1.088 22.071-1.572 31.053-2 22.587-1.075 32.581-1.822 32.778-8.258.019-.632.078-2.558-2.837-4.79-16.167-12.378-84.059-10.071-111.376-1.789-.373.104-7.713 2.109-33.997 7.938-28.504 6.264-32.78 32.219-33.296 43.086z" fill="#222433"/><path d="m128.534 358.92-4.001 60.729 104.348-24.681" fill="#fff"/><path d="M124.532 422.648a3.003 3.003 0 0 1-2.994-3.198l4.001-60.729a3 3 0 0 1 5.987.395l-3.734 56.677 100.398-23.746a3 3 0 1 1 1.381 5.839l-104.349 24.68a2.886 2.886 0 0 1-.69.082zm280.285 415.744a3 3 0 0 1-2.704-4.295l135.693-283.728c.001-.006 3.382-7.699 4.224-18.3 2.462-25.039-4.926-49.157-20.797-67.969-15.785-18.709-38.382-30.38-63.627-32.863a3 3 0 1 1 .587-5.971c26.81 2.637 50.827 15.054 67.626 34.965 16.925 20.06 24.805 45.761 22.188 72.369-.923 11.635-4.601 19.943-4.757 20.291L407.525 836.686a3 3 0 0 1-2.708 1.706z" fill="#222433"/><path d="m104.103 153.016 9.277 86.396c2.334 21.235 21.167 36.741 42.456 34.956 21.667-1.838 37.751-20.879 35.941-42.548l-2.311-27.481c16.044-6.346 29.396-19.274 35.714-36.779 8.525-23.621 2.034-50.052-16.464-67.037a62.707 62.707 0 0 0 2.35-14.723c1.361-34.379-25.406-63.353-59.785-64.714l-43.981 26.2" fill="#fff"/><path d="M152.419 277.511c-21.515 0-39.625-15.969-42.021-37.771l-9.278-86.404a3 3 0 1 1 5.966-.64l9.277 86.396c2.172 19.764 19.401 33.948 39.222 32.286 19.975-1.695 34.871-19.329 33.202-39.309l-2.311-27.479a3 3 0 0 1 1.886-3.041c15.836-6.263 28.227-19.023 33.996-35.007 8.138-22.549 1.987-47.595-15.671-63.809a2.998 2.998 0 0 1-.856-3.031 59.752 59.752 0 0 0 2.237-14.019c.627-15.828-4.948-30.952-15.696-42.586-10.549-11.418-24.842-18.134-40.331-18.972l-43.206 25.738a3 3 0 0 1-3.071-5.155l43.981-26.199a2.971 2.971 0 0 1 1.654-.42c17.428.69 33.545 8.125 45.38 20.937s17.974 29.465 17.284 46.893a65.733 65.733 0 0 1-1.984 13.654c18.418 17.874 24.676 44.751 15.923 69.005-6.099 16.901-18.919 30.527-35.363 37.69l2.128 25.3c1.944 23.274-15.406 43.814-38.677 45.789a44.123 44.123 0 0 1-3.671.154z" fill="#222433"/><path d="M166.623 211.709c-7.51 0-15.023-1.29-22.207-3.875a3 3 0 0 1 2.032-5.646 59.562 59.562 0 0 0 41.935-.596 3 3 0 0 1 2.191 5.585 65.572 65.572 0 0 1-23.951 4.532z" fill="#222433"/><path d="M204.078 1.802A23.082 23.082 0 0 0 184.8 12.175C178.755.93 164.739-3.285 153.495 2.76a23.113 23.113 0 0 0-9.078 8.81C138.062 2.789 125.791.822 117.01 7.177a19.632 19.632 0 0 0-7.6 11.41c-8.97-4.5-19.889-.876-24.389 8.094a18.167 18.167 0 0 0-1.435 12.354c-9.553 3.146-14.747 13.441-11.601 22.994a18.209 18.209 0 0 0 4.778 7.529c-9.183 4.131-13.278 14.924-9.148 24.107a18.265 18.265 0 0 0 1.691 2.98c10.087-8.753 22.135-11.889 31.814-9.789 9.628 2.089 23.99 9.783 27.413 29.796h2.869l-4.816-42.128c-.918-6.938 3.934-13.316 10.865-14.282l64.802-9.008c17.852-4.884 25.034-13.512 25.034-26.276.023-12.766-10.308-23.134-23.074-23.157a6.166 6.166 0 0 1-.135.001z" fill="#5a38fd"/><path d="M178.723 121.478a3 3 0 0 1-.156-5.996l13.836-.732-7.051-23.523a3 3 0 1 1 5.747-1.723l8.146 27.178a3 3 0 0 1-2.716 3.857l-17.647.934a2.094 2.094 0 0 1-.159.005z" fill="#222433"/><circle cx="160.463" cy="100.493" fill="#222433" r="6.566"/><circle cx="202.949" cy="95.219" fill="#222433" r="6.566"/><path d="M128.339 116.673c-1.756-16.582-15.462-29.795-32.615-30.454-18.827-.723-34.676 13.952-35.399 32.779s13.952 34.676 32.779 35.399a34.117 34.117 0 0 0 20.46-5.857" fill="#fff"/><path d="M94.447 157.423c-.485 0-.971-.009-1.458-.028-20.45-.786-36.448-18.062-35.662-38.512.381-9.906 4.596-19.071 11.87-25.807 7.274-6.735 16.729-10.235 26.642-9.855 18.303.703 33.557 14.949 35.483 33.136a3 3 0 0 1-5.966.632c-1.614-15.243-14.402-27.183-29.747-27.773-8.296-.316-16.237 2.615-22.335 8.262s-9.632 13.33-9.951 21.635c-.659 17.144 12.753 31.627 29.897 32.286a30.902 30.902 0 0 0 18.661-5.342 3 3 0 0 1 3.368 4.966c-6.194 4.201-13.357 6.4-20.802 6.4zm96.108-.852c-8.143 0-17.216-4.5-20.381-15.27a3 3 0 1 1 5.757-1.691c2.562 8.72 10.52 11.715 16.832 10.806 5.351-.77 11.599-4.732 11.599-13.366a3 3 0 1 1 6 0c0 11.672-8.41 18.106-16.744 19.305a21.75 21.75 0 0 1-3.063.216z" fill="#222433"/><path d="M90.297 131.318a3 3 0 0 1-1.326-5.693l13.724-6.744-23.18-6.29a3.001 3.001 0 0 1 1.571-5.791l30.852 8.372a3 3 0 0 1 .538 5.587l-20.858 10.25c-.425.21-.876.309-1.321.309z" fill="#222433"/></svg></g><g transform="translate(86.0 507.0) rotate(0.0 79.5 86.5) scale(0.6706766663573399 0.66865071696363)"><svg width="237.074" height="258.73" viewBox="0 0 237.074 258.73"><path d="M151.982 28.88a3 3 0 0 1-3-3c0-10.962-8.918-19.88-19.88-19.88h-21.12c-10.972 0-19.89 8.918-19.89 19.88a3 3 0 1 1-6 0c0-14.27 11.61-25.88 25.88-25.88h21.13c14.27 0 25.88 11.61 25.88 25.88a3 3 0 0 1-3 3z" fill="#222433"/><path d="M164.251 26.68h-91.41c-22.386-.012-41.53 16.093-45.35 38.15l-23.8 137c-4.363 25.028 12.389 48.854 37.417 53.217 2.62.457 5.274.685 7.933.683h139c25.405.018 46.015-20.561 46.033-45.967a46.053 46.053 0 0 0-.683-7.933l-23.79-137c-3.82-22.057-22.964-38.162-45.35-38.15z" fill="#fff"/><g fill="#222433"><path d="M188.075 258.73H49.041a49.858 49.858 0 0 1-8.448-.728c-12.894-2.248-24.141-9.382-31.669-20.089S-1.512 214.209.736 201.315l23.8-136.998a48.9 48.9 0 0 1 48.28-40.637h91.435-.001.027a48.898 48.898 0 0 1 48.281 40.638l23.79 136.999c.485 2.782.73 5.625.728 8.449-.021 27.005-22 48.962-49.001 48.964zm-139.037-6h139.034c23.699 0 42.985-19.269 43.002-42.969a43.105 43.105 0 0 0-.639-7.416l-23.79-137.002a42.912 42.912 0 0 0-42.37-35.663H72.817a42.91 42.91 0 0 0-42.371 35.662l-23.8 137.001c-1.973 11.317.579 22.723 7.185 32.119s16.476 15.656 27.791 17.629c2.431.424 4.916.639 7.384.639z"/><path d="M95.772 232.83c-8.759 0-16.251-5.96-18.221-14.496l-5.919-25.588c-1.124-4.872-.283-9.888 2.367-14.125s6.791-7.19 11.661-8.313a18.676 18.676 0 0 1 4.194-.478h57.372c4.999.002 9.697 1.951 13.229 5.487s5.476 8.235 5.473 13.233c0 1.41-.162 2.821-.479 4.195l-5.92 25.591c-1.973 8.53-9.465 14.49-18.222 14.494H95.772zm-5.918-57c-.956 0-1.915.11-2.847.325a12.622 12.622 0 0 0-7.921 5.647 12.626 12.626 0 0 0-1.608 9.594l5.919 25.588a12.641 12.641 0 0 0 12.376 9.846h45.531-.001a12.653 12.653 0 0 0 12.378-9.846l5.92-25.59a12.73 12.73 0 0 0 .325-2.847c.002-3.396-1.318-6.588-3.718-8.99s-5.59-3.726-8.985-3.727zm66.833-96.61h-76.3a3 3 0 1 1 0-6h76.3a3 3 0 1 1 0 6zm-38.15 73.25c-14.033 0-25.45-11.417-25.45-25.45s11.417-25.45 25.45-25.45 25.45 11.417 25.45 25.45-11.416 25.45-25.45 25.45zm0-44.9c-10.725 0-19.45 8.725-19.45 19.45s8.725 19.45 19.45 19.45 19.45-8.725 19.45-19.45-8.725-19.45-19.45-19.45z"/></g></svg></g><g transform="translate(722.0 212.0) rotate(0.0 105.5 60.0) scale(0.6282098995161891 0.6315457081206253)"><svg width="335.875" height="190.01" viewBox="0 0 335.875 190.01"><path d="M332.875 170.041h-53L257.595 23.47c-1.79-11.776-11.918-20.477-23.83-20.47H27.095C13.79 2.997 3.003 13.781 3 27.085c0 1.217.092 2.432.275 3.635l23.77 156.29h286.7" fill="#fff"/><path d="M313.745 190.01h-286.7a3 3 0 0 1-2.966-2.549L.309 31.171A27.248 27.248 0 0 1 0 27.085C.003 12.15 12.157 0 27.09 0h206.69c13.491 0 24.752 9.678 26.78 23.019l21.893 144.021h50.421a3 3 0 1 1 0 6h-53a3 3 0 0 1-2.966-2.549L254.628 23.92C253.051 13.535 244.282 6 233.779 6H27.091C15.463 6 6.002 15.458 6 27.086c0 1.062.081 2.133.241 3.183L29.623 184.01h284.122a3 3 0 1 1 0 6z" fill="#222433"/><ellipse cx="127.635" cy="108.315" fill="#82b1ff" rx="16.05" ry="19.4" transform="matrix(.7178 -.6963 .6963 .7178 -39.3953 119.4414)"/></svg></g><g transform="translate(448.0 75.0) rotate(0.0 166.0 127.5) scale(0.6618819776714513 0.6626819126819127)"><svg width="501.6" height="384.8" viewBox="0 0 501.6 384.8"><g fill="#222433"><path d="M51.8 298.22a3 3 0 1 1 0-6c49.663 0 74.605-35.505 98.726-69.841 23.582-33.568 47.966-68.279 94.994-68.279 46.184 0 70.698-16.038 96.652-33.018 30.48-19.941 65.027-42.542 140.058-42.542a3 3 0 1 1 0 6c-73.243 0-105.54 21.129-136.773 41.563-26.723 17.483-51.965 33.997-99.937 33.997-43.91 0-66.339 31.927-90.084 65.728-25.002 35.59-50.855 72.392-103.636 72.392z"/><path d="M252.8 213.45c-47.747 0-81.146-34.898-113.447-68.647C111.234 115.422 84.673 87.67 51.8 87.67a3 3 0 1 1 0-6c35.436 0 62.857 28.651 91.888 58.985 31.429 32.839 63.927 66.795 109.112 66.795 39.061 0 62.349-16.951 89.314-36.579 32.141-23.395 68.57-49.911 140.115-49.911a3 3 0 1 1 0 6c-69.593 0-105.184 25.906-136.584 48.762-26.655 19.402-51.832 37.728-92.845 37.728z"/><path d="M51.8 384.8a3 3 0 0 1-3-3V3a3 3 0 1 1 6 0v378.8a3 3 0 0 1-3 3z"/><path d="M62.16 345.46H41.37a3 3 0 1 1 0-6h20.79a3 3 0 1 1 0 6zm0-47.24H41.37a3 3 0 1 1 0-6h20.79a3 3 0 1 1 0 6zm0-47.24H41.37a3 3 0 1 1 0-6h20.79a3 3 0 1 1 0 6zm0-47.24H41.37a3 3 0 1 1 0-6h20.79a3 3 0 1 1 0 6zm0-47.24H41.37a3 3 0 1 1 0-6h20.79a3 3 0 1 1 0 6zm0-47.24H41.37a3 3 0 1 1 0-6h20.79a3 3 0 1 1 0 6zm0-47.24H41.37a3 3 0 1 1 0-6h20.79a3 3 0 1 1 0 6z"/></g><circle cx="248.31" cy="210.45" fill="#82b1ff" r="19.37"/><circle cx="186.8" cy="186.58" fill="#82b1ff" r="19.37"/><circle cx="482.23" cy="126.19" fill="#82b1ff" r="19.37"/><circle cx="482.23" cy="81.54" fill="#82b1ff" r="19.37"/><path d="M348.67 329.92h-3.14a11.854 11.854 0 0 1-3.058-.404c-6.306-1.691-10.06-8.198-8.369-14.503l7.001-26.003a3 3 0 1 1 5.794 1.56l-7 26a5.848 5.848 0 0 0 5.636 7.35h3.137a3 3 0 1 1-.001 6z" fill="#222433"/><path d="M348.53 306.54h-15.41a3 3 0 1 1 0-6h15.41a3 3 0 1 1 0 6zM33.67 36.46h-3.39a13.35 13.35 0 0 1-12.372-8.274l-4.349-10.498A7.368 7.368 0 0 0 6.73 13.12H3a3 3 0 1 1 0-6h3.73a13.348 13.348 0 0 1 12.372 8.274l4.349 10.498a7.369 7.369 0 0 0 6.829 4.568h3.39a3 3 0 1 1 0 6z" fill="#222433"/><path d="M7.184 36.46H3.599a3 3 0 1 1 0-6h3.584a6.96 6.96 0 0 0 6.452-4.315l4.181-10.092a12.944 12.944 0 0 1 11.996-8.021h3.258a3 3 0 1 1 0 6h-3.258a6.96 6.96 0 0 0-6.452 4.315l-4.18 10.092A12.944 12.944 0 0 1 7.184 36.46z" fill="#222433"/></svg></g><g transform="translate(359.0 328.0) rotate(0.0 284.0 2.0) scale(0.6631044261053005 0.6666666666666666)"><svg width="856.577" height="6" viewBox="0 0 856.577 6"><path d="M853.577 6H3a3 3 0 1 1 0-6h850.577a3 3 0 1 1 0 6z" fill="#222433"/></svg></g><g transform="translate(295.0 204.0) rotate(0.0 69.0 62.5) scale(0.6373339121679976 0.6368842602971447)"><svg width="216.527" height="196.268" viewBox="0 0 216.527 196.268"><path d="M119 196.268 155.967 96a265.542 265.542 0 0 1 56.14-91.29l4.42-4.71h-136l-4.17 4.42a265.592 265.592 0 0 0-56.39 91.56L0 150.268s108-14 104 16c-.836 6.269 2 12-35 13 33 5 33 17 33 17z" fill="#82b1ff"/></svg></g><g transform="translate(75.0 675.0) rotate(0.0 558.5 4.0) scale(0.6867929168716183 0.7017543859649122)"><svg width="1626.4" height="11.4" viewBox="0 0 1626.4 11.4"><path d="M1623.4 8.8H3c-1.7 0-3-1.3-3-3s1.3-3 3-3h1620.4c1.7 0 3 1.3 3 3s-1.3 3-3 3z" fill="#222433"/></svg></g></svg>