<svg xmlns="http://www.w3.org/2000/svg" viewBox="0 0 1500 1500" width="1500" height="1500"><g transform="translate(818.0 215.0) rotate(0.0 198.0 448.0) scale(1.771043439759925 1.7687166144868944)"><svg width="223.597" height="506.582" viewBox="0 0 223.597 506.582"><path d="M223.597 506.582H0V0h48.55c96.676 0 175.047 78.371 175.047 175.047z" fill="#050c04"/></svg></g><g transform="translate(286.0 122.0) rotate(0.0 269.0 658.0) translate(0.0 0.0) scale(2.4346535370356963 2.4373710471434973)"><svg width="220.976" height="497.257" viewBox="0 0 220.976 497.257"><path d="M220.976 539.926H0V200.595C0 89.809 89.809 0 200.595 0h20.381z" fill="#115693"/></svg></g><g transform="translate(287.0 657.0) rotate(0.0 463.5 332.0) scale(2.3918013076212543 2.3963765631484923)"><svg width="387.574" height="277.085" viewBox="0 0 387.574 277.085"><path d="M.766 277.085 0 78.702l56.106 63.958-8.617-55.915 63.575 42.51 93.447-59.744 42.127 5.361L387.574 0v277.085z" fill="#ee442b"/></svg></g><g transform="translate(285.0 811.0) rotate(0.0 464.5 285.0) scale(2.398539704997689 2.3959445485956405)"><svg width="387.319" height="237.902" viewBox="0 0 387.319 237.902"><g fill="#ffeea6"><path d="M0 109.021 387.319.766l-.391 237.136L.73 237.51z"/><circle cx="287.617" cy="33.319" r="14.936"/><circle cx="325.532" cy="20.681" r="11.872"/><circle cx="305.426" cy="19.34" r="19.34"/></g></svg></g><g transform="translate(285.0 885.0) rotate(0.0 464.5 247.5) scale(2.396961612492066 2.3926798497687076)"><svg width="387.574" height="206.881" viewBox="0 0 387.574 206.881"><path d="m0 115.277 34.2 16.54c46.829 22.649 101.935 20.085 146.459-6.813L387.574 0v206.881H0z" fill="#108e82"/></svg></g><g transform="translate(520.0 538.0) rotate(0.0 335.0 421.5) scale(2.162476196623955 2.1642298756145464)"><svg width="309.83" height="389.515" viewBox="0 0 309.83 389.515"><path d="M140.501 184.077c.169-2.049.24-4.127.197-6.23-.65-32.07-26.926-58.224-58.998-58.732-21.272-.338-40.052 10.406-50.963 26.828l-.034-.027-.988 1.621c-.179.289-.356.578-.53.869a191.617 191.617 0 0 0-24.912 65.549L.734 233.496c-3.764 20.784 7.242 41.432 26.595 49.893a22.732 22.732 0 0 0 23.474-3.213l31.667-25.832a69.483 69.483 0 0 0-4.98 25.87c0 23.958 12.092 45.088 30.501 57.635v51.667l172.91-.281v-35.313c-.001-84.382-60.448-154.633-140.4-169.845z" fill="#ffc1a3"/><path d="M140.507 184.107c.169-2.049.24-4.127.197-6.23-.65-32.07-26.926-58.224-58.998-58.732-21.272-.338-40.052 10.406-50.963 26.828l-.034-.027-.988 1.621c-.179.289-.356.578-.53.869a191.591 191.591 0 0 0-24.912 65.548L.74 233.525c-3.764 20.784 7.242 41.432 26.595 49.893a22.732 22.732 0 0 0 23.474-3.213l31.667-25.832a69.483 69.483 0 0 0-4.98 25.87c0 23.958 12.092 45.088 30.501 57.635v51.667h172.91v-35.594c-.001-84.381-60.448-154.632-140.4-169.844z" fill="#ffc1a3"/><circle cx="45.054" cy="187.956" fill="#0f0f0e" r="12.364"/><path d="M41.536 137.598C32.973 101.241 32 44.213 88.468 0c0 0 32.99 87.52-5.01 145.236-11.129 16.903-37.282 12.061-41.922-7.638z" fill="#ffc1a3"/><path d="M66.638 134.809S39.829 96.128 82.34 31.022c0-.001 21.83 57.446-15.702 103.787z" fill="#ee442b"/><path d="m10.178 270.317 9.353-21.253-19.507-6.01a45.627 45.627 0 0 0 10.154 27.263z" fill="#050c04"/><path d="M175.021 389.234s-6.128-76.085 58.213-78.128" fill="#ffc1a3"/><g fill="#050c04"><path d="M171.533 389.515c-.129-1.598-2.907-39.414 18.44-63.3 10.521-11.772 25.038-18.032 43.149-18.607l.223 6.997c-16.122.512-28.958 5.988-38.153 16.275-19.37 21.673-16.659 58.273-16.631 58.635zM140.34 279.439h7v110.106h-7zm-17.559-66.648-6.838-1.496c-3.407 15.575-21.889 33.291-33.506 43.136A69.547 69.547 0 0 0 78.9 266.3c8.094-6.162 38.933-30.892 43.881-53.509z"/></g><path d="M305.819 389.453a25.151 25.151 0 0 0 3.727-13.213c0-13.96-11.317-25.277-25.276-25.277-13.96 0-25.277 11.317-25.277 25.277a25.16 25.16 0 0 0 3.727 13.213z" fill="#ffc1a3"/></svg></g><g transform="translate(399.0 168.0) rotate(0.0 407.5 232.0) scale(2.405861445996529 2.413160043478487)"><svg width="338.756" height="192.279" viewBox="0 0 338.756 192.279"><path d="M338.756 146.93 206.791 77.093 34.012 89.337l172.325 6.803 131.966 96.139z" fill="#ee442b"/><path d="m248.058 103.849-4.081-57.14 32.651 72.105zm-109.29-19.954L91.151 51.698l31.291 34.465zm91.831 21.768-46.483 22.674 68.477-8.843z" fill="#ee442b"/><g fill="#108e82"><path d="M64.194 1.854S51.212 51.957 102.423 64.26c0 0 17.626-45.838-38.229-62.406zM78 91.605S58.953 53.512 0 87.524c0-.001 44.895 44.441 78 4.081zm175.047-25.396S205.204 42.174 221.303 0c0 0 48.069 10.884 31.744 66.209zm-56.319 56.013s-11.481 30.782-38.733 24.065c0 0 3.324-29.967 38.733-24.065zm9.176-43.557s-29.595-14.264-20.4-40.783c0 .001 29.534 6.067 20.4 40.783zm91.203 73.369s-18.083 27.429-43.139 14.779c0 0 9.95-28.462 43.139-14.779zm-23.401-39.609s-.182-32.853 27.681-36.237c0 0 7.521 29.197-27.681 36.237z"/></g></svg></g><g transform="translate(853.0 567.0) rotate(0.0 91.0 78.5) scale(1.6652484605601456 1.6694845865101393)"><svg width="109.293" height="94.041" viewBox="0 0 109.293 94.041"><path d="M73.896 46.687h35.397v3.867H73.896z" fill="#ffeea6"/><path d="M0 46.687h28.594v3.867H0zm65.172-14.764L75.375 21.72l2.735 2.734-10.203 10.203z" fill="#ee442b"/><g fill="#ffeea6"><path d="m23.82 73.275 9.318-9.32 2.734 2.735-9.319 9.32zm10.5-40.145-9.546-9.547 2.735-2.734 9.546 9.546zm40.793 40.792-8.758-8.758 2.734-2.734 8.758 8.758z"/></g><path d="M53.179 71.844v22.198h-3.867V71.844z" fill="#ee442b"/><path d="M53.18 0v26.542h-3.868V0z" fill="#ffeea6"/><circle cx="51.078" cy="47.832" fill="#ffeea6" r="17.185"/></svg></g><g transform="translate(351.0 565.0) rotate(0.0 89.0 51.0) scale(1.8135876431511595 1.8122701348542187)"><svg width="98.148" height="56.283" viewBox="0 0 98.148 56.283"><path d="M87.638 33.563c-1.417-8.664-8.529-15.412-17.368-16.271C66.022 7.136 55.993 0 44.297 0c-11.676 0-21.69 7.111-25.951 17.238C8.111 17.856 0 26.349 0 36.74c0 10.793 8.75 19.543 19.543 19.543H86.77c6.284 0 11.378-5.094 11.378-11.378 0-5.992-4.632-10.898-10.51-11.342z" fill="#108e82"/></svg></g><g transform="translate(371.0 1097.0) rotate(-30.73257774247276 58.5 44.0) scale(2.0761982503149787 2.082101029220395)"><svg width="56.353" height="42.265" viewBox="0 0 56.353 42.265"><path d="M30.692 42.265 0 1.656 56.353 0zM16.809 9.716 29.92 27.062 40.881 9.008z" fill="#EE442B"/></svg></g><g transform="translate(963.0 882.0) rotate(0.0 40.5 40.5) scale(1.5637065637065637 1.5637065637065637)"><svg width="51.8" height="51.8" viewBox="0 0 51.8 51.8"><path d="M25.9 51.8C11.6 51.8 0 40.2 0 25.9S11.6 0 25.9 0s25.9 11.6 25.9 25.9-11.6 25.9-25.9 25.9zm0-40c-7.8 0-14.1 6.3-14.1 14.1S18.1 40 25.9 40 40 33.7 40 25.9s-6.3-14.1-14.1-14.1z" fill="#050c04"/></svg></g><g transform="translate(176.0 1261.0) rotate(0.0 146.5 10.5) translate(0.0 0.0) scale(1.54953487511172 1.5)"><svg width="189.089" height="9.333" viewBox="0 0 189.089 9.333"><path d="M0 0h189.089v14H0z" fill="#050c04"/></svg></g><g transform="translate(-34.0 1180.0) rotate(32.77772838048689 257.0 18.5) translate(173.0 0.0) scale(2.718296675110662 2.642857142857143)"><svg width="125.446" height="14" viewBox="63.643 0 125.446 14"><path d="M0 0h189.089v14H0z" fill="#ee442b"/></svg></g></svg>