<svg xmlns="http://www.w3.org/2000/svg" version="1.1" viewBox="0 0 3000 3000" width="3000" height="3000">
<!--ITEM 1--><g><defs><clipPath id="clip-path-id-viewbox-item-1"><rect x="0.0" y="0.0" width="1940.398" height="1674.294"/></clipPath></defs><g transform="translate(974.0 654.0) rotate(0.0 975.0 841.0) scale(1.0049484693346418 1.0046025369499023)"><g clip-path="url(#clip-path-id-viewbox-item-1)" transform="translate(-0.0 -0.0)"><g>
    <path d="M12.373,130.035s42.639,54.131,64.016,58.617,22.754,3.522,39.536-3.195,122.436-44.972,186.286-55.422,73.007-11.069,73.007-11.069L410.767,13s7.577,6.347,22.575,49.838S479.5,181.16,556.39,242.382c86.756,69.073,309.709,80.583,372.131,105.66S1109.2,418.058,1173.7,507.922c67.636,94.241,124.806,207.363,142.813,433.7s30.579,375.866-4.515,529.549c-13.9,60.89-11.281,61.43-11.281,61.43s30.084.781,66-20.164,108.435-68.6,130.175-139.5,16.32-180.888,12.437-212-39.8-191.508-41.671-234.822-3.418-155.723,36.425-228.567,83.866-153.849,175.5-197.014,192.159-89.767,221.239-64.793,57.311,46.216,18.411,112.443-59.364,90.852-151.986,151.433-146.282,91.39-154.987,175.645.434,224.73,6.185,300.112-12.616,179.011-55.424,239.252-78.268,113.658-134.865,136.224-113.1,31.668-137.227,29.406c-12.877,44.842-8.805,58.819-19.606,65.6s-148.383,24.914-218.661,21.667-83.309,10.633-88.9-19,0-38.827,0-38.827H807.914s-11.935,55.4-47.217,51.813-21.077-51.813-21.077-51.813H558.759s-3.466,51.813-46.586,52.283-21.362-53.764-21.362-53.764l-54.934-6.087s-11.15-51.359,20.061-64.133,46.244-20.473,46.244-20.473l4.678-51.118s-54.551-112.71-85.567-192.932c-30.176-78.048-26.616-175.4,9.818-195.569s51.407-30.965,51.407-30.965L434.369,753.113l-18.1-92.743s-77.86-5.5-178.421-49.874S100.116,526.221,62.907,457.952,8.245,243.524,7.506,211.806,12.373,130.035,12.373,130.035Z" style="         fill: #fff;       "/>
    <path d="M275.878,288.389c2.586-4.866,6.5-8.892,10.616-12.556,32.174-28.641,77.346-37.524,120.381-39.385,18.126-.784,37.436-.2,52.634,9.707,7.572,4.937,12.25,9.145,16.03,17.356,4.448,9.664,3.567,20.858-3.47,31.346-9.443,14.072-21.845,19.433-37.7,27.468-26.142,13.249-52.278,14.284-81.935,14.075-23.4-.165-43.787-1.071-64.342-13.572C275.234,315.008,267.933,303.339,275.878,288.389Z" style="         fill: #ffa400;       "/>
    <path d="M285.009,418.7c6.1,3.409,13.588,2.72,20.5,1.7,6.055-.89,12.231-2.008,17.525-5.08a24.121,24.121,0,0,0,11.543-15.528,20.5,20.5,0,0,0-5.182-18.406c-6.462-6.5-16.587-7.375-25.749-7.07-13.31.445-24.081,5.272-28.912,18.552C271.365,402.139,276.282,413.821,285.009,418.7Z" style="         fill: #ffa400;       "/>
    <path d="M225.487,393.619c-3.229,2.355-6.259,5.208-7.838,8.879-1.288,2.993-1.524,6.316-1.744,9.566-.359,5.3-.518,11.23,3,15.21a16.5,16.5,0,0,0,7.3,4.28,44.725,44.725,0,0,0,34.749-2.828c12.9-6.828,22.384-30.277,8.814-41.382C258.284,377.946,235.624,386.226,225.487,393.619Z" style="         fill: #ffa400;       "/>
    <path d="M410.493,266.773c9.148.077,18.724.548,26.624,5.16,4.187,2.445,8.027,7,6.791,11.693-.949,3.6-4.492,5.8-7.792,7.526a174.469,174.469,0,0,1-100.084,18.231c-9.452-1.086-44.033-3.215-28.167-17.069,12.176-10.633,30.238-16.5,45.665-20.124C372.149,267.81,391.414,266.612,410.493,266.773Z" style="         fill: #fff;       "/>
    <path d="M134.75,225.3c12.471,8,29.707,10.92,44.263,13.677,22.106,4.187,41.947.409,63.336-2.778,15.759-2.348,30.158-11.353,40.855-16.829,22.11-11.319,36.339-22.123,51.814-39.485s19.119-34.416,20.873-57.608c-28.389-6.705-57.786,2.992-85.4,12.4q-44.006,14.991-88.206,29.4-22.542,7.347-45.133,14.542c-9.945,3.168-25.84,4.807-23.626,18.617C115.375,208.756,125.444,219.332,134.75,225.3Z" style="         fill: #ff7900;       "/>
    <path d="M810.216,319.439c25.561,51.721,19.378,117.621-15.358,163.685-10.352,13.729-23,25.813-31.516,40.752s-12.264,34.237-3.642,49.113c10.007,17.266,32.263,22.421,52.111,24.493,21.192,2.213,45.878-2.642,64.573-12.863,22.258-12.17,37.444-30.858,48.674-52.05,31.191-58.857,46.279-95.82,49.631-162.347.188-3.729-9.6-.964-11.416-4.225-1.9-3.4-5.357-2.713-8.819-4.491-36.478-18.74-69-22.465-111.8-35.532" style="         fill: #ff7900;       "/>
    <path d="M1085.042,551.989c-7.258,14.2-17.1,27.09-29.374,40.9-11.535,12.981-32.329,21.612-46.748,31.29-17.812,11.955-39.208,18.85-47.566,36.61-6.88,14.621-5.9,38.789,1.572,53.117,8.99,17.24,29.6,26.741,48.637,30.691,12.583,2.611,25.654-.31,37.847-4.369,62.328-20.751,113.957-63.51,146.5-120.573,8.021-14.064,12.985-36.742,12.353-52.92-.606-15.508-11.1-21.752-20.741-33.914-13.422-16.934-25.184-35.925-37.623-53.71-6.717-9.6-37.22-35.127-43.613-30.966-11.6,7.552-1.425,39.263-4.071,51.173C1098.138,517.683,1092.667,537.076,1085.042,551.989Z" style="         fill: #ff7900;       "/>
    <path d="M1275.574,738.391A205.138,205.138,0,0,1,1181.881,856.8c-35.291,20.206-76.654,29.833-108.463,55.17-10.534,8.391-20.389,19.754-20.531,33.221-.134,12.772,8.7,24.119,19.2,31.4,24.944,17.3,58.027,16.507,88.026,11.859,40.291-6.244,81.77-19.507,109.072-49.789,11.618-12.886,20.091-28.236,28.458-43.435,3.375-6.132,6.8-12.41,7.983-19.309,1.191-6.962.013-14.087-1.164-21.051l-16.686-98.728" style="         fill: #ff7900;       "/>
    <path d="M1333.423,1153.288c-32.253,20.618-71.932,27.86-110.079,24.67s-74.931-16.279-109.043-33.65c-16.245-8.272-32.518-17.707-50.623-19.84s-38.9,5.372-45.728,22.276c-7.5,18.576,4.247,38.992,16.375,54.937,15.937,20.954,34.142,41.279,57.965,52.483,17.27,8.123,46.58,15.066,65.559,17.078,28.236,2.993,49.5,6.783,77.775,4.144,35.947-3.355,65.235-7.616,93.322-25.43,3.036-1.925,6.363-5.057,5.267-8.481" style="         fill: #ff7900;       "/>
    <path d="M948.152,1343.743c17.116-18.507,42.479-26.788,67.1-32.211,45.962-10.125,97.834-11.665,136.073,15.771,9.006,6.462,17.125,14.6,21.7,24.7s5.175,22.368-.2,32.061c-9.132,16.465-30.985,20.209-49.813,20.138a271.259,271.259,0,0,1-38.563-2.9c-13.382-1.974-26.648-4.954-40.152-5.766-25.793-1.55-51.4,4.858-76,12.747-2.749.881-5.874,1.752-8.4.35a9.1,9.1,0,0,1-3.291-3.808,32.5,32.5,0,0,1-3.31-21.587" style="         fill: #ff7900;       "/>
    <path d="M1107.307,1448.69c14.513,2.071,29.534,6.1,40.028,16.334s14.57,28.236,5.5,39.754c-5.408,6.871-14.188,10.16-22.755,11.906-32.3,6.583-67.211-4.174-98.1,7.339-5.275,1.967-10.6,4.6-16.209,4.166-11.111-.868-17.51-12.728-21.624-23.085-3.752-9.444-14.532-26.288-7.886-35.67,5.954-8.4,26.794-12.313,36.065-14.933A206.417,206.417,0,0,1,1107.307,1448.69Z" style="         fill: #ff7900;       "/>
    <path d="M1705.448,488.154c19.929-7.275,41.629-27.3,62.754-25.333,26.486,2.464,49.564,31.855,66.548,52.328s27.91,45.231,37.334,70.106c4.453,11.752,8.538,25.29,2.719,36.429-3.472,6.643-9.9,11.143-16.079,15.38l-92.1,63.094c-3.284,2.249-7.038,4.607-10.951,3.878-2.707-.5-10.138-7.475-12.387-9.064-36.156-25.554-61.793-44.4-94.215-77.58-10.465-10.708-30.055-31.232-37.02-44.486C1592.241,535.206,1670.578,500.882,1705.448,488.154Z" style="         fill: #ff7900;       "/>
    <path d="M1559.88,698.421c31.147,11.675,61.889,26.7,85.094,50.534,5.168,5.308,10.125,11.451,11.118,18.792,2.1,15.5-13.264,26.863-23.045,39.074-18.409,22.984-18.449,54.983-23.768,83.946-.505,2.752-1.212,5.738-3.43,7.442-2.088,1.6-4.944,1.629-7.575,1.564a510.731,510.731,0,0,1-120.217-17.443c-3.857-1.04-8.052-2.379-10.162-5.77-1.7-2.737-1.631-6.181-1.476-9.4a571.019,571.019,0,0,1,19.808-123.875c3.834-13.932,7.029-40.624,18.921-49.142C1519.341,683.975,1545.7,693.105,1559.88,698.421Z" style="         fill: #ff7900;       "/>
    <path d="M1483.013,1032.828c.493-8.669,6.679-16.238,14.229-20.526s16.332-5.8,24.956-6.808c15.252-1.778,30.975-2.14,45.687,2.256s28.395,14.126,34.677,28.137c3.791,8.456,4.71,17.877,5.474,27.112q3.489,42.208,4,84.592c.053,4.4,0,9.1-2.442,12.761-3.292,4.94-9.789,6.417-15.67,7.23a203.939,203.939,0,0,1-59.389-.535c-5.51-.864-11.121-2.005-15.87-4.93-11.235-6.919-14.57-21.441-16.9-34.428-3.328-18.526-6.657-36.99-9.029-55.609C1491.1,1059.241,1482.216,1045.371,1483.013,1032.828Z" style="         fill: #ff7900;       "/>
    <path d="M1504.135,1326.9c2.106-4.14,4.787-8.137,8.622-10.758,5.587-3.819,12.794-4.2,19.555-3.9a123.194,123.194,0,0,1,30.18,5.166c7.572,2.294,15.139,5.463,20.707,11.084,8.323,8.4,10.921,21.243,9.254,32.95s-7.076,22.53-12.959,32.788a329.441,329.441,0,0,1-63.421,79.142c-3.476,3.176-7.338,6.424-12.017,6.941-3.753.414-7.439-1.006-10.948-2.4-32.844-13.054-41.994-35.645-19.227-63.7C1495.538,1387.528,1489.191,1356.278,1504.135,1326.9Z" style="         fill: #ff7900;       "/>
    <path d="M414.024,660.37c4.546,39.655,11.488,79.045,18.314,118.356C441.5,831.5,451.06,884.2,460.113,936.988c9.968,58.132,19.424,116.364,27.406,174.806,7.543,55.22,13.861,110.7,16.877,166.374,3.387,62.507.766,125.123-4.247,187.475-4.187,52.072-10.321,103.93-17.057,155.725-1.024,7.875-2.456,15.756.018,23.543a32.668,32.668,0,0,0,17.45,19.671c18.5,8.542,39.959,1.333,51.39-15.024,5.5-7.864,7.665-17.294,9.975-26.448,2.3-9.117,4.421-18.28,6.456-27.46,5.694-25.69,10.712-51.53,15.36-77.428,12.7-70.741,22.881-142.088,29.584-213.653,4.941-52.756,8.036-105.775,8.71-158.766.034-2.716.067-5.432.067-8.148,0-8.716-13.542-8.73-13.545,0-.009,36.989-1.879,74.047-4.319,110.943-4.77,72.146-13.6,143.983-24.982,215.372-8.12,50.921-17.145,101.917-29.51,152-2,8.1-3.534,16.893-7.813,24.137a29.34,29.34,0,0,1-20.258,14.289c-6.63,1.149-14.252-.345-19.559-4.593-5.766-4.616-7.541-11.447-6.654-19.29,5.144-45.474,11.542-90.745,15.762-136.338,5.893-63.681,9.926-127.863,7.785-191.836-1.788-53.407-7.225-106.675-13.894-159.671-7.239-57.528-16.1-114.842-25.638-172.031-8.949-53.68-18.541-107.249-28-160.841-7.46-42.27-15.056-84.556-21.037-127.067-1.034-7.348-1.988-14.658-2.871-22.362-.42-3.662-2.813-6.731-6.772-6.772-3.34-.035-7.189,3.141-6.773,6.772Z" fill="#000000"/>
    <path d="M1.229,127.32C-1.926,189.812.79,252.7,11.732,314.365c7.383,41.609,18.534,82.783,34.407,121.987,16.855,41.629,39.14,83.054,74.025,112.333,34.352,28.833,74.554,50.618,115.62,68.243a684.14,684.14,0,0,0,162.7,47.054c7.421,1.175,14.863,2.214,22.317,3.161,3.635.461,6.772-3.443,6.772-6.773,0-4.043-3.127-6.309-6.772-6.772A674.546,674.546,0,0,1,257.651,611.42c-41.706-16.534-82.888-37.52-118.752-64.946-.081-.062-1.723-1.335-.618-.474q-.737-.575-1.471-1.15-1.209-.952-2.408-1.916-2.812-2.26-5.567-4.591c-3.841-3.252-7.576-6.621-11.136-10.182a192.251,192.251,0,0,1-20.9-24.894c-13.021-18.325-23.61-38.321-32.674-58.861-2.182-4.946-3.623-8.383-5.719-13.623q-2.941-7.356-5.654-14.8-4.824-13.226-8.986-26.68-8.655-27.891-14.69-56.508c-12.733-60.07-16.9-121.714-15.191-183.024q.313-11.231.887-22.45c.185-3.657-3.245-6.773-6.772-6.773a6.89,6.89,0,0,0-6.773,6.773Z" fill="#000000"/>
    <path d="M6.525,133.453a201.226,201.226,0,0,0,60.094,57.3,191.512,191.512,0,0,0,20.066,10.777,7.311,7.311,0,0,0,5.219.682,6.9,6.9,0,0,0,4.047-3.112c1.579-2.989,1-7.677-2.429-9.266a192.028,192.028,0,0,1-34.2-20.385c-.652-.487-1.3-.981-1.947-1.474-1.173-.893,1.241.975.083.063-.32-.251-.641-.5-.961-.754q-2.075-1.639-4.106-3.336-3.747-3.132-7.334-6.45a192.62,192.62,0,0,1-13.915-14.273q-3.627-4.128-7.011-8.458c-.271-.347-1.021-1.533.062.083-.3-.447-.661-.865-.986-1.295q-.857-1.139-1.7-2.288-1.68-2.3-3.291-4.651c-2-2.915-6.037-4.511-9.266-2.43-2.9,1.87-4.575,6.143-2.43,9.266Z" fill="#000000"/>
    <path d="M96.5,201.026q6.363-2.805,12.765-5.522c.315-.133.63-.279.949-.4-.042.016-1.143.481-.432.182l1.425-.6q1.662-.7,3.328-1.389,3.33-1.381,6.67-2.739,12.885-5.236,25.915-10.1Q173.3,170.673,200,162.4t53.826-15.017q27.118-6.741,54.593-11.931,13.666-2.58,27.4-4.772,6.995-1.116,14-2.13,3.441-.5,6.886-.971l1.531-.209c.339-.046.685-.079,1.021-.138-.031.006-1.312.175-.524.071q1.788-.236,3.575-.47,3.449-.447,6.9-.869a7.411,7.411,0,0,0,4.789-1.983,6.88,6.88,0,0,0,1.984-4.789c-.148-3.3-3.006-7.234-6.773-6.773q-28.638,3.51-57.05,8.614-27.625,5-54.933,11.575-27.418,6.6-54.428,14.771-26.871,8.127-53.247,17.783-27.067,9.91-53.522,21.388-3.191,1.382-6.372,2.784a6.782,6.782,0,0,0-3.113,4.047,6.922,6.922,0,0,0,.683,5.219,6.834,6.834,0,0,0,4.048,3.112,7.852,7.852,0,0,0,5.218-.682Z" fill="#000000"/>
    <path d="M381.748,120.767A337.023,337.023,0,0,1,392.124,75.6q3.385-11.151,7.535-22.05,1.006-2.643,2.057-5.269.548-1.367,1.105-2.727.258-.627.518-1.255c.11-.265.754-1.8.357-.861s.178-.418.277-.649q.265-.624.535-1.247.629-1.455,1.269-2.9,1.146-2.586,2.334-5.153,5.516-11.908,11.952-23.36c1.735-3.09.842-7.538-2.429-9.266a6.888,6.888,0,0,0-9.267,2.429,349.673,349.673,0,0,0-20.545,43.5,337.114,337.114,0,0,0-13.978,44.428q-3.09,12.871-5.157,25.959a7.387,7.387,0,0,0,.683,5.219,6.907,6.907,0,0,0,4.047,3.112c3.247.739,7.739-.988,8.331-4.73Z" fill="#000000"/>
    <path d="M662.063,290.9c51.289,11.228,102.418,23.209,153.806,33.981,54.316,11.386,107.311,25.868,158.117,48.563,45.617,20.377,89.359,45.923,128.173,77.488,34.86,28.349,63.423,61.355,88.67,98.421,26.62,39.083,48.261,80.9,63.471,125.714,15.3,45.072,25.929,91.958,35.188,138.6,18.612,93.764,29.167,189.485,35.085,284.838,3.217,51.835,4.8,103.841,3.349,155.769-1.574,56.081-7.56,112.094-15.263,167.637-6.7,48.313-15.09,96.448-26.1,143.975-3.922,16.936-8.177,33.8-13.012,50.5-1.934,6.679-3.961,13.332-6.138,19.937-.768,2.33-2.449,5.29-2.631,7.726.173-2.319.69.38.784-1.392-.037.692-1.755,1.191-.219.351-3.586,1.961-3.486,2.107-7.549,3.384a125.62,125.62,0,0,1-14.255,3.4c-12.857,2.44-25.9,3.846-38.926,5.046-34.332,3.163-68.842,4.511-103.3,5.3-29.91.685-59.871.98-89.781.14-7.651-.215-15.463-.24-23.061-1.279,2.72.372-.087-.017-.748-.2-1.034-.294-2.08-.505-3.093-.886a25.342,25.342,0,0,1-4.32-2.178,34.693,34.693,0,0,1-9.268-8.561c-4.683-6.163-8.148-14.358-7.295-22.229,2.058-19,30.076-20.982,44.583-23.478,9.351-1.609,18.807-2.864,28.05-5.043,5.878-1.385,12.91-3.1,17.053-7.844,6.19-7.09.505-14.011-3.893-20.077-9.107-12.56-17.938-25.325-26.349-38.363-16.455-25.508-31.53-52.15-43.1-80.257-10.823-26.29-18.833-54.125-21.138-82.545-2.268-27.971,2.449-54.8,8.111-82.08,10.189-49.088,24.273-98.236,51.319-140.936a259.669,259.669,0,0,1,46.6-54.663c6.514-5.82-3.092-15.372-9.578-9.577-38.185,34.117-64.329,77.95-81.15,126.011-8.624,24.637-14.95,50.025-20.248,75.565-5.731,27.619-10.76,55.036-8.769,83.372,4.226,60.14,31.093,116.391,62.875,166.647,8.072,12.764,16.565,25.259,25.339,37.55,1.425,2,9.619,12.93,9.4,13.123-1.309,1.177.334-2.848.436-2.671-.032-.055-.386.019-.1.086-.445-.1-2.737,1.381-3.417,1.641-8.114,3.1-17.292,4.042-25.8,5.456-10.288,1.709-20.642,3.306-30.732,6-18.381,4.9-34.838,16.195-32.966,37.383,1.532,17.331,13.647,34.446,30.153,40.5,8,2.935,17.531,2.625,25.946,2.923,12.819.453,25.651.581,38.477.616q52.519.141,105.021-2.256c31.517-1.473,63.413-3.154,94.53-8.666,8.725-1.546,18.355-3.193,26.169-7.639,8.642-4.917,10.122-16.194,12.831-24.969,11.37-36.837,19.749-74.631,27.043-112.46,20.872-108.255,33.132-218.749,31.33-329.066-1.712-104.838-11.613-209.867-27.717-313.453q-10.386-66.808-26.346-132.475c-11.261-46.495-25.261-92.323-46.545-135.3-21.294-43-48.654-84.872-80.743-120.617-31.008-34.542-68.2-63.527-107.666-87.786-46.485-28.576-96.938-50.756-149.013-66.938-52.394-16.281-106.926-25.56-160.42-37.525-25.881-5.789-51.751-11.623-77.657-17.294-8.5-1.86-12.126,11.195-3.6,13.061Z" fill="#000000"/>
    <path d="M408.536,10.256c8.8,24.613,17.569,49.244,27.426,73.457,10.006,24.577,21.014,48.807,34.311,71.8,13.043,22.55,28.354,44,46.594,62.658a214.848,214.848,0,0,0,59.885,43.517c23.867,11.561,49.368,19.264,74.852,26.344q5.224,1.452,10.459,2.871c3.415.928,7.517-1.156,8.331-4.73a6.9,6.9,0,0,0-4.73-8.331c-13.45-3.656-26.884-7.4-40.165-11.634-6.149-1.962-12.264-4.032-18.319-6.268q-4.288-1.584-8.532-3.284c-1.392-.558-2.767-1.181-4.17-1.71,2.013.759-.169-.074-.63-.273q-1.118-.48-2.23-.971a216.638,216.638,0,0,1-31.2-16.763q-3.849-2.516-7.575-5.216-1.634-1.183-3.241-2.4c-.321-.243-.634-.51-.967-.737,1.617,1.1.428.331.086.063q-.965-.753-1.919-1.52c-4.84-3.885-9.5-7.994-14-12.269a260,260,0,0,1-25.365-28.016l-.787-1.008c-.938-1.2.941,1.232.017.022q-.648-.847-1.293-1.7-1.482-1.958-2.931-3.938-2.842-3.885-5.565-7.855-5.352-7.8-10.271-15.886c-6.71-11-12.855-22.346-18.572-33.894q-4.374-8.833-8.432-17.82-1.993-4.4-3.922-8.834-.966-2.217-1.917-4.441-.432-1.011-.862-2.023l-.171-.405q-.428-1.011.169.4a5.036,5.036,0,0,1-.512-1.217c-10.031-23.914-18.879-48.3-27.612-72.71q-1.589-4.438-3.174-8.88c-1.189-3.328-4.67-5.915-8.331-4.73-3.279,1.061-6.006,4.759-4.73,8.331Z" fill="#000000"/>
    <path d="M305.063,303.108c.389-.31,2.193-1.689.454-.372.514-.389,1.023-.782,1.539-1.168q1.546-1.156,3.125-2.268,3.077-2.166,6.266-4.163a142.39,142.39,0,0,1,13.321-7.37c2.2-1.068,4.447-2.016,6.669-3.033-2.061.943.082-.029.519-.206q.894-.363,1.792-.715,1.8-.7,3.611-1.359,7.08-2.559,14.392-4.4t14.768-2.956c.637-.1,1.277-.175,1.913-.274-2.266.352-.218.034.307-.03q2.015-.247,4.033-.44,3.654-.348,7.321-.522a151.15,151.15,0,0,1,15.247.048q3.758.2,7.5.594c1.215.127,2.427.275,3.64.427.942.117-1.836-.257-.463-.062.255.036.51.071.764.108q1.145.165,2.288.349a142.978,142.978,0,0,1,16.553,3.674q3.987,1.138,7.9,2.514,2,.7,3.984,1.47.99.382,1.975.781l.716.292q.357.147.714.3-1.536-.651-.55-.231a7.438,7.438,0,0,0,5.219.683,6.909,6.909,0,0,0,4.047-3.113,6.832,6.832,0,0,0,.683-5.218c-.5-1.556-1.536-3.375-3.112-4.048a152.644,152.644,0,0,0-63.248-12.243,160.019,160.019,0,0,0-62.707,14.361,147.5,147.5,0,0,0-30.762,19.017,6.77,6.77,0,0,0-1.984,4.789,6.893,6.893,0,0,0,1.984,4.789,6.817,6.817,0,0,0,4.789,1.983,7.849,7.849,0,0,0,4.789-1.983Z" fill="#000000"/>
    <path d="M298.473,307.351a156.236,156.236,0,0,0,34.52,9.375,127.4,127.4,0,0,0,36.23.226,157.709,157.709,0,0,0,26.575-6.476,270.435,270.435,0,0,0,29.358-11.557A192.523,192.523,0,0,0,452.2,284.091c2.936-1.972,4.5-6.059,2.429-9.266-1.886-2.926-6.12-4.542-9.266-2.43a185.824,185.824,0,0,1-23.452,13.143q-3.236,1.55-6.514,3.006-1.658.737-3.326,1.451c-.165.071-1.421.592-.308.134.984-.405.122-.052-.124.051q-1.029.43-2.061.853-6.825,2.788-13.8,5.187a176.066,176.066,0,0,1-26.554,7.1q-1.476.258-2.958.479c-.215.031-.43.061-.645.093-1.218.179,1.493-.187.5-.067-.814.1-1.627.2-2.443.283q-4.01.42-8.043.54a118.848,118.848,0,0,1-16.733-.7c-.568-.064-1.839.039-2.279-.275.5.356,1.295.183.431.057-.456-.067-.913-.131-1.37-.2q-2.409-.363-4.805-.815-4.741-.892-9.415-2.1a169.963,169.963,0,0,1-19.386-6.323,6.8,6.8,0,0,0-5.218.683,6.9,6.9,0,0,0-3.113,4.048c-.886,3.889,1.189,6.947,4.73,8.331Z" fill="#000000"/>
    <path d="M76.12,385.07c.189-.251.38-.5.569-.75.55-.73-1.085,1.381-.254.327.311-.394.62-.789.934-1.181q1.174-1.468,2.394-2.9,2.251-2.649,4.647-5.171a131.468,131.468,0,0,1,10.227-9.676q1.288-1.094,2.6-2.156.585-.472,1.174-.937c.246-.194.494-.386.74-.579.539-.423-1.369,1.047-.179.142q2.767-2.1,5.64-4.064a138.685,138.685,0,0,1,12.031-7.348q3.058-1.662,6.2-3.172,1.527-.733,3.07-1.431.858-.389,1.72-.764l.691-.3c1.29-.56-1.53.634-.231.1,4.29-1.776,8.655-3.362,13.1-4.72a139.859,139.859,0,0,1,13.675-3.437q3.411-.676,6.853-1.18l.93-.133c.93-.134-1.85.236-.5.067.5-.062.994-.126,1.491-.185q1.866-.219,3.737-.389a132.208,132.208,0,0,1,15.759-.48q3.851.114,7.689.458,1.966.177,3.927.415c.249.03.5.063.747.093,1.353.164-1.566-.225-.308-.043.745.108,1.49.217,2.234.334a7.393,7.393,0,0,0,5.219-.683,6.9,6.9,0,0,0,3.112-4.048c.739-3.241-.987-7.743-4.73-8.331a141.886,141.886,0,0,0-60.008,3.48,148.358,148.358,0,0,0-53.357,27.56,136.848,136.848,0,0,0-23.239,24.25,6.792,6.792,0,0,0-.682,5.218,6.908,6.908,0,0,0,3.112,4.048,6.839,6.839,0,0,0,5.219.682,7.931,7.931,0,0,0,4.047-3.112Z" fill="#000000"/>
    <path d="M68.472,388.182a139.936,139.936,0,0,0,62.45-1.08,135.919,135.919,0,0,0,54.44-27.795,127.937,127.937,0,0,0,23.113-25.686c2.008-2.93.644-7.642-2.43-9.266a6.942,6.942,0,0,0-9.266,2.429q-1.057,1.542-2.158,3.053-.44.6-.887,1.2c-.223.3-.45.594-.675.891-.744.983.973-1.229.148-.194-1.463,1.839-2.953,3.652-4.509,5.413a121.52,121.52,0,0,1-10.275,10.3q-2.675,2.378-5.483,4.6l-.577.454c-1.08.852,1.309-.991.209-.164-.39.294-.779.59-1.171.882q-1.543,1.147-3.123,2.248a126.435,126.435,0,0,1-12.319,7.573q-3.066,1.653-6.217,3.136-1.576.743-3.173,1.441c-.28.123-.561.243-.841.365-1,.439.544-.225.6-.252-.672.294-1.358.563-2.039.835a131.232,131.232,0,0,1-27.653,7.671c-1.1.178-2.2.323-3.3.493,2.4-.37.1-.019-.409.041q-1.016.122-2.031.227-3.612.375-7.241.55a131.461,131.461,0,0,1-16.487-.239q-2.07-.161-4.136-.386-.941-.1-1.88-.22c-.216-.027-1.5-.2-.227-.025,1.321.179-.361-.052-.6-.087q-4.149-.6-8.254-1.468c-3.458-.725-7.485,1.012-8.331,4.73-.773,3.394,1.022,7.554,4.73,8.331Z" fill="#000000"/>
    <path d="M245.474,370.144c6.609,6.881,17.321,9.838,26.473,6.9a26.577,26.577,0,0,0,17.788-19.381c.714-3.46-1-7.482-4.73-8.331-3.385-.771-7.565,1.02-8.331,4.731a19.367,19.367,0,0,1-.651,2.414c-.115.336-.273.663-.377,1,.617-2.014.209-.535-.071,0a19.64,19.64,0,0,1-1.1,1.842c-.133.2-1.087,1.482-.312.472s-.225.234-.387.413a20.241,20.241,0,0,1-1.653,1.635c-.406.358-1.591,1.1.123-.044-.3.2-.578.42-.876.618a18.877,18.877,0,0,1-2.164,1.247c-.594.291-1.375.332.313-.1-.4.1-.785.3-1.177.423-.774.248-1.555.411-2.348.582-1.319.286,1.567-.116.31-.039-.5.031-1,.075-1.5.083-.756.013-1.5-.045-2.256-.094q-1.089-.123.68.1-.372-.058-.743-.131-.555-.108-1.1-.248a10.352,10.352,0,0,1-2.507-.816l.923.391c-.23-.1-.457-.208-.683-.319q-.507-.249-1-.526-.575-.322-1.125-.685c-.444-.292-1.5-1.271,0,.069-.658-.588-1.326-1.143-1.94-1.782a6.773,6.773,0,0,0-9.578,9.578Z" fill="#000000"/>
    <path d="M263.512,378.19c.771,2.618,1.447,5.261,1.982,7.938q.349,1.743.627,3.5.129.8.246,1.605c.081.557.358,2.706.052.321.707,5.507,1.376,11.019,2.423,16.473.669,3.487,5.042,5.8,8.331,4.73a6.947,6.947,0,0,0,4.73-8.331c-.516-2.688-.945-5.388-1.327-8.1-.169-1.2.173,1.318.064.47-.032-.249-.066-.5-.1-.746q-.118-.912-.233-1.825-.308-2.415-.634-4.826a99.616,99.616,0,0,0-3.1-14.812c-1-3.395-4.807-5.871-8.331-4.73a6.884,6.884,0,0,0-4.73,8.331Z" fill="#000000"/>
    <path d="M210.4,410.871c.038,7.021,1.9,14.2,6.986,19.3,4.369,4.378,10.163,6.29,16.149,7.067a46.939,46.939,0,0,0,14.811-.568c7.145-1.4,13.686-5.5,19.336-9.919,6.158-4.815,11.857-11.129,14.218-18.724a6.835,6.835,0,0,0-4.73-8.331,6.918,6.918,0,0,0-8.331,4.73c-.081.262-.165.522-.257.78-.109.305-.576,1.44-.075.239s.052-.158-.081.113q-.229.468-.48.926a40.513,40.513,0,0,1-2.334,3.565c-.368.532.6-.738.552-.716-.1.042-.247.307-.315.391q-.321.393-.652.777-.789.917-1.629,1.787c-1.07,1.11-2.2,2.166-3.365,3.171a8.275,8.275,0,0,1-1.814,1.492c-.084.032,1.233-.933.655-.506-.146.107-.289.218-.434.326q-.58.432-1.171.848-1.9,1.333-3.907,2.5a44.5,44.5,0,0,1-3.958,2.036c-.151.068-.3.132-.454.2-.744.344,1.476-.587.714-.3-.3.112-.6.236-.9.348-.678.252-1.364.483-2.058.686-.566.165-1.137.312-1.713.437-.323.069-.649.123-.973.187-1.032.2,1.806-.209.675-.086-.936.1-1.872.2-2.812.267a44.835,44.835,0,0,1-6.155.042c-.474-.032-.948-.072-1.42-.123-.315-.034-1.482-.187-.044,0,1.409.187.293.034-.039-.023a25.687,25.687,0,0,1-2.992-.691q-.73-.217-1.444-.485c-.294-.11-1.188-.484.051.038,1.3.548.155.054-.145-.093a26.658,26.658,0,0,1-2.581-1.566c-.5-.32,1.077.722.907.7-.09-.01-.291-.236-.361-.3-.235-.21-.473-.416-.7-.636-.435-.422-.8-.894-1.216-1.333-.333-.354.719.862.682.885-.006,0-.268-.372-.289-.4-.164-.246-.328-.491-.482-.743-.344-.563-.631-1.148-.921-1.74-.417-.851.639,1.7.21.471-.126-.361-.256-.72-.369-1.086a21.5,21.5,0,0,1-.549-2.211c-.072-.37-.121-.743-.19-1.113-.124-.668.111,1.056.133.973a2.548,2.548,0,0,0-.07-.682c-.088-.966-.122-1.936-.127-2.906-.019-3.542-3.1-6.937-6.772-6.773a6.888,6.888,0,0,0-6.773,6.773Z" fill="#000000"/>
    <path d="M268.842,408.027c4.776,13,20.011,16.936,32.553,16.8,13.048-.142,26.888-5.253,34.842-16.009,5.131-6.938,5.494-16.087,3.007-24.1-1.049-3.379-4.772-5.882-8.331-4.73-3.4,1.1-5.856,4.707-4.73,8.331.256.825.49,1.655.682,2.5q.126.554.229,1.111c.034.182.063.364.1.546.181,1-.158-.65-.091-.728-.2.241.147,1.856.154,2.234a19.948,19.948,0,0,1-.07,2.117c-.014.158-.036.315-.047.472-.059.824.283-1.675.114-.874-.063.3-.107.6-.171.9a17.832,17.832,0,0,1-.515,1.877c-.109.325-.254.64-.356.966-.126.4.763-1.626.212-.551-.309.6-.619,1.2-.979,1.774-.153.246-.313.487-.477.725s-.841,1.13-.07.134.08-.116-.11.108q-.38.447-.782.872-.61.645-1.267,1.244-.332.3-.674.594c-.211.18-1.412,1.13-.371.325.987-.762.064-.059-.171.109s-.5.356-.758.528q-.9.612-1.846,1.165c-1.191.7-2.419,1.342-3.671,1.93-.583.274-2.853,1.158-.611.3-.577.22-1.142.467-1.724.675a31.505,31.505,0,0,1-3.283.968c-1.195.287-2.4.48-3.609.688-.651.112,1.2-.115,1.078-.143a2.7,2.7,0,0,0-.585.072q-.441.051-.885.094-1.047.1-2.1.157a49.823,49.823,0,0,1-7.972-.209c-.136-.014-.845-.007-.915-.107a9.28,9.28,0,0,1,1.042.138c-.15-.025-.3-.044-.452-.067q-1.048-.162-2.088-.376a37.316,37.316,0,0,1-3.723-.963c-.684-.217-1.355-.463-2.025-.718-1.23-.466,1.332.61.455.2-.291-.137-.584-.268-.873-.41a29.082,29.082,0,0,1-3.287-1.987c2.062,1.379.276.2-.27-.327-.337-.326-1.12-.914-1.245-1.362-.061-.22,1.027,1.461.691.887-.081-.138-.189-.265-.278-.4q-.237-.351-.449-.718c-.161-.279-.288-.58-.451-.857-.412-.7.707,1.829.216.491a7.286,7.286,0,0,0-3.112-4.047,6.917,6.917,0,0,0-5.219-.683c-3.253,1.053-6.039,4.771-4.73,8.331Z" fill="#000000"/>
    <path d="M243.6,440.112l8.665,16.518a6.827,6.827,0,0,0,9.266,2.43,6.926,6.926,0,0,0,2.429-9.266l-8.664-16.519a6.826,6.826,0,0,0-9.266-2.429,6.926,6.926,0,0,0-2.43,9.266Z" fill="#000000"/>
    <path d="M311.959,418.652a93.243,93.243,0,0,1,.761,12.214q-.014,3-.223,6-.1,1.437-.247,2.871-.073.716-.157,1.432-.057.477-.118.953.207-1.509.047-.373a7.458,7.458,0,0,0,.683,5.219,6.773,6.773,0,0,0,9.266,2.43c1.373-.885,2.872-2.352,3.112-4.048a99.456,99.456,0,0,0,.421-26.7,7.436,7.436,0,0,0-1.983-4.789,6.774,6.774,0,0,0-9.578,0c-1.126,1.226-2.2,3.055-1.984,4.789Z" fill="#000000"/>
    <path d="M115.727,349.4a39.3,39.3,0,0,0,10.754,17.354,7.09,7.09,0,0,0,4.789,1.984,6.893,6.893,0,0,0,4.789-1.984,6.773,6.773,0,0,0,0-9.577,33.236,33.236,0,0,1-3.654-3.977l1.059,1.37a33.122,33.122,0,0,1-4.248-7.292l.682,1.618q-.63-1.522-1.11-3.1a7.083,7.083,0,0,0-3.112-4.047,6.774,6.774,0,0,0-9.949,7.648Z" fill="#000000"/>
    <path d="M366.667,280.845a15.992,15.992,0,0,1,1.655,2.967l-.683-1.617a16.321,16.321,0,0,1,1.084,4.006l-.242-1.8a15.958,15.958,0,0,1,.011,3.961l.242-1.8q-.037.281-.083.561a5.12,5.12,0,0,0-.121,2.7,5.033,5.033,0,0,0,.8,2.518,6.772,6.772,0,0,0,9.266,2.429,6.572,6.572,0,0,0,3.113-4.047,21.638,21.638,0,0,0-.178-9.52,24.315,24.315,0,0,0-1.59-4.4,15.791,15.791,0,0,0-1.582-2.793,7.574,7.574,0,0,0-4.047-3.112,6.922,6.922,0,0,0-5.219.682,6.837,6.837,0,0,0-3.112,4.048,6.671,6.671,0,0,0,.683,5.218Z" fill="#000000"/>
    <path d="M768.406,1149.719c.555,19.855.691,39.729.721,59.591.065,43.635-.714,87.291-2.922,130.874-1.192,23.511-2.8,47.009-5.19,70.43-2.73,26.783-6.33,53.538-10.016,80.079-5.462,39.324-11.879,78.489-17.991,117.714-.854,5.48-1.691,10.964-2.436,16.461a101.962,101.962,0,0,0-1.409,12.858c-.086,13.892,12.375,24.71,24.516,28.952,15.751,5.5,32.535-.624,42.658-13.477,6.639-8.43,10.354-18.318,13.812-28.37,2.819-8.2,5.324-16.5,7.6-24.866,11.269-41.41,17.749-84.065,25.034-126.3,4.54-26.33,9.481-52.585,14.1-78.9,3.335-18.988,5.951-38.1,8.328-57.23,4.988-40.137,8.749-80.427,12.041-120.736q3.078-37.707,5.5-75.465.115-1.839.228-3.679c.219-3.655-3.27-6.773-6.773-6.773a6.9,6.9,0,0,0-6.772,6.773c-1.063,17.7-2.343,35.389-3.682,53.069-2.892,38.213-6.212,76.4-10.346,114.5q-1.648,15.195-3.5,30.366-.908,7.365-1.879,14.723-.124.945-.251,1.888c.167-1.252.022-.16-.011.079q-.252,1.866-.509,3.732-.507,3.677-1.035,7.35c-3.051,21.208-7.11,42.217-10.9,63.3-8.319,46.342-15.231,93.016-25.222,139.04a503.572,503.572,0,0,1-13.869,52.122c-3,9.017-5.475,16.963-10.755,24.713-.345.506-.707,1-1.062,1.5-1.132,1.6.855-.949-.393.5-.678.787-1.342,1.581-2.058,2.335q-1.022,1.076-2.12,2.073c-.386.35-.791.676-1.18,1.022-1.141,1.016.92-.584-.226.188a41.943,41.943,0,0,1-4.5,2.775c-.412.208-.838.388-1.249.6-1.395.707,1.427-.431-.057.011-.848.252-1.67.59-2.526.829-.838.233-1.686.4-2.535.584-.444.1-1.936.221.112.019-.28.027-.561.073-.842.092a35.622,35.622,0,0,1-5.008.056c-.412-.03-.822-.087-1.233-.113-1.484-.1,1.619.343.173.017-.663-.15-1.339-.243-2-.4-1.587-.366-3.085-.927-4.628-1.43-1.375-.449,1.437.7.142.067-.356-.175-.723-.329-1.081-.5q-.887-.432-1.749-.915a43.145,43.145,0,0,1-3.894-2.543c1.822,1.295-.261-.253-.677-.624q-.693-.618-1.348-1.278-.771-.777-1.483-1.608c-.111-.131-.684-.664-.682-.831,0,.3.947,1.343.212.238a32.883,32.883,0,0,1-1.926-3.231,3.658,3.658,0,0,1-.417-.9c.226,1.64.413,1.105.2.4-.182-.616-.4-1.214-.547-1.841-.071-.3-.1-.634-.193-.926-.377-1.169.077,1.791.07.566,0-.513-.076-1.025-.072-1.54,0-.891.1-1.781.179-2.667.167-1.818.378-3.632.605-5.443.068-.55.14-1.1.211-1.649.25-1.936-.126.889-.01.058.177-1.255.347-2.511.528-3.766,4.882-34.006,10.823-67.858,15.819-101.849,7.43-50.545,14.421-101.254,17.929-152.242,3.106-45.159,4.326-90.445,4.636-135.7.184-26.924.062-53.858-.556-80.777q-.045-1.985-.1-3.969a6.773,6.773,0,1,0-13.545,0Z" fill="#000000"/>
    <path d="M480.717,1040.4a80.05,80.05,0,0,0-15.335,5.232,114.64,114.64,0,0,0-60.637,60.909c-9.2,21.677-12.589,45.5-11.7,68.964.7,18.54,4.294,36.993,8.779,54.953a629.186,629.186,0,0,0,19.027,61.141c7.6,21.036,15.982,41.782,24.794,62.337q11.781,27.482,24.644,54.482,9.72,20.475,19.975,40.69c3.372,6.639,6.778,13.263,10.281,19.834q.232.438.467.873a6.832,6.832,0,0,0,9.266,2.43,6.919,6.919,0,0,0,2.43-9.266c-2.4-4.453-4.719-8.946-7.033-13.441q-9.092-17.663-17.739-35.548-12.274-25.333-23.7-51.067-3.137-7.08-6.2-14.192-1.611-3.744-3.2-7.495l-.3-.708c-.379-.894.46,1.1.085.2l-.7-1.659q-.849-2.021-1.689-4.045-6.264-15.073-12.112-30.314c-7.667-20.046-14.754-40.337-20.694-60.965-2.776-9.643-5.3-19.363-7.419-29.171q-1.464-6.773-2.645-13.6-.579-3.382-1.072-6.777c-.071-.486-.138-.972-.207-1.459-.24-1.7.179,1.429-.035-.267-.137-1.089-.274-2.179-.4-3.269a181.985,181.985,0,0,1-.987-29.012q.221-4.816.7-9.615.2-2.02.455-4.035.071-.567.146-1.133c-.191,1.444-.056.417-.01.116.126-.831.245-1.662.377-2.492a143.8,143.8,0,0,1,3.554-16.287,135.072,135.072,0,0,1,4.876-14.135c.139-.341.525-1.177-.147.346.123-.279.24-.56.362-.84q.317-.727.645-1.45.781-1.729,1.619-3.433,1.482-3.011,3.139-5.93a109.345,109.345,0,0,1,6.877-10.638q.464-.633.935-1.259c.537-.71.611-1.009,0-.015a23.114,23.114,0,0,1,2.038-2.53q1.842-2.217,3.8-4.331a106.829,106.829,0,0,1,7.809-7.611q1.993-1.755,4.072-3.409c.331-.264.711-.507,1.017-.8-.588.565-1.17.889-.229.184.67-.5,1.342-1,2.022-1.493a110.055,110.055,0,0,1,15-9.081q1.712-.859,3.455-1.657.769-.353,1.544-.693c.852-.375,2.337-.941.164-.081,1.843-.729,3.674-1.473,5.546-2.127a72.557,72.557,0,0,1,6.949-2.089c.31-.074.619-.148.931-.211,3.48-.695,5.8-5.023,4.73-8.331a6.942,6.942,0,0,0-8.331-4.73Z" fill="#000000"/>
    <path d="M500.382,1510.984a261.372,261.372,0,0,0-26.368,10.079,170.341,170.341,0,0,0-20.062,10.192c-6.066,3.673-12.278,7.925-16.819,13.444a57.109,57.109,0,0,0-12.5,30.417,54.945,54.945,0,0,0,3.365,25.8c1.265,3.172,2.536,6.343,5.281,8.534a25.351,25.351,0,0,0,8.612,4.4c6.144,1.879,12.809,2.34,19.2,2.537a202.8,202.8,0,0,0,29.189-1.349c.175-.02.351-.04.526-.062A7.409,7.409,0,0,0,495.6,1613a6.772,6.772,0,0,0,0-9.578c-1.23-1.129-3.05-2.2-4.789-1.984a209.068,209.068,0,0,1-23.923,1.477c-3.125.021-6.253-.039-9.373-.227-1.534-.092-3.066-.216-4.594-.383-.361-.04-.721-.084-1.081-.126-1.43-.166,1.612.233.62.086-.763-.113-1.526-.228-2.285-.365-1.278-.23-2.55-.5-3.8-.85-.579-.16-1.154-.333-1.722-.527q-.363-.123-.722-.256c-.146-.055-.29-.115-.436-.169-.915-.337,1.058.457,1.026.438-.9-.524-1.839-.923-2.719-1.492s1.553,1.322.707.548c-.162-.149-.331-.288-.489-.443s-.291-.311-.44-.464c-.775-.8,1.118,1.663.555.717-.277-.465-.527-.926-.759-1.416-.155-.33-.3-.663-.453-.994-.4-.884.359.882.355.849a3.663,3.663,0,0,0-.318-.789,46.069,46.069,0,0,1-1.694-5.267q-.338-1.306-.6-2.628-.161-.8-.3-1.6c-.1-.577-.3-2.617-.05-.167-.209-2.057-.407-4.1-.429-6.167a51.711,51.711,0,0,1,.359-6.653c.182-1.534-.266,1.691.039-.219q.119-.741.259-1.477.357-1.872.855-3.712.433-1.6.973-3.166.29-.843.61-1.675c.1-.248.2-.495.294-.743.535-1.36-.664,1.472-.055.134a53.422,53.422,0,0,1,3.544-6.6c.706-1.105,1.47-2.164,2.237-3.226.517-.716-.727.9-.648.838a2.774,2.774,0,0,0,.358-.443c.245-.3.5-.592.753-.881a40.242,40.242,0,0,1,3.2-3.207q.821-.74,1.673-1.442c.307-.255.618-.507.93-.755,1.211-.962-1.317.994-.083.062q2.079-1.569,4.26-3a145.8,145.8,0,0,1,19.238-10.43q2.466-1.137,4.958-2.215l1.052-.452.652-.278c.765-.328-1.759.738-.711.3q1.145-.477,2.29-.948,4.245-1.736,8.546-3.332c3.319-1.233,6.659-2.42,10.03-3.5.159-.051.319-.1.479-.153,3.376-1.058,5.884-4.765,4.73-8.331-1.1-3.392-4.711-5.865-8.331-4.73Z" fill="#000000"/>
    <path d="M558.759,1616.461H728.7c2.31,0,4.624.037,6.934,0h.3c3.542,0,6.936-3.115,6.772-6.772a6.89,6.89,0,0,0-6.772-6.773H565.994c-2.311,0-4.624-.036-6.935,0-.1,0-.2,0-.3,0-3.543,0-6.936,3.115-6.773,6.773a6.891,6.891,0,0,0,6.773,6.772Z" fill="#000000"/>
    <path d="M807.914,1616.461H944.6c6.3,0,12.6.122,18.9,0,.085,0,.169,0,.254,0,3.543,0,6.936-3.115,6.773-6.772a6.891,6.891,0,0,0-6.773-6.773H827.066c-6.3,0-12.6-.122-18.9,0-.085,0-.17,0-.255,0-3.542,0-6.936,3.115-6.772,6.773a6.89,6.89,0,0,0,6.772,6.772Z" fill="#000000"/>
    <path d="M1300.716,1539.37c16.409-.889,32.5-5.559,47.726-11.52a291.979,291.979,0,0,0,55.765-29.268c37.989-25.4,72.529-59.683,91.151-101.985,11.163-25.358,14.519-52.506,17.909-79.791a756.386,756.386,0,0,0,5.963-86.262c.42-45.613-4.353-90.965-12.944-135.731-7.282-37.944-17.08-75.358-24.132-113.348-7.586-40.872-11.06-82.248-8.952-123.81a452.374,452.374,0,0,1,33.946-150.182c20.561-49.706,50.036-96.273,87.571-134.895A345.429,345.429,0,0,1,1656.74,521.7c20.067-12.773,41.373-23.85,62.737-34.275,40.194-19.615,82.816-37.368,127.065-45.214,15.79-2.8,32.887-4.478,48.582-.939,12.3,2.774,22.281,8.645,27.663,19.971,7.3,15.356,3.469,35.491-.21,51.822-5.7,25.31-15.1,49.611-28.859,71.648-24.739,39.611-62.036,68.4-101.406,92.43-40.233,24.553-83.543,44-119.243,75.357-33.656,29.566-58.11,67.843-69.159,111.379-6.322,24.911-8.541,50.826-7.98,76.477.736,33.632,4.03,67.3,6.917,100.8,5.424,62.956,11.656,126.22,7.65,189.457-1.919,30.309-6.1,60.432-14.4,89.69a390.951,390.951,0,0,1-33.239,80.839c-26.222,47.952-62.127,91.969-106.612,124.092-40.483,29.232-90.734,50.138-141.4,48.123-8.469-.337-14.229-.608-22.129-2.976-8.367-2.509-11.943,10.559-3.6,13.061,8.208,2.461,17.225,3.122,25.73,3.46,22.209.884,44.679-2.688,65.921-9.036,54.521-16.294,101.815-50.547,139.4-92.7a415.353,415.353,0,0,0,85.74-150.426c18.657-59.02,21.162-122.022,18.589-183.452-2.793-66.66-11.256-132.939-14.6-199.571-2.484-49.572,4.987-99.813,31.821-142.408,24.232-38.464,61.2-66.309,100.492-88.051,41.7-23.073,84.228-45.964,119.743-78.2A241.494,241.494,0,0,0,1936.007,515c3.987-18.218,7.352-38.534.263-56.473-5.383-13.624-16.067-23.049-29.7-28.037-15.284-5.59-32.561-5.364-48.509-3.543-20.79,2.375-41.144,7.569-61.016,14.022-45.323,14.717-88.9,35.432-130.271,58.963-47.321,26.915-87.271,64.057-119.315,107.958-32.007,43.851-55.874,93.824-70.817,145.981-13.748,47.989-19.176,98.15-17.282,148,1.531,40.3,8.505,80,17.142,119.31,8.612,39.206,18.075,78.241,23.5,118.061,6.863,50.388,7.218,101.419,2.507,152.018q-2.276,24.438-6,48.712c-2,13.125-4.187,26.064-8.527,38.649-7.539,21.864-20.087,41.943-35.093,59.449a278.01,278.01,0,0,1-107,76.306c-14.41,5.719-29.918,10.624-45.175,11.45-8.67.47-8.725,14.018,0,13.545Z" fill="#000000"/>
    <path d="M140.544,181.68a215.066,215.066,0,0,0,17.126,44.508,6.824,6.824,0,0,0,9.266,2.43,6.93,6.93,0,0,0,2.43-9.266q-2.618-5.059-4.961-10.253-.62-1.378-1.22-2.766c-.183-.425-.389-.847-.549-1.282l.322.761q-.18-.429-.358-.859-1.065-2.577-2.062-5.184a207.253,207.253,0,0,1-6.933-21.69,6.774,6.774,0,1,0-13.061,3.6Z" fill="#000000"/>
    <path d="M179.588,167.039a384.551,384.551,0,0,0,19.649,55.686,6.777,6.777,0,0,0,4.048,3.113,6.92,6.92,0,0,0,5.218-.683,6.837,6.837,0,0,0,3.113-4.047,7.861,7.861,0,0,0-.683-5.219q-.763-1.736-1.511-3.478c-.149-.35-1.039-2.349-.243-.564-.193-.433-.367-.875-.549-1.312q-1.365-3.282-2.668-6.59-2.606-6.617-4.955-13.329-4.7-13.422-8.357-27.178a6.775,6.775,0,0,0-13.062,3.6Z" fill="#000000"/>
    <path d="M216.506,156.284a485.538,485.538,0,0,0,16.32,54.414,7.274,7.274,0,0,0,3.112,4.047,6.917,6.917,0,0,0,5.219.683c3.259-1.055,6.03-4.768,4.73-8.331a485.538,485.538,0,0,1-16.32-54.414,6.834,6.834,0,0,0-8.331-4.73,6.917,6.917,0,0,0-4.73,8.331Z" fill="#000000"/>
    <path d="M253.631,148.437l16.8,47.209c1.185,3.329,4.674,5.913,8.331,4.73,3.283-1.063,6-4.758,4.731-8.331l-16.8-47.209c-1.185-3.329-4.674-5.913-8.331-4.73-3.283,1.063-6,4.758-4.73,8.331Z" fill="#000000"/>
    <path d="M292.174,141.14a199.874,199.874,0,0,0,11.175,31.8,6.782,6.782,0,0,0,4.047,3.113,6.923,6.923,0,0,0,5.219-.683,6.835,6.835,0,0,0,3.112-4.047,7.817,7.817,0,0,0-.683-5.219q-.382-.859-.759-1.722c-.125-.288-.248-.576-.373-.864-.626-1.446.394.957.041.1-.479-1.16-.956-2.319-1.417-3.486q-1.469-3.72-2.778-7.5-2.579-7.447-4.523-15.091a6.774,6.774,0,1,0-13.061,3.6Z" fill="#000000"/>
    <path d="M320.6,136.7l3.074,7.517a7.574,7.574,0,0,0,3.112,4.047,5.044,5.044,0,0,0,2.518.8,5.14,5.14,0,0,0,2.7-.121,6.845,6.845,0,0,0,4.047-3.113l.683-1.617a6.812,6.812,0,0,0,0-3.6l-3.074-7.517a7.574,7.574,0,0,0-3.112-4.047,5.041,5.041,0,0,0-2.518-.8,5.141,5.141,0,0,0-2.7.121,6.855,6.855,0,0,0-4.047,3.113L320.6,133.1a6.833,6.833,0,0,0,0,3.6Z" fill="#000000"/>
    <path d="M793.507,551.654q8.343.694,16.653,1.74c.712.09,1.424.184,2.135.276.952.122-1.328-.183-.377-.052l.948.13q2.25.312,4.5.649,4.021.6,8.03,1.292,16.5,2.835,32.724,7.08,9.258,2.425,18.386,5.3a6.832,6.832,0,0,0,8.331-4.73,6.919,6.919,0,0,0-4.73-8.331,399.587,399.587,0,0,0-67.572-14.856q-9.488-1.257-19.026-2.047c-3.54-.3-6.927,3.326-6.773,6.773.176,3.921,2.981,6.456,6.773,6.772Z" fill="#000000"/>
    <path d="M829.763,516.963q6.186.4,12.342,1.155l1.419.18c1.422.178-1.481-.208.326.045q1.535.216,3.066.453,3.063.474,6.111,1.038a215.359,215.359,0,0,1,24.065,5.911,6.838,6.838,0,0,0,8.331-4.73,6.915,6.915,0,0,0-4.73-8.331,223.259,223.259,0,0,0-50.93-9.266c-3.542-.232-6.929,3.28-6.772,6.772a6.933,6.933,0,0,0,6.772,6.773Z" fill="#000000"/>
    <path d="M835.586,484.218q8.592.4,17.135,1.452c.47.059,2.755.382.7.083.681.1,1.364.188,2.044.287q2.157.314,4.307.668,4.3.709,8.569,1.587a223.5,223.5,0,0,1,33.034,9.483q2.149.8,4.281,1.645,1.067.423,2.128.856.531.217,1.061.437c.2.082,1.685.726.672.278-1.053-.464.34.149.457.2q.631.273,1.262.548,1.05.461,2.1.931,2.3,1.035,4.577,2.123a7.269,7.269,0,0,0,5.219.683,6.909,6.909,0,0,0,4.047-3.113c1.595-3.018.985-7.638-2.429-9.266a230.05,230.05,0,0,0-68.178-20.467c-6.97-.941-13.957-1.631-20.983-1.958a6.821,6.821,0,0,0-6.773,6.772,6.92,6.92,0,0,0,6.773,6.773Z" fill="#000000"/>
    <path d="M846.545,444.51q8.571.648,17.1,1.7.948.119,1.895.241c.126.016,1.7.21.52.066-1.025-.125.028,0,.283.039q2.247.309,4.49.646,4.249.637,8.483,1.38,16.815,2.945,33.294,7.5,9.321,2.577,18.489,5.661a6.822,6.822,0,0,0,8.331-4.731,6.932,6.932,0,0,0-4.73-8.331,364.408,364.408,0,0,0-68.687-15.712q-9.707-1.272-19.472-2.005c-3.541-.268-6.928,3.306-6.772,6.773a6.939,6.939,0,0,0,6.772,6.772Z" fill="#000000"/>
    <path d="M860.5,422.945q6.756.071,13.5.537,3.369.237,6.73.575c2.222.225,4.518.355,6.711.78-1.832-.355-.329-.043.112.018q.956.135,1.91.277,1.671.249,3.337.524,3.333.549,6.648,1.2,6.63,1.3,13.172,3c3.425.887,7.51-1.127,8.331-4.73a6.89,6.89,0,0,0-4.731-8.331,232.175,232.175,0,0,0-55.719-7.4,6.773,6.773,0,0,0,0,13.545Z" fill="#000000"/>
    <path d="M852.069,379.778q5.627.411,11.232,1.054,1.233.143,2.465.3l1.119.142.447.059q1.125.148-.458-.063a9.984,9.984,0,0,0,2.681.379q1.563.23,3.123.477,10.7,1.7,21.233,4.257,10.745,2.61,21.25,6.1,5.141,1.706,10.208,3.619,2.533.957,5.047,1.964,1.047.418,2.091.848.625.256,1.251.517l.832.349q-1.386-.587-.371-.155c7.6,3.275,15.062,6.849,22.344,10.788,3.115,1.685,7.519.877,9.266-2.43,1.668-3.156.9-7.465-2.43-9.266a274.054,274.054,0,0,0-84.894-29.288q-13.133-2.2-26.436-3.19c-3.541-.26-6.928,3.3-6.772,6.772a6.938,6.938,0,0,0,6.772,6.773Z" fill="#000000"/>
    <path d="M990.566,687.018a45.557,45.557,0,0,1,3.617,3.564q.852.942,1.649,1.932c.328.407.882,1.439-.167-.226.224.355.507.683.75,1.026a45.852,45.852,0,0,1,4.836,8.708l-.683-1.618a46.491,46.491,0,0,1,2.066,6.191,6.775,6.775,0,0,0,13.062-3.6,51.574,51.574,0,0,0-15.553-25.554c-2.652-2.346-7-2.808-9.577,0-2.357,2.567-2.835,7.072,0,9.578Z" fill="#000000"/>
    <path d="M1011.473,661.566q1.982,2.232,3.85,4.561c.23.288.492.82.792,1q-.935-1.213-.278-.357c.129.169.258.339.385.51q.834,1.107,1.638,2.236a110.994,110.994,0,0,1,11.338,19.992c.2.465.484,1.715-.011-.05a11.631,11.631,0,0,0,.487,1.183q.561,1.383,1.083,2.781,1.047,2.8,1.938,5.645c1.063,3.374,4.762,5.885,8.331,4.73,3.388-1.1,5.87-4.712,4.73-8.331a119.505,119.505,0,0,0-24.706-43.481,6.813,6.813,0,0,0-9.577,0,6.929,6.929,0,0,0,0,9.577Z" fill="#000000"/>
    <path d="M1035.739,636.626a237.551,237.551,0,0,1,29.749,50.221c.236.542.468,1.086.7,1.628.466,1.079-.107-.253-.163-.393.166.411.342.818.512,1.228q.762,1.842,1.494,3.7,1.545,3.918,2.948,7.89c1.18,3.331,4.677,5.913,8.331,4.73,3.287-1.063,6-4.755,4.73-8.331a244.626,244.626,0,0,0-26.782-53.829q-4.667-7.013-9.826-13.68a7.468,7.468,0,0,0-4.047-3.112,6.922,6.922,0,0,0-5.219.682,6.837,6.837,0,0,0-3.112,4.048c-.374,1.643-.4,3.816.683,5.219Z" fill="#000000"/>
    <path d="M1071.072,605.059q4.605,5.083,8.967,10.382,2.142,2.605,4.222,5.263c.185.236.368.473.553.709.463.589-.375-.487-.37-.481.36.479.731.951,1.094,1.428q1.089,1.433,2.161,2.878,8.1,10.932,15.123,22.612,4,6.651,7.624,13.515a6.829,6.829,0,0,0,9.266,2.43,6.923,6.923,0,0,0,2.43-9.266,291.65,291.65,0,0,0-31.245-47.1q-4.956-6.117-10.247-11.95a6.82,6.82,0,0,0-9.578,0,6.926,6.926,0,0,0,0,9.578Z" fill="#000000"/>
    <path d="M1092.689,567.905a327.987,327.987,0,0,1,28.8,24.75,158.149,158.149,0,0,1,12.487,13.8c.245.307.487.616.73.924.892,1.127-.965-1.278-.1-.13.47.625.943,1.249,1.4,1.88q1.383,1.889,2.689,3.83c1.732,2.577,3.355,5.228,4.846,7.952q1.209,2.208,2.3,4.479.5,1.049.977,2.11c.158.354.311.71.467,1.065q.421.985-.229-.546.15.359.3.719a83.6,83.6,0,0,1,3.329,10.016,6.774,6.774,0,1,0,13.061-3.6c-6.795-25.73-25.072-46.206-44.771-63.2-5.442-4.695-11.048-9.194-16.7-13.626a7.386,7.386,0,0,0-4.789-1.984,6.893,6.893,0,0,0-4.789,1.984c-2.235,2.434-2.978,7.244,0,9.577Z" fill="#000000"/>
    <path d="M1112.859,529.157a130,130,0,0,1,17.378,10.334c1.4.991,2.781,2.019,4.152,3.054.584.441-.673-.524-.615-.476.194.164.4.315.6.471q.45.354.9.712,1.044.836,2.07,1.692,3.885,3.242,7.52,6.771t6.993,7.317q1.71,1.929,3.347,3.924.788.959,1.558,1.933c.237.3.468.605.707.9.047.06-.917-1.2-.476-.614.153.2.309.4.463.608a133.868,133.868,0,0,1,11.045,17.167q2.676,4.955,4.92,10.128c.1.233.2.468.3.7.342.789-.561-1.358-.238-.562.168.413.34.824.507,1.237q.537,1.327,1.042,2.668,1.047,2.769,1.964,5.585c1.1,3.362,4.736,5.894,8.331,4.73,3.356-1.086,5.909-4.725,4.73-8.331a137.533,137.533,0,0,0-19.426-38.166A145.407,145.407,0,0,0,1139.7,529.7a129.981,129.981,0,0,0-20.006-12.238c-3.172-1.567-7.476-.959-9.266,2.429-1.615,3.057-.962,7.592,2.43,9.266Z" fill="#000000"/>
    <path d="M1078.23,932.69a121.881,121.881,0,0,1,4.195,13.238q.84,3.309,1.493,6.663.315,1.618.584,3.245.155.928.294,1.861c.061.409.355,2.594.084.532a7.456,7.456,0,0,0,1.983,4.789,6.774,6.774,0,0,0,9.578,0c1.122-1.223,2.211-3.059,1.984-4.789a128.941,128.941,0,0,0-7.134-29.14,7.328,7.328,0,0,0-3.112-4.047,6.913,6.913,0,0,0-5.219-.683c-3.222,1.043-6.077,4.785-4.73,8.331Z" fill="#000000"/>
    <path d="M1112.213,914.806l7.4,43.5a6.794,6.794,0,0,0,3.113,4.047,6.915,6.915,0,0,0,5.218.683c3.779-1.223,5.368-4.579,4.73-8.331l-7.4-43.5a6.8,6.8,0,0,0-3.112-4.048,6.922,6.922,0,0,0-5.219-.683c-3.779,1.223-5.368,4.579-4.73,8.331Z" fill="#000000"/>
    <path d="M1142.733,898.56q.674,1.428,1.315,2.87c.243.548.463,1.111.718,1.654,0,.011-.529-1.281-.246-.578.14.348.286.7.427,1.043q1.226,3.03,2.292,6.122a127.414,127.414,0,0,1,3.673,12.778q.764,3.3,1.352,6.627.274,1.556.511,3.115c.079.521.151,1.042.226,1.562.134.926-.174-1.388-.063-.459.045.373.094.746.139,1.119a126.407,126.407,0,0,1,.186,28.347,6.771,6.771,0,0,0,1.984,4.788,6.88,6.88,0,0,0,4.789,1.984c3.987-.178,6.374-2.985,6.772-6.772a132.639,132.639,0,0,0-6.073-55.409,142,142,0,0,0-6.306-15.627c-1.515-3.214-6.38-4.291-9.266-2.43-3.306,2.131-4.05,5.828-2.43,9.266Z" fill="#000000"/>
    <path d="M1174.166,882.776a111.607,111.607,0,0,1,5.971,10.983q.657,1.389,1.274,2.8l.263.6c.469,1.072-.116-.268-.168-.406.206.547.447,1.083.664,1.625q1.14,2.855,2.123,5.766a112.643,112.643,0,0,1,3.383,12.265q.648,3,1.132,6.038.121.759.232,1.519c.25,1.721-.125-1.081.025.156.132,1.09.261,2.179.368,3.271a111.8,111.8,0,0,1,.465,14.246,6.829,6.829,0,0,0,6.772,6.773,6.91,6.91,0,0,0,6.773-6.773,120.112,120.112,0,0,0-10.693-52.722,111.413,111.413,0,0,0-6.888-12.976c-1.86-3.013-6.14-4.445-9.266-2.43-3.022,1.948-4.421,6.041-2.43,9.266Z" fill="#000000"/>
    <path d="M1217.24,868.108q1.313,2.651,2.5,5.358c.121.278.242.556.361.835q-.579-1.38-.154-.36c.171.421.346.841.515,1.264q.507,1.266.985,2.545a118.974,118.974,0,0,1,3.641,11.486q1.5,5.721,2.425,11.571.124.786.238,1.574l.064.45q.156,1.125-.06-.448c.1.008.323,2.774.34,2.937.211,2.037.364,4.078.471,6.123.185,3.532,2.982,6.942,6.772,6.772,3.511-.157,6.971-2.983,6.773-6.772a127.833,127.833,0,0,0-13.177-50.171c-1.578-3.181-6.338-4.318-9.267-2.43a6.942,6.942,0,0,0-2.429,9.266Z" fill="#000000"/>
    <path d="M1248.092,824.314a460.107,460.107,0,0,1,12.9,51.522q1.393,7.357,2.546,14.757a6.775,6.775,0,0,0,3.113,4.048,6.771,6.771,0,0,0,9.266-2.43,7.823,7.823,0,0,0,.683-5.218,460.156,460.156,0,0,0-11.2-51.917q-2-7.215-4.239-14.363c-1.055-3.377-4.768-5.883-8.331-4.73-3.394,1.1-5.861,4.709-4.73,8.331Z" fill="#000000"/>
    <path d="M1055.462,1149.5a74.482,74.482,0,0,0-15.486,31.569c-.738,3.455,1.021,7.486,4.73,8.331,3.405.775,7.54-1.025,8.331-4.73a67.776,67.776,0,0,1,2.015-7.412q.612-1.821,1.327-3.606c.048-.12.6-1.443.147-.374s.115-.247.168-.367q.391-.878.808-1.743a67.025,67.025,0,0,1,3.721-6.719q1.026-1.625,2.144-3.188c.224-.312,1.155-1.223,1.141-1.546.007.179-.9,1.141-.274.359.268-.333.535-.666.805-1a7.3,7.3,0,0,0,1.984-4.789,6.893,6.893,0,0,0-1.984-4.789c-2.483-2.279-7.18-2.927-9.577,0Z" fill="#000000"/>
    <path d="M1082.851,1168.817a78.05,78.05,0,0,0-14.07,42.737,6.831,6.831,0,0,0,6.772,6.773,6.907,6.907,0,0,0,6.773-6.773c.048-1.717.15-3.431.32-5.14q.065-.64.14-1.28c.051-.432.357-1.906-.02.1.159-.843.259-1.7.411-2.543a71.655,71.655,0,0,1,2.554-9.972q.408-1.221.861-2.428a10.872,10.872,0,0,0,.947-2.395l-.348.827q.17-.394.344-.787.263-.588.534-1.171.544-1.167,1.131-2.314a71.33,71.33,0,0,1,5.347-8.8c2.057-2.9.609-7.66-2.43-9.266-3.485-1.841-7.071-.663-9.266,2.43Z" fill="#000000"/>
    <path d="M1126.45,1175.221a351.349,351.349,0,0,0-16.858,57.173c-.707,3.461,1,7.482,4.731,8.331,3.379.77,7.571-1.018,8.331-4.73a351.161,351.161,0,0,1,16.858-57.174,6.81,6.81,0,0,0-.683-5.218,6.9,6.9,0,0,0-4.048-3.113c-3.887-.885-6.95,1.188-8.331,4.731Z" fill="#000000"/>
    <path d="M1175.93,1194.3a120.07,120.07,0,0,0-10.829,45.9,6.827,6.827,0,0,0,6.772,6.772,6.909,6.909,0,0,0,6.773-6.772c.114-3.586.417-7.15.848-10.711q.1-.788-.09.667.046-.34.1-.679.1-.679.206-1.357.2-1.242.421-2.48.49-2.7,1.114-5.375,1.194-5.122,2.871-10.117.873-2.6,1.876-5.158.25-.638.509-1.274c.176-.433.506-1.783.02-.071a19.066,19.066,0,0,1,1.109-2.511,7.344,7.344,0,0,0,.682-5.218,6.905,6.905,0,0,0-3.112-4.048c-2.968-1.568-7.7-1.014-9.266,2.43Z" fill="#000000"/>
    <path d="M1216.273,1205.144a137.626,137.626,0,0,0-6.1,39.579c-.026,3.543,3.133,6.935,6.772,6.772a6.894,6.894,0,0,0,6.773-6.772q.034-4.738.4-9.464.186-2.361.459-4.714.068-.588.142-1.176c.058-.463-.009-1.548-.026.157a17.02,17.02,0,0,1,.346-2.343,130.92,130.92,0,0,1,4.292-18.439,6.836,6.836,0,0,0-4.73-8.331,6.917,6.917,0,0,0-8.331,4.731Z" fill="#000000"/>
    <path d="M1260.259,1208.239a152.261,152.261,0,0,0-1.75,31.96c.194,3.532,2.975,6.943,6.772,6.773,3.5-.157,6.982-2.984,6.773-6.773a144.17,144.17,0,0,1-.063-14.876q.177-3.656.541-7.3c.122-1.214.268-2.425.412-3.637q.148-1.143-.051.349.066-.483.136-.966.138-.966.291-1.93a7.392,7.392,0,0,0-.683-5.219,6.9,6.9,0,0,0-4.047-3.112c-3.24-.738-7.746.987-8.331,4.73Z" fill="#000000"/>
    <path d="M1299.993,1182.854q1.611,30.149.592,60.356a6.828,6.828,0,0,0,6.773,6.773,6.91,6.91,0,0,0,6.772-6.773q1.02-30.174-.592-60.356c-.189-3.532-2.98-6.943-6.773-6.773-3.507.157-6.975,2.984-6.772,6.773Z" fill="#000000"/>
    <path d="M974.4,1340.726a53.524,53.524,0,0,0,4.813,38.464,6.834,6.834,0,0,0,9.266,2.429,6.917,6.917,0,0,0,2.43-9.266c-.34-.629-.67-1.262-.982-1.9-.125-.257-.247-.516-.367-.775-.055-.121-.609-1.435-.178-.367.419,1.037-.059-.154-.148-.38q-.2-.5-.38-1-.332-.9-.625-1.824-.651-2.041-1.11-4.138-.205-.943-.373-1.893c-.062-.352-.114-.7-.174-1.058-.211-1.241.128,1.183.04.314a51.718,51.718,0,0,1-.255-8.131q.056-.963.15-1.922c.035-.356.08-.71.119-1.065.094-.868-.257,1.554-.034.315.253-1.409.517-2.806.869-4.2.869-3.429-1.114-7.507-4.73-8.331a6.888,6.888,0,0,0-8.331,4.731Z" fill="#000000"/>
    <path d="M1005.673,1330.428a85.628,85.628,0,0,0-.263,24.208,84.634,84.634,0,0,0,6.681,23.207,6.782,6.782,0,0,0,4.047,3.113,6.923,6.923,0,0,0,5.219-.683,6.835,6.835,0,0,0,3.112-4.047,7.824,7.824,0,0,0-.683-5.219q-.183-.411-.362-.823l.331.79c-.156-.42-.343-.832-.509-1.249q-.5-1.254-.949-2.525-.83-2.33-1.5-4.71-.735-2.6-1.286-5.238-.253-1.211-.466-2.429-.115-.665-.22-1.331c-.044-.279-.089-1.79-.106-.657-.017,1.113-.018-.164-.051-.437q-.078-.67-.146-1.341-.134-1.342-.222-2.689-.167-2.58-.158-5.167t.192-5.165q.1-1.346.242-2.687c.04-.372.089-.744.129-1.116q.1-.791-.1.686.061-.446.129-.89a7.43,7.43,0,0,0-.682-5.219,6.774,6.774,0,0,0-9.266-2.43,6.526,6.526,0,0,0-3.113,4.048Z" fill="#000000"/>
    <path d="M1044.345,1324.647a154.107,154.107,0,0,0,6.455,50.011c1.023,3.387,4.791,5.875,8.331,4.73,3.422-1.108,5.827-4.7,4.73-8.331q-1.748-5.788-3.029-11.7-.624-2.9-1.13-5.817-.264-1.518-.495-3.042c-.083-.547-.16-1.1-.24-1.642-.2-1.4.178,1.441-.009-.079a151.538,151.538,0,0,1-1.068-24.129,6.825,6.825,0,0,0-6.772-6.773,6.914,6.914,0,0,0-6.773,6.773Z" fill="#000000"/>
    <path d="M1080.97,1336.976l6.243,36.156a6.8,6.8,0,0,0,3.112,4.047,6.913,6.913,0,0,0,5.219.683c3.772-1.221,5.378-4.581,4.73-8.331l-6.243-36.156a6.8,6.8,0,0,0-3.112-4.047,6.913,6.913,0,0,0-5.219-.683c-3.772,1.22-5.378,4.58-4.73,8.331Z" fill="#000000"/>
    <path d="M1125.617,1344.647l6.475,27.038a6.833,6.833,0,0,0,8.331,4.73,6.916,6.916,0,0,0,4.73-8.331l-6.475-27.038a6.835,6.835,0,0,0-8.331-4.73,6.914,6.914,0,0,0-4.73,8.331Z" fill="#000000"/>
    <path d="M1011.52,1475.319l17.5,29.886c1.79,3.058,6.19,4.413,9.266,2.43a6.9,6.9,0,0,0,2.43-9.266l-17.5-29.886c-1.79-3.058-6.19-4.413-9.266-2.43a6.9,6.9,0,0,0-2.43,9.266Z" fill="#000000"/>
    <path d="M1051.7,1466.4a52.376,52.376,0,0,0,14.378,36.347,6.835,6.835,0,0,0,9.578,0,6.911,6.911,0,0,0,0-9.578c-.941-.991-1.77-2.073-2.685-3.083,1.266,1.4.336.435.068.07q-.3-.413-.594-.832-.585-.838-1.131-1.7-1.092-1.729-2.024-3.552-.511-1-.975-2.027c-.112-.248-.213-.5-.329-.749.852,1.8.218.5.064.1a45.267,45.267,0,0,1-2.258-7.851c-.128-.669-.209-1.348-.34-2.016.433,2.213-.011-.255-.06-.839-.12-1.428-.163-2.858-.147-4.29a6.773,6.773,0,0,0-13.545,0Z" fill="#000000"/>
    <path d="M1092.66,1471.011q1.722,3.366,3.313,6.8.693,1.5,1.36,3.016c.254.577.5,1.156.752,1.734q.436,1.026-.13-.312c.122.291.242.582.363.873q2.793,6.776,5.035,13.756c1.086,3.367,4.746,5.891,8.331,4.731,3.368-1.09,5.895-4.721,4.73-8.331a196.112,196.112,0,0,0-12.058-29.1,6.821,6.821,0,0,0-9.266-2.429,6.931,6.931,0,0,0-2.43,9.266Z" fill="#000000"/>
    <path d="M1124.951,1483.587a39.363,39.363,0,0,1,4.317,7.664l-.683-1.618a39.536,39.536,0,0,1,2.218,7.173,6.773,6.773,0,0,0,12.378,1.617,7.442,7.442,0,0,0,.683-5.218,43.524,43.524,0,0,0-7.218-16.454,7.325,7.325,0,0,0-4.047-3.113,6.923,6.923,0,0,0-5.219.683,6.835,6.835,0,0,0-3.112,4.047,6.641,6.641,0,0,0,.683,5.219Z" fill="#000000"/>
    <path d="M551.6,691.649c-1.058-1.363-.319-.414-.087-.11s.459.6.687.906q.686.907,1.358,1.824,1.347,1.832,2.648,3.7,2.668,3.823,5.139,7.779,4.881,7.813,8.964,16.084c1.574,3.183,6.339,4.317,9.266,2.43a6.942,6.942,0,0,0,2.429-9.266,194.322,194.322,0,0,0-20.827-32.922,6.752,6.752,0,0,0-4.788-1.984,6.891,6.891,0,0,0-4.789,1.984,6.813,6.813,0,0,0-1.984,4.789,7.964,7.964,0,0,0,1.984,4.789Z" style="         fill: #ffa400;       "/>
    <path d="M579.335,800.253a64.928,64.928,0,0,1,7.3,11.978c.244.522.471,1.052.712,1.576.375.817-.507-1.259-.177-.424.106.269.218.534.324.8q.638,1.608,1.188,3.249a65.711,65.711,0,0,1,1.885,6.877,6.823,6.823,0,0,0,8.331,4.731,6.93,6.93,0,0,0,4.73-8.331,69.487,69.487,0,0,0-12.594-27.294,7.459,7.459,0,0,0-4.048-3.113,6.927,6.927,0,0,0-5.219.683,6.834,6.834,0,0,0-3.112,4.048c-.375,1.647-.4,3.81.683,5.218Z" style="         fill: #ffa400;       "/>
    <path d="M626.9,810.709l3.016,7.54a7.58,7.58,0,0,0,3.113,4.048,5.038,5.038,0,0,0,2.518.8,5.137,5.137,0,0,0,2.7-.121,6.854,6.854,0,0,0,4.048-3.113l.683-1.618a6.829,6.829,0,0,0,0-3.6l-3.016-7.54a7.59,7.59,0,0,0-3.113-4.048,5.03,5.03,0,0,0-2.518-.8,5.126,5.126,0,0,0-2.7.12,6.854,6.854,0,0,0-4.048,3.113l-.683,1.618a6.829,6.829,0,0,0,0,3.6Z" style="         fill: #ffa400;       "/>
    <path d="M669.507,774.8,693.1,814.948c1.795,3.055,6.187,4.415,9.266,2.43a6.9,6.9,0,0,0,2.43-9.266L681.2,767.964c-1.795-3.055-6.187-4.415-9.267-2.429a6.9,6.9,0,0,0-2.429,9.266Z" style="         fill: #ffa400;       "/>
    <path d="M638.241,917.831q1.056,1.995,2.026,4.032.483,1.018.943,2.05c.122.275.241.551.363.826.643,1.454-.578-1.428.021.045,1.107,2.718,2.115,5.471,2.987,8.274s1.616,5.641,2.233,8.509q.474,2.207.846,4.433.166,1,.313,2.006c.207,1.428-.187-.086-.027-.236-.11.1.148,1.213.163,1.344a7.387,7.387,0,0,0,1.984,4.789,6.771,6.771,0,0,0,9.577,0,6.53,6.53,0,0,0,1.984-4.789,107.7,107.7,0,0,0-11.717-38.12,6.828,6.828,0,0,0-9.266-2.429,6.922,6.922,0,0,0-2.43,9.266Z" style="         fill: #ffa400;       "/>
    <path d="M678.578,1010.92l3.455,36.294a7.3,7.3,0,0,0,1.984,4.789,6.883,6.883,0,0,0,4.789,1.983c3.381-.151,7.132-3,6.772-6.772l-3.455-36.294a7.293,7.293,0,0,0-1.983-4.789,6.884,6.884,0,0,0-4.789-1.984c-3.382.152-7.132,3-6.773,6.773Z" style="         fill: #ffa400;       "/>
    <path d="M695.578,887.651q4.481,8.214,8.187,16.816c.123.287.239.577.367.861-.77-1.7-.089-.2.039.108q.445,1.082.879,2.167.824,2.064,1.6,4.146,1.676,4.493,3.131,9.063c1.077,3.369,4.751,5.888,8.331,4.73,3.375-1.093,5.885-4.718,4.73-8.331a208.974,208.974,0,0,0-15.568-36.4,6.836,6.836,0,0,0-9.266-2.43,6.915,6.915,0,0,0-2.43,9.266Z" style="         fill: #ffa400;       "/>
    <path d="M735.97,967.99c3.543,0,6.937-3.115,6.773-6.772a6.89,6.89,0,0,0-6.773-6.773c-3.542,0-6.936,3.115-6.772,6.773a6.89,6.89,0,0,0,6.772,6.772Z" style="         fill: #ffa400;       "/>
    <path d="M627.134,721.7l9.053,9.043a6.991,6.991,0,0,0,4.789,1.984,7.525,7.525,0,0,0,4.789-1.984,6.812,6.812,0,0,0,1.984-4.789,7.059,7.059,0,0,0-1.984-4.789l-9.053-9.042a6.987,6.987,0,0,0-4.789-1.984,7.531,7.531,0,0,0-4.789,1.984,6.81,6.81,0,0,0-1.983,4.788,7.056,7.056,0,0,0,1.983,4.789Z" style="         fill: #ffa400;       "/>
    <path d="M788.909,949.57q1.24,2.416,2.353,4.9c.183.409.344.843.545,1.244-.834-1.667-.13-.3.015.053q.513,1.258.989,2.531a97.084,97.084,0,0,1,3.179,10.15c.878,3.455,1.414,6.937,2.052,10.437-.357-1.96-.056-.4-.008,0q.083.675.154,1.35.144,1.352.25,2.705c.142,1.807.227,3.616.27,5.427.083,3.539,3.055,6.939,6.772,6.773,3.6-.162,6.862-2.979,6.773-6.773A105.382,105.382,0,0,0,800.6,942.733a6.821,6.821,0,0,0-9.266-2.43,6.933,6.933,0,0,0-2.429,9.267Z" style="         fill: #ffa400;       "/>
    <path d="M734.177,1076.084q.156.963.3,1.928.071.482.138.965-.181-1.371-.081-.592c.145,1.211.292,2.421.41,3.635q.33,3.4.467,6.811a121.85,121.85,0,0,1-.27,14.133c-.271,3.54,3.308,6.927,6.772,6.772a6.941,6.941,0,0,0,6.773-6.772,129.007,129.007,0,0,0-1.447-30.481,6.787,6.787,0,0,0-3.113-4.047,6.911,6.911,0,0,0-5.218-.683c-3.8,1.23-5.338,4.572-4.731,8.331Z" style="         fill: #ffa400;       "/>
    <path d="M592.775,1021.458a100.3,100.3,0,0,1,9.807,10.906l-1.059-1.371a101.183,101.183,0,0,1,6.271,9.152c1.838,3.028,6.156,4.435,9.266,2.43a6.887,6.887,0,0,0,2.43-9.266,106.155,106.155,0,0,0-17.138-21.429c-2.557-2.455-7.069-2.732-9.577,0a6.884,6.884,0,0,0,0,9.578Z" style="         fill: #ffa400;       "/>
    <path d="M676.612,1168.123a100.146,100.146,0,0,1,3.153,12.418q.282,1.518.516,3.043c.067.43.264,2.285.061.315.048.472.12.943.176,1.414.258,2.2.435,4.41.549,6.624.182,3.532,2.985,6.942,6.773,6.772,3.513-.157,6.968-2.983,6.772-6.772a107.733,107.733,0,0,0-4.938-27.415c-1.084-3.367-4.748-5.89-8.331-4.73-3.371,1.09-5.892,4.719-4.731,8.331Z" style="         fill: #ffa400;       "/>
    <path d="M639.6,1232.715l11.273,30.453a7.283,7.283,0,0,0,3.112,4.047,6.913,6.913,0,0,0,5.219.683c3.246-1.05,6.046-4.774,4.73-8.331l-11.273-30.453a7.283,7.283,0,0,0-3.112-4.047,6.913,6.913,0,0,0-5.219-.683c-3.246,1.05-6.046,4.774-4.73,8.331Z" style="         fill: #ffa400;       "/>
    <path d="M717.571,1308.114l4.785-40.862a6.753,6.753,0,0,0-1.984-4.789,6.772,6.772,0,0,0-9.578,0,7.856,7.856,0,0,0-1.983,4.789l-4.785,40.862a6.752,6.752,0,0,0,1.983,4.789,6.774,6.774,0,0,0,9.578,0,7.857,7.857,0,0,0,1.984-4.789Z" style="         fill: #ffa400;       "/>
    <path d="M743.384,1225.555l6.166-10.477a7.011,7.011,0,0,0,.683-5.218,6.774,6.774,0,0,0-8.331-4.73,7.083,7.083,0,0,0-4.047,3.112l-6.167,10.477a7.009,7.009,0,0,0-.682,5.219,6.9,6.9,0,0,0,3.112,4.047,6.834,6.834,0,0,0,5.219.683,7.092,7.092,0,0,0,4.047-3.113Z" style="         fill: #ffa400;       "/>
    <path d="M649.515,1097.231l4.524,12.064a7.582,7.582,0,0,0,3.113,4.047,6.772,6.772,0,0,0,9.266-2.429,6.652,6.652,0,0,0,.683-5.219l-4.524-12.064a7.582,7.582,0,0,0-3.113-4.047,6.772,6.772,0,0,0-9.266,2.429,6.652,6.652,0,0,0-.683,5.219Z" style="         fill: #ffa400;       "/>
    <path d="M742.205,881.406l12.006,46.763a6.774,6.774,0,1,0,13.061-3.6l-12.006-46.763a6.774,6.774,0,1,0-13.061,3.6Z" style="         fill: #ffa400;       "/>
    <path d="M636.95,1353.687a63.96,63.96,0,0,0,2.5,23.58,67.411,67.411,0,0,0,11.577,22.093,6.759,6.759,0,0,0,4.789,1.983,6.892,6.892,0,0,0,4.789-1.983,6.812,6.812,0,0,0,1.983-4.789,7.957,7.957,0,0,0-1.983-4.789c1.225,1.577.191.234-.069-.122q-.429-.588-.842-1.186-.709-1.024-1.372-2.081-1.382-2.2-2.56-4.518-.614-1.2-1.17-2.434c-.171-.379-.329-.764-.5-1.142.807,1.768.221.511.051.08q-.99-2.514-1.749-5.112-.727-2.495-1.236-5.045c-.176-.884-.318-1.772-.467-2.661-.252-1.492.184,1.657.015.154-.046-.413-.1-.826-.139-1.239a58.125,58.125,0,0,1-.074-10.789c.3-3.539-3.331-6.926-6.773-6.772-3.927.176-6.45,2.981-6.772,6.772Z" style="         fill: #ffa400;       "/>
    <path d="M689.314,1413.084l9.917,28.367c1.166,3.336,4.687,5.909,8.331,4.73,3.3-1.067,5.982-4.75,4.73-8.331l-9.917-28.367c-1.166-3.336-4.687-5.909-8.331-4.73-3.3,1.068-5.982,4.75-4.73,8.331Z" style="         fill: #ffa400;       "/>
    <path d="M724.934,1346.21l12.614,44.381c.968,3.406,4.831,5.863,8.331,4.73a6.89,6.89,0,0,0,4.731-8.331L738,1342.609c-.968-3.406-4.831-5.863-8.331-4.73a6.89,6.89,0,0,0-4.731,8.331Z" style="         fill: #ffa400;       "/>
    <path d="M692.228,1499.5l7.813,13.632a6.986,6.986,0,0,0,4.048,3.112,6.916,6.916,0,0,0,5.218-.683,6.837,6.837,0,0,0,3.113-4.047,7.12,7.12,0,0,0-.683-5.219l-7.813-13.631a6.771,6.771,0,0,0-9.266-2.43,6.832,6.832,0,0,0-3.112,4.047,7.119,7.119,0,0,0,.682,5.219Z" style="         fill: #ffa400;       "/>
    <path d="M855.417,1481a129.348,129.348,0,0,0,10.867,24.22c1.781,3.064,6.2,4.408,9.266,2.429a6.9,6.9,0,0,0,2.43-9.266,121.613,121.613,0,0,1-6.842-13.69l.682,1.618q-1.842-4.392-3.342-8.912c-1.113-3.356-4.725-5.9-8.331-4.73-3.344,1.082-5.924,4.73-4.73,8.331Z" style="         fill: #ffa400;       "/>
    <path d="M870.851,1399.683l9.265,32.738c.964,3.407,4.833,5.862,8.331,4.73a6.891,6.891,0,0,0,4.73-8.331l-9.265-32.737c-.965-3.407-4.833-5.863-8.331-4.731a6.89,6.89,0,0,0-4.73,8.331Z" style="         fill: #ffa400;       "/>
    <path d="M578.871,966.875l12.794,9.081a6.774,6.774,0,0,0,9.949-7.648l-.683-1.618a6.8,6.8,0,0,0-2.429-2.429l-12.795-9.081a6.774,6.774,0,0,0-9.949,7.648l.683,1.618a6.807,6.807,0,0,0,2.43,2.429Z" style="         fill: #ffa400;       "/>
    <path d="M1653.445,567.76q22.394-14.431,45.83-27.144,23.419-12.694,47.758-23.588,3.383-1.514,6.782-2.992,1.7-.739,3.4-1.469.851-.365,1.7-.728l.853-.362c1.165-.5-.91.382-.125.052q6.942-2.916,13.938-5.695a7.39,7.39,0,0,0,4.048-3.112,6.922,6.922,0,0,0,.683-5.219c-1.03-3.181-4.805-6.128-8.331-4.73q-25.58,10.14-50.358,22.166-24.055,11.714-47.17,25.237-13.1,7.663-25.851,15.888c-2.975,1.917-4.471,6.1-2.43,9.266,1.917,2.973,6.081,4.482,9.266,2.43Z" fill="#000000"/>
    <path d="M1687.7,586.693q12.114-7.675,24.943-14.134,6.3-3.168,12.761-6.024,1.562-.69,3.131-1.363l.837-.357c.847-.362-1.21.5-.359.152.631-.262,1.26-.526,1.892-.785q3.264-1.341,6.56-2.6,7.548-2.886,15.251-5.342c3.369-1.077,5.888-4.752,4.73-8.331-1.092-3.375-4.717-5.885-8.331-4.73a297.683,297.683,0,0,0-54.171,23.436q-7.158,3.99-14.081,8.382c-2.99,1.9-4.461,6.116-2.43,9.266,1.93,2.993,6.065,4.458,9.267,2.43Z" fill="#000000"/>
    <path d="M1718.111,608.2a238.02,238.02,0,0,1,24.643-14.283q6.318-3.169,12.818-5.958c.415-.178,1.93-1.015.271-.118a17.614,17.614,0,0,1,1.685-.7q1.689-.692,3.387-1.357,3.4-1.33,6.833-2.555c3.328-1.189,5.915-4.67,4.731-8.331-1.061-3.279-4.76-6.007-8.331-4.73a245.383,245.383,0,0,0-52.874,26.334c-2.949,1.953-4.488,6.073-2.429,9.266,1.9,2.942,6.106,4.521,9.266,2.43Z" fill="#000000"/>
    <path d="M1728.767,638.126q25.971-9.687,51.033-21.635,24.537-11.712,47.96-25.592,13.127-7.78,25.848-16.215c2.949-1.953,4.489-6.072,2.43-9.266-1.9-2.941-6.108-4.522-9.266-2.429q-22.476,14.89-46.207,27.755-23.706,12.84-48.49,23.541-1.686.728-3.375,1.445c-.282.12-.565.237-.845.358.351-.152,1.161-.488.349-.148q-.848.354-1.694.708-3.495,1.455-7.008,2.867-7.132,2.867-14.335,5.55a7.305,7.305,0,0,0-4.048,3.112,6.922,6.922,0,0,0-.683,5.219c1.049,3.24,4.778,6.056,8.331,4.73Z" fill="#000000"/>
    <path d="M1763.4,663.617a603.757,603.757,0,0,0,58.377-25.983q7.818-4,15.513-8.226a6.837,6.837,0,0,0,2.43-9.266,6.913,6.913,0,0,0-9.266-2.429q-13.521,7.424-27.414,14.137-6.946,3.354-13.978,6.522-3.569,1.61-7.16,3.169-1.633.709-3.269,1.409-.873.373-1.747.744c-.863.367,1.171-.492.306-.129-.365.152-.729.306-1.094.459q-8.1,3.387-16.3,6.532a7.345,7.345,0,0,0-4.048,3.112,6.917,6.917,0,0,0-.682,5.219c1.039,3.212,4.789,6.089,8.331,4.73Z" fill="#000000"/>
    <path d="M1514.671,743.92a159.249,159.249,0,0,0-26.066,77.07,149.634,149.634,0,0,0,.129,22.645c.286,3.522,2.909,6.945,6.772,6.772,3.423-.153,7.08-2.991,6.773-6.772a149.428,149.428,0,0,1-.309-19.657q.247-4.913.816-9.8.073-.638.153-1.274c.022-.177.23-1.594.044-.372s.029-.2.053-.371c.061-.424.122-.847.186-1.27q.383-2.538.849-5.062a153.141,153.141,0,0,1,4.811-19.067q1.441-4.479,3.156-8.864.468-1.2.955-2.382c.154-.373.77-1.771-.023.039.114-.261.223-.525.336-.786q1.015-2.358,2.11-4.678a149.351,149.351,0,0,1,10.95-19.334c1.974-2.952.671-7.628-2.429-9.266a6.934,6.934,0,0,0-9.266,2.43Z" fill="#000000"/>
    <path d="M1540.947,767.551a178.3,178.3,0,0,0-16.354,50.906c-.845,5.341-1.492,10.716-1.89,16.109-.261,3.542,3.3,6.928,6.772,6.773a6.939,6.939,0,0,0,6.773-6.773q.235-3.194.583-6.376.164-1.477.352-2.953c.034-.261.167-1.28.029-.233-.131,1-.026.192,0-.006.087-.6.173-1.208.264-1.811q.942-6.217,2.336-12.357a172.3,172.3,0,0,1,7.508-24.465q.624-1.6,1.28-3.183c.116-.281.241-.561.352-.844-.139.353-.5,1.164-.146.354.242-.559.484-1.119.731-1.677q1.481-3.346,3.1-6.627c1.565-3.173.96-7.476-2.43-9.266-3.055-1.614-7.593-.963-9.266,2.429Z" fill="#000000"/>
    <path d="M1588.125,766.244a156.977,156.977,0,0,0-26.287,65.231,164.929,164.929,0,0,0-2,21.159,6.831,6.831,0,0,0,6.772,6.773,6.907,6.907,0,0,0,6.773-6.773q.114-4.322.469-8.632.171-2.046.4-4.086.107-.968.227-1.932c.056-.446.368-1.915-.018.086.082-.423.119-.859.18-1.284a152.722,152.722,0,0,1,8.639-32.969c.467-1.21.956-2.411,1.446-3.612.583-1.429-.627,1.44-.011.025.115-.265.227-.53.342-.794q.476-1.091.966-2.173,1.742-3.837,3.7-7.575a150.892,150.892,0,0,1,10.1-16.607c2.038-2.911.624-7.653-2.429-9.266a6.948,6.948,0,0,0-9.266,2.429Z" fill="#000000"/>
    <path d="M1599.294,788.925l-14.813,45.328a6.827,6.827,0,0,0,4.731,8.331,6.927,6.927,0,0,0,8.331-4.73l14.812-45.328a6.827,6.827,0,0,0-4.73-8.331,6.927,6.927,0,0,0-8.331,4.73Z" fill="#000000"/>
    <path d="M1516.569,1058.031l9.459,56.371,2.685,16a6.794,6.794,0,0,0,3.112,4.048,6.922,6.922,0,0,0,5.219.683c3.785-1.225,5.36-4.577,4.73-8.331l-9.459-56.371-2.685-16a6.793,6.793,0,0,0-3.113-4.048,6.919,6.919,0,0,0-5.218-.683c-3.785,1.225-5.36,4.577-4.73,8.331Z" fill="#000000"/>
    <path d="M1542.421,1033.552q4.788,38.682,7.409,77.589.738,10.987,1.3,21.986c.182,3.533,2.985,6.942,6.773,6.773,3.513-.158,6.967-2.983,6.772-6.773q-2-38.925-6.175-77.7-1.181-10.948-2.535-21.878a7.416,7.416,0,0,0-1.983-4.789,6.772,6.772,0,0,0-9.578,0c-1.128,1.229-2.2,3.052-1.984,4.789Z" fill="#000000"/>
    <path d="M1571.2,1045.9q1.527,7.658,2.777,15.365.622,3.853,1.174,7.719.138.966.271,1.933c.044.322.081.646.132.967,0-.007-.181-1.375-.079-.592.178,1.371.356,2.742.525,4.115q1.9,15.5,2.654,31.11.421,8.773.479,17.559c.024,3.541,3.1,6.937,6.772,6.772a6.887,6.887,0,0,0,6.773-6.772,435.929,435.929,0,0,0-5.3-64.243q-1.374-8.8-3.12-17.534c-.694-3.481-5.025-5.8-8.331-4.73a6.943,6.943,0,0,0-4.731,8.331Z" fill="#000000"/>
    <path d="M1521.1,1351.813q-.145,1.3-.3,2.6c-.065.531-.513,2.947-.095.8-.332,1.708-.494,3.465-.772,5.184q-.768,4.742-1.755,9.445-2,9.51-4.867,18.808t-6.58,18.279a4.9,4.9,0,0,0-.5,1.21c.029-.854.466-1.092.171-.412-.347.8-.691,1.605-1.045,2.4q-.972,2.2-1.994,4.371-2.134,4.545-4.488,8.985a209.53,209.53,0,0,1-11.219,18.722c-1.981,2.947-.665,7.63,2.43,9.266a6.935,6.935,0,0,0,9.266-2.43,215.633,215.633,0,0,0,31.525-73.893,226.87,226.87,0,0,0,3.776-23.339,6.767,6.767,0,0,0-1.984-4.789,6.774,6.774,0,0,0-9.578,0,7.8,7.8,0,0,0-1.983,4.789Z" fill="#000000"/>
    <path d="M1541.128,1381.8l-15.453,40.574c-1.264,3.318,1.4,7.572,4.73,8.331,3.863.88,6.978-1.178,8.331-4.73l15.453-40.574c1.263-3.318-1.4-7.572-4.73-8.331-3.864-.88-6.979,1.178-8.331,4.73Z" fill="#000000"/>
  </g>
</g></g></g><!--ITEM 2--><g><defs><clipPath id="clip-path-id-viewbox-item-2"><rect x="0.0" y="0.0" width="1150.291" height="1802.947"/></clipPath></defs><g transform="translate(48.0 530.0) rotate(0.0 579.0 907.0) scale(1.0067017824185358 1.0061305185343774)"><g clip-path="url(#clip-path-id-viewbox-item-2)" transform="translate(-0.0 -0.0)"><g>
    <path d="M545.962,1197.505c37.9-11.712,212.689-30.511,280.636-20.287s167.551,22.652,217.235,90.751,81.764,173.317,50.455,293.186-86.133,188.5-120.652,203.052-169.429,38.6-290.675,31.882-183.263,14.234-257.89-100.745-78.641-258.95-55.714-316.912S427.06,1234.249,545.962,1197.505Z" style="         fill: #ffa400;       "/>
    <path d="M499.245,1313.442s-17.6-21.483-14.21-38.448,23.339-39.585,49.261-51.021c34.182-15.08,109.395-25.946,197.613-29.961s166.581,14.756,177.379,18.4c15.344,5.178,56.424,19.6,57.555,37.7s1.131,53.157-39.585,70.122-205.843,48.82-255.607,39.678S567.744,1372.248,499.245,1313.442Z" style="         fill: #ff7900;       "/>
    <path d="M499.245,1313.442s89.842-35.055,174.668-39.579,114.231-10.179,186.616,3.393,89.349,28.324,89.349,28.324-58.7,36.934-117.624,42.929-145.408,18.492-211.507,8.37-108.568-24.2-115.354-30.99S499.245,1313.442,499.245,1313.442Z" style="         fill: #626262;       "/>
    <path d="M481.087,1261.291c-7.93,17.414-4.473,37.259,5.96,52.9,11.271,16.9,29.093,26.984,48.112,32.992,19.521,6.166,40.253,8.837,60.474,11.616,21.793,2.995,43.679,5.264,65.641,6.567,43,2.55,86.262,1.519,128.986-4.158,42.889-5.7,85.213-15.889,125.449-31.926,17.932-7.146,36.216-15.935,48.347-31.524,11.306-14.53,15.574-34.881,7.861-52.047a36.667,36.667,0,0,0-7.365-10.577c-6.123-6.223-15.7,3.356-9.578,9.578.687.7,1.347,1.412,1.972,2.166.765.922-.8-1.261.307.417.235.356.482.7.713,1.06q.688,1.069,1.285,2.195c.2.374.373.76.573,1.133.727,1.363-.166-.615.324.711a38.43,38.43,0,0,1,1.613,5.5c.088.422.433,2.659.276,1.376.131,1.074.214,2.154.257,3.235a43.723,43.723,0,0,1-.171,5.9c-.042.439-.088.879-.145,1.316.152-1.159-.009-.032-.047.17-.207,1.092-.407,2.183-.667,3.264a49.4,49.4,0,0,1-1.763,5.753c-.156.417-.318.834-.486,1.247.394-.965-.039.074-.11.225-.474,1.006-.954,2.007-1.483,2.987-8.083,14.95-24.1,23.8-39.929,30.636-1.583.684-3.292,1.381-5.384,2.215q-3.488,1.39-7,2.718-7.206,2.731-14.5,5.23-14.547,4.987-29.386,9.064a539.7,539.7,0,0,1-60.077,12.837c-40.018,6.24-81.45,8.065-122.237,6.593q-31-1.118-61.838-4.694c-19.693-2.25-39.444-4.954-59.069-8.971a165.93,165.93,0,0,1-27.416-7.754c-7.376-2.894-16.333-7.856-22.163-12.97a61.7,61.7,0,0,1-4.476-4.353q-.95-1.022-1.853-2.085c-.3-.355-.594-.716-.892-1.073-.9-1.077.1.205-.655-.837a63.828,63.828,0,0,1-6.409-10.751,40.552,40.552,0,0,1-1.835-4.785,51.9,51.9,0,0,1-1.543-5.92c-.109-.552-.2-1.107-.3-1.661-.2-1.128.1.938-.039-.2q-.18-1.5-.258-3a42.6,42.6,0,0,1,.1-5.988c-.01.119.249-2.034.11-1.081-.115.789.107-.575.138-.743q.269-1.478.649-2.931.341-1.3.775-2.572c.146-.428.306-.848.459-1.272.735-2.05-.53,1.1.38-.894,1.514-3.327.951-7.289-2.43-9.266-2.909-1.7-7.743-.916-9.266,2.429Z" fill="#000000"/>
    <path d="M372.043,1399.58c5.857-37.944,21.65-73.51,44.581-104.209a268.463,268.463,0,0,1,42.729-44.758c15.435-12.939,32.494-25.089,50.781-33.662,16.3-7.642,33.971-12.4,51.515-16.19A581.858,581.858,0,0,1,626,1191.068c43.888-4.432,88.18-6.365,132.279-6.98,34.877-.486,69.855.738,104.482,5.112,35.979,4.544,72.47,12.564,105.508,27.879,15.422,7.149,30.3,15.894,43.317,26.885,16.681,14.091,30.826,31.591,42.774,49.792a254.346,254.346,0,0,1,37.835,95.378q.734,4.141,1.347,8.3.12.809.236,1.618c.046.324.282,2.043.152,1.07-.139-1.04.111.895.138,1.109q.114.923.22,1.847c.655,5.664,1.121,11.35,1.484,17.04.959,15.024,1.194,30.1.937,45.147-.638,37.335-4.212,74.821-12.481,111.274-4.175,18.408-9.507,36.722-16.967,54.086-8.721,20.3-20.305,39.6-32.588,57.926a324.608,324.608,0,0,1-35.8,44.906c-5.281,5.471-10.8,10.72-16.6,15.638a134.366,134.366,0,0,1-14.141,10.669,101.5,101.5,0,0,1-12.654,7.215c-.488.229-.984.442-1.472.673-1.432.678.855-.318-.214.1-.842.328-1.679.665-2.534.962-1.753.608-3.544,1.108-5.34,1.572-11.779,3.044-23.944,4.743-35.981,6.391-35.313,4.835-72.046,7.851-108.028,10.059-34.186,2.1-68.345,2.826-102.589,2.452-37.1-.406-74.249-1.475-111.256-4.208-14.253-1.053-28.968-2.339-41.985-4.491a113.45,113.45,0,0,1-14.233-3.083,80.743,80.743,0,0,1-13.658-5.6c-28.426-13.677-52.343-35.033-72.154-59.388-26.031-32-45.4-69.767-58.093-108.926a440.052,440.052,0,0,1-20.907-131.786,459.023,459.023,0,0,1,5.008-72.13c.543-3.612-.907-7.28-4.73-8.331-3.2-.878-7.784,1.092-8.331,4.731a477.787,477.787,0,0,0,.869,148.832c6.9,41.878,19.721,82.774,39.44,120.416,18.69,35.678,43.273,69.309,74.958,94.533,19.777,15.743,42.385,29.438,67.611,33.686,33.1,5.575,67.1,6.737,100.578,7.956,35.706,1.3,71.521,2.02,107.248,1.188,38.052-.886,76.1-3.518,113.985-7.143,17.613-1.685,35.2-3.635,52.726-6.106,11.728-1.653,23.656-3.3,35.08-6.519,9.2-2.591,17.71-7.365,25.547-12.744a209.456,209.456,0,0,0,33.315-29.017,351.738,351.738,0,0,0,37.386-47.707c12.543-18.951,24.132-38.837,32.9-59.834,15.3-36.619,22.585-76.352,26.556-115.673a589.948,589.948,0,0,0,1.949-100.47c-1.88-26.711-7.089-53.139-16.562-78.229a266.9,266.9,0,0,0-28.939-55.859c-12.506-18.384-27.015-36.242-44.263-50.4-28.69-23.548-63.847-37.785-99.563-46.8-36.786-9.283-74.845-13.406-112.694-14.955-38.283-1.568-76.64-.215-114.887,1.644-46.3,2.25-93.183,5.558-138.489,15.873-18.261,4.157-36.41,9.625-53.241,17.948-19.078,9.433-36.837,22.531-52.962,36.329-31.694,27.121-57.323,61.18-73.446,99.707a228.562,228.562,0,0,0-15.1,53.34c-.557,3.61.917,7.283,4.73,8.331C366.921,1405.192,371.482,1403.217,372.043,1399.58Z" fill="#000000"/>
    <path d="M502.571,1319.329a519.482,519.482,0,0,1,94.681-30.19,616.454,616.454,0,0,1,98.665-13.257,821.929,821.929,0,0,1,84.578-.14q21.543,1.014,43.019,3.085,10.736,1.047,21.439,2.4c3.792.48,5.709.737,9.835,1.333q5.223.754,10.433,1.6c25.318,4.1,50.751,9.575,74.706,18.91q1.823.709,3.63,1.454c.34.14.68.282,1.019.423-.218-.091-1.266-.547-.1-.042.663.289,1.326.575,1.988.867,3.344,1.475,7.273.977,9.266-2.43,1.684-2.879.934-7.782-2.43-9.266-23.516-10.375-48.65-16.588-73.874-21.161a738.166,738.166,0,0,0-87.881-10.123c-27.8-1.652-55.7-2.1-83.531-1.02a659.619,659.619,0,0,0-102.516,11.84,534.343,534.343,0,0,0-97.377,28.819q-6.222,2.529-12.383,5.209c-3.356,1.456-4.118,6.379-2.429,9.266,2.027,3.466,5.9,3.891,9.266,2.43Z" fill="#000000"/>
    <path d="M697.256,1305.2s-22.85-44.533-23.285-88.266,9.088-134.706,15.684-197.228,11.626-145.23,11.213-176.765,2.064-75.809,2.064-75.809,25.819,51.643,32.734,96.29c3.449,22.267-3.757,128.819-8.578,177.093-4.354,43.6,4.992,109.848,11.158,152.936s22,111.749,22,111.749-5.065.322-34.027.161Z" style="         fill: #4e4e4e;       "/>
    <path d="M136.4,520.588s45.924-19.571,71.535-8.759S316.887,590.16,360.245,629.09s77.368,37.781,114.234,41.566,79.988,14.234,114.361,47.488S681,837.633,686.655,881.1s0,37.245,0,37.245a138.026,138.026,0,0,0-53.833-6.132c-29.976,2.6-86.086,28.93-110.087,18.206s-63.642-55.61-85.355-57.966-152.841-7.266-152.841-7.266-37.659,4.212-67.12-33.893-94.14-44.834-107.757-45.737-55.405,4.356-64.728-32.214S5.2,691,7.905,653.467s11.067-70.457,38.133-88.622S136.4,520.588,136.4,520.588Z" style="         fill: #b1b1b1;       "/>
    <path d="M702.932,767.133S659.51,740.8,635.049,705.2s-38.66-56.848-50.975-107.51S549.6,515.7,535.416,486.5s-23.778-43.263-20.867-98.106-2.379-69.152-3.741-120.251-5.287-93.471,15.157-120.279,45.192-46.22,65.761-76.482,58.855-74.1,94.929-64.542,79.154,13.967,82.619,106.173,9.76,132.024,23.7,165.676,30,61.175,7.85,109.7-42.238,121.37-33.553,154.648,12.709,76.535-7.028,115.979S702.932,767.133,702.932,767.133Z" style="         fill: #b1b1b1;       "/>
    <path d="M728.751,803.7s33.061-124.839,88.506-159.3S922.216,600.75,954.463,590.1s96.037-51.464,116.414-54.634,71.835,13.31,71.835,13.31-33.882,28.525-58.5,67.851-56.138,94.092-67.323,123.878c-17.053,45.417-62.961,58.547-105.221,55.847s-102.408-21.266-129.552-14.48S728.751,803.7,728.751,803.7Z" style="         fill: #b1b1b1;       "/>
    <path d="M691.743,764.75q3.2,54.73,2.036,109.6-1.175,54.543-6.692,108.878c-3.692,36.331-9.427,72.374-14.25,108.56-4.67,35.043-8.22,70.393-6.877,105.788,1.261,33.253,6.63,66.769,18.99,97.793q2.474,6.208,5.259,12.288c1.523,3.325,6.334,4.145,9.267,2.429,3.415-2,3.958-5.928,2.429-9.266-13.488-29.456-19.931-61.806-21.939-94.012-2.165-34.723.673-69.51,4.985-103.962,4.488-35.859,10.412-71.518,14.389-107.445q5.973-53.96,7.649-108.281,1.675-54.264-.959-108.548-.336-6.91-.742-13.818a6.925,6.925,0,0,0-6.773-6.773c-3.5,0-6.987,3.1-6.772,6.773Z" fill="#000000"/>
    <path d="M692.468,768.216c21.476,25.522,32.251,58.859,36.035,91.6,4.54,39.281.206,78.754-2.805,117.968q-4.026,52.435-3.475,105.095a955.271,955.271,0,0,0,7.079,107.458c4.4,35.007,10.862,69.813,20.755,103.707q1.756,6.018,3.659,11.992c2.63,8.277,15.711,4.74,13.061-3.6-10.576-33.278-17.736-67.575-22.6-102.13a910.067,910.067,0,0,1-8.236-107.393c-.762-35.548.206-71.132,2.681-106.6,2.743-39.3,7.586-78.679,4.263-118.113-2.929-34.761-12.161-70.129-32.58-98.908-2.6-3.663-5.364-7.215-8.256-10.652-2.356-2.8-7.147-2.43-9.577,0-2.773,2.773-2.363,6.771,0,9.578Z" fill="#000000"/>
    <path d="M680.979,1322.716c.879-.4,1.766-.772,2.648-1.16-1.829.805-.334.145.1-.03q.859-.351,1.725-.688,2.786-1.089,5.62-2.046,5.763-1.948,11.688-3.357,5.818-1.386,11.744-2.251c.318-.047,1.888-.264.734-.108-1.221.166.459-.055.737-.089q1.638-.2,3.281-.36,2.979-.289,5.967-.451a139.525,139.525,0,0,1,24.109.79c.478.057.955.12,1.433.18.9.113-1.468-.207-.573-.076.2.03.409.057.613.087q1.633.236,3.262.51,2.951.5,5.877,1.123,5.95,1.272,11.771,3.07,3.153.975,6.253,2.1,1.647.6,3.277,1.244.767.3,1.53.615c.255.1.508.211.763.315.819.334-1.289-.556-.478-.2,4.226,1.849,8.367,3.852,12.394,6.107,3.091,1.73,7.536.844,9.266-2.43a6.886,6.886,0,0,0-2.43-9.266,138.988,138.988,0,0,0-48.088-16.282,147.96,147.96,0,0,0-52.227,1.67,139.507,139.507,0,0,0-27.829,9.284,6.791,6.791,0,0,0-3.113,4.047,6.927,6.927,0,0,0,.683,5.219,6.834,6.834,0,0,0,4.048,3.112,7.784,7.784,0,0,0,5.218-.682Z" fill="#000000"/>
    <path d="M703.177,914.255c-17.157-28.979-40.691-53.6-67.019-74.4-26.736-21.124-55.96-38.708-85.882-54.9C515.47,766.11,479.8,748.9,443.653,732.8c-35.81-15.947-72-31.358-108.891-44.653-36.561-13.178-74.1-23.722-112.738-28.492q-7.031-.869-14.089-1.459c-3.65-.309-6.773,3.334-6.773,6.772,0,3.921,3.113,6.463,6.773,6.773,37.681,3.188,74.533,12.735,110.239,24.91,36.062,12.295,71.293,27.1,106.189,42.35,35.686,15.6,70.942,32.218,105.415,50.352,30.265,15.92,60.168,32.841,87.731,53.165,25.465,18.777,49.811,41.788,67.448,68.189q3.406,5.1,6.524,10.382a6.774,6.774,0,1,0,11.7-6.836Z" fill="#000000"/>
    <path d="M703.787,761.627c-8.292-20.981-11.737-43.051-11.639-65.548.1-22.563,3.2-44.972,6.081-67.308,3.049-23.606,5.938-47.348,5.8-71.192-.1-16.856-2.639-33.731-5.058-50.376-2.783-19.139-6.016-38.209-8.745-57.356-1.137-7.982-2.19-16.095-2.96-24.36-.781-8.381-.8-16.773-1.359-25.165-2.885-43.428-17.488-84.768-27.246-126.884-9.687-41.808-13.567-85.6,3.72-126.072a168.379,168.379,0,0,1,7.8-15.74c4.245-7.624-7.45-14.462-11.695-6.837A171.847,171.847,0,0,0,637.5,191.376c-2.2,21.724-.1,43.635,3.8,65.046,7.815,42.958,23.456,84.217,29.409,127.549,2.429,17.675,2.129,35.553,4.294,53.271,2.336,19.124,5.488,38.138,8.435,57.174,2.748,17.75,5.517,35.164,6.669,53.112,1.383,21.536-.806,43.317-3.347,64.689-5.367,45.159-14.043,91.232-1.72,136.075a164.872,164.872,0,0,0,5.689,16.935c1.343,3.4,4.532,5.774,8.331,4.731,3.237-.89,6.082-4.91,4.73-8.331Z" fill="#000000"/>
    <path d="M731.877,813.154a561.951,561.951,0,0,1,68.837-72.739c12.244-10.823,25.093-21.23,37.361-30.4q19.845-14.839,40.738-28.2c28.743-18.465,58.839-34.512,88.886-50.715,25.844-13.937,51.782-27.8,78.705-39.562q2.365-1.034,4.74-2.045c.352-.151.7-.3,1.058-.45-1.284.546-.083.035.239-.1q1.33-.558,2.663-1.109,4.978-2.058,10-4.016,10.086-3.936,20.323-7.467c15.4-5.317,31.026-9.965,46.77-14.148q6.534-1.737,13.094-3.371a6.774,6.774,0,0,0-3.6-13.061c-30.953,7.738-61.5,17.091-90.984,29.333-27.081,11.244-53.144,24.625-78.976,38.459-30.272,16.212-60.722,32.2-89.9,50.334a685.107,685.107,0,0,0-81.247,58.779,563.483,563.483,0,0,0-70.335,71.065q-4.027,4.876-7.943,9.841c-2.191,2.774-2.91,6.906,0,9.578,2.444,2.242,7.233,2.969,9.578,0Z" fill="#000000"/>
    <path d="M700.747,921.472c-23.4-13.844-52.524-17.4-79.253-15.68-13.584.878-26.543,3.648-39.657,7.119-13.833,3.66-27.923,6.848-42.26,7.508-13.4.617-27.171-.956-39.109-7.458-11.559-6.295-19.935-16.594-29-25.868-9.515-9.738-20.245-18.345-33.764-21.556-8.3-1.971-16.912-2.23-25.4-2.234-8.528,0-17.054.02-25.581-.081-34.765-.408-69.568-1.948-104.206-4.984-12.554-1.1-25.847-2.692-37.336-8.215a44.282,44.282,0,0,1-14.371-10.588c-4.72-5.369-7.533-12.169-11.524-18.055-15.255-22.5-41.823-30.829-67.234-35.864-13.661-2.707-27.505-5.57-41.4-6.662-13.136-1.033-27.432-1.345-39.044-6.434a47.431,47.431,0,0,1-14.781-9.959c-3.137-3.235-4.75-8.674-6.092-13.358-1.912-6.671-2.222-11.5-3.518-17.877a102.388,102.388,0,0,0-6.758-20.258c-10.741-24.77-28.747-47.281-26.81-75.681,1.86-27.279,19.384-51.969,40.454-68.3,24.112-18.686,53.332-29.22,81.848-39.092,15.73-5.446,31.967-11.546,48.783-12.112,14.76-.5,28.974,3.991,41.927,10.814,13.778,7.258,26.286,16.694,38.455,26.344q19.617,15.556,38.075,32.5c21.331,19.589,41.2,40.848,64.592,58.078a158.663,158.663,0,0,0,35.493,20.05c14.247,5.656,29.184,7.759,44.451,7.976,16.555.235,32.873-.527,48.87,4.524,15.218,4.805,29.255,12.882,43.273,20.365,25.728,13.734,51.236,28.52,70.841,50.515,16.968,19.037,29.965,41.524,41.08,64.366a551.508,551.508,0,0,1,29.222,74.346q5.333,16.774,9.787,33.809c2.206,8.425,15.275,4.852,13.061-3.6a651.649,651.649,0,0,0-24.018-73.948c-10.107-25.634-21.824-50.822-36.706-74.061a239.277,239.277,0,0,0-23.468-31.181,183.323,183.323,0,0,0-31.429-27.268c-13.379-9.362-27.689-17.29-42.081-24.964-14.7-7.837-29.445-16.126-45.364-21.251-16.451-5.3-33.375-5.057-50.449-5.17-15.245-.1-29.747-1.96-43.955-7.713-25.737-10.422-46.881-29.944-66.691-48.833-23.72-22.617-47.558-44.751-73.548-64.787-24.506-18.893-52.96-36.825-85.243-34.237-17.388,1.394-33.893,7.284-50.249,12.961-15.044,5.222-30.028,10.669-44.543,17.245C58.374,545.233,32.481,562.837,15.9,588.919A101.086,101.086,0,0,0,.645,629.982a83.687,83.687,0,0,0,5.579,41.646C11.546,685.11,19.03,697.513,25.383,710.5a112.144,112.144,0,0,1,7.393,18.663c1.753,6.188,2.2,12.568,3.665,18.809a74.347,74.347,0,0,0,6.3,18.008c3,5.616,8.231,9.729,13.412,13.234,11.954,8.089,26.156,11.133,40.349,12.243,6.967.544,13.959.755,20.9,1.6,6.88.834,13.713,2.323,20.532,3.552,12.906,2.325,25.892,4.8,38.259,9.262,11.194,4.043,21.9,10.227,29.416,19.635,4.622,5.785,7.53,12.725,11.847,18.723a54.374,54.374,0,0,0,15.69,14.663c11.762,7.257,25.592,10.089,39.118,11.81,16.234,2.066,32.685,2.888,49.015,3.82q26.9,1.533,53.843,2.065,13.3.262,26.6.28c8.521.011,17.117-.328,25.608.567,13.984,1.473,24.247,8.782,33.853,18.52,9.528,9.66,18.311,20.252,30.072,27.343,26.075,15.719,58.359,11.48,86.493,4.634,13.18-3.207,25.953-7.06,39.531-8.269a160.859,160.859,0,0,1,41.365,1.353c12.333,2.122,24.447,5.756,35.261,12.155,7.52,4.449,14.341-7.255,6.837-11.7Z" fill="#000000"/>
    <path d="M708.78,770.551c11.535-22.642,25.9-43.805,36.712-66.807,6.131-13.047,10.528-26.565,15.229-40.156,5.181-14.977,11.946-29.358,16.928-44.409,4.858-14.674,7.585-29.28,4.848-44.645-2.569-14.428-8.708-28.119-10.552-42.682-3.942-31.133,1.711-64.156,13.262-93.127,10.971-27.519,28.208-53.156,32.471-82.987a99.662,99.662,0,0,0-4.015-44.56c-4.553-14.393-11.33-27.966-17.463-41.721a193.024,193.024,0,0,1-13.96-43.842c-2.881-15.677-3.782-31.652-4.236-47.561-.9-31.51.385-63.48-5.828-94.561-5.257-26.3-16.848-52.286-39.03-68.474-22.611-16.5-54.162-18.911-80.122-9.649-26.488,9.45-47.962,29.581-62.179,53.538-7.183,12.1-11.964,26.227-21.859,36.518-10.066,10.468-23.895,16.283-33.833,27.012-20.438,22.064-27.713,53.172-31.272,82.178a254.312,254.312,0,0,0-1.143,49.927c1.282,17.131,4.051,34.1,5.963,51.162a295.127,295.127,0,0,1,1.38,50.7c-1,16.669-2.85,33.3-3.062,50.007-.206,16.2,1.2,32.665,6.142,48.169,4.141,12.99,10.374,25.237,17.337,36.92,13.615,22.845,30.774,44.31,39.825,69.575,5.27,14.713,6.215,29.829,7.76,45.243,1.423,14.207,4.046,28.222,9.72,41.387a86.026,86.026,0,0,0,11.1,18.7c3.586,4.627,8.059,8.806,11.5,13.352,7.38,9.748,13.375,20.538,20.035,30.774,14.8,22.755,32.844,46.592,57.975,58.572,3.946,1.881,8.325,3.927,12.715,4.557,3.616.52,7.276-.89,8.331-4.73.874-3.179-1.087-7.807-4.73-8.331a22.512,22.512,0,0,1-3.134-.753,33.6,33.6,0,0,1-7.631-3.068c-11.02-5.53-20.458-13.666-28.786-22.673-9.744-10.538-17.91-22.327-25.615-34.4-6.417-10.059-12.413-20.46-19.818-29.844-3.706-4.7-8.149-8.726-11.634-13.608a76.208,76.208,0,0,1-9.412-17.466c-4.853-12.97-6.6-26.62-7.791-40.335-1.3-14.939-3.111-29.565-8.521-43.644-4.754-12.371-11.124-23.973-18.089-35.221-13.611-21.981-29.852-43.191-37.9-68.059-9.971-30.8-4.661-63.534-2.773-95.121a291.957,291.957,0,0,0-1.218-49.24c-1.807-16.583-4.485-33.065-5.891-49.692-2.615-30.911-.332-63.279,9.757-92.783,4.249-12.428,10.469-24.484,19.681-33.971,9.862-10.155,23.323-15.839,33.038-26.164,9.859-10.478,15.107-23.927,22.076-36.274A122.741,122.741,0,0,1,625.44,37.544c19.058-17.272,45.153-27.389,71-23.079,12.616,2.1,24.659,7.209,34.211,15.834,9.182,8.291,15.985,18.913,20.683,30.311,10.911,26.469,11.985,55.786,12.529,84.018.606,31.39.036,63.21,7.273,93.975,3.519,14.96,9.408,29.026,15.751,42.975,5.908,12.993,12.067,25.965,15.621,39.849a83.3,83.3,0,0,1,.074,41.118c-3.437,13.919-9.412,26.984-15.563,39.874-6.442,13.5-13.08,26.946-18.008,41.1a211.686,211.686,0,0,0-10.289,46.056c-1.722,15.314-2.052,31.2.248,46.47,2.129,14.131,7.755,27.452,10.351,41.485,2.661,14.379-1.293,28.39-6.056,41.911-5.1,14.482-11.617,28.434-16.442,43.017-4.2,12.691-8.511,25.2-14.365,37.247-4.924,10.132-10.627,19.847-16.316,29.562-6.637,11.331-13.1,22.748-19.059,34.452C693.136,771.466,704.818,778.329,708.78,770.551Z" fill="#000000"/>
    <path d="M1140.069,546.447a186.223,186.223,0,0,0-38.995,35.714c-10.86,13.132-20.32,27.314-29.645,41.554-4.806,7.34-9.6,14.693-14.542,21.941-5.262,7.71-10.921,15.137-16.164,22.858a153.179,153.179,0,0,0-14.107,24.983c-3.683,8.5-6.365,17.318-9.066,26.166-1.288,4.22-2.6,8.435-4.1,12.588-.641,1.778-1.667,4.455-2.171,5.627-.546,1.271-1.8,3.94-2.733,5.722a58.062,58.062,0,0,1-15.544,19.1c-.293.244-2.037,1.638-1.223,1.008-.876.678-1.777,1.328-2.683,1.965q-2.731,1.918-5.6,3.636a114.372,114.372,0,0,1-11.292,5.92c-3.5,1.6-6.795,2.914-11.222,4.479q-6.788,2.4-13.754,4.251a173.465,173.465,0,0,1-56.779,5.519,175.225,175.225,0,0,1-27.813-4.092c-10.164-2.219-20.26-4.662-30.616-5.832-8.9-1-17.992-1.112-26.939-1.267a214.43,214.43,0,0,0-25.321.84c-16.62,1.68-33.211,6-47.015,15.77a85.787,85.787,0,0,0-10.451,8.684,6.773,6.773,0,0,0,9.578,9.578c1.513-1.481,3.074-2.909,4.7-4.262q.63-.524,1.271-1.033c-.225.179-.9.665.173-.132.859-.64,1.729-1.267,2.615-1.871a73.534,73.534,0,0,1,10.682-6.031c.472-.218.946-.427,1.421-.638.205-.091,1.2-.484.1-.044.866-.346,1.733-.689,2.609-1.012q2.922-1.078,5.916-1.941a103.2,103.2,0,0,1,11.645-2.626c.94-.158,1.883-.3,2.827-.441,2.022-.3-.814.082.415-.057.531-.06,1.06-.132,1.591-.193q3.208-.368,6.43-.6c4.149-.3,8.308-.444,12.468-.488,8.527-.089,17.052.245,25.569.634a157.047,157.047,0,0,1,28.187,4.112,303.245,303.245,0,0,0,30.142,5.589,188.636,188.636,0,0,0,58.748-2.462c18.043-3.567,36.385-9.628,52.089-19.36a82.31,82.31,0,0,0,20.013-16.877,85.945,85.945,0,0,0,13.809-24.334c3.205-8.237,5.524-16.778,8.184-25.2a126.317,126.317,0,0,1,10.172-24.4,230.638,230.638,0,0,1,15.966-24.286c5.232-7.169,10.225-14.507,15.126-21.9,9.367-14.142,18.389-28.538,28.521-42.156q.878-1.178,1.764-2.346.492-.649.989-1.3c-.176.229-.685.877.138-.176q2.008-2.569,4.074-5.092,3.951-4.8,8.168-9.38a175.594,175.594,0,0,1,18.565-17.427c1.91-1.541,2.1-1.69,4.132-3.193q2.858-2.112,5.8-4.1c2.928-1.983,4.5-6.051,2.43-9.266-1.88-2.915-6.129-4.555-9.266-2.43Z" fill="#000000"/>
    <path d="M733.619,810.165c12.612-35.377,24.548-69.846,42.976-102.465,4.251-7.523,8.812-14.873,13.741-21.972q3.485-5.019,7.211-9.868c-.626.812.057-.071.157-.2.341-.432.68-.866,1.023-1.3q.926-1.166,1.864-2.32,1.983-2.436,4.03-4.818a214.461,214.461,0,0,1,16.911-17.583,165.1,165.1,0,0,1,17.7-14.432,162.472,162.472,0,0,1,20.67-12.443q2.627-1.32,5.3-2.54c.893-.406,1.791-.8,2.691-1.192,1.02-.445-.839.344.19-.083q.908-.378,1.819-.743c4.15-1.661,8.378-3.12,12.657-4.413,18.272-5.522,37.248-8.068,55.82-12.328,18.673-4.283,36.271-11.224,53.324-19.9,16.48-8.388,32.453-17.74,48.828-26.331,3.854-2.022,7.733-4,11.68-5.831q1.219-.567,2.448-1.116.612-.273,1.227-.541c-.152.066,1.871-.794,1.042-.449s1.208-.489,1.052-.427q.624-.251,1.25-.5,1.572-.615,3.159-1.189a116.232,116.232,0,0,1,12.349-3.706c2.135-.512,4.287-.978,6.45-1.355.36-.062,1.68-.245.244-.065q.592-.073,1.186-.13c1-.1,2.01-.158,3.017-.189a55.162,55.162,0,0,1,5.59.125c.848.06,1.692.155,2.538.233,2.041.186-.786-.143.441.046.645.1,1.29.2,1.933.306a93.826,93.826,0,0,1,12.054,2.947c3.928,1.223,7.8,2.644,11.592,4.252-.986-.418.347.158.58.259q.779.342,1.554.691,1.232.555,2.455,1.131,3,1.413,5.939,2.942,4.965,2.58,9.758,5.468a6.774,6.774,0,1,0,6.836-11.7c-14.33-8.606-30.278-16.093-46.844-19a67.031,67.031,0,0,0-26.432.4,131.826,131.826,0,0,0-25.5,8.607c-16.677,7.4-32.477,16.835-48.47,25.569-8.34,4.555-16.746,9-25.37,13a185.179,185.179,0,0,1-26.056,9.9c-18.568,5.444-37.814,7.957-56.614,12.421a171.026,171.026,0,0,0-49.4,19.723c-28.814,17.454-52.071,43.105-69.945,71.426-20.519,32.512-34.1,68.79-47,104.828q-2.367,6.614-4.72,13.233c-1.192,3.342,1.344,7.56,4.73,8.331a6.944,6.944,0,0,0,8.331-4.73Z" fill="#000000"/>
  </g>
</g></g></g><!--ITEM 3--><g><defs><clipPath id="clip-path-id-viewbox-item-3"><rect x="0.0" y="0.0" width="329.122" height="218.276"/></clipPath></defs><g transform="translate(1306.0 1006.0) rotate(0.0 172.0 114.0) scale(1.0452051215050953 1.044549102970551)"><g clip-path="url(#clip-path-id-viewbox-item-3)" transform="translate(-0.0 -0.0)"><g>
    <path d="M6.955,46.073S114.284-.636,170.08,4.092,313.351,33.744,321.843,122.463c7.887,82.4-48.668,107.018-97.953,82.644S127.657,117.782,102.12,99.494,6.955,46.073,6.955,46.073Z" style="         fill: #b1b1b1;       "/>
    <path d="M8.624,56.5A196.632,196.632,0,0,1,31.609,49.69q5.833-1.347,11.74-2.346c2-.338,4-.641,6.007-.925,1.167-.165-1.773.232-.158.021.487-.064.974-.125,1.462-.186q1.554-.19,3.11-.359a214.863,214.863,0,0,1,47.661.224q1.468.169,2.933.358l.732.1c.862.113-1.564-.215-.7-.093.548.077,1.1.152,1.645.232q2.925.425,5.837.926,5.916,1.021,11.771,2.359a222.305,222.305,0,0,1,23.075,6.6q5.671,1.96,11.23,4.227.683.279,1.365.562c.225.094.462.179.681.285.087.042-1.445-.614-.768-.324.961.412,1.922.824,2.879,1.247q2.7,1.193,5.367,2.458a213.3,213.3,0,0,1,21.031,11.462q5.087,3.157,9.987,6.6,2.486,1.749,4.918,3.57.59.442,1.176.888c.218.165,1.445,1.113.484.367-.989-.769.439.343.623.488q.653.511,1.3,1.029a197.241,197.241,0,0,1,17.786,16.048q2.07,2.11,4.074,4.285a6.826,6.826,0,0,0,9.578,0,6.918,6.918,0,0,0,0-9.577A207.617,207.617,0,0,0,200.462,68.1a225.948,225.948,0,0,0-91.188-34.5,224.2,224.2,0,0,0-49.818-1.783A209.2,209.2,0,0,0,10.609,41.5q-2.808.927-5.586,1.942C1.7,44.649-.9,48.1.293,51.772,1.349,55.034,5.06,57.8,8.624,56.5Z" fill="#000000"/>
    <path d="M5.023,56.5A158.272,158.272,0,0,1,25.1,61.7q4.891,1.613,9.677,3.524c.8.318,1.59.646,2.383.971.3.123,1.207.468-.194-.084.4.157.789.337,1.182.508q2.479,1.076,4.926,2.224A231.363,231.363,0,0,1,78.5,89.776q4.161,2.95,8.221,6.04c.417.317.833.637,1.25.955.243.185,1.021.772-.125-.1.7.529,1.381,1.074,2.067,1.615q2.064,1.624,4.1,3.277,8.172,6.623,16.006,13.646Q126,129.456,140.545,145.092c19.305,20.795,38.132,43.354,63,57.778,23,13.341,52.69,20.776,78.366,10.8a68.39,68.39,0,0,0,30.426-23.443c6.965-9.389,11.556-20.639,14.106-32,5.52-24.6,2.264-50.559-7.386-73.719-10.222-24.535-27.1-46.22-49.768-60.419-12.771-8-27.187-13.254-41.722-17.013A220.889,220.889,0,0,0,185.7.446c-28.17-1.718-56.611,1.659-84.076,7.871A423.749,423.749,0,0,0,21.088,35.658q-8.937,4.029-17.683,8.465C.239,45.728-.924,50.442.976,53.39a6.935,6.935,0,0,0,9.266,2.429q8.744-4.433,17.682-8.465c3.124-1.409,6.261-2.79,9.42-4.114-1.6.67.632-.261,1.011-.418q1.08-.448,2.162-.891,2.535-1.036,5.082-2.04,19.236-7.583,39.145-13.279a368.752,368.752,0,0,1,40.9-9.236q2.359-.389,4.725-.744,1.311-.2,2.625-.383l1.05-.147c1.592-.225-1.163.147.3-.042,3.49-.451,6.984-.86,10.487-1.2q10.137-.981,20.328-1.236c6.677-.156,13.36-.058,20.027.336q4.934.289,9.849.8,2.378.248,4.75.549c.329.042.665.1,1,.129-1.684-.128-.5-.065-.062,0q1.362.194,2.722.4a193.013,193.013,0,0,1,41.135,10.9q1.323.524,2.634,1.072c-.231-.1-1.225-.533-.049-.013.434.191.868.38,1.3.573q2.724,1.218,5.388,2.567,4.4,2.232,8.6,4.849,4.017,2.515,7.8,5.379c.251.189.5.393.753.574-1.277-.9-.53-.412-.251-.186.614.495,1.233.984,1.842,1.486q1.825,1.5,3.586,3.086A118.416,118.416,0,0,1,288.9,59.5c.5.614.99,1.234,1.48,1.856.742.942-.067-.112-.188-.244a14.066,14.066,0,0,1,.859,1.138q1.421,1.905,2.768,3.863,2.563,3.726,4.86,7.626,2.42,4.11,4.533,8.388.951,1.926,1.84,3.881.494,1.087.967,2.182c.126.291.26.583.376.878-.685-1.739-.009,0,.14.366a132.448,132.448,0,0,1,5.758,17.684q1.123,4.506,1.927,9.085.186,1.071.353,2.144.066.432.129.862c.025.167.236,1.612.06.4s.026.233.046.4q.054.435.1.87.137,1.2.246,2.4a110.527,110.527,0,0,1,.224,17.442q-.132,1.988-.338,3.97c-.076.733-.166,1.464-.252,2.2-.064.551-.375.88.069-.486a8.455,8.455,0,0,0-.189,1.31q-.659,4.345-1.694,8.623-.979,4.018-2.314,7.939-.7,2.041-1.5,4.047c-.106.267-.215.532-.323.8-.45,1.11.107-.362.183-.43a9.427,9.427,0,0,0-1.053,2.343,74.885,74.885,0,0,1-3.81,7.118q-1.1,1.8-2.3,3.538-.48.692-.977,1.371a4.98,4.98,0,0,0-.755,1.01l.545-.7c-.172.221-.346.44-.522.659a62.734,62.734,0,0,1-5.378,5.89q-1.519,1.463-3.138,2.815-.325.271-.654.538c-.142.115-1.269.866-.312.26s-.194.141-.33.242q-.513.381-1.035.75a58.676,58.676,0,0,1-7.557,4.533q-.974.488-1.963.94c-.094.042-1.53.724-.514.24s-.419.169-.522.209q-2.22.885-4.506,1.589a63.277,63.277,0,0,1-9.037,2.07c-.463.071-1.586.105.15-.008-.313.02-.633.079-.946.115q-1.187.135-2.375.23-2.388.189-4.785.22a78.879,78.879,0,0,1-9.41-.45c-.4-.043-.806-.093-1.21-.138-1.24-.136.17.043.349.054a23.455,23.455,0,0,1-2.42-.37q-2.426-.405-4.828-.941c-3.23-.718-6.422-1.606-9.565-2.642q-2.136-.7-4.24-1.5-1.172-.442-2.332-.91-.465-.187-.928-.379c-1.425-.582,1.063.478-.228-.1a125.172,125.172,0,0,1-17.154-9.231,97.663,97.663,0,0,1-8.3-5.9c.18.146,1.078.845.095.071-.353-.278-.705-.554-1.056-.833q-.947-.753-1.883-1.519-2.081-1.7-4.109-3.461c-10.663-9.238-20.307-19.565-29.838-29.944-9.5-10.342-18.928-20.758-29.174-30.372C120.992,106.685,110.7,97.554,99.9,89.034,78.1,71.822,54.311,56.9,27.722,48.313a158.018,158.018,0,0,0-19.1-4.872c-3.469-.658-7.473.965-8.331,4.73C-.467,51.507,1.3,55.8,5.023,56.5Z" fill="#000000"/>
  </g>
</g></g></g></svg>