<svg xmlns="http://www.w3.org/2000/svg" viewBox="0 0 800 800" width="800" height="800"><g transform="translate(345.0 283.0) rotate(24.26499070232142 177.5 238.5) translate(161.8856405821366 194.26276869856449) scale(1.1036704036013854 1.102204640350857)"><svg width="174.871" height="185.991" viewBox="146.679 176.249 174.871 185.991"><path d="M0 422.777C7.459 410 12.945 371.969 1.837 364.061c3.085-7.436 1.911-43.253 3.739-52.48 8.289-103.406-2-211.5 10.856-307.331 1.709 1.608-.683 7.774 1.286 6.848.238-9.4 12.12 4.725 19.309-5.833 10.107 13.6 42.981-.461 37.525 18.5C107.689 17.146 165.5 8.406 197.177 0c-2.061 9.231 34.475-3.946 32.242 5.307 17.893-3.531 63.564 1.64 77.082 9.538-9.383 6.568 11.28 76.287 11.28 76.287.567 12.807 5.938 62.385 3 58.5-4.363 6.024-1.28 43.955-.481 54.294-2.012 8.992-2.351 16.9-4.674 26.175 0 0-11.443 79.215-21.844 99.522-19.631 38.327-41.122 53.567-49.5 58.5-5.349 9.181-53.629 18.5-61.4 16.794-8.084 1.511-14.2 17.746-30.606 17.286-7.751-.217-13.233-2.553-21.942-3.062-6.623-.387-19.547 14.128-26.43 13.621-41.52-3.062-85.45-7.924-103.904-9.985z" fill="#ff7033"/></svg></g><g transform="translate(123.0 277.0) rotate(0.0 159.5 211.5) scale(0.9808744849640243 0.9815683280619479)"><svg width="325.22" height="430.943" viewBox="0 0 325.22 430.943"><path d="M323.39 362.52c-3.07-7.4-1.9-43.07-3.72-52.26-8.25-102.96 1.99-210.61-10.81-306.03-1.7 1.6.68 7.74-1.28 6.82-.24-9.36-12.07 4.71-19.23-5.81-10.06 13.55-42.8-.46-37.37 18.42C217.99 17.07 160.42 8.37 128.88 0c2.05 9.19-34.33-3.93-32.11 5.28-17.82-3.51-63.29 1.64-76.75 9.5C29.36 21.32.32 129.8.32 129.8c-.56 12.75-.69 33.38 2.23 29.51 4.35 6 4.52 33.46 3.73 43.75.48 2.15.86 4.23 1.2 6.29.48 2.89.87 5.73 1.31 8.6.54 3.61 1.17 7.27 2.14 11.18 0 0 10.12 44.94 20.48 65.16 19.55 38.16 47.51 66.77 55.85 71.67 5.33 9.15 48.11 38.94 55.85 37.24 8.05 1.5 14.15 17.67 30.48 17.21 7.72-.21 13.18-2.54 21.85-3.05 6.6-.38 19.46 14.07 26.32 13.57 41.34-3.05 85.09-7.89 103.46-9.94-7.43-12.72-12.89-50.59-1.83-58.47zm-170.12 39.45-.01.04.04.05z" fill="#11a191"/><g fill="#fff"><path d="m248.22 237.26-14 33.82-14.61 34.81a4.708 4.708 0 0 1-.22.45l-18.95 32.93a4.1 4.1 0 0 1-1.06 1.21l-30.36 22.84a4.169 4.169 0 0 1-.95.52l-35.25 13.82-2.92-7.44 34.74-13.62 29.27-22.03 6.76-11.74 4.35-7.56 7.31-12.7 10.13-24.15 3.46-8.26.91-2.16 11.96-28.88-39.49-4.39-46.11-1.21a3.7 3.7 0 0 1-.66-.07l-45.92-8.85a4 4 0 0 1-1.29-7.36l32.09-19.22a4.257 4.257 0 0 1 1.08-.45l26.01-6.55-24.53-15.46-38.03 7.28-34.49 20.68-.21.12-36.31 18.96a3.968 3.968 0 0 1-2.85.33l-19.29-4.98c-.44-2.87-.83-5.71-1.31-8.6l21.11 5.45 34.84-18.2 35-20.98a4 4 0 0 1 1.31-.5l40.27-7.71a4.016 4.016 0 0 1 2.89.54l33.77 21.28a4 4 0 0 1-1.16 7.27l-34.49 8.69-22.61 13.54 35.31 6.81 45.96 1.2c.11 0 .22.01.33.02l44.95 4.99a4 4 0 0 1 3.26 5.51z"/><path d="m185.866 280.988-.215-.008-43.87-1.654-43.933-1.993.363-7.992 43.902 1.992 43.624 1.645 43.009-3.019.56 7.981zm22.445 42.694-37.338-4.15-36.394-3.145-36.368 3.605-.789-7.961 36.737-3.641a4.054 4.054 0 0 1 .739 0l36.861 3.186 37.436 4.16z"/></g></svg></g><g transform="translate(343.0 301.0) rotate(0.0 179.0 241.0) translate(163.5434412265758 83.13458262350937) scale(1.1129971957444957 1.113758148111348)"><svg width="174.714" height="169.696" viewBox="146.94 74.643 174.714 169.696"><path d="M0 422.777C7.459 410 12.945 371.969 1.837 364.061c3.085-7.436 1.911-43.253 3.739-52.48 8.289-103.406-2-211.5 10.856-307.331 1.709 1.608-.683 7.774 1.286 6.848.238-9.4 12.12 4.725 19.309-5.833 10.107 13.6 42.981-.461 37.525 18.5C107.689 17.146 165.5 8.406 197.177 0c-2.061 9.231 34.475-3.946 32.242 5.307 17.893-3.531 63.564 1.64 77.082 9.538-9.383 6.568 11.28 76.287 11.28 76.287.567 12.807 5.938 62.385 3 58.5-4.363 6.024-1.28 43.955-.481 54.294-2.012 8.992-2.351 16.9-4.674 26.175 0 0-11.443 79.215-21.844 99.522-19.631 38.327-41.122 53.567-49.5 58.5-5.349 9.181-53.629 18.5-61.4 16.794-8.084 1.511-14.2 17.746-30.606 17.286-7.751-.217-13.233-2.553-21.942-3.062-6.623-.387-19.547 14.128-26.43 13.621-41.52-3.062-85.45-7.924-103.904-9.985z" fill="#ff7033"/></svg></g><g transform="translate(396.0 333.0) rotate(0.0 153.5 207.0) translate(0.0 0.0) scale(0.9544417293116205 0.9566304425686682)"><svg width="188.592" height="427.542" viewBox="0 0 188.592 427.542"><path d="M0 422.777C7.459 410 12.945 371.969 1.837 364.061c3.085-7.436 1.911-43.253 3.739-52.48 8.289-103.406-2-211.5 10.856-307.331 1.709 1.608-.683 7.774 1.286 6.848.238-9.4 12.12 4.725 19.309-5.833 10.107 13.6 42.981-.461 37.525 18.5C107.689 17.146 165.5 8.406 197.177 0c-2.061 9.231 34.475-3.946 32.242 5.307 17.893-3.531 63.564 1.64 77.082 9.538-9.383 6.568 11.28 76.287 11.28 76.287.567 12.807 5.938 62.385 3 58.5-4.363 6.024-1.28 43.955-.481 54.294-2.012 8.992-2.351 16.9-4.674 26.175 0 0-11.443 79.215-21.844 99.522-19.631 38.327-41.122 53.567-49.5 58.5-5.349 9.181-53.629 18.5-61.4 16.794-8.084 1.511-14.2 17.746-30.606 17.286-7.751-.217-13.233-2.553-21.942-3.062-6.623-.387-19.547 14.128-26.43 13.621-41.52-3.062-85.45-7.924-103.904-9.985z" fill="#ff7033"/></svg></g><g transform="translate(166.0 14.0) rotate(0.0 267.5 215.5) scale(0.9936480814234242 0.9947975090824319)"><svg width="538.42" height="433.254" viewBox="0 0 538.42 433.254"><path d="M474.42 258c1.6-1.27-5.26-9.04-14.59-18.29-2.24-2.22-4.63-4.53-7.07-6.84-14.65-13.93-31.43-28.42-32.42-28.45.41-1.91-2.06-11.97-4.49-9.95-4.54-9.08-16.51-22.14-21.05-22.18-.36-3.72-12.8-12.1-8.37-12.04a30.581 30.581 0 0 1-2.69-3.12c-1.67-2.11-3.75-4.88-5.38-7.17-2.12-2.99-3.48-5.18-2.22-4.07-10.07-9.74-32.75-35.77-42.71-36.85 17.11-2.41-49.47-48.69-39.01-59.04-8.17-4.76-29.07-32.97-26-34-6.39.1-8.24-11.68-13-16-4.81 4.33-48.61 13.03-41.16 29.19-5.75 6.05-8.55 15.33-11.58 7.41 1.29-1.12-4.92-6.06-15.1-.28-26.32 18.38-31.29-1.46-50.14 18.65-2.44 30.68-50 69.02-74.98 91.67-8.03-18.13-20.3.71-35.89 1.06-3.86.6-24.39 17.02-26.57 19.09 19.3 35.09 62.71 80.66 89.03 117.31 57.82 71.12 36.7 71.47 92.71 145.35 12.8 14.01 210.97-14.73 223.53-20.92 3.31-1.63 35.08-10.88 60.68-19.18 4.01 2.79 70.98-17.85 72.47-16.7-20.12-49.5-29.14-79.54-64-114.65zm-87.74-97.74a2.263 2.263 0 0 0-.25-.01c.19.17.29.18.25.01z" fill="#ffbe0b"/><g fill="#fff"><path d="M217.56 188.82c-5.8 7.4-5.02 29.25 1.82 50.86 5.41 13.55 24.52 31.82 49.94 47.73l1.34.85.52 1.5c4.69 13.56 14.34 21.8 25.52 31.34 4.94 4.21 10.05 8.57 14.96 13.64L305.2 341c-4.62-4.75-9.56-8.97-14.34-13.05-11.3-9.64-21.99-18.77-27.64-33.74-26.78-16.98-46.27-36.12-52.27-51.37l-.1-.28c-6.52-20.51-9.28-46.05-1.19-58.16 1.74-16.6 10.41-30.35 24.52-38.82 17.32-10.39 41.18-11.69 60.91-3.35 40.9 8.87 43.9 16.36 50.27 54.12 7.65-17.48 19.53-34.59 33-46.39 1.63 2.29 3.71 5.06 5.38 7.17a101.669 101.669 0 0 0-10.13 10.55c-11.58 13.82-21.11 31.62-25.49 47.61l-5.34 19.51-3.43-19.93c-.72-4.15-1.36-8-1.96-11.59-6.97-41.81-7.39-44.31-44.63-52.34l-.42-.1-.41-.17c-17.23-7.43-38.08-6.4-53.12 2.63-8.43 5.06-18.79 14.91-20.3 33.11l-.11 1.35zm242.27 50.89c-17.95 45.06-73.86 80.72-121.57 107.13l-4.35-7.87c28.1-15.56 101.48-56.19 118.85-106.1 2.44 2.31 4.83 4.62 7.07 6.84z"/></g></svg></g><g transform="translate(119.0 0.0) rotate(0.0 296.5 445.5) translate(0.0 0.0) scale(0.9670880213183383 0.9662254851460453)"><svg width="613.181" height="816.357" viewBox="0 0 613.181 816.357"><path d="M185.9 705.623a102.627 102.627 0 0 1-13.071-4.462 135.8 135.8 0 0 1-12.566-6.236c-6.6-3.684-10.013-5.386-13.348-7a81.3 81.3 0 0 1-12.412-7.339 90.817 90.817 0 0 1-11.774-9.646c-2.69-2.579-5.272-5.068-10.786-9.611l-11.67-9.729c-2.829-2.391-5.57-4.7-10.764-9.614-5.538-5.292-8.21-8.03-10.791-10.673-2.558-2.66-5.055-5.217-9.762-10.524-5.007-5.706-7.454-8.551-9.781-11.309a110.1 110.1 0 0 1-8.366-11.519 63.875 63.875 0 0 1-4.282-7.9 50.867 50.867 0 0 1-2.191-5.679c-.569-1.764-1.193-3.453-1.936-5.554-.765-2.089-1.821-4.5-3.235-7.711-3.088-6.856-4.858-10.21-6.643-13.448a67.9 67.9 0 0 1-5.606-13.192 72.76 72.76 0 0 1-3.127-14.789 133.739 133.739 0 0 0-2.189-14.166c-.762-3.713-1.321-6.5-1.831-8.808-.534-2.3-.955-4.129-1.37-5.923a85.365 85.365 0 0 1-1.236-5.769c-.2-1.1-.41-2.312-.623-3.689-.186-1.38-.376-2.926-.573-4.7-.422-3.791-.73-6.638-1.1-8.986-.317-2.353-.65-4.214-.981-6.046a89.447 89.447 0 0 1-1.407-14.385c-.059-3.837-.1-6.715-.141-9.1s-.077-4.271-.072-6.127c-.02-3.712-.052-7.3.357-14.463a145.392 145.392 0 0 1 1.58-15.154l2.168-14.3c1.079-7.606 2.238-11.314 3.673-14.815a70.33 70.33 0 0 0 4.033-13.857 70.223 70.223 0 0 0 2.023-15.061 63.523 63.523 0 0 1 2.48-14.26c.261-.922.489-1.791.745-2.6l.777-2.256c.5-1.411.947-2.644 1.37-3.757a171.476 171.476 0 0 1 2.285-5.676c.355-.855.707-1.7 1.079-2.6s.816-1.811 1.256-2.845c.9-2.061 1.911-4.535 3.167-7.868.683-1.782 1.262-3.35 1.873-4.707a113.01 113.01 0 0 1 1.738-3.588c1.072-2.118 2-3.761 2.9-5.372l2.866-5.158c1.108-1.949 2.354-4.3 3.894-7.5l2.175-4.551c.659-1.328 1.286-2.47 1.82-3.522l2.748-5.411c.835-1.638 1.614-3.272 2.681-5.236a503.383 503.383 0 0 1 4.253-7.307c.958-1.645 1.8-3.085 2.543-4.369s1.459-2.38 2.06-3.4c1.222-2.026 2.156-3.654 3.074-5.257s1.8-3.191 2.992-5.094a247.34 247.34 0 0 1 4.775-7.015c1.1-1.564 2.075-2.922 2.958-4.123s1.746-2.194 2.5-3.113c1.523-1.825 2.778-3.233 4.012-4.614s2.428-2.749 3.906-4.441c1.5-1.674 3.246-3.7 5.492-6.474 1.2-1.483 2.231-2.8 3.127-3.994s1.725-2.213 2.425-3.178c1.41-1.92 2.451-3.509 3.473-5.076s2.008-3.125 3.375-4.93c1.382-1.791 3.105-3.863 5.525-6.513 1.3-1.42 2.45-2.645 3.493-3.723s2.026-1.966 2.9-2.779c1.764-1.62 3.219-2.845 4.65-4.046s2.828-2.387 4.519-3.892c1.709-1.489 3.687-3.317 6.231-5.849 5.416-5.456 8.073-8.259 10.535-11.072 1.243-1.4 2.461-2.772 4.022-4.419 1.588-1.622 3.521-3.512 6.166-5.959a106.276 106.276 0 0 1 11.867-9.722 136.125 136.125 0 0 0 11.412-9.068c5.795-5.114 8.733-7.637 11.569-10.079l11.067-9.5c11.803-10.05 11.058-10.944 22.125-20.305 11.878-10.016 11.107-10.938 22.19-20.31 11.857-10.08 11.08-10.988 22.089-20.469 5.89-5.088 8.934-7.523 11.907-9.842s5.821-4.588 11.252-9.429c2.9-2.6 5.205-4.409 7.135-5.886.97-.732 1.86-1.366 2.707-1.948l.315-.215c.126-.092.107-.049.166-.079l.237-.068a4.3 4.3 0 0 1 .427-.086 4.078 4.078 0 0 1 1.2.021 1.984 1.984 0 0 0 .212.014l.1-.005c.016 0 .034-.009.049 0l.023.116a3.858 3.858 0 0 0 .236.779 4.4 4.4 0 0 0 .3.605l1.688 3.087c.617 1.106 1.171 2.1 1.69 3.026l1.626 2.538 3.356 5.254c1.288 1.981 2.912 4.249 4.987 7.352l1.587 2.326 1.481 1.98 2.519 3.289c1.524 1.936 2.727 3.479 4 4.9 1.254 1.443 2.487 2.858 3.973 4.638l2.453 2.991 3.125 3.742c4.968 6.1 7.636 8.968 10.175 11.782s5.026 5.488 9.874 10.943c10.453 11.607 9 12.938 18.915 23.62 10.67 11.368 10.966 11.084 20.967 21.619 10.725 11.257 11.014 10.981 21.009 21.478 10.68 11.259 10.974 10.982 20.88 21.532 10.554 11.347 10.278 11.6 20.008 22.28 5.215 5.718 7.749 8.633 10.254 11.408s4.869 5.5 9.609 10.931c5.107 5.8 7.611 8.729 10.119 11.5l3.969 4.465c1.481 1.716 3.2 3.8 5.487 6.578 2.438 2.988 4.375 5.143 5.976 6.927s2.929 3.148 4.241 4.488a93.139 93.139 0 0 1 9.534 10.993c2.325 3.079 3.969 5.463 5.261 7.484 1.274 2.034 2.156 3.733 3.045 5.386s1.745 3.286 2.91 5.229c.582.971 1.241 2.02 2.015 3.191s1.6 2.5 2.612 3.978c4.3 6.352 6.587 9.443 8.613 12.541l3.3 4.924c1.225 1.888 2.754 4.1 4.532 7.2 3.865 6.6 5.575 10.046 6.919 13.511.7 1.716 1.392 3.4 2.327 5.438.468 1.019 1 2.124 1.621 3.365.647 1.232 1.316 2.63 2.087 4.224 1.674 3.4 3 5.925 4.14 7.992.563 1.037 1.119 1.945 1.58 2.821s.9 1.69 1.334 2.5c.871 1.617 1.731 3.207 2.73 5.206a75.68 75.68 0 0 1 3.418 7.674c.671 1.756 1.3 3.273 1.787 4.66l1.294 3.712 1.053 3.023.837 2.691c.532 1.747 1.1 3.447 1.714 5.582.578 2.147 1.329 4.686 2.211 8.108 1.854 7.347 2.671 11.056 3.543 14.625.419 1.788.768 3.562 1.218 5.751.217 1.1.468 2.294.712 3.662l.745 4.663a76.579 76.579 0 0 1 .942 8.982 60.241 60.241 0 0 1 .026 6.109c-.061 1.855-.125 3.675-.084 5.909.009 2.239.07 4.9.348 8.427.459 7.574.911 11.355 1.282 15.023a106.047 106.047 0 0 1 .716 14.333l-.218 9.03c-.113 2.363-.2 4.234-.29 6.074l-.132 2.793-.225 3.085c-.188 2.23-.3 4.9-.668 8.434a113.032 113.032 0 0 1-2.271 14.933c-.351 1.807-.811 3.563-1.242 5.754-.454 2.186-.874 4.809-1.528 8.287a72.789 72.789 0 0 0-1.312 15.1c-.011 1.88-.051 3.728-.269 5.981a53.656 53.656 0 0 1-.506 3.732 72.188 72.188 0 0 1-1.083 4.613c-.5 1.845-.949 3.454-1.413 4.871a77.87 77.87 0 0 1-1.4 3.738c-.907 2.2-1.684 3.921-2.557 5.57a100.3 100.3 0 0 0-5.82 13.092c-1.259 3.568-2.467 6.132-3.392 8.285l-1.324 2.919c-.448.877-.868 1.7-1.283 2.507-.835 1.62-1.655 3.21-2.624 5.195-1.019 1.959-2.239 4.285-3.776 7.432a68.471 68.471 0 0 0-3.69 8.108 75.906 75.906 0 0 0-1.949 5.8 41.868 41.868 0 0 1-1.975 5.638c-.46 1.026-.979 2.141-1.663 3.351s-1.509 2.527-2.5 4a56.12 56.12 0 0 1-5.659 7.05 50.293 50.293 0 0 1-4.539 4.176 70.11 70.11 0 0 0-10.247 10.1c-4.914 5.775-7.3 8.747-9.557 11.667a106.992 106.992 0 0 1-9.523 10.745c-5.4 5.394-8.078 8.11-10.632 10.783a138.2 138.2 0 0 1-10.494 9.83c-5.826 4.92-8.756 7.349-11.61 9.663s-5.618 4.557-11.44 8.509a57.961 57.961 0 0 1-12.991 6.869c-.819.339-1.628.577-2.471.886s-1.716.582-2.663.9c-.958.356-1.941.579-3.051.937l-4.18 1c-1.929.465-3.609.909-5.1 1.336s-2.757.882-3.914 1.3a74.713 74.713 0 0 0-5.842 2.407 78.672 78.672 0 0 1-13.791 5.013 85.21 85.21 0 0 1-8.891 1.971c-2.349.373-4.229.615-6.075.731-1.846.142-3.655.276-5.862.561-2.214.2-4.821.564-8.276 1.147-3.716.488-6.414 1.055-8.637 1.457s-3.947.806-5.678 1.219a46.66 46.66 0 0 1-5.737 1.046 72.158 72.158 0 0 1-23.871-.94l-2.756-.566a69.585 69.585 0 0 0-3.049-.633 82.974 82.974 0 0 0-8.368-1.054c-3.78-.45-6.618-.762-8.97-1s-4.219-.4-6.051-.656l-1.407-.178-2.595-.362-5.642-.8-6.743-.923-3.994-.553c-.04 0-.1-.022-.124-.008l.008.136.017.273.033.554.067 1.132.14 2.371c.193 3.5.436 6.567.673 9.286.122 1.361.229 2.628.362 3.829l.214 1.73.052.386.039.236.078.462c.406 2.436.866 4.338 1.322 6.2a118.909 118.909 0 0 1 2.824 14.548 147.709 147.709 0 0 1 1.465 15.456 110.6 110.6 0 0 0 1.545 14.631c2.553 15.365 1.014 15.629 3.412 29.91 1.28 7.642 2 11.437 2.681 15.106s1.349 7.21 2.354 14.294c.986 7.083 1.13 11.128 1.665 14.591.533 3.48 1.492 6.343 3.59 11.183 1.041 2.43 1.825 4.378 2.544 5.857a6.437 6.437 0 0 0 2.093 2.911c.766.426 1.645.241 2.735-.83a9.521 9.521 0 0 0 .855-.978q.4-.552.832-1.276c.283-.481.6-1.035.884-1.628s.559-1.227.851-1.931c2.063-5.641 1.493-9.749.4-14.2-1.126-4.457-2.889-9.27-3.914-16.509-1.109-7.755-1.453-11.643-1.74-15.421a146.526 146.526 0 0 0-1.8-14.579c-2.583-15.341-4.979-14.926-7.349-29.218a54.556 54.556 0 0 1-.646-15.452 56.487 56.487 0 0 0-.314-14.628c-1.022-7.612-1.647-11.384-2.236-15.031-.152-.913-.3-1.817-.43-2.769l-.206-1.474q-.05-.361-.1-.739l-.049-.2a11.522 11.522 0 0 1-.269-2l-.025-.335a2.511 2.511 0 0 1 .281.018c.185.014.356.018.52.015a7.351 7.351 0 0 0 .951-.083l.474-.08.243-.046.124-.024.031-.006h.1l.195.007 2.954.082a108.735 108.735 0 0 1 14.853.734c7.859.635 11.761 1.3 15.583 1.685 1.907.227 3.783.453 6.11.658 2.328.179 5.12.195 8.835.2 1-.008 1.928 0 2.807-.038l2.48-.169c1.554-.117 2.916-.245 4.148-.379s2.334-.255 3.364-.439l2.938-.568c1.9-.385 3.761-.734 6.062-1.135 2.293-.476 5.036-.921 8.694-1.472 3.893-.722 6.837-1.189 9.218-1.774l6.131-1.465 14.27-3.838c15.028-4.076 15.614-1.935 29.462-5.286l1.349-.323 1.541-.408c.5-.136.992-.26 1.446-.4l1.275-.432c1.685-.536 3.008-1.116 4.269-1.595 1.228-.5 2.283-.986 3.3-1.415l2.819-1.306a94.444 94.444 0 0 0 13.264-7.682 58.015 58.015 0 0 0 11.948-10.462 91.358 91.358 0 0 1 10.617-10.493c5.958-5.131 8.975-7.652 11.895-10.1a147.452 147.452 0 0 0 10.925-10.014c2.762-2.8 4.932-4.81 6.767-6.441 1.854-1.612 3.389-2.834 4.9-4.041s3-2.392 4.709-3.987a73.209 73.209 0 0 0 6.055-6.4c2.545-3.049 4.439-5.349 5.967-7.29 1.555-1.917 2.732-3.483 3.908-5.007 2.335-3.062 4.575-6.033 8.81-12.187a66.5 66.5 0 0 0 4.825-8.2c1.078-2.259 1.752-4.146 2.437-5.978s1.354-3.626 2.2-5.819a65.192 65.192 0 0 1 1.564-3.574l2.155-4.413a102.959 102.959 0 0 1 7.929-13.652 59.646 59.646 0 0 0 3.24-5.309c.562-1.035 1.146-2.183 1.765-3.5s1.189-2.845 1.841-4.587l1.843-4.959 1.355-3.925c.806-2.336 1.5-4.17 2.112-6 1.161-3.664 2.457-7.163 4.3-14.355a71.237 71.237 0 0 0 1.9-9.235 59.534 59.534 0 0 0 .585-6.353c.093-1.937.179-3.836.426-6.152.262-2.314.544-5.068 1.206-8.689.362-1.939.638-3.641.894-5.158s.509-2.846.747-4.048l1.257-6.184c.381-1.873.764-3.718 1.161-6.01.349-2.3.688-5.044 1.049-8.716a95.844 95.844 0 0 0 .25-15.679c-.121-1.914-.192-3.79-.288-6.108s-.128-5.074-.057-8.746c-.007-3.936.087-6.888.232-9.335.085-2.447.233-4.389.381-6.3s.3-3.794.315-6.119.041-5.1-.258-8.779c-.553-7.892-1.142-11.813-1.618-15.605-.251-1.9-.572-3.751-.9-6.052l-.542-3.841-.772-4.847c-.576-3.916-1.19-6.825-1.71-9.229s-.967-4.3-1.485-6.147a276.06 276.06 0 0 1-1.546-5.925 287.51 287.51 0 0 1-2.2-8.513c-1.066-3.818-1.75-6.711-2.352-9.1-.625-2.387-1.063-4.3-1.493-6.18s-.951-3.708-1.6-5.965c-.343-1.123-.689-2.362-1.185-3.737s-1.073-2.905-1.751-4.646c-.7-1.884-1.384-3.478-1.981-4.9s-1.093-2.694-1.536-3.845c-.885-2.3-1.532-4.151-2.167-5.973-.6-1.84-1.361-3.56-2.269-5.712-.928-2.141-2.088-4.669-3.725-7.994-.849-1.8-1.722-3.294-2.46-4.653l-2.012-3.611-3.136-5.488c-1.938-3.3-3.967-6.381-7.7-12.741-8.365-13.389-10.017-12.314-18.258-24.408-2.173-3.269-3.989-5.581-5.453-7.525a260.538 260.538 0 0 0-3.871-4.916c-2.338-2.982-4.743-5.739-9.131-11.572l-3.147-4.129-2.56-3.172-3.97-4.809-9.4-11.312a98.561 98.561 0 0 1-9-12.655 71.484 71.484 0 0 0-8.679-11.939c-2.568-2.943-4.439-5.2-5.949-7.1a176.938 176.938 0 0 1-3.845-4.918 138.07 138.07 0 0 0-9.394-11.33c-10.516-11.538-10.548-11.5-20.46-22.158-10.666-11.36-11.548-10.521-21.541-21.058-10.723-11.263-11.592-10.43-21.59-20.931-10.687-11.259-10.4-11.532-20.293-22.086-10.529-11.365-9.362-12.442-18.985-23.156-2.555-2.883-4.461-5.058-6.012-6.877l-3.891-4.743-9.124-11.2c-9.534-11.917-11.176-10.686-19.348-22.314-4.336-6.245-6.371-9.379-8.567-12.333-.559-.734-1.045-1.49-1.544-2.295s-1.019-1.66-1.6-2.6c-.291-.5-.6-1.015-.918-1.565a36.121 36.121 0 0 1-1.482-2.814c-.96-1.985-1.948-4.158-3.1-6.689l-1.715-3.869-.774-1.812-.186-.442-.021-.047c-.011 0-.027.02-.04.03l-.083.07-.166.142-.652.558a136.249 136.249 0 0 1-4.676 3.774c-2.863 2.205-5.338 3.92-7.972 5.781-.309.214-.7.506-.952.665l-.619.364-1.254.752a53.027 53.027 0 0 0-2.663 1.735 66.093 66.093 0 0 0-6.743 5.343c-2.887 2.572-4.968 4.595-6.638 6.331-1.686 1.722-2.955 3.162-4.2 4.581a89.081 89.081 0 0 1-10.351 10.331c-11.746 10.119-10.988 11.013-22.02 20.4-11.863 10.025-13.15 8.5-24.24 17.848l-22.946 19.453c-5.933 5.038-8.8 7.7-11.588 10.224s-5.47 4.995-10.934 9.809c-5.876 5.128-8.949 7.556-11.965 9.849a126.753 126.753 0 0 0-11.282 9.487l-11.453 10.5c-2.805 2.55-5.547 4.974-10.719 10.174-2.777 2.777-4.8 4.919-6.361 6.8s-2.715 3.458-3.85 5a127.692 127.692 0 0 1-9.39 11.465c-2.639 2.906-4.779 4.938-6.585 6.6s-3.32 2.908-4.829 4.12a57.7 57.7 0 0 0-10.629 10.492c-2.481 3.082-4.326 5.405-5.736 7.422s-2.452 3.673-3.487 5.288c-2.06 3.239-4.121 6.3-8.31 12.382-2.259 3.248-3.951 5.684-5.2 7.8s-2.173 3.841-3.086 5.527c-1.814 3.378-3.648 6.575-7.338 12.962-1.995 3.409-3.535 5.941-4.676 8.113l-2.864 5.628c-1.7 3.423-3.471 6.653-6.6 13.331a97.308 97.308 0 0 1-4.447 8.26c-1.208 2.147-2.3 3.794-3.373 5.416s-2.143 3.218-3.306 5.265a38.9 38.9 0 0 0-1.8 3.479 92.831 92.831 0 0 0-1.854 4.573c-1.4 3.723-2.385 6.543-3.149 8.891s-1.152 4.281-1.626 6.147c-.454 1.872-.9 3.711-1.511 5.96s-1.464 4.894-2.4 8.473c-1.059 3.818-1.709 6.723-2.148 9.149a48.245 48.245 0 0 0-.785 6.309 81.654 81.654 0 0 1-2.156 14.734 88.092 88.092 0 0 1-4.01 15.142 49.083 49.083 0 0 0-1.764 5.893c-.546 2.262-1.08 4.98-1.594 8.633l-.747 5.193c-.22 1.526-.357 2.88-.52 4.1-.32 2.44-.562 4.374-.779 6.277s-.464 3.773-.662 6.093a193.603 193.603 0 0 0-.648 8.782c-.242 3.958-.3 6.932-.416 9.391-.054 2.461-.1 4.411-.139 6.327-.03 3.833-.077 7.535.08 14.939.1 3.968.177 6.943.24 9.407.037 2.468.067 4.422.1 6.344a141.091 141.091 0 0 0 .927 14.962 69.307 69.307 0 0 0 3.27 15.482c.571 1.854 1.2 3.662 1.825 5.917.6 2.26 1.284 4.953 2.01 8.58 1.614 7.762 2.423 11.65 3.16 15.428.406 1.879.805 3.729 1.347 6.006.584 2.265 1.307 4.96 2.428 8.508.617 1.9 1.182 3.547 1.707 5.011.542 1.459 1.073 2.723 1.554 3.865s.935 2.157 1.379 3.1l1.346 2.671 2.787 5.51c.52 1.049 1.071 2.205 1.672 3.526s1.295 2.789 2.077 4.472l1.151 2.543 1.062 2.2 1.736 3.655 2.719 5.472c1.709 3.3 3.4 6.633 7.648 13.4 2.191 3.345 3.731 5.922 5.049 8.039.643 1.07 1.2 2.044 1.71 2.968l1.527 2.653a68.5 68.5 0 0 0 8.924 12.3c5.331 5.954 8.188 8.709 10.933 11.39l10.785 10.3c5.753 5.427 8.854 7.889 11.844 10.267 3 2.362 5.9 4.638 11.582 9.327 6.109 5 9.378 7.233 12.526 9.395a662.87 662.87 0 0 1 12.257 8.44c6.5 4.5 9.686 6.868 12.775 9.173a97.663 97.663 0 0 0 12.664 8.118 110.373 110.373 0 0 0 14.484 6.737c1.836.69 3.642 1.357 5.891 2.165s4.931 1.772 8.594 2.915c7.32 2.259 11.62 3.8 15.576 4.638.994.187 1.965.327 2.946.42a23.281 23.281 0 0 0 3.065-.017 22.341 22.341 0 0 0 7.326-2.04 23.714 23.714 0 0 0 5.834-3.84c1.143-1.144 1.562-1.988 1.355-2.656-.419-1.406-3.342-1.728-8.188-3.454a71.2 71.2 0 0 0-11.068-3.132 107.626 107.626 0 0 1-14.747-3.099z"/></svg></g><g transform="translate(133.0 -14.0) rotate(0.0 270.5 407.0) translate(0.0 746.8483816013628) scale(0.8822843499717049 0.882724517293918)"><svg width="585.979" height="76.073" viewBox="0 846.072 585.979 76.073"><path d="M185.9 705.623a102.627 102.627 0 0 1-13.071-4.462 135.8 135.8 0 0 1-12.566-6.236c-6.6-3.684-10.013-5.386-13.348-7a81.3 81.3 0 0 1-12.412-7.339 90.817 90.817 0 0 1-11.774-9.646c-2.69-2.579-5.272-5.068-10.786-9.611l-11.67-9.729c-2.829-2.391-5.57-4.7-10.764-9.614-5.538-5.292-8.21-8.03-10.791-10.673-2.558-2.66-5.055-5.217-9.762-10.524-5.007-5.706-7.454-8.551-9.781-11.309a110.1 110.1 0 0 1-8.366-11.519 63.875 63.875 0 0 1-4.282-7.9 50.867 50.867 0 0 1-2.191-5.679c-.569-1.764-1.193-3.453-1.936-5.554-.765-2.089-1.821-4.5-3.235-7.711-3.088-6.856-4.858-10.21-6.643-13.448a67.9 67.9 0 0 1-5.606-13.192 72.76 72.76 0 0 1-3.127-14.789 133.739 133.739 0 0 0-2.189-14.166c-.762-3.713-1.321-6.5-1.831-8.808-.534-2.3-.955-4.129-1.37-5.923a85.365 85.365 0 0 1-1.236-5.769c-.2-1.1-.41-2.312-.623-3.689-.186-1.38-.376-2.926-.573-4.7-.422-3.791-.73-6.638-1.1-8.986-.317-2.353-.65-4.214-.981-6.046a89.447 89.447 0 0 1-1.407-14.385c-.059-3.837-.1-6.715-.141-9.1s-.077-4.271-.072-6.127c-.02-3.712-.052-7.3.357-14.463a145.392 145.392 0 0 1 1.58-15.154l2.168-14.3c1.079-7.606 2.238-11.314 3.673-14.815a70.33 70.33 0 0 0 4.033-13.857 70.223 70.223 0 0 0 2.023-15.061 63.523 63.523 0 0 1 2.48-14.26c.261-.922.489-1.791.745-2.6l.777-2.256c.5-1.411.947-2.644 1.37-3.757a171.476 171.476 0 0 1 2.285-5.676c.355-.855.707-1.7 1.079-2.6s.816-1.811 1.256-2.845c.9-2.061 1.911-4.535 3.167-7.868.683-1.782 1.262-3.35 1.873-4.707a113.01 113.01 0 0 1 1.738-3.588c1.072-2.118 2-3.761 2.9-5.372l2.866-5.158c1.108-1.949 2.354-4.3 3.894-7.5l2.175-4.551c.659-1.328 1.286-2.47 1.82-3.522l2.748-5.411c.835-1.638 1.614-3.272 2.681-5.236a503.383 503.383 0 0 1 4.253-7.307c.958-1.645 1.8-3.085 2.543-4.369s1.459-2.38 2.06-3.4c1.222-2.026 2.156-3.654 3.074-5.257s1.8-3.191 2.992-5.094a247.34 247.34 0 0 1 4.775-7.015c1.1-1.564 2.075-2.922 2.958-4.123s1.746-2.194 2.5-3.113c1.523-1.825 2.778-3.233 4.012-4.614s2.428-2.749 3.906-4.441c1.5-1.674 3.246-3.7 5.492-6.474 1.2-1.483 2.231-2.8 3.127-3.994s1.725-2.213 2.425-3.178c1.41-1.92 2.451-3.509 3.473-5.076s2.008-3.125 3.375-4.93c1.382-1.791 3.105-3.863 5.525-6.513 1.3-1.42 2.45-2.645 3.493-3.723s2.026-1.966 2.9-2.779c1.764-1.62 3.219-2.845 4.65-4.046s2.828-2.387 4.519-3.892c1.709-1.489 3.687-3.317 6.231-5.849 5.416-5.456 8.073-8.259 10.535-11.072 1.243-1.4 2.461-2.772 4.022-4.419 1.588-1.622 3.521-3.512 6.166-5.959a106.276 106.276 0 0 1 11.867-9.722 136.125 136.125 0 0 0 11.412-9.068c5.795-5.114 8.733-7.637 11.569-10.079l11.067-9.5c11.803-10.05 11.058-10.944 22.125-20.305 11.878-10.016 11.107-10.938 22.19-20.31 11.857-10.08 11.08-10.988 22.089-20.469 5.89-5.088 8.934-7.523 11.907-9.842s5.821-4.588 11.252-9.429c2.9-2.6 5.205-4.409 7.135-5.886.97-.732 1.86-1.366 2.707-1.948l.315-.215c.126-.092.107-.049.166-.079l.237-.068a4.3 4.3 0 0 1 .427-.086 4.078 4.078 0 0 1 1.2.021 1.984 1.984 0 0 0 .212.014l.1-.005c.016 0 .034-.009.049 0l.023.116a3.858 3.858 0 0 0 .236.779 4.4 4.4 0 0 0 .3.605l1.688 3.087c.617 1.106 1.171 2.1 1.69 3.026l1.626 2.538 3.356 5.254c1.288 1.981 2.912 4.249 4.987 7.352l1.587 2.326 1.481 1.98 2.519 3.289c1.524 1.936 2.727 3.479 4 4.9 1.254 1.443 2.487 2.858 3.973 4.638l2.453 2.991 3.125 3.742c4.968 6.1 7.636 8.968 10.175 11.782s5.026 5.488 9.874 10.943c10.453 11.607 9 12.938 18.915 23.62 10.67 11.368 10.966 11.084 20.967 21.619 10.725 11.257 11.014 10.981 21.009 21.478 10.68 11.259 10.974 10.982 20.88 21.532 10.554 11.347 10.278 11.6 20.008 22.28 5.215 5.718 7.749 8.633 10.254 11.408s4.869 5.5 9.609 10.931c5.107 5.8 7.611 8.729 10.119 11.5l3.969 4.465c1.481 1.716 3.2 3.8 5.487 6.578 2.438 2.988 4.375 5.143 5.976 6.927s2.929 3.148 4.241 4.488a93.139 93.139 0 0 1 9.534 10.993c2.325 3.079 3.969 5.463 5.261 7.484 1.274 2.034 2.156 3.733 3.045 5.386s1.745 3.286 2.91 5.229c.582.971 1.241 2.02 2.015 3.191s1.6 2.5 2.612 3.978c4.3 6.352 6.587 9.443 8.613 12.541l3.3 4.924c1.225 1.888 2.754 4.1 4.532 7.2 3.865 6.6 5.575 10.046 6.919 13.511.7 1.716 1.392 3.4 2.327 5.438.468 1.019 1 2.124 1.621 3.365.647 1.232 1.316 2.63 2.087 4.224 1.674 3.4 3 5.925 4.14 7.992.563 1.037 1.119 1.945 1.58 2.821s.9 1.69 1.334 2.5c.871 1.617 1.731 3.207 2.73 5.206a75.68 75.68 0 0 1 3.418 7.674c.671 1.756 1.3 3.273 1.787 4.66l1.294 3.712 1.053 3.023.837 2.691c.532 1.747 1.1 3.447 1.714 5.582.578 2.147 1.329 4.686 2.211 8.108 1.854 7.347 2.671 11.056 3.543 14.625.419 1.788.768 3.562 1.218 5.751.217 1.1.468 2.294.712 3.662l.745 4.663a76.579 76.579 0 0 1 .942 8.982 60.241 60.241 0 0 1 .026 6.109c-.061 1.855-.125 3.675-.084 5.909.009 2.239.07 4.9.348 8.427.459 7.574.911 11.355 1.282 15.023a106.047 106.047 0 0 1 .716 14.333l-.218 9.03c-.113 2.363-.2 4.234-.29 6.074l-.132 2.793-.225 3.085c-.188 2.23-.3 4.9-.668 8.434a113.032 113.032 0 0 1-2.271 14.933c-.351 1.807-.811 3.563-1.242 5.754-.454 2.186-.874 4.809-1.528 8.287a72.789 72.789 0 0 0-1.312 15.1c-.011 1.88-.051 3.728-.269 5.981a53.656 53.656 0 0 1-.506 3.732 72.188 72.188 0 0 1-1.083 4.613c-.5 1.845-.949 3.454-1.413 4.871a77.87 77.87 0 0 1-1.4 3.738c-.907 2.2-1.684 3.921-2.557 5.57a100.3 100.3 0 0 0-5.82 13.092c-1.259 3.568-2.467 6.132-3.392 8.285l-1.324 2.919c-.448.877-.868 1.7-1.283 2.507-.835 1.62-1.655 3.21-2.624 5.195-1.019 1.959-2.239 4.285-3.776 7.432a68.471 68.471 0 0 0-3.69 8.108 75.906 75.906 0 0 0-1.949 5.8 41.868 41.868 0 0 1-1.975 5.638c-.46 1.026-.979 2.141-1.663 3.351s-1.509 2.527-2.5 4a56.12 56.12 0 0 1-5.659 7.05 50.293 50.293 0 0 1-4.539 4.176 70.11 70.11 0 0 0-10.247 10.1c-4.914 5.775-7.3 8.747-9.557 11.667a106.992 106.992 0 0 1-9.523 10.745c-5.4 5.394-8.078 8.11-10.632 10.783a138.2 138.2 0 0 1-10.494 9.83c-5.826 4.92-8.756 7.349-11.61 9.663s-5.618 4.557-11.44 8.509a57.961 57.961 0 0 1-12.991 6.869c-.819.339-1.628.577-2.471.886s-1.716.582-2.663.9c-.958.356-1.941.579-3.051.937l-4.18 1c-1.929.465-3.609.909-5.1 1.336s-2.757.882-3.914 1.3a74.713 74.713 0 0 0-5.842 2.407 78.672 78.672 0 0 1-13.791 5.013 85.21 85.21 0 0 1-8.891 1.971c-2.349.373-4.229.615-6.075.731-1.846.142-3.655.276-5.862.561-2.214.2-4.821.564-8.276 1.147-3.716.488-6.414 1.055-8.637 1.457s-3.947.806-5.678 1.219a46.66 46.66 0 0 1-5.737 1.046 72.158 72.158 0 0 1-23.871-.94l-2.756-.566a69.585 69.585 0 0 0-3.049-.633 82.974 82.974 0 0 0-8.368-1.054c-3.78-.45-6.618-.762-8.97-1s-4.219-.4-6.051-.656l-1.407-.178-2.595-.362-5.642-.8-6.743-.923-3.994-.553c-.04 0-.1-.022-.124-.008l.008.136.017.273.033.554.067 1.132.14 2.371c.193 3.5.436 6.567.673 9.286.122 1.361.229 2.628.362 3.829l.214 1.73.052.386.039.236.078.462c.406 2.436.866 4.338 1.322 6.2a118.909 118.909 0 0 1 2.824 14.548 147.709 147.709 0 0 1 1.465 15.456 110.6 110.6 0 0 0 1.545 14.631c2.553 15.365 1.014 15.629 3.412 29.91 1.28 7.642 2 11.437 2.681 15.106s1.349 7.21 2.354 14.294c.986 7.083 1.13 11.128 1.665 14.591.533 3.48 1.492 6.343 3.59 11.183 1.041 2.43 1.825 4.378 2.544 5.857a6.437 6.437 0 0 0 2.093 2.911c.766.426 1.645.241 2.735-.83a9.521 9.521 0 0 0 .855-.978q.4-.552.832-1.276c.283-.481.6-1.035.884-1.628s.559-1.227.851-1.931c2.063-5.641 1.493-9.749.4-14.2-1.126-4.457-2.889-9.27-3.914-16.509-1.109-7.755-1.453-11.643-1.74-15.421a146.526 146.526 0 0 0-1.8-14.579c-2.583-15.341-4.979-14.926-7.349-29.218a54.556 54.556 0 0 1-.646-15.452 56.487 56.487 0 0 0-.314-14.628c-1.022-7.612-1.647-11.384-2.236-15.031-.152-.913-.3-1.817-.43-2.769l-.206-1.474q-.05-.361-.1-.739l-.049-.2a11.522 11.522 0 0 1-.269-2l-.025-.335a2.511 2.511 0 0 1 .281.018c.185.014.356.018.52.015a7.351 7.351 0 0 0 .951-.083l.474-.08.243-.046.124-.024.031-.006h.1l.195.007 2.954.082a108.735 108.735 0 0 1 14.853.734c7.859.635 11.761 1.3 15.583 1.685 1.907.227 3.783.453 6.11.658 2.328.179 5.12.195 8.835.2 1-.008 1.928 0 2.807-.038l2.48-.169c1.554-.117 2.916-.245 4.148-.379s2.334-.255 3.364-.439l2.938-.568c1.9-.385 3.761-.734 6.062-1.135 2.293-.476 5.036-.921 8.694-1.472 3.893-.722 6.837-1.189 9.218-1.774l6.131-1.465 14.27-3.838c15.028-4.076 15.614-1.935 29.462-5.286l1.349-.323 1.541-.408c.5-.136.992-.26 1.446-.4l1.275-.432c1.685-.536 3.008-1.116 4.269-1.595 1.228-.5 2.283-.986 3.3-1.415l2.819-1.306a94.444 94.444 0 0 0 13.264-7.682 58.015 58.015 0 0 0 11.948-10.462 91.358 91.358 0 0 1 10.617-10.493c5.958-5.131 8.975-7.652 11.895-10.1a147.452 147.452 0 0 0 10.925-10.014c2.762-2.8 4.932-4.81 6.767-6.441 1.854-1.612 3.389-2.834 4.9-4.041s3-2.392 4.709-3.987a73.209 73.209 0 0 0 6.055-6.4c2.545-3.049 4.439-5.349 5.967-7.29 1.555-1.917 2.732-3.483 3.908-5.007 2.335-3.062 4.575-6.033 8.81-12.187a66.5 66.5 0 0 0 4.825-8.2c1.078-2.259 1.752-4.146 2.437-5.978s1.354-3.626 2.2-5.819a65.192 65.192 0 0 1 1.564-3.574l2.155-4.413a102.959 102.959 0 0 1 7.929-13.652 59.646 59.646 0 0 0 3.24-5.309c.562-1.035 1.146-2.183 1.765-3.5s1.189-2.845 1.841-4.587l1.843-4.959 1.355-3.925c.806-2.336 1.5-4.17 2.112-6 1.161-3.664 2.457-7.163 4.3-14.355a71.237 71.237 0 0 0 1.9-9.235 59.534 59.534 0 0 0 .585-6.353c.093-1.937.179-3.836.426-6.152.262-2.314.544-5.068 1.206-8.689.362-1.939.638-3.641.894-5.158s.509-2.846.747-4.048l1.257-6.184c.381-1.873.764-3.718 1.161-6.01.349-2.3.688-5.044 1.049-8.716a95.844 95.844 0 0 0 .25-15.679c-.121-1.914-.192-3.79-.288-6.108s-.128-5.074-.057-8.746c-.007-3.936.087-6.888.232-9.335.085-2.447.233-4.389.381-6.3s.3-3.794.315-6.119.041-5.1-.258-8.779c-.553-7.892-1.142-11.813-1.618-15.605-.251-1.9-.572-3.751-.9-6.052l-.542-3.841-.772-4.847c-.576-3.916-1.19-6.825-1.71-9.229s-.967-4.3-1.485-6.147a276.06 276.06 0 0 1-1.546-5.925 287.51 287.51 0 0 1-2.2-8.513c-1.066-3.818-1.75-6.711-2.352-9.1-.625-2.387-1.063-4.3-1.493-6.18s-.951-3.708-1.6-5.965c-.343-1.123-.689-2.362-1.185-3.737s-1.073-2.905-1.751-4.646c-.7-1.884-1.384-3.478-1.981-4.9s-1.093-2.694-1.536-3.845c-.885-2.3-1.532-4.151-2.167-5.973-.6-1.84-1.361-3.56-2.269-5.712-.928-2.141-2.088-4.669-3.725-7.994-.849-1.8-1.722-3.294-2.46-4.653l-2.012-3.611-3.136-5.488c-1.938-3.3-3.967-6.381-7.7-12.741-8.365-13.389-10.017-12.314-18.258-24.408-2.173-3.269-3.989-5.581-5.453-7.525a260.538 260.538 0 0 0-3.871-4.916c-2.338-2.982-4.743-5.739-9.131-11.572l-3.147-4.129-2.56-3.172-3.97-4.809-9.4-11.312a98.561 98.561 0 0 1-9-12.655 71.484 71.484 0 0 0-8.679-11.939c-2.568-2.943-4.439-5.2-5.949-7.1a176.938 176.938 0 0 1-3.845-4.918 138.07 138.07 0 0 0-9.394-11.33c-10.516-11.538-10.548-11.5-20.46-22.158-10.666-11.36-11.548-10.521-21.541-21.058-10.723-11.263-11.592-10.43-21.59-20.931-10.687-11.259-10.4-11.532-20.293-22.086-10.529-11.365-9.362-12.442-18.985-23.156-2.555-2.883-4.461-5.058-6.012-6.877l-3.891-4.743-9.124-11.2c-9.534-11.917-11.176-10.686-19.348-22.314-4.336-6.245-6.371-9.379-8.567-12.333-.559-.734-1.045-1.49-1.544-2.295s-1.019-1.66-1.6-2.6c-.291-.5-.6-1.015-.918-1.565a36.121 36.121 0 0 1-1.482-2.814c-.96-1.985-1.948-4.158-3.1-6.689l-1.715-3.869-.774-1.812-.186-.442-.021-.047c-.011 0-.027.02-.04.03l-.083.07-.166.142-.652.558a136.249 136.249 0 0 1-4.676 3.774c-2.863 2.205-5.338 3.92-7.972 5.781-.309.214-.7.506-.952.665l-.619.364-1.254.752a53.027 53.027 0 0 0-2.663 1.735 66.093 66.093 0 0 0-6.743 5.343c-2.887 2.572-4.968 4.595-6.638 6.331-1.686 1.722-2.955 3.162-4.2 4.581a89.081 89.081 0 0 1-10.351 10.331c-11.746 10.119-10.988 11.013-22.02 20.4-11.863 10.025-13.15 8.5-24.24 17.848l-22.946 19.453c-5.933 5.038-8.8 7.7-11.588 10.224s-5.47 4.995-10.934 9.809c-5.876 5.128-8.949 7.556-11.965 9.849a126.753 126.753 0 0 0-11.282 9.487l-11.453 10.5c-2.805 2.55-5.547 4.974-10.719 10.174-2.777 2.777-4.8 4.919-6.361 6.8s-2.715 3.458-3.85 5a127.692 127.692 0 0 1-9.39 11.465c-2.639 2.906-4.779 4.938-6.585 6.6s-3.32 2.908-4.829 4.12a57.7 57.7 0 0 0-10.629 10.492c-2.481 3.082-4.326 5.405-5.736 7.422s-2.452 3.673-3.487 5.288c-2.06 3.239-4.121 6.3-8.31 12.382-2.259 3.248-3.951 5.684-5.2 7.8s-2.173 3.841-3.086 5.527c-1.814 3.378-3.648 6.575-7.338 12.962-1.995 3.409-3.535 5.941-4.676 8.113l-2.864 5.628c-1.7 3.423-3.471 6.653-6.6 13.331a97.308 97.308 0 0 1-4.447 8.26c-1.208 2.147-2.3 3.794-3.373 5.416s-2.143 3.218-3.306 5.265a38.9 38.9 0 0 0-1.8 3.479 92.831 92.831 0 0 0-1.854 4.573c-1.4 3.723-2.385 6.543-3.149 8.891s-1.152 4.281-1.626 6.147c-.454 1.872-.9 3.711-1.511 5.96s-1.464 4.894-2.4 8.473c-1.059 3.818-1.709 6.723-2.148 9.149a48.245 48.245 0 0 0-.785 6.309 81.654 81.654 0 0 1-2.156 14.734 88.092 88.092 0 0 1-4.01 15.142 49.083 49.083 0 0 0-1.764 5.893c-.546 2.262-1.08 4.98-1.594 8.633l-.747 5.193c-.22 1.526-.357 2.88-.52 4.1-.32 2.44-.562 4.374-.779 6.277s-.464 3.773-.662 6.093a193.603 193.603 0 0 0-.648 8.782c-.242 3.958-.3 6.932-.416 9.391-.054 2.461-.1 4.411-.139 6.327-.03 3.833-.077 7.535.08 14.939.1 3.968.177 6.943.24 9.407.037 2.468.067 4.422.1 6.344a141.091 141.091 0 0 0 .927 14.962 69.307 69.307 0 0 0 3.27 15.482c.571 1.854 1.2 3.662 1.825 5.917.6 2.26 1.284 4.953 2.01 8.58 1.614 7.762 2.423 11.65 3.16 15.428.406 1.879.805 3.729 1.347 6.006.584 2.265 1.307 4.96 2.428 8.508.617 1.9 1.182 3.547 1.707 5.011.542 1.459 1.073 2.723 1.554 3.865s.935 2.157 1.379 3.1l1.346 2.671 2.787 5.51c.52 1.049 1.071 2.205 1.672 3.526s1.295 2.789 2.077 4.472l1.151 2.543 1.062 2.2 1.736 3.655 2.719 5.472c1.709 3.3 3.4 6.633 7.648 13.4 2.191 3.345 3.731 5.922 5.049 8.039.643 1.07 1.2 2.044 1.71 2.968l1.527 2.653a68.5 68.5 0 0 0 8.924 12.3c5.331 5.954 8.188 8.709 10.933 11.39l10.785 10.3c5.753 5.427 8.854 7.889 11.844 10.267 3 2.362 5.9 4.638 11.582 9.327 6.109 5 9.378 7.233 12.526 9.395a662.87 662.87 0 0 1 12.257 8.44c6.5 4.5 9.686 6.868 12.775 9.173a97.663 97.663 0 0 0 12.664 8.118 110.373 110.373 0 0 0 14.484 6.737c1.836.69 3.642 1.357 5.891 2.165s4.931 1.772 8.594 2.915c7.32 2.259 11.62 3.8 15.576 4.638.994.187 1.965.327 2.946.42a23.281 23.281 0 0 0 3.065-.017 22.341 22.341 0 0 0 7.326-2.04 23.714 23.714 0 0 0 5.834-3.84c1.143-1.144 1.562-1.988 1.355-2.656-.419-1.406-3.342-1.728-8.188-3.454a71.2 71.2 0 0 0-11.068-3.132 107.626 107.626 0 0 1-14.747-3.099z"/></svg></g><g transform="translate(490.0 545.0) rotate(0.0 65.5 16.5) scale(0.9586534943285766 0.9625762039494793)"><svg width="136.65" height="34.283" viewBox="0 0 136.65 34.283"><g fill="#11A191"><path d="M68.578.085c9.395-.257 16.858 4.7 16.858 18.313 0 9.4-6.486 15.885-15.885 15.885S51.7 26.5 51.56 17.1C51.4 5.918 62.744.245 68.578.085zm51.054 0c9.357.88 17.018 9.888 17.018 19.287s-7.62 14.617-17.018 14.749c-11.505.162-17.018-7.619-17.018-17.018S109.262-.89 119.632.085zM21.331.076c9.358.879 13.84 6.493 13.84 15.892s-8.755 18.021-18.153 18.153C5.513 34.283 0 26.5 0 17.1S10.961-.9 21.331.076z"/></g></svg></g></svg>