<svg xmlns="http://www.w3.org/2000/svg" viewBox="0 0 800 800" width="800" height="800"><g transform="translate(192.0 319.0) rotate(-89.99999999999984 192.5 259.0) translate(0.0 0.0) scale(1.1969383250324883 1.1969434039868845)"><svg width="321.654" height="432.769" viewBox="0 0 321.654 432.769"><path d="M0 422.777C7.459 410 12.945 371.969 1.837 364.061c3.085-7.436 1.911-43.253 3.739-52.48 8.289-103.406-2-211.5 10.856-307.331 1.709 1.608-.683 7.774 1.286 6.848.238-9.4 12.12 4.725 19.309-5.833 10.107 13.6 42.981-.461 37.525 18.5C107.689 17.146 165.5 8.406 197.177 0c-2.061 9.231 34.475-3.946 32.242 5.307 17.893-3.531 63.564 1.64 77.082 9.538-9.383 6.568 11.28 76.287 11.28 76.287.567 12.807 5.938 62.385 3 58.5-4.363 6.024-1.28 43.955-.481 54.294-2.012 8.992-2.351 16.9-4.674 26.175 0 0-11.443 79.215-21.844 99.522-19.631 38.327-41.122 53.567-49.5 58.5-5.349 9.181-53.629 18.5-61.4 16.794-8.084 1.511-14.2 17.746-30.606 17.286-7.751-.217-13.233-2.553-21.942-3.062-6.623-.387-19.547 14.128-26.43 13.621-41.52-3.062-85.45-7.924-103.904-9.985z" fill="#6A00F4"/></svg></g><g transform="translate(458.0 23.0) rotate(0.0 -187.5 258.0) scale(-0.9994349860878651 0.9981661598458647)"><svg width="375.212" height="516.948" viewBox="0 0 375.212 516.948"><path d="M324.643 31.957c-3.966 9.814 52.69 74.609 50.507 124.807-6.03 138.626-.394 232.554-20.15 360.184-1.913-2.225 1.183-10.37-1.159-9.216-.746 12.567-13.9-6.846-22.805 6.965-11.107-18.631-50.137-1.247-42.832-26.372-38.966 7.414-106.811 16.6-144.16 26.468 2.863-12.258-40.394 3.783-37.329-8.5-21.039 3.947-74.033-4.952-89.4-16.1C28.578 481.814 0 334.824 0 334.824c-.023-17.158.852-44.875 4.084-39.545 5.388-7.87 6.963-44.746 6.547-58.612 2.793-11.94 3.583-22.506 6.752-34.811 0 0 5.894-74.555 19.032-101.267 24.8-50.42 49.038-70.968 59.048-77.2C102.158 11.341 187.43-2.3 196.411.328c9.502-1.671 115.674 20.572 128.232 31.629z" fill="#FFBE0B"/></svg></g><g transform="translate(305.0 131.0) rotate(0.0 191.0 227.0) scale(0.9981656745979901 0.9995816728681829)"><svg width="382.702" height="454.19" viewBox="0 0 382.702 454.19"><path d="m97.813 454.19 70.03-3.2s44.529-11.228 43.182-16.652c9.332-18.743 96.181-5.482 95.964-3.68 4.837-3.887 48.429-24.807 49.7-20.945.592-10.266 21.865-16.886 26.014-28.076-1.7-40.993-4.871-123.51-10.224-179.683-11.2-125.888-9.329-70.846-15.605-164.092-.689-17.136-.664-32.725-1.619-37.085-1.967-5.21-53.232 17.628-67.473 18.6-21.87-5.3-57.848 12.923-67.309-1.087-10.775-7.353-81.584-.148-94.433 13.48-2.543.154-8.458 3.109-13.714 1.711-6.926-.631-40.389-8.238-40.389-8.238-10.8 7.023-11.984 2.026-13.184 3.029S50.33 42.28 50.33 42.28c-8.7 36.491-27.448 90.334-20.744 144.033 15.559 4.965-25.527 141.043-15.976 153.021.006.007-11.986 55.244-11.986 55.244 4.543 5.976-6.293 10.687.945 17.683-.969-3.641 28.286 32 48.648 33.83-3.789 9.332 29.639.978 46.596 8.099z" fill="#11A191"/></svg></g><g transform="translate(442.0 66.0) rotate(0.0 66.0 17.5) scale(0.9926677946982516 0.9857211254118907)"><svg width="132.975" height="35.507" viewBox="0 0 132.975 35.507"><g fill="#4CC9F0"><path d="M35.936 17.515c.231 9.921-8.05 17.634-17.968 17.968C4.465 35.938 0 27.438 0 17.515S5.323 0 15.247 0s20.364 3.594 20.689 17.515zm47.917 2.396c.232 9.92-8.05 15.238-17.968 15.572-13.5.455-17.968-8.045-17.968-17.968S58.032 0 67.956 0s15.573 5.99 15.897 19.911zm49.115 0c.232 9.92-5.654 15.238-15.572 15.572-13.5.455-20.818-5.659-20.364-15.572C97.628 6.92 104.751 0 114.675 0s17.969 5.99 18.293 19.911z"/></g></svg></g><g transform="translate(456.0 232.0) rotate(0.0 55.0 122.0) scale(0.9991643352832177 0.9998319954433886)"><svg width="110.092" height="244.041" viewBox="0 0 110.092 244.041"><g fill="#fff"><path d="M53.525 244.041c-.806-19.312-1.339-38.503-.909-57.825.28-12.595-1.324-24.808-2.298-37.326-.946-12.162-1.045-24.55-1.281-36.749-.215-11.082 1.833-21.886 2.573-32.911.787-11.73 1.025-23.608 1.093-35.364.055-9.592-.165-19.398-1.886-28.862-.295-1.624-1.93-4.526-.321-5.213l6.431-2.743c3.376 7.919 3.322 17.947 3.626 26.38.43 11.92-.146 23.846-.542 35.758-.381 11.464-1.993 22.684-2.875 34.095-.896 11.594.533 23.46.768 35.069.234 11.537 2.142 22.891 2.667 34.401.521 11.399-.482 22.806-.298 34.208.116 7.196.435 14.396.679 21.588.053 1.568.768 15.152.291 15.172-2.572.109-5.145.215-7.718.322z"/><path d="M1.358 64.049C.894 51.251 11.584 39.747 19.775 31.143c4.378-4.598 8.607-9.046 12.162-14.331 2.281-3.392 4.459-6.911 7.54-9.654 3.353-2.984 7.51-4.81 11.789-6.031 2.547-.726 6.195-2.241 8.319.234 2.971 3.467 6.032 6.857 9.091 10.246 9.279 10.278 18.413 20.721 27.423 31.236-1.043.894-4.851 5.301-6.074 5.205-4.994-5.825-10.12-11.535-15.159-17.321-5.52-6.339-11.126-12.592-16.718-18.866-3.293-3.695-4.348-3.62-8.923-1.557a17.3 17.3 0 0 0-6.017 4.458c-3.97 4.577-6.788 10.047-10.766 14.653-4.788 5.543-10.2 10.458-14.725 16.247-3.691 4.723-7.778 10.422-8.322 16.594-.248 2.808-5.407 1.698-8.037 1.793zm102.277 68.711c-7.044-9.629-15.774-17.795-25.409-24.788-9.186-6.666-19.387-13.961-23.924-24.79-18.689 12.091-32.713 31.704-48.815 46.865-.862-.915-5.598-4.752-5.484-5.824 5.333-5.02 10.371-10.357 15.475-15.606C26.46 97.322 37.329 84.295 50.81 75.925c8.765-5.442 8.537.55 12.312 6.984 3.408 5.81 8.787 10.27 14.058 14.321 12.151 9.34 23.771 18.311 32.913 30.808l-6.458 4.722z"/></g></svg></g><g transform="translate(171.0 23.0) rotate(0.0 236.5 364.5) scale(0.998878637301465 0.9994913425403533)"><svg width="473.531" height="729.371" viewBox="0 0 473.531 729.371"><path d="M19.6 74.216c1.847-3.495 2.648-5.193 3.58-6.841s1.908-3.239 3.9-6.3a41.262 41.262 0 0 0 3.669-6.718 18.884 18.884 0 0 1 3.837-5.851c.317-.321.6-.615.9-.893l.9-.778c.574-.48 1.093-.882 1.574-1.233a22.643 22.643 0 0 1 2.64-1.582c.812-.456 1.63-.868 2.595-1.42.478-.281.989-.6 1.551-.992s1.21-.79 1.914-1.3c3.039-2.158 4.61-3.176 6.117-4.191a51.611 51.611 0 0 1 6.187-3.517c3.444-1.638 5.232-2.374 6.955-3.1a196.06 196.06 0 0 1 6.857-2.659C80.2 24.151 80 23.409 87.05 20.963a20.249 20.249 0 0 1 7.788-1.3 26.129 26.129 0 0 0 3.12-.107 22.908 22.908 0 0 0 4.229-.8c7.41-1.9 6.982-3.877 14.047-5.057a19.456 19.456 0 0 1 7.556.149c.92.137 1.809.424 2.9.56a19.71 19.71 0 0 0 1.81.17c.673.014 1.419.061 2.269.1 1.821.09 3.2-.024 4.333.011a38.514 38.514 0 0 0 2.944-.112c.45-.027.9-.069 1.369-.077.467.012.959.032 1.5.07a26.774 26.774 0 0 1 4.068.563 32.72 32.72 0 0 0 4.334.812c1.147.2 2.081.3 3.008.387a22.947 22.947 0 0 1 2.951.4 31.878 31.878 0 0 1 4.026 1.331c7 3.131 7.133 2.839 13.473 6.426 1.691 1.017 2.933 1.823 3.942 2.518s1.755 1.327 2.5 1.921c1.49 1.2 2.946 2.325 5.946 4.425a17.369 17.369 0 0 1 5.488 5.65 19.879 19.879 0 0 0 4.913 5.574 20.157 20.157 0 0 0 6.782 3.858 17.114 17.114 0 0 1 6.344 3.926 33.039 33.039 0 0 1 5.036 5.892 57.369 57.369 0 0 0 4.483 5.794 25.138 25.138 0 0 1 4.276 6.385 38.012 38.012 0 0 0 3.7 6.236c2.217 3.1 3.291 4.679 4.426 6.142 1.039 1.523 2.078 2.979 3.882 6.053 1.812 3.358 2.968 4.906 3.916 6.5.5.786.983 1.56 1.545 2.54.28.49.583 1.03.906 1.652.3.634.617 1.349.971 2.171a39.844 39.844 0 0 1 1.611 4.253c.313 1.156.5 2.091.688 3.008s.362 1.817.651 2.9a49.683 49.683 0 0 0 1.13 4.082c.292.905.577 1.688.858 2.38s.5 1.31.747 1.855a27.555 27.555 0 0 0 1.459 2.768 19.721 19.721 0 0 1 2.624 6.836c1.45 7.611-.128 7.858.73 14.955.687 7.639 1.909 7.571 2.108 14.815a24.7 24.7 0 0 1-.245 4.6c-.168 1.2-.382 2.152-.595 3.081a37.934 37.934 0 0 0-1.142 7.233l-.147 2.558c-.074.75-.139 1.41-.2 2.007l-.309 3.071c-.094.93-.185 1.845-.3 2.975-.129 1.13-.344 2.472-.591 4.264-.273 1.919-.4 3.369-.46 4.58a47.188 47.188 0 0 0-.148 3.125 34.363 34.363 0 0 1-.783 7.333 42.923 42.923 0 0 0-1.1 7.719 39.989 39.989 0 0 1-1.288 7.319c-.482 1.924-.82 3.327-1.056 4.5a90.984 90.984 0 0 0-.529 3.071 29.143 29.143 0 0 1-.571 2.981 32.085 32.085 0 0 1-1.312 4.14 47.611 47.611 0 0 1-3.3 7.044c-.954 1.654-1.864 3.247-3.438 6.559a20.588 20.588 0 0 1-4.551 6.44 22.631 22.631 0 0 0-4.543 5.969c-3.82 6.891-3.5 7.08-7.245 13.485-4.072 6.859-3.4 7.261-7.269 13.7-4.141 6.93-3.822 7.117-7.608 13.722a33.086 33.086 0 0 1-4.806 6.683 23.974 23.974 0 0 0-4.425 6.656 63.943 63.943 0 0 0-3.14 8.022c-.6 2.083-1.268 4.012-2.243 8.256a34.8 34.8 0 0 0-.873 9.6 38.653 38.653 0 0 0 .445 3.978A32.781 32.781 0 0 0 192.15 350a24.729 24.729 0 0 0 1.478 3.273 19.722 19.722 0 0 0 1.463 2.391 16.734 16.734 0 0 0 1.367 1.788 17.561 17.561 0 0 0 1.3 1.45l1.342 1.325c.473.43.985.85 1.541 1.332.551.5 1.185.953 1.9 1.492.705.56 1.514 1.1 2.44 1.709a58.483 58.483 0 0 0 4.747 2.8c1.247.695 2.237 1.171 3.211 1.651a52.139 52.139 0 0 0 7.716 3.053c4.141 1.243 6.21 1.721 8.208 2.19l3.193.7 4.581.868c2.042.337 3.646.583 4.854.735 1.225.155 2.2.259 3.155.36 1.916.194 3.762.4 7.418 1.024 7.821 1.373 8.111-.187 15.405 1.235 7.789 1.625 7.362 3.576 14.543 5.244 3.84.925 5.783 1.3 7.65 1.695s3.689.725 7.227 1.741a29.109 29.109 0 0 1 7.27 2.96 35.439 35.439 0 0 0 6.8 3c7.4 2.508 7.807 1.388 14.649 3.985 3.635 1.45 5.438 2.208 7.186 2.926 1.722.772 3.405 1.479 6.719 2.989 3.513 1.688 5.341 2.393 7.045 3.192l2.742 1.255c1.041.48 2.262 1.09 3.842 1.987a28.632 28.632 0 0 1 3.875 2.515 27.85 27.85 0 0 1 2.3 2.184 29.808 29.808 0 0 0 2.2 2.121 29.041 29.041 0 0 0 3.419 2.575c1.615 1.037 2.859 1.765 3.884 2.374a43.995 43.995 0 0 0 2.742 1.425 30.683 30.683 0 0 1 6.16 3.853c3.029 2.372 4.457 3.657 5.905 4.823 1.4 1.222 2.717 2.432 5.374 4.834 5.481 5.372 4.614 6.209 9.344 11.474a19.118 19.118 0 0 0 6.049 4.816 20.139 20.139 0 0 1 2.692 1.684 11.656 11.656 0 0 1 1.441 1.293 19.487 19.487 0 0 1 1.488 1.889 22.917 22.917 0 0 1 2.315 3.978 23.739 23.739 0 0 1 .95 3.052 25.1 25.1 0 0 0 2.682 6.806 37.948 37.948 0 0 1 3.213 6.86c.326.868.644 1.719 1.081 2.749s.924 2.316 1.677 3.956a18.02 18.02 0 0 0 2.4 3.965 18.526 18.526 0 0 0 2.331 2.395 13.719 13.719 0 0 1 4.42 6.2 16.088 16.088 0 0 1 1.2 7.88 17.109 17.109 0 0 0 .86 7.508c2.38 7.459 3.483 7.135 5.524 14.2 2.013 7.624 2.819 7.419 4.525 14.61.921 3.848 1.385 5.777 1.909 7.623s.984 3.641 1.7 7.276a29.893 29.893 0 0 1 .67 7.878 34.614 34.614 0 0 0 .478 7.49 24.437 24.437 0 0 0 2.4 7.586 20.764 20.764 0 0 1 2.245 7.247c1.041 7.9-.972 8.146-.124 15.507a25.214 25.214 0 0 0 1.773 7.546 27.106 27.106 0 0 1 1.793 7.687c.861 8.01-1.513 8.264-.709 15.708.85 7.966 1.248 7.922 1.99 15.346.762 7.947 2.761 7.765 3.387 15.2.626 7.958-.974 8.073-.525 15.461.4 7.911-1.186 7.981-1.031 15.27.047 3.9.113 5.823.184 7.69a67.817 67.817 0 0 1-.109 7.177c-.279 3.477-.806 5.37-.882 6.992a7.652 7.652 0 0 0 .323 2.479A13.257 13.257 0 0 0 459.2 721c.214.514.474 1.085.794 1.775l1.574 3.457a7.66 7.66 0 0 0 1.537 2.364 2.946 2.946 0 0 0 2.529.738 6.821 6.821 0 0 0 1.947-.6 13.828 13.828 0 0 0 2.256-1.381 8.43 8.43 0 0 0 1.017-.94 9.607 9.607 0 0 0 .769-.946 8.626 8.626 0 0 0 .595-.969 6.541 6.541 0 0 0 .374-.94 8.638 8.638 0 0 0 .367-1.911 11.791 11.791 0 0 0-.074-1.926c-.251-2.643-1.157-5.435-.875-9.326.131-2.083.281-3.636.424-4.915.161-1.282.338-2.3.493-3.289a37.231 37.231 0 0 0 .594-7.755c-.19-8.2-2.609-8.095-3-15.643-.494-8.07 3.079-8.329 2.485-15.888-.687-8.081-1.493-8-2.218-15.513-.806-8.037-2.8-7.827-3.6-15.3-.865-8 .315-8.132-.482-15.565a35 35 0 0 0-1.6-7.8 32.8 32.8 0 0 1-1.573-7.5c-.464-4.019-.8-6.018-1.12-7.948-.349-1.927-.693-3.786-1.18-7.529-1.145-8 1.258-8.366.033-15.862-.631-4.016-.857-6.044-.988-8.02a51.589 51.589 0 0 0-1.041-7.615 19.409 19.409 0 0 0-3.01-7.627 20.9 20.9 0 0 1-3.048-7.158c-1.875-7.9-1.16-8.083-3.108-15.43a24.22 24.22 0 0 1-1.091-8.111 22.639 22.639 0 0 0-1.181-7.725c-2.652-7.789-2.6-7.8-5.344-15a19.53 19.53 0 0 0-2.207-4.385 23.514 23.514 0 0 0-2.147-2.668 28.261 28.261 0 0 1-2.11-2.547 21.076 21.076 0 0 1-2.281-3.967 25.626 25.626 0 0 1-2.3-7.989 25.342 25.342 0 0 0-.6-3.33 21.514 21.514 0 0 0-1.912-4.274c-1.031-1.834-1.788-3.218-2.478-4.33l-1.678-2.916c-.512-.881-.973-1.777-1.651-2.815s-1.5-2.262-2.635-3.876a20.742 20.742 0 0 0-3.268-3.8 27.225 27.225 0 0 0-2.7-2.145l-1.283-.939c-.45-.314-.911-.653-1.393-1.048a25.224 25.224 0 0 1-3.278-3.28 57.152 57.152 0 0 1-5.15-6.483 41.727 41.727 0 0 0-5.193-5.934c-6.207-5.613-7.254-4.386-13.274-9.194a42.333 42.333 0 0 1-3.746-3.172 47.418 47.418 0 0 1-2.372-2.357 27.468 27.468 0 0 0-6.02-5.048 75.4 75.4 0 0 0-7.1-4.174c-1.757-.969-3.5-1.817-6.872-3.684-7.3-3.888-7.671-3.141-14.595-6.435-7.5-3.337-7.035-4.437-14.176-7.286a58.075 58.075 0 0 1-7.441-3.405 37.568 37.568 0 0 0-7.14-3.079c-3.909-1.3-5.909-1.786-7.839-2.262s-3.791-.945-7.478-1.964c-7.914-2.158-8.412-.208-15.791-2-7.93-1.83-8.1-1.035-15.516-2.566-7.959-1.553-8.033-1.154-15.474-2.455a24.954 24.954 0 0 1-7.729-2.486 27.925 27.925 0 0 0-2.966-1.3 22.031 22.031 0 0 0-4.182-1.075 32.816 32.816 0 0 1-7.3-2.12 54.721 54.721 0 0 0-6.593-2.441l-2.284-.764c-.66-.236-1.219-.465-1.738-.659-1.049-.378-1.806-.746-2.58-1.077a35.262 35.262 0 0 1-5.451-2.989c-2.564-1.762-3.617-2.579-4.745-3.4l-.8-.655c-.244-.243-.483-.512-.754-.814a8.768 8.768 0 0 1-.748-1.093 9.994 9.994 0 0 1-.672-1.529 48.59 48.59 0 0 1-1.374-5.639 14.373 14.373 0 0 1 .253-6.369 37.035 37.035 0 0 1 2.361-6.849c.724-1.651 1.489-3.238 2.986-6.478a26.394 26.394 0 0 1 4.155-6.485 34.232 34.232 0 0 0 4.262-6.062c3.938-6.837 4.317-6.625 8.144-13.028 4.133-6.882 2.443-7.911 6.287-14.405 4.091-7 3.061-7.6 6.735-14.238a19.985 19.985 0 0 1 5.214-6.414 16.892 16.892 0 0 0 4.884-6.265 26.113 26.113 0 0 0 2.484-7.932 33.007 33.007 0 0 1 2.006-7.645 36.374 36.374 0 0 0 2.154-8c.175-1 .309-1.995.545-3.2.257-1.211.546-2.613 1.022-4.457a31.739 31.739 0 0 1 2.982-7.62 26.952 26.952 0 0 0 2.657-7.348c.812-4.045 1.133-6.089 1.506-8.048.391-1.957.638-3.874 1.182-7.7a69.932 69.932 0 0 0 .771-8.175l.437-7.79c.12-2.069.285-3.616.471-4.9.161-1.283.306-2.3.477-3.305s.33-1.992.46-3.217c.065-.613.122-1.285.165-2.047s.011-1.618-.013-2.594c-.124-4.183-.061-6.28-.153-8.31l-.106-3.247c-.04-1.234-.12-2.7-.386-4.653a24.525 24.525 0 0 0-2.114-8.116c-.416-.959-.829-1.9-1.219-3.071-.2-.587-.385-1.234-.567-1.974a37.837 37.837 0 0 1-.635-2.509 24.847 24.847 0 0 1-.635-4.932 26.309 26.309 0 0 1 .066-3.473 17.789 17.789 0 0 0-.9-8.037 35.381 35.381 0 0 0-3.353-7.741c-.51-.9-.974-1.8-1.556-2.9s-1.248-2.426-2.028-4.234c-3.526-7.679-4.649-7.113-8.394-13.959-4.325-7.166-4.66-6.955-9.121-13.326a24.851 24.851 0 0 1-2.58-4.246 25.3 25.3 0 0 1-1.331-3.2 25.772 25.772 0 0 0-1.292-3.147 20.335 20.335 0 0 0-2.736-3.83 60.673 60.673 0 0 0-1.885-2.077 46.867 46.867 0 0 0-1.61-1.508 50.474 50.474 0 0 0-2.608-2.158 59.12 59.12 0 0 1-6.027-5.139c-6.167-5.67-7.748-3.851-13.681-8.725a28.08 28.08 0 0 1-3.608-3.32 30.246 30.246 0 0 1-2.153-2.622 20.369 20.369 0 0 0-5.669-5.505c-3.406-2.387-5.147-3.509-6.769-4.7s-3.25-2.242-6.566-4.25c-1.78-1.07-3.261-1.813-4.407-2.459-1.174-.629-2.081-1.158-3.016-1.618l-3.02-1.429c-1.158-.525-2.486-1.236-4.4-1.951l-8.027-3.335a41.24 41.24 0 0 0-7.959-2.534 21.289 21.289 0 0 0-8.866-.164 33.849 33.849 0 0 1-3.439.48 27.984 27.984 0 0 1-4.826.208c-2.161-.057-3.769.026-5.113-.033L123.5.98h-1.606c-1.043-.007-2.07-.014-3.339.028a46.389 46.389 0 0 0-4.727.523c-8.406 1.463-8.038 3.087-15.521 5.031-4 1.081-5.837 1.605-7.707 2.071s-3.707.992-7.59 2.3c-7.6 2.648-8.245.714-15.462 3.343-3.88 1.451-5.8 2.346-7.638 3.213l-7.221 3.491c-.961.482-1.8.916-2.535 1.312-.731.42-1.366.806-1.937 1.16a34.531 34.531 0 0 0-2.857 1.957l-2.7 2-3.9 2.815a40.7 40.7 0 0 0-6.445 5.625c-.727.747-1.425 1.492-2.276 2.416s-1.9 1.912-3.393 3.495c-3.023 3.315-4.475 4.874-5.963 6.364a35.418 35.418 0 0 0-4.969 6.207 61.143 61.143 0 0 0-3.984 7.011A47.243 47.243 0 0 1 8.071 67.7a17.028 17.028 0 0 1-5.033 4.8 4.079 4.079 0 0 0-1.369 1.519 7.873 7.873 0 0 0-.549 2.69 12.317 12.317 0 0 1-.576 3.211 5.632 5.632 0 0 0-.538 2.27 2.76 2.76 0 0 0 1.364 2.047 9.088 9.088 0 0 0 4.763 1.121 13.448 13.448 0 0 0 5-1.122 10.623 10.623 0 0 0 1.732-.985 12 12 0 0 0 1.435-1.212c1.742-1.779 3.108-4.202 5.3-7.823z"/></svg></g><g transform="translate(133.0 514.0) rotate(180.0 238.0 133.0) translate(0.0 0.0) scale(0.9984205657856374 0.996508474068302)"><svg width="475.751" height="195.683" viewBox="0 0 475.751 195.683"><path d="M433.233 4.713c-.12-.02-.18-.031-.2-.031a.521.521 0 0 0 .26.041.176.176 0 0 0-.06-.01zm34.36 163.38c-.14-2.681-.22-5.37-.25-7.991-.18-12.589.68-23.73 1.82-26.1-3.45-1.27 5.57-130.26-28.2-125.53-45.49-12.851-181.27-7.15-232.01-7.561-16.91-.129-.92 13.52-18.16 14.041-11.75.36-29.31-4.3-39.47-1.49-3.29.92-5.8 2.61-7.09 5.51-.4-1.61-.8-3.061-1.19-4.38-4.1-13.79-7.99-12.28-21.3-11.691C93.7 4.152 65.6 5.193 37.723 5.263c-7.63 2.85 10.37 8.919-5.1 6.62 8.96 1.86-43.25 212.789-30.65 221.17 73.22 24.4 174.47 20.109 275.53 19.95 8.09-.02 23.13 13.329 24.25 7.11 3.41-18.951 41.96-5.42 48.38-5.31 22.05.379 43.94.76 58.11 11.369 19.33-7.579 32.9-4.7 58.36.76-1.17-3.51-1.51-30.819 2.6-44.089 1.93.92 4.42-12.241 7.55-21.421-5.78-2.129-8.37-17.659-9.16-33.329z" fill="#6a00f4"/><g fill="#fff"><path d="m432.808 116.669 8-.028.181 51.801-8 .028zm-41.782.045 8-.123.801 51.802-8 .123zm-41.17-.025 8-.073.47 51.802-8 .073zm-41.156-.029 8-.01.06 51.803-8 .009zm-41.968.034 8-.075.49 51.801-8 .076zm-41.066 51.756.089-51.803 8 .014-.089 51.802z"/><path d="m467.593 168.093-20.59.3-86.37 4.991a1.64 1.64 0 0 1-.21.009l-43.23.26-129.693 1.29h-.04a4.623 4.623 0 0 1-.65-.051l-41.3-6.879a4 4 0 0 1-3.32-3.48c-.33-2.79-8.06-68.73-7.19-91.57.3-7.811 4.85-37.98 8.04-58.37.39 1.319.79 2.77 1.19 4.38 1.29-2.9 3.8-4.59 7.09-5.51-3.17 20.179-8.04 52.15-8.33 59.8-.74 19.54 5.28 74 6.8 87.35l37.98 6.33 37.89-.38 8-.08 33.54-.331 8-.079 33.56-.34 8-.081h.36l33.17-.2 8-.051 1.98-.01 31.47-1.819 8-.46 33.22-1.92 8-.46 5.67-.331a.97.97 0 0 1 .17-.01l20.54-.29c.033 2.622.113 5.311.253 7.992z"/></g></svg></g><g transform="translate(113.0 155.0) rotate(0.0 55.5 99.0) scale(0.9981386063826918 0.9962464653376671)"><svg width="111.207" height="198.746" viewBox="0 0 111.207 198.746"><g fill="#fff"><path d="M57.942 198.746c-9.042-20.127-19.626-42.428-21.686-44.907-2.906-3.229-5.45-8.671-8.671-15.561-3.831-8.194-8.599-18.393-15.71-28.551C2.068 95.716-2.923 63.604 1.8 44.898c2.206-8.737 6.734-15.563 11.113-22.164 1.142-1.722 2.322-3.501 3.426-5.266.567-.908 1.101-1.784 1.613-2.626C22.505 7.37 26.436.916 38.463.125A58.14 58.14 0 0 1 42.28 0c10.927 0 20.974 3.034 30.69 5.968 2.105.636 4.214 1.272 6.337 1.88 11.132 3.188 17.505 6.727 23.612 18.218 9.84 18.515 9.121 40.199 6.879 60.876-1.052 9.697-5.687 23.462-9.071 33.512-.576 1.711-1.12 3.326-1.609 4.81-1.904 5.777-4.265 9.428-6.547 12.958-1.832 2.833-3.563 5.51-5.266 9.47-1.311 3.047-3.23 7.243-5.263 11.686-2.824 6.173-5.744 12.557-7.532 16.928-1.293 3.162-9.224 22.333-9.224 22.333zM42.28 8c-1.103 0-2.21.036-3.292.107-7.881.519-9.862 3.771-14.204 10.897-.527.867-1.077 1.77-1.662 2.704-1.16 1.856-2.371 3.682-3.543 5.447-4.191 6.319-8.151 12.289-10.023 19.701-4.111 16.288.45 46.247 8.875 58.282 7.509 10.728 12.44 21.275 16.402 29.751 2.822 6.038 5.261 11.253 7.387 13.616 2.845 3.16 12.955 24.831 19.205 38.535 2.291-5.54 4.976-12.04 5.682-13.766 1.85-4.523 4.804-10.982 7.661-17.229 2.013-4.4 3.914-8.556 5.188-11.519 1.97-4.578 4.057-7.805 5.897-10.652 2.191-3.39 4.084-6.317 5.667-11.118a807.22 807.22 0 0 1 1.625-4.859c3.268-9.701 7.742-22.989 8.7-31.821 2.104-19.405 2.836-39.652-5.99-56.259-4.779-8.992-8.874-11.453-18.75-14.28-2.159-.618-4.306-1.267-6.447-1.913C61.076 10.733 52.025 8 42.28 8z"/><path d="M56.656 92.584c-.427 0-.876-.023-1.35-.073-7.76-.815-19.736-8.908-24.517-19.218-2.413-5.205-3.17-17.42 1.189-23.967 2.173-3.266 5.434-4.997 9.223-4.84l-.305 7.994c-.821-.035-1.522.173-2.259 1.279-2.609 3.918-2.002 13.124-.591 16.168 4.226 9.114 16.14 15.503 19.059 14.636 2.339-3.089 4.923-5.751 7.208-8.104 6.343-6.533 9.588-10.27 8.183-17.291-1.911-9.549-6.048-11.528-19.253-9.21l-1.383-7.879c8.566-1.506 24.514-4.305 28.479 15.519 2.297 11.473-4.1 18.062-10.286 24.434-2.269 2.337-4.615 4.754-6.684 7.513-.89 1.186-2.892 3.039-6.713 3.039z"/></g></svg></g></svg>