<svg xmlns="http://www.w3.org/2000/svg" viewBox="0 0 2500 2500" width="2500" height="2500"><g transform="translate(528.0 1792.0) rotate(0.0 711.5 256.5) scale(0.8833028450048697 0.8834895944558875)"><svg width="1610.999" height="580.652" viewBox="0 0 1610.999 580.652"><path d="M613.168 352.763H408.641a5 5 0 0 1 0-10h204.527a5 5 0 0 1 0 10zm586.859-96.611h-194.249a5 5 0 0 1 0-10h194.249a5 5 0 0 1 0 10z" fill="#9b3c82"/><path d="M1199 5h406.999v338.652H1199z" fill="#ffcf2d"/><path d="M1606 348.652h-407a5 5 0 0 1-5-5V5a5 5 0 0 1 5-5h407a5 5 0 0 1 5 5v338.652a5 5 0 0 1-5 5zm-402-10h397V10h-397z" fill="#ffcf2d"/><path d="m1401.64 214.452-49.454-67.943a1.639 1.639 0 0 1 1.321-2.6l29.225-.063a5.6 5.6 0 0 1 4.538 2.3l15.936 21.894a2.286 2.286 0 0 0 3.6.121l34.529-41.274a6.506 6.506 0 0 1 5.012-2.331l29.911.1a1.969 1.969 0 0 1 1.5 3.232l-72.521 86.687a2.286 2.286 0 0 1-3.597-.123z" fill="#f94f46"/><path d="M605 129h406.999v338.652H605z" fill="#ffcf2d"/><path d="M1012 472.652H605a5 5 0 0 1-5-5V129a5 5 0 0 1 5-5h407a5 5 0 0 1 5 5v338.652a5 5 0 0 1-5 5zm-402-10h397V134H610z" fill="#ffcf2d"/><path d="m801.64 342.452-49.454-67.943a1.639 1.639 0 0 1 1.321-2.6l29.225-.063a5.6 5.6 0 0 1 4.538 2.3l15.936 21.894a2.286 2.286 0 0 0 3.6.121l34.529-41.274a6.506 6.506 0 0 1 5.012-2.331l29.911.1a1.969 1.969 0 0 1 1.5 3.232l-72.521 86.687a2.286 2.286 0 0 1-3.597-.123z" fill="#f94f46"/><path d="M5 237h406.999v338.652H5z" fill="#ffcf2d"/><path d="M412 580.652H5a5 5 0 0 1-5-5V237a5 5 0 0 1 5-5h407a5 5 0 0 1 5 5v338.652a5 5 0 0 1-5 5zm-402-10h397V242H10z" fill="#ffcf2d"/><path d="m201.64 450.452-49.454-67.943a1.639 1.639 0 0 1 1.321-2.6l29.225-.063a5.6 5.6 0 0 1 4.538 2.3l15.936 21.894a2.286 2.286 0 0 0 3.6.121l34.529-41.274a6.506 6.506 0 0 1 5.012-2.331l29.911.1a1.969 1.969 0 0 1 1.5 3.232l-72.521 86.687a2.286 2.286 0 0 1-3.597-.123z" fill="#f94f46"/></svg></g><g transform="translate(1275.0 197.0) rotate(0.0 268.5 101.0) scale(0.8988952125878809 0.8977777777777778)"><svg width="597.4" height="225" viewBox="0 0 597.4 225"><path d="M145.8 67.8c-.9 1.7-2 3.4-3.2 5.2-4.2 6.1-10.1 12.2-17.3 17.9-1.3 1-2.7 2.1-4.1 3.1-6.2 4.5-13.3 8.6-21.1 12.2-.6.3-1.2.5-1.8.8-.9.4-1.9.8-2.8 1.2-7.5 3.2-15 5.5-22.2 7.1-1.7.4-3.4.7-5 1-9 1.6-17.5 1.9-24.9 1-2.1-.3-4.1-.6-6-1.1-9.4-2.2-16.3-6.9-19.4-13.8l-7-15.6-5.1-11.5-.7-1.5C-3.1 55.1 19.3 27 55.4 10.9s72-14.1 80.3 4.5l.7 1.5 5.1 11.5 7 15.7c3.1 6.9 1.9 15.2-2.7 23.7z" fill="#ffcf2d"/><g fill="#9b3c82"><path d="M100.1 106.1 88.9 81c7.6-3.5 14.7-7.6 21.1-12.1l11.2 25 4.1-3.1-11.2-25c6.7-5.2 12.5-10.8 17.1-16.7.2-.2.3-.4.5-.7l10.9 24.5c1.2-1.7 2.3-3.4 3.2-5.2l-10.8-24c3.3-5.2 5.5-10.4 6.4-15.3l-5.1-11.5c2.3 8.3-.8 18.5-9.1 29.2-9.5 12.2-24.5 23.3-42.2 31.2S49 89 33.6 87.9c-13.3-.9-23-5.4-27.7-12.6L11 86.8c4.3 2.5 9.6 4.3 15.7 5.4l10.8 24.1c1.9.4 3.9.8 6 1.1l-11-24.6c.3 0 .5 0 .8.1 1.8.1 3.7.2 5.5.2 5.8 0 12-.6 18.3-1.8l11.2 25 5-1-11.2-25c7.3-1.7 14.8-4.1 22.1-7.2l11.2 25.1z"/><path d="M100.3 16.2c-.9-1-2.5-1.2-3.5-.2l-7.2 6.3c-1-1-2-2-3.1-2.8-.9-.7-2.2-.7-3.1.1L42.9 52.8l-.5.5c-.8 1.1-.5 2.7.7 3.5.2.2 1.7 1.2 4 2.4l-6.8 5.9c-.5.5-.9 1.2-.9 1.9 0 1.4 1.1 2.5 2.5 2.5.6 0 1.2-.2 1.6-.6l8.3-7.2c4.5 2 10.1 3.9 15.4 3.9 3.8.1 7.5-1.1 10.5-3.5 2.6-2 4.1-5.1 4-8.4-.1-3.7-2.2-7.4-4.8-10.4 2.8.5 5.8.4 8.6-.3 3.5-1 6.5-3.4 8.2-6.6 1.2-2.1 1.8-5.5-1.1-10.1l7.4-6.4c1.1-1.1 1.2-2.7.3-3.7zm-25.8 42c-6.5 5.3-18.9.1-25.8-3.8l17.6-14.5c3.6 2.8 10.2 8.9 10.4 13.9.1 1.8-.8 3.4-2.2 4.4zm14.8-24.4c-4 7.2-13.7 4.4-18.5 2.4l14.1-11.6c2.6 2.5 5.9 6.6 4.4 9.2z"/><path d="M130.6 16.9c-3.7-8.1-13.5-12.8-27.8-13C89.2 3.8 72.9 7.6 57 14.6 23.2 29.8 2.4 54.5 9.7 71c3.9 8.6 14.6 13 28.9 13 12.9 0 28.6-3.5 44.6-10.7 33.9-15.2 54.7-40 47.4-56.4zM81.2 68.7c-30.3 13.5-60.9 13.7-66.9.2-6-13.4 14.5-36.2 44.8-49.7C73.9 12.6 89 8.9 101.8 8.9h1c6 .1 11.2 1 15.1 2.8 4 1.7 6.8 4.2 8.2 7.2 5.9 13.5-14.6 36.2-44.9 49.8z"/></g><path d="M361.6 172.6c-.9 1.7-2 3.4-3.2 5.1-4.2 6.1-10.1 12.2-17.4 17.9-1.3 1-2.7 2.1-4.1 3.1-6.2 4.5-13.3 8.6-21.1 12.2-.6.3-1.2.5-1.8.8-.9.4-1.9.8-2.8 1.2-7.5 3.2-15 5.5-22.2 7.2-1.7.4-3.4.7-5 1-9 1.6-17.5 1.9-24.9 1-2.1-.2-4.1-.6-6-1.1-9.4-2.2-16.4-6.9-19.5-13.9l-7-15.6-5.2-11.5-.7-1.5c-8.3-18.6 14.1-46.8 50.2-62.9 36-16.1 72-14.1 80.3 4.6l.7 1.5 5.2 11.5 7 15.7c3.3 7 2.1 15.2-2.5 23.7z" fill="#ffcf2d"/><path d="M361.6 172.6c-.9 1.7-2 3.4-3.2 5.1l-10.9-24.5c-.2.2-.3.4-.5.7-4.6 5.9-10.4 11.5-17.1 16.7l11.2 25-4.1 3.1-11.2-25c-6.4 4.5-13.5 8.6-21.1 12.1l11.2 25.1-4.6 2-11.2-25.1c-7.4 3.1-14.8 5.5-22.1 7.2l11.2 25-5 1-11.2-25c-6.3 1.2-12.5 1.8-18.3 1.8-1.9 0-3.7-.1-5.5-.2-.3 0-.5 0-.8-.1l10.9 24.5c-2.1-.2-4.1-.6-6-1.1L242.5 197c-6.1-1-11.4-2.8-15.7-5.4l-5.2-11.5c4.6 7.3 14.4 11.8 27.8 12.7 15.4 1.1 33.7-2.7 51.4-10.6s32.7-19 42.2-31.2c8.3-10.6 11.4-20.9 9.1-29.2l5.2 11.5c-1 4.9-3.1 10.1-6.4 15.3z" fill="#9b3c82"/><path d="m321.3 147.8-11 .4c-3.7-7.5-10.3-16.7-19.6-16.7h-.1c-3.3-.1-6.4 1.4-8.4 4-2.2 3-2.9 7.1-2.9 11.1-1.9-2.2-4.2-4-6.9-5.2-3.4-1.5-7.2-1.5-10.5 0-2.2.9-4.9 3.1-5.5 8.5l-9.8.3c-1.4 0-2.5 1.2-2.5 2.5 0 1.4 1.2 2.5 2.5 2.5h.1l9.6-.3c.1 1.4.3 2.8.6 4.2.3 1.1 1.3 1.9 2.4 1.9l52.4-.3c.2 0 .5 0 .7-.1 1.3-.4 2.1-1.8 1.7-3.1-.1-.3-.6-2-1.6-4.4l9-.3c1.4 0 2.5-1.2 2.4-2.6-.1-1.3-1.2-2.4-2.6-2.4zm-60 8.2c-.5-3.3-.6-8.8 2.3-9.9 1.1-.5 2.2-.7 3.4-.7 3 0 5.9 1.7 8.7 5 1.4 1.7 2.7 3.6 3.7 5.5zm24-.1c-1-4.4-2.3-13.4.7-17.3 1.1-1.4 2.7-2.1 4.5-2h.1c8.3 0 14.7 11.9 17.5 19.2z" fill="#9b3c82"/><path d="M346.4 121.8c-7.3-16.4-39.6-17.4-73.5-2.3-33.9 15.2-54.7 39.9-47.3 56.3 3.9 8.6 14.6 13 28.9 13 12.9 0 28.6-3.6 44.6-10.7 29.3-13.1 48.8-33.4 48.8-49.2 0-2.6-.5-4.9-1.5-7.1zM297 173.5c-30.3 13.5-60.9 13.6-66.9.2s14.5-36.2 44.8-49.7c15.2-6.8 30.6-10.2 42.8-10.2 12.1 0 21.1 3.3 24.1 10 6 13.4-14.5 36.2-44.8 49.7z" fill="#9b3c82"/><path d="m592.3 91.2-.8 1.4-6.4 10.8-8.8 14.7c-3.9 6.5-11.3 10.3-20.9 11.5-1.9.2-4 .3-6 .4-7.4 0-15.8-1.3-24.6-3.9-1.6-.5-3.2-1-4.9-1.6-7.3-2.5-14.7-5.9-22.1-10.2-.6-.3-1.1-.7-1.7-1-.9-.5-1.7-1-2.6-1.6-6.9-4.3-13.2-9.1-18.6-14-1.3-1.2-2.5-2.3-3.7-3.5-6.5-6.5-11.7-13.2-15.2-19.8-1-1.8-1.8-3.7-2.6-5.5-3.6-9-3.8-17.3.1-23.9l8.8-14.7 6.4-10.8.9-1.4C480 .6 516 2.7 549.9 22.9c33.8 20.2 52.8 50.8 42.4 68.3z" fill="#ffcf2d"/><path d="m591.5 92.6-6.4 10.8c-4.6 2-10 3.2-16.2 3.5l-13.5 22.7c-1.9.2-4 .3-6 .4l13.7-23h-.8c-7.5-.4-15.4-1.9-23.5-4.4l-14 23.5c-1.6-.5-3.2-1-4.9-1.6l14-23.5c-7.4-2.6-14.8-6.1-22.1-10.3l-14.1 23.6-.2.4-4.3-2.5.2-.4 14.1-23.6c-6.8-4.2-13.1-8.9-18.6-13.9l-14 23.6-3.7-3.5 14-23.5c-6-5.9-11.2-12.2-15-18.6-.1-.2-.3-.5-.4-.7l-13.7 23c-1-1.8-1.8-3.7-2.6-5.5L467 46.4c-2.7-5.6-4.2-10.9-4.6-15.9l6.4-10.8c-7.3 17.8 11.6 46.6 43.9 65.9 16.7 9.9 34.4 15.8 49.8 16.5 13.3.5 23.5-2.8 29-9.5z" fill="#9b3c82"/><path d="m552.4 82.4-6.6-8.8c4-7.4 7.8-18.1 2.2-25.8-1.8-2.8-4.8-4.5-8.1-4.6-3.7-.1-7.5 1.7-10.8 4 .7-2.8.8-5.7.3-8.6-.7-3.6-2.9-6.7-6-8.6-2-1.3-5.4-2.2-10.2.4l-5.9-7.8c-.8-1.1-2.4-1.3-3.5-.5s-1.3 2.4-.5 3.5l5.8 7.7c-1.1.9-2.1 1.9-3 2.9-.8.9-.8 2.2-.2 3.1L536.3 82c.5.6 1.2 1 2 1h.1c.8 0 1.5-.3 2-1 .2-.2 1.3-1.6 2.7-3.8l5.4 7.2c.5.6 1.2 1 2 1 .5 0 1.1-.2 1.5-.5 1-.8 1.2-2.4.4-3.5zm-30.7-29.5-10.6-14.8c2.7-2.5 7-5.4 9.5-3.8 6.9 4.4 3.4 13.9 1.1 18.6zm16.6 23.3-13.2-18.6c3-3.3 9.4-9.4 14.4-9.4h.2c1.7.1 3.3 1 4.2 2.5 4.9 6.8-1.2 18.9-5.6 25.5z" fill="#9b3c82"/><path d="M547.7 26.5c-31.9-19-64.1-21.8-73.3-6.3s8.6 42.5 40.5 61.5c18 10.8 36.2 16.3 50.2 16.3 10.8 0 19.1-3.3 23.1-10 9.2-15.5-8.6-42.5-40.5-61.5zm36.2 58.9c-7.5 12.6-37.9 8.9-66.5-8.1-28.5-17-46.2-42-38.7-54.6 3-5.1 9.7-7.5 18.5-7.5 13.1 0 30.9 5.4 47.9 15.6 28.6 17 46.3 42 38.8 54.6z" fill="#9b3c82"/></svg></g><g transform="translate(537.0 278.0) rotate(0.0 692.5 862.0) scale(0.8959182353321689 0.8963294166580014)"><svg width="1545.9" height="1923.4" viewBox="0 0 1545.9 1923.4"><path d="M543.2 324c-6.2 11.3-16.4 21.6-16.4 21.6l49.2 372s279.6-3.1 437.8-58.6c0 0-168.6-424.5-320.7-336.1z" fill="#66b0f0"/><path d="M666.4 7c-13.1-2.2-26.4 2-35.8 11.2-24.4-36-74.9-13-72.8 19.4-44.9-16.7-77.1 37.7-52 66.4 9.2 10.5 26.1 33.3 26.9 55.7 20.2 2.7 66.7 36 66.7 36S653.5 95.4 681.1 77c34.4-23 13.1-64.6-14.7-70z" fill="#5b2448"/><path d="M615 42.8c0 1.4 1.1 2.5 2.5 2.5s2.5-1.1 2.5-2.5c.2-11.9 6.5-20.7 12.1-26.1-.5.5-1 .9-1.5 1.4-1-1.4-2-2.8-3-4-6.1 6.2-12.4 15.7-12.6 28.7z" fill="#9b3c82"/><path d="M748.6 187.8c4.5 10.6 2.4 23.9-6.9 34.1-24.3 26.6-66.5 30.5-66.5 30.5s6.6 36.6 18 70.6c-.3 17.6-2.4 35.2-6.2 52.4-39.1 0-110-18.5-143.9-51.4 0 0 18.5-32.9 22.9-90.5-22 4.1-61.9-7.1-66.1-37.4-2.4-17.2 10.5-36.2 28.9-36.9 17.9-.7 27.4 7 45.4 17 16.7 9.3 17.8.6 20.6-18.2 2.4-15 7.6-29.4 15.4-42.5C623.6 93.7 657.6 82.1 681 77c5.7 17.2 12.4 33.9 20.3 50.2 13.8 28.5 36.9 35.8 47.3 60.6z" fill="#f4ada2"/><path d="m612.4 132.3-.5-1.8c-.1-.6-.3-1.1-.4-1.6-.2-1.1-.3-2.2-.4-3.3-.1-2.2.1-4.4.5-6.6.9-4.5 2.8-8.8 5.7-12.5 1.5-1.9 3.2-3.7 5.2-5.1 2-1.5 4.2-2.6 6.5-3.5 2.3-.8 4.7-1.2 7.1-1.2s4.7.4 6.9 1.4c2.8 1.2 4.1 4.5 2.8 7.3-.2.5-.5 1-.9 1.4l-.7.8c-1.4 1.5-2.6 2.6-3.6 3.7-1.1 1-2 2-2.8 2.9-1.7 1.8-3.1 3.4-4.8 5.1-1.6 1.8-3.2 3.8-5 6.1l-2.8 3.7c-.5.6-1 1.3-1.5 2-1.2 1.6-2.7 2.9-4.5 3.7-.9.4-2 .6-3 .5-1.4-.1-2.6-1-3.3-2.2-.3-.3-.4-.5-.5-.8zm13.6 11.9c4.6-2.7 15.7-8.8 24.9-18 1.3-1.3 3.4-1.3 4.6 0 3.3 3.3 7.7 9.7.6 15.1-8.7 6.7-25.5 8.8-30.3 5.7-.8-.5-1-1.6-.4-2.3.2-.2.4-.4.6-.5zm64.1-31.9c-4.8 2.3-8.6 3.1-18.1 5-1.8.3-3 2.1-2.6 3.8.9 4.6 4.5 8.4 11.9 6.8 8.2-1.7 11.3-9.2 11.2-14.1 0-.9-.8-1.7-1.7-1.7-.2 0-.5.1-.7.2z" fill="#5b2448"/><path d="M582.5 231.8c1.2-.8 1.5-2.3.7-3.5s-2.3-1.5-3.5-.7c-4.2 2.8-8.8 4.8-13.7 6-.1 1.8-.3 3.5-.4 5.2 6-1.3 11.7-3.6 16.9-7-.1 0-.1 0 0 0z" fill="#9b3c82"/><path d="M664 84.6c-1.3 1.7-2.3 3.6-2.9 5.7-.7 2.7.9 5.4 3.6 6.1.5.1 1 .2 1.5.1l.9-.1c1.8-.1 3.3-.4 4.6-.5 1.3-.2 2.5-.3 3.7-.4 2.2-.2 4.1-.4 6.3-.5 1.7-.1 3.6-.1 5.7-.1C685.1 89 683 83 681 77c-3.6.8-7.4 1.7-11.3 2.8-.3.2-.6.3-.9.5-1.8 1.2-3.4 2.6-4.8 4.3zm-34.3 159.2c-4.2 4.8 6.5 40.5 51.6 39.2h.6c-4.3-17.6-6.6-30.6-6.6-30.6-.1-.1-28 .5-45.6-8.6z" fill="#5b2448"/><circle cx="628" cy="184.7" fill="#e57281" opacity=".52" r="22"/><path d="M701 175.6c-.8 1.9-1.9 3.6-3.4 5.1-1.4 1.4-3.1 2.5-4.9 3.4-3.6 1.8-7.7 2.6-11.8 2.2-2-.3-4-.8-5.9-1.6s-3.6-1.9-5.1-3.3c-3.1-2.7-5.1-6.4-5.7-10.4-.1-1.2.7-2.3 2-2.5 1-.1 1.9.4 2.3 1.3l.1.1c1.8 3.9 5.1 7 9.2 8.5 1.3.5 2.7.9 4.1 1 2.8.3 5.7-.1 8.3-1.1 2.7-.9 5.1-2.6 7-4.7l.1-.1c.8-1 2.2-1.1 3.2-.3.5.4.8 1.5.5 2.4zM567 205c-.8 0-1.6-.4-2-1-17.6-24.7-39.9-15.8-40.8-15.4-1.3.5-2.7-.1-3.3-1.4-.5-1.3.1-2.7 1.3-3.2.3-.1 26.8-10.9 46.8 17.1.8 1.1.5 2.7-.6 3.5-.3.3-.8.4-1.4.4z" fill="#9b3c82"/><path d="M687.3 153.2c-1.1 0-2-.9-2-2 0-.4.1-.9.4-1.2 3-4 4.3-6.8 3.9-8.7-.4-2.1-3.2-3.7-7.6-6-12.3-6.6-12.4-14.3-12.4-14.7 0-1.1.9-2 2-2s2 .9 2 2c0 .2.4 5.8 10.3 11.1 4.7 2.5 8.8 4.7 9.6 8.7.7 3.1-.7 6.8-4.6 12-.3.5-.9.8-1.6.8zM343.8 1706.3c-54.5-32.9-90.9-88.8-101.8-142.9-10.3-51.4-22.9-157-82.2-134.6-54.5 20.6-31.9 183 184 277.5z" fill="#5b2448"/><path d="M343.8 1706.4c-14.8 7.9-28.6 15-41.1 21.2-36.2 17.9-60.6 28.2-60.6 28.2s-155.2-10.3-128.5-64.8c20.1-20.8 49.4-46.4 78.2-70.3 3.4-2.9 6.9-5.7 10.3-8.5l11.1-9c11.5-9.3 22.5-18 32.3-25.7 15.5-12.2 28-21.7 34.9-27 3.8-2.9 5.9-4.5 5.9-4.5l14.9 41.6z" fill="#f4ada2"/><path d="M1393.1 1399c-42.1 8.2-124 .4-177.9-34.9-53.4-35-105-61.9-123-29.6-19.7 35.8 67.6 145.7 300.9 64.5z" fill="#5b2448"/><path d="M1393.1 1399c-3.3 14.7-7.3 30-11.4 44.9-.1.4-.2.8-.3 1.1-13.6 48.6-28.9 92.4-29.4 93.8s-.1 0-.2 0h-.6c-11.7.3-138.9 2.8-129.2-41 0-.2-3-6.8-3-7 3.5-15.4 6.6-32.6 9.3-49.8.7-4.3 1.3-8.7 2-13 .6-3.9 1.1-7.7 1.6-11.5.2-1.1.3-2.2.4-3.3 1.8-13.2 3.2-25.9 4.3-37.2 1.4-13.8 2.2-25.6 2.4-33.6v-.7c.1-2.7.1-5.3-.1-8-3.4-41.3 152.2 64 154.2 65.3z" fill="#f4ada2"/><path d="M1393.1 1399c-65.5 22.8-119.5 30.5-162.9 29.1.6-3.9 1.1-7.7 1.6-11.5.2-1.1.3-2.2.4-3.3 1.8-13.2 3.2-25.9 4.3-37.2 52.5 25.1 119.8 30.1 156.6 22.9zM343.8 1706.4c-62.5-27.4-108.8-60.5-141.8-94.2l11.1-9c11.5-9.3 22.5-18 32.3-25.7 13.8 49.5 48.6 98.8 98.4 128.9z" fill="#9b3c82"/><path d="M1381.4 1445c-13.6 48.6-28.9 92.4-29.4 93.8s-.1 0-.2 0h-.6c-11.7.3-138.9 2.8-129.2-41 0-.2-3-6.8-3-7 3.5-15.4 6.6-32.6 9.3-49.8zM302.7 1727.5c-36.2 17.9-60.6 28.2-60.6 28.2s-155.2-10.3-128.5-64.8c20.1-20.8 49.4-46.4 78.2-70.3l109.9 105.2z" fill="#66b0f0"/><path d="m280.7 1738.2-111.2-98.8c-2.6 2.2-5.1 4.4-7.6 6.6l109 96.9c3-1.5 6.3-3.1 9.8-4.7zm1094.5-271.6-150.7-3.1c-.6 3.4-1.2 6.7-1.9 10l149.6 3.1c1-3.3 2-6.7 3-10zm-156.2 24.2s-28.2 124.2-40.9 194.1c0 0 216.8 8.8 293.9 2.4 41.8-3.5 61.9-19.2 71.5-30.5l-.1-.1c0-.1-.1-.2-.1-.3-2.2-5.3-25.7-57.7-101.6-95.9-11.8-6-49.9-22.6-93.7-27.8-30-3.6-55.5-2.2-74.7-8.6-24.4-8.1-40.6-33.8-54.3-33.3z" fill="#fff"/><path d="M1220 1488.8c21.3 5.1 29.4 25.3 55.4 34.8 16.9 6.2 64.9 2.6 99.8 12.1 1.3.3 2.5.7 3.8 1 .3.1.7.2 1 .3 7.4 2.1 14.5 4.3 21.2 6.6 1.4.5 2.7.9 4 1.4l5.7 2.1c1.5.6 2.9 1.1 4.3 1.7 1.2.5 2.4.9 3.5 1.4.7.3 1.4.6 2.2.9 1.7.7 3.4 1.4 5.1 2.2h.1c.6.3 1.2.5 1.8.8 1.9.9 3.9 1.7 5.8 2.6l1.2.6c2.3 1.1 4.5 2.2 6.7 3.3l6.3 3.3c.8.4 1.6.8 2.3 1.3l6.9 3.9 1.6.9c.5.3 1 .6 1.6.9 1 .6 2 1.2 2.9 1.8 1 .6 2.1 1.3 3.1 1.9l1.5.9c3.4 2.2 6.7 4.4 9.8 6.6 1.3 1 2.6 1.9 3.9 2.9.9.6 1.7 1.3 2.5 1.9.4.3.8.6 1.3 1 1.3 1 2.6 2 3.9 3.1.3.3.6.5.9.7 2 1.6 3.9 3.2 5.7 4.8.4.3.7.6 1.1.9l2.1 1.8c.4.3.8.7 1.1 1 .7.6 1.4 1.3 2 1.9.3.3.7.6 1 .9s.7.6 1 .9.7.6 1 .9c1 .9 1.9 1.9 2.8 2.8l.9.9.9.9 1.8 1.8.9.9c.6.6 1.1 1.2 1.7 1.8s1.1 1.2 1.6 1.8 1.1 1.2 1.6 1.8c.3.3.6.6.8 1 1 1.1 1.9 2.2 2.8 3.3.5.6.9 1.1 1.4 1.7s.9 1.1 1.3 1.7.9 1.1 1.3 1.6c3.9 5 7.1 9.6 9.6 13.6l.6.9c-66.6 47-133.5 21.8-171.9 5.7-33.1-13.9-42.2 4.4-69.2-4.4-22.6-7.3-26.6-26.2-55.3-29.7-26.9-3.3-50.6 13.9-50.6 13.9s10.9-63 31.9-138z" fill="#5b2448"/><path d="M1200.9 1591.1c-1.2 0-2.3-.1-3.5-.2-1.6-.3-2.7-1.9-2.4-3.5s1.9-2.7 3.5-2.4c.3 0 15.5 2.4 35.8-14.8 1.8-1.5 3.4-2.9 5-4.3 14.8-12.8 23.8-20.6 53.2-21.6 1.7-.1 3 1.2 3.1 2.9s-1.2 3-2.9 3.1c-27.3.9-34.7 7.3-49.5 20.1-1.6 1.4-3.3 2.8-5 4.3-17.1 14.5-31.1 16.4-37.3 16.4z" fill="#fff"/><path d="M1453.5 1670.2c-36.6 0-68.5-13.5-89.8-22.4-17.5-7.4-28.3-5.5-38.8-3.7-9 1.5-18.3 3.1-31.1-1-10-3.2-16.7-8.5-23.1-13.6-8.5-6.8-16.5-13.1-32.3-15-25.5-3.1-47.3 12.7-47.6 12.9-1.1.8-2.7.6-3.5-.6-.8-1.1-.6-2.6.5-3.5.9-.7 23.6-17.2 51.1-13.8 17.2 2.1 26.1 9.2 34.8 16.1 6.3 5 12.3 9.8 21.5 12.8 11.6 3.8 19.9 2.3 28.7.8 11.2-1.9 22.8-3.9 41.6 4 17.5 7.4 44 18.5 73.8 21.4 34.5 3.3 65.2-5 94-25.4 1.2-.8 2.7-.4 3.5.7.8 1.2.4 2.7-.7 3.5-28.2 20-56.6 26.8-82.6 26.8z" fill="#5b2448"/><path d="M1234.8 1676c-18.5 0-33-8.9-33-20.4s14.5-20.4 33-20.4 33 8.9 33 20.4-14.5 20.4-33 20.4zm0-35.7c-15.2 0-28 7-28 15.4s12.8 15.4 28 15.4 28-7 28-15.4-12.9-15.4-28-15.4z" fill="#6d2a53"/><path d="M1357.4 1692.8c-86.2 0-180.3-2.6-181.7-2.6s-2.5-1.2-2.4-2.6v-.4c12.6-69.3 43.5-195.2 43.8-196.4.3-1.3 1.7-2.2 3-1.8 1.3.3 2.2 1.7 1.8 3-.3 1.2-30.3 123.6-43.2 193.3 26.3.7 221.7 5.6 293-.3 21.5-1.8 50.8-8.2 68.8-28.5-4.1-9.1-28.4-57.6-100-93.6-.7-.3-1.5-.7-2.3-1.2-12.6-6.4-42.2-21.5-91.5-25.3-1.4-.1-2.4-1.3-2.4-2.6.1-1.4 1.3-2.4 2.6-2.4h.1c50.2 3.9 80.4 19.3 93.4 25.9.8.4 1.6.8 2.3 1.1 75.8 38.2 100 90.5 102.7 97 0 0 0 .1.1.1.1.1.1.3.1.4l.1.2c.3.9.2 1.8-.4 2.5-19 22.5-50.3 29.5-73.2 31.4-26.3 2.1-69.4 2.8-114.7 2.8z" fill="#5b2448"/><path d="M1339.4 1602.5c-4.1 0-7.5-3.4-7.5-7.5 0-1.2.3-2.3.8-3.4.9-1.7 21.8-42 71.2-53.6 4-.9 8.1 1.6 9 5.6s-1.6 8.1-5.6 9c-42.5 9.9-61.1 45.4-61.3 45.8-1.1 2.5-3.7 4.1-6.6 4.1zm34 13.1c-4.1 0-7.5-3.4-7.5-7.5 0-1.2.3-2.3.8-3.4.9-1.7 21.5-41.3 70.4-52.7 4-1 8.1 1.5 9.1 5.5s-1.5 8.1-5.5 9.1h-.1c-41.9 9.7-60.2 44.6-60.4 44.9-1.4 2.5-3.9 4.1-6.8 4.1zm39.3 10.4c-4.1 0-7.5-3.4-7.5-7.5 0-1.2.3-2.4.9-3.5.8-1.5 19.7-35.8 64.3-45.6 4-.9 8 1.7 8.9 5.7s-1.7 8-5.7 8.9c-37.6 8.3-54.1 37.8-54.3 38.1-1.4 2.4-3.9 3.9-6.6 3.9z" fill="#ffcf2d"/><path d="M129 1675.5s-87.4 77.1-123.5 156.9c0 0 205.5 69.6 281.3 85.2 41.1 8.5 64.8-.9 77.2-9.1v-.4c-.6-5.7-8.4-62.6-70.4-120.6-9.7-9-41.5-35.7-82-53-27.8-11.9-43.7-11.3-58.8-24.9-12.4-11.1-8.4-19.7-23.8-34.1z" fill="#fff"/><path d="M130 1674.5c12.3 9.2 10.3 22.6 24.7 36 13.2 12.2 51.2 15.4 82 34.3 1.1.7 2.2 1.4 3.3 2l.9.6c6.5 4.1 12.7 8.2 18.5 12.3 1.2.8 2.3 1.7 3.5 2.5 1.6 1.2 3.3 2.4 4.8 3.6 1.2.9 2.5 1.9 3.7 2.8 1 .8 2 1.6 3 2.3l1.8 1.5c1.5 1.2 2.9 2.4 4.3 3.5 0 0 .1 0 .1.1l1.5 1.2c1.6 1.4 3.2 2.8 4.8 4.1.3.3.7.6 1 .9 1.9 1.7 3.7 3.4 5.5 5 1.7 1.6 3.5 3.3 5.1 4.9.6.6 1.3 1.2 1.9 1.9 1.9 1.9 3.7 3.8 5.5 5.6l1.2 1.3c.4.4.8.9 1.2 1.3.8.8 1.6 1.7 2.3 2.5l2.4 2.7c.4.4.8.9 1.1 1.3 2.7 3.1 5.2 6.1 7.5 9.1l3 3.9c.7.8 1.3 1.7 1.9 2.5.3.4.6.8.9 1.3 1 1.4 2 2.7 2.9 4 .2.3.4.6.7 1 1.4 2.1 2.8 4.1 4.1 6.2.3.4.5.8.8 1.2.5.8 1 1.6 1.5 2.3.3.4.5.9.8 1.3.5.8 1 1.6 1.4 2.4.2.4.5.8.7 1.2s.5.8.7 1.2.5.8.7 1.2c.7 1.2 1.3 2.3 1.9 3.5l.6 1.1c.2.4.4.8.6 1.1.4.8.8 1.5 1.2 2.2.2.4.4.7.6 1.1.4.7.7 1.5 1.1 2.2l1.1 2.2c.4.7.7 1.4 1 2.1.2.4.4.8.5 1.2.6 1.4 1.2 2.7 1.8 4 .3.7.6 1.3.9 2s.5 1.3.8 2 .5 1.3.8 1.9c2.3 5.9 4.1 11.2 5.4 15.7.1.4.2.7.3 1.1-77.2 26.3-134.3-16.7-166.6-43-27.8-22.7-41.7-7.7-65.2-23.7-19.6-13.3-18.1-32.6-44.7-44.1-24.9-10.7-48.4 0-48.4 0s44.2-64.5 94.6-105.6z" fill="#5b2448"/><path d="M65.5 1750.4c-9.4 0-14.6-2.6-15-2.8-1.5-.8-2.1-2.6-1.3-4 .8-1.5 2.6-2.1 4-1.3.2.1 14.2 6.7 38.6-4.1 2.1-.9 4.1-1.8 6-2.7 17.8-8.1 28.6-13 57.1-5.7 1.6.4 2.6 2 2.2 3.7-.4 1.6-2 2.6-3.7 2.2-26.4-6.8-35.3-2.7-53.1 5.4-1.9.9-3.9 1.8-6.1 2.7-11.8 5-21.5 6.6-28.7 6.6z" fill="#fff"/><path d="M313.3 1901.7c-54.8 0-95.1-32.9-119.2-52.6-14.7-12-25.6-13.3-36.2-14.5-9.1-1.1-18.4-2.2-29.6-9.7-8.7-5.9-13.6-12.9-18.3-19.6-6.2-8.9-12.1-17.2-26.7-23.5-23.5-10.1-46.1.2-46.3.3-1.3.6-2.7 0-3.3-1.2-.6-1.3 0-2.7 1.2-3.3 1-.5 24.8-11.4 50.4-.4 15.9 6.9 22.5 16.2 28.8 25.3 4.6 6.6 9 12.9 17 18.3 10.1 6.9 18.5 7.9 27.3 8.9 11.3 1.3 23 2.7 38.8 15.6 14.7 12 37 30.2 64.8 41.3 32.1 12.8 64 13.6 97.4 2.2 1.3-.4 2.7.3 3.1 1.6s-.3 2.7-1.6 3.1c-15.3 5.4-31.4 8.1-47.6 8.2z" fill="#5b2448"/><path d="M76.7 1841.9c-4.9 0-9.7-.8-14.3-2.1-17.8-5.2-29.1-17.9-25.9-28.8 1.6-5.5 6.6-9.5 13.9-11.3 6.9-1.7 15.2-1.3 23.5 1.1 17.8 5.2 29.1 17.9 25.9 28.8-1.6 5.5-6.6 9.5-13.9 11.3-3 .7-6.1 1-9.2 1zm-17.2-38.4c-2.7 0-5.3.3-7.9.9-5.6 1.4-9.3 4.2-10.3 7.9-2.3 8 8 18.4 22.5 22.6 7.4 2.2 14.8 2.5 20.9 1 5.6-1.4 9.3-4.2 10.3-7.9 2.3-8-8-18.4-22.5-22.6-4.2-1.2-8.6-1.8-13-1.9z" fill="#6d2a53"/><path d="M317.1 1923.3c-10.4-.1-20.7-1.2-30.8-3.3-75-15.4-282.4-82.7-284.5-83.3-1.3-.4-2-1.8-1.6-3.1 0-.1.1-.2.1-.3 41.4-85.8 125.7-158.4 126.6-159.1 1.1-.9 2.7-.7 3.5.4.8 1 .7 2.5-.3 3.4-.8.7-82.7 71.2-124.1 154.9 24.9 8 211.2 67.9 281.2 82.3 21.2 4.4 51 6.4 74-7.9-1.3-9.9-11-63.3-69.5-118-.6-.5-1.2-1.1-1.9-1.8-10.3-9.7-34.4-32.6-80.6-50.1-1.3-.5-1.9-1.9-1.5-3.2.5-1.3 1.9-1.9 3.2-1.5 47.1 17.9 71.7 41.2 82.3 51.1.7.6 1.3 1.2 1.8 1.7 62 58 70.4 115 71.2 122v.6c.1.9-.3 1.8-1.1 2.3-14.5 9.8-31.7 12.9-48 12.9z" fill="#5b2448"/><path d="M185.7 1799.1c-4.1 0-7.5-3.4-7.5-7.5 0-1.9.7-3.7 2-5.1s32.7-34.2 83.4-31.3c4.1.2 7.3 3.8 7.1 7.9s-3.8 7.3-7.9 7.1c-43.5-2.5-71.4 26.4-71.7 26.6-1.4 1.4-3.4 2.3-5.4 2.3zm28.9 22.1c-4.1 0-7.5-3.4-7.5-7.5 0-1.9.7-3.8 2-5.1 1.3-1.4 32.3-33.6 82.4-30.7 4.1.3 7.3 3.8 7 8-.3 4.1-3.8 7.2-7.9 7-43.2-2.5-70.3 25.8-70.6 26-1.3 1.5-3.3 2.3-5.4 2.3zm34.7 21.1c-4.1 0-7.5-3.4-7.5-7.5 0-2 .8-3.9 2.2-5.3 1.2-1.2 29-28.8 74.5-25.6 4.1.3 7.2 3.9 7 8s-3.9 7.2-8 7c-38.8-2.7-62.6 21-62.8 21.2-1.5 1.4-3.4 2.2-5.4 2.2z" fill="#ffcf2d"/><path d="M973.3 798.3c100.2 21.1 272.7 56.5 377.7 185.5 116.5 143.1 42.1 415.2 42.1 415.2s-87.7 21.1-158.4-23c-71.8-44.8-123.2-77.7-143.8-38.7 0 0 12.5-24.8 57.6-94.6 52.4-81.2-58.6-169.6-289.8-193.2-23.7 225.2-248.7 528.4-514.9 656.8-57.6-32.9-92.5-93.5-103.8-141.8s-19.5-153.1-80.2-135.7c76.1-42.1 180.4-34.1 275.4-90.4 116.1-68.9 66.9-284.8 94.1-396.3z" fill="#21a0aa"/><path d="M543.6 1254.1c.9-1.2.7-2.7-.4-3.6-1.1-.8-2.7-.6-3.5.5-14.2 18.1-42 42.3-72.5 63.2-2.2 1.5-4.3 2.9-6.4 4.3-7.4 7.5-15.9 14.2-25.4 19.8-8.2 4.8-16.4 9.2-24.7 13.2 43.2-17.3 107.5-65 132.9-97.4zm321.7-281.5c-1.4 0-2.5 1.2-2.4 2.6.1 24.9-1.5 49.6-4.2 74.3 1.7.2 3.3.3 5 .5 2.7-24.9 4.3-49.8 4.2-74.9-.1-1.5-1.2-2.5-2.6-2.5zm307.9 153.8c-1.9-26.9-8.2-43.6-8.5-44.3-.5-1.2-1.9-1.9-3.2-1.4s-2 1.9-1.5 3.2c.2.6 18.6 49.8 1.1 114.3.6 8.9-.6 17.9-3.8 26.9 12.8-31.3 18.2-65 15.9-98.7z" fill="#6ce0dc"/><path d="M576 717.6s-70.1 67.7-99.7 125.4-50.4 117.2-37 123.3c34 15.7 110-123.3 136.7-248.7z" fill="#5b2448"/><path d="M528.8 345.6C496 328.7 399.3 363 338.6 545s-16.4 296 20.6 334c-3 9.5-2.2 19.8 2.1 28.8 7.4 15.8 36 47.3 78.1 58.6C424 950 469.2 816.3 576.1 717.7c45.2-131.6 20.5-337.2-47.3-372.1z" fill="#66b0f0"/><path d="M726.9 347.8c-2.8-3.4-5.6-6.5-8.2-9.2-7.3-7.7-14.1-13.8-20.4-18.4-1.6.8-3.3 1.7-4.9 2.6 6.6 4.4 13.8 10.7 21.4 18.7.1.2.2.4.4.6 15 15 34.9 46.3 39 57.2 3.3 8.8 1.6 10.2 1.6 10.3-.2.1-2 1.3-10.1-2.8-6.3-3.2-14.2-8.3-20.3-12.5 0 0-.1 0-.1-.1-1.2-.8-2.7-.4-3.5.7s-.4 2.7.7 3.5c16.8 11.4 26.3 16.4 32 16.4 1.5.1 3-.4 4.2-1.3 3.3-2.6 2.6-7.9 1.2-12.7 49.7 76 102.8 188.8 125.8 277.8 1.7-.2 3.4-.3 5-.5C874 613.4 839.9 531 799 456.6c-25.3-45.9-50.3-83.4-72.1-108.8zM596.4 477.3c-6.3-35.3-16.1-66.9-28.4-91.4-1.8-3.5-3.6-6.9-5.4-10.1 12.6 12.5 31.7 30.5 62.8 57.5 21.6 18.7 37.3 27.8 48.3 27.8 2.6 0 5.2-.6 7.5-1.8 15.1-8 11.2-40.5 7.3-71.8-.5-4.2-1-8.2-1.4-12.1-1.6 0-3.3 0-5-.1.5 4.1 1 8.4 1.5 12.8 3.3 26.9 7.4 60.3-4.7 66.8-10.7 5.7-33.2-10.7-50.2-25.4-41.8-36.1-61.7-56.3-73.6-68.3-10.1-10.2-15-15.2-22.9-19.6-.4-.2-.7-.4-1.1-.6-1.5 1.7-2.8 3.1-3.5 3.8.8.4 1.6.8 2.3 1.2 26.1 15.7 49.9 66.2 61.7 132.2 13.7 76.9 9.1 161.4-12.7 233.3-31.6-.7-118.3 14.2-163.7 40.4-.8.4-1.3 1.3-1.2 2.2 0 1.4 1.1 2.5 2.5 2.5.4 0 .9-.1 1.2-.3 37.8-21.9 104.7-35.7 143.2-39-36.3 12.4-77.1 33.4-112.4 58.1-45.3 31.7-78.1 66.8-92.9 99.4 1.2 1.4 2.5 2.8 3.7 4 14-32.4 46.6-67.5 92.1-99.3C490.7 751.8 537 729 576 717.7c2.2-.7 4.4-1.3 6.6-1.9 22.8-73.3 27.8-159.8 13.8-238.5z" fill="#b0dcf7"/><path d="M687 375.4c27.8 6.2 42.1 17.6 49.3 26.7 8.2 10.3 6.7 23.1 6.7 23.1s129 170.1 198.9 383.9l-52.2 68c-3.3 4.3-8.7 6.5-14.1 5.7l-86.9-13.1s-23.6-194.2-40.1-265.2-46.2-161.4-46.2-161.4c-11.3-7.2-9.2-14.4-11.3-32.9-1.9-17.4-4.1-34.8-4.1-34.8z" fill="#f94f46"/><path d="M701.5 448.5c-1.3 0-2.7-.1-4-.2-1.4-.2-2.4-1.4-2.2-2.8s1.4-2.4 2.8-2.2h.1c15.6 2 38.5-10.2 47-21.6.8-1.1 2.4-1.3 3.5-.5s1.3 2.4.5 3.5c-8.9 11.7-30.6 23.8-47.7 23.8z" fill="#66b0f0"/><path d="M1162.9 713.5c-2.9 2.1-5.9 4.1-9 6.2-41.5 27.3-102.2 52.4-180.6 78.6-8 2.7-16.2 5.4-24.6 8.1-.5.2-1 .3-1.6.5-3.4 1.1-6.8 2.2-10.3 3.3-4 1.3-8.1 2.6-12.3 4.1-11.5 4-23.5 8.6-36 13.6-11.6 4.6-23.6 9.7-35.9 14.9-.5.2-1 .4-1.4.6-108.7 46.3-244.9 110.4-366.7 97.2-1-.1-2.1-.2-3.1-.4-1.9-.2-3.7-.5-5.6-.7-12.1-1.7-24.1-4.2-35.9-7.6C452 882.1 497.2 790.4 576 717.6c2-.6 4-1.2 6-1.7.2-.1.5-.1.7-.2 69.9-19.7 158.6-26.1 233.7-31.5 26.8-1.9 51.9-3.7 73.8-6 5.5-.6 10.7-1.2 15.8-1.8 42.2-5.2 102.8-23.3 133.6-42.1 33.6-20.5 41.2-12.3 23.6 10.3-39.1 50.4 22.3 18.7 79.1 1 46.2-14.4 26.7 9.2 21.6 13.4 15.4-7.2 40.1-12.3 15.4 17.5 16.5-9.2 19.9 11-16.4 37z" fill="#f4ada2"/><path d="M582.8 715.7c-20.1 20.4-88.9 115-101.5 224.5-1.9-.2-3.7-.5-5.6-.7-12.1-1.7-24.1-4.2-35.9-7.6C452 882.1 497.2 790.4 576 717.6c2-.6 4-1.2 6-1.7.3-.1.5-.2.8-.2z" fill="#9b3c82"/><path d="M973.3 798.3c42.7 8.8 261.6 67.3 384.9-78.6 28.8-20.6 69.9-29.2 44.2-34.9-9.2-2.1-23.6-1-23.6-1s11.3-28.8 15.4-50.4-5.1-21.6-20.6 3.1c4.1-22.6 0-42.1-22.6 0 2.1-24.7-1-38-36 17.5 2.1-17.5 0-26.7-27.8 10.3s-68.9 55.5-68.9 55.5h-64.8z" fill="#f4ada2"/><g fill="#9b3c82"><path d="M1153.7 719.8c-43.1 23.8-87 44.5-180.1 78.6 2.5.5 5.5 1.2 9.1 2 94-34.6 137.6-55.5 182.3-80.6h-10.3zm-61.7-19.1c0 1.4 1.1 2.5 2.5 2.5.3 0 .6-.1.8-.1 21.7-7.8 53.5-22.7 81.9-48.8-4.2.9-9.2 2.7-13.2 4.6-25.2 20.5-51.5 32.7-70.4 39.5-.9.3-1.6 1.2-1.6 2.3zm14.4 23.6c0 1.4 1.1 2.5 2.5 2.5.3 0 .6-.1.9-.2 24.5-9.8 63.9-34.7 78.1-52.1v-.1c-2.1-.6-5 0-8.7 2.1l.1-.1c-15.4 15.3-47.6 36.1-71.4 45.6-.8.4-1.5 1.3-1.5 2.3zm83.2 18.8c-.2.3-.3.7-.3 1.1 0 1.4 1.1 2.5 2.5 2.5.9 0 1.8-.5 2.2-1.4.1-.1 7.4-14.1 24.3-25.5h-8.3c-13.9 11.2-20.1 22.8-20.4 23.3zm97.7-30.1c0 1.4 1.1 2.5 2.5 2.5.8 0 1.6-.4 2-1.1 1-1.4 24.6-34.9 31.1-72.5-2.4 3.6-5.1 7.5-7.9 12-8.7 31.2-27.1 57.4-27.3 57.7-.2.4-.4.9-.4 1.4zm33.9 1c0 1.4 1.1 2.5 2.5 2.5.9 0 1.8-.5 2.2-1.4 11-21.6 28.9-63.6 33-92-2.3 3.5-5.1 8.1-7.9 13.4-6.6 26.4-20.4 58.3-29.5 76.3-.2.4-.3.8-.3 1.2zm24.7 0c0 1.4 1.1 2.5 2.5 2.5.9 0 1.8-.5 2.2-1.3 13.6-25.2 24.7-62.9 30.5-89.4-2.3 2.8-4.8 6.3-7.5 10.6 0 .1-.1.6 0 0-6.1 25-15.6 54.7-27.4 76.4-.2.4-.3.8-.3 1.2zm32.9-30.2c-5.9 12.6-12.8 24.7-20.8 36.1.1-.1.1-.2.2-.2 3.3-2.4 6.8-4.6 10.4-6.7 6-9.5 11.2-19.3 15.8-29.5-3 0-5.2.3-5.6.3z"/></g><path d="m925.6 824-37.2 3.8-14.5 1.5-18.4 1.9c-1.2-12-3.1-24.3-5.3-36.7-.8-4.3-1.7-8.7-2.6-13-7.4-34.6-18.3-68.8-31.3-97.3 26.8-1.9 51.9-3.7 73.8-6 10.1 26 18.2 52.6 24.4 79.8.8 3.6 1.6 7.3 2.4 10.9 2.4 11.2 4.4 22.4 6 33.6.4 2.5.7 4.9 1 7.4.2 1.4.4 2.8.5 4.2.5 3.4.9 6.6 1.2 9.9z" fill="#5b2448"/><ellipse cx="891.6" cy="802.7" fill="#5b2448" rx="60.8" ry="42.4" transform="matrix(.9335 -.3587 .3587 .9335 -228.5911 373.2002)"/><path d="M874.5 758.4c-11 4.2-20.5 10.2-28.1 17.2l1.2 5.7c7.5-7.4 17.2-13.8 28.7-18.2 12.8-4.9 26.1-6.7 38.2-5.3l-1.2-5.1c-12.4-1.2-25.8.7-38.8 5.7z" fill="#fff"/><ellipse cx="894" cy="808.9" fill="#fff" rx="59" ry="36.4" transform="matrix(.9335 -.3587 .3587 .9335 -230.6539 374.479)"/><path d="M895.2 815.3c-1.1 0-2-.7-2.4-1.7l-7.3-21.4c-.4-1.3.3-2.7 1.6-3.2 1.3-.4 2.7.3 3.1 1.5l6.5 19 30.7-11.2c1.3-.5 2.7.2 3.2 1.5s-.2 2.7-1.5 3.2L896 815.1c-.2.1-.5.2-.8.2z" fill="#5b2448"/></svg></g><g transform="translate(1276.0 619.0) rotate(0.0 282.0 152.0) scale(0.8966613672496025 0.8975494537939179)"><svg width="629" height="338.7" viewBox="0 0 629 338.7"><path d="M532.9.5v242.6c-2.2 3.3-4.6 7.4-7.2 12.3 2.1-24.7-1-38-36 17.5 2-17.5 0-26.7-27.8 10.3S393 338.7 393 338.7h-64.5c3.1-2 6.1-4.1 9-6.2 36.3-26 32.9-46.2 16.4-37 24.7-29.8 0-24.7-15.4-17.5 1.4-1.1 2.6-2.4 3.8-3.8 6.3-7.6 12.5-21.3-25.3-9.5-.1 0-.2.1-.4.1-1.7.5-3.3 1-5 1.6-55.2 17.9-111.6 46-73.8-2.7 17.5-22.6 9.9-30.8-23.6-10.3-9.5 5.6-19.5 10.5-29.8 14.6-26.7 10.9-60 20.2-88.4 25.2V.5l.6-.5h435.8z" fill="#ffcf2d"/><path d="M532.9.7V243c-2.2 3.3-4.5 7.4-7.2 12.3 2.1-24.7-1-38-36 17.5 2-17.5 0-26.7-27.8 10.3S393 338.6 393 338.6h-64.5c3.1-2 6.1-4.1 9-6.2 36.3-26 32.9-46.2 16.4-37 24.7-29.8 0-24.7-15.4-17.5 1.4-1.2 2.6-2.4 3.8-3.8C419.5 225.4 472 156.7 502 95.6 520 59 530 25.2 532.4 0z" fill="#ffbd11"/><g fill="#9b3c82"><path d="M317 0v7.8l-.3 257c-1.7.5-3.3 1-5 1.6L312 8.1V0h2.5z"/><path d="m318.1.5-90.4 112H96.1V12.8z"/><path d="M532.9 12.8v99.7H401.3l-89.4-111z"/></g><path d="m314.5 0-.8.8-.8.8-.5.5-.4.4-94.1 93.1H0L96.1.5l.5-.5zM629 95.6H411.1L317 2.5l-.3-.3-.4-.4-1.1-1.1-.7-.7h217.9l.5.5z" fill="#ffcf2d"/></svg></g><g transform="translate(1377.0 349.0) rotate(0.0 168.5 108.5) scale(0.8986666666666666 0.8965719550639789)"><svg width="375" height="242.033" viewBox="0 0 375 242.033"><g fill="#90c6f5"><path d="M81.523 242.034a2.5 2.5 0 0 1-2.377-1.732c-.411-1.269-41.4-127.726-78.882-202.684a2.5 2.5 0 0 1 4.472-2.236c37.65 75.3 78.756 202.111 79.167 203.383a2.5 2.5 0 0 1-2.38 3.269zm18.5-62.694a2.5 2.5 0 0 1-2.4-1.81c-.184-.641-18.683-64.673-35.633-105.2a2.5 2.5 0 0 1 4.61-1.93c17.062 40.8 35.638 105.1 35.824 105.747a2.5 2.5 0 0 1-2.4 3.193zM199.5 227a2.5 2.5 0 0 1-2.5-2.44c-1.146-48.1-9.849-98.628-16.948-132.548a2.5 2.5 0 1 1 4.894-1.024c7.142 34.123 15.9 84.976 17.052 133.452a2.5 2.5 0 0 1-2.438 2.56zm105.054 4.756h-.1a2.5 2.5 0 0 1-2.4-2.593c2.08-55.121 14.875-149.787 38.05-227.377a2.5 2.5 0 0 1 4.796 1.43c-23.052 77.172-35.778 171.318-37.846 226.135a2.5 2.5 0 0 1-2.5 2.405zM347.5 188c-.059 0-.117 0-.177-.006a2.5 2.5 0 0 1-2.32-2.668c3.012-43.165 14.038-105.344 25.1-141.556a2.5 2.5 0 0 1 4.782 1.46c-10.972 35.908-21.908 97.6-24.9 140.444A2.5 2.5 0 0 1 347.5 188z"/></g></svg></g><g transform="translate(537.0 278.0) rotate(0.0 692.5 862.0) translate(975.9136212624585 568.936877076412) scale(0.8959182353321689 0.8963294166580014)"><svg width="60.273" height="32.354" viewBox="1089.289 634.741 60.273 32.354"><path d="M543.2 324c-6.2 11.3-16.4 21.6-16.4 21.6l49.2 372s279.6-3.1 437.8-58.6c0 0-168.6-424.5-320.7-336.1z" fill="#66b0f0"/><path d="M666.4 7c-13.1-2.2-26.4 2-35.8 11.2-24.4-36-74.9-13-72.8 19.4-44.9-16.7-77.1 37.7-52 66.4 9.2 10.5 26.1 33.3 26.9 55.7 20.2 2.7 66.7 36 66.7 36S653.5 95.4 681.1 77c34.4-23 13.1-64.6-14.7-70z" fill="#5b2448"/><path d="M615 42.8c0 1.4 1.1 2.5 2.5 2.5s2.5-1.1 2.5-2.5c.2-11.9 6.5-20.7 12.1-26.1-.5.5-1 .9-1.5 1.4-1-1.4-2-2.8-3-4-6.1 6.2-12.4 15.7-12.6 28.7z" fill="#9b3c82"/><path d="M748.6 187.8c4.5 10.6 2.4 23.9-6.9 34.1-24.3 26.6-66.5 30.5-66.5 30.5s6.6 36.6 18 70.6c-.3 17.6-2.4 35.2-6.2 52.4-39.1 0-110-18.5-143.9-51.4 0 0 18.5-32.9 22.9-90.5-22 4.1-61.9-7.1-66.1-37.4-2.4-17.2 10.5-36.2 28.9-36.9 17.9-.7 27.4 7 45.4 17 16.7 9.3 17.8.6 20.6-18.2 2.4-15 7.6-29.4 15.4-42.5C623.6 93.7 657.6 82.1 681 77c5.7 17.2 12.4 33.9 20.3 50.2 13.8 28.5 36.9 35.8 47.3 60.6z" fill="#f4ada2"/><path d="m612.4 132.3-.5-1.8c-.1-.6-.3-1.1-.4-1.6-.2-1.1-.3-2.2-.4-3.3-.1-2.2.1-4.4.5-6.6.9-4.5 2.8-8.8 5.7-12.5 1.5-1.9 3.2-3.7 5.2-5.1 2-1.5 4.2-2.6 6.5-3.5 2.3-.8 4.7-1.2 7.1-1.2s4.7.4 6.9 1.4c2.8 1.2 4.1 4.5 2.8 7.3-.2.5-.5 1-.9 1.4l-.7.8c-1.4 1.5-2.6 2.6-3.6 3.7-1.1 1-2 2-2.8 2.9-1.7 1.8-3.1 3.4-4.8 5.1-1.6 1.8-3.2 3.8-5 6.1l-2.8 3.7c-.5.6-1 1.3-1.5 2-1.2 1.6-2.7 2.9-4.5 3.7-.9.4-2 .6-3 .5-1.4-.1-2.6-1-3.3-2.2-.3-.3-.4-.5-.5-.8zm13.6 11.9c4.6-2.7 15.7-8.8 24.9-18 1.3-1.3 3.4-1.3 4.6 0 3.3 3.3 7.7 9.7.6 15.1-8.7 6.7-25.5 8.8-30.3 5.7-.8-.5-1-1.6-.4-2.3.2-.2.4-.4.6-.5zm64.1-31.9c-4.8 2.3-8.6 3.1-18.1 5-1.8.3-3 2.1-2.6 3.8.9 4.6 4.5 8.4 11.9 6.8 8.2-1.7 11.3-9.2 11.2-14.1 0-.9-.8-1.7-1.7-1.7-.2 0-.5.1-.7.2z" fill="#5b2448"/><path d="M582.5 231.8c1.2-.8 1.5-2.3.7-3.5s-2.3-1.5-3.5-.7c-4.2 2.8-8.8 4.8-13.7 6-.1 1.8-.3 3.5-.4 5.2 6-1.3 11.7-3.6 16.9-7-.1 0-.1 0 0 0z" fill="#9b3c82"/><path d="M664 84.6c-1.3 1.7-2.3 3.6-2.9 5.7-.7 2.7.9 5.4 3.6 6.1.5.1 1 .2 1.5.1l.9-.1c1.8-.1 3.3-.4 4.6-.5 1.3-.2 2.5-.3 3.7-.4 2.2-.2 4.1-.4 6.3-.5 1.7-.1 3.6-.1 5.7-.1C685.1 89 683 83 681 77c-3.6.8-7.4 1.7-11.3 2.8-.3.2-.6.3-.9.5-1.8 1.2-3.4 2.6-4.8 4.3zm-34.3 159.2c-4.2 4.8 6.5 40.5 51.6 39.2h.6c-4.3-17.6-6.6-30.6-6.6-30.6-.1-.1-28 .5-45.6-8.6z" fill="#5b2448"/><circle cx="628" cy="184.7" fill="#e57281" opacity=".52" r="22"/><path d="M701 175.6c-.8 1.9-1.9 3.6-3.4 5.1-1.4 1.4-3.1 2.5-4.9 3.4-3.6 1.8-7.7 2.6-11.8 2.2-2-.3-4-.8-5.9-1.6s-3.6-1.9-5.1-3.3c-3.1-2.7-5.1-6.4-5.7-10.4-.1-1.2.7-2.3 2-2.5 1-.1 1.9.4 2.3 1.3l.1.1c1.8 3.9 5.1 7 9.2 8.5 1.3.5 2.7.9 4.1 1 2.8.3 5.7-.1 8.3-1.1 2.7-.9 5.1-2.6 7-4.7l.1-.1c.8-1 2.2-1.1 3.2-.3.5.4.8 1.5.5 2.4zM567 205c-.8 0-1.6-.4-2-1-17.6-24.7-39.9-15.8-40.8-15.4-1.3.5-2.7-.1-3.3-1.4-.5-1.3.1-2.7 1.3-3.2.3-.1 26.8-10.9 46.8 17.1.8 1.1.5 2.7-.6 3.5-.3.3-.8.4-1.4.4z" fill="#9b3c82"/><path d="M687.3 153.2c-1.1 0-2-.9-2-2 0-.4.1-.9.4-1.2 3-4 4.3-6.8 3.9-8.7-.4-2.1-3.2-3.7-7.6-6-12.3-6.6-12.4-14.3-12.4-14.7 0-1.1.9-2 2-2s2 .9 2 2c0 .2.4 5.8 10.3 11.1 4.7 2.5 8.8 4.7 9.6 8.7.7 3.1-.7 6.8-4.6 12-.3.5-.9.8-1.6.8zM343.8 1706.3c-54.5-32.9-90.9-88.8-101.8-142.9-10.3-51.4-22.9-157-82.2-134.6-54.5 20.6-31.9 183 184 277.5z" fill="#5b2448"/><path d="M343.8 1706.4c-14.8 7.9-28.6 15-41.1 21.2-36.2 17.9-60.6 28.2-60.6 28.2s-155.2-10.3-128.5-64.8c20.1-20.8 49.4-46.4 78.2-70.3 3.4-2.9 6.9-5.7 10.3-8.5l11.1-9c11.5-9.3 22.5-18 32.3-25.7 15.5-12.2 28-21.7 34.9-27 3.8-2.9 5.9-4.5 5.9-4.5l14.9 41.6z" fill="#f4ada2"/><path d="M1393.1 1399c-42.1 8.2-124 .4-177.9-34.9-53.4-35-105-61.9-123-29.6-19.7 35.8 67.6 145.7 300.9 64.5z" fill="#5b2448"/><path d="M1393.1 1399c-3.3 14.7-7.3 30-11.4 44.9-.1.4-.2.8-.3 1.1-13.6 48.6-28.9 92.4-29.4 93.8s-.1 0-.2 0h-.6c-11.7.3-138.9 2.8-129.2-41 0-.2-3-6.8-3-7 3.5-15.4 6.6-32.6 9.3-49.8.7-4.3 1.3-8.7 2-13 .6-3.9 1.1-7.7 1.6-11.5.2-1.1.3-2.2.4-3.3 1.8-13.2 3.2-25.9 4.3-37.2 1.4-13.8 2.2-25.6 2.4-33.6v-.7c.1-2.7.1-5.3-.1-8-3.4-41.3 152.2 64 154.2 65.3z" fill="#f4ada2"/><path d="M1393.1 1399c-65.5 22.8-119.5 30.5-162.9 29.1.6-3.9 1.1-7.7 1.6-11.5.2-1.1.3-2.2.4-3.3 1.8-13.2 3.2-25.9 4.3-37.2 52.5 25.1 119.8 30.1 156.6 22.9zM343.8 1706.4c-62.5-27.4-108.8-60.5-141.8-94.2l11.1-9c11.5-9.3 22.5-18 32.3-25.7 13.8 49.5 48.6 98.8 98.4 128.9z" fill="#9b3c82"/><path d="M1381.4 1445c-13.6 48.6-28.9 92.4-29.4 93.8s-.1 0-.2 0h-.6c-11.7.3-138.9 2.8-129.2-41 0-.2-3-6.8-3-7 3.5-15.4 6.6-32.6 9.3-49.8zM302.7 1727.5c-36.2 17.9-60.6 28.2-60.6 28.2s-155.2-10.3-128.5-64.8c20.1-20.8 49.4-46.4 78.2-70.3l109.9 105.2z" fill="#66b0f0"/><path d="m280.7 1738.2-111.2-98.8c-2.6 2.2-5.1 4.4-7.6 6.6l109 96.9c3-1.5 6.3-3.1 9.8-4.7zm1094.5-271.6-150.7-3.1c-.6 3.4-1.2 6.7-1.9 10l149.6 3.1c1-3.3 2-6.7 3-10zm-156.2 24.2s-28.2 124.2-40.9 194.1c0 0 216.8 8.8 293.9 2.4 41.8-3.5 61.9-19.2 71.5-30.5l-.1-.1c0-.1-.1-.2-.1-.3-2.2-5.3-25.7-57.7-101.6-95.9-11.8-6-49.9-22.6-93.7-27.8-30-3.6-55.5-2.2-74.7-8.6-24.4-8.1-40.6-33.8-54.3-33.3z" fill="#fff"/><path d="M1220 1488.8c21.3 5.1 29.4 25.3 55.4 34.8 16.9 6.2 64.9 2.6 99.8 12.1 1.3.3 2.5.7 3.8 1 .3.1.7.2 1 .3 7.4 2.1 14.5 4.3 21.2 6.6 1.4.5 2.7.9 4 1.4l5.7 2.1c1.5.6 2.9 1.1 4.3 1.7 1.2.5 2.4.9 3.5 1.4.7.3 1.4.6 2.2.9 1.7.7 3.4 1.4 5.1 2.2h.1c.6.3 1.2.5 1.8.8 1.9.9 3.9 1.7 5.8 2.6l1.2.6c2.3 1.1 4.5 2.2 6.7 3.3l6.3 3.3c.8.4 1.6.8 2.3 1.3l6.9 3.9 1.6.9c.5.3 1 .6 1.6.9 1 .6 2 1.2 2.9 1.8 1 .6 2.1 1.3 3.1 1.9l1.5.9c3.4 2.2 6.7 4.4 9.8 6.6 1.3 1 2.6 1.9 3.9 2.9.9.6 1.7 1.3 2.5 1.9.4.3.8.6 1.3 1 1.3 1 2.6 2 3.9 3.1.3.3.6.5.9.7 2 1.6 3.9 3.2 5.7 4.8.4.3.7.6 1.1.9l2.1 1.8c.4.3.8.7 1.1 1 .7.6 1.4 1.3 2 1.9.3.3.7.6 1 .9s.7.6 1 .9.7.6 1 .9c1 .9 1.9 1.9 2.8 2.8l.9.9.9.9 1.8 1.8.9.9c.6.6 1.1 1.2 1.7 1.8s1.1 1.2 1.6 1.8 1.1 1.2 1.6 1.8c.3.3.6.6.8 1 1 1.1 1.9 2.2 2.8 3.3.5.6.9 1.1 1.4 1.7s.9 1.1 1.3 1.7.9 1.1 1.3 1.6c3.9 5 7.1 9.6 9.6 13.6l.6.9c-66.6 47-133.5 21.8-171.9 5.7-33.1-13.9-42.2 4.4-69.2-4.4-22.6-7.3-26.6-26.2-55.3-29.7-26.9-3.3-50.6 13.9-50.6 13.9s10.9-63 31.9-138z" fill="#5b2448"/><path d="M1200.9 1591.1c-1.2 0-2.3-.1-3.5-.2-1.6-.3-2.7-1.9-2.4-3.5s1.9-2.7 3.5-2.4c.3 0 15.5 2.4 35.8-14.8 1.8-1.5 3.4-2.9 5-4.3 14.8-12.8 23.8-20.6 53.2-21.6 1.7-.1 3 1.2 3.1 2.9s-1.2 3-2.9 3.1c-27.3.9-34.7 7.3-49.5 20.1-1.6 1.4-3.3 2.8-5 4.3-17.1 14.5-31.1 16.4-37.3 16.4z" fill="#fff"/><path d="M1453.5 1670.2c-36.6 0-68.5-13.5-89.8-22.4-17.5-7.4-28.3-5.5-38.8-3.7-9 1.5-18.3 3.1-31.1-1-10-3.2-16.7-8.5-23.1-13.6-8.5-6.8-16.5-13.1-32.3-15-25.5-3.1-47.3 12.7-47.6 12.9-1.1.8-2.7.6-3.5-.6-.8-1.1-.6-2.6.5-3.5.9-.7 23.6-17.2 51.1-13.8 17.2 2.1 26.1 9.2 34.8 16.1 6.3 5 12.3 9.8 21.5 12.8 11.6 3.8 19.9 2.3 28.7.8 11.2-1.9 22.8-3.9 41.6 4 17.5 7.4 44 18.5 73.8 21.4 34.5 3.3 65.2-5 94-25.4 1.2-.8 2.7-.4 3.5.7.8 1.2.4 2.7-.7 3.5-28.2 20-56.6 26.8-82.6 26.8z" fill="#5b2448"/><path d="M1234.8 1676c-18.5 0-33-8.9-33-20.4s14.5-20.4 33-20.4 33 8.9 33 20.4-14.5 20.4-33 20.4zm0-35.7c-15.2 0-28 7-28 15.4s12.8 15.4 28 15.4 28-7 28-15.4-12.9-15.4-28-15.4z" fill="#6d2a53"/><path d="M1357.4 1692.8c-86.2 0-180.3-2.6-181.7-2.6s-2.5-1.2-2.4-2.6v-.4c12.6-69.3 43.5-195.2 43.8-196.4.3-1.3 1.7-2.2 3-1.8 1.3.3 2.2 1.7 1.8 3-.3 1.2-30.3 123.6-43.2 193.3 26.3.7 221.7 5.6 293-.3 21.5-1.8 50.8-8.2 68.8-28.5-4.1-9.1-28.4-57.6-100-93.6-.7-.3-1.5-.7-2.3-1.2-12.6-6.4-42.2-21.5-91.5-25.3-1.4-.1-2.4-1.3-2.4-2.6.1-1.4 1.3-2.4 2.6-2.4h.1c50.2 3.9 80.4 19.3 93.4 25.9.8.4 1.6.8 2.3 1.1 75.8 38.2 100 90.5 102.7 97 0 0 0 .1.1.1.1.1.1.3.1.4l.1.2c.3.9.2 1.8-.4 2.5-19 22.5-50.3 29.5-73.2 31.4-26.3 2.1-69.4 2.8-114.7 2.8z" fill="#5b2448"/><path d="M1339.4 1602.5c-4.1 0-7.5-3.4-7.5-7.5 0-1.2.3-2.3.8-3.4.9-1.7 21.8-42 71.2-53.6 4-.9 8.1 1.6 9 5.6s-1.6 8.1-5.6 9c-42.5 9.9-61.1 45.4-61.3 45.8-1.1 2.5-3.7 4.1-6.6 4.1zm34 13.1c-4.1 0-7.5-3.4-7.5-7.5 0-1.2.3-2.3.8-3.4.9-1.7 21.5-41.3 70.4-52.7 4-1 8.1 1.5 9.1 5.5s-1.5 8.1-5.5 9.1h-.1c-41.9 9.7-60.2 44.6-60.4 44.9-1.4 2.5-3.9 4.1-6.8 4.1zm39.3 10.4c-4.1 0-7.5-3.4-7.5-7.5 0-1.2.3-2.4.9-3.5.8-1.5 19.7-35.8 64.3-45.6 4-.9 8 1.7 8.9 5.7s-1.7 8-5.7 8.9c-37.6 8.3-54.1 37.8-54.3 38.1-1.4 2.4-3.9 3.9-6.6 3.9z" fill="#ffcf2d"/><path d="M129 1675.5s-87.4 77.1-123.5 156.9c0 0 205.5 69.6 281.3 85.2 41.1 8.5 64.8-.9 77.2-9.1v-.4c-.6-5.7-8.4-62.6-70.4-120.6-9.7-9-41.5-35.7-82-53-27.8-11.9-43.7-11.3-58.8-24.9-12.4-11.1-8.4-19.7-23.8-34.1z" fill="#fff"/><path d="M130 1674.5c12.3 9.2 10.3 22.6 24.7 36 13.2 12.2 51.2 15.4 82 34.3 1.1.7 2.2 1.4 3.3 2l.9.6c6.5 4.1 12.7 8.2 18.5 12.3 1.2.8 2.3 1.7 3.5 2.5 1.6 1.2 3.3 2.4 4.8 3.6 1.2.9 2.5 1.9 3.7 2.8 1 .8 2 1.6 3 2.3l1.8 1.5c1.5 1.2 2.9 2.4 4.3 3.5 0 0 .1 0 .1.1l1.5 1.2c1.6 1.4 3.2 2.8 4.8 4.1.3.3.7.6 1 .9 1.9 1.7 3.7 3.4 5.5 5 1.7 1.6 3.5 3.3 5.1 4.9.6.6 1.3 1.2 1.9 1.9 1.9 1.9 3.7 3.8 5.5 5.6l1.2 1.3c.4.4.8.9 1.2 1.3.8.8 1.6 1.7 2.3 2.5l2.4 2.7c.4.4.8.9 1.1 1.3 2.7 3.1 5.2 6.1 7.5 9.1l3 3.9c.7.8 1.3 1.7 1.9 2.5.3.4.6.8.9 1.3 1 1.4 2 2.7 2.9 4 .2.3.4.6.7 1 1.4 2.1 2.8 4.1 4.1 6.2.3.4.5.8.8 1.2.5.8 1 1.6 1.5 2.3.3.4.5.9.8 1.3.5.8 1 1.6 1.4 2.4.2.4.5.8.7 1.2s.5.8.7 1.2.5.8.7 1.2c.7 1.2 1.3 2.3 1.9 3.5l.6 1.1c.2.4.4.8.6 1.1.4.8.8 1.5 1.2 2.2.2.4.4.7.6 1.1.4.7.7 1.5 1.1 2.2l1.1 2.2c.4.7.7 1.4 1 2.1.2.4.4.8.5 1.2.6 1.4 1.2 2.7 1.8 4 .3.7.6 1.3.9 2s.5 1.3.8 2 .5 1.3.8 1.9c2.3 5.9 4.1 11.2 5.4 15.7.1.4.2.7.3 1.1-77.2 26.3-134.3-16.7-166.6-43-27.8-22.7-41.7-7.7-65.2-23.7-19.6-13.3-18.1-32.6-44.7-44.1-24.9-10.7-48.4 0-48.4 0s44.2-64.5 94.6-105.6z" fill="#5b2448"/><path d="M65.5 1750.4c-9.4 0-14.6-2.6-15-2.8-1.5-.8-2.1-2.6-1.3-4 .8-1.5 2.6-2.1 4-1.3.2.1 14.2 6.7 38.6-4.1 2.1-.9 4.1-1.8 6-2.7 17.8-8.1 28.6-13 57.1-5.7 1.6.4 2.6 2 2.2 3.7-.4 1.6-2 2.6-3.7 2.2-26.4-6.8-35.3-2.7-53.1 5.4-1.9.9-3.9 1.8-6.1 2.7-11.8 5-21.5 6.6-28.7 6.6z" fill="#fff"/><path d="M313.3 1901.7c-54.8 0-95.1-32.9-119.2-52.6-14.7-12-25.6-13.3-36.2-14.5-9.1-1.1-18.4-2.2-29.6-9.7-8.7-5.9-13.6-12.9-18.3-19.6-6.2-8.9-12.1-17.2-26.7-23.5-23.5-10.1-46.1.2-46.3.3-1.3.6-2.7 0-3.3-1.2-.6-1.3 0-2.7 1.2-3.3 1-.5 24.8-11.4 50.4-.4 15.9 6.9 22.5 16.2 28.8 25.3 4.6 6.6 9 12.9 17 18.3 10.1 6.9 18.5 7.9 27.3 8.9 11.3 1.3 23 2.7 38.8 15.6 14.7 12 37 30.2 64.8 41.3 32.1 12.8 64 13.6 97.4 2.2 1.3-.4 2.7.3 3.1 1.6s-.3 2.7-1.6 3.1c-15.3 5.4-31.4 8.1-47.6 8.2z" fill="#5b2448"/><path d="M76.7 1841.9c-4.9 0-9.7-.8-14.3-2.1-17.8-5.2-29.1-17.9-25.9-28.8 1.6-5.5 6.6-9.5 13.9-11.3 6.9-1.7 15.2-1.3 23.5 1.1 17.8 5.2 29.1 17.9 25.9 28.8-1.6 5.5-6.6 9.5-13.9 11.3-3 .7-6.1 1-9.2 1zm-17.2-38.4c-2.7 0-5.3.3-7.9.9-5.6 1.4-9.3 4.2-10.3 7.9-2.3 8 8 18.4 22.5 22.6 7.4 2.2 14.8 2.5 20.9 1 5.6-1.4 9.3-4.2 10.3-7.9 2.3-8-8-18.4-22.5-22.6-4.2-1.2-8.6-1.8-13-1.9z" fill="#6d2a53"/><path d="M317.1 1923.3c-10.4-.1-20.7-1.2-30.8-3.3-75-15.4-282.4-82.7-284.5-83.3-1.3-.4-2-1.8-1.6-3.1 0-.1.1-.2.1-.3 41.4-85.8 125.7-158.4 126.6-159.1 1.1-.9 2.7-.7 3.5.4.8 1 .7 2.5-.3 3.4-.8.7-82.7 71.2-124.1 154.9 24.9 8 211.2 67.9 281.2 82.3 21.2 4.4 51 6.4 74-7.9-1.3-9.9-11-63.3-69.5-118-.6-.5-1.2-1.1-1.9-1.8-10.3-9.7-34.4-32.6-80.6-50.1-1.3-.5-1.9-1.9-1.5-3.2.5-1.3 1.9-1.9 3.2-1.5 47.1 17.9 71.7 41.2 82.3 51.1.7.6 1.3 1.2 1.8 1.7 62 58 70.4 115 71.2 122v.6c.1.9-.3 1.8-1.1 2.3-14.5 9.8-31.7 12.9-48 12.9z" fill="#5b2448"/><path d="M185.7 1799.1c-4.1 0-7.5-3.4-7.5-7.5 0-1.9.7-3.7 2-5.1s32.7-34.2 83.4-31.3c4.1.2 7.3 3.8 7.1 7.9s-3.8 7.3-7.9 7.1c-43.5-2.5-71.4 26.4-71.7 26.6-1.4 1.4-3.4 2.3-5.4 2.3zm28.9 22.1c-4.1 0-7.5-3.4-7.5-7.5 0-1.9.7-3.8 2-5.1 1.3-1.4 32.3-33.6 82.4-30.7 4.1.3 7.3 3.8 7 8-.3 4.1-3.8 7.2-7.9 7-43.2-2.5-70.3 25.8-70.6 26-1.3 1.5-3.3 2.3-5.4 2.3zm34.7 21.1c-4.1 0-7.5-3.4-7.5-7.5 0-2 .8-3.9 2.2-5.3 1.2-1.2 29-28.8 74.5-25.6 4.1.3 7.2 3.9 7 8s-3.9 7.2-8 7c-38.8-2.7-62.6 21-62.8 21.2-1.5 1.4-3.4 2.2-5.4 2.2z" fill="#ffcf2d"/><path d="M973.3 798.3c100.2 21.1 272.7 56.5 377.7 185.5 116.5 143.1 42.1 415.2 42.1 415.2s-87.7 21.1-158.4-23c-71.8-44.8-123.2-77.7-143.8-38.7 0 0 12.5-24.8 57.6-94.6 52.4-81.2-58.6-169.6-289.8-193.2-23.7 225.2-248.7 528.4-514.9 656.8-57.6-32.9-92.5-93.5-103.8-141.8s-19.5-153.1-80.2-135.7c76.1-42.1 180.4-34.1 275.4-90.4 116.1-68.9 66.9-284.8 94.1-396.3z" fill="#21a0aa"/><path d="M543.6 1254.1c.9-1.2.7-2.7-.4-3.6-1.1-.8-2.7-.6-3.5.5-14.2 18.1-42 42.3-72.5 63.2-2.2 1.5-4.3 2.9-6.4 4.3-7.4 7.5-15.9 14.2-25.4 19.8-8.2 4.8-16.4 9.2-24.7 13.2 43.2-17.3 107.5-65 132.9-97.4zm321.7-281.5c-1.4 0-2.5 1.2-2.4 2.6.1 24.9-1.5 49.6-4.2 74.3 1.7.2 3.3.3 5 .5 2.7-24.9 4.3-49.8 4.2-74.9-.1-1.5-1.2-2.5-2.6-2.5zm307.9 153.8c-1.9-26.9-8.2-43.6-8.5-44.3-.5-1.2-1.9-1.9-3.2-1.4s-2 1.9-1.5 3.2c.2.6 18.6 49.8 1.1 114.3.6 8.9-.6 17.9-3.8 26.9 12.8-31.3 18.2-65 15.9-98.7z" fill="#6ce0dc"/><path d="M576 717.6s-70.1 67.7-99.7 125.4-50.4 117.2-37 123.3c34 15.7 110-123.3 136.7-248.7z" fill="#5b2448"/><path d="M528.8 345.6C496 328.7 399.3 363 338.6 545s-16.4 296 20.6 334c-3 9.5-2.2 19.8 2.1 28.8 7.4 15.8 36 47.3 78.1 58.6C424 950 469.2 816.3 576.1 717.7c45.2-131.6 20.5-337.2-47.3-372.1z" fill="#66b0f0"/><path d="M726.9 347.8c-2.8-3.4-5.6-6.5-8.2-9.2-7.3-7.7-14.1-13.8-20.4-18.4-1.6.8-3.3 1.7-4.9 2.6 6.6 4.4 13.8 10.7 21.4 18.7.1.2.2.4.4.6 15 15 34.9 46.3 39 57.2 3.3 8.8 1.6 10.2 1.6 10.3-.2.1-2 1.3-10.1-2.8-6.3-3.2-14.2-8.3-20.3-12.5 0 0-.1 0-.1-.1-1.2-.8-2.7-.4-3.5.7s-.4 2.7.7 3.5c16.8 11.4 26.3 16.4 32 16.4 1.5.1 3-.4 4.2-1.3 3.3-2.6 2.6-7.9 1.2-12.7 49.7 76 102.8 188.8 125.8 277.8 1.7-.2 3.4-.3 5-.5C874 613.4 839.9 531 799 456.6c-25.3-45.9-50.3-83.4-72.1-108.8zM596.4 477.3c-6.3-35.3-16.1-66.9-28.4-91.4-1.8-3.5-3.6-6.9-5.4-10.1 12.6 12.5 31.7 30.5 62.8 57.5 21.6 18.7 37.3 27.8 48.3 27.8 2.6 0 5.2-.6 7.5-1.8 15.1-8 11.2-40.5 7.3-71.8-.5-4.2-1-8.2-1.4-12.1-1.6 0-3.3 0-5-.1.5 4.1 1 8.4 1.5 12.8 3.3 26.9 7.4 60.3-4.7 66.8-10.7 5.7-33.2-10.7-50.2-25.4-41.8-36.1-61.7-56.3-73.6-68.3-10.1-10.2-15-15.2-22.9-19.6-.4-.2-.7-.4-1.1-.6-1.5 1.7-2.8 3.1-3.5 3.8.8.4 1.6.8 2.3 1.2 26.1 15.7 49.9 66.2 61.7 132.2 13.7 76.9 9.1 161.4-12.7 233.3-31.6-.7-118.3 14.2-163.7 40.4-.8.4-1.3 1.3-1.2 2.2 0 1.4 1.1 2.5 2.5 2.5.4 0 .9-.1 1.2-.3 37.8-21.9 104.7-35.7 143.2-39-36.3 12.4-77.1 33.4-112.4 58.1-45.3 31.7-78.1 66.8-92.9 99.4 1.2 1.4 2.5 2.8 3.7 4 14-32.4 46.6-67.5 92.1-99.3C490.7 751.8 537 729 576 717.7c2.2-.7 4.4-1.3 6.6-1.9 22.8-73.3 27.8-159.8 13.8-238.5z" fill="#b0dcf7"/><path d="M687 375.4c27.8 6.2 42.1 17.6 49.3 26.7 8.2 10.3 6.7 23.1 6.7 23.1s129 170.1 198.9 383.9l-52.2 68c-3.3 4.3-8.7 6.5-14.1 5.7l-86.9-13.1s-23.6-194.2-40.1-265.2-46.2-161.4-46.2-161.4c-11.3-7.2-9.2-14.4-11.3-32.9-1.9-17.4-4.1-34.8-4.1-34.8z" fill="#f94f46"/><path d="M701.5 448.5c-1.3 0-2.7-.1-4-.2-1.4-.2-2.4-1.4-2.2-2.8s1.4-2.4 2.8-2.2h.1c15.6 2 38.5-10.2 47-21.6.8-1.1 2.4-1.3 3.5-.5s1.3 2.4.5 3.5c-8.9 11.7-30.6 23.8-47.7 23.8z" fill="#66b0f0"/><path d="M1162.9 713.5c-2.9 2.1-5.9 4.1-9 6.2-41.5 27.3-102.2 52.4-180.6 78.6-8 2.7-16.2 5.4-24.6 8.1-.5.2-1 .3-1.6.5-3.4 1.1-6.8 2.2-10.3 3.3-4 1.3-8.1 2.6-12.3 4.1-11.5 4-23.5 8.6-36 13.6-11.6 4.6-23.6 9.7-35.9 14.9-.5.2-1 .4-1.4.6-108.7 46.3-244.9 110.4-366.7 97.2-1-.1-2.1-.2-3.1-.4-1.9-.2-3.7-.5-5.6-.7-12.1-1.7-24.1-4.2-35.9-7.6C452 882.1 497.2 790.4 576 717.6c2-.6 4-1.2 6-1.7.2-.1.5-.1.7-.2 69.9-19.7 158.6-26.1 233.7-31.5 26.8-1.9 51.9-3.7 73.8-6 5.5-.6 10.7-1.2 15.8-1.8 42.2-5.2 102.8-23.3 133.6-42.1 33.6-20.5 41.2-12.3 23.6 10.3-39.1 50.4 22.3 18.7 79.1 1 46.2-14.4 26.7 9.2 21.6 13.4 15.4-7.2 40.1-12.3 15.4 17.5 16.5-9.2 19.9 11-16.4 37z" fill="#f4ada2"/><path d="M582.8 715.7c-20.1 20.4-88.9 115-101.5 224.5-1.9-.2-3.7-.5-5.6-.7-12.1-1.7-24.1-4.2-35.9-7.6C452 882.1 497.2 790.4 576 717.6c2-.6 4-1.2 6-1.7.3-.1.5-.2.8-.2z" fill="#9b3c82"/><path d="M973.3 798.3c42.7 8.8 261.6 67.3 384.9-78.6 28.8-20.6 69.9-29.2 44.2-34.9-9.2-2.1-23.6-1-23.6-1s11.3-28.8 15.4-50.4-5.1-21.6-20.6 3.1c4.1-22.6 0-42.1-22.6 0 2.1-24.7-1-38-36 17.5 2.1-17.5 0-26.7-27.8 10.3s-68.9 55.5-68.9 55.5h-64.8z" fill="#f4ada2"/><g fill="#9b3c82"><path d="M1153.7 719.8c-43.1 23.8-87 44.5-180.1 78.6 2.5.5 5.5 1.2 9.1 2 94-34.6 137.6-55.5 182.3-80.6h-10.3zm-61.7-19.1c0 1.4 1.1 2.5 2.5 2.5.3 0 .6-.1.8-.1 21.7-7.8 53.5-22.7 81.9-48.8-4.2.9-9.2 2.7-13.2 4.6-25.2 20.5-51.5 32.7-70.4 39.5-.9.3-1.6 1.2-1.6 2.3zm14.4 23.6c0 1.4 1.1 2.5 2.5 2.5.3 0 .6-.1.9-.2 24.5-9.8 63.9-34.7 78.1-52.1v-.1c-2.1-.6-5 0-8.7 2.1l.1-.1c-15.4 15.3-47.6 36.1-71.4 45.6-.8.4-1.5 1.3-1.5 2.3zm83.2 18.8c-.2.3-.3.7-.3 1.1 0 1.4 1.1 2.5 2.5 2.5.9 0 1.8-.5 2.2-1.4.1-.1 7.4-14.1 24.3-25.5h-8.3c-13.9 11.2-20.1 22.8-20.4 23.3zm97.7-30.1c0 1.4 1.1 2.5 2.5 2.5.8 0 1.6-.4 2-1.1 1-1.4 24.6-34.9 31.1-72.5-2.4 3.6-5.1 7.5-7.9 12-8.7 31.2-27.1 57.4-27.3 57.7-.2.4-.4.9-.4 1.4zm33.9 1c0 1.4 1.1 2.5 2.5 2.5.9 0 1.8-.5 2.2-1.4 11-21.6 28.9-63.6 33-92-2.3 3.5-5.1 8.1-7.9 13.4-6.6 26.4-20.4 58.3-29.5 76.3-.2.4-.3.8-.3 1.2zm24.7 0c0 1.4 1.1 2.5 2.5 2.5.9 0 1.8-.5 2.2-1.3 13.6-25.2 24.7-62.9 30.5-89.4-2.3 2.8-4.8 6.3-7.5 10.6 0 .1-.1.6 0 0-6.1 25-15.6 54.7-27.4 76.4-.2.4-.3.8-.3 1.2zm32.9-30.2c-5.9 12.6-12.8 24.7-20.8 36.1.1-.1.1-.2.2-.2 3.3-2.4 6.8-4.6 10.4-6.7 6-9.5 11.2-19.3 15.8-29.5-3 0-5.2.3-5.6.3z"/></g><path d="m925.6 824-37.2 3.8-14.5 1.5-18.4 1.9c-1.2-12-3.1-24.3-5.3-36.7-.8-4.3-1.7-8.7-2.6-13-7.4-34.6-18.3-68.8-31.3-97.3 26.8-1.9 51.9-3.7 73.8-6 10.1 26 18.2 52.6 24.4 79.8.8 3.6 1.6 7.3 2.4 10.9 2.4 11.2 4.4 22.4 6 33.6.4 2.5.7 4.9 1 7.4.2 1.4.4 2.8.5 4.2.5 3.4.9 6.6 1.2 9.9z" fill="#5b2448"/><ellipse cx="891.6" cy="802.7" fill="#5b2448" rx="60.8" ry="42.4" transform="matrix(.9335 -.3587 .3587 .9335 -228.5911 373.2002)"/><path d="M874.5 758.4c-11 4.2-20.5 10.2-28.1 17.2l1.2 5.7c7.5-7.4 17.2-13.8 28.7-18.2 12.8-4.9 26.1-6.7 38.2-5.3l-1.2-5.1c-12.4-1.2-25.8.7-38.8 5.7z" fill="#fff"/><ellipse cx="894" cy="808.9" fill="#fff" rx="59" ry="36.4" transform="matrix(.9335 -.3587 .3587 .9335 -230.6539 374.479)"/><path d="M895.2 815.3c-1.1 0-2-.7-2.4-1.7l-7.3-21.4c-.4-1.3.3-2.7 1.6-3.2 1.3-.4 2.7.3 3.1 1.5l6.5 19 30.7-11.2c1.3-.5 2.7.2 3.2 1.5s-.2 2.7-1.5 3.2L896 815.1c-.2.1-.5.2-.8.2z" fill="#5b2448"/></svg></g></svg>