<svg xmlns="http://www.w3.org/2000/svg" version="1.1" viewBox="0 0 3000 3000" width="3000" height="3000">
<defs/><!--ITEM: Illustration component 1--><g transform="translate(656.4 549.6) rotate(0.0 871.1999999999998 952.8)  scale(1.072972473674487 1.0733960457387484)"><svg width="1623.9" height="1775.3" viewBox="0.0 0.0 1623.9 1775.3"><path d="m265.9 657.6c-1 0-2-.7-2.3-1.6-28-76.1-69.6-121.2-70-121.7-.9-1-.9-2.6.1-3.5s2.6-.9 3.5.1c.4.5 42.7 46.3 71 123.3.5 1.3-.2 2.7-1.5 3.2-.2.1-.5.2-.8.2z" fill="#9b3c82"/><circle cx="194.9" cy="532.1" fill="#f94f46" r="23"/><path d="m198.9 831.1c59 9 150.3 28.6 191 23 58-8 58-71 58-94 0-51-7-87-61-98s-134-19-172-22-91.2-14.7-95 66c-3 63 12.7 114.9 79 125z" fill="#9b3c82"/><path d="m184.9 829.1c57.1 10.4 126.8 27 186 27 55 0 55-56 55-79 0-58-5-87-59-98s-134-19-172-22-75-11-78 49c-3.2 64 2 111 68 123z" fill="#ffcf2d"/><path d="m218.9 1424.1c53 14 131 21 188-6 67.1-31.8 139.3-49.5 156-16 20 40-45 149-344 22z" fill="#5b2448"/><path d="m735.9 1380.1c-52 78-152.2 72.1-152.2 72.1s-13.8-29.6-28.8-72.3c-9-25.5-16.7-51.5-23-77.8l189.8-56.3c.6 14.6 2.2 32.4 4 50.2.5 4.7 1 9.3 1.5 13.9.4 4 .9 8 1.3 11.9.1.9.2 1.7.3 2.6 3.5 30.7 7.1 55.7 7.1 55.7z" fill="#f4ada2"/><path d="m735.9 1380.1c-52 78-152.2 72.1-152.2 72.1s-13.8-29.6-28.8-72.3l173.9-55.5c3.5 30.7 7.1 55.7 7.1 55.7z" fill="#66b0f0"/><path d="m732.3 1352.9-166.9 55.4c1.3 3.3 2.5 6.4 3.7 9.3l164.6-54.6c-.5-3-1-6.4-1.4-10.1z" fill="#fff"/><path d="m531.9 1302.1 189.8-56.3c0 .6 0 1.2.1 1.8-.3.2-.7.4-1 .6-17.1 10.5-35 20.1-53.9 26.9-66.6 28.1-135 27-135 27z" fill="#f4ada2"/><path d="m562.1 1399.9c-10-26.6-21.5-61.1-30.2-97.6 1.1 3.5 17.7 60.6 30.2 97.6z" fill="#f4ada2"/><path d="m401.8 1420.4c-3.8 12.4-7.3 27.5-10.5 43.2-.9 4.7-1.8 9.4-2.7 14.1-2.3 12.8-4.4 25.6-6.2 37.6-4.8 31.7-7.5 56.8-7.5 56.8-28.1 51-167 36-167 36-.9-28.7-.5-60.2 1.6-94 1.8-28.4 4.8-58.5 9.4-90z" fill="#f4ada2"/><path d="m382.4 1515.2c-4.8 31.7-7.5 56.8-7.5 56.8-28.1 51-167 36-167 36-.9-28.7-.5-60.2 1.6-94z" fill="#66b0f0"/><path d="m378.1 1546-170.1-.8c-.1 3.4-.2 6.7-.3 10l169.1.8c.4-3 .8-6.4 1.3-10z" fill="#fff"/><path d="m725.7 1296c-24.7 4.1-131.3 20.2-193.8 6.1l189.8-56.3c.7 14.6 2.2 32.4 4 50.2z" fill="#9b3c82"/><path d="m401.8 1420.4c-3.8 12.4-7.3 27.5-10.5 43.2-34.2-4.3-123.8-12.8-172.5-39.5z" fill="#9b3c82"/><path d="m1606.9 1257.1c-36.5 145.1-176.2 331.8-467.6 266.9-165.4-36.9-248.4-153.6-297.8-242.7-18.8-33.8-32.8-63.7-44.6-83.7 0-.1-.1-.1-.1-.2 0 0-.5.4-1.5 1.2-23.3 18-47.8 34.4-73.4 49-.3.2-.7.4-1 .6-17.4 10-35.4 19-53.9 26.9-66.5 28.1-135 27-135 27s0 0 0 .1v.1c1 3.6 17.7 60.7 30.2 97.6.2.8.5 1.5.8 2.2-6-10-27-41-156 16-90.5 40-188 6-188 6s53-370 333-500c47-81 119-147 254-127 118.8 17.6 602.9 252 800.9 460z" fill="#21a0aa"/><path d="m514 1108.7c2.8-77.1 21.3-144.1 53.5-193.7.8-1.2.4-2.7-.7-3.5-1.2-.8-2.7-.4-3.5.7-32.7 50.4-51.4 118.2-54.3 196.3-2.3 62.7 5.8 130.8 23 193.6h5.2c-17.3-62.8-25.5-130.8-23.2-193.4z" fill="#6ce0dc"/><path d="m798.9 984.5c-.1-1.4-1.2-2.4-2.6-2.4s-2.4 1.2-2.4 2.6c1.6 33 9.2 70.5 21.3 105.6 14.1 41 34.3 78.3 58.3 107.9.5.6 1.2.9 1.9.9.6 0 1.1-.2 1.6-.6 1.1-.9 1.2-2.4.4-3.5-53.6-65.8-75.8-154.6-78.5-210.5z" fill="#6ce0dc"/><path d="m1278.2 1105.8c-1-1-2.5-1-3.5-.1s-1 2.5-.1 3.5c45.8 47.8 72.5 87.3 72.7 87.7.5.7 1.2 1.1 2.1 1.1.5 0 1-.1 1.4-.4 1.1-.8 1.5-2.3.7-3.5-.3-.3-27.2-40.2-73.3-88.3z" fill="#6ce0dc"/><path d="m1299.9 1022.1c4 55-4 110.5-4 110.5l-20-21.5-31-168 52.3 11.6s1.2 47.3 2.7 67.4z" fill="#5b2448"/><path d="m1123.9 337.1c104 61 597 392 483 920 0 0-91-83-278-137-15-45-33-85-50-124 1 38.4 0 76.7-3 115 0 0-120-154-272-227 0 0-79-215-33-456z" fill="#f94f46"/><path d="m889.1 13.6c14.5-3.6 29.8 0 41.2 9.7 24.5-42.5 83.2-20.7 83.5 15.9 49.1-22.5 89.9 36.1 64 70.5-9.5 12.6-24.7 36.1-23.7 61.4-22.6 4.6-74 49.6-74 49.6s-48.1-112.6-83.7-124c-55.9-18.2-38.2-74.8-7.3-83.1z" fill="#5b2448"/><path d="m944.8 47.4c.3 1.1 1.3 1.9 2.4 1.9.2 0 .4 0 .6-.1 1.3-.4 2.1-1.7 1.8-3.1-3.5-13-10-21.5-16.6-27-.9 1.3-1.8 2.7-2.7 4.2-.4-.3-.8-.6-1.2-.9 6.2 4.9 12.5 12.7 15.7 25z" fill="#9b3c82"/><path d="m811.6 220.6c-4.2 12.3-.8 27.1 10.6 37.8 29.5 28 84.8 28.7 84.8 28.7s39 58 64 141c0 0 95-26 153-91 0 0-61-48-85-80 25-1 50.9-13.1 53.2-47.5 1.3-19.6-15.5-37.4-35.6-39.2-20.6-1.9-37.8 11.1-57.2 23.8-21.9 14.4-23.2-2.5-25.1-23.9-1.2-13.7-2.8-29.3-10.2-39.7-16.9-23.4-67.4-34-67.4-34s-1.9 6.5-4.8 14.4c-3.9 10.5-9.6 23.7-15.3 28-10 7.5-17.1 3.9-18.9 10.1-1.6 5.3 2.7 13.3 5.4 17-12.2 35.7-41.8 25.7-51.5 54.5z" fill="#f4ada2"/><path d="m1004.5 250.3c-1.2-.6-2.7-.1-3.3 1.1s-.1 2.7 1.1 3.3c13.2 6.6 30.7 7.3 37.4 7.3h2.8.3c-1.4-1.7-2.7-3.3-3.9-4.9-6.8-.1-22.7-.9-34.4-6.8z" fill="#9b3c82"/><path d="m953.9 272.1c-16.1 11.9-36.3 14.5-47 15.1.5.8 7.5 11.3 17.2 29.2 28.4-11 34.4-39.8 29.8-44.3z" fill="#5b2448"/><path d="m946.1 142.9c-.4-.3-.7-.6-1-1s-.7-.7-1-1.1c-.6-.7-1.2-1.5-1.8-2.2l-3.4-4c-2.2-2.6-4.2-4.8-6.2-6.8-2-1.9-3.9-3.6-6.1-5.5-1.1-.9-2.2-1.9-3.6-3-1.3-1.1-2.8-2.1-4.5-3.6l-.7-.6c-2.3-2.1-2.6-5.7-.5-8 .5-.6 1.1-1 1.7-1.3 2.4-1.1 4.9-1.8 7.5-1.9 2.7-.1 5.3.1 7.9.9 2.6.7 5.1 1.9 7.4 3.3 2.3 1.5 4.3 3.2 6.1 5.3 3.4 3.8 6 8.4 7.3 13.3.7 2.4 1.1 4.8 1.2 7.2.1 1.2 0 2.4-.1 3.7 0 .6-.1 1.2-.2 1.9l-.4 2c-.5 2.5-3 4.2-5.5 3.7-.5-.1-.9-.3-1.4-.5z" fill="#5b2448"/><path d="m926.9 152.9c-4.8-3.5-16.6-11.8-25.7-23.2-1.3-1.6-3.6-1.9-5.2-.6-4.1 3.3-9.8 9.9-2.6 16.9 8.9 8.6 27.5 13 33.3 10.1.9-.5 1.3-1.6.8-2.6-.2-.2-.4-.5-.6-.6z" fill="#5b2448"/><circle cx="938.1" cy="212.1" fill="#e57281" opacity=".52" r="24.8"/><path d="m867.1 199.5c2.5 2.2 5.5 3.7 8.7 4.3 3.2.7 6.5.7 9.7-.1 1.6-.4 3.1-1.1 4.5-1.9s2.7-1.8 3.9-2.9c2.4-2.3 4.1-5.2 5-8.4v-.1c.3-1.2 1.6-1.9 2.8-1.6 1 .3 1.6 1.1 1.6 2.1 0 4.5-1.7 8.9-4.6 12.3-1.5 1.7-3.2 3.2-5.1 4.4-5.8 3.7-12.9 4.5-19.4 2.3-2.1-.7-4.1-1.6-6-2.9s-3.5-3-4.6-4.9c-.6-1.1-.2-2.4.8-3.1.8-.4 1.9-.2 2.7.5z" fill="#9b3c82"/><path d="m1017.1 224.8c-1.4 0-2.5-1.1-2.5-2.5 0-.5.1-.9.4-1.3 10.4-17.1 23.7-22.5 33-23.9 6-1 12.1-.7 18 1 1.3.4 2 1.9 1.6 3.2s-1.9 2-3.2 1.6c-1.1-.4-27.1-8.6-45.1 20.8-.5.6-1.3 1.1-2.2 1.1z" fill="#9b3c82"/><path d="m421.8 1627c12.5 8.9 36.7 19.5 79.6 12.2 79.1-13.4 273.3-68.3 273.3-68.3-15-32.7-36-186.5-38.7-192.6-41.1 17.6-41.8 46.6-93.7 60.6-27.3 7.3-27.1 3.3-56.2 14.6-35.9 13.9-65.5 33.4-80.1 45-2.7 2.1-4.9 4-6.7 5.5-3.1 2.7-6.1 5.4-9 8.2-1 .9-1.9 1.8-2.8 2.7-1.4 1.4-2.8 2.8-4.2 4.2-.4.4-.8.8-1.3 1.3-8.9 9.1-17.1 18.7-24.6 29-.6.8-1.2 1.7-1.8 2.5-.2.3-.4.6-.6.9s-.4.6-.6.9c-.1.1-.1.2-.2.3-.1.2-.2.3-.3.5 0 .1-.1.1-.1.2-.5.8-1.1 1.6-1.6 2.3-.1.2-.3.4-.4.6-.3.4-.6.9-.9 1.3-.1.2-.2.4-.4.5-.4.6-.7 1.1-1.1 1.7 0 .1-.1.1-.1.2l-.4.6c-.1.2-.3.4-.4.6-.3.4-.5.8-.7 1.2-.1.2-.3.4-.4.6-.1.1-.1.2-.2.3s-.1.2-.2.3c-.4.6-.7 1.2-1.1 1.8-.5.8-1 1.6-1.5 2.4-.2.4-.4.7-.6 1.1-.3.4-.5.9-.7 1.3-.4.8-.9 1.5-1.3 2.3-.3.5-.6 1-.8 1.5-.1.3-.3.5-.4.8-.3.5-.5 1-.8 1.4-.2.4-.4.7-.6 1.1-.6 1.1-1.2 2.3-1.7 3.4-.3.5-.5 1-.8 1.5-.4.9-.8 1.7-1.2 2.5l-1 2-.5 1c-.2.3-.3.7-.4 1-.3.7-.6 1.3-.9 2-.6 1.4-1.2 2.7-1.7 4-.2.4-.4.9-.5 1.3-1.1 2.7-2 5.2-2.9 7.6-.2.5-.3 1-.5 1.4-.3.8-.6 1.6-.8 2.4-.4 1.2-.8 2.4-1.1 3.5-.2.5-.3 1-.5 1.5-1.1 3.9-1.8 7.1-2.3 9.3-.1.3-.1.6-.2.9-.2 1.2-.4 2.1-.4 2.5v.3z" fill="#fff"/><path d="m426.2 1609.2c79.7 22.9 122.3-8.3 157.7-33.1 27-19 43-4 64.3-15.6 21.6-11.8 22.9-31.7 55.8-45.8 16.6-7.1 45.4-5.3 57.1-.6.1 0-25.9-136.8-26-136.8-32.7 11.1-40 30.3-60.7 44.5-17.3 11.8-60.3 18-89.5 29.3-35.9 13.9-64.2 35.8-78.9 47.5-2.7 2.1-4.9 4-6.7 5.5-3.1 2.7-6.1 5.4-9 8.2-1 .9-1.9 1.8-2.8 2.7-1.4 1.4-2.8 2.8-4.2 4.2-.4.4-.8.8-1.3 1.3-8.9 9.1-17.1 18.7-24.6 29-.6.8-1.2 1.7-1.8 2.5-.2.3-.4.6-.6.9s-.4.6-.6.9c-.1.1-.1.2-.2.3-.1.2-.2.3-.3.5 0 .1-.1.1-.1.2-.1.2-.3.4-.4.6-.4.6-.8 1.2-1.2 1.7-.1.2-.3.4-.4.6-.3.4-.6.9-.9 1.3-.1.2-.2.4-.4.5-.4.6-.7 1.1-1.1 1.7 0 .1-.1.1-.1.2l-.4.6c-.1.2-.3.4-.4.6-.3.4-.5.8-.7 1.2-.1.2-.3.4-.4.6-.1.1-.1.2-.2.3s-.1.2-.2.3c-.4.6-.7 1.2-1.1 1.8-.5.8-1 1.6-1.5 2.4l-.3.5c-.1.2-.2.4-.3.6-.3.4-.5.9-.7 1.3-.3.5-.6 1-.9 1.6-.1.3-.3.5-.4.8l-.2.4c-.2.4-.4.8-.6 1.1-.1.3-.3.5-.4.8-.3.5-.5 1-.8 1.4-.2.4-.4.7-.6 1.1-.6 1.1-1.2 2.3-1.7 3.4-.3.5-.5 1-.8 1.5-.4.9-.8 1.7-1.2 2.5l-1 2-.5 1c-.2.3-.3.7-.4 1-.3.7-.6 1.3-.9 2-.6 1.4-1.2 2.7-1.7 4-.2.4-.4.9-.5 1.3-1.1 2.7-2 5.2-2.9 7.6-.2.5-.3 1-.5 1.4-.3.8-.6 1.6-.8 2.4 0 0 0 .1-.1.3z" fill="#5b2448"/><path d="m734.8 1478.2c-10.8-.1-21.5-2.2-31.6-6.2-5.9-2.3-10.8-4.4-15.2-6.2-16.1-6.9-24.2-10.4-51.2-7-1.6.2-3.2-.9-3.4-2.6-.2-1.6.9-3.2 2.6-3.4h.1c28.6-3.5 37.7.4 54.3 7.5 4.3 1.8 9.1 3.9 14.9 6.1 26.4 10 43.8 3.9 43.9 3.9 1.6-.5 3.3.3 3.8 1.8s-.2 3.2-1.7 3.8c-.4.1-6.4 2.3-16.5 2.3z" fill="#fff"/><path d="m711 1570.4c-12.7 0-22.7-5.1-24.9-13.6-1.5-5.7.8-11.9 6.4-17.4 5.2-5.2 12.8-9.2 21.5-11.5 18.5-4.8 35.3.5 38.3 11.9s-9.3 24.1-27.8 28.8c-4.5 1.2-9 1.8-13.5 1.8zm16.1-39.2c-4 0-8.1.5-12 1.5-7.8 2-14.6 5.6-19.2 10.2-4.3 4.2-6.1 8.7-5.1 12.6 2.2 8.4 16.9 12.2 32.2 8.3s26.4-14.3 24.2-22.8c-1.4-6.1-9.7-9.8-20.1-9.8z" fill="#5b2448"/><path d="m474.5 1644.1c-18.3 0-38-3.6-54.2-15.1-.9-.7-1.4-1.5-1-2.5 0 0 0 0 0-.1s0-.1 0-.2v-.1c.1-.5.2-1.4.5-2.7.1-.3.1-.6.2-.9.6-3 1.4-6.2 2.3-9.5.2-.5.3-1 .5-1.6.3-1.1.7-2.3 1.1-3.6.3-.8.5-1.6.8-2.5.1-.4.3-.9.5-1.5.9-2.5 1.8-5.1 2.9-7.7.2-.4.3-.9.5-1.3.6-1.4 1.1-2.7 1.7-4 .4-1 .9-2 1.3-3l.5-1c.2-.5.5-1 .7-1.5l.3-.6c.4-.9.8-1.7 1.2-2.6l.2-.4.6-1.2c.5-1.1 1.1-2.2 1.7-3.4.2-.3.4-.7.6-1.1s.5-.9.7-1.4c.1-.2.3-.5.4-.7l.9-1.5c.4-.8.9-1.6 1.3-2.4l.3-.5c.2-.3.3-.6.5-.8.2-.3.4-.7.6-1.1.5-.8.9-1.6 1.5-2.4.5-.8 1-1.6 1.5-2.4.4-.6.7-1.2 1.1-1.8l.4-.6c.5-.8 1.1-1.7 1.6-2.5.1-.2.2-.4.4-.6.4-.6.8-1.3 1.3-1.9.5-.8 1.1-1.6 1.6-2.4.1-.1.1-.1.1-.2.4-.5.7-1.1 1.1-1.6.2-.3.4-.6.7-.9.6-.8 1.2-1.7 1.8-2.6 7.6-10.3 15.9-20.1 24.8-29.2.3-.4.7-.7 1.1-1.1l.2-.2c1.3-1.3 2.7-2.8 4.3-4.2.9-.9 1.9-1.8 2.8-2.7 3.2-3 6.2-5.7 9.1-8.2 2.1-1.8 4.4-3.7 6.8-5.6 13.6-10.7 38.2-26.8 77.9-42.5 1.3-.5 2.7.2 3.2 1.4.5 1.3-.1 2.7-1.4 3.2-39.1 15.5-63.3 31.3-76.7 41.8-2.3 1.8-4.5 3.6-6.6 5.4-2.9 2.5-5.8 5.2-8.9 8.1-.9.9-1.9 1.8-2.8 2.7-1.5 1.4-2.9 2.8-4.2 4.2l-.2.2c-.3.3-.7.7-1 1-8.8 9-17 18.6-24.4 28.7-.6.8-1.2 1.7-1.8 2.5-.2.3-.4.6-.6.9-.4.6-.8 1.1-1.1 1.6 0 0 0 .1-.1.1 0 .1-.1.1-.1.2-.5.7-1 1.5-1.5 2.2-.4.7-.9 1.3-1.3 1.9-.1.2-.2.3-.3.5l-.1.1c-.5.8-1.1 1.6-1.6 2.4l-.4.6c-.4.6-.8 1.2-1.1 1.8-.5.8-1 1.5-1.4 2.3-.5.8-1 1.6-1.4 2.4-.2.4-.4.7-.6 1s-.3.6-.5.8l-.3.5c-.4.7-.9 1.5-1.3 2.3l-.8 1.5c-.1.2-.3.5-.4.8-.2.4-.5.9-.7 1.4-.2.4-.4.8-.6 1.1-.6 1.2-1.2 2.3-1.7 3.3-.2.4-.4.8-.6 1.1l-.2.4c-.4.8-.8 1.7-1.2 2.5l-.3.6c-.2.5-.4.9-.7 1.4l-.5 1c-.5 1-.9 2-1.3 2.9-.6 1.3-1.1 2.5-1.7 3.9-.2.4-.4.8-.5 1.2-1 2.5-2 5-2.8 7.5-.2.5-.3.9-.5 1.4-.3.9-.6 1.6-.8 2.4-.4 1.2-.7 2.4-1.1 3.5-.2.5-.3 1-.4 1.5-.9 3.2-1.7 6.3-2.2 9.1-.1.3-.1.5-.2.8-.1.6-.2 1.1-.3 1.5 23.3 15.8 54.4 14.7 76.5 10.9 73.4-12.4 247.9-60.9 270.2-67.1-9.7-39-25.6-123.2-33.3-164.1-2.5-13.3-4.5-23.9-4.8-25-.4-1.3.3-2.7 1.6-3.2 1.3-.4 2.6.2 3.1 1.5.3.7.8 3.6 5 25.8 7.9 41.7 24.2 128.4 33.8 166.1.3 1.3-.4 2.7-1.7 3-1.9.5-194.7 54.6-273 67.9-8.8 1.9-17.9 2.7-27.1 2.7z" fill="#5b2448"/><path d="m614.9 1509.8c-2.3 0-4.4-1-5.9-2.8-.2-.3-24.6-29.6-68.9-30.9-4.1-.1-7.4-3.6-7.3-7.7s3.6-7.4 7.7-7.3c51.4 1.6 79 35.1 80.1 36.5 2.6 3.2 2.1 7.9-1.1 10.5-1.3 1.1-2.9 1.7-4.6 1.7z" fill="#ffcf2d"/><path d="m584.1 1531.7c-2.1 0-4.2-.9-5.6-2.5-.3-.3-29.2-32.1-72.1-32.1-4.1 0-7.5-3.4-7.5-7.5s3.4-7.5 7.5-7.5c49.8 0 82 35.6 83.3 37.1 2.7 3.1 2.5 7.8-.6 10.6-1.4 1.2-3.2 1.9-5 1.9z" fill="#ffcf2d"/><path d="m547.4 1552.3c-2.1 0-4.1-.9-5.5-2.4-.2-.2-24.5-25.7-64.5-24.3-4.1.1-7.6-3.1-7.7-7.3-.1-4.1 3.1-7.6 7.2-7.7 47.1-1.6 74.9 27.9 76.1 29.2 2.8 3 2.6 7.8-.4 10.6-1.5 1.2-3.3 1.9-5.2 1.9z" fill="#ffcf2d"/><path d="m2.5 1741.3c10.2 11.5 31.3 27.3 74.8 30 80 4.9 286.5-3.8 286.5-3.8-7.2-35.2 12.3-186.8 11.1-193.4-44 7.8-56.4 32.9-110.1 34.7-28.2 1-47.9-1.6-78.9 2.8-38.1 5.4-55.3 15.7-72.3 23.7-3.1 1.4-5.7 2.7-7.7 3.9-3.7 1.9-7.2 3.9-10.6 5.9-1.1.7-2.2 1.3-3.3 2-1.7 1-3.4 2.1-5.1 3.1-.5.3-1 .6-1.5 1-10.7 6.8-20.9 14.4-30.5 22.6-.8.7-1.6 1.4-2.4 2.1-.3.2-.6.5-.8.7s-.6.5-.8.7c-.1.1-.2.1-.2.2-.1.1-.3.3-.4.4-.1 0-.1.1-.1.1-.7.6-1.4 1.3-2.1 1.9-.2.2-.4.3-.6.5-.4.3-.8.7-1.1 1.1-.2.1-.3.3-.5.4-.5.5-1 .9-1.5 1.4l-.1.1-.5.5c-.2.2-.4.3-.5.5-.3.3-.7.7-1 1-.2.2-.3.3-.5.5-.1.1-.2.1-.2.2s-.2.2-.2.2c-.5.5-1 1-1.4 1.5-.7.7-1.3 1.4-2 2-.3.3-.6.6-.8.9-.4.4-.7.7-1 1.1-.6.7-1.2 1.3-1.8 2-.4.4-.8.8-1.1 1.3-.2.2-.4.4-.6.7-.4.4-.7.8-1.1 1.2-.3.3-.5.6-.8.9-.8 1-1.7 1.9-2.4 2.9-.4.4-.8.9-1.1 1.3-.6.7-1.2 1.5-1.8 2.2-.5.6-.9 1.2-1.4 1.8l-.7.9c-.2.3-.4.6-.7.9-.4.6-.9 1.1-1.3 1.7-.9 1.2-1.7 2.3-2.5 3.5-.3.4-.5.8-.8 1.1-1.7 2.4-3.2 4.6-4.5 6.8-.3.4-.6.9-.8 1.3-.5.7-.9 1.5-1.3 2.2-.7 1.1-1.3 2.2-1.9 3.2-.3.5-.5.9-.8 1.4-2 3.6-3.4 6.5-4.4 8.6-.1.3-.3.5-.4.8-.5 1.1-.8 1.9-1 2.4-.1.1-.1.2-.1.3-.4-0-.4-0-.4.1z" fill="#fff"/><path d="m10.8 1724.9c70.1 40.2 117 27.5 156.1 9.2 32-15 52 0 76-5.6 23.9-5.6 29.5-25.7 64.7-31.9 17.8-3.2 45.4 5.1 55.8 12.4.1.1 13.6-136.9 13.5-136.9-32-1-53.6 18.2-77 27.3-19.6 7.6-82.6 6.4-113.6 10.8-38.1 5.4-55.7 17-72.7 25-3.1 1.4-5.7 2.7-7.7 3.9-3.7 1.9-7.2 3.9-10.6 5.9-1.1.7-2.2 1.3-3.3 2-1.7 1-3.4 2.1-5.1 3.1-.5.3-1 .6-1.5 1-10.7 6.8-20.9 14.4-30.5 22.6-.8.7-1.6 1.4-2.4 2.1-.3.2-.6.5-.8.7s-.6.5-.8.7c-.1.1-.2.1-.2.2-.1.1-.3.3-.4.4-.1 0-.1.1-.1.1-.2.2-.4.3-.6.5-.5.5-1 .9-1.5 1.4-.2.2-.4.3-.6.5-.4.3-.8.7-1.1 1.1-.2.1-.3.3-.5.4-.5.5-1 .9-1.5 1.4l-.1.1-.5.5c-.2.2-.4.3-.5.5-.3.3-.7.7-1 1-.2.2-.3.3-.5.5-.1.1-.2.1-.2.2s-.2.2-.2.2c-.5.5-1 1-1.4 1.5-.7.7-1.3 1.4-2 2l-.4.4c-.2.2-.3.3-.5.5-.4.4-.7.7-1 1.1-.4.4-.8.9-1.2 1.3-.2.2-.4.4-.6.7l-.3.3c-.3.3-.6.6-.9 1-.2.2-.4.4-.6.7-.4.4-.7.8-1.1 1.2-.3.3-.5.6-.8.9-.8 1-1.7 1.9-2.4 2.9-.4.4-.8.9-1.1 1.3-.6.7-1.2 1.5-1.8 2.2-.5.6-.9 1.2-1.4 1.8l-.7.9c-.2.3-.4.6-.7.9-.4.6-.9 1.1-1.3 1.7-.9 1.2-1.7 2.3-2.5 3.5-.3.4-.5.8-.8 1.1-1.7 2.4-3.2 4.6-4.5 6.8-.3.4-.6.9-.8 1.3-.5.7-.9 1.5-1.3 2.2-.3.2-.4.4-.5.5z" fill="#5b2448"/><path d="m362.6 1667.6c-6.7 0-23-1.6-42.8-14.9-5.3-3.5-9.6-6.7-13.4-9.5-14.1-10.4-21.2-15.6-48.3-18.5-1.6-.2-2.8-1.7-2.7-3.3.2-1.6 1.7-2.8 3.3-2.7 28.7 3 36.7 8.9 51.2 19.6 3.7 2.8 8 5.9 13.2 9.3 23.4 15.7 41.7 13.8 41.9 13.7 1.6-.2 3.1 1 3.3 2.7.2 1.6-1 3.1-2.6 3.3-1 .3-2.1.4-3.1.3z" fill="#fff"/><path d="m306.7 1758.2c-18.5 0-33-8.8-33.3-20.3-.3-11.8 14.5-21.3 33.7-21.8 8.9-.2 17.3 1.7 23.7 5.2 6.9 3.8 10.7 9.2 10.8 15 .3 11.8-14.5 21.3-33.7 21.8-.3.1-.8.1-1.2.1zm-28.3-20.3c.2 8.7 13.7 15.7 29.5 15.4s29-8 28.8-16.7c-.1-4-3-7.8-8.3-10.8-5.7-3.2-13.2-4.8-21.2-4.6-15.8.3-29 8-28.8 16.7z" fill="#5b2448"/><path d="m146.9 1775.3c-27.2 0-51.7-.4-69.8-1.5-23.7-1.5-56.3-8-76.5-30.8-.8-.7-1-1.8-.4-2.7v-.1c0-.1.1-.1.1-.2.2-.5.5-1.3 1-2.5.1-.3.2-.5.4-.8 1.3-2.8 2.8-5.7 4.4-8.7.3-.5.5-.9.8-1.4.6-1 1.2-2.1 1.9-3.2.4-.7.9-1.5 1.4-2.2.2-.4.5-.8.8-1.3 1.4-2.2 2.9-4.5 4.5-6.8.2-.4.5-.8.8-1.2.9-1.2 1.7-2.4 2.6-3.5.6-.8 1.3-1.7 2-2.6l.7-.9c.3-.4.7-.9 1-1.3l.4-.5c.6-.7 1.2-1.5 1.8-2.2l.3-.4c.3-.3.5-.7.8-1 .8-.9 1.6-1.9 2.5-2.9.3-.3.5-.6.9-1 .3-.3.7-.8 1-1.2.2-.2.4-.4.5-.6l1.2-1.3c.6-.7 1.2-1.3 1.8-2l.4-.4c.2-.2.4-.5.7-.7.2-.3.5-.6.8-.9.6-.7 1.3-1.3 2-2 .6-.7 1.3-1.3 2-2l1.5-1.5.5-.5c.7-.7 1.4-1.4 2.2-2.1l.5-.5c.5-.5 1.1-1 1.7-1.6l.1-.1c.7-.6 1.3-1.2 2-1.9l.2-.2c.4-.4.9-.8 1.4-1.3.2-.2.5-.5.8-.7l2.4-2.1c9.7-8.3 20-16 30.8-22.8.4-.3.8-.5 1.3-.8l.3-.2c1.6-1 3.3-2.1 5.1-3.2 1.1-.7 2.2-1.3 3.4-2 3.8-2.2 7.3-4.1 10.7-6 2.5-1.3 5.1-2.6 7.9-3.9 15.7-7.3 43.3-17.4 85.6-23.7 1.4-.2 2.6.7 2.8 2.1s-.7 2.6-2.1 2.8c-41.6 6.2-68.8 16.1-84.2 23.3-2.7 1.2-5.2 2.5-7.6 3.8-3.4 1.8-6.8 3.7-10.5 5.9-1.1.7-2.2 1.3-3.3 2-1.8 1.1-3.4 2.1-5 3.1l-.3.2c-.4.2-.8.5-1.2.7-10.6 6.8-20.7 14.3-30.3 22.4-.8.7-1.6 1.4-2.3 2-.3.3-.5.5-.8.7-.5.5-1 .9-1.5 1.3-.1.1-.2.2-.2.2-.6.5-1.2 1.1-1.9 1.7l-.1.1c-.6.5-1.1 1-1.7 1.6-.2.2-.3.3-.4.4-.7.7-1.4 1.4-2.1 2l-.5.5c-.5.5-1 1-1.5 1.5-.7.7-1.3 1.3-1.9 1.9-.7.7-1.3 1.3-1.9 2-.3.3-.6.6-.8.8s-.4.5-.6.7l-.4.5c-.6.6-1.2 1.3-1.8 1.9l-1.1 1.3c-.2.2-.4.4-.6.7-.4.4-.7.8-1 1.2s-.6.7-.8.9c-.9 1-1.7 1.9-2.4 2.9-.3.3-.5.6-.8.9l-.3.4c-.6.7-1.2 1.4-1.7 2.2l-.4.5c-.3.4-.7.8-1 1.2l-.7.9c-.7.9-1.3 1.7-1.9 2.5-.8 1.1-1.7 2.2-2.5 3.4-.3.4-.5.7-.8 1.1-1.6 2.2-3.1 4.5-4.5 6.7-.3.4-.5.8-.8 1.2-.5.8-.9 1.5-1.3 2.2-.7 1.1-1.3 2.1-1.8 3.1-.3.5-.5.9-.8 1.4-1.6 2.9-3.1 5.7-4.3 8.4-.1.3-.2.5-.4.8-.2.5-.4.9-.6 1.3 19.2 20.7 49.6 26.7 72 28 74.3 4.6 259.5-2.4 283.1-3.4-1.9-60.8 8.2-146.8 12.1-179.4.7-5.8 1.2-10.4 1.3-11.3-.1-1.4 1-2.6 2.4-2.6 1.3-.1 2.4.9 2.6 2.1.1.6.1 1.2-1.3 12.3-3.9 33-14.2 120.7-12 181.2.1 1.4-1 2.5-2.4 2.6-1.7.2-124.2 5.1-216.4 5.1zm227-200.6v.2s0-.1 0-.2z" fill="#5b2448"/><path d="m218.8 1671.1c-2.8 0-5.4-1.6-6.7-4.1-.2-.3-19.1-35.9-62.1-47.3-4-1.1-6.4-5.2-5.3-9.2s5.2-6.4 9.2-5.3c49.6 13.2 70.7 53.2 71.6 54.9 1.9 3.7.5 8.2-3.2 10.1-1.1.6-2.3.9-3.5.9z" fill="#ffcf2d"/><path d="m183.9 1685.4c-2.8 0-5.3-1.5-6.6-4-.2-.3-20.1-36.1-63.8-45.3-4.1-.8-6.7-4.8-5.8-8.8.8-4.1 4.8-6.7 8.8-5.8h.1c50.8 10.6 73 51.2 73.9 52.9 2 3.7.6 8.2-3.1 10.2-1.1.5-2.3.8-3.5.8z" fill="#ffcf2d"/><path d="m143.5 1697.2c-2.7 0-5.2-1.5-6.5-3.8-.2-.3-18-30.6-57.3-38.3-4.1-.8-6.7-4.7-5.9-8.8s4.7-6.7 8.8-5.9c46.3 9.1 66.6 44.2 67.5 45.7 2 3.6.8 8.2-2.8 10.2-1.3.5-2.6.9-3.8.9z" fill="#ffcf2d"/><path d="m805.9 700.1c121 14 285 154 274.1 190.6-13.7 45.8-217.1-66.6-274.1-190.6z" fill="#5b2448"/><path d="m1079.9 890.7c-13.7 45.8-217.1-66.6-274.1-190.6 55.8 6.5 120.8 39.7 173.5 77.3.2.1.4.3.6.4 13.5 9.7 26.3 19.6 37.8 29.5 0 0 .1.1.2.1 39.4 34 63.3 66.6 62 83.3z" fill="#5b2448"/><path d="m979.4 777.4c-48.4-34.1-109.7-65-173.5-77.3 55.8 6.4 120.8 39.7 173.5 77.3z" fill="#f94f46"/><path d="m242.6 840.2c55.2 22.9 185.7 72.8 303 86.9l65.2-43.4z" fill="#f4ada2"/><path d="m545.5 927c-100.2-24.8-145-49.2-178.3-72.2l-10.4-1.2c29.6 21.2 66.2 43.6 144 66.5 15 2.8 29.9 5.2 44.7 6.9z" fill="#9b3c82"/><path d="m1041.1 829c-8.3 9.4-17.3 18.1-27 26.1-2.1 1.8-4.4 3.6-6.7 5.4-68.5 53.6-199 109.1-376.8 82.6-77.4-11.5-221.8-40-300.8-118-39.8-39.3 14-14 28-6-23-21-77-90-40-75-.6-.8-30.6-43.8 8-22 0 0-20-32.6 36 1 65 39 86 42 85 10 0 0 50 32 112 20s234-37.3 240-38l7-15h1.1c14.2.8 166.7 11.6 234.2 128.9z" fill="#f4ada2"/><g fill="#9b3c82"><path d="m388 780.6c.4.3.9.4 1.4.4.8 0 1.6-.4 2.1-1.1.8-1.1.5-2.7-.6-3.5-14.5-10-45.7-34.4-65.1-54.3-4.9-2.7-8.6-4.4-11.4-5.3l.3.3c17.7 21 56.6 52.1 73.3 63.5z"/><path d="m382.9 813.6c.4.3 1 .5 1.5.5.8 0 1.5-.4 2-1 .8-1.1.6-2.7-.5-3.5-11.2-8.6-45.7-37.7-68.2-65.6-3.4-1.4-5.9-1.9-7.8-2 22.5 30 60.1 61.7 73 71.6z"/><path d="m377.1 837.7c.4.2.8.4 1.3.4.9 0 1.7-.4 2.1-1.2.7-1.2.4-2.7-.8-3.4-.2-.1-10.9-6.4-21.8-14.4.4.4-.4-.3 0 0-4-2.3-11.2-6-18.6-9.2.1.2.2.3.4.4 11 11.1 36.3 26.7 37.4 27.4z"/><path d="m1041.1 829c-8.3 9.4-17.3 18.1-27 26.1-2.1 1.8-4.4 3.6-6.7 5.4-57.3-75.9-143.7-138.8-201.5-160.4h1.1c14.1.8 166.6 11.6 234.1 128.9z"/></g><path d="m1115.9 818.6c-.4 1.1-.9 2.1-1.4 3.2-10.2 23.6-21.8 46.6-34.6 68.9.1-2.8-.2-5.6-1-8.3-12.8-45.6-137.2-156.1-273-182.3 24.7-101.6 154.5-334 275-317.6 1.7.2 3.4.5 5 .8 108.1 21.1 112.5 242.7 30 435.3z" fill="#f94f46"/><path d="m1115.9 818.6c-.4 1.1-.9 2.1-1.4 3.2-10.3 23.6-21.8 46.6-34.6 68.9.1-2.8-.2-5.6-1-8.3 83.9-150 115.7-341 72-439.5-14.8-33.4-37-53.4-66-59.6-1.3-.3-2.7-.5-4-.7-3.2-.5-6.4-.8-9.7-.9 2.2-1.5 4.5-3 6.7-4.5 2.7.3 5.4.7 8 1.3 30.7 6.5 54.1 27.5 69.6 62.5 38 85.5 19.9 239.9-39.6 377.6z" fill="#fcb6b1"/><path d="m1113.4 395.1c14.4-10.3 35.8-30.3 43.4-37.5-1.5-1-2.9-1.9-4.3-2.8-8.2 7.8-28.6 26.7-42 36.3z" fill="#fcb6b1"/><path d="m165.9 776.1c25.5-54.9-14-18-14-18 25-65-15-20-15-20 25-75-10-32-10-32 24-57-3-32-3-32s-38 38-21 71c-4 30 9 36 9 36 0 21 12 28 12 28 2.7 17.1 19.1 24 32 24 9.9 0 19.7-1.4 29.3-3.9-.1 0-39.3-10.1-19.3-53.1z" fill="#f4ada2"/><path d="m131.9 693.4c-11.6 11.4-24.8 28.1-31.8 44.9.7 2.5 1.5 4.7 2.8 6.9 4.6-13.7 14.2-27.9 24-39.2 2-4.7 3.6-8.9 5-12.6z" fill="#9b3c82"/><path d="m140.5 726.8c-15.5 15.5-26.9 33.1-32.7 50.5 2.1 2.8 4.1 3.7 4.1 3.7 4.4-14.7 13.1-29.3 25-43 1.4-3.8 2.6-7.8 3.6-11.2z" fill="#9b3c82"/><path d="m151.9 758.1c1.7-4.4 3.1-8.3 4.2-11.7-10.9 10.9-33.5 36-36.8 58.4 2.2 2.8 4.6 4.3 4.6 4.3.7-17.5 16.7-38.4 28-51-.2 0 0 0 0 0z" fill="#9b3c82"/><path d="m841.4 1281.3c-25.3 13.5-62.4 24.2-114.3 28.6-.1-.9-.2-1.8-.3-2.8 0-.3-.1-.6-.1-.9-2.2-20.3-4.1-41.4-4.9-58.6 26.8-16.6 51.3-35.3 73.4-48.9.5-.3 1.1-.7 1.6-1 29.2-17.7 54.2-26.2 75-8.5 24.1 20.3 24.6 62.8-30.4 92.1z" fill="#5b2448"/></svg></g><!--ITEM: Illustration component 2--><g transform="translate(960.0 2186.4) rotate(0.0 843.5999999999999 179.39999999999986)  scale(1.0755861951138346 1.0757394959494861)"><svg width="1568.633" height="333.538" viewBox="0.0 0.0 1568.633 333.538"><path d="m5 333.538a5 5 0 0 1 -4.047-7.938c64.026-88.277 184.281-170.486 338.613-231.481a1374.4 1374.4 0 0 1 231.134-68.237c81.412-16.529 161.123-25.224 236.916-25.842 151.7-1.242 304.759 26.251 442.665 79.492 65.542 25.3 126.1 55.834 179.993 90.743s100.023 73.489 137.075 114.646a5 5 0 1 1 -7.431 6.69c-36.465-40.5-81.913-78.5-135.08-112.943-53.317-34.535-113.258-64.751-178.16-89.807-136.742-52.792-288.519-80.054-438.978-78.821-75.153.613-154.222 9.24-235.01 25.642a1364.358 1364.358 0 0 0 -229.445 67.737c-152.585 60.3-271.271 141.3-334.195 228.054a4.991 4.991 0 0 1 -4.05 2.065z" fill="#ffcf2d"/></svg></g><!--ITEM: Illustration component 3--><g transform="translate(871.1999999999999 766.8) rotate(0.0 188.40000000000003 129.0)  scale(1.0626656889841506 1.0651385918702678)"><svg width="354.58" height="242.222" viewBox="0.0 0.0 354.58 242.222"><g fill="#90c6f5"><path d="m352.083 242.223a2.566 2.566 0 0 1 -.261-.014c-49.438-5.135-110.15-21.566-170.953-46.267-57.141-23.214-106.699-50.657-135.969-75.293a2.5 2.5 0 0 1 3.221-3.826c28.881 24.313 77.95 51.462 134.626 74.487 60.378 24.528 120.606 40.839 169.587 45.926a2.5 2.5 0 0 1 -.255 4.987z"/><path d="m291.688 161.141a2.492 2.492 0 0 1 -.552-.062c-48.488-10.923-106.842-34.391-164.312-66.079-54.009-29.788-99.988-62.878-126.148-90.791a2.5 2.5 0 0 1 3.648-3.419c25.816 27.546 71.346 60.287 124.914 89.828 57.069 31.47 114.955 54.761 163 65.583a2.5 2.5 0 0 1 -.547 4.94z"/></g></svg></g><!--ITEM: Illustration component 4--><g transform="translate(478.79999999999995 396.0) rotate(0.0 312.6 176.39999999999998)  scale(1.0748676616470645 1.0752163842496647)"><svg width="581.653" height="328.12" viewBox="0.0 0.0 581.653 328.12"><path d="m498.16 30.457 5.607 11.072-11.94 6.031-5.35-11.819z" fill="#9b3c82"/><path d="m527.62 203.319 2.469 11.241h-20.545l3.744-16.306z" fill="#9b3c82"/><path d="m79.368 269.379-1.543 12.464 15.002-9.283-3-13z" fill="#9b3c82"/><path d="m54.806 97.925-2.808 11.586 14.829-1.951 1-13z" fill="#9b3c82"/><path d="m400.35 140.633a5.46 5.46 0 0 1 -1.462-9.714c67.89-46.573 107.182-86.761 99.272-100.462-10.484-18.157-102.36 16.791-212.46 78.653a5.475 5.475 0 0 1 -3.829.577c-123.426-26.722-222.389-32.203-227.065-11.762-3.527 15.422 46.719 41.385 125.309 65.914a5.461 5.461 0 0 1 1.462 9.715c-67.89 46.572-109.183 86.761-101.272 100.462 10.484 18.159 104.363-16.792 214.459-78.654a5.474 5.474 0 0 1 3.829-.576c123.427 26.722 224.389 32.2 229.065 11.762 3.528-15.422-48.718-41.385-127.308-65.915z" fill="#9b3c82"/><path d="m394.4 150.146a1.572 1.572 0 0 1 -.422-2.806c72.329-48.857 118.022-91.558 109.789-105.811-10.562-18.294-106.127 16.9-217.034 79.215a5.716 5.716 0 0 1 -4 .6c-124.333-26.909-226.025-32.425-230.733-11.833-3.681 16.092 52.9 43.571 136.814 69.044a1.2 1.2 0 0 1 .322 2.139c-72.7 49.04-118.69 91.954-110.437 106.25 10.565 18.3 106.16-16.917 217.091-79.247a5.546 5.546 0 0 1 3.881-.584c124.361 26.923 226.087 32.444 230.8 11.848 3.666-16.043-52.566-43.407-136.071-68.815z" fill="#66b0f0"/><g fill="#ffcf2d"><path d="m59.757 152.1c-30.473 0-55.378-13.658-59.239-34.543-4.661-25.211 23.087-51.557 61.856-58.722s74.1 7.514 78.761 32.727c4.661 25.213-23.087 51.556-61.855 58.723a107.592 107.592 0 0 1 -19.523 1.815zm22.381-90.106a103.9 103.9 0 0 0 -18.856 1.758c-36.057 6.666-62.007 30.4-57.848 52.9s36.871 35.385 72.938 28.719 62.006-30.4 57.847-52.9c-3.419-18.482-26.105-30.477-54.081-30.477z"/><path d="m472.757 95.1c-30.473 0-55.378-13.658-59.239-34.543-4.661-25.211 23.087-51.557 61.856-58.722s74.1 7.514 78.761 32.727c4.661 25.213-23.087 51.556-61.855 58.723a107.592 107.592 0 0 1 -19.523 1.815zm22.381-90.106a103.9 103.9 0 0 0 -18.856 1.758c-36.057 6.666-62.007 30.4-57.848 52.9s36.866 35.383 72.938 28.717 62.006-30.4 57.847-52.9c-3.419-18.48-26.105-30.475-54.081-30.475z"/><path d="m466.358 75.693a2.458 2.458 0 0 1 -.5-.051c-13.625-2.778-22.848-10.329-24.671-20.2a2.5 2.5 0 1 1 4.916-.909c1.44 7.793 9.2 13.852 20.753 16.208a2.5 2.5 0 0 1 -.5 4.95z"/><path d="m488.561 75.685a2.5 2.5 0 0 1 -.451-4.959c10.27-1.9 19.425-6.206 25.776-12.128 6.048-5.64 8.771-12.037 7.666-18.013a15.7 15.7 0 0 0 -4.341-8.107 2.5 2.5 0 1 1 3.589-3.478 20.6 20.6 0 0 1 5.663 10.674c1.427 7.713-1.831 15.732-9.172 22.578-7.039 6.563-17.082 11.318-28.278 13.388a2.46 2.46 0 0 1 -.452.045z"/><path d="m504.1 243.757a50.833 50.833 0 0 1 -20.279-3.929 2.5 2.5 0 1 1 2-4.581c8.062 3.525 18.735 4.429 29.284 2.479 9.025-1.668 17.4-5.305 23.584-10.239a2.5 2.5 0 1 1 3.119 3.908c-6.814 5.438-15.975 9.433-25.795 11.248a65.677 65.677 0 0 1 -11.913 1.114z"/><path d="m551.117 215.206a2.555 2.555 0 0 1 -.358-.025 2.5 2.5 0 0 1 -2.12-2.83 14.661 14.661 0 0 0 -.087-4.765c-1.314-7.113-7.844-12.774-17.915-15.533a2.5 2.5 0 1 1 1.321-4.822c11.994 3.285 19.833 10.373 21.51 19.446a19.63 19.63 0 0 1 .12 6.384 2.5 2.5 0 0 1 -2.471 2.145z"/><path d="m62.716 296.04a2.5 2.5 0 0 1 -2.162-1.242 19.709 19.709 0 0 1 -2.369-6.354c-1.574-8.508 2.646-17.5 11.578-24.656a2.5 2.5 0 0 1 3.127 3.9c-7.449 5.972-11.016 13.206-9.789 19.846a14.745 14.745 0 0 0 1.773 4.746 2.5 2.5 0 0 1 -2.158 3.759z"/><path d="m94.133 309.755a54.3 54.3 0 0 1 -15.167-2.072 2.5 2.5 0 1 1 1.4-4.8 54.779 54.779 0 0 0 24.745.843 54.97 54.97 0 0 0 21.7-8.823 2.5 2.5 0 0 1 2.891 4.079 59.976 59.976 0 0 1 -23.685 9.661 65.489 65.489 0 0 1 -11.884 1.112z"/><path d="m64.257 133.735c-14.711 0-27.549-5.249-33.263-14.217a2.5 2.5 0 1 1 4.216-2.686c6.132 9.624 22.536 14.1 39.9 10.894a2.5 2.5 0 0 1 .908 4.917 64.78 64.78 0 0 1 -11.761 1.092z"/><path d="m33.1 101.611a2.5 2.5 0 0 1 -2.177-3.725c5.8-10.32 19.1-18.523 34.712-21.409a2.5 2.5 0 0 1 .908 4.917c-14.188 2.623-26.168 9.881-31.262 18.942a2.5 2.5 0 0 1 -2.181 1.275z"/><path d="m499.757 262.1c-30.473 0-55.378-13.658-59.239-34.543-4.661-25.213 23.087-51.556 61.856-58.724s74.1 7.514 78.761 32.727c4.661 25.213-23.087 51.556-61.855 58.723a107.592 107.592 0 0 1 -19.523 1.817zm22.381-90.108a103.9 103.9 0 0 0 -18.856 1.758c-36.057 6.666-62.007 30.4-57.848 52.9s36.871 35.385 72.938 28.719 62.006-30.4 57.847-52.9c-3.419-18.48-26.105-30.475-54.081-30.475z"/><path d="m89.757 328.1c-30.473 0-55.378-13.658-59.239-34.543-4.661-25.211 23.087-51.557 61.856-58.722s74.1 7.514 78.761 32.727c4.661 25.213-23.087 51.556-61.855 58.723a107.592 107.592 0 0 1 -19.523 1.815zm22.381-90.108a103.9 103.9 0 0 0 -18.856 1.758c-36.057 6.666-62.007 30.4-57.848 52.9s36.871 35.385 72.938 28.719 62.006-30.4 57.847-52.9c-3.419-18.48-26.105-30.475-54.081-30.475z"/></g><circle cx="255.154" cy="169.336" fill="#fff" r="6.5"/><circle cx="294.379" cy="164.058" fill="#fff" r="6.5"/><circle cx="333.998" cy="157.249" fill="#fff" r="6.5"/></svg></g></svg>