<svg xmlns="http://www.w3.org/2000/svg" viewBox="0 0 2800 2800" width="2800" height="2800"><g transform="translate(2088.0 2101.0) rotate(0.0 205.0 35.0) scale(1.5413591780420226 1.5328019619865114)"><svg width="265.999" height="45.668" viewBox="0 0 265.999 45.668"><ellipse cx="133" cy="22.834" fill="#5b2448" rx="133" ry="22.834"/></svg></g><g transform="translate(434.0 834.0) rotate(0.0 819.5 624.5) scale(0.9996950289722476 0.9992)"><svg width="1639.5" height="1250" viewBox="0 0 1639.5 1250"><path d="M1513.1 1206.1c34 4 84.8-5.1 113-50 39-62-31-188-31-188zm-1183-179c-8 61 19 133 69 156 51.7 23.8 151-19 175-160z" fill="#5b2448"/><path d="M1628.1 1153.1c-60 132-277.5 116.5-372 22l-661-.2c-28.8 15-122 51.2-198 7.2 132 38 258-183 67-482 177-301 415.8-182.2 415.8-182.2 12.9-6 22.5-11.8 34.2-19.8l262 27 20 38 82 42s56.8 15.9 45 296c-12 284 224 369 305 252z" fill="#66b0f0"/><path d="M1003 674.5c-1.8 3.7-15.4 10.2-33.9 28.6 0 0-80 249-46 471.8h-228c25.3-338.9 220-499.8 220-499.8s4.8-23.3 7.2-34.1c12-7.6 57.1-48.7 57.1-48.7S993 646 1003 674.5z" fill="#f94f46"/><path d="M978.6 708.6c-25 0-54.3-12.7-67.7-30.9-.8-1.1-.6-2.7.5-3.5s2.7-.6 3.5.5c14.9 20.1 52.4 33.4 77.1 27.3 1.3-.3 2.7.5 3 1.8s-.5 2.7-1.8 3h-.1c-4.7 1.3-9.6 1.9-14.5 1.8z" fill="#66b0f0"/><path d="M869 656.1c3.6 1.9 7.7 2.9 11.8 2.8 21.8 0 55.4-22.4 98.7-65.9 1.7 7.4 3.3 15.1 4.9 23.1 9.5 46.1 19.3 93.8 47.7 101.6 2.6.7 5.4 1.1 8.1 1.1 17.7 0 39.5-14.3 66.3-43.6 28.9-31.6 67.4-78.3 91-111.5l-1.4-.7-1.8-3.5c-23.3 33-62.3 80.4-91.5 112.3s-52.6 45.7-69.4 41c-25.4-7-35.4-55.2-44.1-97.8-1.9-9.2-3.7-18-5.7-26.3 1-1.1 2.1-2.1 3.1-3.2 1-1 .9-2.6-.1-3.5s-2.6-.9-3.5.1c-.5.5-1 1.1-1.6 1.6-.5-.3-1.2-.4-1.8-.2-1.3.3-2.2 1.7-1.8 3 .1.3.1.5.2.8-43 43.6-76.7 66.7-97.1 66.7-3.4.1-6.7-.7-9.6-2.2-12.1-6.6-15.3-28.5-8.3-58.6 4.6-20.2 12.6-51.2 23.4-78.6l-6.6 3.3c-9.9 26.5-17.3 55.2-21.7 74.3-7.6 32.7-3.6 56 10.8 63.9zm381.6 350.8c13.3-44.4 38.9-85.7 70.3-113.3.8-.7 1-1.7.7-2.7-.4-1.3-1.8-2-3.2-1.6-30.2 10-63.5 38.2-84.9 71.8-.7 1.2-.4 2.7.8 3.5 1.2.7 2.7.4 3.5-.8 18-28.2 44.4-52.4 70-64.8-27.6 27.8-49.9 65.8-62 106.4-15.1 50.4-14.6 103.9 1.3 155.8-21.1-31.4-40.8-73-57.7-121.8-18.9-54.5-32.8-114.2-39.3-168.2v-.1c-.2-1.4-1.4-2.3-2.8-2.1s-2.3 1.4-2.1 2.8c6.5 54.3 20.5 114.4 39.5 169.3 19.1 55.1 41.8 101.2 66 134h5.4c-20.7-55.7-21.8-113.7-5.5-168.2zm-547.8 4.9c18.5-66.7 20.9-129.2 17.3-162.5v-.1c-.2-1.4-1.4-2.3-2.8-2.2s-2.3 1.4-2.2 2.8c3.6 32.9 1.2 94.6-17.2 160.6-11.6 41.8-32.9 95.6-70.6 136.3 17.3-26.4 25.6-58.3 24.7-95.4-1.2-49-19.2-106.6-50.6-162.3-21.3-37.6-47-71-70.6-92.4 5.2 2.6 10.6 5.5 16 8.5 26.5 14.8 62.9 39 85.7 69.9.5.6 1.2 1 2 1 .5 0 1.1-.2 1.5-.5 1.1-.8 1.3-2.4.5-3.5-29.6-40.2-82.9-71.5-122.9-89.1-.3-.2-.5-.4-.8-.5-.4-.3-.9-.4-1.4-.4-.8-.3-1.5-.7-2.3-1 1.2 2.4 2.3 4.9 3.4 7.3 52.8 37.1 131.8 158.3 134.3 263 1.2 51.3-15.5 92.3-49.8 122l-.1.1-.2.2c-.5.5-1.1.9-1.6 1.3h8.1c56.4-41.9 85.2-111.5 99.6-163.1z" fill="#b0dcf7"/><path d="M961.7 20c35-14.8 63.7-3.4 83.5 9.7C1075.9-21.1 1167.3-4 1177 60.4c63.1-26.1 120.1 46.1 86.2 98.3-9.1 14-26.1 29.2-33.7 63.4-30.4 10.3-100.7 75.2-100.7 75.2S1014.3 159 966.3 138.6c-64.2-27.1-46-101.1-4.6-118.6z" fill="#5b2448"/><path d="M1075.6 65.4c-5.6-18.6-16.6-31.3-27.7-39.9-.9 1.3-1.8 2.6-2.7 4.1-.4-.2-.7-.5-1.1-.7 10.6 8 21.3 20.1 26.6 37.9.3 1.1 1.3 1.8 2.4 1.8.2 0 .5 0 .7-.1 1.4-.4 2.2-1.8 1.8-3.1z" fill="#9b3c82"/><path d="M1195.1 344.1c-.1 64.7-17 182-17 182-66 65-157 74-196 66-50.9-29.6-66-93-66-93 25-21 51-51 64-93-3.9-.6-7.9-1.4-12.1-2.3-15.3-3.5-31.2-9.5-44.5-17.9-12.9-8.2-23.9-20.4-27.4-35.3-3.6-15.5 1.2-31.8 8.8-45.8 7.9-14.5 18.5-27.2 27.1-41.2 22-35.6 28.1-79.9 33.7-120.8l.6-4.2c37.6.8 93.7 8.4 121 37.9 12.1 13.1 27.7 35.9 36.7 61 10.1 28.2 14.5 41.2 37.4 21.8 24.7-20.9 36.9-35.7 64.8-40.1 28.7-4.5 54.6 20.9 55.9 48.2 2 40.7-35 75.7-87 76.7z" fill="#f4ada2"/><path d="m1089.1 203.1.3-2.9c.1-.9.1-1.8.1-2.7 0-1.7-.2-3.5-.4-5.2-.5-3.4-1.4-6.8-2.8-10-2.7-6.7-7-12.7-12.5-17.5-2.9-2.5-6.1-4.7-9.5-6.3-3.5-1.7-7.2-2.8-11.1-3.4-3.8-.6-7.6-.5-11.3.3-3.7.7-7.2 2.1-10.2 4.2-3.9 2.7-4.9 8.1-2.2 12.1.5.7 1.1 1.4 1.9 2l1.3 1c2.5 1.9 4.7 3.2 6.7 4.6 2 1.3 3.7 2.6 5.3 3.6 3.1 2.3 5.9 4.2 8.9 6.5 3 2.2 6.1 4.9 9.6 8l5.5 4.8c.9.9 1.9 1.7 3 2.6 2.3 2.1 5.1 3.6 8.1 4.3 1.6.4 3.2.3 4.8-.1 2.1-.6 3.8-2.3 4.4-4.4 0-.5.1-1 .1-1.5zm-17.4 22.6c-7.9-2.7-27-8.8-43.9-20.2-2.4-1.6-5.6-1-7.2 1.4-4.1 6.2-8.9 17.3 3.6 23.6 15.4 7.7 42 5.9 48.5-.5 1-1 1-2.7 0-3.7-.3-.2-.6-.4-1-.6zM963.1 196c8.1 2.1 14.2 2.2 29.5 2.2 2.9 0 5.2 2.3 5.2 5.1 0 7.4-4.5 14.3-16.3 14.1-13.2-.2-20.2-10.8-21.6-18.4-.3-1.4.7-2.8 2.1-3.1.3-.1.7 0 1.1.1z" fill="#5b2448"/><path d="M1167.6 341.6c-1.3-.2-2.6.6-2.9 2s.6 2.7 2 2.9c9.1 1.7 18.4 2.6 27.7 2.6h.7v-5c-8.1 0-17.6-.6-27.5-2.5z" fill="#9b3c82"/><path d="M980.6 165.7c1.7-.2 3.6-.4 5.8-.5 2.2-.2 4.4-.2 7.3-.6l1.4-.2c.8-.1 1.6-.3 2.3-.7 3.9-1.9 5.5-6.5 3.7-10.4-1.5-3-3.6-5.7-6.2-7.9s-5.6-4-8.8-5.3c-.5-.2-1-.4-1.5-.5-6.4-.5-12.6-.8-18.3-.9l-.6 4.2c-1.1 8.4-2.3 16.9-3.6 25.4 3.1-.6 6-1.2 8.6-1.5 3.4-.5 6.4-.7 9.9-1.1z" fill="#5b2448"/><path d="M1044.1 404.1c-21 7-64 2-64 2-4.3 13.9-10.1 26.6-16.7 38 3.5 1 8 1.7 13.7 2 55 3 70.7-32.7 67-42z" fill="#9b3c82"/><circle cx="1080.9" cy="288.9" fill="#e57281" opacity=".52" r="34.6"/><path d="M1180.5 300.3c-1.4 0-2.5-1.1-2.5-2.5 0-.4.1-.7.2-1 11.4-25.2 28.5-34.7 40.9-38.2 8-2.4 16.4-2.9 24.6-1.6 1.4.3 2.2 1.6 1.9 3s-1.6 2.2-3 1.9c-7.5-1.1-15.1-.6-22.4 1.6-16.4 4.8-29.1 16.7-37.5 35.4-.3.8-1.2 1.4-2.2 1.4z" fill="#9b3c82"/><path d="M979.2 257.2c-.5 0-1-.2-1.3-.5-7.3-6.5-10.5-11.5-10.4-16.2.1-5.9 5.5-10.4 11.8-15.5 14.5-11.9 13-21.3 13-21.4-.2-1.1.5-2.1 1.6-2.3s2.1.5 2.3 1.6c.1.5 2.2 11.7-14.3 25.3-6.4 5.2-10.3 8.7-10.3 12.5-.1 3.4 2.8 7.5 9.1 13.1.8.7.9 2 .2 2.8-.6.3-1.2.6-1.7.6z" fill="#5b2448"/><path d="M1025.3 297.6c1.9 10.6-1.2 20.5-7.7 21.6-5.5.9-13-6.2-15.8-16.6-2.8-10.5 1.2-20.2 7.7-21.6s13.6 4.1 15.8 16.6z" fill="#9b3c82"/><path d="M1268 174.2s.1.1.2.1c.4.2.8.4 1.2.7 1.5.9 3.1 1.8 4.5 2.8.4.2.7.5 1.1.7l1.1.7c.4.2.7.5 1.1.7s.7.5 1.1.7c1.4 1 2.8 2 4.2 3.1.3.3.7.5 1 .8s.7.5 1 .8.7.5 1 .8.7.6 1 .8.6.6 1 .9.6.6 1 .9c3.6 3.3 6.9 6.9 9.9 10.8.2.3.5.6.7.9s.4.5.6.8.4.5.6.8c.4.6.8 1.1 1.2 1.7.2.4.5.7.7 1.1l1.5 2.4c.2.4.5.8.7 1.2.3.6.6 1.2 1 1.8l.9 1.7c.7 1.3 1.3 2.7 1.9 4.1.2.4.4.9.6 1.3.4.9.7 1.8 1.1 2.7s.7 1.8 1 2.8.6 1.9.9 2.8c.3.9.5 1.8.8 2.8v.2c.1.5.2 1 .4 1.5.5 2 .9 4.1 1.3 6.2.1.5.2 1.1.3 1.6s.2 1.1.2 1.6c.1.6.2 1.2.2 1.8.1.5.1 1 .2 1.5.2 1.7.3 3.4.4 5.1 0 .6.1 1.2.1 1.8 0 .8.1 1.5.1 2.3v3.1c0 1.5 0 2.9-.1 4.5v1.4c0 .6 0 1.1-.1 1.7-.1 1.9-.2 3.8-.4 5.8-.2 1.9-.4 3.9-.6 5.9-.1.5-.1 1.1-.2 1.6l-.1.8-.3 2.1-.3 2.1c-.3 2.2-.7 4.5-1.2 6.7-.1.7-.3 1.4-.4 2.1s-.3 1.5-.5 2.3-.3 1.5-.5 2.3-.3 1.5-.5 2.3c-.3 1.1-.5 2.3-.8 3.5-.1.6-.3 1.2-.5 1.8-.2 1-.5 2-.8 3-.2.6-.3 1.3-.5 1.9-1.5 5.5-3.2 11.2-5.2 17.2l-.9 2.7c-1.9 5.5-3.9 11.2-6.2 17l-.9 2.4c-1.5 3.9-3.2 7.9-4.9 12-.4.9-.8 1.9-1.2 2.8-.9 2-1.8 4.1-2.7 6.1-.4.9-.8 1.8-1.2 2.8-.5 1.2-1 2.3-1.6 3.5-.4.8-.7 1.6-1.1 2.4-.2.5-.5 1-.7 1.5l-2.7 5.7c-.5 1.1-1 2.2-1.6 3.3-1 2.1-2.1 4.2-3.1 6.4-4.4 8.9-9.2 18.1-14.3 27.6-64.1 118.5-109.6 166.4-165.3 159.9-11-1.4-21.7-4.4-31.8-8.9-1.3-.5-2.6-1-3.9-1.6-36.2-16.2-50.6-62.7-32.2-103.9s62.7-61.5 98.9-45.3c13.5 6.1 24.5 16.6 31.3 29.7l1.8-2.4c.7-.9 1.3-1.8 2-2.7.4-.6.9-1.2 1.3-1.8.5-.7 1-1.3 1.4-2 .4-.6.8-1.1 1.2-1.7l2.7-3.9c.5-.7.9-1.3 1.4-2 4.6-6.8 9.3-14.3 13.9-22.2l1.4-2.3c1.2-2 2.3-4 3.5-6.1.4-.8.9-1.5 1.3-2.3 4.2-7.6 8.4-15.4 12.2-23.2.8-1.7 1.6-3.3 2.4-5 .2-.3.3-.7.5-1l.6-1.3c.1-.3.2-.5.3-.7.7-1.5 1.4-2.9 2.1-4.4 2-4.3 3.9-8.6 5.7-12.8.3-.6.5-1.2.7-1.8.5-1.2 1-2.3 1.4-3.5.2-.6.5-1.2.7-1.8 2.2-5.6 4.3-11.1 6-16.3.1-.4.3-.8.4-1.2.3-1.1.7-2.1 1-3.1-10.1.5-20.1-1.4-29.3-5.5-36.2-16.2-50.6-62.7-32.2-103.9 17.6-39.4 58.9-59.7 94.1-47.2v-.1c.4.2.7.3 1.1.5l3.6 1.5c2.6.9 5.4 2.4 8.1 4.2z" fill="#ffcf2d"/><path d="M1049.3 546.2c-7.9-18.8-6.8-42 3.1-63.6 12.1-26.6 34.6-47.6 57.3-53.4 11.1-3 22.8-1.9 33.1 2.8-3.6-3.4-7.5-6.3-11.8-8.8-7.4-1.2-15.1-.9-22.5 1.2-24.4 6.3-47.6 27.8-60.6 56.1-10.5 22.9-11.6 47.6-3.1 67.6 3.6 8.6 8.8 15.9 15.2 21.9.7.3 1.4.6 2.1.8 5.8 2.6 11.7 4.6 17.8 6.2-13.8-5.8-24.8-16.9-30.6-30.8zm132.9-249.6c-9.1-21.4-4.6-51.3 11.5-76 14-21.5 34.5-36.5 54.8-40.1 15-2.6 29.5 1 42.2 10.4-.7-.7-1.5-1.5-2.3-2.2-.3-.3-.6-.6-1-.9-.3-.3-.6-.6-1-.9-.3-.3-.7-.6-1-.8-.3-.3-.7-.5-1-.8s-.7-.5-1-.8-.7-.5-1-.8c-1.4-1.1-2.8-2.1-4.2-3.1-.4-.2-.7-.5-1.1-.7s-.7-.5-1.1-.7l-1.1-.7c-.4-.2-.7-.5-1.1-.7-.7-.5-1.5-.9-2.2-1.3-7.8-1.9-15.9-2.2-24.1-.8-22 3.8-43.2 19.2-58.1 42.3-16.9 26.1-21.6 57.7-11.9 80.7 3.5 8.3 8.7 15.1 15.5 20.4 7.4 3.3 15.3 5.1 23.3 5.4-16.2-4.1-28-13.6-34.1-27.9z" fill="#fff"/><path d="M1222.8 322.3c-.1.3-.2.6-.3 1-.4 1.4-.9 2.8-1.3 4.2-.1.4-.3.8-.4 1.2-1.7 5.2-3.8 10.7-6 16.3-.2.6-.5 1.2-.7 1.8-.5 1.2-1 2.3-1.4 3.5-.2.6-.5 1.2-.7 1.8-1.8 4.2-3.7 8.5-5.7 12.8-.7 1.5-1.4 2.9-2.1 4.4-.1.2-.2.5-.3.7-.2.4-.4.9-.6 1.3-.2.3-.3.6-.5 1-.8 1.7-1.6 3.3-2.4 5-3.9 7.8-8 15.7-12.2 23.2-.4.8-.9 1.5-1.3 2.3-1.2 2.1-2.3 4.1-3.5 6.1-.5.8-.9 1.6-1.4 2.3-4.6 7.9-9.3 15.3-13.9 22.2-.5.7-.9 1.4-1.4 2l-2.7 3.9c-.4.6-.8 1.2-1.2 1.7-.5.7-1 1.3-1.4 2-.4.6-.9 1.2-1.3 1.8-.7.9-1.3 1.8-2 2.7l-1.8 2.4c-.7.9-1.4 1.8-2.2 2.7-16.2 20.1-44.3 87.5-60.1 127.3 55.7 6.5 101.2-41.4 165.3-159.9 5.2-9.6 10-18.8 14.3-27.6 1.1-2.1 2.1-4.3 3.1-6.4.5-1.1 1-2.2 1.6-3.3l2.7-5.7c.2-.5.5-1 .7-1.5.4-.8.7-1.6 1.1-2.4.5-1.2 1.1-2.3 1.6-3.5.4-.9.8-1.9 1.2-2.8.9-2.1 1.8-4.1 2.7-6.1.4-.9.8-1.9 1.2-2.8 1.7-4.1 3.4-8.1 4.9-12l.9-2.4c2.3-5.9 4.3-11.5 6.2-17l.9-2.7c2-5.9 3.7-11.7 5.2-17.2.2-.6.3-1.3.5-1.9.3-1 .5-2 .8-3 .2-.6.3-1.2.5-1.8.3-1.2.6-2.3.8-3.5.2-.8.4-1.5.5-2.3s.3-1.5.5-2.3.3-1.5.5-2.3c.1-.7.3-1.4.4-2.1.4-2.3.8-4.5 1.2-6.7l.3-2.1.3-2.1.1-.8c.1-.5.1-1.1.2-1.6.2-2 .4-3.9.6-5.9s.3-3.9.4-5.8c0-.6.1-1.1.1-1.7v-1.4c.1-1.5.1-3 .1-4.5v-3.1c0-.8-.1-1.6-.1-2.3 0-.6-.1-1.2-.1-1.8-.1-1.7-.3-3.4-.4-5.1-.1-.5-.1-1-.2-1.5-.1-.6-.1-1.2-.2-1.8-.1-.5-.2-1.1-.2-1.6s-.2-1.1-.3-1.6c-.4-2.1-.8-4.2-1.3-6.2-.1-.5-.2-1-.4-1.5v-.2c-.2-.9-.5-1.9-.8-2.8-.3-.9-.6-1.9-.9-2.8s-.6-1.9-1-2.8-.7-1.8-1.1-2.7c-.2-.4-.4-.9-.6-1.3z" fill="#ffcf2d"/><path d="M1614.1 1133.1c-3.1 5.6-6.6 11-10.3 16.2-35.6 48.6-78.7 54.8-78.7 54.8s-109 2-168-119c-12.4-25.5-21.6-57-28.8-92.8-17-84.2-23.6-192.2-38.1-301.7-.1-.8-.2-1.5-.3-2.3-3.9-28.9-8.7-57.1-14.9-83.7-.2-1.1-.5-2.2-.8-3.3-3.9-16.3-8.6-32.3-14.1-48.2-45.7-130.1-95-116-95-116-5-28 15-38 15-38-5-30 13-39 13-39-1-28 28-50 67-27-50-33-101.1-86.8-26-66 94 26 140.2 88 208 213 77 142 265.5 484.8 172 653z" fill="#f4ada2"/><path d="M1165.1 439.6c-1.3 0-2.3-.9-2.5-2.2-3.1-25.2 10.1-36.4 14.8-39.6-3.7-25.6 8.9-36.3 13.2-39.1 0-13.6 6.6-25.6 17.8-32.3 14.3-8.5 33.6-6.9 53 4.6 1.2.7 1.6 2.2.9 3.4s-2.2 1.6-3.4.9c-17.7-10.5-35.2-12.1-47.9-4.6-10.1 6-15.8 16.9-15.3 29.3 0 1-.5 1.9-1.4 2.3-.7.3-16.3 8.7-11.7 36.4.2 1.1-.4 2.1-1.3 2.6-.7.4-16.9 9.2-13.7 35.5.2 1.4-.8 2.6-2.2 2.8-.1-.1-.2 0-.3 0z" fill="#9b3c82"/><path d="M1477.3 631.9c-5.3 2.5-10.6 5-16 7.4-53.3 23.8-115.9 41.7-171 51.2-.1-.8-.2-1.5-.3-2.3-3.9-28.9-8.7-57.1-14.9-83.7 52-9.3 115-28.9 164-52.4l10 21z" fill="#5b2448"/><path d="M1433.9 650.7c1.7-.7 3.4-1.3 5.1-2-11-10.4-20.2-24.1-26.5-39.8-5.7-14-8.5-28.2-8.7-41.4-1.6.6-3.3 1.3-4.9 1.9.4 13.3 3.3 27.4 9 41.4 6.2 15.5 15.2 29.2 26 39.9z" fill="#fff"/><path d="M1490 659.6c-9.4 0-19.5-3.8-29.3-11.2-13.9-10.4-25.7-26.8-33.2-46.1-15.8-40.3-8.1-81.2 17.2-91.1 25.3-10 58.8 14.7 74.6 55 7.6 19.3 10.1 39.3 7 56.4-3.1 17.5-11.8 29.8-24.2 34.7-3.9 1.6-8 2.4-12.1 2.3zm-43.5-143.7c-22.8 8.9-29.2 46.9-14.4 84.6 7.3 18.5 18.5 34.1 31.6 43.9 12.8 9.6 25.7 12.5 36.6 8.3s18.3-15.2 21.1-30.9c2.9-16.1.5-35.2-6.7-53.7-14.9-37.7-45.5-61.1-68.2-52.2z" fill="#5b2448"/><ellipse cx="1465.5" cy="587.3" fill="#5b2448" rx="57.8" ry="82.8" transform="matrix(.9307 -.3657 .3657 .9307 -113.2792 576.6519)"/><ellipse cx="1473.3" cy="584.3" fill="#fff" rx="45.8" ry="74.2" transform="matrix(.9307 -.3657 .3657 .9307 -111.6357 579.2939)"/><path d="M1475.2 585.4c-1.1 0-2-.7-2.4-1.7l-14.4-41.5c-.5-1.3.2-2.7 1.5-3.2s2.7.2 3.2 1.5l13.6 39 24.7-9.8c1.3-.5 2.7.1 3.2 1.4s-.1 2.7-1.4 3.2l-27.1 10.8c-.3.2-.6.3-.9.3z" fill="#5b2448"/><path d="M477.1 1173.1c-14.7 1.3-29.4.2-43.7-3.3-5-1.2-10-2.5-14.8-4.2-2.6-.8-5.1-1.8-7.6-2.7-1.4-.5-2.8-1.1-4.1-1.7-1.2-.5-2.4-1-3.6-1.6-77.1-34.3-127.6-124.8-152.1-194.6-68.6-195.1-51.1-359.1-100-404-115.2-105.6-62-136-62-136s-102.9-76.3-33-63c58 11 107.4 16 199 73 83 51.6 201.9 205.4 265.5 361.5 9.1 22.3 17.1 44.8 23.7 67.1 9 30.3 15.5 60.3 18.8 89.4 0 0 0 .2.1.5.3 2 1.3 10 1.9 21.9v.4c2 46.4-6.4 151.1-88.1 197.3z" fill="#f4ada2"/><g fill="#9b3c82"><path d="M188.3 535.7c-.4-3.2-2.7-9.7-13.2-12.9 7.6-8.3 7.9-14.6 6.5-18.9-2.7-8-13.1-12.1-30.7-12.1h-2.7c5.1-7.5 6.6-14.3 4.3-19.9-2.9-7.1-11.1-10.7-24.4-10.7-8 0-17.9 1.3-29.6 3.9.6-.9 1.2-1.7 1.7-2.5 3.9-6.3 12.5-22.1 6.7-32.5-3.6-6.6-11.1-7.9-16.8-7.9-1.4 0-2.7.1-4.2.3 2.1 1.6 3 2.5 3 2.5s-1.1.8-2.9 2.5c1.6-.2 2.8-.3 4.1-.3 21 0 13.7 20.1 5.8 32.8-2.4 3.8-6.7 8.8-12.3 14.1.1 0 .2-.1.3-.1 19.4-5.5 33.9-7.8 44.1-7.8 26.3 0 24.9 15.2 8.8 31.3 5.2-.5 9.8-.7 14-.7 33.4 0 31.9 14.7 13.1 29.2 30.1 1.4 24 23.9-9.9 37.9 1.2 1.3 2.4 2.6 3.5 4 20.4-8.6 32.4-21 30.8-32.2zm288.8 637.4c-14.7 1.3-29.4.2-43.7-3.3-5-1.2-10-2.5-14.8-4.2-2.6-.8-5.1-1.8-7.6-2.7-1.4-.5-2.8-1.1-4.1-1.7C511.2 1178 581.2 985 544.4 863.7c8.9 29.2 15.2 59.1 18.8 89.4 0 0 0 .2.1.5.2 2 1.2 10 1.9 21.9v.4c2 46.3-6.4 151-88.1 197.2zm1126.7-23.9c-35.6 48.6-78.7 54.8-78.7 54.8s-109 2-168-119c-12.4-25.5-21.6-57-28.8-92.8 30.8 128.9 203.8 232.9 275.5 157zm-372.2-745.1c-.5 0-.9-.1-1.3-.4-20.3-12.6-40.9-7.1-48.9-2.5-1.2.7-2.7.4-3.4-.8s-.4-2.7.8-3.4l.1-.1c9.6-5.6 31.8-11.3 54.1 2.5 1.2.7 1.5 2.3.8 3.4-.5.8-1.3 1.3-2.2 1.3zm13-37c-.5 0-.9-.1-1.3-.4-27-16.9-45.4-6.7-48.8-4.5-1.2.8-2.7.4-3.5-.7s-.4-2.7.7-3.5c3.9-2.5 24.6-14 54.2 4.5 1.2.7 1.5 2.3.8 3.4-.4.7-1.2 1.2-2.1 1.2z"/></g><path d="M94.1 549.1c-5 15 17.2 29.6 52 18 51-17 53-53-14-37-18 4.3-34.9 9.6-38 19z" fill="#f4ada2"/><path d="M73.1 521.5c-9 19.5 15.9 39.6 62.7 20.3 48.4-19.9 68.3-55.8-17.6-41.8-22 3.6-40.8 12-45.1 21.5zm-6-89.4c-45 15-83.5 38.2-60 63 25.2 26.6 78.1-17.5 89-35 10-16 19-44-29-28z" fill="#f4ada2"/><path d="M45.1 502.1c-5 20 23 39 67 14 45.5-25.8 61-67-28-42-19.2 5.3-36.5 17.8-39 28z" fill="#f4ada2"/><path d="M144.9 496.8c.1 0 .1-.6 0-.6-2.1 0-4.8.6-7.3.8-7.2 8.1-15.9 15.1-25.7 19.7C97 524.1 82.5 528 71.3 528c-.1 1.7 0 3.4.4 5 11.9-.1 27-4.2 42.5-11.7 11.9-5.6 22.6-14.2 30.7-24.5zM132.3 549c17.7-5.2 32.7-16.7 39-22.1-1.9-.7-4.5-.9-7.1-1-10.6 8.3-22.7 15.2-33.3 18.3-14.6 4.3-26.6 6-36.8 5-.6 1.7-.8 3.4-.7 5 2 .2 4.2.3 6.2.3 9.5 0 20.2-1.9 32.7-5.5zm-39.2-76.9c.2-.2 1.7-1.6 1.8-1.8-3 .7-7.1 2.3-10.4 3.2l-.4.4c-10.5 9.7-24.9 19.9-38 25.4-.4.8-.7 1.7-1 2.6-.3 1.1-.4 2.2-.5 3.3 17.7-6.2 37.2-21.1 48.5-33.1z" fill="#9b3c82"/></svg></g><g transform="translate(286.0 921.0) rotate(0.0 350.5 307.5) scale(1.0 1.0)"><svg width="701" height="615" viewBox="0 0 701 615"><path d="M698.5 466.5s-187-214-276-454c-123 109-411 248-411 248s269 166 398 352c90-72 289-146 289-146z" fill="#fff"/><path d="M409.5 615a2.589 2.589 0 0 1-.361-.026 2.5 2.5 0 0 1-1.693-1.049C370.77 561.044 298.18 475.584 160.639 368.761 78.316 304.824 10.859 263.042 10.187 262.628a2.5 2.5 0 0 1 .226-4.379c2.877-1.389 289.1-140.1 410.429-247.62a2.5 2.5 0 0 1 4 1c25.321 68.282 75.55 178.6 171.045 316.387 57.139 82.444 104.027 136.3 104.493 136.837a2.5 2.5 0 0 1-1.01 3.989c-1.987.738-199.657 74.685-288.31 145.608a2.5 2.5 0 0 1-1.56.55zM16.64 260.774c15.435 9.765 75.664 48.587 147.018 104 75.632 58.737 179.493 148.586 246.373 244.114 46.856-36.815 121.728-73.89 176.692-98.668 51.438-23.19 95.364-40.165 107.553-44.8-10.194-11.943-52.413-62.3-102.456-134.5-52.4-75.6-124.271-191.2-170.394-314.151C306.174 117.341 51.851 243.522 16.64 260.774z" fill="#66b0f0"/><path d="M698.5 466.5c-149-170-252-305-318-455-157 141-369 249-369 249z" fill="#fff"/><path d="M698.5 469a2.506 2.506 0 0 1-.718-.105l-687-206a2.5 2.5 0 0 1-.417-4.623C12.482 257.193 223.881 148.8 378.83 9.64a2.5 2.5 0 0 1 3.958.853c31.434 71.441 73.18 143.258 127.622 219.555 47.949 67.2 106.538 139.613 189.97 234.805A2.5 2.5 0 0 1 698.5 469zM18.118 259.874 690.9 461.61c-80.515-92.11-137.616-162.87-184.56-228.658C452.5 157.5 411.014 86.375 379.6 15.657 238.453 141.617 52.259 241.935 18.118 259.874z" fill="#66b0f0"/><path d="M30.5 240.5s172-111 295-238c53 101 196 309 373 464z" fill="#fff"/><path d="M698.5 469a2.477 2.477 0 0 1-.8-.132l-668-226a2.5 2.5 0 0 1-.555-4.469C30.862 237.291 202.32 126.093 323.7.761a2.5 2.5 0 0 1 4.01.577c53.522 102 196.875 309.544 372.433 463.281A2.5 2.5 0 0 1 698.5 469zM36.162 239.776l651.385 220.379C517.45 308.4 378.83 108.228 324.9 6.709 214.1 120.338 63.423 221.771 36.162 239.776z" fill="#66b0f0"/><path d="M185.25 176.46c-2.8.47-5.61.99-8.42 1.54-56.11 10.99-114.6 36.74-174.33 82.5 163 83 385 324 407 352 107.99-73 288.98-145.99 289-146 0 0-30.17-45.72-82.67-101.16l-.06-.06a837.809 837.809 0 0 0-82.31-76.31c-90.64-72.99-212.2-135.72-348.21-112.51" fill="#fff"/><path d="M409.5 615a2.5 2.5 0 0 1-1.968-.955c-11.5-14.638-73.118-82.267-150.374-155.1C131.41 340.391 48.649 286.805 1.366 262.728a2.5 2.5 0 0 1-.386-4.212c56.575-43.343 115.578-71.258 175.37-82.969a315.509 315.509 0 0 1 8.479-1.551c62.824-10.72 127.561-3.891 192.413 20.3 52.71 19.662 105.8 50.859 157.786 92.724a839.3 839.3 0 0 1 82.557 76.54c52.109 55.023 82.7 101.1 83 101.561a2.5 2.5 0 0 1-.99 3.624 3.495 3.495 0 0 1-.189.083c-7.413 3-182.759 74.257-288.507 145.741a2.492 2.492 0 0 1-1.399.431zM7.167 260.092c48.113 25.061 130.307 79.144 253.423 195.214 74.634 70.362 134.8 135.989 149.419 153.838C510.325 541.859 670.6 475.217 694.7 465.35c-7.095-10.327-35.878-50.975-80.684-98.291a835.155 835.155 0 0 0-82.122-76.142c-51.572-41.528-104.192-72.46-156.4-91.935-64.016-23.879-127.882-30.63-189.824-20.057h-.007c-2.57.43-5.3.93-8.354 1.527-57.921 11.348-115.147 38.135-170.142 79.64z" fill="#66b0f0"/><path d="M533.46 288.97C468.5 246.5 412.73 263.25 348 301.83 286.53 193.21 223.55 179.51 176.83 178c2.81-.55 5.62-1.07 8.42-1.54 136.01-23.21 257.57 39.52 348.21 112.51z" fill="#fff"/><path d="M348 304.33a2.5 2.5 0 0 1-2.176-1.268c-27.478-48.556-56.985-81.645-90.206-101.158-30.113-17.686-57.967-20.73-78.869-21.4a2.5 2.5 0 0 1-.4-4.952c3.1-.607 5.872-1.114 8.486-1.553 62.817-10.719 127.554-3.889 192.407 20.3 52.709 19.662 105.8 50.859 157.785 92.724a2.5 2.5 0 0 1-2.936 4.04c-30.123-19.694-59.936-27.4-91.144-23.575-26.515 3.254-54.787 14.512-91.667 36.49a2.507 2.507 0 0 1-1.28.352zM197.74 177.087a156.392 156.392 0 0 1 60.41 20.506c33.488 19.67 63.2 52.655 90.764 100.789 55.191-32.568 104.572-49.109 158.686-26.182-43.744-32.21-88.075-56.789-132.108-73.215-59.863-22.335-119.598-29.685-177.752-21.898z" fill="#66b0f0"/></svg></g><g transform="translate(1972.0 802.0) rotate(0.0 140.0 173.0) scale(1.0074769179841825 1.0096235213100595)"><svg width="277.922" height="342.702" viewBox="0 0 277.922 342.702"><g fill="#f94f46"><path d="M274.683 141.772 141.084 3.4a2.952 2.952 0 0 0-4.246 0L3.239 141.772A2.614 2.614 0 0 0 5.12 146.2h71.841v191a3 3 0 0 0 3 3h118a3 3 0 0 0 3-3v-191H272.8a2.614 2.614 0 0 0 1.883-4.428z"/><path d="M197.961 342.7h-118a5.506 5.506 0 0 1-5.5-5.5V148.7H5.12a5.115 5.115 0 0 1-3.68-8.667l133.6-138.37a5.451 5.451 0 0 1 7.844 0l133.6 138.369a5.114 5.114 0 0 1-3.684 8.668h-69.339v188.5a5.506 5.506 0 0 1-5.5 5.5zm-59-337.7a.442.442 0 0 0-.324.137L5.037 143.508c-.036.038-.052.055-.023.125s.054.069.106.069h74.341V337.2a.5.5 0 0 0 .5.5h118a.5.5 0 0 0 .5-.5V143.7H272.8c.052 0 .076 0 .106-.069s.013-.087-.023-.125L139.286 5.138a.445.445 0 0 0-.325-.138z"/></g></svg></g><g transform="translate(1454.0 1403.0) rotate(0.0 261.0 370.5) scale(0.9998237858461727 0.9993189526705821)"><svg width="522.092" height="741.505" viewBox="0 0 522.092 741.505"><path d="M403.035 741.505a23.172 23.172 0 0 1-16.2-6.108 27.851 27.851 0 0 1-17.435 5.243 28.143 28.143 0 0 1-17.839-7.3 27.465 27.465 0 0 1-20.109 4.818 24.426 24.426 0 0 1-15.87-9.063 28.325 28.325 0 0 1-20.744.677 30.832 30.832 0 0 1-14.387-10.407 26.865 26.865 0 0 1-32.385-12.324 27.686 27.686 0 0 1-31.561-16.816c-.13-.325-.254-.654-.372-.984a24.609 24.609 0 0 1-14.29-2.169 28.906 28.906 0 0 1-14.462-16.547 25.9 25.9 0 0 1-19.142-5.95 30.566 30.566 0 0 1-10.69-17.534 26.56 26.56 0 0 1-13.347-5.569 31.226 31.226 0 0 1-11.872-21.987 29.477 29.477 0 0 1-14.468-8.009 30.95 30.95 0 0 1-8.872-18.7 24.817 24.817 0 0 1-14.165-9.366 30.029 30.029 0 0 1-5.855-17.973l-.044-.011a24.993 24.993 0 0 1-14.987-10.9 32.268 32.268 0 0 1-4.607-23.092 30.209 30.209 0 0 1-13.142-14.343 31.634 31.634 0 0 1-2.079-19.318 29.7 29.7 0 0 1-11.971-12.148 28.389 28.389 0 0 1-1.811-22.635 28.443 28.443 0 0 1-10.756-13.117 29.255 29.255 0 0 1-.507-20.635 26.72 26.72 0 0 1-9.845-11.894 32.248 32.248 0 0 1-.006-24.549 35.918 35.918 0 0 1-9.682-16.88c-1.881-7.06-1.921-15.25.733-22.231a31.918 31.918 0 0 1-7.8-19.109 36.068 36.068 0 0 1 4.206-19.784A30.31 30.31 0 0 1 .114 297.74a29.669 29.669 0 0 1 5.5-20.177 31.627 31.627 0 0 1-4.86-15.074 30.758 30.758 0 0 1 6.092-20.308 27.124 27.124 0 0 1-5.035-14.367 32.525 32.525 0 0 1 6.156-20.672 29.03 29.03 0 0 1-4.932-19.359 31.306 31.306 0 0 1 6.5-16.279 28.073 28.073 0 0 1-3.343-15.6 30.04 30.04 0 0 1 9.3-19.544 35.32 35.32 0 0 1-3.731-22.078A31.086 31.086 0 0 1 18.153 99.1a28.182 28.182 0 0 1-2.292-16.71 37.272 37.272 0 0 1 8.019-17.813 20.9 20.9 0 0 1-3.409-16.328C22.9 35.82 35.6 24.116 52.272 25.727l7.405-23.965a2.5 2.5 0 1 1 4.778 1.476l-8.028 25.978a2.5 2.5 0 0 1-2.793 1.729c-11.553-1.895-25.665 4.987-28.255 18.262a16.414 16.414 0 0 0 2.051 11.626 30.244 30.244 0 0 1 19.017-8.077c11.944-.587 18.8 4.183 21.251 8.854a9.471 9.471 0 0 1-.751 10.4c-3.9 5.075-12.322 6.586-23.1 4.151C36.4 74.48 31 71.694 27.247 68.324a32.185 32.185 0 0 0-6.441 14.8 23.879 23.879 0 0 0 1.135 12.2 26.284 26.284 0 0 1 15.106-5.574c15.75-1.016 20.636 5.42 22 8.235a9.988 9.988 0 0 1-1.781 11.177c-3.781 4.213-12.091 7.185-24.07 2.893a27.046 27.046 0 0 1-12.214-8.489 26.035 26.035 0 0 0-4.272 11.41 30.621 30.621 0 0 0 2.79 18.282 30.074 30.074 0 0 1 14.176-4.518c11.183-.811 19.587 2.229 22.479 8.115a9.4 9.4 0 0 1-1.585 10.564c-3.626 4.061-11.759 6.872-23.711 2.59a28.281 28.281 0 0 1-12.62-9.445 24.811 24.811 0 0 0-7.059 15.7 23.568 23.568 0 0 0 2 11.445 26.341 26.341 0 0 1 15.5-6.251c13.505-.992 21.056 3.677 23.62 8.374a8.808 8.808 0 0 1-.645 9.741c-3.994 5.31-13.267 6.953-24.807 4.389a26.018 26.018 0 0 1-14.366-8.257 25.357 25.357 0 0 0-4.472 12.548 24.4 24.4 0 0 0 3.32 15.006 29.484 29.484 0 0 1 12.953-7.339c12.666-3.436 20.68.318 23.957 4.977a10.115 10.115 0 0 1 .131 11.872c-4.16 5.955-13.712 7.615-25.551 4.441a26.777 26.777 0 0 1-11.47-6.2 27.4 27.4 0 0 0-4.55 16.514 21.728 21.728 0 0 0 3.482 10.921 32.23 32.23 0 0 1 12.941-7c11.64-3.356 21.154-2.056 25.45 3.47a9.22 9.22 0 0 1 .627 10.63c-2.8 4.777-10.544 9.166-23.891 7.162A28.51 28.51 0 0 1 10.3 246a25.716 25.716 0 0 0-4.554 16.2 26.627 26.627 0 0 0 3.402 11.53 28.246 28.246 0 0 1 13.152-6.367c11.315-2.364 20.382-.439 24.258 5.146a9.36 9.36 0 0 1 .171 10.614c-3.656 5.791-12.133 8.22-22.675 6.494A26.451 26.451 0 0 1 8.8 281.651a25.107 25.107 0 0 0-3.7 15.672 27.182 27.182 0 0 0 4.594 13.03 26.6 26.6 0 0 1 15.033-9.115c12.5-2.781 20.4.694 23.621 4.878a9.023 9.023 0 0 1 .986 9.85c-3.029 5.871-11.5 8.981-23.271 8.524a26.647 26.647 0 0 1-15.673-5.99 31.218 31.218 0 0 0-2.938 15.716 27.857 27.857 0 0 0 5.23 14.646 22.754 22.754 0 0 1 10.226-8.708c13.549-5.915 22.834-3.451 27.007.825A9.857 9.857 0 0 1 51.9 352.24c-3.15 6.754-12.6 10.217-25.276 9.262a24.39 24.39 0 0 1-12.29-4.251 32.947 32.947 0 0 0 .031 17.377 31.592 31.592 0 0 0 7.247 13.5 32.462 32.462 0 0 1 9.315-9.632c9.976-6.823 19.468-8.417 25.392-4.268a9.543 9.543 0 0 1 3.8 10.412c-1.91 7.449-10.732 12.737-23.6 14.145a20.8 20.8 0 0 1-13.149-2.855 27.08 27.08 0 0 0 .453 19.449 22.445 22.445 0 0 0 7.365 9.259 34.31 34.31 0 0 1 11.37-11.632c10.391-6.75 19.893-8.553 25.418-4.824a8.442 8.442 0 0 1 3.554 8.887c-1.077 5.515-7.229 12.467-21.265 15.433a29 29 0 0 1-16.65-.943 24.159 24.159 0 0 0 .595 16.434 23.354 23.354 0 0 0 8.245 10.367 34.008 34.008 0 0 1 10.614-11.135c13.713-9.336 21-6.511 23.49-4.866a8.477 8.477 0 0 1 3.56 9.028c-1.091 5.556-7.009 12.434-20.344 15.075a26.352 26.352 0 0 1-14.981-1.18 23.505 23.505 0 0 0 1.771 18.009 24.579 24.579 0 0 0 9.066 9.559c2.411-5.932 6.927-11.5 14.106-15.842 8.225-4.972 16.208-6.018 21.356-2.79a8.471 8.471 0 0 1 4.095 8.188c-.584 6.277-6.994 12.263-17.586 16.425a27.711 27.711 0 0 1-18.792.937 26.465 26.465 0 0 0 11.847 26.746 29.909 29.909 0 0 1 10.627-14.047c10.585-7.761 19.376-7.593 24.074-4.848a8.853 8.853 0 0 1 4.531 8.878c-.819 6.816-8.614 13.062-20.851 16.708a25.923 25.923 0 0 1-14.953.173 27.167 27.167 0 0 0 4.042 18.413 19.265 19.265 0 0 0 11.293 8.588 30.139 30.139 0 0 1 9.68-17.208c7.853-7.149 15.9-10.074 21.523-7.834a7.778 7.778 0 0 1 5.031 6.875c.456 6.231-5.132 13.352-14.949 19.047a32.262 32.262 0 0 1-16.785 4.8 23.6 23.6 0 0 0 4.9 14.338 19.757 19.757 0 0 0 10.158 7.212 30.039 30.039 0 0 1 6.4-15.759c6.754-8.77 14.606-13.006 21.012-11.323a8.858 8.858 0 0 1 6.676 7.523c.994 6.888-4.422 14.628-14.487 20.705a27.926 27.926 0 0 1-14.566 4.558 25.813 25.813 0 0 0 7.386 14.624 24.9 24.9 0 0 0 10.933 6.435 35.759 35.759 0 0 1 4.707-14.743c5.821-10.288 13.423-15.917 20.338-15.048a9.894 9.894 0 0 1 8.385 7.419c1.467 5.395-.667 14.007-11.055 22a27.229 27.229 0 0 1-17.256 6.073 26.125 26.125 0 0 0 9.809 17.441 22.225 22.225 0 0 0 9.706 4.295 32.2 32.2 0 0 1 4.825-17.3c5.466-9.173 12.557-14.264 18.97-13.613a8.774 8.774 0 0 1 7.571 5.964c2.136 6.129-1.327 14.4-9.263 22.119a27.667 27.667 0 0 1-16.358 8.076 25.412 25.412 0 0 0 8.66 13.622 21.776 21.776 0 0 0 14.741 4.874 34.936 34.936 0 0 1 .817-14.781c1.239-4.7 6.166-20.112 17.544-21.029a9.8 9.8 0 0 1 9.951 5.957c2.541 5.714 1.055 15.785-10.738 26.916a29.77 29.77 0 0 1-11.349 6.863 23.725 23.725 0 0 0 11.67 13.089 18.742 18.742 0 0 0 10.858 1.8 36.709 36.709 0 0 1 1.786-18.08c4.295-12.558 11.435-17.551 16.685-18.035a8.156 8.156 0 0 1 8.088 4.118c3.179 5.634.821 14.535-6.468 24.42-4.325 5.865-9.155 9.383-13.978 11.19a22.99 22.99 0 0 0 11.222 12.349 22.631 22.631 0 0 0 13.844 1.986 31.646 31.646 0 0 1-.425-16.727c2.671-11.854 8.318-19.665 15.106-20.893a8.7 8.7 0 0 1 9.051 3.941c3.077 4.7 3.409 14.139-4.891 26.513a28 28 0 0 1-11.946 10.3 20.71 20.71 0 0 0 10.868 9.009 21.817 21.817 0 0 0 13.913.494 26.135 26.135 0 0 1-2.107-17.177c2.8-13.476 9.564-19.567 14.96-20.776a8.4 8.4 0 0 1 8.792 3.082c3.9 5.17 2.738 14.345-3.177 25.172a30.584 30.584 0 0 1-11.206 12 24.851 24.851 0 0 0 11.49 7.8 23.332 23.332 0 0 0 16.341-.282 30.826 30.826 0 0 1-3.3-13.671c-.12-12.813 3.832-22.055 10.571-24.721a8.834 8.834 0 0 1 10.056 2.343c3.843 4.175 5.638 13.3-.846 26.406a30.428 30.428 0 0 1-9.351 11.448 20.732 20.732 0 0 0 12.277 6.648 22.376 22.376 0 0 0 15.947-3.651 30.54 30.54 0 0 1-5.625-14.512c-1.771-13.688 3.357-21.721 8.286-24.44a8.826 8.826 0 0 1 10.207.717c2.449 2.026 7.541 8.586 1.95 25.706a33.287 33.287 0 0 1-7.576 12.981 23.014 23.014 0 0 0 28.093 1.625 33.922 33.922 0 0 1-5.7-13.536c-2.394-12.482-.264-22.269 5.7-26.182a8.769 8.769 0 0 1 10.034.105c4.36 2.973 8.046 10.777 5.316 23.759a33.158 33.158 0 0 1-8.221 16.3 18.888 18.888 0 0 0 12.746 4.417 26.162 26.162 0 0 0 15.662-5.854c-3.563-3.752-6.219-9-7.083-16.092-1.393-11.411.993-20.2 6.382-23.507a8.407 8.407 0 0 1 9.287.272c4.3 2.886 8.154 10.546 6.058 23.381a31.657 31.657 0 0 1-7.169 15.617 21.041 21.041 0 0 0 11.6 3.186h.022a25.092 25.092 0 0 0 18.45-8.106 25.4 25.4 0 0 1-8.326-11.628c-4.491-12.161-1.517-20.492 2.763-24.234a8.889 8.889 0 0 1 10.175-1.431c2.709 1.436 8.782 6.6 6.7 23.422a31.833 31.833 0 0 1-4.078 12.3 27.651 27.651 0 0 0 13.512 1.545c21.449-2.459 37.889-20.224 39.785-35.273a2.5 2.5 0 0 1 4.961.625c-1.224 9.709-6.842 19.238-15.821 26.835-8.281 7.006-18.616 11.664-28.355 12.781-6.492.743-12.26-.086-17.045-2.347a30.2 30.2 0 0 1-22.72 10.511h-.026a27.252 27.252 0 0 1-15.218-4.58 31.4 31.4 0 0 1-19.453 7.565c-.135 0-.271.005-.405.005zm-14.6-46.1a3.972 3.972 0 0 0-2.194.7c-3.1 2.036-5.888 8.773-3.532 21.061a28.476 28.476 0 0 0 4.554 11.234 28.035 28.035 0 0 0 6.692-13.641c2.224-10.579-.356-16.631-3.241-18.6a4.031 4.031 0 0 0-2.28-.751zm34.3-.631a3.374 3.374 0 0 0-1.787.534c-2.708 1.662-5.389 7.542-4.035 18.641a24.033 24.033 0 0 0 5.79 13.137 26.8 26.8 0 0 0 6.04-13.191c1.716-10.512-1.034-16.494-3.91-18.424a3.8 3.8 0 0 0-2.098-.694zm-67.174-.44a4.917 4.917 0 0 0-2.318.654c-3.836 2.115-7.1 8.941-5.743 19.422a25.6 25.6 0 0 0 4.51 11.87 28.306 28.306 0 0 0 6.221-10.8c3.793-11.611 2.163-18.193-.385-20.3a3.5 3.5 0 0 0-2.285-.843zM323.5 690.7a4.294 4.294 0 0 0-1.58.316c-3.492 1.382-7.528 7.455-7.41 20.025a25.089 25.089 0 0 0 2.576 11.331 25.235 25.235 0 0 0 7.723-9.475c5.367-10.844 4.243-17.983 1.65-20.8a3.974 3.974 0 0 0-2.959-1.397zm133.683 1.4a4.4 4.4 0 0 0-2.875 1.2c-2.889 2.526-4.979 8.947-1.364 18.738a20.283 20.283 0 0 0 6.581 9.319 27.323 27.323 0 0 0 3.4-10.445c1.392-11.238-1.328-16.93-4.079-18.39a3.53 3.53 0 0 0-1.661-.422zm-164.489-10.344a4.809 4.809 0 0 0-1.029.119c-3.989.894-8.986 6.471-11.157 16.916a22.464 22.464 0 0 0 1.774 14.185 25.484 25.484 0 0 0 9.519-10.121c5.728-10.486 5.5-17.2 3.571-19.769a3.211 3.211 0 0 0-2.678-1.33zm-30.281-12.215a4.447 4.447 0 0 0-.8.074c-3.5.632-8.507 5.482-11.118 17.072a27.722 27.722 0 0 0 .424 14.144 23.023 23.023 0 0 0 9.811-8.468c6.947-10.358 6.96-17.781 4.86-20.989a3.688 3.688 0 0 0-3.177-1.833zm-28.171-16.336q-.217 0-.447.021c-3.8.351-9.113 5.024-12.413 14.676a31.784 31.784 0 0 0-1.7 15.123 27.754 27.754 0 0 0 11.25-9.206c7.049-9.559 7.712-16.207 6.138-19a3.038 3.038 0 0 0-2.828-1.614zm-28.9-18.5c-.155 0-.312 0-.471.019-4.028.324-9.879 5.055-13.111 17.319a29.933 29.933 0 0 0-.721 12.58 24.3 24.3 0 0 0 9.211-5.647c9.9-9.348 11.362-17.289 9.6-21.248a4.778 4.778 0 0 0-4.504-3.028zm-25.62-18.865c-3.322 0-8.671 2.892-13.635 11.224a27.134 27.134 0 0 0-4.077 14.965c4.438-.378 9.13-2.316 13.573-6.638 7.669-7.462 9.117-13.762 8.028-16.89a3.745 3.745 0 0 0-3.354-2.634 5.136 5.136 0 0 0-.535-.027zm-42.4-.735a22.462 22.462 0 0 0 14.333-5.068c8.44-6.5 10.274-13.069 9.279-16.726a4.855 4.855 0 0 0-4.177-3.765c-3.733-.452-9.728 2.584-15.366 12.55a30.579 30.579 0 0 0-4.066 13.009zm-3.692-49.918c-3.426 0-8.711 2.476-14.29 9.718a25.342 25.342 0 0 0-5.452 13.395 23.075 23.075 0 0 0 12.088-3.809c9.789-5.91 12.656-12.161 12.142-15.723a3.9 3.9 0 0 0-3-3.4 5.844 5.844 0 0 0-1.485-.181zm-17.067-25.58c-3.206 0-8.157 1.854-14.1 7.262A26.719 26.719 0 0 0 94.446 561a28.267 28.267 0 0 0 13.752-4.064c9.575-5.556 12.7-11.206 12.473-14.357a2.835 2.835 0 0 0-1.9-2.6 5.98 5.98 0 0 0-2.205-.372zm-41.315-11.059a21.229 21.229 0 0 0 12.363-.134c12.1-3.607 16.891-9 17.314-12.514a3.873 3.873 0 0 0-2.09-3.965c-3.176-1.853-9.95-1.772-18.594 4.565a24.993 24.993 0 0 0-8.993 12.048zM60.27 494.937a22.8 22.8 0 0 0 15.5-.761c10.176-4 14.129-8.94 14.436-12.233a3.548 3.548 0 0 0-1.773-3.488c-2.589-1.623-8.361-1.855-16.113 2.833a29.614 29.614 0 0 0-12.05 13.649zm-13.418-34.26a21.416 21.416 0 0 0 11.951.881c10.223-2.025 15.608-7.052 16.41-11.135a3.6 3.6 0 0 0-1.409-3.891c-2.537-1.674-8.752-1.416-17.921 4.826a29.338 29.338 0 0 0-9.031 9.319zM35.653 427a24.1 24.1 0 0 0 13.578.61c10.913-2.306 16.6-7.437 17.391-11.5a3.478 3.478 0 0 0-1.444-3.785c-2.8-1.892-9.7-1.752-19.9 4.874A29.222 29.222 0 0 0 35.653 427zm-10.142-35.648a15.957 15.957 0 0 0 10.47 2.459c12.627-1.382 18.287-6.475 19.3-10.416a4.533 4.533 0 0 0-1.826-5.074c-3.057-2.142-10.049-2.3-19.7 4.3a27.429 27.429 0 0 0-8.244 8.731zm-9.2-38.807A19.438 19.438 0 0 0 27 356.516c12.392.934 18.644-2.688 20.37-6.39a4.84 4.84 0 0 0-1.036-5.657c-2.87-2.94-10.2-4.637-21.427.266a18 18 0 0 0-8.596 7.81zM13.045 314.2a20.354 20.354 0 0 0 13.208 5.291c11.3.438 17.035-2.721 18.634-5.821a4.013 4.013 0 0 0-.5-4.5c-2.182-2.829-8.357-5.326-18.574-3.049a21.748 21.748 0 0 0-12.768 8.079zm-.973-36.417a21.543 21.543 0 0 0 12.785 6.9c10.014 1.637 15.761-1.255 17.639-4.229a4.385 4.385 0 0 0-.05-5.093c-2.081-3-8.2-5.386-19.129-3.1a23.264 23.264 0 0 0-11.245 5.525zm1.528-35.539a24.057 24.057 0 0 0 12.553 5.513c10.891 1.637 16.954-1.531 18.832-4.742a4.261 4.261 0 0 0-.259-5.035c-2.206-2.838-8.8-4.994-20.118-1.734a27.075 27.075 0 0 0-11.008 5.998zm.9-35.088a21.906 21.906 0 0 0 9.616 5.224c11.444 3.069 17.916.734 20.158-2.475a5.165 5.165 0 0 0-.122-6.131c-2.3-3.274-8.388-5.787-18.558-3.027a24.562 24.562 0 0 0-11.094 6.409zm1.337-35.167a20.982 20.982 0 0 0 12.092 7.1c11.282 2.5 17.678.212 19.727-2.513a3.8 3.8 0 0 0 .252-4.34c-1.735-3.179-7.717-6.6-18.865-5.783a22.589 22.589 0 0 0-13.207 5.536zm6.3-34.531a23.219 23.219 0 0 0 10.407 7.842c9.623 3.449 15.87 1.5 18.3-1.213a4.383 4.383 0 0 0 .827-5.029c-1.515-3.082-6.942-6.1-17.634-5.334a25.463 25.463 0 0 0-11.902 3.734zM24.38 99.8a21.851 21.851 0 0 0 10.505 7.553c9.657 3.46 16.089 1.341 18.663-1.526a4.955 4.955 0 0 0 1-5.654c-1.488-3.064-6.782-6.093-17.182-5.429A21.626 21.626 0 0 0 24.38 99.8zm6.255-35.15c2.992 2.7 7.522 5.106 14.317 6.643 10.206 2.309 16.005.314 18.03-2.321a4.474 4.474 0 0 0 .287-5.036c-1.651-3.15-6.985-6.661-16.573-6.181a25.4 25.4 0 0 0-16.061 6.89z" fill="#ffcf2d"/></svg></g><g transform="translate(575.0 2076.0) rotate(0.0 113.0 29.0) scale(1.7004115597890286 1.7058823529411764)"><svg width="132.909" height="34" viewBox="0 0 132.909 34"><g><ellipse cx="66.455" cy="17" rx="66.455" ry="17" style="fill:#5b2448"/></g></svg></g><g transform="translate(434.0 1260.0) rotate(0.0 93.0 72.5) scale(1.013623978201635 1.0069444444444444)"><svg width="183.5" height="144" viewBox="0 0 183.5 144"><g><g><path d="M146.1 139.8c-30.8 10.3-51.7 0-52.7-12.9-.1-1.6.1-3.3.6-5v-.1c3.1-9.3 20-14.7 38-19 13.3-3.2 23.9-4.3 31.9-3.9h.3c2.6.1 4.9.4 6.9.8 23.5 4.8 12.5 27.6-25 40.1z" style="fill:#f4ada2"/><path d="M164 98.8c-7.2 5.6-17 11.1-28.3 15.7-4 1.6-7.8 3-11.4 4.1-11.8 3.5-21.9 4.4-30 3.3h-.2c-12.8-1.8-20.6-8.3-22.4-16.2-.4-1.6-.5-3.3-.3-5v-.1c.2-2.1.8-4.3 1.8-6.4 4.4-9.5 23.2-17.9 45.1-21.5 7-1.1 13.3-1.9 18.9-2.5.2 0 .5 0 .8-.1 2.4-.2 4.7-.4 6.9-.5 39.6-1.7 39.1 13.9 19.1 29.2zm-96.9-94c-45 15-83.5 38.2-60 63 25.2 26.6 78.1-17.5 89-35 10-16 19-44-29-28z" style="fill:#f4ada2"/><path d="M137 70.3c-6.3 6.3-14.9 12.8-24.9 18.5-3.6 2-7.1 3.8-10.5 5.3h-.1c-10.7 4.7-20.1 6.6-28.2 6.6h-.1c-.6 0-1.3 0-1.9-.1-17.5-.7-27.6-11.1-26.8-22.6.1-1.1.2-2.2.5-3.3.2-.9.5-1.7 1-2.6 0 0 0-.1.1-.2 4.6-9.5 20.3-20.2 37.7-25.1.1 0 .1 0 .2-.1 3.3-.9 6.4-1.8 9.4-2.5C154 29.3 158.3 49 137 70.3z" style="fill:#f4ada2"/><g><path d="M144.7 69.8c-8.2 10.4-18.6 18.7-30.5 24.3-15.5 7.5-30.6 11.6-42.5 11.7-.4-1.6-.5-3.3-.3-5h2c8.2-.3 17.9-2.6 28.2-6.6h.1c3.4-1.3 6.9-2.8 10.4-4.5 9.8-4.6 18.6-11.2 25.8-19.3 2.3-.4 4.6-.5 6.8-.6zm26.5 29.9c-6.3 5.4-21.2 16.8-38.9 22-12.5 3.7-23.2 5.5-32.7 5.5-2.1 0-4.1-.1-6.2-.3-.1-1.6.1-3.3.6-5h.2c8.6.7 18.5-.4 30-3.3 2.1-.5 4.3-1.1 6.5-1.8 10.6-3.1 22.8-9.7 33.4-18 2.8.2 5.1.5 7.1.9zM93.5 44.3c-.1.2-.2.4-.4.6-11.3 12-30.8 26.9-48.6 33.2.1-1.1.2-2.2.5-3.3.2-.9.5-1.7 1-2.6 1.9-.8 3.9-1.7 5.8-2.7.3-.1.5-.2.8-.4 8.5-4.4 17.2-10.3 24.7-16.5.2-.2.4-.3.6-.5 2.1-1.8 4.2-3.6 6.1-5.3 3.4-.9 6.5-1.8 9.5-2.5z" style="fill:#9b3c82"/></g></g></g></svg></g><g transform="translate(1935.0 1843.0) rotate(0.0 227.5 170.5) scale(0.9978070175438597 0.9985358711566618)"><svg width="456" height="341.5" viewBox="0 0 456 341.5"><path d="M169.5 85c-5.5 0-10-4.5-10-10V11c0-5.5 4.5-10 10-10s10 4.5 10 10v64c0 5.5-4.5 10-10 10z" fill="#9b3c82"/><path d="M455.9 266.6C447.5 131 308.5 17 168.5 55c-84.6 23-157 115.9-157 230v.5c0 4.1 2.2 8 6.3 11.8 2.3 2 4.8 3.9 7.4 5.4C54.6 320.5 128.1 333 214 333c13.6 0 26.9-.3 39.7-.9 43.5-2 82-7.3 110.7-14.8 10-2.6 93.4-21.4 91.5-50.7z" fill="#ffcf2d"/><path d="M301.5 175c0 44.7-37.8 81-84.5 81-36.8 0-68.1-22.5-79.7-54-.4-1.1-.8-2.2-1.1-3.3-.2-.5-.3-.9-.4-1.4-1.5-5.1-2.5-10.3-3-15.6-.1-.9-.2-1.9-.2-2.9v-.8c-.1-1-.1-2-.1-3 0-44.7 37.8-81 84.5-81s84.5 36.3 84.5 81z" fill="#9b3c82"/><path d="M289.5 175c0 44.7-36.3 81-81 81-34.3 0-64.9-21.6-76.4-54-.4-1.1-.8-2.2-1.1-3.3-.1-.5-.3-.9-.4-1.4-1.5-5.1-2.4-10.3-2.8-15.6-.1-.9-.2-1.9-.2-2.9v-.8c-.1-1-.1-2-.1-3 0-44.7 36.3-81 81-81s81 36.3 81 81z" fill="#fff"/><path d="M267.5 10v46.7c-6.5-2.4-13.2-4.4-20-6V10c0-5.5 4.5-10 10-10s10 4.5 10 10z" fill="#9b3c82"/><path d="M353.9 113.9c-31.6-34-70.4-56.7-110.2-65.3-22-2.1-44.7-.8-67.5 4.5 7.1-1.5 14.3-2.5 21.6-3 2.9-.2 5.8-.3 9-.4h1.5c50.4 0 102 24.6 142 67.6 42.9 46.2 66.9 107.6 67.5 172.8.1 6-2.1 9.9-7.6 13.7 3.6-1.3 7.2-2.8 10.7-4.3 1.3-2.7 2-5.8 1.9-9.4-.6-66.5-25.1-129.1-68.9-176.2z" fill="#fff"/><circle cx="208.5" cy="175" fill="#9b3c82" r="30"/><g fill="#66b0f0"><circle cx="208.5" cy="236.5" r="10.7"/><circle cx="239.7" cy="227.7" r="10.7"/><circle cx="176.3" cy="227.7" r="10.7"/><circle cx="262.2" cy="205.3" transform="matrix(.1602 -.9871 .9871 .1602 17.5765 431.1647)" r="10.7"/><circle cx="154.8" cy="205.3" r="10.7"/><circle cx="239.7" cy="122.3" r="10.7"/><circle cx="177.3" cy="122.3" r="10.7"/><circle cx="262.2" cy="144.7" transform="matrix(.1602 -.9871 .9871 .1602 77.3013 380.3507)" r="10.7"/><circle cx="208.5" cy="113.5" r="10.7"/><circle cx="270" cy="175" r="10.7"/></g><path d="m158.4 185.9-24.9 10.7c-4.5 1.9-9.7-.2-11.7-4.7s.2-9.7 4.7-11.7c1-.4 2-.7 3.1-.7l27.1-1.3c2.2-.1 4.1 1.6 4.2 3.8 0 1.6-1 3.2-2.5 3.9z" fill="#9b3c82"/></svg></g><g transform="translate(411.0 1944.0) rotate(0.0 166.0 90.0) scale(1.003627569528416 1.0)"><svg width="330.8" height="180" viewBox="0 0 330.8 180"><path d="M104.5 124.2c-.5.2-1.1.5-1.6.7-.4.2-.7.3-1.1.4-1.2.5-2.5 1-3.7 1.4-9.5 3.3-19.4 5-29.5 5-15.1 0-29.7-4-41.7-11.9C9.8 108.7 0 90.8 0 71c0-21.8 13.8-39.5 34.2-44.3 11.4-2.5 23.4-.7 33.6 5 .1.1.3.2.4.2 1.7 1 3.4 2 5 3.2 0 0 .1 0 .1.1 9 6.5 16.7 16 22.5 27.9 2.1 4.5.2 9.9-4.3 12-4.4 2.1-9.7.3-11.9-4.1-1-2-2-3.9-3.1-5.6l-.3-.6c-2-3.3-4.1-6.1-6.3-8.6-10.4-11.5-22.4-14.1-31.7-12C26 47.1 18 57.6 18 71c0 13.9 6.7 25.9 18.8 33.9 14.1 9.2 33.1 11.4 51.3 6.1 1.3-.4 2.7-.8 4-1.3.3-.1.6-.2.8-.3 1.5-.5 2.9-1.1 4.3-1.7 4.6-2 9.9.1 11.8 4.7s.1 9.8-4.5 11.8z" fill="#21a0aa"/><path d="m114.5 138.7-1.1 1c-4.2-4.5-8.1-9.3-11.6-14.4-1.2.5-2.5 1-3.7 1.4-3.6-5-6.9-10.3-9.9-15.7 1.3-.4 2.7-.8 4-1.3-7.3-13.7-12.8-28.8-15.8-45-2-3.3-4.1-6.1-6.3-8.6-1.1-7.9-1.7-16-1.7-24.1 1.7 1 3.4 2 5 3.2.1 3.4.2 6.8.5 10.1v.4c.5 6.7 1.5 13.2 2.9 19.7 3.1 15.6 8.7 30.5 16.2 44 3 5.4 6.3 10.5 9.9 15.5 3.6 4.9 7.5 9.5 11.6 13.8z" fill="#6ce0dc"/><path d="M330.8 33.4c0 81-57.6 146.6-128.7 146.6-34.3 0-65.5-15.3-88.6-40.2-4.2-4.5-8.1-9.3-11.6-14.4-3.5-4.9-6.7-10.2-9.7-15.6-7.3-13.7-12.8-28.8-15.8-45-1.2-6.2-2-12.6-2.5-19.1v-.4c-.2-3.3-.4-6.7-.4-10.1v-1.8c-.1-3.8.2-7.6.8-11.4 1-5 255-6 256 0 .3 3.8.5 7.6.5 11.4z" fill="#21a0aa"/><g fill="#6ce0dc"><path d="M122.3 124.2c-.8 0-1.6-.4-2-1.1-14.8-21-23.4-46.3-24.8-73.1-.1-1.4 1-2.5 2.4-2.6s2.5 1 2.6 2.3c1.4 25.9 9.6 50.2 23.9 70.5.8 1.1.5 2.7-.6 3.5-.5.3-1 .5-1.5.5zm28.9 29c-.5 0-1-.2-1.4-.4-6.2-4.3-12-9.2-17.2-14.6-1-1-1-2.6 0-3.5 1-1 2.6-1 3.5 0 5 5.2 10.5 9.9 16.5 14 1.1.8 1.4 2.3.6 3.5-.4.6-1.2 1-2 1zM330.2 22c0 2.6-2.7 5.2-7.6 7.5-2.1 1-4.2 1.8-6.3 2.5-21.2 7.1-64.3 12-114 12s-92.9-4.9-114-12c-2.2-.7-4.3-1.5-6.3-2.5-4.9-2.3-7.6-4.9-7.6-7.5 0-12.1 57.3-22 128-22s127.8 9.9 127.8 22z"/></g><path d="M202.2 19c63 0 114 5.4 114 12s-51.1 13-114 13-114-6.4-114-13 51-12 114-12z" fill="#5b2448"/></svg></g><g transform="translate(2076.0 1339.0) rotate(0.0 111.5 93.0) scale(0.9794018182616716 0.9794628751974723)"><svg width="227.69" height="189.9" viewBox="0 0 227.69 189.9"><path d="M208.864 39.507s38.453 61.345-2.668 144.641a5.823 5.823 0 0 1-5.389 3.249L5.23 181.588z" fill="#66b0f0"/><path d="M200.979 189.9h-.246L5.156 184.086a2.5 2.5 0 0 1-1.356-4.549l203.634-142.08a2.5 2.5 0 0 1 3.548.722c.4.643 9.926 16.05 14.432 41.985 4.145 23.859 4.564 61.459-16.976 105.09a8.344 8.344 0 0 1-7.459 4.646zm-188.12-10.587 188.023 5.587a3.322 3.322 0 0 0 3.072-1.857c20.891-42.316 20.545-78.706 16.575-101.781a130.06 130.06 0 0 0-12.491-38.128z" fill="#66b0f0"/><path d="M38.5 39.507h170.364s20.636 85-37.364 147l-169-5s62-56 36-142z" fill="#fff"/><path d="M171.5 189.007h-.074l-169-5a2.5 2.5 0 0 1-1.6-4.354c.153-.137 15.389-14.087 27.275-38.182C39.02 119.327 49.275 83.788 36.107 40.23a2.5 2.5 0 0 1 2.393-3.223h170.364a2.5 2.5 0 0 1 2.429 1.91c.215.883 5.228 21.964 3.133 51.02-1.937 26.861-10.64 65.717-41.1 98.278a2.5 2.5 0 0 1-1.826.792zM8.341 179.179l162.1 4.8c28.8-31.276 37.105-68.45 38.987-94.231a185.406 185.406 0 0 0-2.583-47.737H41.831c12.219 43.738 1.765 79.421-9.34 101.859a150.452 150.452 0 0 1-24.15 35.309z" fill="#66b0f0"/><path d="M129.5 58.007a2.489 2.489 0 0 1-1.607-.586l-50-42a2.5 2.5 0 1 1 3.216-3.828l50 42a2.5 2.5 0 0 1-1.609 4.414z" fill="#9b3c82"/><path d="M175.105 81.007H72.5a2.5 2.5 0 0 1 0-5h102.6a2.5 2.5 0 0 1 0 5zm-36.105 32H77.5a2.5 2.5 0 0 1 0-5H139a2.5 2.5 0 0 1 0 5z" fill="#66b0f0"/><ellipse cx="75.524" cy="11.38" fill="#f94f46" rx="12.773" ry="7.935" transform="matrix(.57999228 -.81462197 .81462197 .57999228 22.451 66.304)"/></svg></g><g transform="translate(989.0 1060.0) rotate(0.0 113.0 94.0) scale(0.9925776274759541 0.9899947340705634)"><svg width="227.69" height="189.9" viewBox="0 0 227.69 189.9"><path d="M208.864 39.507s38.453 61.345-2.668 144.641a5.823 5.823 0 0 1-5.389 3.249L5.23 181.588z" fill="#66b0f0"/><path d="M200.979 189.9h-.246L5.156 184.086a2.5 2.5 0 0 1-1.356-4.549l203.634-142.08a2.5 2.5 0 0 1 3.548.722c.4.643 9.926 16.05 14.432 41.985 4.145 23.859 4.564 61.459-16.976 105.09a8.344 8.344 0 0 1-7.459 4.646zm-188.12-10.587 188.023 5.587a3.322 3.322 0 0 0 3.072-1.857c20.891-42.316 20.545-78.706 16.575-101.781a130.06 130.06 0 0 0-12.491-38.128z" fill="#66b0f0"/><path d="M38.5 39.507h170.364s20.636 85-37.364 147l-169-5s62-56 36-142z" fill="#fff"/><path d="M171.5 189.007h-.074l-169-5a2.5 2.5 0 0 1-1.6-4.354c.153-.137 15.389-14.087 27.275-38.182C39.02 119.327 49.275 83.788 36.107 40.23a2.5 2.5 0 0 1 2.393-3.223h170.364a2.5 2.5 0 0 1 2.429 1.91c.215.883 5.228 21.964 3.133 51.02-1.937 26.861-10.64 65.717-41.1 98.278a2.5 2.5 0 0 1-1.826.792zM8.341 179.179l162.1 4.8c28.8-31.276 37.105-68.45 38.987-94.231a185.406 185.406 0 0 0-2.583-47.737H41.831c12.219 43.738 1.765 79.421-9.34 101.859a150.452 150.452 0 0 1-24.15 35.309z" fill="#66b0f0"/><path d="M129.5 58.007a2.489 2.489 0 0 1-1.607-.586l-50-42a2.5 2.5 0 1 1 3.216-3.828l50 42a2.5 2.5 0 0 1-1.609 4.414z" fill="#9b3c82"/><path d="M175.105 81.007H72.5a2.5 2.5 0 0 1 0-5h102.6a2.5 2.5 0 0 1 0 5zm-36.105 32H77.5a2.5 2.5 0 0 1 0-5H139a2.5 2.5 0 0 1 0 5z" fill="#66b0f0"/><ellipse cx="75.524" cy="11.38" fill="#f94f46" rx="12.773" ry="7.935" transform="matrix(.57999228 -.81462197 .81462197 .57999228 22.451 66.304)"/></svg></g><g transform="translate(797.0 495.0) rotate(0.0 697.5 250.5) scale(1.0 1.0)"><svg width="1395" height="501" viewBox="0 0 1395 501"><path d="M28.461 456a3.5 3.5 0 0 1-3.5-3.5v-158a3.5 3.5 0 0 1 7 0v158a3.5 3.5 0 0 1-3.5 3.5z" fill="#9b3c82"/><rect fill="#f94f46" height="87" rx="3.003" width="50.84" x="2.5" y="329.5"/><path d="M50.338 419H5.5a5.51 5.51 0 0 1-5.5-5.5v-81a5.51 5.51 0 0 1 5.5-5.5h44.838a5.509 5.509 0 0 1 5.5 5.5v81a5.509 5.509 0 0 1-5.5 5.5zM5.5 332a.5.5 0 0 0-.5.5v81a.5.5 0 0 0 .5.5h44.838a.5.5 0 0 0 .5-.5v-81a.5.5 0 0 0-.5-.5z" fill="#f94f46"/><path d="M158.267 501a3.5 3.5 0 0 1-3.5-3.5v-179a3.5 3.5 0 0 1 7 0v179a3.5 3.5 0 0 1-3.5 3.5z" fill="#9b3c82"/><rect fill="#f94f46" height="107" rx="3.003" width="50.84" x="132.305" y="354.5"/><path d="M180.143 464h-44.835a5.509 5.509 0 0 1-5.5-5.5v-101a5.509 5.509 0 0 1 5.5-5.5h44.835a5.51 5.51 0 0 1 5.5 5.5v101a5.51 5.51 0 0 1-5.5 5.5zm-44.835-107a.5.5 0 0 0-.5.5v101a.5.5 0 0 0 .5.5h44.835a.5.5 0 0 0 .5-.5v-101a.5.5 0 0 0-.5-.5z" fill="#f94f46"/><path d="M280.5 409a3.5 3.5 0 0 1-3.5-3.5v-143a3.5 3.5 0 0 1 7 0v143a3.5 3.5 0 0 1-3.5 3.5z" fill="#9b3c82"/><rect fill="#21a0aa" height="71" rx="3.003" width="50.84" x="254.539" y="298.5"/><path d="M302.376 372h-44.834a5.509 5.509 0 0 1-5.5-5.5v-65a5.509 5.509 0 0 1 5.5-5.5h44.834a5.509 5.509 0 0 1 5.5 5.5v65a5.509 5.509 0 0 1-5.5 5.5zm-44.834-71a.5.5 0 0 0-.5.5v65a.5.5 0 0 0 .5.5h44.834a.5.5 0 0 0 .5-.5v-65a.5.5 0 0 0-.5-.5z" fill="#21a0aa"/><path d="M401.652 360a3.5 3.5 0 0 1-3.5-3.5v-168a3.5 3.5 0 0 1 7 0v168a3.5 3.5 0 0 1-3.5 3.5z" fill="#9b3c82"/><rect fill="#21a0aa" height="96" rx="3.003" width="50.84" x="375.691" y="224.5"/><path d="M423.528 323h-44.835a5.51 5.51 0 0 1-5.5-5.5v-90a5.51 5.51 0 0 1 5.5-5.5h44.835a5.509 5.509 0 0 1 5.5 5.5v90a5.509 5.509 0 0 1-5.5 5.5zm-44.835-96a.5.5 0 0 0-.5.5v90a.5.5 0 0 0 .5.5h44.835a.5.5 0 0 0 .5-.5v-90a.5.5 0 0 0-.5-.5z" fill="#21a0aa"/><path d="M530.375 293a3.5 3.5 0 0 1-3.5-3.5v-169a3.5 3.5 0 0 1 7 0v169a3.5 3.5 0 0 1-3.5 3.5z" fill="#9b3c82"/><rect fill="#21a0aa" height="97" rx="3.003" width="50.84" x="504.414" y="156.5"/><path d="M552.252 256h-44.835a5.509 5.509 0 0 1-5.5-5.5v-91a5.509 5.509 0 0 1 5.5-5.5h44.835a5.51 5.51 0 0 1 5.5 5.5v91a5.51 5.51 0 0 1-5.5 5.5zm-44.835-97a.5.5 0 0 0-.5.5v91a.5.5 0 0 0 .5.5h44.835a.5.5 0 0 0 .5-.5v-91a.5.5 0 0 0-.5-.5z" fill="#21a0aa"/><path d="M649.364 226a3.5 3.5 0 0 1-3.5-3.5v-162a3.5 3.5 0 0 1 7 0v162a3.5 3.5 0 0 1-3.5 3.5z" fill="#9b3c82"/><rect fill="#21a0aa" height="90" rx="3.003" width="50.84" x="623.403" y="96.5"/><path d="M671.24 189h-44.835a5.509 5.509 0 0 1-5.5-5.5v-84a5.509 5.509 0 0 1 5.5-5.5h44.835a5.51 5.51 0 0 1 5.5 5.5v84a5.51 5.51 0 0 1-5.5 5.5zm-44.835-90a.5.5 0 0 0-.5.5v84a.5.5 0 0 0 .5.5h44.835a.5.5 0 0 0 .5-.5v-84a.5.5 0 0 0-.5-.5z" fill="#21a0aa"/><path d="M770.516 263a3.5 3.5 0 0 1-3.5-3.5v-148a3.5 3.5 0 0 1 7 0v148a3.5 3.5 0 0 1-3.5 3.5z" fill="#9b3c82"/><rect fill="#f94f46" height="76" rx="3.003" width="50.84" x="743.473" y="147.5"/><path d="M791.311 226h-44.835a5.509 5.509 0 0 1-5.5-5.5v-70a5.509 5.509 0 0 1 5.5-5.5h44.835a5.509 5.509 0 0 1 5.5 5.5v70a5.509 5.509 0 0 1-5.5 5.5zm-44.835-76a.5.5 0 0 0-.5.5v70a.5.5 0 0 0 .5.5h44.835a.5.5 0 0 0 .5-.5v-70a.5.5 0 0 0-.5-.5z" fill="#f94f46"/><path d="M892.749 290a3.5 3.5 0 0 1-3.5-3.5v-133a3.5 3.5 0 0 1 7 0v133a3.5 3.5 0 0 1-3.5 3.5z" fill="#9b3c82"/><rect fill="#f94f46" height="61" rx="3.003" width="50.84" x="866.788" y="189.5"/><path d="M914.625 253h-44.834a5.509 5.509 0 0 1-5.5-5.5v-55a5.509 5.509 0 0 1 5.5-5.5h44.834a5.509 5.509 0 0 1 5.5 5.5v55a5.509 5.509 0 0 1-5.5 5.5zm-44.834-61a.5.5 0 0 0-.5.5v55a.5.5 0 0 0 .5.5h44.834a.5.5 0 0 0 .5-.5v-55a.5.5 0 0 0-.5-.5z" fill="#f94f46"/><path d="M1010.656 357a3.5 3.5 0 0 1-3.5-3.5v-171a3.5 3.5 0 0 1 7 0v171a3.5 3.5 0 0 1-3.5 3.5z" fill="#9b3c82"/><rect fill="#f94f46" height="99" rx="3.003" width="50.84" x="984.695" y="218.5"/><path d="M1032.532 320H987.7a5.51 5.51 0 0 1-5.5-5.5v-93a5.51 5.51 0 0 1 5.5-5.5h44.835a5.51 5.51 0 0 1 5.5 5.5v93a5.51 5.51 0 0 1-5.503 5.5zM987.7 221a.5.5 0 0 0-.5.5v93a.5.5 0 0 0 .5.5h44.835a.5.5 0 0 0 .5-.5v-93a.5.5 0 0 0-.5-.5z" fill="#f94f46"/><path d="M1136.134 288a3.5 3.5 0 0 1-3.5-3.5v-141a3.5 3.5 0 0 1 7 0v141a3.5 3.5 0 0 1-3.5 3.5z" fill="#9b3c82"/><rect fill="#21a0aa" height="69" rx="3.003" width="50.84" x="1110.173" y="179.5"/><path d="M1158.011 251h-44.835a5.51 5.51 0 0 1-5.5-5.5v-63a5.51 5.51 0 0 1 5.5-5.5h44.835a5.51 5.51 0 0 1 5.5 5.5v63a5.51 5.51 0 0 1-5.5 5.5zm-44.835-69a.5.5 0 0 0-.5.5v63a.5.5 0 0 0 .5.5h44.835a.5.5 0 0 0 .5-.5v-63a.5.5 0 0 0-.5-.5z" fill="#21a0aa"/><path d="M1248.632 218a3.5 3.5 0 0 1-3.5-3.5v-155a3.5 3.5 0 0 1 7 0v155a3.5 3.5 0 0 1-3.5 3.5z" fill="#9b3c82"/><rect fill="#21a0aa" height="83" rx="3.003" width="50.84" x="1222.671" y="95.5"/><path d="M1270.509 181h-44.835a5.51 5.51 0 0 1-5.5-5.5v-77a5.51 5.51 0 0 1 5.5-5.5h44.835a5.51 5.51 0 0 1 5.5 5.5v77a5.51 5.51 0 0 1-5.5 5.5zm-44.835-83a.5.5 0 0 0-.5.5v77a.5.5 0 0 0 .5.5h44.835a.5.5 0 0 0 .5-.5v-77a.5.5 0 0 0-.5-.5z" fill="#21a0aa"/><path d="M1367.621 179a3.5 3.5 0 0 1-3.5-3.5V3.5a3.5 3.5 0 0 1 7 0v172a3.5 3.5 0 0 1-3.5 3.5z" fill="#9b3c82"/><g fill="#21a0aa"><rect height="100" rx="3.003" width="50.84" x="1341.66" y="39.5"/><path d="M1389.5 142h-44.835a5.509 5.509 0 0 1-5.5-5.5v-94a5.509 5.509 0 0 1 5.5-5.5h44.835a5.51 5.51 0 0 1 5.5 5.5v94a5.51 5.51 0 0 1-5.5 5.5zm-44.838-100a.5.5 0 0 0-.5.5v94a.5.5 0 0 0 .5.5h44.838a.5.5 0 0 0 .5-.5v-94a.5.5 0 0 0-.5-.5z"/></g></svg></g></svg>