<svg xmlns="http://www.w3.org/2000/svg" version="1.1" viewBox="0 0 3000 3000" width="3000" height="3000">
<defs/><!--ITEM: Illustration component 1--><g transform="translate(1420.0 2629.0) rotate(0.0 149.0 38.5)  scale(2.242135596535976 2.264705882352941)"><svg width="132.909" height="34.0" viewBox="0.0 0.0 132.909 34.0"><g id="bodypositive-i1">
    <ellipse cx="66.455" cy="17" rx="66.455" ry="17" style="         fill: #5b2448;       "/>
  </g>
</svg></g><!--ITEM: Illustration component 2--><g transform="translate(260.0 414.0) rotate(0.0 961.5 1145.0)  scale(0.9504275193990016 0.9500497842681712)"><svg width="2023.3" height="2410.4" viewBox="0.0 0.0 2023.3 2410.4"><path d="m1502.1 728.6c-101.6 155.5-224.5 302-157.4 364.2 12.2 11.3 32.1 7.4 36.1 6.5 103.9-20.8 119.8-335.3 121.3-370.7z" fill="#5b2448"/><path d="m1764.3 1120.9c-68.5 74.1-245.5 27.8-376-66.6-9.1-6.6-17.9-13.3-26.4-20.3-12.5-10.3-24.6-21.2-36.1-32.5-144-141.7-208.1-356.7-150.9-406.7 44.8-39.2 160.5 26.3 215.8 57.6 236.9 134.1 440.2 396.4 373.6 468.5z" fill="#f4ada2"/><path d="m440.6 1951.5c-101.4 192.3-133.6 369.8-71.4 422.7 17.1 14.6 41.6 19.8 64.3 9.2 60.2-28.1 54.4-203.5 7.1-431.9z" fill="#5b2448"/><path d="m476.9 2195.3c-78.5-10.8-203.8-36.3-281-55.2l7.2-116.2s39-77.7 63.2-91.3c41.3 3.3 84.4 5.7 129.4 7 34.4 1 67.9 1.2 100.2.8 2.5 26.3 3.8 55 3.3 85.8-1.4 65.4-10.8 122.5-22.3 169.1z" fill="#f4ada2"/><path d="m329.2 2169.4c-48.9-9.8-97.8-20.4-133.4-29.2l7.2-116.2 63.2-91.3c13.3.8 26.6 1.5 39.9 2.3s26.7 1.6 40 2.5c-5.6 77.2-11.2 154.6-16.9 231.9z" fill="#66b0f0"/><path d="m306.1 1934.9c-3-.2-6-.4-9-.5l-14.4 225.4c4.7 1 9.5 2 14.3 3l14.5-227.6c-1.8-.1-3.6-.2-5.4-.3z" fill="#fff"/><path d="m50.3 2407c-15.2-12.8-36.4-39.5-41.4-95.5-9.2-103.2-4.5-414.2-4.5-414.2 33.8 6 55.8 9.9 75.3 13-.1-.1-.2-.3-.3-.4 32 4.1 65.4 8.4 95.7 12.3 42.4 5.4 78.8 9.9 96.8 12.2.1 0 .3 0 .5.1 7.5 1 11.8 1.6 11.8 1.7-2.7 37.1-36.1 53.3-47 83.5-.4 1-.7 2-1 3-8.4 25.8-16.4 81.8-21 122-5.6 49.3-22 93.3-31.8 115.4-1.8 4-3.4 7.4-4.7 10.1-2.4 4.8-4.8 9.4-7.2 13.9-.8 1.5-1.6 2.9-2.4 4.4-1.3 2.3-2.6 4.5-3.9 6.7-.4.7-.8 1.3-1.2 2-8.4 14-17.8 27.5-28.2 40.2-.9 1.1-1.7 2.1-2.6 3.1-.3.4-.6.7-.9 1.1s-.6.7-.9 1.1c-.1.1-.2.2-.3.3-.2.2-.3.4-.5.6-.1.1-.1.1-.2.2-.8.9-1.6 1.9-2.4 2.8-.2.2-.4.5-.6.7-.4.5-.9 1-1.4 1.5-.2.2-.4.4-.6.6-.6.7-1.2 1.3-1.8 1.9-.1.1-.1.1-.2.2l-.6.7c-.2.2-.4.5-.6.7-.4.4-.8.9-1.2 1.3-.2.2-.4.5-.7.7-.1.1-.2.2-.3.3s-.2.2-.3.3c-.6.6-1.2 1.3-1.9 1.9-.9.9-1.7 1.8-2.6 2.6-.4.4-.7.8-1.1 1.1-.4.5-.9.9-1.4 1.4-.8.8-1.6 1.6-2.5 2.4-.5.5-1.1 1-1.6 1.5-.3.3-.6.5-.8.8-.5.5-1 1-1.5 1.4-.4.4-.8.7-1.2 1.1-1.2 1.1-2.4 2.2-3.6 3.3-.6.5-1.1 1-1.7 1.5-.9.8-1.9 1.6-2.8 2.4-.8.6-1.5 1.2-2.2 1.9l-1.1.9c-.4.3-.7.6-1.1.9-.7.6-1.4 1.2-2.2 1.7-1.5 1.2-3 2.3-4.4 3.4-.5.4-1 .7-1.4 1.1-3 2.2-5.9 4.2-8.6 6-.5.4-1.1.7-1.6 1.1-.9.6-1.9 1.2-2.8 1.8-1.4.9-2.8 1.7-4.1 2.5-.6.4-1.2.7-1.8 1.1-4.5 2.7-8.3 4.6-10.9 5.9-.4.2-.7.3-1 .5-1.4.7-2.4 1.1-3 1.4-.2.1-.3.1-.4.2-0-.4-0-.4-.1-.3z" fill="#fff"/><path d="m71.2 2395.7c-63.4-88.9-30.2-193.4-8.8-244.9 18.4-44.4-5.4-59.1 6.1-95.3 9.6-30.3 31.2-39.8 35.7-78.3 2.7-23.1-12.1-53-24.4-66.9-.1-.1-.2-.3-.3-.4 32 4.1 65.4 8.4 95.7 12.3 42.4 5.4 109.1 13.8 109.1 13.9-2.7 37.1-36.1 53.3-47 83.5-.4 1-.7 2-1 3-8.4 25.8-16.4 81.8-21 122-5.6 49.3-22 93.3-31.8 115.4-1.8 4-3.4 7.4-4.7 10.1-2.4 4.8-4.8 9.4-7.2 13.9-.8 1.5-1.6 2.9-2.4 4.4-1.3 2.3-2.6 4.5-3.9 6.7-.4.7-.8 1.3-1.2 2-8.4 14-17.8 27.5-28.2 40.2-.9 1.1-1.7 2.1-2.6 3.1-.3.4-.6.7-.9 1.1s-.6.7-.9 1.1c-.1.1-.2.2-.3.3-.2.2-.3.4-.5.6-.1.1-.1.1-.2.2-.2.2-.4.5-.6.7-.6.7-1.2 1.4-1.8 2-.2.2-.4.5-.6.7-.4.5-.9 1-1.4 1.5-.2.2-.4.4-.6.6-.6.7-1.2 1.3-1.8 1.9-.1.1-.1.1-.2.2l-.6.7c-.2.2-.4.5-.6.7-.4.4-.8.9-1.2 1.3-.2.2-.4.5-.7.7-.1.1-.2.2-.3.3s-.2.2-.3.3c-.6.6-1.2 1.3-1.9 1.9-.9.9-1.7 1.8-2.6 2.6l-.5.5c-.2.2-.4.4-.6.6-.4.5-.9.9-1.4 1.4-.6.6-1.1 1.1-1.6 1.6l-.8.8c-.1.1-.3.3-.4.4-.4.4-.8.8-1.2 1.1-.3.3-.6.5-.8.8-.5.5-1 1-1.5 1.4-.4.4-.8.7-1.2 1.1-1.2 1.1-2.4 2.2-3.6 3.3-.6.5-1.1 1-1.7 1.5-.9.8-1.9 1.6-2.8 2.4-.8.6-1.5 1.2-2.2 1.9l-1.1.9c-.4.3-.7.6-1.1.9-.7.6-1.4 1.2-2.2 1.7-1.5 1.2-3 2.3-4.4 3.4-.5.4-1 .7-1.4 1.1-3 2.2-5.9 4.2-8.6 6-.5.4-1.1.7-1.6 1.1-.9.6-1.9 1.2-2.8 1.8-.3 0-.5.1-.6.2z" fill="#5b2448"/><path d="m204.1 2060.8c-1-.6-1.6-1.6-1.8-2.8-4.7-34.8-11.6-43.8-25.5-61.7-3.7-4.8-8-10.2-12.7-16.9-22.9-32.2-20.7-57.8-20.6-58.9.2-2.2 2.1-3.7 4.3-3.5s3.7 2.1 3.5 4.3c0 .4-1.8 24 19.2 53.6 4.7 6.6 8.8 11.9 12.5 16.7 14.3 18.4 22.2 28.5 27.1 65.4.3 2.1-1.2 4.1-3.4 4.4-.9 0-1.8-.1-2.6-.6z" fill="#fff"/><path d="m69.4 2398.5c-.4-.3-.8-.6-1-1-28-39.3-40.4-85.9-36.7-138.4 2.4-34.2 11.7-71 27.6-109.5 10.1-24.4 7.9-40.3 5.7-55.6-1.7-11.7-3.4-23.8 1-38.7 4.1-14 10.7-22.9 17.1-31.6 8-10.7 15.5-20.9 18.5-40.8 5.2-34.1-21.4-69.4-21.7-69.7-1.1-1.4-.8-3.5.6-4.6s3.5-.8 4.6.6c1.2 1.5 28.6 37.9 23 74.7-3.3 21.5-11.6 32.8-19.7 43.7-6.3 8.5-12.3 16.6-16.1 29.5-4 13.6-2.4 24.5-.8 36 2.2 15.4 4.7 32.9-6.1 59-15.7 37.8-24.8 73.9-27.2 107.4-3.6 51 8.4 96.2 35.6 134.4 1.1 1.5.7 3.5-.7 4.6-1.1.6-2.5.7-3.7-0z" fill="#5b2448"/><path d="m39.8 2017.5c-10.1-6.4-17.2-22.1-17.3-41-.1-11.5 2.5-22.3 7.3-30.6 5.1-8.8 12.1-13.6 19.7-13.7 7.6 0 14.6 4.8 19.8 13.5 4.9 8.2 7.6 19 7.6 30.5.1 11.5-2.5 22.3-7.3 30.6-5.1 8.8-12.1 13.6-19.7 13.7-3.5 0-7-1.1-10.1-3zm16.4-76.7c-2-1.3-4.3-2-6.6-2-5.2 0-10.2 3.7-14.1 10.4-4.2 7.2-6.5 16.9-6.4 27.3.1 20.4 9.7 37.5 20.9 37.5 5.2 0 10.2-3.7 14.1-10.4 4.2-7.2 6.5-16.9 6.4-27.3s-2.4-20-6.7-27.2c-1.9-3.3-4.5-6.1-7.6-8.3z" fill="#5b2448"/><path d="m48.8 2409.9c-.2-.1-.4-.3-.6-.4-30.2-25.3-39.8-67.1-42.5-97.7-9.1-102.2-4.6-411.5-4.6-414.6 0-1.8 1.5-3.2 3.3-3.2h.5c35.3 6.2 56.2 9.9 75.3 13 35.7 5.7 63.8 9 138.8 17.8 15.5 1.8 33.1 3.9 53.2 6.2.1 0 .3 0 .5.1l8.3 1c1.8.2 3.1 1.8 2.9 3.6s-1.8 3.1-3.6 2.9l-8.4-1c-.1 0-.2 0-.2 0h-.1c-20.2-2.4-37.8-4.4-53.3-6.3-75.1-8.8-103.3-12.1-139.1-17.8-18.4-3-38.5-6.5-71.6-12.3-.5 36-3.9 314.4 4.6 410.1 4.6 51.5 23.2 78.4 38.7 92 .5-.2 1-.5 1.6-.8.3-.1.6-.3 1-.5 3.4-1.7 7-3.6 10.7-5.8.6-.3 1.1-.7 1.7-1 1.3-.8 2.6-1.6 4-2.5.9-.6 1.8-1.1 2.7-1.8.6-.4 1.1-.7 1.6-1.1 2.9-1.9 5.7-3.9 8.5-6 .5-.4.9-.7 1.4-1 1.6-1.2 3-2.3 4.4-3.4 1.1-.8 2.2-1.7 3.2-2.6l1.1-.9c.5-.4 1-.8 1.5-1.3l.7-.6c.9-.8 1.8-1.5 2.7-2.3l.5-.4c.4-.3.7-.6 1.1-1 1.2-1.1 2.4-2.1 3.6-3.2.4-.3.8-.7 1.1-1l.1-.1c.5-.4 1-.9 1.5-1.4.3-.3.6-.6.9-.8l1.5-1.5c.8-.8 1.6-1.6 2.4-2.3l.6-.6c.3-.2.5-.5.8-.8l1.1-1.1c.9-.9 1.7-1.7 2.6-2.6.8-.8 1.6-1.7 2.4-2.5.6-.7 1.3-1.3 1.9-2l.7-.7c.8-.9 1.7-1.8 2.5-2.7.2-.2.4-.4.5-.6.7-.8 1.4-1.5 2-2.3l.1-.1c.7-.8 1.5-1.7 2.3-2.6l.1-.1c.6-.7 1.1-1.3 1.7-2 .3-.4.6-.7.9-1.1.9-1.1 1.7-2.1 2.6-3.1 10.2-12.6 19.6-25.9 27.9-39.8.3-.6.6-1.1.9-1.6l.2-.4c1.3-2.1 2.5-4.3 3.9-6.6.8-1.4 1.6-2.9 2.4-4.4 2.6-4.9 5-9.4 7.2-13.8 1.6-3.1 3.1-6.5 4.6-10 8.7-20.1 20.5-55.5 27.1-109.5.2-1.8 1.8-3.1 3.6-2.8 1.8.2 3.1 1.8 2.8 3.6-6.7 54.7-18.7 90.7-27.6 111.3-1.6 3.6-3.2 7.1-4.8 10.3-2.2 4.5-4.6 9.1-7.3 14-.8 1.5-1.6 3-2.5 4.4-1.3 2.4-2.7 4.6-3.9 6.7l-.2.3c-.3.6-.7 1.1-1 1.7-8.5 14.2-18 27.7-28.4 40.5-.9 1.1-1.7 2.1-2.6 3.2-.3.4-.6.8-1 1.2-.5.6-1.1 1.3-1.6 1.9l-.1.1c-.8.9-1.6 1.8-2.4 2.7l-.1.1c-.7.8-1.4 1.5-2 2.3-.2.2-.4.4-.6.7-.8.9-1.7 1.9-2.5 2.8l-.6.7c-.6.7-1.3 1.4-1.9 2-.8.9-1.6 1.7-2.5 2.6s-1.7 1.8-2.6 2.6c-.4.4-.8.8-1.2 1.2-.2.2-.5.5-.8.8l-.5.5c-.9.8-1.7 1.7-2.5 2.4l-1.6 1.5c-.3.3-.6.5-.8.8-.5.5-1.1 1-1.6 1.4-.4.4-.8.8-1.2 1.1-1.2 1.1-2.5 2.2-3.7 3.3-.4.3-.8.7-1.2 1l-.5.4c-1 .8-1.9 1.6-2.8 2.4l-.7.6c-.5.4-1.1.9-1.6 1.3l-1.1.9c-1.1.9-2.2 1.8-3.3 2.6-1.4 1.1-2.9 2.3-4.5 3.5-.5.4-1 .7-1.5 1.1-2.8 2.1-5.7 4.1-8.6 6.1-.5.4-1.1.8-1.7 1.1-.9.6-1.8 1.2-2.8 1.8-1.4.9-2.8 1.8-4.1 2.5-.6.4-1.2.7-1.8 1.1-3.9 2.3-7.6 4.3-11.1 6-.3.2-.7.3-1 .5-1.5.7-2.6 1.2-3.2 1.5h-.1c-.1 0-.2.1-.3.1l-.1.1c-.9 1.1-2 1.1-2.9.4zm3.1-.1s-.1 0-.1.1c.1 0 .1 0 .1-.1z" fill="#5b2448"/><path d="m206.1 2215.2c-2-1.3-3.5-3.2-4.2-5.5-16.3-55.1-62.8-78.3-63.3-78.5-4.9-2.4-6.9-8.2-4.6-13.1s8.2-6.9 13.1-4.5c2.2 1.1 54.7 27 73.5 90.6 1.5 5.2-1.4 10.6-6.6 12.1-2.6.8-5.5.4-7.9-1.1z" fill="#ffcf2d"/><path d="m186.3 2263.4c-2.2-1.4-3.7-3.5-4.3-6-13.4-56.5-60.2-80.5-60.7-80.7-4.8-2.4-6.8-8.3-4.4-13.1s8.3-6.8 13.1-4.4c2.3 1.1 55.4 28.5 71 93.7 1.3 5.3-2 10.5-7.3 11.8-2.5.5-5.2.1-7.4-1.3z" fill="#ffcf2d"/><path d="m163.2 2307.8c-2.2-1.4-3.8-3.6-4.3-6.1-11.4-50.5-51.1-72.4-51.5-72.6-4.7-2.6-6.5-8.5-3.9-13.3 2.6-4.7 8.4-6.4 13.1-4 2 1 48 26.1 61.4 85.6 1.2 5.3-2.1 10.5-7.4 11.7-2.6.6-5.2.1-7.4-1.3z" fill="#ffcf2d"/><path d="m439.4 1939.9c-10.4 31.9-20.4 67.9-28.5 107.6-10.1 49.2-15.4 94.4-17.9 134.3 32.9 5.8 65.7 11.7 98.6 17.5-17.5-86.5-34.9-173-52.2-259.4z" fill="#9b3c82"/><path d="m1193.8 2204.5c-2.1 28-11 55-25.7 78.9-124.6 202.9-420 69.2-757.4 105.3 121.1-18.3-16.8-224 28.4-448.9 43 .5 87 .3 132.2-.7 26.6-.6 42-1.8 65.6-3.1 2.7-.1 5.5-.3 8.4-.4h.1c-34.3-57.3-103.5-148.3-137.1-294.4-57.4-250.1 22.4-316 45.4-367.8 154.3 20.6 308.6 41.2 462.9 61.7-7.8 59.9 12.5 240.6 38.6 308.7 54.5 194.7 149 418.4 138.6 560.7z" fill="#21a0aa"/><path d="m622 1645c-1.5 0-2.9-1.1-3.3-2.6-.5-1.9.6-3.8 2.5-4.3 22.7-5.9 79.3-26.1 114.4-85.2 27.5-46.3 27.2-92.5 24.6-115.9-.2-1.9 1.2-3.6 3.1-3.9 1.9-.2 3.6 1.2 3.9 3.1 2.7 24.3 3 72.2-25.5 120.2-16.6 28-39.8 50.8-68.9 67.7-15.8 9.2-33 16.4-49.7 20.7-.5.2-.8.2-1.1.2z" fill="#6ce0dc"/><path d="m681.3 1989.8c-.6.5-1.3.7-2 .7-1.1 0-2.1-.5-2.8-1.4l-39.5-53.1c2.7-.1 5.5-.3 8.4-.4l36.7 49.3c1.1 1.5.7 3.7-.8 4.9z" fill="#6ce0dc"/><path d="m1781.4 1958.1c-208.2-78.4-377.7-90.3-423.4-20.4-12.6 19.2-14.8 44.8-1.1 66.5 36.1 57.5 198.6 31.2 424.5-46.1z" fill="#5b2448"/><path d="m1818.3 1921.2c-.7 4.6-1.6 9.6-2.5 14.8-6.1 35.6-16.1 83.9-27 132.2-10.9 48.7-22.7 97.3-32.4 132.7l-116-9.9s-76.8-40.8-89.8-65.3c1.2-29 1.8-56 1.9-80.4 0-6 .1-11.9 0-17.7 0-3.6 0-7.2 0-10.8-.3-42.5-1.8-75.6-3.1-97.2-1.1-18.4-2.1-28.3-2.1-28.3s183 .2 271 29.9z" fill="#f4ada2"/><path d="m1788.9 2068.2c-10.9 48.7-22.7 97.3-32.4 132.7l-116-9.9-89.8-65.3c1.2-29 1.8-56 1.9-80.4z" fill="#66b0f0"/><path d="m1781.6 2100.3-229.4-20.1c-.1 4.8-.2 9.6-.4 14.5l226.5 19.8c1-4.7 2.1-9.5 3.3-14.2z" fill="#fff"/><path d="m2019.8 2352.7c-13.1 14.9-40.4 35.5-96.4 39.1-103.4 6.7-414.2-5.2-414.2-5.2 6.8-33.7 11.2-55.6 14.8-75-.1.1-.3.2-.4.3 4.9-31.9 9.9-65.2 14.5-95.3 6.4-42.3 11.7-78.5 14.5-96.5 0-.1 0-.3.1-.5 1.1-7.5 1.8-11.8 1.9-11.7 37 3.6 52.4 37.3 82.4 49 1 .4 2 .8 3 1.1 25.5 9 81.4 18.4 121.5 23.8 49.2 6.8 92.7 24.2 114.6 34.5 4 1.9 7.3 3.5 10 4.9 4.7 2.5 9.3 5 13.7 7.6 1.5.9 2.9 1.7 4.3 2.5 2.2 1.3 4.4 2.7 6.6 4 .7.4 1.3.8 2 1.2 13.8 8.7 27 18.5 39.5 29.1 1 .9 2 1.8 3.1 2.7.4.3.7.6 1.1.9s.7.6 1.1.9c.1.1.2.2.3.3.2.2.4.3.5.5l.2.2c.9.8 1.8 1.7 2.7 2.5.2.2.5.4.7.7.5.4 1 .9 1.5 1.4l.6.6c.6.6 1.3 1.2 1.9 1.8l.2.2.6.6c.2.2.5.4.7.7.4.4.9.8 1.3 1.3l.7.7c.1.1.2.2.3.3s.2.2.3.3l1.9 1.9c.9.9 1.7 1.8 2.5 2.6.4.4.7.8 1.1 1.1.5.5.9.9 1.3 1.4.8.8 1.6 1.7 2.3 2.5.5.5 1 1.1 1.5 1.6.3.3.5.6.8.9.5.5.9 1.1 1.4 1.6.4.4.7.8 1.1 1.2 1.1 1.2 2.2 2.5 3.2 3.7.5.6 1 1.1 1.4 1.7.8 1 1.5 1.9 2.3 2.8.6.8 1.2 1.5 1.8 2.3l.9 1.1c.3.4.6.7.9 1.1.6.7 1.1 1.5 1.7 2.2 1.2 1.5 2.2 3 3.3 4.5.4.5.7 1 1 1.5 2.2 3 4.1 5.9 5.8 8.7.4.6.7 1.1 1 1.6.6.9 1.2 1.9 1.7 2.8.9 1.4 1.7 2.8 2.4 4.1.4.6.7 1.2 1 1.8 2.6 4.6 4.4 8.4 5.7 11 .2.4.3.7.5 1 .6 1.4 1.1 2.5 1.3 3.1.1.2.1.3.2.4-.2.2-.2.2-.2.3z" fill="#fff"/><path d="m2009 2331.6c-90.4 61.3-194.1 25.6-245.1 3-44-19.5-59.2 4-95.2-8.3-30-10.3-39-32.2-77.4-37.5-23.1-3.2-53.3 10.9-67.5 22.8-.1.1-.3.2-.4.3 4.9-31.9 9.9-65.1 14.5-95.3 6.4-42.3 16.4-108.7 16.5-108.7 37 3.6 52.4 37.3 82.4 49 1 .4 2 .8 3 1.1 25.5 9 81.4 18.4 121.5 23.8 49.2 6.8 92.7 24.2 114.6 34.5 4 1.9 7.3 3.5 10 4.9 4.7 2.5 9.3 5 13.7 7.6 1.5.9 2.9 1.7 4.3 2.5 2.2 1.3 4.4 2.7 6.6 4 .7.4 1.3.8 2 1.2 13.8 8.7 27 18.5 39.5 29.1 1 .9 2 1.8 3.1 2.6.4.3.7.6 1.1.9s.7.6 1.1.9l.3.3c.2.2.4.3.5.5.1.1.1.1.2.2.2.2.5.4.7.6.7.6 1.3 1.2 2 1.8.2.2.5.4.7.7.5.4 1 .9 1.5 1.4l.6.6c.6.6 1.3 1.2 1.9 1.8l.2.2.6.6c.2.2.5.4.7.7.4.4.9.8 1.3 1.3.2.2.4.4.7.7.1.1.2.2.3.3s.2.2.3.3l1.9 1.9c.9.9 1.7 1.8 2.5 2.6l.5.5.6.6c.5.5.9.9 1.3 1.4.5.6 1.1 1.1 1.6 1.7l.8.8.4.4c.4.4.7.8 1.1 1.2.3.3.5.6.8.9.5.5.9 1.1 1.4 1.6.4.4.7.8 1.1 1.2 1.1 1.2 2.2 2.5 3.2 3.7.5.6 1 1.1 1.4 1.7.8 1 1.5 1.9 2.3 2.8.6.8 1.2 1.5 1.8 2.3l.9 1.1c.3.4.6.7.9 1.1.6.7 1.1 1.5 1.7 2.2 1.2 1.5 2.2 3 3.3 4.5.4.5.7 1 1 1.5 2.2 3 4.1 5.9 5.8 8.7.4.6.7 1.1 1 1.6.6.9 1.2 1.9 1.7 2.8 0 .4.1.6.2.8z" fill="#5b2448"/><path d="m1677.3 2190.8c-.6 1-1.7 1.6-2.8 1.7-34.9 3.8-44.1 10.6-62.2 24.1-4.9 3.6-10.4 7.7-17.2 12.3-32.8 22.2-58.3 19.4-59.4 19.2-2.1-.3-3.7-2.2-3.4-4.4s2.2-3.7 4.4-3.4c.4 0 24 2.4 54.1-17.9 6.7-4.5 12.1-8.6 17-12.1 18.7-13.9 29-21.5 66-25.6 2.1-.2 4.1 1.3 4.3 3.5 0 .9-.3 1.8-.8 2.6z" fill="#fff"/><path d="m2011.8 2333.4c-.3.4-.6.8-1.1 1-40 27.1-86.9 38.3-139.3 33.4-34.1-3.2-70.7-13.4-108.8-30.2-24.2-10.7-40.1-8.8-55.4-7-11.8 1.4-23.9 2.8-38.7-1.9-13.9-4.4-22.7-11.2-31.2-17.8-10.6-8.2-20.5-16-40.3-19.5-33.9-6-69.9 19.8-70.2 20.1-1.5 1.1-3.5.7-4.6-.7s-.7-3.5.7-4.6c1.6-1.1 38.6-27.7 75.2-21.2 21.4 3.8 32.5 12.4 43.2 20.8 8.4 6.5 16.3 12.7 29.1 16.8 13.5 4.3 24.4 3 36 1.6 15.5-1.8 33-3.9 58.8 7.5 37.4 16.6 73.3 26.6 106.7 29.7 50.9 4.8 96.4-6.1 135.2-32.4 1.5-1 3.5-.6 4.5.8.9 1 .9 2.5.2 3.6z" fill="#5b2448"/><path d="m1630.2 2354c-6.6 10-22.5 16.6-41.3 16.3-11.5-.2-22.3-3.1-30.4-8-8.7-5.3-13.3-12.4-13.2-20s5.1-14.5 13.9-19.5c8.3-4.7 19.2-7.1 30.7-6.9s22.3 3.1 30.4 8c8.7 5.3 13.3 12.4 13.2 20-.2 3.6-1.3 7.1-3.3 10.1zm-76.3-18.2c-1.3 1.9-2.1 4.2-2.2 6.6-.1 5.2 3.5 10.3 10.1 14.3 7.1 4.4 16.8 6.9 27.1 7.1 20.4.4 37.8-8.8 38-20 .1-5.2-3.5-10.3-10.1-14.3-7.1-4.4-16.8-6.9-27.1-7.1s-20.1 2-27.4 6.1c-3.3 1.7-6.2 4.2-8.4 7.3z" fill="#5b2448"/><path d="m2022.7 2354.3c-.1.2-.3.4-.5.6-26 29.6-68 38.2-98.7 40.2-102.3 6.7-411.5-5.1-414.6-5.2-1.8-.1-3.2-1.6-3.1-3.4 0-.2 0-.3.1-.5 7.1-35.1 11.2-55.9 14.7-75 6.6-35.5 10.5-63.5 21.1-138.3 2.2-15.5 4.7-33 7.5-53.1 0-.1 0-.3.1-.5l1.2-8.2c.3-1.8 1.9-3 3.7-2.8s3 1.9 2.8 3.7l-1.2 8.3v.2.1c-2.9 20.1-5.3 37.7-7.5 53.2-10.6 74.9-14.5 102.9-21.1 138.6-3.4 18.4-7.4 38.4-14 71.3 36 1.3 314.2 11.3 410.1 5.1 51.6-3.3 78.9-21.4 92.9-36.5-.2-.5-.4-1-.7-1.7-.1-.3-.3-.6-.4-1-1.6-3.4-3.5-7.1-5.6-10.8-.3-.6-.6-1.1-1-1.7-.7-1.3-1.5-2.7-2.4-4.1-.5-.9-1.1-1.8-1.7-2.7-.3-.6-.7-1.1-1-1.6-1.9-2.9-3.8-5.8-5.8-8.6-.3-.5-.7-1-1-1.4-1.2-1.6-2.2-3.1-3.3-4.5-.8-1.1-1.6-2.2-2.5-3.3l-.9-1.2c-.4-.5-.8-1-1.2-1.5l-.6-.7c-.7-.9-1.5-1.8-2.3-2.8l-.4-.5c-.3-.4-.6-.8-1-1.1-1-1.2-2.1-2.5-3.1-3.7-.3-.4-.7-.8-1-1.1l-.1-.1c-.4-.5-.9-1-1.3-1.5-.3-.3-.5-.6-.8-.9l-1.4-1.6c-.8-.8-1.5-1.7-2.3-2.5l-.5-.6c-.2-.3-.5-.5-.7-.8-.4-.4-.7-.8-1.1-1.1-.9-.9-1.7-1.8-2.6-2.6-.8-.8-1.6-1.6-2.5-2.5-.7-.7-1.3-1.3-1.9-1.9l-.7-.7c-.9-.8-1.7-1.7-2.6-2.5-.2-.2-.4-.4-.6-.6-.8-.7-1.5-1.4-2.2-2.1l-.1-.1c-.8-.8-1.7-1.5-2.5-2.3l-.1-.1c-.7-.6-1.3-1.2-1.9-1.7-.4-.4-.7-.6-1-.9-1-.9-2-1.8-3.1-2.7-12.3-10.5-25.4-20.2-39.1-28.8-.5-.4-1.1-.7-1.6-1l-.4-.2c-2.1-1.3-4.3-2.6-6.5-4-1.4-.8-2.8-1.7-4.3-2.5-4.8-2.8-9.2-5.2-13.6-7.5-3.1-1.6-6.4-3.3-9.9-4.9-19.9-9.2-55-21.9-108.8-29.7-1.8-.3-3-1.9-2.8-3.7s1.9-3 3.7-2.8c54.6 8 90.3 20.9 110.6 30.3 3.6 1.7 7 3.3 10.2 5 4.4 2.3 9 4.8 13.8 7.6 1.5.9 2.9 1.7 4.4 2.6 2.3 1.4 4.6 2.8 6.6 4.1l.3.2c.6.3 1.1.7 1.7 1.1 14 8.8 27.3 18.6 39.8 29.3 1 .9 2.1 1.8 3.1 2.7.4.3.8.7 1.1 1 .6.5 1.2 1.1 1.9 1.7l.1.1c.9.8 1.8 1.6 2.6 2.4l.1.1c.8.7 1.5 1.4 2.2 2.1.2.2.4.4.6.6.9.8 1.8 1.7 2.7 2.6l.7.7c.7.7 1.3 1.3 2 2 .8.8 1.7 1.7 2.5 2.5.9.9 1.7 1.8 2.6 2.7.4.4.8.8 1.1 1.2.2.2.5.5.8.8l.5.5c.8.9 1.6 1.7 2.4 2.6l1.5 1.6c.3.3.5.6.8.9.5.5 1 1.1 1.4 1.6.4.4.7.8 1.1 1.3 1.1 1.2 2.2 2.5 3.2 3.7.3.4.7.8 1 1.2l.4.5c.8 1 1.6 1.9 2.3 2.9l.6.7c.4.5.9 1.1 1.3 1.6l.9 1.1c.9 1.1 1.7 2.3 2.6 3.4 1.1 1.4 2.2 2.9 3.3 4.6.4.5.7 1 1.1 1.5 2 2.9 4 5.8 5.9 8.8.4.5.7 1.1 1.1 1.7.6.9 1.2 1.9 1.7 2.8.9 1.4 1.7 2.8 2.5 4.2.4.6.7 1.2 1 1.8 2.2 3.9 4.1 7.7 5.8 11.3.2.4.3.7.5 1 .7 1.5 1.1 2.6 1.4 3.2v.1c0 .1.1.2.1.3l.1.1c.4.7.4 1.8-.3 2.7zm0-3.2v.1c.1 0 0 0 0-.1z" fill="#5b2448"/><path d="m1831.8 2192.4c-1.3 2-3.3 3.4-5.6 4-55.4 15-79.8 60.9-80 61.4-2.5 4.8-8.4 6.7-13.2 4.2s-6.7-8.4-4.2-13.2c1.1-2.2 28.3-54.1 92.3-71.4 5.2-1.4 10.6 1.7 12 6.9.7 2.9.2 5.8-1.3 8.1z" fill="#ffcf2d"/><path d="m1879.5 2213.4c-1.4 2.1-3.6 3.6-6.1 4.2-56.8 12.1-81.9 58.3-82.1 58.8-2.5 4.8-8.5 6.6-13.2 4.1-4.8-2.5-6.6-8.5-4-13.2 1.2-2.2 29.8-54.7 95.3-68.7 5.3-1.1 10.5 2.2 11.6 7.5.5 2.4-.1 5.1-1.5 7.3z" fill="#ffcf2d"/><path d="m1923.4 2237.5c-1.4 2.2-3.7 3.7-6.2 4.2-50.7 10.2-73.6 49.4-73.8 49.8-2.7 4.7-8.7 6.3-13.4 3.6-4.6-2.7-6.2-8.5-3.7-13.2 1.1-1.9 27.2-47.4 87-59.4 5.3-1.1 10.5 2.4 11.5 7.7.5 2.5 0 5.2-1.4 7.3z" fill="#ffcf2d"/><path d="m1547.4 1887.1c1.7 37.3 3.4 74.6 5.1 111.8 45.8 6.3 101.6 9.7 164.4 4.6 32.2-2.6 61.9-7.1 88.6-12.5-85.9-34.6-172-69.3-258.1-103.9z" fill="#9b3c82"/><path d="m1493.8 751.2c-25.7 48.4-52.4 107.7-74.3 177.3-14.2 45-24.2 87.3-31.2 125.7-9.1-6.6-17.9-13.3-26.4-20.3-12.5-10.3-24.6-21.2-36.1-32.5 15.7-35.7 36.3-76 63.5-118.3 35-54.6 71.9-98.2 104.5-131.9z" fill="#9b3c82"/><path d="m1284.9 1963.7c.4-1.4.8-2.8 1.3-4.2-.5 1.5-.9 2.9-1.3 4.2z" fill="#21a0aa"/><path d="m1863.2 1706.3c-20.4 106.9-40 202.6-57.5 284.9-135.3 4.4-420.2-121.5-455.7-37.3 19.1-52.7 37.9-106.8 56.3-162.4 19.7-59.4 38.1-117.7 55.2-174.8-.2 0-.4.1-.5.2-2.7.8-5.4 1.5-8 2.3-64.5 18.2-119.5 35.3-162.8 49.3-111.1 36.1-173.7 61.4-198.8 71.9-1.8.8-3.5 1.5-4.9 2.1-.5.2-1 .4-1.6.7-20.9 8.8-38.1 16.5-50 21.9-14-77.3-26.7-154.8-38.1-232.4-12.4-84.3-23.2-168.9-32.6-253.6 97.6-26.4 720.7-213.5 901.8 17.4 54.7 74 43.8 166.2-2.8 409.8z" fill="#21a0aa"/><path d="m1275.3 1207.2c-132.6 29.7-318 196-418 241.8-23.4 10.7-50.8 22.2-85.2 30.7-50.5 12.5-94.2 13.7-124.3 12.6-13.1-25.5-26.2-53.5-38.6-84-7.9-19.5-15-38.4-21.2-56.6-11.4 15.1-24.6 35.4-36.2 60.8-11.4 25.1-18 48.1-21.9 66.5-22.4-4.7-44.7-9.3-67.1-14 2.3-103.9 11.5-192.5 21.4-262.2 14.4-101.6 37.1-211.7 70.8-313.1.2-.7.5-1.4.7-2.2.7-2.1 1.4-4.1 2.1-6.2.3-.7.5-1.5.8-2.2 52.5-153.3 130.9-285.1 245.2-335 26.1-9.6 58.2-19.6 91.2-19.3 1.9 0 3.8.1 5.7.2h.4c.5.1 1.1.1 1.6.2 2 .3 3.9.5 5.9.8 81 10.6 162 21.1 243 31.7 30.4 86.6 65.4 172 88.1 286.3 25.8 129.2 31.7 262.4 35.6 363.2z" fill="#f94f46"/><path d="m1494.4 764.2c-1.8 2.4-4.2 5.8-7 9.8 0 0-4.3 6.2-8.6 12.2-38.9 53.5-195.3 261.5-133.1 307.5-54.3-41.2-93-77.6-127.4-118.8-2.2-2.7-4.5-5.4-6.7-8.1-14.1-17.5-27.7-35.9-41.4-56-72.8-106.4-150.9-224.4-111.4-325.6 6.5-16.7 20.7-53.7 55.6-70.6 94.8-46 255.4 98.1 324.8 160.3 11 9.9 21.8 18.5 31.7 26.1 3.2 2.4 6.3 4.8 9.3 7.1 2.5 9.3 4.9 18.8 7.3 28.2 2.2 9.3 4.6 18.7 6.9 27.9z" fill="#f94f46"/><path d="m1520.2 678.2c-3.5 2.6-11.6 17.8-18.4 31.4-7-19.2-14.4-37.8-22.4-55.2 16.8 8.8 30.9 16 40.8 23.8z" fill="#f94f46"/><path d="m1091.4 1740.3c-1.8.8-3.5 1.5-4.9 2.1-.5.2-1 .4-1.6.7-26.3-83.8-57.9-198.9-72.8-279.2-.3-1.9.9-3.7 2.8-4.1 1.9-.3 3.7.9 4.1 2.8 14.8 79.8 46.2 194.3 72.4 277.7z" fill="#6ce0dc"/><path d="m915.5 615.1c-3.4 23.3-11.8 44.8-25.9 65.8-12.5 18.6-29.2 36.4-51 54.4-40.4 33.3-91.2 61.3-144.9 91-44 24.3-90.2 44.9-137.8 61.4-2.1.7-4.2 1.5-6.3 2.2.9-2.8 1.9-5.6 2.8-8.4 2.1-.7 4.2-1.5 6.4-2.2 45.4-16.1 89.5-35.9 131.5-59.1 105.4-58.2 204.9-113.1 218.3-206 1.6-10.9 2.3-26.1-.7-44.8-2.1-13.1-6-28-12.7-44.3 0 0 0-.1-.1-.2 1.9 0 3.8.1 5.7.2h.4c.5.1 1.1.1 1.6.2.1.3.2.5.3.8 15.3 39.1 15.1 70.2 12.4 89z" fill="#fcb6b1"/><circle cx="1065.3" cy="704.3" fill="#fcb6b1" r="7.3"/><path d="m588.2 1351.7c8.8 23.9 18.5 48.6 29.4 74.1 9.9 23.2 20 45.4 30.1 66.4-8.9-3-17.7-6.1-26.6-9.1-8.4-13.3-17.1-29-25.2-46.9-10.5-23.3-17.6-45-22.4-63.6 2.6-5 6-10.5 10.5-16.1 1.4-1.7 2.8-3.3 4.2-4.8z" fill="#5b2448"/><path d="m1201.3 182.4c-.2 0-.3.1-.5.1-12.2 2.6-24.6 7.1-37.1 12.8-11 5-22.1 10.9-33.1 17-.2.1-.4.2-.6.4-10.8 6-21.5 12.4-31.9 18.4-5 2.9-11 6.6-17.4 10.6-.8.5-1.5 1-2.3 1.5s-1.5 1-2.3 1.4c-.5.3-1 .6-1.5.9-5.2 3.3-10.5 6.7-15.8 10.1-.2.2-.5.3-.7.5-17.5 11.3-34.4 22.5-42.7 28.3-2.3 1.6-3.6 2.5-3.6 2.5s0-.1-.1-.1c0 0 0 0 0-.1-.1-.3-.3-.6-.5-1 0-.1-.1-.2-.2-.3-.4-.8-1-1.9-1.7-3.1-.1-.2-.3-.5-.5-.8-.1-.2-.2-.3-.3-.5-.2-.3-.4-.7-.6-1.1s-.4-.7-.7-1.1c-.3-.5-.6-1-.9-1.5-.2-.3-.4-.6-.6-.9s-.3-.5-.5-.8c-.5-.8-1-1.7-1.6-2.6-.6-.9-1.2-1.9-1.9-2.9-.3-.5-.7-1-1-1.5-.9-1.5-1.9-3-3-4.5 0-.1-.1-.1-.1-.2-10.2-15.5-24.2-35.5-36.4-49.3-1.7-2-3.4-3.8-5-5.5-.4-.4-.8-.8-1.1-1.2-.2-.2-.4-.4-.6-.6-.4-.4-.7-.7-1.1-1.1-.7-.6-1.3-1.2-1.9-1.8-1.3-1.2-2.6-2.2-3.8-3.1-.3-.3-.7-.5-1-.7s-.7-.4-1-.6-.6-.4-1-.6c-.3-.2-.6-.3-.9-.5.1-2 .2-4.2.2-6.7.6-26.5-1.1-80.3-5.7-98.1-17-57.5 64.9-114.1 118.1-60.7 18.8-49.5 107.8-44.6 117 20.1 84.8-31.1 122.1 107.9 27.9 128.9z" fill="#5b2448"/><g fill="#f4ada2"><path d="m933.5 309.2c-1.8-.2-3.6-.5-5.3-.8l.2-.3c1 .3 2.1.5 3.2.8.1 0 .3.1.5.1.5 0 .9.1 1.4.2z"/><path d="m955 313.1v.4s0 .2-.1.3c0 .2-.1.3-.1.4-.1.2-.2.4-.3.6-.1.1-.2.2-.3.3s-.2.2-.3.3c-.1 0-.1.1-.2.1-.3.2-.5.3-.8.4-.2.1-.3.1-.5.2-.1 0-.2 0-.3.1-.3.1-.7.2-1.1.2-.1 0-.2 0-.3 0s-.2 0-.3 0c-.2 0-.4 0-.6 0s-.4 0-.6 0c-1.4 0-3-.1-4.4-.2-.3 0-.7-.1-1-.1s-.6-.1-.9-.1c-.1 0-.1 0-.2 0-.3 0-.7-.1-1-.1-.7-.1-1.4-.1-1.9-.1-.1 0-.2 0-.3 0-.3 0-.5 0-.8 0-.1-2.1-.1-4.1-.2-6 4.1.5 8.6.7 13.4.4 1.6.1 3 1.3 3.1 2.9z"/><path d="m956 268c-.1 0-.1 0 0 0-.8 1-2.1 1.4-3.3 1.1-.1 0-.1 0-.2-.1-.7-.2-1.3-.6-1.7-1.3-.1-.2-.2-.5-.3-.8 0-.1 0-.2 0-.3-6.8-53.2-44.3-47-46.8-55.4.3-1.9 3.9-2.6 9.1-1.6h.1c7.1 1.5 17.2 6.3 26 15.8 0 0 0 0 .1.1 6.6 7.2 12.4 17 15.6 30v.1c.8 3.2 1.4 6.7 1.9 10.3.1.8-.2 1.5-.5 2.1z"/><path d="m976.3 232.9c-4.9-6.6-10-12.9-15.1-18.4-.2-.2-.3-.4-.5-.6l-.1-.1c-5.9-6.4-11.6-11.7-16.8-15 .2-.4.3-2.8.3-6.6 14.6 11.3 23.7 28.1 32.2 40.7z"/><path d="m900.8 542.1c-2.8-7-5.2-13-7-17.7-1.1 2.4-2.2 4.7-3.4 6.9-.2.4-.4.7-.6 1.1 1.3 2 2.7 3.9 4.2 5.8 1.4 1.7 2.8 3.4 4.4 5.1 1.5 1.6 3 3.2 4.6 4.7-.7-2.1-1.5-4-2.2-5.9zm12.1-332.5c7.2 1.6 17.3 6.6 26 15.8-8.7-9.5-18.8-14.3-26-15.8zm18.2 99.1c-.9-.2-1.8-.4-2.7-.6.4.1.8.2 1.2.3.7.2 1.3.3 2 .4-.1 0-.3 0-.5-.1zm12.9-116.6c-.1 2.5-.1 4.7-.2 6.7.2-.4.3-2.8.2-6.7zm6.9 75.6c.3.7 1 1.1 1.7 1.3-.8-.2-1.4-.7-1.7-1.3zm5.5-1.8c-.4-3.6-1.1-7.1-1.9-10.3.8 3.7 1.4 7.6 1.7 11.8-.1.2-.2.4-.3.6.4-.6.7-1.3.5-2.1zm-.3-56.9c-.4-.4-.8-.8-1.1-1.2-.2-.2-.4-.4-.6-.6-.4-.4-.7-.7-1.1-1.1-.7-.6-1.3-1.2-1.9-1.8-1.3-1.2-2.6-2.2-3.8-3.1-.3-.3-.7-.5-1-.7s-.7-.4-1-.6-.6-.4-1-.6c-.3-.2-.6-.3-.9-.5 5.2 3.3 11 8.6 16.8 15-1.4-1.7-2.9-3.3-4.4-4.8zm55.6 77.7c-.1-.1-.1-.1 0 0-.1-.3-.3-.5-.4-.8 0-.1-.1-.1-.1-.2s-.1-.2-.2-.3c-.4-.8-1-1.9-1.7-3.1-.1-.2-.3-.5-.5-.8-.1-.2-.2-.3-.3-.5-.2-.3-.4-.7-.6-1.1s-.4-.7-.7-1.1c-.3-.5-.6-.9-.9-1.4 0 0 0-.1-.1-.1-.2-.3-.4-.6-.6-.9s-.3-.5-.5-.8c-.5-.8-1-1.7-1.6-2.6-.2-.2-.3-.5-.5-.7s-.3-.5-.5-.7c-.3-.5-.6-1-.9-1.5s-.7-1-1-1.5-.6-.9-.9-1.4-.6-1-.9-1.4c-.2-.4-.5-.8-.7-1.1.2.4.5.8.7 1.1.1.2.3.5.5.7.2.3.3.5.5.8s.4.6.6.9c.1.2.3.4.4.6.6 1 1.2 1.9 1.8 2.8.1.2.2.4.3.5.2.4.5.8.7 1.1s.3.5.5.8.3.5.5.8v.1s0 .1.1.1c.1.1.1.2.2.3.2.3.3.5.5.8.1.2.3.4.4.6s.3.4.4.6c.1.1.1.2.2.3.3.5.6.9.8 1.3.1.1.1.2.2.3s.1.2.2.3c.3.5.6 1 .9 1.5.1.2.3.5.4.7.2.3.4.6.6 1 .6 1 1 1.8 1.4 2.4v.1l.1.1c.1.2.3.4.4.6 0 .1.1.1.1.2.1.2.2.4.3.5-.2-.1-.2-0-.1.1-.1-.1-.1-.1 0 0zm3.5 4.9v.2c0-.2 0-.4 0-.6-.1.1 0 .2 0 .4zm5.5 15.2c0-.1-.1-.1-.1-.2.1.1.2.3.3.4-.1 0-.1-.1-.2-.2zm43.6-49.1c1 .5 2.1 1.1 3 1.7-1-.6-2-1.2-3-1.7zm7.9-10.8c-1.2.8-2.5 1.6-3.7 2.3-3.3 2.1-6.6 4.2-9.8 6.2 5.2-3.3 10.2-6.5 15.2-9.7-.5.5-1.1.8-1.7 1.2zm4.4 21.1c-.8-1-1.6-1.9-2.4-2.8.4.4.7.8 1 1.2.2.2.3.4.5.6.3.4.6.8.9 1.3.9 1.3 1.7 2.6 2.4 4 .1.2.2.5.3.7.2.4.4.9.6 1.4v.1c.1.2.2.4.3.7.1.2.2.5.3.7.2.5.4 1 .5 1.5.1.2.2.5.2.7.2.5.3 1 .4 1.5.1.3.1.5.2.8.1.5.2 1 .3 1.5s.2 1 .3 1.5.1 1 .2 1.5c0 .3 0 .5.1.8v.8.6.4 1.8c0 .4 0 .8-.1 1.2 0-.2 0-.4 0-.5 1.1-8.8-1.4-16.2-6-22zm11.8 159.1c0 .1 0 .1 0 0 0 .1 0 .1.1.1 0-0 0-.1-.1-.1zm-18.1-7.7c-.1-.1-.2-.1-.3-.2-1.4-.7-2.9-1.4-4.3-2.2-9.1-4.9-17.1-10.1-23.9-15.3 0 0 0 0-.1 0-5.4-4.1-10.1-8.1-14.1-11.9-9.7 26.3 0 56.9 21 76.4 2 1.9 4.1 3.6 6.3 5.3 9 6.8 19.6 11.7 31.4 13.8-.1-.9-.2-1.7-.3-2.5s-.2-1.6-.3-2.4c-.1-.6-.1-1.3-.2-1.9 0-.4-.1-.7-.1-1.1 0-.5-.1-1-.1-1.4-.3-4.2-.3-8.5-.3-12.7 0-2.4.1-4.8.2-7.2.4-8.9 1.4-17.4 2.3-24.7.2.1.5-4.3.7-4.2.1 0 .3.1.4.2v-.1c-5.8-2.2-11.9-4.7-18.3-7.9zm15.3 62.7c-.2-1.6-.3-3.1-.4-4.7.1 1.6.3 3.2.4 4.7zm12.4-233.1c-.1 0-.2 0-.3-.1.5.1.9.2 1.4.4-.4-.2-.7-.2-1.1-.3zm8.2 52.5c-.1 0-.2 0-.3-.1 0 0 0 0-.1 0-.2 0-.4 0-.5 0-.5.1-.9.3-1.2.6.1 0 .1-.1.2-.1s.1-.1.2-.1.1-.1.2-.1.2-.1.4-.1h.2c.4-.1.8 0 1.2.1.1 0 .1 0 .2.1.1 0 .1.1.2.1-.3-.3-.5-.4-.7-.4zm1.1.6c-.1 0-.1-.1-.2-.1.1 0 .2.1.2.1zm.5.7c0 .1.1.2.1.3 0-.1 0-.2-.1-.3zm5.2 13.6c-2.7-3.7-4.4-8-4.9-12.6 0 .2 0 .4.1.6 0 .2 0 .4.1.6 0 .3.1.5.1.8 0 .2.1.5.1.7 0 .1.1.3.1.4.1.3.1.6.2 1 .5 1.9 1.2 3.6 2.1 5.3.1.2.3.5.4.7.3.6.7 1.1 1.1 1.6.1.2.3.4.4.6.2.2.3.4.5.6-.1-0-.2-.1-.3-.3zm14.3-69.2c-.2.2-.4.3-.6.5 0 0-.1 0-.1.1-.2.2-.5.3-.7.5s-.5.3-.8.4-.5.3-.8.4-.6.3-.9.4c-.3.1-.6.2-.8.3-.3.1-.6.2-.9.3h-.1c-.3.1-.5.1-.8.2-.1 0-.1 0-.2 0-.3.1-.6.1-.9.2s-.7.1-1 .2c-.3 0-.7.1-1 .1s-.7.1-1.1.1-.7.1-1.1.1-.7 0-1.1 0-.7 0-1.1 0-.8 0-1.2 0c-.3 0-.7 0-1 0-.8 0-1.6-.1-2.4-.2-.7-.1-1.3-.1-2-.2-2.1-.3-4.3-.7-6.4-1.2 6.5 1.5 13.3 2.2 19.2 1.3.4 0 .9 0 1.3-.1 2.8-.4 4.9-1.6 6.6-3.3-.1.1-.1 0-.1-.1.3-.1.5-.3.6-.6-.2.3-.4.5-.6.6zm2.1 87.3c-1-.1-1.9-.2-2.9-.4-.2 0-.4-.1-.5-.1-.2 0-.3-.1-.5-.1s-.4-.1-.7-.2c-3.2-.8-6.2-2.2-9-4-.2-.1-.3-.2-.5-.3-.6-.4-1.3-.9-1.9-1.4-.2-.1-.3-.3-.5-.4-.2-.2-.4-.3-.6-.5s-.4-.4-.6-.6-.4-.3-.5-.5c-.6-.6-1.1-1.1-1.6-1.7-.2-.2-.3-.4-.5-.6s-.3-.4-.5-.6c1.2 1.7 2.7 3.3 4.3 4.6 4.9 4.4 11 6.7 17.2 6.9-.2-.1-.5-.1-.7-.1zm-1.9-120.5c-.4.2-.8.5-1.3.7-1.2.7-2.5 1.4-3.7 2.1-1.4.8-2.7 1.5-4.1 2.3s-2.7 1.6-4.1 2.3c-5.4 3.1-10.9 6.3-16.2 9.6 3.9-2.3 7.8-4.5 11.8-6.9 1.2-.7 2.4-1.4 3.6-2.1 5.5-3.2 11-6.3 16.5-9.4-.9.4-1.7.9-2.5 1.4zm3.7 20.7c-.2-1.6-.5-3.2-1.1-4.5.1.4.3.8.4 1.2 0 .1.1.3.1.4 0 .2.1.4.1.6.1.4.2.7.2 1.1.1.5.2 1 .3 1.5 0 .3.1.5.1.8-.1-.3-.1-.7-.1-1.1zm13.6 88.7c-.3.2-.6.3-.8.5-.3.2-.6.3-.9.4s-.6.3-.9.4c-.4.2-.7.3-1.1.4-.2.1-.5.2-.7.2-.2.1-.5.2-.7.2-.2 0-.3.1-.5.1-.1 0-.1 0-.2 0-.2 0-.3.1-.5.1s-.4.1-.6.1-.4.1-.6.1c-2.1.4-4.3.5-6.5.3 1.1.1 2.3.2 3.4.1h.1c.5 0 1.1-.1 1.6-.1.6-.1 1.1-.1 1.7-.3.1 0 .3 0 .4-.1.1 0 .3-.1.4-.1.3-.1.6-.1.8-.2s.4-.1.7-.2c.1 0 .1 0 .2-.1.3-.1.6-.2.8-.3 0 0 .1 0 .1-.1.2-.1.4-.2.6-.2.3-.1.5-.2.8-.3.2-.1.4-.2.7-.3.2-.1.5-.2.7-.4.6-.3 1.2-.7 1.8-1.1.3-.2.5-.4.8-.5-.5.7-1 1.1-1.6 1.4zm5.4-1.7c-.1-.1-.2-.2-.3-.2 0 0 0 0-.1 0s-.1-.1-.2-.1c-.1 0-.1-.1-.2-.1 0 0 0 0-.1 0s0 0-.1 0h.1.1c.3.1.7.4.9.7-0-.2-0-.3-.1-.3zm.5 3.7c-1.3 1.6-2.6 3-4.1 4.1 1.6-1.1 3.3-2.6 4.1-4.1zm1.6-91.8c.1-.4.3-.7.5-1-.2.3-.4.6-.5 1zm.4 55.6c-.1-.1-.2-.2-.3-.2-.1-.1-.1-.1-.2-.2s-.2-.3-.3-.4c.2.5.6.9 1.1 1.1-.1-.1-.2-.2-.3-.3zm.5-4.1c-.7.3-1.2.9-1.3 1.6 0-.1.1-.2.2-.3s.1-.2.2-.3.2-.2.3-.3.2-.1.2-.2c.2-.2.5-.4.7-.6.3-.2.5-.4.8-.5-.4.3-.7.5-1.1.6zm1.7-32.7c0-.1 0-.1-.1-.2-.1-.3-.3-.7-.4-1-.1-.4-.3-.7-.4-1.1-.2-.6-.4-1.3-.6-1.9-.1-.3-.2-.5-.2-.8-.1-.3-.2-.5-.2-.8-.1-.4-.2-.7-.3-1.1s-.2-.8-.3-1.1c.2 2.8 1.4 5.9 2.9 9.1-.2-.5-.3-.8-.4-1.1zm-1.4-20.8c.1-.1.2-.2.4-.3.1-.1.2-.2.3-.3.2-.1.3-.2.5-.3.1-.1.2-.1.3-.2.1 0 .1 0 .2-.1h.1s.2-.1.4-.1c.1 0 .3-.1.4-.1s.2 0 .2 0c.2 0 .3 0 .5-.1h.6c.4 0 .8 0 1.3.1-2.3-.7-4 0-5.2 1.4zm8.3 48.8.1-.1c.2-.1.3-.3.5-.4.3-.2.6-.5.9-.8.1-.1.2-.2.3-.3s.2-.2.2-.3c.5-.6.9-1.2 1.2-1.8 0-.1.1-.2.1-.3.1-.2.1-.4.2-.6-.4 1.6-1.6 3.1-3.5 4.6zm3.8-6c0-.2 0-.4 0-.6v-.1c0-.2 0-.4-.1-.6 0-.2-.1-.4-.1-.6s-.1-.4-.2-.6c0-.1-.1-.2-.1-.3-.1-.2-.1-.4-.2-.6s-.2-.5-.3-.7c-.5-1.2-1.1-2.4-2-3.9 0-.1-.1-.2-.1-.2l-.1-.1c2.1 3.9 3.5 7.3 2.9 9.8.2-.5.3-1 .3-1.5zm-6.5-24.4c1.4.8 3 1.4 4.6 1.8-.2-.1-.4-.1-.6-.2s-.4-.1-.6-.2c-.4-.1-.8-.3-1.2-.5-.8-.3-1.6-.7-2.3-1.2 0 0-.1 0-.1-.1 0 .1 0 .2.2.4 0 .2.1.4.2.7s.2.6.3.8c0 .1.1.3.2.4 0 0 0 .1.1.1.2.6.5 1.1.8 1.7 0 .1.1.2.1.2.1.2.2.4.4.7.7 1.4 1.6 2.8 2.5 4.2.2.3.4.6.6.9.6 1 1.2 1.9 1.7 2.9.2.3.3.6.5.9s.4.7.6 1c-2.6-4.6-5.9-9.6-8-14.5zm9.3 30.3c.3-.4.5-.7.7-1.1-.2.3-.5.7-.7 1.1zm1.4-81.1c.2.1.4.2.6.2-.2-.1-.4-.1-.6-.2zm1.9.8-.4-.1c.1 0 .2 0 .4.1zm1.8.7c-.2-.1-.4-.2-.6-.3.2.2.4.3.6.3zm3.6 1.6c-.2-.1-.4-.2-.6-.2.2-0 .4.1.6.2zm6.2 2.7c-.1 0-.2-.1-.3-.1.1.1.3.1.3.1.3.2.6.3.8.4-.3-.1-.5-.3-.8-.4zm5.3 36.7c-.1.1-.2.3-.2.4-.1.2-.3.5-.4.7s-.2.3-.3.5v.1c-.1.1-.2.3-.3.4 0 .1-.1.1-.2.2-.1.2-.3.3-.4.5-.2.2-.3.4-.5.6s-.4.4-.5.6c-.4.4-.8.7-1.2 1.1-.2.2-.4.4-.6.5-.2.2-.4.3-.7.5-.2.2-.5.3-.7.5-.5.3-1 .6-1.5.9-.3.1-.5.3-.8.4 4-2 7.3-5.1 8.8-8.6-.2.2-.3.4-.5.7zm.9-33.7s-.1 0-.1-.1c.4.2.9.4 1.3.7-.4-.2-.8-.4-1.2-.6z"/><path d="m1196.3 211.5c1.1-9.1 2.7-18.7 5-28.9-.1 0-.2 0-.3 0-.2 0-.4 0-.9.2-5.3-1.7-10.4-3.2-15.4-4.6-29.5-8-53.6-9.3-73.6-6.4-8.8 1.3-16.9 3.4-24.2 6.1-63.8 23.6-74.5 93.1-102 67-.3-.5-.7-1-1.1-1.5-4.5-6.5-9.3-13.1-14.3-19.3-.5-.6-1-1.3-1.5-1.9-.7-.8-1.3-1.6-2-2.4-.6-.7-1.2-1.4-1.8-2.1-.7-.8-1.4-1.6-2.1-2.4-5.7-6.3-11.8-12-18.2-16.4.1-2 .2-4.2.2-6.7-86-55.2-138.4 93.5-15.7 116.3l.2-.3 1.2.3c.5.1 1 .2 1.5.3 2.4.5 4.9.9 7.3 1v.2s-.1 3.3.1 5.8c4.1 53.1-19.3 151.2-44.8 208.5 2.2 3.7 5.7 9.4 10.8 15.8 1.4 1.8 2.9 3.6 4.6 5.5 10.4 11.8 25.6 25 46.8 33.8 8.1 3.4 52.2 21.6 92.2.8 5.9-3.1 21.3-11.3 32.9-29.4 7.9-12.3 10.7-24.2 11.9-31.5-.7-3.6-1.5-7.2-2.2-10.9-1.6-7.8-3.1-15.6-4.6-23.3-11.8-2.1-22.4-7-31.4-13.8-2.2-1.6-4.3-3.4-6.3-5.3-21-19.6-30.7-50.1-21-76.5 3.7 3.7 8.6 7.8 14.1 11.9h.1c8.4 6.2 18.4 12.5 28.2 17.5.1 0 .2.1.3.2 6.3 3.2 12.5 5.9 18.1 7.8v-.1h.1v.1s0 0-.1 0v.1c34.5 14.4 98.6 18.3 121.9-21.5 24.8-46.5-29-121.4-14-194zm-1.8-1c-.3-.1-.6-.3-.8-.4-.1-.1-.2-.1-.3-.2.4.2.7.4 1.1.6z"/><path d="m1089 423.3v.1s0-0 0-.1c-.1.1-.1.1 0 0-.1 0 0 0 0 0z"/><path d="m1089 423.4c0-.1 0-.1 0 0z"/><path d="m1150.7 325.4c-.8 1.6-2.5 3-4.1 4.2s-.1 0-.1.1c-.9.6-1.7 1.1-2.3 1.5-4.4 2.4-9.2 3.5-14.1 3.4-6.2-.2-12.3-2.5-17.2-6.9-1.6-1.4-3-3-4.3-4.6-4-5.5-6.1-12.3-5.4-19.2.1-.7.4-1.3.9-1.7h.1c.3-.3.8-.5 1.2-.6.5-.1 1.1.1 1.5.3.1 0 .2.1.3.2.1 0 .1.1.2.1.2.2.4.5.6.8 0 .1.1.1.1.2v.1.1.1.1.3c.5 4.6 2.3 9 4.9 12.6.1.1.2.3.3.4v.1c4.1 5.5 10.5 8.9 17.1 9.5h.3c5.8.5 11.7-1 16.4-4.8l-.1-.1c.1-.1.2-.2.3-.2.4-.2.9-.3 1.4-.3.4 0 .9.2 1.2.6.1.1.2.2.2.3 1.2 1.1 1.1 2.2.6 3.4z"/><path d="m1189 240.9c-.1.3-.2.5-.4.8-.1.1-.2.3-.2.4-.1.2-.3.5-.4.7s-.2.3-.3.5v.1c-.1.1-.2.3-.3.4 0 .1-.1.1-.2.2-.1.2-.3.3-.4.5-.2.2-.3.4-.5.6s-.4.4-.5.6c-.4.4-.8.7-1.2 1.1-.2.2-.4.4-.6.5-.2.2-.4.3-.7.5-.2.2-.5.3-.7.5-.5.3-1 .6-1.5.9-.3.1-.5.3-.8.4-.2.1-.4.2-.6.3s-.4.2-.7.3c-.2.1-.4.2-.7.3-.2.1-.4.2-.7.3-.2.1-.5.2-.7.3-.5.2-.9.3-1.4.5-.2.1-.5.1-.7.2-.5.1-1 .2-1.4.3-.5.1-.9.2-1.4.2h-.1c-2.4.3-4.9.3-7.4-.3-.2 0-.4-.1-.6-.2h-.1c-.2-.1-.4-.1-.6-.2s-.4-.1-.6-.2c-.4-.1-.8-.3-1.2-.5-.8-.3-1.6-.7-2.3-1.2 0 0-.1 0-.1-.1 0 .1 0 .2.1.3.1.3.2.5.3.8s.2.6.3.8c0 .1.1.3.2.4 0 0 0 .1.1.1.2.6.5 1.1.8 1.7 0 .1.1.2.1.2.1.2.2.4.4.7.7 1.4 1.6 2.8 2.5 4.2.2.3.4.6.6.9.6 1 1.2 1.9 1.7 2.9.2.3.3.6.5.9s.4.7.6 1v.1c.2.4.5.8.7 1.2.3.6.6 1.2.9 1.7.1.2.2.5.3.7.2.6.5 1.1.6 1.6.1.2.1.3.2.5 0 .1.1.3.1.4.2.5.3 1 .4 1.5 0 .2.1.3.1.5v.3c0 .2 0 .4.1.6v.7c0 1-.1 2-.5 2.9 0 .1-.1.3-.1.4s-.1.3-.2.4v.1c-.1.1-.1.3-.2.4-.1.2-.2.3-.3.5-.2.3-.4.7-.7 1.1-.2.2-.3.5-.5.7-.1.1-.2.3-.4.4-.2.2-.3.4-.5.6s-.3.4-.5.6c-.7.8-1.6 1.5-2.5 2.2-.2.2-.5.4-.7.5-.2.2-.5.4-.7.5-.3.2-.5.3-.8.5-.1.1-.3.2-.4.3-.3.2-.5.3-.8.5-.2.1-.3.2-.5.3-.1 0-.1.1-.2.1-.1.1-.2.1-.4.2-.1.1-.2.1-.3.2-.2.1-.5.2-.7.3s-.5.2-.7.3c-.1 0-.1 0-.2.1-.2.1-.3.1-.5.2h-.1c-.4.2-.9.3-1.3.4h-.1c-.1 0-.1 0-.2 0s-.1 0-.2 0c-.7.2-1.4.3-2 .3-.1-.1-.3-.2-.4-.3s-.2-.2-.3-.2c-.1-.1-.1-.1-.2-.2s-.2-.3-.3-.4 0 0 0-.1-.1-.1-.1-.2c-.1-.1-.1-.3-.1-.4s0-.2 0-.2c0-.2.1-.5.2-.7 0-.1.1-.2.2-.3s.1-.2.2-.3.2-.2.3-.3.2-.1.2-.2c.2-.2.5-.4.7-.6.3-.2.5-.4.8-.5.2-.1.4-.2.6-.3s.4-.2.5-.3c.1 0 .2-.1.3-.2s.2-.1.3-.2c.3-.1.5-.3.8-.4.2-.1.4-.2.6-.3 1.5-.8 3-1.6 4.3-2.5l.1-.1c.2-.1.3-.3.5-.4.3-.2.6-.5.9-.8.1-.1.2-.2.3-.3s.2-.2.2-.3c.5-.6.9-1.2 1.2-1.8 0-.1.1-.2.1-.3.1-.2.1-.4.2-.6.1-.5.2-1 .2-1.6 0-.2 0-.4 0-.6v-.1c0-.2 0-.4-.1-.6 0-.2-.1-.4-.1-.6s-.1-.4-.2-.6c0-.1-.1-.2-.1-.3-.1-.2-.1-.4-.2-.6s-.2-.5-.3-.7c-.5-1.2-1.1-2.4-2-3.9-.1-.2-.2-.4-.3-.6 0 0 0-.1-.1-.1-.2-.3-.4-.7-.6-1-.6-1.1-1.4-2.2-2.1-3.4-.2-.3-.5-.7-.7-1-.1-.2-.3-.4-.4-.6-.2-.3-.4-.6-.5-.9-.7-1.2-1.3-2.4-1.9-3.8-.2-.3-.3-.7-.5-1-.1-.2-.2-.4-.3-.6-.1-.3-.3-.6-.4-1 0-.1 0-.1-.1-.2-.1-.3-.3-.7-.4-1-.1-.4-.3-.7-.4-1.1-.2-.6-.4-1.3-.6-1.9-.1-.3-.2-.5-.2-.8-.1-.3-.2-.5-.2-.8-.1-.4-.2-.7-.3-1.1s-.2-.8-.3-1.1c-.1-.3-.1-.6-.2-.8 0-.2-.1-.4-.1-.7-.2-1.2-.4-2.3-.4-3.3 0-.2 0-.4 0-.6 0-.1 0-.2 0-.4 0 0 0 0 0-.1 0-1 0-1.9.1-2.8 0-.1 0-.3.1-.4 0-.1 0-.3.1-.4v-.1c0-.1.1-.2.1-.3s.1-.3.1-.4.1-.3.1-.4c.1-.4.3-.7.5-1 .1-.2.3-.4.4-.6.1-.1.2-.2.2-.3l.1-.1c.1-.1.2-.2.4-.3.1-.1.2-.2.3-.3.2-.1.3-.2.5-.3.1-.1.2-.1.3-.2.1 0 .1 0 .2-.1h.1s.2-.1.4-.1c.1 0 .3-.1.4-.1s.2 0 .2 0c.2 0 .3 0 .5-.1h.6c.4 0 .8 0 1.3.1 14.2 4.5 19.9 6.3 28.1 6.8h.3c.2 0 .3.1.5.1s.3.1.4.2.3.2.4.3.2.2.3.4c.1.1.2.3.3.4s.1.3.2.5c0 .1 0 .1.1.2.1.9 0 1.5-.3 2.1z"/></g><path d="m1067.2 205.6c3.3-17.6 19.2-31.5 36.7-33.9 11.5-3 41.7 8.3 28.4 22.8-9.1 4.3-18.7 5.4-27.7 9.1-6.5 2.1-14.7 6.1-21.5 8.8-5.8 3.2-17.7 2-15.9-6.8z" fill="#5b2448"/><path d="m1131.2 235.9c.1 3.8-.9 7.9-3.3 10.8-1.9 2.4-4.7 4-8.5 4.1-5.9.9-12.7.3-19.2-1.3-.1 0-.1 0-.2-.1-.3-.1-.6-.1-.9-.2-.4-.1-.7-.2-1.1-.3-6.7-1.8-12.9-4.5-17.4-7.4-18.2-13.2 5.1-8.8 17.4-10.6 7.8-.7 16.7-2.1 25.6-4.6 3-.7 5.1 1 6.4 3.8.8 1.7 1.2 3.7 1.2 5.8z" fill="#5b2448"/><path d="m1189 240.9c-1.5 3.6-4.7 6.6-8.8 8.6 0 0 0 0-.1 0-4.9 2.5-10.9 3.5-16.3 2.2h-.1c-1.6-.4-3.2-1-4.6-1.8l-.1-.1c-2.7-1.6-5.1-4-6.6-7.4-1.2-3-1-8.1 1.1-10.8l.1-.1c1.2-1.4 2.9-2.1 5.3-1.4 14.2 4.5 19.9 6.3 28.1 6.8h.3c.2 0 .3.1.5.1.2.1.3.1.4.2s.3.2.4.3.2.2.3.4c.1.1.2.3.3.4s.1.3.2.5c0 .1 0 .1.1.2-.1.7-.2 1.3-.5 1.9z" fill="#5b2448"/><path d="m955 313.1v.4s0 .2-.1.3c0 .2-.1.3-.1.4-.1.2-.2.4-.3.6-.1.1-.2.2-.3.3s-.2.2-.3.3c-.1 0-.1.1-.2.1-.3.2-.5.3-.8.4-.2.1-.3.1-.5.2-.1 0-.2 0-.3.1-.3.1-.7.2-1.1.2-.1 0-.2 0-.3 0s-.2 0-.3 0c-.2 0-.4 0-.6 0s-.4 0-.6 0c-1.4 0-3-.1-4.4-.2-.3 0-.7-.1-1-.1s-.6-.1-.9-.1c-.1 0-.1 0-.2 0-.3 0-.7-.1-1-.1-.7-.1-1.4-.1-1.9-.1-.1 0-.2 0-.3 0-.3 0-.5 0-.8 0-.1-2.1-.1-4.1-.2-6 4.1.5 8.6.7 13.4.4 1.6.1 3 1.3 3.1 2.9z" fill="#9a3c81"/><path d="m1201.3 182.6c-1.8 9.6-3.4 19.3-4.8 29-.1 0-.1-.1-.2-.1-.6-.3-1.2-.7-1.8-1s-1.1-.6-1.7-.9-1.1-.6-1.7-.9c-1.2-.6-2.3-1.2-3.5-1.7-.6-.3-1.2-.6-1.7-.8-.6-.3-1.1-.5-1.7-.8-.5-.2-.9-.4-1.4-.6-1.3-.6-2.6-1.1-3.8-1.7 0 0 0 0-.1 0-.6-.2-1.1-.5-1.7-.7-1.2-.5-2.4-1-3.6-1.5-.2-.1-.4-.2-.7-.3-.4-.2-.8-.3-1.2-.5-.1-.1-.3-.1-.4-.2-.3-.1-.6-.3-.9-.4-.2-.1-.4-.2-.6-.2-.1-.1-.3-.1-.4-.2-.5-.2-1-.4-1.5-.6-1.6-.7-3.2-1.6-4.2-3 0 0 0-.1-.1-.1-6.1-10.5 10.1-17.1 18.5-17.4 1-.1 2.1-.1 3.1 0 5.6.2 11.1 1.8 16.1 4.6-.3-.1-.4-.1-.6 0 .2-.1.4 0 .6 0z" fill="#5b2448"/><path d="m1070.3 419.4c-.1-.1-.2-.1-.3-.2-1.4-.7-2.9-1.4-4.3-2.2-9.1-4.9-17.1-10.1-23.9-15.3 0 0 0 0-.1 0-5.4-4.1-10.1-8.1-14.1-11.9-9.7 26.3 0 56.9 21 76.4 2 1.9 4.1 3.6 6.3 5.3 9 6.8 19.6 11.7 31.4 13.8-.1-.9-.2-1.7-.3-2.5s-.2-1.6-.3-2.4c-.1-.6-.1-1.3-.2-1.9 0-.4-.1-.7-.1-1.1 0-.5-.1-1-.1-1.4-.3-4.2-.3-8.5-.3-12.7 0-2.4.1-4.8.2-7.2.4-8.9 1.4-17.4 2.3-24.7.2.1.5-4.3.7-4.2.1 0 .3.1.4.2v-.1c-5.8-2.2-11.9-4.7-18.3-7.9zm15.3 62.7c-.2-1.6-.3-3.1-.4-4.7.1 1.6.3 3.2.4 4.7z" fill="#5b2448"/><path d="m1088.5 427.1v.1s0-0 0-.1c-.1.1-.1.1 0 0-.1 0 0 0 0 0z" fill="#5b2448"/><path d="m1151.1 324.6c0 .1 0 .1-.1.2-.1.2-.2.4-.3.5-1.3 1.6-2.6 3-4.1 4.1-.3.2-.6.4-.8.6-.3.2-.6.4-.8.6s-.5.3-.7.5c-.3.2-.7.4-1 .6-.3.1-.5.3-.8.4-.3.2-.7.3-1 .5-.3.1-.6.2-.8.3-.1 0-.1 0-.2.1-.3.1-.6.2-.8.3s-.4.1-.7.2c-.2.1-.3.1-.5.1-.2.1-.5.1-.7.2-.3.1-.6.1-.9.2 0 0 0 0-.1 0-.3.1-.6.1-.9.2s-.6.1-1 .1c-.3 0-.6.1-1 .1-.3 0-.6 0-1 .1-.3 0-.6 0-1 0-.3 0-.5 0-.8 0-.1 0-.2 0-.2 0-.2 0-.5 0-.7 0-.2 0-.4 0-.7-.1-1-.1-1.9-.2-2.9-.4-.2 0-.4-.1-.5-.1-.2 0-.3-.1-.5-.1s-.4-.1-.7-.2c-3.2-.8-6.2-2.2-9-4-.2-.1-.3-.2-.5-.3-.6-.4-1.3-.9-1.9-1.4-.2-.1-.3-.3-.5-.4-.2-.2-.4-.3-.6-.5s-.4-.4-.6-.6-.4-.3-.5-.5c-.6-.6-1.1-1.1-1.6-1.7-.2-.2-.3-.4-.5-.6s-.3-.4-.5-.6c-.2-.3-.4-.6-.6-.8-.2-.3-.4-.6-.6-.9s-.4-.5-.5-.8c0 0-.1-.1-.1-.2-.2-.3-.3-.6-.5-.8-.2-.3-.3-.6-.5-.9-.1-.3-.3-.6-.4-.9-.3-.7-.6-1.4-.9-2.1-.1-.3-.2-.7-.3-1s-.2-.6-.3-.9c-.1-.4-.2-.9-.3-1.3-.1-.3-.1-.6-.2-.9v-.1c-.1-.3-.1-.6-.1-1 0-.3-.1-.5-.1-.8 0-.1 0-.3 0-.4s0-.2 0-.2c0-.3 0-.5 0-.8v-.1c0-.3 0-.7 0-1 0-1 .1-2.1.2-3.2 0-.1 0-.2 0-.3s0-.2.1-.3c.1-.4.3-.7.5-.9l.1-.1c.1-.1.1-.1.2-.2h.1s.1-.1.2-.1.1-.1.2-.1.1-.1.2-.1.2-.1.4-.1h.2c.4-.1.8 0 1.2.1.1 0 .1 0 .2.1.2.1.4.2.5.3.1 0 .1.1.2.1 0 0 .1 0 .1.1.1.1.2.2.2.3.1.1.1.2.2.3s.1.2.1.4v.1.1.1.1.3c0 .2 0 .4.1.6 0 .2 0 .4.1.6 0 .3.1.5.1.8 0 .2.1.5.1.7 0 .1.1.3.1.4.1.3.1.6.2 1 .5 1.9 1.2 3.6 2.1 5.3.1.2.3.5.4.7.3.6.7 1.1 1.1 1.6.1.2.3.4.4.6.2.2.3.4.5.6v.1c.2.3.5.6.7.8.1.1.2.2.3.3.5.5.9 1 1.4 1.5.1.1.2.2.3.3.6.5 1.2 1 1.8 1.5.3.2.6.4.9.7 0 0 .1 0 .1.1.3.2.7.5 1 .7.1.1.2.1.3.2.2.1.5.3.7.4 1.1.6 2.3 1.2 3.5 1.6.2.1.4.2.6.2.4.1.8.3 1.2.4.2.1.4.1.6.2s.4.1.6.2c.2 0 .4.1.6.1.1 0 .3.1.5.1.3.1.5.1.8.1.4.1.8.1 1.2.2h.3c5.6.6 11.5-.8 16.4-4.8l-.1-.1c.1-.1.2-.2.3-.2s.2-.1.3-.1h.1s.1 0 .2-.1c.1 0 .2-.1.3-.1h.3.3c.1 0 .3.1.4.1h.1c.3.1.7.4.9.7.6.5.9 1.6.6 2.5z" fill="#9a3c81"/><path d="m956 268c-.1 0-.1 0 0 0-.8 1-2.1 1.4-3.3 1.1-.1 0-.1 0-.2-.1-.7-.2-1.3-.6-1.7-1.3-.1-.2-.2-.5-.3-.8 0-.1 0-.2 0-.3-6.8-53.2-44.3-47-46.8-55.4.3-1.9 3.9-2.6 9.1-1.6h.1c7.1 1.5 17.2 6.3 26 15.8 0 0 0 0 .1.1 6.6 7.2 12.4 17 15.6 30v.1c.8 3.2 1.4 6.7 1.9 10.3.1.8-.2 1.5-.5 2.1z" fill="#9a3c81"/><path d="m1169.9 277.3c0 .1-.1.3-.1.4s-.1.3-.2.4v.1c-.1.1-.1.3-.2.4-.1.2-.2.3-.3.5-.2.3-.4.7-.7 1.1-.2.2-.3.5-.5.7-.1.1-.2.3-.4.4-.2.2-.3.4-.5.6s-.3.4-.5.6c-.7.8-1.6 1.5-2.5 2.2-.2.2-.5.4-.7.5-.2.2-.5.4-.7.5-.3.2-.6.4-1 .6-.3.2-.7.4-1 .6-.2.1-.3.2-.5.3-.1 0-.1.1-.2.1-.1.1-.2.1-.4.2-.1.1-.2.1-.3.2-.2.1-.5.2-.7.3s-.4.2-.5.2-.3.1-.4.1c-.2.1-.3.1-.5.2s-.3.1-.5.2c-.3.1-.6.2-1 .3h-.1c-.1 0-.1 0-.2 0s-.1 0-.2 0c-.7.2-1.4.3-2 .3-.6-.2-.9-.6-1.1-1.1-.2-.5-.2-1-.1-1.6.2-.7.6-1.4 1.3-1.6.4-.2.8-.3 1.1-.5 3.2-1.4 5.7-2.9 7.5-4.2 1.9-1.5 3.1-3 3.6-4.4.6-2.5-.8-5.9-2.9-9.8 0-.1-.1-.1-.1-.2 0 0 0-.1-.1-.1-2.1-3.9-4.9-8.2-7-12.5-1.5-3.1-2.7-6.2-2.9-9.1 0-.6-.1-1.2 0-1.8 0-7.3.8-11.5 4.7-10.2 1.1.6 1.6 2.1 1 3.2-2 4.6-1 9.5 1 14.3 0 .1.1.2.1.3 2.1 4.9 5.4 9.9 7.9 14.5v.1c0 .1.1.2.1.2 2.2 4.5 3.7 8.7 2.7 12.5z" fill="#5b2448"/><path d="m1173.2 52.9c-24.9 12.2-26.6 32.6-33.6 33.4-7-1.9 1.9-13.4 12-25.3 6.1-6.4 12.9-11.4 20.2-14.7.6 2.2 1 4.4 1.4 6.6z" fill="#9a3c81"/><ellipse cx="1052.9" cy="290.6" fill="#e57281" opacity=".52" rx="32.6" ry="32.6" transform="matrix(.5212 -.8534 .8534 .5212 256.1252 1037.749)"/><path d="m1273.3 1033.1c-2.7-2.3-5.3-4.6-7.9-6.9-1.9-14.5-11.5-101-13.6-115.4-8.1-56.1-16.5-114.2-28.6-162.6-16.5-66.1-44.9-131.6-84.2-194.8-1-1.6-.5-3.8 1.1-4.8s3.8-.5 4.8 1.1c39.7 63.8 68.3 130.1 85 196.8 12.2 48.8 20.6 107 28.7 163.3 2.5 17.1 12.5 106.2 14.7 123.3z" fill="#f4ada2"/><path d="m1010.7 663.9c-3 .9-5.7.2-7.9-.7-20.4-7.8-36.5-39-47.4-68.2-2.1-5.5-3.9-10.9-5.6-16 .6-.1 1.1-.3 1.7-.4 1.7-.4 3.4-.9 5.1-1.4 10 30.2 27.1 71.2 48.8 79.5 1.9.7 2.7.7 3.3.5 2.3-.7 9.7-7.1 5.5-58.1-1.6-20.2-4.9-45.7-9.8-76-.2-1-.3-2-.5-3 .4-.1.7-.3 1.1-.4.1 0 .2-.1.3-.1.3-.1.6-.2.9-.3.4-.1.8-.3 1.2-.4s.8-.3 1.2-.4c.6-.2 1.1-.4 1.7-.6.1 0 .2-.1.3-.1h.1c19.9 122.3 10.7 142.7-0 146.1z" fill="#fcb6b1"/><circle cx="981.4" cy="701.7" fill="#fcb6b1" r="7.3"/><path d="m1154.6 516.3-57.5 7-.9-12.9c-.5-6.7 4.6-12.6 11.3-13.1l33.2-5.2c6.7-.5 12.6 4.6 13 11.3z" fill="#5b2448"/><path d="m534.5 867.2c-206.1-57.2-343.5-117.5-341.6-177.1.8-25.8 19.9-40 37.4-47.4 87.3-36.9 186.5 64.7 304.2 224.5z" fill="#5b2448"/><path d="m553.8 1062.8c-23.4 6-190.7 48.7-262.2-34.3-109.1-126.6-69.9-334.3 150.4-494 28.2 11.6 124.8 55.7 173.9 161.9 53.4 115.8 28.9 259.2-62.1 366.4z" fill="#f4ada2"/><path d="m287.6 693.9c43.7 15.5 94.7 37.1 149.2 67.8 53 29.8 97 61.3 132.4 89.9-72.5-81.9-145-163.7-217.6-245.6-9.6 10.6-19.6 22.6-29.6 35.8-13.7 18.3-25.1 35.9-34.4 52.1z" fill="#9b3c82"/><path d="m908.6 558.3c-27.9 138.6-207.9 217.7-339.7 295.5-39.2-35.1-80.5-78.2-122.4-116.7-1.8-1.6-3.5-3.2-5.3-4.8-79.1-72-160.1-125.6-233-75.5 30.2-34.2 454.8-314.3 641.8-200.3 31.4 19.2 52.3 55.4 57.8 82 .5 2.5.9 5 1.1 7.3.6 4.7.4 8.9-.3 12.5z" fill="#f94f46"/><path d="m1352.8 671.6c-85.3 23.2-170.6 46.4-255.9 69.6-9-3.5-26.4-11.8-37.9-30.3l-.1-.1c-4-6.5-6.2-14-6.4-21.7l-4.4-158.8c-.2-8.7 6-16.2 14.6-17.6l271.3-41.7c7.6-1.2 15.3-.4 22.4 2.4.1 0 .1 0 .2.1 19.6 7.7 30.9 22.7 36 30.7l-25.1 149.8c.2 8.7-6.1 16.2-14.7 17.6z" fill="#5b2448"/><path d="m1385.4 698.6-280.1 43.1c-10.3 1.6-19.6-6.2-19.9-16.6l-4.7-167.8c-.2-8.7 6-16.2 14.6-17.6l280.1-43.1c10.3-1.6 19.6 6.2 19.9 16.6l4.7 167.8c.3 8.7-5.9 16.3-14.6 17.6z" fill="#ffcf2d"/><circle cx="1241.1" cy="616.8" fill="#5b2448" r="61.4"/><path d="m1200.2 600.2h122.8v46.1h-122.8z" fill="#5b2448" transform="matrix(.3055 -.9522 .9522 .3055 282.7036 1634.1675)"/><ellipse cx="1275.5" cy="627.7" fill="#ffcf2d" rx="57.5" ry="55.2" transform="matrix(.3055 -.9522 .9522 .3055 288.1199 1650.4861)"/><path d="m1284.2 674.1c-3.5.2-6.9.1-10.3-.4-2.5-.4-4.9-.9-7.3-1.7-3.1-1-6.1-2.3-8.9-3.8-2.1-1.2-4.1-2.5-5.9-3.9-9.8-7.6-16.3-19-17.2-32-1.6-24.8 18-46.2 43.7-47.8 7.4-.5 14.5.7 20.9 3.3 2.2.9 4.4 1.9 6.4 3.1 2.8 1.6 5.4 3.5 7.7 5.7 1.8 1.7 3.5 3.4 5 5.3 5.4 6.8 8.8 15.2 9.4 24.4 1.8 24.7-17.8 46.1-43.5 47.8z" fill="#66b0f0"/><path d="m1222.9 610.3c-10.7 32.2 6.8 67.1 39 77.8s67.1-6.8 77.8-39-6.8-67.1-39-77.8-67.1 6.8-77.8 39zm75.6-32.3c28.5 9.5 44 40.4 34.5 68.9s-40.4 44-68.9 34.5-44-40.4-34.5-68.9c9.5-28.4 40.4-43.9 68.9-34.5z" fill="#5b2448"/><path d="m1305.7 590.9-47.9 77.4c-2.1-1.2-4.1-2.5-5.9-3.9l47.4-76.6c2.2.8 4.3 1.9 6.4 3.1z" fill="#fff"/><path d="m1318.4 601.9-44.5 71.8c-2.5-.4-4.9-.9-7.3-1.7l46.8-75.5c1.8 1.7 3.5 3.5 5 5.4z" fill="#fff"/><path d="m1040.7 511.2c3.5 13.2 7.2 33.6 3.6 57.8-5.7 38.2-28.1 76.9-39.2 74.3-17.9-4.2-9.6-117.9-9.6-117.9z" fill="#f4ada2"/><path d="m1797.9 1081.7c-24.5 46.2-70.3 72.9-122.4 74.8-64.5 2.4-107.7-32.2-122-47.8-49.2-53.5-31.5-162.4-41-234.1-6.9-51.7-14.4-111.4-38.6-183.7-7.6-22.7-17.2-47.7-29.6-74.3-1-2.1-2-4.3-3-6.4v-.1-.1c-5.5-11.5-11.5-23.3-18.1-35.3-1.1-2-2.3-4.1-3.4-6.2-.6-1.1-1.3-2.3-1.9-3.4-1.2-2.1-2.4-4.2-3.6-6.3-3.6-6.2-7.3-12.5-11.3-18.8-1.1-1.8-2.2-3.6-3.3-5.4-.3-.5-.7-1-1-1.6-1.3-2-2.6-4.1-3.9-6.1-5.4-8.4-11.1-16.8-17.1-25.3.4-.3.8-.6 1.2-.9 2.3-1.9 4.6-3.6 6.9-5.3.3-.1.6-.2 1-.3.2-.1.4-.1.5-.2 21.3-7.1 42.6-14.1 63.9-21.2 3.2-1.1 6.3-2.1 9.5-3.2 1.9-.6 3.9-1.3 5.8-1.9 2.8-.9 5.5-1.8 8.3-2.7.1 0 .2-.1.3-.1 78.5 41.3 205.5 175.8 280.3 302.6 64.1 109.1 88.3 226.9 42.5 313.3z" fill="#f4ada2"/><path d="m1587.9 1036.9c-.8.9-1.9 1.3-3 1.2-.7-.1-1.3-.3-1.9-.8-29.3-24.8-47-70.4-61.4-124-6.8-25.3-12.8-52.3-19-79.9-4.6-20.5-9.2-41.3-14.2-61.6 1.6-2.6 3.3-5.4 5.1-8.2 5.7 22.4 10.8 45.5 15.9 68.3 18.9 84.9 36.8 165.1 78.1 200.1 1.4 1.2 1.6 3.4.4 4.9z" fill="#9b3c82"/><path d="m1482 518.2c-.3.6-.6 1.2-.9 1.9-.6 1-1.2 2.2-2 3.3-.5.7-1 1.4-1.5 2.2-.5.6-1 1.3-1.5 1.9-1.7 2.2-3.8 4.5-6 6.9-4.8 5.1-10.6 10.7-17.1 16.4-.3.3-.7.6-1 .9-8.8 7.7-18.8 15.6-28.9 23-9.8 7.2-19.8 14-29.2 19.7-.5.3-1.1.6-1.6.9-.6.3-1.1.7-1.7 1-.1.1-.2.1-.3.2-.1 0-.1.1-.2.1-4.9 2.9-9.5 5.4-13.8 7.4-.1.1-.3.1-.4.2-.6.3-1.1.6-1.7.8-10.7 5-18.8 6.9-21.9 3.9-4.8-4.5 1.6-20.7 12.7-37.4 1.3-1.9 2.6-3.9 4-5.8 1.3-1.8 2.7-3.6 4.1-5.4.5-.7 1.1-1.3 1.6-2 3.7-4.5 7.5-8.8 11.5-12.6 1.3-1.3 2.7-2.6 4.1-3.8 1.2-1.1 2.4-2.1 3.7-3.1 1.8-1.5 3.6-2.9 5.4-4.2 11-8.1 22.9-14.2 34-18.5 3.6-1.4 7.2-2.6 10.6-3.6 19.7-5.8 35.6-5.6 38.3-.4.9 1.5.7 3.6-.3 6.1z" fill="#f4ada2"/><path d="m1484.1 495.7c-1.3.3-2.6.6-4 .9-8.1 1.7-18.2 2.8-29 3.2-3 .1-6 .2-9 .2-1.5 0-3 0-4.5 0-4.9 0-9.9-.2-14.9-.5-7-.4-13.9-1.1-20.6-2-5.1-.7-10.1-1.6-15.2-2.6-.1 0-.1 0-.2 0s-.3-.1-.4-.1c0 0 0 0-.1 0-2.8-.6-5.6-1.2-8.3-1.9-.1 0-.3-.1-.4-.1-.2 0-.3-.1-.5-.1-3.6-.9-7.1-1.8-10.5-2.9-42.8-12.5-76.6-33.9-74-44.3 3.3-13.2 65.8-7 75-6.6 40.2 1.5 81.7 14.3 107.1 27 15.1 7.5 24.5 15 24.6 20.1.1 4.1-5.8 7.4-15.1 9.7z" fill="#f4ada2"/><path d="m1461.2 488.5c0 .1-.1.1-.1.2-.4.6-.9 1.2-1.4 1.8-1.4 1.8-3.1 3.6-4.8 5.5-.6.6-1.2 1.3-1.9 2-.6.6-1.2 1.2-1.8 1.8-.8.8-1.6 1.6-2.4 2.4-4.5 4.5-9.7 9.2-15.3 13.9-9.4 8.1-20.1 16.3-30.7 23.9-9.2 6.6-18.4 12.6-26.9 17.7-.2.1-.3.2-.5.3s-.4.3-.7.4c-1.7 1-3.4 2-5 2.9-.2.1-.4.2-.6.4-4.5 2.5-8.8 4.7-12.6 6.3-.1.1-.3.1-.4.2 0 0 0 0-.1 0-9.3 4-16.2 5.3-19.1 2.7-7.4-6.9 11.9-41.9 33.9-63.2 2.2-2.1 4.4-4.1 6.7-6 .4-.3.8-.6 1.2-1 2.3-1.9 4.6-3.6 6.9-5.3.3-.2.6-.4.9-.6 3.3-2.3 6.7-4.5 10.1-6.5.1-.1.2-.1.3-.1 14.6-8.5 29.6-13.8 42.1-16.3 8.9-1.8 16.5-2.2 21.6-1.3 2.2.4 3.9 1.1 5.1 2 .6.4 1 .9 1.3 1.5 1.5 2.9-.8 8-5.8 14.4z" fill="#f4ada2"/><path d="m1488.1 569.4c-6.8 7.4-15.9 15.8-26.2 24.4-6.6 5.5-13.6 11-20.8 16.2-1.9 1.4-3.8 2.8-5.7 4.1 0 0-.1 0-.1.1-.4.3-.8.6-1.2.9-29 20.6-58 36.2-64.7 30-4.2-4 .2-17 8.9-31.5 2.7-4.5 5.8-9.1 9.2-13.6.8-1.1 1.7-2.2 2.6-3.4 1.4-1.8 2.9-3.6 4.5-5.4 2.8-3.3 5.7-6.4 8.7-9.3 5.1-5 10.6-9.4 16.3-13.3.7-.5 1.4-.9 2.1-1.4 9.6-6.4 19.6-11.4 29.1-15 .4-.2.8-.3 1.2-.4 23.8-8.9 44.4-9.5 47.6-3.5 1.9 3.8-2.8 11.6-11.5 21.1z" fill="#f4ada2"/><path d="m1434.6 614.7c.3-.2.5-.3.7-.5-.4.3-.8.6-1.2.9.1-.1.3-.3.5-.4z" fill="#9b3c82"/><path d="m1528.8 622.9c-.4 1.9-2.3 3-4.2 2.6-5.8-1.3-25.4-7.2-35.4-26.7-3.1-6-4.5-11.9-5.1-17.1-5.1 5.5-10.4 10.8-15.9 15.8-6.4 5.8-13.2 11.3-20.2 16.4-1.2.9-2.5 1.8-3.7 2.7-1-2.1-2-4.3-3-6.4.3-.2.6-.4.9-.7 6.9-4.9 13.5-10.2 19.7-15.8.5-.5 1-.9 1.6-1.4 7.5-6.8 14.6-14.2 21.2-21.9.9-1 2.2-1.4 3.5-1.1.2 0 .3.1.5.2 1.4.6 2.3 2 2.2 3.5-.4 5.6.1 14.1 4.6 22.7 8.6 16.8 25.7 21.9 30.7 23.1 1.8.4 3 2.3 2.6 4.1z" fill="#9b3c82"/><path d="m1510.6 528.3c-.6 1.8-2.6 2.8-4.4 2.3-10.2-3.2-20.4-4.3-30.2-3-.1 0-.1 0-.2 0-.3 0-.5.1-.8.1-22.1 3.1-36.5 16.4-59 39.4-.7.8-1.5 1.5-2.2 2.3-7.3 7.5-14.3 15.4-20.8 23.7-.9 1.1-1.8 2.2-2.6 3.4-.1 0-.1.1-.2.1-4.9 2.9-9.5 5.4-13.8 7.4-.1.1-.3.1-.4.2 10-14.2 21-27.6 32.8-39.7 1.2-1.3 2.4-2.5 3.6-3.7 20.1-20.6 36.8-36.5 61.7-40.1 2.1-.3 4.2-.5 6.3-.6h.7c9-.4 18.1.9 27.3 3.8 1.8.5 2.8 2.5 2.2 4.4z" fill="#9b3c82"/><path d="m1483.4 495.8c-.1.7-.4 1.4-.9 1.9-.7.8-1.9 1.2-3 1-.3 0-.6-.1-.9-.1-9-1.3-17.5-1.5-25.3-.6-.1 0-.2 0-.2 0-6 .7-11.6 2-16.9 4-3.8 1.4-7.5 3.2-10.9 5.3-7.7 4.7-12.2 9.7-21.1 19.8l-2.5 2.8c-1.5 1.7-3.1 3.5-4.7 5.2-2.7 3-5.4 5.9-8.1 8.9-4.2 4.6-8.5 9.2-12.8 13.8-.2.1-.3.2-.5.3s-.4.3-.7.4c-1.7 1-3.4 2-5 2.9-.2.1-.4.2-.6.4-4.5 2.5-8.8 4.7-12.6 6.3 12.6-13 24.8-26.1 36.5-39 1.1-1.3 2.2-2.5 3.4-3.8l2.5-2.8c9-10.1 14-15.7 22.4-20.8.1-.1.2-.2.4-.2 11-6.7 23.8-10.3 38.1-10.8h.1c6.6-.2 13.6.2 20.8 1.3 1.5.1 2.8 1.9 2.5 3.8z" fill="#9b3c82"/><path d="m1465.2 470.7c0 .9-.4 1.7-1 2.3-.7.7-1.6 1.1-2.6 1-4-.1-8-.1-12 .1-10.8.6-21.5 2.6-31.8 5.8-11 3.5-21.5 8.4-31.3 14.7-2.8-.6-5.6-1.2-8.3-1.9-.1 0-.3-.1-.4-.1-.2 0-.3-.1-.5-.1 11.8-8.4 24.8-14.9 38.5-19.2 14.9-4.7 30.4-6.8 46.2-6.3 1.4 0 2.5.9 3.1 2-0 .6.1 1.2.1 1.7z" fill="#9b3c82"/><path d="m1085.1 456.1c-.1 2.4-.2 4.8-.2 7.2-9.4 1.8-19.4 4.6-30 8.2-21 7.3-44.2 18.1-68.5 32.1-29.7 17.4-54.7 30.7-77.1 42.1-.1 0-.1.1-.2.1-.2-2.3-.6-4.8-1.1-7.3 21.8-11.1 46.1-24.1 74.9-40.9 23.5-13.5 45.5-24 65.8-31.3 12.8-4.7 25-8 36.3-10.1-.1-.1 0-.1.1-.1z" fill="#9b3c82"/><path d="m1488.7 1484.2c-2.8 25.4-7.1 51-12.7 75.9-4.2 19-9.3 38-15.1 56.7-2.7.8-5.4 1.5-8 2.3 6.3-19.9 11.8-40.2 16.4-60.5 5.5-24.7 9.7-50 12.5-75.1.2-1.9 1.9-3.3 3.9-3.1 1.9.2 3.3 1.9 3 3.8z" fill="#6ce0dc"/><path d="m1032.9 815.9c-2.4 1-5 1.4-7.8 1.3-3.2-.2-6.8-1.2-10.6-2.9-1.8-.8-2.5-2.9-1.7-4.6s2.9-2.5 4.6-1.7c5.2 2.4 9.5 3 12.7 1.6 6.4-2.7 13.3-14.9 10.4-57.2-2.3-32.9-10.4-79.9-24.2-139.8-.4-1.6-.8-3.3-1.1-4.9.6-.1 1.2-.2 1.7-.3 1.2-.2 2.3-.4 3.4-.7.6-.1 1.1-.2 1.7-.4 1.3 5.6 2.5 11.1 3.8 16.5 12.2 54.6 19.5 98 21.7 129 2.6 37.8-2.2 58.8-14.6 64.1z" fill="#fcb6b1"/><ellipse cx="1023" cy="729" fill="#fcb6b1" rx="7.3" ry="7.3" transform="matrix(.3162 -.9487 .9487 .3162 7.9067 1468.9526)"/><ellipse cx="1023.1" cy="768.9" fill="#fcb6b1" rx="7.3" ry="7.3" transform="matrix(.1602 -.9871 .9871 .1602 100.2462 1655.6254)"/><path d="m990 500.8c-100.4 58.9-188 96.3-251.1 120-193.9 73-296.2 68.1-419 196.7-20 20.9-41.3 53.6-28.4 122.5 12.2 64.9 34.7 125.7 103.8 137.1 237.1 39.1 439.8-211.9 522.3-301.5 3.1-3.3 8.4-9.2 15.9-17 14.7-15.2 53.6-54.2 112-94.9 2.9-2 5.2-3.6 6.2-4.3-.7-31-1.4-62-2.1-93-19.9-21.9-39.8-43.8-59.6-65.6z" fill="#f4ada2"/><path d="m1004.3 563.5c2.9 2.6 6.8 5.5 11.5 8.5 5.9 3.8 12.9 7.7 20.6 11.7 20.7 10.6 46.4 21.1 67.9 27.7.6.2 1.2.4 1.8.5 7.2 2.2 14 3.9 19.9 5 11.6 2.2 19.9 2 22.2-1.6 3.5-5.5-6.7-19.7-21.5-33.1-1.7-1.6-3.5-3.1-5.3-4.6-6.8-5.6-14.2-10.9-21.5-15.2-3-1.7-6.1-3.3-9.2-4.8-18.7-8.8-38.6-12.6-55.1-13.3-20.5-.8-35.8 3.3-37.2 9.1-.7 2.7 1.5 6.1 5.9 10.1z" fill="#f4ada2"/><path d="m961.9 528.5c1.1 8.8 28.9 9.8 58.4 5.8 13.1-1.8 26.7-4.5 39.3-8.2 7.9-2.3 15.7-5 23.2-8.1 3.7-1.5 7.3-3.1 10.9-4.7 40.6-18.5 71-44.5 66.9-54.4-5.2-12.6-66.2 2.5-75.1 4.2-63.1 11.6-125.3 51.9-123.6 65.4z" fill="#f4ada2"/><path d="m1020.3 534.3c4.1 3.2 9.3 6.6 15.2 10.1 24.8 14.4 63.3 30.4 91.2 37.8.2.1.5.1.7.2 5.2 1.3 10 2.4 14.2 3.1 10 1.6 17.1 1.2 19.2-2.1 5.5-8.5-21.8-37.7-48.4-52.9-9.6-5.5-19.7-9.6-29.7-12.4-.1 0-.2-.1-.3-.1-16.2-4.6-32.1-6.1-44.8-5.5-15.1.7-25.5 4.3-26.7 9.1-.7 3.1 2.9 7.6 9.4 12.7z" fill="#f4ada2"/><path d="m1138.1 653.7c4.1-6.4-10.1-24.3-28.6-39.3-1.1-.9-2.2-1.8-3.3-2.6-5.3-4.1-10.9-7.9-16.4-11-6.9-4-14.2-7.2-21.4-9.8-10.8-3.8-21.8-6.2-31.9-7.4-25.9-3.1-46.6 1.4-48.2 8.2-4.6 19.1 138.9 78.9 149.8 61.9z" fill="#f4ada2"/><path d="m1001.5 566.5c-.2 1.9 1.2 3.6 3.1 3.8 3.7.4 7.5.9 11.2 1.6.8.1 1.6.3 2.5.5 10.8 2.1 25.2 6 50.1 18.6 4.6 2.3 9.5 4.9 14.8 7.9 7.1 3.9 14.2 8.1 21.2 12.4 1.7 1 3.4 2.1 5.1 3.2-1.1-.9-2.2-1.8-3.3-2.6 7.2 2.2 14 3.9 19.9 5-12.9-8.6-26.1-16.7-39.4-24-35.2-19.5-53.6-24.7-67-27.3-4.7-.9-9.5-1.6-14.2-2.1-.4 0-.7 0-1.1 0-1.5.3-2.7 1.5-2.9 3z" fill="#9b3c82"/><path d="m1030.2 537.3c-.1 1.9 1.4 3.6 3.3 3.7 8.7.5 17.3 1.8 25.7 3.9 9.7 2.5 20.2 6.7 31.3 12.7 2.1 1.1 4.1 2.2 6.2 3.5 8.4 4.9 16.7 10.4 24.6 16.5 2 1.6 4.1 3.2 6 4.8 5.2 1.3 10 2.4 14.2 3.1-12.9-11.8-26.8-22.1-41.3-30.5-14-8.1-27.2-13.8-39.3-16.9-8.8-2.3-18-3.7-27.1-4.2-1.8-.1-3.5 1.4-3.6 3.4z" fill="#9b3c82"/><path d="m1032.9 508.7c-.1 1.9 1.4 3.6 3.4 3.6h1.3c9.9.4 19.9 1.3 29.7 2.8 5.1.8 10.1 1.7 15.2 2.7.1 0 .2 0 .4.1 3.7-1.5 7.3-3.1 10.9-4.7-8.4-2.1-16.9-3.7-25.4-5-10.5-1.6-21.2-2.5-31.8-2.9-2 0-3.6 1.5-3.7 3.4z" fill="#9b3c82"/><path d="m965.8 689.9c.7.8 1.6 1.2 2.6 1.2.8 0 1.7-.2 2.4-.8 9.6-8 17.1-17.7 22.5-28.8 7.7-15.8 9.1-31 8.6-42.4 6.7 3.1 13.3 6.1 19.9 9.2 9.8 4.5 19.6 9.1 29.4 13.7l.3-7.6c-8.9-4.2-17.9-8.4-26.8-12.5-8.4-3.9-16.9-7.8-25.4-11.7-1.1-.5-2.5-.4-3.5.3s-1.6 2-1.4 3.2c1.2 10.8.9 27.3-7.5 44.6-4.9 10.2-11.9 19.1-20.7 26.5-1.4 1.5-1.6 3.7-.4 5.1z" fill="#9b3c82"/><path d="m336.5 802.6c.6.5 1.3.8 2 .9 1.1.1 2.2-.3 3-1.2 12.1-13.7 25.4-26.6 39.5-38.3 16.5-13.7 34.3-26 53.1-36.6-1.6-1.8-3.1-3.6-4.7-5.4-18.7 10.6-36.4 22.9-52.8 36.5-14.3 11.9-27.9 25-40.2 39-1.5 1.7-1.3 3.9.1 5.1z" fill="#9b3c82"/></svg></g><!--ITEM: Illustration component 3--><g transform="translate(2840.0 1995.0) rotate(0.0 -298.5 354.5)  scale(-1.4546783625730995 1.4510847318870241)"><svg width="410.4" height="488.6" viewBox="0.0 0.0 410.4 488.6"><path d="m249.1 34.3c14.7.7 22.6-5.5 30.3.2 11.5 8.6-8.4 40.3-42.6 54.7-29.1 12.2-61.5 7.7-75.8-23.8-15.8-34.7 5.1-51.5 27.7-47.8 15.7 2.5 36.5 15.6 60.4 16.7z" fill="#5b2448"/><path d="m39.7 383.4c.9 44.1 25.4 79.4 71.9 97.1 34.6 13.1 97.8 4.2 110.5-15.7 14-22-34.5-32.1-47-30 56-8 103-46 111.4-71.9 0 0-.3 2.3-.5 6.3v.7c-1.2 19.7-1.6 75.6 29.2 100.7 20.3 18 42.7 14.8 45.1 5.2 2.6-10.4-14.8-31.2-13.9-59 1.1-36.2 11.1-79.5 22.4-124.2 7.8-30.7 16.2-62.2 22.8-92.5 5.7-26 10-51.3 11.5-74.5 3.4-53-1.3-91.6-11.2-102.2-1.4-1.5-2.8-2.4-4.4-2.8-4.4-1-8.7.6-12.7 4.6-7.7 7.6-14.3 23.8-17.7 44.9-8.7-19.1-31.2-49.6-59.9-50.4-6.6-.2-13.1 1-19.4 3.4-13.8 5.2-26.6 16.3-37.5 31.7-4.2 5.9-8.1 12.4-11.8 19.5-2.4 4.7-4.6 9.6-6.8 14.8-13.6 33.3-12.4 61.6-30 96.9-4.8 9.7-11.1 19.9-19.5 30.8-7 9.2-16 17.5-25.9 25.6-.1.1-.2.1-.3.2-10.5 8.6-22 16.8-33.5 25.3-1.2.9-2.3 1.8-3.5 2.7-1.8 1.3-3.5 2.7-5.2 4-.6.4-1.1.9-1.7 1.3s-1.2.9-1.7 1.4c-15.2 11.9-29.4 24.8-39.9 40.1 0 0 0 .1-.1.1-1.1 1.6-2.1 3.1-3.1 4.7 0 0-.1.1-.1.2-.2.2-.3.5-.4.7-8.4 14-13.4 28.2-15.6 42.1-1.2 6.2-1.6 12.3-1.5 18.2z" fill="#ffcf2d"/><path d="m386.8 113.2c-.5 2.1-1.5 4-2.8 5.7-1.3 1.6-2.8 3.1-4.5 4.3-5.2 3.8-11.8 5-18 3.3-2-.5-4-1.4-5.8-2.5-3.6-2.2-6.3-5.6-7.6-9.7-.3-1 .3-2.1 1.3-2.4.8-.3 1.7.1 2.2.8v.1c1.7 2.7 4.1 4.9 6.9 6.3 1.4.7 2.9 1.2 4.4 1.6 1.5.3 3.1.5 4.6.4 3.1-.2 6.2-1.1 8.9-2.7 2.8-1.5 5.1-3.8 6.7-6.5v-.1c.5-.9 1.7-1.3 2.6-.8.9.4 1.3 1.3 1.1 2.2z" fill="#9b3c82"/><path d="m393.1 17.1c-.8 8.3-4.5 15.2-10.1 15.2s-9.2-6.8-10.1-15.2c-.8-7.4 2.3-15.2 10.1-15.2s10.8 7 10.1 15.2z" fill="#5b2448"/><path d="m245.4 80.7c16.8-13.3 18.6-28.4 32.6-29.9 20.9-2.3 31.1 51.4 8.9 100.7-18.9 42.1-56.4 74.4-104.5 50-53.6-27.2-40.5-67.5-20.1-81 17.3-11.5 52.1-9.7 83.1-39.8z" fill="#5b2448"/><ellipse cx="337.8" cy="71.8" fill="#5b2448" rx="8.4" ry="11.7"/><path d="m37 361.4c.3.3.6.6.9.9 1 1 2.1 2 3.1 3 .4.3.7.6 1.1 1 .5.4.9.8 1.4 1.2l15.4-35.1 2.9-6.5s-1.8-.7-4.6-2.3c-.1-.1-.2-.1-.3-.2-.1 0-.1-.1-.2-.1-1.1-.6-2.4-1.4-3.8-2.3-.1-.1-.3-.2-.4-.3-9.5-6.4-24-19.1-31.2-40.5-4-11.8-13-15.6-15 2.2-3.3 28.2 10.9 58.8 30.7 79z" fill="#ffcf2d"/><path d="m56.7 323.3c.3 2.8 1.2 6.2 2.2 9 2.1 5.6 5.4 10.8 9.1 14 16.8 14.3 50.2 2.7 74.6-26 24.3-28.7 30.4-63.5 13.5-77.8-1.7-1.4-3.6-2.6-5.6-3.6-1.2 1-2.6 2.1-4.2 3.4-.1.1-.2.1-.3.2-8.2 6.4-20.9 15.8-33.5 25.3-1.2.9-2.3 1.8-3.5 2.7-1.8 1.3-3.5 2.7-5.2 4-.6.4-1.1.9-1.7 1.3s-1.2.9-1.7 1.4c-14 10.8-28.3 22.9-38.6 37.8v.1s0 .1-.1.1c-1.6 2.3-3.7 5.6-5 8.1z" fill="#5b2448"/><g fill="#9b3c82"><path d="m165.6 441.4c-1 0-1.9-.6-2.3-1.6-.5-1.3.1-2.7 1.4-3.2 14.1-5.6 23.7-16.8 26.9-31.7 3.2-14.7-.5-31.1-9-40.1-1-1-.9-2.6.1-3.5 1-1 2.6-.9 3.5.1 9.8 10.2 13.9 28.1 10.3 44.6s-14.3 29.1-30 35.2c-.3.1-.6.2-.9.2z"/><path d="m52.9 321c-.1-.1-.3-.2-.4-.3s-.2-.1-.3-.2c-6 11.1-12.3 25-15.6 40.5l.4.4c.3.3.6.6.9.9 1 1 2.3 2.2 3.3 3.1 2.9-16 9.4-30.7 15.5-42.2-1-.5-2.5-1.4-3.8-2.2z"/><path d="m163 439.6c.3 1.3 1.7 2.1 3 1.8 18.8-4.6 35.6-3.4 50.2 3.3-12-7.9-33.4-11.2-41.1-9.9 1.4-.2 2.7-.4 4.1-.7-4.5.4-9.3 1.2-14.4 2.5-1.3.3-2.1 1.7-1.8 3z"/><path d="m290.3 327c-1.3-.4-2.7.4-3.1 1.7-.3.9-5.8 19.8-6.6 46 2.6-3.9 4.7-8.1 5.9-11.8 1.7-19.7 5.4-32.6 5.5-32.8.4-1.3-.4-2.7-1.7-3.1z"/></g></svg></g></svg>