<svg xmlns="http://www.w3.org/2000/svg" version="1.1" viewBox="0 0 3000 3000" width="3000" height="3000">
<defs/><!--ITEM: Illustration component 1--><g transform="translate(440.4 906.0) rotate(-34.99781373233267 233.39999999999998 257.4)  scale(0.7508021906439237 0.7514088916718846)"><svg width="621.735" height="685.113" viewBox="0.0 0.0 621.735 685.113"><path d="m59.34 552.77c-7.642-12.488-14.611-25.377-20.874-38.611-6.235-13.359-11.761-27.038-16.555-40.98-4.833-14.053-8.809-28.387-11.905-42.922-3.084-14.658-5.234-29.497-6.436-44.427l-.459-5.622-.248-5.638c-.159-3.759-.37-7.537-.325-11.262-.018-7.473-.16-14.968.269-22.451.175-3.746.249-7.498.525-11.237l.981-11.221.502-5.615.727-5.591 1.467-11.201c2.287-14.926 5.437-29.707 9.433-44.268 3.934-14.653 8.758-29.052 14.444-43.118 2.985-6.99 5.83-14.055 9.237-20.875 1.686-3.425 3.196-6.924 5.026-10.273l5.387-10.108c7.445-13.397 15.744-26.301 24.847-38.632 4.408-6.297 9.424-12.152 14.214-18.198 2.518-2.917 5.105-5.781 7.681-8.656 1.296-1.43 2.556-2.893 3.883-4.295l4.069-4.135c10.792-11.158 22.384-21.512 34.685-30.981l9.347-7.022 9.735-6.514c3.208-2.229 6.594-4.193 9.961-6.191l5.051-2.994 2.529-1.493 2.603-1.369 10.428-5.455c3.512-1.751 7.124-3.311 10.696-4.96 1.793-.804 3.566-1.641 5.38-2.418l5.499-2.152c3.684-1.388 7.3-2.967 11.054-4.181 14.963-5.105 30.316-8.988 45.908-11.61 15.64-2.458 31.451-3.659 47.283-3.592 3.951.112 7.902.335 11.852.509 1.974.112 3.953.152 5.921.325l5.903.619c3.928.466 7.882.727 11.783 1.387l11.704 1.946c1.959.287 3.877.75 5.809 1.182l5.785 1.313 5.788 1.323c1.918.476 3.802 1.072 5.707 1.605 3.785 1.116 7.604 2.146 11.362 3.355l11.151 3.973c29.373 11.154 56.766 26.948 81.134 46.782 1.514 1.221 3.057 2.413 4.543 3.663l4.373 3.855c2.888 2.598 5.882 5.085 8.667 7.783l8.323 8.12c1.408 1.332 2.748 2.728 4.049 4.158l3.951 4.247c5.387 5.559 10.204 11.597 15.164 17.501 2.378 3.032 4.674 6.122 7.009 9.181l3.473 4.607 3.271 4.745c2.165 3.175 4.388 6.306 6.487 9.516l6.078 9.764c2.08 3.218 3.905 6.581 5.783 9.915 1.848 3.35 3.803 6.641 5.503 10.062 3.39 6.846 6.913 13.619 9.881 20.646 1.503 3.5 3.181 6.928 4.527 10.484l4.164 10.614c1.453 3.516 2.56 7.155 3.822 10.733 1.185 3.606 2.51 7.165 3.536 10.816 2.079 7.294 4.332 14.527 5.981 21.916 3.612 14.658 6.384 29.511 8.302 44.486 3.625 29.785 4.033 59.874 1.215 89.747-4.173 44.421-16.073 87.772-35.165 128.098-6.349 13.244-13.544 26.065-21.539 38.385l-8.706-4.787c5.849-12.91 11-26.126 15.43-39.59 4.471-13.342 8.196-26.923 11.159-40.679 5.924-27.29 9.026-55.116 9.255-83.041.218-27.653-2.283-55.26-7.466-82.424-5.315-26.84-13.457-53.042-24.288-78.168-21.606-49.83-54.628-94.386-96.557-126.683-41.765-32.372-92.78-51.406-144.739-51.806-51.953-.876-103.42 16.955-145.952 48.282-10.742 7.796-20.897 16.371-30.383 25.654l-3.603 3.461c-1.179 1.176-2.298 2.417-3.451 3.622l-6.892 7.271c-4.333 5.092-8.922 9.984-12.969 15.347-16.787 21.205-31.028 44.307-42.43 68.831-11.458 24.839-20.259 50.818-26.257 77.506l-2.067 10.101-1.037 5.058-.813 5.097-1.638 10.211c-.478 3.415-.829 6.848-1.269 10.272-.965 6.85-1.384 13.752-1.933 20.654-.335 3.466-.413 6.884-.545 10.322l-.199 5.157-.03 5.163c-.151 27.839 2.849 55.606 8.942 82.771 3.01 13.772 6.725 27.38 11.128 40.772 4.258 13.512 9.365 26.78 14.811 39.99z" fill="#fff"/><path d="m560.683 562.362c-.408 0-.821-.1-1.203-.31l-8.706-4.787c-1.144-.629-1.611-2.033-1.073-3.222 5.791-12.78 10.949-26.016 15.332-39.339 4.429-13.217 8.159-26.813 11.09-40.424 5.876-27.069 8.971-54.836 9.199-82.535.216-27.425-2.281-54.993-7.422-81.936-5.268-26.6-13.387-52.729-24.129-77.646-22.107-50.988-55.23-94.453-95.787-125.693-42.172-32.688-93.038-50.9-143.233-51.286-50.178-.851-101.456 16.128-144.451 47.795-10.623 7.71-20.751 16.261-30.117 25.427l-3.62 3.478c-.703.702-1.416 1.463-2.129 2.225-.414.442-.829.885-1.248 1.322l-6.837 7.214c-1.341 1.575-2.706 3.131-4.072 4.688-2.964 3.378-6.028 6.872-8.762 10.494-16.68 21.071-30.853 44.062-42.159 68.379-11.359 24.625-20.137 50.534-26.085 77.001l-3.081 15.059-2.442 15.255c-.271 1.938-.505 3.93-.74 5.924-.168 1.424-.335 2.849-.519 4.272-.773 5.491-1.201 11.123-1.615 16.568-.1 1.321-.201 2.643-.306 3.965-.275 2.849-.377 5.711-.475 8.479l-.263 6.898-.028 5.081c-.15 27.609 2.838 55.269 8.882 82.209 2.983 13.646 6.705 27.281 11.064 40.539 3.698 11.732 8.381 24.375 14.747 39.818.495 1.202-.013 2.583-1.169 3.177l-8.847 4.543c-1.164.597-2.592.197-3.274-.919-7.658-12.514-14.724-25.584-21.002-38.846-6.253-13.396-11.856-27.266-16.66-41.236-4.848-14.095-8.88-28.634-11.986-43.214-3.095-14.713-5.276-29.767-6.483-44.748l-.459-5.62-.337-7.635c-.139-3.113-.282-6.332-.244-9.498-.003-1.296-.01-2.629-.018-3.962-.033-6.085-.066-12.377.291-18.602.057-1.215.103-2.456.15-3.698.094-2.479.19-5.042.378-7.58l1.486-16.874c.003-.033.007-.067.011-.1l2.195-16.794c2.3-15.017 5.494-30.006 9.501-44.605 3.941-14.682 8.834-29.286 14.537-43.394.633-1.482 1.24-2.922 1.848-4.362 2.325-5.51 4.729-11.207 7.47-16.693.579-1.175 1.142-2.373 1.706-3.57 1.052-2.234 2.139-4.544 3.363-6.785l5.375-10.085c7.491-13.48 15.909-26.569 25.042-38.941 3.177-4.54 6.741-8.94 10.189-13.196 1.364-1.684 2.729-3.37 4.077-5.07.022-.028.044-.055.067-.081 2.179-2.523 4.438-5.041 6.622-7.476l1.089-1.214c.461-.509.908-1.011 1.355-1.513.849-.953 1.697-1.906 2.575-2.833l4.102-4.169c10.825-11.192 22.587-21.698 34.942-31.208l9.37-7.04c.036-.027.073-.054.111-.079l9.735-6.514c2.894-2.011 5.98-3.839 8.966-5.606l8.694-5.147c.035-.021.071-.041.107-.06l13.036-6.827c2.503-1.249 5.032-2.392 7.478-3.498 1.111-.502 2.222-1.005 3.329-1.516.655-.294 1.283-.58 1.91-.866 1.172-.535 2.344-1.07 3.534-1.58l5.572-2.182c1.274-.48 2.511-.972 3.749-1.463 2.408-.956 4.898-1.945 7.447-2.769 15.007-5.12 30.585-9.06 46.262-11.697 15.75-2.475 31.782-3.692 47.708-3.627 2.817.079 5.608.212 8.307.342 1.215.058 2.429.116 3.644.17.713.04 1.395.07 2.077.1 1.288.056 2.62.115 3.953.232l5.944.623c1.352.16 2.674.293 3.995.426 2.599.261 5.285.532 7.945.982l11.697 1.945c1.713.251 3.425.639 5.081 1.014l12.448 2.833c1.347.334 2.629.709 3.87 1.072.65.19 1.3.38 1.953.563 1.269.374 2.508.729 3.747 1.084 2.528.725 5.143 1.474 7.707 2.298l11.225 3.998c29.725 11.286 57.254 27.16 81.874 47.198.499.402 1.009.808 1.519 1.213 1.027.817 2.055 1.634 3.056 2.477l4.416 3.892c.994.894 1.982 1.759 2.969 2.624 1.919 1.68 3.903 3.417 5.784 5.24l8.33 8.126c1.298 1.228 2.666 2.631 4.152 4.264l3.933 4.227c4.3 4.436 8.305 9.255 12.178 13.915 1.021 1.229 2.043 2.458 3.07 3.681 1.65 2.102 3.211 4.165 4.771 6.226.769 1.017 1.538 2.033 2.312 3.046l3.482 4.619c.021.028.042.057.062.086l3.271 4.745c.724 1.062 1.447 2.108 2.169 3.154 1.441 2.086 2.932 4.242 4.352 6.412l6.108 9.812c1.744 2.698 3.338 5.545 4.88 8.3l.959 1.71c.559 1.014 1.117 2.002 1.675 2.991 1.312 2.324 2.667 4.728 3.889 7.185.672 1.358 1.349 2.709 2.024 4.061 2.708 5.417 5.51 11.017 7.92 16.725.51 1.189 1.048 2.383 1.585 3.577 1.018 2.263 2.071 4.603 2.977 6.994l4.152 10.586c1.013 2.45 1.875 5.005 2.709 7.475.376 1.115.752 2.23 1.144 3.339.395 1.2.787 2.344 1.178 3.487.832 2.428 1.692 4.939 2.407 7.485.468 1.642.948 3.29 1.427 4.937 1.62 5.566 3.294 11.321 4.587 17.11 3.609 14.641 6.42 29.702 8.342 44.713 3.642 29.925 4.054 60.301 1.224 90.3-4.212 44.843-16.12 88.223-35.394 128.933-6.377 13.301-13.677 26.31-21.702 38.677-.474.731-1.274 1.136-2.096 1.136zm-5.478-8.367 4.641 2.552c7.415-11.601 14.179-23.752 20.124-36.152 19.019-40.171 30.772-82.988 34.93-127.251 2.796-29.643 2.39-59.658-1.208-89.211-1.896-14.807-4.672-29.679-8.248-44.19-1.271-5.688-2.923-11.365-4.521-16.855-.482-1.656-.964-3.313-1.438-4.973-.68-2.42-1.517-4.864-2.326-7.226-.398-1.163-.797-2.326-1.181-3.494-.381-1.079-.765-2.216-1.149-3.353-.807-2.393-1.642-4.867-2.609-7.206l-4.18-10.656c-.862-2.277-1.883-4.546-2.871-6.74-.549-1.22-1.099-2.441-1.626-3.67-2.354-5.573-5.118-11.101-7.792-16.447-.679-1.357-1.357-2.715-2.031-4.075-1.162-2.337-2.484-4.682-3.764-6.95-.566-1.002-1.131-2.005-1.688-3.013l-.955-1.702c-1.503-2.686-3.058-5.464-4.739-8.063l-6.101-9.8c-1.354-2.069-2.826-4.199-4.25-6.259-.729-1.054-1.458-2.109-2.18-3.169l-3.232-4.69-3.442-4.566c-.768-1.006-1.542-2.028-2.315-3.051-1.543-2.039-3.086-4.078-4.665-6.093-.98-1.164-2.007-2.4-3.034-3.636-3.813-4.588-7.756-9.332-11.958-13.668l-3.986-4.284c-1.42-1.56-2.702-2.876-3.937-4.044l-8.351-8.147c-1.785-1.729-3.72-3.424-5.592-5.063-1.004-.879-2.009-1.759-3.001-2.651l-4.354-3.838c-.922-.776-1.914-1.563-2.904-2.35-.52-.413-1.04-.826-1.556-1.243-24.212-19.706-51.277-35.312-80.452-46.39l-11.103-3.955c-2.414-.775-4.989-1.513-7.48-2.227-1.251-.359-2.502-.717-3.75-1.085-.638-.178-1.307-.374-1.975-.569-1.248-.365-2.426-.709-3.627-1.007l-12.393-2.821c-1.636-.37-3.18-.72-4.75-.951l-11.751-1.953c-2.501-.423-5.103-.685-7.619-.938-1.351-.136-2.701-.272-4.049-.432l-5.869-.615c-1.182-.104-2.401-.157-3.692-.213-.703-.031-1.406-.062-2.109-.102-1.189-.052-2.411-.111-3.632-.169-2.675-.128-5.441-.26-8.15-.337-15.583-.062-31.364 1.133-46.824 3.563-15.385 2.588-30.699 6.46-45.489 11.507-2.432.786-4.845 1.744-7.178 2.671-1.265.502-2.529 1.004-3.801 1.483l-5.469 2.141c-1.08.464-2.217.983-3.353 1.502-.638.291-1.276.583-1.917.869-1.093.505-2.216 1.013-3.339 1.521-2.403 1.087-4.889 2.211-7.264 3.395l-12.929 6.771-8.635 5.112c-2.909 1.722-5.916 3.502-8.696 5.434l-9.715 6.501-9.292 6.981c-12.14 9.345-23.718 19.687-34.39 30.72l-4.084 4.15c-.809.855-1.623 1.77-2.437 2.685-.457.513-.914 1.027-1.376 1.536l-1.081 1.205c-2.157 2.405-4.388 4.89-6.525 7.365-1.348 1.701-2.713 3.386-4.078 5.071-3.393 4.189-6.902 8.52-10.015 12.967-9.042 12.251-17.343 25.157-24.709 38.413l-5.366 10.069c-1.164 2.131-2.219 4.372-3.239 6.54-.576 1.223-1.152 2.447-1.75 3.662-2.676 5.357-5.049 10.979-7.343 16.416-.611 1.447-1.221 2.894-1.838 4.337-5.609 13.875-10.436 28.285-14.329 42.785-3.959 14.427-7.113 29.226-9.376 43.999l-2.18 16.686-1.477 16.779c-.178 2.414-.273 4.931-.365 7.366-.048 1.257-.095 2.513-.154 3.77-.349 6.094-.316 12.307-.284 18.315.007 1.338.014 2.676.018 4.013-.036 3.061.104 6.208.239 9.252l.331 7.543.454 5.529c1.19 14.773 3.34 29.616 6.391 44.116 3.062 14.376 7.041 28.719 11.823 42.624 4.747 13.804 10.284 27.509 16.457 40.735 5.865 12.392 12.434 24.623 19.536 36.381l4.734-2.431c-5.981-14.621-10.449-26.765-14.01-38.064-4.403-13.39-8.17-27.19-11.187-40.99-6.123-27.294-9.152-55.332-9-83.318l.03-5.164.264-6.965c.101-2.842.206-5.78.491-8.739.101-1.273.201-2.589.301-3.905.419-5.525.853-11.237 1.645-16.858.177-1.375.342-2.782.508-4.188.234-1.991.477-4.05.761-6.082l2.458-15.355c.006-.036.012-.073.02-.108l3.101-15.157c6.036-26.857 14.927-53.102 26.437-78.053 11.474-24.678 25.853-48.004 42.74-69.336 2.809-3.724 5.936-7.288 8.959-10.734 1.364-1.555 2.727-3.109 4.066-4.682.029-.034.059-.067.089-.1l6.892-7.271c.415-.433.817-.863 1.219-1.292.752-.802 1.504-1.605 2.28-2.379l3.638-3.494c9.524-9.32 19.84-18.031 30.646-25.874 43.857-32.303 96.243-49.617 147.462-48.758 51.262.394 103.201 18.979 146.229 52.329 41.219 31.75 74.874 75.898 97.319 127.665 10.883 25.245 19.108 51.714 24.448 78.676 5.205 27.281 7.732 55.177 7.514 82.93-.231 28.042-3.364 56.152-9.312 83.551-2.97 13.787-6.749 27.564-11.232 40.943-4.192 12.747-9.092 25.427-14.572 37.714z" fill="#232323"/><ellipse cx="134.035" cy="526.853" fill="#232323" rx="79.636" ry="98.138" transform="matrix(.9637 -.2669 .2669 .9637 -135.7601 54.8889)"/><path d="m286.829 646.823c4.349 12.425-2.197 26.023-14.622 30.372-.204.071-.409.14-.616.206-49.513 15.713-94.893.414-119.26-66.186l-57.205-163.821c-23.21-65.994 4.024-107.493 52.104-125.986 12.295-4.695 26.068 1.466 30.763 13.76.084.221.166.443.243.667z" fill="#00676c"/><ellipse cx="486.876" cy="531.844" fill="#232323" rx="98.138" ry="79.636" transform="matrix(.294 -.9558 .9558 .294 -164.6205 840.8072)"/><path d="m330.746 647.443c-4.7 12.295 1.458 26.072 13.753 30.772.203.078.408.153.613.225 49.049 17.108 94.844 3.097 121.081-62.785l61.818-162.139c25.063-65.307-.97-107.564-48.513-127.415-12.157-5.041-26.099.727-31.14 12.884-.092.221-.18.444-.265.668z" fill="#00676c"/></svg></g><!--ITEM: Illustration component 2--><g transform="translate(145.2 1214.3999999999999) rotate(0.0 1147.2 765.0000000000001)  scale(1.4435000346027294 1.444506861407592)"><svg width="1589.47" height="1059.185" viewBox="0.0 0.0 1589.47 1059.185"><path d="m1017.456 122.647c-10.43 14.65-29.01 45.76-27.55 74.53.01.26.02.52.04.78-25.76 6.02-81.37 55.04-81.37 55.04s-18.57-27.48-42.16-58.56c-1.94-2.54-3.9-5.1-5.89-7.68-15.18-19.67-31.88-39.98-46.82-55.14-9.7-9.86-18.66-17.54-25.95-21.43-.1-.05-.2-.11-.29-.16-46.96-25.29-24.9-81.46 10.28-91.94 13.36-3.98 32.44-2.37 47.65 9.89.52-.96 1.05-1.89 1.61-2.79 27.83-45.84 93.32-22.73 94.81 18.5 55.74-27.31 104.3 38.69 75.64 78.96z" fill="#232323"/><path d="m865.348 62.548c-1.252 0-2.332-.938-2.48-2.212-3.26-28.057-30.928-39.979-31.207-40.096-1.272-.534-1.873-1.998-1.34-3.271.53-1.273 1.991-1.874 3.267-1.343 1.25.521 30.644 13.118 34.247 44.132.159 1.371-.823 2.612-2.195 2.772-.099.012-.197.018-.292.018z" fill="#fff"/><path d="m1017.456 122.647c-10.43 14.65-29.01 45.76-27.55 74.53.01.26.02.52.04.78-25.76 6.02-81.37 55.04-81.37 55.04s-18.57-27.48-42.16-58.56c-1.94-2.54-3.9-5.1-5.89-7.68-15.18-19.67-31.88-39.98-46.82-55.14-9.7-9.86-18.66-17.54-25.95-21.43-.1-.05-.2-.11-.29-.16-46.96-25.29-24.9-81.46 10.28-91.94 13.36-3.98 32.44-2.37 47.65 9.89.52-.96 1.05-1.89 1.61-2.79 27.83-45.84 93.32-22.73 94.81 18.5 55.74-27.31 104.3 38.69 75.64 78.96z" fill="none"/><path d="m1036.646 240.677c-1.62 39.53-51.6 59.19-80.48 56.68.21 1.16.42 2.33.64 3.49 13.39 72.29 42.3 136.62 42.3 136.62-38.28 48.04-76.14 60.73-108.5 57.81-.02.01-.03.01-.04 0-.03 0-.05 0-.07-.01-50.29-4.56-87.28-46.71-91.92-52.21-.07-.09-.13-.17-.19-.24v-.01c-.06-.07-.11-.13-.16-.18-.08-.11-.12-.16-.12-.16 4.99-17.47 9.9-44.12 13.57-66.43 3.67-22.4 6.1-40.43 6.1-40.43s-54.92.46-89.67-30.74c-13.35-11.99-17.69-28.84-13.28-43.1 10.3-33.3 39.17-45.6 53.16-84.25 6.47-17.88 10.78-32.11 13.83-43.37 2.8-10.29 4.55-18.11 5.94-23.96 4.73.55 9.8 1.27 15.07 2.19 19.09 3.32 40.8 9.23 58.27 19.22 0 0 .01 0 .01.01 4.86 2.78 9.4 5.88 13.45 9.32l.01.01c3.55 3.02 6.73 6.3 9.45 9.87 8.89 11.66 19.89 31.65 25.3 52.88 6.1 23.92 8.63 34.96 28.94 20.85 20.36-14.15 31.48-24.82 51.65-27.36 1.5-.2 3.06-.34 4.67-.44 23.93-1.46 42.99 21.39 42.07 43.94z" fill="#fff"/><g fill="#232323"><path d="m899.424 498.676c-2.979 0-5.969-.134-8.974-.402-.125-.004-.249-.015-.37-.033-51.509-4.744-89.617-48.295-93.797-53.25-.024-.029-.049-.059-.072-.089l-.11-.142c-.021-.026-.044-.052-.064-.078-.084-.092-.162-.19-.235-.29-.606-.759-.846-1.816-.579-2.75 4.044-14.157 8.71-37.011 13.494-66.093 2.706-16.513 4.754-30.777 5.626-37.005-12.815-.449-57.68-4.007-88.239-31.446-13.728-12.328-19.146-30.038-14.143-46.219 5.271-17.044 15.059-28.561 25.419-40.755 10.272-12.089 20.895-24.589 27.786-43.63 5.547-15.327 10.046-29.436 13.756-43.133 2.29-8.417 3.868-15.149 5.137-20.558l.779-3.311c.353-1.48 1.761-2.461 3.266-2.287 5.076.59 10.203 1.335 15.239 2.215 16.4 2.852 39.993 8.563 59.244 19.571.041.024.082.048.122.074 5.148 2.953 9.788 6.174 13.791 9.573.023.02.046.04.069.061 3.777 3.221 7.086 6.682 9.834 10.288 8.765 11.496 20.151 31.708 25.821 53.957l.213.835c3.146 12.344 5.631 22.093 9.968 23.711 2.781 1.036 7.402-.739 14.14-5.42 3.624-2.518 6.922-4.903 10.11-7.209 14.838-10.73 25.559-18.483 42.877-20.664 1.465-.195 3.061-.346 4.858-.458 11.312-.691 22.312 3.606 30.976 12.095 9.456 9.267 14.794 22.337 14.278 34.961v.001c-.58 14.167-7.192 27.204-19.122 37.7-18.118 15.941-43.222 22.419-60.719 22.052 13.19 70.992 41.753 135.046 42.04 135.686.46 1.025.31 2.221-.39 3.099-31.407 39.417-65.692 59.341-102.029 59.343zm-8.04-6.285c.501.142.961.412 1.33.791-.377-.386-.837-.653-1.33-.791zm-.562-.106c.018.001.036.003.054.004 37.151 3.352 72.385-15.247 104.753-55.283-4.624-10.673-29.666-70.256-41.772-135.613-.191-1.01-.378-2.042-.563-3.068l-.079-.434c-.166-.92.105-1.865.735-2.555.628-.69 1.541-1.049 2.477-.968 16.717 1.453 42.748-5.078 60.133-20.373 10.821-9.521 16.571-20.772 17.091-33.441.446-10.956-4.22-22.332-12.484-30.431-7.436-7.287-16.825-10.976-26.406-10.392-1.652.103-3.111.24-4.456.419-15.817 1.992-26.017 9.367-40.132 19.575-3.212 2.322-6.533 4.724-10.203 7.275-8.711 6.052-14.775 7.936-19.66 6.114-7.279-2.715-9.828-12.715-13.686-27.851l-.213-.835c-5.447-21.377-16.371-40.776-24.778-51.802-2.502-3.284-5.533-6.448-9.009-9.404-.021-.018-.043-.037-.063-.056-3.739-3.168-8.093-6.181-12.941-8.955-.044-.025-.087-.051-.129-.078-18.475-10.532-41.281-16.036-57.176-18.801-4.051-.707-8.16-1.325-12.252-1.844l-.161.685c-1.279 5.455-2.871 12.245-5.188 20.76-3.752 13.855-8.301 28.119-13.903 43.603-7.261 20.059-18.239 32.979-28.856 45.473-9.951 11.711-19.351 22.773-24.259 38.643-4.304 13.917.454 29.237 12.419 39.982 33.494 30.073 87.127 29.976 87.64 29.972h.025c.861 0 1.681.37 2.25 1.016.575.652.839 1.523.723 2.385-.023.181-2.477 18.329-6.112 40.515-4.723 28.709-9.166 50.644-13.217 65.245 5.983 6.934 41.828 46.203 89.347 50.512.014.002.033.004.051.006zm145.825-251.608h.01z"/><path d="m883.451 172.695.456-2.35c.12-.731.214-1.453.265-2.169.127-1.438.13-2.854.058-4.272-.166-2.823-.636-5.642-1.478-8.386-1.636-5.5-4.603-10.833-8.899-15.348-2.146-2.243-4.565-4.323-7.322-5.951-2.751-1.613-5.71-2.93-8.812-3.639-3.082-.733-6.248-.999-9.304-.669-3.058.279-6.005 1.125-8.713 2.644-3.435 1.928-4.657 6.276-2.729 9.711.377.672.847 1.259 1.384 1.755l.98.893c1.935 1.769 3.645 2.977 5.135 4.264 1.52 1.192 2.802 2.378 4.022 3.403 2.396 2.123 4.49 3.917 6.799 6.008 2.296 2.069 4.636 4.522 7.255 7.287l4.094 4.404c.705.776 1.46 1.563 2.227 2.362 1.808 1.881 3.765 3.389 6.305 4.143 1.274.378 2.631.557 3.936.308 1.791-.342 3.266-1.575 3.984-3.243.16-.371.281-.777.357-1.155z"/><path d="m867.357 189.872c-6.255-2.838-21.417-9.298-34.42-19.99-1.83-1.505-4.517-1.23-6.009.61-3.838 4.732-8.683 13.47 1.112 19.618 12.034 7.553 34.012 8.103 39.833 3.427 1.251-1.005.946-3.001-.516-3.665z"/><path d="m780.647 156.926c6.465 2.317 11.49 2.914 23.978 4.132 2.358.23 4.099 2.262 3.889 4.622-.54 6.069-4.772 11.382-14.489 10.312-10.823-1.191-15.704-10.468-16.299-16.795-.15-1.598 1.41-2.813 2.921-2.271z"/><path d="m963.878 300.211c-7.409 0-17.742-1.289-28.926-6.591-1.497-.71-2.136-2.499-1.426-3.996s2.502-2.136 3.996-1.426c19.274 9.137 36.103 5.087 36.271 5.045 1.604-.402 3.235.571 3.64 2.175s-.562 3.232-2.164 3.641c-.365.093-4.677 1.152-11.391 1.152z"/><path d="m813.706 131.617c-.64.65-1.44 1.17-2.35 1.51-.65.24-1.32.37-1.98.4l-1.2.04c-2.36.08-4.25-.1-6.03-.09-1.74-.07-3.32-.01-4.76-.02-2.89.06-5.38.06-8.2.14-2.27.06-4.7.28-7.37.55 2.8-10.29 4.55-18.11 5.94-23.96-.1-.05-.2-.11-.29-.16 2.73-.26 5.53-.26 8.3.23 2.43.43 4.83 1.1 7.06 2.12.38.17.76.36 1.13.55 2.55 1.3 4.88 2.98 6.79 5 1.94 1.98 3.47 4.29 4.44 6.93.89 2.43.23 5.04-1.48 6.76z"/><path d="m813.986 373.917c-.8.06-1.57.1-2.31.12 3.67-22.4 6.1-40.43 6.1-40.43s36.13-2.78 57.67-16.85c6 5.64-3.16 53.09-61.46 57.16z"/></g><path d="m1036.646 240.677c-1.62 39.53-51.6 59.19-80.48 56.68.21 1.16.42 2.33.64 3.49 13.39 72.29 42.3 136.62 42.3 136.62-38.29 49.93-76.16 63.08-108.53 60.02-.09-.01-.19-.02-.29-.03-.18-.01-.37-.03-.56-.05-49.96-5.18-86.63-48.75-91.15-54.35-.07-.09-.13-.17-.19-.24v-.01c-.06-.07-.11-.13-.16-.18-.08-.11-.12-.16-.12-.16 4.99-17.47 9.9-44.12 13.57-66.43 3.67-22.4 6.1-40.43 6.1-40.43s-54.92.46-89.67-30.74c-13.35-11.99-17.69-28.84-13.28-43.1 10.3-33.3 39.17-45.6 53.16-84.25 6.47-17.88 10.78-32.11 13.83-43.37 2.8-10.29 4.55-18.11 5.94-23.96 4.73.55 9.8 1.27 15.07 2.19 19.09 3.32 40.8 9.23 58.27 19.22 0 0 .01 0 .01.01 4.86 2.78 9.4 5.88 13.45 9.32l.01.01c3.55 3.02 6.73 6.3 9.45 9.87 8.89 11.66 19.89 31.65 25.3 52.88 6.1 23.92 8.63 34.96 28.94 20.85 20.36-14.15 31.48-24.82 51.65-27.36 1.5-.2 3.06-.34 4.67-.44 23.93-1.46 42.99 21.39 42.07 43.94z" fill="none"/><path d="m796.147 248.188c-7.949 0-16.861-3.293-21.504-10.206-.924-1.375-.558-3.239.817-4.163 1.376-.924 3.239-.558 4.163.818 4.23 6.298 14.377 8.711 21.191 7.016 7.842-1.949 13.852-8.131 14.955-15.383.249-1.638 1.777-2.763 3.417-2.515 1.638.249 2.764 1.779 2.515 3.417-1.463 9.617-9.275 17.776-19.439 20.303-1.9.473-3.974.713-6.115.713z" fill="#232323"/><path d="m950.938 262.503c-.506 0-1.02-.128-1.49-.398-1.437-.824-1.934-2.658-1.109-4.095 11.495-20.04 26.578-26.595 37.207-28.566 11.562-2.143 20.355.512 20.725.626 1.583.49 2.469 2.17 1.979 3.753-.49 1.581-2.169 2.466-3.746 1.981-1.282-.388-31.324-9.044-50.96 25.191-.556.967-1.566 1.508-2.606 1.508z" fill="#232323"/><path d="m789.197 209.748c-.805 0-1.606-.321-2.198-.957-5.766-6.201-8.118-10.871-7.626-15.144.63-5.477 5.654-8.859 11.471-12.775 12.003-8.079 11.72-15.275 11.716-15.347-.175-1.648 1.022-3.092 2.67-3.266 1.64-.175 3.127 1.052 3.303 2.7.113 1.074.679 10.782-14.338 20.891-5.317 3.58-8.568 5.938-8.861 8.484-.262 2.277 1.777 5.766 6.061 10.372 1.128 1.213 1.059 3.112-.154 4.24-.58.536-1.312.802-2.044.802z" fill="#232323"/><path d="m413.11 668.472c70 62 222 345 147 345.097-56 .072-147-107.097-147-345.097z" fill="#232323"/><path d="m1294.11 832.472c85-41 246.921-132.933 285-88 50 59-285 88-285 88z" fill="#232323"/><path d="m798.11 439.472c-85-56-262-47-385 229 48 42 222 326 147 345.097h658.475l-27.475-120.097s338-203 388-149c0 0-369-479-580-312 0 0-43.588 58.764-99.764 58.764-60.131-.001-101.236-51.764-101.236-51.764z" fill="#00676c"/><path d="m823.934 599.036c-6.427 0-12.372-3.23-17.717-9.638-11.104-13.313-19-39.943-21.662-73.064-2.59-32.223.502-63.938 8.272-84.838.481-1.295 1.925-1.952 3.215-1.472 1.294.481 1.953 1.92 1.473 3.214-7.529 20.25-10.511 51.164-7.976 82.695 2.543 31.642 10.213 57.908 20.517 70.262 5.079 6.088 10.64 8.646 16.537 7.6 12.639-2.241 33.596-21.352 61.664-99.668l5.281-14.735-.429 15.647c-.508 18.533 5.929 42.272 16.799 61.954 11.237 20.349 25.288 32.784 37.584 33.265 15.783.613 26.381-17.86 32.514-33.467 10.978-27.935 18.05-71.793 21.02-130.354.07-1.379 1.239-2.44 2.624-2.37 1.379.07 2.439 1.245 2.37 2.623-2.998 59.102-10.185 103.489-21.359 131.929-6.607 16.814-18.251 36.651-36.383 36.654-.326 0-.65-.006-.98-.019-14.271-.557-29.494-13.622-41.766-35.844-8.954-16.213-15.007-35.138-16.854-51.944-21.615 57.195-42.188 87.878-61.212 91.252-1.193.212-2.37.318-3.532.318z" fill="#fff"/><circle cx="899.861" cy="592.46" fill="#fff" r="5.559"/><circle cx="896.169" cy="668.036" fill="#fff" r="5.559"/><path d="m913.951 725.942c-.108 0-.219-.007-.33-.022-.356-.047-35.705-5.042-40.129-34.532-5.546-36.974 13.812-190.225 14.638-196.731.174-1.369 1.412-2.34 2.796-2.165 1.369.174 2.339 1.426 2.165 2.795-.202 1.586-20.098 159.066-14.653 195.359 3.871 25.809 35.519 30.275 35.838 30.317 1.368.18 2.332 1.437 2.151 2.805-.166 1.258-1.24 2.174-2.476 2.174z" fill="#fff"/><path d="m1194.61 878.472c-.64 0-1.279-.244-1.768-.732-.644-.643-64.744-65.215-103.479-144.672-.605-1.241-.09-2.738 1.151-3.343 1.244-.605 2.739-.089 3.343 1.152 38.373 78.713 101.884 142.691 102.521 143.328.977.976.977 2.559 0 3.536-.488.487-1.128.731-1.768.731z" fill="#fff"/><path d="m568.611 1008.472c-.676 0-1.349-.272-1.842-.808-.934-1.016-.867-2.598.148-3.532 62.259-57.238 111.568-184.621 123.227-254.571.228-1.362 1.509-2.282 2.877-2.055 1.361.227 2.282 1.515 2.055 2.877-11.776 70.66-61.689 199.432-124.773 257.429-.481.442-1.087.66-1.692.66z" fill="#fff"/><path d="m798.11 442.472c-85-56-262-50-385 226 48 42 222 326 147 345.097h658.475l-27.475-120.097s338-203 388-149c0 0-369-474-580-307z" fill="none"/><path d="m570.35 938.072s0 0-.01.01c-.43.46-12.7 13.4-32.68 28.51-2.7 2.05-5.54 4.13-8.51 6.22-29.27 20.66-71.214 42.383-116.04 41.66-62-1-131-80-183-196-40.621-90.616-55-149-150-223-93.41-72.76-45-68-30-61-90.31-76.04-23-59-23-59-72-77 45-26 45-26s-67.787-67.318 16-35c70 27 112 56 112 56 25-8 166.28 129.18 215.39 192.69 0 .01.01.01.01.02 3.17 4.1 6.05 7.88 8.6 11.29 9.08 12.13 17.63 23.97 25.68 35.5.12.17.24.35.36.53 15.58 22.33 29.29 43.48 41.32 63.23 61 100.14 78.88 164.34 78.88 164.34z" fill="#fff"/><path d="m415.291 1017.489c-.742 0-1.485-.006-2.229-.018-30.702-.495-64.388-19.807-97.414-55.848-31.575-34.457-62.101-83.534-88.275-141.925-5.857-13.065-11.14-25.392-16.248-37.313-30.271-70.637-52.142-121.673-132.858-184.547-44.308-34.513-62.068-55.286-55.894-65.376 2.711-4.43 9.155-5.232 15.646-4.439-38.923-34.308-39.964-45.791-37.053-51.467 2.924-5.7 11.294-6.189 18.048-5.531-16.236-18.431-21.392-29.81-16.689-36.466 4.579-6.483 17.376-6.223 40.275.818 6.544 2.012 12.936 4.304 18.178 6.298-1.907-2.189-3.941-4.616-5.924-7.149-10.524-13.439-13.801-22.204-10.313-27.586 4.479-6.911 18.249-5.451 44.65 4.732 63.319 24.423 104.366 50.839 111.511 55.582 4.939-.791 14.591 1.253 38.468 18.591 16.624 12.072 37.936 30.036 61.632 51.952 44.551 41.203 92.692 92 117.072 123.529.034.043.066.088.097.132 3.148 4.072 6.022 7.845 8.543 11.216 8.839 11.808 17.499 23.779 25.737 35.579.125.177.261.38.396.583 14.662 21.014 28.599 42.34 41.386 63.334 48.422 79.491 72.985 142.752 79.208 165.096.29 1.041-.003 2.154-.759 2.917-.89.941-13.108 13.749-33.012 28.801-2.789 2.117-5.682 4.232-8.593 6.281-27.426 19.358-69.571 42.224-115.586 42.224zm-381.742-483.705c-2.97 0-5.286.55-6.058 1.81-.641 1.046-4.549 11.544 54.463 57.51 81.936 63.824 104.062 115.456 134.686 186.918 5.1 11.898 10.372 24.202 16.208 37.222 25.916 57.812 56.077 106.336 87.225 140.325 31.885 34.795 64.074 53.434 93.087 53.902 45.226.73 87.118-21.953 114.262-41.111 2.855-2.01 5.689-4.081 8.425-6.158 16.378-12.385 27.637-23.421 31.143-26.975-6.868-23.446-31.19-84.958-78.081-161.935-12.723-20.889-26.59-42.11-41.217-63.074-.141-.209-.245-.366-.351-.515-8.211-11.761-16.831-23.678-25.631-35.434-2.526-3.378-5.41-7.163-8.572-11.253-.033-.043-.065-.088-.097-.132-24.228-31.304-72.032-81.728-116.312-122.682-76.07-70.354-93.07-69.717-95.703-68.874-.888.284-1.854.139-2.618-.388-.418-.288-42.562-29.128-111.376-55.67-32.007-12.346-36.815-8.053-37.455-7.067-2.984 4.603 10.336 22.92 24.649 37.139 1.023 1.017 1.179 2.62.367 3.814-.811 1.194-2.357 1.641-3.68 1.065-27.108-11.813-59.164-20.602-63.688-14.201-1.112 1.576-2.811 8.786 22.077 35.402.909.972 1.068 2.427.392 3.573-.675 1.146-2.023 1.711-3.317 1.385-7.277-1.835-18.303-2.538-20.072.915-1.206 2.355-1.474 13.13 45.739 52.881 1.15.969 1.405 2.641.596 3.909-.81 1.267-2.433 1.741-3.797 1.104-4.429-2.065-10.657-3.405-15.294-3.405z" fill="#232323"/><path d="m102.607 566.972c-.586 0-1.178-.171-1.696-.528-15.637-10.75-21.307-14.363-59.577-33.762-1.478-.749-2.068-2.554-1.319-4.032.75-1.479 2.556-2.067 4.032-1.319 38.613 19.573 44.365 23.24 60.263 34.17 1.365.939 1.712 2.806.772 4.172-.581.844-1.519 1.299-2.475 1.299z" fill="#232323"/><path d="m108.607 525.972c-.603 0-1.211-.181-1.739-.558-2.849-2.032-5.496-4.197-8.3-6.49-11.104-9.079-26.311-21.514-74.043-41.402-1.529-.637-2.252-2.394-1.615-3.923.638-1.53 2.391-2.253 3.924-1.615 48.542 20.226 64.142 32.982 75.532 42.296 2.725 2.228 5.299 4.333 7.986 6.25 1.349.962 1.662 2.836.7 4.185-.585.82-1.507 1.257-2.445 1.257z" fill="#232323"/><path d="m125.609 487.972c-.703 0-1.408-.245-1.978-.745-.142-.123-14.797-12.789-59.111-38.629-1.432-.835-1.915-2.671-1.081-4.103.835-1.431 2.674-1.916 4.103-1.08 44.964 26.218 59.452 38.781 60.047 39.303 1.246 1.093 1.369 2.988.276 4.234-.592.674-1.423 1.02-2.256 1.02z" fill="#232323"/><path d="m570.35 938.072s0 0-.01.01c-.43.46-12.7 13.4-32.68 28.51-2.7 2.05-5.54 4.13-8.51 6.22-29.27 20.66-71.214 42.383-116.04 41.66-62-1-131-80-183-196-40.621-90.616-55-149-150-223-93.41-72.76-45-68-30-61-90.31-76.04-23-59-23-59-72-77 45-26 45-26s-67.787-67.318 16-35c70 27 112 56 112 56 25-8 166.28 129.18 215.39 192.69 0 .01.01.01.01.02 3.17 4.1 6.05 7.88 8.6 11.29 9.08 12.13 17.63 23.97 25.68 35.5.12.17.24.35.36.53 15.58 22.33 29.29 43.48 41.32 63.23 61 100.14 78.88 164.34 78.88 164.34z" fill="none"/><path d="m1251.821 1012.653c-2.569 4.88-7.699 8.21-13.609 8.21l-342.42-.09-18.74-.01c-3-10.32-6.18-20.59-9.86-30.68h317.62c1.79.57 3.59 1.16 5.4 1.75 3.07 1 6.17 2.02 9.29 3.06 16.839 5.6 34.399 11.65 52.319 17.76z" fill="#d9c6f4"/><path d="m899.815 1023.766c-1.191 0-2.319-.715-2.787-1.889l-12.923-32.396c-.614-1.539.136-3.284 1.675-3.898 1.536-.614 3.284.136 3.897 1.675l12.923 32.396c.614 1.539-.136 3.284-1.675 3.898-.363.145-.739.214-1.11.214z" fill="#fff"/><path d="m1257.21 1020.859h-803.577c-8.287 0-15.418-6.368-15.808-14.646-.417-8.838 6.626-16.135 15.373-16.135h803.577c8.287 0 15.418 6.368 15.808 14.646.417 8.838-6.626 16.135-15.373 16.135z" fill="none"/><path d="m895.835 1020.859h-465.415l-113.955-304.572c-5.347-14.291 5.219-29.525 20.477-29.525h397.094c22.131 0 41.938 13.737 49.693 34.465z" fill="#d9c6f4"/><circle cx="921.264" cy="1005.619" fill="#232323" r="4.789"/><path d="m943.599 1008.246c-1.652 0-2.994-1.336-3-2.989-.006-1.657 1.332-3.005 2.989-3.011l32.787-.116h.011c1.652 0 2.994 1.336 3 2.989.006 1.657-1.332 3.005-2.989 3.011l-32.787.116c-.004 0-.008 0-.011 0z" fill="#232323"/><path d="m592.333 891.265c-4.528 0-8.937-1.394-12.707-4.065-4.81-3.407-8.005-8.483-8.996-14.293-.816-4.779.277-9.591 3.08-13.547s6.979-6.585 11.758-7.401c8.166-1.393 15.941 4.114 17.335 12.28.563 3.296-.191 6.613-2.124 9.342-1.933 2.728-4.812 4.541-8.107 5.104-3.015.515-6.102-.307-8.463-2.255-1.065-.878-1.217-2.454-.338-3.519.879-1.066 2.456-1.216 3.52-.338 1.24 1.023 2.862 1.453 4.439 1.184 1.979-.338 3.709-1.427 4.869-3.065 1.161-1.639 1.614-3.631 1.276-5.61-.932-5.448-6.125-9.122-11.565-8.193-3.463.591-6.489 2.496-8.52 5.362-2.03 2.867-2.823 6.353-2.232 9.816.768 4.493 3.238 8.419 6.958 11.054s8.244 3.663 12.736 2.896c11.934-2.037 19.985-13.405 17.948-25.339-2.611-15.294-15.204-24.137-30.597-21.508-9.299 1.588-16.913 6.37-21.438 13.465-4.706 7.38-5.82 16.864-3.137 26.705.363 1.332-.422 2.706-1.754 3.07-1.332.363-2.707-.422-3.07-1.754-3.06-11.219-1.729-22.125 3.746-30.709 5.293-8.3 14.104-13.877 24.812-15.705 18.025-3.077 33.311 7.689 36.367 25.595 2.501 14.652-7.384 28.608-22.035 31.109-1.256.213-2.513.319-3.761.319z" fill="#fff"/><path d="m1477.11 1053.472c-59.26 11.12-143.36-13.83-222.87-40.55-3.1-1.04-6.19-2.08-9.28-3.13-21.42-7.26-42.41-14.54-62.4-21.19-3.12-1.04-6.22-2.06-9.29-3.06-39.84-13.01-75.18-22.92-101.16-24.07-55 38-126-4-116-28 0 0-22-12-18-32 0 0-26-23 4-48 0 0-160.87 7.76-55-30 127.66-45.54 316.81-11.07 383.05 3.4.85.19 1.68.37 2.48.55 13.689 3.03 21.47 5.05 21.47 5.05.01-.01.03-.01.04-.01 2.7-1.4 139.74-72.18 217.65-91.42 4.4 5.46 12.5 17.28 21.79 33.29h.01c44.2 76.11 115.37 246.92-56.49 279.14z" fill="#fff"/><path d="m1445.363 1059.182c-57.318 0-128.264-21.971-192.079-43.417-3.102-1.041-6.196-2.082-9.289-3.133-7.861-2.664-15.666-5.332-23.386-7.97-13.553-4.632-26.354-9.008-38.996-13.214-3.115-1.038-6.209-2.056-9.272-3.054-33.724-11.013-71.821-22.427-99.37-23.877-21.909 14.784-44.263 16.216-59.244 14.784-18.01-1.721-35.396-8.422-47.703-18.384-10.429-8.442-15.302-18.004-13.476-26.109-5.62-3.685-20.111-14.992-17.658-32.291-3.011-3.118-10.407-12.002-10.232-23.848.113-7.667 3.349-15.009 9.636-21.903-8.488.264-22.631.556-36.789.189-41.641-1.079-48.314-6.577-49.351-11.814-1.002-5.063 2.723-11.932 37.949-24.496 55.31-19.731 127.902-26.787 215.764-20.972 72.212 4.779 136.838 17.255 168.935 24.266l2.497.554c10.675 2.363 17.847 4.134 20.464 4.793 12.678-6.512 142.489-72.679 217.318-91.158 1.135-.279 2.324.122 3.056 1.03 4.322 5.363 12.346 16.963 21.934 33.469.044.064.086.13.126.197 11.395 19.622 32.287 58.997 44.185 102.241 12.64 45.944 12.12 84.359-1.544 114.178-16.035 34.995-50.074 57.596-101.173 67.176-10.125 1.901-20.947 2.763-32.302 2.763zm-373.253-100.71c.044 0 .088.001.133.003 28.342 1.255 67.445 12.945 101.959 24.215 3.073 1.001 6.181 2.024 9.307 3.066 12.664 4.213 25.477 8.592 39.042 13.229 7.714 2.637 15.514 5.303 23.372 7.966 3.089 1.049 6.176 2.088 9.271 3.127 63.352 21.29 133.759 43.113 190.093 43.115 11.017 0 21.487-.834 31.27-2.669h.001c49.071-9.2 81.647-30.658 96.824-63.778 13.061-28.502 13.468-65.541 1.213-110.087-11.678-42.446-32.199-81.184-43.474-100.621-.044-.064-.087-.13-.126-.199-8.627-14.868-16.065-25.815-20.354-31.412-77.975 19.842-213.736 89.988-215.109 90.7-.215.111-.442.196-.676.253-.483.124-1 .127-1.499-.002-.077-.02-7.896-2.044-21.364-5.025l-2.487-.551c-31.918-6.972-96.212-19.384-168.035-24.138-87.042-5.76-158.819 1.183-213.352 20.636-34.699 12.376-34.089 17.628-34.079 17.68.012.059 1.649 5.894 43.62 6.981 22.068.572 44.087-.472 44.307-.483 1.272-.061 2.472.705 2.939 1.908.469 1.202.116 2.568-.874 3.393-8.757 7.297-13.257 15.03-13.374 22.982-.175 11.822 9.345 20.381 9.44 20.466.801.708 1.164 1.788.954 2.835-3.512 17.559 16.299 28.67 16.499 28.78 1.343.738 1.918 2.371 1.329 3.785-2.495 5.989 1.586 14.074 10.919 21.628 18.62 15.073 62.4 29.147 100.607 2.75.501-.348 1.096-.533 1.704-.533z" fill="#232323"/><path d="m1258.61 820.972c67 15 141 41 200 71" fill="#fff"/><path d="m1458.609 894.972c-.458 0-.922-.105-1.357-.326-57.488-29.231-131.991-55.678-199.296-70.747-1.617-.362-2.634-1.966-2.272-3.583.362-1.618 1.975-2.633 3.583-2.272 68.777 15.398 141.932 41.369 200.704 71.253 1.478.751 2.065 2.557 1.314 4.034-.53 1.042-1.584 1.641-2.676 1.641z" fill="#232323"/><path d="m938.613 858.972c-.962 0-1.906-.461-2.486-1.318-.93-1.372-.571-3.237.801-4.166 31.735-21.497 64.989-13.771 66.39-13.432 1.61.39 2.599 2.012 2.209 3.622-.391 1.61-2.01 2.6-3.623 2.209-.316-.075-32.143-7.394-61.61 12.568-.517.35-1.102.517-1.681.517z" fill="#232323"/><path d="m938.607 905.972c-.493 0-.992-.122-1.454-.378-1.448-.805-1.97-2.631-1.165-4.079 15.746-28.344 72.428-24.704 74.832-24.536 1.652.116 2.897 1.549 2.782 3.202-.114 1.652-1.548 2.902-3.201 2.783-.555-.038-55.272-3.548-69.169 21.464-.547.987-1.57 1.544-2.625 1.544z" fill="#232323"/><path d="m955.607 938.972c-.594 0-1.193-.176-1.718-.543-1.357-.95-1.688-2.821-.737-4.178 8.677-12.394 22.236-18.022 32.084-20.56 12.131-3.126 25.641-3.359 37.069-.638 1.611.384 2.607 2.001 2.223 3.613s-1.999 2.606-3.613 2.224c-20.936-4.985-50.166.686-62.847 18.802-.584.834-1.514 1.28-2.461 1.28z" fill="#232323"/><path d="m1079.613 964.972c-.062 0-.122-.002-.185-.006-13.199-.8-23.962-3.571-34.37-6.251-15.654-4.031-29.176-7.512-46.675-2.845-1.608.427-3.245-.525-3.672-2.126s.524-3.245 2.125-3.672c19.022-5.072 33.932-1.233 49.718 2.831 10.134 2.609 20.612 5.308 33.237 6.073 1.653.1 2.913 1.522 2.812 3.176-.094 1.593-1.416 2.82-2.99 2.82z" fill="#232323"/><path d="m1477.11 1053.472c-112.62 21.12-315-88-405-92-55 38-126-4-116-28 0 0-22-12-18-32 0 0-26-23 4-48 0 0-160.87 7.76-55-30 157-56 407 9 407 9 .01-.01.03-.01.04-.01 2.7-1.4 139.74-72.18 217.65-91.42 4.4 5.46 12.5 17.28 21.79 33.29h.01c44.2 76.11 115.37 246.92-56.49 279.14z" fill="none"/><path d="m1281.636 830.857v.56c0 .29 0 .58-.01.87.02 3.94-.02 7.9-.09 11.88 0 .61-.02 1.21-.03 1.82-.22 10.26-.74 20.64-1.53 31.03-.3 4.11-.66 8.22-1.05 12.33-.02.19-.04.37-.06.56-.17 1.82-.35 3.63-.54 5.45-4.31 41.04-12.68 81.83-24.09 117.56-3.1-1.04-6.19-2.08-9.28-3.13-21.42-7.26-42.41-14.54-62.4-21.19 9.68-30.66 16.86-66.38 20.54-102.18.2-1.83.38-3.67.54-5.5.02-.16.04-.31.05-.47.43-4.49.78-8.98 1.08-13.46.82-12.05 1.2-24.02 1.14-35.7l19.88-.11 50.66-.29 2.71-.02z" fill="#232323"/><ellipse cx="1244.079" cy="847.701" fill="#232323" rx="45.678" ry="65.45" transform="matrix(.1587 -.9873 .9873 .1587 209.6482 1941.4478)"/><path d="m1236.796 892.987c-12.26-1.97-23.64-6.15-33.16-12.07-.16 1.83-.34 3.67-.54 5.5 9.64 5.61 20.88 9.58 32.91 11.51 5.41.87 10.79 1.3 16.08 1.3 9.2 0 18.1-1.31 26.24-3.87.19-1.82.37-3.63.54-5.45-12.54 4.37-27.19 5.47-42.07 3.08z" fill="#fff"/><path d="m1182.561 988.602c17.56-48.58 23.674-99.276 23.35-157.311l19.878-.108 55.847-.318c.027 5.011-.016 10.046-.127 15.121-1.463 65.869-6.536 112.872-27.269 166.935z" fill="none"/><ellipse cx="1245.171" cy="840.669" fill="#fff" rx="39.17" ry="63.536" transform="matrix(.1587 -.9873 .9873 .1587 217.5087 1936.6099)"/><path d="m1255.08 883.651c-5.431 0-10.999-.445-16.604-1.346-17.297-2.781-32.931-9.582-44.02-19.149-11.491-9.915-16.812-21.652-14.979-33.048 1.832-11.396 10.562-20.874 24.582-26.687 13.53-5.61 30.507-7.167 47.804-4.386s32.931 9.582 44.02 19.149c11.491 9.915 16.812 21.652 14.979 33.048-1.832 11.396-10.562 20.874-24.582 26.687-9.146 3.792-19.869 5.732-31.2 5.732zm-19.846-79.967c-10.53 0-20.452 1.786-28.875 5.279-12.025 4.986-19.468 12.833-20.957 22.097s3.118 19.049 12.975 27.553c10.258 8.851 24.838 15.161 41.053 17.768 16.21 2.606 32.036 1.184 44.552-4.005 12.025-4.986 19.468-12.834 20.957-22.097 1.489-9.264-3.118-19.049-12.975-27.552-10.258-8.851-24.838-15.161-41.053-17.768-5.301-.854-10.56-1.275-15.677-1.275z" fill="#232323"/><path d="m1212.194 835.118 37.653 4.724 2.531-24.194" fill="#fff"/><path d="m1249.848 842.842c-.124 0-.249-.008-.373-.023l-37.653-4.724c-1.645-.206-2.81-1.706-2.604-3.35s1.72-2.808 3.35-2.603l34.615 4.343 2.212-21.148c.172-1.648 1.648-2.844 3.296-2.672 1.647.172 2.844 1.648 2.671 3.296l-2.53 24.194c-.084.802-.486 1.536-1.118 2.038-.534.422-1.192.649-1.866.649z" fill="#232323"/><path d="m268.2 512.792s-90.887-79.945-106.636-65.769c-10.768 9.692 14.264 48.812 23.999 65.983 12.455 21.97 58.746 80.348 58.746 80.348" fill="#fff"/><path d="m244.312 596.354c-.885 0-1.761-.389-2.353-1.136-1.896-2.391-46.578-58.812-59.005-80.732-1.141-2.01-2.49-4.323-3.969-6.855-16.201-27.746-29.878-53.431-19.428-62.837 5.003-4.506 16.985-6.57 63.012 27.384 24.511 18.081 47.384 38.161 47.612 38.362 1.244 1.094 1.365 2.99.271 4.234-1.096 1.245-2.989 1.365-4.234.271-.227-.199-22.931-20.129-47.238-38.058-43.975-32.436-53.528-29.427-55.409-27.734-7.686 6.918 12.133 40.859 20.595 55.352 1.493 2.556 2.856 4.892 4.007 6.922 12.199 21.518 58.026 79.381 58.487 79.963 1.029 1.298.812 3.185-.486 4.215-.552.437-1.209.649-1.862.649z" fill="#232323"/></svg></g><!--ITEM: Illustration component 3--><g transform="translate(488.4 1713.6) rotate(-8.452167156955527 -156.6 222.0)  scale(-1.6705514633326755 1.665422600985)"><svg width="187.483" height="266.599" viewBox="0.0 0.0 187.483 266.599"><path d="m98.012 258.735-75.929-22.395c-11.138-3.285-17.504-14.977-14.219-26.115l55.491-188.142c3.285-11.138 14.977-17.504 26.115-14.219l75.929 22.395c11.138 3.285 17.504 14.977 14.219 26.115l-55.491 188.142c-3.285 11.138-14.977 17.504-26.115 14.219z" fill="#fff"/><g fill="#232323"><path d="m103.947 266.597c-2.618 0-5.278-.37-7.915-1.148l-75.929-22.395c-7.18-2.118-13.105-6.905-16.686-13.479-3.579-6.575-4.385-14.15-2.267-21.33l55.492-188.142c2.117-7.18 6.904-13.106 13.479-16.686 6.574-3.579 14.149-4.385 21.329-2.267l75.93 22.395c7.18 2.118 13.105 6.905 16.686 13.479 3.579 6.575 4.385 14.15 2.267 21.33l-55.491 188.142c-3.595 12.186-14.79 20.101-26.895 20.101zm-3.955-14.576c7.41 2.188 15.232-2.067 17.421-9.485l55.491-188.142c1.06-3.593.657-7.384-1.135-10.675-1.791-3.29-4.757-5.686-8.351-6.746l-75.928-22.395c-3.593-1.06-7.384-.656-10.675 1.135-3.29 1.791-5.686 4.757-6.745 8.35l-55.492 188.143c-1.06 3.594-.657 7.385 1.135 10.675 1.791 3.29 4.757 5.686 8.351 6.746z"/><path d="m146.279 37.191c-.562 0-1.134-.08-1.7-.247l-43.202-12.742c-3.179-.937-4.995-4.274-4.058-7.452.938-3.179 4.276-4.994 7.452-4.058l43.202 12.742c3.179.937 4.995 4.274 4.058 7.452-.771 2.613-3.162 4.305-5.752 4.305z"/></g></svg></g><!--ITEM: Illustration component 4--><g transform="translate(441.59999999999997 1665.6) rotate(69.23291119830508 163.20000000000002 97.79999999999995)  scale(1.1421453015977436 1.1395812213793821)"><svg width="285.778" height="171.642" viewBox="0.0 0.0 285.778 171.642"><g fill="#232323"><path d="m269.737 100.65c-.137 0-.274-.009-.413-.028-1.642-.226-2.789-1.74-2.562-3.381l13.044-94.65c.226-1.642 1.743-2.788 3.381-2.562 1.642.226 2.789 1.74 2.562 3.381l-13.044 94.65c-.207 1.502-1.493 2.59-2.968 2.59z"/><path d="m169.324 124.861c-1.227 0-2.378-.758-2.82-1.978l-32.554-89.771c-.564-1.558.24-3.278 1.798-3.843 1.554-.564 3.277.24 3.843 1.798l32.554 89.771c.564 1.558-.24 3.278-1.798 3.843-.337.121-.683.18-1.023.18z"/><path d="m78.461 171.643c-.64 0-1.284-.203-1.829-.624l-75.463-58.168c-1.312-1.012-1.557-2.895-.545-4.208 1.012-1.312 2.897-1.556 4.207-.545l75.463 58.167c1.312 1.012 1.557 2.895.545 4.208-.591.768-1.479 1.17-2.378 1.17z"/></g></svg></g><!--ITEM: Illustration component 5--><g transform="translate(1292.3999999999999 734.4) rotate(0.0 279.0 144.59999999999997)  scale(1.4715189873417722 1.4770173646578137)"><svg width="379.2" height="195.8" viewBox="0.0 0.0 379.2 195.8"><path d="m348 85.4c8.9-7.8 12.9-15.1 11.2-21.2-3.6-12.6-35.7-30-90-38.7-59.7-9.5-129.4-6.3-191.3 8.8-5.3 1.2-10.5-2-11.8-7.3-1.2-5.2 1.9-10.4 7.1-11.7 64.3-15.7 136.8-19 199-9.1 27.5 4.4 51.7 11.2 69.9 19.7 10.4 4.9 18.7 10.2 24.8 15.9 10.4 16.8-.7 30.1-18.9 43.6z" fill="rgb(35,35,35)"/><path d="m330.5 120.1c-16.9 8.7-34.4 16-52.4 21.8-1.4.4-2.9.6-4.4.3-5.3-.8-9-5.8-8.2-11.1.5-3.7 3.2-6.8 6.7-7.9.1 0 6.6-2.1 15.9-5.7 11.4-4.3 22.6-9.3 33.5-14.9 11.2-5.9 20-11.7 26.4-17.3 18.2-13.5 29.3-26.8 18.8-43.6 5.7 5.4 9.4 11 11.1 17.1 6.1 21-9.9 41.6-47.4 61.3z" fill="rgb(255,255,255)"/><path d="m278.8 59.3c-24-4.4-58.8-10.1-90.6-20.4-35.7-10.4-68.4-20.2-93.1-32.9-32.1-16.6-66 5-74.7 23.5-4.5 9.6 38.6 13.3 36.6 20.7-10 37.3 6 59.4 33.7 71 21.5 9.1 43.4 17.1 65.7 24 31.3 9.4 58.2 27 81.4 29.3l-9.2 17.8s23-8.2 39.9-22.2c10.1-8.4 13.7-17.7 17-26.3 4.6-12.1 10.9-37.3 13.3-50.2 3.4-17.8-1.6-30.9-20-34.3z" fill="rgb(0,103,108)"/><path d="m252.6 164.8c-6.3 15.8-16.5 31.1-44.2 31-25.1-.1-54.1-20.9-88.5-31.8-22.8-7.4-45.2-16-67.1-25.7-28.2-12.4-44.2-35.4-33.3-73.5 2.2-7.5-6.2-21.7-1.6-31.6 10.2-22.2 30.4-21.3 42-15.9 25.8 12.1 58 26.9 94.5 38.2 32.4 11.2 68.1 17.6 92.7 22.6 18.8 3.8 23.7 17.4 20 35.6-2.7 13-9.6 38.8-14.5 51.1z" fill="rgb(255,255,255)"/><path d="m236.5 173.3c-6.3 15.8-17.6 25-36.1 21.9-24.7-4.1-62.2-11.9-96.5-22.8-22.8-7.4-45.2-16-67.1-25.7-28.3-12.4-44.3-35.3-33.3-73.5 2.2-7.5 6.4-20.6 10.1-30.9 6.7-18.8 18.6-22.1 30.2-16.6 25.8 12.1 58 26.9 94.5 38.2 32.5 11.1 68.1 17.6 92.7 22.5 18.8 3.8 23.7 17.4 20 35.6-2.7 13.2-9.6 38.9-14.5 51.3z" fill="rgb(217,198,244)"/><g fill="#fff"><path d="m191.9 78.4-146.4 70.2c-.6.3-1 .8-1.3 1.4 1.7.8 3.5 1.5 5.2 2.2l150.4-72.1c-2.5-.5-5.2-1.1-7.9-1.7z"/><path d="m239.4 89.2-158.5 75.4c2.2.8 4.4 1.6 6.6 2.4l156.8-74.6c-1.4-1.2-3-2.3-4.9-3.2z"/></g></svg></g><!--ITEM: Illustration component 6--><g transform="translate(2114.4 1041.6) rotate(0.0 239.39999999999986 253.20000000000005)  scale(1.565217391304347 1.5668316831683171)"><svg width="305.9" height="323.2" viewBox="0.0 0.0 305.9 323.2"><path d="m118.8 14.8-37.7 22.5c-8.5 5.1-13.2 15.4-13.6 27.4-.4 15-3.4 37.5-24.7 50.2 0 0-.1 0-.1.1l-26 15.5c-11 6.6-14.5 20.8-8 31.7l53.9 90.1c9.9 16.6 22.3 15.7 34.9 8.1l170.9-102.1c15-9 17.4-15.8 9.4-29.2-16.7-28-34.4-55.7-56.4-90.8-5.9-9.4-10.1-15.3-24.4-12.3-28.7 6-40.7-8.2-52.7-13.2-8.3-3.4-17.8-2.7-25.5 2z" fill="rgb(35,35,35)"/><path d="m287.8 172.8-182.8 109.2c-4 2.4-12.1 5.6-20.9 4.2-1.6-.2-3.2-.7-4.9-1.2-5.9-2.1-11.8-6.6-16.8-15.1l-58.2-102.7c-8.5-14.2-3.3-27 8.6-34.1l56.2-33.6 125.8-75.2 101.3 94.1c10.4 17.4 18.6 38.3-8.3 54.4z" fill="rgb(35,35,35)"/><path d="m98.1 250.4-14 35.9c-1.6-.2-3.2-.7-4.9-1.2l14.2-36.5z" fill="#fff"/><path d="m27 136.3c-6.9 0-12.5-5.6-12.5-12.5 0-3.1 1.1-6.1 3.2-8.4 1.4-1.5 14.1-15.2 32.4-19.3 6.7-1.6 13.5 2.6 15 9.3 1.6 6.7-2.6 13.5-9.3 15-.1 0-.1 0-.2 0-10.7 2.4-19.3 11.6-19.4 11.7-2.3 2.7-5.6 4.2-9.2 4.2z" fill="rgb(35,35,35)"/><path d="m286.7 147.7-139.1 83.1-4.3 2.6-27.5 16.5c-12.7 7.6-25 8.5-34.9-8.1l-53.9-90.2c-6.6-11-3-25.2 8-31.7l26-15.5h.1c1.3-.8 2.5-1.6 3.7-2.4 1.4-1 2.7-2.1 3.9-3.2 14.5-13 16.8-31.6 17.1-44.6.3-12 5.1-22.3 13.6-27.4l37.7-22.5c7.7-4.6 17.2-5.3 25.5-1.9 12.1 5 24 19.2 52.7 13.2 14.3-3 18.5 2.9 24.4 12.2 22.1 35.1 39.7 62.9 56.4 90.8 8 13.3 5.7 20.1-9.4 29.1z" fill="rgb(0,103,108)"/><path d="m147.6 230.8-4.3 2.6-78.5-131.6c1.4-1 2.7-2.1 3.9-3.2z" fill="rgb(35,35,35)"/><path d="m115.3 40.7 30.3-18.1c4.3-2.6 9.9-1.2 12.4 3.1l.1.2c2.6 4.3 1.2 9.9-3.1 12.4l-30.3 18.1c-4.3 2.6-9.9 1.2-12.4-3.1l-.1-.2c-2.6-4.2-1.2-9.8 3.1-12.4z" fill="rgb(217,198,244)"/><path d="m269.6 119.9-3.6 2.7-17.1 12.5-27.6 20.3-.1.1-.4.3c-1.4 1-2.8 2-4.3 2.8-25.9 15.5-59.3 7.6-75.7-17.7-16.7-26-9.2-60.5 16.7-77.2l25.3-18.7 18.8-13.8z" fill="rgb(217,198,244)"/><path d="m235.4 131.7c-30.9 0-55.9-25-56-55.8 0-17.6 8.3-34.1 22.2-44.6l-18.8 13.7c-5.3 9-8.3 19.5-8.3 30.8 0 33.6 27.3 60.8 60.9 60.8 4.6 0 9.2-.5 13.5-1.5l17.1-12.5c-8.8 5.7-19.3 9-30.6 9.1z" fill="rgb(0,103,108)"/><circle cx="235.3" cy="75.8" fill="rgb(217,198,244)" r="55.9"/><path d="m274.7 75.8c0 21.8-17.6 39.4-39.4 39.4-1.1 0-2.3 0-3.4-.1-1.7-.1-3.4-.4-5.1-.8-3.9-.8-7.6-2.3-11-4.2-1.5-.8-2.9-1.8-4.3-2.8-9.5-7.2-15.7-18.6-15.7-31.4 0-21.8 17.6-39.4 39.4-39.4 1.2 0 2.4 0 3.5.2 1.7.2 3.4.4 5.1.8 3.9.9 7.6 2.3 11 4.3 1.5.9 2.9 1.8 4.3 2.8 9.5 7 15.6 18.4 15.6 31.2z" fill="rgb(35,35,35)"/><g fill="#fff"><path d="m238.9 36.5-27.3 70.7c1.4 1 2.8 2 4.3 2.8l28.1-72.7z"/><path d="m259.2 44.4-27.3 70.6-5-.8 28-72.6z"/></g></svg></g><!--ITEM: Illustration component 7--><g transform="translate(2314.7999999999997 1738.8) rotate(0.0 278.4000000000001 283.80000000000007)  scale(1.5653640708462193 1.5709936340990869)"><svg width="355.7" height="361.3" viewBox="0.0 0.0 355.7 361.3"><path d="m254.1 47.5c-3.7 0-7.3-1.7-9.6-4.5-.1-.1-11.9-14.1-27.7-18.4-6.6-1.9-10.5-8.8-8.6-15.4s8.6-10.4 15.2-8.7c23.6 6.5 39.7 25.8 40.4 26.6 4.4 5.3 3.6 13.2-1.7 17.6-2.4 1.8-5.2 2.8-8 2.8z" fill="rgb(35,35,35)"/><path d="m343.2 174.9c-6.5 0-12-5.1-12.5-11.6-1.2-16.4-12.6-30.6-12.7-30.8-4.3-5.4-3.5-13.2 1.9-17.6 5.3-4.3 13.1-3.5 17.5 1.7.7.8 16.5 20.3 18.3 44.8.5 6.9-4.7 12.9-11.6 13.4-.3.1-.6.1-.9.1z" fill="rgb(35,35,35)"/><path d="m206.7 359.3c-29.7-10.6-11.7-66.6-2.4-117.1 1.9-10.3-.9-20.8-7.5-28.9l-55.2-67.1c-6.6-8.1-16.4-12.8-26.9-12.9-41.6-.5-87.9 3.8-106.4-11.1-4.4-3.4-7.2-8.4-8-13.9-4.3-28.8 30.8-68.5 90.5-91.4 106.4-40.7 160 8.7 202.7 60.7s80.9 114.1 20.3 210.6c-33.9 54.2-79.6 80.9-107.1 71.1z" fill="rgb(0,103,108)"/><path d="m241.5 218.6c6.3-17.5 2.9-37-8.9-51.3l-19.4-23.6-19.4-23.7c-11.8-14.4-30.3-21.4-48.7-18.7l-136.8 20.9c18.5 15 64.8 10.6 106.4 11.1 10.4.1 20.3 4.9 26.9 12.9l27.6 33.6 27.6 33.6c6.6 8.1 9.4 18.6 7.5 28.9-7.5 40.9-20.8 85.5-9.7 106.5z" fill="rgb(35,35,35)"/><circle cx="218.6" cy="194.2" fill="rgb(255,255,255)" r="11"/><circle cx="165.3" cy="129.4" fill="rgb(255,255,255)" r="11"/><circle cx="284.9" cy="216.1" fill="rgb(217,198,244)" r="9.3"/><circle cx="312.2" cy="193.6" fill="#fff" r="9.3"/><circle cx="309.7" cy="219.8" fill="rgb(217,198,244)" r="9.3"/><g fill="rgb(255,255,255)"><circle cx="286.1" cy="191.1" r="9.3"/><path d="m168.9 23.5c0-.6-.2-1.1-.6-1.6-.9-1.1-2.5-1.2-3.5-.3l-19.7 16.2c-.4.4-.7.9-.9 1.4-.3 1.4.6 2.7 1.9 3l19.9 4.2c.2 0 .3.1.5.1 1.4 0 2.5-1.2 2.5-2.5z"/><path d="m195.5 55.9-19.9-4.2c-.2 0-.4-.1-.5-.1-1.4 0-2.5 1.1-2.5 2.5l.2 20.4c0 1.4 1.1 2.5 2.5 2.5.6 0 1.1-.2 1.6-.6l19.7-16.2c.4-.4.7-.9.9-1.4.2-1.3-.6-2.7-2-2.9z"/><path d="m198.5 43-16.2-19.7c-.4-.4-.9-.7-1.4-.9-1.4-.3-2.7.6-3 1.9l-4.2 19.9c0 .2-.1.3-.1.5 0 1.4 1.1 2.5 2.5 2.5l20.4-.2c.6 0 1.1-.2 1.6-.6 1.1-.8 1.3-2.3.4-3.4z"/><path d="m165.9 50.7-20.3.3c-.6 0-1.1.2-1.6.6-1.1.9-1.2 2.5-.3 3.5l16.2 19.7c.5.6 1.2.9 1.9.9.2 0 .4 0 .6-.1.9-.2 1.7-1 1.9-1.9l4.2-19.9c0-.2.1-.4.1-.5-.2-1.5-1.3-2.6-2.7-2.6z"/></g></svg></g><!--ITEM: Illustration component 8--><g transform="translate(321.59999999999997 864.0) rotate(0.0 1141.8 420.0)  scale(1.453962008270698 1.452244495734032)"><svg width="1570.605" height="578.415" viewBox="0.0 0.0 1570.605 578.415"><g fill="rgb(35,35,35)"><path d="m1568.1 578.415a2.5 2.5 0 0 1 -2.481-2.218c-6.766-59.644-23.623-119.257-47.465-167.86a2.5 2.5 0 1 1 4.488-2.2c24.089 49.1 41.116 109.3 47.945 169.5a2.5 2.5 0 0 1 -2.487 2.782z"/><path d="m1286.495 138.054a2.486 2.486 0 0 1 -1.5-.5c-50.607-38.221-106.615-68.268-161.969-86.894a2.5 2.5 0 0 1 1.594-4.739c55.859 18.8 112.358 49.1 163.388 87.643a2.5 2.5 0 0 1 -1.508 4.5z"/><path d="m425.746 62.011a2.5 2.5 0 0 1 -1.083-4.755c58.495-28.034 117.178-46.217 184.682-57.224a2.5 2.5 0 0 1 .8 4.935c-67.016 10.933-125.269 28.976-183.321 56.798a2.487 2.487 0 0 1 -1.078.246z"/><path d="m2.5 546.42a2.5 2.5 0 0 1 -2.4-3.19 577.568 577.568 0 0 1 75.6-161.965 2.5 2.5 0 0 1 4.156 2.781 572.524 572.524 0 0 0 -74.956 160.563 2.5 2.5 0 0 1 -2.4 1.811z"/></g></svg></g></svg>