<svg xmlns="http://www.w3.org/2000/svg" version="1.1" viewBox="0 0 3000 3000" width="3000" height="3000">
<defs/><!--ITEM: Illustration component 1--><g transform="translate(421.2 787.1999999999999) rotate(0.0 453.5999999999999 969.6000000000001)  scale(1.1999999999999997 1.2001953288189848)"><svg width="756.0" height="1615.737" viewBox="0.0 0.0 756.0 1615.737"><path d="m755.889 1604.438-121.761-683.612c28.561-7.96 56.49-18.03 83.559-30.127 4.549-2.056 6.84-7.19 5.331-11.948-1.643-5.184-7.178-8.054-12.361-6.411l-.047.016c-27.723 8.767-55.904 16.017-84.416 21.716-28.41 5.726-57.101 9.959-85.954 12.682-7.198.648-14.391 1.25-21.588 1.733-7.2.464-14.396.824-21.59 1.079-14.4.546-28.76.609-43.078.19-14.339-.38-28.582-1.316-42.73-2.807-14.151-1.452-28.188-3.515-42.012-6.275-27.65-5.409-54.536-13.633-79.286-25.471-3.105-1.458-6.136-3.041-9.168-4.613l-4.491-2.448-4.561-2.583c-6.081-3.493-12.082-7.128-17.942-10.972-5.893-3.806-11.657-7.794-17.29-11.963-5.645-4.15-11.185-8.444-16.574-12.927-10.814-8.943-21.117-18.486-30.861-28.584-9.788-10.111-19.034-20.734-27.699-31.824-17.369-22.407-32.637-46.366-45.611-71.574-13.091-25.452-24.315-51.822-33.584-78.901-9.372-27.294-17.203-55.092-23.456-83.264-12.713-56.511-20.078-114.48-24.172-172.777-4.024-58.323-4.814-117.035-3.546-175.797.32-14.693.826-29.385 1.364-44.088s1.188-29.411 1.957-44.115 1.627-29.413 2.522-44.128 1.909-29.429 2.888-44.156c.345-5.192-3.413-9.755-8.575-10.41-5.389-.684-10.311 3.13-10.995 8.519-1.84 14.699-3.586 29.416-5.238 44.152-1.675 14.734-3.178 29.492-4.585 44.265s-2.725 29.564-3.893 44.373-2.139 29.64-3.013 44.484c-3.465 59.371-4.641 119.044-1.969 178.787 2.635 59.72 8.977 119.569 21.186 178.683 6.082 29.664 13.868 58.953 23.318 87.722 9.518 29.005 21.185 57.26 34.904 84.531 13.83 27.538 30.239 53.702 49.008 78.143 9.464 12.268 19.572 24.025 30.28 35.223 10.757 11.209 22.139 21.799 34.093 31.722 5.965 4.979 12.101 9.755 18.354 14.372 2.961 2.192 5.952 4.34 8.973 6.445l-141.262 708.931c-.771 5.196 2.678 10.081 7.832 11.093 5.329 1.047 10.498-2.425 11.545-7.755l163.258-677.277c3.197 1.647 6.397 3.278 9.644 4.791 14.237 6.73 28.945 12.415 44.007 17.009 7.484 2.26 15.01 4.292 22.569 6.112s15.153 3.373 22.759 4.774c15.228 2.707 30.518 4.616 45.803 5.851 15.289 1.211 30.573 1.701 45.812 1.671 15.244-.078 30.434-.774 45.561-1.909 15.123-1.229 30.178-2.897 45.139-5.09 15.304-2.253 30.5-4.993 45.588-8.22l146.688 666.363c1.035 5.139 5.92 8.563 11.104 7.782 5.372-.808 9.07-5.817 8.262-11.188z" fill="#9b3c82"/></svg></g><!--ITEM: Illustration component 2--><g transform="translate(506.4 306.0) rotate(0.0 822.0 1210.2)  scale(1.1965770907891948 1.1973849871747622)"><svg width="1373.919" height="2021.405" viewBox="0.0 0.0 1373.919 2021.405"><clipPath id="a-i2"><path d="m459.938 1624.671s-99.428 70.193-163.126 120.701l197.754 221.107c10.652 11.989 22.959 22.398 36.549 30.913 14.301 8.894 32.018 16.946 47.49 15.225 0 0 42.562-99.543-21.126-210.736" fill="#000000"/></clipPath><clipPath id="b-i2"><path d="m1002.125 1817.105s-13.092 121.003-17.332 202.184l296.629-2.128c16.037-.063 31.983-2.412 47.357-6.975 16.124-4.848 33.884-12.811 42.825-25.556 0 0-46.525-97.753-172.05-123.51" fill="#000000"/></clipPath><path d="m583.131 432.481c2.56 4.875-.923 423.117-4.038 442.613-48.169 136.234-224.872 128.773-236.961-116.278-15.715-318.562 170.811-459.988 240.999-326.335z" fill="#f4ada2"/><path d="m973.386 839.722c-5.54 9.12-36.53-13.24-64.84-43.55-13.31-14.25-26.02-30.25-35.22-45.57l48.88-8.28 22.56-3.82s4.6 10.52 10.2 24.85v.01c1.04 2.66 2.12 5.46 3.21 8.35.48 1.3.98 2.62 1.47 3.96.19.51.38 1.01.56 1.52 3.94 10.74 7.84 22.29 10.62 32.62l1.58 6.31c2.53 10.87 3.36 19.679.98 23.6z" fill="#f4ada2"/><path d="m997.416 814.911c-.33 2.57-1.16 4.45-2.61 5.47-4.83 3.4-11.66.54-19.66-6.48v-.01c-1.4-1.23-2.85-2.6-4.32-4.08-1.68-1.69-3.4-3.53-5.16-5.51-8.07-9.1-16.88-21.08-25.75-34.3-5.94-8.84-11.91-18.23-17.71-27.68-2.09-3.39-4.15-6.78-6.18-10.16l47.24-16.4s8.61 17.74 17.19 38.67c.84 2.04 1.68 4.11 2.51 6.2 4.93 12.41 9.57 25.41 12.25 36.18 1.15 4.62 1.94 8.82 2.23 12.39.18 2.15.18 4.071-.03 5.71z" fill="#f4ada2"/><path d="m1057.226 814.432c-2.18 17.56-12.1 12.09-28.2-11.32-3.38-4.92-7.04-10.63-10.95-17.08 3.51 6.67 6.02 12.74 7.54 17.97v.01c5.72 19.67-2.5 27.36-23.48 9.43-1.5-1.27-3.06-2.68-4.69-4.24-.91-.85-1.83-1.75-2.78-2.7-5.35-5.34-11.34-12.06-17.95-20.3-1.64-1.91-4.04-3.83-7.09-5.68-.01-.02-.02-.02-.03-.02-2.36-1.43-5.12-2.82-8.23-4.12-.56-.24-1.14-.48-1.72-.71-1.22-.48-2.49-.95-3.81-1.41h-.01c-4.74-1.64-10.07-3.09-15.91-4.26-9.34-1.87-19.94-3-31.34-3-4.86 0-1.45 15.37-.03 29.17.95 9.22-1.561 11.675-5.421 14.466-62.15 44.88-183.239 100.305-240.039 110.825-45.53 8.42-85.02 11.82-119.26 11.19-103.68-1.89-159.29-40.67-188.94-88.87-13.52-21.96-21.65-45.88-26.49-69.16-10.86-52.3-1.3-107.72-.62-110.32 1.05.45 6.65 1.32 15.54 2.49 52.16 6.85 217.47 23.89 239.49 26.15 1.59.16 2.43.25 2.43.25l-2.62 17.29v.02l-2.23 14.66s.71-.08 2.06-.22c27.52-3.02 322.3-35.1 368.64-31.45 54 4.26 78.6 36.04 88.87 52.4 8.36 13.339 20.29 44.309 17.27 68.539z" fill="#f4ada2"/><path d="m515.739 763.994c.071 1.096.964 1.879 2.06 1.807.451-.029.894-.188 1.195-.531.245-.21 24.092-22.606 60.426-32.16.129-.008 7.572-1.534 7.697-1.607-5.994.391-6.988-.956-12.136-.491-32.652 7.397-57.842 30.625-58.693 31.458-.363.411-.583 1.008-.549 1.524z" fill="#973c80"/><path d="m997.446 809.202c.18 2.15.18 4.07-.03 5.71-.08-.16-.14-.33-.18-.51-.57-2.54-1.42-5.2-2.57-7.9-4.17-9.82-12.28-20.07-25.04-25.98-.01-.02-.02-.02-.03-.02-2.47-1.15-5.12-2.14-7.94-2.92-.48-.14-.96-.27-1.45-.39-.78-.19-1.57-.37-2.38-.54-.87-.18-1.54-.78-1.83-1.55v-.01c-.11-.26-.16-.54-.16-.83h-.01v-.05c0-.17.01-.34.05-.51.23-1.13 1.19-1.93 2.3-1.99.21-.02.43 0 .65.04.56.11 1.11.23 1.65.36 16.67 3.89 27.99 13.89 34.74 24.7 3.46 5.52 5.72 11.26 6.9 16.5.01.04.02.09.02.13-1.5-1.27-3.06-2.68-4.69-4.24z" fill="#9b3c82"/><path d="m1029.026 803.111c-3.38-4.92-7.04-10.63-10.95-17.08 3.51 6.67 6.02 12.74 7.54 17.97-.44-.25-.81-.65-1.04-1.16-10.51-24.19-28.06-36.75-41.61-42.21-4.22-1.7-8.05-2.71-11.17-3.17-5.69-.83-9.35.04-10.33 1.21-1 1.18-2.52 4.52-.99 13.44.23 1.3.52 2.72.89 4.27.09.39.19.79.29 1.2.79 3.15 1.88 6.81 3.35 11.05 4.33 12.49 9.85 23.8 9.91 23.91.21.44.29.9.23 1.35-1.4-1.23-2.85-2.6-4.32-4.08l1.58 6.31c-.83-.08-1.59-.58-1.98-1.38-.63-1.27-2.51-5.17-4.76-10.44-3.42-8.02-7.69-19.24-9.67-29.19 0-.01 0-.01 0-.02-.06-.28-.11-.55-.16-.83 0-.02-.01-.03-.01-.05-.73-3.93-1.09-7.64-.86-10.85v-.01c.23-3.25 1.05-5.98 2.68-7.91 2.48-2.93 7.76-3.97 14.87-2.92 2.32.34 5 .96 7.94 1.91 14.97 4.83 36.44 18.21 48.71 46.42.33.76.25 1.591-.14 2.26z" fill="#9b3c82"/><path d="m381.822 1407.19c-75.067 24.999 35.422 173.312 247.209 217.402-.002-.001-89.363-256.015-247.209-217.402z" fill="#5b2448"/><path d="m717.866 1606.72c-8.855 7.83-28.988 28.166-47.835 45.755-9.366 8.741-19.491 17.409-25.621 22.326-44.071 35.547-97.258 75.905-131.753 100.419-.192.106-79.865-19.27-92.975-34.665-9.409-11.079 8.183-80.682 11.252-86.901.298-.268.524-.591.826-.86 20.616-21.776 39.959-43.596 57.353-64.487 4.888-5.923 9.666-11.684 14.307-17.421 8.868-11.042 68.802-75.431 77.685-89.791z" fill="#fcb6b1"/><path d="m628.986 1687.151c-8.26 6.66-16.24 13.1-23.98 19.33-2.61 2.1-5.19 4.17-7.74 6.21-30.37 24.39-57.18 45.49-83.04 63.87-.2.1-34.3-5.3-34.92-5.4l-59.49-30.63c-1.95-2.3-2.74-7.11-2.74-13.35 0-23.86 11.56-68.62 13.99-73.55.3-.27-.05-2.89.25-3.16 11.4-12.04 29.87-32.39 45.44-49.7 2.25-2.51 4.45-4.96 6.55-7.3 9.64-10.75 17.36-19.43 20.24-22.74z" fill="#66b0f0"/><path d="m605.006 1706.482c-2.61 2.1-5.19 4.17-7.74 6.21l-120.51-111.92c2.25-2.51 4.45-4.96 6.55-7.3z" fill="#fff"/><path d="m457.498 1621.784s-96.746 72.793-160.583 123.127l206.416 232.06s42.196 39.468 74.649 35.948c0 0 43.374-98.174-25.148-221.021-31.76-56.945-88.724-65.613-82.029-127.653 3.274-30.318-13.305-42.461-13.305-42.461z" fill="#fff"/><path d="m573.731 2015.646c-12.63 0-27.58-5.354-44.527-15.96-13.78-8.687-26.23-19.275-37.012-31.476l-197.145-221.637c-.458-.515-.683-1.195-.622-1.881s.401-1.317.942-1.744c63.123-49.771 160.22-123.563 161.192-124.303 1.099-.835 2.668-.621 3.503.479.836 1.099.622 2.667-.478 3.503-.963.731-95.921 72.898-159.038 122.606l195.386 219.66c10.473 11.851 22.56 22.13 35.93 30.559 17.091 10.694 32.402 15.891 44.408 15.109 2.527-6.114 12.743-33.14 13.585-72.352.561-26.146-3.094-52.522-10.863-78.397-9.717-32.362-25.937-64.039-48.21-94.15-.821-1.11-.587-2.676.523-3.497 1.107-.821 2.675-.586 3.496.523 22.656 30.628 39.152 62.878 49.03 95.854 7.911 26.41 11.617 53.337 11.017 80.034-1.025 45.526-14.048 74.196-14.602 75.395-.368.797-1.128 1.342-2 1.437-1.469.158-2.975.238-4.515.238z" fill="#5b2448"/><g clip-path="url(#a-i2)" fill="#5b2448"><path d="m594.61 2000.297c-.172 0-.346-.018-.52-.054-94.913-20.043-125.005-99.127-139.466-137.133-3.261-8.57-5.837-15.339-8.021-18.428-3.958-5.597-9.076-9.074-14.495-12.755-6.889-4.68-14.012-9.519-19.643-19.05-6.943-11.749-7.845-23.572-8.717-35.007-.874-11.462-1.7-22.289-8.379-32.717-19.529-30.494-62.118-34.34-62.546-34.375-1.375-.113-2.399-1.32-2.287-2.696.113-1.376 1.311-2.402 2.694-2.288 1.846.15 45.466 4.053 66.35 36.663 7.357 11.488 8.271 23.458 9.153 35.033.867 11.364 1.686 22.097 8.036 32.844 5.062 8.567 11.714 13.087 18.147 17.458 5.549 3.77 11.287 7.668 15.768 14.004 2.55 3.606 5.093 10.288 8.611 19.537 14.146 37.178 43.583 114.54 135.826 134.019 1.351.286 2.215 1.612 1.93 2.963-.247 1.175-1.285 1.982-2.441 1.982z"/><path d="m468.364 1736.742c-.626 0-1.252-.233-1.737-.703-10.459-10.11-23.18-11.595-35.482-13.031-3.697-.431-7.189-.839-10.572-1.477-27.052-5.103-36.081-19.169-43.337-30.472-1.378-2.147-2.68-4.174-4.022-6.001-.817-1.112-.578-2.677.534-3.495 1.114-.817 2.678-.578 3.495.534 1.436 1.954 2.778 4.046 4.2 6.261 7.089 11.041 15.122 23.556 40.057 28.26 3.21.604 6.617 1.002 10.226 1.423 12.517 1.461 26.703 3.117 38.377 14.402.993.959 1.02 2.542.061 3.535-.494.509-1.147.764-1.8.764z"/></g><path d="m371.754 1794.436c-2.372 0-4.958-.453-7.692-1.367-6.545-2.188-13.3-6.815-19.021-13.029-12.369-13.436-15.893-29.637-8.021-36.885 3.959-3.646 10.024-4.354 17.077-1.996 6.545 2.188 13.3 6.815 19.021 13.029 12.369 13.435 15.893 29.636 8.021 36.884-2.424 2.233-5.639 3.364-9.385 3.364zm-25.335-49.646c-2.482 0-4.536.685-6.012 2.043-5.003 4.606-2.856 17.688 8.312 29.819 5.159 5.603 11.171 9.749 16.928 11.673 5.251 1.755 9.548 1.423 12.105-.932 5.003-4.607 2.857-17.688-8.312-29.819-5.159-5.603-11.171-9.749-16.928-11.674-2.221-.741-4.272-1.11-6.093-1.11zm-7.705.205h.01z" fill="#5b2448"/><path d="m571.828 1821.756c-1.195 0-2.407-.287-3.535-.891-41.536-22.253-78.676-9.462-79.046-9.332-3.895 1.388-8.186-.635-9.584-4.525-1.398-3.889.604-8.173 4.488-9.583 1.757-.638 43.564-15.318 91.226 10.218 3.651 1.956 5.025 6.501 3.069 10.153-1.352 2.524-3.942 3.959-6.618 3.96z" fill="#ffcf2d"/><path d="m586.593 1859.376c-1.383 0-2.781-.382-4.033-1.182-37.873-24.214-78.281-12.607-78.685-12.486-3.969 1.181-8.146-1.081-9.326-5.051-1.181-3.97 1.08-8.146 5.051-9.327 1.916-.569 47.451-13.641 91.04 14.227 3.49 2.231 4.51 6.869 2.279 10.359-1.431 2.237-3.853 3.46-6.326 3.46z" fill="#ffcf2d"/><path d="m594.183 1896.166c-1.627 0-3.265-.527-4.641-1.613-27.908-22.021-65.275-13.299-65.649-13.209-4.023.975-8.077-1.488-9.06-5.505-.982-4.018 1.465-8.07 5.48-9.061 1.81-.448 44.752-10.645 78.52 16 3.252 2.565 3.809 7.282 1.242 10.534-1.479 1.875-3.675 2.854-5.892 2.854z" fill="#ffcf2d"/><path d="m670.031 1652.476s-82.553-36.858-135.113-117.047l41.962-47.558z" fill="#9b3c82"/><path d="m532.408 161.537c-161.278 111.269-170.467 42.661-273.213 50.624-98.438 7.628-173.519 91.834-140.642 219.244 41.293 160.033-41.183 144.358-95.588 209.94-82.215 99.101 74.491 255.828 183.695 159.86 192.66-169.307 413.651-640.77 413.651-640.77s-75.607-6.447-87.903 1.102z" fill="#5b2448"/><path d="m251.292 982.841c-129.983 10.3-213.265-76.844-172.451-105.938 39.159-19.441 165.281 76.154 172.451 105.938z" fill="#5b2448"/><path d="m670.026 1652.472c-72.46-57.88-92.26-124.92-138.98-171.38-63.07-62.72-150.71-73.32-150.71-73.32 65.03-31.46 121.41-57.99 159.08-75.55 31.05-14.46 49.39-22.83 49.39-22.83-4.01.64-8.08 1.28-12.23 1.9-143.57 21.71-367.27 32.83-455.97-126.94-89.26-160.78 57.51-302.18 57.51-302.18l185.93 51.85s43.05-1.25 127.43 47.76c128.89-10.89 349.61-23.38 430.87 79.99 163.14 207.54-173.27 521.66-252.32 590.7z" fill="#f94f46"/><path d="m688.356 1223.131c-49.35 59.64-96.42 87.88-127.22 101.08-7.95 3.41-15.23 6.01-21.72 8.01 31.05-14.46 49.39-22.83 49.39-22.83-4.01.64-8.08 1.28-12.23 1.9 29.23-15.39 67.77-42.81 107.93-91.35.88-1.07 2.46-1.21 3.52-.33 1.06.881 1.21 2.451.33 3.52z" fill="#fcb6b1"/><path d="m243.317 1021.839c-.602 0-1.204-.216-1.684-.653-1.021-.93-1.093-2.511-.163-3.532 17.22-18.883 43.428-28.41 62.383-33.078 20.422-5.029 36.579-5.64 37.257-5.664 1.361-.052 2.537 1.032 2.585 2.411.049 1.38-1.031 2.537-2.411 2.586-.643.022-64.703 2.663-96.118 37.113-.494.542-1.171.817-1.849.817z" fill="#fcb6b1"/><path d="m816.139 1706.731c-10.018 32.104 90.618 102.342 337.448-63.163 0 0-314.735-34.131-337.448 63.163z" fill="#5b2448"/><path d="m1157.407 1601.646c.407 17.692 2.292 79.62 1.705 103.284-1.263 56.606-4.731 123.282-8.248 165.454-.043.216-7.476 10.507-23.163 21.857-.533.34-1.041.719-1.52 1.132-17.988 12.595-41.558 25.612-61.778 25.7-14.536.044-56.376-58.295-59.148-64.651-.01-.405-.115-.783-.124-1.187-3.343-29.8-7.542-58.651-12.286-85.42-1.373-7.557-2.695-14.923-4.085-22.169-2.717-13.899-23.911-156.024-29.154-172.074z" fill="#fcb6b1"/><path d="m1158.656 1724.672c-.24 10.61-.47 20.87-.73 30.81-.09 3.34-.17 6.65-.26 9.92-1.08 38.95-2.5 73.06-5.14 104.67-.04.22-9.07 10.7-24.76 22.05-.53.34-1.04.72-1.52 1.13l-61.77 25.7h-.01c-14.56 0-56.37-58.3-59.14-64.65-.01-.41-2.24-1.83-2.25-2.23-1.85-16.49-5.49-43.73-8.68-66.78-.46-3.34-.92-6.6-1.35-9.72-2-14.25-3.65-25.72-4.31-30.05z" fill="#66b0f0"/><path d="m1157.926 1755.482-164.88 20.09c.43 3.12.89 6.38 1.35 9.72l163.27-19.89z" fill="#fff"/><path d="m1158.594 1649.209s-37.227 36.615-177.755 47.181l-15.513-94.883z" fill="#9b3c82"/><path d="m998.347 1817.026s-9.37 120.714-13.831 201.88l310.576-1.379s57.509-5.553 76.329-32.224c0 0-44.96-97.457-182.425-127.3-63.72-13.832-107.891 23.166-150.002-22.882-20.578-22.503-40.647-18.095-40.647-18.095z" fill="#fff"/><path d="m984.513 2021.405c-.685 0-1.34-.281-1.812-.777-.475-.499-.723-1.172-.685-1.86 4.411-80.263 13.266-201.896 13.354-203.115.101-1.377 1.321-2.419 2.675-2.312 1.377.1 2.412 1.298 2.312 2.675-.088 1.206-8.747 120.161-13.202 200.377l293.981-1.305c15.814-.019 31.519-2.289 46.683-6.745 19.323-5.749 33.352-13.794 40.699-23.321-2.915-5.941-16.434-31.476-45.288-58.036-19.241-17.71-41.444-32.411-65.991-43.694-30.7-14.112-65.188-22.891-102.503-26.095-1.376-.118-2.396-1.329-2.277-2.705.118-1.376 1.317-2.396 2.705-2.277 37.956 3.259 73.056 12.21 104.323 26.607 25.042 11.53 47.691 26.556 67.319 44.661 33.473 30.875 46.367 59.603 46.899 60.81.354.803.262 1.733-.244 2.45-7.845 11.117-22.725 19.997-44.225 26.394-15.629 4.593-31.805 6.93-48.087 6.95l-296.627 1.317c-.001.001-.005.001-.009.001z" fill="#5b2448"/><g clip-path="url(#b-i2)" fill="#5b2448"><path d="m1270.755 1999.195c-38.84 0-72.306-12.557-93.282-20.427-8.585-3.221-15.366-5.766-19.127-6.169-6.827-.735-12.811.808-19.154 2.438-8.065 2.073-16.407 4.216-27.281 2.137-13.403-2.561-22.868-9.704-32.021-16.61-9.177-6.925-17.844-13.465-30.083-15.351-35.787-5.512-66.839 23.887-67.147 24.184-.997.958-2.578.926-3.535-.067-.957-.994-.928-2.576.065-3.533 1.335-1.286 33.105-31.422 71.379-25.525 13.483 2.077 23.066 9.308 32.333 16.301 9.097 6.864 17.688 13.348 29.949 15.69 9.774 1.87 17.565-.132 25.098-2.068 6.498-1.67 13.217-3.397 20.932-2.567 4.392.472 11.085 2.983 20.35 6.459 37.244 13.975 114.74 43.051 190.352-13.261 1.105-.825 2.674-.597 3.498.512.825 1.107.596 2.673-.512 3.498-34.937 26.017-70.16 34.359-101.814 34.359z"/><path d="m1012.218 1924.507c-5.435 0-10.402-.76-14.984-1.461-2.521-.386-4.902-.75-7.16-.951-1.375-.123-2.391-1.336-2.269-2.712.123-1.375 1.335-2.397 2.712-2.269 2.415.215 4.872.591 7.474.989 12.97 1.985 27.672 4.233 47.688-11.359 2.579-2.01 5.134-4.305 7.838-6.735 9.371-8.421 19.992-17.966 36.175-19.259 1.359-.104 2.581.916 2.691 2.293.109 1.376-.917 2.581-2.293 2.691-14.497 1.159-24.021 9.717-33.231 17.994-2.771 2.49-5.389 4.843-8.107 6.96-14.223 11.08-26.219 13.819-36.534 13.819z"/></g><path d="m1041.43 2006.046c-7.981 0-15.51-1.652-21.319-4.695-6.589-3.451-10.281-8.314-10.396-13.694-.117-5.38 3.362-10.398 9.796-14.129 5.969-3.462 13.906-5.469 22.352-5.652 8.426-.181 16.461 1.48 22.574 4.681 6.589 3.45 10.281 8.313 10.396 13.694.117 5.38-3.362 10.398-9.796 14.129-5.969 3.462-13.907 5.47-22.352 5.652-.419.009-.838.014-1.255.014zm1.697-33.184c-.385 0-.771.004-1.158.013-7.614.164-14.7 1.932-19.951 4.978-4.786 2.776-7.381 6.22-7.306 9.696.075 3.477 2.816 6.806 7.718 9.373 5.378 2.816 12.523 4.272 20.147 4.112 7.614-.165 14.699-1.933 19.95-4.979 4.787-2.776 7.382-6.22 7.307-9.696-.075-3.477-2.816-6.805-7.718-9.372-5.104-2.673-11.809-4.125-18.989-4.125zm-1.212-2.487h.01z" fill="#5b2448"/><path d="m1154.702 1923.414c-.918 0-1.851-.17-2.755-.529-3.843-1.523-5.732-5.857-4.221-9.704.684-1.739 17.317-42.808 67.989-61.674 3.883-1.443 8.201.53 9.646 4.412s-.529 8.2-4.411 9.646c-44.161 16.442-59.125 52.758-59.271 53.124-1.174 2.933-3.997 4.725-6.977 4.725z" fill="#ffcf2d"/><path d="m1190.176 1934.667c-1.055 0-2.125-.224-3.146-.696-3.759-1.74-5.396-6.197-3.656-9.956.84-1.815 21.146-44.617 70.874-58.886 3.977-1.142 8.135 1.159 9.277 5.141 1.143 3.981-1.159 8.135-5.141 9.277-43.206 12.397-61.221 50.386-61.397 50.768-1.267 2.739-3.979 4.352-6.811 4.352z" fill="#ffcf2d"/><path d="m1227.827 1948.534c-1.172 0-2.36-.275-3.47-.857-3.663-1.919-5.085-6.435-3.173-10.103.862-1.655 21.609-40.609 63.927-48.32 4.076-.746 7.98 1.959 8.724 6.034.742 4.075-1.959 7.98-6.034 8.723-34.974 6.373-53.144 40.17-53.322 40.511-1.345 2.552-3.954 4.012-6.652 4.012z" fill="#ffcf2d"/><path d="m1158.596 1649.212s-48.28 19.05-146.99 12.17c-130.66-9.12-183.67 11.86-195.02 43.27.86-2.97 30.2-105.27 26.22-231.12-.03-.85-.06-1.7-.09-2.55-.04-1.21-.08-2.42-.13-3.63-1.76-43.84-7.63-90.35-20.2-136.39-7.38-27.07-53.63-106.5-91-160.92-53.91-78.54-132.74-160.21-165.97-193.45-9.85-9.85-15.69-15.45-15.69-15.45s163.87-.5 263.26 10.72c.83.1 1.66.19 2.48.29 4.78.76 9.49 1.57 14.15 2.44 248 45.74 330.1 230.809 328.98 674.62z" fill="#f94f46"/><path d="m974.646 1278.062c-24.35 59.22-68.13 124.71-130.11 194.64-.46.51-1.09.8-1.73.83-.05.01-.09.01-.14.01-.54 0-1.08-.18-1.53-.53-.05-.03-.09-.06-.13-.1-1.03-.92-1.12-2.5-.21-3.53.6-.68 1.2-1.35 1.79-2.03 7.79-8.83 15.28-17.58 22.48-26.25 48.88-58.91 84.12-114.27 104.96-164.94 22.8-55.46 28.55-105.71 17.07-149.36-8.94-34.01-28.44-64.3-57.97-90.02-28.79-25.08-67.3-46.03-114.48-62.26-1.13-.39-1.8-1.51-1.66-2.66.83.1 1.66.19 2.48.29 4.78.76 9.49 1.57 14.15 2.44 41.76 15.71 76.29 35.33 102.79 58.42 30.3 26.39 50.33 57.52 59.53 92.52 11.76 44.73 5.94 96.05-17.29 152.53z" fill="#fcb6b1"/><path d="m793.936 165.672c-.68 4.56-1.56 9.05-2.59 13.52-.01.05-.03.11-.04.15-1.37 6.04-2.98 12-4.53 17.99-1.11 4.28-2.19 8.57-3.15 12.9-1.25 5.64-2.86 12.46-2.41 18.32.45 5.78 3.46 10.85 6.65 15.55 7.02 9.91-8.7 17.41-18.27 17.5-9.97 20.05-42.95 85.68-80.74 86.29-15.4.25-46.33-21.35-69.16-48.6-5.97 2.32-15.75 16.97-18.98 38.21-.98 5.25-25.95 85.29-15.69 116.16-87.07-24.27-121.32-46.58-144.88-106.76 65.38-52.45 90.37-126.48 97.56-158.87.69-3.09 1.21-5.8 1.59-8.07.01-.04.02-.08.02-.11.03-.18.06-.36.09-.53l5-47.26c-.06-.39-.11-.78-.16-1.17-10.07-76.76 65.66-150.09 156.33-124.72.99.28 2 .58 3.01.88.07.02.14.04.2.05 15.71 4.58 30.52 11.81 43.8 21.35 29.64 21.76 46.35 55.52 48.7 91.94.78 15.14-.01 30.31-2.35 45.28z" fill="#f4ada2"/><path d="m787.016 196.277c-95.762-.743-172.77-34.74-172.77-34.74l124.18 11.599 49.654 4.674 3.51.334-.033.152c-1.385 6.022-2.991 11.988-4.541 17.981z" fill="#9b3c82"/><ellipse cx="660.547" cy="226.986" fill="#e57281" opacity=".52" rx="29.303" ry="29.303" transform="matrix(.2161 -.9764 .9764 .2161 296.1639 822.8635)"/><path d="m600.713 337.499c3.309-9.556 10.37-31.698 18.986-38.207-7.648-10.572-11.462-13.991-19.7-26.914-4.177-6.554-11.102-8.333-16.428-3.809-5.992 7.22-14.367 30.878 17.142 68.93z" fill="#5b2448"/><path d="m727.095 176.374c-16.158-.208-28.336 9.667-27.435 17.429s14.774 13.464 30.697 10.691c16.362-2.848 28.574-10.462 27.434-17.434-1.183-7.223-14.663-10.48-30.696-10.686z" fill="#5b2448"/><path d="m725.341 286.973c-3.027-.233-5.938-1.268-8.432-3-2.526-1.642-4.645-3.838-6.196-6.421-.735-1.285-1.302-2.66-1.685-4.09-1.251-4.4-.741-9.113 1.422-13.144l.065-.12c.641-1.178.205-2.653-.973-3.293-.924-.503-2.068-.353-2.831.371-3.116 3.05-5.012 7.132-5.332 11.48-.193 2.167-.051 4.351.419 6.475.49 2.12 1.279 4.16 2.344 6.059 2.214 3.732 5.45 6.751 9.326 8.703 1.901.985 3.945 1.667 6.056 2.022 2.167.376 4.389.279 6.514-.287 1.289-.367 2.037-1.71 1.669-3-.284-.998-1.172-1.705-2.209-1.759z" fill="#9b3c82"/><path d="m725.297 214.237c6.839-.901 23.295-2.684 38.911-9.165 2.175-.906 4.673.122 5.579 2.297 0 0 0 .001.001.002l.014.043c2.309 5.666 4.412 15.478-6.793 18.527-13.77 3.746-35.051-2.14-39.279-8.332-.663-1.009-.383-2.365.627-3.028.282-.185.603-.303.937-.343z" fill="#5b2448"/><path d="m362.923 155.761c10.949 45.632 179.091 28.009 214.729 20.941 1.389-.269 1.694 1.283 2.701.997l-26.073-99.342s-.325.062-.843.146c-1.928.338-6.539 1.161-6.955 1.235-.012-.003-.024-.002-.034.004-1.067.146-8.122 1.153-18.809 2.985-1.719.296-3.518.597-5.425.941-48.864 8.689-168.549 33.516-159.291 72.093z" fill="#f94f46"/><path d="m522.213 83.67c-3.351 65.19 39.406 93.856 54.413 100.375 1.388-.27 2.607-.545 3.618-.831-26.123-29.913-26.857-94.287-26.804-104.708-1.928.338-6.539 1.161-6.955 1.235-.012-.003-.024-.001-.034.004-1.065.152-8.121 1.154-18.809 2.985-1.724.296-3.523.602-5.429.94z" fill="#5b2448"/><path d="m791.548 178.287c-5.078.646-12.244 1.304-18.179 1.568-.063.016-.128.021-.192.015-9.701.446-21.274.515-33.822.141-1.058-.031-2.005-.065-2.86-.094-.023.005-.046.005-.069 0-41.021-1.375-92.829-7.198-122.186-18.381-9.833-3.751-16.897-7.014-24.094-9.936-.882-.353-1.748-.708-2.583-1.051-4.453-1.813-8.423-3.477-11.982-5.015-.496-.213-.979-.421-1.466-.626l-1.048-.454c-.614-.27-1.212-.53-1.797-.788-1.325-.579-2.587-1.136-3.788-1.671-.456-.211-.919-.41-1.368-.614-4.583-2.067-8.256-3.821-11.342-5.318-.449-.218-.891-.429-1.316-.641s-.828-.422-1.237-.622-.792-.397-1.17-.581-.754-.377-1.122-.557c-.542-.276-1.059-.548-1.566-.798-.008.003-.014-.003-.016-.014-.271-.131-.533-.27-.798-.398-1.041-.519-1.995-1.001-2.924-1.459-10.98-77.176 65.054-151.375 156.176-125.879 1.005.286 2.019.577 3.026.877.065.025.136.04.2.062 15.706 4.575 30.517 11.795 43.796 21.35 29.647 21.756 46.362 55.513 48.701 91.931.165 2.548.267 5.092.305 7.634.148 12.6-.74 25.191-2.655 37.645-.682 4.603-1.59 9.156-2.624 13.674z" fill="#f94f46"/><path d="m614.246 161.537s-13.62-35.903-47.349-39.308c-31.817-3.211-46.74 43.959-10.366 86.691 5.918 6.951 17.157 17.434 27.292 23.176z" fill="#f4ada2"/><path d="m573.196 223.562c-.2.27-.45.5-.72.66-.4.24-.85.37-1.31.37-.51 0-1.02-.16-1.46-.48-16.7-12.1-26.56-26.12-32-36.08.69-3.09 1.21-5.8 1.59-8.07.08.16.16.33.24.5 0 .01 0 .02.01.02 4.31 9.18 14.12 25.83 33.09 39.58 1.12.809 1.37 2.38.56 3.5z" fill="#9b3c82"/><path d="m791.548 178.287c-5.078.646-12.244 1.304-18.179 1.568-.063.016-.128.021-.192.015-9.701.446-21.274.515-33.822.141-1.058-.031-2.005-.065-2.86-.094-1.459-11.913 3.235-31.973 14.355-42.52 11.12-10.546 26.839-14.685 45.961-10.434.148 12.6-.74 25.191-2.654 37.645-.667 4.608-1.575 9.161-2.609 13.679z" fill="#5b2448"/><path d="m590.448 196.447c-1.301 0-2.399-1.008-2.491-2.326-2.559-36.708-27.001-44.074-28.04-44.37-1.325-.377-2.1-1.756-1.728-3.082.373-1.326 1.741-2.101 3.071-1.734 1.178.327 28.87 8.463 31.685 48.838.096 1.377-.943 2.572-2.32 2.668-.06.004-.119.006-.177.006z" fill="#9b3c82"/><path d="m510.697 377.696s21.971 46.063 72.434 53.203c0 0 37.181 411.226 48.022 520.538-52.706 8.601-104.984 37.179-295.816 30.664-143.737-4.907-211.821-124.016-256.495-106.779 0 0 85.531-58.96 151.837-287.997z" fill="#21a0aa"/><path d="m275.578 754.785c-4.45 0-18.371-11.077-66.922-53.213-13.958-12.114-26.013-22.576-30.231-25.644-75.192-54.682-88.801-85.823-86.976-102.318.905-8.185 5.915-14.645 14.106-18.189 9.819-4.249 44.36-5.925 45.826-5.994l.547-.026 49.373 19.962.43.676c.241.378 24.339 38.328 46.451 78.968 30.479 56.015 42.293 88.945 36.12 100.67-1.176 2.233-3.628 4.932-8.634 5.107-.03.001-.06.001-.09.001zm-124.506-200.338c-10.153.503-36.208 2.394-43.53 5.562-4.579 1.981-10.227 6.045-11.123 14.15-1.375 12.426 7.833 41.646 84.947 97.725 4.392 3.195 16.521 13.722 30.567 25.911 21.814 18.932 58.251 50.554 63.711 51.984 2.096-.105 3.405-.86 4.233-2.433 9.506-18.055-43.631-113.644-81.936-173.95z" fill="#21a0aa"/><path d="m107.209 557.494c-1.28.442-2.466 1.134-3.499 2.009-28.769 24.353 22.893 73.247 98.033 129.117 25.05 18.626 60.834 22.677 94.76 37.914.003-.001-134.521-187.946-189.294-169.04z" fill="#5b2448"/><path d="m493.801 379.277c46.08 118.589-34.182 376.926-68.732 501.084-63.218 129.937-237.954 102.606-222.344-142.246 20.292-318.303 236.4-499.549 291.076-358.838z" fill="#f4ada2"/><path d="m901.436 859.252s-.01-.01 0-.02c-1.41-2.28-2.85-4.7-4.33-7.29-.09 1.26-.25 2.52-.47 3.77v.02c-3.22 18-19.5 33.3-29.13 10.2-1.14-2.71-2.18-5.96-3.1-9.8-.42 1.61-.89 3.1-1.4 4.47-6.83 18.33-21.12 16.12-28.63.21-.99-2.09-1.87-4.43-2.59-6.99-.72.77-1.75 1.66-3.07 2.66-32.36 24.4-239.18 114.69-313.06 141.24-199.02 71.49-292.94-61.46-308.26-153.34-10.77-64.61-4.69-98.17-4.48-110.28 7.71 3.12 255.25 34.99 255.25 34.99l-5.58 19.11-1.51 5.15s2.02-.38 5.78-1.08h.02c18.83-3.51 81.12-14.98 150.96-26.32 1.25-.2 2.51-.41 3.76-.61 13.23-2.14 26.71-4.26 40.2-6.3.09-.01.18-.03.28-.04 38-5.72 76.05-10.76 108.83-13.45.06-.01.13-.02.19-.02 37.94-3.11 68.78-3.09 84.23 2.58 4.64 1.7 9.1 3.62 13.37 5.73 12.24 6.02 22.95 13.56 32.22 21.99 13.15 11.93 23.41 25.64 30.99 39.28.12.21.23.42.35.63 29.66 53.879 17.78 106.18-20.82 43.51z" fill="#f4ada2"/><g fill="#9b3c82"><path d="m456.856 792.272c-.02.01-.03.02-.05.02-38.51 9.55-70.75 25.82-71.07 25.98-.36.18-.75.27-1.13.27-.91 0-1.79-.5-2.23-1.37-.62-1.23-.13-2.73 1.1-3.36.31-.16 31.37-15.84 69.11-25.61l-1.51 5.15c0-.001 2.02-.38 5.78-1.08z"/><path d="m902.026 850.452c-.23 3.13-.45 6.08-.59 8.78-1.41-2.28-2.85-4.7-4.33-7.29-.09 1.26-.25 2.52-.47 3.77.12-1.8.26-3.68.4-5.63 2.14-28.99 5.33-72.44-34.02-93.04-.22-.12-.44-.24-.67-.34-.66-.35-1.34-.68-2.03-1-.08-.04-.16-.08-.24-.12-.74-.35-1.22-1-1.38-1.74-.11-.51-.06-1.07.18-1.59.55-1.16 1.86-1.71 3.06-1.31h.01c.08.04.17.07.26.11.77.36 1.52.73 2.26 1.11.31.15.62.31.92.47 11.67 6.12 19.85 14.16 25.53 23.2.22.33.43.68.63 1.02 14.17 23.469 11.98 53.299 10.48 73.6z"/><path d="m834.376 860.812c-.99-2.09-1.87-4.43-2.59-6.99-.72.77-1.75 1.66-3.07 2.66l-2.3-16.2c-.19-1.37.76-2.64 2.12-2.83 1.38-.19 2.64.76 2.83 2.12z"/><path d="m868.146 856.222c-.11 3.04-.2 5.9-.2 8.3 0 .52-.16 1.01-.44 1.41-1.14-2.71-2.18-5.96-3.1-9.8-.42 1.61-.89 3.1-1.4 4.47.04-1.45.09-2.98.14-4.55.61-17.91 1.54-44.97-14.02-58.96-9.1-8.19-23.13-11.01-41.69-8.39-1.36.2-2.63-.76-2.83-2.13-.19-1.36.76-2.63 2.13-2.82 20.09-2.84 35.48.4 45.74 9.62 17.29 15.55 16.31 44.019 15.67 62.85z"/><path d="m921.751 814.833c-.747-.011-.889-.127-1.321-.899-15.405-27.54-36.446-47.516-62.541-59.373-49.146-22.332-169.389-1.817-227.174 8.041-8.348 1.424-15.557 2.654-21.396 3.57-1.364.216-2.644-.718-2.857-2.083-.214-1.364.719-2.643 2.082-2.857 5.808-.911 13.001-2.138 21.331-3.559 62.747-10.704 179.54-30.629 230.083-7.664 27.086 12.307 48.95 33.685 64.886 62.175.674 1.205-5.613-5.067-8.645-8.186-.387.217 5.598 10.835 5.552 10.835z"/><path d="m211.198 664.298s16.217 32.239 73.396 62.235c73.351 38.479 172.765 46.588 172.765 46.588l-237.349-164.438z"/></g><path d="m482.746 658.562c-7.91 35.44-16.55 73.65-25.39 114.56 0 0-.8-.13-2.3-.41-18.66-3.45-146.39-29.22-211.74-99.7-89.28-96.28-103.91-119.86-139.37-116.85 0 0 126.74-50.58 237.5-176.89 56.52-64.46 113.74-64.82 154.77-24.03 7.72 8.38 10.97 17.08 16.55 25.77.51 1.42.98 2.87 1.42 4.35 3.13 10.24 4.93 21.93 5.61 35.04 2.86 54.899-13.98 134.78-37.05 238.16z" fill="#21a0aa"/><path d="m519.796 420.401c-2.81 53.16-17.98 139.8-37.05 238.16-7.159 36.921-14.865 75.494-22.674 114.56-.089.443-5.066-.16-5.016-.41 34.3-171.55 66.65-333.57 59.13-387.35 3.13 10.24 4.93 21.931 5.61 35.04z" fill="#6ce0dc"/></svg></g><!--ITEM: Illustration component 3--><g transform="translate(1184.3999999999999 1417.2) rotate(0.0 702.0000000000001 654.6)  scale(1.2001333481497947 1.2007825448115133)"><svg width="1169.87" height="1090.289" viewBox="0.0 0.0 1169.87 1090.289"><g fill="#9b3c82"><path d="m811.68 32.143h41.919v1042.403h-41.919z"/><path d="m963.433 32.14v1004.749h-453.72c-9.925 0-17.97 8.046-17.97 17.97v16.964c0 9.925 8.045 17.97 17.97 17.97h453.72 22.777 3.594c10.595 0 19.183-8.589 19.183-19.183v-1038.47z"/><path d="m1103.212 1090.289-240.993-.497v-52.904h239.609c14.746 0 26.7 11.954 26.7 26.701 0 14.746-10.57 26.7-25.316 26.7z"/></g><path d="m1147.834 60.996h-1125.798c-12.17 0-22.036-9.866-22.036-22.037v-16.923c0-12.17 9.866-22.036 22.036-22.036h1125.798c12.17 0 22.036 9.866 22.036 22.036v16.923c-0 12.171-9.866 22.037-22.036 22.037z" fill="#ffcf2d"/></svg></g><!--ITEM: Illustration component 4--><g transform="translate(1694.3999999999999 273.59999999999997) rotate(0.0 258.6 256.79999999999995)  scale(1.1867829279486004 1.1882095190944064)"><svg width="435.8" height="432.247" viewBox="0.0 0.0 435.8 432.247"><path d="m413.158 2.5h-390.516c-11.124 0-20.142 9.018-20.142 20.142v260.045c0 11.124 9.018 20.142 20.142 20.142h217.928l126.707 126.58c.889.888 2.343-.132 1.811-1.27l-58.595-125.31h102.666c11.124 0 20.142-9.018 20.142-20.142v-260.045c-.001-11.124-9.019-20.142-20.143-20.142z" fill="#fff"/><path d="m368.06 432.252c-.925 0-1.839-.364-2.55-1.075l-125.975-125.848h-216.893c-12.484 0-22.642-10.157-22.642-22.641v-260.046c0-12.485 10.158-22.642 22.642-22.642h390.517c12.484 0 22.641 10.157 22.641 22.642v260.045c0 12.485-10.157 22.642-22.642 22.642h-98.737l56.931 121.751c.759 1.622.265 3.472-1.201 4.5-.643.451-1.37.672-2.091.672zm-345.418-427.252c-9.728 0-17.642 7.914-17.642 17.642v260.045c0 9.728 7.914 17.642 17.642 17.642h218.963l.731.731 121.173 121.05-56.945-121.782h106.595c9.728 0 17.642-7.914 17.642-17.642v-260.044c-.001-9.728-7.915-17.642-17.642-17.642z" fill="#b0dcf7"/></svg></g><!--ITEM: Illustration component 5--><g transform="translate(1950.0 630.0) rotate(0.0 243.5999999999999 393.6)  scale(1.2024493241158711 1.2003220376198493)"><svg width="405.173" height="655.824" viewBox="0.0 0.0 405.173 655.824"><path d="m95.695 614.873 276.651-508.036c2.387-4.392 7.238-5.679 9.425-2.502l20.392 29.939c3.537 5.139 2.254 11.444-1.642 18.527l-248.983 452.683c-5.099 9.27-15.339 14.489-25.835 13.167z" fill="#9b3c82"/><path d="m398.969 655.824h-10.992c-4.108-2.058-8.294-16.651-9.786-20.997l-97.899-285.03 18.731-14.492 104.177 303.55c2.739 6.627 3.668 16.636-4.231 16.969z" fill="#9b3c82"/><path d="m60.822 655.824-51.78-.002c-6.8.138-11.208-7.128-7.942-13.095l349.19-638.125c2.954-5.398 10.38-6.208 14.428-1.573l33.074 37.869c6.547 7.496 7.687 18.293 2.85 26.991l-319.621 574.756c-4.08 7.337-11.806 13.008-20.199 13.179z" fill="#66b0f0"/><path d="m75.329 588.628c-.659 0-1.328-.164-1.945-.508-1.929-1.077-2.62-3.513-1.544-5.442l28.882-51.753c1.076-1.928 3.511-2.621 5.442-1.544 1.929 1.077 2.62 3.513 1.544 5.442l-28.882 51.753c-.732 1.312-2.094 2.052-3.497 2.052z" fill="#5b2448"/><path d="m118.331 511.142c-.667 0-1.344-.167-1.966-.519-1.923-1.088-2.6-3.528-1.512-5.451l11.553-20.42c1.087-1.922 3.528-2.6 5.451-1.512s2.6 3.528 1.512 5.451l-11.553 20.42c-.735 1.3-2.09 2.031-3.485 2.031z" fill="#9b3c82"/></svg></g><!--ITEM: Illustration component 6--><g transform="translate(1557.6 1357.2) rotate(0.0 153.60000000000002 29.399999999999977)  scale(1.1950099000657413 1.2105739932471373)"><svg width="257.069" height="48.572" viewBox="0.0 0.0 257.069 48.572"><g fill="#9b3c82"><path d="m135.641 24.714h29.362v-20.665c0-2.236-1.813-4.049-4.049-4.049h-21.264c-2.236 0-4.049 1.813-4.049 4.049z"/><path d="m85.481 24.714h29.362v-20.665c0-2.236-1.813-4.049-4.049-4.049h-21.264c-2.236 0-4.049 1.813-4.049 4.049z"/><path d="m35.509 30.015h29.362v-20.664c0-2.236-1.813-4.049-4.049-4.049h-21.264c-2.236 0-4.049 1.813-4.049 4.049z"/><path d="m186.848 24.714h29.362v-20.665c0-2.236-1.813-4.049-4.049-4.049h-21.264c-2.236 0-4.049 1.813-4.049 4.049z"/></g><path d="m0 48.572h257.069v-21.596c0-5.146-4.172-9.318-9.318-9.318h-238.433c-5.146.001-9.318 4.172-9.318 9.318z" fill="#66b0f0"/></svg></g><!--ITEM: Illustration component 7--><g transform="translate(1777.2 348.0) rotate(0.0 178.19999999999993 112.19999999999999)  scale(1.196374622356495 1.195811462524313)"><svg width="297.9" height="187.655" viewBox="0.0 0.0 297.9 187.655"><path d="m185.44 115.118 2.215-27.816-20.604-4.906c-1.264-7.565-3.455-15.204-7.11-22.027l13.883-16.157-18.347-21.522-18.113 10.688c-6.158-4.689-13.354-8.061-20.624-10.506l-1.621-20.657-27.817-2.215-4.906 20.604c-7.565 1.264-15.204 3.455-22.027 7.11l-16.157-13.883-21.522 18.348 10.688 18.113c-4.689 6.158-8.061 13.354-10.506 20.624l-20.657 1.621-2.215 27.816 20.604 4.906c1.264 7.565 3.455 15.204 7.11 22.027l-13.883 16.157 18.348 21.522 18.113-10.688c6.158 4.689 13.354 8.061 20.624 10.506l1.621 20.657 27.816 2.215 4.906-20.604c7.565-1.264 15.204-3.455 22.027-7.11l16.193 13.419 21.022-17.921-10.688-18.113c4.689-6.158 8.061-13.354 10.506-20.624zm-94.565 15.798c-20.398-1.624-35.759-19.643-34.135-40.041s19.643-35.759 40.041-34.135 35.759 19.643 34.135 40.041-19.643 35.759-40.041 34.135z" fill="#66b0f0"/><path d="m297.9 69.913-.997-17.843-13.499-1.334c-1.455-4.692-3.505-9.35-6.414-13.364l7.415-11.452-13.502-12.074-10.572 8.347c-4.313-2.444-9.171-3.963-13.996-4.886l-2.813-12.969-17.842.995-1.334 13.499c-4.692 1.455-9.35 3.505-13.364 6.414l-11.452-7.415-12.074 13.502 8.347 10.572c-2.444 4.313-3.963 9.171-4.886 13.996l-12.969 2.813.997 17.843 13.499 1.334c1.455 4.692 3.505 9.35 6.414 13.364l-7.415 11.452 13.502 12.074 10.572-8.347c4.313 2.444 9.171 3.963 13.996 4.886l2.813 12.969 17.843-.997 1.334-13.499c4.692-1.455 9.35-3.505 13.364-6.414l11.435 7.118 11.793-13.188-8.347-10.572c2.444-4.313 3.963-9.171 4.886-13.996zm-58.648 18.191c-13.085.731-24.389-9.377-25.12-22.463-.731-13.085 9.377-24.389 22.463-25.12 13.085-.731 24.389 9.377 25.12 22.463.73 13.085-9.378 24.389-22.463 25.12z" fill="#ffcf2d"/><circle cx="237.923" cy="64.313" fill="#fff" r="40.609"/><g fill="#ffcf2d"><path d="m237.923 107.422c-23.771 0-43.109-19.339-43.109-43.109s19.339-43.109 43.109-43.109 43.109 19.339 43.109 43.109-19.339 43.109-43.109 43.109zm0-81.218c-21.014 0-38.109 17.096-38.109 38.109s17.096 38.109 38.109 38.109 38.109-17.096 38.109-38.109c0-21.014-17.095-38.109-38.109-38.109z"/><circle cx="237.923" cy="64.313" r="10.036"/><path d="m237.923 76.849c-6.912 0-12.535-5.624-12.535-12.536s5.623-12.536 12.535-12.536 12.536 5.624 12.536 12.536-5.624 12.536-12.536 12.536zm0-20.072c-4.155 0-7.535 3.381-7.535 7.536s3.38 7.536 7.535 7.536 7.536-3.381 7.536-7.536-3.381-7.536-7.536-7.536z"/></g></svg></g></svg>