<svg xmlns="http://www.w3.org/2000/svg" version="1.1" viewBox="0 0 3000 3000" width="3000" height="3000">
<defs/><!--ITEM: Illustration component 1--><g transform="translate(1761.111111111111 1336.111111111111) rotate(0.0 126.38888888888891 184.72222222222217)  scale(1.3553768245457256 1.3493222952682409)"><svg width="186.5" height="273.8" viewBox="0.0 0.0 186.5 273.8"><path d="m143.4 43.6s27.6 38.3 42.4 54.5c1.2 1.3.7 3.5-1 4.1-13.5 4.6-55.6 22.5-93.3 87.7-21.3 36.8-25 66.3-27.5 82.4-.1 1-1 1.6-2 1.5l-41.8-5.2c-1-.1-1.6-1-1.4-2 13.7-65.6 44.8-153.3 124.6-223z" fill="#66b0f0"/><path d="m4.4 249.7c-1.5-.2-2.6-1.6-2.3-3.1 4.1-23.7 12.1-54.2 21.2-78.1 41.5-109.6 102-166.5 102-166.5s22 35.5 54.1 57.7c-61.1 52.2-101.2 123.2-116.7 192.5-.6 2.6-3.1 4.2-5.7 3.9-11.8-1.5-43-5.2-52.6-6.4z" fill="#fff"/><path d="m57.7 258.1c-.3 0-.6 0-.9-.1-12.6-1.5-43.1-5.1-52.7-6.3-1.3-.2-2.4-.8-3.2-1.9-.8-1-1.1-2.3-.9-3.6 4.3-24.9 12.6-55.7 21.3-78.4 21.6-56.8 48.3-99.2 67-124.8 20.2-27.8 35.5-42.3 35.7-42.5.4-.4 1-.6 1.6-.5s1.1.4 1.4.9c.2.4 22.1 35.4 53.6 57.1.5.4.8.9.9 1.5 0 .6-.2 1.2-.7 1.6-57.6 49.2-99.9 118.9-116.1 191.4-.7 3.3-3.7 5.6-7 5.6zm-53.1-10.4c9.6 1.2 40 4.8 52.6 6.3 1.7.2 3.2-.8 3.5-2.3 16.2-72.4 58.3-142.2 115.5-191.8-26.6-19.1-46-46.9-51.2-54.7-10.1 10.2-62.8 66.5-99.9 164-8.6 22.5-16.8 53-21.1 77.7 0 .3.1.4.1.5.1.1.3.3.5.3z" fill="#66b0f0"/></svg></g><!--ITEM: Illustration component 2--><g transform="translate(572.2222222222222 2016.6666666666665) rotate(0.0 558.3333333333334 454.16666666666674)  scale(1.2613426710343012 1.2649120363923319)"><svg width="885.3" height="718.1" viewBox="0.0 0.0 885.3 718.1"><path d="m495.6 0h-99.4c-27.6 0-50 22.4-50 50v94h199.5v-94c-.1-27.6-22.5-50-50.1-50zm16.1 126.5h-131.6v-69.1c0-14.3 11.6-25.9 25.9-25.9h79.7c14.3 0 25.9 11.6 25.9 25.9z" fill="#5b2448"/><path d="m865.6 173.9 2.2 17.6v358.4l-2.8 18c0 49.6-38.1 87.4-87.7 87.4l-17.2 1.9h-635.2l-17.8-3.9c-49.6 0-84.7-35.4-84.7-85l-4.9-18.5v-358.3l2.2-16.5c0-49.6 38.2-89.1 87.8-89.1l17.4-1.8h635.6l18.3 2.1c49.5 0 86.8 38.1 86.8 87.7z" fill="#9b3c82"/><g fill="#ffcf2d"><path d="m124.9 84.1c0 9.7-7.8 17.5-17.5 17.5-39.9 0-72.4 32.5-72.4 72.4 0 9.7-7.8 17.5-17.5 17.5v-17.5c0-49.6 40.2-89.9 89.9-89.9z"/><path d="m124.9 657.3h-17.5c-49.6 0-89.9-40.2-89.9-89.9v-17.5c9.7 0 17.5 7.8 17.5 17.5 0 39.9 32.5 72.4 72.4 72.4 9.6 0 17.5 7.8 17.5 17.5z"/><path d="m867.8 549.9v17.5c0 49.6-40.2 89.9-89.9 89.9h-17.5c0-9.7 7.8-17.5 17.5-17.5 39.9 0 72.4-32.5 72.4-72.4 0-9.6 7.9-17.5 17.5-17.5z"/><path d="m867.8 174v17.5c-9.7 0-17.5-7.8-17.5-17.5 0-39.9-32.5-72.4-72.4-72.4-9.7 0-17.5-7.8-17.5-17.5h17.6c49.6 0 89.8 40.3 89.8 89.9z"/><path d="m286.6 84.1h35v573.2h-35z"/></g><path d="m323.4 214.7h-38.5c-7 0-12.7 5.7-12.7 12.7v58c0 7 5.7 12.7 12.7 12.7h38.5c7 0 12.7-5.7 12.7-12.7v-58c.1-7-5.7-12.7-12.7-12.7zm-2.3 68.4h-34v-53.4h34z" fill="#5b2448"/><circle cx="304.1" cy="329.5" fill="#5b2448" r="9"/><circle cx="304.1" cy="380.1" fill="#5b2448" r="9"/><path d="m286.6 410.3h35v4h-35z" fill="#5b2448"/><path d="m567.7 84.1h35v573.2h-35z" fill="#ffcf2d"/><path d="m604.5 214.7h-38.6c-7 0-12.7 5.7-12.7 12.7v58c0 7 5.7 12.7 12.7 12.7h38.6c7 0 12.7-5.7 12.7-12.7v-58c0-7-5.7-12.7-12.7-12.7zm-2.3 68.4h-34v-53.4h34z" fill="#5b2448"/><circle cx="585.2" cy="329.5" fill="#5b2448" r="9"/><circle cx="585.2" cy="380.1" fill="#5b2448" r="9"/><path d="m567.7 410.3h35v4h-35z" fill="#5b2448"/></svg></g><!--ITEM: Illustration component 3--><g transform="translate(700.0 519.4444444444445) rotate(0.0 838.8888888888889 1166.6666666666667)  scale(1.2643389433140753 1.263378273503348)"><svg width="1327.0" height="1846.9" viewBox="0.0 0.0 1327.0 1846.9"><path d="m1126.8 1533.1c-49 25-74 32-173 25s-137.3 33-127 60c18 47 180 26 300-85z" fill="#5b2448"/><path d="m865.4 1620.3s-103.5-26.7-162.4-94.8c-55.3-64-116.7-118.4-149.9-97.1-52.9 33.9 61.3 230.9 312.3 191.9z" fill="#5b2448"/><path d="m842.8 1614.1-22.2 31-35.8 50s-107 32-144-50c3.8-10.7 10.1-27.9 16.8-45.8 1.5-3.9 2.9-7.9 4.4-11.8v-.1c11-29.4 21.5-57.4 21.8-58.2z" fill="#f4ada2"/><path d="m1131.8 1692.1s-109.6 24.5-147.8-22.3c-.3-.4-.6-.8-1-1.2s-.6-.8-.9-1.2-.6-.8-.8-1.2c-.1-.1-.2-.2-.2-.3-.2-.3-.5-.7-.7-1-.6-.9-1.1-1.8-1.6-2.7-2-11.9-4.6-24.4-7.4-36.5-.9-3.9-1.8-7.7-2.7-11.5-.2-1-.5-2-.7-3.1-.2-.7-.4-1.5-.5-2.2-7-28.3-13.6-50.7-13.6-50.7l173-25s1.7 31.6 3.1 70.2c0 .9.1 1.8.1 2.8.9 27.7 1.7 60.5 1.7 85.9z" fill="#f4ada2"/><path d="m475 799.3c3.2-2.3 146.7-103.6 190.1-148 42.4-43.3 42.1-70 34.6-93.1s-30.3-63.4-4-55.2c27.2 8.5 41.8 39.3 81.1 35.4 28.7-5.8 81.2-44.7 133.4-56.3 43.4-9.7 59.4 4.6 9.9 30.7-33 17.3-50.7 33.7-50.7 33.7 1.8 2.1 2.6 4.9 2.2 7.6 0 0 10.4 3.6 9.8 22 11.2 6.9 16.4 26.8-71.6 134.7-54.8 67.3-121.3 178.3-198.8 259.5" fill="#f4ada2"/><path d="m1126.8 1533.1c-43 39-115.8 62.2-159.4 75.7-7-28.3-13.6-50.7-13.6-50.7z" fill="#9b3c82"/><path d="m842.8 1614.1c-73.1 4.5-147.3-31.3-176.1-39.7 0 0 15.8-43.4 16.1-44.2 0 0 4.1-12.6 4.1-12.6z" fill="#9b3c82"/><path d="m820.6 1645.1-35.8 50s-107 32-144-50c3.8-10.7 10.1-27.9 16.8-45.8z" fill="#66b0f0"/><path d="m805.4 1666.4-156.3-44.2c-1.2 3.3-2.4 6.4-3.4 9.4l153.5 43.4z" fill="#fff"/><path d="m1131.8 1692.1s-109.6 24.5-147.8-22.3c-.3-.4-.6-.8-1-1.2s-.6-.8-.9-1.2-.6-.8-.8-1.2c-.1-.1-.2-.2-.2-.3-.2-.3-.5-.7-.7-1-.6-.9-1.1-1.8-1.6-2.7-2-11.9-4.6-24.4-7.4-36.5l158.4-22.3c0 .9.1 1.8.1 2.8 1.1 27.7 1.9 60.5 1.9 85.9z" fill="#66b0f0"/><path d="m1130.6 1625.2-155.1 19.2c.7 3.3 1.3 6.6 1.9 9.8l153.5-19c-.1-3.3-.2-6.7-.3-10z" fill="#fff"/><path d="m1324.3 1810.4c-9.2 11-28.5 26.3-68.9 29.8-74.5 6.6-272.6 2.8-272.6 2.8.5-36.9.5-74.2-.2-106.7v-.1c-.7-35.4-4.8-64.2-3.8-72.2 12-6 36.4 14.1 56 21 31 10.9 96.8 5.9 100 6.3 27.8 3.9 55 11.3 81 22 .5.2 1.1.5 1.6.7.3.1.5.2.8.3 2.9 1.3 5.3 2.4 7.3 3.4 3.5 1.7 6.8 3.5 10 5.2 1.1.6 2.1 1.2 3.2 1.8 1.6.9 3.2 1.9 4.8 2.8.5.3 1 .6 1.4.8 10.1 6.1 19.8 12.9 29 20.3.8.6 1.5 1.2 2.3 1.9.3.2.5.4.8.7s.5.4.8.7c.1.1.2.1.2.2.1.1.3.2.4.3.1 0 .1.1.1.1.2.2.3.3.5.4.5.4 1 .8 1.5 1.3.2.1.4.3.5.5l1.1 1 .4.4c.5.4.9.8 1.4 1.3 0 0 .1.1.1.1.2.2.3.3.5.4l.5.5.9.9.5.5c.1.1.2.1.2.2s.2.1.2.2c.5.4.9.9 1.4 1.3.7.6 1.3 1.2 1.9 1.9l.4.4c.2.1.3.3.4.4l1 1 .9.9.3.3.6.6c.4.4.7.8 1.1 1.2l.6.6c.3.4.7.8 1 1.1s.5.6.8.9c.8.9 1.6 1.8 2.3 2.6.4.4.7.8 1.1 1.2.6.7 1.2 1.3 1.7 2l1.3 1.6c.2.3.4.5.7.8s.4.5.6.8c.4.5.8 1 1.2 1.6.9 1.1 1.7 2.1 2.5 3.2.3.4.5.7.8 1 1.6 2.2 3.1 4.2 4.4 6.2.3.4.5.8.8 1.2.5.7.9 1.3 1.3 2 .1.1.2.2.2.4.6.9 1.1 1.7 1.6 2.6.3.4.5.9.8 1.3 1.9 3.3 3.3 6 4.3 7.9.1.2.2.5.3.7.5 1 .8 1.8 1 2.2.1.1.1.2.1.3z" fill="#fff"/><path d="m1316.2 1795.4c-64.2 45.8-127.2 25.2-164.4 9.7-32.1-13.3-33.1.4-59.3-7.8-21.8-6.9-28.7-22.6-56.5-25.8-16.7-1.9-41.2 5.6-52.2 17.6.3-12.8-.2-32.4-1.2-52.7v-.1c-1.8-39.4-4.3-74.2-3.8-74.2 23.1.7 34.4 12.1 54 19 31 10.9 85 9 102 10.3 34.1 2.6 64.3 14.9 81 22 .5.2 1.1.5 1.6.7.3.1.5.2.8.3 2.9 1.3 5.3 2.4 7.3 3.4 3.5 1.7 6.8 3.5 10 5.2 1.1.6 2.1 1.2 3.2 1.8 1.6.9 3.2 1.9 4.8 2.8.5.3 1 .6 1.4.8 10.1 6.1 19.8 12.9 29 20.3.8.6 1.5 1.2 2.3 1.9.3.2.5.4.8.7s.5.4.8.7c.1.1.2.1.2.2.1.1.3.2.4.3.1 0 .1.1.1.1.2.2.3.3.5.4.5.4 1 .8 1.5 1.3.2.1.4.3.5.5l1.1 1 .4.4c.5.4.9.8 1.4 1.3 0 0 .1.1.1.1.2.2.3.3.5.4l.5.5.9.9.5.5c.1.1.2.1.2.2s.2.1.2.2c.5.4.9.9 1.4 1.3.7.6 1.3 1.2 1.9 1.9l.4.4c.2.1.3.3.4.4l1 1 .9.9.3.3.6.6.3.3c.3.3.6.6.8.9l.6.6c.3.4.7.8 1 1.1s.5.6.8.9c.8.9 1.6 1.8 2.3 2.6.4.4.7.8 1.1 1.2.6.7 1.2 1.3 1.7 2l1.3 1.6c.2.3.4.5.7.8s.4.5.6.8c.4.5.8 1 1.2 1.6.9 1.1 1.7 2.1 2.5 3.2.3.4.5.7.8 1 1.6 2.2 3.1 4.2 4.4 6.2.3.4.5.8.8 1.2.5.7.9 1.3 1.3 2 .1-0 .2.2.3.3z" fill="#5b2448"/><path d="m987.1 1751.4c-1.2 0-1.9-.1-2-.1-1.6-.2-2.9-1.6-2.7-3.3s1.6-2.9 3.3-2.7c.2 0 17.2 1.4 38.6-13.8 4.7-3.4 8.6-6.4 12-9 13.3-10.3 20.6-16 47.3-19.6 1.6-.2 3.2.9 3.4 2.5s-.9 3.2-2.5 3.4h-.1c-25.1 3.3-31.6 8.4-44.4 18.4-3.5 2.7-7.4 5.8-12.2 9.2-19.3 13.6-35.2 15-40.7 15z" fill="#fff"/><path d="m1231.1 1826.6c-28.5 0-54.5-8.4-76.8-17.7-18.1-7.5-27.8-7.3-37.2-7.1-7.1.2-14.4.3-24.8-2.7-10-2.9-16.3-7.8-22.4-12.6-7.8-6-15.1-11.7-29.7-13.1-33.4-3.2-53.9 17.7-54.1 17.9-1 1-2.5 1-3.5.1-1-1-1-2.5-.1-3.5.9-.9 22.3-22.8 58.2-19.4 16 1.5 24.3 7.9 32.3 14.1 6 4.7 11.7 9.1 20.8 11.7 9.7 2.8 16.3 2.7 23.3 2.5 9.9-.2 20.2-.5 39.2 7.4 42.1 17.5 98.2 32 158.5-11 1.1-.8 2.7-.5 3.5.7.8 1.1.5 2.7-.7 3.5-30.3 21.7-59.5 29.2-86.5 29.2z" fill="#5b2448"/><path d="m1035.3 1830.5c-17.8 0-31.8-8.6-31.8-19.6 0-5.5 3.5-10.7 9.8-14.4 5.9-3.5 13.8-5.5 22.1-5.5h.3c17.8 0 31.8 8.6 31.8 19.6 0 5.5-3.5 10.7-9.8 14.4-5.9 3.5-13.8 5.5-22.1 5.5zm.3-34.5h-.2c-7.4 0-14.4 1.7-19.6 4.8-4.8 2.8-7.4 6.4-7.3 10.1 0 8 12.4 14.7 27.1 14.6 7.4 0 14.4-1.7 19.6-4.8 4.8-2.8 7.4-6.4 7.3-10.1-.1-8-12.3-14.6-26.9-14.6z" fill="#5b2448"/><path d="m1089.1 1846.9c-57.6 0-105.9-.8-106.8-.8-1.4 0-2.5-1.2-2.5-2.5 0-.1 0-.1 0-.2 3.4-43.1 2.5-100.7-2.5-171.1-.5-6.8-.5-7.5-.5-8 .2-1.4 1.4-2.4 2.8-2.2 1.3.2 2.3 1.3 2.2 2.6 0 .6.2 3.5.5 7.2 4.9 69.3 5.9 126.2 2.7 169.2 23.9.3 201.3 2.7 270.2-3.4 20.8-1.8 48.9-8.2 66.2-27.8-.1-.3-.3-.7-.5-1.1-.1-.2-.2-.4-.3-.7-1.2-2.5-2.6-5-4.2-7.7-.2-.4-.5-.8-.8-1.2-.6-.9-1.2-1.9-1.8-2.9-.4-.6-.8-1.3-1.3-1.9-.3-.4-.5-.8-.8-1.1-1.4-2.1-2.8-4.1-4.3-6.1-.3-.4-.5-.7-.7-1-.8-1.1-1.6-2.1-2.4-3.2-.6-.8-1.2-1.6-1.9-2.3l-.7-.8c-.3-.4-.6-.7-.9-1.1l-.4-.5c-.5-.7-1.1-1.3-1.7-2l-.3-.4c-.2-.3-.5-.5-.7-.8-.8-.9-1.5-1.7-2.3-2.6-.3-.3-.5-.5-.7-.8-.4-.4-.7-.8-1-1.1-.2-.2-.4-.4-.6-.6l-1.1-1.1c-.6-.6-1.1-1.2-1.7-1.8l-.4-.4c-.2-.2-.4-.4-.5-.6-.3-.3-.5-.6-.8-.8-.6-.6-1.3-1.2-1.9-1.9s-1.2-1.2-1.8-1.7c-.5-.5-1-.9-1.4-1.4l-.5-.5c-.6-.6-1.3-1.2-2-1.8-.2-.2-.3-.3-.4-.4-.6-.5-1.1-1-1.6-1.5l-.1-.1c-.6-.5-1.2-1.1-1.8-1.6l-.1-.1c-.5-.4-.9-.8-1.4-1.2-.3-.3-.5-.4-.8-.6-.8-.6-1.5-1.3-2.2-1.9-9.1-7.4-18.7-14.1-28.7-20.1-.4-.3-.8-.5-1.1-.7l-.3-.2c-1.6-.9-3.2-1.9-4.8-2.8-1-.6-2.1-1.2-3.1-1.8-3.5-1.9-6.8-3.6-9.9-5.2-2.3-1.1-4.7-2.3-7.2-3.3-9.3-4.1-35.9-14.1-81.1-19.6-1.4-.1-2.4-1.4-2.2-2.7s1.4-2.4 2.7-2.2h.1c45.9 5.6 73 15.8 82.5 20 2.6 1.1 5.1 2.3 7.4 3.5 3.2 1.6 6.5 3.3 10.1 5.3 1.1.6 2.1 1.2 3.2 1.8 1.7.9 3.3 1.9 4.9 2.8l.2.1c.4.2.8.5 1.2.7 10.2 6.1 20 13 29.3 20.5.8.6 1.5 1.3 2.3 1.9.3.2.6.5.8.7.4.4.9.8 1.4 1.2l.1.1c.7.6 1.3 1.1 1.9 1.7l.1.1c.6.5 1.1 1 1.7 1.5.1.1.3.3.5.4.7.6 1.3 1.2 2 1.8l.5.5c.5.5 1 .9 1.5 1.4.6.6 1.2 1.1 1.8 1.7.7.7 1.3 1.3 2 1.9.3.3.6.5.8.8l.6.6.4.4 1.8 1.8 1.1 1.2c.2.2.4.4.5.6.4.4.8.8 1.1 1.2.2.2.5.6.8.9.8.9 1.6 1.8 2.4 2.6.2.3.5.6.8.9l.3.4c.6.7 1.2 1.4 1.7 2l.4.5c.3.4.7.8 1 1.2l.7.8c.7.8 1.3 1.6 1.9 2.4.8 1 1.6 2.1 2.5 3.2.3.3.5.7.8 1.1 1.5 2 3 4.1 4.4 6.2.3.4.5.8.8 1.2.4.6.9 1.3 1.3 2 .7 1 1.3 2 1.8 3 .3.4.5.9.8 1.3 1.6 2.8 3.1 5.5 4.4 8 .1.3.3.5.4.7.5 1.1.9 1.9 1 2.3v.1c0 .1.1.1.1.2v.1c.6.9.4 2-.4 2.7-18.3 21.8-48.5 28.8-70.6 30.7-37.9 3.4-107.3 4.2-166.9 4.2zm237.4-37.7c.1.1.1 0 0 0z" fill="#5b2448"/><path d="m1113.6 1754.7c-4.1 0-7.5-3.4-7.5-7.5 0-1 .2-2 .6-2.9.7-1.7 17.5-40.6 62.9-56.6 3.9-1.4 8.2.6 9.6 4.5s-.6 8.2-4.5 9.6c0 0 0 0-.1 0-38.9 13.7-53.9 47.9-54 48.3-1.2 2.8-4 4.6-7 4.6z" fill="#ffcf2d"/><path d="m1147.1 1765.5c-4.1 0-7.5-3.4-7.5-7.5 0-1 .2-2 .6-3 .7-1.7 18.5-41.2 65.2-54.8 4-1.2 8.1 1.1 9.3 5.1s-1.1 8.1-5.1 9.3c-39.7 11.6-55.5 46.2-55.7 46.5-1.1 2.6-3.8 4.4-6.8 4.4z" fill="#ffcf2d"/><path d="m1185.6 1773.5c-4.1 0-7.5-3.4-7.5-7.5 0-1.1.2-2.2.7-3.2.7-1.5 17.1-35.7 59.7-47.7 4-1.1 8.1 1.2 9.2 5.2s-1.2 8.1-5.2 9.2c-36 10.1-50 39.3-50.1 39.6-1.3 2.7-3.9 4.4-6.8 4.4z" fill="#ffcf2d"/><path d="m950.2 1810c-9.3 10.9-28.7 26.1-69.1 29.4-74.5 6.1-308.3-.3-308.3-.3 6-33 67.9-194 68-194 22 7 27 30 52 36 25.9 6.2 40 6.5 69 10 35.6 4.3 66.8 15.1 82.8 22.2 2.9 1.3 5.3 2.5 7.3 3.4 3.5 1.7 6.8 3.5 10 5.3 1.1.6 2.1 1.2 3.2 1.8 1.6.9 3.2 1.9 4.8 2.8.5.3 1 .6 1.4.9 10.1 6.1 19.8 13 28.9 20.5.8.6 1.5 1.2 2.2 1.9.3.2.5.4.8.7s.5.4.8.7c.1.1.1.1.2.2s.3.2.4.3c0 0 .1.1.1.1.7.6 1.3 1.2 2 1.7.2.1.4.3.5.5.4.3.7.6 1.1 1l.4.4c.5.4.9.8 1.4 1.3 0 0 .1.1.1.1l.5.4.5.5c.3.3.6.6.9.9l.5.5c.1.1.1.1.2.2s.2.1.2.2c.5.5.9.9 1.4 1.4.6.6 1.3 1.2 1.9 1.9l.8.8 1 1c.6.6 1.2 1.2 1.7 1.8.4.4.7.8 1.1 1.2.2.2.4.4.6.6.3.4.7.7 1 1.1.3.3.5.6.8.9.8.9 1.6 1.8 2.3 2.6.4.4.7.8 1.1 1.2.6.7 1.1 1.3 1.7 2 .5.5.9 1.1 1.3 1.6l.7.8c.2.3.4.5.6.8.4.5.8 1 1.2 1.6.9 1.1 1.7 2.2 2.4 3.2.3.4.5.7.8 1 1.6 2.2 3 4.2 4.3 6.2.3.4.5.8.8 1.2.5.7.9 1.3 1.3 2 .6 1 1.2 2 1.8 2.9.3.4.5.9.8 1.3 1.9 3.3 3.3 6 4.2 7.9.1.3.2.5.4.7.5 1 .8 1.8 1 2.2.1.1.1.2.1.3.1.1.1.2.1.2z" fill="#fff"/><path d="m942.2 1794.9c-64.4 45.4-139.8 20.9-176.9 5.2-32-13.5-42.7 3.6-68.8-4.8-21.8-7.1-28.6-22.7-56.4-26.1-16.7-2-41.2 9.1-51.3 18-.1.1 51.9-143 52-143 23 9 25 26 47 34 18.4 6.7 44.6 8.3 73.6 11.7 35.6 4.3 67.2 16.3 83.2 23.5 2.9 1.3 5.3 2.5 7.3 3.4 3.5 1.7 6.8 3.5 10 5.3 1.1.6 2.1 1.2 3.2 1.8 1.6.9 3.2 1.9 4.8 2.8.5.3 1 .6 1.4.9 10.1 6.1 19.8 13 28.9 20.5.8.6 1.5 1.2 2.2 1.9.3.2.5.4.8.7s.5.4.8.7l.2.2c.1.1.3.2.4.3 0 0 .1.1.1.1.2.2.4.3.5.4.5.4 1 .9 1.5 1.3.2.1.4.3.5.5.4.3.7.6 1.1 1 .1.1.3.3.4.4.5.4.9.8 1.4 1.3 0 0 .1.1.1.1l.5.4.5.5.9.9.5.5.2.2s.2.1.2.2l1.4 1.4c.6.6 1.3 1.2 1.9 1.9l.4.4c.1.1.3.3.4.4l1 1 1.2 1.2.6.6c.1.1.2.2.3.3.3.3.6.6.8.9.2.2.4.4.6.6.3.4.7.7 1 1.1.3.3.5.6.8.9.8.9 1.6 1.8 2.3 2.6.4.4.7.8 1.1 1.2.6.7 1.1 1.3 1.7 2 .5.5.9 1.1 1.3 1.6l.7.8c.2.3.4.5.6.8.4.5.8 1 1.2 1.6.9 1.1 1.7 2.2 2.4 3.2.3.4.5.7.8 1 1.6 2.2 3 4.2 4.3 6.2.3.4.5.8.8 1.2.5.7.9 1.3 1.3 2 .1.1.2.2.3.3z" fill="#5b2448"/><path d="m608.6 1746.8c-1.3 0-2.1-.1-2.2-.1-1.6-.2-2.8-1.7-2.6-3.3s1.6-2.8 3.3-2.6c.3 0 17.3 1.4 38.7-13.6 4.7-3.3 8.6-6.3 12.1-9 13.3-10.3 20.7-15.9 47.4-19.3 1.6-.2 3.1 1 3.3 2.6s-1 3.1-2.6 3.3c-25.1 3.2-31.6 8.2-44.5 18.1-3.5 2.7-7.4 5.7-12.3 9.1-19.2 13.5-35 14.8-40.6 14.8z" fill="#fff"/><path d="m857.3 1823.4c-4.6 0-9.3-.2-14-.5-24.7-1.9-51.3-8.8-79-20.5-17.6-7.4-29-5.9-40-4.4-8.5 1.2-17.3 2.3-28-.9-10.3-3.1-17.1-8-23.7-12.8-7.9-5.7-15.3-11.1-28.3-13.2-33.1-5.3-51.2 16.1-51.9 17-.9 1.1-2.5 1.2-3.5.3s-1.2-2.5-.3-3.5c.8-1 20.5-24.5 56.6-18.8 14.2 2.3 22.5 8.3 30.5 14.1 6.6 4.8 12.8 9.3 22.2 12.1 9.7 2.9 17.6 1.8 25.9.7 11.2-1.5 23.8-3.2 42.6 4.7 27.2 11.5 53.2 18.2 77.4 20.1 36.8 2.8 69.5-5.6 97.1-25 1.2-.8 2.7-.4 3.5.7.8 1.2.4 2.7-.7 3.5-25.2 17.6-54.1 26.4-86.4 26.4z" fill="#5b2448"/><path d="m639.4 1828.2c-8.4 0-16.2-1.9-22.2-5.4-6.4-3.7-9.9-8.8-9.9-14.4s3.5-10.6 9.9-14.4c5.9-3.5 13.8-5.4 22.1-5.4h.1c17.9 0 32 8.7 32 19.8 0 5.5-3.5 10.6-9.9 14.4-6 3.5-13.8 5.4-22.1 5.4zm-.1-34.6c-7.4 0-14.4 1.7-19.5 4.7-4.8 2.8-7.4 6.4-7.4 10s2.6 7.3 7.4 10.1c5.2 3 12.1 4.7 19.6 4.7h.1c7.4 0 14.4-1.7 19.5-4.7 4.8-2.8 7.4-6.4 7.4-10h2.5-2.5c-.1-8-12.4-14.7-27.1-14.8z" fill="#5b2448"/><path d="m724.2 1845.3c-77.3 0-150.6-1.2-151.9-1.2-1.4 0-2.5-1.2-2.5-2.5 0-.1 0-.3 0-.4 3.4-18.5 38.9-115.4 58-167.5 5.4-14.6 9.6-26.2 10-27.6.3-1.3 1.6-2.2 3-1.9 1.3.3 2.1 1.5 2 2.7-.1.7-.7 2.5-10.2 28.4-16.9 46.1-51.2 139.8-57.2 163.8 27.8.4 236.5 3.4 305.5-2.2 37.1-3.1 56.5-16.3 66.4-27.4-.1-.3-.3-.7-.5-1.1-.1-.2-.2-.4-.3-.7-1.2-2.5-2.6-5.1-4.1-7.7-.2-.4-.5-.8-.7-1.2-.6-.9-1.1-1.9-1.8-2.9-.4-.6-.8-1.3-1.2-1.9-.3-.4-.5-.8-.8-1.1-1.4-2.1-2.8-4.1-4.3-6.1-.3-.4-.5-.7-.7-1-.8-1.2-1.6-2.2-2.4-3.2-.6-.8-1.2-1.6-1.8-2.3l-.7-.8c-.3-.4-.6-.7-.9-1.1l-.4-.5c-.5-.7-1.1-1.3-1.7-2l-.3-.3c-.2-.3-.5-.6-.7-.8-.8-.9-1.5-1.8-2.3-2.6-.3-.3-.5-.5-.7-.8-.4-.4-.7-.8-1-1.1-.2-.2-.4-.4-.6-.6l-1.1-1.1c-.6-.6-1.1-1.2-1.7-1.8l-.4-.4c-.2-.2-.4-.4-.5-.6-.3-.3-.5-.6-.8-.8-.6-.6-1.2-1.2-1.9-1.9l-.1-.1c-.6-.6-1.1-1.1-1.7-1.7-.5-.5-1-.9-1.4-1.4l-.5-.5c-.6-.6-1.3-1.2-1.9-1.8-.2-.2-.3-.3-.4-.4-.6-.5-1.1-1-1.6-1.5-.7-.6-1.3-1.2-2-1.7l-.1-.1c-.5-.4-.9-.8-1.4-1.2-.3-.3-.5-.5-.8-.7-.8-.6-1.5-1.3-2.2-1.9-9-7.4-18.6-14.2-28.6-20.3-.4-.3-.8-.5-1.1-.7l-.3-.2c-1.6-1-3.2-1.9-4.8-2.8-1-.6-2.1-1.2-3.1-1.8-3.5-1.9-6.7-3.6-9.9-5.2-2.3-1.1-4.7-2.3-7.2-3.4-14.5-6.4-40-15.1-78.9-20.1-1.4-.2-2.3-1.4-2.2-2.8s1.4-2.3 2.8-2.2c39.5 5.1 65.5 13.9 80.3 20.5 2.6 1.1 5.1 2.3 7.4 3.5 3.2 1.6 6.5 3.4 10.1 5.3 1.1.6 2.1 1.2 3.2 1.8 1.6.9 3.3 1.9 4.8 2.9l.2.1c.4.2.8.5 1.2.7 10.2 6.2 19.9 13.1 29.1 20.7.8.6 1.5 1.3 2.3 1.9.3.2.6.5.8.7.4.4.9.8 1.4 1.2l.1.1c.7.6 1.3 1.2 2 1.7.6.6 1.2 1 1.7 1.5.1.1.3.3.5.4.7.6 1.3 1.2 2 1.9l.5.5c.5.5 1 .9 1.5 1.4.6.6 1.2 1.1 1.8 1.7l.1.1c.7.6 1.3 1.3 1.9 1.9.3.3.6.6.8.8s.4.4.6.6l.4.4 1.8 1.8 1.1 1.2c.2.2.4.4.6.6.4.4.7.8 1.1 1.2.2.2.5.6.8.9.8.9 1.6 1.8 2.4 2.7.2.3.5.6.8.9l.3.3c.6.7 1.2 1.4 1.7 2.1l.4.5c.3.4.6.8 1 1.2l.7.8c.7.8 1.3 1.6 1.9 2.4.8 1 1.6 2.1 2.5 3.3.3.3.5.7.8 1.1 1.5 2 3 4.2 4.4 6.3.3.4.5.8.8 1.2.4.6.9 1.3 1.3 2 .6 1 1.3 2 1.8 3 .3.4.5.9.8 1.3 1.6 2.8 3.1 5.5 4.3 8.1.1.3.3.5.4.8.5 1.1.8 1.9 1 2.3v.1c0 .1.1.1.1.2v.1c.6.9.4 2-.4 2.7-18.4 21.7-48.7 28.5-70.8 30.3-33.2 2.3-96.7 3-157.7 3z" fill="#5b2448"/><path d="m747.1 1749.3c-4.1 0-7.5-3.4-7.5-7.5 0-1.1.3-2.3.8-3.3.8-1.6 19.8-39.6 66-52.9 4-1.1 8.1 1.2 9.3 5.2 1.1 4-1.2 8.1-5.1 9.3-39.6 11.4-56.5 44.7-56.7 45.1-1.4 2.5-4 4.1-6.8 4.1z" fill="#ffcf2d"/><path d="m779.9 1762c-4.1 0-7.5-3.4-7.5-7.5 0-1.2.3-2.3.8-3.4.8-1.6 20.9-40.1 68.2-51 4-.9 8.1 1.6 9 5.6s-1.6 8.1-5.6 9c-40.3 9.3-58.1 42.9-58.3 43.2-1.2 2.5-3.8 4.1-6.6 4.1z" fill="#ffcf2d"/><path d="m817.8 1772.2c-4.1 0-7.5-3.4-7.5-7.5 0-1.2.3-2.4.9-3.5.8-1.4 19.1-34.7 62.3-44.1 4-.9 8 1.7 8.9 5.7s-1.7 8-5.7 8.9c-36.3 7.9-52.2 36.3-52.3 36.6-1.3 2.4-3.8 3.9-6.6 3.9z" fill="#ffcf2d"/><path d="m48.8 1105.1c70.4 168.8 190.9 252.8 658.3 187.5-35.8 53.3-103.4 103.2-159.6 139.3 16-10 71.9 4.4 137.9 91 64 84 157.4 91.2 157.4 91.2l35-43s30.4-15 90-10c48 4 116-2 159-28 0 0-11.3-371.7-220-495-176-104-506-65-668-28-41.1 9.4-147 38-190 95z" fill="#21a0aa"/><path d="m598.7 974.5c-218 86-327.3 74.8-327.3 74.8-113.8 63.1-192.4 117.5-192.4 117.5-94.2-147.3-151.9-487.1 112.8-789.6l163.7 27c94.7 95.4 243.2 324.3 243.2 570.3z" fill="#f94f46"/><path d="m38.9 905.7s10.2-101.5 344.7-111.6c-40.8 93.9-348 201.4-344.7 111.6z" fill="#5b2448"/><path d="m346.7 4.2c-14.6-1.8-29.1 3.6-39.1 14.4-29-38.6-83.7-10.4-79.7 25.4-50.6-16.1-83.5 45.9-54.1 76.4 10.8 11.2 28.4 32.3 30.5 57.1 22.6 1.9 78.1 39.7 78.1 39.7s33.6-115.6 67-131c52.5-24.4 28.5-77.6-2.7-82z" fill="#5b2448"/><path d="m291.6 44.5c.6 1.2 2.1 1.8 3.3 1.1.7-.4 1.3-1.1 1.4-1.9 1.6-11.5 6.2-19.6 11.1-25.3-1-1.3-2-2.5-3.1-3.7-5.8 6.2-11.2 15.2-13 28.4 0 .4.1.9.3 1.4z" fill="#9b3c82"/><path d="m447 197c5.5 11.5 4 26.3-5.8 38.2-25.5 30.8-72.1 37.3-72.1 37.3s-29.2 74.8-14.9 131.3c0 0-59.4 13-162.4-26.6 0 0 38.6-64.2 45-116.7-24.1 5.8-58.7-7.6-65.1-40.9-3.6-19 10.7-38.4 30.1-42.5 19.9-4.3 38.3 6.4 58.7 16.5 23.1 11.4 22.3-5.2 21.7-26.4-.4-13.6-.8-29 5.3-40 13.7-24.9 61.8-41.2 61.8-41.2s2.6 6.1 6.4 13.5c5 9.8 12.2 22 18.3 25.5 10.6 6.2 17.1 1.8 19.7 7.6 2.2 5-1 13.3-3.2 17.3 15.8 33.5 43.6 20.2 56.5 47.1z" fill="#f4ada2"/><path d="m269.3 250.2c1-1 1-2.5.1-3.5s-2.5-1-3.5-.1c-8.8 8.4-21.9 12.5-29 14.2-.2 1.8-.5 3.5-.8 5.3 6.8-1.4 13.4-3.6 19.6-6.6 4.9-2.5 9.5-5.6 13.6-9.3z" fill="#9b3c82"/><path d="m317.6 260.3c-4.4 5.5 3.8 42.2 40.5 45.1.3 0 .5 0 .8.1 5-19.6 10.2-32.8 10.2-32.9s-29.5 1.5-51.5-12.3z" fill="#5b2448"/><path d="m296.4 136.8-.6-1.9c-.2-.6-.3-1.2-.5-1.8-.3-1.2-.4-2.4-.5-3.6-.2-2.4-.1-4.8.3-7.2.8-5 2.7-9.8 5.6-13.9 1.5-2.2 3.3-4.2 5.4-5.9s4.4-3.1 6.9-4.2c2.4-1 5-1.6 7.7-1.8 2.6-.2 5.2.1 7.6 1 3 1.1 4.5 4.3 3.5 7.3-.2.7-.6 1.3-1 1.8l-.7.8c-1.4 1.7-2.8 2.9-3.9 4.1-1.2 1.2-2.2 2.3-3.1 3.3-1.9 2.1-3.5 3.9-5.2 6.1-1.7 2.1-3.4 4.5-5.2 7.3l-2.8 4.3c-.5.8-1 1.5-1.5 2.3-.3.4-.5.8-.8 1.2-.2.4-.5.7-.9 1.1l-2.9 2c-2.1 1.5-5 1-6.5-1.1-.5-.4-.7-.8-.9-1.2z" fill="#5b2448"/><path d="m326.3 144.6c4.3-4 14.8-13.5 22.4-25.7 1.1-1.7 3.3-2.2 5-1.2 4.4 2.8 10.8 8.5 4.5 16.2-7.7 9.4-25.3 16-31.3 13.8-1-.4-1.4-1.5-1.1-2.4.1-.3.3-.5.5-.7z" fill="#5b2448"/><ellipse cx="322.4" cy="203.7" fill="#e57281" opacity=".52" rx="24.4" ry="24.4" transform="matrix(.8982 -.4396 .4396 .8982 -56.74 162.4803)"/><path d="m394.1 185.3c-.9 2.1-2.3 3.9-3.9 5.4s-3.5 2.7-5.5 3.6c-6.1 2.9-13.2 3-19.3 0-2-1-3.9-2.2-5.5-3.7-3.3-3-5.4-7.1-6-11.5-.1-1.2.8-2.3 2-2.5 1-.1 1.9.5 2.3 1.4v.1c1.2 3 3.3 5.6 5.8 7.6 1.3 1 2.7 1.8 4.1 2.4 1.5.6 3 1.1 4.6 1.3 3.2.4 6.4.1 9.5-1 3.1-1 5.9-2.8 8-5.2l.1-.1c.8-1 2.2-1.1 3.2-.3.7.5 1 1.5.6 2.5z" fill="#9b3c82"/><path d="m247.5 225.3c-1.1.5-2.3.2-3.1-.7-21-26.6-45.4-15.4-46.4-15-1.2.6-2.7.1-3.3-1.2-.6-1.2-.1-2.7 1.1-3.3.3-.1 29-13.4 52.5 16.4.9 1.1.7 2.7-.4 3.5 0 .2-.2.2-.4.3z" fill="#9b3c82"/><path d="m126.6 635.7c-.1.4-11-9.3-11-9-64.2 303.3 14.6 458.5 133.4 505.1 145.3 57.1 333.3-64.5 478.2-122.4 105.5-42.2 70-24.1 148.4-48.1 16.8-5.2 47.2-17.9 45.6-38.9 8.1-4.8 24.4-18.1 20.1-32.4 16-14.4 11.8-32.2 11.8-32.2 11.5-7.6 17.9-37.3-3.6-36.9-29.9.5-34.7 4.4-50.6 2.9-25.1-7.9 19.2-19.4 28.5-41.7 12.8-30.6-46-9.9-118.5 17.9-58.5 22-167.4 51.1-206.4 58.1-179.8 32.2-219 49.6-219 49.6 2.6-21 3.8-163.9 3.8-163.9-4.3-16.7-260.2-110.4-260.7-108.1z" fill="#f4ada2"/><path d="m98.7 794c-10.4 11.2-4.7 84.6-1.2 107.7 0 0 90.5-75.3 289.2-105.7l-61.8-69.8c0 .1-182.2 20.7-226.2 67.8z" fill="#9b3c82"/><path d="m228.9 433.3c-116 19.5-209.4 270.7-191 478.3 3.1-38.8 115.6-122.5 351.5-117.6 0 0 3.6-388.3-160.5-360.7z" fill="#f94f46"/><path d="m273 434c16.3 7.3 27 12.1 65.3 55.6 11.5 13.1 22.4 20.1 30.7 20.1 2.7 0 5.2-.8 7.3-2.3 5.3-3.9 12.4-16.3.9-55.4-3.7-12.7-9.1-26.8-16-42.1-2.2-2.3-4.5-4.6-6.7-6.8l-1-.2c10.2 21.7 16.2 38.3 19.7 50.2 7.8 26.5 8.1 45.5.6 51-6.5 4.8-19-1.8-32.6-17.2-38.8-44.2-49.9-49.1-66.6-56.7l-.7-.3c-22.7-10.2-74.3-23.3-101.6-29.9-.9 1.2-1.9 2.3-2.8 3.5 26.7 6.4 80.1 20 102.7 30.1z" fill="#fcb6b1"/><path d="m328.7 484.9c-6.1-11.1-12.6-20.6-19.5-28.6-21-22.5-47.5-34.3-80.9-28.7-3.2.5-6.3 1.3-9.5 2.1-20.8 6.6-40.9 20.3-60.1 41-39.4 42.9-73.7 114.8-96.4 202.6-21 81.1-29.5 166.2-23.6 233.9.7-2.6 1.8-5.4 3.4-8.3-4.6-65.9 4-147.1 24.1-224.6 22.5-87.2 56.5-158.5 95.6-200.9 27.5-29.8 56.8-44.7 87.2-44.2 29.9.4 55.6 19.8 76.3 57.6 16.7 30.6 30.2 73.1 40.1 126.4 15.1 81.5 17.1 163.7 17.3 180.7 1.3 0 2.7 0 4 .1-.2-16.8-2.2-99.5-17.4-181.4-10-53.8-23.6-96.8-40.6-127.7z" fill="#fcb6b1"/><circle cx="394.7" cy="466" fill="#fcb6b1" r="5.4"/><g fill="#9b3c82"><path d="m309 940.5c.4.6 1 .9 1.7.9.4 0 .8-.1 1.1-.3.4-.2 29.7-19.4 71.8-34.3.1-1.2.2-2.6.4-4.4-43.5 15.2-74 35.1-74.4 35.4-1 .6-1.2 1.8-.6 2.7z"/><path d="m725.9 826.9c-28.3 5.5-51.9 10.5-73.3 15.5-.1 0-.2 0-.3.1-6.8 1.7-13.4 3.2-19.8 4.7-21.4 5.3-41.2 10.7-62.5 16.7 23-3.7 50.8-9.5 83.2-17.6 29.9-7.3 56.7-14.8 72.7-19.4z"/><path d="m898.7 869.5c.1 1 1 1.8 2 1.8h.2c19.6-2 37.4-5.4 52.6-9.1-.1-2-.3-3.4-.4-4-15.2 3.8-33 7.2-52.6 9.2-1.1 0-1.9 1-1.8 2.1z"/><path d="m897.2 899.1c.1 1 1 1.7 2 1.7h.3c17.2-2.2 31.2-4.6 42.5-6.9-.1-1.3-.3-2.6-.7-3.9 0 0 .1-.1.1-.1-11.2 2.3-25.2 4.7-42.5 6.9-1.1.2-1.8 1.2-1.7 2.3z"/><path d="m893.6 928.9c.1 1 1 1.8 2 1.8h.2c9.4-1.1 17.8-2.5 25.2-4.2.2-1.3.2-2.7.1-4 .1-.1.2-.1.3-.2-7.6 1.7-16.3 3.3-26 4.4-1.1.1-1.9 1.1-1.8 2.2z"/></g><path d="m756.5 1225.3c-.9-.6-2.2-.3-2.8.6-15.9 24.7-37.2 50-53.2 67.7 2-.3 4.1-.6 6.1-.8 15.7-17.6 35.4-41.3 50.4-64.7.7-1 .4-2.2-.5-2.8z" fill="#6ce0dc"/><path d="m1010.4 1179.6c-5.3-30.6-15-55.4-25.2-74.6-4.3-5-8.7-9.9-13.3-14.7 13.2 20.3 27.6 50.1 34.5 89.9 8.5 49.5 3.9 104.9-13.6 164.7-20.4 69.5-58.7 145.3-113.7 225.6 1.3-.5 3.4-1.4 6.4-2.4 53.5-78.9 90.9-153.5 111-222.1 18-60.3 22.6-116.3 13.9-166.4z" fill="#6ce0dc"/><path d="m812.8 577.5c18.7-18.9 36.8-28.3 53.8-27.9-2.2-3.6-7.5-10.6-17.2-13.3-13.4-3.7-30.3 1.9-50.1 16.7-12 8.9-20.9 17.5-25.8 24.9-3.8 5.8-4.9 10.5-3 13.1 3.4 4.6 19.1 3.6 42-13.3.1-.1.2-.1.3-.2z" fill="none"/><path d="m833.8 607.7c.2-.3.3-.5.5-.8 11.5-16.6 25.6-26.5 42-29.7 1.9-.4 3.8-.6 5.5-.8-.1-.1-.3-.2-.4-.3 0-1.3 0-2.5 0-3.7-1.8.2-3.6.4-5.6.8-12 2.3-29.5 9.5-44.7 31.3-.3.4-.6.8-.8 1.2-21.4 16.3-36.8 20.8-40.4 16.8-2.6-2.9-.6-14.6 23.7-40.1 18-19 36-29 52.1-29h.6c1.9 0 3.7.2 5.4.5.1-.8.1-1.7 0-2.5-.1-.6-.2-1.1-.4-1.7-.2-.5-.4-1-.6-1.4-.1-.1-.1-.2-.2-.3-.3-.5-.6-1-1-1.5 0 0 0 0 .1-.1-2.8-4.4-8.7-11.3-19-14.1-14.7-4-32.7 1.8-53.6 17.3-19.7 14.6-28.5 26.1-30.7 34.2-2.5-10.2-6.5-20.8-12.1-31.6-4-7.8-8.5-14.9-12.8-21.2-2.9-1.5-5.7-3.2-8.4-4.9 5.8 7.7 12.2 17.3 17.7 28.1 18.9 36.5 19.6 68.4 2.1 94.9-.6.9-.4 2.2.6 2.8.3.2.7.3 1.1.3.6 0 1.3-.3 1.7-.9 11-16.7 15.1-36 12.2-57 2.1 2.1 5.2 3 8.9 3 6.9 0 16-3.3 25.2-8.4-15.2 17.7-20.6 30.4-15.4 36.3 1.6 1.8 4 2.6 7.2 2.6 7.1 0 17.9-4.5 30.4-12.9-6.4 10.8-10.7 21.6-5.9 25.9 1.2 1.1 2.8 1.6 4.7 1.6 11.1 0 32.2-17 45-28.3.8-.7.9-2 .2-2.8s-2-.9-2.8-.2c-29.5 26.1-41.9 28.9-44.4 26.7-1.9-1.7-1.3-9.7 12-29.3-0-.1.2-.5.3-.8zm-63.3-16.8c-1.9-2.5-.8-7.3 3-13.1 4.8-7.4 13.8-16 25.8-24.9 19.8-14.7 36.7-20.3 50.1-16.7 9.7 2.6 15 9.6 17.2 13.3-17-.4-35.1 9-53.8 27.9-.1 0-.2.1-.3.2-23 16.9-38.7 17.9-42 13.3z" fill="#9b3c82"/></svg></g><!--ITEM: Illustration component 4--><g transform="translate(1158.3333333333333 1194.4444444444443) rotate(0.0 204.16666666666663 243.05555555555554)  scale(1.30541346973572 1.3025485292366321)"><svg width="312.8" height="373.2" viewBox="0.0 0.0 312.8 373.2"><path d="m152 58.9c-3.9 4.6-9.5 9.4-16.5 13.5-.3.2-.6.3-.9.5-8.4 5-18.6 9.1-29.8 11.4-.8.2-1.6.3-2.4.5-31 5.6-61.7-6-68.7-39.8-7.7-37.4 16.4-49.2 37.6-40.6 10.8 4.3 23.1 14.9 38 22.6 5.4 2.8 11.1 5.3 17.2 7 5.2 1.4 9.6 1.8 13.5 2 6.9.4 12 .3 16 4.9 3.7 4.3 1.9 11.1-4 18z" fill="#5b2448"/><path d="m282.5 125.5c0-1.5-.1-2.9-.1-4.4-1.9-53.1-10.4-91-21.3-100.6-1.5-1.3-3-2.1-4.6-2.3-4.5-.6-8.6 1.5-12.1 5.8-6.9 8.3-11.9 25.1-13.2 46.4-10.6-18.2-36-46.3-64.6-44.2-6.6.5-12.9 2.3-19 5.3-2.6 1.3-5 2.7-7.5 4.4-6 4.1-11.6 9.5-16.7 15.9-3.6 4.5-6.9 9.5-10 14.9s-5.9 11.3-8.6 17.6c-.4 1-.8 2-1.2 3-1.9 4.9-3.6 10-5.3 15.4-1.2 3.9-2.1 7.6-2.9 11.4-6.6 29.5-4.8 55.3-17.3 88-2 5.3-4.4 10.8-7.3 16.5-2.6 5.2-5.6 10.5-9.1 16.1-5.2 8.4-11.9 16.4-19.4 24.1-.2.2-.3.3-.5.5-1.1 1.1-2.2 2.3-3.3 3.4-.1.1-.2.1-.3.2-6.2 6.2-12.9 12.3-19.7 18.5-.6 37.3-1.5 76.1-2.8 86.2 0 0 .1 0 .3-.1 3.4-1.4 35.5-13.9 148.4-36.2 9.8-1.9 20.2-4 31.3-6 7.6-.4 16.5-.1 26.1 1.7 11.7 2.1 24.2 6.4 36.2 14.4 1.1-9.5 2.3-19.2 3.7-29 1-7.2 2.1-14.5 3.1-21.8 1-6.9 2.1-13.9 3.2-20.9 3.8-24.6 7.5-49.4 10.3-73.4 2.6-22.1 4.2-43.6 4.2-63.7.1-2.3.1-4.7 0-7.1z" fill="#ffcf2d"/><path d="m265 110.4c-.3 2.1-1.1 4.1-2.2 5.9-1.1 1.7-2.5 3.4-4.1 4.7-4.8 4.3-11.2 6.1-17.6 5.1-2-.3-4.1-1-6-1.9-3.8-1.8-6.8-4.9-8.5-8.9-.4-1 .1-2.1 1.1-2.5.8-.4 1.7-.1 2.3.6v.1c2 2.5 4.6 4.5 7.5 5.6 1.5.6 3 .9 4.5 1.2 1.5.2 3.1.2 4.6-.1 3.1-.5 6.1-1.7 8.6-3.6 2.6-1.8 4.7-4.3 6-7.1v-.1c.4-.9 1.6-1.5 2.5-1.1s1.4 1.2 1.3 2.1z" fill="#9b3c82"/><g fill="#5b2448"><path d="m261.7 14.2c0 8.3-3 15.6-8.5 16.1s-9.8-5.9-11.6-14.1c-1.5-7.3.8-15.4 8.5-16.1 7.8-.8 11.5 5.9 11.6 14.1z"/><path d="m171.3 152.1c-.6 2.1-1.2 4.2-2 6.4-14.6 43.6-48.5 79.4-98.6 60.3-.1-.1-.3-.1-.4-.2-56-21.8-47-63.1-28-78.6 11.4-9.3 32-12.8 53-25.8 8.7-5.4 17.5-12.4 25.7-22.1 6.7-6.5 10.6-13.1 13.9-18.6.2-.3.4-.7.6-1 4.1-6.7 7.6-11.8 15-13.3.5-.1 1-.2 1.5-.2 19-1.6 32.9 45.2 19.3 93.1z"/><ellipse cx="212.1" cy="74.1" rx="8.4" ry="11.7" transform="matrix(.9951 -.09928752 .09928752 .9951 -6.3095 21.4259)"/></g><path d="m294.1 371.8c-5-2.1-10.8-6.5-17.1-13.7-6-6.8-12.4-12.3-19-16.6-12-8-24.6-12.3-36.2-14.4-9.6-1.8-18.5-2-26.1-1.7-13.5.6-22.5 3.3-22.5 3.3s14.3-38 36.8-59.1c16-15 36.1-21.5 58.1.2 1.4 1.3 2.7 2.8 4.1 4.3 9.2 10.5 16.7 20.6 22.5 30.2 10.5 17.2 15.9 32.5 17.4 44.2 2.3 18.8-5.2 28.7-18 23.3z" fill="#ffcf2d"/><path d="m239.3 250.7c-.4 1 .2 2.1 1.2 2.5.1.1 13.5 4.6 27.5 16.5.2-1.5.5-3 .7-4.5-13.8-11.2-26.2-15.5-26.9-15.7-1-.4-2.1.2-2.5 1.2z" fill="#9b3c82"/><path d="m42.5 340.8c21.4-31 24-66.2 5.8-78.7-.7-.4-2.9-2-5.6-3.7-5.5 5.6-13.2 12.7-25.3 23.3l-2 86h.1c7.9-6.8 21.6-19.1 27-26.9z" fill="#5b2448"/><path d="m162.1 318.6c-.1 1.1.7 2.1 1.8 2.2.2 0 14.4 1.2 30.2 4.8 4.5-.3 9.9-.4 15.2-.1-20.1-6.7-43.9-8.6-45-8.7s-2.1.7-2.2 1.8z" fill="#9b3c82"/></svg></g><!--ITEM: Illustration component 5--><g transform="translate(1827.7777777777776 1122.2222222222222) rotate(0.0 34.722222222222285 98.61111111111109)  scale(1.2883941455370052 1.2740453631926496)"><svg width="53.9" height="154.8" viewBox="0.0 0.0 53.9 154.8"><path d="m52 20.1c-2.7-7.4-8.2-13.5-15.2-16.9-4-2.1-8.6-3.2-13.5-3.2-9.3 0-17.7 4.2-23.3 10.8 5.1-1.6 10.1-3.1 15.2-4.3 1.8-.6 3.7-1 5.7-1.2.8-.1 1.6-.1 2.5-.1 11.7 0 21.5 7.9 24.4 18.6.6 2.1.9 4.4.9 6.7 0 14-11.3 25.3-25.3 25.3-6.8 0-12.9-2.7-17.5-7-1.6 1-3 1.9-4.5 2.9 5.6 5.7 13.3 9.3 21.9 9.3 16.9 0 30.5-13.7 30.5-30.5.1-3.6-.6-7.1-1.8-10.4z" fill="#5b2448"/><path d="m23.9 48.7c-11.5 0-20.8 9.3-20.8 20.8s9.3 20.8 20.8 20.8 20.8-9.3 20.8-20.8-9.3-20.8-20.8-20.8zm0 21.9c-4.1 0-7.4-3.3-7.4-7.4s3.3-7.4 7.4-7.4 7.4 3.3 7.4 7.4-3.3 7.4-7.4 7.4z" fill="#ffcf2d"/><circle cx="23.9" cy="69.5" fill="#ffcf2d" r="20.8"/><path d="m52 20.1c-2.7-7.4-8.2-13.5-15.2-16.9-4-2.1-8.6-3.2-13.5-3.2-9.3 0-17.7 4.2-23.3 10.8 5.1-1.6 10.1-3.1 15.2-4.3 1.8-.6 3.7-1 5.7-1.2.8-.1 1.6-.1 2.5-.1 11.7 0 21.5 7.9 24.4 18.6.6 2.1.9 4.4.9 6.7 0 14-11.3 25.3-25.3 25.3-2.5.2-2.5 5 0 5.2 16.9 0 30.5-13.7 30.5-30.5 0-3.6-.7-7.1-1.9-10.4z" fill="#5b2448"/><path d="m24.8 112.5c0 .7.3 1.3.7 1.8.4.4 1.1.7 1.7.7h2.1c1 0 1.9.8 1.9 1.9v3.2c0 1-.8 1.8-1.8 1.8-1.2 0-2.3.3-3.3 1.1-1.9 1.4-1.7 3.2-.7 4.1.4.4 1 .7 1.7.7h2.6c.8 0 1.5.7 1.5 1.5v3.9c0 .8-.7 1.5-1.5 1.5-2.7 0-4.9 2.2-4.9 4.9 0 .7.3 1.3.7 1.8.4.4 1.1.7 1.7.7h2.8c.7 0 1.2.5 1.2 1.2v2.2c0 5.3-4.3 9.6-9.6 9.5-2.9 0-5.2-2.4-5.2-5.3v-71.5h14.8v28.3c0 .6-.5 1-1 1h-.5c-2.7.1-4.9 2.3-4.9 5z" fill="#ffcf2d"/></svg></g><!--ITEM: Illustration component 6--><g transform="translate(1477.7777777777778 119.44444444444444) rotate(0.0 529.1666666666665 576.3888888888889)  scale(1.2711002643888547 1.2712535209127638)"><svg width="832.612" height="906.804" viewBox="0.0 0.0 832.612 906.804"><path d="m825.813 278.716c44.985 261.64-237.946 558.649-361.69 617.418-33.862 16.082-72.218 19.572-22.678-78.766 43.555-86.456 69.906-197.672-68.063-219.543-272.937-43.266-390.334-168.209-368.91-319.109 21.482-151.309 183.864-276.716 410.671-276.716s384.774 126.1 410.67 276.716z" fill="#fff"/><path d="m434.421 906.844c-5.832 0-10.364-1.637-13.565-4.914-10.767-11.02-4.615-38.974 18.804-85.461 15.77-31.303 26.308-59.995 31.32-85.279 6.169-31.112 3.983-57.259-6.497-77.715-14.498-28.298-45.253-46.356-91.413-53.674-66.783-10.586-126.081-26.406-176.248-47.019-48.308-19.85-88.557-44.3-119.629-72.671-30.204-27.581-51.864-58.961-64.377-93.272-12.282-33.675-15.756-70.147-10.324-108.404 10.76-75.785 56.633-145.554 129.17-196.455 36.81-25.831 79.229-45.997 126.08-59.938 49.15-14.626 102.108-22.042 157.401-22.042 108.422 0 205.878 28.44 281.833 82.245 71.29 50.501 117.745 120.156 130.808 196.132 10.561 61.419 3.761 128.563-20.21 199.565-20.688 61.28-53.559 124.099-97.697 186.712-37.737 53.533-82.465 104.874-129.347 148.473-42.423 39.453-83.459 69.574-115.548 84.814-12.492 5.932-22.705 8.903-30.561 8.903zm-19.278-902.844c-54.906 0-107.48 7.36-156.261 21.876-46.437 13.819-88.467 33.796-124.923 59.378-71.621 50.259-116.905 119.065-127.506 193.743-5.338 37.599-1.934 73.42 10.121 106.471 12.29 33.699 33.593 64.547 63.316 91.688 30.726 28.055 70.578 52.255 118.452 71.926 49.88 20.495 108.877 36.23 175.354 46.768 47.491 7.529 79.233 26.303 94.347 55.801 19.781 38.612 11.434 94.67-24.812 166.617-27.703 54.991-25.903 74.328-19.516 80.866 6.017 6.157 20.062 4.448 39.549-4.807 31.731-15.069 72.409-44.947 114.541-84.129 46.682-43.414 91.221-94.539 128.801-147.849 43.917-62.298 76.611-124.772 97.177-185.686 23.756-70.366 30.505-136.851 20.059-197.608-12.882-74.925-58.758-143.662-129.178-193.546-75.275-53.324-171.932-81.509-279.521-81.509z" fill="#66b0f0"/></svg></g><!--ITEM: Illustration component 7--><g transform="translate(1700.0 247.2222222222222) rotate(0.0 291.6666666666665 229.16666666666669)  scale(1.265090725077712 1.2633223079750093)"><svg width="461.1" height="362.8" viewBox="0.0 0.0 461.1 362.8"><g fill="#21a0aa"><ellipse cx="393.8" cy="336.3" rx="26" ry="23.4" transform="matrix(.9958 -.09130213 .09130213 .9958 -29.0604 37.3627)"/><ellipse cx="419.8" cy="313.1" rx="26" ry="23.4" transform="matrix(.9958 -.09130213 .09130213 .9958 -26.8335 39.638)"/><path d="m433 314c14.3-1.3 26.9 8.1 28 20.9s-9.5 24.4-23.8 25.7-60.4 3.4-61.5-9.5c-1.2-12.8 43-35.8 57.3-37.1z"/></g><path d="m409.4 362h-328.1v-219.3l164-114.8 164.1 114.8z" fill="#ffcf2d"/><path d="m440.1 140.9-189.7-139.2c-3-2.2-7.2-2.2-10.2 0l-189.6 139.2c-8.6 6.3-10.4 18.4-4.1 27 6.3 8.6 18.4 10.4 27 4.1l168.6-124.6c1.9-1.4 4.5-1.4 6.4 0l168.6 124.6c8.6 6.3 20.7 4.5 27-4.1 6.4-8.6 4.5-20.6-4-27z" fill="#9b3c82"/><path d="m366 362h-88.6v-165.5c0-2.2 1.8-3.9 3.9-3.9h80.7c2.2 0 3.9 1.8 3.9 3.9v165.5z" fill="#f94f46"/><path d="m131.5 192.5h88.6v98.2h-88.6z" fill="#66b0f0"/><path d="m220.2 292.7h-88.6c-1.1 0-2-.9-2-2v-98.2c0-1.1.9-2 2-2h88.6c1.1 0 2 .9 2 2v98.2c0 1.1-.9 2-2 2zm-86.7-4h84.6v-94.2h-84.6z" fill="#9b3c82"/><path d="m175.9 292.7c-1.1 0-2-.9-2-2v-94.3c0-1.1.9-2 2-2s2 .9 2 2v94.3c0 1.1-.9 2-2 2z" fill="#9b3c82"/><path d="m220.2 292.7h-88.6c-1.1 0-2-.9-2-2v-98.2c0-1.1.9-2 2-2h88.6c1.1 0 2 .9 2 2v98.2c0 1.1-.9 2-2 2zm-86.7-4h84.6v-94.2h-84.6z" fill="#9b3c82"/><ellipse cx="36.1" cy="327.6" fill="#21a0aa" rx="36.1" ry="32.5" transform="matrix(.9958 -.09130213 .09130213 .9958 -29.7633 4.6618)"/><ellipse cx="72.1" cy="295.4" fill="#21a0aa" rx="36.1" ry="32.5" transform="matrix(.9958 -.09130201 .09130201 .9958 -26.6734 7.8187)"/><path d="m90.4 296.7c19.8-1.8 37.3 11.2 38.9 29.1s-13.1 33.8-33 35.7c-19.8 1.8-83.8 4.7-85.4-13.2-1.6-18 59.6-49.8 79.5-51.6z" fill="#21a0aa"/></svg></g></svg>