<svg enable-background="new 0 0 2300 2300" height="2300" viewBox="0 0 2300 2300" width="2300" xmlns="http://www.w3.org/2000/svg" xmlns:xlink="http://www.w3.org/1999/xlink"><linearGradient id="a"><stop offset=".0056" stop-color="#c2d0db"/><stop offset="1" stop-color="#8a99ad"/></linearGradient><linearGradient id="b" gradientUnits="userSpaceOnUse" x1="1368.709" x2="669.8398" xlink:href="#a" y1="1729.6693" y2="1764.8727"/><linearGradient id="c" gradientUnits="userSpaceOnUse" x1="2004.4918" x2="583.0272" xlink:href="#a" y1="1061.9122" y2="1143.6498"/><linearGradient id="d" gradientUnits="userSpaceOnUse" x1="1969.171" x2="612.8718" y1="1102.5404" y2="1115.7368"><stop offset=".2012" stop-color="#fff0f7"/><stop offset=".9944" stop-color="#c4b2bb"/></linearGradient><linearGradient id="e"><stop offset="0" stop-color="#e2d7dd" stop-opacity=".76"/><stop offset=".9944" stop-color="#877f82" stop-opacity=".6"/></linearGradient><linearGradient id="f" gradientUnits="userSpaceOnUse" x1="1338.9801" x2="493.1913" xlink:href="#e" y1="1158.1957" y2="1160.4456"/><linearGradient id="g" gradientUnits="userSpaceOnUse" x1="1248.4243" x2="124.9294" y1="1124.3901" y2="1122.7711"><stop offset=".0615" stop-color="#fff4db"/><stop offset="1" stop-color="#e8d5ae"/></linearGradient><linearGradient id="h" gradientTransform="matrix(-1 0 0 1 15644.3164 0)" gradientUnits="userSpaceOnUse" x1="15340.8965" x2="14220.8184" y1="745.5237" y2="725.3364"><stop offset=".0559" stop-color="#8170d6"/><stop offset=".9944" stop-color="#cfade9"/></linearGradient><linearGradient id="i" gradientUnits="userSpaceOnUse" x1="519.9606" x2="375.6848" y1="1395.1204" y2="1407.5435"><stop offset=".0615" stop-color="#9ac460"/><stop offset=".7413" stop-color="#76962e"/><stop offset="1" stop-color="#6a8743"/></linearGradient><linearGradient id="j" gradientUnits="userSpaceOnUse" x1="991.1013" x2="801.0064" y1="1387.2439" y2="1424.2434"><stop offset=".0615" stop-color="#ff6a69"/><stop offset=".9944" stop-color="#942c29"/></linearGradient><linearGradient id="k" gradientUnits="userSpaceOnUse" x1="789.1622" x2="572.3725" y1="1381.3907" y2="1422.9464"><stop offset=".095" stop-color="#fc0"/><stop offset=".5447" stop-color="#ebac00"/><stop offset=".9944" stop-color="#a67b08"/></linearGradient><linearGradient id="l" gradientUnits="userSpaceOnUse" x1="749.6041" x2="135.3617" xlink:href="#e" y1="1089.6597" y2="1091.8241"/><linearGradient id="m"><stop offset=".095" stop-color="#fff200"/><stop offset=".7515" stop-color="#ebac00"/><stop offset=".9944" stop-color="#b38509"/></linearGradient><linearGradient id="n" gradientUnits="userSpaceOnUse" x1="675.3707" x2="44.8359" xlink:href="#m" y1="1067.4882" y2="1074.1696"/><linearGradient id="o" gradientUnits="userSpaceOnUse" x1="1528.6769" x2="568.0177" xlink:href="#e" y1="1017.1247" y2="1031.0663"/><linearGradient id="p"><stop offset="0" stop-color="#e2d7dd" stop-opacity=".76"/><stop offset=".9944" stop-color="#4d484a" stop-opacity=".3"/></linearGradient><linearGradient id="q" gradientUnits="userSpaceOnUse" x1="846.3378" x2="742.8165" xlink:href="#p" y1="763.6544" y2="771.277"/><linearGradient id="r"><stop offset="0" stop-color="#e06eb1"/><stop offset=".9944" stop-color="#ffccde"/></linearGradient><linearGradient id="s" gradientUnits="userSpaceOnUse" x1="803.5602" x2="1490.3374" xlink:href="#r" y1="981.0483" y2="959.2502"/><linearGradient id="t" gradientUnits="userSpaceOnUse" x1="1982.3461" x2="1542.642" xlink:href="#p" y1="1406.6315" y2="1414.3031"/><linearGradient id="u" gradientUnits="userSpaceOnUse" x1="1524.2804" x2="2035.0457" y1="1837.5433" y2="1343.8719"><stop offset="0" stop-color="#f9673a"/><stop offset=".9944" stop-color="#ff966c"/></linearGradient><linearGradient id="v"><stop offset="0" stop-color="#eef5ff"/><stop offset="1" stop-color="#66a4ed"/></linearGradient><linearGradient id="w" gradientUnits="userSpaceOnUse" x1="1849.0006" x2="1651.3192" xlink:href="#v" y1="573.7067" y2="577.8746"/><linearGradient id="x" gradientUnits="userSpaceOnUse" x1="1703.8158" x2="1550.99" xlink:href="#v" y1="412.4163" y2="524.8837"/><linearGradient id="y" gradientUnits="userSpaceOnUse" x1="1507.9792" x2="1621.837" xlink:href="#a" y1="508.08" y2="470.6066"/><linearGradient id="z" gradientUnits="userSpaceOnUse" x1="1830.1074" x2="2106.1311" xlink:href="#m" y1="1458.4236" y2="1727.9362"/><linearGradient id="A" gradientUnits="userSpaceOnUse" x1="2142.2092" x2="2073.9343" xlink:href="#r" y1="1429.9307" y2="1381.8331"/><path d="m1276.724 1593.756h-372.426l-55.261 272.847c-2.635 13.009 7.309 25.169 20.582 25.169h443.029c13.31 0 23.263-12.225 20.564-25.259z" fill="url(#b)"/><path d="m1800.015 605.465v994.931c0 24.289-19.69 43.979-43.979 43.979h-1329.39c-24.289 0-43.979-19.69-43.979-43.979v-971.952c0-24.289 19.69-43.979 43.979-43.979h1352.369c11.598 0 21 9.402 21 21z" fill="url(#c)"/><path d="m1748.45 1616.807h-1314.211c-11.598 0-21-9.402-21-21v-960.633c0-11.598 9.402-21 21-21h1097.989l80.252-20.283 117.474 20.283h32.497c3.866 0 7 3.134 7 7v974.632c-.001 11.599-9.403 21.001-21.001 21.001z" fill="url(#d)"/><path d="m1222.838 783.018v753.247c0 24.966-20.235 45.201-45.2 45.201h-764.399v-843.649h764.399c24.965 0 45.2 20.235 45.2 45.201z" fill="url(#f)"/><path d="m1247.899 786.241v702.336c0 24.957-20.253 45.207-45.207 45.207h-1029.103c-24.954 0-45.207-20.25-45.207-45.207v-702.336c0-24.954 22.095-74.339 47.049-74.339l1010.135 34.128c24.955-.001 62.333 15.256 62.333 40.211z" fill="url(#g)"/><path d="m128.382 735.339v50.902h1119.517v-50.902c0-24.954-20.253-45.207-45.207-45.207h-1029.103c-24.954-0-45.207 20.252-45.207 45.207z" fill="url(#h)"/><circle cx="182.794" cy="738.186" fill="#ff6260" r="23.025"/><circle cx="260.181" cy="738.186" fill="#fcca00" r="23.025"/><circle cx="332.581" cy="738.186" fill="#8cc441" r="23.025"/><circle cx="454.212" cy="1400.782" fill="url(#i)" r="72.401"/><path d="m499.945 1386.377-16.422 3.723c-.044.01-.087-.024-.087-.069v-8.403c0-5.19-4.207-9.397-9.397-9.397h-48.13c-5.19 0-9.397 4.207-9.397 9.397v38.308c0 5.19 4.207 9.397 9.397 9.397h48.13c5.19 0 9.397-4.207 9.397-9.397v-9.991c0-.044.04-.078.084-.07l16.539 3.106c1.928.362 3.711-1.117 3.711-3.079v-20.47c0-2.01-1.865-3.499-3.825-3.055z" fill="#fff4db"/><circle cx="921.547" cy="1400.782" fill="url(#j)" r="72.401"/><path d="m970.14 1402.355.086-.002c-.074-.112-.153-.208-.228-.318-.466-.884-1.008-1.744-1.675-2.547-.169-.204-.372-.357-.549-.548-28.275-37.07-80.474-20.11-89.639 3.236-2.432 4.499-1.902 10.459 1.821 14.942 4.776 5.749 12.931 6.852 18.214 2.464 4.45-3.697 5.398-10.097 2.748-15.464 0 0 2.062-9.82 22.029-9.465 15.3.272 23.391 8.31 23.391 8.31-1.112 4.052-.207 8.738 2.852 12.42 4.776 5.749 12.931 6.852 18.214 2.464 4.457-3.705 5.401-10.119 2.736-15.492z" fill="#fff4db"/><circle cx="688.002" cy="1400.782" fill="url(#k)" r="78.084"/><path d="m688.292 1423.099c-8.973 0-16.248-7.274-16.248-16.248v-39.444c0-8.974 7.274-16.248 16.248-16.248 8.654 0 15.669 7.015 15.669 15.669v40.602c0 8.654-7.015 15.669-15.669 15.669z" fill="#fff4db"/><path d="m688.002 1447.609c-1.657 0-3-1.343-3-3v-31.346c0-1.657 1.343-3 3-3s3 1.343 3 3v31.346c0 1.657-1.343 3-3 3z" fill="#fff4db"/><path d="m697.479 1449.37h-19.072c-1.657 0-3-1.343-3-3s1.343-3 3-3h19.072c1.657 0 3 1.343 3 3s-1.343 3-3 3z" fill="#fff4db"/><path d="m689.699 1431.937h-3.111c-17.178 0-27.03-8.536-27.03-23.421v-17.323c0-1.657 1.343-3 3-3s3 1.343 3 3v17.323c0 14.398 11.436 17.421 21.03 17.421h3.111c5.157 0 21.985-1.266 21.985-17.554v-17.19c0-1.657 1.343-3 3-3s3 1.343 3 3v17.19c0 8.184-3.351 14.678-9.691 18.782-4.755 3.077-11.252 4.772-18.294 4.772z" fill="#fff4db"/><path d="m655.335 1266.073h-457.977c-12.11-3.132-21.927-12.949-21.927-25.059v-303.562c0-12.11 9.817-21.927 21.927-21.927h457.977c12.11 0 21.927 9.817 21.927 21.927v303.562c-0 12.109-9.817 21.926-21.927 25.059z" fill="url(#l)"/><path d="m673.572 1243.651h-459.83c-11.598 0-21-9.402-21-21v-305.415c0-11.598 9.402-21 21-21h459.831c11.598 0 21 9.402 21 21v305.415c-.001 11.598-9.403 21-21.001 21z" fill="url(#n)"/><circle cx="443.661" cy="1016.052" fill="#fff4db" r="51.726"/><path d="m530.617 1175.561h-173.92c-4.852 0-8.776-4.14-8.328-8.971 4.52-48.674 45.451-86.755 95.309-86.755 49.819 0 90.747 38.08 95.267 86.755.449 4.831-3.476 8.971-8.328 8.971z" fill="#fff4db"/><path d="m1415.384 1229.786-2.01-395.36c0-24.96-20.23-45.2-45.2-45.2l-645.58-2.99v2.99 450.828c0 10.627 3.645 21.93 21.93 21.93l648.85-.309c22-5.989 22.07-19.699 22.01-31.889z" fill="url(#o)"/><path d="m722.597 786.241v-11.103c0-12.11 9.817-21.927 21.927-21.927h39.527v33.031z" fill="url(#q)"/><path d="m1434.629 1209.082h-645.067c-11.598 0-21-9.402-21-21v-433.653c0-11.598 9.402-21 21-21h645.066c11.598 0 21 9.402 21 21v433.653c.001 11.598-9.401 21-20.999 21z" fill="url(#s)"/><circle cx="1112.101" cy="897.472" fill="#fff4db" r="70.82"/><path d="m1233.775 1115.858h-243.359c-5.204 0-9.378-4.415-9.002-9.606 4.915-67.916 61.537-121.454 130.711-121.454 69.119 0 125.738 53.538 130.653 121.454.375 5.191-3.799 9.606-9.003 9.606z" fill="#fff4db"/><path d="m2002.045 1273.468 64.192 22.424v280.862c0 22.395-18.288 40.55-40.848 40.55h-551.553v-373.496c0-25.034 24.516-40.516 47.052-40.549l454.053-.643z" fill="url(#t)"/><path d="m2065.673 1925.992h-515.871c-17.673 0-32-14.327-32-32v-660.839c0-17.673 14.327-32 32-32l476.056-.002c16.93 41.511 34.146 55.284 71.821 71.821l-.005 621.02c-.001 17.674-14.328 32-32.001 32z" fill="url(#u)"/><path d="m2097.678 1272.973h-35.91c-19.833 0-35.91-16.078-35.91-35.91v-35.91l.323.323z" fill="#ff6260"/><g fill="#fff4db"><path d="m1618.243 1751.707c-2.73 0-4.961-2.195-4.998-4.933-.037-2.761 2.171-5.03 4.933-5.066l156.383-2.093c2.775-.04 5.03 2.171 5.066 4.933.037 2.761-2.171 5.03-4.933 5.066l-156.383 2.093c-.022 0-.045 0-.068 0z"/><path d="m1997.188 1414.96h-378.943c-2.761 0-5-2.239-5-5s2.239-5 5-5h378.943c2.761 0 5 2.239 5 5s-2.239 5-5 5z"/><path d="m1997.188 1667.521h-378.943c-2.761 0-5-2.239-5-5s2.239-5 5-5h378.943c2.761 0 5 2.239 5 5s-2.239 5-5 5z"/><path d="m1990.923 1583.334h-372.678c-2.761 0-5-2.239-5-5s2.239-5 5-5h372.678c2.761 0 5 2.239 5 5s-2.239 5-5 5z"/><path d="m1997.188 1499.147h-378.943c-2.761 0-5-2.239-5-5s2.239-5 5-5h378.943c2.761 0 5 2.239 5 5s-2.239 5-5 5z"/></g><path d="m1729.953 614.174h-197.725v-41.076c0-17.3 14.024-31.324 31.324-31.324h135.077c17.3 0 31.324 14.024 31.324 31.324z" fill="url(#w)"/><circle cx="1627.096" cy="468.876" fill="url(#x)" r="94.868"/><circle cx="1627.096" cy="468.876" fill="url(#y)" r="59.917"/><path d="m1790.919 1685.225 297.183-264.462 47.14-.781-7.396 45.443-297.183 264.462c-.678.604-1.462 1.016-2.3 1.22l-40.918 10.287s-14.965.874-13.703-2.473l.714-12.122 14.969-39.447c.315-.793.816-1.523 1.494-2.127z" fill="url(#z)"/><path d="m2088.103 1420.763 39.264-34.941c5.065-4.507 12.346-4.599 16.256-.206l25.58 28.745c3.909 4.393 2.973 11.615-2.092 16.122l-39.265 34.941z" fill="url(#A)"/><path d="m1790.919 1685.225 2.551-2.27 39.745 44.662-2.551 2.27c-.678.604-1.462 1.016-2.3 1.22l-40.918 10.287s-14.546.979-13.283-2.368l.295-12.227 14.969-39.447c.313-.793.814-1.523 1.492-2.127z" fill="#fff4db"/><path d="m1774.457 1726.799 12.988 14.595-12.817 3.22c-3.471.865-6.12-2.111-4.858-5.459z" fill="#004751"/><path d="m1591.364 490.271c-.526 0-1.037-.277-1.312-.769-3.499-6.271-5.348-13.403-5.348-20.626 0-6.737 1.534-13.178 4.56-19.145.375-.739 1.279-1.034 2.016-.659.739.375 1.034 1.277.66 2.016-2.811 5.543-4.236 11.528-4.236 17.789 0 6.713 1.718 13.34 4.968 19.165.403.723.144 1.637-.579 2.041-.231.127-.482.188-.729.188z" fill="#dbceb1"/><path d="m1610.522 507.77c-.203 0-.41-.042-.607-.129-4.141-1.838-7.947-4.32-11.314-7.379-.613-.557-.659-1.506-.102-2.119s1.505-.659 2.119-.102c3.129 2.843 6.667 5.15 10.514 6.857.757.336 1.099 1.222.763 1.98-.249.559-.798.892-1.373.892z" fill="#dbceb1"/></svg>