<svg xmlns="http://www.w3.org/2000/svg" viewBox="0 0 1150 1000" width="1150" height="1000"><g transform="translate(-20.0 765.0) rotate(89.99999999999996 205.5 -134.0) scale(0.37384095659624633 -0.37265698870904945)"><svg width="1099.398" height="719.16" viewBox="0 0 1099.398 719.16"><linearGradient id="a" gradientUnits="userSpaceOnUse" x1="562.676" x2="544.676" y1="1364.617" y2="-29.383"><stop offset="0" stop-color="#2c25a3"/><stop offset="1" stop-color="#030a24"/></linearGradient><path d="M0 0h1099.398v719.16H0z" fill="url(#a)"/><g fill="#fff"><path d="m468.669 46.409 20.911 12.025 21.446-11.043-12.024 20.911 11.042 21.446-20.911-12.025-21.446 11.043 12.025-20.911z"/><circle cx="675.382" cy="106.89" r="8.808"/><circle cx="67.466" cy="254.423" r="2.708"/><circle cx="97.649" cy="261.245" r="4.113"/><circle cx="26.666" cy="128.867" r="7.574"/><circle cx="233.094" cy="433.569" r="6.026"/><circle cx="717.08" cy="171.164" r="5.072"/></g></svg></g><g transform="translate(-20.0 592.0) rotate(89.99999999999996 205.5 -134.0) scale(0.37384095659624633 -0.37265698870904945)"><svg width="1099.398" height="719.16" viewBox="0 0 1099.398 719.16"><linearGradient id="b" gradientUnits="userSpaceOnUse" x1="562.676" x2="544.676" y1="1364.617" y2="-29.383"><stop offset="0" stop-color="#2c25a3"/><stop offset="1" stop-color="#030a24"/></linearGradient><path d="M0 0h1099.398v719.16H0z" fill="url(#b)"/><g fill="#fff"><path d="m468.669 46.409 20.911 12.025 21.446-11.043-12.024 20.911 11.042 21.446-20.911-12.025-21.446 11.043 12.025-20.911z"/><circle cx="675.382" cy="106.89" r="8.808"/><circle cx="67.466" cy="254.423" r="2.708"/><circle cx="97.649" cy="261.245" r="4.113"/><circle cx="26.666" cy="128.867" r="7.574"/><circle cx="233.094" cy="433.569" r="6.026"/><circle cx="717.08" cy="171.164" r="5.072"/></g></svg></g><g transform="translate(-98.0 29.0) rotate(0.0 218.0 264.0) translate(151.0 0.0) scale(1.1866819447430805 1.1900602918803178)"><svg width="240.165" height="443.675" viewBox="127.246 0 240.165 443.675"><linearGradient id="c" gradientUnits="userSpaceOnUse" x1="-73.629" x2="49.038" y1="149.274" y2="269.274"><stop offset="0" stop-color="#352acf"/><stop offset="1" stop-color="#232276"/></linearGradient><path d="m98.221 278.924-16.732-6.576-11.358 94.528c-6.8 15.589-15.545 26.278-20.321 24.4-5.176-2.034-3.725-18.052 3.241-35.776a112.3 112.3 0 0 1 4.876-10.753l-10.681-34.3A176.134 176.134 0 0 0 28.6 345.893c-13.455 34.235-15.3 67.335-6.373 84.88l-4.971 4.992 16.732 6.576c20.712 8.141 51.881-21.842 69.617-66.968s15.328-88.308-5.384-96.449z" fill="#ff0068"/><path d="M59.419 389.673A33.918 33.918 0 0 1 60.5 384c-4.114 5.456-8.021 8.33-10.688 7.282-5.176-2.034-3.725-18.052 3.241-35.776a112.3 112.3 0 0 1 4.876-10.753l-4.283-13.754-16.846-3.117a187.62 187.62 0 0 0-8.2 18.011 171.558 171.558 0 0 0-11.178 44.217l7.4 7.529s34.597-3.923 34.597-7.966z" fill="#ff0068"/><path d="m81.489 272.348-21.9 49.1c3.57 4.126 1.786 18.783-4.526 34.842-6.963 17.726-16.81 30.445-21.986 28.41s-3.724-18.052 3.242-35.776a112.055 112.055 0 0 1 4.881-10.752l-10.681-34.3a176.107 176.107 0 0 0-18.642 35.445c-17.736 45.126-15.324 88.308 5.388 96.448s51.876-21.842 69.612-66.965 15.323-88.312-5.388-96.452z" fill="#ff4a8b"/><path d="m41.195 338.172 16.732 6.576-10.681-34.3-16.732-6.576z" fill="#ff0068"/><path d="M49.845 236.408a66.542 66.542 0 0 0 8.144 15.649 46.827 46.827 0 0 0 5.738 6.666 30.6 30.6 0 0 0 7.006 5.173 15.281 15.281 0 0 0 8.226 1.892 21.216 21.216 0 0 0 8.3-2.151c5.214-2.53 9.4-6.852 12.807-11.591a92.062 92.062 0 0 0 8.638-15.388c2.458-5.375 4.575-10.914 6.568-16.5 3.973-11.178 7.32-22.587 11.05-33.911 1.885-5.656 3.84-11.305 6.206-16.834a74.7 74.7 0 0 1 4.026-8.126 35.907 35.907 0 0 1 2.554-3.838 20.664 20.664 0 0 1 3.24-3.445 12.076 12.076 0 0 1 4.322-2.4 9.732 9.732 0 0 1 5.081-.07 11.761 11.761 0 0 1 4.407 2.3 21.013 21.013 0 0 1 3.283 3.435c3.759 4.985 6.083 10.6 8.3 16.156 4.319 11.184 7.692 22.6 11.777 33.717a174.341 174.341 0 0 0 6.781 16.335 65.161 65.161 0 0 0 9.333 14.651 29.232 29.232 0 0 0 6.419 5.466 19.1 19.1 0 0 0 7.731 2.689 16.632 16.632 0 0 0 8.016-.949 21.376 21.376 0 0 0 6.9-4.466 40.48 40.48 0 0 0 5.419-6.6c.762-1.228 1.569-2.425 2.249-3.714.349-.637.719-1.261 1.052-1.909l.979-1.957a126.513 126.513 0 0 0 6.5-16.359 335.408 335.408 0 0 0 8.906-34.358c2.474-11.6 4.619-23.291 6.718-34.993s4.116-23.43 6.288-35.142 4.473-23.413 7.251-35.034c2.815-11.6 5.976-23.195 10.789-34.3 2.463-5.492 5.184-11.078 9.494-15.617a26.883 26.883 0 0 1 7.544-5.466 22.834 22.834 0 0 1 4.375-1.537c.766-.112 1.515-.29 2.274-.383l2.294-.133h-.058a28.281 28.281 0 0 1 6.1-.053 21.409 21.409 0 0 1 6.032 1.45l1.45.622c.467.238.919.506 1.382.762l.693.39.648.449 1.3.918a28.722 28.722 0 0 1 4.427 4.474 51.44 51.44 0 0 1 6.425 10.615 98.911 98.911 0 0 1 4.432 11.438c4.983 15.561 6.392 31.681 7.95 47.551.743 7.955 1.288 15.908 1.928 23.837s1.213 15.848 2.094 23.715a182.249 182.249 0 0 0 3.73 23.332 49.922 49.922 0 0 0 3.926 10.946 20.457 20.457 0 0 0 3.323 4.61 10.379 10.379 0 0 0 4.792 2.848l-.2.98a11.67 11.67 0 0 1-5.635-2.675 20.545 20.545 0 0 1-4.027-4.743 52.3 52.3 0 0 1-4.96-11.168 111.8 111.8 0 0 1-3.072-11.709 237.761 237.761 0 0 1-2.178-11.847c-2.473-15.842-3.944-31.731-5.781-47.5-.89-7.888-1.9-15.746-3.118-23.535s-2.5-15.532-4.209-23.142a92.321 92.321 0 0 0-3.2-11.185 47.446 47.446 0 0 0-5.051-10.269 33.379 33.379 0 0 0-3.52-4.416 21.724 21.724 0 0 0-4.414-3.5 17.742 17.742 0 0 0-11.148-2.2h-.059a14.384 14.384 0 0 0-8.079 2.583 26.746 26.746 0 0 0-5.984 6.02l-1.251 1.736c-.412.58-.779 1.2-1.185 1.79s-.805 1.183-1.161 1.812l-1.13 1.843a84.713 84.713 0 0 0-3.891 7.807c-4.678 10.735-7.841 22.193-10.645 33.684-2.774 11.517-5.089 23.164-7.274 34.843s-4.229 23.4-6.345 35.109-4.293 23.428-6.8 35.091a338.531 338.531 0 0 1-9.06 34.687 129.765 129.765 0 0 1-6.7 16.766l-1.021 2.031c-.349.674-.737 1.33-1.105 2-.712 1.342-1.568 2.616-2.378 3.911a43.584 43.584 0 0 1-5.9 7.147 24.552 24.552 0 0 1-7.989 5.126 19.791 19.791 0 0 1-9.522 1.089 22.266 22.266 0 0 1-8.973-3.167 32.321 32.321 0 0 1-7.095-6.089 68.1 68.1 0 0 1-9.719-15.4 177.465 177.465 0 0 1-6.811-16.649c-4.059-11.237-7.381-22.686-11.58-33.725-2.14-5.469-4.436-10.983-7.85-15.54-1.7-2.227-3.8-4.208-6.274-4.852a7.182 7.182 0 0 0-3.741.032 9.579 9.579 0 0 0-3.42 1.9 18.186 18.186 0 0 0-2.87 3.029 33.3 33.3 0 0 0-2.4 3.572 72.052 72.052 0 0 0-3.929 7.833c-2.345 5.4-4.317 10.994-6.221 16.611-3.8 11.245-7.274 22.642-11.371 33.852-2.058 5.6-4.244 11.165-6.785 16.588a93.74 93.74 0 0 1-8.955 15.6c-3.55 4.833-7.935 9.32-13.51 11.966a22.674 22.674 0 0 1-8.872 2.211l-1.149.042c-.389-.016-.783-.055-1.174-.084a13.234 13.234 0 0 1-2.3-.4c-.758-.172-1.468-.481-2.2-.718-.7-.305-1.392-.644-2.087-.968a31.91 31.91 0 0 1-7.255-5.453 48.149 48.149 0 0 1-5.821-6.891 67.578 67.578 0 0 1-8.15-15.991z" fill="#352acf"/><path d="M148.305 152.5h2v171.699h-2zM305.84 13.864h2v284.991h-2z" fill="#030a24"/><circle cx="149.305" cy="152.5" fill="#ff4a8b" r="6.289"/><circle cx="306.84" cy="13.864" fill="#030a24" r="13.864" transform="matrix(.92252462 -.38593824 .38593824 .92252462 18.422 119.496)"/><path d="m68.651 205.524-20.059 9.324-2.206 7.568a57.194 57.194 0 0 0-18.493 10.473l.863 50.005-8.405 28.834-3.251 4.111 12.842 17.624a2.138 2.138 0 0 0 3.742-.316L81.1 225.582z" fill="url(#c)"/><path d="m14.856 215.009 1.715 99.441a2.127 2.127 0 0 0 4.076.816l48-109.742a51.816 51.816 0 0 0-19.879-3.67c-17.634.284-29.868 9.725-33.912 13.155z" fill="#352acf"/></svg></g><g transform="translate(1198.0 -135.0) rotate(-156.02729748314303 -347.0 450.0) translate(-414.0 0.0) scale(-1.8234606340072779 1.8158926928478039)"><svg width="152.457" height="149.789" viewBox="227.041 0 152.457 149.789"><linearGradient id="d" gradientUnits="userSpaceOnUse" x1="-58.464" x2="484.203" y1="575.643" y2="304.31"><stop offset=".44" stop-color="#c8ff00"/><stop offset=".577" stop-color="#65c400"/></linearGradient><path d="m224.993 19.056.404-.914 113.31 50.065-.404.914z" fill="#352ACF"/><path d="m315.834 118.68 22.212-50.22.914.405-22.212 50.22z" fill="#352ACF"/><path d="M363.381 69.048h-1a23.9 23.9 0 0 0-23.875-23.875v-1a24.9 24.9 0 0 1 24.875 24.875zM380.6 116.9h-1a17.128 17.128 0 0 0-17.108-17.109v-1A18.129 18.129 0 0 1 380.6 116.9z" fill="#ff4a8b"/><path d="M364.22 140.473a1 1 0 0 1-.957-1.288c4.053-13.453 3.733-19.636-1.107-21.339-4.545-1.6-6.948 1.749-9.732 5.626-2.859 3.979-6.093 8.49-12.068 5.838-6.349-2.821-3.224-12.558.395-23.832 4.567-14.229 9.743-30.357-2.654-35.9-12.709-5.683-23.692 4.933-34.317 15.2-7.2 6.954-13.993 13.521-20.951 14.462-6.848.932-11.461-3.234-16.8-8.049-7.713-6.949-17.313-15.6-38.144-11.219a1 1 0 1 1-.412-1.957c21.827-4.586 31.845 4.437 39.9 11.69 5.179 4.666 9.27 8.355 15.2 7.552 6.308-.852 12.876-7.2 19.829-13.917 10.585-10.228 22.582-21.819 36.524-15.588 14.032 6.276 8.326 24.054 3.741 38.338-3.186 9.926-6.195 19.3-1.486 21.393 4.179 1.857 6.428-.717 9.63-5.177 2.84-3.957 6.057-8.445 12.021-6.346 7.573 2.665 5.609 13.015 2.357 23.8a1 1 0 0 1-.969.713z" fill="#c8ff00"/><circle cx="362.488" cy="116.902" fill="#ff4a8b" r="5.171"/><path d="M318.172 207.583c.289.707.581 1.413.861 2.124l36.731-18.484 14.263-32.242-25.369-11.269z" fill="#6da2ef"/><path d="M337.574 144.566 214.489 89.9l-4.882 10.214a195.884 195.884 0 0 1 31.264 15.8 193.743 193.743 0 0 1 73.08 82.056z" fill="#c8ff00"/><path d="m324.43 138.728-19.4-8.618-13.736 31.052a193.621 193.621 0 0 1 14.088 20.63z" fill="#65c400"/><path d="M157.97 129.907c21.808-10.992 30.069-29.892 58.906-16.255l8.32 4.228V0h-119.19v132a152.845 152.845 0 0 1 51.964-2.093z" fill="#6da2ef"/><circle cx="137.898" cy="281.194" fill="#ff4a8b" r="137.379"/><path d="M137.636 419.124a136.98 136.98 0 0 1-72.646-20.9C.463 358.018-19.329 272.814 20.871 208.285a137.881 137.881 0 0 1 189.934-44.118c64.529 40.2 84.321 125.407 44.12 189.935a136.979 136.979 0 0 1-85.831 61.4 138.971 138.971 0 0 1-31.458 3.622zm.522-274.86a137.915 137.915 0 0 0-31.23 3.6 135.981 135.981 0 0 0-85.207 60.951c-39.91 64.06-20.262 148.646 43.8 188.555a136.875 136.875 0 0 0 188.556-43.8c39.91-64.06 20.262-148.646-43.8-188.556a135.993 135.993 0 0 0-72.119-20.75z" fill="#352ACF"/><path d="m89.336 225.586 119.882 74.686L186.46 336.8 66.579 262.114z" fill="#352ACF"/><path d="m322.443 366.623-30.907-14.307a171.1 171.1 0 0 1-9.951 18.4 168.488 168.488 0 0 1-65.74 60.777l-1.591-3.073-6.124-11.827-.006.013v-.008a153.234 153.234 0 0 1-79.428 16.864l-.74 12.235.382.06q4.785.274 9.566.269a165.427 165.427 0 0 0 33.538-3.483l.914 4.406 6.93 33.343a204.659 204.659 0 0 0 25.526-7.073L209.956 488a218.172 218.172 0 0 0 84.581-53.7l-11.2-10.951a204.727 204.727 0 0 0 39.11-56.733z" fill="url(#d)"/><path d="M310.49 388.72a204.032 204.032 0 0 1-27.157 34.635l11.213 10.961a220.758 220.758 0 0 0 42.115-61.111l-14.218-6.582a205.435 205.435 0 0 1-11.953 22.097zm-139.06 53.813 11.034 53.091a220.212 220.212 0 0 0 27.492-7.618l-17.84-51.2a165.923 165.923 0 0 1-20.686 5.727z" fill="#ff4a8b"/><path d="M166.639 131.385 172.8 99.3a184.66 184.66 0 0 0-44.623-3.029l.22 32.646a164.586 164.586 0 0 1 38.242 2.468z" fill="#c8ff00"/><path d="m291.271 177.361-13.158 8.908a169.929 169.929 0 0 1 27.576 117.7l15.746 2.138a185.87 185.87 0 0 0-30.164-128.746z" fill="#65c400"/><path d="M161.697 0h7.656v51.826h-7.656z" fill="#030a24"/><path d="M149.474 0h12.223v51.826h-12.223z" fill="#c8ff00"/><path d="M128.173 0h21.301v51.826h-21.301z" fill="#ff4a8b"/><path d="M172.8 99.294a183.86 183.86 0 0 0-13.144-2.009c-1.038 8.573-2.394 19.778-3.923 32.435 3.645.427 7.284.97 10.91 1.665 1.9.364 3.8.774 5.692 1.213l7.3-31.849a190.52 190.52 0 0 0-6.835-1.455z" fill="#030a24"/><path d="M218.542 151.75a151.963 151.963 0 0 1 45.671 43.929l27.058-18.318A185.667 185.667 0 0 0 172.8 99.3l-6.157 32.09a152.138 152.138 0 0 1 51.899 20.36z" fill="#ff4a8b"/><path d="m347.842 343.643-47.685-14.185a168.76 168.76 0 0 1-12.548 30.687l44 23.2a218.371 218.371 0 0 0 16.233-39.702z" fill="#c8ff00"/><path d="M332.9 339.2a202.782 202.782 0 0 1-15.081 36.879l13.788 7.271a218.371 218.371 0 0 0 16.236-39.705z" fill="#ff0068"/><path d="m226.282 79.45.406-.914 149.615 66.457-.406.914z" fill="#352ACF"/><circle cx="338.506" cy="69.048" fill="#ff4a8b" r="7.159"/><path d="M116.388 432.275a151.441 151.441 0 0 1-32.244-8.265l-4.327 11.5a163.647 163.647 0 0 0 34.839 8.93z" fill="#65c400"/></svg></g><g transform="translate(774.0 336.0) rotate(-180.0 154.5 134.5) scale(0.6413383007648322 0.6353000080298142)"><svg width="481.805" height="423.422" viewBox="0 0 481.805 423.422"><linearGradient id="e" gradientUnits="userSpaceOnUse" x1="30.118" x2="296.118" y1="-5.745" y2="420.255"><stop offset=".289" stop-color="#c8ff00"/><stop offset=".577" stop-color="#65c400"/></linearGradient><path d="M331.801 0h150.004v423.422H331.801z" fill="#6fa3ef"/><path d="M0 0h331.801v423.422H0z" fill="url(#e)"/><path d="M167.868 423.422H0v-147.22l112.592 48.473z" fill="#6fa3ef"/></svg></g><g transform="translate(335.0 77.0) rotate(0.0 230.5 379.5) translate(0.0 0.0) scale(1.0029872048421873 1.0033431552564473)"><svg width="459.627" height="756.471" viewBox="0 0 459.627 756.471"><linearGradient id="f" gradientTransform="matrix(1 0 0 -1 0 758)" gradientUnits="userSpaceOnUse" x1="229.814" x2="229.814" y1="26.704" y2="646.729"><stop offset="0" stop-color="#2c25a3"/><stop offset="1" stop-color="#030a24"/></linearGradient><linearGradient id="g" gradientTransform="matrix(1 0 0 -1 0 758)" gradientUnits="userSpaceOnUse" x1="101.107" x2="274.44" y1="332.678" y2="52.678"><stop offset="0" stop-color="#fff"/><stop offset="1" stop-color="#6da2ef"/></linearGradient><path d="M0 0h459.627v756.471H0z" fill="url(#f)"/><circle cx="64.856" cy="51.61" fill="#fff" r="7.871"/><path d="M459.627 585A1013.788 1013.788 0 0 0 46.432 756.471h413.2z" fill="url(#g)"/><path d="M443.377 664.28c.619 5.435-.451 11.574-3.381 15.928-2.015 2.994-4.037 3.853-15.945 10.053-18 9.368-17.186 10.962-16.638 13.568.522 2.482-.357 3.587 1.733 7.576.413.788 2.061 4.425-3.466 12.825-8.713 13.248-18.248 12.495-27.038 22.878a24.154 24.154 0 0 0-5.153 9.363h86.138V651.186a772.029 772.029 0 0 0-16.25 13.094z" fill="#c8ff00"/></svg></g><g transform="translate(685.0 369.0) rotate(0.0 162.5 164.0) scale(1.5205460865822333 1.530043428976597)"><svg width="213.739" height="214.373" viewBox="0 0 213.739 214.373"><path d="M0 20.373C.913 30.7 1.883 41.013 3.386 51.262 4.03 56.4 4.965 61.5 5.766 66.609c.983 5.082 1.848 10.186 3.01 15.229 1.037 5.069 2.336 10.077 3.572 15.1l2.086 7.468c.664 2.5 1.516 4.94 2.264 7.412a244.417 244.417 0 0 0 11.155 28.855 170.391 170.391 0 0 0 15.355 26.713l2.245 3.124c.763 1.03 1.587 2.012 2.378 3.019.808.993 1.572 2.024 2.417 2.985l2.545 2.872 1.271 1.435 1.344 1.366 2.693 2.725c.9.9 1.883 1.722 2.819 2.587.96.838 1.86 1.748 2.878 2.515 1.99 1.589 3.944 3.224 6.062 4.635 1.053.711 2.046 1.512 3.146 2.15l3.243 1.993a81.312 81.312 0 0 0 13.741 6.426l1.778.658 1.817.538c1.214.347 2.416.739 3.639 1.051 2.467.539 4.915 1.165 7.423 1.477 2.484.46 5.01.593 7.519.83 1.26.065 2.523.066 3.784.1l1.889.037 1.862-.086a58.6 58.6 0 0 0 14.66-2.66 64.694 64.694 0 0 0 13.673-6.086l1.627-.936c.54-.317 1.048-.687 1.574-1.028 1.036-.7 2.1-1.366 3.114-2.1 1.994-1.526 4.021-3 5.875-4.706 1.943-1.593 3.682-3.421 5.484-5.172.9-.882 1.7-1.86 2.551-2.783.829-.948 1.717-1.842 2.475-2.853a122.068 122.068 0 0 0 15.992-25.688 171.071 171.071 0 0 0 10.264-28.691 227.439 227.439 0 0 0 5.855-30.045l.515-3.8.384-3.82c.241-2.548.545-5.088.737-7.641.3-5.115.755-10.215.837-15.346a461.267 461.267 0 0 0-2.286-61.516 4.5 4.5 0 1 1 8.954-.905l.008.085a469.543 469.543 0 0 1 1.191 62.683c-.18 5.232-.733 10.452-1.141 15.674-.244 2.608-.6 5.21-.9 7.815l-.465 3.9-.6 3.891a234.737 234.737 0 0 1-6.588 30.818 177.6 177.6 0 0 1-11.191 29.573 127.953 127.953 0 0 1-17.269 26.635c-.82 1.047-1.775 1.983-2.67 2.968-.921.962-1.788 1.973-2.753 2.893-1.943 1.828-3.821 3.721-5.916 5.384-2 1.766-4.19 3.31-6.343 4.891-1.093.767-2.243 1.456-3.363 2.186-.567.354-1.117.735-1.7 1.065l-1.758.971a69.622 69.622 0 0 1-14.78 6.258 63.257 63.257 0 0 1-15.883 2.582l-2.021.054-1.994-.073c-1.328-.062-2.657-.09-3.982-.182-2.643-.293-5.3-.489-7.906-1.017-2.633-.38-5.2-1.079-7.784-1.7-1.28-.351-2.537-.784-3.806-1.172l-1.9-.6-1.855-.723a85.187 85.187 0 0 1-14.25-6.98l-3.339-2.136c-1.131-.687-2.149-1.533-3.228-2.292-2.171-1.507-4.165-3.234-6.193-4.915-1.037-.814-1.95-1.767-2.925-2.651-.949-.909-1.943-1.774-2.856-2.72l-2.719-2.852-1.355-1.429-1.279-1.5-2.556-2.991c-.846-1-1.61-2.068-2.418-3.1-.789-1.045-1.613-2.065-2.374-3.13l-2.225-3.221A172.874 172.874 0 0 1 25.806 141.6a246.065 246.065 0 0 1-10.72-29.29c-.708-2.5-1.519-4.97-2.142-7.493l-1.959-7.537c-1.151-5.063-2.362-10.111-3.311-15.214-1.074-5.078-1.848-10.21-2.74-15.319-.711-5.138-1.554-10.255-2.106-15.412C1.51 41.05.726 30.708 0 20.373z" fill="#c8ff00"/></svg></g><g transform="translate(934.0 317.0) rotate(19.426630651533404 33.5 33.5) scale(0.0863366459115088 0.0863366459115088)"><svg width="776.032" height="776.032" viewBox="0 0 776.032 776.032"><radialGradient id="h" cx="388.016" cy="388.016" gradientUnits="userSpaceOnUse" r="388.016"><stop offset=".353" stop-color="#FF0068"/><stop offset="1" stop-color="#FF0068"/></radialGradient><path d="M776.032 388.016c0 214.3-173.721 388.016-388.016 388.016a386.293 386.293 0 0 1-231.457-76.563c-39.246-29.214 81.734-88.136 55.887-129.856-4.4-7.106-163.1 8.1-167.043.7A386.3 386.3 0 0 1 0 388.016C0 173.721 173.721 0 388.016 0s388.016 173.721 388.016 388.016z" fill="url(#h)"/><g fill="#FF0068"><path d="M76.446 541.473c-3.162-6.914-9.828-12.775-16.274-18.444-7.556-6.645-15.37-13.517-17.945-22.3-2.513-8.569.31-18.455 3.041-28.015 2.389-8.371 4.862-17.027 3.759-24.76-1.061-7.451-5.777-14.918-10.338-22.14-5.389-8.542-10.968-17.372-10.968-26.614s5.579-18.08 10.968-26.619c4.561-7.222 9.277-14.689 10.338-22.14 1.1-7.733-1.37-16.39-3.759-24.761-2.731-9.56-5.554-19.446-3.041-28.015 2.575-8.787 10.389-15.659 17.946-22.3 6.446-5.669 13.112-11.53 16.274-18.444 3.219-7.037 3.3-16 3.377-24.661.089-9.982.181-20.3 5.058-27.877 4.917-7.635 14.313-12.006 23.4-16.234 7.823-3.64 15.91-7.4 20.934-13.194 5.039-5.811 7.624-14.364 10.124-22.636 2.9-9.579 5.889-19.484 12.73-25.418 6.824-5.917 17.041-7.478 26.922-8.986 8.553-1.306 17.4-2.657 23.883-6.831 6.421-4.136 11.283-11.59 15.985-18.8 5.487-8.41 11.159-17.107 19.449-20.9 8.16-3.732 18.374-2.35 28.251-1.015 8.6 1.164 17.495 2.368 24.952.181 7.259-2.127 14-7.869 20.511-13.422 7.674-6.541 15.61-13.3 24.719-14.6 8.782-1.255 18.134 2.932 27.176 6.978 7.98 3.571 16.23 7.263 24.1 7.263s16.119-3.692 24.1-7.263c9.042-4.046 18.4-8.231 27.177-6.978 9.109 1.3 17.045 8.062 24.72 14.6 6.514 5.553 13.252 11.3 20.511 13.423 7.456 2.186 16.35.982 24.953-.182 9.875-1.335 20.088-2.719 28.251 1.016 8.289 3.792 13.962 12.488 19.447 20.9 4.7 7.21 9.565 14.665 15.987 18.8 6.485 4.174 15.328 5.525 23.882 6.831 9.881 1.508 20.1 3.069 26.922 8.987 6.842 5.934 9.836 15.839 12.73 25.418 2.5 8.271 5.085 16.825 10.124 22.636 5.023 5.791 13.111 9.554 20.932 13.193 9.088 4.228 18.483 8.6 23.4 16.235 4.877 7.573 4.97 17.9 5.059 27.878.077 8.664.157 17.623 3.376 24.659 3.162 6.914 9.828 12.775 16.274 18.444 7.556 6.644 15.371 13.516 17.946 22.3 2.512 8.57-.311 18.456-3.04 28.015-2.391 8.371-4.863 17.028-3.76 24.761 1.061 7.451 5.777 14.918 10.338 22.14 5.392 8.539 10.969 17.369 10.969 26.614s-5.577 18.075-10.969 26.614c-4.561 7.222-9.277 14.69-10.338 22.141-1.1 7.733 1.369 16.389 3.76 24.76 2.729 9.56 5.552 19.446 3.04 28.016l-.959-.281c2.43-8.292-.352-18.036-3.043-27.46-2.419-8.472-4.92-17.232-3.788-25.176 1.091-7.664 5.866-15.224 10.482-22.534 5.317-8.419 10.815-17.124 10.815-26.08s-5.5-17.662-10.815-26.081c-4.617-7.31-9.391-14.869-10.482-22.532-1.132-7.945 1.369-16.705 3.788-25.176 2.691-9.424 5.473-19.168 3.043-27.46-2.5-8.509-10.2-15.282-17.648-21.833-6.524-5.738-13.271-11.672-16.523-18.779-3.307-7.23-3.388-16.3-3.466-25.065-.088-9.841-.179-20.017-4.9-27.347-4.76-7.392-14.024-11.7-22.982-15.87-7.916-3.682-16.1-7.491-21.265-13.445-5.179-5.971-7.795-14.628-10.326-23-2.854-9.443-5.8-19.209-12.427-24.952-6.606-5.729-16.678-7.267-26.419-8.754-8.657-1.322-17.609-2.69-24.272-6.981-6.6-4.25-11.523-11.8-16.283-19.093-5.408-8.291-11-16.865-19.026-20.536-7.9-3.613-17.966-2.251-27.7-.934-8.7 1.179-17.706 2.4-25.368.151-7.464-2.188-14.283-8-20.878-13.622-7.567-6.449-15.394-13.117-24.217-14.374-8.5-1.21-17.713 2.912-26.628 6.9-8.075 3.613-16.425 7.35-24.506 7.35s-16.432-3.737-24.507-7.35c-8.913-3.989-18.13-8.111-26.627-6.9-8.822 1.257-16.646 7.925-24.211 14.374-6.6 5.621-13.415 11.433-20.879 13.621-7.659 2.245-16.661 1.027-25.367-.15-9.735-1.316-19.8-2.678-27.7.934-8.025 3.671-13.62 12.244-19.025 20.535-4.759 7.3-9.681 14.843-16.282 19.093-6.664 4.291-15.616 5.659-24.273 6.981-9.741 1.487-19.813 3.024-26.418 8.753-6.622 5.743-9.574 15.509-12.428 24.952-2.53 8.372-5.147 17.029-10.325 23-5.163 5.954-13.35 9.764-21.268 13.446-8.958 4.168-18.221 8.477-22.981 15.869-4.719 7.33-4.81 17.5-4.9 27.345-.079 8.77-.16 17.837-3.467 25.068-3.252 7.107-10 13.041-16.524 18.779-7.449 6.551-15.153 13.325-17.647 21.833-2.431 8.292.352 18.036 3.043 27.46 2.419 8.471 4.92 17.231 3.789 25.176-1.093 7.663-5.867 15.222-10.483 22.533-5.316 8.419-10.814 17.125-10.814 26.081s5.5 17.662 10.814 26.081c4.616 7.31 9.39 14.869 10.483 22.533 1.131 7.944-1.37 16.7-3.789 25.176-2.691 9.423-5.474 19.167-3.043 27.459 2.494 8.508 10.2 15.282 17.647 21.833 6.524 5.738 13.272 11.672 16.523 18.779z"/><path d="m755.259 502.7-1.92-.563c2.739-9.341 1.947-19.82 1.183-29.954-.618-8.162-1.254-16.6-.112-24.623 1.1-7.742 4.033-15.512 6.866-23.025 3.632-9.634 7.388-19.595 7.388-29.667s-3.756-20.034-7.388-29.667c-2.833-7.514-5.762-15.283-6.866-23.027-1.142-8.019-.5-16.46.112-24.623.765-10.133 1.556-20.611-1.182-29.953-2.808-9.577-9.208-18.051-15.4-26.247-4.861-6.435-9.887-13.091-13.169-20.264-3.338-7.3-5.108-15.535-6.82-23.5-2.142-9.972-4.358-20.283-9.674-28.538-5.357-8.319-13.853-14.62-22.069-20.712-6.516-4.834-13.254-9.831-18.47-15.844-5.231-6.032-9.232-13.423-13.1-20.571-4.865-8.983-9.893-18.272-17.347-24.736-7.436-6.449-17.333-10.11-26.905-13.65-7.633-2.824-15.526-5.743-22.256-10.077-6.665-4.292-12.552-10.235-18.245-15.984-7.212-7.282-14.67-14.811-23.705-18.944-8.9-4.069-19.407-4.788-29.569-5.484-8.14-.556-16.558-1.132-24.289-3.4-7.533-2.208-14.817-6.219-21.862-10.1-9.014-4.962-18.334-10.093-28.265-11.508-9.57-1.361-19.331.8-29.669 3.086-8.035 1.78-16.343 3.62-24.51 3.62s-16.477-1.84-24.512-3.62c-10.337-2.289-20.1-4.449-29.667-3.087-9.93 1.416-19.25 6.546-28.263 11.508-7.045 3.879-14.33 7.89-21.864 10.1-7.73 2.266-16.147 2.842-24.289 3.4-10.162.7-20.67 1.414-29.567 5.483-9.036 4.133-16.494 11.663-23.706 18.945-5.693 5.748-11.58 11.692-18.245 15.983-6.73 4.334-14.623 7.254-22.255 10.076-9.572 3.541-19.47 7.2-26.906 13.65-7.454 6.464-12.483 15.753-17.346 24.736-3.87 7.148-7.871 14.539-13.1 20.571-5.216 6.013-11.953 11.011-18.47 15.843-8.216 6.093-16.712 12.394-22.07 20.714-5.315 8.254-7.531 18.564-9.674 28.535-1.711 7.964-3.481 16.2-6.82 23.5-3.281 7.173-8.308 13.829-13.169 20.264-6.19 8.2-12.591 16.67-15.4 26.248-2.738 9.342-1.947 19.822-1.181 29.955.616 8.162 1.254 16.6.111 24.621-1.1 7.743-4.033 15.512-6.866 23.026-3.633 9.634-7.389 19.6-7.389 29.669s3.756 20.035 7.389 29.669c2.833 7.512 5.763 15.281 6.866 23.022 1.143 8.021.5 16.46-.111 24.622-.766 10.134-1.558 20.613 1.181 29.955l-1.92.563c-2.84-9.693-2.035-20.356-1.256-30.668.609-8.056 1.238-16.385.126-24.19-1.073-7.523-3.962-15.187-6.757-22.6-3.7-9.8-7.518-19.937-7.518-30.374s3.822-20.573 7.518-30.375c2.8-7.412 5.684-15.077 6.757-22.6 1.112-7.8.483-16.134-.125-24.189-.78-10.313-1.585-20.977 1.255-30.668 2.912-9.93 9.425-18.553 15.723-26.892 4.8-6.349 9.756-12.915 12.946-19.89 3.248-7.1 4.995-15.229 6.684-23.088 2.181-10.146 4.435-20.637 9.947-29.2 5.556-8.628 14.2-15.039 22.561-21.239 6.43-4.768 13.078-9.7 18.149-15.547 5.088-5.866 9.036-13.16 12.855-20.213 4.949-9.139 10.066-18.591 17.795-25.295 7.711-6.686 17.782-10.411 27.522-14.014 7.532-2.785 15.32-5.666 21.867-9.882 6.48-4.172 12.289-10.037 17.907-15.709 7.338-7.409 14.926-15.071 24.294-19.355 9.228-4.222 19.921-4.953 30.263-5.66 8.034-.549 16.341-1.117 23.862-3.322 7.325-2.147 14.512-6.1 21.462-9.931 9.171-5.048 18.654-10.269 28.947-11.736 9.927-1.413 20.325.888 30.381 3.115 7.93 1.756 16.13 3.572 24.079 3.572s16.148-1.816 24.079-3.572c10.055-2.227 20.46-4.53 30.382-3.114 10.293 1.466 19.776 6.687 28.947 11.736 6.951 3.827 14.138 7.783 21.461 9.93 7.521 2.2 15.829 2.773 23.863 3.322 10.341.707 21.035 1.439 30.264 5.66 9.367 4.285 16.955 11.946 24.294 19.356 5.617 5.671 11.425 11.537 17.906 15.709 6.547 4.216 14.335 7.1 21.867 9.883 9.74 3.6 19.813 7.328 27.523 14.014 7.728 6.7 12.845 16.156 17.8 25.295 3.818 7.054 7.766 14.346 12.854 20.213 5.071 5.849 11.72 10.78 18.149 15.548 8.361 6.2 17 12.61 22.56 21.237 5.513 8.561 7.768 19.052 9.948 29.2 1.689 7.859 3.436 15.986 6.683 23.087 3.19 6.975 8.15 13.541 12.946 19.891 6.3 8.339 12.812 16.961 15.723 26.89 2.84 9.691 2.035 20.354 1.256 30.666-.609 8.056-1.238 16.387-.125 24.19 1.072 7.526 3.962 15.191 6.756 22.6 3.7 9.8 7.517 19.935 7.517 30.373s-3.821 20.571-7.517 30.372c-2.794 7.413-5.684 15.078-6.756 22.6-1.113 7.805-.484 16.135.125 24.191.772 10.319 1.578 20.982-1.263 30.677z"/></g></svg></g><g transform="translate(1046.0 199.0) rotate(-90.00000000000013 -308.5 371.0) translate(-1.0 0.0) scale(-1.6793182566662403 1.6723953344227194)"><svg width="123.264" height="443.675" viewBox="0.595 0 123.264 443.675"><linearGradient id="i" gradientUnits="userSpaceOnUse" x1="-73.629" x2="49.038" y1="149.274" y2="269.274"><stop offset="0" stop-color="#352acf"/><stop offset="1" stop-color="#232276"/></linearGradient><path d="m98.221 278.924-16.732-6.576-11.358 94.528c-6.8 15.589-15.545 26.278-20.321 24.4-5.176-2.034-3.725-18.052 3.241-35.776a112.3 112.3 0 0 1 4.876-10.753l-10.681-34.3A176.134 176.134 0 0 0 28.6 345.893c-13.455 34.235-15.3 67.335-6.373 84.88l-4.971 4.992 16.732 6.576c20.712 8.141 51.881-21.842 69.617-66.968s15.328-88.308-5.384-96.449z" fill="#ff0068"/><path d="M59.419 389.673A33.918 33.918 0 0 1 60.5 384c-4.114 5.456-8.021 8.33-10.688 7.282-5.176-2.034-3.725-18.052 3.241-35.776a112.3 112.3 0 0 1 4.876-10.753l-4.283-13.754-16.846-3.117a187.62 187.62 0 0 0-8.2 18.011 171.558 171.558 0 0 0-11.178 44.217l7.4 7.529s34.597-3.923 34.597-7.966z" fill="#ff0068"/><path d="m81.489 272.348-21.9 49.1c3.57 4.126 1.786 18.783-4.526 34.842-6.963 17.726-16.81 30.445-21.986 28.41s-3.724-18.052 3.242-35.776a112.055 112.055 0 0 1 4.881-10.752l-10.681-34.3a176.107 176.107 0 0 0-18.642 35.445c-17.736 45.126-15.324 88.308 5.388 96.448s51.876-21.842 69.612-66.965 15.323-88.312-5.388-96.452z" fill="#ff4a8b"/><path d="m41.195 338.172 16.732 6.576-10.681-34.3-16.732-6.576z" fill="#ff0068"/><path d="M49.845 236.408a66.542 66.542 0 0 0 8.144 15.649 46.827 46.827 0 0 0 5.738 6.666 30.6 30.6 0 0 0 7.006 5.173 15.281 15.281 0 0 0 8.226 1.892 21.216 21.216 0 0 0 8.3-2.151c5.214-2.53 9.4-6.852 12.807-11.591a92.062 92.062 0 0 0 8.638-15.388c2.458-5.375 4.575-10.914 6.568-16.5 3.973-11.178 7.32-22.587 11.05-33.911 1.885-5.656 3.84-11.305 6.206-16.834a74.7 74.7 0 0 1 4.026-8.126 35.907 35.907 0 0 1 2.554-3.838 20.664 20.664 0 0 1 3.24-3.445 12.076 12.076 0 0 1 4.322-2.4 9.732 9.732 0 0 1 5.081-.07 11.761 11.761 0 0 1 4.407 2.3 21.013 21.013 0 0 1 3.283 3.435c3.759 4.985 6.083 10.6 8.3 16.156 4.319 11.184 7.692 22.6 11.777 33.717a174.341 174.341 0 0 0 6.781 16.335 65.161 65.161 0 0 0 9.333 14.651 29.232 29.232 0 0 0 6.419 5.466 19.1 19.1 0 0 0 7.731 2.689 16.632 16.632 0 0 0 8.016-.949 21.376 21.376 0 0 0 6.9-4.466 40.48 40.48 0 0 0 5.419-6.6c.762-1.228 1.569-2.425 2.249-3.714.349-.637.719-1.261 1.052-1.909l.979-1.957a126.513 126.513 0 0 0 6.5-16.359 335.408 335.408 0 0 0 8.906-34.358c2.474-11.6 4.619-23.291 6.718-34.993s4.116-23.43 6.288-35.142 4.473-23.413 7.251-35.034c2.815-11.6 5.976-23.195 10.789-34.3 2.463-5.492 5.184-11.078 9.494-15.617a26.883 26.883 0 0 1 7.544-5.466 22.834 22.834 0 0 1 4.375-1.537c.766-.112 1.515-.29 2.274-.383l2.294-.133h-.058a28.281 28.281 0 0 1 6.1-.053 21.409 21.409 0 0 1 6.032 1.45l1.45.622c.467.238.919.506 1.382.762l.693.39.648.449 1.3.918a28.722 28.722 0 0 1 4.427 4.474 51.44 51.44 0 0 1 6.425 10.615 98.911 98.911 0 0 1 4.432 11.438c4.983 15.561 6.392 31.681 7.95 47.551.743 7.955 1.288 15.908 1.928 23.837s1.213 15.848 2.094 23.715a182.249 182.249 0 0 0 3.73 23.332 49.922 49.922 0 0 0 3.926 10.946 20.457 20.457 0 0 0 3.323 4.61 10.379 10.379 0 0 0 4.792 2.848l-.2.98a11.67 11.67 0 0 1-5.635-2.675 20.545 20.545 0 0 1-4.027-4.743 52.3 52.3 0 0 1-4.96-11.168 111.8 111.8 0 0 1-3.072-11.709 237.761 237.761 0 0 1-2.178-11.847c-2.473-15.842-3.944-31.731-5.781-47.5-.89-7.888-1.9-15.746-3.118-23.535s-2.5-15.532-4.209-23.142a92.321 92.321 0 0 0-3.2-11.185 47.446 47.446 0 0 0-5.051-10.269 33.379 33.379 0 0 0-3.52-4.416 21.724 21.724 0 0 0-4.414-3.5 17.742 17.742 0 0 0-11.148-2.2h-.059a14.384 14.384 0 0 0-8.079 2.583 26.746 26.746 0 0 0-5.984 6.02l-1.251 1.736c-.412.58-.779 1.2-1.185 1.79s-.805 1.183-1.161 1.812l-1.13 1.843a84.713 84.713 0 0 0-3.891 7.807c-4.678 10.735-7.841 22.193-10.645 33.684-2.774 11.517-5.089 23.164-7.274 34.843s-4.229 23.4-6.345 35.109-4.293 23.428-6.8 35.091a338.531 338.531 0 0 1-9.06 34.687 129.765 129.765 0 0 1-6.7 16.766l-1.021 2.031c-.349.674-.737 1.33-1.105 2-.712 1.342-1.568 2.616-2.378 3.911a43.584 43.584 0 0 1-5.9 7.147 24.552 24.552 0 0 1-7.989 5.126 19.791 19.791 0 0 1-9.522 1.089 22.266 22.266 0 0 1-8.973-3.167 32.321 32.321 0 0 1-7.095-6.089 68.1 68.1 0 0 1-9.719-15.4 177.465 177.465 0 0 1-6.811-16.649c-4.059-11.237-7.381-22.686-11.58-33.725-2.14-5.469-4.436-10.983-7.85-15.54-1.7-2.227-3.8-4.208-6.274-4.852a7.182 7.182 0 0 0-3.741.032 9.579 9.579 0 0 0-3.42 1.9 18.186 18.186 0 0 0-2.87 3.029 33.3 33.3 0 0 0-2.4 3.572 72.052 72.052 0 0 0-3.929 7.833c-2.345 5.4-4.317 10.994-6.221 16.611-3.8 11.245-7.274 22.642-11.371 33.852-2.058 5.6-4.244 11.165-6.785 16.588a93.74 93.74 0 0 1-8.955 15.6c-3.55 4.833-7.935 9.32-13.51 11.966a22.674 22.674 0 0 1-8.872 2.211l-1.149.042c-.389-.016-.783-.055-1.174-.084a13.234 13.234 0 0 1-2.3-.4c-.758-.172-1.468-.481-2.2-.718-.7-.305-1.392-.644-2.087-.968a31.91 31.91 0 0 1-7.255-5.453 48.149 48.149 0 0 1-5.821-6.891 67.578 67.578 0 0 1-8.15-15.991z" fill="#352acf"/><path d="M148.305 152.5h2v171.699h-2zM305.84 13.864h2v284.991h-2z" fill="#030a24"/><circle cx="149.305" cy="152.5" fill="#ff4a8b" r="6.289"/><circle cx="306.84" cy="13.864" fill="#030a24" r="13.864" transform="matrix(.92252462 -.38593824 .38593824 .92252462 18.422 119.496)"/><path d="m68.651 205.524-20.059 9.324-2.206 7.568a57.194 57.194 0 0 0-18.493 10.473l.863 50.005-8.405 28.834-3.251 4.111 12.842 17.624a2.138 2.138 0 0 0 3.742-.316L81.1 225.582z" fill="url(#i)"/><path d="m14.856 215.009 1.715 99.441a2.127 2.127 0 0 0 4.076.816l48-109.742a51.816 51.816 0 0 0-19.879-3.67c-17.634.284-29.868 9.725-33.912 13.155z" fill="#352acf"/></svg></g><g transform="translate(901.0 27.0) rotate(56.11030873442874 -279.5 338.0) scale(-1.1877822045152722 1.1868498441820654)"><svg width="470.625" height="569.575" viewBox="0 0 470.625 569.575"><linearGradient id="k" gradientUnits="userSpaceOnUse" x1="568.553" x2="21.886" y1="59.273" y2="604.607"><stop offset=".44" stop-color="#c8ff00"/><stop offset=".577" stop-color="#65c400"/></linearGradient><linearGradient id="j" gradientUnits="userSpaceOnUse" x1="-102.218" x2="121.782" y1="148.989" y2="404.989"><stop offset="0" stop-color="#352acf"/><stop offset="1" stop-color="#232276"/></linearGradient><linearGradient xmlns:xlink="http://www.w3.org/1999/xlink" id="l" x1="484.633" x2="283.3" xlink:href="#j" y1="314.946" y2="122.946"/><linearGradient id="m" gradientUnits="userSpaceOnUse" x1="307.89" x2="453.223" y1="114.637" y2="46.637"><stop offset=".289" stop-color="#030a24"/><stop offset=".577" stop-color="#232276"/></linearGradient><path d="m0 318.052.125 37.196 179.951 214.327 285.845-185.914v-35.598l-319.086-90.106z" fill="#c8ff00"/><path d="m188.777 511.7-4 14.667-4.701 43.208 285.845-185.914v-35.598l-319.086-90.106z" fill="url(#k)"/><path d="m49.744 342.549-11.008 17.685 144.511 172.117 282.674-184.288-116.192-94.541-91.824 45.15-68.716-9.213z" fill="#c8ff00"/><path d="m343.827 255.165 113.623 92.451-273.222 178.128L44.9 359.8l8.37-13.447 137.252-62.8 37.9 12.372 115.406-40.758" fill="#65c400"/><path d="m321.16 274.5 110.617 89.964-247.333 161.569L48.119 362.575 30.6 365.683l137.252-62.8 37.9 12.371z" fill="#fff"/><path d="M216.162 242.183c-77.443 0-140.223 44.436-140.223 99.251s62.78 99.251 140.223 99.251 140.222-44.436 140.222-99.251-62.779-99.251-140.222-99.251zm0 131.992c-31.385 0-56.827-16.558-56.827-36.984s25.442-36.984 56.827-36.984 56.827 16.558 56.827 36.984-25.442 36.984-56.827 36.984z" fill="#65c400"/><path d="M216.162 300.207a82.819 82.819 0 0 1 24.086 3.485l6.669-59.108a196.656 196.656 0 0 0-30.755-2.4c-35.353 0-67.646 9.264-92.31 24.545l40.174 55.743c8.744-13.101 28.792-22.265 52.136-22.265z" fill="#ff4a8b"/><path d="M75.939 331.434c0 54.815 62.78 99.251 140.223 99.251s140.222-44.436 140.222-99.251" fill="#c8ff00"/><path d="M216.162 290.207c-26.663 0-49.027 11.953-55.156 28.073l3.02 4.191c8.744-13.1 28.792-22.264 52.136-22.264a82.819 82.819 0 0 1 24.086 3.485l1.089-9.659a82.423 82.423 0 0 0-25.175-3.826z" fill="#ff0068"/><path d="M159.335 337.191c0-7.441 3.389-14.364 9.2-20.165l-.074-.512-13.694-28.169-22.588 5.331-20.457 39.532L135 347.8l35.411 11.32c-6.96-6.137-11.076-13.72-11.076-21.929z" fill="#0b1a42"/><path d="M136.582 321.359a72.757 72.757 0 0 1 18.184-33.014l-53.618-69.083a172.851 172.851 0 0 0-54.63 201.151L135 347.8a72.811 72.811 0 0 1 1.582-26.441z" fill="#352acf"/><path d="m170.406 359.12-87.564 75.571-36.324-14.278 88.477-72.613z" fill="url(#j)"/><path d="M280.89 11.98 341.711 0l80.635 42.852-64.508 15.666z" fill="#030a24"/><path d="M306.239 282.26 422.346 42.852l-64.508 15.666L262.6 315.9l.043.03c11.47-8.536 20.73-15.717 43.596-33.67z" fill="url(#l)"/><path d="m319.028 163.397 58.119-27.145 12.667-26.666-61.742 29.371z" fill="#ff0068"/><path d="m262.6 315.9 95.238-257.382L280.89 11.98 238.137 303.1c9.284 2.856 17.85 6.611 24.463 12.8z" fill="#352acf"/><path d="m324.264 149.246 33.574-90.728L280.89 11.98l-14.53 97.845z" fill="#0b1a42"/><path d="m328.072 138.957-59.691-42.738-4.227 28.465 54.389 38.942.485-.229z" fill="#ff4a8b"/><path d="m366.862 199.075-25.945-2.598-73.26 111.72 9.425 25.797 100.693-85.083z" fill="#0b1a42"/><path d="m403.072 219.262 33.73 11.213-42.426 35.564-117.294 67.955 100.693-85.083z"/><path d="m316.005 234.467-53.4 81.428c6.531 6.022 10.38 13.365 10.38 21.3l69.779-58.7z" fill="#ff4a8b"/><path d="m342.768 278.491-69.779 58.7a24.823 24.823 0 0 1-1.371 8.063l31.479-7.718 91.279-71.5z" fill="#ff0068"/><path d="M265.294 355.766h81.843l-8.738-42.8-66.321 30.794a30.1 30.1 0 0 1-6.784 12.006z" fill="#0b1a42"/><path d="m380.255 305.085-14.385-4.878-27.471 12.756 8.738 42.803h34.606z" fill="#6da2ef"/><path d="m365.87 300.207 51.587-5.399 19.345 52.992-55.059 7.966z" fill="#352acf"/><path d="m340.917 196.477 36.858 52.434 59.027-18.436-35.466-43.664z" fill="#030a24"/><ellipse cx="216.814" cy="337.03" fill="#fff" rx="57.111" ry="37.556"/><path d="m390.814 108.586 31.532-65.734-64.508 15.666-29.024 78.734z" fill="url(#m)"/></svg></g><g transform="translate(398.0 413.0) rotate(-20.108122283492417 33.5 33.5) scale(0.0863366459115088 0.0863366459115088)"><svg width="776.032" height="776.032" viewBox="0 0 776.032 776.032"><radialGradient id="n" cx="388.016" cy="388.016" gradientUnits="userSpaceOnUse" r="388.016"><stop offset=".353" stop-color="#6DA2EF"/><stop offset="1" stop-color="#352acf"/></radialGradient><path d="M776.032 388.016c0 214.3-173.721 388.016-388.016 388.016a386.293 386.293 0 0 1-231.457-76.563c-39.246-29.214 81.734-88.136 55.887-129.856-4.4-7.106-163.1 8.1-167.043.7A386.3 386.3 0 0 1 0 388.016C0 173.721 173.721 0 388.016 0s388.016 173.721 388.016 388.016z" fill="url(#n)"/><g fill="#352ACF"><path d="M76.446 541.473c-3.162-6.914-9.828-12.775-16.274-18.444-7.556-6.645-15.37-13.517-17.945-22.3-2.513-8.569.31-18.455 3.041-28.015 2.389-8.371 4.862-17.027 3.759-24.76-1.061-7.451-5.777-14.918-10.338-22.14-5.389-8.542-10.968-17.372-10.968-26.614s5.579-18.08 10.968-26.619c4.561-7.222 9.277-14.689 10.338-22.14 1.1-7.733-1.37-16.39-3.759-24.761-2.731-9.56-5.554-19.446-3.041-28.015 2.575-8.787 10.389-15.659 17.946-22.3 6.446-5.669 13.112-11.53 16.274-18.444 3.219-7.037 3.3-16 3.377-24.661.089-9.982.181-20.3 5.058-27.877 4.917-7.635 14.313-12.006 23.4-16.234 7.823-3.64 15.91-7.4 20.934-13.194 5.039-5.811 7.624-14.364 10.124-22.636 2.9-9.579 5.889-19.484 12.73-25.418 6.824-5.917 17.041-7.478 26.922-8.986 8.553-1.306 17.4-2.657 23.883-6.831 6.421-4.136 11.283-11.59 15.985-18.8 5.487-8.41 11.159-17.107 19.449-20.9 8.16-3.732 18.374-2.35 28.251-1.015 8.6 1.164 17.495 2.368 24.952.181 7.259-2.127 14-7.869 20.511-13.422 7.674-6.541 15.61-13.3 24.719-14.6 8.782-1.255 18.134 2.932 27.176 6.978 7.98 3.571 16.23 7.263 24.1 7.263s16.119-3.692 24.1-7.263c9.042-4.046 18.4-8.231 27.177-6.978 9.109 1.3 17.045 8.062 24.72 14.6 6.514 5.553 13.252 11.3 20.511 13.423 7.456 2.186 16.35.982 24.953-.182 9.875-1.335 20.088-2.719 28.251 1.016 8.289 3.792 13.962 12.488 19.447 20.9 4.7 7.21 9.565 14.665 15.987 18.8 6.485 4.174 15.328 5.525 23.882 6.831 9.881 1.508 20.1 3.069 26.922 8.987 6.842 5.934 9.836 15.839 12.73 25.418 2.5 8.271 5.085 16.825 10.124 22.636 5.023 5.791 13.111 9.554 20.932 13.193 9.088 4.228 18.483 8.6 23.4 16.235 4.877 7.573 4.97 17.9 5.059 27.878.077 8.664.157 17.623 3.376 24.659 3.162 6.914 9.828 12.775 16.274 18.444 7.556 6.644 15.371 13.516 17.946 22.3 2.512 8.57-.311 18.456-3.04 28.015-2.391 8.371-4.863 17.028-3.76 24.761 1.061 7.451 5.777 14.918 10.338 22.14 5.392 8.539 10.969 17.369 10.969 26.614s-5.577 18.075-10.969 26.614c-4.561 7.222-9.277 14.69-10.338 22.141-1.1 7.733 1.369 16.389 3.76 24.76 2.729 9.56 5.552 19.446 3.04 28.016l-.959-.281c2.43-8.292-.352-18.036-3.043-27.46-2.419-8.472-4.92-17.232-3.788-25.176 1.091-7.664 5.866-15.224 10.482-22.534 5.317-8.419 10.815-17.124 10.815-26.08s-5.5-17.662-10.815-26.081c-4.617-7.31-9.391-14.869-10.482-22.532-1.132-7.945 1.369-16.705 3.788-25.176 2.691-9.424 5.473-19.168 3.043-27.46-2.5-8.509-10.2-15.282-17.648-21.833-6.524-5.738-13.271-11.672-16.523-18.779-3.307-7.23-3.388-16.3-3.466-25.065-.088-9.841-.179-20.017-4.9-27.347-4.76-7.392-14.024-11.7-22.982-15.87-7.916-3.682-16.1-7.491-21.265-13.445-5.179-5.971-7.795-14.628-10.326-23-2.854-9.443-5.8-19.209-12.427-24.952-6.606-5.729-16.678-7.267-26.419-8.754-8.657-1.322-17.609-2.69-24.272-6.981-6.6-4.25-11.523-11.8-16.283-19.093-5.408-8.291-11-16.865-19.026-20.536-7.9-3.613-17.966-2.251-27.7-.934-8.7 1.179-17.706 2.4-25.368.151-7.464-2.188-14.283-8-20.878-13.622-7.567-6.449-15.394-13.117-24.217-14.374-8.5-1.21-17.713 2.912-26.628 6.9-8.075 3.613-16.425 7.35-24.506 7.35s-16.432-3.737-24.507-7.35c-8.913-3.989-18.13-8.111-26.627-6.9-8.822 1.257-16.646 7.925-24.211 14.374-6.6 5.621-13.415 11.433-20.879 13.621-7.659 2.245-16.661 1.027-25.367-.15-9.735-1.316-19.8-2.678-27.7.934-8.025 3.671-13.62 12.244-19.025 20.535-4.759 7.3-9.681 14.843-16.282 19.093-6.664 4.291-15.616 5.659-24.273 6.981-9.741 1.487-19.813 3.024-26.418 8.753-6.622 5.743-9.574 15.509-12.428 24.952-2.53 8.372-5.147 17.029-10.325 23-5.163 5.954-13.35 9.764-21.268 13.446-8.958 4.168-18.221 8.477-22.981 15.869-4.719 7.33-4.81 17.5-4.9 27.345-.079 8.77-.16 17.837-3.467 25.068-3.252 7.107-10 13.041-16.524 18.779-7.449 6.551-15.153 13.325-17.647 21.833-2.431 8.292.352 18.036 3.043 27.46 2.419 8.471 4.92 17.231 3.789 25.176-1.093 7.663-5.867 15.222-10.483 22.533-5.316 8.419-10.814 17.125-10.814 26.081s5.5 17.662 10.814 26.081c4.616 7.31 9.39 14.869 10.483 22.533 1.131 7.944-1.37 16.7-3.789 25.176-2.691 9.423-5.474 19.167-3.043 27.459 2.494 8.508 10.2 15.282 17.647 21.833 6.524 5.738 13.272 11.672 16.523 18.779z"/><path d="m755.259 502.7-1.92-.563c2.739-9.341 1.947-19.82 1.183-29.954-.618-8.162-1.254-16.6-.112-24.623 1.1-7.742 4.033-15.512 6.866-23.025 3.632-9.634 7.388-19.595 7.388-29.667s-3.756-20.034-7.388-29.667c-2.833-7.514-5.762-15.283-6.866-23.027-1.142-8.019-.5-16.46.112-24.623.765-10.133 1.556-20.611-1.182-29.953-2.808-9.577-9.208-18.051-15.4-26.247-4.861-6.435-9.887-13.091-13.169-20.264-3.338-7.3-5.108-15.535-6.82-23.5-2.142-9.972-4.358-20.283-9.674-28.538-5.357-8.319-13.853-14.62-22.069-20.712-6.516-4.834-13.254-9.831-18.47-15.844-5.231-6.032-9.232-13.423-13.1-20.571-4.865-8.983-9.893-18.272-17.347-24.736-7.436-6.449-17.333-10.11-26.905-13.65-7.633-2.824-15.526-5.743-22.256-10.077-6.665-4.292-12.552-10.235-18.245-15.984-7.212-7.282-14.67-14.811-23.705-18.944-8.9-4.069-19.407-4.788-29.569-5.484-8.14-.556-16.558-1.132-24.289-3.4-7.533-2.208-14.817-6.219-21.862-10.1-9.014-4.962-18.334-10.093-28.265-11.508-9.57-1.361-19.331.8-29.669 3.086-8.035 1.78-16.343 3.62-24.51 3.62s-16.477-1.84-24.512-3.62c-10.337-2.289-20.1-4.449-29.667-3.087-9.93 1.416-19.25 6.546-28.263 11.508-7.045 3.879-14.33 7.89-21.864 10.1-7.73 2.266-16.147 2.842-24.289 3.4-10.162.7-20.67 1.414-29.567 5.483-9.036 4.133-16.494 11.663-23.706 18.945-5.693 5.748-11.58 11.692-18.245 15.983-6.73 4.334-14.623 7.254-22.255 10.076-9.572 3.541-19.47 7.2-26.906 13.65-7.454 6.464-12.483 15.753-17.346 24.736-3.87 7.148-7.871 14.539-13.1 20.571-5.216 6.013-11.953 11.011-18.47 15.843-8.216 6.093-16.712 12.394-22.07 20.714-5.315 8.254-7.531 18.564-9.674 28.535-1.711 7.964-3.481 16.2-6.82 23.5-3.281 7.173-8.308 13.829-13.169 20.264-6.19 8.2-12.591 16.67-15.4 26.248-2.738 9.342-1.947 19.822-1.181 29.955.616 8.162 1.254 16.6.111 24.621-1.1 7.743-4.033 15.512-6.866 23.026-3.633 9.634-7.389 19.6-7.389 29.669s3.756 20.035 7.389 29.669c2.833 7.512 5.763 15.281 6.866 23.022 1.143 8.021.5 16.46-.111 24.622-.766 10.134-1.558 20.613 1.181 29.955l-1.92.563c-2.84-9.693-2.035-20.356-1.256-30.668.609-8.056 1.238-16.385.126-24.19-1.073-7.523-3.962-15.187-6.757-22.6-3.7-9.8-7.518-19.937-7.518-30.374s3.822-20.573 7.518-30.375c2.8-7.412 5.684-15.077 6.757-22.6 1.112-7.8.483-16.134-.125-24.189-.78-10.313-1.585-20.977 1.255-30.668 2.912-9.93 9.425-18.553 15.723-26.892 4.8-6.349 9.756-12.915 12.946-19.89 3.248-7.1 4.995-15.229 6.684-23.088 2.181-10.146 4.435-20.637 9.947-29.2 5.556-8.628 14.2-15.039 22.561-21.239 6.43-4.768 13.078-9.7 18.149-15.547 5.088-5.866 9.036-13.16 12.855-20.213 4.949-9.139 10.066-18.591 17.795-25.295 7.711-6.686 17.782-10.411 27.522-14.014 7.532-2.785 15.32-5.666 21.867-9.882 6.48-4.172 12.289-10.037 17.907-15.709 7.338-7.409 14.926-15.071 24.294-19.355 9.228-4.222 19.921-4.953 30.263-5.66 8.034-.549 16.341-1.117 23.862-3.322 7.325-2.147 14.512-6.1 21.462-9.931 9.171-5.048 18.654-10.269 28.947-11.736 9.927-1.413 20.325.888 30.381 3.115 7.93 1.756 16.13 3.572 24.079 3.572s16.148-1.816 24.079-3.572c10.055-2.227 20.46-4.53 30.382-3.114 10.293 1.466 19.776 6.687 28.947 11.736 6.951 3.827 14.138 7.783 21.461 9.93 7.521 2.2 15.829 2.773 23.863 3.322 10.341.707 21.035 1.439 30.264 5.66 9.367 4.285 16.955 11.946 24.294 19.356 5.617 5.671 11.425 11.537 17.906 15.709 6.547 4.216 14.335 7.1 21.867 9.883 9.74 3.6 19.813 7.328 27.523 14.014 7.728 6.7 12.845 16.156 17.8 25.295 3.818 7.054 7.766 14.346 12.854 20.213 5.071 5.849 11.72 10.78 18.149 15.548 8.361 6.2 17 12.61 22.56 21.237 5.513 8.561 7.768 19.052 9.948 29.2 1.689 7.859 3.436 15.986 6.683 23.087 3.19 6.975 8.15 13.541 12.946 19.891 6.3 8.339 12.812 16.961 15.723 26.89 2.84 9.691 2.035 20.354 1.256 30.666-.609 8.056-1.238 16.387-.125 24.19 1.072 7.526 3.962 15.191 6.756 22.6 3.7 9.8 7.517 19.935 7.517 30.373s-3.821 20.571-7.517 30.372c-2.794 7.413-5.684 15.078-6.756 22.6-1.113 7.805-.484 16.135.125 24.191.772 10.319 1.578 20.982-1.263 30.677z"/></g></svg></g><g transform="translate(355.0 23.0) rotate(-5.440332031003267 379.0 130.5) scale(0.647088953389107 0.6444444444444445)"><svg width="1171.4" height="405" viewBox="0 0 1171.4 405"><path d="M882.1 370.1c-20.4 0-40.7-1.7-60.8-4.9-42.1-6.6-85.2-19.8-128.2-39.2-49.4-22.4-99.1-53.2-147.6-91.8-.4-.3-.5-1-.2-1.4s1-.5 1.4-.2h.1c91.3 72.5 183.8 116.4 274.9 130.6 91.9 14.3 151.6-6.8 173.1-16.5 33.5-15.2 61.4-34.3 82.9-56.8 20.9-21.8 34.7-45.7 41.1-70.9 10-39.4 1-79.2-26-114.9-.3-.4-.2-1.1.2-1.4s1.1-.2 1.4.2c27.4 36.2 36.5 76.5 26.3 116.6-6.5 25.6-20.5 49.8-41.6 71.8-21.7 22.6-49.8 41.9-83.5 57.2-16.5 7.5-55.2 21.6-113.5 21.6zM545.5 248.8c-.3 0-.5-.1-.7-.3-22-21-41.5-40.2-60.4-58.7-69-68-118.9-117-186.7-147.1-38-16.8-74.5-25.1-108.6-24.5-32.5.5-61.9 9-87.4 25.1C61.1 69 33.5 123.2 34.6 175.1c0 .6-.4 1-1 1-.5 0-1-.4-1-1-1.1-52.5 26.9-107.4 68.1-133.5 25.8-16.3 55.6-24.9 88.4-25.4 34.4-.6 71.2 7.7 109.5 24.7 68.1 30.2 118.1 79.4 187.3 147.5 18.8 18.6 38.3 37.7 60.3 58.7.4.4.4 1 0 1.4-.1.2-.4.3-.7.3z" fill="#ff4a8b"/><g fill="#c8ff00"><path d="m552.3 205.8-.5 23.2 32.1 5.9-28.4 11.1-.7 27.2-14.9-23.2-34.5 17 22.2-31.2L496 202l37.6 16.8 2.1-13.4 7.6 15.3zm-58.7 69.3-21 3.7-5.6 13.7zm104.6-40.9 18.8-8.6 13.7.6zm570.7-83.9c-.5 0-.9-.4-1-.9-.3-2.5-.7-4.9-1.2-7.4-.1-.5.2-1.1.8-1.2.5-.1 1.1.2 1.2.8v.1c.5 2.5.8 5 1.2 7.5.1.5-.3 1.1-.9 1.1zM903.7 405h-1.4c-.6 0-1-.4-1-1s.4-1 1-1h1.4c4.5 0 9-.1 13.5-.3.5 0 1 .4 1 .9 0 .6-.4 1-1 1-4.5.3-9 .4-13.5.4zm-16.3-.4c-5-.2-10-.6-15-1-.6 0-1-.5-.9-1.1s.5-1 1.1-.9c4.9.4 9.9.8 14.8 1 .6 0 1 .5 1 1 0 .6-.5 1-1 1zm44.7-.8c-.6 0-1-.4-1-1s.4-1 1-1c4.9-.4 9.9-.9 14.8-1.6.5-.1 1 .3 1.1.9s-.3 1-.9 1.1c-5 .6-10 1.2-15 1.6zm-74.5-1.8h-.1c-4.9-.6-9.9-1.4-14.8-2.2-.5-.1-.9-.6-.8-1.2.1-.5.6-.9 1.2-.8 4.9.8 9.8 1.6 14.7 2.2.5.1.9.6.9 1.1-.1.5-.5.9-1.1.9zm104.1-2c-.6 0-1-.4-1-1 0-.5.4-.9.8-1 4.9-.9 9.8-1.8 14.6-2.9.5-.1 1.1.2 1.2.7s-.2 1.1-.7 1.2h-.1c-4.8 1.1-9.8 2.1-14.7 2.9 0 .1-.1.1-.1.1zm-133.5-3h-.2c-4.8-1-9.7-2.1-14.6-3.3-.5-.1-.9-.7-.7-1.2.1-.5.7-.9 1.2-.7 4.8 1.2 9.7 2.3 14.5 3.3.5.1.9.6.8 1.2-.1.4-.5.7-1 .7zm162.6-3.5c-.6 0-1-.4-1-1 0-.4.3-.8.7-1 4.8-1.3 9.6-2.8 14.2-4.3.5-.2 1.1.1 1.3.6s-.1 1.1-.6 1.3c-4.7 1.5-9.5 3-14.3 4.3-.1 0-.2.1-.3.1zm-191.5-3.6h-.3c-4.8-1.4-9.6-2.8-14.3-4.4-.5-.1-.8-.7-.7-1.2s.7-.8 1.2-.7h.1c4.7 1.5 9.5 3 14.2 4.4.5.2.8.7.7 1.2-.1.4-.5.7-.9.7zm219.8-5.8c-.6 0-1-.4-1-1 0-.4.3-.8.6-.9 4.6-1.8 9.2-3.7 13.7-5.7.5-.2 1.1 0 1.3.5s0 1.1-.5 1.3c-4.5 2-9.2 4-13.8 5.8h-.3zm-248.2-3.5c-.1 0-.2 0-.3-.1-4.6-1.7-9.3-3.5-14-5.4-.5-.2-.8-.8-.6-1.3s.8-.8 1.3-.6c4.6 1.9 9.3 3.6 13.9 5.3.5.2.8.8.6 1.3-.1.6-.5.8-.9.8zm275.4-8.7c-.6 0-1-.4-1-1 0-.4.2-.7.5-.9 4.4-2.3 8.8-4.7 13-7.2.5-.3 1.1-.1 1.4.3s.1 1.1-.3 1.4c-4.2 2.5-8.6 5-13.1 7.3-.2.1-.3.1-.5.1zm-303.1-2.4c-.1 0-.3 0-.4-.1-4.5-2-9.1-4.1-13.6-6.2-.5-.3-.7-.9-.4-1.4.2-.4.8-.6 1.3-.4 4.5 2.1 9 4.2 13.5 6.2.5.2.7.8.5 1.3-.1.4-.5.6-.9.6zm328.7-12.8c-.6 0-1-.4-1-1 0-.3.2-.6.4-.8 4.1-2.8 8.2-5.8 12-8.8.4-.4 1.1-.3 1.4.1.4.4.3 1.1-.1 1.4h-.1c-3.9 3-7.9 6-12.1 8.8-.1.2-.3.3-.5.3zm-355.6-.1c-.2 0-.3 0-.5-.1-4.4-2.3-8.8-4.6-13.2-7.1-.5-.3-.6-.9-.3-1.4s.8-.6 1.3-.4c4.4 2.4 8.8 4.8 13.1 7 .5.3.7.9.4 1.3-.1.5-.4.7-.8.7zm-26.1-14.5c-.2 0-.4 0-.5-.1-4.3-2.5-8.5-5.1-12.7-7.8-.5-.3-.6-.9-.3-1.4s.9-.6 1.4-.3c4.2 2.6 8.5 5.3 12.7 7.8.5.3.6.9.3 1.4-.2.3-.5.4-.9.4zm405.1-3.9c-.6 0-1-.4-1-1 0-.3.1-.5.3-.7 3.5-3.3 7.1-6.8 10.5-10.5.4-.4 1-.4 1.4-.1.4.4.4 1 .1 1.4-3.5 3.7-7 7.3-10.6 10.6-.2.2-.4.3-.7.3zm-430.3-12c-.2 0-.4-.1-.6-.2-4.1-2.7-8.2-5.6-12.3-8.5-.4-.3-.5-1-.2-1.4s.9-.5 1.4-.2c4.1 2.9 8.2 5.7 12.3 8.4.5.3.6.9.3 1.4-.2.4-.6.5-.9.5zm450.7-9.8c-.6 0-1-.4-1-1 0-.2.1-.5.2-.6 3.1-3.8 6.1-7.8 9-11.8.3-.4.9-.6 1.4-.2s.6.9.2 1.4c-2.9 4.1-6 8.1-9.1 11.9-.1.2-.4.3-.7.3zM640.6 309c-.2 0-.4-.1-.6-.2-3.9-2.9-7.9-6-11.9-9.1-.4-.3-.5-1-.2-1.4s1-.5 1.4-.2c3.9 3.1 7.9 6.1 11.8 9 .4.3.5 1 .2 1.4-.1.4-.4.5-.7.5zm492.5-16.8c-.6 0-1-.4-1-1 0-.2.1-.4.2-.5 2.6-4.2 5.2-8.5 7.6-12.8.3-.5.9-.7 1.4-.4s.7.9.4 1.4c-2.4 4.3-5 8.7-7.7 12.9-.2.2-.5.4-.9.4zm-516-1.5c-.2 0-.5-.1-.6-.2-3.8-3.1-7.7-6.3-11.5-9.6-.4-.4-.4-1-.1-1.4.4-.4 1-.4 1.4-.1 3.8 3.2 7.6 6.5 11.4 9.6.4.3.5 1 .1 1.4-.1.1-.4.3-.7.3zm530.5-24.6c-.6 0-1-.4-1-1 0-.2 0-.3.1-.4 2.2-4.5 4.2-9 6.1-13.6.2-.5.8-.8 1.3-.5.5.2.8.8.5 1.3-1.9 4.6-3.9 9.2-6.1 13.7-.2.3-.5.5-.9.5zm11.3-27.6c-.1 0-.2 0-.3-.1-.5-.2-.8-.7-.6-1.3 1.6-4.7 3.1-9.5 4.3-14.2.1-.5.7-.8 1.2-.7s.8.7.7 1.2c-1.3 4.8-2.8 9.6-4.4 14.3 0 .5-.4.8-.9.8zm7.8-28.8h-.2c-.5-.1-.9-.6-.8-1.2 1-4.9 1.7-9.8 2.3-14.7.1-.5.6-.9 1.1-.9.5.1.9.6.9 1.1-.6 4.9-1.4 9.9-2.4 14.8 0 .5-.4.9-.9.9zm3.5-29.6c-.6 0-1-.5-1-1 .1-2.4.1-4.9.1-7.2 0-2.5-.1-5.1-.2-7.6 0-.6.4-1 1-1s1 .4 1 1c.1 2.5.2 5.1.2 7.7 0 2.4-.1 4.9-.2 7.3.1.4-.3.8-.9.8zm-575.8 91.1c-.2 0-.5-.1-.7-.3-1.9-1.7-3.7-3.3-5.6-5-.4-.4-.4-1-.1-1.4.4-.4 1-.4 1.4-.1 1.9 1.7 3.7 3.4 5.6 5 .4.4.4 1 .1 1.4-.1.3-.4.4-.7.4zM1 116c-.6 0-1-.4-1-1 0-.1 0-.3.1-.4 1.1-2.3 2.1-4.6 3.2-6.8.2-.5.8-.7 1.3-.5s.7.8.5 1.3c-1.1 2.2-2.2 4.5-3.2 6.7-.2.5-.5.7-.9.7zm456.5 33c-.3 0-.5-.1-.7-.3-3.4-3.7-6.8-7.4-10.3-10.9-.4-.4-.4-1 0-1.4s1-.4 1.4 0c3.4 3.6 6.9 7.3 10.3 11 .4.4.3 1-.1 1.4-.1.1-.3.2-.6.2zm-20.8-21.7c-.3 0-.5-.1-.7-.3-3.6-3.5-7.2-7.1-10.8-10.5-.4-.4-.4-1 0-1.4s1-.4 1.4 0c3.6 3.4 7.2 6.9 10.8 10.5.4.4.4 1 0 1.4-.2.2-.4.3-.7.3zm-21.8-20.6c-.2 0-.5-.1-.7-.3-3.7-3.4-7.5-6.7-11.3-9.9-.4-.4-.5-1-.1-1.4s1-.5 1.4-.1c3.8 3.2 7.6 6.6 11.3 9.9.4.4.4 1 .1 1.4-.2.2-.4.4-.7.4zM11.3 96c-.6 0-1-.4-1-1 0-.2 0-.3.1-.5 2.5-4.4 5.2-8.7 8-12.8.3-.5.9-.6 1.4-.3s.6.9.3 1.4c-2.7 4.1-5.4 8.3-7.9 12.7-.2.3-.5.5-.9.5zM392 87.2c-.2 0-.4-.1-.6-.2-3.9-3.2-7.9-6.3-11.8-9.2-.4-.3-.5-1-.2-1.4s1-.5 1.4-.2c3.9 3 7.9 6.1 11.9 9.3.4.3.5 1 .1 1.4-.2.1-.5.3-.8.3zM28 71.1c-.6 0-1-.4-1-1 0-.2.1-.4.2-.6 3.1-4 6.4-7.9 9.8-11.5.4-.4 1-.4 1.4-.1.4.4.4 1 .1 1.4-3.3 3.6-6.6 7.4-9.7 11.4-.2.2-.5.4-.8.4zM368.1 69c-.2 0-.4-.1-.6-.2-4.1-2.9-8.2-5.8-12.4-8.5-.5-.3-.6-.9-.3-1.4s.9-.6 1.4-.3c4.1 2.7 8.3 5.6 12.4 8.5.5.3.6.9.2 1.4-.1.4-.4.5-.7.5zM343 52.4c-.2 0-.4-.1-.5-.1-4.3-2.6-8.6-5.2-12.9-7.6-.5-.3-.7-.9-.4-1.4s.9-.7 1.4-.4c4.3 2.4 8.7 5 13 7.7.5.3.6.9.3 1.4-.2.2-.5.4-.9.4zM48.5 49.1c-.6 0-1-.4-1-1 0-.3.1-.6.3-.7 3.8-3.4 7.7-6.6 11.7-9.6.4-.3 1.1-.3 1.4.2.3.4.3 1.1-.2 1.4h-.1c-3.9 2.9-7.8 6.1-11.5 9.5-.1.1-.4.2-.6.2zm268.4-11.5c-.2 0-.3 0-.5-.1-4.5-2.3-9-4.5-13.5-6.6-.5-.2-.7-.8-.5-1.3s.8-.7 1.3-.5c4.5 2.1 9 4.3 13.5 6.6.5.3.7.9.4 1.3 0 .4-.4.6-.7.6zM72.6 31.2c-.6 0-1-.4-1-1 0-.4.2-.7.5-.9 4.3-2.6 8.7-5 13.2-7.3.5-.2 1.1 0 1.3.4.2.5 0 1.1-.4 1.3-4.4 2.2-8.8 4.7-13.1 7.2-.2.3-.3.3-.5.3zm217-6.2c-.1 0-.3 0-.4-.1-4.6-1.9-9.3-3.8-14-5.4-.5-.2-.8-.7-.6-1.3.2-.5.7-.8 1.3-.6h.1c4.7 1.7 9.4 3.5 14 5.5.5.2.8.8.5 1.3-.1.3-.5.6-.9.6zM99.4 17.7c-.6 0-1-.4-1-1 0-.4.2-.8.6-.9 4.6-1.9 9.4-3.7 14.2-5.2.5-.2 1.1.1 1.3.6s-.1 1.1-.6 1.3h-.1c-4.7 1.5-9.5 3.3-14 5.2h-.4zm162-3h-.3c-4.8-1.5-9.6-2.9-14.4-4.1-.5-.1-.9-.7-.7-1.2.1-.5.7-.9 1.2-.7 4.8 1.2 9.7 2.6 14.5 4.1.5.2.8.7.7 1.3-.2.3-.6.6-1 .6zM128 8.4c-.6 0-1-.4-1-1 0-.5.3-.9.8-1 4.8-1.2 9.8-2.2 14.8-3.1.5-.1 1.1.3 1.2.8s-.3 1.1-.8 1.2c-4.9.9-9.8 1.9-14.6 3.1h-.4zm104.3-1.2h-.2c-4.9-1-9.9-1.9-14.7-2.6-.5-.1-.9-.6-.8-1.1s.6-.9 1.1-.8c4.9.7 9.9 1.6 14.9 2.6.5.1.9.6.8 1.2-.2.4-.6.7-1.1.7zm-74.8-4c-.6 0-1-.5-1-1s.4-.9.9-1c5-.5 10-.9 15.1-1.1.5 0 1 .4 1 .9v.1c0 .6-.4 1-1 1-5 .2-10 .5-14.9 1.1h-.1zm45.1-.3c-.1 0-.1 0 0 0-5.1-.4-10.1-.7-15-.8-.6 0-1-.5-1-1s.5-1 1-1c5 .1 10 .4 15.1.8.6 0 1 .5 1 1-.1.6-.6 1.1-1.1 1zm270 163c-.3 0-.6-.1-.8-.3-1.6-1.9-3.3-3.8-4.9-5.7-.4-.4-.4-1 0-1.4s1-.4 1.4 0l.1.1c1.6 1.9 3.3 3.8 4.9 5.7.4.4.3 1.1-.1 1.4-.2.1-.4.2-.6.2z"/></g></svg></g><g transform="translate(380.0 394.0) rotate(-163.95541291868233 53.0 53.0) scale(0.6562654779593858 0.6562654779593858)"><svg width="161.52" height="161.52" viewBox="0 0 161.52 161.52"><path d="M80.76 161.52c-22.239 0-42.961-8.85-58.346-24.92l4.334-4.149c14.242 14.877 33.424 23.07 54.012 23.07 12.135 0 23.709-2.815 34.401-8.368l2.766 5.325c-11.392 5.915-24.245 9.042-37.167 9.042zm64.647-32.348-4.801-3.601c9.757-13.008 14.914-28.503 14.914-44.812 0-4.424-.389-8.856-1.156-13.173l5.908-1.05a81.57 81.57 0 0 1 1.248 14.223c0 17.618-5.572 34.358-16.113 48.413zm-129.671-.508C5.442 114.713 0 98.148 0 80.76l.002-.622 6 .029L6 80.76c0 16.097 5.036 31.43 14.563 44.341zm-2.054-80.95-5.381-2.656C22.021 17.266 49.785.001 80.76 0c4.653 0 9.317.399 13.862 1.186l-1.023 5.912A75.522 75.522 0 0 0 80.76 6c-28.675.001-54.378 15.985-67.078 41.714zM141.309 36.9c-9.454-13.027-23.081-22.814-38.372-27.557l1.777-5.73c16.521 5.124 31.241 15.694 41.45 29.763z" fill="#C8FF00"/></svg></g><g transform="translate(366.0 380.0) rotate(0.0 67.0 67.0) scale(0.49210791118553937 0.4921097184324469)"><svg width="272.298" height="272.297" viewBox="0 0 272.298 272.297"><path d="M136.149 272.297C61.076 272.297 0 211.221 0 136.148S61.076 0 136.149 0c75.072 0 136.148 61.076 136.148 136.148s-61.075 136.149-136.148 136.149zm0-270.697C61.959 1.6 1.6 61.958 1.6 136.148s60.359 134.549 134.55 134.549 134.549-60.358 134.549-134.549S210.34 1.6 136.149 1.6z" fill="#65C400"/></svg></g><g transform="translate(103.0 298.0) rotate(0.0 275.0 340.0) scale(1.1489978649530581 1.1527475228642385)"><svg width="478.678" height="589.895" viewBox="0 0 478.678 589.895"><linearGradient id="o" gradientUnits="userSpaceOnUse" x1="326.68" x2="240.79" y1="44.331" y2="220.079"><stop offset=".289" stop-color="#6da2ef"/><stop offset=".577" stop-color="#fff"/></linearGradient><linearGradient xmlns:xlink="http://www.w3.org/1999/xlink" id="q" x1="329.512" x2="243.622" xlink:href="#o" y1="45.715" y2="221.463"/><linearGradient xmlns:xlink="http://www.w3.org/1999/xlink" id="r" x1="339.815" x2="253.925" xlink:href="#o" y1="50.75" y2="226.498"/><linearGradient id="p" gradientUnits="userSpaceOnUse" x1="-34.468" x2="254.421" y1="-90.207" y2="335.571"><stop offset=".289" stop-color="#6da2ef"/><stop offset=".577" stop-color="#352acf"/></linearGradient><linearGradient xmlns:xlink="http://www.w3.org/1999/xlink" id="s" x1="52.755" x2="417.987" xlink:href="#p" y1="228.11" y2="678.129"/><linearGradient xmlns:xlink="http://www.w3.org/1999/xlink" id="t" x1="806.852" x2="-2.476" xlink:href="#o" y1="738.256" y2="120.926"/><linearGradient xmlns:xlink="http://www.w3.org/1999/xlink" id="u" gradientTransform="matrix(.952 .307 -.307 .952 17.527 301.339)" x1="727.847" x2="-81.457" xlink:href="#o" y1="447.747" y2="-169.564"/><path d="M272.4 143.026c9.422-16.889 13.561-22.358 16.8-21.746 4.007.757-.212 11.066-5.434 23.242" fill="url(#o)"/><path d="m293.359 141.731 1.715 6.146c.6-.452 4.2-3.1 6.5-1.93 2.446 1.244-1.345 6.5-4.621 13.029-3.716 6.295-7.73 10.578-12.777 17-.792 1.008-.536 1.362-1.334 2.333-7.669-8.77-13.213-14.7-20.883-23.475l2.308-5.186a74.224 74.224 0 0 0 2.834-22.419 3.867 3.867 0 0 1 .429-1.971 2.777 2.777 0 0 1 1.012-1.081 1.734 1.734 0 0 1 1.188-.318c4.545.935 5.9 9.94 4.3 17.531 1.187-5.609 8.546-2.884 12.893-6.622 1.377-1.183 3.758-2.349 5.651-.858 3.179 2.5 2.307 12.4 1.86 14.488" fill="url(#q)"/><path d="M288.612 140.32c.344.009 5.331-1.092 5.674-1.082 2.5-.89 4.131-.716 5.147.85 2.935 4.521-4.789 18.242-5.645 19.652" fill="url(#r)"/><circle cx="83.162" cy="83.162" fill="url(#p)" r="83.162"/><path d="m34.9 154.834-6.468-.819a12.072 12.072 0 0 0-7.6 1.717c-8.837 5.81-8.868 43.422 1.528 51.051l18.472-11.6z" fill="#fff"/><path d="m112.8 377.635 5.9 4.832q17.854 13.135 37.028 26.3a1359.235 1359.235 0 0 0 73.4 46.922l58 4.6-13.228-35.241c-12.3-14.141-6.968-8.661-25.768-29.063a985.627 985.627 0 0 0-39.322-40.3z" fill="url(#s)"/><path d="M263.625 413.7a.5.5 0 0 1-.375-.169 1036.86 1036.86 0 0 0-15.487-17.2 993.435 993.435 0 0 0-39.3-40.284.5.5 0 0 1 .7-.718 992.891 992.891 0 0 1 39.343 40.325 1044.302 1044.302 0 0 1 15.5 17.221.5.5 0 0 1-.375.83z" fill="#030a24"/><path d="M79.047 326.189c-21.627 13.107 31.87 70.452 54.867 53v-22.526z" fill="#fff"/><path d="M120.541 48.213c5.564 6 13.36 26.6 18.534 35.715a2.618 2.618 0 0 1-1.486 3.78l-3.281 1.056c4.794 19.243 3.268 38.8-6.759 38.8H67.725l31.738-81.353z" fill="#ff4a8b"/><path d="M95.86 16.393C80.127 23 73.375 29.566 77.186 35.624c3.724 5.919 21.312-8.855 35.147.067 5.067 3.267 8.208 7.787 8.208 12.522q-2.352 14.139-4.7 28.275l-1.924 17.371c-.759 3.334-8.135 37.339-42.958 37.339-11.693 2.552-43.094-7.217-50.888-31.889C3.9 48.144 48.9 3.026 95.86 16.393z" fill="#fff"/><path d="M118.54 79.839c-1.5-4.092-7.938-6.555-11-4.855-4.526 2.516-1.518 21.539 11 18.927" fill="#ff4a8b"/><path d="m38.679 151.247-2.468-5.309c-1.423-3.06.028-7.136 2.523-9.407C48.1 128.01 59.47 124.6 75.4 122.087c25.333-4 39.351-1.118 49.188 1.395a7.06 7.06 0 0 1 5.032 8.45q-.713 3.093-1.424 6.187z" fill="#6da2ef"/><path d="M26.83 156.793c3.82-9.147 21.2-17.286 41.375-20.891 35.62-6.364 66.272-1.673 76.978 2.656 8.97 24.558 12.171 34.526 21.14 59.084 3.333 14.512 3.944 38.336 4.029 50.3a27.92 27.92 0 0 0 3.195 12.645c2.276 4.391 4.921 11.069 4.873 18.33 4.573 29.207 3.285 60.181 7.858 89.389-7.022 4.524-24.444 16.483-52.364 10.883-34.845-6.989-62.766-41.241-66.189-84.781-12.694-16.599-54.197-73.993-40.895-137.615z" fill="#6da2ef"/><path d="M173.869 261.225c-.108-.215-.216-.43-.322-.635a28.128 28.128 0 0 1-3.134-11.039c-6.725 3.729-21.194 9.95-48.25 18.608-26.506 8.481-51.772 14.979-61.53 16.55 2.8 4.02 5.25 7.293 7.092 9.7.031.387.078.769.112 1.154 13.717-2.838 37.6-9.4 59.537-16.477 24.419-7.87 38.387-13.649 46.495-17.861z" fill="#ff4a8b"/><path d="M282.845 157.087c-6.392-8.067-15.688-10.013-19.9-6.679-3.964 3.328-19.058 14.191-32.813 13.967-16.5-.183-59.347-20.265-72.162-20.064l-7.951-1.285-15.452 44.909 4.431 10.142c6.927 3.772 68.826 30.391 105.694 12.36 20.91-10.227 31.657-24.058 39.037-33.461.001-.005 5.265-12.13-.884-19.889z" fill="#6da2ef"/><path d="M161.546 144.623c-6.562-1.316-14.511 3.775-17.578 20.866-3.026 16.87-1.8 26.379-1.322 34.335-.494 2.757-5.3 5.616-8.9.611-2.662-5.032-9.972-49.663 5.673-63.72 4.936-5.145 12.083-6.446 17.129-3.577 4.336 2.462 4.719 10.336 4.998 11.485z" fill="#fff"/><path d="M148.12 179.158a76.7 76.7 0 0 1-36.35-30.76l-21.142 2.365-21.142 2.365a76.81 76.81 0 0 1-9.138 18.272 77.181 77.181 0 0 1-19.517 19.755 174.009 174.009 0 0 0 41.7 92.776L74 291.944l11.871 18.338 22.332-2.374a174.392 174.392 0 0 0 32.881-60.229 174.419 174.419 0 0 0 7.036-68.521z" fill="#65c400"/><path d="M102.389 166.577a76.812 76.812 0 0 1-12.95-15.805L68.3 153.137 47.154 155.5a76.772 76.772 0 0 1-9.138 18.275A77.18 77.18 0 0 1 18.5 193.532a174.131 174.131 0 0 0 67.373 116.75 174.407 174.407 0 0 0 32.882-60.229 174.413 174.413 0 0 0 7.033-68.521 77.189 77.189 0 0 1-23.399-14.955z" fill="#c8ff00"/><path d="M72.549 248.187a3.5 3.5 0 0 1-2.4-.952l-21.473-20.221a3.5 3.5 0 0 1 4.8-5.1l18 16.947 22.368-46.341a3.5 3.5 0 0 1 6.305 3.043L75.7 246.208a3.507 3.507 0 0 1-3.153 1.979z" fill="#65c400"/><path d="M226.981 223.439a37.066 37.066 0 0 1-6.447-.533c-6.329-1.118-10.435-3.888-11.56-7.8s.881-8.44 5.65-12.75c4.673-4.226 11.474-7.768 19.147-9.975s15.315-2.818 21.522-1.721c6.33 1.119 10.435 3.889 11.56 7.8 2.284 7.941-8.841 18.136-24.8 22.725a55.3 55.3 0 0 1-15.072 2.254zm21.861-32.313a54.288 54.288 0 0 0-14.8 2.215c-7.529 2.166-14.19 5.631-18.754 9.756-4.469 4.04-6.372 8.207-5.358 11.731s4.84 6.045 10.773 7.094c6.059 1.072 13.541.468 21.072-1.7 15.427-4.437 26.243-14.076 24.112-21.488-1.014-3.526-4.84-6.044-10.772-7.093a36.138 36.138 0 0 0-6.273-.515z" fill="#c8ff00"/><path d="M49.75 54.562a7.613 7.613 0 0 1-2.831-.491 6.219 6.219 0 0 1-3.547-4.045c-.922-2.709-.556-5.766 1.088-9.084 4.234-8.542 16.712-17.888 29.671-22.219a60.109 60.109 0 0 1 21.76-2.69l-.092 1a58.913 58.913 0 0 0-21.351 2.642c-12.73 4.254-24.965 13.386-29.092 21.714-1.522 3.071-1.871 5.869-1.037 8.317a5.2 5.2 0 0 0 2.972 3.439c4.767 1.9 13.8-2.825 24.265-8.3 10.835-5.672 23.115-12.1 33.818-12.695l.054 1c-10.485.575-22.663 6.95-33.408 12.575-8.95 4.686-16.878 8.837-22.27 8.837z" fill="#6da2ef"/><path d="M62.446 114.243a33.658 33.658 0 0 1-29.037-16.73c-11.228-19.24-5.268-45.136 6.041-59.732C58.5 13.187 94.628 15.565 94.994 15.588l-.075 1c-.354-.028-35.957-2.357-54.678 21.808-11.109 14.336-16.975 39.752-5.969 58.613 9.015 15.447 28.768 20.817 44.03 11.977q.636-.369 1.28-.768c9.275-5.768 14.632-26.268 19.359-44.354 4.13-15.8 7.392-28.29 12.485-28.885l.115.994c-4.413.516-7.919 13.935-11.632 28.143-4.775 18.268-10.186 38.973-19.8 44.952q-.658.407-1.3.783a32.532 32.532 0 0 1-16.363 4.392z" fill="#6da2ef"/><path d="M370.164 361.4a31.346 31.346 0 0 1-4.283-.3c-8.179-1.127-16.661-5.3-23.881-11.737s-12.326-14.395-14.375-22.393c-2.069-8.069-.786-15.228 3.612-20.157s11.364-7.017 19.616-5.88c8.18 1.127 16.661 5.3 23.882 11.737 14.96 13.345 19.788 32.433 10.763 42.55-3.614 4.049-8.963 6.18-15.334 6.18zm-23.588-59.773c-6.085 0-11.174 2.017-14.593 5.849-4.169 4.672-5.373 11.506-3.39 19.243 2 7.808 7 15.584 14.073 21.895s15.367 10.392 23.352 11.493c7.91 1.092 14.565-.883 18.733-5.556 8.659-9.705 3.867-28.159-10.682-41.138-7.069-6.313-15.369-10.391-23.353-11.492a30.357 30.357 0 0 0-4.14-.293z" fill="#c8ff00"/><path d="M175.517 281.983c95.836-8.2 160.129 20.78 180.851 29.844a44.268 44.268 0 0 1 21.923 20.993q11.3 22.874 23.452 46.3 14.955 28.806 29.989 56.067L394.9 460.29a353.04 353.04 0 0 1-60.957-99.422 1454.367 1454.367 0 0 1-79.537 4.89q-32.187 1.1-62.263.785c-2.883.531-4.228 1.481-4.7.692-11.592-19.466-3.77-39.889-15.362-59.355z" fill="#6da2ef"/><path d="M192.14 366.543c-5.862-14.772-10.029-82.369 0-85.633l-5.862-3.011s-9.3 5.876-9.545 9.3-4.652 27.666-4.652 28.645 6.642 39.908 6.642 39.908z" fill="#ff4a8b"/><path d="M192.14 366.543c-9.05-2.269-24.767-84.313 0-85.633 1.487-3.343-9.568-9.561-14.057-6.706-26.31 19.483-6.208 78.21 5.783 92.548a4.81 4.81 0 0 0 6.166 1.054z" fill="#fff"/><path d="M320.271 362.02c2.34 3.388 9.925 4.266 12.014 6.468 2.249 2.371 6.033 10.63 9.638 10.63 8.684-2.191 39.021-27.4 39.021-40.942-1.159-6.357-4.605-12.041-12.569-19.42-7.241-6.709-16.332-9.347-21.146-10.876 13.917 10.197-17.44 56.18-26.958 54.14z" fill="#c8ff00"/><path d="M335.908 369.524a12.481 12.481 0 0 1-3.774-.559.5.5 0 0 1 .143-.976c5.479-.087 11.287-5.052 16.354-13.98 7.117-12.54 10.876-29.552 7.736-35a.5.5 0 0 1 .867-.5c3.286 5.707-.472 23.2-7.734 36-4.358 7.681-9.311 12.53-14.215 14.008 3.812.17 8.28-1.333 13.117-4.482 10.844-7.059 20.474-20.227 21.017-25.082a.5.5 0 1 1 1 .111c-.629 5.626-10.863 18.906-21.466 25.808-4.743 3.078-9.176 4.652-13.045 4.652z" fill="#fff"/><path d="M433.462 435.828s-25.216-43.428-29.34-52.128c2.47 4.993-5.979 14.38-18.928 21.01-12.991 6.652-25.589 8.007-28.139 3.028 4.549 9.444 33.922 52.386 44.95 66.028 3.352 4.146 5.458 9.1 10.732 9.882 13.521 2 54.254-17.906 64.519-32.451a7.625 7.625 0 0 0 .485-8.1 7.2 7.2 0 0 0-1.287-1.662c-9.798-9.421-42.992-5.607-42.992-5.607z" fill="url(#t)"/><g fill="#c8ff00"><path d="M410.71 480.9a11.064 11.064 0 0 1-3.992-.627.5.5 0 0 1 .365-.932c12.635 4.963 63.461-23.4 70.208-36.376a.5.5 0 1 1 .886.461c-6.567 12.635-50.123 37.474-67.467 37.474z"/><path d="M463.349 456.962a30.444 30.444 0 0 1-5.73-13.1 25.174 25.174 0 0 1 .037-8.466l.984.172a24.171 24.171 0 0 0-.035 8.129 29.32 29.32 0 0 0 5.514 12.625zm-93.78-35.337a13.377 13.377 0 0 1-5.561-1.007l.842-1.814c4.63 2.148 14.893.053 24.949-5.1a53.082 53.082 0 0 0 14.993-10.935c3.227-3.6 4.5-6.8 3.48-8.78l1.779-.912c1.436 2.8.1 6.72-3.77 11.028a55.106 55.106 0 0 1-15.57 11.379c-7.734 3.964-15.465 6.141-21.142 6.141z"/></g><path d="M204.847 367.1q-6.372 0-12.712-.056l.01-1c20.642.185 41.582-.081 62.241-.784 22.358-.761 45-2.058 67.3-3.852l.08 1a1459.226 1459.226 0 0 1-67.349 3.856c-16.439.553-33.063.836-49.57.836z" fill="#030a24"/><path d="M388.433 353.628a.5.5 0 0 1-.446-.274c-3.369-6.672-6.782-13.5-10.145-20.312a43.838 43.838 0 0 0-21.674-20.757l-1.014-.444c-4.835-2.117-12.141-5.318-21.367-8.769a.5.5 0 0 1 .349-.938c9.253 3.462 16.574 6.669 21.419 8.791l1.014.444a44.843 44.843 0 0 1 22.17 21.23c3.361 6.8 6.773 13.635 10.14 20.3a.5.5 0 0 1-.446.725z" fill="#fff"/><path d="M298.391 489.793s-6.733-30.061-11.9-42.608c-4.489-10.9-52.441 10.154-52.441 10.154l12.164 40.894 2.424 10.919 37.538 1 13.127-14.872z" fill="#6da2ef"/><path d="M218.826 449.688c6.013 3.629 17.161.62 29.607-9.423s19.372-22.109 15.467-26.948c4.075 4.725 16.941 17.647 22.338 34.178-7.417 9.166-25.52 24.983-48.265 22.546-3.394-1.7-7.016-6.609-7.842-9.751-4.56-2.032-8.177-5.759-11.305-10.602z" fill="#c8ff00"/><path d="M242.785 470.8a45.7 45.7 0 0 1-4.866-.261.51.51 0 0 1-.17-.049c-3.453-1.733-7.082-6.63-8.037-9.839-4.213-1.94-7.914-5.439-11.306-10.691a.5.5 0 0 1 .678-.7c6.145 3.706 17.269.109 29.035-9.384 12.006-9.687 19.054-21.707 15.392-26.245a.5.5 0 0 1 .768-.641c.478.555 1.078 1.223 1.773 2 5.151 5.734 15.868 17.668 20.662 32.352a.5.5 0 0 1-.087.47c-3.259 4.025-19.892 22.988-43.842 22.988zm-4.667-1.245c25.581 2.683 43.739-17.5 47.56-22.162-4.731-14.248-15.124-25.895-20.244-31.6.783 5.987-5.783 16.061-16.686 24.859-11.113 8.965-21.77 12.753-28.481 10.277 3.058 4.331 6.363 7.252 10.066 8.9a.5.5 0 0 1 .281.33c.786 2.978 4.219 7.699 7.504 9.395z" fill="#c8ff00"/><path d="M232.551 459.064a.5.5 0 0 1-.055-1c.247-.029 24.8-3.037 36.838-22.523a.5.5 0 0 1 .852.526c-12.3 19.906-37.326 22.961-37.577 22.991a.563.563 0 0 1-.058.006zm5.342 2.436c-1.961 0-3.111-.108-3.153-.113a.5.5 0 0 1-.447-.548.493.493 0 0 1 .548-.446 60.118 60.118 0 0 0 31.023-6.759.5.5 0 1 1 .472.881 61.731 61.731 0 0 1-28.443 6.985z" fill="#fff"/><path d="M310.323 548.414s-10.679-49.066-11.932-58.621c.82 5.509-16.941 10.968-25.17 12.279-7.117 1.134-26.1 1.681-27-3.84 1.433 10.384 16.216 60.266 22.528 76.633 1.918 4.974 2.4 10.337 7.183 12.7 12.254 6.054 57.13-.4 71.362-11.093a7.627 7.627 0 0 0 2.947-7.56 7.2 7.2 0 0 0-.715-1.977c-6.44-11.969-39.203-18.521-39.203-18.521z" fill="url(#u)"/><path d="M287.176 585.785c-7.309 0-13.135-.976-15.942-3.273a.5.5 0 1 1 .633-.773c10.5 8.59 67.581-2.806 77.981-13.085a.5.5 0 1 1 .7.711c-8.214 8.12-42.074 16.42-63.372 16.42z" fill="#c8ff00"/><path d="m340.571 574.863-1-.075c.186-2.474.64-15.062-8.777-19.865l.455-.891c9.983 5.091 9.516 18.246 9.322 20.831zm-75.18-58.042c-7.448 0-13.566-1.473-16.507-4.19l1.358-1.469c3.75 3.466 14.161 4.621 25.31 2.8 15.012-2.444 24.337-8.745 23.629-13.1l1.975-.32c1 6.159-10.1 12.921-25.281 15.393a65.837 65.837 0 0 1-10.484.886z" fill="#c8ff00"/></svg></g></svg>