<svg xmlns="http://www.w3.org/2000/svg" viewBox="0 0 1000 1000" width="1000" height="1000"><g transform="translate(151.0 646.0) rotate(-89.99999999999997 486.5 -318.5) translate(0.0 -0.0) scale(0.8850298072217705 -0.8857556037599422)"><svg width="792.064" height="719.16" viewBox="0 0 792.064 719.16"><linearGradient id="a" gradientUnits="userSpaceOnUse" x1="562.676" x2="544.676" y1="1364.617" y2="-29.383"><stop offset="0" stop-color="#2c25a3"/><stop offset="1" stop-color="#030a24"/></linearGradient><path d="M0 0h1099.398v719.16H0z" fill="url(#a)"/><g fill="#fff"><path d="m468.669 46.409 20.911 12.025 21.446-11.043-12.024 20.911 11.042 21.446-20.911-12.025-21.446 11.043 12.025-20.911z"/><circle cx="675.382" cy="106.89" r="8.808"/><circle cx="67.466" cy="254.423" r="2.708"/><circle cx="97.649" cy="261.245" r="4.113"/><circle cx="26.666" cy="128.867" r="7.574"/><circle cx="233.094" cy="433.569" r="6.026"/><circle cx="717.08" cy="171.164" r="5.072"/></g></svg></g><g transform="translate(59.0 854.0) rotate(180.0 135.0 -201.5) translate(0.0 -0.0) scale(1.1805962448294256 -1.1860545879416804)"><svg width="228.698" height="339.782" viewBox="0 0 228.698 339.782"><linearGradient id="b" gradientTransform="matrix(1 0 0 -1 0 342)" gradientUnits="userSpaceOnUse" x1="6.861" x2="281.924" y1="496.131" y2="-333.045"><stop offset=".289" stop-color="#6da2ef"/><stop offset=".577" stop-color="#352acf"/></linearGradient><path d="M0 0h228.698v43.505l-1.237 1.263v294.014H43.582l-.182 1H0z" fill="url(#b)"/><path d="M227.698 338.782v-55.797l1.002-.069V114.874l-1.002-.316V70.221l1.002-.568V43.456C121.777 100.422 47.926 211.28 43.4 339.782l.221-1h16.484l.168 1h68.864l.284-1z" fill="#352acf"/><g fill="#C8FF00"><path d="M228.7 339.782v-56.866a25.001 25.001 0 0 0-15.173-.246c-14.5 4.923-14.578 25.043-27.617 26.726-9.287 1.2-12.756-8.556-23.163-7.127-7.879 1.082-12.856 7.63-20.045 17.372-5.626 7.624-10.553 14.3-13.545 20.141zm0-270.163c-9.523 6.287-16.9 14.328-17.4 22.4-.376 6.13 3.237 11.958 3.563 12.472a26.39 26.39 0 0 0 13.837 10.424zM43.4 339.782h16.873a58.924 58.924 0 0 0 9.82-31.276c.059-5.544-.814-11.434 2.673-13.809 4.008-2.731 8.766 2.6 16.035.891 8.4-1.975 12.842-11.629 14.255-14.7 4.1-8.909 1.023-12.318 3.563-23.163 2.179-9.3 6.441-15.333 12.918-24.5 9.789-13.854 14.79-15.562 20.936-23.609 19.527-25.566.2-49.12 18.708-69.934 10.679-12.009 22.71-10.464 25.836-22.272 2.659-10.042-5.09-14.761-6.236-27.617a32.41 32.41 0 0 1 2.663-16.055C100.526 135.258 47.224 231.223 43.4 339.782z"/></g></svg></g><g transform="translate(672.0 46.0) rotate(0.0 123.5 202.0) scale(0.537392276780955 0.5340588072774766)"><svg width="459.627" height="756.471" viewBox="0 0 459.627 756.471"><linearGradient id="c" gradientTransform="matrix(1 0 0 -1 0 758)" gradientUnits="userSpaceOnUse" x1="229.814" x2="229.814" y1="26.704" y2="646.729"><stop offset="0" stop-color="#2c25a3"/><stop offset="1" stop-color="#030a24"/></linearGradient><linearGradient id="d" gradientTransform="matrix(1 0 0 -1 0 758)" gradientUnits="userSpaceOnUse" x1="101.107" x2="274.44" y1="332.678" y2="52.678"><stop offset="0" stop-color="#fff"/><stop offset="1" stop-color="#6da2ef"/></linearGradient><path d="M0 0h459.627v756.471H0z" fill="url(#c)"/><circle cx="64.856" cy="51.61" fill="#fff" r="7.871"/><path d="M459.627 585A1013.788 1013.788 0 0 0 46.432 756.471h413.2z" fill="url(#d)"/><path d="M443.377 664.28c.619 5.435-.451 11.574-3.381 15.928-2.015 2.994-4.037 3.853-15.945 10.053-18 9.368-17.186 10.962-16.638 13.568.522 2.482-.357 3.587 1.733 7.576.413.788 2.061 4.425-3.466 12.825-8.713 13.248-18.248 12.495-27.038 22.878a24.154 24.154 0 0 0-5.153 9.363h86.138V651.186a772.029 772.029 0 0 0-16.25 13.094z" fill="#c8ff00"/></svg></g><g transform="translate(125.0 71.0) rotate(0.0 286.0 231.0) scale(0.4577219371240499 0.45733020131437885)"><svg width="1249.667" height="1010.211" viewBox="0 0 1249.667 1010.211"><linearGradient id="e" gradientUnits="userSpaceOnUse" x1="783.241" x2="110.23" y1="-10.68" y2="880.604"><stop offset=".423" stop-color="#2c25a3"/><stop offset=".711" stop-color="#030a24"/></linearGradient><path d="M1238.327 253.933h-274.17V53a50 50 0 0 0-50-50H53A50 50 0 0 0 3 53v904.21a50 50 0 0 0 50 50h503.33c225.237 0 407.827-182.591 407.827-407.828V409.923z" fill="url(#e)"/><path d="M556.33 1010.211H53a53.061 53.061 0 0 1-53-53V53A53.06 53.06 0 0 1 53 0h861.157a53.06 53.06 0 0 1 53 53v197.933h282.51l-282.51 160.735v187.715a410.488 410.488 0 0 1-410.827 410.828zM53 6A47.053 47.053 0 0 0 6 53v904.21a47.053 47.053 0 0 0 47 47h503.33a404.489 404.489 0 0 0 404.827-404.827V408.178l1.517-.862 264.314-150.383H961.157V53a47.053 47.053 0 0 0-47-47z" fill="#fff"/></svg></g><g transform="translate(706.0 172.0) rotate(0.0 73.5 92.5) translate(11.0 0.0) scale(0.48374358299328685 0.47584629907325715)"><svg width="279.073" height="388.781" viewBox="22.739 0 279.073 388.781"><linearGradient id="f" gradientUnits="userSpaceOnUse" x1="50.507" x2="127.996" y1="14.741" y2="14.741"><stop offset="0" stop-color="#352acf"/><stop offset="1" stop-color="#232276"/></linearGradient><path d="m132.81 138.941.08 7.613a11.291 11.291 0 0 0 4.134 8.615L169 181.377a13.163 13.163 0 0 0 10.652 2.779l49.149-8.753-13.093-16.818z"/><path d="m112.546 100.608.052 15.4a15.745 15.745 0 0 0 5.771 12.131l55.577 45.5v-24.381z" fill="#6da2ef"/><path d="m186.192 173.064-9.277 1.364a3.935 3.935 0 0 1-4.507-3.893v-22.78l19.669 1.391v17.106a6.885 6.885 0 0 1-5.885 6.812z" fill="#352acf"/><path d="m173.408 148.828 17.669 1.25v16.174a5.919 5.919 0 0 1-5.03 5.823l-9.278 1.363a2.891 2.891 0 0 1-.434.032 2.935 2.935 0 0 1-2.927-2.935zm-1-1.073v22.78a3.935 3.935 0 0 0 3.927 3.935 4.1 4.1 0 0 0 .58-.042l9.277-1.364a6.885 6.885 0 0 0 5.885-6.812v-17.106z" fill="#6da2ef"/><path d="M179.669 167.439a2.217 2.217 0 0 1-2.216-2.217v-16.917l9.579.679v14.37a3.523 3.523 0 0 1-3 3.467l-4.046.594a2.181 2.181 0 0 1-.317.024zm-1.216-18.06v15.843a1.215 1.215 0 0 0 1.394 1.2l4.046-.595a2.517 2.517 0 0 0 2.139-2.476v-13.436z" fill="#6da2ef"/><path d="m206.375 169.768 13.239-1.945v-18.677h-21.126v13.809a6.886 6.886 0 0 0 7.887 6.813z" fill="#352acf"/><path d="M218.614 150.146v16.813l-12.384 1.82a6.059 6.059 0 0 1-.869.063 5.886 5.886 0 0 1-5.873-5.887v-12.809zm1-1h-21.126v13.809a6.888 6.888 0 0 0 6.873 6.887 7 7 0 0 0 1.014-.074l13.239-1.945z" fill="#6da2ef"/><path d="M190.119 68.545 140.254 71.5l-15.009 8.483 17.515 12.992 52.581 33.96 41.092 19.3 7.094-3.443 9.321-26.1a6.85 6.85 0 0 0-1.848-7.381 328.979 328.979 0 0 0-30.57-24.535 329.056 329.056 0 0 0-19.257-12.659 7.131 7.131 0 0 0-3.5-1.03l-2.37-.07z" fill="#fff"/><path d="M189.21 165.318 66.55 65.208a36.4 36.4 0 0 1-5.229-5.229 150.888 150.888 0 0 1-15.93-24.037 155.898 155.898 0 0 1-4.736-9.719c-1.644-3.68-2.458-10.044-2.837-14.274a10.044 10.044 0 0 1 2.335-7.382l1.474-1.742 92.707 81.323 75.248 56.087z" fill="#fff"/><path d="m241.716 160.128-48.615 6.5a4.671 4.671 0 0 1-5.289-4.63v-38.78l23.565 4.013 34.39 28.21a4.67 4.67 0 0 1-4.051 4.687z" fill="#6da2ef"/><path d="M207.02 119.129c-14.342-12.286-30.051-24.228-46.463-32.861-3.179-1.812-8.22-.082-11.712 4.179-3.519 4.3-4.213 9.631-1.744 12.373 11.69 14.4 26.485 27.452 41.35 39.1l11.815 9.683 18.646-22.754z" fill="#FFF"/><path d="m199.946 151.993-11.814-9.683c-17.778-13.93-31.329-26.745-41.421-39.172-2.653-2.947-1.91-8.546 1.745-13.006 3.609-4.4 8.918-6.249 12.348-4.3l-.247.434.354.352-.271.272-.332-.188c-3.007-1.715-7.773.029-11.079 4.062-3.29 4.014-4.062 9.162-1.757 11.721 10.058 12.387 23.558 25.152 41.286 39.042l11.823 9.689z"/><path d="M188.934 142.321c-4.24-3.475-3.5-11.386 1.645-17.669s12.761-8.56 17-5.085l-3.031-2.484c-4.241-3.475-11.853-1.2-17 5.085s-5.886 14.194-1.645 17.669zm29.976-13.469c-4.24-3.475-11.921-1.114-17.156 5.273s-6.04 14.383-1.8 17.858 11.922 1.115 17.156-5.273 6.04-14.383 1.8-17.858z"/><path d="M217.006 131.176c2.853 2.337 1.889 8.619-2.064 13.441s-9.921 7-12.774 4.665-1.888-8.618 2.065-13.441 9.921-7 12.773-4.665" fill="#ff4a8b"/><path d="M241.6 105.642c-13.508-11.573-28.3-22.82-43.763-30.952-2.994-1.707-7.743-.077-11.032 3.936-3.315 4.045-3.968 9.071-1.642 11.654 11.01 13.559 24.946 25.857 38.947 36.829l11.129 9.119L252.8 114.8z" fill="#fff"/><g fill="#6da2ef"><path d="m234.92 136.619-11.129-9.119c-16.751-13.127-29.518-25.2-39.019-36.9-2.507-2.784-1.807-8.075 1.645-12.287 3.41-4.159 8.424-5.9 11.666-4.054l.387.2-.461.887-.4-.21c-2.842-1.617-7.311.023-10.414 3.811-3.09 3.769-3.818 8.6-1.658 11 9.47 11.661 22.184 23.682 38.885 36.77l11.138 9.127z"/><path d="M224.565 127.486c-3.994-3.273-3.3-10.724 1.55-16.642s12.019-8.063 16.013-4.789l-2.855-2.34c-3.994-3.273-11.163-1.129-16.013 4.789s-5.544 13.369-1.55 16.643zm28.057-12.832c-4.093-3.354-11.41-1.192-16.344 4.829s-5.617 13.621-1.524 16.975 11.41 1.192 16.344-4.829 5.617-13.621 1.524-16.975z"/></g><path d="M250.447 116.762c2.852 2.337 1.888 8.619-2.064 13.441s-9.922 7-12.775 4.665-1.888-8.618 2.065-13.441 9.921-7 12.774-4.665" fill="#ff4a8b"/><path d="m38.116 6.367.664-.748 35.902 31.866-.664.748z" fill="#6da2ef"/><path d="M232.755 189.4c11.535 16.64 31.768 29.891 29.232 50.919-2.652 21.991-37.165 23.443-41.359 48.7-1.839 11.068 5.813 10.709 3 19.27-2.731 8.308-12.979 9.682-19.135 16.3-19.026 20.451-37.545 30.85-71.681 32.543-17.722.878-23.729-8.649-46.431-9.009-47.99-.762-60.919 30.63-86.33 28.812-.17 3.875.171 7.854 0 11.729 31.908 2.147 32.637-25.406 79.843-23.965 37.44 1.143 70.29 18.639 95.127 4.317 6.572-3.79 4.146-4 15.043-12.715 15.387-12.3 65.641-17.1 75.876-48.4 3.4-10.394-6.973-12.063-3.355-23.454 3.792-11.941 42.288-25.935 26-64.353-11.713-12.78-20.807-23.414-32.519-36.194l-31.74-50.729-17.307 13.478" fill="#FFF"/><path d="M270.2 189.026c3.748-5.7 7.753 9.833 17.964 10.589-5.3-5.091-2.392-10.234-4.4-16.608-3.612-11.438-12.97-15.764-9.077-25.133 1.328-3.194 9.524 9.705 9.524 9.705.79-2.764-.131-6.942-2.126-11.739-1.583-3.806-8.339-9.331-10.956-13.519-8.1-12.955-15.239-24.675-22.254-26.338l-2.437 3-11.394 15.307q1.063 1.752 2.131 3.687 1.014 1.845 1.884 3.6a45.972 45.972 0 0 0-12.428-7.629 64.92 64.92 0 0 0-11.143-3.534c-4.035 4.835-6.552 10.429-10.588 15.263 1.172 1.488-3.45 1.98-2.732 3.6 7.2 16.268-17.523 38.31 39.386 82.089-6.794-14.752-9.744-46.316 1.974-45.989 3.582.1 6.261 8.454 8.095 12.008 11.313 21.057 23.282 24.4 29.427 27.128a67.738 67.738 0 0 1 22.83 17.525c-3.126-5.629-6.909-20.538-11.3-28.057-7.802-13.351-26.734-18.337-22.38-24.955z" fill="#ff4a8b"/><path d="M261.394 177.685s-9.123-6.87-13.839-13.527c-4.945-6.981-5.563-14.04-1.888-15.644 2.778-1.213 7.858-.113 12.6 9.729 4.052 8.414 3.127 19.442 3.127 19.442z" fill="#FFF"/><path d="M195.3 71.017c-8.336-.842-18.591-.208-31.822 2a124.284 124.284 0 0 0-22.094 5.825 16.721 16.721 0 0 1-16.784-3.135l-54-47.471 1.871-7.878 69.924 7.3z" fill="#6da2ef"/><path d="M140.342 71.287a12.222 12.222 0 0 1-8.092-2.994L98.871 38.952l.66-.752 33.379 29.341a11.525 11.525 0 0 0 11.466 2.048c20.443-7.227 35.961-6.527 41.061-6.294l.7.031-.039 1-.7-.032c-5.054-.227-20.424-.925-40.683 6.239a13.125 13.125 0 0 1-4.373.754z" fill="#fff"/><path d="M158.819 56.854a5.063 5.063 0 0 1-3.352-1.279l-5.157-4.588a1.72 1.72 0 0 1 .8-2.969c1.554-.32 3.118-.612 4.653-.868 3.257-.545 6.386-1 9.3-1.356l.122.993c-2.9.352-6.012.806-9.256 1.349a125.68 125.68 0 0 0-4.615.86.716.716 0 0 0-.556.525.7.7 0 0 0 .216.718l5.157 4.588a4.023 4.023 0 0 0 3.461.949c1.432-.292 2.889-.563 4.331-.8 3.709-.62 7.247-1.124 10.516-1.5l.114.994a206.2 206.2 0 0 0-10.466 1.491c-1.429.239-2.874.507-4.3.8a4.828 4.828 0 0 1-.968.093z" fill="#fff"/><path d="M41.627 2.825 77.268 34.09l19.614 6.2a29.426 29.426 0 0 0 16.367.447 162.189 162.189 0 0 1 38.588-5.337l-30.255-24.792a30.839 30.839 0 0 0-17.541-6.921L47.761.015A7.029 7.029 0 0 0 42.1 2.3z"/><path d="m50.507 10.615 11.536 10.12A147.5 147.5 0 0 1 128 15.864l-6.414-5.256c-.026-.021-.054-.039-.08-.061a344.487 344.487 0 0 0-70.995.068z" fill="url(#f)"/><ellipse cx="82.526" cy="40.059" fill="#6da2ef" rx="14.709" ry="9.927" transform="matrix(.63383997 -.77346422 .77346422 .63383997 -.767 78.498)"/><ellipse cx="81.622" cy="39.318" fill="#fff" rx="12.533" ry="7.858" transform="matrix(.63383997 -.77346422 .77346422 .63383997 -.525 77.528)"/></svg></g><g transform="translate(157.0 36.0) rotate(0.0 224.5 236.5) scale(0.46565605129891074 0.4641796581360979)"><svg width="964.231" height="1019.002" viewBox="0 0 964.231 1019.002"><linearGradient id="g" gradientTransform="matrix(.99846599 -.05536842 .05536842 .99846599 -120.172 122.298)" gradientUnits="userSpaceOnUse" x1="403.82" x2="662.788" y1="9.114" y2="340.594"><stop offset=".289" stop-color="#030a24"/><stop offset="1" stop-color="#232276"/></linearGradient><path d="M660.007 732.511c-14.6 0-28.249-2.327-39.066-6.72-12.966-5.265-20.369-12.9-20.846-21.5-.968-17.459 27.814-33.3 64.16-35.317 17.48-.972 34.11 1.34 46.824 6.5 12.966 5.265 20.37 12.9 20.846 21.5.478 8.6-6.036 17.011-18.34 23.677-12.066 6.537-28.338 10.67-45.82 11.64q-3.912.222-7.758.22zm12.02-61.7q-3.791 0-7.659.213c-35.215 1.953-63.128 16.825-62.223 33.153.43 7.765 7.38 14.767 19.568 19.716 12.44 5.051 28.756 7.308 45.939 6.356s33.15-5 44.955-11.4c11.566-6.266 17.7-13.993 17.268-21.758-.43-7.764-7.38-14.766-19.568-19.715-10.575-4.294-23.951-6.569-38.28-6.569zm166.419-38.033s82.272 25.621 88.535 8.643-34.9-20.651-32.241-30.4c1.883-6.9 41.45-26.309 63.891-41.084 11.355-7.477 4.171-22.378-10.177-15.812-16.685 7.636-34.569 19.164-38.265 15.451-4.221-4.241 22.361-20.25 34.92-32.849 7.787-7.813.844-22.352-17.293-10.176 2.006-4.637-3.893-14.86-15.719-8.79-4.1 2.107-8.9 4.869-11.644 6.659-.169-5.948-9.167-7.014-22.523 2.346-12.59 8.824-64.676 48.7-69.754 65.389s14.795 36.203 30.27 40.623z" fill="#c8ff00"/><ellipse cx="829.184" cy="607.815" fill="#ff0068" rx="38.918" ry="46.391" transform="matrix(.95344891 -.3015546 .3015546 .95344891 -144.69 278.338)"/><path d="M844.7 632.637c6.155-7.5 8.241-19.378 4.517-31.157-4.57-14.447-16.369-23.991-28.042-23.712l-.009-.019-.271.016a6.047 6.047 0 0 1-.723.044c-72.896-5.929-124.132-10.371-223.772-71.833-28.009-17.277-48.235-39.956-85.912-53.671-8.213-2.99 1.526 228.862 1.526 228.862 152.189 52.7 296.381-7.93 331.264-46.922.24-.244.459-.513.69-.768.244-.277.5-.544.74-.824z" fill="#6da2ef"/><ellipse cx="489.469" cy="577.974" fill="#fff" rx="131.11" ry="96.477" transform="matrix(.34343022 -.9391782 .9391782 .34343022 -221.449 839.183)"/><path d="M476.553 670.347a55.361 55.361 0 0 1-25.2-5.9c-17.51-8.861-29.154-26.659-32.789-50.117-3.615-23.332 1.134-49.5 13.37-73.68s30.508-43.5 51.449-54.41c21.052-10.966 42.291-12.123 59.8-3.262 36.025 18.23 44.737 73.765 19.419 123.8-12.236 24.182-30.508 43.505-51.448 54.411-11.702 6.092-23.46 9.158-34.601 9.158zm41.424-191.2c-10.818 0-22.251 2.986-33.65 8.922-20.563 10.709-38.52 29.715-50.565 53.516s-16.722 49.528-13.173 72.439c3.53 22.785 14.784 40.045 31.687 48.6s37.476 7.4 57.926-3.251c20.563-10.71 38.521-29.716 50.565-53.517l.916.464-.916-.464c24.807-49.021 16.5-103.318-18.514-121.037a53.316 53.316 0 0 0-24.276-5.676z" fill="#fff"/><path d="M487.326 443.32c-39.653-19.753-100.705-42.731-191.44-45.464-31.219-.941-74.658 6.86-110.086 21.357-51.27 20.979-92.734 52.772-108.707 115.433C42.14 671.771 22.29 797.023 21.487 801.477c-5.363 22-1.773 42.876 8.323 62.012 19.295 45 65.73 87.054 127.719 109.722 89.726 32.81 180.726 13.538 214.014-42.333 42.362-51.526 107.225-151.734 149.467-241.951 17.815-38.047 32.853-65.082 32.853-130.856 0-66.602-32.755-97.923-66.537-114.751z" fill="#6da2ef"/><ellipse cx="160.62" cy="567.918" fill="#fff" rx="116.658" ry="136.477" transform="matrix(.96611529 -.25811092 .25811092 .96611529 -141.146 60.703)"/><path d="M228.152 860.151q-1.82 0-3.678-.082c-20.79-.919-42.776-9.5-61.909-24.15-39.6-30.332-54.514-77.61-33.239-105.389s70.807-25.7 110.41 4.631 54.515 77.61 33.239 105.389c-9.736 12.713-25.559 19.601-44.823 19.601zM174.209 713c-17.934 0-33.618 6.2-43.253 18.777-20.587 26.88-5.847 72.867 32.858 102.511 18.8 14.4 40.377 22.828 60.751 23.729 20.241.892 36.85-5.752 46.78-18.716 20.588-26.88 5.848-72.867-32.857-102.511C217.9 721.019 194.6 713 174.209 713z" fill="#c8ff00"/><path d="M255.011 997.7a1.027 1.027 0 0 1-.7-1.776c14.651-13.726 33.213-40.4 52.266-75.115 20.666-37.649 40.181-81.458 56.436-126.691 23.534-65.489 60.394-191.808 42.835-302.015a1.026 1.026 0 1 1 2.027-.324c17.632 110.661-19.329 237.359-42.93 303.034-37.325 103.865-82.786 177.836-109.23 202.609a1.021 1.021 0 0 1-.704.278z" fill="#fff"/><path d="M391.691 703.152a142.191 142.191 0 0 1-45.376-8.752c-48.069-17.577-89.944-68.4-90.92-107.037a124.2 124.2 0 0 0-4.167-28.032c-15.24-57.039-67.113-92.721-115.864-79.7S59.448 549.458 74.687 606.5q.829 3.1 1.808 6.12c13.924 55.649 55.1 126.338 110.753 189.141 66.34 74.867 135.119 117 221.579 133.822z" fill="#6da2ef"/><path d="m409.949 936.845-1.318-.256c-86.3-16.79-154.819-58.163-222.152-134.149C131.032 739.867 89.544 669 75.5 612.867a120.041 120.041 0 0 1-1.8-6.1c-7.438-27.827-5.162-56.467 6.4-80.65 11.592-24.236 31.123-41.1 54.995-47.474s49.21-1.506 71.346 13.72c22.085 15.191 38.341 38.88 45.775 66.7a125.466 125.466 0 0 1 4.2 28.263c.464 18.366 10.509 40.52 27.56 60.789 17.292 20.556 40.14 37.074 62.687 45.318a140.706 140.706 0 0 0 45.047 8.69l.931.022zm-254.071-458.88a78.3 78.3 0 0 0-20.248 2.662c-23.284 6.22-42.345 22.691-53.674 46.377-11.355 23.74-13.584 51.877-6.277 79.229a125.659 125.659 0 0 0 1.793 6.07c13.987 55.897 55.306 126.438 110.544 188.776 66.67 75.238 134.475 116.373 219.687 133.235l-16.968-230.161a142.905 142.905 0 0 1-44.772-8.788c-22.873-8.364-46.038-25.1-63.554-45.925-17.344-20.619-27.565-43.236-28.041-62.052a123.279 123.279 0 0 0-4.132-27.792c-7.308-27.351-23.273-50.627-44.955-65.541-15.439-10.62-32.459-16.09-49.403-16.09z" fill="#fff"/><ellipse cx="426.555" cy="811.258" fill="#ff0068" rx="134.188" ry="117.54" transform="matrix(.2000349 -.97978877 .97978877 .2000349 -453.634 1066.904)"/><path d="M157.529 973.21C95.54 950.543 49.105 908.485 29.811 863.489c-10.1-19.136-13.687-40.012-8.324-62.012.159-.882 1.068-6.521 2.692-16.039a93.471 93.471 0 0 0-18.554 30.536c-24.719 67.6 34.343 151.323 131.919 187 95.635 34.971 192.722 10.782 219.821-53.838-40.665 41.427-120.734 53-199.836 24.074z" fill="#ff0068"/><path d="M503.693 699.961c-15.354-22.793-7.738-75.587-1.633-87.713s33.759-66.111 9.785-78.632-43.563 22.159-49.211 37.206c-4.42 11.772-20.969 38.926-25.144 78.174-9.566-11.244-21.275-16.4-35.641-11.183-12.063 4.38-18.175 13.292-19.507 24.629-7.987-4.76-16.706-5.564-26.036-.5-13.785 7.48-18.888 19.777-17.12 34.189-7.546-2.43-15.041-1.675-21.765 3.393-26.227 19.768-15.765 75.826 7.949 125.1 4.576 9.508 12.842 26.279 12.842 26.279 27.682 52.773 95.776 69.949 146.086 46.718 22.717-10.489 38.6-27.535 52.758-47.086 23.227-32.076 66.526-100.629 85.608-133.425 9.649-16.583 16.026-32.28 3.085-42.466-12.457-9.8-28.607.923-41.327 14.668-8.754 9.46-48.052 42.151-61.437 31.952-9.485-7.236-13.042-12.025-19.292-21.303z" fill="#c8ff00"/><path d="M434.551 752.425a22.1 22.1 0 0 1-12.246-3.793 1.027 1.027 0 0 1 1.117-1.723c6.107 3.963 12.652 4.5 20.006 1.657 11.67-4.516 28.585-19.183 10.751-66.672-9.2-24.5-20.252-39.181-32.844-43.629a1.027 1.027 0 1 1 .683-1.937c13.192 4.66 24.659 19.747 34.083 44.844 6.182 16.462 8.754 31.219 7.437 42.673-1.528 13.292-8.045 22.254-19.368 26.636a26.593 26.593 0 0 1-9.619 1.944z" fill="#0b1a42"/><path d="M397.16 772.067a25.559 25.559 0 0 1-14.322-4.731 1.027 1.027 0 0 1 1.139-1.709c7.784 5.185 15.254 5.781 23.51 1.874 18.494-8.755 19.573-30.171 3.3-65.475-10.421-22.606-27.341-48.143-48.79-41.412a1.027 1.027 0 0 1-.615-1.959c18.1-5.68 35.831 9.019 51.27 42.512 7.7 16.715 11.491 30.151 11.573 41.073.1 12.966-5.238 22.089-15.858 27.116a26.037 26.037 0 0 1-11.207 2.711z" fill="#0b1a42"/><path d="M359.427 790.586a25.709 25.709 0 0 1-5.186-.543c-12.655-2.607-26.026-14.5-36.683-32.624a1.027 1.027 0 1 1 1.77-1.041c10.211 17.367 23.417 29.2 35.328 31.653a21.632 21.632 0 0 0 17.8-3.946c18.582-13.637 7.611-42.78-1.8-57.85-10.543-16.881-23.38-27.821-35.222-30.017a21.383 21.383 0 0 0-17.393 4.124 1.027 1.027 0 1 1-1.236-1.64 23.356 23.356 0 0 1 19-4.5c12.406 2.3 25.742 13.58 36.588 30.948 6.489 10.39 10.856 21.989 11.982 31.823 1.445 12.621-2.258 22.57-10.707 28.77a23.665 23.665 0 0 1-14.241 4.843zm105.194 45.586a1.026 1.026 0 0 1-1.006-.829c-3.71-18.836.139-41.458 10.561-62.066 14.657-28.984 39.126-49.1 62.335-51.252a1.017 1.017 0 0 1 1.117.928 1.028 1.028 0 0 1-.928 1.117c-22.522 2.086-46.346 21.765-60.692 50.134-10.219 20.207-14 42.346-10.378 60.742a1.027 1.027 0 0 1-.809 1.206 1.051 1.051 0 0 1-.2.02z" fill="#0b1a42"/><path d="m335.412 589.549-27.111 35.4a3.2 3.2 0 0 0 2.3 5.14l48.516 3.716a3.2 3.2 0 0 0 3.054-4.731l-21.4-39.113a3.2 3.2 0 0 0-5.359-.412z" fill="#ff4a8b"/><ellipse cx="362.071" cy="426.533" fill="#fff" rx="80.746" ry="157.638" transform="matrix(.16081147 -.98698514 .98698514 .16081147 -117.136 715.301)"/><circle cx="405.048" cy="247.985" fill="url(#g)" r="247.978"/><path d="M441.654 380.491 319.1 257.943c-2.243 67.305-6.1 112.349-17.142 138.868-3.232 7.76-7.08 13.936-11.684 18.61 5.294 19.108 29.041 38.037 60.686 46.238 28.217 7.314 56.5 3.937 70.445-6.671-.4-7.487-.993-14.153.065-21.346 3.995-27.142 20.184-53.151 20.184-53.151z" fill="#ff4a8b"/><path d="M421.473 433.642c.237-1.616.521-3.227.84-4.83a94.968 94.968 0 0 1-18.451-1.986c-32.4-6.616-59.724-32.9-74.178-76.155 8.208 42.5 17.346 88.887 91.724 104.317-.403-7.488-.993-14.153.065-21.346z" fill="#ff0068"/><path d="M536.027 274.808c-25.64 125.579-75.933 162.315-132.227 150.821s-97.357-82.267-82-198.529c14.66-110.925 52.74-150.752 125.478-145.548 63.291 4.528 117.275 53.539 88.749 193.256z" fill="#ff4a8b"/><path d="M540.434 166.624c-10.792-59.274-50.519-83.079-93.895-86.183C373.243 75.2 334.872 115.329 320.1 227.1c-.388 2.931-.712 5.81-1.029 8.683l14.946 2.435a171.785 171.785 0 0 1 1.874-17.292c4.492-28.117 15.571-53.191 30.939-73.21 10.448-13.609 37.984-34.978 57.54-14.613 24.962 25.995 57.094 32.461 82.276 23.67 8.915-3.112 11.277-5.92 17.85-12.686 4.052-4.166 11.204 8.587 15.938 22.537z" fill="#2c25a3"/><ellipse cx="323.35" cy="253.79" fill="#ff4a8b" rx="21.928" ry="35.577" transform="matrix(.94853942 -.31665908 .31665908 .94853942 -63.724 115.449)"/><path d="M382.023 258.043c7.94 9.182 10.966 20.376 6.757 25s-14.058.933-22-8.249-10.966-20.375-6.757-25 14.06-.932 22 8.249zm147.696 25.747c2.278 5.825-4.549 15.2-15.248 20.934s-21.217 5.663-23.5-.162 4.551-15.2 15.248-20.933 21.225-5.663 23.5.161z" fill="#d63871"/><g fill="#030a24"><path d="M399.258 191.7a3.268 3.268 0 0 1-.878-6.093 41.215 41.215 0 0 1 16.089-4.723 41.842 41.842 0 0 1 22.566 4.608 3.269 3.269 0 1 1-3 5.808 35.43 35.43 0 0 0-19.042-3.888 34.757 34.757 0 0 0-13.553 3.98 3.271 3.271 0 0 1-2.184.314zm116.012 21.674a34.79 34.79 0 0 0-10.908-8.974 35.437 35.437 0 0 0-19.047-3.888 3.269 3.269 0 0 1-.479-6.52A41.867 41.867 0 0 1 507.4 198.6a41.238 41.238 0 0 1 12.951 10.652 3.272 3.272 0 0 1-5.082 4.123z"/><ellipse cx="409.206" cy="235.348" rx="13.98" ry="7.837" transform="matrix(.2000349 -.97978877 .97978877 .2000349 96.757 589.203)"/><ellipse cx="495.543" cy="252.134" rx="13.98" ry="7.837" transform="matrix(.2000349 -.97978877 .97978877 .2000349 149.376 687.224)"/><path d="M392.383 322.621c-8.695 14.5-2.794 32.551 10.052 38.593 10.649 5.01 24.885 1.2 32.749-9.977zm50.923-.588a14.427 14.427 0 0 1-6.445-1.656c-3.655-1.844-10.769-5.909-10.841-5.95a1.026 1.026 0 1 1 1.019-1.782c.071.04 7.14 4.079 10.747 5.9 3.264 1.648 6.659 1.878 9.082.618a7 7 0 0 0 3.56-5.536c2.85-19.659 5.555-45.723 8.27-79.681a1.026 1.026 0 0 1 2.046.164c-2.718 34-5.427 60.108-8.284 79.812a8.969 8.969 0 0 1-4.644 7.062 9.706 9.706 0 0 1-4.51 1.049zm-111.163-56.849a1.026 1.026 0 0 1-.809-.394l-16.264-20.812a1.027 1.027 0 1 1 1.618-1.265l16.264 20.812a1.027 1.027 0 0 1-.809 1.659z"/></g><path d="M238.315 430.519a127.118 127.118 0 0 1-22.166-22.742C157.7 330.4 198.684 200.924 307.69 118.579c108.754-82.155 244.122-86.348 302.792-9.527A247.838 247.838 0 0 0 391.32.387C254.576 7.969 149.869 124.969 157.451 261.713A247.139 247.139 0 0 0 236.9 430.226a1.753 1.753 0 0 1 1.415.293z" fill="#6da2ef"/><path d="M197.361 270.881c15.561-54.216 53.8-109.6 110.329-152.3 109.006-82.345 244.756-86.374 303.206-9 .771 1.02 1.515 2.056 2.253 3.094a130.013 130.013 0 0 0-31.178-52.69c-68.506-69.8-205.057-46.877-304.994 51.2-47.539 46.655-78.229 101.913-89.971 154.545-12.941 58.018-4.089 55.477 10.355 5.151z" fill="#c8ff00"/><path d="M245.086 322.22c-41.438-75.951-53.075-157.614-37.694-223.965a246.978 246.978 0 0 0-49.942 163.458c7.582 136.745 124.582 241.452 261.327 233.87a248.859 248.859 0 0 0 51.762-8.389C388.1 482.516 298.925 420.9 245.086 322.22z" fill="#6da2ef"/><path d="M562.942 436.8c-92.365 56.876-230.444.346-308.409-126.264a356.346 356.346 0 0 1-41.473-96.066c-1.483-5.655-6.615 1.019-5.588 6.029a367.056 367.056 0 0 0 37.614 101.721C298.925 420.9 388.1 482.516 470.539 487.194a247.14 247.14 0 0 0 104.623-58.812 145.727 145.727 0 0 1-12.22 8.418z" fill="#c8ff00"/><ellipse cx="188.787" cy="268.332" fill="#c8ff00" rx="52.176" ry="95.439" transform="matrix(.98877725 -.14939729 .14939729 .98877725 -37.971 31.217)"/><ellipse cx="178.305" cy="269.916" fill="#030a24" rx="41.574" ry="81.228" transform="matrix(.98877725 -.14939729 .14939729 .98877725 -38.325 29.669)"/><ellipse cx="172.61" cy="270.777" fill="#c8ff00" rx="35.815" ry="72.318" transform="matrix(.98877725 -.14939729 .14939729 .98877725 -38.518 28.827)"/><ellipse cx="166.617" cy="272.588" fill="#030a24" rx="26.802" ry="58.113" transform="matrix(.98877725 -.14939729 .14939729 .98877725 -38.855 27.952)"/><path d="M620.535 199.622c8.946 44.7-1.807 93.514-20.547 94.564-14.564.816-1.3-23.407-13.729-78.225-10.081-44.456-48.747-83.9-24.971-88.655s50.301 27.618 59.247 72.316z" fill="#fff"/><path d="M890.881 556.839a1.027 1.027 0 0 1-.744-1.734c6.847-7.208 31.407-25.819 37.132-29.427 7.148-4.5 11.395-6.11 17.67-3.709a1.027 1.027 0 1 1-.733 1.918c-5.488-2.1-9.165-.679-15.842 3.529-6.23 3.925-30.481 22.516-36.739 29.1a1.019 1.019 0 0 1-.744.323zm-20.024-7.428a1.027 1.027 0 0 1-.707-1.772c4.138-3.925 22.549-19.324 27.966-22.885q.912-.6 1.859-1.235c5.016-3.35 10.7-7.146 17.433-8.581a1.026 1.026 0 1 1 .428 2.007c-6.348 1.354-11.859 5.034-16.721 8.281-.635.425-1.259.842-1.872 1.244-5.351 3.517-23.577 18.767-27.68 22.659a1.022 1.022 0 0 1-.706.282z" fill="#0b1a42"/><path d="M231.256 685.456a1.027 1.027 0 0 1-.581-1.874c26.264-17.955 57.3-20.908 83.008-7.9a1.026 1.026 0 1 1-.926 1.832c-25.037-12.669-55.287-9.769-80.923 7.759a1.022 1.022 0 0 1-.578.183zm65.413-21.385a1.026 1.026 0 0 1-.463-.11c-18.083-9.151-39.248-10.075-59.594-2.6a1.027 1.027 0 1 1-.708-1.928c20.887-7.673 42.632-6.716 61.229 2.7a1.026 1.026 0 0 1-.464 1.942z" fill="#fff"/></svg></g><g transform="translate(152.0 346.0) rotate(-180.0 286.0 177.0) scale(1.1150380029123546 1.1103026045064486)"><svg width="512.987" height="318.832" viewBox="0 0 512.987 318.832"><linearGradient id="h" gradientUnits="userSpaceOnUse" x1="-53.109" x2="430.105" y1="363.561" y2="-59.874"><stop offset=".274" stop-color="#fff"/><stop offset="1" stop-color="#c8ff00"/></linearGradient><linearGradient xmlns:xlink="http://www.w3.org/1999/xlink" id="i" x1="-19.506" x2="500.722" xlink:href="#h" y1="458.241" y2="2.371"/><path d="M355.067 0c-46.276 22-90.35 62.853-113.379 81.53-37.128 30.113-50.727 51.47-85.256 78.015-52.208 40.143-96.752 53.309-93.647 63.889 3.122 10.637 47.822 4.146 50.188 11.459C118.552 252.138 28.11 285.94.537 315.528a1.967 1.967 0 0 0 2.373 3.064 111.159 111.159 0 0 0 10.377-5.922c51.7-37.639 132.543-67.129 128.168-82.159-2.993-10.282-55.608-2.713-57.167-10.944-1.674-8.841 44.038-18.1 96.947-56.416 12.873-9.322 20.133-15.991 30.125-24.647 26.845-23.259 81.136-57.032 143.707-98.6" fill="url(#h)"/><path d="M217.175 178.548c-1.123-3.144 27.868-13.645 61.13-39.566 16.525-12.879 16.125-22.529 29.156-33.09C331.939 86.053 384.7 87.73 413.8 62.6c16.96-14.648 97.513-8.59 98.559-5.69 13.667 37.916-200.576 32.236-202.353 64.49-.307 5.568 17.19 1.368 17.354 7.636.231 8.813-108.16 55.171-110.185 49.512z" fill="url(#i)"/></svg></g><g transform="translate(371.0 44.0) rotate(0.0 135.0 134.5) scale(0.4620392014593594 0.4630872945372914)"><svg width="584.366" height="580.884" viewBox="0 0 584.366 580.884"><circle cx="52.999" cy="527.885" fill="#ff0068" r="22.232"/><path d="M53 561.508a33.624 33.624 0 1 1 33.623-33.623A33.662 33.662 0 0 1 53 561.508zm0-65.247a31.624 31.624 0 1 0 31.623 31.624A31.659 31.659 0 0 0 53 496.261z" fill="#ff4a8b"/><path d="M53 580.883a53 53 0 1 1 53-53 53.058 53.058 0 0 1-53 53zm0-103a50 50 0 1 0 50 50 50.056 50.056 0 0 0-50-49.997z" fill="#ff4a8b"/><g fill="#ff0068"><path d="m58.62 529.891-11.242-11.386 153.707-151.76 82.708 87.909L544.737 47.063l13.475 8.627-272.009 424.875-85.54-90.919z"/><path d="m584.366 0-75.931 53.457 40.581 1.76 18.577 36.113z"/></g></svg></g><g transform="translate(191.0 621.0) rotate(0.0 80.5 78.5) scale(0.4584204142298252 0.4616520084802827)"><svg width="351.206" height="340.083" viewBox="0 0 351.206 340.083"><linearGradient id="j" gradientUnits="userSpaceOnUse" x1="35.359" y1="222.069" x2="275.359" y2="37.648"><stop offset="0" style="stop-color:#c8ff00"/><stop offset=".214" style="stop-color:#c9ff05"/><stop offset=".484" style="stop-color:#ccff15"/><stop offset=".781" style="stop-color:#d2ff2e"/><stop offset="1" style="stop-color:#d7ff46"/></linearGradient><path fill="url(#j)" d="M88.887 102.704c17.408.849 33.712-7.698 49.211-15.67s38.09-16.746 49.642-13.442c11.552 3.304 8.692 13.999 3.844 18.229S163.486 105.815 168 117.124s23.015.522 33.605-3.601c63.916-24.884 106.611-46.484 121.598-56.2 16.339-10.592 29.92 26.527 27.781 45.881s-9.221 43.32-26.395 52.496c-22.728 12.143-38.556 23.012-57.926 33.346-15.743 8.399-34.323 17.926-37.341 35.512-2.793 16.279 9.472 33.885 2.181 48.706-7.081 14.394-26.701 15.328-41.526 21.455-18.224 7.532-27.569 26.22-22.702 43.737 2.081 7.49-79.947-11.734-95.376-40.349-32.219-59.752-44.423-127.848-63.32-193.05C3.798 88.563-1.492 71.625.39 54.555 3.063 30.297 21.325 7.562 45.099 2.05c50.4-11.685 87.305 30.218 63.775 34.072-54.592 8.943-37.395 65.733-19.987 66.582z"/></svg></g><g transform="translate(289.0 343.0) rotate(0.0 325.0 325.0) scale(0.4645113340765515 0.4642316644562097)"><svg width="1399.32" height="1400.163" viewBox="0 0 1399.32 1400.163"><g fill="#fff"><path d="M7.555 978.588a1 1 0 0 1-1-1v-22.272a1 1 0 0 1 2 0v22.272a1 1 0 0 1-1 1zm45.89 73.643a1.5 1.5 0 0 1-1.5-1.5v-38.077a1.5 1.5 0 0 1 3 0v38.077a1.5 1.5 0 0 1-1.5 1.5zm70.401 139.669a2 2 0 0 1-2-2v-55.427a2 2 0 0 1 4 0v55.427a2 2 0 0 1-2 2zm88.197 107.836a3 3 0 0 1-3-3v-50.845a3 3 0 0 1 6 0v50.845a3 3 0 0 1-3 3zm124.741 60.638a3 3 0 0 1-3-3v-126.805a3 3 0 0 1 6 0v126.805a3 3 0 0 1-3 3zm131.516 39.789a3.5 3.5 0 0 1-3.5-3.5v-192.311a3.5 3.5 0 0 1 7 0v192.311a3.5 3.5 0 0 1-3.5 3.5zM526 1277.9a2.5 2.5 0 0 1-2.5-2.5v-104.448a2.5 2.5 0 0 1 5 0V1275.4a2.5 2.5 0 0 1-2.5 2.5zm-29.05-373.191a2 2 0 0 1-2-2V890.14a2 2 0 0 1 4 0v12.569a2 2 0 0 1-2 2zm-51.15 9.937a2 2 0 0 1-2-2v-21.19a2 2 0 0 1 4 0v21.19a2 2 0 0 1-2 2zm-68.666-42.318a2 2 0 0 1-2-2v-39.145a2 2 0 0 1 4 0v39.145a2 2 0 0 1-2 2zm40.466-83.095a2 2 0 0 1-2-2V768.2a2 2 0 0 1 4 0v19.035a2 2 0 0 1-2 1.998zm66.535-9.517a2 2 0 0 1-2-2v-45.174a2 2 0 0 1 4 0v45.174a2 2 0 0 1-2 2zm80.87-19.958a2 2 0 0 1-2-2v-93.089a2 2 0 0 1 4 0v93.089a2 2 0 0 1-2 2zm89.321 47.494a2 2 0 0 1-2-2v-78.218a2 2 0 0 1 4 0v78.218a2 2 0 0 1-2 2zm89.433-18.482a2 2 0 0 1-2-2v-52.014a2 2 0 1 1 4 0v52.014a2 2 0 0 1-2 2zm106.893-14.485a2 2 0 0 1-2-2v-36.871a2 2 0 0 1 4 0v36.871a2 2 0 0 1-2 2zm97.379-8.17a2 2 0 0 1-2-2V700.19a2 2 0 0 1 4 0v63.925a2 2 0 0 1-2 2zm76.842-27.234a2 2 0 0 1-2-2V700.19a2 2 0 0 1 4 0v36.691a2 2 0 0 1-2 2zm84.336 14.056a2 2 0 0 1-2-2V687.22a2 2 0 0 1 4 0v63.717a2 2 0 0 1-2 2zm86.07-41.685a2 2 0 0 1-2-2v-46.9a2 2 0 0 1 4 0v46.9a2 2 0 0 1-2 2zm75.55-40.752a2 2 0 0 1-2-2v-89.9a2 2 0 0 1 4 0v89.9a2 2 0 0 1-2 2zm74.271-64.049a2 2 0 0 1-2-2v-73.022a2 2 0 1 1 4 0v73.022a2 2 0 0 1-2 2zm46.292-66.988a2 2 0 0 1-2-2v-50.447a2 2 0 0 1 4 0v50.447a2 2 0 0 1-2 2zm-29.305-128.326a1 1 0 0 1-1-1V371.55a1 1 0 1 1 2 0v38.587a1 1 0 0 1-1 1zm-64.955 1.263a1 1 0 0 1-1-1v-71.042a1 1 0 1 1 2 0V411.4a1 1 0 0 1-1 1zm-82.377 6.063a1 1 0 0 1-1-1v-39.915a1 1 0 0 1 2 0v39.915a1 1 0 0 1-1 1zm-86.463-43.98a1 1 0 0 1-1-1v-34.1a1 1 0 0 1 2 0v34.1a1 1 0 0 1-1 1zm-69.674-11.19a1 1 0 0 1-1-1v-99.866a1 1 0 0 1 2 0v99.866a1 1 0 0 1-1 1zm-58.481-12.113a1 1 0 0 1-1-1v-22.764a1 1 0 1 1 2 0v22.764a1 1 0 0 1-1 1zM960.8 298.5a1 1 0 0 1-1-1v-20.7a1 1 0 1 1 2 0v20.7a1 1 0 0 1-1 1zm23.164-92a1 1 0 0 1-1-1v-20.108a1 1 0 1 1 2 0V205.5a1 1 0 0 1-1 1zM1019 184.462a1 1 0 0 1-1-1v-18.315a1 1 0 1 1 2 0v18.315a1 1 0 0 1-1 1zm36.885-24.352a1 1 0 0 1-1-1v-31.084a1 1 0 0 1 2 0v31.084a1 1 0 0 1-1 1zm65.096-69.404a1 1 0 0 1-1-1V72.46a1 1 0 0 1 2 0v17.246a1 1 0 0 1-1 1zm-29.394 37.484a1 1 0 0 1-1-1V92.671a1 1 0 0 1 2 0v34.519a1 1 0 0 1-1 1zm65.739-27.412a1 1 0 0 1-1-1V76.284a1 1 0 0 1 2 0v23.494a1 1 0 0 1-1 1z"/></g><path d="m1120.709 75.245 5.925-1.542.885-43.225-5.993-.745-5.788.745.613 43.225zM436.398 945.724l2.63 406.42 39.189 5.23 9.863-10.593 3.945-406.287-33.007-1.877zm77.566-49.06-6.797 5.387 2.583 339.139 33.849.598 1.224-339.138-4.758-6.225zm-202.102 87.038 2.625 334.942 28.999 7.92 14.172-7.92 3.937-334.942-31.493-4.699zm-121.563 12.409 2.368 247.471 22.678 7.64 15.078-7.64 3.364-247.471-24.547-4.015zm-81.953-18.523 1.659 160.891 13.394 6.703 13.522-6.703 2.424-160.891-15.946-2.753zm444.011-445.441 1.344 136.35 5.484 3.95 17.461-1.796 2.126-136.349-9.85-2.754zM367.676 727.155l1.008 112.527 8.17 2.993 8.282-2.993 1.455-112.527-10.297-1.078zm585.06-535.943.896 87.508 1.903 1.796 11.528-.599 1.231-87.867-4.701-1.077zm250.49 71.108 1.119 117.196 9.29 3.352 10.185-3.352 1.68-117.196-11.865-1.317zM405.731 623.725l1.231 145.567 7.723 3.592 12.871-3.592 1.903-145.567-10.297-1.676zm710.641-365.095 1.231 85.533 7.834 3.592 12.872-3.592 1.903-85.533-10.409-1.676zM471.319 557.765l1.343 185.311 8.395 4.669 13.879-4.669 2.014-185.311-11.08-2.035zm540.626 57.76 1.679 93.015 11.64 5.147 10.857-5.147 1.679-93.015-12.2-2.155zm84.28-88.406 1.679 171.545 12.535 5.027 9.962-5.027 1.791-171.545-13.543-2.394zm83.944-43.335 2.015 183.635 16.341 5.986 9.85-5.986 2.015-183.635-16.901-2.753zm207.623-70.988-6.716 2.035 1.455 72.544 13.879 3.113 1.455-5.148 1.455-72.185zM44.546 946.224l.896 77.213 6.492 2.993 9.066-2.993 1.343-77.213-9.066-1.436zm1242.513-651.223 1.007 86.311 7.387 3.591 10.185-3.591 1.567-86.311-10.297-1.676zm-260.642-129.905 1.432-66.075-9.103-1.532-8.592 1.532.921 66.075 8.489 2.735zm21.639-102.023.844 73.903 9.282 1.905 4.218-2.407 1.313-73.903-8.344-.501zm104.537-38.579.483 52.326 3.477 1.704 4.781-1.704.725-52.326-4.83-.775zM0 920.606l.784 39.145 4.029 2.514 9.066-2.514 1.231-39.145-8.506-1.317zM1352.424 332.47h-.001l1.008 39.145 10.968 2.754 5.372-3.113.784-39.265-10.185-.957zM974.897 145.124l1.008 39.145 8.059 4.07 7.723-4.07 1.343-39.145-9.066-1.796z" fill="#c8ff00"/><path d="m1046.754 217.189 1.231 54.349 7.723 3.591 12.872-3.591 1.902-54.349-10.297-1.676zm-403.53 337.703h-.001l1.679 188.423 1.455 5.148 19.811-1.078.784-190.698-6.492-2.274zm89.678 82.241 1.679 121.984 5.037 3.711 15.781-3.711 1.679-121.984-10.745-1.317zm609.112-152.631-10.073 2.275 1.679 77.572 17.124 4.908 3.918-5.626 1.679-77.453zm-84.392-.479 1.791 117.675 14.214 5.148 7.947-5.746 1.791-117.675-13.767-1.915zM935.384 659.159l1.678 53.63 10.969 5.746 11.641-5.746 1.679-53.63-12.648-2.035zm-97.491-7.182 1.678 92.655 11.081 5.148 11.416-5.148 1.679-92.655-12.088-2.155zM436.846 820.05l1.008 72.783 6.491 2.993 8.954-2.993 1.343-72.783-9.066-1.437zM990.12 243.399l1.007 86.311 5.26 2.394 12.2-2.394 1.567-86.311-9.849-1.078zM487.101 849.618l1.007 39.265 8.842 4.07 8.283-4.07 1.567-39.265-9.85-1.676zm597.995-786.246.641 28.025 5.85 2.914 5.449-2.914 1.041-28.025-6.49-1.286z" fill="#ff4a8b"/><path d="m478.217 1357.374-39.188-5.23-2.631-406.42 43.134 2.682zm65.382-115.586-33.849-.598-2.583-339.139 37.656.599zm-200.113 84.776-28.999-7.92-2.624-334.942 32.936 5.37zm-128.141-75.342-22.678-7.64-2.368-247.471 26.168 5.18zm-91.946-106.04-13.394-6.703-1.659-160.891 15.946 4.789zm435.786-472.735-5.484-3.95-1.343-136.35 7.499 2.633zM376.854 842.675l-8.171-2.993-1.007-112.527 9.738 1.675zm578.681-562.159-1.903-1.796-.896-87.508 3.246 1.078zm258.1 102.352-9.29-3.352-1.119-117.196 10.969 1.916zm-798.95 390.016-7.723-3.591-1.231-145.568 9.625 2.035zm710.753-425.129-7.835-3.592-1.231-85.533 9.625 1.915zm-644.381 399.99-8.395-4.669-1.343-185.311 10.409 2.514zm544.207-34.058-11.64-5.147-1.679-93.015 13.655 2.873zm85.176-9.996-12.536-5.027-1.679-171.545 14.551 2.753zm88.085-30.286-16.341-5.986-2.015-183.635 18.692 3.352zm197.885-182.917-13.879-3.113-1.455-72.544 15.558 1.197zM51.934 1026.43l-6.492-2.993-.896-77.213 7.947 2.035zm1243.519-641.527-7.387-3.591-1.007-86.311 8.954 2.394zm-275.889-217.072-8.489-2.735-.921-66.076 9.819 1.641zm38.618-28.95-9.282-1.905-.844-73.903 10.594.902zm62.527-63.636-4.358-1.542-.613-43.225 5.243 1.01zm35.844 3.279-3.477-1.704-.483-52.326 4.201 1.136zM4.813 962.265l-4.029-2.514L0 920.606l5.149 1.676zm1359.586-587.896-10.969-2.753-1.007-39.146 11.976 1.317zm-380.435-186.03-8.059-4.07-1.007-39.145 9.066 2.514z" fill="#65c400"/><path d="m1055.708 275.129-7.723-3.591-1.231-54.349 9.626 1.916zM646.357 748.463l-1.455-5.148-1.679-188.423 3.47 2.873zm93.26 14.365-5.036-3.711-1.679-121.984 7.051 1.436zm611.127-193.571-17.124-4.908-1.679-77.572 19.139 2.753zm-77.117 37.589-14.214-5.148-1.791-117.675 16.341 2.754zM948.031 718.535l-10.968-5.746-1.679-53.63 12.983 3.592zm-97.379 31.245-11.081-5.148-1.679-92.655 13.096 2.873zM444.345 895.826l-6.492-2.993-1.007-72.783 7.947 2.035zm552.042-563.722-5.26-2.394-1.007-86.311 6.827 1.197zM496.95 892.953l-8.842-4.07-1.007-39.265 9.849 2.634zm594.637-798.642-5.85-2.914-.641-28.025 6.491 1.8z" fill="#ff0068"/><path d="M7.555 921.606a1 1 0 0 1-1-1v-16.879a1 1 0 0 1 2 0v16.879a1 1 0 0 1-1 1zm45.89 26.118a1.5 1.5 0 0 1-1.5-1.5v-26.1a1.5 1.5 0 0 1 3 0v26.1a1.5 1.5 0 0 1-1.5 1.5zm70.401 31.864a2 2 0 0 1-2-2v-40.821a2 2 0 0 1 4 0v40.821a2 2 0 0 1-2 2zm88.197 19.523a3 3 0 0 1-3-3v-50.844a3 3 0 0 1 6 0v50.844a3 3 0 0 1-3 3zM336.784 986.7a3 3 0 0 1-3-3v-53.756a3 3 0 0 1 6 0V983.7a3 3 0 0 1-3 3zM468.3 947.011a3.5 3.5 0 0 1-3.5-3.5v-39.784a3.5 3.5 0 0 1 7 0v39.784a3.5 3.5 0 0 1-3.5 3.5zm57.7-46.088a2.5 2.5 0 0 1-2.5-2.5v-28.1a2.5 2.5 0 0 1 5 0v28.1a2.5 2.5 0 0 1-2.5 2.5zm-29.05-49.305a2 2 0 0 1-2-2v-12.57a2 2 0 0 1 4 0v12.57a2 2 0 0 1-2 2zM445.8 822.05a2 2 0 0 1-2-2v-21.189a2 2 0 0 1 4 0v21.189a2 2 0 0 1-2 2zm-68.666-92.895a2 2 0 0 1-2-2V708.24a2 2 0 0 1 4 0v18.915a2 2 0 0 1-2 2zM417.6 625.106a1.5 1.5 0 0 1-1.5-1.5v-19.034a1.5 1.5 0 0 1 3 0v19.034a1.5 1.5 0 0 1-1.5 1.5zm66.535-66.367a1.5 1.5 0 0 1-1.5-1.5v-27.055a1.5 1.5 0 0 1 3 0v27.055a1.5 1.5 0 0 1-1.5 1.5zm80.87-24.075a1.5 1.5 0 0 1-1.5-1.5v-47.106a1.5 1.5 0 0 1 3 0v47.106a1.5 1.5 0 0 1-1.5 1.5zm89.321 22.566a1.5 1.5 0 0 1-1.5-1.5v-51.954a1.5 1.5 0 0 1 3 0v51.954a1.5 1.5 0 0 1-1.5 1.5zm89.433 81.463a1.5 1.5 0 0 1-1.5-1.5v-52.015a1.5 1.5 0 1 1 3 0v52.015a1.5 1.5 0 0 1-1.5 1.5zm106.893 14.784a1.5 1.5 0 0 1-1.5-1.5v-36.871a1.5 1.5 0 0 1 3 0v36.871a1.5 1.5 0 0 1-1.5 1.5zm97.379 7.182a1.5 1.5 0 0 1-1.5-1.5v-63.925a1.5 1.5 0 1 1 3 0v63.925a1.5 1.5 0 0 1-1.5 1.5zm76.842-44.053a1.5 1.5 0 0 1-1.5-1.5v-36.692a1.5 1.5 0 0 1 3 0v36.692a1.5 1.5 0 0 1-1.5 1.5zm84.336-87.987a1.5 1.5 0 0 1-1.5-1.5v-39.983a1.5 1.5 0 1 1 3 0v39.983a1.5 1.5 0 0 1-1.5 1.5zm86.07-43.694a1.5 1.5 0 0 1-1.5-1.5v-19.393a1.5 1.5 0 1 1 3 0v19.393a1.5 1.5 0 0 1-1.5 1.5zm75.55 0a1.5 1.5 0 0 1-1.5-1.5V444.16a1.5 1.5 0 0 1 3 0v39.265a1.5 1.5 0 0 1-1.5 1.5zm74.271 2.753a1.5 1.5 0 0 1-1.5-1.5v-73.023a1.5 1.5 0 0 1 3 0v73.023a1.5 1.5 0 0 1-1.5 1.5zm46.292-72.578a1.5 1.5 0 0 1-1.5-1.5v-46.929a1.5 1.5 0 0 1 3 0V413.6a1.5 1.5 0 0 1-1.5 1.5zm-29.305-82.109a1 1 0 0 1-1-1V299.55a1 1 0 1 1 2 0v32.441a1 1 0 0 1-1 1zM1297.132 296a1 1 0 0 1-1-1v-29.927a1 1 0 1 1 2 0V295a1 1 0 0 1-1 1zm-82.377-32.68a1 1 0 0 1-1-1v-27.51a1 1 0 1 1 2 0v27.51a1 1 0 0 1-1 1zm-86.463-3.451a1 1 0 0 1-1-1v-18.435a1 1 0 1 1 2 0v18.435a1 1 0 0 1-1 1zm-69.674-41.68a1 1 0 0 1-1-1v-30.047a1 1 0 0 1 2 0v30.047a1 1 0 0 1-1 1zm-58.481 26.27a1 1 0 0 1-1-1V220.7a1 1 0 1 1 2 0v22.764a1 1 0 0 1-1 .995zM960.8 192.212a1 1 0 0 1-1-1v-20.7a1 1 0 1 1 2 0v20.7a1 1 0 0 1-1 1zm23.164-46.088a1 1 0 0 1-1-1v-20.112a1 1 0 0 1 2 0v20.112a1 1 0 0 1-1 1zM1019 100.02a1 1 0 0 1-1-1V80.705a1 1 0 1 1 2 0V99.02a1 1 0 0 1-1 1zm36.885-36.448a1 1 0 0 1-1-1V37.379a1 1 0 1 1 2 0v25.193a1 1 0 0 1-1 1zm65.096-32.094a1 1 0 0 1-1-1V2.9a1 1 0 1 1 2 0v27.578a1 1 0 0 1-1 1zm-29.394 32.006a1 1 0 0 1-1-1V19.948a1 1 0 0 1 2 0v42.536a1 1 0 0 1-1 1zm65.739-37.991a1 1 0 0 1-1-1V1a1 1 0 0 1 2 0v23.493a1 1 0 0 1-1 1z" fill="#fff"/></svg></g></svg>