<svg xmlns="http://www.w3.org/2000/svg" viewBox="0 0 1080 1080" width="1080" height="1080"><g transform="translate(644.0 140.0) rotate(0.0 180.0 384.5) translate(0.0 0.0) scale(1.0651517841292384 1.06667628386073)"><svg width="337.98" height="692.806" viewBox="0 0 337.98 692.806"><path d="m160.637 261.918-19.326-12.47c37.913-58.751 58.921-108.181 62.439-146.916 2.55-28.07-4.513-49.335-20.425-61.5-14.41-11.015-47.036-16.434-60.852-1.064l-17.105-15.374c9.168-10.2 24.513-16.441 42.1-17.128a77.1 77.1 0 0 1 49.824 15.295c15.7 12 33.535 35.94 29.364 81.852-3.856 42.474-26.071 95.4-66.019 157.305z" fill="#ffcc51"/><path d="m133.427 625.617-6.652-6.063 20.316-22.29h107.711l-63.745-148.553 8.271-3.548 69.13 161.101H151.066z" fill="#262103"/><path d="M176.369 446.937h9v269.494h-9zM96.054 48.257 76.128 24.841C8.9 29.382 0 86.838 0 86.838z" fill="#262103"/><circle cx="96.412" cy="33.689" fill="#09936f" r="33.689"/><circle cx="90.648" cy="25.895" fill="#262103" r="9.622"/><path d="M143.552 246.634S94.385 306.3 92.237 347.065c0 0-1.8 9.684 16.758 39.726 6.745 10.918 16.179 21.867 32.346 32.265 47.37 30.467 18.155-164.373 18.155-164.373z" fill="#ffcc51"/><path d="M135.086 414.765s55.295 47.152 138.66-18.446c68.424-53.84-116.446-81.184-116.446-81.184z" fill="#09936f"/><ellipse cx="194.482" cy="359.076" fill="#09936f" rx="103.578" ry="99.502"/><circle cx="224.366" cy="356.632" fill="#2654a4" r="77.456"/><g fill="#262103"><path d="M160.711 263.782S136.958 435.623 317.259 391.8c0 0-10.311-163.12-156.548-128.018z"/><circle cx="180.87" cy="568.684" r="7.84"/><circle cx="259.891" cy="600.508" r="7.84"/><path d="M158.809 711.931h44.772v9h-44.772zm147.494-300.46-1.961-8.783 23.214-5.182-3.974-21.54 8.852-1.632 5.546 30.067zM75.688 390.444c-13.236-61.9 17.1-103.27 18.4-105l7.2 5.394c-.293.393-29.149 39.986-16.8 97.724z"/></g></svg></g><g transform="translate(375.0 320.0) rotate(-16.481953169721734 84.0 94.5) scale(0.505366511045868 0.5041855402788226)"><svg width="332.432" height="374.862" viewBox="0 0 332.432 374.862"><path d="M115.514 250.314h124.821v89.784H115.514zm-68.09-88.962h54.404v45.166H47.424z" fill="#ffcc51"/><path d="M131.391 374.862H0V212.591c0-12.425 10.073-22.498 22.498-22.498h86.395c12.425 0 22.498 10.073 22.498 22.498z" fill="#09936f"/><path d="M142.768 103.932 325.62 48.085l6.815 22.315-182.853 55.846zM131.7 76.379 239.48.415l6.914 9.809-107.782 75.963z" fill="#ffcc51"/><path d="m113.94 166.689-59.924 9.932c-12.525 2.096-24.377-6.357-26.474-18.882-4.717-28.18 14.304-54.849 42.485-59.566l31.576-5.187z" fill="#09936f"/><path d="M248.187 366.376h-43.076c-10.177 0-18.427-8.25-18.427-18.427V244.653c0-10.177 8.25-18.427 18.427-18.427h43.076c10.177 0 18.427 8.25 18.427 18.427V347.95c0 10.176-8.25 18.426-18.427 18.426z" fill="#262103"/><g fill="#ffcc51"><circle cx="46.534" cy="232.795" r="19.161"/><path d="m152.034 156.91 1.417-11.916 112.777 13.413-1.417 11.916z"/></g></svg></g><g transform="translate(35.0 304.0) rotate(0.0 231.5 348.0) scale(0.8680164979377578 0.8657793257867894)"><svg width="533.4" height="803.9" viewBox="0 0 533.4 803.9"><path d="M86.2 705c10.6.8 21.2.5 31.7-.8 9.8-1.3 18.6-3.9 25.1-7.6 3-1.6 5.7-3.6 8.1-6l.4-.4.5-.5 1-.9c.6-.7 1.3-1.3 1.9-1.9 1.2-1.3 2.3-2.6 3.4-4 4-5.5 6.9-11.8 8.4-18.5 1.9-8.3 2.8-16.9 2.7-25.4-.1-10.5-.7-21-1.9-31.5-1.2-11.3-2.7-23.2-4.2-36.2-.7-6.5-1.4-13.2-1.9-20.4s-.8-14.7-.7-22.8l108.9 8.7c-.8 4.2-1.5 9.1-2 14.3s-.9 10.9-1.2 16.8c-.6 11.8-1 24.6-1.9 38.1-.8 14.3-2.3 28.6-4.7 42.8-2.7 15-6.8 30.9-14.2 46.8-3.8 8.1-8.3 15.9-13.6 23.1-5.4 7.4-11.6 14.2-18.4 20.2-3.4 3-6.9 5.7-10.6 8.3-1.8 1.3-3.7 2.5-5.5 3.7l-2.8 1.7-1.4.8-1.5.8c-8 4.4-16.5 7.7-25.3 10.1-8.1 2.1-16.4 3.5-24.8 4-7.8.5-15.5.4-23.3-.2-14.3-1.2-28.4-3.8-42.2-7.8z" fill="#ffcc51"/><path d="M187.7 558.5c-98.3-11.5-79.4-210-58.2-270.2l69.9-72.5 48.1 14.6c91.1 46.7 62.3 255.1 36.5 295.1z" fill="#09936f"/><ellipse cx="199.8" cy="288.3" fill="#ffcc51" rx="82.7" ry="76.9"/><path d="M155.3 99.7c0 47.2 64.3 85.6 64.3 85.6s64.3-38.3 64.3-85.6-64.3-85.6-64.3-85.6-64.3 38.3-64.3 85.6z" fill="#e9e7db"/><ellipse cx="229.2" cy="72.3" fill="#262103" rx="17.8" ry="16.5"/><path d="m308.5 697.4 1.1 72.9c.3 18.8 16.9 33.9 37.2 33.6l104-1.3c18.4-.2 24.4-23.2 8.1-31.2zm-216.3 7.7 1.7 45.4c1.5 41.7-48.2 60.8-78.8 30.2-30.8-30.8-11.2-80.8 30.8-78.7 26.5 1.2 46.9 2.4 46.3 3.1z" fill="#09936f"/><path d="m236.3 199.5-5.2-7.5c44.4-30.6 66.2-62.5 64.8-94.7-.6-15-7-38.3-33.6-64.2-9.9-9.6-20.8-18.1-32.6-25.3l4.5-7.9c12.4 7.5 23.9 16.4 34.2 26.5 22.8 22.2 35.5 46.6 36.5 70.5 1.7 35.6-21.4 70.1-68.6 102.6zm86.1 211.7c-21.8-.1-43.4-4.4-63.6-12.7-28.4-11.4-56.3-30.7-82.9-57.4-19.9-20.1-19.7-52.5.4-72.4 20-19.8 52.2-19.7 72.1.1 28.9 29 56.1 42.4 80.7 39.6 37-4.2 68.9-43.4 78.1-58.2l-.1.2 87.5 53.1c-11.2 17.5-24.3 33.6-39.2 48-34.3 33.4-73.6 53.6-113.7 58.4-6.4.9-12.9 1.3-19.3 1.3z" fill="#262103"/><ellipse cx="466.1" cy="252.3" fill="#e9e7db" rx="67.3" ry="62.5"/><g fill="#262103"><path d="M384.9 534c-28.1-47-100.8-86.7-160.2-79.2-83.9 10.6-100.1 100.3-55.3 132.9 44.7 32.5 86.5.4 116.6 16.9 13.1 7.2 20.2 15.3 21.7 30.9 0 0 0 3.1.1 5.5l1.3 94.9c2 19.7 15.7 33.9 37.5 24.8 26.9-18.5 84.6-149.1 38.3-226.7z"/><path d="m394.6 720.1-8.2-3.8c13.4-28.7 21.8-59.5 24.8-91.1 2.9-32.3-.9-61.5-11-84.4-21-47.5-86.8-78.8-87.4-79.1l3.9-8.2c13.1 6.4 25.5 13.9 37.3 22.5 26.8 19.2 45.1 39.8 54.6 61.2 21 47.6 15.5 119.5-14 182.9zM99.4 694.7c-3.5 0-7-.2-10.5-.5l.9-9c27 2.8 48.6-6.5 54.9-23.7 3-8.1 3.9-23.2 2.7-43.7-1-15.8-2.9-29.1-2.9-29.3l9-1.3c.3 2.2 8 55.2-.2 77.4-7.1 19-27.3 30.1-53.9 30.1z"/></g></svg></g><g transform="translate(145.0 275.0) rotate(-26.77201179189146 66.0 66.0) translate(0.0 0.0) scale(1.9660996752956594 1.9660996752956594)"><svg width="66.629" height="38.147" viewBox="0 0 66.629 38.147"><circle cx="33.569" cy="33.569" fill="#2654a4" r="33.569"/></svg></g><g transform="translate(124.0 248.0) rotate(-26.77201179189146 115.0 115.0) translate(36.30166441224789 80.3822569128347) scale(3.4257797372575887 3.4257797372575887)"><svg width="51.375" height="4.67" viewBox="10.597 23.464 51.375 4.67"><circle cx="33.569" cy="33.569" fill="#2654a4" r="33.569"/></svg></g><g transform="translate(644.0 224.0) rotate(0.0 180.0 384.5) translate(165.95046588456182 650.8369833910165) scale(1.0651517841292384 1.06667628386073)"><svg width="182.18" height="109.687" viewBox="155.8 610.154 182.18 109.687"><path d="m160.637 261.918-19.326-12.47c37.913-58.751 58.921-108.181 62.439-146.916 2.55-28.07-4.513-49.335-20.425-61.5-14.41-11.015-47.036-16.434-60.852-1.064l-17.105-15.374c9.168-10.2 24.513-16.441 42.1-17.128a77.1 77.1 0 0 1 49.824 15.295c15.7 12 33.535 35.94 29.364 81.852-3.856 42.474-26.071 95.4-66.019 157.305z" fill="#ffcc51"/><path d="m133.427 625.617-6.652-6.063 20.316-22.29h107.711l-63.745-148.553 8.271-3.548 69.13 161.101H151.066z" fill="#262103"/><path d="M176.369 446.937h9v269.494h-9zM96.054 48.257 76.128 24.841C8.9 29.382 0 86.838 0 86.838z" fill="#262103"/><circle cx="96.412" cy="33.689" fill="#09936f" r="33.689"/><circle cx="90.648" cy="25.895" fill="#262103" r="9.622"/><path d="M143.552 246.634S94.385 306.3 92.237 347.065c0 0-1.8 9.684 16.758 39.726 6.745 10.918 16.179 21.867 32.346 32.265 47.37 30.467 18.155-164.373 18.155-164.373z" fill="#ffcc51"/><path d="M135.086 414.765s55.295 47.152 138.66-18.446c68.424-53.84-116.446-81.184-116.446-81.184z" fill="#09936f"/><ellipse cx="194.482" cy="359.076" fill="#09936f" rx="103.578" ry="99.502"/><circle cx="224.366" cy="356.632" fill="#2654a4" r="77.456"/><g fill="#262103"><path d="M160.711 263.782S136.958 435.623 317.259 391.8c0 0-10.311-163.12-156.548-128.018z"/><circle cx="180.87" cy="568.684" r="7.84"/><circle cx="259.891" cy="600.508" r="7.84"/><path d="M158.809 711.931h44.772v9h-44.772zm147.494-300.46-1.961-8.783 23.214-5.182-3.974-21.54 8.852-1.632 5.546 30.067zM75.688 390.444c-13.236-61.9 17.1-103.27 18.4-105l7.2 5.394c-.293.393-29.149 39.986-16.8 97.724z"/></g></svg></g><g transform="translate(754.0 825.0) rotate(0.0 139.5 88.0) scale(0.4192084623012892 0.4196170993968004)"><svg width="665.54" height="419.43" viewBox="0 0 665.54 419.43"><path d="M636.066 418.93a44.193 44.193 0 0 0 12.477-1.7c13.89-4.087 16.5-12.54 16.5-15.738 0-17.3-45.36-31.31-101.31-31.31q-2.34 0-4.65.03c41.87-17.2 69.95-39.65 65.26-53.8-4.27-12.87-34.4-15.06-72.82-6.91 7.52-4 11.88-8.75 12.11-13.97.51-11.44-18.93-22.32-48.35-29.08 11.27-6.87 17.45-14.2 16.45-21-1.47-10.03-18.2-16.68-42.95-18.84 25.38-17.43 39.79-35.06 35-45.63-6.77-14.95-49.55-10.36-97.47 9.88 19.83-27.1 28.45-50.71 19.79-59.38-8.76-8.76-32.79.13-60.26 20.42 24.36-45.24 32.87-86.72 18.78-94.86-14.6-8.43-48.07 22.04-75.66 68.48 4.56-34.19.71-59.82-11.27-63.25-10.27-2.94-24.1 11.09-36.81 34.91C280.14 43.38 266.42.5 249.61.5c-17.3 0-31.31 45.36-31.31 101.31 0 8.72.34 17.18.98 25.26-12.34-29.91-27.38-48.73-39.04-46.03-16.84 3.91-20.26 51.26-7.63 105.76a318.22 318.22 0 0 0 8.14 28.94c-19.09-9.77-34.29-12.45-40.56-5.64-7.99 8.69.62 30.58 19.99 55.64-38.62-12.28-69.98-13.1-75.5-.4-5.22 12.01 14.17 32.66 46.17 51.67-42.16 1.96-73.35 12.61-73.98 26.82-.44 10.04 14.48 19.65 38.02 26.42C42.17 371.35.5 384.91.5 401.49c0 3.371 0 12.964 17.939 16.479a54.764 54.764 0 0 0 10.546.961z" fill="#09936f"/><path d="M636.066 419.43H28.985a55.561 55.561 0 0 1-10.643-.97C0 414.865 0 404.8 0 401.49c0-8.226 9.862-16 27.769-21.9 16.921-5.571 39.531-9.014 63.958-9.759-22.935-7.053-35.775-16.467-35.357-26.023.626-14.107 29.807-24.98 72.807-27.216-32.459-19.556-50.077-39.672-44.956-51.451 5.431-12.493 35.317-12.6 74.6-.354-19.478-25.569-26.758-46.583-19-55.025 6.155-6.686 20.363-4.91 40.071 4.983a320.015 320.015 0 0 1-7.77-27.832c-12.672-54.681-9.081-102.393 8-106.36 11.19-2.6 25.8 14.013 38.428 43.5-.5-7.268-.755-14.736-.755-22.245C217.8 45.672 232.07 0 249.61 0c16.865 0 30.693 41.688 31.738 95.261 13.017-23.818 26.589-36.306 36.48-33.471 11.7 3.348 16.217 26.794 11.933 61.419 27.711-45.888 60.483-75.044 75.109-66.6 14.084 8.137 6.512 48.179-17.556 93.6 28.019-20.318 50.585-27.63 59.139-19.076 8.464 8.474 1.3 30.842-18.689 58.582 48.336-20.112 89.654-23.99 96.471-8.934 4.714 10.4-8 27.349-34.036 45.463 25.3 2.4 40.591 9.353 42.026 19.14.971 6.6-4.437 13.8-15.652 20.86 30.307 7.137 48.058 18.062 47.557 29.315-.2 4.595-3.531 8.994-9.67 12.831 38.13-7.632 66.234-4.549 70.355 7.869 4.635 13.987-21.249 35.807-63.172 53.434q1.041-.006 2.087-.006c56.138 0 101.81 14.27 101.81 31.81 0 4.181-3.55 12.3-16.856 16.217a44.7 44.7 0 0 1-12.618 1.716zM109 256.6c-12.71 0-21.268 2.973-23.859 8.935-4.9 11.283 13.568 31.794 45.966 51.041l1.434.852-1.666.077c-42.678 1.984-72.9 12.817-73.5 26.343-.409 9.329 13.669 19.018 37.658 25.918l3.17.911-3.3.069c-52.654 1.1-93.9 14.6-93.9 30.74 0 3.433 0 12.552 17.535 15.989a54.6 54.6 0 0 0 10.45.951h607.078a43.737 43.737 0 0 0 12.336-1.682c15.954-4.693 16.138-14.829 16.138-15.258 0-16.989-45.223-30.81-100.81-30.81q-2.337 0-4.644.03l-2.622.034 2.426-1c42.127-17.306 69.453-39.672 64.975-53.181-4.06-12.239-33.092-14.883-72.241-6.578l-3.473.737 3.134-1.667c7.535-4.009 11.631-8.694 11.845-13.551.478-10.716-17.9-21.663-47.962-28.571l-1.2-.275 1.049-.639c11.545-7.038 17.153-14.127 16.215-20.5-1.367-9.327-17.254-16.211-42.5-18.414l-1.388-.121 1.149-.789c25.979-17.842 39.324-35.089 34.827-45.011-6.556-14.48-49.084-10.028-96.819 10.133l-1.667.7 1.068-1.46c20.165-27.556 27.952-50.609 19.84-58.731-8.231-8.232-31.629-.2-59.609 20.469l-1.8 1.326 1.059-1.965c24.216-44.972 32.548-86.346 18.97-94.19-14.126-8.157-47.76 22.485-74.98 68.3l-1.249 2.1.323-2.423c4.65-34.862.367-59.475-10.912-62.7-9.633-2.762-23.177 10.2-36.231 34.665l-.914 1.713-.027-1.942c-.358-26.026-3.762-50.306-9.585-68.369C265.012 10.879 257.489 1 249.61 1c-16.989 0-30.81 45.223-30.81 100.81 0 8.539.329 17.024.978 25.22l.251 3.167-1.211-2.936c-12.693-30.761-27.433-48.293-38.465-45.734-16.548 3.842-19.8 51.016-7.256 105.16 2.288 9.879 5.022 19.6 8.127 28.895l.388 1.161-1.09-.558c-19.548-10-34.115-12.1-39.964-5.746-7.537 8.2.133 29.27 20.018 55l.98 1.268-1.528-.486C139.9 259.814 122.205 256.6 109 256.6z" fill="#06936f"/></svg></g><g transform="translate(645.0 843.0) rotate(0.0 125.5 79.0) scale(0.37713736214202004 0.37670171423121857)"><svg width="665.54" height="419.43" viewBox="0 0 665.54 419.43"><path d="M636.066 418.93a44.193 44.193 0 0 0 12.477-1.7c13.89-4.087 16.5-12.54 16.5-15.738 0-17.3-45.36-31.31-101.31-31.31q-2.34 0-4.65.03c41.87-17.2 69.95-39.65 65.26-53.8-4.27-12.87-34.4-15.06-72.82-6.91 7.52-4 11.88-8.75 12.11-13.97.51-11.44-18.93-22.32-48.35-29.08 11.27-6.87 17.45-14.2 16.45-21-1.47-10.03-18.2-16.68-42.95-18.84 25.38-17.43 39.79-35.06 35-45.63-6.77-14.95-49.55-10.36-97.47 9.88 19.83-27.1 28.45-50.71 19.79-59.38-8.76-8.76-32.79.13-60.26 20.42 24.36-45.24 32.87-86.72 18.78-94.86-14.6-8.43-48.07 22.04-75.66 68.48 4.56-34.19.71-59.82-11.27-63.25-10.27-2.94-24.1 11.09-36.81 34.91C280.14 43.38 266.42.5 249.61.5c-17.3 0-31.31 45.36-31.31 101.31 0 8.72.34 17.18.98 25.26-12.34-29.91-27.38-48.73-39.04-46.03-16.84 3.91-20.26 51.26-7.63 105.76a318.22 318.22 0 0 0 8.14 28.94c-19.09-9.77-34.29-12.45-40.56-5.64-7.99 8.69.62 30.58 19.99 55.64-38.62-12.28-69.98-13.1-75.5-.4-5.22 12.01 14.17 32.66 46.17 51.67-42.16 1.96-73.35 12.61-73.98 26.82-.44 10.04 14.48 19.65 38.02 26.42C42.17 371.35.5 384.91.5 401.49c0 3.371 0 12.964 17.939 16.479a54.764 54.764 0 0 0 10.546.961z" fill="#09936f"/><path d="M636.066 419.43H28.985a55.561 55.561 0 0 1-10.643-.97C0 414.865 0 404.8 0 401.49c0-8.226 9.862-16 27.769-21.9 16.921-5.571 39.531-9.014 63.958-9.759-22.935-7.053-35.775-16.467-35.357-26.023.626-14.107 29.807-24.98 72.807-27.216-32.459-19.556-50.077-39.672-44.956-51.451 5.431-12.493 35.317-12.6 74.6-.354-19.478-25.569-26.758-46.583-19-55.025 6.155-6.686 20.363-4.91 40.071 4.983a320.015 320.015 0 0 1-7.77-27.832c-12.672-54.681-9.081-102.393 8-106.36 11.19-2.6 25.8 14.013 38.428 43.5-.5-7.268-.755-14.736-.755-22.245C217.8 45.672 232.07 0 249.61 0c16.865 0 30.693 41.688 31.738 95.261 13.017-23.818 26.589-36.306 36.48-33.471 11.7 3.348 16.217 26.794 11.933 61.419 27.711-45.888 60.483-75.044 75.109-66.6 14.084 8.137 6.512 48.179-17.556 93.6 28.019-20.318 50.585-27.63 59.139-19.076 8.464 8.474 1.3 30.842-18.689 58.582 48.336-20.112 89.654-23.99 96.471-8.934 4.714 10.4-8 27.349-34.036 45.463 25.3 2.4 40.591 9.353 42.026 19.14.971 6.6-4.437 13.8-15.652 20.86 30.307 7.137 48.058 18.062 47.557 29.315-.2 4.595-3.531 8.994-9.67 12.831 38.13-7.632 66.234-4.549 70.355 7.869 4.635 13.987-21.249 35.807-63.172 53.434q1.041-.006 2.087-.006c56.138 0 101.81 14.27 101.81 31.81 0 4.181-3.55 12.3-16.856 16.217a44.7 44.7 0 0 1-12.618 1.716zM109 256.6c-12.71 0-21.268 2.973-23.859 8.935-4.9 11.283 13.568 31.794 45.966 51.041l1.434.852-1.666.077c-42.678 1.984-72.9 12.817-73.5 26.343-.409 9.329 13.669 19.018 37.658 25.918l3.17.911-3.3.069c-52.654 1.1-93.9 14.6-93.9 30.74 0 3.433 0 12.552 17.535 15.989a54.6 54.6 0 0 0 10.45.951h607.078a43.737 43.737 0 0 0 12.336-1.682c15.954-4.693 16.138-14.829 16.138-15.258 0-16.989-45.223-30.81-100.81-30.81q-2.337 0-4.644.03l-2.622.034 2.426-1c42.127-17.306 69.453-39.672 64.975-53.181-4.06-12.239-33.092-14.883-72.241-6.578l-3.473.737 3.134-1.667c7.535-4.009 11.631-8.694 11.845-13.551.478-10.716-17.9-21.663-47.962-28.571l-1.2-.275 1.049-.639c11.545-7.038 17.153-14.127 16.215-20.5-1.367-9.327-17.254-16.211-42.5-18.414l-1.388-.121 1.149-.789c25.979-17.842 39.324-35.089 34.827-45.011-6.556-14.48-49.084-10.028-96.819 10.133l-1.667.7 1.068-1.46c20.165-27.556 27.952-50.609 19.84-58.731-8.231-8.232-31.629-.2-59.609 20.469l-1.8 1.326 1.059-1.965c24.216-44.972 32.548-86.346 18.97-94.19-14.126-8.157-47.76 22.485-74.98 68.3l-1.249 2.1.323-2.423c4.65-34.862.367-59.475-10.912-62.7-9.633-2.762-23.177 10.2-36.231 34.665l-.914 1.713-.027-1.942c-.358-26.026-3.762-50.306-9.585-68.369C265.012 10.879 257.489 1 249.61 1c-16.989 0-30.81 45.223-30.81 100.81 0 8.539.329 17.024.978 25.22l.251 3.167-1.211-2.936c-12.693-30.761-27.433-48.293-38.465-45.734-16.548 3.842-19.8 51.016-7.256 105.16 2.288 9.879 5.022 19.6 8.127 28.895l.388 1.161-1.09-.558c-19.548-10-34.115-12.1-39.964-5.746-7.537 8.2.133 29.27 20.018 55l.98 1.268-1.528-.486C139.9 259.814 122.205 256.6 109 256.6z" fill="#06936f"/></svg></g></svg>