<svg xmlns="http://www.w3.org/2000/svg" viewBox="0 0 1080 1080" width="1080" height="1080"><g transform="translate(429.0 313.0) rotate(-57.83437723017792 40.0 85.0) translate(0.0 88.19810274637307) scale(0.32317617545234567 0.3227539646527452)"><svg width="105.206" height="102.245" viewBox="0 273.267 105.206 102.245"><path d="M247.543 249.874S238.586 403.023 142.3 354.3c-47.971-96.663 105.243-104.426 105.243-104.426zM0 302.344s27.922 103.336 86.758 56.349C105.762 285.834 0 302.344 0 302.344z" fill="#09936f"/><path d="M109.832 179.432h9v347.285h-9z" fill="#09936f"/><g fill="#ffcc51"><path d="M114.332 0c6.448 0 11.674 5.227 11.674 11.675v84.121c0 6.448-5.227 11.675-11.674 11.675-6.448 0-11.674-5.227-11.674-11.675V11.675C102.658 5.227 107.885 0 114.332 0z"/><path d="M85.573 3.786c6.228-1.669 12.63 2.027 14.298 8.256l21.772 81.255c1.669 6.228-2.027 12.63-8.255 14.299-6.228 1.669-12.63-2.027-14.298-8.256L77.318 18.085c-1.669-6.229 2.027-12.63 8.255-14.299z"/><path d="M58.773 14.887c5.584-3.224 12.724-1.31 15.948 4.274l42.061 72.851c3.224 5.584 1.311 12.724-4.273 15.948s-12.724 1.31-15.948-4.274L54.5 30.835c-3.224-5.584-1.311-12.724 4.273-15.948z"/><path d="M35.759 32.546c4.559-4.559 11.951-4.559 16.511 0l59.483 59.483c4.559 4.559 4.56 11.951 0 16.511-4.559 4.559-11.951 4.559-16.511 0L35.76 49.057c-4.56-4.559-4.56-11.951-.001-16.511z"/><path d="M18.101 55.56c3.224-5.584 10.364-7.497 15.948-4.273l72.851 42.06c5.584 3.224 7.497 10.364 4.274 15.948-3.224 5.584-10.364 7.497-15.948 4.273l-72.851-42.06c-5.584-3.224-7.498-10.364-4.274-15.948z"/><path d="M6.999 82.358c1.669-6.228 8.071-9.924 14.299-8.255l81.255 21.772c6.228 1.669 9.924 8.07 8.256 14.298-1.669 6.228-8.071 9.924-14.299 8.255L15.255 96.657c-6.228-1.669-9.924-8.071-8.256-14.299z"/><path d="M3.213 111.119c0-6.448 5.227-11.674 11.675-11.674h84.121c6.448 0 11.675 5.227 11.675 11.674 0 6.448-5.227 11.674-11.675 11.674H14.888c-6.448.001-11.675-5.226-11.675-11.674z"/><path d="M7 139.878c-1.669-6.228 2.027-12.63 8.256-14.298l81.255-21.772c6.228-1.669 12.63 2.027 14.299 8.255 1.669 6.228-2.027 12.63-8.256 14.298l-81.255 21.772c-6.228 1.669-12.63-2.027-14.299-8.255z"/><path d="M18.101 166.679c-3.224-5.584-1.31-12.724 4.274-15.948l72.851-42.06c5.584-3.224 12.724-1.311 15.948 4.273s1.31 12.724-4.274 15.948l-72.851 42.06c-5.584 3.224-12.724 1.31-15.948-4.273z"/><path d="M35.759 189.693c-4.559-4.559-4.559-11.951 0-16.511l59.483-59.483c4.559-4.559 11.951-4.56 16.511 0 4.559 4.559 4.559 11.951 0 16.511L52.27 189.692c-4.559 4.56-11.951 4.56-16.511.001z"/><path d="M58.774 207.35c-5.584-3.224-7.497-10.364-4.273-15.948l42.061-72.851c3.224-5.584 10.364-7.497 15.948-4.274 5.584 3.224 7.497 10.364 4.273 15.948l-42.061 72.851c-3.224 5.584-10.365 7.497-15.948 4.274z"/><path d="M85.573 218.451c-6.228-1.669-9.924-8.071-8.255-14.299l21.772-81.255c1.669-6.228 8.07-9.924 14.298-8.256 6.228 1.669 9.924 8.071 8.255 14.299l-21.772 81.255c-1.669 6.229-8.07 9.925-14.298 8.256z"/><path d="M114.332 222.237c-6.448 0-11.674-5.227-11.674-11.675v-84.121c0-6.448 5.227-11.675 11.674-11.675 6.448 0 11.674 5.227 11.674 11.675v84.121c.001 6.448-5.226 11.675-11.674 11.675z"/><path d="M143.093 218.451c-6.228 1.669-12.63-2.027-14.298-8.256l-21.772-81.255c-1.669-6.228 2.027-12.63 8.255-14.299 6.228-1.669 12.63 2.027 14.298 8.256l21.772 81.255c1.669 6.229-2.027 12.63-8.255 14.299z"/><path d="M169.892 207.35c-5.584 3.224-12.724 1.31-15.948-4.274l-42.061-72.851c-3.224-5.584-1.311-12.724 4.273-15.948s12.724-1.31 15.948 4.274l42.061 72.851c3.223 5.584 1.31 12.724-4.273 15.948z"/><path d="M192.906 189.691c-4.559 4.559-11.951 4.559-16.511 0l-59.483-59.483c-4.559-4.559-4.56-11.951 0-16.511 4.559-4.559 11.951-4.559 16.511 0l59.483 59.483c4.559 4.56 4.559 11.952 0 16.511z"/><path d="M210.564 166.677c-3.224 5.584-10.364 7.497-15.948 4.273l-72.851-42.061c-5.584-3.224-7.497-10.364-4.274-15.948 3.224-5.584 10.364-7.497 15.948-4.273l72.851 42.06c5.585 3.226 7.498 10.366 4.274 15.949z"/><path d="M221.665 139.878c-1.669 6.228-8.071 9.924-14.299 8.255l-81.255-21.772c-6.228-1.669-9.924-8.07-8.256-14.298 1.669-6.228 8.071-9.924 14.299-8.255l81.255 21.772c6.229 1.669 9.925 8.07 8.256 14.298z"/><path d="M225.451 111.118c0 6.448-5.227 11.674-11.675 11.674h-84.121c-6.448 0-11.675-5.227-11.675-11.674 0-6.448 5.227-11.674 11.675-11.674h84.121c6.448 0 11.675 5.227 11.675 11.674z"/><path d="M221.665 82.359c1.669 6.228-2.027 12.63-8.256 14.298l-81.255 21.772c-6.228 1.669-12.63-2.027-14.299-8.255-1.669-6.228 2.027-12.63 8.256-14.298l81.255-21.772c6.229-1.669 12.631 2.027 14.299 8.255z"/><path d="M210.564 55.559c3.224 5.584 1.31 12.724-4.274 15.948l-72.851 42.061c-5.584 3.224-12.724 1.311-15.948-4.273s-1.31-12.724 4.274-15.948l72.851-42.06c5.584-3.225 12.724-1.312 15.948 4.272z"/><path d="M192.906 32.546c4.559 4.559 4.559 11.951 0 16.511l-59.483 59.483c-4.559 4.559-11.951 4.56-16.511 0-4.559-4.559-4.559-11.951 0-16.511l59.483-59.483c4.559-4.559 11.951-4.559 16.511 0z"/><path d="M169.891 14.887c5.584 3.224 7.497 10.364 4.273 15.948l-42.061 72.851c-3.224 5.584-10.364 7.497-15.948 4.274-5.584-3.224-7.497-10.364-4.273-15.948l42.061-72.851c3.224-5.585 10.364-7.498 15.948-4.274z"/><path d="M143.101 3.809c6.228 1.67 9.924 8.073 8.254 14.302l-21.787 81.261c-1.67 6.229-8.073 9.924-14.301 8.254s-9.924-8.073-8.254-14.302L128.8 12.063c1.67-6.228 8.072-9.924 14.301-8.254z"/><circle cx="114.332" cy="111.119" r="11.675"/></g><circle cx="114.332" cy="111.119" fill="#2654a4" r="72.433"/><path d="m81.842 360.638 5.808-6.875 31.138 26.305-5.807 6.875z" fill="#09936f"/><path d="m112.222 378.893 28.316-30.161 6.562 6.16-28.316 30.162z" fill="#09936f"/></svg></g><g transform="translate(402.0 332.0) rotate(-140.79462806784082 55.5 118.5) translate(0.0 122.82665496531789) scale(0.4484069434401296 0.4499569977805919)"><svg width="107.046" height="102.232" viewBox="0 272.974 107.046 102.232"><path d="M247.543 249.874S238.586 403.023 142.3 354.3c-47.971-96.663 105.243-104.426 105.243-104.426zM0 302.344s27.922 103.336 86.758 56.349C105.762 285.834 0 302.344 0 302.344z" fill="#09936f"/><path d="M109.832 179.432h9v347.285h-9z" fill="#09936f"/><g fill="#ffcc51"><path d="M114.332 0c6.448 0 11.674 5.227 11.674 11.675v84.121c0 6.448-5.227 11.675-11.674 11.675-6.448 0-11.674-5.227-11.674-11.675V11.675C102.658 5.227 107.885 0 114.332 0z"/><path d="M85.573 3.786c6.228-1.669 12.63 2.027 14.298 8.256l21.772 81.255c1.669 6.228-2.027 12.63-8.255 14.299-6.228 1.669-12.63-2.027-14.298-8.256L77.318 18.085c-1.669-6.229 2.027-12.63 8.255-14.299z"/><path d="M58.773 14.887c5.584-3.224 12.724-1.31 15.948 4.274l42.061 72.851c3.224 5.584 1.311 12.724-4.273 15.948s-12.724 1.31-15.948-4.274L54.5 30.835c-3.224-5.584-1.311-12.724 4.273-15.948z"/><path d="M35.759 32.546c4.559-4.559 11.951-4.559 16.511 0l59.483 59.483c4.559 4.559 4.56 11.951 0 16.511-4.559 4.559-11.951 4.559-16.511 0L35.76 49.057c-4.56-4.559-4.56-11.951-.001-16.511z"/><path d="M18.101 55.56c3.224-5.584 10.364-7.497 15.948-4.273l72.851 42.06c5.584 3.224 7.497 10.364 4.274 15.948-3.224 5.584-10.364 7.497-15.948 4.273l-72.851-42.06c-5.584-3.224-7.498-10.364-4.274-15.948z"/><path d="M6.999 82.358c1.669-6.228 8.071-9.924 14.299-8.255l81.255 21.772c6.228 1.669 9.924 8.07 8.256 14.298-1.669 6.228-8.071 9.924-14.299 8.255L15.255 96.657c-6.228-1.669-9.924-8.071-8.256-14.299z"/><path d="M3.213 111.119c0-6.448 5.227-11.674 11.675-11.674h84.121c6.448 0 11.675 5.227 11.675 11.674 0 6.448-5.227 11.674-11.675 11.674H14.888c-6.448.001-11.675-5.226-11.675-11.674z"/><path d="M7 139.878c-1.669-6.228 2.027-12.63 8.256-14.298l81.255-21.772c6.228-1.669 12.63 2.027 14.299 8.255 1.669 6.228-2.027 12.63-8.256 14.298l-81.255 21.772c-6.228 1.669-12.63-2.027-14.299-8.255z"/><path d="M18.101 166.679c-3.224-5.584-1.31-12.724 4.274-15.948l72.851-42.06c5.584-3.224 12.724-1.311 15.948 4.273s1.31 12.724-4.274 15.948l-72.851 42.06c-5.584 3.224-12.724 1.31-15.948-4.273z"/><path d="M35.759 189.693c-4.559-4.559-4.559-11.951 0-16.511l59.483-59.483c4.559-4.559 11.951-4.56 16.511 0 4.559 4.559 4.559 11.951 0 16.511L52.27 189.692c-4.559 4.56-11.951 4.56-16.511.001z"/><path d="M58.774 207.35c-5.584-3.224-7.497-10.364-4.273-15.948l42.061-72.851c3.224-5.584 10.364-7.497 15.948-4.274 5.584 3.224 7.497 10.364 4.273 15.948l-42.061 72.851c-3.224 5.584-10.365 7.497-15.948 4.274z"/><path d="M85.573 218.451c-6.228-1.669-9.924-8.071-8.255-14.299l21.772-81.255c1.669-6.228 8.07-9.924 14.298-8.256 6.228 1.669 9.924 8.071 8.255 14.299l-21.772 81.255c-1.669 6.229-8.07 9.925-14.298 8.256z"/><path d="M114.332 222.237c-6.448 0-11.674-5.227-11.674-11.675v-84.121c0-6.448 5.227-11.675 11.674-11.675 6.448 0 11.674 5.227 11.674 11.675v84.121c.001 6.448-5.226 11.675-11.674 11.675z"/><path d="M143.093 218.451c-6.228 1.669-12.63-2.027-14.298-8.256l-21.772-81.255c-1.669-6.228 2.027-12.63 8.255-14.299 6.228-1.669 12.63 2.027 14.298 8.256l21.772 81.255c1.669 6.229-2.027 12.63-8.255 14.299z"/><path d="M169.892 207.35c-5.584 3.224-12.724 1.31-15.948-4.274l-42.061-72.851c-3.224-5.584-1.311-12.724 4.273-15.948s12.724-1.31 15.948 4.274l42.061 72.851c3.223 5.584 1.31 12.724-4.273 15.948z"/><path d="M192.906 189.691c-4.559 4.559-11.951 4.559-16.511 0l-59.483-59.483c-4.559-4.559-4.56-11.951 0-16.511 4.559-4.559 11.951-4.559 16.511 0l59.483 59.483c4.559 4.56 4.559 11.952 0 16.511z"/><path d="M210.564 166.677c-3.224 5.584-10.364 7.497-15.948 4.273l-72.851-42.061c-5.584-3.224-7.497-10.364-4.274-15.948 3.224-5.584 10.364-7.497 15.948-4.273l72.851 42.06c5.585 3.226 7.498 10.366 4.274 15.949z"/><path d="M221.665 139.878c-1.669 6.228-8.071 9.924-14.299 8.255l-81.255-21.772c-6.228-1.669-9.924-8.07-8.256-14.298 1.669-6.228 8.071-9.924 14.299-8.255l81.255 21.772c6.229 1.669 9.925 8.07 8.256 14.298z"/><path d="M225.451 111.118c0 6.448-5.227 11.674-11.675 11.674h-84.121c-6.448 0-11.675-5.227-11.675-11.674 0-6.448 5.227-11.674 11.675-11.674h84.121c6.448 0 11.675 5.227 11.675 11.674z"/><path d="M221.665 82.359c1.669 6.228-2.027 12.63-8.256 14.298l-81.255 21.772c-6.228 1.669-12.63-2.027-14.299-8.255-1.669-6.228 2.027-12.63 8.256-14.298l81.255-21.772c6.229-1.669 12.631 2.027 14.299 8.255z"/><path d="M210.564 55.559c3.224 5.584 1.31 12.724-4.274 15.948l-72.851 42.061c-5.584 3.224-12.724 1.311-15.948-4.273s-1.31-12.724 4.274-15.948l72.851-42.06c5.584-3.225 12.724-1.312 15.948 4.272z"/><path d="M192.906 32.546c4.559 4.559 4.559 11.951 0 16.511l-59.483 59.483c-4.559 4.559-11.951 4.56-16.511 0-4.559-4.559-4.559-11.951 0-16.511l59.483-59.483c4.559-4.559 11.951-4.559 16.511 0z"/><path d="M169.891 14.887c5.584 3.224 7.497 10.364 4.273 15.948l-42.061 72.851c-3.224 5.584-10.364 7.497-15.948 4.274-5.584-3.224-7.497-10.364-4.273-15.948l42.061-72.851c3.224-5.585 10.364-7.498 15.948-4.274z"/><path d="M143.101 3.809c6.228 1.67 9.924 8.073 8.254 14.302l-21.787 81.261c-1.67 6.229-8.073 9.924-14.301 8.254s-9.924-8.073-8.254-14.302L128.8 12.063c1.67-6.228 8.072-9.924 14.301-8.254z"/><circle cx="114.332" cy="111.119" r="11.675"/></g><circle cx="114.332" cy="111.119" fill="#2654a4" r="72.433"/><path d="m81.842 360.638 5.808-6.875 31.138 26.305-5.807 6.875z" fill="#09936f"/><path d="m112.222 378.893 28.316-30.161 6.562 6.16-28.316 30.162z" fill="#09936f"/></svg></g><g transform="translate(477.0 334.0) rotate(0.0 281.5 349.5) scale(0.5123305123305123 0.5123131046613896)"><svg width="1098.9" height="1364.4" viewBox="0 0 1098.9 1364.4"><path d="M890.2 940.2v380h44.3V995.6c-.1-30.2-22.2-55.4-44.3-55.4z" fill="#09936f"/><path d="M934.4 1320.2v44.2h-62.3l17.4-44.2z" fill="#262103"/><path d="M742 766.6s-141.6 83.5-267.6 63.7c0 0-106.5-33.9-97-174.5 4.8-15.9 13.6-30.2 25.7-41.5 19.4-18 50.6-22.6 50.6-22.6z" fill="#2654a4"/><circle cx="501.7" cy="767.1" fill="#262103" r="68.1"/><path d="m317.9 501 59.5 154.9 141.1-118.7-106.8-57.8z" fill="#09936f"/><path d="M1040 903.1c-5.3-47.6-17.7-88.2-36.8-120.6-15.2-25.8-34.8-46.5-58.1-61.6-39.8-25.7-77.3-26.1-77.6-26.1v-9c1.6 0 40.2.3 82.1 27.2 24.6 15.8 45.2 37.5 61.2 64.5 19.9 33.6 32.8 75.4 38.2 124.5z" fill="#262103"/><path d="M1038.1 891.4v87h60.7c.1 0-14.5-77.3-60.7-87zM889.2 782S908.4 631.7 742 589.3l-223.4-52.1-64.9 54.5L742 767.1z" fill="#ffcc51"/><path d="M889.7 1018.6S744.8 994.8 742 825.4v-58.2h147.7zm-415.3 301.6v44.2H412l17.5-44.2z" fill="#262103"/><path d="m317.9 501-47.8-114 47.8-78.8 93.8 171.2z" fill="#2654a4"/><path d="m270.1 387-61-140.7H285l32.9 61.9z" fill="#09936f"/><path d="m209.1 246.3-46.4-109.9 61.8-7.6L285 246.3z" fill="#2654a4"/><path d="M204.8 68.5c-.4-13.9 4.5-52.4 52.9-63 2.9-.6 5.7 1.2 6.3 4.1.2.9.2 1.8-.1 2.6-5.8 19.6-23 67.2-53.5 62.8-3.1-.6-5.5-3.3-5.6-6.5z" fill="#262103"/><path d="M149.5 64.1c-1.9.3-3.7-.9-4-2.8-.1-.6-.1-1.1.1-1.7 2.2-6.6 2.2-13.7-.1-20.3-1.5-4.5-3.4-8.7-5.9-12.7-2.2-3.6-1.1-8.3 2.5-10.5.5-.3 1-.6 1.6-.7 4-1.3 8.3.9 9.7 4.9.2.7.3 1.4.4 2.1.2 5 1 10.8 3.2 15.1 3.1 6 9.5 12.9 14 17.2 1.4 1.3 1.4 3.5.1 4.9-.5.5-1.2.9-1.9 1z" fill="#09936f"/><path d="M215.8 62.5S155.4 33.3 114.9 72c-2.7 2.6-23.8 25.2-39.5 34.9-13.8 8.5-29.3 14.5-61.1 20.8-22.4 4.4-16.5 40.4 4.3 51.7s66.2 17.3 107.5 22.1c53.1 6.2 122.9 17.5 127.3-85.6-.1.1 5.4-29.5-37.6-53.4z" fill="#ffcc51"/><path d="M210.6 102.3c9.8-17.2 44.8-61 112.8-35.6 2.6 1 4 3.9 3 6.6-.3.7-.7 1.4-1.3 1.9-18.5 17.3-77.6 67.8-112.5 38.9-3.4-2.9-4.2-7.9-2-11.8z" fill="#262103"/><path d="M164.2 66c-2.6-1.2-3.8-4.3-2.6-6.9.4-.8.9-1.5 1.6-2 8.4-6.3 14.5-15.2 17.4-25.3 2-6.8 3.2-13.8 3.7-20.9.4-6.4 5.8-11.2 12.2-10.9.9.1 1.8.2 2.6.5 6.1 1.8 9.6 8.3 7.8 14.4-.3 1-.8 2-1.3 2.9-4 6.4-8 14.3-9 21.6-1.3 10.2.7 24.2 2.6 33.5.6 2.8-1.3 5.6-4.1 6.1-1.1.2-2.2.1-3.2-.4z" fill="#09936f"/><circle cx="126.1" cy="116" fill="#262103" r="9.4"/><path d="M569.8 767.1v111.3s-1 78.5-96.4 78.5l1-189.9z" fill="#262103"/><path d="M474.4 1320.2h-44.3V782c0-48.6 22.6-67.9 44.8-78.1z" fill="#09936f"/><g fill="#262103"><path d="M417.5 821.2c-37.1-33.1-51.3-73.9-56.7-102.3-5.8-30.7-3-53.4-2.8-54.4l8.9 1.2-4.5-.6 4.5.6c0 .2-2.8 22.4 2.8 51.8 5.2 26.9 18.7 65.6 53.8 97zm104.163-295.714 2.025-8.77 197.998 45.72-2.025 8.77zM208.5 298.6l-31.2-72.8c-5.6 0-18.3-.2-34-1.8l.9-9c12 1.2 24 1.8 36 1.7l3-.1 33.5 78.4z"/></g></svg></g><g transform="translate(32.0 134.0) rotate(0.0 222.5 286.0) scale(0.5474692771314086 0.5479693520358211)"><svg width="812.831" height="1043.854" viewBox="0 0 812.831 1043.854"><path d="M439.124 1043.854h-21.892v-286.89c0-32.947-7.008-65.518-20.559-95.549L302.88 453.547h82.416l109.76 239.297a50.437 50.437 0 0 1 4.592 21.028v269.457c.001 33.427-27.097 60.525-60.524 60.525z" fill="#262103"/><g fill="#09936f"><circle cx="213.252" cy="362.889" r="213.252"/><circle cx="542.402" cy="228.448" r="213.252"/><circle cx="296.699" cy="155.818" r="123.624"/><circle cx="689.206" cy="385.554" r="123.624"/><circle cx="145.259" cy="152.213" r="61.812"/><circle cx="311.637" cy="715.734" r="61.812"/><circle cx="261.157" cy="727.066" r="33.997"/><circle cx="360.056" cy="731.187" r="33.997"/><circle cx="732.475" cy="220.206" r="61.812"/><circle cx="397.787" cy="60.396" r="60.396"/></g><path d="m420.46 634.721 37.723 26.67L612.388 411.69c4.268-6.911-5.529-13.759-10.553-7.377zm63.993 218.803-29.747 36.315L328.948 746.07c-3.423-3.914 1.72-9.423 5.859-6.277z" fill="#262103"/></svg></g><g transform="translate(48.0 779.0) rotate(-90.00000000000001 230.0 27.0) translate(0.0 7.370975971141628) scale(1.1491783374886957 1.1615151319610246)"><svg width="400.286" height="40.145" viewBox="0 6.346 400.286 40.145"><path d="M0 0h400.286v46.491H0z" fill="#262103"/></svg></g><g transform="translate(112.0 866.0) rotate(0.0 135.0 85.0) scale(0.4062960845095856 0.4062806204144062)"><svg width="664.54" height="418.43" viewBox="0 0 664.54 418.43"><path d="M635.566 418.43a44.188 44.188 0 0 0 12.477-1.7c13.89-4.086 16.5-12.54 16.5-15.738 0-17.3-45.36-31.31-101.31-31.31q-2.34 0-4.65.03c41.87-17.2 69.95-39.65 65.26-53.8-4.27-12.87-34.4-15.06-72.82-6.91 7.52-4 11.88-8.75 12.11-13.97.51-11.44-18.93-22.32-48.35-29.08 11.27-6.87 17.45-14.2 16.45-21-1.47-10.03-18.2-16.68-42.95-18.84 25.38-17.43 39.79-35.06 35-45.63-6.77-14.95-49.55-10.36-97.47 9.88 19.83-27.1 28.45-50.71 19.79-59.38-8.76-8.76-32.79.13-60.26 20.42 24.36-45.24 32.87-86.72 18.78-94.86-14.6-8.43-48.07 22.04-75.66 68.48 4.56-34.19.71-59.82-11.27-63.25-10.27-2.94-24.1 11.09-36.81 34.91C279.64 42.88 265.92 0 249.11 0c-17.3 0-31.31 45.36-31.31 101.31 0 8.72.34 17.18.98 25.26-12.34-29.91-27.38-48.73-39.04-46.03-16.84 3.91-20.26 51.26-7.63 105.76a318.22 318.22 0 0 0 8.14 28.94c-19.09-9.77-34.29-12.45-40.56-5.64-7.99 8.69.62 30.58 19.99 55.64-38.62-12.28-69.98-13.1-75.5-.4-5.22 12.01 14.17 32.66 46.17 51.67-42.16 1.96-73.35 12.61-73.98 26.82-.44 10.04 14.48 19.65 38.02 26.42C41.67 370.85 0 384.41 0 400.99c0 3.371 0 12.964 17.939 16.479a54.764 54.764 0 0 0 10.546.961z" fill="#09936f"/></svg></g><g transform="translate(754.0 62.0) rotate(0.0 111.0 110.5) scale(0.6562863063792803 0.6577243926465818)"><svg width="338.267" height="336.007" viewBox="0 0 338.267 336.007"><g fill="#ffcc51"><circle cx="169.134" cy="169.534" r="61.426"/><path d="M163.134 0h12v90.894h-12zm84.24 163.534h90.894v12h-90.894zM0 163.534h90.894v12H0zm163.134 81.58h12v90.894h-12zm-79.815 13.821 33.04-37.036 8.955 7.989-33.04 37.036zm128.691-29.063 8.956-7.989 33.04 37.041-8.955 7.989zM83.325 82.882l8.954-7.988 33.041 37.036-8.954 7.988zm128.667 29.066 33.04-37.035 8.955 7.988-33.04 37.035z"/></g></svg></g></svg>