<svg xmlns="http://www.w3.org/2000/svg" version="1.1" viewBox="0 0 3000 3000" width="3000" height="3000">
<defs/><!--ITEM: Illustration component 1--><g transform="translate(1492.0 658.0) rotate(0.0 608.0 350.0)  scale(1.9995724598358904 1.997830926422741)"><svg width="608.13" height="350.38" viewBox="0.0 0.0 608.13 350.38"><path d="m575.319 187.42 14.731 20.697-15.794 14.393s-20.543-34.043-19.957-34.239 21.02-.851 21.02-.851z" fill="#1a1a1a"/><path d="m574.256 224.51c-.096 0-.192-.007-.288-.021-.593-.087-1.115-.434-1.425-.946-.051-.084-5.118-8.483-10.089-16.861-10.534-17.757-10.478-17.908-10.042-19.093.21-.57.678-1.024 1.255-1.216.341-.114.862-.288 21.587-.952.683-.027 1.305.294 1.693.839l14.731 20.696c.586.824.465 1.957-.282 2.639l-15.794 14.394c-.371.338-.852.521-1.347.521zm-16.844-34.435c3.089 5.557 11.298 19.347 17.299 29.314l12.682-11.558-13.081-18.379c-5.471.179-12.898.439-16.9.622z" fill="#1a1a1a"/><path d="m595.2 243.55c0 49.24-39.92 89.17-89.17 89.17h-403.71c-27.71 0-52.79-11.23-70.94-29.38-18.15-18.16-29.38-43.24-29.38-70.94 0-55.4 44.91-100.32 100.32-100.32 6.64 0 13.14.66 19.43 1.89 24.55-76.56 96.32-131.97 181.03-131.97 78.02 0 145.05 47.01 174.34 114.24 5.48 12.58 9.64 25.87 12.3 39.69 5.38-1.02 10.93-1.55 16.61-1.55 38.76 0 71.73 24.72 84.02 59.25 3.34 9.35 5.15 19.42 5.15 29.92z" fill="#fff"/><g fill="#1a1a1a"><path d="m506.03 334.72h-403.71c-27.335 0-53.031-10.642-72.354-29.966-19.324-19.335-29.966-45.03-29.966-72.354 0-56.419 45.901-102.32 102.32-102.32 6.021 0 12.092.538 18.072 1.602 12.474-37.725 36.001-70.204 68.122-94.014 33.246-24.642 72.759-37.668 114.266-37.668 76.469 0 145.621 45.314 176.173 115.442 5.337 12.252 9.387 25.086 12.048 38.176 4.932-.821 9.978-1.237 15.029-1.237 38.485 0 73.008 24.345 85.904 60.579 3.494 9.781 5.266 20.073 5.266 30.591 0 50.271-40.899 91.17-91.17 91.17zm-403.71-200.64c-54.214 0-98.32 44.105-98.32 98.319 0 26.256 10.226 50.947 28.794 69.526 18.567 18.568 43.259 28.794 69.525 28.794h403.711c48.065 0 87.17-39.104 87.17-87.17 0-10.058-1.693-19.897-5.033-29.247-12.332-34.646-45.339-57.923-82.137-57.923-5.47 0-10.934.51-16.237 1.515-1.083.213-2.128-.504-2.336-1.587-2.593-13.471-6.688-26.683-12.17-39.269-29.917-68.668-97.63-113.038-172.507-113.038-82.095 0-154.08 52.477-179.125 130.58-.309.966-1.294 1.547-2.288 1.353-6.289-1.229-12.697-1.853-19.046-1.853z"/><path d="m132.68 149.63-10.93-15.66c5.808-16.814 11.267-27.482 11.267-27.482l17.261 19.957-17.598 23.186z"/><path d="m132.68 151.63h-.04c-.639-.013-1.234-.331-1.6-.855l-10.93-15.66c-.366-.524-.459-1.192-.25-1.798 5.787-16.753 11.322-27.632 11.377-27.74.303-.592.88-.995 1.541-1.074.66-.082 1.317.175 1.752.677l17.26 19.957c.618.715.652 1.765.081 2.518l-17.598 23.186c-.379.499-.969.791-1.593.791zm-8.706-17.968 8.773 12.57 14.957-19.706-14.21-16.431c-1.897 4.045-5.621 12.412-9.52 23.566z"/><path d="m590.05 213.63-32.55 15.6-57.15-57.64s-12.181-2.689-10.93-15.66c5.38-1.02 10.93-1.55 16.61-1.55 38.76 0 71.73 24.72 84.02 59.25z"/><path d="m557.501 231.23c-.522 0-1.037-.204-1.421-.592l-56.755-57.241c-4.904-1.333-12.974-6.47-11.895-17.659.085-.885.745-1.607 1.618-1.772 5.549-1.052 11.263-1.585 16.982-1.585 38.485 0 73.008 24.345 85.904 60.579.343.965-.097 2.032-1.02 2.475l-32.55 15.6c-.276.132-.571.196-.864.196zm-66.168-73.612c-.062 9.726 9.049 11.929 9.456 12.021.37.084.715.273.982.543l56.148 56.63 29.626-14.199c-12.79-33.708-45.32-56.232-81.515-56.232-4.942 0-9.879.416-14.697 1.237z"/></g><path d="m606.13 259.21c0 49.25-39.92 89.17-89.17 89.17h-403.71c-27.7 0-52.78-11.23-70.94-29.38-18.15-18.16-29.38-43.24-29.38-70.94 0-55.4 44.91-100.31 100.32-100.31 6.65 0 13.14.65 19.43 1.88 6.68-20.84 16.87-40.12 29.87-57.14 34.73-45.48 89.52-74.83 151.16-74.83 72.91 0 136.23 41.06 168.11 101.31 8.62 16.28 14.94 33.96 18.53 52.62 5.38-1.01 10.93-1.55 16.61-1.55 19.81 0 38.1 6.45 52.89 17.38 22.01 16.23 36.28 42.34 36.28 71.79z" fill="#fece2f"/><path d="m481.82 118.97c-19.85 14.67-56.058 9.639-78.238-2.961-28.09-15.97-39.572-65.423-89.478-64.957-27.913.261-37.231 24.944-57.391 31.304-30.5 9.62-50.23 6.148-60.783 5.478-16.435-1.043-26.96 4.624-33.38 4.654 34.73-45.478 89.52-74.828 151.16-74.828 72.91 0 136.23 41.06 168.11 101.31z" fill="#fff"/><path d="m516.96 350.38h-403.71c-27.324 0-53.02-10.642-72.354-29.965-19.324-19.336-29.966-45.031-29.966-72.355 0-56.414 45.901-102.31 102.32-102.31 6.053 0 12.123.535 18.071 1.592 12.475-37.722 36.002-70.2 68.123-94.01 33.248-24.646 72.761-37.672 114.266-37.672 91.268 0 170.109 64.483 188.221 153.619 4.973-.822 10.02-1.239 15.029-1.239 19.646 0 38.346 6.146 54.078 17.771 23.225 17.125 37.092 44.564 37.092 73.398 0 50.271-40.898 91.17-91.17 91.17zm-403.71-200.63c-54.214 0-98.32 44.102-98.32 98.31 0 26.256 10.226 50.947 28.794 69.526 18.579 18.567 43.271 28.794 69.526 28.794h403.71c48.065 0 87.17-39.104 87.17-87.17 0-27.569-13.259-53.805-35.467-70.181-15.041-11.115-32.919-16.989-51.703-16.989-5.419 0-10.883.51-16.241 1.516-1.089.202-2.125-.507-2.333-1.588-16.998-88.253-94.666-152.308-184.676-152.308-82.092 0-154.077 52.477-179.126 130.58-.31.966-1.298 1.548-2.288 1.353-6.25-1.223-12.659-1.843-19.046-1.843z" fill="#1a1a1a"/><path d="m606.13 259.21c0 49.25-39.92 89.17-89.17 89.17h-306.99c18.25-12.98 36.1-27.46 58.69-25.83 8.56.61 16.86 3.75 25.35 5.27 17.55 3.14 35.92-.92 50.86-11.24 8.73-6.04 16.27-14.08 25.19-19.76 35.94-22.88 81.7-2.17 123.17-6.33 10.72-1.08 21.56-4.02 30.16-11.11 8.59-7.09 14.55-18.94 13.23-30.96-1.36-12.41-10.01-24.39-6.68-36.21 4.76-16.87 26.88-14.79 39.91-24.79 22.01 16.23 36.28 42.34 36.28 71.79z" fill="#1a1a1a"/><path d="m516.96 350.38h-306.99c-.87 0-1.641-.563-1.905-1.392s.037-1.733.746-2.238c1.527-1.086 3.052-2.184 4.577-3.28 16.714-12.025 33.993-24.453 55.416-22.915 5.39.385 10.682 1.739 15.8 3.049 3.201.819 6.51 1.666 9.759 2.248 16.943 3.033 34.938-.947 49.371-10.917 3.934-2.722 7.723-5.944 11.386-9.062 4.393-3.736 8.934-7.6 13.866-10.74 23.43-14.916 51.208-11.748 78.073-8.682 15.27 1.743 31.061 3.545 45.972 2.049 12.382-1.247 21.896-4.735 29.087-10.663 8.756-7.227 13.668-18.688 12.514-29.198-.499-4.549-2.079-9.201-3.607-13.699-2.571-7.568-5.229-15.394-3.01-23.271 3.244-11.496 13.747-14.95 23.903-18.289 5.92-1.947 12.042-3.96 16.714-7.546.707-.543 1.688-.553 2.405-.022 23.227 17.126 37.093 44.565 37.093 73.399 0 50.271-40.898 91.17-91.17 91.17zm-300.769-4h300.769c48.065 0 87.17-39.104 87.17-87.17 0-27.083-12.794-52.878-34.3-69.304-4.977 3.43-10.91 5.381-16.663 7.272-10 3.288-18.637 6.128-21.302 15.574-1.882 6.683.464 13.588 2.947 20.9 1.598 4.702 3.25 9.564 3.796 14.549 1.297 11.813-4.176 24.657-13.945 32.721-7.821 6.447-18.037 10.228-31.232 11.558-15.337 1.538-31.346-.288-46.826-2.055-27.376-3.124-53.235-6.074-75.471 8.082-4.699 2.991-9.134 6.764-13.423 10.412-3.739 3.181-7.604 6.469-11.704 9.305-15.295 10.565-34.376 14.779-52.35 11.564-3.394-.607-6.775-1.474-10.046-2.311-5.174-1.324-10.062-2.575-15.094-2.934-19.794-1.43-35.62 9.816-52.326 21.835z" fill="#1a1a1a"/></svg></g><!--ITEM: Illustration component 2--><g transform="translate(1034.0 284.0) rotate(0.0 385.0 227.0)  scale(1.9994339264987315 1.9916211532977999)"><svg width="385.109" height="227.955" viewBox="0.0 0.0 385.109 227.955"><path d="m318.659 97.053c-4.271 0-8.443.419-12.482 1.212-15.778-49.185-61.883-84.786-116.305-84.786-59.503 0-109.062 42.559-119.913 98.895-3.458-.651-7.024-.996-10.671-.996-31.639 0-57.288 25.649-57.288 57.288s25.649 57.288 57.288 57.288v.002h259.369v-.002h.001c35.595 0 64.45-28.855 64.45-64.45s-28.855-64.45-64.45-64.45z" fill="#1a1a1a"/><path d="m318.657 227.954h-259.367c-32.693-.001-59.29-26.598-59.29-59.289s26.597-59.289 59.289-59.289c3.036 0 6.086.234 9.093.698 11.964-57.247 62.744-98.596 121.49-98.596 26.82 0 52.353 8.417 73.835 24.342 20.589 15.261 35.714 36.035 43.826 60.164 3.669-.619 7.403-.932 11.126-.932 36.641 0 66.45 29.81 66.45 66.45s-29.768 66.41-66.375 66.45c-.025 0-.052.001-.077.001zm-259.368-114.578c-30.486 0-55.289 24.802-55.289 55.289s24.803 55.288 55.289 55.288h259.293.077c34.436 0 62.45-28.015 62.45-62.45s-28.015-62.45-62.45-62.45c-4.055 0-8.125.395-12.098 1.174-.995.196-1.979-.386-2.289-1.352-16.001-49.882-61.976-83.397-114.4-83.397-57.488 0-107.092 40.909-117.948 97.273-.209 1.082-1.255 1.787-2.334 1.587-3.389-.638-6.854-.962-10.301-.962z" fill="#1a1a1a"/><path d="m383.109 150.021c0 17.8-7.22 33.91-18.88 45.57-11.66 11.67-27.78 18.88-45.57 18.88v.01h-259.37v-.01c-13.5 0-25.91-4.67-35.7-12.48-13.16-10.5-21.59-26.67-21.59-44.8 0-31.64 25.65-57.29 57.29-57.29 3.65 0 7.21.34 10.67.99 10.85-56.33 60.41-98.89 119.91-98.89 8 0 15.82.77 23.39 2.24 43.94 8.52 79.46 40.59 92.92 82.55 4.04-.8 8.21-1.22 12.48-1.22 35.59 0 64.45 28.86 64.45 64.45z" fill="#fff"/><path d="m213.259 4.241c-10.02 1.94-19.41 6.37-29.3 8.99-9.97 2.64-20.36 3.4-30.3 6.13-9.94 2.72-19.84 7.86-25.07 16.74-1.95 3.31-3.22 7.07-5.81 9.9-4.16 4.55-10.76 5.73-16.2 8.64-14.09 7.56-18.51 25.26-21.99 40.87-1.73 7.73-4.21 16.31-11.16 20.12-7.14 3.9-15.91 1.12-24.05 1.27-11.27.2-22.12 6.63-28.13 16.17-6.02 9.53-7.2 21.83-3.6 32.51 2.46 7.29 7.06 14.15 6.92 21.85-.05 3.18-.93 6.3-1.18 9.48-.12 1.63-.05 3.35.2 5.08-13.16-10.5-21.59-26.67-21.59-44.8 0-31.64 25.65-57.29 57.29-57.29 3.65 0 7.21.34 10.67.99 10.85-56.33 60.41-98.89 119.91-98.89 8 0 15.82.77 23.39 2.24z" fill="#fece2f"/><path d="m318.657 216.476h-259.367c-32.693-.001-59.29-26.599-59.29-59.29s26.597-59.288 59.289-59.288c3.037 0 6.087.234 9.093.697 11.964-57.247 62.744-98.595 121.49-98.595 26.82 0 52.351 8.417 73.835 24.342 20.589 15.262 35.714 36.036 43.826 60.164 3.668-.619 7.402-.932 11.126-.932 36.641 0 66.45 29.81 66.45 66.45s-29.77 66.411-66.376 66.451c-.025 0-.051.001-.076.001zm-259.368-114.578c-30.486 0-55.289 24.802-55.289 55.288s24.803 55.289 55.289 55.289h259.295.075c34.436 0 62.45-28.015 62.45-62.451s-28.015-62.45-62.45-62.45c-4.056 0-8.126.396-12.097 1.175-1.003.195-1.98-.386-2.29-1.352-16.001-49.882-61.975-83.397-114.4-83.397-57.488 0-107.092 40.909-117.948 97.273-.209 1.082-1.255 1.791-2.334 1.587-3.388-.638-6.853-.961-10.301-.961z" fill="#1a1a1a"/></svg></g><!--ITEM: Illustration component 3--><g transform="translate(1334.0 696.0) rotate(0.0 79.0 246.0)  scale(1.9944962003585043 1.9851196720517745)"><svg width="79.218" height="247.844" viewBox="0.0 0.0 79.218 247.844"><path d="m76.497 75.173-28.776-67.627c-.165-.397-.365-.776-.583-1.142-.042-.071-.084-.142-.128-.211-.21-.331-.435-.651-.684-.95-.028-.033-.058-.062-.086-.095-.227-.265-.471-.513-.727-.75-.069-.063-.137-.127-.208-.189-.289-.251-.591-.488-.911-.702-.028-.019-.058-.034-.086-.053-.303-.197-.62-.373-.947-.533-.071-.034-.14-.069-.212-.102-.36-.165-.729-.312-1.113-.429-.011-.003-.023-.005-.034-.009-.361-.108-.734-.188-1.112-.25-.093-.016-.185-.03-.278-.042-.394-.053-.792-.089-1.2-.089s-.807.037-1.2.089c-.093.012-.185.027-.278.042-.379.063-.751.142-1.112.25-.011.003-.023.005-.034.009-.384.117-.753.264-1.113.429-.072.033-.142.068-.212.103-.327.16-.644.335-.947.532-.028.019-.058.034-.086.053-.32.213-.622.45-.911.702-.071.062-.139.125-.208.189-.256.237-.5.485-.727.75-.028.033-.059.062-.086.095-.25.299-.474.62-.684.95-.044.07-.086.14-.128.211-.218.366-.417.744-.583 1.141l-28.382 66.694c-1.946 4.573.184 9.858 4.757 11.805 4.573 1.946 9.859-.185 11.805-4.758l11.127-26.149v181.707c0 4.971 4.029 9 9 9s9-4.029 9-9v-181.707l11.524 27.083c1.457 3.425 4.785 5.479 8.285 5.479 1.175 0 2.37-.231 3.52-.721 4.574-1.946 6.704-7.231 4.757-11.805z" fill="#fece2f"/><path d="m39.41 247.844c-6.065 0-11-4.935-11-11v-171.899l-7.286 17.125c-1.15 2.703-3.284 4.797-6.01 5.896-2.727 1.099-5.715 1.07-8.419-.081s-4.798-3.285-5.896-6.01c-1.099-2.725-1.07-5.715.081-8.418l28.38-66.695c.188-.45.42-.906.706-1.385l.152-.25c.284-.448.559-.827.842-1.167.026-.031.097-.109.124-.139.248-.289.537-.587.866-.892.095-.088.176-.163.26-.235.372-.324.736-.604 1.109-.852.03-.021.107-.068.14-.087.32-.209.699-.422 1.122-.63l.268-.128c.471-.216.917-.387 1.355-.521.023-.007.053-.015.082-.023.404-.119.837-.216 1.321-.296.109-.019.225-.037.342-.052 1.08-.145 1.837-.145 2.927 0 .111.015.228.033.345.053.479.079.911.176 1.317.296.021.005.041.011.057.016.461.14.907.311 1.386.53l.204.098c.476.233.854.446 1.212.679.008.002.061.035.113.07.365.243.729.523 1.107.853l.196.177c.387.357.676.656.943.967.022.022.064.068.104.116.292.35.565.73.84 1.164l.162.265c.287.483.52.941.706 1.39l28.769 67.61c1.151 2.704 1.18 5.693.081 8.418-1.098 2.725-3.191 4.859-5.896 6.01-1.372.584-2.82.88-4.303.88h-.003c-4.42 0-8.394-2.628-10.123-6.696l-7.684-18.058v171.901c0 6.065-4.935 11-11 11zm-9.001-194.707c.133 0 .267.013.4.041.932.19 1.601 1.009 1.601 1.959v181.707c0 3.86 3.141 7 7 7s7-3.14 7-7v-181.707c0-.951.669-1.77 1.601-1.959.929-.188 1.867.301 2.239 1.176l11.524 27.083c1.102 2.589 3.63 4.262 6.442 4.262h.002c.942 0 1.862-.189 2.737-.561 1.721-.732 3.054-2.09 3.752-3.825.699-1.734.681-3.636-.051-5.356l-28.774-67.628c-.12-.288-.269-.578-.462-.903l-.103-.168c-.179-.283-.353-.525-.528-.736 0 0-.032-.03-.083-.091-.16-.186-.352-.38-.552-.565l-.156-.143c-.254-.221-.484-.399-.713-.551l-.074-.044c-.229-.149-.477-.285-.73-.409l-.158-.077c-.307-.141-.578-.247-.834-.326-.033-.009-.066-.019-.094-.027-.22-.065-.502-.128-.831-.183l-.211-.032c-.746-.1-1.148-.099-1.877 0l-.211.032c-.336.056-.618.119-.87.194-.018.005-.039.011-.061.017-.27.085-.535.189-.827.323l-.105.051c-.315.154-.563.29-.798.442-.024.016-.09.057-.115.071-.18.122-.411.3-.659.515l-.142.129c-.221.204-.412.398-.59.605-.021.024-.084.095-.105.117-.134.161-.308.403-.493.696l-.093.154c-.194.324-.343.614-.462.897l-28.383 66.705c-.732 1.72-.751 3.623-.052 5.356.698 1.734 2.031 3.093 3.752 3.825 1.721.733 3.624.75 5.356.051 1.734-.699 3.093-2.031 3.824-3.751l11.128-26.15c.318-.749 1.051-1.217 1.839-1.217z" fill="#1a1a1a"/></svg></g><!--ITEM: Illustration component 4--><g transform="translate(314.0 814.0) rotate(0.0 717.0 411.0)  scale(1.998272065995931 1.9972301188133246)"><svg width="717.62" height="411.57" viewBox="0.0 0.0 717.62 411.57"><path d="m683.875 352.265-16.03 17.893-19.801-.504 39.913-43.435z" fill="#1a1a1a"/><path d="m667.844 372.158c-.017 0-.034 0-.051 0l-19.801-.505c-.784-.02-1.484-.496-1.791-1.218-.306-.723-.162-1.557.369-2.135l39.913-43.435c.597-.648 1.548-.831 2.341-.448.794.383 1.244 1.24 1.107 2.111l-4.082 26.046c-.06.382-.229.737-.486 1.025l-16.03 17.894c-.38.424-.922.665-1.49.665zm-15.351-4.392 14.478.369 15.019-16.765 2.967-18.933-32.464 35.328z" fill="#1a1a1a"/><path d="m715.62 272.19c0 2.64-.09 5.25-.26 7.84v.01c-1.93 29.36-14.64 55.77-34.2 75.33-16.28 16.28-37.3 27.82-60.83 32.33h-.01c-7.23 1.4-14.7 2.13-22.34 2.13h-473.43c-57.75 0-104.56-46.82-104.56-104.57s46.81-104.57 104.56-104.57c6.66 0 13.17.63 19.48 1.82 19.81-102.83 110.27-180.51 218.88-180.51 70.21 0 132.83 32.46 173.69 83.2 16.78 20.84 29.89 44.76 38.34 70.79.08.26.17.51.25.77 7.38-1.45 14.99-2.21 22.79-2.21 64.97 0 117.64 52.66 117.64 117.64z" fill="#fff"/><g fill="#1a1a1a"><path d="m597.98 391.83h-473.43c-58.757 0-106.56-47.808-106.56-106.57s47.802-106.57 106.56-106.57c5.986 0 11.998.506 17.898 1.506 21.084-104.538 113.484-180.196 220.462-180.196 68.412 0 132.287 30.597 175.247 83.944 17.031 21.153 29.944 44.876 38.389 70.524 7.038-1.274 14.239-1.919 21.433-1.919 65.97 0 119.64 53.67 119.64 119.64 0 2.608-.088 5.277-.262 7.933 0 .017-.001.034-.002.049-1.897 28.873-14.25 56.082-34.781 76.613-17.014 17.014-38.408 28.383-61.868 32.879-.027.006-.055.011-.083.015-7.401 1.428-15.019 2.152-22.644 2.152zm-473.43-209.14c-56.552 0-102.56 46.013-102.56 102.57s46.008 102.57 102.56 102.57h473.43c7.396 0 14.785-.705 21.959-2.095.03-.006.06-.011.09-.015 22.642-4.355 43.289-15.338 59.717-31.765 19.836-19.837 31.773-46.119 33.616-74.01 0-.017.001-.033.002-.049.17-2.58.256-5.174.256-7.708 0-63.764-51.876-115.64-115.64-115.64-7.531 0-15.069.73-22.404 2.173-1.005.196-1.996-.396-2.297-1.374l-.11-.337c-.048-.145-.096-.288-.141-.436-8.278-25.499-21.062-49.103-37.986-70.123-42.198-52.398-104.937-82.451-172.132-82.451-105.721 0-196.948 75.233-216.916 178.888-.208 1.082-1.25 1.793-2.334 1.588-6.281-1.186-12.71-1.786-19.11-1.786z"/><path d="m574.94 155.99-17.73 19.46-77.56-27.01 56.95-63.24c16.78 20.84 29.89 44.76 38.34 70.79z"/><path d="m557.209 177.449c-.22 0-.442-.036-.657-.111l-77.56-27.01c-.633-.221-1.113-.742-1.279-1.392-.167-.648.002-1.338.451-1.835l56.95-63.24c.392-.436.953-.688 1.542-.661.586.016 1.135.288 1.502.745 17.231 21.4 30.246 45.432 38.685 71.427.222.683.06 1.433-.424 1.964l-17.73 19.46c-.386.424-.926.653-1.479.653zm-74.059-29.908 73.47 25.585 16.056-17.622c-8.051-24.367-20.211-46.962-36.169-67.212l-53.356 59.249z"/><path d="m715.36 280.04c-1.93 29.36-14.64 55.77-34.2 75.33-16.28 16.28-37.3 27.82-60.83 32.33z"/><path d="m620.329 389.699c-.708 0-1.376-.377-1.737-1.009-.424-.743-.328-1.674.238-2.314l95.03-107.659c.566-.642 1.478-.852 2.268-.523s1.283 1.124 1.227 1.978c-1.897 28.873-14.25 56.082-34.781 76.613-17.014 17.014-38.408 28.383-61.868 32.879-.126.024-.252.036-.377.036zm92.477-103.744-86.93 98.482c20.346-5.019 38.867-15.48 53.87-30.481 18.405-18.405 30.01-42.361 33.06-68.001z"/></g><path d="m697.63 291.93c0 32.49-13.17 61.89-34.46 83.18-1.91 1.91-3.89 3.76-5.93 5.53-20.66 18.02-47.69 28.93-77.25 28.93h-473.42c-36.01 0-67.78-18.21-86.58-45.92-11.36-16.72-17.99-36.91-17.99-58.65 0-57.75 46.82-104.57 104.57-104.57 6.65 0 13.16.63 19.48 1.82 1.15-5.95 2.53-11.82 4.14-17.59 26.19-93.97 112.41-162.92 214.73-162.92 66.43 0 126.06 29.05 166.89 75.15 20.24 22.84 35.86 49.86 45.4 79.61 7.37-1.45 14.99-2.21 22.78-2.21 59.58 0 108.82 44.29 116.56 101.75.72 5.19 1.08 10.5 1.08 15.89z" fill="#fece2f"/><path d="m511.81 96.89c-11.9-2.44-22.33-6.46-26.8-8.79-13.47-7.04-24.83-19.78-39.83-21.32-5.13-.53-10.69.24-15.09-2.55-4.96-3.15-6.7-9.71-10.48-14.3-7.32-8.88-20.22-8.7-31.42-9.72-23.75-2.17-48.85-12.67-70.36-1.99-5 2.49-9.55 6.05-14.87 7.68-11.14 3.41-32.33-3.76-56.76 16.32-6.59 5.41-12.25 12.15-19.62 16.32-10.55 5.97-23.81 6.22-33.24 13.97-15.17 12.47-12.65 36.31-42.61 68.39-10.92 11.7-16.89 19.03-20.54 23.76 26.19-93.97 112.41-162.92 214.73-162.92 66.43 0 126.06 29.05 166.89 75.15z" fill="#fff"/><path d="m579.99 411.569h-473.42c-.037 0-.073 0-.109-.003-58.714-.058-106.461-47.841-106.461-106.567s47.806-106.567 106.567-106.567c5.98 0 11.99.506 17.896 1.504 21.081-104.537 113.478-180.197 220.457-180.197 48.598 0 94.86 15.252 133.787 44.107 37.689 27.938 65.274 66.067 79.861 110.361 7.051-1.275 14.25-1.922 21.425-1.922 65.97 0 119.641 53.671 119.641 119.641s-53.615 119.581-119.535 119.64c-.036.002-.072.003-.108.003zm-473.314-4h473.207c.036-.002.072-.003.108-.003 63.766 0 115.643-51.876 115.643-115.64s-51.876-115.641-115.641-115.641c-7.51 0-15.045.731-22.398 2.176-.991.194-1.979-.386-2.29-1.352-29.427-91.736-113.975-153.371-210.385-153.371-105.722 0-196.946 75.233-216.911 178.889-.208 1.083-1.253 1.79-2.334 1.588-6.286-1.184-12.714-1.784-19.107-1.784-56.556 0-102.567 46.012-102.567 102.567s46.012 102.567 102.567 102.567c.036 0 .072 0 .108.003z" fill="#1a1a1a"/><path d="m657.24 380.64c-20.66 18.02-47.69 28.93-77.25 28.93h-473.42c-36.01 0-67.78-18.21-86.58-45.92 5.92 5.33 12.97 9.18 21.35 9.68 13.19.77 25.05-7.12 37.52-11.43 15.7-5.42 33.38-5.09 48.88.91 17.11 6.63 32.25 20.02 50.63 20.4 24.13.5 42.64-21.39 66.02-27.31 38.16-9.66 75.1 25.02 114.41 22.32 25.52-1.74 46.83-18.75 67.77-33.22 20.94-14.48 46.63-27.55 71.13-20.26 26.37 7.85 40.39 35.76 62.28 52.26 22.1 16.67 53.28 20.78 79.02 10.41 5.74-2.31 12.09-5.22 18.24-6.77z" fill="#1a1a1a"/><path d="m579.99 411.569h-473.42c-35.369 0-68.354-17.494-88.235-46.797-.567-.837-.421-1.966.341-2.631.761-.664 1.899-.655 2.652.021 6.29 5.663 13.063 8.749 20.13 9.171 8.837.512 17.034-3.063 25.717-6.851 3.585-1.564 7.292-3.182 11.031-4.475 16.071-5.547 34.388-5.207 50.256.936 6.05 2.345 11.886 5.532 17.529 8.614 10.747 5.869 20.897 11.414 32.42 11.651 13.354.291 24.889-6.583 37.106-13.847 8.953-5.323 18.21-10.827 28.382-13.402 21.189-5.363 42.157 2.604 62.434 10.309 17.038 6.475 34.656 13.162 52.33 11.955 22.127-1.509 41.256-14.959 59.755-27.966 2.347-1.649 4.683-3.293 7.015-4.904 18.318-12.667 45.798-28.58 72.838-20.532 17.051 5.076 29.172 18.356 40.894 31.2 6.878 7.536 13.99 15.328 22.019 21.381 21.63 16.314 51.881 20.301 77.069 10.151 1.219-.49 2.464-1.008 3.729-1.533 4.813-1.999 9.789-4.066 14.77-5.321.896-.227 1.831.192 2.261 1.013.429.819.24 1.826-.458 2.434-21.752 18.974-49.654 29.423-78.564 29.423zm-550.927-39.387c19.372 22.348 47.552 35.388 77.507 35.388h473.42c23.987 0 47.254-7.441 66.66-21.147-1.05.428-2.096.862-3.134 1.294-1.279.531-2.539 1.054-3.77 1.55-26.461 10.66-58.246 6.473-80.971-10.669-8.325-6.275-15.564-14.207-22.565-21.878-11.876-13.013-23.094-25.304-39.081-30.063-19.325-5.749-41.385.602-69.422 19.988-2.324 1.606-4.652 3.243-6.989 4.887-18.948 13.322-38.542 27.099-61.782 28.684-18.549 1.274-36.583-5.579-54.024-12.206-20.604-7.83-40.064-15.22-60.031-10.171-9.608 2.434-18.612 7.786-27.319 12.963-12.162 7.232-24.718 14.702-39.233 14.409-12.5-.259-23.559-6.299-34.254-12.141-5.531-3.021-11.25-6.145-17.057-8.395-15-5.806-32.315-6.13-47.505-.885-3.589 1.24-7.223 2.826-10.737 4.359-8.731 3.81-17.761 7.747-27.552 7.178-4.174-.249-8.237-1.302-12.161-3.146z" fill="#1a1a1a"/></svg></g><!--ITEM: Illustration component 5--><g transform="translate(382.0 1492.0) rotate(0.0 1194.0 576.0)  scale(1.9994172552723328 2.0010561129485005)"><svg width="1194.348" height="575.696" viewBox="0.0 0.0 1194.348 575.696"><path d="m159.935 575.696h-157.935c-1.105 0-2-.896-2-2s.896-2 2-2h157.935c1.104 0 2 .896 2 2s-.896 2-2 2z" fill="#1a1a1a"/><path d="m1104.304 575.696h-104.869c-1.104 0-2-.896-2-2s.896-2 2-2h104.869c1.104 0 2 .896 2 2s-.896 2-2 2z" fill="#1a1a1a"/><path d="m221.652 2h727.565c33.115 0 60 26.885 60 60v472.957h-847.565v-472.957c0-33.115 26.885-60 60-60z" fill="#fff"/><path d="m225.174 9.696h728.739c30.523 0 55.304 24.781 55.304 55.304v469.957h-839.347v-469.957c0-30.523 24.781-55.304 55.304-55.304z" fill="#fece2f"/><path d="m1009.217 536.957h-847.564c-1.104 0-2-.896-2-2v-472.957c0-34.187 27.813-62 62-62h727.564c34.187 0 62 27.813 62 62v472.957c0 1.104-.896 2-2 2zm-845.564-4h843.564v-470.957c0-31.981-26.019-58-58-58h-727.564c-31.981 0-58 26.019-58 58z" fill="#1a1a1a"/><path d="m369.456-117.804h469.957v797.565h-469.957c-20.973 0-38-17.027-38-38v-721.565c0-20.973 17.027-38 38-38z" fill="#1a1a1a" transform="matrix(0 1 -1 0 866.413 -304.456)"/><path d="m984.217 536.957h-797.565c-1.104 0-2-.896-2-2v-469.957c0-22.056 17.944-40 40-40h721.565c22.056 0 40 17.944 40 40v469.957c0 1.104-.896 2-2 2zm-795.565-4h793.565v-467.957c0-19.851-16.149-36-36-36h-721.565c-19.851 0-36 16.149-36 36z" fill="#1a1a1a"/><path d="m128.478 506.783h913.913c12.142 0 22 9.858 22 22 0 24.788-20.125 44.913-44.913 44.913h-868.087c-24.788 0-44.913-20.125-44.913-44.913 0-12.142 9.858-22 22-22z" fill="#fece2f"/><path d="m1042.391 506.783h-913.913c-12.15 0-22 9.85-22 22 0 1.937.136 3.84.374 5.712 1.892-10.226 10.852-17.973 21.626-17.973h913.913c10.774 0 19.733 7.747 21.625 17.973.238-1.872.375-3.776.375-5.712 0-12.15-9.85-22-22-22z" fill="#fff"/><path d="m1019.479 575.696h-868.088c-25.868 0-46.913-21.045-46.913-46.913 0-13.234 10.766-24 24-24h913.913c13.233 0 24 10.766 24 24 0 25.868-21.045 46.913-46.912 46.913zm-891.001-66.913c-11.027 0-20 8.972-20 20 0 23.663 19.25 42.913 42.913 42.913h868.088c23.662 0 42.912-19.25 42.912-42.913 0-11.028-8.972-20-20-20z" fill="#1a1a1a"/><path d="m459.826 506.783h251.217v15.696c0 8.831-7.169 16-16 16h-219.217c-8.831 0-16-7.169-16-16z" fill="#fece2f"/><path d="m695.043 531.087h-219.217c-8.836 0-16-7.163-16-16v7.392c0 8.836 7.164 16 16 16h219.217c8.837 0 16-7.164 16-16v-7.392c0 8.837-7.163 16-16 16z" fill="#fff"/><g fill="#1a1a1a"><path d="m695.043 540.478h-219.217c-9.925 0-18-8.075-18-18v-15.695c0-1.104.896-2 2-2h251.217c1.104 0 2 .896 2 2v15.695c0 9.925-8.075 18-18 18zm-233.217-31.695v13.695c0 7.72 6.28 14 14 14h219.217c7.72 0 14-6.28 14-14v-13.695z"/><path d="m589.544 571.043c-203.781.403-401.463-7.391-430.63-11.957-26.35-4.124-43.364-13.03-52.435-30.304 0 24.805 20.108 44.913 44.913 44.913h438.152z"/><path d="m589.543 575.696h-438.152c-25.868 0-46.913-21.045-46.913-46.913 0-.92.628-1.722 1.521-1.942.89-.22 1.822.197 2.25 1.012 8.42 16.035 24.141 25.058 50.974 29.258 28.329 4.435 224.865 12.354 430.316 11.933h.004c.529 0 1.038.21 1.413.584.376.375.587.884.587 1.416v2.652c0 1.104-.896 2-2 2zm-480.296-38.803c3.801 19.799 21.253 34.803 42.144 34.803h271.716c-135.859-2.398-243.989-7.422-264.503-10.633-24.028-3.761-39.651-11.335-49.357-24.17z"/><path d="m581.326 571.043c203.781.403 401.463-7.391 430.63-11.957 26.35-4.124 43.364-13.03 52.435-30.304 0 24.805-20.108 44.913-44.913 44.913h-438.152s0-2.652 0-2.652z"/><path d="m1019.479 575.696h-438.152c-1.104 0-2-.896-2-2v-2.652c0-.531.211-1.041.587-1.416.375-.375.884-.584 1.413-.584h.004c205.422.406 401.987-7.498 430.316-11.933 26.833-4.2 42.554-13.223 50.974-29.258.428-.813 1.355-1.235 2.249-1.012.894.22 1.521 1.022 1.521 1.942 0 25.868-21.045 46.913-46.912 46.913zm-271.724-4h271.724c20.891 0 38.342-15.004 42.144-34.803-9.706 12.835-25.328 20.409-49.356 24.17-20.514 3.211-128.651 8.235-264.511 10.633z"/><path d="m1192.348 575.696h-54.413c-1.104 0-2-.896-2-2s.896-2 2-2h54.413c1.104 0 2 .896 2 2s-.896 2-2 2z"/></g></svg></g><!--ITEM: Illustration component 6--><g transform="translate(2194.0 1334.0) rotate(0.0 194.0 322.0)  scale(1.999742301249839 1.994771468573057)"><svg width="194.025" height="322.844" viewBox="0.0 0.0 194.025 322.844"><path d="m191.304 75.173-28.776-67.627c-.165-.397-.365-.776-.583-1.142-.042-.071-.084-.142-.128-.211-.21-.331-.434-.651-.684-.95-.028-.033-.058-.062-.086-.095-.227-.265-.471-.513-.727-.75-.069-.063-.137-.127-.208-.189-.289-.251-.591-.488-.911-.702-.028-.019-.058-.034-.086-.053-.303-.197-.62-.373-.947-.533-.071-.034-.14-.069-.212-.102-.36-.165-.729-.312-1.113-.429-.011-.003-.023-.005-.034-.009-.361-.108-.734-.188-1.112-.25-.093-.016-.185-.03-.278-.042-.394-.053-.792-.089-1.2-.089s-.807.037-1.2.089c-.093.012-.185.027-.277.042-.379.063-.752.143-1.114.251-.011.003-.022.005-.032.008-.384.117-.754.264-1.114.429-.071.032-.14.067-.21.101-.328.161-.647.337-.951.535-.027.018-.056.033-.083.051-.321.213-.623.451-.913.703-.07.061-.138.124-.206.188-.257.237-.501.486-.729.751-.027.032-.058.061-.085.093-.25.3-.475.62-.684.951-.044.07-.086.14-.128.211-.218.366-.417.744-.583 1.141l-28.379 66.693c-1.946 4.573.184 9.858 4.757 11.805 4.573 1.944 9.859-.184 11.805-4.758l11.127-26.148v181.708c0 36.393-29.607 66-66 66h-68.22c-4.971 0-9 4.029-9 9s4.029 9 9 9h68.217c46.318 0 84-37.683 84-84v-181.707l11.524 27.083c1.457 3.425 4.785 5.479 8.285 5.479 1.175 0 2.37-.231 3.52-.721 4.574-1.946 6.704-7.231 4.757-11.805z" fill="#fece2f"/><path d="m79.217 322.844h-68.217c-6.066 0-11-4.935-11-11s4.935-11 11-11h68.217c35.29 0 64-28.71 64-64v-171.9l-7.287 17.124c-2.374 5.58-8.847 8.188-14.427 5.815-2.705-1.15-4.799-3.285-5.896-6.01-1.099-2.725-1.07-5.715.081-8.418l28.378-66.693c.185-.442.418-.9.707-1.385l.152-.25c.281-.444.556-.824.841-1.166.026-.032.096-.109.124-.139.244-.285.533-.584.865-.892.084-.078.169-.156.256-.231.376-.327.741-.608 1.115-.857.033-.022.112-.071.147-.091.313-.206.694-.42 1.119-.627l.253-.122c.478-.219.924-.39 1.365-.524.027-.008.062-.018.094-.026.421-.123.841-.216 1.307-.293.119-.019.231-.037.345-.052 1.08-.145 1.837-.145 2.927 0 .111.015.228.033.345.053.479.079.912.176 1.316.295.021.005.041.011.058.016.464.141.909.313 1.386.53l.204.098c.476.233.854.446 1.212.679.008.002.061.035.113.07.365.243.729.523 1.107.853l.196.177c.389.36.68.66.945.97l.079.086c.309.37.582.749.86 1.187l.135.221c.313.525.545.981.734 1.434l28.77 67.614c1.151 2.704 1.18 5.693.081 8.418-1.098 2.725-3.191 4.859-5.896 6.01-1.372.584-2.82.88-4.303.88h-.003c-4.42 0-8.394-2.628-10.123-6.696l-7.684-18.057v171.899c0 47.42-38.579 86-86 86zm-68.217-18c-3.86 0-7 3.14-7 7s3.14 7 7 7h68.217c45.215 0 82-36.785 82-82v-181.707c0-.951.669-1.77 1.601-1.959.929-.189 1.867.302 2.239 1.176l11.524 27.083c1.102 2.589 3.63 4.262 6.442 4.262h.002c.942 0 1.862-.189 2.737-.561 1.721-.732 3.054-2.09 3.752-3.825.699-1.734.681-3.636-.051-5.356l-28.774-67.628c-.122-.291-.271-.582-.462-.903l-.103-.168c-.182-.286-.356-.529-.528-.736l-.062-.065c-.184-.214-.374-.407-.573-.591l-.156-.143c-.254-.221-.485-.399-.713-.551l-.074-.044c-.229-.149-.477-.285-.73-.409l-.158-.077c-.306-.14-.577-.246-.835-.326-.032-.009-.065-.019-.093-.027-.219-.065-.501-.128-.832-.183l-.21-.032c-.744-.1-1.148-.099-1.877 0l-.221.034c-.325.054-.609.118-.863.193-.018.005-.037.011-.058.017-.272.085-.537.189-.829.323l-.127.061c-.313.153-.554.289-.774.432-.028.019-.097.06-.126.077-.17.115-.4.293-.647.509l-.16.146c-.201.187-.394.381-.572.588-.021.024-.084.094-.105.117-.135.163-.309.405-.493.696l-.093.155c-.196.328-.345.617-.46.894l-28.385 66.708c-.732 1.72-.751 3.623-.052 5.356.698 1.734 2.031 3.093 3.752 3.825 3.548 1.511 7.67-.148 9.181-3.701l11.128-26.148c.371-.875 1.309-1.368 2.239-1.176.932.19 1.601 1.009 1.601 1.959v181.705c0 37.495-30.505 68-68 68z" fill="#1a1a1a"/></svg></g><!--ITEM: Illustration component 7--><g transform="translate(1312.0 1628.0) rotate(0.0 453.0 295.0)  scale(1.999042401322104 1.999119032290855)"><svg width="453.217" height="295.13" viewBox="0.0 0.0 453.217 295.13"><rect fill="#fff" height="291.14" rx="20" width="449.22" x="1.995" y="1.995"/><path d="m451.215 47.535v225.6c0 11.04-8.95 20-20 20h-290.21c11.42-6.8 21.84-15.75 33.71-24.97 12.12-9.43 25.37-18.15 40.56-20.04 22.42-2.78 43.86 9.7 65.91 15.17 26.44 6.56 58 .74 73.1-23.37 10.95-17.48 11.67-41.78 25.8-56.36 11.15-11.48 29.09-15.04 36.68-29.53 5.36-10.25 3.82-22.91 4.35-34.71 1.05-23.45 10.94-45.56 24.22-64.05 1.89-2.64 3.86-5.22 5.88-7.74z" fill="#fece2f"/><path d="m22 2h409.217c11.038 0 20 8.962 20 20v20.696h-449.217v-20.696c0-11.038 8.962-20 20-20z" fill="#fece2f"/><g fill="#1a1a1a"><path d="m451.217 44.696h-449.217c-1.104 0-2-.896-2-2v-20.696c0-12.131 9.869-22 22-22h409.217c12.131 0 22 9.869 22 22v20.696c0 1.104-.896 2-2 2zm-447.217-4h445.217v-18.696c0-9.925-8.075-18-18-18h-409.217c-9.925 0-18 8.074-18 18z"/><path d="m431.217 295.131h-409.217c-12.131 0-22-9.869-22-22v-251.131c0-12.131 9.869-22 22-22h409.217c12.131 0 22 9.869 22 22v251.131c0 12.131-9.869 22-22 22zm-409.217-291.131c-9.925 0-18 8.074-18 18v251.131c0 9.925 8.075 18 18 18h409.217c9.925 0 18-8.075 18-18v-251.131c0-9.925-8.075-18-18-18z"/><path d="m62.041 206.044c-.354 0-.714-.095-1.039-.292-.943-.575-1.241-1.806-.667-2.749 31.232-51.25 92.969-67.074 165.14-42.329 60.438 20.722 104.846 22.806 131.985 6.192 16.349-10.007 26.353-27.084 29.734-50.756.156-1.094 1.164-1.854 2.263-1.697 1.093.156 1.853 1.169 1.696 2.263-3.558 24.909-14.191 42.943-31.604 53.603-28.205 17.265-73.75 15.308-135.371-5.819-70.271-24.094-130.243-8.905-160.427 40.626-.377.619-1.035.96-1.71.96z"/></g><path d="m215.492 149.652h22.696v22.696h-22.696z" fill="#fece2f"/><path d="m238.188 174.348h-22.695c-1.104 0-2-.896-2-2v-22.696c0-1.104.896-2 2-2h22.695c1.104 0 2 .896 2 2v22.696c0 1.104-.896 2-2 2zm-20.695-4h18.695v-18.696h-18.695z" fill="#1a1a1a"/><path d="m427.348 33.283c-.512 0-1.023-.195-1.414-.586l-17.869-17.87c-.781-.781-.781-2.047 0-2.828s2.047-.781 2.828 0l17.869 17.87c.781.781.781 2.047 0 2.828-.391.391-.902.586-1.414.586z" fill="#1a1a1a"/><path d="m409.479 33.283c-.512 0-1.023-.195-1.414-.586-.781-.781-.781-2.047 0-2.828l17.869-17.87c.781-.781 2.047-.781 2.828 0s.781 2.047 0 2.828l-17.869 17.87c-.391.391-.902.586-1.414.586z" fill="#1a1a1a"/><path d="m2 69.826h23.217v145.565h-23.217z" fill="#fece2f"/><path d="m25.217 217.391h-23.217c-1.104 0-2-.895-2-2v-145.565c0-1.104.896-2 2-2h23.217c1.104 0 2 .896 2 2v145.565c0 1.104-.896 2-2 2zm-21.217-4h19.217v-141.565h-19.217z" fill="#1a1a1a"/><path d="m396.957 191h54.261v67.174h-54.261z" fill="#fece2f"/><path d="m451.217 260.174h-54.261c-1.104 0-2-.896-2-2v-67.174c0-1.104.896-2 2-2h54.261c1.104 0 2 .896 2 2v67.174c0 1.104-.896 2-2 2zm-52.261-4h50.261v-63.174h-50.261z" fill="#1a1a1a"/><path d="m396.957 191h54.261v17.087h-54.261z" fill="#fece2f"/><path d="m451.217 210.087h-54.261c-1.104 0-2-.896-2-2v-17.087c0-1.104.896-2 2-2h54.261c1.104 0 2 .896 2 2v17.087c0 1.104-.896 2-2 2zm-52.261-4h50.261v-13.087h-50.261z" fill="#1a1a1a"/></svg></g><!--ITEM: Illustration component 8--><g transform="translate(450.0 1612.0) rotate(0.0 223.0 311.0)  scale(1.9910892061536265 1.9938645390230063)"><svg width="223.998" height="311.957" viewBox="0.0 0.0 223.998 311.957"><path d="m212.998 291.957h-98.648c-36.393 0-66-29.607-66-66v-170.962l11.584 27.224c1.457 3.425 4.785 5.479 8.285 5.479 1.175 0 2.371-.231 3.52-.721 4.574-1.946 6.704-7.231 4.757-11.805l-28.805-67.695c-1.143-2.688-3.504-4.59-6.274-5.226-.121-.028-.241-.059-.364-.082-.198-.037-.397-.067-.598-.091-.262-.032-.527-.05-.795-.059-.084-.002-.166-.019-.25-.019-.016 0-.032.003-.048.003-.004 0-.008 0-.012 0-.415 0-.82.038-1.22.092-.038.005-.075.011-.113.017-3.468.516-6.29 3-7.282 6.289l-28.014 65.837c-1.946 4.573.184 9.858 4.757 11.805 4.573 1.944 9.859-.184 11.805-4.758l11.066-26.007v170.679c0 46.317 37.682 84 84 84h98.648c4.971 0 9-4.029 9-9s-4.029-9-9-9z" fill="#fece2f"/><path d="m212.998 311.957h-98.648c-47.421 0-86-38.58-86-86v-160.871l-7.227 16.982c-2.374 5.58-8.846 8.189-14.428 5.815-2.704-1.15-4.798-3.285-5.896-6.01s-1.069-5.714.082-8.418l27.973-65.742c1.251-3.993 4.72-6.962 8.869-7.579l.128-.02c.547-.074 1.007-.109 1.453-.112.171-.01.305.002.451.018.301.011.625.033.944.072.236.028.478.065.718.109.137.026.258.055.38.083 3.501.804 6.367 3.194 7.734 6.408l28.805 67.695c1.151 2.704 1.18 5.693.082 8.418-1.099 2.725-3.192 4.86-5.896 6.01-1.372.584-2.82.88-4.304.88h-.003c-4.419 0-8.392-2.627-10.123-6.696l-7.743-18.198v161.156c0 35.29 28.71 64 64 64h98.647c6.065 0 11 4.935 11 11s-4.935 11-11 11zm-182.649-258.679c.133 0 .267.013.4.041.932.19 1.601 1.009 1.601 1.959v170.679c0 45.215 36.785 82 82 82h98.647c3.859 0 7-3.14 7-7s-3.141-7-7-7h-98.647c-37.495 0-68-30.505-68-68v-170.962c0-.951.669-1.77 1.601-1.959.93-.188 1.867.302 2.239 1.176l11.584 27.224c1.102 2.589 3.631 4.262 6.442 4.262h.002c.942 0 1.863-.188 2.738-.561 1.721-.732 3.053-2.09 3.751-3.824.699-1.734.681-3.637-.051-5.357l-28.805-67.696c-.868-2.04-2.692-3.557-4.881-4.06-.006 0-.094-.022-.1-.023l-.193-.043c-.143-.026-.3-.051-.458-.07-.212-.026-.419-.039-.629-.046-.064-.002-.135-.007-.207-.014-.02 0-.041 0-.061 0-.269.001-.563.025-.924.074-2.75.41-4.973 2.329-5.749 4.901-.021.07-.046.138-.075.206l-28.013 65.836c-.731 1.72-.75 3.623-.051 5.357.698 1.734 2.03 3.092 3.751 3.824 3.551 1.51 7.672-.15 9.183-3.701l11.066-26.007c.318-.749 1.051-1.217 1.839-1.217z" fill="#1a1a1a"/></svg></g><!--ITEM: Illustration component 9--><g transform="translate(870.0 1922.0) rotate(0.0 308.0 234.0)  scale(1.9971793084442426 1.9996240023243492)"><svg width="308.435" height="234.044" viewBox="0.0 0.0 308.435 234.044"><path d="m286.435 43.479h-146.696l-26.995-33.931c-3.794-4.77-9.556-7.548-15.651-7.548h-75.093c-11.046 0-20 8.955-20 20v190.043c0 11.046 8.954 20 20 20h264.435c11.046 0 20-8.954 20-20v-148.564c0-11.046-8.954-20-20-20z" fill="#fece2f"/><path d="m286.435 234.043h-264.435c-12.131 0-22-9.869-22-22v-190.043c0-12.131 9.869-22 22-22h75.093c6.744 0 13.018 3.026 17.217 8.303l26.394 33.175h145.731c12.131 0 22 9.869 22 22v148.565c0 12.131-9.869 22-22 22zm-264.435-230.043c-9.925 0-18 8.075-18 18v190.043c0 9.925 8.075 18 18 18h264.435c9.925 0 18-8.075 18-18v-148.564c0-9.925-8.075-18-18-18h-146.696c-.609 0-1.186-.278-1.565-.755l-26.995-33.931c-3.435-4.317-8.569-6.793-14.086-6.793z" fill="#1a1a1a"/><path d="m306.434 93.999v118.04c0 11.05-8.95 20-20 20h-264.431c-9.83 0-18.01-7.09-19.68-16.44-.21-1.15-.32-2.34-.32-3.56v-118.04c0-11.04 8.95-20 20-20h264.431c11.05 0 20 8.96 20 20z" fill="#fece2f"/><path d="m261.943 73.999c-10.263 6.192-11.722 7.761-27.26 8.81-59.954 4.129-64.599-4.09-90.34-1.37-11.97 1.27-23.73 5.28-35.72 4.11-30.916-3.037 1.645-7.756-82.48 1.39-10.171 1.11-16.125 4.137-15.32 20.26 2.073 42.007 2.526 43.214 1.07 47.82-2.783 8.898-5.469 5.468-1.7 24.28 3.258 16.374-.733 24.965-7.87 36.3-.457-2.506-.32 7.751-.32-121.6 0-11.04 8.95-20 20-20z" fill="#fff"/><path d="m286.435 234.043h-264.435c-12.131 0-22-9.869-22-22v-118.043c0-12.131 9.869-22 22-22h264.435c12.131 0 22 9.869 22 22v118.043c0 12.131-9.869 22-22 22zm-264.435-158.043c-9.925 0-18 8.075-18 18v118.043c0 9.925 8.075 18 18 18h264.435c9.925 0 18-8.075 18-18v-118.043c0-9.925-8.075-18-18-18z" fill="#1a1a1a"/></svg></g><!--ITEM: Illustration component 10--><g transform="translate(1782.0 2022.0) rotate(0.0 110.0 171.0)  scale(2.0312442294198028 2.040304971901063)"><svg width="108.308" height="167.622" viewBox="0.0 0.0 108.308 167.622"><path d="m93.949 137.033-22.428-35.883 26.993-16.871 3.131-12.522-34.723-10.312-32.055-23.168-29.737-36.277-3.13 12.522 20.412 117.322 26.993-16.871 31.656 50.649 22.116-13.823 3.131-12.522z" fill="#1a1a1a"/><path d="m81.063 167.622c-.667 0-1.318-.333-1.698-.94l-30.596-48.953-25.298 15.811c-.564.353-1.268.401-1.875.13s-1.041-.828-1.155-1.483l-20.412-117.322c-.048-.275-.037-.557.03-.828l3.131-12.522c.184-.734.765-1.3 1.502-1.466.74-.167 1.506.099 1.985.684l29.571 36.076 31.569 22.817 34.396 10.214c1.026.305 1.631 1.364 1.371 2.403l-3.131 12.522c-.126.502-.441.936-.881 1.21l-25.297 15.811 20.899 33.438 11.489 2.086c.544.099 1.023.418 1.323.883s.394 1.033.26 1.57l-3.131 12.522c-.126.502-.441.936-.881 1.21l-22.116 13.823c-.329.206-.695.304-1.058.305zm-31.658-54.649c.15 0 .301.017.449.051.518.119.966.439 1.247.889l30.596 48.953 19.736-12.335 2.417-9.667-10.259-1.862c-.554-.101-1.04-.43-1.339-.908l-22.428-35.883c-.281-.45-.372-.993-.253-1.51.12-.517.439-.965.89-1.246l26.309-16.443 2.471-9.882-32.888-9.766c-.216-.064-.42-.165-.603-.296l-32.056-23.168c-.14-.101-.266-.22-.375-.353l-27.213-33.202-2.063 8.251 19.83 113.976 24.473-15.295c.32-.201.688-.304 1.06-.304z" fill="#1a1a1a"/><path d="m106.308 139.277-31.656-50.649 26.993-16.871-96.515-69.757 20.412 117.322 26.993-16.871 31.656 50.649z" fill="#fece2f"/><path d="m84.193 155.1c-.667 0-1.318-.333-1.698-.94l-30.596-48.953-25.297 15.811c-.565.353-1.268.4-1.875.13-.607-.271-1.041-.828-1.155-1.483l-20.412-117.322c-.139-.801.221-1.607.911-2.039.688-.431 1.572-.402 2.231.075l96.515 69.757c.539.39.85 1.023.827 1.688-.022.665-.374 1.276-.939 1.628l-25.297 15.812 30.596 48.953c.585.937.301 2.17-.637 2.756l-22.116 13.823c-.329.206-.695.305-1.058.305zm-31.658-54.649c.15 0 .301.017.449.051.518.119.966.439 1.247.889l30.596 48.953 18.725-11.703-30.596-48.953c-.585-.937-.301-2.17.637-2.756l24.472-15.296-90.121-65.135 19.06 109.549 24.472-15.295c.32-.201.688-.304 1.06-.304z" fill="#1a1a1a"/></svg></g><!--ITEM: Illustration component 11--><g transform="translate(812.0 1008.0) rotate(0.0 175.0 210.0)  scale(1.9908081543502003 1.9933365606401459)"><svg width="175.808" height="210.702" viewBox="0.0 0.0 175.808 210.702"><path d="m171.431 85.415c-1.406-5.91-7.335-9.569-13.247-8.156-5.91 1.405-9.562 7.336-8.157 13.246 5.178 21.771-1.165 44.203-16.966 60.004-18.789 18.789-46.467 23.391-69.621 13.823l9.475-1.708c5.979-1.077 9.952-6.798 8.875-12.776-1.078-5.979-6.796-9.951-12.777-8.874l-35.996 6.488c-.02.003-.038.01-.057.014-.758.14-1.503.36-2.224.661-.065.027-.127.061-.191.089-.284.125-.564.258-.839.408-.101.055-.197.117-.296.175-.227.133-.451.271-.67.421-.12.083-.235.171-.352.259-.185.139-.368.28-.546.432-.129.11-.253.225-.377.341-.09.084-.186.159-.274.247-.067.067-.123.14-.188.208-.118.124-.231.25-.343.38-.151.174-.295.351-.433.532-.091.119-.18.238-.266.361-.149.212-.287.429-.419.65-.042.069-.091.132-.131.202-.022.039-.038.08-.06.119-.139.251-.264.508-.382.767-.042.091-.088.181-.127.273-.127.3-.237.605-.336.914-.018.057-.042.112-.059.169-.113.373-.208.75-.281 1.13-.005.024-.006.049-.01.073-.063.345-.111.691-.141 1.04-.011.128-.012.258-.018.387-.013.247-.023.494-.02.741.002.147.013.294.021.442.013.233.03.465.057.697.017.146.04.291.063.437.038.239.084.477.138.714.03.132.061.263.096.395.069.258.15.512.238.766.026.074.042.15.07.225l14.685 39.412c1.649 4.427 5.847 7.162 10.309 7.162 1.275 0 2.574-.224 3.839-.695 5.692-2.121 8.588-8.455 6.467-14.148l-3.169-8.505c9.984 3.866 20.545 5.82 31.112 5.82 21.988 0 43.975-8.37 60.714-25.108 21.242-21.242 29.77-51.392 22.813-80.65z" fill="#fff"/><path d="m49.656 210.702c-5.4 0-10.297-3.401-12.183-8.464l-14.685-39.412c-.03-.08-.061-.175-.088-.271-.102-.295-.196-.595-.278-.898-.042-.157-.078-.312-.113-.466-.064-.281-.119-.563-.165-.848-.026-.168-.053-.339-.073-.512-.033-.279-.054-.552-.068-.828-.014-.218-.022-.371-.024-.524-.004-.287.007-.578.022-.87l.004-.107c.004-.12.009-.24.02-.359.035-.403.091-.813.166-1.22.007-.054.007-.057.018-.11.077-.407.186-.843.325-1.307.012-.04.058-.172.072-.211.114-.356.246-.717.396-1.073.037-.087.077-.173.118-.258.171-.373.319-.676.485-.974-.002-.005.034-.075.074-.145.042-.075.093-.153.146-.23.16-.266.322-.521.497-.77.107-.152.212-.292.318-.432.16-.211.331-.422.512-.629.125-.145.261-.296.4-.443.089-.102.157-.178.23-.251.079-.079.167-.157.255-.234.207-.19.354-.327.508-.457.211-.18.425-.347.642-.509.192-.144.305-.228.421-.308.256-.176.521-.339.788-.497.169-.103.258-.155.349-.205.33-.18.662-.339.998-.486.086-.042.153-.073.223-.102.831-.346 1.699-.606 2.583-.773.044-.01.091-.02.126-.026l35.985-6.486c7.042-1.271 13.828 3.434 15.1 10.487.616 3.417-.136 6.87-2.116 9.722-1.981 2.852-4.954 4.762-8.372 5.377l-1.936.349c21.363 5.953 44.368.096 60.313-15.847 15.307-15.306 21.45-37.036 16.435-58.127-.804-3.378-.243-6.867 1.578-9.824 1.82-2.957 4.684-5.027 8.062-5.831 3.373-.806 6.859-.249 9.815 1.569 2.961 1.821 5.035 4.688 5.839 8.071 7.12 29.938-1.606 60.79-23.344 82.527-16.569 16.569-38.633 25.694-62.128 25.694-9.465 0-18.774-1.506-27.732-4.481l1.664 4.467c2.503 6.717-.926 14.218-7.643 16.721-1.462.545-2.989.821-4.538.821zm-23.517-54.151c-.007.047-.016.1-.022.135-.045.244-.083.528-.108.813l-.014.319c-.01.199-.021.401-.017.603 0 .093.007.181.013.269.017.288.029.478.052.668.014.115.032.234.052.353.031.198.068.391.113.583.025.11.05.218.078.327.057.21.124.419.196.627.021.06.044.135.065.21l14.674 39.384c1.307 3.505 4.695 5.86 8.435 5.86 1.07 0 2.128-.191 3.142-.569 4.649-1.733 7.023-6.926 5.291-11.576l-3.169-8.505c-.275-.738-.092-1.568.469-2.122.562-.554 1.393-.726 2.128-.442 9.742 3.773 19.967 5.686 30.389 5.686 22.427 0 43.486-8.709 59.3-24.522 20.747-20.748 29.077-50.196 22.281-78.773-.558-2.343-1.993-4.328-4.044-5.588-2.046-1.259-4.459-1.645-6.792-1.085-2.341.557-4.323 1.99-5.584 4.037s-1.648 4.462-1.093 6.801c5.34 22.453-1.201 45.586-17.497 61.881-18.881 18.882-47.065 24.478-71.798 14.258-.82-.339-1.319-1.179-1.225-2.062.095-.883.76-1.598 1.634-1.755l9.475-1.708c2.366-.426 4.424-1.749 5.796-3.723 1.371-1.975 1.892-4.365 1.465-6.731-.88-4.882-5.569-8.141-10.454-7.26l-35.943 6.479c-.042.01-.086.019-.119.025-.604.112-1.217.293-1.8.537-.022.01-.135.064-.156.074-.234.103-.463.211-.688.333l-.236.142c-.187.11-.371.221-.55.345-.073.05-.14.101-.207.152-.002.001-.084.062-.086.063-.146.111-.298.228-.446.353-.103.088-.203.182-.305.277l-.168.151-1.522-1.311 1.449 1.38-.133.147c-.099.104-.191.208-.282.312-.129.149-.245.292-.356.438-.079.104-.152.203-.225.305-.116.167-.229.346-.339.527-.029.049-.064.103-.101.156-.017.034-.033.066-.051.098-.117.212-.219.421-.314.633l-.064.136c-.145.331-.233.58-.314.831-.009.029-.046.133-.057.162-.081.269-.157.565-.216.865z" fill="#1a1a1a"/><path d="m149.848 58.714c.149-.213.287-.43.42-.65.041-.069.09-.132.13-.202.022-.039.038-.08.06-.119.139-.252.265-.508.383-.768.042-.091.087-.18.126-.272.127-.3.237-.605.336-.914.018-.057.042-.112.059-.168.113-.373.208-.75.281-1.13.005-.024.006-.049.01-.073.063-.345.111-.691.141-1.04.011-.128.012-.258.018-.387.013-.247.023-.494.02-.741-.002-.147-.013-.294-.021-.442-.013-.233-.03-.465-.057-.697-.017-.146-.04-.291-.063-.437-.038-.239-.084-.477-.138-.714-.03-.132-.061-.263-.096-.395-.069-.258-.15-.513-.239-.767-.026-.074-.042-.15-.07-.224l-14.685-39.412c-2.121-5.691-8.456-8.591-14.148-6.467-5.692 2.121-8.588 8.455-6.467 14.148l3.169 8.505c-30.76-11.91-67.042-5.494-91.826 19.288-21.284 21.287-29.8 51.489-22.778 80.794 1.209 5.046 5.717 8.439 10.688 8.439.849 0 1.711-.1 2.572-.306 5.908-1.416 9.55-7.353 8.134-13.261-5.225-21.806 1.108-44.276 16.941-60.108 18.789-18.791 46.468-23.393 69.622-13.824l-9.477 1.708c-5.979 1.077-9.952 6.798-8.875 12.776.959 5.319 5.592 9.051 10.813 9.051.647 0 1.304-.058 1.964-.177l35.996-6.488c.02-.003.038-.01.058-.014.758-.14 1.504-.361 2.225-.661.062-.026.121-.058.183-.085.287-.125.57-.261.847-.412.099-.054.194-.115.292-.172.228-.134.454-.272.674-.424.119-.082.234-.17.35-.257.186-.139.37-.282.548-.435.128-.109.252-.224.375-.339.091-.084.187-.16.275-.249.067-.067.124-.141.189-.209.117-.123.23-.249.341-.377.151-.175.296-.353.434-.534.09-.119.179-.237.265-.36z" fill="#fff"/><path d="m15.101 135.869c-6.031 0-11.227-4.101-12.634-9.974-7.185-29.986 1.529-60.891 23.311-82.672 23.549-23.549 58.393-31.646 89.861-21.211l-1.665-4.469c-2.503-6.717.926-14.218 7.643-16.721 3.254-1.214 6.785-1.086 9.944.358 3.158 1.444 5.564 4.031 6.776 7.285l14.685 39.412c.034.091.062.181.087.271.102.292.197.593.279.898.042.157.078.312.113.466.064.281.119.563.165.848.027.172.054.348.074.525.031.26.052.537.067.815.014.218.022.371.024.524.004.287-.007.578-.022.87l-.004.107c-.004.12-.009.24-.02.359-.035.403-.091.813-.166 1.22-.007.054-.007.057-.018.11-.081.417-.192.866-.328 1.312-.016.056-.042.131-.069.206-.114.355-.245.717-.396 1.073-.037.089-.078.176-.12.263-.168.367-.316.669-.482.968 0 .006-.035.077-.075.146-.042.075-.093.153-.146.23-.16.265-.323.519-.497.769l-.003.004c-.101.143-.203.281-.308.419-.169.22-.339.43-.518.636-.131.151-.263.298-.398.441-.095.108-.159.18-.229.25-.083.083-.174.165-.266.245-.204.187-.351.323-.505.454-.205.176-.422.345-.642.51-.184.138-.298.223-.416.304-.26.179-.525.343-.794.5l-.088.052c-.084.051-.169.102-.255.149-.334.182-.669.343-1.01.492-.077.038-.141.067-.206.095-.839.35-1.709.61-2.593.776-.043.01-.089.02-.123.026l-35.985 6.486c-.766.138-1.546.208-2.318.208-6.289 0-11.664-4.498-12.782-10.696-.615-3.417.137-6.87 2.117-9.722 1.981-2.852 4.954-4.762 8.372-5.377l1.938-.35c-21.369-5.956-44.372-.098-60.315 15.847-15.337 15.336-21.472 37.104-16.41 58.229 1.67 6.97-2.642 14-9.613 15.671-1.001.24-2.022.361-3.038.361zm72.817-114.334c-21.868 0-43.317 8.524-59.312 24.517-20.789 20.789-29.106 50.289-22.248 78.912.974 4.065 4.569 6.905 8.743 6.905.702 0 1.411-.084 2.106-.251 4.826-1.156 7.812-6.023 6.654-10.849-5.388-22.488 1.144-45.662 17.473-61.989 18.881-18.884 47.066-24.48 71.8-14.258.82.339 1.319 1.178 1.225 2.061-.095.883-.76 1.598-1.634 1.755l-9.477 1.708c-2.366.426-4.424 1.749-5.796 3.723-1.371 1.975-1.892 4.365-1.465 6.731.773 4.291 4.493 7.405 8.845 7.405.534 0 1.075-.049 1.608-.145l35.947-6.479c.046-.011.096-.021.133-.027.588-.109 1.199-.291 1.784-.535.023-.011.128-.061.152-.072.232-.102.464-.211.689-.334l.24-.143c.183-.108.368-.221.55-.345.071-.049.141-.102.21-.154.225-.169.375-.285.521-.41.109-.093.209-.186.308-.279l.169-.15c.118-.122.167-.176.218-.23.088-.093.183-.198.275-.305.123-.143.242-.289.355-.438.069-.092.143-.189.214-.291.123-.176.237-.355.347-.538.029-.049.064-.103.101-.157.017-.033.033-.065.051-.097.116-.211.218-.42.314-.632l.063-.136c.145-.332.234-.581.314-.832.009-.027.044-.126.054-.153.086-.281.161-.577.22-.875.007-.047.016-.099.022-.133.045-.244.083-.528.108-.813l.014-.319c.01-.199.021-.401.017-.603 0-.093-.007-.181-.013-.269-.016-.285-.028-.473-.052-.66-.015-.131-.033-.246-.052-.361-.031-.198-.068-.391-.113-.583-.025-.11-.05-.218-.078-.327-.057-.208-.123-.416-.195-.623-.027-.079-.047-.145-.065-.21l-14.675-39.388c-.839-2.252-2.506-4.044-4.692-5.043-2.188-1.001-4.634-1.087-6.883-.248-4.65 1.733-7.024 6.926-5.292 11.576l3.169 8.505c.275.738.092 1.568-.469 2.122-.562.553-1.395.725-2.127.442-9.872-3.823-20.173-5.681-30.378-5.681z" fill="#1a1a1a"/></svg></g><!--ITEM: Illustration component 12--><g transform="translate(1980.0 846.0) rotate(0.0 139.0 167.0)  scale(1.5812704768838735 1.5851771696519255)"><svg width="175.808" height="210.702" viewBox="0.0 0.0 175.808 210.702"><path d="m171.431 85.415c-1.406-5.91-7.335-9.569-13.247-8.156-5.91 1.405-9.562 7.336-8.157 13.246 5.178 21.771-1.165 44.203-16.966 60.004-18.789 18.789-46.467 23.391-69.621 13.823l9.475-1.708c5.979-1.077 9.952-6.798 8.875-12.776-1.078-5.979-6.796-9.951-12.777-8.874l-35.996 6.488c-.02.003-.038.01-.057.014-.758.14-1.503.36-2.224.661-.065.027-.127.061-.191.089-.284.125-.564.258-.839.408-.101.055-.197.117-.296.175-.227.133-.451.271-.67.421-.12.083-.235.171-.352.259-.185.139-.368.28-.546.432-.129.11-.253.225-.377.341-.09.084-.186.159-.274.247-.067.067-.123.14-.188.208-.118.124-.231.25-.343.38-.151.174-.295.351-.433.532-.091.119-.18.238-.266.361-.149.212-.287.429-.419.65-.042.069-.091.132-.131.202-.022.039-.038.08-.06.119-.139.251-.264.508-.382.767-.042.091-.088.181-.127.273-.127.3-.237.605-.336.914-.018.057-.042.112-.059.169-.113.373-.208.75-.281 1.13-.005.024-.006.049-.01.073-.063.345-.111.691-.141 1.04-.011.128-.012.258-.018.387-.013.247-.023.494-.02.741.002.147.013.294.021.442.013.233.03.465.057.697.017.146.04.291.063.437.038.239.084.477.138.714.03.132.061.263.096.395.069.258.15.512.238.766.026.074.042.15.07.225l14.685 39.412c1.649 4.427 5.847 7.162 10.309 7.162 1.275 0 2.574-.224 3.839-.695 5.692-2.121 8.588-8.455 6.467-14.148l-3.169-8.505c9.984 3.866 20.545 5.82 31.112 5.82 21.988 0 43.975-8.37 60.714-25.108 21.242-21.242 29.77-51.392 22.813-80.65z" fill="#fff"/><path d="m49.656 210.702c-5.4 0-10.297-3.401-12.183-8.464l-14.685-39.412c-.03-.08-.061-.175-.088-.271-.102-.295-.196-.595-.278-.898-.042-.157-.078-.312-.113-.466-.064-.281-.119-.563-.165-.848-.026-.168-.053-.339-.073-.512-.033-.279-.054-.552-.068-.828-.014-.218-.022-.371-.024-.524-.004-.287.007-.578.022-.87l.004-.107c.004-.12.009-.24.02-.359.035-.403.091-.813.166-1.22.007-.054.007-.057.018-.11.077-.407.186-.843.325-1.307.012-.04.058-.172.072-.211.114-.356.246-.717.396-1.073.037-.087.077-.173.118-.258.171-.373.319-.676.485-.974-.002-.005.034-.075.074-.145.042-.075.093-.153.146-.23.16-.266.322-.521.497-.77.107-.152.212-.292.318-.432.16-.211.331-.422.512-.629.125-.145.261-.296.4-.443.089-.102.157-.178.23-.251.079-.079.167-.157.255-.234.207-.19.354-.327.508-.457.211-.18.425-.347.642-.509.192-.144.305-.228.421-.308.256-.176.521-.339.788-.497.169-.103.258-.155.349-.205.33-.18.662-.339.998-.486.086-.042.153-.073.223-.102.831-.346 1.699-.606 2.583-.773.044-.01.091-.02.126-.026l35.985-6.486c7.042-1.271 13.828 3.434 15.1 10.487.616 3.417-.136 6.87-2.116 9.722-1.981 2.852-4.954 4.762-8.372 5.377l-1.936.349c21.363 5.953 44.368.096 60.313-15.847 15.307-15.306 21.45-37.036 16.435-58.127-.804-3.378-.243-6.867 1.578-9.824 1.82-2.957 4.684-5.027 8.062-5.831 3.373-.806 6.859-.249 9.815 1.569 2.961 1.821 5.035 4.688 5.839 8.071 7.12 29.938-1.606 60.79-23.344 82.527-16.569 16.569-38.633 25.694-62.128 25.694-9.465 0-18.774-1.506-27.732-4.481l1.664 4.467c2.503 6.717-.926 14.218-7.643 16.721-1.462.545-2.989.821-4.538.821zm-23.517-54.151c-.007.047-.016.1-.022.135-.045.244-.083.528-.108.813l-.014.319c-.01.199-.021.401-.017.603 0 .093.007.181.013.269.017.288.029.478.052.668.014.115.032.234.052.353.031.198.068.391.113.583.025.11.05.218.078.327.057.21.124.419.196.627.021.06.044.135.065.21l14.674 39.384c1.307 3.505 4.695 5.86 8.435 5.86 1.07 0 2.128-.191 3.142-.569 4.649-1.733 7.023-6.926 5.291-11.576l-3.169-8.505c-.275-.738-.092-1.568.469-2.122.562-.554 1.393-.726 2.128-.442 9.742 3.773 19.967 5.686 30.389 5.686 22.427 0 43.486-8.709 59.3-24.522 20.747-20.748 29.077-50.196 22.281-78.773-.558-2.343-1.993-4.328-4.044-5.588-2.046-1.259-4.459-1.645-6.792-1.085-2.341.557-4.323 1.99-5.584 4.037s-1.648 4.462-1.093 6.801c5.34 22.453-1.201 45.586-17.497 61.881-18.881 18.882-47.065 24.478-71.798 14.258-.82-.339-1.319-1.179-1.225-2.062.095-.883.76-1.598 1.634-1.755l9.475-1.708c2.366-.426 4.424-1.749 5.796-3.723 1.371-1.975 1.892-4.365 1.465-6.731-.88-4.882-5.569-8.141-10.454-7.26l-35.943 6.479c-.042.01-.086.019-.119.025-.604.112-1.217.293-1.8.537-.022.01-.135.064-.156.074-.234.103-.463.211-.688.333l-.236.142c-.187.11-.371.221-.55.345-.073.05-.14.101-.207.152-.002.001-.084.062-.086.063-.146.111-.298.228-.446.353-.103.088-.203.182-.305.277l-.168.151-1.522-1.311 1.449 1.38-.133.147c-.099.104-.191.208-.282.312-.129.149-.245.292-.356.438-.079.104-.152.203-.225.305-.116.167-.229.346-.339.527-.029.049-.064.103-.101.156-.017.034-.033.066-.051.098-.117.212-.219.421-.314.633l-.064.136c-.145.331-.233.58-.314.831-.009.029-.046.133-.057.162-.081.269-.157.565-.216.865z" fill="#1a1a1a"/><path d="m149.848 58.714c.149-.213.287-.43.42-.65.041-.069.09-.132.13-.202.022-.039.038-.08.06-.119.139-.252.265-.508.383-.768.042-.091.087-.18.126-.272.127-.3.237-.605.336-.914.018-.057.042-.112.059-.168.113-.373.208-.75.281-1.13.005-.024.006-.049.01-.073.063-.345.111-.691.141-1.04.011-.128.012-.258.018-.387.013-.247.023-.494.02-.741-.002-.147-.013-.294-.021-.442-.013-.233-.03-.465-.057-.697-.017-.146-.04-.291-.063-.437-.038-.239-.084-.477-.138-.714-.03-.132-.061-.263-.096-.395-.069-.258-.15-.513-.239-.767-.026-.074-.042-.15-.07-.224l-14.685-39.412c-2.121-5.691-8.456-8.591-14.148-6.467-5.692 2.121-8.588 8.455-6.467 14.148l3.169 8.505c-30.76-11.91-67.042-5.494-91.826 19.288-21.284 21.287-29.8 51.489-22.778 80.794 1.209 5.046 5.717 8.439 10.688 8.439.849 0 1.711-.1 2.572-.306 5.908-1.416 9.55-7.353 8.134-13.261-5.225-21.806 1.108-44.276 16.941-60.108 18.789-18.791 46.468-23.393 69.622-13.824l-9.477 1.708c-5.979 1.077-9.952 6.798-8.875 12.776.959 5.319 5.592 9.051 10.813 9.051.647 0 1.304-.058 1.964-.177l35.996-6.488c.02-.003.038-.01.058-.014.758-.14 1.504-.361 2.225-.661.062-.026.121-.058.183-.085.287-.125.57-.261.847-.412.099-.054.194-.115.292-.172.228-.134.454-.272.674-.424.119-.082.234-.17.35-.257.186-.139.37-.282.548-.435.128-.109.252-.224.375-.339.091-.084.187-.16.275-.249.067-.067.124-.141.189-.209.117-.123.23-.249.341-.377.151-.175.296-.353.434-.534.09-.119.179-.237.265-.36z" fill="#fff"/><path d="m15.101 135.869c-6.031 0-11.227-4.101-12.634-9.974-7.185-29.986 1.529-60.891 23.311-82.672 23.549-23.549 58.393-31.646 89.861-21.211l-1.665-4.469c-2.503-6.717.926-14.218 7.643-16.721 3.254-1.214 6.785-1.086 9.944.358 3.158 1.444 5.564 4.031 6.776 7.285l14.685 39.412c.034.091.062.181.087.271.102.292.197.593.279.898.042.157.078.312.113.466.064.281.119.563.165.848.027.172.054.348.074.525.031.26.052.537.067.815.014.218.022.371.024.524.004.287-.007.578-.022.87l-.004.107c-.004.12-.009.24-.02.359-.035.403-.091.813-.166 1.22-.007.054-.007.057-.018.11-.081.417-.192.866-.328 1.312-.016.056-.042.131-.069.206-.114.355-.245.717-.396 1.073-.037.089-.078.176-.12.263-.168.367-.316.669-.482.968 0 .006-.035.077-.075.146-.042.075-.093.153-.146.23-.16.265-.323.519-.497.769l-.003.004c-.101.143-.203.281-.308.419-.169.22-.339.43-.518.636-.131.151-.263.298-.398.441-.095.108-.159.18-.229.25-.083.083-.174.165-.266.245-.204.187-.351.323-.505.454-.205.176-.422.345-.642.51-.184.138-.298.223-.416.304-.26.179-.525.343-.794.5l-.088.052c-.084.051-.169.102-.255.149-.334.182-.669.343-1.01.492-.077.038-.141.067-.206.095-.839.35-1.709.61-2.593.776-.043.01-.089.02-.123.026l-35.985 6.486c-.766.138-1.546.208-2.318.208-6.289 0-11.664-4.498-12.782-10.696-.615-3.417.137-6.87 2.117-9.722 1.981-2.852 4.954-4.762 8.372-5.377l1.938-.35c-21.369-5.956-44.372-.098-60.315 15.847-15.337 15.336-21.472 37.104-16.41 58.229 1.67 6.97-2.642 14-9.613 15.671-1.001.24-2.022.361-3.038.361zm72.817-114.334c-21.868 0-43.317 8.524-59.312 24.517-20.789 20.789-29.106 50.289-22.248 78.912.974 4.065 4.569 6.905 8.743 6.905.702 0 1.411-.084 2.106-.251 4.826-1.156 7.812-6.023 6.654-10.849-5.388-22.488 1.144-45.662 17.473-61.989 18.881-18.884 47.066-24.48 71.8-14.258.82.339 1.319 1.178 1.225 2.061-.095.883-.76 1.598-1.634 1.755l-9.477 1.708c-2.366.426-4.424 1.749-5.796 3.723-1.371 1.975-1.892 4.365-1.465 6.731.773 4.291 4.493 7.405 8.845 7.405.534 0 1.075-.049 1.608-.145l35.947-6.479c.046-.011.096-.021.133-.027.588-.109 1.199-.291 1.784-.535.023-.011.128-.061.152-.072.232-.102.464-.211.689-.334l.24-.143c.183-.108.368-.221.55-.345.071-.049.141-.102.21-.154.225-.169.375-.285.521-.41.109-.093.209-.186.308-.279l.169-.15c.118-.122.167-.176.218-.23.088-.093.183-.198.275-.305.123-.143.242-.289.355-.438.069-.092.143-.189.214-.291.123-.176.237-.355.347-.538.029-.049.064-.103.101-.157.017-.033.033-.065.051-.097.116-.211.218-.42.314-.632l.063-.136c.145-.332.234-.581.314-.832.009-.027.044-.126.054-.153.086-.281.161-.577.22-.875.007-.047.016-.099.022-.133.045-.244.083-.528.108-.813l.014-.319c.01-.199.021-.401.017-.603 0-.093-.007-.181-.013-.269-.016-.285-.028-.473-.052-.66-.015-.131-.033-.246-.052-.361-.031-.198-.068-.391-.113-.583-.025-.11-.05-.218-.078-.327-.057-.208-.123-.416-.195-.623-.027-.079-.047-.145-.065-.21l-14.675-39.388c-.839-2.252-2.506-4.044-4.692-5.043-2.188-1.001-4.634-1.087-6.883-.248-4.65 1.733-7.024 6.926-5.292 11.576l3.169 8.505c.275.738.092 1.568-.469 2.122-.562.553-1.395.725-2.127.442-9.872-3.823-20.173-5.681-30.378-5.681z" fill="#1a1a1a"/></svg></g><!--ITEM: Illustration component 13--><g transform="translate(1304.0 378.0) rotate(0.0 107.0 130.0)  scale(1.217236985802694 1.233970251824852)"><svg width="175.808" height="210.702" viewBox="0.0 0.0 175.808 210.702"><path d="m171.431 85.415c-1.406-5.91-7.335-9.569-13.247-8.156-5.91 1.405-9.562 7.336-8.157 13.246 5.178 21.771-1.165 44.203-16.966 60.004-18.789 18.789-46.467 23.391-69.621 13.823l9.475-1.708c5.979-1.077 9.952-6.798 8.875-12.776-1.078-5.979-6.796-9.951-12.777-8.874l-35.996 6.488c-.02.003-.038.01-.057.014-.758.14-1.503.36-2.224.661-.065.027-.127.061-.191.089-.284.125-.564.258-.839.408-.101.055-.197.117-.296.175-.227.133-.451.271-.67.421-.12.083-.235.171-.352.259-.185.139-.368.28-.546.432-.129.11-.253.225-.377.341-.09.084-.186.159-.274.247-.067.067-.123.14-.188.208-.118.124-.231.25-.343.38-.151.174-.295.351-.433.532-.091.119-.18.238-.266.361-.149.212-.287.429-.419.65-.042.069-.091.132-.131.202-.022.039-.038.08-.06.119-.139.251-.264.508-.382.767-.042.091-.088.181-.127.273-.127.3-.237.605-.336.914-.018.057-.042.112-.059.169-.113.373-.208.75-.281 1.13-.005.024-.006.049-.01.073-.063.345-.111.691-.141 1.04-.011.128-.012.258-.018.387-.013.247-.023.494-.02.741.002.147.013.294.021.442.013.233.03.465.057.697.017.146.04.291.063.437.038.239.084.477.138.714.03.132.061.263.096.395.069.258.15.512.238.766.026.074.042.15.07.225l14.685 39.412c1.649 4.427 5.847 7.162 10.309 7.162 1.275 0 2.574-.224 3.839-.695 5.692-2.121 8.588-8.455 6.467-14.148l-3.169-8.505c9.984 3.866 20.545 5.82 31.112 5.82 21.988 0 43.975-8.37 60.714-25.108 21.242-21.242 29.77-51.392 22.813-80.65z" fill="rgb(254,206,47)"/><path d="m49.656 210.702c-5.4 0-10.297-3.401-12.183-8.464l-14.685-39.412c-.03-.08-.061-.175-.088-.271-.102-.295-.196-.595-.278-.898-.042-.157-.078-.312-.113-.466-.064-.281-.119-.563-.165-.848-.026-.168-.053-.339-.073-.512-.033-.279-.054-.552-.068-.828-.014-.218-.022-.371-.024-.524-.004-.287.007-.578.022-.87l.004-.107c.004-.12.009-.24.02-.359.035-.403.091-.813.166-1.22.007-.054.007-.057.018-.11.077-.407.186-.843.325-1.307.012-.04.058-.172.072-.211.114-.356.246-.717.396-1.073.037-.087.077-.173.118-.258.171-.373.319-.676.485-.974-.002-.005.034-.075.074-.145.042-.075.093-.153.146-.23.16-.266.322-.521.497-.77.107-.152.212-.292.318-.432.16-.211.331-.422.512-.629.125-.145.261-.296.4-.443.089-.102.157-.178.23-.251.079-.079.167-.157.255-.234.207-.19.354-.327.508-.457.211-.18.425-.347.642-.509.192-.144.305-.228.421-.308.256-.176.521-.339.788-.497.169-.103.258-.155.349-.205.33-.18.662-.339.998-.486.086-.042.153-.073.223-.102.831-.346 1.699-.606 2.583-.773.044-.01.091-.02.126-.026l35.985-6.486c7.042-1.271 13.828 3.434 15.1 10.487.616 3.417-.136 6.87-2.116 9.722-1.981 2.852-4.954 4.762-8.372 5.377l-1.936.349c21.363 5.953 44.368.096 60.313-15.847 15.307-15.306 21.45-37.036 16.435-58.127-.804-3.378-.243-6.867 1.578-9.824 1.82-2.957 4.684-5.027 8.062-5.831 3.373-.806 6.859-.249 9.815 1.569 2.961 1.821 5.035 4.688 5.839 8.071 7.12 29.938-1.606 60.79-23.344 82.527-16.569 16.569-38.633 25.694-62.128 25.694-9.465 0-18.774-1.506-27.732-4.481l1.664 4.467c2.503 6.717-.926 14.218-7.643 16.721-1.462.545-2.989.821-4.538.821zm-23.517-54.151c-.007.047-.016.1-.022.135-.045.244-.083.528-.108.813l-.014.319c-.01.199-.021.401-.017.603 0 .093.007.181.013.269.017.288.029.478.052.668.014.115.032.234.052.353.031.198.068.391.113.583.025.11.05.218.078.327.057.21.124.419.196.627.021.06.044.135.065.21l14.674 39.384c1.307 3.505 4.695 5.86 8.435 5.86 1.07 0 2.128-.191 3.142-.569 4.649-1.733 7.023-6.926 5.291-11.576l-3.169-8.505c-.275-.738-.092-1.568.469-2.122.562-.554 1.393-.726 2.128-.442 9.742 3.773 19.967 5.686 30.389 5.686 22.427 0 43.486-8.709 59.3-24.522 20.747-20.748 29.077-50.196 22.281-78.773-.558-2.343-1.993-4.328-4.044-5.588-2.046-1.259-4.459-1.645-6.792-1.085-2.341.557-4.323 1.99-5.584 4.037s-1.648 4.462-1.093 6.801c5.34 22.453-1.201 45.586-17.497 61.881-18.881 18.882-47.065 24.478-71.798 14.258-.82-.339-1.319-1.179-1.225-2.062.095-.883.76-1.598 1.634-1.755l9.475-1.708c2.366-.426 4.424-1.749 5.796-3.723 1.371-1.975 1.892-4.365 1.465-6.731-.88-4.882-5.569-8.141-10.454-7.26l-35.943 6.479c-.042.01-.086.019-.119.025-.604.112-1.217.293-1.8.537-.022.01-.135.064-.156.074-.234.103-.463.211-.688.333l-.236.142c-.187.11-.371.221-.55.345-.073.05-.14.101-.207.152-.002.001-.084.062-.086.063-.146.111-.298.228-.446.353-.103.088-.203.182-.305.277l-.168.151-1.522-1.311 1.449 1.38-.133.147c-.099.104-.191.208-.282.312-.129.149-.245.292-.356.438-.079.104-.152.203-.225.305-.116.167-.229.346-.339.527-.029.049-.064.103-.101.156-.017.034-.033.066-.051.098-.117.212-.219.421-.314.633l-.064.136c-.145.331-.233.58-.314.831-.009.029-.046.133-.057.162-.081.269-.157.565-.216.865z" fill="#1a1a1a"/><path d="m149.848 58.714c.149-.213.287-.43.42-.65.041-.069.09-.132.13-.202.022-.039.038-.08.06-.119.139-.252.265-.508.383-.768.042-.091.087-.18.126-.272.127-.3.237-.605.336-.914.018-.057.042-.112.059-.168.113-.373.208-.75.281-1.13.005-.024.006-.049.01-.073.063-.345.111-.691.141-1.04.011-.128.012-.258.018-.387.013-.247.023-.494.02-.741-.002-.147-.013-.294-.021-.442-.013-.233-.03-.465-.057-.697-.017-.146-.04-.291-.063-.437-.038-.239-.084-.477-.138-.714-.03-.132-.061-.263-.096-.395-.069-.258-.15-.513-.239-.767-.026-.074-.042-.15-.07-.224l-14.685-39.412c-2.121-5.691-8.456-8.591-14.148-6.467-5.692 2.121-8.588 8.455-6.467 14.148l3.169 8.505c-30.76-11.91-67.042-5.494-91.826 19.288-21.284 21.287-29.8 51.489-22.778 80.794 1.209 5.046 5.717 8.439 10.688 8.439.849 0 1.711-.1 2.572-.306 5.908-1.416 9.55-7.353 8.134-13.261-5.225-21.806 1.108-44.276 16.941-60.108 18.789-18.791 46.468-23.393 69.622-13.824l-9.477 1.708c-5.979 1.077-9.952 6.798-8.875 12.776.959 5.319 5.592 9.051 10.813 9.051.647 0 1.304-.058 1.964-.177l35.996-6.488c.02-.003.038-.01.058-.014.758-.14 1.504-.361 2.225-.661.062-.026.121-.058.183-.085.287-.125.57-.261.847-.412.099-.054.194-.115.292-.172.228-.134.454-.272.674-.424.119-.082.234-.17.35-.257.186-.139.37-.282.548-.435.128-.109.252-.224.375-.339.091-.084.187-.16.275-.249.067-.067.124-.141.189-.209.117-.123.23-.249.341-.377.151-.175.296-.353.434-.534.09-.119.179-.237.265-.36z" fill="rgb(254,206,47)"/><path d="m15.101 135.869c-6.031 0-11.227-4.101-12.634-9.974-7.185-29.986 1.529-60.891 23.311-82.672 23.549-23.549 58.393-31.646 89.861-21.211l-1.665-4.469c-2.503-6.717.926-14.218 7.643-16.721 3.254-1.214 6.785-1.086 9.944.358 3.158 1.444 5.564 4.031 6.776 7.285l14.685 39.412c.034.091.062.181.087.271.102.292.197.593.279.898.042.157.078.312.113.466.064.281.119.563.165.848.027.172.054.348.074.525.031.26.052.537.067.815.014.218.022.371.024.524.004.287-.007.578-.022.87l-.004.107c-.004.12-.009.24-.02.359-.035.403-.091.813-.166 1.22-.007.054-.007.057-.018.11-.081.417-.192.866-.328 1.312-.016.056-.042.131-.069.206-.114.355-.245.717-.396 1.073-.037.089-.078.176-.12.263-.168.367-.316.669-.482.968 0 .006-.035.077-.075.146-.042.075-.093.153-.146.23-.16.265-.323.519-.497.769l-.003.004c-.101.143-.203.281-.308.419-.169.22-.339.43-.518.636-.131.151-.263.298-.398.441-.095.108-.159.18-.229.25-.083.083-.174.165-.266.245-.204.187-.351.323-.505.454-.205.176-.422.345-.642.51-.184.138-.298.223-.416.304-.26.179-.525.343-.794.5l-.088.052c-.084.051-.169.102-.255.149-.334.182-.669.343-1.01.492-.077.038-.141.067-.206.095-.839.35-1.709.61-2.593.776-.043.01-.089.02-.123.026l-35.985 6.486c-.766.138-1.546.208-2.318.208-6.289 0-11.664-4.498-12.782-10.696-.615-3.417.137-6.87 2.117-9.722 1.981-2.852 4.954-4.762 8.372-5.377l1.938-.35c-21.369-5.956-44.372-.098-60.315 15.847-15.337 15.336-21.472 37.104-16.41 58.229 1.67 6.97-2.642 14-9.613 15.671-1.001.24-2.022.361-3.038.361zm72.817-114.334c-21.868 0-43.317 8.524-59.312 24.517-20.789 20.789-29.106 50.289-22.248 78.912.974 4.065 4.569 6.905 8.743 6.905.702 0 1.411-.084 2.106-.251 4.826-1.156 7.812-6.023 6.654-10.849-5.388-22.488 1.144-45.662 17.473-61.989 18.881-18.884 47.066-24.48 71.8-14.258.82.339 1.319 1.178 1.225 2.061-.095.883-.76 1.598-1.634 1.755l-9.477 1.708c-2.366.426-4.424 1.749-5.796 3.723-1.371 1.975-1.892 4.365-1.465 6.731.773 4.291 4.493 7.405 8.845 7.405.534 0 1.075-.049 1.608-.145l35.947-6.479c.046-.011.096-.021.133-.027.588-.109 1.199-.291 1.784-.535.023-.011.128-.061.152-.072.232-.102.464-.211.689-.334l.24-.143c.183-.108.368-.221.55-.345.071-.049.141-.102.21-.154.225-.169.375-.285.521-.41.109-.093.209-.186.308-.279l.169-.15c.118-.122.167-.176.218-.23.088-.093.183-.198.275-.305.123-.143.242-.289.355-.438.069-.092.143-.189.214-.291.123-.176.237-.355.347-.538.029-.049.064-.103.101-.157.017-.033.033-.065.051-.097.116-.211.218-.42.314-.632l.063-.136c.145-.332.234-.581.314-.832.009-.027.044-.126.054-.153.086-.281.161-.577.22-.875.007-.047.016-.099.022-.133.045-.244.083-.528.108-.813l.014-.319c.01-.199.021-.401.017-.603 0-.093-.007-.181-.013-.269-.016-.285-.028-.473-.052-.66-.015-.131-.033-.246-.052-.361-.031-.198-.068-.391-.113-.583-.025-.11-.05-.218-.078-.327-.057-.208-.123-.416-.195-.623-.027-.079-.047-.145-.065-.21l-14.675-39.388c-.839-2.252-2.506-4.044-4.692-5.043-2.188-1.001-4.634-1.087-6.883-.248-4.65 1.733-7.024 6.926-5.292 11.576l3.169 8.505c.275.738.092 1.568-.469 2.122-.562.553-1.395.725-2.127.442-9.872-3.823-20.173-5.681-30.378-5.681z" fill="#1a1a1a"/></svg></g></svg>