<svg xmlns="http://www.w3.org/2000/svg" viewBox="0 0 1500 1500" width="1500" height="1500"><g transform="translate(110.0 1170.0) rotate(0.0 666.5 110.5) scale(1.872191011235955 1.8728813559322033)"><svg width="712" height="118" viewBox="0 0 712 118"><g><ellipse cx="356" cy="59" rx="356" ry="59" style="fill:#fece2f"/></g></svg></g><g transform="translate(169.0 164.0) rotate(0.0 609.0 537.5) scale(1.873846153846154 1.872822299651568)"><svg width="650" height="574" viewBox="0 0 650 574"><clipPath id="a"><path d="M0 0h649.1v573.6H0z"/></clipPath><g clip-path="url(#a)" fill="#fece2f"><path d="M319.6 76.6c-8.2-12.8 108.3-18 202.3 39.9s205.3 216.6 49.6 378.2S26.3 539.8 3.8 410.5s62.4-217.3 62.4-217.3S99.9 345.1 234 310.1c138.5-38 104.3-204.2 85.6-233.5zM213.4 27.5c-5.2 9.9-15.4 16.3-26.1 17.8-11.1 1.6-16.3-9.4-16.3-20.6S176.7 0 187.9 0c11.1 0 30.9 17.1 25.5 27.5zM72.6 93.7c-8.6.1-16.7-4.3-21.7-11-5.2-6.9.3-14.5 7.9-18.7 7.6-4.1 16.6-.2 20.7 7.3 4.1 7.6 2.1 22.3-6.9 22.4zm573.6 71.7c-2.7 8.2-9.5 14.4-17.5 16.9-8.2 2.6-13.6-5-15.1-13.5s5.2-15.8 13.7-17.2 21.7 5.2 18.9 13.8z"/><path d="M633.7 216.2c-3.4-3.4-4.8-8.4-4-13 .8-4.8 6-5.5 10.6-4.1s6.6 6.6 5.1 11.2-8.2 9.5-11.7 5.9z"/></g></svg></g><g transform="translate(206.0 1007.0) rotate(0.0 577.0 137.5) scale(1.8733766233766234 1.8581081081081081)"><svg width="616" height="148" viewBox="0 0 616 148"><clipPath id="b"><path d="M0 0h615.915v147.4H0z"/></clipPath><g clip-path="url(#b)"><path d="m1.615 1.1 42.4.5 1 24.3 527 .3.6-25.3 42 .5-.3 144.8-42.7.2-.3-6.3-526.3-.2-.9 6.2-43-.4z" fill="#fece2f"/><path d="M6.915 1.602h-5.3v144.8h5.3zM614.815.9h-42.2v6.8h42.2zm-298.2 64h-5.3v37.3h5.3zm101.5-38h-5.3v37.3h5.3zm-181 0h-5.3v37.3h5.3zm-3.5 76.5h-5.3v37.3h5.3zm132 0h-5.3v37.3h5.3zm147 0h-5.3v37.3h5.3z" fill="#fff"/><path d="M577.615 1.9h-5.3v144.8h5.3zm-147 23.801h-242.5l4 6.5h235.5zm118.4 0-3 6.5h25.1v-6.5zm-354.4 37 5 6.4h371.5v-6.4zm376.5 39.5h-526.2v5.9h526.2zm-559.3-94.7h-8.1v-6.9s17.9-1 13.8 1.7a32.168 32.168 0 0 0-5.7 5.2z" fill="#fff"/><g fill="#1a1a1a"><path d="M243.115 49.201a3.5 3.5 0 1 0 0-7 3.5 3.5 0 0 0 0 7zm-26.2 0a3.5 3.5 0 1 0 0-7 3.5 3.5 0 0 0 0 7zm107.7 38.5a3.5 3.5 0 1 0 0-7 3.5 3.5 0 0 0 0 7zm-26.2 0a3.5 3.5 0 1 0 0-7 3.5 3.5 0 0 0 0 7zm126.7-38.5a3.5 3.5 0 1 0 0-7 3.5 3.5 0 0 0 0 7zm-26.2 0a3.5 3.5 0 1 0 0-7 3.5 3.5 0 0 0 0 7zm-27.3 75.699a3.5 3.5 0 1 0 0-7 3.5 3.5 0 0 0 0 7zm-26.2 0a3.5 3.5 0 1 0 0-7 3.5 3.5 0 0 0 0 7zm-105.3 0a3.5 3.5 0 1 0 0-7 3.5 3.5 0 0 0 0 7zm-26.2 0a3.5 3.5 0 1 0 0-7 3.5 3.5 0 0 0 0 7zm-158.4 0a3.5 3.5 0 1 0 0-7 3.5 3.5 0 0 0 0 7zm465.1 0a3.5 3.5 0 1 0 0-7 3.5 3.5 0 0 0 0 7zm40.8-75.699a3.5 3.5 0 1 0 0-7 3.5 3.5 0 0 0 0 7zm0 37.5a3.5 3.5 0 1 0 0-7 3.5 3.5 0 0 0 0 7zm0 38.199a3.5 3.5 0 1 0 0-7 3.5 3.5 0 0 0 0 7z"/><path d="M615.915 51.7V1.2a1.162 1.162 0 0 0-.337-.862 1.162 1.162 0 0 0-.863-.337h-43a1.16 1.16 0 0 0-1.122.733 1.162 1.162 0 0 0-.078.467V25h-253.5c-.1-.1-.2-.2-.3-.2a1.061 1.061 0 0 0-1.2.2h-49.4c-.1 0-.2-.1-.4-.1a1.073 1.073 0 0 0-1.1.1h-219.1V1.2a1.157 1.157 0 0 0-1.2-1.2h-43a1.155 1.155 0 0 0-1.2 1.2v125.2a1.166 1.166 0 0 0 0 1v18.8a1.16 1.16 0 0 0 .337.863 1.162 1.162 0 0 0 .863.337h43a1.161 1.161 0 0 0 1.122-.733 1.16 1.16 0 0 0 .078-.467v-4.8h524.9v4.8a1.166 1.166 0 0 0 .337.863 1.17 1.17 0 0 0 .863.337h43a1.15 1.15 0 0 0 .863-.337 1.166 1.166 0 0 0 .337-.863V51.8c.1 0 .1 0 .1-.1zm-19.5-49.2a28.776 28.776 0 0 0-2.2 2.7 41.952 41.952 0 0 0-3.1 5 43.774 43.774 0 0 0-3.9 11 45.788 45.788 0 0 0-.8 11.7c.2 3.9.7 7.6 1.1 11.3.462 3.65.729 7.323.8 11a48.915 48.915 0 0 1-.2 5.4 43.39 43.39 0 0 1-.9 5.2 15.71 15.71 0 0 1-5.2 8.5 19.406 19.406 0 0 1-9.2 3.8V2.6h23.6zm-87.9 136.501v-35.6h5.8c.1.1.3.1.4.2h.1a9.21 9.21 0 0 1 1.3.4 5.68 5.68 0 0 1 1.3.8 7.398 7.398 0 0 1 2 2.3c.3.417.505.895.6 1.4l.2.7c.09.349.224.685.4 1a16.936 16.936 0 0 0 2.3 3.6 15.283 15.283 0 0 0 7 4.1c1.27.378 2.578.613 3.9.7a13.546 13.546 0 0 0 4-.3 30.53 30.53 0 0 0 7.4-2.4 18.584 18.584 0 0 0 3.3-2.1c1-.8 1.9-1.6 2.8-2.4a63.96 63.96 0 0 0 5.1-5.3 11.286 11.286 0 0 1 2.4-2.1 8.797 8.797 0 0 1 3-.7h8.1v27a22.524 22.524 0 0 1-5.7 1.9 30.768 30.768 0 0 1-6.8.3 64.27 64.27 0 0 1-13.6-2.7l-6.9-1.8a20.912 20.912 0 0 0-7.6-.9 7.55 7.55 0 0 0-3.9 1.9 14.817 14.817 0 0 0-2.5 3.1 24.446 24.446 0 0 0-2.8 6.7h-11.6zm-113.6 0a5.083 5.083 0 0 1 2.3-3.3 9.989 9.989 0 0 1 4.7-1.4 49.14 49.14 0 0 1 5.4.1c1.9.1 3.7.2 5.6.3 3.7.2 7.5.2 11.3.1s7.6-.1 11.4-.5a37.481 37.481 0 0 0 5.7-.9 32.393 32.393 0 0 0 5.5-1.9 31.326 31.326 0 0 1 5.1-1.9 30.998 30.998 0 0 1 5.3-1 33.17 33.17 0 0 1 5.4-.3 6.299 6.299 0 0 1 4.4 1.4 5.63 5.63 0 0 1 1.4 4.3 23.711 23.711 0 0 1-1.1 5zm73.7-10.9a8.505 8.505 0 0 0-2.9-1.7 16.67 16.67 0 0 0-3.1-.5 36.99 36.99 0 0 0-5.8.3 37.841 37.841 0 0 0-5.7 1 44.328 44.328 0 0 0-5.5 1.9 23.51 23.51 0 0 1-5.1 1.7 30.696 30.696 0 0 1-5.4.7c-3.694.266-7.399.333-11.1.2-3.7-.2-7.4-.4-11.2-.5-1.9-.1-3.8 0-5.6 0-1.9.1-3.8.1-5.8.3a12.05 12.05 0 0 0-5.9 2.1 9.972 9.972 0 0 0-2.2 2.4 7.529 7.529 0 0 0-.9 2.9h-32.1v-35.6h15.1c.1 0 .3.1.4.1a7.914 7.914 0 0 1 5.8 2.3c.355.333.629.744.8 1.2.211.484.378.986.5 1.5.2 1.024.2 2.076 0 3.1-.122.481-.29.95-.5 1.4-.2.5-.6 1-1 1.8a5.725 5.725 0 0 0-.381 2.433c.052.829.285 1.637.681 2.367a8.473 8.473 0 0 0 1.4 1.9c.55.528 1.153.997 1.8 1.4a13.06 13.06 0 0 0 4 1.5c2.507.491 5.048.792 7.6.9a48.37 48.37 0 0 0 7.6-.3c2.5-.3 5-.7 7.5-1.2s4.9-1.3 7.3-2a33.801 33.801 0 0 1 7-1.6c2.396-.2 4.804-.2 7.2 0 4.8.4 9.7 1.4 14.8 1.7a23.2 23.2 0 0 0 7.8-.7 17.484 17.484 0 0 0 6.8-4.1 20.055 20.055 0 0 0 5.6-13.5h37.8v35.6h-36.5a18.478 18.478 0 0 0 1.1-4.9 7.085 7.085 0 0 0-1.9-6.1zm-170.1 10.9a13.752 13.752 0 0 0-3.1-4.7 16.268 16.268 0 0 0-4.9-3.3 26.353 26.353 0 0 0-11.4-2.2c-3.784.163-7.556.531-11.3 1.1-1.8.2-3.7.4-5.5.5h-2.7a8.757 8.757 0 0 1-2.4-.3 1.909 1.909 0 0 1-1.3-.9 1.245 1.245 0 0 1 .1-1.3 4.276 4.276 0 0 1 1.5-1.5 8.88 8.88 0 0 1 1-.6l1.2-.5a24.373 24.373 0 0 0 2.8-1.4 6.386 6.386 0 0 0 2.4-2.9 5.23 5.23 0 0 0-.1-3.9 7.875 7.875 0 0 0-2-2.9c-1.8-1.6-3.9-2.1-5.7-2.7a23.625 23.625 0 0 1-4.9-1.8 17.742 17.742 0 0 1-4.1-3.1 13.504 13.504 0 0 1-1.6-1.9 1.804 1.804 0 0 1-.4-.9h42.1a8.809 8.809 0 0 1 4.8 7.1 8.113 8.113 0 0 1-.1 2.2c-.2.7-.4 1.3-.7 2.1-.3.7-.8 1.5-1.2 2.4a6.96 6.96 0 0 0-.6 3.3 6.067 6.067 0 0 0 1.3 3.2 9.972 9.972 0 0 0 2.4 2.2 12.531 12.531 0 0 0 5.8 1.5c1.9.1 3.6 0 5.3 0h5.2l10.4-.1c3.385-.086 6.77.182 10.1.8a19.85 19.85 0 0 1 8.8 4.1 17.417 17.417 0 0 1 3.1 3.6 11.996 11.996 0 0 1 1.3 3.1h-45.6zm-108.2 0a6.144 6.144 0 0 1 1.5-5.5c1.4-1.5 3.5-2.3 5.6-3.7a9.346 9.346 0 0 0 2.8-2.8 6.64 6.64 0 0 0 1.1-4.2 4.892 4.892 0 0 0-2.8-3.7 7 7 0 0 0-4.2-.6 18.026 18.026 0 0 0-3.7 1c-1.1.4-2.2.7-3.3 1-2.173.512-4.378.88-6.6 1.1-1.1.1-2.2.3-3.3.4a9.77 9.77 0 0 1-1.7.1h-1.6c-2.1-.1-4.2-.8-4.9-2.3a1.114 1.114 0 0 0-1.4-.6 1.082 1.082 0 0 0-.7 1.4 6.471 6.471 0 0 0 2.9 3.2 10.36 10.36 0 0 0 3.8 1.1c.6.1 1.3.1 1.9.2l1.8.1c1.2 0 2.4 0 3.6-.1a34.753 34.753 0 0 0 7.1-1.6c1.1-.4 2.3-.8 3.4-1.2a13.385 13.385 0 0 1 3.1-.9 3.799 3.799 0 0 1 2.6.3 2.108 2.108 0 0 1 1.3 1.6 3.743 3.743 0 0 1-.6 2.4 7.946 7.946 0 0 1-2 2.1c-1.7 1.3-4 2.2-5.9 4.2a8.376 8.376 0 0 0-2 7.1h-39.2v-.1a11.78 11.78 0 0 0-1.9-3.9 17.037 17.037 0 0 0-3-3 24.124 24.124 0 0 0-7.5-3.4 43.127 43.127 0 0 0-7.9-1.2c-2.6-.2-5.3-.2-7.9-.2-10.5.2-20.8 1.9-31.1 2.3-1.3.1-2.6.1-3.9.1s-2.5 0-3.7-.1c-2.4-.2-4.6-1-5.8-2.7a4.545 4.545 0 0 1-.9-2.6 3.476 3.476 0 0 1 1.2-2.2 12.192 12.192 0 0 1 2.8-1.7c1.1-.5 2.3-.9 3.6-1.5a15.415 15.415 0 0 0 3.8-2.3 6.87 6.87 0 0 0 1.6-2.1 5.934 5.934 0 0 0 0-5.2 10.129 10.129 0 0 0-1.4-2 14.971 14.971 0 0 0-3.6-2.6 30.76 30.76 0 0 0-3.8-1.6h147.1v35.6zm42.2-111.5h33.6a43.752 43.752 0 0 0 5.7 1.5c1.056.258 2.092.592 3.1 1a8.515 8.515 0 0 1 2.5 1.7 6.076 6.076 0 0 1 1.5 2.4 3.603 3.603 0 0 1-.1 2.3c-.6 1.4-2.5 2.4-4.6 3.4l-.8.4c-.32.128-.622.296-.9.5a16.17 16.17 0 0 0-1.7 1.1 9.273 9.273 0 0 0-2.7 3.4 5.664 5.664 0 0 0 .4 4.9 7.072 7.072 0 0 0 3.5 2.8 13.13 13.13 0 0 0 3.8.9c1.3.2 2.4.2 3.6.3 2.4.2 4.7.3 7.1.3 9.457.201 18.917-.3 28.3-1.5a53.387 53.387 0 0 1 6.9-.5 17.774 17.774 0 0 1 6.5 1.1 11.938 11.938 0 0 1 5 3.8 7.702 7.702 0 0 1 1.6 5.6h-102.3zm178.6 0v35.6h-11.3c0-.1 0-.2-.1-.2a11.459 11.459 0 0 0-6.3-5.4 24.227 24.227 0 0 0-7.9-1.3c-2.6-.1-5.1 0-7.5-.3a4.816 4.816 0 0 1-2.7-1.1 1.286 1.286 0 0 1-.4-1c-.031-.39.075-.78.3-1.1a12.406 12.406 0 0 1 2.2-2.7 13.713 13.713 0 0 0 2.5-3.5c.6-1.51.6-3.19 0-4.7a9.51 9.51 0 0 0-2.7-3.6 12.385 12.385 0 0 0-8.2-2.1 62.214 62.214 0 0 0-7.7 1c-5.1.8-10.1 1.8-15.1 2.5-2.5.4-5 .7-7.5.9-2.5.3-5 .4-7.5.5s-5 .1-7.4 0c-2.4-.2-4.7-.6-6.3-1.9a6.55 6.55 0 0 1-2-5.8 24.788 24.788 0 0 1 1.5-5.8zm159 42a30.117 30.117 0 0 0-9-.2 20.657 20.657 0 0 0-4.9 1.2c-1.6.5-3.1 1.1-4.5 1.6a13.793 13.793 0 0 1-4.3.9 5.72 5.72 0 0 1-3.4-1 5.402 5.402 0 0 1-1.9-3 13.467 13.467 0 0 1-.2-3.5h28.2zm-30.8-.1a9.61 9.61 0 0 0 .7 2.8 7.251 7.251 0 0 0 1.8 2.5 6.358 6.358 0 0 0 2.9 1.3 9.516 9.516 0 0 0 2.9.1 21.208 21.208 0 0 0 5.1-1.3c1.6-.6 3-1.2 4.5-1.8a24.015 24.015 0 0 1 4.4-1.2c2.845-.5 5.755-.5 8.6 0V101h-34.3a2.17 2.17 0 0 0-.3-.5c-1.6-1.3-1.6-4-.9-6.3s2.2-4.7 2.9-7.5a9.831 9.831 0 0 0-.1-4.5 9.447 9.447 0 0 0-2.2-3.9 16.899 16.899 0 0 0-7.3-4.5c-5.5-1.6-11.2-1.1-16.5.1s-10.4 3-15.5 4.3a73.879 73.879 0 0 1-15.5 2.6c-5.2.4-10.4-.2-15.9.1a30.715 30.715 0 0 0-8.3 1.4c-1.391.42-2.732.99-4 1.7a17.708 17.708 0 0 0-3.5 2.6 17.48 17.48 0 0 0-4.6 7.3 12.931 12.931 0 0 0-.5 4.4c.126.957.361 1.896.7 2.8h-58.1c.1-1.131.1-2.269 0-3.4a7.228 7.228 0 0 0-1.3-3.8 6.45 6.45 0 0 0-3.3-2.4 16.095 16.095 0 0 0-3.7-.7c-4.6-.3-9.2-.5-13.9-.5h-6.9a28.817 28.817 0 0 0-7.1.6c-1.261.29-2.474.762-3.6 1.4a12.263 12.263 0 0 0-3.1 2.4 11.533 11.533 0 0 0-2.1 3.3 6.964 6.964 0 0 0-.5 3.2h-28.3V65.6h30.2a23.027 23.027 0 0 0-1.4 1.9 20.611 20.611 0 0 0-2.1 4.2 7.234 7.234 0 0 0 .2 5.2c.184.364.46.674.8.9.224.15.458.283.7.4a9.21 9.21 0 0 0 1.3.4c.759.173 1.527.307 2.3.4 2.959.265 5.932.332 8.9.2 2.9-.1 5.9-.2 8.8-.4 5.8-.4 11.6-1 17.4-1.5l8.7-.6a59.928 59.928 0 0 1 8.5.1c.7.1 1.3.2 1.9.3.241.082.475.182.7.3.026 0 .052.01.071.03a.103.103 0 0 1 .029.07l.1.1a6.279 6.279 0 0 1 .4 3.5c0 .7-.1 1.5-.1 2.3a7.087 7.087 0 0 0 .5 2.7 4.506 4.506 0 0 0 2.1 2.2 8.6 8.6 0 0 0 2.5.7 37.79 37.79 0 0 0 9-.7 82.924 82.924 0 0 0 8.6-2.1c2.8-.8 5.6-1.7 8.4-2.7 1.4-.5 2.8-1 4.1-1.6a22.36 22.36 0 0 0 4-2.2 15.173 15.173 0 0 0 3.5-3.2 8.453 8.453 0 0 0 1.8-4.6 7.526 7.526 0 0 0-1.4-4.8 17.52 17.52 0 0 0-1.2-1.4h97.6a21.573 21.573 0 0 0-.1 3.7zm-92.4 31.6a8.378 8.378 0 0 1-.8-3 8.528 8.528 0 0 1 .5-3.5 14.347 14.347 0 0 1 4.1-6 12.086 12.086 0 0 1 3-2c1.128-.504 2.3-.906 3.5-1.2a37.509 37.509 0 0 1 7.5-.9c2.6-.1 5.2-.1 7.9-.1a73.225 73.225 0 0 0 8.1-.4 86.827 86.827 0 0 0 16-3c5.2-1.5 10.2-3.3 15.3-4.5s10.3-1.6 15.2-.3a13.081 13.081 0 0 1 6.2 3.7 7.53 7.53 0 0 1 1.7 3 7.773 7.773 0 0 1 .1 3.4c-.5 2.4-1.9 4.6-2.8 7.4a12.956 12.956 0 0 0-.5 4.4 6.47 6.47 0 0 0 1.1 3.1h-86.1zm-61.2 6.8a7.006 7.006 0 0 0-.8-2 7.49 7.49 0 0 0-1.3-1.8 4.359 4.359 0 0 0-.7-.6h83a18.177 18.177 0 0 1-5.1 11.9 13.328 13.328 0 0 1-5.8 3.5 19.965 19.965 0 0 1-6.9.5c-4.8-.3-9.7-1.4-14.7-1.9a39.545 39.545 0 0 0-7.7-.1 36.968 36.968 0 0 0-7.5 1.6c-2.4.7-4.7 1.4-7.1 1.9a44.374 44.374 0 0 1-7.2.9 61.852 61.852 0 0 1-14.3-.9c-2.2-.4-4.2-1.2-5-2.8a2.824 2.824 0 0 1-.4-2.3c.188-.52.422-1.022.7-1.5a8.687 8.687 0 0 0 .7-2.1 6.365 6.365 0 0 0 .1-4.3zm-42.6-6.8a6.812 6.812 0 0 1 2.3-4.5c1.5-1.4 3.4-1.9 5.4-2.4a60.81 60.81 0 0 1 6.5-.8c2.3-.2 4.5-.3 6.8-.3 4.5-.1 9.1-.1 13.6.2 2.2.1 4.3.6 5.3 2s1 3.6.9 5.8zm212.7 2.5a9.441 9.441 0 0 0-1 1c-1.7 1.8-3.3 3.4-5.1 5-.9.7-1.8 1.5-2.7 2.2-.91.63-1.882 1.166-2.9 1.6a14.567 14.567 0 0 1-6.5 1.3c-1.1 0-2.2-.1-3.3-.2s-2.1-.3-3.2-.5a13.512 13.512 0 0 1-5.5-2.7 8.34 8.34 0 0 1-1.9-2.3l-.3-.7-.4-.9a8.707 8.707 0 0 0-1.1-1.8 11.252 11.252 0 0 0-1.8-2zm-117.5-38a9.44 9.44 0 0 1 2.9 2.7 5.239 5.239 0 0 1 1 3.4c-.1 2.4-2 4.6-4.3 6a36.123 36.123 0 0 1-7.7 3.5c-2.7 1-5.5 1.8-8.2 2.6a84.583 84.583 0 0 1-8.4 1.9c-2.732.54-5.519.742-8.3.6a6.213 6.213 0 0 1-1.6-.4 1.418 1.418 0 0 1-.8-.9 10.77 10.77 0 0 1-.1-3.7 9.083 9.083 0 0 0-.7-5l-.2-.3c-.1-.1-.2-.3-.4-.5a4.178 4.178 0 0 0-.8-.6 4.283 4.283 0 0 0-1.3-.5 20.07 20.07 0 0 0-2.4-.4 88.797 88.797 0 0 0-8.9-.2c-2.9.1-5.8.2-8.8.4-5.8.3-11.6.7-17.4 1.1l-8.6.7a61.028 61.028 0 0 1-8.5.2 12.302 12.302 0 0 1-2-.2c-.3-.1-.6-.1-.8-.2a.349.349 0 0 1-.2-.1 4.936 4.936 0 0 1-.1-3.2 19.68 19.68 0 0 1 4-6.8h92.6zm-125.2-28.2a8.01 8.01 0 0 0 2.4 3.9 12.158 12.158 0 0 0 3.8 2.2c1.3.431 2.64.733 4 .9 2.588.3 5.196.4 7.8.3a98.135 98.135 0 0 0 15.4-1.8c5.1-.9 10.1-1.9 15-2.8 2.5-.4 5-.9 7.4-1.1a13.477 13.477 0 0 1 3.5.2c.547.12 1.082.288 1.6.5a5.68 5.68 0 0 1 1.3.8c1.7 1.3 2.7 3.5 2 5.2a9.406 9.406 0 0 1-2 2.7 15.004 15.004 0 0 0-2.5 3.3 4.36 4.36 0 0 0-.5 2.6c.093.899.48 1.742 1.1 2.4a6.798 6.798 0 0 0 4.2 1.8c2.594.214 5.198.28 7.8.2 2.416-.1 4.828.275 7.1 1.1a9.323 9.323 0 0 1 4.7 3.5h-60.4a10.296 10.296 0 0 0-2-7 13.895 13.895 0 0 0-6-4.7 18.794 18.794 0 0 0-7.3-1.3 57.934 57.934 0 0 0-7.2.4 186.021 186.021 0 0 1-27.9 1.1c-2.3-.1-4.7-.2-7-.4-2.4-.2-4.6-.3-6.4-1.2-1.9-.8-2.5-2.2-1.9-3.5.387-.8.972-1.49 1.7-2a5.676 5.676 0 0 1 1.3-.8l.7-.4.8-.4a18.618 18.618 0 0 0 3.3-1.9 7.102 7.102 0 0 0 2.7-3.4 6.618 6.618 0 0 0 0-4.6 8.417 8.417 0 0 0-2.4-3.4 10.792 10.792 0 0 0-3.4-2.1c-.1 0-.2-.1-.3-.1h38.7a20.394 20.394 0 0 0-1.5 5.5 12.8 12.8 0 0 0 .4 4.3zm-3 28.2v35.6h-50.2c-.5-2.5.8-5.3 2.9-7.2s4.8-3.2 7.6-4.7a13.093 13.093 0 0 0 4-3.1 5.04 5.04 0 0 0 1.1-2.8 4.28 4.28 0 0 0-.8-2.9 8.202 8.202 0 0 0-4.5-3 22.136 22.136 0 0 0-2.5-.5 19.445 19.445 0 0 0-2.4-.2c-6.5-.2-12.7 1.5-18.6 3.4-3 .9-5.9 1.9-8.8 2.8s-5.9 1.6-8.9 2.3a159.47 159.47 0 0 1-18.1 3.2c-3 .3-6.1.6-9.1.8-1.432.1-2.868.1-4.3 0a11.185 11.185 0 0 1-3.8-1 3.782 3.782 0 0 1-1.7-5.5 7.238 7.238 0 0 1 2.7-2.8 14.818 14.818 0 0 1 3.8-1.8c1.4-.5 2.9-1 4.4-1.6a15.432 15.432 0 0 0 4.4-2.6 9.787 9.787 0 0 0 2.8-4.4 6.545 6.545 0 0 0 .2-2.8 3.56 3.56 0 0 0-.2-1h100zm-102.5 0c.469.967.541 2.08.2 3.1a7.108 7.108 0 0 1-2.2 3.2 13.93 13.93 0 0 1-3.6 2c-1.4.5-2.8.9-4.3 1.4a18.36 18.36 0 0 0-4.6 2 12.19 12.19 0 0 0-3.8 3.7 6.298 6.298 0 0 0-1 2.7 6.097 6.097 0 0 0 .1 3c.304.975.778 1.89 1.4 2.7a7.6 7.6 0 0 0 2.3 1.8 12.215 12.215 0 0 0 5.1 1.4c1.627.2 3.273.2 4.9 0 3.1-.3 6.2-.7 9.3-1.1a184.667 184.667 0 0 0 18.3-3.5c3-.7 6-1.6 9-2.5s5.9-1.9 8.8-2.9c5.8-1.9 11.7-3.6 17.7-3.4.7 0 1.5.1 2.2.1.708.085 1.41.219 2.1.4a5.988 5.988 0 0 1 3.2 1.9 2.416 2.416 0 0 1-.2 2.9 9.162 9.162 0 0 1-3.2 2.5 35.317 35.317 0 0 0-8.1 5.1 11.792 11.792 0 0 0-2.9 4.1 9.712 9.712 0 0 0-.7 4.8h-129.3a15.41 15.41 0 0 0-6.5-5.9 23.575 23.575 0 0 0-8.5-2.4c-5.9-.6-11.6.4-17.1.4a25.504 25.504 0 0 1-4-.2c-1.2-.2-1.9-.8-2-1.5a3.207 3.207 0 0 1 1.1-2.7c.174-.195.376-.364.6-.5.242-.117.476-.25.7-.4a4.777 4.777 0 0 1 1.8-.4c1.3-.2 2.6-.2 4.1-.3a12.879 12.879 0 0 0 4.6-1.1 10.104 10.104 0 0 0 2.1-1.5 5.999 5.999 0 0 0 1.3-2.5 5.715 5.715 0 0 0-.1-2.9 5.928 5.928 0 0 0-1.4-2.3 10.05 10.05 0 0 0-4-2.8 9.762 9.762 0 0 0-2.3-.6c-.76-.15-1.528-.25-2.3-.3a23.636 23.636 0 0 0-4.6.2 31.45 31.45 0 0 0-4.4 1.1 31.248 31.248 0 0 0-14.2 10.6c-1.8 2.4-3.1 4.7-5 6-1.8 1.3-4.7 1.5-7.5 1.9a94.046 94.046 0 0 1-15 .5v-28h161.9zm-161.7 30.2c5.092.4 10.208.4 15.3 0a33.395 33.395 0 0 0 4.3-.5 11.836 11.836 0 0 0 4.6-1.5 13.512 13.512 0 0 0 3.5-3.2c1-1.2 1.8-2.4 2.6-3.4 3.2-4.3 7.477-7.68 12.4-9.8a17.165 17.165 0 0 1 7.7-1.3c.638.012 1.274.079 1.9.2a9.468 9.468 0 0 1 1.8.5 7.332 7.332 0 0 1 2.9 1.9c1.6 1.7 1.1 3.8-1 4.8a9.52 9.52 0 0 1-3.6.9c-1.3.1-2.8.1-4.3.3a8.648 8.648 0 0 0-2.3.6l-1.2.6c-.375.21-.713.48-1 .8a8.555 8.555 0 0 0-1.5 2.2 5.187 5.187 0 0 0-.3 2.8 3.933 3.933 0 0 0 1.6 2.5 5.279 5.279 0 0 0 2.5 1c.762.112 1.53.179 2.3.2h2.2c5.8-.1 11.4-1.1 16.8-.6a22.1 22.1 0 0 1 7.7 2.2 12.2 12.2 0 0 1 4.8 3.9h-79.8v-5.1zm183.1 7.8h14.6a.75.75 0 0 0 .1.5c.109.579.349 1.126.7 1.6a16.627 16.627 0 0 0 1.8 2.4 18.682 18.682 0 0 0 4.6 3.8c.868.526 1.77.994 2.7 1.4.9.4 1.9.7 2.7 1a13.294 13.294 0 0 1 4.3 2.2c.487.44.864.988 1.1 1.6.177.48.212 1.001.1 1.5-.2.9-1.6 1.8-3.2 2.6l-1.3.6c-.5.3-1 .6-1.4.9a8.286 8.286 0 0 0-2.3 2.6 6.027 6.027 0 0 0-.6 1.9 3.847 3.847 0 0 0 .5 2.1c.33.612.812 1.128 1.4 1.5a6.561 6.561 0 0 0 1.7.8c1.011.268 2.054.402 3.1.4.968.017 1.936-.017 2.9-.1a55.032 55.032 0 0 0 5.7-.6c3.643-.592 7.315-.993 11-1.2a22.948 22.948 0 0 1 10.4 1.9 13.164 13.164 0 0 1 6.6 5.9h-67.1v-35.3zm115.6 31.2a21.099 21.099 0 0 0-3.6-4.3 23.067 23.067 0 0 0-9.8-4.8 54.465 54.465 0 0 0-10.6-1.1l-10.4-.1h-5.2a42.78 42.78 0 0 1-5.1-.2 9.055 9.055 0 0 1-4.2-1.3 4.133 4.133 0 0 1-2-2.9c-.1-1 .5-2.4 1.2-4.1.372-.935.64-1.907.8-2.9.117-.999.083-2.011-.1-3a11.93 11.93 0 0 0-3.6-6.8h65.9v35.6h-11.7a13.94 13.94 0 0 0-1.6-4.1zm225.5-71.7h-156.6V27.4h147.9a5.82 5.82 0 0 1-1.7 1.8c-1.17.81-2.45 1.45-3.8 1.9a26.21 26.21 0 0 0-4.3 1.8 10.047 10.047 0 0 0-3.9 3.2c-2 2.8-2.7 5.9-4 8.4a12.13 12.13 0 0 1-5.8 5.6 25.109 25.109 0 0 1-8.2 2.4c-2.9.4-5.8.3-8.9.5-3.104.18-6.184.648-9.2 1.4a22.245 22.245 0 0 0-8.7 4 1.027 1.027 0 0 0-.437.705 1.024 1.024 0 0 0 .237.795 1.2 1.2 0 0 0 1.6.3 18.566 18.566 0 0 1 7.9-3 63.972 63.972 0 0 1 8.8-.6 58.451 58.451 0 0 0 9.2-.9 30.415 30.415 0 0 0 9.1-3 15.367 15.367 0 0 0 6.8-7c1.4-2.9 2-5.9 3.6-8.1 1.5-2.2 4.2-3.2 7.1-4.3a22.534 22.534 0 0 0 4.3-2.3 8.6 8.6 0 0 0 2.9-3.6h6.1zm-524.2-35.5h152.3a27.356 27.356 0 0 1-27 13.3c-5.4-.7-10.5-3.9-16.3-5.5l-2.2-.5a14.202 14.202 0 0 0-2.2-.5l-2.2-.4-2.2-.2-1.1-.1h-1.1l-2.2-.1c-1.5.1-3 0-4.5.2a52.21 52.21 0 0 0-8.8 1.5 49.39 49.39 0 0 0-8.4 3c-.695.273-1.365.607-2 1-.7.3-1.3.7-2 1-1.3.8-2.6 1.5-3.8 2.4-.623.4-1.224.834-1.8 1.3l-1.7 1.4c-1.2 1-2.2 2-3.3 2.9a25.117 25.117 0 0 1-3.2 2.5 13.93 13.93 0 0 1-3.5 1.6c-1.31.372-2.648.64-4 .8-1.4.2-2.8.4-4.2.5a63.832 63.832 0 0 1-16.9-1 1.147 1.147 0 0 0-1.3.8 1.226 1.226 0 0 0 .8 1.4 64.958 64.958 0 0 0 17.6 1.7c1.5-.1 3-.2 4.4-.3 1.52-.086 3.026-.32 4.5-.7a18.923 18.923 0 0 0 4.5-1.7 21.154 21.154 0 0 0 3.7-2.8 65.392 65.392 0 0 1 6.5-5.5 26.375 26.375 0 0 1 3.5-2.3 16.138 16.138 0 0 1 1.8-1c.6-.3 1.2-.7 1.9-1l1.9-.9c.6-.3 1.3-.5 2-.8 1.3-.5 2.7-.9 4-1.3a46.619 46.619 0 0 1 8.3-1.5c1.4-.2 2.8-.1 4.2-.2l2.1.1h1.1l1 .1 2.1.2 2.1.3c.708.085 1.41.218 2.1.4l2.1.5c1.3.4 2.7.8 4 1.3s2.7 1 4 1.6c1.4.5 2.7 1.1 4.2 1.5 1.428.486 2.902.82 4.4 1a28.778 28.778 0 0 0 17.5-3.3 28.278 28.278 0 0 0 12.4-12.5h29.4v25.9a1.27 1.27 0 0 0-.6.1 14.21 14.21 0 0 1-6.8 1.6 24.707 24.707 0 0 1-7.1-1.3c-4.6-1.6-8.9-4.4-13.7-6.4a33.593 33.593 0 0 0-7.6-2.4 26.794 26.794 0 0 0-8-.6 29.67 29.67 0 0 0-7.8 1.9 31.627 31.627 0 0 0-7.1 3.6 1.099 1.099 0 0 0-.3 1.5 1.127 1.127 0 0 0 1.5.4 27.991 27.991 0 0 1 6.7-2.8 34.813 34.813 0 0 1 7.2-1.1 43.324 43.324 0 0 1 7.2.2c2.417.326 4.775 1 7 2 4.6 1.9 9 4.6 14 6.2a26.153 26.153 0 0 0 7.9 1.3c2.567.033 5.105-.55 7.4-1.7v7.3h-184.4zm-43.4 99.9a32.456 32.456 0 0 1 6.3-3.5 43.43 43.43 0 0 1 7.8-2.3 42.82 42.82 0 0 1 8-1.1c1.37-.033 2.74.034 4.1.2 1.224.088 2.432.323 3.6.7.364.197.647.515.8.9a2.2 2.2 0 0 1 .2 1.4 4.44 4.44 0 0 1-1.4 2.8 9.158 9.158 0 0 1-3.2 1.8c-1.3.5-2.6.9-4 1.4a13.74 13.74 0 0 0-4 2.4 6.907 6.907 0 0 0-2.2 4.4 12.17 12.17 0 0 0 .6 4.7c.5 1.3 1.1 2.6 1.7 3.8h-18.2v-17.6zm20.4 17.6a.784.784 0 0 0-.1-.8 29.58 29.58 0 0 1-1.6-3.7 9.469 9.469 0 0 1-.5-3.7 4.476 4.476 0 0 1 1.6-3 10.585 10.585 0 0 1 3.3-1.9c2.4-.9 5.5-1.4 8.1-3.6a7.15 7.15 0 0 0 2.4-4.6 5.478 5.478 0 0 0-.4-2.8 4.299 4.299 0 0 0-2-2.2 8.925 8.925 0 0 0-2.4-.9 19.172 19.172 0 0 0-2.2-.3 16.382 16.382 0 0 0-2.2-.2l-2.2-.1a32.835 32.835 0 0 0-8.8.8 38.803 38.803 0 0 0-8.2 3.2 33.617 33.617 0 0 0-5.1 3.2v-122h40.6v91.5a.6.6 0 0 0-.1.4 1.26 1.26 0 0 0 .1.6v50h-20.3zm23-41.5h23.2c1.997.279 3.97.714 5.9 1.3l3.6 1.2c1.2.5 2.4 1 3.4 1.5 2.1 1.1 3.8 2.9 3.7 4.6a2.466 2.466 0 0 1-1.2 2.1 15.74 15.74 0 0 1-2.9 1.6c-1.1.5-2.4.9-3.6 1.5a13.333 13.333 0 0 0-3.8 2.4 6.422 6.422 0 0 0-2.1 4.6 7.2 7.2 0 0 0 1.7 4.6 8.518 8.518 0 0 0 1.7 1.6c.61.463 1.283.833 2 1.1a12.67 12.67 0 0 0 4.2.9c1.4.1 2.7.1 4.1.1 1.3 0 2.6-.1 3.9-.2 10.5-.6 20.8-2.4 31.1-2.7a65.942 65.942 0 0 1 7.7.1c2.528.074 5.041.409 7.5 1 2.397.584 4.668 1.6 6.7 3 .95.668 1.793 1.478 2.5 2.4a13.035 13.035 0 0 1 1.4 2.6h-100.7zm476.7 35.5a19.487 19.487 0 0 1 2.8-5.1 7.486 7.486 0 0 1 4.6-3.1c1.031-.1 2.069-.1 3.1 0 1.1.1 2.2.2 3.4.4 2.3.4 4.5 1 6.8 1.5a73.951 73.951 0 0 0 14.2 2.4 29.936 29.936 0 0 0 7.3-.5 18.659 18.659 0 0 0 5.2-1.7v6h-47.4zm50.3-58.6a22.271 22.271 0 0 0 11.2-3.7 18.436 18.436 0 0 0 6.9-10 39.319 39.319 0 0 0 1.6-11.7c0-3.9-.3-7.7-.6-11.4-.4-3.7-.8-7.5-1-11.1a48.109 48.109 0 0 1 .6-10.7 46.72 46.72 0 0 1 3-10.3l.5-1.2.6-1.2c.4-.8.8-1.6 1.3-2.4a47.777 47.777 0 0 1 2.9-4.4h13.6v47.9c-1.257-.2-2.527-.3-3.8-.3-1.859.063-3.69.47-5.4 1.2a11.55 11.55 0 0 0-4.3 3.6c-.27.377-.505.779-.7 1.2a5.192 5.192 0 0 0-.6 1.3l-.5 1.3-.2.7-.1.7a32.305 32.305 0 0 0-.7 5.2c-.1 1.7-.1 3.4-.1 5.1 0 3.4.1 6.7.2 10s.3 6.6.3 9.9a75.435 75.435 0 0 1-.4 9.6 9.963 9.963 0 0 1-1.2 3.9 1.477 1.477 0 0 1-.7.7c-.1 0-.1.1-.2 0h-.1a5.166 5.166 0 0 1-.7-1.1c-.2-.6-.4-1.3-.6-2.1-.3-1.5-.6-3.1-.8-4.7s-.5-3.3-.8-5a19.856 19.856 0 0 0-1.6-5.3 5.477 5.477 0 0 0-2.5-2.5 5 5 0 0 0-3.6-.1 9.147 9.147 0 0 0-1.4.7 6.415 6.415 0 0 0-1.3 1l-.6.6-.4.6a8.232 8.232 0 0 0-.7 1.3c-1.6 3.5-1.6 7.1-1.5 10.5.163 3.386.53 6.758 1.1 10.1a146.855 146.855 0 0 0 5 19.5 132.701 132.701 0 0 0 6.9 17.1h-18.6zm21.3 64.6a115.777 115.777 0 0 1-7.3-17.9 127.709 127.709 0 0 1-4.6-19.2 79.69 79.69 0 0 1-1-9.7c0-3.2.2-6.5 1.4-9.1.2-.3.3-.6.5-.9l.3-.4.3-.3a3.778 3.778 0 0 1 1.5-.9 1.567 1.567 0 0 1 1.2 0c.3.1.6.5.9 1.1.519 1.384.855 2.83 1 4.3.2 1.6.3 3.2.5 4.9s.3 3.4.6 5.1c.186.911.42 1.813.7 2.7a7.128 7.128 0 0 0 2 3c.32.222.654.422 1 .6.387.147.79.247 1.2.3.365.05.735.05 1.1 0a2.954 2.954 0 0 0 1-.2 5.401 5.401 0 0 0 3-2.5 8.967 8.967 0 0 0 1.2-2.9c.263-.88.431-1.785.5-2.7a50.95 50.95 0 0 0 .2-10.3c-.1-3.4-.4-6.7-.6-10s-.5-6.6-.6-9.9c0-1.6-.1-3.3 0-4.9 0-.8.1-1.6.1-2.4.051-.772.151-1.54.3-2.3l.1-.6.2-.5.3-1.1c.105-.36.274-.7.5-1 .145-.312.312-.612.5-.9a9.228 9.228 0 0 1 3.1-2.8 13.194 13.194 0 0 1 7.9-.9v92.1h-19z"/><path d="M1.283 95.753c4.8-1.514 9.541-3.227 13.526-5.821.51-.3.96-.675 1.44-1.008.433-.378.9-.722 1.3-1.126a12.236 12.236 0 0 0 2.11-2.515 10.09 10.09 0 0 0 1.2-2.877 11.08 11.08 0 0 0 .208-1.555l.043-.8-.053-.816a18.465 18.465 0 0 0-1.957-6.67l-.392-.826-.463-.8-.947-1.607-1.014-1.648c-.355-.537-.6-1.14-.926-1.693a43.79 43.79 0 0 1-3.088-7.041 45.487 45.487 0 0 1-1.892-7.51 36.4 36.4 0 0 1-.385-7.828c.172-2.65.667-5.27 1.475-7.8a25.226 25.226 0 0 1 3.61-7.322 14.01 14.01 0 0 1 3.063-3.135 8.6 8.6 0 0 1 4.574-1.748 7.363 7.363 0 0 1 4.872 1.472 11.534 11.534 0 0 1 2.99 3.363l.543.914.454.816c.3.529.578 1.072.883 1.592l.93 1.542c.324.5.671.966 1.006 1.455.351.459.73.884 1.092 1.326.365.394.763.754 1.192 1.077a3 3 0 0 0 2.546.72 5.462 5.462 0 0 0 2.577-1.875 22.725 22.725 0 0 0 2.077-3.07l.371.149a17.415 17.415 0 0 1-1.35 3.655 6.75 6.75 0 0 1-2.964 3.068 4.757 4.757 0 0 1-3.583.093 4.795 4.795 0 0 1-1.045-.465 11.474 11.474 0 0 1-1.81-1.206 24.957 24.957 0 0 1-1.5-1.421c-.44-.5-.9-1-1.326-1.52l-1.205-1.578c-.378-.538-.725-1.088-1.089-1.633-.176-.262-.369-.57-.532-.8l-.483-.674a8.631 8.631 0 0 0-2.123-2.134 3.33 3.33 0 0 0-2.227-.6c-1.5.085-3.254 1.449-4.617 3.167a22.9 22.9 0 0 0-3.356 6.026 36.912 36.912 0 0 0-1.855 6.922 40.615 40.615 0 0 0-.62 7.263 27.656 27.656 0 0 0 3.917 14.1 28.578 28.578 0 0 0 2.146 3.015l1.2 1.5.61.762.564.8a18.515 18.515 0 0 1 3.36 7.374l.167 1.06c.02.362.02.728.026 1.092.005.738-.062 1.475-.2 2.2a11.725 11.725 0 0 1-1.709 4.056 16.677 16.677 0 0 1-6.266 5.4 29.512 29.512 0 0 1-7.392 2.673c-2.51.584-5.079.877-7.656.873z"/></g></g></svg></g><g transform="translate(215.0 1009.0) rotate(0.0 174.0 125.0) scale(1.8729817007534983 1.8712574850299402)"><svg width="185.8" height="133.6" viewBox="0 0 185.8 133.6"><g><path d="M185.6 90.6c-1.2-21.2-8.9-41.5-10.3-62.7-.1-1-.1-2.1-.2-3.1H39.7L38.7.5l-20-.5c.2 3-10.2 2.9-9.9 22 .1 11.7 1.8 23.1-1.8 34.2-3.6 11.1-8.1 22.4-6.8 34C1.4 101.8 11 114 22.5 112.5c26.3-3.5 41.7-35.1 45.5-41 7-11.1 17.8-33 21-29.7 1.6 1.6 2.4 5.7 3 7.3.4 1.2 3.2 8.8 4.5 11.3 4 7.8 10.5 14 16.7 20.2 6.1 6.3 12.2 13.2 14.5 21.6 1.4 5.1 1.4 10.6 3.2 15.6 3.9 10.8 16.4 17.2 27.7 15.5s20.9-10.6 24.8-21.4c2.1-6.9 2.6-14.2 2.2-21.3z" style="fill:#1a1a1a"/></g></svg></g><g transform="translate(446.0 371.0) rotate(0.0 153.5 180.5) scale(1.8719512195121952 1.8704663212435233)"><svg width="164" height="193" viewBox="0 0 164 193"><clipPath id="c"><path d="M0 0h163.919v192.54H0z"/></clipPath><g clip-path="url(#c)"><path d="M131.242 46.016c1.254-2.522-1.417-6.4-5.967-8.663-4.549-2.263-9.254-2.053-10.508.47-1.254 2.521 1.417 6.4 5.966 8.663 4.55 2.262 9.255 2.052 10.509-.47z" fill="#fff"/><path d="M125.856 36.34c-5.3-2.6-10.6-2.2-12.2 1s1.3 7.7 6.5 10.3a15.76 15.76 0 0 0 6.6 1.7c2.6 0 4.7-.9 5.6-2.7 1.6-3.2-1.2-7.7-6.5-10.3zm-10 2.1c.4-.9 1.7-1.4 3.4-1.4a14.375 14.375 0 0 1 8.7 3.6c-2.9-.4-5.2.2-6.1 1.9a3.547 3.547 0 0 0 .2 3.3c-.2-.1-.5-.2-.7-.3-4.3-2.2-6.3-5.5-5.5-7.1z" fill="#1a1a1a"/><path d="M118.056 19.74s1.5 15.2 1.2 22.2.8 10 4.2 11.2 5 5.2 1.2 7.8a9.299 9.299 0 0 1-7.8 1.2s-5 36-10.5 56-18.8 55.5-39.8 66.5-49.5 8-60.5-12.8-3-44.5 5.8-55.8c8.8-11.2 21.3-25.2 21.3-25.2l34-33 7.5-16.5 7-24 13.2-8.5z" fill="#fece2f"/><path d="M123.556 53.24c-3.5-1.2-4.5-4.2-4.2-11.2s-1.2-22.2-1.2-22.2l-2.1-1s-6.1-1.9-5.6-1c6.1 10.9 2.1 25.2 3.7 32 1.5 6.9 12.5 6.1 12.5 6.1.5-.7.3-1.5-3.1-2.7zm-10.2 7.7c-.2.5-10 45.6-22.6 72-29.3 61.3-75.5 45.8-89.2 23.8a2.802 2.802 0 0 1-.1.6 44.21 44.21 0 0 0 4.8 14.5c11 20.8 39.5 23.8 60.5 12.8s34.2-46.5 39.8-66.5c5.3-19.4 10.2-54 10.5-55.9-1.8-.2-2-.5-3.7-1.3z" fill="#fff"/><path d="M128.456 56.44c-.2-1.1-1.1-3-4.3-3.9-4.5-1.2-3.9-8.3-3.9-8.4 1-25.2-4.7-39.8-16.9-43.2-.1 0-11.2-3.1-19.7 8.1-2.9 3.9-4.3 9.9-5.9 16.8-2.8 12.1-6.4 27.1-19.3 39.4-2.5 2.4-5.4 5-8.4 7.7-21.6 19.7-54.3 49.4-49.6 84 2 14.7 10.3 25.9 23.4 31.7a48.36 48.36 0 0 0 19.1 3.9 45.564 45.564 0 0 0 26.1-7.8c32.6-22.7 41.9-76.4 47.4-108.5l.4-2.3c.6-3.3 1-6.3 1.4-9.5l.1-.9c.563.08 1.132.114 1.7.1a9.957 9.957 0 0 0 6.2-2 5.125 5.125 0 0 0 2.2-5.2zm-3.7 3.4c-1.8 1.5-5.4 2.3-9.9.2a1.208 1.208 0 1 0-1 2.2c.683.31 1.384.577 2.1.8l-.1 1.1c-.4 3.1-.8 6.1-1.4 9.4l-.4 2.3c-5.5 31.7-14.6 84.7-46.4 106.9-11.8 8.2-29 9.7-42.8 3.6-12.3-5.4-20.1-16-21.9-29.8-4.4-33.3 27.6-62.5 48.9-81.8 3-2.8 5.9-5.4 8.4-7.8 13.4-12.8 17.1-28.2 20-40.6 1.6-6.7 2.9-12.5 5.5-15.9 7.4-9.8 16.6-7.3 17-7.2 11 3.1 16.1 16.8 15.2 40.8-.1.7-.7 9.2 5.7 10.9 1.5.4 2.4 1.1 2.6 2a3.947 3.947 0 0 1-1.5 2.9z" fill="#1a1a1a"/><path d="M108.495 45.49c1.081-2.6-1.845-6.29-6.537-8.242-4.691-1.951-9.371-1.424-10.453 1.176s1.845 6.29 6.537 8.242c4.691 1.951 9.371 1.425 10.453-1.176z" fill="#fff"/><g fill="#1a1a1a"><path d="M108.456 40.34a16.262 16.262 0 0 0-6-4.3 14.602 14.602 0 0 0-7.2-1.2c-2.4.3-4.2 1.4-4.9 3.1s-.2 3.7 1.3 5.6a16.259 16.259 0 0 0 6 4.3 16.641 16.641 0 0 0 6 1.3 4.88 4.88 0 0 0 1.2-.1c2.4-.3 4.2-1.4 4.9-3.1.7-1.6.2-3.6-1.3-5.6zm-14.9 1.7c-.9-1.2-1.3-2.3-.9-3.2.3-.8 1.4-1.4 2.9-1.6.3 0 .6-.1 1-.1a13.3 13.3 0 0 1 5 1.1 14.021 14.021 0 0 1 3.2 1.8c-2.9-.2-5.2.6-5.9 2.3a3.967 3.967 0 0 0 .4 3.3 1.856 1.856 0 0 0-.7-.2 10.864 10.864 0 0 1-5-3.4zm12.4 29.2c2.485 0 4.5-2.283 4.5-5.1 0-2.817-2.015-5.1-4.5-5.1s-4.5 2.283-4.5 5.1c0 2.817 2.015 5.1 4.5 5.1zm-31.7 5.5c-.3-1.3-.6-2.5-.8-3.8-3.4-15.6-.6-23.7-.5-23.8a1.377 1.377 0 0 0-.1-1.1 1.7 1.7 0 0 0-1-.6 1.213 1.213 0 0 0-1.2.7 56.726 56.726 0 0 1-12.2 17.1c-2.5 2.4-5.4 5-8.4 7.7-13.3 12.1-29.8 27.2-40.3 44.9a1.275 1.275 0 0 0 .4 1.7c.182.111.388.179.6.2a1.1 1.1 0 0 0 1-.6c.1-.2 12.5-20.1 23.8-21.9 10.1-1.7 16.7 4.9 22.5 10.7 4.6 4.7 8.7 8.7 13.6 7.5 10.6-2.6 6.4-21.8 2.6-38.7z"/><path d="M38.156 102.24c-6 0-10.8 4.2-10.8 9.5s4.9 9.5 10.8 9.5 10.8-4.2 10.8-9.5-4.8-9.5-10.8-9.5zm119 9.4c-.3-.2-.4-.3.1-1.9.4-1.3 1.2-3.7-1.5-4.6-3.2-1-6.2 4.1-7.5 6.9-22-9-35.9-18.4-43.6-24.8-8.7-7.2-12-12.2-12-12.2a1.235 1.235 0 0 0-2.1 1.3c.5.8 13 20 56.6 37.9a4.668 4.668 0 0 0 1.6 4 13.353 13.353 0 0 0 5.2 3.1c1.353.459 2.771.696 4.2.7 2.8 0 5-1 5.6-2.9.9-2.7-2-6-6.6-7.5z"/><path d="M159.056 95.84a12.124 12.124 0 0 0-5.1-3c-.3-.2-.4-.3.1-1.9.4-1.3 1.2-3.7-1.5-4.6-3.2-1-6.2 4.1-7.5 6.9a191.177 191.177 0 0 1-29.7-14.9 1.237 1.237 0 0 0-1.713.392 1.239 1.239 0 0 0 .413 1.708 213.594 213.594 0 0 0 29.9 15.1 4.665 4.665 0 0 0 1.6 4 13.353 13.353 0 0 0 5.2 3.1c1.353.459 2.771.696 4.2.7 2.8 0 5-1 5.6-2.9.5-1.5 0-3.1-1.5-4.6zm-48.9-62.4a1.857 1.857 0 0 1-1.7-1c-1.6-2.7-6.3-1.3-6.3-1.3a1.943 1.943 0 0 1-2.5-1.3 1.986 1.986 0 0 1 1.3-2.5c2.8-.9 8.3-1.3 11 3a1.889 1.889 0 0 1 .249 1.505 1.889 1.889 0 0 1-.949 1.195 1.667 1.667 0 0 1-1.1.4zm22.9 1.2a2.11 2.11 0 0 1-1.8-1.1c-1.3-2.6-5.2-1.4-5.3-1.4a1.992 1.992 0 1 1-1.2-3.8c2.5-.8 7.9-1.2 10.2 3.4.12.236.192.494.211.758a1.987 1.987 0 0 1-.487 1.463c-.174.2-.386.362-.624.479-.324.105-.66.172-1 .2zm-6.7-14.9a24.813 24.813 0 0 1-7.9-6.8l-.3-.4c-2.9-4.2-7.021-10.792-14-12-1.245-.216-1.624-.251-2.6-.4-1.3-.2-13-1.4-19.6 9.3-1.5 2.5-5.6 7.5-5.6 7.6a1.277 1.277 0 0 0-.2 1.2 1.22 1.22 0 0 0 .9.8c.1 0 9.9 1.6 16.3-2.5 2.9 8.1 5.1 9.5 6.2 9.6h.1c2.3 0 4.8-4.3 6.8-8.6a20.614 20.614 0 0 0 4 3.2 17.953 17.953 0 0 0 15.5 1.3 1.168 1.168 0 0 0 .8-1.1c0-.5 0-1-.4-1.2z"/></g></g></svg></g><g transform="translate(74.0 183.0) rotate(0.0 422.5 529.5) scale(1.8653421633554084 1.8677248677248677)"><svg width="453" height="567" viewBox="0 0 453 567"><clipPath id="d"><path d="M0 0h452.768v566.727H0z"/></clipPath><g clip-path="url(#d)"><path d="M305.74 33.027a78.602 78.602 0 0 0-13.6 5.4 109.322 109.322 0 0 0-12.7 7.6 129.57 129.57 0 0 0-11.7 9 146.695 146.695 0 0 0-10.7 10.2 187.07 187.07 0 0 0-18.6 23 233.095 233.095 0 0 0-15 25.5 262.657 262.657 0 0 0-11.8 27.2c-3.4 9.3-6.3 18.7-8.9 28.3s-4.8 19.2-6.9 28.9c-2 9.7-3.8 19.5-5.3 29.3-6.2 39.2-9.6 78.9-11.6 118.6s-2.5 79.5-2.2 119.3a5.353 5.353 0 0 1-5.3 5.4 5.353 5.353 0 0 1-5.4-5.3v-.1c.4-40 1.6-79.9 4.3-119.8s6.8-79.7 13.8-119.2c1.7-9.9 3.7-19.7 5.9-29.5s4.7-19.5 7.4-29.1c2.8-9.6 6-19.2 9.6-28.6a261.023 261.023 0 0 1 12.5-27.5 243.194 243.194 0 0 1 15.7-25.8 185.528 185.528 0 0 1 19.3-23.2c3.5-3.6 7.3-7 11.1-10.2 3.9-3.2 7.9-6.2 12.1-9a113.502 113.502 0 0 1 13.1-7.5 78.395 78.395 0 0 1 14.2-5.4 1.184 1.184 0 0 1 1.5.9 1.131 1.131 0 0 1-.335 1.389 1.136 1.136 0 0 1-.465.211z" fill="#1a1a1a"/><path d="M172.44 218.327s-12-3-30 18.2-41.8 70.2-41.8 70.2-16 33.8-11.8 49 25.8-2 25.8-2 13.8-11.2 18.5-26.2 2-28.5 8.5-31.5 23.2-8.2 24.2-26.4c1.1-18.1-11.4-50.8 6.6-51.3z" fill="#fece2f"/><path d="M168.44 218.727v-.3c-4.9.8-14.2 4.3-26 18.2-18 21.2-41.8 70.2-41.8 70.2s-16 33.8-11.8 49c1.3 4.8 4.4 6.4 7.9 6.3l.6-.5s4-33.7 23-71.7c17.5-35 39-55.6 42.2-58.6.2-5 1.3-9.1 4.1-11.3 1.1-.8 1.8-1.3 1.8-1.3z" fill="#fff"/><path d="M187.14 238.827a40.794 40.794 0 0 0-3.5-12.1 21.217 21.217 0 0 0-3.6-5.4 18.89 18.89 0 0 0-2.6-2.2 14.026 14.026 0 0 0-3-1.5 15.018 15.018 0 0 0-6.6-.6c-1.1.2-2.1.4-3.2.7l-1.5.5-1.5.6a45.424 45.424 0 0 0-10.2 7.1 111.017 111.017 0 0 0-9.5 9.9c-.1.1-.1.2-.2.2-2.2 2.7-4.4 5.4-6.4 8.1-4.8 6.5-9.3 13.2-13.5 20.1a364.044 364.044 0 0 0-22.4 42.9 198.875 198.875 0 0 0-8.4 22.7 118.99 118.99 0 0 0-2.8 11.8 42.057 42.057 0 0 0-.6 12.3c.2 2.131.81 4.203 1.8 6.1a8.155 8.155 0 0 0 2.4 2.5 7.9 7.9 0 0 0 3.3 1c2.132.142 4.271-.13 6.3-.8a28.676 28.676 0 0 0 5.7-2.4 50.172 50.172 0 0 0 9.9-7.2 64.68 64.68 0 0 0 8.3-9 58.869 58.869 0 0 0 6.4-10.5c.4-.9.8-1.9 1.2-2.8.3-1 .7-1.9 1-2.9s.6-2 .8-3 .5-2 .7-3c.9-4 1.5-8 2-12 .3-2 .6-4 1-5.9a13.863 13.863 0 0 1 2.2-5.1c.275-.355.576-.689.9-1 .346-.324.714-.625 1.1-.9a14.833 14.833 0 0 1 2.5-1.4l5.4-2.7a37.229 37.229 0 0 0 10-7.3 24.574 24.574 0 0 0 5.7-11.1 46.61 46.61 0 0 0 .8-12.3c-.5-8.1-2.1-16.1-2.8-24-.3-3.9-.5-8 .4-11.6a11.457 11.457 0 0 1 2.4-4.8 8.712 8.712 0 0 1 3.7-2.2 12.71 12.71 0 0 1 2.8.6c3.3 1.2 5.6 4.3 7.1 7.7a38.365 38.365 0 0 1 2.7 11.1v.1a2.098 2.098 0 0 0 2.3 1.7 1.59 1.59 0 0 0 1.5-2zm-71.4 113a43.293 43.293 0 0 1-9.6 6.9 32.469 32.469 0 0 1-5.4 2.3 15.42 15.42 0 0 1-5.6.7 5.279 5.279 0 0 1-2.5-.8 4.503 4.503 0 0 1-1.7-1.9 15.463 15.463 0 0 1-1.6-5.4 41.911 41.911 0 0 1 .7-11.7 93.278 93.278 0 0 1 2.8-11.6 203.002 203.002 0 0 1 8.4-22.5c.9-2.1 1.9-4.1 2.8-6.2.7 7.8 3.4 24.6 14.5 47.3a19.249 19.249 0 0 1-2.8 2.9zm8.1-8.8c-1.1 1.4-2.2 2.8-3.4 4.1-14.5-30-14.1-49.9-14.1-50.1v-.1c2-4.1 4.1-8.2 6.2-12.2 1 9.4 4.4 36.2 14 54.2a29.046 29.046 0 0 1-2.7 4.1zm25.7-51.7c-1.7.9-3.6 1.8-5.4 2.7-.942.458-1.845.994-2.7 1.6-.4.4-.9.7-1.3 1.1-.393.375-.761.776-1.1 1.2a14.858 14.858 0 0 0-2.6 5.9 41.71 41.71 0 0 0-1 6c-.6 4-1.1 7.9-2 11.8-.2 1-.4 1.9-.7 2.9-.2 1-.5 1.9-.8 2.9-.2.9-.6 1.9-.9 2.8-.4.9-.7 1.8-1.2 2.7-.6 1.2-1.2 2.4-1.9 3.6-10.7-21.3-13.4-54.9-13.4-55.3 0-.1-.1-.2-.1-.3 2.9-5.3 5.9-10.5 9.1-15.6 4.2-6.8 8.7-13.5 13.5-19.9 1.4-1.9 2.9-3.7 4.4-5.5.1 7.1 1.5 25 10.9 49.6a13.406 13.406 0 0 1-2.8 1.8zm12.6-65.1c-1 4.2-.7 8.3-.3 12.4.8 8.1 2.4 16 2.9 23.9a41.444 41.444 0 0 1-.6 11.7 23.07 23.07 0 0 1-5.2 10.2 26.7 26.7 0 0 1-4.4 3.8c-10.9-28.8-10.6-48.6-10.6-51.2a114.424 114.424 0 0 1 9.1-9.3 44.503 44.503 0 0 1 9.7-6.5c.717-.31 1.451-.578 2.2-.8a13.594 13.594 0 0 0-2.8 5.8z" fill="#1a1a1a"/><path d="M176.94 163.327s-19.2-2.8-54.5 6.5-38.5 23.5-38.5 23.5 4.7 12-.3 13.8-18 3.2-22 9 0 16 0 16-.3 10.5-5.8 15.7-14.2 18.2-3 28.7 31.8-1.7 31.8-1.7 13.3-7.8 16-17.2c2.7-9.3 8.2-20.5 14.8-21.5s17.7-4 22.2-13.5a213.228 213.228 0 0 0 8.5-22s13.2-32.9 30.8-37.3z" fill="#fece2f"/><path d="M146.44 169.727c4.7-.8 19-1.5 23.7-6.7-8.5-.1-24.7.8-47.6 6.9-35.2 9.2-38.5 23.5-38.5 23.5s4.7 12-.3 13.8-18 3.2-22 9 0 16 0 16-.3 10.5-5.8 15.7-14.2 18.2-3 28.7c7 6.6 17.8 4.2 24.8 1.6a43.928 43.928 0 0 1-10-3.5c-4-2-7.9-4.5-10.3-8.2-2.5-3.7-3.2-8.8-.9-12.6 1.8-3 5.2-4.7 7.8-7a19.959 19.959 0 0 0 6.7-13.4c.3-4-.6-8.2 1.4-11.7 3.8-6.7 15.1-5.1 19.6-11.4 2.7-3.8 2.2-9.4 5.6-12.7 1.5-1.5 3.7-2.2 5.5-3.3 4.9-3 7.5-8.6 11.4-12.8 7.9-8.5 20.5-10 31.9-11.9z" fill="#fff"/><path d="M201.24 168.327a2.416 2.416 0 0 0-.8-.9 4.633 4.633 0 0 0-.7-.7l-1.5-1.2a17.419 17.419 0 0 0-3.3-1.8 22.146 22.146 0 0 0-7.1-1.6 29.445 29.445 0 0 0-4.2.1c-16.7-.6-33.6.2-50 3.8a146.328 146.328 0 0 0-25.6 8.1 133.465 133.465 0 0 0-12 5.9l-2.9 1.7-2.9 1.8a22.242 22.242 0 0 0-5.4 4.3 11.3 11.3 0 0 0-1.9 3.2 9.76 9.76 0 0 0-.2 3.8c.4 2.4 1.5 4.5 2.1 6.5a10.4 10.4 0 0 1 .5 2.9 2.574 2.574 0 0 1-1.1 2 9.588 9.588 0 0 1-2.7 1.2c-1 .3-2.1.6-3.1.8-4.3.9-8.8 1.7-13 3.8a13.493 13.493 0 0 0-5.5 4.6 9.173 9.173 0 0 0-1.3 3.6 13.986 13.986 0 0 0 .2 3.6 33.89 33.89 0 0 0 .8 3.4c.3 1.1.5 2.1.7 3.1a19.04 19.04 0 0 1-.1 6.3 20.999 20.999 0 0 1-1.9 6c-.5.9-1 1.8-1.6 2.7l-2 2.6a55.77 55.77 0 0 0-3.7 5.7 35.033 35.033 0 0 0-2.9 6.2 20.118 20.118 0 0 0-1.3 6.9 12.184 12.184 0 0 0 2.1 6.9 18.701 18.701 0 0 0 11.8 7.2 31.6 31.6 0 0 0 13.7-.5 39.584 39.584 0 0 0 10.9-4.4c.555-.297 1.09-.631 1.6-1a43.603 43.603 0 0 0 5.5-4.1 44.512 44.512 0 0 0 4.8-4.9 38.697 38.697 0 0 0 3.8-5.8 55.933 55.933 0 0 0 2.6-6.3c1.5-4.1 2.9-8.4 5.4-11.7 2.4-3.4 6.5-4.9 10.7-5.5a32.94 32.94 0 0 0 6.7-1.7 20.703 20.703 0 0 0 6-3.7c3.6-3.1 6-7.1 8-11.1a87.533 87.533 0 0 0 4.9-12.5 129.296 129.296 0 0 1 4.6-12.3 79.416 79.416 0 0 1 6.2-11.5 49.46 49.46 0 0 1 8.4-9.8 35.278 35.278 0 0 1 10.8-6.6 29.176 29.176 0 0 1 12.4-1.7c2 .191 3.958.698 5.8 1.5a12.75 12.75 0 0 1 2.5 1.5c.4.3.7.6 1.1.9.1.2.3.3.5.5.108.127.208.261.3.4 0 .1.1.1.1.2a2.052 2.052 0 0 0 2.8.5 2.154 2.154 0 0 0 .4-2.9zm-109.7 16.9 2.8-1.7 2.9-1.6a119.16 119.16 0 0 1 11.9-5.8 136.593 136.593 0 0 1 25.2-7.9 177.055 177.055 0 0 1 35.6-3.7c-10.1 2.7-24.6 8.5-41.9 21l-41.6 4 .3-.3a17.348 17.348 0 0 1 4.8-4zm-29.8 32.5a11.97 11.97 0 0 1 4.7-3.8c3.8-1.9 8.1-2.7 12.5-3.7a20.163 20.163 0 0 0 3.3-.9 12.486 12.486 0 0 0 3.3-1.6 4.59 4.59 0 0 0 2-3.6 10.462 10.462 0 0 0-.6-3.6c-.7-2.3-1.7-4.2-2-6.2a6.456 6.456 0 0 1 0-2.4l39-3.8a219.94 219.94 0 0 0-19.8 17.2c-3.9 3.8-7.4 7.5-10.8 11.2h-.4l-32.1 5.2a6.775 6.775 0 0 1 .9-4zm23.9 7.9h-.3c-1.2.3-16.7 2.5-23.1 3.4-.2-.9-.4-1.8-.6-2.6l-.6-2.4 29.8-4.7c-1.7 2.2-3.5 4.3-5.2 6.3zm-35 46.6a9.985 9.985 0 0 1-1.7-5.6 18.88 18.88 0 0 1 1.2-6.1 30.62 30.62 0 0 1 2.7-5.8 64.817 64.817 0 0 1 3.6-5.5l2-2.7a23.751 23.751 0 0 0 1.8-3 22.105 22.105 0 0 0 2.1-6.6c.316-1.782.383-3.599.2-5.4 2.2-.3 15.1-2.2 20.7-3-18.6 23.1-27.5 42.2-29.5 46.9a15.68 15.68 0 0 1-3.1-3.2zm23.1 5.8a30.279 30.279 0 0 1-12.7.5 22.03 22.03 0 0 1-5.1-1.8c1.5-3.6 8.7-19.5 23.9-39.8l3.5 37.4a41.468 41.468 0 0 1-9.6 3.7zm45.4-43.8a23.209 23.209 0 0 0-6.7 1.9 12.88 12.88 0 0 0-1.6.9c-.523.334-1.024.701-1.5 1.1-.4.4-.9.8-1.3 1.2-.4.5-.8.9-1.2 1.4a30.515 30.515 0 0 0-3.4 6.1c-.9 2.1-1.6 4.2-2.4 6.3a39.53 39.53 0 0 1-2.4 6 38.354 38.354 0 0 1-3.5 5.4 27.923 27.923 0 0 1-4.5 4.6 37.494 37.494 0 0 1-5.1 3.8l-3.6-38.9a264.288 264.288 0 0 1 23.9-26.8 217.874 217.874 0 0 1 20.6-17.8l-4.7 44.2c-.849.269-1.719.47-2.6.6zm6.1-1.6c-.3.1-.5.2-.8.3l4.8-45.5c1.4-1 2.7-1.9 4-2.8-.5 7.1-2.3 29.6-3.5 45.4a14.32 14.32 0 0 1-4.5 2.6zm37.2-60.8a54.623 54.623 0 0 0-8.7 10.5 80.297 80.297 0 0 0-6.4 11.9c-1.8 4.1-3.2 8.4-4.6 12.6a99.73 99.73 0 0 1-4.8 12.2 35.366 35.366 0 0 1-5.6 8.6c2.7-33.4 3.3-42.2 3.4-44.6 12.9-8.4 23.8-13 32.2-15.5a37.167 37.167 0 0 0-5.5 4.3z" fill="#1a1a1a"/><path d="m138.84 120.727-36-20.7a72.415 72.415 0 0 0-41 1.3c-22.3 7.3-52.3 33.7-52.3 33.7s-9.3 9.7-8 14c0 0-.8 3.8 10.3 1.5a39.353 39.353 0 0 1 19.5.7s14.7 3.8 23 0 18.3-8.8 24.8-7.5 10 8 19.7 7.2 22.8-8.2 22.8-8.2l12.3-11.5 8-8.5z" fill="#fece2f"/><path d="m138.84 120.727-36-20.7a72.415 72.415 0 0 0-41 1.3c-22.3 7.3-52.3 33.7-52.3 33.7s-9.3 9.7-8 14c0 0-.8 3.8 10.3 1.5a36.359 36.359 0 0 1 6.2-.8c.052-.109.12-.21.2-.3 0 0-4.2-5.2.8-13.8s16.2-5.5 26-9.8 11.8-18.8 23.2-19 18.3 6.7 29.5 6c27.2-1.7 25.9 10.7 41.1 7.9z" fill="#fff"/><path d="M201.84 168.927a68.107 68.107 0 0 0-4.4-13.9 49.421 49.421 0 0 0-3.5-6.4c-.7-1-1.4-2-2.2-3l-1.1-1.5-1.2-1.4c-6.5-7.4-15.1-12.5-24-15.9a103.8 103.8 0 0 0-23.1-5.6c-3.2-1.5-9.6-4.9-21.6-12.7-22.3-14.3-42.1-15.7-68.1-4.8-1.4.6-2.9 1.2-4.3 1.9a.98.98 0 0 0-.9.4c-23.3 11.3-44.7 31.9-47.2 40.7a4.548 4.548 0 0 0 .3 3.7v.2l.1.1c2.4 3.3 6.3 2.3 10.8 1.2 4.6-1.2 10.2-2.7 16.9-.7 6.4 1.9 11.4 3 16.3 3 5.1 0 10.1-1.2 16.3-4.1 12.2-5.6 19.6-7.4 26.2-1.9 8.3 6.9 24.5 4 37.8-6.7a93.41 93.41 0 0 0 11.3-10.9c2.6-2.9 4.1-4.5 6.6-5.4a102.405 102.405 0 0 1 21.3 5.4c8.4 3.3 16.3 8.2 22.1 15l1.1 1.2 1 1.4c.6.9 1.3 1.8 1.9 2.7a41.392 41.392 0 0 1 3.1 5.9 51.28 51.28 0 0 1 3.9 12.8v.2a2.41 2.41 0 0 0 2.9 1.8 2.129 2.129 0 0 0 1.457-.968 2.125 2.125 0 0 0 .243-1.732zm-82.5-58.3c7.3 4.7 12.6 7.8 16.4 9.9-4.1-.4-8.2-.5-12.3-.6-4.7 0-9.4.1-14.1.4-6.8.4-13.6 1.1-20.4 2l-.1-.1-24.2-20.2c19.9-5.9 36.4-3.1 54.7 8.6zm-65.9-4.6c2.9-1.2 5.6-2.2 8.4-3.1l23.8 19.9c-1.5.2-3 .4-4.5.7l-8.4 1.5-22.1-17.7c.9-.5 1.9-.9 2.8-1.3zm-5.3 2.4 21.4 17.1c-5.4 1.1-10.7 2.3-16 3.6a253.894 253.894 0 0 0-26.9 8.4c-4.4 1.6-8.8 3.4-13.1 5.3-3.8 1.7-7.6 3.5-11.3 5.5 0-.2.1-.5.1-.8 2.4-8.2 23.5-28.2 45.8-39.1zm11.6 39.6c-11.4 5.2-18 4.8-30.9.9a25.078 25.078 0 0 0-7.4-1.1c-3.656.12-7.284.691-10.8 1.7-3.4.9-5.5 1.4-7 .7 3.5-1.9 7.2-3.6 11-5.2 4.3-1.8 8.6-3.5 13-5.1 8.8-3.1 17.7-5.8 26.7-8s18.2-4 27.4-5.4c6.7-1 13.4-1.8 20.1-2.3l-18.2 19.1c-7.2-2.4-15.2.7-23.9 4.7zm26.2-3.4 19.5-20.4c1.3-.1 2.7-.2 4-.2 1.8-.1 3.7-.1 5.5-.2l-23.7 24.3a12.331 12.331 0 0 1-2.7-1.7 30.849 30.849 0 0 0-2.6-1.8zm48.3-15.6a88.509 88.509 0 0 1-11 10.6c-9.7 7.9-21.4 11.3-29.4 9.3l24.6-25.3h5c4.6.2 9.3.3 13.8.9a6.82 6.82 0 0 1 1.4.2 29.57 29.57 0 0 0-4.4 4.3z" fill="#1a1a1a"/><path d="M211.34 81.227s-6.5-15.8-7.3-24.3-7.2-31.8-18.3-40.5c-11.2-8.7-19-9.7-19-9.7l-23.5-4.3s-14.5-3.2-18.3 4.5c-3.8 7.7-2.8 15.2 5.5 21.7s17 5.2 22.5 11.2 14 23.8 14 23.8 6.2 6.8 13 8c6.7 1.1 25 3.4 31.4 9.6z" fill="#fece2f"/><path d="M203.94 56.827c-.8-8.5-7.2-31.8-18.3-40.5-11.2-8.7-19-9.7-19-9.7l-23.5-4.3s-14.5-3.2-18.3 4.5c-2.1 4.2-2.7 8.4-1.5 12.4a13.016 13.016 0 0 1 2.4-4.1c4.5-5.2 11.1-5.4 17.5-4.9 4.1.4 8.3.9 11.9 2.9 3.3 1.9 5.7 5 8.5 7.5a31.426 31.426 0 0 0 13.2 7.1c3.9 1 8.1 1.4 11.5 3.5 4.5 2.9 6.6 8.4 7.5 13.6s1.1 10.7 3.2 15.7c1.8 4.4 5 8.1 8.2 11.7.382.482.818.918 1.3 1.3-2-5.2-4.1-12-4.6-16.7z" fill="#fff"/><path d="m217.14 92.827-.6-2.5-.8-2.4-.8-2.4-.9-2.3-3.4-9.4a187.999 187.999 0 0 1-6-18.9c-.8-3.2-1.5-6.5-2.3-9.7a57.419 57.419 0 0 0-2.8-9.8 56.355 56.355 0 0 0-4.4-9.3 55.19 55.19 0 0 0-6.2-8.2 46.051 46.051 0 0 0-8-6.6 41.602 41.602 0 0 0-9.3-4.4 55.867 55.867 0 0 0-10-2.3c-3.3-.5-6.6-1-9.8-1.6s-6.5-1.3-9.7-2.2a17.436 17.436 0 0 0-10.6 0 14.709 14.709 0 0 0-8.5 6.6 8.494 8.494 0 0 0-1.1 2.6 13.721 13.721 0 0 0-.5 2.8l-.1 1.4.1 1.4c.069.915.237 1.82.5 2.7a20.88 20.88 0 0 0 5.3 9.1 31.057 31.057 0 0 0 8.3 6.2 34.755 34.755 0 0 0 4.8 2.1c.9.3 1.6.5 2.4.8s1.5.5 2.3.8c1.481.599 2.917 1.3 4.3 2.1a20.548 20.548 0 0 1 3.7 2.9 26.564 26.564 0 0 1 5.4 7.8l1 2.2 1 2.3c.7 1.6 1.4 3.1 2.1 4.6a31.14 31.14 0 0 0 6.1 8.4 22.18 22.18 0 0 0 9.3 5c.9.2 1.7.4 2.6.6.8.1 1.7.3 2.6.4 1.6.2 3.3.4 4.9.6 3.23.47 6.434 1.104 9.6 1.9a33.004 33.004 0 0 1 8.8 3.8 15.591 15.591 0 0 1 4.9 5l.7 2 .8 2.3.8 2.3.6 2.4a60.28 60.28 0 0 1 1.6 19.4 61.921 61.921 0 0 1-1.5 9.6 41.78 41.78 0 0 1-1.4 4.7 28.86 28.86 0 0 1-1.8 4.4v.1a1.565 1.565 0 1 0 2.8 1.4 50.313 50.313 0 0 0 2-4.9 45.084 45.084 0 0 0 1.4-4.9 57.386 57.386 0 0 0 1.6-10.1 71.134 71.134 0 0 0-1.8-20.8zm-24.5-65.3a54.255 54.255 0 0 1 4.1 8.8 59.324 59.324 0 0 1 2.6 9.4c.7 3.3 1.5 6.5 2.3 9.8 1.2 4.8 2.7 9.6 4.3 14.3a132.81 132.81 0 0 0-14.7-18 .878.878 0 0 0 .1-.7l-4.8-31.5.2.2a36.66 36.66 0 0 1 5.9 7.7zm-13.2-13.9a45.875 45.875 0 0 1 4.4 3.3l4.9 32.3c-4.4-4.3-9-8.3-13.6-12.1.125-.249.193-.522.2-.8l-4.1-26.8a62.732 62.732 0 0 1 8.2 4.1zm-51.1-8.3a12.523 12.523 0 0 1 4-2c1.445-.5 2.975-.703 4.5-.6.37-.021.74.013 1.1.1.4 0 .8.1 1.1.1.8.2 1.5.3 2.3.5 3.2.9 6.5 1.6 9.8 2.2s6.6 1.1 9.9 1.6c2.5.4 4.9.9 7.2 1.5l4.1 26.4a249.656 249.656 0 0 0-46.1-28.1 17.365 17.365 0 0 0 2.1-1.7zm33.5 45.7c-.3-.8-.7-1.6-1-2.4a27.95 27.95 0 0 0-6-8.5 25.899 25.899 0 0 0-4.2-3.2 29.203 29.203 0 0 0-4.7-2.3l-2.4-.9c-.8-.3-1.7-.5-2.4-.8a34.377 34.377 0 0 1-4.4-1.9 28.58 28.58 0 0 1-7.6-5.7 19.728 19.728 0 0 1-4.7-8 16.925 16.925 0 0 1-.4-2.2l-.1-1.1.1-1.1a5.382 5.382 0 0 1 .4-2.2 5.9 5.9 0 0 1 .6-1.4c6.6 3 43 20.3 68.4 48.6l-29.3-1.4c-.5-1-1-2.1-1.4-3.1zm36.5 22.3a84.231 84.231 0 0 0-10-2c-1.7-.2-3.3-.4-5-.6l-2.4-.3a15.546 15.546 0 0 1-2.3-.5 19.232 19.232 0 0 1-8.2-4.4 24.17 24.17 0 0 1-4.9-6.5l30.2 1.4a107.356 107.356 0 0 1 12.2 17.2l-.1-.1a33.274 33.274 0 0 0-9.5-4.2z" fill="#1a1a1a"/><path d="M304.44 31.827s28.2-8.5 62.5 4.2 61 44.2 61 44.2 22 23 23.2 34-6.8 10.5-6.8 10.5l-16.8-8.8s-10.2-7.5-27.2-5.5-29.8-6.8-32.8-12.8c-3-6-9.8-29.8-18.5-34.5s-17.2-11.2-21-15-14.6-18-23.6-16.3z" fill="#fece2f"/><path d="M451.24 114.327c-1.2-11-23.2-34-23.2-34s-26.8-31.5-61-44.2a111.777 111.777 0 0 0-47.7-6.7l-.5 1.3s33.1 4.5 69.4 27.7c37.2 23.8 62.6 61 62.6 61l.4-.8a20.465 20.465 0 0 0 0-4.3z" fill="#fff"/><path d="M445.24 99.127c-13.8-19.2-29.7-35.2-47.4-47.7a1.147 1.147 0 0 0-.9-.6c-2.7-1.9-5.5-3.8-8.4-5.5-33.2-20.5-68.6-18.6-82.9-14.7h-.4a1.178 1.178 0 0 0-.998.92 1.173 1.173 0 0 0-.002.48 1.286 1.286 0 0 0 1.3 1.1h.6c5-.4 9.6 4.4 15.3 10.5 5.7 6 12.2 12.7 21.3 17 12.3 5.8 16.9 18.9 21.4 31.6 5.1 14.5 18.2 20.8 41.2 19.8 13.1-.5 21.7 4.9 28.7 9.2 4.3 2.7 7.9 5 11.5 5a7.991 7.991 0 0 0 3.6-.9h.1a6.45 6.45 0 0 0 3.2-4.6c1.3-5.6-1.3-13.4-7.2-21.6zm-55.5-33.3c-3.4-2.5-7-5-10.8-7.5-5.4-3.6-10.4-6.7-15.2-9.4l32.3 4.3a196.175 196.175 0 0 1 18.3 14.7l-24.5-2.1zm-8.1-2.7c4.6 3.1 8.9 6.2 12.9 9.2l-2.3 36.6a43.607 43.607 0 0 1-11.3-2.7c0-.1.1-.2.1-.3zm5.7-15.7 4.2 2.7-32.6-4.3a1.268 1.268 0 0 0-.6.1c-17.7-9.6-30.6-13.6-39.2-15a114.155 114.155 0 0 1 68.2 16.5zm-21 43.7c-4.6-13.1-9.4-26.7-22.6-32.9-8.7-4.1-15-10.7-20.5-16.5-3.5-3.7-6.7-7-10-9.1 9.9.6 30.6 5.3 64.4 27.7l1.8 1.2a.597.597 0 0 0-.1.4l-.7 43.2c-7.6-3.6-10.6-9.2-12.3-14zm68.9 27.9c-6.5-4.1-15.4-9.7-28.2-9.7h-1.9a69.845 69.845 0 0 1-10.4-.2l2.2-35a278.649 278.649 0 0 1 34.7 31.1 166.238 166.238 0 0 1 15 18.2c-3.2.7-6.7-1.5-11.4-4.4zm14.7 1a5.435 5.435 0 0 1-1.2 2.4 156.974 156.974 0 0 0-15.3-18.7 295.33 295.33 0 0 0-39.9-35.1l23.5 2h.2a217.24 217.24 0 0 1 26 30c5.4 7.5 7.9 14.7 6.7 19.4z" fill="#1a1a1a"/><path d="M184.24 324.327s18.2-12.8 41.5-10 44 13.8 44 13.8 9.8 6 6.5 10.5-11.5-5-21.8-2.5-17.8 6.8-26 1-29.5-16-44.2-12.8z" fill="#fece2f"/><path d="M269.74 328.127s-20.8-11-44-13.8-41.5 10-41.5 10a38.248 38.248 0 0 1 13.9.1c0-.027.011-.052.029-.071a.103.103 0 0 1 .071-.029s38.3-14 70.8 13.8l.7.7c2.9 1.1 5.2 1.7 6.5-.2 3.2-4.5-6.5-10.5-6.5-10.5z" fill="#fff"/><path d="M276.54 332.627c-3.4-4.1-12.8-9.1-24.7-13.1a130.752 130.752 0 0 0-12.8-3.7 1.423 1.423 0 0 0-.6-.2 84.542 84.542 0 0 0-21-2.5c-22.8.7-40.6 13.7-41.4 14.2a1.361 1.361 0 0 0-.3 1.7 1.282 1.282 0 0 0 1.6.4c16.5-9.4 31.3-1.4 44.3 5.6 1.8 1 3.5 1.9 5.2 2.7 5.6 2.8 9.5 3.8 12.7 3.8 3.3 0 5.8-1 8.7-2.2a40.54 40.54 0 0 1 6.2-2.2c4.3-1.1 8.8.5 12.8 1.9 3.5 1.2 6.5 2.3 8.6 1.1a4.402 4.402 0 0 0 2.1-3.2 4.885 4.885 0 0 0-1.4-4.3zm-48.5 3-5.1-2.7c-9.1-4.9-19-10.2-29.8-10.2-1.439 0-2.875.101-4.3.3 7.3-3.4 17.5-7 28.8-7.4a72.34 72.34 0 0 1 7.9.3.309.309 0 0 0 .1.2l16.2 22.9c-3.5.5-7.3-.1-13.8-3.4zm19.3 1.5a20.851 20.851 0 0 1-3.2 1.2l-15.5-22c3 .4 6 1 9.1 1.7l11.2 18.5c-.5.2-1.1.4-1.6.6zm28.3-.7c-.3 1.2-.7 1.5-.9 1.6-1.2.7-3.8-.3-6.6-1.3-4.1-1.4-9.2-3.2-14.2-1.9a18.27 18.27 0 0 0-2.5.8l-10.4-16.8c14.9 3.8 29.3 10.3 33.6 15.4.59.587.946 1.369 1 2.2z" fill="#1a1a1a"/><path d="M242.24 363.627s13.5-3.5 18-2.2 16.8 8.2 22.8 8.5 22.2.8 31.8 10 6.5 23.2 17.8 35.8 14.8 20.8 13 27a7.775 7.775 0 0 1-7.8 5.8s-6.8-1.2-15.8-8.8-17.8-13.5-28-13.2-24-2.8-31.8-17-9-32.2-20-45.9z" fill="#fece2f"/><path d="M314.74 379.827c-9.5-9.2-25.8-9.8-31.8-10s-18.2-7.2-22.8-8.5c-3.4-1-12.1.9-16 1.8 1.5 2.7 5.6 5 7.7 5.7 3.1 1 6.2.4 9.4.9 3.8.5 6.3 2.7 9.7 4.2 4.7 2.1 10.1 1.3 15.2 1.7a31.834 31.834 0 0 1 27.1 21.2c1.5 4.6 2 9.7 4.9 13.7 2.3 3.2 5.9 5.1 9.2 7.2 7.6 4.9 14.9 12.3 14.7 21.3-.1 3.6-2.2 7.7-5.8 7.7a5.234 5.234 0 0 0-2.5.3c1.265.531 2.569.966 3.9 1.3a7.63 7.63 0 0 0 4.942-1.499 7.63 7.63 0 0 0 2.858-4.301c1.8-6.3-1.8-14.5-13-27s-8.2-26.4-17.7-35.7z" fill="#fff"/><path d="M346.84 437.227a22.83 22.83 0 0 0-1.7-5.8 41.732 41.732 0 0 0-6.6-9.9c-1.3-1.5-2.6-2.8-3.9-4.3a49.571 49.571 0 0 1-3.4-4.6 61.564 61.564 0 0 1-5.3-10.2l-2.1-5.4c-.6-1.8-1.2-3.7-1.9-5.5a44.17 44.17 0 0 0-5.4-10.6 26.36 26.36 0 0 0-9.2-7.7 35.89 35.89 0 0 0-11.5-3.2c-1-.1-2-.3-3-.3l-3-.1-2.9-.1c-.9-.1-1.9-.2-2.8-.3a34.468 34.468 0 0 1-10.7-3.5l-5.2-2.6c-.9-.4-1.8-.9-2.7-1.3l-1.4-.6-1.5-.5a21.425 21.425 0 0 0-6.2-.6 55.94 55.94 0 0 0-5.9.7c-1.9.3-3.8.7-5.7.9l-1.4.1h-1.3a5.894 5.894 0 0 1-1.3-.2 6.103 6.103 0 0 1-1.3-.3 92.564 92.564 0 0 1-10.9-3.6c-3.6-1.4-7.2-2.8-10.8-4.3-3.6-1.4-7.3-2.8-11-4.1a61.807 61.807 0 0 0-11.6-3.1c-1-.1-2.1-.2-3.2-.2a17.22 17.22 0 0 0-3.2.2 22.662 22.662 0 0 0-6.2 1.6 30.623 30.623 0 0 0-5.6 3.1 24.389 24.389 0 0 0-2.5 2c-.4.4-.8.7-1.2 1.1a14.99 14.99 0 0 0-1.1 1.3c0 .013-.003.026-.008.038s-.012.023-.021.033c-.01.009-.021.016-.033.021s-.025.008-.038.008a2.512 2.512 0 1 0 4.1 2.9l.1-.1c.257-.281.491-.582.7-.9l.9-.9c.6-.6 1.3-1.2 2-1.8a20.671 20.671 0 0 1 4.5-2.7 17.995 17.995 0 0 1 5-1.5c.86-.149 1.728-.249 2.6-.3.868-.019 1.736.015 2.6.1a53.923 53.923 0 0 1 10.9 2.6c3.6 1.2 7.3 2.5 10.9 3.8s7.3 2.7 11 4c3.3 1.2 6.7 2.3 10.2 3.2a.36.36 0 0 0 .3.1c3.3 1 5.9 3.9 7.9 7.1a60.88 60.88 0 0 1 4.9 10.3c2.8 7.2 5.1 14.6 7.9 21.9a44.17 44.17 0 0 0 5.4 10.6 27.282 27.282 0 0 0 8.8 8.1 34.967 34.967 0 0 0 11.2 4c2.445.48 4.916.814 7.4 1a.895.895 0 0 0 .5.1h.1c.1 0 .1 0 .2-.1 1.2.1 2.3.2 3.5.2 1.88.041 3.754.241 5.6.6a25.774 25.774 0 0 1 5.3 1.9 58.287 58.287 0 0 1 9.7 6.1c3.1 2.3 6.1 4.8 9.2 7.2a52.472 52.472 0 0 0 4.9 3.3 21.52 21.52 0 0 0 5.6 2.4 8.964 8.964 0 0 0 6.2-.8 8.88 8.88 0 0 0 1-.6h.2c.244-.02.482-.088.7-.2a1.23 1.23 0 0 0 .5-1l.2-.2a9.695 9.695 0 0 0 1.6-2.8c.594-1.874.731-3.862.4-5.8zm-95.8-73.6c3.8-.7 7.5-1.2 11-.3l1.3.4 1.3.5c.9.4 1.7.8 2.6 1.2l5.2 2.6a36.874 36.874 0 0 0 11.4 3.5l3 .3 3 .1 2.9.1c.938.045 1.873.145 2.8.3a30.459 30.459 0 0 1 10.8 3 23.217 23.217 0 0 1 8.5 7 40.244 40.244 0 0 1 5.2 10.1c1.3 3.7 2.6 7.5 4.1 11.1l-20.5.5c-.1 0-.2 0-.2.1-8.9-7.2-17.9-13.8-26.2-19.5a1.551 1.551 0 0 0-.8-.6c-13.7-9.4-25.3-16.2-30.8-19.4 1.8-.3 3.6-.7 5.4-1zm14.6 49.4a41.991 41.991 0 0 1-5-10.2c-2.7-7.3-4.9-14.7-7.7-22a61.207 61.207 0 0 0-5-10.7 14.375 14.375 0 0 0-1.5-2.2c6.1 3.5 16.5 9.8 28.6 18.1l4.6 37.3a34.16 34.16 0 0 1-5.9-2.6 28.294 28.294 0 0 1-8.1-7.7zm16.5 10.9v-.2l-4.4-35.9c3.1 2.1 6.3 4.4 9.5 6.8l3.4 30.8a61.674 61.674 0 0 1-6.2-.9c-.8-.2-1.5-.4-2.3-.6zm54.3 23.4a16.458 16.458 0 0 1-5.1-2.2c-1.6-1-3.2-2.1-4.7-3.2-3.1-2.3-6-4.8-9.2-7.2a54.386 54.386 0 0 0-10-6.3 27.476 27.476 0 0 0-5.7-2 24.64 24.64 0 0 0-5.9-.6 24.637 24.637 0 0 1-2.7-.2l-3.2-29c18.7 13.9 38.7 31.3 52 49.8-.2.1-.3.2-.5.3a7.182 7.182 0 0 1-5 .6zm8.3-4.5c-.3.7-.6 1.3-.9 1.9-9.9-13.7-23.5-26.9-37.5-38.4l18.7-.4a.367.367 0 0 0 .3-.1 61.036 61.036 0 0 0 4.4 7.9 53.387 53.387 0 0 0 3.6 4.7c1.3 1.5 2.7 2.9 3.9 4.4a40.053 40.053 0 0 1 6.4 9.4 20.217 20.217 0 0 1 1.6 5.3 13.493 13.493 0 0 1-.5 5.3z" fill="#1a1a1a"/><path d="M163.14 347.327s-8.9-3.5-22.4 10.1-21.9 32.8-21.9 32.8.1 5.4 7.4 1.5 7.2-6.6 11-7.2 12.2-7.4 12.9-12.2 6.8-25.3 13-25z" fill="#fece2f"/><path d="m157.94 351.127 2-4.1c-3.7.1-10.5 1.7-19.3 10.5-13.5 13.6-21.9 32.8-21.9 32.8s.1 5.4 7.4 1.5a18.284 18.284 0 0 0 2.5-1.5 6.18 6.18 0 0 0 .1-.9c5-27.1 29.2-38.3 29.2-38.3z" fill="#fff"/><path d="M175.44 356.327c-.3-.4-4.8-6.5-10.8-9.1a.767.767 0 0 0-.5-.2 12.346 12.346 0 0 0-6.6-.8c-8.4 1.5-19.1 10.2-28.6 23.3-7.6 10.5-12.3 18.3-11 22.5a4.115 4.115 0 0 0 2.6 2.7c.39.115.793.182 1.2.2 2.7 0 6.1-2.7 9.9-5.9.4-.3.7-.6 1.1-.9a23.874 23.874 0 0 1 6.5-3.5c4.2-1.8 8.6-3.6 11-9.5.9-2.3 1.7-5.2 2.6-8.4 2.3-8.5 4.9-18.1 10.7-17.4 5.5 2.3 9.9 8.3 9.9 8.4a1.222 1.222 0 0 0 2-1.4zm-37.2 26.1a24.875 24.875 0 0 0-7.1 3.9c-.346.324-.714.625-1.1.9-2.3 1.9-7 5.9-8.7 5.2a1.536 1.536 0 0 1-.701-.399 1.536 1.536 0 0 1-.399-.701c-1.2-3.9 7.1-15.4 10.7-20.4 1.9-2.6 3.8-5 5.7-7.2l3 18.1c-.4.2-.9.4-1.4.6zm3.7-1.7-3.2-19.3c1.5-1.6 3.1-3.1 4.6-4.5l3.3 19.7a12.293 12.293 0 0 1-4.7 4.1zm8.6-14.6c-.7 2.4-1.3 4.7-1.9 6.6l-3-17.7c4.5-3.6 8.7-5.9 12.4-6.5.2 0 .3-.1.5-.1-4.2 3.4-6.3 11.1-8 17.7z" fill="#1a1a1a"/><path d="M146.44 404.127s-.8 13.5 3 21.5 10 33.8-1 59-34 45.8-34 45.8-16.8 14.8-25.2 3.5 4.2-28.8 4.2-28.8a75.368 75.368 0 0 0 4.8-30c-1-16 1.8-28.2 9-35.2s31.2-21.1 39.2-35.8z" fill="#fece2f"/><path d="M122.64 432.827c6.8-4.7 13.2-10.3 17.6-17.3 1.1-1.7 2.8-4.2 3-6.5-9.9 12.9-29.5 24.6-35.9 30.8-7.2 7-10 19.2-9 35.2a75.365 75.365 0 0 1-4.8 30s-12.8 17.5-4.2 28.8c3.8 5 9.2 4.9 14.1 3.1.2-2.1-1.5-4.3-2.8-6.2a24.215 24.215 0 0 1-4.4-15.2c.6-11.6 9.3-21 13.4-31.9a42.102 42.102 0 0 0 2.2-21.1c-.9-6-3.1-12.2-1-17.8 1.7-5.4 7.1-8.6 11.8-11.9z" fill="#fff"/><path d="M172.34 380.227c-.4-.2-9.1-4.2-19.5 7.6-2.1 2.3-4 5.9-5.9 10.4a1.065 1.065 0 0 0-.6.7c-4.1 11-13.2 21.1-27.9 31.1-.6.4-1.3.9-2 1.3-10.1 6.7-21.6 14.3-18.9 46.5 1 11.9-3.3 21.9-7.1 30.7-4.3 10-8.1 18.6-1.5 26a12.507 12.507 0 0 0 9.6 4.5 12.07 12.07 0 0 0 1.9-.1c17-2.3 40.1-35.3 48.2-51.7 8.9-18.1 10-41.9 2.7-59.3a46.589 46.589 0 0 1-3-26.4c2.1-5.3 4.3-9.5 6.5-12 9.1-10.3 16.3-7.2 16.6-7a1.194 1.194 0 0 0 .925.035 1.194 1.194 0 0 0 .675-.635 1.481 1.481 0 0 0-.7-1.7zm-54.5 53.1c.7-.4 1.3-.9 2-1.3 9.6-6.5 17-13.2 22.1-20.1-2.5 7.7-5 16.4-7.6 25.8-1.3 4.6-2.7 9.4-4.1 14.2l-30.4 21.6c-1.4-27.3 8.4-33.8 18-40.2zm-17.8 44.3c0-.4-.1-.8-.1-1.2l29.1-20.7c-1.1 3.7-2.2 7.4-3.4 11.1l-25.6 17.5c.2-2.229.2-4.471 0-6.7zm-7.4 31.8c2.8-6.6 6-13.8 7.1-22 .1 0 .1 0 .2-.1l24.5-16.7c-8.6 26.3-19.3 51.2-34.4 61.4-4.5-6.1-1.3-13.4 2.6-22.6zm7.4 27.1a9.888 9.888 0 0 1-8.4-2.6 55.657 55.657 0 0 0 12.3-12.4l4 11.9a23.122 23.122 0 0 1-7.9 3.1zm10-4.5-4.4-13.1c1.2-1.8 2.4-3.7 3.5-5.6l5 15.5a41.13 41.13 0 0 1-4.1 3.2zm6.2-5-5.4-16.5v-.1c6.2-11.3 11.4-25 15.9-39l10.7 30c-6 9.1-13.7 18.7-21.2 25.6zm22.9-28.2-11.1-31.3c2.3-7.2 4.4-14.4 6.4-21.5l11.7 40.5a127.287 127.287 0 0 1-7 12.3zm9.9-70c6.6 15.9 6 37.3-1.3 54.4l-12-41.5c.3-1.1.6-2.2 1-3.3 2.9-10.3 5.7-20 8.4-28.1a47.208 47.208 0 0 0 3.9 18.5z" fill="#1a1a1a"/><path d="M197.24 419.327s10.8 8.8 19.8 13.8 17.8 13.2 18.5 18.8-3 22.5 2.2 29 13.8 23.8 12.2 31.2-9.2 17.8-8.5 31.5-5 21-11.2 21.5-12.2-1.2-14.5-8.5c-2.2-7.2-3-23-12-32.5s-18-13.8-19.2-32 8.5-41.5 8.5-41.5 4.8-23.5 2.5-33.5z" fill="#fece2f"/><path d="M230.24 565.127c4.9-.4 9.5-5 10.9-13.7-1.8.5-3.3 1.7-5 2.4a11.612 11.612 0 0 1-7.957.239 11.612 11.612 0 0 1-6.243-4.939c-2.2-3.9-1.9-8.6-1.6-13 .4-6.4.6-13-1.4-19.2a15.663 15.663 0 0 0-2.7-5.3 25.976 25.976 0 0 0-5.7-4.7c-4.9-3.3-9.8-6.9-13.4-11.7-3.6-4.7-5.9-10.7-5.1-16.6.6-4.8 3.2-9.1 4.9-13.7 2.2-6.1 2.8-12.6 3.4-19.1.5-6.3 2.6-19.9-3.4-24.3a9.304 9.304 0 0 0-.8-.5c.7 11.2-3 29.5-3 29.5s-9.8 23.2-8.5 41.5 10.2 22.5 19.2 32 9.8 25.2 12 32.5c2.1 7.3 8.1 9.1 14.4 8.6z" fill="#fff"/><path d="M240.24 482.527c-.7-1-1.3-2-1.9-2.9-3-4.7-2.5-9.5-1.9-15.5.363-2.953.563-5.925.6-8.9 0-11.2-12.7-19.3-25.6-26.6-12.1-6.9-15.8-13.2-15.9-13.3l-.3-.3c-2.2-3.9-4-6.4-5.3-7.6-6.1-5.8-14-2.6-17.3-.1a1.209 1.209 0 0 0 .609 2.152c.318.038.639-.053.891-.252.3-.2 7.9-5.9 14.1-.1 1.2 1.1 2.9 3.6 5 7.3 3.7 16.4.1 27.6-3.7 39.4a146.547 146.547 0 0 0-5.1 19.1c-3.3 19.6.1 33.2 10.6 41.7 8.6 6.9 16.5 20.2 17.6 29.7.6 5.2 1.5 10.5 3.9 14.4 2.4 4 6.2 6 11.2 6 .801.017 1.603-.017 2.4-.1 12.7-1.5 12.4-16.4 12.3-25.3v-2.7c0-4.4 1-6.3 2.7-9.5a59.632 59.632 0 0 0 5.2-12.6c4-12.9-4.8-26.1-10.1-34zm-30-51.7c11.8 6.7 24.4 14.7 24.4 24.5 0 1.8-.1 3.4-.2 5-11-11.9-29.5-25.8-29.6-26a.36.36 0 0 0-.3-.1c-1.7-4-3.3-7.6-4.8-10.7a58.145 58.145 0 0 0 10.5 7.3zm-23.2 44.6a131.576 131.576 0 0 1 5-18.8c3.3-10.3 6.4-20.1 5-33.2a260.536 260.536 0 0 1 14.1 36l-24.8 35.5a62.435 62.435 0 0 1 .7-19.5zm6.7 36.4a29.317 29.317 0 0 1-6.8-13.5l25.1-36c1.6 5.3 3.2 10.9 4.7 16.9zm25 47.6c-2.1-3.5-3-8.5-3.5-13.4-1.2-10.2-9.3-23.9-18.4-31.3-.4-.4-.9-.7-1.3-1.1l22-31.2a418.59 418.59 0 0 1 11.4 81.8c-4.8.3-8-1.2-10.2-4.8zm24.3-31.6c-1.7 3.3-3 5.6-3 10.7v2.7c.1 8.7.3 20.6-8.8 22.6a425.29 425.29 0 0 0-7-61.1l21.2 20.1a33.67 33.67 0 0 1-2.4 5zm5.1-12.1c-.6 1.8-1.1 3.4-1.6 4.8l-22.7-21.5c-.1-.1-.2-.1-.3-.2a357.47 357.47 0 0 0-17.3-60.2c6 4.7 19.7 15.8 27.8 25v.3c-.6 6.2-1.2 11.6 2.3 17 .6.9 1.2 1.8 1.9 2.9 5 7.6 13.4 20.2 9.9 31.9z" fill="#1a1a1a"/></g></svg></g><g transform="translate(1015.0 1055.0) rotate(0.0 103.0 102.0) scale(1.8693284936479129 1.871559633027523)"><svg width="110.2" height="109" viewBox="0 0 110.2 109"><g><path d="M3.3 0c-7.9 17.4-.4 44.9 10.1 57.5 6.2 7.4 14.5 13.7 16.9 23 1 4 .8 8.3 1.8 12.3 1.9 7.7 8.4 14 16.1 15.7 7.7 1.7 16.3-1.4 21.2-7.5 12.8-16.1-2-41.6 7.7-59.7 4.9-9 14.8-14 22-21.4 5.4-5.5 9.2-12.5 11.1-19.9H3.3z" style="fill:#1a1a1a"/></g></svg></g><g transform="translate(804.0 589.0) rotate(0.0 132.0 187.0) scale(1.8591549295774648 1.8606965174129353)"><svg width="142" height="201" viewBox="0 0 142 201"><clipPath id="e"><path d="M0 0h141.023v200.625H0z"/></clipPath><g clip-path="url(#e)"><path d="M44.806 45.88c1.437-2.423-.94-6.488-5.31-9.081-4.369-2.593-9.076-2.731-10.514-.31-1.437 2.423.94 6.489 5.31 9.082 4.37 2.593 9.077 2.73 10.514.309z" fill="#fff"/><path d="M40.1 35.725c-.1-.1-.2-.1-.3-.2a2.524 2.524 0 0 1 .1-1.7 1.235 1.235 0 0 0-2.3-.9 4.95 4.95 0 0 0-.3 1.4c-.4-.1-.8-.3-1.2-.4a5.622 5.622 0 0 1 .5-2.8 1.208 1.208 0 1 0-2.2-1 8.977 8.977 0 0 0-.7 3.3h-1.4c-.131-1.42.04-2.85.5-4.2a1.202 1.202 0 1 0-2.3-.7 11.914 11.914 0 0 0-.5 5.5 5.51 5.51 0 0 0-2 1.7c-.9 1.6-.8 3.6.5 5.7a15.307 15.307 0 0 0 5.3 5.1 13.953 13.953 0 0 0 7 2.2h.3c2.3 0 4.1-.8 5-2.3 1.6-2.9-.9-7.7-6-10.7zm3.7 9.6c-.5.8-1.6 1.2-3.1 1.1a12.4 12.4 0 0 1-5.8-1.9 12.836 12.836 0 0 1-4-3.6 6.46 6.46 0 0 0 2 .4 5.491 5.491 0 0 0 5.3-3.9c.253.095.49.23.7.4 4 2.4 5.8 5.9 4.9 7.5z" fill="#1a1a1a"/><path d="m75.4 30.425 5 20s5.3 30.3 15 45 29.3 37.3 29.3 37.3 18 22.7 14.3 42.7-30.7 27-40.3 23-25.7-6.7-44.3-43c-18.7-36.3-17.7-84-17.3-86.3 0 0-12.7-5.4-9.3-12.2 0 0 2.4-2 4.5-1.5s5.5 1.6 6.1-1.6 4.6-23.9 10.5-30l14.9-2.2z" fill="#fece2f"/><path d="M28.4 56.625a11.8 11.8 0 0 0 6.8 3.5c4.2.4 8.2-1.5 8.8-8.5s3.8-21.7 9.7-26.1l-6 1.1s-5.4 6.7-6.9 14.8c-1.6 8.1 1.6 15.4-12.4 15.2zm109.8 122.3-.3-1.2s-38.3 27.5-67.5-18.8c-28.8-46-28-88.2-28-88.2l-5.3-1.6c-.3 2.3-1.3 50 17.3 86.3 18.7 36.3 34.7 39 44.3 43 9.2 3.8 33.6-2.2 39.5-19.5z" fill="#fff"/><g fill="#1a1a1a"><path d="M37.5 80.725c-.1-.1-12.5-7.8-18.5-25.6 2.2-1.2 6.3-4 5.2-6.6-.9-2.1-2.8-1.3-3.8-.9-1.2.5-1.4.4-1.5.2-1.5-3.6-4.4-5.7-6.5-4.8s-2.6 4.4-1.1 8.1a9.091 9.091 0 0 0 4.2 4.9c.37.193.782.296 1.2.3 6.3 18.5 18.9 26.3 19.4 26.6.182.11.387.18.6.2a1.1 1.1 0 0 0 1-.6 1.254 1.254 0 0 0-.2-1.8z"/><path d="M65.5 96.225a1.282 1.282 0 0 0-1.7-.5 29.2 29.2 0 0 1-17.1 2c-13-2.2-25.5-12.5-36.2-29.8 1.9-1.7 5-5.1 3.5-7.3-1.3-1.9-3-.7-3.9-.1-1.1.7-1.3.7-1.5.5-2.2-3.2-5.4-4.7-7.3-3.4-1.9 1.3-1.7 4.9.5 8.2a8.625 8.625 0 0 0 5.1 3.9 2.86 2.86 0 0 0 1.6-.1c8 12.8 20.8 27.8 37.9 30.6 1.885.307 3.79.474 5.7.5 7.7 0 12.6-2.6 12.8-2.8a1.26 1.26 0 0 0 .6-1.7zM54.734 76.977c1.373-.712 1.414-3.356.093-5.905s-3.507-4.04-4.88-3.328c-1.373.712-1.414 3.356-.092 5.905 1.322 2.55 3.507 4.04 4.88 3.328z"/></g><path d="M65.117 55.963c1.437-2.422-.94-6.488-5.31-9.08-4.37-2.594-9.077-2.732-10.514-.31-1.438 2.423.94 6.488 5.309 9.081 4.37 2.593 9.077 2.731 10.515.309z" fill="#fff"/><path d="M71.4 51.925a1.165 1.165 0 0 0-1.7-.3c-1 .669-2.207.953-3.4.8a6.12 6.12 0 0 0-.5-1.2 9.245 9.245 0 0 0 5.1-2.5 1.205 1.205 0 0 0-1.195-2.038 1.2 1.2 0 0 0-.405.238 6.98 6.98 0 0 1-5.2 1.9l-.2-.2a7.167 7.167 0 0 0 3.1-2.6 1.22 1.22 0 0 0-2-1.4 4.8 4.8 0 0 1-3.3 2.1c-.4-.3-.8-.5-1.2-.8a13.953 13.953 0 0 0-7-2.2 5.733 5.733 0 0 0-5.3 2.3c-.9 1.6-.8 3.6.5 5.7a15.307 15.307 0 0 0 5.3 5.1 13.953 13.953 0 0 0 7 2.2h.3c2.3 0 4.1-.8 5-2.3a6.357 6.357 0 0 0 .6-1.8h.4a7.822 7.822 0 0 0 4-1.2 1.506 1.506 0 0 0 .1-1.8zm-7.3 3.5c-.5.8-1.6 1.2-3.1 1.1a12.4 12.4 0 0 1-5.8-1.9 12.837 12.837 0 0 1-4-3.6 6.467 6.467 0 0 0 2 .4 5.49 5.49 0 0 0 5.3-3.9c.253.095.49.23.7.4 4 2.4 5.8 5.9 4.9 7.5z" fill="#1a1a1a"/><path d="M110.9 114.225a3.782 3.782 0 0 1-.5-.6c-15.2-16.4-22.1-31.3-28.2-60.9a154.63 154.63 0 0 0-5.3-20.1 21.849 21.849 0 0 0 4.3-.5 1.284 1.284 0 0 0 .939-1.723 1.3 1.3 0 0 0-.439-.577 44.83 44.83 0 0 1-9-8.5 13.91 13.91 0 0 0 11-6.2 1.21 1.21 0 0 0-.1-1.4 1.42 1.42 0 0 0-1.4-.4c-6.9 2.7-13.1-1.5-15.1-3.2a25.02 25.02 0 0 1-.4-8.7 1.147 1.147 0 0 0-.5-1.2 1.051 1.051 0 0 0-1.3 0 65.831 65.831 0 0 0-21.7 23.7 1.182 1.182 0 0 0-.1 1 1.207 1.207 0 0 0 .7.7c.1 0 .9.3 2.3.7-4.1 6.2-7.1 15.4-8.8 27.3 0 .2-.4 1.5-2.9 1.1a2.92 2.92 0 0 1-.9-.2c-2.4-.4-6.9-1.3-8 3.7-.4 2.6 1.9 8.1 10.5 11.5a205.16 205.16 0 0 0 9.3 64.9c10.3 33.1 27.8 56.2 48.1 63.6a37.732 37.732 0 0 0 13 2.4 36.214 36.214 0 0 0 19.3-5.8c8.9-5.7 14-13.2 15.1-22.1 2.4-19.4-14.9-42.5-29.9-58.5zm27.4 58.4c-1 8.2-5.7 15-14 20.3-9.2 5.9-19.6 7-30.1 3.2-19.5-7.1-36.5-29.7-46.6-62.1a203.91 203.91 0 0 1-9.2-63.3 24.99 24.99 0 0 0 3.2.8h.3a1.188 1.188 0 0 0 1.2-1 1.35 1.35 0 0 0-.9-1.5c-11.7-2.5-14.5-8.5-14.2-10.3.5-2.3 2.1-2.3 5.2-1.7.3.1.6.1.9.2a5.224 5.224 0 0 0 4.2-.8 4.419 4.419 0 0 0 1.5-2.4c1.7-12 4.8-21.3 9-27.1 3.867.693 7.844.453 11.6-.7 1.5 1.7 6 5.7 13.9 6.2a144.307 144.307 0 0 1 5.6 20.6c1.6 8 3.3 14.9 5.2 21.1v.3c.1.4 2.7 9.1-6.4 20-7.1 8.5-10.6 16.4-9.7 21.8a7.384 7.384 0 0 0 3.4 5.1 5.548 5.548 0 0 0 2.8.7c2.7 0 5.8-1.7 9.2-3.5 3.9-2.1 8.4-4.5 13-4.8 7.5-.4 10.3.8 11.2 1.4l.6.6c14.5 15.7 31.4 38.2 29.1 56.9z" fill="#1a1a1a"/></g></svg></g><g transform="translate(942.0 353.0) rotate(0.0 237.0 441.0) translate(0.0 264.0) scale(1.8884462151394423 1.8927038626609443)"><svg width="250.47" height="325.989" viewBox="0 139.483 250.47 325.989"><clipPath id="f"><path d="M0 0h250.703v465.323H0z"/></clipPath><g clip-path="url(#f)"><path d="M61.075 135.523a237.791 237.791 0 0 1 23 35.9 365.063 365.063 0 0 1 17.7 38.7 502.418 502.418 0 0 1 24 81.6 598.144 598.144 0 0 1 11.1 84.4 4.507 4.507 0 0 1-2.498 4.351 4.505 4.505 0 0 1-6.047-2.049 4.505 4.505 0 0 1-.455-1.702v-.1a583.1 583.1 0 0 0-9.3-83.4 501.418 501.418 0 0 0-22.1-80.9 385.727 385.727 0 0 0-16.7-38.5 244.624 244.624 0 0 0-21.9-35.6c-4.2-5.5-1.2-8.3 3.2-2.7z" fill="#1a1a1a"/><path d="M122.775 247.023s1.2-13.8 14-28.2 33.8-25.2 33.8-25.2l41.8-25 23-17.8s10.2-6 12.8-3.8 1 5.5-2.8 11-8.5 10.8-10 26-8 28.5-20.2 35.8-24 1-24 1-13.2-2.2-17 2-7.8 15-15.2 15.5-26.5-1.3-36.2 8.7z" fill="#fece2f"/><path d="M247.375 154.723c2.1-3.6 2.6-6 .6-7.7-2.5-2.2-12.8 3.8-12.8 3.8l-23 17.8-41.8 25s-21 10.8-33.8 25.2-14 28.2-14 28.2a24.87 24.87 0 0 1 11.4-6.4l.1-.3s-2.8-9.6 11.2-16.8c18.2-9.2 14.5-19.2 34-27.5 8.8-3.7 26.6-9.9 33.9-19.8 9.3-12.1 26.1-24.1 34.2-21.5z" fill="#fff"/><path d="M250.675 149.623c-.2-2.7-1.6-3.8-2.6-4.2-4.8-2-14.3 4.5-21.4 10.4-13.4 11.1-28.7 20.1-43.5 28.9-1.1.7-2.3 1.3-3.4 2h-.2a1.031 1.031 0 0 0-.8.6c-15.8 9.4-30.5 18.4-41.7 29.6-11.9 11.9-16.2 28.8-17.8 40.9a113.204 113.204 0 0 0-.6 23.6 1.28 1.28 0 0 0 1.2 1.1h.1a1.212 1.212 0 0 0 1.1-1.3 109.768 109.768 0 0 1 1.5-28.6c2.6-11.6 15.4-12 28.9-12.4 1 0 2-.1 2.9-.1 10.4-.4 12.8-4.4 15.6-9.2a32.897 32.897 0 0 1 5.2-7.2c3.2-3.2 8.9-2.2 15.4-1.1 8.4 1.5 17.9 3.2 26.4-2.8 15.6-10.9 18-28.6 20-42.8 1.1-7.9 5.3-13.3 8.7-17.7 3.1-3.7 5.3-6.5 5-9.7zm-22.7 53.8c-26.2-9.4-56-4.2-68.4-1.4 6.6-4.4 13.7-8.7 21-13 4.5-.7 33-4.4 51 4h.1a42.983 42.983 0 0 1-3.7 10.4zm-12.2 14.3c-7.7 5.4-16.7 3.8-24.6 2.4-6.9-1.2-13.4-2.4-17.6 1.7a33.54 33.54 0 0 0-5.6 7.7c-2.7 4.6-4.5 7.6-13.6 8-1 0-1.9.1-2.9.1-10.3.3-20.8.6-26.8 6.2 2.6-9 7-18.1 14.1-25.2a120.284 120.284 0 0 1 15.2-12.7h.5c.4-.1 39.3-11.9 72.3-.3a36.944 36.944 0 0 1-11 12.1zm19-41.1c-.6 4.5-1.3 9.3-2.4 14.1-8.4-3.9-19.8-5.7-33.9-5.5-4.9.1-9.3.4-12.6.7 10.8-6.4 21.9-13 32.3-20.5h.2c.1 0 10.8-1.5 19.6 1.3a29.555 29.555 0 0 0-3.2 9.9zm9.2-18.9a68.566 68.566 0 0 0-4.9 6.9c-6.1-2.1-13-2.1-17.2-1.9 2.2-1.6 4.3-3.3 6.4-5 9.2-7.6 14.9-10.2 17.7-10.2.375.009.746.076 1.1.2.3.1 1 .4 1.2 2.2.2 2.1-1.8 4.7-4.3 7.8z" fill="#1a1a1a"/><path d="M96.275 180.523s3.5-26 22.8-29.5 42.8 10.2 42.8 10.2 16.5 9.8 16.8 12.5-2.8 2.8-2.8 2.8l-11.5-4.8s-5.2-.2-12.5 4.2a19.936 19.936 0 0 1-18.8 1.2c-4.6-2-19.2-8-27.5-4s-9.3 7.4-9.3 7.4z" fill="#fece2f"/><path d="M130.975 156.723c23.2 1.8 46.2 19.2 46.2 19.2s1.5.5 1.2-2.2-16.8-12.5-16.8-12.5-23.5-13.8-42.8-10.2c-19.3 3.6-22.8 29.5-22.8 29.5s1-3.2 9.2-7.2c.3-.1 10.3-17.7 25.8-16.6z" fill="#fff"/><path d="M179.575 173.423c-2.7-6.5-27.4-18.6-32-20.3a63.175 63.175 0 0 0-20.8-3.8h-1.9c-10.7.6-18.5 5-23.2 13.2a56.825 56.825 0 0 0-6.1 40.4 1.202 1.202 0 0 0 1.2.9h.3a1.256 1.256 0 0 0 .9-1.5 55.038 55.038 0 0 1-1-16.5 2.19 2.19 0 0 0 .3-.5c1.4-5.1 4.1-8.7 8-10.5 8.5-4 20.6.4 27.1 3.3 10.2 4.6 16.5 1 23.1-2.8.9-.5 1.9-1.1 2.8-1.6 3.6-1.9 8.2.1 12.3 1.9 3.7 1.6 7.6 3.3 9.1.1a3.045 3.045 0 0 0-.1-2.3zm-66.4-2.6a21.303 21.303 0 0 0-9 1.8 15.305 15.305 0 0 0-5.9 4.8 51.108 51.108 0 0 1 5.5-13.6c4.9-8.5 13-11.5 20.9-12 1.8 2.4 9 12.9 9.9 24.6-.4-.2-.8-.3-1.2-.5-4.9-2.1-12.7-5.1-20.2-5.1zm23.9 6.5c-.5-11.3-6.7-21.4-9.5-25.5 4.903.083 9.775.789 14.5 2.1 1 1.5 5.6 9.7 6.2 22.5a16.861 16.861 0 0 1-11.2.9zm40.3-2.6c-.5 1-2.6.1-5.9-1.3-4.4-1.9-9.8-4.3-14.4-1.8-1 .5-1.9 1.1-2.9 1.6-1.2.7-2.4 1.4-3.6 2a53.118 53.118 0 0 0-5.2-20.4c.5.2 1 .3 1.4.5 6.4 2.4 28.6 14.1 30.6 18.9z" fill="#1a1a1a"/><path d="M150.775 329.523s7.5-24.5 9.5-34.5 7.8-23 20.8-30.5 21.2-12.2 21.2-12.2l25.8-18.2s10.8-8.8 17.8-5.2.5 14.5.5 14.5-6.8 17.8-7 31.2-1 25.5-13.2 34.2-34.5 10-34.5 10-34.9 4.4-40.9 10.7z" fill="#fece2f"/><path d="M245.775 228.723c-7-3.5-17.8 5.2-17.8 5.2l-25.8 18.2s-8.2 4.8-21.2 12.2-18.8 20.5-20.8 30.5c-1.5 7.7-6.3 24-8.5 31.1a20.41 20.41 0 0 0 4.7-4.5c4.6-5.8 3.9-12.9 6.6-19.3 3.4-7.9 13.7-10.6 18.1-18 2.6-4.3 2.8-9.7 5.3-14.1 4.8-8.5 16.1-10.4 24.1-16.1 8.4-6 13.7-16.5 23.5-19.7 1.9-.6 4.2-.9 5.8.3 2 1.4 2.3 4.2 2.3 6.7l.3 13c1.8-6.5 3.6-11.2 3.6-11.2s6.8-10.8-.2-14.3z" fill="#fff"/><path d="M248.275 229.323c-7.6-6.7-17.2.6-29.5 9.9-7.4 5.6-15.8 12-25.6 16.9-14.9 7.6-25.4 15.4-31.3 31-1.9 5-3.4 10.5-5 16.2-3.3 11.6-6.6 23.6-13.4 33.9a70.462 70.462 0 0 0-11.4 31.7 1.1 1.1 0 0 0 .246.907c.105.124.236.224.383.292.148.067.308.102.471.101h.1a1.202 1.202 0 0 0 1.2-1.1 67.173 67.173 0 0 1 11-30.6c1-1.5 1.9-3 2.7-4.5.1-.1.2-.1.3-.2 7.8-8.7 23-10.7 39-12.8 14.8-2 30-4 39.4-11.8 12.6-10.3 12.7-18.3 12.9-28.4.1-5.7.2-12.2 2.6-20.5 1.5-5.4 3.1-9.8 4.5-13.8 3.1-8.8 5-14.1 1.4-17.2zm-54 29c10-5.1 18.5-11.5 26-17.2 8.8-6.7 15.8-12 21.3-12 .369-.016.739.017 1.1.1-2 1.6-4.2 4.5-7.3 8.7a178.327 178.327 0 0 1-32.9 35.1c-2 1.6-4 3.3-5.9 4.9l-5.1-18.2c.9-.4 1.9-.9 2.8-1.4zm37.3 42.9-41.7-13.9c4.5-4.2 9.2-8.3 14.1-12.4.4-.3.7-.6 1.1-.9l32.2 10.6c-.2 5.9-1.1 11-5.7 16.6zm-48.3-10.9-5.7-21.2v-.1a73.855 73.855 0 0 1 11.8-8l5.3 18.8c-4.1 3.5-7.9 7-11.4 10.5zm-24 13.7c1.6-5.7 3.1-11.1 5-16a45.894 45.894 0 0 1 11.2-17.2l5.8 21.4a357.86 357.86 0 0 0-28.3 31.7c2.5-6.5 4.4-13.2 6.3-19.9zm66.1 3.3c-8.9 7.3-23.8 9.3-38.2 11.3-12.1 1.6-24.4 3.3-33.3 8.2a358.14 358.14 0 0 1 34.1-37.5c.11.105.25.175.4.2l41.4 13.8c-1.2 1.2-2.7 2.6-4.4 4zm19.2-61.6c-1.3 3.8-3 8.5-4.5 14-2.4 8.6-2.5 15.2-2.7 21.1v1.3l-30-9.9a186.901 186.901 0 0 0 30-32.7c3.8-5.1 6.6-8.8 8.5-8.9.323.201.625.436.9.7 2.2 1.9.5 6.6-2.2 14.4z" fill="#1a1a1a"/><path d="M68.859 41.768S82.977 14.7 121.662 4.636C160.347-5.428 210.1 7.681 210.1 7.681s11.212 4.016 9.215 9.772-9.791 3.3-9.791 3.3-12.146-3.047-17.82 3.17-13.779 14.914-24.764 12.687-27-10.314-34.36-6.684-10.618 5.766-15.74 4.225-24.635-5.269-33.74-.812a89.79 89.79 0 0 0-14.241 8.429z" fill="#fece2f"/><path d="M215.769 11.288a6.127 6.127 0 0 0-5.57-3.614s-49.76-13.21-88.437-3.045c-38.685 10.064-52.8 37.132-52.8 37.132a81.197 81.197 0 0 1 14.228-8.529c.292-.121.677-.349 1.069-.477l.093-.107s21.526-21.578 55.462-23.687c27.951-1.683 61.554 8.463 75.955 2.327z" fill="#fff"/><path d="M218.825 11.974c-5.312-5.638-20.159-8.594-31.693-10.081A251.301 251.301 0 0 0 139.219.582 96.475 96.475 0 0 0 111.1 6.989c-.1.007-.292.121-.392.128a89.482 89.482 0 0 0-49.7 48.341c-.27.421-.349.727-.442.834a1.698 1.698 0 0 0-.164.513 105.897 105.897 0 0 0-5.422 16.826c-11.356 47.624 14.343 80.586 14.563 80.869a1.234 1.234 0 0 0 1.033.427c.242-.037.475-.121.684-.249a1.167 1.167 0 0 0 .179-1.717c-.22-.285-25.157-32.4-14.115-78.8A111.83 111.83 0 0 1 63 56.72c1.861-3.44 11.436-19.659 21.64-22.789 8.929-2.74 17.976-.976 25.913.666 7.017 1.407 13.115 2.578 16.935-.1l.478-.335 1.432-1a.762.762 0 0 0 .385-.228c.1-.007.093-.106.185-.213 5.26-3.582 8.837-4.036 26.959 2.7 19.455 7.14 27.2-1.029 34.01-8.129.934-.969 1.96-2.044 2.894-3.013 3.564-3.461 9.427-2.774 14.578-2.238 5.657.6 11.62 1.281 12.5-4.7a7.124 7.124 0 0 0-2.084-5.367zm-44.952 23.442-24.1-32.977c4.1-.091 8.315-.089 12.532.013L183 31.259a19.42 19.42 0 0 1-9.127 4.157zM126.039 32.4c-2.958 2.115-8.55 1.008-15.055-.234-7.829-1.55-17.489-3.47-27.109-.582-3.827 1.174-7.447 3.837-10.726 7.077A83.442 83.442 0 0 1 89.4 21.863a89.492 89.492 0 0 1 21.38-12.344l16.406 22.093c-.285.221-.477.335-.763.556zm10.09-4.726a14.129 14.129 0 0 0-6.94 2.5L113.118 8.551a92.732 92.732 0 0 1 26.164-5.667c2.494-.177 4.995-.255 7.488-.432l24.21 33.169a36.49 36.49 0 0 1-13.422-2.656c-11.113-4.023-17.04-5.608-21.429-5.296zm82.146-10.744c-.465 3.341-3.172 3.333-9.741 2.6-5.657-.6-12.126-1.344-16.538 2.879-1.033.975-2.06 2.051-2.993 3.019-1.4 1.4-2.7 2.9-4.213 4.209L165.323 2.539c23.319.851 45.753 4.772 51.614 11.073a4.007 4.007 0 0 1 1.338 3.313z" fill="#1a1a1a"/><path d="M5.22 26.536c6.35-2.355 11.058.418 13.264 6.076s4.268 14.935 9.9 15.137 12.433-1.384 15.884 9.1 1 28.2 1 28.2-3.629 22.313 1.212 31.193L22.758 99.878S9.924 88.559 8.348 77.643s2.046-20.6-1.827-27.139c-3.873-6.539-9.602-20.872-1.3-23.968z" fill="#fece2f"/><path d="M3.909 44.775S2.852 34.123 9.414 33.356c6.662-.773 2.822 14.336 11.805 18.01s15.83 2.685 18.055 12.853-5.966 23.281 5.437 48.337c-.085-1.2-.891-16.779-.891-16.779s3.073-20.269 2.286-28.534-3.42-17.1-9.375-19.084c-5.95-1.883-11.643 2.631-15.991-9.191s-7.6-15.2-14.472-13.208C-.604 27.752 1.3 39.045 3.908 44.775z" fill="#fff"/><path d="M62.418 138.868c-.106-.093-5.7-8.217-13.3-20.71a1.28 1.28 0 0 0-.143-.592c-5.4-9.642-4.2-19.652-2.607-32.5.393-2.935.779-5.97 1.051-9.2 1.1-11.307-1.095-21.076-5.973-26.243-2.165-2.253-4.658-3.48-7.252-3.295l-.9.064c-5.194.268-8.592.409-11.189-7.928-1.807-5.686-4.141-11.736-8.594-13.726-2.486-1.126-5.371-.821-8.671.716A8.25 8.25 0 0 0 .516 30.88c-1.363 4.809.017 11.528 3.619 17.087 3.617 5.758 3.444 11.786 3.3 18.212a45.441 45.441 0 0 0-.023 5.315c.348 19.023 9.955 27.263 39.343 47.233 7.936 12.973 13.745 21.38 13.86 21.573a1.145 1.145 0 0 0 1.14.521c.21-.036.41-.118.584-.242a1.346 1.346 0 0 0 .079-1.711zM45.005 75.742c-.279 3.128-.666 6.163-1.059 9.1-1.079 8.8-2.052 16.286-.843 23.419-1.375-2.409-2.848-4.811-4.229-7.319-1.033-1.832-2.072-3.763-3.211-5.687a.37.37 0 0 0 .078-.306l7.006-38.293c1.915 4.374 3.066 10.708 2.258 19.086zm-31.347 11.75a28.792 28.792 0 0 1-3.345-8.986l16.406 5.15c1.638 3.293 3.367 6.479 4.983 9.472l-17.837-5.551c-.007-.1-.107-.092-.207-.085zm26.007-36.133a14.04 14.04 0 0 1 1.324 1.71l-7.07 38.8c-1.5-2.8-3.011-5.7-4.627-8.693l-.008-.1-.007-.1 5.594-34.182a8.04 8.04 0 0 1 4.794 2.565zM9.638 26.624a5.955 5.955 0 0 1 2.735.407c3.519 1.555 5.612 7.02 7.284 12.215 2.988 9.612 7.619 9.885 12.72 9.723l-5.043 30.63C19.048 63.15 10.9 44.38 6.688 27.436a6.95 6.95 0 0 1 2.95-.811zm-3.486 20.1c-3.161-4.99-4.491-11.01-3.278-15.106a5.822 5.822 0 0 1 1.7-2.927C8.881 45.625 17.024 64.3 25.31 80.75l-15.281-4.83c-.2-1.39-.2-2.793-.311-4.39-.021-1.7.058-3.412.038-5.115.231-6.633.454-13.366-3.604-19.694zm9.635 43.928L32.5 95.879c.123.07.266.095.406.07a.753.753 0 0 0 .392-.127c1.154 2.124 2.307 4.247 3.446 6.171 2.3 4.148 4.578 8 6.742 11.652-14.125-9.724-22.722-16.432-27.699-22.996z" fill="#1a1a1a"/><path d="M107.775 286.023s-4.5-15.4-5.2-23.1-5-16.6-10.5-19.8-9.9-3.1-10.8-10.1-8-16.1-14-14.4-6 7.1-3.9 12.1 6.2 6.1 6 17.9 1.9 20.5 7.2 23.9 25.7 10.1 31.2 13.5z" fill="#fece2f"/><path d="M102.675 278.723c-13.7-17-25.7-8.8-26.4-21.8s-5-15.2-6-25.2 3.8-10.8 3.8-10.8l.1-.4c-2.2-1.8-4.6-2.6-6.9-2-6 1.8-6 7.1-3.9 12.1s6.2 6.1 6 17.9 1.9 20.5 7.2 23.9 25.6 10.1 31.1 13.5z" fill="#fff"/><path d="M112.775 289.723c0-.1-.1-.2-.2-.3-5.6-7.6-7.8-17-9.4-28.8-2.1-15.2-11.8-19.8-15.9-21-4.4-1.3-4.6-2.6-5.7-8.5-.1-.7-.3-1.5-.4-2.4a14.717 14.717 0 0 0-6.8-9.9 10.835 10.835 0 0 0-8.8-1.3 6.603 6.603 0 0 0-4.3 4c-1.2 3.2-.2 7.6 2.5 12 3.5 5.6 4.9 9.2 4.7 17.4-.4 15.3 3.3 21.5 15.1 25.4a89.038 89.038 0 0 1 26.9 14.3c13.3 18.4 15 33.2 15.1 33.4a1.28 1.28 0 0 0 1.2 1.1h.1a1.212 1.212 0 0 0 1.1-1.3c-.1-.6-1.8-15.4-15.2-34.1zm-12-28.8a97.06 97.06 0 0 0 4.2 19c-4.1-4.9-7.9-9.5-11.3-13.9 0-.1.1-.2.1-.3l.4-19.3c2.9 2.9 5.6 7.4 6.6 14.5zm-12.6-18.5a16.592 16.592 0 0 1 3.6 2l-.4 18.6c-1.3-1.8-2.6-3.6-3.9-5.3zm-15-21.4a11.82 11.82 0 0 1 5.6 8.2c.173.759.307 1.527.4 2.3 1 5.6 1.5 8.3 6.5 10.1l-.6 12.7a169.632 169.632 0 0 1-17.6-34.6c.3 0 .6-.1.9-.1a9.502 9.502 0 0 1 4.8 1.4zm-7.3 11.2c-2.3-3.6-3.1-7.4-2.2-9.8a3.891 3.891 0 0 1 1.6-2 173.265 173.265 0 0 0 18.4 36l-12.7-.2c-.1-1.6-.1-3.3-.1-5.3.3-8.7-1.3-12.8-5-18.7zm5.4 26.5 14.2.2c2.9 4.1 6 8.2 9.4 12.4l-15.9.3c-4.8-2.6-7-6.4-7.7-12.9zm13.1 15.4a.103.103 0 0 1-.07-.029.1.1 0 0 1-.03-.071l12.4-.2c2.5 3.1 5.2 6.3 8.1 9.7.1.1.2.2.2.3a90.993 90.993 0 0 0-20.6-9.7z" fill="#1a1a1a"/><path d="M105.422 59.724s20.451-7.066 31.694-6.862 18.832 12.5 18.832 12.5S160 77.3 164.22 81.615s13.295 15 16.848 19.857 5.857 14.722 5.813 19.738-3.746 10.792-5.535 12.423-11.829 5.652-18.581-.485-7.359-17.523-7.359-17.523-1.52-10.118-10.446-14.4c-7.992-3.843-13.15-4.48-13.15-4.48s-7.771-3.558-9.693-9.437-6.907-25.271-16.695-27.584z" fill="#fece2f"/><path d="M186.633 117.719c-6.361 13.484-22.989 10.855-23.654-1.329s-9.949-24.356-22.973-24.234-14.017-11.035-17.624-22.308-12.465-8.939-12.465-8.939l.306 1.482c6.744 6.037 10.343 20.018 11.987 24.813 1.921 5.879 9.693 9.438 9.693 9.438s5.058.643 13.15 4.48c8.925 4.278 10.446 14.4 10.446 14.4s.714 11.478 7.359 17.523 16.785 2.016 18.581.485 5.489-7.407 5.534-12.423c-.064-.901-.248-2.091-.34-3.388z" fill="#fff"/><path d="M166.158 82.079c-4.3-4.1-5.547-7.526-6.914-11.238a33.953 33.953 0 0 0-6.644-11.759c-8.5-9.622-19.24-8.359-29.665-5.513-8.949 2.44-18.968 5.356-21.626 6.046a44.373 44.373 0 0 0-13.08 3.635C76.193 68.817 66.541 79.727 62 93.384c-8.618 25.474.554 50.292.575 50.591a1.292 1.292 0 0 0 1.261.813l.3-.022a1.31 1.31 0 0 0 .792-1.56c-.12-.292-8.937-24.333-.662-48.981 4.39-12.943 13.472-23.413 24.934-28.637a43.02 43.02 0 0 1 11.394-3.316c.2-.014.306.079.505.065 10.1-1.82 12.893 6.5 16.181 16.094 2.91 8.516 6.2 18.107 15.658 20.042 19.435 4.034 20.6 13.375 21.529 20.828.213 1.589.426 3.178.725 4.56 1.771 6.591 7.7 12.486 14.129 14.035 1.414.376 2.881.508 4.339.393a14.001 14.001 0 0 0 9.478-4.883c5.193-5.883 13.771-22.031-16.98-51.327zM150.8 60.613a43.383 43.383 0 0 1 2.321 3.043L135.783 69.4c-2.1-1.354-4.3-2.7-6.489-3.85l19.568-6.8c.638.55 1.289 1.207 1.938 1.863zm-27.207-4.785c9.049-2.447 16.616-3.185 23.034 1.071l-20.352 7.059c-1.04-.528-2.172-.949-3.2-1.376a43.17 43.17 0 0 0-12.553-3.119c3.828-1.075 8.545-2.412 13.07-3.635zm-3.878 21.628c-2.028-5.971-4.056-11.942-8.109-15.364a44.74 44.74 0 0 1 10.522 2.762 79.868 79.868 0 0 1 19.154 11.372l-8.652 19.361c-7.366-2.087-10.255-10.299-12.916-18.131zm15.267 18.766 8.218-18.328a122.763 122.763 0 0 1 21.428 23.642l-7.575 17.581-.021-.3c-.94-7.652-2.282-18.083-22.051-22.595zm22.88 27.148 8.437-19.546a125.01 125.01 0 0 1 4.848 7.576l.007.1-8.864 19.176a17.814 17.814 0 0 1-4.429-7.306zm12.171 11.868a15.721 15.721 0 0 1-5.92-2.888l8.415-18.442a90.866 90.866 0 0 1 8.058 17.473c.121.293.235.485.442.571a10.998 10.998 0 0 1-10.996 3.286zm12.755-5.316c-3.571-12.178-20.2-41.674-44.375-58.8l16.061-5.351a33.313 33.313 0 0 1 2.52 5.836c1.373 3.812 2.853 7.717 7.582 12.194 11.723 11.2 18.665 21.432 20.72 30.609 1.62 7.299-.235 12.243-2.509 15.512z" fill="#1a1a1a"/><path d="M107.275 315.223s-13.2-2.2-24.2 9.8-12.5 25.8-17 31.5-14.2 24.8-9.5 44.8 14.5 24.8 18.2 35 10.8 31.8 21.8 27.8 6.5-23 6.5-23-4.5-19-.5-25.8 18-20.2 14.2-40.8-18.4-35.7-16.2-49.5c.9-6.5 6.7-9.8 6.7-9.8z" fill="#fece2f"/><path d="M102.975 441.023s-.1-.6-.3-1.6c-.2-.2-.5-.3-.7-.5a10.814 10.814 0 0 1-8.7 2.9c-4.8-.7-8.4-4.5-11.7-8a116.21 116.21 0 0 1-7.8-9.3 54.647 54.647 0 0 1-10.3-32.2 26.626 26.626 0 0 1 1.5-9.7c2-5.2 6.3-9.4 7.8-14.8 1.2-4.4.4-9.1 1.1-13.5 1.1-6.9 5.6-12.7 8-19.2 1.1-2.8 1.7-5.8 3.2-8.4 4.2-7.7 11.8-8.4 19.1-11.2.3-.1.6-.3.9-.4a28.982 28.982 0 0 0-22 9.9c-11 12-12.5 25.8-17 31.5s-14.2 24.8-9.5 44.8 14.5 24.8 18.2 35 10.8 31.8 21.8 27.8 6.4-23.1 6.4-23.1z" fill="#fff"/><path d="M118.775 318.223a21.262 21.262 0 0 0-9.8-4 1.147 1.147 0 0 0-1-.1 32.224 32.224 0 0 0-8.7.3c-14.1 2.3-22.9 12.3-30.6 34.5a94.007 94.007 0 0 1-6.7 14.2c-5.5 9.9-10.7 19.3-7 37.9 1.7 8.7 7 16.6 12 24.3 4.3 6.5 8.8 13.3 10.8 20.3 2.9 9.8 6.7 16 11.2 18.5a10.05 10.05 0 0 0 4.8 1.2 11.847 11.847 0 0 0 3.2-.5h.1c10.2-3.2 8.3-19 5.2-36.4-1.5-8.7 2.2-14.2 6.6-20.6 4.6-6.8 9.8-14.4 9.5-27.2-.3-9.5-4.8-19.6-9.2-29.3-6.7-14.8-12.5-27.6-1.3-34.3a.759.759 0 0 0 .4-.2c.1 0 .1-.1.2-.2a19.52 19.52 0 0 1 8.9 3.6c7.7 5.7 9.2 16.1 9.2 16.2a1.261 1.261 0 0 0 1.399 1.091 1.26 1.26 0 0 0 1.101-1.391c-.2-.5-1.7-11.5-10.3-17.9zm-54.7 46.1a90.127 90.127 0 0 0 6.9-14.6c7.1-20.5 15.1-30 27.3-32.6-3.9 2.8-8.5 8.1-12.2 18.5-3 8.4-4.7 22.8-4.8 40l-.3.3-21.3 31.9a40.063 40.063 0 0 1-2.3-7.2c-3.5-17.8 1.2-26.4 6.7-36.3zm49 31.5-29-30.7c.2-4.4.6-8.6 1-12.4l30.6 33.5a30.748 30.748 0 0 1-2.6 9.6zm-52.2 14.5 20.4-30.5c0 3.6.1 7.4.3 11.2l-.3.3-16.7 25.6a72.824 72.824 0 0 1-3.7-6.6zm29.4 51.6c-4-2.1-7.4-7.9-10.1-17-2.1-7.3-6.7-14.2-11.1-20.9-1-1.6-2.1-3.2-3.1-4.8l15.8-24.2c0 .6.1 1.2.1 1.8 1.7 27.3 6.5 51.2 13.2 65.9a7.275 7.275 0 0 1-4.8-.8zm16.6-55.5c-4.5 6.6-8.7 12.8-7 22.4 3.3 18.6 4 30.2-2.5 33.2-10.5-22.6-14.6-63.2-13.5-93.5l28.1 29.7a75.21 75.21 0 0 1-5.1 8.2zm.1-54.2c4.3 9.5 8.8 19.3 9 28.4v2.2l-30.5-33.3a64.679 64.679 0 0 1 2.9-13.1c4.5-12.3 9.9-17 13.7-18.8l1.5-.6c-8.9 8.2-2.9 21.4 3.4 35.2z" fill="#1a1a1a"/></g></svg></g><g transform="translate(922.0 355.0) rotate(5.015860735649684 238.5 444.0) translate(0.0 0.0) scale(1.900398406374502 1.905579399141631)"><svg width="251" height="143.264" viewBox="0 0 251 143.264"><clipPath id="g"><path d="M0 0h250.703v465.323H0z"/></clipPath><g clip-path="url(#g)"><path d="M61.075 135.523a237.791 237.791 0 0 1 23 35.9 365.063 365.063 0 0 1 17.7 38.7 502.418 502.418 0 0 1 24 81.6 598.144 598.144 0 0 1 11.1 84.4 4.507 4.507 0 0 1-2.498 4.351 4.505 4.505 0 0 1-6.047-2.049 4.505 4.505 0 0 1-.455-1.702v-.1a583.1 583.1 0 0 0-9.3-83.4 501.418 501.418 0 0 0-22.1-80.9 385.727 385.727 0 0 0-16.7-38.5 244.624 244.624 0 0 0-21.9-35.6c-4.2-5.5-1.2-8.3 3.2-2.7z" fill="#1a1a1a"/><path d="M122.775 247.023s1.2-13.8 14-28.2 33.8-25.2 33.8-25.2l41.8-25 23-17.8s10.2-6 12.8-3.8 1 5.5-2.8 11-8.5 10.8-10 26-8 28.5-20.2 35.8-24 1-24 1-13.2-2.2-17 2-7.8 15-15.2 15.5-26.5-1.3-36.2 8.7z" fill="#fece2f"/><path d="M247.375 154.723c2.1-3.6 2.6-6 .6-7.7-2.5-2.2-12.8 3.8-12.8 3.8l-23 17.8-41.8 25s-21 10.8-33.8 25.2-14 28.2-14 28.2a24.87 24.87 0 0 1 11.4-6.4l.1-.3s-2.8-9.6 11.2-16.8c18.2-9.2 14.5-19.2 34-27.5 8.8-3.7 26.6-9.9 33.9-19.8 9.3-12.1 26.1-24.1 34.2-21.5z" fill="#fff"/><path d="M250.675 149.623c-.2-2.7-1.6-3.8-2.6-4.2-4.8-2-14.3 4.5-21.4 10.4-13.4 11.1-28.7 20.1-43.5 28.9-1.1.7-2.3 1.3-3.4 2h-.2a1.031 1.031 0 0 0-.8.6c-15.8 9.4-30.5 18.4-41.7 29.6-11.9 11.9-16.2 28.8-17.8 40.9a113.204 113.204 0 0 0-.6 23.6 1.28 1.28 0 0 0 1.2 1.1h.1a1.212 1.212 0 0 0 1.1-1.3 109.768 109.768 0 0 1 1.5-28.6c2.6-11.6 15.4-12 28.9-12.4 1 0 2-.1 2.9-.1 10.4-.4 12.8-4.4 15.6-9.2a32.897 32.897 0 0 1 5.2-7.2c3.2-3.2 8.9-2.2 15.4-1.1 8.4 1.5 17.9 3.2 26.4-2.8 15.6-10.9 18-28.6 20-42.8 1.1-7.9 5.3-13.3 8.7-17.7 3.1-3.7 5.3-6.5 5-9.7zm-22.7 53.8c-26.2-9.4-56-4.2-68.4-1.4 6.6-4.4 13.7-8.7 21-13 4.5-.7 33-4.4 51 4h.1a42.983 42.983 0 0 1-3.7 10.4zm-12.2 14.3c-7.7 5.4-16.7 3.8-24.6 2.4-6.9-1.2-13.4-2.4-17.6 1.7a33.54 33.54 0 0 0-5.6 7.7c-2.7 4.6-4.5 7.6-13.6 8-1 0-1.9.1-2.9.1-10.3.3-20.8.6-26.8 6.2 2.6-9 7-18.1 14.1-25.2a120.284 120.284 0 0 1 15.2-12.7h.5c.4-.1 39.3-11.9 72.3-.3a36.944 36.944 0 0 1-11 12.1zm19-41.1c-.6 4.5-1.3 9.3-2.4 14.1-8.4-3.9-19.8-5.7-33.9-5.5-4.9.1-9.3.4-12.6.7 10.8-6.4 21.9-13 32.3-20.5h.2c.1 0 10.8-1.5 19.6 1.3a29.555 29.555 0 0 0-3.2 9.9zm9.2-18.9a68.566 68.566 0 0 0-4.9 6.9c-6.1-2.1-13-2.1-17.2-1.9 2.2-1.6 4.3-3.3 6.4-5 9.2-7.6 14.9-10.2 17.7-10.2.375.009.746.076 1.1.2.3.1 1 .4 1.2 2.2.2 2.1-1.8 4.7-4.3 7.8z" fill="#1a1a1a"/><path d="M96.275 180.523s3.5-26 22.8-29.5 42.8 10.2 42.8 10.2 16.5 9.8 16.8 12.5-2.8 2.8-2.8 2.8l-11.5-4.8s-5.2-.2-12.5 4.2a19.936 19.936 0 0 1-18.8 1.2c-4.6-2-19.2-8-27.5-4s-9.3 7.4-9.3 7.4z" fill="#fece2f"/><path d="M130.975 156.723c23.2 1.8 46.2 19.2 46.2 19.2s1.5.5 1.2-2.2-16.8-12.5-16.8-12.5-23.5-13.8-42.8-10.2c-19.3 3.6-22.8 29.5-22.8 29.5s1-3.2 9.2-7.2c.3-.1 10.3-17.7 25.8-16.6z" fill="#fff"/><path d="M179.575 173.423c-2.7-6.5-27.4-18.6-32-20.3a63.175 63.175 0 0 0-20.8-3.8h-1.9c-10.7.6-18.5 5-23.2 13.2a56.825 56.825 0 0 0-6.1 40.4 1.202 1.202 0 0 0 1.2.9h.3a1.256 1.256 0 0 0 .9-1.5 55.038 55.038 0 0 1-1-16.5 2.19 2.19 0 0 0 .3-.5c1.4-5.1 4.1-8.7 8-10.5 8.5-4 20.6.4 27.1 3.3 10.2 4.6 16.5 1 23.1-2.8.9-.5 1.9-1.1 2.8-1.6 3.6-1.9 8.2.1 12.3 1.9 3.7 1.6 7.6 3.3 9.1.1a3.045 3.045 0 0 0-.1-2.3zm-66.4-2.6a21.303 21.303 0 0 0-9 1.8 15.305 15.305 0 0 0-5.9 4.8 51.108 51.108 0 0 1 5.5-13.6c4.9-8.5 13-11.5 20.9-12 1.8 2.4 9 12.9 9.9 24.6-.4-.2-.8-.3-1.2-.5-4.9-2.1-12.7-5.1-20.2-5.1zm23.9 6.5c-.5-11.3-6.7-21.4-9.5-25.5 4.903.083 9.775.789 14.5 2.1 1 1.5 5.6 9.7 6.2 22.5a16.861 16.861 0 0 1-11.2.9zm40.3-2.6c-.5 1-2.6.1-5.9-1.3-4.4-1.9-9.8-4.3-14.4-1.8-1 .5-1.9 1.1-2.9 1.6-1.2.7-2.4 1.4-3.6 2a53.118 53.118 0 0 0-5.2-20.4c.5.2 1 .3 1.4.5 6.4 2.4 28.6 14.1 30.6 18.9z" fill="#1a1a1a"/><path d="M150.775 329.523s7.5-24.5 9.5-34.5 7.8-23 20.8-30.5 21.2-12.2 21.2-12.2l25.8-18.2s10.8-8.8 17.8-5.2.5 14.5.5 14.5-6.8 17.8-7 31.2-1 25.5-13.2 34.2-34.5 10-34.5 10-34.9 4.4-40.9 10.7z" fill="#fece2f"/><path d="M245.775 228.723c-7-3.5-17.8 5.2-17.8 5.2l-25.8 18.2s-8.2 4.8-21.2 12.2-18.8 20.5-20.8 30.5c-1.5 7.7-6.3 24-8.5 31.1a20.41 20.41 0 0 0 4.7-4.5c4.6-5.8 3.9-12.9 6.6-19.3 3.4-7.9 13.7-10.6 18.1-18 2.6-4.3 2.8-9.7 5.3-14.1 4.8-8.5 16.1-10.4 24.1-16.1 8.4-6 13.7-16.5 23.5-19.7 1.9-.6 4.2-.9 5.8.3 2 1.4 2.3 4.2 2.3 6.7l.3 13c1.8-6.5 3.6-11.2 3.6-11.2s6.8-10.8-.2-14.3z" fill="#fff"/><path d="M248.275 229.323c-7.6-6.7-17.2.6-29.5 9.9-7.4 5.6-15.8 12-25.6 16.9-14.9 7.6-25.4 15.4-31.3 31-1.9 5-3.4 10.5-5 16.2-3.3 11.6-6.6 23.6-13.4 33.9a70.462 70.462 0 0 0-11.4 31.7 1.1 1.1 0 0 0 .246.907c.105.124.236.224.383.292.148.067.308.102.471.101h.1a1.202 1.202 0 0 0 1.2-1.1 67.173 67.173 0 0 1 11-30.6c1-1.5 1.9-3 2.7-4.5.1-.1.2-.1.3-.2 7.8-8.7 23-10.7 39-12.8 14.8-2 30-4 39.4-11.8 12.6-10.3 12.7-18.3 12.9-28.4.1-5.7.2-12.2 2.6-20.5 1.5-5.4 3.1-9.8 4.5-13.8 3.1-8.8 5-14.1 1.4-17.2zm-54 29c10-5.1 18.5-11.5 26-17.2 8.8-6.7 15.8-12 21.3-12 .369-.016.739.017 1.1.1-2 1.6-4.2 4.5-7.3 8.7a178.327 178.327 0 0 1-32.9 35.1c-2 1.6-4 3.3-5.9 4.9l-5.1-18.2c.9-.4 1.9-.9 2.8-1.4zm37.3 42.9-41.7-13.9c4.5-4.2 9.2-8.3 14.1-12.4.4-.3.7-.6 1.1-.9l32.2 10.6c-.2 5.9-1.1 11-5.7 16.6zm-48.3-10.9-5.7-21.2v-.1a73.855 73.855 0 0 1 11.8-8l5.3 18.8c-4.1 3.5-7.9 7-11.4 10.5zm-24 13.7c1.6-5.7 3.1-11.1 5-16a45.894 45.894 0 0 1 11.2-17.2l5.8 21.4a357.86 357.86 0 0 0-28.3 31.7c2.5-6.5 4.4-13.2 6.3-19.9zm66.1 3.3c-8.9 7.3-23.8 9.3-38.2 11.3-12.1 1.6-24.4 3.3-33.3 8.2a358.14 358.14 0 0 1 34.1-37.5c.11.105.25.175.4.2l41.4 13.8c-1.2 1.2-2.7 2.6-4.4 4zm19.2-61.6c-1.3 3.8-3 8.5-4.5 14-2.4 8.6-2.5 15.2-2.7 21.1v1.3l-30-9.9a186.901 186.901 0 0 0 30-32.7c3.8-5.1 6.6-8.8 8.5-8.9.323.201.625.436.9.7 2.2 1.9.5 6.6-2.2 14.4z" fill="#1a1a1a"/><path d="M68.859 41.768S82.977 14.7 121.662 4.636C160.347-5.428 210.1 7.681 210.1 7.681s11.212 4.016 9.215 9.772-9.791 3.3-9.791 3.3-12.146-3.047-17.82 3.17-13.779 14.914-24.764 12.687-27-10.314-34.36-6.684-10.618 5.766-15.74 4.225-24.635-5.269-33.74-.812a89.79 89.79 0 0 0-14.241 8.429z" fill="#fece2f"/><path d="M215.769 11.288a6.127 6.127 0 0 0-5.57-3.614s-49.76-13.21-88.437-3.045c-38.685 10.064-52.8 37.132-52.8 37.132a81.197 81.197 0 0 1 14.228-8.529c.292-.121.677-.349 1.069-.477l.093-.107s21.526-21.578 55.462-23.687c27.951-1.683 61.554 8.463 75.955 2.327z" fill="#fff"/><path d="M218.825 11.974c-5.312-5.638-20.159-8.594-31.693-10.081A251.301 251.301 0 0 0 139.219.582 96.475 96.475 0 0 0 111.1 6.989c-.1.007-.292.121-.392.128a89.482 89.482 0 0 0-49.7 48.341c-.27.421-.349.727-.442.834a1.698 1.698 0 0 0-.164.513 105.897 105.897 0 0 0-5.422 16.826c-11.356 47.624 14.343 80.586 14.563 80.869a1.234 1.234 0 0 0 1.033.427c.242-.037.475-.121.684-.249a1.167 1.167 0 0 0 .179-1.717c-.22-.285-25.157-32.4-14.115-78.8A111.83 111.83 0 0 1 63 56.72c1.861-3.44 11.436-19.659 21.64-22.789 8.929-2.74 17.976-.976 25.913.666 7.017 1.407 13.115 2.578 16.935-.1l.478-.335 1.432-1a.762.762 0 0 0 .385-.228c.1-.007.093-.106.185-.213 5.26-3.582 8.837-4.036 26.959 2.7 19.455 7.14 27.2-1.029 34.01-8.129.934-.969 1.96-2.044 2.894-3.013 3.564-3.461 9.427-2.774 14.578-2.238 5.657.6 11.62 1.281 12.5-4.7a7.124 7.124 0 0 0-2.084-5.367zm-44.952 23.442-24.1-32.977c4.1-.091 8.315-.089 12.532.013L183 31.259a19.42 19.42 0 0 1-9.127 4.157zM126.039 32.4c-2.958 2.115-8.55 1.008-15.055-.234-7.829-1.55-17.489-3.47-27.109-.582-3.827 1.174-7.447 3.837-10.726 7.077A83.442 83.442 0 0 1 89.4 21.863a89.492 89.492 0 0 1 21.38-12.344l16.406 22.093c-.285.221-.477.335-.763.556zm10.09-4.726a14.129 14.129 0 0 0-6.94 2.5L113.118 8.551a92.732 92.732 0 0 1 26.164-5.667c2.494-.177 4.995-.255 7.488-.432l24.21 33.169a36.49 36.49 0 0 1-13.422-2.656c-11.113-4.023-17.04-5.608-21.429-5.296zm82.146-10.744c-.465 3.341-3.172 3.333-9.741 2.6-5.657-.6-12.126-1.344-16.538 2.879-1.033.975-2.06 2.051-2.993 3.019-1.4 1.4-2.7 2.9-4.213 4.209L165.323 2.539c23.319.851 45.753 4.772 51.614 11.073a4.007 4.007 0 0 1 1.338 3.313z" fill="#1a1a1a"/><path d="M5.22 26.536c6.35-2.355 11.058.418 13.264 6.076s4.268 14.935 9.9 15.137 12.433-1.384 15.884 9.1 1 28.2 1 28.2-3.629 22.313 1.212 31.193L22.758 99.878S9.924 88.559 8.348 77.643s2.046-20.6-1.827-27.139c-3.873-6.539-9.602-20.872-1.3-23.968z" fill="#fece2f"/><path d="M3.909 44.775S2.852 34.123 9.414 33.356c6.662-.773 2.822 14.336 11.805 18.01s15.83 2.685 18.055 12.853-5.966 23.281 5.437 48.337c-.085-1.2-.891-16.779-.891-16.779s3.073-20.269 2.286-28.534-3.42-17.1-9.375-19.084c-5.95-1.883-11.643 2.631-15.991-9.191s-7.6-15.2-14.472-13.208C-.604 27.752 1.3 39.045 3.908 44.775z" fill="#fff"/><path d="M62.418 138.868c-.106-.093-5.7-8.217-13.3-20.71a1.28 1.28 0 0 0-.143-.592c-5.4-9.642-4.2-19.652-2.607-32.5.393-2.935.779-5.97 1.051-9.2 1.1-11.307-1.095-21.076-5.973-26.243-2.165-2.253-4.658-3.48-7.252-3.295l-.9.064c-5.194.268-8.592.409-11.189-7.928-1.807-5.686-4.141-11.736-8.594-13.726-2.486-1.126-5.371-.821-8.671.716A8.25 8.25 0 0 0 .516 30.88c-1.363 4.809.017 11.528 3.619 17.087 3.617 5.758 3.444 11.786 3.3 18.212a45.441 45.441 0 0 0-.023 5.315c.348 19.023 9.955 27.263 39.343 47.233 7.936 12.973 13.745 21.38 13.86 21.573a1.145 1.145 0 0 0 1.14.521c.21-.036.41-.118.584-.242a1.346 1.346 0 0 0 .079-1.711zM45.005 75.742c-.279 3.128-.666 6.163-1.059 9.1-1.079 8.8-2.052 16.286-.843 23.419-1.375-2.409-2.848-4.811-4.229-7.319-1.033-1.832-2.072-3.763-3.211-5.687a.37.37 0 0 0 .078-.306l7.006-38.293c1.915 4.374 3.066 10.708 2.258 19.086zm-31.347 11.75a28.792 28.792 0 0 1-3.345-8.986l16.406 5.15c1.638 3.293 3.367 6.479 4.983 9.472l-17.837-5.551c-.007-.1-.107-.092-.207-.085zm26.007-36.133a14.04 14.04 0 0 1 1.324 1.71l-7.07 38.8c-1.5-2.8-3.011-5.7-4.627-8.693l-.008-.1-.007-.1 5.594-34.182a8.04 8.04 0 0 1 4.794 2.565zM9.638 26.624a5.955 5.955 0 0 1 2.735.407c3.519 1.555 5.612 7.02 7.284 12.215 2.988 9.612 7.619 9.885 12.72 9.723l-5.043 30.63C19.048 63.15 10.9 44.38 6.688 27.436a6.95 6.95 0 0 1 2.95-.811zm-3.486 20.1c-3.161-4.99-4.491-11.01-3.278-15.106a5.822 5.822 0 0 1 1.7-2.927C8.881 45.625 17.024 64.3 25.31 80.75l-15.281-4.83c-.2-1.39-.2-2.793-.311-4.39-.021-1.7.058-3.412.038-5.115.231-6.633.454-13.366-3.604-19.694zm9.635 43.928L32.5 95.879c.123.07.266.095.406.07a.753.753 0 0 0 .392-.127c1.154 2.124 2.307 4.247 3.446 6.171 2.3 4.148 4.578 8 6.742 11.652-14.125-9.724-22.722-16.432-27.699-22.996z" fill="#1a1a1a"/><path d="M107.775 286.023s-4.5-15.4-5.2-23.1-5-16.6-10.5-19.8-9.9-3.1-10.8-10.1-8-16.1-14-14.4-6 7.1-3.9 12.1 6.2 6.1 6 17.9 1.9 20.5 7.2 23.9 25.7 10.1 31.2 13.5z" fill="#fece2f"/><path d="M102.675 278.723c-13.7-17-25.7-8.8-26.4-21.8s-5-15.2-6-25.2 3.8-10.8 3.8-10.8l.1-.4c-2.2-1.8-4.6-2.6-6.9-2-6 1.8-6 7.1-3.9 12.1s6.2 6.1 6 17.9 1.9 20.5 7.2 23.9 25.6 10.1 31.1 13.5z" fill="#fff"/><path d="M112.775 289.723c0-.1-.1-.2-.2-.3-5.6-7.6-7.8-17-9.4-28.8-2.1-15.2-11.8-19.8-15.9-21-4.4-1.3-4.6-2.6-5.7-8.5-.1-.7-.3-1.5-.4-2.4a14.717 14.717 0 0 0-6.8-9.9 10.835 10.835 0 0 0-8.8-1.3 6.603 6.603 0 0 0-4.3 4c-1.2 3.2-.2 7.6 2.5 12 3.5 5.6 4.9 9.2 4.7 17.4-.4 15.3 3.3 21.5 15.1 25.4a89.038 89.038 0 0 1 26.9 14.3c13.3 18.4 15 33.2 15.1 33.4a1.28 1.28 0 0 0 1.2 1.1h.1a1.212 1.212 0 0 0 1.1-1.3c-.1-.6-1.8-15.4-15.2-34.1zm-12-28.8a97.06 97.06 0 0 0 4.2 19c-4.1-4.9-7.9-9.5-11.3-13.9 0-.1.1-.2.1-.3l.4-19.3c2.9 2.9 5.6 7.4 6.6 14.5zm-12.6-18.5a16.592 16.592 0 0 1 3.6 2l-.4 18.6c-1.3-1.8-2.6-3.6-3.9-5.3zm-15-21.4a11.82 11.82 0 0 1 5.6 8.2c.173.759.307 1.527.4 2.3 1 5.6 1.5 8.3 6.5 10.1l-.6 12.7a169.632 169.632 0 0 1-17.6-34.6c.3 0 .6-.1.9-.1a9.502 9.502 0 0 1 4.8 1.4zm-7.3 11.2c-2.3-3.6-3.1-7.4-2.2-9.8a3.891 3.891 0 0 1 1.6-2 173.265 173.265 0 0 0 18.4 36l-12.7-.2c-.1-1.6-.1-3.3-.1-5.3.3-8.7-1.3-12.8-5-18.7zm5.4 26.5 14.2.2c2.9 4.1 6 8.2 9.4 12.4l-15.9.3c-4.8-2.6-7-6.4-7.7-12.9zm13.1 15.4a.103.103 0 0 1-.07-.029.1.1 0 0 1-.03-.071l12.4-.2c2.5 3.1 5.2 6.3 8.1 9.7.1.1.2.2.2.3a90.993 90.993 0 0 0-20.6-9.7z" fill="#1a1a1a"/><path d="M105.422 59.724s20.451-7.066 31.694-6.862 18.832 12.5 18.832 12.5S160 77.3 164.22 81.615s13.295 15 16.848 19.857 5.857 14.722 5.813 19.738-3.746 10.792-5.535 12.423-11.829 5.652-18.581-.485-7.359-17.523-7.359-17.523-1.52-10.118-10.446-14.4c-7.992-3.843-13.15-4.48-13.15-4.48s-7.771-3.558-9.693-9.437-6.907-25.271-16.695-27.584z" fill="#fece2f"/><path d="M186.633 117.719c-6.361 13.484-22.989 10.855-23.654-1.329s-9.949-24.356-22.973-24.234-14.017-11.035-17.624-22.308-12.465-8.939-12.465-8.939l.306 1.482c6.744 6.037 10.343 20.018 11.987 24.813 1.921 5.879 9.693 9.438 9.693 9.438s5.058.643 13.15 4.48c8.925 4.278 10.446 14.4 10.446 14.4s.714 11.478 7.359 17.523 16.785 2.016 18.581.485 5.489-7.407 5.534-12.423c-.064-.901-.248-2.091-.34-3.388z" fill="#fff"/><path d="M166.158 82.079c-4.3-4.1-5.547-7.526-6.914-11.238a33.953 33.953 0 0 0-6.644-11.759c-8.5-9.622-19.24-8.359-29.665-5.513-8.949 2.44-18.968 5.356-21.626 6.046a44.373 44.373 0 0 0-13.08 3.635C76.193 68.817 66.541 79.727 62 93.384c-8.618 25.474.554 50.292.575 50.591a1.292 1.292 0 0 0 1.261.813l.3-.022a1.31 1.31 0 0 0 .792-1.56c-.12-.292-8.937-24.333-.662-48.981 4.39-12.943 13.472-23.413 24.934-28.637a43.02 43.02 0 0 1 11.394-3.316c.2-.014.306.079.505.065 10.1-1.82 12.893 6.5 16.181 16.094 2.91 8.516 6.2 18.107 15.658 20.042 19.435 4.034 20.6 13.375 21.529 20.828.213 1.589.426 3.178.725 4.56 1.771 6.591 7.7 12.486 14.129 14.035 1.414.376 2.881.508 4.339.393a14.001 14.001 0 0 0 9.478-4.883c5.193-5.883 13.771-22.031-16.98-51.327zM150.8 60.613a43.383 43.383 0 0 1 2.321 3.043L135.783 69.4c-2.1-1.354-4.3-2.7-6.489-3.85l19.568-6.8c.638.55 1.289 1.207 1.938 1.863zm-27.207-4.785c9.049-2.447 16.616-3.185 23.034 1.071l-20.352 7.059c-1.04-.528-2.172-.949-3.2-1.376a43.17 43.17 0 0 0-12.553-3.119c3.828-1.075 8.545-2.412 13.07-3.635zm-3.878 21.628c-2.028-5.971-4.056-11.942-8.109-15.364a44.74 44.74 0 0 1 10.522 2.762 79.868 79.868 0 0 1 19.154 11.372l-8.652 19.361c-7.366-2.087-10.255-10.299-12.916-18.131zm15.267 18.766 8.218-18.328a122.763 122.763 0 0 1 21.428 23.642l-7.575 17.581-.021-.3c-.94-7.652-2.282-18.083-22.051-22.595zm22.88 27.148 8.437-19.546a125.01 125.01 0 0 1 4.848 7.576l.007.1-8.864 19.176a17.814 17.814 0 0 1-4.429-7.306zm12.171 11.868a15.721 15.721 0 0 1-5.92-2.888l8.415-18.442a90.866 90.866 0 0 1 8.058 17.473c.121.293.235.485.442.571a10.998 10.998 0 0 1-10.996 3.286zm12.755-5.316c-3.571-12.178-20.2-41.674-44.375-58.8l16.061-5.351a33.313 33.313 0 0 1 2.52 5.836c1.373 3.812 2.853 7.717 7.582 12.194 11.723 11.2 18.665 21.432 20.72 30.609 1.62 7.299-.235 12.243-2.509 15.512z" fill="#1a1a1a"/><path d="M107.275 315.223s-13.2-2.2-24.2 9.8-12.5 25.8-17 31.5-14.2 24.8-9.5 44.8 14.5 24.8 18.2 35 10.8 31.8 21.8 27.8 6.5-23 6.5-23-4.5-19-.5-25.8 18-20.2 14.2-40.8-18.4-35.7-16.2-49.5c.9-6.5 6.7-9.8 6.7-9.8z" fill="#fece2f"/><path d="M102.975 441.023s-.1-.6-.3-1.6c-.2-.2-.5-.3-.7-.5a10.814 10.814 0 0 1-8.7 2.9c-4.8-.7-8.4-4.5-11.7-8a116.21 116.21 0 0 1-7.8-9.3 54.647 54.647 0 0 1-10.3-32.2 26.626 26.626 0 0 1 1.5-9.7c2-5.2 6.3-9.4 7.8-14.8 1.2-4.4.4-9.1 1.1-13.5 1.1-6.9 5.6-12.7 8-19.2 1.1-2.8 1.7-5.8 3.2-8.4 4.2-7.7 11.8-8.4 19.1-11.2.3-.1.6-.3.9-.4a28.982 28.982 0 0 0-22 9.9c-11 12-12.5 25.8-17 31.5s-14.2 24.8-9.5 44.8 14.5 24.8 18.2 35 10.8 31.8 21.8 27.8 6.4-23.1 6.4-23.1z" fill="#fff"/><path d="M118.775 318.223a21.262 21.262 0 0 0-9.8-4 1.147 1.147 0 0 0-1-.1 32.224 32.224 0 0 0-8.7.3c-14.1 2.3-22.9 12.3-30.6 34.5a94.007 94.007 0 0 1-6.7 14.2c-5.5 9.9-10.7 19.3-7 37.9 1.7 8.7 7 16.6 12 24.3 4.3 6.5 8.8 13.3 10.8 20.3 2.9 9.8 6.7 16 11.2 18.5a10.05 10.05 0 0 0 4.8 1.2 11.847 11.847 0 0 0 3.2-.5h.1c10.2-3.2 8.3-19 5.2-36.4-1.5-8.7 2.2-14.2 6.6-20.6 4.6-6.8 9.8-14.4 9.5-27.2-.3-9.5-4.8-19.6-9.2-29.3-6.7-14.8-12.5-27.6-1.3-34.3a.759.759 0 0 0 .4-.2c.1 0 .1-.1.2-.2a19.52 19.52 0 0 1 8.9 3.6c7.7 5.7 9.2 16.1 9.2 16.2a1.261 1.261 0 0 0 1.399 1.091 1.26 1.26 0 0 0 1.101-1.391c-.2-.5-1.7-11.5-10.3-17.9zm-54.7 46.1a90.127 90.127 0 0 0 6.9-14.6c7.1-20.5 15.1-30 27.3-32.6-3.9 2.8-8.5 8.1-12.2 18.5-3 8.4-4.7 22.8-4.8 40l-.3.3-21.3 31.9a40.063 40.063 0 0 1-2.3-7.2c-3.5-17.8 1.2-26.4 6.7-36.3zm49 31.5-29-30.7c.2-4.4.6-8.6 1-12.4l30.6 33.5a30.748 30.748 0 0 1-2.6 9.6zm-52.2 14.5 20.4-30.5c0 3.6.1 7.4.3 11.2l-.3.3-16.7 25.6a72.824 72.824 0 0 1-3.7-6.6zm29.4 51.6c-4-2.1-7.4-7.9-10.1-17-2.1-7.3-6.7-14.2-11.1-20.9-1-1.6-2.1-3.2-3.1-4.8l15.8-24.2c0 .6.1 1.2.1 1.8 1.7 27.3 6.5 51.2 13.2 65.9a7.275 7.275 0 0 1-4.8-.8zm16.6-55.5c-4.5 6.6-8.7 12.8-7 22.4 3.3 18.6 4 30.2-2.5 33.2-10.5-22.6-14.6-63.2-13.5-93.5l28.1 29.7a75.21 75.21 0 0 1-5.1 8.2zm.1-54.2c4.3 9.5 8.8 19.3 9 28.4v2.2l-30.5-33.3a64.679 64.679 0 0 1 2.9-13.1c4.5-12.3 9.9-17 13.7-18.8l1.5-.6c-8.9 8.2-2.9 21.4 3.4 35.2z" fill="#1a1a1a"/></g></svg></g><g transform="translate(479.0 309.0) rotate(0.0 81.0 47.5) scale(1.8493150684931507 1.8446601941747574)"><svg width="87.6" height="51.5" viewBox="0 0 87.6 51.5"><path d="M87.6 33.1c-.2-4.8-1.3-9.5-3.1-13.9-2-4.9-4.9-9.6-9-13.1-2.1-1.8-4.4-3.2-7-4.2-2.5-1-5.3-1.6-8-1.8-5.4-.4-10.9.9-15.8 3s-9.4 5.1-13.6 8.4c-4.1 3.3-8 6.9-11.6 10.8-3.6 3.8-6.9 7.9-10.1 12-3.2 4.2-6.2 8.4-9 13 0 0 0 .1-.1.1-.7 1.3-.3 3 1.1 3.8 1.3.7 3 .3 3.8-1.1V50c2.4-4.3 5.2-8.7 8.1-12.9s6-8.2 9.4-12.1c3.3-3.8 6.9-7.5 10.8-10.7S41.5 8.1 46 6s9.4-3.4 14.3-3.2c2.4.1 4.9.6 7.1 1.4 2.3.9 4.4 2.1 6.3 3.7 3.8 3.1 6.6 7.5 8.5 12.1 1.6 4 2.6 8.3 2.8 12.7l2.6.4z" style="fill:#1a1a1a"/></svg></g><g transform="translate(925.0 559.0) rotate(0.0 87.5 61.5) scale(1.8459915611814346 1.849624060150376)"><svg width="94.8" height="66.5" viewBox="0 0 94.8 66.5"><g><path d="M.2 16.3c1.1-1.6 2.2-3 3.4-4.3 1.2-1.3 2.5-2.6 3.9-3.8 2.8-2.3 5.9-4.3 9.3-5.8C20.2 1 23.9.2 27.6 0c3.7-.1 7.4.4 10.9 1.5s6.9 2.6 10 4.5 6 4.1 8.7 6.5c5.4 4.8 10.2 10.1 14.6 15.7 8.9 11.2 16.3 23.4 23 35.9l-4.3 2.4C84.1 54.1 77 42 68.6 30.9c-4.2-5.5-8.8-10.8-13.9-15.5C49.6 10.7 44 6.8 37.5 4.8c-3.2-1-6.6-1.6-9.9-1.5-3.3.1-6.7.7-9.8 2-3.1 1.2-6.1 3-8.7 5.2-2.6 2.1-5.1 4.7-7 7.4v.1c-.4.6-1.1.7-1.7.3-.4-.7-.6-1.5-.2-2z" style="fill:#1a1a1a"/></g></svg></g></svg>