<svg xmlns="http://www.w3.org/2000/svg" version="1.1" viewBox="0 0 3000 3000" width="3000" height="3000">
<!--ITEM 1--><g><defs><clipPath id="clip-path-id-viewbox-item-1"><rect x="0.0" y="0.0" width="355.2" height="2.0"/></clipPath></defs><g transform="translate(2900.0 2097.0) rotate(0.0 -1133.5 7.0) scale(-6.38231981981982 7.0)"><g clip-path="url(#clip-path-id-viewbox-item-1)" transform="translate(-0.0 -0.0)"><g>
	<path d="M314.6,2H1C0.4,2,0,1.6,0,1s0.4-1,1-1h313.6c0.6,0,1,0.4,1,1S315.1,2,314.6,2z" style="fill:#1A1A1A;"/>
	<path d="M354.2,2h-24c-0.6,0-1-0.4-1-1s0.4-1,1-1h24c0.6,0,1,0.4,1,1S354.7,2,354.2,2z" style="fill:#1A1A1A;"/>
</g>
</g></g></g><!--ITEM 2--><g><defs><clipPath id="clip-path-id-viewbox-item-2"><rect x="0.0" y="0.0" width="503.0" height="415.5"/></clipPath></defs><g transform="translate(1364.0 444.0) rotate(0.0 527.5 435.0) scale(2.0974155069582503 2.0938628158844765)"><g clip-path="url(#clip-path-id-viewbox-item-2)" transform="translate(-0.0 -0.0)"><title>speech_bubble_l_1_1 copy</title><g id="Layer_2-i2" data-name="Layer 2"><g id="speech_bubble_l_1_1_copy-i2" data-name="speech_bubble_l_1_1 copy"><path d="M436.25,2.5H66.75A64.25,64.25,0,0,0,2.5,66.75V265.331a64.25,64.25,0,0,0,64.25,64.25H89.672C75.618,361.37,44.764,402.767,10.167,413c64.857-10.716,138.536-34.555,163.127-83.419H436.25a64.25,64.25,0,0,0,64.25-64.25V66.75A64.25,64.25,0,0,0,436.25,2.5Z" fill="#fff" stroke="#1a1a1a" stroke-linecap="round" stroke-linejoin="round" stroke-width="5"/></g></g></g></g></g><!--ITEM 3--><g><defs><clipPath id="clip-path-id-viewbox-item-3"><rect x="0.0" y="0.0" width="224.322" height="245.226"/></clipPath></defs><g transform="translate(1997.0 1639.0) rotate(0.0 408.5 447.0) scale(3.642085930046986 3.645616696435125)"><g clip-path="url(#clip-path-id-viewbox-item-3)" transform="translate(-0.0 -0.0)"><title>dog_2</title><g id="Layer_2-i3" data-name="Layer 2"><g id="dog_2-i3"><path d="M80.886,113.826s-10.5-7.3-17.2-4.4-17.2,16.3-17.2,16.3-9.4,9.6-11.5,18a77.043,77.043,0,0,0-2,15.8s9.4,2.3,13.6-4.2c4.1-6.5,1.4-14.1,1.4-14.1l11.2-8.8s7.4-5.2,8.2-4.6c.8.7,9.4,7.1,9.4,7.1s5.8-6.1,6.2-10C83.686,117.926,80.886,113.826,80.886,113.826Z" fill="#fece2f"/><path d="M63.786,109.426c-6.7,2.9-17.2,16.3-17.2,16.3s-9.4,9.6-11.5,18a77.043,77.043,0,0,0-2,15.8,19.308,19.308,0,0,0,4,.4l-.3-.3s.7-12.6,2.7-17.2c4.9-10.8,18.9-27.6,23.1-30.3a20.457,20.457,0,0,1,7.2-3.1v-.1A10.981,10.981,0,0,0,63.786,109.426Z" fill="#fff"/><path d="M68.986,38.026s-36-6.5-51-1.5c-1.1.6-10.3,3.2-7.3,20.9s21.8,26.3,21.8,26.3,26.1,7.5,35.5,14c9.3,6.5,12.9,11.4,12.9,16.1,0,0,6.9,10.3-7.3,24.5,0,0-19.8,17.8-20.3,36.3-.6,18.4,1.2,17.9,1.2,17.9s11.8-.7,12.8-9.1c1-8.3-2.9-8.7-2.1-11.5s4-9.4,7.8-11.8a48.845,48.845,0,0,1,9.6-4.2s-1.1,18-4.2,23.6a23.638,23.638,0,0,0-10.7,20.2c.1,13.9,12.7,24.4,15.7,26.9l-14.3,5.9s-13.2-8-19-4.6c-5.9,3.4-11.3,7.7-9.7,12.8s16.7,3.6,16.7,3.6l16.3-.4,8.1-.1,17.4-.3s25.3,2.9,30.3-3.2c0,0,19.5,5.2,44.5-4.7s37-20.2,44-38.9,9.8-48.1-9.1-55.9-33.9,17.5-26.8,28.4c7.1,10.8,13,8.1,13,8.1s-5.1,23-15.3,34a79.409,79.409,0,0,1-21.4,16.2l-1.9-28.6s-5.5-39.3-8.6-52.9-13.4-53.6-22.5-69.2C115.986,61.026,96.486,41.726,68.986,38.026Z" fill="#fece2f"/><path d="M140.886,122.826s2.9,13.1-2.8,22.8-16.9,19.2-10.3,22.5c4.6,2.3,11.4-7.2,15.5-3.3,4.1,3.8-5.8,28.8,2.5,31.8,4.7,1.8,9-1.5,10.5,11.5a332.326,332.326,0,0,0-4.7-41.1C147.686,145.726,140.886,122.826,140.886,122.826Z" fill="#fff"/><path d="M99.286,176.126c-11.4-2.6-18.7,2.8-18.7,2.8l-1.6-.7a13.391,13.391,0,0,1-.6,1.2,23.638,23.638,0,0,0-10.7,20.2c.1,8.5,4.7,15.6,9.1,20.5l1.9.7c-4.7-5.6-6.1-16.8-5.1-23.5C76.086,180.626,99.286,176.126,99.286,176.126Z" fill="#fff"/><path d="M78.586,132.326a47.65,47.65,0,0,1-4.9,5.9s-19.8,17.8-20.3,36.3c-.5,15.4.7,17.6,1.1,17.9h.1c4.6-.7,3.1-7.5,2.4-14.9-.7-7.5,3.2-15.9,8.5-23.1s14.2-17.2,17.7-21.4.3-11.5.3-11.5C83.786,125.026,80.386,130.026,78.586,132.326Z" fill="#fff"/><path d="M214.286,144.326a18.451,18.451,0,0,0-5.7-3.6c-18.9-7.8-33.9,17.5-26.8,28.4,2.9,4.4,5.6,6.5,7.7,7.6l.6-.3s-6.2-11.5.7-21.7C197.986,144.226,206.786,143.526,214.286,144.326Z" fill="#fff"/><path d="M68.986,38.026s-36-6.5-51-1.5c-1.1.6-1.9,4.1-1.5,4.1,30.9-2.6,61.2,4.4,61.2,4.4l31.2,12A75.8,75.8,0,0,0,68.986,38.026Z" fill="#fff"/><path d="M89.986,35.626a2.3,2.3,0,0,1-2-1.3c-3.5-7.4-9.9-5.3-10.6-5a2.218,2.218,0,0,1-2.9-1.3,2.255,2.255,0,0,1,1.3-2.9c.1,0,10.8-4.1,16.3,7.2a2.272,2.272,0,0,1-1,3A2.607,2.607,0,0,1,89.986,35.626Z" fill="#191919"/><path d="M33.686,70.926a7.772,7.772,0,0,0,1.6.2,9.134,9.134,0,0,0,1.6.1,16.859,16.859,0,0,0,3.2-.1,13.679,13.679,0,0,0,2.9-.7,6.686,6.686,0,0,0,2.5-1.6h0a1.214,1.214,0,0,1,1.6.1,1.2,1.2,0,0,1,0,1.4,8.373,8.373,0,0,1-3.1,2.5,12.738,12.738,0,0,1-3.8,1.1,24.1,24.1,0,0,1-3.8,0l-1.8-.3a6.356,6.356,0,0,1-1.8-.6,1.068,1.068,0,0,1-.6-1.5,1.086,1.086,0,0,1,1.2-.7h.3Z" fill="#191919"/><path d="M221.886,155.226c-2.8-8.2-7.7-13.6-14.3-15.6-11.1-3.4-20.8,3.2-25.5,11.3-4.8,8.3-4.3,17.4,1.2,22.7a17.6,17.6,0,0,0,10,5,98.189,98.189,0,0,1-7.2,20.2c-4.8,9.7-13.3,22-27,26.9,0-6.5-.5-32.3-10-78.3-5.3-25.7-13.5-50.9-23-70.9-4.9-10.2-9.9-18.6-14.5-24.4l7.4-8.4s1.9,21,6.7,23.1,12.3-1.8,11.2-17.8c-1.1-16.1-5.7-21.5-7-22.8-1.2-1.2-7.7-1.8-10.6-.7-2.6.9-11.4,17.3-13.2,20.8a21.965,21.965,0,0,0-1.8-1.4c3.7-6.2,12.5-22.3,11.5-36.6-.6-8.2-11.3-13.5-16.6-.4-5.6,13.8-3.2,30-2.4,34.2a380.411,380.411,0,0,0-37.9-6.9c-16.5-2.1-28.8-2.4-36.8-1a13.226,13.226,0,0,0-3.5-9.6,11.014,11.014,0,0,0-8.5-4.1,9.946,9.946,0,0,0-7.5,4,11.273,11.273,0,0,0-1.3,12.4,11.392,11.392,0,0,0,8.7,6.2c-1.9,5.2-1.9,11.5.4,18a40.816,40.816,0,0,0,26.1,25.3c23.3,7.3,37.7,12.6,42.6,24.7.1.2.1.4.3.6a32.707,32.707,0,0,0-4.6-2.3c-5.6-2.2-10.7-2.1-14.9.3-8,4.6-21.4,23.4-24.6,29.8-3,5.9-3.3,19.3-3.3,19.8a1.23,1.23,0,0,0,.7,1.1,16.24,16.24,0,0,0,4.6.7,13.3,13.3,0,0,0,9.7-4c4.3-4.5,2.8-13.1,2.3-15.6,4.8-4.1,9-7.4,12.2-9.6l2.5-1.7a8.774,8.774,0,0,1,3.1-1.4h.1a1.421,1.421,0,0,1,.6.2l.4.2h.1a44.984,44.984,0,0,1,7.1,5.6c-.4.4-.8.9-1.2,1.3-7.9,8.8-22.6,25.3-21.9,38.3.7,15.1,1.2,18,1.3,18.1a1.172,1.172,0,0,0,1.1.9h0c.4,0,9.9-.2,13.4-8.4,1.8-4.1.3-7.8-.9-10.4a7.921,7.921,0,0,1-.8-2.6c.4-1.9,4-9.7,9.5-12.2,1.5-.7,3.5-1.5,5.6-2.4-.6,6.2-2,18.1-3.9,21.2a24.67,24.67,0,0,0-6.5,6.4c-5,7-5.7,15.9-2,24.9a40.378,40.378,0,0,0,11.6,15.5c-2.3.1-5.5.3-6.9.2a6.423,6.423,0,0,1-2.8-1.5c-1.7-1.2-3.8-2.7-6.6-2.7h-.1a10.2,10.2,0,0,0-8.7,4.9,12.745,12.745,0,0,0-5.8.3c-5.6,1.6-10.3,7.5-11.1,11.8a4.179,4.179,0,0,0,1.3,4.4c2.4,1.9,11.2,2.4,19.2,2.4,7.8,0,15-.4,15.2-.4,6.5-.4,16.3-.2,25.8,0,9,.2,17.5.3,21.4-.1a11.952,11.952,0,0,0,7.5-3.4,69.671,69.671,0,0,0,13.2,1.2,77.488,77.488,0,0,0,10.6-.7h.2a32.352,32.352,0,0,0,5.2-.7.365.365,0,0,0,.3-.1,101.23,101.23,0,0,0,15.9-4.3c16.3-5.9,29.8-15.5,38-27C223.286,194.226,227.386,171.226,221.886,155.226Zm-152.7-27.8c-1.9-1.5-5.2-3.7-6.9-2.8a2.263,2.263,0,0,0-.9,2.6c.1.9.3,1.8-1.3,3.1h0c-1.2.8-2.5,1.8-4.1,3-4.4,3.4-8.6,7-8.6,7.1a1.128,1.128,0,0,0-.3,1.1c0,.1,2.5,9.9-1.6,14.1a11.612,11.612,0,0,1-11.1,3c.1-3.1.7-13.4,3-18,3.3-6.4,16.4-24.7,23.8-28.9,3.6-2.1,8-2.1,12.9-.1a32.353,32.353,0,0,1,6.6,3.7.1.1,0,0,1,.1.1c2.8,9.3.1,12.9-2.8,16.6-.3.3-.6.7-1,1.2C75.486,132.126,71.986,128.926,69.186,127.426Zm141.2,81.1c-8,11.2-21.1,20.5-36.9,26.2a98.211,98.211,0,0,1-19.4,4.8c-.4,0-.9.1-1.3.1-7.2.3-13.9-2.2-16.6-6.6-3.9-6.3-9.1-7-9.4-7h-.2a1.135,1.135,0,0,0-.8.3,1.214,1.214,0,0,0-.1,1.6c3.1,3.5,4.3,7,3.2,9.7-1,2.6-3.9,4.4-7.6,4.8-3.8.4-12.2.3-21.1.1-9.6-.2-19.4-.4-26,0-13.8.9-30.3.6-32.8-1.5a2.605,2.605,0,0,1-.5-2.3c.7-3.6,4.9-8.6,9.6-10s9.4,1.3,12.8,3.2a12.143,12.143,0,0,0,3.3,1.6h.1c3.1.7,28.7.1,31.6,0h.4a.1.1,0,0,0,.1-.1h.1a.1.1,0,0,0,.1-.1l.1-.1a.1.1,0,0,1,.1-.1v-.1a.1.1,0,0,1,.1-.1v-.2h0v-.2h0v-.2h0v-.3a.1.1,0,0,0-.1-.1l-.1-.1a.1.1,0,0,0-.1-.1.1.1,0,0,1-.1-.1l-.1-.1h-.4a31.938,31.938,0,0,1-8.4-2.8l-3.2-1.8a38.8,38.8,0,0,1-15.5-17.8c-3.4-8.2-2.8-16.3,1.8-22.7,10-14,27.6-9.6,34.8-7.1a1.718,1.718,0,0,0,.8.2,1.11,1.11,0,0,0,1.1-1.1,1.172,1.172,0,0,0-.9-1.1c-.1,0-.1-.1-.3-.1a45.159,45.159,0,0,0-15.3-2.8h0a28.62,28.62,0,0,0-12.4,2.6,52.859,52.859,0,0,0,1.2-5.3c14.6-3.8,21.5-11.2,24.7-16.6a23.286,23.286,0,0,0,3.5-11.4,14.167,14.167,0,0,0,.8-1.8c2.5-5.6,5.3-13.8,4.9-21.9a1.1,1.1,0,0,0-2.2.2c.4,8.7-3.2,18.1-6.3,24.3l-3.2,5.4v-.2a45.4,45.4,0,0,1,.1-5.1,1.108,1.108,0,0,0-.9-1.2,1.146,1.146,0,0,0-1.3.7c-.8,2.4-4,6.5-6.2,9l.4-2.2c.1-.5.3-1,.4-1.5a1.145,1.145,0,0,0-.6-1.3,1.107,1.107,0,0,0-1.4.4c-1.3,1.9-7.2,4.4-12.2,6.4-.1,0-.2.1-.3.1a10.375,10.375,0,0,0-1,.4c-2.3.9-4.5,1.8-6.2,2.6-6.3,2.9-10.2,11.5-10.7,13.7-.3,1.2.3,2.4.9,4,1,2.4,2.3,5.4.9,8.7-2.4,5.4-8.1,6.7-10.5,6.9-.2-1.8-.6-6.2-1.1-16.8-.6-12.1,13.7-28.1,21.4-36.7,1.6-1.9,3-3.3,3.8-4.4,3.4-4.3,7.2-9.3,1.6-23-5.3-13-20.1-18.5-44-26a39.11,39.11,0,0,1-24.7-23.9c-2.2-6.3-2.2-12.4-.1-17.2a12.472,12.472,0,0,0,5.4-2.1,9.717,9.717,0,0,0,3.8-4.4c7.7-1.6,20.3-1.3,37.1.8,2.8.4,5.6.7,8.3,1.2-1.7,5.7-7.8,31.4,13.8,44.9,22.1,13.9,42.3,1.9,45.9-.4a324.878,324.878,0,0,1,20.2,64.7c8.8,42.5,10.3,70.5,9.9,79.4a.975.975,0,0,0,.4.9,1.449,1.449,0,0,0,.7.2h.3c11.5-3.5,21.3-12.6,28.6-26.2h0c.1-.1.6-1.1,1.3-2.5,4.3-7.7,8.9-12.9,14.7-16.6,7.6-4.9,7.1-10.5,7.1-10.7h0v-.1h0c0-.1,0-.1-.1-.2h0l-.1-.1h0l-.1-.1h0a.1.1,0,0,1-.1-.1h-.7a.1.1,0,0,0-.1.1h0l-.1.1a.1.1,0,0,0-.1.1,23.622,23.622,0,0,1-7.5,4.1c-5.9,1.9-11.2.6-15.8-3.7-5.5-5.2-4.4-13.7-.8-19.9,4.2-7.3,13-13.3,22.9-10.3,7.4,2.2,11,8.9,12.8,14.1C225.086,171.326,221.086,193.426,210.386,208.526Z" fill="#191919"/><circle cx="17.186" cy="46.226" r="1.3" fill="#191919"/><circle cx="13.786" cy="49.926" r="1.4" fill="#191919"/><circle cx="17.786" cy="53.526" r="1" fill="#191919"/><circle cx="29.486" cy="50.626" r="1.4" fill="#191919"/><circle cx="25.386" cy="44.926" r="1.4" fill="#191919"/><circle cx="22.186" cy="49.226" r="1.4" fill="#191919"/><circle cx="24.486" cy="55.526" r="1.3" fill="#191919"/><circle cx="29.286" cy="58.226" r="1.2" fill="#191919"/><circle cx="17.986" cy="59.326" r="1.3" fill="#191919"/><circle cx="35.886" cy="46.626" r="1.3" fill="#191919"/><circle cx="34.286" cy="55.426" r="1.3" fill="#191919"/><circle cx="88.986" cy="58.326" r="10" fill="#fff"/><path d="M80.586,51.826a9.926,9.926,0,0,0-2,5.3,9.895,9.895,0,0,0,14.2-8.2A9.69,9.69,0,0,0,80.586,51.826Z" fill="#191919"/><ellipse cx="7.678" cy="25.414" rx="4" ry="2" transform="translate(-13.115 8.907) rotate(-34.744)" fill="#fff"/></g></g></g></g></g><!--ITEM 4--><g><defs><clipPath id="clip-path-id-viewbox-item-4"><rect x="0.0" y="0.0" width="606.0" height="553.95"/></clipPath></defs><g transform="translate(2089.0 733.0) rotate(0.0 -997.5 910.0) scale(-3.292079207920792 3.285495080783464)"><g clip-path="url(#clip-path-id-viewbox-item-4)" transform="translate(-0.0 -0.0)"><title>man_in_a_suit_sitting</title><g id="Layer_2-i4" data-name="Layer 2"><g id="man_in_a_suit_sitting-i4"><path d="M327.443,10.542c-9.059,0-18.448.659-26.519,4.777-2.142.988-4.283,2.635-4.613,4.941s1.483,4.283,2.965,5.93l-6.424,4.942a14.284,14.284,0,0,0-2.306,2.141c-1.647,2.636,0,6.589,2.636,8.236s6.094,1.812,9.224,1.977l33.108.988c3.459.165,7.577,0,9.719-2.965a10.707,10.707,0,0,0,1.482-3.788c1.318-4.777,2.965-9.554,4.777-14.331,1.647-4.118,6.095-13.013-1.647-13.507-3.624-.165-7.577.494-11.2.494C335.02,10.707,331.232,10.542,327.443,10.542Z" fill="#fece2f"/><path d="M396.131,354.805s-67.864-2.636-98.831-2.965-105.75,8.73-131.776,25.2-43.65,26.355-46.45,59.3,23.719,59.134,84.5,62.1c0,0,.495,37.391,36.9,48.592,36.567,11.2,70.335,2.306,70.335,2.306s55.51-12.189,70.664-18.778c14.99-6.589,55.51-13.672,55.51-13.672l62.594-12.848s1.647-33.108-16.966-55.51c0,0,21.578-23.061,20.754-57.981s-9.389-35.909-9.389-35.909H396.131Z" fill="#fece2f"/><path d="M165.524,377.207c-26.025,16.471-43.65,26.355-46.45,59.3a59.455,59.455,0,0,0,.164,10.872,14.93,14.93,0,0,0,1.318-2.142,46.508,46.508,0,0,1,13.013-15.318c7.083-5.436,15.648-9.06,21.413-15.978,1.318-1.647,2.636-3.624,2.8-5.765s-.659-4.612-2.636-5.436c-1.153-.494-2.8-.494-3.788-1.318-1.483-.988-1.483-3.129-.659-4.777a9.6,9.6,0,0,1,3.788-3.459c9.225-5.6,20.425-7.083,30.967-9.059,10.707-2.142,21.743-5.271,28.991-13.178,1.647-1.812,3.294-4.447,2.306-6.753-.659-1.647-2.471-2.471-4.283-2.636C192.868,365.512,175.572,370.782,165.524,377.207Z" fill="#fff"/><path d="M357.916,174.932l15.319-3.954s-3.624,44.145-.164,68.359,24.048,115.632,24.048,115.632-32.779-1.482-33.437-1.482S329.914,352,329.914,352l-3.788-42.827-2.471-47.933,2.635-39.368,4.118-41.179,10.048-10.872Z" fill="#fff"/><path d="M86.624,219.57,57.3,207.381s-6.918-14-7.083-14.66-2.635-8.4-2.635-8.4-5.765-.659-4.612,9.059L29.631,180.367s-6.094,2.471,2.636,13.013l-15.813-7.412s-4.942,2.965,3.294,8.73,18.119,12.518,18.119,12.518l-35.744-.164s-3.459,4.612,5.93,6.918c9.389,2.141,30.967,3.624,37.227,8.9s7.741,17.295,5.106,19.272c-2.471,1.977-20.26,13.836-20.26,13.836s-6.26,5.93-4.613,9.06l12.354-2.965,15.978-1.977,13.178-.823,7.741-21.084Z" fill="#fece2f"/><path d="M86.624,219.57l14.825,7.577a290.567,290.567,0,0,0-20.59,45.133l-15.154-7.741,4.941-16.307Z" fill="#fff"/><path d="M101.449,227.147,156.3,254.491l35.579,15.648s17.3,3.459,21.743,2.141,18.943-11.2,18.943-11.2l21.743-27.838,17.954-25.2,21.908-26.52s25.367-21.413,38.38-23.225l-.659,9.883-4.448,37.556-2.8,46.945L325.8,304.4s-25.531,24.872-58.64,34.426c-33.273,9.718-45.792,7.083-45.792,7.083s-35.414-1.977-70.994-21.578S79.541,278.54,79.541,278.54,87.448,249.385,101.449,227.147Z" fill="#fece2f"/><path d="M253.32,234.725a1.844,1.844,0,0,0-2.471.494l-17.3,22.237c0,.165-8.565,10.871-20.26,13.342-11.695,2.306-31.626-7.248-31.791-7.412a1.772,1.772,0,0,0-2.306.659,1.859,1.859,0,0,0,.659,2.47c.165,0,10.872,6.424,14.5,15.978,1.977,5.271.824,8.895,0,12.189-.823,2.636-1.647,5.436.33,8.072a8.218,8.218,0,0,0,6.918,3.459h.659c8.73-.659,21.084-12.684,30.308-29.156,7.248-12.848,21.084-39.532,21.249-39.7C254.308,236.207,254.143,235.219,253.32,234.725Z" fill="#fff"/><polygon points="346.715 162.083 330.079 183.662 332.55 158.295 346.715 162.083" fill="#fff"/><polygon points="346.715 162.083 363.187 180.861 373.07 173.449 376.694 137.705 346.715 162.083" fill="#fff"/><path d="M376.694,137.705l-22.4-36.568s12.848-6.259,10.212-20.095S350.669,70.17,350.669,70.17l-10.213,8.4-17.3-12.683L294.17,73.135l-8.9,16.307s-1.976,15.484,11.366,29.65c0,0-8.236,6.094-3.624,10.871l6.424-.165s8.236,13.178,20.1,13.178h10.377s.659,15.813,2.636,15.319,14.165,3.953,14.165,3.953Z" fill="#fece2f"/><polygon points="342.762 187.615 333.703 305.883 346.057 318.567 365.493 292.212 351.492 185.803 342.762 187.615" fill="#fece2f"/><path d="M357.587,173.12,351.492,185.8l-8.73,1.812s-6.259-12.519-5.436-12.683c.989-.165,9.389-12.848,9.389-12.848Z" fill="#fece2f"/><path d="M507.811,338.168,478.491,267.5s-10.707-24.214-6.589-37.556,23.061-54.028,23.061-54.028L514.4,125.186l4.283-25.7s-4.118-57.816-20.919-73.135c-16.637-15.319-28-9.389-28-9.389L400.579,7.248,356.1,2.141l-14.5,53.7,53.7,10.212,43.98,10.213s-2.306,35.25-24.048,50.9c-10.872,7.742-15.978,10.872-15.978,10.872H379l-2.47,5.271-3.624,30.473s-.824,48.1,1.647,76.594c2.635,28.5,22.072,104.267,22.237,105.091.165.659,11.366,57.487,30.308,58.31,19.108.824,38.545-27.343,38.545-27.343Z" fill="#fece2f"/><polygon points="356.269 1.977 341.609 55.675 368.458 60.617 384.107 5.93 356.269 1.977" fill="#fff"/><path d="M487.88,17.625c-.33,0-30.309-6.589-49.746-9.06-18.942-2.306-52.051-4.447-53.863-4.612L359.893.494C357.916.165,356.434,0,356.269,0a1.957,1.957,0,0,0-1.977,1.647,1.7,1.7,0,0,0,1.483,1.977l3.13.494c5.435.988,17.13,3.624,23.554,10.377,7.907,8.4,12.684,12.684,18.284,14a16.572,16.572,0,0,0,4.118.5c4.612,0,9.883-1.483,17.625-3.624,1.977-.494,3.789-.989,5.6-1.483,17.3-4.777,30.8-8.73,58.8-2.635a1.891,1.891,0,0,0,2.142-1.318A1.625,1.625,0,0,0,487.88,17.625Z" fill="#fff"/><path d="M272.427,403.562c-9.883,3.623-20.59,12.518-28,19.766A253.355,253.355,0,0,0,219.552,451.5c-4.447,5.765-8.73,11.86-11.036,18.778-2.635,7.906-2.635,16.472-5.106,24.378-.33,1.153-.824,2.471-1.318,3.789h1.483s.494,37.391,36.9,48.592a88.435,88.435,0,0,0,8.895,2.306l.164-.165c-12.354-7.083-25.366-15.813-29.814-29.32-3.129-9.389-1.647-20.095,2.965-28.99s12.025-16.143,20.261-21.743c2.635-1.812,5.435-3.624,7.082-6.259s1.483-6.754-1.317-8.566a20.19,20.19,0,0,0-2.8-1.153c-3.788-1.977-4.612-7.248-2.8-11.2s5.436-6.424,8.73-9.059c5.766-4.118,11.366-8.566,16.8-13.013,3.953-3.13,11.695-7.577,13.836-12.354C285.934,399.444,278.028,401.585,272.427,403.562Z" fill="#fff"/><path d="M379,136.058,358.246,101.3a21.543,21.543,0,0,0,7.577-11.53,19.82,19.82,0,0,0-1.812-15.319c-1.977-3.294-4.777-5.6-7.907-6.095a11.679,11.679,0,0,0-4.776,0c-.165-2.635-.824-8.565-1.812-14.989-1.977-11.695-4.448-19.437-7.577-22.567-2.306-2.47-4.777-3.459-7.248-2.965-3.13.5-5.271,2.965-6.589,4.777-3.624-2.47-8.236-3.624-14-3.459-15.484.824-35.579,12.025-43.815,21.578a25.733,25.733,0,0,0-6.259,21.084,25.308,25.308,0,0,0,11.365,17.461c5.271,3.129,11.695,3.623,19.437,1.482a55.061,55.061,0,0,0,15.648-7.577,42.691,42.691,0,0,0,9.554-9.224,20.551,20.551,0,0,1,2.141-2.471h0c1.977.824,5.271,7.412,7.577,16.472,1.318,5.271,3.459,10.707,8.731,10.707h.494c4.612-.165,5.106-6.919,5.765-18.12v-.329a9.248,9.248,0,0,1,3.953-6.753,7.994,7.994,0,0,1,12.189,2.965,16.117,16.117,0,0,1,1.483,12.353c-2.306,7.578-7.248,10.378-7.413,10.378a1.741,1.741,0,0,0-.988,1.153,2.321,2.321,0,0,0,.165,1.482l21.743,36.238a2.181,2.181,0,0,0,1.647.989,2.085,2.085,0,0,0,.988-.165A2.242,2.242,0,0,0,379,136.058Z" fill="#191919"/><path d="M87.283,217.923c-2.471-.988-23.39-9.883-28.991-11.365-4.776-6.754-9.059-22.567-9.059-22.732a1.754,1.754,0,0,0-2.141-1.317,8.273,8.273,0,0,0-5.107,2.965,5.141,5.141,0,0,0-.823,4.118v.329L30.949,178.885a1.579,1.579,0,0,0-1.647-.494,4.755,4.755,0,0,0-3.624,2.965c-.824,2.141-.165,4.941,1.977,8.565l-10.213-5.6a1.859,1.859,0,0,0-2.471.658c-1.153,1.812-2.635,6.095.989,9.06,2.141,1.812,10.212,7.412,15.648,11.2h-3.13c-7.083-.165-13.342-.165-17.954-.165-9.224,0-9.224.165-9.883,1.153a7.544,7.544,0,0,0,0,6.095,6.21,6.21,0,0,0,5.271,3.294l1.317.165c20.59,2.635,33.109,5.436,37.062,8.565,3.3,2.636,8.071,10.707,5.107,16.308-.5.988-4.448,3.459-7.742,5.271-9.225,5.6-20.92,12.683-17.625,19.766a1.81,1.81,0,0,0,1.647.988h.494c21.908-5.765,37.556-7.577,39.862-6.094a2.056,2.056,0,0,0,2.636-.5,1.889,1.889,0,0,0-.494-2.635c-1.648-1.153-6.095-2.471-24.214,1.153-6.918,1.318-13.507,2.965-16.8,3.788.824-4.118,10.378-9.883,16.308-13.507,5.271-3.294,8.236-5.106,9.059-6.753,2.471-4.777,1.153-14.989-6.094-20.919-6.095-4.777-25.038-7.577-38.874-9.389l-1.318-.165a2.652,2.652,0,0,1-2.306-1.153,4.185,4.185,0,0,1-.329-1.977c4.118-.165,20.589,0,33.932.33h.329c9.224.164,17.3.659,18.778.823,2.636.494,18.778,7.083,28.826,11.366a1.942,1.942,0,0,0,2.471-.988C88.765,219.406,88.271,218.253,87.283,217.923ZM46.1,194.863s-.494-2.636-1.153-5.93a2.065,2.065,0,0,1,.165-1.483,3.577,3.577,0,0,1,1.153-.988A142.294,142.294,0,0,0,51.045,200.3L46.1,194.863Zm-16.8-12.19a.161.161,0,0,1,.165-.164l15.648,16.8L35.726,194.2C28.643,186.132,29.137,183.168,29.3,182.673ZM18.43,191.239a2.5,2.5,0,0,1-.823-2.636l15.648,8.566a3.635,3.635,0,0,0,.824.494L49.068,205.9c-3.13-.165-6.753-.165-10.542-.33C35.891,203.428,21.231,193.545,18.43,191.239Z" fill="#191919"/><path d="M482.609,448.859s1.811,1.153,4.612-5.93c0,0,30.473,5.107,33.273,13.343,2.965,8.236-2.141,14.989-2.141,14.989l-22.4,5.765S484.585,449.848,482.609,448.859Z" fill="#fece2f"/><path d="M605.654,444.577c-1.483-5.107-8.4-9.06-15.978-9.06h0a40.311,40.311,0,0,0-4.118.165c-8.236.494-23.555,1.318-36.074-4.942-15.977-8.071-41.179-12.683-53.039-6.753a1.74,1.74,0,0,0-.824,2.471,1.987,1.987,0,0,0,.824.823c-1.812,3.13-6.589,9.554-8.73,13.837h-.494a1.747,1.747,0,1,0-.494,3.459c9.224,1.317,24.707,5.271,27.014,10.212a2.72,2.72,0,0,1-.5,2.8c-3.129,4.941-3.953,8.894-2.306,11.7a3.587,3.587,0,0,0,1.153,1.482l-16.8,4.283a1.648,1.648,0,0,0-1.318,2.141,1.93,1.93,0,0,0,1.812,1.483h.494l24.543-6.26c3.954,4.283,18.778,19.931,28.826,19.931h.989a7.205,7.205,0,0,0,5.929-3.953,8.477,8.477,0,0,0,1.318-4.447H559.2a13.015,13.015,0,0,0,6.589-1.483,6.316,6.316,0,0,0,2.964-6.095,7.927,7.927,0,0,0-3.459-6.753c-2.8-2.141-7.247-3.294-12.189-3.789,19.931-4.118,43.651-9.718,49.416-13.507C605.489,450.507,606.642,447.542,605.654,444.577Zm-52.381,42a3.866,3.866,0,0,1-3.13,2.141c-3.623.33-9.553-2.965-16.8-9.224-1.318-1.153-2.635-2.471-3.953-3.459,6.918,2.965,16.636,6.424,24.543,7.742A4.019,4.019,0,0,1,553.273,486.58ZM534.66,474.226c.494.165.988.165,1.482.33a55.8,55.8,0,0,1,13.837,4.612A136.5,136.5,0,0,1,534.66,474.226Zm30.308,2.471a3.173,3.173,0,0,1-1.318,2.965c-1.482.988-3.953,1.153-6.918.823-3.294-5.435-13.836-8.565-22.566-10.047,10.542-1.153,23.554-1.648,28.661,2.47A4.36,4.36,0,0,1,564.968,476.7Z" fill="#191919"/><ellipse cx="291.072" cy="112.805" rx="9.554" ry="4.447" transform="translate(-21.092 114.124) rotate(-21.426)" fill="#fff"/><path d="M301.582,108.55c-1.317-3.459-6.918-4.118-13.012-1.647a18.73,18.73,0,0,0-6.589,4.118c-1.977,1.976-2.471,4.118-1.812,5.929s2.635,2.965,5.436,3.13h.823a17.286,17.286,0,0,0,6.754-1.482,18.763,18.763,0,0,0,6.588-4.118C301.747,112.5,302.406,110.362,301.582,108.55Zm-4.447,3.459a17.08,17.08,0,0,1-5.106,3.294c-.33.165-.659.165-.989.33.824-1.153,1.154-2.142.659-3.13-.329-.988-1.317-1.482-2.635-1.812l.988-.494a15.32,15.32,0,0,1,5.436-1.153c1.647,0,2.635.494,2.8.824A3.294,3.294,0,0,1,297.135,112.009Z" fill="#191919"/><ellipse cx="316.412" cy="101.004" rx="9.554" ry="4.447" transform="translate(-15.029 122.564) rotate(-21.426)" fill="#fff"/><path d="M327.114,96.855C325.8,93.4,320.2,92.737,314.1,95.208a18.739,18.739,0,0,0-6.589,4.118c-1.976,1.976-2.471,4.117-1.812,5.929.824,1.977,3.13,3.13,6.26,3.13a21.539,21.539,0,0,0,13.342-5.6C327.114,100.808,327.937,98.667,327.114,96.855Zm-4.448,3.459a17.068,17.068,0,0,1-5.106,3.294c-.329.165-.659.165-.988.33.823-1.153,1.153-2.142.659-3.13A3.554,3.554,0,0,0,314.6,99c.33-.165.659-.165.989-.494a15.316,15.316,0,0,1,5.435-1.153c1.648,0,2.636.494,2.8.824C323.819,98.5,323.655,99.161,322.666,100.314Z" fill="#191919"/><path d="M306.524,95.208a7.975,7.975,0,0,0,1.977,0,30.869,30.869,0,0,0,6.588-2.142,3.888,3.888,0,0,0,1.483-.988c3.13-3.459-5.106-4.118-7.083-3.459C307.348,89.113,302.077,94.384,306.524,95.208Z" fill="#191919"/><path d="M283.628,103.938a7.975,7.975,0,0,0,1.977,0,30.757,30.757,0,0,0,6.588-2.142,3.876,3.876,0,0,0,1.483-.988c3.13-3.459-5.106-4.118-7.083-3.459C284.452,98.008,279.181,103.279,283.628,103.938Z" fill="#191919"/><path d="M340.456,127.328s2.636-5.765,4.118.988c1.153,5.436-3.953,10.542-8.73,14.99-5.436,5.435-2.471,14.824-2.471,14.824l-3.624-15.813,5.6-5.271,4.118-5.765Z" fill="#181818"/><path d="M290.382,105.75a36.1,36.1,0,0,1-3.3-13.507,1.812,1.812,0,0,0-3.624,0,39.766,39.766,0,0,0,3.624,15.154,1.812,1.812,0,0,0,1.647.988,1.788,1.788,0,0,0,.824-.165A2.111,2.111,0,0,0,290.382,105.75Z" fill="#191919"/><path d="M346.386,127.822c-.165-1.153-.988-4.283-3.294-4.612-2.306-.165-3.789,2.471-4.118,3.294h0c0,.165-5.271,12.848-14.99,14.331-8.73,1.318-16.8-2.306-22.237-10.048a53.51,53.51,0,0,0,6.095-3.13c.329-.164.659-.494.823-.494a1.886,1.886,0,0,0,1.153-2.141,1.861,1.861,0,0,0-2.141-1.483c-.494,0-.659.165-1.812.824-1.976,1.153-8.236,4.941-11.365,4.118a1.844,1.844,0,0,1-1.318-1.153c-.988-1.812-.165-2.636,2.8-5.271,2.471-2.142,5.6-4.777,5.6-9.389a1.9,1.9,0,1,0-3.789-.165c0,2.965-2.141,4.612-4.447,6.589-2.636,2.306-5.93,5.106-3.624,9.718a5.1,5.1,0,0,0,3.624,2.965,8.328,8.328,0,0,0,2.141.33,16.382,16.382,0,0,0,2.635-.33c5.271,8.071,13.343,12.684,22.238,12.684a31.945,31.945,0,0,0,3.953-.33,22.076,22.076,0,0,0,3.13-.823l4.447,14.495a.576.576,0,0,0,.165.329v.659l.164.165v.165l.165.164h2.141a.161.161,0,0,0,.165-.164c0-.165,0,0,.164-.165l.165-.165.165-.165a.161.161,0,0,1,.164-.164v-1.318L334.855,155c-.494-2.8-.659-7.742,2.471-10.872C342.433,139.682,347.7,134.081,346.386,127.822Z" fill="#191919"/><path d="M357.093,78.571h0l-.659-.659a6.73,6.73,0,0,0-6.259-.988,1.823,1.823,0,1,0,1.153,3.459,3.96,3.96,0,0,1,2.141,0L349.186,87.3a1.86,1.86,0,0,0,.659,2.471,2.087,2.087,0,0,0,.988.165,2.291,2.291,0,0,0,1.648-.824l3.623-5.765c.165.988.33,1.976.5,3.459a1.828,1.828,0,0,0,1.811,1.812h0a1.828,1.828,0,0,0,1.812-1.812C359.893,83.018,358.905,80.218,357.093,78.571Z" fill="#191919"/><path d="M322.008,115.468l-8.236,16.8s7.741,0,10.706-4.612S322.008,115.468,322.008,115.468Z" fill="#fff"/><path d="M313.772,134.081a1.731,1.731,0,0,1-1.483-.823,1.5,1.5,0,0,1,0-1.648l8.236-16.8a1.669,1.669,0,0,1,1.483-.988,2.113,2.113,0,0,1,1.647.659c.659.823,6.094,8.73,2.635,14.165C322.5,133.917,314.1,134.081,313.772,134.081Zm8.4-14.824L316.9,130.128c2.306-.494,4.942-1.482,6.26-3.459C324.314,124.692,323.325,121.563,322.172,119.257Z" fill="#191919"/><ellipse cx="401.103" cy="307.909" rx="6.919" ry="8.401" transform="translate(-48.236 75.99) rotate(-10.212)" fill="#191919"/><ellipse cx="412.143" cy="340.024" rx="6.919" ry="8.401" transform="translate(-53.755 78.456) rotate(-10.212)" fill="#191919"/><path d="M506.987,36.073c-6.424-10.871-14.5-17.625-24.214-19.931C450.488,8.071,357.422.329,356.434.329h-.988a.162.162,0,0,0-.165.165h-.165l-.164.165V.824a.161.161,0,0,1-.165.164v.494h0L352.81,8.565c-6.094-.164-28.661-.659-40.356,1.153-11.86,1.812-15.813,7.248-16.966,9.389a6.518,6.518,0,0,0-.164,6.26,2.214,2.214,0,0,0,.988,1.153c-3.13,1.482-6.754,3.624-8.236,6.589a5.13,5.13,0,0,0-.165,4.118,1.985,1.985,0,0,0,1.647,1.153.989.989,0,0,0,.659-.165,1.76,1.76,0,0,0,.989-2.471c-.165-.329-.165-.659.164-1.318,1.153-2.47,6.424-4.941,9.719-6.259a43.926,43.926,0,0,0,8.236.659A38.467,38.467,0,0,0,317.89,28c3.13-.659,4.612-1.976,4.612-3.953,0-4.942-9.554-6.918-13.672-7.577a1.842,1.842,0,1,0-.658,3.624c5.765.823,9.718,2.635,10.377,3.624-1.153.658-5.271,1.482-10.871,1.153-6.095-.165-8.895-1.318-9.225-1.812a4.218,4.218,0,0,1,.165-2.8c1.483-2.8,5.765-6.094,14.166-7.412,10.707-1.647,31.791-1.318,38.873-1.153l-11.53,42.827v.494a.989.989,0,0,0-.165.659,1.862,1.862,0,0,0,1.483,2.141c.824.165,66.217,9.883,96.031,18.614-6.259,30.637-15.319,46.45-31.132,54.686-13.342,6.919-24.049,5.436-27.837,3.624h-1.318c-.165,0-.165.165-.329.165l-29.814,24.378-12.19-3.953h-.988c-.823.165-22.072,6.095-44.474,28.332-7.742,7.742-16.307,19.931-25.2,32.779-16.472,23.719-35.415,50.569-52.381,53.039-20.919,3.13-107.891-44.144-108.879-44.639h0l-14.825-7.577a1.774,1.774,0,0,0-2.306.495c-.658.823-15.154,20.919-21.248,45.791a1.982,1.982,0,0,0,.988,2.142l13.836,7.083c-.494,1.647-.823,3.129-1.153,4.612a1.891,1.891,0,0,0,.659,1.976,530.23,530.23,0,0,0,43.651,30.144c33.273,20.59,60.781,32.779,81.865,36.238a123.431,123.431,0,0,0,19.272,1.483,149.255,149.255,0,0,0,45.627-7.413c2.142-.659,4.118-1.482,6.26-2.141a40.538,40.538,0,0,0,4.777-1.812A156.082,156.082,0,0,0,319.7,312.637c2.306-1.647,4.282-3.459,5.929-4.777.494,14.166,1.648,28.332,3.13,42.168-13.672-.33-90.1-1.153-139.846,15.813-55.675,19.107-77.583,46.615-69.182,86.477,3.788,17.3,16.636,30.968,37.061,39.368a126.955,126.955,0,0,0,45.133,8.73h1.648a74.938,74.938,0,0,0,2.965,16.8c5.765,19.272,22.566,31.3,49.745,35.25a139.913,139.913,0,0,0,21.907,1.482,238.428,238.428,0,0,0,45.3-4.777c16.8-3.459,34.1-8.895,50.9-14,20.1-6.259,41.015-12.683,60.287-15.648,35.086-5.271,65.723-13.342,66.053-13.342a1.786,1.786,0,0,0,1.317-1.812c0-1.483.165-34.756-16.8-55.84,8.73-8.73,14.825-20.1,18.119-34.756a99.346,99.346,0,0,0-4.777-59.463c-.164-.165-.329-.494-.494-.659,6.589-7.907,11.2-13.507,11.86-14.331a1.726,1.726,0,0,0,.165-1.976c-.165-.659-27.179-61.276-35.086-90.761-1.811-6.918-1.317-14.165.659-21.907a176.731,176.731,0,0,1,6.754-17.955c2.8-6.094,6.094-12.683,9.389-19.272,8.071-15.813,17.3-33.767,22.731-53.533.988-3.789,1.977-7.742,2.635-11.7.989-3.789,1.318-5.93,1.483-6.26a2.085,2.085,0,0,0-.165-.988C522.141,85.489,518.023,55.016,506.987,36.073ZM343.75,55.181,357.587,3.953c3.459.33,12.683,1.153,24.543,2.306l-15.154,52.71C356.269,56.993,347.539,55.675,343.75,55.181Zm34.262,89.607c9.389,28.332,17.79,57.157,16.8,60.617-.823,1.647-3.953,1.811-6.588,1.976-3.13.165-7.577.165-7.577,4.118,0,3.3,3.788,5.271,7.906,7.577,2.141,1.153,6.424,3.459,6.259,4.777,0,.824-1.812,3.459-3.294,5.93-4.118,6.424-10.707,16.8-13.507,30.144-1.483-9.554-2.471-18.778-3.13-27.509C371.917,194.533,375.871,159.613,378.012,144.788Zm-3.13-3.13c-.988,5.93-2.47,16.966-3.459,30.967l-7.412,6.425-14.5-16.472Zm-28,23.39,8.4,9.719-5.106,9.718-6.1,1.977-4.612-11.036Zm16.637,126.669-17.131,24.708-10.872-11.2,9.389-115.3,5.107-1.647ZM335.185,160.272l8.565,2.635-10.542,14.66C334.032,169.331,334.856,163.4,335.185,160.272ZM67.846,263.715c5.106-20.1,16.143-37.062,19.272-41.674l11.7,6.095c-3.129,5.6-13.342,23.719-19.107,41.838ZM316.572,282c-6.424,25.2-19.6,42.168-38.874,50.9-3.459,1.318-6.918,2.636-10.377,3.789-21.414,6.918-43.157,9.059-63.087,5.765-20.426-3.13-48.263-15.484-80.548-35.744-21.414-13.342-38.215-26.026-42.333-29.155,4.942-19.6,17.46-42,20.919-48.1,11.86,6.424,83.513,44.474,107.068,44.474a12.453,12.453,0,0,0,2.471-.165c18.613-2.636,37.061-29.155,54.851-54.522,8.9-12.683,17.3-24.708,24.708-32.285,15.484-15.484,30.638-22.9,38.05-25.861-2.141,3.624-5.436,9.224-8.565,14.66-11.531,20.26-10.872,21.084-10.048,22.4a10.035,10.035,0,0,0,3.953,2.306c.988.494,3.13,1.318,3.459,1.812h0c-.165.494-2.141.988-3.13,1.153-2.47.494-6.753,1.318-6.094,5.765.164,1.318,1.153,3.624,2.471,7.248a202.167,202.167,0,0,1,8.894,27.178C320.69,246.584,321.349,263.386,316.572,282Zm-1.647-66.711a55.686,55.686,0,0,1-2.306-6.424c0-.659-.165-.989,3.129-1.483,2.142-.494,5.106-.988,5.93-3.459,1.483-3.953-2.965-5.6-5.6-6.589a7.119,7.119,0,0,1-1.977-.823c1.153-3.459,8.565-16.472,16.472-29.979-1.647,14-4.612,43.65-6.095,79.394A162.911,162.911,0,0,0,314.925,215.288Zm17.625-30.309,4.612-6.259,4.282,10.213-9.389,116.95a2.664,2.664,0,0,0,.494,1.483l13.178,13.342a1.872,1.872,0,0,0,1.318.494h.164a1.677,1.677,0,0,0,1.318-.824L367.305,293.2a3.1,3.1,0,0,0,.33-1.318L353.8,186.132l4.612-8.565,4.448,4.942a1.6,1.6,0,0,0,1.482.658,1.493,1.493,0,0,0,1.153-.494l6.1-5.106a381.534,381.534,0,0,0,.165,54.851c.988,13.672,3.129,28.826,5.765,44.145h0v.165c4.612,26.355,11.036,53.534,17.3,76.1l-62.593-2.635C324.478,289.411,328.926,221.547,332.55,184.979Zm-129.8,311.814c-20.1.329-71.982-6.919-80.383-44.969-4.118-18.942-.823-34.755,9.883-48.1,10.872-13.507,29.485-24.708,56.828-34.1,53.863-18.448,139.847-15.648,140.67-15.648l48.922,2.141a321.462,321.462,0,0,0-96.525,39.039q-33.851,20.508-53.369,42.5c-4.448-.164-22.732-.988-37.062,3.459-9.883,3.13-17.46,10.213-18.778,17.625a11,11,0,0,0,4.283,11.2,11.63,11.63,0,0,0,7.083,2.142c6.094,0,13.507-2.965,19.766-5.6,2.141-.824,4.612-1.812,6.424-2.471A80.9,80.9,0,0,0,202.751,496.793ZM500.4,377.042h0a95.069,95.069,0,0,1-1.153,35.744c-6.589,28.167-22.9,43.98-51.227,49.91-10.048,2.141-23.226,3.129-38.545,4.447-23.719,1.977-50.733,3.953-76.265,10.872-41.344,11.2-52.38,19.436-56,28.5,0,.165-.165.329-.165.494a10.791,10.791,0,0,0,.989,8.73,10.4,10.4,0,0,0,9.059,4.942h.824c11.2,0,25.7-6.589,36.9-17.131,7.577-7.083,27.673-24.049,50.9-29.485,11.695-1.482,23.225-2.306,33.932-3.129,15.319-1.154,28.661-2.307,38.874-4.448,13.671-2.965,24.543-7.906,33.273-15.484,14,17.79,15.648,45.3,15.813,51.887-6.259,1.647-33.438,8.236-64.24,13.013-19.6,2.965-40.521,9.389-60.946,15.813-16.637,5.106-33.932,10.542-50.569,14-11.036,2.306-39.7,7.248-66.052,3.294-25.7-3.953-41.345-14.824-46.616-32.779-6.095-20.1-2.635-40.521,10.213-60.452,12.683-19.766,34.426-39.038,64.734-57.487,55.346-33.6,103.773-40.521,111.021-41.509,3.13,11.2,6.259,21.084,8.9,28.826,5.6,16.472,12.189,26.025,19.931,28.99a14.2,14.2,0,0,0,5.6,1.153,20.287,20.287,0,0,0,9.389-2.635c4.448-2.306,11.2-8.071,18.613-15.648,10.543-9.719,28.826-24.379,38.38-23.226A5.915,5.915,0,0,1,500.4,377.042Zm13.013-257.291-1.647,6.259c-4.283,12.848-14.825,37.062-39.862,69.511-25.037,32.285-18.284,43.486-7.742,53.864,5.106,4.941,10.707,15.483,14.989,25.2,3.3,8.565,6.424,15.483,7.577,18.119,8.4,21.084,16.8,40.521,18.943,45.133-3.624,4.447-21.084,25.531-37.885,43.98l-16.966,17.46c-5.436,5.106-10.213,9.059-13.507,10.707-3.13,1.647-7.248,3.129-11.86,1.317-6.589-2.635-12.519-11.695-17.79-26.849-8.236-24.049-19.931-67.2-27.178-108.22-1.812-19.931,8.565-35.909,14-44.474,2.306-3.624,3.788-5.766,3.953-7.577.33-3.624-3.953-6.095-8.236-8.4-2.141-1.153-5.93-3.294-5.93-4.448h0a12.168,12.168,0,0,1,3.954-.494c3.623-.164,8.236-.164,9.883-4.118.494-1.317,1.812-3.953-8.566-37.885-3.624-11.86-7.412-23.555-9.224-29.155,4.942,1.153,14.66,1.647,27.343-4.942,2.965-.659,17.955-4.612,22.4-14,6.918-15.484,14.825-21.413,20.1-25.2,2.635-1.977,4.777-3.459,5.765-5.6,3.624-7.248-.494-9.554-4.612-11.531a.576.576,0,0,0-.33-.165c-11.036-6.259-51.721-13.836-80.218-18.777L385.918,6.589C416.227,9.554,461.36,14.5,481.785,19.6c8.73,2.141,16.142,8.235,22.072,18.283C515.223,57.322,518.847,89.607,513.411,119.751Z" fill="#191919"/></g></g></g></g></g><!--ITEM 5--><g><defs><clipPath id="clip-path-id-viewbox-item-5"><rect x="0.0" y="0.0" width="146.616" height="129.814"/></clipPath></defs><g transform="translate(1628.0 561.0) rotate(0.0 269.5 239.0) scale(3.6762699841763515 3.682191443141726)"><g clip-path="url(#clip-path-id-viewbox-item-5)" transform="translate(-0.0 -0.0)"><title>heart_shape_1</title><g id="Layer_2-i5" data-name="Layer 2"><g id="heart_shape_1-i5"><path d="M73.308,128.314c153.25-108.583,16-164,0-99C57.308-35.686-79.942,19.731,73.308,128.314Z" fill="#fece2f" stroke="#1a1a1a" stroke-linejoin="round" stroke-width="3"/></g></g></g></g></g></svg>