<svg xmlns="http://www.w3.org/2000/svg" viewBox="0 0 1500 1500" width="1500" height="1500"><g transform="translate(43.0 159.0) rotate(0.0 694.0 579.0) scale(2.2243589743589745 2.222648752399232)"><svg width="624" height="521" viewBox="0 0 624 521"><clipPath id="a"><path d="M0 0h623.3v520.4H0z"/></clipPath><g clip-path="url(#a)"><path d="M1 333.1C-13.8 197.5 139.1 47.9 295.1 10.8 426.7-20.4 608.7 8 622.7 202c9.8 136-88.6 250.9-240.4 303C230.2 557.9 15.7 468.6 1 333.1z" fill="#fece2f"/></g></svg></g><g transform="translate(472.0 157.0) rotate(0.0 486.5 383.5) scale(0.42494649954142466 0.417051818824425)"><svg width="2289.7" height="1839.1" viewBox="0 0 2289.7 1839.1"><g><path d="M2183.001 1774.903H111.531c-17.007 0-30.686-13.718-30.686-30.772V118.797c0-17.055 13.679-30.772 30.685-30.772h2071.471c17.007 0 30.686 13.717 30.686 30.772v1625.705c0 17.054-13.68 30.4-30.686 30.4z" fill="#fff"/><path d="M2212.947 193.686v-72.294c0-17.054-13.679-30.772-30.685-30.772H112.27c-17.007 0-30.686 13.718-30.686 30.772v72.294z" fill="#ffce31"/><g fill="#1a1a1a"><path d="m2168.213 141.783 18.115-18.167c2.219-2.224 2.219-5.561 0-7.785s-5.545-2.225-7.763 0l-18.116 18.166-18.116-18.166c-2.218-2.225-5.545-2.225-7.764 0s-2.218 5.56 0 7.785l18.116 18.167-18.116 18.166c-2.218 2.224-2.218 5.561 0 7.785s5.546 2.225 7.764 0l18.116-18.166 18.116 18.166c2.218 2.225 5.545 2.225 7.763 0s2.219-5.56 0-7.785z"/><path d="M2184.85 80.61H110.052c-19.965 0-36.601 16.313-36.601 36.333v1625.334c0 20.02 16.636 36.333 36.6 36.333H2184.48c19.964.37 36.6-15.942 36.6-35.962V116.943c0-20.02-16.266-36.333-36.23-36.333zM110.052 91.732H2184.48c14.049 0 25.51 11.123 25.51 25.21v74.89H84.172v-74.89c.37-14.087 11.83-25.21 25.88-25.21zm2100.307 111.223v203.908H84.542V202.955zm-25.51 1564.533H110.053c-14.05 0-25.51-11.122-25.51-25.21V417.985H2210.36v1324.662c-.37 14.088-11.83 25.21-25.51 24.84z"/><path d="M2086.507 169.588h-22.182c-9.243 0-16.637-7.415-16.637-16.683V130.66c0-9.268 7.394-16.683 16.637-16.683h22.182c9.243 0 16.637 7.415 16.637 16.683v22.245c0 9.268-7.394 16.683-16.637 16.683zm-22.182-44.489c-2.958 0-5.546 2.595-5.546 5.561v22.245c0 2.966 2.588 5.56 5.546 5.56h22.182c2.958 0 5.546-2.594 5.546-5.56V130.66c0-2.966-2.588-5.56-5.546-5.56zm-51.759 44.489H1968.2c-2.958 0-5.546-2.595-5.546-5.56s2.588-5.562 5.546-5.562h44.365c2.958 0 5.546 2.595 5.546 5.561s-2.588 5.561-5.546 5.561zm-44.365 192.786H615.071c-11.09 0-20.333-9.268-20.333-20.39v-74.15c0-11.121 9.243-20.39 20.334-20.39H1968.2c11.091 0 20.334 9.269 20.334 20.39v74.15c0 11.122-9.243 20.39-20.334 20.39zM615.071 258.566c-5.175 0-9.242 4.079-9.242 9.269v74.148c0 5.19 4.067 9.269 9.243 9.269H1968.2c5.176 0 9.243-4.078 9.243-9.269v-74.148c0-5.19-4.067-9.269-9.243-9.269zM286.032 354.96c-2.957 0-5.545-2.596-5.545-5.562 0-1.483.74-3.336 1.848-4.078l46.953-40.41-46.953-40.412c-2.218-1.853-2.588-5.56-.74-7.785s5.546-2.596 7.765-.742l51.759 44.49c2.218 1.853 2.588 5.56.74 7.785l-.74.741-51.76 44.49c-.739 1.112-2.218 1.482-3.327 1.482zm-88.729 0c-1.48 0-2.588-.371-3.697-1.484l-51.76-44.489c-2.218-1.853-2.587-5.56-.739-7.785l.74-.742 51.759-44.489c2.218-1.854 5.915-1.854 7.763.742 1.849 2.224 1.849 5.932-.74 7.785l-46.952 40.411 46.953 40.411c2.218 1.854 2.588 5.561.74 7.786-1.11 1.112-2.589 1.853-4.067 1.853zm312.402-55.612c-2.957 0-5.545 2.595-5.545 5.561 0 20.762-16.267 37.445-36.971 37.445-20.704.37-37.34-16.313-37.71-37.074 0-20.762 16.267-37.445 36.97-37.445 4.437 0 8.874.741 12.94 2.224l-10.721 3.708c-2.958 1.112-4.437 4.078-3.328 7.044s4.067 4.449 7.025 3.337l22.182-7.415c2.958-1.112 4.437-4.078 3.328-7.044 0-.371 0-.371-.37-.742l-11.091-22.244c-1.48-2.596-4.806-3.708-7.394-2.596-2.588 1.483-3.697 4.82-2.588 7.415l3.327 6.674c-25.51-7.415-52.129 7.414-59.523 32.996s7.394 52.274 32.904 59.69 52.129-7.416 59.523-32.997c1.11-4.449 1.849-8.898 1.849-13.347.739-2.595-1.849-5.19-4.807-5.19zM2158.6 347.174l-31.425-31.143c14.419-18.907 10.722-45.6-7.764-60.06-18.855-14.459-45.474-10.751-59.892 7.786-14.419 18.908-10.722 45.601 7.764 60.06 15.158 11.864 36.6 11.864 52.128 0l31.056 31.142c2.218 2.225 5.545 2.225 7.764 0 2.588-1.853 2.588-5.56.37-7.785zm-96.124-57.095c0-17.424 14.05-31.513 31.426-31.513s31.425 14.089 31.425 31.513-14.05 31.514-31.425 31.514c-17.377 0-31.426-14.089-31.426-31.514z"/></g></g><g><path d="M951.707 983.943c-16.062-5.605-31.502-11.3-45.03-16.956a296.127 296.127 0 0 0-11.228-77.407c11.052-9.221 24.237-19.069 38.356-29.052 11.5-8.334 15.648-23.537 10.241-36.718a322.494 322.494 0 0 0-16.207-32.882c-6.872-12.335-21.735-18.431-35.42-14.224-16.442 4.924-32.306 9.447-46.127 12.721-15.381-20.622-33.604-38.928-53.689-54.742 3.707-13.869 8.433-29.473 14.002-45.834 4.374-13.648-.947-28.43-13.41-35.51-10.774-6.372-21.456-12.123-32.671-17.162-12.951-6.056-28.283-2.245-37.108 9.192-10.42 13.573-20.621 26.48-30.158 37.386-24.603-7.541-50-11.792-75.613-13.156-5.141-13.537-10.597-29.251-15.833-45.632-4.162-13.363-17.208-22.262-31.344-21.164-13.159 1.274-25.916 3.124-38.849 5.953-13.866 2.963-23.89 14.892-24.04 29.197-.364 17.193-.865 33.454-1.947 47.894-24.215 8.274-47.358 19.566-68.804 33.787-12.243-7.747-25.69-17.223-39.538-27.276-11.4-8.503-27.494-7.756-38.19 1.73-9.276 8.33-18.195 16.924-26.447 25.739-9.583 10.595-10.796 26.324-2.77 37.856 9.678 14.15 18.954 27.722 26.448 39.966-14.764 20.87-26.677 43.864-35.921 67.741-14.494.833-30.989 1.004-47.84.909-14.318-.145-26.57 9.567-29.92 23.702-2.02 12.354-4.442 24.133-5.84 36.397-1.75 14.22 6.548 27.617 20.252 32.295 16.062 5.605 31.502 11.301 45.03 16.957a296.127 296.127 0 0 0 11.229 77.406c-11.053 9.222-24.238 19.07-38.357 29.053-11.499 8.333-15.648 23.536-10.24 36.718 4.824 11.362 10.181 22.012 16.206 32.882 6.872 12.334 21.735 18.431 35.42 14.224 16.442-4.924 32.306-9.447 46.127-12.722 15.382 20.623 33.604 38.929 53.689 54.743-3.707 13.869-8.388 29.783-14.002 45.833-4.374 13.649.947 28.43 13.411 35.51 10.462 6.417 21.456 12.123 32.67 17.162 12.951 6.057 28.283 2.246 37.108-9.191 10.421-13.574 20.621-26.48 30.159-37.386 24.603 7.54 50 11.792 75.613 13.155 5.14 13.538 10.597 29.252 15.832 45.633 4.473 13.317 17.519 22.217 31.656 21.118 12.892-.918 25.96-2.813 38.627-5.285 13.866-2.964 23.89-14.893 24.04-29.198.32-17.504.775-34.075 2.168-48.561 24.216-8.274 47.313-19.877 68.76-34.097 12.242 7.746 25.69 17.223 39.537 27.275 11.4 8.504 27.494 7.757 38.19-1.73 9.321-8.018 18.196-16.923 26.448-25.738 9.582-10.595 10.795-26.324 2.769-37.856-9.678-14.15-18.953-27.723-26.448-39.967 14.141-20.778 26.1-43.462 34.988-67.605 14.493-.833 30.989-1.004 47.84-.909 14.317.145 26.835-9.923 29.92-23.702a322.494 322.494 0 0 0 6.196-36.131c1.794-13.91-6.548-27.618-19.94-32.34zm-321.211 168.48c-99.878 14.488-192.5-54.604-206.975-154.393s54.653-192.662 154.842-207.195c99.878-14.488 192.812 54.559 207.332 154.66 14.164 99.834-55.01 192.395-155.199 206.928z" fill="#ffce31"/><g fill="#fff"><path d="m574.206 1152.018-43.39 112.627c-5.249-1.143-10.231-2.642-15.214-4.141-9.538 10.906-19.738 23.812-30.159 37.385-8.514 11.392-24.157 15.249-37.107 9.192-11.215-5.039-22.254-11.056-32.67-17.163-12.199-7.435-17.83-22.171-13.412-35.509 5.258-16.316 10.295-31.965 14.002-45.834-20.175-16.435-38.086-34.786-53.468-55.409-4.933 1.033-10.132 2.422-15.331 3.811l74.305-192.973c-4.126 92.013 61.264 172.673 152.444 188.014zM770.76 641.04l-68.114 176.522c-77.732-49.667-180.541-33.484-239.177 37.551l96.686-251.131c3.733-.542 7.201-.728 10.624-1.224 14.137-1.098 27.137 7.49 31.344 21.164 5.236 16.38 10.38 32.14 15.833 45.632 25.568 1.053 50.965 5.304 75.613 13.155 9.537-10.905 19.737-23.812 30.158-37.385 8.514-11.392 24.157-15.248 37.108-9.192 3.07 1.46 6.498 3.184 9.925 4.909zm142.514 137.082-179.482 466.603c-10.128 4.643-20.301 8.975-30.61 12.375-1.082 14.44-1.848 31.057-2.169 48.561-.194 13.995-10.173 26.234-24.039 29.198-12.667 2.472-25.735 4.368-38.627 5.285-14.137 1.099-27.138-7.49-31.656-21.118-4.654-14.56-9.217-28.5-13.866-40.84l49.138-127.744c98.976-20.705 162.094-117.784 141.396-216.67-5.253-25.266-16.017-49.098-31.132-70.076l47.28-123.031c17.37 14.62 32.788 31.111 46.519 49.116 14.132-3.32 29.996-7.842 46.126-12.721 6.976-2.282 14.358-1.766 21.122 1.062z"/></g><path d="M661.205 1342.225c-7.157 1.038-14.67 1.81-22.85 2.362-16.314 1.414-31.452-8.77-36.241-24.262-4.027-12.43-9.217-28.5-14.448-42.66-24.012-1.278-47.808-5.444-70.72-12.278-7.851 9.392-17.298 20.92-27.986 34.849-10.155 13.217-27.665 17.344-42.618 10.626-11.26-5.35-22.253-11.056-33.026-17.429-13.934-8.453-20.55-25.586-15.512-41.235 5.7-17.65 10.074-31.298 13.162-42.855-18.704-15.062-35.502-32.305-50.035-51.464-11.644 2.959-25.42 6.544-43.06 11.96-15.82 4.834-32.73-2.236-40.806-16.3-6.024-10.87-11.426-21.83-16.563-33.148-6.344-15.267-1.578-32.781 11.653-42.318 15.228-11.097 26.416-19.385 35.47-27.047a316.587 316.587 0 0 1-10.506-72.433c-11.125-4.417-24.297-9.807-42.005-15.808-15.44-5.696-25.298-21.089-23.196-37.264 1.398-12.265 3.729-24.665 6.462-36.488 3.702-16.09 17.951-27.362 34.492-27.222 18.452.18 32.68-.296 44.683-.768 8.491-22.498 19.697-43.803 33.351-63.559-6.245-10.204-14.006-22.092-24.797-37.35-9.275-13.572-8.112-31.833 3.157-43.943 8.518-9.17 17.438-17.765 26.713-26.093 12.383-11.001 30.7-11.754 43.881-1.922 14.205 10.319 26.227 18.732 36.733 25.46 20.027-13.061 41.658-23.817 64.318-31.865.82-11.863 1.28-26.213 1.776-44.695.5-16.26 11.81-30.28 27.855-33.56 12.933-2.828 26.312-4.769 39.47-6.043 16.315-1.414 31.142 8.814 36.242 24.262 4.027 12.43 9.217 28.5 14.448 42.66 24.012 1.278 47.808 5.444 70.72 12.278 8.162-9.437 17.298-20.92 27.985-34.849 10.156-13.217 27.665-17.344 42.619-10.625 11.26 5.35 22.564 11.01 33.026 17.428 13.934 8.453 20.55 25.586 15.512 41.235-5.7 17.65-10.074 31.298-13.163 42.855 18.705 15.062 35.503 32.305 50.036 51.464 11.644-2.959 25.375-6.855 43.06-11.96 15.82-4.834 32.684 1.925 40.806 16.3 5.979 10.56 11.426 21.83 16.562 33.148 6.345 15.267 1.579 32.781-11.652 42.318-14.962 10.74-26.416 19.385-35.782 27.092a316.587 316.587 0 0 1 10.507 72.433c11.17 4.728 23.94 9.541 41.694 15.854 15.395 5.384 25.297 21.088 23.196 37.264-1.398 12.264-3.774 24.353-6.462 36.487-3.702 16.09-17.952 27.362-34.492 27.222-18.452-.18-32.68.297-44.683.768-8.492 22.499-19.697 43.804-33.352 63.56 6.246 10.203 14.006 22.091 24.797 37.349 9.276 13.572 8.113 31.834-3.156 43.943-8.519 9.17-17.438 17.765-26.714 26.094-12.383 11-30.7 11.753-43.88 1.92-14.205-10.318-26.227-18.731-36.734-25.46-20.026 13.062-41.657 23.818-64.317 31.866-.82 11.863-1.547 26.57-1.687 45.317-.189 16.216-11.81 30.28-27.854 33.56-4.888 1.344-10.489 2.156-16.09 2.969zm-146.636-86.65c.622-.09 1.245-.18 1.912.04 24.247 7.275 49.021 11.617 74.278 12.714 1.912.04 3.694 1.369 4.23 2.878 5.677 15.047 11.36 32.315 15.878 45.943 3.58 11.543 14.8 18.803 26.713 17.71 12.892-.918 25.338-2.724 38.005-5.196 11.733-2.337 20.071-12.751 20.58-24.57.492-20.702 1.128-36.03 2.125-48.871.04-1.91 1.416-3.38 3.238-3.961 23.904-8.23 46.735-19.476 67.604-33.295 1.42-1.159 3.644-1.164 5.068-.1 11.175 6.948 24.265 16.159 39.584 27.586 9.618 7.175 23.178 6.477 32.188-1.495s17.929-16.567 26.181-25.382 9.159-22.278 2.336-32.08c-11.639-16.722-19.846-29.497-26.493-40.277-.847-1.464-.852-3.686.212-5.11 14.498-20.513 26.457-43.196 35.124-66.672.708-1.69 2.44-2.894 3.995-3.12 12.937-.606 28.143-.907 48.151-.953 12.094.15 22.615-8.359 25.392-19.871 2.733-11.823 4.843-23.556 6.286-35.51s-5.605-23.31-16.995-27.371c-19.4-6.709-33.505-11.963-45.076-17.268-1.691-.707-2.895-2.437-2.854-4.347-.542-25.632-4.24-51.123-11.048-76.163-.582-1.82.08-3.821 1.501-4.98 9.943-8.107 21.93-17.464 38.623-29.408 9.767-7.13 13.298-20.021 8.518-31.072s-10.182-22.011-16.116-32.26c-5.98-10.56-18.439-15.418-29.992-11.838-19.151 5.953-34.127 10.03-46.437 12.767-1.822.582-3.824-.08-4.717-1.855-15.337-20.311-32.892-38.397-52.62-53.945-1.425-1.063-2.052-3.194-1.655-4.838 3.31-12.225 7.549-26.806 13.957-46.145 3.756-11.337-.938-23.987-11.355-30.094s-21.1-11.858-32.314-16.897c-10.904-5.084-23.792-1.945-31.286 7.712-11.752 15.354-21.73 27.593-30.114 37.697-1.064 1.424-3.197 2.05-4.888 1.344-24.247-7.275-49.021-11.617-74.278-12.714-1.912-.04-3.693-1.37-4.23-2.878-5.677-15.047-11.359-32.316-15.877-45.944-3.536-11.231-14.489-18.847-26.403-17.754-12.847 1.229-25.604 3.08-38.226 5.862-11.688 2.648-20.07 12.751-20.58 24.57-.226 20.347-.862 35.675-1.903 48.205-.041 1.91-1.416 3.38-3.238 3.961-23.904 8.229-46.735 19.476-67.605 33.295-1.42 1.158-3.643 1.163-5.068.1-11.174-6.949-23.954-16.205-39.583-27.586-9.619-7.175-23.178-6.478-32.188 1.495s-17.93 16.567-26.182 25.381-9.158 22.278-2.335 32.08c11.638 16.722 19.845 29.498 26.492 40.278.848 1.464.852 3.685-.212 5.11-14.498 20.512-26.456 43.196-35.123 66.672-.708 1.69-2.44 2.893-3.996 3.119-12.937.607-28.143.908-48.15.953-12.095-.15-22.615 8.36-25.393 19.872-2.733 11.823-4.843 23.556-6.286 35.51s5.605 23.31 16.996 27.37c19.088 6.754 33.55 12.275 45.387 17.223 1.69.707 2.895 2.437 2.854 4.347.541 25.632 4.239 51.124 11.048 76.164.582 1.82-.081 3.82-1.502 4.979-9.943 8.108-21.663 17.108-38.311 29.363-9.768 7.13-13.299 20.021-8.519 31.072s10.137 21.7 16.117 32.26 18.439 15.418 29.992 11.838c19.15-5.952 34.127-10.03 46.437-12.767 1.822-.582 3.824.08 4.717 1.855 15.336 20.312 32.891 38.397 52.62 53.945 1.425 1.063 2.051 3.194 1.655 4.839-3.31 12.224-7.55 26.805-13.957 46.144-3.756 11.337.938 23.988 11.355 30.095s21.099 11.857 32.314 16.896c10.903 5.084 23.791 1.945 31.286-7.712 11.751-15.353 21.73-27.593 30.113-37.697-.045-.31 1.11-1.113 2.043-1.248z" fill="#1a1a1a"/><path d="M631.172 1157.086c-102.367 14.85-197.483-56.103-212.319-158.38s56.156-197.64 158.834-212.534 197.794 56.058 212.675 158.645c14.525 102.322-56.511 197.375-159.19 212.27zM578.73 795.543c-97.39 14.127-164.7 104.196-150.541 201.81 14.114 97.302 104.599 164.8 201.988 150.673s164.966-104.552 150.852-201.855c-14.426-97.257-104.91-164.754-202.3-150.628z" fill="#1a1a1a"/></g><g><path d="M1264.965 1246.175c-1.771-12.211 8.544-29.784 20.656-48.274 5.764-9.039 5.708-20.514-.1-29.515-5.307-7.76-10.929-15.476-17.402-22.411-7.243-7.808-18.197-10.157-27.95-6.445-20.404 7.881-39.467 13.927-50.385 9.605-11.28-4.597-21.321-22.827-30.919-42.433-4.595-9.505-14.44-15.295-24.659-14.797a206.173 206.173 0 0 0-28.033 4.066c-9.94 2.427-17.733 10.775-19.438 21.194-3.585 21.846-7.764 41.81-16.958 49.378-9.509 7.613-29.818 7.278-51.26 5.795-10.405-.787-20.193 4.898-24.92 14.442-4.235 8.489-7.748 17.529-10.27 26.753-3.01 10.28.51 21.253 8.559 27.96 16.82 13.965 31.703 27.883 33.427 39.773 1.771 12.21-8.497 30.105-20.655 48.274-5.765 9.038-5.708 20.514.1 29.514 5.306 7.761 10.928 15.476 17.401 22.412 7.244 7.808 18.197 10.156 27.95 6.445 20.405-7.882 39.467-13.928 50.385-9.606 11.28 4.598 21.322 22.827 30.92 42.434 4.594 9.504 14.439 15.294 24.658 14.796a206.173 206.173 0 0 0 28.033-4.066c9.94-2.426 17.734-10.775 19.438-21.193 3.585-21.847 7.765-41.81 16.958-49.378 9.509-7.614 29.819-7.279 51.26-5.795 10.405.787 20.194-4.898 24.92-14.442 4.236-8.49 7.749-17.53 10.27-26.754 3.011-10.28-.51-21.252-8.558-27.96-16.505-14.01-31.703-27.883-33.428-39.772zm-110.975 77.452c-32.443 4.706-62.817-18.448-67.618-51.546s17.742-63.929 50.185-68.635 62.816 18.449 67.617 51.547-17.741 63.928-50.184 68.634z" fill="#ffce31"/><g fill="#fff"><path d="m1138.23 1323.617-24.17 66.173c-3.312-5.098-8.106-9.324-13.297-11.852-9.565-3.862-25.035.35-42.476 6.49l34.032-93.524c9.365 18 26.581 30.267 45.91 32.713zm63.044-172.867-22.746 62.685c-16.447-11.394-37.35-13.612-55.55-6.05l36.295-100.086c9.598 19.606 19.278 37.56 30.558 42.158 3.697 1.104 7.617 1.52 11.443 1.292zm71.149.506-102.714 282.957c-4.41.64-8.819 1.28-13.322 1.277-9.59.406-18.303-4.235-23.34-12.363l37.894-104.583c29.154-14.073 41.77-49.04 28.698-79.298l35.362-97.654c1.843-.596 3.372-1.145 5.168-2.062 9.753-3.712 20.753-1.042 27.95 6.445 1.54 1.745 2.764 3.536 4.304 5.281z"/></g><path d="M1170.677 1438.667c-4.725.685-9.181 1.003-13.952 1.367-12.424.818-24.03-6.029-29.22-17.416-8.781-18.412-18.414-36.045-28.341-40.182l-.362-.276c-10.825-3.68-34.017 4.934-46.512 9.7-11.596 4.307-24.58 1.268-32.954-7.688a197.902 197.902 0 0 1-17.81-23.008c-6.986-10.47-7.1-24.562-.263-35.07 11.039-17.02 21.4-34.273 19.862-44.877l-.046-.321c-2.308-11.477-21.344-27.418-31.608-36.1-9.495-7.81-13.658-20.986-9.934-33.01 2.79-9.59 6.302-18.631 10.491-27.441 5.438-11.288 17.023-17.89 29.365-17.056 20.135 1.345 39.815 1.771 48.203-4.695.315-.046.269-.367.584-.413 7.665-7.018 11.483-27.257 14.589-45.753 2.055-12.438 10.922-22.255 23.02-25.322a143.891 143.891 0 0 1 28.663-4.158c12.424-.818 24.03 6.03 29.22 17.416 8.781 18.412 18.414 36.045 28.34 40.183.316-.046.362.275.362.275 10.825 3.68 34.018-4.934 46.513-9.7 11.596-4.306 24.58-1.268 32.954 7.688a197.902 197.902 0 0 1 17.81 23.009c6.986 10.47 7.053 24.24.262 35.068-11.4 16.746-21.761 33.998-20.223 44.602l.046.322c2.308 11.477 21.344 27.417 31.609 36.1 9.494 7.809 13.657 20.985 9.934 33.009-2.79 9.591-6.303 18.632-10.492 27.442-5.438 11.288-17.023 17.89-29.365 17.055-20.135-1.345-39.815-1.77-48.203 4.696-.315.045-.269.367-.584.412-7.665 7.018-11.483 27.258-14.589 45.754-2.055 12.438-10.922 22.255-23.02 25.322-4.27 1.603-9.31 2.335-14.35 3.066zm-67.277-64.72c11.688 5.194 21.041 20.899 32.505 44.5 3.685 7.668 11.815 12.722 20.098 12.177 9.227-.682 18.362-2.007 27.088-3.93 8.096-1.83 14.455-8.986 15.81-17.385 3.584-21.847 7.8-43.785 18.474-52.223.315-.046.584-.413.899-.459 10.138-7.704 28.418-8.06 53.78-6.16 8.468.74 16.46-4.028 20.16-11.783 3.92-8.443 7.48-17.162 10.047-26.065 2.346-8.215-.265-17.351-6.82-22.634-16.82-13.965-33.15-28.986-35.154-42.804l-.093-.642c-1.55-12.9 7.016-29.234 21.228-50.982 4.737-7.25 4.645-16.75.015-24.282-4.992-7.806-10.835-14.833-16.947-21.493-5.75-6.384-14.72-8.364-22.63-5.248-20.136 7.514-40.949 14.799-53.943 9.465-.315.046-.362-.275-.677-.23-11.688-5.194-21.041-20.899-32.505-44.5-3.685-7.667-11.815-12.722-20.098-12.177-9.227.683-18.362 2.008-27.088 3.93-8.096 1.83-14.455 8.986-15.81 17.385-3.584 21.847-7.8 43.785-18.474 52.223-.315.046-.584.413-.899.459-10.453 7.75-28.418 8.06-53.78 6.16-8.468-.74-16.46 4.029-20.16 11.783-3.92 8.444-7.48 17.162-10.047 26.065-2.346 8.215.265 17.351 6.82 22.634 16.82 13.965 33.15 28.986 35.154 42.804l.093.642c1.55 12.9-7.016 29.235-21.543 51.028-4.737 7.25-4.645 16.75-.015 24.282 4.992 7.806 10.835 14.833 16.947 21.493 5.75 6.384 14.72 8.364 22.63 5.248 20.136-7.515 40.949-14.799 53.943-9.466.63-.091.63-.091.992.185z" fill="#1a1a1a"/><path d="M1154.689 1328.447c-34.963 5.072-67.82-19.691-73.041-55.681-5.174-35.669 18.932-69.023 54.21-74.14 34.962-5.071 67.82 19.692 73.041 55.682 5.22 35.99-18.932 69.022-54.21 74.14zm-17.386-119.86c-29.923 4.341-50.587 32.602-46.16 63.13s32.271 51.752 62.194 47.411 50.587-32.601 46.16-63.128c-4.429-30.528-32.271-51.753-62.194-47.412z" fill="#1a1a1a"/></g></svg></g><g transform="translate(42.0 466.0) rotate(0.0 418.5 434.5) translate(0.0 0.0) scale(1.6841046277665996 1.684108527131783)"><svg width="431.09" height="516" viewBox="0 0 431.09 516"><clipPath id="b"><path d="M0 0h496.204v515.9H0z"/></clipPath><g clip-path="url(#b)"><path d="M242.771 315.08c17.589-.918 70.05 5.965 70.05 5.965s68.52 14.224 91.309 26.765 29.06 40.531 21.107 64.85-45.731 36.095-77.544 32.578-49.555-21.566-49.555-21.566l-83.05-51.7-36.86-44.2c0-.151 48.178-11.773 64.543-12.692z" fill="#fece2f"/><path d="M404.13 347.964c-12.848-7.035-40.072-14.682-61.485-20.036a4.933 4.933 0 0 0-1.07 3.059c-.459 9.177 11.93 11.93 18.659 13.154 6.73 1.376 13.46 2.753 20.189 4.435a85.164 85.164 0 0 1 13.46 4.13c18.506 7.647 32.118 26.46 33.5 46.5.342-.209.652-.466.918-.765 1.677-20.193-5.97-40.382-24.171-50.477z" fill="#fff"/><path d="M173.18 356.988s-5.812 26.154-21.565 30.9-69.132-24.166-69.132-24.166-15.907 23.86-9.024 50.472C80.342 440.65 101.3 440.5 101.3 440.5s-9.793 24.316-10.1 49.552l72.955 8.565s96.663 15.3 125.264 15.754c28.448.458 55.825-4.895 60.108-46.037s-37.472-74.18-65.614-91.157c-27.99-16.824-32.578-15.753-32.578-15.753s-25.083 5.506-40.684 0l-2.141 5.353c.154.306-26.153-6.883-35.33-9.789z" fill="#fece2f"/><path d="M75.6 359.282s22.942 15.142 40.378 22.331c17.283 7.188 29.978 9.176 41.3 3.823 11.318-5.2 15.753-28.6 15.753-28.6l17.9 4.436s7.8-29.825 17.436-33.8L184.8 313.7s10.4-39.154 12.848-68.214c2.294-29.06 3.823-79.226-7.036-104.921 0 0-51.543-5.048-95.744 32.271-44.2 37.472-50.167 63.014-52.155 76.78s-.306 48.637 44.507 74.332zm161.665-200.665s26.154 13.307 45.578 33.954c19.424 20.5 40.684 66.226 61.179 60.414 9.483-2.753 19.271-9.023 45.731-27.53 0 0 13.765 26.46 28.754 33.342 0 0-31.66 44.355-57.049 57.508-25.236 13.154-66.838 2.142-66.838 2.142s-39.919-16.977-48.484-29.825c0 0-2.753-63.932-4.589-82.438-1.835-18.813-4.282-47.567-4.282-47.567z" fill="#fece2f"/><path d="m390.824 225.3 22.636-16.212s13.765 25.695 19.271 29.824l-14.224 19.578c0 .154-21.566-12.235-27.683-33.19z" fill="#fff"/><path d="m413.46 209.089 20.5-16.977 12.541-8.107 13.46-22.177a6.316 6.316 0 0 1 4.894 3.824l6.882-7.189s3.518 1.224 1.071 6.577l11.012-4.435s2.294 5.2 0 7.341l10.248-2.294s1.376 4.435-8.412 9.177c-9.636 4.741-23.86 12.388-18.966 24.318s25.237 6.73 25.237 14.683l-13.46 1.988-27.224 4.589-18.507 18.506c-.005.153-17.288-19.883-19.276-29.824z" fill="#fece2f"/><path d="m208.511 327.623 13.765 5.812s-11.165 18.66-12.694 32.119l-18.66-3.976c.153 0 7.036-24.625 17.589-33.955z" fill="#fff"/><path d="M222.276 333.434s17.13 0 28.907 6.577 21.566 21.107 23.554 31.966l-23.248-10.4a108.139 108.139 0 0 1-40.684 0s6.118-20.036 11.471-28.143z" fill="#fece2f"/><path d="M242.771 313.552s3.977-46.5 1.071-79.685-4.9-59.343-4.9-59.343l-10.094 5.659-7.948-21.872-9.177 21.107-14.683-11.165s4.588 51.237.459 79.379-13.612 64.7-12.542 66.226 13.154 8.565 13.154 8.565z" fill="#fff"/><path d="m220.9 158.158 15.447-7.035 2.6 23.401-9.941 5.659zm0 0-9.024 21.26-14.683-11.165-6.424-27.378 7.189-9.635z" fill="#fff"/><path d="m236.347 151.123 5.2-15.6s17.131 5.659 25.084-11.624c0 0 9.635.459 10.094-5.2.306-5.659-3.365-6.577-3.365-6.577s4.13-14.529 3.365-27.224c-.612-12.7-34.26-22.024-34.566-21.87-.459.3-11.165 18.046-11.165 18.046l-21.871-1.223s-12.389 12.694 4.282 21.412l-15.447 29.825 22.942 27.07zM101.295 440.497l-8.106 30.284-31.2-5.506-6.272-17.13 19.883-8.413 14.836-3.058z" fill="#fece2f"/><g fill="#fff"><path d="M93.5 341.542c-.459 3.517-.765 7.035 0 10.247.186.786.442 1.554.765 2.294.352.696.76 1.361 1.223 1.989a9.702 9.702 0 0 0 3.671 2.753 15.387 15.387 0 0 0 9.483.458 70.523 70.523 0 0 0 9.941-3.517 32.508 32.508 0 0 1 11.012-2.906 9.257 9.257 0 0 1 2.906 0 10.6 10.6 0 0 1 3.059.459 13.915 13.915 0 0 1 5.659 2.753 18.643 18.643 0 0 1 3.977 4.588 15.272 15.272 0 0 1 2.141 5.506c.43 1.855.636 3.755.612 5.659a35.17 35.17 0 0 1-.459 5.659 1.522 1.522 0 0 1-1.529 1.071 1.342 1.342 0 0 1-1.071-1.377v-5.2a25.13 25.13 0 0 0-.918-4.894 16.43 16.43 0 0 0-1.988-4.436 13.52 13.52 0 0 0-3.212-3.365 10.09 10.09 0 0 0-4.129-1.835 11.8 11.8 0 0 0-2.3-.306H129.9c-1.653.172-3.29.479-4.894.918-1.529.458-3.212 1.07-4.894 1.682-3.365 1.224-6.73 2.753-10.554 3.518a18.33 18.33 0 0 1-5.812.306 15.608 15.608 0 0 1-5.812-1.53 13.32 13.32 0 0 1-4.894-3.823 24.675 24.675 0 0 1-1.529-2.753 20.384 20.384 0 0 1-.765-2.906 24.64 24.64 0 0 1-.153-5.812c.153-1.836.46-3.671.765-5.506a1.19 1.19 0 0 1 1.376-.918 1.054 1.054 0 0 1 .765 1.224zm190.567 35.789c-1.224-.765-2.447-1.529-3.671-2.141-8.718-4.741-13.918-6.118-13.918-6.118s-1.071 12.695 19.424 25.695 51.237 31.354 53.837 59.038c3.824 41.6-33.8 60.108-33.8 60.108 21.871-2.448 40.225-12.389 43.743-45.426 4.281-41.142-37.473-74.179-65.615-91.156zm58.884-116.393c1.989-.612 4.13-1.377 6.271-1.836a25.139 25.139 0 0 1 3.365-.306 8.724 8.724 0 0 1 3.365.612c1.127.384 2.205.898 3.212 1.53a8.566 8.566 0 0 1 2.447 2.753 7.682 7.682 0 0 1 .917 3.67 20.966 20.966 0 0 1-.305 3.365 25.083 25.083 0 0 0-.459 3.059 5.98 5.98 0 0 0 .306 2.447 4.842 4.842 0 0 0 3.212 2.753 7.44 7.44 0 0 0 4.435-.305 17.831 17.831 0 0 0 4.283-2.6 12.856 12.856 0 0 0 4.129-9.176c0-1.836-.306-3.824-.459-6.118a16.34 16.34 0 0 1 .918-7.5 9.178 9.178 0 0 1 2.447-3.517 12.318 12.318 0 0 1 3.671-1.989 18.681 18.681 0 0 1 7.035-.459c1.071 0 2.142.153 3.059.153h2.906a6.566 6.566 0 0 0 4.742-2.141 1.182 1.182 0 0 1 1.529-.153.974.974 0 0 1 .333 1.039.968.968 0 0 1-.18.338 8.889 8.889 0 0 1-2.6 2.753 15.549 15.549 0 0 1-3.365 1.376 12.713 12.713 0 0 1-3.365.459 23.608 23.608 0 0 1-3.212.153 15.395 15.395 0 0 0-5.506.918 3.922 3.922 0 0 0-1.835 1.223 5.305 5.305 0 0 0-1.071 1.836 10.447 10.447 0 0 0-.306 2.294 18.62 18.62 0 0 0 .153 2.753c.153 1.988.765 4.129.918 6.577a17.716 17.716 0 0 1-5.812 13.612 17.19 17.19 0 0 1-6.73 3.824 11.533 11.533 0 0 1-8.106-.765 10.499 10.499 0 0 1-3.212-2.6 7.223 7.223 0 0 1-1.682-3.824 10.446 10.446 0 0 1 .153-3.824c.306-1.07.612-2.294.918-3.211a7.173 7.173 0 0 0 0-5.354 7.067 7.067 0 0 0-4.13-3.364 8.701 8.701 0 0 0-2.753-.459 18.58 18.58 0 0 0-2.906.153 44.379 44.379 0 0 0-5.965 1.835c-.612.153-1.223 0-1.376-.612s0-1.223.611-1.376zm-53.99 46.649a10.732 10.732 0 0 1-.459-4.435 16.325 16.325 0 0 1 1.071-4.13 16.08 16.08 0 0 1 2.294-3.67 18.14 18.14 0 0 1 3.059-2.906 20.465 20.465 0 0 1 7.647-3.518 37.097 37.097 0 0 1 8.106-1.224c1.377-.153 2.753-.153 4.13-.306 1.377 0 2.753-.153 4.13-.153 2.984-.153 5.964.37 8.718 1.53a13.879 13.879 0 0 1 4.129 2.753 10.345 10.345 0 0 1 2.753 4.435c.449 1.592.605 3.252.459 4.9 0 1.529-.153 2.753-.153 3.976-.034.971.018 1.943.153 2.906 0 .153.153.306.153.459s.153.306.306.459c.173.325.44.592.765.765a6.312 6.312 0 0 0 2.294 1.07 9.257 9.257 0 0 0 2.906 0 22.994 22.994 0 0 0 6.578-2.452 37.795 37.795 0 0 0 6.424-4.129c2.141-1.53 4.283-3.212 6.424-4.742 1.071-.764 2.294-1.529 3.365-2.294s2.294-1.529 3.518-2.294a16.595 16.595 0 0 1 4.129-1.682 9.863 9.863 0 0 1 4.742-.306 8.536 8.536 0 0 1 4.282 1.988 6.455 6.455 0 0 1 2.447 4.13c.153.611-.306 1.07-.917 1.223-.612 0-1.071-.153-1.224-.765-.612-1.988-2.906-3.211-5.047-3.364a7.954 7.954 0 0 0-3.212.611 16.196 16.196 0 0 0-3.212 1.683c-1.071.612-1.988 1.529-3.059 2.294s-1.988 1.682-3.059 2.447c-1.988 1.682-4.129 3.518-6.118 5.2a54.902 54.902 0 0 1-6.882 4.742c-1.224.764-2.6 1.376-3.824 1.988a20 20 0 0 1-4.283 1.376c-1.607.358-3.267.41-4.894.153a10.228 10.228 0 0 1-6.882-3.976 14.472 14.472 0 0 1-.765-1.224c-.153-.459-.459-.917-.612-1.376a15.2 15.2 0 0 1-.612-5.048c.015-1.382.117-2.761.306-4.129a9.44 9.44 0 0 0-.153-3.059 5.016 5.016 0 0 0-1.07-2.447 7.17 7.17 0 0 0-2.3-1.988c-3.67-2.3-9.329-2.448-14.53-2.6-2.57-.057-5.138.2-7.647.765a33.008 33.008 0 0 0-3.671 1.071 14.363 14.363 0 0 0-3.364 1.835 15.434 15.434 0 0 0-4.742 5.659 9.404 9.404 0 0 0-.459 7.036 1.15 1.15 0 0 1-.611 1.376c-.459.153-1.377 0-1.53-.612zm-5.812-107.98a31.985 31.985 0 0 1 2.447 11.93v4.588l-.153 1.53-.153 1.529-.153.765-.153.765-.306 1.529-.458 1.53a33.54 33.54 0 0 1-5.659 10.859c-2.448 3.212-5.506 5.965-7.954 8.871a39.098 39.098 0 0 0-5.965 9.635 37.157 37.157 0 0 0-1.835 5.354 35.8 35.8 0 0 0-.918 5.353 19.356 19.356 0 0 0 .153 5.2c.114.836.319 1.656.612 2.447.306.765.612 1.377.918 2.141a7.408 7.408 0 0 0 3.212 2.906 21.323 21.323 0 0 0 4.435 1.377 12.04 12.04 0 0 0 4.742-.306 4.16 4.16 0 0 0 1.835-.918 4.319 4.319 0 0 0 1.529-1.376 9.253 9.253 0 0 0 1.836-4.13c.177-.805.28-1.624.306-2.447v-2.6c-.153-3.671-.918-7.647-.918-11.93a17.68 17.68 0 0 1 1.376-6.73 14.418 14.418 0 0 1 4.283-5.811 11.898 11.898 0 0 1 3.365-1.836 10.27 10.27 0 0 1 3.67-.612 14.146 14.146 0 0 1 6.73 1.683 17.701 17.701 0 0 1 5.2 4.282 39.932 39.932 0 0 1 3.671 5.2l1.377 2.753c.458.918.917 1.836 1.223 2.6a12.66 12.66 0 0 0 3.059 4.129c1.988 1.836 8.106 1.988 7.342 0v-.153c-.153-.612 0-1.223.611-1.376.249-.079.516-.077.763.006.248.082.463.241.614.453a2.47 2.47 0 0 1 .153 2.294 3.043 3.043 0 0 1-1.224 1.835 5.438 5.438 0 0 1-3.671 1.075 25.896 25.896 0 0 1-3.364-.153 8.52 8.52 0 0 1-3.212-1.377 16.561 16.561 0 0 1-4.436-4.894c-.611-.918-1.07-1.835-1.529-2.6a13.135 13.135 0 0 0-1.53-2.447 31.965 31.965 0 0 0-3.364-4.283 12.704 12.704 0 0 0-4.13-2.906 10.254 10.254 0 0 0-4.588-.917 6.114 6.114 0 0 0-3.977 1.529c-2.141 1.835-3.212 5.353-3.212 8.718 0 3.518.918 7.341 1.071 11.624.077 1.12.077 2.245 0 3.365a12.713 12.713 0 0 1-.459 3.365 16.733 16.733 0 0 1-2.906 6.576 12.55 12.55 0 0 1-6.271 4.283 34.04 34.04 0 0 1-3.518.612h-3.518a17.942 17.942 0 0 1-6.729-1.989 15.37 15.37 0 0 1-5.2-5.2 15.653 15.653 0 0 1-1.377-3.365 25.947 25.947 0 0 1-.612-3.365 31.119 31.119 0 0 1 .306-6.576 40.12 40.12 0 0 1 1.683-6.118 37.093 37.093 0 0 1 2.447-5.659 47.187 47.187 0 0 1 7.188-9.942c2.753-2.906 5.812-5.506 8.259-8.412l.918-1.07c.306-.459.612-.765.765-1.071l.765-1.224c.173-.422.377-.831.611-1.223l.306-.612c.153-.153.153-.459.306-.612l.612-1.376.459-1.377.153-.612c0-.153.153-.458.153-.611l.459-1.377.305-1.376.153-.612.153-.612.153-1.376.153-1.377v-5.812l-.153-1.376-.153-1.377-.153-.612-.153-.611a22.102 22.102 0 0 0-1.835-5.354c-.153-.611 0-1.223.612-1.376s2.141-1.836 2.447-1.224zM58.164 301.011a87.033 87.033 0 0 1 37.166-17.13l1.224-.306 1.224-.153c.917-.153 1.682-.306 2.6-.459.918-.153 1.682-.153 2.6-.306l1.376-.153h1.377a36.271 36.271 0 0 1 10.706.918 21.898 21.898 0 0 1 5.2 2.141c.459.306.765.459 1.224.765l1.07.918 1.071 1.07c.459.459.612.765.918 1.071.309.371.566.783.764 1.223.153.459.459.918.612 1.377l.306.612c.122.18.176.396.153.612l.153.611.153.612a17.61 17.61 0 0 1 .306 5.659 29.68 29.68 0 0 1-3.365 10.4l-1.224 2.294a9.423 9.423 0 0 0-1.07 2.141 5.644 5.644 0 0 0-.612 3.671c.11.449.319.867.612 1.224.382.374.857.638 1.376.764 1.438.429 2.953.534 4.436.306 3.365 0 6.882 0 10.247.153s6.883.459 10.248.765c1.682.153 3.365.459 5.047.612 1.926.096 3.807.618 5.506 1.529a6.133 6.133 0 0 1 2.447 1.988 7.272 7.272 0 0 1 1.377 2.906 9.894 9.894 0 0 1-.306 5.965 16.446 16.446 0 0 1-2.906 4.742 43.171 43.171 0 0 1-3.824 3.67 1.247 1.247 0 0 1-.95.323 1.252 1.252 0 0 1-.885-.475 1.395 1.395 0 0 1 0-1.836c1.223-1.223 2.294-2.447 3.365-3.671a11.23 11.23 0 0 0 2.141-3.976 6.353 6.353 0 0 0 0-4.13 3.166 3.166 0 0 0-.918-1.529 5.485 5.485 0 0 0-1.529-1.071 12.547 12.547 0 0 0-4.283-.918c-1.529-.152-3.365-.305-5.047-.458-3.365-.306-6.73-.459-10.095-.612s-6.729-.153-10.094-.153a18.452 18.452 0 0 1-5.659-.459 7.14 7.14 0 0 1-3.059-1.835 6.54 6.54 0 0 1-1.682-3.212 12.392 12.392 0 0 1 0-3.365c.19-.952.498-1.877.917-2.753.459-.918.765-1.682 1.224-2.447l1.223-2.294a23.803 23.803 0 0 0 3.059-8.718 11.974 11.974 0 0 0-1.988-8.259c-.153-.306-.459-.612-.612-.918l-.764-.765-.918-.612c-.306-.153-.612-.458-.918-.611a19.968 19.968 0 0 0-4.129-1.836 40.453 40.453 0 0 0-4.589-.918c-1.529-.152-3.212-.152-4.894-.152a27.81 27.81 0 0 0-4.894.458 13.36 13.36 0 0 0-2.448.306l-1.223.153-1.224.153a95.007 95.007 0 0 0-19.118 5.812 84.441 84.441 0 0 0-17.283 9.942 1.098 1.098 0 0 1-1.36.058 1.099 1.099 0 0 1-.322-.364c.152 0 .305-.764.764-1.07zm90.698-148.665c1.835-.458 3.67-1.07 5.506-1.682a9.872 9.872 0 0 1 2.906-.612 6.358 6.358 0 0 1 3.365.306 3.178 3.178 0 0 1 1.529.918c.489.439.902.956 1.224 1.529a5.689 5.689 0 0 1 .459 3.518 4.532 4.532 0 0 1-.306 1.53c-.153.458-.306 1.07-.459 1.529l-1.377 2.753a57.696 57.696 0 0 1-3.365 5.047 82.55 82.55 0 0 0-3.058 4.742 26.414 26.414 0 0 0-2.142 4.741 27.716 27.716 0 0 0-1.376 4.741 14.232 14.232 0 0 0 .153 4.436 7.314 7.314 0 0 0 1.988 3.518c1.682 1.682 5.506 1.988 8.718 1.682 3.5-.47 6.876-1.613 9.942-3.365a39.987 39.987 0 0 0 4.588-3.059c.781-.528 1.5-1.144 2.141-1.835a6.608 6.608 0 0 1 1.071-.918l.459-.459a.473.473 0 0 0-.153.306v.153c.019.162.071.318.153.459l.306.306a.913.913 0 0 0 .611.153h.306a.15.15 0 0 0 .153-.153l.153-.153a1.082 1.082 0 1 1-1.529-1.529l.153-.153.153-.153h.305c.264-.024.53.029.765.153l.306.3c.075.265.177.521.306.765v.612c-.038.23-.145.443-.306.612l-.459.612a6.732 6.732 0 0 1-.917 1.07c-.612.765-1.377 1.53-1.989 2.294a39.006 39.006 0 0 1-4.588 3.977 31.021 31.021 0 0 1-5.353 3.212 20.297 20.297 0 0 1-6.118 1.835c-2.116.407-4.279.51-6.424.306a13.359 13.359 0 0 1-3.365-.765 14.386 14.386 0 0 1-3.365-1.835 13.644 13.644 0 0 1-4.129-6.118 15.71 15.71 0 0 1-.459-7.035 21.481 21.481 0 0 1 1.988-6.271 20.734 20.734 0 0 1 3.518-5.2c1.377-1.53 2.753-2.906 4.13-4.283a29.674 29.674 0 0 0 3.67-4.129l1.377-2.3c.153-.458.306-.764.459-1.223.173-.387.277-.801.306-1.224a3.361 3.361 0 0 0-.153-2.141 2.316 2.316 0 0 0-1.53-1.377 5.589 5.589 0 0 0-2.294-.3c-.882.131-1.752.335-2.6.611-1.835.612-3.671 1.071-5.506 1.836a1.08 1.08 0 0 1-.416.083 1.082 1.082 0 0 1-.764-.326 1.065 1.065 0 0 1 .051-1.529c.106-.096.229-.17.364-.217zm-32.884 7.648a80.987 80.987 0 0 0-8.259 7.953 102.035 102.035 0 0 0-7.036 9.024c-1.07 1.529-1.988 3.212-3.058 4.894-.459.765-.918 1.683-1.377 2.447-.153.459-.459.765-.612 1.224s-.306.765-.459 1.224a7.175 7.175 0 0 0-.306 2.447 3.28 3.28 0 0 0 .612 1.835c.153.153.46.306.612.459.306 0 .612.153.918 0 .84-.094 1.663-.3 2.447-.612 3.518-1.376 6.883-3.212 10.4-4.894a27.715 27.715 0 0 1 12.083-3.212c1.25-.009 2.492.198 3.671.612a7.678 7.678 0 0 1 3.365 2.447 8.644 8.644 0 0 1 1.682 3.823c.23 1.264.23 2.559 0 3.824a11.52 11.52 0 0 1-1.224 3.671l-.458.918a3.35 3.35 0 0 0-.459.764c-.459.459-.765.918-1.224 1.377a23.218 23.218 0 0 1-5.353 3.823c-1.835.918-3.671 1.683-5.353 2.448l-5.2 2.447c-3.518 1.529-7.036 3.212-10.554 4.894-7.035 3.212-14.07 6.424-21.106 9.483l-1.377.612a4.564 4.564 0 0 0-1.223.611c-.765.459-1.53.765-2.3 1.224A8.919 8.919 0 0 0 73 227.29c-.453.471-.863.983-1.223 1.53a2.642 2.642 0 0 0-.153 1.529c.106.664.368 1.293.764 1.836.229.473.484.932.765 1.376.306.612.46 1.071.765 1.683a8.963 8.963 0 0 1 .612 3.517 13.409 13.409 0 0 1-1.683 6.424 14.346 14.346 0 0 1-1.835 2.753 32.533 32.533 0 0 1-2.294 2.294 26.499 26.499 0 0 1-5.2 3.212c-1.835.918-3.67 1.53-5.353 2.295-.612.152-1.223 0-1.376-.612a1.132 1.132 0 0 1 .612-1.377c1.682-.917 3.364-1.682 5.047-2.6a23.473 23.473 0 0 0 4.435-3.212 11.653 11.653 0 0 0 3.06-4.129 10.5 10.5 0 0 0 .917-4.742 4.887 4.887 0 0 0-.459-2.141l-.459-.918c-.153-.306-.459-.611-.765-1.07l-.917-1.377a4.346 4.346 0 0 1-.612-1.835 7.528 7.528 0 0 1 .306-4.13 11.372 11.372 0 0 1 1.988-3.212c.765-.917 1.683-1.529 2.447-2.294a26.524 26.524 0 0 1 2.753-1.682c.46-.153.918-.459 1.377-.612l1.376-.612c6.883-3.365 13.92-6.729 20.8-10.094 3.518-1.683 7.036-3.365 10.4-4.9l5.2-2.447c1.682-.917 3.518-1.682 5.047-2.447a19.457 19.457 0 0 0 4.13-2.753c.305-.153.458-.459.764-.765l.306-.459.306-.458c.373-.556.633-1.18.765-1.836a4.849 4.849 0 0 0-.306-3.365c-.153-.458-.612-.611-1.071-.917a3.825 3.825 0 0 0-1.988-.459 12.99 12.99 0 0 0-2.447 0c-.873.035-1.742.137-2.6.306a35.037 35.037 0 0 0-5.353 1.529c-3.518 1.224-7.036 2.906-10.86 4.13a9.982 9.982 0 0 1-5.2.459 5.744 5.744 0 0 1-1.835-1.071 3.673 3.673 0 0 1-1.07-1.835 7.69 7.69 0 0 1-.307-1.836 7.523 7.523 0 0 1 .612-3.212c.164-.525.369-1.036.612-1.529.196-.49.453-.953.765-1.377.419-.869.932-1.69 1.53-2.447 1.07-1.682 2.14-3.365 3.211-4.894a107.17 107.17 0 0 1 7.341-9.177 54.735 54.735 0 0 1 4.13-4.282c1.377-1.377 2.906-2.753 4.282-3.977a1.035 1.035 0 0 1 1.53.153c-.153-.306-.153.306-.612.765zm63.473 73.566a53.042 53.042 0 0 0-9.024 8.565c-.612.765-1.376 1.53-1.988 2.447s-1.224 1.683-1.835 2.448a19.94 19.94 0 0 0-1.224 2.6 4.46 4.46 0 0 0-.306 1.376c0 .459-.153.918-.153 1.377a4.487 4.487 0 0 0 .612 2.447 3.25 3.25 0 0 0 1.529 1.376c.769.343 1.607.5 2.448.459l3.211.306c2.142.153 4.283.459 6.271.765l1.53.153h.917c.306 0 .612.153.918.153.795.225 1.563.532 2.294.917a5.341 5.341 0 0 1 2.142 2.6 7.67 7.67 0 0 1 .305 1.836 4.72 4.72 0 0 1-.153 1.529 2.22 2.22 0 0 1-.305 1.071c-.153.306-.153.612-.306.918a9.721 9.721 0 0 1-2.142 3.364 22.587 22.587 0 0 1-5.659 4.589c-3.823 2.294-7.8 3.824-9.482 6.271a2.47 2.47 0 0 0-.612 1.529c.03.539.187 1.063.459 1.53a3.902 3.902 0 0 0 1.682 1.376c.306.153.765.459 1.071.612a10.51 10.51 0 0 1 1.529.612 5.18 5.18 0 0 1 1.836.917 5.309 5.309 0 0 1 1.529 1.683 6.814 6.814 0 0 1 .918 4.129 8.006 8.006 0 0 1-1.224 3.518c-.612 1.071-1.376 1.836-1.988 2.753a1.112 1.112 0 0 1-1.835-1.224c.519-.886.979-1.806 1.376-2.753a4.948 4.948 0 0 0 .459-2.447 3.83 3.83 0 0 0-.612-1.988c-.153-.153-.459-.306-.612-.459a7.428 7.428 0 0 0-1.07-.459l-1.53-.458c-.611-.153-1.223-.459-1.835-.612a10.975 10.975 0 0 1-3.365-2.294A8.646 8.646 0 0 1 164 285.1a6.12 6.12 0 0 1-.459-2.294 8.841 8.841 0 0 1 1.07-4.282 11.982 11.982 0 0 1 2.447-3.059c.459-.459.918-.765 1.377-1.224l1.377-.918c1.835-1.223 3.823-2.294 5.353-3.364.764-.612 1.529-1.071 2.294-1.683a20.906 20.906 0 0 0 1.835-1.835c.463-.627.872-1.292 1.224-1.988.153-.306.153-.765.306-.918 0 .153.153.306.153.153l-.612-.306c-.612-.153-1.836-.459-2.753-.612-1.989-.459-4.13-1.071-6.118-1.682l-3.059-.918a13.655 13.655 0 0 1-3.518-1.529 7.248 7.248 0 0 1-1.529-1.53 5.154 5.154 0 0 1-.918-1.835 10.546 10.546 0 0 1-.612-3.824 12.015 12.015 0 0 1 2.6-6.577c1.377-1.835 2.753-3.364 4.13-5.047a71.638 71.638 0 0 1 9.177-8.871 1.023 1.023 0 0 1 1.529.153c.612 1.377.612 1.988.153 2.447z"/></g><path d="M242.465 4.293C239.1 1.387 234.206-.142 228.394.01a32.931 32.931 0 0 0-15.3 4.436c-7.188 4.435-10.247 11.318-8.259 18.812 4.589 16.672 20.342 22.942 20.954 23.248.153 0 .459.153.612.153h.459l16.824-4.894a1.51 1.51 0 0 0 1.07-1.07c.464-1.224 9.182-26.155-2.289-36.402zM236.347 152.8h-.459a1.55 1.55 0 0 1-1.07-1.988l5.2-16.824a1.563 1.563 0 0 1 .763-.964c.186-.101.391-.162.602-.18.21-.019.423.006.623.073.394.139.722.42.919.788.198.367.253.796.152 1.201l-5.2 16.824a1.519 1.519 0 0 1-1.53 1.07z" fill="#1a1a1a"/><path d="M259.748 102.055c.918-2.18-2.06-5.516-6.652-7.451-4.593-1.936-9.061-1.738-9.979.441-.919 2.18 2.059 5.516 6.652 7.452 4.592 1.936 9.06 1.738 9.979-.442z" fill="#fff"/><path d="M253.783 93a17.73 17.73 0 0 0-7.035-1.53c-2.6.154-4.282 1.072-5.048 2.754-.611 1.682-.153 3.67 1.53 5.506a17.907 17.907 0 0 0 5.965 4.129c2.08.908 4.31 1.427 6.577 1.53 2.753 0 4.741-.918 5.659-2.753 1.223-3.057-2.142-7.187-7.648-9.636zm-8.106 4.589c-.918-.918-1.071-1.683-.918-1.99s.918-.611 2.142-.611h.306c1.845.073 3.66.488 5.353 1.224.368.125.726.278 1.07.459a2.814 2.814 0 0 0-2.6 1.682 3.36 3.36 0 0 0 .612 3.06 7.603 7.603 0 0 1-1.071-.46 13.759 13.759 0 0 1-4.894-3.362z" fill="#1a1a1a"/><path d="m241.7 115.791 9.177 7.8s-4.894 3.059-8.718.153c-3.212-2.294-.459-7.953-.459-7.953z" fill="#fff"/><path d="M245.83 126.65a8.284 8.284 0 0 1-4.741-1.529c-3.365-2.447-1.989-7.494-.765-10.095a1.615 1.615 0 0 1 1.071-.917 1.46 1.46 0 0 1 1.376.306l9.177 7.8a1.652 1.652 0 0 1 .612 1.376 1.367 1.367 0 0 1-.765 1.224 10.93 10.93 0 0 1-5.965 1.835zm-3.365-7.953c-.306 1.377-.459 3.059.612 3.824a5.357 5.357 0 0 0 4.741.612zm40.225-27.99c-5.506-1.987-11.777.46-15.906 5.66a14.24 14.24 0 0 0-14.265-13.247c-2.394.008-4.747.62-6.842 1.78a18.059 18.059 0 0 0-8.106 22.023 13.894 13.894 0 0 0 8.412 8.412c1.51.599 3.118.91 4.741.918 6.424 0 12.542-4.435 15.142-11.318.153-.459.306-.765.459-1.224a1.366 1.366 0 0 0 .918-.917c2.6-6.882 9.023-11.011 14.377-9.023s7.647 9.176 5.2 16.211c-1.989 5.2-6.271 9.024-10.707 9.483a1.717 1.717 0 0 0-1.529 1.835 1.59 1.59 0 0 0 .514 1.125 1.577 1.577 0 0 0 1.168.405h.153c5.812-.612 11.165-5.047 13.46-11.624 3.059-8.569-.153-17.898-7.189-20.498zm-20.036 13.153c-2.6 6.883-9.635 10.707-15.753 8.565a11.079 11.079 0 0 1-6.424-6.426 14.334 14.334 0 0 1 0-10.095 15.075 15.075 0 0 1 6.577-7.8 12.095 12.095 0 0 1 5.353-1.376 10.27 10.27 0 0 1 3.67.612c6.271 2.143 9.177 9.485 6.577 16.52z" fill="#1a1a1a"/><path d="M217.535 42.684a2.94 2.94 0 0 1-2.447-1.377 2.875 2.875 0 0 1 .917-3.824c.612-.3 14.377-8.412 30.131-7.647a2.76 2.76 0 0 1 1.686 4.808 2.759 2.759 0 0 1-1.992.698c-14.224-.612-27.072 6.883-27.072 7.036-.305 0-.764.306-1.223.306z" fill="#fff"/><path d="M277.337 46.66c-6.271-6.272-18.048-13.307-38.084-11.013-14.53 1.682-24.777 7.341-30.436 16.824-6.73 11.471-4.436 24.472-2.141 29.825a13.61 13.61 0 0 0-2.906 9.024c0 5.812 4.129 9.176 7.494 10.859l-15.448 28.142a1.724 1.724 0 0 0 .612 2.294c.229.139.5.193.765.153a1.865 1.865 0 0 0 1.529-.917l16.366-29.825a1.462 1.462 0 0 0 0-1.377 1.624 1.624 0 0 0-1.071-.917c-.306 0-7.035-2.14-7.035-8.412a10.764 10.764 0 0 1 2.905-7.648 7.96 7.96 0 0 1 5.812-2.294c4.436.153 7.189 4.741 7.648 5.66 1.682 7.8 5.506 8.564 6.271 8.717h.306c2.294 0 3.823-3.212 6.423-9.024 2.6-5.659 6.577-14.224 10.095-14.224 3.365 0 6.882 3.824 10.094 7.648 3.518 3.976 7.189 8.106 11.777 9.023a18.21 18.21 0 0 0 7.036.153 64.029 64.029 0 0 1-3.977 22.331c-4.741-3.671-4.129-6.73-3.977-6.883a1.441 1.441 0 0 0-.481-1.734 1.462 1.462 0 0 0-.589-.254 1.782 1.782 0 0 0-2.141 1.07c-.153.306-2.448 7.495 9.788 13.307.765.459 1.224.918 1.224 1.529s-.459 1.071-1.224 1.53c-2.753 1.376-8.106.612-11.165-3.518a1.653 1.653 0 0 0-2.753 1.835 15.636 15.636 0 0 0 5.2 4.283c-1.682 3.518-6.576 10.859-16.671 10.859a18.953 18.953 0 0 1-6.118-1.071c-.153 0-.306-.153-.459-.153a.476.476 0 0 1-.306-.152 21.264 21.264 0 0 1-10.094-7.954.15.15 0 0 0-.153-.153l-.153-.153a.135.135 0 0 1-.059-.011.129.129 0 0 1-.05-.033.15.15 0 0 1-.044-.109h-1.377a6.028 6.028 0 0 0-2.753 2.753 6.857 6.857 0 0 0 .153 5.2c.612 1.682 2.3 3.212 3.977 4.894 3.518 3.365 5.812 6.118 5.2 9.789l-.459 1.529a1.444 1.444 0 0 0 .059 1.251 1.451 1.451 0 0 0 1.012.737c.153 0 .306.153.612.153a1.662 1.662 0 0 0 1.529-1.07c.153-.612.459-1.224.612-1.836l3.365-10.859c1.949.5 3.953.756 5.965.765 12.388 0 18.047-9.177 19.883-13.154.809.127 1.628.178 2.447.153a9.991 9.991 0 0 0 4.435-.917 4.741 4.741 0 0 0 3.059-4.435 4.744 4.744 0 0 0-3.059-4.436 9.184 9.184 0 0 1-1.223-.612c2.906-7.036 4.435-15.3 4.435-25.236a24.57 24.57 0 0 0 2.753-1.53c3.977-2.906 6.271-7.494 7.036-13.459.153-7.035-2.908-18.353-11.471-26.918z" fill="#1a1a1a"/><path d="M282.335 111.536c.919-2.18-2.059-5.516-6.652-7.452-4.592-1.936-9.06-1.738-9.979.442s2.06 5.516 6.652 7.452c4.593 1.935 9.06 1.737 9.979-.442z" fill="#fff"/><path d="M276.266 102.637a17.749 17.749 0 0 0-7.035-1.53c-2.6.153-4.282 1.071-5.047 2.753-1.377 3.059 1.988 7.189 7.494 9.636 2.08.909 4.31 1.427 6.577 1.529h.459c2.6-.152 4.283-1.07 5.047-2.753 1.376-3.211-1.836-7.341-7.495-9.635zm-9.023 2.447c.153-.306.917-.612 2.141-.612h.306c1.845.073 3.66.488 5.353 1.224.368.125.726.278 1.07.458a2.82 2.82 0 0 0-2.6 1.683 3.359 3.359 0 0 0 .612 3.059 7.318 7.318 0 0 1-1.07-.459c-4.13-1.838-6.118-4.438-5.812-5.353zM218.758 84.59a8.977 8.977 0 0 0-5.353.919 3.681 3.681 0 0 0-1.223.917c-1.53 1.533-2.142 3.674-1.836 6.424a1.67 1.67 0 0 0 1.683 1.53h.153a1.58 1.58 0 0 0 1.376-1.836 7.87 7.87 0 0 1 .153-2.753l1.836 3.365a1.677 1.677 0 0 0 1.529.918c.264.023.53-.03.765-.153a1.688 1.688 0 0 0 .612-2.294l-1.989-3.671a5.946 5.946 0 0 1 1.683 0 1.508 1.508 0 0 0 1.835-1.377 1.562 1.562 0 0 0-1.224-1.988zm275.916 80.298c-.611-.765-1.07-1.376-7.647.918a6.416 6.416 0 0 0 .153-3.824 3.597 3.597 0 0 0-2.753-2.906c-.612-.153-1.224-.153-9.33 4.894a.15.15 0 0 1 .153-.153 5.03 5.03 0 0 0 .181-3.875 5.042 5.042 0 0 0-2.628-2.854 1.876 1.876 0 0 0-1.988.306l-5.353 5.659a7.374 7.374 0 0 0-4.742-2.753 1.553 1.553 0 0 0-1.529.765c-4.895 7.953-12.848 20.8-13.765 21.871-.153.153-.153.306-.306.459-2.142.917-3.671 1.835-4.742 2.294-6.729 3.671-25.695 20.342-27.683 22.024-3.671 1.836-10.248 6.577-18.66 12.542-12.235 8.718-28.6 20.342-41.3 26.613-.918.458-1.683.764-2.6 1.223-4.436 1.988-8.259 3.212-11.013 3.212h-.458c-9.177-.459-21.413-17.283-33.343-33.5-8.565-11.777-17.589-23.86-26.307-31.966-19.424-17.589-36.248-26.766-39.919-28.6-.459-4.13-.612-6.424-.612-6.577v-.759a.158.158 0 0 0-.043-.109.167.167 0 0 0-.05-.033.171.171 0 0 0-.059-.011l-.153-.153-.153-.153h-.153a.158.158 0 0 1-.109-.043.167.167 0 0 1-.033-.05.171.171 0 0 1-.011-.059h-1.377l-14.377 6.576-22.789-26a1.67 1.67 0 0 0-1.376-.612 1.56 1.56 0 0 0-1.224.765l-5.812 8.718c-6.118-.153-39.919-.459-68.52 14.683C89.977 170.547 41.8 212.608 41.34 258.492c-.306 31.965 24.624 54.143 45.884 67.143l-12.389 32.884a1.673 1.673 0 0 0 .612 1.988s2.294 1.53 5.66 3.671a320.062 320.062 0 0 0-5.048 10.553c-3.67 8.106-5.506 19.73-4.894 30.131a52.922 52.922 0 0 0 3.67 16.977c-14.377 10.094-46.954 18.047-59.343 21.106-.774.166-1.54.37-2.294.612-7.342 1.836-11.624 4.436-12.848 7.8a5.826 5.826 0 0 0 1.071 5.812c2.753 3.671 14.836 5.048 34.566 6.883 3.06.306 6.118.612 9.024.918 18.66 1.831 40.99 5.812 47.107 6.882-1.376 9.789-1.835 17.283-1.835 17.895a1.665 1.665 0 0 0 1.53 1.682c.917.153 84.12 9.177 118.839 14.836l2.447.459c23.707 3.977 55.214 9.177 80.6 9.177 14.377 0 26.766-1.682 34.719-6.118 11.471-6.424 20.189-20.954 22.789-37.778a71.461 71.461 0 0 0-.918-25.695h5.354c39 0 61.331-9.635 70.355-29.977a62.347 62.347 0 0 0 3.518-36.555c-2.294-11.471-9.33-27.071-29.213-36.248-16.518-7.647-43.437-14.683-65.92-19.577 11.93-.459 22.33-2.906 30.283-7.648 12.542-7.494 28.143-22.636 46.343-45.119 13-16.059 22.636-30.13 23.554-31.354 7.953-8.565 16.212-16.212 17.589-17.436 2.447-.918 22.636-3.824 40.684-5.965a1.585 1.585 0 0 0 1.354-1.198c.051-.209.058-.425.022-.637-.764-6.577-6.423-7.342-11.471-7.953-5.965-.765-12.082-1.683-14.53-9.636-3.364-9.789 9.33-16.06 18.66-20.8 1.988-1.071 3.977-1.988 5.506-2.906 2.294-1.376 3.518-2.906 3.824-4.741a9.49 9.49 0 0 0-1.527-3.672zm-11.012-2.447c.192.325.297.694.306 1.071a1.4 1.4 0 0 1-.459 1.223l-3.364 3.212-.306.306c-3.059 1.223-6.73 2.753-11.318 4.588-1.683.612-3.365 1.377-5.048 2.142 9.177-5.659 17.742-11.166 20.189-12.542zm-11.624-1.84c.153.458.459.917 0 1.529-1.07 2.141-5.812 6.73-7.8 8.412-1.835 1.071-3.518 2.294-5.2 3.365zm-10.859 3.211a1.997 1.997 0 0 1 1.53 1.377c0 .153 0 .153.153.306l-7.648 7.953c2.447-3.972 4.742-7.795 5.965-9.631zm-214.125 44.2c.458 2.294 2.753 3.671 4.894 4.894 3.365 1.989 4.894 3.059 4.129 5.354a48.536 48.536 0 0 1-2.906 6.576 126.884 126.884 0 0 0-8.106 20.495c-1.376-30.895-3.976-61.485-5.659-79.073 8.565 15.906 16.366 31.813 16.518 34.719-.611.764-2.294 1.223-3.67 1.682-2.141.772-5.812 1.842-5.2 5.36zm-1.071 82.438c9.636 10.095 23.707 18.966 39.766 25.084a282.568 282.568 0 0 0-40.99-1.53c.459-7.181.918-15.134 1.224-23.547zm-11.012-136.88c.306 3.365 1.07 10.247 1.988 19.577l-7.188 4.436-6.73-18.507zm-14.53 36.86c0-3.365.153-6.729.459-10.247.153-3.365.459-6.883.764-10.248.153-1.376.153-2.906.306-4.282l5.506 15.142a1.847 1.847 0 0 0 1.071 1.07c.153 0 .306.153.459.153.306 0 .612-.153.918-.153l7.494-4.741c3.212 35.331 7.8 99.109 3.977 137.193a283.649 283.649 0 0 0-34.108 3.824 39.396 39.396 0 0 1-.917-8.412 42.187 42.187 0 0 1 1.529-9.789 70.018 70.018 0 0 1 3.365-9.483c1.377-3.212 2.906-6.118 4.435-9.176l4.895-9.177a92.396 92.396 0 0 0 4.435-9.636 47.913 47.913 0 0 0 3.059-10.4c.661-3.631.867-7.33.612-11.012a47.936 47.936 0 0 0-2.141-10.554 789.264 789.264 0 0 0-3.212-9.941c-.459-1.683-1.071-3.212-1.377-4.9-.153-.764-.459-1.682-.611-2.447a73.587 73.587 0 0 0-.459-2.447 74.774 74.774 0 0 1-.765-10.094c.153-3.513.153-6.878.306-10.243zm2.753 144.841 10.553 1.07c5.506.918 11.777 2.448 16.671 5.048 8.871 4.894 18.966 17.894 22.025 27.683a196.561 196.561 0 0 0-20.495-9.177h-.765c-.153 0-.153 0-.306.153-6.882 3.365-23.859 2.141-33.5 1.071h-.153l-4.894-.612c3.064-10.553 9.029-22.024 10.864-25.236zm-15.6 29.672-14.683-3.824c1.836-5.506 8.26-23.707 15.907-31.507l11.165 4.588c-2.601 4.894-9.79 18.966-12.39 30.743zm16.212-123.582a40.84 40.84 0 0 1-.612 9.636 51.312 51.312 0 0 1-2.6 9.483c-1.224 3.059-2.447 6.271-3.824 9.33s-2.906 6.117-4.435 9.329c-3.059 6.271-6.118 12.7-7.8 19.577a41.005 41.005 0 0 0-1.529 10.554 37.41 37.41 0 0 0 .918 9.177l-6.883 1.376c-3.059-1.682-6.577-3.671-10.095-5.659 4.283-17.589 7.648-35.178 10.248-51.543v-.459a365.723 365.723 0 0 0 4.435-42.519 252.848 252.848 0 0 0-2.141-48.178l12.083 9.788a2.21 2.21 0 0 0 1.071.306h.458a1.504 1.504 0 0 0 1.071-1.07l3.977-10.554c-.612 3.212-1.071 6.424-1.53 9.636a124.739 124.739 0 0 0-.918 10.4 61.137 61.137 0 0 0 .459 10.554l.306 2.6.459 2.6c.153.918.306 1.682.459 2.6s.306 1.682.459 2.6c.612 3.518 1.529 6.883 2.294 10.247 1.681 7.036 3.364 13.766 3.67 20.189zm-26.46-107.521 21.718 24.624-7.035 18.813-13.154-10.554a161.793 161.793 0 0 0-6.118-25.848zm-5.812 14.836c3.212 11.471 8.412 36.1 6.73 70.967-.306 8.412-1.224 17.742-2.448 27.683-2.753-9.788-8.106-19.118-11.624-25.083a40.969 40.969 0 0 1-2.906-5.506c0-.765 2.295-2.6 3.671-3.824 2.447-1.988 5.2-4.282 5.506-7.035a3.697 3.697 0 0 0-.764-2.906c-1.53-1.836-4.436-1.988-7.5-1.988a16.186 16.186 0 0 1-3.212-.306c-.153-1.071 1.071-4.742 2.141-8.107 1.224-3.517 2.6-7.8 3.977-13a219.24 219.24 0 0 0 6.429-30.895zM71.624 311.258c-18.507-15.6-27.837-33.342-27.684-52.461.153-24.93 15.3-47.107 27.99-61.484 14.071-16.06 33.189-31.2 51.084-40.684 26.765-14.224 58.425-14.377 66.073-14.224a248.446 248.446 0 0 1-7.036 36.554c-1.376 5.047-2.753 9.33-3.976 12.695a49.076 49.076 0 0 0-2.142 7.341c-.459 2.6.153 4.283 1.836 4.894 1.446.397 2.936.602 4.435.612 1.683 0 4.436.153 5.047.918v.306c-.153 1.376-2.447 3.365-4.282 4.741-2.6 2.141-5.047 4.13-4.742 6.577.153 1.223 1.071 2.906 3.365 6.883 5.048 8.718 14.377 24.777 12.389 37.93-2.447 16.06-5.812 33.343-9.942 50.779a102.685 102.685 0 0 1-13-9.024c-2.141-1.683-4.741-3.824-7.8-6.271-13-10.553-30.437-24.93-40.99-29.519 1.988-3.365 6.73-11.012 11.471-18.965 12.695-21.719 11.93-23.248 11.471-24.472a5.369 5.369 0 0 0-4.741-2.906 12.617 12.617 0 0 0-11.013 5.66 34.745 34.745 0 0 0-3.517 8.412c-1.989 6.117-3.824 11.929-11.318 13.306-1.071.153-2.142.459-3.365.612-10.554 1.835-23.554 4.129-27.684 9.941a7.324 7.324 0 0 0-1.223 5.659c1.376 8.26 14.377 9.483 26.766 10.554 3.539.195 7.063.603 10.553 1.223a73.06 73.06 0 0 1 22.789 8.718l4.741 3.059c4.9 3.824 9.636 7.8 13.765 11.165 3.059 2.447 5.66 4.589 7.8 6.271a119.184 119.184 0 0 0 15.142 10.248.15.15 0 0 1 .109.044.138.138 0 0 1 .032.05.128.128 0 0 1 .011.058c4.589 2.754 9.177 5.354 13 7.342a.15.15 0 0 1 .153.153h.153c3.365 1.835 6.271 3.212 8.106 4.129-7.953 8.871-14.224 26.613-16.059 32.119-9.024-2.753-54.3-16.212-74.333-23.859-7.186-2.754-26.61-10.86-43.434-25.084zm5.965 47.414 11.623-31.049a167.504 167.504 0 0 0 24.931 11.93c13.765 5.2 39.154 13.154 56.743 18.507-1.988 5.812-3.824 10.553-5.353 14.224-3.059 6.882-7.189 11.318-12.848 13.459-4.435 1.683-9.635 1.836-15.141.918a95.237 95.237 0 0 1-11.012-2.753 156.772 156.772 0 0 1-18.2-7.5c-11.013-5.042-26.46-14.983-30.743-17.736zm20.036 82.438c-2.448 3.059-8.107 11.471-11.013 26.613-5.047-.918-12.54-2.141-20.647-3.365a10.895 10.895 0 0 0-1.989-5.659c-1.376-2.447-1.988-3.824-.917-5.965 1.835-3.671 17.588-10.706 27.377-14.377a43.812 43.812 0 0 0 7.19 2.753zm249.609 30.742c-2.447 15.6-10.707 29.519-21.107 35.331-21.107 11.93-78.615 2.294-113.028-3.365l-2.447-.459c-32.119-5.353-105.686-13.459-117.463-14.836.46-6.117 2.294-29.212 9.177-46.037a179.312 179.312 0 0 0 20.954 4.436c8.106 8.106 19.883 12.389 36.4 13.153 13 .612 28.907-1.07 48.484-5.2 21.107-4.282 44.508-.917 66.073 9.636 2.447 1.07 11.624 5.353 19.424 5.353 3.365 0 6.271-.765 8.565-2.753a8.127 8.127 0 0 0 2.906-6.271 7.868 7.868 0 0 0-3.67-5.965c-17.895-12.236-80.6-11.012-115.016-8.259-23.095 1.835-60.873-.918-84.274-7.647-.153 0-.153 0-.306-.153a86.764 86.764 0 0 1-10.247-3.671.134.134 0 0 1-.059-.011.133.133 0 0 1-.05-.033.15.15 0 0 1-.044-.109 33.92 33.92 0 0 1-6.27-3.824c-13.459-11.167-13.306-37.93-7.036-53.378a154.177 154.177 0 0 0 60.108 12.389h.153c1.974.304 3.968.457 5.965.458 3.44.064 6.862-.506 10.095-1.682 6.424-2.447 11.471-7.647 14.836-15.3a156.042 156.042 0 0 0 5.506-14.683c9.329 2.907 15.906 4.742 16.059 4.895l17.9 4.588c.869.382 1.804.59 2.753.612a7.53 7.53 0 0 0 2.294-.459 8.468 8.468 0 0 0 4.589-4.129c4.741.458 11.012 1.07 17.13 1.07 6.423 0 12.541-.612 16.671-2.294 4.894 1.835 38.084 14.836 67.3 41.6l9.636 9.482a73.04 73.04 0 0 1 17.436 30.743.56.56 0 0 0 .153.458 85.379 85.379 0 0 1 .45 26.314zm-7.5-142.7a.914.914 0 0 0 .612-.153c35.025 8.106 51.7 14.836 58.12 17.742 18.506 8.718 25.083 23.248 27.224 33.954 2.753 13.612.153 26.766-3.364 34.566-8.871 20.036-32.272 28.907-73.721 27.989a74.67 74.67 0 0 0-14.989-27.836c3.661.347 7.337.5 11.013.459a134.946 134.946 0 0 0 16.518-1.071c13.765-1.835 21.871-9.33 23.554-15.6a9.494 9.494 0 0 0-3.212-10.094c-7.189-5.812-16.213-.459-24.166 4.283-2.447 1.376-4.741 2.753-7.035 3.823-8.565 4.13-26.307 4.436-29.978 4.589a221.962 221.962 0 0 0-44.2-30.743c-1.988-10.859-13.765-26.765-24.318-32.73a56.98 56.98 0 0 0-14.377-4.895c-.918-2.447-.918-4.588.306-6.576 1.988-3.365 7.341-6.118 15.294-7.8a83.861 83.861 0 0 1 11.93-1.682h.612c3.824-.306 7.953.459 13.459 2.753 1.53.612 2.906 1.224 4.436 1.835a62.238 62.238 0 0 0 9.33 3.671 73.216 73.216 0 0 0 13.918 2.294 268.227 268.227 0 0 0 25.848 1.224c2.603.152 4.897-.001 7.191-.001zm22.794-15.451c-13.459 8.107-35.636 9.483-59.037 3.824-23.248-5.659-44.508-17.283-56.743-31.2-.153-.153-.459-.306-.612-.459.153-8.106 0-16.518-.153-25.236 1.224-14.53 6.883-26.307 10.553-34.26a70.371 70.371 0 0 0 3.059-7.036c1.53-5.047-2.753-7.647-5.659-9.177-1.376-.764-3.212-1.835-3.365-2.6-.153-.612.918-1.07 3.212-1.682 2.141-.612 4.589-1.377 5.659-3.365.612-1.071 1.377-2.753-9.635-24.166-2.906-5.812-6.118-11.471-8.107-15.447a208.444 208.444 0 0 1 35.025 25.848c8.718 7.953 17.436 19.883 26 31.507.612.917 1.377 1.835 1.988 2.753 3.059 5.659 10.554 21.565 9.177 28.295-1.07 4.894-3.517 8.718-5.659 11.93-2.906 4.435-5.659 8.565-1.835 13a4.424 4.424 0 0 0 3.518 1.53c4.435 0 11.471-5.2 20.189-11.777A198.618 198.618 0 0 1 348 253.444a30.641 30.641 0 0 0 6.73-3.518c10.553-5.353 23.4-13.918 34.566-22.024 1.377 2.447 4.283 7.189 8.106 12.542 6.577 9.178 12.848 15.448 18.813 18.812-14.532 18.354-35.945 43.896-53.687 54.445zm55.372-57.045c-11.93-6.424-23.248-25.542-26.154-30.742 1.377-.918 2.753-1.835 3.977-2.753 7.035-5.047 13.306-9.483 16.977-11.624 2.447 4.741 10.553 19.271 17.895 27.683-1.688 2.447-6.276 9.024-12.695 17.436zm74.485-88.25c-.153.765-.917 1.529-2.294 2.447a53.553 53.553 0 0 1-5.2 2.753c-9.789 4.894-24.472 12.236-20.342 24.777 3.212 9.942 11.318 11.166 17.283 11.93 4.435.612 7.188 1.071 8.259 3.518-3.365.459-10.859 1.377-18.2 2.294-20.8 2.753-21.565 3.518-22.33 4.13-.918.765-8.871 7.953-16.824 16.518-7.189-8.412-14.989-22.789-17.283-27.072 4.13-3.67 20.5-17.741 26.307-20.953 7.494-4.283 44.354-19.883 50.472-21.107.137.23.189.501.147.765z" fill="#1a1a1a"/></g></svg></g><g transform="translate(679.0 782.0) rotate(0.0 76.5 76.5) translate(0.0 0.0) scale(1.0 1.0)"><svg width="153" height="153" viewBox="0 0 153 153"><clipPath id="c"><path d="M0 0h152.5v152.5H0z"/></clipPath><g clip-path="url(#c)"><path d="M76.25 152.5c42.112 0 76.25-34.138 76.25-76.25S118.362 0 76.25 0 0 34.138 0 76.25s34.138 76.25 76.25 76.25z" fill="#FFF"/></g></svg></g><g transform="translate(563.0 373.0) rotate(0.0 182.5 190.5) scale(3.3796296296296298 3.3716814159292037)"><svg width="108" height="113" viewBox="0 0 108 113"><path d="M.8.8h106.4v111.4H.8z" fill="#fff"/><path d="M108 113H0V0h108zM1.6 111.4h104.8V1.6H1.6z" fill="#1A1A1A"/></svg></g><g transform="translate(306.0 827.0) rotate(0.0 300.0 134.0) scale(1.5915119363395225 1.5857988165680474)"><svg width="377" height="169" viewBox="0 0 377 169"><clipPath id="d"><path d="M0 0h376.953v169H0z"/></clipPath><g clip-path="url(#d)"><path d="M232.5 154.5H7.5a6 6 0 0 0-6 6v1a6 6 0 0 0 6 6h225a6 6 0 0 0 6-6v-1a6 6 0 0 0-6-6z" fill="#fece2f"/><path d="M232.5 169H7.5a7.508 7.508 0 0 1-7.5-7.5v-1a7.509 7.509 0 0 1 7.5-7.5h225a7.509 7.509 0 0 1 7.5 7.5v1a7.509 7.509 0 0 1-7.5 7.5zm-225-13a4.506 4.506 0 0 0-4.5 4.5v1a4.507 4.507 0 0 0 4.5 4.5h225a4.508 4.508 0 0 0 3.181-1.319A4.508 4.508 0 0 0 237 161.5v-1a4.508 4.508 0 0 0-1.319-3.181A4.508 4.508 0 0 0 232.5 156z" fill="#1a1a1a"/><path d="M370.6 1.5H145.7a7.824 7.824 0 0 0-7.267 6.034l-32.554 153.73a4.722 4.722 0 0 0 .819 4.223 4.73 4.73 0 0 0 3.9 1.812H335.5a7.822 7.822 0 0 0 7.267-6.035L375.32 7.534a4.721 4.721 0 0 0-.819-4.222 4.731 4.731 0 0 0-3.901-1.813z" fill="#fece2f"/><path d="M335.5 168.798H110.593a6.249 6.249 0 0 1-4.98-2.261 6.623 6.623 0 0 1-1.207-5.583l32.555-153.73A9.28 9.28 0 0 1 145.7-.003h224.9a6.258 6.258 0 0 1 4.981 2.262 6.625 6.625 0 0 1 1.206 5.583l-32.554 153.731a9.274 9.274 0 0 1-8.733 7.224zM145.7 2.998a6.354 6.354 0 0 0-5.8 4.845l-32.559 153.731a3.597 3.597 0 0 0 .6 3.073 3.304 3.304 0 0 0 2.65 1.151H335.5a6.351 6.351 0 0 0 5.8-4.844l32.553-153.73a3.598 3.598 0 0 0-.6-3.075A3.323 3.323 0 0 0 370.6 3z" fill="#1a1a1a"/><path d="m212.57 85.822 2.452-8.154a5.235 5.235 0 0 1 5.111-4.168h46.231a3.148 3.148 0 0 1 3.051 2.424c.109.456.114.93.015 1.389l-2.452 8.154a5.233 5.233 0 0 1-5.111 4.168h-46.231a3.153 3.153 0 0 1-3.052-2.424 3.146 3.146 0 0 1-.014-1.389z" fill="#fece2f"/><path d="M261.867 91.135h-46.231a4.605 4.605 0 0 1-3.593-1.715 4.655 4.655 0 0 1-.941-3.908c.009-.041.019-.082.031-.122l2.436-8.1a6.767 6.767 0 0 1 6.564-5.29h46.231a4.608 4.608 0 0 1 3.593 1.715 4.655 4.655 0 0 1 .941 3.908 1.701 1.701 0 0 1-.031.123l-2.436 8.1a6.762 6.762 0 0 1-6.564 5.289zm-47.84-4.951a1.657 1.657 0 0 0 .347 1.346 1.615 1.615 0 0 0 1.262.605h46.231a3.752 3.752 0 0 0 3.643-2.977c.009-.042.019-.082.031-.123l2.432-8.084a1.657 1.657 0 0 0-.347-1.346 1.624 1.624 0 0 0-1.262-.605h-46.231a3.75 3.75 0 0 0-3.643 2.978 1.675 1.675 0 0 1-.031.122z" fill="#1a1a1a"/></g></svg></g><g transform="translate(1006.0 373.0) rotate(0.0 182.5 190.5) scale(3.3796296296296298 3.3716814159292037)"><svg width="108" height="113" viewBox="0 0 108 113"><path d="M.8.8h106.4v111.4H.8z" fill="#fff"/><path d="M108 113H0V0h108zM1.6 111.4h104.8V1.6H1.6z" fill="#1A1A1A"/></svg></g><g transform="translate(559.0 447.0) rotate(0.0 196.0 168.0) scale(2.0962566844919786 2.1)"><svg width="187" height="160" viewBox="0 0 187 160"><clipPath id="e"><path d="M0 0h186.185v159.269H0z"/></clipPath><g clip-path="url(#e)"><path d="M119.013 38.121c-10-2.843-25.923-6.57-61.662 10.58-7.906 3.793-34.258 24.977-54.933 75.623-3.1 7.593.829 30.04 10.549 30.659 6.961.443 10.172-3.612 14.755-7.557 11.971-.988 45.505.671 45.505.671s7.478 8.65 17.03 9.645c6.752.7 15.34-5.749 19.532-7.1 10.124-3.257 38.764-4.093 46.889-3.218s27.548.25 27.836-15.875-19.586-80.372-65.501-93.427z" fill="#fece2f"/><path d="M71.39 68.42c4.413 7.757 7.788 14.02 19.663 12.826 11.875-1.192 34.212-14.544 33.793-41.181 0 0 9.834 3.61 13.416 7.278-1.048 4.671-3.635 17.73.192 28.066s8.5 19.441 8.235 28.579c-.265 9.138.268 12.507-3.838 13.939s-26.063 11.375-31.493 14.5-21.465.5-24.878 1.146-10.892 1.388-12.847 13.59c-4.455.264-45.2.181-45.2.181S77.357 83.179 71.39 68.42zM44.3 58.789c6.627 10.137 6.528 16.137 6.577 20.512 0 0 11.61-7.153 7.36-16.17s-6.623-10.455-6.623-10.455z" fill="#fff"/><path d="M64.73 101.209a7.5 7.5 0 1 0 0-15 7.5 7.5 0 0 0 0 15z" fill="#fece2f"/><path d="M89.329 35.678c8.385 0 15.182-6.087 15.182-13.596S97.714 8.486 89.329 8.486s-15.182 6.088-15.182 13.596c0 7.51 6.797 13.596 15.182 13.596z" fill="#1a1a1a"/><path d="M101.662 51.522c8.385 0 15.182-6.087 15.182-13.596s-6.797-13.596-15.182-13.596c-8.385 0-15.182 6.087-15.182 13.596s6.797 13.596 15.182 13.596z" fill="#1a1a1a"/><path d="M103.287 65.472c7.285 0 13.191-5.289 13.191-11.812 0-6.524-5.906-11.812-13.191-11.812-7.285 0-13.191 5.288-13.191 11.812 0 6.523 5.906 11.812 13.191 11.812z" fill="#1a1a1a"/><path d="M99.51 137.555a7.5 7.5 0 1 0 0-15 7.5 7.5 0 0 0 0 15zm-23.332 9.871c.001.083-.002.167-.01.25h-14.98a2.07 2.07 0 0 1-.01-.25 7.502 7.502 0 0 1 7.5-7.5 7.502 7.502 0 0 1 7.5 7.5zm-37.304-8.916a7.502 7.502 0 0 0-7.5 7.5h15a7.503 7.503 0 0 0-7.5-7.5zm85.978-11.448a7.5 7.5 0 1 0 0-15 7.5 7.5 0 0 0 0 15z" fill="#fece2f"/><path d="M101.662 79.142c6.465 0 11.706-4.694 11.706-10.483s-5.241-10.483-11.706-10.483-11.706 4.693-11.706 10.483 5.241 10.483 11.706 10.483z" fill="#1a1a1a"/><path d="M93.01 134.781c5.168 3.645 13.168 3.645 19.168 2.645 5.214-.869 64-18 47-23-19 0-48 22-66.167 20.355zm15.073-73.388a1.497 1.497 0 0 1-1.189-.584 6.16 6.16 0 0 0-4.716-1.883 8.847 8.847 0 0 0-4.963 1.174 1.51 1.51 0 0 1-2.095-.283 1.49 1.49 0 0 1 .25-2.082c.233-.185 2.413-1.81 6.808-1.81a9.116 9.116 0 0 1 7.091 3.05 1.5 1.5 0 0 1-1.186 2.416zm2.595-15.967a1.5 1.5 0 0 1-1.061-.44 9.6 9.6 0 0 0-5.939-2.56 12.266 12.266 0 0 0-6.168 1.748 1.502 1.502 0 0 1-1.664-2.5 15.323 15.323 0 0 1 7.832-2.252 12.524 12.524 0 0 1 8.06 3.44 1.505 1.505 0 0 1 .324 1.634 1.499 1.499 0 0 1-1.384.926z" fill="#fff"/><path d="M100.404 88.618c5.254 0 9.513-3.814 9.513-8.519s-4.259-8.519-9.513-8.519-9.513 3.814-9.513 8.52 4.259 8.518 9.513 8.518z" fill="#1a1a1a"/><path d="M3.678 142.926s-1-17 21-36 32.938-22.3 31.969-32.65c-5.938 4.3-42.164 26.436-50.567 40.543-8.403 14.107-2.402 28.107-2.402 28.107z" fill="#fff"/><path d="M51.98 8.367c-11.132 8.62-14.635 23.014-3.3 33.559l43.165-22.96C81.062-4.573 63.114-.253 51.98 8.367z" fill="#1a1a1a"/><path d="M48.677 43.427a1.493 1.493 0 0 1-1.021-.4c-5.137-4.78-7.7-10.6-7.421-16.841.317-6.993 4.263-13.92 10.828-19C58.822 1.174 67.523-1.226 74.942.6c7.58 1.865 13.727 7.835 18.266 17.746a1.5 1.5 0 1 1-2.727 1.249c-4.14-9.04-9.608-14.45-16.256-16.085-6.523-1.6-14.294.6-21.325 6.043-5.867 4.543-9.391 10.654-9.668 16.766-.241 5.33 1.995 10.347 6.468 14.509a1.5 1.5 0 0 1-1.023 2.6zM13.872 156.541a10.262 10.262 0 0 1-5.254-1.424C-.2 149.947-1.95 132.447 2 119.974c2.723-8.6 12.48-30.232 29.917-50.5 14.006-16.28 36.827-35.687 66.013-35.687 21.927 0 40.629 8.16 55.585 24.251 12.1 13.021 19.241 28.582 23.558 39.154l.687 1.677c5.383 13.122 12.756 31.094 5.2 41.995-4.333 6.25-13.107 9.214-26.075 8.815-22.371-.694-30.009.113-38.854 1.044l-2.927.305a22.06 22.06 0 0 0-7.14 1.948 26.681 26.681 0 0 1-4.941 1.668 5.603 5.603 0 0 1-5.865-2.145 7.72 7.72 0 0 0-.557-.57c-.391.271-.739.6-1.03.976a1.5 1.5 0 0 1-2.278-1.952c.814-.951 1.927-2.046 3.3-2.068a3.635 3.635 0 0 1 2.777 1.59c.838.917 1.444 1.58 3.009 1.239 1.519-.355 3-.857 4.422-1.5a24.872 24.872 0 0 1 8-2.167c1-.1 1.964-.2 2.916-.3 8.954-.944 16.684-1.758 39.261-1.06 11.893.367 19.8-2.164 23.516-7.526 6.629-9.561-.386-26.661-5.508-39.147l-.688-1.68c-6.219-15.233-25.133-61.549-76.37-61.549-50.708 0-85.965 61.641-93.07 84.1-3.92 12.376-1.358 27.757 5.277 31.643 4.555 2.671 10.787.012 18.017-7.691 18.3-19.5 29.585-42.871 36.326-56.838 1.654-3.425 3.082-6.383 4.258-8.54 3.023-5.542 2.286-11.1-2.252-16.985a1.499 1.499 0 0 1 1.936-2.225 1.5 1.5 0 0 1 .44.394c5.268 6.833 6.112 13.647 2.51 20.252-1.141 2.092-2.554 5.02-4.19 8.408-6.816 14.122-18.223 37.756-36.84 57.588-6.924 7.374-12.376 9.649-16.468 9.65z" fill="#1a1a1a"/><path d="M53.928 55.376s-8.583-8.533-5-17.45c6.94 9.583 9.31 12.747 9.31 12.747z" fill="#fece2f"/><path d="M91.04 159.269a13.532 13.532 0 0 1-6.465-1.561c-.251-.115-7.872-3.7-10.56-5.492a4.386 4.386 0 0 1-1.821-3.159c-.487-3.186 1.189-8.232 3.816-11.489 5.223-6.472 11.25-5.817 17.634-5.122 4.344.472 8.836.962 13.742-.615a66.194 66.194 0 0 0 7.921-3.674 175.551 175.551 0 0 1 44.552-16.447 1.496 1.496 0 0 1 1.13.204 1.494 1.494 0 0 1 .665 1.528 1.494 1.494 0 0 1-1.157 1.2c-20.893 4.548-34.7 11.554-43.832 16.19a67.266 67.266 0 0 1-8.361 3.856c-5.512 1.771-10.544 1.224-14.984.741-6.026-.657-10.782-1.174-14.975 4.023-2.09 2.589-3.55 6.781-3.185 9.151.025.425.211.824.52 1.117 2.5 1.668 10.166 5.273 10.243 5.309 3.624 1.946 7.566 1.165 9.6.529 2.837-.887 4.486-2.231 4.7-2.641a1.5 1.5 0 0 1 2.682 1.343c-.865 1.73-3.843 3.325-6.411 4.139a18.354 18.354 0 0 1-5.453.87z" fill="#1a1a1a"/><path d="M95.178 63.565c11.7-9.027.125-28.631 2.75-31.316s4.292-6.045.667-10.49-8.292-.694-8.292-.694c-3-3.625-13.75-18.625-30-5.25S50.178 40.94 53.928 45.19s2.625 3.875 10.875 13.5 21.625 11.625 30.375 4.875z" fill="#fece2f"/><path d="M83.225 69.047a26.065 26.065 0 0 1-19.56-9.38c-4.8-5.6-6.5-7.9-7.73-9.578a47.852 47.852 0 0 0-3.135-3.907 18.589 18.589 0 0 1-4.63-13.55c.5-6.232 4.258-12.279 11.18-17.975 5.232-4.308 10.482-6.228 15.587-5.709 7.774.79 13.15 7.014 15.681 10.126 2.357-1.26 6.145-1.933 9.14 1.737 3.437 4.215 3.199 8.394-.7 12.423-.238.751.471 3.637.991 5.756 1.867 7.6 4.689 19.09-3.96 25.762a20.888 20.888 0 0 1-12.864 4.295zm-9.91-57.18c-3.887 0-7.936 1.712-12.059 5.106-6.269 5.16-9.665 10.508-10.095 15.9A15.553 15.553 0 0 0 55.053 44.2a51.013 51.013 0 0 1 3.3 4.113c1.274 1.731 2.86 3.884 7.59 9.4 7.671 8.948 20.11 11 28.321 4.663 7.1-5.478 4.661-15.416 2.88-22.672-1.078-4.384-1.728-7.03-.287-8.5 2.906-2.973 3.074-5.433.578-8.493-2.61-3.2-5.832-.762-6.19-.474a1.5 1.5 0 0 1-2.096-.213l-.5-.614c-2.122-2.625-7.09-8.77-14.013-9.475-.44-.045-.88-.068-1.322-.069z" fill="#1a1a1a"/><path d="M83.657 33.331c2.844-2.41 3.951-5.778 2.473-7.523-1.479-1.745-4.983-1.205-7.827 1.205-2.844 2.41-3.951 5.778-2.472 7.523s4.982 1.205 7.826-1.205z" fill="#fff"/><path d="M78.39 37.058a4.721 4.721 0 0 1-3.7-1.553 5.062 5.062 0 0 1-.666-4.95 10.767 10.767 0 0 1 3.313-4.687c3.529-2.99 7.895-3.442 9.94-1.03a5.061 5.061 0 0 1 .665 4.95 11.488 11.488 0 0 1-8.48 7.186 7.073 7.073 0 0 1-1.072.084zm5.2-10.777a7.2 7.2 0 0 0-4.317 1.876 7.85 7.85 0 0 0-2.4 3.335 2.201 2.201 0 0 0 .1 2.074 2.207 2.207 0 0 0 2.027.443 8.522 8.522 0 0 0 6.086-5.158 2.2 2.2 0 0 0-.1-2.073 1.782 1.782 0 0 0-1.397-.497z" fill="#1a1a1a"/><path d="M80.868 30.596c1.41-1.195 1.71-3.16.67-4.388s-3.028-1.254-4.438-.058c-1.411 1.195-1.711 3.16-.67 4.388 1.04 1.227 3.027 1.254 4.437.058z" fill="#1a1a1a"/><path d="M70.571 37.739c-1.478-1.744-4.982-1.2-7.826 1.205-2.208 1.87-3.411 3.414-3.128 5.232l5.6-1.618 4.2 1.373c1.833-2.202 2.376-4.75 1.154-6.192z" fill="#fff"/><path d="M69.423 45.432a1.5 1.5 0 0 1-.813-2.762 2.747 2.747 0 0 0 1.245-1.957 2.65 2.65 0 0 0-.428-2c-.805-.951-3.42-.563-5.713 1.38a7.475 7.475 0 0 0-2.492 3.647 1.5 1.5 0 0 1-2.91-.728 10.5 10.5 0 0 1 3.463-5.211c3.529-2.991 7.9-3.444 9.94-1.031a5.654 5.654 0 0 1 1.107 4.386 5.734 5.734 0 0 1-2.59 4.038 1.5 1.5 0 0 1-.81.238z" fill="#1a1a1a"/><path d="M66.066 41.592c1.217-1.031 1.452-2.754.525-3.848s-2.665-1.144-3.881-.113-1.452 2.754-.525 3.847c.927 1.094 2.664 1.145 3.881.114zm6.583-19.482a9.13 9.13 0 0 1 7.438-3c2 .312-.375 2.624-2.25 3.437s-7.437 3.875-5.188-.438zM58.216 32.693c3.23-2.585 6.917-1.959 4.25 1.208s-5.983 4.984-7.417 3.5c-1.166-1.208 1.084-3.042 3.167-4.708zm23.63 14.151a1.5 1.5 0 0 1-.672-2.843c2.531-1.265 3.066-2.112 3.159-2.5.02-.08.061-.25-.193-.593-.6-.81-3.021-.513-4.622-.314-1.984.246-3.7.458-4.734-.577a1.5 1.5 0 0 1 1.986-2.24c.796.026 1.593-.027 2.379-.16 2.565-.317 5.755-.713 7.4 1.5a3.613 3.613 0 0 1 .7 3.077c-.516 2.161-2.95 3.6-4.735 4.491a1.499 1.499 0 0 1-.668.16z" fill="#1a1a1a"/><path d="M138.053 104.926a7.5 7.5 0 1 0 0-15 7.5 7.5 0 0 0 0 15zm-15-20.699a7.5 7.5 0 1 0 0-15 7.5 7.5 0 0 0 0 15zm-10.875 22.375a7.5 7.5 0 1 0 0-15 7.5 7.5 0 0 0 0 15zM90.096 90.72a7.5 7.5 0 1 0 0-15 7.5 7.5 0 0 0 0 15zm-2.532 25.335a7.5 7.5 0 1 0 0-15 7.5 7.5 0 0 0 0 15zm-23.417 15.763a7.5 7.5 0 1 0 0-15 7.5 7.5 0 0 0 0 15zm72.488-66.345a7.5 7.5 0 1 0 0-15 7.5 7.5 0 0 0 0 15z" fill="#fece2f"/><path d="M84.428 51.176c5.493-3.809 9.75-.917 10.583-.333-4.583 1.833-10.411 7.946-13.333 10.667-1.986-.854-3.285-6.149 2.75-10.334z" fill="#fff"/><g fill="#1a1a1a"><path d="M81.677 63.01c-.204 0-.405-.041-.592-.122a4.78 4.78 0 0 1-2.531-4.057c-.153-1.52.03-5.428 5.019-8.887l.855 1.232-.855-1.232c5.788-4.013 10.529-1.569 12.3-.33a1.5 1.5 0 0 1-.3 2.621c-3.583 1.434-8.2 5.886-11.256 8.833-.6.578-1.143 1.1-1.611 1.538a1.5 1.5 0 0 1-1.03.404zm8.4-12.267a8.348 8.348 0 0 0-4.791 1.666c-3.678 2.55-3.844 5.13-3.744 6.122.027.292.095.58.2.853l.493-.476a66.407 66.407 0 0 1 9.42-7.977 6.697 6.697 0 0 0-1.581-.188zm-84.953 69.32-2.828-1c5.206-14.692 30.615-30.4 44.265-38.843 1.308-.808 2.492-1.54 3.519-2.186 4.287-2.7 6.755-5.71 7.336-8.954.59-3.294-.731-7.075-3.928-11.238-5.686-7.405-8.1-15.042-6.312-19.93l2.816 1.033c-1.4 3.812.963 10.673 5.876 17.07 3.732 4.86 5.246 9.434 4.5 13.594-.736 4.11-3.661 7.8-8.693 10.964-1.033.65-2.223 1.385-3.538 2.2-12.385 7.656-38.16 23.593-43.013 37.29zm142.757-4.39-2.907-.74a45.935 45.935 0 0 0 1.037-10.131c0-5.252-3.327-13.86-6-20.774a85.766 85.766 0 0 1-3.563-10.278c-1.634-7.416-1.64-17.091-.016-27.244l2.962.474c-1.565 9.79-1.571 19.068-.017 26.124a86.465 86.465 0 0 0 3.432 9.843c2.907 7.52 6.2 16.043 6.2 21.855a47.987 47.987 0 0 1-1.128 10.871z"/><path d="M88.239 82.893c-10.347 0-13.9-6.25-17.962-13.4l-.191-.336 2.607-1.483.192.337c4.23 7.441 7.292 12.82 18.018 11.738 11.512-1.157 32.847-13.98 32.444-39.665l3-.047c.434 27.633-22.676 41.444-35.144 42.7a29.253 29.253 0 0 1-2.964.156zm-38.861-3.574v-.322c-.043-4.162-.1-9.861-6.33-19.386l2.512-1.642c6.706 10.258 6.77 16.465 6.818 21v.319zm110.8 33.857s-14.669-16.826-16.043-22.455c0 0 5.626 18.58.778 26.533 7.243-2.786 9.265-3.911 15.265-4.078z"/><path d="M144.913 118.754a1.498 1.498 0 0 1-1.5-1.527c.005-.267.08-.527.219-.754 3.575-5.865.766-19.444-.786-24.823a7.102 7.102 0 0 1-.168-.573 1.503 1.503 0 0 1 1.06-1.809 1.5 1.5 0 0 1 1.833 1.018c.019.063.073.242.152.52 1.6 4.7 11.7 16.928 15.586 21.384a1.497 1.497 0 0 1-.293 2.231 1.5 1.5 0 0 1-.797.255c-4.943.137-6.9.9-12.134 2.953-.8.313-1.671.655-2.634 1.025a1.522 1.522 0 0 1-.538.1zm2.794-18.8c.72 4.7 1.08 10.258-.091 14.635 3.8-1.487 6.116-2.345 9.471-2.716-2.343-2.773-6.22-7.479-9.38-11.917zM95.679 29.24a1.5 1.5 0 0 1-1.467-1.819 3.87 3.87 0 0 0 .119-1.41 1.336 1.336 0 0 0-.284.059 1.5 1.5 0 0 1-1.114-2.785 3.474 3.474 0 0 1 3.362.38c1.01.855 1.3 2.333.849 4.393a1.5 1.5 0 0 1-1.465 1.182zm-12.92 125.936a1.501 1.501 0 0 1-1.494-1.4c-.023-.337-.5-8.289 5.75-11.365.177-.092.37-.147.57-.162a1.49 1.49 0 0 1 1.463.833 1.495 1.495 0 0 1-.233 1.667 1.504 1.504 0 0 1-.475.353c-4.43 2.181-4.086 8.409-4.082 8.472a1.5 1.5 0 0 1-1.4 1.594.457.457 0 0 1-.1.008z"/><path d="M89.218 157.8a1.503 1.503 0 0 1-1.352-.849c-2.47-5.113-1.192-9.694 3.417-12.254a1.5 1.5 0 0 1 1.457 2.622c-3.241 1.8-3.971 4.6-2.173 8.328a1.501 1.501 0 0 1-1.35 2.153zm-11.124-4.374a1.5 1.5 0 0 1-1.5-1.466c-.2-8.719 4.474-11.69 4.673-11.812a1.503 1.503 0 0 1 2.056.487 1.5 1.5 0 0 1-.471 2.06c-.17.112-3.416 2.347-3.26 9.2a1.497 1.497 0 0 1-1.464 1.534zm-5.332-7.5H27.845v3h44.917zm27.642-57.308c5.254 0 9.513-3.814 9.513-8.519s-4.259-8.519-9.513-8.519-9.513 3.814-9.513 8.52 4.259 8.518 9.513 8.518z"/><path d="M106.178 90.427a12.208 12.208 0 0 1-6.357 9.062 3.005 3.005 0 0 1-4.492-2.288c-.335-3.223-1.585-5.38-1.151-8.769.6-4.667 3.217-4.173 6.308-3.777 3.091.396 6.29 1.105 5.692 5.772zM49.28 68.576a105.233 105.233 0 0 1-21.953 26.056c12.7-8.412 23.048-15.015 23.048-15.015s-.493-8.39-1.095-11.04z"/><path d="M27.328 96.133a1.5 1.5 0 0 1-.957-2.656c13.28-10.99 21.52-25.49 21.6-25.635a1.5 1.5 0 0 1 2.77.4c.622 2.74 1.109 10.938 1.13 11.286a1.5 1.5 0 0 1-.691 1.352c-.1.066-10.481 6.694-23.027 15a1.491 1.491 0 0 1-.825.253zm21.028-23.2A112.295 112.295 0 0 1 39.2 85.05c4.67-3.038 8.169-5.286 9.627-6.221a221.913 221.913 0 0 0-.471-5.898zM5.178 147.426c10 6 28-13 36-18 0 0-16.106 23.771-25.83 25.5-5.67 1-10.17-7.5-10.17-7.5z"/></g><path d="M59.768 43.372c4.31-2.313 8.535-1.07 11.622 7.3z" fill="#fece2f"/><path d="M71.39 52.178a1.5 1.5 0 0 1-1.408-.982c-1.459-3.96-3.2-6.347-5.172-7.095a5.105 5.105 0 0 0-4.333.594 1.501 1.501 0 0 1-1.42-2.644 8.019 8.019 0 0 1 6.816-.755C68.734 42.38 71 45.28 72.8 50.159a1.5 1.5 0 0 1-1.41 2.019z" fill="#1a1a1a"/><path d="M106.249 74.885c-.34 0-.67-.115-.935-.328a8.12 8.12 0 0 0-4.538-1.477 10.53 10.53 0 0 0-4.728 1.134 1.501 1.501 0 0 1-1.5-2.6 13.412 13.412 0 0 1 6.228-1.536c2.307.025 4.548.77 6.41 2.133a1.5 1.5 0 0 1-.937 2.672zm-2.963 11.837c-.351 0-.69-.123-.959-.348a4.38 4.38 0 0 0-4.244-.586 1.5 1.5 0 1 1-1.175-2.76 7.444 7.444 0 0 1 7.34 1.041 1.496 1.496 0 0 1 .451 1.665 1.5 1.5 0 0 1-1.413.989z" fill="#fff"/></g></svg></g><g transform="translate(590.0 394.0) rotate(0.0 15.5 15.5) scale(0.03875 0.03870162297128589)"><svg width="800" height="801" viewBox="0 0 800 801"><path d="M400 800.725c220.914 0 400-179.086 400-400s-179.086-400-400-400-400 179.086-400 400 179.086 400 400 400z" fill="#fece2f"/></svg></g><g transform="translate(630.0 394.0) rotate(0.0 15.5 15.5) scale(0.03875 0.03870162297128589)"><svg width="800" height="801" viewBox="0 0 800 801"><path d="M400 800.725c220.914 0 400-179.086 400-400s-179.086-400-400-400-400 179.086-400 400 179.086 400 400 400z" fill="#fece2f"/></svg></g><g transform="translate(671.0 394.0) rotate(0.0 15.5 15.5) scale(0.03875 0.03870162297128589)"><svg width="800" height="801" viewBox="0 0 800 801"><path d="M400 800.725c220.914 0 400-179.086 400-400s-179.086-400-400-400-400 179.086-400 400 179.086 400 400 400z" fill="#fece2f"/></svg></g><g transform="translate(1030.0 394.0) rotate(0.0 15.5 15.5) scale(0.03875 0.03870162297128589)"><svg width="800" height="801" viewBox="0 0 800 801"><path d="M400 800.725c220.914 0 400-179.086 400-400s-179.086-400-400-400-400 179.086-400 400 179.086 400 400 400z" fill="#fece2f"/></svg></g><g transform="translate(1071.0 394.0) rotate(0.0 15.5 15.5) scale(0.03875 0.03870162297128589)"><svg width="800" height="801" viewBox="0 0 800 801"><path d="M400 800.725c220.914 0 400-179.086 400-400s-179.086-400-400-400-400 179.086-400 400 179.086 400 400 400z" fill="#fece2f"/></svg></g><g transform="translate(1112.0 394.0) rotate(0.0 15.5 15.5) scale(0.03875 0.03870162297128589)"><svg width="800" height="801" viewBox="0 0 800 801"><path d="M400 800.725c220.914 0 400-179.086 400-400s-179.086-400-400-400-400 179.086-400 400 179.086 400 400 400z" fill="#fece2f"/></svg></g><g transform="translate(725.0 431.0) rotate(0.0 429.5 606.0) translate(0.0 0.0) scale(2.2967914438502675 2.2954545454545454)"><svg width="373.565" height="138.535" viewBox="0 0 373.565 138.535"><clipPath id="f"><path d="M0 0h373.93v527.77H0z"/></clipPath><g clip-path="url(#f)"><path d="M213.84 62.561s11.96-7.56 13.16-17.88-6.93-10.11-6.13-18.22c.73-7.5-2.66-15.25-11.73-18.28-13.14-4.4-17.36.82-25.83-2.18s-21.8-10.83-26 2.67c-2.71 8.72 1.37 19.83 13.13 23.95 9.4 3.3 21.53 22.69 27.53 25a139.554 139.554 0 0 0 15.87 4.94z" fill="#1a1a1a"/><path d="M213.84 63.56a.894.894 0 0 1-.23 0 140.6 140.6 0 0 1-16-5c-2.85-1.11-6.66-5.4-11.06-10.37-5.35-6-11.41-12.87-16.44-14.63-12.64-4.43-16.52-16.29-13.76-25.2 1.14-3.67 3-6.16 5.67-7.41 5.18-2.46 11.92.25 17.87 2.65 1.33.53 2.58 1 3.74 1.45 3.6 1.28 6.39 1 9.61.63a33.55 33.55 0 0 1 16.23 1.55c10.22 3.4 13.11 12.21 12.41 19.31-.33 3.39 1.06 5.12 2.66 7.12 2 2.44 4.18 5.2 3.47 11.13-1.28 10.69-13.15 18.29-13.65 18.61a.998.998 0 0 1-.52.16zM166.7 2a8.71 8.71 0 0 0-3.8.78c-2.13 1-3.64 3-4.62 6.19-2.48 8 1.06 18.7 12.51 22.72 5.53 1.94 11.77 9 17.28 15.2 4.05 4.57 7.88 8.9 10.29 9.83a141.666 141.666 0 0 0 15.29 4.78c1.94-1.33 11.35-8.17 12.35-16.94.61-5.09-1.16-7.3-3-9.64-1.72-2.15-3.5-4.37-3.09-8.56.63-6.34-1.95-14.19-11-17.23a31.92 31.92 0 0 0-15.38-1.45c-3.33.36-6.47.69-10.5-.74-1.2-.42-2.47-.94-3.82-1.48C175.06 3.81 170.55 2 166.7 2z" fill="#1a1a1a"/><path d="M238.9 108.11c-5.28-6.16-9.67-9-18.36-12.14l-7.85-44.79c9.08.59 9.46-16.12-3-13.12-2.76.61-2.5 7-2.5 7-.15 6.07-4.81 5.12-6.26-3.61-2.27-13.69-21.64-4.07-29.7-9.11-1.82 18.4-1 30.73 1.74 37.77 3.86 9.93 14.95 11.64 23.18 6.72-.14 5.61-.12 16.78-.09 23-4.73 4.83-12.08 13.53-12.08 13.53 15.81 3.72 34.73.64 54.92-5.25z" fill="#fece2f"/><path d="M174.81 33.4s-4.08 25.53 2.33 37.19c5.6 10.17 16.56 7.11 16.56 7.11s-10.49 7.46-19.7-5.48c-6.42-11.19-2.45-40.34-2.45-40.34zm14.48 15.23c2.634 0 4.77-1.164 4.77-2.6 0-1.436-2.136-2.6-4.77-2.6s-4.77 1.164-4.77 2.6c0 1.436 2.136 2.6 4.77 2.6z" fill="#fff"/><path d="M189.29 49.63c-3.29 0-5.77-1.55-5.77-3.6s2.48-3.59 5.77-3.59 5.77 1.56 5.77 3.56-2.48 3.63-5.77 3.63zm0-5.19c-2.26 0-3.77 1-3.77 1.59s1.51 1.6 3.77 1.6 3.77-1 3.77-1.6-1.5-1.59-3.77-1.59z" fill="#1a1a1a"/><path d="M186.69 48.24a1.72 1.72 0 1 0 0-3.44 1.72 1.72 0 0 0 0 3.44z" fill="#1a1a1a"/><path d="M174.78 48.63c2.474 0 4.48-1.164 4.48-2.6 0-1.436-2.006-2.6-4.48-2.6s-4.48 1.164-4.48 2.6c0 1.436 2.006 2.6 4.48 2.6z" fill="#fff"/><path d="M174.78 49.63c-3.07 0-5.48-1.58-5.48-3.6s2.41-3.59 5.48-3.59 5.48 1.56 5.48 3.56-2.41 3.63-5.48 3.63zm0-5.19c-2.12 0-3.48.94-3.48 1.59s1.36 1.6 3.48 1.6 3.48-1 3.48-1.6-1.36-1.59-3.48-1.59z" fill="#1a1a1a"/><path d="M172.59 48.24a1.72 1.72 0 1 0 0-3.44 1.72 1.72 0 0 0 0 3.44zm8.8 12.49h-.13c-.53-.06-3.18-.48-3.94-2.06a2.207 2.207 0 0 1 .2-2.2 31.579 31.579 0 0 0 2.25-5.32 1.003 1.003 0 1 1 1.91.61 32.893 32.893 0 0 1-2.45 5.75c-.07.11-.13.24-.1.3a4.272 4.272 0 0 0 2.38.94 1 1 0 0 1-.12 2zm1.88 8.27a7.3 7.3 0 0 1-4.27-1.38 1 1 0 0 1 .434-1.799c.263-.041.531.023.746.18 3.29 2.27 6.66-.06 6.8-.16a1.003 1.003 0 0 1 1.429.2 1.003 1.003 0 0 1 .024 1.137 1.004 1.004 0 0 1-.283.283 9 9 0 0 1-4.88 1.54zm12.64 8a27.653 27.653 0 0 0 7.93-6.53c-1.52 5.13-4.78 10.72-7.81 12a52.54 52.54 0 0 0-.12-5.47z" fill="#1a1a1a"/><path d="M196 83.48a1 1 0 0 1-.57-.19 1 1 0 0 1-.43-.86c.11-2.25-.11-5.33-.11-5.36a.996.996 0 0 1 .54-1 27.275 27.275 0 0 0 7.6-6.27 1 1 0 0 1 1.74.91c-1.53 5.17-4.9 11.17-8.38 12.65a1.097 1.097 0 0 1-.39.12zm.92-5.91c0 .68.1 1.83.11 3a19.839 19.839 0 0 0 4.14-6 30.747 30.747 0 0 1-4.17 3z" fill="#1a1a1a"/><path d="M198.85 116a65.59 65.59 0 0 1-15.11-1.63.995.995 0 0 1-.72-.65.994.994 0 0 1-.046-.524.994.994 0 0 1 .226-.476c.08-.09 7.14-8.44 11.84-13.3 0-5.67 0-15.1.06-20.91a18.32 18.32 0 0 1-13.78 1.09 15.002 15.002 0 0 1-9.32-9.12c-2.95-7.6-3.56-20.46-1.81-38.23a1 1 0 0 1 .55-.8.999.999 0 0 1 1 .05c2.84 1.78 7.58 1.54 12.16 1.32 7.72-.38 16.45-.81 18 8.48.79 4.8 2.53 6.74 3.27 6.65.39 0 .95-1 1-2.9 0-.68-.19-7.2 3.28-8 5.41-1.3 8.1 1 9.23 2.41a8.528 8.528 0 0 1 .61 9 6.726 6.726 0 0 1-5.42 3.69l7.54 43.06c8.55 3.14 13 6.16 18.24 12.24a1.003 1.003 0 0 1 .2.93 1 1 0 0 1-.68.68c-15.93 4.64-29.11 6.94-40.32 6.94zm-13-3.22c13.18 2.66 29.57 1 51.3-5.18-4.68-5.17-8.87-7.78-16.91-10.67a.998.998 0 0 1-.65-.77l-7.84-44.79a.996.996 0 0 1 .24-.84 1.001 1.001 0 0 1 .81-.33 4.8 4.8 0 0 0 4.78-2.65 6.584 6.584 0 0 0-.43-6.82c-1.44-1.85-4-2.45-7.2-1.68-1.33.3-1.82 3.76-1.73 6-.11 4.38-2.22 4.87-2.86 4.91-2.39.17-4.52-3.1-5.39-8.32-1.25-7.53-8.38-7.18-15.92-6.8-4.26.21-8.65.42-11.94-.92-1.54 16.7-.93 28.76 1.83 35.86a13.099 13.099 0 0 0 8.07 8A16.57 16.57 0 0 0 195.62 76a1.001 1.001 0 0 1 1.5.89c-.14 5.58-.12 16.8-.09 23a.997.997 0 0 1-.29.7c-3.55 3.61-8.74 9.58-10.93 12.17z" fill="#1a1a1a"/><path d="M257.15 371.051h-15.2v98.75h15.2z" fill="#fece2f"/><path d="M257.16 470.801H242a1.002 1.002 0 0 1-1-1v-98.75a.997.997 0 0 1 1-1h15.21a.997.997 0 0 1 1 1v98.75c0 .135-.027.27-.081.394a.988.988 0 0 1-.571.545 1 1 0 0 1-.398.061zm-14.21-2h13.21v-96.75H243z" fill="#1a1a1a"/><path d="M258.36 464.91h-17.65l-94.62 35.49c-15.63 4 43.31 16.51 102.6 17.18 60.93.7 122.23-10.6 103.37-17.18z" fill="#fece2f"/><path d="M237.83 465.891s-56.89 26.11-54.83 33.34 8.16 13.29 23.31 16.09c-28.68-1.87-63.88-9.56-62.95-14 6.8-2.32 94.47-35.43 94.47-35.43z" fill="#fff"/><path d="M254 518.609h-5.34a511.159 511.159 0 0 1-72.15-6.079c-12.47-2-33.47-6.001-34-10.281-.22-1.85 2.32-2.54 3.24-2.77l94.61-35.48c.112-.04.231-.061.35-.06h17.65c.119-.001.238.02.35.06l93.7 35.5c1.1.38 4.51 1.57 4.09 4-.89 5.07-22.26 8.841-34.93 10.641a500.982 500.982 0 0 1-67.57 4.469zm-109.41-16.54c2.34 3.93 49.56 13.931 104.11 14.511 56.46.65 105-8.521 105.83-13.471 0-.2-.4-.92-2.8-1.76l-93.55-35.44H240.9l-94.46 35.43h-.1a4.658 4.658 0 0 0-1.75.73zm97.08-124.308s10.55 1.75 15.07 17.83c.3-8 .9-18.53.9-18.53z" fill="#1a1a1a"/><path d="m256.13 465.421 69.24 46.86 22.39-5.01-88.37-42.31zm-1.66-.11 59.71 48.14-16.78 1.98-45.73-50.12z" fill="#1a1a1a"/><path d="M122.1 333.59s63.77 56.34 174.59 40.25c96.66-14 95.23-145.47 30.34-182.65-82.65-47.37-294.09 73.68-204.93 142.4z" fill="#fece2f"/><path d="M371.84 264.221s7.46 43.36-17.49 76.47-66.44 34.31-81.35 35.44c27.4-4 34.49-17.26 40.32-25.18s11.89-8.4 17.49-6.3 8.39-6.53 13.29-25.88 11.42-18.65 16.78-18.88 12.36-5.83 10.96-35.67z" fill="#1a1a1a"/><path d="M257.67 377.7c-38.76 0-69.47-8.62-90.21-17-29-11.77-45.24-25.65-46-26.32-24.9-19.2-28.6-44.78-10.43-72s56.63-53.83 100.46-69.59c47-16.89 89.28-17.77 116-2.44C344.47 200 358.2 217 366.2 238a119.68 119.68 0 0 1 5.73 64c-3.53 18.55-11.62 34.88-23.41 47.24-13.28 13.91-30.66 22.51-51.68 25.56a272.121 272.121 0 0 1-39.17 2.9zm22.47-196.29c-20.29 0-43.47 4.42-68 13.23-43.45 15.62-81.57 42-99.47 68.82C100.31 282 92 309.12 122.71 332.8h.05c.16.14 16.21 14.15 45.54 26 27 10.95 71.26 22.26 128.25 14 39.13-5.69 65.89-31.64 73.42-71.21 8.42-44.25-9.85-90.34-43.44-109.58-12.39-7.01-28.23-10.6-46.39-10.6z" fill="#1a1a1a"/><path d="M274.73 375.891s-35.22 1.29-71.94-19.35c-29.73-16.7-66.46-13.28-48.61-3.15 25.88 14.69 80.45 28.1 120.55 22.5z" fill="#1a1a1a"/><path d="m51.61 424.74-6.3 60.15 17.9 2.28 13.19-54.05z" fill="#fece2f"/><path d="M63.21 488.169h-.12l-17.9-2.28a1.002 1.002 0 0 1-.87-1.09l6.3-60.16a1.004 1.004 0 0 1 .87-.883.994.994 0 0 1 .44.043l24.79 8.38a1.004 1.004 0 0 1 .65 1.18l-13.19 54.05a.996.996 0 0 1-.97.76zm-16.8-4.17 16 2 12.76-52.29-22.74-7.68z" fill="#1a1a1a"/><path d="M278.81 287.409s-4.19 14-12.59 22.74-3.49 10.14 3.85 5.94 14.69-13.29 17.84-24.48-5.91-11.54-9.1-4.2zm-25 34.102c1.84-1.27 6.64.529 3.32 3.849s-6.47 4.001-10.67 4.891-4.37-1.57-1.92-3 6.99-4.16 9.27-5.74z" fill="#fff"/><path d="M227.64 143.68c3.33 38.7-7.49 71.2-17.37 90.34-15.69 30.42-91.84 32.52-105 32.08-13.16-.44-36.26 9.77-39.76 13s-7.26 1.53-3.84-4.67c7.46-13.52 26.11-19.11 39.63-21 15.47-2.13 58-9.83 61.9-25.65s9.44-36.13 11.31-79.5" fill="#fece2f"/><path d="M62.13 281.799a2.749 2.749 0 0 1-1.75-.58c-.76-.59-2.24-2.48.38-7.23 8.58-15.55 31.09-20.21 40.37-21.49 9.49-1.31 57-8.66 61.07-24.9l.5-2c3.8-15.13 9-35.84 10.78-77.32a.998.998 0 0 1 1.04-.96 1.002 1.002 0 0 1 .96 1.04c-1.79 41.68-7 62.52-10.84 77.73l-.5 2c-4.26 17-49.09 24.51-62.73 26.39-9 1.24-30.75 5.72-38.9 20.48-1.53 2.76-1.38 4.32-.91 4.69s1.7.16 3.2-1.24c3.6-3.37 26.83-13.77 40.48-13.3 18.23.6 89.36-3 104.1-31.54a169.176 169.176 0 0 0 17.26-89.81 1 1 0 0 1 1.99-.17 171.215 171.215 0 0 1-17.47 90.89c-6.79 13.17-25 22.64-54.16 28.14a271.414 271.414 0 0 1-51.79 4.48c-12.92-.43-35.69 9.64-39 12.77a6.287 6.287 0 0 1-4.08 1.93z" fill="#1a1a1a"/><path d="M190.1 185.18s-19.35-.24-26.35-2.1c4-13.52 11.31-48.35 11.31-48.35" fill="#fff"/><path d="M190.1 186.181c-.8 0-19.56-.26-26.59-2.13a.997.997 0 0 1-.62-.48 1.002 1.002 0 0 1-.09-.77c3.91-13.33 11.22-47.93 11.29-48.28a1.025 1.025 0 0 1 1.21-.79 1.02 1.02 0 0 1 .79 1.21c-.07.34-7 33.36-11 47.41 7.48 1.6 24.92 1.83 25.1 1.83a.997.997 0 0 1 1 1 1 1 0 0 1-1 1zm48.58 81.228s-127-9.73-157.46 1.58c-21.67 8.06-24.48 25.53-24.48 25.53l-19.82 139.19 38.47 7.46L102 321.459l124.8 1.76z" fill="#1a1a1a"/><path d="m143.03 430.27 8.25 64.29-17.62 5.13-18.75-68.39z" fill="#fece2f"/><path d="M133.66 500.701a1.051 1.051 0 0 1-.49-.13 1.003 1.003 0 0 1-.47-.61l-18.76-68.39a1.002 1.002 0 0 1 .498-1.154c.133-.071.281-.11.432-.116l28.12-1a1.001 1.001 0 0 1 1 .87l8.25 64.3a.998.998 0 0 1-.71 1.08l-17.62 5.14a1.305 1.305 0 0 1-.25.01zm-17.45-68.44 18.15 66.19 15.82-4.61-8-62.54z" fill="#1a1a1a"/><path d="m49.61 346.4-12.24 86.38 25.88 4.9s0-2.1-7-16.44-6.3-16.44-3.5-23.08 2.1-9.79-.7-16.79-2.44-34.97-2.44-34.97z" fill="#fece2f"/><path d="M75.39 442.17h-.19l-38.47-7.47a1 1 0 0 1-.8-1.13l19.82-139.19c.12-.75 3.16-18.16 25.12-26.32 30.29-11.26 152.69-2.05 157.89-1.65a1.006 1.006 0 0 1 .9 1.21l-11.87 55.81a.997.997 0 0 1-1 .79l-124-1.75-26.42 118.92a1.003 1.003 0 0 1-.98.78zm-37.34-9.26L74.63 440 101 321.24c.051-.225.178-.426.36-.569.183-.142.409-.216.64-.211l124 1.75 11.45-53.89c-12.74-.93-127.54-8.93-155.89 1.61-20.83 7.75-23.82 24.59-23.84 24.75z" fill="#1a1a1a"/><path d="M249.66 331.57s-83.12-8.37-113.9 7C143.67 419 146.17 444 146.17 444l-42.57-3.25s-16.72-73-23.31-108.65-6.3-52 28-56.65c34.3-4.65 169.71-.57 169.71-.57s4.62 58.67-28.34 56.69z" fill="#1a1a1a"/><path d="M146.17 445h-.07l-42.57-3.25a1 1 0 0 1-.9-.78c-.17-.73-16.81-73.48-23.33-108.69-4.25-23-5.21-36.34 1.41-45.48 4.74-6.54 13.45-10.46 27.42-12.35 34-4.57 168.55-.57 169.91-.53a1.003 1.003 0 0 1 1 .92c.11 1.48 2.68 36.4-11.94 51.29a21.622 21.622 0 0 1-17.46 6.48h-.05c-.82-.08-82.09-8.05-112.74 6.62 7.77 78.95 10.32 104.43 10.35 104.68a1 1 0 0 1-.28.8.998.998 0 0 1-.75.29zm-41.76-5.19 40.65 3.1c-.58-5.83-3.39-34-10.3-104.18a.996.996 0 0 1 .55-1c30.62-15.32 110.74-7.5 114.43-7.13a19.667 19.667 0 0 0 15.9-5.88c12.73-13 11.73-43.24 11.43-48.84-11.94-.34-136.34-3.81-168.67.55-13.39 1.8-21.67 5.46-26.07 11.53-6.16 8.51-5.12 22-1.06 43.95 6.16 33.26 21.39 100.18 23.14 107.86z" fill="#1a1a1a"/><path d="M174.52 140.189a50.088 50.088 0 0 1 11.31-29.25c.182.357.446.665.77.9 4 2.86 22.65 2.38 33.15-2.73 6.1-3 7.52-6.29 8.49-9.74 10.55 5.44 23.87 19.4 28.77 32.65 23.73 64.16 14.19 172.52 14.19 172.52-14.5-26.37-69-39.11-87.45-40.87a175.287 175.287 0 0 1-4.4-60.2c2.21-20.47-5.71-43.07-4.83-63.28z" fill="#fff"/><path d="M271.22 208.73s1.86 20.51-4.9 31-7.46 16.32-2.79 17.26 4.19 5.59-.7 10.72-5.6 15.62-1.17 16.32 11.42-11 11.42-11 1.17-55.91-1.86-64.3z" fill="#1a1a1a"/><path d="M271.2 305.541a1.008 1.008 0 0 1-.88-.52c-14.21-25.84-68.5-38.62-86.67-40.35a.998.998 0 0 1-.86-.72 177.826 177.826 0 0 1-4.43-60.59c.84-7.76.63-15.82.41-24.36-.06-2.35-.12-4.72-.16-7.09-.06-3.42.06-10.29.35-21a1.002 1.002 0 0 1 1.707-.707.997.997 0 0 1 .293.707c-.29 10.71-.41 17.56-.35 20.94 0 2.37.1 4.73.16 7.08.22 8.61.43 16.73-.42 24.62a176.9 176.9 0 0 0 4.18 59.18c14.41 1.55 68.4 12.42 85.91 38.62 1.31-18.12 6.79-111.81-14.36-169-4.84-13.08-17.42-26-27.25-31.55-1.4 3.8-4.35 6.76-9 9-10.49 5.1-26.55 6.48-33.69 2.9l-.32-.2a47.674 47.674 0 0 0-9.18 19.51c-.26 1.25-.51 2.34-.78 3.55-.44 1.92-.93 4.09-1.66 7.64a1.009 1.009 0 0 1-.429.656.995.995 0 0 1-.771.144.983.983 0 0 1-.359-.155.984.984 0 0 1-.417-.644.99.99 0 0 1 .006-.391c.74-3.56 1.23-5.75 1.67-7.67.27-1.2.51-2.29.78-3.52a49.682 49.682 0 0 1 10.36-21.33.998.998 0 0 1 1.337-.187c.137.094.248.22.323.367.073.177.186.334.33.46 6.68 3.35 21.89 2 31.91-2.91 6.08-3 7.66-6.51 8.32-8.93a.995.995 0 0 1 .56-.65 1.003 1.003 0 0 1 .86 0c10.32 5.36 24.09 19.23 29.32 33.23 23.54 63.64 14.34 171.87 14.24 173a1.001 1.001 0 0 1-.79.89z" fill="#1a1a1a"/><path d="M169.82 329.61c18.67 2.62 75.48 1.5 91.58-43.07s57-39 73.06-53.87c0 0 28.4 52.86-24.75 88.3s-139.89 8.64-139.89 8.64z" fill="#fece2f"/><path d="M183.35 331.331a99.829 99.829 0 0 1-13.44-.84 101.699 101.699 0 0 1-24.6-6.9 1.01 1.01 0 0 1-.618-.927.998.998 0 0 1 1.388-.913 100.066 100.066 0 0 0 24.11 6.76c19.85 2.77 74.77.6 90.27-42.31 10.93-30.27 31.63-36.92 48.26-42.26 8.46-2.71 15.77-5.06 20.94-9.84 4.39-4 6.59-8.5 6.56-13.23-.06-8.62-7.56-15.46-7.64-15.53a1.002 1.002 0 1 1 1.34-1.49c.33.3 8.23 7.48 8.3 17 0 5.32-2.38 10.27-7.2 14.72-5.5 5.08-13.36 7.6-21.68 10.28-17.07 5.48-36.4 11.69-47 41-7 19.28-22.65 33-45.36 39.79a120.904 120.904 0 0 1-33.63 4.69z" fill="#1a1a1a"/><path d="M260.51 157c3.34 38.7-4.92 69.1-14.8 88.25-15.69 30.41-104 34.15-117.13 33.71s-23.06 3.87-27.8 5.16c-6.21 1.69-4.64-3.61-4.64-3.61-2.54 1.22-8.33 1.45-6.88-2.16-2.3 1.1-5.1 1.67-6.47-.06-.87-1.11.57-3.27 6.94-6.35 8.667-4.193 19.273-6.543 31.82-7.05 15.6-.65 79.34-14.37 83.29-30.19s4.61-33.41 2.28-75.84" fill="#fece2f"/><path d="M110.29 266.31s14.52.82 21.33 2.28c7.35 1.57 50.54-10.5 62.78-23.43-8.22 3.84-47.57 17.48-60.86 18.53s-23.25 2.62-23.25 2.62z" fill="#fff"/><path d="M98.64 285.42a3.336 3.336 0 0 1-2.592-.888A3.339 3.339 0 0 1 95 282c-2.12.54-4.81.53-6.12-.7a2.47 2.47 0 0 1-.76-1.37c-2.69.89-4.85.55-6.07-1a2.106 2.106 0 0 1-.39-1.81c.41-1.78 2.92-3.77 7.68-6.06 8.7-4.21 19.54-6.61 32.2-7.15 15.85-.66 78.6-14.36 82.37-29.43 4-16.09 4.55-33.74 2.25-75.54a1.004 1.004 0 0 1 1.332-1 1.004 1.004 0 0 1 .668.89c2.31 42 1.77 59.82-2.31 76.13-4.16 16.64-69.27 30.32-84.22 31-12.39.53-23 2.86-31.43 6.95-5.89 2.85-6.52 4.43-6.59 4.71v.12c1 1.22 3.35.69 5.25-.22a1.006 1.006 0 0 1 1.12.172 1.002 1.002 0 0 1 .24 1.108c-.32.78-.08 1 0 1.09.81.75 3.74.64 5.51-.21a1.005 1.005 0 0 1 1.076.141 1.003 1.003 0 0 1 .314 1.039c-.12.41-.33 1.7.24 2.27s1.61.52 3.18.1c.87-.24 1.93-.59 3.16-1 5.26-1.71 14.06-4.57 24.93-4.21 12.8.42 100.93-3.54 116.21-33.17 7.12-13.81 18.5-43.55 14.69-87.71a.992.992 0 0 1 .543-.974.994.994 0 0 1 .377-.106.998.998 0 0 1 1.08.91c3.85 44.66-7.69 74.8-14.91 88.79-15.8 30.62-102.74 34.77-118.06 34.26-10.52-.34-18.78 2.33-24.24 4.11-1.25.41-2.34.77-3.26 1a9.31 9.31 0 0 1-2.42.29z" fill="#1a1a1a"/><path d="M262.14 147.869s3.27 12.59 7.23 37.31c-15.62 6.06-49.19 8.62-67.38 2.8.47-11 .23-37.31.23-37.31" fill="#fff"/><path d="M228.45 192.25c-9.95 0-19.54-1-26.77-3.32a.995.995 0 0 1-.69-1c.46-10.8.24-37 .23-37.25a1 1 0 1 1 2 0c0 .26.22 25.31-.2 36.59 17.92 5.41 49.7 3 65.23-2.72-3.85-23.85-7-36.28-7.07-36.41a.997.997 0 0 1 .734-1.141.998.998 0 0 1 1.196.641c0 .13 3.32 12.92 7.25 37.4a1 1 0 0 1-.63 1.09c-9.57 3.69-25.85 6.12-41.28 6.12zM78.79 270.58a4.186 4.186 0 0 1-3.86-2.27 3.361 3.361 0 0 1 1.21-4.2c2.63-1.95 9.84-4.14 10.15-4.23a.998.998 0 0 1 .58 1.91c-.08 0-7.19 2.19-9.54 3.93a1.37 1.37 0 0 0-.58 1.75 2.412 2.412 0 0 0 2.85 1c3.57-.82 12.34-1.73 12.71-1.77a.99.99 0 0 1 .736.222.998.998 0 0 1 .326 1.068 1.007 1.007 0 0 1-.862.71c-.09 0-9 .93-12.46 1.73a5.687 5.687 0 0 1-1.26.15z" fill="#1a1a1a"/><path d="M108.73 275.289a30.3 30.3 0 0 0-12.24 5z" fill="#fece2f"/><path d="M96.49 281.3a.995.995 0 0 1-.943-.706.998.998 0 0 1 .383-1.114 30.857 30.857 0 0 1 12.68-5.18 1.006 1.006 0 1 1 .24 2 29.632 29.632 0 0 0-11.79 4.85.996.996 0 0 1-.57.15z" fill="#1a1a1a"/><path d="M104 271.91s-8.39 2-14.69 6.29z" fill="#fece2f"/><path d="M89.26 279.2a1.003 1.003 0 0 1-.933-1.326c.069-.2.2-.373.373-.494 6.37-4.37 14.67-6.36 15-6.44a1.001 1.001 0 0 1 .46 1.94c-.08 0-8.29 2-14.35 6.15a1.007 1.007 0 0 1-.55.17z" fill="#1a1a1a"/><path d="M87.73 294.76s-8.39 7-5.13 29.37 7.93 51.3 7.93 51.3-4.66-33.58-.93-43.37-4.67-12.12-.94-19.58-.93-17.72-.93-17.72zm52.46 101.649-5.95-58.75c-.7-11.54-14.55-14.22-12.59.35.78 5.76 8.76 6.58 7.7 14-.7 4.89-2.45 5.59 1.75 10.14s-2.8 9.44 2.44 16.78 6.65 17.48 6.65 17.48z" fill="#fece2f"/><path d="M71.88 449.1s-4.43 12.13-9.1 14.46-7.22 10.72-2.78 16.08 7-6.52 7-6.52zm73.21 1.63s-4.43 17-3.27 22.15 4 14-.93 22.15 11 2.1 11 2.1z" fill="#1a1a1a"/><path d="M156.86 488.71c-.76-7.06-5.44-11.08-8.15.22-2.44 10.13-14.34 5.32-16.3 3.37 4.24-5.22-7.17-12.06-7.17-12.06s-13 25.42-31.95 30.31c-18.95 4.89-7.38 14.24 1.09 15.11 30 3.07 56.28-.87 68-4 9.21-2.48-1.31-11.09-1.31-11.09z" fill="#fff"/><path d="M116.59 527.77a218.146 218.146 0 0 1-22.31-1.12c-5.49-.56-11.88-4.37-12.2-8.62-.19-2.51 1.56-6 11-8.45 18.25-4.71 31.18-29.55 31.31-29.8a1.012 1.012 0 0 1 .61-.5 1.013 1.013 0 0 1 .79.1c.32.19 7.68 4.65 8.52 9.46a4.877 4.877 0 0 1-.51 3.24c1.77 1.13 6 2.76 9.5 1.79 2.3-.65 3.81-2.39 4.48-5.17 1.6-6.66 3.88-7.93 5.46-7.83 2.64.17 4.24 4 4.65 7.69L162 510c1.3 1.12 5.85 5.34 5.08 8.92-.37 1.75-1.86 3-4.43 3.67-10.04 2.71-26.71 5.18-46.06 5.18zm9-46.11c-2.64 4.81-14.84 25.41-32.07 29.86-6.29 1.63-9.65 3.89-9.46 6.36.24 3.19 5.89 6.32 10.4 6.78 28.2 2.9 54.07-.34 67.66-4 1.78-.48 2.79-1.2 3-2.16.5-2.32-3.31-6.06-4.68-7.18a1.057 1.057 0 0 1-.35-.59l-4.23-21.84v-.08c-.41-3.79-1.88-5.9-2.79-6-.7 0-2.16 1.32-3.36 6.3-1.06 4.41-3.78 6-5.87 6.63-4.8 1.35-10.66-1.34-12.11-2.78a1.004 1.004 0 0 1-.07-1.34 2.94 2.94 0 0 0 .67-2.48c-.52-2.78-4.45-5.94-6.72-7.48z" fill="#1a1a1a"/><path d="M73.93 472.87c-.76-7.08-5.44-11.1-8.17.22-2.44 10.15-13.88 5.44-15.84 3.48 2.88-7.09-.67-8.86-3.86-10.49-1.26-.64-2.65-.83-3.26.45a45.181 45.181 0 0 1-4.92 7.94c-4.9 6.45-13.42 14.64-27.74 20.94-17.91 7.88-5.43 15.84 3.1 16.07 33.69.88 51.07-2.83 62.83-6 9.23-2.48-.34-13.63-.34-13.63z" fill="#fff"/><path d="M23.11 512.611c-3.14 0-6.43 0-9.89-.13-5.64-.15-12.22-3.26-13.13-7.64-.5-2.56.77-6.44 9.65-10.35 14.49-6.37 22.87-14.73 27.35-20.62a45.494 45.494 0 0 0 4.81-7.77 2.557 2.557 0 0 1 1.49-1.37 4.083 4.083 0 0 1 3.12.46c3.12 1.59 7.29 3.72 4.6 11.07 1.62 1.09 5.84 2.8 9.22 1.85 2.28-.65 3.78-2.41 4.46-5.25 1.61-6.68 3.87-8 5.47-7.85 2.67.18 4.26 4 4.67 7.76l1.77 18.68c1 1.28 5.44 7 4.14 11.23-.57 1.85-2.09 3.12-4.51 3.77-11.51 3.1-26.78 6.16-53.22 6.16zm21.2-46a1.017 1.017 0 0 0-.27 0c-.1 0-.22.1-.34.34a47.006 47.006 0 0 1-5 8.12c-4.62 6.08-13.25 14.7-28.14 21.24-6 2.64-9 5.53-8.48 8.13.63 3.25 6.55 5.9 11.21 6 32.41.85 49.8-2.53 62.54-6 1.74-.47 2.76-1.27 3.12-2.43.93-3-2.54-7.93-4-9.58a1 1 0 0 1-.24-.56l-1.8-19c-.41-3.8-1.89-5.9-2.8-6-.7 0-2.16 1.32-3.36 6.31-1.08 4.48-3.79 6.12-5.87 6.71-4.49 1.27-10.06-1.15-11.66-2.75a1.006 1.006 0 0 1-.22-.94c2.53-6.21-.19-7.6-3.35-9.21a3.201 3.201 0 0 0-1.34-.41zM219.69 191s31.25.46 40.8-3c-.46 13.05-7 40.33-9.32 44.53 0 0-7.23-11.43-2.1-19.35s6.06-9.8 2.8-13.29-32.18-8.89-32.18-8.89zM178 218.75s-1.4 23.55-8.39 27.28-10 11.89-10 11.89l21.39-7.23zm20.55-95.52c-11.47 0-17.74-3.84-18.09-4.06a.998.998 0 0 1-.377-1.414.989.989 0 0 1 .658-.451 1.001 1.001 0 0 1 .779.175c.11.07 11.27 6.83 31 2 16.33-4.05 20.61-9.63 22.8-15.06a1.006 1.006 0 0 1 1.628-.348 1.006 1.006 0 0 1 .232 1.088c-3.23 8-10.46 12.86-24.18 16.26a60.329 60.329 0 0 1-14.45 1.81z" fill="#1a1a1a"/><path d="M117.63 507.45A24.56 24.56 0 0 1 129 521.79c4.37-.88 14.34-2.63 14.34-2.63s-7.11-15.38-15.39-21.68c-4.02 4.37-10.32 9.97-10.32 9.97zM34.4 490.89a24.6 24.6 0 0 1 11.36 14.34c4.38-.87 13.88-3.79 13.88-3.79S53 487.22 44.72 480.93c-4.03 4.37-10.32 9.96-10.32 9.96z" fill="#fece2f"/><path d="M109.49 511.999a17.99 17.99 0 0 1-9.41-3.21 1.002 1.002 0 1 1 1.18-1.62c.07 0 7 4.95 12.55 1.7 7.27-4.23 17.72-17.06 17.82-17.19a1.002 1.002 0 1 1 1.56 1.26c-.44.54-10.79 13.24-18.38 17.65a10.332 10.332 0 0 1-5.32 1.41zm-12.02 14.112a43.888 43.888 0 0 1-6.4-.36 1.008 1.008 0 0 1-.66-.406 1.013 1.013 0 0 1 .98-1.594c10.55 1.7 59.43-3.07 68.67-13.83a1.003 1.003 0 1 1 1.52 1.31c-8.51 9.92-46.76 14.88-64.11 14.88zm-86.65-14.96a28.901 28.901 0 0 1-4.38-.27 1.014 1.014 0 0 1-.434-1.821c.218-.157.489-.222.754-.179 10.85 1.75 58.65-6 68-16.8a.996.996 0 0 1 .682-.347.997.997 0 0 1 .838 1.647c-8.96 10.42-49.28 17.77-65.46 17.77zM25.44 497c-3.64 0-7-2.3-8.72-4.05a1.003 1.003 0 0 1 .015-1.415.999.999 0 0 1 1.415.015c.25.26 6.1 6.11 11.25 2 6.18-4.9 18.24-15.42 19.69-17.54a.985.985 0 0 1 .642-.427 1 1 0 0 1 1.174.804 1 1 0 0 1-.166.753c-1.73 2.52-14.41 13.46-20.09 18a8.251 8.251 0 0 1-5.21 1.86z" fill="#1a1a1a"/><path d="M283.92 288.11s6.19-13.23 15.76-20.65 4.94-9.53-2.94-6.45-16.46 11-21.21 21.63 4.2 12.28 8.39 5.47zm29.7-30.11c-2 1-6.5-1.49-2.73-4.29s7-3 11.27-3.29 4.1 2.19 1.47 3.22-7.53 3.15-10.01 4.36z" fill="#fff"/><g fill="#1a1a1a"><path d="M26.82 491.66a1 1 0 0 1-.8-.41 6.344 6.344 0 0 0-4.53-2.74 1.002 1.002 0 0 1-1-1 1 1 0 0 1 1-1 8.335 8.335 0 0 1 6.09 3.56.997.997 0 0 1-.22 1.4 1.01 1.01 0 0 1-.54.19zm82.92 15.56a.99.99 0 0 1-.73-.32 6.322 6.322 0 0 0-4.8-2.24 1.004 1.004 0 0 1-1.07-.92.997.997 0 0 1 .9-1.07 8.256 8.256 0 0 1 6.44 2.87.996.996 0 0 1 .182 1.083.998.998 0 0 1-.922.597zm4.96-4.899a1.008 1.008 0 0 1-.7-.32 6.31 6.31 0 0 0-4.79-2.24 1.005 1.005 0 0 1-1.085-.915 1.004 1.004 0 0 1 .915-1.085 8.313 8.313 0 0 1 6.43 2.88.994.994 0 0 1 .261.717.995.995 0 0 1-.321.693 1 1 0 0 1-.71.27zm4.95-4.891a.992.992 0 0 1-.74-.33 6.242 6.242 0 0 0-2.146-1.649 6.24 6.24 0 0 0-2.644-.581.995.995 0 0 1-.725-.239.995.995 0 0 1-.345-.681 1.001 1.001 0 0 1 .9-1.08 8.315 8.315 0 0 1 6.44 2.88 1 1 0 0 1-.06 1.41.993.993 0 0 1-.68.27zm4.9-6.181a.996.996 0 0 1-.74-.33 6.32 6.32 0 0 0-4.79-2.23 1.007 1.007 0 0 1-.731-.235.996.996 0 0 1-.113-1.406.996.996 0 0 1 .674-.349 8.258 8.258 0 0 1 6.44 2.87.995.995 0 0 1 .182 1.083.994.994 0 0 1-.922.597zM32.07 487a1.009 1.009 0 0 1-.81-.41 6.297 6.297 0 0 0-4.52-2.74 1.002 1.002 0 0 1-1-1 1.002 1.002 0 0 1 1-1 8.262 8.262 0 0 1 6.09 3.56.999.999 0 0 1-.21 1.39c-.16.12-.35.189-.55.2zm5.71-5.481a.99.99 0 0 1-.81-.41 6.313 6.313 0 0 0-4.52-2.74.998.998 0 0 1-1-1 1.001 1.001 0 0 1 1-1 8.302 8.302 0 0 1 6.1 3.56 1 1 0 0 1-.81 1.59zM27 476.469a5.993 5.993 0 0 1-3.75-1 4.39 4.39 0 0 1-1.57-3.47 4.136 4.136 0 0 1 1.66-3.78c4-2.9 14 .74 15.08 1.16a16.235 16.235 0 0 1 5.67 3.39 1.002 1.002 0 0 1-.91 1.68c-2.38-.47-5.78.26-9.08 1-2.328.57-4.706.912-7.1 1.02zm.67-7.38a5.58 5.58 0 0 0-3.18.74 2.178 2.178 0 0 0-.83 2.08 2.462 2.462 0 0 0 .81 2c1.56 1.2 5.44.38 9.2-.42a51.297 51.297 0 0 1 6.48-1.1 15.63 15.63 0 0 0-2.42-1.08 33.77 33.77 0 0 0-10.04-2.22zm187.83-202.78s11.29-8.91 14-15.15c4.43-10.26 15.62-10.73 14-3.5s-21.94 17.72-28 18.65z"/><path d="M43.38 474.471a1.009 1.009 0 0 1-.81-.41c-2-2.68-5.87-3.86-11.14-4.8-4.86-.86-5.18-2.9-5.1-3.73.2-2 3-3.25 6.87-3.15h.14c5.21.89 8.67 3 11 10.78a.998.998 0 0 1-.51 1.18 1.016 1.016 0 0 1-.45.13zm-10.63-10.09c-3 0-4.39.95-4.43 1.35 0 .15.52 1 3.46 1.56 3.76.68 6.91 1.48 9.3 2.87-1.88-3.94-4.35-5.14-8-5.78zm74.45 35.299a4.606 4.606 0 0 1-1.32-.19c-1-.34-2.74-1.4-2.36-4.75.68-5.93 11.22-7.81 14.75-8.28.076-.184.201-.343.36-.46.86-.64 1.71.24 2.61 1.17a1 1 0 0 1 .15 1.18c-3.89 6.98-10.22 11.33-14.19 11.33zm11.86-11.3c-4 .46-13.07 2.39-13.55 6.59-.17 1.47.16 2.35 1 2.61 2.42.79 8.55-2.73 12.55-9.2z"/><path d="M108.17 490.609a3.937 3.937 0 0 1-3-1.23 4.092 4.092 0 0 1-.49-4.46 5.534 5.534 0 0 1 5.27-3h.16c4.19-.28 10.15 2.61 12.8 6.17a1 1 0 0 1-1.41 1.39c-1.82-1.41-5.22-1.17-11 .77a7.093 7.093 0 0 1-2.33.36zm1.76-6.73a3.605 3.605 0 0 0-3.46 1.88 2.142 2.142 0 0 0 .17 2.28c.58.65 1.73.75 3.16.27a26.697 26.697 0 0 1 8.54-1.76c-2.53-1.71-5.75-2.85-8.16-2.67z"/></g></g></svg></g></svg>