<svg xmlns="http://www.w3.org/2000/svg" version="1.1" viewBox="0 0 3000 3000" width="3000" height="3000">
<defs/><!--ITEM: Illustration component 1--><g transform="translate(147.22222222222223 308.3333333333333) rotate(0.0 1366.6666666666667 1152.7777777777776)  scale(3.774800902269484 3.7715615173491828)"><svg width="724.1" height="611.3" viewBox="0.0 0.0 724.1 611.3"><path d="M514.6,61.7c-77.7-84.8-227.2-74.6-301.8-15.6c-81.1,64.2-31.2,128.3-175.2,322.7  c-69.4,93.7-52.8,231,135.3,237.7c196,6.9,527,38.1,549.9-218.6C738.4,212.7,610,165.8,514.6,61.7z" style="fill:#FECE2F;"/>
</svg></g><!--ITEM: Illustration component 2--><g transform="translate(1408.3333333333333 430.55555555555554) rotate(0.0 208.33333333333337 333.3333333333333)  scale(2.6969938228053487 2.6966534530647466)"><svg width="154.493" height="247.22" viewBox="0.0 0.0 154.493 247.22"><g>
    <path d="M62.923,245.719H11.553c-.96-32.49-2.84-77.77-6.08-93.19-5.48-26.129,16.97-60.52,35.61-3.649,2.65,8.08,4.98,15.619,7.04,22.639,5.08,17.381,8.47,31.62,10.72,43.14v.011A216.967,216.967,0,0,1,62.923,245.719Z" style="         fill: #fece2f;       "/>
    <path d="M64.492,247.22H10.1l-.043-1.456c-1.006-34.048-2.872-77.809-6.049-92.926C.74,137.269,6.952,119.468,16.546,116.9c5.365-1.438,15.877.745,25.962,31.516,2.5,7.628,4.876,15.26,7.054,22.684,4.6,15.743,8.22,30.3,10.753,43.275l.028.154a220.641,220.641,0,0,1,4.079,31.126Zm-51.483-3H61.344a225.189,225.189,0,0,0-3.974-29.265l-.027-.15c-2.515-12.848-6.1-27.268-10.66-42.865-2.169-7.392-4.533-14.994-7.025-22.593-6.8-20.759-14.947-31.526-22.336-29.551-8.058,2.158-13.3,18.522-10.381,32.426C10.117,167.337,11.989,210.267,13.009,244.22Z" style="         fill: #1a1a1a;       "/>
    <path d="M37.924,245.905c-1.693-13.6-6.159-37.378-10.477-60.376C22.179,157.47,17.2,130.968,17.2,123v-3.032l2.41,1.839c5.63,4.3,11.715,20.794,18.088,49.03,4.94,21.886,8.387,43.569,8.764,45.969.054.327.077.507.077.507l-2.977.374c0-.015-.02-.154-.062-.4-.377-2.4-3.81-24-8.728-45.788-5.992-26.547-10.8-38.751-14.281-44.141,1.16,11.062,5.594,34.677,9.9,57.619,4.326,23.043,8.8,46.872,10.505,60.559Z" style="         fill: #1a1a1a;       "/>
    <path d="M22.892,245.888C19.468,215.421,11.638,142.7,12.877,125.462l2.992.215c-1.255,17.465,7.34,96.17,10,119.875Z" style="         fill: #1a1a1a;       "/>
    <path d="M29.151,123.719s-3.89,3.611-14.78,1.855-12.354-9.266-12.53-10.3c-1.4-8.314,1.757-10.538,3.513-8.782s4.567,13,6.675,6.323c1.379-4.367.688-18.233,1.58-22.395a1.4,1.4,0,0,1,2.6-.382l7.241,15.532a2,2,0,0,0,3.449.3c2.038-2.952,5.064-6.021,5.5.972C33.151,118.719,29.151,123.719,29.151,123.719Z" style="         fill: #fff;       "/>
    <path d="M100.153,70.719l-3.01,68.53-3.95,89.881v.02l-.73,16.569H42.533c.72-7.839,1.57-17.62,2.45-28.68,1.08-13.65,2.2-29.24,3.14-45.52,2.13-37.309,3.3-78.17.91-107.3C43.413-4.171,105.153,7.719,100.153,70.719Z" style="         fill: #fece2f;       "/>
    <path d="M93.9,247.22H40.889l.15-1.637c.823-8.962,1.67-18.873,2.449-28.663,1.256-15.882,2.312-31.186,3.137-45.488,2.641-46.256,2.948-82.287.913-107.089C45.726,42.291,50.812,25.872,61.493,19.3c6.482-3.993,14.295-3.775,21.436.593,10.492,6.419,20.917,23.166,18.721,50.922Zm-49.723-3H91.028L98.658,70.6c2.1-26.417-7.559-42.194-17.294-48.15-6.143-3.759-12.812-3.978-18.3-.6C58.484,24.672,48.09,34.435,50.528,64.1c2.046,24.941,1.741,61.112-.908,107.508-.826,14.324-1.884,29.649-3.141,45.552C45.745,226.367,44.953,235.684,44.176,244.22Z" style="         fill: #1a1a1a;       "/>
    <path d="M79.134,23.912s-1.873,2.971-12.763,1.8-12.354-6.185-12.53-6.879c-1.405-5.55,1.757-7.035,3.513-5.863s4.567,8.677,6.675,4.221c1.379-2.915.688-12.172,1.58-14.95.272-.846,1.968-1.011,2.6-.255L77.026,14.61S88.619,6.636,84.4,13.2,79.134,23.912,79.134,23.912Z" style="         fill: #fff;       "/>
    <path d="M71.021,27.481a45.159,45.159,0,0,1-4.811-.28c-11.253-1.211-13.425-6.431-13.823-8-1.221-4.824.692-6.79,1.572-7.412a3.708,3.708,0,0,1,4.228-.065,10.05,10.05,0,0,1,2.256,2.719,14.143,14.143,0,0,0,1.982,2.548,3.1,3.1,0,0,0,.248-.441c.638-1.349.765-5.037.867-8a30.508,30.508,0,0,1,.641-6.768A2.651,2.651,0,0,1,66.289.067a3.22,3.22,0,0,1,3.07.953l.079.1,7.974,11.418C84.431,7.924,85.64,9.1,86.238,9.675c1.364,1.322.007,3.435-.572,4.339-4,6.235-5.069,10.232-5.079,10.271l-.059.227-.125.2C80.071,25.238,78.229,27.481,71.021,27.481ZM56.121,14.1a.737.737,0,0,0-.431.143c-.573.4-1.02,1.754-.395,4.225.121.478,1.466,4.7,11.236,5.756,8.084.869,10.692-.642,11.266-1.082a44.993,44.993,0,0,1,5.057-10.293,46.515,46.515,0,0,0-4.978,3l-1.227.842L67.1,3.01A.687.687,0,0,0,66.956,3a39.71,39.71,0,0,0-.418,5.649c-.123,3.575-.25,7.272-1.153,9.181a3.348,3.348,0,0,1-2.678,2.251c-2,.146-3.4-1.944-4.755-3.97a11.667,11.667,0,0,0-1.431-1.9A.72.72,0,0,0,56.121,14.1Z" style="         fill: #1a1a1a;       "/>
    <path d="M55.47,245.982l-2.954-.525c.211-1.189,21.022-119.969,12.36-219.617l2.989-.26C76.562,125.63,55.682,244.79,55.47,245.982Z" style="         fill: #1a1a1a;       "/>
    <path d="M86.651,194.742l-3-.045c.013-.819,1.2-82.633-1-139.92-.972-25.289-3.878-33.456-3.907-33.535l2.811-1.049c.126.336,3.1,8.525,4.094,34.469C87.857,112.029,86.663,193.922,86.651,194.742Z" style="         fill: #1a1a1a;       "/>
    <path d="M19.933,127.551a36.5,36.5,0,0,1-5.8-.5C2.568,125.189.633,117.119.362,115.519c-.928-5.489-.048-9.505,2.353-10.745a3.1,3.1,0,0,1,3.7.653,14.187,14.187,0,0,1,2.151,3.9,30.553,30.553,0,0,0,1.818,3.628c.065-.158.137-.357.214-.6.707-2.236.831-7.662.941-12.45a67.58,67.58,0,0,1,.6-9.807,2.9,2.9,0,0,1,5.375-.8l.05.1L24.81,104.93a.491.491,0,0,0,.415.291.467.467,0,0,0,.44-.207c1.34-1.941,3.376-4.45,5.582-3.839,2.1.583,2.52,3.458,2.653,5.57.776,12.317-3.4,17.689-3.577,17.912l-.152.162C30.025,124.955,27.126,127.551,19.933,127.551ZM4.12,107.427a.8.8,0,0,0-.33.308c-.324.447-1.313,2.294-.47,7.284.211,1.245,1.745,7.535,11.289,9.075,8.988,1.448,12.814-.959,13.445-1.417.534-.788,3.488-5.645,2.852-15.745a8,8,0,0,0-.5-2.752,8.949,8.949,0,0,0-2.268,2.538,3.5,3.5,0,0,1-6.044-.52L15.019,91.029a80.578,80.578,0,0,0-.481,8.947c-.12,5.233-.244,10.642-1.079,13.286-.262.83-.958,3.035-2.814,3.141-2.147.128-3.383-2.641-4.817-5.845a17.99,17.99,0,0,0-1.534-3.01A.419.419,0,0,0,4.12,107.427Z" style="         fill: #1a1a1a;       "/>
    <path d="M147.293,122.42c-4.42,21.259-12.41,100.049-14.72,123.3H80.953c0-17.44,1.97-55.91,16.19-106.47q2.625-9.4,5.86-19.34c9.21-28.3,21.56-34.3,30.98-29.96C143.5,94.329,150.023,109.279,147.293,122.42Z" style="         fill: #fece2f;       "/>
    <path d="M133.931,247.22H79.453v-1.5c0-18.342,2.111-56.617,16.246-106.877,1.772-6.348,3.75-12.876,5.878-19.4,5.435-16.7,12.6-27.4,20.727-30.957a14.64,14.64,0,0,1,12.307.1c10.329,4.752,16.942,20.705,14.15,34.137h0c-4.372,21.034-12.353,99.573-14.695,123.143Zm-51.473-3h48.757c2.5-25.118,10.287-101.315,14.609-122.106h0c2.533-12.188-3.293-26.582-12.468-30.8a11.576,11.576,0,0,0-9.85-.076c-5.1,2.232-12.555,9.1-19.077,29.138-2.115,6.483-4.08,12.97-5.841,19.279C84.924,188.234,82.574,225.5,82.458,244.22Z" style="         fill: #1a1a1a;       "/>
    <path d="M92.489,245.826l-2.992-.213c.8-11.136,15.563-119.6,43.454-156.794l2.4,1.8c-14.1,18.8-24.674,56.966-31.065,85.676C97.122,208.482,93,238.663,92.489,245.826Z" style="         fill: #1a1a1a;       "/>
    <path d="M117.493,245.72h-3c0-37.785,11.11-75.061,11.222-75.433.108-.4,11.9-44.055,9.94-72.464l2.993-.207c1.994,28.919-9.929,73.056-10.05,73.5C128.476,171.52,117.493,208.39,117.493,245.72Z" style="         fill: #1a1a1a;       "/>
    <path d="M146.8,94.246s-1.874,2.97-12.764,1.8-12.354-6.185-12.529-6.879c-1.405-5.55,1.756-7.035,3.513-5.862s4.567,8.677,6.674,4.221c1.379-2.916.688-12.173,1.581-14.95.272-.846,1.968-1.012,2.6-.256l8.818,12.626s11.593-7.973,7.377-1.407S146.8,94.246,146.8,94.246Z" style="         fill: #fff;       "/>
    <path d="M138.686,97.815a45.11,45.11,0,0,1-4.809-.28c-11.253-1.212-13.425-6.432-13.823-8-1.222-4.825.692-6.791,1.572-7.412a3.706,3.706,0,0,1,4.228-.066,10.049,10.049,0,0,1,2.255,2.719,14.2,14.2,0,0,0,1.983,2.549,3.118,3.118,0,0,0,.247-.441c.638-1.35.765-5.038.867-8a30.561,30.561,0,0,1,.642-6.767,2.651,2.651,0,0,1,2.109-1.713,3.225,3.225,0,0,1,3.069.955l.079.1,7.973,11.417c7.02-4.618,8.229-3.447,8.826-2.868,1.365,1.321.008,3.435-.572,4.339-4,6.235-5.068,10.233-5.078,10.272l-.059.227-.126.2C147.737,95.572,145.9,97.815,138.686,97.815Zm-14.9-13.387a.742.742,0,0,0-.432.143c-.573.4-1.02,1.754-.394,4.226.121.478,1.465,4.7,11.236,5.756,8.082.87,10.692-.642,11.265-1.082a45.042,45.042,0,0,1,5.058-10.294,46.515,46.515,0,0,0-4.978,3l-1.227.842-9.554-13.679a.421.421,0,0,0-.139-.008,39.669,39.669,0,0,0-.418,5.648c-.123,3.575-.251,7.272-1.154,9.182a3.346,3.346,0,0,1-2.677,2.251c-1.993.139-3.4-1.945-4.756-3.971a11.667,11.667,0,0,0-1.431-1.9A.719.719,0,0,0,123.788,84.428Z" style="         fill: #1a1a1a;       "/>
  </g>
</svg></g><!--ITEM: Illustration component 3--><g transform="translate(1366.6666666666665 1069.4444444444443) rotate(0.0 241.66666666666674 225.0)  scale(2.9292929292929304 2.905100064557779)"><svg width="165.0" height="154.9" viewBox="0.0 0.0 165.0 154.9"><g>
    <path d="M6.288,4.579S8.893,120.845,41.708,151c22.172,4.434,72.5,1.33,72.5,1.33C141.479,123.457,157.143,26.05,159.892,7.668a2.653,2.653,0,0,0-2.6-3.043L10.861,2.833Z" style="         fill: #fece2f;       "/>
    <path d="M14.5,84.5s11.333,46.666,16.666,41.666S31.5,107.833,24.5,74.833s9-47,19-50.333,54-8,54-8L8.166,16.166Z" style="         fill: #fff;       "/>
    <path d="M78.442,154.9c-13.4,0-27.62-.548-37.028-2.43L41,152.388l-.309-.284C26.823,139.358,16.566,110.623,10.208,66.7A582.94,582.94,0,0,1,4.788,4.612L4.765,3.555,10.594,1.33l.286,0L157.311,3.125a4.152,4.152,0,0,1,4.065,4.765C158.507,27.072,142.8,124.24,115.3,153.359l-.407.431-.591.036C113.118,153.9,96.531,154.9,78.442,154.9Zm-36.026-5.291c20.629,3.974,65.413,1.583,71.107,1.258,11.2-12.186,21.715-37.471,31.27-75.171,7.719-30.458,12.373-59.94,13.616-68.25a1.133,1.133,0,0,0-.261-.913,1.155,1.155,0,0,0-.875-.408L11.129,4.336,7.818,5.6C8.191,17.252,12.373,121.317,42.416,149.609Z" style="         fill: #1a1a1a;       "/>
    <path d="M157.752,20.1S121.277,150.422,53.94,148.874c-13.157-.483-15.77-.483-15.77-.483L41.708,151s65.244,4.108,72.5,1.33C126.7,134.459,151.753,87.632,157.752,20.1Z" style="         fill: #1a1a1a;       "/>
    <g>
      <rect x="1.5" y="1.5" width="162" height="13.333" rx="5" style="         fill: #fece2f;       "/>
      <path d="M158.5,16.333H6.5A6.508,6.508,0,0,1,0,9.833V6.5A6.508,6.508,0,0,1,6.5,0h152A6.508,6.508,0,0,1,165,6.5V9.833A6.508,6.508,0,0,1,158.5,16.333ZM6.5,3A3.5,3.5,0,0,0,3,6.5V9.833a3.5,3.5,0,0,0,3.5,3.5h152a3.5,3.5,0,0,0,3.5-3.5V6.5A3.5,3.5,0,0,0,158.5,3Z" style="         fill: #1a1a1a;       "/>
    </g>
  </g>
</svg></g><!--ITEM: Illustration component 4--><g transform="translate(169.44444444444443 1305.5555555555554) rotate(0.0 551.3888888888889 680.5555555555555)  scale(3.6728652049218247 3.666885183089822)"><svg width="300.25" height="371.19" viewBox="0.0 0.0 300.25 371.19"><title>armchair_2</title><rect x="122.12" y="209.69" width="16.65" height="108.14" style="fill:#fece2f;"/><path d="M138.77,318.84H122.12a1,1,0,0,1-1-1V209.69a1,1,0,0,1,1-1h16.65a1,1,0,0,1,1,1V317.84A1,1,0,0,1,138.77,318.84Zm-15.65-2h14.65V210.69H123.12Z" fill="#000000"/><path d="M140.08,312.47H120.76L17.14,351.35C0,355.71,64.57,369.42,129.5,370.16c66.72.76,133.85-11.61,113.19-18.81Z" style="fill:#fece2f;"/><path d="M275.69,168.67s-69.84,61.7-191.2,44.07C-21.36,197.37-19.8,53.45,51.26,12.73,141.78-39.14,373.32,93.41,275.69,168.67Z" style="fill:#fece2f;"/><path d="M2.2,92.7S-6,140.19,21.34,176.44,94.11,214,110.45,215.25c-30-4.34-42.77-11.23-49.15-19.91s-8.93-10.73-15.06-8.43-15.58-2.55-20.94-23.74-6.64-23.75-12.51-24S.66,125.38,2.2,92.7Z" fill="#000000"/><path d="M127.22,216.87a297.65,297.65,0,0,1-42.88-3.14c-23-3.34-42-12.75-56.54-28C14.91,172.25,6.05,154.38,2.19,134.08A131,131,0,0,1,8.46,64c8.75-23,23.78-41.55,42.31-52.17,29.28-16.78,75.57-15.81,127,2.68,48,17.24,90.12,46.43,110,76.17,9.46,14.17,13.6,27.89,12.3,40.78-1.42,14.15-9.39,26.92-23.7,37.95-.8.7-18.53,15.91-50.34,28.8C203.28,207.44,169.64,216.87,127.22,216.87ZM102.61,1.93c-19.9,0-37.26,3.88-50.85,11.67C15,34.69-5.08,85.2,4.15,133.7c8.26,43.37,37.59,71.82,80.48,78.05,62.43,9.07,110.87-3.33,140.51-15.32,32.12-13,49.71-28.35,49.89-28.51l.05,0c33.7-26,24.57-55.7,11-76.06-19.62-29.4-61.38-58.29-109-75.4C150.24,6.77,124.84,1.93,102.61,1.93Z" fill="#000000"/><path d="M117.6,313.55s-62.3,28.6-60,36.51,8.94,14.55,25.53,17.62c-31.4-2.05-70-10.47-68.93-15.32C21.6,349.8,117.6,313.55,117.6,313.55Z" style="fill:#fff;"/><path d="M135.33,371.19q-2.94,0-5.85,0a559.28,559.28,0,0,1-79-6.67c-13.63-2.19-36.58-6.56-37.13-11.16-.23-1.95,2.5-2.69,3.48-2.94l103.57-38.85a.84.84,0,0,1,.35-.07h19.32a1,1,0,0,1,.36.07l102.61,38.87c1.18.41,4.86,1.7,4.41,4.27-1,5.49-24.32,9.61-38.16,11.57A549.77,549.77,0,0,1,135.33,371.19Zm-120-18c1.9,4.24,53.54,15.32,114.14,16,61.93.69,115-9.38,116-14.83.06-.33-.53-1.14-3.13-2L139.9,313.47h-19L17.49,352.28a.19.19,0,0,1-.1,0A4.62,4.62,0,0,0,15.37,353.15Z" fill="#000000"/><path d="M121.81,217s11.55,1.91,16.5,19.53c.33-8.81,1-20.3,1-20.3Z" fill="#000000"/><path d="M219.6,161.12c-20.45,2.87-78.84,4.84-96.47-44s-62.37-42.71-80-59c0,0-31.1,57.88,27.11,96.69S219.6,161.12,219.6,161.12Z" style="fill:#fece2f;"/><path d="M208.61,166.1a132.4,132.4,0,0,1-36.8-5.09c-24.84-7.39-42-22.44-49.62-43.53C110.54,85.21,86.47,77.15,67.13,70.67c-10-3.37-18.71-6.27-24.68-11.78-5.26-4.85-7.9-10.26-7.86-16.06.08-10.38,8.7-18.21,9.07-18.54A1,1,0,0,1,45,25.78c-.08.08-8.33,7.59-8.4,17.08,0,5.21,2.39,10.11,7.22,14.56,5.65,5.22,14.13,8.06,24,11.35,19.75,6.62,44.32,14.85,56.3,48,17,47.06,77.2,49.45,99,46.4a108.88,108.88,0,0,0,26.42-7.41,1,1,0,0,1,1.31.53,1,1,0,0,1-.54,1.31,110.94,110.94,0,0,1-26.92,7.55A108.63,108.63,0,0,1,208.61,166.1Z" fill="#000000"/><path d="M122.67,143.77s6.78,10.57,15.79,15.8,5.29,7.56-1.77,5.83-15.29-7.5-20.54-16S118.32,138.45,122.67,143.77Z" style="fill:#fff;"/><path d="M154.71,166.19c-2.16-1.16-7.17,1.37-3.16,4.59s7.52,3.6,12.2,4.05,4.57-2.23,1.74-3.46S157.37,167.63,154.71,166.19Z" style="fill:#fff;"/><polygon points="137.64 313.04 213.47 364.36 237.98 358.87 141.22 312.53 137.64 313.04" fill="#000000"/><polygon points="135.82 312.91 201.22 365.63 182.83 367.81 132.76 312.91 135.82 312.91" fill="#000000"/><path d="M108.54,215s40.08.76,74.29-12.77c34.73-13.73,62.56-12.77,41.62-4.6S152.45,221.12,108.54,215Z" fill="#000000"/><path d="M29.13,183.31a1,1,0,0,1-.9-.56C10.12,144.8,51.1,68.08,52.86,64.83a1,1,0,0,1,1.76,1c-.43.79-42.26,79.08-24.59,116.1a1,1,0,0,1-.47,1.34A1.07,1.07,0,0,1,29.13,183.31Z" fill="#000000"/><path d="M75.6,210.38a1.09,1.09,0,0,1-.39-.08C41.4,196.08,64.13,138.24,80.74,96c2.57-6.55,5-12.74,7.1-18.42a1,1,0,0,1,1.88.69c-2.11,5.7-4.54,11.9-7.12,18.46C66.3,138.21,44,195,76,208.46a1,1,0,0,1-.39,1.92Z" fill="#000000"/><path d="M110.58,216.25a1.06,1.06,0,0,1-.42-.09c-27.68-12.74-11.34-55.29,3.08-92.82,1.91-5,3.71-9.68,5.43-14.33a1,1,0,0,1,1.28-.6,1,1,0,0,1,.6,1.29c-1.73,4.66-3.53,9.37-5.45,14.36C101,160.77,85,202.39,111,214.34a1,1,0,0,1,.49,1.33A1,1,0,0,1,110.58,216.25Z" fill="#000000"/><path d="M149.13,215a.92.92,0,0,1-.42-.1c-17.69-8.14-7-38.48.12-58.56.65-1.82,1.26-3.55,1.81-5.17a1,1,0,1,1,1.89.66c-.55,1.61-1.17,3.35-1.81,5.17-6.85,19.4-17.2,48.71-1.17,56.09a1,1,0,0,1-.42,1.91Z" fill="#000000"/><path d="M192,204.76a1,1,0,0,1-.41-.09c-11.73-5.4-4.91-23.8.56-38.59l.65-1.73a1,1,0,1,1,1.87.69l-.64,1.74c-5.19,14-11.65,31.45-1.61,36.07a1,1,0,0,1,.49,1.33A1,1,0,0,1,192,204.76Z" fill="#000000"/><path d="M143.39,215.1h-.15c-30.47-4.4-56.27-15.59-76.71-33.27C50.19,167.68,37.24,149.39,28,127.45,12.41,90.15,13.09,54.72,13.1,54.37a1,1,0,0,1,1-1h0a1,1,0,0,1,1,1c0,.35-.67,35.41,14.82,72.32,14.25,34,45.54,76.55,113.61,86.37a1,1,0,0,1-.14,2Z" fill="#000000"/><path d="M199.12,200.56c-48.54,0-81.12-21.68-100.6-41.18C63.68,124.52,52,80.27,53.7,65.39a1,1,0,1,1,2,.23C53.9,81.08,67.15,125.17,99.93,158c19.21,19.21,51.34,40.58,99.21,40.58a171.64,171.64,0,0,0,19.58-1.14,1,1,0,1,1,.23,2A174.12,174.12,0,0,1,199.12,200.56Z" fill="#000000"/><path d="M42.44,25.1S14.86,54.2,66.57,68.76c48.27,13.58,55.14,44.8,61.27,57.83s45.46,60,118.73,32.17c52.46-19.92,1.53-9.2-14.94-8.81S188,144.59,171.5,122.37s12.13-53.55,4.6-70.08C164.23,26.25,85-12.44,42.44,25.1Z" fill="#000000"/></svg></g><!--ITEM: Illustration component 5--><g transform="translate(1280.5555555555554 1463.888888888889) rotate(0.0 675.0000000000001 576.3888888888888)  scale(4.428131426940752 4.426457029661742)"><svg width="304.869" height="260.429" viewBox="0.0 0.0 304.869 260.429"><title>table</title><g id="Layer_2-i5" data-name="Layer 2"><g id="Layer_1-2-i5" data-name="Layer 1"><rect x="20.482" y="1.125" width="261.656" height="67.076" fill="#fece2f"/><rect width="304.869" height="4.703" fill="#1a1a1a"/><rect x="279.991" y="2.863" width="4.397" height="257.566" fill="#1a1a1a"/><rect x="20.482" y="2.863" width="4.397" height="257.566" fill="#1a1a1a"/></g></g></svg></g><!--ITEM: Illustration component 6--><g transform="translate(1522.2222222222222 2188.8888888888887) rotate(0.0 234.72222222222217 234.72222222222217)  scale(2.4064041219965437 2.4065007119853066)"><svg width="195.0813" height="195.07347" viewBox="0.0 0.0 195.0813 195.07347"><g>
    <g>
      <path d="M58.341,29.84218,77.94084,63.78542,58.341,97.72866,77.94084,131.6719,58.341,165.61514,72.59045,190.299a.65263.65263,0,0,1-.1175-.03133A95.94005,95.94005,0,0,1,29.803,165.61514H58.23919L77.839,131.6719,58.23919,97.72866,77.839,63.78542,58.23919,29.84218,72.73146,4.7353c.03916-.00783.07833-.0235.1175-.03133Z" style="         fill: #22183b;       "/>
      <path d="M136.84212,165.61514H165.2783a95.94011,95.94011,0,0,1-42.66994,24.65253Z" style="         fill: #22183b;       "/>
      <path d="M190.41651,72.9978a96.68285,96.68285,0,0,1-.07051,49.33638L176.13575,97.72866Z" style="         fill: #22183b;       "/>
      <path d="M165.65431,29.84218H136.84212L122.34985,4.7353A95.8758,95.8758,0,0,1,165.65431,29.84218Z" style="         fill: #22183b;       "/>
      <polygon points="117.14 63.785 136.74 97.729 117.14 131.672 77.941 131.672 58.341 97.729 77.941 63.785 117.14 63.785" style="         fill: #22183b;       "/>
      <path d="M29.427,29.84218A95.87578,95.87578,0,0,1,72.73146,4.7353L58.23919,29.84218Z" style="         fill: #22183b;       "/>
      <path d="M4.6648,72.9978,18.94556,97.72866,4.7353,122.33418A96.6827,96.6827,0,0,1,4.6648,72.9978Z" style="         fill: #22183b;       "/>
      <path d="M165.65431,29.84218A95.81863,95.81863,0,0,1,190.38517,72.8803L176.03391,97.72866H136.84212L117.2423,63.78542l19.59982-33.94324Z" style="         fill: #ffffff;       "/>
      <path d="M176.03391,97.72866l14.28076,24.73086a95.88774,95.88774,0,0,1-25.03637,43.15562H136.84212L117.2423,131.6719l19.59982-33.94324Z" style="         fill: #ffffff;       "/>
      <path d="M117.14047,131.6719l19.59981,33.94324L122.49085,190.299a96.69269,96.69269,0,0,1-49.9004,0L58.341,165.61514,77.94084,131.6719Z" style="         fill: #ffffff;       "/>
      <path d="M58.23919,97.72866,77.839,131.6719,58.23919,165.61514H29.803A95.88765,95.88765,0,0,1,4.76664,122.45952L19.04739,97.72866Z" style="         fill: #ffffff;       "/>
      <path d="M122.23234,4.704l14.50794,25.13821L117.14047,63.78542H77.94084L58.341,29.84218,72.849,4.704a96.74638,96.74638,0,0,1,49.38338,0Z" style="         fill: #ffffff;       "/>
      <path d="M58.23919,29.84218,77.839,63.78542,58.23919,97.72866H19.04739L4.69613,72.8803A95.81863,95.81863,0,0,1,29.427,29.84218Z" style="         fill: #ffffff;       "/>
    </g>
    <g>
      <path d="M97.54061,195.0735a97.68449,97.68449,0,0,1-25.33936-3.32569,1.18849,1.18849,0,0,1-.17358-.04663,97.722,97.722,0,0,1-68.69995-68.8164,2.403,2.403,0,0,1-.05982-.23877,98.16018,98.16018,0,0,1-.05347-50.031,1.62251,1.62251,0,0,1,.08887-.29175,1.50014,1.50014,0,0,1,2.82422,1.00611l-.01245.05127a95.18595,95.18595,0,0,0,.06934,48.56616c.00585.02221.01318.0542.01928.08252l.012.042a94.72118,94.72118,0,0,0,66.6477,66.748c.02026.00537.04053.01123.06055.01757l.05566.01343a95.62553,95.62553,0,0,0,49.12207,0c.01465-.0039.03589-.00879.05664-.01367.01978-.0061.0398-.012.05982-.01733a94.72118,94.72118,0,0,0,66.6477-66.748l.01245-.04346c.00635-.02978.01392-.06274.01856-.08105a95.18246,95.18246,0,0,0,.06958-48.56616l-.012-.04932c-.00683-.02222-.01342-.04468-.01928-.06714A94.75666,94.75666,0,0,0,121.96321,6.18458c-.01587-.00415-.09033-.02441-.106-.02905a95.68059,95.68059,0,0,0-48.62354-.002c-.07568.022-.14233.03956-.208.05274A94.40487,94.40487,0,0,0,30.49153,30.89918a1.5,1.5,0,1,1-2.1289-2.11377A97.46091,97.46091,0,0,1,72.34481,3.28614c.07763-.02246.144-.04.21-.05322a98.20773,98.20773,0,0,1,50.06225.02124c.01636.00439.09156.02466.10791.02954a97.75286,97.75286,0,0,1,69.09595,69.15943,2.27818,2.27818,0,0,1,.06641.25976,98.145,98.145,0,0,1-.092,50.0188,1.16491,1.16491,0,0,1-.043.1687,97.72139,97.72139,0,0,1-68.70288,68.81177,2.325,2.325,0,0,1-.26612.06811A97.35257,97.35257,0,0,1,97.54061,195.0735Zm24.51733-6.20118-.00366.00147ZM6.16414,121.91407l.00049.00171Zm-.00244-.0061.00146.00391Zm-.0022-.00562.002.00513ZM188.99324,73.43946l.0022.00537Zm-.00195-.00488.00171.00464Zm-.00122-.00269.00024.00025Z" style="         fill: #22183b;       "/>
      <path d="M4.76522,123.95973a1.50038,1.50038,0,0,1-1.29761-2.25025L17.74837,96.97877a1.5,1.5,0,0,1,2.59814,1.5L6.06575,123.20948A1.4997,1.4997,0,0,1,4.76522,123.95973Z" style="         fill: #22183b;       "/>
      <path d="M58.23909,167.11524h-28.436a1.5,1.5,0,1,1,0-3H57.37313l18.73364-32.44336L56.94,98.47877a1.5,1.5,0,0,1,2.59814-1.5L79.138,130.92188a1.50063,1.50063,0,0,1,0,1.5L59.53816,166.36524A1.50016,1.50016,0,0,1,58.23909,167.11524Z" style="         fill: #22183b;       "/>
      <path d="M58.23909,99.22877H19.04744a1.49979,1.49979,0,0,1-1.29883-.74976L3.3973,73.63063a1.4993,1.4993,0,0,1-.15113-1.134A97.45269,97.45269,0,0,1,28.3636,28.78443a1.5,1.5,0,0,1,2.127,2.11573A94.462,94.462,0,0,0,6.306,72.66847l13.60742,23.5603H57.37313L76.10677,63.78541,56.94,30.59229a1.5,1.5,0,0,1,2.59814-1.5L79.138,63.03541a1.50063,1.50063,0,0,1,0,1.5L59.53816,98.47877A1.50018,1.50018,0,0,1,58.23909,99.22877Z" style="         fill: #22183b;       "/>
      <path d="M58.23909,31.34229h-28.812a1.5,1.5,0,1,1,0-3h27.9458L71.43245,3.98536A1.5,1.5,0,0,1,74.0306,5.48512L59.53816,30.59229A1.49987,1.49987,0,0,1,58.23909,31.34229Z" style="         fill: #22183b;       "/>
      <path d="M72.59188,191.79933a1.49942,1.49942,0,0,1-1.30054-.75025L57.04207,166.36524a1.50063,1.50063,0,0,1,0-1.5l19.59961-33.94336a1.5,1.5,0,0,1,2.59815,1.5L60.07308,165.61524l13.8164,23.93384a1.50038,1.50038,0,0,1-1.2976,2.25025Z" style="         fill: #22183b;       "/>
      <path d="M122.48934,191.79933a1.50038,1.50038,0,0,1-1.29761-2.25025l13.81665-23.93384-19.167-33.19336a1.5,1.5,0,0,1,2.59814-1.5l19.59986,33.94336a1.50063,1.50063,0,0,1,0,1.5l-14.24952,24.68384A1.49942,1.49942,0,0,1,122.48934,191.79933Z" style="         fill: #22183b;       "/>
      <path d="M117.14046,133.17188H77.94075a1.50017,1.50017,0,0,1-1.29907-.75L57.04207,98.47877a1.50063,1.50063,0,0,1,0-1.5L76.64168,63.03541a1.5,1.5,0,0,1,2.59815,1.5L60.07332,97.72877l18.7334,32.44311h37.46777l18.73365-32.44311L115.84139,64.53541a1.5,1.5,0,0,1,2.59814-1.5l19.59986,33.94336a1.50063,1.50063,0,0,1,0,1.5l-19.59986,33.94311A1.50016,1.50016,0,0,1,117.14046,133.17188Z" style="         fill: #22183b;       "/>
      <path d="M117.14046,65.28541H77.94075a1.50019,1.50019,0,0,1-1.29907-.75L57.04207,30.59229a1.50016,1.50016,0,0,1,0-1.49975L71.54988,3.95411A1.49991,1.49991,0,1,1,74.148,5.45362l-14.075,24.38843L78.80672,62.28541h37.46777l18.73389-32.44336L120.93318,5.45362a1.49991,1.49991,0,0,1,2.59815-1.49951l14.50806,25.13843a1.50016,1.50016,0,0,1,0,1.49975L118.43953,64.53541A1.50018,1.50018,0,0,1,117.14046,65.28541Z" style="         fill: #22183b;       "/>
      <path d="M136.84358,167.11549a1.4994,1.4994,0,0,1-1.30053-.75025l-19.59986-33.94336a1.50063,1.50063,0,0,1,0-1.5l19.59986-33.94311a1.5,1.5,0,1,1,2.59814,1.5l-19.16675,33.19311,19.16675,33.19336a1.50037,1.50037,0,0,1-1.29761,2.25025Z" style="         fill: #22183b;       "/>
      <path d="M190.31624,123.95973a1.49945,1.49945,0,0,1-1.30054-.75025L174.73494,98.47877a1.5,1.5,0,0,1,2.59815-1.5l14.28076,24.73071a1.50038,1.50038,0,0,1-1.29761,2.25025Z" style="         fill: #22183b;       "/>
      <path d="M176.034,99.22877H136.84212a1.50018,1.50018,0,0,1-1.29907-.75L115.94319,64.53541a1.50063,1.50063,0,0,1,0-1.5l19.59986-33.94312a1.5,1.5,0,0,1,2.59814,1.5L118.97444,63.78541l18.73365,32.44336h37.46l13.91821-24.09863a1.49994,1.49994,0,1,1,2.59766,1.50049L177.33284,98.479A1.49978,1.49978,0,0,1,176.034,99.22877Z" style="         fill: #22183b;       "/>
      <path d="M122.607,191.76783a1.50036,1.50036,0,0,1-1.2976-2.25024l14.23364-24.65235a1.50018,1.50018,0,0,1,1.29907-.75H165.2784a1.5,1.5,0,0,1,0,3H137.70809l-13.80054,23.90235A1.49941,1.49941,0,0,1,122.607,191.76783Z" style="         fill: #22183b;       "/>
      <path d="M165.65438,31.34229H136.84212a1.49959,1.49959,0,0,1-1.29907-.75024L121.05086,5.48512A1.49991,1.49991,0,1,1,123.649,3.98561l14.05933,24.35668h27.94605a1.5,1.5,0,0,1,0,3Z" style="         fill: #22183b;       "/>
      <path d="M190.34749,123.83448a1.49879,1.49879,0,0,1-1.30029-.75L174.837,98.479a1.49989,1.49989,0,0,1-.00024-1.50024l14.28076-24.731a1.5,1.5,0,0,1,2.59815,1.5L177.868,97.72877,191.64485,121.584a1.50041,1.50041,0,0,1-1.29736,2.25049Z" style="         fill: #22183b;       "/>
      <path d="M4.73372,123.83448A1.50041,1.50041,0,0,1,3.43636,121.584l13.7771-23.85522L3.3658,73.74781a1.5,1.5,0,0,1,2.59815-1.5l14.28076,24.731a1.49989,1.49989,0,0,1-.00025,1.50024L6.034,123.08448A1.49959,1.49959,0,0,1,4.73372,123.83448Z" style="         fill: #22183b;       "/>
    </g>
  </g>
</svg></g><!--ITEM: Illustration component 7--><g transform="translate(1966.6666666666665 1069.4444444444443) rotate(-23.391820979230577 327.7777777777778 805.5555555555557)  scale(2.777154094866643 2.7655711190454397)"><svg width="236.053" height="582.56" viewBox="0.0 0.0 236.053 582.56"><title>acoustic_guitar</title><g id="a4a55901-6c28-4b63-a9de-dcaeb16f45cd-i7" data-name="Layer 2"><g id="b2ad3aec-c27d-4512-b094-613f576dca07-i7" data-name="acoustic_guitar"><path d="M193.037,386.842c0-30.335,26.456-53.487,2.395-83.224-16.592-20.518-37.111-19.728-77.4-19.728s-60.814-.79-77.406,19.728c-24.061,29.737,2.395,52.889,2.395,83.224C43.016,402,1.5,432.475,1.5,484.789c0,76.615,48.65,96.272,116.527,96.272S234.553,561.4,234.553,484.789C234.553,432.475,193.037,402,193.037,386.842Z" fill="#ffce31"/><path d="M118.026,582.56c-38.575,0-65.45-6.252-84.578-19.677C10.941,547.087,0,521.542,0,484.789c0-34.486,18.114-60.069,30.1-77,6.378-9.008,11.416-16.124,11.416-20.949,0-10.488-3.278-20.221-6.448-29.633-6.006-17.833-11.68-34.678,4.388-54.534,16.438-20.329,36.958-20.312,74.252-20.287l4.318,0,4.32,0c37.278-.023,57.813-.042,74.252,20.287,16.067,19.856,10.393,36.7,4.387,54.534-3.17,9.412-6.448,19.145-6.448,29.633,0,4.825,5.038,11.941,11.416,20.949,11.986,16.929,30.1,42.512,30.1,77,0,36.753-10.941,62.3-33.448,78.094C183.477,576.308,156.6,582.56,118.026,582.56Zm-8.41-297.174c-34.842,0-52.865.671-67.828,19.176-15.03,18.574-9.613,34.66-3.877,51.69,3.247,9.641,6.6,19.611,6.6,30.59,0,5.78-5.02,12.87-11.968,22.682C20.078,427.137,3,451.258,3,484.789c0,35.7,10.523,60.445,32.171,75.639,18.6,13.053,44.927,19.132,82.855,19.132s64.257-6.079,82.855-19.132c21.649-15.194,32.172-39.936,32.172-75.639,0-33.531-17.078-57.652-29.548-75.265-6.948-9.812-11.968-16.9-11.968-22.682,0-10.979,3.358-20.949,6.6-30.59,5.735-17.03,11.153-33.116-3.876-51.69-15.538-19.215-34.363-19.192-71.918-19.174l-4.322,0-4.321,0Z" fill="#1a1a1a"/><circle cx="118.031" cy="386.844" r="38.091" fill="#1a1a1a"/><rect x="75.95" y="468.029" width="80.172" height="16.76" rx="8.38" fill="#1a1a1a"/><path d="M52.589,352.753a4,4,0,0,1-3.785-2.709c-4.228-12.389-3.93-23.008.884-31.564,6.923-12.3,20.616-15.44,21.195-15.568a4,4,0,0,1,1.735,7.81h0c-.109.024-10.875,2.571-15.995,11.748-3.613,6.476-3.7,14.884-.248,24.99a4,4,0,0,1-3.786,5.293Z" fill="#fff"/><path d="M31.843,533.681a3.994,3.994,0,0,1-3.493-2.045c-16.507-29.453-13.044-54.879-7.232-71.022A83.58,83.58,0,0,1,37.968,432.3a4,4,0,0,1,5.7,5.612,77.131,77.131,0,0,0-15.135,25.719c-7.5,21.106-5.211,42.67,6.8,64.092a4,4,0,0,1-3.486,5.956Z" fill="#fff"/><path d="M139.316,0H96.747a9.242,9.242,0,0,0-9.242,9.242v72.11a9.242,9.242,0,0,0,9.242,9.242h.534V327.582h41.5V90.594h.535a9.242,9.242,0,0,0,9.242-9.242V9.242A9.242,9.242,0,0,0,139.316,0ZM96.883,20.709a7.183,7.183,0,0,1,14.365,0V67a7.183,7.183,0,1,1-14.365,0ZM139.18,67a7.183,7.183,0,1,1-14.365,0V20.709a7.183,7.183,0,0,1,14.365,0Z" fill="#1a1a1a"/></g></g></svg></g></svg>