<svg xmlns="http://www.w3.org/2000/svg" version="1.1" viewBox="0 0 3000 2600" width="3000" height="2600">
<defs/><!--ITEM: Illustration component 1--><g transform="translate(2760.0 98.0) rotate(46.889736109206495 -1176.0 1113.0)  scale(-3.619519551869008 3.6225751855227184)"><svg width="649.81" height="614.48" viewBox="0.0 0.0 649.81 614.48"><path d="m34.82 117.86c-91.92 151.65 13.5 313.72 137.87 338.93 85 17.24 95.29 58.94 197.62 126.38 101.11 66.64 262 26.43 276.89-116s-34.46-271.27-144.76-373.44c-140.17-129.83-375.71-127.53-467.62 24.13z" fill="#fece2f"/></svg></g><!--ITEM: Illustration component 2--><g transform="translate(1808.0 2012.0) rotate(0.0 468.0 200.0)  scale(3.8693675072343945 3.875968992248062)"><svg width="241.9" height="103.2" viewBox="0.0 0.0 241.9 103.2"><path d="m1.1 62.4v34.6c0 2.9 2.3 5.2 5.2 5.2h229.4c2.9 0 5.2-2.3 5.2-5.2v-35.6" fill="#fff"/><path d="m1.1 94.8c-.6 0 0 2.3 0 2.3 0 2.9 2.3 5.2 5.2 5.2h229.4c2.9 0 5.2-2.3 5.2-5.2v-23.4s1.9 18.9-54.1 16.1c-54.6-2.7-60.8-15.5-90.2-12.7-29.3 2.8-26.2 18.9-95.5 17.7z" fill="#1a1a1a"/><path d="m240.4 58.4-23.6-48.6c-2.9-5.4-8.5-8.8-14.6-8.8h-5-131.1-20.3c-5.8 0-11.2 3-14.2 8l-30 49.7c-1.9 3.1.4 7.2 4.1 7.2l230.4-.6c3.6-.1 5.8-3.8 4.3-6.9z" fill="#fff"/><path d="m66.1 7h-7.5c-4.8 0-9.3 2.5-11.7 6.6l-24.9 41.3c-1.6 2.6.3 5.9 3.4 5.9l191.1-.5c2.9 0 4.8-3 3.5-5.6l-19.6-40.3c-1-1.9-2.5-3.6-4.2-4.8l-30.7-2.4" fill="#fece2f"/><g fill="#1a1a1a"><path d="m5.7 66.8c-2.1 0-3.9-1.1-5-2.9-1-1.8-1-4 .1-5.8l30-49.7c3.2-5.2 8.9-8.5 15-8.5h156.4c6.5 0 12.4 3.6 15.5 9.3l23.6 48.8c.9 1.8.8 3.8-.3 5.5-1 1.7-2.9 2.7-4.8 2.7zm40.1-64.8c-5.4 0-10.5 2.9-13.3 7.5l-30 49.7c-.7 1.2-.7 2.6-.1 3.8.7 1.2 1.9 1.9 3.2 1.9l230.4-.6c1.3 0 2.5-.7 3.1-1.8.7-1.1.8-2.4.2-3.6l-23.6-48.6c-2.7-5.1-7.9-8.2-13.7-8.2h-156.2z"/><path d="m235.7 103.2h-229.4c-3.4 0-6.2-2.8-6.2-6.2v-34.6c0-.6.4-1 1-1s1 .4 1 1v34.6c0 2.3 1.9 4.2 4.2 4.2h229.4c2.3 0 4.2-1.9 4.2-4.2v-35.6c0-.6.4-1 1-1s1 .4 1 1v35.6c-.1 3.4-2.8 6.2-6.2 6.2z"/></g></svg></g><!--ITEM: Illustration component 3--><g transform="translate(1384.0 350.0) rotate(-6.186995939925576 409.0 409.0)  scale(6.873371985547433 6.873371985547433)"><svg width="119.01" height="119.01" viewBox="0.0 0.0 119.01 119.01"><circle cx="59.5" cy="59.5" fill="#fff" r="59.5"/></svg></g><!--ITEM: Illustration component 4--><g transform="translate(212.0 744.0) rotate(-20.071893117123032 884.0 851.0) translate(0.0 0.0) scale(2.382842456106775 2.384825670924884)"><svg width="741.1316662895928" height="713.6789999999999" viewBox="0.0 0.0 741.1316662895928 713.6789999999999"><path d="m513.786 588.61s39.185-1.931 89.185-35.931 96-117 96-117l24-43 16-12s5-9-4-3-13 10-16 8 15-22 15-22 5-8-2-6c-2.135-2.625-1-7-6-3s-25 24-25 24 3-21-2-22c0 0-6 12-10 31-10 14-44 57-63 67s-30 9-45 0-21-17-21-17-22 23-26 35-18 46-19 66-1.185 49.931-1.185 49.931z" fill="#fece2f"/><path d="m204.971 561.679c1.943 11.01 36 47 68 59 31 8 53 14 97 0s95-72 95-72l22-22 23-26s54-73 66-77l20 7s9 1 2-4-18-9-18-9l29 3s13-4-1-7c0-2 7-4-2-9-12-2-31-4-31-4l20-14s7-7-4-3-23 9-23 9 6-13 0-17c-3 2-10 15-11 23-7 5-54 32-60 37s-42 30-60 38-33 12-44 11-30.915-.071-43.457-27.035c-18.543-.965-55.543.035-82.543 20.035s-60 66-62 84z" fill="#fece2f"/><path d="m459.971 320.679c-13 6-28 15-56 6s-47-43-47-43 32.977.823 40 5l19-59s-15-7-6-19 17 0 19 6 14-2 25-18 14-34 14-34 16 20 20 37c6 6 5 4 11 4s4.8 7.054 2 9-9-1-9-1 3 23-4 30-12 11-27 9-9 27-9 27l-6 25z" fill="#fece2f"/><path d="m645.351 439.77s9.9-7.831 14.971-4.837a6.265 6.265 0 0 0 8.338-1.889l14.188-21.282a6.186 6.186 0 0 0 .507-5.989c-.875-1.888-1.428-5.021 0-9.72 0-.046-32.016 40.032-38.004 43.717z" fill="#fff"/><path d="m450.813 480.078 35.748-24.415c5.159-3.87 10.226-2.81 12.069-.323 2.257 3.041 1.244 6.864-3.547 9.72l-14.649 9.72a5.336 5.336 0 0 0 -1.659 7.1 5.327 5.327 0 0 1 -3.5 7.877l-13.819 2.9a11.423 11.423 0 0 1 -12.254-5.482 5.357 5.357 0 0 1 1.611-7.097z" fill="#fff"/><path d="m651.616 448.937a5.143 5.143 0 0 0 4.33-.645c3.639-2.165 4.422-5.067 2.672-7.37-1.382-1.843-5.252-2.672-9.168.276a4.25 4.25 0 0 0 1.29 7.509z" fill="#fff"/><path d="m488.265 485.7a4.041 4.041 0 0 0 3.547-.553l.369-.23c3.639-2.165 4.422-5.067 2.671-7.371-1.381-1.842-5.251-2.672-9.167.277a4.25 4.25 0 0 0 1.29 7.509z" fill="#fff"/><path d="m535.575 467.87s-15.064 33.49-19.348 67.856c-4.284 34.411-2.441 52.884-2.441 52.884s-32.753 3.915-46.159-.691c0 0 17.459-40.723 19.21-61.176l16.215-16.814z" fill="#fff"/><path d="m459.75 319.169a13.337 13.337 0 0 1 -4.653 3.823c-9.9 4.331-22.2 8.2-33.167 7.74-15.018-.6-26.765-7.694-38.742-16.492-6.357-4.653-11.977-9.4-16.768-15.617a43.128 43.128 0 0 1 -7.232-13.5c-12.622-.415-27.87-.368-45.053.783-48.83 3.225-118.39 49.291-139.12 130.828s24.646 139.12 24.646 139.12c3.455-17.5 18.656-48.83 53.667-75.088s96.186-23.125 96.186-23.125c11.885 29.39 37.682 27.547 61.821 26.165s82.688-46.066 82.688-46.066l43.993-27.87c-8.153-14.231-60.07-70.985-78.266-90.701z" fill="#fff"/><path d="m310.588 445.851h-.553c-2.672-.046-9.075-.645-10.457-5.666-1.244-4.607 2.994-8.523 7.785-10.411.783-.323 1.613-.6 2.442-.876-.691-.046-1.382-.138-2.073-.23-1.705-.184-6.818-.783-8.338-4.7-1.29-3.316.967-6.91 3.823-8.752 4.423-2.81 9.951-2.9 14.373-2.948l29.62-.323a1.385 1.385 0 0 1 1.382 1.382 1.357 1.357 0 0 1 -1.382 1.382l-29.62.323c-4.1.046-9.167.092-12.9 2.487-1.888 1.2-3.5 3.547-2.764 5.436.6 1.566 2.626 2.534 6.081 2.948a105.424 105.424 0 0 0 13.221.645c1.336-.092 2.718-.138 4.054-.138a1.384 1.384 0 0 1 .092 2.764c-1.336.092-2.626.138-3.962.138a46.7 46.7 0 0 0 -13.036 2.994c-3.5 1.382-6.956 4.238-6.127 7.141.921 3.316 6.219 3.639 7.831 3.639a103.675 103.675 0 0 0 13.083-.967c7.186-.83 14.6-1.7 21.835-.047a1.392 1.392 0 1 1 -.6 2.718c-6.772-1.52-13.636-.737-20.915.092a118.724 118.724 0 0 1 -12.895.969z" fill="#fece2f"/><path d="m399.265 486.942a1.3 1.3 0 0 1 -.691-.184 22.071 22.071 0 0 1 -9.9-14.65c-1.059-5.251-.6-11.147 1.336-17.5 1.566-5.113 3.916-8.153 7.14-9.305 3.962-1.428 8.016.461 10.78 2.3a30.246 30.246 0 0 1 10.549 12.53 98.6 98.6 0 0 1 5.85-13.359c.968-1.843 2.165-3.869 4.238-4.975 2.58-1.382 7.187-1.336 11.655 3.455a24.574 24.574 0 0 1 1.7 2.027 6.621 6.621 0 0 1 4.7-3.455 9.672 9.672 0 0 1 8.891 2.718c3.363 3.639 3.916 8.706 4.238 14a1.391 1.391 0 0 1 -1.29 1.474 1.42 1.42 0 0 1 -1.474-1.29c-.276-4.791-.737-9.305-3.5-12.3a7.081 7.081 0 0 0 -6.311-1.888 3.709 3.709 0 0 0 -2.948 2.4 4 4 0 0 0 -.185 1.659 26.448 26.448 0 0 1 2.857 8.291 8.619 8.619 0 0 1 .322 3.087 1.369 1.369 0 0 1 -1.382 1.29 1.409 1.409 0 0 1 -1.382-1.336 22.066 22.066 0 0 0 -.276-2.442 20.124 20.124 0 0 0 -1.244-3.224 18.366 18.366 0 0 1 -1.612-4.791 25.627 25.627 0 0 0 -3.087-4.238c-2.3-2.442-5.758-4.331-8.338-2.9a8.458 8.458 0 0 0 -3.086 3.869 95.039 95.039 0 0 0 -6.864 16.63 1.381 1.381 0 0 1 -1.336.967 1.441 1.441 0 0 1 -1.336-.967 27.668 27.668 0 0 0 -10.874-14.835c-1.8-1.2-5.251-3.087-8.291-2.027-2.35.829-4.1 3.317-5.436 7.509a32.535 32.535 0 0 0 -1.29 16.123 19.414 19.414 0 0 0 8.568 12.852 1.411 1.411 0 0 1 .507 1.889 1.529 1.529 0 0 1 -1.198.596z" fill="#fece2f"/><path d="m477.3 413.973a38.073 38.073 0 0 1 -8.522-.967c-4.054-.922-6.587-2.672-7.509-5.252-1.059-2.9.415-5.988 2.35-7.831a101.666 101.666 0 0 1 -29.391-1.612 9.887 9.887 0 0 1 -5.343-2.4c-2.442-2.533-1.935-6.541-.231-9.029 1.751-2.533 4.515-3.915 6.956-4.929a8.321 8.321 0 0 1 .968-.368c-2.626-.046-5.3-.093-7.924-.185-7.6-.322-10.226-3.915-10.18-6.864a8.108 8.108 0 0 1 2.3-4.929c8.292-9.812 20.684-14.1 32.615-18.288 5.113-1.8 10.411-3.639 15.294-5.9a1.391 1.391 0 0 1 1.152 2.533c-4.976 2.3-10.365 4.192-15.525 5.989-12.161 4.238-23.632 8.246-31.417 17.459a5.477 5.477 0 0 0 -1.658 3.225c0 .414-.046 1.75 2.165 2.856a13.853 13.853 0 0 0 5.344 1.2c5.988.231 12.069.277 18.1.139a50.006 50.006 0 0 1 12.023-.553 1.385 1.385 0 0 1 0 2.764q-5.874.414-11.747.553a46.062 46.062 0 0 0 -10.457 3.04c-2.073.875-4.422 2.027-5.758 3.962-1.106 1.566-1.428 4.1-.092 5.482a7.783 7.783 0 0 0 3.869 1.612 99.932 99.932 0 0 0 36.07.6 1.385 1.385 0 0 1 .691 2.671 16.845 16.845 0 0 0 -5.943 3c-1.289 1.151-2.349 3.178-1.7 4.975.6 1.612 2.441 2.81 5.528 3.5a35.907 35.907 0 0 0 18.979-.875 1.384 1.384 0 1 1 .875 2.626 41.532 41.532 0 0 1 -11.882 1.796z" fill="#fece2f"/><path d="m169.579 432.86a1.42 1.42 0 0 1 -1.381-1.151 1.4 1.4 0 0 1 1.1-1.613l30.818-5.343c3.409-.6 7.279-1.244 10.043-3.5 2.4-1.935 3.777-5.805 1.935-8.246-1.428-1.889-4.285-2.4-7.095-2.764-1.566-.185-3.132-.415-4.744-.553a144.905 144.905 0 0 1 -17.874 1.7 1.34 1.34 0 0 1 -1.381-1.056 1.394 1.394 0 0 1 .783-1.566c5.85-2.534 12.438-2.442 18.38-1.843 3.5-.553 6.956-1.244 10.411-2.073 3.317-.783 7.095-1.843 9.674-4.284 2.211-2.119 3.455-5.943 1.613-8.522-1.336-1.843-3.87-2.626-6.173-3.087a54.043 54.043 0 0 0 -39.341 6.818 1.374 1.374 0 0 1 -1.428-2.349 57.148 57.148 0 0 1 41.368-7.187c2.671.553 5.942 1.567 7.831 4.192 2.718 3.824 1.151 9.167-1.935 12.116-3.04 2.9-7.232 4.1-10.918 4.975l-2.487.553a9.28 9.28 0 0 1 5.574 3.27c2.856 3.732 1.059 9.26-2.35 12.024-3.316 2.717-7.739 3.455-11.286 4.1l-30.816 5.343a.9.9 0 0 1 -.321.046z" fill="#fece2f"/><path d="m349.7 366.709c-4.468 0-8.568-2.027-10.641-5.343a13.23 13.23 0 0 1 -.783-11.287 18.881 18.881 0 0 1 2.349-4.606 110.289 110.289 0 0 1 -16.86 4.975c-2.81.553-6.035 1.105-9.259.368-3.686-.875-6.5-3.455-7.187-6.587-.737-3.317.829-6.956 4.515-10.457a39.075 39.075 0 0 1 10.319-6.956c-.968-.092-1.981-.23-2.949-.415a7.691 7.691 0 0 1 -3.409-1.243 6.552 6.552 0 0 1 -1.612-8.016c1.2-2.534 3.593-4.146 5.482-5.3 9.812-5.85 21.6-7.232 32.016-8.476a1.369 1.369 0 1 1 .322 2.718c-10.134 1.2-21.651 2.58-30.956 8.108a10.884 10.884 0 0 0 -4.422 4.146c-.691 1.428-.645 3.593.691 4.56a5.464 5.464 0 0 0 2.3.783 37.03 37.03 0 0 0 12.346.139h.138a1.374 1.374 0 1 1 .414 2.717.167.167 0 0 0 -.138.047 35.6 35.6 0 0 0 -18.7 9.213c-2.073 1.935-4.376 4.883-3.731 7.877.507 2.4 2.948 3.962 5.113 4.469a18.958 18.958 0 0 0 8.062-.415 102.1 102.1 0 0 0 23.309-7.831 17.36 17.36 0 0 1 2.949-1.428 1.339 1.339 0 0 1 1.75.737 1.409 1.409 0 0 1 -.645 1.8l-2.764 1.382a16.481 16.481 0 0 0 -6.958 8.612 10.6 10.6 0 0 0 .507 8.936c1.843 2.949 5.989 4.561 10.089 3.916 3.362-.507 6.817-2.257 10.871-5.528a60.121 60.121 0 0 0 18.7-26.626 1.37 1.37 0 0 1 2.58.921 62.687 62.687 0 0 1 -19.578 27.87c-2.81 2.257-7.095 5.344-12.208 6.127-.55.047-1.287.093-2.022.093z" fill="#fece2f"/><ellipse cx="472.063" cy="202.629" fill="#fff" rx="10.273" ry="4.561" transform="matrix(.99187669 -.1272031 .1272031 .99187669 -21.939 61.691)"/><path d="m465.647 223.259 12.806 13.129s-7.463 3.916-12.668-1.382-.138-11.747-.138-11.747z" fill="#fff"/><path d="m472.6 239.152a10.653 10.653 0 0 1 -7.832-3.179c-4.791-4.883-2.211-11.009-.23-13.589a1.224 1.224 0 0 1 1.013-.507 1.3 1.3 0 0 1 1.06.415l12.806 13.129a1.278 1.278 0 0 1 .369 1.2 1.487 1.487 0 0 1 -.737 1.014 14.755 14.755 0 0 1 -6.449 1.517zm-6.726-13.682c-1.014 1.935-2.119 5.482.875 8.569a8.121 8.121 0 0 0 7.048 2.3 13.166 13.166 0 0 0 2.211-.461z" fill="#1a1a1a"/><ellipse cx="529.725" cy="435.256" fill="#fff" rx="12.53" ry="12.668"/><g fill="#1a1a1a"><circle cx="529.725" cy="435.256" r="3.086"/><path d="m529.725 439.724a4.469 4.469 0 1 1 4.468-4.468 4.5 4.5 0 0 1 -4.468 4.468zm0-6.219a1.731 1.731 0 0 0 -1.705 1.7 1.7 1.7 0 0 0 1.705 1.7 1.7 1.7 0 0 0 0-3.409z"/><path d="m529.909 433.321a1.424 1.424 0 0 1 -1.382-1.428l.184-4.929a1.357 1.357 0 0 1 1.428-1.336 1.417 1.417 0 0 1 1.336 1.428l-.184 4.929a1.409 1.409 0 0 1 -1.382 1.336z"/><path d="m390.743 676.412a1.375 1.375 0 0 1 -.829-.277 642.351 642.351 0 0 1 -52.654-46.526 1.369 1.369 0 1 1 1.889-1.981 644.927 644.927 0 0 0 52.423 46.342 1.386 1.386 0 0 1 .231 1.935 1.31 1.31 0 0 1 -1.06.507z"/><path d="m171.929 433.09c-52.929-72.876-88.309-133.776-71.909-145.661 31.693-22.941 104.524 66.52 104.524 66.52s-18.657 28.561-22.112 37.267c-4.008 9.997-10.503 41.874-10.503 41.874z"/><path d="m171.929 434.472a1.315 1.315 0 0 1 -1.106-.552c-24.645-33.905-43.67-62.742-56.523-85.637-14.511-25.843-21.052-44.132-19.44-54.22a11.289 11.289 0 0 1 4.376-7.739c7.647-5.528 18.1-5.344 31.095.553 10.089 4.606 21.789 12.76 34.78 24.138 22.02 19.348 40.354 41.828 40.538 42.013a1.383 1.383 0 0 1 .092 1.612c-.184.276-18.61 28.561-22.019 37.037-3.916 9.812-10.365 41.321-10.411 41.644a1.27 1.27 0 0 1 -1.06 1.059.5.5 0 0 1 -.322.092zm-59.7-149.392a18.721 18.721 0 0 0 -11.378 3.5 8.738 8.738 0 0 0 -3.271 5.943c-1.981 12.576 9.213 46.25 73.66 135.25 1.75-8.292 6.587-30.772 9.9-39.064 3.179-7.97 18.519-31.74 21.7-36.669a402.9 402.9 0 0 0 -39.617-40.953c-15.571-13.68-35.564-28.007-50.996-28.007z"/><path d="m284.883 663.191a.783.783 0 0 1 -.322-.046 205.268 205.268 0 0 1 -76.516-37.176 255.17 255.17 0 0 1 -50.719-52.745c-25.613-35.241-36.715-67.3-36.807-67.625a1.384 1.384 0 1 1 2.626-.876c.092.323 11.1 32.062 36.484 66.981a254.2 254.2 0 0 0 50.171 52.146 202.707 202.707 0 0 0 75.457 36.623 1.373 1.373 0 0 1 1.013 1.658 1.509 1.509 0 0 1 -1.387 1.06z"/><path d="m632.222 569.677a1.375 1.375 0 0 1 -1.106-.553 1.393 1.393 0 0 1 .276-1.935c27.41-20.315 46.573-50.35 57.86-71.955a276.863 276.863 0 0 0 18.1-42.473 1.37 1.37 0 1 1 2.625.783 281.888 281.888 0 0 1 -18.288 42.98c-11.424 21.881-30.864 52.285-58.688 72.922a1.558 1.558 0 0 1 -.779.231z"/><path d="m464.863 208.057a17.641 17.641 0 0 0 4.883.645 22.555 22.555 0 0 0 3.041-.23c.138 0 .322-.046.46-.046h.185a.583.583 0 0 0 .276-.046 11.239 11.239 0 0 0 1.428-.323c4.422-1.013 7.555-3.132 8.292-5.527v-.047a.583.583 0 0 0 .046-.276 6.247 6.247 0 0 0 .092-.921 3.49 3.49 0 0 0 -1.8-2.856c-1.751-1.29-4.7-1.981-8.2-1.889a21.923 21.923 0 0 0 -2.35.184 19.725 19.725 0 0 0 -7.554 2.442c-2.3 1.382-3.455 3.132-3.225 4.929s1.847 3.178 4.426 3.961zm.277-6.495a17.018 17.018 0 0 1 6.265-2.027 10.589 10.589 0 0 0 0 6.357 16.426 16.426 0 0 1 -5.8-.46c-1.381-.415-2.3-1.06-2.4-1.659-.046-.599.695-1.473 1.935-2.211z"/><path d="m422.713 219.344-5.482-5.9a6.945 6.945 0 0 1 1.981-1.336 1.374 1.374 0 0 0 .783-1.8 1.414 1.414 0 0 0 -1.8-.783c-2.579 1.013-7.14 4.883-5.666 12.161a1.34 1.34 0 0 0 1.336 1.106.345.345 0 0 0 .23-.046 1.366 1.366 0 0 0 1.106-1.613 8.7 8.7 0 0 1 .415-5.39l5.067 5.436a1.3 1.3 0 0 0 1.013.461 1.462 1.462 0 0 0 .922-.369 1.336 1.336 0 0 0 .095-1.927z"/><path d="m47.688 217.086a1.654 1.654 0 0 1 -.506-.092c-22.482-9.075-34.089-22.572-39.894-32.294-6.311-10.593-7.232-18.931-7.278-19.3a1.388 1.388 0 0 1 1.244-1.52 1.363 1.363 0 0 1 1.52 1.244c0 .092.921 8.2 6.956 18.334 5.574 9.305 16.768 22.25 38.465 31a1.354 1.354 0 0 1 -.507 2.625z"/><path d="m387.242 109.015a1.648 1.648 0 0 1 -.461-.092c-13.221-4.7-22.157-19.025-22.526-19.624a1.374 1.374 0 1 1 2.349-1.428c.092.138 8.8 14.1 21.1 18.472a1.349 1.349 0 0 1 .829 1.751 1.385 1.385 0 0 1 -1.291.921z"/><path d="m50.959 19.647a1.252 1.252 0 0 1 -.967-.415 1.335 1.335 0 0 1 .046-1.934c.553-.553 13.774-13.221 35.747-17.275a1.4 1.4 0 0 1 1.615 1.105 1.4 1.4 0 0 1 -1.105 1.613 71.467 71.467 0 0 0 -34.276 16.537 2.094 2.094 0 0 1 -1.06.369z"/></g><path d="m462.007 163.834a1.383 1.383 0 0 1 -1.336-.967c-6.08-20.5-38.972-22.481-39.294-22.527a1.385 1.385 0 0 1 .184-2.764 74.978 74.978 0 0 1 18.242 3.686c12.669 4.284 20.776 11.47 23.586 20.775a1.332 1.332 0 0 1 -.921 1.7.911.911 0 0 1 -.461.097z" fill="#fece2f"/><path d="m33.869 159.734a1.326 1.326 0 0 1 -1.29-.967c-5.252-15.939-7.417-31.464-6.449-46.2a97.8 97.8 0 0 1 8.291-33.587c8.062-17.874 18.841-27.041 19.3-27.455a1.374 1.374 0 1 1 1.751 2.119 57.319 57.319 0 0 0 -6.357 6.725 88.057 88.057 0 0 0 -12.252 19.855 94.252 94.252 0 0 0 -8.016 32.569c-.921 14.326 1.2 29.482 6.312 45.052a1.375 1.375 0 0 1 -.876 1.751c-.092.138-.276.138-.414.138z" fill="#fece2f"/><path d="m376.186 242.146h-.368c-23.54-.184-42.381-11.562-60.623-22.526-26.857-16.169-54.589-32.937-99.227-16.676a1.316 1.316 0 0 1 -1.75-.829 1.351 1.351 0 0 1 .829-1.751c45.836-16.676 74.166.415 101.576 16.907 18.749 11.286 36.438 21.973 59.195 22.157h.322c18.887 0 27.778-12.944 27.87-13.036a1.392 1.392 0 1 1 2.3 1.566c-.365.507-9.717 14.188-30.124 14.188z" fill="#fece2f"/><path d="m716.016 391.309-10.5-2.626a10.567 10.567 0 0 0 .276-4.1 1.375 1.375 0 1 0 -2.718.414 8.633 8.633 0 0 1 -1.612 5.943c-1.566 2.027-4.192 3.271-7.785 3.685a1.388 1.388 0 0 0 .184 2.764h.139c4.377-.506 7.647-2.119 9.674-4.791a7.958 7.958 0 0 0 .829-1.336l10.872 2.718a.785.785 0 0 0 .323.046 1.411 1.411 0 0 0 1.335-1.059 1.372 1.372 0 0 0 -1.017-1.658z" fill="#1a1a1a"/><path d="m741.721 376.107a2.578 2.578 0 0 0 -1.566-1.382c-2.119-.645-5.436 1.474-10.688 4.975-2.579 1.7-7.739 5.159-9.3 5.067.322-1.658 4.284-6.449 6.91-9.674 6.449-7.877 10.6-13.313 9.766-16.86a3.085 3.085 0 0 0 -2.027-2.488 3.731 3.731 0 0 0 -2.349.093 3.3 3.3 0 0 0 .092-.922 2.651 2.651 0 0 0 -.783-1.842c-3.271-3.041-7.463 1.013-15.11 8.43-1.566 1.52-3.317 3.27-5.252 5.067-2.027 1.889-6.219 5.943-8.937 8.568 1.521-9.213 1.106-15.524-1.2-18.38a3.759 3.759 0 0 0 -2.948-1.566c-1.843 0-2.534 1.8-6.127 15.8-1.613 6.265-3.271 12.807-4.7 16.216-1.428 3.5-13.636 20.177-29.252 36.9-11.056 11.839-31.924 32.2-47.126 35.517-8.292 1.8-17 .552-25.8-3.778-7.6-3.685-15.478-9.766-23.447-18.012 11.378-12.391 14.326-12.806 14.879-12.76 1.981.276 5.252 1.843 8.43 3.317 6.449 3.04 13.175 6.173 15.985 2.718a2.657 2.657 0 0 0 .507-2.534c-.783-2.81-6.818-5.942-12.53-8.292 6.679.553 14.6 1.2 16.491 1.336.922.092 1.751.138 2.534.138 3.04 0 5.16-.645 6.219-2.027a3.607 3.607 0 0 0 .875-3.132 1.809 1.809 0 0 0 -.368-.645 14.319 14.319 0 0 0 -4.975-3.04 4.737 4.737 0 0 0 1.382-1.475 4.287 4.287 0 0 0 -.369-4.145c-2.948-5.252-22.2-7.187-31.6-7.832 2.257-1.428 5.251-3.363 8.153-5.389 11.7-8.016 12.07-9.766 11.287-11.195a3.239 3.239 0 0 0 -2.212-1.612c-3.639-.875-12.484 2.3-26.349 9.352 2.764-9.122 2.257-14.557-1.521-16.216a2.067 2.067 0 0 0 -1.75 0c-1.29.553-3.409 2.58-8.062 13.5-2.073 4.929-3.869 9.72-4.422 11.24-2.58 1.428-5.206 2.948-8.016 4.56-2.625 1.521-5.3 3.087-7.877 4.653-4.607-6.68-11.609-15.524-19.624-25.06a.962.962 0 0 0 -.276-.461c-.277-.322-1.428-1.612-3.179-3.639-9.858-11.608-20.776-23.862-30.219-34.319-18.012-19.9-34.274-37.129-37.821-40.861-.046-.046-.092-.138-.138-.184l10.273-42.2 1.75-7.048a36.681 36.681 0 0 0 5.9.461 33.217 33.217 0 0 0 17.5-4.883c9.351-5.8 12.806-17.689 10.135-34.365a8.68 8.68 0 0 0 3.915.967 6.093 6.093 0 0 0 1.382-.138 8.56 8.56 0 0 0 5.851-4.054 5.6 5.6 0 0 0 -.507-5.666c-.783-1.106-2.718-2.81-6.68-2.073a6.757 6.757 0 0 1 -7.693-4.008c0-.092-.046-.184-.046-.322-4.376-13.267-11.424-26.673-18.887-36.07a35.776 35.776 0 0 0 -.645-6.726c-1.935-9.72-9.213-21.835-32.983-24.277-53.529-5.528-74.167-36.392-87.756-56.845q-1.521-2.211-2.9-4.284c-13.59-19.9-36.3-53.207-109.96-48.508-30.542 1.935-46.573-5.528-62.143-12.714-10.41-4.837-20.269-9.444-33.674-10.642-14.971-1.335-32.246 1.7-54.4 9.628a128.527 128.527 0 0 0 -55.698 38.788 124.008 124.008 0 0 0 -26.58 56.016 104.607 104.607 0 0 0 1.843 48.231 82.82 82.82 0 0 0 25.2 39.893c19.808 17.275 43.578 26.81 72.6 29.16 25.521 2.073 51.64-1.474 76.93-4.929 11.839-1.613 22.987-3.133 33.951-4.1 33.859-2.9 53.483 7.739 74.3 19.025 15.294 8.292 31.141 16.906 53.851 21.513a105.742 105.742 0 0 0 21.1 2.211c17.229 0 29.667-4.837 37.729-9.674a58.877 58.877 0 0 0 12.714-10l-16.906 50.673a252.909 252.909 0 0 0 -51.917-4.331 222.141 222.141 0 0 0 -48.922 6.127c-18.933 4.7-35.794 12.069-50.12 21.928-31.97 22.019-57.352 57.444-69.56 97.2a177.385 177.385 0 0 0 -7.693 63.664 165.809 165.809 0 0 0 18.1 65.46c10.549 20.5 22.987 38.05 36.991 52.146a146.062 146.062 0 0 0 42.98 30.266 128.659 128.659 0 0 0 53.575 11.608 134.736 134.736 0 0 0 18.2-1.243l32.753 30.588a1.265 1.265 0 0 0 .691.368 12.276 12.276 0 0 0 1.428.092c3.869 0 14.925-1.934 24.277-21.7 6.4-13.543 12.3-14.1 19.071-14.787 4.561-.461 9.674-.967 15.248-5.3 7.739-5.988 6.219-14.1 4.975-20.637-1.2-6.4-1.7-10.457 2.718-12.807 11.424-6.034 28.7-15.156 30.173-38.511 5.436-5.344 10.6-10.641 15.386-15.755 0 .231-.046.415-.046.645-.644 2.718-1.335 5.436-2.026 8.154-1.475 5.62-3.087 11.1-4.883 16.492-1.751 5.067-3.594 10.134-5.3 14.649a225.758 225.758 0 0 1 -30.4 54.542 196.531 196.531 0 0 1 -52.239 47.725 1.007 1.007 0 0 0 -.46.414 1.266 1.266 0 0 0 -.553 1.014 1.483 1.483 0 0 0 .553 1.2c32.154 25.014 57.767 37.59 76.515 37.59a30.9 30.9 0 0 0 18.749-5.712c4.008-2.994 6.357-7.509 6.956-13.451 1.843-18.611-14.326-50.673-39.34-78.267a225.761 225.761 0 0 0 14.879-25.935 174.84 174.84 0 0 0 21.974 1.336 190.134 190.134 0 0 0 42.657-4.975c29.344-6.956 57.26-20.914 82.873-41.6 48.554-39.2 90.105-116.916 103.787-142.436 2.211-4.1 3.962-7.371 4.376-7.878 1.014-1.336 3.916-3.455 7-5.666 8.155-5.842 12.946-9.619 11.518-12.982zm-173.854.967c2.119 1.382 1.705 7.094-1.151 15.34-2.672 1.382-5.528 2.948-8.523 4.607 4.285-11.287 8.154-18.795 9.674-19.947zm-20.038 29.026c26.073-15.11 43.624-23.218 48.093-22.112h.046c-1.935 2.442-12.346 9.674-21.7 15.432a1.356 1.356 0 0 0 -.461 1.889 1.393 1.393 0 0 0 .875.645.684.684 0 0 0 .323.046c.092 0 7.877.368 15.984 1.428 14.281 1.889 17.045 4.33 17.6 5.251.276.461.553 1.106.322 1.521a3.83 3.83 0 0 1 -2.487 1.151 2.654 2.654 0 0 0 -.645.231c-11.517-2.995-28.285-2.534-29.206-2.488a1.357 1.357 0 0 0 -1.336 1.428 1.417 1.417 0 0 0 1.428 1.336c8.015-.23 29.759.322 35.885 5.666a.943.943 0 0 1 -.23.415c-.369.414-1.751 1.382-6.449.921-3.317-.368-25.521-2.073-26.442-2.165a1.388 1.388 0 0 0 -1.474 1.29 1.907 1.907 0 0 0 .23.875 1.269 1.269 0 0 0 .737.553c.092 0 5.206 1.7 10.319 3.916 8.983 3.869 9.766 5.758 9.812 5.988-1.428 1.8-8.2-1.382-12.668-3.5-3.5-1.612-6.818-3.178-9.213-3.547-2.4-.322-7.141 1.751-22.941 19.855a41.535 41.535 0 0 1 -10.642-6.68v-.23a14.006 14.006 0 0 0 -10.549-13.636 32.3 32.3 0 0 1 -2.165-5.482c5.525-3.276 11.195-6.685 16.954-9.997zm-6.956 29.16a11.149 11.149 0 1 1 -22.3 0 10.947 10.947 0 0 1 .414-2.995 1.516 1.516 0 0 0 .277-.875 11.121 11.121 0 0 1 21.605 3.87zm-53.944-68.915a3.051 3.051 0 0 1 2.119-1.2c4.883-.461 19.21 11.424 27.317 19.256 8.2 9.72 15.248 18.61 19.9 25.29-16.768 10.042-32.062 19.854-41 25.889a277.541 277.541 0 0 0 -10.135-54.727c-.412-3.318-.73-11.38 1.799-14.512zm-90.981-76.845-1.289 3.824a1.373 1.373 0 0 0 .875 1.75.684.684 0 0 0 .414.092 1.367 1.367 0 0 0 1.29-.967l21.467-64.262a1.375 1.375 0 0 0 -.875-1.751 1.016 1.016 0 0 0 -.369-.046c-3.777-.6-6.357-2.487-7.416-5.482-1.336-3.639-.231-8.614 2.625-11.839 1.106-1.243 3.409-3.27 6.4-2.579 5.389 1.2 7.278 5.712 7.877 9.259a4.793 4.793 0 0 0 2.626 3.5 4.644 4.644 0 0 0 4.33-.092c10.5-5.712 20.545-15.847 27.5-27.778 4.883-8.384 7.786-16.768 8.569-24.461a124.911 124.911 0 0 1 16.353 32.384c0 .092.046.185.046.323a9.572 9.572 0 0 0 10.964 6.173c1.889-.369 3.225-.046 3.962.967a2.8 2.8 0 0 1 .276 2.718 5.87 5.87 0 0 1 -3.916 2.672c-1.888.368-3.777-.323-5.712-1.981a1.341 1.341 0 0 0 -1.935.138 1.229 1.229 0 0 0 -.322.645 1.656 1.656 0 0 0 -.092.829c4.192 21.421-2.211 30.4-8.338 34.227-18.058 11.194-37.452-1.98-37.636-2.119a1.349 1.349 0 0 0 -1.935.323 1.381 1.381 0 0 0 .046 1.7 57.876 57.876 0 0 1 7.785 35.149v.046l-5.113 20.96v.046c0 .092-.046.138-.046.23v.092a.585.585 0 0 0 .046.277v.046a1.691 1.691 0 0 0 .323.645l.322.322a147.2 147.2 0 0 1 10.83 15.62c-15.8 8.706-31.509 10.963-46.618 6.587-27.364-7.877-45.191-35.1-49.429-42.2a241.287 241.287 0 0 1 36.115 4.013zm-39.34-4.146a115.256 115.256 0 0 0 13.543 18.846c8.108 9.26 21.375 21.329 38.374 26.212a57.888 57.888 0 0 0 16.031 2.3c10.779 0 21.743-3.04 32.8-9.259 1.566 2.626 3.224 5.528 4.929 8.707a62.5 62.5 0 0 1 -19.578 8.245c-11.471 2.764-29.621 3.962-51.088-6.172-20.177-9.49-31.739-22.665-37.912-32.062a69.171 69.171 0 0 1 -8.2-16.861c3.869-.046 7.554-.046 11.101.046zm-167.45 250.28a162.756 162.756 0 0 1 -17.782-64.355 175.13 175.13 0 0 1 7.6-62.7c10.549-34.365 31.049-65.368 57.168-87.157 8.568 12.576.967 44.869 13.958 43.348 14.281-1.7.875-22.111 9.9-52.607.922-3.455 3.778-6.864 4.883-9.444a159.147 159.147 0 0 1 31.694-11.378 216.689 216.689 0 0 1 46.112-5.989 70.5 70.5 0 0 0 8.709 18.248c6.311 9.72 18.288 23.355 39.11 33.167a83.913 83.913 0 0 0 35.839 8.384 67.23 67.23 0 0 0 17.183-2.119 63.443 63.443 0 0 0 20.085-8.384c.875 1.7 1.8 3.455 2.671 5.252a259.146 259.146 0 0 1 16.032 41.367 2.381 2.381 0 0 1 .092.507 1.664 1.664 0 0 0 .184.507 275.208 275.208 0 0 1 10 55.141c-.645.414-1.244.829-1.75 1.2-1.981 1.382-4.284 3.041-6.726 4.791-11.839 8.523-29.759 21.375-49.2 30.22-14.925 6.771-28.607 10.18-40.86 10.18a56.537 56.537 0 0 1 -18.519-2.948c-17.136-5.9-26.58-19.578-28.008-40.63a98.838 98.838 0 0 1 3.132-30.45 1.37 1.37 0 0 0 -2.625-.785 98.913 98.913 0 0 0 -3.225 31.325 63.017 63.017 0 0 0 2.948 15.708 194.825 194.825 0 0 0 -36.9 1.889c-19.716 2.856-47.4 10.135-67.671 28.7-28.561 26.166-41.091 57.9-44.131 66.566-3.454-5.577-6.771-11.427-9.903-17.554zm247.928 37.59c-4.469 3.731-9.26 7.647-14.281 11.562-20.684 16.077-39.663 27.778-56.155 34.826a100.2 100.2 0 0 1 -11.194 3.778c-29.9 8.107-60.254 5.85-87.664-6.588a143.5 143.5 0 0 1 -42.15-29.712 180.719 180.719 0 0 1 -18.288-21.606 103.4 103.4 0 0 1 7.278-20.038c5.39-11.563 15.617-29.667 33.813-49.982 18.058-20.177 44.407-29.022 63.3-32.937a174.742 174.742 0 0 1 37.037-3.64 42.174 42.174 0 0 0 8.8 13.866c-10.5 10.964-42.2 9.214-39.985 22.158 2.994 13.175 20.269 5.62 50.442-4.376a82.62 82.62 0 0 1 24.369-4.008c.6 0 1.152.046 1.751.046 12.622 0 26.718-3.5 41.92-10.457 19.716-8.983 37.728-21.927 49.659-30.5 2.442-1.75 4.7-3.362 6.68-4.744 4.422-3.041 12.3-8.292 22.02-14.465.414 1.2 1.013 2.948 1.888 5.021a14.761 14.761 0 0 0 -.506 3.824 14.067 14.067 0 0 0 12.714 14 28.388 28.388 0 0 0 13.912 7c-11.885 14.649-23.54 30.219-30.173 39.11-12.814 17.285-42.158 49.715-75.187 77.862zm58.411-2.258c-9.029-7.14-8.568-27.363-7.739-37.4.138-.737.231-1.382.369-2.073.322-1.474.691-2.948 1.013-4.376a379.108 379.108 0 0 0 25.429-30.036c4.284-5.758 10.641-14.326 17.873-23.632a211.049 211.049 0 0 0 -8.522 21.928 252.261 252.261 0 0 0 -11.977 76.285c-6.956 2.667-12.484 2.438-16.443-.696zm240.972-190.207a88.272 88.272 0 0 1 -7.923 6.173c-3.363 2.442-6.265 4.561-7.555 6.173-.553.691-1.75 2.9-4.652 8.292-13.59 25.382-54.957 102.728-103.1 141.561-25.336 20.408-52.837 34.227-81.767 41.045-5.436 1.29-10.918 2.3-16.353 3.087l-.415-11.287a250.249 250.249 0 0 1 11.747-79.464c7-21.559 14.649-33.766 14.741-33.9a1.4 1.4 0 0 0 .184-.369c3.686-4.607 7.417-9.167 11.056-13.5 2.856-3.363 5.344-6.265 7.6-8.707a97.333 97.333 0 0 0 18.887 15.524c-11.655 4.285-27.317 5.436-25.889 14.1 2.626 11.516 17.736 4.883 44.131-3.824a67.509 67.509 0 0 1 11.939-2.763 5.352 5.352 0 0 1 -.6-.046c1.1-.138 2.165-.322 3.224-.553 15.156-3.27 34.78-21.559 48.554-36.346 15.34-16.445 28.1-33.582 29.805-37.728 1.474-3.639 3.178-10.227 4.791-16.63 1.336-5.2 2.948-11.562 3.869-13.5a2.779 2.779 0 0 1 .369.368c.967 1.244 2.994 5.851-.323 21.283a1.392 1.392 0 0 0 2.718.6c.046-.231.092-.415.139-.6a.827.827 0 0 0 .322-.231c.046-.092 8.292-8.061 11.332-10.917 1.935-1.8 3.732-3.547 5.3-5.068 5.251-5.067 9.766-9.443 11.24-8.476 0 .323-.276 1.8-3.639 6.127a204.778 204.778 0 0 1 -14.235 15.939 1.369 1.369 0 1 0 1.981 1.889c6.772-7.048 13.175-14.051 16.4-18.98a1.756 1.756 0 0 0 .6-.276c.921-.783 2.441-1.566 2.948-1.382.046 0 .138.138.23.461.6 2.533-5.3 9.72-9.213 14.51-5.067 6.173-7.877 9.767-7.555 12.07a2.2 2.2 0 0 0 .967 1.566c2.442 1.612 6.358-.829 12.623-5.021 2.533-1.7 6.771-4.515 8.153-4.607-.051.367-.419 1.38-2.631 3.407z" fill="#1a1a1a"/><path d="m442.567 625.785a227.286 227.286 0 0 0 30.4-54.542c1.7-4.515 3.547-9.582 5.3-14.649 1.75-5.39 3.409-10.872 4.883-16.492.691-2.718 1.382-5.436 2.027-8.154 0-.23.046-.46.046-.645-4.791 5.114-9.951 10.365-15.386 15.755-1.475 23.356-18.749 32.477-30.174 38.511-4.422 2.35-3.915 6.4-2.718 12.807 1.244 6.541 2.764 14.649-4.975 20.637-5.574 4.331-10.687 4.837-15.248 5.3-6.771.691-12.668 1.244-19.071 14.787-8.108 17.183-17.551 20.868-22.388 21.559 5.3 4.515 10.5 8.753 15.478 12.668a197.912 197.912 0 0 0 51.826-47.542z" fill="#fff"/><path d="m318.742 599.62a62.609 62.609 0 0 1 -21.329-3.547c-1.013-.369-1.935-.738-2.81-1.106a8.031 8.031 0 0 1 -2.9-12.622 8.081 8.081 0 0 1 9.3-2.165c.783.368 1.705.691 2.672 1.059 6.956 2.35 14.925 2.9 23.632 1.7a8.072 8.072 0 0 1 2.257 15.985 87.736 87.736 0 0 1 -10.822.696z" fill="#1a1a1a"/><path d="m572.105 554.935a8.053 8.053 0 0 1 -2.533-15.708 66.481 66.481 0 0 0 23.033-14.6 8.045 8.045 0 0 1 11.378 11.373 81.869 81.869 0 0 1 -29.483 18.567 8.155 8.155 0 0 1 -2.395.368z" fill="#1a1a1a"/><path d="m177.6 347.73a1.374 1.374 0 0 1 -1.106-.553c-21.7-29.851-53.9-50.58-54.219-50.765a1.367 1.367 0 1 1 1.474-2.3c.322.23 32.937 21.236 54.957 51.5a1.361 1.361 0 0 1 -.323 1.935 2.172 2.172 0 0 1 -.783.183z" fill="#fff"/><circle cx="70.675" cy="330.041" fill="#1a1a1a" r="16.077"/><path d="m70.675 348.145a18.058 18.058 0 1 1 18.058-18.058 18.087 18.087 0 0 1 -18.058 18.058zm0-32.155a14.051 14.051 0 1 0 14.051 14.051 14.077 14.077 0 0 0 -14.051-14.051z" fill="#1a1a1a"/><circle cx="175.983" cy="301.756" fill="#1a1a1a" r="6.956"/><path d="m175.983 309.587a7.831 7.831 0 1 1 7.831-7.831 7.825 7.825 0 0 1 -7.831 7.831zm0-13.912a6.081 6.081 0 1 0 6.08 6.081 6.075 6.075 0 0 0 -6.08-6.081z" fill="#1a1a1a"/><path d="m547.552 564.978a8.055 8.055 0 0 1 -2.027-15.847l3.271-.829a8.045 8.045 0 0 1 4.054 15.57l-3.271.829a6.3 6.3 0 0 1 -2.027.277z" fill="#1a1a1a"/><circle cx="221.542" cy="47.287" fill="#fece2f" r="10.595"/><circle cx="247.385" cy="37.797" fill="#fece2f" r="5.205"/><path d="m243.239 660.012c-10.595-.276-23.263-4.745-37.682-13.221a159.679 159.679 0 0 1 -18.472-12.622 1.374 1.374 0 1 1 1.75-2.119c.323.23 30.312 24.6 54.45 25.244a1.359 1.359 0 1 1 -.046 2.718z" fill="#1a1a1a"/><path d="m460.579 646.008c-6.219-7.831-12.253-14.326-15.985-18.242l-1.7 2.211c9.674 10 34.872 37.913 35.241 56.754a1.377 1.377 0 0 0 1.382 1.336 1.318 1.318 0 0 0 1.335-1.382c-.188-10.227-7.006-23.909-20.273-40.677z" fill="#fff"/></svg></g><!--ITEM: Illustration component 5--><g transform="translate(2126.0 1754.0) rotate(0.0 212.0 207.0)  scale(2.6149272877530128 2.618148703257508)"><svg width="162.146" height="158.127" viewBox="0.0 0.0 162.146 158.127"><path d="m142.235 44.685c-2.36 15.83-5.09 71.96-19.59 100.61 0 0-7.141.29-17.621.59-.129.01-.27.01-.4.01-2.8.09-5.83.17-9.02.24-.13 0-.26.01-.4.01-4.77.11-9.9.21-15.14.28-4.37.06-8.811.1-13.21.1h-3.72c-6.85-.02-13.45-.12-19.28-.35a124.865 124.865 0 0 1 -17.21-1.53c-14.5-42.5-16.5-105.5-16.5-105.5l27.32.61 25.92.59 4.639.1.4.01 13.27.3 18.04.4.11.01 16.26.36.1.01 23.79.53a2.284 2.284 0 0 1 2.242 2.62z" fill="#fece2f"/><path d="m66.854 148.025h-3.719c-7.462-.022-13.967-.14-19.34-.351a123.234 123.234 0 0 1 -17.444-1.558l-.847-.169-.279-.818c-14.406-42.223-16.559-105.304-16.579-105.936l-.046-1.583 131.433 2.955a3.805 3.805 0 0 1 2.842 1.348 3.761 3.761 0 0 1 .848 3c-.474 3.184-.96 7.964-1.573 14.013-2.425 23.928-6.484 63.976-18.162 87.049l-.4.785-.879.036c-.072 0-7.27.294-17.638.59-.1.009-.277.011-.443.011-2.757.089-5.792.169-8.987.24l-.433.01c-5.238.121-10.336.216-15.121.28-4.925.066-9.254.098-13.233.098zm-39.07-4.693a135.063 135.063 0 0 0 16.13 1.344c5.336.21 11.8.327 19.225.349h3.715c3.966 0 8.28-.032 13.19-.1 4.775-.063 9.864-.158 15.126-.28l.434-.01c3.152-.069 6.177-.149 8.973-.239.141 0 .242 0 .336-.007 8.309-.238 14.559-.472 16.786-.557 11.125-22.7 15.085-61.763 17.462-85.21.617-6.092 1.1-10.9 1.59-14.159v-.005a.76.76 0 0 0 -.172-.609.806.806 0 0 0 -.608-.284l-128.264-2.885c.431 9.956 3.324 64.606 16.077 102.652z" fill="#1a1a1a"/><path d="m42.36 146.309c-3.33-37.223-5.736-90.92-6.394-106.49l3-.127c.658 15.555 3.06 69.192 6.386 106.349z" fill="#1a1a1a"/><path d="m81.695 40.755-1.63 105.67c-4.37.06-8.811.1-13.21.1h-3.72c1.66-37.1.91-81.51.25-106.18l4.639.1.4.01z" fill="#fece2f"/><path d="m66.854 148.025h-5.288l.07-1.567c1.68-37.559.878-82.58.249-106.073l-.042-1.573 21.375.478-1.676 108.616-1.457.019c-4.923.068-9.252.1-13.231.1zm-2.152-3h2.152c3.569 0 7.42-.026 11.733-.08l1.585-102.724-15.246-.343c.613 23.589 1.334 66.645-.226 103.147z" fill="#1a1a1a"/><path d="m116.205 41.535-11.181 104.35c-.129.01-.27.01-.4.01 2.18-26.19 9.04-84.07 11.48-104.37z" fill="#fece2f"/><path d="m104.625 147.4h-1.625l.135-1.624c2.232-26.811 9.356-86.706 11.486-104.425l.175-1.457 3.066.3-11.474 107.1-1.246.093c-.171.006-.351.013-.517.013z" fill="#1a1a1a"/><path d="m29.73 153.459c28.044 4.4 57.863 4.131 89.191-.1a5.451 5.451 0 0 0 4.479-5.559v-5.151c-31.784 4.89-64.353 5.564-98.084 0v5.263a5.476 5.476 0 0 0 4.414 5.547z" fill="#fece2f"/><path d="m72.139 158.127a275.324 275.324 0 0 1 -42.639-3.186 6.93 6.93 0 0 1 -5.687-7.032v-7.032l1.744.288c31.693 5.227 63.621 5.225 97.612 0l1.728-.266v6.9a6.952 6.952 0 0 1 -5.772 7.045 351.219 351.219 0 0 1 -46.986 3.283zm-42.177-6.149c27.017 4.235 56.88 4.2 88.758-.109a3.953 3.953 0 0 0 3.18-4.069v-3.407c-33.042 4.921-64.185 4.926-95.084.019v3.5a4 4 0 0 0 3.151 4.069z" fill="#1a1a1a"/><path d="m160.032 16.465s-2.7 15.922-5.228 28.421a18.977 18.977 0 0 1 -16.037 15.038c-40.881 5.592-100.723 6.406-125.218 1.468a12.954 12.954 0 0 1 -10.331-12.156l-1.526-34.7c-.447-1.089 32.786-9.662 36.167-9.662l84.994.209c3.493 0 37.847 10.257 37.179 11.382z" fill="#fece2f"/><path d="m62.74 66.144c-20.413 0-38.541-1.075-49.488-3.281a14.42 14.42 0 0 1 -11.533-13.563l-1.514-34.437-.2-.5.461-.742c.366-.545.977-1.457 18.045-5.921 6.148-1.608 17.142-4.328 19.352-4.328l85 .209c2.784 0 18.226 4.625 19.977 5.152 17.581 5.292 18.153 6.3 18.5 6.9l.431.759-.288.55c-.342 2-2.861 16.669-5.2 28.239a20.5 20.5 0 0 1 -17.313 16.23c-22.813 3.12-51.233 4.733-76.23 4.733zm-59.513-50.83 1.489 33.856a11.423 11.423 0 0 0 9.129 10.751c24.093 4.858 83.538 4.148 124.719-1.483a17.491 17.491 0 0 0 14.769-13.849c2.149-10.641 4.456-23.927 5.065-27.472-4.82-2.252-32.553-10.534-35.545-10.534l-85-.209c-2.969 0-30.039 7.042-34.626 8.94z" fill="#1a1a1a"/><path d="m139.356 5.144-6.374-.944c-38.66-5.31-95.382-1.123-96.082-1.083l-6.543.137c-18.357 1.489-28.711 4.72-28.711 11.37 0 4.989 14.04 10.04 33.48 14.009.379.07.75.15 1.129.221 7.951 1.59 16.77 3 25.871 4.15l3.92.48a391.3 391.3 0 0 0 44.01 2.79c2.16 0 4.23-.031 6.209-.08 2.151-.05 4.191-.141 6.131-.25 32.869-1.911 38.25-11.72 38.25-21.32 0-4.631-8.31-7.6-21.29-9.48zm-17.18 24.8c-1.661.129-3.411.25-5.28.33-1.621.08-3.31.14-5.1.179-1.64.031-3.36.051-5.15.051-12.25 0-26.42-.831-39.84-2.221-7.92-.809-15.591-1.819-22.44-2.949-2.54-.431-4.97-.87-7.26-1.321-12.28-2.44-20.57-5.31-20.57-8.15 0-3.79 6.11-5.949 17.17-7.129h.049c13.98-.561 71.434-3.207 104.894 1.383l1.667.542c6.31 1.239 8.37 2.894 8.37 5.2 0 6.041-3.88 12.225-26.51 14.085z" fill="#feffff"/><g fill="#1a1a1a"><path d="m110.055 37.774a389.757 389.757 0 0 1 -44.184-2.8l-3.929-.482c-9.263-1.17-18-2.572-25.981-4.167l-1.108-.217c-23.04-4.708-34.707-9.908-34.707-15.484 0-7.306 9-11.154 30.088-12.866l6.791-.153c9.78-.679 60.375-3.805 96.161 1.109l6.39.947c15.4 2.23 22.57 5.714 22.57 10.963 0 14.186-12.232 21.223-39.663 22.817-2.208.125-4.23.207-6.183.253-2.151.054-4.195.08-6.245.08zm-25.808-34.774c-22.112 0-41.378 1.208-47.015 1.6l-.248.017-6.6.139c-18.299 1.486-27.238 4.715-27.238 9.868 0 .608.905 6.133 32.28 12.54l1.1.215c7.93 1.585 16.6 2.976 25.785 4.136l3.915.48a386.378 386.378 0 0 0 43.827 2.779c2.025 0 4.043-.026 6.172-.08 1.924-.044 3.912-.125 6.085-.248 36.834-2.141 36.834-14.531 36.834-19.822 0-1.9-2.6-5.474-20-8l-6.374-.943c-14.928-2.046-32.476-2.681-48.523-2.681zm22.399 29c-11.918 0-26.122-.791-40-2.227-7.863-.8-15.655-1.828-22.529-2.962-2.608-.441-5.064-.888-7.306-1.329-19.305-3.835-21.78-7.156-21.78-9.621 0-5.892 9.892-7.7 18.51-8.621l.16-.009 2.176-.088c17.539-.722 70.91-2.915 102.971 1.484l.26.06 1.581.515c4.709.931 9.491 2.46 9.491 6.659 0 9.186-8.6 13.989-27.887 15.575h-.006c-2.021.158-3.714.265-5.332.334-1.635.08-3.317.14-5.131.181q-2.477.049-5.178.049zm-72.86-21.766c-13.7 1.471-15.75 4.157-15.75 5.63 0 .026.827 3 19.362 6.677 2.213.436 4.643.877 7.218 1.314 6.809 1.123 14.537 2.139 22.342 2.936 13.776 1.427 27.87 2.209 39.688 2.209 1.779 0 3.491-.019 5.122-.049 1.781-.04 3.437-.1 5.054-.178 1.59-.068 3.25-.172 5.234-.327 22.273-1.832 25.129-7.688 25.129-12.585 0-.637 0-2.327-7.158-3.734l-.175-.045-1.539-.5c-31.813-4.334-84.86-2.155-102.308-1.439z"/><path d="m138.316 80.534c-1.5-1.5-25-10.5-62-7.5s-56-5-56-10.5c22 2.5 89.5 3 120-3.5 0 6-2 21.5-2 21.5z"/></g></svg></g><!--ITEM: Illustration component 6--><g transform="translate(1600.0 512.0) rotate(-40.69221951266221 279.0 330.0)  scale(0.8796170040370953 0.8784773060029283)"><svg width="634.367" height="751.3" viewBox="0.0 0.0 634.367 751.3"><path d="m536.283 307.9a218.942 218.942 0 0 1 -79.3 168.8 174.72 174.72 0 0 0 -30.3 32.3 171.294 171.294 0 0 0 -32.9 92.8l-4.6 75.8a71.538 71.538 0 0 1 -22.3 48.8 72.07 72.07 0 0 1 -121.8-48.8l-4.5-75.1a173.056 173.056 0 0 0 -32.7-93.5 169.543 169.543 0 0 0 -29.6-31.5 218.928 218.928 0 0 1 -80.3-170.9c.7-120.7 102.1-219.8 222.8-217.8 119.3 1.9 215.5 99.3 215.5 219.1z" fill="#fece2f"/><path d="m317.183 751.3a77.113 77.113 0 0 1 -77.1-73.4l-4.5-75.1a168.425 168.425 0 0 0 -31.7-90.9 160.655 160.655 0 0 0 -28.8-30.6 223.226 223.226 0 0 1 -82.1-174.7c.4-59.7 24.5-115.9 67.9-158.4a225.437 225.437 0 0 1 72.4-47.8 219.486 219.486 0 0 1 87.6-16.6 224.159 224.159 0 0 1 139.3 396.7 171.468 171.468 0 0 0 -29.4 31.4 167.466 167.466 0 0 0 -32 90.2l-4.6 75.9a77.734 77.734 0 0 1 -7.1 28.8 75.8 75.8 0 0 1 -16.8 23.3 76.854 76.854 0 0 1 -53.1 21.2zm0-657.5c-55.8 0-108.7 21.8-149.4 61.6-41.5 40.6-64.5 94.3-64.9 151.3a213.322 213.322 0 0 0 78.4 166.9 170.42 170.42 0 0 1 30.5 32.4 178.206 178.206 0 0 1 33.6 96.2l4.5 75.1a66.293 66.293 0 0 0 6.2 25.2 67.179 67.179 0 0 0 128-25.1l4.6-75.9a176.96 176.96 0 0 1 33.9-95.5 187.925 187.925 0 0 1 31.1-33.2 214.23 214.23 0 0 0 -133.2-379.1c-1 .1-2.1.1-3.3.1z" fill="#1a1a1a"/><circle cx="317.283" cy="356" fill="#ffffff" r="152.3"/><path d="m317.183 508.9-60-186.1h60.1z" fill="#ffffff"/><path d="m317.183 513.9a5.137 5.137 0 0 1 -4.8-3.5l-60-186.1a5.154 5.154 0 0 1 .7-4.5 4.888 4.888 0 0 1 4-2.1h60.1a4.691 4.691 0 0 1 3.5 1.5 5.093 5.093 0 0 1 1.5 3.5l-.1 186.1a4.876 4.876 0 0 1 -4.2 4.9.952.952 0 0 1 -.7.2zm-53.2-186.1 48.2 149.4.1-149.4z" fill="#1a1a1a"/><path d="m317.383 508.9 60-186.1h-60.1z" fill="#ffffff"/><g fill="#1a1a1a"><path d="m317.383 513.9a2.2 2.2 0 0 1 -.8-.1 5.03 5.03 0 0 1 -4.2-4.9l-.1-186.1a4.691 4.691 0 0 1 1.5-3.5 5.1 5.1 0 0 1 3.5-1.5h60.1a4.885 4.885 0 0 1 4 2.1 5.154 5.154 0 0 1 .7 4.5l-60 186.1a4.745 4.745 0 0 1 -4.7 3.4zm4.9-186.1.1 149.4 48.2-149.4z"/><path d="m431.083 506.7a5.024 5.024 0 0 0 -4.5-2.7h-218.7a5.22 5.22 0 0 0 -4.5 2.7 4.889 4.889 0 0 0 .4 5.2 167.634 167.634 0 0 1 31.7 90.9l4.5 75.1a76.8 76.8 0 0 0 7.1 28.8 4.925 4.925 0 0 0 4.5 2.9h130.9a4.925 4.925 0 0 0 4.5-2.9 77.734 77.734 0 0 0 7.1-28.8l4.6-75.9a166.055 166.055 0 0 1 32-90.1 4.9 4.9 0 0 0 .4-5.2z"/><path d="m317.183 40.5a4.951 4.951 0 0 1 -5-5v-30.5a5 5 0 0 1 10 0v30.5a5.015 5.015 0 0 1 -5 5z"/><path d="m414.383 57.4a5.069 5.069 0 0 1 -1.7-.3 5.009 5.009 0 0 1 -3-6.4l10.3-28.7a5 5 0 0 1 9.4 3.4l-10.3 28.7a4.83 4.83 0 0 1 -4.7 3.3z"/><path d="m500.183 106.3a5.621 5.621 0 0 1 -3.2-1.1 5.043 5.043 0 0 1 -.7-7l19.4-23.5a4.974 4.974 0 1 1 7.7 6.3l-19.4 23.5a5.1 5.1 0 0 1 -3.8 1.8z"/><path d="m564.383 181.2a4.954 4.954 0 0 1 -4.3-2.5 5.073 5.073 0 0 1 1.8-6.9l26.2-15.5a5.042 5.042 0 0 1 5.1 8.7l-26.2 15.5a5.09 5.09 0 0 1 -2.6.7z"/><path d="m599.383 273.5a5.046 5.046 0 0 1 -.9-10l29.9-5.7a5.04 5.04 0 1 1 1.9 9.9l-29.9 5.7a3.751 3.751 0 0 1 -1 .1z"/><path d="m219.883 57.4a5.058 5.058 0 0 1 -4.7-3.3l-10.3-28.7a5 5 0 1 1 9.4-3.4l10.3 28.7a5.009 5.009 0 0 1 -3 6.4 5.079 5.079 0 0 1 -1.7.3z"/><path d="m134.083 106.3a5.125 5.125 0 0 1 -3.9-1.8l-19.4-23.5a4.974 4.974 0 1 1 7.7-6.3l19.4 23.5a4.946 4.946 0 0 1 -3.8 8.1z"/><path d="m69.883 181.2a4.514 4.514 0 0 1 -2.5-.7l-26.2-15.5a5.042 5.042 0 1 1 5.1-8.7l26.2 15.5a5.048 5.048 0 0 1 -2.6 9.4z"/><path d="m34.883 273.5a2.769 2.769 0 0 1 -.9-.1l-29.9-5.7a5.04 5.04 0 0 1 1.9-9.9l29.9 5.7a5.046 5.046 0 0 1 -1 10z"/></g></svg></g><!--ITEM: Illustration component 7--><g transform="translate(1884.0 846.0) rotate(-12.380214805979621 282.0 506.0) translate(0.0 0.0) scale(3.0762853309188496 3.0812137302781006)"><svg width="182.0377304964539" height="328.44200000000006" viewBox="0.0 0.0 182.0377304964539 328.44200000000006"><path d="m77.62 89.93-7.25 10.1-4.75-1.29-62.41-16.94c-6.22-3.29 6-9.73 13.16-13.2l1.42-.68h.01a9.143 9.143 0 0 1 8.82.53z" fill="#fece2f"/><path d="m65.62 96.36v2.38l-62.41-16.94c-6.22-3.29 6-9.73 13.16-13.2a24.736 24.736 0 0 0 -1.83 6.51c-1.33 9.67 43.75 19.25 43.75 19.25z" fill="#fff"/><path d="m115.75 328.442-2.92-.69c16.059-67.915 32.666-138.141-11.817-229.725l2.7-1.311c44.948 92.545 28.217 163.3 12.037 231.726z" fill="#1a1a1a"/><path d="m131.623 211.1s4.515-81.911 48.435-134.081a1 1 0 0 1 1.768.784c-8.016 53.397-50.203 133.297-50.203 133.297z" fill="#fece2f"/><path d="m129.748 217.861.378-6.847c.045-.823 5.048-83.011 48.785-134.964a2.5 2.5 0 0 1 4.4 1.973c-7.964 53.037-49.938 132.977-50.361 133.777zm50.316-138.5c-34.348 41.878-43.878 102.817-46.238 124.128 10.161-20.267 39.19-80.783 46.238-124.133z" fill="#1a1a1a"/><path d="m70.982 101.75-68.473-18.624c-2.109-1.114-2.527-2.567-2.509-3.59.058-3.3 4.758-6.976 15.715-12.286l1.758-.83a10.721 10.721 0 0 1 9.839.695l52.623 22.163zm-67.206-21.35 65.982 17.909 5.547-7.727-49.383-20.8-.105-.067a7.7 7.7 0 0 0 -7.371-.443l-1.426.677c-12.961 6.284-14.008 8.967-14.02 9.64 0 .311.468.633.776.811z" fill="#1a1a1a"/><path d="m98.47 85.22-10.33 8.1-3.09 2.42-56.76-20.8a8.78 8.78 0 0 1 -3.72-6.63l-1-11.21a11.987 11.987 0 0 1 7.47-12l15.43-5.8 9.1-3.42a8.219 8.219 0 0 1 10.53 3.82z" fill="#fece2f"/><path d="m88.14 93.32-3.09 2.42-56.76-20.8a8.78 8.78 0 0 1 -3.72-6.63l-1-11.21a11.987 11.987 0 0 1 7.47-12l15.43-5.8a24.043 24.043 0 0 0 -7.35 11.39c-3.16 11.67 13.5 19 15.34 20.5s33.66 15.17 33.66 15.17.04 3.41.02 6.96z" fill="#fff"/><path d="m85.317 97.436-57.861-21.25a10.28 10.28 0 0 1 -4.38-7.742l-1-11.211a13.539 13.539 0 0 1 8.437-13.533l24.529-9.22a9.685 9.685 0 0 1 12.341 4.44l33.139 46.6zm-56.333-23.836 55.8 20.448 11.636-9.122-31.654-44.541a6.76 6.76 0 0 0 -8.668-3.1l-24.53 9.215a10.454 10.454 0 0 0 -6.5 10.46l1 11.213a7.347 7.347 0 0 0 2.916 5.427z" fill="#1a1a1a"/><path d="m115.29 43.12-2 30.31-15.41 6.92-5.77 2.59-30.35-42.49a7.719 7.719 0 0 1 2.37-9.97l19.12-13.98 7.37-5.38c4.94-3.43 25 15.33 25 15.33.1.48-.34 16.18-.33 16.67z" fill="#fece2f"/><path d="m97.88 80.35-5.77 2.59-30.35-42.49a7.719 7.719 0 0 1 2.37-9.97l19.12-13.98a81.769 81.769 0 0 1 -5.21 9.36c-8.65 13.59 12.21 44.13 19.84 54.49z" fill="#fff"/><path d="m91.6 84.811-31.177-43.679a9.21 9.21 0 0 1 2.853-11.886l26.46-19.337c5.533-3.843 21.995 10.85 26.909 15.446l.347.325.1.466c.072.346.091 1.009-.209 13.086-.052 2.088-.091 3.653-.09 3.867v.12l-2.059 31.21zm-28.552-45.137 29.568 41.4 19.237-8.638 1.937-29.366c0-.313.027-1.341.091-3.913.091-3.656.251-10.1.255-12.039-9.179-8.5-20.343-16.375-22.66-14.765l-26.461 19.338a6.24 6.24 0 0 0 -1.967 7.983z" fill="#1a1a1a"/><path d="m130.81 11.11-.81 17.11a9.568 9.568 0 0 1 -.26 1.77l-13.83 38.62-3.14 1.73-3.81 2.09-1.36-59.77a9.145 9.145 0 0 1 4.28-6.69l4.98-3.08a9.135 9.135 0 0 1 11.92 2.03 8.973 8.973 0 0 1 2.03 6.19z" fill="#fece2f"/><path d="m128.78 4.92a12.992 12.992 0 0 0 -2.74 4.19c-5 11.25-11.25 49.25-11.25 49.25l-2.02 11.98-3.81 2.09-1.36-59.77a9.145 9.145 0 0 1 4.28-6.69l4.98-3.08a9.135 9.135 0 0 1 11.92 2.03z" fill="#fff"/><g fill="#1a1a1a"><path d="m107.517 74.933-1.417-62.345.013-.1a10.575 10.575 0 0 1 4.982-7.79l4.978-3.078a10.567 10.567 0 0 1 13.872 2.358 10.41 10.41 0 0 1 2.366 7.205l-.81 17.11a11.233 11.233 0 0 1 -.3 2.052l-.046.153-14.024 39.152zm1.585-62.2 1.3 57.189 4.287-2.357 13.611-38.001a8.073 8.073 0 0 0 .2-1.419l.81-17.1a7.469 7.469 0 0 0 -1.69-5.168 7.617 7.617 0 0 0 -9.975-1.707l-4.978 3.079a7.706 7.706 0 0 0 -3.567 5.489z"/><path d="m64.225 95.261 51.44-26.822s13.976 26.184-18.72 37.349c-22.685 7.747-32.72-10.527-32.72-10.527z"/><path d="m86.251 109.192c-15.866 0-23.251-13.049-23.341-13.209l-.738-1.343 54.117-28.218.7 1.311c.241.452 5.86 11.2 1.507 22.236-3.038 7.7-10.126 13.5-21.066 17.239a34.492 34.492 0 0 1 -11.179 1.984zm-19.882-13.358c2.727 3.89 12.188 14.651 30.092 8.534 10.056-3.433 16.527-8.639 19.234-15.473 3.016-7.612.516-15.343-.74-18.394z"/></g></svg></g></svg>