<svg xmlns="http://www.w3.org/2000/svg" viewBox="0 0 2000 2000" width="2000" height="2000"><g transform="translate(699.0 946.0) rotate(0.0 462.0 351.5) scale(1.0005360014293372 1.0008442398780193)"><svg width="923.505" height="702.407" viewBox="0 0 923.505 702.407"><path d="M783.052 329.212h43.2v17.601h-43.2z" fill="#fff"/><path d="M783.052 346.557h43.2v344.85h-43.2zm55.28-288.52v260.49c0 7.62-5.15 14.06-12.15 16.03-1.43.41-2.95.63-4.52.63h-34.03c-1.33 0-2.63-.16-3.87-.47-.22-.04-.43-.1-.64-.16-7-1.96-12.15-8.4-12.15-16.03V58.037c0-3.31 2.69-6 6-6h55.36c3.31 0 6 2.69 6 6z"/><path d="M867.28 702.407H742.583c-6.075 0-11-4.925-11-11s4.925-11 11-11H867.28c6.075 0 11 4.925 11 11s-4.925 11-11 11z"/><path d="M99.611 329.212h43.2v17.601h-43.2z" fill="#fff"/><path d="M99.611 346.557h43.2v344.85h-43.2zm55.28-288.52v260.49c0 7.62-5.15 14.06-12.15 16.03-1.43.41-2.95.63-4.52.63h-34.03c-1.33 0-2.63-.16-3.87-.47-.22-.04-.43-.1-.64-.16-7-1.96-12.15-8.4-12.15-16.03V58.037c0-3.31 2.69-6 6-6h55.36c3.309 0 6 2.69 6 6z"/><path d="M181.839 702.407H59.142c-6.075 0-11-4.925-11-11s4.925-11 11-11h122.697c6.075 0 11 4.925 11 11s-4.925 11-11 11z"/><path d="M6 6h911.505v52.18H6z" fill="#fff"/><path d="M917.505 64.18H6a6 6 0 0 1-6-6V6a6 6 0 0 1 6-6h911.505a6 6 0 0 1 6 6v52.18a6 6 0 0 1-6 6zM12 52.18h899.505V12H12z"/></svg></g><g transform="translate(867.0 463.0) rotate(0.0 296.0 247.5) scale(0.9935920029270684 0.9955672118486577)"><svg width="595.818" height="497.204" viewBox="0 0 595.818 497.204"><path d="M380.401 491.204H215.417a3.902 3.902 0 0 1-3.902-3.902v-50.138h172.788v50.138a3.902 3.902 0 0 1-3.902 3.902z" fill="#fff"/><path d="M380.401 497.203H215.417c-5.46 0-9.902-4.442-9.902-9.902v-56.138h184.788v56.138c0 5.46-4.442 9.902-9.902 9.902zm-162.886-12h160.788v-42.04H217.515z"/><path d="M548.836 437.164H46.982C24.348 437.164 6 418.816 6 396.182v-349.2C6 24.348 24.348 6 46.982 6h501.854c22.634 0 40.982 18.348 40.982 40.982v349.2c0 22.634-18.348 40.982-40.982 40.982z" fill="#fff"/><path d="M548.836 443.163H46.982C21.076 443.163 0 422.087 0 396.182v-349.2C0 21.077 21.076 0 46.982 0h501.854c25.906 0 46.982 21.076 46.982 46.981v349.2c0 25.906-21.076 46.982-46.982 46.982zM46.982 12C27.693 12 12 27.693 12 46.982v349.2c0 19.289 15.693 34.981 34.982 34.981h501.854c19.289 0 34.982-15.692 34.982-34.981v-349.2c0-19.289-15.693-34.981-34.982-34.981H46.982z"/></svg></g><g transform="translate(994.0 838.0) rotate(0.0 41.5 57.5) scale(1.049225090385053 1.0435003538827288)"><svg width="79.106" height="110.206" viewBox="0 0 79.106 110.206"><path d="M78.84 110.168 63.522 98.692l9.833-6.878 5.741 18.176c.056.154-.129.283-.256.178z" fill="#fff"/><path d="m78.779 110.149-7.127-5.366 4.747-3.334 2.654 8.51c.058.165-.139.302-.274.19zM63.522 98.692 1.084 9.44a6 6 0 0 1 1.467-8.349l.01-.007a6 6 0 0 1 8.356 1.477l62.438 89.252z"/></svg></g><g transform="translate(930.0 513.0) rotate(0.0 232.5 172.5) scale(1.0001570138968052 0.9992990424108306)"><svg width="464.927" height="345.242" viewBox="0 0 464.927 345.242"><circle cx="385.409" cy="69.146" fill="#fff" r="63.146"/><path d="M385.409 138.293c-38.127 0-69.146-31.019-69.146-69.146S347.282 0 385.409 0s69.146 31.019 69.146 69.146-31.019 69.147-69.146 69.147zm0-126.293c-31.511 0-57.146 25.636-57.146 57.146s25.636 57.146 57.146 57.146 57.146-25.636 57.146-57.146S416.919 12 385.409 12z"/><ellipse cx="385.894" cy="51.075" rx="13.209" ry="16.503"/><path d="M385.894 73.578c-10.592 0-19.209-10.095-19.209-22.503s8.617-22.503 19.209-22.503 19.209 10.095 19.209 22.503-8.617 22.503-19.209 22.503zm0-33.006c-3.908 0-7.209 4.81-7.209 10.503s3.302 10.503 7.209 10.503c3.908 0 7.209-4.81 7.209-10.503s-3.301-10.503-7.209-10.503z"/><path d="M381.41 71.004c-.008 1.849-.584 7.019-1.957 7.999-1.176.839-9.347 2.056-11.462 2.712-2.114.656-5.177 2.52-8.479 9.154 6.237 7.558 15.817 12.09 26.382 12.09s20.144-4.533 26.381-12.09c-3.301-6.634-6.364-8.498-8.479-9.154s-10.286-1.873-11.464-2.712c-1.373-.979-1.949-6.149-1.957-7.999"/><path d="M385.894 108.959c-12.223 0-23.526-5.201-31.01-14.271a5.997 5.997 0 0 1-.744-6.491c3.353-6.737 7.301-10.731 12.072-12.212 1.072-.332 2.611-.64 5.034-1.114 1.022-.2 2.584-.506 3.824-.781.186-1.017.335-2.29.339-3.112a6 6 0 0 1 6-5.973h.028a5.982 5.982 0 0 1 4.455 2.012 5.982 5.982 0 0 1 4.455-2.012h.028a6.001 6.001 0 0 1 6 5.973c.004.822.153 2.095.339 3.111 1.241.275 2.803.581 3.825.781 2.424.476 3.964.783 5.034 1.114 4.773 1.481 8.722 5.476 12.074 12.213a5.999 5.999 0 0 1-.744 6.492c-7.485 9.068-18.787 14.27-31.009 14.27zm-18.913-18.966c5.04 4.466 11.734 6.966 18.913 6.966 7.178 0 13.872-2.5 18.912-6.966-1.007-1.396-1.977-2.296-2.788-2.548-.515-.159-2.483-.544-3.786-.8-5.631-1.103-7.748-1.593-9.38-2.755-1.353-.965-2.298-2.439-2.959-4.065-.66 1.625-1.605 3.099-2.956 4.062-1.632 1.164-3.749 1.654-9.383 2.759-1.302.255-3.269.64-3.787.8-.809.251-1.779 1.151-2.786 2.547z"/><circle cx="385.894" cy="276.096" fill="#fff" r="63.146"/><path d="M385.894 345.242c-38.127 0-69.146-31.019-69.146-69.146s31.019-69.146 69.146-69.146 69.146 31.019 69.146 69.146-31.018 69.146-69.146 69.146zm0-126.293c-31.511 0-57.146 25.636-57.146 57.146s25.636 57.146 57.146 57.146 57.146-25.636 57.146-57.146-25.635-57.146-57.146-57.146z"/><ellipse cx="386.379" cy="258.024" rx="13.209" ry="16.503"/><path d="M386.379 280.527c-10.592 0-19.209-10.095-19.209-22.503s8.617-22.503 19.209-22.503 19.209 10.095 19.209 22.503-8.617 22.503-19.209 22.503zm0-33.006c-3.908 0-7.209 4.81-7.209 10.503s3.302 10.503 7.209 10.503c3.908 0 7.209-4.81 7.209-10.503s-3.301-10.503-7.209-10.503z"/><path d="M381.895 277.953c-.008 1.849-.584 7.019-1.957 7.999-1.176.839-9.347 2.056-11.462 2.712s-5.177 2.52-8.479 9.154c6.237 7.558 15.817 12.09 26.382 12.09s20.144-4.533 26.381-12.09c-3.301-6.634-6.364-8.498-8.479-9.154s-10.286-1.873-11.464-2.712c-1.373-.979-1.949-6.149-1.957-7.999"/><path d="M386.379 315.908c-12.223 0-23.526-5.201-31.01-14.271a5.997 5.997 0 0 1-.744-6.491c3.353-6.737 7.301-10.731 12.072-12.212 1.072-.332 2.611-.64 5.034-1.114 1.022-.2 2.584-.506 3.824-.781.186-1.017.335-2.29.339-3.112a6 6 0 0 1 6-5.973h.028a5.982 5.982 0 0 1 4.455 2.012 5.984 5.984 0 0 1 4.456-2.012h.027a6.001 6.001 0 0 1 6 5.973c.004.822.153 2.095.338 3.111 1.241.275 2.803.581 3.825.781 2.424.476 3.964.783 5.033 1.114 4.773 1.481 8.722 5.476 12.074 12.213a5.999 5.999 0 0 1-.744 6.492c-7.483 9.069-18.785 14.27-31.007 14.27zm-18.913-18.966c5.04 4.466 11.734 6.966 18.913 6.966 7.178 0 13.872-2.5 18.912-6.966-1.007-1.396-1.977-2.296-2.788-2.548-.515-.159-2.483-.544-3.786-.8-5.631-1.103-7.748-1.593-9.38-2.755-1.353-.965-2.298-2.439-2.959-4.065-.66 1.626-1.605 3.099-2.956 4.062-1.632 1.164-3.749 1.654-9.383 2.759-1.302.255-3.269.64-3.787.8-.809.251-1.779 1.151-2.786 2.547z"/><circle cx="112.489" cy="164.171" fill="#fff" r="106.489"/><path d="M112.489 276.661C50.462 276.661 0 226.198 0 164.171S50.462 51.682 112.489 51.682s112.489 50.463 112.489 112.489-50.462 112.49-112.489 112.49zm0-212.979C57.079 63.682 12 108.761 12 164.171S57.079 264.66 112.489 264.66s100.489-45.079 100.489-100.489S167.899 63.682 112.489 63.682z"/><ellipse cx="113.307" cy="133.696" rx="22.276" ry="27.83"/><path d="M113.307 167.526c-15.592 0-28.276-15.176-28.276-33.83s12.685-33.83 28.276-33.83 28.276 15.176 28.276 33.83-12.684 33.83-28.276 33.83zm0-55.66c-8.975 0-16.276 9.793-16.276 21.83s7.302 21.83 16.276 21.83 16.276-9.793 16.276-21.83-7.301-21.83-16.276-21.83z"/><path d="M105.745 167.304c-.014 3.119-.984 11.837-3.3 13.489-1.982 1.415-15.763 3.468-19.329 4.574s-8.731 4.25-14.299 15.438c10.519 12.745 26.674 20.388 44.49 20.388s33.971-7.644 44.489-20.388c-5.568-11.187-10.733-14.331-14.299-15.438-3.566-1.106-17.346-3.159-19.333-4.574-2.316-1.651-3.286-10.37-3.3-13.489"/><path d="M113.307 227.192c-19.378 0-37.281-8.226-49.118-22.568a5.999 5.999 0 0 1-.744-6.492c5.126-10.301 10.979-16.351 17.892-18.496 1.605-.498 4.11-.998 8.064-1.772 2.715-.532 6.936-1.358 9.071-1.948.631-1.938 1.26-6.022 1.271-8.639a6 6 0 0 1 6-5.973h.028a6.001 6.001 0 0 1 5.973 6.027c-.007 1.458-.226 14.36-5.817 18.347-1.974 1.408-4.963 2.148-14.219 3.962-2.693.527-5.746 1.126-6.817 1.457-2.926.908-5.877 3.878-8.797 8.845 9.481 9.737 22.826 15.251 37.212 15.251 14.384 0 27.729-5.514 37.21-15.251-2.92-4.967-5.871-7.937-8.798-8.845-1.07-.332-4.124-.93-6.818-1.458-9.252-1.812-12.241-2.552-14.216-3.958-5.595-3.989-5.814-16.892-5.821-18.35a6 6 0 0 1 5.973-6.027h.028a6.001 6.001 0 0 1 6 5.973c.012 2.616.64 6.7 1.271 8.638 2.135.59 6.358 1.417 9.073 1.949 3.956.774 6.462 1.274 8.066 1.772 6.915 2.146 12.767 8.195 17.893 18.496a5.999 5.999 0 0 1-.744 6.492c-11.838 14.342-29.74 22.568-49.116 22.568zm151.872 89.93a6 6 0 0 1-6-6V61.075a6 6 0 0 1 12 0v250.047a6 6 0 0 1-6 6zm193.748-139.819H318.262a6 6 0 0 1 0-12h140.665a6 6 0 0 1 0 12z"/></svg></g><g transform="translate(1073.0 391.0) rotate(0.0 58.0 44.5) scale(0.9901328143671685 0.9831864077240892)"><svg width="117.156" height="90.522" viewBox="0 0 117.156 90.522"><path d="M85.756 84.065a6 6 0 0 1 0-12c5.583 0 9.668-1.92 12.486-5.87 4.384-6.145 5.139-16.641 1.879-26.118-3.218-9.355-19.469-9.159-34.943-7.738-3.295.312-6.221-2.124-6.525-5.425a6 6 0 0 1 5.425-6.524c13.201-1.216 40.673-3.742 47.39 15.783 4.532 13.176 3.175 27.696-3.458 36.992-5.087 7.13-12.783 10.9-22.254 10.9z"/><path d="M82.868 51.86H28.93C16.266 51.86 6 41.594 6 28.93S16.266 6 28.93 6h53.938c12.664 0 22.93 10.266 22.93 22.93s-10.266 22.93-22.93 22.93z" fill="#fff"/><path d="M82.868 57.86H28.93C12.978 57.86 0 44.882 0 28.93S12.978 0 28.93 0h53.938c15.952 0 28.93 12.979 28.93 28.931S98.82 57.86 82.868 57.86zM28.93 12C19.595 12 12 19.594 12 28.93c0 9.335 7.595 16.93 16.93 16.93h53.938c9.335 0 16.93-7.595 16.93-16.93 0-9.336-7.595-16.931-16.93-16.931H28.93zm44.434 62.108h37.792v10.415H73.364z"/><path d="M111.156 90.522H73.364a6 6 0 0 1-6-6V74.108a6 6 0 0 1 6-6h37.792a6 6 0 0 1 6 6v10.414a6 6 0 0 1-6 6z"/><circle cx="55.899" cy="28.93" r="10.911"/><path d="M55.899 40.341c-6.292 0-11.411-5.119-11.411-11.411s5.119-11.411 11.411-11.411S67.31 22.638 67.31 28.93s-5.119 11.411-11.411 11.411zm0-21.822c-5.741 0-10.411 4.671-10.411 10.411s4.67 10.411 10.411 10.411S66.31 34.67 66.31 28.93s-4.67-10.411-10.411-10.411z"/></svg></g><g transform="translate(1325.0 965.0) rotate(90.00000000000001 65.0 28.5) translate(25.0 0.0) scale(0.965688350084312 0.9671672181216594)"><svg width="57.99" height="57.901" viewBox="25.888 0 57.99 57.901"><path d="M105.151 58.935a5.979 5.979 0 0 1-4.242-1.758 5.997 5.997 0 0 1 0-8.484l19.225-19.226-19.225-19.226a5.997 5.997 0 0 1 0-8.484 5.997 5.997 0 0 1 8.484 0l23.468 23.468a5.997 5.997 0 0 1 0 8.484l-23.468 23.468a5.977 5.977 0 0 1-4.242 1.758z"/><path d="M128.619 35.467H6a6 6 0 0 1 0-12h122.619a6 6 0 0 1 0 12z"/></svg></g><g transform="translate(392.0 472.0) rotate(0.0 358.0 588.5) scale(1.0009506234971761 1.000123209741217)"><svg width="715.32" height="1176.855" viewBox="0 0 715.32 1176.855"><g fill="#ff002a"><path d="M326.494 592.964s3.312-2.266 0 0c-15.194 10.388-44.009 23.859-111.475 30.874-49.498 5.148-82.483-4.341-99.97-11.954a26.532 26.532 0 0 1-13.752-13.757c-.004.023-12.002 78.865 37.063 112.757 106.439 61.623 282.225 89.746 284.755 122.832 8.719 114.027 71.719 157.915 113.648 229.247l63.162-22.028c-22.558-59.895-42.339-135.183-60.571-195.611-3.166-10.492-20.663-52.388-24.004-61.182-25-48.723-188.856-191.178-188.856-191.178z"/><path d="M536.764 1068.964a6.002 6.002 0 0 1-5.174-2.961c-11.586-19.71-25.119-37.713-38.207-55.122-34.337-45.678-69.844-92.909-76.251-176.708-.229-3.004-4.382-9.673-29.611-20.585-19.778-8.555-46.654-17.35-77.775-27.533-54.844-17.946-123.098-40.28-174.393-69.978a5.85 5.85 0 0 1-.404-.256c-51.854-35.817-39.71-117.796-39.581-118.619a5.998 5.998 0 0 1 5.165-5.025 5.993 5.993 0 0 1 6.266 3.561 20.475 20.475 0 0 0 10.642 10.646c18.246 7.944 49.875 16.383 96.956 11.488 51.603-5.366 87.161-15.132 108.7-29.854l.009-.006 1.472-1.007a6 6 0 0 1 9.372 4.504c24.627 21.571 163.259 144.135 186.738 189.894.102.197.192.4.271.608 1.023 2.693 3.508 8.817 6.385 15.908 6.542 16.122 15.5 38.201 17.754 45.671 5.033 16.682 10.102 34.208 15.468 52.763 14.117 48.816 28.715 99.294 44.975 142.467a5.998 5.998 0 0 1-3.639 7.779l-63.162 22.028a5.996 5.996 0 0 1-1.976.337zm-395.187-363.15c50.178 29.004 114.842 50.164 171.902 68.836 74.903 24.51 114.062 38.248 115.618 58.608 6.14 80.304 39.043 124.072 73.878 170.411 12.358 16.439 25.107 33.398 36.428 52.018l52.762-18.401c-15.562-42.283-29.566-90.706-43.127-137.599-5.356-18.521-10.415-36.015-15.428-52.63-2.094-6.939-11.296-29.618-17.385-44.626-2.912-7.179-5.235-12.903-6.359-15.834-10.115-19.419-45.522-58.116-102.441-111.957-36.215-34.256-70.677-64.707-81.432-74.145-11.657 7.385-40.195 22.015-110.353 29.311-49.675 5.165-83.422-3.902-102.986-12.421a32.702 32.702 0 0 1-6.525-3.785c-.7 23.459 2.543 69.318 35.448 92.214z"/><path d="M326.494 592.964c91.571 54.02 154.08 115.737 181.321 145.445 22.452 24.486 28.947 47.246 17.762 80.402-28.3 83.889-72.787 225.847-72.787 225.847l-59.751-24.279s-17.761-179.441 24.409-203.891c-59.057-14.399-168.214-58.642-239.435-87.963-53.556-22.049-84.657-62.392-76.715-130.398-.001.001 131.863 18.142 225.196-5.163z"/><path d="M452.79 1050.595a5.93 5.93 0 0 1-2.235-.437l-59.751-24.278a5.935 5.935 0 0 1-3.673-4.915c-.045-.452-4.464-45.756-3.637-93.465.961-55.425 8.112-91.023 21.784-108.039-57.919-15.867-152.277-53.643-229.526-85.445-60.969-25.102-88.004-71.052-80.352-136.576a5.938 5.938 0 0 1 6.706-5.194c1.307.18 131.829 17.71 222.95-5.042a5.93 5.93 0 0 1 4.455.646c91.551 54.008 153.751 114.998 182.68 146.546 24.991 27.255 30.499 52.262 19.011 86.312-27.956 82.868-72.302 224.306-72.747 225.725a5.938 5.938 0 0 1-5.665 4.162zm-54.167-34.355 50.433 20.492c8.867-28.201 46.237-146.726 70.895-219.818 10.024-29.716 5.395-50.601-16.512-74.492-28.263-30.823-88.795-90.195-177.884-143.115-48.418 11.648-106.434 12.38-146.874 10.912-33.318-1.211-60.462-4.073-72.087-5.447-4.834 57.16 19.314 95.882 73.679 118.264 81.856 33.7 182.948 74.121 238.582 87.685a5.937 5.937 0 0 1 1.572 10.904c-8.76 5.079-23.664 25.615-25.06 106.082-.684 39.366 2.255 77.042 3.256 88.533z"/></g><path d="M427.236 1050.658h-.068a6.001 6.001 0 0 1-5.933-6.066c.057-5.136 1.666-126.444 24.915-185.438 14.483-36.749 19.603-57.156 17.673-70.438-1.76-12.107-9.784-18.788-23.078-29.854-1.224-1.019-2.482-2.066-3.774-3.151-27.791-23.322-87.851-64.705-156.743-108a5.998 5.998 0 0 1-1.887-8.272 6.003 6.003 0 0 1 8.273-1.888c70.373 44.226 129.465 84.961 158.072 108.969 1.28 1.073 2.526 2.111 3.738 3.12 14.43 12.012 24.855 20.69 27.276 37.352 2.286 15.728-2.869 37.194-18.384 76.563-22.438 56.935-24.066 179.935-24.08 181.17a6.003 6.003 0 0 1-6 5.933zm54.123-53.853a5.98 5.98 0 0 1-2.076-.373 6 6 0 0 1-3.553-7.705c19.269-52.24 56.967-173.927 57.345-175.15a5.995 5.995 0 0 1 7.506-3.957 6 6 0 0 1 3.958 7.506c-.379 1.226-38.172 123.216-57.55 175.754a6.004 6.004 0 0 1-5.63 3.925z"/><path d="M399.815 833.461a6 6 0 0 1-5.021-9.277c7.762-11.916 18.586-22.153 25.266-26.106a6 6 0 1 1 6.112 10.326c-5.421 3.209-14.88 12.439-21.323 22.331a6 6 0 0 1-5.034 2.726z"/><path d="M388.265 1012.96s-16.456 32.866-33.505 58.735a482.08 482.08 0 0 0-2.127 3.254l-13.449 19.998 85.183 75.908h78.3c.301-5.894.141-11.803-.478-17.672-1.364-12.226-1.348-26.891-30.17-40.1-34.384-21.174-13.154-80.416-13.154-80.416z" fill="#fff"/><path d="M502.667 1176.855h-78.3a5.998 5.998 0 0 1-3.992-1.521l-85.183-75.908a6 6 0 0 1-.987-7.828l13.42-19.955a538.48 538.48 0 0 1 2.124-3.25c16.649-25.263 32.987-57.793 33.15-58.119a6 6 0 0 1 6.978-3.093l70.6 19.707a6.002 6.002 0 0 1 4.036 7.803c-.193.541-19.039 54.563 10.358 73.099 30.055 13.897 31.8 30.591 33.074 42.791.068.652.135 1.298.207 1.937.653 6.194.823 12.455.507 18.643a5.999 5.999 0 0 1-5.992 5.694zm-76.014-12h70.161c-.008-3.69-.206-7.387-.591-11.043-.071-.63-.141-1.304-.212-1.984-1.193-11.423-2.32-22.213-26.491-33.291a6.06 6.06 0 0 1-.646-.345c-16.054-9.887-23.771-28.423-22.315-53.604.658-11.381 3.028-21.61 4.755-27.8l-59.939-16.73c-5.126 9.913-18.242 34.663-31.604 54.938a484.123 484.123 0 0 0-2.158 3.301l-10.527 15.653zm-74.019-89.906h.01z"/><path d="M501.834 1154.758h-66.929a6 6 0 0 1-4.007-1.534l-82.272-73.809a6 6 0 0 1-.459-8.473 5.998 5.998 0 0 1 8.473-.459l80.562 72.274h64.632a6 6 0 0 1 0 12.001z"/><path d="M385.898 1110.802a6 6 0 0 1-5.303-8.796c17.297-32.849-7.438-52.107-8.5-52.911-2.633-1.994-3.171-5.75-1.188-8.393a5.988 5.988 0 0 1 8.368-1.223c.356.265 8.797 6.624 14.428 18.178 5.22 10.711 9.026 28.069-2.49 49.94a6.001 6.001 0 0 1-5.315 3.205zm66.887 43.956a6.001 6.001 0 0 1-4.845-9.533l24.21-33.234a6 6 0 0 1 9.699 7.067l-24.21 33.234a5.996 5.996 0 0 1-4.854 2.466zm-5.925-78.19c-.308 0-.619-.023-.933-.073l-18.434-2.878a6 6 0 1 1 1.851-11.856l18.434 2.878a6 6 0 0 1-.918 11.929zm-14.64 23.461a6 6 0 0 1-.716-11.957l17.438-2.119c3.29-.407 6.28 1.943 6.68 5.232a6 6 0 0 1-5.232 6.68l-17.438 2.119a5.858 5.858 0 0 1-.732.045zm12.15 21.632a6 6 0 0 1-2.803-11.308l16.849-8.884a6 6 0 1 1 5.597 10.615l-16.849 8.884a5.989 5.989 0 0 1-2.794.693z"/><path d="M659.586 411.817c-21.095 2.244-59.046 14.606-59.046 14.606-24.352 0-107.689-24.933-138.208-35.571s-88.701-108.103-137.194-133.89c-30.965-15.292-40.389-13.886-59.32-6.249 0 0-67.76 22.056-90.856-17.399-12.535 2.38-41.91 1.735-80.422 25.155-31.736 19.304-77.266 162.625-85.452 184.296s-10.642 77.812 33.751 91.702c17.837 4.368 34.432-7.039 34.234-3.444 2.84 12.167 5.874 33.616 21.203 44.318l.875 13.879a26.535 26.535 0 0 0 15.899 22.665c17.486 7.613 50.472 17.101 99.97 11.954 67.466-7.016 87.039-16.346 102.236-26.735 6.705-4.605 9.25-15.196 9.752-23.315v-14.335c15.257-39.095-.304-144.058-.304-144.058.815 6.278 69.823 53.611 92.634 63.749 39.057 9.679 85.212 17.771 178.012 4.82 0 0 35.217 4.846 62.92-1.831 27.471-5.16 29.527-19.39 32.112-36.164 2.964-19.23-.4-32.606-32.796-34.153z" fill="#fff"/><path d="M285.886 453.909c-11.798 7.136-59.828 29.274-80.452 39.52s-84.202 32.489-84.202 32.489-50.914 17.425-79.258 7.533C-.82 516.545 7.971 472.806 8.715 454.905c.962-23.139 52.206-174.626 83.945-193.928 28.148-31.476 58.642-27.663 78.413-7.056 27.969 43.43-39.043 173.047-43.393 180.888 21.547-4.155 108.075-14.423 121.672-17.431S266 403.722 279.89 385.266c11.5-15.282 44.742-32.145 55.727-24.507 2.129 5.986 10.185-1.228 8.21 9.621-1.117 6.137 10.286 2.128 8.486 10.98-.833 4.086 10.976 6.993-1.337 9.628-5.256 1.124-23.113 13.368-29.354 18.386 7.123-2.173 14.955-.434 12.787 6.542-3.91 7.006-10.143 5.876-20.293 20.692-9.766 14.26-28.23 17.301-28.23 17.301z" fill="#fff"/><path d="M605.052 489.764a5.994 5.994 0 0 1-1.569-.21 5.999 5.999 0 0 1-4.227-7.357c3.407-12.609 3.17-42.847-.424-53.922a6.001 6.001 0 0 1 11.415-3.704c4.336 13.367 4.653 45.732.594 60.756a6.003 6.003 0 0 1-5.789 4.437zm-27.472 0a5.994 5.994 0 0 1-1.569-.21 5.999 5.999 0 0 1-4.227-7.357c3.485-12.899 3.535-46.599.085-57.234a6.001 6.001 0 0 1 11.415-3.704c4.491 13.846 3.884 50.007.085 64.068a6.002 6.002 0 0 1-5.789 4.437zm-112.864-60.448a6 6 0 0 1-5.933-6.938c.548-3.552.943-10.933-.671-17.526-1.669 5.416-4.388 11.354-8.819 16.326a6 6 0 0 1-8.959-7.983c8.175-9.175 8.426-24.149 8.428-24.3a6.01 6.01 0 0 1 3.174-5.237 5.996 5.996 0 0 1 6.112.265c16.991 11.121 12.776 39.143 12.588 40.33a6.003 6.003 0 0 1-5.92 5.063z"/><path d="M328.578 443.683c4.263 69.29 9.857 64.705 1.523 110.125l-3.094 13.032c-.502 8.119 2.415 24.499-4.291 29.104-6.081 5.864-39.298 23.023-107.7 27.892-49.549 1.468-87.664-4.206-105.151-11.82-9.134-3.972-10.093-12.859-10.718-22.799l-.875-13.879c-15.328-10.702-25.665-47.138-23.7-82.949 1.322-24.052 18.354-127.98 19.694-145.836" fill="#fff"/><path d="M199.734 630.063c-39.544 0-74.032-4.609-92.262-12.547-12.907-5.612-13.719-18.507-14.312-27.923l-.706-11.202c-15.729-13.645-25.877-49.786-23.871-86.332.765-13.923 6.597-53.453 11.743-88.329 3.803-25.773 7.395-50.117 7.958-57.627.248-3.305 3.117-5.767 6.432-5.534a6 6 0 0 1 5.534 6.433c-.596 7.938-4.052 31.359-8.053 58.479-5.108 34.622-10.898 73.863-11.633 87.236-1.835 33.424 7.65 68.279 21.143 77.699a6 6 0 0 1 2.553 4.543l.875 13.88c.665 10.568 1.802 15.359 7.123 17.674 22.772 9.914 69.392 12.297 102.456 11.327 36.303-2.594 61.199-8.659 75.695-13.294 18.09-5.782 26.448-11.289 28.142-12.923a6.09 6.09 0 0 1 .768-.627c2.289-1.571 1.915-12.036 1.756-16.505-.104-2.917-.202-5.673-.057-8.022.021-.343.072-.683.151-1.016l3.058-12.881c5.495-29.989 4.768-37.102 2.365-60.567-1.114-10.877-2.639-25.773-4.004-47.954a5.999 5.999 0 0 1 5.62-6.356c3.306-.224 6.154 2.312 6.357 5.62 1.349 21.937 2.86 36.693 3.964 47.468 2.474 24.164 3.308 32.305-2.527 64.107a6.27 6.27 0 0 1-.064.303l-2.968 12.5c-.069 1.72.012 3.984.097 6.371.336 9.415.753 21.091-6.544 26.531-7.489 6.755-40.714 24.215-111.081 29.225-.083.006-.166.01-.248.012-5.218.155-10.383.231-15.46.231zm130.368-76.256h.01z"/><path d="M55.19 542.171c-7.777 0-16.747-1.704-25.962-6.943-20.6-11.712-30.649-35.444-29.062-68.631 1.412-29.522 11.396-57.249 13.384-62.507.984-2.604 2.347-6.44 4.073-11.296 20.896-58.797 45.781-121.047 71.921-136.943 34.097-20.737 62.736-25.089 78.122-27.427 2.425-.368 4.519-.687 6.181-1.002a6 6 0 0 1 6.297 2.863c19.891 33.979 79.969 15.928 83.649 14.779 20.024-8.027 40.006-9.119 72.213 11.437 28.65 17.812 49.349 43.61 69.367 68.561 18.877 23.526 36.72 45.765 60.419 61.187 8.538 2.2 15.679 4.111 23.222 6.131 22.722 6.082 46.207 12.369 111.812 27.612 6.08-1.989 28.019-8.821 57.712-14.083 11.657-2.063 22.886 3.387 32.794 8.198 1.148.558 2.291 1.113 3.43 1.654 10.631 5.057 7.152 13.076 5.666 16.501-.82 1.89-1.594 3.674-1.615 5.754-.01.911.248 2.282.52 3.733.876 4.673 2.193 11.699-3.296 17.479-.246.65-.472 2.238-.626 3.315-.519 3.633-1.165 8.153-4.881 10.964-6.664 5.038-17.021 11.465-26.105 14.391-20.943 6.749-59.392 3.439-64.886 2.92-78.702 7.651-132.446 7.306-164.297-1.062-23.755-6.239-124.661-66.539-155.997-120.27a6 6 0 0 1 10.366-6.045c29.938 51.332 128.493 109.406 148.68 114.709 30.531 8.021 83.085 8.24 160.664.668.393-.036.79-.038 1.184.002.406.041 40.885 4.014 60.606-2.344 6.099-1.965 14.944-6.858 22.148-12.24.259-.733.493-2.369.638-3.39.472-3.308 1.008-7.056 3.737-9.812 1.148-1.159 1.074-2.783.27-7.073-.367-1.956-.746-3.979-.725-6.067.046-4.507 1.526-7.917 2.606-10.407.109-.25.231-.533.348-.811l-.159-.077c-1.168-.555-2.341-1.125-3.518-1.696-9.069-4.403-17.633-8.562-25.458-7.177-33.397 5.918-57.323 14.086-57.561 14.167a6.006 6.006 0 0 1-3.31.172c-67.054-15.566-90.844-21.935-113.851-28.093-7.79-2.085-15.148-4.055-24.05-6.343a5.979 5.979 0 0 1-1.743-.76c-25.756-16.501-45.251-40.799-64.105-64.298-19.387-24.163-39.435-49.148-66.404-65.916-28.275-18.047-43.97-17.467-61.543-10.375a5.992 5.992 0 0 1-.388.141c-.725.236-17.995 5.788-38.448 6.389-26.37.775-46.021-7.133-57.164-22.92-.823.128-1.689.26-2.599.398-14.555 2.211-41.648 6.328-73.689 25.815-26.02 15.824-55.682 99.288-66.849 130.709-1.748 4.919-3.129 8.804-4.155 11.52-1.875 4.962-11.297 31.118-12.622 58.838-1.376 28.775 6.365 48.164 23.007 57.626 19.819 11.27 38.227 1.407 39 .982 2.896-1.592 6.543-.548 8.147 2.339a5.988 5.988 0 0 1-2.297 8.139c-.645.363-10.788 5.915-24.818 5.915zm144.475 62.08c-52.2 0-86.659-7.985-105.349-24.406a6 6 0 1 1 7.921-9.015c16.178 14.214 48.965 21.421 97.447 21.421l.808-.001c61.613-.1 115.873-18.851 120.99-30.961a6 6 0 0 1 11.053 4.672c-5.495 13.002-29.404 21.986-48.493 27.233-25.4 6.98-55.846 11.011-83.531 11.056l-.846.001z"/><path d="M211.716 148.756s-14.576-8.062-15.18-25.601c-.399-11.599 9.436-19.036 19.59-16.983 9.712 1.964 16.216 17.066 16.216 17.066 6.513-53.048 54.845-53.032 54.845-53.032s4.436-1.766 8.502-5.128c4.066-3.363 9.029-9.368 9.029-9.368s20.087-18.842.939-49.71c0 0-4.238 25.571-36.95 36.517l-.088-.132s-36.106-30.276-80.153-11.195c-31.203 13.517-63.904 43.679-52.032 91.629 8.518 34.407 28.796 50.565 42.806 57.846 27.587-1.967 32.476-31.909 32.476-31.909z" fill="#17adff"/><path d="M179.239 186.664c-.961 0-1.91-.23-2.767-.676-16.01-8.32-36.964-25.783-45.863-61.728-5.831-23.553-2.211-44.949 10.762-63.596 10.026-14.411 25.905-26.835 44.709-34.981 40.428-17.516 74.163 3.163 83.729 10.062 25.903-10.01 29.778-29.895 29.936-30.768.441-2.443 2.346-4.385 4.785-4.85s4.917.6 6.226 2.709c16.997 27.4 6.504 49.063-1.647 56.978-1.086 1.293-5.621 6.601-9.595 9.887-4.66 3.854-9.563 5.863-10.107 6.079a6.001 6.001 0 0 1-2.219.426h-.002c-1.74.011-43.122.807-48.888 47.764a6 6 0 0 1-11.466 1.642c-1.734-3.982-6.93-12.554-11.895-13.559-3.203-.651-6.414.145-8.808 2.173-2.441 2.068-3.718 5.166-3.596 8.724.474 13.773 11.646 20.304 12.122 20.575 2.176 1.242 3.387 3.726 2.984 6.198-1.955 11.976-12.408 35.104-37.973 36.926-.143.01-.285.015-.427.015zm39.332-155.829c-8.561 0-17.918 1.613-27.721 5.86-14.737 6.384-61.795 31.358-48.593 84.681 7.535 30.434 24.616 45.646 38.209 53.141 16.166-2.047 22.392-16.428 24.447-23.208-5.223-4.167-13.868-13.244-14.374-27.947-.248-7.198 2.607-13.865 7.832-18.292 5.214-4.416 12.119-6.157 18.944-4.778 4.871.985 8.956 4.074 12.171 7.578 6.323-20.241 19.257-30.867 29.979-36.377 11.583-5.951 22.564-7.042 26.35-7.242 1.269-.602 3.761-1.902 6.051-3.796 3.57-2.953 8.182-8.512 8.228-8.567.161-.194.335-.38.519-.553.531-.515 11.527-11.519 5.474-30.46-5.363 9.196-15.735 20.728-35.477 27.333a5.999 5.999 0 0 1-6.241-1.543c-2.992-2.372-21.075-15.83-45.798-15.83z" fill="#17adff"/><path d="M254.833 253.553c-3.904-25.552-3.048-40.983 3.685-48.229l-75.023-24.66c.081 27.805-22.163 22.614-30.673 30.194 0 0 7.409 18.02 43.349 34.586 26.58 12.252 58.662 8.109 58.662 8.109z" fill="#fff"/><path d="M232.516 200.633s34.81 14.874 63.982-8.352c21.336-16.988 20.447-39.99 20.447-39.99 5.719-1.547 12.176-6.676 9.695-12.139-2.894-6.374-13.073-9.439-19.605-26.242-.079-9.849.839-34.428-19.848-43.704 0 0-48.332-.016-54.845 53.032 0 0-6.504-15.101-16.216-17.066-10.154-2.054-19.989 5.383-19.59 16.983.604 17.538 15.18 25.601 15.18 25.601s.893 28.845-28.221 31.909" fill="#fff"/><path d="M258.337 211.378c-15.629 0-27.317-4.858-28.178-5.227a6 6 0 0 1 4.703-11.04c1.322.556 31.997 13.099 57.899-7.524 18.543-14.763 18.211-34.271 18.188-35.094-.078-2.772 1.752-5.269 4.429-5.993 3.171-.857 5.518-2.969 5.793-3.875-.608-1.284-2.293-2.838-4.24-4.634-4.586-4.229-10.866-10.02-15.488-21.907a5.991 5.991 0 0 1-.407-2.125l-.007-1.48c-.032-10.061-.092-28.567-15.099-36.225-7.259.432-42.356 4.748-47.632 47.716a6 6 0 0 1-11.466 1.642c-1.734-3.982-6.93-12.554-11.895-13.559-3.203-.651-6.414.145-8.808 2.173-2.441 2.068-3.718 5.166-3.595 8.724.474 13.773 11.646 20.304 12.121 20.575 1.814 1.035 2.995 2.959 3.059 5.046.368 11.903-6.178 35.177-33.59 38.061a5.999 5.999 0 0 1-6.595-5.339 6 6 0 0 1 5.339-6.595c18.573-1.955 22.085-16.379 22.72-22.862-5.114-3.899-14.519-13.119-15.047-28.474-.248-7.197 2.606-13.865 7.832-18.292 5.214-4.416 12.119-6.157 18.944-4.778 4.871.985 8.956 4.074 12.171 7.578 6.323-20.241 19.257-30.867 29.979-36.377 14.01-7.199 27.14-7.286 27.722-7.286h.002c.845 0 1.681.18 2.453.525 23.268 10.434 23.351 36.555 23.386 47.709l.001.3c3.556 8.61 8.052 12.756 12.036 16.429 2.811 2.592 5.466 5.04 7.038 8.503 1.476 3.249 1.434 6.854-.117 10.148-1.878 3.987-5.599 6.874-9.236 8.652-.794 8.223-4.628 26.262-22.515 40.503-14.116 11.238-29.291 14.402-41.9 14.402z"/><ellipse cx="280.653" cy="117.91" rx="9.091" ry="12.5" transform="matrix(.9995 -.0322 .0322 .9995 -3.6544 9.1067)"/><path d="M304.72 61.71a5.98 5.98 0 0 1-4.377-1.896 5.999 5.999 0 0 1 .241-8.452c.613-.596 11.552-11.606 5.496-30.517a55.68 55.68 0 0 1-7.477 10.012c-17.428 18.602-44.054 22.538-63.453 22.538h-.344a6 6 0 0 1 .014-12h.354c57.352 0 64.302-34.927 64.57-36.416a6.03 6.03 0 0 1 4.784-4.852c2.439-.46 4.917.599 6.227 2.709 17.195 27.721 6.255 49.569-1.932 57.249a5.973 5.973 0 0 1-4.103 1.625z"/><path d="M302.684 249.415c-24.835-5.109-36.866 1.298-82.328 36.2-36.86 21.894-104.106 23.215-109.868-.772-11.272-63.19 3.104-74.349 42.335-73.985 20.899-.011 63.102 7.294 79.099 10.539 24.742 4.087 50.625 11.917 65.51 18.924 11.678 7.036 10.158 10.21 5.252 9.094z" fill="#fff"/><path d="M317.916 258.389a5.971 5.971 0 0 1-3.577-1.187c-40.118-29.856-93.413-24.275-132.329-20.201-11.852 1.241-22.087 2.313-30.707 2.313-20.178.001-28.049-9.292-28.657-17.251-.678-8.869 7.304-20.576 32.034-24.38a6 6 0 0 1 1.824 11.862c-16.846 2.591-22.088 9.053-21.893 11.604.19 2.487 5.627 6.167 16.691 6.166 7.994 0 17.94-1.042 29.458-2.248 40.88-4.281 96.868-10.143 140.742 22.509a6 6 0 0 1-3.586 10.813z"/><path d="M154.449 308.723c-9.113 0-17.503-1.014-24.648-2.942-16.247-4.388-28.382-18.047-30.916-34.798-3.282-21.696-.426-38.143 8.73-50.279 13.221-17.524 36.895-21.897 58.047-24.62a6 6 0 0 1 1.532 11.903c-18.73 2.411-39.584 6.139-50 19.944-7.11 9.425-9.218 22.921-6.444 41.258 1.822 12.045 10.528 21.861 22.179 25.007 26.384 7.128 71.818-.567 102.178-25.78 26.187-21.745 45.536-35.457 74.743-28.192a6 6 0 0 1-2.896 11.645c-22.985-5.715-37.887 3.945-64.181 25.78-26.064 21.643-60.535 31.074-88.324 31.074z"/><path d="M166.421 208.036a6 6 0 0 1-.788-11.948c8.232-1.101 10.186-7.629 11.738-15.406.088-.441.171-.857.252-1.245a5.997 5.997 0 0 1 7.101-4.646 6 6 0 0 1 4.645 7.101c-.074.354-.15.734-.23 1.138-1.351 6.77-4.514 22.625-21.915 24.953-.27.035-.538.053-.803.053z"/><path d="M535.499 1068.563s7.789 47.307 10.91 78.791l3.621 23.502h159.29s-1.564-15.076-2.385-23.728c-1.091-11.508-5.689-27.306-38.277-31.266-48.026-9.32-63.897-73.635-63.897-73.635z" fill="#fff"/><path d="M709.32 1176.855H550.03a6 6 0 0 1-5.93-5.086l-3.621-23.502a5.902 5.902 0 0 1-.041-.322c-3.066-30.928-10.782-77.937-10.86-78.408a6.001 6.001 0 0 1 3.788-6.583l69.262-26.336a6 6 0 0 1 7.958 4.171c.149.601 15.527 60.529 59.016 69.143 36.123 4.462 42.018 23.034 43.306 36.629.809 8.526 2.364 23.525 2.38 23.676a6 6 0 0 1-5.968 6.618zm-154.144-12h147.495a2800.49 2800.49 0 0 1-1.71-17.162c-.452-4.766-1.493-10.273-5.789-14.989-5.15-5.653-14.315-9.316-27.238-10.887a5.979 5.979 0 0 1-.419-.066c-21.392-4.151-40.068-19.089-54.01-43.198-6.486-11.218-10.52-21.894-12.656-28.42l-58.648 22.301c2.058 12.893 7.636 48.764 10.163 74.167z"/><path d="M705.955 1154.107h-.029l-159.545-.754a6.001 6.001 0 0 1 .028-12h.029l159.545.754a6.001 6.001 0 0 1-.028 12z"/><path d="M592.524 1153.354a6.002 6.002 0 0 1-5.909-5c-2.83-16.717-10.456-28.106-22.666-33.854-8.96-4.216-17.237-3.787-17.318-3.782-3.304.202-6.169-2.272-6.394-5.578a6 6 0 0 1 5.578-6.395c.457-.03 11.353-.7 23.245 4.897 10.983 5.17 24.998 16.776 29.387 42.71a6 6 0 0 1-5.923 7.002zm85.547-.001a6 6 0 0 1-6-6v-27.532a6 6 0 0 1 12 0v27.532a6 6 0 0 1-6 6zm-75.616-60.341a6 6 0 0 1-2.184-11.591l16.256-6.347a5.995 5.995 0 0 1 7.771 3.407 6 6 0 0 1-3.407 7.771l-16.256 6.347a5.98 5.98 0 0 1-2.18.413zm16.096 21.518a5.999 5.999 0 0 1-4.146-10.337l13.464-12.864a5.998 5.998 0 0 1 8.483.193 5.999 5.999 0 0 1-.193 8.482l-13.464 12.864a5.983 5.983 0 0 1-4.144 1.662zm22.516 13.839a5.998 5.998 0 0 1-5.231-8.929l7.276-13.015a6 6 0 0 1 10.474 5.855l-7.276 13.015a6 6 0 0 1-5.243 3.074z"/></svg></g><g transform="translate(404.0 1177.0) rotate(0.0 181.5 236.0) scale(1.0015119243375674 1.0010710611989522)"><svg width="362.452" height="471.495" viewBox="0 0 362.452 471.495"><path d="M171.92 70.76h26.628v114.966H171.92z"/><path d="M199.628 325.534h-28.236a5.12 5.12 0 0 1-5.119-5.119V178.141a5.12 5.12 0 0 1 5.119-5.119h28.236a5.12 5.12 0 0 1 5.119 5.119v142.275a5.119 5.119 0 0 1-5.119 5.118z"/><path d="m324.375 86.445-7.751 26.706c-25.824 3.793-76.02-8.455-133.231-26.086-57.21-17.629-105.68-35.786-125.243-53.566l7.751-26.706.01.003c25.82-3.782 76.664 6.195 133.865 23.822S304.789 68.67 324.365 86.442z" fill="#fff"/><path d="M306.108 119.833c-24.998 0-65.165-8.754-124.482-27.033C112.313 71.44 71.795 54.008 54.115 37.94a6.003 6.003 0 0 1-1.727-6.113L60.139 5.12A6.002 6.002 0 0 1 65.308.821C99.903-4.11 165.476 13.768 201.543 24.883c61.4 18.922 107.578 39.696 126.745 57.017a6.005 6.005 0 0 1 1.849 6.218l-7.751 26.706a6.001 6.001 0 0 1-4.89 4.264c-3.375.495-7.167.745-11.388.745zM64.995 31.442c17.7 14.104 57.105 30.457 120.166 49.889 62.905 19.387 104.49 28.015 126.819 26.299l5.555-19.14c-19.427-15.739-62.548-34.58-119.525-52.138C141.164 18.834 95.18 10.194 70.55 12.301z"/><path d="M314.664 116.919c-3.537 9.028-62.979-.549-134.715-22.12S53.358 46.918 56.89 37.887c1.601-4.093 60.13 7.27 131.866 28.841s127.511 46.099 125.908 50.191z"/><path d="M301.64 126.369c-7.354 0-17.098-1.052-29.726-3.114-25.632-4.184-58.906-12.25-93.693-22.71-31.39-9.439-61.531-20.399-84.87-30.861-36.603-16.408-40.35-24.106-41.581-26.636-1.531-3.146-1.099-5.73-.468-7.346 2.294-5.863 10.372-4.887 17.5-4.025 7.102.859 17.116 2.636 28.96 5.137 26.735 5.646 59.664 14.229 92.722 24.169 31.3 9.412 62.671 20.334 88.334 30.753 37.976 15.419 40.137 19.864 41.176 22 .844 1.735.935 3.643.257 5.373-1.916 4.886-7.567 7.26-18.611 7.26zM69.641 43.842c15.24 9.913 53.984 27.755 112.036 45.211 31.73 9.542 62.613 17.167 86.959 21.473 15.543 2.748 25.411 3.642 31.599 3.773-17.724-8.757-58.296-25.312-113.207-41.824-55.863-16.799-98.303-25.976-117.387-28.633zm288.564 427.652h-10.167c-.276-.003-.648-.225-.846-.417L191.912 321.71l6.735-53.315 162.769 196.158c2.372 2.731.405 6.981-3.211 6.941z"/><path d="m109.776 471.494 11.296-.144a.838.838 0 0 0 .717-.423l79.17-146.171-15.449-57.4-79.675 198.394c-1.104 2.772.958 5.777 3.941 5.744z"/><path d="M4.247 471.494h9.702c.457-.005.902-.287 1.237-.599l163.778-152.898-.116-50.118L1.098 464.483c-2.462 2.71-.511 7.051 3.149 7.011z"/></svg></g></svg>