<svg xmlns="http://www.w3.org/2000/svg" viewBox="0 0 2400 2000" width="2400" height="2000"><g transform="translate(575.0 279.0) rotate(0.0 655.0 500.0) scale(0.9994049344665009 0.9994263292869893)"><svg width="1310.78" height="1000.574" viewBox="0 0 1310.78 1000.574"><rect fill="#fff" height="988.574" rx="49.498" width="1298.78" x="6" y="6"/><path d="M1255.282 1000.574H55.5A55.561 55.561 0 0 1 0 945.076V55.5A55.56 55.56 0 0 1 55.5 0h1199.782a55.56 55.56 0 0 1 55.5 55.5v889.576a55.561 55.561 0 0 1-55.5 55.498zM55.5 12A43.547 43.547 0 0 0 12 55.5v889.576a43.547 43.547 0 0 0 43.5 43.5h1199.782a43.547 43.547 0 0 0 43.5-43.5V55.5a43.547 43.547 0 0 0-43.5-43.5z"/><circle cx="104.237" cy="71.568" r="23.351"/><path d="M104.237 100.3a28.735 28.735 0 1 1 28.735-28.735 28.766 28.766 0 0 1-28.735 28.735zm0-46.7a17.968 17.968 0 1 0 17.969 17.967A17.988 17.988 0 0 0 104.237 53.6z"/><circle cx="194.306" cy="71.568" r="23.351"/><path d="M194.307 100.3a28.735 28.735 0 1 1 28.734-28.735 28.767 28.767 0 0 1-28.734 28.735zm0-46.7a17.968 17.968 0 1 0 17.968 17.967A17.988 17.988 0 0 0 194.307 53.6z"/><circle cx="284.693" cy="71.568" r="23.351"/><path d="M284.693 100.3a28.735 28.735 0 1 1 28.735-28.735 28.767 28.767 0 0 1-28.735 28.735zm0-46.7a17.968 17.968 0 1 0 17.969 17.967A17.988 17.988 0 0 0 284.693 53.6zm1020.087 87.807H12.363a6 6 0 0 1 0-12H1304.78a6 6 0 0 1 0 12z"/></svg></g><g transform="translate(908.0 562.0) rotate(0.0 -290.5 608.5) scale(-0.9987743096681697 0.9995860383210241)"><svg width="581.713" height="1217.504" viewBox="0 0 581.713 1217.504"><path d="M460.311 582.159c8.532 26.552 16.107 64.589 13.073 117.251-4.1 71.1-15.248 168.956-15.248 168.956s33.379 27.827 71.945 189.763l-62.208 29.723s-27.039-50.574-82.762-139.773C355.537 900.737 347.6 874.7 343.6 858.015c-5.72-23.885-10.027-49.064-16.911-77.893L278.85 880.329s1.715 25.293 1.715 62.741c0 60.432-19.157 160.223-19.157 160.223h-63.873s-14.623-105.336-19.619-179.725c-2.288-34.058-2.114-33.257-2.947-64.9-.99-37.562 15.567-157 51.794-283.019 0 .003 103.516 49.199 233.548 6.51z" fill="#ff002a"/><path d="M266.365 1109.293H192.31l-.718-5.175c-.146-1.056-14.71-106.4-19.663-180.148-2.071-30.84-2.134-33.287-2.739-56.7l-.219-8.437C167.92 818.944 185.414 697.77 221 574l1.954-6.8 6.388 3.036c.25.119 25.922 12.126 66.864 18.835a344.128 344.128 0 0 0 162.237-12.61l5.737-1.883 1.847 5.748c11.384 35.426 15.876 75.609 13.351 119.432-3.669 63.7-13.1 149.807-14.958 166.45 3.613 4.03 10.907 13.614 20.631 33.7 17.661 36.486 34.776 89.251 50.87 156.831l1.123 4.715-71.755 34.283-2.7-5.056c-.27-.505-27.61-51.461-82.56-139.423-29.12-46.616-37.878-73.571-42.255-91.845-2.762-11.537-5.174-23.258-7.729-35.668-1.7-8.274-3.441-16.723-5.359-25.482l-39.745 83.246c.368 6.141 1.631 29.591 1.631 61.561 0 60.309-18.478 157.257-19.265 161.354zm-63.592-12h53.647c3.786-20.7 18.145-102.6 18.145-154.223 0-36.782-1.685-62.085-1.7-62.336l-.106-1.57 55.83-116.938 3.94 16.5c3.608 15.109 6.484 29.084 9.265 42.6 2.534 12.313 4.928 23.943 7.645 35.292C353.6 874.006 362 899.756 390.2 944.9c45.348 72.591 72 120.149 80.218 135.085l52.7-25.178C504.153 976.29 486.661 931.26 475.236 907.2c-12.717-26.778-20.927-34.211-21.009-34.283l-2.485-2.072.433-3.159c.111-.977 11.18-98.512 15.219-168.622 2.3-39.985-1.408-76.738-11.033-109.35A356.293 356.293 0 0 1 293.8 600.833c-30.7-5.073-52.814-12.865-63.129-16.991-34 120.3-50.713 236.257-49.7 274.671l.219 8.443c.6 23.193.661 25.617 2.716 56.21 4.294 63.985 15.887 152.042 18.867 174.127z" fill="#ff002a"/><path d="M317.883 804.563a6 6 0 0 1-5.85-4.69l-19.253-85.956a6 6 0 1 1 11.71-2.623l19.253 85.956a6.007 6.007 0 0 1-5.86 7.313zm185.429 272.358a6 6 0 0 1-5.622-3.9c-.3-.788-29.978-79.814-78.356-168.047-12.27-22.38-10.588-64.159-8.457-117.052 1.043-25.891 2.225-55.236 1.927-86.144-.649-67.028-8.908-95.8-13.185-101.653a1.676 1.676 0 0 0 .154.189l9.111-7.809c1.539 1.8 15.058 20.109 15.919 109.157.3 31.208-.887 60.712-1.935 86.743-2.056 51.033-3.68 91.342 6.989 110.8 48.814 89.03 78.778 168.824 79.075 169.619a6.005 6.005 0 0 1-5.62 8.1z"/><path d="M418.227 707.673a5.979 5.979 0 0 1-2.935-.77c-45.337-25.483-59.508-66.884-60.089-68.634a6 6 0 0 1 11.386-3.792c.129.386 13.443 38.841 54.583 61.965a6 6 0 0 1-2.945 11.231zm23.127 181.087a6 6 0 0 1-3.909-10.555l6.689-5.735-6.175-.863a6 6 0 1 1 1.659-11.884l19.348 2.7a6 6 0 0 1 3.076 10.5l-16.785 14.393a5.975 5.975 0 0 1-3.903 1.444zM202.179 678.567a6 6 0 0 1-2.611-11.406c.39-.194 22.612-11.509 31.6-44.513a6 6 0 1 1 11.578 3.152c-10.538 38.706-36.872 51.649-37.988 52.181a5.978 5.978 0 0 1-2.579.586zm56.169 211.91a6 6 0 0 1-1.183-11.882l4.819-.975-11.826-6.743a6 6 0 1 1 5.943-10.424l25.72 14.663a6 6 0 0 1-1.782 11.093l-20.494 4.147a6.054 6.054 0 0 1-1.197.121z"/><path d="M530.081 1058.129a427.364 427.364 0 0 1 37.035 71.668l8.6 23.2-82.335 58.503h-78.3a110.732 110.732 0 0 1 .479-17.452c1.363-12.073 1.348-26.554 30.17-39.6 42.985-19.456 22.147-66.6 22.147-66.6z" fill="#fff"/><path d="M493.381 1217.5h-78.3a6 6 0 0 1-5.987-5.606 116.132 116.132 0 0 1 .5-18.519q.1-.946.206-1.91c1.281-12.119 3.036-28.717 33.452-42.483 15.4-6.972 23.365-18.7 23.662-34.851a64.073 64.073 0 0 0-4.534-23.869 6.012 6.012 0 0 1 2.906-7.828l62.207-29.722a6 6 0 0 1 7.569 2.07 429.12 429.12 0 0 1 37.626 72.787c.019.046.036.092.054.139l8.6 23.2a6 6 0 0 1-2.151 6.975l-82.331 58.511a6 6 0 0 1-3.479 1.106zm-72.448-12h70.533l77.023-54.738-6.974-18.815a433.774 433.774 0 0 0-33.626-66.125l-52.527 25.1a75.493 75.493 0 0 1 3.556 23c-.169 14.716-5.636 34.64-30.718 45.993-24.153 10.933-25.277 21.56-26.467 32.812-.071.672-.141 1.337-.216 2a100.813 100.813 0 0 0-.584 10.773z"/><path d="m567.116 1129.797-84.273 59.885h-66.929" fill="#fff"/><path d="M482.843 1195.682h-66.929a6 6 0 0 1 0-12h65.015l82.711-58.776a6 6 0 1 1 6.951 9.782l-84.272 59.885a6 6 0 0 1-3.476 1.109z"/><path d="M534.757 1158.793a6 6 0 0 1-5.612-3.876c-8.194-21.626-3.319-39 2.212-49.768a61.671 61.671 0 0 1 14.257-18.413 6 6 0 0 1 7.575 9.306c-1.088.9-25.386 21.461-12.822 54.624a6 6 0 0 1-5.61 8.127z"/><path d="m464.96 1189.682-24.21-32.819" fill="#fff"/><path d="M464.965 1195.683a5.993 5.993 0 0 1-4.834-2.439l-24.21-32.819a6 6 0 0 1 9.657-7.124l24.21 32.819a6 6 0 0 1-4.823 9.563z"/><path d="m492.471 1109.887-19.087.727" fill="#fff"/><path d="M473.38 1116.614a6 6 0 0 1-.224-12l19.086-.727a6 6 0 0 1 .457 11.991l-19.086.727a2.28 2.28 0 0 1-.233.009z"/><path d="m489.639 1136.131-19.341-5.287" fill="#fff"/><path d="M489.642 1142.133a6 6 0 0 1-1.586-.214l-19.34-5.288a6 6 0 0 1 3.165-11.575l19.341 5.288a6 6 0 0 1-1.58 11.789z"/><path d="m477.097 1159.595-20.562-11.37" fill="#fff"/><path d="M477.092 1165.6a5.967 5.967 0 0 1-2.9-.75l-20.562-11.369a6 6 0 0 1 5.807-10.5L480 1154.345a6 6 0 0 1-2.908 11.251z"/><path d="M263.853 1103.293s6.152 52.251 3.218 81.485v21.822H104.526s-1.082-14.879-.311-22.912c1.026-10.682 6.3-18.589 33.667-24.475 58.458-12.574 56.327-55.92 56.327-55.92z" fill="#fff"/><path d="M267.071 1212.6H104.526a6 6 0 0 1-5.984-5.565c-.046-.628-1.11-15.48-.3-23.921 1.538-16.012 11.939-24.079 38.377-29.766 52.865-11.371 51.615-49.378 51.6-49.761a6 6 0 0 1 5.993-6.294h69.644a6 6 0 0 1 5.959 5.3c.254 2.153 6.154 52.893 3.259 82.483v21.524a6 6 0 0 1-6 6zm-156.881-12h150.881v-15.822c0-.2.01-.4.029-.6 2.3-22.874-1.191-60.964-2.631-74.886h-58.64a57.866 57.866 0 0 1-6.6 20.12c-6.782 12.422-21.671 28.693-54.089 35.666-27.686 5.956-28.39 13.289-28.956 19.182a134.715 134.715 0 0 0 .006 16.34z"/><path d="M267.071 1190.778H104.124a6 6 0 0 1 0-12h162.947a6 6 0 1 1 0 12z"/><path d="M219.949 1190.779a6.006 6.006 0 0 1-5.883-7.213c3.261-15.811 13.437-28.511 29.429-36.727a78.246 78.246 0 0 1 22.953-7.584 6 6 0 0 1 1.606 11.892 67.259 67.259 0 0 0-19.381 6.525c-12.649 6.589-20.338 16.116-22.854 28.318a6 6 0 0 1-5.87 4.789zm-81.785-.001a6 6 0 0 1-6-6v-25.565a6 6 0 0 1 12 0v25.565a6 6 0 0 1-6 6zm71.1-56.029a6 6 0 0 1-2.247-.438l-18.731-7.575a6 6 0 0 1 4.5-11.125l18.731 7.575a6 6 0 0 1-2.252 11.563zm-15.132 19.98a5.984 5.984 0 0 1-4.271-1.785l-12.66-12.825a6 6 0 0 1 8.541-8.43l12.659 12.825a6 6 0 0 1-4.269 10.215zm-21.173 12.85a6 6 0 0 1-5.312-3.2l-6.841-12.964a6 6 0 0 1 10.613-5.6l6.842 12.965a6 6 0 0 1-5.3 8.8z"/><path d="m140.868 286.81-33.394-30.182a17.406 17.406 0 0 0-15.327-4.1l-28.485 6.118A17.4 17.4 0 0 0 51.156 269.2l-3.8 9.495a17.4 17.4 0 0 0-.845 10.176l4.974 22.79s8.427 5.246 16.307 1.8a17.013 17.013 0 0 0 7.011-5.873s13.019 15.642 41.566 18.706z" fill="#fff"/><path d="M51.481 317.658a6 6 0 0 1-5.856-4.722l-4.974-22.79a23.316 23.316 0 0 1 1.136-13.684l3.8-9.494A23.371 23.371 0 0 1 62.4 252.776l28.484-6.119a23.464 23.464 0 0 1 20.61 5.52l33.394 30.182a6 6 0 0 1-8.046 8.9l-33.391-30.179a11.433 11.433 0 0 0-10.043-2.69l-28.485 6.118a11.393 11.393 0 0 0-8.2 6.916l-3.8 9.5a11.361 11.361 0 0 0-.554 6.669l4.973 22.789a6 6 0 0 1-5.867 7.281z"/><path d="M415.711 207.069s-.377-.245-1.1-.657a64.577 64.577 0 0 0-7.274-43.344 53.426 53.426 0 0 0-16.939-18.44s-20.465-14.366-65.5 2.738C249.82 175.88 246.407 225.3 246.407 225.3s-3.367 18.9 10.951 31.246a122.609 122.609 0 0 0-10.277 18.772s-11.217 18.656-16.564 59.769v-.165c-25.917-16.442-89.649-48.112-89.649-48.112l-24.5 39.48s40.219 52.548 112.688 88.078q.537 7.17 1.319 14.741a188.267 188.267 0 0 1 .667 31.139c-1.025 17.8-7.741 29.983-10.1 47.963a148.858 148.858 0 0 0-1.064 22.283 22.058 22.058 0 0 0 2.469 9.161l-.6 26.224a29.835 29.835 0 0 0 13.531 25.594c14.334 9.436 43.123 20.832 100.313 24.953 54.426 3.922 102.679-14.255 114.419-21.242 8.163-4.859 14.472-11.89 14.01-21.068l-.784-28.592c7.446-27.266-6.048-29.167-8.693-57.5s11.84-71.675 18.34-130.015c11.773-105.588-57.172-150.94-57.172-150.94z" fill="#fff"/><path d="M229.055 420.37a5.969 5.969 0 0 1-2.637-.615c-72.9-35.74-113.135-87.627-114.812-89.818a6 6 0 0 1-.334-6.811l24.5-39.48a6 6 0 0 1 7.768-2.209c2.614 1.3 64.3 32 90.2 48.421a6 6 0 1 1-6.428 10.133c-21.217-13.459-68.851-37.636-84.227-45.364l-19.353 31.188c9.9 11.758 47.823 53.675 107.974 83.166a6 6 0 0 1-2.645 11.389zm123.464 169.309c-5.922 0-11.768-.222-17.472-.671-40.609-3.2-72.068-11.029-93.5-23.267-17.239-9.843-27.32-22.63-27.658-35.085a161.229 161.229 0 0 1 1.1-23.136 6 6 0 1 1 11.92 1.381 149.53 149.53 0 0 0-1.027 21.43c.359 13.184 23.832 39.914 110.11 46.714a236.813 236.813 0 0 0 80.28-8.163c27.53-8 39.326-18.128 41.186-24.94 3.874-14.182 1.551-19.943-1.966-28.663-2.562-6.352-5.75-14.258-6.912-26.7-1.58-16.928 2.443-37.881 7.536-64.409 3.763-19.6 8.029-41.824 10.815-66.829 11.226-100.762-53.856-144.825-54.515-145.258a6 6 0 0 1 6.6-10.026c.747.492 18.485 12.328 34.752 37.643 14.909 23.2 31.366 62.68 25.094 118.97-2.838 25.475-7.151 47.941-10.957 67.763-4.913 25.59-8.793 45.8-7.372 61.03 1 10.7 3.589 17.119 6.093 23.328 3.781 9.376 7.352 18.231 2.414 36.314-4.89 17.9-33.059 28.549-49.414 33.3a246.425 246.425 0 0 1-67.107 9.274z"/><path d="M350.884 622.967c-5.179 0-10.424-.176-15.715-.557-59.212-4.267-88.793-16.454-103.181-25.926a35.686 35.686 0 0 1-16.23-30.742l.6-26.224a6 6 0 1 1 12 .272l-.6 26.224a23.753 23.753 0 0 0 10.832 20.447c13.2 8.686 40.812 19.9 97.444 23.98 52.149 3.76 99.551-13.649 110.919-20.414 5.259-3.13 11.451-8.379 11.087-15.611v-.137l-.785-28.591a6 6 0 1 1 12-.329l.784 28.527c.486 10.269-5.527 19.661-16.938 26.452-12.959 7.705-54.595 22.628-102.217 22.629zM230.371 435.109a6 6 0 0 1-5.961-5.382c-11.224-108.255 16.351-155.54 17.53-157.5a6 6 0 0 1 10.293 6.17c-.067.113-6.74 11.551-12.008 35.631-4.874 22.278-9.5 60.22-3.878 114.462a6.01 6.01 0 0 1-5.976 6.619zM345.87 276.872a6 6 0 0 1-2.08-11.629c33.018-12.2 54.639-29.955 62.525-51.335 8.1-21.959-.251-40.82-4.218-47.91a47.417 47.417 0 0 0-15.048-16.389 6 6 0 1 1 6.692-9.961 59.319 59.319 0 0 1 18.829 20.491 69.4 69.4 0 0 1 5 57.921c-6.37 17.275-23.619 41.44-69.62 58.44a5.98 5.98 0 0 1-2.08.372z"/><path d="M297.649 236.605a57.5 57.5 0 0 1-18.4-2.7c-9.819-3.347-16.7-9.834-19.895-18.758a6 6 0 1 1 11.3-4.047c1.976 5.516 6.054 9.26 12.47 11.446 17.4 5.933 48.1-1.828 64.764-12.5 11.988-7.68 18.936-15.831 20.09-23.571a14.92 14.92 0 0 0-2.475-10.82 6 6 0 1 1 9.141-7.774 26.4 26.4 0 0 1 5.2 20.365c-1.706 11.428-10.28 22.163-25.485 31.905-14.402 9.225-37.122 16.454-56.71 16.454z"/><path d="M289.392 272.762a67.751 67.751 0 0 1-15.761-1.853c-39.308-9.373-33.2-46.287-33.131-46.659a6 6 0 0 1 11.818 2.082 32.985 32.985 0 0 0 1.395 14.354c3.206 9.481 10.844 15.723 22.7 18.55 32.28 7.7 59.424-16.91 59.694-17.16a6 6 0 0 1 8.162 8.8c-1.107 1.024-23.962 21.885-54.877 21.886z"/><path d="M343.218 309.3c-21.986 15.373-84.153 117.478-84.153 117.478l-144.128 10.587c-14.2-11.169-12.015-12.617-32.279-27.245-8.377-6.048-30.5-15.3-30.5-15.3s-5.464 6.38 1.142 15.68c4.149 5.84 11.77 11.448 11.77 11.448a250.232 250.232 0 0 1-25.633-5.25c-13.94-3.77-33.384-15.688-33.384-15.688-.7 6.047 5.934 12.249 5.019 17.182-1.158 6.252 6.331 7.579 6.257 14.561-.046 4.367 6.208 7.049 7.608 12.3 2.447 9.163 22.769 20.629 29.993 24.162 23.94 11.7 40.648 12.573 40.648 12.573l-1.158.078s40.87 17.693 154.635 28.07c21.9 2 41.562-2.339 65.021-20.552 42.935-33.34 134.067-123.967 110.624-170.928 0 0-9.076-19.011-37.879-21.453-24.685-2.093-43.603 12.297-43.603 12.297z" fill="#fff"/><path d="M258.387 516.369c-3.217 0-6.5-.156-9.877-.464-110.026-10.036-152.231-26.762-156.21-28.428-6.061-.778-20.857-3.517-40-12.878-4.932-2.412-29.708-15.095-33.155-28-.286-1.074-1.529-2.413-2.73-3.71-2.165-2.334-5.13-5.531-5.08-10.2.011-1.019-.388-1.618-1.98-3.457-1.971-2.276-5.262-6.078-4.192-12.05a18.991 18.991 0 0 0-1.785-4.282c-1.715-3.435-3.848-7.714-3.287-12.58a6 6 0 0 1 9.1-4.428c.187.114 18.885 11.515 31.817 15.012 2.131.576 4.3 1.11 6.423 1.6-7.626-12.219-.162-21.193.173-21.583a6 6 0 0 1 6.873-1.634c.93.389 22.863 9.592 31.7 15.971 12.14 8.764 16.583 13.058 20.879 17.211a129.755 129.755 0 0 0 9.79 8.743l138.716-10.186c10.169-16.548 63.245-101.966 84.225-116.636a6 6 0 0 1 6.877 9.834C329.47 326.238 281.3 401.8 264.19 429.9a6 6 0 0 1-4.685 2.864l-144.128 10.585a6.021 6.021 0 0 1-4.149-1.267 142.853 142.853 0 0 1-12.519-10.988c-4.176-4.037-8.12-7.849-19.563-16.11-4.76-3.436-15.309-8.455-22.873-11.836a11.966 11.966 0 0 0 1.917 3.875c3.526 4.962 10.37 10.042 10.439 10.093a6 6 0 0 1-4.416 10.769 254.2 254.2 0 0 1-26.343-5.4c-6.787-1.836-14.636-5.39-21.177-8.719a12.482 12.482 0 0 1 .278 5.515.941.941 0 0 0-.021.19 11.654 11.654 0 0 0 1.472 1.9c1.942 2.244 4.858 5.613 4.906 11.131a19.139 19.139 0 0 0 1.88 2.218c1.886 2.035 4.47 4.821 5.525 8.773 1.322 4.954 14.942 14.507 26.832 20.321 22.365 10.935 38.183 11.963 38.341 11.972a6 6 0 0 1 3.914 1.762c17.322 6.453 66.449 18.8 149.779 26.4 22.832 2.085 40.443-3.515 60.8-19.316 20.679-16.055 53.811-46.45 79.133-79.277 19.9-25.8 41.222-61.349 29.8-84.226a6 6 0 0 1 10.737-5.361c11.4 22.834.957 55.442-31.037 96.917-26.011 33.721-60.039 64.938-81.275 81.425-19.741 15.332-37.973 22.259-59.37 22.259z"/><path d="M94.415 487.862a6 6 0 0 1-5.444-8.514l20.518-44.495a6 6 0 1 1 10.9 5.025l-20.518 44.5a6 6 0 0 1-5.456 3.484z"/><path d="M324.1 125s14.337 26.737 41.071 19.648c-35.921 34.647-35 30.677-63.536 47.768v-.013c-11.316 4.509-26.641 7.315-43.62 1.27-25.693-9.148-32.313-31.195-32.313-31.195-5.912.392-13.684-2.365-13.109-8.338.67-6.967 9.3-13.169 10.033-31.182-3.12-9.342-11.962-32.294 4.6-47.779 0 0 45.713-15.694 69.082 32.373 0 0 1.253-16.394 9.8-21.4 8.939-5.236 20.655-1.391 24.04 9.71C335.275 112.644 324.1 125 324.1 125z" fill="#fff"/><path d="M324.1 125s11.173-12.355 6.055-29.141c-3.385-11.1-15.1-14.946-24.04-9.71-8.55 5.009-9.8 21.4-9.8 21.4-23.369-48.067-69.082-32.373-69.082-32.373a35.834 35.834 0 0 1-9.706-2.094 86.373 86.373 0 0 1-11.58-5.932s-25.111-11.307-17.012-46.718c0 0 12.3 22.814 46.8 22.557l.04-.154s24.33-40.349 72.185-36.587c33.9 2.664 74.617 20.588 78.941 69.8 3.1 35.309-10.837 57.172-21.727 68.6C338.439 151.736 324.1 125 324.1 125z" fill="#17adff"/><path d="M356.425 151.824c-19.282 0-32.707-14.845-37.611-23.99a6 6 0 0 1 .815-6.835c.408-.464 8.8-10.247 4.788-23.391a10.643 10.643 0 0 0-6.231-7.085 10.341 10.341 0 0 0-9.036.8c-4.369 2.559-6.536 12.528-6.854 16.683a6 6 0 0 1-11.378 2.166c-20.685-42.545-60.089-29.872-61.756-29.313a6.141 6.141 0 0 1-2.221.312 41.373 41.373 0 0 1-11.532-2.471 89.353 89.353 0 0 1-12.284-6.241c-10.277-4.842-27.225-21.93-20.04-53.359a6 6 0 0 1 11.13-1.511c.412.739 10.533 18.289 38.278 19.357 6.807-9.633 32.02-40.132 75.937-36.68 20.431 1.606 39.48 8.207 53.639 18.587 18.319 13.43 28.685 32.495 30.809 56.666 3.241 36.888-10.914 60.2-23.36 73.267a6 6 0 0 1-2.806 1.661 40.079 40.079 0 0 1-10.287 1.377zm-25.07-26.6c4.133 5.789 14.616 17.35 30.662 14.008 10.428-11.5 21.651-31.427 18.907-62.661-4.809-54.722-57.423-63.081-73.434-64.34-41.39-3.247-63.512 28.917-66.312 33.28a6 6 0 0 1-5.4 3.48h-.632c-20.457 0-33.812-7.454-41.788-14.342.446 20.181 14.879 26.952 15.052 27.03a5.959 5.959 0 0 1 .671.354 80.858 80.858 0 0 0 10.563 5.435A30.086 30.086 0 0 0 226.6 69.1a67.83 67.83 0 0 1 27.273-1.7c11.929 1.733 27.611 7.589 40.158 24.684 1.9-4.356 4.767-8.6 9.055-11.115a22.278 22.278 0 0 1 19.468-1.625A22.7 22.7 0 0 1 335.9 94.108a37.238 37.238 0 0 1-4.545 31.114z" fill="#17adff"/><path d="M278.01 203.177a65.19 65.19 0 0 1-22-3.853 59.175 59.175 0 0 1-34.435-31.009c-4.017-.5-8.474-2.025-11.543-5.188a11.907 11.907 0 0 1-3.4-9.563c.364-3.784 2.081-6.961 3.9-10.324 2.577-4.767 5.485-10.147 6.056-19.446l-.1-.285c-3.584-10.562-11.978-35.3 6.647-52.714a5.991 5.991 0 0 1 2.15-1.292 66.436 66.436 0 0 1 28.588-2.1c11.929 1.733 27.611 7.589 40.158 24.684 1.9-4.356 4.767-8.6 9.054-11.115a22.281 22.281 0 0 1 19.47-1.625A22.7 22.7 0 0 1 335.9 94.108a37.237 37.237 0 0 1-4.542 31.115c4.263 5.971 15.315 18.125 32.282 13.624a6 6 0 0 1 3.076 11.6c-12.9 3.422-25.33.529-35.951-8.364a53.86 53.86 0 0 1-11.947-14.248 6 6 0 0 1 .838-6.86c.336-.382 8.785-10.184 4.765-23.366a10.643 10.643 0 0 0-6.231-7.085 10.343 10.343 0 0 0-9.036.8c-4.369 2.559-6.536 12.528-6.854 16.683a6 6 0 0 1-11.378 2.166C272 71.267 237.434 78.535 230.383 80.491c-11.712 12.111-5.765 29.635-2.532 39.162l.474 1.4a6.018 6.018 0 0 1 .3 2.143c-.516 12.744-4.578 20.259-7.545 25.746-1.273 2.355-2.372 4.389-2.509 5.755.548.768 3.451 2 6.738 1.789a6 6 0 0 1 6.143 4.261c.236.757 6.251 19.318 28.579 27.268 31.208 11.111 56.164-10.73 57.211-11.665a6 6 0 0 1 8.029 8.918c-.998.908-20.224 17.909-47.261 17.909z"/><ellipse cx="248.041" cy="120.881" rx="9.091" ry="12.5" transform="matrix(.93080086 -.36552669 .36552669 .93080086 -27.021 99.028)"/><path d="M205.954 73.155a6.008 6.008 0 0 1-2.471-.532c-10.236-4.609-27.671-21.727-20.4-53.526a6 6 0 0 1 11.131-1.509c.717 1.287 18.693 32.188 73.193 13.355a6 6 0 0 1 3.919 11.342c-18.362 6.346-45 11.387-67.658-.625a55.7 55.7 0 0 1-10.32-7.046c.407 19.905 14.4 26.755 15.1 27.087a6 6 0 0 1-2.5 11.454z"/></svg></g><g transform="translate(812.0 782.0) rotate(0.0 412.5 218.0) scale(0.998958661274308 0.9992459818164733)"><svg width="825.86" height="436.329" viewBox="0 0 825.86 436.329"><path d="M819.844 436.329H6.017a6.017 6.017 0 0 1 0-12.034h813.827a6.017 6.017 0 0 1 0 12.034z"/><g fill="#ff0012"><path d="M32.734 338h93.174v60.219H32.734zm165.895-72h93.174v132.219h-93.174zm165.66-80h93.174v212.219h-93.174zm177.073-83h93.174v295.219h-93.174zM707.021 0h93.174v398.219h-93.174z"/></g></svg></g><g transform="translate(1391.0 509.0) rotate(0.0 322.5 643.5) scale(0.9995660798413093 0.9994851137292909)"><svg width="645.28" height="1287.663" viewBox="0 0 645.28 1287.663"><path d="M256.048 893.7s56.027-268.35 73.945-298c22.309-23.97 51.191 33.417 158.508 22.72 60.639-6.045 88.18-26.074 88.182-26.076s10.819 47.072 10.832 88.323c.018 57.171-18.94 170.5-26.716 225.451a180.455 180.455 0 0 0 .608 53.86c2.309 14.4 5.527 35 4.844 60.193-2.183 80.443-15.425 141.12-15.425 141.12l-66.022 1.056s-23.504-156.411-32.211-217.204c-7.735-54.017-10.552-153.757-10.862-170.268-32.874 44.776-61.8 111.2-73.465 137.364a48.63 48.63 0 0 0-3.942 24.941c1.317 12.466 3.211 30.156 4.569 66.081 2.29 60.62-11.683 156.383-11.683 156.383h-62.775S247.268 929.7 256.048 893.7z" fill="#ff002a"/><path d="M484.8 1168.291a5.938 5.938 0 0 1-5.87-5.054c-.235-1.565-23.608-157.135-32.218-217.252-6.406-44.742-9.351-118.733-10.419-152.8-26.829 41.04-50.224 93.64-60.9 117.631l-1.712 3.845a42.771 42.771 0 0 0-3.46 21.9l.038.364c1.354 12.8 3.207 30.34 4.559 66.117 2.285 60.463-11.6 156.5-11.74 157.464a5.937 5.937 0 0 1-5.875 5.08h-62.768a5.936 5.936 0 0 1-5.815-4.744c-1.936-9.434-47.249-231.267-38.365-268.436 2.555-12.233 56.471-269.676 74.658-299.764a5.96 5.96 0 0 1 .735-.975c12.532-13.465 26.939-7.048 45.18 1.073 22.986 10.234 57.725 25.7 117.084 19.784 46.368-4.622 76.044-18.345 85.274-24.967a5.938 5.938 0 0 1 8.807 2.143c.929 1.86 11.447 50.928 11.46 90.977.013 46.9-12.381 129.633-21.431 190.042-2 13.355-3.891 25.969-5.345 36.243a174.442 174.442 0 0 0 .592 52.088c2.24 13.981 5.627 35.11 4.916 61.294-2.173 80.075-15.425 141.612-15.558 142.225a5.938 5.938 0 0 1-5.707 4.67l-66.02 1.051zm-43.068-399.353a5.94 5.94 0 0 1 5.935 5.825c.02 1.084 2.414 110.955 10.8 169.539 7.715 53.873 27.3 184.5 31.435 212.033l56.052-.9a866.541 866.541 0 0 0 14.36-135.422c.681-25.076-2.6-45.546-4.772-59.092a186.33 186.33 0 0 1-.624-55.631c1.461-10.322 3.355-22.959 5.359-36.338 9-60.039 21.313-142.266 21.3-188.279-.01-30.26-6-63.988-9-79.017-12.5 6.749-39.475 18.288-83.489 22.675-9.574.954-18.544 1.382-26.945 1.382-46.439 0-75.712-13.036-96.146-22.134-18.092-8.056-24.925-10.624-31.232-4.274-14.576 25.883-57.49 221.772-72.906 295.61a6.763 6.763 0 0 1-.044.194c-6.777 27.783 23.866 191.632 37.467 258.6h52.761c2.805-20.548 12.86-98.76 10.916-150.222-1.337-35.376-3.167-52.681-4.5-65.317l-.04-.364a54.678 54.678 0 0 1 4.425-27.983l1.707-3.835c13.194-29.661 40.647-91.382 72.394-134.624a5.943 5.943 0 0 1 4.787-2.426z" fill="#ff002a"/><path d="M582.572 732.9a5.911 5.911 0 0 1-4.07-1.616l-32.6-30.72a5.935 5.935 0 0 1-1.839-3.76l-4.411-46.519a5.937 5.937 0 0 1 5.869-6.5c.182 0 19.97-.4 33.595-13.928a5.937 5.937 0 1 1 8.365 8.427c-11.911 11.82-27.007 15.6-35.446 16.807l3.637 38.362 30.971 29.186a5.937 5.937 0 0 1-4.072 10.258zm-184.863 21.905a5.924 5.924 0 0 1-4.629-2.214l-31.425-38.286a5.935 5.935 0 0 1-1.054-5.456c6.953-22.775 9.989-56.272 10.019-56.608a5.934 5.934 0 0 1 7.638-5.154c.321.1 32.783 12.7 66.524 6.082a5.938 5.938 0 0 1 7.045 6.47l-5.992 51.961a5.93 5.93 0 0 1-.938 2.612c-10.875 16.589-42.257 38.335-43.545 39.337a5.91 5.91 0 0 1-3.643 1.256zm-24.86-45.529 25.763 31.251c8.5-6.949 27.64-20.369 35.578-31.678l4.985-42.73c-24.392 3.265-46.6-3.464-57.445-5.9-1.214 10.719-4.023 31.828-8.881 49.057zm68.369 90.733a5.938 5.938 0 0 1-4.3-10.027c33.178-34.924 48.376-53.274 54.66-82.416a5.937 5.937 0 0 1 11.607 2.5c-6.921 32.092-22.884 51.487-57.658 88.092a5.926 5.926 0 0 1-4.309 1.851z"/><path d="M363.638 1159.644s6.11 52.159 3.2 81.342v21.784h-161.45s-1.075-14.853-.309-22.873c1.019-10.663 3.748-24.042 32.446-27.388 59.018-6.882 56.939-52.865 56.939-52.865z" fill="#fff"/><path d="M366.834 1268.706H205.388a5.938 5.938 0 0 1-5.922-5.508c-.045-.627-1.1-15.446-.3-23.865.89-9.3 2.74-28.648 37.669-32.721 22.469-2.621 37.979-11.367 46.1-26a44.267 44.267 0 0 0 5.6-20.7 5.936 5.936 0 0 1 5.93-6.2h69.174a5.938 5.938 0 0 1 5.9 5.246c.252 2.149 6.112 52.8 3.235 82.325v21.491a5.936 5.936 0 0 1-5.94 5.932zm-155.841-11.874H360.9v-15.846c0-.2.01-.397.029-.59 2.284-22.865-1.19-60.951-2.618-74.815h-58.26a57.593 57.593 0 0 1-6.733 20.8c-12.558 22.625-36.9 29.906-55.106 32.029-25.4 2.961-26.41 13.549-27.223 22.056a135.4 135.4 0 0 0 .004 16.366z"/><path d="M366.834 1246.923H204.989a5.937 5.937 0 1 1 0-11.874h161.845a5.937 5.937 0 1 1 0 11.874z"/><path d="M320.03 1246.923c-.133 0-.267 0-.4-.013a5.938 5.938 0 0 1-5.528-6.319c1.235-18.518 10.935-32.22 28.048-39.622a69.183 69.183 0 0 1 24.86-5.426 5.937 5.937 0 1 1 .012 11.874c-1.61.008-38.845.575-41.072 33.964a5.938 5.938 0 0 1-5.92 5.542zm-81.23 0a5.936 5.936 0 0 1-5.936-5.936v-25.521a5.937 5.937 0 1 1 11.873 0v25.52a5.936 5.936 0 0 1-5.935 5.937h-.002zm70.618-55.931a5.915 5.915 0 0 1-2.233-.438l-18.6-7.561a5.937 5.937 0 0 1 4.373-11.039l.097.039 18.605 7.561a5.938 5.938 0 0 1-2.238 11.438zm-15.031 19.945a5.915 5.915 0 0 1-4.235-1.777l-12.574-12.8a5.937 5.937 0 1 1 8.396-8.396l.074.075 12.575 12.8a5.937 5.937 0 0 1-4.236 10.1zm-21.029 12.828a5.941 5.941 0 0 1-5.262-3.178l-6.8-12.942a5.938 5.938 0 0 1 10.514-5.52l6.8 12.942a5.94 5.94 0 0 1-5.252 8.7z"/><path d="m488.251 1194.843.228.161-3.975-27.45s15.709 7.511 42.849 4.985c20.786-1.934 27.716-6.826 27.716-6.826l-.14 65.112s.081 5.022.175 11.322v.222c.129 8.638.28 19.579.28 23.35 0 6.566-6.566 16.255-25.266 16-22.865-.309-32.708-8.132-76.791-34.105-4.24-2.5-7.218-6.634-7.308-11.526l-.249-15.582c-1.97-17.268 25.479-30.185 42.481-25.663z" fill="#fff"/><path d="M530.834 1287.663c-.262 0-.526-.002-.792-.005-21.983-.3-36.175-8.722-70.464-29.076-4.1-2.434-8.5-5.048-13.261-7.85-6.284-3.7-10.108-9.883-10.231-16.533l-.249-13.582a5.937 5.937 0 0 1 5.828-6.044h.11a5.937 5.937 0 0 1 5.934 5.828l.249 13.581c.066 3.592 3.089 5.756 4.386 6.52 4.769 2.809 9.183 5.43 13.294 7.87 33.3 19.764 45.754 27.159 64.564 27.413 7.488.115 13.4-1.641 16.71-4.905a7.507 7.507 0 0 0 2.539-5.16c0-6.444-.453-34.515-.458-34.8v-.109l.121-56.223a107.088 107.088 0 0 1-21.211 3.86 108.662 108.662 0 0 1-36.154-2.29l4.037 27.874a5.938 5.938 0 0 1-11.752 1.7l-5.407-37.33a5.938 5.938 0 0 1 8.437-6.208c.121.057 14.809 6.752 39.739 4.429 17.471-1.626 24.235-5.41 24.9-5.8a5.749 5.749 0 0 1 6.1-.511 5.958 5.958 0 0 1 3.21 5.414l-.139 65.058c.028 1.774.457 28.476.457 34.935a19.485 19.485 0 0 1-6.073 13.612c-3.883 3.825-11.25 8.332-24.424 8.332z"/><path d="M529.547 1265.589c-6.532 0-14.9-1.093-28.382-7.433-26.966-12.681-61.074-33.708-62.512-34.6a5.934 5.934 0 0 1-2.778-4.377c-.895-7.833 2.575-15.568 9.77-21.781 10.757-9.288 27.634-13.618 40.133-10.3a5.937 5.937 0 1 1-3.053 11.475c-8.688-2.312-21.573 1.117-29.32 7.807-2.379 2.054-5.051 5.108-5.664 8.807 8.843 5.362 36.534 21.9 58.476 32.215 14.262 6.706 21.48 6.421 25.786 6.25 6.748-.268 11.784-2.019 14.565-5.064a9.9 9.9 0 0 0 2.606-6.146 5.938 5.938 0 0 1 11.86-.605 21.497 21.497 0 0 1-5.7 14.758c-5.039 5.518-12.73 8.52-22.861 8.922-.938.045-1.91.072-2.926.072z"/><path d="M459.845 1235.188h-.024a5.925 5.925 0 0 1-5.912-5.925c0-11.167 6.284-34.045 30.069-40.694a5.937 5.937 0 1 1 3.2 11.436c-20.963 5.861-21.385 28.329-21.393 29.283a5.947 5.947 0 0 1-5.94 5.9zm36.662 15.534a5.936 5.936 0 0 1-5.936-5.936v-.001c0-1.106.245-27.223 21.632-38.8 9.328-5.05 34.311-8.482 47.787 14.216a5.937 5.937 0 0 1-10.161 6.143l-.048-.08c-10.07-16.957-28.678-11.6-31.925-9.837-15.235 8.248-15.412 28.158-15.412 28.358a5.935 5.935 0 0 1-5.935 5.937h-.002z"/><path d="M518.843 248.83c-3.372-3.226-24.6-4.18-18.681-45.332-27.1 9.286-56.573 5.032-77.612 5.032-8.669 30.961 1.973 44.156-61.8 48.578 0 0-15.257 65.942-20.537 106.538v-.163c-2.735 20.827-11.781 50.786-12.344 63.539 0 0-7.237 43.8-7.186 67.383-.9 7.3 1.933 54.151 3.392 56.953v27.374c-.206 10.165 5.127 24.418 13.643 29.972 14.154 9.317 61.548 22.689 120.746 24.74 56.2.541 101.387-17.076 112.979-23.975 8.061-4.8 11.29-11.741 10.834-20.8l-2.284-33.449c20.638-13.425 63.032-45.28 60.421-73.256s-14.879-79.893-25.193-129.211c-21.069-112.086-76.128-92.031-96.378-103.923z" fill="#fff"/><path d="M579.7 560.6a5.926 5.926 0 0 1-1.918-11.532c8.72-2.984 22.918-13.574 34.525-25.752 13.225-13.875 21.119-27.71 21.119-37.008 0-39.523-24.451-141.256-36.93-176.491-12.908-36.447-42.3-44.776-68.225-52.124-1.938-.549-3.838-1.093-5.7-1.631-29.7-8.642-29.079-32.476-28.71-46.717.031-1.176.06-2.321.075-3.424a5.925 5.925 0 1 1 11.848.153c-.015 1.153-.046 2.349-.077 3.579-.371 14.229-.752 28.943 20.174 35.032 1.836.533 3.71 1.069 5.623 1.608 25.832 7.321 61.211 17.348 76.164 59.568 12.71 35.88 37.612 139.805 37.612 180.439 0 28.031-42.7 66.8-63.658 73.971a5.934 5.934 0 0 1-1.922.329z"/><path d="M455.318 610.2c-.93 0-1.856 0-2.783-.013-.113 0-.225-.004-.336-.012-82.574-5.472-124.812-22.939-132.84-54.949-5.177-13.894-7.694-97.888-2.346-132.114a5.924 5.924 0 1 1 11.706 1.829c-5.664 36.249-1.526 117.688 1.578 125.792.209.413.369.85.477 1.3 6.275 26.119 46.194 41.268 122.039 46.312 29.012.251 59.331-3.914 83.163-11.445 25.837-8.165 35.444-17.526 35.82-23.062 0-.067.011-.135.018-.2 4.606-44.858 5.635-110.807 2.75-176.416a5.925 5.925 0 0 1 11.838-.52c2.906 66.107 1.862 132.658-2.791 178.055-.682 9.147-8.91 22.335-44.065 33.444-24.252 7.651-54.799 11.999-84.228 11.999zm-125.1-59.612.044.081z"/><path d="M450.776 639.267h-.333c-28.526-1.078-54.027-4.4-75.8-9.885-17.022-4.286-31.3-9.871-40.188-15.726-10.537-6.871-14.416-13.831-14.231-25.6l-2.07-36.353a5.925 5.925 0 0 1 11.83-.674l2.083 36.575c.009.152.012.3.008.457-.158 7.763 1.667 10.989 8.874 15.688 5.27 3.469 35.222 20.843 109.827 23.677 78.729 0 111.371-18.079 114.836-20.141 6.247-3.718 9.18-8.656 8.961-15.087l-3.712-21.865a5.923 5.923 0 0 1 4.849-6.832 5.923 5.923 0 0 1 6.832 4.848l3.775 22.233c.039.229.064.461.076.693.557 11.071-4.533 20.128-14.721 26.192-4.014 2.389-15.863 8.514-39.109 13.768-23.604 5.327-51.124 8.032-81.787 8.032zM458.8 273.63c-15.081 0-33.477-3.755-54.357-15.341a5.925 5.925 0 0 1-1.864-8.736c7.24-9.649 11.549-23.058 12.135-37.757a5.925 5.925 0 0 1 5.916-5.689h.241a5.925 5.925 0 0 1 5.683 6.156c-.573 14.392-4.321 27.855-10.675 38.648 22.459 11.129 43.924 13.791 63.89 7.9 16.189-4.774 25.374-13.71 25.465-13.8a5.925 5.925 0 0 1 8.37 8.388c-.439.44-10.989 10.856-29.817 16.578a85.824 85.824 0 0 1-24.987 3.653z"/><path d="M342.765 264.309c-50.622 19.219-106.042 103.667-124.793 100.045-20.938-4.044-112.941-59.754-112.941-59.754-6.087-16.769-22.045-28.561-27.584-32.145-7.819-9.448-57.665-31.6-57.665-31.6l-11.728 4.229c-3.74 4.707 17.2 28.424 15.638 33.557-2.725 8.96-7.149 25.525-2.933 32.253 13.978 22.291 53.756 35.511 53.756 35.511s13.234 21.926 76.6 83.05c17.323 13.093 48.25 39.67 77.417 36.624 62.388-4.528 136.537-79.208 164.511-129.836 0 0 29.383-61.065 6.5-78.127-14.223-10.425-56.778 6.193-56.778 6.193z" fill="#fff"/><path d="M226.546 472.012c-30.811 0-56.772-20.407-73.171-33.3-2.095-1.646-4.073-3.2-5.835-4.533a4.715 4.715 0 0 1-.221-.175c-16.29-13.574-42.33-38.295-74.019-79.063-9.856-1.866-21.635-11.172-33.838-21.409-3.29-2.759-6.4-5.366-7.936-6.33a27.434 27.434 0 0 0-6.287-2.4c-5.549-1.658-14.8-4.422-14.981-14.922-.579-6.721 2.268-25.4 7.073-36.463l-.062-.056a135.65 135.65 0 0 1-10.762-10.552c-6.745-7.787-8.478-17.985-4.122-24.249 3.41-4.906 9.572-6.289 16.475-3.7 24.715 9.257 46.8 22.662 52.978 26.55 12.787 8.045 30.4 20.749 37.976 39.138 26.67 15.817 93.278 54.114 109.393 58.012 4.878-.191 21.156-17.022 33.055-29.327 17.948-18.559 40.286-41.657 64.924-58.343 31.379-21.251 58.466-25.983 92-26.729a5.925 5.925 0 0 1 .264 11.846c-42.324.942-64.139 10.147-85.618 24.694-23.621 16-45.484 38.6-63.051 56.77-22.9 23.679-34.338 34.957-44.162 32.653C195.257 365.105 105.8 311.947 102 309.686a5.924 5.924 0 0 1-2.54-3.069c-5.83-16.063-22.16-27.771-33.932-35.181-5.94-3.736-27.159-16.618-50.824-25.483a5.808 5.808 0 0 0-2.655-.52c-.491 1.01-.387 5.229 3.414 9.619a127.581 127.581 0 0 0 9.789 9.557c1.254 1.144 2.44 2.225 3.479 3.2a5.924 5.924 0 0 1 .9 7.554c-4.631 7.084-8.082 28.846-7.558 33.551.024.217.036.436.036.654 0 1.327 0 1.932 6.526 3.882a36.788 36.788 0 0 1 9.184 3.707 102.63 102.63 0 0 1 9.263 7.3c7.824 6.565 22.388 18.783 29.541 18.975a5.93 5.93 0 0 1 4.5 2.269l1.126 1.449c31.151 40.15 56.63 64.387 72.551 77.664 1.822 1.379 3.8 2.937 5.9 4.585 17.247 13.557 46.067 36.22 77.7 29.523 45.06-15.16 85.718-41.922 103.637-68.232a5.925 5.925 0 0 1 9.793 6.671c-19.621 28.812-61.765 56.747-109.983 72.9a6.087 6.087 0 0 1-.622.171 68.862 68.862 0 0 1-14.679 1.58z"/><path d="M79.4 352.331a5.925 5.925 0 0 1-5.045-9.022L99.98 301.5a5.925 5.925 0 1 1 10.227 5.985c-.041.07-.084.139-.127.208L84.453 349.5a5.925 5.925 0 0 1-5.053 2.831z"/><path d="M474.887 165.531s.464 38.461 23.274 38.463c-23.452 16.33-55.38 13.814-77.527 8.038-7.4-1.943-26.752-11.4-37.5-25.582-16.262-21.466-9.79-43.255-9.79-43.255-5.094-2.877-10.018-9.362-6.309-13.983 4.326-5.39 14.81-5.838 25.169-20.314 2.482-9.4 7.61-33.142 29.67-36.96 0 0 46.243 11.794 39.511 64.137 0 0 9.912-12.858 19.68-12.363 10.216.516 17.808 10.035 14.592 21.034-4.852 16.633-20.77 20.785-20.77 20.785z" fill="#fff"/><path d="M474.887 165.531s15.916-4.152 20.78-20.783c3.215-11-4.376-20.518-14.593-21.035-9.772-.494-19.679 12.363-19.679 12.363 6.732-52.343-39.512-64.137-39.512-64.137A35.42 35.42 0 0 1 415 64.954a85.37 85.37 0 0 1-6.35-11.168S394.042 30.852 419.9 6c0 0-2.2 25.5 26.428 43.967l.117-.106s41.937-20.142 79.414 8.877c26.549 20.556 50.463 57.4 27.386 100.38-16.555 30.832-39.902 41.338-55.082 44.882-25.913-8.629-23.276-38.469-23.276-38.469z" fill="#17adff"/><path d="M498.164 209.919a5.914 5.914 0 0 1-1.871-.3c-24.011-7.991-28.362-32.672-27.307-44.607a5.927 5.927 0 0 1 4.373-5.2c.574-.158 12.81-3.69 16.621-16.721a10.508 10.508 0 0 0-1.309-9.224 10.214 10.214 0 0 0-7.9-4.231c-5.012-.233-12.057 6.676-14.694 10.071a5.926 5.926 0 0 1-10.562-4.38c5.958-46.333-33.438-57.206-35.118-57.646a6.02 6.02 0 0 1-2.121-1.034 41.307 41.307 0 0 1-8.032-8.153 5.187 5.187 0 0 1-.162-.227 91.803 91.803 0 0 1-6.639-11.626c-5.862-9.566-10.6-32.851 12.351-54.908a5.925 5.925 0 0 1 10.008 4.781c-.059.833-1.213 20.8 21.127 36.71 10.836-4.264 48.158-15.8 82.557 10.835 16 12.388 28.155 28.153 34.225 44.392 7.855 21.009 6.089 42.365-5.246 63.475-17.3 32.217-41.613 43.8-58.961 47.844a5.863 5.863 0 0 1-1.34.149zm-17.409-40.276c.28 7.017 2.677 22.239 17.736 28.171 14.832-3.844 34.888-14.221 49.539-41.5 25.663-47.792-13.255-83.183-25.794-92.892-32.4-25.089-68.074-10.523-72.768-8.43a5.926 5.926 0 0 1-6.347-.048c-17.275-11.144-24.381-24.712-27.265-34.82-10.418 16.643-2.584 29.863-2.182 30.519.123.197.234.401.335.611a79.955 79.955 0 0 0 5.829 10.275 29.492 29.492 0 0 0 4.823 5.05 67.01 67.01 0 0 1 23.43 13.364c8.911 7.891 18.689 21.216 19.792 42.126 3.93-2.565 8.609-4.522 13.491-4.273A22 22 0 0 1 498.33 127a22.415 22.415 0 0 1 3.023 19.413 36.77 36.77 0 0 1-20.598 23.23z" fill="#17adff"/><path d="M436.96 216.554c-14.077 0-41.064-3.329-58.6-26.478a58.51 58.51 0 0 1-11.66-44.266c-3.044-2.6-5.892-6.273-6.715-10.549a11.836 11.836 0 0 1 2.384-9.8c2.358-2.94 5.5-4.637 8.833-6.434 4.7-2.536 10-5.4 15.5-12.743l.07-.27c2.764-10.677 9.235-35.681 34.1-39.984a6.001 6.001 0 0 1 2.506.1 65.713 65.713 0 0 1 24.775 13.762c8.9 7.885 18.673 21.188 19.811 42.049 3.92-2.538 8.557-4.466 13.426-4.215a22.072 22.072 0 0 1 17.012 9.231 22.486 22.486 0 0 1 3.035 19.479 36.84 36.84 0 0 1-20.7 23.3c.087 7.8 2.363 26.019 21.115 31.5a6 6 0 0 1-3.365 11.518c-26.637-7.782-30.981-34.715-29.557-47.868a5.998 5.998 0 0 1 4.452-5.16c.481-.133 12.728-3.642 16.534-16.659a10.438 10.438 0 0 0-1.3-9.16 10.144 10.144 0 0 0-8.104-4.206c-4.945 0-11.781 6.725-14.365 10.05a6 6 0 0 1-10.7-4.438c2.522-19.616-2.61-35.241-15.258-46.44a54.831 54.831 0 0 0-18.593-10.757c-16.161 3.663-20.727 21.308-23.21 30.9l-.369 1.414a5.975 5.975 0 0 1-.922 1.96c-7.338 10.254-14.768 14.265-20.194 17.193-2.3 1.243-4.294 2.318-5.147 3.352.077.94 1.8 3.481 4.553 5.037a6 6 0 0 1 2.8 6.933c-.215.75-5.287 19.3 8.82 37.922 19.768 26.094 56.185 21.359 56.549 21.308a6 6 0 1 1 1.691 11.881 69.609 69.609 0 0 1-9.207.538z"/><ellipse cx="415.317" cy="118.944" rx="8.977" ry="12.343" transform="matrix(.9857 -.1687 .1687 .9857 -14.1122 71.7594)"/><path d="M475.561 63.916a5.97 5.97 0 0 1-1.476-.185c-27.042-6.839-45.391-18.487-54.538-34.622a46.336 46.336 0 0 1-3.811-8.638c-10.254 16.725-2.125 29.935-2.025 30.092a6.001 6.001 0 0 1-10.121 6.448c-5.966-9.366-11.1-32.985 12.155-55.337a6 6 0 0 1 10.088 5.234c-.159 1.214-3.459 31.368 51.194 45.189a6 6 0 0 1-1.466 11.819z"/></svg></g><g transform="translate(841.0 484.0) rotate(0.0 409.5 301.5) scale(0.9990070918525422 0.9991218332145876)"><svg width="819.814" height="603.53" viewBox="0 0 819.814 603.53"><path d="M774.388 38.416h20.742v20.742h-20.742z"/><path d="M6 597.239a6 6 0 0 1-.07-12l81.944-.968 230.2-271.406a6 6 0 0 1 8.252-.861l61.167 47.408L592.9 118.106a6 6 0 0 1 8.451-.686l65.8 55.816L765.74 54.5l-4.278-2.989a6 6 0 0 1-.395-9.535l48.814-40.51a6 6 0 0 1 9.713 6.146 5.887 5.887 0 0 1-.389 1.024l-26.277 56.287a6 6 0 0 1-8.873 2.38l-8.445-5.9-103.1 124.166a6 6 0 0 1-8.5.743l-65.852-55.864-205.246 241.107a6 6 0 0 1-8.244.853l-61.16-47.4L95.254 594.12a6 6 0 0 1-4.5 2.119l-84.679 1zm777.3-545.1 1.774 1.239 3.6-7.709z"/><path d="M91.323 603.53a15.767 15.767 0 1 1 15.765-15.767 15.785 15.785 0 0 1-15.765 15.767zm0-19.533a3.767 3.767 0 1 0 3.765 3.766A3.771 3.771 0 0 0 91.323 584zm298.02-203.565a15.766 15.766 0 1 1 15.766-15.766 15.784 15.784 0 0 1-15.766 15.766zm0-19.532a3.766 3.766 0 1 0 3.766 3.766 3.77 3.77 0 0 0-3.766-3.766zM667.89 193.5c-8.4 0-15.766-7.834-15.766-16.766a15.766 15.766 0 1 1 31.532 0c0 8.932-7.367 16.766-15.766 16.766zm0-20.532a3.77 3.77 0 0 0-3.766 3.766c0 2.317 1.936 4.766 3.766 4.766s3.766-2.449 3.766-4.766a3.771 3.771 0 0 0-3.766-3.766z"/></svg></g><g transform="translate(1927.0 521.0) rotate(0.0 51.5 50.0) scale(1.0270728423991624 1.021961962575753)"><svg width="100.285" height="97.851" viewBox="0 0 100.285 97.851"><path d="M90.89 65.965a43.049 43.049 0 0 1-56.57 22.49 42.434 42.434 0 0 1-6.49-3.49C23.16 70 16.03 59.135 8.37 51.305a43.05 43.05 0 1 1 82.52 14.66z" fill="#17adff"/><path d="M51.348 97.866a49.02 49.02 0 0 1-26.734-7.992 5.864 5.864 0 0 1-2.387-3.161c-3.905-12.519-9.979-23.051-18.053-31.3a5.872 5.872 0 0 1-1.664-3.781A48.927 48.927 0 0 1 70.723 4.006 48.971 48.971 0 0 1 96.28 68.288a49.038 49.038 0 0 1-44.932 29.578zM32.75 81.107a36.673 36.673 0 0 0 3.891 1.958A37.22 37.22 0 0 0 85.5 63.642a37.176 37.176 0 1 0-68.281-29.424 36.81 36.81 0 0 0-3.048 14.675A88.375 88.375 0 0 1 32.75 81.107z" fill="#17adff"/><path d="M28.906 94.667a6 6 0 0 1-5.789-4.44 81.25 81.25 0 0 0-1.008-3.451C18.2 74.252 12.139 63.738 4.081 55.5a51.741 51.741 0 0 0-2.153-2.118 6 6 0 1 1 8.143-8.815 63.436 63.436 0 0 1 2.623 2.578c9.362 9.569 16.394 21.7 20.863 36.033a93.84 93.84 0 0 1 1.146 3.924 6.007 6.007 0 0 1-5.8 7.564z"/></svg></g><g transform="translate(705.0 749.0) rotate(0.0 143.5 145.0) scale(1.0573940211184059 1.0590009604043191)"><svg width="271.422" height="273.843" viewBox="0 0 271.422 273.843"><rect fill="#fff" height="217.231" rx="7.438" transform="matrix(.72802407 .68555156 -.68555156 .72802407 130.777 -55.798)" width="160.23" x="55.596" y="28.306"/><path d="M119.249 273.844a13.343 13.343 0 0 1-9.2-3.656L4.225 170.54a13.44 13.44 0 0 1-.57-19L142.38 4.225a13.454 13.454 0 0 1 19-.57L267.2 103.3a13.437 13.437 0 0 1 .57 19L129.042 269.617a13.349 13.349 0 0 1-9.379 4.22 14.29 14.29 0 0 1-.414.007zm-.976-12.392a1.436 1.436 0 0 0 2.032-.061l138.726-147.319a1.437 1.437 0 0 0-.06-2.032L153.148 12.391a1.44 1.44 0 0 0-2.032.061L12.392 159.771a1.438 1.438 0 0 0 .06 2.033z"/><path d="M74.186 175.744a6 6 0 0 1-5.978-6.5l2.78-32.925a6 6 0 1 1 11.957 1.01l-2.183 25.861 57.391-4.7a6 6 0 1 1 .979 11.96l-64.456 5.277a8.02 8.02 0 0 1-.49.017z"/><path d="m141.443 56.943 71.155 67.004" fill="#fff"/><path d="M212.6 129.948a5.981 5.981 0 0 1-4.113-1.632l-71.155-67a6 6 0 1 1 8.227-8.736l71.155 67a6 6 0 0 1-4.114 10.369z"/><path d="m113.944 86.146 56.594 53.293" fill="#fff"/><path d="M170.537 145.439a5.979 5.979 0 0 1-4.112-1.632l-56.594-53.293a6 6 0 1 1 8.227-8.736l56.593 53.293a6 6 0 0 1-4.114 10.368z"/></svg></g><g transform="translate(474.0 859.0) rotate(0.0 217.0 109.5) scale(0.9988653442057754 0.9973222580468878)"><svg width="434.493" height="219.588" viewBox="0 0 434.493 219.588"><path d="M47.673.208C18.87 2.65 9.794 21.661 9.794 21.661c-23.443 46.961 67.689 137.588 110.624 170.928 23.459 18.213 43.121 22.552 65.021 20.552 113.765-10.377 154.635-28.07 154.635-28.07l-1.158-.078s16.708-.873 40.648-12.573c7.224-3.533 27.546-15 29.993-24.162 1.4-5.251 7.654-7.933 7.608-12.3-.074-6.982 7.415-8.309 6.257-14.561-.915-4.933 5.719-11.135 5.019-17.182 0 0-19.444 11.918-33.384 15.688a250.248 250.248 0 0 1-25.633 5.25s7.621-5.608 11.77-11.448c6.606-9.3 1.142-15.68 1.142-15.68s-22.123 9.252-30.5 15.3c-20.264 14.628-18.079 16.076-32.279 27.245l-144.128-10.587S113.262 27.878 91.276 12.505c0 0-18.918-14.39-43.603-12.297z" fill="#fff"/><path d="M176.1 219.582c-21.4 0-39.622-6.927-59.363-22.254C79.1 168.1-22.336 72.592 4.426 18.981a6 6 0 0 1 10.737 5.359c-6.3 12.628-6.25 37.49 29.8 84.229 25.32 32.824 58.454 63.223 79.133 79.281 20.357 15.8 37.971 21.4 60.8 19.316 83.282-7.6 132.4-19.935 149.76-26.4A5.979 5.979 0 0 1 338.6 179c.139-.008 15.958-1.04 38.326-11.972 11.89-5.814 25.509-15.368 26.831-20.319 1.054-3.954 3.639-6.743 5.527-8.779a19.3 19.3 0 0 0 1.878-2.217c.049-5.519 2.965-8.888 4.907-11.131a11.1 11.1 0 0 0 1.475-1.926s0-.06-.024-.168a12.479 12.479 0 0 1 .277-5.514c-6.541 3.33-14.389 6.885-21.176 8.72a257.545 257.545 0 0 1-26.305 5.391 6 6 0 0 1-4.45-10.766c.064-.048 6.909-5.127 10.433-10.089a12.008 12.008 0 0 0 1.918-3.877c-7.566 3.382-18.116 8.4-22.872 11.836-11.446 8.263-15.391 12.076-19.568 16.113a142.715 142.715 0 0 1-12.514 10.983 6 6 0 0 1-4.148 1.268L174.99 135.967a6 6 0 0 1-4.69-2.867C153.19 105 105.02 29.436 87.834 17.42a6 6 0 0 1 6.877-9.835c20.979 14.669 74.055 100.088 84.224 116.637l138.716 10.189a129.966 129.966 0 0 0 9.785-8.74c4.3-4.153 8.74-8.448 20.885-17.214 8.835-6.379 30.767-15.582 31.7-15.971a6 6 0 0 1 6.873 1.633c.334.39 7.79 9.348.19 21.56q3.249-.75 6.464-1.586c12.873-3.482 31.571-14.882 31.758-15a6 6 0 0 1 9.1 4.426c.564 4.868-1.57 9.148-3.285 12.586a19.02 19.02 0 0 0-1.779 4.274c1.069 5.975-2.222 9.776-4.193 12.052-1.592 1.839-1.99 2.438-1.979 3.458.05 4.663-2.914 7.86-5.078 10.194-1.2 1.3-2.446 2.638-2.732 3.714-3.447 12.909-28.224 25.6-33.154 28.007-19.147 9.357-33.943 12.1-40 12.878-3.983 1.665-46.189 18.392-156.214 28.428q-5.07.468-9.892.472z"/><path d="M340.079 191.067a6 6 0 0 1-5.452-3.489l-20.518-44.495a6 6 0 1 1 10.9-5.026l20.517 44.5a6 6 0 0 1-5.444 8.515z"/></svg></g><g transform="translate(820.0 531.0) rotate(0.0 205.0 46.5) scale(0.9701088178159302 0.9668364694874727)"><svg width="422.633" height="96.19" viewBox="0 0 422.633 96.19"><path d="M413.633 18H9A9 9 0 0 1 9 0h404.633a9 9 0 0 1 0 18zM308.728 96.19H9a9 9 0 0 1 0-18h299.728a9 9 0 0 1 0 18z"/></svg></g></svg>