<svg xmlns="http://www.w3.org/2000/svg" viewBox="0 0 800 600" width="800" height="600"><g transform="translate(271.0 84.0) rotate(0.0 127.0 199.0) translate(0.0 171.0) scale(1.0 1.0)"><svg width="253" height="226" viewBox="0 171 253 226"><path d="m207.5 292-.385-12.547-.896-33.078-.581-22.1-.577-24.666-.558-26.377-.504-27.232a2509.6 2509.6 0 0 0-.684-27.232c-.278-8.982-.481-17.822-.524-26.377.002-8.555.116-16.824.354-24.666.095-3.921.251-7.735.373-11.424L204 45.625c.136-3.422.337-6.701.524-9.82.197-3.119.331-6.077.552-8.858l.567-7.788.564-6.612c.353-3.992.675-7.129.912-9.268L207.5 0h1l.38 3.279c.238 2.139.559 5.275.912 9.268l.564 6.612.567 7.788c.222 2.78.355 5.739.552 8.858.187 3.119.388 6.398.524 9.82l.482 10.676c.122 3.689.278 7.503.373 11.424.238 7.842.351 16.111.354 24.666-.043 8.555-.246 17.395-.524 26.377A2509.6 2509.6 0 0 0 212 146l-.504 27.232-.558 26.377-.577 24.666-.581 22.1-.896 33.078L208.5 292zm-16-104.373-.385-6.752c-.264-4.297-.524-10.435-.896-17.801l-.581-11.893-.577-13.274c-.19-4.604-.408-9.361-.558-14.195l-.504-14.655a728.49 728.49 0 0 0-.684-14.655c-.278-4.834-.481-9.591-.524-14.195.002-4.604.116-9.054.354-13.274.216-4.22.505-8.21.84-11.893.325-3.683.698-7.059 1.092-10.051l.567-4.191.564-3.558c.353-2.148.675-3.836.912-4.987.233-1.151.38-1.765.38-1.765h1s.147.614.38 1.765c.238 1.151.559 2.839.912 4.987l.564 3.558.567 4.191c.394 2.992.767 6.368 1.092 10.051.335 3.683.624 7.673.84 11.893.238 4.22.351 8.67.354 13.274-.043 4.604-.246 9.361-.524 14.195a728.835 728.835 0 0 0-.684 14.655l-.504 14.655c-.15 4.834-.368 9.591-.558 14.195l-.577 13.274-.581 11.893c-.372 7.366-.632 13.504-.896 17.801l-.385 6.752zm-10.095 22.338s-.595-7.366-1.31-18.415l-.557-8.92-.572-9.956c-.19-3.453-.408-7.021-.558-10.646l-.503-10.991a410.74 410.74 0 0 0-.684-10.991c-.269-3.625-.497-7.193-.525-10.646a122.03 122.03 0 0 1 .355-9.956c.216-3.165.504-6.157.84-8.92.654-5.524 1.497-10.128 2.215-13.351.367-1.611.678-2.877.919-3.74.233-.863.381-1.324.381-1.324h1s.147.46.38 1.324c.241.863.552 2.129.919 3.74.719 3.223 1.561 7.826 2.215 13.351.335 2.762.624 5.755.84 8.92.24 3.165.376 6.503.355 9.956-.028 3.453-.257 7.021-.525 10.646a410.74 410.74 0 0 0-.684 10.991l-.504 10.991c-.15 3.625-.368 7.193-.558 10.646l-.571 9.956-.557 8.92a1279.646 1279.646 0 0 1-1.31 18.415zm-17.018-22.432.757-6.015c.244-1.914.555-4.24.77-6.896l.393-4.226.205-2.285.141-2.406c.187-3.276.459-6.813.476-10.566.023-1.875.109-3.795.11-5.76l-.079-6.01c.009-2.037-.136-4.107-.239-6.2-.139-2.092-.141-4.209-.358-6.337l-.523-6.421-.754-6.445c-.241-2.149-.591-4.289-.967-6.413-.369-2.125-.713-4.24-1.189-6.321l-1.293-6.19a150.32 150.32 0 0 1-1.281-6.033c-.343-1.993-.787-3.938-1.117-5.862-.364-1.918-.616-3.815-.97-5.646-.67-3.668-1.196-7.17-1.757-10.401-.272-1.616-.499-3.177-.718-4.663-.235-1.483-.469-2.889-.65-4.223-.383-2.662-.66-5.008-.912-6.939a121.265 121.265 0 0 1-.462-4.528c-.087-1.053-.113-1.623-.113-1.623l.951-.309s.305.479.838 1.394c.54.912 1.292 2.264 2.223 3.998.938 1.732 1.982 3.871 3.098 6.358.573 1.239 1.144 2.571 1.755 3.975.564 1.419 1.16 2.912 1.747 4.482.594 1.569 1.214 3.202 1.774 4.922.544 1.723 1.136 3.499 1.681 5.343.588 1.832 1.055 3.755 1.55 5.714.477 1.964.972 3.968 1.316 6.044.359 2.071.696 4.183.98 6.327.266 2.149.427 4.341.636 6.539.229 2.194.328 4.424.468 6.653.116 2.232.342 4.457.382 6.7l.266 6.699.031 6.649c.046 2.198-.09 4.382-.166 6.535-.096 2.153-.148 4.278-.352 6.363l-.496 6.136c-.185 2.001-.459 3.951-.689 5.849-.417 3.801-1.067 7.359-1.603 10.643l-.401 2.409-.475 2.291-.89 4.221c-.289 1.319-.519 2.566-.802 3.693l-.796 3.094-1.512 5.871zm-20.028 21.568.757-6.015c.244-1.914.555-4.24.77-6.896l.393-4.226.205-2.285.141-2.406c.187-3.276.459-6.813.476-10.566.023-1.875.109-3.795.11-5.76l-.079-6.01c.009-2.037-.136-4.107-.239-6.2-.139-2.092-.141-4.209-.358-6.337l-.523-6.421-.754-6.445c-.241-2.149-.591-4.289-.967-6.413-.369-2.125-.713-4.24-1.189-6.321l-1.293-6.19a152.084 152.084 0 0 1-1.281-6.033c-.343-1.993-.787-3.938-1.117-5.862-.364-1.918-.616-3.815-.97-5.646-.67-3.668-1.196-7.17-1.757-10.401-.272-1.616-.499-3.177-.718-4.663-.235-1.483-.469-2.889-.651-4.222-.383-2.662-.66-5.008-.912-6.939a121.265 121.265 0 0 1-.462-4.528c-.087-1.053-.113-1.623-.113-1.623l.951-.309s.305.479.838 1.394c.54.912 1.292 2.264 2.223 3.998.938 1.732 1.982 3.871 3.098 6.358.573 1.239 1.144 2.571 1.755 3.975.564 1.419 1.16 2.912 1.747 4.482.594 1.569 1.214 3.202 1.774 4.923.544 1.723 1.136 3.499 1.681 5.343.588 1.832 1.055 3.755 1.549 5.714.477 1.964.972 3.968 1.317 6.044.359 2.071.696 4.183.98 6.327.266 2.149.427 4.341.636 6.539.229 2.194.328 4.424.469 6.653.116 2.232.342 4.457.382 6.7l.266 6.699.031 6.649c.046 2.198-.09 4.382-.166 6.535-.096 2.153-.148 4.278-.352 6.363l-.496 6.136c-.185 2.001-.459 3.951-.689 5.849-.417 3.801-1.068 7.359-1.603 10.643l-.402 2.409-.475 2.291-.89 4.221c-.289 1.319-.519 2.567-.803 3.693l-.795 3.094-1.512 5.871zm77.965-21.364-1.509-4.929-.794-2.598c-.284-.946-.515-2.003-.804-3.116l-.892-3.568-.476-1.939-.403-2.042c-.539-2.785-1.189-5.802-1.608-9.037-.23-1.615-.51-3.274-.689-4.98l-.498-5.234c-.205-1.779-.247-3.594-.347-5.433-.083-1.839-.203-3.706-.157-5.585l.035-5.685.281-5.726c.04-1.921.29-3.817.4-5.727.135-1.907.258-3.813.488-5.687.217-1.876.368-3.755.657-5.585.287-1.828.627-3.626.989-5.388.346-1.768.86-3.456 1.33-5.119.488-1.657.973-3.278 1.558-4.815.544-1.55 1.135-3.038 1.677-4.483.567-1.438 1.179-2.799 1.771-4.105a139.212 139.212 0 0 1 1.738-3.724c.606-1.16 1.171-2.261 1.738-3.282 1.104-2.052 2.14-3.804 3.065-5.215a87.023 87.023 0 0 1 2.193-3.248c.525-.74.826-1.125.826-1.125l.933.359s-.026.49-.113 1.392a92.361 92.361 0 0 1-.461 3.866c-.25 1.643-.529 3.639-.907 5.895-.181 1.131-.411 2.32-.645 3.574-.224 1.255-.444 2.577-.715 3.939-.554 2.725-1.088 5.674-1.746 8.758-.349 1.538-.616 3.133-.969 4.742-.319 1.616-.779 3.239-1.117 4.91a107.656 107.656 0 0 1-1.271 5.045l-1.296 5.177c-.472 1.74-.836 3.512-1.194 5.296-.366 1.782-.736 3.578-.974 5.387l-.762 5.425-.522 5.414c-.215 1.795-.232 3.582-.365 5.349-.098 1.767-.254 3.517-.244 5.239l-.079 5.082c-.006 1.662.086 3.286.107 4.874.017 3.179.287 6.171.476 8.946.143 2.788.522 5.288.74 7.545.215 2.248.527 4.22.771 5.842l.758 5.099zM76.55 307l-.385-12.547-.896-33.078-.581-22.1-.577-24.666-.558-26.377L73.05 161a2509.6 2509.6 0 0 0-.684-27.232c-.278-8.982-.481-17.822-.525-26.377.003-8.555.116-16.824.354-24.666.095-3.921.251-7.735.373-11.424l.482-10.676c.136-3.422.337-6.701.524-9.82.197-3.119.331-6.077.552-8.858l.567-7.788.563-6.612c.353-3.992.675-7.129.912-9.268L76.55 15h1l.38 3.279c.238 2.139.559 5.275.912 9.268l.563 6.612.567 7.788c.222 2.78.355 5.739.552 8.858.188 3.119.388 6.398.524 9.82l.482 10.676c.122 3.689.278 7.503.373 11.424.238 7.842.351 16.111.354 24.666-.043 8.555-.246 17.395-.524 26.377A2509.6 2509.6 0 0 0 81.049 161l-.504 27.232-.558 26.377-.577 24.666-.581 22.1-.896 33.078L77.55 307zm-16-104.373-.385-6.752c-.264-4.297-.524-10.435-.896-17.801l-.581-11.893-.577-13.274c-.19-4.604-.408-9.361-.558-14.195l-.503-14.655a728.49 728.49 0 0 0-.684-14.655c-.278-4.834-.481-9.591-.525-14.195.003-4.604.116-9.054.354-13.274.216-4.22.504-8.21.84-11.893.325-3.683.698-7.059 1.092-10.051l.567-4.191.563-3.558c.353-2.148.675-3.836.912-4.987.233-1.151.381-1.765.381-1.765h1s.147.614.38 1.765c.238 1.151.559 2.839.912 4.987l.563 3.558.567 4.191c.394 2.992.767 6.368 1.092 10.051.335 3.683.624 7.673.84 11.893.238 4.22.351 8.67.354 13.274-.043 4.604-.246 9.361-.524 14.195a728.835 728.835 0 0 0-.684 14.655l-.504 14.655c-.15 4.834-.368 9.591-.558 14.195l-.577 13.274-.581 11.893c-.372 7.366-.632 13.504-.896 17.801l-.385 6.752zm55.461 0-.385-6.752c-.264-4.297-.524-10.435-.896-17.801l-.581-11.893-.577-13.274c-.19-4.604-.408-9.361-.558-14.195l-.504-14.655a728.49 728.49 0 0 0-.684-14.655c-.278-4.834-.481-9.591-.524-14.195.003-4.604.116-9.054.354-13.274.216-4.22.504-8.21.84-11.893.325-3.683.698-7.059 1.092-10.051l.567-4.191.563-3.558c.353-2.148.675-3.836.912-4.987.233-1.151.38-1.765.38-1.765h1s.147.614.381 1.765c.238 1.151.559 2.839.912 4.987l.563 3.558.567 4.191c.394 2.992.767 6.368 1.092 10.051.335 3.683.624 7.673.84 11.893.238 4.22.351 8.67.354 13.274-.043 4.604-.247 9.361-.525 14.195a728.835 728.835 0 0 0-.684 14.655l-.503 14.655c-.15 4.834-.368 9.591-.558 14.195l-.577 13.274-.581 11.893c-.372 7.366-.632 13.504-.896 17.801l-.385 6.752zm-65.557 22.338s-.595-7.366-1.31-18.415l-.557-8.92-.571-9.956c-.19-3.453-.408-7.021-.558-10.646l-.504-10.991a410.74 410.74 0 0 0-.684-10.991c-.268-3.625-.497-7.193-.525-10.646a122.03 122.03 0 0 1 .355-9.956c.216-3.165.505-6.157.84-8.92.654-5.524 1.497-10.128 2.215-13.351.367-1.611.679-2.877.919-3.74.233-.863.38-1.324.38-1.324h1s.147.46.38 1.324c.241.863.552 2.129.919 3.74.719 3.223 1.561 7.826 2.215 13.351.335 2.762.624 5.755.84 8.92.24 3.165.376 6.503.355 9.956-.028 3.453-.257 7.021-.525 10.646a410.74 410.74 0 0 0-.684 10.991l-.504 10.991c-.15 3.625-.367 7.193-.558 10.646l-.571 9.956-.557 8.92a1279.646 1279.646 0 0 1-1.31 18.415zm80.111 0s-.595-7.366-1.31-18.415l-.557-8.92-.571-9.956c-.19-3.453-.408-7.021-.558-10.646l-.503-10.991a410.74 410.74 0 0 0-.684-10.991c-.269-3.625-.497-7.193-.525-10.646a122.03 122.03 0 0 1 .355-9.956c.216-3.165.504-6.157.84-8.92.654-5.524 1.497-10.128 2.215-13.351.367-1.611.678-2.877.919-3.74.233-.863.381-1.324.381-1.324h1s.147.46.38 1.324c.241.863.552 2.129.919 3.74.719 3.223 1.561 7.826 2.215 13.351.335 2.762.624 5.755.84 8.92.24 3.165.376 6.503.355 9.956-.028 3.453-.257 7.021-.525 10.646a410.74 410.74 0 0 0-.684 10.991l-.504 10.991c-.15 3.625-.368 7.193-.558 10.646l-.571 9.956-.557 8.92a1279.646 1279.646 0 0 1-1.31 18.415zm-29.271 18.487s-.595-7.366-1.31-18.415l-.557-8.92-.571-9.956c-.19-3.453-.408-7.021-.558-10.646l-.504-10.991a410.74 410.74 0 0 0-.684-10.991c-.268-3.625-.497-7.193-.525-10.646-.021-3.453.115-6.79.355-9.956.216-3.165.504-6.157.84-8.92.654-5.524 1.497-10.128 2.215-13.351.367-1.611.679-2.877.919-3.741.233-.863.38-1.324.38-1.324h1s.147.46.381 1.324c.241.863.552 2.129.919 3.741.719 3.223 1.561 7.826 2.215 13.351.335 2.762.624 5.755.84 8.92.24 3.165.376 6.503.355 9.956-.028 3.453-.257 7.021-.525 10.646a410.74 410.74 0 0 0-.684 10.991l-.503 10.991c-.15 3.625-.368 7.193-.558 10.646l-.572 9.956-.557 8.92a1279.646 1279.646 0 0 1-1.31 18.415zm-67.857-40.919.757-6.015c.244-1.914.555-4.24.77-6.896l.393-4.226.205-2.285.141-2.406c.187-3.276.459-6.813.476-10.566.023-1.875.109-3.795.11-5.76l-.079-6.01c.009-2.037-.136-4.107-.239-6.2-.139-2.092-.141-4.209-.358-6.337l-.523-6.421-.754-6.445c-.241-2.149-.591-4.289-.967-6.413-.369-2.125-.713-4.24-1.189-6.321l-1.293-6.19a152.084 152.084 0 0 1-1.281-6.033c-.343-1.993-.787-3.938-1.117-5.862-.364-1.918-.616-3.815-.97-5.646-.67-3.668-1.196-7.17-1.757-10.401-.272-1.616-.499-3.177-.718-4.663-.235-1.483-.469-2.889-.651-4.223-.383-2.662-.66-5.008-.912-6.939a121.265 121.265 0 0 1-.462-4.528c-.087-1.053-.112-1.623-.112-1.623l.951-.309s.305.479.838 1.394c.54.912 1.292 2.264 2.223 3.998.938 1.732 1.982 3.871 3.098 6.358.573 1.239 1.144 2.571 1.755 3.975.564 1.419 1.16 2.912 1.747 4.482.594 1.569 1.214 3.202 1.774 4.922.544 1.723 1.136 3.499 1.681 5.343.588 1.832 1.055 3.755 1.549 5.714.477 1.964.972 3.968 1.317 6.044.359 2.071.696 4.183.98 6.327.266 2.149.427 4.341.636 6.539.229 2.194.328 4.424.469 6.653.116 2.232.342 4.457.382 6.7l.266 6.699.031 6.649c.046 2.198-.09 4.382-.166 6.535-.096 2.153-.148 4.278-.352 6.363l-.496 6.136c-.185 2.001-.459 3.951-.689 5.849-.417 3.801-1.068 7.359-1.603 10.643l-.402 2.409-.475 2.291-.89 4.221c-.289 1.319-.519 2.566-.803 3.693l-.795 3.094-1.512 5.871zm57.937.204-1.508-4.929-.794-2.598c-.284-.946-.515-2.003-.804-3.116l-.892-3.568-.476-1.939-.403-2.042c-.539-2.785-1.189-5.802-1.608-9.037-.23-1.615-.51-3.274-.689-4.98l-.498-5.234c-.205-1.779-.247-3.594-.347-5.433-.083-1.839-.203-3.706-.158-5.585l.035-5.685.281-5.726c.041-1.921.29-3.817.4-5.727.135-1.907.258-3.813.488-5.687.217-1.876.368-3.755.657-5.585.288-1.828.627-3.626.989-5.388.346-1.768.86-3.456 1.331-5.119.488-1.657.973-3.278 1.558-4.815.544-1.55 1.135-3.038 1.677-4.483.567-1.438 1.179-2.799 1.771-4.105a139.212 139.212 0 0 1 1.738-3.724c.606-1.16 1.171-2.261 1.739-3.282 1.104-2.052 2.14-3.804 3.064-5.215a87.023 87.023 0 0 1 2.193-3.248c.525-.74.826-1.125.826-1.125l.933.359s-.026.49-.113 1.392a92.361 92.361 0 0 1-.461 3.866c-.25 1.643-.529 3.639-.907 5.895-.181 1.131-.412 2.32-.645 3.574-.223 1.255-.444 2.577-.714 3.939-.554 2.725-1.088 5.674-1.746 8.758-.349 1.538-.615 3.133-.969 4.742-.319 1.616-.779 3.239-1.117 4.91a107.656 107.656 0 0 1-1.271 5.045l-1.296 5.177c-.472 1.74-.835 3.512-1.194 5.296-.366 1.782-.736 3.578-.974 5.387l-.762 5.425-.522 5.414c-.215 1.795-.232 3.582-.365 5.349-.098 1.767-.254 3.517-.244 5.239l-.079 5.082c-.006 1.662.086 3.286.107 4.874.017 3.179.287 6.171.476 8.946.143 2.788.521 5.288.74 7.545.215 2.248.527 4.22.771 5.842l.758 5.099z" fill="#bbbdc7"/><g fill="#e8e9ec"><circle cx="18.2" cy="169.022" r="4.257"/><circle cx="25.962" cy="170.524" r="4.257"/><circle cx="34.476" cy="170.024" r="4.257"/><circle cx="43.24" cy="169.022" r="4.257"/><circle cx="51.002" cy="170.524" r="4.257"/><circle cx="59.516" cy="170.024" r="4.257"/><circle cx="68.28" cy="169.022" r="4.257"/><circle cx="76.042" cy="170.524" r="4.257"/><circle cx="84.556" cy="170.024" r="4.257"/><circle cx="93.32" cy="169.022" r="4.257"/><circle cx="101.083" cy="170.524" r="4.257"/><circle cx="109.596" cy="170.024" r="4.257"/><circle cx="118.36" cy="169.022" r="4.257"/><circle cx="126.123" cy="170.524" r="4.257"/><circle cx="134.636" cy="170.024" r="4.257"/><circle cx="143.4" cy="169.022" r="4.257"/><circle cx="151.163" cy="170.524" r="4.257"/><circle cx="159.676" cy="170.024" r="4.257"/><circle cx="168.44" cy="169.022" r="4.257"/><circle cx="176.203" cy="170.524" r="4.257"/><circle cx="184.716" cy="170.024" r="4.257"/><circle cx="193.48" cy="169.022" r="4.257"/><circle cx="201.243" cy="170.524" r="4.257"/><circle cx="209.756" cy="170.024" r="4.257"/><circle cx="218.52" cy="169.022" r="4.257"/><circle cx="226.283" cy="170.524" r="4.257"/><circle cx="234.796" cy="170.024" r="4.257"/></g><path d="M0 170h254v228H0z" fill="#f3f4f6"/></svg></g><g transform="translate(475.0 83.0) rotate(0.0 127.0 199.0) translate(0.0 171.0) scale(1.0 1.0)"><svg width="253" height="226" viewBox="0 171 253 226"><path d="m207.5 292-.385-12.547-.896-33.078-.581-22.1-.577-24.666-.558-26.377-.504-27.232a2509.6 2509.6 0 0 0-.684-27.232c-.278-8.982-.481-17.822-.524-26.377.002-8.555.116-16.824.354-24.666.095-3.921.251-7.735.373-11.424L204 45.625c.136-3.422.337-6.701.524-9.82.197-3.119.331-6.077.552-8.858l.567-7.788.564-6.612c.353-3.992.675-7.129.912-9.268L207.5 0h1l.38 3.279c.238 2.139.559 5.275.912 9.268l.564 6.612.567 7.788c.222 2.78.355 5.739.552 8.858.187 3.119.388 6.398.524 9.82l.482 10.676c.122 3.689.278 7.503.373 11.424.238 7.842.351 16.111.354 24.666-.043 8.555-.246 17.395-.524 26.377A2509.6 2509.6 0 0 0 212 146l-.504 27.232-.558 26.377-.577 24.666-.581 22.1-.896 33.078L208.5 292zm-16-104.373-.385-6.752c-.264-4.297-.524-10.435-.896-17.801l-.581-11.893-.577-13.274c-.19-4.604-.408-9.361-.558-14.195l-.504-14.655a728.49 728.49 0 0 0-.684-14.655c-.278-4.834-.481-9.591-.524-14.195.002-4.604.116-9.054.354-13.274.216-4.22.505-8.21.84-11.893.325-3.683.698-7.059 1.092-10.051l.567-4.191.564-3.558c.353-2.148.675-3.836.912-4.987.233-1.151.38-1.765.38-1.765h1s.147.614.38 1.765c.238 1.151.559 2.839.912 4.987l.564 3.558.567 4.191c.394 2.992.767 6.368 1.092 10.051.335 3.683.624 7.673.84 11.893.238 4.22.351 8.67.354 13.274-.043 4.604-.246 9.361-.524 14.195a728.835 728.835 0 0 0-.684 14.655l-.504 14.655c-.15 4.834-.368 9.591-.558 14.195l-.577 13.274-.581 11.893c-.372 7.366-.632 13.504-.896 17.801l-.385 6.752zm-10.095 22.338s-.595-7.366-1.31-18.415l-.557-8.92-.572-9.956c-.19-3.453-.408-7.021-.558-10.646l-.503-10.991a410.74 410.74 0 0 0-.684-10.991c-.269-3.625-.497-7.193-.525-10.646a122.03 122.03 0 0 1 .355-9.956c.216-3.165.504-6.157.84-8.92.654-5.524 1.497-10.128 2.215-13.351.367-1.611.678-2.877.919-3.74.233-.863.381-1.324.381-1.324h1s.147.46.38 1.324c.241.863.552 2.129.919 3.74.719 3.223 1.561 7.826 2.215 13.351.335 2.762.624 5.755.84 8.92.24 3.165.376 6.503.355 9.956-.028 3.453-.257 7.021-.525 10.646a410.74 410.74 0 0 0-.684 10.991l-.504 10.991c-.15 3.625-.368 7.193-.558 10.646l-.571 9.956-.557 8.92a1279.646 1279.646 0 0 1-1.31 18.415zm-17.018-22.432.757-6.015c.244-1.914.555-4.24.77-6.896l.393-4.226.205-2.285.141-2.406c.187-3.276.459-6.813.476-10.566.023-1.875.109-3.795.11-5.76l-.079-6.01c.009-2.037-.136-4.107-.239-6.2-.139-2.092-.141-4.209-.358-6.337l-.523-6.421-.754-6.445c-.241-2.149-.591-4.289-.967-6.413-.369-2.125-.713-4.24-1.189-6.321l-1.293-6.19a150.32 150.32 0 0 1-1.281-6.033c-.343-1.993-.787-3.938-1.117-5.862-.364-1.918-.616-3.815-.97-5.646-.67-3.668-1.196-7.17-1.757-10.401-.272-1.616-.499-3.177-.718-4.663-.235-1.483-.469-2.889-.65-4.223-.383-2.662-.66-5.008-.912-6.939a121.265 121.265 0 0 1-.462-4.528c-.087-1.053-.113-1.623-.113-1.623l.951-.309s.305.479.838 1.394c.54.912 1.292 2.264 2.223 3.998.938 1.732 1.982 3.871 3.098 6.358.573 1.239 1.144 2.571 1.755 3.975.564 1.419 1.16 2.912 1.747 4.482.594 1.569 1.214 3.202 1.774 4.922.544 1.723 1.136 3.499 1.681 5.343.588 1.832 1.055 3.755 1.55 5.714.477 1.964.972 3.968 1.316 6.044.359 2.071.696 4.183.98 6.327.266 2.149.427 4.341.636 6.539.229 2.194.328 4.424.468 6.653.116 2.232.342 4.457.382 6.7l.266 6.699.031 6.649c.046 2.198-.09 4.382-.166 6.535-.096 2.153-.148 4.278-.352 6.363l-.496 6.136c-.185 2.001-.459 3.951-.689 5.849-.417 3.801-1.067 7.359-1.603 10.643l-.401 2.409-.475 2.291-.89 4.221c-.289 1.319-.519 2.566-.802 3.693l-.796 3.094-1.512 5.871zm-20.028 21.568.757-6.015c.244-1.914.555-4.24.77-6.896l.393-4.226.205-2.285.141-2.406c.187-3.276.459-6.813.476-10.566.023-1.875.109-3.795.11-5.76l-.079-6.01c.009-2.037-.136-4.107-.239-6.2-.139-2.092-.141-4.209-.358-6.337l-.523-6.421-.754-6.445c-.241-2.149-.591-4.289-.967-6.413-.369-2.125-.713-4.24-1.189-6.321l-1.293-6.19a152.084 152.084 0 0 1-1.281-6.033c-.343-1.993-.787-3.938-1.117-5.862-.364-1.918-.616-3.815-.97-5.646-.67-3.668-1.196-7.17-1.757-10.401-.272-1.616-.499-3.177-.718-4.663-.235-1.483-.469-2.889-.651-4.222-.383-2.662-.66-5.008-.912-6.939a121.265 121.265 0 0 1-.462-4.528c-.087-1.053-.113-1.623-.113-1.623l.951-.309s.305.479.838 1.394c.54.912 1.292 2.264 2.223 3.998.938 1.732 1.982 3.871 3.098 6.358.573 1.239 1.144 2.571 1.755 3.975.564 1.419 1.16 2.912 1.747 4.482.594 1.569 1.214 3.202 1.774 4.923.544 1.723 1.136 3.499 1.681 5.343.588 1.832 1.055 3.755 1.549 5.714.477 1.964.972 3.968 1.317 6.044.359 2.071.696 4.183.98 6.327.266 2.149.427 4.341.636 6.539.229 2.194.328 4.424.469 6.653.116 2.232.342 4.457.382 6.7l.266 6.699.031 6.649c.046 2.198-.09 4.382-.166 6.535-.096 2.153-.148 4.278-.352 6.363l-.496 6.136c-.185 2.001-.459 3.951-.689 5.849-.417 3.801-1.068 7.359-1.603 10.643l-.402 2.409-.475 2.291-.89 4.221c-.289 1.319-.519 2.567-.803 3.693l-.795 3.094-1.512 5.871zm77.965-21.364-1.509-4.929-.794-2.598c-.284-.946-.515-2.003-.804-3.116l-.892-3.568-.476-1.939-.403-2.042c-.539-2.785-1.189-5.802-1.608-9.037-.23-1.615-.51-3.274-.689-4.98l-.498-5.234c-.205-1.779-.247-3.594-.347-5.433-.083-1.839-.203-3.706-.157-5.585l.035-5.685.281-5.726c.04-1.921.29-3.817.4-5.727.135-1.907.258-3.813.488-5.687.217-1.876.368-3.755.657-5.585.287-1.828.627-3.626.989-5.388.346-1.768.86-3.456 1.33-5.119.488-1.657.973-3.278 1.558-4.815.544-1.55 1.135-3.038 1.677-4.483.567-1.438 1.179-2.799 1.771-4.105a139.212 139.212 0 0 1 1.738-3.724c.606-1.16 1.171-2.261 1.738-3.282 1.104-2.052 2.14-3.804 3.065-5.215a87.023 87.023 0 0 1 2.193-3.248c.525-.74.826-1.125.826-1.125l.933.359s-.026.49-.113 1.392a92.361 92.361 0 0 1-.461 3.866c-.25 1.643-.529 3.639-.907 5.895-.181 1.131-.411 2.32-.645 3.574-.224 1.255-.444 2.577-.715 3.939-.554 2.725-1.088 5.674-1.746 8.758-.349 1.538-.616 3.133-.969 4.742-.319 1.616-.779 3.239-1.117 4.91a107.656 107.656 0 0 1-1.271 5.045l-1.296 5.177c-.472 1.74-.836 3.512-1.194 5.296-.366 1.782-.736 3.578-.974 5.387l-.762 5.425-.522 5.414c-.215 1.795-.232 3.582-.365 5.349-.098 1.767-.254 3.517-.244 5.239l-.079 5.082c-.006 1.662.086 3.286.107 4.874.017 3.179.287 6.171.476 8.946.143 2.788.522 5.288.74 7.545.215 2.248.527 4.22.771 5.842l.758 5.099zM76.55 307l-.385-12.547-.896-33.078-.581-22.1-.577-24.666-.558-26.377L73.05 161a2509.6 2509.6 0 0 0-.684-27.232c-.278-8.982-.481-17.822-.525-26.377.003-8.555.116-16.824.354-24.666.095-3.921.251-7.735.373-11.424l.482-10.676c.136-3.422.337-6.701.524-9.82.197-3.119.331-6.077.552-8.858l.567-7.788.563-6.612c.353-3.992.675-7.129.912-9.268L76.55 15h1l.38 3.279c.238 2.139.559 5.275.912 9.268l.563 6.612.567 7.788c.222 2.78.355 5.739.552 8.858.188 3.119.388 6.398.524 9.82l.482 10.676c.122 3.689.278 7.503.373 11.424.238 7.842.351 16.111.354 24.666-.043 8.555-.246 17.395-.524 26.377A2509.6 2509.6 0 0 0 81.049 161l-.504 27.232-.558 26.377-.577 24.666-.581 22.1-.896 33.078L77.55 307zm-16-104.373-.385-6.752c-.264-4.297-.524-10.435-.896-17.801l-.581-11.893-.577-13.274c-.19-4.604-.408-9.361-.558-14.195l-.503-14.655a728.49 728.49 0 0 0-.684-14.655c-.278-4.834-.481-9.591-.525-14.195.003-4.604.116-9.054.354-13.274.216-4.22.504-8.21.84-11.893.325-3.683.698-7.059 1.092-10.051l.567-4.191.563-3.558c.353-2.148.675-3.836.912-4.987.233-1.151.381-1.765.381-1.765h1s.147.614.38 1.765c.238 1.151.559 2.839.912 4.987l.563 3.558.567 4.191c.394 2.992.767 6.368 1.092 10.051.335 3.683.624 7.673.84 11.893.238 4.22.351 8.67.354 13.274-.043 4.604-.246 9.361-.524 14.195a728.835 728.835 0 0 0-.684 14.655l-.504 14.655c-.15 4.834-.368 9.591-.558 14.195l-.577 13.274-.581 11.893c-.372 7.366-.632 13.504-.896 17.801l-.385 6.752zm55.461 0-.385-6.752c-.264-4.297-.524-10.435-.896-17.801l-.581-11.893-.577-13.274c-.19-4.604-.408-9.361-.558-14.195l-.504-14.655a728.49 728.49 0 0 0-.684-14.655c-.278-4.834-.481-9.591-.524-14.195.003-4.604.116-9.054.354-13.274.216-4.22.504-8.21.84-11.893.325-3.683.698-7.059 1.092-10.051l.567-4.191.563-3.558c.353-2.148.675-3.836.912-4.987.233-1.151.38-1.765.38-1.765h1s.147.614.381 1.765c.238 1.151.559 2.839.912 4.987l.563 3.558.567 4.191c.394 2.992.767 6.368 1.092 10.051.335 3.683.624 7.673.84 11.893.238 4.22.351 8.67.354 13.274-.043 4.604-.247 9.361-.525 14.195a728.835 728.835 0 0 0-.684 14.655l-.503 14.655c-.15 4.834-.368 9.591-.558 14.195l-.577 13.274-.581 11.893c-.372 7.366-.632 13.504-.896 17.801l-.385 6.752zm-65.557 22.338s-.595-7.366-1.31-18.415l-.557-8.92-.571-9.956c-.19-3.453-.408-7.021-.558-10.646l-.504-10.991a410.74 410.74 0 0 0-.684-10.991c-.268-3.625-.497-7.193-.525-10.646a122.03 122.03 0 0 1 .355-9.956c.216-3.165.505-6.157.84-8.92.654-5.524 1.497-10.128 2.215-13.351.367-1.611.679-2.877.919-3.74.233-.863.38-1.324.38-1.324h1s.147.46.38 1.324c.241.863.552 2.129.919 3.74.719 3.223 1.561 7.826 2.215 13.351.335 2.762.624 5.755.84 8.92.24 3.165.376 6.503.355 9.956-.028 3.453-.257 7.021-.525 10.646a410.74 410.74 0 0 0-.684 10.991l-.504 10.991c-.15 3.625-.367 7.193-.558 10.646l-.571 9.956-.557 8.92a1279.646 1279.646 0 0 1-1.31 18.415zm80.111 0s-.595-7.366-1.31-18.415l-.557-8.92-.571-9.956c-.19-3.453-.408-7.021-.558-10.646l-.503-10.991a410.74 410.74 0 0 0-.684-10.991c-.269-3.625-.497-7.193-.525-10.646a122.03 122.03 0 0 1 .355-9.956c.216-3.165.504-6.157.84-8.92.654-5.524 1.497-10.128 2.215-13.351.367-1.611.678-2.877.919-3.74.233-.863.381-1.324.381-1.324h1s.147.46.38 1.324c.241.863.552 2.129.919 3.74.719 3.223 1.561 7.826 2.215 13.351.335 2.762.624 5.755.84 8.92.24 3.165.376 6.503.355 9.956-.028 3.453-.257 7.021-.525 10.646a410.74 410.74 0 0 0-.684 10.991l-.504 10.991c-.15 3.625-.368 7.193-.558 10.646l-.571 9.956-.557 8.92a1279.646 1279.646 0 0 1-1.31 18.415zm-29.271 18.487s-.595-7.366-1.31-18.415l-.557-8.92-.571-9.956c-.19-3.453-.408-7.021-.558-10.646l-.504-10.991a410.74 410.74 0 0 0-.684-10.991c-.268-3.625-.497-7.193-.525-10.646-.021-3.453.115-6.79.355-9.956.216-3.165.504-6.157.84-8.92.654-5.524 1.497-10.128 2.215-13.351.367-1.611.679-2.877.919-3.741.233-.863.38-1.324.38-1.324h1s.147.46.381 1.324c.241.863.552 2.129.919 3.741.719 3.223 1.561 7.826 2.215 13.351.335 2.762.624 5.755.84 8.92.24 3.165.376 6.503.355 9.956-.028 3.453-.257 7.021-.525 10.646a410.74 410.74 0 0 0-.684 10.991l-.503 10.991c-.15 3.625-.368 7.193-.558 10.646l-.572 9.956-.557 8.92a1279.646 1279.646 0 0 1-1.31 18.415zm-67.857-40.919.757-6.015c.244-1.914.555-4.24.77-6.896l.393-4.226.205-2.285.141-2.406c.187-3.276.459-6.813.476-10.566.023-1.875.109-3.795.11-5.76l-.079-6.01c.009-2.037-.136-4.107-.239-6.2-.139-2.092-.141-4.209-.358-6.337l-.523-6.421-.754-6.445c-.241-2.149-.591-4.289-.967-6.413-.369-2.125-.713-4.24-1.189-6.321l-1.293-6.19a152.084 152.084 0 0 1-1.281-6.033c-.343-1.993-.787-3.938-1.117-5.862-.364-1.918-.616-3.815-.97-5.646-.67-3.668-1.196-7.17-1.757-10.401-.272-1.616-.499-3.177-.718-4.663-.235-1.483-.469-2.889-.651-4.223-.383-2.662-.66-5.008-.912-6.939a121.265 121.265 0 0 1-.462-4.528c-.087-1.053-.112-1.623-.112-1.623l.951-.309s.305.479.838 1.394c.54.912 1.292 2.264 2.223 3.998.938 1.732 1.982 3.871 3.098 6.358.573 1.239 1.144 2.571 1.755 3.975.564 1.419 1.16 2.912 1.747 4.482.594 1.569 1.214 3.202 1.774 4.922.544 1.723 1.136 3.499 1.681 5.343.588 1.832 1.055 3.755 1.549 5.714.477 1.964.972 3.968 1.317 6.044.359 2.071.696 4.183.98 6.327.266 2.149.427 4.341.636 6.539.229 2.194.328 4.424.469 6.653.116 2.232.342 4.457.382 6.7l.266 6.699.031 6.649c.046 2.198-.09 4.382-.166 6.535-.096 2.153-.148 4.278-.352 6.363l-.496 6.136c-.185 2.001-.459 3.951-.689 5.849-.417 3.801-1.068 7.359-1.603 10.643l-.402 2.409-.475 2.291-.89 4.221c-.289 1.319-.519 2.566-.803 3.693l-.795 3.094-1.512 5.871zm57.937.204-1.508-4.929-.794-2.598c-.284-.946-.515-2.003-.804-3.116l-.892-3.568-.476-1.939-.403-2.042c-.539-2.785-1.189-5.802-1.608-9.037-.23-1.615-.51-3.274-.689-4.98l-.498-5.234c-.205-1.779-.247-3.594-.347-5.433-.083-1.839-.203-3.706-.158-5.585l.035-5.685.281-5.726c.041-1.921.29-3.817.4-5.727.135-1.907.258-3.813.488-5.687.217-1.876.368-3.755.657-5.585.288-1.828.627-3.626.989-5.388.346-1.768.86-3.456 1.331-5.119.488-1.657.973-3.278 1.558-4.815.544-1.55 1.135-3.038 1.677-4.483.567-1.438 1.179-2.799 1.771-4.105a139.212 139.212 0 0 1 1.738-3.724c.606-1.16 1.171-2.261 1.739-3.282 1.104-2.052 2.14-3.804 3.064-5.215a87.023 87.023 0 0 1 2.193-3.248c.525-.74.826-1.125.826-1.125l.933.359s-.026.49-.113 1.392a92.361 92.361 0 0 1-.461 3.866c-.25 1.643-.529 3.639-.907 5.895-.181 1.131-.412 2.32-.645 3.574-.223 1.255-.444 2.577-.714 3.939-.554 2.725-1.088 5.674-1.746 8.758-.349 1.538-.615 3.133-.969 4.742-.319 1.616-.779 3.239-1.117 4.91a107.656 107.656 0 0 1-1.271 5.045l-1.296 5.177c-.472 1.74-.835 3.512-1.194 5.296-.366 1.782-.736 3.578-.974 5.387l-.762 5.425-.522 5.414c-.215 1.795-.232 3.582-.365 5.349-.098 1.767-.254 3.517-.244 5.239l-.079 5.082c-.006 1.662.086 3.286.107 4.874.017 3.179.287 6.171.476 8.946.143 2.788.521 5.288.74 7.545.215 2.248.527 4.22.771 5.842l.758 5.099z" fill="#bbbdc7"/><g fill="#e8e9ec"><circle cx="18.2" cy="169.022" r="4.257"/><circle cx="25.962" cy="170.524" r="4.257"/><circle cx="34.476" cy="170.024" r="4.257"/><circle cx="43.24" cy="169.022" r="4.257"/><circle cx="51.002" cy="170.524" r="4.257"/><circle cx="59.516" cy="170.024" r="4.257"/><circle cx="68.28" cy="169.022" r="4.257"/><circle cx="76.042" cy="170.524" r="4.257"/><circle cx="84.556" cy="170.024" r="4.257"/><circle cx="93.32" cy="169.022" r="4.257"/><circle cx="101.083" cy="170.524" r="4.257"/><circle cx="109.596" cy="170.024" r="4.257"/><circle cx="118.36" cy="169.022" r="4.257"/><circle cx="126.123" cy="170.524" r="4.257"/><circle cx="134.636" cy="170.024" r="4.257"/><circle cx="143.4" cy="169.022" r="4.257"/><circle cx="151.163" cy="170.524" r="4.257"/><circle cx="159.676" cy="170.024" r="4.257"/><circle cx="168.44" cy="169.022" r="4.257"/><circle cx="176.203" cy="170.524" r="4.257"/><circle cx="184.716" cy="170.024" r="4.257"/><circle cx="193.48" cy="169.022" r="4.257"/><circle cx="201.243" cy="170.524" r="4.257"/><circle cx="209.756" cy="170.024" r="4.257"/><circle cx="218.52" cy="169.022" r="4.257"/><circle cx="226.283" cy="170.524" r="4.257"/><circle cx="234.796" cy="170.024" r="4.257"/></g><path d="M0 170h254v228H0z" fill="#f3f4f6"/></svg></g><g transform="translate(84.0 84.0) rotate(0.0 127.0 199.0) scale(1.0 1.0)"><svg width="254" height="398" viewBox="0 0 254 398"><path d="m207.5 292-.385-12.547-.896-33.078-.581-22.1-.577-24.666-.558-26.377-.504-27.232a2509.6 2509.6 0 0 0-.684-27.232c-.278-8.982-.481-17.822-.524-26.377.002-8.555.116-16.824.354-24.666.095-3.921.251-7.735.373-11.424L204 45.625c.136-3.422.337-6.701.524-9.82.197-3.119.331-6.077.552-8.858l.567-7.788.564-6.612c.353-3.992.675-7.129.912-9.268L207.5 0h1l.38 3.279c.238 2.139.559 5.275.912 9.268l.564 6.612.567 7.788c.222 2.78.355 5.739.552 8.858.187 3.119.388 6.398.524 9.82l.482 10.676c.122 3.689.278 7.503.373 11.424.238 7.842.351 16.111.354 24.666-.043 8.555-.246 17.395-.524 26.377A2509.6 2509.6 0 0 0 212 146l-.504 27.232-.558 26.377-.577 24.666-.581 22.1-.896 33.078L208.5 292zm-16-104.373-.385-6.752c-.264-4.297-.524-10.435-.896-17.801l-.581-11.893-.577-13.274c-.19-4.604-.408-9.361-.558-14.195l-.504-14.655a728.49 728.49 0 0 0-.684-14.655c-.278-4.834-.481-9.591-.524-14.195.002-4.604.116-9.054.354-13.274.216-4.22.505-8.21.84-11.893.325-3.683.698-7.059 1.092-10.051l.567-4.191.564-3.558c.353-2.148.675-3.836.912-4.987.233-1.151.38-1.765.38-1.765h1s.147.614.38 1.765c.238 1.151.559 2.839.912 4.987l.564 3.558.567 4.191c.394 2.992.767 6.368 1.092 10.051.335 3.683.624 7.673.84 11.893.238 4.22.351 8.67.354 13.274-.043 4.604-.246 9.361-.524 14.195a728.835 728.835 0 0 0-.684 14.655l-.504 14.655c-.15 4.834-.368 9.591-.558 14.195l-.577 13.274-.581 11.893c-.372 7.366-.632 13.504-.896 17.801l-.385 6.752zm-10.095 22.338s-.595-7.366-1.31-18.415l-.557-8.92-.572-9.956c-.19-3.453-.408-7.021-.558-10.646l-.503-10.991a410.74 410.74 0 0 0-.684-10.991c-.269-3.625-.497-7.193-.525-10.646a122.03 122.03 0 0 1 .355-9.956c.216-3.165.504-6.157.84-8.92.654-5.524 1.497-10.128 2.215-13.351.367-1.611.678-2.877.919-3.74.233-.863.381-1.324.381-1.324h1s.147.46.38 1.324c.241.863.552 2.129.919 3.74.719 3.223 1.561 7.826 2.215 13.351.335 2.762.624 5.755.84 8.92.24 3.165.376 6.503.355 9.956-.028 3.453-.257 7.021-.525 10.646a410.74 410.74 0 0 0-.684 10.991l-.504 10.991c-.15 3.625-.368 7.193-.558 10.646l-.571 9.956-.557 8.92a1279.646 1279.646 0 0 1-1.31 18.415zm-17.018-22.432.757-6.015c.244-1.914.555-4.24.77-6.896l.393-4.226.205-2.285.141-2.406c.187-3.276.459-6.813.476-10.566.023-1.875.109-3.795.11-5.76l-.079-6.01c.009-2.037-.136-4.107-.239-6.2-.139-2.092-.141-4.209-.358-6.337l-.523-6.421-.754-6.445c-.241-2.149-.591-4.289-.967-6.413-.369-2.125-.713-4.24-1.189-6.321l-1.293-6.19a150.32 150.32 0 0 1-1.281-6.033c-.343-1.993-.787-3.938-1.117-5.862-.364-1.918-.616-3.815-.97-5.646-.67-3.668-1.196-7.17-1.757-10.401-.272-1.616-.499-3.177-.718-4.663-.235-1.483-.469-2.889-.65-4.223-.383-2.662-.66-5.008-.912-6.939a121.265 121.265 0 0 1-.462-4.528c-.087-1.053-.113-1.623-.113-1.623l.951-.309s.305.479.838 1.394c.54.912 1.292 2.264 2.223 3.998.938 1.732 1.982 3.871 3.098 6.358.573 1.239 1.144 2.571 1.755 3.975.564 1.419 1.16 2.912 1.747 4.482.594 1.569 1.214 3.202 1.774 4.922.544 1.723 1.136 3.499 1.681 5.343.588 1.832 1.055 3.755 1.55 5.714.477 1.964.972 3.968 1.316 6.044.359 2.071.696 4.183.98 6.327.266 2.149.427 4.341.636 6.539.229 2.194.328 4.424.468 6.653.116 2.232.342 4.457.382 6.7l.266 6.699.031 6.649c.046 2.198-.09 4.382-.166 6.535-.096 2.153-.148 4.278-.352 6.363l-.496 6.136c-.185 2.001-.459 3.951-.689 5.849-.417 3.801-1.067 7.359-1.603 10.643l-.401 2.409-.475 2.291-.89 4.221c-.289 1.319-.519 2.566-.802 3.693l-.796 3.094-1.512 5.871zm-20.028 21.568.757-6.015c.244-1.914.555-4.24.77-6.896l.393-4.226.205-2.285.141-2.406c.187-3.276.459-6.813.476-10.566.023-1.875.109-3.795.11-5.76l-.079-6.01c.009-2.037-.136-4.107-.239-6.2-.139-2.092-.141-4.209-.358-6.337l-.523-6.421-.754-6.445c-.241-2.149-.591-4.289-.967-6.413-.369-2.125-.713-4.24-1.189-6.321l-1.293-6.19a152.084 152.084 0 0 1-1.281-6.033c-.343-1.993-.787-3.938-1.117-5.862-.364-1.918-.616-3.815-.97-5.646-.67-3.668-1.196-7.17-1.757-10.401-.272-1.616-.499-3.177-.718-4.663-.235-1.483-.469-2.889-.651-4.222-.383-2.662-.66-5.008-.912-6.939a121.265 121.265 0 0 1-.462-4.528c-.087-1.053-.113-1.623-.113-1.623l.951-.309s.305.479.838 1.394c.54.912 1.292 2.264 2.223 3.998.938 1.732 1.982 3.871 3.098 6.358.573 1.239 1.144 2.571 1.755 3.975.564 1.419 1.16 2.912 1.747 4.482.594 1.569 1.214 3.202 1.774 4.923.544 1.723 1.136 3.499 1.681 5.343.588 1.832 1.055 3.755 1.549 5.714.477 1.964.972 3.968 1.317 6.044.359 2.071.696 4.183.98 6.327.266 2.149.427 4.341.636 6.539.229 2.194.328 4.424.469 6.653.116 2.232.342 4.457.382 6.7l.266 6.699.031 6.649c.046 2.198-.09 4.382-.166 6.535-.096 2.153-.148 4.278-.352 6.363l-.496 6.136c-.185 2.001-.459 3.951-.689 5.849-.417 3.801-1.068 7.359-1.603 10.643l-.402 2.409-.475 2.291-.89 4.221c-.289 1.319-.519 2.567-.803 3.693l-.795 3.094-1.512 5.871zm77.965-21.364-1.509-4.929-.794-2.598c-.284-.946-.515-2.003-.804-3.116l-.892-3.568-.476-1.939-.403-2.042c-.539-2.785-1.189-5.802-1.608-9.037-.23-1.615-.51-3.274-.689-4.98l-.498-5.234c-.205-1.779-.247-3.594-.347-5.433-.083-1.839-.203-3.706-.157-5.585l.035-5.685.281-5.726c.04-1.921.29-3.817.4-5.727.135-1.907.258-3.813.488-5.687.217-1.876.368-3.755.657-5.585.287-1.828.627-3.626.989-5.388.346-1.768.86-3.456 1.33-5.119.488-1.657.973-3.278 1.558-4.815.544-1.55 1.135-3.038 1.677-4.483.567-1.438 1.179-2.799 1.771-4.105a139.212 139.212 0 0 1 1.738-3.724c.606-1.16 1.171-2.261 1.738-3.282 1.104-2.052 2.14-3.804 3.065-5.215a87.023 87.023 0 0 1 2.193-3.248c.525-.74.826-1.125.826-1.125l.933.359s-.026.49-.113 1.392a92.361 92.361 0 0 1-.461 3.866c-.25 1.643-.529 3.639-.907 5.895-.181 1.131-.411 2.32-.645 3.574-.224 1.255-.444 2.577-.715 3.939-.554 2.725-1.088 5.674-1.746 8.758-.349 1.538-.616 3.133-.969 4.742-.319 1.616-.779 3.239-1.117 4.91a107.656 107.656 0 0 1-1.271 5.045l-1.296 5.177c-.472 1.74-.836 3.512-1.194 5.296-.366 1.782-.736 3.578-.974 5.387l-.762 5.425-.522 5.414c-.215 1.795-.232 3.582-.365 5.349-.098 1.767-.254 3.517-.244 5.239l-.079 5.082c-.006 1.662.086 3.286.107 4.874.017 3.179.287 6.171.476 8.946.143 2.788.522 5.288.74 7.545.215 2.248.527 4.22.771 5.842l.758 5.099zM76.55 307l-.385-12.547-.896-33.078-.581-22.1-.577-24.666-.558-26.377L73.05 161a2509.6 2509.6 0 0 0-.684-27.232c-.278-8.982-.481-17.822-.525-26.377.003-8.555.116-16.824.354-24.666.095-3.921.251-7.735.373-11.424l.482-10.676c.136-3.422.337-6.701.524-9.82.197-3.119.331-6.077.552-8.858l.567-7.788.563-6.612c.353-3.992.675-7.129.912-9.268L76.55 15h1l.38 3.279c.238 2.139.559 5.275.912 9.268l.563 6.612.567 7.788c.222 2.78.355 5.739.552 8.858.188 3.119.388 6.398.524 9.82l.482 10.676c.122 3.689.278 7.503.373 11.424.238 7.842.351 16.111.354 24.666-.043 8.555-.246 17.395-.524 26.377A2509.6 2509.6 0 0 0 81.049 161l-.504 27.232-.558 26.377-.577 24.666-.581 22.1-.896 33.078L77.55 307zm-16-104.373-.385-6.752c-.264-4.297-.524-10.435-.896-17.801l-.581-11.893-.577-13.274c-.19-4.604-.408-9.361-.558-14.195l-.503-14.655a728.49 728.49 0 0 0-.684-14.655c-.278-4.834-.481-9.591-.525-14.195.003-4.604.116-9.054.354-13.274.216-4.22.504-8.21.84-11.893.325-3.683.698-7.059 1.092-10.051l.567-4.191.563-3.558c.353-2.148.675-3.836.912-4.987.233-1.151.381-1.765.381-1.765h1s.147.614.38 1.765c.238 1.151.559 2.839.912 4.987l.563 3.558.567 4.191c.394 2.992.767 6.368 1.092 10.051.335 3.683.624 7.673.84 11.893.238 4.22.351 8.67.354 13.274-.043 4.604-.246 9.361-.524 14.195a728.835 728.835 0 0 0-.684 14.655l-.504 14.655c-.15 4.834-.368 9.591-.558 14.195l-.577 13.274-.581 11.893c-.372 7.366-.632 13.504-.896 17.801l-.385 6.752zm55.461 0-.385-6.752c-.264-4.297-.524-10.435-.896-17.801l-.581-11.893-.577-13.274c-.19-4.604-.408-9.361-.558-14.195l-.504-14.655a728.49 728.49 0 0 0-.684-14.655c-.278-4.834-.481-9.591-.524-14.195.003-4.604.116-9.054.354-13.274.216-4.22.504-8.21.84-11.893.325-3.683.698-7.059 1.092-10.051l.567-4.191.563-3.558c.353-2.148.675-3.836.912-4.987.233-1.151.38-1.765.38-1.765h1s.147.614.381 1.765c.238 1.151.559 2.839.912 4.987l.563 3.558.567 4.191c.394 2.992.767 6.368 1.092 10.051.335 3.683.624 7.673.84 11.893.238 4.22.351 8.67.354 13.274-.043 4.604-.247 9.361-.525 14.195a728.835 728.835 0 0 0-.684 14.655l-.503 14.655c-.15 4.834-.368 9.591-.558 14.195l-.577 13.274-.581 11.893c-.372 7.366-.632 13.504-.896 17.801l-.385 6.752zm-65.557 22.338s-.595-7.366-1.31-18.415l-.557-8.92-.571-9.956c-.19-3.453-.408-7.021-.558-10.646l-.504-10.991a410.74 410.74 0 0 0-.684-10.991c-.268-3.625-.497-7.193-.525-10.646a122.03 122.03 0 0 1 .355-9.956c.216-3.165.505-6.157.84-8.92.654-5.524 1.497-10.128 2.215-13.351.367-1.611.679-2.877.919-3.74.233-.863.38-1.324.38-1.324h1s.147.46.38 1.324c.241.863.552 2.129.919 3.74.719 3.223 1.561 7.826 2.215 13.351.335 2.762.624 5.755.84 8.92.24 3.165.376 6.503.355 9.956-.028 3.453-.257 7.021-.525 10.646a410.74 410.74 0 0 0-.684 10.991l-.504 10.991c-.15 3.625-.367 7.193-.558 10.646l-.571 9.956-.557 8.92a1279.646 1279.646 0 0 1-1.31 18.415zm80.111 0s-.595-7.366-1.31-18.415l-.557-8.92-.571-9.956c-.19-3.453-.408-7.021-.558-10.646l-.503-10.991a410.74 410.74 0 0 0-.684-10.991c-.269-3.625-.497-7.193-.525-10.646a122.03 122.03 0 0 1 .355-9.956c.216-3.165.504-6.157.84-8.92.654-5.524 1.497-10.128 2.215-13.351.367-1.611.678-2.877.919-3.74.233-.863.381-1.324.381-1.324h1s.147.46.38 1.324c.241.863.552 2.129.919 3.74.719 3.223 1.561 7.826 2.215 13.351.335 2.762.624 5.755.84 8.92.24 3.165.376 6.503.355 9.956-.028 3.453-.257 7.021-.525 10.646a410.74 410.74 0 0 0-.684 10.991l-.504 10.991c-.15 3.625-.368 7.193-.558 10.646l-.571 9.956-.557 8.92a1279.646 1279.646 0 0 1-1.31 18.415zm-29.271 18.487s-.595-7.366-1.31-18.415l-.557-8.92-.571-9.956c-.19-3.453-.408-7.021-.558-10.646l-.504-10.991a410.74 410.74 0 0 0-.684-10.991c-.268-3.625-.497-7.193-.525-10.646-.021-3.453.115-6.79.355-9.956.216-3.165.504-6.157.84-8.92.654-5.524 1.497-10.128 2.215-13.351.367-1.611.679-2.877.919-3.741.233-.863.38-1.324.38-1.324h1s.147.46.381 1.324c.241.863.552 2.129.919 3.741.719 3.223 1.561 7.826 2.215 13.351.335 2.762.624 5.755.84 8.92.24 3.165.376 6.503.355 9.956-.028 3.453-.257 7.021-.525 10.646a410.74 410.74 0 0 0-.684 10.991l-.503 10.991c-.15 3.625-.368 7.193-.558 10.646l-.572 9.956-.557 8.92a1279.646 1279.646 0 0 1-1.31 18.415zm-67.857-40.919.757-6.015c.244-1.914.555-4.24.77-6.896l.393-4.226.205-2.285.141-2.406c.187-3.276.459-6.813.476-10.566.023-1.875.109-3.795.11-5.76l-.079-6.01c.009-2.037-.136-4.107-.239-6.2-.139-2.092-.141-4.209-.358-6.337l-.523-6.421-.754-6.445c-.241-2.149-.591-4.289-.967-6.413-.369-2.125-.713-4.24-1.189-6.321l-1.293-6.19a152.084 152.084 0 0 1-1.281-6.033c-.343-1.993-.787-3.938-1.117-5.862-.364-1.918-.616-3.815-.97-5.646-.67-3.668-1.196-7.17-1.757-10.401-.272-1.616-.499-3.177-.718-4.663-.235-1.483-.469-2.889-.651-4.223-.383-2.662-.66-5.008-.912-6.939a121.265 121.265 0 0 1-.462-4.528c-.087-1.053-.112-1.623-.112-1.623l.951-.309s.305.479.838 1.394c.54.912 1.292 2.264 2.223 3.998.938 1.732 1.982 3.871 3.098 6.358.573 1.239 1.144 2.571 1.755 3.975.564 1.419 1.16 2.912 1.747 4.482.594 1.569 1.214 3.202 1.774 4.922.544 1.723 1.136 3.499 1.681 5.343.588 1.832 1.055 3.755 1.549 5.714.477 1.964.972 3.968 1.317 6.044.359 2.071.696 4.183.98 6.327.266 2.149.427 4.341.636 6.539.229 2.194.328 4.424.469 6.653.116 2.232.342 4.457.382 6.7l.266 6.699.031 6.649c.046 2.198-.09 4.382-.166 6.535-.096 2.153-.148 4.278-.352 6.363l-.496 6.136c-.185 2.001-.459 3.951-.689 5.849-.417 3.801-1.068 7.359-1.603 10.643l-.402 2.409-.475 2.291-.89 4.221c-.289 1.319-.519 2.566-.803 3.693l-.795 3.094-1.512 5.871zm57.937.204-1.508-4.929-.794-2.598c-.284-.946-.515-2.003-.804-3.116l-.892-3.568-.476-1.939-.403-2.042c-.539-2.785-1.189-5.802-1.608-9.037-.23-1.615-.51-3.274-.689-4.98l-.498-5.234c-.205-1.779-.247-3.594-.347-5.433-.083-1.839-.203-3.706-.158-5.585l.035-5.685.281-5.726c.041-1.921.29-3.817.4-5.727.135-1.907.258-3.813.488-5.687.217-1.876.368-3.755.657-5.585.288-1.828.627-3.626.989-5.388.346-1.768.86-3.456 1.331-5.119.488-1.657.973-3.278 1.558-4.815.544-1.55 1.135-3.038 1.677-4.483.567-1.438 1.179-2.799 1.771-4.105a139.212 139.212 0 0 1 1.738-3.724c.606-1.16 1.171-2.261 1.739-3.282 1.104-2.052 2.14-3.804 3.064-5.215a87.023 87.023 0 0 1 2.193-3.248c.525-.74.826-1.125.826-1.125l.933.359s-.026.49-.113 1.392a92.361 92.361 0 0 1-.461 3.866c-.25 1.643-.529 3.639-.907 5.895-.181 1.131-.412 2.32-.645 3.574-.223 1.255-.444 2.577-.714 3.939-.554 2.725-1.088 5.674-1.746 8.758-.349 1.538-.615 3.133-.969 4.742-.319 1.616-.779 3.239-1.117 4.91a107.656 107.656 0 0 1-1.271 5.045l-1.296 5.177c-.472 1.74-.835 3.512-1.194 5.296-.366 1.782-.736 3.578-.974 5.387l-.762 5.425-.522 5.414c-.215 1.795-.232 3.582-.365 5.349-.098 1.767-.254 3.517-.244 5.239l-.079 5.082c-.006 1.662.086 3.286.107 4.874.017 3.179.287 6.171.476 8.946.143 2.788.521 5.288.74 7.545.215 2.248.527 4.22.771 5.842l.758 5.099z" fill="#bbbdc7"/><g fill="#e8e9ec"><circle cx="18.2" cy="169.022" r="4.257"/><circle cx="25.962" cy="170.524" r="4.257"/><circle cx="34.476" cy="170.024" r="4.257"/><circle cx="43.24" cy="169.022" r="4.257"/><circle cx="51.002" cy="170.524" r="4.257"/><circle cx="59.516" cy="170.024" r="4.257"/><circle cx="68.28" cy="169.022" r="4.257"/><circle cx="76.042" cy="170.524" r="4.257"/><circle cx="84.556" cy="170.024" r="4.257"/><circle cx="93.32" cy="169.022" r="4.257"/><circle cx="101.083" cy="170.524" r="4.257"/><circle cx="109.596" cy="170.024" r="4.257"/><circle cx="118.36" cy="169.022" r="4.257"/><circle cx="126.123" cy="170.524" r="4.257"/><circle cx="134.636" cy="170.024" r="4.257"/><circle cx="143.4" cy="169.022" r="4.257"/><circle cx="151.163" cy="170.524" r="4.257"/><circle cx="159.676" cy="170.024" r="4.257"/><circle cx="168.44" cy="169.022" r="4.257"/><circle cx="176.203" cy="170.524" r="4.257"/><circle cx="184.716" cy="170.024" r="4.257"/><circle cx="193.48" cy="169.022" r="4.257"/><circle cx="201.243" cy="170.524" r="4.257"/><circle cx="209.756" cy="170.024" r="4.257"/><circle cx="218.52" cy="169.022" r="4.257"/><circle cx="226.283" cy="170.524" r="4.257"/><circle cx="234.796" cy="170.024" r="4.257"/></g><path d="M0 170h254v228H0z" fill="#f3f4f6"/></svg></g><g transform="translate(245.0 368.0) rotate(0.0 182.0 79.0) translate(0.0 0.0) scale(0.872914238574176 0.8636144999781363)"><svg width="416.994" height="160.951" viewBox="0 0 416.994 160.951"><g fill="#D2D3DA"><path d="M.158 0h416.837v17.368H.158z"/><path d="M357.134 12.406h22.331v19.849h-22.331z"/><path d="M408.128 182.952 368.299 34.499 328.47 182.952l-7.726-2.073L368.299 3.626l47.555 177.253zM36.39 12.406h22.331v19.849H36.39z"/><path d="M87.384 182.952 47.556 34.499 7.727 182.952 0 180.879 47.556 3.626l47.555 177.253z"/></g></svg></g><g transform="translate(431.0 324.0) rotate(0.0 51.5 22.0) scale(0.9909277200003849 0.9811573196565949)"><svg width="103.943" height="44.845" viewBox="0 0 103.943 44.845"><path d="M89.501 40.172h-50.83L53.307.653A1 1 0 0 1 54.245 0h48.697a1 1 0 0 1 .938 1.347z" fill="#93c3ff"/><path d="M87.181 37.58H42.91L55.869 2.592h44.271z" fill="#013D84"/><path d="M50.42 44.845h37.352a2 2 0 0 0 2-2v-3.329H50.42z" fill="#68abff"/><path d="M2 44.845h49.24v-5.329H0v3.329a2 2 0 0 0 2 2z" fill="#93c3ff"/></svg></g><g transform="translate(374.0 67.0) rotate(0.0 163.0 94.5) translate(0.0 0.0) scale(0.9992429049156007 0.9995398943343541)"><svg width="326.247" height="189.087" viewBox="0 0 326.247 189.087"><path d="M195.039 124.825h-63.831v51.536l32.13-2.128 31.701 2.128z" fill="#e8e9ec"/><path d="M0 0h326.247v167.379H0z" fill="#f3f4f6"/><path d="M8.511 7.203h309.225v152.972H8.511z" fill="#d2d3da"/><path d="M237.238 189.087c-.369 0-.743-.082-1.096-.254-14.142-6.915-42.121-11.211-73.019-11.211s-58.878 4.296-73.019 11.211a2.501 2.501 0 0 1-2.196-4.492c14.782-7.229 43.603-11.719 75.215-11.719s60.433 4.49 75.215 11.719a2.501 2.501 0 0 1-1.1 4.746z" fill="#e8e9ec"/></svg></g><g transform="translate(583.0 32.0) rotate(89.99999999999993 34.0 77.0) translate(0.0 27.0) scale(0.7083333333333334 0.7129629629629629)"><svg width="96" height="176.727" viewBox="0 37.87 96 176.727"><path d="M0 0h96v216H0z" fill="#7EB8FF"/></svg></g><g transform="translate(567.0 78.0) rotate(0.0 37.0 36.5) translate(0.0 0.0) scale(0.9969552447929297 0.9875541125541125)"><svg width="73.223" height="64.807" viewBox="0 0 73.223 64.807"><path d="M60.959 52.76H13.267C5.94 52.76 0 58.7 0 66.027v7.893h74.226v-7.893c0-7.327-5.94-13.267-13.267-13.267z" fill="#4b9bff"/><circle cx="46.235" cy="37.011" fill="#1d2445" r="14.276"/><circle cx="34.255" cy="37.011" fill="#1d2445" r="14.276"/><path d="m33.738 67.039-6.775-14.176V34.674h17.869v17.879L37.32 67.094c-.759 1.469-2.87 1.436-3.582-.055z" fill="#99644c"/><path d="M36.652 42.072v8.236l3.744-7.862z" fill="#1d2445" opacity=".1"/><circle cx="49.143" cy="19.704" fill="#1d2445" r="11.842"/><path d="M20.159 37.436h31.82V13.851C51.979 6.201 45.778 0 38.128 0H34.01c-7.65 0-13.851 6.201-13.851 13.851z" fill="#1d2445"/><path d="M49 6.508H34.025c-6.203 0-11.231 5.028-11.231 11.231v12.74c0 1.915.734 3.758 2.051 5.148l6.457 6.819h9.189l6.457-6.819A7.484 7.484 0 0 0 49 30.479v-6.002z" fill="#99644c"/><path d="M30.039 13.963h9.888v12.57h-9.888zm19.666 13.972h-7.394a.893.893 0 0 1-.893-.893V19.7c0-.493.4-.893.893-.893h7.394a4.564 4.564 0 1 1 0 9.128z" fill="#99644c"/><path d="M23.247 30.092h7.394c.493 0 .893-.4.893-.893v-7.342c0-.493-.4-.893-.893-.893h-7.394a4.564 4.564 0 1 0 0 9.128z" fill="#99644c"/><path d="M43.072 3.931h-8.766l1.958 7.378a10.005 10.005 0 0 0 9.671 7.439h6.341v-5.615a9.205 9.205 0 0 0-9.204-9.202z" fill="#1d2445"/><path d="M25.695 21.298H21.21l-.101-2.499h4.586z" fill="#93c3ff"/><path d="M41.144 29.949h-3.743v-9.734z" fill="#1d2445" opacity=".1"/><path d="M33.165 19.799a.36.36 0 0 1 .36.36v4.272a.36.36 0 0 1-.36.36H26.42a.36.36 0 0 1-.36-.36v-4.632zm0-1H25.06v5.632c0 .751.609 1.36 1.36 1.36h6.745a1.36 1.36 0 0 0 1.36-1.36v-4.272a1.36 1.36 0 0 0-1.36-1.36zm12.569 1v4.632a.36.36 0 0 1-.36.36H38.63a.36.36 0 0 1-.36-.36v-4.272a.36.36 0 0 1 .36-.36zm1-1H38.63a1.36 1.36 0 0 0-1.36 1.36v4.272c0 .751.609 1.36 1.36 1.36h6.745a1.36 1.36 0 0 0 1.36-1.36v-5.632z" fill="#93c3ff"/><g fill="#1d2445"><path d="m40.396 32.356-.722 1.766-3.365.66v-2.466zm-8.174 0 .723 1.766 3.364.66v-2.466z" opacity=".1"/><path d="M44.727 18.718c1.067 0 1.932.865 1.932 1.932v6.647c0 2.836 1.361 5.5 3.66 7.162 2.14 1.546 4.447 3.222 4.576 3.351v-9.733a3.369 3.369 0 0 1-3.369-3.369V13.851h-6.799z"/><path d="M49.28 16.472h6.364v11.605H49.28z"/></g><path d="M38.149 21.298h-4.485l-.101-2.499h4.586z" fill="#93c3ff"/></svg></g><g transform="translate(585.0 98.0) rotate(89.99999999999993 34.0 77.0) translate(0.0 27.0) scale(0.7083333333333334 0.7129629629629629)"><svg width="96" height="176.727" viewBox="0 37.87 96 176.727"><path d="M0 0h96v216H0z" fill="#A6CEFF"/></svg></g><g transform="translate(69.0 510.0) rotate(0.0 93.0 9.5) scale(0.9995324767447484 0.9995265400599715)"><svg width="186.087" height="19.009" viewBox="0 0 186.087 19.009"><path d="M186.087 0c0 10.498-8.971 19.009-20.036 19.009H20.036C8.971 19.009 0 10.498 0 0z" fill="#eff0f2"/></svg></g><g transform="translate(583.0 158.0) rotate(0.0 21.0 21.0) scale(0.9959686981266302 0.9959686981266302)"><svg width="42.17" height="42.17" viewBox="0 0 42.17 42.17"><circle cx="21.085" cy="21.085" fill="#8bbfff" r="21.085"/><g fill="#c7e0ff"><circle cx="21.085" cy="13.87" r="6.381"/><path d="M21.085 21.617a9.572 9.572 0 0 0-9.572 9.572v5.542h19.144v-5.542c0-5.286-4.286-9.572-9.572-9.572z"/></g></svg></g><g transform="translate(458.0 31.0) rotate(89.99999999999993 34.0 77.0) translate(0.0 27.0) scale(0.7083333333333334 0.7129629629629629)"><svg width="96" height="176.727" viewBox="0 37.87 96 176.727"><path d="M0 0h96v216H0z" fill="#5EA6FF"/></svg></g><g transform="translate(459.0 98.0) rotate(89.99999999999993 34.0 77.0) translate(0.0 27.0) scale(0.7083333333333334 0.7129629629629629)"><svg width="96" height="176.727" viewBox="0 37.87 96 176.727"><path d="M0 0h96v216H0z" fill="#7EB8FF"/></svg></g><g transform="translate(431.0 77.0) rotate(0.0 37.0 32.0) scale(0.9969552447929297 0.9873038890517256)"><svg width="74.226" height="64.823" viewBox="0 0 74.226 64.823"><path d="M37.505 48.133H21.896V7.93A7.93 7.93 0 0 1 29.826 0h4.904a2.776 2.776 0 0 1 2.776 2.776v45.357z" fill="#002652"/><path d="M60.959 43.663H13.267C5.94 43.663 0 49.603 0 56.93v7.893h74.226V56.93c0-7.327-5.94-13.267-13.267-13.267z" fill="#4b9bff"/><path d="M34.431 8.194a2.501 2.501 0 0 1-2.165-3.746c.901-1.567 2.659-2.722 4.822-3.167 2.357-.484 4.702-.017 6.435 1.282a2.5 2.5 0 1 1-3 4c-.58-.434-1.487-.579-2.428-.385-.897.185-1.402.601-1.495.762a2.496 2.496 0 0 1-2.169 1.254z" fill="#80b6f4"/><path d="m34.234 35.72 23.291-8.329v-7.72c0-7.987-6.474-14.461-14.461-14.461H38.96c-7.987 0-14.461 6.474-14.461 14.461v6.314c.001 5.376 4.359 9.735 9.735 9.735z" fill="#002652"/><path d="M47.586 56.453V26.224H30.158v17.428l14.003 14.205c1.256 1.274 3.425.385 3.425-1.404z" fill="#99644c"/><path d="m30.313 38.459 8.802 8.688a1.71 1.71 0 0 0 1.216.492l9.661-.097a1.705 1.705 0 0 0 1.447-.831l2.666-4.462a14.602 14.602 0 0 0 2.067-7.49v-8.72h-25.86v12.42z" fill="#99644c"/><path d="M42.067 36.146h-5.134v-1.542c0-1.008.817-1.826 1.826-1.826h5.134v1.542a1.826 1.826 0 0 1-1.826 1.826zm7.09-5.5v4.602l-.156 6.8-3.671.243 2.547 2.497s.962-.237 1.997.302c1.102.574 1.493 1.917 1.564 1.62.072-.302 1.371-2.466 2.589-4.457a14.594 14.594 0 0 0 2.146-7.612l.005-7.252z" opacity=".07"/><path d="M29.733 23.796h.147a2.494 2.494 0 0 1 2.486 2.486v6.886a2.494 2.494 0 0 1-2.486 2.486h-.147a2.494 2.494 0 0 1-2.486-2.486v-6.886a2.494 2.494 0 0 1 2.486-2.486z" fill="#99644c"/><ellipse cx="43.811" cy="27.261" fill="#002652" rx="13.714" ry="6.389"/></svg></g><g transform="translate(287.0 520.0) rotate(0.0 93.0 9.5) scale(0.9995324767447484 0.9995265400599715)"><svg width="186.087" height="19.009" viewBox="0 0 186.087 19.009"><path d="M186.087 0c0 10.498-8.971 19.009-20.036 19.009H20.036C8.971 19.009 0 10.498 0 0z" fill="#eff0f2"/></svg></g><g transform="translate(439.0 145.0) rotate(0.0 37.0 38.0) scale(0.9969552447929297 0.9980695234218024)"><svg width="74.226" height="76.147" viewBox="0 0 74.226 76.147"><path d="M60.959 54.988H13.267C5.94 54.988 0 60.928 0 68.255v7.893h74.226v-7.893c0-7.327-5.94-13.267-13.267-13.267z" fill="#a6ceff"/><path d="m56.1 29.928-36.232.369V17.819c0-8.762 7.103-15.865 15.865-15.865h4.502c8.762 0 15.865 7.103 15.865 15.865z" fill="#032954"/><path d="M53.411 36.787h-7.632c-.509 0-.922-.526-.922-1.174v-9.652c0-.648.413-1.174.922-1.174h7.632c2.602 0 4.711 2.686 4.711 5.999.001 3.316-2.109 6.001-4.711 6.001z" fill="#c78982"/><path d="M43.563 9.333H32.404a8.92 8.92 0 0 0-8.921 8.921v28.079h29V18.254a8.92 8.92 0 0 0-8.92-8.921z" fill="#c78982"/><path d="M52.374 24.787h-8.018a3.047 3.047 0 0 0-3.047 3.047v.368c0 .155.022.304.055.449h-.055v5.343a2 2 0 0 1-2 2h-3.024l5.808 2.139 6.833-6.333 1.273-1.602h2.175z" fill="#1d2445" opacity=".1"/><path d="M22.803 36.787h7.632c.509 0 .922-.526.922-1.174v-9.652c0-.648-.413-1.174-.922-1.174h-7.632c-2.602 0-4.711 2.686-4.711 5.999-.001 3.316 2.109 6.001 4.711 6.001z" fill="#c78982"/><g fill="#032954"><path d="M52.809 38.088v-13.3a3.167 3.167 0 0 0-3.167 3.167v8.761c0 1.807-1.828 3.132-3.495 2.434a2.006 2.006 0 0 1-.222-.107l-3.066-1.752a6.003 6.003 0 0 0-2.977-.791h-3.073l-.5 26.167h5.5c7.548 0 13.667-6.119 13.667-13.667v-5.168a3.76 3.76 0 0 0-1.333-2.872 3.76 3.76 0 0 1-1.334-2.872z"/><path d="M23.309 38.088v-13.3a3.167 3.167 0 0 1 3.167 3.167v8.761c0 1.807 1.828 3.132 3.495 2.434.082-.034.157-.07.222-.107l3.066-1.752a6.003 6.003 0 0 1 2.977-.791h3.073l.5 26.167h-5.5c-7.548 0-13.667-6.119-13.667-13.667v-5.168a3.76 3.76 0 0 1 1.333-2.872 3.76 3.76 0 0 0 1.334-2.872zm21.5-28.755V5a5 5 0 0 0-5-5h-8.406c-2.547 0-3.935 2.974-2.3 4.927l5.306 6.333a3.001 3.001 0 0 0 2.3 1.073h5.1a3 3 0 0 0 3-3z"/></g><path d="m34.167 44.09-.359-1.97a1 1 0 0 1 .827-1.17c2.403-.351 4.632-.355 6.762-.012.556.089.912.644.793 1.194l-.423 1.959c-.114.528-.624.853-1.157.772-1.651-.249-3.4-.238-5.299.03a1.004 1.004 0 0 1-1.144-.803z" fill="#c78982"/></svg></g><g transform="translate(383.0 209.0) rotate(0.0 154.0 9.0) scale(0.9972672287627411 0.9831767533318768)"><svg width="308.844" height="18.308" viewBox="0 0 308.844 18.308"><path d="M0 0h308.844v18.308H0z" fill="#29496e"/><g fill="#c7e0ff"><path d="M65.076 5.065h7.173v7.173h-7.173zm41.843 0h7.173v7.173h-7.173zm45.429 7.173a3.587 3.587 0 1 1 0-7.174 3.587 3.587 0 0 1 0 7.174zm38.256-7.173h7.173v7.173h-7.173zm45.429 7.173a3.587 3.587 0 1 1 0-7.174 3.587 3.587 0 0 1 0 7.174z"/></g></svg></g><g transform="translate(307.0 254.0) rotate(0.0 90.5 134.5) scale(0.997443019001014 0.9972824978775308)"><svg width="181.464" height="269.733" viewBox="0 0 181.464 269.733"><path d="m38.174 181.909 5.22 33.303 5.095 32.672 1.277 5.203s10.478-4.201 11.989-4.064c.855.072 1.664.146 2.399.212 1.884.167 3.245.296 3.42.321l-.006-.544-.015-1.542-.106-12.122-.12-13.597 5.139-45.7-1.036-34.57-28.134-2.092-5.25 36.408a18.77 18.77 0 0 0 .128 6.112z" fill="#013b84"/><path d="m38.174 181.909 5.22 33.303 5.095 32.672 1.277 5.203s10.478-4.201 11.989-4.064c.855.072 1.664.146 2.399.212 1.884.167 3.245.296 3.42.321l-.006-.544-.015-1.542-.106-12.122-.12-13.597 5.139-45.7-1.036-34.57-28.134-2.092-5.25 36.408a18.77 18.77 0 0 0 .128 6.112z" fill="#002652" opacity=".2"/><path d="M31.536 147.096c.644 9.922 8.797 17.688 18.739 17.848a19.996 19.996 0 0 0 6.047-.834l37.542-11.212-.03-14.595c-.011-5.509-4.477-9.972-9.986-9.979l-53.535-.073z" fill="#013b84"/><path d="m55.229 164.661 17.599.284c2.046.033 16.902-.248 18.863-.834l29.753 1.101-.537-14.18a21.056 21.056 0 0 0-12.47-17.976c-5.118-2.275-10.031-4.492-10.278-4.732l-45.292-.073z" fill="#013b84"/><path d="M58.271 30.535 78.2 36.296 66.798 75.742c-.277.957-1.573 1.101-2.053.228L51.9 52.576z" fill="#99644c"/><path d="M64.719 18.651c.462-5.837 8.441-9.967 17.822-9.224 8.003.633 14.44 4.608 15.872 9.386.371 1.237-.656 2.453-1.944 2.351z" fill="#002652"/><path d="M66.657 10.498c.393-4.969 7.186-8.485 15.173-7.853 6.813.539 12.293 3.923 13.512 7.991.316 1.053-.559 2.088-1.655 2.002z" fill="#002652"/><path d="m87.403 24.079-1.609 21.942c-.27 2.588-2.985 4.162-5.365 3.11L58.353 39.38z" fill="#99644c"/><path d="m84.561 37.264 3.891.214c1.621.089 2.572-1.795 1.537-3.046l-4.527-5.475z" fill="#99644c"/><path d="m86.044 39.413-11.075-1.157 1.47-14.078 11.075 1.157z" fill="#c78982"/><path d="m71.146 6.272-5.254-.416c-5.742-.454-10.764 3.832-11.219 9.573l-2.057 25.99 33.416 2.645 1.474-18.62c.776-9.812-6.549-18.396-16.36-19.172z" fill="#99644c"/><path d="m87.054 28.12-2.543-.201a1.12 1.12 0 0 0-.813.264l-1.142.975c-.757.646-.355 1.885.637 1.964l3.69.292" fill="#1d2445" opacity=".1"/><path d="m72.951 30.908-.312 3.937a9.117 9.117 0 0 0 4.833 8.782 5.172 5.172 0 0 1 5.564-4.748l3.384.268-.568 7.178c-.207 2.616-2.983 4.204-5.343 3.055l-9.353-4.553a3.726 3.726 0 0 1-2.083-3.643l1.073-13.562a3.054 3.054 0 0 1 2.805 3.286z" fill="#002652"/><path d="m82.069 44.716 2.51.792a1.088 1.088 0 0 0 1.413-.952l.245-3.091-2.45-.194a2.383 2.383 0 0 0-2.564 2.188 1.216 1.216 0 0 0 .846 1.257z" fill="#99644c"/><path d="m55.742 39.109 7.963 4.32 2.766-34.94a3.725 3.725 0 0 0-3.419-4.007l-1.67-.132c-7.957-.63-14.606 5.974-14.03 13.935l.637 8.803a14.892 14.892 0 0 0 7.753 12.021z" fill="#002652"/><path d="m65.997 26.03 16.46 1.303.587-2.693-16.831-1.332z" fill="#80b6f4"/><path d="m58.77 8.859 12.994 1.029-2.489 31.448a2.885 2.885 0 0 1-3.103 2.648l-10.119-.801z" fill="#002652"/><path d="m67.489 7.102 15.3 1.211-.691 8.724a7.449 7.449 0 0 1-8.013 6.838l-7.874-.623z" fill="#002652"/><path d="M83.148 25.651h.01l3.6.285c.032.003.059.016.08.041s.03.053.028.085l-.427 5.392c-.005.067-.063.108-.125.108h-.001l-3.599-.285c-.032-.003-.059-.016-.08-.041s-.03-.053-.028-.085l.427-5.393a.116.116 0 0 1 .115-.107m0-1c-.577 0-1.066.444-1.113 1.029l-.427 5.393a1.118 1.118 0 0 0 1.026 1.202l3.6.285c.03.002.06.004.089.004.577 0 1.066-.444 1.113-1.029l.427-5.393a1.118 1.118 0 0 0-1.026-1.202l-3.6-.285c-.03-.002-.06-.004-.089-.004z" fill="#80b6f4"/><path d="M59.559 27.208c.462-5.837-6.768-11.171-16.149-11.913-8.003-.633-14.985 2.279-17.151 6.772-.561 1.163.262 2.526 1.55 2.628z" fill="#002652"/><path d="M65.283 35.134c.43-5.427-6.293-10.386-15.014-11.076-7.44-.589-13.932 2.119-15.946 6.297-.521 1.082.244 2.348 1.441 2.443z" fill="#002652"/><path d="M60.836 39.265c4.527.358 6.399-5.628 2.497-7.951-2.125-1.265-4.753-2.115-7.641-2.344-6.468-.512-12.145 2.26-13.94 6.455-.465 1.086.188 2.344 1.229 2.426z" fill="#002652"/><path d="M62.823 43.748c3.335.264 4.714-4.147 1.84-5.858-1.565-.932-3.502-1.558-5.629-1.727-4.765-.377-8.948 1.665-10.27 4.756-.342.8.138 1.727.905 1.787zm1.955-25.84c.462-5.837-6.768-11.171-16.149-11.913-8.003-.633-14.985 2.279-17.151 6.772-.561 1.163.262 2.526 1.55 2.628z" fill="#002652"/><path d="M79.817 11.999C80.279 6.162 73.049.828 63.668.086c-8.003-.633-14.985 2.279-17.151 6.772-.561 1.163.262 2.526 1.55 2.628z" fill="#002652"/><path d="M108.984 89.941H8.136l8.895-28.355a19.998 19.998 0 0 1 20.674-13.95l53.107 4.238c10.497.838 18.546 9.671 18.407 20.201z" fill="#2888ff"/><path d="M101.756 113.762 86.753 73.414l20.325-7.253 13.926 35.302c2.779 7.046-.821 14.994-7.95 17.551a8.862 8.862 0 0 1-11.298-5.252zm-80.807.973 12.179-27.66-19.944-8.781L.917 106.153c-2.401 5.452.073 11.819 5.526 14.219 5.563 2.449 12.057-.075 14.506-5.637z" fill="#2888ff"/><path d="m123.013 180.112-.77 32.899-.908 32.618-1.973.706-6.439 1.201c-1.523.287-3.14.588-4.63.874-.843.156-1.642.309-2.366.447-1.858.352-3.2.613-3.372.656l-.048-.542-.137-1.536-1.086-12.074-9.864-54.026a40.045 40.045 0 0 1-.876-9.082l.545-30.071 11.942-2.259c7.21-1.364 15.609 5.069 17.365 12.194l2.143 21.899c.49 1.992.65 4.051.474 6.096z" fill="#013b84"/><path d="M103.654 268.722h16.6c.935 0 1.767-.51 2.068-1.27l1.68-4.238H99.906l1.68 4.238c.301.76 1.133 1.27 2.068 1.27z" fill="#93c3ff"/><path d="M100.109 263.559h24.097l1.295-5.955a7.485 7.485 0 0 0-.679-5.056l-3.237-6.201h-19.604l-2.598 6.69a10.002 10.002 0 0 0-.386 6.02z" fill="#bedbff"/><path d="M76.459 90.84c.313.879-.09 1.971-1.045 2.609l-15.229 8.503-4.695-3.321 20.166-8.077a.595.595 0 0 1 .803.286z" fill="#ed956e"/><path d="M75.411 93.995c.46.812.251 1.957-.58 2.75l-13.535 11-5.197-2.462 18.473-11.432a.596.596 0 0 1 .831.131l.008.013z" fill="#ed956e"/><path d="M74.051 97.25c.436.825.193 1.964-.661 2.731l-13.854 10.597-5.122-2.614 18.802-10.882a.595.595 0 0 1 .827.156l.008.012z" fill="#ed956e"/><path d="M70.613 102.762c.436.825.193 1.964-.66 2.731l-10.226 7.822a7.246 7.246 0 0 1-7.696.699l-1.054-.538 18.802-10.882a.595.595 0 0 1 .834.168z" fill="#ed956e"/><path d="m58.071 114.244-.847-9.134c-1.14-2.942-4.48-4.416-7.423-3.276l-4.474 1.734c-2.942 1.14-8.039 6.994-6.899 9.936l10.639 2.238a8.277 8.277 0 0 0 3.861-.109z" fill="#ed956e"/><path d="m42.377 106.403 14.353-5.563-1.115.367a2.132 2.132 0 0 1-2.764-1.691l-.018-.036c-.111-.727.123-1.081.598-1.644l2.283-2.684a4.931 4.931 0 0 0 1.132-2.369c.088-.603.039-1.594-.151-2.085a1.718 1.718 0 0 0-.455-.675c-.029-.024-.057-.048-.088-.067a.842.842 0 0 0-1.163.253l-6.705 8.514-2.007 1.629a9.977 9.977 0 0 0-2.862 3.717l-.964 2.184a1.49 1.49 0 0 1-.074.15z" fill="#ed956e"/><path d="M57.043 114.056c4.706-1.824 7.154-6.832 5.466-11.185a7.785 7.785 0 0 0-.474-1.006c-.031-.055-.038-.192-.095-.164-.343.169-.741-.292-.349-.538.077-.049-.107-.148-.162-.22-.939-1.232-2.219-2.159-3.675-2.715-.225-.086-.459-.313-.687-.231-3.02 1.082-4.154.533-3.483-.33.104-.134-.339.035-.508.06a9.822 9.822 0 0 0-2.144.566c-4.706 1.824-7.154 6.832-5.466 11.185 1.688 4.352 6.871 6.402 11.577 4.578z" fill="#ed956e"/><path d="m44.673 101.815-40.205-1.518-1.246 14.115c-.35 1.703.723 4.11 3.026 5.646l3.207 1.219c3.252.948 10.182.263 13.41-.62l22.4-5.869z" fill="#2888ff"/><g fill="#99644c"><path d="M181.36 90.84c.313.879-.09 1.971-1.045 2.609l-15.229 8.503-4.695-3.321 20.166-8.077a.595.595 0 0 1 .803.286z"/><path d="M180.312 93.995c.46.812.251 1.957-.58 2.75l-13.535 11-5.197-2.462 18.473-11.432a.596.596 0 0 1 .831.131l.008.013z"/><path d="M178.951 97.25c.436.825.193 1.964-.661 2.731l-13.854 10.597-5.122-2.614 18.802-10.882a.595.595 0 0 1 .827.156l.008.012z"/><path d="M175.513 102.762c.436.825.193 1.964-.661 2.731l-10.226 7.822a7.246 7.246 0 0 1-7.696.699l-1.054-.538 18.802-10.882a.595.595 0 0 1 .827.156l.008.012z"/><path d="m162.972 114.244-.847-9.134c-1.14-2.942-4.48-4.416-7.423-3.276l-4.474 1.734c-2.942 1.14-8.039 6.994-6.899 9.936l10.639 2.238a8.277 8.277 0 0 0 3.861-.109z"/><path d="m147.278 106.403 14.353-5.563-1.115.367a2.132 2.132 0 0 1-2.764-1.691l-.018-.036c-.111-.727.123-1.081.598-1.644l2.283-2.684a4.931 4.931 0 0 0 1.132-2.369c.088-.603.039-1.594-.151-2.085a1.718 1.718 0 0 0-.455-.675c-.029-.024-.057-.048-.088-.067a.842.842 0 0 0-1.163.253l-6.705 8.514-2.007 1.629a9.977 9.977 0 0 0-2.862 3.717l-.964 2.184c-.023.052-.047.1-.074.15z"/><path d="M161.944 114.056c4.706-1.824 7.154-6.832 5.466-11.185a7.785 7.785 0 0 0-.474-1.006c-.031-.055-.038-.192-.095-.164-.343.169-.741-.292-.349-.538.077-.049-.107-.148-.162-.22-.939-1.232-2.219-2.159-3.675-2.715-.225-.086-.459-.313-.687-.231-3.02 1.082-4.154.533-3.483-.33.104-.134-.339.035-.508.06a9.822 9.822 0 0 0-2.144.566c-4.706 1.824-7.154 6.832-5.466 11.185 1.688 4.352 6.871 6.402 11.577 4.578z"/></g><path d="m149.573 101.815-40.205-1.518-4.432 14.567c-.35 1.703.991 3.427 3.223 4.461 2.559 1.185 9.688 1.998 9.688 1.998 3.317.445 6.69.218 9.919-.665l22.4-5.869zM99.461 55.747H29.812v87.249l40.651-.378 11.976-.879a16.839 16.839 0 0 0 11.765-6.088l5.257-6.382z" fill="#2888ff"/><path d="m99.291 107.93-7.333-22.333v22.424c0 2.673 3.231 4.011 5.121 2.121z" fill="#002652" opacity=".07"/><path d="M50.061 40.212H73.52c1.162 0 2.104.942 2.104 2.104v8.792a2.104 2.104 0 0 1-2.104 2.104H50.061a2.104 2.104 0 0 1-2.104-2.104v-8.792c0-1.162.942-2.104 2.104-2.104z" fill="#2888ff"/><path d="M66.625 269.733h-16.6c-.935 0-1.767-.51-2.068-1.27l-1.68-4.238h24.096l-1.68 4.238c-.301.76-1.133 1.27-2.068 1.27z" fill="#93c3ff"/><path d="M70.17 264.57H46.073l-1.295-5.955a7.485 7.485 0 0 1 .679-5.056l3.237-6.201h19.604l2.598 6.69c.745 1.919.88 4.021.386 6.02z" fill="#bedbff"/><path d="M90.396 164.283h14.853c1.782 0 2.674 2.154 1.414 3.414l-14.518 14.518z" fill="#002652" opacity=".2"/></svg></g><g transform="translate(585.0 326.0) rotate(0.0 87.0 89.5) scale(0.9969347122353683 0.9997933388070622)"><svg width="174.535" height="179.037" viewBox="0 0 174.535 179.037"><g fill="#D2D3DA"><path d="M108.487 179.037h-36l-11-62h58z"/><path d="M88.517 140.817s-.44-1.395-1.109-3.852a250.368 250.368 0 0 1-2.558-10.212l-.761-3.306c-.272-1.2-.477-2.348-.724-3.586-.409-2.544-.796-5.203-.949-7.98-.183-2.775-.24-5.658-.084-8.581.117-2.925.435-5.888.909-8.824a74.189 74.189 0 0 1 1.919-8.661c.768-2.824 1.742-5.54 2.784-8.117 1.057-2.607 2.153-4.918 3.183-7.206l.774-1.671.378-.817.094-.202.037-.085.013-.025.025-.049.051-.098.206-.39a12.668 12.668 0 0 1 2.328-3.097 11.957 11.957 0 0 1 5.688-3.122c1.859-.457 3.587-.29 4.801-.129 2.531.279 3.978.497 3.978.497s-1.446.218-3.978.497c-1.306.11-2.705.316-4.216.956a10.807 10.807 0 0 0-4.145 3.227 9.573 9.573 0 0 0-1.396 2.522l-.272.775-.285.854-.583 1.746-2.523 7.354a103.74 103.74 0 0 0-2.255 7.821c-.662 2.688-1.25 5.44-1.673 8.219-.475 2.77-.791 5.566-1.009 8.326-.12 1.38-.177 2.753-.253 4.11-.031 1.357-.087 2.701-.078 4.024-.029 2.648.113 5.211.244 7.608l.594 6.964c.386 4.332.593 7.96.713 10.504.121 2.544.132 4.006.132 4.006z"/><path d="M92.524 139.46s.168-2.194.561-6.017c.201-1.91.43-4.233.753-6.886l1.051-8.892.27-2.498.191-2.556c.159-1.721.209-3.541.32-5.386.091-3.708.105-7.612-.122-11.639-.238-4.024-.577-8.174-1.22-12.352-.641-4.174-1.41-8.399-2.472-12.556a138.448 138.448 0 0 0-3.677-12.258c-1.44-3.933-3.035-7.908-4.503-11.738-1.486-3.829-2.861-7.555-4.176-11.084a535.875 535.875 0 0 1-3.634-9.975c-.558-1.525-1.058-3.14-1.663-4.178a12.003 12.003 0 0 0-2.389-3.068c-1.826-1.693-3.923-2.602-5.713-3.028-1.807-.41-3.307-.343-4.343-.326l-1.581.012 1.552-.298c.996-.171 2.526-.548 4.523-.371 1.968.181 4.446.811 6.769 2.527a14.165 14.165 0 0 1 3.226 3.266c1.045 1.478 1.542 2.883 2.273 4.373 1.395 2.978 2.9 6.207 4.431 9.648 1.547 3.434 3.19 7.05 4.825 10.818 1.637 3.773 3.357 7.612 4.954 11.751 1.564 4.113 2.868 8.396 3.976 12.727 1.078 4.34 1.866 8.749 2.42 13.111l.374 3.263.239 3.242c.095 1.073.114 2.144.159 3.206.037 1.062.086 2.115.068 3.162.072 4.184-.244 8.221-.588 12.026-.413 3.774-.962 7.441-1.667 10.627-.644 3.273-1.391 6.162-2 8.776-.606 2.603-1.188 4.864-1.653 6.727a257.283 257.283 0 0 1-1.534 5.844zm11.55-89.597c-13.321 10.893 6.733 19.441 16.123 20.716 10.068 1.367 21.468 2.268 31.487-.546 10.669-2.996 22.549-12.261 22.849-23.369-2.415 2.23-3.354 1.788-8.534 2.81-4.537.895-9.605-.283-13.715-1.679-3.504-1.19-7.412-3.287-11.097-4.526-4.35-1.463-26.347-2.21-37.113 6.594z"/><path d="M70.46 5.576c13.321 12.558-6.733 22.412-16.123 23.881-10.068 1.575-21.468 2.615-31.487-.629C12.181 25.374.301 14.694 0 1.888c18.308 6.077 33.874 3.129 37.559 1.701C41.91 1.904 59.695-4.572 70.46 5.576z"/></g></svg></g><g transform="translate(320.0 315.0) rotate(0.0 50.5 105.5) scale(0.9951621326028909 0.9954473615927157)"><svg width="101.491" height="211.965" viewBox="0 0 101.491 211.965"><path d="M46.623 110.27h8.467v73.606h-8.467z" fill="#d2d3da"/><path d="M87.163 111.572H14.55a5 5 0 1 1 0-10h72.612a5 5 0 0 1 .001 10z" fill="#bbbdc7"/><g fill="#8e91a2"><path d="M4.723 199.813h-4v-9.067l1.291-.49c15.224-5.777 31.667-8.771 48.87-8.897l.029 4c-16.241.119-31.773 2.862-46.189 8.155v6.299z"/><path d="M101.073 199.813h-4v-6.3c-14.417-5.293-29.949-8.036-46.19-8.155l.029-4c17.204.126 33.646 3.12 48.87 8.897l1.291.49zm-95.437-.666h-3.51A2.126 2.126 0 0 0 0 201.273v5.6h12.277l.008-1.024a6.65 6.65 0 0 0-6.649-6.702z"/><path d="M95.855 199.147h3.509c1.174 0 2.126.952 2.126 2.126v5.6H89.213l-.008-1.024a6.65 6.65 0 0 1 6.65-6.702z"/></g><circle cx="96.064" cy="206.538" fill="#838799" r="5.427"/><circle cx="5.427" cy="206.538" fill="#838799" r="5.427"/><path d="M30.353 106V72L15.186 16.92C13.257 9.917 18.527 3 25.791 3h49.124c7.264 0 12.534 6.917 10.605 13.92L70.353 72v34H46.274" fill="#bbbdc7"/><path d="M73.353 109H46.274a3 3 0 1 1 0-6h21.079V71.595l.107-.392 15.167-55.08a7.94 7.94 0 0 0-1.349-6.971A7.936 7.936 0 0 0 74.915 6H25.791a7.936 7.936 0 0 0-6.364 3.152 7.936 7.936 0 0 0-1.349 6.971l15.275 55.472V106a3 3 0 1 1-6 0V72.405l-15.06-54.688a13.893 13.893 0 0 1 2.361-12.2A13.895 13.895 0 0 1 25.791 0h49.123c4.407 0 8.466 2.011 11.136 5.516a13.899 13.899 0 0 1 2.362 12.201l-15.06 54.688V109z" fill="#bbbdc7"/></svg></g><g transform="translate(279.0 259.0) rotate(0.0 -67.0 126.5) scale(-0.9981675431670217 0.9971386456255961)"><svg width="134.246" height="253.726" viewBox="0 0 134.246 253.726"><path d="m34.895 207.256 7.908 29.99 20.142-2.089-4.924-25.513zm45.542-74.778 47.73-14.232-8.49-23.793a72.58 72.58 0 0 0-16.043-25.915L81.61 46.468c-1.369-1.424-7.373-1.805-9.243-1.169l-8.2 2.909-4.349 1.48c-16.586 7.549-25.685 25.919-12.785 43.385z" fill="#016eea"/><path d="m27.576 84.459 12.03-34.179 3.757-8.273c14.546-7.237 32.154-3.588 42.623 8.835l12.738 15.115-51.185 21.8z" fill="#016eea"/><path d="M48.688 17.076 28.746 23.2l12.12 39.472c.294.959 1.6 1.08 2.068.194L55.46 39.131z" fill="#c78982"/><path d="m125.103 115.191-87.18 13.607c-6.253.976-10.153 7.31-8.208 13.332 2.505 7.757 5.425 16.59 5.721 16.574l86.167-.45a6.054 6.054 0 0 0 4.254-1.777c11.475-11.497 11.133-30.215-.754-41.286z" fill="#013b84"/><path d="m45.059 129.458-5.469-.433c-5.88-.391-11.741 1.482-15.624 5.183-3.115 2.969-4.63 7.248-4.358 11.542l.341 5.382c.042.656.15 1.305.323 1.94 4.945 18.107 19.753 72.434 19.753 72.434l20.605-4.04-.521-4.554-1.31-46.413a18.713 18.713 0 0 0-.297-3.061l-2.33-12.897z" fill="#013b84"/><path d="m43.003 87.965 9.264-6.268c1.392-1.277 3.614-.091 3.329 1.776l-2.584 16.89z" fill="#002652" opacity=".07"/><path d="M47.802 17.041 23.296 9.858A13.715 13.715 0 0 1 37.785.065l6.586.64c4.149.403 6.906 4.483 5.734 8.482z" fill="#002652"/><path d="m38.231 8.118-1.625 5.542-4.94-1.448-5.435 18.542-1.853-.543-4.952-16.516 7.163-9.305z" fill="#002652"/><path d="m26.232 12.363-6.347 21.193c-.673 2.529 1.314 4.98 3.927 4.844l24.235-1.257z" fill="#c78982"/><path d="m24.538 26.862-4.154-1.327c-1.731-.553-1.975-2.902-.393-3.798l6.916-3.921zM42.539 2.776l.487.129a3.858 3.858 0 0 1 2.736 4.719l-3.444 12.945-17.261-4.593.965-3.626C27.939 5.146 35.334.859 42.539 2.776z" fill="#c78982"/><path d="m32.84 30.135-10.82-2.88 3.66-13.754L36.5 16.38z" fill="#c78982"/><path d="m47.886 1.452 5.086 1.491c5.557 1.629 8.742 7.455 7.113 13.012l-7.374 25.157-32.345-9.481 5.283-18.023c2.783-9.497 12.739-14.94 22.237-12.156z" fill="#c78982"/><path d="m25.114 16.285 2.461.722c.286.084.527.278.669.539l.724 1.325c.48.879-.341 1.899-1.301 1.617l-2.979-.873" fill="#002652" opacity=".07"/><path d="m35.569.504-3.343 11.403a4.184 4.184 0 0 0 2.837 5.191l4.047 1.186a4.042 4.042 0 0 1 2.742 5.016l-2.787 9.508a3.64 3.64 0 0 0 5.239 4.218l17.667-9.657a2.022 2.022 0 0 0 .804-2.743l-6.757-15.75A13.35 13.35 0 0 0 44.2.796z" fill="#002652"/><path d="m49.13 1.786 8.492 2.519c5.922 1.736 9.315 7.943 7.579 13.865l-5.416 18.476a3.001 3.001 0 0 1-3.004 2.154l-14.445-.603a3 3 0 0 1-2.754-3.841z" fill="#002652"/><path d="m47.329 19.735-.333-.098a4.81 4.81 0 0 0-5.968 3.262l-2.607 8.893 4.355-1.174a6.143 6.143 0 0 0 4.005-3.414l1.968-4.382a2.253 2.253 0 0 0-1.42-3.087z" fill="#c78982"/><path d="M20.691 107.427a.448.448 0 0 0 .63.065l37.17-30.246c5.291-4.305 6.089-12.084 1.785-17.374l-1.173-1.442a7.706 7.706 0 0 0-10.839-1.114l-41.12 33.46z" fill="#016eea"/><path d="m110.294 117.67 16.621-2.863 4.452 9.002z" fill="#013b84"/><path d="m24.563 28.77-.638.687c-.35.376-.839.593-1.352.598l-1.765.018.632-2.233z" fill="#002652" opacity=".07"/><g fill="#c78982"><path d="m5.191 47.567-3.34 34.328 4.736-.583 11.814-1.563-2.156-27.038c.001 0-11.039-5.755-11.054-5.144zm20.191-8.677c-.891-.59-1.954-.717-2.504.022l-5.242 7.875 3.14 4.128 5.015-10.226a1.334 1.334 0 0 0-.409-1.799z"/><path d="M22.113 38.623c-.891-.59-2.651-.964-3.201-.225l-5.068 7.785 3.14 4.128 5.291-10.771c.123-.232.121-.769-.15-.911l-.012-.006z"/><path d="M18.723 37.481c-.891-.59-2.689-.89-3.24-.151l-5.029 7.711 3.14 4.128 5.291-10.771c.123-.232.121-.769-.15-.911a.067.067 0 0 0-.012-.006z"/><path d="M15.405 36.773c-.775-.584-1.815-1.059-2.393-.343l-6.199 7.75 2.767 3.943 5.894-10.454c.135-.225.182-.749-.057-.89a.027.027 0 0 1-.012-.006z"/><path d="m12.17 43.216 7.253 3.56a2.92 2.92 0 0 1 1.02 4.414l-5.317 6.848a1.213 1.213 0 0 1-1.487.348l-4.215-2.044c-3.881-1.882-5.517-6.596-3.636-10.478l.253-.522a4.601 4.601 0 0 1 6.129-2.126z"/><ellipse cx="14.949" cy="47.575" rx="6.682" ry="7.306" transform="matrix(-.8998 -.4362 .4362 -.8998 7.6481 96.9067)"/><path d="M25.511 51.123a7.83 7.83 0 0 0-1.235 1.823 6.703 6.703 0 0 1-2.352 2.649l-2.836 1.73c-1.615.981-2.823 1.725-5.406 1.154l-4.579.298-3.457-5.169a1.482 1.482 0 0 1 .623-2.174l.697-.314a7.138 7.138 0 0 0 5.746-2.528l.033-.046.039-.048 11.784-5.31-2.348 3.936-.432 1.546a.474.474 0 0 0 .193.512c.14.09.322.101.469.034.038-.017.596-.267.632-.29.735-1.233 3.82.634 2.429 2.197z"/></g><path d="M2.69 73.489.18 93.354c-.36 3.705-.334 5.02 1.574 8.216l2.01 3.367a7.88 7.88 0 0 0 7.162 3.829l7.568-.384c3.622-.184 6.145-3.671 5.186-7.169L19.351 85.43l-1.429-11.882z" fill="#016eea"/><path d="m24.891 50.264-1.298-3.424a2.271 2.271 0 0 1 1.053-2.808l.222-.119a.649.649 0 0 1 .878.266l1.763 3.297a1.223 1.223 0 0 1-.502 1.655z" fill="#c78982"/><path d="m27.322 49.344-4.376 5.404a2.051 2.051 0 0 1-3.016.188l-1.041-1 6.643-8.139 1.555 1.269c.692.565.797 1.584.235 2.278z" fill="#c78982"/><path d="m19.915 250.773-4.399-2.62c-1.213-.723-2.057-1.958-2.244-3.284-.274-1.949.927-3.602 2.818-3.878l8.342-1.216c5.272-.769 9.621-3.836 11.919-8.407l2.751-5.472 3.66 2.059c.882.496 1.337 1.523 1.057 2.387l-.801 2.472 5.018 1.97c3.399 1.334 7.004.72 9.286-1.583l3.524-3.555c.617-.623 1.795-.156 1.976.784l3.079 15.996-.434 3.765z" fill="#93c3ff"/><path d="m67.283 247.478-.523 1.583c-.942 2.848-3.552 4.665-6.7 4.665H26.587a4.15 4.15 0 0 1-1.905-.481l-7.997-4.17h27.561c.488 0 .93-.191 1.232-.531 1.516-1.71 3.736-2.668 6.188-2.668h14.375c.825 0 1.489.857 1.242 1.602z" fill="#d4e7ff"/></svg></g><g transform="translate(69.0 303.0) rotate(0.0 72.5 104.5) scale(0.9985606952737089 0.998270937419398)"><svg width="145.209" height="209.362" viewBox="0 0 145.209 209.362"><path d="M73.837 122.667h8.467v59.605h-8.467z" fill="#d2d3da"/><path d="M124.398 123.969H49.323c-10.238 0-18.567-8.329-18.567-18.567V87.289a9.393 9.393 0 0 0-.634-3.4L.337 6.802a5 5 0 0 1 9.328-3.604l29.784 77.087a19.354 19.354 0 0 1 1.306 7.004v18.112c0 4.724 3.843 8.567 8.567 8.567h75.075a5 5 0 0 1 .001 10.001z" fill="#bbbdc7"/><g fill="#8e91a2"><path d="M94.582 126.318a2 2 0 0 1-2-2v-2.785l7.711-26.752c.21-.729.061-1.438-.445-2.109-.847-1.127-2.478-1.826-4.255-1.826H58.741c-1.833 0-3.487.731-4.315 1.909-.491.697-.604 1.428-.337 2.172l9.667 26.928v2.297a2 2 0 0 1-4 0v-1.602l-9.432-26.271c-.702-1.954-.399-4.077.83-5.825 1.589-2.259 4.425-3.607 7.587-3.607h36.853c3.054 0 5.839 1.278 7.451 3.421 1.265 1.681 1.653 3.678 1.092 5.622l-7.555 26.209v2.221a2 2 0 0 1-2 1.998zM17.404 197.21h-4v-9.192l1.444-.417c19.866-5.745 41.316-8.722 63.756-8.846l.022 4c-21.529.119-42.117 2.902-61.223 8.276v6.179z"/><path d="M143.828 197.21h-4v-6.179c-19.107-5.374-39.695-8.157-61.224-8.276l.022-4c22.44.124 43.891 3.101 63.757 8.846l1.444.417v9.192z"/><path d="M117.183 197.21h-4v-6.442c-10.793-5.201-22.41-7.896-34.548-8.013l.038-4c13.168.126 25.753 3.147 37.405 8.979l1.105.553z"/><path d="M112.212 196.544h3.509c1.174 0 2.126.952 2.126 2.126v5.6H105.57l-.008-1.024a6.65 6.65 0 0 1 6.65-6.702zm-94.858 0h-3.509a2.126 2.126 0 0 0-2.126 2.126v5.6h12.277l.008-1.024a6.65 6.65 0 0 0-6.65-6.702zm122.219 0h3.509c1.174 0 2.126.952 2.126 2.126v5.6h-12.277l-.008-1.024a6.65 6.65 0 0 1 6.65-6.702z"/></g><circle cx="112.42" cy="203.935" fill="#838799" r="5.427"/><circle cx="139.782" cy="203.935" fill="#838799" r="5.427"/><circle cx="17.145" cy="203.935" fill="#838799" r="5.427"/></svg></g></svg>