<svg xmlns="http://www.w3.org/2000/svg" version="1.1" viewBox="0 0 3000 2250" width="3000" height="2250">
<defs/><!--ITEM: Illustration background 1--><g transform="translate(322.5 288.75) rotate(0.0 1161.5625 740.625)  scale(4.208559782608695 4.208347657104543)"><svg width="552.0" height="351.979" viewBox="0.0 0.0 552.0 351.979"><path d="m403.5 136.5v-44h-79v44h-8v145h95v-145z" fill="#fff"/><path d="m411.5 282h-95c-.276 0-.5-.224-.5-.5v-145c0-.276.224-.5.5-.5h7.5v-43.5c0-.276.224-.5.5-.5h79c.276 0 .5.224.5.5v43.5h7.5c.276 0 .5.224.5.5v145c0 .276-.224.5-.5.5zm-94.5-1h94v-144h-7.5c-.276 0-.5-.224-.5-.5v-43.5h-78v43.5c0 .276-.224.5-.5.5h-7.5z" fill="rgb(96,101,124)"/><path d="m455.3 125.5-15.6-50h-2.6l-2.451-32.959-2.749 32.959h-2.6l-15.6 50h-5.2v185h52v-185z" fill="#fff"/><path d="m460.5 311h-52c-.276 0-.5-.224-.5-.5v-185c0-.276.224-.5.5-.5h4.832l15.49-49.648c.066-.209.259-.352.478-.352h2.141l2.711-32.501c.021-.259.238-.458.498-.458h.002c.261.001.478.203.497.463l2.414 32.496h2.137c.219 0 .412.143.478.352l15.49 49.648h4.832c.276 0 .5.224.5.5v185c0 .276-.224.5-.5.5zm-51.5-1h51v-184h-4.7c-.219 0-.412-.143-.478-.351l-15.49-49.649h-2.232c-.262 0-.479-.202-.499-.463l-1.98-26.637-2.223 26.642c-.021.259-.238.458-.498.458h-2.232l-15.49 49.649c-.065.208-.259.351-.478.351h-4.7z" fill="rgb(96,101,124)"/><path d="m165.5 73.5v-25h-72v273h107v-248z" fill="#fff"/><path d="m200.5 322h-107c-.276 0-.5-.224-.5-.5v-273c0-.276.224-.5.5-.5h72c.276 0 .5.224.5.5v24.5h34.5c.276 0 .5.224.5.5v248c0 .276-.224.5-.5.5zm-106.5-1h106v-247h-34.5c-.276 0-.5-.224-.5-.5v-24.5h-71z" fill="rgb(96,101,124)"/><path d="m23.5 154.5v31h-23v136h105v-223z" fill="#fff"/><path d="m105.5 322h-105c-.276 0-.5-.224-.5-.5v-136c0-.276.224-.5.5-.5h22.5v-30.5c0-.165.082-.319.218-.413l82-56c.154-.104.353-.113.516-.029.163.087.266.256.266.442v223c0 .276-.224.5-.5.5zm-104.5-1h104v-221.553l-81 55.316v30.737c0 .276-.224.5-.5.5h-22.5z" fill="rgb(96,101,124)"/><path d="m366.706 295.5v-139h-16v-46h-11v-30h-15l-10-80-11 80h-14v30h-11v46h-16v140h-14v22h132v-23z" fill="#fff"/><path d="m380.706 319h-132c-.276 0-.5-.224-.5-.5v-22c0-.276.224-.5.5-.5h13.5v-139.5c0-.276.224-.5.5-.5h15.5v-45.5c0-.276.224-.5.5-.5h10.5v-29.5c0-.276.224-.5.5-.5h13.564l10.94-79.568c.035-.247.246-.432.496-.432h.003c.251.002.462.188.493.438l9.945 79.562h14.559c.276 0 .5.224.5.5v29.5h10.5c.276 0 .5.224.5.5v45.5h15.5c.276 0 .5.224.5.5v138.5h13.5c.276 0 .5.224.5.5v23c0 .276-.224.5-.5.5zm-131.5-1h131v-22h-13.5c-.276 0-.5-.224-.5-.5v-138.5h-15.5c-.276 0-.5-.224-.5-.5v-45.5h-10.5c-.276 0-.5-.224-.5-.5v-29.5h-14.5c-.252 0-.465-.188-.496-.438l-9.527-76.22-10.481 76.227c-.034.247-.245.432-.495.432h-13.5v29.5c0 .276-.224.5-.5.5h-10.5v45.5c0 .276-.224.5-.5.5h-15.5v139.5c0 .276-.224.5-.5.5h-13.5v20.999z" fill="rgb(96,101,124)"/><path d="m175.069 102.5h79v200h-79z" fill="#fff"/><path d="m254.069 303h-79c-.276 0-.5-.224-.5-.5v-200c0-.276.224-.5.5-.5h79c.276 0 .5.224.5.5v200c0 .276-.223.5-.5.5zm-78.5-1h78v-199h-78z" fill="rgb(96,101,124)"/><path d="m61.5 163.5h9v158h-9z" fill="#fff"/><path d="m70.5 322h-9c-.276 0-.5-.224-.5-.5v-158c0-.276.224-.5.5-.5h9c.276 0 .5.224.5.5v158c0 .276-.224.5-.5.5zm-8.5-1h8v-157h-8z" fill="rgb(96,101,124)"/><path d="m41.5 163.5h9v158h-9z" fill="#fff"/><path d="m50.5 322h-9c-.276 0-.5-.224-.5-.5v-158c0-.276.224-.5.5-.5h9c.276 0 .5.224.5.5v158c0 .276-.224.5-.5.5zm-8.5-1h8v-157h-8z" fill="rgb(96,101,124)"/><path d="m81.5 163.5h9v158h-9z" fill="#fff"/><path d="m90.5 322h-9c-.276 0-.5-.224-.5-.5v-158c0-.276.224-.5.5-.5h9c.276 0 .5.224.5.5v158c0 .276-.224.5-.5.5zm-8.5-1h8v-157h-8z" fill="rgb(96,101,124)"/><path d="m537.5 152.479v-17l-34.885-13.958-34.115 13.958v17h-14v199h97v-199z" fill="#fff"/><path d="m551.5 351.979h-97c-.276 0-.5-.224-.5-.5v-199c0-.276.224-.5.5-.5h13.5v-16.5c0-.203.123-.386.311-.463l34.115-13.958c.121-.049.256-.05.375-.001l34.885 13.958c.19.075.314.26.314.464v16.5h13.5c.276 0 .5.224.5.5v199c0 .277-.224.5-.5.5zm-96.5-1h96v-198h-13.5c-.276 0-.5-.224-.5-.5v-16.661l-34.383-13.758-33.617 13.755v16.664c0 .276-.224.5-.5.5h-13.5z" fill="rgb(96,101,124)"/><path d="m464.5 165.521h78v5h-78z" fill="#fff"/><path d="m542.5 171.021h-78c-.276 0-.5-.224-.5-.5v-5c0-.276.224-.5.5-.5h78c.276 0 .5.224.5.5v5c0 .277-.224.5-.5.5zm-77.5-1h77v-4h-77z" fill="rgb(96,101,124)"/><path d="m464.5 175.521h78v5h-78z" fill="#fff"/><path d="m542.5 181.021h-78c-.276 0-.5-.224-.5-.5v-5c0-.276.224-.5.5-.5h78c.276 0 .5.224.5.5v5c0 .277-.224.5-.5.5zm-77.5-1h77v-4h-77z" fill="rgb(96,101,124)"/><path d="m464.5 185.521h78v5h-78z" fill="#fff"/><path d="m542.5 191.021h-78c-.276 0-.5-.224-.5-.5v-5c0-.276.224-.5.5-.5h78c.276 0 .5.224.5.5v5c0 .277-.224.5-.5.5zm-77.5-1h77v-4h-77z" fill="rgb(96,101,124)"/><path d="m464.5 195.521h78v5h-78z" fill="#fff"/><path d="m542.5 201.021h-78c-.276 0-.5-.224-.5-.5v-5c0-.276.224-.5.5-.5h78c.276 0 .5.224.5.5v5c0 .277-.224.5-.5.5zm-77.5-1h77v-4h-77z" fill="rgb(96,101,124)"/><path d="m464.5 205.52h78v5h-78z" fill="#fff"/><path d="m542.5 211.02h-78c-.276 0-.5-.224-.5-.5v-5c0-.276.224-.5.5-.5h78c.276 0 .5.224.5.5v5c0 .276-.224.5-.5.5zm-77.5-1h77v-4h-77z" fill="rgb(96,101,124)"/><path d="m464.5 215.52h78v5h-78z" fill="#fff"/><path d="m542.5 221.02h-78c-.276 0-.5-.224-.5-.5v-5c0-.276.224-.5.5-.5h78c.276 0 .5.224.5.5v5c0 .276-.224.5-.5.5zm-77.5-1h77v-4h-77z" fill="rgb(96,101,124)"/><path d="m464.5 225.52h78v5h-78z" fill="#fff"/><path d="m542.5 231.02h-78c-.276 0-.5-.224-.5-.5v-5c0-.276.224-.5.5-.5h78c.276 0 .5.224.5.5v5c0 .276-.224.5-.5.5zm-77.5-1h77v-4h-77z" fill="rgb(96,101,124)"/><path d="m464.5 235.52h78v5h-78z" fill="#fff"/><path d="m542.5 241.02h-78c-.276 0-.5-.224-.5-.5v-5c0-.276.224-.5.5-.5h78c.276 0 .5.224.5.5v5c0 .276-.224.5-.5.5zm-77.5-1h77v-4h-77z" fill="rgb(96,101,124)"/><path d="m464.5 245.52h78v5h-78z" fill="#fff"/><path d="m542.5 251.02h-78c-.276 0-.5-.224-.5-.5v-5c0-.276.224-.5.5-.5h78c.276 0 .5.224.5.5v5c0 .276-.224.5-.5.5zm-77.5-1h77v-4h-77z" fill="rgb(96,101,124)"/><path d="m464.5 255.52h78v5h-78z" fill="#fff"/><path d="m542.5 261.02h-78c-.276 0-.5-.224-.5-.5v-5c0-.276.224-.5.5-.5h78c.276 0 .5.224.5.5v5c0 .276-.224.5-.5.5zm-77.5-1h77v-4h-77z" fill="rgb(96,101,124)"/><path d="m464.5 265.52h78v5h-78z" fill="#fff"/><path d="m542.5 271.02h-78c-.276 0-.5-.224-.5-.5v-5c0-.276.224-.5.5-.5h78c.276 0 .5.224.5.5v5c0 .276-.224.5-.5.5zm-77.5-1h77v-4h-77z" fill="rgb(96,101,124)"/></svg></g><!--ITEM: Illustration component 2--><g transform="translate(1856.25 851.25) rotate(0.0 298.125 511.875)  scale(4.126297577854671 4.095)"><svg width="144.5" height="250.0" viewBox="0.0 0.0 144.5 250.0"><path d="m27.5 8.5h47.471v13h-47.471z" fill="#fff"/><path d="m74.971 22h-47.471c-.276 0-.5-.224-.5-.5v-13c0-.276.224-.5.5-.5h47.471c.276 0 .5.224.5.5v13c0 .276-.224.5-.5.5zm-46.971-1h46.471v-12h-46.471z" fill="rgb(96,101,124)"/><path d="m.5 2.5h21v6h-21z" fill="#fff"/><path d="m21.5 9h-21c-.276 0-.5-.224-.5-.5v-6c0-.276.224-.5.5-.5h21c.277 0 .5.224.5.5v6c0 .276-.223.5-.5.5zm-20.5-1h20v-5h-20z" fill="rgb(96,101,124)"/><path d="m.5 21.5h21v6h-21z" fill="#fff"/><path d="m21.5 28h-21c-.276 0-.5-.224-.5-.5v-6c0-.276.224-.5.5-.5h21c.276 0 .5.224.5.5v6c0 .276-.223.5-.5.5zm-20.5-1h20v-5h-20z" fill="rgb(96,101,124)"/><path d="m95.604 4.546h13.069v74.372h-13.069z" fill="#fff" transform="matrix(-.7071 .7071 -.7071 -.7071 203.8702 -.9808)"/><path d="m123.812 73.148c-.128 0-.256-.049-.354-.146l-52.589-52.59c-.195-.195-.195-.512 0-.707l9.241-9.241c.195-.195.512-.195.707 0l52.589 52.589c.195.195.195.512 0 .707l-9.241 9.241c-.097.098-.225.147-.353.147zm-51.882-53.089 51.882 51.882 8.534-8.534-51.882-51.882z" fill="rgb(96,101,124)"/><ellipse cx="77.513" cy="15.993" fill="rgb(96,101,124)" rx="11" ry="11"/><circle cx="77.5" cy="15.5" fill="#fff" r="6"/><g fill="rgb(96,101,124)"><path d="m77.5 22c-3.584 0-6.5-2.916-6.5-6.5s2.916-6.5 6.5-6.5 6.5 2.916 6.5 6.5-2.916 6.5-6.5 6.5zm0-12c-3.032 0-5.5 2.468-5.5 5.5s2.468 5.5 5.5 5.5 5.5-2.468 5.5-5.5-2.467-5.5-5.5-5.5z"/><path d="m30.5 7.042h4v16.959h-4z"/><path d="m37.5 7h4v17h-4z"/><path d="m21.5 0h6v31h-6z"/><ellipse cx="77.5" cy="15.5" rx="3" ry="3"/><path d="m107.225 73.464c-9.76 0-17.508-2.716-23.153-8.14-16.751-16.089-8.746-49.756-8.397-51.181l2.914.713c-.081.332-7.941 33.422 7.566 48.309 8.509 8.171 22.618 9.493 41.931 3.931l.83 2.883c-8.072 2.324-15.312 3.485-21.691 3.485z"/></g><path d="m117.5 70.541h21v158.959h-21z" fill="#fff"/><path d="m138.5 230h-21c-.276 0-.5-.224-.5-.5v-158.959c0-.276.224-.5.5-.5h21c.276 0 .5.224.5.5v158.959c0 .276-.223.5-.5.5zm-20.5-1h20v-157.959h-20z" fill="rgb(96,101,124)"/><circle cx="128.5" cy="69" fill="rgb(96,101,124)" r="16"/><circle cx="128.5" cy="68.5" fill="#fff" r="9"/><path d="m128.5 78c-5.238 0-9.5-4.262-9.5-9.5s4.262-9.5 9.5-9.5 9.5 4.262 9.5 9.5-4.261 9.5-9.5 9.5zm0-18c-4.687 0-8.5 3.813-8.5 8.5s3.813 8.5 8.5 8.5 8.5-3.813 8.5-8.5-3.813-8.5-8.5-8.5z" fill="rgb(96,101,124)"/><ellipse cx="128.5" cy="68.521" fill="rgb(96,101,124)" rx="4" ry="3.973"/><path d="m114.5 113h27v8.041h-27z" fill="rgb(96,101,124)"/><path d="m114.5 148h27v8.041h-27z" fill="rgb(96,101,124)"/><path d="m144.5 250h-33v-6l3-3.5v-12.5h27v12.333l3 3.667z" fill="rgb(96,101,124)"/></svg></g><!--ITEM: Illustration component 3--><g transform="translate(1884.375 924.375) rotate(0.0 30.9375 199.6875)  scale(6.185025989604158 5.624683116444143)"><svg width="10.004" height="71.004" viewBox="0.0 0.0 10.004 71.004"><g fill="#93c3ff"><path d="m3.147 33.504c0 4.6-1.143 11.501-1.143 11.501h1.486s6.514-3.451 6.514-6.326v-.575c0-1.38-.686-2.53-1.714-3.335-.8-.575-.8-1.841 0-2.53 1.029-.805 1.714-2.07 1.714-3.335v-.575c0-2.875-6.514-6.326-6.514-6.326h-1.486s1.143 6.901 1.143 11.501zm2.286 2.645c1.714 0 2.286.575 2.286 2.07v.345c0 1.15-.8 2.185-1.829 2.646-.8.23-1.6-.345-1.6-1.15zm.457-10.12c1.143.345 1.829 1.38 1.829 2.646v.23c0 1.495-.571 2.07-2.286 2.07l-1.143-3.795c0-.922.8-1.496 1.6-1.151z"/><path d="m2.243 23.604c-.15-.2-3.656-4.969-1.597-11.363.262-.814.557-1.64.849-2.458.742-2.077 1.509-4.226 1.509-5.699 0-1.392-.262-1.923-.368-2.081h-1.632c0-1.123.78-2.003 1.774-2.003.336 0 1.176.121 1.723 1.244.334.685.503 1.641.503 2.841 0 1.82-.79 4.031-1.625 6.372-.285.798-.573 1.604-.829 2.399-1.745 5.418 1.261 9.507 1.292 9.548z"/><path d="m4.284 71.004c-.146 0-.293-.032-.433-.099-.498-.24-.707-.837-.467-1.335 2.977-6.183 1.263-10.243-.394-14.17-1.593-3.774-3.24-7.676-.377-12.879.266-.483.874-.66 1.358-.394s.66.875.394 1.358c-2.395 4.355-1.068 7.498.468 11.137 1.745 4.134 3.722 8.819.353 15.815-.173.358-.53.567-.902.567z"/></g></svg></g><!--ITEM: Illustration component 4--><g transform="translate(337.5 1063.125) rotate(0.0 400.3125 339.375)  scale(4.126869172126205 4.137811212172938)"><svg width="194.003" height="164.036" viewBox="0.0 0.0 194.003 164.036"><path d="m184 1s-15 4-35 29-66.865 35.522-90.865 29.522-52.135 6.478-58.135 26.478c0 0 26.378-2.292 21.26 22.147-5.562 26.562 8.74 41.853 17.74 43.853s32 2 42-10 35-16 40-3l20.948-11.853c-.001 0 48.052-128.147 42.052-126.147" fill="#93c3ff"/><path d="m183 1s-30.998 106.637-62.115 137.959c-9.5 9.562-2.854 16.269-.885 18.041 9.885 7.959 25 7 25 7s47-46 49-142c.107-5.153-2.917-22-9-22-2 0-2 1-2 1z" fill="#9ec9ff"/></svg></g><!--ITEM: Illustration component 5--><g transform="translate(566.25 988.125) rotate(0.0 300.0 450.9375)  scale(3.92082546445445 3.903629320232865)"><svg width="153.029" height="231.035" viewBox="0.0 0.0 153.029 231.035"><path d="m5.387 46.23h74.372v13.069h-74.372z" fill="#fff" transform="matrix(-.7071 .7071 -.7071 -.7071 109.9864 59.9703)"/><path d="m20.899 84.179c-.133 0-.26-.053-.354-.146l-9.241-9.241c-.195-.195-.195-.512 0-.707l52.589-52.589c.195-.195.512-.195.707 0l9.241 9.241c.094.094.146.221.146.354s-.053.26-.146.354l-52.589 52.588c-.093.093-.22.146-.353.146zm-8.534-9.741 8.534 8.534 51.882-51.882-8.534-8.534z" fill="rgb(96,101,124)"/><path d="m128.396 2.016h21.002v6h-21.002z" fill="#fff" transform="matrix(-.9891 .1475 -.1475 -.9891 277.0146 -10.5093)"/><path d="m128.953 10.033c-.244 0-.457-.178-.494-.426l-.885-5.935c-.02-.132.014-.266.093-.372s.197-.177.328-.196l20.772-3.098c.132-.02.265.015.371.093.107.078.178.196.197.328l.885 5.935c.041.272-.148.527-.421.567l-20.772 3.098c-.025.004-.05.006-.074.006zm-.316-6.014.738 4.945 19.783-2.95-.737-4.945z" fill="rgb(96,101,124)"/><path d="m66.935 14.576h57.36v13.05h-57.36z" fill="#fff" transform="matrix(-.9891 .1475 -.1475 -.9891 193.2962 27.8686)"/><path d="m68.21 32.285c-.244 0-.457-.178-.494-.426l-1.925-12.907c-.041-.273.148-.528.421-.568l56.733-8.461c.133-.017.265.014.371.093.107.078.178.196.197.327l1.925 12.908c.041.273-.148.528-.421.568l-56.733 8.46c-.024.004-.049.006-.074.006zm-1.356-12.987 1.777 11.918 55.744-8.313-1.777-11.919z" fill="rgb(96,101,124)"/><path d="m131.199 20.809h21.002v6h-21.002z" fill="#fff" transform="matrix(-.9891 .1475 -.1475 -.9891 285.3617 26.4577)"/><path d="m131.756 28.825c-.106 0-.211-.034-.297-.099-.107-.078-.178-.196-.197-.328l-.885-5.935c-.041-.272.148-.527.421-.567l20.772-3.098c.276-.042.528.147.568.42l.885 5.935c.02.132-.014.266-.093.372s-.197.177-.328.196l-20.772 3.098c-.025.004-.049.006-.074.006zm-.316-6.014.737 4.945 19.783-2.95-.738-4.945z" fill="rgb(96,101,124)"/><path d="m6 91.536h21v128h-21z" fill="#fff"/><g fill="rgb(96,101,124)"><path d="m27 220.036h-21c-.276 0-.5-.224-.5-.5v-128c0-.276.224-.5.5-.5h21c.276 0 .5.224.5.5v128c0 .276-.224.5-.5.5zm-20.5-1h20v-127h-20z"/><path d="m33 231.035h-33v-6l3-3.5v-12.5h27v12.333l3 3.667z"/><path d="m3 113.076h27v7.959h-27z"/><path d="m3 128.036h27v8h-27z"/><ellipse cx="67.01" cy="26.034" rx="11" ry="11"/></g><circle cx="67" cy="26.536" fill="#fff" r="6"/><path d="m67 33.036c-3.584 0-6.5-2.916-6.5-6.5s2.916-6.5 6.5-6.5 6.5 2.916 6.5 6.5-2.916 6.5-6.5 6.5zm0-12c-3.033 0-5.5 2.468-5.5 5.5s2.467 5.5 5.5 5.5 5.5-2.468 5.5-5.5-2.467-5.5-5.5-5.5z" fill="rgb(96,101,124)"/><ellipse cx="67" cy="26.536" fill="rgb(96,101,124)" rx="3" ry="3"/><path d="m48.054 94.478c-8.576 0-19.389-4.621-32.309-13.831l1.741-2.443c17.659 12.585 30.843 16.261 39.189 10.916 18.312-11.728 8.847-62.79 8.75-63.304l2.947-.561c.415 2.182 9.922 53.581-10.079 66.391-2.948 1.889-6.367 2.831-10.239 2.832z" fill="rgb(96,101,124)"/><circle cx="16" cy="80.036" fill="rgb(96,101,124)" r="16"/><circle cx="16" cy="80.536" fill="#fff" r="9"/><path d="m16 90.036c-5.238 0-9.5-4.262-9.5-9.5s4.262-9.5 9.5-9.5 9.5 4.262 9.5 9.5-4.262 9.5-9.5 9.5zm0-18c-4.687 0-8.5 3.813-8.5 8.5s3.813 8.5 8.5 8.5 8.5-3.813 8.5-8.5-3.813-8.5-8.5-8.5z" fill="rgb(96,101,124)"/><ellipse cx="16" cy="80.556" fill="rgb(96,101,124)" rx="4" ry="3.973"/><path d="m117.032 8.584h4v17.002h-4z" fill="rgb(96,101,124)" transform="matrix(-.9891 .1475 -.1475 -.9891 239.2816 16.4254)"/><path d="m110.108 9.617h4v17.002h-4z" fill="rgb(96,101,124)" transform="matrix(-.9891 .1475 -.1475 -.9891 225.663 19.5017)"/><path d="m123.948.927h6v30.002h-6z" fill="rgb(96,101,124)" transform="matrix(-.9891 .1475 -.1475 -.9891 254.8568 12.958)"/></svg></g><!--ITEM: Illustration component 6--><g transform="translate(328.125 1063.125) rotate(0.0 403.125 341.25) translate(0.0 0.0) scale(4.155863569120066 4.1606720475993075)"><svg width="194.00299999999996" height="10.81556043956044" viewBox="0.0 0.0 194.00299999999996 10.81556043956044"><path d="m184 1s-15 4-35 29-66.865 35.522-90.865 29.522-52.135 6.478-58.135 26.478c0 0 26.378-2.292 21.26 22.147-5.562 26.562 8.74 41.853 17.74 43.853s32 2 42-10 35-16 40-3l20.948-11.853c-.001 0 48.052-128.147 42.052-126.147" fill="#93c3ff"/><path d="m183 1s-30.998 106.637-62.115 137.959c-9.5 9.562-2.854 16.269-.885 18.041 9.885 7.959 25 7 25 7s47-46 49-142c.107-5.153-2.917-22-9-22-2 0-2 1-2 1z" fill="#9ec9ff"/></svg></g><!--ITEM: Illustration component 7--><g transform="translate(1235.625 1901.25) rotate(0.0 225.9375 76.875)  scale(3.925422403683273 3.9935064935064934)"><svg width="115.115" height="38.5" viewBox="0.0 0.0 115.115 38.5"><path d="m114.5 30.574v-23.574h-114v24h.115c0 3.866 25.52 7 57 7s57-3.134 57-7c-0-.143-.046-.285-.115-.426z" fill="#fff"/><g fill="rgb(96,101,124)"><path d="m57.616 38.5c-27.138 0-55.936-2.491-57.438-7.118-.109-.092-.178-.229-.178-.382v-24c0-.276.224-.5.5-.5h114c.276 0 .5.224.5.5v23.467c.077.188.115.362.115.533.001 4.871-29.624 7.5-57.499 7.5zm-56.616-7.82c.073.087.116.199.116.32 0 2.656 20.12 6.5 56.5 6.5s56.5-3.844 56.5-6.5c0-.049-.021-.118-.064-.207-.034-.069-.052-.143-.052-.219v-23.074h-113z"/><ellipse cx="57.5" cy="7" rx="57" ry="7"/></g></svg></g><!--ITEM: Illustration component 8--><g transform="translate(1192.5 536.25) rotate(0.0 285.0 699.375)  scale(4.025196316592282 4.017837907708217)"><svg width="141.608" height="348.135" viewBox="0.0 0.0 141.608 348.135"><path d="m25.78 66.39-18.991 42.015-4.293 8.995 19.367 4.477 25.337-52.065z" fill="#013b84"/><path d="m44.539 117.494-8.496 29.745-.909 77.246s25.495-1.052 25.58-1.532l17.06-97.995z" fill="#013b84"/><path d="m29.99 257.99 1.483 33.653 1.185 11.464.646 6.262.192 1.853.621 5.99.305 2.954.462 4.492.028.257s2.991.506 6.458 1.094c1.528.261 3.149.536 4.644.796.846.142 1.646.282 2.373.407 1.864.32 3.21.559 3.382.599l.039-.543.111-1.538.884-12.091.99-13.561 5.917-45.752 1.725-34.023-24.871-4.274-6.205 35.858c-.455 2-.58 4.062-.369 6.103z" fill="#013b84"/><path d="m30.687 284.07.79 7.57 1.18 11.47.65 6.26.19 1.851.62 5.989.31 2.96.46 4.49.02.26s3 .5 6.46 1.091c1.53.26 3.15.54 4.65.8.84.14 1.64.28 2.37.399 1.86.32 3.21.561 3.38.601l.04-.54.11-1.54.89-12.09.99-13.561 2.07-16.01z" fill="#93c3ff"/><path d="m30.687 284.07.79 7.57 1.18 11.47.65 6.26.19 1.851.62 5.989.31 2.96.46 4.49.02.26s3 .5 6.46 1.091c1.53.26 3.15.54 4.65.8.84.14 1.64.28 2.37.399 1.86.32 3.21.561 3.38.601l.04-.54.11-1.54.89-12.09.99-13.561 2.07-16.01z" fill="#016eea"/><path d="m61.351 36.825h26.619v-22.527c.001-7.896-6.401-14.298-14.298-14.298h-4.251c-7.897 0-14.298 6.402-14.298 14.298v16.298c0 3.44 2.789 6.229 6.228 6.229z" fill="#002652"/><path d="m115.827 66.39 18.992 42.015 4.292 8.995-19.366 4.477-25.338-52.065z" fill="#013b84"/><path d="m37.978 55.31 31.286-5.912 34.844 5.712c6.446 1.057 11.463 6.17 12.398 12.634l2.922 20.212-96.668-.501 3.218-19.831c1.008-6.22 5.806-11.144 12-12.314z" fill="#013b84"/><path d="m95.509 117.494 8.496 29.745.909 77.246s-25.495-1.052-25.58-1.532l-17.06-97.995z" fill="#013b84"/><path d="m91.043 53.033-20.61-4.08-20.723 4.332-10.96 34.857 3.288 38.782-6 20.911 34.395 21.565 34.394-21.565-6-21.102 3.237-38.289z" fill="#2888ff"/><g fill="#c78982"><path d="m69.696 74.942-7.502-24.42v-15.318h9.519 8.35v16.066l-8.233 23.71c-.355 1.026-1.815 1-2.134-.038z"/><path d="m85.622 6.718h-13.525-1.932c-6.403 0-11.593 5.19-11.593 11.593v6.956 6.196c0 1.977.758 3.879 2.117 5.314l6.666 7.039h9.485l6.666-7.039c1.359-1.435 2.117-3.337 2.117-5.314v-6.196-18.549z"/><path d="m83.253 32.837h-7.632c-.509 0-.922-.413-.922-.922v-7.579c0-.509.413-.922.922-.922h7.632c2.602 0 4.711 2.109 4.711 4.711.001 2.603-2.109 4.712-4.711 4.712z"/><path d="m60.071 28.837h7.632c.509 0 .922-.413.922-.922v-7.579c0-.509-.413-.922-.922-.922h-7.632c-2.602 0-4.711 2.109-4.711 4.711-.001 2.603 2.109 4.712 4.711 4.712z"/></g><path d="m79.968 4.058h-15.708l2.021 7.616c1.201 4.527 5.299 7.68 9.983 7.68h10.671v-8.328c0-3.848-3.119-6.968-6.967-6.968z" fill="#002652"/><path d="m75.625 19.322c1.102 0 1.995.893 1.995 1.995v8.739c0 2.144.91 4.186 2.5 5.624 1.592 1.44 2.552 2.915 11.004 3.041l-2.179-4.759-1.09-6.608.039-13.055h-12.269z" fill="#002652"/><path d="m78.128 42.001-4.652 4.526h6.62v-3.695c0-1.026-1.233-1.546-1.968-.831z" fill="#002652" opacity=".1"/><path d="m83.642 25.985.053-.066h-.053v-1.603c0-1.25-1.013-2.262-2.262-2.262h-4.756c-1.683 0-3.047 1.364-3.047 3.046v.369c0 .155.022.304.055.449h-.055v5.342c0 1.104-.896 2-2 2h-3.023l5.808 2.139 6.833-6.333 1.272-1.603h1.175z" fill="#1d2445" opacity=".1"/><path d="m110.058 257.99-1.483 33.653-1.185 11.464-.646 6.262-.192 1.853-.621 5.99-.305 2.954-.462 4.492-.028.257s-2.991.506-6.458 1.094c-1.528.261-3.149.536-4.644.796-.846.142-1.646.282-2.373.407-1.864.32-3.21.559-3.382.599l-.039-.543-.111-1.538-.884-12.091-.99-13.561-5.917-45.752-1.725-34.023 24.871-4.274 6.205 35.858c.455 2 .58 4.062.369 6.103z" fill="#013b84"/><path d="m109.361 284.07-.79 7.57-1.18 11.47-.65 6.26-.19 1.851-.62 5.989-.31 2.96-.46 4.49-.02.26s-3 .5-6.46 1.091c-1.53.26-3.15.54-4.65.8-.84.14-1.64.28-2.37.399-1.86.32-3.21.561-3.38.601l-.04-.54-.11-1.54-.89-12.09-.99-13.561-2.07-16.01z" fill="#93c3ff"/><path d="m109.361 284.07-.79 7.57-1.18 11.47-.65 6.26-.19 1.851-.62 5.989-.31 2.96-.46 4.49-.02.26s-3 .5-6.46 1.091c-1.53.26-3.15.54-4.65.8-.84.14-1.64.28-2.37.399-1.86.32-3.21.561-3.38.601l-.04-.54-.11-1.54-.89-12.09-.99-13.561-2.07-16.01z" fill="#016eea"/><path d="m70.768 79.886h-10.448v-33.774h4.448c3.314 0 6 2.686 6 6z" fill="#013b84"/><path d="m70.768 79.886h10.448v-33.774h-4.448c-3.314 0-6 2.686-6 6z" fill="#013b84"/><path d="m106.632 127.406 17.566-13.514c5.127-3.944 12.509-2.807 16.212 2.496 1.493 2.139 1.599 4.953.271 7.198l-2.073 3.503c-.917 1.547-2.365 2.708-4.075 3.266l-24.337 6.383z" fill="#c78982"/><path d="m104.014 161.952c-.805-.235-1.389-1.104-1.351-2.135l1.822-15.575 4.892-1.673-4.732 18.949c-.05.291-.327.486-.618.436-.004-0-.008-.001-.013-.002z" fill="#c78982"/><path d="m101.595 130.569-3.983 4.721c-.311.369-.478.839-.468 1.322l.052 2.478c.008.363-.084.721-.266 1.035l-2.749 4.755c-.11.19-.045.433.145.542l.886.512c1.052.608 2.392.341 3.13-.624l2.447-3.199c.289-.378.477-.825.544-1.296l.522-3.662 5.555-6.52-.337-.329c-1.557-1.52-4.075-1.397-5.478.265z" fill="#c78982"/><path d="m117.23 122.675-6.631 3.705-.439-.008c-2.948.001-5.747 1.291-7.664 3.532l-.011-.013-.737.834v7.752c.391.256.669.677.712 1.18l1.6 11.032 3.721-1.286.409-1.631c.201-.802.487-1.58.854-2.321l3.404-6.845c.842-1.691 2.406-2.909 4.252-3.311l13.578-5.176z" fill="#c78982"/><path d="m81.765 51.745-9.097 9.675c-1.185 1.26-3.187 1.26-4.371 0l-9.097-9.675v16.814 16.814h11.282 11.282v-16.814-16.814z" fill="#2888ff"/><path d="m34.976 127.406-17.566-13.514c-5.127-3.944-12.509-2.807-16.212 2.496-1.493 2.139-1.599 4.953-.271 7.198l2.073 3.503c.917 1.547 2.365 2.708 4.075 3.266l24.337 6.383z" fill="#c78982"/><path d="m37.593 161.952c.805-.235 1.389-1.104 1.351-2.135l-1.822-15.575-4.892-1.673 4.732 18.949c.05.291.327.486.618.436.004-0 .009-.001.013-.002z" fill="#c78982"/><path d="m40.012 130.569 3.983 4.721c.311.369.478.839.468 1.322l-.052 2.478c-.008.363.084.721.266 1.035l2.749 4.755c.11.19.045.433-.145.542l-.886.512c-1.052.608-2.392.341-3.13-.624l-2.447-3.199c-.289-.378-.477-.825-.544-1.296l-.522-3.662-5.555-6.52.337-.329c1.557-1.52 4.076-1.397 5.478.265z" fill="#c78982"/><path d="m39.859 130.725-.737-.834-.011.013c-1.916-2.24-4.716-3.53-7.664-3.532l-.439.008-6.631-3.705-13.048 7.443 13.578 5.176c1.846.402 3.41 1.619 4.252 3.311l3.404 6.845c.367.741.654 1.519.854 2.321l.409 1.631 3.721 1.286 1.6-11.032c.043-.502.32-.924.712-1.179z" fill="#c78982"/><path d="m46.827 318.875h-10.026c-1.034 0-1.872.838-1.872 1.872v9.682c0 1.034.838 1.872 1.872 1.872h10.026c1.034 0 1.872-.838 1.872-1.872v-9.682c0-1.034-.838-1.872-1.872-1.872z" fill="#016eea"/><path d="m93.22 318.875h10.026c1.034 0 1.872.838 1.872 1.872v9.682c0 1.034-.838 1.872-1.872 1.872h-10.026c-1.034 0-1.872-.838-1.872-1.872v-9.682c.001-1.034.839-1.872 1.872-1.872z" fill="#016eea"/><path d="m86.388 342.971h24.097l.861-3.959c.64-2.94-.079-6.012-1.956-8.364l-4.957-6.209-6.34-4.188-9.832 5.508-2.361 6.078c-.9 2.317-1.063 4.856-.466 7.269z" fill="#016eea"/><path d="m89.933 348.135h16.6c.935 0 1.767-.51 2.068-1.27l1.68-4.238h-24.096l1.68 4.238c.301.76 1.133 1.27 2.068 1.27z" fill="#80b6f4"/><path d="m99.954 339.873h-3.442c-1.42 0-2.582 1.162-2.582 2.582 0 1.42 1.162 2.582 2.582 2.582h3.442c1.42 0 2.582-1.162 2.582-2.582 0-1.42-1.162-2.582-2.582-2.582z" fill="#80b6f4"/><path d="m53.66 342.971h-24.097l-.861-3.959c-.64-2.94.079-6.012 1.956-8.364l4.957-6.209 6.34-4.188 9.832 5.508 2.361 6.078c.9 2.317 1.063 4.856.466 7.269z" fill="#016eea"/><path d="m50.115 348.135h-16.6c-.935 0-1.767-.51-2.068-1.27l-1.68-4.238h24.097l-1.68 4.238c-.303.76-1.134 1.27-2.069 1.27z" fill="#80b6f4"/><path d="m40.093 339.873h3.442c1.42 0 2.582 1.162 2.582 2.582 0 1.42-1.162 2.582-2.582 2.582h-3.442c-1.42 0-2.582-1.162-2.582-2.582 0-1.42 1.162-2.582 2.582-2.582z" fill="#80b6f4"/></svg></g></svg>