<svg xmlns="http://www.w3.org/2000/svg" viewBox="0 0 800 600" width="800" height="600"><g transform="translate(404.0 506.0) rotate(0.0 143.0 9.5) scale(0.9995316879504008 0.9995265400599715)"><svg width="286.134" height="19.009" viewBox="0 0 286.134 19.009"><path d="M286.134 0c0 10.498-8.97 19.009-20.036 19.009H20.036C8.97 19.009 0 10.498 0 0z" fill="#eff0f2"/></svg></g><g transform="translate(419.0 64.0) rotate(0.0 127.5 207.0) scale(1.0577182321587821 1.061056904943141)"><svg width="241.085" height="390.177" viewBox="0 0 241.085 390.177"><path d="M7.5 382.677V120.542C7.5 58.211 58.21 7.5 120.542 7.5s113.042 50.71 113.042 113.042v262.135z" fill="#f3f4f6"/><g fill="#fff"><path d="M120.543 15c58.196 0 105.542 47.346 105.542 105.542v254.635H15V120.542C15 62.346 62.346 15 120.543 15m0-15C53.969 0 0 53.969 0 120.542v269.635h241.085V120.542C241.085 53.969 187.116 0 120.543 0z"/><path d="M1.53 119.105h238.024v7H1.53zm0 86.682h238.024v7H1.53zm0 91.927h238.024v7H1.53z"/><path d="M117.042 7.697h7v380.838h-7zm-68.124 21.34h7v361.14h-7zm136.249 0h7v361.14h-7z"/></g></svg></g><g transform="translate(482.0 307.0) rotate(0.0 59.5 94.5) scale(0.9976358545296021 0.9988373322058979)"><svg width="119.282" height="189.22" viewBox="0 0 119.282 189.22"><path d="M116.78 189.22a2.502 2.502 0 0 1-2.413-1.851L90.329 98.114V5H29.07L29 98.812 4.91 187.388a2.5 2.5 0 1 1-4.819-1.334l23.91-87.924L24.074 0h71.254v97.452l23.867 88.616a2.5 2.5 0 0 1-2.415 3.152z" fill="#FFF"/><path d="M20.966 93.783h79.07v4.688h-79.07z" fill="#013b84"/></svg></g><g transform="translate(115.0 66.0) rotate(0.0 127.5 207.0) scale(1.0577182321587821 1.061056904943141)"><svg width="241.085" height="390.177" viewBox="0 0 241.085 390.177"><path d="M7.5 382.677V120.542C7.5 58.211 58.21 7.5 120.542 7.5s113.042 50.71 113.042 113.042v262.135z" fill="#f3f4f6"/><g fill="#fff"><path d="M120.543 15c58.196 0 105.542 47.346 105.542 105.542v254.635H15V120.542C15 62.346 62.346 15 120.543 15m0-15C53.969 0 0 53.969 0 120.542v269.635h241.085V120.542C241.085 53.969 187.116 0 120.543 0z"/><path d="M1.53 119.105h238.024v7H1.53zm0 86.682h238.024v7H1.53zm0 91.927h238.024v7H1.53z"/><path d="M117.042 7.697h7v380.838h-7zm-68.124 21.34h7v361.14h-7zm136.249 0h7v361.14h-7z"/></g></svg></g><g transform="translate(234.0 486.0) rotate(0.0 93.0 9.5) scale(0.9995324767447484 0.9995265400599715)"><svg width="186.087" height="19.009" viewBox="0 0 186.087 19.009"><path d="M186.087 0c0 10.498-8.971 19.009-20.036 19.009H20.036C8.971 19.009 0 10.498 0 0z" fill="#eff0f2"/></svg></g><g transform="translate(297.0 308.0) rotate(0.0 59.5 94.5) scale(0.9976358545296021 0.9988373322058979)"><svg width="119.282" height="189.22" viewBox="0 0 119.282 189.22"><path d="M116.78 189.22a2.502 2.502 0 0 1-2.413-1.851L90.329 98.114V5H29.07L29 98.812 4.91 187.388a2.5 2.5 0 1 1-4.819-1.334l23.91-87.924L24.074 0h71.254v97.452l23.867 88.616a2.5 2.5 0 0 1-2.415 3.152z" fill="#8e91a2"/><path d="M20.966 93.783h79.07v4.688h-79.07z" fill="#013b84"/></svg></g><g transform="translate(568.0 243.0) rotate(0.0 -68.0 139.0) scale(-0.9964976040094373 0.9993888629255491)"><svg width="136.478" height="278.17" viewBox="0 0 136.478 278.17"><path d="M92.098 152.99h-33.5l-3.75-27 19.75.5 17.25 10z" fill="#013b84"/><path d="M115.797 274.39a7.63 7.63 0 0 0 6.623 3.779l9.789-.049c3.157-.123 5.178-3.41 3.862-6.282l-11.42-24.916-15.665 4.527.463 12.074z" fill="#bedbff"/><path d="M82.058 136.833c4.833-2.946 11.148-1.224 13.817 3.767l12.839 24.013a19.048 19.048 0 0 1 1.956 5.643l12.573 70.511s-16.06 4.132-15.523 3.933l-26.114-68.502a19.11 19.11 0 0 1-.952-3.426l-5.67-31.627z" fill="#99644c"/><path d="M115.616 271.322a7.63 7.63 0 0 0 6.623 3.779l9.789-.049c3.157-.123 5.178-3.41 3.862-6.282l-11.42-24.916-15.665 4.527.463 12.074z" fill="#93c3ff"/><path d="m123.158 247.995-11.081 3.044-3.043-11.078a3.763 3.763 0 0 1 2.632-4.625l3.826-1.051a3.763 3.763 0 0 1 4.625 2.632z" fill="#bedbff"/><path d="m119.4 252.938 7.159-2.083-3.369-11.578-2.642.769a3.815 3.815 0 0 0-2.688 4.336z" fill="#93c3ff"/><path d="m110.434 255.547 9.624-2.801-3.652-8.084a3.815 3.815 0 0 0-4.54-2.092l-4.801 1.398z" fill="#93c3ff"/><path d="m73.989 141.079 6.3 29.654 27.844-7.205-12.389-23.173c-2.621-4.903-8.771-6.677-13.601-3.924z" fill="#013b84"/><path d="M19.751 53.042h11.5V8.125c-6.351 0-11.5 5.149-11.5 11.5z" fill="#002652"/><path d="m20.563 115.309 43.871-4 15.302 48.046H38.611c-9.023 0-16.693-6.592-18.048-15.513z" fill="#013b84"/><path d="M75.438 126.82H26.115l-8.398-51.854h59.174l3.697 10.807-4.402 14.345z" fill="#93C3FF"/><path d="m81.153 56.172 25.807 50.293-11.166 5.148-2.145.097-29.585-52.13z" fill="#93C3FF"/><path d="M90.463 274.39a7.63 7.63 0 0 0 6.623 3.779l9.789-.049c3.157-.123 5.178-3.41 3.862-6.282l-11.42-24.916-15.665 4.527.463 12.074z" fill="#bedbff"/><path d="M57.471 136.377c4.427-2.699 10.213-1.122 12.658 3.451l13.251 24.784a19.048 19.048 0 0 1 1.956 5.643l12.573 70.511s-16.06 4.132-15.523 3.933l-26.114-68.502a19.11 19.11 0 0 1-.952-3.426l-5.67-31.627z" fill="#99644c"/><path d="M90.283 271.322a7.63 7.63 0 0 0 6.623 3.779l9.789-.049c3.157-.123 5.178-3.41 3.862-6.282l-11.42-24.916-15.665 4.527.463 12.074z" fill="#93c3ff"/><path d="m97.824 247.995-11.081 3.044-3.043-11.078a3.763 3.763 0 0 1 2.632-4.625l3.826-1.051a3.763 3.763 0 0 1 4.625 2.632z" fill="#bedbff"/><path d="m94.067 252.938 7.159-2.083-3.369-11.578-2.642.769a3.815 3.815 0 0 0-2.688 4.336z" fill="#93c3ff"/><path d="m85.1 255.547 9.624-2.801-3.652-8.084a3.815 3.815 0 0 0-4.54-2.092l-4.801 1.398z" fill="#93c3ff"/><path d="M20.563 69.115h12.022v57.705H20.563z" fill="#93C3FF"/><path d="m91.536 79.513-80.77 11.381v-23.73c0-9.452 7.662-17.114 17.114-17.114h41.351a15 15 0 0 1 13.839 9.214z" fill="#93C3FF"/><path d="M56.738 66.851V33.656H38.861v17.182l15.938 16.787c.7.736 1.939.241 1.939-.774z" fill="#99644c"/><path d="m56.598 42.608-4.053.016c-.956.004-1.471 1.123-.852 1.851l5.018 5.906" fill="#1d2445" opacity=".1"/><path d="M11.483 62.341.946 103.76l-.889 5.244 15.141-4.72 13.47-44.722-14.13.343a3.234 3.234 0 0 0-3.055 2.436z" fill="#93C3FF"/><path d="M46.364 39.095h16.667V13.21H35.917v15.439c0 5.769 4.677 10.446 10.447 10.446z" fill="#99644c"/><path d="M66.998 14.086v6.592c0 .239-.046.477-.135.699l-.874 2.173c-.294.73-.1 1.565.485 2.091l.524.471v12.75a3.745 3.745 0 0 1-3.761 3.745l-23.658-.096.097-8.058z" fill="#99644c"/><path d="m63.708 33.71 5.178-2.688a1.873 1.873 0 0 0 .37-3.072l-5.548-4.85z" fill="#99644c"/><g fill="#002652"><path d="M66.389 21.134h-3.314c-.298 0-.584.118-.795.329l-1.068 1.068c-.708.708-.207 1.918.795 1.918h3.853" opacity=".07"/><path d="M55.398.387h-.56a4.29 4.29 0 0 0-4.29 4.29v14.898h19.865v-4.173C70.413 7.109 63.69.387 55.398.387z"/><path d="M52.839 19.362H30.516v-4.974C30.516 6.442 36.958 0 44.904 0h4.7a3.235 3.235 0 0 1 3.235 3.235z"/><path d="M47.484 36.905h-3.908a9.085 9.085 0 0 1-9.085-9.085v-5.534a3.995 3.995 0 0 0-3.995-3.995h-.995v-4.124h27.612z"/></g><path d="M32.501 20.792a1.5 1.5 0 0 1-1.5-1.5v-12.5a1.5 1.5 0 1 1 3 0v12.5a1.5 1.5 0 0 1-1.5 1.5z" fill="#93C3FF"/><path d="m64.048 34.043.389.76c.213.416.588.727 1.036.858l1.541.453v-2.111z" fill="#1d2445" opacity=".1"/><path d="m56.687 108.649 1.47 7.846 39.885 1.569a9.687 9.687 0 0 0 9.934-8.069l.093-.548a5.129 5.129 0 0 0-4.972-5.982l-9.133-.152a36.895 36.895 0 0 0-6.068.398z" fill="#99644c"/><path d="M52.908 116.298c.406.161.84.244 1.278.244h16.818l.268-.157v-7.431h-7.253a3.443 3.443 0 0 1-.78.099l-2.158-.005-7.9-.794a3.706 3.706 0 0 0-2.577.695l-2.138 1.555-4.215-.495a6.505 6.505 0 0 0-2.86.277l-8.55 2.795a.492.492 0 0 0-.318.619c.003.003.003.007.003.007l.01.028a1.941 1.941 0 0 0 2.131 1.188l8.125-1.42 8.002 1.956z" fill="#99644c"/><g fill="#1d2445" opacity=".1"><path d="m56.687 108.649 1.47 7.846 39.885 1.569a9.687 9.687 0 0 0 9.934-8.069l.093-.548a5.129 5.129 0 0 0-4.972-5.982l-9.133-.152a36.895 36.895 0 0 0-6.068.398z"/><path d="M52.908 116.298c.406.161.84.244 1.278.244h16.818l.268-.157v-7.431h-7.253a3.443 3.443 0 0 1-.78.099l-2.158-.005-7.9-.794a3.706 3.706 0 0 0-2.577.695l-2.138 1.555-4.215-.495a6.505 6.505 0 0 0-2.86.277l-8.55 2.795a.492.492 0 0 0-.318.619c.003.003.003.007.003.007l.01.028a1.941 1.941 0 0 0 2.131 1.188l8.125-1.42 8.002 1.956z"/></g><path d="m51.455 109.649-1.47 7.846-39.885 1.568a9.687 9.687 0 0 1-9.934-8.069l-.093-.548a5.129 5.129 0 0 1 4.972-5.982l9.133-.152c2.03-.035 4.059.099 6.068.398z" fill="#99644c"/><path d="M55.233 117.298c-.406.161-.84.244-1.278.244H37.137l-.268-.157v-7.431h7.253c.254.059.514.099.78.099l2.158-.005 7.9-.794a3.706 3.706 0 0 1 2.577.695l2.138 1.555 4.215-.495a6.505 6.505 0 0 1 2.86.277l8.55 2.795c.259.083.401.36.318.619-.003.003-.003.007-.003.007l-.01.028a1.941 1.941 0 0 1-2.131 1.188l-8.125-1.42-8.002 1.956z" fill="#99644c"/><path d="M49.679 22.005h14.469l.327-2.499H49.679z" fill="#93c3ff"/><path d="m64.652 20.506-.022.022.022 4.972 3.326-.022-.022-4.972zm0-1h3.304c.565 0 1.022.458 1.022 1.022v4.95c0 .565-.458 1.022-1.022 1.022h-3.304a1.022 1.022 0 0 1-1.022-1.022v-4.95a1.021 1.021 0 0 1 1.022-1.022z" fill="#93c3ff"/><path d="M51.171 30.506h3.33l-.317-6.972a4.22 4.22 0 0 0-4.215-4.028h-.242c-2.318 0-3.949 2.279-3.201 4.474l1.444 4.235a3.382 3.382 0 0 0 3.201 2.291z" fill="#99644c"/><path d="m48.656 141.079 6.3 29.654 27.844-7.205-15.173-34.122z" fill="#013b84"/></svg></g><g transform="translate(289.0 233.0) rotate(0.0 85.0 131.0) scale(0.9249787798985788 0.9279099006569743)"><svg width="183.788" height="282.355" viewBox="0 0 183.788 282.355"><path d="m81.833 132.847 28.426-36.435-17.391-11.399-33.61 43.08 10.342 6.779a9.153 9.153 0 0 0 12.233-2.025z" fill="#013b84"/><path d="m30.692 122.598 37.879 11.947a4.935 4.935 0 0 0 5.157-1.408l2.778-3.091a8.194 8.194 0 0 0-.618-11.572l-3.937-3.538a4.932 4.932 0 0 0-3.249-1.264l-30.666-.313z" fill="#c78982"/><path d="M.005 111.921v-.011a.491.491 0 0 1 .404-.556l8.828-1.404a6.498 6.498 0 0 1 2.847.18l4.06 1.146 2.336-1.191a3.679 3.679 0 0 1 2.639-.281l7.626 2.016.062.017c.27.062.533.112.803.146l-.005.011 16.263 2.578-11.158 7.16c-2.016 2.319-3.65 2.454-5.835 2.651l-3.841.337a7.803 7.803 0 0 1-4.021-.842 8.94 8.94 0 0 0-2.409-.854c-2.375-.505-6.099-1.376-6.099-1.376a1.465 1.465 0 0 1-1.016-1.398v-.14a1.426 1.426 0 0 1 1.527-1.314c.792.051 5.515.303 6.992.354h.011a.572.572 0 0 0 .539-.371.536.536 0 0 0-.174-.612l-1.46-1.14-8.817-3.701-8.188.124a1.932 1.932 0 0 1-1.909-1.499z" fill="#c78982"/><path d="m27.68 150.915 82.181-11.495v39.002H29.925c-6.744 0-12.21-5.467-12.21-12.21v-3.766a11.652 11.652 0 0 1 9.965-11.531z" fill="#93c3ff"/><path d="m136.497 141.084-73.156 8.66v32.167h52.194c11.577 0 20.963-9.385 20.963-20.963v-19.864z" fill="#93c3ff"/><path d="m74.241 144.391 34.711 1.865a29.89 29.89 0 0 1 19.343 7.805l8.071 7.079 22.545-42.22a56.278 56.278 0 0 0 6.553-20.905l2.961-27.357c1.216-11.238-9.964-19.733-20.465-15.549l-45.224 16.66a14.996 14.996 0 0 0-8.462 8.587z" fill="#013b84"/><path d="m146.345 72.617 16.916 53.308c1.653 5.209 7.891 7.311 12.359 4.164l1.766-1.243a15.09 15.09 0 0 0 5.656-17.019L168 65.744l-21.655 6.872z" fill="#013b84"/><path d="m148.169 29.928-36.232.369V17.819c0-8.762 7.103-15.865 15.865-15.865h4.502c8.762 0 15.865 7.103 15.865 15.865z" fill="#d4e7ff"/><g fill="#c78982"><path d="M145.48 36.787h-7.632c-.509 0-.922-.526-.922-1.174v-9.652c0-.648.413-1.174.922-1.174h7.632c2.602 0 4.711 2.686 4.711 5.999.001 3.316-2.109 6.001-4.711 6.001z"/><path d="M135.632 9.333h-11.159a8.92 8.92 0 0 0-8.921 8.921v28.079h29V18.254a8.92 8.92 0 0 0-8.92-8.921z"/><path d="M120.493 79.306v-47.29h19.12v29.377l-15.567 19.174c-1.188 1.462-3.553.623-3.553-1.261z"/></g><path d="M144.443 24.787h-8.018a3.047 3.047 0 0 0-3.047 3.047v.368c0 .155.022.304.055.449h-.055v5.343a2 2 0 0 1-2 2h-3.024l5.808 2.139 6.833-6.333 1.273-1.602h2.175z" fill="#1d2445" opacity=".1"/><path d="M114.872 36.787h7.632c.509 0 .922-.526.922-1.174v-9.652c0-.648-.413-1.174-.922-1.174h-7.632c-2.602 0-4.711 2.686-4.711 5.999-.001 3.316 2.109 6.001 4.711 6.001z" fill="#c78982"/><path d="M144.878 38.088v-13.3a3.167 3.167 0 0 0-3.167 3.167v8.761c0 1.807-1.828 3.132-3.495 2.434a2.006 2.006 0 0 1-.222-.107l-3.066-1.752a6.003 6.003 0 0 0-2.977-.791h-3.073l-.5 26.167h5.5c7.548 0 13.667-6.119 13.667-13.667v-5.168a3.76 3.76 0 0 0-1.333-2.872 3.76 3.76 0 0 1-1.334-2.872z" fill="#d4e7ff"/><path d="M115.378 38.088v-13.3a3.167 3.167 0 0 1 3.167 3.167v8.761c0 1.807 1.828 3.132 3.495 2.434.082-.034.157-.07.222-.107l3.066-1.752a6.003 6.003 0 0 1 2.977-.791h3.073l.5 26.167h-5.5c-7.548 0-13.667-6.119-13.667-13.667v-5.168a3.76 3.76 0 0 1 1.333-2.872 3.76 3.76 0 0 0 1.334-2.872zm21.5-28.755V5a5 5 0 0 0-5-5h-8.406c-2.547 0-3.935 2.974-2.3 4.927l5.306 6.333a3.001 3.001 0 0 0 2.3 1.073h5.1a3 3 0 0 0 3-3z" fill="#d4e7ff"/><path d="m126.236 44.09-.359-1.97a1 1 0 0 1 .827-1.17c2.403-.351 4.632-.355 6.762-.012.556.089.912.644.793 1.194l-.423 1.959c-.114.528-.624.853-1.157.772-1.651-.249-3.4-.238-5.299.03a1.004 1.004 0 0 1-1.144-.803z" fill="#c78982"/><path d="m53.529 170.138 25.784 66.539 5.406 17.882-17.113 1.418-39.07-60.463c-.657-1.017-11.263-26.225-10.053-26.196z" fill="#93c3ff"/><path d="m42.392 269.279-3.825-2.486a3.716 3.716 0 0 1 1.5-6.795l8.078-1.154a17.768 17.768 0 0 0 12.431-7.977l3.34-5.192 3.198 1.954a1.776 1.776 0 0 1 .685 2.265l-1.089 2.346 4.499 1.869a8.628 8.628 0 0 0 9.023-1.502l3.818-3.374a1.066 1.066 0 0 1 1.771.744l.789 15.179-.914 3.573z" fill="#5aa1f1"/><path d="m87.778 266.153-.708 1.502a7.716 7.716 0 0 1-6.98 4.427H48.329a3.547 3.547 0 0 1-1.743-.457l-7.032-3.957h26.153c.463 0 .908-.181 1.24-.504a8.926 8.926 0 0 1 6.227-2.531h13.64a1.066 1.066 0 0 1 .964 1.52z" fill="#016eea"/><path d="m150.336 70.48 11.745 53.567c1.003 4.576 5.689 7.33 10.175 5.982l1.071-.322c5.824-1.751 9.126-7.892 7.375-13.715l-4.137-13.762-12.456-29.445z" fill="#c78982"/><path d="m152.632 55.861-2.945 7.763c-.776 4.214.858 8.374 4.011 11.026.67.58 1.405 1.07 2.209 1.49.157.037.311.052.453.073l.507.071 11.317 6.029-7.249-17.529.243-1.257a3.914 3.914 0 0 1-.246-.602l-2.786-8.237c-.301-.883-5.514 1.173-5.514 1.173z" fill="#c78982"/><path d="m153.307 41.948.056.009.056.01.031.015 2.443.726c.765.255 1.485.444 1.98.592.326.118.597.225.903.454.826.557 2.627 1.812 3.397 2.359.612.459 1.148 1.02 1.484 1.72l4.294 8.262c.683 1.342.612 3.01-.307 4.234l-4.752 6.674a8.328 8.328 0 0 0-1.593 6.204l-9.636 1.522c-.057-.154-.105-.293-.158-.441.09.313.148.496.148.496-1.846-5.148-1.734-6.119-2.031-8.288l-.089-.894c-.572-4.194 4.58-6.606 4.178-10.835l4.858-.96.51 1.658c.51 1.658 3.035 2.118 2.76 1.082s-2.07-7.74-2.07-7.74l-3.341-2.348-1.938-.817a3.111 3.111 0 0 1-1.225-.918c-1.051-1.235-.764-2.807.042-2.776z" fill="#c78982"/><path d="m151.685 65.122 2.605.668 8.794-9.473-7.92-3.456-4.673 9.69a1.83 1.83 0 0 0 1.194 2.571z" fill="#002652" opacity=".1"/><path d="M148.127 47.15c.056.01.291-.004.291-.004s2.996.053 2.991.065c.284.009 1.13.037 1.51.058.347.005.627.057.954.174a88.094 88.094 0 0 1 3.928 1.353c.755.311 1.377.715 1.913 1.276.975.798 4.379 4.106 4.379 4.106l-3.272 5.054-1.884-3.62-5.149 2.484s-.582.648-1.725 1.831-3.771.647-2.918-.532l1.342-1.958.015.022c.085-.114.382-.515.52-.736.153-.204.373-.454.638-.638.45-.311 1.164-.868 1.834-1.386l-1.15.178s-.898.474-2.46 1.408c-1.561.933-4.204-.475-2.979-1.471l2.021-1.545c.332-.23.541-.424.939-.699.275-.239.597-.413.909-.531.595-.237 1.625-.618 2.559-.964l-1.039-.383-2.097-.265c-.505-.093-1-.24-1.408-.546-1.28-.929-1.453-2.526-.662-2.731z" fill="#c78982"/><path d="m55.207 181.709 5.533-19.672-17.056 1.108c-2.574.167-3.751 3.291-1.927 5.115z" fill="#1d2445" opacity=".07"/><path d="m85.71 196.813-10.404 32.194-3.543 10.967-1.934 5.99-.573 1.773-1.852 5.73-.912 2.826-1.386 4.298-.081.246-6.544-.273c-1.549-.062-3.192-.131-4.708-.187-.857-.037-1.669-.067-2.406-.095a181.74 181.74 0 0 0-3.433-.117l.075-.539.211-1.528 1.649-12.01 1.851-13.471.652-41.392a39.993 39.993 0 0 1 1.183-9.046l7.275-29.183 25.216.99.57 36.78a18.799 18.799 0 0 1-.906 6.047z" fill="#93c3ff"/><path d="M45.921 277.192h24.097l1.295-5.955a7.485 7.485 0 0 0-.679-5.056l-3.237-6.201-9.772-5.508-9.832 5.508-2.598 6.69a10.002 10.002 0 0 0-.386 6.02z" fill="#67a8f2"/><path d="M49.495 282.355h16.729c.942 0 1.781-.51 2.084-1.27l1.693-4.238H45.718l1.693 4.238c.303.76 1.141 1.27 2.084 1.27z" fill="#016eea"/><path d="M52.753 253.095h10.026c1.034 0 1.872.838 1.872 1.872v9.682a1.872 1.872 0 0 1-1.872 1.872H52.753a1.872 1.872 0 0 1-1.872-1.872v-9.682c0-1.034.838-1.872 1.872-1.872z" fill="#67a8f2"/><path d="M59.487 274.094h-3.442a2.59 2.59 0 0 0-2.582 2.582 2.59 2.59 0 0 0 2.582 2.582h3.442a2.59 2.59 0 0 0 2.582-2.582 2.59 2.59 0 0 0-2.582-2.582z" fill="#016eea"/></svg></g><g transform="translate(278.0 322.0) rotate(0.0 30.0 19.0) scale(0.9951569030717177 0.9893772130806082)"><svg width="60.292" height="38.408" viewBox="0 0 60.292 38.408"><path d="M3 38.408h54.292a3 3 0 0 0 3-3V3a3 3 0 0 0-3-3H3a3 3 0 0 0-3 3v32.408a3 3 0 0 0 3 3z" fill="#E4E4E8"/><path d="M31.612 23.67H28.68a3 3 0 0 1-3-3v-2.932a3 3 0 0 1 3-3h2.932a3 3 0 0 1 3 3v2.932a3 3 0 0 1-3 3z" fill="#F0EFF1"/></svg></g><g transform="translate(227.0 359.0) rotate(0.0 182.0 79.0) translate(0.0 0.0) scale(0.872914238574176 0.8636144999781363)"><svg width="415.848" height="171.373" viewBox="0 0 415.848 171.373"><g fill="#D2D3DA"><path d="M.158 0h416.837v17.368H.158z"/><path d="M357.134 12.406h22.331v19.849h-22.331z"/><path d="M408.128 182.952 368.299 34.499 328.47 182.952l-7.726-2.073L368.299 3.626l47.555 177.253zM36.39 12.406h22.331v19.849H36.39z"/><path d="M87.384 182.952 47.556 34.499 7.727 182.952 0 180.879 47.556 3.626l47.555 177.253z"/></g></svg></g><g transform="translate(65.0 500.0) rotate(0.0 93.0 9.5) scale(0.9995324767447484 0.9995265400599715)"><svg width="186.087" height="19.009" viewBox="0 0 186.087 19.009"><path d="M186.087 0c0 10.498-8.971 19.009-20.036 19.009H20.036C8.971 19.009 0 10.498 0 0z" fill="#eff0f2"/></svg></g><g transform="translate(552.0 254.0) rotate(0.0 67.0 126.5) scale(0.9981675431670217 0.9971386456255961)"><svg width="134.246" height="253.726" viewBox="0 0 134.246 253.726"><path d="m34.895 207.256 7.908 29.99 20.142-2.089-4.924-25.513zm45.542-74.778 47.73-14.232-8.49-23.793a72.58 72.58 0 0 0-16.043-25.915L81.61 46.468c-1.369-1.424-7.373-1.805-9.243-1.169l-8.2 2.909-4.349 1.48c-16.586 7.549-25.685 25.919-12.785 43.385z" fill="#016eea"/><path d="m27.576 84.459 12.03-34.179 3.757-8.273c14.546-7.237 32.154-3.588 42.623 8.835l12.738 15.115-51.185 21.8z" fill="#016eea"/><path d="M48.688 17.076 28.746 23.2l12.12 39.472c.294.959 1.6 1.08 2.068.194L55.46 39.131z" fill="#c78982"/><path d="m125.103 115.191-87.18 13.607c-6.253.976-10.153 7.31-8.208 13.332 2.505 7.757 5.425 16.59 5.721 16.574l86.167-.45a6.054 6.054 0 0 0 4.254-1.777c11.475-11.497 11.133-30.215-.754-41.286z" fill="#013b84"/><path d="m45.059 129.458-5.469-.433c-5.88-.391-11.741 1.482-15.624 5.183-3.115 2.969-4.63 7.248-4.358 11.542l.341 5.382c.042.656.15 1.305.323 1.94 4.945 18.107 19.753 72.434 19.753 72.434l20.605-4.04-.521-4.554-1.31-46.413a18.713 18.713 0 0 0-.297-3.061l-2.33-12.897z" fill="#013b84"/><path d="m43.003 87.965 9.264-6.268c1.392-1.277 3.614-.091 3.329 1.776l-2.584 16.89z" fill="#002652" opacity=".07"/><path d="M47.802 17.041 23.296 9.858A13.715 13.715 0 0 1 37.785.065l6.586.64c4.149.403 6.906 4.483 5.734 8.482z" fill="#002652"/><path d="m38.231 8.118-1.625 5.542-4.94-1.448-5.435 18.542-1.853-.543-4.952-16.516 7.163-9.305z" fill="#002652"/><path d="m26.232 12.363-6.347 21.193c-.673 2.529 1.314 4.98 3.927 4.844l24.235-1.257z" fill="#c78982"/><path d="m24.538 26.862-4.154-1.327c-1.731-.553-1.975-2.902-.393-3.798l6.916-3.921zM42.539 2.776l.487.129a3.858 3.858 0 0 1 2.736 4.719l-3.444 12.945-17.261-4.593.965-3.626C27.939 5.146 35.334.859 42.539 2.776z" fill="#c78982"/><path d="m32.84 30.135-10.82-2.88 3.66-13.754L36.5 16.38z" fill="#c78982"/><path d="m47.886 1.452 5.086 1.491c5.557 1.629 8.742 7.455 7.113 13.012l-7.374 25.157-32.345-9.481 5.283-18.023c2.783-9.497 12.739-14.94 22.237-12.156z" fill="#c78982"/><path d="m25.114 16.285 2.461.722c.286.084.527.278.669.539l.724 1.325c.48.879-.341 1.899-1.301 1.617l-2.979-.873" fill="#002652" opacity=".07"/><path d="m35.569.504-3.343 11.403a4.184 4.184 0 0 0 2.837 5.191l4.047 1.186a4.042 4.042 0 0 1 2.742 5.016l-2.787 9.508a3.64 3.64 0 0 0 5.239 4.218l17.667-9.657a2.022 2.022 0 0 0 .804-2.743l-6.757-15.75A13.35 13.35 0 0 0 44.2.796z" fill="#002652"/><path d="m49.13 1.786 8.492 2.519c5.922 1.736 9.315 7.943 7.579 13.865l-5.416 18.476a3.001 3.001 0 0 1-3.004 2.154l-14.445-.603a3 3 0 0 1-2.754-3.841z" fill="#002652"/><path d="m47.329 19.735-.333-.098a4.81 4.81 0 0 0-5.968 3.262l-2.607 8.893 4.355-1.174a6.143 6.143 0 0 0 4.005-3.414l1.968-4.382a2.253 2.253 0 0 0-1.42-3.087z" fill="#c78982"/><path d="M20.691 107.427a.448.448 0 0 0 .63.065l37.17-30.246c5.291-4.305 6.089-12.084 1.785-17.374l-1.173-1.442a7.706 7.706 0 0 0-10.839-1.114l-41.12 33.46z" fill="#016eea"/><path d="m110.294 117.67 16.621-2.863 4.452 9.002z" fill="#013b84"/><path d="m24.563 28.77-.638.687c-.35.376-.839.593-1.352.598l-1.765.018.632-2.233z" fill="#002652" opacity=".07"/><g fill="#c78982"><path d="m5.191 47.567-3.34 34.328 4.736-.583 11.814-1.563-2.156-27.038c.001 0-11.039-5.755-11.054-5.144zm20.191-8.677c-.891-.59-1.954-.717-2.504.022l-5.242 7.875 3.14 4.128 5.015-10.226a1.334 1.334 0 0 0-.409-1.799z"/><path d="M22.113 38.623c-.891-.59-2.651-.964-3.201-.225l-5.068 7.785 3.14 4.128 5.291-10.771c.123-.232.121-.769-.15-.911l-.012-.006z"/><path d="M18.723 37.481c-.891-.59-2.689-.89-3.24-.151l-5.029 7.711 3.14 4.128 5.291-10.771c.123-.232.121-.769-.15-.911a.067.067 0 0 0-.012-.006z"/><path d="M15.405 36.773c-.775-.584-1.815-1.059-2.393-.343l-6.199 7.75 2.767 3.943 5.894-10.454c.135-.225.182-.749-.057-.89a.027.027 0 0 1-.012-.006z"/><path d="m12.17 43.216 7.253 3.56a2.92 2.92 0 0 1 1.02 4.414l-5.317 6.848a1.213 1.213 0 0 1-1.487.348l-4.215-2.044c-3.881-1.882-5.517-6.596-3.636-10.478l.253-.522a4.601 4.601 0 0 1 6.129-2.126z"/><ellipse cx="14.949" cy="47.575" rx="6.682" ry="7.306" transform="matrix(-.8998 -.4362 .4362 -.8998 7.6481 96.9067)"/><path d="M25.511 51.123a7.83 7.83 0 0 0-1.235 1.823 6.703 6.703 0 0 1-2.352 2.649l-2.836 1.73c-1.615.981-2.823 1.725-5.406 1.154l-4.579.298-3.457-5.169a1.482 1.482 0 0 1 .623-2.174l.697-.314a7.138 7.138 0 0 0 5.746-2.528l.033-.046.039-.048 11.784-5.31-2.348 3.936-.432 1.546a.474.474 0 0 0 .193.512c.14.09.322.101.469.034.038-.017.596-.267.632-.29.735-1.233 3.82.634 2.429 2.197z"/></g><path d="M2.69 73.489.18 93.354c-.36 3.705-.334 5.02 1.574 8.216l2.01 3.367a7.88 7.88 0 0 0 7.162 3.829l7.568-.384c3.622-.184 6.145-3.671 5.186-7.169L19.351 85.43l-1.429-11.882z" fill="#016eea"/><path d="m24.891 50.264-1.298-3.424a2.271 2.271 0 0 1 1.053-2.808l.222-.119a.649.649 0 0 1 .878.266l1.763 3.297a1.223 1.223 0 0 1-.502 1.655z" fill="#c78982"/><path d="m27.322 49.344-4.376 5.404a2.051 2.051 0 0 1-3.016.188l-1.041-1 6.643-8.139 1.555 1.269c.692.565.797 1.584.235 2.278z" fill="#c78982"/><path d="m19.915 250.773-4.399-2.62c-1.213-.723-2.057-1.958-2.244-3.284-.274-1.949.927-3.602 2.818-3.878l8.342-1.216c5.272-.769 9.621-3.836 11.919-8.407l2.751-5.472 3.66 2.059c.882.496 1.337 1.523 1.057 2.387l-.801 2.472 5.018 1.97c3.399 1.334 7.004.72 9.286-1.583l3.524-3.555c.617-.623 1.795-.156 1.976.784l3.079 15.996-.434 3.765z" fill="#93c3ff"/><path d="m67.283 247.478-.523 1.583c-.942 2.848-3.552 4.665-6.7 4.665H26.587a4.15 4.15 0 0 1-1.905-.481l-7.997-4.17h27.561c.488 0 .93-.191 1.232-.531 1.516-1.71 3.736-2.668 6.188-2.668h14.375c.825 0 1.489.857 1.242 1.602z" fill="#d4e7ff"/></svg></g><g transform="translate(746.0 297.0) rotate(0.0 -72.5 104.5) scale(-0.9985606952737089 0.998270937419398)"><svg width="145.209" height="209.362" viewBox="0 0 145.209 209.362"><path d="M73.837 122.667h8.467v59.605h-8.467z" fill="#d2d3da"/><path d="M124.398 123.969H49.323c-10.238 0-18.567-8.329-18.567-18.567V87.289a9.393 9.393 0 0 0-.634-3.4L.337 6.802a5 5 0 0 1 9.328-3.604l29.784 77.087a19.354 19.354 0 0 1 1.306 7.004v18.112c0 4.724 3.843 8.567 8.567 8.567h75.075a5 5 0 0 1 .001 10.001z" fill="#bbbdc7"/><g fill="#8e91a2"><path d="M94.582 126.318a2 2 0 0 1-2-2v-2.785l7.711-26.752c.21-.729.061-1.438-.445-2.109-.847-1.127-2.478-1.826-4.255-1.826H58.741c-1.833 0-3.487.731-4.315 1.909-.491.697-.604 1.428-.337 2.172l9.667 26.928v2.297a2 2 0 0 1-4 0v-1.602l-9.432-26.271c-.702-1.954-.399-4.077.83-5.825 1.589-2.259 4.425-3.607 7.587-3.607h36.853c3.054 0 5.839 1.278 7.451 3.421 1.265 1.681 1.653 3.678 1.092 5.622l-7.555 26.209v2.221a2 2 0 0 1-2 1.998zM17.404 197.21h-4v-9.192l1.444-.417c19.866-5.745 41.316-8.722 63.756-8.846l.022 4c-21.529.119-42.117 2.902-61.223 8.276v6.179z"/><path d="M143.828 197.21h-4v-6.179c-19.107-5.374-39.695-8.157-61.224-8.276l.022-4c22.44.124 43.891 3.101 63.757 8.846l1.444.417v9.192z"/><path d="M117.183 197.21h-4v-6.442c-10.793-5.201-22.41-7.896-34.548-8.013l.038-4c13.168.126 25.753 3.147 37.405 8.979l1.105.553z"/><path d="M112.212 196.544h3.509c1.174 0 2.126.952 2.126 2.126v5.6H105.57l-.008-1.024a6.65 6.65 0 0 1 6.65-6.702zm-94.858 0h-3.509a2.126 2.126 0 0 0-2.126 2.126v5.6h12.277l.008-1.024a6.65 6.65 0 0 0-6.65-6.702zm122.219 0h3.509c1.174 0 2.126.952 2.126 2.126v5.6h-12.277l-.008-1.024a6.65 6.65 0 0 1 6.65-6.702z"/></g><circle cx="112.42" cy="203.935" fill="#838799" r="5.427"/><circle cx="139.782" cy="203.935" fill="#838799" r="5.427"/><circle cx="17.145" cy="203.935" fill="#838799" r="5.427"/></svg></g><g transform="translate(519.0 320.0) rotate(0.0 -43.5 19.0) scale(-0.9977178637369695 0.9827501487056146)"><svg width="87.199" height="38.667" viewBox="0 0 87.199 38.667"><path d="M39.878 38.667H3a3 3 0 0 1-3-3h42.878a3 3 0 0 1-3 3z" fill="#2888ff"/><path d="M73.459 38.667h-57c-1.105 0-1.716-.895-1.365-2L26.1 2c.351-1.105 1.53-2 2.635-2h57c1.105 0 1.716.895 1.365 2L76.094 36.667c-.35 1.104-1.53 2-2.635 2z" fill="#2888ff"/><path d="M50.396 24.167h-1.667c-2.209 0-3.431-1.791-2.73-4l.529-1.667c.701-2.209 3.061-4 5.27-4h1.667c2.209 0 3.431 1.791 2.73 4l-.529 1.667c-.702 2.209-3.061 4-5.27 4z" fill="#93c3ff"/></svg></g><g transform="translate(116.0 -5.0) rotate(0.0 126.5 86.0) scale(0.998078796940277 0.9971534746740409)"><svg width="253.487" height="172.491" viewBox="0 0 253.487 172.491"><g fill="#e4e4e8"><path d="M0 160.492h253.487v11.999H0z"/><path d="M13 0h1v166.491h-1zm224.988 0h1v166.491h-1z"/></g></svg></g><g transform="translate(421.0 -5.0) rotate(0.0 126.5 86.0) scale(0.998078796940277 0.9971534746740409)"><svg width="253.487" height="172.491" viewBox="0 0 253.487 172.491"><g fill="#e4e4e8"><path d="M0 160.492h253.487v11.999H0z"/><path d="M13 0h1v166.491h-1zm224.988 0h1v166.491h-1z"/></g></svg></g><g transform="translate(242.0 319.0) rotate(0.0 33.0 19.5) scale(0.9999545475205672 0.9964230965763924)"><svg width="66.003" height="39.14" viewBox="0 0 66.003 39.14"><path d="M36.144 36.415h6.404L64.773 0h-6.404z" fill="#013b84"/><g fill="#2888ff"><path d="M39.878 39.14H3a3 3 0 0 1-3-3h42.878a3 3 0 0 1-3 3z"/><path d="M65.557 4.128 46.202 35.519a3 3 0 0 1-4.128.979L64.577 0a3 3 0 0 1 .98 4.128z"/></g></svg></g><g transform="translate(109.0 262.0) rotate(0.0 79.5 120.0) scale(0.9995285242809996 0.9982530571499876)"><svg width="159.075" height="240.42" viewBox="0 0 159.075 240.42"><g fill="#ed956e"><path d="m132.425 234.336-12.293-1.446-12.268-13.904a7.945 7.945 0 0 1-1.988-5.278l.209-81.823-.095-.036c-8.99-3.433-18.862 2.25-20.419 11.746-.657 4.009-1.294 8.027-2.067 12.016-.758 3.912-1.607 7.859-1.549 11.865.083 5.721 1.489 11.369 2.351 17.004l2.815 18.38.005.031 2.35 15.348-2.977 6.642c-1.581 3.526.999 7.509 4.863 7.509h6.271s16.42 7.95 18 8c2.172.069 21.5 0 21.5 0v-.761a5.331 5.331 0 0 0-4.708-5.293zm-32.086-132.624h46.252V91.413l-31.242-4.664a37.424 37.424 0 0 0-4.95-.329H96.594v11.546a3.745 3.745 0 0 0 3.745 3.746zm49.077-14.592 2.082 3.509a2.53 2.53 0 0 0 3.177 1.033l.258-.111a.723.723 0 0 0 .378-.95l-1.472-3.418a1.807 1.807 0 0 0-2.375-.945z"/><path d="m151.695 85.665-3.291.043a7.494 7.494 0 0 0-4.79 1.813l-2.675 2.302 12.603-.135-.026-2.236a1.807 1.807 0 0 0-1.821-1.787z"/><ellipse cx="143.968" cy="91.732" rx="3.745" ry="3.298"/><path d="M143.594 91.91h13.8c.928 0 1.681-.753 1.681-1.681v-.441a1.873 1.873 0 0 0-1.873-1.873h-13.608z"/><path d="M141.839 101.712h8.515c1.446 0 2.77-.813 3.423-2.104l3.923-7.746h-15.862z"/></g><path d="M48.163 53.042h11.5V8.125c-6.351 0-11.5 5.149-11.5 11.5z" fill="#002652"/><path d="M74.776 39.095h16.667V13.21H64.329v15.439c0 5.769 4.677 10.446 10.447 10.446z" fill="#ed956e"/><path d="M72.632 70.156 61.348 56.237l8.908-22.617 7.882 3.209 6.914 2.814z" fill="#ed956e"/><path d="M95.41 14.086v6.592c0 .239-.046.477-.135.699l-.875 2.174c-.294.73-.1 1.565.485 2.091l.524.471v12.75a3.745 3.745 0 0 1-3.761 3.745l-23.658-.096.097-8.058z" fill="#ed956e"/><path d="m92.12 33.71 5.178-2.688a1.873 1.873 0 0 0 .37-3.072L92.12 23.1z" fill="#ed956e"/><path d="m83.83 42.631-2.172-.009a2 2 0 0 0-1.997 2.211l.668 6.284m14.472-29.983h-3.314c-.298 0-.584.118-.795.329l-1.068 1.068c-.708.708-.207 1.918.795 1.918h3.853m-2.199 8.982.427.835c.234.457.646.798 1.139.943l1.694.498v-2.321z" fill="#002652" opacity=".07"/><path d="M83.81.387h-.56a4.29 4.29 0 0 0-4.29 4.29v14.898h19.865v-4.173C98.825 7.109 92.102.387 83.81.387z" fill="#002652"/><path d="M81.251 19.362H58.928v-4.974C58.928 6.442 65.37 0 73.316 0h4.7a3.235 3.235 0 0 1 3.235 3.235z" fill="#002652"/><path d="M39.324 119.636 0 121.321a29.927 29.927 0 0 1 9.463-20.394l14.265-13.321a43.948 43.948 0 0 0 10.245-14.449l14.613-22.56a13.671 13.671 0 0 1 11.476-6.239h.565c7.47 0 13.526 6.056 13.526 13.526v20.948a13.09 13.09 0 0 1-7.41 11.793l-11.278 5.431z" fill="#bedbff"/><path d="m86.036 120.806-25.91-4.373-41.401-6.432-6.484-.555C5.659 108.883.005 114.074.005 120.68v4.731c0 13.84 11.219 25.059 25.059 25.059h54.333z" fill="#013b84"/><path d="m9.008 101.352 22.359 18.764L0 121.322a26.772 26.772 0 0 1 7.92-18.892zm37.124 49.038h42.333l30.667-16.667-12.427-8.369a19.998 19.998 0 0 0-8.575-3.242l-51.331-6.722zm43.5 67.5-3.134 6.991c-1.581 3.526.999 7.509 4.863 7.509h6.271s16.42 7.94 18 8c1.815.069 21.5 0 21.5 0v-.761a5.33 5.33 0 0 0-4.707-5.293l-12.293-1.446-22.046-5.438z" fill="#013b84"/><path d="M98.842 230.124H86.96l1.459 10.045h10.423z" fill="#013b84"/><path d="M75.896 36.905h-4.581a8.412 8.412 0 0 1-8.412-8.412v-6.207a3.995 3.995 0 0 0-3.995-3.995h-.995v-4.124h27.612z" fill="#002652"/><path d="M60.913 20.792a1.5 1.5 0 0 1-1.5-1.5v-12.5a1.5 1.5 0 1 1 3 0v12.5a1.5 1.5 0 0 1-1.5 1.5z" fill="#2888ff"/><path d="M79.583 30.792h3.33l-.317-6.972a4.22 4.22 0 0 0-4.215-4.028h-.242c-2.318 0-3.949 2.279-3.201 4.474l1.444 4.235a3.382 3.382 0 0 0 3.201 2.291z" fill="#ed956e"/><path d="M95.421 100.081 61.937 67.072c-3.558-3.507-7.627-14.219-4.161-17.817l.151-.284c3.729-3.871 9.83-3.41 13.333.667l31.781 36.723 3.28.028-5.481 13.962c-1.045 2.059-3.775 1.351-5.419-.27z" fill="#bedbff"/></svg></g><g transform="translate(49.0 298.0) rotate(0.0 72.5 104.5) scale(0.9985606952737089 0.998270937419398)"><svg width="145.209" height="209.362" viewBox="0 0 145.209 209.362"><path d="M73.837 122.667h8.467v59.605h-8.467z" fill="#d2d3da"/><path d="M124.398 123.969H49.323c-10.238 0-18.567-8.329-18.567-18.567V87.289a9.393 9.393 0 0 0-.634-3.4L.337 6.802a5 5 0 0 1 9.328-3.604l29.784 77.087a19.354 19.354 0 0 1 1.306 7.004v18.112c0 4.724 3.843 8.567 8.567 8.567h75.075a5 5 0 0 1 .001 10.001z" fill="#bbbdc7"/><g fill="#8e91a2"><path d="M94.582 126.318a2 2 0 0 1-2-2v-2.785l7.711-26.752c.21-.729.061-1.438-.445-2.109-.847-1.127-2.478-1.826-4.255-1.826H58.741c-1.833 0-3.487.731-4.315 1.909-.491.697-.604 1.428-.337 2.172l9.667 26.928v2.297a2 2 0 0 1-4 0v-1.602l-9.432-26.271c-.702-1.954-.399-4.077.83-5.825 1.589-2.259 4.425-3.607 7.587-3.607h36.853c3.054 0 5.839 1.278 7.451 3.421 1.265 1.681 1.653 3.678 1.092 5.622l-7.555 26.209v2.221a2 2 0 0 1-2 1.998zM17.404 197.21h-4v-9.192l1.444-.417c19.866-5.745 41.316-8.722 63.756-8.846l.022 4c-21.529.119-42.117 2.902-61.223 8.276v6.179z"/><path d="M143.828 197.21h-4v-6.179c-19.107-5.374-39.695-8.157-61.224-8.276l.022-4c22.44.124 43.891 3.101 63.757 8.846l1.444.417v9.192z"/><path d="M117.183 197.21h-4v-6.442c-10.793-5.201-22.41-7.896-34.548-8.013l.038-4c13.168.126 25.753 3.147 37.405 8.979l1.105.553z"/><path d="M112.212 196.544h3.509c1.174 0 2.126.952 2.126 2.126v5.6H105.57l-.008-1.024a6.65 6.65 0 0 1 6.65-6.702zm-94.858 0h-3.509a2.126 2.126 0 0 0-2.126 2.126v5.6h12.277l.008-1.024a6.65 6.65 0 0 0-6.65-6.702zm122.219 0h3.509c1.174 0 2.126.952 2.126 2.126v5.6h-12.277l-.008-1.024a6.65 6.65 0 0 1 6.65-6.702z"/></g><circle cx="112.42" cy="203.935" fill="#838799" r="5.427"/><circle cx="139.782" cy="203.935" fill="#838799" r="5.427"/><circle cx="17.145" cy="203.935" fill="#838799" r="5.427"/></svg></g></svg>