<svg xmlns="http://www.w3.org/2000/svg" version="1.1" viewBox="0 0 3000 2250" width="3000" height="2250">
<defs/><!--ITEM: Illustration component 1--><g transform="translate(982.5 1893.75) rotate(0.0 493.125 33.75)  scale(3.2454177498436936 3.375)"><svg width="303.89" height="20.0" viewBox="0.0 0.0 303.89 20.0"><path d="m20.03 20h263.86c11.046 0 20-8.954 20-20h-303.89c0 11.046 8.954 20 20 20z" fill="#eff0f2"/></svg></g><!--ITEM: Illustration component 2--><g transform="translate(2355.0 731.25) rotate(-21.06215013094449 255.0 210.0)  scale(2.994205332033887 2.969352044964474)"><svg width="170.329" height="141.445" viewBox="0.0 0.0 170.329 141.445"><path d="m170.329 9.577s-18.848-9.364-40.668-9.577c-.513 7.942-2.878 15.682-6.296 22.847 1.938-7.402 2.74-15.149 1.794-22.755-10.261.52-20.512 3.677-30.194 6.909 3.097 8.453 3.43 17.85 2.394 26.713-.627-8.595-2.639-17.612-7.265-24.998-13.43 4.988-24.752 11.495-37.08 22.147 6.242 9.172 10.189 19.409 8.903 30.597-.849-10.484-6.168-19.129-13.556-26.416-8.156 7.633-15.222 15.88-21.666 24.81 7.008 7.191 13.552 14.392 18.806 22.923-6.766-6.893-14.427-12.281-22.562-17.536-5.658 8.376-10.879 17.329-16.013 26.914 8.195 4.521 15.862 9.311 22.847 15.494-8.194-4.482-16.755-7.394-25.76-9.977-3.947 4.62-4.983 9.835-3.106 15.645 7.942 2.296 15.533 4.995 22.808 8.901-6.732-1.888-13.557-2.833-20.531-3.326 4.982 10.615 13.652 22.554 13.652 22.554 33.413-2.718 34.698-11.17 53.747-37.491-9.959-3.638-19.983-7.056-30.551-8.249 11.602-1.072 23.208.487 34.671 2.264l.444-.061c7.642-9.794 15.428-17.674 24.647-25.262-7.375-7.305-14.936-14.399-23.85-19.776 10.484 3.689 19.862 9.58 29.152 15.61 3.544-2.671 7.195-5.196 10.962-7.565-6.483-8.233-13.157-16.293-21.421-22.785 10.052 4.998 18.705 12.09 27.269 19.286 26.698-15.249 37.156-17.954 48.423-47.84z" fill="#e4e4e8"/></svg></g><!--ITEM: Illustration component 3--><g transform="translate(255.0 836.25) rotate(0.0 243.75 191.25)  scale(3.735059760956175 3.730615429630352)"><svg width="130.52" height="102.53" viewBox="0.0 0.0 130.52 102.53"><g fill="#eff0f2"><ellipse cx="65.26" cy="42.471" rx="6.674" ry="42.471"/><path d="m73.948 64.549c-2.682-18.419 7.662-38.129 26.178-50.847 1.681-1.154.726-3.791-1.305-3.61-7.966.711-20.803 4.225-28.467 18.591-10.022 18.786.293 36.96.293 36.96z"/><path d="m56.572 64.549c2.682-18.419-7.662-38.129-26.178-50.847-1.681-1.154-.726-3.791 1.305-3.61 7.966.711 20.803 4.225 28.467 18.591 10.022 18.786-.293 36.96-.293 36.96z"/><path d="m74.437 57.887c4.301-15.787 19.554-28.043 38.94-31.798 1.76-.341 1.915-2.801.215-3.368-6.67-2.222-18.249-3.894-29.467 4.996-14.67 11.626-12.733 29.894-12.733 29.894z"/><path d="m56.083 57.887c-4.301-15.787-19.555-28.043-38.94-31.797-1.76-.341-1.915-2.801-.215-3.368 6.67-2.222 18.249-3.894 29.467 4.996 14.669 11.625 12.732 29.892 12.732 29.892z"/><path d="m70.483 58.422c14.091-12.339 36.397-14.381 57.266-5.697 1.894.788 3.599-1.46 2.336-3.077-4.957-6.34-14.946-15.261-31.272-13.878-21.349 1.809-31.059 20.461-31.059 20.461z"/><path d="m60.037 58.422c-14.092-12.339-36.397-14.381-57.266-5.697-1.894.788-3.599-1.46-2.336-3.077 4.957-6.34 14.946-15.261 31.272-13.878 21.349 1.809 31.059 20.461 31.059 20.461z"/><path d="m42.973 49.239c-5.576 5.653-9.021 13.414-9.021 21.982 0 17.291 14.017 31.308 31.308 31.308s31.308-14.017 31.308-31.308c0-8.568-3.445-16.329-9.021-21.982z"/><path d="m65.217 46.567c15.351-2.482 31.951 5.901 42.817 21.201.986 1.389 3.177.557 2.998-1.137-.698-6.645-3.801-17.322-15.902-23.536-15.824-8.126-30.87.729-30.87.729z"/><path d="m65.303 46.567c-15.351-2.482-31.951 5.901-42.817 21.201-.986 1.389-3.177.557-2.998-1.137.698-6.645 3.801-17.322 15.902-23.536 15.824-8.126 30.87.729 30.87.729z"/><path d="m49.865 90.23h30.79v12.218h-30.79z"/></g></svg></g><!--ITEM: Illustration component 4--><g transform="translate(2373.75 836.25) rotate(8.486170233569599 255.0 210.0)  scale(2.994205332033887 2.969352044964474)"><svg width="170.329" height="141.445" viewBox="0.0 0.0 170.329 141.445"><path d="m170.329 9.577s-18.848-9.364-40.668-9.577c-.513 7.942-2.878 15.682-6.296 22.847 1.938-7.402 2.74-15.149 1.794-22.755-10.261.52-20.512 3.677-30.194 6.909 3.097 8.453 3.43 17.85 2.394 26.713-.627-8.595-2.639-17.612-7.265-24.998-13.43 4.988-24.752 11.495-37.08 22.147 6.242 9.172 10.189 19.409 8.903 30.597-.849-10.484-6.168-19.129-13.556-26.416-8.156 7.633-15.222 15.88-21.666 24.81 7.008 7.191 13.552 14.392 18.806 22.923-6.766-6.893-14.427-12.281-22.562-17.536-5.658 8.376-10.879 17.329-16.013 26.914 8.195 4.521 15.862 9.311 22.847 15.494-8.194-4.482-16.755-7.394-25.76-9.977-3.947 4.62-4.983 9.835-3.106 15.645 7.942 2.296 15.533 4.995 22.808 8.901-6.732-1.888-13.557-2.833-20.531-3.326 4.982 10.615 13.652 22.554 13.652 22.554 33.413-2.718 34.698-11.17 53.747-37.491-9.959-3.638-19.983-7.056-30.551-8.249 11.602-1.072 23.208.487 34.671 2.264l.444-.061c7.642-9.794 15.428-17.674 24.647-25.262-7.375-7.305-14.936-14.399-23.85-19.776 10.484 3.689 19.862 9.58 29.152 15.61 3.544-2.671 7.195-5.196 10.962-7.565-6.483-8.233-13.157-16.293-21.421-22.785 10.052 4.998 18.705 12.09 27.269 19.286 26.698-15.249 37.156-17.954 48.423-47.84z" fill="#e4e4e8"/></svg></g><!--ITEM: Illustration component 5--><g transform="translate(255.0 1203.75) rotate(0.0 1258.125 16.875)  scale(3.856989792868344 3.4403669724770642)"><svg width="652.387" height="9.81" viewBox="0.0 0.0 652.387 9.81"><path d="m0 0h652.387v9.81h-652.387z" fill="#002652"/></svg></g><!--ITEM: Illustration component 6--><g transform="translate(952.5 397.5) rotate(0.0 549.375 403.125)  scale(3.747978905573104 3.748396035184944)"><svg width="293.158" height="215.092" viewBox="0.0 0.0 293.158 215.092"><path d="m189.767 212.26-1.988-1.012c-7.531-3.834-12.273-11.569-12.273-20.02v-69.588h-57.854v69.588c0 8.451-4.742 16.186-12.273 20.02l-1.988 1.012c-1.403.714-.895 2.832.679 2.832h85.018c1.574 0 2.082-2.118.679-2.832z" fill="#bedbff"/><path d="m285.669 0h-278.181c-4.135 0-7.488 3.353-7.488 7.488v155.757c0 4.136 3.353 7.488 7.488 7.488h278.181c4.136 0 7.488-3.353 7.488-7.488v-155.757c.001-4.135-3.352-7.488-7.488-7.488z" fill="#a6ccf8"/><path d="m293.158 144.424h-293.158v18.821c0 4.136 3.353 7.488 7.488 7.488h278.181c4.136 0 7.488-3.353 7.488-7.488v-18.821z" fill="#d4e7ff"/><path d="m10.557 10.135h272.043v124.281h-272.043z" fill="#d4e7ff"/><path d="m149.496 163.869h-5.834c-1.647 0-2.995-1.348-2.995-2.995v-5.834c0-1.647 1.348-2.995 2.995-2.995h5.834c1.647 0 2.995 1.348 2.995 2.995v5.834c0 1.647-1.348 2.995-2.995 2.995z" fill="#f4f9ff"/><path d="m31.036 24.097h5.971v5.971h-5.971z" fill="#fff"/><path d="m43.292 23.94h33.94v5.971h-33.94z" fill="#fff"/><path d="m87.602 23.94h20.741v5.971h-20.741z" fill="#fff"/><path d="m118.399 23.94h32.368v5.971h-32.368z" fill="#fff"/><path d="m160.824 23.94h32.368v5.971h-32.368z" fill="#2888ff"/><path d="m202.934 23.94h55.309v5.971h-55.309z" fill="#fff"/><path d="m31.036 39.81h5.971v5.971h-5.971z" fill="#fff"/><path d="m43.292 39.653h20.083v5.971h-20.083z" fill="#fff"/><path d="m73.952 39.653h19.707v5.971h-19.707z" fill="#2888ff"/><path d="m102.267 39.653h48.5v5.971h-48.5z" fill="#2888ff"/><g fill="#fff"><path d="m31.036 55.523h5.971v5.971h-5.971z"/><path d="m43.292 55.366h56.689v5.971h-56.689z"/><path d="m109.713 55.366h41.055v5.971h-41.055z"/><path d="m160.824 55.366h19.753v5.971h-19.753z"/><path d="m190.111 55.366h68.132v5.971h-68.132z"/><path d="m44.036 71.236h5.971v5.971h-5.971z"/><path d="m56.292 71.079h33.94v5.971h-33.94z"/><path d="m100.602 71.079h20.741v5.971h-20.741z"/><path d="m118.399 71.079h32.368v5.971h-32.368z"/><path d="m160.824 71.079h32.368v5.971h-32.368z"/></g><path d="m202.934 71.079h29.309v5.971h-29.309z" fill="#016eea"/><path d="m44.036 86.949h5.971v5.971h-5.971z" fill="#fff"/><path d="m56.292 86.791h33.94v5.971h-33.94z" fill="#016eea"/><path d="m87.602 86.791h20.741v5.971h-20.741z" fill="#fff"/><path d="m118.399 86.791h32.368v5.971h-32.368z" fill="#fff"/><path d="m160.824 86.791h32.368v5.971h-32.368z" fill="#fff"/><path d="m31.036 102.661h5.971v5.971h-5.971z" fill="#2888ff"/><path d="m43.292 102.504h14.913v5.971h-14.913z" fill="#7eb8ff"/><path d="m66.92 102.504h41.423v5.971h-41.423z" fill="#7eb8ff"/><path d="m118.399 102.504h32.368v5.971h-32.368z" fill="#fff"/><path d="m160.824 102.504h32.368v5.971h-32.368z" fill="#fff"/><path d="m202.934 102.504h26.642v5.971h-26.642z" fill="#fff"/><path d="m31.036 118.374h5.971v5.971h-5.971z" fill="#2888ff"/><path d="m43.292 118.217h33.94v5.971h-33.94z" fill="#7eb8ff"/><path d="m87.602 118.217h20.741v5.971h-20.741z" fill="#fff"/><path d="m118.399 118.217h32.368v5.971h-32.368z" fill="#fff"/><path d="m160.824 118.217h32.368v5.971h-32.368z" fill="#fff"/><path d="m202.934 118.217h55.309v5.971h-55.309z" fill="#7eb8ff"/></svg></g><!--ITEM: Illustration component 7--><g transform="translate(2111.25 390.0) rotate(0.0 234.375 406.875)  scale(3.75 3.733500337219385)"><svg width="125.0" height="217.959" viewBox="0.0 0.0 125.0 217.959"><path d="m101.067 216.029-10.223-4.056c-4.572-1.814-7.574-6.235-7.574-11.154v-66.112h-41.539v66.112c0 4.919-3.002 9.34-7.575 11.154l-10.223 4.056c-1.025.407-.734 1.93.369 1.93h76.397c1.102 0 1.393-1.523.368-1.93z" fill="#bedbff"/><path d="m7 176c-1.654 0-3-1.346-3-3v-166c0-1.654 1.346-3 3-3h111c1.654 0 3 1.346 3 3v166c0 1.654-1.346 3-3 3z" fill="#7eb8ff"/><path d="m117 8v164h-109v-164zm1-8h-111c-3.866 0-7 3.134-7 7v166c0 3.866 3.134 7 7 7h111c3.866 0 7-3.134 7-7v-166c0-3.866-3.134-7-7-7z" fill="#a6ccf8"/><g fill="#fff"><path d="m16.964 21.129h5.971v5.971h-5.971z"/><path d="m29.22 20.972h33.378v5.971h-33.378z"/><path d="m68.805 20.972h41.055v5.971h-41.055z"/><path d="m29.964 36.842h5.971v5.971h-5.971z"/><path d="m42.22 36.684h33.94v5.971h-33.94z"/><path d="m86.53 36.684h20.741v5.971h-20.741z"/><path d="m29.964 101.196h5.971v5.971h-5.971z"/><path d="m42.22 101.038h33.94v5.971h-33.94z"/><path d="m86.53 101.038h20.741v5.971h-20.741z"/></g><path d="m16.964 68.267h5.971v5.971h-5.971z" fill="#2888ff"/><path d="m29.22 68.11h14.913v5.971h-14.913z" fill="#2888ff"/><path d="m52.848 68.11h41.423v5.971h-41.423z" fill="#2888ff"/></svg></g><!--ITEM: Illustration component 8--><g transform="translate(420.0 390.0) rotate(0.0 234.375 406.875)  scale(3.75 3.733500337219385)"><svg width="125.0" height="217.959" viewBox="0.0 0.0 125.0 217.959"><path d="m101.067 216.029-10.223-4.056c-4.572-1.814-7.574-6.235-7.574-11.154v-66.112h-41.539v66.112c0 4.919-3.002 9.34-7.575 11.154l-10.223 4.056c-1.025.407-.734 1.93.369 1.93h76.397c1.102 0 1.393-1.523.368-1.93z" fill="#bedbff"/><path d="m7 176c-1.654 0-3-1.346-3-3v-166c0-1.654 1.346-3 3-3h111c1.654 0 3 1.346 3 3v166c0 1.654-1.346 3-3 3z" fill="#7eb8ff"/><path d="m117 8v164h-109v-164zm1-8h-111c-3.866 0-7 3.134-7 7v166c0 3.866 3.134 7 7 7h111c3.866 0 7-3.134 7-7v-166c0-3.866-3.134-7-7-7z" fill="#a6ccf8"/><g fill="#fff"><path d="m17.297 21.129h5.971v5.971h-5.971z"/><path d="m29.553 20.972h33.378v5.971h-33.378z"/><path d="m69.138 20.972h41.055v5.971h-41.055z"/><path d="m17.297 117.629h5.971v5.971h-5.971z"/><path d="m29.553 117.472h33.378v5.971h-33.378z"/><path d="m69.138 117.472h41.055v5.971h-41.055z"/><path d="m30.297 36.842h5.971v5.971h-5.971z"/><path d="m42.553 36.684h33.94v5.971h-33.94z"/><path d="m86.863 36.684h20.741v5.971h-20.741z"/><path d="m30.297 52.554h5.971v5.971h-5.971z"/></g><path d="m42.553 52.397h38.819v5.971h-38.819z" fill="#016eea"/><path d="m85.79 52.397h20.741v5.971h-20.741z" fill="#fff"/><path d="m30.297 132.529h5.971v5.971h-5.971z" fill="#fff"/><path d="m42.553 132.372h33.94v5.971h-33.94z" fill="#fff"/><path d="m86.863 132.372h20.741v5.971h-20.741z" fill="#fff"/><path d="m30.297 148.242h5.971v5.971h-5.971z" fill="#fff"/><path d="m42.553 148.084h38.819v5.971h-38.819z" fill="#016eea"/><path d="m85.79 148.084h20.741v5.971h-20.741z" fill="#fff"/><path d="m17.297 68.267h5.971v5.971h-5.971z" fill="#2888ff"/><path d="m29.553 68.11h14.913v5.971h-14.913z" fill="#2888ff"/><path d="m53.182 68.11h41.423v5.971h-41.423z" fill="#2888ff"/><path d="m17.297 83.98h5.971v5.971h-5.971z" fill="#2888ff"/><path d="m29.553 83.823h33.94v5.971h-33.94z" fill="#2888ff"/><path d="m73.863 83.823h20.741v5.971h-20.741z" fill="#fff"/></svg></g><!--ITEM: Illustration component 9--><g transform="translate(1957.5 945.0) rotate(0.0 221.25 129.375)  scale(6.704240716331076 6.610884006131834)"><svg width="66.003" height="39.14" viewBox="0.0 0.0 66.003 39.14"><path d="m36.144 36.415h6.404l22.225-36.415h-6.404z" fill="#013b84"/><g fill="#2888ff"><path d="m39.878 39.14h-36.878c-1.657 0-3-1.343-3-3h42.878c0 1.657-1.343 3-3 3z"/><path d="m65.557 4.128-19.355 31.391c-.87 1.41-2.718 1.849-4.128.979l22.503-36.498c1.411.87 1.849 2.718.98 4.128z"/></g></svg></g><!--ITEM: Illustration component 10--><g transform="translate(2227.5 1357.5) rotate(0.0 116.25 301.875)  scale(3.690651935806467 3.727035903007556)"><svg width="62.997" height="161.992" viewBox="0.0 0.0 62.997 161.992"><path d="m0 0h62.997v161.992h-62.997z" fill="#eff0f2"/><g fill="#d2d3da"><path d="m12.341 12.199h38.314v4h-38.314z"/><path d="m12.341 22.689h38.314v4h-38.314z"/><path d="m12.341 33.18h38.314v4h-38.314z"/><path d="m12.341 43.671h38.314v4h-38.314z"/><circle cx="31.498" cy="135.527" r="6.842"/></g></svg></g><!--ITEM: Illustration component 11--><g transform="translate(1125.0 622.5) rotate(0.0 435.0 650.625)  scale(3.7489658025372314 3.7397077208259693)"><svg width="232.064" height="347.955" viewBox="0.0 0.0 232.064 347.955"><path d="m48.819 235.642 6.675 42.589 6.516 41.782 1.633 6.654s13.4-5.373 15.332-5.197c1.093.093 2.128.187 3.067.271 2.409.214 4.15.378 4.374.411l-.007-.696-.019-1.973-.135-15.502-.155-17.387 6.571-58.443-1.325-44.21-35.978-2.676-6.714 46.56c-.373 2.597-.316 5.237.165 7.817z" fill="#016eea"/><path d="m40.329 191.122c.824 12.689 11.25 22.62 23.964 22.825 2.617.042 5.225-.317 7.733-1.067l48.01-14.338-.038-18.665c-.014-7.045-5.725-12.753-12.771-12.762l-68.463-.093z" fill="#016eea"/><path d="m70.629 213.584 22.506.363c2.617.042 21.615-.317 24.123-1.067l38.049 1.408-.687-18.134c-.604-10.04-6.756-18.904-15.947-22.989-6.545-2.909-12.829-5.745-13.144-6.051l-57.921-.093z" fill="#016eea"/><path d="m70.603 41.319 26.454 1.996-3.95 52.362c-.096 1.271-1.681 1.79-2.51.822l-22.201-25.922z" fill="#99644c"/><path d="m75.564 24.755c-.949-7.427 7.958-14.685 19.895-16.211 10.183-1.301 19.282 1.989 22.325 7.596.788 1.452-.179 3.242-1.818 3.452z" fill="#002652"/><path d="m75.857 14.042c-.808-6.323 6.775-12.502 16.937-13.801 8.669-1.108 16.415 1.694 19.006 6.466.671 1.236-.153 2.76-1.548 2.939z" fill="#002652"/><path d="m105.38 25.613 3.729 27.887c.339 3.311-2.647 5.991-5.902 5.298l-30.187-6.429z" fill="#99644c"/><path d="m105.272 42.861 4.927-.75c2.053-.313 2.75-2.92 1.127-4.215l-7.099-5.669z" fill="#99644c"/><path d="m92.566 27.837h14.24v18.102h-14.24z" fill="#c78982" transform="matrix(-.9948 .1019 -.1019 -.9948 202.6116 63.4296)"/><path d="m80.369 7.577-6.685.854c-7.306.934-12.472 7.613-11.538 14.919l4.227 33.072 42.521-5.434-3.028-23.694c-1.597-12.485-13.012-21.313-25.497-19.717z" fill="#99644c"/><path d="m106.001 30.763-3.236.414c-.376.048-.717.243-.949.543l-1.175 1.519c-.779 1.007.049 2.453 1.311 2.292l4.695-.6" fill="#1d2445" opacity=".1"/><path d="m89.076 37.944.64 5.01c.59 4.619 3.873 8.444 8.349 9.728-.463-3.623 2.099-6.936 5.722-7.399l4.306-.55 1.167 9.133c.426 3.329-2.634 6.043-5.889 5.222l-12.899-3.252c-1.899-.479-3.312-2.072-3.56-4.015l-2.205-17.257c2.139-.273 4.096 1.24 4.369 3.38z" fill="#002652"/><path d="m104.104 52.842 3.35.335c.891.089 1.633-.674 1.519-1.562l-.503-3.934-3.118.398c-1.67.213-2.851 1.74-2.637 3.41.091.72.667 1.28 1.389 1.353z" fill="#99644c"/><path d="m69.68 52.714 11.099 3.324-5.682-44.461c-.333-2.609-2.719-4.454-5.328-4.121l-2.125.272c-10.125 1.294-16.72 11.301-13.916 21.115l3.101 10.853c1.784 6.247 6.628 11.153 12.851 13.018z" fill="#002652"/><path d="m79.095 33.658 20.946-2.677.029-3.525-21.418 2.737z" fill="#80b6f4"/><path d="m65.554 14.055 16.535-2.113 5.114 40.017c.258 2.021-1.17 3.868-3.191 4.126l-12.877 1.646z" fill="#002652"/><path d="m76.009 9.573 19.469-2.488 1.419 11.102c.667 5.219-3.023 9.99-8.242 10.657l-10.02 1.281z" fill="#002652"/><path d="m100.464 28.695.013-.002 4.58-.585c.041-.005.078.005.111.03s.052.059.057.1l.877 6.862c.011.086-.05.151-.129.168h-.001l-4.58.585c-.041.005-.078-.005-.111-.03s-.052-.059-.057-.1l-.877-6.862c-.01-.086.051-.152.117-.166m-.261-1.252c-.722.151-1.219.835-1.123 1.579l.877 6.862c.1.783.816 1.336 1.598 1.236l4.58-.585c.038-.005.076-.011.113-.019.722-.151 1.219-.835 1.123-1.58l-.877-6.862c-.1-.783-.816-1.336-1.598-1.236l-4.58.585c-.039.006-.076.013-.113.02z" fill="#80b6f4"/><path d="m71.344 36.818c-.949-7.427-11.396-12.212-23.332-10.686-10.183 1.301-18.162 6.775-19.697 12.966-.397 1.603.989 3.093 2.627 2.884z" fill="#002652"/><path d="m80.583 45.24c-.883-6.906-10.595-11.354-21.693-9.935-9.468 1.21-16.886 6.299-18.313 12.055-.37 1.49.92 2.876 2.443 2.681z" fill="#002652"/><path d="m76.098 51.576c5.76-.736 6.537-8.72 1.045-10.607-2.991-1.027-6.504-1.403-10.178-.934-8.231 1.052-14.611 6.008-15.76 11.729-.298 1.481.849 2.885 2.173 2.716z" fill="#002652"/><path d="m79.758 56.667c4.244-.542 4.816-6.424.77-7.814-2.203-.757-4.791-1.034-7.498-.688-6.064.775-10.764 4.426-11.611 8.641-.219 1.091.625 2.125 1.601 2.001z" fill="#002652"/><path d="m75.443 23.809c-.949-7.427-11.396-12.212-23.332-10.686-10.183 1.301-18.162 6.775-19.697 12.966-.397 1.603.989 3.093 2.627 2.884z" fill="#002652"/><path d="m92.722 12.478c-.949-7.428-11.396-12.212-23.333-10.687-10.183 1.302-18.161 6.775-19.696 12.966-.397 1.603.989 3.093 2.627 2.884z" fill="#002652"/><path d="m139.374 118.029h-128.969l11.375-36.262c3.572-11.387 14.543-18.79 26.439-17.84l67.915 5.42c13.424 1.072 23.717 12.368 23.54 25.834z" fill="#2888ff"/><path d="m130.13 148.493-19.187-51.599 25.992-9.276 17.809 45.146c3.554 9.01-1.05 19.175-10.167 22.445-5.842 2.097-12.283-.898-14.447-6.716z" fill="#2888ff"/><path d="m26.79 149.737 15.575-35.373-25.505-11.229-15.687 35.627c-3.07 6.972.093 15.115 7.067 18.184 7.113 3.131 15.418-.096 18.55-7.209z" fill="#2888ff"/><path d="m157.314 233.343-.985 42.072-1.161 41.714-2.523.903s-3.814.711-8.234 1.537c-1.948.367-4.016.752-5.921 1.117-1.079.2-2.099.395-3.026.572-2.377.45-4.092.784-4.312.839l-.061-.693-.175-1.965-1.389-15.441-12.615-69.091c-.815-3.816-1.191-7.712-1.12-11.614l.697-38.456 15.272-2.889c9.22-1.744 19.961 6.483 22.207 15.594l2.741 28.005c.626 2.549.83 5.182.605 7.796z" fill="#016eea"/><path d="m132.557 346.662h21.229c1.196 0 2.26-.652 2.645-1.624l2.148-5.42h-30.815l2.148 5.42c.385.971 1.449 1.624 2.645 1.624z" fill="#93c3ff"/><path d="m128.023 340.059h30.816l1.656-7.616c.477-2.191.169-4.478-.868-6.466l-4.14-7.93h-25.07l-3.322 8.555c-.953 2.454-1.125 5.142-.494 7.699z" fill="#bedbff"/><path d="m97.779 119.179c.4 1.124-.115 2.521-1.336 3.336l-19.475 10.874-6.004-4.247 25.79-10.329c.377-.185.833-.029 1.018.349.002.006.005.011.007.017z" fill="#ed956e"/><path d="m96.439 123.215c.588 1.038.321 2.503-.741 3.516l-17.31 14.067-6.646-3.148 23.624-14.619c.34-.247.816-.172 1.063.168.003.005.006.01.01.016z" fill="#ed956e"/><path d="m94.699 127.376c.557 1.055.247 2.511-.845 3.493l-17.717 13.551-6.551-3.343 24.044-13.917c.347-.237.82-.148 1.057.199.005.007.009.012.012.017z" fill="#ed956e"/><path d="m90.302 134.426c.557 1.055.247 2.511-.845 3.493l-13.077 10.002c-2.835 2.168-6.663 2.516-9.842.894l-1.348-.688 24.044-13.917c.347-.237.82-.148 1.057.199.004.006.008.011.011.017z" fill="#ed956e"/><path d="m74.264 149.109-1.084-11.681c-1.458-3.762-5.73-5.648-9.492-4.19l-5.721 2.218c-3.762 1.458-10.281 8.944-8.822 12.706l13.606 2.862c1.634.344 3.326.296 4.938-.14z" fill="#ed956e"/><path d="m54.194 139.081 18.355-7.114-1.426.469c-.137.043-.277.078-.422.099-1.483.233-2.875-.781-3.113-2.262l-.023-.046c-.143-.929.158-1.383.764-2.103l2.92-3.432c.746-.858 1.249-1.909 1.448-3.03.112-.771.05-2.038-.193-2.666-.13-.336-.318-.629-.582-.863-.037-.03-.073-.061-.112-.085-.5-.321-1.167-.176-1.487.324l-8.575 10.889-2.567 2.083c-1.581 1.271-2.834 2.9-3.66 4.753l-1.233 2.793c-.028.067-.059.128-.094.191z" fill="#ed956e"/><path d="m72.949 148.869c6.018-2.333 9.148-8.737 6.991-14.304-.174-.448-.377-.878-.606-1.287-.04-.071-.049-.246-.121-.21-.438.216-.948-.374-.447-.688.099-.062-.137-.189-.207-.282-1.201-1.576-2.837-2.761-4.7-3.472-.288-.11-.586-.4-.878-.295-3.862 1.383-5.312.682-4.454-.422.133-.172-.433.045-.65.077-.916.133-1.836.372-2.742.723-6.018 2.333-9.148 8.737-6.991 14.304 2.159 5.566 8.787 8.188 14.805 5.856z" fill="#ed956e"/><path d="m57.129 133.214-51.416-1.941-1.593 18.051c-.447 2.178.924 5.256 3.87 7.22l4.101 1.56c4.159 1.213 13.021.337 17.15-.793l28.646-7.506z" fill="#2888ff"/><g fill="#99644c"><path d="m231.931 119.179c.4 1.124-.115 2.521-1.336 3.336l-19.475 10.874-6.004-4.247 25.79-10.329c.377-.185.833-.029 1.018.349.001.006.004.011.007.017z"/><path d="m230.59 123.215c.588 1.038.321 2.503-.741 3.516l-17.31 14.067-6.646-3.148 23.624-14.619c.34-.247.816-.172 1.063.168.003.005.007.01.01.016z"/><path d="m228.85 127.376c.557 1.055.247 2.511-.845 3.493l-17.717 13.551-6.551-3.343 24.044-13.917c.347-.237.82-.148 1.057.199.005.007.009.012.012.017z"/><path d="m224.454 134.426c.557 1.055.247 2.511-.845 3.493l-13.077 10.003c-2.835 2.168-6.663 2.516-9.842.894l-1.348-.688 24.044-13.917c.347-.237.82-.148 1.057.199.003.005.007.01.011.016z"/><path d="m208.415 149.109-1.084-11.681c-1.458-3.762-5.73-5.648-9.492-4.19l-5.721 2.218c-3.762 1.458-10.281 8.944-8.822 12.706l13.606 2.862c1.634.344 3.326.296 4.938-.14z"/><path d="m188.345 139.081 18.355-7.114-1.426.469c-.137.043-.277.078-.422.099-1.483.233-2.875-.781-3.113-2.262l-.023-.046c-.143-.929.158-1.383.764-2.103l2.92-3.432c.746-.858 1.249-1.909 1.448-3.03.112-.771.05-2.038-.193-2.666-.13-.336-.318-.629-.582-.863-.037-.03-.073-.061-.112-.085-.5-.321-1.167-.176-1.487.324l-8.575 10.889-2.567 2.083c-1.581 1.271-2.834 2.9-3.66 4.753l-1.233 2.793c-.028.067-.059.128-.094.191z"/><path d="m207.101 148.869c6.018-2.333 9.148-8.737 6.991-14.304-.174-.448-.377-.878-.606-1.287-.04-.071-.049-.246-.121-.21-.438.216-.948-.374-.447-.688.099-.062-.137-.189-.207-.282-1.201-1.576-2.837-2.761-4.7-3.472-.288-.11-.586-.4-.878-.295-3.862 1.383-5.312.682-4.454-.422.133-.172-.433.045-.65.077-.916.133-1.836.372-2.742.723-6.018 2.333-9.148 8.737-6.991 14.304s8.786 8.188 14.805 5.856z"/></g><path d="m191.28 133.214-51.416-1.941-5.668 18.629c-.447 2.178 1.267 4.382 4.121 5.704 3.272 1.516 12.39 2.555 12.39 2.555 4.242.568 8.556.279 12.684-.85l28.646-7.506z" fill="#2888ff"/><path d="m127.195 74.301h-89.07v111.578l51.986-.483 15.316-1.124c5.868-.431 11.304-3.244 15.045-7.785l6.723-8.161z" fill="#2888ff"/><path d="m126.977 141.035-9.378-28.561v28.677c0 3.418 4.132 5.13 6.549 2.713z" fill="#002652" opacity=".07"/><path d="m64.02 54.434h30c1.486 0 2.691 1.205 2.691 2.691v11.244c0 1.486-1.205 2.691-2.691 2.691h-30c-1.486 0-2.691-1.205-2.691-2.691v-11.244c.001-1.486 1.205-2.691 2.691-2.691z" fill="#2888ff"/><path d="m85.203 347.955h-21.229c-1.196 0-2.26-.652-2.645-1.624l-2.148-5.42h30.815l-2.148 5.42c-.386.971-1.45 1.624-2.645 1.624z" fill="#93c3ff"/><path d="m89.736 341.352h-30.816l-1.656-7.615c-.477-2.191-.169-4.479.868-6.466l4.14-7.93h25.07l3.322 8.555c.953 2.454 1.125 5.142.494 7.699z" fill="#bedbff"/><path d="m115.602 213.101h18.994c2.279 0 3.42 2.755 1.809 4.366l-18.566 18.566z" fill="#002652" opacity=".2"/></svg></g><!--ITEM: Illustration component 12--><g transform="translate(1151.25 922.5) rotate(0.0 238.125 504.375)  scale(3.721837122248185 3.7451688713815265)"><svg width="127.961" height="269.347" viewBox="0.0 0.0 127.961 269.347"><path d="m58.643 141.129h10.675v92.803h-10.675z" fill="#013b84"/><path d="m5.955 254.025h-5.043v-11.432l1.628-.618c19.195-7.284 39.926-11.059 61.616-11.217l.037 5.043c-20.477.15-40.06 3.608-58.236 10.282v7.942z" fill="#002652"/><path d="m127.434 254.025h-5.043v-7.943c-18.177-6.673-37.76-10.132-58.237-10.282l.037-5.043c21.691.159 42.421 3.934 61.616 11.217l1.628.618v11.433z" fill="#002652"/><path d="m7.106 253.186h-4.426c-1.48 0-2.68 1.2-2.68 2.68v7.061h15.479l.01-1.291c.037-4.658-3.728-8.45-8.383-8.45z" fill="#013b84"/><path d="m120.855 253.186h4.424c1.48 0 2.68 1.2 2.68 2.68v7.061h-15.479l-.01-1.291c-.035-4.658 3.729-8.45 8.385-8.45z" fill="#013b84"/><g fill="#002652"><circle cx="121.118" cy="262.504" r="6.842"/><circle cx="6.842" cy="262.504" r="6.842"/><path d="m87.35 13.721-2.278-7.192c-1.224-3.865-5.142-6.529-9.6-6.529h-22.97c-4.458 0-8.376 2.664-9.6 6.529l-2.278 7.192c-1.224 3.864-5.142 6.529-9.6 6.529h-.013c-5.128 0-9.249 3.808-9.123 8.429l1.105 40.382 12.51 69.287h56.967l12.414-68.469 1.188-41.189c.133-4.625-3.99-8.44-9.122-8.44-4.458-0-8.376-2.664-9.6-6.529z"/><path d="m107.486 132.152h-87.011c-5.77 0-10.448 4.678-10.448 10.448v1.803h107.907v-1.803c0-5.771-4.678-10.448-10.448-10.448z"/></g></svg></g><!--ITEM: Illustration component 13--><g transform="translate(315.0 1290.0) rotate(0.0 326.25 335.625)  scale(3.738505170882631 3.749225020526483)"><svg width="174.535" height="179.037" viewBox="0.0 0.0 174.535 179.037"><g fill="#eff0f2"><path d="m108.487 179.037h-36l-11-62h58z"/><path d="m88.517 140.817s-.44-1.395-1.109-3.852c-.67-2.457-1.591-5.972-2.558-10.212-.244-1.06-.498-2.164-.761-3.306-.272-1.2-.477-2.348-.724-3.586-.409-2.544-.796-5.203-.949-7.98-.183-2.775-.24-5.658-.084-8.581.117-2.925.435-5.888.909-8.824.476-2.936 1.108-5.849 1.919-8.661.768-2.824 1.742-5.54 2.784-8.117 1.057-2.607 2.153-4.918 3.183-7.206.262-.565.52-1.122.774-1.671.127-.274.253-.547.378-.817l.094-.202.037-.085.013-.025.025-.049.051-.098.206-.39c.651-1.215 1.454-2.246 2.328-3.097 1.752-1.727 3.826-2.694 5.688-3.122 1.859-.457 3.587-.29 4.801-.129 2.531.279 3.978.497 3.978.497s-1.446.218-3.978.497c-1.306.11-2.705.316-4.216.956-1.484.647-2.975 1.731-4.145 3.227-.582.755-1.063 1.616-1.396 2.522-.09.256-.18.514-.272.775-.094.282-.189.567-.285.854-.192.574-.386 1.156-.583 1.746-.802 2.338-1.648 4.804-2.523 7.354-.827 2.512-1.598 5.13-2.255 7.821-.662 2.688-1.25 5.44-1.673 8.219-.475 2.77-.791 5.566-1.009 8.326-.12 1.38-.177 2.753-.253 4.11-.031 1.357-.087 2.701-.078 4.024-.029 2.648.113 5.211.244 7.608.211 2.471.41 4.807.594 6.964.386 4.332.593 7.96.713 10.504.121 2.544.132 4.006.132 4.006z"/><path d="m92.524 139.46s.168-2.194.561-6.017c.201-1.91.43-4.233.753-6.886.313-2.647.666-5.634 1.051-8.892.088-.816.178-1.649.27-2.498.063-.837.126-1.689.191-2.556.159-1.721.209-3.541.32-5.386.091-3.708.105-7.612-.122-11.639-.238-4.024-.577-8.174-1.22-12.352-.641-4.174-1.41-8.399-2.472-12.556-1.038-4.161-2.279-8.27-3.677-12.258-1.44-3.933-3.035-7.908-4.503-11.738-1.486-3.829-2.861-7.555-4.176-11.084-1.331-3.522-2.532-6.877-3.634-9.975-.558-1.525-1.058-3.14-1.663-4.178-.65-1.196-1.48-2.227-2.389-3.068-1.826-1.693-3.923-2.602-5.713-3.028-1.807-.41-3.307-.343-4.343-.326-1.031.008-1.581.012-1.581.012s.54-.104 1.552-.298c.996-.171 2.526-.548 4.523-.371 1.968.181 4.446.811 6.769 2.527 1.16.842 2.278 1.929 3.226 3.266 1.045 1.478 1.542 2.883 2.273 4.373 1.395 2.978 2.9 6.207 4.431 9.648 1.547 3.434 3.19 7.05 4.825 10.818 1.637 3.773 3.357 7.612 4.954 11.751 1.564 4.113 2.868 8.396 3.976 12.727 1.078 4.34 1.866 8.749 2.42 13.111.125 1.092.25 2.18.374 3.263.08 1.087.16 2.168.239 3.242.095 1.073.114 2.144.159 3.206.037 1.062.086 2.115.068 3.162.072 4.184-.244 8.221-.588 12.026-.413 3.774-.962 7.441-1.667 10.627-.644 3.273-1.391 6.162-2 8.776-.606 2.603-1.188 4.864-1.653 6.727-.94 3.725-1.534 5.844-1.534 5.844z"/><path d="m104.074 49.863c-13.321 10.893 6.733 19.441 16.123 20.716 10.068 1.367 21.468 2.268 31.487-.546 10.669-2.996 22.549-12.261 22.849-23.369-2.415 2.23-3.354 1.788-8.534 2.81-4.537.895-9.605-.283-13.715-1.679-3.504-1.19-7.412-3.287-11.097-4.526-4.35-1.463-26.347-2.21-37.113 6.594z"/><path d="m70.46 5.576c13.321 12.558-6.733 22.412-16.123 23.881-10.068 1.575-21.468 2.615-31.487-.629-10.669-3.454-22.549-14.134-22.85-26.94 18.308 6.077 33.874 3.129 37.559 1.701 4.351-1.685 22.136-8.161 32.901 1.987z"/></g></svg></g><!--ITEM: Illustration component 14--><g transform="translate(840.0 1151.25) rotate(0.0 82.5 131.25)  scale(3.6660963850067767 3.635431958563)"><svg width="45.007" height="72.206" viewBox="0.0 0.0 45.007 72.206"><g fill="#013b84"><path d="m16.269 0h-.912c-8.481 0-15.357 6.876-15.357 15.357v1.775h31.626v-1.775c0-8.481-6.875-15.357-15.357-15.357z"/><path d="m35.663 72.186c-4.642-.312-8.145-4.381-8.145-9.034v-48.742h2v48.818c0 3.428 2.458 6.486 5.858 6.921 4.113.527 7.631-2.677 7.631-6.688v-46.608c0-.552.448-1 1-1 .552 0 1 .448 1 1v46.608c0 5.021-4.252 9.067-9.344 8.725z"/></g></svg></g></svg>