<svg xmlns="http://www.w3.org/2000/svg" viewBox="0 0 1600 1200" width="1600" height="1200"><g transform="translate(124.0 127.0) rotate(0.0 220.5 220.5) scale(1.3919707591448691 1.3904303082278162)"><svg width="316.817" height="317.168" viewBox="0 0 316.817 317.168"><path d="M12.5 12.5h291.817v304.668H12.5z" fill="#fbfbfb"/><path d="M316.817 317.168h-17V17H17v300.168H0V0h316.817z" fill="#e4e4e8"/></svg></g><g transform="translate(124.0 565.0) rotate(0.0 220.5 220.5) translate(0.0 0.0) scale(1.3919707591448691 1.3904303082278162)"><svg width="316.817" height="15.103" viewBox="0 0 316.817 15.103"><path d="M12.5 12.5h291.817v304.668H12.5z" fill="#fbfbfb"/><path d="M316.817 317.168h-17V17H17v300.168H0V0h316.817z" fill="#e4e4e8"/></svg></g><g transform="translate(29.0 185.0) rotate(0.0 268.0 475.0) translate(0.0 0.0) scale(2.6241065308920004 2.6233528105773587)"><svg width="203.498" height="145.234" viewBox="0 0 203.498 145.234"><path d="m95.663 278.942-4.041 35.448-1.378 12.076-.754 6.596-.222 1.952-.718 6.309-.356 3.112-.543 4.733-.029.271 6.998.194c1.656.048 3.412.097 5.03.149.917.024 1.783.053 2.571.077 2.019.061 3.475.113 3.659.129l.172-.586.489-1.661 3.852-13.058 4.318-14.646 16.937-42.568a29.994 29.994 0 0 0 1.633-5.679l7.003-38.185-26.938-.812-15.823 39.571c-.986 2.205-1.614 4.428-1.86 6.578zm-26.018-2.622-22.419 35.448-7.636 12.076-4.17 6.596-1.235 1.952-3.991 6.309-1.967 3.112-2.99 4.733-.173.271-7.143.194c-1.692.048-3.485.097-5.142.149-.935.024-1.823.053-2.628.077-2.064.061-3.56.113-3.756.129l.266-.586.751-1.661 5.896-13.058 6.615-14.646 13.875-46.797a29.989 29.989 0 0 1 3.22-7.207l19.977-32.429 27.544-.812-11.842 39.57c-.661 2.207-1.693 4.43-3.052 6.58z" fill="#013b84"/><g fill="#ed956e"><path d="m174.073 126.587-36.88-11.638-10.671 13.972 14.785 8.634 26.492-.386zm30.17 8.59c-.314.964-1.385 1.636-2.63 1.552l-18.745-2.785-1.838-5.972 22.712 6.426c.35.071.575.413.504.762l-.003.017z"/><path d="M201.248 137.197c-.143 1.004-1.082 1.851-2.323 1.982l-18.945.488-2.839-5.566 23.48 2.416c.357.01.638.307.628.664l-.001.016z"/><path d="M197.918 139.095c-.172.999-1.136 1.818-2.38 1.912l-18.951-.071-2.674-5.647 23.398 3.107a.646.646 0 0 1 .608.682l-.001.017z"/><path d="M191.303 141.558c-.172.999-1.137 1.818-2.38 1.912l-13.988-.052a7.871 7.871 0 0 1-7.086-4.504l-.55-1.162 23.398 3.107a.646.646 0 0 1 .608.682l-.002.017z"/><path d="m172.895 143.119 5.33-8.422c.97-3.288-.926-6.772-4.214-7.743l-5-1.476c-3.288-.97-11.557.686-12.527 3.974l7.671 8.983a9.002 9.002 0 0 0 3.395 2.468z"/><path d="m163.494 126.404 15.168 4.476-1.137-.401a2.19 2.19 0 0 1-1.188-3.11l.008-.04c.365-.661 1-1.135 1.739-1.295l3.541-.752a5.059 5.059 0 0 0 2.407-1.218c.449-.435.811-.939.964-1.458.082-.277.106-.556.053-.835a.865.865 0 0 0-1.135-.632l-10.796 2.723-2.655.067a10.248 10.248 0 0 0-4.66 1.229l-2.155 1.173c-.051.026-.101.05-.154.073z"/><path d="m164.591 125.961 16.041 4.734-1.203-.424a2.317 2.317 0 0 1-1.257-3.289l.008-.042a2.777 2.777 0 0 1 1.839-1.37l3.745-.795a5.355 5.355 0 0 0 2.546-1.288c.475-.461.857-.994 1.019-1.542.087-.293.112-.588.056-.883-.009-.039-.018-.079-.031-.115a.914.914 0 0 0-1.169-.553l-11.418 2.879-2.808.07a10.833 10.833 0 0 0-4.928 1.3l-2.279 1.24a1.997 1.997 0 0 1-.161.078z"/><ellipse cx="174.734" cy="133.466" rx="9.185" ry="9.93" transform="matrix(-.283 .9591 -.9591 -.283 352.198 3.6512)"/></g><path d="M108.464 14.992H134c0-6.585-4.68-12.241-11.149-13.473l-6.5-1.238c-4.095-.78-7.888 2.359-7.888 6.527v8.184z" fill="#002652"/><path d="m150.754 142.639 3.053 14.512c.821 3.901.856 7.927.103 11.842l-15.524 80.711c-1.195 6.214-7.661 9.89-13.611 7.734-7.664-2.777-16.389-6.006-16.364-6.301l3.82-107.386z" fill="#013b84"/><path d="m133.637 142.639 1.117 14.992-13.415 17.663-45.176 82.288s-30.987-5.918-30.785-6.444l41.551-107.386z" fill="#013b84"/><path d="m151.067 145.321-71.805 18.497-1.118-53.608-9.33-27.655a9.998 9.998 0 0 1-.524-3.081l-.165-14.313 66.419 14.718z" fill="#016eea"/><path d="m113.015 325.785-2.622 8.899-3.854 13.056-.487 1.663-.172.584c-.184-.015-1.64-.067-3.659-.127-.79-.026-1.655-.052-2.573-.079-1.618-.052-3.374-.101-5.03-.15-3.756-.105-6.996-.191-6.996-.191l.026-.273.543-4.73.356-3.112.719-6.311.225-1.951.753-6.595.079-.682h22.692zm-77.596 4.656-1.232 1.951-3.992 6.311-1.966 3.112-2.992 4.73-.172.273s-3.307.086-7.142.191c-1.693.049-3.483.097-5.142.15-.933.026-1.82.052-2.629.079-2.064.06-3.558.112-3.753.127l.262-.584.753-1.663 5.895-13.056 2.835-6.277z" fill="#ed956e"/><path d="M120.159 9.121v5.776h5.148v19.322h1.931l9.397-14.456-4.256-10.944z" fill="#002652"/><path d="m131.297 356.377 4.399-2.62c1.213-.723 2.057-1.958 2.244-3.284.274-1.949-.927-3.602-2.818-3.877l-8.342-1.216c-5.272-.769-9.621-3.836-11.919-8.406l-2.751-5.471-3.659 2.059c-.882.496-1.337 1.523-1.057 2.387l.801 2.472-5.018 1.97c-3.399 1.334-7.004.72-9.286-1.583l-3.524-3.555c-.617-.623-1.795-.156-1.976.784l-3.079 15.995.434 3.765z" fill="#2888ff"/><path d="m83.931 353.082.523 1.583c.942 2.848 3.552 4.665 6.7 4.665h33.471c.643 0 1.299-.166 1.904-.481l7.996-4.17h-27.56c-.488 0-.93-.191-1.232-.531-1.516-1.71-3.736-2.667-6.188-2.667H85.173c-.824-.001-1.488.856-1.242 1.601z" fill="#93c3ff"/><path d="m130.478 16.57.129 22.123c-.066 2.616-2.662 4.409-5.131 3.544l-22.903-8.023z" fill="#c78982"/><path d="m128.675 30.012 3.917-.094c1.632-.039 2.436-2.003 1.299-3.175l-4.972-5.129z" fill="#ed956e"/><path d="m117.527 2.783-.504-.013a3.858 3.858 0 0 0-3.953 3.759l-.336 13.391 17.856.448.094-3.751c.187-7.453-5.704-13.647-13.157-13.834z" fill="#c78982"/><path d="m144.765 82.302-3.517-16.625a11.233 11.233 0 0 0-8.14-8.542l-51.06-13.403c-7.174-1.883-14.173 3.579-14.087 10.996l.281 24.423 15.447 7.127zm10.801 61.007-46.221-14.244c-6.518-2.009-10.174-8.921-8.165-15.439l.547-1.776a7.704 7.704 0 0 1 9.631-5.094l50.661 15.612z" fill="#016eea"/><path d="M96.953 24.001h20.86V65.29c0 1.002-1.212 1.503-1.919.793l-18.941-19.01z" fill="#ed956e"/><path d="m130.33 32.047-11.193-.28.357-14.23 11.194.282z" fill="#c78982"/><path d="M112.768.009h-5.3c-5.791 0-10.486 4.695-10.486 10.486v26.216h33.706V17.93c.001-9.898-8.023-17.921-17.92-17.921z" fill="#ed956e"/><path d="m133.056 118.61-10.963-35.342 20.836-6.783 10.963 35.342z" fill="#016eea"/><path d="M130.449 20.648h-2.565a1.12 1.12 0 0 0-.794.329l-1.068 1.068c-.708.708-.207 1.918.794 1.918h3.104" fill="#002652" opacity=".1"/><path d="M116.533 24.562v3.971a9.167 9.167 0 0 0 5.542 8.42 5.2 5.2 0 0 1 5.201-5.201h3.413v10.642c0 2.639-2.657 4.451-5.114 3.486l-9.737-3.822a3.745 3.745 0 0 1-2.377-3.486V21.491a3.071 3.071 0 0 1 3.072 3.071z" fill="#002652"/><path d="m126.769 37.68 2.579.595a1.095 1.095 0 0 0 1.341-1.067V34.09h-2.472a2.397 2.397 0 0 0-2.397 2.397c0 .57.393 1.064.949 1.193zm13.626 113.77 13.258 3.852-.257-10.417-9.347.284z" fill="#ed956e"/><path d="m148.312 142.013-8.372 6.47a2.066 2.066 0 0 0-.763 1.238l-.488 2.524c-.071.37-.243.713-.496.992l-3.825 4.221a.412.412 0 0 0 .029.582l.787.713a2.508 2.508 0 0 0 3.31.05l3.179-2.71c.376-.32.663-.732.834-1.196l1.328-3.6 7.056-5.399z" fill="#ed956e"/><path d="M.076 356.966h24.107l1.329-3.707a18.722 18.722 0 0 0 .851-9.355l-.683-4.157-9.776-5.51-9.837 5.51-4.916 7.773a7.442 7.442 0 0 0-1.152 4.082z" fill="#2888ff"/><path d="M3.998 362.132h16.608c.936 0 1.767-.511 2.068-1.27l1.681-4.24H.248l1.681 4.24c.301.759 1.133 1.27 2.069 1.27z" fill="#93c3ff"/><path d="M12.381 332.111h10.03c1.034 0 1.704.838 1.496 1.873l-1.946 9.686c-.208 1.034-1.215 1.873-2.249 1.873H9.682c-1.034 0-1.704-.838-1.496-1.873l1.946-9.686c.208-1.035 1.214-1.873 2.249-1.873z" fill="#2888ff"/><path d="M14.023 353.867h-3.444a2.59 2.59 0 0 0-2.583 2.583 2.59 2.59 0 0 0 2.583 2.583h3.444a2.59 2.59 0 0 0 2.583-2.583 2.59 2.59 0 0 0-2.583-2.583z" fill="#93c3ff"/><path d="m142.566 145.6-10.584-30.786a7.976 7.976 0 0 1 2.541-8.805l2.938-2.365a7.974 7.974 0 0 1 11.212 1.212l3.867 4.805a7.975 7.975 0 0 1 1.755 5.339l-.979 30.527z" fill="#016eea"/><path d="M125.853 2.739v11.883a4.183 4.183 0 0 1-4.183 4.183h-4.217a4.042 4.042 0 0 0-4.042 4.042v9.908a3.64 3.64 0 0 1-6.214 2.574L92.96 21.091a2.021 2.021 0 0 1 0-2.858L103.875 5.02A13.35 13.35 0 0 1 117.488.591z" fill="#002652"/><path d="M113.644 0h-11.858c-6.171 0-11.173 5.002-11.173 11.173v20.09c0 .881.614 1.643 1.475 1.83l21.556 4.683z" fill="#002652"/><path d="M106.721 17.414h.347a4.809 4.809 0 0 1 4.809 4.809v9.267l-3.849-2.352a6.143 6.143 0 0 1-2.883-4.403l-.656-4.759a2.254 2.254 0 0 1 2.232-2.562z" fill="#ed956e"/></svg></g><g transform="translate(30.0 365.0) rotate(-9.446519811509898 197.0 203.5) translate(0.0 0.0) scale(1.1622418879056047 1.1595441595441596)"><svg width="153.152" height="220.776" viewBox="0 0 153.152 220.776"><path d="M77 252.3c4 4.9 7.6 10 11.2 15.2 3.6 5.2 7 10.4 10.3 15.8 3.3 5.3 6.5 10.8 9.5 16.3s5.9 11.1 8.6 16.7l-3.4 1.6c-2.6-5.6-5.3-11.2-8.2-16.7-2.9-5.5-5.9-10.9-9.1-16.3-3.2-5.4-6.5-10.6-9.9-15.8-3.4-5.2-7-10.3-10.8-15.2l1.8-1.6z" style="fill:#93c3ff"/><path d="M90.7 112.7c2.8 4.9 5.3 10 7.6 15.1 2.2 5.2 4.2 10.5 5.9 15.9 1.6 5.4 2.9 11 3.6 16.7.6 5.7.7 11.5-.2 17.3l-3.9-.7c.9-5.3 1-10.7.5-16.2-.5-5.4-1.7-10.8-3.1-16.2-1.5-5.3-3.3-10.5-5.4-15.7-2.1-5.1-4.4-10.2-7-15l2-1.2z" style="fill:#c0d1ff"/><path d="M237.1 159.1c-2.6 3.4-5.1 7-7.3 10.7-2.3 3.7-4.3 7.5-6.2 11.4-1.9 3.9-3.5 7.9-5 12s-2.5 8.2-3.4 12.4l-3.8-.8c1-4.4 2.2-8.7 3.9-12.9 1.6-4.2 3.4-8.2 5.5-12.2 2.1-3.9 4.3-7.8 6.7-11.5 2.4-3.7 5-7.3 7.8-10.8l1.8 1.7z" style="fill:#d3f0e3"/><path d="M129.6 87.2c-6.1-2.6-9.7 6.2-14.9 11.4-5.3 5.3-8.8 5.3-8.8 1.8s8.8-10.5 15.9-15.8c7-5.3 5.4-14 3.7-20.9-1.7-7-9.5-7.8-10.5.1-.9 7.8-6.2 13.1-10.6 17.5-4.4 4.4-11.3-2.5-5.2-8.7 6.2-6.1 11.5-13.2 10.7-24.5-.8-11.2-6.9-15.6-10.4-14.1s-3.6 16-6.3 20.4c-2.7 4.4-12.3 3.6-4.3-4.3s6.3-18.3 4.8-21.5c-1.4-3.2-8.9-10.7-12.5-7.1-3.5 3.5-1.9 15.7-1.1 21.8.8 6.1-4.4 4.4-5.2 0-.8-4.3-5.1-20.8-10.3-22.5-5.2-1.7-13.1-.8-14.1 8.8-1 9.6 3.4 13.9 8.6 19.1s10.4 10.4 6 13c-4.4 2.7-13.9-10.3-17.4-13.8-3.5-3.5-6.1.9-7.9 7.9-1.8 7 7.8 11.2 13.9 13.8s17.4 10.3 15.6 13.8c-1.8 3.5-15.7-3.4-26.1-8.5-10.4-5.1-8.8 8.8-8 14.9.8 6.1 10.4 8.6 15.7 8.6 5.2 0 16.6 2.5 17.4 6.8s-13.1 1-21.9 1.1-8.8 3.6-5.3 10.5c3.4 6.9 17.4 3.3 23.6 2.4 6.1-.9 6.1.8.8 6.1s-11.4 1-13.7 3.3c-2.3 2.3-.3 7.3 9 8.9s14.3-6.9 14.3-6.9 0 4.2 6.1 6.8c6.1 2.6 7.9-6.2 8.8-12.3.9-6.1 6.1-2.7 6.1-2.7s4.4 2.6 6.9 5.2c2.6 2.6 8.7 3.4 10.5-.1 1.8-3.5-5.2-6.9-4.3-11.3.9-4.4 12.3-5.3 20.2-9.7 8-4.6 6.3-16.8.2-19.3zm-54.9 6.7c-.3 1.9-2.5 3.2-4.7 2.8-2.3-.4-3.8-2.3-3.5-4.2.3-1.9 2.5-3.2 4.7-2.8 2.3.3 3.8 2.2 3.5 4.2zM91 69.8c-1.5.6-3.2 0-3.7-1.3s.3-2.9 1.9-3.4c1.5-.6 3.2 0 3.7 1.3s-.3 2.8-1.9 3.4z" style="fill:#c0d1ff"/><path d="M112.3 261.3c-4.7-6.7-17.3-3.4-17.7-3.3.3-.2 5.4-3.4 3.3-8.6-2.2-5.4-8.8-1.1-13.2 2.2-4.4 3.2-5.5-2.2-5.5-2.2s-1.1-4.3-1.1-7.5-3.3-7.5-6.6-6.5c-3.3 1.1-1.1 7.5-4.4 9.7-3.3 2.2-11-4.3-18.7-6.5-7.7-2.2-14.3 6.5-12.1 11.8 2.2 5.4 9.9 2.2 16.5 2.2s7 2.7 4.8 4.8c-2.2 2.2-10.3.6-17.9-.5-7.7-1.1-12.1 5.4-15.4 10.8-3.3 5.4 1.1 10.8 6.6 6.5 5.5-4.3 12.1-4.3 17.6-4.3s5.5 8.6-2.2 8.6-15.4 1.1-22 8.6-5.5 14-2.4 15.2c3.1 1.3 12.3-7.7 16.7-8.8 4.4-1.1 9.9 5.4 0 5.4s-15.4 7.5-16.5 10.4c-1.1 2.9-1.1 12.2 3.3 12.2s11-8.6 14.3-12.9c3.3-4.3 5.5 0 3.3 3.2s-9.9 16.1-7.7 20.4c2.2 4.3 7.7 8.6 14.3 3.2 6.6-5.4 6.6-10.8 6.6-17.2s0-12.9 4.4-11.8c4.4 1.1 2.2 15.1 2.2 19.4 0 4.3 4.4 3.2 9.9 0s2.2-11.8 0-17.2c-2.2-5.4-4.4-17.2-1.1-18.3 3.3-1.1 7.7 11.8 11 21.5s11 0 14.3-4.3c3.3-4.3-1.1-11.8-4.4-15.1-3.3-3.2-8.8-11.8-6.6-15.1 2.2-3.2 8.8 7.5 14.3 12.9s7.7 3.2 9.9-3.2-8.8-12.9-13.2-16.1c-4.4-3.2-3.3-4.3 3.3-4.3s7.7 6.5 10.6 6.5c2.8 0 6.3-5 1.5-11.8zM52 289.2c-1.5.6-3.2 0-3.7-1.3s.3-2.9 1.9-3.4c1.5-.6 3.2 0 3.7 1.3.5 1.2-.4 2.8-1.9 3.4zm7.6-21.4c-2.3.1-4.3-1.3-4.4-3.3-.1-2 1.6-3.7 3.9-3.8 2.3-.1 4.3 1.3 4.4 3.3.2 1.9-1.6 3.6-3.9 3.8zm17.7 14.4c-1.6 0-3-1.1-3-2.5s1.3-2.6 3-2.6 3 1.1 3 2.6c0 1.4-1.3 2.5-3 2.5z" style="fill:#93c3ff"/><path d="M280.7 147c-5.5 4.2-12.1 4.2-17.6 4.2-5.5 0-5.5-8.4 2.2-8.4s15.4-1 22-8.4c6.6-7.3 5.5-13.6 2.4-14.8-3.1-1.2-12.3 7.5-16.7 8.6-4.4 1.1-9.9-5.2 0-5.2s15.4-7.3 16.5-10.1c1.1-2.8 1.1-11.9-3.3-11.9s-11 8.4-14.3 12.6c-3.3 4.2-5.5 0-3.3-3.1s9.9-15.7 7.7-19.9c-2.2-4.2-7.7-8.4-14.3-3.1-6.6 5.2-6.6 10.5-6.6 16.8s0 12.6-4.4 11.5c-4.4-1-2.2-14.7-2.2-18.9 0-4.2-4.4-3.1-9.9 0s-2.2 11.5 0 16.8c2.2 5.2 4.4 16.8 1.1 17.8-3.3 1.1-7.7-11.5-11-21-3.3-9.4-11 0-14.3 4.2-3.3 4.2 1.1 11.5 4.4 14.7 3.3 3.1 8.8 11.5 6.6 14.7-2.2 3.1-8.8-7.3-14.3-12.6-5.5-5.2-7.7-3.1-9.9 3.1s8.8 12.6 13.2 15.7c4.4 3.1 3.3 4.2-3.3 4.2s-7.7-6.3-10.6-6.3c-2.9 0-4.8 4.2 0 10.8 4.7 6.5 15.6 4 16.1 3.9-.3.2-5.4 3.3-3.3 8.4 2.2 5.2 8.8 1 13.2-2.1 4.4-3.1 5.5 2.1 5.5 2.1s1.1 4.2 1.1 7.3 3.3 7.3 6.6 6.3 1.1-7.3 4.4-9.4c3.3-2.1 11 4.2 18.7 6.3 7.7 2.1 14.3-6.3 12.1-11.5s-9.9-2.1-16.5-2.1-8.8-2.1-6.6-4.2c2.2-2.1 12.1-1 19.8 0 7.7 1.1 12.1-5.2 15.4-10.5 3.3-5.4-1.1-10.7-6.6-6.5zm-31.4 11.1c-2.9 0-5.3-1.6-5.3-3.6s2.4-3.6 5.3-3.6c3 0 5.3 1.6 5.3 3.6.1 2-2.3 3.6-5.3 3.6z" style="fill:#d3f0e3"/></svg></g><g transform="translate(491.0 62.0) rotate(-48.92938970210891 99.0 102.0) translate(0.0 0.0) scale(0.584070796460177 0.5811965811965812)"><svg width="159.227" height="142.809" viewBox="0 0 159.227 142.809"><path d="M77 252.3c4 4.9 7.6 10 11.2 15.2 3.6 5.2 7 10.4 10.3 15.8 3.3 5.3 6.5 10.8 9.5 16.3s5.9 11.1 8.6 16.7l-3.4 1.6c-2.6-5.6-5.3-11.2-8.2-16.7-2.9-5.5-5.9-10.9-9.1-16.3-3.2-5.4-6.5-10.6-9.9-15.8-3.4-5.2-7-10.3-10.8-15.2l1.8-1.6z" style="fill:#93c3ff"/><path d="M90.7 112.7c2.8 4.9 5.3 10 7.6 15.1 2.2 5.2 4.2 10.5 5.9 15.9 1.6 5.4 2.9 11 3.6 16.7.6 5.7.7 11.5-.2 17.3l-3.9-.7c.9-5.3 1-10.7.5-16.2-.5-5.4-1.7-10.8-3.1-16.2-1.5-5.3-3.3-10.5-5.4-15.7-2.1-5.1-4.4-10.2-7-15l2-1.2z" style="fill:#c0d1ff"/><path d="M237.1 159.1c-2.6 3.4-5.1 7-7.3 10.7-2.3 3.7-4.3 7.5-6.2 11.4-1.9 3.9-3.5 7.9-5 12s-2.5 8.2-3.4 12.4l-3.8-.8c1-4.4 2.2-8.7 3.9-12.9 1.6-4.2 3.4-8.2 5.5-12.2 2.1-3.9 4.3-7.8 6.7-11.5 2.4-3.7 5-7.3 7.8-10.8l1.8 1.7z" style="fill:#93c3ff"/><path d="M129.6 87.2c-6.1-2.6-9.7 6.2-14.9 11.4-5.3 5.3-8.8 5.3-8.8 1.8s8.8-10.5 15.9-15.8c7-5.3 5.4-14 3.7-20.9-1.7-7-9.5-7.8-10.5.1-.9 7.8-6.2 13.1-10.6 17.5-4.4 4.4-11.3-2.5-5.2-8.7 6.2-6.1 11.5-13.2 10.7-24.5-.8-11.2-6.9-15.6-10.4-14.1s-3.6 16-6.3 20.4c-2.7 4.4-12.3 3.6-4.3-4.3s6.3-18.3 4.8-21.5c-1.4-3.2-8.9-10.7-12.5-7.1-3.5 3.5-1.9 15.7-1.1 21.8.8 6.1-4.4 4.4-5.2 0-.8-4.3-5.1-20.8-10.3-22.5-5.2-1.7-13.1-.8-14.1 8.8-1 9.6 3.4 13.9 8.6 19.1s10.4 10.4 6 13c-4.4 2.7-13.9-10.3-17.4-13.8-3.5-3.5-6.1.9-7.9 7.9-1.8 7 7.8 11.2 13.9 13.8s17.4 10.3 15.6 13.8c-1.8 3.5-15.7-3.4-26.1-8.5-10.4-5.1-8.8 8.8-8 14.9.8 6.1 10.4 8.6 15.7 8.6 5.2 0 16.6 2.5 17.4 6.8s-13.1 1-21.9 1.1-8.8 3.6-5.3 10.5c3.4 6.9 17.4 3.3 23.6 2.4 6.1-.9 6.1.8.8 6.1s-11.4 1-13.7 3.3c-2.3 2.3-.3 7.3 9 8.9s14.3-6.9 14.3-6.9 0 4.2 6.1 6.8c6.1 2.6 7.9-6.2 8.8-12.3.9-6.1 6.1-2.7 6.1-2.7s4.4 2.6 6.9 5.2c2.6 2.6 8.7 3.4 10.5-.1 1.8-3.5-5.2-6.9-4.3-11.3.9-4.4 12.3-5.3 20.2-9.7 8-4.6 6.3-16.8.2-19.3zm-54.9 6.7c-.3 1.9-2.5 3.2-4.7 2.8-2.3-.4-3.8-2.3-3.5-4.2.3-1.9 2.5-3.2 4.7-2.8 2.3.3 3.8 2.2 3.5 4.2zM91 69.8c-1.5.6-3.2 0-3.7-1.3s.3-2.9 1.9-3.4c1.5-.6 3.2 0 3.7 1.3s-.3 2.8-1.9 3.4z" style="fill:#c0d1ff"/><path d="M112.3 261.3c-4.7-6.7-17.3-3.4-17.7-3.3.3-.2 5.4-3.4 3.3-8.6-2.2-5.4-8.8-1.1-13.2 2.2-4.4 3.2-5.5-2.2-5.5-2.2s-1.1-4.3-1.1-7.5-3.3-7.5-6.6-6.5c-3.3 1.1-1.1 7.5-4.4 9.7-3.3 2.2-11-4.3-18.7-6.5-7.7-2.2-14.3 6.5-12.1 11.8 2.2 5.4 9.9 2.2 16.5 2.2s7 2.7 4.8 4.8c-2.2 2.2-10.3.6-17.9-.5-7.7-1.1-12.1 5.4-15.4 10.8-3.3 5.4 1.1 10.8 6.6 6.5 5.5-4.3 12.1-4.3 17.6-4.3s5.5 8.6-2.2 8.6-15.4 1.1-22 8.6-5.5 14-2.4 15.2c3.1 1.3 12.3-7.7 16.7-8.8 4.4-1.1 9.9 5.4 0 5.4s-15.4 7.5-16.5 10.4c-1.1 2.9-1.1 12.2 3.3 12.2s11-8.6 14.3-12.9c3.3-4.3 5.5 0 3.3 3.2s-9.9 16.1-7.7 20.4c2.2 4.3 7.7 8.6 14.3 3.2 6.6-5.4 6.6-10.8 6.6-17.2s0-12.9 4.4-11.8c4.4 1.1 2.2 15.1 2.2 19.4 0 4.3 4.4 3.2 9.9 0s2.2-11.8 0-17.2c-2.2-5.4-4.4-17.2-1.1-18.3 3.3-1.1 7.7 11.8 11 21.5s11 0 14.3-4.3c3.3-4.3-1.1-11.8-4.4-15.1-3.3-3.2-8.8-11.8-6.6-15.1 2.2-3.2 8.8 7.5 14.3 12.9s7.7 3.2 9.9-3.2-8.8-12.9-13.2-16.1c-4.4-3.2-3.3-4.3 3.3-4.3s7.7 6.5 10.6 6.5c2.8 0 6.3-5 1.5-11.8zM52 289.2c-1.5.6-3.2 0-3.7-1.3s.3-2.9 1.9-3.4c1.5-.6 3.2 0 3.7 1.3.5 1.2-.4 2.8-1.9 3.4zm7.6-21.4c-2.3.1-4.3-1.3-4.4-3.3-.1-2 1.6-3.7 3.9-3.8 2.3-.1 4.3 1.3 4.4 3.3.2 1.9-1.6 3.6-3.9 3.8zm17.7 14.4c-1.6 0-3-1.1-3-2.5s1.3-2.6 3-2.6 3 1.1 3 2.6c0 1.4-1.3 2.5-3 2.5zM280.7 147c-5.5 4.2-12.1 4.2-17.6 4.2-5.5 0-5.5-8.4 2.2-8.4s15.4-1 22-8.4c6.6-7.3 5.5-13.6 2.4-14.8-3.1-1.2-12.3 7.5-16.7 8.6-4.4 1.1-9.9-5.2 0-5.2s15.4-7.3 16.5-10.1c1.1-2.8 1.1-11.9-3.3-11.9s-11 8.4-14.3 12.6c-3.3 4.2-5.5 0-3.3-3.1s9.9-15.7 7.7-19.9c-2.2-4.2-7.7-8.4-14.3-3.1-6.6 5.2-6.6 10.5-6.6 16.8s0 12.6-4.4 11.5c-4.4-1-2.2-14.7-2.2-18.9 0-4.2-4.4-3.1-9.9 0s-2.2 11.5 0 16.8c2.2 5.2 4.4 16.8 1.1 17.8-3.3 1.1-7.7-11.5-11-21-3.3-9.4-11 0-14.3 4.2-3.3 4.2 1.1 11.5 4.4 14.7 3.3 3.1 8.8 11.5 6.6 14.7-2.2 3.1-8.8-7.3-14.3-12.6-5.5-5.2-7.7-3.1-9.9 3.1s8.8 12.6 13.2 15.7c4.4 3.1 3.3 4.2-3.3 4.2s-7.7-6.3-10.6-6.3c-2.9 0-4.8 4.2 0 10.8 4.7 6.5 15.6 4 16.1 3.9-.3.2-5.4 3.3-3.3 8.4 2.2 5.2 8.8 1 13.2-2.1 4.4-3.1 5.5 2.1 5.5 2.1s1.1 4.2 1.1 7.3 3.3 7.3 6.6 6.3 1.1-7.3 4.4-9.4c3.3-2.1 11 4.2 18.7 6.3 7.7 2.1 14.3-6.3 12.1-11.5s-9.9-2.1-16.5-2.1-8.8-2.1-6.6-4.2c2.2-2.1 12.1-1 19.8 0 7.7 1.1 12.1-5.2 15.4-10.5 3.3-5.4-1.1-10.7-6.6-6.5zm-31.4 11.1c-2.9 0-5.3-1.6-5.3-3.6s2.4-3.6 5.3-3.6c3 0 5.3 1.6 5.3 3.6.1 2-2.3 3.6-5.3 3.6z" style="fill:#93c3ff"/></svg></g><g transform="translate(-38.0 380.0) rotate(-7.8306602459560795 167.5 173.0) translate(181.0 0.0) scale(0.9882005899705014 0.9857549857549858)"><svg width="154.827" height="351" viewBox="183.161 0 154.827 351"><path d="M77 252.3c4 4.9 7.6 10 11.2 15.2 3.6 5.2 7 10.4 10.3 15.8 3.3 5.3 6.5 10.8 9.5 16.3s5.9 11.1 8.6 16.7l-3.4 1.6c-2.6-5.6-5.3-11.2-8.2-16.7-2.9-5.5-5.9-10.9-9.1-16.3-3.2-5.4-6.5-10.6-9.9-15.8-3.4-5.2-7-10.3-10.8-15.2l1.8-1.6z" style="fill:#93c3ff"/><path d="M90.7 112.7c2.8 4.9 5.3 10 7.6 15.1 2.2 5.2 4.2 10.5 5.9 15.9 1.6 5.4 2.9 11 3.6 16.7.6 5.7.7 11.5-.2 17.3l-3.9-.7c.9-5.3 1-10.7.5-16.2-.5-5.4-1.7-10.8-3.1-16.2-1.5-5.3-3.3-10.5-5.4-15.7-2.1-5.1-4.4-10.2-7-15l2-1.2z" style="fill:#c0d1ff"/><path d="M237.1 159.1c-2.6 3.4-5.1 7-7.3 10.7-2.3 3.7-4.3 7.5-6.2 11.4-1.9 3.9-3.5 7.9-5 12s-2.5 8.2-3.4 12.4l-3.8-.8c1-4.4 2.2-8.7 3.9-12.9 1.6-4.2 3.4-8.2 5.5-12.2 2.1-3.9 4.3-7.8 6.7-11.5 2.4-3.7 5-7.3 7.8-10.8l1.8 1.7z" style="fill:#93c3ff"/><path d="M129.6 87.2c-6.1-2.6-9.7 6.2-14.9 11.4-5.3 5.3-8.8 5.3-8.8 1.8s8.8-10.5 15.9-15.8c7-5.3 5.4-14 3.7-20.9-1.7-7-9.5-7.8-10.5.1-.9 7.8-6.2 13.1-10.6 17.5-4.4 4.4-11.3-2.5-5.2-8.7 6.2-6.1 11.5-13.2 10.7-24.5-.8-11.2-6.9-15.6-10.4-14.1s-3.6 16-6.3 20.4c-2.7 4.4-12.3 3.6-4.3-4.3s6.3-18.3 4.8-21.5c-1.4-3.2-8.9-10.7-12.5-7.1-3.5 3.5-1.9 15.7-1.1 21.8.8 6.1-4.4 4.4-5.2 0-.8-4.3-5.1-20.8-10.3-22.5-5.2-1.7-13.1-.8-14.1 8.8-1 9.6 3.4 13.9 8.6 19.1s10.4 10.4 6 13c-4.4 2.7-13.9-10.3-17.4-13.8-3.5-3.5-6.1.9-7.9 7.9-1.8 7 7.8 11.2 13.9 13.8s17.4 10.3 15.6 13.8c-1.8 3.5-15.7-3.4-26.1-8.5-10.4-5.1-8.8 8.8-8 14.9.8 6.1 10.4 8.6 15.7 8.6 5.2 0 16.6 2.5 17.4 6.8s-13.1 1-21.9 1.1-8.8 3.6-5.3 10.5c3.4 6.9 17.4 3.3 23.6 2.4 6.1-.9 6.1.8.8 6.1s-11.4 1-13.7 3.3c-2.3 2.3-.3 7.3 9 8.9s14.3-6.9 14.3-6.9 0 4.2 6.1 6.8c6.1 2.6 7.9-6.2 8.8-12.3.9-6.1 6.1-2.7 6.1-2.7s4.4 2.6 6.9 5.2c2.6 2.6 8.7 3.4 10.5-.1 1.8-3.5-5.2-6.9-4.3-11.3.9-4.4 12.3-5.3 20.2-9.7 8-4.6 6.3-16.8.2-19.3zm-54.9 6.7c-.3 1.9-2.5 3.2-4.7 2.8-2.3-.4-3.8-2.3-3.5-4.2.3-1.9 2.5-3.2 4.7-2.8 2.3.3 3.8 2.2 3.5 4.2zM91 69.8c-1.5.6-3.2 0-3.7-1.3s.3-2.9 1.9-3.4c1.5-.6 3.2 0 3.7 1.3s-.3 2.8-1.9 3.4z" style="fill:#c0d1ff"/><path d="M112.3 261.3c-4.7-6.7-17.3-3.4-17.7-3.3.3-.2 5.4-3.4 3.3-8.6-2.2-5.4-8.8-1.1-13.2 2.2-4.4 3.2-5.5-2.2-5.5-2.2s-1.1-4.3-1.1-7.5-3.3-7.5-6.6-6.5c-3.3 1.1-1.1 7.5-4.4 9.7-3.3 2.2-11-4.3-18.7-6.5-7.7-2.2-14.3 6.5-12.1 11.8 2.2 5.4 9.9 2.2 16.5 2.2s7 2.7 4.8 4.8c-2.2 2.2-10.3.6-17.9-.5-7.7-1.1-12.1 5.4-15.4 10.8-3.3 5.4 1.1 10.8 6.6 6.5 5.5-4.3 12.1-4.3 17.6-4.3s5.5 8.6-2.2 8.6-15.4 1.1-22 8.6-5.5 14-2.4 15.2c3.1 1.3 12.3-7.7 16.7-8.8 4.4-1.1 9.9 5.4 0 5.4s-15.4 7.5-16.5 10.4c-1.1 2.9-1.1 12.2 3.3 12.2s11-8.6 14.3-12.9c3.3-4.3 5.5 0 3.3 3.2s-9.9 16.1-7.7 20.4c2.2 4.3 7.7 8.6 14.3 3.2 6.6-5.4 6.6-10.8 6.6-17.2s0-12.9 4.4-11.8c4.4 1.1 2.2 15.1 2.2 19.4 0 4.3 4.4 3.2 9.9 0s2.2-11.8 0-17.2c-2.2-5.4-4.4-17.2-1.1-18.3 3.3-1.1 7.7 11.8 11 21.5s11 0 14.3-4.3c3.3-4.3-1.1-11.8-4.4-15.1-3.3-3.2-8.8-11.8-6.6-15.1 2.2-3.2 8.8 7.5 14.3 12.9s7.7 3.2 9.9-3.2-8.8-12.9-13.2-16.1c-4.4-3.2-3.3-4.3 3.3-4.3s7.7 6.5 10.6 6.5c2.8 0 6.3-5 1.5-11.8zM52 289.2c-1.5.6-3.2 0-3.7-1.3s.3-2.9 1.9-3.4c1.5-.6 3.2 0 3.7 1.3.5 1.2-.4 2.8-1.9 3.4zm7.6-21.4c-2.3.1-4.3-1.3-4.4-3.3-.1-2 1.6-3.7 3.9-3.8 2.3-.1 4.3 1.3 4.4 3.3.2 1.9-1.6 3.6-3.9 3.8zm17.7 14.4c-1.6 0-3-1.1-3-2.5s1.3-2.6 3-2.6 3 1.1 3 2.6c0 1.4-1.3 2.5-3 2.5zM280.7 147c-5.5 4.2-12.1 4.2-17.6 4.2-5.5 0-5.5-8.4 2.2-8.4s15.4-1 22-8.4c6.6-7.3 5.5-13.6 2.4-14.8-3.1-1.2-12.3 7.5-16.7 8.6-4.4 1.1-9.9-5.2 0-5.2s15.4-7.3 16.5-10.1c1.1-2.8 1.1-11.9-3.3-11.9s-11 8.4-14.3 12.6c-3.3 4.2-5.5 0-3.3-3.1s9.9-15.7 7.7-19.9c-2.2-4.2-7.7-8.4-14.3-3.1-6.6 5.2-6.6 10.5-6.6 16.8s0 12.6-4.4 11.5c-4.4-1-2.2-14.7-2.2-18.9 0-4.2-4.4-3.1-9.9 0s-2.2 11.5 0 16.8c2.2 5.2 4.4 16.8 1.1 17.8-3.3 1.1-7.7-11.5-11-21-3.3-9.4-11 0-14.3 4.2-3.3 4.2 1.1 11.5 4.4 14.7 3.3 3.1 8.8 11.5 6.6 14.7-2.2 3.1-8.8-7.3-14.3-12.6-5.5-5.2-7.7-3.1-9.9 3.1s8.8 12.6 13.2 15.7c4.4 3.1 3.3 4.2-3.3 4.2s-7.7-6.3-10.6-6.3c-2.9 0-4.8 4.2 0 10.8 4.7 6.5 15.6 4 16.1 3.9-.3.2-5.4 3.3-3.3 8.4 2.2 5.2 8.8 1 13.2-2.1 4.4-3.1 5.5 2.1 5.5 2.1s1.1 4.2 1.1 7.3 3.3 7.3 6.6 6.3 1.1-7.3 4.4-9.4c3.3-2.1 11 4.2 18.7 6.3 7.7 2.1 14.3-6.3 12.1-11.5s-9.9-2.1-16.5-2.1-8.8-2.1-6.6-4.2c2.2-2.1 12.1-1 19.8 0 7.7 1.1 12.1-5.2 15.4-10.5 3.3-5.4-1.1-10.7-6.6-6.5zm-31.4 11.1c-2.9 0-5.3-1.6-5.3-3.6s2.4-3.6 5.3-3.6c3 0 5.3 1.6 5.3 3.6.1 2-2.3 3.6-5.3 3.6z" style="fill:#93c3ff"/></svg></g><g transform="translate(38.0 184.0) rotate(-12.622705998509248 214.0 221.0) translate(0.0 278.0) scale(1.2625368731563422 1.2592592592592593)"><svg width="338.208" height="130.235" viewBox="0 220.765 338.208 130.235"><path d="M77 252.3c4 4.9 7.6 10 11.2 15.2 3.6 5.2 7 10.4 10.3 15.8 3.3 5.3 6.5 10.8 9.5 16.3s5.9 11.1 8.6 16.7l-3.4 1.6c-2.6-5.6-5.3-11.2-8.2-16.7-2.9-5.5-5.9-10.9-9.1-16.3-3.2-5.4-6.5-10.6-9.9-15.8-3.4-5.2-7-10.3-10.8-15.2l1.8-1.6z" style="fill:#93c3ff"/><path d="M90.7 112.7c2.8 4.9 5.3 10 7.6 15.1 2.2 5.2 4.2 10.5 5.9 15.9 1.6 5.4 2.9 11 3.6 16.7.6 5.7.7 11.5-.2 17.3l-3.9-.7c.9-5.3 1-10.7.5-16.2-.5-5.4-1.7-10.8-3.1-16.2-1.5-5.3-3.3-10.5-5.4-15.7-2.1-5.1-4.4-10.2-7-15l2-1.2z" style="fill:#c0d1ff"/><path d="M237.1 159.1c-2.6 3.4-5.1 7-7.3 10.7-2.3 3.7-4.3 7.5-6.2 11.4-1.9 3.9-3.5 7.9-5 12s-2.5 8.2-3.4 12.4l-3.8-.8c1-4.4 2.2-8.7 3.9-12.9 1.6-4.2 3.4-8.2 5.5-12.2 2.1-3.9 4.3-7.8 6.7-11.5 2.4-3.7 5-7.3 7.8-10.8l1.8 1.7z" style="fill:#d3f0e3"/><path d="M129.6 87.2c-6.1-2.6-9.7 6.2-14.9 11.4-5.3 5.3-8.8 5.3-8.8 1.8s8.8-10.5 15.9-15.8c7-5.3 5.4-14 3.7-20.9-1.7-7-9.5-7.8-10.5.1-.9 7.8-6.2 13.1-10.6 17.5-4.4 4.4-11.3-2.5-5.2-8.7 6.2-6.1 11.5-13.2 10.7-24.5-.8-11.2-6.9-15.6-10.4-14.1s-3.6 16-6.3 20.4c-2.7 4.4-12.3 3.6-4.3-4.3s6.3-18.3 4.8-21.5c-1.4-3.2-8.9-10.7-12.5-7.1-3.5 3.5-1.9 15.7-1.1 21.8.8 6.1-4.4 4.4-5.2 0-.8-4.3-5.1-20.8-10.3-22.5-5.2-1.7-13.1-.8-14.1 8.8-1 9.6 3.4 13.9 8.6 19.1s10.4 10.4 6 13c-4.4 2.7-13.9-10.3-17.4-13.8-3.5-3.5-6.1.9-7.9 7.9-1.8 7 7.8 11.2 13.9 13.8s17.4 10.3 15.6 13.8c-1.8 3.5-15.7-3.4-26.1-8.5-10.4-5.1-8.8 8.8-8 14.9.8 6.1 10.4 8.6 15.7 8.6 5.2 0 16.6 2.5 17.4 6.8s-13.1 1-21.9 1.1-8.8 3.6-5.3 10.5c3.4 6.9 17.4 3.3 23.6 2.4 6.1-.9 6.1.8.8 6.1s-11.4 1-13.7 3.3c-2.3 2.3-.3 7.3 9 8.9s14.3-6.9 14.3-6.9 0 4.2 6.1 6.8c6.1 2.6 7.9-6.2 8.8-12.3.9-6.1 6.1-2.7 6.1-2.7s4.4 2.6 6.9 5.2c2.6 2.6 8.7 3.4 10.5-.1 1.8-3.5-5.2-6.9-4.3-11.3.9-4.4 12.3-5.3 20.2-9.7 8-4.6 6.3-16.8.2-19.3zm-54.9 6.7c-.3 1.9-2.5 3.2-4.7 2.8-2.3-.4-3.8-2.3-3.5-4.2.3-1.9 2.5-3.2 4.7-2.8 2.3.3 3.8 2.2 3.5 4.2zM91 69.8c-1.5.6-3.2 0-3.7-1.3s.3-2.9 1.9-3.4c1.5-.6 3.2 0 3.7 1.3s-.3 2.8-1.9 3.4z" style="fill:#c0d1ff"/><path d="M112.3 261.3c-4.7-6.7-17.3-3.4-17.7-3.3.3-.2 5.4-3.4 3.3-8.6-2.2-5.4-8.8-1.1-13.2 2.2-4.4 3.2-5.5-2.2-5.5-2.2s-1.1-4.3-1.1-7.5-3.3-7.5-6.6-6.5c-3.3 1.1-1.1 7.5-4.4 9.7-3.3 2.2-11-4.3-18.7-6.5-7.7-2.2-14.3 6.5-12.1 11.8 2.2 5.4 9.9 2.2 16.5 2.2s7 2.7 4.8 4.8c-2.2 2.2-10.3.6-17.9-.5-7.7-1.1-12.1 5.4-15.4 10.8-3.3 5.4 1.1 10.8 6.6 6.5 5.5-4.3 12.1-4.3 17.6-4.3s5.5 8.6-2.2 8.6-15.4 1.1-22 8.6-5.5 14-2.4 15.2c3.1 1.3 12.3-7.7 16.7-8.8 4.4-1.1 9.9 5.4 0 5.4s-15.4 7.5-16.5 10.4c-1.1 2.9-1.1 12.2 3.3 12.2s11-8.6 14.3-12.9c3.3-4.3 5.5 0 3.3 3.2s-9.9 16.1-7.7 20.4c2.2 4.3 7.7 8.6 14.3 3.2 6.6-5.4 6.6-10.8 6.6-17.2s0-12.9 4.4-11.8c4.4 1.1 2.2 15.1 2.2 19.4 0 4.3 4.4 3.2 9.9 0s2.2-11.8 0-17.2c-2.2-5.4-4.4-17.2-1.1-18.3 3.3-1.1 7.7 11.8 11 21.5s11 0 14.3-4.3c3.3-4.3-1.1-11.8-4.4-15.1-3.3-3.2-8.8-11.8-6.6-15.1 2.2-3.2 8.8 7.5 14.3 12.9s7.7 3.2 9.9-3.2-8.8-12.9-13.2-16.1c-4.4-3.2-3.3-4.3 3.3-4.3s7.7 6.5 10.6 6.5c2.8 0 6.3-5 1.5-11.8zM52 289.2c-1.5.6-3.2 0-3.7-1.3s.3-2.9 1.9-3.4c1.5-.6 3.2 0 3.7 1.3.5 1.2-.4 2.8-1.9 3.4zm7.6-21.4c-2.3.1-4.3-1.3-4.4-3.3-.1-2 1.6-3.7 3.9-3.8 2.3-.1 4.3 1.3 4.4 3.3.2 1.9-1.6 3.6-3.9 3.8zm17.7 14.4c-1.6 0-3-1.1-3-2.5s1.3-2.6 3-2.6 3 1.1 3 2.6c0 1.4-1.3 2.5-3 2.5z" style="fill:#93c3ff"/><path d="M280.7 147c-5.5 4.2-12.1 4.2-17.6 4.2-5.5 0-5.5-8.4 2.2-8.4s15.4-1 22-8.4c6.6-7.3 5.5-13.6 2.4-14.8-3.1-1.2-12.3 7.5-16.7 8.6-4.4 1.1-9.9-5.2 0-5.2s15.4-7.3 16.5-10.1c1.1-2.8 1.1-11.9-3.3-11.9s-11 8.4-14.3 12.6c-3.3 4.2-5.5 0-3.3-3.1s9.9-15.7 7.7-19.9c-2.2-4.2-7.7-8.4-14.3-3.1-6.6 5.2-6.6 10.5-6.6 16.8s0 12.6-4.4 11.5c-4.4-1-2.2-14.7-2.2-18.9 0-4.2-4.4-3.1-9.9 0s-2.2 11.5 0 16.8c2.2 5.2 4.4 16.8 1.1 17.8-3.3 1.1-7.7-11.5-11-21-3.3-9.4-11 0-14.3 4.2-3.3 4.2 1.1 11.5 4.4 14.7 3.3 3.1 8.8 11.5 6.6 14.7-2.2 3.1-8.8-7.3-14.3-12.6-5.5-5.2-7.7-3.1-9.9 3.1s8.8 12.6 13.2 15.7c4.4 3.1 3.3 4.2-3.3 4.2s-7.7-6.3-10.6-6.3c-2.9 0-4.8 4.2 0 10.8 4.7 6.5 15.6 4 16.1 3.9-.3.2-5.4 3.3-3.3 8.4 2.2 5.2 8.8 1 13.2-2.1 4.4-3.1 5.5 2.1 5.5 2.1s1.1 4.2 1.1 7.3 3.3 7.3 6.6 6.3 1.1-7.3 4.4-9.4c3.3-2.1 11 4.2 18.7 6.3 7.7 2.1 14.3-6.3 12.1-11.5s-9.9-2.1-16.5-2.1-8.8-2.1-6.6-4.2c2.2-2.1 12.1-1 19.8 0 7.7 1.1 12.1-5.2 15.4-10.5 3.3-5.4-1.1-10.7-6.6-6.5zm-31.4 11.1c-2.9 0-5.3-1.6-5.3-3.6s2.4-3.6 5.3-3.6c3 0 5.3 1.6 5.3 3.6.1 2-2.3 3.6-5.3 3.6z" style="fill:#d3f0e3"/></svg></g><g transform="translate(1008.0 131.0) rotate(0.0 219.0 219.0) scale(1.3825015703071488 1.380971598648035)"><svg width="316.817" height="317.168" viewBox="0 0 316.817 317.168"><path d="M12.5 12.5h291.817v304.668H12.5z" fill="#fbfbfb"/><path d="M316.817 317.168h-17V17H17v300.168H0V0h316.817z" fill="#e4e4e8"/></svg></g><g transform="translate(1008.0 562.0) rotate(0.0 218.5 218.5) translate(0.0 0.0) scale(1.3793451740279088 1.3778186954547746)"><svg width="316.092" height="16.693" viewBox="0 0 316.092 16.693"><path d="M12.5 12.5h291.817v304.668H12.5z" fill="#fbfbfb"/><path d="M316.817 317.168h-17V17H17v300.168H0V0h316.817z" fill="#e4e4e8"/></svg></g><g transform="translate(1045.0 173.0) rotate(0.0 174.5 207.0) translate(0.0 0.0) scale(5.933356001360082 5.875007095419197)"><svg width="58.82" height="66.383" viewBox="0 0 58.82 66.383"><circle cx="40.58" cy="19.866" fill="#002652" r="7.663"/><path d="M47.875 67.784H20.012L17.354 35.59h32.779z" fill="#93c3ff"/><path d="m55.898 49.36-36.336-6.481-1.892-11.855c-.59-3.701 2.697-6.852 6.37-6.106l23.569 4.79a5.368 5.368 0 0 1 4.12 3.888z" fill="#93c3ff"/><path d="M15.876 27.027 5.693 44.596a3.472 3.472 0 0 0 .096 3.638c1.84 2.821 5.992 2.761 7.75-.111l13.67-22.34-5.455-1.287a5.366 5.366 0 0 0-5.878 2.531z" fill="#93c3ff"/><path d="M34.833 49.346 24.786 25.087l19.683 3.995z" fill="#fff"/><circle cx="34.149" cy="19.866" fill="#002652" r="7.663"/><path d="m34.315 36.702-4.08-10.301v-7.789h9.591v9.597l-4.415 8.547a.603.603 0 0 1-1.096-.054z" fill="#99644c"/><path d="M35.436 22.583v4.421l2.009-4.22z" fill="#002652" opacity=".1"/><path d="m29.036 65.019.85 4.537 23.063.907a5.601 5.601 0 0 0 5.744-4.666l.054-.317a2.966 2.966 0 0 0-2.875-3.459l-5.281-.088a21.353 21.353 0 0 0-3.509.23z" fill="#99644c"/><path d="m52.378 36.29 6.442 25.324-.064 2.454-8.177-2.151-7.789-25.86z" fill="#93c3ff"/><circle cx="42.141" cy="10.576" fill="#002652" r="6.357"/><path d="M26.583 20.094h17.08V7.435A7.435 7.435 0 0 0 36.228 0h-2.21a7.435 7.435 0 0 0-7.435 7.435z" fill="#002652"/><path d="M42.064 3.493h-8.038a6.028 6.028 0 0 0-6.028 6.028v6.839c0 1.028.394 2.017 1.101 2.763l3.466 3.66h4.932l3.466-3.66a4.017 4.017 0 0 0 1.101-2.763v-3.222z" fill="#99644c"/><path d="M31.886 7.495h5.308v6.747h-5.308zm10.556 7.5h-3.969a.48.48 0 0 1-.479-.479v-3.941a.48.48 0 0 1 .479-.479h3.969a2.45 2.45 0 0 1 0 4.899z" fill="#99644c"/><path d="M28.24 16.153h3.969a.48.48 0 0 0 .479-.479v-3.941a.48.48 0 0 0-.479-.479H28.24a2.45 2.45 0 0 0 0 4.899z" fill="#99644c"/><path d="M38.882 2.11h-4.706l1.051 3.96a5.37 5.37 0 0 0 5.191 3.993h3.404V7.05a4.94 4.94 0 0 0-4.94-4.94z" fill="#002652"/><path d="M29.555 11.432h-2.408l-.054-1.341h2.462z" fill="#93c3ff"/><path d="M37.847 16.076h-2.009v-5.225z" fill="#002652" opacity=".1"/><path d="M33.564 10.591a.23.23 0 0 1 .23.23v2.293a.23.23 0 0 1-.23.23h-3.62a.23.23 0 0 1-.23-.23v-2.523zm0-.5h-4.35v3.023c0 .403.327.73.73.73h3.62a.73.73 0 0 0 .73-.73v-2.293a.73.73 0 0 0-.73-.73zm6.784.5v2.523a.23.23 0 0 1-.23.23h-3.621a.23.23 0 0 1-.23-.23v-2.293a.23.23 0 0 1 .23-.23zm.5-.5h-4.35a.73.73 0 0 0-.73.73v2.293c0 .403.327.73.73.73h3.621a.73.73 0 0 0 .73-.73v-3.023z" fill="#93c3ff"/><path d="m37.445 17.368-.387.948-1.806.354v-1.324zm-4.387 0 .388.948 1.806.354v-1.324z" fill="#002652" opacity=".1"/><path d="M39.77 10.047c.573 0 1.037.464 1.037 1.037v3.568c0 1.522.731 2.952 1.964 3.844 1.149.83 2.387 1.73 2.456 1.799V15.07c-.999 0-1.808-.81-1.808-1.808V7.435H39.77z" fill="#002652"/><path d="M42.214 8.842h3.416v6.229h-3.416z" fill="#002652"/><path d="M36.24 11.432h-2.408l-.054-1.341h2.462z" fill="#93c3ff"/><g fill="#99644c"><path d="m3.991 18.207 5.318.306 4.338 27.671-.02.204c-.304 3.171-3.811 4.941-6.543 3.303a4.335 4.335 0 0 1-2.067-3.143L4.1 39.675a21.509 21.509 0 0 1-.189-2.936z"/><path d="m3.889 19.495.32 5.394 2.684-1.43.222-.048a5.183 5.183 0 0 0 2.014-.982 5.165 5.165 0 0 0 1.42-1.731l.008.007 3.727-7.027a.377.377 0 0 0-.113-.506.73.73 0 0 0-1.023.151l-2.377 2.738a.82.82 0 0 1-1.39-.281l-2.145-5.364-1.721 1.097-.005.875a6.014 6.014 0 0 1-.148 1.274l-.882 3.862a3.198 3.198 0 0 1-.356.902 1.89 1.89 0 0 0-.235 1.069z"/><path d="M4.513 5.218c.428-.076.899.193 1.119.681l2.739 7.654-2.135 1.677-1.917-9.665a.278.278 0 0 1 .187-.345l.007-.002zm-1.061 1.02c.435.001.85.35.98.869l1.386 8.419-2.196 1.537L3.2 6.545a.277.277 0 0 1 .245-.306l.007-.001z"/><path d="M2.319 8.366c.435-.016.864.316 1.014.829l1.652 7.959-2.133 1.623L2.08 8.683a.277.277 0 0 1 .232-.316l.007-.001z"/><path d="M.156 11.867c.406-.155.919.022 1.226.461l4.114 7.011-1.5 2.221L.03 12.244a.278.278 0 0 1 .126-.377zm26.695 57.575c.235.093.486.141.739.141h9.725l.155-.091v-4.297h-4.194a1.997 1.997 0 0 1-.451.057l-1.248-.003-4.568-.459a2.143 2.143 0 0 0-1.49.402l-1.236.899-2.437-.286a3.767 3.767 0 0 0-1.654.16l-4.944 1.616a.284.284 0 0 0-.182.362l.006.016c.198.491.711.777 1.232.687l4.698-.821 4.627 1.131z"/></g></svg></g><g transform="translate(1328.0 418.0) rotate(351.20510303455717 79.0 79.0) scale(1.1978771796815768 1.2081358005811287)"><svg width="131.9" height="130.78" viewBox="0 0 131.9 130.78"><g fill="#013b84"><path d="M42.69 88.81a21.16 21.16 0 0 0 11.3 9.34c5.47 2 12.83 3.66 21 6.84-5.48-4.31-13.72-8.63-20.4-11.65a107.551 107.551 0 0 0-11.9-4.53zm-10.54-7.48c-7-3.35-15.69-6.4-21.46-5.39 6.2 1.39 13.13 5.56 18.56 9.56 3.31 2.41 13.44 3.29 13.44 3.31a35.937 35.937 0 0 0-10.54-7.48zm3.33-7.99c-6.92-3.33-15.4-5.66-20.48-5.44 5 1.57 13.71 5.32 18.37 11.13 3 3.71 12.93 2.63 12.94 2.64a33.908 33.908 0 0 0-10.83-8.33zm20.44-6.77a12.721 12.721 0 0 0 7.84 8.9c5.55 2.13 13.5 1.78 22.51 5.78-8.54-6.08-13.65-9.64-20.54-11.67-6.02-1.77-9.82-3.01-9.81-3.01z"/><path d="M46.27 81.67a13.64 13.64 0 0 0 7.78 8.84c5.62 2.28 14.26 3.4 23.74 7.09-5.49-4.52-14.14-9.33-20.69-12.54a43.397 43.397 0 0 0-10.83-3.39zm.14-25.03A40.092 40.092 0 0 0 27 47.43c4.73 1.51 9 8.2 14.06 13.51 4.09 4.3 14.85 5.61 14.86 5.63a62.495 62.495 0 0 0-9.51-9.93zm4.61 17.15s2.57 7.55 8 9.53c5.72 2.08 13.86 3.81 22.45 7.21A98.131 98.131 0 0 0 60.88 78.3c-4.92-2.22-9.86-4.52-9.86-4.51zm.92 25.95a66.161 66.161 0 0 0-13.2-4c.25 2.7 9.67 8.33 12.17 9a135.432 135.432 0 0 1 20.57 7.35C68.7 108 59.6 103.11 51.94 99.74zM1 101.65a83.546 83.546 0 0 1 18.48 4.55c5.56 2.07 13.68 1.08 13.69 1.08a42.9 42.9 0 0 0-11.75-4.71C14.59 101.05 6.24 100 1 101.65zm41.26 14.28a42.449 42.449 0 0 0-10.53-3.49 27.357 27.357 0 0 0 8.63 9.05c3.88 2.37 6.91.48 18.16 9.29-1.87-5.27-9.82-11.61-16.26-14.85zM27.62 87.71c-6.43-2.85-14.48-5.35-20.87-4.55A51.01 51.01 0 0 1 25.68 92c3.67 2.72 13.06 3.71 13.06 3.73a34.913 34.913 0 0 0-11.12-8.02zM0 109.49c7.22.83 12.37 3.6 18.09 4.15 3.56.31 13.63-1.22 13.64-1.2a41.938 41.938 0 0 0-12-3.19c-7.39-.81-16.5-1.72-19.73.24zm35.69-7s8.22 6.64 11.71 7.89c5.05 1.77 11.51 4.19 19.21 7.45-5.27-5.13-10.34-7.87-17.6-11.3a58.403 58.403 0 0 0-13.32-4.04z"/><path d="M1.37 93.2a78.927 78.927 0 0 1 19.92 5.67c3.53 1.52 14.41 3.59 14.4 3.62a38.38 38.38 0 0 0-11.81-7.34c-7.69-2.77-17.4-4.92-22.51-1.95zm43.93 17.97a47.452 47.452 0 0 0-12.18-3.89s5.41 5 10.48 7.18a185.963 185.963 0 0 1 21.13 10.23c-2.11-3.97-11.56-9.62-19.43-13.52zM19.86 58.19a50.704 50.704 0 0 1 18.21 11.36c2.91 2.72 12.95 4.22 12.95 4.24A83.412 83.412 0 0 0 40.96 66c-5.94-4-13.75-7.85-21.1-7.81zm73.41-39.06c-2.08-3.6-5.39-7.05-11.91-10.13 4.7 4.56 5.37 10.17 6.77 13.79 2.2 5.72 6.49 7.35 6.49 7.35s1.11-6.76-1.35-11.01zm-7.79 7.46a29.998 29.998 0 0 0-16.29-10.15 23.629 23.629 0 0 1 10.53 13c1.45 4.42 7.66 6.09 7.65 6.1s.92-5.68-1.89-8.95zm15.54-12.17c-.84-3.69-2.37-7.88-7.29-10.63 2.36 3.2 1.41 9.25 2.08 13.21 1.11 6.59 4.76 9.59 4.76 9.59s1.7-6.72.45-12.17zm-3.24 23.25a28.601 28.601 0 0 0-10.37-2.11s-.06 4.84 6.35 7c6 2 14.58 2.72 19.18 5.89a44.074 44.074 0 0 0-15.16-10.78zm4.95-6.09a23.38 23.38 0 0 0-8.11-1.44s1 3.42 5.92 5.48c4.12 1.72 10.4 2 16.48 5.8-3.75-4.7-9.08-7.86-14.29-9.84zm.45-6.58 4.46-2.57c8.67.21 24.19-11.08 24.26-11.05s-8.67 2.89-16.27 5.29c-7.09 2.24-8 5.59-8 5.58l-4.5 2.75a72.662 72.662 0 0 0 8.19 2.32c5.59.94 13.05.61 18.37 3.57-2.21-2.3-7.86-5.93-15-7s-11.05.86-11.51 1.11z"/><path d="M110.98 0c-.73 4.75-6 10.27-7.12 15.27a33.348 33.348 0 0 0-.73 9.76 50.001 50.001 0 0 0 6.77-11.78c1.58-4.11 1.45-7.83 1.08-13.25zm-10.41 26.59s1.28 3.2 6 4.79c3.85 1.29 10.83 2 17.38 5.12a57.309 57.309 0 0 0-15.22-8.21 25.701 25.701 0 0 0-8.16-1.7zM90.48 43.17c-4.48-2-10.6-1.82-10.59-1.82a12.13 12.13 0 0 0 7.41 7.49c4.59 1.79 9.22 1.08 19.52 6.16-4.68-5.69-9.42-8.79-16.34-11.83zm-35.6 8.89C50.1 48.22 43 43.85 35.01 42.82c5.73 3.14 10.94 8.53 14.54 13.54 2.94 4.06 11.23 5.16 11.23 5.17s-1.75-6.15-5.9-9.47zm5.93-6.87c-5-4.27-10.53-10.14-17.7-11.06 5.17 2.79 9.17 10.35 12.89 15.66a14.4 14.4 0 0 0 9.48 5.57 14.273 14.273 0 0 0-4.67-10.17zm-.03 16.34a15 15 0 0 0 9.19 7.76c5.78 1.82 9.37 2.84 17.51 5.71-5.42-4.83-8.83-8.62-15-10.86a51.886 51.886 0 0 0-11.7-2.61z"/><path d="M65.48 55.36a17.09 17.09 0 0 0 9.71 7.29c4.57 1.44 11.38 1.23 18.83 4.18a42.267 42.267 0 0 0-16.37-10.32c-5.17-1.82-12.17-1.16-12.17-1.15zm12.26-23.68a29.609 29.609 0 0 0-15.68-10.87c3.92 2.9 6.46 8.6 9.33 13a22.892 22.892 0 0 0 8.54 7.57s.74-5.55-2.19-9.7zM67.69 38c-5-4.45-7.93-7.75-14.09-8.92 5.52 3.66 6.3 7.09 9.43 12.92 2.68 5.13 10.09 5.79 10.09 5.8a17.705 17.705 0 0 0-5.43-9.8zm5.43 9.81s1.53 5 8.46 7c4.8 1.43 11.51 2.18 19.19 5.66-5.25-4.47-11.8-8.86-17.08-10.75-6.75-2.39-10.57-1.91-10.57-1.91z"/><path d="M108.76 21.73c.09-.68-64.88 27.62-85.18 106.91l5.07 1.37c14.06-50.28 37.94-81.8 80.11-108.28z"/></g></svg></g><g transform="translate(1372.0 475.0) rotate(15.993575221442734 61.0 60.5) scale(0.9249431387414707 0.9252179232298516)"><svg width="131.9" height="130.78" viewBox="0 0 131.9 130.78"><g fill="#013b84"><path d="M42.69 88.81a21.16 21.16 0 0 0 11.3 9.34c5.47 2 12.83 3.66 21 6.84-5.48-4.31-13.72-8.63-20.4-11.65a107.551 107.551 0 0 0-11.9-4.53zm-10.54-7.48c-7-3.35-15.69-6.4-21.46-5.39 6.2 1.39 13.13 5.56 18.56 9.56 3.31 2.41 13.44 3.29 13.44 3.31a35.937 35.937 0 0 0-10.54-7.48zm3.33-7.99c-6.92-3.33-15.4-5.66-20.48-5.44 5 1.57 13.71 5.32 18.37 11.13 3 3.71 12.93 2.63 12.94 2.64a33.908 33.908 0 0 0-10.83-8.33zm20.44-6.77a12.721 12.721 0 0 0 7.84 8.9c5.55 2.13 13.5 1.78 22.51 5.78-8.54-6.08-13.65-9.64-20.54-11.67-6.02-1.77-9.82-3.01-9.81-3.01z"/><path d="M46.27 81.67a13.64 13.64 0 0 0 7.78 8.84c5.62 2.28 14.26 3.4 23.74 7.09-5.49-4.52-14.14-9.33-20.69-12.54a43.397 43.397 0 0 0-10.83-3.39zm.14-25.03A40.092 40.092 0 0 0 27 47.43c4.73 1.51 9 8.2 14.06 13.51 4.09 4.3 14.85 5.61 14.86 5.63a62.495 62.495 0 0 0-9.51-9.93zm4.61 17.15s2.57 7.55 8 9.53c5.72 2.08 13.86 3.81 22.45 7.21A98.131 98.131 0 0 0 60.88 78.3c-4.92-2.22-9.86-4.52-9.86-4.51zm.92 25.95a66.161 66.161 0 0 0-13.2-4c.25 2.7 9.67 8.33 12.17 9a135.432 135.432 0 0 1 20.57 7.35C68.7 108 59.6 103.11 51.94 99.74zM1 101.65a83.546 83.546 0 0 1 18.48 4.55c5.56 2.07 13.68 1.08 13.69 1.08a42.9 42.9 0 0 0-11.75-4.71C14.59 101.05 6.24 100 1 101.65zm41.26 14.28a42.449 42.449 0 0 0-10.53-3.49 27.357 27.357 0 0 0 8.63 9.05c3.88 2.37 6.91.48 18.16 9.29-1.87-5.27-9.82-11.61-16.26-14.85zM27.62 87.71c-6.43-2.85-14.48-5.35-20.87-4.55A51.01 51.01 0 0 1 25.68 92c3.67 2.72 13.06 3.71 13.06 3.73a34.913 34.913 0 0 0-11.12-8.02zM0 109.49c7.22.83 12.37 3.6 18.09 4.15 3.56.31 13.63-1.22 13.64-1.2a41.938 41.938 0 0 0-12-3.19c-7.39-.81-16.5-1.72-19.73.24zm35.69-7s8.22 6.64 11.71 7.89c5.05 1.77 11.51 4.19 19.21 7.45-5.27-5.13-10.34-7.87-17.6-11.3a58.403 58.403 0 0 0-13.32-4.04z"/><path d="M1.37 93.2a78.927 78.927 0 0 1 19.92 5.67c3.53 1.52 14.41 3.59 14.4 3.62a38.38 38.38 0 0 0-11.81-7.34c-7.69-2.77-17.4-4.92-22.51-1.95zm43.93 17.97a47.452 47.452 0 0 0-12.18-3.89s5.41 5 10.48 7.18a185.963 185.963 0 0 1 21.13 10.23c-2.11-3.97-11.56-9.62-19.43-13.52zM19.86 58.19a50.704 50.704 0 0 1 18.21 11.36c2.91 2.72 12.95 4.22 12.95 4.24A83.412 83.412 0 0 0 40.96 66c-5.94-4-13.75-7.85-21.1-7.81zm73.41-39.06c-2.08-3.6-5.39-7.05-11.91-10.13 4.7 4.56 5.37 10.17 6.77 13.79 2.2 5.72 6.49 7.35 6.49 7.35s1.11-6.76-1.35-11.01zm-7.79 7.46a29.998 29.998 0 0 0-16.29-10.15 23.629 23.629 0 0 1 10.53 13c1.45 4.42 7.66 6.09 7.65 6.1s.92-5.68-1.89-8.95zm15.54-12.17c-.84-3.69-2.37-7.88-7.29-10.63 2.36 3.2 1.41 9.25 2.08 13.21 1.11 6.59 4.76 9.59 4.76 9.59s1.7-6.72.45-12.17zm-3.24 23.25a28.601 28.601 0 0 0-10.37-2.11s-.06 4.84 6.35 7c6 2 14.58 2.72 19.18 5.89a44.074 44.074 0 0 0-15.16-10.78zm4.95-6.09a23.38 23.38 0 0 0-8.11-1.44s1 3.42 5.92 5.48c4.12 1.72 10.4 2 16.48 5.8-3.75-4.7-9.08-7.86-14.29-9.84zm.45-6.58 4.46-2.57c8.67.21 24.19-11.08 24.26-11.05s-8.67 2.89-16.27 5.29c-7.09 2.24-8 5.59-8 5.58l-4.5 2.75a72.662 72.662 0 0 0 8.19 2.32c5.59.94 13.05.61 18.37 3.57-2.21-2.3-7.86-5.93-15-7s-11.05.86-11.51 1.11z"/><path d="M110.98 0c-.73 4.75-6 10.27-7.12 15.27a33.348 33.348 0 0 0-.73 9.76 50.001 50.001 0 0 0 6.77-11.78c1.58-4.11 1.45-7.83 1.08-13.25zm-10.41 26.59s1.28 3.2 6 4.79c3.85 1.29 10.83 2 17.38 5.12a57.309 57.309 0 0 0-15.22-8.21 25.701 25.701 0 0 0-8.16-1.7zM90.48 43.17c-4.48-2-10.6-1.82-10.59-1.82a12.13 12.13 0 0 0 7.41 7.49c4.59 1.79 9.22 1.08 19.52 6.16-4.68-5.69-9.42-8.79-16.34-11.83zm-35.6 8.89C50.1 48.22 43 43.85 35.01 42.82c5.73 3.14 10.94 8.53 14.54 13.54 2.94 4.06 11.23 5.16 11.23 5.17s-1.75-6.15-5.9-9.47zm5.93-6.87c-5-4.27-10.53-10.14-17.7-11.06 5.17 2.79 9.17 10.35 12.89 15.66a14.4 14.4 0 0 0 9.48 5.57 14.273 14.273 0 0 0-4.67-10.17zm-.03 16.34a15 15 0 0 0 9.19 7.76c5.78 1.82 9.37 2.84 17.51 5.71-5.42-4.83-8.83-8.62-15-10.86a51.886 51.886 0 0 0-11.7-2.61z"/><path d="M65.48 55.36a17.09 17.09 0 0 0 9.71 7.29c4.57 1.44 11.38 1.23 18.83 4.18a42.267 42.267 0 0 0-16.37-10.32c-5.17-1.82-12.17-1.16-12.17-1.15zm12.26-23.68a29.609 29.609 0 0 0-15.68-10.87c3.92 2.9 6.46 8.6 9.33 13a22.892 22.892 0 0 0 8.54 7.57s.74-5.55-2.19-9.7zM67.69 38c-5-4.45-7.93-7.75-14.09-8.92 5.52 3.66 6.3 7.09 9.43 12.92 2.68 5.13 10.09 5.79 10.09 5.8a17.705 17.705 0 0 0-5.43-9.8zm5.43 9.81s1.53 5 8.46 7c4.8 1.43 11.51 2.18 19.19 5.66-5.25-4.47-11.8-8.86-17.08-10.75-6.75-2.39-10.57-1.91-10.57-1.91z"/><path d="M108.76 21.73c.09-.68-64.88 27.62-85.18 106.91l5.07 1.37c14.06-50.28 37.94-81.8 80.11-108.28z"/></g></svg></g><g transform="translate(1379.0 475.0) rotate(0.0 -56.0 56.0) scale(-0.849128127369219 0.856400061171433)"><svg width="131.9" height="130.78" viewBox="0 0 131.9 130.78"><g fill="#013b84"><path d="M42.69 88.81a21.16 21.16 0 0 0 11.3 9.34c5.47 2 12.83 3.66 21 6.84-5.48-4.31-13.72-8.63-20.4-11.65a107.551 107.551 0 0 0-11.9-4.53zm-10.54-7.48c-7-3.35-15.69-6.4-21.46-5.39 6.2 1.39 13.13 5.56 18.56 9.56 3.31 2.41 13.44 3.29 13.44 3.31a35.937 35.937 0 0 0-10.54-7.48zm3.33-7.99c-6.92-3.33-15.4-5.66-20.48-5.44 5 1.57 13.71 5.32 18.37 11.13 3 3.71 12.93 2.63 12.94 2.64a33.908 33.908 0 0 0-10.83-8.33zm20.44-6.77a12.721 12.721 0 0 0 7.84 8.9c5.55 2.13 13.5 1.78 22.51 5.78-8.54-6.08-13.65-9.64-20.54-11.67-6.02-1.77-9.82-3.01-9.81-3.01z"/><path d="M46.27 81.67a13.64 13.64 0 0 0 7.78 8.84c5.62 2.28 14.26 3.4 23.74 7.09-5.49-4.52-14.14-9.33-20.69-12.54a43.397 43.397 0 0 0-10.83-3.39zm.14-25.03A40.092 40.092 0 0 0 27 47.43c4.73 1.51 9 8.2 14.06 13.51 4.09 4.3 14.85 5.61 14.86 5.63a62.495 62.495 0 0 0-9.51-9.93zm4.61 17.15s2.57 7.55 8 9.53c5.72 2.08 13.86 3.81 22.45 7.21A98.131 98.131 0 0 0 60.88 78.3c-4.92-2.22-9.86-4.52-9.86-4.51zm.92 25.95a66.161 66.161 0 0 0-13.2-4c.25 2.7 9.67 8.33 12.17 9a135.432 135.432 0 0 1 20.57 7.35C68.7 108 59.6 103.11 51.94 99.74zM1 101.65a83.546 83.546 0 0 1 18.48 4.55c5.56 2.07 13.68 1.08 13.69 1.08a42.9 42.9 0 0 0-11.75-4.71C14.59 101.05 6.24 100 1 101.65zm41.26 14.28a42.449 42.449 0 0 0-10.53-3.49 27.357 27.357 0 0 0 8.63 9.05c3.88 2.37 6.91.48 18.16 9.29-1.87-5.27-9.82-11.61-16.26-14.85zM27.62 87.71c-6.43-2.85-14.48-5.35-20.87-4.55A51.01 51.01 0 0 1 25.68 92c3.67 2.72 13.06 3.71 13.06 3.73a34.913 34.913 0 0 0-11.12-8.02zM0 109.49c7.22.83 12.37 3.6 18.09 4.15 3.56.31 13.63-1.22 13.64-1.2a41.938 41.938 0 0 0-12-3.19c-7.39-.81-16.5-1.72-19.73.24zm35.69-7s8.22 6.64 11.71 7.89c5.05 1.77 11.51 4.19 19.21 7.45-5.27-5.13-10.34-7.87-17.6-11.3a58.403 58.403 0 0 0-13.32-4.04z"/><path d="M1.37 93.2a78.927 78.927 0 0 1 19.92 5.67c3.53 1.52 14.41 3.59 14.4 3.62a38.38 38.38 0 0 0-11.81-7.34c-7.69-2.77-17.4-4.92-22.51-1.95zm43.93 17.97a47.452 47.452 0 0 0-12.18-3.89s5.41 5 10.48 7.18a185.963 185.963 0 0 1 21.13 10.23c-2.11-3.97-11.56-9.62-19.43-13.52zM19.86 58.19a50.704 50.704 0 0 1 18.21 11.36c2.91 2.72 12.95 4.22 12.95 4.24A83.412 83.412 0 0 0 40.96 66c-5.94-4-13.75-7.85-21.1-7.81zm73.41-39.06c-2.08-3.6-5.39-7.05-11.91-10.13 4.7 4.56 5.37 10.17 6.77 13.79 2.2 5.72 6.49 7.35 6.49 7.35s1.11-6.76-1.35-11.01zm-7.79 7.46a29.998 29.998 0 0 0-16.29-10.15 23.629 23.629 0 0 1 10.53 13c1.45 4.42 7.66 6.09 7.65 6.1s.92-5.68-1.89-8.95zm15.54-12.17c-.84-3.69-2.37-7.88-7.29-10.63 2.36 3.2 1.41 9.25 2.08 13.21 1.11 6.59 4.76 9.59 4.76 9.59s1.7-6.72.45-12.17zm-3.24 23.25a28.601 28.601 0 0 0-10.37-2.11s-.06 4.84 6.35 7c6 2 14.58 2.72 19.18 5.89a44.074 44.074 0 0 0-15.16-10.78zm4.95-6.09a23.38 23.38 0 0 0-8.11-1.44s1 3.42 5.92 5.48c4.12 1.72 10.4 2 16.48 5.8-3.75-4.7-9.08-7.86-14.29-9.84zm.45-6.58 4.46-2.57c8.67.21 24.19-11.08 24.26-11.05s-8.67 2.89-16.27 5.29c-7.09 2.24-8 5.59-8 5.58l-4.5 2.75a72.662 72.662 0 0 0 8.19 2.32c5.59.94 13.05.61 18.37 3.57-2.21-2.3-7.86-5.93-15-7s-11.05.86-11.51 1.11z"/><path d="M110.98 0c-.73 4.75-6 10.27-7.12 15.27a33.348 33.348 0 0 0-.73 9.76 50.001 50.001 0 0 0 6.77-11.78c1.58-4.11 1.45-7.83 1.08-13.25zm-10.41 26.59s1.28 3.2 6 4.79c3.85 1.29 10.83 2 17.38 5.12a57.309 57.309 0 0 0-15.22-8.21 25.701 25.701 0 0 0-8.16-1.7zM90.48 43.17c-4.48-2-10.6-1.82-10.59-1.82a12.13 12.13 0 0 0 7.41 7.49c4.59 1.79 9.22 1.08 19.52 6.16-4.68-5.69-9.42-8.79-16.34-11.83zm-35.6 8.89C50.1 48.22 43 43.85 35.01 42.82c5.73 3.14 10.94 8.53 14.54 13.54 2.94 4.06 11.23 5.16 11.23 5.17s-1.75-6.15-5.9-9.47zm5.93-6.87c-5-4.27-10.53-10.14-17.7-11.06 5.17 2.79 9.17 10.35 12.89 15.66a14.4 14.4 0 0 0 9.48 5.57 14.273 14.273 0 0 0-4.67-10.17zm-.03 16.34a15 15 0 0 0 9.19 7.76c5.78 1.82 9.37 2.84 17.51 5.71-5.42-4.83-8.83-8.62-15-10.86a51.886 51.886 0 0 0-11.7-2.61z"/><path d="M65.48 55.36a17.09 17.09 0 0 0 9.71 7.29c4.57 1.44 11.38 1.23 18.83 4.18a42.267 42.267 0 0 0-16.37-10.32c-5.17-1.82-12.17-1.16-12.17-1.15zm12.26-23.68a29.609 29.609 0 0 0-15.68-10.87c3.92 2.9 6.46 8.6 9.33 13a22.892 22.892 0 0 0 8.54 7.57s.74-5.55-2.19-9.7zM67.69 38c-5-4.45-7.93-7.75-14.09-8.92 5.52 3.66 6.3 7.09 9.43 12.92 2.68 5.13 10.09 5.79 10.09 5.8a17.705 17.705 0 0 0-5.43-9.8zm5.43 9.81s1.53 5 8.46 7c4.8 1.43 11.51 2.18 19.19 5.66-5.25-4.47-11.8-8.86-17.08-10.75-6.75-2.39-10.57-1.91-10.57-1.91z"/><path d="M108.76 21.73c.09-.68-64.88 27.62-85.18 106.91l5.07 1.37c14.06-50.28 37.94-81.8 80.11-108.28z"/></g></svg></g><g transform="translate(388.0 24.0) rotate(0.0 127.5 132.0) translate(129.0 0.0) scale(0.7522123893805309 0.7521367521367521)"><svg width="166.176" height="351" viewBox="171.494 0 166.176 351"><path d="M77 252.3c4 4.9 7.6 10 11.2 15.2 3.6 5.2 7 10.4 10.3 15.8 3.3 5.3 6.5 10.8 9.5 16.3s5.9 11.1 8.6 16.7l-3.4 1.6c-2.6-5.6-5.3-11.2-8.2-16.7-2.9-5.5-5.9-10.9-9.1-16.3-3.2-5.4-6.5-10.6-9.9-15.8-3.4-5.2-7-10.3-10.8-15.2l1.8-1.6z" style="fill:#93c3ff"/><path d="M90.7 112.7c2.8 4.9 5.3 10 7.6 15.1 2.2 5.2 4.2 10.5 5.9 15.9 1.6 5.4 2.9 11 3.6 16.7.6 5.7.7 11.5-.2 17.3l-3.9-.7c.9-5.3 1-10.7.5-16.2-.5-5.4-1.7-10.8-3.1-16.2-1.5-5.3-3.3-10.5-5.4-15.7-2.1-5.1-4.4-10.2-7-15l2-1.2z" style="fill:#c0d1ff"/><path d="M237.1 159.1c-2.6 3.4-5.1 7-7.3 10.7-2.3 3.7-4.3 7.5-6.2 11.4-1.9 3.9-3.5 7.9-5 12s-2.5 8.2-3.4 12.4l-3.8-.8c1-4.4 2.2-8.7 3.9-12.9 1.6-4.2 3.4-8.2 5.5-12.2 2.1-3.9 4.3-7.8 6.7-11.5 2.4-3.7 5-7.3 7.8-10.8l1.8 1.7z" style="fill:#93c3ff"/><path d="M129.6 87.2c-6.1-2.6-9.7 6.2-14.9 11.4-5.3 5.3-8.8 5.3-8.8 1.8s8.8-10.5 15.9-15.8c7-5.3 5.4-14 3.7-20.9-1.7-7-9.5-7.8-10.5.1-.9 7.8-6.2 13.1-10.6 17.5-4.4 4.4-11.3-2.5-5.2-8.7 6.2-6.1 11.5-13.2 10.7-24.5-.8-11.2-6.9-15.6-10.4-14.1s-3.6 16-6.3 20.4c-2.7 4.4-12.3 3.6-4.3-4.3s6.3-18.3 4.8-21.5c-1.4-3.2-8.9-10.7-12.5-7.1-3.5 3.5-1.9 15.7-1.1 21.8.8 6.1-4.4 4.4-5.2 0-.8-4.3-5.1-20.8-10.3-22.5-5.2-1.7-13.1-.8-14.1 8.8-1 9.6 3.4 13.9 8.6 19.1s10.4 10.4 6 13c-4.4 2.7-13.9-10.3-17.4-13.8-3.5-3.5-6.1.9-7.9 7.9-1.8 7 7.8 11.2 13.9 13.8s17.4 10.3 15.6 13.8c-1.8 3.5-15.7-3.4-26.1-8.5-10.4-5.1-8.8 8.8-8 14.9.8 6.1 10.4 8.6 15.7 8.6 5.2 0 16.6 2.5 17.4 6.8s-13.1 1-21.9 1.1-8.8 3.6-5.3 10.5c3.4 6.9 17.4 3.3 23.6 2.4 6.1-.9 6.1.8.8 6.1s-11.4 1-13.7 3.3c-2.3 2.3-.3 7.3 9 8.9s14.3-6.9 14.3-6.9 0 4.2 6.1 6.8c6.1 2.6 7.9-6.2 8.8-12.3.9-6.1 6.1-2.7 6.1-2.7s4.4 2.6 6.9 5.2c2.6 2.6 8.7 3.4 10.5-.1 1.8-3.5-5.2-6.9-4.3-11.3.9-4.4 12.3-5.3 20.2-9.7 8-4.6 6.3-16.8.2-19.3zm-54.9 6.7c-.3 1.9-2.5 3.2-4.7 2.8-2.3-.4-3.8-2.3-3.5-4.2.3-1.9 2.5-3.2 4.7-2.8 2.3.3 3.8 2.2 3.5 4.2zM91 69.8c-1.5.6-3.2 0-3.7-1.3s.3-2.9 1.9-3.4c1.5-.6 3.2 0 3.7 1.3s-.3 2.8-1.9 3.4z" style="fill:#c0d1ff"/><path d="M112.3 261.3c-4.7-6.7-17.3-3.4-17.7-3.3.3-.2 5.4-3.4 3.3-8.6-2.2-5.4-8.8-1.1-13.2 2.2-4.4 3.2-5.5-2.2-5.5-2.2s-1.1-4.3-1.1-7.5-3.3-7.5-6.6-6.5c-3.3 1.1-1.1 7.5-4.4 9.7-3.3 2.2-11-4.3-18.7-6.5-7.7-2.2-14.3 6.5-12.1 11.8 2.2 5.4 9.9 2.2 16.5 2.2s7 2.7 4.8 4.8c-2.2 2.2-10.3.6-17.9-.5-7.7-1.1-12.1 5.4-15.4 10.8-3.3 5.4 1.1 10.8 6.6 6.5 5.5-4.3 12.1-4.3 17.6-4.3s5.5 8.6-2.2 8.6-15.4 1.1-22 8.6-5.5 14-2.4 15.2c3.1 1.3 12.3-7.7 16.7-8.8 4.4-1.1 9.9 5.4 0 5.4s-15.4 7.5-16.5 10.4c-1.1 2.9-1.1 12.2 3.3 12.2s11-8.6 14.3-12.9c3.3-4.3 5.5 0 3.3 3.2s-9.9 16.1-7.7 20.4c2.2 4.3 7.7 8.6 14.3 3.2 6.6-5.4 6.6-10.8 6.6-17.2s0-12.9 4.4-11.8c4.4 1.1 2.2 15.1 2.2 19.4 0 4.3 4.4 3.2 9.9 0s2.2-11.8 0-17.2c-2.2-5.4-4.4-17.2-1.1-18.3 3.3-1.1 7.7 11.8 11 21.5s11 0 14.3-4.3c3.3-4.3-1.1-11.8-4.4-15.1-3.3-3.2-8.8-11.8-6.6-15.1 2.2-3.2 8.8 7.5 14.3 12.9s7.7 3.2 9.9-3.2-8.8-12.9-13.2-16.1c-4.4-3.2-3.3-4.3 3.3-4.3s7.7 6.5 10.6 6.5c2.8 0 6.3-5 1.5-11.8zM52 289.2c-1.5.6-3.2 0-3.7-1.3s.3-2.9 1.9-3.4c1.5-.6 3.2 0 3.7 1.3.5 1.2-.4 2.8-1.9 3.4zm7.6-21.4c-2.3.1-4.3-1.3-4.4-3.3-.1-2 1.6-3.7 3.9-3.8 2.3-.1 4.3 1.3 4.4 3.3.2 1.9-1.6 3.6-3.9 3.8zm17.7 14.4c-1.6 0-3-1.1-3-2.5s1.3-2.6 3-2.6 3 1.1 3 2.6c0 1.4-1.3 2.5-3 2.5zM280.7 147c-5.5 4.2-12.1 4.2-17.6 4.2-5.5 0-5.5-8.4 2.2-8.4s15.4-1 22-8.4c6.6-7.3 5.5-13.6 2.4-14.8-3.1-1.2-12.3 7.5-16.7 8.6-4.4 1.1-9.9-5.2 0-5.2s15.4-7.3 16.5-10.1c1.1-2.8 1.1-11.9-3.3-11.9s-11 8.4-14.3 12.6c-3.3 4.2-5.5 0-3.3-3.1s9.9-15.7 7.7-19.9c-2.2-4.2-7.7-8.4-14.3-3.1-6.6 5.2-6.6 10.5-6.6 16.8s0 12.6-4.4 11.5c-4.4-1-2.2-14.7-2.2-18.9 0-4.2-4.4-3.1-9.9 0s-2.2 11.5 0 16.8c2.2 5.2 4.4 16.8 1.1 17.8-3.3 1.1-7.7-11.5-11-21-3.3-9.4-11 0-14.3 4.2-3.3 4.2 1.1 11.5 4.4 14.7 3.3 3.1 8.8 11.5 6.6 14.7-2.2 3.1-8.8-7.3-14.3-12.6-5.5-5.2-7.7-3.1-9.9 3.1s8.8 12.6 13.2 15.7c4.4 3.1 3.3 4.2-3.3 4.2s-7.7-6.3-10.6-6.3c-2.9 0-4.8 4.2 0 10.8 4.7 6.5 15.6 4 16.1 3.9-.3.2-5.4 3.3-3.3 8.4 2.2 5.2 8.8 1 13.2-2.1 4.4-3.1 5.5 2.1 5.5 2.1s1.1 4.2 1.1 7.3 3.3 7.3 6.6 6.3 1.1-7.3 4.4-9.4c3.3-2.1 11 4.2 18.7 6.3 7.7 2.1 14.3-6.3 12.1-11.5s-9.9-2.1-16.5-2.1-8.8-2.1-6.6-4.2c2.2-2.1 12.1-1 19.8 0 7.7 1.1 12.1-5.2 15.4-10.5 3.3-5.4-1.1-10.7-6.6-6.5zm-31.4 11.1c-2.9 0-5.3-1.6-5.3-3.6s2.4-3.6 5.3-3.6c3 0 5.3 1.6 5.3 3.6.1 2-2.3 3.6-5.3 3.6z" style="fill:#93c3ff"/></svg></g><g transform="translate(571.0 323.0) rotate(0.0 206.0 429.5) scale(2.6857887874837028 2.694479297365119)"><svg width="153.4" height="318.8" viewBox="0 0 153.4 318.8"><path d="M65.3 174.6c-.3 0-.5-.2-.5-.5v-39.9c0-.3.2-.5.5-.5s.5.2.5.5v39.9c0 .3-.2.5-.5.5z" fill="#53a0ff"/><path d="M66.3 177.2h-1.9c-.6 0-1-.6-.7-1.2l1-1.9c.3-.6 1.1-.6 1.4 0l1 1.9c.2.6-.2 1.2-.8 1.2z" fill="#53a0ff"/><path d="M108.4 110.8H64.8l3-33.2 10.6-24.8 39-.2z" fill="#016eea"/><path d="m98.8 43.1-6.4 21.3-14-34.9 6.8-2.7 6-2.4s2.1 5.3 2.5 6.3z" fill="#99644c"/><path d="m75.5 48.6 28.9-6.6c8.4-1.9 15.7 5.9 13.3 14.1l-2.4 8z" fill="#016eea"/><path d="m133.7 302.1-10.4 3.6-3.6-10.4c-.7-1.9.3-3.9 2.2-4.6l3.6-1.2c1.9-.7 3.9.3 4.6 2.2z" fill="#2888ff"/><path d="M120.7 300.9s-2 7.2-2.9 8c-1.1.9-4.3 3.7-4.3 3.7l-2.3.6-.2 5.3 3.7-.4 13.3-7.8z" fill="#7eb8ff"/><path d="m112.6 208 15.1 30.8c.7 1.5 1.3 3.2 1.5 4.8l8.6 60.1s-11.9 2.6-11.4 2.4L104 246.4 99.9 218z" fill="#99644c"/><path d="m123.1 310.5 18.5-2.4-.3-2.6c-.4-2.6-1.3-5-2.6-7.3l-2.5-4.4-14.6 8.3z" fill="#7eb8ff"/><path d="m136.4 292.6 1.2 7.1c-.4.1-10.5 8-10.7 8.4l-1.5 2.1-5.4-7 1.7-6.4c.3-1 1.2-1.8 2.2-2z" fill="#7eb8ff"/><ellipse cx="125" cy="303.3" fill="#a9cfff" rx="3.4" ry="1.6" transform="matrix(-.1672 -.9859 .9859 -.1672 -153.1093 477.2092)"/><path d="m123.4 312.1-11.8 6.6h18l12-7.4c.6-.4.3-1.3-.4-1.2z" fill="#016eea"/><path d="m142 310.6-.5-2.8-.1-.1c-.5-.3-1.1-.4-1.8-.4l-7.3.9c-2.3.3-4.5 1-6.6 2.2l-9.2 5.3-6.4.2.5 2.8h6l10-5.6c2-1.1 4.2-1.8 6.5-2.1l6.9-.8c.5-.1 1 0 1.5.2z" fill="#a9cfff"/><path d="m80 130.9-6.3 20.3 28 76.5s13.4-7.7 13.4-8.2l-11.4-87.7z" fill="#99644c"/><path d="m90.6 45.3-14 2.9c-5.2 1.1-8.9 5.7-8.9 11v40.7z" fill="#016eea"/><path d="M74.4 10.7h8.5v10.8h-8.5z" fill="#99644c"/><path d="M82.3 2.9h5.8v21.7h-5.8z"/><path d="m90.6 28.9-6.5 2.9V4.1c0-1.6 1.3-2.9 2.9-2.9h1.3c6.3 0 11.1 5.6 10.2 11.8l-1 6.9c-.7 3.9-3.2 7.3-6.9 9z"/><path d="M70.3 11.4v5.2c0 .2 0 .4.1.5l.7 1.7c.2.6.1 1.2-.4 1.6l-.4.4v10c0 1.6 1.3 2.9 3 2.9l18.6-.1-.1-6.3z" fill="#99644c"/><path d="M84.7 20.2H89v6.5h-4.3z" fill="#99644c"/><path d="M88.8 21.5h-6.7v-6.7h6.7c1.5 0 2.7 1.2 2.7 2.7v1.3c0 1.6-1.2 2.7-2.7 2.7z" fill="#99644c"/><path d="M76.9 9h8.7v4.5c1.4.1 2.7.2 2.9.1.3-.1-2.9 3.4-4.8 5.6-.5.6-1.5.2-1.5-.6v-2.9c0-.5-.4-.9-.9-.9h-4.4z"/><path d="M80.3 1.7h.4c1.6 0 2.9 1.3 2.9 2.9v10.2H70V12c0-5.6 4.6-10.3 10.3-10.3z" fill="#99644c"/><path d="M92.7 5.4H82.4v19.8c0 3.2 2.6 5.9 5.9 5.9h4.4z"/><path d="M85.9 2.1H73.8V9c0 3.2 2.6 5.9 5.9 5.9h6.2z"/><path d="m79.5 205.3 1.8 34c.1 1 .2 2 .4 2.9l14.6 61h13.6l-3.5-63.9c-.1-1.9-.5-3.7-1.2-5.4l-10-24.1z" fill="#99644c"/><path d="M68.3 121.2 63.4 140c-.3 1-.3 2 0 3l16.7 71.6s16.5 1.4 16.5.9l-2.8-51.7-1.7-41.8z" fill="#99644c"/><path d="M94.8 305h3.9l-1.3-7.3c-.2-1.3-1.4-2.3-2.8-2.3H93z" fill="#a9cfff"/><path d="M96.3 303h13.4v4.9H96.3z" fill="#99644c"/><path d="M93.8 316.2h18.8v-1.9c0-2.6-.4-5.1-1.3-7.6l-1.7-4.7-15.8 5.8z" fill="#7eb8ff"/><path d="M109.9 300.8v7.2c-.4 0-11.7 6.1-12 6.4l-1.8 1.8h-22l.7-2c.4-1 1.2-1.8 2.3-2.1l11.6-2.8c2.2-.5 4.1-1.8 5.5-3.6l2.7-3.6c.6-.8 1.6-1.3 2.6-1.3z" fill="#7eb8ff"/><path d="M74.1 315.9h38.6v2.9H74.1z" fill="#a9cfff"/><circle cx="105.3" cy="310" fill="#a9cfff" r="3.4"/><path d="M113.3 202.7H76l-13.3-59.2h51.1z" fill="#3d94ff"/><path d="M108.4 110.3H64.8l-2.1 33.2h51.1z" fill="#016eea"/><path d="M74.7 34.3h5.5v-14h-8.4c-1.2 0-2.2 1-2.2 2.2v6.7c-.1 2.8 2.2 5.1 5.1 5.1z" fill="#99644c"/><path d="m72.2 42.3 29.7-8.5c1.2-.3 2-1.4 2-2.7V11.2C103.9 5 98.9 0 92.7 0H81.2c-5 0-9 4-9 9z" fill="#002652"/><path d="M69.1 14.9h20.5V0h-9.8C73.4 0 68 5.3 68 11.9v1.9c0 .6.5 1.1 1.1 1.1z" fill="#002652"/><g fill="#99644c"><path d="m148.6 36.6-6.9 1.3v43.6c0 2.9 2.3 5.2 5.1 5.3 2.8.1 5.2-2 5.5-4.7l1-9.8c.2-1.7.1-3.4-.1-5.1zM12.4 108.9l-1.7.9-1.1.6-5.7-3.6c-.2-.1-.3-.4-.2-.6.4-.5 1.1-.7 1.9-.5l.5.2z"/><path d="m12.7 108.1.5.3h-.1l-.8.4-1.7.9-4.4-3.7-.4-.4c-.2-.1-.2-.4-.1-.6.4-.5 1.2-.6 1.9-.2z"/><path d="m15.6 107.2-2.4 1.3h-.1l-.4-.4-4-3.3c-.2-.1-.2-.4-.1-.6.4-.5 1.2-.6 1.9-.2zm134-72.9-.1 8.4-4.3-2-.3-.1c-1.2-.2-2.3-.7-3.2-1.4s-1.7-1.5-2.3-2.6L133.1 26c-.2-.2-.1-.5.1-.7l.1-.1c.5-.4 1.2-.3 1.6.2l3.9 4c.2.2.4.3.6.3.7.2 1.4-.2 1.6-.9l2.9-8.5 1.6.9c.7.4 1.2 1.2 1.3 2 0 .7.1 1.3.3 2l1.7 5.9c.1.5.3.9.6 1.3.1.8.2 1.3.2 1.9z"/><path d="M145.4 11.7c-.7.1-1.3.7-1.4 1.5l-.9 12.6 3.6 2-.9-15.7c0-.2-.2-.4-.4-.4z"/></g><path d="m149.2 74.1-19.8-14.5L115 45.3l-5.6 19.1 26.4 15.9 6.3 4.1c2.9 1.9 6.8 1 8.6-1.9 1.8-2.8 1.1-6.5-1.5-8.4z" fill="#016eea"/><path d="M92.3 202.7h-1.2c-2.9 0-5.3-2.2-5.6-5.1l-1.8-21.2v21.1c0 2.9-2.3 5.2-5.2 5.2v5.1h13.8zM19.4 101.5l2.5-6.5 46.3 8.5-2.8 8.1c-.5 1.3-1.7 2.1-3.1 2l-9.2-.8c-1.5-.1-2.9-.4-4.3-.9z" fill="#99644c"/><path d="m67.3 106.8 15.3-38.3 2-11.6-16.7 2.2-12.1 42z" fill="#016eea"/><path d="m83.6 46.8 17.4-3.9 13.9 24.9L80 76.5z" fill="#016eea"/><path d="m89.5 47.2 9-3.1c.3-.1.5-.4.3-.7l-2.3-5.7-13 4.4 1.2 2.9c.7 1.9 2.8 2.8 4.8 2.2z" fill="#99644c"/><path d="m77.8 48 24.4-5.1L117.6 53l-7.8 18c-1.6 3.7-6.5 4.6-9.3 1.6z" fill="#3d94ff"/><path d="m80.9 47.3 21-4.9L117.6 53z" fill="#53a0ff"/><path d="M10.6 104c-.7-.4-1.5-.3-1.9.2-.1.2-.1.4.1.6l4 3.3-5.2-3.3c-.7-.4-1.5-.3-1.9.2-.1.2-.1.4.1.6l.4.4-.5-.2c-.7-.3-1.5-.1-1.9.5-.1.2 0 .4.2.6l5.7 3.6 1.1-.6 1.7-.9.8-.4h.1l2.4-1.3z" fill="#1d2445" opacity=".1"/><path d="m37.7 107.7-8.9-3.2c-1.4-.6-3-.6-4.4.2l-1.3.7-5.6 3.5c-.7.4-1.4.6-2.2.4l-2.2-.4-3 1.9c-.7.4-1.4.7-2.3.8l-7.4 1c-.2 0-.4-.1-.5-.3-.1-.8.4-1.5 1.2-1.7l6.6-1.9 6.2-5.1.9-1.3c.1-.2.1-.4 0-.5-.1-.2-.3-.2-.5-.2-1.2.4-4.9 1.8-5.5 2s-1.3-.1-1.5-.7c-.2-.5 0-1.1.5-1.4 0 0 2.8-1.6 4.6-2.6.6-.3 1.2-.8 1.7-1.3.8-.8 1.9-1.4 3-1.7l3.2-.7c1.8-.4 3.6-.8 5.8.5l5.4 1.8z" fill="#99644c"/></svg></g></svg>