<svg xmlns="http://www.w3.org/2000/svg" viewBox="0 0 800 600" width="800" height="600"><g transform="translate(94.0 66.0) rotate(0.0 163.5 95.0) translate(0.0 0.0) scale(0.999245218443561 0.9995423148347863)"><svg width="327.247" height="168.077" viewBox="0 0 327.247 168.077"><path d="M195.539 125.325h-63.831v51.536l32.13-2.128 31.701 2.128z" fill="#fff"/><path d="m195.539 177.361-.034-.001-31.701-2.128-32.063 2.128a.5.5 0 0 1-.533-.499v-51.536a.5.5 0 0 1 .5-.5h63.831a.5.5 0 0 1 .5.5v51.536a.5.5 0 0 1-.5.5zm-63.331-51.536v50.502l31.597-2.093 31.234 2.092v-50.501z" fill="#1d2445"/><path d="M.5.5h326.247v167.379H.5z" fill="#fff"/><path d="M326.747 168.379H.5a.5.5 0 0 1-.5-.5V.5A.5.5 0 0 1 .5 0h326.247a.5.5 0 0 1 .5.5v167.378a.5.5 0 0 1-.5.501zM1 167.379h325.247V1H1z" fill="#1d2445"/><path d="M9.011 7.703h309.225v152.972H9.011z" fill="#fff"/><path d="M318.236 161.175H9.011a.5.5 0 0 1-.5-.5V7.703a.5.5 0 0 1 .5-.5h309.225a.5.5 0 0 1 .5.5v152.972a.5.5 0 0 1-.5.5zm-308.725-1h308.225V8.203H9.511z" fill="#1d2445"/><path d="M237.738 189.587c-.369 0-.743-.082-1.096-.254-14.142-6.915-42.121-11.211-73.019-11.211s-58.878 4.296-73.019 11.211a2.501 2.501 0 0 1-2.196-4.492c14.782-7.229 43.603-11.719 75.215-11.719s60.433 4.49 75.215 11.719a2.501 2.501 0 0 1-1.1 4.746z" fill="#fff"/><path d="M237.738 190.087c-.459 0-.902-.103-1.316-.305-14.078-6.884-41.973-11.16-72.799-11.16-30.827 0-58.722 4.276-72.799 11.16a2.988 2.988 0 0 1-1.316.305 2.983 2.983 0 0 1-2.697-1.682 3.004 3.004 0 0 1 1.377-4.013c14.846-7.26 43.751-11.77 75.435-11.77s60.588 4.51 75.435 11.77a3.003 3.003 0 0 1 1.377 4.013 2.982 2.982 0 0 1-2.697 1.682zm-74.114-12.465c30.969 0 59.032 4.315 73.238 11.262.973.477 2.203.047 2.675-.918.484-.99.072-2.19-.918-2.675-14.718-7.197-43.454-11.668-74.995-11.668s-60.278 4.471-74.996 11.668a2.002 2.002 0 0 0-.918 2.675c.473.966 1.7 1.395 2.676.918 14.204-6.947 42.268-11.262 73.238-11.262z" fill="#1d2445"/></svg></g><g transform="translate(456.0 74.0) rotate(0.0 121.0 195.5) scale(0.9996488836565669 0.9995475194093721)"><svg width="242.085" height="391.177" viewBox="0 0 242.085 391.177"><path d="M8 383.177V121.042C8 58.711 58.71 8 121.042 8s113.042 50.71 113.042 113.042v262.135z" fill="#fff"/><path d="M234.085 383.677H8a.5.5 0 0 1-.5-.5V121.042C7.5 58.435 58.435 7.5 121.042 7.5s113.542 50.935 113.542 113.542v262.135a.499.499 0 0 1-.499.5zm-225.585-1h225.085V121.042C233.585 58.986 183.099 8.5 121.042 8.5S8.5 58.986 8.5 121.042z" fill="#1d2445"/><path d="M121.043.5C54.469.5.5 54.469.5 121.042v269.635h241.084V121.042C241.585 54.469 187.616.5 121.043.5zm105.524 119.105h-33.9V43.599c20.517 18.99 33.497 46.005 33.9 76.006zm-177.149 7v79.682H15.5v-79.682zm75.124-7V15.564c22.976.753 44.115 8.882 61.124 22.094v81.947zm61.125 7v79.682h-61.124v-79.682zm-68.125-7H56.418V37.658c17.009-13.212 38.148-21.341 61.124-22.094zm0 7v79.682H56.418v-79.682zm-68.124 86.682v84.927H15.5v-84.927zm7 0h61.124v84.927H56.418zm68.124 0h61.124v84.927h-61.124zm68.125 0h33.918v84.927h-33.918zm0-7v-79.682h33.918v79.682zM49.418 43.599v76.006h-33.9c.403-30.001 13.383-57.016 33.9-76.006zM15.5 375.677v-70.463h33.918v70.463zm40.918-70.463h61.124v70.463H56.418zm68.124 70.463v-70.463h61.124v70.463zm68.125 0v-70.463h33.918v70.463z" fill="#fff"/><path d="M241.585 391.177H.5a.5.5 0 0 1-.5-.5V121.042C0 54.299 54.299 0 121.042 0s121.042 54.299 121.042 121.042v269.635a.499.499 0 0 1-.499.5zM1 390.177h240.085V121.042C241.085 54.851 187.234 1 121.042 1S1 54.851 1 121.042zm225.585-14h-33.918a.5.5 0 0 1-.5-.5v-70.463a.5.5 0 0 1 .5-.5h33.918a.5.5 0 0 1 .5.5v70.463a.5.5 0 0 1-.5.5zm-33.418-1h32.918v-69.463h-32.918zm-7.5 1h-61.124a.5.5 0 0 1-.5-.5v-70.463a.5.5 0 0 1 .5-.5h61.124a.5.5 0 0 1 .5.5v70.463a.5.5 0 0 1-.5.5zm-60.625-1h60.124v-69.463h-60.124zm-7.5 1H56.418a.5.5 0 0 1-.5-.5v-70.463a.5.5 0 0 1 .5-.5h61.124a.5.5 0 0 1 .5.5v70.463a.5.5 0 0 1-.5.5zm-60.624-1h60.124v-69.463H56.918zm-7.5 1H15.5a.5.5 0 0 1-.5-.5v-70.463a.5.5 0 0 1 .5-.5h33.918a.5.5 0 0 1 .5.5v70.463a.5.5 0 0 1-.5.5zm-33.418-1h32.918v-69.463H16zm210.585-76.463h-33.918a.5.5 0 0 1-.5-.5v-84.927a.5.5 0 0 1 .5-.5h33.918a.5.5 0 0 1 .5.5v84.927a.5.5 0 0 1-.5.5zm-33.418-1h32.918v-83.927h-32.918zm-7.5 1h-61.124a.5.5 0 0 1-.5-.5v-84.927a.5.5 0 0 1 .5-.5h61.124a.5.5 0 0 1 .5.5v84.927a.5.5 0 0 1-.5.5zm-60.625-1h60.124v-83.927h-60.124zm-7.5 1H56.418a.5.5 0 0 1-.5-.5v-84.927a.5.5 0 0 1 .5-.5h61.124a.5.5 0 0 1 .5.5v84.927a.5.5 0 0 1-.5.5zm-60.624-1h60.124v-83.927H56.918zm-7.5 1H15.5a.5.5 0 0 1-.5-.5v-84.927a.5.5 0 0 1 .5-.5h33.918a.5.5 0 0 1 .5.5v84.927a.5.5 0 0 1-.5.5zm-33.418-1h32.918v-83.927H16zm210.585-90.927h-33.918a.5.5 0 0 1-.5-.5v-79.682a.5.5 0 0 1 .5-.5h33.918a.5.5 0 0 1 .5.5v79.682a.5.5 0 0 1-.5.5zm-33.418-1h32.918v-78.682h-32.918zm-7.5 1h-61.124a.5.5 0 0 1-.5-.5v-79.682a.5.5 0 0 1 .5-.5h61.124a.5.5 0 0 1 .5.5v79.682a.5.5 0 0 1-.5.5zm-60.625-1h60.124v-78.682h-60.124zm-7.5 1H56.418a.5.5 0 0 1-.5-.5v-79.682a.5.5 0 0 1 .5-.5h61.124a.5.5 0 0 1 .5.5v79.682c0 .277-.223.5-.5.5zm-60.624-1h60.124v-78.682H56.918zm-7.5 1H15.5a.5.5 0 0 1-.5-.5v-79.682a.5.5 0 0 1 .5-.5h33.918a.5.5 0 0 1 .5.5v79.682c0 .277-.223.5-.5.5zm-33.418-1h32.918v-78.682H16zm210.566-85.682h-33.9a.5.5 0 0 1-.5-.5V43.599a.5.5 0 0 1 .84-.367c21.571 19.964 33.667 47.085 34.06 76.366a.498.498 0 0 1-.5.507zm-33.399-1h32.892c-.514-28.429-12.173-54.77-32.892-74.354zm-7.5 1h-61.124a.5.5 0 0 1-.5-.5V15.564c0-.135.055-.265.152-.359s.213-.155.364-.14c22.428.735 43.665 8.411 61.414 22.199a.5.5 0 0 1 .193.395v81.947a.498.498 0 0 1-.499.499zm-60.625-1h60.124V37.903c-17.406-13.458-38.18-20.997-60.124-21.821zm-7.5 1H56.418a.5.5 0 0 1-.5-.5V37.658a.5.5 0 0 1 .193-.395c17.75-13.788 38.986-21.464 61.414-22.199.144-.014.267.046.364.14s.152.224.152.359v104.041a.498.498 0 0 1-.499.501zm-60.624-1h60.124V16.082c-21.944.825-42.718 8.363-60.124 21.821zm-7.5 1h-33.9a.501.501 0 0 1-.5-.507c.394-29.281 12.49-56.401 34.061-76.366a.5.5 0 0 1 .84.367v76.006a.501.501 0 0 1-.501.5zm-33.392-1h32.893V44.752C28.2 64.335 16.541 90.676 16.026 119.105z" fill="#1d2445"/></svg></g><g transform="translate(94.0 66.0) rotate(0.0 163.5 84.0) scale(0.999245218443561 0.9977491254847696)"><svg width="327.247" height="168.379" viewBox="0 0 327.247 168.379"><path d="M.5.5h326.247v167.379H.5z" fill="#fff"/><path d="M326.747 168.379H.5a.5.5 0 0 1-.5-.5V.5A.5.5 0 0 1 .5 0h326.247a.5.5 0 0 1 .5.5v167.379a.5.5 0 0 1-.5.5zM1 167.379h325.247V1H1z" fill="#1d2445"/><path d="M9.011 7.703h309.225v152.972H9.011z" fill="#fff"/><path d="M318.236 161.175H9.011a.5.5 0 0 1-.5-.5V7.704a.5.5 0 0 1 .5-.5h309.225a.5.5 0 0 1 .5.5v152.972a.5.5 0 0 1-.5.499zm-308.725-1h308.225V8.204H9.511z" fill="#1d2445"/><path d="M159.861 7.696h1v139.881h-1z" fill="#1d2445"/><path d="M9.039 77.138h309.249v1H9.039zm.28 65.374h308.844v18.308H9.319z" fill="#1d2445"/><g fill="#fff"><path d="M74.394 147.577h7.173v7.173h-7.173zm41.843 0h7.173v7.173h-7.173zm83.685 0h7.173v7.173h-7.173zm45.429 7.173a3.587 3.587 0 1 1 0-7.174 3.587 3.587 0 0 1 0 7.174zm-83.685 0a3.587 3.587 0 1 1 0-7.174 3.587 3.587 0 0 1 0 7.174z"/></g></svg></g><g transform="translate(477.0 300.0) rotate(0.0 51.0 106.0) scale(0.9952093354538447 0.9954640646863818)"><svg width="102.491" height="212.966" viewBox="0 0 102.491 212.966"><path d="M47.123 110.77h8.467v73.606h-8.467z" fill="#fff"/><path d="M55.59 184.876h-8.467a.5.5 0 0 1-.5-.5V110.77a.5.5 0 0 1 .5-.5h8.467a.5.5 0 0 1 .5.5v73.606a.5.5 0 0 1-.5.5zm-7.967-1h7.467V111.27h-7.467z" fill="#1d2445"/><path d="M47.123 109.77h8.467v5.939h-8.467z" fill="#1d2445"/><path d="M55.59 116.209h-8.467a.5.5 0 0 1-.5-.5v-5.939a.5.5 0 0 1 .5-.5h8.467a.5.5 0 0 1 .5.5v5.939a.5.5 0 0 1-.5.5zm-7.967-1h7.467v-4.939h-7.467z" fill="#1d2445"/><path d="M87.663 112.072H15.05a5 5 0 1 1 0-10h72.612a5 5 0 0 1 .001 10z" fill="#fff"/><path d="M87.663 112.572H15.05c-3.033 0-5.5-2.468-5.5-5.5s2.467-5.5 5.5-5.5h72.612c3.033 0 5.5 2.468 5.5 5.5s-2.467 5.5-5.499 5.5zm-72.613-10c-2.481 0-4.5 2.019-4.5 4.5s2.019 4.5 4.5 4.5h72.612c2.481 0 4.5-2.019 4.5-4.5s-2.019-4.5-4.5-4.5z" fill="#1d2445"/><path d="M100.282 190.755c-15.224-5.777-31.667-8.771-48.87-8.897v.022l-.029-.022c-17.203.126-33.646 3.12-48.87 8.897l-1.291.49v9.067h4v-6.3c14.412-5.291 29.939-8.034 46.175-8.155 16.235.121 31.763 2.864 46.175 8.155v6.3h4v-9.067z" fill="#fff"/><g fill="#1d2445"><path d="M101.573 200.813h-4a.5.5 0 0 1-.5-.5v-5.95c-14.264-5.192-29.631-7.885-45.679-8.005-16.041.12-31.407 2.813-45.671 8.005v5.95a.5.5 0 0 1-.5.5h-4a.5.5 0 0 1-.5-.5v-9.067a.5.5 0 0 1 .322-.468l1.291-.49c15.282-5.799 31.782-8.804 49.043-8.93h.037c17.262.126 33.763 3.131 49.044 8.93l1.291.49a.5.5 0 0 1 .322.468v9.067a.5.5 0 0 1-.5.5zm-3.5-1h3v-8.223l-.968-.367c-15.137-5.745-31.484-8.727-48.586-8.864a.484.484 0 0 1-.239 0c-17.104.137-33.45 3.119-48.589 8.864l-.968.367v8.223h3v-5.8c0-.21.131-.397.328-.47 14.465-5.31 30.057-8.064 46.343-8.186 16.294.121 31.887 2.876 46.352 8.186a.5.5 0 0 1 .328.47v5.8z"/><path d="M6.136 199.647h-3.51A2.126 2.126 0 0 0 .5 201.773v5.6h12.277l.008-1.024a6.65 6.65 0 0 0-6.649-6.702z"/><path d="M13.273 207.872H0v-6.1a2.629 2.629 0 0 1 2.626-2.626h3.51c1.92 0 3.723.751 5.075 2.113a7.1 7.1 0 0 1 2.074 5.093zm-12.273-1h11.281l.004-.527a6.108 6.108 0 0 0-1.784-4.38 6.103 6.103 0 0 0-4.365-1.818h-3.51c-.896 0-1.626.729-1.626 1.626zm95.355-7.225h3.509c1.174 0 2.126.952 2.126 2.126v5.6H89.713l-.008-1.024a6.65 6.65 0 0 1 6.65-6.702z"/><path d="M102.491 207.872H89.217l-.012-1.52a7.106 7.106 0 0 1 2.074-5.093 7.105 7.105 0 0 1 5.075-2.113h3.51a2.629 2.629 0 0 1 2.626 2.626v6.1zm-12.282-1h11.281v-5.1c0-.896-.729-1.626-1.626-1.626h-3.51a6.107 6.107 0 0 0-4.365 1.818 6.104 6.104 0 0 0-1.784 4.38z"/></g><circle cx="96.564" cy="207.038" fill="#fff" r="5.427"/><path d="M96.563 212.966a5.934 5.934 0 0 1-5.927-5.928c0-3.268 2.659-5.927 5.927-5.927s5.927 2.659 5.927 5.927a5.933 5.933 0 0 1-5.927 5.928zm0-10.855c-2.717 0-4.927 2.21-4.927 4.927s2.21 4.928 4.927 4.928 4.927-2.211 4.927-4.928-2.21-4.927-4.927-4.927z" fill="#1d2445"/><circle cx="5.927" cy="207.038" fill="#fff" r="5.427"/><path d="M5.927 212.966A5.934 5.934 0 0 1 0 207.038c0-3.268 2.659-5.927 5.927-5.927s5.927 2.659 5.927 5.927a5.934 5.934 0 0 1-5.927 5.928zm0-10.855c-2.717 0-4.927 2.21-4.927 4.927s2.21 4.928 4.927 4.928 4.927-2.211 4.927-4.928-2.21-4.927-4.927-4.927z" fill="#1d2445"/><path d="M86.661 6.163C83.949 2.506 79.539.5 74.986.5h-48.26c-4.552 0-8.961 2.002-11.676 5.656a13.888 13.888 0 0 0-2.256 12.061l15.06 54.688V109.5a3 3 0 0 0 3 3h39a4 4 0 0 0 4-4V72.905l15.06-54.688a13.895 13.895 0 0 0-2.253-12.054z" fill="#fff"/><path d="M69.853 113h-39c-1.93 0-3.5-1.57-3.5-3.5V72.973L12.312 18.35a14.397 14.397 0 0 1 2.337-12.491C17.374 2.189 21.888 0 26.726 0h48.26c4.838 0 9.354 2.192 12.078 5.865a14.41 14.41 0 0 1 2.332 12.484L74.353 72.973V108.5c0 2.481-2.019 4.5-4.5 4.5zM26.726 1c-4.522 0-8.737 2.039-11.274 5.454a13.408 13.408 0 0 0-2.176 11.63l15.06 54.688a.496.496 0 0 1 .018.133V109.5c0 1.379 1.122 2.5 2.5 2.5h39c1.93 0 3.5-1.57 3.5-3.5V72.905c0-.045.006-.09.018-.133l15.06-54.688a13.419 13.419 0 0 0-2.17-11.623C83.724 3.041 79.509 1 74.985 1z" fill="#1d2445"/></svg></g><g transform="translate(560.0 249.0) rotate(0.0 -68.5 139.0) scale(-0.9965230800564453 0.997595722539204)"><svg width="137.478" height="278.67" viewBox="0 0 137.478 278.67"><path d="M92.598 152.99h-33.5l-3.75-27 19.75.5 17.25 10zm23.699 121.4a7.63 7.63 0 0 0 6.623 3.779l9.789-.049c3.157-.123 5.178-3.41 3.862-6.282l-11.42-24.916-15.665 4.527.463 12.074z" fill="#1d2445"/><path d="M122.882 278.669a8.156 8.156 0 0 1-7.017-4.027l-6.349-10.867a.492.492 0 0 1-.068-.233l-.463-12.074a.5.5 0 0 1 .361-.5l15.665-4.527a.5.5 0 0 1 .593.272l11.42 24.917a4.932 4.932 0 0 1-.282 4.644 4.927 4.927 0 0 1-4.015 2.347l-9.806.049-.039-.001zm-12.439-15.29 6.286 10.759a7.152 7.152 0 0 0 6.154 3.532v.5l.035-.5 9.789-.049c1.318-.051 2.485-.734 3.185-1.872s.782-2.488.225-3.703l-11.24-24.524L110 251.82z" fill="#1d2445"/><path d="M82.558 136.833c4.833-2.946 11.148-1.224 13.817 3.767l12.839 24.013a19.048 19.048 0 0 1 1.956 5.643l12.573 70.511s-16.06 4.132-15.523 3.933l-26.114-68.502a19.11 19.11 0 0 1-.952-3.426l-5.67-31.627z" fill="#fff"/><path d="M108.21 245.207a.504.504 0 0 1-.495-.413l-.004-.027-26.071-68.391a19.596 19.596 0 0 1-.977-3.516l-5.669-31.627a.499.499 0 0 1 .232-.515l7.072-4.312a10.347 10.347 0 0 1 14.519 3.958l12.839 24.013a19.551 19.551 0 0 1 2.008 5.791l12.573 70.511a.5.5 0 0 1-.368.572c-15.376 3.956-15.574 3.956-15.659 3.956zM76.039 141.393l5.609 31.29c.205 1.139.516 2.261.927 3.336l25.961 68.103c1.815-.438 9.289-2.35 14.634-3.724l-12.492-70.055a18.54 18.54 0 0 0-1.905-5.495l-12.839-24.013a9.347 9.347 0 0 0-13.116-3.575z" fill="#1d2445"/><path d="m123.658 247.995-11.081 3.044-3.043-11.078a3.763 3.763 0 0 1 2.632-4.625l3.826-1.051a3.763 3.763 0 0 1 4.625 2.632z" fill="#1d2445"/><path d="M112.577 251.54a.501.501 0 0 1-.482-.367l-3.043-11.079a4.266 4.266 0 0 1 2.981-5.239l3.826-1.052c.37-.102.75-.153 1.131-.153a4.272 4.272 0 0 1 4.108 3.135l3.042 11.079a.499.499 0 0 1-.35.614l-11.081 3.044a.5.5 0 0 1-.132.018zm4.412-16.891c-.291 0-.583.04-.866.117l-3.826 1.052a3.238 3.238 0 0 0-1.971 1.533 3.242 3.242 0 0 0-.311 2.478l2.911 10.596 10.117-2.779-2.909-10.597a3.272 3.272 0 0 0-3.145-2.4z" fill="#1d2445"/><path d="m136.389 268.769-11.276-24.603-1.423-4.89-2.642.769a3.815 3.815 0 0 0-2.688 4.336l.236 1.313-1.083.313-.608-1.346a3.815 3.815 0 0 0-4.54-2.092l-4.801 1.398 1.808 6.217.394 10.27 6.349 10.867a7.63 7.63 0 0 0 6.623 3.779l9.789-.049c3.158-.122 5.178-3.409 3.862-6.282z" fill="#fff"/><g fill="#1d2445"><path d="M122.702 275.601a8.156 8.156 0 0 1-7.017-4.026l-6.348-10.868a.492.492 0 0 1-.068-.233l-.392-10.208-1.791-6.158a.5.5 0 0 1 .34-.62l4.801-1.398a4.321 4.321 0 0 1 5.135 2.366l.43.951.233-.067-.156-.87a4.304 4.304 0 0 1 3.04-4.904l2.642-.769a.5.5 0 0 1 .619.341l1.423 4.89 11.251 24.534c.688 1.501.582 3.236-.282 4.643s-2.365 2.284-4.015 2.348l-9.806.049-.039-.001zm-12.439-15.291 6.285 10.76a7.153 7.153 0 0 0 6.154 3.531v.5l.035-.5 9.789-.049c1.318-.051 2.485-.734 3.185-1.872s.782-2.487.225-3.702l-11.276-24.603-1.308-4.479-2.162.629a3.308 3.308 0 0 0-2.335 3.768l.236 1.313a.5.5 0 0 1-.353.569l-1.083.313a.5.5 0 0 1-.595-.275l-.608-1.346c-.664-1.469-2.389-2.269-3.945-1.817l-4.321 1.258 1.668 5.737c.012.039.018.08.02.121zM74.489 141.079l6.3 29.654 27.844-7.205-12.389-23.173c-2.621-4.903-8.771-6.677-13.601-3.924zM20.251 53.042h11.5V8.125c-6.351 0-11.5 5.149-11.5 11.5z"/><path d="m21.063 115.309 43.871-4 15.302 48.046H39.111c-9.023 0-16.693-6.592-18.048-15.513z"/><path d="M75.938 126.82H26.615l-8.398-51.854h59.174l3.697 10.807-4.402 14.345z"/><path d="m81.653 56.172 25.807 50.293-11.166 5.148-2.145.097-29.585-52.13zm9.311 218.218a7.63 7.63 0 0 0 6.623 3.779l9.789-.049c3.157-.123 5.178-3.41 3.862-6.282l-11.42-24.916-15.665 4.527.463 12.074z"/><path d="M97.549 278.669a8.157 8.157 0 0 1-7.018-4.027l-6.348-10.867a.492.492 0 0 1-.068-.233l-.463-12.074a.5.5 0 0 1 .361-.5l15.665-4.527a.5.5 0 0 1 .593.272l11.42 24.917a4.93 4.93 0 0 1-.282 4.643 4.93 4.93 0 0 1-4.015 2.348l-9.806.049-.039-.001zm-12.439-15.29 6.285 10.759a7.152 7.152 0 0 0 6.154 3.532v.5l.035-.5 9.789-.049c1.318-.051 2.485-.734 3.185-1.872s.782-2.488.225-3.703l-11.24-24.524-14.875 4.299z"/></g><path d="M57.971 136.377c4.427-2.699 10.213-1.122 12.658 3.451l13.251 24.784a19.048 19.048 0 0 1 1.956 5.643l12.573 70.511s-16.06 4.132-15.523 3.933l-26.114-68.502a19.11 19.11 0 0 1-.952-3.426l-5.67-31.627z" fill="#fff"/><path d="M82.877 245.207a.504.504 0 0 1-.495-.413l-.004-.027-26.072-68.392a19.68 19.68 0 0 1-.977-3.516l-5.669-31.627a.499.499 0 0 1 .232-.515l7.819-4.767a9.52 9.52 0 0 1 13.359 3.642l13.251 24.783a19.53 19.53 0 0 1 2.007 5.791l12.573 70.511a.5.5 0 0 1-.368.572c-15.374 3.958-15.572 3.958-15.656 3.958zM50.706 141.393l5.609 31.29a18.68 18.68 0 0 0 .927 3.336l25.961 68.103c1.815-.438 9.289-2.35 14.634-3.724l-12.492-70.055a18.52 18.52 0 0 0-1.905-5.495l-13.251-24.783a8.521 8.521 0 0 0-11.957-3.26z" fill="#1d2445"/><path d="m98.325 247.995-11.081 3.044-3.044-11.078a3.763 3.763 0 0 1 2.632-4.625l3.826-1.051a3.763 3.763 0 0 1 4.625 2.632z" fill="#1d2445"/><path d="M87.243 251.54a.501.501 0 0 1-.482-.367l-3.043-11.079c-.302-1.098-.158-2.248.405-3.237s1.478-1.7 2.576-2.002l3.826-1.052c.37-.102.75-.153 1.131-.153a4.272 4.272 0 0 1 4.108 3.135l3.042 11.079a.499.499 0 0 1-.35.614l-11.082 3.044a.476.476 0 0 1-.131.018zm4.413-16.891c-.291 0-.583.04-.866.117l-3.826 1.052c-.84.231-1.541.775-1.972 1.533s-.542 1.638-.311 2.478l2.911 10.596 10.117-2.779-2.91-10.597a3.268 3.268 0 0 0-3.143-2.4z" fill="#1d2445"/><path d="M111.056 268.769 99.78 244.166l-1.423-4.89-2.642.769a3.815 3.815 0 0 0-2.688 4.336l.236 1.313-1.083.313-.608-1.346a3.815 3.815 0 0 0-4.54-2.092l-4.801 1.398 1.808 6.217.394 10.27 6.348 10.867a7.63 7.63 0 0 0 6.623 3.779l9.789-.049c3.158-.122 5.179-3.409 3.863-6.282z" fill="#fff"/><path d="M97.369 275.601a8.156 8.156 0 0 1-7.017-4.026l-6.349-10.868a.492.492 0 0 1-.068-.233l-.391-10.208-1.792-6.158a.5.5 0 0 1 .34-.62l4.801-1.398a4.32 4.32 0 0 1 5.135 2.367l.43.951.234-.068-.157-.87a4.304 4.304 0 0 1 3.04-4.904l2.642-.769a.495.495 0 0 1 .619.341l1.423 4.89 11.251 24.534c.688 1.501.582 3.237-.282 4.643s-2.365 2.284-4.015 2.348l-9.806.049-.038-.001zm-12.44-15.291 6.286 10.759a7.153 7.153 0 0 0 6.154 3.531v.5l.035-.5 9.789-.049c1.318-.051 2.485-.734 3.185-1.872s.782-2.488.225-3.702l-11.276-24.603-1.308-4.479-2.162.629a3.308 3.308 0 0 0-2.335 3.768l.236 1.313a.5.5 0 0 1-.353.569l-1.083.313a.5.5 0 0 1-.595-.275l-.608-1.346c-.664-1.469-2.387-2.27-3.944-1.817l-4.321 1.258 1.669 5.737c.012.039.018.08.02.121zM21.063 69.115h12.022v57.705H21.063z" fill="#1d2445"/><path d="m92.036 79.513-80.77 11.381v-23.73c0-9.452 7.662-17.114 17.114-17.114h41.351a15 15 0 0 1 13.839 9.214z" fill="#1d2445"/><path d="M11.983 62.341 1.446 103.76l-.889 5.244 15.141-4.72 13.47-44.722-14.13.343a3.234 3.234 0 0 0-3.055 2.436z" fill="#1d2445"/><path d="m69.756 27.95-3.135-2.741a1.87 1.87 0 0 1-.132-1.658l.874-2.173c.089-.222.135-.459.135-.699v-6.592l-3.967 2.957V13.21H36.417v15.439c0 2.822 1.124 5.379 2.943 7.259v14.931l15.938 16.787c.7.736 1.939.241 1.939-.774v-24.27l6.5.026a3.746 3.746 0 0 0 3.761-3.745v-6.861l1.888-.98a1.873 1.873 0 0 0 .37-3.072z" fill="#fff"/><path d="M56.105 68.477c-.443 0-.858-.18-1.169-.508L38.998 51.183a.5.5 0 0 1-.137-.344V36.107a10.885 10.885 0 0 1-2.943-7.458v-15.44a.5.5 0 0 1 .5-.5h27.113a.5.5 0 0 1 .5.5v2.837l3.168-2.362a.502.502 0 0 1 .799.401v6.593c0 .303-.058.601-.171.884l-.875 2.174c-.152.377-.129.792.061 1.151l3.071 2.685a2.372 2.372 0 0 1-.469 3.893l-1.618.84v6.557a4.216 4.216 0 0 1-1.244 3.002 4.216 4.216 0 0 1-3.001 1.243l-6.015-.024V66.85a1.63 1.63 0 0 1-1.632 1.627zM39.861 50.639l15.801 16.642a.623.623 0 0 0 1.076-.43V42.582a.5.5 0 0 1 .147-.354c.094-.093.243-.187.355-.146l6.5.026c.879 0 1.694-.337 2.307-.95s.951-1.428.951-2.295v-6.86a.5.5 0 0 1 .27-.444l1.888-.98c.409-.212.675-.597.73-1.054a1.354 1.354 0 0 0-.459-1.198l-3.135-2.741a.5.5 0 0 1-.1-.12 2.386 2.386 0 0 1-.167-2.102l.874-2.173c.065-.164.099-.337.099-.512v-5.596l-3.168 2.362a.5.5 0 0 1-.799-.401V13.71H36.917v14.939a9.89 9.89 0 0 0 2.803 6.911c.09.093.141.218.141.348z" fill="#1d2445"/><path d="M55.898.387h-.56a4.29 4.29 0 0 0-4.29 4.29v14.898h19.865v-4.173C70.913 7.109 64.19.387 55.898.387z" fill="#1d2445"/><path d="M53.339 19.362H31.016v-4.974C31.016 6.442 37.458 0 45.404 0h4.7a3.235 3.235 0 0 1 3.235 3.235z" fill="#1d2445"/><path d="M47.984 36.905h-3.908a9.085 9.085 0 0 1-9.085-9.085v-5.534a3.995 3.995 0 0 0-3.995-3.995h-.995v-4.124h27.612z" fill="#1d2445"/><path d="M33.001 20.792a1.5 1.5 0 0 1-1.5-1.5v-12.5a1.5 1.5 0 1 1 3 0v12.5a1.5 1.5 0 0 1-1.5 1.5z" fill="#fff"/><path d="M33.001 21.292c-1.103 0-2-.897-2-2v-12.5c0-1.103.897-2 2-2s2 .897 2 2v12.5c0 1.103-.897 2-2 2zm0-15.5c-.551 0-1 .449-1 1v12.5c0 .551.449 1 1 1s1-.449 1-1v-12.5c0-.552-.449-1-1-1zm34.513 30.822a.487.487 0 0 1-.141-.021l-1.541-.453a2.209 2.209 0 0 1-1.34-1.11l-.389-.759a.498.498 0 0 1 .438-.728l2.966-.04c.158.015.263.05.358.144s.149.222.149.356v2.111a.496.496 0 0 1-.201.4.494.494 0 0 1-.299.1zm-2.154-2.081.021.042c.15.293.417.514.731.606l.901.265v-.936z" fill="#1d2445"/><path d="m103.597 103.464-9.133-.152a36.895 36.895 0 0 0-6.068.398l-31.039 4.912-3.675-.369a3.706 3.706 0 0 0-2.577.695l-2.138 1.555-4.215-.495a6.505 6.505 0 0 0-2.86.277l-8.55 2.795a.492.492 0 0 0-.318.619c.003.003.003.007.003.007l.01.028a1.941 1.941 0 0 0 2.131 1.188l8.125-1.42 8.002 1.956 2.113.841c.406.161.84.244 1.278.244h5.158l38.698 1.522a9.687 9.687 0 0 0 9.934-8.069l.093-.548c.522-3.098-1.833-5.932-4.972-5.984z" fill="#fff"/><path d="M98.929 118.571c-.135 0-.271-.003-.406-.008l-38.698-1.522h-5.139c-.502 0-.994-.094-1.462-.279l-2.114-.841-7.834-1.909-8.021 1.401a2.431 2.431 0 0 1-2.707-1.563.984.984 0 0 1 .062-.756.984.984 0 0 1 .58-.491l8.547-2.793a7.069 7.069 0 0 1 3.078-.298l4.017.471 1.979-1.439a4.244 4.244 0 0 1 2.923-.788l3.608.363 30.976-4.902a38.117 38.117 0 0 1 6.155-.404l9.133.152a5.622 5.622 0 0 1 4.235 2.029 5.622 5.622 0 0 1 1.222 4.536l-.093.549a10.16 10.16 0 0 1-10.041 8.492zm-55.636-5.57c.04 0 .08.005.119.014l8.002 1.956 2.18.862a2.96 2.96 0 0 0 1.093.208h5.158l38.717 1.522a9.16 9.16 0 0 0 9.421-7.653l.093-.549a4.62 4.62 0 0 0-1.005-3.729 4.621 4.621 0 0 0-3.482-1.668l-9.133-.152a36.655 36.655 0 0 0-5.986.393l-31.035 4.912a.498.498 0 0 1-.128.004l-3.675-.37a3.18 3.18 0 0 0-2.231.601l-2.139 1.556a.506.506 0 0 1-.352.092l-4.215-.495a5.998 5.998 0 0 0-2.645.255l-8.545 2.792a1.44 1.44 0 0 0 1.579.876l8.124-1.419a.471.471 0 0 1 .085-.008z" fill="#1d2445"/><path d="m75.8 114.079-8.55-2.795a6.52 6.52 0 0 0-2.86-.277l-4.215.495-2.138-1.555a3.706 3.706 0 0 0-2.577-.695l-3.675.369-31.039-4.912a37.013 37.013 0 0 0-6.068-.398l-9.133.152a5.129 5.129 0 0 0-4.972 5.982l.093.548a9.687 9.687 0 0 0 9.934 8.069l38.698-1.522h5.158c.438 0 .872-.083 1.278-.244l2.113-.841 8.002-1.956 8.125 1.42a1.942 1.942 0 0 0 2.131-1.188l.01-.028s0-.003.003-.007a.49.49 0 0 0-.318-.617z" fill="#fff"/><path d="M10.213 119.571c-4.987 0-9.21-3.572-10.041-8.494l-.092-.547a5.627 5.627 0 0 1 5.457-6.566l9.133-.152c2.049-.03 4.122.102 6.15.403l30.98 4.903 3.61-.363a4.264 4.264 0 0 1 2.922.79l1.978 1.438 4.021-.472a7.06 7.06 0 0 1 3.076.299l8.548 2.794c.25.08.456.254.577.49a.984.984 0 0 1 .039.816c-.395.951-1.275 1.539-2.266 1.539-.138 0-.277-.012-.417-.036l-8.022-1.401-7.9 1.931-2.047.819c-.469.186-.96.279-1.463.279h-5.158l-38.678 1.521a9.279 9.279 0 0 1-.407.009zm5.088-14.765c-.205 0-.41.002-.615.005l-9.133.152a4.62 4.62 0 0 0-3.482 1.668 4.622 4.622 0 0 0-1.005 3.73l.093.547a9.157 9.157 0 0 0 9.421 7.654l38.698-1.522h5.178c.376 0 .744-.07 1.094-.208l2.112-.84 8.068-1.977a.488.488 0 0 1 .205-.007l8.125 1.419c.673.115 1.329-.258 1.581-.882s0 0 0-.001l-8.547-2.786a6.015 6.015 0 0 0-2.643-.256l-4.219.495a.495.495 0 0 1-.352-.092l-2.137-1.555a3.252 3.252 0 0 0-2.23-.603l-3.678.37a.55.55 0 0 1-.128-.004l-31.04-4.913a36.982 36.982 0 0 0-5.366-.394zm34.878-81.801h14.469l.327-2.499H50.179z" fill="#1d2445"/><path d="M51.671 30.506h3.33l-.317-6.972a4.22 4.22 0 0 0-4.215-4.028h-.242c-2.318 0-3.949 2.279-3.201 4.474l1.444 4.235a3.382 3.382 0 0 0 3.201 2.291z" fill="#fff"/><path d="m49.156 141.079 6.3 29.654 27.845-7.205-15.174-34.122zm3.037-96.104a.5.5 0 0 1-.381-.176 1.606 1.606 0 0 1-.238-1.729 1.608 1.608 0 0 1 1.468-.946l4.054-.016h.002a.5.5 0 0 1 .002 1l-4.053.016a.61.61 0 0 0-.564.364.61.61 0 0 0 .091.664.5.5 0 0 1-.381.823z" fill="#1d2445"/><path d="M64.734 21.04h4.112v5.845h-4.112z" fill="#fff"/><path d="m65.152 21.506-.022.022.022 4.972 3.326-.022-.022-4.972zm0-1h3.304c.565 0 1.022.458 1.022 1.022v4.95c0 .565-.458 1.022-1.022 1.022h-3.304a1.022 1.022 0 0 1-1.022-1.022v-4.95a1.021 1.021 0 0 1 1.022-1.022z" fill="#1d2445"/><path d="M75.831 127.369h-55.25a.5.5 0 0 1 0-1h55.25a.5.5 0 0 1 0 1zm7.273 36.373a.5.5 0 0 1-.473-.337l-4.728-13.702a14.517 14.517 0 0 0-8.073-8.631l-2.944-1.242a.5.5 0 0 1 .388-.922l2.944 1.242a15.52 15.52 0 0 1 8.629 9.227l4.728 13.702a.5.5 0 0 1-.471.663z" fill="#fff"/></svg></g><g transform="translate(288.0 79.0) rotate(0.0 37.5 37.0) translate(0.0 0.0) scale(0.9973404255319148 0.9946236559139784)"><svg width="74.197" height="63.341" viewBox="0 0 74.197 63.341"><path d="M61.5 52.8H13.8C6.4 52.8.5 58.7.5 66v7.9h74.2V66c0-7.3-5.9-13.2-13.2-13.2z" fill="#fff"/><path d="M74.7 74.4H.5c-.3 0-.5-.2-.5-.5V66c0-7.6 6.2-13.8 13.8-13.8h47.7c7.6 0 13.8 6.2 13.8 13.8v7.9c-.1.3-.3.5-.6.5zM1 73.4h73.2V66c0-7-5.7-12.8-12.8-12.8H13.8C6.7 53.3 1 59 1 66z" fill="#1d2445"/><circle cx="46.7" cy="37" fill="#1d2445" r="14.3"/><circle cx="34.8" cy="37" fill="#1d2445" r="14.3"/><path d="m34.2 67-6.8-14.2V34.7h18v17.9l-7.5 14.5c-.8 1.5-2.9 1.4-3.7-.1z" fill="#fff"/><path d="M36 68.7c-1 0-1.8-.6-2.3-1.4L27 53.1V34.7c0-.3.2-.5.5-.5h17.9c.3 0 .5.2.5.5v17.9c0 .1 0 .2-.1.2l-7.5 14.5c-.5.9-1.3 1.4-2.3 1.4zm-8-16 6.7 14.1c.3.5.7.8 1.3.9.6 0 1.1-.3 1.4-.8l7.5-14.4V35.2H28z" fill="#1d2445"/><circle cx="49.6" cy="19.7" fill="#1d2445" r="11.8"/><path d="M20.7 37.4h31.8V13.9C52.5 6.2 46.3 0 38.6 0h-4.1c-7.6 0-13.9 6.2-13.9 13.9.1 0 .1 23.5.1 23.5z" fill="#1d2445"/><path d="M36.4 6.5h-1.9c-6.2 0-11.2 5-11.2 11.2V21c-2.3.2-4.1 2.2-4.1 4.5 0 2.4 1.8 4.3 4.1 4.5v.4c0 1.9.7 3.8 2.1 5.1l5.3 5.6c.8.8 1.8 1.3 2.9 1.3h5.7c1.1 0 2.1-.5 2.9-1.3l5.3-5.6c1.3-1.4 2.1-3.2 2.1-5.1v-24H36.4z" fill="#fff"/><g fill="#1d2445"><path d="M39.3 42.9h-5.7c-1.2 0-2.4-.5-3.3-1.4L25 36c-1.4-1.5-2.2-3.4-2.2-5.5-2.4-.4-4.1-2.5-4.1-5s1.7-4.5 4.1-5v-2.8C22.8 11.3 28.1 6 34.5 6h15c.3 0 .5.2.5.5v24c0 2.1-.8 4-2.2 5.5l-5.3 5.6c-.8.8-2 1.3-3.2 1.3zM34.5 7c-5.9 0-10.7 4.8-10.7 10.7V21c0 .3-.2.5-.5.5-2.1.2-3.7 1.9-3.7 4s1.6 3.8 3.7 4c.3 0 .5.2.5.5v.4c0 1.8.7 3.5 1.9 4.8l5.3 5.6c.7.7 1.6 1.1 2.5 1.1h5.7c1 0 1.9-.4 2.5-1.1l5.3-5.6c1.2-1.3 1.9-3 1.9-4.8V7z"/><path d="M43.6 3.9h-8.8l2 7.4c1.2 4.4 5.1 7.4 9.7 7.4h6.3v-5.6c0-5-4.1-9.2-9.2-9.2zM26.2 21.3h-4.5l-.1-2.5h4.6zm11.7 9.1c-.3 0-.5-.2-.5-.5v-9.7c0-.3.2-.5.5-.5s.5.2.5.5v9.7c0 .3-.2.5-.5.5z"/><path d="M33.7 19.8c.2 0 .4.2.4.4v4.3c0 .2-.2.4-.4.4H27c-.2 0-.4-.2-.4-.4v-4.6h7.1m0-1.1h-8.1v5.6c0 .8.6 1.4 1.4 1.4h6.7c.8 0 1.4-.6 1.4-1.4v-4.3c-.1-.7-.7-1.3-1.4-1.3zm12.5 1v4.6c0 .2-.2.4-.4.4h-6.7c-.2 0-.4-.2-.4-.4v-4.3c0-.2.2-.4.4-.4h7.1m1-.9h-8.1c-.8 0-1.4.6-1.4 1.4v4.3c0 .8.6 1.4 1.4 1.4h6.7c.8 0 1.4-.6 1.4-1.4z"/></g><path d="m36.8 32.3-4.1.1.7 1.7 3.4.7 3.4-.7.7-1.7z" fill="#fff"/><path d="m36.8 35.3-3.5-.7c-.2 0-.3-.1-.4-.3l-.7-1.8c-.1-.2 0-.3 0-.5.1-.1.2-.2.4-.2h8.2c.2 0 .3.1.4.2s.1.3 0 .5l-.7 1.8c-.1.2-.2.3-.4.3zm-3-1.6 3 .6 3-.6.3-.8h-6.6zm11.4-15c1.1 0 1.9.9 1.9 1.9v6.6c0 2.8 1.4 5.5 3.7 7.2 2.1 1.5 4.4 3.2 4.6 3.4v-9.7c-1.9 0-3.4-1.5-3.4-3.4V13.9h-6.8z" fill="#1d2445"/><path d="M49.8 16.5h6.4v11.6h-6.4zm-11.2 4.8h-4.4l-.1-2.5h4.5z" fill="#1d2445"/></svg></g><g transform="translate(151.0 84.0) rotate(0.0 37.5 32.5) translate(0.0 0.0) scale(0.9973404255319148 0.995405819295559)"><svg width="75.2" height="59.272" viewBox="0 0 75.2 59.272"><path d="M38 48.1H22.4V7.9c0-4.4 3.5-7.9 7.9-7.9h4.9C36.8 0 38 1.2 38 2.8z" fill="#1d2445"/><path d="M34.9 8.2c-.4 0-.9-.1-1.2-.3-1.2-.7-1.6-2.2-.9-3.4.9-1.6 2.7-2.7 4.8-3.2 2.4-.5 4.7 0 6.4 1.3 1.1.8 1.3 2.4.5 3.5s-2.4 1.3-3.5.5c-.6-.4-1.5-.6-2.4-.4s-1.4.6-1.5.8c-.5.7-1.3 1.2-2.2 1.2z" fill="#fff"/><path d="M34.9 8.7c-.5 0-1-.1-1.5-.4-1.4-.8-1.9-2.7-1.1-4.1 1-1.7 2.9-2.9 5.2-3.4 2.5-.5 5 0 6.8 1.4.6.5 1.1 1.2 1.2 2s-.1 1.6-.6 2.2c-1 1.3-2.9 1.6-4.2.6-.5-.3-1.2-.5-2-.3-.7.2-1.1.5-1.2.5-.5.9-1.5 1.5-2.6 1.5zm4.5-7.1c-.6 0-1.1.1-1.7.2-2 .4-3.7 1.5-4.5 2.9-.5 1-.2 2.2.7 2.7s2.2.2 2.7-.7c.2-.4.9-.8 1.8-1 1.1-.2 2.1 0 2.8.5.9.7 2.1.5 2.8-.4.3-.4.5-1 .4-1.5s-.4-1-.8-1.3c-1.1-.9-2.6-1.4-4.2-1.4z" fill="#1d2445"/><path d="M34.7 35.7 58 27.4v-7.7c0-8-6.5-14.5-14.5-14.5h-4.1c-8 0-14.5 6.5-14.5 14.5V26c.1 5.4 4.5 9.7 9.8 9.7z" fill="#1d2445"/><path d="M61.5 43.7H13.8C6.5 43.7.5 49.6.5 57v7.9h74.2V57c0-7.4-5.9-13.3-13.2-13.3z" fill="#fff"/><path d="M74.7 65.3H.5c-.3 0-.5-.2-.5-.5v-7.9c0-7.6 6.2-13.8 13.8-13.8h47.7c7.6 0 13.8 6.2 13.8 13.8v7.9c-.1.3-.3.5-.6.5zM1 64.3h73.2v-7.4c0-7-5.7-12.8-12.8-12.8H13.8C6.7 44.2 1 49.9 1 56.9z" fill="#1d2445"/><path d="M48.1 56.5V26.2H30.7v17.4l14 14.2c1.2 1.3 3.4.4 3.4-1.3z" fill="#fff"/><path d="M46.1 59c-.7 0-1.3-.3-1.8-.8L30.3 44c-.1-.1-.1-.2-.1-.4V26.2c0-.3.2-.5.5-.5h17.4c.3 0 .5.2.5.5v30.2c0 1-.6 1.9-1.6 2.3-.3.2-.6.3-.9.3zM31.2 43.4 45 57.5c.5.5 1.2.5 1.6.3.5-.2.9-.6.9-1.4V26.7H31.2z" fill="#1d2445"/><path d="M32.8 26c-.1-1.3-1.2-2.2-2.5-2.2h-.1c-1.4 0-2.5 1.1-2.5 2.5v6.9c0 1.4 1.1 2.5 2.5 2.5h.5v2.8l8.8 8.7c.3.3.8.5 1.2.5l9.7-.1c.6 0 1.1-.3 1.4-.8l2.7-4.5c1.4-2.3 2.1-4.9 2.1-7.5V26z" fill="#fff"/><path d="M40.8 48.1c-.6 0-1.1-.2-1.6-.6l-8.8-8.7c-.1-.1-.1-.2-.1-.4v-2.3h-.1c-1.6 0-3-1.3-3-3v-6.9c0-1.6 1.3-3 3-3h.1c1.4 0 2.5.9 2.9 2.2h23.4c.3 0 .5.2.5.5v8.7c0 2.7-.7 5.4-2.1 7.7L52.4 47c-.4.6-1.1 1-1.9 1zm-9.5-9.8 8.7 8.5c.2.2.5.3.8.3l9.7-.1c.4 0 .8-.2 1-.6l2.7-4.5c1.3-2.2 2-4.7 2-7.2v-8.2H32.8c-.3 0-.5-.2-.5-.5-.1-1-.9-1.8-2-1.8h-.1c-1.1 0-2 .9-2 2v6.9c0 1.1.9 2 2 2h.4c.1 0 .3 0 .4.1s.2.2.2.4v2.7z" fill="#1d2445"/><path d="M49.7 30.6v4.6l-.1 5c0 1-.8 1.9-1.9 2l-1.8.1" fill="#fff"/><g fill="#1d2445"><path d="M45.8 42.8c-.3 0-.5-.2-.5-.5s.2-.5.5-.5l1.8-.1c.8-.1 1.4-.7 1.4-1.5l.1-5v-4.6c0-.3.2-.5.5-.5s.5.2.5.5v4.6l-.1 5c0 1.3-1 2.4-2.3 2.4z"/><ellipse cx="44.3" cy="27.3" rx="13.7" ry="6.4"/></g></svg></g><g transform="translate(159.0 146.0) rotate(0.0 37.5 38.0) translate(0.0 0.0) scale(0.9973404255319148 0.9921671018276763)"><svg width="75.2" height="62.489" viewBox="0 0 75.2 62.489"><path d="M61.5 55H13.8C6.4 55 .5 60.9.5 68.3v7.9h74.2v-7.9c0-7.4-5.9-13.3-13.2-13.3z" fill="#fff"/><path d="M74.7 76.6H.5c-.3 0-.5-.2-.5-.5v-7.9c0-7.6 6.2-13.8 13.8-13.8h47.7c7.6 0 13.8 6.2 13.8 13.8v7.9c-.1.3-.3.5-.6.5zM1 75.6h73.2v-7.4c0-7-5.7-12.8-12.8-12.8H13.8C6.7 55.5 1 61.2 1 68.3zm55.6-45.7-36.2.4V17.8C20.4 9.1 27.5 2 36.2 2h4.5c8.8 0 15.9 7.1 15.9 15.9z" fill="#1d2445"/><path d="M23.3 36.8h7.6c.5 0 .9-.5.9-1.2V26c0-.6-.4-1.2-.9-1.2h-7.6c-2.6 0-4.7 2.7-4.7 6s2.1 6 4.7 6z" fill="#fff"/><path d="M30.9 37.3h-7.6c-1.4 0-2.7-.7-3.7-1.9s-1.5-2.8-1.5-4.6c0-3.6 2.3-6.5 5.2-6.5h7.6c.8 0 1.4.8 1.4 1.7v9.7c.1.8-.6 1.6-1.4 1.6zm-7.6-12c-2.3 0-4.2 2.5-4.2 5.5 0 1.5.5 2.9 1.3 3.9s1.8 1.6 2.9 1.6h7.6c.2 0 .4-.3.4-.7V26c0-.4-.2-.7-.4-.7z" fill="#1d2445"/><path d="M53.9 36.8h-7.6c-.5 0-.9-.5-.9-1.2V26c0-.6.4-1.2.9-1.2h7.6c2.6 0 4.7 2.7 4.7 6s-2.1 6-4.7 6z" fill="#fff"/><path d="M53.9 37.3h-7.6c-.8 0-1.4-.8-1.4-1.7V26c0-.9.6-1.7 1.4-1.7h7.6c2.9 0 5.2 2.9 5.2 6.5 0 1.7-.5 3.3-1.5 4.6-1 1.2-2.3 1.9-3.7 1.9zm-7.6-12c-.2 0-.4.3-.4.7v9.7c0 .4.2.7.4.7h7.6c1.1 0 2.1-.6 2.9-1.6s1.3-2.4 1.3-3.9c0-3-1.9-5.5-4.2-5.5h-7.6z" fill="#1d2445"/><path d="M44.1 9.3H32.9c-4.9 0-8.9 4-8.9 8.9v28.1h29v-28c0-5-4-9-8.9-9z" fill="#fff"/><path d="M53 46.8H24c-.3 0-.5-.2-.5-.5v-28c0-5.2 4.2-9.4 9.4-9.4h11.2c2.5 0 4.9 1 6.7 2.8s2.8 4.1 2.8 6.7v28.1c-.1.1-.3.3-.6.3zm-28.5-1h28V18.3c0-2.2-.9-4.4-2.5-6s-3.7-2.5-6-2.5H32.9c-4.6 0-8.4 3.8-8.4 8.4z" fill="#1d2445"/><path d="M52.9 24.8h-8c-1.7 0-3 1.4-3 3v.4c0 .2 0 .3.1.4h-.1V34c0 1.1-.9 2-2 2h-3" fill="#fff"/><g fill="#1d2445"><path d="M39.8 36.5h-3c-.3 0-.5-.2-.5-.5s.2-.5.5-.5h3c.8 0 1.5-.7 1.5-1.5v-6.1c0-2 1.6-3.5 3.5-3.5h8c.3 0 .5.2.5.5s-.2.5-.5.5h-8c-1.4 0-2.5 1.1-2.5 2.5V34c0 1.4-1.1 2.5-2.5 2.5z"/><path d="M53.3 38.1V24.8c-1.7 0-3.2 1.4-3.2 3.2v8.8c0 1.8-1.8 3.1-3.5 2.4-.1 0-.2-.1-.2-.1l-3.1-1.8c-.9-.5-1.9-.8-3-.8h-3.1l-.5 26.2h5.5C49.9 62.7 56 56.5 56 49v-5.2c0-1.1-.5-2.2-1.3-2.9-.9-.7-1.4-1.7-1.4-2.8z"/><path d="M23.8 38.1V24.8c1.7 0 3.2 1.4 3.2 3.2v8.8c0 1.8 1.8 3.1 3.5 2.4.1 0 .2-.1.2-.1l3.1-1.8c.9-.5 1.9-.8 3-.8h3.1l.5 26.2h-5.5c-7.5 0-13.7-6.1-13.7-13.7v-5.2c0-1.1.5-2.2 1.3-2.9.8-.7 1.3-1.7 1.3-2.8zM45.3 9.3V5c0-2.8-2.2-5-5-5h-8.4c-2.5 0-3.9 3-2.3 4.9l5.3 6.3c.6.7 1.4 1.1 2.3 1.1h5.1c1.7 0 3-1.3 3-3z"/></g><path d="m34.7 44.1-.4-2c-.1-.6.3-1.1.8-1.2 2.4-.4 4.6-.4 6.8 0 .6.1.9.6.8 1.2l-.4 2c-.1.5-.6.9-1.2.8-1.7-.2-3.4-.2-5.3 0-.5.1-1-.3-1.1-.8z" fill="#fff"/></svg></g><g transform="translate(301.0 242.0) rotate(0.0 68.0 69.5) translate(0.0 0.0) scale(0.774774261543282 0.7720635202763876)"><svg width="174.244" height="169.675" viewBox="0 0 174.244 169.675"><path d="M89.017 141.317s-.44-1.395-1.109-3.852a250.368 250.368 0 0 1-2.558-10.212l-.761-3.306c-.272-1.2-.477-2.348-.724-3.586-.409-2.544-.796-5.203-.949-7.98-.183-2.775-.24-5.658-.084-8.581.117-2.925.435-5.888.909-8.824a74.189 74.189 0 0 1 1.919-8.661c.768-2.824 1.742-5.54 2.784-8.117 1.057-2.607 2.153-4.918 3.183-7.206l.774-1.671.378-.817.094-.202.037-.085.013-.025.025-.049.051-.098.206-.39a12.668 12.668 0 0 1 2.328-3.097 11.957 11.957 0 0 1 5.688-3.122c1.859-.457 3.587-.29 4.801-.129 2.531.279 3.978.497 3.978.497s-1.446.218-3.978.497c-1.306.11-2.705.316-4.216.956a10.807 10.807 0 0 0-4.145 3.227 9.573 9.573 0 0 0-1.396 2.522l-.272.775-.285.854-.583 1.746-2.523 7.354a103.74 103.74 0 0 0-2.255 7.821c-.662 2.688-1.25 5.44-1.673 8.219-.475 2.77-.791 5.566-1.009 8.326-.12 1.38-.177 2.753-.253 4.11-.031 1.357-.087 2.701-.078 4.024-.029 2.648.113 5.211.244 7.608l.594 6.964c.386 4.332.593 7.96.713 10.504.121 2.544.132 4.006.132 4.006z" fill="#fff"/><path d="M89.017 141.817a.501.501 0 0 1-.477-.35c-.004-.014-.45-1.433-1.114-3.871a251.159 251.159 0 0 1-2.563-10.232l-.761-3.305a78.608 78.608 0 0 1-.511-2.5l-.215-1.101c-.408-2.537-.804-5.253-.958-8.05-.203-3.076-.23-5.902-.084-8.635a74.93 74.93 0 0 1 .915-8.877 74.805 74.805 0 0 1 1.932-8.72c.691-2.542 1.608-5.215 2.801-8.166.807-1.99 1.636-3.809 2.438-5.567l2-4.352.045-.102.299-.57a13.175 13.175 0 0 1 2.421-3.221 12.388 12.388 0 0 1 5.925-3.251 11.08 11.08 0 0 1 2.679-.309c.888 0 1.696.092 2.3.172 2.501.275 3.972.496 3.987.498a.5.5 0 0 1 0 .99c-.015.002-1.486.223-3.998.5-1.185.1-2.584.287-4.076.919a10.367 10.367 0 0 0-3.946 3.074 9.137 9.137 0 0 0-1.321 2.387l-3.659 10.719a103.397 103.397 0 0 0-2.242 7.778c-.739 3-1.283 5.674-1.665 8.175-.436 2.548-.765 5.257-1.005 8.291a90.417 90.417 0 0 0-.2 3.114l-.082 2.093c-.027.97-.054 1.932-.047 2.882-.029 2.617.108 5.109.24 7.52l.597 7.014c.312 3.494.545 6.937.714 10.523.119 2.524.132 4.011.132 4.025a.5.5 0 0 1-.501.505zm14.771-80.179c-.875 0-1.676.092-2.448.282a11.417 11.417 0 0 0-5.457 2.993 12.15 12.15 0 0 0-2.238 2.977l-.255.483-.065.139-1.998 4.346c-.798 1.749-1.623 3.558-2.421 5.528-1.178 2.913-2.083 5.55-2.765 8.061a73.741 73.741 0 0 0-1.907 8.61 73.92 73.92 0 0 0-.903 8.764c-.144 2.699-.117 5.486.083 8.528.152 2.756.543 5.441.944 7.934l.213 1.088c.16.829.316 1.635.504 2.467l.761 3.305a249.82 249.82 0 0 0 2.548 10.171c-.168-3.564-.4-6.986-.71-10.461l-.594-6.966c-.138-2.507-.275-5.016-.246-7.656-.007-.953.02-1.927.048-2.909l.083-2.118c.055-1.042.11-2.091.202-3.145.243-3.061.574-5.799 1.015-8.368.384-2.521.935-5.224 1.68-8.253.611-2.506 1.374-5.15 2.265-7.858l3.667-10.739c.346-.944.854-1.862 1.472-2.662a11.235 11.235 0 0 1 4.341-3.38c1.621-.688 3.115-.889 4.364-.995h-.002a16.19 16.19 0 0 0-2.181-.166z" fill="#1d2445"/><path d="M93.024 139.96s.168-2.194.561-6.017c.201-1.91.43-4.233.753-6.886l1.051-8.892.27-2.498.191-2.556c.159-1.721.209-3.541.32-5.386.091-3.708.105-7.612-.122-11.639-.238-4.024-.577-8.174-1.22-12.352-.641-4.174-1.41-8.399-2.472-12.556a138.448 138.448 0 0 0-3.677-12.258c-1.44-3.933-3.035-7.908-4.503-11.738-1.486-3.829-2.861-7.555-4.176-11.084a535.875 535.875 0 0 1-3.634-9.975c-.558-1.525-1.058-3.14-1.663-4.178a12.003 12.003 0 0 0-2.389-3.068c-1.826-1.693-3.923-2.602-5.713-3.028-1.807-.41-3.307-.343-4.343-.326l-1.581.012 1.552-.298c.996-.171 2.526-.548 4.523-.371 1.968.181 4.446.811 6.769 2.527a14.165 14.165 0 0 1 3.226 3.266c1.045 1.478 1.542 2.883 2.273 4.373 1.395 2.978 2.9 6.207 4.431 9.648 1.547 3.434 3.19 7.05 4.825 10.818 1.637 3.773 3.357 7.612 4.954 11.751 1.564 4.113 2.868 8.396 3.976 12.727 1.078 4.34 1.866 8.749 2.42 13.111L100 86.35l.239 3.242c.095 1.073.114 2.144.159 3.206.037 1.062.086 2.115.068 3.162.072 4.184-.244 8.221-.588 12.026-.413 3.774-.962 7.441-1.667 10.627-.644 3.273-1.391 6.162-2 8.776-.606 2.603-1.188 4.864-1.653 6.727a257.283 257.283 0 0 1-1.534 5.844z" fill="#fff"/><path d="M93.024 140.46a.5.5 0 0 1-.499-.538c.001-.022.172-2.245.562-6.03l.125-1.196c.172-1.66.371-3.574.629-5.7l1.32-11.383.189-2.539c.104-1.123.159-2.262.218-3.468.031-.632.063-1.27.101-1.912.068-2.811.131-7.092-.122-11.581-.198-3.339-.515-7.757-1.215-12.304-.754-4.909-1.537-8.883-2.462-12.508a138.239 138.239 0 0 0-3.665-12.216c-.952-2.598-1.984-5.25-2.983-7.813-.512-1.315-1.021-2.621-1.515-3.91-1.27-3.272-2.454-6.457-3.599-9.535l-.579-1.554a534.053 534.053 0 0 1-3.636-9.982c-.126-.345-.251-.699-.375-1.05-.414-1.174-.806-2.283-1.249-3.044a11.515 11.515 0 0 0-2.296-2.953c-1.921-1.781-4.046-2.564-5.489-2.908-1.723-.39-3.037-.334-3.97-.317l-1.834.017c-.261-.021-.476-.194-.501-.451s.149-.491.403-.54l2.017-.382c.984-.183 2.423-.449 4.198-.293 2.594.238 5.022 1.145 7.021 2.623a14.564 14.564 0 0 1 3.337 3.379c.785 1.11 1.277 2.193 1.753 3.24.18.396.361.796.561 1.202a537.502 537.502 0 0 1 4.439 9.665l.688 1.524a698.826 698.826 0 0 1 4.139 9.297l.859 1.971c1.366 3.131 2.779 6.369 4.103 9.798 1.466 3.856 2.81 8.156 3.994 12.783 1.031 4.151 1.849 8.582 2.432 13.172l.375 3.269.241 3.263c.07.792.1 1.592.128 2.387l.05 1.334c.033.883.066 1.795.05 2.692.074 4.282-.266 8.472-.59 12.062-.447 4.089-1.011 7.683-1.677 10.69-.468 2.378-.981 4.514-1.478 6.58-.182.756-.357 1.489-.523 2.202a311.682 311.682 0 0 1-1.361 5.564l-.294 1.17c-.932 3.691-1.533 5.837-1.539 5.859a.501.501 0 0 1-.481.364zM66.732 15.366c1.565.375 3.851 1.225 5.922 3.144a12.446 12.446 0 0 1 2.488 3.196c.483.83.89 1.982 1.32 3.202.123.347.246.697.373 1.043a546.152 546.152 0 0 0 3.632 9.971l.579 1.557a716.392 716.392 0 0 0 3.595 9.524c.494 1.29 1.002 2.594 1.514 3.907 1 2.568 2.035 5.225 2.993 7.839a139.365 139.365 0 0 1 3.693 12.309c.934 3.654 1.722 7.659 2.481 12.601.707 4.588 1.026 9.036 1.225 12.398.255 4.527.192 8.834.123 11.681-.04.655-.07 1.29-.101 1.918-.06 1.217-.116 2.366-.221 3.502l-.461 5.061-1.052 8.897a306.906 306.906 0 0 0-.627 5.684l-.119 1.138.28-1.115c.406-1.612.874-3.47 1.357-5.547.166-.715.343-1.45.525-2.208.494-2.056 1.004-4.182 1.471-6.551.661-2.983 1.219-6.541 1.661-10.584.321-3.555.658-7.713.585-11.963.016-.887-.018-1.786-.049-2.655l-.05-1.335c-.028-.777-.056-1.56-.125-2.342l-.338-4.109-.273-2.383c-.577-4.546-1.388-8.938-2.409-13.048-1.174-4.587-2.506-8.851-3.958-12.669-1.315-3.407-2.724-6.635-4.086-9.756l-.859-1.973c-1.394-3.21-2.787-6.298-4.134-9.285l-.689-1.527a544.294 544.294 0 0 0-4.427-9.642c-.2-.406-.385-.814-.57-1.22-.478-1.051-.929-2.044-1.659-3.076a13.585 13.585 0 0 0-3.112-3.15c-1.878-1.389-4.062-2.206-6.498-2.434z" fill="#1d2445"/><path d="M104.574 50.363c-13.321 10.893 6.733 19.441 16.123 20.716 10.068 1.367 21.468 2.268 31.487-.546 10.669-2.996 22.549-12.261 22.849-23.369-2.415 2.23-3.354 1.788-8.534 2.81-4.537.895-9.605-.283-13.715-1.679-3.504-1.19-7.412-3.287-11.097-4.526-4.35-1.463-26.347-2.21-37.113 6.594z" fill="#fff"/><path d="M137.132 72.876c-6.193 0-12.384-.743-16.502-1.302-6.274-.852-18.799-5.292-20.739-12.156-.894-3.165.575-6.342 4.366-9.442 8.392-6.863 22.55-7.604 28.248-7.604 4.007 0 7.675.362 9.342.922 1.903.64 3.873 1.509 5.778 2.351 1.865.823 3.626 1.601 5.32 2.176 5.406 1.837 9.826 2.379 13.458 1.662 1.269-.25 2.284-.413 3.13-.549 2.577-.414 3.446-.553 5.161-2.138a.5.5 0 0 1 .839.381c-.307 11.334-12.189 20.741-23.214 23.837-4.46 1.253-9.428 1.862-15.187 1.862zm-4.627-29.504c-4.362 0-19.243.532-27.615 7.378-3.454 2.825-4.813 5.649-4.037 8.396 1.652 5.849 12.822 10.475 19.911 11.437 4.089.555 10.235 1.293 16.367 1.293 5.666 0 10.545-.597 14.917-1.825 10.301-2.893 21.373-11.409 22.411-21.75-1.435 1.084-2.563 1.266-4.769 1.62-.836.134-1.841.295-3.095.543-3.808.75-8.393.199-13.972-1.696-1.736-.59-3.6-1.413-5.402-2.208-1.885-.832-3.833-1.692-5.693-2.317-1.288-.434-4.579-.871-9.023-.871z" fill="#1d2445"/><path d="M70.96 6.076c13.321 12.558-6.733 22.412-16.123 23.881-10.068 1.575-21.468 2.615-31.487-.629C12.681 25.874.801 15.194.5 2.388c18.308 6.077 33.874 3.129 37.559 1.701C42.41 2.404 60.195-4.072 70.96 6.076z" fill="#fff"/><path d="M38.402 31.953c-5.765 0-10.739-.703-15.207-2.149C12.179 26.237.306 15.42 0 2.4a.5.5 0 0 1 .658-.487 71.297 71.297 0 0 0 22.504 3.658c7.663 0 12.977-1.274 14.717-1.948C43.996 1.253 50.019 0 55.295 0c6.601 0 11.987 1.922 16.007 5.712 3.952 3.726 5.365 7.523 4.199 11.287-2.353 7.598-14.57 12.51-20.588 13.452-4.118.645-10.313 1.502-16.511 1.502zM1.028 3.087c.702 12.242 11.988 22.37 22.475 25.766 4.367 1.414 9.24 2.101 14.899 2.101 6.128 0 12.271-.85 16.358-1.49 5.803-.908 17.564-5.583 19.787-12.76 1.043-3.369-.279-6.822-3.93-10.264C66.788 2.83 61.633 1 55.295 1 50.141 1 44.243 2.23 38.24 4.556c-1.8.697-7.268 2.016-15.077 2.016h-.001A72.333 72.333 0 0 1 1.028 3.087z" fill="#1d2445"/><path d="M108.987 179.537h-36l-11-62h58z" fill="#fff"/><path d="M108.987 180.037h-36a.499.499 0 0 1-.492-.413l-11-62a.5.5 0 0 1 .492-.588h58a.497.497 0 0 1 .492.588l-11 62a.498.498 0 0 1-.492.413zm-35.581-1h35.162l10.822-61H62.584z" fill="#1d2445"/></svg></g><g transform="translate(103.0 210.0) rotate(0.0 154.0 9.0) scale(0.9972672287627411 0.9831767533318768)"><svg width="308.844" height="18.308" viewBox="0 0 308.844 18.308"><path d="M0 0h308.844v18.308H0z" fill="#1d2445"/><g fill="#fff"><path d="M65.076 5.065h7.173v7.173h-7.173zm41.843 0h7.173v7.173h-7.173zm45.429 7.173a3.587 3.587 0 1 1 0-7.174 3.587 3.587 0 0 1 0 7.174zm38.256-7.173h7.173v7.173h-7.173zm45.429 7.173a3.587 3.587 0 1 1 0-7.174 3.587 3.587 0 0 1 0 7.174z"/></g></svg></g><g transform="translate(258.0 329.0) rotate(0.0 33.5 20.0) scale(0.9999552258854081 0.9965122072745392)"><svg width="67.003" height="40.14" viewBox="0 0 67.003 40.14"><path d="M36.644 36.915h6.404L65.273.5h-6.404z" fill="#1d2445"/><path d="M43.048 37.415h-6.404a.5.5 0 0 1-.427-.76L58.442.24a.5.5 0 0 1 .427-.24h6.404a.5.5 0 0 1 .427.76L43.475 37.175a.5.5 0 0 1-.427.24zm-5.513-1h5.232L64.382 1H59.15z" fill="#1d2445"/><path d="M40.378 39.64H3.5a3 3 0 0 1-3-3h42.878a3 3 0 0 1-3 3z" fill="#fff"/><path d="M40.378 40.14H3.5c-1.93 0-3.5-1.57-3.5-3.5a.5.5 0 0 1 .5-.5h42.878a.5.5 0 0 1 .5.5c0 1.93-1.57 3.5-3.5 3.5zm-39.328-3c.232 1.14 1.242 2 2.45 2h36.878c1.208 0 2.217-.86 2.45-2z" fill="#1d2445"/><path d="M66.057 4.628 46.702 36.019a3 3 0 0 1-4.128.979L65.077.5a3 3 0 0 1 .98 4.128z" fill="#fff"/><path d="M44.145 37.945c-.646 0-1.281-.18-1.833-.521a.501.501 0 0 1-.164-.688L64.652.238a.497.497 0 0 1 .689-.163 3.504 3.504 0 0 1 1.142 4.816l-19.356 31.39a3.48 3.48 0 0 1-2.982 1.664zm-.857-1.153c1.091.401 2.375-.042 2.988-1.035L65.631 4.366a2.503 2.503 0 0 0-.417-3.135z" fill="#1d2445"/></svg></g><g transform="translate(517.0 329.0) rotate(0.0 -44.0 19.5) scale(-0.9977437385911405 0.9831850152519727)"><svg width="88.199" height="39.667" viewBox="0 0 88.199 39.667"><path d="M40.378 39.167H3.5a3 3 0 0 1-3-3h42.878a3 3 0 0 1-3 3z" fill="#fff"/><path d="M40.378 39.667H3.5c-1.93 0-3.5-1.57-3.5-3.5a.5.5 0 0 1 .5-.5h42.878a.5.5 0 0 1 .5.5c0 1.93-1.57 3.5-3.5 3.5zm-39.328-3c.232 1.14 1.242 2 2.45 2h36.878c1.208 0 2.217-.86 2.45-2z" fill="#1d2445"/><path d="M73.959 39.167h-57c-1.105 0-1.716-.895-1.365-2L26.6 2.5c.351-1.105 1.53-2 2.635-2h57c1.105 0 1.716.895 1.365 2L76.594 37.167c-.35 1.104-1.53 2-2.635 2z" fill="#fff"/><path d="M73.959 39.667h-57c-.68 0-1.251-.269-1.608-.757-.37-.506-.456-1.196-.234-1.895L26.123 2.348C26.541 1.032 27.908 0 29.235 0h57c.68 0 1.25.269 1.607.757.37.506.456 1.196.234 1.895L77.071 37.318c-.418 1.317-1.785 2.349-3.112 2.349zM29.235 1c-.886 0-1.875.756-2.159 1.651L16.071 37.318c-.126.396-.095.752.088 1.001.164.224.448.347.801.347h57c.886 0 1.874-.756 2.158-1.651L87.123 2.348c.126-.396.095-.752-.087-1.001-.164-.224-.449-.347-.801-.347z" fill="#1d2445"/><path d="M50.896 24.667h-1.667c-2.209 0-3.431-1.791-2.73-4L47.028 19c.701-2.209 3.061-4 5.27-4h1.667c2.209 0 3.431 1.791 2.73 4l-.529 1.667c-.702 2.209-3.061 4-5.27 4z" fill="#fff"/><path d="M50.896 25.167h-1.667c-1.196 0-2.195-.465-2.813-1.309-.645-.881-.789-2.1-.395-3.342l.529-1.667c.761-2.398 3.339-4.349 5.747-4.349h1.667c1.196 0 2.195.465 2.813 1.309.645.882.789 2.1.394 3.342l-.529 1.667c-.761 2.398-3.339 4.349-5.746 4.349zm1.402-9.667c-2.004 0-4.154 1.638-4.793 3.651l-.529 1.667c-.301.949-.213 1.819.249 2.449.424.58 1.137.899 2.005.899h1.667c2.003 0 4.154-1.638 4.793-3.651l.529-1.667c.301-.949.213-1.818-.248-2.449-.424-.58-1.137-.899-2.005-.899z" fill="#1d2445"/></svg></g><g transform="translate(232.0 367.0) rotate(0.0 182.5 80.0) translate(0.0 0.0) scale(0.873218275860419 0.8697921196833956)"><svg width="417.994" height="159.808" viewBox="0 0 417.994 159.808"><path d="M408.628 183.452 368.799 34.999 328.97 183.452l-7.726-2.073L368.799 4.126l47.555 177.253z" fill="#fff"/><path d="M408.628 183.952a.496.496 0 0 1-.483-.371L368.799 36.929l-39.346 146.653a.501.501 0 0 1-.612.354l-7.727-2.073a.5.5 0 0 1-.354-.612L368.316 3.997c.117-.438.849-.438.966 0l47.555 177.253a.498.498 0 0 1-.354.612l-7.727 2.073a.5.5 0 0 1-.128.017zm-86.772-2.926 6.761 1.814 39.7-147.97c.117-.438.849-.438.966 0l39.699 147.97 6.761-1.814-46.944-174.97z" fill="#1d2445"/><path d="M87.884 183.452 48.056 34.999 8.227 183.452.5 181.379 48.056 4.126l47.555 177.253z" fill="#fff"/><path d="M87.884 183.952a.496.496 0 0 1-.483-.371L48.056 36.929 8.709 183.582a.501.501 0 0 1-.612.354L.37 181.863a.5.5 0 0 1-.354-.612L47.573 3.997c.117-.438.849-.438.966 0L96.094 181.25a.498.498 0 0 1-.354.612l-7.727 2.073a.507.507 0 0 1-.129.017zm-86.772-2.926 6.761 1.814 39.7-147.97c.117-.438.849-.438.966 0l39.699 147.97 6.761-1.814L48.056 6.056z" fill="#1d2445"/><path d="M357.634 12.906h22.331v19.849h-22.331z" fill="#fff"/><path d="M379.964 33.255h-22.331a.5.5 0 0 1-.5-.5V12.906a.5.5 0 0 1 .5-.5h22.331a.5.5 0 0 1 .5.5v19.849a.5.5 0 0 1-.5.5zm-21.83-1h21.331V13.406h-21.331z" fill="#1d2445"/><path d="M36.89 12.906h22.331v19.849H36.89z" fill="#fff"/><g fill="#1d2445"><path d="M59.221 33.255H36.89a.5.5 0 0 1-.5-.5V12.906a.5.5 0 0 1 .5-.5h22.331a.5.5 0 0 1 .5.5v19.849a.5.5 0 0 1-.5.5zm-21.831-1h21.331V13.406H37.39zm320.244-20.349h22.331v9.849h-22.331z"/><path d="M379.964 22.255h-22.331a.5.5 0 0 1-.5-.5v-9.849a.5.5 0 0 1 .5-.5h22.331a.5.5 0 0 1 .5.5v9.849a.5.5 0 0 1-.5.5zm-21.83-1h21.331v-8.849h-21.331zM36.89 11.906h22.331v9.849H36.89z"/><path d="M59.221 22.255H36.89a.5.5 0 0 1-.5-.5v-9.849a.5.5 0 0 1 .5-.5h22.331a.5.5 0 0 1 .5.5v9.849a.5.5 0 0 1-.5.5zm-21.831-1h21.331v-8.849H37.39z"/></g><path d="M.658.5h416.837v17.368H.658z" fill="#fff"/><path d="M417.495 18.368H.658a.5.5 0 0 1-.5-.5V.5a.5.5 0 0 1 .5-.5h416.837a.5.5 0 0 1 .5.5v17.368a.5.5 0 0 1-.5.5zm-416.337-1h415.837V1H1.158z" fill="#1d2445"/></svg></g><g transform="translate(569.0 261.0) rotate(0.0 67.5 127.0) scale(0.9981810922319329 0.9991110271962742)"><svg width="135.246" height="254.226" viewBox="0 0 135.246 254.226"><g><path d="M28.37 48.002a1.2 1.2 0 0 0-.134-.526l-1.77-3.339a.656.656 0 0 0-.887-.272l-.225.119a2.296 2.296 0 0 0-1.074 2.834l.346.922-1.042 1.267c-.181.083-.442.198-.468.21a.507.507 0 0 1-.473-.036c-.119-.08-.171-.213-.185-.353l2.808-5.674.013-.022-.003.001 1.248-2.523a1.35 1.35 0 0 0-.407-1.821c-.899-.6-1.972-.731-2.531.013l-1.142 1.703.53-1.07c.125-.234.125-.777-.149-.921l-.013-.007c-.898-.6-2.676-.984-3.234-.239l-.105.161.079-.16c.125-.234.125-.777-.149-.921l-.013-.007c-.857-.572-2.539-.87-3.177-.249.009-.198-.03-.392-.163-.471a.067.067 0 0 1-.011-.007c-.781-.593-1.83-1.077-2.417-.356L7.331 44.07l.029.041a4.56 4.56 0 0 0-.811 1.13l-.259.527a7.806 7.806 0 0 0-.595 1.701c-.005.007-.015.009-.015.018l-.011.109a7.851 7.851 0 0 0-.172 1.701L2.18 82.171l4.789-.573 11.947-1.537-1.636-21.488c.853-.234 1.579-.671 2.41-1.172l2.872-1.739a6.74 6.74 0 0 0 2.052-2.096l3.428-4.203c.322-.396.422-.896.328-1.361z" fill="#fff"/><path d="M2.18 82.671a.5.5 0 0 1-.497-.55L5 49.247a8.07 8.07 0 0 1 .18-1.754l.003-.057a.5.5 0 0 1 .043-.154 8.305 8.305 0 0 1 .616-1.733l.258-.527c.185-.379.436-.744.765-1.11a.42.42 0 0 1 .078-.155l6.294-7.811a1.45 1.45 0 0 1 1.162-.548c.718 0 1.455.445 1.947.819a.618.618 0 0 1 .167.147c.874-.279 2.306-.007 3.16.563.166.084.311.263.392.5.845-.206 2.187.104 3.029.667l-.001.003a.943.943 0 0 1 .254.23c.715-.723 1.96-.679 3.051.049a1.852 1.852 0 0 1 .577 2.462l-1.217 2.46c.467-.055.932.189 1.153.607l1.77 3.339c.116.219.18.468.191.74.119.556-.039 1.203-.441 1.697l-3.428 4.203a7.063 7.063 0 0 1-2.169 2.201l-2.884 1.746c-.74.446-1.394.839-2.14 1.102l1.605 21.092a.5.5 0 0 1-.435.534l-16.74 2.11-.06.002zm3.987-35.039-.001.016a7.696 7.696 0 0 0-.169 1.646L2.74 81.6l4.169-.499 11.472-1.476-1.6-21.015a.501.501 0 0 1 .366-.521c.787-.215 1.48-.633 2.284-1.117l2.872-1.738A6.186 6.186 0 0 0 24.19 53.3l3.463-4.253c.213-.261.295-.605.227-.945-.014-.202-.039-.304-.085-.391l-1.77-3.339a.155.155 0 0 0-.138-.083l-.297.138a1.8 1.8 0 0 0-.84 2.217l.346.921a.5.5 0 0 1-.082.493l-1.042 1.268a.496.496 0 0 1-.179.138l-.415.187c-.435.194-.729.131-1.005-.049-.236-.157-.379-.413-.41-.723a.507.507 0 0 1 .049-.271l2.808-5.674h.001c.003-.007.006-.015.01-.021l1.248-2.523c.36-.715-.083-1.083-.228-1.178-.747-.498-1.519-.564-1.861-.108l-1.127 1.681a.501.501 0 0 1-.863-.501l.531-1.07a.545.545 0 0 0 .015-.286l-.006-.004c-.774-.516-2.282-.722-2.557-.355l-.087.135a.501.501 0 0 1-.866-.497l.08-.16a.496.496 0 0 0 .006-.309c-.712-.449-2.189-.635-2.548-.287a.502.502 0 0 1-.848-.382.907.907 0 0 0-.001-.078c-.82-.595-1.409-.775-1.703-.416L7.83 44.247a.443.443 0 0 1-.108.208 4.024 4.024 0 0 0-.725 1.006l-.257.527a7.406 7.406 0 0 0-.558 1.594.474.474 0 0 1-.015.05zm17.694-.509-.789 1.595.187-.101.798-.971z" fill="#1d2445"/></g><path d="M120.176 94.452a72.58 72.58 0 0 0-16.043-25.915L86.55 50.917l-.064-.075a35.246 35.246 0 0 0-4.269-4.266l-.109-.109a2.117 2.117 0 0 0-.42-.318c-10.55-8.532-25.318-10.365-37.825-4.142l-3.757 8.273-6.945 19.73-13.813 11.241-.927-7.702-15.231-.06L.68 93.354c-.36 3.705-.334 5.02 1.574 8.216l2.01 3.367a7.88 7.88 0 0 0 7.162 3.829l7.568-.384a5.626 5.626 0 0 0 2.63-.805.44.44 0 0 0 .197-.086l.622-.506.04-.032L44.82 88.777a34.63 34.63 0 0 0 2.714 4.295l33.404 39.406 47.73-14.232z" fill="#fff"/><path d="M80.937 132.978a.498.498 0 0 1-.381-.177L47.151 93.395a35.343 35.343 0 0 1-2.483-3.851l-22.532 18.334a.904.904 0 0 1-.32.166 6.098 6.098 0 0 1-2.797.837l-7.568.384c-3.084.147-6.04-1.432-7.616-4.072l-2.011-3.367c-2.021-3.386-2-4.833-1.642-8.521l2.512-19.879a.5.5 0 0 1 .496-.438h.002l15.232.06c.252.001.464.19.495.44l.818 6.801L32.738 69.71l6.898-19.597 3.773-8.314a.494.494 0 0 1 .232-.241 35.854 35.854 0 0 1 15.89-3.74 35.85 35.85 0 0 1 22.473 7.94c.18.105.34.229.467.361l.101.101a35.607 35.607 0 0 1 4.298 4.298l17.618 17.664a72.613 72.613 0 0 1 16.159 26.1l8.491 23.793a.5.5 0 0 1-.328.647l-47.73 14.232a.417.417 0 0 1-.143.024zM44.819 88.277a.505.505 0 0 1 .442.265 34.337 34.337 0 0 0 2.674 4.233l33.172 39.13 46.912-13.989-8.313-23.297a71.628 71.628 0 0 0-15.932-25.736L86.197 51.271a34.9 34.9 0 0 0-4.3-4.312l-.141-.138a1.672 1.672 0 0 0-.329-.246 34.915 34.915 0 0 0-21.896-7.755 34.853 34.853 0 0 0-15.286 3.557l-3.683 8.111-6.928 19.689a.498.498 0 0 1-.156.222l-13.815 11.24a.5.5 0 0 1-.812-.328l-.874-7.264-14.347-.056-2.454 19.426c-.34 3.508-.36 4.771 1.507 7.897l2.011 3.367a7.407 7.407 0 0 0 6.707 3.585l7.568-.384a5.107 5.107 0 0 0 2.397-.733.516.516 0 0 1 .162-.063l.6-.49 22.376-18.208a.504.504 0 0 1 .315-.111z" fill="#1d2445"/><path d="m35.395 207.256 7.908 29.99 20.142-2.089-4.924-25.513z" fill="#fff"/><g fill="#1d2445"><path d="M43.302 237.746a.499.499 0 0 1-.483-.373l-7.908-29.99a.5.5 0 0 1 .535-.625l23.126 2.387a.5.5 0 0 1 .439.403l4.924 25.514a.5.5 0 0 1-.439.593l-20.143 2.089a.836.836 0 0 1-.051.002zm-7.239-29.918 7.614 28.876 19.174-1.988-4.75-24.613zm89.54-92.637-87.18 13.607c-6.253.976-10.153 7.31-8.208 13.332 2.505 7.757 5.425 16.59 5.721 16.574l86.167-.45a6.054 6.054 0 0 0 4.254-1.777c11.475-11.497 11.133-30.215-.754-41.286z"/><path d="M35.934 159.206c-.516-.002-.73-.002-6.194-16.921a10.77 10.77 0 0 1 1.079-8.974 10.775 10.775 0 0 1 7.528-5.006l87.419-13.645.178.166c5.85 5.447 9.151 12.849 9.297 20.84s-2.883 15.508-8.53 21.165a6.513 6.513 0 0 1-4.605 1.925zm89.505-43.483-86.938 13.57a9.781 9.781 0 0 0-6.831 4.542 9.779 9.779 0 0 0-.979 8.142c4.029 12.476 5.184 15.525 5.513 16.227l85.897-.449a5.52 5.52 0 0 0 3.902-1.631c5.453-5.464 8.379-12.723 8.238-20.44-.14-7.637-3.263-14.716-8.802-19.961z"/><path d="m45.559 129.458-5.469-.433c-5.88-.391-11.741 1.482-15.624 5.183-3.115 2.969-4.63 7.248-4.358 11.542l.341 5.382c.042.656.15 1.305.323 1.94 4.945 18.107 19.753 72.434 19.753 72.434l20.605-4.04-.521-4.554-1.31-46.413a18.713 18.713 0 0 0-.297-3.061l-2.33-12.897z"/><path d="m40.166 226.086-.122-.449s-14.808-54.327-19.753-72.434a10.241 10.241 0 0 1-.34-2.04l-.341-5.381c-.29-4.575 1.354-8.926 4.511-11.936 3.916-3.733 9.864-5.729 16.002-5.32l5.772.457 11.271 25.468 2.33 12.897c.187 1.03.289 2.087.305 3.142l1.31 46.407.57 4.97zm-1.611-96.612c-5.337 0-10.347 1.857-13.744 5.096-2.943 2.806-4.475 6.87-4.204 11.149l.341 5.381c.039.62.143 1.239.307 1.84 4.681 17.142 18.203 66.748 19.631 71.986l19.695-3.862-.468-4.096-1.313-46.456a18.285 18.285 0 0 0-.289-2.985l-2.319-12.839-10.97-24.755-5.172-.41a22.485 22.485 0 0 0-1.495-.049zm9.747-112.433L23.796 9.858A13.715 13.715 0 0 1 38.285.065l6.586.64c4.149.403 6.906 4.483 5.734 8.482z"/><path d="m38.731 8.118-1.625 5.542-4.94-1.448-5.435 18.542-1.853-.543-4.952-16.516 7.163-9.305z"/></g><path d="m43.039 2.776.487.129a3.858 3.858 0 0 1 2.736 4.719l-3.444 12.945-17.261-4.593.965-3.626C28.439 5.146 35.835.859 43.039 2.776z" fill="#c78982"/><path d="m33.34 30.135-10.82-2.88 3.66-13.754L37 16.38z" fill="#c78982"/><path d="m53.472 2.943-5.086-1.491C38.888-1.332 28.932 4.11 26.149 13.609l-1.73 5.902-3.928 2.227c-1.581.896-1.337 3.245.393 3.798l1.631.521a6.097 6.097 0 0 0-.155.905l-1.975 6.595c-.672 2.529 1.314 4.98 3.927 4.844l9.451-.49 7.603 24.761c.294.958 1.6 1.08 2.068.194L55.96 39.131l-2.077-6.764a15.819 15.819 0 0 0 3.816-6.565l2.886-9.847c1.629-5.557-1.555-11.383-7.113-13.012z" fill="#fff"/><path d="M42.444 63.965c-.72 0-1.345-.461-1.556-1.147L33.4 38.43l-9.062.47a4.315 4.315 0 0 1-3.68-1.697 4.324 4.324 0 0 1-.756-3.775l1.965-6.562c.015-.151.037-.307.066-.47l-1.201-.384a2.551 2.551 0 0 1-1.784-2.195c-.107-1.037.39-2 1.296-2.514l3.751-2.127 1.673-5.708C27.954 5.67 35.22.224 43.337.224c1.75 0 3.496.252 5.19.749l5.086 1.491c5.813 1.705 9.156 7.82 7.452 13.633l-2.886 9.847a16.198 16.198 0 0 1-3.732 6.557l1.991 6.485a.498.498 0 0 1-.036.38L43.876 63.099a1.595 1.595 0 0 1-1.432.866zM33.763 37.41a.5.5 0 0 1 .478.353l7.603 24.761a.61.61 0 0 0 .6.441c.112 0 .39-.032.548-.333l12.43-23.552-2.017-6.566a.502.502 0 0 1 .119-.495 15.2 15.2 0 0 0 3.695-6.358l2.886-9.847c1.549-5.284-1.49-10.843-6.773-12.392l-5.086-1.491a17.444 17.444 0 0 0-4.909-.708c-7.677 0-14.548 5.151-16.708 12.526l-1.73 5.902a.5.5 0 0 1-.233.294l-3.928 2.227a1.567 1.567 0 0 0-.795 1.541 1.568 1.568 0 0 0 1.094 1.346l1.631.521c.25.08.395.338.333.593a5.734 5.734 0 0 0-.143.831.49.49 0 0 1-.019.1L20.864 33.7a3.324 3.324 0 0 0 .587 2.894 3.325 3.325 0 0 0 2.654 1.312l.181-.005 9.451-.49.026-.001z" fill="#1d2445"/><path d="M29.47 19.371a.5.5 0 0 1-.439-.26l-.725-1.326a.622.622 0 0 0-.371-.299l-2.461-.721a.5.5 0 1 1 .282-.96l2.461.721c.411.121.764.405.968.78l.724 1.325a.501.501 0 0 1-.439.74zM36.069.504l-3.343 11.403a4.184 4.184 0 0 0 2.837 5.191l4.047 1.186a4.042 4.042 0 0 1 2.742 5.016l-2.787 9.508a3.64 3.64 0 0 0 5.239 4.218l17.667-9.657a2.022 2.022 0 0 0 .804-2.743l-6.757-15.75A13.35 13.35 0 0 0 44.7.796z" fill="#1d2445"/><path d="m49.63 1.786 8.492 2.519c5.922 1.736 9.315 7.943 7.579 13.865l-5.416 18.476a3.001 3.001 0 0 1-3.004 2.154l-14.445-.603a3 3 0 0 1-2.754-3.841z" fill="#1d2445"/><path d="m47.829 19.735-.333-.098a4.81 4.81 0 0 0-5.968 3.262l-2.607 8.893 4.355-1.174a6.143 6.143 0 0 0 4.005-3.414l1.968-4.382a2.253 2.253 0 0 0-1.42-3.087z" fill="#fff"/><path d="m110.794 117.67 16.621-2.863 4.452 9.002z" fill="#1d2445"/><path d="m132.82 124.607-24.245-7.062 19.122-3.294zm-19.808-6.811 17.903 5.214-3.783-7.647zM21.537 30.639a.5.5 0 0 1-.016-1l1.645-.052c.338-.011.671-.175.912-.451l.096-.11-2.148-.642a.5.5 0 1 1 .286-.958l2.893.864a.5.5 0 0 1 .233.808l-.608.696a2.285 2.285 0 0 1-1.633.791l-1.645.052c-.004.002-.009.002-.015.002z" fill="#1d2445"/><path d="m20.415 250.773-4.399-2.62c-1.213-.723-2.057-1.958-2.244-3.284-.274-1.949.927-3.602 2.818-3.878l8.342-1.216c5.272-.769 9.621-3.836 11.919-8.407l2.751-5.472 3.66 2.059c.882.496 1.337 1.523 1.057 2.387l-.801 2.472 5.018 1.97c3.399 1.334 7.004.72 9.286-1.583l3.524-3.555c.617-.623 1.795-.156 1.976.784l3.079 15.996-.434 3.765z" fill="#fff"/><path d="M20.415 251.273a.503.503 0 0 1-.256-.07l-4.399-2.621c-1.347-.802-2.275-2.165-2.483-3.644-.312-2.217 1.082-4.127 3.241-4.442l8.342-1.216c5.112-.745 9.32-3.711 11.545-8.137l2.751-5.472a.498.498 0 0 1 .692-.211l3.66 2.06c1.086.611 1.64 1.891 1.288 2.977l-.656 2.024 4.581 1.798c3.165 1.242 6.642.655 8.749-1.47l3.523-3.555c.276-.278.65-.432 1.053-.432.847 0 1.607.633 1.769 1.473l3.08 15.996c.009.05.011.102.005.152l-.434 3.766a.501.501 0 0 1-.49.443l-45.554.582-.007-.001zm19.399-24.684-2.516 5.003c-2.374 4.722-6.855 7.884-12.294 8.677l-8.342 1.216c-1.624.237-2.631 1.63-2.395 3.313.167 1.183.916 2.276 2.004 2.924l4.278 2.548 44.973-.574.375-3.252-3.065-15.92c-.114-.588-.837-.823-1.13-.526l-3.523 3.555c-1.551 1.565-3.703 2.427-6.057 2.427-1.265 0-2.532-.246-3.767-.731l-5.019-1.97a.5.5 0 0 1-.293-.62l.801-2.472c.205-.631-.159-1.42-.827-1.797z" fill="#1d2445"/><path d="m67.783 247.478-.523 1.583c-.942 2.848-3.552 4.665-6.7 4.665H27.087a4.15 4.15 0 0 1-1.905-.481l-7.997-4.17h27.561c.488 0 .93-.191 1.232-.531 1.516-1.71 3.736-2.667 6.188-2.667h14.375c.825-.001 1.489.856 1.242 1.601z" fill="#fff"/><path d="M60.56 254.226H27.087c-.722 0-1.46-.186-2.135-.538l-7.997-4.17a.5.5 0 0 1 .232-.944h27.561c.346 0 .65-.129.857-.363 1.621-1.829 3.952-2.836 6.563-2.836h14.375c.564 0 1.109.287 1.456.767.329.456.424 1 .261 1.493l-.523 1.583c-1.009 3.042-3.825 5.008-7.177 5.008zm-41.334-4.652 6.188 3.227a3.642 3.642 0 0 0 1.673.425H60.56c2.914 0 5.357-1.696 6.226-4.322l.523-1.583c.061-.186.017-.401-.122-.594a.811.811 0 0 0-.645-.352H52.167c-2.321 0-4.385.888-5.814 2.499-.394.445-.979.7-1.605.7zM38.679 41.973a.5.5 0 0 1-.499-.479l-.076-1.823a1.49 1.49 0 0 0-.495-1.053 1.52 1.52 0 0 0-1.099-.382l-4.243.272a.496.496 0 0 1-.531-.467.499.499 0 0 1 .467-.531l4.242-.272a2.485 2.485 0 0 1 1.833.637c.504.454.797 1.077.825 1.754l.076 1.823a.5.5 0 0 1-.479.521h-.021z" fill="#1d2445"/><path d="m48.272 63.675-7.438 5.993-3.07-3.81 7.438-5.993zm-15.62 6.737 12.48-10.772" fill="#fff"/><path d="M32.652 70.912a.498.498 0 0 1-.326-.878l12.48-10.772a.5.5 0 1 1 .653.757l-12.48 10.772a.5.5 0 0 1-.327.121z" fill="#1d2445"/><path d="M43.077 90.199 64.111 74.08c1.376-1.054 3.35.021 3.21 1.749l-.274 3.384" fill="#fff"/><path d="M43.077 90.698a.5.5 0 0 1-.304-.897l21.034-16.118a2.47 2.47 0 0 1 2.717-.21 2.47 2.47 0 0 1 1.296 2.397l-.274 3.384a.508.508 0 0 1-.539.458.5.5 0 0 1-.458-.539l.274-3.384c.049-.608-.241-1.146-.777-1.438s-1.146-.246-1.63.126L43.381 90.595a.496.496 0 0 1-.304.103z" fill="#1d2445"/></svg></g><g transform="translate(761.0 306.0) rotate(0.0 -73.0 105.0) scale(-0.998570539433277 0.9982791568819464)"><svg width="146.209" height="210.362" viewBox="0 0 146.209 210.362"><path d="M74.337 123.167h8.467v59.605h-8.467z" fill="#fff"/><path d="M82.805 183.272h-8.467a.5.5 0 0 1-.5-.5v-59.605a.5.5 0 0 1 .5-.5h8.467a.5.5 0 0 1 .5.5v59.605a.5.5 0 0 1-.5.5zm-7.968-1h7.467v-58.605h-7.467z" fill="#1d2445"/><path d="M144.328 197.71h-4v-6.179c-19.107-5.374-39.695-8.157-61.224-8.276l.022-4c22.44.124 43.891 3.101 63.757 8.846l1.444.417v9.192z" fill="#fff"/><path d="M144.328 198.21h-4a.5.5 0 0 1-.5-.5v-5.8c-18.957-5.294-39.385-8.037-60.727-8.155-.132-.001-.259-.054-.353-.148s-.146-.222-.145-.354l.022-4a.5.5 0 0 1 .5-.497h.003c22.484.124 43.981 3.107 63.893 8.865l1.444.417a.5.5 0 0 1 .361.48v9.192a.497.497 0 0 1-.498.5zm-3.5-1h3v-8.316l-1.083-.313c-19.676-5.69-40.91-8.658-63.121-8.823l-.017 3c21.386.16 41.859 2.949 60.856 8.292a.5.5 0 0 1 .365.481z" fill="#1d2445"/><path d="M116.578 188.234c-11.652-5.831-24.237-8.853-37.405-8.979l-.068.021v-.021c-22.44.124-43.891 3.101-63.756 8.846l-1.444.417v9.192h4v-6.179c19.106-5.374 39.694-8.157 61.223-8.276v-.002l.007.002c12.139.116 23.755 2.812 34.548 8.013v6.442h4v-8.924z" fill="#fff"/><g fill="#1d2445"><path d="M117.683 198.21h-4a.5.5 0 0 1-.5-.5v-6.128c-10.646-5.079-22.101-7.713-34.053-7.827l-.037-.002c-21.332.123-41.746 2.867-60.689 8.157v5.8a.5.5 0 0 1-.5.5h-4a.5.5 0 0 1-.5-.5v-9.192c0-.223.147-.419.361-.48l1.444-.417c19.911-5.758 41.408-8.741 63.892-8.865.018-.003.031.001.046.002.012-.001.026.007.03-.002 13.243.127 25.902 3.165 37.624 9.031l1.105.553a.5.5 0 0 1 .276.447v8.924a.498.498 0 0 1-.499.499zm-3.5-1h3v-8.115l-.829-.414c-11.575-5.792-24.074-8.795-37.15-8.926a.572.572 0 0 1-.117 0c-22.385.126-43.783 3.095-63.6 8.826l-1.083.313v8.316h3v-5.679c0-.224.149-.421.365-.481 19.145-5.385 39.788-8.176 61.355-8.295 12.222.117 23.917 2.829 34.776 8.063a.499.499 0 0 1 .283.45z"/><path d="M112.712 197.044h3.509c1.174 0 2.126.952 2.126 2.126v5.6H106.07l-.008-1.024a6.65 6.65 0 0 1 6.65-6.702z"/><path d="M118.847 205.27h-13.273l-.012-1.521c-.015-1.921.722-3.729 2.074-5.092s3.155-2.114 5.076-2.114h3.509a2.63 2.63 0 0 1 2.626 2.627zm-12.281-1h11.281v-5.1c0-.897-.729-1.627-1.626-1.627h-3.509c-1.652 0-3.202.646-4.366 1.818s-1.797 2.728-1.784 4.38zm-88.712-7.226h-3.509a2.126 2.126 0 0 0-2.126 2.126v5.6h12.277l.008-1.024a6.65 6.65 0 0 0-6.65-6.702z"/><path d="M24.992 205.27H11.718v-6.1a2.63 2.63 0 0 1 2.626-2.627h3.51c1.92 0 3.723.751 5.075 2.114s2.089 3.171 2.074 5.092zm-12.274-1h11.281l.004-.528c.013-1.652-.621-3.207-1.784-4.38s-2.714-1.818-4.365-1.818h-3.51c-.896 0-1.626.729-1.626 1.627zm127.355-7.226h3.509c1.174 0 2.126.952 2.126 2.126v5.6h-12.277l-.008-1.024a6.65 6.65 0 0 1 6.65-6.702z"/><path d="M146.209 205.27h-13.273l-.012-1.521a7.106 7.106 0 0 1 2.074-5.093 7.105 7.105 0 0 1 5.075-2.113h3.51a2.63 2.63 0 0 1 2.626 2.627zm-12.281-1h11.281v-5.1c0-.897-.729-1.627-1.626-1.627h-3.51a6.107 6.107 0 0 0-4.365 1.818 6.104 6.104 0 0 0-1.784 4.38z"/></g><circle cx="112.92" cy="204.435" fill="#fff" r="5.427"/><path d="M112.92 210.362a5.934 5.934 0 0 1-5.927-5.927c0-3.269 2.659-5.928 5.927-5.928s5.927 2.659 5.927 5.928a5.934 5.934 0 0 1-5.927 5.927zm0-10.854c-2.717 0-4.927 2.211-4.927 4.928s2.21 4.927 4.927 4.927 4.927-2.21 4.927-4.927-2.21-4.928-4.927-4.928z" fill="#1d2445"/><circle cx="140.282" cy="204.435" fill="#fff" r="5.427"/><path d="M140.282 210.362a5.934 5.934 0 0 1-5.927-5.927c0-3.269 2.659-5.928 5.927-5.928s5.927 2.659 5.927 5.928a5.934 5.934 0 0 1-5.927 5.927zm0-10.854c-2.717 0-4.927 2.211-4.927 4.928s2.21 4.927 4.927 4.927 4.927-2.21 4.927-4.927-2.211-4.928-4.927-4.928z" fill="#1d2445"/><circle cx="17.645" cy="204.435" fill="#fff" r="5.427"/><path d="M17.645 210.362a5.934 5.934 0 0 1-5.927-5.927c0-3.269 2.659-5.928 5.927-5.928s5.927 2.659 5.927 5.928a5.934 5.934 0 0 1-5.927 5.927zm0-10.854c-2.717 0-4.927 2.211-4.927 4.928s2.21 4.927 4.927 4.927 4.927-2.21 4.927-4.927-2.21-4.928-4.927-4.928zm56.897-77.554h8.467v5.939h-8.467z" fill="#1d2445"/><path d="M83.009 128.393h-8.467a.5.5 0 0 1-.5-.5v-5.939a.5.5 0 0 1 .5-.5h8.467a.5.5 0 0 1 .5.5v5.939a.5.5 0 0 1-.5.5zm-7.967-1h7.467v-4.939h-7.467z" fill="#1d2445"/><path d="M124.898 124.469H49.823c-10.238 0-18.567-8.329-18.567-18.567V87.789a9.393 9.393 0 0 0-.634-3.4L.837 7.302a5 5 0 0 1 9.328-3.604l29.784 77.087a19.354 19.354 0 0 1 1.306 7.004v18.112c0 4.724 3.843 8.567 8.567 8.567h75.075a5 5 0 0 1 .001 10.001z" fill="#fff"/><path d="M124.898 124.969H49.823c-10.514 0-19.067-8.554-19.067-19.067V87.789a8.907 8.907 0 0 0-.601-3.221L.371 7.483a5.464 5.464 0 0 1 .101-4.208A5.472 5.472 0 0 1 3.519.369 5.504 5.504 0 0 1 5.5 0a5.465 5.465 0 0 1 5.132 3.519l29.784 77.086a19.867 19.867 0 0 1 1.34 7.185v18.112c0 4.448 3.619 8.067 8.067 8.067h75.075c3.033 0 5.5 2.468 5.5 5.5 0 3.033-2.467 5.5-5.5 5.5zM5.5 1c-.554 0-1.099.102-1.621.303a4.464 4.464 0 0 0-2.492 2.376 4.466 4.466 0 0 0-.083 3.442l29.784 77.087a9.91 9.91 0 0 1 .668 3.581v18.112c0 9.962 8.105 18.067 18.067 18.067h75.075c2.481 0 4.5-2.019 4.5-4.5s-2.019-4.5-4.5-4.5H49.823c-5 0-9.067-4.067-9.067-9.067V87.789c0-2.343-.428-4.639-1.272-6.823L9.699 3.879A4.472 4.472 0 0 0 5.5 1z" fill="#1d2445"/><path d="M95.082 126.818a2 2 0 0 1-2-2v-2.785l7.711-26.752c.21-.729.061-1.438-.445-2.109-.847-1.127-2.478-1.826-4.255-1.826H59.241c-1.833 0-3.487.731-4.315 1.909-.491.697-.604 1.428-.337 2.172l9.667 26.928v2.297a2 2 0 0 1-4 0v-1.602l-9.432-26.271c-.702-1.954-.399-4.077.83-5.825 1.589-2.259 4.425-3.607 7.587-3.607h36.853c3.054 0 5.839 1.278 7.451 3.421 1.265 1.681 1.653 3.678 1.092 5.622l-7.555 26.209v2.221a2 2 0 0 1-2 1.998z" fill="#fff"/><path d="M95.082 127.318a2.503 2.503 0 0 1-2.5-2.5v-2.785c0-.047.006-.094.02-.139l7.711-26.752c.167-.577.047-1.124-.364-1.67-.754-1.004-2.232-1.627-3.855-1.627H59.241c-1.673 0-3.17.65-3.907 1.697-.397.563-.487 1.125-.275 1.715l9.667 26.928c.02.054.029.111.029.169v2.297c0 1.379-1.122 2.5-2.5 2.5s-2.5-1.121-2.5-2.5v-1.515l-9.403-26.189c-.757-2.109-.432-4.399.892-6.282 1.683-2.392 4.672-3.819 7.996-3.819h36.853c3.21 0 6.146 1.354 7.851 3.62 1.362 1.81 1.778 3.962 1.173 6.062l-7.536 26.141v2.15a2.502 2.502 0 0 1-2.499 2.499zm-1.5-5.215v2.715c0 .827.673 1.5 1.5 1.5s1.5-.673 1.5-1.5v-2.221c0-.047.006-.094.02-.139l7.555-26.209c.516-1.79.157-3.63-1.011-5.183-1.518-2.018-4.154-3.222-7.052-3.222H59.241c-2.999 0-5.683 1.27-7.178 3.396-1.135 1.612-1.415 3.569-.769 5.368l9.432 26.271c.02.054.029.111.029.169v1.602c0 .827.673 1.5 1.5 1.5s1.5-.673 1.5-1.5v-2.21l-9.638-26.846c-.321-.894-.183-1.803.399-2.629.92-1.309 2.73-2.121 4.724-2.121h36.853c1.932 0 3.715.776 4.655 2.025.596.792.778 1.673.525 2.549z" fill="#1d2445"/></svg></g><g transform="translate(109.0 270.0) rotate(0.0 80.0 120.0) scale(0.999531469623614 0.9961813049975096)"><svg width="160.075" height="240.92" viewBox="0 0 160.075 240.92"><path d="M157.702 87.915h-3.048l-.417-.967a1.802 1.802 0 0 0-1.735-1.283l-3.599.043a7.494 7.494 0 0 0-4.79 1.813l-1.685 1.45a3.433 3.433 0 0 0-1.431 1.533l-25.149-3.754a37.424 37.424 0 0 0-4.95-.329H97.094v11.546a3.745 3.745 0 0 0 3.745 3.746h50.015c1.446 0 2.77-.813 3.423-2.104l3.914-7.728a1.68 1.68 0 0 0 1.384-1.651v-.441a1.873 1.873 0 0 0-1.873-1.874z" fill="#fff"/><path d="M150.854 102.211h-50.015a4.25 4.25 0 0 1-4.245-4.246V86.42a.5.5 0 0 1 .5-.5h13.805c1.668 0 3.356.112 5.016.333l24.805 3.704a3.975 3.975 0 0 1 1.46-1.42l1.607-1.395a8.01 8.01 0 0 1 5.109-1.935l3.6-.043c1.037 0 1.92.658 2.219 1.638l.267.612h2.72a2.375 2.375 0 0 1 2.373 2.373v.441c0 .968-.635 1.805-1.542 2.081l-3.81 7.523a4.313 4.313 0 0 1-3.869 2.379zM97.594 86.92v11.046a3.25 3.25 0 0 0 3.245 3.246h50.015a3.32 3.32 0 0 0 2.977-1.829l3.914-7.729a.5.5 0 0 1 .358-.267c.563-.101.972-.588.972-1.158v-.441c0-.757-.616-1.373-1.373-1.373h-3.048a.5.5 0 0 1-.459-.302l-.417-.967c-.189-.608-.688-.981-1.261-.981l-3.608.043a7.003 7.003 0 0 0-4.47 1.692l-1.685 1.449c-.635.374-1.058.826-1.302 1.361a.501.501 0 0 1-.529.287l-25.149-3.755a37.145 37.145 0 0 0-4.876-.323H97.594zM48.663 53.042h11.5V8.125c-6.351 0-11.5 5.149-11.5 11.5z" fill="#1d2445"/><path d="m98.168 27.95-3.135-2.741a1.87 1.87 0 0 1-.132-1.658l.874-2.173c.089-.222.135-.459.135-.699v-6.592l-3.967 2.957V13.21H64.83v15.439a10.42 10.42 0 0 0 3.732 7.998l-.032 2.626-6.682 16.965 11.284 13.919 11.227-27.58 7.791.032a3.746 3.746 0 0 0 3.761-3.745v-6.861l1.888-.98a1.874 1.874 0 0 0 .369-3.073z" fill="#fff"/><path d="M73.132 70.656a.498.498 0 0 1-.388-.186L61.46 56.551a.499.499 0 0 1-.077-.498l6.648-16.879.028-2.301a10.924 10.924 0 0 1-3.729-8.226V13.21a.5.5 0 0 1 .5-.5h27.113a.5.5 0 0 1 .5.5v2.838l3.168-2.362a.5.5 0 0 1 .799.401v6.592c0 .305-.058.603-.171.886l-.874 2.173c-.149.371-.126.797.062 1.152l3.071 2.686a2.37 2.37 0 0 1-.468 3.89l-1.619.841v6.557c0 1.134-.441 2.2-1.244 3.002a4.212 4.212 0 0 1-3 1.243l-7.471-.03-11.1 27.267a.499.499 0 0 1-.39.306c-.025.002-.05.004-.074.004zM62.42 56.149l10.567 13.035 10.908-26.796a.502.502 0 0 1 .463-.312h.002l7.791.031c.88 0 1.695-.338 2.308-.95a3.225 3.225 0 0 0 .951-2.295v-6.86c0-.187.104-.357.27-.443l1.888-.98c.409-.213.675-.597.73-1.054a1.354 1.354 0 0 0-.459-1.198l-3.135-2.741a.464.464 0 0 1-.1-.12 2.386 2.386 0 0 1-.167-2.102l.874-2.173a1.37 1.37 0 0 0 .099-.513v-5.596l-3.168 2.362a.502.502 0 0 1-.799-.401V13.71H65.33v14.938a9.926 9.926 0 0 0 3.554 7.615c.115.097.18.239.178.389l-.032 2.626a.517.517 0 0 1-.035.178z" fill="#1d2445"/><path d="M80.162 45.334a.5.5 0 0 1-.497-.447 2.504 2.504 0 0 1 .63-1.939 2.502 2.502 0 0 1 1.855-.824h.01l2.172.009a.5.5 0 0 1-.002 1h-.002l-2.172-.009h-.006c-.43 0-.825.176-1.113.494a1.48 1.48 0 0 0-.378 1.164.5.5 0 0 1-.444.55l-.053.002zm9.963-22.303a.5.5 0 0 1-.354-.853l1.068-1.068a1.634 1.634 0 0 1 1.148-.476h3.314a.5.5 0 0 1 0 1h-3.314a.625.625 0 0 0-.441.183l-1.067 1.068a.506.506 0 0 1-.354.146zm5.708 13.177a.487.487 0 0 1-.141-.021l-1.693-.498a2.38 2.38 0 0 1-1.443-1.195l-.427-.835a.499.499 0 0 1 .438-.727l3.259-.044c.155.014.262.05.358.145a.5.5 0 0 1 .149.355v2.32a.498.498 0 0 1-.5.5zm-2.448-2.288.061.118c.171.334.475.586.834.691l1.053.31v-1.146zM84.31.387h-.56a4.29 4.29 0 0 0-4.29 4.29v14.898h19.865v-4.173C99.325 7.109 92.603.387 84.31.387z" fill="#1d2445"/><path d="M81.751 19.362H59.428v-4.974C59.428 6.442 65.87 0 73.816 0h4.7a3.235 3.235 0 0 1 3.235 3.235z" fill="#1d2445"/><path d="M76.396 36.905h-4.581a8.412 8.412 0 0 1-8.412-8.412v-6.207a3.995 3.995 0 0 0-3.995-3.995h-.995v-4.124h27.612z" fill="#1d2445"/><path d="M61.413 20.792a1.5 1.5 0 0 1-1.5-1.5v-12.5a1.5 1.5 0 1 1 3 0v12.5a1.5 1.5 0 0 1-1.5 1.5z" fill="#fff"/><path d="M61.413 21.292c-1.103 0-2-.897-2-2v-12.5c0-1.103.897-2 2-2s2 .897 2 2v12.5c0 1.102-.897 2-2 2zm0-15.5c-.551 0-1 .448-1 1v12.5a1.001 1.001 0 0 0 2 0v-12.5c0-.552-.449-1-1-1z" fill="#1d2445"/><path d="M80.083 30.792h3.33l-.317-6.972a4.22 4.22 0 0 0-4.215-4.028h-.242c-2.318 0-3.949 2.279-3.201 4.474l1.444 4.235a3.382 3.382 0 0 0 3.201 2.291zm23.459 55.569L72.288 50.247c-2.437-3.555-6.525-5.889-11.161-5.889h-.565a13.675 13.675 0 0 0-11.476 6.239l-14.613 22.56a43.948 43.948 0 0 1-10.245 14.449L9.963 100.927A29.927 29.927 0 0 0 .5 121.321l39.324-1.685 16.141-23.579 11.278-5.431a13.086 13.086 0 0 0 7.4-11.519l21.277 20.976c1.644 1.621 4.374 2.329 5.42.27l5.481-13.962z" fill="#fff"/><path d="M.5 121.821a.499.499 0 0 1-.499-.524 30.276 30.276 0 0 1 9.621-20.735l14.265-13.32a43.185 43.185 0 0 0 10.128-14.285l14.651-22.63a14.12 14.12 0 0 1 11.895-6.468h.565c4.625 0 8.951 2.282 11.573 6.105l31.071 35.899 3.055.026a.499.499 0 0 1 .461.683l-5.481 13.962c-.524 1.038-1.428 1.586-2.562 1.586-1.214 0-2.622-.645-3.674-1.682L75.075 80.233a13.514 13.514 0 0 1-7.615 10.842l-11.157 5.374-16.066 23.469a.502.502 0 0 1-.391.218L.522 121.822l-.022-.001zm60.062-76.963a13.124 13.124 0 0 0-11.056 6.011l-14.613 22.56c-2.402 5.485-5.888 10.401-10.323 14.543l-14.265 13.32c-5.487 5.126-8.767 12.034-9.273 19.506l38.521-1.651 16-23.372a.498.498 0 0 1 .196-.168l11.278-5.432a12.529 12.529 0 0 0 7.117-11.079.5.5 0 0 1 .851-.346l21.277 20.976c.859.848 2.025 1.395 2.972 1.395.76 0 1.315-.335 1.651-.995l5.196-13.241-2.554-.022a.498.498 0 0 1-.374-.173L71.91 50.574c-2.47-3.596-6.488-5.716-10.783-5.716z" fill="#1d2445"/><path d="m132.926 234.336-12.293-1.446-12.268-13.904a7.945 7.945 0 0 1-1.988-5.278l.209-81.823-.095-.036c-8.99-3.433-18.862 2.25-20.419 11.746-.657 4.009-1.294 8.027-2.067 12.016-.758 3.912-1.607 7.859-1.549 11.865.083 5.721 1.489 11.369 2.351 17.004l2.815 18.38.005.031 2.35 15.348L87 224.881c-1.581 3.526.999 7.509 4.863 7.509h6.271s16.42 7.95 18 8c2.172.069 21.5 0 21.5 0v-.761a5.332 5.332 0 0 0-4.708-5.293z" fill="#fff"/><g fill="#1d2445"><path d="M122.672 240.92c-3.704 0-5.91-.01-6.555-.03-1.586-.051-15.117-6.557-18.099-8h-6.156c-1.985 0-3.814-.995-4.893-2.661s-1.238-3.742-.426-5.553l2.917-6.509-5.147-33.612a183.42 183.42 0 0 0-.835-4.866c-.719-3.979-1.463-8.094-1.522-12.207-.054-3.722.669-7.414 1.367-10.984l.192-.982c.668-3.448 1.244-6.979 1.802-10.395l.262-1.607c1.251-7.633 7.765-13.173 15.488-13.173 1.908 0 3.793.35 5.602 1.041l.094.035a.499.499 0 0 1 .323.469l-.209 81.823a7.441 7.441 0 0 0 1.863 4.946l12.142 13.761 12.104 1.423a5.832 5.832 0 0 1 5.148 5.79v.762a.5.5 0 0 1-.498.5c-.002-.001-8.593.029-14.964.029zm-21.606-109.58c-7.231 0-13.33 5.188-14.501 12.335l-.263 1.606c-.559 3.422-1.136 6.96-1.807 10.423l-.192.985c-.688 3.52-1.401 7.16-1.349 10.778.059 4.03.794 8.104 1.507 12.042.29 1.604.589 3.262.839 4.894l5.17 33.759a.494.494 0 0 1-.038.279l-2.978 6.643a4.811 4.811 0 0 0 .354 4.601 4.812 4.812 0 0 0 4.054 2.205h6.271c.076 0 .15.017.218.05 6.312 3.056 16.725 7.916 17.798 7.95.635.021 2.83.03 6.523.03 5.456 0 12.541-.022 14.46-.028v-.264a4.831 4.831 0 0 0-4.265-4.797l-12.293-1.444a.503.503 0 0 1-.316-.166l-12.268-13.904a8.437 8.437 0 0 1-2.113-5.61l.208-81.476a14.632 14.632 0 0 0-5.019-.891zm-14.53-10.534-25.91-4.373-41.401-6.432-6.484-.555C6.159 108.883.505 114.074.505 120.68v4.731c0 13.84 11.219 25.059 25.059 25.059h54.333z"/><path d="M79.897 150.97H25.564c-14.093 0-25.559-11.466-25.559-25.559v-4.73c0-6.83 5.862-12.332 12.778-11.732l6.484.555 41.435 6.436 25.917 4.374a.503.503 0 0 1 .405.603l-6.639 29.664a.5.5 0 0 1-.488.389zm-68.132-41.065c-5.933 0-10.759 4.834-10.759 10.776v4.73c0 13.542 11.017 24.559 24.559 24.559h53.933l6.436-28.759-25.39-4.285-41.395-6.431-6.45-.551a11.784 11.784 0 0 0-.934-.039z"/><path d="m9.508 101.352 22.359 18.764L.5 121.322a26.772 26.772 0 0 1 7.92-18.892z"/><path d="M.5 121.822a.5.5 0 0 1-.5-.502c.032-7.283 2.897-14.118 8.068-19.246l1.088-1.078a.498.498 0 0 1 .673-.027l22.359 18.765a.501.501 0 0 1-.302.883L.519 121.823l-.019-.001zm9.036-19.795-.764.758c-4.857 4.816-7.603 11.197-7.765 18.018l29.546-1.137zm37.096 48.363h42.333l30.667-16.667-12.427-8.369a19.998 19.998 0 0 0-8.575-3.242l-51.331-6.722z"/><path d="M88.966 150.89H46.632a.501.501 0 0 1-.5-.509l.667-35a.5.5 0 0 1 .565-.486l51.331 6.722a20.63 20.63 0 0 1 8.79 3.322l12.427 8.37a.5.5 0 0 1-.041.854L89.205 150.83a.501.501 0 0 1-.239.06zm-41.824-1h41.697l29.831-16.213-11.744-7.909a19.58 19.58 0 0 0-8.361-3.16l-50.776-6.649zm42.99 68-3.134 6.991c-1.581 3.526.999 7.509 4.863 7.509h6.271s16.42 7.94 18 8c1.815.069 21.5 0 21.5 0v-.761a5.33 5.33 0 0 0-4.707-5.293l-12.293-1.446-22.046-5.438z"/><path d="M122.513 240.92c-3.705 0-5.858-.01-6.4-.03-1.584-.062-15.113-6.559-18.095-8h-6.156c-1.985 0-3.814-.995-4.893-2.661s-1.238-3.742-.426-5.553l3.134-6.99a.498.498 0 0 1 .831-.127l8.351 9.444 21.895 5.401 12.232 1.434a5.832 5.832 0 0 1 5.148 5.79v.762a.5.5 0 0 1-.498.5c-.002 0-8.752.03-15.123.03zm-32.242-22.118-2.817 6.282a4.811 4.811 0 0 0 .354 4.601 4.812 4.812 0 0 0 4.054 2.205h6.271a.5.5 0 0 1 .218.05c6.312 3.052 16.727 7.909 17.801 7.95.529.021 2.669.03 6.362.03 5.464 0 12.678-.022 14.619-.028v-.264a4.831 4.831 0 0 0-4.265-4.797l-12.293-1.445-22.107-5.449a.496.496 0 0 1-.255-.154z"/><path d="M99.342 230.124H87.461l1.458 10.045h10.423z"/><path d="M99.342 240.669H88.919a.5.5 0 0 1-.495-.428l-1.458-10.045a.503.503 0 0 1 .495-.572h11.881a.5.5 0 0 1 .5.5v10.045a.5.5 0 0 1-.5.5zm-9.99-1h9.49v-9.045H88.038zM156.02 88.447h-7.328a.5.5 0 0 1 0-1h7.328a.5.5 0 0 1 0 1z"/></g></svg></g><g transform="translate(305.0 155.0) rotate(0.0 21.5 21.5) scale(0.996062080148251 0.996062080148251)"><svg width="43.17" height="43.17" viewBox="0 0 43.17 43.17"><circle cx="21.585" cy="21.585" fill="#1d2445" r="21.085"/><path d="M21.585 43.17C9.683 43.17 0 33.487 0 21.585S9.683 0 21.585 0 43.17 9.683 43.17 21.585 33.487 43.17 21.585 43.17zm0-42.17C10.234 1 1 10.234 1 21.585S10.234 42.17 21.585 42.17 42.17 32.936 42.17 21.585 32.935 1 21.585 1z" fill="#1d2445"/><circle cx="21.585" cy="14.37" fill="#fff" r="6.381"/><path d="M21.585 21.251c-3.794 0-6.881-3.087-6.881-6.881s3.087-6.881 6.881-6.881c3.795 0 6.882 3.087 6.882 6.881s-3.087 6.881-6.882 6.881zm0-12.763c-3.243 0-5.881 2.638-5.881 5.881s2.638 5.881 5.881 5.881 5.882-2.638 5.882-5.881-2.639-5.881-5.882-5.881z" fill="#1d2445"/><path d="M21.585 22.117a9.572 9.572 0 0 0-9.572 9.572v5.542h19.144v-5.542c0-5.286-4.286-9.572-9.572-9.572z" fill="#fff"/><path d="M31.157 37.731H12.013a.5.5 0 0 1-.5-.5V31.69c0-5.554 4.518-10.072 10.072-10.072s10.072 4.519 10.072 10.072v5.542a.5.5 0 0 1-.5.499zm-18.644-1h18.144V31.69c0-5.002-4.069-9.072-9.072-9.072-5.002 0-9.072 4.07-9.072 9.072z" fill="#1d2445"/></svg></g><g transform="translate(52.0 305.0) rotate(0.0 73.0 105.0) scale(0.998570539433277 0.9982791568819464)"><svg width="146.209" height="210.362" viewBox="0 0 146.209 210.362"><path d="M74.337 123.167h8.467v59.605h-8.467z" fill="#fff"/><path d="M82.805 183.272h-8.467a.5.5 0 0 1-.5-.5v-59.605a.5.5 0 0 1 .5-.5h8.467a.5.5 0 0 1 .5.5v59.605a.5.5 0 0 1-.5.5zm-7.968-1h7.467v-58.605h-7.467z" fill="#1d2445"/><path d="M144.328 197.71h-4v-6.179c-19.107-5.374-39.695-8.157-61.224-8.276l.022-4c22.44.124 43.891 3.101 63.757 8.846l1.444.417v9.192z" fill="#fff"/><path d="M144.328 198.21h-4a.5.5 0 0 1-.5-.5v-5.8c-18.957-5.294-39.385-8.037-60.727-8.155-.132-.001-.259-.054-.353-.148s-.146-.222-.145-.354l.022-4a.5.5 0 0 1 .5-.497h.003c22.484.124 43.981 3.107 63.893 8.865l1.444.417a.5.5 0 0 1 .361.48v9.192a.497.497 0 0 1-.498.5zm-3.5-1h3v-8.316l-1.083-.313c-19.676-5.69-40.91-8.658-63.121-8.823l-.017 3c21.386.16 41.859 2.949 60.856 8.292a.5.5 0 0 1 .365.481z" fill="#1d2445"/><path d="M116.578 188.234c-11.652-5.831-24.237-8.853-37.405-8.979l-.068.021v-.021c-22.44.124-43.891 3.101-63.756 8.846l-1.444.417v9.192h4v-6.179c19.106-5.374 39.694-8.157 61.223-8.276v-.002l.007.002c12.139.116 23.755 2.812 34.548 8.013v6.442h4v-8.924z" fill="#fff"/><g fill="#1d2445"><path d="M117.683 198.21h-4a.5.5 0 0 1-.5-.5v-6.128c-10.646-5.079-22.101-7.713-34.053-7.827l-.037-.002c-21.332.123-41.746 2.867-60.689 8.157v5.8a.5.5 0 0 1-.5.5h-4a.5.5 0 0 1-.5-.5v-9.192c0-.223.147-.419.361-.48l1.444-.417c19.911-5.758 41.408-8.741 63.892-8.865.018-.003.031.001.046.002.012-.001.026.007.03-.002 13.243.127 25.902 3.165 37.624 9.031l1.105.553a.5.5 0 0 1 .276.447v8.924a.498.498 0 0 1-.499.499zm-3.5-1h3v-8.115l-.829-.414c-11.575-5.792-24.074-8.795-37.15-8.926a.572.572 0 0 1-.117 0c-22.385.126-43.783 3.095-63.6 8.826l-1.083.313v8.316h3v-5.679c0-.224.149-.421.365-.481 19.145-5.385 39.788-8.176 61.355-8.295 12.222.117 23.917 2.829 34.776 8.063a.499.499 0 0 1 .283.45z"/><path d="M112.712 197.044h3.509c1.174 0 2.126.952 2.126 2.126v5.6H106.07l-.008-1.024a6.65 6.65 0 0 1 6.65-6.702z"/><path d="M118.847 205.27h-13.273l-.012-1.521c-.015-1.921.722-3.729 2.074-5.092s3.155-2.114 5.076-2.114h3.509a2.63 2.63 0 0 1 2.626 2.627zm-12.281-1h11.281v-5.1c0-.897-.729-1.627-1.626-1.627h-3.509c-1.652 0-3.202.646-4.366 1.818s-1.797 2.728-1.784 4.38zm-88.712-7.226h-3.509a2.126 2.126 0 0 0-2.126 2.126v5.6h12.277l.008-1.024a6.65 6.65 0 0 0-6.65-6.702z"/><path d="M24.992 205.27H11.718v-6.1a2.63 2.63 0 0 1 2.626-2.627h3.51c1.92 0 3.723.751 5.075 2.114s2.089 3.171 2.074 5.092zm-12.274-1h11.281l.004-.528c.013-1.652-.621-3.207-1.784-4.38s-2.714-1.818-4.365-1.818h-3.51c-.896 0-1.626.729-1.626 1.627zm127.355-7.226h3.509c1.174 0 2.126.952 2.126 2.126v5.6h-12.277l-.008-1.024a6.65 6.65 0 0 1 6.65-6.702z"/><path d="M146.209 205.27h-13.273l-.012-1.521a7.106 7.106 0 0 1 2.074-5.093 7.105 7.105 0 0 1 5.075-2.113h3.51a2.63 2.63 0 0 1 2.626 2.627zm-12.281-1h11.281v-5.1c0-.897-.729-1.627-1.626-1.627h-3.51a6.107 6.107 0 0 0-4.365 1.818 6.104 6.104 0 0 0-1.784 4.38z"/></g><circle cx="112.92" cy="204.435" fill="#fff" r="5.427"/><path d="M112.92 210.362a5.934 5.934 0 0 1-5.927-5.927c0-3.269 2.659-5.928 5.927-5.928s5.927 2.659 5.927 5.928a5.934 5.934 0 0 1-5.927 5.927zm0-10.854c-2.717 0-4.927 2.211-4.927 4.928s2.21 4.927 4.927 4.927 4.927-2.21 4.927-4.927-2.21-4.928-4.927-4.928z" fill="#1d2445"/><circle cx="140.282" cy="204.435" fill="#fff" r="5.427"/><path d="M140.282 210.362a5.934 5.934 0 0 1-5.927-5.927c0-3.269 2.659-5.928 5.927-5.928s5.927 2.659 5.927 5.928a5.934 5.934 0 0 1-5.927 5.927zm0-10.854c-2.717 0-4.927 2.211-4.927 4.928s2.21 4.927 4.927 4.927 4.927-2.21 4.927-4.927-2.211-4.928-4.927-4.928z" fill="#1d2445"/><circle cx="17.645" cy="204.435" fill="#fff" r="5.427"/><path d="M17.645 210.362a5.934 5.934 0 0 1-5.927-5.927c0-3.269 2.659-5.928 5.927-5.928s5.927 2.659 5.927 5.928a5.934 5.934 0 0 1-5.927 5.927zm0-10.854c-2.717 0-4.927 2.211-4.927 4.928s2.21 4.927 4.927 4.927 4.927-2.21 4.927-4.927-2.21-4.928-4.927-4.928zm56.897-77.554h8.467v5.939h-8.467z" fill="#1d2445"/><path d="M83.009 128.393h-8.467a.5.5 0 0 1-.5-.5v-5.939a.5.5 0 0 1 .5-.5h8.467a.5.5 0 0 1 .5.5v5.939a.5.5 0 0 1-.5.5zm-7.967-1h7.467v-4.939h-7.467z" fill="#1d2445"/><path d="M124.898 124.469H49.823c-10.238 0-18.567-8.329-18.567-18.567V87.789a9.393 9.393 0 0 0-.634-3.4L.837 7.302a5 5 0 0 1 9.328-3.604l29.784 77.087a19.354 19.354 0 0 1 1.306 7.004v18.112c0 4.724 3.843 8.567 8.567 8.567h75.075a5 5 0 0 1 .001 10.001z" fill="#fff"/><path d="M124.898 124.969H49.823c-10.514 0-19.067-8.554-19.067-19.067V87.789a8.907 8.907 0 0 0-.601-3.221L.371 7.483a5.464 5.464 0 0 1 .101-4.208A5.472 5.472 0 0 1 3.519.369 5.504 5.504 0 0 1 5.5 0a5.465 5.465 0 0 1 5.132 3.519l29.784 77.086a19.867 19.867 0 0 1 1.34 7.185v18.112c0 4.448 3.619 8.067 8.067 8.067h75.075c3.033 0 5.5 2.468 5.5 5.5 0 3.033-2.467 5.5-5.5 5.5zM5.5 1c-.554 0-1.099.102-1.621.303a4.464 4.464 0 0 0-2.492 2.376 4.466 4.466 0 0 0-.083 3.442l29.784 77.087a9.91 9.91 0 0 1 .668 3.581v18.112c0 9.962 8.105 18.067 18.067 18.067h75.075c2.481 0 4.5-2.019 4.5-4.5s-2.019-4.5-4.5-4.5H49.823c-5 0-9.067-4.067-9.067-9.067V87.789c0-2.343-.428-4.639-1.272-6.823L9.699 3.879A4.472 4.472 0 0 0 5.5 1z" fill="#1d2445"/><path d="M95.082 126.818a2 2 0 0 1-2-2v-2.785l7.711-26.752c.21-.729.061-1.438-.445-2.109-.847-1.127-2.478-1.826-4.255-1.826H59.241c-1.833 0-3.487.731-4.315 1.909-.491.697-.604 1.428-.337 2.172l9.667 26.928v2.297a2 2 0 0 1-4 0v-1.602l-9.432-26.271c-.702-1.954-.399-4.077.83-5.825 1.589-2.259 4.425-3.607 7.587-3.607h36.853c3.054 0 5.839 1.278 7.451 3.421 1.265 1.681 1.653 3.678 1.092 5.622l-7.555 26.209v2.221a2 2 0 0 1-2 1.998z" fill="#fff"/><path d="M95.082 127.318a2.503 2.503 0 0 1-2.5-2.5v-2.785c0-.047.006-.094.02-.139l7.711-26.752c.167-.577.047-1.124-.364-1.67-.754-1.004-2.232-1.627-3.855-1.627H59.241c-1.673 0-3.17.65-3.907 1.697-.397.563-.487 1.125-.275 1.715l9.667 26.928c.02.054.029.111.029.169v2.297c0 1.379-1.122 2.5-2.5 2.5s-2.5-1.121-2.5-2.5v-1.515l-9.403-26.189c-.757-2.109-.432-4.399.892-6.282 1.683-2.392 4.672-3.819 7.996-3.819h36.853c3.21 0 6.146 1.354 7.851 3.62 1.362 1.81 1.778 3.962 1.173 6.062l-7.536 26.141v2.15a2.502 2.502 0 0 1-2.499 2.499zm-1.5-5.215v2.715c0 .827.673 1.5 1.5 1.5s1.5-.673 1.5-1.5v-2.221c0-.047.006-.094.02-.139l7.555-26.209c.516-1.79.157-3.63-1.011-5.183-1.518-2.018-4.154-3.222-7.052-3.222H59.241c-2.999 0-5.683 1.27-7.178 3.396-1.135 1.612-1.415 3.569-.769 5.368l9.432 26.271c.02.054.029.111.029.169v1.602c0 .827.673 1.5 1.5 1.5s1.5-.673 1.5-1.5v-2.21l-9.638-26.846c-.321-.894-.183-1.803.399-2.629.92-1.309 2.73-2.121 4.724-2.121h36.853c1.932 0 3.715.776 4.655 2.025.596.792.778 1.673.525 2.549z" fill="#1d2445"/></svg></g><g transform="translate(276.0 429.0) rotate(0.0 46.0 45.0) scale(0.8322026232473994 0.8381839348079162)"><svg width="110.55" height="107.375" viewBox="0 0 110.55 107.375"><path d="M83.399 24.926H72.424a4.954 4.954 0 0 1-4.948-4.947v-3.785c0-6.447-5.246-11.693-11.693-11.693-6.448 0-11.694 5.246-11.694 11.693v3.277a4.953 4.953 0 0 1-4.948 4.947h-11.99v-4h11.991a.95.95 0 0 0 .948-.947v-3.277C40.09 7.541 47.13.501 55.783.501c8.654 0 15.694 7.04 15.694 15.693v3.785c0 .522.425.947.948.947H83.4v4z" fill="#fff"/><path d="M83.399 25.426H72.424a5.453 5.453 0 0 1-5.448-5.447v-3.785C66.977 10.021 61.955 5 55.783 5s-11.194 5.021-11.194 11.193v3.277a5.453 5.453 0 0 1-5.448 5.447h-11.99a.5.5 0 0 1-.5-.5v-4a.5.5 0 0 1 .5-.5h11.991c.247 0 .448-.2.448-.447v-3.277C39.589 7.265 46.854 0 55.783 0s16.194 7.265 16.194 16.193v3.785c0 .247.201.447.448.447H83.4a.5.5 0 0 1 .5.5v4a.501.501 0 0 1-.501.501zM55.783 4c6.724 0 12.193 5.47 12.193 12.193v3.785a4.452 4.452 0 0 0 4.448 4.447h10.475v-3H72.424a1.45 1.45 0 0 1-1.448-1.447v-3.785C70.977 7.815 64.161 1 55.783 1 47.406 1 40.59 7.815 40.59 16.193v3.277c0 .798-.649 1.447-1.448 1.447H27.651v3h11.491a4.452 4.452 0 0 0 4.448-4.447v-3.277C43.589 9.47 49.06 4 55.783 4z" fill="#1d2445"/><path d="M.5 24.713h109.55v82.162H.5z" fill="#fff"/><g fill="#1d2445"><path d="M110.05 107.375H.5a.5.5 0 0 1-.5-.5V24.713a.5.5 0 0 1 .5-.5h109.55a.5.5 0 0 1 .5.5v82.162a.5.5 0 0 1-.5.5zm-109.05-1h108.55V25.213H1z"/><path d="M55.275 84.743c-2.556 0-5.052-.182-7.465-.525v4.009h14.93v-4.01a52.763 52.763 0 0 1-7.465.526zm7.465-3.556v-8.823H47.81v8.823a50.432 50.432 0 0 0 14.93 0z"/></g></svg></g></svg>