<svg xmlns="http://www.w3.org/2000/svg" viewBox="0 0 800 600" width="800" height="600"><g transform="translate(159.0 504.0) rotate(0.0 135.0 8.5) scale(0.8884793839876272 0.85)"><svg width="303.89" height="20" viewBox="0 0 303.89 20"><path d="M20.03 20h263.86c11.046 0 20-8.954 20-20H0c0 11.046 8.954 20 20 20z" fill="#eff0f2"/></svg></g><g transform="translate(315.0 361.0) rotate(0.0 163.5 71.5) translate(25.0 0.0) scale(0.7841839450927351 0.7816257816257817)"><svg width="383.839" height="182.952" viewBox="31.88 0 383.839 182.952"><g fill="#D2D3DA"><path d="M.158 0h416.837v17.368H.158z"/><path d="M357.134 12.406h22.331v19.849h-22.331z"/><path d="M408.128 182.952 368.299 34.499 328.47 182.952l-7.726-2.073L368.299 3.626l47.555 177.253zM36.39 12.406h22.331v19.849H36.39z"/><path d="M87.384 182.952 47.556 34.499 7.727 182.952 0 180.879 47.556 3.626l47.555 177.253z"/></g></svg></g><g transform="translate(301.0 77.0) rotate(0.0 179.5 109.5) scale(1.8283956464830122 1.8187556057535792)"><svg width="196.347" height="120.412" viewBox="0 0 196.347 120.412"><path d="M11.258 6.911h173.831v113.501H11.258z" fill="#f3f4f6"/><path d="M0 0h196.347v8.181H0z" fill="#d2d3da"/></svg></g><g transform="translate(485.0 102.0) rotate(0.0 68.5 60.5) scale(0.6586538461538461 0.6612021857923497)"><svg width="208" height="183" viewBox="0 0 208 183"><g fill="#e8e9ec"><path d="M9.5 183h-1v-79h1zm0-91h-1V82h1zm0-22h-1V0h1zm47 108h-1v-12h1zm0-22h-1v-12h1zm0-42h-1V64h1zm0-62h-1V42h1zm0-22h-1V0h1zm46-30h1v183h-1zm48 183h-1v-79h1zm0-91h-1V82h1zm0-22h-1V0h1zm47 113h-1v-30h1zm0-42h-1v-10h1zm0-22h-1V69h1zm0-80h-1V27h1zm0-22h-1V5h1z"/><path d="M138 28.5h-30v-1h30zm-42 0H86v-1h10zm-22 0H24v-1h50zm-74 46h208v1H0zm208 48h-70v-1h70zm-82 0h-10v-1h10zm-22 0H24v-1h80zm74 47h-12v-1h12zm-22 0h-12v-1h12zm-42 0H64v-1h50zm-62 0H42v-1h10zm-22 0H0v-1h30z"/></g><path d="m7.929 127.771-1.858-3.542 63.252-33.182 2.983 11.931 9.155-26.55 14.786 23.234 12.84-14.816 23.265 30.05 27.599-76.665 12.228 32.237 18.16-6.356 1.322 3.776-21.84 7.644-9.772-25.763-26.401 73.335-24.735-31.95-13.16 15.184-13.214-20.766-10.845 31.45-5.017-20.069z" fill="#2888ff"/></svg></g><g transform="translate(526.0 231.0) rotate(0.0 40.0 28.0) scale(0.9960283370061878 0.9889100798191707)"><svg width="80.319" height="56.628" viewBox="0 0 80.319 56.628"><path d="M0 29.47h12.135v27.158H0zm17.046 0h12.135v27.158H17.046z" fill="#013b84"/><path d="M34.092 24.847h12.135v31.781H34.092zm17.046-13.29h12.135v45.071H51.138z" fill="#2888ff"/><path d="M68.184 0h12.135v56.628H68.184z" fill="#93c3ff"/></svg></g><g transform="translate(180.0 282.0) rotate(-8.992713618978284 62.0 130.0) translate(0.0 0.0) scale(1.2217832123045393 1.226617601962588)"><svg width="101.491" height="101.091" viewBox="0 0 101.491 101.091"><path d="M46.623 110.27h8.467v73.606h-8.467z" fill="#d2d3da"/><path d="M87.163 111.572H14.55a5 5 0 1 1 0-10h72.612a5 5 0 0 1 .001 10z" fill="#bbbdc7"/><g fill="#8e91a2"><path d="M4.723 199.813h-4v-9.067l1.291-.49c15.224-5.777 31.667-8.771 48.87-8.897l.029 4c-16.241.119-31.773 2.862-46.189 8.155v6.299z"/><path d="M101.073 199.813h-4v-6.3c-14.417-5.293-29.949-8.036-46.19-8.155l.029-4c17.204.126 33.646 3.12 48.87 8.897l1.291.49zm-95.437-.666h-3.51A2.126 2.126 0 0 0 0 201.273v5.6h12.277l.008-1.024a6.65 6.65 0 0 0-6.649-6.702z"/><path d="M95.855 199.147h3.509c1.174 0 2.126.952 2.126 2.126v5.6H89.213l-.008-1.024a6.65 6.65 0 0 1 6.65-6.702z"/></g><circle cx="96.064" cy="206.538" fill="#838799" r="5.427"/><circle cx="5.427" cy="206.538" fill="#838799" r="5.427"/><path d="M30.353 106V72L15.186 16.92C13.257 9.917 18.527 3 25.791 3h49.124c7.264 0 12.534 6.917 10.605 13.92L70.353 72v34H46.274" fill="#bbbdc7"/><path d="M73.353 109H46.274a3 3 0 1 1 0-6h21.079V71.595l.107-.392 15.167-55.08a7.94 7.94 0 0 0-1.349-6.971A7.936 7.936 0 0 0 74.915 6H25.791a7.936 7.936 0 0 0-6.364 3.152 7.936 7.936 0 0 0-1.349 6.971l15.275 55.472V106a3 3 0 1 1-6 0V72.405l-15.06-54.688a13.893 13.893 0 0 1 2.361-12.2A13.895 13.895 0 0 1 25.791 0h49.123c4.407 0 8.466 2.011 11.136 5.516a13.899 13.899 0 0 1 2.362 12.201l-15.06 54.688V109z" fill="#bbbdc7"/></svg></g><g transform="translate(450.0 255.0) rotate(0.0 102.0 62.5) translate(0.0 0.0) scale(1.038976913321823 1.0381025146995315)"><svg width="0" height="73.21" viewBox="0 0 0 73.21"><path d="M11.258 6.911h173.831v113.501H11.258z" fill="#f3f4f6"/><path d="M0 0h196.347v8.181H0z" fill="#d2d3da"/></svg></g><g transform="translate(149.0 245.0) rotate(0.0 151.5 135.0) scale(0.9987178177191658 0.9978453930956489)"><svg width="303.389" height="270.583" viewBox="0 0 303.389 270.583"><path d="M48.079 28.963 11.66 44.813a4.935 4.935 0 0 1-5.276-.86l-3.035-3.661C-.457 35.701.575 28.82 5.562 25.549l.733-.481a6.037 6.037 0 0 1 2.618-.949l30.894-3.574z" fill="#c78982"/><path d="m77.478 15.129-.001-.011a.492.492 0 0 0-.46-.511l-8.927-.471a6.497 6.497 0 0 0-2.812.477l-3.918 1.565-2.448-.94a3.681 3.681 0 0 0-2.654-.003l-7.373 2.804-.06.023a8.01 8.01 0 0 1-.783.229l.006.01-15.903 4.268 11.847 5.951c2.248 2.095 3.887 2.058 6.081 2.025l3.855-.067a7.797 7.797 0 0 0 3.911-1.259 8.979 8.979 0 0 1 2.306-1.102 392.823 392.823 0 0 0 5.921-2.008c.588-.26.93-.866.864-1.497l-.015-.139a1.426 1.426 0 0 0-1.656-1.147c-.782.134-5.453.879-6.916 1.085l-.011.001a.573.573 0 0 1-.575-.312.537.537 0 0 1 .109-.627l1.333-1.287 8.381-4.605 8.156-.735a1.932 1.932 0 0 0 1.741-1.691z" fill="#c78982"/><path d="M48.079 28.963 11.66 44.813a4.935 4.935 0 0 1-5.276-.86L3.29 40.221C-.485 35.668.539 28.844 5.485 25.599l1.118-.733a4.482 4.482 0 0 1 1.945-.705l31.26-3.617zm55.044-5.773 3.593 42.519-23.794.041-2.601-54.445 9.825-.017c6.764-.014 12.408 5.163 12.977 11.902z" fill="#2888ff"/><path d="M40.804 81.416 3.095 42.985C-2.728 37.05.067 27.036 8.123 24.976l5.115-1.308 55.5 43.5-18.53 23.699z" fill="#2888ff"/><path d="m205.42 136.965-82.181-11.495v32.971a6.03 6.03 0 0 0 6.031 6.031h73.905c6.743 0 12.21-5.467 12.21-12.21v-3.766a11.652 11.652 0 0 0-9.965-11.531z" fill="#013b84"/><path d="m182.564 164.447-1.083 23.807c-.028.625-.018 1.251.031 1.874l3.574 45.677 1.556 18.617 18.433-1.982 9.068-73.6c.236-1.187 1.818-28.53.704-28.057z" fill="#013b84"/><path d="m211.484 155.964 24.351 23.489 21.883 24.048 1.187 1.179s3.613-2.541 6.643-4.325c1.337-.785 11.956-6.242 12.114-6.323l-2.227-2.688-41.41-60.036-19.292-22.82c-1.612-1.782-3.445-2.024-5.518-.809l-18.213 10.673 16.834 32.707a18.777 18.777 0 0 0 3.648 4.905z" fill="#013b84"/><path d="m114.613 122.262 86.562-18.959c7.017-1.537 13.971 2.831 15.634 9.819l3.727 15.667-67.097 32.153c-8.018 2.918-16.614 3.91-28.6 3.402l-9.451-.272c-8.209-.236-14.714-7.008-14.621-15.22l.269-23.706z" fill="#013b84"/><path d="m152.295 114.034-30.882 13.906a29.89 29.89 0 0 0-15.995 13.387l-4.592 9.441-.52-.461-34.845-32.973a56.26 56.26 0 0 1-12.677-17.868L41.535 74.354c-4.621-10.316 3.397-21.843 14.676-21.099l44.042 6.541a15 15 0 0 1 10.697 5.561l41.239 48.533z" fill="#2888ff"/><path d="m81.876 41.384-23.004 8.512a6 6 0 0 1-7.709-3.545l-5.396-14.583c-3.098-8.371 1.178-17.669 9.549-20.766l13.473-4.985z" fill="#d4e7ff"/><g fill="#c78982"><path d="m83.462 18.363 7.799 20.704c.846 2.476-.967 5.059-3.583 5.105l-24.265.423z"/><path d="m86.436 31.597 3.642-1.448c1.517-.603 1.59-2.724.117-3.43l-6.443-3.085zM66.53 9.928l-.477.163a3.858 3.858 0 0 0-2.403 4.897l4.332 12.676 16.903-5.777-1.214-3.551C81.26 11.281 73.586 7.516 66.53 9.928zM53.348 33.591l19.565-7.239 14.329 38.725c.348.94-.615 1.83-1.525 1.41L61.354 55.23z"/><path d="m73.5 23.084 10.595-3.621 4.603 13.47-10.596 3.62z"/><path d="m61.104 8.978-4.971 1.839c-5.432 2.01-8.206 8.043-6.196 13.475l9.098 24.588 31.613-11.698-6.518-17.616C80.696 10.284 70.387 5.543 61.104 8.978z"/></g><path d="m79.89 45.072-.321-.011c-1.935-.07-2.831 2.377-1.306 3.572l3.98 3.122m2.766-29.615-2.406.89a1.12 1.12 0 0 0-.631.584l-.631 1.372c-.418.91.471 1.871 1.411 1.523l3.433-1.27" fill="#1d2445" opacity=".1"/><path d="m73.156 30.699 1.378 3.725a9.166 9.166 0 0 0 8.12 5.973 5.201 5.201 0 0 1 3.073-6.683l3.201-1.184 2.753 7.52c.915 2.499-.967 5.136-3.627 5.084l-10.486-.206a3.642 3.642 0 0 1-3.348-2.387l-5.011-13.657a3.073 3.073 0 0 1 3.947 1.815z" fill="#d4e7ff"/><path d="m87.309 39.45 2.625-.337a1.095 1.095 0 0 0 .887-1.466l-1.082-2.924-2.318.858a2.396 2.396 0 0 0-1.416 3.08c.198.533.739.861 1.304.789z" fill="#c78982"/><path d="m50.583 44.782 11.299-4.181c6.059-2.242 9.154-8.972 6.912-15.031L61.841 6.781a2 2 0 0 0-2.57-1.182l-6.579 2.434c-7.63 2.823-11.527 11.298-8.704 18.929z" fill="#d4e7ff"/><path d="m78.195 15.722.5-.185a7.182 7.182 0 0 0 4.244-9.229l-1.493-4.035a3.479 3.479 0 0 0-4.47-2.055l-4.973 1.84L55.537 8.15l13.867 20.167-2.378-9.562a3.023 3.023 0 0 1 3.955-3.576l1.595.572a8.209 8.209 0 0 0 5.619-.029z" fill="#d4e7ff"/><path d="m68.295 35.834.147-.049a3.033 3.033 0 0 0 1.879-3.963l-1.36-3.554a4.22 4.22 0 0 0-5.268-2.498l-.229.076c-2.201.729-3.032 3.406-1.632 5.254l2.703 3.566a3.382 3.382 0 0 0 3.76 1.168z" fill="#c78982"/><path d="m226.506 267.63 4.399-2.62c1.213-.723 2.057-1.958 2.244-3.284.274-1.949-.927-3.602-2.818-3.878l-8.342-1.216c-5.272-.769-9.621-3.836-11.919-8.407l-2.751-5.472-3.66 2.059c-.882.496-1.337 1.523-1.057 2.387l.801 2.472-5.018 1.97c-3.399 1.334-7.004.72-9.286-1.583l-3.524-3.555c-.617-.623-1.795-.156-1.976.784l-3.079 15.996.434 3.765z" fill="#2888ff"/><path d="m179.139 264.335.523 1.583c.942 2.848 3.552 4.665 6.7 4.665h33.473a4.15 4.15 0 0 0 1.905-.481l7.286-3.799c.182-.095.115-.371-.091-.371h-26.759c-.488 0-.93-.191-1.232-.531-1.516-1.71-3.736-2.668-6.188-2.668h-14.375c-.825-.001-1.489.857-1.242 1.602z" fill="#016eea"/><path d="m299.647 200.539 2.9-4.22c.799-1.164 1.049-2.639.665-3.922-.566-1.885-2.349-2.884-4.182-2.344l-8.086 2.385c-5.11 1.507-10.343.54-14.343-2.65l-4.788-3.82-2.463 3.401c-.594.819-.577 1.943.038 2.61l1.762 1.91-3.734 3.888c-2.529 2.634-6.061 3.584-9.097 2.447l-4.688-1.755c-.821-.308-1.696.609-1.467 1.539l3.895 15.817 1.969 3.238z" fill="#2888ff"/><path d="m255.245 217.36 1.137 1.219c2.047 2.193 5.178 2.751 8.037 1.435l30.404-14.002a4.15 4.15 0 0 0 1.529-1.234l5.212-6.735c.079-.102-.032-.241-.149-.187l-24.577 11.319a1.625 1.625 0 0 1-1.341.033c-2.092-.919-4.509-.861-6.737.165l-13.057 6.013c-.75.344-.994 1.401-.458 1.974z" fill="#016eea"/><path d="m151.232 164.237 39.135-23.155-7.718 23.072z" fill="#002652" opacity=".1"/></svg></g><g transform="translate(383.0 313.0) rotate(0.0 41.5 24.5) scale(1.2575185976395011 1.251916198262647)"><svg width="66.003" height="39.14" viewBox="0 0 66.003 39.14"><path d="M36.144 36.415h6.404L64.773 0h-6.404z" fill="#013b84"/><g fill="#2888ff"><path d="M39.878 39.14H3a3 3 0 0 1-3-3h42.878a3 3 0 0 1-3 3z"/><path d="M65.557 4.128 46.202 35.519a3 3 0 0 1-4.128.979L64.577 0a3 3 0 0 1 .98 4.128z"/></g></svg></g><g transform="translate(508.0 416.0) rotate(0.0 46.5 45.0) scale(0.848927430397079 0.8540925266903915)"><svg width="109.55" height="105.375" viewBox="0 0 109.55 105.375"><path d="M0 23.213h109.55v82.162H0z" fill="#f3f4f6"/><path d="M82.899 24.426H71.924a4.954 4.954 0 0 1-4.948-4.947v-3.785C66.976 9.246 61.731 4 55.283 4S43.589 9.246 43.589 15.693v3.277a4.953 4.953 0 0 1-4.948 4.947h-11.99v-4h11.991a.95.95 0 0 0 .948-.947v-3.277C39.589 7.04 46.629 0 55.282 0c8.654 0 15.694 7.04 15.694 15.693v3.785c0 .522.425.947.948.947h10.975zm-35.59 46.437H62.24v15.864H47.309z" fill="#e8e9ec"/><path d="M54.775 83.243c-20.637 0-37.427-11.766-37.427-26.229s16.79-26.229 37.427-26.229 37.427 11.767 37.427 26.229-16.79 26.229-37.427 26.229zm0-49.458c-18.983 0-34.427 10.421-34.427 23.229s15.444 23.229 34.427 23.229 34.427-10.42 34.427-23.229-15.444-23.229-34.427-23.229z" fill="#f3f4f6"/></svg></g><g transform="translate(174.0 288.0) rotate(0.0 75.0 108.0) translate(0.0 81.0) scale(1.0329938226969402 1.031705849198995)"><svg width="143.273" height="128.913" viewBox="0 78.511 143.273 128.913"><path d="M73.837 122.667h8.467v59.605h-8.467z" fill="#d2d3da"/><path d="M124.398 123.969H49.323c-10.238 0-18.567-8.329-18.567-18.567V87.289a9.393 9.393 0 0 0-.634-3.4L.337 6.802a5 5 0 0 1 9.328-3.604l29.784 77.087a19.354 19.354 0 0 1 1.306 7.004v18.112c0 4.724 3.843 8.567 8.567 8.567h75.075a5 5 0 0 1 .001 10.001z" fill="#bbbdc7"/><g fill="#8e91a2"><path d="M94.582 126.318a2 2 0 0 1-2-2v-2.785l7.711-26.752c.21-.729.061-1.438-.445-2.109-.847-1.127-2.478-1.826-4.255-1.826H58.741c-1.833 0-3.487.731-4.315 1.909-.491.697-.604 1.428-.337 2.172l9.667 26.928v2.297a2 2 0 0 1-4 0v-1.602l-9.432-26.271c-.702-1.954-.399-4.077.83-5.825 1.589-2.259 4.425-3.607 7.587-3.607h36.853c3.054 0 5.839 1.278 7.451 3.421 1.265 1.681 1.653 3.678 1.092 5.622l-7.555 26.209v2.221a2 2 0 0 1-2 1.998zM17.404 197.21h-4v-9.192l1.444-.417c19.866-5.745 41.316-8.722 63.756-8.846l.022 4c-21.529.119-42.117 2.902-61.223 8.276v6.179z"/><path d="M143.828 197.21h-4v-6.179c-19.107-5.374-39.695-8.157-61.224-8.276l.022-4c22.44.124 43.891 3.101 63.757 8.846l1.444.417v9.192z"/><path d="M117.183 197.21h-4v-6.442c-10.793-5.201-22.41-7.896-34.548-8.013l.038-4c13.168.126 25.753 3.147 37.405 8.979l1.105.553z"/><path d="M112.212 196.544h3.509c1.174 0 2.126.952 2.126 2.126v5.6H105.57l-.008-1.024a6.65 6.65 0 0 1 6.65-6.702zm-94.858 0h-3.509a2.126 2.126 0 0 0-2.126 2.126v5.6h12.277l.008-1.024a6.65 6.65 0 0 0-6.65-6.702zm122.219 0h3.509c1.174 0 2.126.952 2.126 2.126v5.6h-12.277l-.008-1.024a6.65 6.65 0 0 1 6.65-6.702z"/></g><circle cx="112.42" cy="203.935" fill="#838799" r="5.427"/><circle cx="139.782" cy="203.935" fill="#838799" r="5.427"/><circle cx="17.145" cy="203.935" fill="#838799" r="5.427"/></svg></g><g transform="translate(378.0 296.0) rotate(90.0 22.0 -35.0) scale(1.528786352107293 -1.5555555555555556)"><svg width="28.781" height="45" viewBox="0 0 28.781 45"><g fill="#edeef0"><path d="M0 36h4.781v9H0zm8 0h4.781v9H8zm8 0h4.781v9H16zm8 0h4.781v9H24zM8 24h4.781v9H8zm8 0h4.781v9H16zm8 0h4.781v9H24zm-8-12h4.781v9H16zm8 0h4.781v9H24zm0-12h4.781v9H24z"/></g></svg></g><g transform="translate(353.0 116.0) rotate(0.0 43.5 42.0) scale(2.860242627478055 2.823529411764706)"><svg width="30.417" height="29.75" viewBox="0 0 30.417 29.75"><circle cx="14.875" cy="14.875" fill="#d2d3da" r="13.875"/><path d="M15.542 29.75C7.34 29.75.667 23.077.667 14.875S7.34 0 15.542 0s14.875 6.673 14.875 14.875S23.744 29.75 15.542 29.75zm0-27.75C8.442 2 2.667 7.775 2.667 14.875S8.442 27.75 15.542 27.75s12.875-5.775 12.875-12.875S22.641 2 15.542 2z" fill="#c6c8d0"/><path d="M14.875 29.75C6.673 29.75 0 23.077 0 14.875S6.673 0 14.875 0 29.75 6.673 29.75 14.875 23.077 29.75 14.875 29.75zm0-27.75C7.776 2 2 7.775 2 14.875S7.776 27.75 14.875 27.75 27.75 21.975 27.75 14.875 21.974 2 14.875 2z" fill="#dddee3"/><g fill="#c6c8d0"><path d="M13.41 4.117h2v3.896h-2zm3.161 0h2v3.896h-2zM13.41 22.476h2v3.896h-2zm3.161 0h2v3.896h-2z"/><path d="M18.212 23.459h-6.74V6.928h6.322a2.947 2.947 0 0 1 2.944 2.943v2.937c0 .637-.203 1.228-.548 1.709.593.539.966 1.316.966 2.179v3.82a2.947 2.947 0 0 1-2.944 2.943zm-4.739-2h4.74c.52 0 .944-.423.944-.943v-3.82a.944.944 0 0 0-.944-.943h-4.74zm0-7.707h4.322c.52 0 .944-.424.944-.944V9.871a.944.944 0 0 0-.944-.943h-4.322z"/></g><path d="M12.531 4.117h2v3.896h-2zm3.161 0h2v3.896h-2zm-3.161 18.359h2v3.896h-2zm3.161 0h2v3.896h-2z" fill="#dddee3"/><path d="M17.334 23.459h-6.74V6.928h6.322a2.947 2.947 0 0 1 2.944 2.943v2.937c0 .637-.203 1.228-.548 1.709.593.539.966 1.316.966 2.179v3.82a2.948 2.948 0 0 1-2.944 2.943zm-4.74-2h4.74c.52 0 .944-.423.944-.943v-3.82a.944.944 0 0 0-.944-.943h-4.74zm0-7.707h4.322c.52 0 .944-.424.944-.944V9.871a.944.944 0 0 0-.944-.943h-4.322z" fill="#dddee3"/></svg></g><g transform="translate(109.0 96.0) rotate(0.0 59.5 58.5) scale(0.9930486593843099 0.997221417247669)"><svg width="119.833" height="117.326" viewBox="0 0 119.833 117.326"><path d="M0 3.825h119.833v113.501H0z" fill="#f3f4f6"/><path d="M13.846 28.164h32.491v5.491H13.846zm39.813 0h5.491v5.491h-5.491zm10.021 0h5.491v5.491H63.68z" fill="#fff"/><path d="M20.583 0h4.667v14h-4.667zm37 0h4.667v14h-4.667zm37 0h4.667v14h-4.667z" fill="#edeef0"/><path d="M28.38 43.724h8.552v8.552H28.38zm13.63 0h8.552v8.552H42.01zm13.63 0h8.552v8.552H55.64zm13.631 0h8.552v8.552h-8.552z" fill="#E3E3E3"/><path d="M82.901 43.724h8.552v8.552h-8.552zm13.63 0h8.552v8.552h-8.552z" fill="#A3C0E3"/><g fill="#E3E3E3"><path d="M14.75 60.448h8.552V69H14.75zm13.63 0h8.552V69H28.38zm13.63 0h8.552V69H42.01zm13.63 0h8.552V69H55.64zm13.631 0h8.552V69h-8.552z"/></g><path d="M82.901 60.448h8.552V69h-8.552zm13.63 0h8.552V69h-8.552z" fill="#A3C0E3"/><path d="M14.75 77.172h8.552v8.552H14.75zm13.63 0h8.552v8.552H28.38zm13.63 0h8.552v8.552H42.01zm13.63 0h8.552v8.552H55.64zm13.631 0h8.552v8.552h-8.552z" fill="#E3E3E3"/><path d="M82.901 77.172h8.552v8.552h-8.552zm13.63 0h8.552v8.552h-8.552z" fill="#A3C0E3"/><path d="M14.75 93.895h8.552v8.552H14.75zm13.63 0h8.552v8.552H28.38zm13.63 0h8.552v8.552H42.01zm13.63 0h8.552v8.552H55.64z" fill="#E3E3E3"/></svg></g><g transform="translate(79.0 279.0) rotate(0.0 41.5 105.0) scale(0.9963387551767601 0.9971462623634266)"><svg width="83.305" height="210.601" viewBox="0 0 83.305 210.601"><g fill="#eff0f2"><path d="M60.967 210.601h-36l-11-62h58zM60.9 131.32c0 4.121-4.489 7.462-10.027 7.462s-16.022-4.464-16.022-4.464 10.484-10.459 16.022-10.459 10.027 3.34 10.027 7.461zM0 123.23c0 4.121 4.489 7.462 10.027 7.462s16.022-4.464 16.022-4.464-10.484-10.459-16.022-10.459S0 119.109 0 123.23zm20.492-36.104c0 4.121 4.489 7.462 10.027 7.462s16.022-4.464 16.022-4.464-10.484-10.459-16.022-10.459-10.027 3.34-10.027 7.461zm18.66-25.516c0 3.434 3.74 6.217 8.354 6.217s13.349-3.72 13.349-3.72-8.735-8.714-13.349-8.714-8.354 2.783-8.354 6.217zm-19.61-29.873c0 3.09 3.366 5.595 7.518 5.595s12.013-3.347 12.013-3.347-7.861-7.842-12.013-7.842-7.518 2.504-7.518 5.594zm8.074-28.695c0 1.68 1.83 3.042 4.087 3.042s6.531-1.82 6.531-1.82S33.96 0 31.703 0s-4.087 1.362-4.087 3.042zM42.23 108.293c0 4.121-4.489 7.462-10.027 7.462s-16.022-4.464-16.022-4.464 10.484-10.459 16.022-10.459 10.027 3.34 10.027 7.461zm41.075-28.628c0 4.121-4.489 7.462-10.027 7.462s-16.022-4.464-16.022-4.464S67.74 72.204 73.278 72.204c5.538-.001 10.027 3.34 10.027 7.461zM65.426 40.768c0 3.262-3.553 5.906-7.936 5.906S44.81 43.14 44.81 43.14s8.298-8.278 12.681-8.278 7.935 2.644 7.935 5.906zm-10.58-27.384c0 3.262-3.553 5.906-7.936 5.906s-12.68-3.534-12.68-3.534 8.298-8.278 12.681-8.278 7.935 2.644 7.935 5.906z"/><path d="m46.345 158.765-.86-2.085a121.46 121.46 0 0 0-2.548-5.77c-1.162-2.437-2.664-5.347-4.698-8.406-1.014-1.53-2.211-3.058-3.546-4.555l-.511-.557c-.11-.126-.362-.365-.538-.544-.389-.39-.784-.787-1.165-1.123a66.023 66.023 0 0 0-2.485-2.171l-5.62-4.682c-1.965-1.691-3.967-3.625-5.683-5.982-.822-1.203-1.636-2.453-2.26-3.832l-.243-.511-.1-.223-.044-.122-.088-.245-.354-.982c-.249-.603-.452-1.43-.646-2.223-.403-1.579-.453-3.188-.334-4.838.251-1.638.713-3.277 1.595-4.681.866-1.391 1.912-2.65 3.138-3.647 1.196-1.04 2.497-1.9 3.826-2.702 2.698-1.532 5.512-2.8 8.367-4.007 5.709-2.373 11.639-4.502 17.065-7.382 2.685-1.432 5.307-3.044 7.185-5.058.255-.236.471-.492.664-.757.18-.25.459-.538.562-.747l.312-.492.156-.246.097-.204c.126-.285.271-.501.391-.833.536-1.215.905-2.538 1.134-3.909.464-2.747.439-5.649.193-8.524a60.77 60.77 0 0 0-.222-2.16l-.031-.27-.008-.067c.032.254.002.031.006.069l-.025-.138-.097-.552-.192-1.101c-.052-.4-.153-.665-.243-.947l-.258-.85c-.161-.567-.481-1.162-.703-1.739-2.154-4.588-6.458-7.934-10.569-11.352-2.066-1.715-4.149-3.437-6.016-5.352-.475-.461-.913-.979-1.363-1.458l-.333-.365-.083-.091-.157-.182-.034-.047-.136-.187-.541-.743-.269-.369-.28-.474-.545-.964c-.394-.66-.593-1.231-.858-1.826-.967-2.368-1.562-4.662-1.97-6.854-.456-2.185-.62-4.284-.76-6.245-.232-3.928.055-7.367.604-10.141.561-2.776 1.358-4.881 2.127-6.2.159-.342.356-.618.535-.851a216.731 216.731 0 0 1 .781-1.063l.409.294-.237.513-.287.621c-.12.241-.248.523-.331.877-.478 1.337-.859 3.406-.999 6.052-.126 2.651.058 5.898.662 9.543.319 1.818.724 3.74 1.293 5.706a31.843 31.843 0 0 0 2.235 5.898c.24.462.473 1 .731 1.347l.367.591c.064.101.111.196.187.304l.291.352.586.708.147.178.037.045c-.218-.26-.038-.05-.077-.099l.078.075.314.302c.427.399.823.821 1.281 1.212 1.767 1.602 3.767 3.154 5.896 4.791 2.117 1.65 4.368 3.393 6.52 5.525 2.139 2.118 4.199 4.698 5.502 7.79.289.794.637 1.523.862 2.382l.331 1.29c.109.432.224.879.254 1.221l.153 1.108.076.555.019.139.027.208.005.072.021.29c.057.771.102 1.55.133 2.335.113 3.135.044 6.394-.702 9.69-.379 1.641-.922 3.296-1.75 4.864-.18.383-.476.811-.718 1.208l-.192.301-.176.232-.353.464c-.316.448-.614.693-.924 1.046a7.929 7.929 0 0 1-.957.917c-2.668 2.276-5.662 3.624-8.618 4.829-5.945 2.334-11.978 3.955-17.632 6.305-2.823 1.151-5.572 2.448-7.995 4.111-1.191.845-2.359 1.713-3.292 2.757a11.358 11.358 0 0 0-2.269 3.31c-.551 1.174-.699 2.43-.751 3.643l.084.924c.026.305.039.607.133.913.156.604.25 1.222.486 1.768.203.56.356 1.092.706 1.755l.451.942.112.235.056.117c-.075-.17-.003-.018-.012-.043l.03.051.237.406c.579 1.104 1.328 2.101 2.077 3.071 3.107 3.82 7.061 6.902 10.619 10.126a50.019 50.019 0 0 1 2.557 2.512c.432.438.793.851 1.154 1.26.195.224.334.365.571.654l.54.666c1.429 1.763 2.521 3.595 3.469 5.328a41.484 41.484 0 0 1 2.307 4.991c.613 1.574 1.131 3.029 1.512 4.369a60.642 60.642 0 0 1 1.532 6.249l.381 2.232z"/></g></svg></g></svg>