<svg xmlns="http://www.w3.org/2000/svg" viewBox="0 0 1600 1200" width="1600" height="1200"><g transform="translate(696.0 218.0) rotate(0.0 266.0 252.5) scale(2.101056057123449 2.1048858359939646)"><svg width="253.206" height="239.918" viewBox="0 0 253.206 239.918"><ellipse cx="126.603" cy="119.959" fill="#fcfcfd" rx="126.603" ry="119.959"/><ellipse cx="126.603" cy="119.959" fill="#f8f8f9" rx="101.282" ry="95.967"/><ellipse cx="126.603" cy="119.959" fill="#f3f4f6" rx="75.962" ry="71.975"/><circle cx="126.774" cy="120.446" fill="#fff" r="41.895"/></svg></g><g transform="translate(480.0 362.0) rotate(0.0 132.0 136.0) scale(1.9555555555555555 1.9567078390607804)"><svg width="135" height="139.009" viewBox="0 0 135 139.009"><path d="M110 90.009s-.75-13.23-1-16c-1-11-4.33-18.58-15.29-20.15 0 0-4.71-14.81-16.71-19.81 0-24.13-7.31-32.88-7.31-32.88s-7.9-2.63-15.81 0-10.36 12.38-10.36 12.38l3.77 20.56a25.79 25.79 0 0 0-18.29 24l-.11 4.9 1.11 75.91h70c4-25.91 10-48.91 10-48.91z" fill="#dddee3"/><path d="M134.26 135.169s-3.26-21.16-5.26-31.16c-1.87-9.34-12.49-12.17-19-14-5 17-10 49-10 49h35zM82 56.009v-35l2.32.88a12.999 12.999 0 0 1 8.41 11.18l2 25.9z" fill="#f3f4f6"/><path d="m14 138.949 12.21-79.85 1.55-9.49a19.76 19.76 0 0 1 10.91-14.6l5.33-2v105.9z" fill="#dddee3"/><path d="m9.08 97.259 1.48-19.25a21.3 21.3 0 0 1 15.65-18.91l-1.32 35.53.11 44.32H0z" fill="#d2d3da"/><path d="m47.29 5.149 6.59-3.94s-6.59 21.06 0 40.8h8.17c10.422-.003 19.321 7.523 21.05 17.8.3 1.78 10.9 79.2 10.9 79.2H37l6-103.89v-15c0-7.04 1.62-11.79 4.29-14.97z" fill="#c6c8d0"/><path d="M71.23 44.009A21.405 21.405 0 0 1 82 55.729v-36.65a16.862 16.862 0 0 0-5.79-12.07l-6.52-5.79A114.666 114.666 0 0 1 73 28.069a76.358 76.358 0 0 1-1.77 15.94z" fill="#e8e9ec"/><path d="M118 138.949v-43.94c0-3.2-.65-11-5-13-1.66-.75-5.17-2.35-7-3a8.001 8.001 0 0 1-5.26-6.28s-6-30.75-38.95-30.75c0 0 18.21 36 18.21 64 0 22.37-2 33-2 33z" fill="#eff0f2"/></svg></g><g transform="translate(1084.0 359.0) rotate(0.0 121.0 124.0) scale(1.8749515766638258 1.878787878787879)"><svg width="129.07" height="132" viewBox="0 0 129.07 132"><path d="M108.28 132s11.42-43 6.48-58-10.4-13.46-10.4-13.46L91 132z" fill="#bbbdc7"/><path d="M70 47S83 9 75 3a15 15 0 0 0-9-3 17.998 17.998 0 0 0-10 3s-7 9-7 44z" fill="#dddee3"/><path d="M55 47a70.22 70.22 0 0 1-3-20 74.485 74.485 0 0 1 4-24s-4 2-7.73 11.92C45.2 23.06 44 34 44 47z" fill="#eff0f2"/><path d="M66 37c1-1 3-6 3-9 0-4.2-.84-8.69 0-15.41C69.74 6.66 71 3 74.5 3a8.226 8.226 0 0 1 4.18 1.57C85 8.57 94 22.94 94 42s-5 90-5 90H49a390.077 390.077 0 0 1-4-53c0-28 14-37 14-37a30.604 30.604 0 0 0 7-5z" fill="#d2d3da"/><path d="M64 132c-11.38-26.15-15-48.83-15-64 0-19 10-26 10-26s-10 2.68-11 3c-11.36 3.65-19.31 14.18-21 26a149.347 149.347 0 0 0-2 21v40z" fill="#dddee3"/><path d="M89.26 41.75a19.67 19.67 0 0 1 15.19 18.31v.5L97 132H83l2.3-31.13z" fill="#d2d3da"/><path d="M121 132s13-21 6-36c-3.45-7.41-7.13-10-10-10-4 0-9 0-9 7 0 4 1 9 1 19a35.841 35.841 0 0 1-6 20z" fill="#dddee3"/><path d="M16 86.91S12 89 10 99 0 132 0 132l16.53-.05S24 120 24 101c0-16-8-14.09-8-14.09z" fill="#eff0f2"/><path d="M27 132s3-14.87 3-28c0-11-1.53-16.53-3-18-1-1-2.76-1-4-1-2.441.139-4.826.79-7 1.91 0 0 3-.91 3 10.09s-7.1 35-7.1 35z" fill="#d2d3da"/><path d="M72 132a261.694 261.694 0 0 0 1-28c-.3-12.49-2.14-25.41-4-31s-3-9.7-3-12c0-2.64 1.66-4.26 7-8 4.65-3.26 7.47-5.11 10-5 2.91.12 5.33 2.72 8 7a18.154 18.154 0 0 1 2 9c.2 20.9-8 68-8 68z" fill="#dddee3"/></svg></g><g transform="translate(252.0 233.0) rotate(0.0 172.0 189.5) scale(1.7731958762886597 1.7706970659689778)"><svg width="194" height="214.04" viewBox="0 0 194 214.04"><path d="m77 214.02-1-200H62c-4 0-17.28 2.11-19 15-2 15-2 42-2 42l7 143zm-54 0s-11-14-11-39a186.93 186.93 0 0 1 6-46c0-6-1-17.29-1-17.29a19.138 19.138 0 0 1 5.28-13.77S26 95.02 28 95.02c1.14 0 8.8 34.81 11 68 1.67 25.19-1.87 51-1.87 51z" fill="#bbbdc7"/><path d="M81 92.02c0-70-2.76-90.19-2.76-90.19A26.724 26.724 0 0 1 89 .02c4 0 13 4.95 13 4.95s14 7.05 14 33v41h-6S89 84.6 81 92.02z" fill="#dddee3"/><path d="M110 79.02s1-23 1-37c0-31-9-37-9-37s14-.53 19 16.05c3 10 4 29.68 4 38v20z" fill="#eff0f2"/><path d="M75 214.02s11-5 11-29c0-17.92-3.81-39.21-4-60-.26-29.5 11.86-54 26-54h11c9 0 13 5 22 10 8.05 4.47 16 13.14 16 22 0 6-2 20-2 28s-1 83-1 83z" fill="#f3f4f6"/><path d="M4 193.02c-2.72-12.72-4-47.93-4-47.93 0-12.9 18-16.05 18-16.05s-6 51 5 85c0-.02-16.28-8.32-19-21.02z" fill="#dddee3"/><path d="M164 136.02c10 0 16.9 8.65 20 18 3.62 10.91 10 60 10 60h-40s-1-27-1-48 4.92-30 11-30z" fill="#eff0f2"/><path d="M114 214.02c9-2 19.8-9.78 22-23 4-24 2-28 3-42 .34-4.79 6-18 14-18a17.62 17.62 0 0 1 12 5c-3 5-6 15-6 28 0 27.78 2 50 2 50z" fill="#dddee3"/><path d="M62 14.02h14L65.26 76.61S64 68.02 62 54.02c-1.38-9.65-6-17-6-28 0-2-1-12 6-12z" fill="#e4e4e8"/><path d="M153 131.02s-9 6-9 30a257.394 257.394 0 0 1-2 32 176.247 176.247 0 0 1-4 21h-24s2-4 7-21c1.22-4.14 1-4 6-25 3.94-16.54 6-37 22-37z" fill="#c6c8d0"/><path d="M108 71.02c-13 0-17.49 9-22 9 0 0-1-13.94-1-46 0-20-5.77-32.61-5.77-32.61S65 4.02 65 16.02c0 0 .26 39.19.26 60.59 0 19.67-3.26 60.41-7.26 60.41-1 0-6-13.16-6-27 0-25-10.22-42.14-10.22-42.14A22.72 22.72 0 0 0 24 90.02c0 10.95 6.45 38.64 10 68 3.25 26.86 3 56 3 56h55c-.53-26-5-58-5-90 0-25.27 11-47 21-53z" fill="#d2d3da"/></svg></g><g transform="translate(-4.0 600.0) rotate(0.0 802.0 94.5) scale(2.005 2.2234509370257522)"><svg width="800" height="85.003" viewBox="0 0 800 85.003"><path d="M777.08.893a163.878 163.878 0 0 0-34.16 0 237.348 237.348 0 0 1-45.84 0 163.878 163.878 0 0 0-34.16 0 237.348 237.348 0 0 1-45.84 0 163.878 163.878 0 0 0-34.16 0 237.348 237.348 0 0 1-45.84 0 163.878 163.878 0 0 0-34.16 0 237.348 237.348 0 0 1-45.84 0 163.878 163.878 0 0 0-34.16 0 237.348 237.348 0 0 1-45.84 0 163.878 163.878 0 0 0-34.16 0 237.348 237.348 0 0 1-45.84 0 163.878 163.878 0 0 0-34.16 0 237.348 237.348 0 0 1-45.84 0 163.878 163.878 0 0 0-34.16 0A219.29 219.29 0 0 1 160 2.003a219.837 219.837 0 0 1-22.92-1.11 163.878 163.878 0 0 0-34.16 0A219.29 219.29 0 0 1 80 2.003 219.837 219.837 0 0 1 57.08.893a163.878 163.878 0 0 0-34.16 0A219.576 219.576 0 0 1 0 2.003v83c67 0 209.11-8 247-8s81 8 148 8c31.57 0 78.29-8 127-8s77.18 8 101 8 60.11-4 98-4c54.13 0 79 4 79 4v-83c-7.654.03-15.305-.341-22.92-1.11z" fill="#fbfbfb"/><path d="M777.08 28.893a163.878 163.878 0 0 0-34.16 0 237.348 237.348 0 0 1-45.84 0 163.878 163.878 0 0 0-34.16 0 237.348 237.348 0 0 1-45.84 0 163.878 163.878 0 0 0-34.16 0 237.348 237.348 0 0 1-45.84 0 163.878 163.878 0 0 0-34.16 0 237.348 237.348 0 0 1-45.84 0 163.878 163.878 0 0 0-34.16 0 237.348 237.348 0 0 1-45.84 0 163.878 163.878 0 0 0-34.16 0 237.348 237.348 0 0 1-45.84 0 163.878 163.878 0 0 0-34.16 0 237.348 237.348 0 0 1-45.84 0 163.878 163.878 0 0 0-34.16 0 219.29 219.29 0 0 1-22.92 1.11 219.837 219.837 0 0 1-22.92-1.11 163.878 163.878 0 0 0-34.16 0A219.29 219.29 0 0 1 80 30.003a219.837 219.837 0 0 1-22.92-1.11 163.878 163.878 0 0 0-34.16 0A219.29 219.29 0 0 1 0 30.003v55c67 0 209.11-8 247-8s81 8 148 8c31.57 0 78.29-8 127-8s77.18 8 101 8 60.11-4 98-4c54.13 0 79 4 79 4v-55c-7.654.03-15.305-.341-22.92-1.11z" fill="#f3f4f6"/><path d="M777.08 55.893a163.878 163.878 0 0 0-34.16 0 237.348 237.348 0 0 1-45.84 0 163.878 163.878 0 0 0-34.16 0 237.348 237.348 0 0 1-45.84 0 163.878 163.878 0 0 0-34.16 0 237.348 237.348 0 0 1-45.84 0 163.878 163.878 0 0 0-34.16 0 237.348 237.348 0 0 1-45.84 0 163.878 163.878 0 0 0-34.16 0 237.348 237.348 0 0 1-45.84 0 163.878 163.878 0 0 0-34.16 0 237.348 237.348 0 0 1-45.84 0 163.878 163.878 0 0 0-34.16 0 237.348 237.348 0 0 1-45.84 0 163.878 163.878 0 0 0-34.16 0 219.29 219.29 0 0 1-22.92 1.11 219.837 219.837 0 0 1-22.92-1.11 163.878 163.878 0 0 0-34.16 0A219.29 219.29 0 0 1 80 57.003a219.837 219.837 0 0 1-22.92-1.11 163.878 163.878 0 0 0-34.16 0A219.29 219.29 0 0 1 0 57.003v28c67 0 209.11-8 247-8s81 8 148 8c31.57 0 78.29-8 127-8s77.18 8 101 8 60.11-4 98-4c54.13 0 79 4 79 4v-28c-7.654.03-15.305-.341-22.92-1.11z" fill="#e8e9ec"/></svg></g><g transform="translate(736.0 190.0) rotate(11.467010444053376 73.5 59.0) scale(1.5978260869565217 1.5945945945945945)"><svg width="92" height="74" viewBox="0 0 92 74"><path d="M.256 74s-5.983-47.721 39.889-42.645c0 0 6.981-37.568 51.855-30.461 0 0-37.894 6.092-39.889 33.507 0 0-5.983 12.184-17.95 19.292l1.994-12.184c.001 0-25.927 0-35.899 32.491z" fill="#e8e9ec"/></svg></g><g transform="translate(1031.0 304.0) rotate(90.0 51.0 41.0) scale(1.108695652173913 1.1081081081081081)"><svg width="92" height="74" viewBox="0 0 92 74"><path d="M.256 74s-5.983-47.721 39.889-42.645c0 0 6.981-37.568 51.855-30.461 0 0-37.894 6.092-39.889 33.507 0 0-5.983 12.184-17.95 19.292l1.994-12.184c.001 0-25.927 0-35.899 32.491z" fill="#e8e9ec"/></svg></g><g transform="translate(923.0 64.0) rotate(31.53083808516792 37.5 30.0) scale(0.8152173913043478 0.8108108108108109)"><svg width="92" height="74" viewBox="0 0 92 74"><path d="M.256 74s-5.983-47.721 39.889-42.645c0 0 6.981-37.568 51.855-30.461 0 0-37.894 6.092-39.889 33.507 0 0-5.983 12.184-17.95 19.292l1.994-12.184c.001 0-25.927 0-35.899 32.491z" fill="#F0F1F4"/></svg></g><g transform="translate(631.0 809.0) rotate(0.0 210.0 69.0) scale(2.3333333333333335 2.3389830508474576)"><svg width="180" height="59" viewBox="0 0 180 59"><path d="M180 59H0l3.22-5 3.86-6 5.16-8 3.22-5 4.51-7 3.22-5L38 0h104l14.81 23 3.22 5 4.51 7 3.22 5 5.16 8 3.86 6z" fill="#93c3ff"/><g fill="#5aa1f1"><path d="M147.15 8H32.85l2.57-4h109.16zm5.8 9H27.05l2.58-4h120.74zm7.08 11H19.97l3.22-5h133.62zm7.73 12H12.24l3.22-5h149.08zm9.02 14H3.22l3.86-6h165.84z"/></g></svg></g><g transform="translate(959.0 872.0) rotate(0.0 109.0 62.5) scale(2.2722298079027734 2.272727272727273)"><svg width="95.941" height="55" viewBox="0 0 95.941 55"><path d="M43.86 1c-20 .11-37 7.7-36.92 18.95 0 10 14.09 26.29 49.63 26.05 32.44-.22 39.25-13.34 39.37-19C96.13 17.68 76.85.83 43.86 1z" fill="#7eb8ff"/><path d="M33.03 16.83C33.03 11.44 38.34 0 50.94 0c16 0 19 16.06 19 18.72 0 0-3 7.28-18 7.28-16 0-18.91-9.17-18.91-9.17z" fill="#93c3ff"/><path d="M44.52 22.53s-6.58 4.65-6.58 9.47c0 5 1 4 1 9s-7 7.5-7 7.5l8 .5 1 6s7-4 7-10-4-8.22-4-13c0-4 2.75-8.38 2.75-8.38z" fill="#016eea"/><path d="M40.81 22.57S38.94 26 30.94 26c-9 0-10 11-18 14A29.001 29.001 0 0 1 0 42l7.94 4-6 7s13 0 20-7c5.43-5.43 4-11 12-14a20.078 20.078 0 0 0 10-9z" fill="#016eea"/><path d="M52.94 20c-13.34 0-17.58-6.61-18.62-8.73a14.995 14.995 0 0 0-1.29 5.56S35.94 26 51.94 26c15 0 18-7.28 18-7.28a19.012 19.012 0 0 0-1-5c-2.32 2.67-7 6.28-16 6.28z" fill="#2888ff"/></svg></g><g transform="translate(1311.0 861.0) rotate(0.0 40.0 31.0) scale(2.5792307444304736 2.580108198085726)"><svg width="31.017" height="24.03" viewBox="0 0 31.017 24.03"><path d="M0 18.03v1.1a4.85 4.85 0 0 0 4 4.78c.425.08.857.12 1.29.12a13.323 13.323 0 0 0 5.38-1.49l.36-.17c1.4-.62 2.38-1.16 3.51-1.78l.92-.5c.71-.34 1.43-.64 2.17-.91a50.191 50.191 0 0 0 7.29-3.39 15.22 15.22 0 0 0 5-4.51c.48-.895.818-1.86 1-2.86.092-.662.119-1.332.08-2v-.07c0-3-1.66-6.35-5.28-6.35-1.44 0-6.37 7.35-11 10.74A50.739 50.739 0 0 1 0 18.03z" fill="#93c3ff"/><path d="M26.07.03a12.002 12.002 0 0 0-7.49 2.63 62.918 62.918 0 0 0-7.53 6.89 17.242 17.242 0 0 1-3 1.94c-1.3.74-3.51 1.89-5.78 3.38-1.84 1.2-2.57 2.65-2.06 4a5.13 5.13 0 0 0 4.17 3.05c2.11.38 4.18-.65 5.87-1.4s2.74-1.39 4.28-2.22 5.41-1.92 9.41-4.26c3.78-2.23 6.11-5.33 6.11-8.62 0-2.9-1.12-4.21-2.22-4.83a4.8 4.8 0 0 0-1.76-.56z" fill="#2888ff"/><path d="M22 3.03a19.208 19.208 0 0 1-1.62 7.5A21.726 21.726 0 0 1 14 18.59l.48-.26c.88-.48 2.54-1 4.53-1.87a14.54 14.54 0 0 0 3.52-5.48A20.92 20.92 0 0 0 24 2.03a12.274 12.274 0 0 0-5-1c-2.587.06-5.108.828-7.29 2.22A18.075 18.075 0 0 1 18 2.03c1.387.059 2.748.4 4 1z" fill="#93c3ff"/><path d="M11.71 3.25a8.429 8.429 0 0 0-2.33 2.28 11.114 11.114 0 0 0-1.38 6 17.723 17.723 0 0 0 3-1.9 7.804 7.804 0 0 1 1-4.2 8.997 8.997 0 0 1 4-3.25c-1.469.18-2.909.539-4.29 1.07z" fill="#2888ff"/></svg></g><g transform="translate(950.0 607.0) rotate(0.0 24.5 38.0) scale(2.191707295254283 2.264263369581409)"><svg width="22.357" height="33.565" viewBox="0 0 22.357 33.565"><path d="M17.323 33.565H5.034a1.258 1.258 0 0 1-1.254-1.159L1.443 2.939h19.471l-2.337 29.467a1.259 1.259 0 0 1-1.254 1.159z" fill="#93c3ff"/><path d="m19.981 14.782-.388 4.882H2.761l-.389-4.882zm2.376-10.585H0V2.429A2.428 2.428 0 0 1 2.429 0h17.499a2.429 2.429 0 0 1 2.429 2.429z" fill="#013b84"/><path d="M15.349 17.294c-.06 3.559-1.978 6.415-4.285 6.375s-4.125-2.956-4.055-6.515c.06-3.559 1.978-6.415 4.275-6.375 2.307.04 4.125 2.955 4.065 6.515z" fill="#2888ff"/></svg></g><g transform="translate(1235.0 850.0) rotate(0.0 41.5 28.0) scale(2.4411764705882355 2.4347826086956523)"><svg width="34" height="23" viewBox="0 0 34 23"><path d="M14 8c-4.84 3.06-14 8.5-14 8.5 0 2.38.42 3.72 1.12 4.61A4.91 4.91 0 0 0 4.93 23H5c3.88 0 7.11-2.27 10-4.27a22.677 22.677 0 0 1 4.72-2.8l1.49-.52a43.777 43.777 0 0 0 9.66-4.25C33.94 9.16 34 7.3 34 5.85 34 3.06 30.86 0 25.37 0 25.33 0 18.84 4.94 14 8z" fill="#93c3ff"/><path d="M25 0c-3 0-6.7 1.89-10 4.19-1.34.94-2.69 1.83-3.94 2.65-1.54 1-2.92 1.93-3.89 2.64C4.35 11.57 0 12.89 0 16.37 0 18.09 1 21 5 21c5.32 0 9.53-5.33 14-6.95 2.54-.92 7.18-2.27 10.75-4.57C33 7.38 33 5.4 33 4.24 33 1.88 30 0 25 0z" fill="#2888ff"/><path d="M25.94 3.86s.34 1.2-.92 3.73c-1.68 3.35-5.75 5.1-6.27 5.41-2.75 1.63-3.37 3-3.37 3a17.203 17.203 0 0 1 3.61-2l1.69-.58A10.85 10.85 0 0 0 28 3c-1.62-1.37-5.08-2-7.75-2-7.07 0-9.62 3-9.62 3 1.25-1 2.87-2 7.5-2 2.695.141 5.341.771 7.81 1.86z" fill="#93c3ff"/><path d="M11.06 6.84c.11-.67.39-1.91 2.57-3.46a7.398 7.398 0 0 1 3.11-1.34c-3.58.18-5 1.07-6.11 2a8.102 8.102 0 0 0-2.64 4.9c.86-.64 1.92-1.33 3.07-2.1z" fill="#2888ff"/></svg></g><g transform="translate(658.0 463.0) rotate(0.0 181.0 200.5) scale(2.305380069288771 2.3018460690668627)"><svg width="157.024" height="174.208" viewBox="0 0 157.024 174.208"><path d="m44.439 58.193-12.132 47.168 2.717 7.964a7.128 7.128 0 0 0 6.933 4.824l2.351-.062 16.71-61.343zm70.381 1.678 6.985 44.863-5.269 11.608a1.237 1.237 0 0 1-1.277.716l-1.084-.135a7.521 7.521 0 0 1-6.488-6.202l-9.732-57.163 13.114 2.447a4.663 4.663 0 0 1 3.751 3.866z" fill="#99644c"/><path d="m54.36 48.679 25.618-2.295 21.695 1.715c7.829.619 13.856 7.172 13.818 15.026l-.008 1.57-.075 15.499-35.505-.147-35.505-.147V59.574a10.939 10.939 0 0 1 9.962-10.895z" fill="#99644c"/><path d="m53.379 77.092.075 31.166a19.993 19.993 0 0 1-1.249 7.006l-7.124 19.2 68.477.622-6.201-19.8a19.999 19.999 0 0 1-.914-5.978V77.534zm34.677-29.52-15.975.375V31.034h15.975v5.375z" fill="#99644c"/><path d="m138.024 125.748-25.979 8.174-44.749 25.336s7.626 15.206 7.418 14.657l49.506-15.919a19.524 19.524 0 0 0 3.291-1.573l19.143-11.456c5.041-3.017 6.67-9.557 3.632-14.586a10.605 10.605 0 0 0-12.262-4.633z" fill="#013b84"/><path d="m18.734 125.748 25.979 8.174 38.084 24.336s-7.626 15.206-7.418 14.657l-42.84-14.919a19.524 19.524 0 0 1-3.291-1.573l-19.143-11.456c-5.041-3.017-6.67-9.557-3.632-14.586a10.603 10.603 0 0 1 12.261-4.633z" fill="#013b84"/><path d="M106.492 100.559H53.495V79.092l27.316-6 25.681 6z" fill="#2888ff"/><path d="m68.135 141.784 4.943-6.707-33.675-35.913-5.793 4.876a6.81 6.81 0 0 0-.422 10.033l4.179 4.166z" fill="#99644c"/><path d="M78.512 174.208H56.339a34.998 34.998 0 0 1-18.548-5.319l-32.3-20.185a11.677 11.677 0 0 1-4.256-15.125c3.809-7.619 13.02-10.781 20.706-7.109l53.571 25.595z" fill="#013b84"/><path d="M76.512 174.208h24.173a34.998 34.998 0 0 0 18.548-5.319l32.3-20.185a11.677 11.677 0 0 0 4.256-15.125c-3.809-7.619-13.02-10.781-20.706-7.109l-53.571 25.595zM48.22 126.007l-3.138 8.456 68.477.621-2.843-9.077z" fill="#013b84"/><path d="M43.557 133.838h72.527v23.97H43.557z" fill="#013b84"/><g fill="#99644c"><path d="M147.394 82.143c.332.985.279 2.741-.553 3.074l-8.617 2.812-3.097-3.982 11.444-2.286c.249-.057.753.078.819.368l.004.014z"/><path d="M147.023 85.759c.332.985.199 2.739-.633 3.072l-8.536 2.814-3.097-3.982 11.444-2.286c.249-.057.753.078.819.368l.003.014z"/><path d="M147.251 89.23c.332.985.04 2.674-.791 3.006l-8.378 2.879-3.097-3.982 11.444-2.286c.249-.057.753.078.819.368a.197.197 0 0 0 .003.015z"/><path d="M147.087 92.526c.356.874.189 2.507-.628 2.873l-8.317 3.176-3.178-3.405 11.297-2.931c.246-.071.749.016.822.276a.036.036 0 0 1 .004.011z"/><path d="m140.224 93.959-1.451-7.279a3 3 0 0 0-4.28-2.099l-2.54 1.266a3.001 3.001 0 0 0-1.089.921l-6.235 8.573 4.026 5.409 8.041-1.562a4.473 4.473 0 0 0 3.528-5.229z"/><ellipse cx="136.82" cy="90.258" rx="6.499" ry="7.106" transform="matrix(.1907 .9816 -.9816 .1907 199.3274 -61.2645)"/><path d="m143.463 94.007-19.157 21.105a4.998 4.998 0 0 1-3.399 1.63l-6.156.374a5.001 5.001 0 0 1-4.589-2.415l-2.059-3.426a5 5 0 0 1 1.327-6.607l28.062-20.595z"/></g><path d="m66.886 47.257-6.754 16.97-6.754 14.97 26.578.011 26.578.011-6.788-14.981-6.789-16.981H79.922z" fill="#2888ff"/><path d="M66.663 19.59h-.15a2.557 2.557 0 0 0-2.55 2.55v7.063a2.557 2.557 0 0 0 2.55 2.55h.15a2.557 2.557 0 0 0 2.55-2.55V22.14a2.557 2.557 0 0 0-2.55-2.55zm27.717 0h-.15a2.557 2.557 0 0 0-2.55 2.55v7.063a2.557 2.557 0 0 0 2.55 2.55h.15a2.557 2.557 0 0 0 2.55-2.55V22.14a2.557 2.557 0 0 0-2.55-2.55z" fill="#99644c"/><path d="m91.458 37.432-5.629 6.624-10.621-.117-5.403-6.136a10 10 0 0 1-2.495-6.609V21.89h26.527v9.066c0 2.373-.843 4.668-2.379 6.476z" fill="#99644c"/><ellipse cx="80.574" cy="31.344" fill="#002652" rx="14.068" ry="6.554"/><path d="M88.518 14.343h4.744v8.989h-4.744z" fill="#002652"/><path d="m94.69 31.821-28.235-.028-1.498-16.608C64.247 7.31 70.449.524 78.356.524h4.436c7.907 0 14.109 6.786 13.399 14.661z" fill="#002652"/><path d="M80.574 7.274c-2.005 0-3.637-1.631-3.637-3.637S78.569 0 80.574 0s3.637 1.631 3.637 3.637a3.642 3.642 0 0 1-3.637 3.637zm0-6.274c-1.454 0-2.637 1.183-2.637 2.637s1.183 2.637 2.637 2.637 2.637-1.183 2.637-2.637S82.028 1 80.574 1z" fill="#93c3ff"/><path d="M80.404 17.838h.34c1.732 0 3.136-1.937 3.134-4.324l-.006-7.762c-.002-2.384-1.404-4.315-3.134-4.315h-.328c-1.73 0-3.132 1.931-3.134 4.315l-.006 7.762c-.002 2.387 1.402 4.324 3.134 4.324z" fill="#002652"/><path d="M80.34 33.086h.468a4.32 4.32 0 0 0 4.32-4.324L85.12 21a4.32 4.32 0 0 0-4.32-4.315h-.452A4.32 4.32 0 0 0 76.028 21l-.008 7.762a4.32 4.32 0 0 0 4.32 4.324z" fill="#002652"/><path d="M80.34 49.334h.468a4.32 4.32 0 0 0 4.32-4.324l-.008-7.762a4.32 4.32 0 0 0-4.32-4.315h-.452a4.32 4.32 0 0 0-4.32 4.315l-.008 7.762a4.32 4.32 0 0 0 4.32 4.324z" fill="#002652"/><path d="M76.016 65.582h9.117l-.013-12.086a4.32 4.32 0 0 0-4.32-4.315h-.452a4.32 4.32 0 0 0-4.32 4.315z" fill="#002652"/><path d="M83.699 17.354h-5.854a.5.5 0 0 1 0-1h5.854a.5.5 0 0 1 0 1zm0 16.248h-5.854a.5.5 0 0 1 0-1h5.854a.5.5 0 0 1 0 1zm0 16.248h-5.854a.5.5 0 0 1 0-1h5.854a.5.5 0 0 1 0 1z" fill="#93c3ff"/><path d="M132.755 85.675c-.045.023-.082.06-.134.067a.522.522 0 0 1-.541-.283 426.104 426.104 0 0 1-2.803-5.828 1.315 1.315 0 0 0-1.738-.657l-.045.021a1.366 1.366 0 0 0-.756 1.483s.94 3.403 1.579 5.554c.235.754.361 1.539.374 2.329a7.15 7.15 0 0 0 1.086 3.631l1.972 2.965c1.124 1.686 1.956 2.95 4.724 3.563l.256.141z" fill="#99644c"/></svg></g><g transform="translate(228.0 885.0) rotate(0.0 58.0 21.5) scale(1.5890410958904109 1.5906484666888616)"><svg width="73" height="27.033" viewBox="0 0 73 27.033"><path d="M65.08 8.083C50.18-.967 33.72.033 22 .033c-11 0-14.6 4.2-17 9-2 4-5 6-5 9s1 9 21 9c17 0 28-3 34-5s18-2.82 18-7c0-2-2.42-3.62-7.92-6.95z" fill="#93c3ff"/></svg></g><g transform="translate(363.0 885.0) rotate(0.0 73.0 27.0) scale(2.0 1.9975585395627566)"><svg width="73" height="27.033" viewBox="0 0 73 27.033"><path d="M65.08 8.083C50.18-.967 33.72.033 22 .033c-11 0-14.6 4.2-17 9-2 4-5 6-5 9s1 9 21 9c17 0 28-3 34-5s18-2.82 18-7c0-2-2.42-3.62-7.92-6.95z" fill="#93c3ff"/></svg></g><g transform="translate(330.0 671.0) rotate(0.0 118.5 118.0) scale(1.7968157695223654 1.8045572717540908)"><svg width="131.9" height="130.78" viewBox="0 0 131.9 130.78"><g fill="#013b84"><path d="M42.69 88.81a21.16 21.16 0 0 0 11.3 9.34c5.47 2 12.83 3.66 21 6.84-5.48-4.31-13.72-8.63-20.4-11.65a107.551 107.551 0 0 0-11.9-4.53zm-10.54-7.48c-7-3.35-15.69-6.4-21.46-5.39 6.2 1.39 13.13 5.56 18.56 9.56 3.31 2.41 13.44 3.29 13.44 3.31a35.937 35.937 0 0 0-10.54-7.48zm3.33-7.99c-6.92-3.33-15.4-5.66-20.48-5.44 5 1.57 13.71 5.32 18.37 11.13 3 3.71 12.93 2.63 12.94 2.64a33.908 33.908 0 0 0-10.83-8.33zm20.44-6.77a12.721 12.721 0 0 0 7.84 8.9c5.55 2.13 13.5 1.78 22.51 5.78-8.54-6.08-13.65-9.64-20.54-11.67-6.02-1.77-9.82-3.01-9.81-3.01z"/><path d="M46.27 81.67a13.64 13.64 0 0 0 7.78 8.84c5.62 2.28 14.26 3.4 23.74 7.09-5.49-4.52-14.14-9.33-20.69-12.54a43.397 43.397 0 0 0-10.83-3.39zm.14-25.03A40.092 40.092 0 0 0 27 47.43c4.73 1.51 9 8.2 14.06 13.51 4.09 4.3 14.85 5.61 14.86 5.63a62.495 62.495 0 0 0-9.51-9.93zm4.61 17.15s2.57 7.55 8 9.53c5.72 2.08 13.86 3.81 22.45 7.21A98.131 98.131 0 0 0 60.88 78.3c-4.92-2.22-9.86-4.52-9.86-4.51zm.92 25.95a66.161 66.161 0 0 0-13.2-4c.25 2.7 9.67 8.33 12.17 9a135.432 135.432 0 0 1 20.57 7.35C68.7 108 59.6 103.11 51.94 99.74zM1 101.65a83.546 83.546 0 0 1 18.48 4.55c5.56 2.07 13.68 1.08 13.69 1.08a42.9 42.9 0 0 0-11.75-4.71C14.59 101.05 6.24 100 1 101.65zm41.26 14.28a42.449 42.449 0 0 0-10.53-3.49 27.357 27.357 0 0 0 8.63 9.05c3.88 2.37 6.91.48 18.16 9.29-1.87-5.27-9.82-11.61-16.26-14.85zM27.62 87.71c-6.43-2.85-14.48-5.35-20.87-4.55A51.01 51.01 0 0 1 25.68 92c3.67 2.72 13.06 3.71 13.06 3.73a34.913 34.913 0 0 0-11.12-8.02zM0 109.49c7.22.83 12.37 3.6 18.09 4.15 3.56.31 13.63-1.22 13.64-1.2a41.938 41.938 0 0 0-12-3.19c-7.39-.81-16.5-1.72-19.73.24zm35.69-7s8.22 6.64 11.71 7.89c5.05 1.77 11.51 4.19 19.21 7.45-5.27-5.13-10.34-7.87-17.6-11.3a58.403 58.403 0 0 0-13.32-4.04z"/><path d="M1.37 93.2a78.927 78.927 0 0 1 19.92 5.67c3.53 1.52 14.41 3.59 14.4 3.62a38.38 38.38 0 0 0-11.81-7.34c-7.69-2.77-17.4-4.92-22.51-1.95zm43.93 17.97a47.452 47.452 0 0 0-12.18-3.89s5.41 5 10.48 7.18a185.963 185.963 0 0 1 21.13 10.23c-2.11-3.97-11.56-9.62-19.43-13.52zM19.86 58.19a50.704 50.704 0 0 1 18.21 11.36c2.91 2.72 12.95 4.22 12.95 4.24A83.412 83.412 0 0 0 40.96 66c-5.94-4-13.75-7.85-21.1-7.81zm73.41-39.06c-2.08-3.6-5.39-7.05-11.91-10.13 4.7 4.56 5.37 10.17 6.77 13.79 2.2 5.72 6.49 7.35 6.49 7.35s1.11-6.76-1.35-11.01zm-7.79 7.46a29.998 29.998 0 0 0-16.29-10.15 23.629 23.629 0 0 1 10.53 13c1.45 4.42 7.66 6.09 7.65 6.1s.92-5.68-1.89-8.95zm15.54-12.17c-.84-3.69-2.37-7.88-7.29-10.63 2.36 3.2 1.41 9.25 2.08 13.21 1.11 6.59 4.76 9.59 4.76 9.59s1.7-6.72.45-12.17zm-3.24 23.25a28.601 28.601 0 0 0-10.37-2.11s-.06 4.84 6.35 7c6 2 14.58 2.72 19.18 5.89a44.074 44.074 0 0 0-15.16-10.78zm4.95-6.09a23.38 23.38 0 0 0-8.11-1.44s1 3.42 5.92 5.48c4.12 1.72 10.4 2 16.48 5.8-3.75-4.7-9.08-7.86-14.29-9.84zm.45-6.58 4.46-2.57c8.67.21 24.19-11.08 24.26-11.05s-8.67 2.89-16.27 5.29c-7.09 2.24-8 5.59-8 5.58l-4.5 2.75a72.662 72.662 0 0 0 8.19 2.32c5.59.94 13.05.61 18.37 3.57-2.21-2.3-7.86-5.93-15-7s-11.05.86-11.51 1.11z"/><path d="M110.98 0c-.73 4.75-6 10.27-7.12 15.27a33.348 33.348 0 0 0-.73 9.76 50.001 50.001 0 0 0 6.77-11.78c1.58-4.11 1.45-7.83 1.08-13.25zm-10.41 26.59s1.28 3.2 6 4.79c3.85 1.29 10.83 2 17.38 5.12a57.309 57.309 0 0 0-15.22-8.21 25.701 25.701 0 0 0-8.16-1.7zM90.48 43.17c-4.48-2-10.6-1.82-10.59-1.82a12.13 12.13 0 0 0 7.41 7.49c4.59 1.79 9.22 1.08 19.52 6.16-4.68-5.69-9.42-8.79-16.34-11.83zm-35.6 8.89C50.1 48.22 43 43.85 35.01 42.82c5.73 3.14 10.94 8.53 14.54 13.54 2.94 4.06 11.23 5.16 11.23 5.17s-1.75-6.15-5.9-9.47zm5.93-6.87c-5-4.27-10.53-10.14-17.7-11.06 5.17 2.79 9.17 10.35 12.89 15.66a14.4 14.4 0 0 0 9.48 5.57 14.273 14.273 0 0 0-4.67-10.17zm-.03 16.34a15 15 0 0 0 9.19 7.76c5.78 1.82 9.37 2.84 17.51 5.71-5.42-4.83-8.83-8.62-15-10.86a51.886 51.886 0 0 0-11.7-2.61z"/><path d="M65.48 55.36a17.09 17.09 0 0 0 9.71 7.29c4.57 1.44 11.38 1.23 18.83 4.18a42.267 42.267 0 0 0-16.37-10.32c-5.17-1.82-12.17-1.16-12.17-1.15zm12.26-23.68a29.609 29.609 0 0 0-15.68-10.87c3.92 2.9 6.46 8.6 9.33 13a22.892 22.892 0 0 0 8.54 7.57s.74-5.55-2.19-9.7zM67.69 38c-5-4.45-7.93-7.75-14.09-8.92 5.52 3.66 6.3 7.09 9.43 12.92 2.68 5.13 10.09 5.79 10.09 5.8a17.705 17.705 0 0 0-5.43-9.8zm5.43 9.81s1.53 5 8.46 7c4.8 1.43 11.51 2.18 19.19 5.66-5.25-4.47-11.8-8.86-17.08-10.75-6.75-2.39-10.57-1.91-10.57-1.91z"/><path d="M108.76 21.73c.09-.68-64.88 27.62-85.18 106.91l5.07 1.37c14.06-50.28 37.94-81.8 80.11-108.28z"/></g></svg></g><g transform="translate(386.0 757.0) rotate(33.19947415375186 76.0 75.5) scale(1.152388172858226 1.154610796757914)"><svg width="131.9" height="130.78" viewBox="0 0 131.9 130.78"><g fill="#013b84"><path d="M42.69 88.81a21.16 21.16 0 0 0 11.3 9.34c5.47 2 12.83 3.66 21 6.84-5.48-4.31-13.72-8.63-20.4-11.65a107.551 107.551 0 0 0-11.9-4.53zm-10.54-7.48c-7-3.35-15.69-6.4-21.46-5.39 6.2 1.39 13.13 5.56 18.56 9.56 3.31 2.41 13.44 3.29 13.44 3.31a35.937 35.937 0 0 0-10.54-7.48zm3.33-7.99c-6.92-3.33-15.4-5.66-20.48-5.44 5 1.57 13.71 5.32 18.37 11.13 3 3.71 12.93 2.63 12.94 2.64a33.908 33.908 0 0 0-10.83-8.33zm20.44-6.77a12.721 12.721 0 0 0 7.84 8.9c5.55 2.13 13.5 1.78 22.51 5.78-8.54-6.08-13.65-9.64-20.54-11.67-6.02-1.77-9.82-3.01-9.81-3.01z"/><path d="M46.27 81.67a13.64 13.64 0 0 0 7.78 8.84c5.62 2.28 14.26 3.4 23.74 7.09-5.49-4.52-14.14-9.33-20.69-12.54a43.397 43.397 0 0 0-10.83-3.39zm.14-25.03A40.092 40.092 0 0 0 27 47.43c4.73 1.51 9 8.2 14.06 13.51 4.09 4.3 14.85 5.61 14.86 5.63a62.495 62.495 0 0 0-9.51-9.93zm4.61 17.15s2.57 7.55 8 9.53c5.72 2.08 13.86 3.81 22.45 7.21A98.131 98.131 0 0 0 60.88 78.3c-4.92-2.22-9.86-4.52-9.86-4.51zm.92 25.95a66.161 66.161 0 0 0-13.2-4c.25 2.7 9.67 8.33 12.17 9a135.432 135.432 0 0 1 20.57 7.35C68.7 108 59.6 103.11 51.94 99.74zM1 101.65a83.546 83.546 0 0 1 18.48 4.55c5.56 2.07 13.68 1.08 13.69 1.08a42.9 42.9 0 0 0-11.75-4.71C14.59 101.05 6.24 100 1 101.65zm41.26 14.28a42.449 42.449 0 0 0-10.53-3.49 27.357 27.357 0 0 0 8.63 9.05c3.88 2.37 6.91.48 18.16 9.29-1.87-5.27-9.82-11.61-16.26-14.85zM27.62 87.71c-6.43-2.85-14.48-5.35-20.87-4.55A51.01 51.01 0 0 1 25.68 92c3.67 2.72 13.06 3.71 13.06 3.73a34.913 34.913 0 0 0-11.12-8.02zM0 109.49c7.22.83 12.37 3.6 18.09 4.15 3.56.31 13.63-1.22 13.64-1.2a41.938 41.938 0 0 0-12-3.19c-7.39-.81-16.5-1.72-19.73.24zm35.69-7s8.22 6.64 11.71 7.89c5.05 1.77 11.51 4.19 19.21 7.45-5.27-5.13-10.34-7.87-17.6-11.3a58.403 58.403 0 0 0-13.32-4.04z"/><path d="M1.37 93.2a78.927 78.927 0 0 1 19.92 5.67c3.53 1.52 14.41 3.59 14.4 3.62a38.38 38.38 0 0 0-11.81-7.34c-7.69-2.77-17.4-4.92-22.51-1.95zm43.93 17.97a47.452 47.452 0 0 0-12.18-3.89s5.41 5 10.48 7.18a185.963 185.963 0 0 1 21.13 10.23c-2.11-3.97-11.56-9.62-19.43-13.52zM19.86 58.19a50.704 50.704 0 0 1 18.21 11.36c2.91 2.72 12.95 4.22 12.95 4.24A83.412 83.412 0 0 0 40.96 66c-5.94-4-13.75-7.85-21.1-7.81zm73.41-39.06c-2.08-3.6-5.39-7.05-11.91-10.13 4.7 4.56 5.37 10.17 6.77 13.79 2.2 5.72 6.49 7.35 6.49 7.35s1.11-6.76-1.35-11.01zm-7.79 7.46a29.998 29.998 0 0 0-16.29-10.15 23.629 23.629 0 0 1 10.53 13c1.45 4.42 7.66 6.09 7.65 6.1s.92-5.68-1.89-8.95zm15.54-12.17c-.84-3.69-2.37-7.88-7.29-10.63 2.36 3.2 1.41 9.25 2.08 13.21 1.11 6.59 4.76 9.59 4.76 9.59s1.7-6.72.45-12.17zm-3.24 23.25a28.601 28.601 0 0 0-10.37-2.11s-.06 4.84 6.35 7c6 2 14.58 2.72 19.18 5.89a44.074 44.074 0 0 0-15.16-10.78zm4.95-6.09a23.38 23.38 0 0 0-8.11-1.44s1 3.42 5.92 5.48c4.12 1.72 10.4 2 16.48 5.8-3.75-4.7-9.08-7.86-14.29-9.84zm.45-6.58 4.46-2.57c8.67.21 24.19-11.08 24.26-11.05s-8.67 2.89-16.27 5.29c-7.09 2.24-8 5.59-8 5.58l-4.5 2.75a72.662 72.662 0 0 0 8.19 2.32c5.59.94 13.05.61 18.37 3.57-2.21-2.3-7.86-5.93-15-7s-11.05.86-11.51 1.11z"/><path d="M110.98 0c-.73 4.75-6 10.27-7.12 15.27a33.348 33.348 0 0 0-.73 9.76 50.001 50.001 0 0 0 6.77-11.78c1.58-4.11 1.45-7.83 1.08-13.25zm-10.41 26.59s1.28 3.2 6 4.79c3.85 1.29 10.83 2 17.38 5.12a57.309 57.309 0 0 0-15.22-8.21 25.701 25.701 0 0 0-8.16-1.7zM90.48 43.17c-4.48-2-10.6-1.82-10.59-1.82a12.13 12.13 0 0 0 7.41 7.49c4.59 1.79 9.22 1.08 19.52 6.16-4.68-5.69-9.42-8.79-16.34-11.83zm-35.6 8.89C50.1 48.22 43 43.85 35.01 42.82c5.73 3.14 10.94 8.53 14.54 13.54 2.94 4.06 11.23 5.16 11.23 5.17s-1.75-6.15-5.9-9.47zm5.93-6.87c-5-4.27-10.53-10.14-17.7-11.06 5.17 2.79 9.17 10.35 12.89 15.66a14.4 14.4 0 0 0 9.48 5.57 14.273 14.273 0 0 0-4.67-10.17zm-.03 16.34a15 15 0 0 0 9.19 7.76c5.78 1.82 9.37 2.84 17.51 5.71-5.42-4.83-8.83-8.62-15-10.86a51.886 51.886 0 0 0-11.7-2.61z"/><path d="M65.48 55.36a17.09 17.09 0 0 0 9.71 7.29c4.57 1.44 11.38 1.23 18.83 4.18a42.267 42.267 0 0 0-16.37-10.32c-5.17-1.82-12.17-1.16-12.17-1.15zm12.26-23.68a29.609 29.609 0 0 0-15.68-10.87c3.92 2.9 6.46 8.6 9.33 13a22.892 22.892 0 0 0 8.54 7.57s.74-5.55-2.19-9.7zM67.69 38c-5-4.45-7.93-7.75-14.09-8.92 5.52 3.66 6.3 7.09 9.43 12.92 2.68 5.13 10.09 5.79 10.09 5.8a17.705 17.705 0 0 0-5.43-9.8zm5.43 9.81s1.53 5 8.46 7c4.8 1.43 11.51 2.18 19.19 5.66-5.25-4.47-11.8-8.86-17.08-10.75-6.75-2.39-10.57-1.91-10.57-1.91z"/><path d="M108.76 21.73c.09-.68-64.88 27.62-85.18 106.91l5.07 1.37c14.06-50.28 37.94-81.8 80.11-108.28z"/></g></svg></g><g transform="translate(396.0 807.0) rotate(63.97520131423314 75.0 75.0) scale(1.1372251705837755 1.146964367640312)"><svg width="131.9" height="130.78" viewBox="0 0 131.9 130.78"><g fill="#013b84"><path d="M42.69 88.81a21.16 21.16 0 0 0 11.3 9.34c5.47 2 12.83 3.66 21 6.84-5.48-4.31-13.72-8.63-20.4-11.65a107.551 107.551 0 0 0-11.9-4.53zm-10.54-7.48c-7-3.35-15.69-6.4-21.46-5.39 6.2 1.39 13.13 5.56 18.56 9.56 3.31 2.41 13.44 3.29 13.44 3.31a35.937 35.937 0 0 0-10.54-7.48zm3.33-7.99c-6.92-3.33-15.4-5.66-20.48-5.44 5 1.57 13.71 5.32 18.37 11.13 3 3.71 12.93 2.63 12.94 2.64a33.908 33.908 0 0 0-10.83-8.33zm20.44-6.77a12.721 12.721 0 0 0 7.84 8.9c5.55 2.13 13.5 1.78 22.51 5.78-8.54-6.08-13.65-9.64-20.54-11.67-6.02-1.77-9.82-3.01-9.81-3.01z"/><path d="M46.27 81.67a13.64 13.64 0 0 0 7.78 8.84c5.62 2.28 14.26 3.4 23.74 7.09-5.49-4.52-14.14-9.33-20.69-12.54a43.397 43.397 0 0 0-10.83-3.39zm.14-25.03A40.092 40.092 0 0 0 27 47.43c4.73 1.51 9 8.2 14.06 13.51 4.09 4.3 14.85 5.61 14.86 5.63a62.495 62.495 0 0 0-9.51-9.93zm4.61 17.15s2.57 7.55 8 9.53c5.72 2.08 13.86 3.81 22.45 7.21A98.131 98.131 0 0 0 60.88 78.3c-4.92-2.22-9.86-4.52-9.86-4.51zm.92 25.95a66.161 66.161 0 0 0-13.2-4c.25 2.7 9.67 8.33 12.17 9a135.432 135.432 0 0 1 20.57 7.35C68.7 108 59.6 103.11 51.94 99.74zM1 101.65a83.546 83.546 0 0 1 18.48 4.55c5.56 2.07 13.68 1.08 13.69 1.08a42.9 42.9 0 0 0-11.75-4.71C14.59 101.05 6.24 100 1 101.65zm41.26 14.28a42.449 42.449 0 0 0-10.53-3.49 27.357 27.357 0 0 0 8.63 9.05c3.88 2.37 6.91.48 18.16 9.29-1.87-5.27-9.82-11.61-16.26-14.85zM27.62 87.71c-6.43-2.85-14.48-5.35-20.87-4.55A51.01 51.01 0 0 1 25.68 92c3.67 2.72 13.06 3.71 13.06 3.73a34.913 34.913 0 0 0-11.12-8.02zM0 109.49c7.22.83 12.37 3.6 18.09 4.15 3.56.31 13.63-1.22 13.64-1.2a41.938 41.938 0 0 0-12-3.19c-7.39-.81-16.5-1.72-19.73.24zm35.69-7s8.22 6.64 11.71 7.89c5.05 1.77 11.51 4.19 19.21 7.45-5.27-5.13-10.34-7.87-17.6-11.3a58.403 58.403 0 0 0-13.32-4.04z"/><path d="M1.37 93.2a78.927 78.927 0 0 1 19.92 5.67c3.53 1.52 14.41 3.59 14.4 3.62a38.38 38.38 0 0 0-11.81-7.34c-7.69-2.77-17.4-4.92-22.51-1.95zm43.93 17.97a47.452 47.452 0 0 0-12.18-3.89s5.41 5 10.48 7.18a185.963 185.963 0 0 1 21.13 10.23c-2.11-3.97-11.56-9.62-19.43-13.52zM19.86 58.19a50.704 50.704 0 0 1 18.21 11.36c2.91 2.72 12.95 4.22 12.95 4.24A83.412 83.412 0 0 0 40.96 66c-5.94-4-13.75-7.85-21.1-7.81zm73.41-39.06c-2.08-3.6-5.39-7.05-11.91-10.13 4.7 4.56 5.37 10.17 6.77 13.79 2.2 5.72 6.49 7.35 6.49 7.35s1.11-6.76-1.35-11.01zm-7.79 7.46a29.998 29.998 0 0 0-16.29-10.15 23.629 23.629 0 0 1 10.53 13c1.45 4.42 7.66 6.09 7.65 6.1s.92-5.68-1.89-8.95zm15.54-12.17c-.84-3.69-2.37-7.88-7.29-10.63 2.36 3.2 1.41 9.25 2.08 13.21 1.11 6.59 4.76 9.59 4.76 9.59s1.7-6.72.45-12.17zm-3.24 23.25a28.601 28.601 0 0 0-10.37-2.11s-.06 4.84 6.35 7c6 2 14.58 2.72 19.18 5.89a44.074 44.074 0 0 0-15.16-10.78zm4.95-6.09a23.38 23.38 0 0 0-8.11-1.44s1 3.42 5.92 5.48c4.12 1.72 10.4 2 16.48 5.8-3.75-4.7-9.08-7.86-14.29-9.84zm.45-6.58 4.46-2.57c8.67.21 24.19-11.08 24.26-11.05s-8.67 2.89-16.27 5.29c-7.09 2.24-8 5.59-8 5.58l-4.5 2.75a72.662 72.662 0 0 0 8.19 2.32c5.59.94 13.05.61 18.37 3.57-2.21-2.3-7.86-5.93-15-7s-11.05.86-11.51 1.11z"/><path d="M110.98 0c-.73 4.75-6 10.27-7.12 15.27a33.348 33.348 0 0 0-.73 9.76 50.001 50.001 0 0 0 6.77-11.78c1.58-4.11 1.45-7.83 1.08-13.25zm-10.41 26.59s1.28 3.2 6 4.79c3.85 1.29 10.83 2 17.38 5.12a57.309 57.309 0 0 0-15.22-8.21 25.701 25.701 0 0 0-8.16-1.7zM90.48 43.17c-4.48-2-10.6-1.82-10.59-1.82a12.13 12.13 0 0 0 7.41 7.49c4.59 1.79 9.22 1.08 19.52 6.16-4.68-5.69-9.42-8.79-16.34-11.83zm-35.6 8.89C50.1 48.22 43 43.85 35.01 42.82c5.73 3.14 10.94 8.53 14.54 13.54 2.94 4.06 11.23 5.16 11.23 5.17s-1.75-6.15-5.9-9.47zm5.93-6.87c-5-4.27-10.53-10.14-17.7-11.06 5.17 2.79 9.17 10.35 12.89 15.66a14.4 14.4 0 0 0 9.48 5.57 14.273 14.273 0 0 0-4.67-10.17zm-.03 16.34a15 15 0 0 0 9.19 7.76c5.78 1.82 9.37 2.84 17.51 5.71-5.42-4.83-8.83-8.62-15-10.86a51.886 51.886 0 0 0-11.7-2.61z"/><path d="M65.48 55.36a17.09 17.09 0 0 0 9.71 7.29c4.57 1.44 11.38 1.23 18.83 4.18a42.267 42.267 0 0 0-16.37-10.32c-5.17-1.82-12.17-1.16-12.17-1.15zm12.26-23.68a29.609 29.609 0 0 0-15.68-10.87c3.92 2.9 6.46 8.6 9.33 13a22.892 22.892 0 0 0 8.54 7.57s.74-5.55-2.19-9.7zM67.69 38c-5-4.45-7.93-7.75-14.09-8.92 5.52 3.66 6.3 7.09 9.43 12.92 2.68 5.13 10.09 5.79 10.09 5.8a17.705 17.705 0 0 0-5.43-9.8zm5.43 9.81s1.53 5 8.46 7c4.8 1.43 11.51 2.18 19.19 5.66-5.25-4.47-11.8-8.86-17.08-10.75-6.75-2.39-10.57-1.91-10.57-1.91z"/><path d="M108.76 21.73c.09-.68-64.88 27.62-85.18 106.91l5.07 1.37c14.06-50.28 37.94-81.8 80.11-108.28z"/></g></svg></g><g transform="translate(239.0 563.0) rotate(332.1890752405459 145.0 144.0) scale(2.1986353297952994 2.202171585869399)"><svg width="131.9" height="130.78" viewBox="0 0 131.9 130.78"><g fill="#013b84"><path d="M42.69 88.81a21.16 21.16 0 0 0 11.3 9.34c5.47 2 12.83 3.66 21 6.84-5.48-4.31-13.72-8.63-20.4-11.65a107.551 107.551 0 0 0-11.9-4.53zm-10.54-7.48c-7-3.35-15.69-6.4-21.46-5.39 6.2 1.39 13.13 5.56 18.56 9.56 3.31 2.41 13.44 3.29 13.44 3.31a35.937 35.937 0 0 0-10.54-7.48zm3.33-7.99c-6.92-3.33-15.4-5.66-20.48-5.44 5 1.57 13.71 5.32 18.37 11.13 3 3.71 12.93 2.63 12.94 2.64a33.908 33.908 0 0 0-10.83-8.33zm20.44-6.77a12.721 12.721 0 0 0 7.84 8.9c5.55 2.13 13.5 1.78 22.51 5.78-8.54-6.08-13.65-9.64-20.54-11.67-6.02-1.77-9.82-3.01-9.81-3.01z"/><path d="M46.27 81.67a13.64 13.64 0 0 0 7.78 8.84c5.62 2.28 14.26 3.4 23.74 7.09-5.49-4.52-14.14-9.33-20.69-12.54a43.397 43.397 0 0 0-10.83-3.39zm.14-25.03A40.092 40.092 0 0 0 27 47.43c4.73 1.51 9 8.2 14.06 13.51 4.09 4.3 14.85 5.61 14.86 5.63a62.495 62.495 0 0 0-9.51-9.93zm4.61 17.15s2.57 7.55 8 9.53c5.72 2.08 13.86 3.81 22.45 7.21A98.131 98.131 0 0 0 60.88 78.3c-4.92-2.22-9.86-4.52-9.86-4.51zm.92 25.95a66.161 66.161 0 0 0-13.2-4c.25 2.7 9.67 8.33 12.17 9a135.432 135.432 0 0 1 20.57 7.35C68.7 108 59.6 103.11 51.94 99.74zM1 101.65a83.546 83.546 0 0 1 18.48 4.55c5.56 2.07 13.68 1.08 13.69 1.08a42.9 42.9 0 0 0-11.75-4.71C14.59 101.05 6.24 100 1 101.65zm41.26 14.28a42.449 42.449 0 0 0-10.53-3.49 27.357 27.357 0 0 0 8.63 9.05c3.88 2.37 6.91.48 18.16 9.29-1.87-5.27-9.82-11.61-16.26-14.85zM27.62 87.71c-6.43-2.85-14.48-5.35-20.87-4.55A51.01 51.01 0 0 1 25.68 92c3.67 2.72 13.06 3.71 13.06 3.73a34.913 34.913 0 0 0-11.12-8.02zM0 109.49c7.22.83 12.37 3.6 18.09 4.15 3.56.31 13.63-1.22 13.64-1.2a41.938 41.938 0 0 0-12-3.19c-7.39-.81-16.5-1.72-19.73.24zm35.69-7s8.22 6.64 11.71 7.89c5.05 1.77 11.51 4.19 19.21 7.45-5.27-5.13-10.34-7.87-17.6-11.3a58.403 58.403 0 0 0-13.32-4.04z"/><path d="M1.37 93.2a78.927 78.927 0 0 1 19.92 5.67c3.53 1.52 14.41 3.59 14.4 3.62a38.38 38.38 0 0 0-11.81-7.34c-7.69-2.77-17.4-4.92-22.51-1.95zm43.93 17.97a47.452 47.452 0 0 0-12.18-3.89s5.41 5 10.48 7.18a185.963 185.963 0 0 1 21.13 10.23c-2.11-3.97-11.56-9.62-19.43-13.52zM19.86 58.19a50.704 50.704 0 0 1 18.21 11.36c2.91 2.72 12.95 4.22 12.95 4.24A83.412 83.412 0 0 0 40.96 66c-5.94-4-13.75-7.85-21.1-7.81zm73.41-39.06c-2.08-3.6-5.39-7.05-11.91-10.13 4.7 4.56 5.37 10.17 6.77 13.79 2.2 5.72 6.49 7.35 6.49 7.35s1.11-6.76-1.35-11.01zm-7.79 7.46a29.998 29.998 0 0 0-16.29-10.15 23.629 23.629 0 0 1 10.53 13c1.45 4.42 7.66 6.09 7.65 6.1s.92-5.68-1.89-8.95zm15.54-12.17c-.84-3.69-2.37-7.88-7.29-10.63 2.36 3.2 1.41 9.25 2.08 13.21 1.11 6.59 4.76 9.59 4.76 9.59s1.7-6.72.45-12.17zm-3.24 23.25a28.601 28.601 0 0 0-10.37-2.11s-.06 4.84 6.35 7c6 2 14.58 2.72 19.18 5.89a44.074 44.074 0 0 0-15.16-10.78zm4.95-6.09a23.38 23.38 0 0 0-8.11-1.44s1 3.42 5.92 5.48c4.12 1.72 10.4 2 16.48 5.8-3.75-4.7-9.08-7.86-14.29-9.84zm.45-6.58 4.46-2.57c8.67.21 24.19-11.08 24.26-11.05s-8.67 2.89-16.27 5.29c-7.09 2.24-8 5.59-8 5.58l-4.5 2.75a72.662 72.662 0 0 0 8.19 2.32c5.59.94 13.05.61 18.37 3.57-2.21-2.3-7.86-5.93-15-7s-11.05.86-11.51 1.11z"/><path d="M110.98 0c-.73 4.75-6 10.27-7.12 15.27a33.348 33.348 0 0 0-.73 9.76 50.001 50.001 0 0 0 6.77-11.78c1.58-4.11 1.45-7.83 1.08-13.25zm-10.41 26.59s1.28 3.2 6 4.79c3.85 1.29 10.83 2 17.38 5.12a57.309 57.309 0 0 0-15.22-8.21 25.701 25.701 0 0 0-8.16-1.7zM90.48 43.17c-4.48-2-10.6-1.82-10.59-1.82a12.13 12.13 0 0 0 7.41 7.49c4.59 1.79 9.22 1.08 19.52 6.16-4.68-5.69-9.42-8.79-16.34-11.83zm-35.6 8.89C50.1 48.22 43 43.85 35.01 42.82c5.73 3.14 10.94 8.53 14.54 13.54 2.94 4.06 11.23 5.16 11.23 5.17s-1.75-6.15-5.9-9.47zm5.93-6.87c-5-4.27-10.53-10.14-17.7-11.06 5.17 2.79 9.17 10.35 12.89 15.66a14.4 14.4 0 0 0 9.48 5.57 14.273 14.273 0 0 0-4.67-10.17zm-.03 16.34a15 15 0 0 0 9.19 7.76c5.78 1.82 9.37 2.84 17.51 5.71-5.42-4.83-8.83-8.62-15-10.86a51.886 51.886 0 0 0-11.7-2.61z"/><path d="M65.48 55.36a17.09 17.09 0 0 0 9.71 7.29c4.57 1.44 11.38 1.23 18.83 4.18a42.267 42.267 0 0 0-16.37-10.32c-5.17-1.82-12.17-1.16-12.17-1.15zm12.26-23.68a29.609 29.609 0 0 0-15.68-10.87c3.92 2.9 6.46 8.6 9.33 13a22.892 22.892 0 0 0 8.54 7.57s.74-5.55-2.19-9.7zM67.69 38c-5-4.45-7.93-7.75-14.09-8.92 5.52 3.66 6.3 7.09 9.43 12.92 2.68 5.13 10.09 5.79 10.09 5.8a17.705 17.705 0 0 0-5.43-9.8zm5.43 9.81s1.53 5 8.46 7c4.8 1.43 11.51 2.18 19.19 5.66-5.25-4.47-11.8-8.86-17.08-10.75-6.75-2.39-10.57-1.91-10.57-1.91z"/><path d="M108.76 21.73c.09-.68-64.88 27.62-85.18 106.91l5.07 1.37c14.06-50.28 37.94-81.8 80.11-108.28z"/></g></svg></g><g transform="translate(214.0 842.0) rotate(0.0 75.0 38.5) scale(1.745606889328523 1.75)"><svg width="85.93" height="44" viewBox="0 0 85.93 44"><path d="M83.4 38.88C71.67 25.71 57.72 13.36 41.51 6.05 33.84 2.59 25.39 0 17 0 10 0 0 1.28 0 9.91c0 5.7 9.56 8.79 14.14 10.58 7.53 2.93 18 4.8 25.86 6.82A189.246 189.246 0 0 1 81.37 44l4.56-2.22z" fill="#93c3ff"/><path d="M1.22 5.44C55.94 15.73 83 43.22 83 43.22l2.53-1.23C63.78 21.46 28.63 8 1.22 5.44z" fill="#d4e7ff"/></svg></g><g transform="translate(225.0 784.0) rotate(0.0 69.5 68.5) scale(1.8782260897765046 1.8767123287671232)"><svg width="74.006" height="73" viewBox="0 0 74.006 73"><path d="M24.006 31.67c18.43 10.67 27.32 17.08 41.36 41.33h8.64s-4.75-23.31-19.5-43.17C47.136 19.91 31.006 0 7.006 0c-2.58 0-4.41.53-5.53 1.5A4.36 4.36 0 0 0 .006 5c0 7 9.25 18.13 24 26.67z" fill="#93c3ff"/><path d="M2.006 1.05c18.31 7 33.58 21.61 46.21 36.81C60.006 52 69.006 73 69.006 73h4.85s-5.39-16.62-23.85-38c-12.34-14.3-29.47-27.61-48-33.95z" fill="#d4e7ff"/></svg></g><g transform="translate(262.0 557.0) rotate(0.0 56.0 168.0) scale(1.806364208183475 1.8064516129032258)"><svg width="62.003" height="186" viewBox="0 0 62.003 186"><path d="M62 148c-.1-19.74.83-148-44-148C4 0 0 10 0 23c0 41 51.22 122.9 55 163h6s1.07-30.06 1-38z" fill="#93c3ff"/><path d="M61 186C61 143 45.36 44.22 12.62.59 46.62 56.17 57 158.78 57 186z" fill="#d4e7ff"/></svg></g><g transform="translate(227.0 682.0) rotate(0.0 68.0 109.0) scale(1.679240390670338 1.6767167117893182)"><svg width="80.989" height="130.016" viewBox="0 0 80.989 130.016"><path d="M43.769 24.266c-15.86-20.59-27.56-25.56-35.84-24a13.28 13.28 0 0 0-4.31 1.52c-10.33 6.09 4.27 24.85 8.84 30.63 5.74 7.26 33.36 41.62 51.66 72.55a266.419 266.419 0 0 1 12.71 25.05h4.16c0-25.49-12-73-37.22-105.75z" fill="#93c3ff"/><path d="M3.619 1.766c27 22.6 47.63 53.69 62 85.76 8.12 18.14 12.94 42.49 12.94 42.49h2.43c-10-49.45-38.21-96.45-77.37-128.25z" fill="#d4e7ff"/></svg></g><g transform="translate(357.0 658.0) rotate(0.0 61.5 126.0) scale(2.1578190238938983 2.1534964407489383)"><svg width="57.002" height="117.019" viewBox="0 0 57.002 117.019"><path d="M53.55.749c-9.32-4.1-20 9.68-24.12 15.75-7.58 11.32-13 24.1-17.51 36.93C1.1 84.299 0 116.999 0 116.999h7s5.65-16.19 8.65-21.88c6.38-12.08 12.747-24.17 19.1-36.27 3.98-7.61 31.85-52.45 18.8-58.1z" fill="#93c3ff"/><path d="M5.38 116.999c8.88-41.25 22.76-79.08 47.31-116.56-30.08 34.85-47.62 94.24-51.38 116.58z" fill="#d4e7ff"/></svg></g><g transform="translate(356.0 790.0) rotate(0.0 63.0 62.0) scale(1.96875 1.968129007682052)"><svg width="64" height="63.004" viewBox="0 0 64 63.004"><path d="M54 .004c-21-.51-47.85 48.95-54 63h8s10.59-8.5 24-18c19.5-13.81 32-25 32-35 0-8-7.09-9.93-10-10z" fill="#93c3ff"/><path d="M2 63.004c13-28 41.42-48.59 59.35-59.93C44.42 16.414 19 37.004 6 63.004z" fill="#d4e7ff"/></svg></g><g transform="translate(332.0 871.0) rotate(0.0 50.0 34.5) scale(1.9227071716977504 1.9166666666666667)"><svg width="52.01" height="36" viewBox="0 0 52.01 36"><path d="M52.01 10.94C52.01 14 50.1 36 28.95 36h-5C14.95 36 0 29 0 23 0 15 15.74 0 37.92 0 48.9 0 52.01 7.88 52.01 10.94z" fill="#bedbff"/></svg></g><g transform="translate(274.0 908.0) rotate(0.0 52.5 20.0) scale(1.7211421827361244 1.7391304347826086)"><svg width="61.006" height="23" viewBox="0 0 61.006 23"><path d="M.005 11.18C.105 8 6.095 0 32.005 0c10 0 12.17 1.59 19 5 8 4 10 7.85 10 11 0 5-7.71 7-12 7-7.69 0-21-5-41.92-5-5.97 0-7.18-3.64-7.08-6.82z" fill="#d4e7ff"/></svg></g></svg>