<svg xmlns="http://www.w3.org/2000/svg" viewBox="0 0 800 600" width="800" height="600"><g transform="translate(134.0 23.0) rotate(0.0 54.0 128.5) scale(0.2724135843574066 0.2720017103298206)"><svg width="396.456" height="944.847" viewBox="0 0 396.456 944.847"><radialGradient id="a" cx="234.925" cy="206.847" gradientUnits="userSpaceOnUse" r="295.797"><stop offset="0" stop-color="#eee"/><stop offset="1" stop-color="#d6d7d8"/></radialGradient><path d="M191.083 247.852h12.001v696.994h-12.001z" fill="#a1c3fc"/><g fill="url(#a)"><path d="M199.275 1.743v241.126c0 1.807-2.412 2.42-3.274.831l-29.557-54.452a1.743 1.743 0 0 1-.19-1.104L195.811 1.471c.336-2.122 3.464-1.876 3.464.272z"/><path d="M393.692 382.231 196.173 243.927c-1.48-1.037-.599-3.364 1.197-3.159l61.558 7.02c.381.043.737.211 1.013.478L395.902 379.55c1.545 1.492-.451 3.913-2.21 2.681z"/><path d="m.76 378.986 197.519-138.304c1.48-1.037 3.366.588 2.559 2.205l-27.651 55.444a1.75 1.75 0 0 1-.795.789L2.524 381.98c-1.931.941-3.523-1.762-1.764-2.994z"/></g><circle cx="197.084" cy="241.359" fill="#d6d7d8" r="13.646"/></svg></g><g transform="translate(141.0 98.0) rotate(0.0 276.0 114.5) scale(0.8690135279587786 0.8690372281886836)"><svg width="635.203" height="263.51" viewBox="0 0 635.203 263.51"><path d="M456.801 263.01V134.13h-8.16V89.26h-80.56v44.87h-8.15v128.88h93.81" fill="#fff"/><path d="M456.801 263.51a.5.5 0 0 1-.5-.5V134.63h-7.66a.5.5 0 0 1-.5-.5V89.76h-79.56v44.37a.5.5 0 0 1-.5.5h-7.65v127.88h93.31a.5.5 0 0 1 0 1h-93.81a.5.5 0 0 1-.5-.5V134.13a.5.5 0 0 1 .5-.5h7.65V89.26a.5.5 0 0 1 .5-.5h80.56a.5.5 0 0 1 .5.5v44.37h7.66a.5.5 0 0 1 .5.5v128.88a.5.5 0 0 1-.5.5z" fill="#60657C"/><path d="M453.741 263.01V127.97h5.3l15.91-50.99h2.65l2.8-33.61 2.5 33.61h2.65l15.91 50.99h5.3v135.04h-49.96" fill="#fff"/><path d="M506.761 263.51h-49.96a.5.5 0 0 1 0-1h49.46V128.47h-4.8a.502.502 0 0 1-.478-.352l-15.801-50.639H482.9a.5.5 0 0 1-.499-.463l-2.029-27.285-2.273 27.29a.5.5 0 0 1-.498.458h-2.281l-15.801 50.639a.501.501 0 0 1-.478.352h-4.801v134.54a.5.5 0 0 1-1 0V127.97a.5.5 0 0 1 .5-.5h4.933l15.801-50.639a.501.501 0 0 1 .478-.352h2.189l2.762-33.151a.5.5 0 0 1 .498-.458h.002a.5.5 0 0 1 .497.463l2.465 33.146h2.187c.219 0 .412.143.478.352l15.801 50.639h4.932a.5.5 0 0 1 .5.5v135.04a.503.503 0 0 1-.502.5z" fill="#60657C"/><path d="M241.641 67.8v195.21h-109.11V42.31h73.42V67.8z" fill="#fff"/><path d="M241.641 263.51h-109.11a.5.5 0 0 1-.5-.5V42.31a.5.5 0 0 1 .5-.5h73.42a.5.5 0 0 1 .5.5V67.3h35.19a.5.5 0 0 1 .5.5v195.21a.5.5 0 0 1-.5.5zm-108.61-1h108.11V68.3h-35.19a.5.5 0 0 1-.5-.5V42.81h-72.42z" fill="#60657C"/><path d="M144.771 99.41v163.6H37.701v-74.88h23.45v-31.61l71.38-48.75z" fill="#fff"/><path d="M144.771 263.51H37.701a.5.5 0 0 1-.5-.5v-74.88a.5.5 0 0 1 .5-.5h22.95v-31.11c0-.165.082-.319.218-.413l83.62-57.11a.501.501 0 0 1 .783.413v163.6a.502.502 0 0 1-.501.5zm-106.57-1h106.07V100.356l-82.62 56.427v31.347a.5.5 0 0 1-.5.5h-22.95z" fill="#60657C"/><path d="M376.241 159.58v103.43h-106.05V159.58h16.32v-46.91h11.21V82.08h14.28L323.221.5l10.19 81.58h15.3v30.59h11.22v46.91z" fill="#fff"/><path d="M376.241 263.51h-106.05a.5.5 0 0 1-.5-.5V159.579a.5.5 0 0 1 .5-.5h15.82V112.67a.5.5 0 0 1 .5-.5h10.71V82.079a.5.5 0 0 1 .5-.5h13.844L322.726.432a.5.5 0 0 1 .495-.432h.003a.5.5 0 0 1 .493.438l10.135 81.141h14.859a.5.5 0 0 1 .5.5v30.091h10.72a.5.5 0 0 1 .5.5v46.409h15.81a.5.5 0 0 1 .5.5V263.01a.5.5 0 0 1-.5.5zm-105.55-1h105.05V160.079h-15.81a.5.5 0 0 1-.5-.5V113.17h-10.72a.5.5 0 0 1-.5-.5V82.579h-14.8a.5.5 0 0 1-.496-.438l-9.718-77.798-10.701 77.805a.5.5 0 0 1-.495.432h-13.78v30.091a.5.5 0 0 1-.5.5h-10.71v46.409a.5.5 0 0 1-.5.5h-15.82z" fill="#60657C"/><path d="M196.771 104.51h80.56v158.5h-80.56z" fill="#fff"/><path d="M277.331 263.51h-80.56a.5.5 0 0 1-.5-.5v-158.5a.5.5 0 0 1 .5-.5h80.56a.5.5 0 0 1 .5.5v158.5a.5.5 0 0 1-.5.5zm-80.06-1h79.56v-157.5h-79.56z" fill="#60657C"/><path d="M95.971 166.72h9.17v96.29h-9.17z" fill="#fff"/><path d="M105.141 263.51h-9.17a.5.5 0 0 1-.5-.5v-96.29a.5.5 0 0 1 .5-.5h9.17a.5.5 0 0 1 .5.5v96.29a.5.5 0 0 1-.5.5zm-8.67-1h8.17v-95.29h-8.17z" fill="#60657C"/><path d="M75.571 166.72h9.18v96.29h-9.18z" fill="#fff"/><path d="M84.751 263.51h-9.18a.5.5 0 0 1-.5-.5v-96.29a.5.5 0 0 1 .5-.5h9.18a.5.5 0 0 1 .5.5v96.29a.5.5 0 0 1-.5.5zm-8.68-1h8.18v-95.29h-8.18z" fill="#60657C"/><path d="M116.361 166.72h9.18v96.29h-9.18z" fill="#fff"/><path d="M125.541 263.51h-9.18a.5.5 0 0 1-.5-.5v-96.29a.5.5 0 0 1 .5-.5h9.18a.5.5 0 0 1 .5.5v96.29a.5.5 0 0 1-.5.5zm-8.68-1h8.18v-95.29h-8.18z" fill="#60657C"/><path d="M590.381 263.01h9.18V155.48h-14.28v-17.34l-35.57-14.23-34.79 14.23v17.34h-14.27v107.53h10.19" fill="#fff"/><path d="M599.561 263.51h-9.18a.5.5 0 0 1 0-1h8.68V155.98h-13.78a.5.5 0 0 1-.5-.5v-17.001l-35.067-14.029-34.292 14.026v17.004a.5.5 0 0 1-.5.5h-13.771v106.53h9.69a.5.5 0 0 1 0 1h-10.19a.5.5 0 0 1-.5-.5V155.48a.5.5 0 0 1 .5-.5h13.771v-16.84a.5.5 0 0 1 .311-.463l34.79-14.229a.497.497 0 0 1 .375-.001l35.569 14.229c.19.075.314.26.314.464v16.84h13.78a.5.5 0 0 1 .5.5v107.53a.5.5 0 0 1-.5.5z" fill="#60657C"/><path d="M510.845 167.653h79.538v5.099h-79.538z" fill="#fff"/><path d="M590.383 173.252h-79.538a.5.5 0 0 1-.5-.5v-5.099a.5.5 0 0 1 .5-.5h79.538a.5.5 0 0 1 .5.5v5.099a.5.5 0 0 1-.5.5zm-79.038-1h78.538v-4.099h-78.538z" fill="#60657C"/><path d="M510.845 177.851h79.538v5.099h-79.538z" fill="#fff"/><path d="M590.383 183.449h-79.538a.5.5 0 0 1-.5-.5v-5.099a.5.5 0 0 1 .5-.5h79.538a.5.5 0 0 1 .5.5v5.099c0 .277-.223.5-.5.5zm-79.038-1h78.538v-4.099h-78.538z" fill="#60657C"/><path d="M510.845 188.048h79.538v5.099h-79.538z" fill="#fff"/><path d="M590.383 193.646h-79.538a.5.5 0 0 1-.5-.5v-5.099a.5.5 0 0 1 .5-.5h79.538a.5.5 0 0 1 .5.5v5.099c0 .277-.223.5-.5.5zm-79.038-1h78.538v-4.099h-78.538z" fill="#60657C"/><path d="M510.845 198.245h79.538v5.099h-79.538z" fill="#fff"/><path d="M590.383 203.844h-79.538a.5.5 0 0 1-.5-.5v-5.099a.5.5 0 0 1 .5-.5h79.538a.5.5 0 0 1 .5.5v5.099a.5.5 0 0 1-.5.5zm-79.038-1h78.538v-4.099h-78.538z" fill="#60657C"/><path d="M510.845 208.441h79.538v5.099h-79.538z" fill="#fff"/><path d="M590.383 214.04h-79.538a.5.5 0 0 1-.5-.5v-5.099a.5.5 0 0 1 .5-.5h79.538a.5.5 0 0 1 .5.5v5.099a.5.5 0 0 1-.5.5zm-79.038-1h78.538v-4.099h-78.538z" fill="#60657C"/><path d="M510.845 218.638h79.538v5.099h-79.538z" fill="#fff"/><path d="M590.383 224.237h-79.538a.5.5 0 0 1-.5-.5v-5.099a.5.5 0 0 1 .5-.5h79.538a.5.5 0 0 1 .5.5v5.099c0 .277-.223.5-.5.5zm-79.038-1h78.538v-4.099h-78.538z" fill="#60657C"/><path d="M510.845 228.835h79.538v5.099h-79.538z" fill="#fff"/><path d="M590.383 234.434h-79.538a.5.5 0 0 1-.5-.5v-5.099a.5.5 0 0 1 .5-.5h79.538a.5.5 0 0 1 .5.5v5.099a.5.5 0 0 1-.5.5zm-79.038-1h78.538v-4.099h-78.538z" fill="#60657C"/><path d="M510.845 239.033h79.538v5.099h-79.538z" fill="#fff"/><path d="M590.383 244.631h-79.538a.5.5 0 0 1-.5-.5v-5.099a.5.5 0 0 1 .5-.5h79.538a.5.5 0 0 1 .5.5v5.099a.5.5 0 0 1-.5.5zm-79.038-1h78.538v-4.099h-78.538z" fill="#60657C"/><path d="M510.845 249.23h79.538v5.099h-79.538z" fill="#fff"/><path d="M590.383 254.828h-79.538a.5.5 0 0 1-.5-.5v-5.099a.5.5 0 0 1 .5-.5h79.538a.5.5 0 0 1 .5.5v5.099a.5.5 0 0 1-.5.5zm-79.038-1h78.538v-4.099h-78.538z" fill="#60657C"/><path d="M590.381 263.01v-3.58h-79.54v3.58" fill="#fff"/><path d="M590.381 263.51a.5.5 0 0 1-.5-.5v-3.08h-78.54v3.08a.5.5 0 0 1-1 0v-3.58a.5.5 0 0 1 .5-.5h79.54a.5.5 0 0 1 .5.5v3.58a.5.5 0 0 1-.5.5z" fill="#60657C"/><path d="M456.801 263.01h-3.06" fill="#fff"/><path d="M453.741 262.51h3.061v1h-3.061z" fill="#60657C"/><path d="M0 263.01h635.203" fill="#fff"/><path d="M0 262.51h635.203v1H0z" fill="#60657C"/></svg></g><g transform="translate(31.0 33.0) rotate(0.0 88.0 210.0) translate(0.0 0.0) scale(0.4439332485824404 0.4445164137685784)"><svg width="396.456" height="800.87" viewBox="0 0 396.456 800.87"><radialGradient id="b" cx="234.925" cy="206.847" gradientUnits="userSpaceOnUse" r="295.797"><stop offset="0" stop-color="#eee"/><stop offset="1" stop-color="#d6d7d8"/></radialGradient><path d="M191.083 247.852h12.001v696.994h-12.001z" fill="#a1c3fc"/><g fill="url(#b)"><path d="M199.275 1.743v241.126c0 1.807-2.412 2.42-3.274.831l-29.557-54.452a1.743 1.743 0 0 1-.19-1.104L195.811 1.471c.336-2.122 3.464-1.876 3.464.272z"/><path d="M393.692 382.231 196.173 243.927c-1.48-1.037-.599-3.364 1.197-3.159l61.558 7.02c.381.043.737.211 1.013.478L395.902 379.55c1.545 1.492-.451 3.913-2.21 2.681z"/><path d="m.76 378.986 197.519-138.304c1.48-1.037 3.366.588 2.559 2.205l-27.651 55.444a1.75 1.75 0 0 1-.795.789L2.524 381.98c-1.931.941-3.523-1.762-1.764-2.994z"/></g><circle cx="197.084" cy="241.359" fill="#d6d7d8" r="13.646"/></svg></g><g transform="translate(33.0 218.0) rotate(0.0 282.5 117.5) translate(0.0 0.0) scale(0.8308053812661474 0.8301833468753312)"><svg width="441.74" height="283.07" viewBox="0 0 441.74 283.07"><g><path d="M260.565 205.29c21.43-2.1 40.8-16.2 48.55-37.8 7.54-20.98 2.16-43.74-12.47-59.1-4.4-4.63-9.65-8.59-15.64-11.63 13.62-28.69 1.41-62.98-27.27-76.61-28.69-13.62-62.99-1.41-76.61 27.27a57.523 57.523 0 0 0-3.51 9.46 57.122 57.122 0 0 0-2.05 15.19c0 1.64.09 3.27.22 4.88-28.78 13.39-41.25 47.57-27.86 76.35 1.95 4.2 4.41 8.16 7.32 11.77-3.09 17.06 4.59 33.58 18.2 42.56 7.21-.21 14.57 1.48 21.31 5.29a41.467 41.467 0 0 1 35.85-23.29c.82-.03 1.64-.03 2.46-.02 11.66.27 22.2 5.38 29.6 13.46" fill="#fff"/><path d="M190.755 213.419a.499.499 0 0 1-.246-.064 40.377 40.377 0 0 0-21.049-5.226.552.552 0 0 1-.29-.083 42.46 42.46 0 0 1-18.457-42.841 57.61 57.61 0 0 1-7.241-11.694c-6.532-14.041-7.207-29.784-1.9-44.329 5.268-14.437 15.804-25.979 29.688-32.538a59.101 59.101 0 0 1-.194-4.574 57.64 57.64 0 0 1 2.068-15.323 58.186 58.186 0 0 1 3.54-9.542c13.718-28.884 48.383-41.221 77.276-27.507 28.733 13.656 41.094 48.041 27.713 76.838a57.704 57.704 0 0 1 15.344 11.51c15.228 15.987 20.048 38.83 12.579 59.613-7.53 20.985-26.752 35.951-48.972 38.129-.275.019-.52-.175-.546-.449s.174-.52.449-.547c21.837-2.139 40.729-16.848 48.128-37.471 7.341-20.426 2.604-42.874-12.361-58.586a56.76 56.76 0 0 0-15.504-11.528.501.501 0 0 1-.226-.661c13.476-28.387 1.349-62.456-27.033-75.944-28.396-13.479-62.463-1.353-75.944 27.033a57.205 57.205 0 0 0-3.479 9.378 56.655 56.655 0 0 0-2.032 15.058c0 1.457.069 2.995.218 4.84a.499.499 0 0 1-.288.493c-13.798 6.42-24.269 17.827-29.485 32.122-5.216 14.294-4.552 29.766 1.867 43.564a56.568 56.568 0 0 0 7.256 11.667c.091.112.129.26.103.402a41.464 41.464 0 0 0 17.853 41.967 41.36 41.36 0 0 1 20.95 5.102 41.88 41.88 0 0 1 36.048-23.098c.827-.028 1.655-.03 2.483-.02 11.355.263 22.274 5.228 29.962 13.622a.5.5 0 1 1-.738.676c-7.505-8.195-18.164-13.042-29.243-13.298-.805-.01-1.618-.01-2.431.02a40.88 40.88 0 0 0-35.418 23.009.502.502 0 0 1-.448.28z" fill="#60657C"/></g><g><path d="M508.305 180.49c-7.22 9.75-17.51 15.91-28.54 18.12-7.96 1.59-16.31 1.14-24.18-1.52-4.56-1.51-8.95-3.77-13.02-6.78v25.67c-4.6-.7-9.36-.53-14 .59v-24.45a54.5 54.5 0 0 1-10.36 4.67 54.414 54.414 0 0 1-10.63 2.38c-20.22 2.44-40.1-6.72-51.47-23.35-2.81-4.12-5.11-8.7-6.75-13.67-7.14-21.61-.02-44.49 16.23-58.46 5.24-4.51 11.44-8.08 18.41-10.39 6.03-1.97 9.98-7.75 9.63-14.09-.08-.87-.08-1.75-.08-2.64-.55-24.3 18.7-44.45 43-45s44.45 18.7 45 43v3.26c-.22 8.1 1.82 15.95 5.62 22.91 3.13 5.75 7.47 10.9 12.72 15.09 19.73 15.79 23.45 44.35 8.42 64.66z" fill="#fff"/><path d="M428.565 217.07a.5.5 0 0 1-.5-.5v-23.588a55.016 55.016 0 0 1-9.704 4.282 54.968 54.968 0 0 1-17.27 2.795h-.003a54.96 54.96 0 0 1-45.396-23.957 55.118 55.118 0 0 1-6.812-13.796c-7.021-21.249-.592-44.406 16.378-58.995 5.425-4.67 11.676-8.198 18.579-10.485 5.806-1.897 9.625-7.484 9.288-13.588-.081-.876-.081-1.787-.081-2.668-.555-24.528 18.954-44.944 43.489-45.5 24.458-.537 44.961 19.162 45.511 43.488v3.271c-.211 7.788 1.711 15.623 5.559 22.671 3.078 5.655 7.433 10.82 12.593 14.938a47.357 47.357 0 0 1 8.51 65.349 47.424 47.424 0 0 1-28.844 18.313c-8.154 1.628-16.647 1.097-24.438-1.537a46.822 46.822 0 0 1-12.359-6.273v24.69a.497.497 0 0 1-.575.494 36.018 36.018 0 0 0-13.808.582.513.513 0 0 1-.117.014zm0-25.45a.502.502 0 0 1 .5.5v23.821a37.027 37.027 0 0 1 13-.538V190.31a.5.5 0 0 1 .797-.402c3.968 2.935 8.301 5.191 12.879 6.707 7.629 2.579 15.942 3.099 23.925 1.505a46.424 46.424 0 0 0 28.236-17.928 46.359 46.359 0 0 0-8.331-63.972c-5.263-4.2-9.706-9.471-12.847-15.241-3.932-7.202-5.896-15.212-5.681-23.163V74.57c-.538-23.769-20.591-43.087-44.489-42.5-23.983.543-43.054 20.5-42.511 44.488 0 .91 0 1.759.078 2.606.363 6.573-3.738 12.573-9.973 14.611-6.776 2.245-12.913 5.708-18.239 10.293-16.662 14.324-22.974 37.061-16.081 57.924a54.107 54.107 0 0 0 6.688 13.545 53.963 53.963 0 0 0 44.57 23.521h.003a53.855 53.855 0 0 0 16.955-2.744 54.189 54.189 0 0 0 10.267-4.627.516.516 0 0 1 .254-.067z" fill="#60657C"/></g><g><path d="M229.065 189.61c-.82-.01-1.64-.01-2.46.02a41.467 41.467 0 0 0-35.85 23.29c-6.74-3.81-14.1-5.5-21.31-5.29-7.75.22-15.32 2.63-21.78 6.99a40.597 40.597 0 0 0-12.78 13.82 40.855 40.855 0 0 0-4.73 13.33c-.86-.13-1.72-.19-2.59-.2-4.83 0-9.48 1.83-13 5.13-5.04-12.93-18.48-20.09-31.63-17.69-2.21-7.09-3.4-14.63-3.43-22.44 0-18.76 15.23-57.78 32.06-95.16 20.78-46.16 44-89.84 44-89.84s7.63 14.36 18.05 35.31c18.9 37.99 46.98 97.67 55.45 132.73z" fill="#fff"/><path d="M114.565 247.2a.497.497 0 0 1-.465-.319c-4.223-10.832-14.462-17.831-26.088-17.831-1.668 0-3.346.151-4.987.451a.507.507 0 0 1-.567-.344c-2.261-7.254-3.423-14.854-3.452-22.586 0-15.968 10.801-48.054 32.104-95.367 20.549-45.647 43.782-89.433 44.015-89.869a.5.5 0 0 1 .882 0c.077.144 7.752 14.604 18.056 35.322 16.966 34.103 46.711 96.652 55.457 132.705a.49.49 0 0 1 .065.247c0 .279-.205.51-.51.5h-.017a43.917 43.917 0 0 0-2.435.021 40.875 40.875 0 0 0-35.419 23.008.502.502 0 0 1-.696.217 40.52 40.52 0 0 0-21.049-5.225 40.432 40.432 0 0 0-21.515 6.903c-5.25 3.518-9.497 8.11-12.624 13.652a40.202 40.202 0 0 0-4.672 13.167.497.497 0 0 1-.568.411 17.925 17.925 0 0 0-2.521-.194 18.427 18.427 0 0 0-12.652 4.995.498.498 0 0 1-.342.136zm-26.554-19.15c11.799 0 22.221 6.961 26.75 17.799a19.434 19.434 0 0 1 12.804-4.779c.768.009 1.485.055 2.18.14a41.175 41.175 0 0 1 4.705-13.016c3.205-5.679 7.557-10.386 12.937-13.989a41.421 41.421 0 0 1 22.044-7.074 41.6 41.6 0 0 1 21.109 5.097 41.876 41.876 0 0 1 36.048-23.097 48.912 48.912 0 0 1 1.839-.026c-8.872-36.032-38.389-98.091-55.26-132.001-8.895-17.884-15.829-31.102-17.602-34.464-3.312 6.278-24.573 46.834-43.544 88.976-21.245 47.184-32.016 79.132-32.016 94.955.028 7.482 1.131 14.839 3.278 21.871a28.711 28.711 0 0 1 4.728-.392z" fill="#60657C"/></g><g><path d="M260.565 205.29a41.278 41.278 0 0 1 8.97 24.36c8.2-4.84 17.97-6.27 27.22-4a36.492 36.492 0 0 1 28.52-23.57c5.42-.87 10.76-.5 15.72.91 13.24 3.74 23.8 14.85 26.12 29.34a36.46 36.46 0 0 1 29.22-2.95c.78-.9 1.53-1.84 2.24-2.81a46.537 46.537 0 0 0 9-27.4c.02-5.94-1.1-11.92-3.41-17.6-.58-1.44-.45-3.07.34-4.41a43.106 43.106 0 0 0 5.96-19.18c.9-13.38-4.36-25.76-13.35-34.37a43.304 43.304 0 0 0-27.12-11.94c-1-.07-1.95-.1-2.93-.1s-1.78-.8-1.78-1.78v-.22c.27-1.98.37-3.95.3-5.88-.52-16.48-12.86-30.68-29.75-33.02-18.69-2.58-35.98 10.32-38.83 28.97l-.09.65c-.1.69-.17 1.37-.22 2.06-.12 1.54-.14 3.09-.06 4.63.03.47.03.94.01 1.41-.2 6.59-4.32 12.5-10.55 14.92-20.83 8.21-34.26 28.62-33.54 51a52.38 52.38 0 0 0 7.76 25.8c-.6.97-1.15 1.96-1.65 2.96" fill="#fff"/><path d="M367.115 232.83a.503.503 0 0 1-.494-.421c-2.207-13.781-12.319-25.14-25.762-28.938-5.052-1.437-10.268-1.741-15.505-.897a36.012 36.012 0 0 0-28.129 23.247.5.5 0 0 1-.589.314c-9.182-2.252-18.717-.854-26.847 3.945a.498.498 0 0 1-.753-.413c-.307-8.845-3.371-17.167-8.861-24.066a.5.5 0 0 1 .783-.623c5.454 6.854 8.571 15.076 9.042 23.828 8.066-4.524 17.407-5.851 26.442-3.746a37.016 37.016 0 0 1 28.756-23.475c5.382-.862 10.744-.553 15.936.924 13.588 3.838 23.865 15.194 26.358 29.042a37.07 37.07 0 0 1 28.682-2.749 43.66 43.66 0 0 0 2-2.527c5.794-7.9 8.873-17.273 8.903-27.107a45.573 45.573 0 0 0-3.374-17.409 5.54 5.54 0 0 1 .373-4.853 42.795 42.795 0 0 0 5.892-18.959c.857-12.738-3.953-25.122-13.197-33.976a43.016 43.016 0 0 0-29.704-11.902 2.282 2.282 0 0 1-2.28-2.28v-.22c.27-2.014.369-3.963.3-5.861-.522-16.576-12.853-30.262-29.319-32.544-18.307-2.527-35.475 10.28-38.267 28.551l-.089.644a28.26 28.26 0 0 0-.216 2.027 35.345 35.345 0 0 0-.059 4.567c.029.455.032.934.01 1.458a17.013 17.013 0 0 1-10.868 15.364c-20.581 8.112-33.933 28.414-33.222 50.519a51.972 51.972 0 0 0 7.687 25.554.5.5 0 0 1 0 .524 36.985 36.985 0 0 0-1.628 2.921.5.5 0 0 1-.895-.447 37.91 37.91 0 0 1 1.511-2.736 52.963 52.963 0 0 1-7.673-25.784c-.725-22.524 12.881-43.214 33.856-51.48a16.02 16.02 0 0 0 10.233-14.471c.021-.494.018-.938-.009-1.363a36.126 36.126 0 0 1 .061-4.7c.053-.732.126-1.418.223-2.093l.09-.647c2.874-18.813 20.54-32.003 39.393-29.396 16.951 2.349 29.644 16.438 30.181 33.5a34.904 34.904 0 0 1-.304 5.963l.004.152c0 .706.574 1.28 1.28 1.28a44.023 44.023 0 0 1 30.395 12.179c9.458 9.06 14.38 21.73 13.503 34.765a43.794 43.794 0 0 1-6.029 19.402 4.53 4.53 0 0 0-.306 3.968 46.57 46.57 0 0 1 3.446 17.788c-.031 10.047-3.176 19.623-9.097 27.694a44.292 44.292 0 0 1-2.266 2.842.496.496 0 0 1-.532.147 36.056 36.056 0 0 0-28.819 2.91.517.517 0 0 1-.247.064z" fill="#60657C"/></g><g><path d="M617.565 195.57c0 3.23-.19 6.41-.57 9.54a36.784 36.784 0 0 0-24.21-14.23c-7.25-1.03-14.3.11-20.5 2.94-11.12 5.05-19.5 15.49-21.35 28.47-.25 1.75-.37 3.51-.37 5.28 0 3.03.37 6.06 1.1 9-6.93-14.14-24.01-19.99-38.15-13.06a28.516 28.516 0 0 0-14.73 17.31c-1.51.46-2.98 1.05-4.39 1.75a19.97 19.97 0 0 0-7.86-8.28c-5.37-3.09-12.09-3.64-18.14-.93a35.98 35.98 0 0 0-7.46-8.91 79.608 79.608 0 0 1-5.35-27.36c-.02-.5-.02-1.01-.02-1.52 0-7.15 2.09-17.03 5.6-28.59 5.8-19.11 15.47-42.79 26-66.24C509.895 50.08 536.565.5 536.565.5s33.79 62.81 57.73 119.28c13.11 30.97 23.27 60.02 23.27 75.79z" fill="#fff"/><path d="M494.396 243.07a.502.502 0 0 1-.446-.272 19.462 19.462 0 0 0-7.664-8.074 19.573 19.573 0 0 0-9.749-2.608c-2.746 0-5.417.572-7.937 1.701a.496.496 0 0 1-.634-.2 35.461 35.461 0 0 0-7.357-8.787.502.502 0 0 1-.14-.198 80.012 80.012 0 0 1-5.384-27.532c-.02-.496-.02-1.012-.02-1.528 0-6.782 1.891-16.45 5.621-28.735 5.188-17.092 13.943-39.398 26.022-66.3C509.186 50.44 535.857.761 536.124.265c.175-.322.706-.324.881 0 .338.629 34.075 63.478 57.75 119.322 15.467 36.538 23.31 62.104 23.31 75.985 0 3.232-.193 6.462-.574 9.601a.5.5 0 0 1-.895.241c-5.827-7.687-14.309-12.672-23.882-14.036a36.964 36.964 0 0 0-5.191-.369c-5.222 0-10.279 1.1-15.03 3.269-11.421 5.187-19.295 15.686-21.063 28.085a36.96 36.96 0 0 0-.365 5.21c0 2.993.365 5.98 1.085 8.88a.5.5 0 0 1-.935.34c-4.744-9.681-14.392-15.695-25.178-15.695-4.286 0-8.425.964-12.302 2.864a28.113 28.113 0 0 0-14.472 17.007.502.502 0 0 1-.333.333 28.027 28.027 0 0 0-4.313 1.72.557.557 0 0 1-.221.048zm-17.859-11.955c3.586 0 7.13.948 10.248 2.741a20.438 20.438 0 0 1 7.828 8.052 29.113 29.113 0 0 1 3.772-1.487 29.118 29.118 0 0 1 14.91-17.36 28.725 28.725 0 0 1 12.743-2.966c10.083 0 19.205 5.074 24.5 13.436a37.976 37.976 0 0 1-.472-5.96c0-1.811.126-3.61.375-5.351 1.816-12.739 9.905-23.526 21.639-28.854a36.929 36.929 0 0 1 15.444-3.358c1.771 0 3.565.128 5.333.379 9.429 1.344 17.827 6.106 23.78 13.455.285-2.716.43-5.492.43-8.271 0-13.748-7.816-39.182-23.231-75.595C571.65 67.646 540.621 9.157 536.565 1.559c-3.57 6.687-28.068 52.857-48.944 99.386-12.062 26.862-20.802 49.129-25.978 66.181-3.701 12.19-5.578 21.761-5.578 28.444 0 .503 0 1.007.019 1.5a79.003 79.003 0 0 0 5.272 27.083 36.465 36.465 0 0 1 7.241 8.573 20.288 20.288 0 0 1 7.94-1.611z" fill="#60657C"/></g><g><path d="M658.565 223.85c0 12.49-2.48 22.92-6.78 31.21-2.92-1.5-6.03-2.7-9.31-3.49-.94-9.78-8.53-17.61-18.28-18.84 1.45-10.2-1.4-20.02-7.2-27.62a36.784 36.784 0 0 0-24.21-14.23c-7.25-1.03-14.3.11-20.5 2.94 5.21-22.16 13.95-50.04 22.01-74.04 9.91-29.53 18.77-53.21 18.77-53.21s45.5 121.48 45.5 157.28z" fill="#fff"/><path d="M651.784 255.56a.492.492 0 0 1-.228-.056c-2.999-1.54-6.094-2.7-9.199-3.448a.5.5 0 0 1-.38-.438c-.925-9.619-8.263-17.183-17.845-18.392a.504.504 0 0 1-.433-.566c1.386-9.751-1.136-19.428-7.103-27.246-5.828-7.688-14.31-12.674-23.883-14.038a36.968 36.968 0 0 0-5.192-.369c-5.222 0-10.279 1.1-15.03 3.269a.497.497 0 0 1-.524-.068.502.502 0 0 1-.17-.501c4.425-18.819 11.834-43.745 22.022-74.085 9.8-29.2 18.688-52.989 18.776-53.226.146-.391.79-.392.937-.001.455 1.216 45.532 121.977 45.532 157.455 0 12.117-2.3 22.695-6.836 31.441a.5.5 0 0 1-.444.269zm-8.848-4.392a42.346 42.346 0 0 1 8.631 3.221c4.312-8.517 6.498-18.789 6.498-30.54 0-33.35-40.178-142.828-45-155.844-1.959 5.287-9.784 26.567-18.296 51.934-10.003 29.789-17.324 54.346-21.766 73.019a36.914 36.914 0 0 1 14.52-2.951c1.771 0 3.565.128 5.333.379 9.836 1.402 18.551 6.524 24.538 14.423 6.028 7.899 8.634 17.646 7.364 27.495 9.686 1.446 17.083 9.112 18.178 18.864z" fill="#60657C"/></g><g><path d="M147.665 214.62a40.597 40.597 0 0 0-12.78 13.82 40.855 40.855 0 0 0-4.73 13.33c-.86-.13-1.72-.19-2.59-.2-4.83 0-9.48 1.83-13 5.13-5.04-12.93-18.48-20.09-31.63-17.69a28.5 28.5 0 0 0-22.8 22.2c-3.02-.43-6.06-.64-9.11-.64-1.39 0-2.76.08-4.11.24a55.458 55.458 0 0 1-42.54-34.4c-11.23-28.52 2.78-60.75 31.3-71.98a3.007 3.007 0 0 0 1.86-2.92v-1.44c-.08-23.03 18.19-41.93 41.21-42.63 12.97-.4 24.76 5.05 32.82 13.97a42.34 42.34 0 0 1 10.97 27.22c.06 1.9-.01 3.81-.19 5.7a30.696 30.696 0 0 0 10.22 26.38 46.045 46.045 0 0 1 15.1 43.91z" fill="#fff"/><path d="M60.135 251.71a.578.578 0 0 1-.071-.005 64.218 64.218 0 0 0-9.039-.636c-1.364 0-2.727.08-4.051.236a.418.418 0 0 1-.141-.003c-19.306-3.195-35.753-16.496-42.924-34.71-11.314-28.735 2.853-61.316 31.583-72.629a2.504 2.504 0 0 0 1.543-2.432v-1.463c-.082-23.471 18.233-42.416 41.695-43.13a43.017 43.017 0 0 1 44.306 41.675 45.848 45.848 0 0 1-.192 5.763 30.242 30.242 0 0 0 10.053 25.958c9.565 8.238 15.434 20.201 16.099 32.817.2 3.913-.083 7.804-.839 11.565a.497.497 0 0 1-.212.316c-5.248 3.517-9.495 8.109-12.623 13.651a40.202 40.202 0 0 0-4.672 13.167.497.497 0 0 1-.568.411 17.925 17.925 0 0 0-2.521-.194 18.427 18.427 0 0 0-12.652 4.995.496.496 0 0 1-.452.122.497.497 0 0 1-.355-.306c-4.223-10.832-14.463-17.831-26.088-17.831-1.668 0-3.346.151-4.987.451a28.358 28.358 0 0 0-5.169 1.464 27.906 27.906 0 0 0-17.231 20.348.505.505 0 0 1-.492.4zm-9.11-1.64c2.93 0 5.861.195 8.72.582 2.125-9.413 8.73-17.1 17.749-20.618a29.394 29.394 0 0 1 5.353-1.517c1.7-.31 3.438-.467 5.166-.467 11.799 0 22.221 6.961 26.75 17.799a19.43 19.43 0 0 1 12.804-4.779c.768.009 1.485.055 2.18.14a41.175 41.175 0 0 1 4.705-13.016c3.17-5.618 7.464-10.285 12.765-13.874.71-3.617.973-7.355.781-11.115-.65-12.345-6.393-24.051-15.756-32.115a31.236 31.236 0 0 1-10.391-26.814c.182-1.906.245-3.803.188-5.629a42.012 42.012 0 0 0-10.841-26.9 41.983 41.983 0 0 0-32.434-13.806c-22.917.697-40.805 19.202-40.726 42.128v1.441a3.502 3.502 0 0 1-2.17 3.383C7.642 156.005-6.273 188.004 4.84 216.226c7.034 17.867 23.156 30.92 42.087 34.079a35.593 35.593 0 0 1 4.098-.235z" fill="#60657C"/></g><g><path d="M487.565 224.93a45.8 45.8 0 0 1-1.03 9.36c-5.37-3.09-12.09-3.64-18.14-.93a35.98 35.98 0 0 0-7.46-8.91 36.495 36.495 0 0 0-32.37-7.88c-3.49.83-6.92 2.2-10.16 4.14-5.36 3.2-9.81 7.71-12.92 13.12a36.361 36.361 0 0 0-9.15-4.45 36.46 36.46 0 0 0-29.22 2.95c-2.32-14.49-12.88-25.6-26.12-29.34a56.034 56.034 0 0 1 15.11-27.17 55.954 55.954 0 0 1 19.16-12.46c.79-.3 1.31-1.06 1.3-1.91v-1.38c-.03-15.41 8.17-28.99 20.55-36.46 5.79-3.5 12.49-5.66 19.69-6.04 23.44-1.25 43.45 16.74 44.7 40.18.12 2.29.06 4.59-.18 6.88-.09.79-.14 1.57-.16 2.35a27.402 27.402 0 0 0 9.63 21.59c3.5 2.93 6.51 6.32 8.97 10.04a46.763 46.763 0 0 1 7.8 26.32z" fill="#fff"/><path d="M486.535 234.79a.508.508 0 0 1-.25-.066 19.567 19.567 0 0 0-9.749-2.608c-2.746 0-5.417.572-7.937 1.701a.496.496 0 0 1-.634-.2 35.461 35.461 0 0 0-7.357-8.787 35.918 35.918 0 0 0-18.119-8.354 36.015 36.015 0 0 0-13.807.582 35.471 35.471 0 0 0-10.021 4.083 36.001 36.001 0 0 0-12.743 12.939.5.5 0 0 1-.712.166 35.883 35.883 0 0 0-9.025-4.389 35.92 35.92 0 0 0-11.107-1.757 36.034 36.034 0 0 0-17.713 4.666.499.499 0 0 1-.74-.356c-2.207-13.781-12.319-25.141-25.762-28.938a.501.501 0 0 1-.352-.594 56.407 56.407 0 0 1 15.245-27.412 56.197 56.197 0 0 1 19.331-12.571c.596-.227.989-.804.981-1.438v-1.386c-.029-14.997 7.938-29.132 20.792-36.888 6-3.627 12.889-5.74 19.922-6.111 23.837-1.283 43.966 17.052 45.226 40.652.121 2.312.06 4.653-.182 6.959a26.163 26.163 0 0 0-.157 2.311c-.218 8.167 3.228 15.893 9.454 21.196a47.102 47.102 0 0 1 9.063 10.146 47.08 47.08 0 0 1 7.883 26.6 46.454 46.454 0 0 1-1.042 9.461.504.504 0 0 1-.286.352.54.54 0 0 1-.202.041zm-9.998-3.675c3.358 0 6.678.831 9.646 2.409.567-2.839.863-5.728.882-8.598a46.1 46.1 0 0 0-7.717-26.04 46.139 46.139 0 0 0-8.875-9.933c-6.461-5.504-10.035-13.517-9.809-21.987.021-.833.075-1.616.164-2.393.236-2.25.295-4.538.177-6.798-1.229-23.052-20.879-40.93-44.173-39.707a42.012 42.012 0 0 0-19.458 5.969c-12.556 7.576-20.337 21.382-20.309 36.031v1.381a2.524 2.524 0 0 1-1.623 2.378 55.194 55.194 0 0 0-18.985 12.347 55.416 55.416 0 0 0-14.867 26.467c13.36 3.963 23.434 15.219 25.899 28.91a37.042 37.042 0 0 1 17.584-4.452c3.884 0 7.725.607 11.415 1.806a36.802 36.802 0 0 1 8.831 4.216 37.03 37.03 0 0 1 12.829-12.84 36.406 36.406 0 0 1 10.301-4.197 36.985 36.985 0 0 1 14.191-.598 36.919 36.919 0 0 1 18.622 8.586 36.45 36.45 0 0 1 7.335 8.654 20.288 20.288 0 0 1 7.94-1.611z" fill="#60657C"/></g><path d="M260.565 205.29c-.61-.77-1.24-1.51-1.9-2.22" fill="#fff"/><g fill="#60657C"><path d="M260.566 205.79a.498.498 0 0 1-.392-.189 36.377 36.377 0 0 0-1.875-2.189.5.5 0 0 1 .733-.682 37.675 37.675 0 0 1 1.926 2.25.5.5 0 0 1-.392.81z"/><path d="M679.564 283.07a.5.5 0 0 1-.436-.255c-.143-.254-14.55-25.434-36.771-30.759a.5.5 0 0 1-.381-.438c-.918-9.621-8.256-17.184-17.845-18.392a.504.504 0 0 1-.433-.566c2.839-19.925-11.061-38.445-30.986-41.284-9.652-1.377-19.262 1.091-27.059 6.942-7.797 5.853-12.849 14.391-14.225 24.043a36.606 36.606 0 0 0-.365 5.208c0 2.99.365 5.978 1.085 8.881a.5.5 0 0 1-.935.34c-3.292-6.719-9.002-11.753-16.081-14.177s-14.677-1.944-21.395 1.347a28.103 28.103 0 0 0-14.477 17.006.5.5 0 0 1-.332.333 28.232 28.232 0 0 0-4.313 1.719.498.498 0 0 1-.668-.221c-4.711-9.286-15.845-13.229-25.35-8.98a.497.497 0 0 1-.634-.2c-4.918-8.25-12.754-14.092-22.066-16.448-9.31-2.355-18.983-.945-27.234 3.973a36.049 36.049 0 0 0-12.748 12.939.498.498 0 0 1-.712.165c-11.391-7.674-25.892-8.24-37.845-1.479a.499.499 0 0 1-.74-.356c-3.151-19.604-21.666-32.997-41.269-29.838a36.03 36.03 0 0 0-28.127 23.25.499.499 0 0 1-.589.314c-9.172-2.255-18.708-.855-26.847 3.945a.498.498 0 0 1-.753-.413c-.383-10.945-5.005-21.086-13.015-28.554-8.011-7.469-18.447-11.385-29.394-10.987a40.917 40.917 0 0 0-35.422 23.012.502.502 0 0 1-.696.217c-19.441-10.991-44.198-4.112-55.187 15.328a40.37 40.37 0 0 0-4.674 13.17.497.497 0 0 1-.566.411 18.242 18.242 0 0 0-2.521-.194h-.015a18.428 18.428 0 0 0-12.639 4.995.493.493 0 0 1-.453.122.497.497 0 0 1-.355-.306c-5.604-14.38-21.862-21.519-36.245-15.913a27.902 27.902 0 0 0-17.23 20.344.5.5 0 0 1-.56.393c-2.985-.423-6.025-.606-9.039-.635-26.847 0-44.846 31.428-45.025 31.745a.5.5 0 1 1-.871-.491c.181-.322 18.46-32.255 45.896-32.255 2.899.033 5.837.193 8.72.581a28.894 28.894 0 0 1 17.747-20.614c14.671-5.718 31.227 1.368 37.27 15.813a19.419 19.419 0 0 1 12.789-4.78h.016c.73.006 1.46.053 2.18.141a41.406 41.406 0 0 1 4.707-13.02c11.173-19.768 36.237-26.857 56.087-15.964a41.914 41.914 0 0 1 36.052-23.101c11.216-.394 21.906 3.605 30.111 11.256 8.003 7.462 12.705 17.529 13.295 28.425a36.728 36.728 0 0 1 26.442-3.747 37.037 37.037 0 0 1 28.754-23.477c19.914-3.2 38.734 10.2 42.295 29.968 12.01-6.499 26.393-5.905 37.832 1.569a37.05 37.05 0 0 1 12.833-12.84c8.479-5.055 18.419-6.506 27.991-4.083 9.428 2.386 17.385 8.249 22.452 16.529 9.75-4.115 21.01-.138 26.017 9.181a29.24 29.24 0 0 1 3.771-1.487 29.108 29.108 0 0 1 14.915-17.359c6.958-3.408 14.828-3.903 22.159-1.395 6.305 2.159 11.562 6.317 15.079 11.865a37.91 37.91 0 0 1-.473-5.962 37.574 37.574 0 0 1 .375-5.35c1.413-9.917 6.604-18.689 14.615-24.702 8.011-6.012 17.884-8.547 27.8-7.133 20.305 2.894 34.52 21.637 31.903 41.917 9.693 1.446 17.09 9.112 18.178 18.865 22.455 5.604 36.921 30.9 37.065 31.157a.5.5 0 0 1-.435.746z"/></g></svg></g><g transform="translate(767.0 219.0) rotate(0.0 -282.5 117.5) translate(-0.5748031496062822 0.0) scale(-0.8308053812661474 0.8301833468753312)"><svg width="440.536" height="283.07" viewBox="0.692 0 440.536 283.07"><g><path d="M260.565 205.29c21.43-2.1 40.8-16.2 48.55-37.8 7.54-20.98 2.16-43.74-12.47-59.1-4.4-4.63-9.65-8.59-15.64-11.63 13.62-28.69 1.41-62.98-27.27-76.61-28.69-13.62-62.99-1.41-76.61 27.27a57.523 57.523 0 0 0-3.51 9.46 57.122 57.122 0 0 0-2.05 15.19c0 1.64.09 3.27.22 4.88-28.78 13.39-41.25 47.57-27.86 76.35 1.95 4.2 4.41 8.16 7.32 11.77-3.09 17.06 4.59 33.58 18.2 42.56 7.21-.21 14.57 1.48 21.31 5.29a41.467 41.467 0 0 1 35.85-23.29c.82-.03 1.64-.03 2.46-.02 11.66.27 22.2 5.38 29.6 13.46" fill="#fff"/><path d="M190.755 213.419a.499.499 0 0 1-.246-.064 40.377 40.377 0 0 0-21.049-5.226.552.552 0 0 1-.29-.083 42.46 42.46 0 0 1-18.457-42.841 57.61 57.61 0 0 1-7.241-11.694c-6.532-14.041-7.207-29.784-1.9-44.329 5.268-14.437 15.804-25.979 29.688-32.538a59.101 59.101 0 0 1-.194-4.574 57.64 57.64 0 0 1 2.068-15.323 58.186 58.186 0 0 1 3.54-9.542c13.718-28.884 48.383-41.221 77.276-27.507 28.733 13.656 41.094 48.041 27.713 76.838a57.704 57.704 0 0 1 15.344 11.51c15.228 15.987 20.048 38.83 12.579 59.613-7.53 20.985-26.752 35.951-48.972 38.129-.275.019-.52-.175-.546-.449s.174-.52.449-.547c21.837-2.139 40.729-16.848 48.128-37.471 7.341-20.426 2.604-42.874-12.361-58.586a56.76 56.76 0 0 0-15.504-11.528.501.501 0 0 1-.226-.661c13.476-28.387 1.349-62.456-27.033-75.944-28.396-13.479-62.463-1.353-75.944 27.033a57.205 57.205 0 0 0-3.479 9.378 56.655 56.655 0 0 0-2.032 15.058c0 1.457.069 2.995.218 4.84a.499.499 0 0 1-.288.493c-13.798 6.42-24.269 17.827-29.485 32.122-5.216 14.294-4.552 29.766 1.867 43.564a56.568 56.568 0 0 0 7.256 11.667c.091.112.129.26.103.402a41.464 41.464 0 0 0 17.853 41.967 41.36 41.36 0 0 1 20.95 5.102 41.88 41.88 0 0 1 36.048-23.098c.827-.028 1.655-.03 2.483-.02 11.355.263 22.274 5.228 29.962 13.622a.5.5 0 1 1-.738.676c-7.505-8.195-18.164-13.042-29.243-13.298-.805-.01-1.618-.01-2.431.02a40.88 40.88 0 0 0-35.418 23.009.502.502 0 0 1-.448.28z" fill="#60657C"/></g><g><path d="M508.305 180.49c-7.22 9.75-17.51 15.91-28.54 18.12-7.96 1.59-16.31 1.14-24.18-1.52-4.56-1.51-8.95-3.77-13.02-6.78v25.67c-4.6-.7-9.36-.53-14 .59v-24.45a54.5 54.5 0 0 1-10.36 4.67 54.414 54.414 0 0 1-10.63 2.38c-20.22 2.44-40.1-6.72-51.47-23.35-2.81-4.12-5.11-8.7-6.75-13.67-7.14-21.61-.02-44.49 16.23-58.46 5.24-4.51 11.44-8.08 18.41-10.39 6.03-1.97 9.98-7.75 9.63-14.09-.08-.87-.08-1.75-.08-2.64-.55-24.3 18.7-44.45 43-45s44.45 18.7 45 43v3.26c-.22 8.1 1.82 15.95 5.62 22.91 3.13 5.75 7.47 10.9 12.72 15.09 19.73 15.79 23.45 44.35 8.42 64.66z" fill="#fff"/><path d="M428.565 217.07a.5.5 0 0 1-.5-.5v-23.588a55.016 55.016 0 0 1-9.704 4.282 54.968 54.968 0 0 1-17.27 2.795h-.003a54.96 54.96 0 0 1-45.396-23.957 55.118 55.118 0 0 1-6.812-13.796c-7.021-21.249-.592-44.406 16.378-58.995 5.425-4.67 11.676-8.198 18.579-10.485 5.806-1.897 9.625-7.484 9.288-13.588-.081-.876-.081-1.787-.081-2.668-.555-24.528 18.954-44.944 43.489-45.5 24.458-.537 44.961 19.162 45.511 43.488v3.271c-.211 7.788 1.711 15.623 5.559 22.671 3.078 5.655 7.433 10.82 12.593 14.938a47.357 47.357 0 0 1 8.51 65.349 47.424 47.424 0 0 1-28.844 18.313c-8.154 1.628-16.647 1.097-24.438-1.537a46.822 46.822 0 0 1-12.359-6.273v24.69a.497.497 0 0 1-.575.494 36.018 36.018 0 0 0-13.808.582.513.513 0 0 1-.117.014zm0-25.45a.502.502 0 0 1 .5.5v23.821a37.027 37.027 0 0 1 13-.538V190.31a.5.5 0 0 1 .797-.402c3.968 2.935 8.301 5.191 12.879 6.707 7.629 2.579 15.942 3.099 23.925 1.505a46.424 46.424 0 0 0 28.236-17.928 46.359 46.359 0 0 0-8.331-63.972c-5.263-4.2-9.706-9.471-12.847-15.241-3.932-7.202-5.896-15.212-5.681-23.163V74.57c-.538-23.769-20.591-43.087-44.489-42.5-23.983.543-43.054 20.5-42.511 44.488 0 .91 0 1.759.078 2.606.363 6.573-3.738 12.573-9.973 14.611-6.776 2.245-12.913 5.708-18.239 10.293-16.662 14.324-22.974 37.061-16.081 57.924a54.107 54.107 0 0 0 6.688 13.545 53.963 53.963 0 0 0 44.57 23.521h.003a53.855 53.855 0 0 0 16.955-2.744 54.189 54.189 0 0 0 10.267-4.627.516.516 0 0 1 .254-.067z" fill="#60657C"/></g><g><path d="M229.065 189.61c-.82-.01-1.64-.01-2.46.02a41.467 41.467 0 0 0-35.85 23.29c-6.74-3.81-14.1-5.5-21.31-5.29-7.75.22-15.32 2.63-21.78 6.99a40.597 40.597 0 0 0-12.78 13.82 40.855 40.855 0 0 0-4.73 13.33c-.86-.13-1.72-.19-2.59-.2-4.83 0-9.48 1.83-13 5.13-5.04-12.93-18.48-20.09-31.63-17.69-2.21-7.09-3.4-14.63-3.43-22.44 0-18.76 15.23-57.78 32.06-95.16 20.78-46.16 44-89.84 44-89.84s7.63 14.36 18.05 35.31c18.9 37.99 46.98 97.67 55.45 132.73z" fill="#fff"/><path d="M114.565 247.2a.497.497 0 0 1-.465-.319c-4.223-10.832-14.462-17.831-26.088-17.831-1.668 0-3.346.151-4.987.451a.507.507 0 0 1-.567-.344c-2.261-7.254-3.423-14.854-3.452-22.586 0-15.968 10.801-48.054 32.104-95.367 20.549-45.647 43.782-89.433 44.015-89.869a.5.5 0 0 1 .882 0c.077.144 7.752 14.604 18.056 35.322 16.966 34.103 46.711 96.652 55.457 132.705a.49.49 0 0 1 .065.247c0 .279-.205.51-.51.5h-.017a43.917 43.917 0 0 0-2.435.021 40.875 40.875 0 0 0-35.419 23.008.502.502 0 0 1-.696.217 40.52 40.52 0 0 0-21.049-5.225 40.432 40.432 0 0 0-21.515 6.903c-5.25 3.518-9.497 8.11-12.624 13.652a40.202 40.202 0 0 0-4.672 13.167.497.497 0 0 1-.568.411 17.925 17.925 0 0 0-2.521-.194 18.427 18.427 0 0 0-12.652 4.995.498.498 0 0 1-.342.136zm-26.554-19.15c11.799 0 22.221 6.961 26.75 17.799a19.434 19.434 0 0 1 12.804-4.779c.768.009 1.485.055 2.18.14a41.175 41.175 0 0 1 4.705-13.016c3.205-5.679 7.557-10.386 12.937-13.989a41.421 41.421 0 0 1 22.044-7.074 41.6 41.6 0 0 1 21.109 5.097 41.876 41.876 0 0 1 36.048-23.097 48.912 48.912 0 0 1 1.839-.026c-8.872-36.032-38.389-98.091-55.26-132.001-8.895-17.884-15.829-31.102-17.602-34.464-3.312 6.278-24.573 46.834-43.544 88.976-21.245 47.184-32.016 79.132-32.016 94.955.028 7.482 1.131 14.839 3.278 21.871a28.711 28.711 0 0 1 4.728-.392z" fill="#60657C"/></g><g><path d="M260.565 205.29a41.278 41.278 0 0 1 8.97 24.36c8.2-4.84 17.97-6.27 27.22-4a36.492 36.492 0 0 1 28.52-23.57c5.42-.87 10.76-.5 15.72.91 13.24 3.74 23.8 14.85 26.12 29.34a36.46 36.46 0 0 1 29.22-2.95c.78-.9 1.53-1.84 2.24-2.81a46.537 46.537 0 0 0 9-27.4c.02-5.94-1.1-11.92-3.41-17.6-.58-1.44-.45-3.07.34-4.41a43.106 43.106 0 0 0 5.96-19.18c.9-13.38-4.36-25.76-13.35-34.37a43.304 43.304 0 0 0-27.12-11.94c-1-.07-1.95-.1-2.93-.1s-1.78-.8-1.78-1.78v-.22c.27-1.98.37-3.95.3-5.88-.52-16.48-12.86-30.68-29.75-33.02-18.69-2.58-35.98 10.32-38.83 28.97l-.09.65c-.1.69-.17 1.37-.22 2.06-.12 1.54-.14 3.09-.06 4.63.03.47.03.94.01 1.41-.2 6.59-4.32 12.5-10.55 14.92-20.83 8.21-34.26 28.62-33.54 51a52.38 52.38 0 0 0 7.76 25.8c-.6.97-1.15 1.96-1.65 2.96" fill="#fff"/><path d="M367.115 232.83a.503.503 0 0 1-.494-.421c-2.207-13.781-12.319-25.14-25.762-28.938-5.052-1.437-10.268-1.741-15.505-.897a36.012 36.012 0 0 0-28.129 23.247.5.5 0 0 1-.589.314c-9.182-2.252-18.717-.854-26.847 3.945a.498.498 0 0 1-.753-.413c-.307-8.845-3.371-17.167-8.861-24.066a.5.5 0 0 1 .783-.623c5.454 6.854 8.571 15.076 9.042 23.828 8.066-4.524 17.407-5.851 26.442-3.746a37.016 37.016 0 0 1 28.756-23.475c5.382-.862 10.744-.553 15.936.924 13.588 3.838 23.865 15.194 26.358 29.042a37.07 37.07 0 0 1 28.682-2.749 43.66 43.66 0 0 0 2-2.527c5.794-7.9 8.873-17.273 8.903-27.107a45.573 45.573 0 0 0-3.374-17.409 5.54 5.54 0 0 1 .373-4.853 42.795 42.795 0 0 0 5.892-18.959c.857-12.738-3.953-25.122-13.197-33.976a43.016 43.016 0 0 0-29.704-11.902 2.282 2.282 0 0 1-2.28-2.28v-.22c.27-2.014.369-3.963.3-5.861-.522-16.576-12.853-30.262-29.319-32.544-18.307-2.527-35.475 10.28-38.267 28.551l-.089.644a28.26 28.26 0 0 0-.216 2.027 35.345 35.345 0 0 0-.059 4.567c.029.455.032.934.01 1.458a17.013 17.013 0 0 1-10.868 15.364c-20.581 8.112-33.933 28.414-33.222 50.519a51.972 51.972 0 0 0 7.687 25.554.5.5 0 0 1 0 .524 36.985 36.985 0 0 0-1.628 2.921.5.5 0 0 1-.895-.447 37.91 37.91 0 0 1 1.511-2.736 52.963 52.963 0 0 1-7.673-25.784c-.725-22.524 12.881-43.214 33.856-51.48a16.02 16.02 0 0 0 10.233-14.471c.021-.494.018-.938-.009-1.363a36.126 36.126 0 0 1 .061-4.7c.053-.732.126-1.418.223-2.093l.09-.647c2.874-18.813 20.54-32.003 39.393-29.396 16.951 2.349 29.644 16.438 30.181 33.5a34.904 34.904 0 0 1-.304 5.963l.004.152c0 .706.574 1.28 1.28 1.28a44.023 44.023 0 0 1 30.395 12.179c9.458 9.06 14.38 21.73 13.503 34.765a43.794 43.794 0 0 1-6.029 19.402 4.53 4.53 0 0 0-.306 3.968 46.57 46.57 0 0 1 3.446 17.788c-.031 10.047-3.176 19.623-9.097 27.694a44.292 44.292 0 0 1-2.266 2.842.496.496 0 0 1-.532.147 36.056 36.056 0 0 0-28.819 2.91.517.517 0 0 1-.247.064z" fill="#60657C"/></g><g><path d="M617.565 195.57c0 3.23-.19 6.41-.57 9.54a36.784 36.784 0 0 0-24.21-14.23c-7.25-1.03-14.3.11-20.5 2.94-11.12 5.05-19.5 15.49-21.35 28.47-.25 1.75-.37 3.51-.37 5.28 0 3.03.37 6.06 1.1 9-6.93-14.14-24.01-19.99-38.15-13.06a28.516 28.516 0 0 0-14.73 17.31c-1.51.46-2.98 1.05-4.39 1.75a19.97 19.97 0 0 0-7.86-8.28c-5.37-3.09-12.09-3.64-18.14-.93a35.98 35.98 0 0 0-7.46-8.91 79.608 79.608 0 0 1-5.35-27.36c-.02-.5-.02-1.01-.02-1.52 0-7.15 2.09-17.03 5.6-28.59 5.8-19.11 15.47-42.79 26-66.24C509.895 50.08 536.565.5 536.565.5s33.79 62.81 57.73 119.28c13.11 30.97 23.27 60.02 23.27 75.79z" fill="#fff"/><path d="M494.396 243.07a.502.502 0 0 1-.446-.272 19.462 19.462 0 0 0-7.664-8.074 19.573 19.573 0 0 0-9.749-2.608c-2.746 0-5.417.572-7.937 1.701a.496.496 0 0 1-.634-.2 35.461 35.461 0 0 0-7.357-8.787.502.502 0 0 1-.14-.198 80.012 80.012 0 0 1-5.384-27.532c-.02-.496-.02-1.012-.02-1.528 0-6.782 1.891-16.45 5.621-28.735 5.188-17.092 13.943-39.398 26.022-66.3C509.186 50.44 535.857.761 536.124.265c.175-.322.706-.324.881 0 .338.629 34.075 63.478 57.75 119.322 15.467 36.538 23.31 62.104 23.31 75.985 0 3.232-.193 6.462-.574 9.601a.5.5 0 0 1-.895.241c-5.827-7.687-14.309-12.672-23.882-14.036a36.964 36.964 0 0 0-5.191-.369c-5.222 0-10.279 1.1-15.03 3.269-11.421 5.187-19.295 15.686-21.063 28.085a36.96 36.96 0 0 0-.365 5.21c0 2.993.365 5.98 1.085 8.88a.5.5 0 0 1-.935.34c-4.744-9.681-14.392-15.695-25.178-15.695-4.286 0-8.425.964-12.302 2.864a28.113 28.113 0 0 0-14.472 17.007.502.502 0 0 1-.333.333 28.027 28.027 0 0 0-4.313 1.72.557.557 0 0 1-.221.048zm-17.859-11.955c3.586 0 7.13.948 10.248 2.741a20.438 20.438 0 0 1 7.828 8.052 29.113 29.113 0 0 1 3.772-1.487 29.118 29.118 0 0 1 14.91-17.36 28.725 28.725 0 0 1 12.743-2.966c10.083 0 19.205 5.074 24.5 13.436a37.976 37.976 0 0 1-.472-5.96c0-1.811.126-3.61.375-5.351 1.816-12.739 9.905-23.526 21.639-28.854a36.929 36.929 0 0 1 15.444-3.358c1.771 0 3.565.128 5.333.379 9.429 1.344 17.827 6.106 23.78 13.455.285-2.716.43-5.492.43-8.271 0-13.748-7.816-39.182-23.231-75.595C571.65 67.646 540.621 9.157 536.565 1.559c-3.57 6.687-28.068 52.857-48.944 99.386-12.062 26.862-20.802 49.129-25.978 66.181-3.701 12.19-5.578 21.761-5.578 28.444 0 .503 0 1.007.019 1.5a79.003 79.003 0 0 0 5.272 27.083 36.465 36.465 0 0 1 7.241 8.573 20.288 20.288 0 0 1 7.94-1.611z" fill="#60657C"/></g><g><path d="M658.565 223.85c0 12.49-2.48 22.92-6.78 31.21-2.92-1.5-6.03-2.7-9.31-3.49-.94-9.78-8.53-17.61-18.28-18.84 1.45-10.2-1.4-20.02-7.2-27.62a36.784 36.784 0 0 0-24.21-14.23c-7.25-1.03-14.3.11-20.5 2.94 5.21-22.16 13.95-50.04 22.01-74.04 9.91-29.53 18.77-53.21 18.77-53.21s45.5 121.48 45.5 157.28z" fill="#fff"/><path d="M651.784 255.56a.492.492 0 0 1-.228-.056c-2.999-1.54-6.094-2.7-9.199-3.448a.5.5 0 0 1-.38-.438c-.925-9.619-8.263-17.183-17.845-18.392a.504.504 0 0 1-.433-.566c1.386-9.751-1.136-19.428-7.103-27.246-5.828-7.688-14.31-12.674-23.883-14.038a36.968 36.968 0 0 0-5.192-.369c-5.222 0-10.279 1.1-15.03 3.269a.497.497 0 0 1-.524-.068.502.502 0 0 1-.17-.501c4.425-18.819 11.834-43.745 22.022-74.085 9.8-29.2 18.688-52.989 18.776-53.226.146-.391.79-.392.937-.001.455 1.216 45.532 121.977 45.532 157.455 0 12.117-2.3 22.695-6.836 31.441a.5.5 0 0 1-.444.269zm-8.848-4.392a42.346 42.346 0 0 1 8.631 3.221c4.312-8.517 6.498-18.789 6.498-30.54 0-33.35-40.178-142.828-45-155.844-1.959 5.287-9.784 26.567-18.296 51.934-10.003 29.789-17.324 54.346-21.766 73.019a36.914 36.914 0 0 1 14.52-2.951c1.771 0 3.565.128 5.333.379 9.836 1.402 18.551 6.524 24.538 14.423 6.028 7.899 8.634 17.646 7.364 27.495 9.686 1.446 17.083 9.112 18.178 18.864z" fill="#60657C"/></g><g><path d="M147.665 214.62a40.597 40.597 0 0 0-12.78 13.82 40.855 40.855 0 0 0-4.73 13.33c-.86-.13-1.72-.19-2.59-.2-4.83 0-9.48 1.83-13 5.13-5.04-12.93-18.48-20.09-31.63-17.69a28.5 28.5 0 0 0-22.8 22.2c-3.02-.43-6.06-.64-9.11-.64-1.39 0-2.76.08-4.11.24a55.458 55.458 0 0 1-42.54-34.4c-11.23-28.52 2.78-60.75 31.3-71.98a3.007 3.007 0 0 0 1.86-2.92v-1.44c-.08-23.03 18.19-41.93 41.21-42.63 12.97-.4 24.76 5.05 32.82 13.97a42.34 42.34 0 0 1 10.97 27.22c.06 1.9-.01 3.81-.19 5.7a30.696 30.696 0 0 0 10.22 26.38 46.045 46.045 0 0 1 15.1 43.91z" fill="#fff"/><path d="M60.135 251.71a.578.578 0 0 1-.071-.005 64.218 64.218 0 0 0-9.039-.636c-1.364 0-2.727.08-4.051.236a.418.418 0 0 1-.141-.003c-19.306-3.195-35.753-16.496-42.924-34.71-11.314-28.735 2.853-61.316 31.583-72.629a2.504 2.504 0 0 0 1.543-2.432v-1.463c-.082-23.471 18.233-42.416 41.695-43.13a43.017 43.017 0 0 1 44.306 41.675 45.848 45.848 0 0 1-.192 5.763 30.242 30.242 0 0 0 10.053 25.958c9.565 8.238 15.434 20.201 16.099 32.817.2 3.913-.083 7.804-.839 11.565a.497.497 0 0 1-.212.316c-5.248 3.517-9.495 8.109-12.623 13.651a40.202 40.202 0 0 0-4.672 13.167.497.497 0 0 1-.568.411 17.925 17.925 0 0 0-2.521-.194 18.427 18.427 0 0 0-12.652 4.995.496.496 0 0 1-.452.122.497.497 0 0 1-.355-.306c-4.223-10.832-14.463-17.831-26.088-17.831-1.668 0-3.346.151-4.987.451a28.358 28.358 0 0 0-5.169 1.464 27.906 27.906 0 0 0-17.231 20.348.505.505 0 0 1-.492.4zm-9.11-1.64c2.93 0 5.861.195 8.72.582 2.125-9.413 8.73-17.1 17.749-20.618a29.394 29.394 0 0 1 5.353-1.517c1.7-.31 3.438-.467 5.166-.467 11.799 0 22.221 6.961 26.75 17.799a19.43 19.43 0 0 1 12.804-4.779c.768.009 1.485.055 2.18.14a41.175 41.175 0 0 1 4.705-13.016c3.17-5.618 7.464-10.285 12.765-13.874.71-3.617.973-7.355.781-11.115-.65-12.345-6.393-24.051-15.756-32.115a31.236 31.236 0 0 1-10.391-26.814c.182-1.906.245-3.803.188-5.629a42.012 42.012 0 0 0-10.841-26.9 41.983 41.983 0 0 0-32.434-13.806c-22.917.697-40.805 19.202-40.726 42.128v1.441a3.502 3.502 0 0 1-2.17 3.383C7.642 156.005-6.273 188.004 4.84 216.226c7.034 17.867 23.156 30.92 42.087 34.079a35.593 35.593 0 0 1 4.098-.235z" fill="#60657C"/></g><g><path d="M487.565 224.93a45.8 45.8 0 0 1-1.03 9.36c-5.37-3.09-12.09-3.64-18.14-.93a35.98 35.98 0 0 0-7.46-8.91 36.495 36.495 0 0 0-32.37-7.88c-3.49.83-6.92 2.2-10.16 4.14-5.36 3.2-9.81 7.71-12.92 13.12a36.361 36.361 0 0 0-9.15-4.45 36.46 36.46 0 0 0-29.22 2.95c-2.32-14.49-12.88-25.6-26.12-29.34a56.034 56.034 0 0 1 15.11-27.17 55.954 55.954 0 0 1 19.16-12.46c.79-.3 1.31-1.06 1.3-1.91v-1.38c-.03-15.41 8.17-28.99 20.55-36.46 5.79-3.5 12.49-5.66 19.69-6.04 23.44-1.25 43.45 16.74 44.7 40.18.12 2.29.06 4.59-.18 6.88-.09.79-.14 1.57-.16 2.35a27.402 27.402 0 0 0 9.63 21.59c3.5 2.93 6.51 6.32 8.97 10.04a46.763 46.763 0 0 1 7.8 26.32z" fill="#fff"/><path d="M486.535 234.79a.508.508 0 0 1-.25-.066 19.567 19.567 0 0 0-9.749-2.608c-2.746 0-5.417.572-7.937 1.701a.496.496 0 0 1-.634-.2 35.461 35.461 0 0 0-7.357-8.787 35.918 35.918 0 0 0-18.119-8.354 36.015 36.015 0 0 0-13.807.582 35.471 35.471 0 0 0-10.021 4.083 36.001 36.001 0 0 0-12.743 12.939.5.5 0 0 1-.712.166 35.883 35.883 0 0 0-9.025-4.389 35.92 35.92 0 0 0-11.107-1.757 36.034 36.034 0 0 0-17.713 4.666.499.499 0 0 1-.74-.356c-2.207-13.781-12.319-25.141-25.762-28.938a.501.501 0 0 1-.352-.594 56.407 56.407 0 0 1 15.245-27.412 56.197 56.197 0 0 1 19.331-12.571c.596-.227.989-.804.981-1.438v-1.386c-.029-14.997 7.938-29.132 20.792-36.888 6-3.627 12.889-5.74 19.922-6.111 23.837-1.283 43.966 17.052 45.226 40.652.121 2.312.06 4.653-.182 6.959a26.163 26.163 0 0 0-.157 2.311c-.218 8.167 3.228 15.893 9.454 21.196a47.102 47.102 0 0 1 9.063 10.146 47.08 47.08 0 0 1 7.883 26.6 46.454 46.454 0 0 1-1.042 9.461.504.504 0 0 1-.286.352.54.54 0 0 1-.202.041zm-9.998-3.675c3.358 0 6.678.831 9.646 2.409.567-2.839.863-5.728.882-8.598a46.1 46.1 0 0 0-7.717-26.04 46.139 46.139 0 0 0-8.875-9.933c-6.461-5.504-10.035-13.517-9.809-21.987.021-.833.075-1.616.164-2.393.236-2.25.295-4.538.177-6.798-1.229-23.052-20.879-40.93-44.173-39.707a42.012 42.012 0 0 0-19.458 5.969c-12.556 7.576-20.337 21.382-20.309 36.031v1.381a2.524 2.524 0 0 1-1.623 2.378 55.194 55.194 0 0 0-18.985 12.347 55.416 55.416 0 0 0-14.867 26.467c13.36 3.963 23.434 15.219 25.899 28.91a37.042 37.042 0 0 1 17.584-4.452c3.884 0 7.725.607 11.415 1.806a36.802 36.802 0 0 1 8.831 4.216 37.03 37.03 0 0 1 12.829-12.84 36.406 36.406 0 0 1 10.301-4.197 36.985 36.985 0 0 1 14.191-.598 36.919 36.919 0 0 1 18.622 8.586 36.45 36.45 0 0 1 7.335 8.654 20.288 20.288 0 0 1 7.94-1.611z" fill="#60657C"/></g><path d="M260.565 205.29c-.61-.77-1.24-1.51-1.9-2.22" fill="#fff"/><g fill="#60657C"><path d="M260.566 205.79a.498.498 0 0 1-.392-.189 36.377 36.377 0 0 0-1.875-2.189.5.5 0 0 1 .733-.682 37.675 37.675 0 0 1 1.926 2.25.5.5 0 0 1-.392.81z"/><path d="M679.564 283.07a.5.5 0 0 1-.436-.255c-.143-.254-14.55-25.434-36.771-30.759a.5.5 0 0 1-.381-.438c-.918-9.621-8.256-17.184-17.845-18.392a.504.504 0 0 1-.433-.566c2.839-19.925-11.061-38.445-30.986-41.284-9.652-1.377-19.262 1.091-27.059 6.942-7.797 5.853-12.849 14.391-14.225 24.043a36.606 36.606 0 0 0-.365 5.208c0 2.99.365 5.978 1.085 8.881a.5.5 0 0 1-.935.34c-3.292-6.719-9.002-11.753-16.081-14.177s-14.677-1.944-21.395 1.347a28.103 28.103 0 0 0-14.477 17.006.5.5 0 0 1-.332.333 28.232 28.232 0 0 0-4.313 1.719.498.498 0 0 1-.668-.221c-4.711-9.286-15.845-13.229-25.35-8.98a.497.497 0 0 1-.634-.2c-4.918-8.25-12.754-14.092-22.066-16.448-9.31-2.355-18.983-.945-27.234 3.973a36.049 36.049 0 0 0-12.748 12.939.498.498 0 0 1-.712.165c-11.391-7.674-25.892-8.24-37.845-1.479a.499.499 0 0 1-.74-.356c-3.151-19.604-21.666-32.997-41.269-29.838a36.03 36.03 0 0 0-28.127 23.25.499.499 0 0 1-.589.314c-9.172-2.255-18.708-.855-26.847 3.945a.498.498 0 0 1-.753-.413c-.383-10.945-5.005-21.086-13.015-28.554-8.011-7.469-18.447-11.385-29.394-10.987a40.917 40.917 0 0 0-35.422 23.012.502.502 0 0 1-.696.217c-19.441-10.991-44.198-4.112-55.187 15.328a40.37 40.37 0 0 0-4.674 13.17.497.497 0 0 1-.566.411 18.242 18.242 0 0 0-2.521-.194h-.015a18.428 18.428 0 0 0-12.639 4.995.493.493 0 0 1-.453.122.497.497 0 0 1-.355-.306c-5.604-14.38-21.862-21.519-36.245-15.913a27.902 27.902 0 0 0-17.23 20.344.5.5 0 0 1-.56.393c-2.985-.423-6.025-.606-9.039-.635-26.847 0-44.846 31.428-45.025 31.745a.5.5 0 1 1-.871-.491c.181-.322 18.46-32.255 45.896-32.255 2.899.033 5.837.193 8.72.581a28.894 28.894 0 0 1 17.747-20.614c14.671-5.718 31.227 1.368 37.27 15.813a19.419 19.419 0 0 1 12.789-4.78h.016c.73.006 1.46.053 2.18.141a41.406 41.406 0 0 1 4.707-13.02c11.173-19.768 36.237-26.857 56.087-15.964a41.914 41.914 0 0 1 36.052-23.101c11.216-.394 21.906 3.605 30.111 11.256 8.003 7.462 12.705 17.529 13.295 28.425a36.728 36.728 0 0 1 26.442-3.747 37.037 37.037 0 0 1 28.754-23.477c19.914-3.2 38.734 10.2 42.295 29.968 12.01-6.499 26.393-5.905 37.832 1.569a37.05 37.05 0 0 1 12.833-12.84c8.479-5.055 18.419-6.506 27.991-4.083 9.428 2.386 17.385 8.249 22.452 16.529 9.75-4.115 21.01-.138 26.017 9.181a29.24 29.24 0 0 1 3.771-1.487 29.108 29.108 0 0 1 14.915-17.359c6.958-3.408 14.828-3.903 22.159-1.395 6.305 2.159 11.562 6.317 15.079 11.865a37.91 37.91 0 0 1-.473-5.962 37.574 37.574 0 0 1 .375-5.35c1.413-9.917 6.604-18.689 14.615-24.702 8.011-6.012 17.884-8.547 27.8-7.133 20.305 2.894 34.52 21.637 31.903 41.917 9.693 1.446 17.09 9.112 18.178 18.865 22.455 5.604 36.921 30.9 37.065 31.157a.5.5 0 0 1-.435.746z"/></g></svg></g><g transform="translate(108.0 484.0) rotate(0.0 68.0 15.0) scale(1.367837710078751 1.3182756953904293)"><svg width="99.427" height="22.757" viewBox="0 0 99.427 22.757"><path d="M47.55 22.757h-6.08a1.001 1.001 0 0 1-.044-.087c-.015-.02-.015-.047-.029-.067-.442-1.414-.839-2.575-1.016-4.056v-.053c-.044-.38-.059-.787-.059-1.221 0-.033 0-.06-.015-.087 0-.507.015-1.054.074-1.661.044-.547.088-1.121.162-1.701.133-.934.324-1.901.589-2.896a18.798 18.798 0 0 1 1.531-3.936c0-.033.015-.067.045-.093 1.045-2.022 2.561-4.03 4.725-5.898a22.817 22.817 0 0 0-1.296 3.269.131.131 0 0 0-.029.067 24.12 24.12 0 0 0-.986 4.724c-.044.42-.074.834-.088 1.228-.133 2.649.221 4.61.398 5.444v.007c.029.16.059.28.074.354-.869 1.501-.029 3.523.883 5.01.339.554.677 1.034.957 1.394v.007c.086.092.145.179.204.252z" fill="#93c3ff"/><path d="M42.117 21.823c-.059.32-.309.607-.692.847a.76.76 0 0 1-.147.087H34.3c-.795-.34-1.266-.841-1.163-1.394.427-1.408.677-2.769.78-4.083.074-.827.088-1.635.059-2.415a19.078 19.078 0 0 0-.574-3.876v-.007C31.945 5.077 28.088.987 26.66 0c1.266.547 4.829 2.956 8.229 6.352 2.164 2.162 4.269 4.73 5.653 7.472 1.325 2.569 2.032 5.297 1.575 7.999z" fill="#93c3ff"/><path d="M85.059 4.804c-.971 1.141-2.885 3.036-4.519 10.214v.013c-.486 2.088-.942 4.63-1.325 7.726h-7.257a16.992 16.992 0 0 1 1.266-4.343v-.013c3.017-7.032 9.995-12.336 11.835-13.597zm-16.841-.127c-.824 1.161-2.488 3.089-3.239 10.208-.221 2.122-.368 4.71-.383 7.873h-7.214c.059-2.008.53-3.936 1.251-5.738 2.504-6.339 8.01-11.129 9.585-12.343z" fill="#bedbff"/><path d="M99.427 11.415c-1.457.701-7.552 4.537-8.994 11.008-.015.12-.088.233-.206.334H85.56c-.221-.18-.324-.407-.25-.64.235-.721.618-1.414 1.089-2.082 3.298-4.777 11.512-8.173 13.028-8.62zM60.534 22.717l-.53.04h-6.757c-1.222-3.683-.971-7.199-.147-10.181 1.178-4.283 3.504-7.459 4.343-8.453-.441 1.348-1.575 3.703 1.193 12.896.485 1.662 1.117 3.55 1.898 5.698zm8.95-6.878c-.368 1.801-.53 3.843-.368 6.151.029.28-.206.554-.589.767H62.27c-.25-.153-.383-.34-.368-.54.103-2.435 1.355-4.984 3.077-7.332 3.371-4.617 8.568-8.493 10.614-9.414-1.28 1.001-4.872 4.276-6.109 10.368zm19.211-6.792c-1.192.834-4.769 3.689-6.227 9.207a19.55 19.55 0 0 0-.618 4.063c0 .153-.103.307-.28.44h-5.403c-.147-.12-.221-.254-.192-.394.412-2.495 2.311-5.097 4.564-7.332v-.013c3.019-3.002 6.64-5.357 8.156-5.971z" fill="#93c3ff"/><g fill="#bedbff"><path d="M73.547 21.99c.088.294-.103.56-.471.767h-5.123c-.25-.167-.398-.36-.427-.581-.25-2.255.618-4.417 1.958-6.338 2.767-3.963 7.537-6.879 8.7-7.399-1.104.801-4.725 4.417-4.961 9.961v.013a13.906 13.906 0 0 0 .324 3.577zm-18.799.367c-.015.147-.103.28-.265.4h-4.976c.544-.914 2.149-3.923.648-5.804.015-.2.044-.814-.029-1.741-.176-2.248-.927-6.358-4.019-10.875-.044-.06-.074-.113-.118-.173.044.033.103.073.147.107 3.577 2.549 5.683 5.517 6.963 8.306a22.467 22.467 0 0 1 1.339 3.716c.766 2.741.531 4.143.31 6.064z"/><path d="M52.143 22.237c-.044.194-.177.374-.397.52h-4.99c-.427-.227-.663-.534-.619-.834.088-.28.177-.554.251-.821.25-.921.397-1.801.471-2.642.309-3.376-.677-6.138-1.825-8.173-.854-1.528-1.796-2.642-2.37-3.296a5.42 5.42 0 0 1-.368-.4c.103.073.251.173.413.307.574.434 1.443 1.188 2.414 2.162 1.619 1.601 3.562 3.796 5.005 6.151 1.411 2.322 2.353 4.804 2.015 7.026zM92.626 9.774c-1.237.867-5.167 4.023-6.227 10.261a18.65 18.65 0 0 0-.265 2.328c0 .14-.088.274-.236.394h-5.197c-.118-.107-.176-.227-.147-.354.235-1.381.942-2.795 1.913-4.15 2.931-4.109 8.275-7.725 10.159-8.479z"/><path d="M47.432 22.264a.704.704 0 0 1-.088.233v.007a.785.785 0 0 1-.221.254h-6.581c-.044-.013-.073-.027-.073-.047-.354-.22-.545-.494-.515-.781.177-.714.294-1.414.353-2.095.015-.007 0-.007 0-.013.059-.434.074-.854.074-1.274v-.053c0-.414-.029-.821-.059-1.221 0-.033 0-.06-.015-.087-.618-6.225-5.388-10.675-6.934-11.602.339.127.854.387 1.516.767 1.604.927 3.989 2.542 6.242 4.577 1.604 1.428 3.135 3.062 4.298 4.804v.007c.589.887 1.089 1.795 1.428 2.722.487 1.253.707 2.534.575 3.802zm-11.571-.768c.074.427-.192.827-.721 1.134a1.857 1.857 0 0 1-.235.127h-6.742v-.007c-.603-.274-1.001-.64-1.089-1.014a21.707 21.707 0 0 0-.442-3.316C24.408 7.933 15.104 1.688 13.028.167c2.532 1.147 15.678 9.167 20.89 17.113.368.54.692 1.087.957 1.628v.007s.015.007 0 .013c.015 0 .015.007 0 .02.456.854.794 1.714.986 2.548z"/></g><path d="M28.338 22.364c.029.14-.029.267-.176.387v.007h-5.417c-.177-.133-.28-.287-.28-.44a18.879 18.879 0 0 0-.722-4.437c-1.516-5.271-4.961-8.019-6.124-8.833 2.046.827 7.994 4.864 11.011 9.374.869 1.293 1.488 2.634 1.708 3.942zm-8.14-.22c0 .207-.118.394-.324.554v.007l-.073.053h-5.079c-.339-.2-.559-.447-.559-.694a14.12 14.12 0 0 0-.309-5.684C12.5 11.129 8.525 7.84 7.509 6.926c1.678.914 10.584 7.532 12.381 13.423v.007c.19.607.293 1.2.308 1.788z" fill="#93c3ff"/><path d="M12.425 22.757H8.583a.349.349 0 0 1-.088-.133c-1.516-5.718-7.287-8.9-8.494-9.621 1.163.434 6.89 3.303 10.275 6.485 1.001.941 1.811 1.908 2.223 2.849a.404.404 0 0 1-.074.42zm28.382-.613c0 .207-.133.4-.339.567-.015.013-.044.033-.059.047H35.33a.58.58 0 0 1-.191-.127c-.235-.173-.368-.367-.368-.567.162-1.094.191-2.135.103-3.116.015-.013.015-.02 0-.02.015-.007 0-.013 0-.013v-.007a13.872 13.872 0 0 0-.898-4.043c-1.649-4.37-4.961-7.119-5.859-7.939.751.407 2.93 1.948 5.285 4.056v.007c2.767 2.475 5.756 5.731 6.904 8.833 0 .007.015.007 0 .013.295.781.472 1.561.501 2.309z" fill="#bedbff"/><path d="M16.296 22.137c0 .233-.147.447-.398.621h-5.123c-.324-.187-.515-.42-.515-.681.088-.894.088-1.761.014-2.589C9.657 13.25 4.637 8.88 3.18 8.046c1.443.52 7.287 3.97 10.673 8.333 1.398 1.815 2.385 3.783 2.443 5.758zm7.523.38c0 .087-.044.167-.118.24h-3.769c-.029-.013-.044-.033-.059-.053v-.007a.403.403 0 0 1-.118-.26 10.2 10.2 0 0 0 .133-2.082v-.007c-.192-4.543-3.592-7.412-4.343-8.126.795.447 4.019 2.862 6.198 5.658 1.193 1.521 2.061 3.149 2.076 4.637z" fill="#bedbff"/></svg></g><g transform="translate(190.0 300.0) rotate(0.0 210.0 110.0) scale(1.3470216389404714 1.341790680653818)"><svg width="311.799" height="163.96" viewBox="0 0 311.799 163.96"><path d="M145.865 104.023a1.5 1.5 0 0 1-1.061-2.56l17.397-17.397a1.5 1.5 0 1 1 2.121 2.121l-17.397 17.397a1.499 1.499 0 0 1-1.06.439z" fill="#93c3ff"/><path d="m169.612 83.722-10.156-3.958a1.088 1.088 0 0 0-1.414.598v.054l-1.707 4.643a1.087 1.087 0 0 0 .553 1.434h.088l10.2 3.958a1.088 1.088 0 0 0 1.414-.598v-.054l1.707-4.643a1.086 1.086 0 0 0-.576-1.424z" fill="#b2bdcb"/><circle cx="163.262" cy="85.125" fill="#93c3ff" r="1.631"/><g fill="#cfd8dc"><path d="M59.806 54.678h2.175v48.388h-2.175z"/><path d="m47.32 56.619 2.102-.563 12.522 46.737-2.1.563z"/><path d="m35.748 61.705 1.884-1.088 24.193 41.903-1.884 1.088z"/><path d="m25.914 69.626 1.538-1.538 34.215 34.215-1.538 1.538z"/><path d="m18.459 79.818 1.087-1.884 41.904 24.194-1.088 1.883z"/><path d="m13.868 91.592.563-2.101 46.737 12.522-.563 2.101z"/><path d="M12.505 101.979h48.388v2.175H12.505z"/><path d="m13.875 114.538 46.737-12.522.562 2.1-46.737 12.523z"/><path d="m18.417 126.34 41.907-24.183 1.087 1.884-41.907 24.183z"/><path d="m25.914 136.51 34.216-34.215 1.538 1.538-34.216 34.215z"/><path d="m35.764 144.38 24.183-41.907 1.884 1.087-24.183 41.907z"/><path d="m47.316 149.534 12.522-46.737 2.101.563-12.522 46.737z"/><path d="M59.806 103.067h2.175v48.388h-2.175z"/><path d="m59.844 102.792 12.522-46.737 2.101.563-12.522 46.737z"/><path d="m59.96 102.518 24.194-41.903 1.884 1.088-24.194 41.903z"/><path d="m60.12 102.302 34.214-34.215 1.538 1.538-34.215 34.215z"/><path d="m60.34 102.13 41.903-24.194 1.087 1.883-41.903 24.194z"/><path d="m60.621 102.012 46.737-12.522.563 2.1-46.737 12.523z"/><path d="M60.893 101.979h48.388v2.175H60.893z"/><path d="m60.615 104.12.563-2.101 46.737 12.522-.563 2.101z"/><path d="m60.379 104.049 1.087-1.884 41.907 24.183-1.087 1.884z"/><path d="m60.12 103.833 1.538-1.537 34.215 34.215-1.538 1.538z"/><path d="m59.957 103.55 1.884-1.087 24.183 41.907-1.883 1.087z"/><path d="m59.849 103.357 2.1-.563 12.523 46.737-2.1.563z"/></g><path d="M60.893 160.698c-31.829 0-57.631-25.802-57.631-57.631s25.802-57.631 57.631-57.631 57.631 25.802 57.631 57.631c-.042 31.811-25.82 57.588-57.631 57.631zm0-104.389c-25.823 0-46.757 20.934-46.757 46.757s20.934 46.757 46.757 46.757 46.757-20.934 46.757-46.757c0-25.823-20.933-46.757-46.757-46.757z" fill="#b2bdcb"/><path d="M60.893 163.96C27.263 163.96 0 136.697 0 103.067s27.263-60.893 60.893-60.893 60.893 27.263 60.893 60.893c-.036 33.615-27.277 60.857-60.893 60.893zm0-113.087c-28.826 0-52.194 23.368-52.194 52.194s23.368 52.194 52.194 52.194 52.194-23.368 52.194-52.194-23.368-52.194-52.194-52.194z" fill="#7f92a8"/><path d="M134.366 102.633 99.96 10.966l4.68-1.757 34.407 91.667z" fill="#90a4ae"/><path d="m106.151 32.622 8.144-3.057a1.088 1.088 0 0 1 1.4.636l25.75 68.594a1.088 1.088 0 0 1-.636 1.4l-8.144 3.057a1.088 1.088 0 0 1-1.4-.636l-25.75-68.594a1.086 1.086 0 0 1 .636-1.4z" fill="#93c3ff"/><path d="M120.359 1.941H84.182a2.97 2.97 0 0 0-2.969 2.969c0 4.458 8.416 12.875 15.843 12.875 3.958 0 4.937-8.851 23.107-8.906a3.6 3.6 0 0 0 3.632-3.262 3.468 3.468 0 0 0-3.261-3.664h-.175z" fill="#99a8ba"/><path d="M249.818 54.678h2.175v48.388h-2.175z" fill="#cfd8dc"/><path d="m237.34 56.611 2.1-.563 12.523 46.737-2.101.563z" fill="#cfd8dc"/><path d="m225.767 61.707 1.884-1.088 24.193 41.904-1.883 1.087z" fill="#cfd8dc"/><path d="m215.93 69.624 1.537-1.538 34.215 34.215-1.538 1.538z" fill="#cfd8dc"/><path d="m208.468 79.81 1.087-1.883 41.903 24.193-1.087 1.884z" fill="#cfd8dc"/><path d="m203.887 91.587.563-2.101 46.737 12.522-.563 2.101z" fill="#cfd8dc"/><path d="M202.517 101.979h48.388v2.175h-48.388z" fill="#cfd8dc"/><path d="m203.892 114.532 46.737-12.523.563 2.101-46.737 12.523z" fill="#cfd8dc"/><path d="m208.428 126.323 41.907-24.183 1.087 1.884-41.907 24.183z" fill="#cfd8dc"/><path d="m215.928 136.509 34.215-34.215 1.538 1.538-34.215 34.215z" fill="#cfd8dc"/><path d="m225.794 144.38 24.184-41.908 1.883 1.087-24.183 41.908z" fill="#cfd8dc"/><path d="m237.334 149.528 12.522-46.737 2.101.563-12.522 46.737z" fill="#cfd8dc"/><path d="M249.818 103.067h2.175v48.388h-2.175z" fill="#cfd8dc"/><path d="m249.863 102.787 12.523-46.737 2.1.563-12.522 46.737z" fill="#cfd8dc"/><path d="m249.97 102.51 24.194-41.902 1.884 1.087-24.194 41.903z" fill="#cfd8dc"/><path d="m250.133 102.301 34.216-34.215 1.538 1.538-34.216 34.215z" fill="#cfd8dc"/><path d="m250.358 102.132 41.903-24.193 1.088 1.884-41.903 24.193z" fill="#cfd8dc"/><path d="m250.64 102.006 46.737-12.523.563 2.101-46.737 12.523z" fill="#cfd8dc"/><path d="M250.906 101.979h48.388v2.175h-48.388z" fill="#cfd8dc"/><path d="m250.634 104.113.563-2.1 46.737 12.522-.563 2.101z" fill="#cfd8dc"/><path d="m250.41 104.05 1.087-1.884 41.907 24.183-1.087 1.884z" fill="#cfd8dc"/><path d="m250.135 103.831 1.538-1.537 34.215 34.215-1.538 1.538z" fill="#cfd8dc"/><path d="m249.97 103.532 1.883-1.087 24.184 41.907-1.884 1.087z" fill="#cfd8dc"/><path d="m249.867 103.35 2.101-.562 12.523 46.737-2.101.563z" fill="#cfd8dc"/><path d="M250.906 160.698c-31.829 0-57.631-25.802-57.631-57.631s25.802-57.631 57.631-57.631 57.631 25.802 57.631 57.631c-.043 31.811-25.82 57.588-57.631 57.631zm0-104.389c-25.823 0-46.757 20.934-46.757 46.757s20.934 46.757 46.757 46.757 46.757-20.934 46.757-46.757c0-25.823-20.934-46.757-46.757-46.757z" fill="#b2bdcb"/><path d="M250.906 163.96c-33.63 0-60.893-27.263-60.893-60.893s27.263-60.893 60.893-60.893 60.893 27.263 60.893 60.893c-.036 33.615-27.278 60.857-60.893 60.893zm0-113.087c-28.826 0-52.194 23.368-52.194 52.194s23.368 52.194 52.194 52.194 52.194-23.368 52.194-52.194-23.368-52.194-52.194-52.194z" fill="#7f92a8"/><circle cx="250.906" cy="103.067" fill="#93c3ff" r="5.437"/><circle cx="61.472" cy="103.067" fill="#93c3ff" r="5.437"/><path d="M199.194.043h5v16.634h-5z" fill="#90a4ae"/><path d="M217.152 26.325h-5.576a2.5 2.5 0 1 1 0-5h5.576a6.981 6.981 0 0 0 6.974-6.974v-2.376c0-3.846-3.128-6.975-6.974-6.975h-18.003a2.5 2.5 0 1 1 0-5h18.003c6.603 0 11.974 5.372 11.974 11.975v2.376c-.001 6.603-5.372 11.974-11.974 11.974z" fill="#93c3ff"/><path d="m246.679 104.746-49.184-69.158V15.032h9v17.682l47.518 66.816z" fill="#93c3ff"/><path d="m139.956 109.224-.112-.001c-26.42-.658-76.71-1.908-77.935-1.925a4.513 4.513 0 0 1-3.973-2.49 4.5 4.5 0 0 1 .382-4.663l47.337-64.834a4.499 4.499 0 0 1 3.292-1.833l91.616-7a4.5 4.5 0 0 1 .686 8.974l-89.547 6.842-41.043 56.21c16.544.405 52.216 1.292 67.473 1.672l63.861-64.189a4.5 4.5 0 1 1 6.38 6.348l-65.227 65.563a4.502 4.502 0 0 1-3.19 1.326z" fill="#93c3ff"/><path d="M145.864 91.106c-6.306 0-11.417 5.112-11.417 11.417s5.112 11.417 11.417 11.417c6.306 0 11.417-5.112 11.417-11.417-.005-6.303-5.114-11.411-11.417-11.417z" fill="#93c3ff"/><path d="M145.864 87.843c-8.101.006-14.664 6.578-14.658 14.68.006 8.101 6.578 14.664 14.68 14.658 8.101-.006 14.664-6.578 14.658-14.68-.006-8.093-6.565-14.652-14.658-14.658zm10.211 9.635a6.524 6.524 0 0 1-8.112-4.35 6.692 6.692 0 0 1-.272-1.794 11.442 11.442 0 0 1 8.384 6.144zm-11.842-6.22a6.524 6.524 0 0 1-6.524 6.372 6.381 6.381 0 0 1-1.968-.315 11.403 11.403 0 0 1 8.492-6.057zm-9.786 11.276c.004-.649.062-1.296.174-1.936a6.524 6.524 0 0 1 4.067 8.166 6.17 6.17 0 0 1-.913 1.783 11.288 11.288 0 0 1-3.328-8.013zm6.111 10.08a6.523 6.523 0 0 1 9.025-1.337 6.068 6.068 0 0 1 1.414 1.424 11.242 11.242 0 0 1-10.439-.087zm13.255-1.936a6.524 6.524 0 0 1 1.659-9.076 6.715 6.715 0 0 1 1.653-.816c.095.579.146 1.164.152 1.751a11.282 11.282 0 0 1-3.464 8.141z" fill="#4c6786"/><path d="M127.378 122.508a1.5 1.5 0 0 1-1.061-2.56l18.486-18.485a1.5 1.5 0 1 1 2.121 2.121l-18.486 18.485a1.491 1.491 0 0 1-1.06.439z" fill="#93c3ff"/><path d="m133.892 120.671-9.482-5.491a1.087 1.087 0 0 0-1.498.345l-2.425 4.241a1.087 1.087 0 0 0 .345 1.498l9.482 5.491c.509.318 1.18.164 1.498-.345l2.425-4.241a1.088 1.088 0 0 0-.345-1.498z" fill="#b2bdcb"/><circle cx="127.379" cy="121.009" fill="#93c3ff" r="1.631"/></svg></g><g transform="translate(617.0 93.0) rotate(19.767395655430793 41.0 33.0) scale(0.8817204301075269 0.88)"><svg width="93" height="75" viewBox="0 0 93 75"><path d="M.756 74.5s-5.983-47.721 39.889-42.645c0 0 6.981-37.568 51.855-30.461 0 0-37.894 6.092-39.889 33.507 0 0-5.983 12.184-17.95 19.292l1.994-12.184c.001 0-25.927 0-35.899 32.491z" fill="#fff"/><path d="M.756 75c-.015 0-.029 0-.044-.002a.5.5 0 0 1-.453-.436c-.026-.208-2.474-20.934 8.748-33.649 6.876-7.792 17.408-11.04 31.245-9.603C41.166 27.423 48.794 0 81.695 0c3.447 0 7.109.303 10.883.901a.5.5 0 0 1 .002.987c-.375.06-37.527 6.348-39.47 33.049a.476.476 0 0 1-.05.184c-.061.123-6.187 12.4-18.144 19.501a.5.5 0 0 1-.749-.511l1.895-11.575c-3.901.27-25.922 3.089-34.829 32.11A.498.498 0 0 1 .756 75zm33.328-43.023c-10.519 0-18.703 3.228-24.323 9.594C1.118 51.36.809 66.104 1.069 71.936 11.558 41.866 36.4 41.509 36.656 41.509a.5.5 0 0 1 .494.581l-1.818 11.106C45.914 46.502 51.579 35.82 52.12 34.765 53.867 11.804 80.706 3.59 89.591 1.494A66.24 66.24 0 0 0 81.695 1C47.31 1 41.194 31.637 41.136 31.947a.502.502 0 0 1-.547.406 59.18 59.18 0 0 0-6.505-.376z" fill="#60657C"/></svg></g><g transform="translate(572.0 73.0) rotate(-45.56681427124797 17.0 22.0) scale(0.8292682926829268 0.8301886792452831)"><svg width="41" height="53" viewBox="0 0 41 53"><path d="M.5.614s25.44-3.052 24.456 22.382c0 0 19.673 1.017 14.755 29.504 0 0-5.342-22.249-18.689-23.399 0 0-4.96-2.254-8.853-9.156l5.902 1.017S18.297 6.366.5.614z" fill="#fff"/><path d="M39.711 53a.5.5 0 0 1-.486-.383c-.053-.219-5.413-21.912-18.246-23.018a.491.491 0 0 1-.164-.043c-.208-.095-5.153-2.401-9.081-9.366a.5.5 0 0 1 .52-.739l5.299.913C17.387 17.592 15.762 6.073.347 1.09A.5.5 0 0 1 .44.118C.48.113 1.44 0 2.982 0c4.162 0 11.93.816 17.188 6.281 3.701 3.847 5.483 9.317 5.301 16.262 1.644.199 7.012 1.22 11.017 6.232 4.271 5.345 5.521 13.356 3.717 23.81a.502.502 0 0 1-.477.415h-.017zM21.157 28.611c11.066 1.034 16.646 15.767 18.411 21.522 1.206-9.034-.087-15.997-3.851-20.719-4.394-5.512-10.725-5.915-10.788-5.918a.503.503 0 0 1-.474-.519c.267-6.888-1.418-12.272-5.007-16.003C14.469 1.797 7.047 1.006 3.032 1c15.56 6.284 15.54 19.827 15.538 19.969a.497.497 0 0 1-.585.485l-4.838-.834c3.406 5.534 7.428 7.698 8.01 7.991z" fill="#60657C"/></svg></g><g transform="translate(443.0 64.0) rotate(26.413733729596718 17.0 4.0) scale(0.68 0.6665555740709881)"><svg width="50" height="12.002" viewBox="0 0 50 12.002"><path d="M24.92 4.77C9.68-7.01.5 10.16.5 10.16c11.28-8.55 20.17-2 20.17-2l-3.17 3.23c5.94.61 9.48-1.49 9.48-1.49C33.5 2.11 49.5 8.56 49.5 8.56 34.1-7.01 24.92 4.77 24.92 4.77z" fill="#fff"/><path d="M19.64 12.002a21.64 21.64 0 0 1-2.19-.114.502.502 0 0 1-.306-.848l2.738-2.79c-1.068-.63-3.807-1.988-7.537-1.988-3.897 0-7.781 1.446-11.543 4.297a.493.493 0 0 1-.626-.019.498.498 0 0 1-.117-.615C.273 9.526 5.393.142 14.48.142c3.376 0 6.862 1.327 10.369 3.947C25.843 3.008 29.076 0 34.258 0c4.962 0 10.21 2.762 15.598 8.209a.5.5 0 0 1-.542.816C49.252 9 43.107 6.553 37.016 6.553c-4.367 0-7.615 1.234-9.652 3.669a.495.495 0 0 1-.129.108c-.115.069-2.871 1.672-7.595 1.672zm-1.031-1.027c.347.018.691.027 1.031.027 4.034 0 6.576-1.259 7.018-1.494 2.238-2.624 5.724-3.955 10.358-3.955 4.088 0 8.105 1.031 10.488 1.781C42.896 3.129 38.448 1 34.258 1c-5.7 0-8.912 4.037-8.943 4.078a.503.503 0 0 1-.7.088C21.16 2.495 17.749 1.142 14.48 1.142c-5.897 0-10.115 4.429-12.154 7.159C5.6 6.284 8.961 5.262 12.345 5.262c5.176 0 8.483 2.394 8.622 2.496a.499.499 0 0 1 .059.753z" fill="#60657C"/></svg></g><g transform="translate(322.0 165.0) rotate(0.0 89.5 159.5) scale(1.302339117465168 1.305119833730188)"><svg width="137.445" height="244.422" viewBox="0 0 137.445 244.422"><path d="m83.113 64.386-2.351-23.324 9.547-12.575 6.778 5.145 5.946 4.514z" fill="#ed956e"/><path d="m12.775 116.726 69.42 39.062a6.147 6.147 0 0 0 8.372-2.343l1.778-3.16 1.344-2.388a16.04 16.04 0 0 0-4.138-20.534L21.432 74.435C16.17 70.8 8.922 72.473 5.786 78.046l-2.561 4.552c-6.787 12.061-2.512 27.341 9.55 34.128z" fill="#3d94ff"/><path d="M38.928 97.754 5.286 86.549a3.557 3.557 0 0 1-2.133-4.805 20.297 20.297 0 0 1 10.929-10.639l23.539-9.59a34.252 34.252 0 0 0 11.466-7.671l8.947-9.074a5.974 5.974 0 0 1 4.001-1.773c7.318-.313 29.114-.778 30.139 4.7a19.825 19.825 0 0 1-.974 10.74l-5.715 14.986z" fill="#68abff"/><path d="m17.117 69.868 14.205 25.5L.944 87.732l1.685-4.636a20.282 20.282 0 0 1 10.85-11.617z" fill="#3d94ff"/><path d="m68 82.402 4.952-9.185a1.123 1.123 0 0 1 1.967-.019l2.268 4.018z" fill="#002652" opacity=".1"/><path d="M75.35 116.316 27.096 78.349l-5.449-3.711c-5.423-3.693-12.844-1.954-16.061 3.764l-2.361 4.196c-6.787 12.061-2.511 27.341 9.55 34.128l47.352 26.645z" fill="#3d94ff"/><path d="M93.315 47.073a20.183 20.183 0 0 0-.543-1.069l-.023-.044a20.392 20.392 0 0 0-.586-.998l-.074-.116a19.454 19.454 0 0 0-.603-.896 18.148 18.148 0 0 0-.477-.627c-.091-.117-.177-.239-.271-.353a18.46 18.46 0 0 0-7.642-5.467 46.092 46.092 0 0 0-4.539-1.491c-5.745-.906-11.896.69-16.605 5.153l-5.181 4.912.011-.038-6.293 6.381c-.93.941-1.899 1.84-2.906 2.692a5.456 5.456 0 0 0-1.386 6.586l12.667 25.639 33.887-16.856 2.03-12.779c.592-3.72.021-7.396-1.466-10.629z" fill="#68abff"/><g fill="#ed956e"><path d="m85.037 101.501 34.926 30.322 6.752-7.777-19.879-24.758a37.468 37.468 0 0 0-3.523-3.493l-10.425-9.05-8.225 9.474a3.746 3.746 0 0 0 .374 5.282z"/><path d="m119.74 121.714 15.21 2.412a2.12 2.12 0 0 0 2.425-1.761l.044-.279a2.12 2.12 0 0 0-1.761-2.425l-15.21-2.412z"/><path d="m127.096 117.393 1.705 4.291a2.865 2.865 0 0 0 3.369 1.718l.307-.078a.819.819 0 0 0 .591-.995l-1.04-4.081a2.045 2.045 0 0 0-2.487-1.477z"/><path d="m129.901 116.17-3.687-.536a8.475 8.475 0 0 0-5.675 1.178l-3.397 2.099 14.11 2.082.367-2.504a2.044 2.044 0 0 0-1.718-2.319z"/><ellipse cx="120.19" cy="121.582" rx="4.239" ry="3.733" transform="matrix(.9877 .1566 -.1566 .9877 20.5222 -17.3213)"/><path d="m121.462 132.859 4.35.69a4.237 4.237 0 0 0 4.098-1.703l5.62-7.771-17.303-2.743-.921 5.806a5 5 0 0 0 4.156 5.721zm-73.857 80.72c2.19 1.345 5.008.328 5.949-2.064a18.535 18.535 0 0 1 1.462-2.93l9.988-16.236-20.204-8.236-8.305 22.643z"/></g><path d="m51.267 217.037-4.123-2.417 5.794-6.805a3.409 3.409 0 0 1 4.319-.731l1.656.971z" fill="#a9cfff"/><path d="m36.919 205.794 14.086 8.258-3.003 5.122-14.086-8.258z" fill="#99644c"/><path d="m45.427 229.396-19.65-11.521 1.143-1.99a26.084 26.084 0 0 1 6.018-7.132l4.702-3.882 12.944 15.731z" fill="#013b84"/><path d="m38.037 203.327-4.428 7.551c.449.263 8.445 13.597 8.576 14.101l.775 2.97 23.171 13.586.512-2.585a3.92 3.92 0 0 0-1.124-3.584l-10.417-10.05a11.737 11.737 0 0 1-3.518-7.169l-.59-5.389a3.92 3.92 0 0 0-1.915-2.956z" fill="#013b84"/><path d="m64.863 244.412-40.618-23.814 1.771-3.02 40.618 23.814z" fill="#a9cfff"/><circle cx="37.265" cy="215.798" fill="#a9cfff" r="4.183"/><path d="m118.811 114.201-11.974-14.913a37.6 37.6 0 0 0-3.523-3.494l-10.425-9.05-8.225 9.474a3.745 3.745 0 0 0 .373 5.283l25.78 22.382z" fill="#ed956e"/><path d="M84.377 101.119 65.525 44.302l10.388-3.447c5.316-1.764 11.004 1.391 12.323 6.834l10.682 44.079z" fill="#68abff"/><path d="m90.443 153.6-25.687 39.032-20.668-7.05L48.345 168a25.004 25.004 0 0 1 8.898-13.81l29.225-22.853z" fill="#3d94ff"/><path d="m86.999 32.596 11.531 4.395V3.745A3.745 3.745 0 0 0 94.785 0h-1.717c-7.996 0-14.102 7.141-12.86 15.04L82 26.431a7.912 7.912 0 0 0 4.999 6.165z" fill="#002652"/><path d="M99.999 12.18h10.872V26H99.999z" fill="#ed956e"/><path d="M114.838 13.057v6.592c0 .239-.046.477-.135.699l-.874 2.173c-.294.73-.1 1.565.485 2.091l.524.471V37.09c0 2.541-2.476 4.344-4.895 3.565l-9.804-3.161L88.23 34.41l-.714-.986z" fill="#ed956e"/><path d="m111.548 32.68 5.11-3.406a1.873 1.873 0 0 0-.1-3.179l-5.01-2.902z" fill="#ed956e"/><path d="m102.765 38.306-2.312-.804a2 2 0 0 0-2.657 1.889v5.25" fill="#002652" opacity=".1"/><path d="M102.063.749h-.489a3.745 3.745 0 0 0-3.745 3.745v13.007h17.343v-3.643c0-7.24-5.869-13.109-13.109-13.109zM89.5 4.632c-2.453-1.538-5.154-2.577-8.026-2.975a25.854 25.854 0 0 0-4.106-.219c-2.92.064-5.667 1.512-7.991 3.188-1.431 1.032-2.607 2.381-3.597 3.833-1.162 1.704-.923 2.439.074 4.214 1.63 2.901 3.255 5.292 6.212 7 1.941 1.121 1.691-.861 2.272-2.382.47-1.231.722-2.479 1.274-3.691 1.383-3.035 3.834-6.131 7.385-6.64 1.598-.229 3.176-.273 4.761.118.831.205 1.657.488 2.428.862.419.204 1.151 1.127 1.631 1.045.111-1.065-.297-3.086-2.317-4.353z" fill="#002652"/><path d="M92.482 25.982h9.273v-8.476h-9.273a3.409 3.409 0 0 0-3.409 3.409v1.658a3.409 3.409 0 0 0 3.409 3.409z" fill="#ed956e"/><path d="M93.273 24.217h5.443v8.288h-5.443z" fill="#ed956e"/><path d="M107.612 9.991H96.479V15.7c-1.78.141-3.481.248-3.733.165-.382-.127 3.636 4.321 6.155 7.082.692.758 1.953.268 1.953-.758v-3.652c0-.621.503-1.124 1.124-1.124h5.635V9.991z" fill="#002652"/><path d="M113.48 20.104h-2.565c-.298 0-.584.118-.795.329l-1.068 1.068c-.708.708-.207 1.918.795 1.918h3.104m-1.45 8.234.427.835c.234.457.646.798 1.139.943l1.694.498v-2.321z" fill="#002652" opacity=".1"/><path d="M80.321 8.62a1.5 1.5 0 0 1-1.416-1.995c.929-2.657 2.485-4.709 4.625-6.1a1.5 1.5 0 0 1 1.634 2.515c-1.592 1.034-2.713 2.53-3.427 4.574a1.499 1.499 0 0 1-1.416 1.006z" fill="#93c3ff"/></svg></g></svg>