<svg height="1764.725" viewBox="0 0 2909.908 1764.725" width="2909.908" xmlns="http://www.w3.org/2000/svg" xmlns:xlink="http://www.w3.org/1999/xlink"><linearGradient id="a" gradientTransform="matrix(1 0 0 -1 0 16178.013)" gradientUnits="userSpaceOnUse" x1="1530.247" x2="1516.497" y1="16231.461" y2="15647.199"><stop offset=".366" stop-color="#d2edf6"/><stop offset=".507" stop-color="#d4eef6"/><stop offset=".557" stop-color="#dbeff8"/><stop offset=".593" stop-color="#e6f3fa"/><stop offset=".616" stop-color="#f3f6fd"/></linearGradient><path d="m723.245 372.968c-285.191-16.904-588.595-184.965-85.939-304.058 155.192-36.753 1374.915-194.671 1894.366 143.413 200.343 130.435 132.944 218.338 132.944 218.338-1208.598-118.657-1437.188-25.957-1941.371-57.693z" fill="url(#a)"/><path d="m713.866 372.313c-436.02 131.199-667.554 306.458-523.595 562.748 720.666-138.287 1485.174-260.543 2346.636-358.806 59.328-39.807 102.516-90.846 127.709-145.595-1167.592-137.633-1587.799-33.045-1950.749-58.347z" fill="#b8c6b5"/><path d="m2664.615 430.66c-1167.592-137.524-1941.371-57.692-1950.749-58.347-113.858 34.245-213.757 71.543-296.642 112.441 253.345-71.216 405.811-79.504 852.955-65.545 0 0-607.244 56.82-612.37 117.675-7.307 86.375 1747.898-133.162 1979.105-57.802 9.379-14.069 20.83-33.481 27.701-48.422z" fill="#cdd3b9"/><path d="m1828.346 361.626c-89.32 67.508-386.289 104.697-559.476 133.271-203.832 33.59-554.895 115.058-580.961 208.086-15.595 55.73 21.048 106.006 41.333 132.18 73.942-12.978 148.43-25.738 223.463-38.389-29.664-15.268-80.05-53.221-80.813-81.576-1.309-47.877 134.907-115.712 436.129-181.693 156.719-34.354 474.736-92.046 544.426-170.897-8.943-.327-14.723-.764-24.102-.981z" fill="#fcf0f0"/><path d="m1838.146 361.96c-22.139 27.81-193.238 82.66-337.088 107.09-320.854 54.421-584.56 123.019-702.344 204.051-3.708 2.508-21.048 14.287-28.682 36.644-14.178 41.552 33.918 88.557 49.622 110.805 4.472-.764 9.706-1.745 14.178-2.508-17.013-21.267-70.562-68.817-52.676-114.84 26.501-68.162 360.987-172.641 667.336-222.155 260.871-42.206 386.715-106.952 390.205-119.058-.075-.007-.519-.028-.55-.029z" fill="#fff8f9"/><path d="m2539.633 461.851c3.163-36.099-30.646-82.994-59.437 38.934-44.714 189.328 36.208 100.117 38.825 82.231 0 0 2.945 7.307 19.522 4.144-3.926 41.988 30.864 44.824 69.144-2.181 0 0 39.916 51.04 104.261-75.142 64.127-125.855-8.943-94.446-8.943-94.446 68.162-174.714-53.112-120.62-124.764 51.476-13.305-31.736-38.825-3.49-38.607-5.017z" fill="#263530"/><path d="m2705.84 308.186s-137.088 267.96-123.237 250.837c22.139-27.156 129.017-249.747 129.017-249.747s-2.4-1.091-5.78-1.091z" fill="#84865f"/><path d="m190.38 935.061c489.787-93.573 2474.236 211.903 2573.48 317.582 223.681-139.378 109.823-297.733-233.278-372.766 552.278-134.253 427.623-341.684 7.853-305.585-862.881 74.269-1712.673 229.461-2348.054 360.769z" fill="#4e5d58"/><g fill="#8b8960"><path d="m1254.91 764.71c81.576-17.668 169.261-48.205 250.728-66.745-485.097 69.689-938.131 159.118-1314.714 236.878l-.545.109c90.846-17.231 233.497-20.94 405.266-14.723 272.54-54.966 472.01-89.865 578.997-121.601 10.034-2.945-131.744 15.704-116.475 11.997 15.268-3.599 150.502-35.881 196.743-45.914z"/><path d="m2838.238 604.174c-570.818 92.482-1151.997 179.512-990.916 184.965 148.866 5.017 890.202-116.581 1045.066-142.319-10.688-18.649-36.265-36.212-54.151-42.646z"/><path d="m2530.472 879.986c231.425-19.412 390.008-137.197 368.851-215.393-73.506 11.342-632.448 74.706-900.843 148.866-88.993 24.648 131.962 73.615 531.993 66.526z"/></g><path d="m1316.966 980.321c322.926 37.516 654.358 87.139 918.609 135.561 191.4-139.051 142.385-373.662-76.607-503.879-262.288 27.265-560.86 68.32-783.887 105.291 24.102 94.119-14.382 193.884-58.115 263.027z" fill="#9d9d9f"/><path d="m2265.13 696.329c-318.672 55.73-464.049 87.248-359.788 87.575 70.016.218 195.653-15.814 394.578-44.496-8.506-13.196-22.357-31.627-34.79-43.079z" fill="#a9a9ab"/><path d="m2306.573 749.223c-153.12 27.81-249.528 48.532-275.157 56.057-102.298 29.991 41.879 75.36 322.271 74.161-3.272-41.552-23.121-97.39-47.114-130.217z" fill="#a9a9ab"/><path d="m1774.253 1040.522c4.799.764 9.379 1.418 14.287 2.181 103.497-101.316 113.044-308.122-19.354-383.918-3.272.436-8.783 1.124-9.982 1.342 137.088 83.976 117.457 278.424 15.05 380.395z" fill="#c5c5c7"/><path d="m131.269 691.203c-18.867-19.631-38.607-25.629-54.311-17.45-32.063 16.577-15.159 104.806 16.25 179.73 64.127 153.01 125.419 138.397 131.853 136.761 12.542-3.163 19.195-22.576 21.485-28.792 45.478 61.946 110.805 53.766 117.13-4.253.654-5.562 33.808 63.036 74.051 19.304.109 11.997 15.704 40.57 30.428 45.805 7.634 2.726 66.963 23.339 79.832-93.9 17.34-158.573-79.504-108.623-79.504-108.623s1.527-250.401-84.194-247.238c-60.637 1.2-56.82 86.048-56.82 86.048-96.301-463.722-331.652-399.377-196.2 32.608z" fill="#111a17"/><path d="m130.833 343.631s114.186 509.527 120.62 473.1c2.29-13.087-99.899-478.772-99.899-478.772-8.179.109-15.159 2.181-20.721 5.671z" fill="#4e5d58"/><path d="m383.961 572.656s-12.433 338.739 1.309 298.278c4.908-14.614 14.505-295.77 14.505-295.77-4.908-1.963-10.688-2.836-15.814-2.508z" fill="#4e5d58"/><path d="m187.98 935.061c-265.342 51.694-244.621 219.973 29.555 329.142 0 0-156.828 83.867-182.675 146.249-220.955 532.538 3656.66 453.034 2732.38-159.991-232.079-153.774-2240.739-413.772-2579.26-315.4z" fill="#eee8e8"/><path d="m1485.026 994.171c-282.683 131.744-538.503 386.758-785.087 732.149 17.282 2.196 34.781 4.045 52.56 6.005 255.854-346.591 497.395-593.54 782.15-731.937-16.686-2.181-32.936-4.144-49.623-6.216z" fill="#f4f2f3"/></svg>