<svg height="2563.418" viewBox="0 0 2399.444 2563.418" width="2399.444" xmlns="http://www.w3.org/2000/svg"><path d="m281.587 1579.811s-286.799-655.572 35.65-1145.918c37.998-57.744 254.245-360.875 641.056-414.349 1136.952-157.329 1631.033 1049.002 1361.097 1957.432-234.606 789.633-1764.239 691.969-2170.903 235.246-146.655-164.694-192.978-493.227 133.1-632.411z" fill="#2f2b1f"/><path d="m284.789 321.073c-149.964 181.345-302.276 534.428-220.089 959.557 25.51 132.139-285.412-565.381 265.025-1082.943 79.091-74.395 74.182-20.707-44.936 123.387z" fill="#a7aa5b"/><path d="m946.98 16.982c-48.992 7.472-95.102 18.786-138.437 32.981v1746.949l1527.819 123.28c251.684-893.487-257.554-2076.015-1389.382-1903.21z" fill="#a7aa5b"/><path d="m808.65 49.964c-298.114 97.77-462.594 331.949-495.789 382.328-322.449 490.345-39.599 1144.637-39.599 1144.637-179.743 76.743-243.785 211.871-240.476 345.291l775.864-125.308z" fill="#696a3e"/><path d="m808.65 1792.216-8.752 1.388-20.174-1733.607c9.606-3.522 19.319-6.938 28.925-10.033v1742.252z" fill="#464830"/><path d="m808.65 1792.216v237.915l1409.625 150.038c45.149-59.345 76.887-128.157 101.116-203.086 7.685-23.909 14.592-47.815 21.21-72.151z" fill="#3c3523"/><path d="m140.803 2203.363 667.847-173.233v-237.914l-775.971 124.881c1.174 106.095 45.363 211.551 108.124 286.266z" fill="#3c3523"/><path d="m537.86 1557.397-264.362 19.272-.351.257c-180.064 76.85-243.843 212.195-240.32 345.829l506.208-82.294-1.174-283.064z" fill="#3c3523"/><path d="m516.193 1579.811-297.276 23.94c-10.106 5.614-24.415 14.369-31.685 19.822l310.388-23.909-.107 203.439-461.953 62.654c-.854 7.045-1.601 13.129-2.028 20.814l482.66-69.699v-237.061z" fill="#504333"/><path d="m2336.267 1920.646c1.601-5.657 3.1-10.926 4.807-17.543-506.783-43.868-1029.035-72.912-1532.424-110.994-258.194 44.082-517.776 75.249-775.971 119.224 0 6.618.213 15.263.427 20.6l766.471-121.466c-.213 54.115 1.281 149.324 1.067 203.439l-672.838 173.166c4.59 5.87 9.517 12.606 13.39 16.729l667.453-173.884 1409.625 150.252c3.416-4.269 8.897-11.4 12.953-17.804l-1414.466-148.031-1.921-203.439 1521.426 109.752z" fill="#504333"/><path d="m312.861 432.292c-261.93 398.339-124.454 904.801-63.615 1080.915l282.85-13.342 2.241-1302.926c-126.909 97.984-200.557 203.439-221.477 235.353z" fill="#617b32"/><path d="m460.904 259.273c103.213-2.028-3.522 135.448 40.666 181.878-104.708 8.219-67.457 118.157-25.403 133.527-49.526-2.882-85.922 10.994-93.394 62.014-185.721-.107-103.769 114.397 25.168 153.57 69.378 21.134 88.079 93.844 121.807 135.898 5.444 149.537-38.959 199.489-54.115 142.599-18.252-68.204-114.848 18.252-28.072 43.442 84.748 24.656-66.817 40.773 19.319 103.534-42.054 33.408-30.847 134.167 53.795 122.213-29.352 157.649-60.413 55.716-128.297 113.247-35.436 30.1 21.988-70.553 0-96.062-23.162-27.004-98.517 30.42-63.721-13.769 23.268-29.566 4.91-89.445-32.021-108.657-18.786-9.82-48.885-7.045-62.974 3.522-66.515 49.643 15.165 282.123 17.185 281.25l281.143-13.449 2.241-1306.909c-27.186 20.039-49.791 40.505-73.327 62.153z" fill="#415120"/><path d="m229.287 593.571c27.004-61.693 120.718-10.78 4.376 48.031-4.91 2.455-4.376 224.369-4.376 286.169 0 68.418 53.582 64.809 82.294 25.103 34.844-43.931 69.378 10.857 49.098 26.44-80.052 61.693-15.263 78.451 8.219 56.463 11.741-11.1 23.375 78.344-33.835 83.681-101.399 9.393 47.711 116.022-108.977 103.534l3.202-629.422z" fill="#deffec"/><path d="m233.663 582.79c-136.729 334.084-55.93 702.963 0 882.92z" fill="#353126"/><path d="m201.108 1345.739c2.397 12.171 7.368 31.123 12.687 50.928l.088-760.98c-3.365 8.929-10.702 31.36-12.748 40.466l-.028 669.586z" fill="#1f1a14"/><path d="m374.448 1510.966h-13.769v-1143.889l13.769-16.651z" fill="#585448"/><path d="m382.773 1510.966h-13.876v-1153.923l13.876-16.437z" fill="#353126"/><path d="m273.211 1576.901 264.649-18.479-.203-1364.093c-5.977 4.59-11.751 9.013-17.515 13.603v1286.383l-273.638 12.537c2.626 10.496 22.595 62.325 26.707 70.049z" fill="#353126"/><path d="m529.748 1494.529-10.345-.18.448-1286.274 9.709-7.565z" fill="#585448"/><g fill="#353126"><path d="m530.816 784.094-309.855-20.173v-12.701l309.855 20.173z"/><path d="m531.99 1024.677c-100.866-3.843-201.838-7.685-302.703-11.528v-12.595c100.866 3.843 201.838 7.685 302.703 11.528z"/><path d="m535.299 1261.738c-103.107.854-206.107 1.708-309.214 2.562v-12.595c103.107-.854 206.107-1.708 309.214-2.562z"/><path d="m534.231 475.52-230.443-29.246c-16.437 25.937-31.06 52.407-44.295 79.091l274.845 29.459v-79.305h-.107z"/></g><path d="m529.748 507.487-243.938-31.425 2.419-4.181 241.519 30.217z" fill="#1f1a14"/><path d="m273.213 1576.897c-326.078 139.184-271.274 470.631-124.726 635.325 126.802 142.493 361.088 249.762 631.13 305.799l-506.404-941.123z" opacity=".3"/><path d="m946.98 16.982c-148.363 22.628-270.682 80.693-367.279 146.869l1808.215 1492.81c96.703-844.282-417.658-1795.94-1440.936-1639.679z" opacity=".2"/></svg>