<svg height="1836.476" viewBox="0 0 2991.289 1836.476" width="2991.289" xmlns="http://www.w3.org/2000/svg" xmlns:xlink="http://www.w3.org/1999/xlink"><linearGradient id="a" gradientTransform="matrix(1 0 0 -1 0 10847.543)" gradientUnits="userSpaceOnUse" x1="1467.323" x2="1398.882" y1="11280.679" y2="8924.02"><stop offset=".283" stop-color="#f1f8ff"/><stop offset=".526" stop-color="#fbf6fb"/></linearGradient><linearGradient id="b" gradientTransform="matrix(1 0 0 -1 0 10847.543)" gradientUnits="userSpaceOnUse" x1="775.599" x2="583.737" y1="10334.243" y2="10070.313"><stop offset=".29" stop-color="#f1f8ff"/><stop offset=".631" stop-color="#f5faff"/><stop offset=".832" stop-color="#fbfcff"/></linearGradient><linearGradient id="c" x1="1508.88" x2="1384.362" xlink:href="#b" y1="10723.826" y2="10255.702"/><linearGradient id="d" x1="1233.639" x2="1220.705" xlink:href="#b" y1="10690.937" y2="10666.063"/><linearGradient id="e" x1="2014.414" x2="1862.298" xlink:href="#b" y1="10659.24" y2="10449.36"/><linearGradient id="f" gradientTransform="matrix(1 0 0 -1 0 10847.543)" gradientUnits="userSpaceOnUse" x1="2528.437" x2="1283.579" y1="10183.855" y2="9266.885"><stop offset=".152" stop-color="#ecf3fb"/><stop offset=".31" stop-color="#e1ebf6"/><stop offset=".59" stop-color="#c3d7e8"/><stop offset=".951" stop-color="#93b6d2"/></linearGradient><linearGradient id="g" gradientTransform="matrix(1 0 0 -1 0 10847.543)" gradientUnits="userSpaceOnUse" x1="2342.273" x2="2271.432" y1="10459.161" y2="9601.175"><stop offset=".147" stop-color="#cbd4e3"/><stop offset=".234" stop-color="#c7d2e2"/><stop offset=".317" stop-color="#bbccde"/><stop offset=".399" stop-color="#a8c1d8"/><stop offset=".464" stop-color="#93b6d2"/></linearGradient><linearGradient id="h" gradientTransform="matrix(1 0 0 -1 0 10847.543)" gradientUnits="userSpaceOnUse" x1="673.954" x2="1386.417" y1="10325.797" y2="9447.869"><stop offset=".147" stop-color="#91b3ce"/><stop offset=".233" stop-color="#8eafca"/><stop offset=".74" stop-color="#7c99b7"/></linearGradient><linearGradient id="i" gradientTransform="matrix(1 0 0 -1 0 10847.543)" gradientUnits="userSpaceOnUse" x1="845.017" x2="312.748" y1="10242.071" y2="9582.985"><stop offset=".214" stop-color="#abc7db"/><stop offset=".329" stop-color="#a7c4da"/><stop offset=".442" stop-color="#9bbcd5"/><stop offset=".518" stop-color="#8fb4d1"/></linearGradient><linearGradient id="j" gradientTransform="matrix(1 0 0 -1 0 10847.543)" gradientUnits="userSpaceOnUse" x1="1466.44" x2="1468.159" y1="9773.64" y2="8902.385"><stop offset=".06" stop-color="#deeee4"/><stop offset=".192" stop-color="#daece4"/><stop offset=".324" stop-color="#cee6e3"/><stop offset=".456" stop-color="#badde1"/><stop offset=".545" stop-color="#a8d4df"/></linearGradient><linearGradient id="k" gradientTransform="matrix(1 0 0 -1 0 10847.543)" gradientUnits="userSpaceOnUse" x1="763.903" x2="2710.998" y1="9167.281" y2="9317.573"><stop offset=".34" stop-color="#92b8c1"/><stop offset=".617" stop-color="#8fbac0"/></linearGradient><linearGradient id="l" gradientTransform="matrix(1 0 0 -1 0 10847.543)" gradientUnits="userSpaceOnUse" x1="1338.905" x2="1579.086" y1="10169.102" y2="9541.918"><stop offset=".147" stop-color="#38576c"/><stop offset=".74" stop-color="#2c4b60"/></linearGradient><linearGradient id="m" gradientTransform="matrix(1 0 0 -1 0 10847.543)" gradientUnits="userSpaceOnUse" x1="889.773" x2="885.692" y1="8923.112" y2="9596.441"><stop offset=".154" stop-color="#12200f"/><stop offset=".541" stop-color="#2e4728"/></linearGradient><linearGradient id="n" gradientTransform="matrix(1 0 0 -1 0 10847.543)" gradientUnits="userSpaceOnUse" x1="2162.822" x2="2141.588" y1="8975.703" y2="9455.424"><stop offset=".154" stop-color="#12200f"/><stop offset=".733" stop-color="#2e4728"/></linearGradient><path d="m211.093 1183.078c858.914-1237.695 1984.003-1450.168 1576.462-771.675 405.206-483.106 884.067-571.619 313.191-21.014 375.808-287.932 523.542-201.011 132.451 113.666 513.672-195.068 481.62 126.826 259.277 670.108l-2281.381 8.915z" fill="url(#a)"/><path d="m994.442 310.367c-42.452 28.761-270.42 185.941-322.637 246.01-3.715 4.245-.955 14.434 10.826 2.971 83.525-81.72 340.255-268.298 311.811-248.982z" fill="url(#b)"/><path d="m1766.117 1.951c-331.021 2.335-482.257 151.979-483.106 121.095-.212-7.005 97.428-67.711 246.329-102.416 126.508-29.398 252.06-18.785 236.777-18.679z" fill="url(#c)"/><path d="m1250.322 143.742c1.592 3.184-3.184 8.915-10.719 12.842s-15.071 4.563-16.663 1.379 3.184-8.915 10.719-12.842 15.071-4.457 16.663-1.379z" fill="url(#d)"/><path d="m2188.729 39.521c-190.611 86.072-251.211 192.096-258.428 173.948-1.698-4.139 44.362-53.49 125.128-106.555 68.56-45.105 142.109-71.426 133.3-67.393z" fill="url(#e)"/><path d="m749.917 1181.061s1222.305-960.481 1334.591-917.604c212.367 81.19 850.341 907.946 850.341 907.946z" fill="url(#f)"/><path d="m1619.869 1177.241 1315.022-5.827s-627.148-833.293-849.315-907.541c-100.612 112.074-276.477 211.42-140.099 277.646 347.896 168.748-159.514 338.556-325.609 635.722z" fill="url(#g)"/><path d="m211.093 1183.078s502.846-571.619 636.465-571.619c109.739 0 1356.348 563.871 1356.348 563.871l-1992.813 7.748z" fill="url(#h)"/><path d="m847.558 611.459c-140.575-2.281-636.465 571.725-636.465 571.725l259.702-.955c226.589-206.53 464.958-367.636 262.461-422.93-25.577-7.111 63.254-98.171 114.303-147.84z" fill="url(#i)"/><path d="m66.983 1183.354s252.803 8.172 252.803 45.636c0 33.962-90.742 25.79-284.324 97.64-142.109 52.747 176.601 86.072 360.738 144.231 91.803 29.08-261.824 131.284-81.402 174.478 541.903 129.797 878.761 68.454 878.761 68.454 339.087 49.988 459.227 51.367 446.066 5.307 80.235 41.073 419.003 22.818 356.492-50.943 0 0 1183.992-86.39 500.299-242.084-255.881-58.266 1066.294-75.883 34.386-187.32-204.195-22.075 402.82-67.23 402.82-67.23-965.382-4.07-1921.457-.558-2866.64 11.83z" fill="url(#j)"/><path d="m2532.061 1238.584c-204.195-22.075 402.926-67.163 402.926-67.163l-50.785.301c-357.872 8.703-1321.856 31.839-1358.895 30.778-649.306-17.724 1117.979 82.039 1117.979 82.039 7.854 12.842-485.441 10.507-661.193 14.009-180.422 3.608-536.172-5.413-536.065 1.91 0 1.274 9.339 2.335 12.736 2.441 491.278 21.12 1131.744 42.161 1424.664 34.944 98.064-23.454 72.731-53.41-351.366-99.258z" fill="#e8fcf1"/><path d="m672.335 1270.211c62.617-21.544 1461.311 12.842 1461.311 12.842-580.64-.106-1303.177 8.278-1417.373 24.728-79.279 11.356-70.683-28.337-43.938-37.57z" fill="#e8fcf1"/><path d="m1997.269 1667.988s1183.973-86.55 500.28-242.243c-29.504-6.686-37.905-13.12-32.266-18.813-15.813 9.446-11.017 16.213-414.737 49.538-151.767 12.523 65.483 10.295 65.483 10.295-26.108 12.099-40.648 9.764-133.937 28.443-458.484 91.803-1128.167 88.513-1217.741 94.562-2.016.106-5.731.531-6.792 2.653-6.58 13.584 91.166 76.52 258.11 135.104 115.788-2.441 179.148-14.009 179.148-14.009 339.087 49.988 459.227 51.367 446.066 5.307 80.235 41.179 418.897 22.925 356.387-50.836z" fill="url(#k)"/><path d="m68.347 1183.078s13.479-31.627 69.303-44.469c11.25-2.547-7.642-8.915 25.153-21.12 15.283-5.731-3.29-11.462 24.304-20.059 0 0 .424-.212 3.078-1.804 14.221-8.384 0-21.12 42.028-39.056 14.646-6.262 8.278-29.292 18.997-37.252 6.792-5.094 11.993-1.274 24.092-4.245 13.903-3.502 2.759-13.584 35.129-20.059 4.67-.955 2.123-25.047 36.191-22.075 11.568 1.061-18.042-24.622 35.236-18.467 4.351.531 1.168-20.908 27.063-24.728 12.311-1.804-11.144-16.026 44.044-20.271 14.752-1.168.531-15.176 44.362-10.826 7.323.743 6.368-9.021 25.153-6.05 15.707 2.441 18.042-22.287 67.711 12.948 9.339 6.58 34.068-5.413 43.938 12.842 9.764 17.83 39.268-7.005 62.935 10.931 5.731 4.351 37.783-11.462 41.391 4.458 1.274 5.943 29.929-10.826 49.138 7.111 5.837 5.413 55.4-12.736 78.537 27.17 11.356 19.634 48.396-8.384 61.025 16.344 5.413 10.507 18.255-3.927 26.214 10.613 3.184 5.837 18.148-7.96 26.639 8.172 1.698 3.184 14.115-8.278 27.594 11.568 7.429 10.931 21.651-6.05 41.603 16.344 6.262 7.005 30.46-4.245 41.815 11.144 2.229 2.971 27.381-8.49 42.134 7.005 7.005 7.323 10.613-9.552 23.136-6.05 9.127 2.547 5.625-28.549 33.113 0 6.58 6.898 15.92-14.858 41.603 9.976 4.563 4.351 40.011-7.429 55.188 1.592 9.127 5.413 16.344-14.752 28.018-4.245 4.033 3.608 11.356-8.278 15.813 3.821 1.592 4.351 25.365-13.16 30.035.849 5.837 17.405 54.233-2.335 60.07 9.764 2.123 4.351 0 5.731 2.866 7.429 5.731 3.396 22.181-31.309 44.681-10.082 13.584 12.842 30.99-5.519 35.023 7.111 3.927 12.099 18.891-6.792 45.212 6.05 25.684 12.523 18.36-9.764 35.447.743 15.071 9.234 5.837-25.684 78.961 2.229 28.973 11.037 1.804-9.976 84.586.424 14.54 1.804 3.927-15.176 42.983-7.535 11.674 2.335 19.952-19.74 40.223-10.082 20.802 9.976-6.262-43.089 42.134-26.108 33.644 11.781 26.002-57.417 122.156-34.811 33.007 7.747-10.931-29.186 82.464-19.103 12.099 1.274 12.736-30.565 100.187 1.698 27.276 10.082 12.099-26.108 80.765-9.764 27.063 6.474 42.558-17.724 64.527-31.839 44.681-28.761 44.469.531 66.013-4.245 19.103-4.245 5.943-25.578 42.24-16.344 13.797 3.502-3.715-13.584 44.15-10.082 19.316 1.379 21.226-27.276 47.228-29.08 7.642-.531 3.396-10.719 23.986-10.082 11.356.318 16.45-32.052 51.261-28.125 24.728 2.759 24.622-16.875 44.15-8.066 16.132 7.217 12.948 3.396 35.236-2.123 22.287-5.519 2.547 20.908 70.683 63.785 6.155 3.927 1.168 19.422 5.519 23.667 5.731 5.625 6.792 2.016 15.071 6.58 12.417 7.005-1.486 14.221 26.851 25.259 15.92 6.262 4.245 30.672 14.752 45.424 11.674 16.45 15.071 18.148 32.688 32.688 11.25 9.339 5.316 25.361 7.351 27.429 2.429 4.299 36.905 7.913 44.016 39.327 3.184 14.009 24.41-4.245 33.113 14.009 7.429 15.601 10.507 9.127 19.952 9.658 5.625.318 11.887 1.91 23.773 12.842 12.629 11.568 20.908 37.358 20.908 37.358l-2922.942 11.885z" fill="url(#l)"/><path d="m983.828 1036.724c48.396 25.153-50.624 45.53-72.806 45.53-8.172 0 57.841 30.247 99.445 14.115 7.854-3.078-16.556 22.924 29.61 12.736 16.45-3.608 21.12-9.764 40.86-11.993 18.255-2.016-6.686 10.507 41.285 6.05 17.618-1.698 61.556-11.993 44.681-13.479-41.285-3.715 71.32-7.642 71.32-9.021s-63.785-2.547-82.145 1.592c-9.234 2.123-33.962 19.528-47.334 1.061-18.36-25.471-40.86-2.335-42.028-14.965-1.91-19.528-36.827-30.99-68.348-34.492-4.882-.636-18.467.849-14.54 2.866z" fill="#3d5b75"/><path d="m1249.473 1078.008c-6.474-7.111 4.882 7.111 32.264-.743 18.36-5.307 37.783-3.715 38.313-1.91.849 3.396-54.339 1.486-28.125 5.731 7.854 1.38-31.097 9.34-42.452-3.078z" fill="#3d5b75"/><path d="m1664.762 1094.989c-1.061 2.547 65.801 16.663 38.313 21.651-33.537 6.155 60.494 6.686 69.409 5.094 24.092-4.351 11.568-24.516 57.417-11.568 69.409 19.634-67.605-26.533 66.119-10.826 16.238 1.91 4.563-12.205 26.002-18.042 49.138-13.373 86.709-29.292 67.924-25.259-122.156 26.214-4.351-43.301-4.351-43.301-29.61-4.882-47.016 21.332-53.49 23.136-47.652 13.054-45.212 33.219-57.098 36.827-18.467 5.625-39.268 7.854-43.301 7.96-64.315 1.698-28.973 14.752-52.004 20.908-32.476 8.703-62.723 3.715-76.626 1.486-23.136-3.927-37.358-10.189-38.313-8.066z" fill="#3d5b75"/><path d="m95.751 1400.102c279.997 58.166 366.021 93.09 414.099 52.866 12.311-10.295 84.374 28.125 131.602-23.986 16.344-18.042 61.874 14.115 101.461-4.139 9.87-4.563-1.698-15.283 20.589-12.205 64.103 8.809 83.525-2.653 134.892-8.703 66.119-7.747 218.841-16.026 239.537-18.891q.106-.106-1042.179 15.057z" fill="#8ebbc1"/><path d="m94.137 1397.143c-70.789 26.745 1859.619-36.403 1879.678-38.525 19.422-2.016-824.103-14.009-842.676-36.297-29.61-35.66-347.047 1.91-367.318-15.389-115.364-98.064-379.417-84.904-392.046-54.975-45.954 109.208-145.823 63.148-153.252 117.911-1.486 10.719-28.019-9.127-124.385 27.275z" fill="#94ac6e"/><path d="m452.009 1401.282c93.819-1.592 200.268-3.927 312.342-6.58-48.077-47.971-196.766-153.571-274.772-99.126-29.61 20.802-37.464 71.107-37.57 105.706z" fill="#8a9b67"/><path d="m1029.146 1316.908c-37.252.424-39.799 47.228-32.794 71.851 96.366-2.547 193.158-5.307 286.446-7.96-83.312-25.684-224.997-64.209-253.652-63.891z" fill="#8a9b67"/><path d="m318.564 1403.133c181.483-.637 377.963-6.03 591.816-12.079-61.556-9.339-156.748-12.378-159.295-15.349-14.115-16.875-51.898-24.728-71.426-7.535-28.655-20.165-71.638-15.283-91.803 4.882-59.115-58.584-123.111-58.159-180.316-19.634-46.379-21.227-90.887 7.475-88.976 49.716z" fill="#1d2e42"/><path d="m569.919 1395.445c18.148-12.205 36.933-14.434 52.428-2.971 19.528 13.373 41.285-22.075 59.539-8.809 0 0 8.745-22.598 54.169-18.99-16.489-8.65-41.976-9.579-56.41 3.157-28.655-20.165-71.845-15.609-92.01 4.556-29.504-29.186-59.862-42.991-90.321-45.538 15.813 8.915 45.966 25.613 72.604 68.595z" fill="#32474c"/><path d="m2387.617 1466.765c-219.053-20.802-359.039 32.688-347.577 86.178 13.797 64.527-1185.902 52.216-1420.239 149.644 361.162 49.881 573.389 12.178 573.389 12.178 106.555 15.707 193.679 26.501 259.586 32.656 65.914 6.768 150.297 17.41 181.377-5.2 6.262-5.2 9.454-13.742 7.119-21.808 14.009 7.217 39.465 15.791 62.627 18.758 61.915 7.173 165.358 16.197 272.2-17.366 27.063-11.674 37.727-34.501 21.277-53.923 0 0 167.686-12.205 340.361-35.766 146.142-84.161 135.741-157.179 49.881-165.351z" fill="#2d3f25"/><path d="m2069.862 1522.483c0-16.344 275.302-42.346 347.684-15.92 14.434 5.307 12.523 20.271-12.736 14.115-132.451-32.37-334.948 1.804-334.948 1.804z" fill="#3a4c32"/><path d="m1045.066 1673.083c564.614-84.374 941.271-32.688 941.271-32.688 14.009 2.335 8.703 12.311-10.931 14.54 0 0-327.837 19.74-332.189 15.389-4.563-4.563 294.088-24.516 294.088-24.516s-402.235-27.17-892.239 27.275z" fill="#3a4c32"/><g fill="#0b1a07"><path d="m1225.912 1732.091c-1.274-26.745-5.625-72.169-8.809-75.459-1.168-1.168 1.061 54.975 4.351 76.096.424 2.335 4.563 2.016 4.457-.637z"/><path d="m1224.427 1728.907c-12.629-39.056-36.403-104.857-40.86-108.89-1.592-1.486 24.622 80.765 36.827 111.013 1.379 3.29 5.307 1.698 4.033-2.123z"/><path d="m1219.014 1724.662c-25.047-46.804-69.834-125.34-75.565-129.797-2.123-1.592 50.306 96.897 72.169 132.876 2.335 4.032 5.838 1.485 3.396-3.078z"/><path d="m1220.075 1729.332c-31.521-42.77-87.027-114.09-93.395-117.699-2.335-1.274 63.572 88.725 90.529 121.201 2.866 3.714 5.943.743 2.866-3.503z"/><path d="m782.393 1594.122c-44.362-42.028-121.413-111.65-128.949-114.727-2.759-1.168 90.105 87.345 126.826 118.866 4.033 3.502 6.474-.106 2.123-4.139z"/><path d="m778.572 1594.546c-41.815-32.9-114.197-86.815-121.307-88.619-2.547-.637 84.904 68.56 119.397 92.758 3.927 2.759 6.049-.955 1.91-4.139z"/><path d="m1864.5 1722.858c29.504-44.257 77.582-120.671 78.749-127.887.424-2.653-61.768 89.998-83.1 126.402-2.336 4.033 1.485 5.837 4.351 1.486z"/><path d="m1851.445 1750.24c17.512-43.726 45.212-118.866 44.681-125.446-.212-2.441-37.358 89.15-49.138 124.703-1.274 3.821 2.759 4.988 4.457.743z"/><path d="m2099.685 1656.42c45.212-64.209 119.821-175.009 122.475-184.985.955-3.715-94.35 130.859-127.781 183.393-3.821 5.625.849 7.748 5.307 1.592z"/><path d="m2056.172 1668.307c45.636-63.891 121.626-173.63 125.234-182.969 1.379-3.396-94.669 130.647-129.161 182.332-3.821 5.625-.531 6.792 3.927.637z"/><path d="m2041.95 1691.655c26.002-54.233 68.985-146.885 70.577-154.314.637-2.759-54.233 110.906-73.548 154.42-2.123 4.776.424 5.2 2.971-.106z"/></g><path d="m1119.888 1639.651c-154.314-103.583-110.588 1.698-110.588 1.698-182.226-143.382-341.316-226.907-248.027-62.723-228.499-129.904-339.193-38.419-282.625 66.65-92.864-42.24-113.772-30.247-113.029-4.776-62.617-47.228-100.187-36.191-105.069-30.247-14.54 17.936-5.519 55.719 43.726 100.293 42.558 40.117 141.154 95.836 167.049 73.973 9.021-7.642 6.474-27.276 6.368-38.101 50.306 22.712 82.251 21.332 81.402-22.394 79.492 47.228 243.145 99.55 264.583 29.504 189.549 65.058 300.88 62.086 284.112-17.512-.212.106 274.241 79.598 12.099-96.366z" fill="#0b1709"/><path d="m1118.827 1645.382s25.79 35.447 39.799 91.803c-9.552-22.712-35.766-84.268-48.183-94.881-77.157-50.518-89.574-41.073-89.574-41.073s113.878 112.711 135.953 137.439c-3.715-3.184-17.405-12.205-21.226-15.389-45.53-43.407-117.805-120.776-117.805-120.776s-14.646 6.474 56.886 97.428c-35.978-34.386-98.277-77.9-155.906-116-77.793-51.261-152.722-90.742-164.502-78.961 125.552 79.385 261.718 178.617 319.984 218.523-17.83-10.931-39.586-24.092-52.216-30.99l-267.767-183.606c10.082 24.622 49.563 69.515 57.31 73.761 28.973 15.707 132.026 61.131 132.026 61.131-16.875-3.715-88.619-32.794-128.949-55.4 38.525 39.268 77.157 78.643 115.682 117.911l-33.537-59.858c44.787 16.875 89.68 32.37 134.573 55.4l-123.748-46.273s29.186 57.417 36.509 64.952c11.781 11.993 54.127 37.039 98.808 64.846-9.87-3.927-20.271-8.384-33.962-17.193-21.544-13.903-42.346-26.957-62.086-39.056-14.009-13.584-63.466-47.441-86.603-68.242-30.778-27.7-67.075-58.266-89.256-70.152-156.649-83.843-217.78-71.956-217.78-71.956 59.327 26.108 123.111 59.115 185.516 93.395 27.7 15.176 96.897 49.138 126.826 65.27 36.297 19.528 51.791 32.794 70.046 44.893-49.669-30.141-97.109-52.428-131.071-68.985-77.369-37.783-155.163-80.341-253.228-129.055-.531 14.221 58.69 68.985 119.927 104.963l113.135 22.5c2.547 5.837-77.793-9.87-104.645-13.373 0 0 68.348 58.584 101.036 68.348 20.377 6.155 87.77 8.809 120.883 9.764 8.809 6.474-69.091 2.759-107.51 1.698 27.488 20.059 47.016 28.761 72.169 38.738 13.691 6.58 85.966-1.698 88.725-6.474-5.519 9.446-39.375 12.523-60.494 15.92 0 0 64.209 15.495 97.428 21.651 20.059 3.715 61.343 1.379 61.343 1.379 10.401.318 30.46-4.67 40.754-18.891 9.764-13.479 10.613-32.264 7.747-37.889-1.061-2.123-2.441-4.351-4.033-6.686 30.99 12.629 123.43 28.655 126.613 16.132 6.051-22.182-105.599-96.686-105.599-96.686z" fill="url(#m)"/><path d="m2067.421 1644.852c232.32-184.561 420.914-308.309 419.746-75.565 141.154-216.4 340.148-208.228 178.193 60.176 23.879-13.903 65.377-16.875 80.977.955 11.144 12.736 16.026 35.554-11.568 76.626-25.365 37.676-87.027 68.03-118.123 55.082-9.339-3.927-19.847-15.601-20.802-23.773-101.355 58.584-227.862 157.391-230.197 19.634-259.171 116.85-425.583 99.656-373.686-27.806 0 0-295.255 120.352-78.643-60.176 146.673-122.368 154.102-25.153 154.102-25.153z" fill="#0b1709"/><path d="m2457.769 1476.954c-42.877 31.839-148.901 66.119-131.071 55.931 3.821-2.229 138.5-56.462 130.541-65.164-22.394-24.198-50.943-18.36-50.943-18.36-235.716 210.457-353.733 314.146-354.688 314.571-14.646 8.066 98.595-95.624 345.667-314.571 0 0-66.438 14.858-125.552 57.417-23.455 16.875-52.216 72.699-65.801 101.036 11.674-35.66 25.896-68.348 48.608-91.06 0 0-87.239 54.127-119.821 89.15-11.674 12.523-25.79 57.204-34.28 87.133 2.653-26.533 6.368-49.033 24.728-82.994-42.77 28.761-70.895 56.462-81.827 66.65 34.492-45.954-16.768-59.646-16.768-59.646l-139.774 129.373q-.106.106 0 0c31.415-35.341 79.173-79.385 134.786-129.373 0 0-49.457 7.747-78.218 39.693-8.703 9.658-41.922 58.266-59.115 81.084 6.898-17.512 22.606-34.705 53.49-79.28 0 0-104.326 78.112-91.697 98.701 3.821 6.262 17.299 4.776 25.471 3.29 0 0 86.284-17.512 145.399-54.233-83.737 123.748 42.346 196.66 335.054-96.261-9.552 5.094-239.324 119.715-237.839 108.571 53.702-26.957 214.49-100.4 236.671-115.045 49.245-32.582 106.98-126.613 106.98-126.613z" fill="url(#n)"/></svg>