<svg height="2530.904" viewBox="0 0 2637.207 2530.904" width="2637.207" xmlns="http://www.w3.org/2000/svg" xmlns:xlink="http://www.w3.org/1999/xlink"><linearGradient id="a" gradientTransform="matrix(1 0 0 -1 0 16178.013)" gradientUnits="userSpaceOnUse" x1="1062.974" x2="1432.893" y1="16248.592" y2="13943.061"><stop offset=".108" stop-color="#c7dde8"/><stop offset=".503" stop-color="#c9dde7"/><stop offset=".645" stop-color="#d0dce4"/><stop offset=".746" stop-color="#dbdade"/><stop offset=".797" stop-color="#e5d9d9"/></linearGradient><linearGradient id="b" gradientTransform="matrix(1 0 0 -1 0 16178.013)" gradientUnits="userSpaceOnUse" x1="1307.174" x2="1314.791" y1="14781.476" y2="13564.712"><stop offset="0" stop-color="#b0c688"/><stop offset=".144" stop-color="#acc285"/><stop offset=".298" stop-color="#a1b57b"/><stop offset=".455" stop-color="#8ea06b"/><stop offset=".561" stop-color="#7d8d5c"/></linearGradient><path d="m13.701 2273.589c-111-716.7 481.4-1320.4 732.9-698-18-814 589.5-1532.5 1122-1573.4s700.5 503.7 724.3 599.1c54 216 51.3 602.2-94.5 953.4z" fill="url(#a)"/><path d="m2612.401 1111.689c-165.3 181.1-536.7 181.1-1480.9 578.2-243.8 102.5-1053.6 473.1-1117.8 583.6-2.2 3.8-10 13.6-7.4 24.1 9.4 38 141.9 39.9 294.1 31.1-73.1 189.8 948.5 275.8 1456.3 125.7-150.1 179.7 1268.8-6.8 741.6-197.9l114.1-1144.801z" fill="url(#b)"/><path d="m370.101 2112.889s541.2-367.2 1929.3-836.3c238.9-80.7 313-164.8 313-164.8l-4.5 45.2c-125.3 72.9-279.5 170-377.1 202.1 130.4-13.9 296.2-133.6 374.2-173.1l-2.6 25.7c-361.9 250.6-426.1 172.7-1327.3 485.4-318.4 135.599-597.4 279.299-905 415.799z" fill="#bbd191"/><path d="m1600.601 1682.089h69.5v95.3h-69.5z" fill="#15090b"/><path d="m1189.701 1682.089h69.5v175.1h-69.5z" fill="#15090b"/><path d="m1789.701 349.689c-219.1 131.2-438.2 262.4-657.2 393.6v914.4h1314.5v-914.5c-219.1-131.1-438.2-262.3-657.3-393.5z" fill="#a2abb2"/><path d="m2447.001 743.189-657.2 914.5h657.2z" fill="#acb3b9"/><path d="m1789.601 424.889c-195.9 123.6-391.8 247.3-587.7 370.9v861.9h1175.3v-861.9c-195.9-123.6-391.7-247.3-587.6-370.9z" fill="#5c2810"/><path d="m1333.501 712.689 288.1 79.9 276.1-182.7 48.7-86-156.8-99z" fill="#4e1f0d"/><path d="m2377.201 795.789-626.3 861.9h626.3z" fill="#e9a370"/><path d="m2316.901 1656.189-18.4 1.4 5.6-824.3 3.3 2c12.3 255 12 525.6 9.5 820.9z" fill="#4e1f0d"/><path d="m1789.601 526.889-518 308.1v822.7h1035.9v-822.2z" fill="#8da6ba"/><path d="m2307.501 993.889-490.4 663.8h490.4z" fill="#b8c6c7"/><path d="m1132.501 1656.189h1314.5v40.8h-1314.5z" fill="#b27c62"/><path d="m1132.601 1681.589h1314.5v15.5h-1314.5z" fill="#5f3a34"/><path d="m1399.601 1357.989h119.9v299.6h-119.9z" fill="#23314b"/><path d="m1519.501 1657.689h-28.3l9.7-299.7h18.6z" fill="#314061"/><path d="m1600.601 952.589v21.1h-205.6l-.1-21.1z" fill="#627a92"/><path d="m1394.901 957.289h205.7v21.1h-205.7z" fill="#7092ad"/><path d="m2185.001 954.889v21.1h-206.6l-.099-21.1z" fill="#627a92"/><path d="m1978.302 959.589h206.7v21.1h-206.7z" fill="#7092ad"/><path d="m1962.001 853.589v21.1h-344.9l-.2-21.1z" fill="#627a92"/><path d="m1616.901 858.289h345v21.1h-345z" fill="#7092ad"/><path d="m1621.601 1657.689h-21v-1018.4l20.9-12.4z" fill="#627a92"/><path d="m1616.901 1657.689h-21l.8-1016 20.2-12.1z" fill="#7092ad"/><path d="m1962.001 1657.689h21v-1015.5l-20.8-12.4z" fill="#627a92"/><path d="m1957.302 1657.689h21v-1018.4l-21.101-12.5z" fill="#7092ad"/><path d="m1399.601 1657.689h-21.1v-886.3l21.1-12.5z" fill="#627a92"/><path d="m1394.901 1657.689h-21.1l.6-883.7 20.2-12.1z" fill="#7092ad"/><path d="m2185.001 1657.689h21.1v-882.7l-21.1-12.5z" fill="#627a92"/><path d="m2180.302 1657.689h21.099l-.7-885.9-20.399-12.1z" fill="#7092ad"/><path d="m1270.901 1168.389h1036.8v80.2h-1036.8z" fill="#7496b2"/><path d="m1270.901 1163.089h1036.9v80.2h-1036.9z" fill="#314061"/><path d="m1270.901 1163.089h467.1l-153.6 80.2h-313.5z" fill="#23314b"/><path d="m2307.701 1243.289h-189.6l62.4-80.2h127.2z" fill="#576f8b"/><path d="m99.601 2200.589c314.1-181.7 568.8-257 568.8-257-57.4 30.4-88.5 48.6-121.8 76.4 74.8-34.2 174.9-69.4 303.3-108-39.5 11.9-60.8 23.7-78 36.1 116.1-27.6 222.7-59.7 318.5-96.8 0 0-92.3 49.2-91.7 49.9l145.5-62.2c-52.8 26.7-96.3 50.6-112.9 66.5 68.7-27 151.2-64.9 245.8-112.3-37.5 22.7-73.8 44.8-86.4 57.8 58-10.3 104.1-33.6 173.3-60.5-23.4 14-42.6 27.3-47.3 38.4 27.3-12.3 89.3-41.2 144.1-70.7-25.7 21.2-58.5 43-78.8 63.1 32.8-12.2 55.8-31.2 128.4-63.1l-54.7 39.3c37.2-1.3 749.4-157.5 914.6-321.3-27.2 26.9-19.5 39.8-50.3 61.3 61.5-30.1 73.3-43.7 120.1-85.6-19 28.7-37.6 50.1-55.7 63.5 48.5-17.2 124.5-70.3 200.9-131l-78 783c-216.4 34.7-387.4 34.6-660.3 15 173.1-6.2 258.5-29.5 339.3-64.8-213.8 53.6-311.3 18.4-584.1 65.7 55.7-9.7 99.1-27.6 126.2-39.1-71.5 19.9-195.4 26.1-220.9 21.3 231.6-35.4 260.1-55.4 310.9-76.2-90.6 37.1-235.5 42.5-320.4 39.3 61.6-7.8 108.1-45.2 108.1-45.2-94.3 46-220 52.5-389.4 49.6 98.6-8.5 141.9-38.9 189.6-45.5-140.3 19.4-212.2 28.3-260.6 32.6-60.2 8.6 79.9-34.9 115.9-53.3-19.9 12.6-354 90.2-449.4 82.3 45.2-8.4 110.5-35.1 132.3-49.5-34.3 7.3-126.4 30.5-169.8 29.3 116-20.8 225.3-80.4 291.8-132.1-212.1 102.2-348.4 124.6-463.1 141.9 139.7-41.7 247.1-83.8 284.3-118.1-95.4 60-299.4 104-400.2 129.5 45.2-20.2 76.6-35.8 92.3-61.7-34.1 35.4-168.2 71.1-245 92.2 77.6-36.3 129.7-70.4 168.5-107.2-230 148.5-194.3 46.9-489.5 200.1-.1.102 16.9-32.999 85.8-72.898z" fill="#667450"/><path d="m1311.101 1928.489c236.1-39.7 289.4-26.4 344.4-78l-24 27.1 113.4-63-76.6 60.6c86.5-21.1 166.3-49.6 238.3-86.5-32.4 22.1-64.9 42.9-97.6 61 155.2-21.3 269-86.1 389.9-178.2-40.1 38.6-92.7 80.2-151.2 123.2 62.6-31.4 120.1-62.3 156.4-91.2-24 24.6-50.1 47.3-77.7 65.8 127.6-65.1 243.9-130.6 332.8-196.9-51.1 50.4-117.6 99.2-191.8 147.3 93.6-18.8 297.8-144.2 300-156.7l-20.4 204.5c-119.5 30.5-233.3 57.4-336.8 78 66.8-21.9 134.1-43.8 162.7-62.3l-103.2 26.4c41.2-19.1 78.5-40.6 108.3-66.5-110.3 57.4-219.1 104.9-342.8 124.1 58.4-18.3 87.4-35 119.1-59.8-57.3 21.7-185.9 46.7-306.1 73.7 59.1-21.5 109.9-42.5 141-62.2 0 0-119.4 51-298.9 68-189.2 17.7-379.2 41.6-379.2 41.6z" fill="#7b8757"/><g fill="#0b1a07"><path d="m2484.601 2264.289c12.4-428.7 82.8-1272.6 46.4-1177.4-7.5 19.7-145.4 811.8-91.3 1175.9 5.4 37 43.7 43.3 44.9 1.5z"/><path d="m2487.101 2270.589c65.1-224.2 119.3-778.3 97.6-778.1-23.1.2-93.4 560.1-116.1 776.1-2.5 23.8 11 27.8 18.5 2z"/><path d="m2387.201 2304.289c-39.2-105.1-43.9-355.1-25.5-353.8 19.5 1.4 39.3 258.7 43.2 357.7.4 10.899-13.2 8.2-17.7-3.9z"/><path d="m2502.802 2302.889c64-126.6 147.4-447.1 132.7-449.4-15.6-2.5-113 324-147.6 450.5-3.8 13.9 7.5 13.5 14.9-1.1z"/></g></svg>