<svg height="2764.123" viewBox="0 0 2772.083 2764.123" width="2772.083" xmlns="http://www.w3.org/2000/svg"><path d="m2104.095 1097.91c0 356.404 634.075 150.736 667.372 724.829 40.869 703.553-1963.289 1416.482-2617.799 515.434-589.6-811.616 635.638-2667.083 1672.035-2218.722 194.61 84.143 278.392 346.067 278.392 978.459z" fill="#e2e0de"/><path d="m2020.313 167.893c23.079 62.025 194.009 187.278 148.331 616.045-22.959 215.165 135.71-106.14 25.243-390.542-69.238-177.781-188.239-264.929-173.574-225.502z" fill="#efefef"/><path d="m1830.872 4.536c4.808-9.737 36.903-3.246 71.521 14.184 34.619 17.55 53.851 49.163 48.923 58.78-4.928 9.616-31.974-6.371-66.593-23.921-34.619-17.309-61.424-33.657-53.851-49.043z" fill="#efefef"/><path d="m2104.095 1097.91c9.451-611.381-57.925-880.052-278.392-978.459-515.794-223.219-1078.469 124.411-1440.763 629.868v1205.644h1719.155z" fill="#efefef"/><path d="m384.94 749.319c-288.85 402.923-450.404 906.217-359.65 1300.966l359.65-95.322z" fill="#c9c5c0"/><path d="m1544.554 477.583c-117.702-71.613-234.735-81.183-296.791-81.183-304.717 0-551.736 231.753-552.817 517.958v152.775l-.601.217-10.309 1634.293c398.151 120.934 885.824 55.305 1293.405-102.572 206.191-82.771 422.512-203.447 550.974-319.558-12.239-25.21-28.861-59.671-48.434-100.945 0 0-7.967-16.8-15.731-33.3-29.937-63.622-416.436-947.547-719.203-1456.893-27.981-47.072-86.782-141.607-200.493-210.792z" fill="#f7f7f7"/><path d="m2104.096 1954.963v-585.574c-119.683-250.877-233.383-469.376-359.049-681.014-24.094-44.363-83.582-139.66-200.493-210.792-117.702-71.613-234.735-81.183-296.791-81.183-304.717 0-551.736 231.753-552.817 517.958v152.775l-.601.217-6.852 887.613h1416.602z" fill="#fff"/><path d="m2489.589 2045.357c-820.908 2.537-2463.698 7.453-2463.698 7.453-.515-1.853-1.606-6.754-1.725-7.453 0 0 245.174-59.795 360.774-90.394h1719.155l385.493 90.394z" fill="#ddd9d3"/><path d="m2489.589 2145.847h-2436.532c-10.698-30.772-19.954-61.785-27.166-93.038l2463.698-7.453v100.49z" fill="#bab6b3"/><path d="m2528.415 2279.513-2413.573-.481c-17.069-28.609-34.258-63.227-46.399-93.158l2559.981-7.453c-30.412 34.979-63.227 68.877-100.01 101.091z" fill="#b2b0ab"/><path d="m2491.993 2310.646-2354.913 3.726c9.977 15.266 23.921 36.782 35.22 51.447 503.654 654.029 1778.416 404.245 2319.693-55.174z" fill="#cecbc8"/><path d="m687.493 2050.824 1732.726-4.426-9.28-19.484-306.843-71.951h-1416.603z" fill="#efedea"/><path d="m687.493 2145.847h1777.029c-15.53-34.876-43.6-98.185-44.673-100.279l-1732.356 5.24z" fill="#cccac6"/><path d="m686.7 2279.147 1841.715.366-48.262-100.586-1792.853 5.146z" fill="#c9c7c3"/><path d="m2491.993 2310.646-1805.509 2.857-8.096 386.436s.003 0 .004.001c313.788 97.926 689.053 76.538 1048.6-15.921 293.768-75.544 576.184-210.378 765.001-373.373z" fill="#e0dddc"/><path d="m1799.859 913.998c-1.082-286.205-248.101-517.958-552.817-517.958s-551.736 231.753-552.817 517.958v1049.86h1105.514z" fill="#fff"/><path d="m1799.859 914.359c-1.082-286.205-248.101-517.958-552.817-517.958-28.609 0-56.616 2.043-84.023 6.01-14.785 97.846 23.8 154.702 123.81 168.766-5.89 54.573 27.887 138.956 85.345 196.293-107.462-17.55-208.674-5.289-204.948 107.342-123.329 53.851-133.546 147.37-83.542 261.924-53.25 43.754-57.818 89.191-7.573 136.672-17.67 87.388-77.171 135.229-153.741 166.963l-155.424 445.956 1032.791-5.77v-966.198h.12z" fill="#e3f9ed"/><path d="m778.367 1886.327c75.127-164.799 117.319-357.126 337.052-312.049-3.606-88.47 108.784-124.651 300.51-75.007 10.097-44.716 49.885-57.097 104.698-53.13-72.483-70.199-135.71-141.119-30.652-225.863-10.939-98.086 19.473-157.587 144.245-129.099-65.15-120.685 179.224-278.152 165.641-47.36v836.739l-1021.492 5.77z" fill="#d2e9d5"/><path d="m694.345 1897.746c89.432 9.857 180.787-100.611 180.787-100.611 103.135-30.291 99.649-116.237 94.24-164.439 185.835 34.979 269.257-205.308 35.821-261.924-29.811-77.531-67.554-129.339-141.48-140.999-9.977-98.928-44.716-163.597-101.091-238.364 150.014-65.511 208.914-93.278 206.751-228.147 159.15.361 231.032-212.04 36.903-315.174-184.152 83.902-311.328 261.083-312.049 466.271v983.628c0-.24.12-.24.12-.24z" fill="#e5f7d1"/><path d="m969.371 1886.687c-5.409-75.849 74.526-188.96 249.303-131.263 54.452-43.153 134.268-56.616 267.574-7.573 26.926-22.839 58.059-39.427 98.687-41.711-41.11-119.483 59.381-221.656 214.924-128.979v303.515l-830.488 6.01z" fill="#fcfee6"/><path d="m1242.354 397.001h10.818v1496.898h-10.818z" fill="#796959"/><path d="m974.78 1924.311h-10.818v-1453.865l10.578-5.89z" fill="#796959"/><path d="m1531.564 1904.357h-10.938v-1438.96l10.938 5.169z" fill="#796959"/><path d="m744.59 699.074 5.649-10.819 994.807.12 4.328 10.578z" fill="#796959"/><path d="m694.345 991.289v-10.818l1105.755.12-.361 10.578z" fill="#796959"/><path d="m694.345 1284.226v-10.819l1105.034.121 1.081 10.578z" fill="#796959"/><path d="m694.345 1577.163v-10.819l1105.635.12-.121 10.578z" fill="#796959"/><path d="m1806.387 909.713c-1.095-287.373-251.076-520.072-559.447-520.072s-558.352 232.699-559.447 520.072v1054.145h11.938v-1044.503c1.071-285.571 245.682-516.811 547.429-516.811s546.357 231.24 547.429 516.811l-.119 1044.503h12.096l.122-1054.145z" fill="#604c45"/><path d="m687.481 1859.401h1119.23v114.314h-1119.218z" fill="#bba18c"/><path d="m516.407 1715.991c-8.603-49.039-8.795-56.311-9.114-68.356-.032-1.198-.065-2.443-.107-3.784-1.796-48.929 18.22-107.07 49.807-144.674 45.635-54.306 84.794-81.007 144.483-98.52l.563 1.92c-59.267 17.388-98.164 43.918-143.515 97.887-31.291 37.25-51.119 94.846-49.34 143.318.043 1.349.076 2.599.108 3.799.316 11.955.507 19.171 9.084 68.064l-1.97.346z" fill="#604c45"/><path d="m433.457 1926.273c-5.251-55.432 18.291-95.826 50.874-151.734 7.174-12.31 14.593-25.038 22.272-38.903 29.488-53.42 44.822-136.131 39.064-210.716-1.431-17.65-5.552-35.136-9.652-51.533-15.099-61.971-71.031-208.872-105.417-268.62l1.733-.998c34.456 59.871 90.5 207.058 105.626 269.14 4.118 16.472 8.26 34.049 9.704 51.854 5.786 74.951-9.644 158.103-39.308 211.842-7.69 13.886-15.115 26.624-22.294 38.942-32.396 55.586-55.802 95.747-50.611 150.538l-1.991.189z" fill="#604c45"/><path d="m533.027 1456.076-1.542-1.273c21.613-26.175 34.008-60.445 34.008-94.024 0-8.402-.678-17.012-1.334-25.338-.909-11.537-1.849-23.467-1.024-35.165 1.41-20.673 8.941-41.066 21.207-57.42l1.6 1.199c-12.037 16.049-19.428 36.064-20.812 56.359-.815 11.551.119 23.405 1.022 34.869.659 8.364 1.341 17.014 1.341 25.495 0 34.036-12.563 68.771-34.466 95.298z" fill="#604c45"/><path d="m544.691 1515.64c-10.105-35.367-46.711-65.729-83.338-69.119-16.363-1.424-33.172 1.095-49.427 3.533-10.59 1.587-21.541 3.229-32.343 3.787l-.103-1.998c10.705-.553 21.607-2.188 32.149-3.768 16.37-2.453 33.299-4.993 49.903-3.547 37.396 3.463 74.766 34.457 85.082 70.563z" fill="#604c45"/><path d="m526.596 1549.744c-1.348-5.309-3.458-10.222-6.27-14.604-21.169-32.981-106.323-25.288-107.18-25.206l-.189-1.99c.869-.084 87.232-7.88 109.052 26.116 2.929 4.563 5.124 9.674 6.526 15.191l-1.938.492z" fill="#604c45"/><g fill="#696a3e"><path d="m381.183 1323.952c35.882 22.19 57.251 33.632 116.976 30.327 0 0-34.589-28.439-61.737-27.494-40.367 1.18-55.239-2.833-55.239-2.833z"/><path d="m327.833 1174.759c38.006 29.272 62.495 44.144 119.15 59.252 0 0-39.832-33.049-65.563-40.367-38.714-11.095-53.587-18.885-53.587-18.885z"/><path d="m528.487 1226.221 36.062 117.41s-1.833-40.217-8.915-67.601c-6.61-25.259-27.147-49.809-27.147-49.809z"/><path d="m633.536 1284.057c-12.511 15.816-39.255 44.63-67.583 60.683 0 0 12.344-46.519 36.895-57.614 11.095-5.194 30.688-3.069 30.688-3.069z"/><path d="m678.388 1314.745s-28.092 23.37-34.465 55.239c-3.541 17.705.595 54.72.595 54.72z"/><path d="m317.291 1530.387c39.299-13.031 93.053-20.809 115.693-21.062 0 0-39.289-12.575-60.063-10.686-28.328 2.361-55.631 31.748-55.631 31.748z"/><path d="m502.34 1520.825c-26.68-34.363-34.537-44.492-40.518-61.19 0 0-4.295 16.075-.904 25.203 9.897 26.224 41.421 35.987 41.421 35.987z"/><path d="m331.791 1430.992c12.492 10.965 50.127 11.674 101.193 16.188 0 0-50.62 24.075-71.866 12.745-13.928-7.791-29.327-28.933-29.327-28.933z"/><path d="m547.841 1583.813c5.253-28.698 40.785-51.482 79.292-85.335 0 0-44.823 5.118-61.584 24.475-16.524 19.121-17.708 60.859-17.708 60.859z"/></g><path d="m374.102 1067.35c8.498 61.613 15.011 93.717 69.777 158.399 0 0-.847-63.265-24.925-93.009-36.118-44.616-44.852-65.39-44.852-65.39z" fill="#a7aa5b"/><path d="m639.674 1163.9c-13.928 43.436-22.697 67.227-70.382 106.886 0 0 8.77-46.69 29.779-65.338 31.869-27.856 40.603-41.547 40.603-41.547z" fill="#a7aa5b"/><path d="m383.544 1394.063c44.38 22.662 69.876 49.642 141.403 37.367 0 0-42.257-34.062-74.833-29.341-48.393 7.082-66.57-8.026-66.57-8.026z" fill="#a7aa5b"/><path d="m481.41 1312.502c4.013-39.895 19.93-100.209 21.819-123.815 0 0-28.8 27.383-31.397 60.905-1.652 22.426 9.578 62.91 9.578 62.91z" fill="#a7aa5b"/><path d="m480.759 1303.351c-50.046-22.19-95.326-39.123-115.864-57.536 0 0 13.692 37.062 42.492 46.741 24.551 8.262 73.372 10.795 73.372 10.795z" fill="#a7aa5b"/><path d="m520.291 1417.186c-.472 3.069 83.973-83.32 100.498-84.028 11.331-.472-58.308-1.18-84.275 28.328-9.915 11.095-14.57 46.966-16.223 55.7z" fill="#a7aa5b"/><path d="m671.761 1410.608 121.142-16.545s-28.587-14.164-60.928-17.232c-27.727-3.278-60.213 33.778-60.213 33.778z" fill="#a7aa5b"/><path d="m502.34 1520.825c-52.85 22.06-72.32 47.62-108.409 61.852 0 0 50.045 8.498 73.18-21.01 12.275-15.344 35.229-40.843 35.229-40.843z" fill="#a7aa5b"/><path d="m641.05 1703.891c-9.915-9.443-24.625-17.371-42.093-22.801v-19.994c12.275-8.262 19.948-17.278 24.905-32.622-15.108-6.846-202.323-8.395-211.057-.369 4.485 11.803 14.872 22.662 29.272 32.341v16.524c-24.551 5.666-43.908 14.4-52.878 26.203-26.911 79.79-9.206 256.129 0 264.864 30.452 36.59 232.995 40.131 253.533 0 19.829-50.045 26.41-202.061-1.681-264.146z" fill="#8d684a"/><path d="m600.24 1680.748v-19.593c12.275-8.262 20.301-17.941 25.259-33.285-9.281-4.205-83.974-5.993-142.354-5.032 8.285 5.179 16.805 11.771 25.042 20.982 20.237 22.631 26.484 47.096 29.429 57.704 16.727 60.239 76.187 210.812 113.493 236.071 13.083-65.357 15.065-182.089-8.613-234.42-9.915-9.443-24.787-16.996-42.256-22.426z" fill="#ac8364"/></svg>