<svg enable-background="new 0 0 3000 3000" height="3000" viewBox="0 0 3000 3000" width="3000" xmlns="http://www.w3.org/2000/svg" xmlns:xlink="http://www.w3.org/1999/xlink"><linearGradient id="a" gradientUnits="userSpaceOnUse" x1="1472.8215" x2="1519.5985" y1="333.6583" y2="2989.2041"><stop offset=".1162" stop-color="#d8ebeb"/><stop offset=".2125" stop-color="#dde9ea"/><stop offset=".4001" stop-color="#e1e8ea"/><stop offset=".4359" stop-color="#e4e6e6"/><stop offset=".5321" stop-color="#eae4df"/><stop offset=".6412" stop-color="#f4f4f3"/></linearGradient><linearGradient id="b" gradientUnits="userSpaceOnUse" x1="2247.8972" x2="2244.3345" y1="1487.3213" y2="2087.6143"><stop offset=".4654" stop-color="#dbd9da"/><stop offset=".6338" stop-color="#e9e8e8"/><stop offset=".807" stop-color="#f2f2f1"/></linearGradient><linearGradient id="c" gradientUnits="userSpaceOnUse" x1="2185.063" x2="2181.5005" y1="1486.9484" y2="2087.2024"><stop offset=".1155" stop-color="#e7e2dc"/><stop offset=".29" stop-color="#edeae7"/><stop offset=".5305" stop-color="#f2f1f1"/></linearGradient><linearGradient id="d" gradientUnits="userSpaceOnUse" x1="2158.8162" x2="2154.7581" y1="1392.2791" y2="2076.0271"><stop offset=".3208" stop-color="#cacdd4"/><stop offset=".4703" stop-color="#dadbdf"/><stop offset=".6298" stop-color="#efeeee"/></linearGradient><linearGradient id="e" gradientUnits="userSpaceOnUse" x1="2113.9446" x2="2109.6406" y1="1323.2137" y2="2048.3818"><stop offset=".379" stop-color="#cacdd4"/><stop offset=".541" stop-color="#dadbdf"/><stop offset=".7137" stop-color="#efeeee"/></linearGradient><linearGradient id="f" gradientUnits="userSpaceOnUse" x1="2035.7324" x2="2030.9266" y1="1232.8298" y2="2042.5447"><stop offset=".4748" stop-color="#e7e9e6"/><stop offset=".9455" stop-color="#f2f1f0"/></linearGradient><linearGradient id="g" gradientUnits="userSpaceOnUse" x1="800.9485" x2="793.8771" y1="1005.7383" y2="2275.0818"><stop offset=".2142" stop-color="#e1dedd"/><stop offset=".425" stop-color="#e9e3de"/></linearGradient><linearGradient id="h" gradientUnits="userSpaceOnUse" x1="967.9076" x2="961.9557" y1="1161.5922" y2="2229.97"><stop offset=".1512" stop-color="#cacdd4"/><stop offset=".3178" stop-color="#d4d4d7"/><stop offset=".5481" stop-color="#dddbda"/></linearGradient><linearGradient id="i" gradientUnits="userSpaceOnUse" x1="1134.1464" x2="1099.9801" y1="1494.2118" y2="2285.0603"><stop offset=".3241" stop-color="#e6e2dc"/><stop offset=".5204" stop-color="#edebe8"/><stop offset=".7498" stop-color="#f3f2f1"/></linearGradient><linearGradient id="j" gradientUnits="userSpaceOnUse" x1="1292.3414" x2="1288.209" y1="1439.8459" y2="2181.6416"><stop offset=".1663" stop-color="#d1d5dc"/><stop offset=".4962" stop-color="#e6e7e9"/><stop offset=".7294" stop-color="#efefee"/></linearGradient><linearGradient id="k" gradientUnits="userSpaceOnUse" x1="1409.6625" x2="1412.1119" y1="1151.0068" y2="2141.2324"><stop offset=".1869" stop-color="#e3e7e5"/><stop offset=".3165" stop-color="#e9ebe9"/><stop offset=".6072" stop-color="#f2f0ef"/></linearGradient><linearGradient id="l" gradientUnits="userSpaceOnUse" x1="1525.8656" x2="1522.1294" y1="1186.9102" y2="2162.4006"><stop offset=".4627" stop-color="#cacdd4"/><stop offset=".4755" stop-color="#cdd0d6"/><stop offset=".5908" stop-color="#e6e7e8"/><stop offset=".6612" stop-color="#efefee"/></linearGradient><linearGradient id="m" gradientUnits="userSpaceOnUse" x1="1855.7625" x2="1848.9962" y1="959.644" y2="2099.6504"><stop offset=".2513" stop-color="#c1cad6"/><stop offset=".267" stop-color="#c2cbd7"/><stop offset=".7691" stop-color="#efeeec"/></linearGradient><linearGradient id="n" gradientUnits="userSpaceOnUse" x1="1635.597" x2="1631.0471" y1="885.3388" y2="2073.2988"><stop offset=".345" stop-color="#e5e2e0"/><stop offset=".5011" stop-color="#eeebe9"/><stop offset=".6944" stop-color="#f2efed"/></linearGradient><linearGradient id="o" gradientUnits="userSpaceOnUse" x1="599.2111" x2="585.514" y1="1757.8966" y2="2279.2788"><stop offset=".1681" stop-color="#f0eae4"/><stop offset=".9079" stop-color="#f4f4f4"/></linearGradient><linearGradient id="p" gradientUnits="userSpaceOnUse" x1="764.9141" x2="1031.1549" y1="1760.7861" y2="2282.3975"><stop offset=".1681" stop-color="#e4e2e2"/><stop offset=".2436" stop-color="#e9e7e7"/><stop offset=".4501" stop-color="#f1f0ef"/><stop offset=".762" stop-color="#f3f3f2"/></linearGradient><linearGradient id="q" gradientTransform="matrix(-.9999 .01380161 -.01380161 -.9999 16125.3564 13300.3008)" gradientUnits="userSpaceOnUse" x1="14150.7598" x2="12767.6504" y1="12965.8467" y2="11899.3525"><stop offset=".074334" stop-color="#fff" stop-opacity="0"/><stop offset=".1377" stop-color="#fff" stop-opacity=".1171"/><stop offset=".6153" stop-color="#fff"/></linearGradient><linearGradient id="r" gradientTransform="matrix(.01826493 -.9998 .9998 .01826493 1013.6644 14725.0537)" gradientUnits="userSpaceOnUse" x1="14001.9473" x2="13056.3232" y1="352.2514" y2="1415.4279"><stop offset=".1154" stop-color="#fff" stop-opacity="0"/><stop offset=".8858" stop-color="#fff"/></linearGradient><linearGradient id="s" gradientUnits="userSpaceOnUse" x1="2423.5146" x2="2418.2534" y1="314.8367" y2="2077.063"><stop offset=".4268" stop-color="#655460"/><stop offset=".4828" stop-color="#6a5965"/><stop offset=".552" stop-color="#776873"/><stop offset=".6282" stop-color="#8e828a"/><stop offset=".7094" stop-color="#ada5aa"/><stop offset=".7934" stop-color="#d5d1d3"/><stop offset="1" stop-color="#f4f4f4"/></linearGradient><linearGradient id="t" gradientUnits="userSpaceOnUse" x1="1108.2544" x2="1124.494" y1="494.4124" y2="2209.5542"><stop offset=".4268" stop-color="#655460"/><stop offset=".4737" stop-color="#6a5965"/><stop offset=".5316" stop-color="#776873"/><stop offset=".5954" stop-color="#8e828a"/><stop offset=".6634" stop-color="#ada5aa"/><stop offset=".7337" stop-color="#d5d1d3"/><stop offset="1" stop-color="#f4f4f4"/></linearGradient><linearGradient id="u" gradientUnits="userSpaceOnUse" x1="530.8762" x2="528.5678" y1="1070.4307" y2="2238.1729"><stop offset=".3046" stop-color="#655460"/><stop offset=".3551" stop-color="#6a5965"/><stop offset=".4175" stop-color="#776873"/><stop offset=".4862" stop-color="#8e828a"/><stop offset=".5595" stop-color="#ada5aa"/><stop offset=".6352" stop-color="#d5d1d3"/><stop offset="1" stop-color="#f4f4f4"/></linearGradient><linearGradient id="v" gradientUnits="userSpaceOnUse" x1="1495.6271" x2="1851.5554" y1="1730.3188" y2="2825.2356"><stop offset=".3489" stop-color="#a9b1c1"/><stop offset=".7261" stop-color="#9394ae"/></linearGradient><path d="m2745 2289.6s337.6-245.3-44.3-733.4c-283.7-362.5 215.3-901.8 16.7-1189.5-594.5-861-2875.8 637.4-2572.5 1574.2 92.8 286.8 516.8 352.7 516.8 352.7-40.7 20.9-97 52.1-117.5 116-69.8 217 554.3 336.7 1068.1 352.3 597.5 32.9 1191-101.3 1236-309.9 17.8-82.6-50.9-133.1-103.3-162.4z" fill="url(#a)"/><path d="m660 689.3c61-114.8-415.7 266-425.4 427.7-2.5 41.1 34 38.9 47.7 30.7 25.5-15.2 311.1-333.1 377.7-458.4z" fill="#e1e8ea"/><path d="m1206.3 1669.8h-104s-.9-412.1-.1-470.9c.2-16.7 21.7-53.4 21.7-53.4l2.5-165.3c-.1-28.4 0-50.9 12-77.5 0 0 55.4-111.5 56.2-129s11.7-153.5 11.7-153.5z" fill="#f4eae1"/><g fill="#e4e1db"><path d="m1127.6 943.1c3.5-2.9 10.7-9 20.8-10.9 13.3-2.6 29.9.9 39.5 11.1 7.9 8.4 8.5 19.8 8.6 24.4 1.9 63 .1 189.5.1 189.5l2 1s1.2-172.6 0-194.8c-.2-4-1-13-7.4-20.7-13.3-15.7-35.2-13.9-38.9-13.6-16.3 1.7-24.4 11.3-24.4 11.3z"/><path d="m1198.7 1231.2.1-4.9c-10-29.5-91.9-49-96.6-22.6v4.5c7.4-28 85.9-5.5 96.5 23z"/><path d="m1198.9 1210.6.2-10.8c-.5-36.5-72.9-49.2-86.6-31.3l-4.7 10.2c10.9-30.8 93-7.1 91.1 31.9z"/><path d="m1204.5 825.8c-3.5-14.8-21.4-15.8-26-8l1.7-4c5-4.7 21.4-5.7 24.3 6.8z"/><path d="m1204.4 862c-5.8-11.7-33.5-18.5-42.1-8.9l1.7-3.6c8.4-9.9 36.2-.6 40.3 7.9z"/><path d="m1204.2 906.1c-4.5-15.7-54.6-26.3-64.2-6.7l3.5-7c8.3-12.9 53.2-7.7 60.7 8.6z"/><path d="m1198.7 1160v-3.6l-74.8-13.1v2.3z"/></g><path d="m1194.9 1536.5h105s0-278.8-.9-337.5c-.2-13.9-15.1-41.6-20.1-50.5-1.1-1.9-1.6-4-1.6-6.2l.9-162.1c.1-28.4 0-50.9-12-77.5 0 0-47.1-112.8-48-130.3s-11.9-152.1-11.9-152.1c-2.2 178.6-2.4 361.2-2.4 539.8 0 18.9-4.7 27.5-4.9 42.3-1.2 115.6-2.7 218.5-4.1 334.1z" fill="#c8cdd4"/><path d="m1204.5 825.8c3.5-14.8 23-16.7 27.6-9l-1.5-4.1c-5-4.7-23.1-4.7-26 7.8z" fill="#bcc1cc"/><path d="m1204.4 862c5.8-11.7 32.7-19.6 41.2-10l-1.4-3.7c-8.4-9.9-35.8.6-39.9 9z" fill="#bcc1cc"/><path d="m1204.2 906.1c4.5-15.7 51.3-26.8 60.4-7.1l-2.3-5.5c-5.6-13.1-50.7-8.9-58.2 7.4z" fill="#bcc1cc"/><path d="m1204.1 952.7c11.6-22.3 58.7-23.4 73.1-7.5l-.4-3.8c-11.2-15.5-63.4-14.6-72.7 7.1z" fill="#bcc1cc"/><path d="m1198.7 1231.2.1-4.9c10-29.5 95.6-45.8 100.3-19.4l.1 4.5c-7.6-28-89.9-8.7-100.5 19.8z" fill="#bcc1cc"/><path d="m1198.9 1210.1.2-11.1c1.4-33.3 77.3-49.5 91.4-27.7l3.9 9.3c-14.9-33.2-96.6-10.6-95.5 29.5z" fill="#bcc1cc"/><path d="m1203.9 1160v-3.7l73.5-12.9c.1 1 .3 2 .6 2.9z" fill="#bcc1cc"/><path d="m2165.8 1281.9v-24.4l-6-1.7.2-26.5-10.9-4.8c-1.9 1-3.8 2-5.7 3v-57.6l-2.7-1.7c-1.3 48.7-2.5 97.4-3.8 146.2h36.7v-30.7z" fill="#d5d9df"/><path d="m2207.1 1310.2-3.2-3.8-44.9 4.5v-30.7l-3.8.6v-27.7l-6.1.8v-29.7l-8 1-.4-57.2-3.2.8v56.9l-6.2.8v30l-5 .7v27.9l-2.9.4v29.1l-38.3 3.8v715.1c19.9 7.3 118.9 30.5 118.9 30.5l3.7-3.6z" fill="#e6e5df"/><path d="m2203.9 1306.5 38.6 32.1v720.9l-38.6 4.6z" fill="#d5d9df"/><path d="m2269 2087.5h-45.9v-596.9l6.6-3.4 39.3 15.9z" fill="url(#b)"/><path d="m2229.8 2087.5-93-14.5v-582.6l93-3.2z" fill="url(#c)"/><path d="m2183.5 1399.8-14.3-7.5h-39.1v683.6h39.1v-2.9h14.3z" fill="url(#d)"/><path d="m2138.6 2048.2h-53.6v-721s10.9-4.2 10.9-4.2c1.8 0 40.9 25.6 42.7 25.6z" fill="url(#e)"/><path d="m2049.4 1285.4-.8-23.2-11.2-4.2-2.5 2.1s-.3-15.7-.5-25.7l-3.1-1.6c-.9 19.6-3.4 74.7-3.4 74.7h31v-19.8z" fill="#d9dee3"/><path d="m2067 1325v-23.6l-23.2.8v-18.2l-6.4.7v-26.7l-5.9.8v-26l-4 .7v25.8l-5.9.8v26.4l-6.4.7v18l-16 1.7v22.4l-29 1.9v711h125.7v-719.1z" fill="url(#f)"/><path d="m873 1006.4-9.5 21.9-17 1 .4 27.6-14.9 1.6v26.8l-14.3 1.2v27.4l-17.9 1.5v27.1l-16 1.1v27.6l-14.3 1.6v27l-17.6 2.6.2 26-15.6 1.6v26.8l-14.9 1.1v27.1l-16.8 1.4v27.2l-17.2 2.5.1 26.1-22.2 5.1v926.9h157.2v-936.4l112-328.5-6.9-3c-.1.1-34 .1-54.8.1z" fill="url(#g)"/><path d="m1106.3 2274.4h-283.7c0-324.8 0-974.3 0-974.3l105.1-293.6 17.9 3.5 5.8 29.4 9.7 3.2 3.6 24.2 9.6 2.5 1.8 27.2 9.9 1.7 1 26.8 13.7 2v26.8l12.2 1.8v25.3l10.9 2.2v27.7l13.3 2.1v26.3l12 2.2v26l11.4 2.2v26.2l12.8 2.4v25.7l13.1 2.9v24.4l21.9 4.2c-.1-0-2 615.6-2 919z" fill="url(#h)"/><path d="m1009 1444.5v736.8h222.8l.9-738.5c-.4 0-4.2-3.3-4.5-3.3-53.4 1-92.7 2-111.8 2.5-25 .6-61 1.5-107.4 2.5z" fill="url(#i)"/><path d="m1356.3 1452.4-128.1-12.9-2.9 741.8 124.1-25.6c0-243.1 6.9-460.3 6.9-703.3z" fill="url(#j)"/><path d="m1353.5 1172.8s-1.1 643.3-2.7 965.7h120.2c0-326.3 0-978.9 0-978.9l-4.2-7.1z" fill="url(#k)"/><path d="m1581.4 1180.5-114.5-27.9.7 985.9h113.9c-.1-322.5-.1-635.5-.1-958z" fill="url(#l)"/><path d="m1982.3 2073h-259.2v-1187.3l259.2 56z" fill="url(#m)"/><path d="m1723.1 2073h-179.7v-1157.9l179.7-29.4z" fill="url(#n)"/><path d="m763 1705.7-258.9 19.8v122.2l-60.4 2.5v49.8l-26 .9.3 314.8c131.4 52.5 265.2 101.8 345 72.7z" fill="url(#o)"/><path d="m1126.2 1899.4-21.7-2.9c0-22.1 0-39.4 0-39.4l-43.2-5.1v-112.8l-298.3-33.5-1.3 138.8-44.3 4v56.2l-23.8 2.7v315.9c23.8 22.7 47.6 45.4 71.3 68.1 120.4-22.7 240.8-45.4 361.3-68.1 0-92.8 0-323.9 0-323.9z" fill="url(#p)"/><g opacity=".47"><path d="m1879.1 309.1 540.3 1291.4v-728.3l-176.5-610.2z" fill="url(#q)"/><path d="m1809.3 853.6 610.1 1210.5v-323.1l-610.1-1431.9z" fill="url(#r)"/></g><path d="m2431.5 2087.5-21.1-1.2v-1813.8l21.1 1.2z" fill="url(#s)"/><path d="m1126 2150.7h-20.1v-1678.2c1.3-1.1 19.4-12.3 20.1-12.5z" fill="url(#t)"/><path d="m539.9 2241.4h-20.1v-1289.7c2.3-2.9 15.9-17.2 20.1-21.3z" fill="url(#u)"/><path d="m2851.5 2457.2c17.9-82.7-45.1-139.1-97.5-168.4 0 0 74.6-58 111-179.3l-1104.1-133.1-1355.7 233c93.8 53.9 246.8 85.2 246.8 85.2-40.7 20.9-95 53.4-115.5 117.3-69.8 217 562.8 339.5 1076.6 355 597.5 33 1193.4-101.2 1238.4-309.7z" fill="url(#v)"/><path d="m1851.3 410.1 780.4-141.5c-239.1-228.6-730.2-217.9-1254.6 52.8 125.5 34.5 296.9 81.1 296.9 81.1z" fill="#6e6e7f"/><path d="m1766.1 2003.4-92.1-12v-1588.9l92.3-17.2 13.7 15.3v1587.6z" fill="#b19a94"/><path d="m1674 402.5 92.3-19.2s1.4 83.3 1.3 118.7z" fill="#927e7f"/><path d="m1851.3 1987.3-85.2 16.1c.1-540 .1-1080.1.2-1620.1l85 26.8z" fill="#655460"/></svg>