<svg enable-background="new 0 0 1600 1200" height="1200" viewBox="0 0 1600 1200" width="1600" xmlns="http://www.w3.org/2000/svg"><path d="m998.129 590.681s-5.89 50.336 0 57.297h106.562l75.504-8.032s2.996-16.033-14.299-16.316-74.057-50.084-74.057-50.084l-6.426-4.284z" fill="#f4d862"/><path d="m1419.44 534.814-40.748 112.868-1.446 4.002-.614 1.692-.575 1.602-36.064 99.884-60.458-20.633-12.017-4.103-2.802-.958-15.181-5.183-2.316-.792-8.667-2.963-16.849-5.752-42.142-14.383-1.916-13.087-4.342-29.627-.232-1.589-3.482-23.73-.004-.025-.402-2.737-5.258-35.892-19.542-133.328-.353-2.42-1.582-10.8-.233-1.581-14.489-98.833 113.001 72.962 1.81 1.169 3.892 2.51 2.593 1.673 17.59 11.363 1.345.869 13.3 8.588 8.449 5.457 2.024 1.3.192.127z" fill="#98daf4"/><path d="m1246.427 423.087 2.592 1.672-104.638 35.321-.354-2.421z" fill="#b0ecff"/><path d="m1292.303 452.523-42.387 271.522-2.316-.793 42.487-272.156z" fill="#b0ecff"/><path d="m1378.689 647.681-1.446 4.002-109.727 78.442-2.802-.957z" fill="#b0ecff"/><path d="m1283.113 476.95 46.8 19.404-61.137 7.174-61.137 7.174 46.106-40.785 46.105-40.786z" style="fill:none;stroke:#1b2638;stroke-width:2.9022;stroke-linecap:round;stroke-linejoin:round;stroke-miterlimit:10"/><path d="m995.561 633.879h112.878l57.457-10.249" style="fill:none;stroke:#fff27d;stroke-width:2.9022;stroke-linecap:round;stroke-linejoin:round;stroke-miterlimit:10"/><path d="m1194.03 605.188s-.984 13.339-4.732 22.978 0 19.813 0 19.813h122.091l86.749-12.852s9.639-20.905-8.032-20.627-161.717-53.271-161.717-53.271-27.31 14.994-28.916 20.349c-1.607 5.355-5.443 23.61-5.443 23.61z" fill="#f4d862"/><path d="m1250.265 569.262s82.723-23.919 102-1.785c19.278 22.133-102 1.785-102 1.785z" style="fill:none;stroke:#1b2638;stroke-width:2.9022;stroke-linecap:round;stroke-linejoin:round;stroke-miterlimit:10"/><path d="m1253.021 569.262s94.637 17.136 49.282 43.196-49.282-43.196-49.282-43.196z" style="fill:none;stroke:#1b2638;stroke-width:2.9022;stroke-linecap:round;stroke-linejoin:round;stroke-miterlimit:10"/><path d="m1188.224 631.776h124.772l86.338-13.455" style="fill:none;stroke:#fff27d;stroke-width:2.9022;stroke-linecap:round;stroke-linejoin:round;stroke-miterlimit:10"/><path d="m977.439 214.6-42.612 60.314-50.322 71.191-22.298 31.551v.008l-.851 1.197-1.197 1.703-15.575 22.032-1.566 2.217-141.69 200.503-119.192 168.671-80.765-10.322-39.945-5.092-2.602-.346-31.632-4.032h-.008l-.674-.088-5.286-.683h-.016l-2.723-.353-17.847-2.273-56.636-7.238-128.702-16.418 9.422-42.949 10.658-48.563.587-2.643v-.008l58.853-268.263 116.806-25.68 2.49-.546 96.982-21.334h.008l5.446-1.196 318.69-70.09h.009l2.482-.547 31.494-6.924 18.137-3.984z" fill="#98daf4"/><path d="m427.184 754.195-.674-.088-5.286-.675-.016-.008-166.325-105.432-19.503-12.362.579-2.651h.008v.008l20.715 13.133z" fill="#b0ecff"/><path d="m414.114 338.49 47.308 420.076-2.602-.336-47.201-419.187z" fill="#b0ecff"/><path d="m516.555 315.958 328.032 86.637-1.575 2.222-331.912-87.659z" fill="#b0ecff"/><path d="m862.206 377.662-2.051 2.904-24.908-134.693 2.488-.548z" fill="#b0ecff"/><path d="m822.435 391.815-28.083 39.023s12.34 30.714 24.388 35.029 42.046-49.919 42.046-49.919l-16.075-19.381z" fill="#fff"/><path d="m415.785 533.138s-105.321 50.812-94.781 129.567 84.039 20.884 90.615 0c6.576-20.885 4.166-129.567 4.166-129.567z" fill="#82c0e0"/><path d="m828.382 479.543c-4.988 10.707-11.984 23.39-18.683 34.909-10.578 18.177-20.41 33.455-20.41 33.455s-13.012.112-30.804.024c-.008 0-.008 0-.008 0-35.342-.185-89.512-1.173-97.705-5.446-12.314-6.426-35.342-13.92-58.901-35.872-23.567-21.96-61.134-61.246-61.134-61.246s24.716-29.792 53.102-26.041c28.378 3.751 69.608 36.41 102.814 42.836 33.198 6.426 42.298 7.896 42.298 7.896s29.455-26.579 49.873-46.154c1.679-1.606 3.293-3.165 4.827-4.659 7.028-6.844 12.33-12.314 13.848-14.603 0 0 8.563 8.474 0 18.274-8.572 9.799 33.734 29.028 20.883 56.627z" fill="#98daf4"/><path d="m817 488.355c-.072 1.06-.956 1.88-2.008 1.88-.04 0-.08 0-.128-.008-1.109-.072-1.944-1.02-1.88-2.129 1.229-19.149-9.326-46.025-17.808-51.367-3.526-2.225-5.671-5.004-6.354-8.257-.353-1.663-.265-3.229 0-4.57 1.679-1.606 3.293-3.165 4.827-4.659.651.667.763 1.711.233 2.514-.032.048-1.799 2.811-1.124 5.92.466 2.137 2 4.04 4.562 5.655 10.627 6.69 20.925 35.486 19.68 55.021z" fill="#fff"/><path d="m616.943 470.673 51.325-18.234 61.403 65.261 76.22-12.085-39.266-60.863" style="fill:none;stroke:#b6fcff;stroke-width:3.6278;stroke-linecap:round;stroke-linejoin:round;stroke-miterlimit:10"/><path d="m551.923 456.956c12.947 13.332 34.468 35.232 49.944 49.653 23.562 21.955 46.588 29.452 58.904 35.878s128.517 5.417 128.517 5.417 26.239-40.759 39.091-68.36-29.452-46.832-20.884-56.63 0-18.271 0-18.271c-5.89 8.88-68.543 65.416-68.543 65.416s-9.103-1.47-42.304-7.895c-33.2-6.426-74.433-39.091-102.814-42.839-10.94-1.445-21.336 2.093-29.982 6.988l-31.599 21.772" style="fill:none;stroke:#1b2638;stroke-width:2.9022;stroke-linecap:round;stroke-linejoin:round;stroke-miterlimit:10"/><path d="m890.553 330.094-10.43 11.491s-6.758 1.367-7.257.77-2.007-.043-1.638-2.896.243-5.369 3.375-7.463 7.801-3.935 9.8-3.654c2 .281 6.15 1.752 6.15 1.752z" fill="#fff"/><path d="m883.791 325.575s-.609 9.741 1.311 13.798 3.59 12.2 1.275 15.45c-2.316 3.251-2.266 9.892-3.489 12.424-1.224 2.531-6.137 9.626-10.14 12.457s-12.561 6.986-12.561 6.986l-28.009-26.717 9.502-25.969 18.639-17.534c-.001 0 17.995.666 23.472 9.105z" fill="#fff"/><path d="m877.802 374.689s-1.327 6.492-3.884 14.694c-2.374 7.624-5.811 16.73-10.227 23.462-1.23 1.87-2.557 3.335-3.952 4.461-9.031 7.304-20.757.44-24.28-2.425l-4.427-6.721-9.3-14.128 6.389-20.15 6.692-21.111z" fill="#fff"/><path d="m890.553 330.094-10.43 11.491s-6.758 1.367-7.257.77-2.007-.043-1.638-2.896.243-5.369 3.375-7.463 7.801-3.935 9.8-3.654c2 .281 6.15 1.752 6.15 1.752z" style="fill:none;stroke:#1b2638;stroke-width:3.263;stroke-linecap:round;stroke-linejoin:round;stroke-miterlimit:10"/><path d="m832.531 361.86 9.148-27.856 18.639-17.534s17.996.666 23.472 9.105c0 0-.609 9.741 1.311 13.798s3.59 12.2 1.275 15.45c-2.316 3.251-2.266 9.892-3.489 12.424-.588 1.217-2.029 3.487-3.811 5.832" style="fill:none;stroke:#1b2638;stroke-width:2.9022;stroke-linecap:round;stroke-linejoin:round;stroke-miterlimit:10"/><path d="m834.097 362.295-2.849-21.219c-.22-3.058.663-6.094 2.488-8.558l8.789-11.867s3.938-1.399 9.144.846c5.207 2.245 11.629 4.068 11.629 4.068s2.018 8.222-3.113 9.568c-5.131 1.345-11.401 1.443-11.401 1.443s-1.038 4.437.94 6.948.225 14.091-6.049 17.069c-11.144 5.289-9.578 1.702-9.578 1.702z" fill="#fff"/><path d="m831.248 341.076c-.22-3.058.663-6.094 2.488-8.558l8.789-11.867s3.938-1.399 9.144.846c5.207 2.245 11.629 4.068 11.629 4.068s2.018 8.222-3.113 9.568c-5.131 1.345-11.401 1.443-11.401 1.443s-1.038 4.437.94 6.948c1.127 1.431 1.066 5.856-.368 9.921" style="fill:none;stroke:#1b2638;stroke-width:2.9022;stroke-linecap:round;stroke-linejoin:round;stroke-miterlimit:10"/><path d="m885.465 352.773s-9.627 6.266-12.436 8.1c-2.255 1.472-8.362 2.244-10.684 2.492-.575.061-1.053.471-1.197 1.031-.574 2.241-1.313 7.687 5.166 7.411 8.146-.347 17.453-6.238 18.625-6.758s4.339-3.916 4.328-5.782c-.01-1.866-.564-5.829-3.802-6.494z" fill="#fff"/><path d="m885.465 352.773s-9.627 6.266-12.436 8.1c-2.255 1.472-8.362 2.244-10.684 2.492-.575.061-1.053.471-1.197 1.031-.574 2.241-1.313 7.687 5.166 7.411 8.146-.347 17.453-6.238 18.625-6.758s4.339-3.916 4.328-5.782c-.01-1.866-.564-5.829-3.802-6.494z" style="fill:none;stroke:#1b2638;stroke-width:2.9022;stroke-linecap:round;stroke-linejoin:round;stroke-miterlimit:10"/><path d="m876.784 320.067c.26-.203 13.936-17.768 13.936-17.768l.146-5.589-11.646 1.318-19.724 19.245" fill="#fff"/><path d="m859.496 317.273s.277 6.146 5.939 6.26 11.349-3.466 11.349-3.466" fill="#fff"/><path d="m876.784 320.067c.26-.203 13.936-17.768 13.936-17.768l.146-5.589-11.646 1.318-20.589 20.089" style="fill:none;stroke:#1b2638;stroke-width:2.9022;stroke-linecap:round;stroke-linejoin:round;stroke-miterlimit:10"/><path d="m868.44 361.86 9.36-102.835" style="fill:none;stroke:#1b2638;stroke-width:10.1579;stroke-linecap:round;stroke-linejoin:round;stroke-miterlimit:10"/><path d="m890.866 296.709-5.711-7.721s-5.223-.309-6.37 2.831 1.05 9.266 4.89 9.226c3.839-.04 7.191-4.336 7.191-4.336z" fill="#fff"/><path d="m890.866 296.709-5.711-7.721s-5.223-.309-6.37 2.831 1.05 9.266 4.89 9.226c3.839-.04 7.191-4.336 7.191-4.336z" style="fill:none;stroke:#1b2638;stroke-width:2.9022;stroke-linecap:round;stroke-linejoin:round;stroke-miterlimit:10"/><path d="m886.695 317.379-12.192 7.882s-2.419 11.13 5.901 10.121l13.373-6.967c1.213-.632 1.84-2.007 1.522-3.338-.611-2.563-2.15-6.504-5.94-7.986-.878-.345-1.871-.225-2.664.288z" fill="#fff"/><path d="m886.695 317.379-12.192 7.882s-2.419 11.13 5.901 10.121l13.373-6.967c1.213-.632 1.84-2.007 1.522-3.338-.611-2.563-2.15-6.504-5.94-7.986-.878-.345-1.871-.225-2.664.288z" style="fill:none;stroke:#1b2638;stroke-width:2.9022;stroke-linecap:round;stroke-linejoin:round;stroke-miterlimit:10"/><path d="m890.657 335.504c-.717-.355-1.566-.322-2.269.062-1.878 1.026-5.978 3.167-7.908 3.405-2.549.315-10.394 3.334-10.394 3.334s-3.635 7.528 2.019 9.777c1.27.505 2.673.56 4.001.234 2.199-.54 6.614-1.696 10.801-3.224 5.885-2.148 8.098-4.535 8.12-6.064.02-1.376-.83-5.769-4.37-7.524z" fill="#fff"/><path d="m890.657 335.504c-.717-.355-1.566-.322-2.269.062-1.878 1.026-5.978 3.167-7.908 3.405-2.549.315-10.394 3.334-10.394 3.334s-3.635 7.528 2.019 9.777c1.27.505 2.673.56 4.001.234 2.199-.54 6.614-1.696 10.801-3.224 5.885-2.148 8.098-4.535 8.12-6.064.02-1.376-.83-5.769-4.37-7.524z" style="fill:none;stroke:#1b2638;stroke-width:2.9022;stroke-linecap:round;stroke-linejoin:round;stroke-miterlimit:10"/><path d="m738.952 470.059s1.607 8.972 0 17.005" style="fill:none;stroke:#1b2638;stroke-width:2.9022;stroke-linecap:round;stroke-linejoin:round;stroke-miterlimit:10"/><path d="m809.698 514.452c-10.578 18.177-20.41 33.455-20.41 33.455s-13.012.112-30.804.024c-.008 0-.008 0-.008 0-12.322-2.859-23.454-5.799-23.454-5.799l-57.182-34.595s51.118.851 70.749-8.161c19.341-8.877 54.266-12.13 61.109 15.076z" fill="#82c0e0"/><path d="m1080.058 588.004s-81.93 19.816-125.304 14.458c0 0 17.133-142.662 0-165.578 0 0-44.981 82.042-78.717 94.356-33.736 12.322-85.681 39.093-95.85 38.555-10.177-.53-26.33 9.012-17.719-10.755 8.611-19.768 17.719-40.113 17.719-40.113s129.586-166.004 142.437-180.992c8.482-9.896 30.643-25.519 52.636-31.679 11.334-3.181 22.619-3.847 31.969.08 7.599 3.189 14.771 13.912 21.438 29.43 31.359 73.02 51.391 252.238 51.391 252.238z" fill="#65abe0"/><path d="m1076.484 559.205s-74.205 16.667-118.584 12.826" style="fill:none;stroke:#fff;stroke-width:2.9022;stroke-linecap:round;stroke-linejoin:round;stroke-miterlimit:10"/><path d="m1228.391 561.232c-12.321 43.375-85.143 73.697-85.143 73.697-15.534-1.277-164.936-80.122-164.936-80.122s-117.272 86.211-140.831 99.135-100.854 0-100.854 0-13.743-46.122-9.992-55.76 47.656-50.339 47.656-50.339 136.027-63.969 196.061-87.119c12.426-4.787 21.591-7.832 25.631-8.201 8.153-.739 20.274 3.518 33.222 9.647 24.483 11.591 51.913 29.872 61.03 33.728 13.921 5.895 138.156 65.334 138.156 65.334z" fill="#65abe0"/><path d="m780.364 574.614c-14.635 22.49-17.494 47.126-25.35 63.905-5.197 11.109-18.37 17.358-36.828 20.017-9.43 1.349-20.241 1.767-32.065 1.406-28.33-.876-58.299-8.056-109.047-15.687-.008 0-.008 0-.008 0-11.92-1.799-24.989-3.615-39.455-5.382-76.042-9.277-81.054-42.836-81.054-42.836l-1.815-110.943 69.303-30.073s16.418-12.49 31.422-13.751c15.012-1.253 83.528 42.314 103.159 56.596 19.639 14.281 71.046 25.342 92.107 17.181 21.061-8.169 34.989-4.329 40.7 4.948 5.711 9.284 3.566 32.128-11.069 54.619z" fill="#98daf4"/><path d="m703.077 634.929c2.651 8.346 10.796 16.804 15.109 23.607-9.43 1.349-20.241 1.767-32.065 1.406-28.33-.876-58.299-8.056-109.047-15.687.691-.137 36.338-7.141 66.564-22.515 30.523-15.526 10.169 4.562 21.414 9.51s28.41-47.479 49.27-45.969c20.853 1.51-16.064 34.45-11.245 49.648z" fill="#82c0e0"/><path d="m765.462 607.731s14.723 19.363 61.311-7.411c46.587-26.774 50.871-39.249 72.291-44.257" style="fill:none;stroke:#fff;stroke-width:2.9022;stroke-linecap:round;stroke-linejoin:round;stroke-miterlimit:10"/><path d="m589.529 454.86c25.464 13.713 56.828 34.079 69.098 43.005 19.639 14.281 71.046 25.342 92.107 17.181 21.061-8.169 34.989-4.329 40.7 4.948 5.711 9.285 3.566 32.129-11.068 54.62-14.635 22.49-17.494 47.126-25.35 63.905-5.197 11.109-18.37 17.358-36.828 20.017-9.43 1.349-20.241 1.767-32.065 1.406-28.33-.876-58.299-8.056-109.047-15.687-.008 0-.008 0-.008 0-11.92-1.799-24.989-3.615-39.455-5.382-76.042-9.277-81.054-42.836-81.054-42.836" style="fill:none;stroke:#1b2638;stroke-width:2.9022;stroke-linecap:round;stroke-linejoin:round;stroke-miterlimit:10"/><path d="m553.32 489.675-70.587 24.551c-1.513-.676-5.385-4.532-10.224-9.794-5.569-6.068-12.421-14.004-18.444-21.101-8.073-9.533-14.664-17.553-14.664-17.553s55.723-59.302 69.573-34.744c1.122 1.99 2.435 3.918 3.895 5.784 6.975 8.957 17.276 16.654 26.01 23.859 11.975 9.894 20.993 18.874 14.441 28.998z" fill="#fff"/><path d="m482.735 514.228c5.621 2.499 45.769 13.756 70.582-24.554" fill="#fff"/><path d="m1371.461 674.244v389.127c0 14.506-11.759 26.265-26.265 26.265h-1022.516c-14.506 0-26.265-11.759-26.265-26.265v-389.127c0-14.506 11.759-26.265 26.265-26.265h1022.516c14.505-.001 26.265 11.759 26.265 26.265z" fill="#f299ac"/><path d="m406.885 684.228h861.387c6.514 0 11.799 5.277 11.799 11.792v345.575c0 6.514-5.285 11.792-11.799 11.792h-861.387c-6.522 0-11.799-5.277-11.799-11.792v-345.575c0-6.514 5.277-11.792 11.799-11.792z" fill="#fff"/><path d="m406.885 684.228h98.998v369.158h-98.998c-6.522 0-11.799-5.277-11.799-11.792v-345.574c0-6.514 5.277-11.792 11.799-11.792z" fill="#98daf4"/><path d="m575.902 730.59v276.434c0 10.819-8.771 19.59-19.59 19.59h-4.194c-10.819 0-19.59-8.771-19.59-19.59v-276.434c0-10.819 8.771-19.59 19.59-19.59h4.194c10.819 0 19.59 8.771 19.59 19.59z" fill="#f299ac"/><path d="m645.919 730.59v276.434c0 10.819-8.771 19.59-19.59 19.59h-4.194c-10.819 0-19.59-8.771-19.59-19.59v-276.434c0-10.819 8.771-19.59 19.59-19.59h4.194c10.82 0 19.59 8.771 19.59 19.59z" fill="#f299ac"/><path d="m564.121 748.908v100.981c0 4.942-4.006 8.949-8.949 8.949h-1.916c-4.942 0-8.949-4.006-8.949-8.949v-100.981c0-4.942 4.006-8.949 8.949-8.949h1.916c4.943-0 8.949 4.007 8.949 8.949z" fill="#1b2638"/><path d="m634.139 748.908v100.981c0 4.942-4.006 8.949-8.949 8.949h-1.916c-4.942 0-8.949-4.006-8.949-8.949v-100.981c0-4.942 4.006-8.949 8.949-8.949h1.916c4.942-0 8.949 4.007 8.949 8.949z" fill="#1b2638"/><circle cx="554.214" cy="978.387" fill="#fff" r="9.907"/><circle cx="445.248" cy="991.379" fill="#65abe0" r="9.907"/><circle cx="445.248" cy="942.811" fill="#65abe0" r="9.907"/><circle cx="445.248" cy="894.244" fill="#65abe0" r="9.907"/><circle cx="445.248" cy="845.676" fill="#65abe0" r="9.907"/><circle cx="554.214" cy="926.745" fill="#fff" r="9.907"/><circle cx="624.232" cy="978.387" fill="#f4d862" r="9.907"/><circle cx="624.232" cy="926.745" fill="#1b2638" r="9.907"/><path d="m754.886 730.59v276.434c0 10.819-8.771 19.59-19.59 19.59h-4.194c-10.819 0-19.59-8.771-19.59-19.59v-276.434c0-10.819 8.771-19.59 19.59-19.59h4.194c10.819 0 19.59 8.771 19.59 19.59z" fill="#f299ac"/><path d="m824.904 730.59v276.434c0 10.819-8.771 19.59-19.59 19.59h-4.194c-10.819 0-19.59-8.771-19.59-19.59v-276.434c0-10.819 8.771-19.59 19.59-19.59h4.194c10.819 0 19.59 8.771 19.59 19.59z" fill="#f299ac"/><path d="m743.105 748.908v100.981c0 4.942-4.006 8.949-8.949 8.949h-1.916c-4.942 0-8.949-4.006-8.949-8.949v-100.981c0-4.942 4.006-8.949 8.949-8.949h1.916c4.943-0 8.949 4.007 8.949 8.949z" fill="#1b2638"/><path d="m813.123 748.908v100.981c0 4.942-4.006 8.949-8.949 8.949h-1.916c-4.942 0-8.949-4.006-8.949-8.949v-100.981c0-4.942 4.006-8.949 8.949-8.949h1.916c4.943-0 8.949 4.007 8.949 8.949z" fill="#1b2638"/><circle cx="733.199" cy="978.387" fill="#f4d862" r="9.907"/><circle cx="733.199" cy="926.745" fill="#f4d862" r="9.907"/><circle cx="803.216" cy="978.387" fill="#1b2638" r="9.907"/><circle cx="803.216" cy="926.745" fill="#1b2638" r="9.907"/><path d="m933.87 730.59v276.434c0 10.819-8.771 19.59-19.59 19.59h-4.194c-10.819 0-19.59-8.771-19.59-19.59v-276.434c0-10.819 8.771-19.59 19.59-19.59h4.194c10.819 0 19.59 8.771 19.59 19.59z" fill="#f299ac"/><path d="m1003.888 730.59v276.434c0 10.819-8.771 19.59-19.59 19.59h-4.194c-10.819 0-19.59-8.771-19.59-19.59v-276.434c0-10.819 8.771-19.59 19.59-19.59h4.194c10.819 0 19.59 8.771 19.59 19.59z" fill="#f299ac"/><path d="m922.089 748.908v100.981c0 4.942-4.006 8.949-8.949 8.949h-1.916c-4.942 0-8.949-4.006-8.949-8.949v-100.981c0-4.942 4.006-8.949 8.949-8.949h1.916c4.943-0 8.949 4.007 8.949 8.949z" fill="#1b2638"/><path d="m992.107 748.908v100.981c0 4.942-4.006 8.949-8.949 8.949h-1.916c-4.942 0-8.949-4.006-8.949-8.949v-100.981c0-4.942 4.006-8.949 8.949-8.949h1.916c4.943-0 8.949 4.007 8.949 8.949z" fill="#1b2638"/><circle cx="912.183" cy="978.387" fill="#98daf4" r="9.907"/><circle cx="912.183" cy="926.745" fill="#98daf4" r="9.907"/><circle cx="982.201" cy="978.387" fill="#f4d862" r="9.907"/><circle cx="982.201" cy="926.745" fill="#f4d862" r="9.907"/><path d="m1112.854 730.59v276.434c0 10.819-8.771 19.59-19.59 19.59h-4.194c-10.819 0-19.59-8.771-19.59-19.59v-276.434c0-10.819 8.771-19.59 19.59-19.59h4.194c10.82 0 19.59 8.771 19.59 19.59z" fill="#f299ac"/><path d="m1182.872 730.59v276.434c0 10.819-8.771 19.59-19.59 19.59h-4.194c-10.819 0-19.59-8.771-19.59-19.59v-276.434c0-10.819 8.771-19.59 19.59-19.59h4.194c10.82 0 19.59 8.771 19.59 19.59z" fill="#f299ac"/><path d="m1101.074 748.908v100.981c0 4.942-4.006 8.949-8.949 8.949h-1.916c-4.942 0-8.948-4.006-8.948-8.949v-100.981c0-4.942 4.006-8.949 8.948-8.949h1.916c4.942-0 8.949 4.007 8.949 8.949z" fill="#1b2638"/><path d="m1171.092 748.908v100.981c0 4.942-4.006 8.949-8.949 8.949h-1.916c-4.942 0-8.949-4.006-8.949-8.949v-100.981c0-4.942 4.006-8.949 8.949-8.949h1.916c4.942-0 8.949 4.007 8.949 8.949z" fill="#1b2638"/><circle cx="1091.167" cy="978.387" fill="#98daf4" r="9.907"/><circle cx="1091.167" cy="926.745" fill="#fff" r="9.907"/><circle cx="1161.185" cy="978.387" fill="#fff" r="9.907"/><circle cx="1161.185" cy="926.745" fill="#98daf4" r="9.907"/><path d="m781.529 684.228h184.567" style="fill:none;stroke:#1b2638;stroke-width:3.6278;stroke-linecap:round;stroke-linejoin:round;stroke-miterlimit:10"/><path d="m982.13 1053.386h88.899" style="fill:none;stroke:#1b2638;stroke-width:3.6278;stroke-linecap:round;stroke-linejoin:round;stroke-miterlimit:10"/><path d="m477.09 850.248s1.079 16.21 4.828 18.887 24.9-17.403 24.9-17.403l6.158-17.136s-9.371-5.89-13.119 2.41c-3.749 8.3-22.767 13.242-22.767 13.242z" fill="#fff"/><path d="m531.68 303.201c13.819 32.192-3.416 51.613 17.39 61.732s25.361 38.095 1.491 38.792c-23.874.7-9.534 24.782-24.874 26.853-15.333 2.074-33.235-15.932-35.783-20.696-2.543-4.767-7.506-21.849-7.506-21.849l-5.726-33.085 9.23-35.286 2.912-11.127s6.025-7.783 13.894-13.219c9.409-6.499 21.45-9.643 28.972 7.885z" fill="#1b2638"/><path d="m477.09 850.248s1.079 16.21 4.828 18.887 24.9-17.403 24.9-17.403l6.158-17.136s-9.371-5.89-13.119 2.41c-3.749 8.3-22.767 13.242-22.767 13.242z" style="fill:none;stroke:#1b2638;stroke-width:2.9022;stroke-linecap:round;stroke-linejoin:round;stroke-miterlimit:10"/><path d="m463.612 822.38s14.826 34.171 20.716 38.187 43.375-16.6 43.375-16.6-.799-7.13-9.639-4.552c-8.84 2.579-18.474 3.481-18.474 3.481s-16.868-9.907-19.01-13.655-15.529-6.861-15.529-6.861" fill="#fff"/><path d="m463.612 822.38s14.826 34.171 20.716 38.187 43.375-16.6 43.375-16.6-.799-7.13-9.639-4.552c-8.84 2.579-18.474 3.481-18.474 3.481s-16.868-9.907-19.01-13.655-15.529-6.861-15.529-6.861" style="fill:none;stroke:#1b2638;stroke-width:2.9022;stroke-linecap:round;stroke-linejoin:round;stroke-miterlimit:10"/><path d="m496.108 733.924s17.671 27.845 24.9 34.271 36.681 33.468 36.681 33.468-5.087 10.71-16.332 3.748c-11.245-6.961-26.507-14.458-31.862-13.387s-18.474 14.458-18.207 21.152c.268 6.694 4.819 19.545 8.568 23.829 3.748 4.284 32.397 12.584 34.807 16.6s-1.874 9.371-1.874 9.371l-41.504-14.19s-28.645-26.774-31.322-30.255 9.371-33.2 6.158-37.484-21.42-19.545-21.42-19.545-2.945-7.497 3.748-17.403c6.694-9.906 3.213-14.19 17.671-14.994s29.988 4.819 29.988 4.819z" fill="#fff"/><path d="m538.878 460.677c-3.434 6.276-8.849 15.079-17.222 26.386-14.718 19.895-39.407 18.736-49.147 17.368-5.569-6.068-12.421-14.004-18.444-21.101 5.8-.73 17.345-3.887 24.52-17.222 9.902-18.39 7.167-10.278 18.874-22.292 4.202-4.309 9.871-6.261 15.409-6.998 6.975 8.957 17.276 16.654 26.01 23.859z" fill="#dae4ea"/><path d="m496.108 733.924s17.671 27.845 24.9 34.271 36.681 33.468 36.681 33.468-5.087 10.71-16.332 3.748c-11.245-6.961-26.507-14.458-31.862-13.387s-18.474 14.458-18.207 21.152c.268 6.694 4.819 19.545 8.568 23.829 3.748 4.284 32.397 12.584 34.807 16.6s-1.874 9.371-1.874 9.371l-41.504-14.19s-28.645-26.774-31.322-30.255 9.371-33.2 6.158-37.484-21.42-19.545-21.42-19.545-2.945-7.497 3.748-17.403c6.694-9.906 3.213-14.19 17.671-14.994s29.988 4.819 29.988 4.819z" style="fill:none;stroke:#1b2638;stroke-width:2.9022;stroke-linecap:round;stroke-linejoin:round;stroke-miterlimit:10"/><path d="m517.239 336.92c-5.315 18.69-7.872 31.923-7.713 34.691.156 2.775-9.923-7.974-9.923-7.974l-13.7-43.976 2.912-11.127s6.025-7.783 13.894-13.219c0 .001 19.842 22.91 14.53 41.605z" fill="#f4d862"/><path d="m403.74 444.752c-.293-1.305-50.073-34.947-21.647-68.592 0 0-19.283-77.872 24.782-76.689s29.704 26.275 60.195 14.029 41.351-1.361 37.521 26.232 25.029 38.844 2.178 52.806-65.889 45.036-70.138 47.901c-4.248 2.867-32.891 4.313-32.891 4.313z" fill="#1b2638"/><ellipse cx="419.82" cy="450.604" fill="#fff" rx="9.394" ry="19.459" transform="matrix(.6068 -.7949 .7949 .6068 -193.0885 510.9008)"/><path d="m436.267 459.867c.51-4.536-3.7-11.351-10.748-16.73-8.543-6.521-18.02-8.464-21.168-4.34s1.225 12.754 9.768 19.274c3.86 2.946 7.911 4.958 11.482 5.898" style="fill:none;stroke:#1b2638;stroke-width:2.9022;stroke-linecap:round;stroke-linejoin:round;stroke-miterlimit:10"/><path d="m432.701 361.914s-36.911 33.908-23.724 56.201c0 0 8.274 11.483 14.924 25.927s28.739 65.954 72.584 43.734 15.366-70.492 7.651-84.395c-7.715-13.904-12.084-27.366-12.084-27.366-10.179-23.817-59.351-14.101-59.351-14.101z" fill="#fff"/><ellipse cx="510.227" cy="404.788" fill="#fff" rx="9.394" ry="19.459" transform="matrix(.9998 -.0193 .0193 .9998 -7.7145 9.919)"/><path d="m405.134 418.36s-3.097-41.263 9.771-40.124 10.312 27.73 29.86 15.685c19.548-12.044 19.816-24.561 35.457-18.459s21.04 5.859 18.437-2.441-16.925-28.476-27.312-30.693-31.119 1.163-31.119 1.163l-40.535 20.898s-13.969 18.836-6.92 34.503c7.05 15.668 12.361 19.468 12.361 19.468z" fill="#1b2638"/><path d="m484.077 444.545c1.269 2.505-1.445 6.433-6.064 8.773-4.618 2.341-9.392 2.207-10.661-.298-.952-1.88-3.087-17.768-4.094-25.584-.186-1.448 1.549-2.328 2.607-1.321 5.708 5.434 17.259 16.55 18.212 18.43z" fill="#f299ac"/><ellipse cx="439.236" cy="446.349" fill="#98daf4" rx="7.839" ry="3.39" transform="matrix(.9796 -.2011 .2011 .9796 -80.7809 97.4389)"/><path d="m453.462 485.826c11.045 7.847 25.246 10.959 43.023 1.95 16.346-8.284 22.64-20.189 23.705-32.584.203-2.358.216-4.734.073-7.107" style="fill:none;stroke:#1b2638;stroke-width:2.9022;stroke-linecap:round;stroke-linejoin:round;stroke-miterlimit:10"/><path d="m500.834 404.969c-.207-10.745 3.83-19.537 9.017-19.637s9.56 8.529 9.768 19.274c.088 4.58-.594 8.806-1.809 12.154" style="fill:none;stroke:#1b2638;stroke-width:2.9022;stroke-linecap:round;stroke-linejoin:round;stroke-miterlimit:10"/><circle cx="458.468" cy="263.015" fill="#1b2638" r="13.047"/><circle cx="461.43" cy="293.869" fill="#1b2638" r="6.612"/><path d="m460.077 470.673s7.876 4.431 16.595 0" style="fill:none;stroke:#1b2638;stroke-width:2.9022;stroke-linecap:round;stroke-linejoin:round;stroke-miterlimit:10"/><path d="m503.538 740.971s-1.984 1.791-17.334-2.137-29.278 8.209-29.647 23.92c-.37 15.703-11.767 14.635-11.767 14.635s-2.362-3.133-6.233-8.257c-.771-1.02-1.598-2.129-2.49-3.301-18.249-24.185-59.078-78.267-62.676-82.693-4.643-5.711-16.418-11.775-17.848-24.989-1.43-13.205 48.547-137.441 63.544-144.582 14.996-7.141 34.378-22.129 34.378-22.129l12.089 6.763s.313 22.868 2.618 25.719c2.313 2.859 35.88 46.411 17.318 57.479-18.563 11.069-35.704 49.849-35.704 49.849-.257 12.916 28.418 65.295 43.985 92.749.98 1.727 1.904 3.357 2.771 4.868 4.249 7.44 6.996 12.106 6.996 12.106z" fill="#98daf4"/><path d="m449.789 631.249s-10.353 10.839-29.63 6.198" style="fill:none;stroke:#1b2638;stroke-width:2.9022;stroke-linecap:round;stroke-linejoin:round;stroke-miterlimit:10"/><path d="m496.542 728.867c-.643-.161-1.309-.337-2.008-.522-4.329-1.141-10.257-2.699-20.209-2.699-19.061 0-22.635 11.872-26.41 24.45-.635 2.112-1.293 4.289-2.016 6.337-1.968 5.558-4.707 9.703-7.342 12.699-.771-1.02-1.598-2.129-2.49-3.301 2.185-2.611 4.418-6.137 6.048-10.739.691-1.952 1.301-3.992 1.952-6.153 3.655-12.169 8.209-27.31 30.258-27.31 9.165 0 15.069 1.253 19.446 2.37.98 1.727 1.904 3.358 2.771 4.868z" fill="#fff"/><path d="m843.436 515.868s4.756-12.471 20.286-39.246c15.529-26.774 45.172-53.549 56.322-66.401" style="fill:none;stroke:#fff;stroke-width:2.9022;stroke-linecap:round;stroke-linejoin:round;stroke-miterlimit:10"/><path d="m1028.668 335.765c-5.623 4.378-12.691 6.988-20.362 6.988-18.338 0-33.206-14.868-33.206-33.206 0-1.116.056-2.209.161-3.293 10.284-8.461 25.835-11.342 35.184-7.414 7.599 3.189 14.994 18.433 18.223 36.925z" fill="#fff"/><path d="m1029.206 462.169c-5.663 10.209-16.547 17.125-29.053 17.125-13.085 0-24.402-7.566-29.8-18.571 12.426-4.787 21.591-7.832 25.631-8.201 8.153-.738 20.274 3.519 33.222 9.647z" fill="#fff"/><path d="m1200.489 547.904s-21.611 50.607-82.534 77.215" style="fill:none;stroke:#fff;stroke-width:2.9022;stroke-linecap:round;stroke-linejoin:round;stroke-miterlimit:10"/><path d="m707.18 523.924s-3.927 33.464-38.912 48.683" style="fill:none;stroke:#1b2638;stroke-width:2.9022;stroke-linecap:round;stroke-linejoin:round;stroke-miterlimit:10"/><ellipse cx="587.409" cy="536.861" fill="#65abe0" rx="52.478" ry="37.484"/><path d="m1115.478 1089.636h364.333" style="fill:none;stroke:#1b2638;stroke-width:3.6278;stroke-linecap:round;stroke-linejoin:round;stroke-miterlimit:10"/><path d="m380.903 1089.636h629.35" style="fill:none;stroke:#1b2638;stroke-width:3.6278;stroke-linecap:round;stroke-linejoin:round;stroke-miterlimit:10"/><path d="m120.189 1089.636h105.527" style="fill:none;stroke:#1b2638;stroke-width:3.6278;stroke-linecap:round;stroke-linejoin:round;stroke-miterlimit:10"/><path d="m272.272 1089.636h57.109" style="fill:none;stroke:#1b2638;stroke-width:3.6278;stroke-linecap:round;stroke-linejoin:round;stroke-miterlimit:10"/><path d="m1041.716 1089.636h41.129" style="fill:none;stroke:#1b2638;stroke-width:3.6278;stroke-linecap:round;stroke-linejoin:round;stroke-miterlimit:10"/><path d="m176.216 871.533-46.862 10.282 43.599-38.692 43.598-38.692-13.715 56.655-13.715 56.655z" fill="#98daf4"/><path d="m749.378 347.197 42.808-21.663-32.551 48.357-32.55 48.357-.873-58.285-.873-58.285z" fill="#fff"/><path d="m581.002 533.293-11.356-23.266 25.839 17.939 25.838 17.94-31.455.018-31.456.017z" fill="#fff"/><circle cx="284.696" cy="285.718" fill="#b0ecff" r="9.463"/><circle cx="1203.382" cy="320.776" fill="#b0ecff" r="9.463"/><circle cx="216.551" cy="443.819" fill="none" r="24.698" stroke="#98daf4" stroke-miterlimit="10" stroke-width="2.9022"/><circle cx="637.845" cy="354.981" fill="none" r="24.698" stroke="#65abe0" stroke-miterlimit="10" stroke-width="2.9022"/><path d="m415.267 519.112 42.615 94.373-100.59 40.601 108.16 19.395-53.249 59.317" style="fill:none;stroke:#b6fcff;stroke-width:3.6278;stroke-linecap:round;stroke-linejoin:round;stroke-miterlimit:10"/><circle cx="760.028" cy="196.615" fill="#f299ac" r="86.239"/><path d="m754.776 282.706s44.875 23.594 79.113 18.414c0 0-21.199-26.607-4.093-53.824s-79.001-5.816-79.001-5.816z" fill="#f299ac"/><circle cx="1080.728" cy="201.769" fill="none" r="24.698" stroke="#98daf4" stroke-miterlimit="10" stroke-width="2.9022"/><circle cx="1290.575" cy="916.931" fill="#b0ecff" r="6.239"/><path d="m1191.671 1017.493s-39.746-49.158-10.282-68.508 23.18-29.659 29.71-55.034 54.663-58.284 64.176-20.089-14.921 37.049-2.818 54.242c12.102 17.193-18.885 44.843-25.809 56.527-6.925 11.684-3.203 39.085-54.977 32.862z" fill="#b0ecff"/><path d="m1206.103 990.581s-9.444-11.183-4.963-23.048" style="fill:none;stroke:#fff;stroke-width:2.9022;stroke-linecap:round;stroke-linejoin:round;stroke-miterlimit:10"/><path d="m1180.699 1049.058c2.67-1.206 24.549-23.433 38.386-13.561s5.416 33.713-14.948 25.317-23.438-11.756-23.438-11.756z" style="fill:none;stroke:#1b2638;stroke-width:2.9022;stroke-linecap:round;stroke-linejoin:round;stroke-miterlimit:10"/><path d="m1177.854 1059.812s-15.411-33.613-37.819-29.205-15.635 30.309 6.339 25.898c21.975-4.411 31.48 3.307 31.48 3.307z" style="fill:none;stroke:#1b2638;stroke-width:2.9022;stroke-linecap:round;stroke-linejoin:round;stroke-miterlimit:10"/><path d="m1221.232 954.787s14.451 1.09 17.822-15.182" style="fill:none;stroke:#fff;stroke-width:2.9022;stroke-linecap:round;stroke-linejoin:round;stroke-miterlimit:10"/><path d="m1175.052 1088.26c-2.304-32.916 20.076-77.961 31.888-99.19 7.523-13.521 13.183-28.015 16.537-43.121 1.439-6.48 2.595-13.389 3.045-20.118 1.635-24.431 18.621-38.001 24.337-36.006" style="fill:none;stroke:#1b2638;stroke-width:2.9022;stroke-linecap:round;stroke-linejoin:round;stroke-miterlimit:10"/><path d="m1104.746 934.901c-6.328-1.277-29.493-1.115-38.916 65.755 0 0 24.025 13.256 31.33-6.438 7.305-19.693 8.968-24.302 8.968-24.302s-1.456 21.882 12.303 11.549c13.759-10.334 18.726-32.634 18.726-32.634s-9.889-11.759-27.986-13.319c-1.483-.127-2.965-.317-4.425-.611z" fill="#b0ecff"/><g stroke-linecap="round" stroke-linejoin="round"><path d="m1116.496 947.016s-29.336.884-34.72 25.397" fill="none" stroke="#fff" stroke-miterlimit="10" stroke-width="2.9022"/><path d="m1179.377 1053.713c-1.472-1.119-12.702-26.615-18.409-49.793-5.706-23.178-16.741-77.034-66.669-67.434" fill="none" stroke="#1b2638" stroke-miterlimit="10" stroke-width="2.9022"/><path d="m439.403 499.377c-6.433 5.474-13.894 11.136-20.315 14.194-14.994 7.14-64.973 131.373-63.545 144.582s13.209 19.278 17.85 24.989c4.641 5.712 71.398 94.246 71.398 94.246s11.397 1.071 11.768-14.637c.37-15.708 14.293-27.845 29.644-23.918s17.339 2.142 17.339 2.142-54.109-92.006-53.752-109.726c0 0 17.136-38.783 35.699-49.85" fill="none" stroke="#1b2638" stroke-miterlimit="10" stroke-width="2.9022"/><path d="m482.735 514.228c5.621 2.499 45.769 13.756 70.582-24.554" fill="none" stroke="#1b2638" stroke-miterlimit="10" stroke-width="2.9022"/><circle cx="533.057" cy="826.296" fill="#f4d862" r="23.026" stroke="#1b2638" stroke-miterlimit="10" stroke-width="2.9022"/><path d="m817.487 527.768c45.101-20.786 114.501-52.251 152.866-67.045 12.426-4.787 21.591-7.832 25.631-8.201 8.153-.739 20.274 3.518 33.222 9.647 24.483 11.591 51.913 29.872 61.03 33.728 7.313 3.097 45.069 20.971 79.265 37.241" fill="none" stroke="#1b2638" stroke-miterlimit="10" stroke-width="2.9022"/><path d="m1039.459 586.512c-33.073-16.89-61.146-31.706-61.146-31.706s-15.443 11.353-36.247 26.437" fill="none" stroke="#1b2638" stroke-miterlimit="10" stroke-width="2.9022"/><path d="m795.459 499.377 68.232-86.532" fill="none" stroke="#1b2638" stroke-miterlimit="10" stroke-width="2.9022"/><path d="m713.16 194.205h96.209" fill="#f4d862" stroke="#1b2638" stroke-miterlimit="10" stroke-width="3.263"/><circle cx="713.16" cy="194.205" fill="#f4d862" r="15.297" stroke="#1b2638" stroke-miterlimit="10" stroke-width="3.263"/><circle cx="760.028" cy="194.205" fill="#fff" r="15.297" stroke="#1b2638" stroke-miterlimit="10" stroke-width="3.263"/><circle cx="806.895" cy="194.205" fill="#f4d862" r="15.297" stroke="#1b2638" stroke-miterlimit="10" stroke-width="3.263"/><path d="m533.057 826.296s23.042 136.817-17.396 138.424 71.569-20.884 37.655 10.442-108.069 16.218-108.069 16.218" fill="none" stroke="#1b2638" stroke-miterlimit="10" stroke-width="3.6278"/><path d="m977.439 304.602s39.273-4.357 51.767 32.433" fill="none" stroke="#1b2638" stroke-miterlimit="10" stroke-width="2.9022"/><path d="m831.248 341.076 1.088 21.219-9.901 29.52" fill="none" stroke="#1b2638" stroke-miterlimit="10" stroke-width="2.9022"/></g></svg>